<?xml version="1.0" encoding="utf-8" standalone="no"?>
<!DOCTYPE svg PUBLIC "-//W3C//DTD SVG 1.1//EN"
  "http://www.w3.org/Graphics/SVG/1.1/DTD/svg11.dtd">
<!-- Created with matplotlib (https://matplotlib.org/) -->
<svg height="216pt" version="1.1" viewBox="0 0 648 216" width="648pt" xmlns="http://www.w3.org/2000/svg" xmlns:xlink="http://www.w3.org/1999/xlink">
 <defs>
  <style type="text/css">
*{stroke-linecap:butt;stroke-linejoin:round;}
  </style>
 </defs>
 <g id="figure_1">
  <g id="patch_1">
   <path d="M 0 216 
L 648 216 
L 648 0 
L 0 0 
z
" style="fill:#ffffff;"/>
  </g>
  <g id="axes_1">
   <g id="patch_2">
    <path d="M 81 192.24 
L 583.2 192.24 
L 583.2 25.92 
L 81 25.92 
z
" style="fill:#ffffff;"/>
   </g>
   <g id="PolyCollection_1">
    <defs>
     <path d="M 81 -95.803677 
L 81 -50.439401 
L 83.049796 -42.135686 
L 85.099592 -49.288616 
L 87.149388 -50.597439 
L 89.199184 -44.767643 
L 91.24898 -43.312431 
L 93.298776 -58.990839 
L 95.348571 -71.228219 
L 97.398367 -52.651882 
L 99.448163 -75.612909 
L 101.497959 -83.76829 
L 103.547755 -97.545178 
L 105.597551 -90.473549 
L 107.647347 -80.218441 
L 109.697143 -71.760772 
L 111.746939 -80.474282 
L 113.796735 -80.430581 
L 115.846531 -81.479552 
L 117.896327 -99.077923 
L 119.946122 -66.739842 
L 121.995918 -74.264157 
L 124.045714 -78.920845 
L 126.09551 -76.53611 
L 128.145306 -86.505512 
L 130.195102 -90.462229 
L 132.244898 -72.789445 
L 134.294694 -84.92726 
L 136.34449 -83.451321 
L 138.394286 -69.373398 
L 140.444082 -70.417684 
L 142.493878 -69.777113 
L 144.543673 -69.273199 
L 146.593469 -48.10999 
L 148.643265 -62.337346 
L 150.693061 -53.323987 
L 152.742857 -66.804507 
L 154.792653 -81.574951 
L 156.842449 -103.130318 
L 158.892245 -95.63684 
L 160.942041 -94.207235 
L 162.991837 -91.371943 
L 165.041633 -84.613561 
L 167.091429 -101.39435 
L 169.141224 -102.540075 
L 171.19102 -83.569825 
L 173.240816 -98.204592 
L 175.290612 -89.288581 
L 177.340408 -78.066445 
L 179.390204 -102.735165 
L 181.44 -120.967963 
L 183.489796 -120.186071 
L 185.539592 -128.487741 
L 187.589388 -121.83388 
L 189.639184 -122.029373 
L 191.68898 -126.54444 
L 193.738776 -108.56602 
L 195.788571 -102.529268 
L 197.838367 -98.947789 
L 199.888163 -84.431825 
L 201.937959 -77.312801 
L 203.987755 -83.81882 
L 206.037551 -101.963638 
L 208.087347 -115.238242 
L 210.137143 -114.01705 
L 212.186939 -110.71115 
L 214.236735 -115.46687 
L 216.286531 -103.233619 
L 218.336327 -93.623107 
L 220.386122 -109.345585 
L 222.435918 -122.044033 
L 224.485714 -105.57806 
L 226.53551 -103.253552 
L 228.585306 -93.260461 
L 230.635102 -73.417153 
L 232.684898 -91.857056 
L 234.734694 -82.799272 
L 236.78449 -93.18638 
L 238.834286 -103.550141 
L 240.884082 -107.262353 
L 242.933878 -108.758429 
L 244.983673 -130.418196 
L 247.033469 -125.43601 
L 249.083265 -113.874268 
L 251.133061 -121.74254 
L 253.182857 -123.209354 
L 255.232653 -113.585998 
L 257.282449 -106.802141 
L 259.332245 -109.865462 
L 261.382041 -119.586951 
L 263.431837 -120.043865 
L 265.481633 -98.11497 
L 267.531429 -94.515597 
L 269.581224 -103.471962 
L 271.63102 -80.54054 
L 273.680816 -96.130716 
L 275.730612 -98.218807 
L 277.780408 -102.369707 
L 279.830204 -102.598035 
L 281.88 -93.394745 
L 283.929796 -73.56843 
L 285.979592 -74.936029 
L 288.029388 -73.154577 
L 290.079184 -70.455339 
L 292.12898 -73.683714 
L 294.178776 -62.879777 
L 296.228571 -48.184902 
L 298.278367 -53.415398 
L 300.328163 -57.031077 
L 302.377959 -47.138081 
L 304.427755 -82.800397 
L 306.477551 -99.803934 
L 308.527347 -108.949708 
L 310.577143 -108.313361 
L 312.626939 -111.863969 
L 314.676735 -122.23576 
L 316.726531 -140.966577 
L 318.776327 -133.512038 
L 320.826122 -139.075486 
L 322.875918 -117.236747 
L 324.925714 -107.397067 
L 326.97551 -101.21368 
L 329.025306 -105.179471 
L 331.075102 -113.611883 
L 333.124898 -104.673371 
L 335.174694 -97.430947 
L 337.22449 -83.644837 
L 339.274286 -80.104833 
L 341.324082 -96.382765 
L 343.373878 -105.094499 
L 345.423673 -112.186462 
L 347.473469 -114.324626 
L 349.523265 -104.29474 
L 351.573061 -103.170506 
L 353.622857 -109.840461 
L 355.672653 -83.353027 
L 357.722449 -97.185256 
L 359.772245 -87.191926 
L 361.822041 -89.356745 
L 363.871837 -81.162782 
L 365.921633 -65.686425 
L 367.971429 -87.447748 
L 370.021224 -112.451538 
L 372.07102 -103.406445 
L 374.120816 -96.355398 
L 376.170612 -101.715939 
L 378.220408 -100.451989 
L 380.270204 -113.168475 
L 382.32 -110.497917 
L 384.369796 -118.831673 
L 386.419592 -117.241839 
L 388.469388 -109.113662 
L 390.519184 -98.48217 
L 392.56898 -103.584717 
L 394.618776 -95.365592 
L 396.668571 -69.257452 
L 398.718367 -73.529743 
L 400.768163 -58.948404 
L 402.817959 -54.447318 
L 404.867755 -55.116876 
L 406.917551 -49.00743 
L 408.967347 -28.229258 
L 411.017143 -26.809578 
L 413.066939 -23.76 
L 415.116735 -48.737887 
L 417.166531 -63.49363 
L 419.216327 -81.078483 
L 421.266122 -86.209863 
L 423.315918 -87.552974 
L 425.365714 -79.349535 
L 427.41551 -74.755941 
L 429.465306 -69.360852 
L 431.515102 -87.042225 
L 433.564898 -92.517921 
L 435.614694 -62.906095 
L 437.66449 -65.93636 
L 439.714286 -62.617737 
L 441.764082 -60.556353 
L 443.813878 -55.193924 
L 445.863673 -48.346391 
L 447.913469 -53.938583 
L 449.963265 -56.316763 
L 452.013061 -65.336342 
L 454.062857 -51.288716 
L 456.112653 -55.428748 
L 458.162449 -50.468496 
L 460.212245 -52.440513 
L 462.262041 -56.755527 
L 464.311837 -65.041398 
L 466.361633 -64.754801 
L 468.411429 -91.412228 
L 470.461224 -83.865303 
L 472.51102 -91.559343 
L 474.560816 -66.384111 
L 476.610612 -56.741054 
L 478.660408 -65.825137 
L 480.710204 -72.693938 
L 482.76 -81.832727 
L 484.809796 -88.409789 
L 486.859592 -94.164012 
L 488.909388 -85.039816 
L 490.959184 -81.270988 
L 493.00898 -78.774529 
L 495.058776 -86.867026 
L 497.108571 -80.944683 
L 499.158367 -96.648709 
L 501.208163 -84.578727 
L 503.257959 -78.624591 
L 505.307755 -60.588615 
L 507.357551 -64.344246 
L 509.407347 -43.473605 
L 511.457143 -28.922847 
L 513.506939 -50.04039 
L 515.556735 -48.840828 
L 517.606531 -52.974909 
L 519.656327 -43.187639 
L 521.706122 -54.804055 
L 523.755918 -52.090189 
L 525.805714 -63.258793 
L 527.85551 -65.238499 
L 529.905306 -74.592758 
L 531.955102 -83.391322 
L 534.004898 -89.560352 
L 536.054694 -89.664361 
L 538.10449 -103.567677 
L 540.154286 -103.195166 
L 542.204082 -109.66221 
L 544.253878 -95.844315 
L 546.303673 -102.901618 
L 548.353469 -110.528418 
L 550.403265 -108.738108 
L 552.453061 -112.521545 
L 554.502857 -95.500644 
L 556.552653 -92.436598 
L 558.602449 -87.15001 
L 560.652245 -84.775447 
L 562.702041 -79.048883 
L 564.751837 -92.972661 
L 566.801633 -95.156486 
L 568.851429 -87.469567 
L 570.901224 -71.332284 
L 572.95102 -71.094807 
L 575.000816 -81.410963 
L 577.050612 -89.590704 
L 579.100408 -91.163021 
L 581.150204 -90.563223 
L 583.2 -91.919057 
L 583.2 -140.930739 
L 583.2 -140.930739 
L 581.150204 -134.280835 
L 579.100408 -131.864669 
L 577.050612 -133.536897 
L 575.000816 -120.082753 
L 572.95102 -111.712391 
L 570.901224 -115.768937 
L 568.851429 -136.094494 
L 566.801633 -140.447676 
L 564.751837 -140.114392 
L 562.702041 -125.812914 
L 560.652245 -131.789935 
L 558.602449 -132.589848 
L 556.552653 -141.944924 
L 554.502857 -143.964801 
L 552.453061 -161.682777 
L 550.403265 -155.674997 
L 548.353469 -155.723546 
L 546.303673 -148.734743 
L 544.253878 -141.033186 
L 542.204082 -155.057844 
L 540.154286 -151.288134 
L 538.10449 -149.97774 
L 536.054694 -134.08556 
L 534.004898 -134.447046 
L 531.955102 -127.347878 
L 529.905306 -116.823216 
L 527.85551 -108.806445 
L 525.805714 -106.596487 
L 523.755918 -95.979553 
L 521.706122 -100.457503 
L 519.656327 -89.635739 
L 517.606531 -98.608233 
L 515.556735 -93.913858 
L 513.506939 -96.807935 
L 511.457143 -73.636776 
L 509.407347 -86.340912 
L 507.357551 -109.561216 
L 505.307755 -102.537586 
L 503.257959 -124.29593 
L 501.208163 -128.203326 
L 499.158367 -141.611895 
L 497.108571 -125.978523 
L 495.058776 -130.717997 
L 493.00898 -123.059908 
L 490.959184 -122.166649 
L 488.909388 -126.68637 
L 486.859592 -138.782496 
L 484.809796 -130.141105 
L 482.76 -124.470543 
L 480.710204 -115.728754 
L 478.660408 -110.646396 
L 476.610612 -102.562373 
L 474.560816 -115.960392 
L 472.51102 -139.638075 
L 470.461224 -128.888639 
L 468.411429 -138.993517 
L 466.361633 -108.138987 
L 464.311837 -106.787069 
L 462.262041 -103.688547 
L 460.212245 -99.799581 
L 458.162449 -100.493843 
L 456.112653 -106.231063 
L 454.062857 -100.467662 
L 452.013061 -118.701152 
L 449.963265 -104.503539 
L 447.913469 -104.746119 
L 445.863673 -96.494316 
L 443.813878 -102.742858 
L 441.764082 -107.733376 
L 439.714286 -109.168009 
L 437.66449 -107.879746 
L 435.614694 -110.145109 
L 433.564898 -137.642078 
L 431.515102 -131.869632 
L 429.465306 -116.019093 
L 427.41551 -123.0674 
L 425.365714 -126.486528 
L 423.315918 -136.4655 
L 421.266122 -132.850797 
L 419.216327 -124.584214 
L 417.166531 -105.87356 
L 415.116735 -92.260131 
L 413.066939 -66.644797 
L 411.017143 -70.606966 
L 408.967347 -68.524681 
L 406.917551 -88.097717 
L 404.867755 -96.029285 
L 402.817959 -95.652901 
L 400.768163 -101.834968 
L 398.718367 -122.279866 
L 396.668571 -115.46624 
L 394.618776 -145.653711 
L 392.56898 -153.114985 
L 390.519184 -144.299395 
L 388.469388 -160.178008 
L 386.419592 -165.192463 
L 384.369796 -167.739426 
L 382.32 -155.480261 
L 380.270204 -159.481471 
L 378.220408 -144.731352 
L 376.170612 -147.768669 
L 374.120816 -144.811228 
L 372.07102 -151.286248 
L 370.021224 -164.010814 
L 367.971429 -134.046516 
L 365.921633 -109.375236 
L 363.871837 -123.981098 
L 361.822041 -132.30979 
L 359.772245 -133.65076 
L 357.722449 -141.524866 
L 355.672653 -125.217789 
L 353.622857 -152.798551 
L 351.573061 -145.706769 
L 349.523265 -149.71545 
L 347.473469 -162.408986 
L 345.423673 -156.675689 
L 343.373878 -149.730181 
L 341.324082 -139.857286 
L 339.274286 -123.57264 
L 337.22449 -129.758128 
L 335.174694 -144.237262 
L 333.124898 -150.64995 
L 331.075102 -160.743924 
L 329.025306 -151.200665 
L 326.97551 -145.3199 
L 324.925714 -148.768478 
L 322.875918 -159.038037 
L 320.826122 -186.209811 
L 318.776327 -176.592744 
L 316.726531 -190.08 
L 314.676735 -171.298365 
L 312.626939 -161.576992 
L 310.577143 -152.892395 
L 308.527347 -158.677288 
L 306.477551 -151.838093 
L 304.427755 -130.90942 
L 302.377959 -94.414841 
L 300.328163 -105.698033 
L 298.278367 -96.873995 
L 296.228571 -93.20785 
L 294.178776 -105.261222 
L 292.12898 -117.942771 
L 290.079184 -118.336137 
L 288.029388 -121.395978 
L 285.979592 -121.764096 
L 283.929796 -119.98384 
L 281.88 -141.257535 
L 279.830204 -150.618202 
L 277.780408 -147.676677 
L 275.730612 -139.83324 
L 273.680816 -140.342981 
L 271.63102 -119.817049 
L 269.581224 -146.060704 
L 267.531429 -135.050047 
L 265.481633 -137.823128 
L 263.431837 -159.832632 
L 261.382041 -159.436767 
L 259.332245 -153.346099 
L 257.282449 -152.364123 
L 255.232653 -159.850845 
L 253.182857 -172.432291 
L 251.133061 -168.334871 
L 249.083265 -161.317165 
L 247.033469 -175.485807 
L 244.983673 -178.357744 
L 242.933878 -153.915387 
L 240.884082 -151.803764 
L 238.834286 -148.357651 
L 236.78449 -139.827365 
L 234.734694 -129.640391 
L 232.684898 -139.653722 
L 230.635102 -119.972998 
L 228.585306 -139.611029 
L 226.53551 -148.705882 
L 224.485714 -155.296506 
L 222.435918 -171.845501 
L 220.386122 -160.467245 
L 218.336327 -142.933646 
L 216.286531 -152.393089 
L 214.236735 -162.017492 
L 212.186939 -158.020507 
L 210.137143 -157.895032 
L 208.087347 -161.380736 
L 206.037551 -144.841347 
L 203.987755 -124.881485 
L 201.937959 -117.67104 
L 199.888163 -127.112573 
L 197.838367 -140.563017 
L 195.788571 -145.78705 
L 193.738776 -152.529654 
L 191.68898 -175.179666 
L 189.639184 -169.509032 
L 187.589388 -168.24984 
L 185.539592 -177.256985 
L 183.489796 -165.450232 
L 181.44 -167.491315 
L 179.390204 -148.756906 
L 177.340408 -124.606147 
L 175.290612 -134.161676 
L 173.240816 -145.566149 
L 171.19102 -128.60024 
L 169.141224 -150.271449 
L 167.091429 -146.272661 
L 165.041633 -127.470644 
L 162.991837 -139.970246 
L 160.942041 -140.621952 
L 158.892245 -138.668296 
L 156.842449 -146.194094 
L 154.792653 -125.422646 
L 152.742857 -110.675319 
L 150.693061 -98.522497 
L 148.643265 -111.09322 
L 146.593469 -96.2465 
L 144.543673 -120.073242 
L 142.493878 -115.01611 
L 140.444082 -113.894834 
L 138.394286 -110.630256 
L 136.34449 -125.166752 
L 134.294694 -128.118784 
L 132.244898 -114.265564 
L 130.195102 -135.010925 
L 128.145306 -132.641624 
L 126.09551 -119.646409 
L 124.045714 -126.170444 
L 121.995918 -119.602038 
L 119.946122 -110.11725 
L 117.896327 -143.624831 
L 115.846531 -124.983413 
L 113.796735 -125.936284 
L 111.746939 -130.750534 
L 109.697143 -118.239277 
L 107.647347 -122.874792 
L 105.597551 -130.487857 
L 103.547755 -139.879611 
L 101.497959 -129.08173 
L 99.448163 -121.909224 
L 97.398367 -97.259777 
L 95.348571 -114.791479 
L 93.298776 -99.241973 
L 91.24898 -83.682894 
L 89.199184 -84.614399 
L 87.149388 -95.285666 
L 85.099592 -90.848196 
L 83.049796 -85.300979 
L 81 -95.803677 
z
" id="mb3a064ec78" style="stroke:#0000ff;stroke-opacity:0.3;"/>
    </defs>
    <g clip-path="url(#pdc2711b13e)">
     <use style="fill:#0000ff;fill-opacity:0.3;stroke:#0000ff;stroke-opacity:0.3;" x="0" xlink:href="#mb3a064ec78" y="216"/>
    </g>
   </g>
   <g id="PolyCollection_2">
    <defs>
     <path d="M 128.042816 -23.76 
L 128.042816 -190.08 
L 435.512204 -190.08 
L 435.512204 -23.76 
L 435.512204 -23.76 
L 128.042816 -23.76 
z
" id="me56ccc429f" style="stroke:#808080;stroke-opacity:0.3;"/>
    </defs>
    <g clip-path="url(#pdc2711b13e)">
     <use style="fill:#808080;fill-opacity:0.3;stroke:#808080;stroke-opacity:0.3;" x="0" xlink:href="#me56ccc429f" y="216"/>
    </g>
   </g>
   <g id="matplotlib.axis_1">
    <g id="xtick_1">
     <g id="line2d_1">
      <defs>
       <path d="M 0 0 
L 0 3.5 
" id="m26f6e959d8" style="stroke:#000000;stroke-width:0.8;"/>
      </defs>
      <g>
       <use style="stroke:#000000;stroke-width:0.8;" x="81" xlink:href="#m26f6e959d8" y="192.24"/>
      </g>
     </g>
     <g id="text_1">
      <!-- 0.0 -->
      <defs>
       <path d="M 31.78125 66.40625 
Q 24.171875 66.40625 20.328125 58.90625 
Q 16.5 51.421875 16.5 36.375 
Q 16.5 21.390625 20.328125 13.890625 
Q 24.171875 6.390625 31.78125 6.390625 
Q 39.453125 6.390625 43.28125 13.890625 
Q 47.125 21.390625 47.125 36.375 
Q 47.125 51.421875 43.28125 58.90625 
Q 39.453125 66.40625 31.78125 66.40625 
z
M 31.78125 74.21875 
Q 44.046875 74.21875 50.515625 64.515625 
Q 56.984375 54.828125 56.984375 36.375 
Q 56.984375 17.96875 50.515625 8.265625 
Q 44.046875 -1.421875 31.78125 -1.421875 
Q 19.53125 -1.421875 13.0625 8.265625 
Q 6.59375 17.96875 6.59375 36.375 
Q 6.59375 54.828125 13.0625 64.515625 
Q 19.53125 74.21875 31.78125 74.21875 
z
" id="DejaVuSans-48"/>
       <path d="M 10.6875 12.40625 
L 21 12.40625 
L 21 0 
L 10.6875 0 
z
" id="DejaVuSans-46"/>
      </defs>
      <g transform="translate(71.458125 208.358125)scale(0.12 -0.12)">
       <use xlink:href="#DejaVuSans-48"/>
       <use x="63.623047" xlink:href="#DejaVuSans-46"/>
       <use x="95.410156" xlink:href="#DejaVuSans-48"/>
      </g>
     </g>
    </g>
    <g id="xtick_2">
     <g id="line2d_2">
      <g>
       <use style="stroke:#000000;stroke-width:0.8;" x="183.489796" xlink:href="#m26f6e959d8" y="192.24"/>
      </g>
     </g>
     <g id="text_2">
      <!-- 0.5 -->
      <defs>
       <path d="M 10.796875 72.90625 
L 49.515625 72.90625 
L 49.515625 64.59375 
L 19.828125 64.59375 
L 19.828125 46.734375 
Q 21.96875 47.46875 24.109375 47.828125 
Q 26.265625 48.1875 28.421875 48.1875 
Q 40.625 48.1875 47.75 41.5 
Q 54.890625 34.8125 54.890625 23.390625 
Q 54.890625 11.625 47.5625 5.09375 
Q 40.234375 -1.421875 26.90625 -1.421875 
Q 22.3125 -1.421875 17.546875 -0.640625 
Q 12.796875 0.140625 7.71875 1.703125 
L 7.71875 11.625 
Q 12.109375 9.234375 16.796875 8.0625 
Q 21.484375 6.890625 26.703125 6.890625 
Q 35.15625 6.890625 40.078125 11.328125 
Q 45.015625 15.765625 45.015625 23.390625 
Q 45.015625 31 40.078125 35.4375 
Q 35.15625 39.890625 26.703125 39.890625 
Q 22.75 39.890625 18.8125 39.015625 
Q 14.890625 38.140625 10.796875 36.28125 
z
" id="DejaVuSans-53"/>
      </defs>
      <g transform="translate(173.947921 208.358125)scale(0.12 -0.12)">
       <use xlink:href="#DejaVuSans-48"/>
       <use x="63.623047" xlink:href="#DejaVuSans-46"/>
       <use x="95.410156" xlink:href="#DejaVuSans-53"/>
      </g>
     </g>
    </g>
    <g id="xtick_3">
     <g id="line2d_3">
      <g>
       <use style="stroke:#000000;stroke-width:0.8;" x="285.979592" xlink:href="#m26f6e959d8" y="192.24"/>
      </g>
     </g>
     <g id="text_3">
      <!-- 1.0 -->
      <defs>
       <path d="M 12.40625 8.296875 
L 28.515625 8.296875 
L 28.515625 63.921875 
L 10.984375 60.40625 
L 10.984375 69.390625 
L 28.421875 72.90625 
L 38.28125 72.90625 
L 38.28125 8.296875 
L 54.390625 8.296875 
L 54.390625 0 
L 12.40625 0 
z
" id="DejaVuSans-49"/>
      </defs>
      <g transform="translate(276.437717 208.358125)scale(0.12 -0.12)">
       <use xlink:href="#DejaVuSans-49"/>
       <use x="63.623047" xlink:href="#DejaVuSans-46"/>
       <use x="95.410156" xlink:href="#DejaVuSans-48"/>
      </g>
     </g>
    </g>
    <g id="xtick_4">
     <g id="line2d_4">
      <g>
       <use style="stroke:#000000;stroke-width:0.8;" x="388.469388" xlink:href="#m26f6e959d8" y="192.24"/>
      </g>
     </g>
     <g id="text_4">
      <!-- 1.5 -->
      <g transform="translate(378.927513 208.358125)scale(0.12 -0.12)">
       <use xlink:href="#DejaVuSans-49"/>
       <use x="63.623047" xlink:href="#DejaVuSans-46"/>
       <use x="95.410156" xlink:href="#DejaVuSans-53"/>
      </g>
     </g>
    </g>
    <g id="xtick_5">
     <g id="line2d_5">
      <g>
       <use style="stroke:#000000;stroke-width:0.8;" x="490.959184" xlink:href="#m26f6e959d8" y="192.24"/>
      </g>
     </g>
     <g id="text_5">
      <!-- 2.0 -->
      <defs>
       <path d="M 19.1875 8.296875 
L 53.609375 8.296875 
L 53.609375 0 
L 7.328125 0 
L 7.328125 8.296875 
Q 12.9375 14.109375 22.625 23.890625 
Q 32.328125 33.6875 34.8125 36.53125 
Q 39.546875 41.84375 41.421875 45.53125 
Q 43.3125 49.21875 43.3125 52.78125 
Q 43.3125 58.59375 39.234375 62.25 
Q 35.15625 65.921875 28.609375 65.921875 
Q 23.96875 65.921875 18.8125 64.3125 
Q 13.671875 62.703125 7.8125 59.421875 
L 7.8125 69.390625 
Q 13.765625 71.78125 18.9375 73 
Q 24.125 74.21875 28.421875 74.21875 
Q 39.75 74.21875 46.484375 68.546875 
Q 53.21875 62.890625 53.21875 53.421875 
Q 53.21875 48.921875 51.53125 44.890625 
Q 49.859375 40.875 45.40625 35.40625 
Q 44.1875 33.984375 37.640625 27.21875 
Q 31.109375 20.453125 19.1875 8.296875 
z
" id="DejaVuSans-50"/>
      </defs>
      <g transform="translate(481.417309 208.358125)scale(0.12 -0.12)">
       <use xlink:href="#DejaVuSans-50"/>
       <use x="63.623047" xlink:href="#DejaVuSans-46"/>
       <use x="95.410156" xlink:href="#DejaVuSans-48"/>
      </g>
     </g>
    </g>
    <g id="text_6">
     <!-- Time (s) -->
     <defs>
      <path d="M -0.296875 72.90625 
L 61.375 72.90625 
L 61.375 64.59375 
L 35.5 64.59375 
L 35.5 0 
L 25.59375 0 
L 25.59375 64.59375 
L -0.296875 64.59375 
z
" id="DejaVuSans-84"/>
      <path d="M 9.421875 54.6875 
L 18.40625 54.6875 
L 18.40625 0 
L 9.421875 0 
z
M 9.421875 75.984375 
L 18.40625 75.984375 
L 18.40625 64.59375 
L 9.421875 64.59375 
z
" id="DejaVuSans-105"/>
      <path d="M 52 44.1875 
Q 55.375 50.25 60.0625 53.125 
Q 64.75 56 71.09375 56 
Q 79.640625 56 84.28125 50.015625 
Q 88.921875 44.046875 88.921875 33.015625 
L 88.921875 0 
L 79.890625 0 
L 79.890625 32.71875 
Q 79.890625 40.578125 77.09375 44.375 
Q 74.3125 48.1875 68.609375 48.1875 
Q 61.625 48.1875 57.5625 43.546875 
Q 53.515625 38.921875 53.515625 30.90625 
L 53.515625 0 
L 44.484375 0 
L 44.484375 32.71875 
Q 44.484375 40.625 41.703125 44.40625 
Q 38.921875 48.1875 33.109375 48.1875 
Q 26.21875 48.1875 22.15625 43.53125 
Q 18.109375 38.875 18.109375 30.90625 
L 18.109375 0 
L 9.078125 0 
L 9.078125 54.6875 
L 18.109375 54.6875 
L 18.109375 46.1875 
Q 21.1875 51.21875 25.484375 53.609375 
Q 29.78125 56 35.6875 56 
Q 41.65625 56 45.828125 52.96875 
Q 50 49.953125 52 44.1875 
z
" id="DejaVuSans-109"/>
      <path d="M 56.203125 29.59375 
L 56.203125 25.203125 
L 14.890625 25.203125 
Q 15.484375 15.921875 20.484375 11.0625 
Q 25.484375 6.203125 34.421875 6.203125 
Q 39.59375 6.203125 44.453125 7.46875 
Q 49.3125 8.734375 54.109375 11.28125 
L 54.109375 2.78125 
Q 49.265625 0.734375 44.1875 -0.34375 
Q 39.109375 -1.421875 33.890625 -1.421875 
Q 20.796875 -1.421875 13.15625 6.1875 
Q 5.515625 13.8125 5.515625 26.8125 
Q 5.515625 40.234375 12.765625 48.109375 
Q 20.015625 56 32.328125 56 
Q 43.359375 56 49.78125 48.890625 
Q 56.203125 41.796875 56.203125 29.59375 
z
M 47.21875 32.234375 
Q 47.125 39.59375 43.09375 43.984375 
Q 39.0625 48.390625 32.421875 48.390625 
Q 24.90625 48.390625 20.390625 44.140625 
Q 15.875 39.890625 15.1875 32.171875 
z
" id="DejaVuSans-101"/>
      <path id="DejaVuSans-32"/>
      <path d="M 31 75.875 
Q 24.46875 64.65625 21.28125 53.65625 
Q 18.109375 42.671875 18.109375 31.390625 
Q 18.109375 20.125 21.3125 9.0625 
Q 24.515625 -2 31 -13.1875 
L 23.1875 -13.1875 
Q 15.875 -1.703125 12.234375 9.375 
Q 8.59375 20.453125 8.59375 31.390625 
Q 8.59375 42.28125 12.203125 53.3125 
Q 15.828125 64.359375 23.1875 75.875 
z
" id="DejaVuSans-40"/>
      <path d="M 44.28125 53.078125 
L 44.28125 44.578125 
Q 40.484375 46.53125 36.375 47.5 
Q 32.28125 48.484375 27.875 48.484375 
Q 21.1875 48.484375 17.84375 46.4375 
Q 14.5 44.390625 14.5 40.28125 
Q 14.5 37.15625 16.890625 35.375 
Q 19.28125 33.59375 26.515625 31.984375 
L 29.59375 31.296875 
Q 39.15625 29.25 43.1875 25.515625 
Q 47.21875 21.78125 47.21875 15.09375 
Q 47.21875 7.46875 41.1875 3.015625 
Q 35.15625 -1.421875 24.609375 -1.421875 
Q 20.21875 -1.421875 15.453125 -0.5625 
Q 10.6875 0.296875 5.421875 2 
L 5.421875 11.28125 
Q 10.40625 8.6875 15.234375 7.390625 
Q 20.0625 6.109375 24.8125 6.109375 
Q 31.15625 6.109375 34.5625 8.28125 
Q 37.984375 10.453125 37.984375 14.40625 
Q 37.984375 18.0625 35.515625 20.015625 
Q 33.0625 21.96875 24.703125 23.78125 
L 21.578125 24.515625 
Q 13.234375 26.265625 9.515625 29.90625 
Q 5.8125 33.546875 5.8125 39.890625 
Q 5.8125 47.609375 11.28125 51.796875 
Q 16.75 56 26.8125 56 
Q 31.78125 56 36.171875 55.265625 
Q 40.578125 54.546875 44.28125 53.078125 
z
" id="DejaVuSans-115"/>
      <path d="M 8.015625 75.875 
L 15.828125 75.875 
Q 23.140625 64.359375 26.78125 53.3125 
Q 30.421875 42.28125 30.421875 31.390625 
Q 30.421875 20.453125 26.78125 9.375 
Q 23.140625 -1.703125 15.828125 -13.1875 
L 8.015625 -13.1875 
Q 14.5 -2 17.703125 9.0625 
Q 20.90625 20.125 20.90625 31.390625 
Q 20.90625 42.671875 17.703125 53.65625 
Q 14.5 64.65625 8.015625 75.875 
z
" id="DejaVuSans-41"/>
     </defs>
     <g transform="translate(302.60475 225.7955)scale(0.144 -0.144)">
      <use xlink:href="#DejaVuSans-84"/>
      <use x="61.037109" xlink:href="#DejaVuSans-105"/>
      <use x="88.820312" xlink:href="#DejaVuSans-109"/>
      <use x="186.232422" xlink:href="#DejaVuSans-101"/>
      <use x="247.755859" xlink:href="#DejaVuSans-32"/>
      <use x="279.542969" xlink:href="#DejaVuSans-40"/>
      <use x="318.556641" xlink:href="#DejaVuSans-115"/>
      <use x="370.65625" xlink:href="#DejaVuSans-41"/>
     </g>
    </g>
   </g>
   <g id="matplotlib.axis_2">
    <g id="ytick_1">
     <g id="line2d_6">
      <defs>
       <path d="M 0 0 
L -3.5 0 
" id="m0d4a7b34df" style="stroke:#000000;stroke-width:0.8;"/>
      </defs>
      <g>
       <use style="stroke:#000000;stroke-width:0.8;" x="81" xlink:href="#m0d4a7b34df" y="180.917146"/>
      </g>
     </g>
     <g id="text_7">
      <!-- 0.875 -->
      <defs>
       <path d="M 31.78125 34.625 
Q 24.75 34.625 20.71875 30.859375 
Q 16.703125 27.09375 16.703125 20.515625 
Q 16.703125 13.921875 20.71875 10.15625 
Q 24.75 6.390625 31.78125 6.390625 
Q 38.8125 6.390625 42.859375 10.171875 
Q 46.921875 13.96875 46.921875 20.515625 
Q 46.921875 27.09375 42.890625 30.859375 
Q 38.875 34.625 31.78125 34.625 
z
M 21.921875 38.8125 
Q 15.578125 40.375 12.03125 44.71875 
Q 8.5 49.078125 8.5 55.328125 
Q 8.5 64.0625 14.71875 69.140625 
Q 20.953125 74.21875 31.78125 74.21875 
Q 42.671875 74.21875 48.875 69.140625 
Q 55.078125 64.0625 55.078125 55.328125 
Q 55.078125 49.078125 51.53125 44.71875 
Q 48 40.375 41.703125 38.8125 
Q 48.828125 37.15625 52.796875 32.3125 
Q 56.78125 27.484375 56.78125 20.515625 
Q 56.78125 9.90625 50.3125 4.234375 
Q 43.84375 -1.421875 31.78125 -1.421875 
Q 19.734375 -1.421875 13.25 4.234375 
Q 6.78125 9.90625 6.78125 20.515625 
Q 6.78125 27.484375 10.78125 32.3125 
Q 14.796875 37.15625 21.921875 38.8125 
z
M 18.3125 54.390625 
Q 18.3125 48.734375 21.84375 45.5625 
Q 25.390625 42.390625 31.78125 42.390625 
Q 38.140625 42.390625 41.71875 45.5625 
Q 45.3125 48.734375 45.3125 54.390625 
Q 45.3125 60.0625 41.71875 63.234375 
Q 38.140625 66.40625 31.78125 66.40625 
Q 25.390625 66.40625 21.84375 63.234375 
Q 18.3125 60.0625 18.3125 54.390625 
z
" id="DejaVuSans-56"/>
       <path d="M 8.203125 72.90625 
L 55.078125 72.90625 
L 55.078125 68.703125 
L 28.609375 0 
L 18.3125 0 
L 43.21875 64.59375 
L 8.203125 64.59375 
z
" id="DejaVuSans-55"/>
      </defs>
      <g transform="translate(39.64625 185.476209)scale(0.12 -0.12)">
       <use xlink:href="#DejaVuSans-48"/>
       <use x="63.623047" xlink:href="#DejaVuSans-46"/>
       <use x="95.410156" xlink:href="#DejaVuSans-56"/>
       <use x="159.033203" xlink:href="#DejaVuSans-55"/>
       <use x="222.65625" xlink:href="#DejaVuSans-53"/>
      </g>
     </g>
    </g>
    <g id="ytick_2">
     <g id="line2d_7">
      <g>
       <use style="stroke:#000000;stroke-width:0.8;" x="81" xlink:href="#m0d4a7b34df" y="159.883264"/>
      </g>
     </g>
     <g id="text_8">
      <!-- 0.900 -->
      <defs>
       <path d="M 10.984375 1.515625 
L 10.984375 10.5 
Q 14.703125 8.734375 18.5 7.8125 
Q 22.3125 6.890625 25.984375 6.890625 
Q 35.75 6.890625 40.890625 13.453125 
Q 46.046875 20.015625 46.78125 33.40625 
Q 43.953125 29.203125 39.59375 26.953125 
Q 35.25 24.703125 29.984375 24.703125 
Q 19.046875 24.703125 12.671875 31.3125 
Q 6.296875 37.9375 6.296875 49.421875 
Q 6.296875 60.640625 12.9375 67.421875 
Q 19.578125 74.21875 30.609375 74.21875 
Q 43.265625 74.21875 49.921875 64.515625 
Q 56.59375 54.828125 56.59375 36.375 
Q 56.59375 19.140625 48.40625 8.859375 
Q 40.234375 -1.421875 26.421875 -1.421875 
Q 22.703125 -1.421875 18.890625 -0.6875 
Q 15.09375 0.046875 10.984375 1.515625 
z
M 30.609375 32.421875 
Q 37.25 32.421875 41.125 36.953125 
Q 45.015625 41.5 45.015625 49.421875 
Q 45.015625 57.28125 41.125 61.84375 
Q 37.25 66.40625 30.609375 66.40625 
Q 23.96875 66.40625 20.09375 61.84375 
Q 16.21875 57.28125 16.21875 49.421875 
Q 16.21875 41.5 20.09375 36.953125 
Q 23.96875 32.421875 30.609375 32.421875 
z
" id="DejaVuSans-57"/>
      </defs>
      <g transform="translate(39.64625 164.442326)scale(0.12 -0.12)">
       <use xlink:href="#DejaVuSans-48"/>
       <use x="63.623047" xlink:href="#DejaVuSans-46"/>
       <use x="95.410156" xlink:href="#DejaVuSans-57"/>
       <use x="159.033203" xlink:href="#DejaVuSans-48"/>
       <use x="222.65625" xlink:href="#DejaVuSans-48"/>
      </g>
     </g>
    </g>
    <g id="ytick_3">
     <g id="line2d_8">
      <g>
       <use style="stroke:#000000;stroke-width:0.8;" x="81" xlink:href="#m0d4a7b34df" y="138.849381"/>
      </g>
     </g>
     <g id="text_9">
      <!-- 0.925 -->
      <g transform="translate(39.64625 143.408444)scale(0.12 -0.12)">
       <use xlink:href="#DejaVuSans-48"/>
       <use x="63.623047" xlink:href="#DejaVuSans-46"/>
       <use x="95.410156" xlink:href="#DejaVuSans-57"/>
       <use x="159.033203" xlink:href="#DejaVuSans-50"/>
       <use x="222.65625" xlink:href="#DejaVuSans-53"/>
      </g>
     </g>
    </g>
    <g id="ytick_4">
     <g id="line2d_9">
      <g>
       <use style="stroke:#000000;stroke-width:0.8;" x="81" xlink:href="#m0d4a7b34df" y="117.815499"/>
      </g>
     </g>
     <g id="text_10">
      <!-- 0.950 -->
      <g transform="translate(39.64625 122.374561)scale(0.12 -0.12)">
       <use xlink:href="#DejaVuSans-48"/>
       <use x="63.623047" xlink:href="#DejaVuSans-46"/>
       <use x="95.410156" xlink:href="#DejaVuSans-57"/>
       <use x="159.033203" xlink:href="#DejaVuSans-53"/>
       <use x="222.65625" xlink:href="#DejaVuSans-48"/>
      </g>
     </g>
    </g>
    <g id="ytick_5">
     <g id="line2d_10">
      <g>
       <use style="stroke:#000000;stroke-width:0.8;" x="81" xlink:href="#m0d4a7b34df" y="96.781616"/>
      </g>
     </g>
     <g id="text_11">
      <!-- 0.975 -->
      <g transform="translate(39.64625 101.340679)scale(0.12 -0.12)">
       <use xlink:href="#DejaVuSans-48"/>
       <use x="63.623047" xlink:href="#DejaVuSans-46"/>
       <use x="95.410156" xlink:href="#DejaVuSans-57"/>
       <use x="159.033203" xlink:href="#DejaVuSans-55"/>
       <use x="222.65625" xlink:href="#DejaVuSans-53"/>
      </g>
     </g>
    </g>
    <g id="ytick_6">
     <g id="line2d_11">
      <g>
       <use style="stroke:#000000;stroke-width:0.8;" x="81" xlink:href="#m0d4a7b34df" y="75.747734"/>
      </g>
     </g>
     <g id="text_12">
      <!-- 1.000 -->
      <g transform="translate(39.64625 80.306796)scale(0.12 -0.12)">
       <use xlink:href="#DejaVuSans-49"/>
       <use x="63.623047" xlink:href="#DejaVuSans-46"/>
       <use x="95.410156" xlink:href="#DejaVuSans-48"/>
       <use x="159.033203" xlink:href="#DejaVuSans-48"/>
       <use x="222.65625" xlink:href="#DejaVuSans-48"/>
      </g>
     </g>
    </g>
    <g id="ytick_7">
     <g id="line2d_12">
      <g>
       <use style="stroke:#000000;stroke-width:0.8;" x="81" xlink:href="#m0d4a7b34df" y="54.713851"/>
      </g>
     </g>
     <g id="text_13">
      <!-- 1.025 -->
      <g transform="translate(39.64625 59.272914)scale(0.12 -0.12)">
       <use xlink:href="#DejaVuSans-49"/>
       <use x="63.623047" xlink:href="#DejaVuSans-46"/>
       <use x="95.410156" xlink:href="#DejaVuSans-48"/>
       <use x="159.033203" xlink:href="#DejaVuSans-50"/>
       <use x="222.65625" xlink:href="#DejaVuSans-53"/>
      </g>
     </g>
    </g>
    <g id="ytick_8">
     <g id="line2d_13">
      <g>
       <use style="stroke:#000000;stroke-width:0.8;" x="81" xlink:href="#m0d4a7b34df" y="33.679969"/>
      </g>
     </g>
     <g id="text_14">
      <!-- 1.050 -->
      <g transform="translate(39.64625 38.239031)scale(0.12 -0.12)">
       <use xlink:href="#DejaVuSans-49"/>
       <use x="63.623047" xlink:href="#DejaVuSans-46"/>
       <use x="95.410156" xlink:href="#DejaVuSans-48"/>
       <use x="159.033203" xlink:href="#DejaVuSans-53"/>
       <use x="222.65625" xlink:href="#DejaVuSans-48"/>
      </g>
     </g>
    </g>
    <g id="text_15">
     <!-- COMb $\nu$ -->
     <defs>
      <path d="M 64.40625 67.28125 
L 64.40625 56.890625 
Q 59.421875 61.53125 53.78125 63.8125 
Q 48.140625 66.109375 41.796875 66.109375 
Q 29.296875 66.109375 22.65625 58.46875 
Q 16.015625 50.828125 16.015625 36.375 
Q 16.015625 21.96875 22.65625 14.328125 
Q 29.296875 6.6875 41.796875 6.6875 
Q 48.140625 6.6875 53.78125 8.984375 
Q 59.421875 11.28125 64.40625 15.921875 
L 64.40625 5.609375 
Q 59.234375 2.09375 53.4375 0.328125 
Q 47.65625 -1.421875 41.21875 -1.421875 
Q 24.65625 -1.421875 15.125 8.703125 
Q 5.609375 18.84375 5.609375 36.375 
Q 5.609375 53.953125 15.125 64.078125 
Q 24.65625 74.21875 41.21875 74.21875 
Q 47.75 74.21875 53.53125 72.484375 
Q 59.328125 70.75 64.40625 67.28125 
z
" id="DejaVuSans-67"/>
      <path d="M 39.40625 66.21875 
Q 28.65625 66.21875 22.328125 58.203125 
Q 16.015625 50.203125 16.015625 36.375 
Q 16.015625 22.609375 22.328125 14.59375 
Q 28.65625 6.59375 39.40625 6.59375 
Q 50.140625 6.59375 56.421875 14.59375 
Q 62.703125 22.609375 62.703125 36.375 
Q 62.703125 50.203125 56.421875 58.203125 
Q 50.140625 66.21875 39.40625 66.21875 
z
M 39.40625 74.21875 
Q 54.734375 74.21875 63.90625 63.9375 
Q 73.09375 53.65625 73.09375 36.375 
Q 73.09375 19.140625 63.90625 8.859375 
Q 54.734375 -1.421875 39.40625 -1.421875 
Q 24.03125 -1.421875 14.8125 8.828125 
Q 5.609375 19.09375 5.609375 36.375 
Q 5.609375 53.65625 14.8125 63.9375 
Q 24.03125 74.21875 39.40625 74.21875 
z
" id="DejaVuSans-79"/>
      <path d="M 9.8125 72.90625 
L 24.515625 72.90625 
L 43.109375 23.296875 
L 61.8125 72.90625 
L 76.515625 72.90625 
L 76.515625 0 
L 66.890625 0 
L 66.890625 64.015625 
L 48.09375 14.015625 
L 38.1875 14.015625 
L 19.390625 64.015625 
L 19.390625 0 
L 9.8125 0 
z
" id="DejaVuSans-77"/>
      <path d="M 48.6875 27.296875 
Q 48.6875 37.203125 44.609375 42.84375 
Q 40.53125 48.484375 33.40625 48.484375 
Q 26.265625 48.484375 22.1875 42.84375 
Q 18.109375 37.203125 18.109375 27.296875 
Q 18.109375 17.390625 22.1875 11.75 
Q 26.265625 6.109375 33.40625 6.109375 
Q 40.53125 6.109375 44.609375 11.75 
Q 48.6875 17.390625 48.6875 27.296875 
z
M 18.109375 46.390625 
Q 20.953125 51.265625 25.265625 53.625 
Q 29.59375 56 35.59375 56 
Q 45.5625 56 51.78125 48.09375 
Q 58.015625 40.1875 58.015625 27.296875 
Q 58.015625 14.40625 51.78125 6.484375 
Q 45.5625 -1.421875 35.59375 -1.421875 
Q 29.59375 -1.421875 25.265625 0.953125 
Q 20.953125 3.328125 18.109375 8.203125 
L 18.109375 0 
L 9.078125 0 
L 9.078125 75.984375 
L 18.109375 75.984375 
z
" id="DejaVuSans-98"/>
      <path d="M 14.984375 0 
L 8.9375 54.6875 
L 18.609375 54.6875 
L 23.78125 8.796875 
Q 30.8125 14.84375 37.359375 23.25 
Q 42.28125 29.546875 43.5625 35.015625 
Q 44.140625 37.59375 43.890625 42.484375 
Q 43.65625 48.296875 39.75 54.6875 
L 48.828125 54.6875 
L 48.828125 54.6875 
Q 51.375 50.34375 52.390625 44.28125 
Q 53.375 38.71875 52.640625 34.90625 
Q 50.78125 25.34375 42.484375 16.796875 
Q 31.640625 5.671875 24.5625 0 
z
" id="DejaVuSans-Oblique-957"/>
     </defs>
     <g transform="translate(32.6515 136.872)rotate(-90)scale(0.144 -0.144)">
      <use transform="translate(0 0.015625)" xlink:href="#DejaVuSans-67"/>
      <use transform="translate(69.824219 0.015625)" xlink:href="#DejaVuSans-79"/>
      <use transform="translate(148.535156 0.015625)" xlink:href="#DejaVuSans-77"/>
      <use transform="translate(234.814453 0.015625)" xlink:href="#DejaVuSans-98"/>
      <use transform="translate(298.291016 0.015625)" xlink:href="#DejaVuSans-32"/>
      <use transform="translate(330.078125 0.015625)" xlink:href="#DejaVuSans-Oblique-957"/>
     </g>
    </g>
   </g>
   <g id="line2d_14">
    <path clip-path="url(#pdc2711b13e)" d="M 81 142.878461 
L 83.049796 152.281668 
L 85.099592 145.931594 
L 87.149388 143.058447 
L 89.199184 151.308979 
L 91.24898 152.502337 
L 93.298776 136.883594 
L 95.348571 122.990151 
L 97.398367 141.04417 
L 99.448163 117.238934 
L 101.497959 109.57499 
L 103.547755 97.287606 
L 105.597551 105.519297 
L 107.647347 114.453383 
L 109.697143 120.999976 
L 111.746939 110.387592 
L 113.796735 112.816567 
L 115.846531 112.768518 
L 117.896327 94.648623 
L 119.946122 127.571454 
L 121.995918 119.066902 
L 124.045714 113.454356 
L 126.09551 117.90874 
L 128.145306 106.426432 
L 130.195102 103.263423 
L 132.244898 122.472496 
L 134.294694 109.476978 
L 136.34449 111.690964 
L 138.394286 125.998173 
L 140.444082 123.843741 
L 142.493878 123.603389 
L 144.543673 121.32678 
L 146.593469 143.821755 
L 148.643265 129.284717 
L 150.693061 140.076758 
L 152.742857 127.260087 
L 154.792653 112.501201 
L 156.842449 91.337794 
L 158.892245 98.847432 
L 160.942041 98.585407 
L 162.991837 100.328905 
L 165.041633 109.957897 
L 167.091429 92.166495 
L 169.141224 89.594238 
L 171.19102 109.914967 
L 173.240816 94.114629 
L 177.340408 114.663704 
L 179.390204 90.253964 
L 181.44 71.770361 
L 183.489796 73.181848 
L 185.539592 63.127637 
L 187.589388 70.95814 
L 189.639184 70.230798 
L 191.68898 65.137947 
L 193.738776 85.452163 
L 195.788571 91.841841 
L 197.838367 96.244597 
L 199.888163 110.227801 
L 201.937959 118.508079 
L 203.987755 111.649848 
L 206.037551 92.597507 
L 208.087347 77.690511 
L 210.137143 80.043959 
L 212.186939 81.634171 
L 214.236735 77.257819 
L 216.286531 88.186646 
L 218.336327 97.721624 
L 220.386122 81.093585 
L 222.435918 69.055233 
L 224.485714 85.562717 
L 226.53551 90.020283 
L 228.585306 99.564255 
L 230.635102 119.304924 
L 232.684898 100.244611 
L 234.734694 109.780169 
L 236.78449 99.493128 
L 238.834286 90.046104 
L 240.884082 86.466941 
L 242.933878 84.663092 
L 244.983673 61.61203 
L 247.033469 65.539091 
L 249.083265 78.404284 
L 251.133061 70.961294 
L 253.182857 68.179177 
L 255.232653 79.281578 
L 257.282449 86.416868 
L 259.332245 84.39422 
L 261.382041 76.488141 
L 263.431837 76.061752 
L 265.481633 98.030951 
L 267.531429 101.217178 
L 269.581224 91.233667 
L 271.63102 115.821205 
L 273.680816 97.763152 
L 275.730612 96.973976 
L 277.780408 90.976808 
L 279.830204 89.391882 
L 281.88 98.67386 
L 283.929796 119.223865 
L 285.979592 117.649938 
L 288.029388 118.724723 
L 290.079184 121.604262 
L 292.12898 120.186757 
L 294.178776 131.929501 
L 296.228571 145.303624 
L 298.278367 140.855303 
L 300.328163 134.635445 
L 302.377959 145.223539 
L 304.427755 109.145092 
L 306.477551 90.178986 
L 308.527347 82.186502 
L 310.577143 85.397122 
L 312.626939 79.279519 
L 314.676735 69.232937 
L 316.726531 50.476711 
L 318.776327 60.947609 
L 320.826122 53.357352 
L 322.875918 77.862608 
L 324.925714 87.917228 
L 326.97551 92.73321 
L 329.025306 87.809932 
L 331.075102 78.822096 
L 333.124898 88.33834 
L 335.174694 95.165895 
L 337.22449 109.298518 
L 339.274286 114.161264 
L 341.324082 97.879975 
L 343.373878 88.58766 
L 345.423673 81.568924 
L 347.473469 77.633194 
L 349.523265 88.994905 
L 351.573061 91.561363 
L 353.622857 84.680494 
L 355.672653 111.714592 
L 357.722449 96.644939 
L 359.772245 105.578657 
L 361.822041 105.166733 
L 363.871837 113.42806 
L 365.921633 128.46917 
L 367.971429 105.252868 
L 370.021224 77.768824 
L 372.07102 88.653654 
L 374.120816 95.416687 
L 376.170612 91.257696 
L 378.220408 93.408329 
L 380.270204 79.675027 
L 382.32 83.010911 
L 384.369796 72.71445 
L 386.419592 74.782849 
L 388.469388 81.354165 
L 390.519184 94.609217 
L 392.56898 87.650149 
L 394.618776 95.490348 
L 396.668571 123.638154 
L 398.718367 118.095195 
L 400.768163 135.608314 
L 402.817959 140.949891 
L 404.867755 140.42692 
L 406.917551 147.447427 
L 408.967347 167.62303 
L 411.017143 167.291728 
L 413.066939 170.797601 
L 415.116735 145.500991 
L 417.166531 131.316405 
L 419.216327 113.168652 
L 421.266122 106.46967 
L 423.315918 103.990763 
L 425.365714 113.081969 
L 427.41551 117.08833 
L 429.465306 123.310028 
L 431.515102 106.544072 
L 433.564898 100.920001 
L 435.614694 129.474398 
L 437.66449 129.091947 
L 439.714286 130.107127 
L 441.764082 131.855136 
L 443.813878 137.031609 
L 445.863673 143.579646 
L 447.913469 136.657649 
L 449.963265 135.589849 
L 452.013061 123.981253 
L 454.062857 140.121811 
L 456.112653 135.170095 
L 458.162449 140.51883 
L 460.212245 139.879953 
L 462.262041 135.777963 
L 464.311837 130.085766 
L 466.361633 129.553106 
L 468.411429 100.797128 
L 470.461224 109.623029 
L 472.51102 100.401291 
L 474.560816 124.827748 
L 476.610612 136.348287 
L 478.660408 127.764234 
L 480.710204 121.788654 
L 482.76 112.848365 
L 484.809796 106.724553 
L 486.859592 99.526746 
L 488.909388 110.136907 
L 490.959184 114.281182 
L 493.00898 115.082782 
L 495.058776 107.207489 
L 497.108571 112.538397 
L 499.158367 96.869698 
L 501.208163 109.608973 
L 503.257959 114.53974 
L 505.307755 134.4369 
L 507.357551 129.047269 
L 509.407347 151.092741 
L 511.457143 164.720188 
L 513.506939 142.575838 
L 515.556735 144.622657 
L 517.606531 140.208429 
L 519.656327 149.588311 
L 521.706122 138.369221 
L 523.755918 141.965129 
L 525.805714 131.07236 
L 527.85551 128.977528 
L 529.905306 120.292013 
L 531.955102 110.6304 
L 534.004898 103.996301 
L 536.054694 104.12504 
L 538.10449 89.227292 
L 540.154286 88.75835 
L 542.204082 83.639973 
L 544.253878 97.56125 
L 548.353469 82.874018 
L 550.403265 83.793447 
L 552.453061 78.897839 
L 554.502857 96.267277 
L 556.552653 98.809239 
L 558.602449 106.130071 
L 560.652245 107.717309 
L 562.702041 113.569101 
L 564.751837 99.456474 
L 566.801633 98.197919 
L 568.851429 104.217969 
L 570.901224 122.44939 
L 572.95102 124.596401 
L 575.000816 115.253142 
L 577.050612 104.436199 
L 579.100408 104.486155 
L 581.150204 103.577971 
L 583.2 99.575102 
L 583.2 99.575102 
" style="fill:none;stroke:#0000ff;stroke-linecap:square;stroke-width:1.5;"/>
   </g>
   <g id="patch_3">
    <path d="M 81 192.24 
L 81 25.92 
" style="fill:none;stroke:#000000;stroke-linecap:square;stroke-linejoin:miter;stroke-width:0.8;"/>
   </g>
   <g id="patch_4">
    <path d="M 583.2 192.24 
L 583.2 25.92 
" style="fill:none;stroke:#000000;stroke-linecap:square;stroke-linejoin:miter;stroke-width:0.8;"/>
   </g>
   <g id="patch_5">
    <path d="M 81 192.24 
L 583.2 192.24 
" style="fill:none;stroke:#000000;stroke-linecap:square;stroke-linejoin:miter;stroke-width:0.8;"/>
   </g>
   <g id="patch_6">
    <path d="M 81 25.92 
L 583.2 25.92 
" style="fill:none;stroke:#000000;stroke-linecap:square;stroke-linejoin:miter;stroke-width:0.8;"/>
   </g>
   <g id="text_16">
    <!-- Motor cortex, Num Trials=160 All stimulated trials -->
    <defs>
     <path d="M 30.609375 48.390625 
Q 23.390625 48.390625 19.1875 42.75 
Q 14.984375 37.109375 14.984375 27.296875 
Q 14.984375 17.484375 19.15625 11.84375 
Q 23.34375 6.203125 30.609375 6.203125 
Q 37.796875 6.203125 41.984375 11.859375 
Q 46.1875 17.53125 46.1875 27.296875 
Q 46.1875 37.015625 41.984375 42.703125 
Q 37.796875 48.390625 30.609375 48.390625 
z
M 30.609375 56 
Q 42.328125 56 49.015625 48.375 
Q 55.71875 40.765625 55.71875 27.296875 
Q 55.71875 13.875 49.015625 6.21875 
Q 42.328125 -1.421875 30.609375 -1.421875 
Q 18.84375 -1.421875 12.171875 6.21875 
Q 5.515625 13.875 5.515625 27.296875 
Q 5.515625 40.765625 12.171875 48.375 
Q 18.84375 56 30.609375 56 
z
" id="DejaVuSans-111"/>
     <path d="M 18.3125 70.21875 
L 18.3125 54.6875 
L 36.8125 54.6875 
L 36.8125 47.703125 
L 18.3125 47.703125 
L 18.3125 18.015625 
Q 18.3125 11.328125 20.140625 9.421875 
Q 21.96875 7.515625 27.59375 7.515625 
L 36.8125 7.515625 
L 36.8125 0 
L 27.59375 0 
Q 17.1875 0 13.234375 3.875 
Q 9.28125 7.765625 9.28125 18.015625 
L 9.28125 47.703125 
L 2.6875 47.703125 
L 2.6875 54.6875 
L 9.28125 54.6875 
L 9.28125 70.21875 
z
" id="DejaVuSans-116"/>
     <path d="M 41.109375 46.296875 
Q 39.59375 47.171875 37.8125 47.578125 
Q 36.03125 48 33.890625 48 
Q 26.265625 48 22.1875 43.046875 
Q 18.109375 38.09375 18.109375 28.8125 
L 18.109375 0 
L 9.078125 0 
L 9.078125 54.6875 
L 18.109375 54.6875 
L 18.109375 46.1875 
Q 20.953125 51.171875 25.484375 53.578125 
Q 30.03125 56 36.53125 56 
Q 37.453125 56 38.578125 55.875 
Q 39.703125 55.765625 41.0625 55.515625 
z
" id="DejaVuSans-114"/>
     <path d="M 48.78125 52.59375 
L 48.78125 44.1875 
Q 44.96875 46.296875 41.140625 47.34375 
Q 37.3125 48.390625 33.40625 48.390625 
Q 24.65625 48.390625 19.8125 42.84375 
Q 14.984375 37.3125 14.984375 27.296875 
Q 14.984375 17.28125 19.8125 11.734375 
Q 24.65625 6.203125 33.40625 6.203125 
Q 37.3125 6.203125 41.140625 7.25 
Q 44.96875 8.296875 48.78125 10.40625 
L 48.78125 2.09375 
Q 45.015625 0.34375 40.984375 -0.53125 
Q 36.96875 -1.421875 32.421875 -1.421875 
Q 20.0625 -1.421875 12.78125 6.34375 
Q 5.515625 14.109375 5.515625 27.296875 
Q 5.515625 40.671875 12.859375 48.328125 
Q 20.21875 56 33.015625 56 
Q 37.15625 56 41.109375 55.140625 
Q 45.0625 54.296875 48.78125 52.59375 
z
" id="DejaVuSans-99"/>
     <path d="M 54.890625 54.6875 
L 35.109375 28.078125 
L 55.90625 0 
L 45.3125 0 
L 29.390625 21.484375 
L 13.484375 0 
L 2.875 0 
L 24.125 28.609375 
L 4.6875 54.6875 
L 15.28125 54.6875 
L 29.78125 35.203125 
L 44.28125 54.6875 
z
" id="DejaVuSans-120"/>
     <path d="M 11.71875 12.40625 
L 22.015625 12.40625 
L 22.015625 4 
L 14.015625 -11.625 
L 7.71875 -11.625 
L 11.71875 4 
z
" id="DejaVuSans-44"/>
     <path d="M 9.8125 72.90625 
L 23.09375 72.90625 
L 55.421875 11.921875 
L 55.421875 72.90625 
L 64.984375 72.90625 
L 64.984375 0 
L 51.703125 0 
L 19.390625 60.984375 
L 19.390625 0 
L 9.8125 0 
z
" id="DejaVuSans-78"/>
     <path d="M 8.5 21.578125 
L 8.5 54.6875 
L 17.484375 54.6875 
L 17.484375 21.921875 
Q 17.484375 14.15625 20.5 10.265625 
Q 23.53125 6.390625 29.59375 6.390625 
Q 36.859375 6.390625 41.078125 11.03125 
Q 45.3125 15.671875 45.3125 23.6875 
L 45.3125 54.6875 
L 54.296875 54.6875 
L 54.296875 0 
L 45.3125 0 
L 45.3125 8.40625 
Q 42.046875 3.421875 37.71875 1 
Q 33.40625 -1.421875 27.6875 -1.421875 
Q 18.265625 -1.421875 13.375 4.4375 
Q 8.5 10.296875 8.5 21.578125 
z
M 31.109375 56 
z
" id="DejaVuSans-117"/>
     <path d="M 34.28125 27.484375 
Q 23.390625 27.484375 19.1875 25 
Q 14.984375 22.515625 14.984375 16.5 
Q 14.984375 11.71875 18.140625 8.90625 
Q 21.296875 6.109375 26.703125 6.109375 
Q 34.1875 6.109375 38.703125 11.40625 
Q 43.21875 16.703125 43.21875 25.484375 
L 43.21875 27.484375 
z
M 52.203125 31.203125 
L 52.203125 0 
L 43.21875 0 
L 43.21875 8.296875 
Q 40.140625 3.328125 35.546875 0.953125 
Q 30.953125 -1.421875 24.3125 -1.421875 
Q 15.921875 -1.421875 10.953125 3.296875 
Q 6 8.015625 6 15.921875 
Q 6 25.140625 12.171875 29.828125 
Q 18.359375 34.515625 30.609375 34.515625 
L 43.21875 34.515625 
L 43.21875 35.40625 
Q 43.21875 41.609375 39.140625 45 
Q 35.0625 48.390625 27.6875 48.390625 
Q 23 48.390625 18.546875 47.265625 
Q 14.109375 46.140625 10.015625 43.890625 
L 10.015625 52.203125 
Q 14.9375 54.109375 19.578125 55.046875 
Q 24.21875 56 28.609375 56 
Q 40.484375 56 46.34375 49.84375 
Q 52.203125 43.703125 52.203125 31.203125 
z
" id="DejaVuSans-97"/>
     <path d="M 9.421875 75.984375 
L 18.40625 75.984375 
L 18.40625 0 
L 9.421875 0 
z
" id="DejaVuSans-108"/>
     <path d="M 10.59375 45.40625 
L 73.1875 45.40625 
L 73.1875 37.203125 
L 10.59375 37.203125 
z
M 10.59375 25.484375 
L 73.1875 25.484375 
L 73.1875 17.1875 
L 10.59375 17.1875 
z
" id="DejaVuSans-61"/>
     <path d="M 33.015625 40.375 
Q 26.375 40.375 22.484375 35.828125 
Q 18.609375 31.296875 18.609375 23.390625 
Q 18.609375 15.53125 22.484375 10.953125 
Q 26.375 6.390625 33.015625 6.390625 
Q 39.65625 6.390625 43.53125 10.953125 
Q 47.40625 15.53125 47.40625 23.390625 
Q 47.40625 31.296875 43.53125 35.828125 
Q 39.65625 40.375 33.015625 40.375 
z
M 52.59375 71.296875 
L 52.59375 62.3125 
Q 48.875 64.0625 45.09375 64.984375 
Q 41.3125 65.921875 37.59375 65.921875 
Q 27.828125 65.921875 22.671875 59.328125 
Q 17.53125 52.734375 16.796875 39.40625 
Q 19.671875 43.65625 24.015625 45.921875 
Q 28.375 48.1875 33.59375 48.1875 
Q 44.578125 48.1875 50.953125 41.515625 
Q 57.328125 34.859375 57.328125 23.390625 
Q 57.328125 12.15625 50.6875 5.359375 
Q 44.046875 -1.421875 33.015625 -1.421875 
Q 20.359375 -1.421875 13.671875 8.265625 
Q 6.984375 17.96875 6.984375 36.375 
Q 6.984375 53.65625 15.1875 63.9375 
Q 23.390625 74.21875 37.203125 74.21875 
Q 40.921875 74.21875 44.703125 73.484375 
Q 48.484375 72.75 52.59375 71.296875 
z
" id="DejaVuSans-54"/>
     <path d="M 34.1875 63.1875 
L 20.796875 26.90625 
L 47.609375 26.90625 
z
M 28.609375 72.90625 
L 39.796875 72.90625 
L 67.578125 0 
L 57.328125 0 
L 50.6875 18.703125 
L 17.828125 18.703125 
L 11.1875 0 
L 0.78125 0 
z
" id="DejaVuSans-65"/>
     <path d="M 45.40625 46.390625 
L 45.40625 75.984375 
L 54.390625 75.984375 
L 54.390625 0 
L 45.40625 0 
L 45.40625 8.203125 
Q 42.578125 3.328125 38.25 0.953125 
Q 33.9375 -1.421875 27.875 -1.421875 
Q 17.96875 -1.421875 11.734375 6.484375 
Q 5.515625 14.40625 5.515625 27.296875 
Q 5.515625 40.1875 11.734375 48.09375 
Q 17.96875 56 27.875 56 
Q 33.9375 56 38.25 53.625 
Q 42.578125 51.265625 45.40625 46.390625 
z
M 14.796875 27.296875 
Q 14.796875 17.390625 18.875 11.75 
Q 22.953125 6.109375 30.078125 6.109375 
Q 37.203125 6.109375 41.296875 11.75 
Q 45.40625 17.390625 45.40625 27.296875 
Q 45.40625 37.203125 41.296875 42.84375 
Q 37.203125 48.484375 30.078125 48.484375 
Q 22.953125 48.484375 18.875 42.84375 
Q 14.796875 37.203125 14.796875 27.296875 
z
" id="DejaVuSans-100"/>
    </defs>
    <g transform="translate(181.130625 19.92)scale(0.12 -0.12)">
     <use xlink:href="#DejaVuSans-77"/>
     <use x="86.279297" xlink:href="#DejaVuSans-111"/>
     <use x="147.460938" xlink:href="#DejaVuSans-116"/>
     <use x="186.669922" xlink:href="#DejaVuSans-111"/>
     <use x="247.851562" xlink:href="#DejaVuSans-114"/>
     <use x="288.964844" xlink:href="#DejaVuSans-32"/>
     <use x="320.751953" xlink:href="#DejaVuSans-99"/>
     <use x="375.732422" xlink:href="#DejaVuSans-111"/>
     <use x="436.914062" xlink:href="#DejaVuSans-114"/>
     <use x="478.027344" xlink:href="#DejaVuSans-116"/>
     <use x="517.236328" xlink:href="#DejaVuSans-101"/>
     <use x="578.744141" xlink:href="#DejaVuSans-120"/>
     <use x="637.923828" xlink:href="#DejaVuSans-44"/>
     <use x="669.710938" xlink:href="#DejaVuSans-32"/>
     <use x="701.498047" xlink:href="#DejaVuSans-78"/>
     <use x="776.302734" xlink:href="#DejaVuSans-117"/>
     <use x="839.681641" xlink:href="#DejaVuSans-109"/>
     <use x="937.09375" xlink:href="#DejaVuSans-32"/>
     <use x="968.880859" xlink:href="#DejaVuSans-84"/>
     <use x="1029.746094" xlink:href="#DejaVuSans-114"/>
     <use x="1070.859375" xlink:href="#DejaVuSans-105"/>
     <use x="1098.642578" xlink:href="#DejaVuSans-97"/>
     <use x="1159.921875" xlink:href="#DejaVuSans-108"/>
     <use x="1187.705078" xlink:href="#DejaVuSans-115"/>
     <use x="1239.804688" xlink:href="#DejaVuSans-61"/>
     <use x="1323.59375" xlink:href="#DejaVuSans-49"/>
     <use x="1387.216797" xlink:href="#DejaVuSans-54"/>
     <use x="1450.839844" xlink:href="#DejaVuSans-48"/>
     <use x="1514.462891" xlink:href="#DejaVuSans-32"/>
     <use x="1546.25" xlink:href="#DejaVuSans-65"/>
     <use x="1614.658203" xlink:href="#DejaVuSans-108"/>
     <use x="1642.441406" xlink:href="#DejaVuSans-108"/>
     <use x="1670.224609" xlink:href="#DejaVuSans-32"/>
     <use x="1702.011719" xlink:href="#DejaVuSans-115"/>
     <use x="1754.111328" xlink:href="#DejaVuSans-116"/>
     <use x="1793.320312" xlink:href="#DejaVuSans-105"/>
     <use x="1821.103516" xlink:href="#DejaVuSans-109"/>
     <use x="1918.515625" xlink:href="#DejaVuSans-117"/>
     <use x="1981.894531" xlink:href="#DejaVuSans-108"/>
     <use x="2009.677734" xlink:href="#DejaVuSans-97"/>
     <use x="2070.957031" xlink:href="#DejaVuSans-116"/>
     <use x="2110.166016" xlink:href="#DejaVuSans-101"/>
     <use x="2171.689453" xlink:href="#DejaVuSans-100"/>
     <use x="2235.166016" xlink:href="#DejaVuSans-32"/>
     <use x="2266.953125" xlink:href="#DejaVuSans-116"/>
     <use x="2306.162109" xlink:href="#DejaVuSans-114"/>
     <use x="2347.275391" xlink:href="#DejaVuSans-105"/>
     <use x="2375.058594" xlink:href="#DejaVuSans-97"/>
     <use x="2436.337891" xlink:href="#DejaVuSans-108"/>
     <use x="2464.121094" xlink:href="#DejaVuSans-115"/>
    </g>
   </g>
   <g id="legend_1">
    <g id="patch_7">
     <path d="M 441.12 70.7475 
L 574.8 70.7475 
Q 577.2 70.7475 577.2 68.3475 
L 577.2 34.32 
Q 577.2 31.92 574.8 31.92 
L 441.12 31.92 
Q 438.72 31.92 438.72 34.32 
L 438.72 68.3475 
Q 438.72 70.7475 441.12 70.7475 
z
" style="fill:#ffffff;opacity:0.8;stroke:#cccccc;stroke-linejoin:miter;"/>
    </g>
    <g id="line2d_15">
     <path d="M 443.52 41.638125 
L 467.52 41.638125 
" style="fill:none;stroke:#0000ff;stroke-linecap:square;stroke-width:1.5;"/>
    </g>
    <g id="line2d_16"/>
    <g id="text_17">
     <!-- COM-Binomial $\nu$ -->
     <defs>
      <path d="M 4.890625 31.390625 
L 31.203125 31.390625 
L 31.203125 23.390625 
L 4.890625 23.390625 
z
" id="DejaVuSans-45"/>
      <path d="M 19.671875 34.8125 
L 19.671875 8.109375 
L 35.5 8.109375 
Q 43.453125 8.109375 47.28125 11.40625 
Q 51.125 14.703125 51.125 21.484375 
Q 51.125 28.328125 47.28125 31.5625 
Q 43.453125 34.8125 35.5 34.8125 
z
M 19.671875 64.796875 
L 19.671875 42.828125 
L 34.28125 42.828125 
Q 41.5 42.828125 45.03125 45.53125 
Q 48.578125 48.25 48.578125 53.8125 
Q 48.578125 59.328125 45.03125 62.0625 
Q 41.5 64.796875 34.28125 64.796875 
z
M 9.8125 72.90625 
L 35.015625 72.90625 
Q 46.296875 72.90625 52.390625 68.21875 
Q 58.5 63.53125 58.5 54.890625 
Q 58.5 48.1875 55.375 44.234375 
Q 52.25 40.28125 46.1875 39.3125 
Q 53.46875 37.75 57.5 32.78125 
Q 61.53125 27.828125 61.53125 20.40625 
Q 61.53125 10.640625 54.890625 5.3125 
Q 48.25 0 35.984375 0 
L 9.8125 0 
z
" id="DejaVuSans-66"/>
      <path d="M 54.890625 33.015625 
L 54.890625 0 
L 45.90625 0 
L 45.90625 32.71875 
Q 45.90625 40.484375 42.875 44.328125 
Q 39.84375 48.1875 33.796875 48.1875 
Q 26.515625 48.1875 22.3125 43.546875 
Q 18.109375 38.921875 18.109375 30.90625 
L 18.109375 0 
L 9.078125 0 
L 9.078125 54.6875 
L 18.109375 54.6875 
L 18.109375 46.1875 
Q 21.34375 51.125 25.703125 53.5625 
Q 30.078125 56 35.796875 56 
Q 45.21875 56 50.046875 50.171875 
Q 54.890625 44.34375 54.890625 33.015625 
z
" id="DejaVuSans-110"/>
     </defs>
     <g transform="translate(477.12 45.838125)scale(0.12 -0.12)">
      <use transform="translate(0 0.015625)" xlink:href="#DejaVuSans-67"/>
      <use transform="translate(69.824219 0.015625)" xlink:href="#DejaVuSans-79"/>
      <use transform="translate(148.535156 0.015625)" xlink:href="#DejaVuSans-77"/>
      <use transform="translate(234.814453 0.015625)" xlink:href="#DejaVuSans-45"/>
      <use transform="translate(270.898438 0.015625)" xlink:href="#DejaVuSans-66"/>
      <use transform="translate(339.501953 0.015625)" xlink:href="#DejaVuSans-105"/>
      <use transform="translate(367.285156 0.015625)" xlink:href="#DejaVuSans-110"/>
      <use transform="translate(430.664062 0.015625)" xlink:href="#DejaVuSans-111"/>
      <use transform="translate(491.845703 0.015625)" xlink:href="#DejaVuSans-109"/>
      <use transform="translate(589.257812 0.015625)" xlink:href="#DejaVuSans-105"/>
      <use transform="translate(617.041016 0.015625)" xlink:href="#DejaVuSans-97"/>
      <use transform="translate(678.320312 0.015625)" xlink:href="#DejaVuSans-108"/>
      <use transform="translate(706.103516 0.015625)" xlink:href="#DejaVuSans-32"/>
      <use transform="translate(737.890625 0.015625)" xlink:href="#DejaVuSans-Oblique-957"/>
     </g>
    </g>
    <g id="patch_8">
     <path d="M 443.52 63.451875 
L 467.52 63.451875 
L 467.52 55.051875 
L 443.52 55.051875 
z
" style="fill:#0000ff;opacity:0.3;stroke:#0000ff;stroke-linejoin:miter;"/>
    </g>
    <g id="text_18">
     <!-- Std. Err. -->
     <defs>
      <path d="M 53.515625 70.515625 
L 53.515625 60.890625 
Q 47.90625 63.578125 42.921875 64.890625 
Q 37.9375 66.21875 33.296875 66.21875 
Q 25.25 66.21875 20.875 63.09375 
Q 16.5 59.96875 16.5 54.203125 
Q 16.5 49.359375 19.40625 46.890625 
Q 22.3125 44.4375 30.421875 42.921875 
L 36.375 41.703125 
Q 47.40625 39.59375 52.65625 34.296875 
Q 57.90625 29 57.90625 20.125 
Q 57.90625 9.515625 50.796875 4.046875 
Q 43.703125 -1.421875 29.984375 -1.421875 
Q 24.8125 -1.421875 18.96875 -0.25 
Q 13.140625 0.921875 6.890625 3.21875 
L 6.890625 13.375 
Q 12.890625 10.015625 18.65625 8.296875 
Q 24.421875 6.59375 29.984375 6.59375 
Q 38.421875 6.59375 43.015625 9.90625 
Q 47.609375 13.234375 47.609375 19.390625 
Q 47.609375 24.75 44.3125 27.78125 
Q 41.015625 30.8125 33.5 32.328125 
L 27.484375 33.5 
Q 16.453125 35.6875 11.515625 40.375 
Q 6.59375 45.0625 6.59375 53.421875 
Q 6.59375 63.09375 13.40625 68.65625 
Q 20.21875 74.21875 32.171875 74.21875 
Q 37.3125 74.21875 42.625 73.28125 
Q 47.953125 72.359375 53.515625 70.515625 
z
" id="DejaVuSans-83"/>
      <path d="M 9.8125 72.90625 
L 55.90625 72.90625 
L 55.90625 64.59375 
L 19.671875 64.59375 
L 19.671875 43.015625 
L 54.390625 43.015625 
L 54.390625 34.71875 
L 19.671875 34.71875 
L 19.671875 8.296875 
L 56.78125 8.296875 
L 56.78125 0 
L 9.8125 0 
z
" id="DejaVuSans-69"/>
     </defs>
     <g transform="translate(477.12 63.451875)scale(0.12 -0.12)">
      <use xlink:href="#DejaVuSans-83"/>
      <use x="63.476562" xlink:href="#DejaVuSans-116"/>
      <use x="102.685547" xlink:href="#DejaVuSans-100"/>
      <use x="166.162109" xlink:href="#DejaVuSans-46"/>
      <use x="197.949219" xlink:href="#DejaVuSans-32"/>
      <use x="229.736328" xlink:href="#DejaVuSans-69"/>
      <use x="292.919922" xlink:href="#DejaVuSans-114"/>
      <use x="334.017578" xlink:href="#DejaVuSans-114"/>
      <use x="374.990234" xlink:href="#DejaVuSans-46"/>
     </g>
    </g>
   </g>
  </g>
 </g>
 <defs>
  <clipPath id="pdc2711b13e">
   <rect height="166.32" width="502.2" x="81" y="25.92"/>
  </clipPath>
 </defs>
</svg>
