<?xml version="1.0" encoding="utf-8" standalone="no"?>
<!DOCTYPE svg PUBLIC "-//W3C//DTD SVG 1.1//EN"
  "http://www.w3.org/Graphics/SVG/1.1/DTD/svg11.dtd">
<!-- Created with matplotlib (https://matplotlib.org/) -->
<svg height="216pt" version="1.1" viewBox="0 0 648 216" width="648pt" xmlns="http://www.w3.org/2000/svg" xmlns:xlink="http://www.w3.org/1999/xlink">
 <defs>
  <style type="text/css">
*{stroke-linecap:butt;stroke-linejoin:round;}
  </style>
 </defs>
 <g id="figure_1">
  <g id="patch_1">
   <path d="M 0 216 
L 648 216 
L 648 0 
L 0 0 
z
" style="fill:#ffffff;"/>
  </g>
  <g id="axes_1">
   <g id="patch_2">
    <path d="M 81 192.24 
L 583.2 192.24 
L 583.2 25.92 
L 81 25.92 
z
" style="fill:#ffffff;"/>
   </g>
   <g id="PolyCollection_1">
    <defs>
     <path d="M 162.62878 -23.76 
L 162.62878 -190.08 
L 417.984712 -190.08 
L 417.984712 -23.76 
L 417.984712 -23.76 
L 162.62878 -23.76 
z
" id="mb721bff34a" style="stroke:#808080;stroke-opacity:0.3;"/>
    </defs>
    <g clip-path="url(#p7d6484f5f8)">
     <use style="fill:#808080;fill-opacity:0.3;stroke:#808080;stroke-opacity:0.3;" x="0" xlink:href="#mb721bff34a" y="216"/>
    </g>
   </g>
   <g id="PolyCollection_2">
    <defs>
     <path d="M 81 -179.591861 
L 81 -121.812971 
L 82.702373 -104.936357 
L 84.404746 -102.491735 
L 86.107119 -88.691855 
L 87.809492 -103.881388 
L 89.511864 -100.535088 
L 91.214237 -95.270926 
L 92.91661 -103.238252 
L 94.618983 -103.650483 
L 96.321356 -103.254987 
L 98.023729 -102.634428 
L 99.726102 -98.543202 
L 101.428475 -94.696944 
L 103.130847 -91.892513 
L 104.83322 -74.89167 
L 106.535593 -75.711659 
L 108.237966 -90.526225 
L 109.940339 -74.330837 
L 111.642712 -72.356739 
L 113.345085 -80.89554 
L 115.047458 -76.149608 
L 116.749831 -83.55334 
L 118.452203 -88.755623 
L 120.154576 -93.995475 
L 121.856949 -103.801418 
L 123.559322 -110.601222 
L 125.261695 -97.821462 
L 126.964068 -108.033744 
L 128.666441 -109.885999 
L 130.368814 -101.295761 
L 132.071186 -97.98198 
L 133.773559 -106.083905 
L 135.475932 -107.923523 
L 137.178305 -85.576672 
L 138.880678 -94.243393 
L 140.583051 -82.238356 
L 142.285424 -91.52304 
L 143.987797 -106.875264 
L 145.690169 -107.01074 
L 147.392542 -110.963485 
L 149.094915 -100.055678 
L 150.797288 -98.772901 
L 152.499661 -86.559976 
L 154.202034 -89.787078 
L 155.904407 -87.114304 
L 157.60678 -101.907073 
L 159.309153 -113.415797 
L 161.011525 -98.465952 
L 162.713898 -100.080799 
L 164.416271 -87.571674 
L 166.118644 -89.462413 
L 167.821017 -88.63886 
L 169.52339 -95.923167 
L 171.225763 -115.245169 
L 172.928136 -129.116328 
L 174.630508 -137.209382 
L 176.332881 -127.476705 
L 178.035254 -131.436175 
L 179.737627 -119.40523 
L 181.44 -120.378405 
L 183.142373 -109.435495 
L 184.844746 -103.58915 
L 186.547119 -91.047495 
L 188.249492 -95.483921 
L 189.951864 -85.932667 
L 191.654237 -50.570731 
L 193.35661 -46.377542 
L 195.058983 -45.635421 
L 196.761356 -60.341912 
L 198.463729 -48.546889 
L 200.166102 -55.221672 
L 201.868475 -52.824476 
L 203.570847 -52.020958 
L 205.27322 -34.333036 
L 206.975593 -38.281576 
L 208.677966 -57.707663 
L 210.380339 -64.109756 
L 212.082712 -71.782308 
L 213.785085 -87.3386 
L 215.487458 -80.470547 
L 217.189831 -75.21514 
L 218.892203 -77.747622 
L 220.594576 -72.089363 
L 222.296949 -80.049879 
L 223.999322 -69.816456 
L 225.701695 -70.570718 
L 227.404068 -96.435214 
L 229.106441 -84.93704 
L 230.808814 -87.698017 
L 232.511186 -81.550993 
L 234.213559 -83.311847 
L 235.915932 -87.011654 
L 237.618305 -83.21654 
L 239.320678 -76.221848 
L 241.023051 -83.4608 
L 242.725424 -98.388805 
L 244.427797 -92.464408 
L 246.130169 -92.480812 
L 247.832542 -95.09113 
L 249.534915 -88.718211 
L 251.237288 -86.305374 
L 252.939661 -81.830753 
L 254.642034 -91.577793 
L 256.344407 -91.323438 
L 258.04678 -87.886047 
L 259.749153 -84.372743 
L 261.451525 -77.994187 
L 263.153898 -80.610527 
L 264.856271 -83.706574 
L 266.558644 -93.336845 
L 268.261017 -96.413463 
L 269.96339 -105.819378 
L 271.665763 -96.989882 
L 273.368136 -100.151913 
L 275.070508 -109.912638 
L 276.772881 -107.426408 
L 278.475254 -118.337705 
L 280.177627 -115.340381 
L 281.88 -117.848243 
L 283.582373 -113.38389 
L 285.284746 -119.1997 
L 286.987119 -112.278084 
L 288.689492 -123.047514 
L 290.391864 -127.488058 
L 292.094237 -126.89196 
L 293.79661 -125.748545 
L 295.498983 -118.136857 
L 297.201356 -125.610668 
L 298.903729 -129.713239 
L 300.606102 -124.974125 
L 302.308475 -133.60891 
L 304.010847 -140.528094 
L 305.71322 -142.269228 
L 307.415593 -141.82787 
L 309.117966 -115.830059 
L 310.820339 -114.602147 
L 312.522712 -109.73584 
L 314.225085 -101.01185 
L 315.927458 -110.065797 
L 317.629831 -116.34075 
L 319.332203 -126.770484 
L 321.034576 -116.161511 
L 322.736949 -101.054181 
L 324.439322 -103.204364 
L 326.141695 -110.830174 
L 327.844068 -101.811316 
L 329.546441 -109.794552 
L 331.248814 -116.153104 
L 332.951186 -124.767485 
L 334.653559 -109.481009 
L 336.355932 -101.388777 
L 338.058305 -109.584037 
L 339.760678 -105.18254 
L 341.463051 -101.168082 
L 343.165424 -95.702776 
L 344.867797 -93.771622 
L 346.570169 -102.236924 
L 348.272542 -106.926929 
L 349.974915 -95.536987 
L 351.677288 -113.686835 
L 353.379661 -111.356085 
L 355.082034 -111.658883 
L 356.784407 -133.412972 
L 358.48678 -133.796729 
L 360.189153 -132.449629 
L 361.891525 -147.825285 
L 363.593898 -132.136171 
L 365.296271 -120.034774 
L 366.998644 -123.816435 
L 368.701017 -113.070649 
L 370.40339 -113.07849 
L 372.105763 -109.407322 
L 373.808136 -101.710608 
L 375.510508 -93.078753 
L 377.212881 -91.525124 
L 378.915254 -88.282583 
L 380.617627 -100.859556 
L 382.32 -105.405175 
L 384.022373 -102.195279 
L 385.724746 -115.291825 
L 387.427119 -125.23907 
L 389.129492 -133.258729 
L 390.831864 -113.616981 
L 392.534237 -118.332217 
L 394.23661 -121.344943 
L 395.938983 -131.782647 
L 397.641356 -124.364549 
L 399.343729 -113.612734 
L 401.046102 -126.931909 
L 402.748475 -124.167618 
L 404.450847 -103.994695 
L 406.15322 -97.090947 
L 407.855593 -86.569616 
L 409.557966 -86.039765 
L 411.260339 -90.906799 
L 412.962712 -73.470772 
L 414.665085 -74.166682 
L 416.367458 -86.116684 
L 418.069831 -73.510293 
L 419.772203 -53.706099 
L 421.474576 -53.852032 
L 423.176949 -52.758304 
L 424.879322 -69.771104 
L 426.581695 -61.515793 
L 428.284068 -92.918712 
L 429.986441 -57.784532 
L 431.688814 -27.910045 
L 433.391186 -23.76 
L 435.093559 -28.423464 
L 436.795932 -39.373938 
L 438.498305 -43.664997 
L 440.200678 -57.994489 
L 441.903051 -56.326689 
L 443.605424 -69.623891 
L 445.307797 -62.794316 
L 447.010169 -63.684961 
L 448.712542 -54.442557 
L 450.414915 -55.413637 
L 452.117288 -70.13951 
L 453.819661 -76.9692 
L 455.522034 -120.547638 
L 457.224407 -107.744246 
L 458.92678 -107.088005 
L 460.629153 -92.412486 
L 462.331525 -103.784145 
L 464.033898 -98.270522 
L 465.736271 -106.765456 
L 467.438644 -128.296664 
L 469.141017 -132.069149 
L 470.84339 -118.344216 
L 472.545763 -127.262121 
L 474.248136 -124.058918 
L 475.950508 -128.757742 
L 477.652881 -145.710896 
L 479.355254 -142.718056 
L 481.057627 -146.904192 
L 482.76 -140.27863 
L 484.462373 -134.384711 
L 486.164746 -129.610078 
L 487.867119 -125.527317 
L 489.569492 -129.462871 
L 491.271864 -112.726304 
L 492.974237 -101.652822 
L 494.67661 -94.601564 
L 496.378983 -104.637346 
L 498.081356 -100.717866 
L 499.783729 -102.43693 
L 501.486102 -106.121318 
L 503.188475 -101.958123 
L 504.890847 -108.518229 
L 506.59322 -96.501972 
L 508.295593 -106.59996 
L 509.997966 -112.589398 
L 511.700339 -113.221394 
L 513.402712 -111.7894 
L 515.105085 -129.962173 
L 516.807458 -114.520227 
L 518.509831 -116.539769 
L 520.212203 -113.370153 
L 521.914576 -113.978217 
L 523.616949 -111.498579 
L 525.319322 -108.54671 
L 527.021695 -108.835599 
L 528.724068 -112.067071 
L 530.426441 -113.225317 
L 532.128814 -108.720385 
L 533.831186 -121.456667 
L 535.533559 -135.172279 
L 537.235932 -122.097163 
L 538.938305 -114.552522 
L 540.640678 -111.583309 
L 542.343051 -112.209015 
L 544.045424 -108.349851 
L 545.747797 -107.178446 
L 547.450169 -101.298144 
L 549.152542 -103.629434 
L 550.854915 -107.673874 
L 552.557288 -88.303494 
L 554.259661 -85.456269 
L 555.962034 -96.937456 
L 557.664407 -91.211327 
L 559.36678 -83.915198 
L 561.069153 -82.21079 
L 562.771525 -100.205265 
L 564.473898 -108.461903 
L 566.176271 -115.78646 
L 567.878644 -107.575278 
L 569.581017 -108.834771 
L 571.28339 -115.537324 
L 572.985763 -97.455551 
L 574.688136 -116.147898 
L 576.390508 -120.876661 
L 578.092881 -132.624585 
L 579.795254 -129.480968 
L 581.497627 -122.239289 
L 583.2 -106.602406 
L 583.2 -147.738996 
L 583.2 -147.738996 
L 581.497627 -159.270397 
L 579.795254 -164.976859 
L 578.092881 -168.389379 
L 576.390508 -161.986835 
L 574.688136 -159.591066 
L 572.985763 -134.697332 
L 571.28339 -153.964468 
L 569.581017 -155.265671 
L 567.878644 -150.747702 
L 566.176271 -171.476588 
L 564.473898 -155.996153 
L 562.771525 -152.034856 
L 561.069153 -135.257353 
L 559.36678 -124.553549 
L 557.664407 -130.157544 
L 555.962034 -133.884792 
L 554.259661 -128.256423 
L 552.557288 -129.080879 
L 550.854915 -149.765935 
L 549.152542 -135.942956 
L 547.450169 -130.147707 
L 545.747797 -137.477772 
L 544.045424 -143.037694 
L 542.343051 -154.095861 
L 540.640678 -153.568341 
L 538.938305 -159.411702 
L 537.235932 -160.447746 
L 535.533559 -160.470162 
L 533.831186 -150.943712 
L 532.128814 -137.257518 
L 530.426441 -142.85585 
L 528.724068 -137.383747 
L 527.021695 -137.397314 
L 525.319322 -137.803275 
L 523.616949 -139.850874 
L 521.914576 -137.786069 
L 520.212203 -140.243628 
L 518.509831 -135.439639 
L 516.807458 -144.718156 
L 515.105085 -146.076989 
L 513.402712 -149.029366 
L 511.700339 -140.197535 
L 509.997966 -145.468926 
L 508.295593 -134.67046 
L 506.59322 -116.163267 
L 504.890847 -124.00038 
L 503.188475 -121.069968 
L 501.486102 -121.828432 
L 499.783729 -124.828517 
L 498.081356 -128.408769 
L 496.378983 -130.921157 
L 494.67661 -136.818817 
L 492.974237 -143.015669 
L 491.271864 -156.165693 
L 489.569492 -163.404675 
L 487.867119 -159.441457 
L 486.164746 -161.815587 
L 484.462373 -171.720395 
L 482.76 -188.863388 
L 481.057627 -187.730849 
L 479.355254 -190.08 
L 477.652881 -178.801319 
L 475.950508 -165.224724 
L 474.248136 -152.384922 
L 472.545763 -150.633524 
L 470.84339 -136.996717 
L 469.141017 -171.41006 
L 467.438644 -165.443998 
L 465.736271 -144.579295 
L 464.033898 -138.749053 
L 462.331525 -151.607178 
L 460.629153 -141.013383 
L 458.92678 -151.992946 
L 457.224407 -153.968632 
L 455.522034 -163.274979 
L 453.819661 -131.173834 
L 452.117288 -123.167147 
L 450.414915 -109.796654 
L 448.712542 -106.3429 
L 447.010169 -113.698976 
L 445.307797 -112.369561 
L 443.605424 -115.795258 
L 441.903051 -103.23188 
L 440.200678 -107.124341 
L 438.498305 -100.366032 
L 436.795932 -88.352492 
L 435.093559 -80.58065 
L 433.391186 -76.409836 
L 431.688814 -79.163449 
L 429.986441 -95.054043 
L 428.284068 -133.604778 
L 426.581695 -116.524696 
L 424.879322 -124.814268 
L 423.176949 -97.983552 
L 421.474576 -94.742527 
L 419.772203 -95.559708 
L 418.069831 -117.673658 
L 416.367458 -135.465565 
L 414.665085 -109.538733 
L 412.962712 -108.929899 
L 411.260339 -130.254438 
L 409.557966 -125.087673 
L 407.855593 -132.354343 
L 406.15322 -147.939982 
L 404.450847 -155.268612 
L 402.748475 -171.469674 
L 401.046102 -170.436805 
L 399.343729 -155.091602 
L 397.641356 -168.791846 
L 395.938983 -178.351101 
L 394.23661 -149.432797 
L 392.534237 -161.647675 
L 390.831864 -155.741632 
L 389.129492 -189.388629 
L 387.427119 -186.602107 
L 385.724746 -164.862907 
L 384.022373 -138.548064 
L 382.32 -139.86759 
L 380.617627 -131.758015 
L 378.915254 -124.631712 
L 377.212881 -126.292579 
L 375.510508 -127.786824 
L 373.808136 -129.761885 
L 372.105763 -138.299155 
L 370.40339 -151.350946 
L 368.701017 -165.836169 
L 366.998644 -147.497258 
L 365.296271 -141.877907 
L 363.593898 -168.173336 
L 361.891525 -167.315144 
L 360.189153 -168.97388 
L 358.48678 -170.534025 
L 356.784407 -174.789079 
L 355.082034 -145.958693 
L 353.379661 -154.035432 
L 351.677288 -152.594565 
L 349.974915 -141.999882 
L 348.272542 -156.919932 
L 346.570169 -149.188712 
L 344.867797 -127.807266 
L 343.165424 -133.774672 
L 341.463051 -133.170654 
L 339.760678 -138.77554 
L 338.058305 -147.131975 
L 336.355932 -140.702431 
L 334.653559 -145.453553 
L 332.951186 -161.146269 
L 331.248814 -150.474168 
L 329.546441 -145.366517 
L 327.844068 -141.024 
L 326.141695 -153.172983 
L 324.439322 -141.28598 
L 322.736949 -136.400494 
L 321.034576 -169.635237 
L 319.332203 -169.659686 
L 317.629831 -161.322497 
L 315.927458 -152.543102 
L 314.225085 -140.14978 
L 312.522712 -145.984404 
L 310.820339 -144.378654 
L 309.117966 -143.239086 
L 307.415593 -175.3666 
L 305.71322 -171.058021 
L 304.010847 -163.024379 
L 302.308475 -160.89004 
L 300.606102 -148.554091 
L 298.903729 -160.804847 
L 297.201356 -168.735264 
L 295.498983 -155.819144 
L 293.79661 -181.205007 
L 292.094237 -186.693454 
L 290.391864 -177.539421 
L 288.689492 -161.559551 
L 286.987119 -153.180619 
L 285.284746 -172.784147 
L 283.582373 -170.724385 
L 281.88 -173.220536 
L 280.177627 -163.117074 
L 278.475254 -154.973724 
L 276.772881 -146.862489 
L 275.070508 -152.594484 
L 273.368136 -143.91638 
L 271.665763 -143.5291 
L 269.96339 -147.008935 
L 268.261017 -145.302272 
L 266.558644 -144.705166 
L 264.856271 -124.311997 
L 263.153898 -115.345076 
L 261.451525 -129.427961 
L 259.749153 -124.777685 
L 258.04678 -127.854319 
L 256.344407 -133.182306 
L 254.642034 -150.17236 
L 252.939661 -148.50965 
L 251.237288 -145.075013 
L 249.534915 -133.655225 
L 247.832542 -139.008477 
L 246.130169 -135.273101 
L 244.427797 -126.276841 
L 242.725424 -128.716801 
L 241.023051 -116.668353 
L 239.320678 -105.034652 
L 237.618305 -119.482544 
L 235.915932 -118.596751 
L 234.213559 -119.549891 
L 232.511186 -114.284585 
L 230.808814 -108.476469 
L 229.106441 -114.51381 
L 227.404068 -122.064739 
L 225.701695 -114.451499 
L 223.999322 -112.549647 
L 222.296949 -143.057436 
L 220.594576 -125.073512 
L 218.892203 -124.015999 
L 217.189831 -117.300245 
L 215.487458 -115.043324 
L 213.785085 -124.847511 
L 212.082712 -118.877841 
L 210.380339 -109.806365 
L 208.677966 -105.884837 
L 206.975593 -82.002499 
L 205.27322 -84.63102 
L 203.570847 -89.418208 
L 201.868475 -94.61234 
L 200.166102 -95.632068 
L 198.463729 -88.408837 
L 196.761356 -94.178338 
L 195.058983 -99.111794 
L 193.35661 -98.71444 
L 191.654237 -99.680113 
L 189.951864 -137.56304 
L 188.249492 -148.634252 
L 186.547119 -148.013878 
L 184.844746 -161.580188 
L 183.142373 -168.332996 
L 181.44 -168.177088 
L 179.737627 -166.857003 
L 178.035254 -173.901401 
L 176.332881 -165.871479 
L 174.630508 -174.313355 
L 172.928136 -161.03615 
L 171.225763 -157.048483 
L 169.52339 -143.867552 
L 167.821017 -135.114192 
L 166.118644 -137.182061 
L 164.416271 -131.796699 
L 162.713898 -144.10921 
L 161.011525 -136.035789 
L 159.309153 -149.785385 
L 157.60678 -135.254624 
L 155.904407 -124.330476 
L 154.202034 -130.386636 
L 152.499661 -128.896347 
L 150.797288 -151.021956 
L 149.094915 -146.500725 
L 147.392542 -150.160851 
L 145.690169 -140.339554 
L 143.987797 -141.313073 
L 142.285424 -131.285175 
L 140.583051 -129.114999 
L 138.880678 -152.921786 
L 137.178305 -146.919282 
L 135.475932 -159.684352 
L 133.773559 -156.730409 
L 132.071186 -144.781982 
L 130.368814 -148.560613 
L 128.666441 -159.791607 
L 126.964068 -146.408717 
L 125.261695 -138.808743 
L 123.559322 -149.195738 
L 121.856949 -143.486077 
L 120.154576 -128.769072 
L 118.452203 -124.494408 
L 116.749831 -118.199205 
L 115.047458 -102.828168 
L 113.345085 -104.253479 
L 111.642712 -97.956415 
L 109.940339 -93.90407 
L 108.237966 -111.935734 
L 106.535593 -97.045187 
L 104.83322 -100.104505 
L 103.130847 -118.040234 
L 101.428475 -126.271098 
L 99.726102 -135.685702 
L 98.023729 -138.702902 
L 96.321356 -141.202328 
L 94.618983 -138.242743 
L 92.91661 -139.204489 
L 91.214237 -127.396886 
L 89.511864 -142.177718 
L 87.809492 -151.07127 
L 86.107119 -142.435723 
L 84.404746 -154.39685 
L 82.702373 -166.01429 
L 81 -179.591861 
z
" id="mb3a0fdba10" style="stroke:#0000ff;stroke-opacity:0.3;"/>
    </defs>
    <g clip-path="url(#p7d6484f5f8)">
     <use style="fill:#0000ff;fill-opacity:0.3;stroke:#0000ff;stroke-opacity:0.3;" x="0" xlink:href="#mb3a0fdba10" y="216"/>
    </g>
   </g>
   <g id="matplotlib.axis_1">
    <g id="xtick_1">
     <g id="line2d_1">
      <defs>
       <path d="M 0 0 
L 0 3.5 
" id="mea84bd5be2" style="stroke:#000000;stroke-width:0.8;"/>
      </defs>
      <g>
       <use style="stroke:#000000;stroke-width:0.8;" x="162.62878" xlink:href="#mea84bd5be2" y="192.24"/>
      </g>
     </g>
     <g id="text_1">
      <!-- 0.0 -->
      <defs>
       <path d="M 31.78125 66.40625 
Q 24.171875 66.40625 20.328125 58.90625 
Q 16.5 51.421875 16.5 36.375 
Q 16.5 21.390625 20.328125 13.890625 
Q 24.171875 6.390625 31.78125 6.390625 
Q 39.453125 6.390625 43.28125 13.890625 
Q 47.125 21.390625 47.125 36.375 
Q 47.125 51.421875 43.28125 58.90625 
Q 39.453125 66.40625 31.78125 66.40625 
z
M 31.78125 74.21875 
Q 44.046875 74.21875 50.515625 64.515625 
Q 56.984375 54.828125 56.984375 36.375 
Q 56.984375 17.96875 50.515625 8.265625 
Q 44.046875 -1.421875 31.78125 -1.421875 
Q 19.53125 -1.421875 13.0625 8.265625 
Q 6.59375 17.96875 6.59375 36.375 
Q 6.59375 54.828125 13.0625 64.515625 
Q 19.53125 74.21875 31.78125 74.21875 
z
" id="DejaVuSans-48"/>
       <path d="M 10.6875 12.40625 
L 21 12.40625 
L 21 0 
L 10.6875 0 
z
" id="DejaVuSans-46"/>
      </defs>
      <g transform="translate(153.086905 208.358125)scale(0.12 -0.12)">
       <use xlink:href="#DejaVuSans-48"/>
       <use x="63.623047" xlink:href="#DejaVuSans-46"/>
       <use x="95.410156" xlink:href="#DejaVuSans-48"/>
      </g>
     </g>
    </g>
    <g id="xtick_2">
     <g id="line2d_2">
      <g>
       <use style="stroke:#000000;stroke-width:0.8;" x="247.747424" xlink:href="#mea84bd5be2" y="192.24"/>
      </g>
     </g>
     <g id="text_2">
      <!-- 0.5 -->
      <defs>
       <path d="M 10.796875 72.90625 
L 49.515625 72.90625 
L 49.515625 64.59375 
L 19.828125 64.59375 
L 19.828125 46.734375 
Q 21.96875 47.46875 24.109375 47.828125 
Q 26.265625 48.1875 28.421875 48.1875 
Q 40.625 48.1875 47.75 41.5 
Q 54.890625 34.8125 54.890625 23.390625 
Q 54.890625 11.625 47.5625 5.09375 
Q 40.234375 -1.421875 26.90625 -1.421875 
Q 22.3125 -1.421875 17.546875 -0.640625 
Q 12.796875 0.140625 7.71875 1.703125 
L 7.71875 11.625 
Q 12.109375 9.234375 16.796875 8.0625 
Q 21.484375 6.890625 26.703125 6.890625 
Q 35.15625 6.890625 40.078125 11.328125 
Q 45.015625 15.765625 45.015625 23.390625 
Q 45.015625 31 40.078125 35.4375 
Q 35.15625 39.890625 26.703125 39.890625 
Q 22.75 39.890625 18.8125 39.015625 
Q 14.890625 38.140625 10.796875 36.28125 
z
" id="DejaVuSans-53"/>
      </defs>
      <g transform="translate(238.205549 208.358125)scale(0.12 -0.12)">
       <use xlink:href="#DejaVuSans-48"/>
       <use x="63.623047" xlink:href="#DejaVuSans-46"/>
       <use x="95.410156" xlink:href="#DejaVuSans-53"/>
      </g>
     </g>
    </g>
    <g id="xtick_3">
     <g id="line2d_3">
      <g>
       <use style="stroke:#000000;stroke-width:0.8;" x="332.866068" xlink:href="#mea84bd5be2" y="192.24"/>
      </g>
     </g>
     <g id="text_3">
      <!-- 1.0 -->
      <defs>
       <path d="M 12.40625 8.296875 
L 28.515625 8.296875 
L 28.515625 63.921875 
L 10.984375 60.40625 
L 10.984375 69.390625 
L 28.421875 72.90625 
L 38.28125 72.90625 
L 38.28125 8.296875 
L 54.390625 8.296875 
L 54.390625 0 
L 12.40625 0 
z
" id="DejaVuSans-49"/>
      </defs>
      <g transform="translate(323.324193 208.358125)scale(0.12 -0.12)">
       <use xlink:href="#DejaVuSans-49"/>
       <use x="63.623047" xlink:href="#DejaVuSans-46"/>
       <use x="95.410156" xlink:href="#DejaVuSans-48"/>
      </g>
     </g>
    </g>
    <g id="xtick_4">
     <g id="line2d_4">
      <g>
       <use style="stroke:#000000;stroke-width:0.8;" x="417.984712" xlink:href="#mea84bd5be2" y="192.24"/>
      </g>
     </g>
     <g id="text_4">
      <!-- 1.5 -->
      <g transform="translate(408.442837 208.358125)scale(0.12 -0.12)">
       <use xlink:href="#DejaVuSans-49"/>
       <use x="63.623047" xlink:href="#DejaVuSans-46"/>
       <use x="95.410156" xlink:href="#DejaVuSans-53"/>
      </g>
     </g>
    </g>
    <g id="xtick_5">
     <g id="line2d_5">
      <g>
       <use style="stroke:#000000;stroke-width:0.8;" x="503.103356" xlink:href="#mea84bd5be2" y="192.24"/>
      </g>
     </g>
     <g id="text_5">
      <!-- 2.0 -->
      <defs>
       <path d="M 19.1875 8.296875 
L 53.609375 8.296875 
L 53.609375 0 
L 7.328125 0 
L 7.328125 8.296875 
Q 12.9375 14.109375 22.625 23.890625 
Q 32.328125 33.6875 34.8125 36.53125 
Q 39.546875 41.84375 41.421875 45.53125 
Q 43.3125 49.21875 43.3125 52.78125 
Q 43.3125 58.59375 39.234375 62.25 
Q 35.15625 65.921875 28.609375 65.921875 
Q 23.96875 65.921875 18.8125 64.3125 
Q 13.671875 62.703125 7.8125 59.421875 
L 7.8125 69.390625 
Q 13.765625 71.78125 18.9375 73 
Q 24.125 74.21875 28.421875 74.21875 
Q 39.75 74.21875 46.484375 68.546875 
Q 53.21875 62.890625 53.21875 53.421875 
Q 53.21875 48.921875 51.53125 44.890625 
Q 49.859375 40.875 45.40625 35.40625 
Q 44.1875 33.984375 37.640625 27.21875 
Q 31.109375 20.453125 19.1875 8.296875 
z
" id="DejaVuSans-50"/>
      </defs>
      <g transform="translate(493.561481 208.358125)scale(0.12 -0.12)">
       <use xlink:href="#DejaVuSans-50"/>
       <use x="63.623047" xlink:href="#DejaVuSans-46"/>
       <use x="95.410156" xlink:href="#DejaVuSans-48"/>
      </g>
     </g>
    </g>
    <g id="text_6">
     <!-- Time (s) -->
     <defs>
      <path d="M -0.296875 72.90625 
L 61.375 72.90625 
L 61.375 64.59375 
L 35.5 64.59375 
L 35.5 0 
L 25.59375 0 
L 25.59375 64.59375 
L -0.296875 64.59375 
z
" id="DejaVuSans-84"/>
      <path d="M 9.421875 54.6875 
L 18.40625 54.6875 
L 18.40625 0 
L 9.421875 0 
z
M 9.421875 75.984375 
L 18.40625 75.984375 
L 18.40625 64.59375 
L 9.421875 64.59375 
z
" id="DejaVuSans-105"/>
      <path d="M 52 44.1875 
Q 55.375 50.25 60.0625 53.125 
Q 64.75 56 71.09375 56 
Q 79.640625 56 84.28125 50.015625 
Q 88.921875 44.046875 88.921875 33.015625 
L 88.921875 0 
L 79.890625 0 
L 79.890625 32.71875 
Q 79.890625 40.578125 77.09375 44.375 
Q 74.3125 48.1875 68.609375 48.1875 
Q 61.625 48.1875 57.5625 43.546875 
Q 53.515625 38.921875 53.515625 30.90625 
L 53.515625 0 
L 44.484375 0 
L 44.484375 32.71875 
Q 44.484375 40.625 41.703125 44.40625 
Q 38.921875 48.1875 33.109375 48.1875 
Q 26.21875 48.1875 22.15625 43.53125 
Q 18.109375 38.875 18.109375 30.90625 
L 18.109375 0 
L 9.078125 0 
L 9.078125 54.6875 
L 18.109375 54.6875 
L 18.109375 46.1875 
Q 21.1875 51.21875 25.484375 53.609375 
Q 29.78125 56 35.6875 56 
Q 41.65625 56 45.828125 52.96875 
Q 50 49.953125 52 44.1875 
z
" id="DejaVuSans-109"/>
      <path d="M 56.203125 29.59375 
L 56.203125 25.203125 
L 14.890625 25.203125 
Q 15.484375 15.921875 20.484375 11.0625 
Q 25.484375 6.203125 34.421875 6.203125 
Q 39.59375 6.203125 44.453125 7.46875 
Q 49.3125 8.734375 54.109375 11.28125 
L 54.109375 2.78125 
Q 49.265625 0.734375 44.1875 -0.34375 
Q 39.109375 -1.421875 33.890625 -1.421875 
Q 20.796875 -1.421875 13.15625 6.1875 
Q 5.515625 13.8125 5.515625 26.8125 
Q 5.515625 40.234375 12.765625 48.109375 
Q 20.015625 56 32.328125 56 
Q 43.359375 56 49.78125 48.890625 
Q 56.203125 41.796875 56.203125 29.59375 
z
M 47.21875 32.234375 
Q 47.125 39.59375 43.09375 43.984375 
Q 39.0625 48.390625 32.421875 48.390625 
Q 24.90625 48.390625 20.390625 44.140625 
Q 15.875 39.890625 15.1875 32.171875 
z
" id="DejaVuSans-101"/>
      <path id="DejaVuSans-32"/>
      <path d="M 31 75.875 
Q 24.46875 64.65625 21.28125 53.65625 
Q 18.109375 42.671875 18.109375 31.390625 
Q 18.109375 20.125 21.3125 9.0625 
Q 24.515625 -2 31 -13.1875 
L 23.1875 -13.1875 
Q 15.875 -1.703125 12.234375 9.375 
Q 8.59375 20.453125 8.59375 31.390625 
Q 8.59375 42.28125 12.203125 53.3125 
Q 15.828125 64.359375 23.1875 75.875 
z
" id="DejaVuSans-40"/>
      <path d="M 44.28125 53.078125 
L 44.28125 44.578125 
Q 40.484375 46.53125 36.375 47.5 
Q 32.28125 48.484375 27.875 48.484375 
Q 21.1875 48.484375 17.84375 46.4375 
Q 14.5 44.390625 14.5 40.28125 
Q 14.5 37.15625 16.890625 35.375 
Q 19.28125 33.59375 26.515625 31.984375 
L 29.59375 31.296875 
Q 39.15625 29.25 43.1875 25.515625 
Q 47.21875 21.78125 47.21875 15.09375 
Q 47.21875 7.46875 41.1875 3.015625 
Q 35.15625 -1.421875 24.609375 -1.421875 
Q 20.21875 -1.421875 15.453125 -0.5625 
Q 10.6875 0.296875 5.421875 2 
L 5.421875 11.28125 
Q 10.40625 8.6875 15.234375 7.390625 
Q 20.0625 6.109375 24.8125 6.109375 
Q 31.15625 6.109375 34.5625 8.28125 
Q 37.984375 10.453125 37.984375 14.40625 
Q 37.984375 18.0625 35.515625 20.015625 
Q 33.0625 21.96875 24.703125 23.78125 
L 21.578125 24.515625 
Q 13.234375 26.265625 9.515625 29.90625 
Q 5.8125 33.546875 5.8125 39.890625 
Q 5.8125 47.609375 11.28125 51.796875 
Q 16.75 56 26.8125 56 
Q 31.78125 56 36.171875 55.265625 
Q 40.578125 54.546875 44.28125 53.078125 
z
" id="DejaVuSans-115"/>
      <path d="M 8.015625 75.875 
L 15.828125 75.875 
Q 23.140625 64.359375 26.78125 53.3125 
Q 30.421875 42.28125 30.421875 31.390625 
Q 30.421875 20.453125 26.78125 9.375 
Q 23.140625 -1.703125 15.828125 -13.1875 
L 8.015625 -13.1875 
Q 14.5 -2 17.703125 9.0625 
Q 20.90625 20.125 20.90625 31.390625 
Q 20.90625 42.671875 17.703125 53.65625 
Q 14.5 64.65625 8.015625 75.875 
z
" id="DejaVuSans-41"/>
     </defs>
     <g transform="translate(302.60475 225.7955)scale(0.144 -0.144)">
      <use xlink:href="#DejaVuSans-84"/>
      <use x="61.037109" xlink:href="#DejaVuSans-105"/>
      <use x="88.820312" xlink:href="#DejaVuSans-109"/>
      <use x="186.232422" xlink:href="#DejaVuSans-101"/>
      <use x="247.755859" xlink:href="#DejaVuSans-32"/>
      <use x="279.542969" xlink:href="#DejaVuSans-40"/>
      <use x="318.556641" xlink:href="#DejaVuSans-115"/>
      <use x="370.65625" xlink:href="#DejaVuSans-41"/>
     </g>
    </g>
   </g>
   <g id="matplotlib.axis_2">
    <g id="ytick_1">
     <g id="line2d_6">
      <defs>
       <path d="M 0 0 
L -3.5 0 
" id="m949e07aef5" style="stroke:#000000;stroke-width:0.8;"/>
      </defs>
      <g>
       <use style="stroke:#000000;stroke-width:0.8;" x="81" xlink:href="#m949e07aef5" y="168.769777"/>
      </g>
     </g>
     <g id="text_7">
      <!-- 0.6 -->
      <defs>
       <path d="M 33.015625 40.375 
Q 26.375 40.375 22.484375 35.828125 
Q 18.609375 31.296875 18.609375 23.390625 
Q 18.609375 15.53125 22.484375 10.953125 
Q 26.375 6.390625 33.015625 6.390625 
Q 39.65625 6.390625 43.53125 10.953125 
Q 47.40625 15.53125 47.40625 23.390625 
Q 47.40625 31.296875 43.53125 35.828125 
Q 39.65625 40.375 33.015625 40.375 
z
M 52.59375 71.296875 
L 52.59375 62.3125 
Q 48.875 64.0625 45.09375 64.984375 
Q 41.3125 65.921875 37.59375 65.921875 
Q 27.828125 65.921875 22.671875 59.328125 
Q 17.53125 52.734375 16.796875 39.40625 
Q 19.671875 43.65625 24.015625 45.921875 
Q 28.375 48.1875 33.59375 48.1875 
Q 44.578125 48.1875 50.953125 41.515625 
Q 57.328125 34.859375 57.328125 23.390625 
Q 57.328125 12.15625 50.6875 5.359375 
Q 44.046875 -1.421875 33.015625 -1.421875 
Q 20.359375 -1.421875 13.671875 8.265625 
Q 6.984375 17.96875 6.984375 36.375 
Q 6.984375 53.65625 15.1875 63.9375 
Q 23.390625 74.21875 37.203125 74.21875 
Q 40.921875 74.21875 44.703125 73.484375 
Q 48.484375 72.75 52.59375 71.296875 
z
" id="DejaVuSans-54"/>
      </defs>
      <g transform="translate(54.91625 173.328839)scale(0.12 -0.12)">
       <use xlink:href="#DejaVuSans-48"/>
       <use x="63.623047" xlink:href="#DejaVuSans-46"/>
       <use x="95.410156" xlink:href="#DejaVuSans-54"/>
      </g>
     </g>
    </g>
    <g id="ytick_2">
     <g id="line2d_7">
      <g>
       <use style="stroke:#000000;stroke-width:0.8;" x="81" xlink:href="#m949e07aef5" y="128.817019"/>
      </g>
     </g>
     <g id="text_8">
      <!-- 0.8 -->
      <defs>
       <path d="M 31.78125 34.625 
Q 24.75 34.625 20.71875 30.859375 
Q 16.703125 27.09375 16.703125 20.515625 
Q 16.703125 13.921875 20.71875 10.15625 
Q 24.75 6.390625 31.78125 6.390625 
Q 38.8125 6.390625 42.859375 10.171875 
Q 46.921875 13.96875 46.921875 20.515625 
Q 46.921875 27.09375 42.890625 30.859375 
Q 38.875 34.625 31.78125 34.625 
z
M 21.921875 38.8125 
Q 15.578125 40.375 12.03125 44.71875 
Q 8.5 49.078125 8.5 55.328125 
Q 8.5 64.0625 14.71875 69.140625 
Q 20.953125 74.21875 31.78125 74.21875 
Q 42.671875 74.21875 48.875 69.140625 
Q 55.078125 64.0625 55.078125 55.328125 
Q 55.078125 49.078125 51.53125 44.71875 
Q 48 40.375 41.703125 38.8125 
Q 48.828125 37.15625 52.796875 32.3125 
Q 56.78125 27.484375 56.78125 20.515625 
Q 56.78125 9.90625 50.3125 4.234375 
Q 43.84375 -1.421875 31.78125 -1.421875 
Q 19.734375 -1.421875 13.25 4.234375 
Q 6.78125 9.90625 6.78125 20.515625 
Q 6.78125 27.484375 10.78125 32.3125 
Q 14.796875 37.15625 21.921875 38.8125 
z
M 18.3125 54.390625 
Q 18.3125 48.734375 21.84375 45.5625 
Q 25.390625 42.390625 31.78125 42.390625 
Q 38.140625 42.390625 41.71875 45.5625 
Q 45.3125 48.734375 45.3125 54.390625 
Q 45.3125 60.0625 41.71875 63.234375 
Q 38.140625 66.40625 31.78125 66.40625 
Q 25.390625 66.40625 21.84375 63.234375 
Q 18.3125 60.0625 18.3125 54.390625 
z
" id="DejaVuSans-56"/>
      </defs>
      <g transform="translate(54.91625 133.376082)scale(0.12 -0.12)">
       <use xlink:href="#DejaVuSans-48"/>
       <use x="63.623047" xlink:href="#DejaVuSans-46"/>
       <use x="95.410156" xlink:href="#DejaVuSans-56"/>
      </g>
     </g>
    </g>
    <g id="ytick_3">
     <g id="line2d_8">
      <g>
       <use style="stroke:#000000;stroke-width:0.8;" x="81" xlink:href="#m949e07aef5" y="88.864261"/>
      </g>
     </g>
     <g id="text_9">
      <!-- 1.0 -->
      <g transform="translate(54.91625 93.423324)scale(0.12 -0.12)">
       <use xlink:href="#DejaVuSans-49"/>
       <use x="63.623047" xlink:href="#DejaVuSans-46"/>
       <use x="95.410156" xlink:href="#DejaVuSans-48"/>
      </g>
     </g>
    </g>
    <g id="ytick_4">
     <g id="line2d_9">
      <g>
       <use style="stroke:#000000;stroke-width:0.8;" x="81" xlink:href="#m949e07aef5" y="48.911503"/>
      </g>
     </g>
     <g id="text_10">
      <!-- 1.2 -->
      <g transform="translate(54.91625 53.470566)scale(0.12 -0.12)">
       <use xlink:href="#DejaVuSans-49"/>
       <use x="63.623047" xlink:href="#DejaVuSans-46"/>
       <use x="95.410156" xlink:href="#DejaVuSans-50"/>
      </g>
     </g>
    </g>
    <g id="text_11">
     <!-- COMb $\nu$ -->
     <defs>
      <path d="M 64.40625 67.28125 
L 64.40625 56.890625 
Q 59.421875 61.53125 53.78125 63.8125 
Q 48.140625 66.109375 41.796875 66.109375 
Q 29.296875 66.109375 22.65625 58.46875 
Q 16.015625 50.828125 16.015625 36.375 
Q 16.015625 21.96875 22.65625 14.328125 
Q 29.296875 6.6875 41.796875 6.6875 
Q 48.140625 6.6875 53.78125 8.984375 
Q 59.421875 11.28125 64.40625 15.921875 
L 64.40625 5.609375 
Q 59.234375 2.09375 53.4375 0.328125 
Q 47.65625 -1.421875 41.21875 -1.421875 
Q 24.65625 -1.421875 15.125 8.703125 
Q 5.609375 18.84375 5.609375 36.375 
Q 5.609375 53.953125 15.125 64.078125 
Q 24.65625 74.21875 41.21875 74.21875 
Q 47.75 74.21875 53.53125 72.484375 
Q 59.328125 70.75 64.40625 67.28125 
z
" id="DejaVuSans-67"/>
      <path d="M 39.40625 66.21875 
Q 28.65625 66.21875 22.328125 58.203125 
Q 16.015625 50.203125 16.015625 36.375 
Q 16.015625 22.609375 22.328125 14.59375 
Q 28.65625 6.59375 39.40625 6.59375 
Q 50.140625 6.59375 56.421875 14.59375 
Q 62.703125 22.609375 62.703125 36.375 
Q 62.703125 50.203125 56.421875 58.203125 
Q 50.140625 66.21875 39.40625 66.21875 
z
M 39.40625 74.21875 
Q 54.734375 74.21875 63.90625 63.9375 
Q 73.09375 53.65625 73.09375 36.375 
Q 73.09375 19.140625 63.90625 8.859375 
Q 54.734375 -1.421875 39.40625 -1.421875 
Q 24.03125 -1.421875 14.8125 8.828125 
Q 5.609375 19.09375 5.609375 36.375 
Q 5.609375 53.65625 14.8125 63.9375 
Q 24.03125 74.21875 39.40625 74.21875 
z
" id="DejaVuSans-79"/>
      <path d="M 9.8125 72.90625 
L 24.515625 72.90625 
L 43.109375 23.296875 
L 61.8125 72.90625 
L 76.515625 72.90625 
L 76.515625 0 
L 66.890625 0 
L 66.890625 64.015625 
L 48.09375 14.015625 
L 38.1875 14.015625 
L 19.390625 64.015625 
L 19.390625 0 
L 9.8125 0 
z
" id="DejaVuSans-77"/>
      <path d="M 48.6875 27.296875 
Q 48.6875 37.203125 44.609375 42.84375 
Q 40.53125 48.484375 33.40625 48.484375 
Q 26.265625 48.484375 22.1875 42.84375 
Q 18.109375 37.203125 18.109375 27.296875 
Q 18.109375 17.390625 22.1875 11.75 
Q 26.265625 6.109375 33.40625 6.109375 
Q 40.53125 6.109375 44.609375 11.75 
Q 48.6875 17.390625 48.6875 27.296875 
z
M 18.109375 46.390625 
Q 20.953125 51.265625 25.265625 53.625 
Q 29.59375 56 35.59375 56 
Q 45.5625 56 51.78125 48.09375 
Q 58.015625 40.1875 58.015625 27.296875 
Q 58.015625 14.40625 51.78125 6.484375 
Q 45.5625 -1.421875 35.59375 -1.421875 
Q 29.59375 -1.421875 25.265625 0.953125 
Q 20.953125 3.328125 18.109375 8.203125 
L 18.109375 0 
L 9.078125 0 
L 9.078125 75.984375 
L 18.109375 75.984375 
z
" id="DejaVuSans-98"/>
      <path d="M 14.984375 0 
L 8.9375 54.6875 
L 18.609375 54.6875 
L 23.78125 8.796875 
Q 30.8125 14.84375 37.359375 23.25 
Q 42.28125 29.546875 43.5625 35.015625 
Q 44.140625 37.59375 43.890625 42.484375 
Q 43.65625 48.296875 39.75 54.6875 
L 48.828125 54.6875 
L 48.828125 54.6875 
Q 51.375 50.34375 52.390625 44.28125 
Q 53.375 38.71875 52.640625 34.90625 
Q 50.78125 25.34375 42.484375 16.796875 
Q 31.640625 5.671875 24.5625 0 
z
" id="DejaVuSans-Oblique-957"/>
     </defs>
     <g transform="translate(47.9215 136.872)rotate(-90)scale(0.144 -0.144)">
      <use transform="translate(0 0.015625)" xlink:href="#DejaVuSans-67"/>
      <use transform="translate(69.824219 0.015625)" xlink:href="#DejaVuSans-79"/>
      <use transform="translate(148.535156 0.015625)" xlink:href="#DejaVuSans-77"/>
      <use transform="translate(234.814453 0.015625)" xlink:href="#DejaVuSans-98"/>
      <use transform="translate(298.291016 0.015625)" xlink:href="#DejaVuSans-32"/>
      <use transform="translate(330.078125 0.015625)" xlink:href="#DejaVuSans-Oblique-957"/>
     </g>
    </g>
   </g>
   <g id="line2d_10">
    <path clip-path="url(#p7d6484f5f8)" d="M 81 65.297584 
L 82.702373 80.524677 
L 84.404746 87.555707 
L 86.107119 100.436211 
L 87.809492 88.523671 
L 89.511864 94.643597 
L 91.214237 104.666094 
L 92.91661 94.77863 
L 94.618983 95.053387 
L 96.321356 93.771343 
L 98.023729 95.331335 
L 99.726102 98.885548 
L 101.428475 105.515979 
L 103.130847 111.033627 
L 104.83322 128.501912 
L 106.535593 129.621577 
L 108.237966 114.769021 
L 109.940339 131.882546 
L 111.642712 130.843423 
L 113.345085 123.425491 
L 115.047458 126.511112 
L 116.749831 115.123727 
L 118.452203 109.374985 
L 120.154576 104.617726 
L 121.856949 92.356252 
L 123.559322 86.10152 
L 125.261695 97.684898 
L 126.964068 88.778769 
L 128.666441 81.161197 
L 130.368814 91.071813 
L 132.071186 94.618019 
L 133.773559 84.592843 
L 135.475932 82.196063 
L 137.178305 99.752023 
L 138.880678 92.41741 
L 140.583051 110.323323 
L 142.285424 104.595892 
L 143.987797 91.905832 
L 145.690169 92.324853 
L 147.392542 85.437832 
L 149.094915 92.721798 
L 150.797288 91.102572 
L 152.499661 108.271838 
L 154.202034 105.913143 
L 155.904407 110.27761 
L 159.309153 84.399409 
L 161.011525 98.74913 
L 162.713898 93.904996 
L 164.416271 106.315813 
L 166.118644 102.677763 
L 167.821017 104.123474 
L 169.52339 96.104641 
L 171.225763 79.853174 
L 172.928136 70.923761 
L 174.630508 60.238631 
L 176.332881 69.325908 
L 178.035254 63.331212 
L 179.737627 72.868884 
L 181.44 71.722254 
L 183.142373 77.115754 
L 184.844746 83.415331 
L 186.547119 96.469313 
L 188.249492 93.940914 
L 189.951864 104.252146 
L 191.654237 140.874578 
L 193.35661 143.454009 
L 195.058983 143.626393 
L 196.761356 138.739875 
L 198.463729 147.522137 
L 200.166102 140.57313 
L 201.868475 142.281592 
L 203.570847 145.280417 
L 205.27322 156.517972 
L 206.975593 155.857963 
L 208.677966 134.20375 
L 210.380339 129.041939 
L 212.082712 120.669925 
L 213.785085 109.906944 
L 215.487458 118.243064 
L 217.189831 119.742307 
L 218.892203 115.118189 
L 220.594576 117.418562 
L 222.296949 104.446343 
L 223.999322 124.816948 
L 225.701695 123.488892 
L 227.404068 106.750024 
L 229.106441 116.274575 
L 230.808814 117.912757 
L 232.511186 118.082211 
L 234.213559 114.569131 
L 235.915932 113.195797 
L 237.618305 114.650458 
L 239.320678 125.37175 
L 241.023051 115.935424 
L 242.725424 102.447197 
L 244.427797 106.629376 
L 246.130169 102.123044 
L 247.832542 98.950196 
L 249.534915 104.813282 
L 251.237288 100.309807 
L 252.939661 100.829798 
L 254.642034 95.124924 
L 256.344407 103.747128 
L 258.04678 108.129817 
L 259.749153 111.424786 
L 261.451525 112.288926 
L 263.153898 118.022198 
L 264.856271 111.990715 
L 266.558644 96.978994 
L 268.261017 95.142133 
L 269.96339 89.585843 
L 271.665763 95.740509 
L 273.368136 93.965854 
L 275.070508 84.746439 
L 276.772881 88.855551 
L 278.475254 79.344286 
L 280.177627 76.771272 
L 281.88 70.465611 
L 283.582373 73.945862 
L 285.284746 70.008076 
L 286.987119 83.270648 
L 288.689492 73.696468 
L 290.391864 63.486261 
L 292.094237 59.207293 
L 293.79661 62.523224 
L 295.498983 79.021999 
L 297.201356 68.827034 
L 298.903729 70.740957 
L 300.606102 79.235892 
L 302.308475 68.750525 
L 304.010847 64.223764 
L 305.71322 59.336375 
L 307.415593 57.402765 
L 309.117966 86.465427 
L 310.820339 86.5096 
L 312.522712 88.139878 
L 314.225085 95.419185 
L 315.927458 84.69555 
L 317.629831 77.168377 
L 319.332203 67.784915 
L 321.034576 73.101626 
L 322.736949 97.272663 
L 324.439322 93.754828 
L 326.141695 83.998421 
L 327.844068 94.582342 
L 329.546441 88.419465 
L 331.248814 82.686364 
L 332.951186 73.043123 
L 334.653559 88.532719 
L 336.355932 94.954396 
L 338.058305 87.641994 
L 339.760678 94.02096 
L 341.463051 98.830632 
L 343.165424 101.261276 
L 344.867797 105.210556 
L 346.570169 90.287182 
L 348.272542 84.076569 
L 349.974915 97.231565 
L 351.677288 82.8593 
L 353.379661 83.304241 
L 355.082034 87.191212 
L 356.784407 61.898974 
L 358.48678 63.834623 
L 360.189153 65.288245 
L 361.891525 58.429786 
L 363.593898 65.845247 
L 365.296271 85.043659 
L 366.998644 80.343154 
L 368.701017 76.546591 
L 370.40339 83.785282 
L 373.808136 100.263754 
L 375.510508 105.567212 
L 377.212881 107.091148 
L 378.915254 109.542852 
L 380.617627 99.691215 
L 382.32 93.363617 
L 384.022373 95.628329 
L 385.724746 75.922634 
L 387.427119 60.079412 
L 389.129492 54.676321 
L 390.831864 81.320693 
L 392.534237 76.010054 
L 394.23661 80.61113 
L 395.938983 60.933126 
L 397.641356 69.421802 
L 399.343729 81.647832 
L 401.046102 67.315643 
L 402.748475 68.181354 
L 404.450847 86.368347 
L 406.15322 93.484535 
L 407.855593 106.538021 
L 409.557966 110.436281 
L 411.260339 105.419381 
L 412.962712 124.799665 
L 414.665085 124.147292 
L 416.367458 105.208875 
L 418.069831 120.408025 
L 419.772203 141.367096 
L 421.474576 141.70272 
L 423.176949 140.629072 
L 424.879322 118.707314 
L 426.581695 126.979755 
L 428.284068 102.738255 
L 429.986441 139.580712 
L 431.688814 162.463253 
L 433.391186 165.915082 
L 435.093559 161.497943 
L 436.795932 152.136785 
L 438.498305 143.984486 
L 440.200678 133.440585 
L 441.903051 136.220716 
L 443.605424 123.290426 
L 445.307797 128.418062 
L 447.010169 127.308031 
L 448.712542 135.607272 
L 450.414915 133.394854 
L 452.117288 119.346672 
L 453.819661 111.928483 
L 455.522034 74.088692 
L 457.224407 85.143561 
L 458.92678 86.459525 
L 460.629153 99.287065 
L 462.331525 88.304338 
L 464.033898 97.490213 
L 465.736271 90.327624 
L 467.438644 69.129669 
L 469.141017 64.260395 
L 470.84339 88.329533 
L 472.545763 77.052177 
L 474.248136 77.77808 
L 475.950508 69.008767 
L 477.652881 53.743893 
L 479.355254 49.600972 
L 481.057627 48.68248 
L 482.76 51.428991 
L 484.462373 62.947447 
L 486.164746 70.287167 
L 487.867119 73.515613 
L 489.569492 69.566227 
L 492.974237 93.665754 
L 494.67661 100.289809 
L 496.378983 98.220748 
L 498.081356 101.436682 
L 499.783729 102.367276 
L 501.486102 102.025125 
L 503.188475 104.485954 
L 504.890847 99.740695 
L 506.59322 109.66738 
L 508.295593 95.36479 
L 509.997966 86.970838 
L 511.700339 89.290536 
L 513.402712 85.590617 
L 515.105085 77.980419 
L 516.807458 86.380808 
L 518.509831 90.010296 
L 520.212203 89.19311 
L 521.914576 90.117857 
L 523.616949 90.325273 
L 525.319322 92.825008 
L 527.021695 92.883543 
L 528.724068 91.274591 
L 530.426441 87.959417 
L 532.128814 93.011049 
L 533.831186 79.79981 
L 535.533559 68.17878 
L 537.235932 74.727545 
L 540.640678 83.424175 
L 542.343051 82.847562 
L 544.045424 90.306228 
L 545.747797 93.671891 
L 547.450169 100.277074 
L 549.152542 96.213805 
L 550.854915 87.280096 
L 552.557288 107.307813 
L 554.259661 109.143654 
L 555.962034 100.588876 
L 557.664407 105.315564 
L 559.36678 111.765626 
L 561.069153 107.265929 
L 562.771525 89.87994 
L 564.473898 83.770972 
L 566.176271 72.368476 
L 567.878644 86.83851 
L 571.28339 81.249104 
L 572.985763 99.923558 
L 574.688136 78.130518 
L 576.390508 74.568252 
L 578.092881 65.493018 
L 579.795254 68.771086 
L 581.497627 75.245157 
L 583.2 88.829299 
L 583.2 88.829299 
" style="fill:none;stroke:#0000ff;stroke-linecap:square;stroke-width:1.5;"/>
   </g>
   <g id="patch_3">
    <path d="M 81 192.24 
L 81 25.92 
" style="fill:none;stroke:#000000;stroke-linecap:square;stroke-linejoin:miter;stroke-width:0.8;"/>
   </g>
   <g id="patch_4">
    <path d="M 583.2 192.24 
L 583.2 25.92 
" style="fill:none;stroke:#000000;stroke-linecap:square;stroke-linejoin:miter;stroke-width:0.8;"/>
   </g>
   <g id="patch_5">
    <path d="M 81 192.24 
L 583.2 192.24 
" style="fill:none;stroke:#000000;stroke-linecap:square;stroke-linejoin:miter;stroke-width:0.8;"/>
   </g>
   <g id="patch_6">
    <path d="M 81 25.92 
L 583.2 25.92 
" style="fill:none;stroke:#000000;stroke-linecap:square;stroke-linejoin:miter;stroke-width:0.8;"/>
   </g>
   <g id="text_12">
    <!-- Motor cortex, Num Trials=10 All unstimulated trials -->
    <defs>
     <path d="M 30.609375 48.390625 
Q 23.390625 48.390625 19.1875 42.75 
Q 14.984375 37.109375 14.984375 27.296875 
Q 14.984375 17.484375 19.15625 11.84375 
Q 23.34375 6.203125 30.609375 6.203125 
Q 37.796875 6.203125 41.984375 11.859375 
Q 46.1875 17.53125 46.1875 27.296875 
Q 46.1875 37.015625 41.984375 42.703125 
Q 37.796875 48.390625 30.609375 48.390625 
z
M 30.609375 56 
Q 42.328125 56 49.015625 48.375 
Q 55.71875 40.765625 55.71875 27.296875 
Q 55.71875 13.875 49.015625 6.21875 
Q 42.328125 -1.421875 30.609375 -1.421875 
Q 18.84375 -1.421875 12.171875 6.21875 
Q 5.515625 13.875 5.515625 27.296875 
Q 5.515625 40.765625 12.171875 48.375 
Q 18.84375 56 30.609375 56 
z
" id="DejaVuSans-111"/>
     <path d="M 18.3125 70.21875 
L 18.3125 54.6875 
L 36.8125 54.6875 
L 36.8125 47.703125 
L 18.3125 47.703125 
L 18.3125 18.015625 
Q 18.3125 11.328125 20.140625 9.421875 
Q 21.96875 7.515625 27.59375 7.515625 
L 36.8125 7.515625 
L 36.8125 0 
L 27.59375 0 
Q 17.1875 0 13.234375 3.875 
Q 9.28125 7.765625 9.28125 18.015625 
L 9.28125 47.703125 
L 2.6875 47.703125 
L 2.6875 54.6875 
L 9.28125 54.6875 
L 9.28125 70.21875 
z
" id="DejaVuSans-116"/>
     <path d="M 41.109375 46.296875 
Q 39.59375 47.171875 37.8125 47.578125 
Q 36.03125 48 33.890625 48 
Q 26.265625 48 22.1875 43.046875 
Q 18.109375 38.09375 18.109375 28.8125 
L 18.109375 0 
L 9.078125 0 
L 9.078125 54.6875 
L 18.109375 54.6875 
L 18.109375 46.1875 
Q 20.953125 51.171875 25.484375 53.578125 
Q 30.03125 56 36.53125 56 
Q 37.453125 56 38.578125 55.875 
Q 39.703125 55.765625 41.0625 55.515625 
z
" id="DejaVuSans-114"/>
     <path d="M 48.78125 52.59375 
L 48.78125 44.1875 
Q 44.96875 46.296875 41.140625 47.34375 
Q 37.3125 48.390625 33.40625 48.390625 
Q 24.65625 48.390625 19.8125 42.84375 
Q 14.984375 37.3125 14.984375 27.296875 
Q 14.984375 17.28125 19.8125 11.734375 
Q 24.65625 6.203125 33.40625 6.203125 
Q 37.3125 6.203125 41.140625 7.25 
Q 44.96875 8.296875 48.78125 10.40625 
L 48.78125 2.09375 
Q 45.015625 0.34375 40.984375 -0.53125 
Q 36.96875 -1.421875 32.421875 -1.421875 
Q 20.0625 -1.421875 12.78125 6.34375 
Q 5.515625 14.109375 5.515625 27.296875 
Q 5.515625 40.671875 12.859375 48.328125 
Q 20.21875 56 33.015625 56 
Q 37.15625 56 41.109375 55.140625 
Q 45.0625 54.296875 48.78125 52.59375 
z
" id="DejaVuSans-99"/>
     <path d="M 54.890625 54.6875 
L 35.109375 28.078125 
L 55.90625 0 
L 45.3125 0 
L 29.390625 21.484375 
L 13.484375 0 
L 2.875 0 
L 24.125 28.609375 
L 4.6875 54.6875 
L 15.28125 54.6875 
L 29.78125 35.203125 
L 44.28125 54.6875 
z
" id="DejaVuSans-120"/>
     <path d="M 11.71875 12.40625 
L 22.015625 12.40625 
L 22.015625 4 
L 14.015625 -11.625 
L 7.71875 -11.625 
L 11.71875 4 
z
" id="DejaVuSans-44"/>
     <path d="M 9.8125 72.90625 
L 23.09375 72.90625 
L 55.421875 11.921875 
L 55.421875 72.90625 
L 64.984375 72.90625 
L 64.984375 0 
L 51.703125 0 
L 19.390625 60.984375 
L 19.390625 0 
L 9.8125 0 
z
" id="DejaVuSans-78"/>
     <path d="M 8.5 21.578125 
L 8.5 54.6875 
L 17.484375 54.6875 
L 17.484375 21.921875 
Q 17.484375 14.15625 20.5 10.265625 
Q 23.53125 6.390625 29.59375 6.390625 
Q 36.859375 6.390625 41.078125 11.03125 
Q 45.3125 15.671875 45.3125 23.6875 
L 45.3125 54.6875 
L 54.296875 54.6875 
L 54.296875 0 
L 45.3125 0 
L 45.3125 8.40625 
Q 42.046875 3.421875 37.71875 1 
Q 33.40625 -1.421875 27.6875 -1.421875 
Q 18.265625 -1.421875 13.375 4.4375 
Q 8.5 10.296875 8.5 21.578125 
z
M 31.109375 56 
z
" id="DejaVuSans-117"/>
     <path d="M 34.28125 27.484375 
Q 23.390625 27.484375 19.1875 25 
Q 14.984375 22.515625 14.984375 16.5 
Q 14.984375 11.71875 18.140625 8.90625 
Q 21.296875 6.109375 26.703125 6.109375 
Q 34.1875 6.109375 38.703125 11.40625 
Q 43.21875 16.703125 43.21875 25.484375 
L 43.21875 27.484375 
z
M 52.203125 31.203125 
L 52.203125 0 
L 43.21875 0 
L 43.21875 8.296875 
Q 40.140625 3.328125 35.546875 0.953125 
Q 30.953125 -1.421875 24.3125 -1.421875 
Q 15.921875 -1.421875 10.953125 3.296875 
Q 6 8.015625 6 15.921875 
Q 6 25.140625 12.171875 29.828125 
Q 18.359375 34.515625 30.609375 34.515625 
L 43.21875 34.515625 
L 43.21875 35.40625 
Q 43.21875 41.609375 39.140625 45 
Q 35.0625 48.390625 27.6875 48.390625 
Q 23 48.390625 18.546875 47.265625 
Q 14.109375 46.140625 10.015625 43.890625 
L 10.015625 52.203125 
Q 14.9375 54.109375 19.578125 55.046875 
Q 24.21875 56 28.609375 56 
Q 40.484375 56 46.34375 49.84375 
Q 52.203125 43.703125 52.203125 31.203125 
z
" id="DejaVuSans-97"/>
     <path d="M 9.421875 75.984375 
L 18.40625 75.984375 
L 18.40625 0 
L 9.421875 0 
z
" id="DejaVuSans-108"/>
     <path d="M 10.59375 45.40625 
L 73.1875 45.40625 
L 73.1875 37.203125 
L 10.59375 37.203125 
z
M 10.59375 25.484375 
L 73.1875 25.484375 
L 73.1875 17.1875 
L 10.59375 17.1875 
z
" id="DejaVuSans-61"/>
     <path d="M 34.1875 63.1875 
L 20.796875 26.90625 
L 47.609375 26.90625 
z
M 28.609375 72.90625 
L 39.796875 72.90625 
L 67.578125 0 
L 57.328125 0 
L 50.6875 18.703125 
L 17.828125 18.703125 
L 11.1875 0 
L 0.78125 0 
z
" id="DejaVuSans-65"/>
     <path d="M 54.890625 33.015625 
L 54.890625 0 
L 45.90625 0 
L 45.90625 32.71875 
Q 45.90625 40.484375 42.875 44.328125 
Q 39.84375 48.1875 33.796875 48.1875 
Q 26.515625 48.1875 22.3125 43.546875 
Q 18.109375 38.921875 18.109375 30.90625 
L 18.109375 0 
L 9.078125 0 
L 9.078125 54.6875 
L 18.109375 54.6875 
L 18.109375 46.1875 
Q 21.34375 51.125 25.703125 53.5625 
Q 30.078125 56 35.796875 56 
Q 45.21875 56 50.046875 50.171875 
Q 54.890625 44.34375 54.890625 33.015625 
z
" id="DejaVuSans-110"/>
     <path d="M 45.40625 46.390625 
L 45.40625 75.984375 
L 54.390625 75.984375 
L 54.390625 0 
L 45.40625 0 
L 45.40625 8.203125 
Q 42.578125 3.328125 38.25 0.953125 
Q 33.9375 -1.421875 27.875 -1.421875 
Q 17.96875 -1.421875 11.734375 6.484375 
Q 5.515625 14.40625 5.515625 27.296875 
Q 5.515625 40.1875 11.734375 48.09375 
Q 17.96875 56 27.875 56 
Q 33.9375 56 38.25 53.625 
Q 42.578125 51.265625 45.40625 46.390625 
z
M 14.796875 27.296875 
Q 14.796875 17.390625 18.875 11.75 
Q 22.953125 6.109375 30.078125 6.109375 
Q 37.203125 6.109375 41.296875 11.75 
Q 45.40625 17.390625 45.40625 27.296875 
Q 45.40625 37.203125 41.296875 42.84375 
Q 37.203125 48.484375 30.078125 48.484375 
Q 22.953125 48.484375 18.875 42.84375 
Q 14.796875 37.203125 14.796875 27.296875 
z
" id="DejaVuSans-100"/>
    </defs>
    <g transform="translate(177.343125 19.92)scale(0.12 -0.12)">
     <use xlink:href="#DejaVuSans-77"/>
     <use x="86.279297" xlink:href="#DejaVuSans-111"/>
     <use x="147.460938" xlink:href="#DejaVuSans-116"/>
     <use x="186.669922" xlink:href="#DejaVuSans-111"/>
     <use x="247.851562" xlink:href="#DejaVuSans-114"/>
     <use x="288.964844" xlink:href="#DejaVuSans-32"/>
     <use x="320.751953" xlink:href="#DejaVuSans-99"/>
     <use x="375.732422" xlink:href="#DejaVuSans-111"/>
     <use x="436.914062" xlink:href="#DejaVuSans-114"/>
     <use x="478.027344" xlink:href="#DejaVuSans-116"/>
     <use x="517.236328" xlink:href="#DejaVuSans-101"/>
     <use x="578.744141" xlink:href="#DejaVuSans-120"/>
     <use x="637.923828" xlink:href="#DejaVuSans-44"/>
     <use x="669.710938" xlink:href="#DejaVuSans-32"/>
     <use x="701.498047" xlink:href="#DejaVuSans-78"/>
     <use x="776.302734" xlink:href="#DejaVuSans-117"/>
     <use x="839.681641" xlink:href="#DejaVuSans-109"/>
     <use x="937.09375" xlink:href="#DejaVuSans-32"/>
     <use x="968.880859" xlink:href="#DejaVuSans-84"/>
     <use x="1029.746094" xlink:href="#DejaVuSans-114"/>
     <use x="1070.859375" xlink:href="#DejaVuSans-105"/>
     <use x="1098.642578" xlink:href="#DejaVuSans-97"/>
     <use x="1159.921875" xlink:href="#DejaVuSans-108"/>
     <use x="1187.705078" xlink:href="#DejaVuSans-115"/>
     <use x="1239.804688" xlink:href="#DejaVuSans-61"/>
     <use x="1323.59375" xlink:href="#DejaVuSans-49"/>
     <use x="1387.216797" xlink:href="#DejaVuSans-48"/>
     <use x="1450.839844" xlink:href="#DejaVuSans-32"/>
     <use x="1482.626953" xlink:href="#DejaVuSans-65"/>
     <use x="1551.035156" xlink:href="#DejaVuSans-108"/>
     <use x="1578.818359" xlink:href="#DejaVuSans-108"/>
     <use x="1606.601562" xlink:href="#DejaVuSans-32"/>
     <use x="1638.388672" xlink:href="#DejaVuSans-117"/>
     <use x="1701.767578" xlink:href="#DejaVuSans-110"/>
     <use x="1765.146484" xlink:href="#DejaVuSans-115"/>
     <use x="1817.246094" xlink:href="#DejaVuSans-116"/>
     <use x="1856.455078" xlink:href="#DejaVuSans-105"/>
     <use x="1884.238281" xlink:href="#DejaVuSans-109"/>
     <use x="1981.650391" xlink:href="#DejaVuSans-117"/>
     <use x="2045.029297" xlink:href="#DejaVuSans-108"/>
     <use x="2072.8125" xlink:href="#DejaVuSans-97"/>
     <use x="2134.091797" xlink:href="#DejaVuSans-116"/>
     <use x="2173.300781" xlink:href="#DejaVuSans-101"/>
     <use x="2234.824219" xlink:href="#DejaVuSans-100"/>
     <use x="2298.300781" xlink:href="#DejaVuSans-32"/>
     <use x="2330.087891" xlink:href="#DejaVuSans-116"/>
     <use x="2369.296875" xlink:href="#DejaVuSans-114"/>
     <use x="2410.410156" xlink:href="#DejaVuSans-105"/>
     <use x="2438.193359" xlink:href="#DejaVuSans-97"/>
     <use x="2499.472656" xlink:href="#DejaVuSans-108"/>
     <use x="2527.255859" xlink:href="#DejaVuSans-115"/>
    </g>
   </g>
   <g id="legend_1">
    <g id="patch_7">
     <path d="M 441.12 186.24 
L 574.8 186.24 
Q 577.2 186.24 577.2 183.84 
L 577.2 149.8125 
Q 577.2 147.4125 574.8 147.4125 
L 441.12 147.4125 
Q 438.72 147.4125 438.72 149.8125 
L 438.72 183.84 
Q 438.72 186.24 441.12 186.24 
z
" style="fill:#ffffff;opacity:0.8;stroke:#cccccc;stroke-linejoin:miter;"/>
    </g>
    <g id="line2d_11">
     <path d="M 443.52 157.130625 
L 467.52 157.130625 
" style="fill:none;stroke:#0000ff;stroke-linecap:square;stroke-width:1.5;"/>
    </g>
    <g id="line2d_12"/>
    <g id="text_13">
     <!-- COM-Binomial $\nu$ -->
     <defs>
      <path d="M 4.890625 31.390625 
L 31.203125 31.390625 
L 31.203125 23.390625 
L 4.890625 23.390625 
z
" id="DejaVuSans-45"/>
      <path d="M 19.671875 34.8125 
L 19.671875 8.109375 
L 35.5 8.109375 
Q 43.453125 8.109375 47.28125 11.40625 
Q 51.125 14.703125 51.125 21.484375 
Q 51.125 28.328125 47.28125 31.5625 
Q 43.453125 34.8125 35.5 34.8125 
z
M 19.671875 64.796875 
L 19.671875 42.828125 
L 34.28125 42.828125 
Q 41.5 42.828125 45.03125 45.53125 
Q 48.578125 48.25 48.578125 53.8125 
Q 48.578125 59.328125 45.03125 62.0625 
Q 41.5 64.796875 34.28125 64.796875 
z
M 9.8125 72.90625 
L 35.015625 72.90625 
Q 46.296875 72.90625 52.390625 68.21875 
Q 58.5 63.53125 58.5 54.890625 
Q 58.5 48.1875 55.375 44.234375 
Q 52.25 40.28125 46.1875 39.3125 
Q 53.46875 37.75 57.5 32.78125 
Q 61.53125 27.828125 61.53125 20.40625 
Q 61.53125 10.640625 54.890625 5.3125 
Q 48.25 0 35.984375 0 
L 9.8125 0 
z
" id="DejaVuSans-66"/>
     </defs>
     <g transform="translate(477.12 161.330625)scale(0.12 -0.12)">
      <use transform="translate(0 0.015625)" xlink:href="#DejaVuSans-67"/>
      <use transform="translate(69.824219 0.015625)" xlink:href="#DejaVuSans-79"/>
      <use transform="translate(148.535156 0.015625)" xlink:href="#DejaVuSans-77"/>
      <use transform="translate(234.814453 0.015625)" xlink:href="#DejaVuSans-45"/>
      <use transform="translate(270.898438 0.015625)" xlink:href="#DejaVuSans-66"/>
      <use transform="translate(339.501953 0.015625)" xlink:href="#DejaVuSans-105"/>
      <use transform="translate(367.285156 0.015625)" xlink:href="#DejaVuSans-110"/>
      <use transform="translate(430.664062 0.015625)" xlink:href="#DejaVuSans-111"/>
      <use transform="translate(491.845703 0.015625)" xlink:href="#DejaVuSans-109"/>
      <use transform="translate(589.257812 0.015625)" xlink:href="#DejaVuSans-105"/>
      <use transform="translate(617.041016 0.015625)" xlink:href="#DejaVuSans-97"/>
      <use transform="translate(678.320312 0.015625)" xlink:href="#DejaVuSans-108"/>
      <use transform="translate(706.103516 0.015625)" xlink:href="#DejaVuSans-32"/>
      <use transform="translate(737.890625 0.015625)" xlink:href="#DejaVuSans-Oblique-957"/>
     </g>
    </g>
    <g id="patch_8">
     <path d="M 443.52 178.944375 
L 467.52 178.944375 
L 467.52 170.544375 
L 443.52 170.544375 
z
" style="fill:#0000ff;opacity:0.3;stroke:#0000ff;stroke-linejoin:miter;"/>
    </g>
    <g id="text_14">
     <!-- Std. Err. -->
     <defs>
      <path d="M 53.515625 70.515625 
L 53.515625 60.890625 
Q 47.90625 63.578125 42.921875 64.890625 
Q 37.9375 66.21875 33.296875 66.21875 
Q 25.25 66.21875 20.875 63.09375 
Q 16.5 59.96875 16.5 54.203125 
Q 16.5 49.359375 19.40625 46.890625 
Q 22.3125 44.4375 30.421875 42.921875 
L 36.375 41.703125 
Q 47.40625 39.59375 52.65625 34.296875 
Q 57.90625 29 57.90625 20.125 
Q 57.90625 9.515625 50.796875 4.046875 
Q 43.703125 -1.421875 29.984375 -1.421875 
Q 24.8125 -1.421875 18.96875 -0.25 
Q 13.140625 0.921875 6.890625 3.21875 
L 6.890625 13.375 
Q 12.890625 10.015625 18.65625 8.296875 
Q 24.421875 6.59375 29.984375 6.59375 
Q 38.421875 6.59375 43.015625 9.90625 
Q 47.609375 13.234375 47.609375 19.390625 
Q 47.609375 24.75 44.3125 27.78125 
Q 41.015625 30.8125 33.5 32.328125 
L 27.484375 33.5 
Q 16.453125 35.6875 11.515625 40.375 
Q 6.59375 45.0625 6.59375 53.421875 
Q 6.59375 63.09375 13.40625 68.65625 
Q 20.21875 74.21875 32.171875 74.21875 
Q 37.3125 74.21875 42.625 73.28125 
Q 47.953125 72.359375 53.515625 70.515625 
z
" id="DejaVuSans-83"/>
      <path d="M 9.8125 72.90625 
L 55.90625 72.90625 
L 55.90625 64.59375 
L 19.671875 64.59375 
L 19.671875 43.015625 
L 54.390625 43.015625 
L 54.390625 34.71875 
L 19.671875 34.71875 
L 19.671875 8.296875 
L 56.78125 8.296875 
L 56.78125 0 
L 9.8125 0 
z
" id="DejaVuSans-69"/>
     </defs>
     <g transform="translate(477.12 178.944375)scale(0.12 -0.12)">
      <use xlink:href="#DejaVuSans-83"/>
      <use x="63.476562" xlink:href="#DejaVuSans-116"/>
      <use x="102.685547" xlink:href="#DejaVuSans-100"/>
      <use x="166.162109" xlink:href="#DejaVuSans-46"/>
      <use x="197.949219" xlink:href="#DejaVuSans-32"/>
      <use x="229.736328" xlink:href="#DejaVuSans-69"/>
      <use x="292.919922" xlink:href="#DejaVuSans-114"/>
      <use x="334.017578" xlink:href="#DejaVuSans-114"/>
      <use x="374.990234" xlink:href="#DejaVuSans-46"/>
     </g>
    </g>
   </g>
  </g>
 </g>
 <defs>
  <clipPath id="p7d6484f5f8">
   <rect height="166.32" width="502.2" x="81" y="25.92"/>
  </clipPath>
 </defs>
</svg>
