<?xml version="1.0" encoding="utf-8" standalone="no"?>
<!DOCTYPE svg PUBLIC "-//W3C//DTD SVG 1.1//EN"
  "http://www.w3.org/Graphics/SVG/1.1/DTD/svg11.dtd">
<!-- Created with matplotlib (https://matplotlib.org/) -->
<svg height="216pt" version="1.1" viewBox="0 0 648 216" width="648pt" xmlns="http://www.w3.org/2000/svg" xmlns:xlink="http://www.w3.org/1999/xlink">
 <defs>
  <style type="text/css">
*{stroke-linecap:butt;stroke-linejoin:round;}
  </style>
 </defs>
 <g id="figure_1">
  <g id="patch_1">
   <path d="M 0 216 
L 648 216 
L 648 0 
L 0 0 
z
" style="fill:#ffffff;"/>
  </g>
  <g id="axes_1">
   <g id="patch_2">
    <path d="M 81 192.24 
L 583.2 192.24 
L 583.2 25.92 
L 81 25.92 
z
" style="fill:#ffffff;"/>
   </g>
   <g id="PolyCollection_1">
    <defs>
     <path d="M 162.62878 -23.76 
L 162.62878 -190.08 
L 417.984712 -190.08 
L 417.984712 -23.76 
L 417.984712 -23.76 
L 162.62878 -23.76 
z
" id="m5eeea41671" style="stroke:#808080;stroke-opacity:0.3;"/>
    </defs>
    <g clip-path="url(#p3c44955748)">
     <use style="fill:#808080;fill-opacity:0.3;stroke:#808080;stroke-opacity:0.3;" x="0" xlink:href="#m5eeea41671" y="216"/>
    </g>
   </g>
   <g id="PolyCollection_2">
    <defs>
     <path d="M 81 -44.312565 
L 81 -28.237105 
L 82.702373 -30.973622 
L 84.404746 -27.936078 
L 86.107119 -31.621307 
L 87.809492 -28.134408 
L 89.511864 -28.053788 
L 91.214237 -27.587422 
L 92.91661 -26.786929 
L 94.618983 -26.895702 
L 96.321356 -26.749602 
L 98.023729 -26.797161 
L 99.726102 -27.144445 
L 101.428475 -27.433929 
L 103.130847 -27.717434 
L 104.83322 -30.718761 
L 106.535593 -30.684703 
L 108.237966 -28.255599 
L 109.940339 -31.169735 
L 111.642712 -31.985826 
L 113.345085 -29.943167 
L 115.047458 -30.753295 
L 116.749831 -30.144563 
L 118.452203 -28.9078 
L 120.154576 -27.171899 
L 121.856949 -27.013004 
L 123.559322 -26.502142 
L 125.261695 -27.754715 
L 126.964068 -26.162251 
L 128.666441 -26.576724 
L 130.368814 -27.025022 
L 132.071186 -27.766007 
L 133.773559 -27.301725 
L 135.475932 -26.518219 
L 137.178305 -30.387149 
L 138.880678 -30.03642 
L 140.583051 -31.639243 
L 142.285424 -28.815579 
L 143.987797 -26.513265 
L 145.690169 -26.415403 
L 147.392542 -26.250718 
L 149.094915 -28.240362 
L 150.797288 -28.62904 
L 152.499661 -29.678482 
L 154.202034 -28.417642 
L 155.904407 -28.337787 
L 157.60678 -26.133846 
L 159.309153 -25.430449 
L 161.011525 -26.855151 
L 162.713898 -27.416104 
L 164.416271 -28.437794 
L 166.118644 -28.577402 
L 167.821017 -28.658082 
L 169.52339 -28.930364 
L 171.225763 -26.35905 
L 172.928136 -24.771986 
L 174.630508 -24.594819 
L 176.332881 -25.304954 
L 178.035254 -25.414091 
L 179.737627 -26.42221 
L 181.44 -26.654155 
L 183.142373 -29.915671 
L 184.844746 -32.811428 
L 186.547119 -33.254683 
L 188.249492 -27.425099 
L 189.951864 -28.862419 
L 191.654237 -35.364691 
L 193.35661 -37.616319 
L 195.058983 -34.899215 
L 196.761356 -31.519621 
L 198.463729 -34.745594 
L 200.166102 -34.147919 
L 201.868475 -35.973708 
L 203.570847 -35.838838 
L 205.27322 -43.647149 
L 206.975593 -40.833645 
L 208.677966 -32.98298 
L 210.380339 -31.362992 
L 212.082712 -31.4647 
L 213.785085 -28.955087 
L 215.487458 -29.475356 
L 217.189831 -31.293796 
L 218.892203 -32.605021 
L 220.594576 -36.819968 
L 222.296949 -33.808852 
L 223.999322 -33.268857 
L 225.701695 -32.454933 
L 227.404068 -27.499128 
L 229.106441 -28.669578 
L 230.808814 -27.927398 
L 232.511186 -29.160068 
L 234.213559 -29.350642 
L 235.915932 -28.750776 
L 237.618305 -29.733552 
L 239.320678 -30.325677 
L 241.023051 -29.715094 
L 242.725424 -26.591406 
L 244.427797 -27.765719 
L 246.130169 -28.707777 
L 247.832542 -28.695991 
L 249.534915 -30.081676 
L 251.237288 -29.952846 
L 252.939661 -30.665467 
L 254.642034 -28.326859 
L 256.344407 -28.36922 
L 258.04678 -29.508781 
L 259.749153 -30.191445 
L 261.451525 -32.109816 
L 263.153898 -31.237434 
L 264.856271 -30.896956 
L 266.558644 -29.386796 
L 268.261017 -29.117349 
L 269.96339 -26.377268 
L 271.665763 -27.909807 
L 273.368136 -26.940166 
L 275.070508 -26.262388 
L 276.772881 -26.676266 
L 278.475254 -25.687215 
L 280.177627 -26.530193 
L 281.88 -27.441592 
L 283.582373 -26.741804 
L 285.284746 -26.171349 
L 286.987119 -26.065366 
L 288.689492 -25.137025 
L 290.391864 -25.394835 
L 292.094237 -26.183831 
L 293.79661 -25.438028 
L 295.498983 -25.285467 
L 297.201356 -24.962081 
L 298.903729 -24.369914 
L 300.606102 -24.655991 
L 302.308475 -24.422316 
L 304.010847 -24.099482 
L 305.71322 -24.14853 
L 307.415593 -24.092772 
L 309.117966 -25.180987 
L 310.820339 -25.244873 
L 312.522712 -25.695945 
L 314.225085 -26.847504 
L 315.927458 -26.103316 
L 317.629831 -25.816194 
L 319.332203 -24.961674 
L 321.034576 -25.760034 
L 322.736949 -26.711465 
L 324.439322 -26.444524 
L 326.141695 -26.398202 
L 327.844068 -27.487066 
L 329.546441 -25.962502 
L 331.248814 -25.608566 
L 332.951186 -25.119525 
L 334.653559 -26.063177 
L 336.355932 -26.689794 
L 338.058305 -26.144102 
L 339.760678 -26.439511 
L 341.463051 -26.829123 
L 343.165424 -27.944441 
L 344.867797 -27.900734 
L 346.570169 -27.717145 
L 348.272542 -27.24552 
L 349.974915 -28.794263 
L 351.677288 -26.377151 
L 353.379661 -27.030917 
L 355.082034 -26.378267 
L 356.784407 -25.162052 
L 358.48678 -24.878109 
L 360.189153 -24.769434 
L 361.891525 -23.832626 
L 363.593898 -24.462412 
L 365.296271 -24.874373 
L 366.998644 -24.668264 
L 368.701017 -25.605195 
L 370.40339 -25.715766 
L 372.105763 -25.638737 
L 373.808136 -26.337996 
L 375.510508 -27.28963 
L 377.212881 -28.105883 
L 378.915254 -28.87881 
L 380.617627 -26.995311 
L 382.32 -26.911897 
L 384.022373 -27.644436 
L 385.724746 -27.226443 
L 387.427119 -26.59228 
L 389.129492 -25.340684 
L 390.831864 -25.996738 
L 392.534237 -25.82393 
L 394.23661 -25.206728 
L 395.938983 -25.62001 
L 397.641356 -26.409029 
L 399.343729 -26.916561 
L 401.046102 -25.813403 
L 402.748475 -25.89006 
L 404.450847 -27.549299 
L 406.15322 -28.807223 
L 407.855593 -31.219929 
L 409.557966 -30.594101 
L 411.260339 -29.896719 
L 412.962712 -32.008565 
L 414.665085 -31.680382 
L 416.367458 -31.287658 
L 418.069831 -34.523547 
L 419.772203 -38.008251 
L 421.474576 -36.173783 
L 423.176949 -37.85113 
L 424.879322 -33.094016 
L 426.581695 -36.582235 
L 428.284068 -29.226058 
L 429.986441 -35.252656 
L 431.688814 -57.350116 
L 433.391186 -68.376438 
L 435.093559 -63.3274 
L 436.795932 -54.683509 
L 438.498305 -51.980871 
L 440.200678 -45.715588 
L 441.903051 -41.658149 
L 443.605424 -34.90737 
L 445.307797 -34.481201 
L 447.010169 -33.140397 
L 448.712542 -37.48385 
L 450.414915 -35.670771 
L 452.117288 -31.991043 
L 453.819661 -30.548039 
L 455.522034 -25.769801 
L 457.224407 -26.562985 
L 458.92678 -26.921325 
L 460.629153 -29.548564 
L 462.331525 -29.554658 
L 464.033898 -28.915922 
L 465.736271 -26.558923 
L 467.438644 -25.107806 
L 469.141017 -24.808654 
L 470.84339 -25.065815 
L 472.545763 -24.563806 
L 474.248136 -24.362615 
L 475.950508 -24.523068 
L 477.652881 -23.76 
L 479.355254 -24.283676 
L 481.057627 -24.058216 
L 482.76 -24.345044 
L 484.462373 -24.543639 
L 486.164746 -24.703684 
L 487.867119 -25.127729 
L 489.569492 -25.087599 
L 491.271864 -26.540992 
L 492.974237 -27.753283 
L 494.67661 -29.385904 
L 496.378983 -26.887054 
L 498.081356 -27.06363 
L 499.783729 -26.96427 
L 501.486102 -26.445685 
L 503.188475 -26.796084 
L 504.890847 -26.036673 
L 506.59322 -27.30358 
L 508.295593 -26.681679 
L 509.997966 -25.962306 
L 511.700339 -25.72222 
L 513.402712 -25.988584 
L 515.105085 -24.438888 
L 516.807458 -25.229314 
L 518.509831 -25.144485 
L 520.212203 -25.478666 
L 521.914576 -25.342404 
L 523.616949 -25.870968 
L 525.319322 -26.367519 
L 527.021695 -26.108111 
L 528.724068 -25.74505 
L 530.426441 -25.507337 
L 532.128814 -25.856561 
L 533.831186 -25.219692 
L 535.533559 -24.496475 
L 537.235932 -25.374717 
L 538.938305 -26.540175 
L 540.640678 -26.471647 
L 542.343051 -26.345533 
L 544.045424 -26.696433 
L 545.747797 -26.519175 
L 547.450169 -26.975865 
L 549.152542 -26.858923 
L 550.854915 -27.223624 
L 552.557288 -29.194588 
L 554.259661 -30.545874 
L 555.962034 -27.423929 
L 557.664407 -29.318394 
L 559.36678 -30.831609 
L 561.069153 -34.029552 
L 562.771525 -30.016515 
L 564.473898 -28.134819 
L 566.176271 -28.049567 
L 567.878644 -27.600368 
L 569.581017 -28.011197 
L 571.28339 -26.130115 
L 572.985763 -28.77236 
L 574.688136 -26.247598 
L 576.390508 -25.561609 
L 578.092881 -24.756631 
L 579.795254 -24.832059 
L 581.497627 -25.271167 
L 583.2 -27.085295 
L 583.2 -32.340224 
L 583.2 -32.340224 
L 581.497627 -27.630908 
L 579.795254 -26.668619 
L 578.092881 -26.230087 
L 576.390508 -31.864418 
L 574.688136 -33.669194 
L 572.985763 -37.795491 
L 571.28339 -32.66447 
L 569.581017 -39.672927 
L 567.878644 -37.751239 
L 566.176271 -35.673948 
L 564.473898 -32.720117 
L 562.771525 -38.93511 
L 561.069153 -51.059218 
L 559.36678 -38.387223 
L 557.664407 -35.634283 
L 555.962034 -32.643544 
L 554.259661 -38.795913 
L 552.557288 -39.684277 
L 550.854915 -34.634026 
L 549.152542 -31.337674 
L 547.450169 -30.775101 
L 545.747797 -30.304659 
L 544.045424 -30.854685 
L 542.343051 -32.460413 
L 540.640678 -35.335752 
L 538.938305 -36.695236 
L 537.235932 -27.731636 
L 535.533559 -25.663122 
L 533.831186 -26.790644 
L 532.128814 -30.035604 
L 530.426441 -28.921287 
L 528.724068 -28.241618 
L 527.021695 -30.624802 
L 525.319322 -31.035222 
L 523.616949 -29.792451 
L 521.914576 -27.059513 
L 520.212203 -27.431647 
L 518.509831 -26.051714 
L 516.807458 -26.339531 
L 515.105085 -25.198747 
L 513.402712 -29.265197 
L 511.700339 -27.937708 
L 509.997966 -31.149106 
L 508.295593 -30.304895 
L 506.59322 -30.470967 
L 504.890847 -28.084224 
L 503.188475 -30.308972 
L 501.486102 -28.90752 
L 499.783729 -30.431821 
L 498.081356 -33.412667 
L 496.378983 -29.854736 
L 494.67661 -34.877776 
L 492.974237 -33.037577 
L 491.271864 -30.218134 
L 489.569492 -28.916803 
L 487.867119 -28.116048 
L 486.164746 -27.50374 
L 484.462373 -26.574366 
L 482.76 -25.612817 
L 481.057627 -25.638065 
L 479.355254 -28.543575 
L 477.652881 -28.49797 
L 475.950508 -28.984753 
L 474.248136 -31.317625 
L 472.545763 -26.032673 
L 470.84339 -26.379298 
L 469.141017 -26.669077 
L 467.438644 -27.245395 
L 465.736271 -30.334627 
L 464.033898 -39.415652 
L 462.331525 -42.315322 
L 460.629153 -41.9428 
L 458.92678 -38.104305 
L 457.224407 -30.750318 
L 455.522034 -29.494518 
L 453.819661 -77.02963 
L 452.117288 -108.662941 
L 450.414915 -132.934834 
L 448.712542 -134.440767 
L 447.010169 -126.326065 
L 445.307797 -81.568741 
L 443.605424 -60.25596 
L 441.903051 -90.547326 
L 440.200678 -86.636984 
L 438.498305 -104.777849 
L 436.795932 -129.4766 
L 435.093559 -166.728553 
L 433.391186 -190.08 
L 431.688814 -128.755588 
L 429.986441 -48.937062 
L 428.284068 -38.17885 
L 426.581695 -91.049517 
L 424.879322 -56.956784 
L 423.176949 -60.414319 
L 421.474576 -63.816348 
L 419.772203 -62.264552 
L 418.069831 -46.546868 
L 416.367458 -38.430517 
L 414.665085 -43.34131 
L 412.962712 -52.346997 
L 411.260339 -42.958907 
L 409.557966 -43.174482 
L 407.855593 -44.599945 
L 406.15322 -40.987436 
L 404.450847 -38.814025 
L 402.748475 -36.620547 
L 401.046102 -36.497662 
L 399.343729 -37.572318 
L 397.641356 -36.942039 
L 395.938983 -31.081909 
L 394.23661 -28.932728 
L 392.534237 -28.09497 
L 390.831864 -29.284274 
L 389.129492 -28.884122 
L 387.427119 -30.583065 
L 385.724746 -31.400048 
L 384.022373 -31.811904 
L 382.32 -30.088659 
L 380.617627 -31.383831 
L 378.915254 -36.344579 
L 377.212881 -33.506143 
L 375.510508 -36.547255 
L 373.808136 -29.243215 
L 372.105763 -28.462811 
L 370.40339 -28.153927 
L 368.701017 -27.97265 
L 366.998644 -26.285781 
L 365.296271 -26.387319 
L 363.593898 -26.036752 
L 361.891525 -24.526885 
L 360.189153 -26.342113 
L 358.48678 -26.744114 
L 356.784407 -27.961304 
L 355.082034 -28.849676 
L 353.379661 -31.780853 
L 351.677288 -29.031212 
L 349.974915 -34.795017 
L 348.272542 -32.166054 
L 346.570169 -32.400329 
L 344.867797 -35.027182 
L 343.165424 -32.721884 
L 341.463051 -30.47711 
L 339.760678 -29.478612 
L 338.058305 -29.298883 
L 336.355932 -33.901371 
L 334.653559 -30.183089 
L 332.951186 -27.217916 
L 331.248814 -29.79345 
L 329.546441 -31.24692 
L 327.844068 -33.357374 
L 326.141695 -31.19702 
L 324.439322 -31.086629 
L 322.736949 -32.389989 
L 321.034576 -28.200573 
L 319.332203 -28.528439 
L 317.629831 -29.177701 
L 315.927458 -27.996753 
L 314.225085 -31.28387 
L 312.522712 -28.947582 
L 310.820339 -28.245936 
L 309.117966 -27.602182 
L 307.415593 -25.727516 
L 305.71322 -25.495456 
L 304.010847 -25.199257 
L 302.308475 -25.827267 
L 300.606102 -27.36235 
L 298.903729 -28.32739 
L 297.201356 -27.250013 
L 295.498983 -28.412321 
L 293.79661 -30.232099 
L 292.094237 -31.436204 
L 290.391864 -27.855851 
L 288.689492 -27.051285 
L 286.987119 -29.91053 
L 285.284746 -36.792068 
L 283.582373 -36.764977 
L 281.88 -33.381882 
L 280.177627 -30.943219 
L 278.475254 -29.258561 
L 276.772881 -29.688851 
L 275.070508 -28.391141 
L 273.368136 -29.51462 
L 271.665763 -32.693958 
L 269.96339 -29.113258 
L 268.261017 -36.386896 
L 266.558644 -34.281227 
L 264.856271 -37.070925 
L 263.153898 -38.706249 
L 261.451525 -40.477835 
L 259.749153 -36.32642 
L 258.04678 -33.583951 
L 256.344407 -36.522599 
L 254.642034 -40.18809 
L 252.939661 -50.171658 
L 251.237288 -50.955201 
L 249.534915 -45.626843 
L 247.832542 -45.394853 
L 246.130169 -39.242209 
L 244.427797 -33.258621 
L 242.725424 -32.238851 
L 241.023051 -37.86885 
L 239.320678 -39.144555 
L 237.618305 -41.194661 
L 235.915932 -35.862847 
L 234.213559 -43.54036 
L 232.511186 -39.805699 
L 230.808814 -31.54966 
L 229.106441 -34.853938 
L 227.404068 -33.520727 
L 225.701695 -74.819276 
L 223.999322 -54.723501 
L 222.296949 -47.32829 
L 220.594576 -56.36081 
L 218.892203 -51.137098 
L 217.189831 -52.721272 
L 215.487458 -40.366799 
L 213.785085 -48.234889 
L 212.082712 -61.153514 
L 210.380339 -88.114549 
L 208.677966 -113.677358 
L 206.975593 -137.524235 
L 205.27322 -139.719461 
L 203.570847 -47.118888 
L 201.868475 -43.918624 
L 200.166102 -44.682054 
L 198.463729 -58.208518 
L 196.761356 -42.117707 
L 195.058983 -132.076584 
L 193.35661 -117.596234 
L 191.654237 -118.258329 
L 189.951864 -75.551018 
L 188.249492 -87.956743 
L 186.547119 -85.030019 
L 184.844746 -73.792157 
L 183.142373 -49.737996 
L 181.44 -37.583828 
L 179.737627 -32.951626 
L 178.035254 -28.434903 
L 176.332881 -27.644241 
L 174.630508 -26.381633 
L 172.928136 -27.388759 
L 171.225763 -30.89893 
L 169.52339 -42.327692 
L 167.821017 -46.400258 
L 166.118644 -39.991045 
L 164.416271 -38.721087 
L 162.713898 -34.660036 
L 161.011525 -30.283865 
L 159.309153 -27.910986 
L 157.60678 -28.365303 
L 155.904407 -32.98019 
L 154.202034 -33.950834 
L 152.499661 -39.528795 
L 150.797288 -49.919616 
L 149.094915 -42.568547 
L 147.392542 -36.917859 
L 145.690169 -31.797521 
L 143.987797 -32.850271 
L 142.285424 -39.009005 
L 140.583051 -41.812 
L 138.880678 -40.182109 
L 137.178305 -46.588079 
L 135.475932 -30.044175 
L 133.773559 -32.001253 
L 132.071186 -35.064106 
L 130.368814 -32.50425 
L 128.666441 -33.399834 
L 126.964068 -30.580605 
L 125.261695 -33.123962 
L 123.559322 -32.013468 
L 121.856949 -32.783791 
L 120.154576 -36.178241 
L 118.452203 -38.740711 
L 116.749831 -37.785449 
L 115.047458 -36.905024 
L 113.345085 -33.935485 
L 111.642712 -37.495342 
L 109.940339 -35.651842 
L 108.237966 -33.298464 
L 106.535593 -35.022241 
L 104.83322 -36.512213 
L 103.130847 -33.781589 
L 101.428475 -36.780514 
L 99.726102 -31.776027 
L 98.023729 -31.036894 
L 96.321356 -32.09402 
L 94.618983 -30.103685 
L 92.91661 -31.158072 
L 91.214237 -33.961651 
L 89.511864 -38.806649 
L 87.809492 -40.026608 
L 86.107119 -65.65032 
L 84.404746 -50.667513 
L 82.702373 -57.416022 
L 81 -44.312565 
z
" id="m10b6779599" style="stroke:#0000ff;stroke-opacity:0.3;"/>
    </defs>
    <g clip-path="url(#p3c44955748)">
     <use style="fill:#0000ff;fill-opacity:0.3;stroke:#0000ff;stroke-opacity:0.3;" x="0" xlink:href="#m10b6779599" y="216"/>
    </g>
   </g>
   <g id="matplotlib.axis_1">
    <g id="xtick_1">
     <g id="line2d_1">
      <defs>
       <path d="M 0 0 
L 0 3.5 
" id="me075c3c846" style="stroke:#000000;stroke-width:0.8;"/>
      </defs>
      <g>
       <use style="stroke:#000000;stroke-width:0.8;" x="162.62878" xlink:href="#me075c3c846" y="192.24"/>
      </g>
     </g>
     <g id="text_1">
      <!-- 0.0 -->
      <defs>
       <path d="M 31.78125 66.40625 
Q 24.171875 66.40625 20.328125 58.90625 
Q 16.5 51.421875 16.5 36.375 
Q 16.5 21.390625 20.328125 13.890625 
Q 24.171875 6.390625 31.78125 6.390625 
Q 39.453125 6.390625 43.28125 13.890625 
Q 47.125 21.390625 47.125 36.375 
Q 47.125 51.421875 43.28125 58.90625 
Q 39.453125 66.40625 31.78125 66.40625 
z
M 31.78125 74.21875 
Q 44.046875 74.21875 50.515625 64.515625 
Q 56.984375 54.828125 56.984375 36.375 
Q 56.984375 17.96875 50.515625 8.265625 
Q 44.046875 -1.421875 31.78125 -1.421875 
Q 19.53125 -1.421875 13.0625 8.265625 
Q 6.59375 17.96875 6.59375 36.375 
Q 6.59375 54.828125 13.0625 64.515625 
Q 19.53125 74.21875 31.78125 74.21875 
z
" id="DejaVuSans-48"/>
       <path d="M 10.6875 12.40625 
L 21 12.40625 
L 21 0 
L 10.6875 0 
z
" id="DejaVuSans-46"/>
      </defs>
      <g transform="translate(153.086905 208.358125)scale(0.12 -0.12)">
       <use xlink:href="#DejaVuSans-48"/>
       <use x="63.623047" xlink:href="#DejaVuSans-46"/>
       <use x="95.410156" xlink:href="#DejaVuSans-48"/>
      </g>
     </g>
    </g>
    <g id="xtick_2">
     <g id="line2d_2">
      <g>
       <use style="stroke:#000000;stroke-width:0.8;" x="247.747424" xlink:href="#me075c3c846" y="192.24"/>
      </g>
     </g>
     <g id="text_2">
      <!-- 0.5 -->
      <defs>
       <path d="M 10.796875 72.90625 
L 49.515625 72.90625 
L 49.515625 64.59375 
L 19.828125 64.59375 
L 19.828125 46.734375 
Q 21.96875 47.46875 24.109375 47.828125 
Q 26.265625 48.1875 28.421875 48.1875 
Q 40.625 48.1875 47.75 41.5 
Q 54.890625 34.8125 54.890625 23.390625 
Q 54.890625 11.625 47.5625 5.09375 
Q 40.234375 -1.421875 26.90625 -1.421875 
Q 22.3125 -1.421875 17.546875 -0.640625 
Q 12.796875 0.140625 7.71875 1.703125 
L 7.71875 11.625 
Q 12.109375 9.234375 16.796875 8.0625 
Q 21.484375 6.890625 26.703125 6.890625 
Q 35.15625 6.890625 40.078125 11.328125 
Q 45.015625 15.765625 45.015625 23.390625 
Q 45.015625 31 40.078125 35.4375 
Q 35.15625 39.890625 26.703125 39.890625 
Q 22.75 39.890625 18.8125 39.015625 
Q 14.890625 38.140625 10.796875 36.28125 
z
" id="DejaVuSans-53"/>
      </defs>
      <g transform="translate(238.205549 208.358125)scale(0.12 -0.12)">
       <use xlink:href="#DejaVuSans-48"/>
       <use x="63.623047" xlink:href="#DejaVuSans-46"/>
       <use x="95.410156" xlink:href="#DejaVuSans-53"/>
      </g>
     </g>
    </g>
    <g id="xtick_3">
     <g id="line2d_3">
      <g>
       <use style="stroke:#000000;stroke-width:0.8;" x="332.866068" xlink:href="#me075c3c846" y="192.24"/>
      </g>
     </g>
     <g id="text_3">
      <!-- 1.0 -->
      <defs>
       <path d="M 12.40625 8.296875 
L 28.515625 8.296875 
L 28.515625 63.921875 
L 10.984375 60.40625 
L 10.984375 69.390625 
L 28.421875 72.90625 
L 38.28125 72.90625 
L 38.28125 8.296875 
L 54.390625 8.296875 
L 54.390625 0 
L 12.40625 0 
z
" id="DejaVuSans-49"/>
      </defs>
      <g transform="translate(323.324193 208.358125)scale(0.12 -0.12)">
       <use xlink:href="#DejaVuSans-49"/>
       <use x="63.623047" xlink:href="#DejaVuSans-46"/>
       <use x="95.410156" xlink:href="#DejaVuSans-48"/>
      </g>
     </g>
    </g>
    <g id="xtick_4">
     <g id="line2d_4">
      <g>
       <use style="stroke:#000000;stroke-width:0.8;" x="417.984712" xlink:href="#me075c3c846" y="192.24"/>
      </g>
     </g>
     <g id="text_4">
      <!-- 1.5 -->
      <g transform="translate(408.442837 208.358125)scale(0.12 -0.12)">
       <use xlink:href="#DejaVuSans-49"/>
       <use x="63.623047" xlink:href="#DejaVuSans-46"/>
       <use x="95.410156" xlink:href="#DejaVuSans-53"/>
      </g>
     </g>
    </g>
    <g id="xtick_5">
     <g id="line2d_5">
      <g>
       <use style="stroke:#000000;stroke-width:0.8;" x="503.103356" xlink:href="#me075c3c846" y="192.24"/>
      </g>
     </g>
     <g id="text_5">
      <!-- 2.0 -->
      <defs>
       <path d="M 19.1875 8.296875 
L 53.609375 8.296875 
L 53.609375 0 
L 7.328125 0 
L 7.328125 8.296875 
Q 12.9375 14.109375 22.625 23.890625 
Q 32.328125 33.6875 34.8125 36.53125 
Q 39.546875 41.84375 41.421875 45.53125 
Q 43.3125 49.21875 43.3125 52.78125 
Q 43.3125 58.59375 39.234375 62.25 
Q 35.15625 65.921875 28.609375 65.921875 
Q 23.96875 65.921875 18.8125 64.3125 
Q 13.671875 62.703125 7.8125 59.421875 
L 7.8125 69.390625 
Q 13.765625 71.78125 18.9375 73 
Q 24.125 74.21875 28.421875 74.21875 
Q 39.75 74.21875 46.484375 68.546875 
Q 53.21875 62.890625 53.21875 53.421875 
Q 53.21875 48.921875 51.53125 44.890625 
Q 49.859375 40.875 45.40625 35.40625 
Q 44.1875 33.984375 37.640625 27.21875 
Q 31.109375 20.453125 19.1875 8.296875 
z
" id="DejaVuSans-50"/>
      </defs>
      <g transform="translate(493.561481 208.358125)scale(0.12 -0.12)">
       <use xlink:href="#DejaVuSans-50"/>
       <use x="63.623047" xlink:href="#DejaVuSans-46"/>
       <use x="95.410156" xlink:href="#DejaVuSans-48"/>
      </g>
     </g>
    </g>
    <g id="text_6">
     <!-- Time (s) -->
     <defs>
      <path d="M -0.296875 72.90625 
L 61.375 72.90625 
L 61.375 64.59375 
L 35.5 64.59375 
L 35.5 0 
L 25.59375 0 
L 25.59375 64.59375 
L -0.296875 64.59375 
z
" id="DejaVuSans-84"/>
      <path d="M 9.421875 54.6875 
L 18.40625 54.6875 
L 18.40625 0 
L 9.421875 0 
z
M 9.421875 75.984375 
L 18.40625 75.984375 
L 18.40625 64.59375 
L 9.421875 64.59375 
z
" id="DejaVuSans-105"/>
      <path d="M 52 44.1875 
Q 55.375 50.25 60.0625 53.125 
Q 64.75 56 71.09375 56 
Q 79.640625 56 84.28125 50.015625 
Q 88.921875 44.046875 88.921875 33.015625 
L 88.921875 0 
L 79.890625 0 
L 79.890625 32.71875 
Q 79.890625 40.578125 77.09375 44.375 
Q 74.3125 48.1875 68.609375 48.1875 
Q 61.625 48.1875 57.5625 43.546875 
Q 53.515625 38.921875 53.515625 30.90625 
L 53.515625 0 
L 44.484375 0 
L 44.484375 32.71875 
Q 44.484375 40.625 41.703125 44.40625 
Q 38.921875 48.1875 33.109375 48.1875 
Q 26.21875 48.1875 22.15625 43.53125 
Q 18.109375 38.875 18.109375 30.90625 
L 18.109375 0 
L 9.078125 0 
L 9.078125 54.6875 
L 18.109375 54.6875 
L 18.109375 46.1875 
Q 21.1875 51.21875 25.484375 53.609375 
Q 29.78125 56 35.6875 56 
Q 41.65625 56 45.828125 52.96875 
Q 50 49.953125 52 44.1875 
z
" id="DejaVuSans-109"/>
      <path d="M 56.203125 29.59375 
L 56.203125 25.203125 
L 14.890625 25.203125 
Q 15.484375 15.921875 20.484375 11.0625 
Q 25.484375 6.203125 34.421875 6.203125 
Q 39.59375 6.203125 44.453125 7.46875 
Q 49.3125 8.734375 54.109375 11.28125 
L 54.109375 2.78125 
Q 49.265625 0.734375 44.1875 -0.34375 
Q 39.109375 -1.421875 33.890625 -1.421875 
Q 20.796875 -1.421875 13.15625 6.1875 
Q 5.515625 13.8125 5.515625 26.8125 
Q 5.515625 40.234375 12.765625 48.109375 
Q 20.015625 56 32.328125 56 
Q 43.359375 56 49.78125 48.890625 
Q 56.203125 41.796875 56.203125 29.59375 
z
M 47.21875 32.234375 
Q 47.125 39.59375 43.09375 43.984375 
Q 39.0625 48.390625 32.421875 48.390625 
Q 24.90625 48.390625 20.390625 44.140625 
Q 15.875 39.890625 15.1875 32.171875 
z
" id="DejaVuSans-101"/>
      <path id="DejaVuSans-32"/>
      <path d="M 31 75.875 
Q 24.46875 64.65625 21.28125 53.65625 
Q 18.109375 42.671875 18.109375 31.390625 
Q 18.109375 20.125 21.3125 9.0625 
Q 24.515625 -2 31 -13.1875 
L 23.1875 -13.1875 
Q 15.875 -1.703125 12.234375 9.375 
Q 8.59375 20.453125 8.59375 31.390625 
Q 8.59375 42.28125 12.203125 53.3125 
Q 15.828125 64.359375 23.1875 75.875 
z
" id="DejaVuSans-40"/>
      <path d="M 44.28125 53.078125 
L 44.28125 44.578125 
Q 40.484375 46.53125 36.375 47.5 
Q 32.28125 48.484375 27.875 48.484375 
Q 21.1875 48.484375 17.84375 46.4375 
Q 14.5 44.390625 14.5 40.28125 
Q 14.5 37.15625 16.890625 35.375 
Q 19.28125 33.59375 26.515625 31.984375 
L 29.59375 31.296875 
Q 39.15625 29.25 43.1875 25.515625 
Q 47.21875 21.78125 47.21875 15.09375 
Q 47.21875 7.46875 41.1875 3.015625 
Q 35.15625 -1.421875 24.609375 -1.421875 
Q 20.21875 -1.421875 15.453125 -0.5625 
Q 10.6875 0.296875 5.421875 2 
L 5.421875 11.28125 
Q 10.40625 8.6875 15.234375 7.390625 
Q 20.0625 6.109375 24.8125 6.109375 
Q 31.15625 6.109375 34.5625 8.28125 
Q 37.984375 10.453125 37.984375 14.40625 
Q 37.984375 18.0625 35.515625 20.015625 
Q 33.0625 21.96875 24.703125 23.78125 
L 21.578125 24.515625 
Q 13.234375 26.265625 9.515625 29.90625 
Q 5.8125 33.546875 5.8125 39.890625 
Q 5.8125 47.609375 11.28125 51.796875 
Q 16.75 56 26.8125 56 
Q 31.78125 56 36.171875 55.265625 
Q 40.578125 54.546875 44.28125 53.078125 
z
" id="DejaVuSans-115"/>
      <path d="M 8.015625 75.875 
L 15.828125 75.875 
Q 23.140625 64.359375 26.78125 53.3125 
Q 30.421875 42.28125 30.421875 31.390625 
Q 30.421875 20.453125 26.78125 9.375 
Q 23.140625 -1.703125 15.828125 -13.1875 
L 8.015625 -13.1875 
Q 14.5 -2 17.703125 9.0625 
Q 20.90625 20.125 20.90625 31.390625 
Q 20.90625 42.671875 17.703125 53.65625 
Q 14.5 64.65625 8.015625 75.875 
z
" id="DejaVuSans-41"/>
     </defs>
     <g transform="translate(302.60475 225.7955)scale(0.144 -0.144)">
      <use xlink:href="#DejaVuSans-84"/>
      <use x="61.037109" xlink:href="#DejaVuSans-105"/>
      <use x="88.820312" xlink:href="#DejaVuSans-109"/>
      <use x="186.232422" xlink:href="#DejaVuSans-101"/>
      <use x="247.755859" xlink:href="#DejaVuSans-32"/>
      <use x="279.542969" xlink:href="#DejaVuSans-40"/>
      <use x="318.556641" xlink:href="#DejaVuSans-115"/>
      <use x="370.65625" xlink:href="#DejaVuSans-41"/>
     </g>
    </g>
   </g>
   <g id="matplotlib.axis_2">
    <g id="ytick_1">
     <g id="line2d_6">
      <defs>
       <path d="M 0 0 
L -3.5 0 
" id="m221b62027c" style="stroke:#000000;stroke-width:0.8;"/>
      </defs>
      <g>
       <use style="stroke:#000000;stroke-width:0.8;" x="81" xlink:href="#m221b62027c" y="171.936482"/>
      </g>
     </g>
     <g id="text_7">
      <!-- 0.02 -->
      <g transform="translate(47.28125 176.495544)scale(0.12 -0.12)">
       <use xlink:href="#DejaVuSans-48"/>
       <use x="63.623047" xlink:href="#DejaVuSans-46"/>
       <use x="95.410156" xlink:href="#DejaVuSans-48"/>
       <use x="159.033203" xlink:href="#DejaVuSans-50"/>
      </g>
     </g>
    </g>
    <g id="ytick_2">
     <g id="line2d_7">
      <g>
       <use style="stroke:#000000;stroke-width:0.8;" x="81" xlink:href="#m221b62027c" y="150.786591"/>
      </g>
     </g>
     <g id="text_8">
      <!-- 0.04 -->
      <defs>
       <path d="M 37.796875 64.3125 
L 12.890625 25.390625 
L 37.796875 25.390625 
z
M 35.203125 72.90625 
L 47.609375 72.90625 
L 47.609375 25.390625 
L 58.015625 25.390625 
L 58.015625 17.1875 
L 47.609375 17.1875 
L 47.609375 0 
L 37.796875 0 
L 37.796875 17.1875 
L 4.890625 17.1875 
L 4.890625 26.703125 
z
" id="DejaVuSans-52"/>
      </defs>
      <g transform="translate(47.28125 155.345653)scale(0.12 -0.12)">
       <use xlink:href="#DejaVuSans-48"/>
       <use x="63.623047" xlink:href="#DejaVuSans-46"/>
       <use x="95.410156" xlink:href="#DejaVuSans-48"/>
       <use x="159.033203" xlink:href="#DejaVuSans-52"/>
      </g>
     </g>
    </g>
    <g id="ytick_3">
     <g id="line2d_8">
      <g>
       <use style="stroke:#000000;stroke-width:0.8;" x="81" xlink:href="#m221b62027c" y="129.6367"/>
      </g>
     </g>
     <g id="text_9">
      <!-- 0.06 -->
      <defs>
       <path d="M 33.015625 40.375 
Q 26.375 40.375 22.484375 35.828125 
Q 18.609375 31.296875 18.609375 23.390625 
Q 18.609375 15.53125 22.484375 10.953125 
Q 26.375 6.390625 33.015625 6.390625 
Q 39.65625 6.390625 43.53125 10.953125 
Q 47.40625 15.53125 47.40625 23.390625 
Q 47.40625 31.296875 43.53125 35.828125 
Q 39.65625 40.375 33.015625 40.375 
z
M 52.59375 71.296875 
L 52.59375 62.3125 
Q 48.875 64.0625 45.09375 64.984375 
Q 41.3125 65.921875 37.59375 65.921875 
Q 27.828125 65.921875 22.671875 59.328125 
Q 17.53125 52.734375 16.796875 39.40625 
Q 19.671875 43.65625 24.015625 45.921875 
Q 28.375 48.1875 33.59375 48.1875 
Q 44.578125 48.1875 50.953125 41.515625 
Q 57.328125 34.859375 57.328125 23.390625 
Q 57.328125 12.15625 50.6875 5.359375 
Q 44.046875 -1.421875 33.015625 -1.421875 
Q 20.359375 -1.421875 13.671875 8.265625 
Q 6.984375 17.96875 6.984375 36.375 
Q 6.984375 53.65625 15.1875 63.9375 
Q 23.390625 74.21875 37.203125 74.21875 
Q 40.921875 74.21875 44.703125 73.484375 
Q 48.484375 72.75 52.59375 71.296875 
z
" id="DejaVuSans-54"/>
      </defs>
      <g transform="translate(47.28125 134.195762)scale(0.12 -0.12)">
       <use xlink:href="#DejaVuSans-48"/>
       <use x="63.623047" xlink:href="#DejaVuSans-46"/>
       <use x="95.410156" xlink:href="#DejaVuSans-48"/>
       <use x="159.033203" xlink:href="#DejaVuSans-54"/>
      </g>
     </g>
    </g>
    <g id="ytick_4">
     <g id="line2d_9">
      <g>
       <use style="stroke:#000000;stroke-width:0.8;" x="81" xlink:href="#m221b62027c" y="108.486809"/>
      </g>
     </g>
     <g id="text_10">
      <!-- 0.08 -->
      <defs>
       <path d="M 31.78125 34.625 
Q 24.75 34.625 20.71875 30.859375 
Q 16.703125 27.09375 16.703125 20.515625 
Q 16.703125 13.921875 20.71875 10.15625 
Q 24.75 6.390625 31.78125 6.390625 
Q 38.8125 6.390625 42.859375 10.171875 
Q 46.921875 13.96875 46.921875 20.515625 
Q 46.921875 27.09375 42.890625 30.859375 
Q 38.875 34.625 31.78125 34.625 
z
M 21.921875 38.8125 
Q 15.578125 40.375 12.03125 44.71875 
Q 8.5 49.078125 8.5 55.328125 
Q 8.5 64.0625 14.71875 69.140625 
Q 20.953125 74.21875 31.78125 74.21875 
Q 42.671875 74.21875 48.875 69.140625 
Q 55.078125 64.0625 55.078125 55.328125 
Q 55.078125 49.078125 51.53125 44.71875 
Q 48 40.375 41.703125 38.8125 
Q 48.828125 37.15625 52.796875 32.3125 
Q 56.78125 27.484375 56.78125 20.515625 
Q 56.78125 9.90625 50.3125 4.234375 
Q 43.84375 -1.421875 31.78125 -1.421875 
Q 19.734375 -1.421875 13.25 4.234375 
Q 6.78125 9.90625 6.78125 20.515625 
Q 6.78125 27.484375 10.78125 32.3125 
Q 14.796875 37.15625 21.921875 38.8125 
z
M 18.3125 54.390625 
Q 18.3125 48.734375 21.84375 45.5625 
Q 25.390625 42.390625 31.78125 42.390625 
Q 38.140625 42.390625 41.71875 45.5625 
Q 45.3125 48.734375 45.3125 54.390625 
Q 45.3125 60.0625 41.71875 63.234375 
Q 38.140625 66.40625 31.78125 66.40625 
Q 25.390625 66.40625 21.84375 63.234375 
Q 18.3125 60.0625 18.3125 54.390625 
z
" id="DejaVuSans-56"/>
      </defs>
      <g transform="translate(47.28125 113.045872)scale(0.12 -0.12)">
       <use xlink:href="#DejaVuSans-48"/>
       <use x="63.623047" xlink:href="#DejaVuSans-46"/>
       <use x="95.410156" xlink:href="#DejaVuSans-48"/>
       <use x="159.033203" xlink:href="#DejaVuSans-56"/>
      </g>
     </g>
    </g>
    <g id="ytick_5">
     <g id="line2d_10">
      <g>
       <use style="stroke:#000000;stroke-width:0.8;" x="81" xlink:href="#m221b62027c" y="87.336918"/>
      </g>
     </g>
     <g id="text_11">
      <!-- 0.10 -->
      <g transform="translate(47.28125 91.895981)scale(0.12 -0.12)">
       <use xlink:href="#DejaVuSans-48"/>
       <use x="63.623047" xlink:href="#DejaVuSans-46"/>
       <use x="95.410156" xlink:href="#DejaVuSans-49"/>
       <use x="159.033203" xlink:href="#DejaVuSans-48"/>
      </g>
     </g>
    </g>
    <g id="ytick_6">
     <g id="line2d_11">
      <g>
       <use style="stroke:#000000;stroke-width:0.8;" x="81" xlink:href="#m221b62027c" y="66.187027"/>
      </g>
     </g>
     <g id="text_12">
      <!-- 0.12 -->
      <g transform="translate(47.28125 70.74609)scale(0.12 -0.12)">
       <use xlink:href="#DejaVuSans-48"/>
       <use x="63.623047" xlink:href="#DejaVuSans-46"/>
       <use x="95.410156" xlink:href="#DejaVuSans-49"/>
       <use x="159.033203" xlink:href="#DejaVuSans-50"/>
      </g>
     </g>
    </g>
    <g id="ytick_7">
     <g id="line2d_12">
      <g>
       <use style="stroke:#000000;stroke-width:0.8;" x="81" xlink:href="#m221b62027c" y="45.037136"/>
      </g>
     </g>
     <g id="text_13">
      <!-- 0.14 -->
      <g transform="translate(47.28125 49.596199)scale(0.12 -0.12)">
       <use xlink:href="#DejaVuSans-48"/>
       <use x="63.623047" xlink:href="#DejaVuSans-46"/>
       <use x="95.410156" xlink:href="#DejaVuSans-49"/>
       <use x="159.033203" xlink:href="#DejaVuSans-52"/>
      </g>
     </g>
    </g>
    <g id="text_14">
     <!-- COMb $p$ -->
     <defs>
      <path d="M 64.40625 67.28125 
L 64.40625 56.890625 
Q 59.421875 61.53125 53.78125 63.8125 
Q 48.140625 66.109375 41.796875 66.109375 
Q 29.296875 66.109375 22.65625 58.46875 
Q 16.015625 50.828125 16.015625 36.375 
Q 16.015625 21.96875 22.65625 14.328125 
Q 29.296875 6.6875 41.796875 6.6875 
Q 48.140625 6.6875 53.78125 8.984375 
Q 59.421875 11.28125 64.40625 15.921875 
L 64.40625 5.609375 
Q 59.234375 2.09375 53.4375 0.328125 
Q 47.65625 -1.421875 41.21875 -1.421875 
Q 24.65625 -1.421875 15.125 8.703125 
Q 5.609375 18.84375 5.609375 36.375 
Q 5.609375 53.953125 15.125 64.078125 
Q 24.65625 74.21875 41.21875 74.21875 
Q 47.75 74.21875 53.53125 72.484375 
Q 59.328125 70.75 64.40625 67.28125 
z
" id="DejaVuSans-67"/>
      <path d="M 39.40625 66.21875 
Q 28.65625 66.21875 22.328125 58.203125 
Q 16.015625 50.203125 16.015625 36.375 
Q 16.015625 22.609375 22.328125 14.59375 
Q 28.65625 6.59375 39.40625 6.59375 
Q 50.140625 6.59375 56.421875 14.59375 
Q 62.703125 22.609375 62.703125 36.375 
Q 62.703125 50.203125 56.421875 58.203125 
Q 50.140625 66.21875 39.40625 66.21875 
z
M 39.40625 74.21875 
Q 54.734375 74.21875 63.90625 63.9375 
Q 73.09375 53.65625 73.09375 36.375 
Q 73.09375 19.140625 63.90625 8.859375 
Q 54.734375 -1.421875 39.40625 -1.421875 
Q 24.03125 -1.421875 14.8125 8.828125 
Q 5.609375 19.09375 5.609375 36.375 
Q 5.609375 53.65625 14.8125 63.9375 
Q 24.03125 74.21875 39.40625 74.21875 
z
" id="DejaVuSans-79"/>
      <path d="M 9.8125 72.90625 
L 24.515625 72.90625 
L 43.109375 23.296875 
L 61.8125 72.90625 
L 76.515625 72.90625 
L 76.515625 0 
L 66.890625 0 
L 66.890625 64.015625 
L 48.09375 14.015625 
L 38.1875 14.015625 
L 19.390625 64.015625 
L 19.390625 0 
L 9.8125 0 
z
" id="DejaVuSans-77"/>
      <path d="M 48.6875 27.296875 
Q 48.6875 37.203125 44.609375 42.84375 
Q 40.53125 48.484375 33.40625 48.484375 
Q 26.265625 48.484375 22.1875 42.84375 
Q 18.109375 37.203125 18.109375 27.296875 
Q 18.109375 17.390625 22.1875 11.75 
Q 26.265625 6.109375 33.40625 6.109375 
Q 40.53125 6.109375 44.609375 11.75 
Q 48.6875 17.390625 48.6875 27.296875 
z
M 18.109375 46.390625 
Q 20.953125 51.265625 25.265625 53.625 
Q 29.59375 56 35.59375 56 
Q 45.5625 56 51.78125 48.09375 
Q 58.015625 40.1875 58.015625 27.296875 
Q 58.015625 14.40625 51.78125 6.484375 
Q 45.5625 -1.421875 35.59375 -1.421875 
Q 29.59375 -1.421875 25.265625 0.953125 
Q 20.953125 3.328125 18.109375 8.203125 
L 18.109375 0 
L 9.078125 0 
L 9.078125 75.984375 
L 18.109375 75.984375 
z
" id="DejaVuSans-98"/>
      <path d="M 49.609375 33.6875 
Q 49.609375 40.875 46.484375 44.671875 
Q 43.359375 48.484375 37.5 48.484375 
Q 33.5 48.484375 29.859375 46.4375 
Q 26.21875 44.390625 23.390625 40.484375 
Q 20.609375 36.625 18.9375 31.15625 
Q 17.28125 25.6875 17.28125 20.3125 
Q 17.28125 13.484375 20.40625 9.796875 
Q 23.53125 6.109375 29.296875 6.109375 
Q 33.546875 6.109375 37.1875 8.109375 
Q 40.828125 10.109375 43.40625 13.921875 
Q 46.1875 17.921875 47.890625 23.34375 
Q 49.609375 28.765625 49.609375 33.6875 
z
M 21.78125 46.390625 
Q 25.390625 51.125 30.296875 53.5625 
Q 35.203125 56 41.21875 56 
Q 49.609375 56 54.25 50.5 
Q 58.890625 45.015625 58.890625 35.109375 
Q 58.890625 27 56 19.65625 
Q 53.125 12.3125 47.703125 6.5 
Q 44.09375 2.640625 39.546875 0.609375 
Q 35.015625 -1.421875 29.984375 -1.421875 
Q 24.171875 -1.421875 20.21875 1 
Q 16.265625 3.421875 14.3125 8.203125 
L 8.6875 -20.796875 
L -0.296875 -20.796875 
L 14.40625 54.6875 
L 23.390625 54.6875 
z
" id="DejaVuSans-Oblique-112"/>
     </defs>
     <g transform="translate(40.25725 137.448)rotate(-90)scale(0.144 -0.144)">
      <use transform="translate(0 0.015625)" xlink:href="#DejaVuSans-67"/>
      <use transform="translate(69.824219 0.015625)" xlink:href="#DejaVuSans-79"/>
      <use transform="translate(148.535156 0.015625)" xlink:href="#DejaVuSans-77"/>
      <use transform="translate(234.814453 0.015625)" xlink:href="#DejaVuSans-98"/>
      <use transform="translate(298.291016 0.015625)" xlink:href="#DejaVuSans-32"/>
      <use transform="translate(330.078125 0.015625)" xlink:href="#DejaVuSans-Oblique-112"/>
     </g>
    </g>
   </g>
   <g id="line2d_13">
    <path clip-path="url(#p3c44955748)" d="M 81 179.725165 
L 82.702373 171.805178 
L 84.404746 176.698205 
L 86.107119 167.364186 
L 87.809492 181.919492 
L 89.511864 182.569781 
L 91.214237 185.225463 
L 92.91661 187.0275 
L 94.618983 187.500306 
L 96.321356 186.578189 
L 98.023729 187.082972 
L 99.726102 186.539764 
L 101.428475 183.892779 
L 103.130847 185.250489 
L 104.83322 182.384513 
L 106.535593 183.146528 
L 108.237966 185.222969 
L 109.940339 182.589212 
L 111.642712 181.259416 
L 113.345085 184.060674 
L 115.047458 182.17084 
L 116.749831 182.034994 
L 118.452203 182.175744 
L 120.154576 184.32493 
L 121.856949 186.101602 
L 123.559322 186.742195 
L 125.261695 185.560662 
L 126.964068 187.628572 
L 128.666441 186.011721 
L 130.368814 186.235364 
L 132.071186 184.584944 
L 133.773559 186.348511 
L 135.475932 187.718803 
L 137.178305 177.512386 
L 138.880678 180.890735 
L 140.583051 179.274379 
L 142.285424 182.087708 
L 143.987797 186.318232 
L 145.690169 186.893538 
L 147.392542 184.415712 
L 150.797288 176.725672 
L 152.499661 181.396361 
L 154.202034 184.815762 
L 155.904407 185.341011 
L 157.60678 188.750426 
L 159.309153 189.329282 
L 161.011525 187.430492 
L 164.416271 182.420559 
L 166.118644 181.715776 
L 167.821017 178.47083 
L 169.52339 180.370972 
L 171.225763 187.37101 
L 172.928136 189.919628 
L 174.630508 190.511774 
L 176.332881 189.525403 
L 178.035254 189.075503 
L 179.737627 186.313082 
L 181.44 183.881008 
L 183.142373 176.173166 
L 184.844746 162.698207 
L 186.547119 156.857649 
L 188.249492 158.309079 
L 189.951864 163.793281 
L 191.654237 139.18849 
L 193.35661 138.393723 
L 195.058983 132.5121 
L 196.761356 179.181336 
L 198.463729 169.522944 
L 200.166102 176.585014 
L 201.868475 176.053834 
L 203.570847 174.521137 
L 205.27322 124.316695 
L 206.975593 126.82106 
L 208.677966 142.669831 
L 212.082712 169.690893 
L 213.785085 177.405012 
L 215.487458 181.078922 
L 217.189831 173.992466 
L 218.892203 174.128941 
L 220.594576 169.409611 
L 222.296949 175.431429 
L 223.999322 172.003821 
L 225.701695 162.362895 
L 227.404068 185.490072 
L 229.106441 184.238242 
L 230.808814 186.261471 
L 232.511186 181.517116 
L 234.213559 179.554499 
L 235.915932 183.693188 
L 237.618305 180.535893 
L 239.320678 181.264884 
L 241.023051 182.208028 
L 242.725424 186.584872 
L 244.427797 185.48783 
L 246.130169 182.025007 
L 247.832542 178.954578 
L 249.534915 178.14574 
L 251.237288 175.545977 
L 252.939661 175.581437 
L 254.642034 181.742525 
L 256.344407 183.554091 
L 258.04678 184.453634 
L 259.749153 182.741068 
L 261.451525 179.706174 
L 263.153898 181.028159 
L 264.856271 182.016059 
L 266.558644 184.165988 
L 268.261017 183.247878 
L 269.96339 188.254737 
L 271.665763 185.698118 
L 273.368136 187.772607 
L 275.070508 188.673236 
L 276.772881 187.817441 
L 278.475254 188.527112 
L 280.177627 187.263294 
L 281.88 185.588263 
L 283.582373 184.24661 
L 285.284746 184.518291 
L 286.987119 188.012052 
L 288.689492 189.905845 
L 290.391864 189.374657 
L 292.094237 187.189982 
L 295.498983 189.151106 
L 297.201356 189.893953 
L 298.903729 189.651348 
L 300.606102 189.990829 
L 302.308475 190.875209 
L 304.010847 191.35063 
L 307.415593 191.089856 
L 309.117966 189.608415 
L 310.820339 189.254595 
L 312.522712 188.678236 
L 314.225085 186.934313 
L 315.927458 188.949966 
L 317.629831 188.503052 
L 319.332203 189.254944 
L 321.034576 189.019696 
L 322.736949 186.449273 
L 324.439322 187.234424 
L 326.141695 187.202389 
L 327.844068 185.57778 
L 329.546441 187.395289 
L 331.248814 188.298992 
L 332.951186 189.831279 
L 334.653559 187.876867 
L 336.355932 185.704418 
L 338.058305 188.278508 
L 339.760678 188.040938 
L 341.463051 187.346884 
L 343.165424 185.666837 
L 344.867797 184.536042 
L 346.570169 185.941263 
L 348.272542 186.294213 
L 349.974915 184.20536 
L 351.677288 188.295818 
L 353.379661 186.594115 
L 355.082034 188.386029 
L 356.784407 189.438322 
L 358.48678 190.188889 
L 360.189153 190.444227 
L 361.891525 191.820244 
L 363.593898 190.750418 
L 365.296271 190.369154 
L 366.998644 190.522977 
L 368.701017 189.211077 
L 372.105763 188.949226 
L 373.808136 188.209395 
L 375.510508 184.081558 
L 377.212881 185.193987 
L 378.915254 183.388306 
L 380.617627 186.810429 
L 382.32 187.499722 
L 384.022373 186.27183 
L 385.724746 186.686754 
L 387.427119 187.412328 
L 389.129492 188.887597 
L 390.831864 188.359494 
L 392.534237 189.04055 
L 394.23661 188.930272 
L 395.938983 187.64904 
L 397.641356 184.324466 
L 399.343729 183.755561 
L 401.046102 184.844468 
L 402.748475 184.744697 
L 404.450847 182.818338 
L 406.15322 181.10267 
L 407.855593 178.090063 
L 409.557966 179.115709 
L 411.260339 179.572187 
L 412.962712 173.822219 
L 414.665085 178.489154 
L 416.367458 181.140912 
L 418.069831 175.464792 
L 419.772203 165.863598 
L 421.474576 166.004934 
L 423.176949 166.867275 
L 424.879322 170.9746 
L 426.581695 152.184124 
L 428.284068 182.297546 
L 429.986441 173.905141 
L 431.688814 122.947148 
L 433.391186 86.771781 
L 435.093559 100.972024 
L 436.795932 123.919946 
L 438.498305 137.62064 
L 440.200678 149.823714 
L 441.903051 149.897262 
L 443.605424 168.418335 
L 445.307797 157.975029 
L 447.010169 136.266769 
L 448.712542 130.037692 
L 450.414915 131.697197 
L 452.117288 145.673008 
L 453.819661 162.211165 
L 455.522034 188.367841 
L 457.224407 187.343348 
L 458.92678 183.487185 
L 460.629153 180.254318 
L 462.331525 180.06501 
L 464.033898 181.834213 
L 465.736271 187.553225 
L 467.438644 189.8234 
L 469.141017 190.261134 
L 470.84339 190.277444 
L 472.545763 190.701761 
L 474.248136 188.15988 
L 475.950508 189.246089 
L 477.652881 189.871015 
L 479.355254 189.586375 
L 481.057627 191.15186 
L 482.76 191.02107 
L 487.867119 189.378112 
L 489.569492 188.997799 
L 491.271864 187.620437 
L 492.974237 185.60457 
L 494.67661 183.86816 
L 496.378983 187.629105 
L 498.081356 185.761852 
L 499.783729 187.301955 
L 501.486102 188.323397 
L 503.188475 187.447472 
L 504.890847 188.939552 
L 506.59322 187.112726 
L 508.295593 187.506713 
L 509.997966 187.444294 
L 511.700339 189.170036 
L 513.402712 188.37311 
L 515.105085 191.181183 
L 516.807458 190.215578 
L 518.509831 190.4019 
L 520.212203 189.544844 
L 521.914576 189.799041 
L 523.616949 188.16829 
L 525.319322 187.298629 
L 527.021695 187.633543 
L 528.724068 189.006666 
L 530.426441 188.785688 
L 532.128814 188.053918 
L 533.831186 189.994832 
L 535.533559 190.920201 
L 537.235932 189.446824 
L 538.938305 184.382294 
L 540.640678 185.096301 
L 542.343051 186.597027 
L 544.045424 187.224441 
L 545.747797 187.588083 
L 547.450169 187.124517 
L 549.152542 186.901702 
L 550.854915 185.071175 
L 552.557288 181.560567 
L 554.259661 181.329107 
L 555.962034 185.966264 
L 557.664407 183.523662 
L 559.36678 181.390584 
L 561.069153 173.455615 
L 562.771525 181.524187 
L 564.473898 185.572532 
L 566.176271 184.138243 
L 567.878644 183.324196 
L 569.581017 182.157938 
L 571.28339 186.602707 
L 572.985763 182.716074 
L 574.688136 186.041604 
L 576.390508 187.286986 
L 578.092881 190.506641 
L 579.795254 190.249661 
L 581.497627 189.548962 
L 583.2 186.287241 
L 583.2 186.287241 
" style="fill:none;stroke:#0000ff;stroke-linecap:square;stroke-width:1.5;"/>
   </g>
   <g id="patch_3">
    <path d="M 81 192.24 
L 81 25.92 
" style="fill:none;stroke:#000000;stroke-linecap:square;stroke-linejoin:miter;stroke-width:0.8;"/>
   </g>
   <g id="patch_4">
    <path d="M 583.2 192.24 
L 583.2 25.92 
" style="fill:none;stroke:#000000;stroke-linecap:square;stroke-linejoin:miter;stroke-width:0.8;"/>
   </g>
   <g id="patch_5">
    <path d="M 81 192.24 
L 583.2 192.24 
" style="fill:none;stroke:#000000;stroke-linecap:square;stroke-linejoin:miter;stroke-width:0.8;"/>
   </g>
   <g id="patch_6">
    <path d="M 81 25.92 
L 583.2 25.92 
" style="fill:none;stroke:#000000;stroke-linecap:square;stroke-linejoin:miter;stroke-width:0.8;"/>
   </g>
   <g id="text_15">
    <!-- Motor cortex, Num Trials=10 All unstimulated trials -->
    <defs>
     <path d="M 30.609375 48.390625 
Q 23.390625 48.390625 19.1875 42.75 
Q 14.984375 37.109375 14.984375 27.296875 
Q 14.984375 17.484375 19.15625 11.84375 
Q 23.34375 6.203125 30.609375 6.203125 
Q 37.796875 6.203125 41.984375 11.859375 
Q 46.1875 17.53125 46.1875 27.296875 
Q 46.1875 37.015625 41.984375 42.703125 
Q 37.796875 48.390625 30.609375 48.390625 
z
M 30.609375 56 
Q 42.328125 56 49.015625 48.375 
Q 55.71875 40.765625 55.71875 27.296875 
Q 55.71875 13.875 49.015625 6.21875 
Q 42.328125 -1.421875 30.609375 -1.421875 
Q 18.84375 -1.421875 12.171875 6.21875 
Q 5.515625 13.875 5.515625 27.296875 
Q 5.515625 40.765625 12.171875 48.375 
Q 18.84375 56 30.609375 56 
z
" id="DejaVuSans-111"/>
     <path d="M 18.3125 70.21875 
L 18.3125 54.6875 
L 36.8125 54.6875 
L 36.8125 47.703125 
L 18.3125 47.703125 
L 18.3125 18.015625 
Q 18.3125 11.328125 20.140625 9.421875 
Q 21.96875 7.515625 27.59375 7.515625 
L 36.8125 7.515625 
L 36.8125 0 
L 27.59375 0 
Q 17.1875 0 13.234375 3.875 
Q 9.28125 7.765625 9.28125 18.015625 
L 9.28125 47.703125 
L 2.6875 47.703125 
L 2.6875 54.6875 
L 9.28125 54.6875 
L 9.28125 70.21875 
z
" id="DejaVuSans-116"/>
     <path d="M 41.109375 46.296875 
Q 39.59375 47.171875 37.8125 47.578125 
Q 36.03125 48 33.890625 48 
Q 26.265625 48 22.1875 43.046875 
Q 18.109375 38.09375 18.109375 28.8125 
L 18.109375 0 
L 9.078125 0 
L 9.078125 54.6875 
L 18.109375 54.6875 
L 18.109375 46.1875 
Q 20.953125 51.171875 25.484375 53.578125 
Q 30.03125 56 36.53125 56 
Q 37.453125 56 38.578125 55.875 
Q 39.703125 55.765625 41.0625 55.515625 
z
" id="DejaVuSans-114"/>
     <path d="M 48.78125 52.59375 
L 48.78125 44.1875 
Q 44.96875 46.296875 41.140625 47.34375 
Q 37.3125 48.390625 33.40625 48.390625 
Q 24.65625 48.390625 19.8125 42.84375 
Q 14.984375 37.3125 14.984375 27.296875 
Q 14.984375 17.28125 19.8125 11.734375 
Q 24.65625 6.203125 33.40625 6.203125 
Q 37.3125 6.203125 41.140625 7.25 
Q 44.96875 8.296875 48.78125 10.40625 
L 48.78125 2.09375 
Q 45.015625 0.34375 40.984375 -0.53125 
Q 36.96875 -1.421875 32.421875 -1.421875 
Q 20.0625 -1.421875 12.78125 6.34375 
Q 5.515625 14.109375 5.515625 27.296875 
Q 5.515625 40.671875 12.859375 48.328125 
Q 20.21875 56 33.015625 56 
Q 37.15625 56 41.109375 55.140625 
Q 45.0625 54.296875 48.78125 52.59375 
z
" id="DejaVuSans-99"/>
     <path d="M 54.890625 54.6875 
L 35.109375 28.078125 
L 55.90625 0 
L 45.3125 0 
L 29.390625 21.484375 
L 13.484375 0 
L 2.875 0 
L 24.125 28.609375 
L 4.6875 54.6875 
L 15.28125 54.6875 
L 29.78125 35.203125 
L 44.28125 54.6875 
z
" id="DejaVuSans-120"/>
     <path d="M 11.71875 12.40625 
L 22.015625 12.40625 
L 22.015625 4 
L 14.015625 -11.625 
L 7.71875 -11.625 
L 11.71875 4 
z
" id="DejaVuSans-44"/>
     <path d="M 9.8125 72.90625 
L 23.09375 72.90625 
L 55.421875 11.921875 
L 55.421875 72.90625 
L 64.984375 72.90625 
L 64.984375 0 
L 51.703125 0 
L 19.390625 60.984375 
L 19.390625 0 
L 9.8125 0 
z
" id="DejaVuSans-78"/>
     <path d="M 8.5 21.578125 
L 8.5 54.6875 
L 17.484375 54.6875 
L 17.484375 21.921875 
Q 17.484375 14.15625 20.5 10.265625 
Q 23.53125 6.390625 29.59375 6.390625 
Q 36.859375 6.390625 41.078125 11.03125 
Q 45.3125 15.671875 45.3125 23.6875 
L 45.3125 54.6875 
L 54.296875 54.6875 
L 54.296875 0 
L 45.3125 0 
L 45.3125 8.40625 
Q 42.046875 3.421875 37.71875 1 
Q 33.40625 -1.421875 27.6875 -1.421875 
Q 18.265625 -1.421875 13.375 4.4375 
Q 8.5 10.296875 8.5 21.578125 
z
M 31.109375 56 
z
" id="DejaVuSans-117"/>
     <path d="M 34.28125 27.484375 
Q 23.390625 27.484375 19.1875 25 
Q 14.984375 22.515625 14.984375 16.5 
Q 14.984375 11.71875 18.140625 8.90625 
Q 21.296875 6.109375 26.703125 6.109375 
Q 34.1875 6.109375 38.703125 11.40625 
Q 43.21875 16.703125 43.21875 25.484375 
L 43.21875 27.484375 
z
M 52.203125 31.203125 
L 52.203125 0 
L 43.21875 0 
L 43.21875 8.296875 
Q 40.140625 3.328125 35.546875 0.953125 
Q 30.953125 -1.421875 24.3125 -1.421875 
Q 15.921875 -1.421875 10.953125 3.296875 
Q 6 8.015625 6 15.921875 
Q 6 25.140625 12.171875 29.828125 
Q 18.359375 34.515625 30.609375 34.515625 
L 43.21875 34.515625 
L 43.21875 35.40625 
Q 43.21875 41.609375 39.140625 45 
Q 35.0625 48.390625 27.6875 48.390625 
Q 23 48.390625 18.546875 47.265625 
Q 14.109375 46.140625 10.015625 43.890625 
L 10.015625 52.203125 
Q 14.9375 54.109375 19.578125 55.046875 
Q 24.21875 56 28.609375 56 
Q 40.484375 56 46.34375 49.84375 
Q 52.203125 43.703125 52.203125 31.203125 
z
" id="DejaVuSans-97"/>
     <path d="M 9.421875 75.984375 
L 18.40625 75.984375 
L 18.40625 0 
L 9.421875 0 
z
" id="DejaVuSans-108"/>
     <path d="M 10.59375 45.40625 
L 73.1875 45.40625 
L 73.1875 37.203125 
L 10.59375 37.203125 
z
M 10.59375 25.484375 
L 73.1875 25.484375 
L 73.1875 17.1875 
L 10.59375 17.1875 
z
" id="DejaVuSans-61"/>
     <path d="M 34.1875 63.1875 
L 20.796875 26.90625 
L 47.609375 26.90625 
z
M 28.609375 72.90625 
L 39.796875 72.90625 
L 67.578125 0 
L 57.328125 0 
L 50.6875 18.703125 
L 17.828125 18.703125 
L 11.1875 0 
L 0.78125 0 
z
" id="DejaVuSans-65"/>
     <path d="M 54.890625 33.015625 
L 54.890625 0 
L 45.90625 0 
L 45.90625 32.71875 
Q 45.90625 40.484375 42.875 44.328125 
Q 39.84375 48.1875 33.796875 48.1875 
Q 26.515625 48.1875 22.3125 43.546875 
Q 18.109375 38.921875 18.109375 30.90625 
L 18.109375 0 
L 9.078125 0 
L 9.078125 54.6875 
L 18.109375 54.6875 
L 18.109375 46.1875 
Q 21.34375 51.125 25.703125 53.5625 
Q 30.078125 56 35.796875 56 
Q 45.21875 56 50.046875 50.171875 
Q 54.890625 44.34375 54.890625 33.015625 
z
" id="DejaVuSans-110"/>
     <path d="M 45.40625 46.390625 
L 45.40625 75.984375 
L 54.390625 75.984375 
L 54.390625 0 
L 45.40625 0 
L 45.40625 8.203125 
Q 42.578125 3.328125 38.25 0.953125 
Q 33.9375 -1.421875 27.875 -1.421875 
Q 17.96875 -1.421875 11.734375 6.484375 
Q 5.515625 14.40625 5.515625 27.296875 
Q 5.515625 40.1875 11.734375 48.09375 
Q 17.96875 56 27.875 56 
Q 33.9375 56 38.25 53.625 
Q 42.578125 51.265625 45.40625 46.390625 
z
M 14.796875 27.296875 
Q 14.796875 17.390625 18.875 11.75 
Q 22.953125 6.109375 30.078125 6.109375 
Q 37.203125 6.109375 41.296875 11.75 
Q 45.40625 17.390625 45.40625 27.296875 
Q 45.40625 37.203125 41.296875 42.84375 
Q 37.203125 48.484375 30.078125 48.484375 
Q 22.953125 48.484375 18.875 42.84375 
Q 14.796875 37.203125 14.796875 27.296875 
z
" id="DejaVuSans-100"/>
    </defs>
    <g transform="translate(177.343125 19.92)scale(0.12 -0.12)">
     <use xlink:href="#DejaVuSans-77"/>
     <use x="86.279297" xlink:href="#DejaVuSans-111"/>
     <use x="147.460938" xlink:href="#DejaVuSans-116"/>
     <use x="186.669922" xlink:href="#DejaVuSans-111"/>
     <use x="247.851562" xlink:href="#DejaVuSans-114"/>
     <use x="288.964844" xlink:href="#DejaVuSans-32"/>
     <use x="320.751953" xlink:href="#DejaVuSans-99"/>
     <use x="375.732422" xlink:href="#DejaVuSans-111"/>
     <use x="436.914062" xlink:href="#DejaVuSans-114"/>
     <use x="478.027344" xlink:href="#DejaVuSans-116"/>
     <use x="517.236328" xlink:href="#DejaVuSans-101"/>
     <use x="578.744141" xlink:href="#DejaVuSans-120"/>
     <use x="637.923828" xlink:href="#DejaVuSans-44"/>
     <use x="669.710938" xlink:href="#DejaVuSans-32"/>
     <use x="701.498047" xlink:href="#DejaVuSans-78"/>
     <use x="776.302734" xlink:href="#DejaVuSans-117"/>
     <use x="839.681641" xlink:href="#DejaVuSans-109"/>
     <use x="937.09375" xlink:href="#DejaVuSans-32"/>
     <use x="968.880859" xlink:href="#DejaVuSans-84"/>
     <use x="1029.746094" xlink:href="#DejaVuSans-114"/>
     <use x="1070.859375" xlink:href="#DejaVuSans-105"/>
     <use x="1098.642578" xlink:href="#DejaVuSans-97"/>
     <use x="1159.921875" xlink:href="#DejaVuSans-108"/>
     <use x="1187.705078" xlink:href="#DejaVuSans-115"/>
     <use x="1239.804688" xlink:href="#DejaVuSans-61"/>
     <use x="1323.59375" xlink:href="#DejaVuSans-49"/>
     <use x="1387.216797" xlink:href="#DejaVuSans-48"/>
     <use x="1450.839844" xlink:href="#DejaVuSans-32"/>
     <use x="1482.626953" xlink:href="#DejaVuSans-65"/>
     <use x="1551.035156" xlink:href="#DejaVuSans-108"/>
     <use x="1578.818359" xlink:href="#DejaVuSans-108"/>
     <use x="1606.601562" xlink:href="#DejaVuSans-32"/>
     <use x="1638.388672" xlink:href="#DejaVuSans-117"/>
     <use x="1701.767578" xlink:href="#DejaVuSans-110"/>
     <use x="1765.146484" xlink:href="#DejaVuSans-115"/>
     <use x="1817.246094" xlink:href="#DejaVuSans-116"/>
     <use x="1856.455078" xlink:href="#DejaVuSans-105"/>
     <use x="1884.238281" xlink:href="#DejaVuSans-109"/>
     <use x="1981.650391" xlink:href="#DejaVuSans-117"/>
     <use x="2045.029297" xlink:href="#DejaVuSans-108"/>
     <use x="2072.8125" xlink:href="#DejaVuSans-97"/>
     <use x="2134.091797" xlink:href="#DejaVuSans-116"/>
     <use x="2173.300781" xlink:href="#DejaVuSans-101"/>
     <use x="2234.824219" xlink:href="#DejaVuSans-100"/>
     <use x="2298.300781" xlink:href="#DejaVuSans-32"/>
     <use x="2330.087891" xlink:href="#DejaVuSans-116"/>
     <use x="2369.296875" xlink:href="#DejaVuSans-114"/>
     <use x="2410.410156" xlink:href="#DejaVuSans-105"/>
     <use x="2438.193359" xlink:href="#DejaVuSans-97"/>
     <use x="2499.472656" xlink:href="#DejaVuSans-108"/>
     <use x="2527.255859" xlink:href="#DejaVuSans-115"/>
    </g>
   </g>
   <g id="legend_1">
    <g id="patch_7">
     <path d="M 440.16 70.77375 
L 574.8 70.77375 
Q 577.2 70.77375 577.2 68.37375 
L 577.2 34.32 
Q 577.2 31.92 574.8 31.92 
L 440.16 31.92 
Q 437.76 31.92 437.76 34.32 
L 437.76 68.37375 
Q 437.76 70.77375 440.16 70.77375 
z
" style="fill:#ffffff;opacity:0.8;stroke:#cccccc;stroke-linejoin:miter;"/>
    </g>
    <g id="line2d_14">
     <path d="M 442.56 41.64 
L 466.56 41.64 
" style="fill:none;stroke:#0000ff;stroke-linecap:square;stroke-width:1.5;"/>
    </g>
    <g id="line2d_15"/>
    <g id="text_16">
     <!-- COM-Binomial $p$ -->
     <defs>
      <path d="M 4.890625 31.390625 
L 31.203125 31.390625 
L 31.203125 23.390625 
L 4.890625 23.390625 
z
" id="DejaVuSans-45"/>
      <path d="M 19.671875 34.8125 
L 19.671875 8.109375 
L 35.5 8.109375 
Q 43.453125 8.109375 47.28125 11.40625 
Q 51.125 14.703125 51.125 21.484375 
Q 51.125 28.328125 47.28125 31.5625 
Q 43.453125 34.8125 35.5 34.8125 
z
M 19.671875 64.796875 
L 19.671875 42.828125 
L 34.28125 42.828125 
Q 41.5 42.828125 45.03125 45.53125 
Q 48.578125 48.25 48.578125 53.8125 
Q 48.578125 59.328125 45.03125 62.0625 
Q 41.5 64.796875 34.28125 64.796875 
z
M 9.8125 72.90625 
L 35.015625 72.90625 
Q 46.296875 72.90625 52.390625 68.21875 
Q 58.5 63.53125 58.5 54.890625 
Q 58.5 48.1875 55.375 44.234375 
Q 52.25 40.28125 46.1875 39.3125 
Q 53.46875 37.75 57.5 32.78125 
Q 61.53125 27.828125 61.53125 20.40625 
Q 61.53125 10.640625 54.890625 5.3125 
Q 48.25 0 35.984375 0 
L 9.8125 0 
z
" id="DejaVuSans-66"/>
     </defs>
     <g transform="translate(476.16 45.84)scale(0.12 -0.12)">
      <use transform="translate(0 0.015625)" xlink:href="#DejaVuSans-67"/>
      <use transform="translate(69.824219 0.015625)" xlink:href="#DejaVuSans-79"/>
      <use transform="translate(148.535156 0.015625)" xlink:href="#DejaVuSans-77"/>
      <use transform="translate(234.814453 0.015625)" xlink:href="#DejaVuSans-45"/>
      <use transform="translate(270.898438 0.015625)" xlink:href="#DejaVuSans-66"/>
      <use transform="translate(339.501953 0.015625)" xlink:href="#DejaVuSans-105"/>
      <use transform="translate(367.285156 0.015625)" xlink:href="#DejaVuSans-110"/>
      <use transform="translate(430.664062 0.015625)" xlink:href="#DejaVuSans-111"/>
      <use transform="translate(491.845703 0.015625)" xlink:href="#DejaVuSans-109"/>
      <use transform="translate(589.257812 0.015625)" xlink:href="#DejaVuSans-105"/>
      <use transform="translate(617.041016 0.015625)" xlink:href="#DejaVuSans-97"/>
      <use transform="translate(678.320312 0.015625)" xlink:href="#DejaVuSans-108"/>
      <use transform="translate(706.103516 0.015625)" xlink:href="#DejaVuSans-32"/>
      <use transform="translate(737.890625 0.015625)" xlink:href="#DejaVuSans-Oblique-112"/>
     </g>
    </g>
    <g id="patch_8">
     <path d="M 442.56 63.478125 
L 466.56 63.478125 
L 466.56 55.078125 
L 442.56 55.078125 
z
" style="fill:#0000ff;opacity:0.3;stroke:#0000ff;stroke-linejoin:miter;"/>
    </g>
    <g id="text_17">
     <!-- Std. Err. -->
     <defs>
      <path d="M 53.515625 70.515625 
L 53.515625 60.890625 
Q 47.90625 63.578125 42.921875 64.890625 
Q 37.9375 66.21875 33.296875 66.21875 
Q 25.25 66.21875 20.875 63.09375 
Q 16.5 59.96875 16.5 54.203125 
Q 16.5 49.359375 19.40625 46.890625 
Q 22.3125 44.4375 30.421875 42.921875 
L 36.375 41.703125 
Q 47.40625 39.59375 52.65625 34.296875 
Q 57.90625 29 57.90625 20.125 
Q 57.90625 9.515625 50.796875 4.046875 
Q 43.703125 -1.421875 29.984375 -1.421875 
Q 24.8125 -1.421875 18.96875 -0.25 
Q 13.140625 0.921875 6.890625 3.21875 
L 6.890625 13.375 
Q 12.890625 10.015625 18.65625 8.296875 
Q 24.421875 6.59375 29.984375 6.59375 
Q 38.421875 6.59375 43.015625 9.90625 
Q 47.609375 13.234375 47.609375 19.390625 
Q 47.609375 24.75 44.3125 27.78125 
Q 41.015625 30.8125 33.5 32.328125 
L 27.484375 33.5 
Q 16.453125 35.6875 11.515625 40.375 
Q 6.59375 45.0625 6.59375 53.421875 
Q 6.59375 63.09375 13.40625 68.65625 
Q 20.21875 74.21875 32.171875 74.21875 
Q 37.3125 74.21875 42.625 73.28125 
Q 47.953125 72.359375 53.515625 70.515625 
z
" id="DejaVuSans-83"/>
      <path d="M 9.8125 72.90625 
L 55.90625 72.90625 
L 55.90625 64.59375 
L 19.671875 64.59375 
L 19.671875 43.015625 
L 54.390625 43.015625 
L 54.390625 34.71875 
L 19.671875 34.71875 
L 19.671875 8.296875 
L 56.78125 8.296875 
L 56.78125 0 
L 9.8125 0 
z
" id="DejaVuSans-69"/>
     </defs>
     <g transform="translate(476.16 63.478125)scale(0.12 -0.12)">
      <use xlink:href="#DejaVuSans-83"/>
      <use x="63.476562" xlink:href="#DejaVuSans-116"/>
      <use x="102.685547" xlink:href="#DejaVuSans-100"/>
      <use x="166.162109" xlink:href="#DejaVuSans-46"/>
      <use x="197.949219" xlink:href="#DejaVuSans-32"/>
      <use x="229.736328" xlink:href="#DejaVuSans-69"/>
      <use x="292.919922" xlink:href="#DejaVuSans-114"/>
      <use x="334.017578" xlink:href="#DejaVuSans-114"/>
      <use x="374.990234" xlink:href="#DejaVuSans-46"/>
     </g>
    </g>
   </g>
  </g>
 </g>
 <defs>
  <clipPath id="p3c44955748">
   <rect height="166.32" width="502.2" x="81" y="25.92"/>
  </clipPath>
 </defs>
</svg>
