<?xml version="1.0" encoding="utf-8" standalone="no"?>
<!DOCTYPE svg PUBLIC "-//W3C//DTD SVG 1.1//EN"
  "http://www.w3.org/Graphics/SVG/1.1/DTD/svg11.dtd">
<!-- Created with matplotlib (https://matplotlib.org/) -->
<svg height="216pt" version="1.1" viewBox="0 0 648 216" width="648pt" xmlns="http://www.w3.org/2000/svg" xmlns:xlink="http://www.w3.org/1999/xlink">
 <defs>
  <style type="text/css">
*{stroke-linecap:butt;stroke-linejoin:round;}
  </style>
 </defs>
 <g id="figure_1">
  <g id="patch_1">
   <path d="M 0 216 
L 648 216 
L 648 0 
L 0 0 
z
" style="fill:#ffffff;"/>
  </g>
  <g id="axes_1">
   <g id="patch_2">
    <path d="M 81 192.24 
L 583.2 192.24 
L 583.2 25.92 
L 81 25.92 
z
" style="fill:#ffffff;"/>
   </g>
   <g id="PolyCollection_1">
    <defs>
     <path d="M 162.62878 -23.76 
L 162.62878 -190.08 
L 417.984712 -190.08 
L 417.984712 -23.76 
L 417.984712 -23.76 
L 162.62878 -23.76 
z
" id="mda3ff2f50f" style="stroke:#808080;stroke-opacity:0.3;"/>
    </defs>
    <g clip-path="url(#p2923f206bb)">
     <use style="fill:#808080;fill-opacity:0.3;stroke:#808080;stroke-opacity:0.3;" x="0" xlink:href="#mda3ff2f50f" y="216"/>
    </g>
   </g>
   <g id="PolyCollection_2">
    <defs>
     <path d="M 81 -69.151658 
L 81 -41.225299 
L 82.702373 -44.50607 
L 84.404746 -45.255327 
L 86.107119 -54.283506 
L 87.809492 -50.467628 
L 89.511864 -42.679665 
L 91.214237 -44.063115 
L 92.91661 -46.496172 
L 94.618983 -53.289273 
L 96.321356 -55.834571 
L 98.023729 -51.018758 
L 99.726102 -60.844658 
L 101.428475 -65.462978 
L 103.130847 -52.009535 
L 104.83322 -46.121503 
L 106.535593 -64.396141 
L 108.237966 -53.793206 
L 109.940339 -52.482053 
L 111.642712 -39.966237 
L 113.345085 -43.474861 
L 115.047458 -55.072419 
L 116.749831 -62.227603 
L 118.452203 -52.261268 
L 120.154576 -65.824785 
L 121.856949 -81.474618 
L 123.559322 -72.321589 
L 125.261695 -70.446514 
L 126.964068 -65.916712 
L 128.666441 -66.831216 
L 130.368814 -62.139984 
L 132.071186 -77.537599 
L 133.773559 -62.801659 
L 135.475932 -61.006026 
L 137.178305 -78.925818 
L 138.880678 -71.75256 
L 140.583051 -60.270329 
L 142.285424 -36.541053 
L 143.987797 -38.549379 
L 145.690169 -46.066147 
L 147.392542 -57.069019 
L 149.094915 -64.331229 
L 150.797288 -64.857425 
L 152.499661 -58.879555 
L 154.202034 -54.450472 
L 155.904407 -71.026499 
L 157.60678 -63.088281 
L 159.309153 -68.762317 
L 161.011525 -54.510351 
L 162.713898 -52.538982 
L 164.416271 -53.276178 
L 166.118644 -54.127247 
L 167.821017 -47.559104 
L 169.52339 -45.630455 
L 171.225763 -48.776409 
L 172.928136 -56.780063 
L 174.630508 -62.035964 
L 176.332881 -69.06671 
L 178.035254 -79.012296 
L 179.737627 -80.366756 
L 181.44 -73.496849 
L 183.142373 -67.153642 
L 184.844746 -61.442866 
L 186.547119 -42.00379 
L 188.249492 -46.315873 
L 189.951864 -62.364905 
L 191.654237 -68.123939 
L 193.35661 -59.534433 
L 195.058983 -51.584052 
L 196.761356 -53.88903 
L 198.463729 -58.215245 
L 200.166102 -50.349987 
L 201.868475 -53.921993 
L 203.570847 -67.018178 
L 205.27322 -55.121278 
L 206.975593 -39.464135 
L 208.677966 -48.829244 
L 210.380339 -55.071459 
L 212.082712 -49.861197 
L 213.785085 -48.897377 
L 215.487458 -49.899889 
L 217.189831 -52.971512 
L 218.892203 -49.02699 
L 220.594576 -51.225054 
L 222.296949 -60.403757 
L 223.999322 -49.680473 
L 225.701695 -47.837055 
L 227.404068 -43.081756 
L 229.106441 -44.653919 
L 230.808814 -40.445571 
L 232.511186 -58.29116 
L 234.213559 -67.691327 
L 235.915932 -76.869 
L 237.618305 -87.287393 
L 239.320678 -71.210226 
L 241.023051 -51.699519 
L 242.725424 -65.235146 
L 244.427797 -48.814978 
L 246.130169 -50.196289 
L 247.832542 -69.799095 
L 249.534915 -72.377877 
L 251.237288 -85.224774 
L 252.939661 -81.220509 
L 254.642034 -62.890827 
L 256.344407 -51.272316 
L 258.04678 -41.629051 
L 259.749153 -35.877766 
L 261.451525 -52.118276 
L 263.153898 -55.213073 
L 264.856271 -44.616969 
L 266.558644 -47.873692 
L 268.261017 -36.574058 
L 269.96339 -40.549072 
L 271.665763 -31.765171 
L 273.368136 -27.895661 
L 275.070508 -27.688771 
L 276.772881 -31.633979 
L 278.475254 -33.695024 
L 280.177627 -27.154166 
L 281.88 -34.372318 
L 283.582373 -42.70214 
L 285.284746 -37.783011 
L 286.987119 -53.941124 
L 288.689492 -61.177823 
L 290.391864 -67.937308 
L 292.094237 -68.585322 
L 293.79661 -64.167567 
L 295.498983 -73.072158 
L 297.201356 -79.370767 
L 298.903729 -72.142755 
L 300.606102 -71.999413 
L 302.308475 -77.086491 
L 304.010847 -74.663342 
L 305.71322 -80.834788 
L 307.415593 -78.256256 
L 309.117966 -65.459553 
L 310.820339 -54.711825 
L 312.522712 -45.733709 
L 314.225085 -40.735983 
L 315.927458 -55.609401 
L 317.629831 -42.633733 
L 319.332203 -37.580909 
L 321.034576 -23.76 
L 322.736949 -29.432752 
L 324.439322 -26.107722 
L 326.141695 -26.281926 
L 327.844068 -40.351992 
L 329.546441 -69.227028 
L 331.248814 -60.623302 
L 332.951186 -72.826054 
L 334.653559 -75.501722 
L 336.355932 -78.798032 
L 338.058305 -63.296012 
L 339.760678 -48.333173 
L 341.463051 -45.166656 
L 343.165424 -41.838466 
L 344.867797 -37.302463 
L 346.570169 -33.364388 
L 348.272542 -34.053121 
L 349.974915 -30.609579 
L 351.677288 -40.753175 
L 353.379661 -36.111979 
L 355.082034 -54.794925 
L 356.784407 -45.31388 
L 358.48678 -44.71861 
L 360.189153 -56.4124 
L 361.891525 -46.314341 
L 363.593898 -48.26379 
L 365.296271 -51.341497 
L 366.998644 -61.569814 
L 368.701017 -58.18932 
L 370.40339 -49.143298 
L 372.105763 -46.514948 
L 373.808136 -50.508711 
L 375.510508 -65.001634 
L 377.212881 -57.259511 
L 378.915254 -65.64965 
L 380.617627 -63.545031 
L 382.32 -60.986421 
L 384.022373 -71.220001 
L 385.724746 -75.907553 
L 387.427119 -67.307695 
L 389.129492 -61.651241 
L 390.831864 -55.626592 
L 392.534237 -62.510004 
L 394.23661 -55.576434 
L 395.938983 -83.230389 
L 397.641356 -96.519844 
L 399.343729 -90.502023 
L 401.046102 -68.257511 
L 402.748475 -66.049053 
L 404.450847 -61.107269 
L 406.15322 -67.171672 
L 407.855593 -89.882388 
L 409.557966 -86.609845 
L 411.260339 -92.641658 
L 412.962712 -83.444546 
L 414.665085 -58.446351 
L 416.367458 -53.669593 
L 418.069831 -78.496976 
L 419.772203 -57.304817 
L 421.474576 -84.260431 
L 423.176949 -80.510554 
L 424.879322 -90.144285 
L 426.581695 -90.976137 
L 428.284068 -80.007434 
L 429.986441 -89.311857 
L 431.688814 -107.385321 
L 433.391186 -106.894777 
L 435.093559 -104.280404 
L 436.795932 -110.082748 
L 438.498305 -89.843429 
L 440.200678 -74.851573 
L 441.903051 -53.813684 
L 443.605424 -54.179839 
L 445.307797 -50.860432 
L 447.010169 -59.14301 
L 448.712542 -64.151965 
L 450.414915 -93.700903 
L 452.117288 -98.861962 
L 453.819661 -74.649476 
L 455.522034 -64.792397 
L 457.224407 -57.976918 
L 458.92678 -51.774727 
L 460.629153 -51.983991 
L 462.331525 -51.167581 
L 464.033898 -54.628525 
L 465.736271 -58.389259 
L 467.438644 -56.695359 
L 469.141017 -53.276124 
L 470.84339 -45.158515 
L 472.545763 -48.987819 
L 474.248136 -57.733203 
L 475.950508 -63.124446 
L 477.652881 -59.114898 
L 479.355254 -78.199328 
L 481.057627 -89.348453 
L 482.76 -82.952271 
L 484.462373 -76.423516 
L 486.164746 -78.45091 
L 487.867119 -99.075998 
L 489.569492 -82.428897 
L 491.271864 -75.683947 
L 492.974237 -68.521283 
L 494.67661 -66.287855 
L 496.378983 -56.678073 
L 498.081356 -52.754529 
L 499.783729 -50.12895 
L 501.486102 -45.756963 
L 503.188475 -50.579443 
L 504.890847 -52.83485 
L 506.59322 -53.960436 
L 508.295593 -55.966853 
L 509.997966 -49.702693 
L 511.700339 -39.363557 
L 513.402712 -47.229632 
L 515.105085 -57.498109 
L 516.807458 -70.533103 
L 518.509831 -66.205925 
L 520.212203 -60.980071 
L 521.914576 -63.063509 
L 523.616949 -60.497086 
L 525.319322 -54.902234 
L 527.021695 -44.915872 
L 528.724068 -79.038184 
L 530.426441 -77.778398 
L 532.128814 -64.280661 
L 533.831186 -57.918093 
L 535.533559 -60.181836 
L 537.235932 -54.632706 
L 538.938305 -66.074406 
L 540.640678 -72.810661 
L 542.343051 -79.743788 
L 544.045424 -84.940374 
L 545.747797 -57.300447 
L 547.450169 -65.141347 
L 549.152542 -73.614132 
L 550.854915 -86.434669 
L 552.557288 -95.513085 
L 554.259661 -87.779051 
L 555.962034 -74.223376 
L 557.664407 -86.124824 
L 559.36678 -72.692487 
L 561.069153 -81.229536 
L 562.771525 -90.625487 
L 564.473898 -74.628328 
L 566.176271 -90.671904 
L 567.878644 -73.637417 
L 569.581017 -69.373647 
L 571.28339 -66.02807 
L 572.985763 -73.010951 
L 574.688136 -65.155137 
L 576.390508 -71.821029 
L 578.092881 -64.681887 
L 579.795254 -58.886252 
L 581.497627 -55.96111 
L 583.2 -55.108838 
L 583.2 -102.734388 
L 583.2 -102.734388 
L 581.497627 -113.229955 
L 579.795254 -92.626541 
L 578.092881 -107.425275 
L 576.390508 -127.046227 
L 574.688136 -103.30332 
L 572.985763 -121.372546 
L 571.28339 -111.289871 
L 569.581017 -136.317784 
L 567.878644 -147.761977 
L 566.176271 -171.596372 
L 564.473898 -133.042945 
L 562.771525 -175.340394 
L 561.069153 -158.664364 
L 559.36678 -125.752789 
L 557.664407 -160.999579 
L 555.962034 -141.814654 
L 554.259661 -169.174341 
L 552.557288 -175.815104 
L 550.854915 -169.973268 
L 549.152542 -136.150636 
L 547.450169 -112.065782 
L 545.747797 -91.789075 
L 544.045424 -151.1963 
L 542.343051 -146.964311 
L 540.640678 -127.60721 
L 538.938305 -123.161146 
L 537.235932 -110.161339 
L 535.533559 -122.335278 
L 533.831186 -140.045709 
L 532.128814 -154.920119 
L 530.426441 -173.326121 
L 528.724068 -174.327034 
L 527.021695 -69.22598 
L 525.319322 -83.90313 
L 523.616949 -94.645511 
L 521.914576 -99.091227 
L 520.212203 -101.469397 
L 518.509831 -109.94856 
L 516.807458 -126.535681 
L 515.105085 -105.461873 
L 513.402712 -81.245407 
L 511.700339 -62.889935 
L 509.997966 -83.229727 
L 508.295593 -89.061474 
L 506.59322 -88.257044 
L 504.890847 -81.069679 
L 503.188475 -80.289513 
L 501.486102 -71.655166 
L 499.783729 -80.248707 
L 498.081356 -89.476239 
L 496.378983 -104.454073 
L 494.67661 -128.840447 
L 492.974237 -147.134818 
L 491.271864 -152.749449 
L 489.569492 -151.810603 
L 487.867119 -176.34562 
L 486.164746 -123.452458 
L 484.462373 -115.105915 
L 482.76 -128.385867 
L 481.057627 -137.409616 
L 479.355254 -123.488094 
L 477.652881 -92.662807 
L 475.950508 -115.982943 
L 474.248136 -104.66568 
L 472.545763 -85.462078 
L 470.84339 -71.116354 
L 469.141017 -88.062874 
L 467.438644 -92.397585 
L 465.736271 -94.681977 
L 464.033898 -99.29519 
L 462.331525 -95.4024 
L 460.629153 -101.301159 
L 458.92678 -113.030044 
L 457.224407 -127.161172 
L 455.522034 -139.649118 
L 453.819661 -149.744655 
L 452.117288 -187.933598 
L 450.414915 -185.123661 
L 448.712542 -106.887364 
L 447.010169 -95.665983 
L 445.307797 -77.783591 
L 443.605424 -83.773996 
L 441.903051 -84.221422 
L 440.200678 -112.884873 
L 438.498305 -134.560563 
L 436.795932 -165.962804 
L 435.093559 -153.330644 
L 433.391186 -168.789261 
L 431.688814 -190.08 
L 429.986441 -166.439857 
L 428.284068 -141.765837 
L 426.581695 -149.791521 
L 424.879322 -160.980617 
L 423.176949 -157.202146 
L 421.474576 -164.71175 
L 419.772203 -98.141425 
L 418.069831 -137.178674 
L 416.367458 -106.278731 
L 414.665085 -110.947633 
L 412.962712 -168.127456 
L 411.260339 -186.087171 
L 409.557966 -174.490583 
L 407.855593 -149.410956 
L 406.15322 -118.991098 
L 404.450847 -110.874818 
L 402.748475 -108.189587 
L 401.046102 -102.4512 
L 399.343729 -143.650315 
L 397.641356 -169.208704 
L 395.938983 -164.080431 
L 394.23661 -125.199759 
L 392.534237 -132.625639 
L 390.831864 -84.934949 
L 389.129492 -97.344991 
L 387.427119 -109.176948 
L 385.724746 -129.500529 
L 384.022373 -133.775536 
L 382.32 -134.581405 
L 380.617627 -137.57871 
L 378.915254 -138.644611 
L 377.212881 -100.61698 
L 375.510508 -115.356708 
L 373.808136 -81.593101 
L 372.105763 -74.856496 
L 370.40339 -81.201266 
L 368.701017 -96.590177 
L 366.998644 -103.558165 
L 365.296271 -90.118321 
L 363.593898 -90.824387 
L 361.891525 -105.627657 
L 360.189153 -95.581955 
L 358.48678 -71.189674 
L 356.784407 -75.977478 
L 355.082034 -96.4114 
L 353.379661 -84.093373 
L 351.677288 -87.493678 
L 349.974915 -53.043114 
L 348.272542 -61.666848 
L 346.570169 -58.937321 
L 344.867797 -70.079078 
L 343.165424 -80.542509 
L 341.463051 -80.879658 
L 339.760678 -79.95214 
L 338.058305 -102.37019 
L 336.355932 -134.089028 
L 334.653559 -140.105703 
L 332.951186 -154.905547 
L 331.248814 -137.069059 
L 329.546441 -146.143637 
L 327.844068 -89.770586 
L 326.141695 -44.236902 
L 324.439322 -47.277609 
L 322.736949 -54.009109 
L 321.034576 -50.064335 
L 319.332203 -85.117648 
L 317.629831 -102.110001 
L 315.927458 -127.25259 
L 314.225085 -66.73714 
L 312.522712 -77.05331 
L 310.820339 -81.56474 
L 309.117966 -99.721667 
L 307.415593 -125.814694 
L 305.71322 -154.704831 
L 304.010847 -126.658583 
L 302.308475 -131.23642 
L 300.606102 -140.076691 
L 298.903729 -152.866724 
L 297.201356 -153.239975 
L 295.498983 -144.643523 
L 293.79661 -98.88015 
L 292.094237 -106.146332 
L 290.391864 -107.927947 
L 288.689492 -99.977579 
L 286.987119 -94.481069 
L 285.284746 -63.07131 
L 283.582373 -70.865499 
L 281.88 -53.493086 
L 280.177627 -42.376902 
L 278.475254 -51.841494 
L 276.772881 -49.786547 
L 275.070508 -51.329675 
L 273.368136 -54.339919 
L 271.665763 -71.51134 
L 269.96339 -98.314744 
L 268.261017 -103.45592 
L 266.558644 -117.937046 
L 264.856271 -77.826863 
L 263.153898 -114.113515 
L 261.451525 -122.198345 
L 259.749153 -56.957528 
L 258.04678 -70.402438 
L 256.344407 -89.555398 
L 254.642034 -121.572141 
L 252.939661 -146.245776 
L 251.237288 -155.876353 
L 249.534915 -148.63997 
L 247.832542 -141.790677 
L 246.130169 -84.882481 
L 244.427797 -84.452452 
L 242.725424 -133.773413 
L 241.023051 -117.530912 
L 239.320678 -149.393188 
L 237.618305 -173.256844 
L 235.915932 -136.825161 
L 234.213559 -137.026731 
L 232.511186 -111.828901 
L 230.808814 -77.446965 
L 229.106441 -79.519954 
L 227.404068 -77.993533 
L 225.701695 -78.142361 
L 223.999322 -86.575186 
L 222.296949 -106.071781 
L 220.594576 -89.500176 
L 218.892203 -85.165185 
L 217.189831 -92.206173 
L 215.487458 -101.388014 
L 213.785085 -116.04256 
L 212.082712 -121.646739 
L 210.380339 -129.531613 
L 208.677966 -119.205084 
L 206.975593 -73.509046 
L 205.27322 -109.211107 
L 203.570847 -138.162575 
L 201.868475 -124.850084 
L 200.166102 -118.450216 
L 198.463729 -127.91251 
L 196.761356 -97.534657 
L 195.058983 -98.364272 
L 193.35661 -132.302933 
L 191.654237 -147.697547 
L 189.951864 -148.558522 
L 188.249492 -78.379108 
L 186.547119 -69.081254 
L 184.844746 -109.985361 
L 183.142373 -118.525285 
L 181.44 -146.88855 
L 179.737627 -156.404245 
L 178.035254 -125.002052 
L 176.332881 -115.662951 
L 174.630508 -110.259056 
L 172.928136 -92.255358 
L 171.225763 -74.740156 
L 169.52339 -75.542138 
L 167.821017 -73.1656 
L 166.118644 -84.661615 
L 164.416271 -90.559622 
L 162.713898 -103.406438 
L 161.011525 -123.324468 
L 159.309153 -140.511669 
L 157.60678 -134.561494 
L 155.904407 -136.106283 
L 154.202034 -93.818523 
L 152.499661 -95.109041 
L 150.797288 -101.72134 
L 149.094915 -100.744786 
L 147.392542 -88.440679 
L 145.690169 -88.189952 
L 143.987797 -67.869978 
L 142.285424 -62.733921 
L 140.583051 -109.367592 
L 138.880678 -140.895834 
L 137.178305 -153.62576 
L 135.475932 -123.936933 
L 133.773559 -108.172265 
L 132.071186 -140.573564 
L 130.368814 -110.356873 
L 128.666441 -108.532054 
L 126.964068 -115.976484 
L 125.261695 -135.46248 
L 123.559322 -118.434501 
L 121.856949 -133.056679 
L 120.154576 -126.277596 
L 118.452203 -119.881863 
L 116.749831 -130.180309 
L 115.047458 -87.270925 
L 113.345085 -72.600158 
L 111.642712 -66.372779 
L 109.940339 -89.087669 
L 108.237966 -93.49147 
L 106.535593 -109.936415 
L 104.83322 -73.201726 
L 103.130847 -85.453817 
L 101.428475 -107.345196 
L 99.726102 -133.933238 
L 98.023729 -101.863289 
L 96.321356 -106.219044 
L 94.618983 -93.333727 
L 92.91661 -78.656202 
L 91.214237 -74.046002 
L 89.511864 -67.402848 
L 87.809492 -75.137482 
L 86.107119 -95.858771 
L 84.404746 -77.633192 
L 82.702373 -76.60672 
L 81 -69.151658 
z
" id="m52800895e7" style="stroke:#0000ff;stroke-opacity:0.3;"/>
    </defs>
    <g clip-path="url(#p2923f206bb)">
     <use style="fill:#0000ff;fill-opacity:0.3;stroke:#0000ff;stroke-opacity:0.3;" x="0" xlink:href="#m52800895e7" y="216"/>
    </g>
   </g>
   <g id="matplotlib.axis_1">
    <g id="xtick_1">
     <g id="line2d_1">
      <defs>
       <path d="M 0 0 
L 0 3.5 
" id="m585396f43e" style="stroke:#000000;stroke-width:0.8;"/>
      </defs>
      <g>
       <use style="stroke:#000000;stroke-width:0.8;" x="162.62878" xlink:href="#m585396f43e" y="192.24"/>
      </g>
     </g>
     <g id="text_1">
      <!-- 0.0 -->
      <defs>
       <path d="M 31.78125 66.40625 
Q 24.171875 66.40625 20.328125 58.90625 
Q 16.5 51.421875 16.5 36.375 
Q 16.5 21.390625 20.328125 13.890625 
Q 24.171875 6.390625 31.78125 6.390625 
Q 39.453125 6.390625 43.28125 13.890625 
Q 47.125 21.390625 47.125 36.375 
Q 47.125 51.421875 43.28125 58.90625 
Q 39.453125 66.40625 31.78125 66.40625 
z
M 31.78125 74.21875 
Q 44.046875 74.21875 50.515625 64.515625 
Q 56.984375 54.828125 56.984375 36.375 
Q 56.984375 17.96875 50.515625 8.265625 
Q 44.046875 -1.421875 31.78125 -1.421875 
Q 19.53125 -1.421875 13.0625 8.265625 
Q 6.59375 17.96875 6.59375 36.375 
Q 6.59375 54.828125 13.0625 64.515625 
Q 19.53125 74.21875 31.78125 74.21875 
z
" id="DejaVuSans-48"/>
       <path d="M 10.6875 12.40625 
L 21 12.40625 
L 21 0 
L 10.6875 0 
z
" id="DejaVuSans-46"/>
      </defs>
      <g transform="translate(153.086905 208.358125)scale(0.12 -0.12)">
       <use xlink:href="#DejaVuSans-48"/>
       <use x="63.623047" xlink:href="#DejaVuSans-46"/>
       <use x="95.410156" xlink:href="#DejaVuSans-48"/>
      </g>
     </g>
    </g>
    <g id="xtick_2">
     <g id="line2d_2">
      <g>
       <use style="stroke:#000000;stroke-width:0.8;" x="247.747424" xlink:href="#m585396f43e" y="192.24"/>
      </g>
     </g>
     <g id="text_2">
      <!-- 0.5 -->
      <defs>
       <path d="M 10.796875 72.90625 
L 49.515625 72.90625 
L 49.515625 64.59375 
L 19.828125 64.59375 
L 19.828125 46.734375 
Q 21.96875 47.46875 24.109375 47.828125 
Q 26.265625 48.1875 28.421875 48.1875 
Q 40.625 48.1875 47.75 41.5 
Q 54.890625 34.8125 54.890625 23.390625 
Q 54.890625 11.625 47.5625 5.09375 
Q 40.234375 -1.421875 26.90625 -1.421875 
Q 22.3125 -1.421875 17.546875 -0.640625 
Q 12.796875 0.140625 7.71875 1.703125 
L 7.71875 11.625 
Q 12.109375 9.234375 16.796875 8.0625 
Q 21.484375 6.890625 26.703125 6.890625 
Q 35.15625 6.890625 40.078125 11.328125 
Q 45.015625 15.765625 45.015625 23.390625 
Q 45.015625 31 40.078125 35.4375 
Q 35.15625 39.890625 26.703125 39.890625 
Q 22.75 39.890625 18.8125 39.015625 
Q 14.890625 38.140625 10.796875 36.28125 
z
" id="DejaVuSans-53"/>
      </defs>
      <g transform="translate(238.205549 208.358125)scale(0.12 -0.12)">
       <use xlink:href="#DejaVuSans-48"/>
       <use x="63.623047" xlink:href="#DejaVuSans-46"/>
       <use x="95.410156" xlink:href="#DejaVuSans-53"/>
      </g>
     </g>
    </g>
    <g id="xtick_3">
     <g id="line2d_3">
      <g>
       <use style="stroke:#000000;stroke-width:0.8;" x="332.866068" xlink:href="#m585396f43e" y="192.24"/>
      </g>
     </g>
     <g id="text_3">
      <!-- 1.0 -->
      <defs>
       <path d="M 12.40625 8.296875 
L 28.515625 8.296875 
L 28.515625 63.921875 
L 10.984375 60.40625 
L 10.984375 69.390625 
L 28.421875 72.90625 
L 38.28125 72.90625 
L 38.28125 8.296875 
L 54.390625 8.296875 
L 54.390625 0 
L 12.40625 0 
z
" id="DejaVuSans-49"/>
      </defs>
      <g transform="translate(323.324193 208.358125)scale(0.12 -0.12)">
       <use xlink:href="#DejaVuSans-49"/>
       <use x="63.623047" xlink:href="#DejaVuSans-46"/>
       <use x="95.410156" xlink:href="#DejaVuSans-48"/>
      </g>
     </g>
    </g>
    <g id="xtick_4">
     <g id="line2d_4">
      <g>
       <use style="stroke:#000000;stroke-width:0.8;" x="417.984712" xlink:href="#m585396f43e" y="192.24"/>
      </g>
     </g>
     <g id="text_4">
      <!-- 1.5 -->
      <g transform="translate(408.442837 208.358125)scale(0.12 -0.12)">
       <use xlink:href="#DejaVuSans-49"/>
       <use x="63.623047" xlink:href="#DejaVuSans-46"/>
       <use x="95.410156" xlink:href="#DejaVuSans-53"/>
      </g>
     </g>
    </g>
    <g id="xtick_5">
     <g id="line2d_5">
      <g>
       <use style="stroke:#000000;stroke-width:0.8;" x="503.103356" xlink:href="#m585396f43e" y="192.24"/>
      </g>
     </g>
     <g id="text_5">
      <!-- 2.0 -->
      <defs>
       <path d="M 19.1875 8.296875 
L 53.609375 8.296875 
L 53.609375 0 
L 7.328125 0 
L 7.328125 8.296875 
Q 12.9375 14.109375 22.625 23.890625 
Q 32.328125 33.6875 34.8125 36.53125 
Q 39.546875 41.84375 41.421875 45.53125 
Q 43.3125 49.21875 43.3125 52.78125 
Q 43.3125 58.59375 39.234375 62.25 
Q 35.15625 65.921875 28.609375 65.921875 
Q 23.96875 65.921875 18.8125 64.3125 
Q 13.671875 62.703125 7.8125 59.421875 
L 7.8125 69.390625 
Q 13.765625 71.78125 18.9375 73 
Q 24.125 74.21875 28.421875 74.21875 
Q 39.75 74.21875 46.484375 68.546875 
Q 53.21875 62.890625 53.21875 53.421875 
Q 53.21875 48.921875 51.53125 44.890625 
Q 49.859375 40.875 45.40625 35.40625 
Q 44.1875 33.984375 37.640625 27.21875 
Q 31.109375 20.453125 19.1875 8.296875 
z
" id="DejaVuSans-50"/>
      </defs>
      <g transform="translate(493.561481 208.358125)scale(0.12 -0.12)">
       <use xlink:href="#DejaVuSans-50"/>
       <use x="63.623047" xlink:href="#DejaVuSans-46"/>
       <use x="95.410156" xlink:href="#DejaVuSans-48"/>
      </g>
     </g>
    </g>
    <g id="text_6">
     <!-- Time (s) -->
     <defs>
      <path d="M -0.296875 72.90625 
L 61.375 72.90625 
L 61.375 64.59375 
L 35.5 64.59375 
L 35.5 0 
L 25.59375 0 
L 25.59375 64.59375 
L -0.296875 64.59375 
z
" id="DejaVuSans-84"/>
      <path d="M 9.421875 54.6875 
L 18.40625 54.6875 
L 18.40625 0 
L 9.421875 0 
z
M 9.421875 75.984375 
L 18.40625 75.984375 
L 18.40625 64.59375 
L 9.421875 64.59375 
z
" id="DejaVuSans-105"/>
      <path d="M 52 44.1875 
Q 55.375 50.25 60.0625 53.125 
Q 64.75 56 71.09375 56 
Q 79.640625 56 84.28125 50.015625 
Q 88.921875 44.046875 88.921875 33.015625 
L 88.921875 0 
L 79.890625 0 
L 79.890625 32.71875 
Q 79.890625 40.578125 77.09375 44.375 
Q 74.3125 48.1875 68.609375 48.1875 
Q 61.625 48.1875 57.5625 43.546875 
Q 53.515625 38.921875 53.515625 30.90625 
L 53.515625 0 
L 44.484375 0 
L 44.484375 32.71875 
Q 44.484375 40.625 41.703125 44.40625 
Q 38.921875 48.1875 33.109375 48.1875 
Q 26.21875 48.1875 22.15625 43.53125 
Q 18.109375 38.875 18.109375 30.90625 
L 18.109375 0 
L 9.078125 0 
L 9.078125 54.6875 
L 18.109375 54.6875 
L 18.109375 46.1875 
Q 21.1875 51.21875 25.484375 53.609375 
Q 29.78125 56 35.6875 56 
Q 41.65625 56 45.828125 52.96875 
Q 50 49.953125 52 44.1875 
z
" id="DejaVuSans-109"/>
      <path d="M 56.203125 29.59375 
L 56.203125 25.203125 
L 14.890625 25.203125 
Q 15.484375 15.921875 20.484375 11.0625 
Q 25.484375 6.203125 34.421875 6.203125 
Q 39.59375 6.203125 44.453125 7.46875 
Q 49.3125 8.734375 54.109375 11.28125 
L 54.109375 2.78125 
Q 49.265625 0.734375 44.1875 -0.34375 
Q 39.109375 -1.421875 33.890625 -1.421875 
Q 20.796875 -1.421875 13.15625 6.1875 
Q 5.515625 13.8125 5.515625 26.8125 
Q 5.515625 40.234375 12.765625 48.109375 
Q 20.015625 56 32.328125 56 
Q 43.359375 56 49.78125 48.890625 
Q 56.203125 41.796875 56.203125 29.59375 
z
M 47.21875 32.234375 
Q 47.125 39.59375 43.09375 43.984375 
Q 39.0625 48.390625 32.421875 48.390625 
Q 24.90625 48.390625 20.390625 44.140625 
Q 15.875 39.890625 15.1875 32.171875 
z
" id="DejaVuSans-101"/>
      <path id="DejaVuSans-32"/>
      <path d="M 31 75.875 
Q 24.46875 64.65625 21.28125 53.65625 
Q 18.109375 42.671875 18.109375 31.390625 
Q 18.109375 20.125 21.3125 9.0625 
Q 24.515625 -2 31 -13.1875 
L 23.1875 -13.1875 
Q 15.875 -1.703125 12.234375 9.375 
Q 8.59375 20.453125 8.59375 31.390625 
Q 8.59375 42.28125 12.203125 53.3125 
Q 15.828125 64.359375 23.1875 75.875 
z
" id="DejaVuSans-40"/>
      <path d="M 44.28125 53.078125 
L 44.28125 44.578125 
Q 40.484375 46.53125 36.375 47.5 
Q 32.28125 48.484375 27.875 48.484375 
Q 21.1875 48.484375 17.84375 46.4375 
Q 14.5 44.390625 14.5 40.28125 
Q 14.5 37.15625 16.890625 35.375 
Q 19.28125 33.59375 26.515625 31.984375 
L 29.59375 31.296875 
Q 39.15625 29.25 43.1875 25.515625 
Q 47.21875 21.78125 47.21875 15.09375 
Q 47.21875 7.46875 41.1875 3.015625 
Q 35.15625 -1.421875 24.609375 -1.421875 
Q 20.21875 -1.421875 15.453125 -0.5625 
Q 10.6875 0.296875 5.421875 2 
L 5.421875 11.28125 
Q 10.40625 8.6875 15.234375 7.390625 
Q 20.0625 6.109375 24.8125 6.109375 
Q 31.15625 6.109375 34.5625 8.28125 
Q 37.984375 10.453125 37.984375 14.40625 
Q 37.984375 18.0625 35.515625 20.015625 
Q 33.0625 21.96875 24.703125 23.78125 
L 21.578125 24.515625 
Q 13.234375 26.265625 9.515625 29.90625 
Q 5.8125 33.546875 5.8125 39.890625 
Q 5.8125 47.609375 11.28125 51.796875 
Q 16.75 56 26.8125 56 
Q 31.78125 56 36.171875 55.265625 
Q 40.578125 54.546875 44.28125 53.078125 
z
" id="DejaVuSans-115"/>
      <path d="M 8.015625 75.875 
L 15.828125 75.875 
Q 23.140625 64.359375 26.78125 53.3125 
Q 30.421875 42.28125 30.421875 31.390625 
Q 30.421875 20.453125 26.78125 9.375 
Q 23.140625 -1.703125 15.828125 -13.1875 
L 8.015625 -13.1875 
Q 14.5 -2 17.703125 9.0625 
Q 20.90625 20.125 20.90625 31.390625 
Q 20.90625 42.671875 17.703125 53.65625 
Q 14.5 64.65625 8.015625 75.875 
z
" id="DejaVuSans-41"/>
     </defs>
     <g transform="translate(302.60475 225.7955)scale(0.144 -0.144)">
      <use xlink:href="#DejaVuSans-84"/>
      <use x="61.037109" xlink:href="#DejaVuSans-105"/>
      <use x="88.820312" xlink:href="#DejaVuSans-109"/>
      <use x="186.232422" xlink:href="#DejaVuSans-101"/>
      <use x="247.755859" xlink:href="#DejaVuSans-32"/>
      <use x="279.542969" xlink:href="#DejaVuSans-40"/>
      <use x="318.556641" xlink:href="#DejaVuSans-115"/>
      <use x="370.65625" xlink:href="#DejaVuSans-41"/>
     </g>
    </g>
   </g>
   <g id="matplotlib.axis_2">
    <g id="ytick_1">
     <g id="line2d_6">
      <defs>
       <path d="M 0 0 
L -3.5 0 
" id="m680efd78b5" style="stroke:#000000;stroke-width:0.8;"/>
      </defs>
      <g>
       <use style="stroke:#000000;stroke-width:0.8;" x="81" xlink:href="#m680efd78b5" y="184.189324"/>
      </g>
     </g>
     <g id="text_7">
      <!-- 0.006 -->
      <defs>
       <path d="M 33.015625 40.375 
Q 26.375 40.375 22.484375 35.828125 
Q 18.609375 31.296875 18.609375 23.390625 
Q 18.609375 15.53125 22.484375 10.953125 
Q 26.375 6.390625 33.015625 6.390625 
Q 39.65625 6.390625 43.53125 10.953125 
Q 47.40625 15.53125 47.40625 23.390625 
Q 47.40625 31.296875 43.53125 35.828125 
Q 39.65625 40.375 33.015625 40.375 
z
M 52.59375 71.296875 
L 52.59375 62.3125 
Q 48.875 64.0625 45.09375 64.984375 
Q 41.3125 65.921875 37.59375 65.921875 
Q 27.828125 65.921875 22.671875 59.328125 
Q 17.53125 52.734375 16.796875 39.40625 
Q 19.671875 43.65625 24.015625 45.921875 
Q 28.375 48.1875 33.59375 48.1875 
Q 44.578125 48.1875 50.953125 41.515625 
Q 57.328125 34.859375 57.328125 23.390625 
Q 57.328125 12.15625 50.6875 5.359375 
Q 44.046875 -1.421875 33.015625 -1.421875 
Q 20.359375 -1.421875 13.671875 8.265625 
Q 6.984375 17.96875 6.984375 36.375 
Q 6.984375 53.65625 15.1875 63.9375 
Q 23.390625 74.21875 37.203125 74.21875 
Q 40.921875 74.21875 44.703125 73.484375 
Q 48.484375 72.75 52.59375 71.296875 
z
" id="DejaVuSans-54"/>
      </defs>
      <g transform="translate(39.64625 188.748387)scale(0.12 -0.12)">
       <use xlink:href="#DejaVuSans-48"/>
       <use x="63.623047" xlink:href="#DejaVuSans-46"/>
       <use x="95.410156" xlink:href="#DejaVuSans-48"/>
       <use x="159.033203" xlink:href="#DejaVuSans-48"/>
       <use x="222.65625" xlink:href="#DejaVuSans-54"/>
      </g>
     </g>
    </g>
    <g id="ytick_2">
     <g id="line2d_7">
      <g>
       <use style="stroke:#000000;stroke-width:0.8;" x="81" xlink:href="#m680efd78b5" y="162.873303"/>
      </g>
     </g>
     <g id="text_8">
      <!-- 0.008 -->
      <defs>
       <path d="M 31.78125 34.625 
Q 24.75 34.625 20.71875 30.859375 
Q 16.703125 27.09375 16.703125 20.515625 
Q 16.703125 13.921875 20.71875 10.15625 
Q 24.75 6.390625 31.78125 6.390625 
Q 38.8125 6.390625 42.859375 10.171875 
Q 46.921875 13.96875 46.921875 20.515625 
Q 46.921875 27.09375 42.890625 30.859375 
Q 38.875 34.625 31.78125 34.625 
z
M 21.921875 38.8125 
Q 15.578125 40.375 12.03125 44.71875 
Q 8.5 49.078125 8.5 55.328125 
Q 8.5 64.0625 14.71875 69.140625 
Q 20.953125 74.21875 31.78125 74.21875 
Q 42.671875 74.21875 48.875 69.140625 
Q 55.078125 64.0625 55.078125 55.328125 
Q 55.078125 49.078125 51.53125 44.71875 
Q 48 40.375 41.703125 38.8125 
Q 48.828125 37.15625 52.796875 32.3125 
Q 56.78125 27.484375 56.78125 20.515625 
Q 56.78125 9.90625 50.3125 4.234375 
Q 43.84375 -1.421875 31.78125 -1.421875 
Q 19.734375 -1.421875 13.25 4.234375 
Q 6.78125 9.90625 6.78125 20.515625 
Q 6.78125 27.484375 10.78125 32.3125 
Q 14.796875 37.15625 21.921875 38.8125 
z
M 18.3125 54.390625 
Q 18.3125 48.734375 21.84375 45.5625 
Q 25.390625 42.390625 31.78125 42.390625 
Q 38.140625 42.390625 41.71875 45.5625 
Q 45.3125 48.734375 45.3125 54.390625 
Q 45.3125 60.0625 41.71875 63.234375 
Q 38.140625 66.40625 31.78125 66.40625 
Q 25.390625 66.40625 21.84375 63.234375 
Q 18.3125 60.0625 18.3125 54.390625 
z
" id="DejaVuSans-56"/>
      </defs>
      <g transform="translate(39.64625 167.432365)scale(0.12 -0.12)">
       <use xlink:href="#DejaVuSans-48"/>
       <use x="63.623047" xlink:href="#DejaVuSans-46"/>
       <use x="95.410156" xlink:href="#DejaVuSans-48"/>
       <use x="159.033203" xlink:href="#DejaVuSans-48"/>
       <use x="222.65625" xlink:href="#DejaVuSans-56"/>
      </g>
     </g>
    </g>
    <g id="ytick_3">
     <g id="line2d_8">
      <g>
       <use style="stroke:#000000;stroke-width:0.8;" x="81" xlink:href="#m680efd78b5" y="141.557281"/>
      </g>
     </g>
     <g id="text_9">
      <!-- 0.010 -->
      <g transform="translate(39.64625 146.116343)scale(0.12 -0.12)">
       <use xlink:href="#DejaVuSans-48"/>
       <use x="63.623047" xlink:href="#DejaVuSans-46"/>
       <use x="95.410156" xlink:href="#DejaVuSans-48"/>
       <use x="159.033203" xlink:href="#DejaVuSans-49"/>
       <use x="222.65625" xlink:href="#DejaVuSans-48"/>
      </g>
     </g>
    </g>
    <g id="ytick_4">
     <g id="line2d_9">
      <g>
       <use style="stroke:#000000;stroke-width:0.8;" x="81" xlink:href="#m680efd78b5" y="120.241259"/>
      </g>
     </g>
     <g id="text_10">
      <!-- 0.012 -->
      <g transform="translate(39.64625 124.800322)scale(0.12 -0.12)">
       <use xlink:href="#DejaVuSans-48"/>
       <use x="63.623047" xlink:href="#DejaVuSans-46"/>
       <use x="95.410156" xlink:href="#DejaVuSans-48"/>
       <use x="159.033203" xlink:href="#DejaVuSans-49"/>
       <use x="222.65625" xlink:href="#DejaVuSans-50"/>
      </g>
     </g>
    </g>
    <g id="ytick_5">
     <g id="line2d_10">
      <g>
       <use style="stroke:#000000;stroke-width:0.8;" x="81" xlink:href="#m680efd78b5" y="98.925237"/>
      </g>
     </g>
     <g id="text_11">
      <!-- 0.014 -->
      <defs>
       <path d="M 37.796875 64.3125 
L 12.890625 25.390625 
L 37.796875 25.390625 
z
M 35.203125 72.90625 
L 47.609375 72.90625 
L 47.609375 25.390625 
L 58.015625 25.390625 
L 58.015625 17.1875 
L 47.609375 17.1875 
L 47.609375 0 
L 37.796875 0 
L 37.796875 17.1875 
L 4.890625 17.1875 
L 4.890625 26.703125 
z
" id="DejaVuSans-52"/>
      </defs>
      <g transform="translate(39.64625 103.4843)scale(0.12 -0.12)">
       <use xlink:href="#DejaVuSans-48"/>
       <use x="63.623047" xlink:href="#DejaVuSans-46"/>
       <use x="95.410156" xlink:href="#DejaVuSans-48"/>
       <use x="159.033203" xlink:href="#DejaVuSans-49"/>
       <use x="222.65625" xlink:href="#DejaVuSans-52"/>
      </g>
     </g>
    </g>
    <g id="ytick_6">
     <g id="line2d_11">
      <g>
       <use style="stroke:#000000;stroke-width:0.8;" x="81" xlink:href="#m680efd78b5" y="77.609216"/>
      </g>
     </g>
     <g id="text_12">
      <!-- 0.016 -->
      <g transform="translate(39.64625 82.168278)scale(0.12 -0.12)">
       <use xlink:href="#DejaVuSans-48"/>
       <use x="63.623047" xlink:href="#DejaVuSans-46"/>
       <use x="95.410156" xlink:href="#DejaVuSans-48"/>
       <use x="159.033203" xlink:href="#DejaVuSans-49"/>
       <use x="222.65625" xlink:href="#DejaVuSans-54"/>
      </g>
     </g>
    </g>
    <g id="ytick_7">
     <g id="line2d_12">
      <g>
       <use style="stroke:#000000;stroke-width:0.8;" x="81" xlink:href="#m680efd78b5" y="56.293194"/>
      </g>
     </g>
     <g id="text_13">
      <!-- 0.018 -->
      <g transform="translate(39.64625 60.852256)scale(0.12 -0.12)">
       <use xlink:href="#DejaVuSans-48"/>
       <use x="63.623047" xlink:href="#DejaVuSans-46"/>
       <use x="95.410156" xlink:href="#DejaVuSans-48"/>
       <use x="159.033203" xlink:href="#DejaVuSans-49"/>
       <use x="222.65625" xlink:href="#DejaVuSans-56"/>
      </g>
     </g>
    </g>
    <g id="ytick_8">
     <g id="line2d_13">
      <g>
       <use style="stroke:#000000;stroke-width:0.8;" x="81" xlink:href="#m680efd78b5" y="34.977172"/>
      </g>
     </g>
     <g id="text_14">
      <!-- 0.020 -->
      <g transform="translate(39.64625 39.536235)scale(0.12 -0.12)">
       <use xlink:href="#DejaVuSans-48"/>
       <use x="63.623047" xlink:href="#DejaVuSans-46"/>
       <use x="95.410156" xlink:href="#DejaVuSans-48"/>
       <use x="159.033203" xlink:href="#DejaVuSans-50"/>
       <use x="222.65625" xlink:href="#DejaVuSans-48"/>
      </g>
     </g>
    </g>
    <g id="text_15">
     <!-- COMb $p$ -->
     <defs>
      <path d="M 64.40625 67.28125 
L 64.40625 56.890625 
Q 59.421875 61.53125 53.78125 63.8125 
Q 48.140625 66.109375 41.796875 66.109375 
Q 29.296875 66.109375 22.65625 58.46875 
Q 16.015625 50.828125 16.015625 36.375 
Q 16.015625 21.96875 22.65625 14.328125 
Q 29.296875 6.6875 41.796875 6.6875 
Q 48.140625 6.6875 53.78125 8.984375 
Q 59.421875 11.28125 64.40625 15.921875 
L 64.40625 5.609375 
Q 59.234375 2.09375 53.4375 0.328125 
Q 47.65625 -1.421875 41.21875 -1.421875 
Q 24.65625 -1.421875 15.125 8.703125 
Q 5.609375 18.84375 5.609375 36.375 
Q 5.609375 53.953125 15.125 64.078125 
Q 24.65625 74.21875 41.21875 74.21875 
Q 47.75 74.21875 53.53125 72.484375 
Q 59.328125 70.75 64.40625 67.28125 
z
" id="DejaVuSans-67"/>
      <path d="M 39.40625 66.21875 
Q 28.65625 66.21875 22.328125 58.203125 
Q 16.015625 50.203125 16.015625 36.375 
Q 16.015625 22.609375 22.328125 14.59375 
Q 28.65625 6.59375 39.40625 6.59375 
Q 50.140625 6.59375 56.421875 14.59375 
Q 62.703125 22.609375 62.703125 36.375 
Q 62.703125 50.203125 56.421875 58.203125 
Q 50.140625 66.21875 39.40625 66.21875 
z
M 39.40625 74.21875 
Q 54.734375 74.21875 63.90625 63.9375 
Q 73.09375 53.65625 73.09375 36.375 
Q 73.09375 19.140625 63.90625 8.859375 
Q 54.734375 -1.421875 39.40625 -1.421875 
Q 24.03125 -1.421875 14.8125 8.828125 
Q 5.609375 19.09375 5.609375 36.375 
Q 5.609375 53.65625 14.8125 63.9375 
Q 24.03125 74.21875 39.40625 74.21875 
z
" id="DejaVuSans-79"/>
      <path d="M 9.8125 72.90625 
L 24.515625 72.90625 
L 43.109375 23.296875 
L 61.8125 72.90625 
L 76.515625 72.90625 
L 76.515625 0 
L 66.890625 0 
L 66.890625 64.015625 
L 48.09375 14.015625 
L 38.1875 14.015625 
L 19.390625 64.015625 
L 19.390625 0 
L 9.8125 0 
z
" id="DejaVuSans-77"/>
      <path d="M 48.6875 27.296875 
Q 48.6875 37.203125 44.609375 42.84375 
Q 40.53125 48.484375 33.40625 48.484375 
Q 26.265625 48.484375 22.1875 42.84375 
Q 18.109375 37.203125 18.109375 27.296875 
Q 18.109375 17.390625 22.1875 11.75 
Q 26.265625 6.109375 33.40625 6.109375 
Q 40.53125 6.109375 44.609375 11.75 
Q 48.6875 17.390625 48.6875 27.296875 
z
M 18.109375 46.390625 
Q 20.953125 51.265625 25.265625 53.625 
Q 29.59375 56 35.59375 56 
Q 45.5625 56 51.78125 48.09375 
Q 58.015625 40.1875 58.015625 27.296875 
Q 58.015625 14.40625 51.78125 6.484375 
Q 45.5625 -1.421875 35.59375 -1.421875 
Q 29.59375 -1.421875 25.265625 0.953125 
Q 20.953125 3.328125 18.109375 8.203125 
L 18.109375 0 
L 9.078125 0 
L 9.078125 75.984375 
L 18.109375 75.984375 
z
" id="DejaVuSans-98"/>
      <path d="M 49.609375 33.6875 
Q 49.609375 40.875 46.484375 44.671875 
Q 43.359375 48.484375 37.5 48.484375 
Q 33.5 48.484375 29.859375 46.4375 
Q 26.21875 44.390625 23.390625 40.484375 
Q 20.609375 36.625 18.9375 31.15625 
Q 17.28125 25.6875 17.28125 20.3125 
Q 17.28125 13.484375 20.40625 9.796875 
Q 23.53125 6.109375 29.296875 6.109375 
Q 33.546875 6.109375 37.1875 8.109375 
Q 40.828125 10.109375 43.40625 13.921875 
Q 46.1875 17.921875 47.890625 23.34375 
Q 49.609375 28.765625 49.609375 33.6875 
z
M 21.78125 46.390625 
Q 25.390625 51.125 30.296875 53.5625 
Q 35.203125 56 41.21875 56 
Q 49.609375 56 54.25 50.5 
Q 58.890625 45.015625 58.890625 35.109375 
Q 58.890625 27 56 19.65625 
Q 53.125 12.3125 47.703125 6.5 
Q 44.09375 2.640625 39.546875 0.609375 
Q 35.015625 -1.421875 29.984375 -1.421875 
Q 24.171875 -1.421875 20.21875 1 
Q 16.265625 3.421875 14.3125 8.203125 
L 8.6875 -20.796875 
L -0.296875 -20.796875 
L 14.40625 54.6875 
L 23.390625 54.6875 
z
" id="DejaVuSans-Oblique-112"/>
     </defs>
     <g transform="translate(32.62225 137.448)rotate(-90)scale(0.144 -0.144)">
      <use transform="translate(0 0.015625)" xlink:href="#DejaVuSans-67"/>
      <use transform="translate(69.824219 0.015625)" xlink:href="#DejaVuSans-79"/>
      <use transform="translate(148.535156 0.015625)" xlink:href="#DejaVuSans-77"/>
      <use transform="translate(234.814453 0.015625)" xlink:href="#DejaVuSans-98"/>
      <use transform="translate(298.291016 0.015625)" xlink:href="#DejaVuSans-32"/>
      <use transform="translate(330.078125 0.015625)" xlink:href="#DejaVuSans-Oblique-112"/>
     </g>
    </g>
   </g>
   <g id="line2d_14">
    <path clip-path="url(#p2923f206bb)" d="M 81 160.811522 
L 82.702373 155.443605 
L 84.404746 154.55574 
L 86.107119 140.928862 
L 87.809492 153.197445 
L 89.511864 160.958744 
L 91.214237 156.945442 
L 92.91661 153.423813 
L 94.618983 142.6885 
L 96.321356 134.973193 
L 98.023729 139.558976 
L 99.726102 118.611052 
L 101.428475 129.595913 
L 103.130847 147.268324 
L 104.83322 156.338386 
L 106.535593 128.833722 
L 108.237966 142.357662 
L 109.940339 145.215139 
L 111.642712 162.830492 
L 113.345085 157.962491 
L 115.047458 144.828328 
L 116.749831 119.796044 
L 118.452203 129.928435 
L 120.154576 119.948809 
L 121.856949 108.734351 
L 123.559322 120.621955 
L 125.261695 113.045503 
L 126.964068 125.053402 
L 128.666441 128.318365 
L 130.368814 129.751572 
L 132.071186 106.944418 
L 133.773559 130.513038 
L 135.475932 123.528521 
L 137.178305 99.724211 
L 138.880678 109.675803 
L 140.583051 131.18104 
L 142.285424 166.362513 
L 143.987797 162.790321 
L 145.690169 148.87195 
L 147.392542 143.245151 
L 149.094915 133.461992 
L 150.797288 132.710618 
L 152.499661 139.005702 
L 154.202034 141.865502 
L 155.904407 112.433609 
L 157.60678 117.175113 
L 159.309153 111.363007 
L 161.011525 127.082591 
L 162.713898 138.02729 
L 164.416271 144.0821 
L 166.118644 146.605569 
L 167.821017 155.637648 
L 169.52339 155.413704 
L 171.225763 154.241718 
L 172.928136 141.48229 
L 174.630508 129.85249 
L 176.332881 123.63517 
L 178.035254 113.992826 
L 179.737627 97.6145 
L 181.44 105.807301 
L 183.142373 123.160537 
L 184.844746 130.285887 
L 186.547119 160.457478 
L 188.249492 153.65251 
L 189.951864 110.538286 
L 191.654237 108.089257 
L 193.35661 120.081317 
L 195.058983 141.025838 
L 196.761356 140.288156 
L 198.463729 122.936122 
L 200.166102 131.599898 
L 201.868475 126.613961 
L 203.570847 113.409624 
L 205.27322 133.833807 
L 206.975593 159.51341 
L 208.677966 131.982836 
L 210.380339 123.698464 
L 212.082712 130.246032 
L 213.785085 133.530032 
L 215.487458 140.356049 
L 217.189831 143.411157 
L 218.892203 148.903913 
L 220.594576 145.637385 
L 222.296949 132.762231 
L 223.999322 147.87217 
L 225.701695 153.010292 
L 227.404068 155.462355 
L 229.106441 153.913064 
L 230.808814 157.053732 
L 232.511186 130.93997 
L 234.213559 113.640971 
L 235.915932 109.152919 
L 237.618305 85.727882 
L 239.320678 105.698293 
L 241.023051 131.384784 
L 242.725424 116.49572 
L 244.427797 149.366285 
L 246.130169 148.460615 
L 247.832542 110.205114 
L 249.534915 105.491076 
L 251.237288 95.449437 
L 252.939661 102.266857 
L 256.344407 145.586143 
L 258.04678 159.984256 
L 259.749153 169.582353 
L 261.451525 128.841689 
L 263.153898 131.336706 
L 264.856271 154.778084 
L 266.558644 133.094631 
L 268.261017 145.985011 
L 269.96339 146.568092 
L 271.665763 164.361744 
L 273.368136 174.88221 
L 275.070508 176.490777 
L 276.772881 175.289737 
L 278.475254 173.231741 
L 280.177627 181.234466 
L 281.88 172.067298 
L 283.582373 159.216181 
L 285.284746 165.57284 
L 286.987119 141.788904 
L 288.689492 135.422299 
L 290.391864 128.067373 
L 292.094237 128.634173 
L 293.79661 134.476141 
L 295.498983 107.142159 
L 297.201356 99.694629 
L 298.903729 103.49526 
L 300.606102 109.961948 
L 302.308475 111.838545 
L 304.010847 115.339038 
L 305.71322 98.23019 
L 307.415593 113.964525 
L 309.117966 133.40939 
L 310.820339 147.861717 
L 312.522712 154.60649 
L 314.225085 162.263438 
L 315.927458 124.569004 
L 317.629831 143.628133 
L 319.332203 154.650722 
L 321.034576 179.087833 
L 322.736949 174.279069 
L 324.439322 179.307335 
L 326.141695 180.740586 
L 327.844068 150.938711 
L 329.546441 108.314667 
L 331.248814 117.153819 
L 332.951186 102.1342 
L 334.653559 108.196287 
L 336.355932 109.55647 
L 338.058305 133.166899 
L 339.760678 151.857344 
L 341.463051 152.976843 
L 343.165424 154.809512 
L 346.570169 169.849145 
L 348.272542 168.140016 
L 349.974915 174.173653 
L 351.677288 151.876573 
L 353.379661 155.897324 
L 355.082034 140.396838 
L 356.784407 155.354321 
L 358.48678 158.045858 
L 360.189153 140.002823 
L 361.891525 140.029001 
L 363.593898 146.455912 
L 365.296271 145.270091 
L 366.998644 133.436011 
L 368.701017 138.610251 
L 370.40339 150.827718 
L 372.105763 155.314278 
L 373.808136 149.949094 
L 375.510508 125.820829 
L 377.212881 137.061754 
L 378.915254 113.852869 
L 380.617627 115.438129 
L 382.32 118.216087 
L 384.022373 113.502232 
L 385.724746 113.295959 
L 387.427119 127.757678 
L 390.831864 145.71923 
L 392.534237 118.432179 
L 394.23661 125.611904 
L 395.938983 92.34459 
L 397.641356 83.135726 
L 399.343729 98.923831 
L 401.046102 130.645644 
L 402.748475 128.88068 
L 404.450847 130.008956 
L 406.15322 122.918615 
L 407.855593 96.353328 
L 409.557966 85.449786 
L 411.260339 76.635586 
L 412.962712 90.213999 
L 414.665085 131.303008 
L 416.367458 136.025838 
L 418.069831 108.162175 
L 419.772203 138.276879 
L 421.474576 91.51391 
L 423.176949 97.14365 
L 424.879322 90.437549 
L 426.581695 95.616171 
L 428.284068 105.113364 
L 429.986441 88.124143 
L 431.688814 67.26734 
L 433.391186 78.157981 
L 435.093559 87.194476 
L 436.795932 77.977224 
L 438.498305 103.798004 
L 440.200678 122.131777 
L 441.903051 146.982447 
L 443.605424 147.023083 
L 445.307797 151.677989 
L 447.010169 138.595504 
L 448.712542 130.480335 
L 450.414915 76.587718 
L 452.117288 72.60222 
L 453.819661 103.802935 
L 458.92678 133.597615 
L 460.629153 139.357425 
L 462.331525 142.715009 
L 464.033898 139.038143 
L 465.736271 139.464382 
L 467.438644 141.453528 
L 469.141017 145.330501 
L 470.84339 157.862565 
L 472.545763 148.775052 
L 474.248136 134.800558 
L 475.950508 126.446305 
L 477.652881 140.111148 
L 479.355254 115.156289 
L 481.057627 102.620965 
L 482.76 110.330931 
L 484.462373 120.235285 
L 486.164746 115.048316 
L 487.867119 78.289191 
L 489.569492 98.88025 
L 491.271864 101.783302 
L 492.974237 108.171949 
L 494.67661 118.435849 
L 496.378983 135.433927 
L 498.081356 144.884616 
L 499.783729 150.811172 
L 501.486102 157.293936 
L 503.188475 150.565522 
L 504.890847 149.047735 
L 506.59322 144.89126 
L 508.295593 143.485837 
L 509.997966 149.53379 
L 511.700339 164.873254 
L 513.402712 151.762481 
L 516.807458 117.465608 
L 518.509831 127.922758 
L 520.212203 134.775266 
L 521.914576 134.922632 
L 523.616949 138.428701 
L 525.319322 146.597318 
L 527.021695 158.929074 
L 528.724068 89.317391 
L 530.426441 90.447741 
L 532.128814 106.39961 
L 533.831186 117.018099 
L 535.533559 124.741443 
L 537.235932 133.602978 
L 538.938305 121.382224 
L 540.640678 115.791064 
L 542.343051 102.645951 
L 544.045424 97.931663 
L 545.747797 141.455239 
L 547.450169 127.396435 
L 549.152542 111.117616 
L 550.854915 87.796031 
L 552.557288 80.335905 
L 554.259661 87.523304 
L 555.962034 107.980985 
L 557.664407 92.437798 
L 559.36678 116.777362 
L 561.069153 96.05305 
L 562.771525 83.01706 
L 564.473898 112.164364 
L 566.176271 84.865862 
L 567.878644 105.300303 
L 569.581017 113.154285 
L 571.28339 127.341029 
L 572.985763 118.808252 
L 574.688136 131.770771 
L 576.390508 116.566372 
L 578.092881 129.946419 
L 579.795254 140.243604 
L 581.497627 131.404468 
L 583.2 137.078387 
L 583.2 137.078387 
" style="fill:none;stroke:#0000ff;stroke-linecap:square;stroke-width:1.5;"/>
   </g>
   <g id="patch_3">
    <path d="M 81 192.24 
L 81 25.92 
" style="fill:none;stroke:#000000;stroke-linecap:square;stroke-linejoin:miter;stroke-width:0.8;"/>
   </g>
   <g id="patch_4">
    <path d="M 583.2 192.24 
L 583.2 25.92 
" style="fill:none;stroke:#000000;stroke-linecap:square;stroke-linejoin:miter;stroke-width:0.8;"/>
   </g>
   <g id="patch_5">
    <path d="M 81 192.24 
L 583.2 192.24 
" style="fill:none;stroke:#000000;stroke-linecap:square;stroke-linejoin:miter;stroke-width:0.8;"/>
   </g>
   <g id="patch_6">
    <path d="M 81 25.92 
L 583.2 25.92 
" style="fill:none;stroke:#000000;stroke-linecap:square;stroke-linejoin:miter;stroke-width:0.8;"/>
   </g>
   <g id="text_16">
    <!-- Motor cortex, Num Trials=160 All stimulated trials -->
    <defs>
     <path d="M 30.609375 48.390625 
Q 23.390625 48.390625 19.1875 42.75 
Q 14.984375 37.109375 14.984375 27.296875 
Q 14.984375 17.484375 19.15625 11.84375 
Q 23.34375 6.203125 30.609375 6.203125 
Q 37.796875 6.203125 41.984375 11.859375 
Q 46.1875 17.53125 46.1875 27.296875 
Q 46.1875 37.015625 41.984375 42.703125 
Q 37.796875 48.390625 30.609375 48.390625 
z
M 30.609375 56 
Q 42.328125 56 49.015625 48.375 
Q 55.71875 40.765625 55.71875 27.296875 
Q 55.71875 13.875 49.015625 6.21875 
Q 42.328125 -1.421875 30.609375 -1.421875 
Q 18.84375 -1.421875 12.171875 6.21875 
Q 5.515625 13.875 5.515625 27.296875 
Q 5.515625 40.765625 12.171875 48.375 
Q 18.84375 56 30.609375 56 
z
" id="DejaVuSans-111"/>
     <path d="M 18.3125 70.21875 
L 18.3125 54.6875 
L 36.8125 54.6875 
L 36.8125 47.703125 
L 18.3125 47.703125 
L 18.3125 18.015625 
Q 18.3125 11.328125 20.140625 9.421875 
Q 21.96875 7.515625 27.59375 7.515625 
L 36.8125 7.515625 
L 36.8125 0 
L 27.59375 0 
Q 17.1875 0 13.234375 3.875 
Q 9.28125 7.765625 9.28125 18.015625 
L 9.28125 47.703125 
L 2.6875 47.703125 
L 2.6875 54.6875 
L 9.28125 54.6875 
L 9.28125 70.21875 
z
" id="DejaVuSans-116"/>
     <path d="M 41.109375 46.296875 
Q 39.59375 47.171875 37.8125 47.578125 
Q 36.03125 48 33.890625 48 
Q 26.265625 48 22.1875 43.046875 
Q 18.109375 38.09375 18.109375 28.8125 
L 18.109375 0 
L 9.078125 0 
L 9.078125 54.6875 
L 18.109375 54.6875 
L 18.109375 46.1875 
Q 20.953125 51.171875 25.484375 53.578125 
Q 30.03125 56 36.53125 56 
Q 37.453125 56 38.578125 55.875 
Q 39.703125 55.765625 41.0625 55.515625 
z
" id="DejaVuSans-114"/>
     <path d="M 48.78125 52.59375 
L 48.78125 44.1875 
Q 44.96875 46.296875 41.140625 47.34375 
Q 37.3125 48.390625 33.40625 48.390625 
Q 24.65625 48.390625 19.8125 42.84375 
Q 14.984375 37.3125 14.984375 27.296875 
Q 14.984375 17.28125 19.8125 11.734375 
Q 24.65625 6.203125 33.40625 6.203125 
Q 37.3125 6.203125 41.140625 7.25 
Q 44.96875 8.296875 48.78125 10.40625 
L 48.78125 2.09375 
Q 45.015625 0.34375 40.984375 -0.53125 
Q 36.96875 -1.421875 32.421875 -1.421875 
Q 20.0625 -1.421875 12.78125 6.34375 
Q 5.515625 14.109375 5.515625 27.296875 
Q 5.515625 40.671875 12.859375 48.328125 
Q 20.21875 56 33.015625 56 
Q 37.15625 56 41.109375 55.140625 
Q 45.0625 54.296875 48.78125 52.59375 
z
" id="DejaVuSans-99"/>
     <path d="M 54.890625 54.6875 
L 35.109375 28.078125 
L 55.90625 0 
L 45.3125 0 
L 29.390625 21.484375 
L 13.484375 0 
L 2.875 0 
L 24.125 28.609375 
L 4.6875 54.6875 
L 15.28125 54.6875 
L 29.78125 35.203125 
L 44.28125 54.6875 
z
" id="DejaVuSans-120"/>
     <path d="M 11.71875 12.40625 
L 22.015625 12.40625 
L 22.015625 4 
L 14.015625 -11.625 
L 7.71875 -11.625 
L 11.71875 4 
z
" id="DejaVuSans-44"/>
     <path d="M 9.8125 72.90625 
L 23.09375 72.90625 
L 55.421875 11.921875 
L 55.421875 72.90625 
L 64.984375 72.90625 
L 64.984375 0 
L 51.703125 0 
L 19.390625 60.984375 
L 19.390625 0 
L 9.8125 0 
z
" id="DejaVuSans-78"/>
     <path d="M 8.5 21.578125 
L 8.5 54.6875 
L 17.484375 54.6875 
L 17.484375 21.921875 
Q 17.484375 14.15625 20.5 10.265625 
Q 23.53125 6.390625 29.59375 6.390625 
Q 36.859375 6.390625 41.078125 11.03125 
Q 45.3125 15.671875 45.3125 23.6875 
L 45.3125 54.6875 
L 54.296875 54.6875 
L 54.296875 0 
L 45.3125 0 
L 45.3125 8.40625 
Q 42.046875 3.421875 37.71875 1 
Q 33.40625 -1.421875 27.6875 -1.421875 
Q 18.265625 -1.421875 13.375 4.4375 
Q 8.5 10.296875 8.5 21.578125 
z
M 31.109375 56 
z
" id="DejaVuSans-117"/>
     <path d="M 34.28125 27.484375 
Q 23.390625 27.484375 19.1875 25 
Q 14.984375 22.515625 14.984375 16.5 
Q 14.984375 11.71875 18.140625 8.90625 
Q 21.296875 6.109375 26.703125 6.109375 
Q 34.1875 6.109375 38.703125 11.40625 
Q 43.21875 16.703125 43.21875 25.484375 
L 43.21875 27.484375 
z
M 52.203125 31.203125 
L 52.203125 0 
L 43.21875 0 
L 43.21875 8.296875 
Q 40.140625 3.328125 35.546875 0.953125 
Q 30.953125 -1.421875 24.3125 -1.421875 
Q 15.921875 -1.421875 10.953125 3.296875 
Q 6 8.015625 6 15.921875 
Q 6 25.140625 12.171875 29.828125 
Q 18.359375 34.515625 30.609375 34.515625 
L 43.21875 34.515625 
L 43.21875 35.40625 
Q 43.21875 41.609375 39.140625 45 
Q 35.0625 48.390625 27.6875 48.390625 
Q 23 48.390625 18.546875 47.265625 
Q 14.109375 46.140625 10.015625 43.890625 
L 10.015625 52.203125 
Q 14.9375 54.109375 19.578125 55.046875 
Q 24.21875 56 28.609375 56 
Q 40.484375 56 46.34375 49.84375 
Q 52.203125 43.703125 52.203125 31.203125 
z
" id="DejaVuSans-97"/>
     <path d="M 9.421875 75.984375 
L 18.40625 75.984375 
L 18.40625 0 
L 9.421875 0 
z
" id="DejaVuSans-108"/>
     <path d="M 10.59375 45.40625 
L 73.1875 45.40625 
L 73.1875 37.203125 
L 10.59375 37.203125 
z
M 10.59375 25.484375 
L 73.1875 25.484375 
L 73.1875 17.1875 
L 10.59375 17.1875 
z
" id="DejaVuSans-61"/>
     <path d="M 34.1875 63.1875 
L 20.796875 26.90625 
L 47.609375 26.90625 
z
M 28.609375 72.90625 
L 39.796875 72.90625 
L 67.578125 0 
L 57.328125 0 
L 50.6875 18.703125 
L 17.828125 18.703125 
L 11.1875 0 
L 0.78125 0 
z
" id="DejaVuSans-65"/>
     <path d="M 45.40625 46.390625 
L 45.40625 75.984375 
L 54.390625 75.984375 
L 54.390625 0 
L 45.40625 0 
L 45.40625 8.203125 
Q 42.578125 3.328125 38.25 0.953125 
Q 33.9375 -1.421875 27.875 -1.421875 
Q 17.96875 -1.421875 11.734375 6.484375 
Q 5.515625 14.40625 5.515625 27.296875 
Q 5.515625 40.1875 11.734375 48.09375 
Q 17.96875 56 27.875 56 
Q 33.9375 56 38.25 53.625 
Q 42.578125 51.265625 45.40625 46.390625 
z
M 14.796875 27.296875 
Q 14.796875 17.390625 18.875 11.75 
Q 22.953125 6.109375 30.078125 6.109375 
Q 37.203125 6.109375 41.296875 11.75 
Q 45.40625 17.390625 45.40625 27.296875 
Q 45.40625 37.203125 41.296875 42.84375 
Q 37.203125 48.484375 30.078125 48.484375 
Q 22.953125 48.484375 18.875 42.84375 
Q 14.796875 37.203125 14.796875 27.296875 
z
" id="DejaVuSans-100"/>
    </defs>
    <g transform="translate(181.130625 19.92)scale(0.12 -0.12)">
     <use xlink:href="#DejaVuSans-77"/>
     <use x="86.279297" xlink:href="#DejaVuSans-111"/>
     <use x="147.460938" xlink:href="#DejaVuSans-116"/>
     <use x="186.669922" xlink:href="#DejaVuSans-111"/>
     <use x="247.851562" xlink:href="#DejaVuSans-114"/>
     <use x="288.964844" xlink:href="#DejaVuSans-32"/>
     <use x="320.751953" xlink:href="#DejaVuSans-99"/>
     <use x="375.732422" xlink:href="#DejaVuSans-111"/>
     <use x="436.914062" xlink:href="#DejaVuSans-114"/>
     <use x="478.027344" xlink:href="#DejaVuSans-116"/>
     <use x="517.236328" xlink:href="#DejaVuSans-101"/>
     <use x="578.744141" xlink:href="#DejaVuSans-120"/>
     <use x="637.923828" xlink:href="#DejaVuSans-44"/>
     <use x="669.710938" xlink:href="#DejaVuSans-32"/>
     <use x="701.498047" xlink:href="#DejaVuSans-78"/>
     <use x="776.302734" xlink:href="#DejaVuSans-117"/>
     <use x="839.681641" xlink:href="#DejaVuSans-109"/>
     <use x="937.09375" xlink:href="#DejaVuSans-32"/>
     <use x="968.880859" xlink:href="#DejaVuSans-84"/>
     <use x="1029.746094" xlink:href="#DejaVuSans-114"/>
     <use x="1070.859375" xlink:href="#DejaVuSans-105"/>
     <use x="1098.642578" xlink:href="#DejaVuSans-97"/>
     <use x="1159.921875" xlink:href="#DejaVuSans-108"/>
     <use x="1187.705078" xlink:href="#DejaVuSans-115"/>
     <use x="1239.804688" xlink:href="#DejaVuSans-61"/>
     <use x="1323.59375" xlink:href="#DejaVuSans-49"/>
     <use x="1387.216797" xlink:href="#DejaVuSans-54"/>
     <use x="1450.839844" xlink:href="#DejaVuSans-48"/>
     <use x="1514.462891" xlink:href="#DejaVuSans-32"/>
     <use x="1546.25" xlink:href="#DejaVuSans-65"/>
     <use x="1614.658203" xlink:href="#DejaVuSans-108"/>
     <use x="1642.441406" xlink:href="#DejaVuSans-108"/>
     <use x="1670.224609" xlink:href="#DejaVuSans-32"/>
     <use x="1702.011719" xlink:href="#DejaVuSans-115"/>
     <use x="1754.111328" xlink:href="#DejaVuSans-116"/>
     <use x="1793.320312" xlink:href="#DejaVuSans-105"/>
     <use x="1821.103516" xlink:href="#DejaVuSans-109"/>
     <use x="1918.515625" xlink:href="#DejaVuSans-117"/>
     <use x="1981.894531" xlink:href="#DejaVuSans-108"/>
     <use x="2009.677734" xlink:href="#DejaVuSans-97"/>
     <use x="2070.957031" xlink:href="#DejaVuSans-116"/>
     <use x="2110.166016" xlink:href="#DejaVuSans-101"/>
     <use x="2171.689453" xlink:href="#DejaVuSans-100"/>
     <use x="2235.166016" xlink:href="#DejaVuSans-32"/>
     <use x="2266.953125" xlink:href="#DejaVuSans-116"/>
     <use x="2306.162109" xlink:href="#DejaVuSans-114"/>
     <use x="2347.275391" xlink:href="#DejaVuSans-105"/>
     <use x="2375.058594" xlink:href="#DejaVuSans-97"/>
     <use x="2436.337891" xlink:href="#DejaVuSans-108"/>
     <use x="2464.121094" xlink:href="#DejaVuSans-115"/>
    </g>
   </g>
   <g id="legend_1">
    <g id="patch_7">
     <path d="M 440.16 70.77375 
L 574.8 70.77375 
Q 577.2 70.77375 577.2 68.37375 
L 577.2 34.32 
Q 577.2 31.92 574.8 31.92 
L 440.16 31.92 
Q 437.76 31.92 437.76 34.32 
L 437.76 68.37375 
Q 437.76 70.77375 440.16 70.77375 
z
" style="fill:#ffffff;opacity:0.8;stroke:#cccccc;stroke-linejoin:miter;"/>
    </g>
    <g id="line2d_15">
     <path d="M 442.56 41.64 
L 466.56 41.64 
" style="fill:none;stroke:#0000ff;stroke-linecap:square;stroke-width:1.5;"/>
    </g>
    <g id="line2d_16"/>
    <g id="text_17">
     <!-- COM-Binomial $p$ -->
     <defs>
      <path d="M 4.890625 31.390625 
L 31.203125 31.390625 
L 31.203125 23.390625 
L 4.890625 23.390625 
z
" id="DejaVuSans-45"/>
      <path d="M 19.671875 34.8125 
L 19.671875 8.109375 
L 35.5 8.109375 
Q 43.453125 8.109375 47.28125 11.40625 
Q 51.125 14.703125 51.125 21.484375 
Q 51.125 28.328125 47.28125 31.5625 
Q 43.453125 34.8125 35.5 34.8125 
z
M 19.671875 64.796875 
L 19.671875 42.828125 
L 34.28125 42.828125 
Q 41.5 42.828125 45.03125 45.53125 
Q 48.578125 48.25 48.578125 53.8125 
Q 48.578125 59.328125 45.03125 62.0625 
Q 41.5 64.796875 34.28125 64.796875 
z
M 9.8125 72.90625 
L 35.015625 72.90625 
Q 46.296875 72.90625 52.390625 68.21875 
Q 58.5 63.53125 58.5 54.890625 
Q 58.5 48.1875 55.375 44.234375 
Q 52.25 40.28125 46.1875 39.3125 
Q 53.46875 37.75 57.5 32.78125 
Q 61.53125 27.828125 61.53125 20.40625 
Q 61.53125 10.640625 54.890625 5.3125 
Q 48.25 0 35.984375 0 
L 9.8125 0 
z
" id="DejaVuSans-66"/>
      <path d="M 54.890625 33.015625 
L 54.890625 0 
L 45.90625 0 
L 45.90625 32.71875 
Q 45.90625 40.484375 42.875 44.328125 
Q 39.84375 48.1875 33.796875 48.1875 
Q 26.515625 48.1875 22.3125 43.546875 
Q 18.109375 38.921875 18.109375 30.90625 
L 18.109375 0 
L 9.078125 0 
L 9.078125 54.6875 
L 18.109375 54.6875 
L 18.109375 46.1875 
Q 21.34375 51.125 25.703125 53.5625 
Q 30.078125 56 35.796875 56 
Q 45.21875 56 50.046875 50.171875 
Q 54.890625 44.34375 54.890625 33.015625 
z
" id="DejaVuSans-110"/>
     </defs>
     <g transform="translate(476.16 45.84)scale(0.12 -0.12)">
      <use transform="translate(0 0.015625)" xlink:href="#DejaVuSans-67"/>
      <use transform="translate(69.824219 0.015625)" xlink:href="#DejaVuSans-79"/>
      <use transform="translate(148.535156 0.015625)" xlink:href="#DejaVuSans-77"/>
      <use transform="translate(234.814453 0.015625)" xlink:href="#DejaVuSans-45"/>
      <use transform="translate(270.898438 0.015625)" xlink:href="#DejaVuSans-66"/>
      <use transform="translate(339.501953 0.015625)" xlink:href="#DejaVuSans-105"/>
      <use transform="translate(367.285156 0.015625)" xlink:href="#DejaVuSans-110"/>
      <use transform="translate(430.664062 0.015625)" xlink:href="#DejaVuSans-111"/>
      <use transform="translate(491.845703 0.015625)" xlink:href="#DejaVuSans-109"/>
      <use transform="translate(589.257812 0.015625)" xlink:href="#DejaVuSans-105"/>
      <use transform="translate(617.041016 0.015625)" xlink:href="#DejaVuSans-97"/>
      <use transform="translate(678.320312 0.015625)" xlink:href="#DejaVuSans-108"/>
      <use transform="translate(706.103516 0.015625)" xlink:href="#DejaVuSans-32"/>
      <use transform="translate(737.890625 0.015625)" xlink:href="#DejaVuSans-Oblique-112"/>
     </g>
    </g>
    <g id="patch_8">
     <path d="M 442.56 63.478125 
L 466.56 63.478125 
L 466.56 55.078125 
L 442.56 55.078125 
z
" style="fill:#0000ff;opacity:0.3;stroke:#0000ff;stroke-linejoin:miter;"/>
    </g>
    <g id="text_18">
     <!-- Std. Err. -->
     <defs>
      <path d="M 53.515625 70.515625 
L 53.515625 60.890625 
Q 47.90625 63.578125 42.921875 64.890625 
Q 37.9375 66.21875 33.296875 66.21875 
Q 25.25 66.21875 20.875 63.09375 
Q 16.5 59.96875 16.5 54.203125 
Q 16.5 49.359375 19.40625 46.890625 
Q 22.3125 44.4375 30.421875 42.921875 
L 36.375 41.703125 
Q 47.40625 39.59375 52.65625 34.296875 
Q 57.90625 29 57.90625 20.125 
Q 57.90625 9.515625 50.796875 4.046875 
Q 43.703125 -1.421875 29.984375 -1.421875 
Q 24.8125 -1.421875 18.96875 -0.25 
Q 13.140625 0.921875 6.890625 3.21875 
L 6.890625 13.375 
Q 12.890625 10.015625 18.65625 8.296875 
Q 24.421875 6.59375 29.984375 6.59375 
Q 38.421875 6.59375 43.015625 9.90625 
Q 47.609375 13.234375 47.609375 19.390625 
Q 47.609375 24.75 44.3125 27.78125 
Q 41.015625 30.8125 33.5 32.328125 
L 27.484375 33.5 
Q 16.453125 35.6875 11.515625 40.375 
Q 6.59375 45.0625 6.59375 53.421875 
Q 6.59375 63.09375 13.40625 68.65625 
Q 20.21875 74.21875 32.171875 74.21875 
Q 37.3125 74.21875 42.625 73.28125 
Q 47.953125 72.359375 53.515625 70.515625 
z
" id="DejaVuSans-83"/>
      <path d="M 9.8125 72.90625 
L 55.90625 72.90625 
L 55.90625 64.59375 
L 19.671875 64.59375 
L 19.671875 43.015625 
L 54.390625 43.015625 
L 54.390625 34.71875 
L 19.671875 34.71875 
L 19.671875 8.296875 
L 56.78125 8.296875 
L 56.78125 0 
L 9.8125 0 
z
" id="DejaVuSans-69"/>
     </defs>
     <g transform="translate(476.16 63.478125)scale(0.12 -0.12)">
      <use xlink:href="#DejaVuSans-83"/>
      <use x="63.476562" xlink:href="#DejaVuSans-116"/>
      <use x="102.685547" xlink:href="#DejaVuSans-100"/>
      <use x="166.162109" xlink:href="#DejaVuSans-46"/>
      <use x="197.949219" xlink:href="#DejaVuSans-32"/>
      <use x="229.736328" xlink:href="#DejaVuSans-69"/>
      <use x="292.919922" xlink:href="#DejaVuSans-114"/>
      <use x="334.017578" xlink:href="#DejaVuSans-114"/>
      <use x="374.990234" xlink:href="#DejaVuSans-46"/>
     </g>
    </g>
   </g>
  </g>
 </g>
 <defs>
  <clipPath id="p2923f206bb">
   <rect height="166.32" width="502.2" x="81" y="25.92"/>
  </clipPath>
 </defs>
</svg>
