<?xml version="1.0" encoding="utf-8" standalone="no"?>
<!DOCTYPE svg PUBLIC "-//W3C//DTD SVG 1.1//EN"
  "http://www.w3.org/Graphics/SVG/1.1/DTD/svg11.dtd">
<!-- Created with matplotlib (https://matplotlib.org/) -->
<svg height="223.2pt" version="1.1" viewBox="0 0 576 223.2" width="576pt" xmlns="http://www.w3.org/2000/svg" xmlns:xlink="http://www.w3.org/1999/xlink">
 <defs>
  <style type="text/css">
*{stroke-linecap:butt;stroke-linejoin:round;}
  </style>
 </defs>
 <g id="figure_1">
  <g id="patch_1">
   <path d="M 0 223.2 
L 576 223.2 
L 576 0 
L 0 0 
z
" style="fill:#ffffff;"/>
  </g>
  <g id="axes_1">
   <g id="patch_2">
    <path d="M 62.03 174.76 
L 565.2 174.76 
L 565.2 26.88 
L 62.03 26.88 
z
" style="fill:#ffffff;"/>
   </g>
   <g id="PolyCollection_1">
    <defs>
     <path d="M 143.816446 -2.941764 
L 143.816446 -196.32 
L 399.665598 -196.32 
L 399.665598 -2.941764 
L 399.665598 -2.941764 
L 143.816446 -2.941764 
z
" id="mb1bc713c68" style="stroke:#808080;stroke-opacity:0.3;"/>
    </defs>
    <g clip-path="url(#pdcfa6957be)">
     <use style="fill:#808080;fill-opacity:0.3;stroke:#808080;stroke-opacity:0.3;" x="0" xlink:href="#mb1bc713c68" y="223.2"/>
    </g>
   </g>
   <g id="PolyCollection_2">
    <path clip-path="url(#pdcfa6957be)" d="M 62.03 173.590129 
L 62.03 177.442743 
L 63.735661 175.559729 
L 65.441322 176.672302 
L 67.146983 177.433736 
L 68.852644 178.416315 
L 70.558305 182.653524 
L 72.263966 175.147276 
L 73.969627 177.835397 
L 75.675288 178.109946 
L 77.380949 175.48544 
L 79.08661 177.538095 
L 80.792271 178.189936 
L 82.497932 185.320051 
L 84.203593 195.694527 
L 85.909254 176.85361 
L 87.614915 182.014755 
L 89.320576 176.465835 
L 91.026237 174.343694 
L 92.731898 180.708478 
L 94.437559 177.430982 
L 96.14322 176.274526 
L 97.848881 196.541964 
L 99.554542 179.334509 
L 101.260203 196.541964 
L 102.965864 189.808766 
L 104.671525 184.283856 
L 106.377186 188.594927 
L 108.082847 181.529431 
L 109.788508 175.534601 
L 111.494169 177.782642 
L 113.199831 178.979191 
L 114.905492 185.995285 
L 116.611153 194.200571 
L 118.316814 196.541964 
L 120.022475 195.071082 
L 121.728136 201.635033 
L 123.433797 178.581498 
L 125.139458 182.225867 
L 126.845119 187.313915 
L 128.55078 178.396175 
L 130.256441 176.811665 
L 131.962102 189.013055 
L 133.667763 185.033116 
L 135.373424 185.207427 
L 137.079085 183.396227 
L 138.784746 183.670613 
L 140.490407 196.541964 
L 142.196068 183.557401 
L 143.901729 195.997964 
L 143.901729 173.739766 
L 143.901729 173.739766 
L 142.196068 172.880762 
L 140.490407 196.541964 
L 138.784746 177.961526 
L 137.079085 178.909023 
L 135.373424 172.721786 
L 133.667763 165.371015 
L 131.962102 176.853659 
L 130.256441 172.913448 
L 128.55078 175.023537 
L 126.845119 176.662879 
L 125.139458 176.263531 
L 123.433797 173.734414 
L 121.728136 190.059812 
L 120.022475 176.055221 
L 118.316814 196.541964 
L 116.611153 176.405553 
L 114.905492 179.010448 
L 113.199831 170.112572 
L 111.494169 174.625231 
L 109.788508 169.439082 
L 108.082847 177.786239 
L 106.377186 180.488451 
L 104.671525 180.32372 
L 102.965864 177.002245 
L 101.260203 196.541964 
L 99.554542 173.523139 
L 97.848881 196.541964 
L 96.14322 174.305489 
L 94.437559 169.08536 
L 92.731898 173.838309 
L 91.026237 171.575986 
L 89.320576 175.303592 
L 87.614915 178.813406 
L 85.909254 174.58777 
L 84.203593 180.460657 
L 82.497932 178.113981 
L 80.792271 175.092759 
L 79.08661 173.300693 
L 77.380949 167.59353 
L 75.675288 176.160488 
L 73.969627 175.509592 
L 72.263966 170.163899 
L 70.558305 179.684656 
L 68.852644 175.309919 
L 67.146983 175.725473 
L 65.441322 175.68875 
L 63.735661 173.792705 
L 62.03 173.590129 
z
" style="fill:#0000ff;fill-opacity:0.3;stroke:#0000ff;stroke-opacity:0.3;"/>
    <path clip-path="url(#pdcfa6957be)" d="M 147.313051 195.195966 
L 147.313051 202.641311 
L 149.018712 178.585371 
L 150.724373 181.88821 
L 152.430034 190.908588 
L 154.135695 197.710524 
L 155.841356 197.698744 
L 157.547017 175.341233 
L 159.252678 177.278621 
L 160.958339 174.005199 
L 162.664 183.055632 
L 164.369661 196.541964 
L 166.075322 178.741807 
L 167.780983 180.049348 
L 169.486644 187.02622 
L 171.192305 191.978077 
L 172.897966 196.974095 
L 174.603627 196.541964 
L 176.309288 184.0452 
L 178.014949 175.994002 
L 179.72061 177.929473 
L 181.426271 205.465584 
L 183.131932 183.862935 
L 184.837593 179.324456 
L 186.543254 175.745287 
L 188.248915 175.359728 
L 189.954576 196.174857 
L 191.660237 183.964065 
L 193.365898 179.714778 
L 195.071559 178.289968 
L 196.77722 168.95017 
L 198.482881 192.16301 
L 200.188542 196.541964 
L 201.894203 178.161522 
L 203.599864 185.279403 
L 205.305525 196.541964 
L 207.011186 189.672093 
L 208.716847 173.232496 
L 210.422508 178.769419 
L 212.128169 184.094414 
L 213.833831 176.826946 
L 215.539492 182.88892 
L 217.245153 181.542061 
L 218.950814 179.375031 
L 220.656475 176.81913 
L 222.362136 189.162198 
L 224.067797 196.541964 
L 225.773458 180.088085 
L 227.479119 188.905622 
L 229.18478 206.910764 
L 230.890441 196.541964 
L 232.596102 198.674825 
L 234.301763 167.432573 
L 236.007424 198.153627 
L 237.713085 196.075189 
L 239.418746 192.586273 
L 241.124407 196.541964 
L 242.830068 196.541964 
L 244.535729 196.541964 
L 246.24139 194.376556 
L 247.947051 189.155329 
L 249.652712 178.853951 
L 251.358373 183.578941 
L 253.064034 196.541964 
L 254.769695 193.20589 
L 256.475356 178.395153 
L 258.181017 196.541964 
L 259.886678 185.031285 
L 261.592339 184.723751 
L 263.298 176.983346 
L 265.003661 178.794582 
L 266.709322 204.99644 
L 268.414983 197.045768 
L 270.120644 178.71359 
L 271.826305 177.736906 
L 273.531966 186.081093 
L 275.237627 196.705556 
L 276.943288 196.541964 
L 278.648949 178.649158 
L 280.35461 192.062823 
L 282.060271 190.137181 
L 283.765932 196.541964 
L 285.471593 186.747888 
L 287.177254 196.541964 
L 288.882915 191.746583 
L 290.588576 188.732623 
L 292.294237 185.140354 
L 293.999898 196.541964 
L 295.705559 196.541964 
L 297.41122 178.081626 
L 299.116881 196.337122 
L 300.822542 201.346874 
L 302.528203 196.541964 
L 304.233864 196.541964 
L 305.939525 196.541964 
L 307.645186 194.440183 
L 309.350847 177.254139 
L 311.056508 191.425929 
L 312.762169 196.637257 
L 314.467831 175.555002 
L 316.173492 185.272618 
L 317.879153 186.821714 
L 319.584814 185.211286 
L 321.290475 185.077096 
L 322.996136 192.065657 
L 324.701797 196.541964 
L 326.407458 185.192905 
L 328.113119 195.928208 
L 329.81878 191.054472 
L 331.524441 197.258751 
L 333.230102 198.605023 
L 334.935763 196.13771 
L 336.641424 189.887424 
L 338.347085 190.40568 
L 340.052746 196.541964 
L 341.758407 175.196408 
L 343.464068 184.846652 
L 345.169729 187.778516 
L 346.87539 220.258236 
L 348.581051 178.987688 
L 350.286712 196.541964 
L 351.992373 184.90689 
L 353.698034 179.234325 
L 355.403695 172.725518 
L 357.109356 195.561635 
L 358.815017 196.541964 
L 360.520678 196.541964 
L 362.226339 180.302643 
L 363.932 196.541964 
L 365.637661 197.628422 
L 367.343322 196.541964 
L 369.048983 196.541964 
L 370.754644 179.753044 
L 372.460305 196.541964 
L 374.165966 187.868479 
L 375.871627 181.041854 
L 377.577288 196.541964 
L 379.282949 196.541964 
L 380.98861 197.207074 
L 382.694271 196.541964 
L 384.399932 198.610362 
L 386.105593 196.541964 
L 386.105593 196.541964 
L 386.105593 196.541964 
L 384.399932 196.636177 
L 382.694271 196.541964 
L 380.98861 185.144638 
L 379.282949 196.541964 
L 377.577288 196.541964 
L 375.871627 174.12516 
L 374.165966 178.590815 
L 372.460305 196.541964 
L 370.754644 98.688969 
L 369.048983 196.541964 
L 367.343322 196.541964 
L 365.637661 190.433928 
L 363.932 196.541964 
L 362.226339 174.11322 
L 360.520678 196.541964 
L 358.815017 196.541964 
L 357.109356 182.887742 
L 355.403695 155.101041 
L 353.698034 175.774901 
L 351.992373 179.250005 
L 350.286712 196.541964 
L 348.581051 176.079907 
L 346.87539 193.832942 
L 345.169729 176.805954 
L 343.464068 179.136204 
L 341.758407 171.375477 
L 340.052746 196.541964 
L 338.347085 178.077633 
L 336.641424 155.674001 
L 334.935763 184.427847 
L 333.230102 196.635934 
L 331.524441 192.03554 
L 329.81878 184.058782 
L 328.113119 185.528561 
L 326.407458 173.885728 
L 324.701797 196.541964 
L 322.996136 180.879093 
L 321.290475 178.550177 
L 319.584814 179.99268 
L 317.879153 173.563536 
L 316.173492 167.12969 
L 314.467831 172.678064 
L 312.762169 188.250489 
L 311.056508 176.220288 
L 309.350847 174.854816 
L 307.645186 167.267938 
L 305.939525 196.541964 
L 304.233864 196.541964 
L 302.528203 196.541964 
L 300.822542 197.366356 
L 299.116881 189.583369 
L 297.41122 176.034088 
L 295.705559 196.541964 
L 293.999898 196.541964 
L 292.294237 180.348723 
L 290.588576 175.474625 
L 288.882915 175.568195 
L 287.177254 196.541964 
L 285.471593 180.52306 
L 283.765932 196.541964 
L 282.060271 163.86132 
L 280.35461 176.630866 
L 278.648949 173.033233 
L 276.943288 196.541964 
L 275.237627 189.167524 
L 273.531966 177.14914 
L 271.826305 175.466443 
L 270.120644 172.875526 
L 268.414983 178.24014 
L 266.709322 183.004793 
L 265.003661 176.256627 
L 263.298 175.879887 
L 261.592339 154.703893 
L 259.886678 174.833539 
L 258.181017 196.541964 
L 256.475356 175.838142 
L 254.769695 178.699402 
L 253.064034 196.541964 
L 251.358373 171.78156 
L 249.652712 175.917001 
L 247.947051 175.794213 
L 246.24139 188.343884 
L 244.535729 196.541964 
L 242.830068 196.541964 
L 241.124407 196.541964 
L 239.418746 184.243806 
L 237.713085 173.206905 
L 236.007424 198.153627 
L 234.301763 26.88 
L 232.596102 196.660824 
L 230.890441 196.541964 
L 229.18478 197.28641 
L 227.479119 175.236761 
L 225.773458 177.726162 
L 224.067797 196.541964 
L 222.362136 170.814554 
L 220.656475 174.233006 
L 218.950814 176.431124 
L 217.245153 175.037131 
L 215.539492 176.731523 
L 213.833831 173.955636 
L 212.128169 175.946674 
L 210.422508 175.357827 
L 208.716847 149.607061 
L 207.011186 178.892674 
L 205.305525 196.541964 
L 203.599864 164.058744 
L 201.894203 174.955749 
L 200.188542 196.541964 
L 198.482881 180.624326 
L 196.77722 155.272065 
L 195.071559 175.912911 
L 193.365898 169.986718 
L 191.660237 173.753591 
L 189.954576 188.482341 
L 188.248915 164.404085 
L 186.543254 173.429722 
L 184.837593 175.765317 
L 183.131932 176.33762 
L 181.426271 197.73325 
L 179.72061 172.897311 
L 178.014949 174.191796 
L 176.309288 175.549756 
L 174.603627 196.541964 
L 172.897966 181.268955 
L 171.192305 183.660739 
L 169.486644 180.621988 
L 167.780983 174.197517 
L 166.075322 175.269922 
L 164.369661 196.541964 
L 162.664 175.805446 
L 160.958339 168.023861 
L 159.252678 173.308698 
L 157.547017 170.027282 
L 155.841356 190.061336 
L 154.135695 187.281959 
L 152.430034 179.25818 
L 150.724373 176.186065 
L 149.018712 174.631585 
L 147.313051 195.195966 
z
" style="fill:#0000ff;fill-opacity:0.3;stroke:#0000ff;stroke-opacity:0.3;"/>
    <path clip-path="url(#pdcfa6957be)" d="M 389.516915 196.828228 
L 389.516915 198.305179 
L 391.222576 180.599816 
L 392.928237 184.365539 
L 394.633898 175.650743 
L 396.339559 195.992376 
L 398.04522 196.541964 
L 399.750881 181.211456 
L 401.456542 196.541964 
L 403.162203 187.427432 
L 404.867864 196.541964 
L 406.573525 191.228115 
L 408.279186 186.390074 
L 409.984847 181.849516 
L 411.690508 196.464115 
L 413.396169 198.19572 
L 415.101831 195.049215 
L 416.807492 196.541964 
L 418.513153 176.641279 
L 420.218814 197.072874 
L 421.924475 196.541964 
L 423.630136 189.184224 
L 425.335797 192.288521 
L 427.041458 194.767311 
L 428.747119 196.541964 
L 430.45278 196.432047 
L 432.158441 195.616436 
L 433.864102 187.7163 
L 435.569763 179.718384 
L 437.275424 177.067216 
L 438.981085 175.630339 
L 440.686746 176.720181 
L 442.392407 176.339079 
L 444.098068 176.728532 
L 445.803729 175.229646 
L 447.50939 175.887279 
L 449.215051 174.635718 
L 450.920712 175.45578 
L 452.626373 176.279299 
L 454.332034 177.155866 
L 456.037695 174.913231 
L 457.743356 177.139515 
L 459.449017 176.109099 
L 461.154678 179.272872 
L 462.860339 176.3538 
L 464.566 176.358162 
L 466.271661 176.134261 
L 467.977322 177.632125 
L 469.682983 176.478094 
L 471.388644 175.145408 
L 473.094305 176.559076 
L 474.799966 175.155301 
L 476.505627 174.536412 
L 478.211288 174.973897 
L 479.916949 177.982948 
L 481.62261 175.137354 
L 483.328271 176.299158 
L 485.033932 175.600998 
L 486.739593 176.539268 
L 488.445254 176.864045 
L 490.150915 176.0528 
L 491.856576 180.930835 
L 493.562237 176.456997 
L 495.267898 178.727727 
L 496.973559 175.873257 
L 498.67922 174.602639 
L 500.384881 177.056236 
L 502.090542 176.992844 
L 503.796203 173.986993 
L 505.501864 176.25482 
L 507.207525 175.432641 
L 508.913186 176.365207 
L 510.618847 178.276121 
L 512.324508 174.849879 
L 514.030169 177.486564 
L 515.735831 176.808948 
L 517.441492 176.707478 
L 519.147153 178.345666 
L 520.852814 177.033121 
L 522.558475 176.778284 
L 524.264136 175.451275 
L 525.969797 177.56784 
L 527.675458 176.244984 
L 529.381119 176.469663 
L 531.08678 176.926572 
L 532.792441 176.286116 
L 534.498102 180.093598 
L 536.203763 180.809475 
L 537.909424 177.784997 
L 539.615085 172.6607 
L 541.320746 178.291336 
L 543.026407 180.852961 
L 544.732068 177.900733 
L 546.437729 178.043968 
L 548.14339 184.860979 
L 549.849051 178.123605 
L 551.554712 177.735127 
L 553.260373 181.229159 
L 554.966034 175.004187 
L 556.671695 181.018325 
L 558.377356 185.654983 
L 560.083017 188.891535 
L 560.083017 178.405365 
L 560.083017 178.405365 
L 558.377356 168.724688 
L 556.671695 172.009318 
L 554.966034 167.215658 
L 553.260373 175.396779 
L 551.554712 174.496598 
L 549.849051 170.891107 
L 548.14339 175.887454 
L 546.437729 171.939043 
L 544.732068 176.257178 
L 543.026407 174.862173 
L 541.320746 172.253883 
L 539.615085 166.03389 
L 537.909424 175.738341 
L 536.203763 176.908939 
L 534.498102 175.988096 
L 532.792441 174.853752 
L 531.08678 173.384194 
L 529.381119 173.65951 
L 527.675458 174.058649 
L 525.969797 169.740472 
L 524.264136 172.741625 
L 522.558475 175.528734 
L 520.852814 174.961444 
L 519.147153 174.506357 
L 517.441492 175.261841 
L 515.735831 174.880061 
L 514.030169 174.7619 
L 512.324508 173.6442 
L 510.618847 176.695039 
L 508.913186 174.454783 
L 507.207525 173.903437 
L 505.501864 173.981158 
L 503.796203 171.075851 
L 502.090542 175.319248 
L 500.384881 172.782364 
L 498.67922 172.82624 
L 496.973559 174.745302 
L 495.267898 175.315609 
L 493.562237 174.781654 
L 491.856576 176.875345 
L 490.150915 175.402071 
L 488.445254 174.774443 
L 486.739593 175.372762 
L 485.033932 173.195273 
L 483.328271 174.129169 
L 481.62261 173.077635 
L 479.916949 175.781652 
L 478.211288 173.626496 
L 476.505627 172.004714 
L 474.799966 174.112939 
L 473.094305 171.462771 
L 471.388644 174.056953 
L 469.682983 174.49676 
L 467.977322 175.927725 
L 466.271661 174.533581 
L 464.566 175.027945 
L 462.860339 175.208589 
L 461.154678 177.431285 
L 459.449017 174.100907 
L 457.743356 175.989604 
L 456.037695 172.272648 
L 454.332034 175.159215 
L 452.626373 174.684945 
L 450.920712 174.541969 
L 449.215051 173.333069 
L 447.50939 174.925081 
L 445.803729 174.11666 
L 444.098068 175.70251 
L 442.392407 174.241655 
L 440.686746 175.803673 
L 438.981085 175.013651 
L 437.275424 170.719121 
L 435.569763 174.573675 
L 433.864102 161.476025 
L 432.158441 168.807013 
L 430.45278 193.688349 
L 428.747119 196.541964 
L 427.041458 187.635612 
L 425.335797 170.805686 
L 423.630136 177.874774 
L 421.924475 196.541964 
L 420.218814 181.050165 
L 418.513153 169.747418 
L 416.807492 196.541964 
L 415.101831 164.125441 
L 413.396169 192.122784 
L 411.690508 169.42979 
L 409.984847 171.850453 
L 408.279186 179.351297 
L 406.573525 184.398487 
L 404.867864 196.541964 
L 403.162203 179.471405 
L 401.456542 196.541964 
L 399.750881 176.24294 
L 398.04522 196.541964 
L 396.339559 188.462326 
L 394.633898 162.564582 
L 392.928237 181.16994 
L 391.222576 151.245166 
L 389.516915 196.828228 
z
" style="fill:#0000ff;fill-opacity:0.3;stroke:#0000ff;stroke-opacity:0.3;"/>
    <path clip-path="url(#pdcfa6957be)" d="M 563.494339 187.181008 
L 563.494339 197.583312 
L 565.2 172.581498 
L 565.2 164.261653 
L 565.2 164.261653 
L 563.494339 187.181008 
z
" style="fill:#0000ff;fill-opacity:0.3;stroke:#0000ff;stroke-opacity:0.3;"/>
   </g>
   <g id="matplotlib.axis_1">
    <g id="xtick_1">
     <g id="line2d_1">
      <defs>
       <path d="M 0 0 
L 0 3.5 
" id="me7e002a9dc" style="stroke:#000000;stroke-width:0.8;"/>
      </defs>
      <g>
       <use style="stroke:#000000;stroke-width:0.8;" x="143.816446" xlink:href="#me7e002a9dc" y="174.76"/>
      </g>
     </g>
     <g id="text_1">
      <!-- 0.0 -->
      <defs>
       <path d="M 31.78125 66.40625 
Q 24.171875 66.40625 20.328125 58.90625 
Q 16.5 51.421875 16.5 36.375 
Q 16.5 21.390625 20.328125 13.890625 
Q 24.171875 6.390625 31.78125 6.390625 
Q 39.453125 6.390625 43.28125 13.890625 
Q 47.125 21.390625 47.125 36.375 
Q 47.125 51.421875 43.28125 58.90625 
Q 39.453125 66.40625 31.78125 66.40625 
z
M 31.78125 74.21875 
Q 44.046875 74.21875 50.515625 64.515625 
Q 56.984375 54.828125 56.984375 36.375 
Q 56.984375 17.96875 50.515625 8.265625 
Q 44.046875 -1.421875 31.78125 -1.421875 
Q 19.53125 -1.421875 13.0625 8.265625 
Q 6.59375 17.96875 6.59375 36.375 
Q 6.59375 54.828125 13.0625 64.515625 
Q 19.53125 74.21875 31.78125 74.21875 
z
" id="DejaVuSans-48"/>
       <path d="M 10.6875 12.40625 
L 21 12.40625 
L 21 0 
L 10.6875 0 
z
" id="DejaVuSans-46"/>
      </defs>
      <g transform="translate(134.274571 190.878125)scale(0.12 -0.12)">
       <use xlink:href="#DejaVuSans-48"/>
       <use x="63.623047" xlink:href="#DejaVuSans-46"/>
       <use x="95.410156" xlink:href="#DejaVuSans-48"/>
      </g>
     </g>
    </g>
    <g id="xtick_2">
     <g id="line2d_2">
      <g>
       <use style="stroke:#000000;stroke-width:0.8;" x="229.099497" xlink:href="#me7e002a9dc" y="174.76"/>
      </g>
     </g>
     <g id="text_2">
      <!-- 0.5 -->
      <defs>
       <path d="M 10.796875 72.90625 
L 49.515625 72.90625 
L 49.515625 64.59375 
L 19.828125 64.59375 
L 19.828125 46.734375 
Q 21.96875 47.46875 24.109375 47.828125 
Q 26.265625 48.1875 28.421875 48.1875 
Q 40.625 48.1875 47.75 41.5 
Q 54.890625 34.8125 54.890625 23.390625 
Q 54.890625 11.625 47.5625 5.09375 
Q 40.234375 -1.421875 26.90625 -1.421875 
Q 22.3125 -1.421875 17.546875 -0.640625 
Q 12.796875 0.140625 7.71875 1.703125 
L 7.71875 11.625 
Q 12.109375 9.234375 16.796875 8.0625 
Q 21.484375 6.890625 26.703125 6.890625 
Q 35.15625 6.890625 40.078125 11.328125 
Q 45.015625 15.765625 45.015625 23.390625 
Q 45.015625 31 40.078125 35.4375 
Q 35.15625 39.890625 26.703125 39.890625 
Q 22.75 39.890625 18.8125 39.015625 
Q 14.890625 38.140625 10.796875 36.28125 
z
" id="DejaVuSans-53"/>
      </defs>
      <g transform="translate(219.557622 190.878125)scale(0.12 -0.12)">
       <use xlink:href="#DejaVuSans-48"/>
       <use x="63.623047" xlink:href="#DejaVuSans-46"/>
       <use x="95.410156" xlink:href="#DejaVuSans-53"/>
      </g>
     </g>
    </g>
    <g id="xtick_3">
     <g id="line2d_3">
      <g>
       <use style="stroke:#000000;stroke-width:0.8;" x="314.382547" xlink:href="#me7e002a9dc" y="174.76"/>
      </g>
     </g>
     <g id="text_3">
      <!-- 1.0 -->
      <defs>
       <path d="M 12.40625 8.296875 
L 28.515625 8.296875 
L 28.515625 63.921875 
L 10.984375 60.40625 
L 10.984375 69.390625 
L 28.421875 72.90625 
L 38.28125 72.90625 
L 38.28125 8.296875 
L 54.390625 8.296875 
L 54.390625 0 
L 12.40625 0 
z
" id="DejaVuSans-49"/>
      </defs>
      <g transform="translate(304.840672 190.878125)scale(0.12 -0.12)">
       <use xlink:href="#DejaVuSans-49"/>
       <use x="63.623047" xlink:href="#DejaVuSans-46"/>
       <use x="95.410156" xlink:href="#DejaVuSans-48"/>
      </g>
     </g>
    </g>
    <g id="xtick_4">
     <g id="line2d_4">
      <g>
       <use style="stroke:#000000;stroke-width:0.8;" x="399.665598" xlink:href="#me7e002a9dc" y="174.76"/>
      </g>
     </g>
     <g id="text_4">
      <!-- 1.5 -->
      <g transform="translate(390.123723 190.878125)scale(0.12 -0.12)">
       <use xlink:href="#DejaVuSans-49"/>
       <use x="63.623047" xlink:href="#DejaVuSans-46"/>
       <use x="95.410156" xlink:href="#DejaVuSans-53"/>
      </g>
     </g>
    </g>
    <g id="xtick_5">
     <g id="line2d_5">
      <g>
       <use style="stroke:#000000;stroke-width:0.8;" x="484.948649" xlink:href="#me7e002a9dc" y="174.76"/>
      </g>
     </g>
     <g id="text_5">
      <!-- 2.0 -->
      <defs>
       <path d="M 19.1875 8.296875 
L 53.609375 8.296875 
L 53.609375 0 
L 7.328125 0 
L 7.328125 8.296875 
Q 12.9375 14.109375 22.625 23.890625 
Q 32.328125 33.6875 34.8125 36.53125 
Q 39.546875 41.84375 41.421875 45.53125 
Q 43.3125 49.21875 43.3125 52.78125 
Q 43.3125 58.59375 39.234375 62.25 
Q 35.15625 65.921875 28.609375 65.921875 
Q 23.96875 65.921875 18.8125 64.3125 
Q 13.671875 62.703125 7.8125 59.421875 
L 7.8125 69.390625 
Q 13.765625 71.78125 18.9375 73 
Q 24.125 74.21875 28.421875 74.21875 
Q 39.75 74.21875 46.484375 68.546875 
Q 53.21875 62.890625 53.21875 53.421875 
Q 53.21875 48.921875 51.53125 44.890625 
Q 49.859375 40.875 45.40625 35.40625 
Q 44.1875 33.984375 37.640625 27.21875 
Q 31.109375 20.453125 19.1875 8.296875 
z
" id="DejaVuSans-50"/>
      </defs>
      <g transform="translate(475.406774 190.878125)scale(0.12 -0.12)">
       <use xlink:href="#DejaVuSans-50"/>
       <use x="63.623047" xlink:href="#DejaVuSans-46"/>
       <use x="95.410156" xlink:href="#DejaVuSans-48"/>
      </g>
     </g>
    </g>
    <g id="text_6">
     <!-- Time (s) -->
     <defs>
      <path d="M -0.296875 72.90625 
L 61.375 72.90625 
L 61.375 64.59375 
L 35.5 64.59375 
L 35.5 0 
L 25.59375 0 
L 25.59375 64.59375 
L -0.296875 64.59375 
z
" id="DejaVuSans-84"/>
      <path d="M 9.421875 54.6875 
L 18.40625 54.6875 
L 18.40625 0 
L 9.421875 0 
z
M 9.421875 75.984375 
L 18.40625 75.984375 
L 18.40625 64.59375 
L 9.421875 64.59375 
z
" id="DejaVuSans-105"/>
      <path d="M 52 44.1875 
Q 55.375 50.25 60.0625 53.125 
Q 64.75 56 71.09375 56 
Q 79.640625 56 84.28125 50.015625 
Q 88.921875 44.046875 88.921875 33.015625 
L 88.921875 0 
L 79.890625 0 
L 79.890625 32.71875 
Q 79.890625 40.578125 77.09375 44.375 
Q 74.3125 48.1875 68.609375 48.1875 
Q 61.625 48.1875 57.5625 43.546875 
Q 53.515625 38.921875 53.515625 30.90625 
L 53.515625 0 
L 44.484375 0 
L 44.484375 32.71875 
Q 44.484375 40.625 41.703125 44.40625 
Q 38.921875 48.1875 33.109375 48.1875 
Q 26.21875 48.1875 22.15625 43.53125 
Q 18.109375 38.875 18.109375 30.90625 
L 18.109375 0 
L 9.078125 0 
L 9.078125 54.6875 
L 18.109375 54.6875 
L 18.109375 46.1875 
Q 21.1875 51.21875 25.484375 53.609375 
Q 29.78125 56 35.6875 56 
Q 41.65625 56 45.828125 52.96875 
Q 50 49.953125 52 44.1875 
z
" id="DejaVuSans-109"/>
      <path d="M 56.203125 29.59375 
L 56.203125 25.203125 
L 14.890625 25.203125 
Q 15.484375 15.921875 20.484375 11.0625 
Q 25.484375 6.203125 34.421875 6.203125 
Q 39.59375 6.203125 44.453125 7.46875 
Q 49.3125 8.734375 54.109375 11.28125 
L 54.109375 2.78125 
Q 49.265625 0.734375 44.1875 -0.34375 
Q 39.109375 -1.421875 33.890625 -1.421875 
Q 20.796875 -1.421875 13.15625 6.1875 
Q 5.515625 13.8125 5.515625 26.8125 
Q 5.515625 40.234375 12.765625 48.109375 
Q 20.015625 56 32.328125 56 
Q 43.359375 56 49.78125 48.890625 
Q 56.203125 41.796875 56.203125 29.59375 
z
M 47.21875 32.234375 
Q 47.125 39.59375 43.09375 43.984375 
Q 39.0625 48.390625 32.421875 48.390625 
Q 24.90625 48.390625 20.390625 44.140625 
Q 15.875 39.890625 15.1875 32.171875 
z
" id="DejaVuSans-101"/>
      <path id="DejaVuSans-32"/>
      <path d="M 31 75.875 
Q 24.46875 64.65625 21.28125 53.65625 
Q 18.109375 42.671875 18.109375 31.390625 
Q 18.109375 20.125 21.3125 9.0625 
Q 24.515625 -2 31 -13.1875 
L 23.1875 -13.1875 
Q 15.875 -1.703125 12.234375 9.375 
Q 8.59375 20.453125 8.59375 31.390625 
Q 8.59375 42.28125 12.203125 53.3125 
Q 15.828125 64.359375 23.1875 75.875 
z
" id="DejaVuSans-40"/>
      <path d="M 44.28125 53.078125 
L 44.28125 44.578125 
Q 40.484375 46.53125 36.375 47.5 
Q 32.28125 48.484375 27.875 48.484375 
Q 21.1875 48.484375 17.84375 46.4375 
Q 14.5 44.390625 14.5 40.28125 
Q 14.5 37.15625 16.890625 35.375 
Q 19.28125 33.59375 26.515625 31.984375 
L 29.59375 31.296875 
Q 39.15625 29.25 43.1875 25.515625 
Q 47.21875 21.78125 47.21875 15.09375 
Q 47.21875 7.46875 41.1875 3.015625 
Q 35.15625 -1.421875 24.609375 -1.421875 
Q 20.21875 -1.421875 15.453125 -0.5625 
Q 10.6875 0.296875 5.421875 2 
L 5.421875 11.28125 
Q 10.40625 8.6875 15.234375 7.390625 
Q 20.0625 6.109375 24.8125 6.109375 
Q 31.15625 6.109375 34.5625 8.28125 
Q 37.984375 10.453125 37.984375 14.40625 
Q 37.984375 18.0625 35.515625 20.015625 
Q 33.0625 21.96875 24.703125 23.78125 
L 21.578125 24.515625 
Q 13.234375 26.265625 9.515625 29.90625 
Q 5.8125 33.546875 5.8125 39.890625 
Q 5.8125 47.609375 11.28125 51.796875 
Q 16.75 56 26.8125 56 
Q 31.78125 56 36.171875 55.265625 
Q 40.578125 54.546875 44.28125 53.078125 
z
" id="DejaVuSans-115"/>
      <path d="M 8.015625 75.875 
L 15.828125 75.875 
Q 23.140625 64.359375 26.78125 53.3125 
Q 30.421875 42.28125 30.421875 31.390625 
Q 30.421875 20.453125 26.78125 9.375 
Q 23.140625 -1.703125 15.828125 -13.1875 
L 8.015625 -13.1875 
Q 14.5 -2 17.703125 9.0625 
Q 20.90625 20.125 20.90625 31.390625 
Q 20.90625 42.671875 17.703125 53.65625 
Q 14.5 64.65625 8.015625 75.875 
z
" id="DejaVuSans-41"/>
     </defs>
     <g transform="translate(284.11975 208.3155)scale(0.144 -0.144)">
      <use xlink:href="#DejaVuSans-84"/>
      <use x="61.037109" xlink:href="#DejaVuSans-105"/>
      <use x="88.820312" xlink:href="#DejaVuSans-109"/>
      <use x="186.232422" xlink:href="#DejaVuSans-101"/>
      <use x="247.755859" xlink:href="#DejaVuSans-32"/>
      <use x="279.542969" xlink:href="#DejaVuSans-40"/>
      <use x="318.556641" xlink:href="#DejaVuSans-115"/>
      <use x="370.65625" xlink:href="#DejaVuSans-41"/>
     </g>
    </g>
   </g>
   <g id="matplotlib.axis_2">
    <g id="ytick_1">
     <g id="line2d_6">
      <defs>
       <path d="M 0 0 
L -3.5 0 
" id="me04ff6152a" style="stroke:#000000;stroke-width:0.8;"/>
      </defs>
      <g>
       <use style="stroke:#000000;stroke-width:0.8;" x="62.03" xlink:href="#me04ff6152a" y="174.76"/>
      </g>
     </g>
     <g id="text_7">
      <!-- 0.00 -->
      <g transform="translate(28.31125 179.319062)scale(0.12 -0.12)">
       <use xlink:href="#DejaVuSans-48"/>
       <use x="63.623047" xlink:href="#DejaVuSans-46"/>
       <use x="95.410156" xlink:href="#DejaVuSans-48"/>
       <use x="159.033203" xlink:href="#DejaVuSans-48"/>
      </g>
     </g>
    </g>
    <g id="ytick_2">
     <g id="line2d_7">
      <g>
       <use style="stroke:#000000;stroke-width:0.8;" x="62.03" xlink:href="#me04ff6152a" y="153.195856"/>
      </g>
     </g>
     <g id="text_8">
      <!-- 0.01 -->
      <g transform="translate(28.31125 157.754918)scale(0.12 -0.12)">
       <use xlink:href="#DejaVuSans-48"/>
       <use x="63.623047" xlink:href="#DejaVuSans-46"/>
       <use x="95.410156" xlink:href="#DejaVuSans-48"/>
       <use x="159.033203" xlink:href="#DejaVuSans-49"/>
      </g>
     </g>
    </g>
    <g id="ytick_3">
     <g id="line2d_8">
      <g>
       <use style="stroke:#000000;stroke-width:0.8;" x="62.03" xlink:href="#me04ff6152a" y="131.631712"/>
      </g>
     </g>
     <g id="text_9">
      <!-- 0.02 -->
      <g transform="translate(28.31125 136.190774)scale(0.12 -0.12)">
       <use xlink:href="#DejaVuSans-48"/>
       <use x="63.623047" xlink:href="#DejaVuSans-46"/>
       <use x="95.410156" xlink:href="#DejaVuSans-48"/>
       <use x="159.033203" xlink:href="#DejaVuSans-50"/>
      </g>
     </g>
    </g>
    <g id="ytick_4">
     <g id="line2d_9">
      <g>
       <use style="stroke:#000000;stroke-width:0.8;" x="62.03" xlink:href="#me04ff6152a" y="110.067567"/>
      </g>
     </g>
     <g id="text_10">
      <!-- 0.03 -->
      <defs>
       <path d="M 40.578125 39.3125 
Q 47.65625 37.796875 51.625 33 
Q 55.609375 28.21875 55.609375 21.1875 
Q 55.609375 10.40625 48.1875 4.484375 
Q 40.765625 -1.421875 27.09375 -1.421875 
Q 22.515625 -1.421875 17.65625 -0.515625 
Q 12.796875 0.390625 7.625 2.203125 
L 7.625 11.71875 
Q 11.71875 9.328125 16.59375 8.109375 
Q 21.484375 6.890625 26.8125 6.890625 
Q 36.078125 6.890625 40.9375 10.546875 
Q 45.796875 14.203125 45.796875 21.1875 
Q 45.796875 27.640625 41.28125 31.265625 
Q 36.765625 34.90625 28.71875 34.90625 
L 20.21875 34.90625 
L 20.21875 43.015625 
L 29.109375 43.015625 
Q 36.375 43.015625 40.234375 45.921875 
Q 44.09375 48.828125 44.09375 54.296875 
Q 44.09375 59.90625 40.109375 62.90625 
Q 36.140625 65.921875 28.71875 65.921875 
Q 24.65625 65.921875 20.015625 65.03125 
Q 15.375 64.15625 9.8125 62.3125 
L 9.8125 71.09375 
Q 15.4375 72.65625 20.34375 73.4375 
Q 25.25 74.21875 29.59375 74.21875 
Q 40.828125 74.21875 47.359375 69.109375 
Q 53.90625 64.015625 53.90625 55.328125 
Q 53.90625 49.265625 50.4375 45.09375 
Q 46.96875 40.921875 40.578125 39.3125 
z
" id="DejaVuSans-51"/>
      </defs>
      <g transform="translate(28.31125 114.62663)scale(0.12 -0.12)">
       <use xlink:href="#DejaVuSans-48"/>
       <use x="63.623047" xlink:href="#DejaVuSans-46"/>
       <use x="95.410156" xlink:href="#DejaVuSans-48"/>
       <use x="159.033203" xlink:href="#DejaVuSans-51"/>
      </g>
     </g>
    </g>
    <g id="ytick_5">
     <g id="line2d_10">
      <g>
       <use style="stroke:#000000;stroke-width:0.8;" x="62.03" xlink:href="#me04ff6152a" y="88.503423"/>
      </g>
     </g>
     <g id="text_11">
      <!-- 0.04 -->
      <defs>
       <path d="M 37.796875 64.3125 
L 12.890625 25.390625 
L 37.796875 25.390625 
z
M 35.203125 72.90625 
L 47.609375 72.90625 
L 47.609375 25.390625 
L 58.015625 25.390625 
L 58.015625 17.1875 
L 47.609375 17.1875 
L 47.609375 0 
L 37.796875 0 
L 37.796875 17.1875 
L 4.890625 17.1875 
L 4.890625 26.703125 
z
" id="DejaVuSans-52"/>
      </defs>
      <g transform="translate(28.31125 93.062486)scale(0.12 -0.12)">
       <use xlink:href="#DejaVuSans-48"/>
       <use x="63.623047" xlink:href="#DejaVuSans-46"/>
       <use x="95.410156" xlink:href="#DejaVuSans-48"/>
       <use x="159.033203" xlink:href="#DejaVuSans-52"/>
      </g>
     </g>
    </g>
    <g id="ytick_6">
     <g id="line2d_11">
      <g>
       <use style="stroke:#000000;stroke-width:0.8;" x="62.03" xlink:href="#me04ff6152a" y="66.939279"/>
      </g>
     </g>
     <g id="text_12">
      <!-- 0.05 -->
      <g transform="translate(28.31125 71.498341)scale(0.12 -0.12)">
       <use xlink:href="#DejaVuSans-48"/>
       <use x="63.623047" xlink:href="#DejaVuSans-46"/>
       <use x="95.410156" xlink:href="#DejaVuSans-48"/>
       <use x="159.033203" xlink:href="#DejaVuSans-53"/>
      </g>
     </g>
    </g>
    <g id="ytick_7">
     <g id="line2d_12">
      <g>
       <use style="stroke:#000000;stroke-width:0.8;" x="62.03" xlink:href="#me04ff6152a" y="45.375135"/>
      </g>
     </g>
     <g id="text_13">
      <!-- 0.06 -->
      <defs>
       <path d="M 33.015625 40.375 
Q 26.375 40.375 22.484375 35.828125 
Q 18.609375 31.296875 18.609375 23.390625 
Q 18.609375 15.53125 22.484375 10.953125 
Q 26.375 6.390625 33.015625 6.390625 
Q 39.65625 6.390625 43.53125 10.953125 
Q 47.40625 15.53125 47.40625 23.390625 
Q 47.40625 31.296875 43.53125 35.828125 
Q 39.65625 40.375 33.015625 40.375 
z
M 52.59375 71.296875 
L 52.59375 62.3125 
Q 48.875 64.0625 45.09375 64.984375 
Q 41.3125 65.921875 37.59375 65.921875 
Q 27.828125 65.921875 22.671875 59.328125 
Q 17.53125 52.734375 16.796875 39.40625 
Q 19.671875 43.65625 24.015625 45.921875 
Q 28.375 48.1875 33.59375 48.1875 
Q 44.578125 48.1875 50.953125 41.515625 
Q 57.328125 34.859375 57.328125 23.390625 
Q 57.328125 12.15625 50.6875 5.359375 
Q 44.046875 -1.421875 33.015625 -1.421875 
Q 20.359375 -1.421875 13.671875 8.265625 
Q 6.984375 17.96875 6.984375 36.375 
Q 6.984375 53.65625 15.1875 63.9375 
Q 23.390625 74.21875 37.203125 74.21875 
Q 40.921875 74.21875 44.703125 73.484375 
Q 48.484375 72.75 52.59375 71.296875 
z
" id="DejaVuSans-54"/>
      </defs>
      <g transform="translate(28.31125 49.934197)scale(0.12 -0.12)">
       <use xlink:href="#DejaVuSans-48"/>
       <use x="63.623047" xlink:href="#DejaVuSans-46"/>
       <use x="95.410156" xlink:href="#DejaVuSans-48"/>
       <use x="159.033203" xlink:href="#DejaVuSans-54"/>
      </g>
     </g>
    </g>
    <g id="text_14">
     <!-- Avg. Corr. Coef. -->
     <defs>
      <path d="M 34.1875 63.1875 
L 20.796875 26.90625 
L 47.609375 26.90625 
z
M 28.609375 72.90625 
L 39.796875 72.90625 
L 67.578125 0 
L 57.328125 0 
L 50.6875 18.703125 
L 17.828125 18.703125 
L 11.1875 0 
L 0.78125 0 
z
" id="DejaVuSans-65"/>
      <path d="M 2.984375 54.6875 
L 12.5 54.6875 
L 29.59375 8.796875 
L 46.6875 54.6875 
L 56.203125 54.6875 
L 35.6875 0 
L 23.484375 0 
z
" id="DejaVuSans-118"/>
      <path d="M 45.40625 27.984375 
Q 45.40625 37.75 41.375 43.109375 
Q 37.359375 48.484375 30.078125 48.484375 
Q 22.859375 48.484375 18.828125 43.109375 
Q 14.796875 37.75 14.796875 27.984375 
Q 14.796875 18.265625 18.828125 12.890625 
Q 22.859375 7.515625 30.078125 7.515625 
Q 37.359375 7.515625 41.375 12.890625 
Q 45.40625 18.265625 45.40625 27.984375 
z
M 54.390625 6.78125 
Q 54.390625 -7.171875 48.1875 -13.984375 
Q 42 -20.796875 29.203125 -20.796875 
Q 24.46875 -20.796875 20.265625 -20.09375 
Q 16.0625 -19.390625 12.109375 -17.921875 
L 12.109375 -9.1875 
Q 16.0625 -11.328125 19.921875 -12.34375 
Q 23.78125 -13.375 27.78125 -13.375 
Q 36.625 -13.375 41.015625 -8.765625 
Q 45.40625 -4.15625 45.40625 5.171875 
L 45.40625 9.625 
Q 42.625 4.78125 38.28125 2.390625 
Q 33.9375 0 27.875 0 
Q 17.828125 0 11.671875 7.65625 
Q 5.515625 15.328125 5.515625 27.984375 
Q 5.515625 40.671875 11.671875 48.328125 
Q 17.828125 56 27.875 56 
Q 33.9375 56 38.28125 53.609375 
Q 42.625 51.21875 45.40625 46.390625 
L 45.40625 54.6875 
L 54.390625 54.6875 
z
" id="DejaVuSans-103"/>
      <path d="M 64.40625 67.28125 
L 64.40625 56.890625 
Q 59.421875 61.53125 53.78125 63.8125 
Q 48.140625 66.109375 41.796875 66.109375 
Q 29.296875 66.109375 22.65625 58.46875 
Q 16.015625 50.828125 16.015625 36.375 
Q 16.015625 21.96875 22.65625 14.328125 
Q 29.296875 6.6875 41.796875 6.6875 
Q 48.140625 6.6875 53.78125 8.984375 
Q 59.421875 11.28125 64.40625 15.921875 
L 64.40625 5.609375 
Q 59.234375 2.09375 53.4375 0.328125 
Q 47.65625 -1.421875 41.21875 -1.421875 
Q 24.65625 -1.421875 15.125 8.703125 
Q 5.609375 18.84375 5.609375 36.375 
Q 5.609375 53.953125 15.125 64.078125 
Q 24.65625 74.21875 41.21875 74.21875 
Q 47.75 74.21875 53.53125 72.484375 
Q 59.328125 70.75 64.40625 67.28125 
z
" id="DejaVuSans-67"/>
      <path d="M 30.609375 48.390625 
Q 23.390625 48.390625 19.1875 42.75 
Q 14.984375 37.109375 14.984375 27.296875 
Q 14.984375 17.484375 19.15625 11.84375 
Q 23.34375 6.203125 30.609375 6.203125 
Q 37.796875 6.203125 41.984375 11.859375 
Q 46.1875 17.53125 46.1875 27.296875 
Q 46.1875 37.015625 41.984375 42.703125 
Q 37.796875 48.390625 30.609375 48.390625 
z
M 30.609375 56 
Q 42.328125 56 49.015625 48.375 
Q 55.71875 40.765625 55.71875 27.296875 
Q 55.71875 13.875 49.015625 6.21875 
Q 42.328125 -1.421875 30.609375 -1.421875 
Q 18.84375 -1.421875 12.171875 6.21875 
Q 5.515625 13.875 5.515625 27.296875 
Q 5.515625 40.765625 12.171875 48.375 
Q 18.84375 56 30.609375 56 
z
" id="DejaVuSans-111"/>
      <path d="M 41.109375 46.296875 
Q 39.59375 47.171875 37.8125 47.578125 
Q 36.03125 48 33.890625 48 
Q 26.265625 48 22.1875 43.046875 
Q 18.109375 38.09375 18.109375 28.8125 
L 18.109375 0 
L 9.078125 0 
L 9.078125 54.6875 
L 18.109375 54.6875 
L 18.109375 46.1875 
Q 20.953125 51.171875 25.484375 53.578125 
Q 30.03125 56 36.53125 56 
Q 37.453125 56 38.578125 55.875 
Q 39.703125 55.765625 41.0625 55.515625 
z
" id="DejaVuSans-114"/>
      <path d="M 37.109375 75.984375 
L 37.109375 68.5 
L 28.515625 68.5 
Q 23.6875 68.5 21.796875 66.546875 
Q 19.921875 64.59375 19.921875 59.515625 
L 19.921875 54.6875 
L 34.71875 54.6875 
L 34.71875 47.703125 
L 19.921875 47.703125 
L 19.921875 0 
L 10.890625 0 
L 10.890625 47.703125 
L 2.296875 47.703125 
L 2.296875 54.6875 
L 10.890625 54.6875 
L 10.890625 58.5 
Q 10.890625 67.625 15.140625 71.796875 
Q 19.390625 75.984375 28.609375 75.984375 
z
" id="DejaVuSans-102"/>
     </defs>
     <g transform="translate(21.3165 157.745)rotate(-90)scale(0.144 -0.144)">
      <use xlink:href="#DejaVuSans-65"/>
      <use x="68.330078" xlink:href="#DejaVuSans-118"/>
      <use x="127.509766" xlink:href="#DejaVuSans-103"/>
      <use x="190.986328" xlink:href="#DejaVuSans-46"/>
      <use x="222.773438" xlink:href="#DejaVuSans-32"/>
      <use x="254.560547" xlink:href="#DejaVuSans-67"/>
      <use x="324.384766" xlink:href="#DejaVuSans-111"/>
      <use x="385.566406" xlink:href="#DejaVuSans-114"/>
      <use x="426.664062" xlink:href="#DejaVuSans-114"/>
      <use x="467.636719" xlink:href="#DejaVuSans-46"/>
      <use x="499.423828" xlink:href="#DejaVuSans-32"/>
      <use x="531.210938" xlink:href="#DejaVuSans-67"/>
      <use x="601.035156" xlink:href="#DejaVuSans-111"/>
      <use x="662.216797" xlink:href="#DejaVuSans-101"/>
      <use x="723.740234" xlink:href="#DejaVuSans-102"/>
      <use x="758.835938" xlink:href="#DejaVuSans-46"/>
     </g>
    </g>
   </g>
   <g id="line2d_13">
    <path clip-path="url(#pdcfa6957be)" d="M 62.03 175.516436 
L 63.735661 174.676217 
L 65.441322 176.180526 
L 67.146983 176.579605 
L 68.852644 176.863117 
L 70.558305 181.16909 
L 72.263966 172.655588 
L 73.969627 176.672495 
L 75.675288 177.135217 
L 77.380949 171.539485 
L 79.08661 175.419394 
L 80.792271 176.641348 
L 82.497932 181.717016 
L 84.203593 188.077592 
L 85.909254 175.72069 
L 87.614915 180.414081 
L 89.320576 175.884713 
L 91.026237 172.95984 
L 92.731898 177.273393 
L 94.437559 173.258171 
L 96.14322 175.290007 
L 97.848881 196.541964 
L 99.554542 176.428824 
L 101.260203 196.541964 
L 102.965864 183.405505 
L 104.671525 182.303788 
L 106.377186 184.541689 
L 108.082847 179.657835 
L 109.788508 172.486841 
L 111.494169 176.203937 
L 113.199831 174.545881 
L 114.905492 182.502866 
L 116.611153 185.303062 
L 118.316814 196.541964 
L 120.022475 185.563151 
L 121.728136 195.847422 
L 123.433797 176.157956 
L 125.139458 179.244699 
L 126.845119 181.988397 
L 128.55078 176.709856 
L 130.256441 174.862556 
L 131.962102 182.933357 
L 133.667763 175.202065 
L 135.373424 178.964607 
L 137.079085 181.152625 
L 138.784746 180.81607 
L 140.490407 196.541964 
L 142.196068 178.219081 
L 143.901729 184.868865 
M 147.313051 198.918638 
L 149.018712 176.608478 
L 150.724373 179.037137 
L 152.430034 185.083384 
L 154.135695 192.496242 
L 155.841356 193.88004 
L 157.547017 172.684258 
L 159.252678 175.29366 
L 160.958339 171.01453 
L 162.664 179.430539 
L 164.369661 196.541964 
L 166.075322 177.005865 
L 167.780983 177.123432 
L 169.486644 183.824104 
L 171.192305 187.819408 
L 172.897966 189.121525 
L 174.603627 196.541964 
L 176.309288 179.797478 
L 178.014949 175.092899 
L 179.72061 175.413392 
L 181.426271 201.599417 
L 183.131932 180.100277 
L 184.837593 177.544887 
L 186.543254 174.587505 
L 188.248915 169.881906 
L 189.954576 192.328599 
L 191.660237 178.858828 
L 193.365898 174.850748 
L 195.071559 177.10144 
L 196.77722 162.111118 
L 198.482881 186.393668 
L 200.188542 196.541964 
L 201.894203 176.558635 
L 203.599864 174.669074 
L 205.305525 196.541964 
L 207.011186 184.282383 
L 208.716847 161.419779 
L 210.422508 177.063623 
L 212.128169 180.020544 
L 213.833831 175.391291 
L 215.539492 179.810221 
L 217.245153 178.289596 
L 218.950814 177.903078 
L 220.656475 175.526068 
L 222.362136 179.988376 
L 224.067797 196.541964 
L 225.773458 178.907123 
L 227.479119 182.071191 
L 229.18478 202.098587 
L 230.890441 196.541964 
L 232.596102 197.667824 
L 234.301763 97.156286 
L 236.007424 198.153627 
L 237.713085 184.641047 
L 239.418746 188.415039 
L 241.124407 196.541964 
L 244.535729 196.541964 
L 246.24139 191.36022 
L 247.947051 182.474771 
L 249.652712 177.385476 
L 251.358373 177.680251 
L 253.064034 196.541964 
L 254.769695 185.952646 
L 256.475356 177.116647 
L 258.181017 196.541964 
L 259.886678 179.932412 
L 261.592339 169.713822 
L 263.298 176.431617 
L 265.003661 177.525605 
L 266.709322 194.000617 
L 268.414983 187.642954 
L 270.120644 175.794558 
L 271.826305 176.601675 
L 273.531966 181.615117 
L 275.237627 192.93654 
L 276.943288 196.541964 
L 278.648949 175.841195 
L 280.35461 184.346844 
L 282.060271 176.999251 
L 283.765932 196.541964 
L 285.471593 183.635474 
L 287.177254 196.541964 
L 288.882915 183.657389 
L 290.588576 182.103624 
L 292.294237 182.744538 
L 293.999898 196.541964 
L 295.705559 196.541964 
L 297.41122 177.057857 
L 299.116881 192.960246 
L 300.822542 199.356615 
L 302.528203 196.541964 
L 305.939525 196.541964 
L 307.645186 180.854061 
L 309.350847 176.054478 
L 311.056508 183.823109 
L 312.762169 192.443873 
L 314.467831 174.116533 
L 316.173492 176.201154 
L 317.879153 180.192625 
L 319.584814 182.601983 
L 321.290475 181.813636 
L 322.996136 186.472375 
L 324.701797 196.541964 
L 326.407458 179.539316 
L 328.113119 190.728385 
L 329.81878 187.556627 
L 331.524441 194.647145 
L 333.230102 197.620478 
L 334.935763 190.282779 
L 336.641424 172.780712 
L 338.347085 184.241657 
L 340.052746 196.541964 
L 341.758407 173.285942 
L 343.464068 181.991428 
L 345.169729 182.292235 
L 346.87539 207.045589 
L 348.581051 177.533797 
L 350.286712 196.541964 
L 351.992373 182.078448 
L 353.698034 177.504613 
L 355.403695 163.913279 
L 357.109356 189.224688 
L 358.815017 196.541964 
L 360.520678 196.541964 
L 362.226339 177.207931 
L 363.932 196.541964 
L 365.637661 194.031175 
L 367.343322 196.541964 
L 369.048983 196.541964 
L 370.754644 139.221006 
L 372.460305 196.541964 
L 374.165966 183.229647 
L 375.871627 177.583507 
L 377.577288 196.541964 
L 379.282949 196.541964 
L 380.98861 191.175856 
L 382.694271 196.541964 
L 384.399932 197.623269 
L 386.105593 196.541964 
M 389.516915 197.566703 
L 391.222576 165.922491 
L 392.928237 182.767739 
L 394.633898 169.107662 
L 396.339559 192.227351 
L 398.04522 196.541964 
L 399.750881 178.727198 
L 401.456542 196.541964 
L 403.162203 183.449419 
L 404.867864 196.541964 
L 406.573525 187.813301 
L 408.279186 182.870686 
L 409.984847 176.849985 
L 411.690508 182.946952 
L 413.396169 195.159252 
L 415.101831 179.587328 
L 416.807492 196.541964 
L 418.513153 173.194349 
L 420.218814 189.06152 
L 421.924475 196.541964 
L 423.630136 183.529499 
L 425.335797 181.547104 
L 427.041458 191.201462 
L 428.747119 196.541964 
L 430.45278 195.060198 
L 432.158441 182.211724 
L 433.864102 174.596162 
L 435.569763 177.146029 
L 437.275424 173.893168 
L 438.981085 175.321995 
L 440.686746 176.261927 
L 442.392407 175.290367 
L 444.098068 176.215521 
L 445.803729 174.673153 
L 447.50939 175.40618 
L 449.215051 173.984393 
L 450.920712 174.998874 
L 452.626373 175.482122 
L 454.332034 176.157541 
L 456.037695 173.59294 
L 457.743356 176.56456 
L 459.449017 175.105003 
L 461.154678 178.352079 
L 462.860339 175.781194 
L 464.566 175.693054 
L 466.271661 175.333921 
L 467.977322 176.779925 
L 469.682983 175.487427 
L 471.388644 174.60118 
L 473.094305 174.010924 
L 474.799966 174.63412 
L 476.505627 173.270563 
L 478.211288 174.300197 
L 479.916949 176.8823 
L 481.62261 174.107495 
L 483.328271 175.214164 
L 485.033932 174.398135 
L 486.739593 175.956015 
L 490.150915 175.727436 
L 491.856576 178.90309 
L 493.562237 175.619325 
L 495.267898 177.021668 
L 498.67922 173.71444 
L 502.090542 176.156046 
L 503.796203 172.531422 
L 505.501864 175.117989 
L 507.207525 174.668039 
L 508.913186 175.409995 
L 510.618847 177.48558 
L 512.324508 174.24704 
L 514.030169 176.124232 
L 515.735831 175.844505 
L 517.441492 175.98466 
L 519.147153 176.426012 
L 520.852814 175.997283 
L 522.558475 176.153509 
L 524.264136 174.09645 
L 525.969797 173.654156 
L 527.675458 175.151816 
L 529.381119 175.064586 
L 531.08678 175.155383 
L 532.792441 175.569934 
L 534.498102 178.040847 
L 536.203763 178.859207 
L 537.909424 176.761669 
L 539.615085 169.347295 
L 541.320746 175.27261 
L 543.026407 177.857567 
L 544.732068 177.078955 
L 546.437729 174.991505 
L 548.14339 180.374216 
L 549.849051 174.507356 
L 551.554712 176.115862 
L 553.260373 178.312969 
L 554.966034 171.109923 
L 556.671695 176.513821 
L 558.377356 177.189836 
L 560.083017 183.64845 
M 563.494339 192.38216 
L 565.2 168.421576 
L 565.2 168.421576 
" style="fill:none;stroke:#0000ff;stroke-linecap:square;stroke-width:1.5;"/>
   </g>
   <g id="patch_3">
    <path d="M 62.03 174.76 
L 62.03 26.88 
" style="fill:none;stroke:#000000;stroke-linecap:square;stroke-linejoin:miter;stroke-width:0.8;"/>
   </g>
   <g id="patch_4">
    <path d="M 565.2 174.76 
L 565.2 26.88 
" style="fill:none;stroke:#000000;stroke-linecap:square;stroke-linejoin:miter;stroke-width:0.8;"/>
   </g>
   <g id="patch_5">
    <path d="M 62.03 174.76 
L 565.2 174.76 
" style="fill:none;stroke:#000000;stroke-linecap:square;stroke-linejoin:miter;stroke-width:0.8;"/>
   </g>
   <g id="patch_6">
    <path d="M 62.03 26.88 
L 565.2 26.88 
" style="fill:none;stroke:#000000;stroke-linecap:square;stroke-linejoin:miter;stroke-width:0.8;"/>
   </g>
   <g id="text_15">
    <!-- Thalamus, Num Trials=10 All unstimulated trials, Num cells = 610 -->
    <defs>
     <path d="M 54.890625 33.015625 
L 54.890625 0 
L 45.90625 0 
L 45.90625 32.71875 
Q 45.90625 40.484375 42.875 44.328125 
Q 39.84375 48.1875 33.796875 48.1875 
Q 26.515625 48.1875 22.3125 43.546875 
Q 18.109375 38.921875 18.109375 30.90625 
L 18.109375 0 
L 9.078125 0 
L 9.078125 75.984375 
L 18.109375 75.984375 
L 18.109375 46.1875 
Q 21.34375 51.125 25.703125 53.5625 
Q 30.078125 56 35.796875 56 
Q 45.21875 56 50.046875 50.171875 
Q 54.890625 44.34375 54.890625 33.015625 
z
" id="DejaVuSans-104"/>
     <path d="M 34.28125 27.484375 
Q 23.390625 27.484375 19.1875 25 
Q 14.984375 22.515625 14.984375 16.5 
Q 14.984375 11.71875 18.140625 8.90625 
Q 21.296875 6.109375 26.703125 6.109375 
Q 34.1875 6.109375 38.703125 11.40625 
Q 43.21875 16.703125 43.21875 25.484375 
L 43.21875 27.484375 
z
M 52.203125 31.203125 
L 52.203125 0 
L 43.21875 0 
L 43.21875 8.296875 
Q 40.140625 3.328125 35.546875 0.953125 
Q 30.953125 -1.421875 24.3125 -1.421875 
Q 15.921875 -1.421875 10.953125 3.296875 
Q 6 8.015625 6 15.921875 
Q 6 25.140625 12.171875 29.828125 
Q 18.359375 34.515625 30.609375 34.515625 
L 43.21875 34.515625 
L 43.21875 35.40625 
Q 43.21875 41.609375 39.140625 45 
Q 35.0625 48.390625 27.6875 48.390625 
Q 23 48.390625 18.546875 47.265625 
Q 14.109375 46.140625 10.015625 43.890625 
L 10.015625 52.203125 
Q 14.9375 54.109375 19.578125 55.046875 
Q 24.21875 56 28.609375 56 
Q 40.484375 56 46.34375 49.84375 
Q 52.203125 43.703125 52.203125 31.203125 
z
" id="DejaVuSans-97"/>
     <path d="M 9.421875 75.984375 
L 18.40625 75.984375 
L 18.40625 0 
L 9.421875 0 
z
" id="DejaVuSans-108"/>
     <path d="M 8.5 21.578125 
L 8.5 54.6875 
L 17.484375 54.6875 
L 17.484375 21.921875 
Q 17.484375 14.15625 20.5 10.265625 
Q 23.53125 6.390625 29.59375 6.390625 
Q 36.859375 6.390625 41.078125 11.03125 
Q 45.3125 15.671875 45.3125 23.6875 
L 45.3125 54.6875 
L 54.296875 54.6875 
L 54.296875 0 
L 45.3125 0 
L 45.3125 8.40625 
Q 42.046875 3.421875 37.71875 1 
Q 33.40625 -1.421875 27.6875 -1.421875 
Q 18.265625 -1.421875 13.375 4.4375 
Q 8.5 10.296875 8.5 21.578125 
z
M 31.109375 56 
z
" id="DejaVuSans-117"/>
     <path d="M 11.71875 12.40625 
L 22.015625 12.40625 
L 22.015625 4 
L 14.015625 -11.625 
L 7.71875 -11.625 
L 11.71875 4 
z
" id="DejaVuSans-44"/>
     <path d="M 9.8125 72.90625 
L 23.09375 72.90625 
L 55.421875 11.921875 
L 55.421875 72.90625 
L 64.984375 72.90625 
L 64.984375 0 
L 51.703125 0 
L 19.390625 60.984375 
L 19.390625 0 
L 9.8125 0 
z
" id="DejaVuSans-78"/>
     <path d="M 10.59375 45.40625 
L 73.1875 45.40625 
L 73.1875 37.203125 
L 10.59375 37.203125 
z
M 10.59375 25.484375 
L 73.1875 25.484375 
L 73.1875 17.1875 
L 10.59375 17.1875 
z
" id="DejaVuSans-61"/>
     <path d="M 54.890625 33.015625 
L 54.890625 0 
L 45.90625 0 
L 45.90625 32.71875 
Q 45.90625 40.484375 42.875 44.328125 
Q 39.84375 48.1875 33.796875 48.1875 
Q 26.515625 48.1875 22.3125 43.546875 
Q 18.109375 38.921875 18.109375 30.90625 
L 18.109375 0 
L 9.078125 0 
L 9.078125 54.6875 
L 18.109375 54.6875 
L 18.109375 46.1875 
Q 21.34375 51.125 25.703125 53.5625 
Q 30.078125 56 35.796875 56 
Q 45.21875 56 50.046875 50.171875 
Q 54.890625 44.34375 54.890625 33.015625 
z
" id="DejaVuSans-110"/>
     <path d="M 18.3125 70.21875 
L 18.3125 54.6875 
L 36.8125 54.6875 
L 36.8125 47.703125 
L 18.3125 47.703125 
L 18.3125 18.015625 
Q 18.3125 11.328125 20.140625 9.421875 
Q 21.96875 7.515625 27.59375 7.515625 
L 36.8125 7.515625 
L 36.8125 0 
L 27.59375 0 
Q 17.1875 0 13.234375 3.875 
Q 9.28125 7.765625 9.28125 18.015625 
L 9.28125 47.703125 
L 2.6875 47.703125 
L 2.6875 54.6875 
L 9.28125 54.6875 
L 9.28125 70.21875 
z
" id="DejaVuSans-116"/>
     <path d="M 45.40625 46.390625 
L 45.40625 75.984375 
L 54.390625 75.984375 
L 54.390625 0 
L 45.40625 0 
L 45.40625 8.203125 
Q 42.578125 3.328125 38.25 0.953125 
Q 33.9375 -1.421875 27.875 -1.421875 
Q 17.96875 -1.421875 11.734375 6.484375 
Q 5.515625 14.40625 5.515625 27.296875 
Q 5.515625 40.1875 11.734375 48.09375 
Q 17.96875 56 27.875 56 
Q 33.9375 56 38.25 53.625 
Q 42.578125 51.265625 45.40625 46.390625 
z
M 14.796875 27.296875 
Q 14.796875 17.390625 18.875 11.75 
Q 22.953125 6.109375 30.078125 6.109375 
Q 37.203125 6.109375 41.296875 11.75 
Q 45.40625 17.390625 45.40625 27.296875 
Q 45.40625 37.203125 41.296875 42.84375 
Q 37.203125 48.484375 30.078125 48.484375 
Q 22.953125 48.484375 18.875 42.84375 
Q 14.796875 37.203125 14.796875 27.296875 
z
" id="DejaVuSans-100"/>
     <path d="M 48.78125 52.59375 
L 48.78125 44.1875 
Q 44.96875 46.296875 41.140625 47.34375 
Q 37.3125 48.390625 33.40625 48.390625 
Q 24.65625 48.390625 19.8125 42.84375 
Q 14.984375 37.3125 14.984375 27.296875 
Q 14.984375 17.28125 19.8125 11.734375 
Q 24.65625 6.203125 33.40625 6.203125 
Q 37.3125 6.203125 41.140625 7.25 
Q 44.96875 8.296875 48.78125 10.40625 
L 48.78125 2.09375 
Q 45.015625 0.34375 40.984375 -0.53125 
Q 36.96875 -1.421875 32.421875 -1.421875 
Q 20.0625 -1.421875 12.78125 6.34375 
Q 5.515625 14.109375 5.515625 27.296875 
Q 5.515625 40.671875 12.859375 48.328125 
Q 20.21875 56 33.015625 56 
Q 37.15625 56 41.109375 55.140625 
Q 45.0625 54.296875 48.78125 52.59375 
z
" id="DejaVuSans-99"/>
    </defs>
    <g transform="translate(114.273437 20.88)scale(0.12 -0.12)">
     <use xlink:href="#DejaVuSans-84"/>
     <use x="61.083984" xlink:href="#DejaVuSans-104"/>
     <use x="124.462891" xlink:href="#DejaVuSans-97"/>
     <use x="185.742188" xlink:href="#DejaVuSans-108"/>
     <use x="213.525391" xlink:href="#DejaVuSans-97"/>
     <use x="274.804688" xlink:href="#DejaVuSans-109"/>
     <use x="372.216797" xlink:href="#DejaVuSans-117"/>
     <use x="435.595703" xlink:href="#DejaVuSans-115"/>
     <use x="487.695312" xlink:href="#DejaVuSans-44"/>
     <use x="519.482422" xlink:href="#DejaVuSans-32"/>
     <use x="551.269531" xlink:href="#DejaVuSans-78"/>
     <use x="626.074219" xlink:href="#DejaVuSans-117"/>
     <use x="689.453125" xlink:href="#DejaVuSans-109"/>
     <use x="786.865234" xlink:href="#DejaVuSans-32"/>
     <use x="818.652344" xlink:href="#DejaVuSans-84"/>
     <use x="879.517578" xlink:href="#DejaVuSans-114"/>
     <use x="920.630859" xlink:href="#DejaVuSans-105"/>
     <use x="948.414062" xlink:href="#DejaVuSans-97"/>
     <use x="1009.693359" xlink:href="#DejaVuSans-108"/>
     <use x="1037.476562" xlink:href="#DejaVuSans-115"/>
     <use x="1089.576172" xlink:href="#DejaVuSans-61"/>
     <use x="1173.365234" xlink:href="#DejaVuSans-49"/>
     <use x="1236.988281" xlink:href="#DejaVuSans-48"/>
     <use x="1300.611328" xlink:href="#DejaVuSans-32"/>
     <use x="1332.398438" xlink:href="#DejaVuSans-65"/>
     <use x="1400.806641" xlink:href="#DejaVuSans-108"/>
     <use x="1428.589844" xlink:href="#DejaVuSans-108"/>
     <use x="1456.373047" xlink:href="#DejaVuSans-32"/>
     <use x="1488.160156" xlink:href="#DejaVuSans-117"/>
     <use x="1551.539062" xlink:href="#DejaVuSans-110"/>
     <use x="1614.917969" xlink:href="#DejaVuSans-115"/>
     <use x="1667.017578" xlink:href="#DejaVuSans-116"/>
     <use x="1706.226562" xlink:href="#DejaVuSans-105"/>
     <use x="1734.009766" xlink:href="#DejaVuSans-109"/>
     <use x="1831.421875" xlink:href="#DejaVuSans-117"/>
     <use x="1894.800781" xlink:href="#DejaVuSans-108"/>
     <use x="1922.583984" xlink:href="#DejaVuSans-97"/>
     <use x="1983.863281" xlink:href="#DejaVuSans-116"/>
     <use x="2023.072266" xlink:href="#DejaVuSans-101"/>
     <use x="2084.595703" xlink:href="#DejaVuSans-100"/>
     <use x="2148.072266" xlink:href="#DejaVuSans-32"/>
     <use x="2179.859375" xlink:href="#DejaVuSans-116"/>
     <use x="2219.068359" xlink:href="#DejaVuSans-114"/>
     <use x="2260.181641" xlink:href="#DejaVuSans-105"/>
     <use x="2287.964844" xlink:href="#DejaVuSans-97"/>
     <use x="2349.244141" xlink:href="#DejaVuSans-108"/>
     <use x="2377.027344" xlink:href="#DejaVuSans-115"/>
     <use x="2429.126953" xlink:href="#DejaVuSans-44"/>
     <use x="2460.914062" xlink:href="#DejaVuSans-32"/>
     <use x="2492.701172" xlink:href="#DejaVuSans-78"/>
     <use x="2567.505859" xlink:href="#DejaVuSans-117"/>
     <use x="2630.884766" xlink:href="#DejaVuSans-109"/>
     <use x="2728.296875" xlink:href="#DejaVuSans-32"/>
     <use x="2760.083984" xlink:href="#DejaVuSans-99"/>
     <use x="2815.064453" xlink:href="#DejaVuSans-101"/>
     <use x="2876.587891" xlink:href="#DejaVuSans-108"/>
     <use x="2904.371094" xlink:href="#DejaVuSans-108"/>
     <use x="2932.154297" xlink:href="#DejaVuSans-115"/>
     <use x="2984.253906" xlink:href="#DejaVuSans-32"/>
     <use x="3016.041016" xlink:href="#DejaVuSans-61"/>
     <use x="3099.830078" xlink:href="#DejaVuSans-32"/>
     <use x="3131.617188" xlink:href="#DejaVuSans-54"/>
     <use x="3195.240234" xlink:href="#DejaVuSans-49"/>
     <use x="3258.863281" xlink:href="#DejaVuSans-48"/>
    </g>
   </g>
   <g id="legend_1">
    <g id="patch_7">
     <path d="M 458.469375 71.7075 
L 556.8 71.7075 
Q 559.2 71.7075 559.2 69.3075 
L 559.2 35.28 
Q 559.2 32.88 556.8 32.88 
L 458.469375 32.88 
Q 456.069375 32.88 456.069375 35.28 
L 456.069375 69.3075 
Q 456.069375 71.7075 458.469375 71.7075 
z
" style="fill:#ffffff;opacity:0.8;stroke:#cccccc;stroke-linejoin:miter;"/>
    </g>
    <g id="line2d_14">
     <path d="M 460.869375 42.598125 
L 484.869375 42.598125 
" style="fill:none;stroke:#0000ff;stroke-linecap:square;stroke-width:1.5;"/>
    </g>
    <g id="line2d_15"/>
    <g id="text_16">
     <!-- Avg. Corr. -->
     <g transform="translate(494.469375 46.798125)scale(0.12 -0.12)">
      <use xlink:href="#DejaVuSans-65"/>
      <use x="68.330078" xlink:href="#DejaVuSans-118"/>
      <use x="127.509766" xlink:href="#DejaVuSans-103"/>
      <use x="190.986328" xlink:href="#DejaVuSans-46"/>
      <use x="222.773438" xlink:href="#DejaVuSans-32"/>
      <use x="254.560547" xlink:href="#DejaVuSans-67"/>
      <use x="324.384766" xlink:href="#DejaVuSans-111"/>
      <use x="385.566406" xlink:href="#DejaVuSans-114"/>
      <use x="426.664062" xlink:href="#DejaVuSans-114"/>
      <use x="467.636719" xlink:href="#DejaVuSans-46"/>
     </g>
    </g>
    <g id="patch_8">
     <path d="M 460.869375 64.411875 
L 484.869375 64.411875 
L 484.869375 56.011875 
L 460.869375 56.011875 
z
" style="fill:#0000ff;opacity:0.3;stroke:#0000ff;stroke-linejoin:miter;"/>
    </g>
    <g id="text_17">
     <!-- Std. Err. -->
     <defs>
      <path d="M 53.515625 70.515625 
L 53.515625 60.890625 
Q 47.90625 63.578125 42.921875 64.890625 
Q 37.9375 66.21875 33.296875 66.21875 
Q 25.25 66.21875 20.875 63.09375 
Q 16.5 59.96875 16.5 54.203125 
Q 16.5 49.359375 19.40625 46.890625 
Q 22.3125 44.4375 30.421875 42.921875 
L 36.375 41.703125 
Q 47.40625 39.59375 52.65625 34.296875 
Q 57.90625 29 57.90625 20.125 
Q 57.90625 9.515625 50.796875 4.046875 
Q 43.703125 -1.421875 29.984375 -1.421875 
Q 24.8125 -1.421875 18.96875 -0.25 
Q 13.140625 0.921875 6.890625 3.21875 
L 6.890625 13.375 
Q 12.890625 10.015625 18.65625 8.296875 
Q 24.421875 6.59375 29.984375 6.59375 
Q 38.421875 6.59375 43.015625 9.90625 
Q 47.609375 13.234375 47.609375 19.390625 
Q 47.609375 24.75 44.3125 27.78125 
Q 41.015625 30.8125 33.5 32.328125 
L 27.484375 33.5 
Q 16.453125 35.6875 11.515625 40.375 
Q 6.59375 45.0625 6.59375 53.421875 
Q 6.59375 63.09375 13.40625 68.65625 
Q 20.21875 74.21875 32.171875 74.21875 
Q 37.3125 74.21875 42.625 73.28125 
Q 47.953125 72.359375 53.515625 70.515625 
z
" id="DejaVuSans-83"/>
      <path d="M 9.8125 72.90625 
L 55.90625 72.90625 
L 55.90625 64.59375 
L 19.671875 64.59375 
L 19.671875 43.015625 
L 54.390625 43.015625 
L 54.390625 34.71875 
L 19.671875 34.71875 
L 19.671875 8.296875 
L 56.78125 8.296875 
L 56.78125 0 
L 9.8125 0 
z
" id="DejaVuSans-69"/>
     </defs>
     <g transform="translate(494.469375 64.411875)scale(0.12 -0.12)">
      <use xlink:href="#DejaVuSans-83"/>
      <use x="63.476562" xlink:href="#DejaVuSans-116"/>
      <use x="102.685547" xlink:href="#DejaVuSans-100"/>
      <use x="166.162109" xlink:href="#DejaVuSans-46"/>
      <use x="197.949219" xlink:href="#DejaVuSans-32"/>
      <use x="229.736328" xlink:href="#DejaVuSans-69"/>
      <use x="292.919922" xlink:href="#DejaVuSans-114"/>
      <use x="334.017578" xlink:href="#DejaVuSans-114"/>
      <use x="374.990234" xlink:href="#DejaVuSans-46"/>
     </g>
    </g>
   </g>
  </g>
 </g>
 <defs>
  <clipPath id="pdcfa6957be">
   <rect height="147.88" width="503.17" x="62.03" y="26.88"/>
  </clipPath>
 </defs>
</svg>
