<?xml version="1.0" encoding="utf-8" standalone="no"?>
<!DOCTYPE svg PUBLIC "-//W3C//DTD SVG 1.1//EN"
  "http://www.w3.org/Graphics/SVG/1.1/DTD/svg11.dtd">
<!-- Created with matplotlib (https://matplotlib.org/) -->
<svg height="216pt" version="1.1" viewBox="0 0 648 216" width="648pt" xmlns="http://www.w3.org/2000/svg" xmlns:xlink="http://www.w3.org/1999/xlink">
 <defs>
  <style type="text/css">
*{stroke-linecap:butt;stroke-linejoin:round;}
  </style>
 </defs>
 <g id="figure_1">
  <g id="patch_1">
   <path d="M 0 216 
L 648 216 
L 648 0 
L 0 0 
z
" style="fill:#ffffff;"/>
  </g>
  <g id="axes_1">
   <g id="patch_2">
    <path d="M 81 192.24 
L 583.2 192.24 
L 583.2 25.92 
L 81 25.92 
z
" style="fill:#ffffff;"/>
   </g>
   <g id="PolyCollection_1">
    <defs>
     <path d="M 156.33 -23.76 
L 156.33 -190.08 
L 420.645789 -190.08 
L 420.645789 -23.76 
L 420.645789 -23.76 
L 156.33 -23.76 
z
" id="mdd9c7871d4" style="stroke:#808080;stroke-opacity:0.3;"/>
    </defs>
    <g clip-path="url(#p47381fc82e)">
     <use style="fill:#808080;fill-opacity:0.3;stroke:#808080;stroke-opacity:0.3;" x="0" xlink:href="#mdd9c7871d4" y="216"/>
    </g>
   </g>
   <g id="PolyCollection_2">
    <defs>
     <path d="M 81 -109.67685 
L 81 -71.503452 
L 82.762105 -74.243952 
L 84.524211 -80.152439 
L 86.286316 -80.211148 
L 88.048421 -81.039517 
L 89.810526 -81.6674 
L 91.572632 -72.314003 
L 93.334737 -69.312837 
L 95.096842 -76.489111 
L 96.858947 -75.14751 
L 98.621053 -74.455217 
L 100.383158 -81.549381 
L 102.145263 -83.009007 
L 103.907368 -90.963974 
L 105.669474 -84.515302 
L 107.431579 -86.004242 
L 109.193684 -91.61862 
L 110.955789 -77.096487 
L 112.717895 -77.394953 
L 114.48 -76.208549 
L 116.242105 -80.213204 
L 118.004211 -81.597466 
L 119.766316 -78.261246 
L 121.528421 -77.504379 
L 123.290526 -67.648317 
L 125.052632 -57.979051 
L 126.814737 -56.53821 
L 128.576842 -60.865088 
L 130.338947 -54.925694 
L 132.101053 -55.409875 
L 133.863158 -64.705482 
L 135.625263 -64.681396 
L 137.387368 -59.820924 
L 139.149474 -55.541912 
L 140.911579 -69.112375 
L 142.673684 -117.591421 
L 144.435789 -125.150208 
L 146.197895 -130.297515 
L 147.96 -120.205136 
L 149.722105 -112.620147 
L 151.484211 -112.115139 
L 153.246316 -113.555776 
L 155.008421 -103.439316 
L 156.770526 -94.96074 
L 158.532632 -96.943856 
L 160.294737 -92.833431 
L 162.056842 -100.86663 
L 163.818947 -105.000862 
L 165.581053 -111.491591 
L 167.343158 -115.643499 
L 169.105263 -112.948402 
L 170.867368 -115.996371 
L 172.629474 -116.984533 
L 174.391579 -120.030069 
L 176.153684 -107.503757 
L 177.915789 -78.316755 
L 179.677895 -81.546865 
L 181.44 -59.768489 
L 183.202105 -61.566928 
L 184.964211 -77.326368 
L 186.726316 -86.591058 
L 188.488421 -102.638344 
L 190.250526 -112.854578 
L 192.012632 -125.150329 
L 193.774737 -125.937168 
L 195.536842 -124.666416 
L 197.298947 -124.323733 
L 199.061053 -118.764244 
L 200.823158 -115.92995 
L 202.585263 -112.112836 
L 204.347368 -100.552489 
L 206.109474 -103.463315 
L 207.871579 -101.529286 
L 209.633684 -100.350678 
L 211.395789 -94.492059 
L 213.157895 -77.222681 
L 214.92 -57.02296 
L 216.682105 -68.855942 
L 218.444211 -65.433965 
L 220.206316 -58.780828 
L 221.968421 -61.359232 
L 223.730526 -51.328925 
L 225.492632 -53.859797 
L 227.254737 -49.20373 
L 229.016842 -52.056321 
L 230.778947 -57.59295 
L 232.541053 -58.366329 
L 234.303158 -57.444356 
L 236.065263 -49.698101 
L 237.827368 -45.183616 
L 239.589474 -48.040575 
L 241.351579 -42.610266 
L 243.113684 -40.625932 
L 244.875789 -42.445636 
L 246.637895 -43.846572 
L 248.4 -46.050647 
L 250.162105 -60.299825 
L 251.924211 -66.120965 
L 253.686316 -75.570238 
L 255.448421 -81.210021 
L 257.210526 -85.246613 
L 258.972632 -86.760994 
L 260.734737 -73.655111 
L 262.496842 -76.607573 
L 264.258947 -81.290086 
L 266.021053 -88.810093 
L 267.783158 -86.885223 
L 269.545263 -80.912122 
L 271.307368 -82.786919 
L 273.069474 -84.050771 
L 274.831579 -83.087237 
L 276.593684 -84.584349 
L 278.355789 -88.094765 
L 280.117895 -84.948941 
L 281.88 -83.074788 
L 283.642105 -83.181722 
L 285.404211 -74.150552 
L 287.166316 -68.134685 
L 288.928421 -59.321897 
L 290.690526 -59.392164 
L 292.452632 -57.633749 
L 294.214737 -51.722442 
L 295.976842 -58.236335 
L 297.738947 -50.237306 
L 299.501053 -47.434651 
L 301.263158 -51.179366 
L 303.025263 -57.362258 
L 304.787368 -58.081367 
L 306.549474 -51.311316 
L 308.311579 -51.988265 
L 310.073684 -64.884047 
L 311.835789 -67.167202 
L 313.597895 -71.682402 
L 315.36 -74.623469 
L 317.122105 -81.533682 
L 318.884211 -78.153117 
L 320.646316 -77.420571 
L 322.408421 -79.36559 
L 324.170526 -79.398567 
L 325.932632 -72.516153 
L 327.694737 -60.657114 
L 329.456842 -61.472591 
L 331.218947 -50.191806 
L 332.981053 -55.144873 
L 334.743158 -53.59301 
L 336.505263 -56.536454 
L 338.267368 -50.824855 
L 340.029474 -57.061467 
L 341.791579 -58.436341 
L 343.553684 -51.52742 
L 345.315789 -38.94808 
L 347.077895 -37.536518 
L 348.84 -32.473219 
L 350.602105 -31.902188 
L 352.364211 -23.76 
L 354.126316 -32.809965 
L 355.888421 -39.99878 
L 357.650526 -37.813884 
L 359.412632 -39.672809 
L 361.174737 -45.930954 
L 362.936842 -46.913889 
L 364.698947 -42.202579 
L 366.461053 -40.892576 
L 368.223158 -44.452008 
L 369.985263 -38.192968 
L 371.747368 -34.912824 
L 373.509474 -47.931798 
L 375.271579 -47.008858 
L 377.033684 -48.579725 
L 378.795789 -59.973756 
L 380.557895 -73.90208 
L 382.32 -75.14295 
L 384.082105 -79.589981 
L 385.844211 -75.677585 
L 387.606316 -79.23146 
L 389.368421 -76.583254 
L 391.130526 -60.527399 
L 392.892632 -64.172604 
L 394.654737 -73.605062 
L 396.416842 -69.283516 
L 398.178947 -57.972237 
L 399.941053 -54.718677 
L 401.703158 -56.5519 
L 403.465263 -60.829755 
L 405.227368 -58.450978 
L 406.989474 -56.114649 
L 408.751579 -52.602622 
L 410.513684 -63.083965 
L 412.275789 -69.126827 
L 414.037895 -66.181152 
L 415.8 -59.12524 
L 417.562105 -72.282145 
L 419.324211 -63.529892 
L 421.086316 -69.403508 
L 422.848421 -65.930254 
L 424.610526 -75.890856 
L 426.372632 -80.633511 
L 428.134737 -89.838633 
L 429.896842 -78.825561 
L 431.658947 -71.516699 
L 433.421053 -75.407425 
L 435.183158 -70.95514 
L 436.945263 -68.388967 
L 438.707368 -66.840631 
L 440.469474 -67.435005 
L 442.231579 -79.980124 
L 443.993684 -96.464974 
L 445.755789 -112.267108 
L 447.517895 -124.075804 
L 449.28 -131.841476 
L 451.042105 -134.214639 
L 452.804211 -130.304627 
L 454.566316 -137.50624 
L 456.328421 -143.217678 
L 458.090526 -139.694493 
L 459.852632 -129.203763 
L 461.614737 -127.949912 
L 463.376842 -114.901491 
L 465.138947 -110.297995 
L 466.901053 -111.910282 
L 468.663158 -114.389161 
L 470.425263 -118.176368 
L 472.187368 -119.905442 
L 473.949474 -119.820105 
L 475.711579 -128.808039 
L 477.473684 -136.447868 
L 479.235789 -140.50206 
L 480.997895 -130.355228 
L 482.76 -114.08808 
L 484.522105 -112.058449 
L 486.284211 -116.16117 
L 488.046316 -109.2416 
L 489.808421 -110.482129 
L 491.570526 -100.107523 
L 493.332632 -110.400006 
L 495.094737 -111.763751 
L 496.856842 -104.589493 
L 498.618947 -113.168173 
L 500.381053 -106.011571 
L 502.143158 -117.143886 
L 503.905263 -106.725154 
L 505.667368 -99.034185 
L 507.429474 -96.960455 
L 509.191579 -105.685885 
L 510.953684 -99.359522 
L 512.715789 -78.604792 
L 514.477895 -71.463331 
L 516.24 -70.735339 
L 518.002105 -74.677456 
L 519.764211 -62.418103 
L 521.526316 -59.934472 
L 523.288421 -73.091741 
L 525.050526 -76.821513 
L 526.812632 -87.028701 
L 528.574737 -82.361193 
L 530.336842 -88.993911 
L 532.098947 -93.330954 
L 533.861053 -89.505343 
L 535.623158 -97.785334 
L 537.385263 -86.851353 
L 539.147368 -84.933684 
L 540.909474 -92.922868 
L 542.671579 -94.194442 
L 544.433684 -84.143048 
L 546.195789 -81.598908 
L 547.957895 -87.150046 
L 549.72 -83.13854 
L 551.482105 -72.567974 
L 553.244211 -72.083675 
L 555.006316 -83.403422 
L 556.768421 -83.977164 
L 558.530526 -66.907334 
L 560.292632 -60.07882 
L 562.054737 -51.774685 
L 563.816842 -53.560265 
L 565.578947 -50.535069 
L 567.341053 -53.053829 
L 569.103158 -58.68898 
L 570.865263 -58.823752 
L 572.627368 -65.825587 
L 574.389474 -65.297683 
L 576.151579 -64.394834 
L 577.913684 -58.218178 
L 579.675789 -65.828648 
L 581.437895 -67.465626 
L 583.2 -74.241726 
L 583.2 -112.519541 
L 583.2 -112.519541 
L 581.437895 -104.572142 
L 579.675789 -102.28204 
L 577.913684 -95.028382 
L 576.151579 -102.222957 
L 574.389474 -105.306998 
L 572.627368 -106.741366 
L 570.865263 -100.004808 
L 569.103158 -102.228824 
L 567.341053 -95.459291 
L 565.578947 -95.188516 
L 563.816842 -99.376542 
L 562.054737 -98.006399 
L 560.292632 -107.620883 
L 558.530526 -116.633811 
L 556.768421 -136.927276 
L 555.006316 -135.535969 
L 553.244211 -123.639031 
L 551.482105 -124.323372 
L 549.72 -135.419802 
L 547.957895 -137.0694 
L 546.195789 -130.069737 
L 544.433684 -131.922393 
L 542.671579 -142.758302 
L 540.909474 -144.063119 
L 539.147368 -133.138998 
L 537.385263 -135.907009 
L 535.623158 -147.867131 
L 533.861053 -136.347365 
L 532.098947 -141.318898 
L 530.336842 -136.969412 
L 528.574737 -128.711751 
L 526.812632 -136.329362 
L 525.050526 -123.933456 
L 523.288421 -117.211587 
L 521.526316 -97.789381 
L 519.764211 -101.129211 
L 518.002105 -114.670655 
L 516.24 -112.314466 
L 514.477895 -111.886389 
L 512.715789 -120.875923 
L 510.953684 -145.342933 
L 509.191579 -151.633736 
L 507.429474 -141.797037 
L 505.667368 -145.569453 
L 503.905263 -154.695644 
L 502.143158 -165.4521 
L 500.381053 -153.763047 
L 498.618947 -163.376759 
L 496.856842 -153.351822 
L 495.094737 -162.145276 
L 493.332632 -161.421638 
L 491.570526 -150.222982 
L 489.808421 -161.201013 
L 488.046316 -160.033326 
L 486.284211 -167.131857 
L 484.522105 -161.516234 
L 482.76 -164.284825 
L 480.997895 -177.998441 
L 479.235789 -189.704612 
L 477.473684 -186.06274 
L 475.711579 -176.19416 
L 473.949474 -168.616611 
L 472.187368 -169.356673 
L 470.425263 -166.162234 
L 468.663158 -161.254887 
L 466.901053 -157.591796 
L 465.138947 -156.345161 
L 463.376842 -160.882998 
L 461.614737 -174.534958 
L 459.852632 -175.150115 
L 458.090526 -185.792569 
L 456.328421 -190.08 
L 454.566316 -184.789948 
L 452.804211 -177.463087 
L 451.042105 -184.459488 
L 449.28 -183.191328 
L 447.517895 -174.350397 
L 445.755789 -161.049264 
L 443.993684 -142.806047 
L 442.231579 -123.1511 
L 440.469474 -108.32526 
L 438.707368 -108.576379 
L 436.945263 -107.741357 
L 435.183158 -109.471769 
L 433.421053 -114.493709 
L 431.658947 -110.335444 
L 429.896842 -118.177989 
L 428.134737 -130.177007 
L 426.372632 -118.433434 
L 424.610526 -113.066466 
L 422.848421 -101.665771 
L 421.086316 -106.573164 
L 419.324211 -99.240711 
L 417.562105 -109.938337 
L 415.8 -95.637105 
L 414.037895 -104.65035 
L 412.275789 -109.320059 
L 410.513684 -103.941234 
L 408.751579 -93.137035 
L 406.989474 -98.070247 
L 405.227368 -102.37743 
L 403.465263 -105.924399 
L 401.703158 -99.912146 
L 399.941053 -96.818627 
L 398.178947 -100.549699 
L 396.416842 -111.878306 
L 394.654737 -115.844551 
L 392.892632 -105.205273 
L 391.130526 -100.970301 
L 389.368421 -118.13642 
L 387.606316 -121.08267 
L 385.844211 -115.580037 
L 384.082105 -121.666451 
L 382.32 -116.235921 
L 380.557895 -115.120779 
L 378.795789 -99.337716 
L 377.033684 -86.479703 
L 375.271579 -84.273605 
L 373.509474 -85.435759 
L 371.747368 -71.014018 
L 369.985263 -72.285144 
L 368.223158 -78.287176 
L 366.461053 -76.326689 
L 364.698947 -77.950383 
L 362.936842 -84.249109 
L 361.174737 -83.983246 
L 359.412632 -76.926544 
L 357.650526 -74.057474 
L 355.888421 -76.098785 
L 354.126316 -69.006705 
L 352.364211 -58.221916 
L 350.602105 -68.08981 
L 348.84 -67.366757 
L 347.077895 -71.660466 
L 345.315789 -73.007034 
L 343.553684 -88.212176 
L 341.791579 -94.915783 
L 340.029474 -94.593773 
L 338.267368 -88.47546 
L 336.505263 -93.895787 
L 334.743158 -88.935429 
L 332.981053 -90.379595 
L 331.218947 -86.859225 
L 329.456842 -99.576712 
L 327.694737 -100.133259 
L 325.932632 -113.891515 
L 324.170526 -124.282772 
L 322.408421 -124.433756 
L 320.646316 -121.422349 
L 318.884211 -119.910978 
L 317.122105 -123.811388 
L 315.36 -118.168182 
L 313.597895 -112.743044 
L 311.835789 -108.106622 
L 310.073684 -104.829074 
L 308.311579 -90.860669 
L 306.549474 -89.745683 
L 304.787368 -98.435777 
L 303.025263 -97.556016 
L 301.263158 -90.79876 
L 299.501053 -87.043538 
L 297.738947 -89.143478 
L 295.976842 -98.870149 
L 294.214737 -93.470323 
L 292.452632 -100.129548 
L 290.690526 -100.854772 
L 288.928421 -100.457457 
L 287.166316 -112.525347 
L 285.404211 -121.486659 
L 283.642105 -132.583158 
L 281.88 -132.236947 
L 280.117895 -136.015319 
L 278.355789 -140.11481 
L 276.593684 -135.304776 
L 274.831579 -133.326916 
L 273.069474 -133.98699 
L 271.307368 -131.727472 
L 269.545263 -129.713805 
L 267.783158 -135.349198 
L 266.021053 -138.332824 
L 264.258947 -129.621707 
L 262.496842 -124.556219 
L 260.734737 -122.98066 
L 258.972632 -138.283826 
L 257.210526 -138.14544 
L 255.448421 -133.307248 
L 253.686316 -127.183168 
L 251.924211 -114.981603 
L 250.162105 -108.270785 
L 248.4 -91.237602 
L 246.637895 -87.225882 
L 244.875789 -83.883449 
L 243.113684 -82.242629 
L 241.351579 -83.977193 
L 239.589474 -91.787824 
L 237.827368 -91.124598 
L 236.065263 -97.259933 
L 234.303158 -107.544868 
L 232.541053 -107.661894 
L 230.778947 -106.692843 
L 229.016842 -100.057528 
L 227.254737 -95.936951 
L 225.492632 -98.855778 
L 223.730526 -95.520503 
L 221.968421 -104.054946 
L 220.206316 -100.5159 
L 218.444211 -110.201478 
L 216.682105 -115.514623 
L 214.92 -102.944276 
L 213.157895 -125.603662 
L 211.395789 -147.734467 
L 209.633684 -153.613985 
L 207.871579 -154.517071 
L 206.109474 -157.976933 
L 204.347368 -153.788398 
L 202.585263 -162.898114 
L 200.823158 -167.452485 
L 199.061053 -170.452408 
L 197.298947 -175.189549 
L 195.536842 -175.367918 
L 193.774737 -178.494593 
L 192.012632 -178.292704 
L 190.250526 -163.418155 
L 188.488421 -151.689088 
L 186.726316 -134.553195 
L 184.964211 -123.082421 
L 183.202105 -105.851732 
L 181.44 -104.173807 
L 179.677895 -131.220807 
L 177.915789 -126.959332 
L 176.153684 -156.124069 
L 174.391579 -169.793773 
L 172.629474 -165.544903 
L 170.867368 -163.546237 
L 169.105263 -159.041956 
L 167.343158 -161.774259 
L 165.581053 -156.12073 
L 163.818947 -148.048175 
L 162.056842 -143.857664 
L 160.294737 -136.525619 
L 158.532632 -141.455606 
L 156.770526 -139.057183 
L 155.008421 -149.70767 
L 153.246316 -160.896986 
L 151.484211 -161.637394 
L 149.722105 -163.41802 
L 147.96 -171.875988 
L 146.197895 -181.918847 
L 144.435789 -176.756261 
L 142.673684 -166.856799 
L 140.911579 -112.259655 
L 139.149474 -96.185988 
L 137.387368 -101.515552 
L 135.625263 -108.89045 
L 133.863158 -108.032845 
L 132.101053 -96.503351 
L 130.338947 -95.433884 
L 128.576842 -103.17039 
L 126.814737 -98.064497 
L 125.052632 -99.843045 
L 123.290526 -111.420174 
L 121.528421 -121.56069 
L 119.766316 -122.670067 
L 118.004211 -126.113418 
L 116.242105 -122.973409 
L 114.48 -116.988446 
L 112.717895 -119.118773 
L 110.955789 -120.602232 
L 109.193684 -138.691735 
L 107.431579 -131.171969 
L 105.669474 -130.833144 
L 103.907368 -136.937967 
L 102.145263 -127.35141 
L 100.383158 -125.07636 
L 98.621053 -116.400572 
L 96.858947 -116.260882 
L 95.096842 -118.334798 
L 93.334737 -108.675832 
L 91.572632 -112.408842 
L 89.810526 -121.299053 
L 88.048421 -120.104485 
L 86.286316 -119.095048 
L 84.524211 -119.542956 
L 82.762105 -112.455101 
L 81 -109.67685 
z
" id="ma587d491bd" style="stroke:#0000ff;stroke-opacity:0.3;"/>
    </defs>
    <g clip-path="url(#p47381fc82e)">
     <use style="fill:#0000ff;fill-opacity:0.3;stroke:#0000ff;stroke-opacity:0.3;" x="0" xlink:href="#ma587d491bd" y="216"/>
    </g>
   </g>
   <g id="matplotlib.axis_1">
    <g id="xtick_1">
     <g id="line2d_1">
      <defs>
       <path d="M 0 0 
L 0 3.5 
" id="m450a59825e" style="stroke:#000000;stroke-width:0.8;"/>
      </defs>
      <g>
       <use style="stroke:#000000;stroke-width:0.8;" x="156.33" xlink:href="#m450a59825e" y="192.24"/>
      </g>
     </g>
     <g id="text_1">
      <!-- 0.0 -->
      <defs>
       <path d="M 31.78125 66.40625 
Q 24.171875 66.40625 20.328125 58.90625 
Q 16.5 51.421875 16.5 36.375 
Q 16.5 21.390625 20.328125 13.890625 
Q 24.171875 6.390625 31.78125 6.390625 
Q 39.453125 6.390625 43.28125 13.890625 
Q 47.125 21.390625 47.125 36.375 
Q 47.125 51.421875 43.28125 58.90625 
Q 39.453125 66.40625 31.78125 66.40625 
z
M 31.78125 74.21875 
Q 44.046875 74.21875 50.515625 64.515625 
Q 56.984375 54.828125 56.984375 36.375 
Q 56.984375 17.96875 50.515625 8.265625 
Q 44.046875 -1.421875 31.78125 -1.421875 
Q 19.53125 -1.421875 13.0625 8.265625 
Q 6.59375 17.96875 6.59375 36.375 
Q 6.59375 54.828125 13.0625 64.515625 
Q 19.53125 74.21875 31.78125 74.21875 
z
" id="DejaVuSans-48"/>
       <path d="M 10.6875 12.40625 
L 21 12.40625 
L 21 0 
L 10.6875 0 
z
" id="DejaVuSans-46"/>
      </defs>
      <g transform="translate(146.788125 208.358125)scale(0.12 -0.12)">
       <use xlink:href="#DejaVuSans-48"/>
       <use x="63.623047" xlink:href="#DejaVuSans-46"/>
       <use x="95.410156" xlink:href="#DejaVuSans-48"/>
      </g>
     </g>
    </g>
    <g id="xtick_2">
     <g id="line2d_2">
      <g>
       <use style="stroke:#000000;stroke-width:0.8;" x="244.435263" xlink:href="#m450a59825e" y="192.24"/>
      </g>
     </g>
     <g id="text_2">
      <!-- 0.5 -->
      <defs>
       <path d="M 10.796875 72.90625 
L 49.515625 72.90625 
L 49.515625 64.59375 
L 19.828125 64.59375 
L 19.828125 46.734375 
Q 21.96875 47.46875 24.109375 47.828125 
Q 26.265625 48.1875 28.421875 48.1875 
Q 40.625 48.1875 47.75 41.5 
Q 54.890625 34.8125 54.890625 23.390625 
Q 54.890625 11.625 47.5625 5.09375 
Q 40.234375 -1.421875 26.90625 -1.421875 
Q 22.3125 -1.421875 17.546875 -0.640625 
Q 12.796875 0.140625 7.71875 1.703125 
L 7.71875 11.625 
Q 12.109375 9.234375 16.796875 8.0625 
Q 21.484375 6.890625 26.703125 6.890625 
Q 35.15625 6.890625 40.078125 11.328125 
Q 45.015625 15.765625 45.015625 23.390625 
Q 45.015625 31 40.078125 35.4375 
Q 35.15625 39.890625 26.703125 39.890625 
Q 22.75 39.890625 18.8125 39.015625 
Q 14.890625 38.140625 10.796875 36.28125 
z
" id="DejaVuSans-53"/>
      </defs>
      <g transform="translate(234.893388 208.358125)scale(0.12 -0.12)">
       <use xlink:href="#DejaVuSans-48"/>
       <use x="63.623047" xlink:href="#DejaVuSans-46"/>
       <use x="95.410156" xlink:href="#DejaVuSans-53"/>
      </g>
     </g>
    </g>
    <g id="xtick_3">
     <g id="line2d_3">
      <g>
       <use style="stroke:#000000;stroke-width:0.8;" x="332.540526" xlink:href="#m450a59825e" y="192.24"/>
      </g>
     </g>
     <g id="text_3">
      <!-- 1.0 -->
      <defs>
       <path d="M 12.40625 8.296875 
L 28.515625 8.296875 
L 28.515625 63.921875 
L 10.984375 60.40625 
L 10.984375 69.390625 
L 28.421875 72.90625 
L 38.28125 72.90625 
L 38.28125 8.296875 
L 54.390625 8.296875 
L 54.390625 0 
L 12.40625 0 
z
" id="DejaVuSans-49"/>
      </defs>
      <g transform="translate(322.998651 208.358125)scale(0.12 -0.12)">
       <use xlink:href="#DejaVuSans-49"/>
       <use x="63.623047" xlink:href="#DejaVuSans-46"/>
       <use x="95.410156" xlink:href="#DejaVuSans-48"/>
      </g>
     </g>
    </g>
    <g id="xtick_4">
     <g id="line2d_4">
      <g>
       <use style="stroke:#000000;stroke-width:0.8;" x="420.645789" xlink:href="#m450a59825e" y="192.24"/>
      </g>
     </g>
     <g id="text_4">
      <!-- 1.5 -->
      <g transform="translate(411.103914 208.358125)scale(0.12 -0.12)">
       <use xlink:href="#DejaVuSans-49"/>
       <use x="63.623047" xlink:href="#DejaVuSans-46"/>
       <use x="95.410156" xlink:href="#DejaVuSans-53"/>
      </g>
     </g>
    </g>
    <g id="xtick_5">
     <g id="line2d_5">
      <g>
       <use style="stroke:#000000;stroke-width:0.8;" x="508.751053" xlink:href="#m450a59825e" y="192.24"/>
      </g>
     </g>
     <g id="text_5">
      <!-- 2.0 -->
      <defs>
       <path d="M 19.1875 8.296875 
L 53.609375 8.296875 
L 53.609375 0 
L 7.328125 0 
L 7.328125 8.296875 
Q 12.9375 14.109375 22.625 23.890625 
Q 32.328125 33.6875 34.8125 36.53125 
Q 39.546875 41.84375 41.421875 45.53125 
Q 43.3125 49.21875 43.3125 52.78125 
Q 43.3125 58.59375 39.234375 62.25 
Q 35.15625 65.921875 28.609375 65.921875 
Q 23.96875 65.921875 18.8125 64.3125 
Q 13.671875 62.703125 7.8125 59.421875 
L 7.8125 69.390625 
Q 13.765625 71.78125 18.9375 73 
Q 24.125 74.21875 28.421875 74.21875 
Q 39.75 74.21875 46.484375 68.546875 
Q 53.21875 62.890625 53.21875 53.421875 
Q 53.21875 48.921875 51.53125 44.890625 
Q 49.859375 40.875 45.40625 35.40625 
Q 44.1875 33.984375 37.640625 27.21875 
Q 31.109375 20.453125 19.1875 8.296875 
z
" id="DejaVuSans-50"/>
      </defs>
      <g transform="translate(499.209178 208.358125)scale(0.12 -0.12)">
       <use xlink:href="#DejaVuSans-50"/>
       <use x="63.623047" xlink:href="#DejaVuSans-46"/>
       <use x="95.410156" xlink:href="#DejaVuSans-48"/>
      </g>
     </g>
    </g>
    <g id="text_6">
     <!-- Time (s) -->
     <defs>
      <path d="M -0.296875 72.90625 
L 61.375 72.90625 
L 61.375 64.59375 
L 35.5 64.59375 
L 35.5 0 
L 25.59375 0 
L 25.59375 64.59375 
L -0.296875 64.59375 
z
" id="DejaVuSans-84"/>
      <path d="M 9.421875 54.6875 
L 18.40625 54.6875 
L 18.40625 0 
L 9.421875 0 
z
M 9.421875 75.984375 
L 18.40625 75.984375 
L 18.40625 64.59375 
L 9.421875 64.59375 
z
" id="DejaVuSans-105"/>
      <path d="M 52 44.1875 
Q 55.375 50.25 60.0625 53.125 
Q 64.75 56 71.09375 56 
Q 79.640625 56 84.28125 50.015625 
Q 88.921875 44.046875 88.921875 33.015625 
L 88.921875 0 
L 79.890625 0 
L 79.890625 32.71875 
Q 79.890625 40.578125 77.09375 44.375 
Q 74.3125 48.1875 68.609375 48.1875 
Q 61.625 48.1875 57.5625 43.546875 
Q 53.515625 38.921875 53.515625 30.90625 
L 53.515625 0 
L 44.484375 0 
L 44.484375 32.71875 
Q 44.484375 40.625 41.703125 44.40625 
Q 38.921875 48.1875 33.109375 48.1875 
Q 26.21875 48.1875 22.15625 43.53125 
Q 18.109375 38.875 18.109375 30.90625 
L 18.109375 0 
L 9.078125 0 
L 9.078125 54.6875 
L 18.109375 54.6875 
L 18.109375 46.1875 
Q 21.1875 51.21875 25.484375 53.609375 
Q 29.78125 56 35.6875 56 
Q 41.65625 56 45.828125 52.96875 
Q 50 49.953125 52 44.1875 
z
" id="DejaVuSans-109"/>
      <path d="M 56.203125 29.59375 
L 56.203125 25.203125 
L 14.890625 25.203125 
Q 15.484375 15.921875 20.484375 11.0625 
Q 25.484375 6.203125 34.421875 6.203125 
Q 39.59375 6.203125 44.453125 7.46875 
Q 49.3125 8.734375 54.109375 11.28125 
L 54.109375 2.78125 
Q 49.265625 0.734375 44.1875 -0.34375 
Q 39.109375 -1.421875 33.890625 -1.421875 
Q 20.796875 -1.421875 13.15625 6.1875 
Q 5.515625 13.8125 5.515625 26.8125 
Q 5.515625 40.234375 12.765625 48.109375 
Q 20.015625 56 32.328125 56 
Q 43.359375 56 49.78125 48.890625 
Q 56.203125 41.796875 56.203125 29.59375 
z
M 47.21875 32.234375 
Q 47.125 39.59375 43.09375 43.984375 
Q 39.0625 48.390625 32.421875 48.390625 
Q 24.90625 48.390625 20.390625 44.140625 
Q 15.875 39.890625 15.1875 32.171875 
z
" id="DejaVuSans-101"/>
      <path id="DejaVuSans-32"/>
      <path d="M 31 75.875 
Q 24.46875 64.65625 21.28125 53.65625 
Q 18.109375 42.671875 18.109375 31.390625 
Q 18.109375 20.125 21.3125 9.0625 
Q 24.515625 -2 31 -13.1875 
L 23.1875 -13.1875 
Q 15.875 -1.703125 12.234375 9.375 
Q 8.59375 20.453125 8.59375 31.390625 
Q 8.59375 42.28125 12.203125 53.3125 
Q 15.828125 64.359375 23.1875 75.875 
z
" id="DejaVuSans-40"/>
      <path d="M 44.28125 53.078125 
L 44.28125 44.578125 
Q 40.484375 46.53125 36.375 47.5 
Q 32.28125 48.484375 27.875 48.484375 
Q 21.1875 48.484375 17.84375 46.4375 
Q 14.5 44.390625 14.5 40.28125 
Q 14.5 37.15625 16.890625 35.375 
Q 19.28125 33.59375 26.515625 31.984375 
L 29.59375 31.296875 
Q 39.15625 29.25 43.1875 25.515625 
Q 47.21875 21.78125 47.21875 15.09375 
Q 47.21875 7.46875 41.1875 3.015625 
Q 35.15625 -1.421875 24.609375 -1.421875 
Q 20.21875 -1.421875 15.453125 -0.5625 
Q 10.6875 0.296875 5.421875 2 
L 5.421875 11.28125 
Q 10.40625 8.6875 15.234375 7.390625 
Q 20.0625 6.109375 24.8125 6.109375 
Q 31.15625 6.109375 34.5625 8.28125 
Q 37.984375 10.453125 37.984375 14.40625 
Q 37.984375 18.0625 35.515625 20.015625 
Q 33.0625 21.96875 24.703125 23.78125 
L 21.578125 24.515625 
Q 13.234375 26.265625 9.515625 29.90625 
Q 5.8125 33.546875 5.8125 39.890625 
Q 5.8125 47.609375 11.28125 51.796875 
Q 16.75 56 26.8125 56 
Q 31.78125 56 36.171875 55.265625 
Q 40.578125 54.546875 44.28125 53.078125 
z
" id="DejaVuSans-115"/>
      <path d="M 8.015625 75.875 
L 15.828125 75.875 
Q 23.140625 64.359375 26.78125 53.3125 
Q 30.421875 42.28125 30.421875 31.390625 
Q 30.421875 20.453125 26.78125 9.375 
Q 23.140625 -1.703125 15.828125 -13.1875 
L 8.015625 -13.1875 
Q 14.5 -2 17.703125 9.0625 
Q 20.90625 20.125 20.90625 31.390625 
Q 20.90625 42.671875 17.703125 53.65625 
Q 14.5 64.65625 8.015625 75.875 
z
" id="DejaVuSans-41"/>
     </defs>
     <g transform="translate(302.60475 225.7955)scale(0.144 -0.144)">
      <use xlink:href="#DejaVuSans-84"/>
      <use x="61.037109" xlink:href="#DejaVuSans-105"/>
      <use x="88.820312" xlink:href="#DejaVuSans-109"/>
      <use x="186.232422" xlink:href="#DejaVuSans-101"/>
      <use x="247.755859" xlink:href="#DejaVuSans-32"/>
      <use x="279.542969" xlink:href="#DejaVuSans-40"/>
      <use x="318.556641" xlink:href="#DejaVuSans-115"/>
      <use x="370.65625" xlink:href="#DejaVuSans-41"/>
     </g>
    </g>
   </g>
   <g id="matplotlib.axis_2">
    <g id="ytick_1">
     <g id="line2d_6">
      <defs>
       <path d="M 0 0 
L -3.5 0 
" id="mc06dbefd50" style="stroke:#000000;stroke-width:0.8;"/>
      </defs>
      <g>
       <use style="stroke:#000000;stroke-width:0.8;" x="81" xlink:href="#mc06dbefd50" y="169.132565"/>
      </g>
     </g>
     <g id="text_7">
      <!-- 0.035 -->
      <defs>
       <path d="M 40.578125 39.3125 
Q 47.65625 37.796875 51.625 33 
Q 55.609375 28.21875 55.609375 21.1875 
Q 55.609375 10.40625 48.1875 4.484375 
Q 40.765625 -1.421875 27.09375 -1.421875 
Q 22.515625 -1.421875 17.65625 -0.515625 
Q 12.796875 0.390625 7.625 2.203125 
L 7.625 11.71875 
Q 11.71875 9.328125 16.59375 8.109375 
Q 21.484375 6.890625 26.8125 6.890625 
Q 36.078125 6.890625 40.9375 10.546875 
Q 45.796875 14.203125 45.796875 21.1875 
Q 45.796875 27.640625 41.28125 31.265625 
Q 36.765625 34.90625 28.71875 34.90625 
L 20.21875 34.90625 
L 20.21875 43.015625 
L 29.109375 43.015625 
Q 36.375 43.015625 40.234375 45.921875 
Q 44.09375 48.828125 44.09375 54.296875 
Q 44.09375 59.90625 40.109375 62.90625 
Q 36.140625 65.921875 28.71875 65.921875 
Q 24.65625 65.921875 20.015625 65.03125 
Q 15.375 64.15625 9.8125 62.3125 
L 9.8125 71.09375 
Q 15.4375 72.65625 20.34375 73.4375 
Q 25.25 74.21875 29.59375 74.21875 
Q 40.828125 74.21875 47.359375 69.109375 
Q 53.90625 64.015625 53.90625 55.328125 
Q 53.90625 49.265625 50.4375 45.09375 
Q 46.96875 40.921875 40.578125 39.3125 
z
" id="DejaVuSans-51"/>
      </defs>
      <g transform="translate(39.64625 173.691628)scale(0.12 -0.12)">
       <use xlink:href="#DejaVuSans-48"/>
       <use x="63.623047" xlink:href="#DejaVuSans-46"/>
       <use x="95.410156" xlink:href="#DejaVuSans-48"/>
       <use x="159.033203" xlink:href="#DejaVuSans-51"/>
       <use x="222.65625" xlink:href="#DejaVuSans-53"/>
      </g>
     </g>
    </g>
    <g id="ytick_2">
     <g id="line2d_7">
      <g>
       <use style="stroke:#000000;stroke-width:0.8;" x="81" xlink:href="#mc06dbefd50" y="129.480272"/>
      </g>
     </g>
     <g id="text_8">
      <!-- 0.040 -->
      <defs>
       <path d="M 37.796875 64.3125 
L 12.890625 25.390625 
L 37.796875 25.390625 
z
M 35.203125 72.90625 
L 47.609375 72.90625 
L 47.609375 25.390625 
L 58.015625 25.390625 
L 58.015625 17.1875 
L 47.609375 17.1875 
L 47.609375 0 
L 37.796875 0 
L 37.796875 17.1875 
L 4.890625 17.1875 
L 4.890625 26.703125 
z
" id="DejaVuSans-52"/>
      </defs>
      <g transform="translate(39.64625 134.039335)scale(0.12 -0.12)">
       <use xlink:href="#DejaVuSans-48"/>
       <use x="63.623047" xlink:href="#DejaVuSans-46"/>
       <use x="95.410156" xlink:href="#DejaVuSans-48"/>
       <use x="159.033203" xlink:href="#DejaVuSans-52"/>
       <use x="222.65625" xlink:href="#DejaVuSans-48"/>
      </g>
     </g>
    </g>
    <g id="ytick_3">
     <g id="line2d_8">
      <g>
       <use style="stroke:#000000;stroke-width:0.8;" x="81" xlink:href="#mc06dbefd50" y="89.82798"/>
      </g>
     </g>
     <g id="text_9">
      <!-- 0.045 -->
      <g transform="translate(39.64625 94.387042)scale(0.12 -0.12)">
       <use xlink:href="#DejaVuSans-48"/>
       <use x="63.623047" xlink:href="#DejaVuSans-46"/>
       <use x="95.410156" xlink:href="#DejaVuSans-48"/>
       <use x="159.033203" xlink:href="#DejaVuSans-52"/>
       <use x="222.65625" xlink:href="#DejaVuSans-53"/>
      </g>
     </g>
    </g>
    <g id="ytick_4">
     <g id="line2d_9">
      <g>
       <use style="stroke:#000000;stroke-width:0.8;" x="81" xlink:href="#mc06dbefd50" y="50.175687"/>
      </g>
     </g>
     <g id="text_10">
      <!-- 0.050 -->
      <g transform="translate(39.64625 54.734749)scale(0.12 -0.12)">
       <use xlink:href="#DejaVuSans-48"/>
       <use x="63.623047" xlink:href="#DejaVuSans-46"/>
       <use x="95.410156" xlink:href="#DejaVuSans-48"/>
       <use x="159.033203" xlink:href="#DejaVuSans-53"/>
       <use x="222.65625" xlink:href="#DejaVuSans-48"/>
      </g>
     </g>
    </g>
    <g id="text_11">
     <!-- COMb $p$ -->
     <defs>
      <path d="M 64.40625 67.28125 
L 64.40625 56.890625 
Q 59.421875 61.53125 53.78125 63.8125 
Q 48.140625 66.109375 41.796875 66.109375 
Q 29.296875 66.109375 22.65625 58.46875 
Q 16.015625 50.828125 16.015625 36.375 
Q 16.015625 21.96875 22.65625 14.328125 
Q 29.296875 6.6875 41.796875 6.6875 
Q 48.140625 6.6875 53.78125 8.984375 
Q 59.421875 11.28125 64.40625 15.921875 
L 64.40625 5.609375 
Q 59.234375 2.09375 53.4375 0.328125 
Q 47.65625 -1.421875 41.21875 -1.421875 
Q 24.65625 -1.421875 15.125 8.703125 
Q 5.609375 18.84375 5.609375 36.375 
Q 5.609375 53.953125 15.125 64.078125 
Q 24.65625 74.21875 41.21875 74.21875 
Q 47.75 74.21875 53.53125 72.484375 
Q 59.328125 70.75 64.40625 67.28125 
z
" id="DejaVuSans-67"/>
      <path d="M 39.40625 66.21875 
Q 28.65625 66.21875 22.328125 58.203125 
Q 16.015625 50.203125 16.015625 36.375 
Q 16.015625 22.609375 22.328125 14.59375 
Q 28.65625 6.59375 39.40625 6.59375 
Q 50.140625 6.59375 56.421875 14.59375 
Q 62.703125 22.609375 62.703125 36.375 
Q 62.703125 50.203125 56.421875 58.203125 
Q 50.140625 66.21875 39.40625 66.21875 
z
M 39.40625 74.21875 
Q 54.734375 74.21875 63.90625 63.9375 
Q 73.09375 53.65625 73.09375 36.375 
Q 73.09375 19.140625 63.90625 8.859375 
Q 54.734375 -1.421875 39.40625 -1.421875 
Q 24.03125 -1.421875 14.8125 8.828125 
Q 5.609375 19.09375 5.609375 36.375 
Q 5.609375 53.65625 14.8125 63.9375 
Q 24.03125 74.21875 39.40625 74.21875 
z
" id="DejaVuSans-79"/>
      <path d="M 9.8125 72.90625 
L 24.515625 72.90625 
L 43.109375 23.296875 
L 61.8125 72.90625 
L 76.515625 72.90625 
L 76.515625 0 
L 66.890625 0 
L 66.890625 64.015625 
L 48.09375 14.015625 
L 38.1875 14.015625 
L 19.390625 64.015625 
L 19.390625 0 
L 9.8125 0 
z
" id="DejaVuSans-77"/>
      <path d="M 48.6875 27.296875 
Q 48.6875 37.203125 44.609375 42.84375 
Q 40.53125 48.484375 33.40625 48.484375 
Q 26.265625 48.484375 22.1875 42.84375 
Q 18.109375 37.203125 18.109375 27.296875 
Q 18.109375 17.390625 22.1875 11.75 
Q 26.265625 6.109375 33.40625 6.109375 
Q 40.53125 6.109375 44.609375 11.75 
Q 48.6875 17.390625 48.6875 27.296875 
z
M 18.109375 46.390625 
Q 20.953125 51.265625 25.265625 53.625 
Q 29.59375 56 35.59375 56 
Q 45.5625 56 51.78125 48.09375 
Q 58.015625 40.1875 58.015625 27.296875 
Q 58.015625 14.40625 51.78125 6.484375 
Q 45.5625 -1.421875 35.59375 -1.421875 
Q 29.59375 -1.421875 25.265625 0.953125 
Q 20.953125 3.328125 18.109375 8.203125 
L 18.109375 0 
L 9.078125 0 
L 9.078125 75.984375 
L 18.109375 75.984375 
z
" id="DejaVuSans-98"/>
      <path d="M 49.609375 33.6875 
Q 49.609375 40.875 46.484375 44.671875 
Q 43.359375 48.484375 37.5 48.484375 
Q 33.5 48.484375 29.859375 46.4375 
Q 26.21875 44.390625 23.390625 40.484375 
Q 20.609375 36.625 18.9375 31.15625 
Q 17.28125 25.6875 17.28125 20.3125 
Q 17.28125 13.484375 20.40625 9.796875 
Q 23.53125 6.109375 29.296875 6.109375 
Q 33.546875 6.109375 37.1875 8.109375 
Q 40.828125 10.109375 43.40625 13.921875 
Q 46.1875 17.921875 47.890625 23.34375 
Q 49.609375 28.765625 49.609375 33.6875 
z
M 21.78125 46.390625 
Q 25.390625 51.125 30.296875 53.5625 
Q 35.203125 56 41.21875 56 
Q 49.609375 56 54.25 50.5 
Q 58.890625 45.015625 58.890625 35.109375 
Q 58.890625 27 56 19.65625 
Q 53.125 12.3125 47.703125 6.5 
Q 44.09375 2.640625 39.546875 0.609375 
Q 35.015625 -1.421875 29.984375 -1.421875 
Q 24.171875 -1.421875 20.21875 1 
Q 16.265625 3.421875 14.3125 8.203125 
L 8.6875 -20.796875 
L -0.296875 -20.796875 
L 14.40625 54.6875 
L 23.390625 54.6875 
z
" id="DejaVuSans-Oblique-112"/>
     </defs>
     <g transform="translate(32.62225 137.448)rotate(-90)scale(0.144 -0.144)">
      <use transform="translate(0 0.015625)" xlink:href="#DejaVuSans-67"/>
      <use transform="translate(69.824219 0.015625)" xlink:href="#DejaVuSans-79"/>
      <use transform="translate(148.535156 0.015625)" xlink:href="#DejaVuSans-77"/>
      <use transform="translate(234.814453 0.015625)" xlink:href="#DejaVuSans-98"/>
      <use transform="translate(298.291016 0.015625)" xlink:href="#DejaVuSans-32"/>
      <use transform="translate(330.078125 0.015625)" xlink:href="#DejaVuSans-Oblique-112"/>
     </g>
    </g>
   </g>
   <g id="line2d_10">
    <path clip-path="url(#p47381fc82e)" d="M 81 125.409849 
L 82.762105 122.650473 
L 84.524211 116.152303 
L 86.286316 116.346902 
L 89.810526 114.516773 
L 91.572632 123.638577 
L 93.334737 127.005666 
L 95.096842 118.588045 
L 96.858947 120.295804 
L 98.621053 120.572106 
L 100.383158 112.687129 
L 102.145263 110.819792 
L 103.907368 102.049029 
L 105.669474 108.325777 
L 107.431579 107.411895 
L 109.193684 100.844822 
L 110.955789 117.15064 
L 112.717895 117.743137 
L 114.48 119.401502 
L 116.242105 114.406694 
L 118.004211 112.144558 
L 119.766316 115.534344 
L 121.528421 116.467466 
L 125.052632 137.088952 
L 126.814737 138.698647 
L 128.576842 133.982261 
L 130.338947 140.820211 
L 132.101053 140.043387 
L 133.863158 129.630836 
L 135.625263 129.214077 
L 137.387368 135.331762 
L 139.149474 140.13605 
L 140.911579 125.313985 
L 142.673684 73.77589 
L 144.435789 65.046765 
L 146.197895 59.891819 
L 147.96 69.959438 
L 149.722105 77.980916 
L 151.484211 79.123733 
L 153.246316 78.773619 
L 155.008421 89.426507 
L 156.770526 98.991039 
L 158.532632 96.800269 
L 160.294737 101.320475 
L 162.056842 93.637853 
L 163.818947 89.475481 
L 165.581053 82.193839 
L 167.343158 77.291121 
L 169.105263 80.004821 
L 170.867368 76.228696 
L 172.629474 74.735282 
L 174.391579 71.088079 
L 176.153684 84.186087 
L 177.915789 113.361956 
L 179.677895 109.616164 
L 181.44 134.028852 
L 183.202105 132.29067 
L 184.964211 115.795605 
L 186.726316 105.427874 
L 188.488421 88.836284 
L 190.250526 77.863634 
L 192.012632 64.278484 
L 193.774737 63.784119 
L 195.536842 65.982833 
L 197.298947 66.243359 
L 199.061053 71.391674 
L 200.823158 74.308783 
L 202.585263 78.494525 
L 204.347368 88.829556 
L 206.109474 85.279876 
L 207.871579 87.976822 
L 209.633684 89.017669 
L 211.395789 94.886737 
L 213.157895 114.586829 
L 214.92 136.016382 
L 216.682105 123.814717 
L 218.444211 128.182279 
L 220.206316 136.351636 
L 221.968421 133.292911 
L 223.730526 142.575286 
L 225.492632 139.642212 
L 227.254737 143.42966 
L 229.016842 139.943076 
L 230.778947 133.857104 
L 232.541053 132.985888 
L 234.303158 133.505388 
L 236.065263 142.520983 
L 237.827368 147.845893 
L 239.589474 146.0858 
L 241.351579 152.706271 
L 243.113684 154.56572 
L 244.875789 152.835458 
L 246.637895 150.463773 
L 248.4 147.355876 
L 250.162105 131.714695 
L 251.924211 125.448716 
L 253.686316 114.623297 
L 255.448421 108.741366 
L 257.210526 104.303973 
L 258.972632 103.47759 
L 260.734737 117.682114 
L 262.496842 115.418104 
L 264.258947 110.544103 
L 266.021053 102.428541 
L 267.783158 104.882789 
L 269.545263 110.687037 
L 271.307368 108.742805 
L 273.069474 106.98112 
L 274.831579 107.792924 
L 276.593684 106.055438 
L 278.355789 101.895213 
L 280.117895 105.51787 
L 281.88 108.344132 
L 283.642105 108.11756 
L 285.404211 118.181394 
L 287.166316 125.669984 
L 288.928421 136.110323 
L 290.690526 135.876532 
L 292.452632 137.118352 
L 294.214737 143.403618 
L 295.976842 137.446758 
L 297.738947 146.309608 
L 299.501053 148.760906 
L 301.263158 145.010937 
L 303.025263 138.540863 
L 304.787368 137.741428 
L 306.549474 145.471501 
L 308.311579 144.575533 
L 310.073684 131.14344 
L 311.835789 128.363088 
L 313.597895 123.787277 
L 315.36 119.604175 
L 317.122105 113.327465 
L 318.884211 116.967953 
L 320.646316 116.57854 
L 322.408421 114.100327 
L 324.170526 114.159331 
L 325.932632 122.796166 
L 327.694737 135.604814 
L 329.456842 135.475348 
L 331.218947 147.474484 
L 332.981053 143.237766 
L 334.743158 144.73578 
L 336.505263 140.78388 
L 338.267368 146.349842 
L 340.029474 140.17238 
L 341.791579 139.323938 
L 343.553684 146.130202 
L 345.315789 160.022443 
L 347.077895 161.401508 
L 348.84 166.080012 
L 350.602105 166.004001 
L 352.364211 175.009042 
L 354.126316 165.091665 
L 355.888421 157.951218 
L 357.650526 160.064321 
L 359.412632 157.700323 
L 361.174737 151.0429 
L 362.936842 150.418501 
L 364.698947 155.923519 
L 366.461053 157.390368 
L 368.223158 154.630408 
L 369.985263 160.760944 
L 371.747368 163.036579 
L 373.509474 149.316221 
L 375.271579 150.358769 
L 377.033684 148.470286 
L 378.795789 136.344264 
L 380.557895 121.488571 
L 382.32 120.310565 
L 384.082105 115.371784 
L 385.844211 120.371189 
L 387.606316 115.842935 
L 389.368421 118.640163 
L 391.130526 135.25115 
L 392.892632 131.311062 
L 394.654737 121.275194 
L 396.416842 125.419089 
L 398.178947 136.739032 
L 399.941053 140.231348 
L 401.703158 137.767977 
L 403.465263 132.622923 
L 405.227368 135.585796 
L 406.989474 138.907552 
L 408.751579 143.130171 
L 410.513684 132.487401 
L 412.275789 126.776557 
L 414.037895 130.584249 
L 415.8 138.618827 
L 417.562105 124.889759 
L 419.324211 134.614699 
L 421.086316 128.011664 
L 422.848421 132.201987 
L 424.610526 121.521339 
L 426.372632 116.466528 
L 428.134737 105.99218 
L 429.896842 117.498225 
L 431.658947 125.073928 
L 433.421053 121.049433 
L 435.183158 125.786546 
L 436.945263 127.934838 
L 438.707368 128.291495 
L 440.469474 128.119868 
L 442.231579 114.434388 
L 445.755789 79.341814 
L 447.517895 66.786899 
L 449.28 58.483598 
L 451.042105 56.662936 
L 452.804211 62.116143 
L 454.566316 54.851906 
L 456.328421 49.351161 
L 458.090526 53.256469 
L 459.852632 63.823061 
L 461.614737 64.757565 
L 463.376842 78.107755 
L 465.138947 82.678422 
L 466.901053 81.248961 
L 468.663158 78.177976 
L 470.425263 73.830699 
L 472.187368 71.368943 
L 473.949474 71.781642 
L 477.473684 54.744696 
L 479.235789 50.896664 
L 480.997895 61.823165 
L 482.76 76.813547 
L 484.522105 79.212658 
L 486.284211 74.353486 
L 488.046316 81.362537 
L 489.808421 80.158429 
L 491.570526 90.834747 
L 493.332632 80.089178 
L 495.094737 79.045487 
L 496.856842 87.029342 
L 498.618947 77.727534 
L 500.381053 86.112691 
L 502.143158 74.702007 
L 503.905263 85.289601 
L 505.667368 93.698181 
L 507.429474 96.621254 
L 509.191579 87.34019 
L 510.953684 93.648772 
L 512.715789 116.259643 
L 514.477895 124.32514 
L 516.24 124.475097 
L 518.002105 121.325944 
L 519.764211 134.226343 
L 521.526316 137.138074 
L 523.288421 120.848336 
L 525.050526 115.622516 
L 526.812632 104.320969 
L 528.574737 110.463528 
L 530.336842 103.018339 
L 532.098947 98.675074 
L 533.861053 103.073646 
L 535.623158 93.173767 
L 537.385263 104.620819 
L 539.147368 106.963659 
L 540.909474 97.507006 
L 542.671579 97.523628 
L 544.433684 107.96728 
L 546.195789 110.165677 
L 547.957895 103.890277 
L 549.72 106.720829 
L 551.482105 117.554327 
L 553.244211 118.138647 
L 555.006316 106.530304 
L 556.768421 105.54778 
L 558.530526 124.229427 
L 560.292632 132.150148 
L 562.054737 141.109458 
L 563.816842 139.531597 
L 565.578947 143.138207 
L 567.341053 141.74344 
L 569.103158 135.541098 
L 570.865263 136.58572 
L 572.627368 129.716523 
L 574.389474 130.697659 
L 576.151579 132.691104 
L 577.913684 139.37672 
L 579.675789 131.944656 
L 581.437895 129.981116 
L 583.2 122.619366 
L 583.2 122.619366 
" style="fill:none;stroke:#0000ff;stroke-linecap:square;stroke-width:1.5;"/>
   </g>
   <g id="patch_3">
    <path d="M 81 192.24 
L 81 25.92 
" style="fill:none;stroke:#000000;stroke-linecap:square;stroke-linejoin:miter;stroke-width:0.8;"/>
   </g>
   <g id="patch_4">
    <path d="M 583.2 192.24 
L 583.2 25.92 
" style="fill:none;stroke:#000000;stroke-linecap:square;stroke-linejoin:miter;stroke-width:0.8;"/>
   </g>
   <g id="patch_5">
    <path d="M 81 192.24 
L 583.2 192.24 
" style="fill:none;stroke:#000000;stroke-linecap:square;stroke-linejoin:miter;stroke-width:0.8;"/>
   </g>
   <g id="patch_6">
    <path d="M 81 25.92 
L 583.2 25.92 
" style="fill:none;stroke:#000000;stroke-linecap:square;stroke-linejoin:miter;stroke-width:0.8;"/>
   </g>
   <g id="text_12">
    <!-- Thalamus, Num Trials=160 All stimulated trials -->
    <defs>
     <path d="M 54.890625 33.015625 
L 54.890625 0 
L 45.90625 0 
L 45.90625 32.71875 
Q 45.90625 40.484375 42.875 44.328125 
Q 39.84375 48.1875 33.796875 48.1875 
Q 26.515625 48.1875 22.3125 43.546875 
Q 18.109375 38.921875 18.109375 30.90625 
L 18.109375 0 
L 9.078125 0 
L 9.078125 75.984375 
L 18.109375 75.984375 
L 18.109375 46.1875 
Q 21.34375 51.125 25.703125 53.5625 
Q 30.078125 56 35.796875 56 
Q 45.21875 56 50.046875 50.171875 
Q 54.890625 44.34375 54.890625 33.015625 
z
" id="DejaVuSans-104"/>
     <path d="M 34.28125 27.484375 
Q 23.390625 27.484375 19.1875 25 
Q 14.984375 22.515625 14.984375 16.5 
Q 14.984375 11.71875 18.140625 8.90625 
Q 21.296875 6.109375 26.703125 6.109375 
Q 34.1875 6.109375 38.703125 11.40625 
Q 43.21875 16.703125 43.21875 25.484375 
L 43.21875 27.484375 
z
M 52.203125 31.203125 
L 52.203125 0 
L 43.21875 0 
L 43.21875 8.296875 
Q 40.140625 3.328125 35.546875 0.953125 
Q 30.953125 -1.421875 24.3125 -1.421875 
Q 15.921875 -1.421875 10.953125 3.296875 
Q 6 8.015625 6 15.921875 
Q 6 25.140625 12.171875 29.828125 
Q 18.359375 34.515625 30.609375 34.515625 
L 43.21875 34.515625 
L 43.21875 35.40625 
Q 43.21875 41.609375 39.140625 45 
Q 35.0625 48.390625 27.6875 48.390625 
Q 23 48.390625 18.546875 47.265625 
Q 14.109375 46.140625 10.015625 43.890625 
L 10.015625 52.203125 
Q 14.9375 54.109375 19.578125 55.046875 
Q 24.21875 56 28.609375 56 
Q 40.484375 56 46.34375 49.84375 
Q 52.203125 43.703125 52.203125 31.203125 
z
" id="DejaVuSans-97"/>
     <path d="M 9.421875 75.984375 
L 18.40625 75.984375 
L 18.40625 0 
L 9.421875 0 
z
" id="DejaVuSans-108"/>
     <path d="M 8.5 21.578125 
L 8.5 54.6875 
L 17.484375 54.6875 
L 17.484375 21.921875 
Q 17.484375 14.15625 20.5 10.265625 
Q 23.53125 6.390625 29.59375 6.390625 
Q 36.859375 6.390625 41.078125 11.03125 
Q 45.3125 15.671875 45.3125 23.6875 
L 45.3125 54.6875 
L 54.296875 54.6875 
L 54.296875 0 
L 45.3125 0 
L 45.3125 8.40625 
Q 42.046875 3.421875 37.71875 1 
Q 33.40625 -1.421875 27.6875 -1.421875 
Q 18.265625 -1.421875 13.375 4.4375 
Q 8.5 10.296875 8.5 21.578125 
z
M 31.109375 56 
z
" id="DejaVuSans-117"/>
     <path d="M 11.71875 12.40625 
L 22.015625 12.40625 
L 22.015625 4 
L 14.015625 -11.625 
L 7.71875 -11.625 
L 11.71875 4 
z
" id="DejaVuSans-44"/>
     <path d="M 9.8125 72.90625 
L 23.09375 72.90625 
L 55.421875 11.921875 
L 55.421875 72.90625 
L 64.984375 72.90625 
L 64.984375 0 
L 51.703125 0 
L 19.390625 60.984375 
L 19.390625 0 
L 9.8125 0 
z
" id="DejaVuSans-78"/>
     <path d="M 41.109375 46.296875 
Q 39.59375 47.171875 37.8125 47.578125 
Q 36.03125 48 33.890625 48 
Q 26.265625 48 22.1875 43.046875 
Q 18.109375 38.09375 18.109375 28.8125 
L 18.109375 0 
L 9.078125 0 
L 9.078125 54.6875 
L 18.109375 54.6875 
L 18.109375 46.1875 
Q 20.953125 51.171875 25.484375 53.578125 
Q 30.03125 56 36.53125 56 
Q 37.453125 56 38.578125 55.875 
Q 39.703125 55.765625 41.0625 55.515625 
z
" id="DejaVuSans-114"/>
     <path d="M 10.59375 45.40625 
L 73.1875 45.40625 
L 73.1875 37.203125 
L 10.59375 37.203125 
z
M 10.59375 25.484375 
L 73.1875 25.484375 
L 73.1875 17.1875 
L 10.59375 17.1875 
z
" id="DejaVuSans-61"/>
     <path d="M 33.015625 40.375 
Q 26.375 40.375 22.484375 35.828125 
Q 18.609375 31.296875 18.609375 23.390625 
Q 18.609375 15.53125 22.484375 10.953125 
Q 26.375 6.390625 33.015625 6.390625 
Q 39.65625 6.390625 43.53125 10.953125 
Q 47.40625 15.53125 47.40625 23.390625 
Q 47.40625 31.296875 43.53125 35.828125 
Q 39.65625 40.375 33.015625 40.375 
z
M 52.59375 71.296875 
L 52.59375 62.3125 
Q 48.875 64.0625 45.09375 64.984375 
Q 41.3125 65.921875 37.59375 65.921875 
Q 27.828125 65.921875 22.671875 59.328125 
Q 17.53125 52.734375 16.796875 39.40625 
Q 19.671875 43.65625 24.015625 45.921875 
Q 28.375 48.1875 33.59375 48.1875 
Q 44.578125 48.1875 50.953125 41.515625 
Q 57.328125 34.859375 57.328125 23.390625 
Q 57.328125 12.15625 50.6875 5.359375 
Q 44.046875 -1.421875 33.015625 -1.421875 
Q 20.359375 -1.421875 13.671875 8.265625 
Q 6.984375 17.96875 6.984375 36.375 
Q 6.984375 53.65625 15.1875 63.9375 
Q 23.390625 74.21875 37.203125 74.21875 
Q 40.921875 74.21875 44.703125 73.484375 
Q 48.484375 72.75 52.59375 71.296875 
z
" id="DejaVuSans-54"/>
     <path d="M 34.1875 63.1875 
L 20.796875 26.90625 
L 47.609375 26.90625 
z
M 28.609375 72.90625 
L 39.796875 72.90625 
L 67.578125 0 
L 57.328125 0 
L 50.6875 18.703125 
L 17.828125 18.703125 
L 11.1875 0 
L 0.78125 0 
z
" id="DejaVuSans-65"/>
     <path d="M 18.3125 70.21875 
L 18.3125 54.6875 
L 36.8125 54.6875 
L 36.8125 47.703125 
L 18.3125 47.703125 
L 18.3125 18.015625 
Q 18.3125 11.328125 20.140625 9.421875 
Q 21.96875 7.515625 27.59375 7.515625 
L 36.8125 7.515625 
L 36.8125 0 
L 27.59375 0 
Q 17.1875 0 13.234375 3.875 
Q 9.28125 7.765625 9.28125 18.015625 
L 9.28125 47.703125 
L 2.6875 47.703125 
L 2.6875 54.6875 
L 9.28125 54.6875 
L 9.28125 70.21875 
z
" id="DejaVuSans-116"/>
     <path d="M 45.40625 46.390625 
L 45.40625 75.984375 
L 54.390625 75.984375 
L 54.390625 0 
L 45.40625 0 
L 45.40625 8.203125 
Q 42.578125 3.328125 38.25 0.953125 
Q 33.9375 -1.421875 27.875 -1.421875 
Q 17.96875 -1.421875 11.734375 6.484375 
Q 5.515625 14.40625 5.515625 27.296875 
Q 5.515625 40.1875 11.734375 48.09375 
Q 17.96875 56 27.875 56 
Q 33.9375 56 38.25 53.625 
Q 42.578125 51.265625 45.40625 46.390625 
z
M 14.796875 27.296875 
Q 14.796875 17.390625 18.875 11.75 
Q 22.953125 6.109375 30.078125 6.109375 
Q 37.203125 6.109375 41.296875 11.75 
Q 45.40625 17.390625 45.40625 27.296875 
Q 45.40625 37.203125 41.296875 42.84375 
Q 37.203125 48.484375 30.078125 48.484375 
Q 22.953125 48.484375 18.875 42.84375 
Q 14.796875 37.203125 14.796875 27.296875 
z
" id="DejaVuSans-100"/>
    </defs>
    <g transform="translate(190.146563 19.92)scale(0.12 -0.12)">
     <use xlink:href="#DejaVuSans-84"/>
     <use x="61.083984" xlink:href="#DejaVuSans-104"/>
     <use x="124.462891" xlink:href="#DejaVuSans-97"/>
     <use x="185.742188" xlink:href="#DejaVuSans-108"/>
     <use x="213.525391" xlink:href="#DejaVuSans-97"/>
     <use x="274.804688" xlink:href="#DejaVuSans-109"/>
     <use x="372.216797" xlink:href="#DejaVuSans-117"/>
     <use x="435.595703" xlink:href="#DejaVuSans-115"/>
     <use x="487.695312" xlink:href="#DejaVuSans-44"/>
     <use x="519.482422" xlink:href="#DejaVuSans-32"/>
     <use x="551.269531" xlink:href="#DejaVuSans-78"/>
     <use x="626.074219" xlink:href="#DejaVuSans-117"/>
     <use x="689.453125" xlink:href="#DejaVuSans-109"/>
     <use x="786.865234" xlink:href="#DejaVuSans-32"/>
     <use x="818.652344" xlink:href="#DejaVuSans-84"/>
     <use x="879.517578" xlink:href="#DejaVuSans-114"/>
     <use x="920.630859" xlink:href="#DejaVuSans-105"/>
     <use x="948.414062" xlink:href="#DejaVuSans-97"/>
     <use x="1009.693359" xlink:href="#DejaVuSans-108"/>
     <use x="1037.476562" xlink:href="#DejaVuSans-115"/>
     <use x="1089.576172" xlink:href="#DejaVuSans-61"/>
     <use x="1173.365234" xlink:href="#DejaVuSans-49"/>
     <use x="1236.988281" xlink:href="#DejaVuSans-54"/>
     <use x="1300.611328" xlink:href="#DejaVuSans-48"/>
     <use x="1364.234375" xlink:href="#DejaVuSans-32"/>
     <use x="1396.021484" xlink:href="#DejaVuSans-65"/>
     <use x="1464.429688" xlink:href="#DejaVuSans-108"/>
     <use x="1492.212891" xlink:href="#DejaVuSans-108"/>
     <use x="1519.996094" xlink:href="#DejaVuSans-32"/>
     <use x="1551.783203" xlink:href="#DejaVuSans-115"/>
     <use x="1603.882812" xlink:href="#DejaVuSans-116"/>
     <use x="1643.091797" xlink:href="#DejaVuSans-105"/>
     <use x="1670.875" xlink:href="#DejaVuSans-109"/>
     <use x="1768.287109" xlink:href="#DejaVuSans-117"/>
     <use x="1831.666016" xlink:href="#DejaVuSans-108"/>
     <use x="1859.449219" xlink:href="#DejaVuSans-97"/>
     <use x="1920.728516" xlink:href="#DejaVuSans-116"/>
     <use x="1959.9375" xlink:href="#DejaVuSans-101"/>
     <use x="2021.460938" xlink:href="#DejaVuSans-100"/>
     <use x="2084.9375" xlink:href="#DejaVuSans-32"/>
     <use x="2116.724609" xlink:href="#DejaVuSans-116"/>
     <use x="2155.933594" xlink:href="#DejaVuSans-114"/>
     <use x="2197.046875" xlink:href="#DejaVuSans-105"/>
     <use x="2224.830078" xlink:href="#DejaVuSans-97"/>
     <use x="2286.109375" xlink:href="#DejaVuSans-108"/>
     <use x="2313.892578" xlink:href="#DejaVuSans-115"/>
    </g>
   </g>
   <g id="legend_1">
    <g id="patch_7">
     <path d="M 89.4 186.24 
L 224.04 186.24 
Q 226.44 186.24 226.44 183.84 
L 226.44 149.78625 
Q 226.44 147.38625 224.04 147.38625 
L 89.4 147.38625 
Q 87 147.38625 87 149.78625 
L 87 183.84 
Q 87 186.24 89.4 186.24 
z
" style="fill:#ffffff;opacity:0.8;stroke:#cccccc;stroke-linejoin:miter;"/>
    </g>
    <g id="line2d_11">
     <path d="M 91.8 157.10625 
L 115.8 157.10625 
" style="fill:none;stroke:#0000ff;stroke-linecap:square;stroke-width:1.5;"/>
    </g>
    <g id="line2d_12"/>
    <g id="text_13">
     <!-- COM-Binomial $p$ -->
     <defs>
      <path d="M 4.890625 31.390625 
L 31.203125 31.390625 
L 31.203125 23.390625 
L 4.890625 23.390625 
z
" id="DejaVuSans-45"/>
      <path d="M 19.671875 34.8125 
L 19.671875 8.109375 
L 35.5 8.109375 
Q 43.453125 8.109375 47.28125 11.40625 
Q 51.125 14.703125 51.125 21.484375 
Q 51.125 28.328125 47.28125 31.5625 
Q 43.453125 34.8125 35.5 34.8125 
z
M 19.671875 64.796875 
L 19.671875 42.828125 
L 34.28125 42.828125 
Q 41.5 42.828125 45.03125 45.53125 
Q 48.578125 48.25 48.578125 53.8125 
Q 48.578125 59.328125 45.03125 62.0625 
Q 41.5 64.796875 34.28125 64.796875 
z
M 9.8125 72.90625 
L 35.015625 72.90625 
Q 46.296875 72.90625 52.390625 68.21875 
Q 58.5 63.53125 58.5 54.890625 
Q 58.5 48.1875 55.375 44.234375 
Q 52.25 40.28125 46.1875 39.3125 
Q 53.46875 37.75 57.5 32.78125 
Q 61.53125 27.828125 61.53125 20.40625 
Q 61.53125 10.640625 54.890625 5.3125 
Q 48.25 0 35.984375 0 
L 9.8125 0 
z
" id="DejaVuSans-66"/>
      <path d="M 54.890625 33.015625 
L 54.890625 0 
L 45.90625 0 
L 45.90625 32.71875 
Q 45.90625 40.484375 42.875 44.328125 
Q 39.84375 48.1875 33.796875 48.1875 
Q 26.515625 48.1875 22.3125 43.546875 
Q 18.109375 38.921875 18.109375 30.90625 
L 18.109375 0 
L 9.078125 0 
L 9.078125 54.6875 
L 18.109375 54.6875 
L 18.109375 46.1875 
Q 21.34375 51.125 25.703125 53.5625 
Q 30.078125 56 35.796875 56 
Q 45.21875 56 50.046875 50.171875 
Q 54.890625 44.34375 54.890625 33.015625 
z
" id="DejaVuSans-110"/>
      <path d="M 30.609375 48.390625 
Q 23.390625 48.390625 19.1875 42.75 
Q 14.984375 37.109375 14.984375 27.296875 
Q 14.984375 17.484375 19.15625 11.84375 
Q 23.34375 6.203125 30.609375 6.203125 
Q 37.796875 6.203125 41.984375 11.859375 
Q 46.1875 17.53125 46.1875 27.296875 
Q 46.1875 37.015625 41.984375 42.703125 
Q 37.796875 48.390625 30.609375 48.390625 
z
M 30.609375 56 
Q 42.328125 56 49.015625 48.375 
Q 55.71875 40.765625 55.71875 27.296875 
Q 55.71875 13.875 49.015625 6.21875 
Q 42.328125 -1.421875 30.609375 -1.421875 
Q 18.84375 -1.421875 12.171875 6.21875 
Q 5.515625 13.875 5.515625 27.296875 
Q 5.515625 40.765625 12.171875 48.375 
Q 18.84375 56 30.609375 56 
z
" id="DejaVuSans-111"/>
     </defs>
     <g transform="translate(125.4 161.30625)scale(0.12 -0.12)">
      <use transform="translate(0 0.015625)" xlink:href="#DejaVuSans-67"/>
      <use transform="translate(69.824219 0.015625)" xlink:href="#DejaVuSans-79"/>
      <use transform="translate(148.535156 0.015625)" xlink:href="#DejaVuSans-77"/>
      <use transform="translate(234.814453 0.015625)" xlink:href="#DejaVuSans-45"/>
      <use transform="translate(270.898438 0.015625)" xlink:href="#DejaVuSans-66"/>
      <use transform="translate(339.501953 0.015625)" xlink:href="#DejaVuSans-105"/>
      <use transform="translate(367.285156 0.015625)" xlink:href="#DejaVuSans-110"/>
      <use transform="translate(430.664062 0.015625)" xlink:href="#DejaVuSans-111"/>
      <use transform="translate(491.845703 0.015625)" xlink:href="#DejaVuSans-109"/>
      <use transform="translate(589.257812 0.015625)" xlink:href="#DejaVuSans-105"/>
      <use transform="translate(617.041016 0.015625)" xlink:href="#DejaVuSans-97"/>
      <use transform="translate(678.320312 0.015625)" xlink:href="#DejaVuSans-108"/>
      <use transform="translate(706.103516 0.015625)" xlink:href="#DejaVuSans-32"/>
      <use transform="translate(737.890625 0.015625)" xlink:href="#DejaVuSans-Oblique-112"/>
     </g>
    </g>
    <g id="patch_8">
     <path d="M 91.8 178.944375 
L 115.8 178.944375 
L 115.8 170.544375 
L 91.8 170.544375 
z
" style="fill:#0000ff;opacity:0.3;stroke:#0000ff;stroke-linejoin:miter;"/>
    </g>
    <g id="text_14">
     <!-- Std. Err. -->
     <defs>
      <path d="M 53.515625 70.515625 
L 53.515625 60.890625 
Q 47.90625 63.578125 42.921875 64.890625 
Q 37.9375 66.21875 33.296875 66.21875 
Q 25.25 66.21875 20.875 63.09375 
Q 16.5 59.96875 16.5 54.203125 
Q 16.5 49.359375 19.40625 46.890625 
Q 22.3125 44.4375 30.421875 42.921875 
L 36.375 41.703125 
Q 47.40625 39.59375 52.65625 34.296875 
Q 57.90625 29 57.90625 20.125 
Q 57.90625 9.515625 50.796875 4.046875 
Q 43.703125 -1.421875 29.984375 -1.421875 
Q 24.8125 -1.421875 18.96875 -0.25 
Q 13.140625 0.921875 6.890625 3.21875 
L 6.890625 13.375 
Q 12.890625 10.015625 18.65625 8.296875 
Q 24.421875 6.59375 29.984375 6.59375 
Q 38.421875 6.59375 43.015625 9.90625 
Q 47.609375 13.234375 47.609375 19.390625 
Q 47.609375 24.75 44.3125 27.78125 
Q 41.015625 30.8125 33.5 32.328125 
L 27.484375 33.5 
Q 16.453125 35.6875 11.515625 40.375 
Q 6.59375 45.0625 6.59375 53.421875 
Q 6.59375 63.09375 13.40625 68.65625 
Q 20.21875 74.21875 32.171875 74.21875 
Q 37.3125 74.21875 42.625 73.28125 
Q 47.953125 72.359375 53.515625 70.515625 
z
" id="DejaVuSans-83"/>
      <path d="M 9.8125 72.90625 
L 55.90625 72.90625 
L 55.90625 64.59375 
L 19.671875 64.59375 
L 19.671875 43.015625 
L 54.390625 43.015625 
L 54.390625 34.71875 
L 19.671875 34.71875 
L 19.671875 8.296875 
L 56.78125 8.296875 
L 56.78125 0 
L 9.8125 0 
z
" id="DejaVuSans-69"/>
     </defs>
     <g transform="translate(125.4 178.944375)scale(0.12 -0.12)">
      <use xlink:href="#DejaVuSans-83"/>
      <use x="63.476562" xlink:href="#DejaVuSans-116"/>
      <use x="102.685547" xlink:href="#DejaVuSans-100"/>
      <use x="166.162109" xlink:href="#DejaVuSans-46"/>
      <use x="197.949219" xlink:href="#DejaVuSans-32"/>
      <use x="229.736328" xlink:href="#DejaVuSans-69"/>
      <use x="292.919922" xlink:href="#DejaVuSans-114"/>
      <use x="334.017578" xlink:href="#DejaVuSans-114"/>
      <use x="374.990234" xlink:href="#DejaVuSans-46"/>
     </g>
    </g>
   </g>
  </g>
 </g>
 <defs>
  <clipPath id="p47381fc82e">
   <rect height="166.32" width="502.2" x="81" y="25.92"/>
  </clipPath>
 </defs>
</svg>
