<?xml version="1.0" encoding="utf-8" standalone="no"?>
<!DOCTYPE svg PUBLIC "-//W3C//DTD SVG 1.1//EN"
  "http://www.w3.org/Graphics/SVG/1.1/DTD/svg11.dtd">
<!-- Created with matplotlib (https://matplotlib.org/) -->
<svg height="223.2pt" version="1.1" viewBox="0 0 576 223.2" width="576pt" xmlns="http://www.w3.org/2000/svg" xmlns:xlink="http://www.w3.org/1999/xlink">
 <defs>
  <style type="text/css">
*{stroke-linecap:butt;stroke-linejoin:round;}
  </style>
 </defs>
 <g id="figure_1">
  <g id="patch_1">
   <path d="M 0 223.2 
L 576 223.2 
L 576 0 
L 0 0 
z
" style="fill:#ffffff;"/>
  </g>
  <g id="axes_1">
   <g id="patch_2">
    <path d="M 72.47 174.76 
L 565.2 174.76 
L 565.2 26.88 
L 72.47 26.88 
z
" style="fill:#ffffff;"/>
   </g>
   <g id="PolyCollection_1">
    <defs>
     <path d="M 152.559503 -48.44 
L 152.559503 -196.32 
L 403.100181 -196.32 
L 403.100181 -48.44 
L 403.100181 -48.44 
L 152.559503 -48.44 
z
" id="m498348f710" style="stroke:#808080;stroke-opacity:0.3;"/>
    </defs>
    <g clip-path="url(#pa97862fc85)">
     <use style="fill:#808080;fill-opacity:0.3;stroke:#808080;stroke-opacity:0.3;" x="0" xlink:href="#m498348f710" y="223.2"/>
    </g>
   </g>
   <g id="PolyCollection_2">
    <defs>
     <path d="M 72.47 -116.145023 
L 72.47 -111.396982 
L 74.140271 -111.89044 
L 75.810542 -111.91622 
L 77.480814 -111.860791 
L 79.151085 -110.606073 
L 80.821356 -110.238029 
L 82.491627 -109.555056 
L 84.161898 -108.920256 
L 85.832169 -108.457229 
L 87.502441 -108.328784 
L 89.172712 -108.362109 
L 90.842983 -107.863575 
L 92.513254 -108.171375 
L 94.183525 -107.32105 
L 95.853797 -108.298254 
L 97.524068 -108.197916 
L 99.194339 -108.128742 
L 100.86461 -108.264225 
L 102.534881 -107.805217 
L 104.205153 -107.653359 
L 105.875424 -107.714679 
L 107.545695 -107.80612 
L 109.215966 -107.868895 
L 110.886237 -108.85903 
L 112.556508 -108.823506 
L 114.22678 -108.851554 
L 115.897051 -109.671124 
L 117.567322 -109.481701 
L 119.237593 -109.951907 
L 120.907864 -110.673711 
L 122.578136 -110.784765 
L 124.248407 -110.9371 
L 125.918678 -110.875007 
L 127.588949 -110.724926 
L 129.25922 -110.433986 
L 130.929492 -110.292729 
L 132.599763 -110.093017 
L 134.270034 -110.745846 
L 135.940305 -110.739239 
L 137.610576 -110.916163 
L 139.280847 -111.131543 
L 140.951119 -111.129568 
L 142.62139 -110.674809 
L 144.291661 -110.825823 
L 145.961932 -110.559697 
L 147.632203 -112.910384 
L 149.302475 -121.060012 
L 150.972746 -132.966681 
L 152.643017 -150.014267 
L 154.313288 -167.39944 
L 155.983559 -179.14069 
L 157.653831 -185.157033 
L 159.324102 -189.243162 
L 160.994373 -190.702332 
L 162.664644 -190.398518 
L 164.334915 -187.260213 
L 166.005186 -177.648849 
L 167.675458 -163.709647 
L 169.345729 -144.977546 
L 171.016 -125.543097 
L 172.686271 -111.603107 
L 174.356542 -103.293524 
L 176.026814 -97.498586 
L 177.697085 -94.121893 
L 179.367356 -93.632374 
L 181.037627 -93.826998 
L 182.707898 -96.281611 
L 184.378169 -100.642846 
L 186.048441 -105.945161 
L 187.718712 -111.815187 
L 189.388983 -119.53408 
L 191.059254 -128.745628 
L 192.729525 -137.185369 
L 194.399797 -142.99866 
L 196.070068 -147.727398 
L 197.740339 -151.726741 
L 199.41061 -152.828643 
L 201.080881 -152.208784 
L 202.751153 -150.598871 
L 204.421424 -147.123199 
L 206.091695 -142.785364 
L 207.761966 -136.522057 
L 209.432237 -130.678537 
L 211.102508 -127.028369 
L 212.77278 -123.536928 
L 214.443051 -120.203486 
L 216.113322 -118.178882 
L 217.783593 -116.612629 
L 219.453864 -115.178362 
L 221.124136 -115.402121 
L 222.794407 -114.736427 
L 224.464678 -115.050286 
L 226.134949 -114.819239 
L 227.80522 -114.395056 
L 229.475492 -114.274907 
L 231.145763 -114.412136 
L 232.816034 -114.026371 
L 234.486305 -113.556082 
L 236.156576 -113.02983 
L 237.826847 -112.141821 
L 239.497119 -111.77548 
L 241.16739 -111.332987 
L 242.837661 -111.661019 
L 244.507932 -110.712336 
L 246.178203 -110.674406 
L 247.848475 -110.375529 
L 249.518746 -110.396157 
L 251.189017 -110.951893 
L 252.859288 -111.634603 
L 254.529559 -112.678098 
L 256.199831 -113.684062 
L 257.870102 -114.235375 
L 259.540373 -115.107219 
L 261.210644 -116.293433 
L 262.880915 -116.620539 
L 264.551186 -116.360892 
L 266.221458 -117.304578 
L 267.891729 -117.348242 
L 269.562 -117.800671 
L 271.232271 -117.470856 
L 272.902542 -117.948887 
L 274.572814 -118.740505 
L 276.243085 -118.338654 
L 277.913356 -118.55148 
L 279.583627 -118.267952 
L 281.253898 -118.662105 
L 282.924169 -118.419903 
L 284.594441 -118.309302 
L 286.264712 -118.108344 
L 287.934983 -118.671693 
L 289.605254 -117.401012 
L 291.275525 -115.731658 
L 292.945797 -115.606383 
L 294.616068 -115.621558 
L 296.286339 -115.729477 
L 297.95661 -115.95481 
L 299.626881 -115.564436 
L 301.297153 -115.432456 
L 302.967424 -114.923934 
L 304.637695 -113.966589 
L 306.307966 -114.185511 
L 307.978237 -114.584246 
L 309.648508 -114.30661 
L 311.31878 -113.963425 
L 312.989051 -114.297157 
L 314.659322 -114.361212 
L 316.329593 -113.768443 
L 317.999864 -113.4167 
L 319.670136 -113.905584 
L 321.340407 -114.469256 
L 323.010678 -114.49552 
L 324.680949 -114.922019 
L 326.35122 -115.141549 
L 328.021492 -115.422624 
L 329.691763 -115.147064 
L 331.362034 -114.92135 
L 333.032305 -115.433135 
L 334.702576 -115.73323 
L 336.372847 -115.320341 
L 338.043119 -115.107898 
L 339.71339 -115.592003 
L 341.383661 -115.802948 
L 343.053932 -115.865481 
L 344.724203 -116.294069 
L 346.394475 -116.674281 
L 348.064746 -116.373611 
L 349.735017 -116.47107 
L 351.405288 -117.075255 
L 353.075559 -117.999971 
L 354.745831 -118.819218 
L 356.416102 -119.538948 
L 358.086373 -120.142297 
L 359.756644 -120.872508 
L 361.426915 -121.018779 
L 363.097186 -121.2685 
L 364.767458 -122.07107 
L 366.437729 -122.655238 
L 368.108 -123.050477 
L 369.778271 -123.127979 
L 371.448542 -122.669008 
L 373.118814 -121.847705 
L 374.789085 -120.454993 
L 376.459356 -119.419145 
L 378.129627 -118.500705 
L 379.799898 -117.989161 
L 381.470169 -117.873997 
L 383.140441 -117.845436 
L 384.810712 -117.751387 
L 386.480983 -117.63278 
L 388.151254 -117.299485 
L 389.821525 -117.056789 
L 391.491797 -117.380912 
L 393.162068 -117.996496 
L 394.832339 -117.772891 
L 396.50261 -117.008432 
L 398.172881 -117.593016 
L 399.843153 -119.132906 
L 401.513424 -121.364276 
L 403.183695 -124.434477 
L 404.853966 -127.937735 
L 406.524237 -131.634094 
L 408.194508 -135.657582 
L 409.86478 -138.510543 
L 411.535051 -140.728808 
L 413.205322 -143.648966 
L 414.875593 -143.821308 
L 416.545864 -142.650062 
L 418.216136 -139.929398 
L 419.886407 -136.206001 
L 421.556678 -132.269467 
L 423.226949 -127.866298 
L 424.89722 -122.871412 
L 426.567492 -118.353214 
L 428.237763 -115.574892 
L 429.908034 -112.447693 
L 431.578305 -110.280587 
L 433.248576 -108.911297 
L 434.918847 -109.37831 
L 436.589119 -110.883396 
L 438.25939 -112.206307 
L 439.929661 -113.405574 
L 441.599932 -115.205556 
L 443.270203 -117.534835 
L 444.940475 -118.78382 
L 446.610746 -119.963672 
L 448.281017 -120.853796 
L 449.951288 -121.326962 
L 451.621559 -120.874223 
L 453.291831 -119.53409 
L 454.962102 -118.330429 
L 456.632373 -117.034832 
L 458.302644 -116.171074 
L 459.972915 -114.422629 
L 461.643186 -113.085738 
L 463.313458 -112.645642 
L 464.983729 -111.912216 
L 466.654 -111.019907 
L 468.324271 -110.514817 
L 469.994542 -109.855798 
L 471.664814 -110.022701 
L 473.335085 -109.953163 
L 475.005356 -109.538601 
L 476.675627 -110.044848 
L 478.345898 -110.770141 
L 480.016169 -110.675312 
L 481.686441 -110.702999 
L 483.356712 -111.15869 
L 485.026983 -111.286182 
L 486.697254 -111.137378 
L 488.367525 -111.246563 
L 490.037797 -112.137347 
L 491.708068 -112.361583 
L 493.378339 -112.110308 
L 495.04861 -112.036122 
L 496.718881 -111.96872 
L 498.389153 -112.252154 
L 500.059424 -112.129541 
L 501.729695 -112.071404 
L 503.399966 -113.218538 
L 505.070237 -112.984777 
L 506.740508 -113.036801 
L 508.41078 -112.414055 
L 510.081051 -112.162777 
L 511.751322 -111.859473 
L 513.421593 -111.399731 
L 515.091864 -110.673468 
L 516.762136 -110.750712 
L 518.432407 -110.468411 
L 520.102678 -109.498211 
L 521.772949 -109.309582 
L 523.44322 -108.85405 
L 525.113492 -108.576912 
L 526.783763 -108.359968 
L 528.454034 -108.016993 
L 530.124305 -107.942177 
L 531.794576 -108.08254 
L 533.464847 -107.244583 
L 535.135119 -107.728428 
L 536.80539 -107.682139 
L 538.475661 -107.711437 
L 540.145932 -107.978453 
L 541.816203 -108.523078 
L 543.486475 -109.176827 
L 545.156746 -109.755145 
L 546.827017 -109.688051 
L 548.497288 -110.732551 
L 550.167559 -111.279405 
L 551.837831 -111.21417 
L 553.508102 -111.932705 
L 555.178373 -112.029154 
L 556.848644 -112.552799 
L 558.518915 -112.778086 
L 560.189186 -112.660599 
L 561.859458 -112.555714 
L 563.529729 -113.100634 
L 565.2 -112.401785 
L 565.2 -117.4044 
L 565.2 -117.4044 
L 563.529729 -118.191419 
L 561.859458 -117.69859 
L 560.189186 -117.971068 
L 558.518915 -118.183773 
L 556.848644 -117.913772 
L 555.178373 -117.328912 
L 553.508102 -117.095168 
L 551.837831 -116.327836 
L 550.167559 -116.239016 
L 548.497288 -115.465099 
L 546.827017 -114.292589 
L 545.156746 -114.178325 
L 543.486475 -113.317946 
L 541.816203 -112.674509 
L 540.145932 -112.063459 
L 538.475661 -111.740845 
L 536.80539 -111.840899 
L 535.135119 -111.983292 
L 533.464847 -111.641654 
L 531.794576 -112.619758 
L 530.124305 -112.500684 
L 528.454034 -112.66172 
L 526.783763 -113.167812 
L 525.113492 -113.422572 
L 523.44322 -113.782234 
L 521.772949 -114.411621 
L 520.102678 -114.765452 
L 518.432407 -115.776409 
L 516.762136 -116.130909 
L 515.091864 -116.043056 
L 513.421593 -116.684734 
L 511.751322 -117.02689 
L 510.081051 -117.242459 
L 508.41078 -117.321375 
L 506.740508 -117.854304 
L 505.070237 -117.788402 
L 503.399966 -118.026344 
L 501.729695 -116.814958 
L 500.059424 -116.921918 
L 498.389153 -117.011571 
L 496.718881 -116.823302 
L 495.04861 -117.156847 
L 493.378339 -117.389269 
L 491.708068 -117.916306 
L 490.037797 -117.645253 
L 488.367525 -116.814317 
L 486.697254 -116.711235 
L 485.026983 -116.939795 
L 483.356712 -116.737093 
L 481.686441 -116.013525 
L 480.016169 -115.734604 
L 478.345898 -115.569019 
L 476.675627 -114.690519 
L 475.005356 -114.017507 
L 473.335085 -114.475597 
L 471.664814 -114.453228 
L 469.994542 -114.38428 
L 468.324271 -115.140373 
L 466.654 -115.790957 
L 464.983729 -116.80905 
L 463.313458 -117.632247 
L 461.643186 -118.159144 
L 459.972915 -119.463796 
L 458.302644 -121.371057 
L 456.632373 -122.276188 
L 454.962102 -123.645719 
L 453.291831 -124.918504 
L 451.621559 -126.337839 
L 449.951288 -126.734168 
L 448.281017 -126.145999 
L 446.610746 -125.172893 
L 444.940475 -123.970639 
L 443.270203 -122.766764 
L 441.599932 -120.59127 
L 439.929661 -119.065739 
L 438.25939 -118.165923 
L 436.589119 -117.130314 
L 434.918847 -115.899517 
L 433.248576 -115.706144 
L 431.578305 -117.285004 
L 429.908034 -119.669841 
L 428.237763 -123.052158 
L 426.567492 -125.934283 
L 424.89722 -130.590729 
L 423.226949 -135.831819 
L 421.556678 -140.367441 
L 419.886407 -144.237608 
L 418.216136 -147.849208 
L 416.545864 -150.435214 
L 414.875593 -151.339465 
L 413.205322 -150.757081 
L 411.535051 -147.403576 
L 409.86478 -144.881215 
L 408.194508 -141.696365 
L 406.524237 -137.252767 
L 404.853966 -133.260351 
L 403.183695 -129.522953 
L 401.513424 -126.390246 
L 399.843153 -124.140428 
L 398.172881 -122.472731 
L 396.50261 -121.830884 
L 394.832339 -122.646633 
L 393.162068 -122.776806 
L 391.491797 -122.11879 
L 389.821525 -121.735357 
L 388.151254 -122.035121 
L 386.480983 -122.480138 
L 384.810712 -122.691723 
L 383.140441 -122.7156 
L 381.470169 -122.852136 
L 379.799898 -122.925653 
L 378.129627 -123.333932 
L 376.459356 -124.396649 
L 374.789085 -125.57781 
L 373.118814 -126.991736 
L 371.448542 -128.010079 
L 369.778271 -128.565271 
L 368.108 -128.689943 
L 366.437729 -128.495552 
L 364.767458 -127.829705 
L 363.097186 -127.028482 
L 361.426915 -126.570646 
L 359.756644 -126.198044 
L 358.086373 -125.348045 
L 356.416102 -124.536283 
L 354.745831 -123.74656 
L 353.075559 -122.891258 
L 351.405288 -121.952743 
L 349.735017 -121.354083 
L 348.064746 -121.333616 
L 346.394475 -121.693331 
L 344.724203 -121.460328 
L 343.053932 -121.016264 
L 341.383661 -120.984456 
L 339.71339 -120.935964 
L 338.043119 -120.311564 
L 336.372847 -120.547241 
L 334.702576 -121.07776 
L 333.032305 -120.764639 
L 331.362034 -120.26226 
L 329.691763 -120.413909 
L 328.021492 -120.610054 
L 326.35122 -120.348669 
L 324.680949 -120.049324 
L 323.010678 -119.603171 
L 321.340407 -119.487924 
L 319.670136 -118.848751 
L 317.999864 -118.299887 
L 316.329593 -118.561359 
L 314.659322 -119.077094 
L 312.989051 -118.976052 
L 311.31878 -118.649398 
L 309.648508 -119.084525 
L 307.978237 -119.396519 
L 306.307966 -119.064113 
L 304.637695 -118.834916 
L 302.967424 -119.787972 
L 301.297153 -120.222859 
L 299.626881 -120.397486 
L 297.95661 -120.785424 
L 296.286339 -120.491883 
L 294.616068 -120.387534 
L 292.945797 -120.308369 
L 291.275525 -120.466116 
L 289.605254 -122.169446 
L 287.934983 -123.540307 
L 286.264712 -123.113077 
L 284.594441 -123.360239 
L 282.924169 -123.461904 
L 281.253898 -123.667821 
L 279.583627 -123.330833 
L 277.913356 -123.61335 
L 276.243085 -123.283716 
L 274.572814 -123.730932 
L 272.902542 -122.895171 
L 271.232271 -122.476965 
L 269.562 -122.996217 
L 267.891729 -122.599579 
L 266.221458 -122.619658 
L 264.551186 -121.770868 
L 262.880915 -122.006511 
L 261.210644 -121.814743 
L 259.540373 -120.595266 
L 257.870102 -119.674634 
L 256.199831 -118.905176 
L 254.529559 -117.953569 
L 252.859288 -116.75647 
L 251.189017 -116.071238 
L 249.518746 -115.400544 
L 247.848475 -115.491927 
L 246.178203 -115.924192 
L 244.507932 -116.122114 
L 242.837661 -117.154588 
L 241.16739 -116.916575 
L 239.497119 -117.41749 
L 237.826847 -117.735119 
L 236.156576 -118.498075 
L 234.486305 -118.985987 
L 232.816034 -119.600616 
L 231.145763 -120.063918 
L 229.475492 -119.847369 
L 227.80522 -119.986658 
L 226.134949 -120.505883 
L 224.464678 -120.722955 
L 222.794407 -120.447183 
L 221.124136 -121.125846 
L 219.453864 -120.972242 
L 217.783593 -122.627636 
L 216.113322 -124.009533 
L 214.443051 -125.876487 
L 212.77278 -129.099731 
L 211.102508 -132.966872 
L 209.432237 -137.052649 
L 207.761966 -143.897967 
L 206.091695 -151.219735 
L 204.421424 -156.198053 
L 202.751153 -160.104549 
L 201.080881 -161.772978 
L 199.41061 -162.143698 
L 197.740339 -160.438961 
L 196.070068 -155.71178 
L 194.399797 -150.369638 
L 192.729525 -144.036551 
L 191.059254 -135.211926 
L 189.388983 -125.956263 
L 187.718712 -118.203265 
L 186.048441 -112.351446 
L 184.378169 -107.158348 
L 182.707898 -102.84023 
L 181.037627 -100.365536 
L 179.367356 -100.064871 
L 177.697085 -100.448004 
L 176.026814 -103.887433 
L 174.356542 -110.003022 
L 172.686271 -118.226663 
L 171.016 -132.211549 
L 169.345729 -151.621924 
L 167.675458 -170.29595 
L 166.005186 -184.352379 
L 164.334915 -193.656346 
L 162.664644 -196.32 
L 160.994373 -196.252038 
L 159.324102 -194.456451 
L 157.653831 -190.075493 
L 155.983559 -183.945458 
L 154.313288 -172.077924 
L 152.643017 -154.722097 
L 150.972746 -137.877751 
L 149.302475 -126.293562 
L 147.632203 -118.405254 
L 145.961932 -116.156827 
L 144.291661 -116.409575 
L 142.62139 -116.253981 
L 140.951119 -116.624704 
L 139.280847 -116.575559 
L 137.610576 -116.177724 
L 135.940305 -115.788603 
L 134.270034 -115.640485 
L 132.599763 -114.618765 
L 130.929492 -114.725661 
L 129.25922 -114.773085 
L 127.588949 -114.906679 
L 125.918678 -114.968864 
L 124.248407 -115.095453 
L 122.578136 -114.964765 
L 120.907864 -115.005064 
L 119.237593 -114.311756 
L 117.567322 -113.90931 
L 115.897051 -114.144421 
L 114.22678 -113.265855 
L 112.556508 -113.293904 
L 110.886237 -113.30555 
L 109.215966 -112.290943 
L 107.545695 -112.188622 
L 105.875424 -112.162137 
L 104.205153 -112.152702 
L 102.534881 -112.354621 
L 100.86461 -112.839021 
L 99.194339 -112.809408 
L 97.524068 -112.928915 
L 95.853797 -113.1116 
L 94.183525 -112.036892 
L 92.513254 -112.955457 
L 90.842983 -112.697212 
L 89.172712 -113.165671 
L 87.502441 -113.12824 
L 85.832169 -113.259233 
L 84.161898 -113.692443 
L 82.491627 -114.378414 
L 80.821356 -115.039798 
L 79.151085 -115.37931 
L 77.480814 -116.624622 
L 75.810542 -116.616364 
L 74.140271 -116.571389 
L 72.47 -116.145023 
z
" id="m4cdc55d74b" style="stroke:#0000ff;stroke-opacity:0.3;"/>
    </defs>
    <g clip-path="url(#pa97862fc85)">
     <use style="fill:#0000ff;fill-opacity:0.3;stroke:#0000ff;stroke-opacity:0.3;" x="0" xlink:href="#m4cdc55d74b" y="223.2"/>
    </g>
   </g>
   <g id="matplotlib.axis_1">
    <g id="xtick_1">
     <g id="line2d_1">
      <defs>
       <path d="M 0 0 
L 0 3.5 
" id="md7970c7c46" style="stroke:#000000;stroke-width:0.8;"/>
      </defs>
      <g>
       <use style="stroke:#000000;stroke-width:0.8;" x="152.559503" xlink:href="#md7970c7c46" y="174.76"/>
      </g>
     </g>
     <g id="text_1">
      <!-- 0.0 -->
      <defs>
       <path d="M 31.78125 66.40625 
Q 24.171875 66.40625 20.328125 58.90625 
Q 16.5 51.421875 16.5 36.375 
Q 16.5 21.390625 20.328125 13.890625 
Q 24.171875 6.390625 31.78125 6.390625 
Q 39.453125 6.390625 43.28125 13.890625 
Q 47.125 21.390625 47.125 36.375 
Q 47.125 51.421875 43.28125 58.90625 
Q 39.453125 66.40625 31.78125 66.40625 
z
M 31.78125 74.21875 
Q 44.046875 74.21875 50.515625 64.515625 
Q 56.984375 54.828125 56.984375 36.375 
Q 56.984375 17.96875 50.515625 8.265625 
Q 44.046875 -1.421875 31.78125 -1.421875 
Q 19.53125 -1.421875 13.0625 8.265625 
Q 6.59375 17.96875 6.59375 36.375 
Q 6.59375 54.828125 13.0625 64.515625 
Q 19.53125 74.21875 31.78125 74.21875 
z
" id="DejaVuSans-48"/>
       <path d="M 10.6875 12.40625 
L 21 12.40625 
L 21 0 
L 10.6875 0 
z
" id="DejaVuSans-46"/>
      </defs>
      <g transform="translate(143.017628 190.878125)scale(0.12 -0.12)">
       <use xlink:href="#DejaVuSans-48"/>
       <use x="63.623047" xlink:href="#DejaVuSans-46"/>
       <use x="95.410156" xlink:href="#DejaVuSans-48"/>
      </g>
     </g>
    </g>
    <g id="xtick_2">
     <g id="line2d_2">
      <g>
       <use style="stroke:#000000;stroke-width:0.8;" x="236.073063" xlink:href="#md7970c7c46" y="174.76"/>
      </g>
     </g>
     <g id="text_2">
      <!-- 0.5 -->
      <defs>
       <path d="M 10.796875 72.90625 
L 49.515625 72.90625 
L 49.515625 64.59375 
L 19.828125 64.59375 
L 19.828125 46.734375 
Q 21.96875 47.46875 24.109375 47.828125 
Q 26.265625 48.1875 28.421875 48.1875 
Q 40.625 48.1875 47.75 41.5 
Q 54.890625 34.8125 54.890625 23.390625 
Q 54.890625 11.625 47.5625 5.09375 
Q 40.234375 -1.421875 26.90625 -1.421875 
Q 22.3125 -1.421875 17.546875 -0.640625 
Q 12.796875 0.140625 7.71875 1.703125 
L 7.71875 11.625 
Q 12.109375 9.234375 16.796875 8.0625 
Q 21.484375 6.890625 26.703125 6.890625 
Q 35.15625 6.890625 40.078125 11.328125 
Q 45.015625 15.765625 45.015625 23.390625 
Q 45.015625 31 40.078125 35.4375 
Q 35.15625 39.890625 26.703125 39.890625 
Q 22.75 39.890625 18.8125 39.015625 
Q 14.890625 38.140625 10.796875 36.28125 
z
" id="DejaVuSans-53"/>
      </defs>
      <g transform="translate(226.531188 190.878125)scale(0.12 -0.12)">
       <use xlink:href="#DejaVuSans-48"/>
       <use x="63.623047" xlink:href="#DejaVuSans-46"/>
       <use x="95.410156" xlink:href="#DejaVuSans-53"/>
      </g>
     </g>
    </g>
    <g id="xtick_3">
     <g id="line2d_3">
      <g>
       <use style="stroke:#000000;stroke-width:0.8;" x="319.586622" xlink:href="#md7970c7c46" y="174.76"/>
      </g>
     </g>
     <g id="text_3">
      <!-- 1.0 -->
      <defs>
       <path d="M 12.40625 8.296875 
L 28.515625 8.296875 
L 28.515625 63.921875 
L 10.984375 60.40625 
L 10.984375 69.390625 
L 28.421875 72.90625 
L 38.28125 72.90625 
L 38.28125 8.296875 
L 54.390625 8.296875 
L 54.390625 0 
L 12.40625 0 
z
" id="DejaVuSans-49"/>
      </defs>
      <g transform="translate(310.044747 190.878125)scale(0.12 -0.12)">
       <use xlink:href="#DejaVuSans-49"/>
       <use x="63.623047" xlink:href="#DejaVuSans-46"/>
       <use x="95.410156" xlink:href="#DejaVuSans-48"/>
      </g>
     </g>
    </g>
    <g id="xtick_4">
     <g id="line2d_4">
      <g>
       <use style="stroke:#000000;stroke-width:0.8;" x="403.100181" xlink:href="#md7970c7c46" y="174.76"/>
      </g>
     </g>
     <g id="text_4">
      <!-- 1.5 -->
      <g transform="translate(393.558306 190.878125)scale(0.12 -0.12)">
       <use xlink:href="#DejaVuSans-49"/>
       <use x="63.623047" xlink:href="#DejaVuSans-46"/>
       <use x="95.410156" xlink:href="#DejaVuSans-53"/>
      </g>
     </g>
    </g>
    <g id="xtick_5">
     <g id="line2d_5">
      <g>
       <use style="stroke:#000000;stroke-width:0.8;" x="486.613741" xlink:href="#md7970c7c46" y="174.76"/>
      </g>
     </g>
     <g id="text_5">
      <!-- 2.0 -->
      <defs>
       <path d="M 19.1875 8.296875 
L 53.609375 8.296875 
L 53.609375 0 
L 7.328125 0 
L 7.328125 8.296875 
Q 12.9375 14.109375 22.625 23.890625 
Q 32.328125 33.6875 34.8125 36.53125 
Q 39.546875 41.84375 41.421875 45.53125 
Q 43.3125 49.21875 43.3125 52.78125 
Q 43.3125 58.59375 39.234375 62.25 
Q 35.15625 65.921875 28.609375 65.921875 
Q 23.96875 65.921875 18.8125 64.3125 
Q 13.671875 62.703125 7.8125 59.421875 
L 7.8125 69.390625 
Q 13.765625 71.78125 18.9375 73 
Q 24.125 74.21875 28.421875 74.21875 
Q 39.75 74.21875 46.484375 68.546875 
Q 53.21875 62.890625 53.21875 53.421875 
Q 53.21875 48.921875 51.53125 44.890625 
Q 49.859375 40.875 45.40625 35.40625 
Q 44.1875 33.984375 37.640625 27.21875 
Q 31.109375 20.453125 19.1875 8.296875 
z
" id="DejaVuSans-50"/>
      </defs>
      <g transform="translate(477.071866 190.878125)scale(0.12 -0.12)">
       <use xlink:href="#DejaVuSans-50"/>
       <use x="63.623047" xlink:href="#DejaVuSans-46"/>
       <use x="95.410156" xlink:href="#DejaVuSans-48"/>
      </g>
     </g>
    </g>
    <g id="text_6">
     <!-- Time (s) -->
     <defs>
      <path d="M -0.296875 72.90625 
L 61.375 72.90625 
L 61.375 64.59375 
L 35.5 64.59375 
L 35.5 0 
L 25.59375 0 
L 25.59375 64.59375 
L -0.296875 64.59375 
z
" id="DejaVuSans-84"/>
      <path d="M 9.421875 54.6875 
L 18.40625 54.6875 
L 18.40625 0 
L 9.421875 0 
z
M 9.421875 75.984375 
L 18.40625 75.984375 
L 18.40625 64.59375 
L 9.421875 64.59375 
z
" id="DejaVuSans-105"/>
      <path d="M 52 44.1875 
Q 55.375 50.25 60.0625 53.125 
Q 64.75 56 71.09375 56 
Q 79.640625 56 84.28125 50.015625 
Q 88.921875 44.046875 88.921875 33.015625 
L 88.921875 0 
L 79.890625 0 
L 79.890625 32.71875 
Q 79.890625 40.578125 77.09375 44.375 
Q 74.3125 48.1875 68.609375 48.1875 
Q 61.625 48.1875 57.5625 43.546875 
Q 53.515625 38.921875 53.515625 30.90625 
L 53.515625 0 
L 44.484375 0 
L 44.484375 32.71875 
Q 44.484375 40.625 41.703125 44.40625 
Q 38.921875 48.1875 33.109375 48.1875 
Q 26.21875 48.1875 22.15625 43.53125 
Q 18.109375 38.875 18.109375 30.90625 
L 18.109375 0 
L 9.078125 0 
L 9.078125 54.6875 
L 18.109375 54.6875 
L 18.109375 46.1875 
Q 21.1875 51.21875 25.484375 53.609375 
Q 29.78125 56 35.6875 56 
Q 41.65625 56 45.828125 52.96875 
Q 50 49.953125 52 44.1875 
z
" id="DejaVuSans-109"/>
      <path d="M 56.203125 29.59375 
L 56.203125 25.203125 
L 14.890625 25.203125 
Q 15.484375 15.921875 20.484375 11.0625 
Q 25.484375 6.203125 34.421875 6.203125 
Q 39.59375 6.203125 44.453125 7.46875 
Q 49.3125 8.734375 54.109375 11.28125 
L 54.109375 2.78125 
Q 49.265625 0.734375 44.1875 -0.34375 
Q 39.109375 -1.421875 33.890625 -1.421875 
Q 20.796875 -1.421875 13.15625 6.1875 
Q 5.515625 13.8125 5.515625 26.8125 
Q 5.515625 40.234375 12.765625 48.109375 
Q 20.015625 56 32.328125 56 
Q 43.359375 56 49.78125 48.890625 
Q 56.203125 41.796875 56.203125 29.59375 
z
M 47.21875 32.234375 
Q 47.125 39.59375 43.09375 43.984375 
Q 39.0625 48.390625 32.421875 48.390625 
Q 24.90625 48.390625 20.390625 44.140625 
Q 15.875 39.890625 15.1875 32.171875 
z
" id="DejaVuSans-101"/>
      <path id="DejaVuSans-32"/>
      <path d="M 31 75.875 
Q 24.46875 64.65625 21.28125 53.65625 
Q 18.109375 42.671875 18.109375 31.390625 
Q 18.109375 20.125 21.3125 9.0625 
Q 24.515625 -2 31 -13.1875 
L 23.1875 -13.1875 
Q 15.875 -1.703125 12.234375 9.375 
Q 8.59375 20.453125 8.59375 31.390625 
Q 8.59375 42.28125 12.203125 53.3125 
Q 15.828125 64.359375 23.1875 75.875 
z
" id="DejaVuSans-40"/>
      <path d="M 44.28125 53.078125 
L 44.28125 44.578125 
Q 40.484375 46.53125 36.375 47.5 
Q 32.28125 48.484375 27.875 48.484375 
Q 21.1875 48.484375 17.84375 46.4375 
Q 14.5 44.390625 14.5 40.28125 
Q 14.5 37.15625 16.890625 35.375 
Q 19.28125 33.59375 26.515625 31.984375 
L 29.59375 31.296875 
Q 39.15625 29.25 43.1875 25.515625 
Q 47.21875 21.78125 47.21875 15.09375 
Q 47.21875 7.46875 41.1875 3.015625 
Q 35.15625 -1.421875 24.609375 -1.421875 
Q 20.21875 -1.421875 15.453125 -0.5625 
Q 10.6875 0.296875 5.421875 2 
L 5.421875 11.28125 
Q 10.40625 8.6875 15.234375 7.390625 
Q 20.0625 6.109375 24.8125 6.109375 
Q 31.15625 6.109375 34.5625 8.28125 
Q 37.984375 10.453125 37.984375 14.40625 
Q 37.984375 18.0625 35.515625 20.015625 
Q 33.0625 21.96875 24.703125 23.78125 
L 21.578125 24.515625 
Q 13.234375 26.265625 9.515625 29.90625 
Q 5.8125 33.546875 5.8125 39.890625 
Q 5.8125 47.609375 11.28125 51.796875 
Q 16.75 56 26.8125 56 
Q 31.78125 56 36.171875 55.265625 
Q 40.578125 54.546875 44.28125 53.078125 
z
" id="DejaVuSans-115"/>
      <path d="M 8.015625 75.875 
L 15.828125 75.875 
Q 23.140625 64.359375 26.78125 53.3125 
Q 30.421875 42.28125 30.421875 31.390625 
Q 30.421875 20.453125 26.78125 9.375 
Q 23.140625 -1.703125 15.828125 -13.1875 
L 8.015625 -13.1875 
Q 14.5 -2 17.703125 9.0625 
Q 20.90625 20.125 20.90625 31.390625 
Q 20.90625 42.671875 17.703125 53.65625 
Q 14.5 64.65625 8.015625 75.875 
z
" id="DejaVuSans-41"/>
     </defs>
     <g transform="translate(289.33975 208.3155)scale(0.144 -0.144)">
      <use xlink:href="#DejaVuSans-84"/>
      <use x="61.037109" xlink:href="#DejaVuSans-105"/>
      <use x="88.820312" xlink:href="#DejaVuSans-109"/>
      <use x="186.232422" xlink:href="#DejaVuSans-101"/>
      <use x="247.755859" xlink:href="#DejaVuSans-32"/>
      <use x="279.542969" xlink:href="#DejaVuSans-40"/>
      <use x="318.556641" xlink:href="#DejaVuSans-115"/>
      <use x="370.65625" xlink:href="#DejaVuSans-41"/>
     </g>
    </g>
   </g>
   <g id="matplotlib.axis_2">
    <g id="ytick_1">
     <g id="line2d_6">
      <defs>
       <path d="M 0 0 
L -3.5 0 
" id="mf233564ea0" style="stroke:#000000;stroke-width:0.8;"/>
      </defs>
      <g>
       <use style="stroke:#000000;stroke-width:0.8;" x="72.47" xlink:href="#mf233564ea0" y="174.76"/>
      </g>
     </g>
     <g id="text_7">
      <!-- 0.000 -->
      <g transform="translate(31.11625 179.319062)scale(0.12 -0.12)">
       <use xlink:href="#DejaVuSans-48"/>
       <use x="63.623047" xlink:href="#DejaVuSans-46"/>
       <use x="95.410156" xlink:href="#DejaVuSans-48"/>
       <use x="159.033203" xlink:href="#DejaVuSans-48"/>
       <use x="222.65625" xlink:href="#DejaVuSans-48"/>
      </g>
     </g>
    </g>
    <g id="ytick_2">
     <g id="line2d_7">
      <g>
       <use style="stroke:#000000;stroke-width:0.8;" x="72.47" xlink:href="#mf233564ea0" y="144.570944"/>
      </g>
     </g>
     <g id="text_8">
      <!-- 0.001 -->
      <g transform="translate(31.11625 149.130007)scale(0.12 -0.12)">
       <use xlink:href="#DejaVuSans-48"/>
       <use x="63.623047" xlink:href="#DejaVuSans-46"/>
       <use x="95.410156" xlink:href="#DejaVuSans-48"/>
       <use x="159.033203" xlink:href="#DejaVuSans-48"/>
       <use x="222.65625" xlink:href="#DejaVuSans-49"/>
      </g>
     </g>
    </g>
    <g id="ytick_3">
     <g id="line2d_8">
      <g>
       <use style="stroke:#000000;stroke-width:0.8;" x="72.47" xlink:href="#mf233564ea0" y="114.381889"/>
      </g>
     </g>
     <g id="text_9">
      <!-- 0.002 -->
      <g transform="translate(31.11625 118.940951)scale(0.12 -0.12)">
       <use xlink:href="#DejaVuSans-48"/>
       <use x="63.623047" xlink:href="#DejaVuSans-46"/>
       <use x="95.410156" xlink:href="#DejaVuSans-48"/>
       <use x="159.033203" xlink:href="#DejaVuSans-48"/>
       <use x="222.65625" xlink:href="#DejaVuSans-50"/>
      </g>
     </g>
    </g>
    <g id="ytick_4">
     <g id="line2d_9">
      <g>
       <use style="stroke:#000000;stroke-width:0.8;" x="72.47" xlink:href="#mf233564ea0" y="84.192833"/>
      </g>
     </g>
     <g id="text_10">
      <!-- 0.003 -->
      <defs>
       <path d="M 40.578125 39.3125 
Q 47.65625 37.796875 51.625 33 
Q 55.609375 28.21875 55.609375 21.1875 
Q 55.609375 10.40625 48.1875 4.484375 
Q 40.765625 -1.421875 27.09375 -1.421875 
Q 22.515625 -1.421875 17.65625 -0.515625 
Q 12.796875 0.390625 7.625 2.203125 
L 7.625 11.71875 
Q 11.71875 9.328125 16.59375 8.109375 
Q 21.484375 6.890625 26.8125 6.890625 
Q 36.078125 6.890625 40.9375 10.546875 
Q 45.796875 14.203125 45.796875 21.1875 
Q 45.796875 27.640625 41.28125 31.265625 
Q 36.765625 34.90625 28.71875 34.90625 
L 20.21875 34.90625 
L 20.21875 43.015625 
L 29.109375 43.015625 
Q 36.375 43.015625 40.234375 45.921875 
Q 44.09375 48.828125 44.09375 54.296875 
Q 44.09375 59.90625 40.109375 62.90625 
Q 36.140625 65.921875 28.71875 65.921875 
Q 24.65625 65.921875 20.015625 65.03125 
Q 15.375 64.15625 9.8125 62.3125 
L 9.8125 71.09375 
Q 15.4375 72.65625 20.34375 73.4375 
Q 25.25 74.21875 29.59375 74.21875 
Q 40.828125 74.21875 47.359375 69.109375 
Q 53.90625 64.015625 53.90625 55.328125 
Q 53.90625 49.265625 50.4375 45.09375 
Q 46.96875 40.921875 40.578125 39.3125 
z
" id="DejaVuSans-51"/>
      </defs>
      <g transform="translate(31.11625 88.751896)scale(0.12 -0.12)">
       <use xlink:href="#DejaVuSans-48"/>
       <use x="63.623047" xlink:href="#DejaVuSans-46"/>
       <use x="95.410156" xlink:href="#DejaVuSans-48"/>
       <use x="159.033203" xlink:href="#DejaVuSans-48"/>
       <use x="222.65625" xlink:href="#DejaVuSans-51"/>
      </g>
     </g>
    </g>
    <g id="ytick_5">
     <g id="line2d_10">
      <g>
       <use style="stroke:#000000;stroke-width:0.8;" x="72.47" xlink:href="#mf233564ea0" y="54.003778"/>
      </g>
     </g>
     <g id="text_11">
      <!-- 0.004 -->
      <defs>
       <path d="M 37.796875 64.3125 
L 12.890625 25.390625 
L 37.796875 25.390625 
z
M 35.203125 72.90625 
L 47.609375 72.90625 
L 47.609375 25.390625 
L 58.015625 25.390625 
L 58.015625 17.1875 
L 47.609375 17.1875 
L 47.609375 0 
L 37.796875 0 
L 37.796875 17.1875 
L 4.890625 17.1875 
L 4.890625 26.703125 
z
" id="DejaVuSans-52"/>
      </defs>
      <g transform="translate(31.11625 58.56284)scale(0.12 -0.12)">
       <use xlink:href="#DejaVuSans-48"/>
       <use x="63.623047" xlink:href="#DejaVuSans-46"/>
       <use x="95.410156" xlink:href="#DejaVuSans-48"/>
       <use x="159.033203" xlink:href="#DejaVuSans-48"/>
       <use x="222.65625" xlink:href="#DejaVuSans-52"/>
      </g>
     </g>
    </g>
    <g id="text_12">
     <!-- Bin. $p$ -->
     <defs>
      <path d="M 19.671875 34.8125 
L 19.671875 8.109375 
L 35.5 8.109375 
Q 43.453125 8.109375 47.28125 11.40625 
Q 51.125 14.703125 51.125 21.484375 
Q 51.125 28.328125 47.28125 31.5625 
Q 43.453125 34.8125 35.5 34.8125 
z
M 19.671875 64.796875 
L 19.671875 42.828125 
L 34.28125 42.828125 
Q 41.5 42.828125 45.03125 45.53125 
Q 48.578125 48.25 48.578125 53.8125 
Q 48.578125 59.328125 45.03125 62.0625 
Q 41.5 64.796875 34.28125 64.796875 
z
M 9.8125 72.90625 
L 35.015625 72.90625 
Q 46.296875 72.90625 52.390625 68.21875 
Q 58.5 63.53125 58.5 54.890625 
Q 58.5 48.1875 55.375 44.234375 
Q 52.25 40.28125 46.1875 39.3125 
Q 53.46875 37.75 57.5 32.78125 
Q 61.53125 27.828125 61.53125 20.40625 
Q 61.53125 10.640625 54.890625 5.3125 
Q 48.25 0 35.984375 0 
L 9.8125 0 
z
" id="DejaVuSans-66"/>
      <path d="M 54.890625 33.015625 
L 54.890625 0 
L 45.90625 0 
L 45.90625 32.71875 
Q 45.90625 40.484375 42.875 44.328125 
Q 39.84375 48.1875 33.796875 48.1875 
Q 26.515625 48.1875 22.3125 43.546875 
Q 18.109375 38.921875 18.109375 30.90625 
L 18.109375 0 
L 9.078125 0 
L 9.078125 54.6875 
L 18.109375 54.6875 
L 18.109375 46.1875 
Q 21.34375 51.125 25.703125 53.5625 
Q 30.078125 56 35.796875 56 
Q 45.21875 56 50.046875 50.171875 
Q 54.890625 44.34375 54.890625 33.015625 
z
" id="DejaVuSans-110"/>
      <path d="M 49.609375 33.6875 
Q 49.609375 40.875 46.484375 44.671875 
Q 43.359375 48.484375 37.5 48.484375 
Q 33.5 48.484375 29.859375 46.4375 
Q 26.21875 44.390625 23.390625 40.484375 
Q 20.609375 36.625 18.9375 31.15625 
Q 17.28125 25.6875 17.28125 20.3125 
Q 17.28125 13.484375 20.40625 9.796875 
Q 23.53125 6.109375 29.296875 6.109375 
Q 33.546875 6.109375 37.1875 8.109375 
Q 40.828125 10.109375 43.40625 13.921875 
Q 46.1875 17.921875 47.890625 23.34375 
Q 49.609375 28.765625 49.609375 33.6875 
z
M 21.78125 46.390625 
Q 25.390625 51.125 30.296875 53.5625 
Q 35.203125 56 41.21875 56 
Q 49.609375 56 54.25 50.5 
Q 58.890625 45.015625 58.890625 35.109375 
Q 58.890625 27 56 19.65625 
Q 53.125 12.3125 47.703125 6.5 
Q 44.09375 2.640625 39.546875 0.609375 
Q 35.015625 -1.421875 29.984375 -1.421875 
Q 24.171875 -1.421875 20.21875 1 
Q 16.265625 3.421875 14.3125 8.203125 
L 8.6875 -20.796875 
L -0.296875 -20.796875 
L 14.40625 54.6875 
L 23.390625 54.6875 
z
" id="DejaVuSans-Oblique-112"/>
     </defs>
     <g transform="translate(24.09225 121.484)rotate(-90)scale(0.144 -0.144)">
      <use transform="translate(0 0.015625)" xlink:href="#DejaVuSans-66"/>
      <use transform="translate(68.603516 0.015625)" xlink:href="#DejaVuSans-105"/>
      <use transform="translate(96.386719 0.015625)" xlink:href="#DejaVuSans-110"/>
      <use transform="translate(159.765625 0.015625)" xlink:href="#DejaVuSans-46"/>
      <use transform="translate(191.552734 0.015625)" xlink:href="#DejaVuSans-32"/>
      <use transform="translate(223.339844 0.015625)" xlink:href="#DejaVuSans-Oblique-112"/>
     </g>
    </g>
   </g>
   <g id="line2d_11">
    <path clip-path="url(#pa97862fc85)" d="M 72.47 109.428997 
L 74.140271 108.969086 
L 77.480814 108.957293 
L 79.151085 110.207309 
L 80.821356 110.561087 
L 84.161898 111.89365 
L 85.832169 112.341769 
L 87.502441 112.471488 
L 89.172712 112.43611 
L 90.842983 112.919607 
L 92.513254 112.636584 
L 94.183525 113.521029 
L 95.853797 112.495073 
L 99.194339 112.730925 
L 100.86461 112.648377 
L 102.534881 113.120081 
L 104.205153 113.29697 
L 109.215966 113.120081 
L 110.886237 112.11771 
L 114.22678 112.141295 
L 115.897051 111.292228 
L 117.567322 111.504495 
L 119.237593 111.068168 
L 120.907864 110.360612 
L 125.918678 110.278064 
L 130.929492 110.690805 
L 132.599763 110.844109 
L 134.270034 110.006834 
L 135.940305 109.936079 
L 139.280847 109.346449 
L 140.951119 109.322864 
L 142.62139 109.735605 
L 144.291661 109.582301 
L 145.961932 109.841738 
L 147.632203 107.542181 
L 149.302475 99.523213 
L 150.972746 87.777784 
L 154.313288 53.461318 
L 155.983559 41.656926 
L 157.653831 35.583737 
L 159.324102 31.350194 
L 160.994373 29.722815 
L 162.664644 29.840741 
L 164.334915 32.741721 
L 166.005186 42.199386 
L 167.675458 56.197202 
L 171.016 94.322677 
L 172.686271 108.285115 
L 174.356542 116.551727 
L 176.026814 122.50699 
L 177.697085 125.915052 
L 179.367356 126.351378 
L 181.037627 126.103733 
L 182.707898 123.63908 
L 184.378169 119.299403 
L 186.048441 114.051696 
L 187.718712 108.190774 
L 189.388983 100.454829 
L 192.729525 82.58904 
L 194.399797 76.515851 
L 196.070068 71.480411 
L 197.740339 67.117149 
L 199.41061 65.71383 
L 201.080881 66.209119 
L 202.751153 67.84829 
L 204.421424 71.539374 
L 206.091695 76.197451 
L 209.432237 89.334407 
L 212.77278 96.881671 
L 214.443051 100.160014 
L 216.113322 102.105793 
L 219.453864 105.124698 
L 221.124136 104.936017 
L 222.794407 105.608195 
L 224.464678 105.31338 
L 226.134949 105.537439 
L 227.80522 106.009143 
L 229.475492 106.138862 
L 231.145763 105.961973 
L 232.816034 106.386506 
L 236.156576 107.436048 
L 237.826847 108.26153 
L 239.497119 108.603515 
L 241.16739 109.075219 
L 242.837661 108.792197 
L 244.507932 109.782775 
L 246.178203 109.900701 
L 247.848475 110.266272 
L 249.518746 110.301649 
L 252.859288 109.004463 
L 254.529559 107.884167 
L 256.199831 106.905381 
L 257.870102 106.244995 
L 259.540373 105.348758 
L 261.210644 104.145912 
L 262.880915 103.886475 
L 264.551186 104.13412 
L 266.221458 103.237882 
L 267.891729 103.22609 
L 269.562 102.801556 
L 271.232271 103.22609 
L 272.902542 102.777971 
L 274.572814 101.964281 
L 276.243085 102.388815 
L 277.913356 102.117585 
L 279.583627 102.400608 
L 281.253898 102.035037 
L 282.924169 102.259096 
L 284.594441 102.36523 
L 286.264712 102.589289 
L 287.934983 102.094 
L 289.605254 103.414771 
L 291.275525 105.101113 
L 292.945797 105.242624 
L 296.286339 105.08932 
L 297.95661 104.829883 
L 299.626881 105.219039 
L 301.297153 105.372343 
L 302.967424 105.844047 
L 304.637695 106.799247 
L 306.307966 106.575188 
L 307.978237 106.209617 
L 311.31878 106.893588 
L 312.989051 106.563395 
L 314.659322 106.480847 
L 316.329593 107.035099 
L 317.999864 107.341707 
L 321.340407 106.22141 
L 323.010678 106.150654 
L 324.680949 105.714328 
L 328.021492 105.183661 
L 331.362034 105.608195 
L 333.032305 105.101113 
L 334.702576 104.794505 
L 336.372847 105.266209 
L 338.043119 105.490269 
L 339.71339 104.936017 
L 343.053932 104.759128 
L 344.724203 104.322801 
L 346.394475 104.016194 
L 348.064746 104.346387 
L 349.735017 104.287424 
L 351.405288 103.686001 
L 354.745831 101.917111 
L 359.756644 99.664724 
L 363.097186 99.051509 
L 364.767458 98.249612 
L 366.437729 97.624605 
L 368.108 97.32979 
L 369.778271 97.353375 
L 371.448542 97.860457 
L 373.118814 98.780279 
L 374.789085 100.183599 
L 378.129627 102.282682 
L 379.799898 102.742593 
L 386.480983 103.143541 
L 388.151254 103.532697 
L 389.821525 103.803927 
L 391.491797 103.450149 
L 393.162068 102.813349 
L 394.832339 102.990238 
L 396.50261 103.780342 
L 398.172881 103.167127 
L 399.843153 101.563333 
L 401.513424 99.322739 
L 403.183695 96.221285 
L 406.524237 88.75657 
L 408.194508 84.523026 
L 409.86478 81.504121 
L 411.535051 79.133808 
L 413.205322 75.996977 
L 414.875593 75.619613 
L 416.545864 76.657362 
L 418.216136 79.310697 
L 421.556678 86.881546 
L 423.226949 91.350942 
L 424.89722 96.46893 
L 426.567492 101.056251 
L 428.237763 103.886475 
L 429.908034 107.141233 
L 431.578305 109.417204 
L 433.248576 110.891279 
L 434.918847 110.561087 
L 436.589119 109.193145 
L 439.929661 106.964344 
L 441.599932 105.301587 
L 443.270203 103.049201 
L 446.610746 100.631718 
L 448.281017 99.700102 
L 449.951288 99.169435 
L 451.621559 99.593969 
L 454.962102 102.211926 
L 456.632373 103.54449 
L 458.302644 104.428935 
L 459.972915 106.256788 
L 461.643186 107.577559 
L 463.313458 108.061056 
L 464.983729 108.839367 
L 466.654 109.794568 
L 468.324271 110.372405 
L 469.994542 111.079961 
L 471.664814 110.962035 
L 473.335085 110.98562 
L 475.005356 111.421946 
L 476.675627 110.832316 
L 478.345898 110.03042 
L 480.016169 109.995042 
L 481.686441 109.841738 
L 483.356712 109.252108 
L 485.026983 109.087012 
L 486.697254 109.275693 
L 488.367525 109.16956 
L 490.037797 108.3087 
L 491.708068 108.061056 
L 493.378339 108.450211 
L 496.718881 108.803989 
L 498.389153 108.568137 
L 501.729695 108.756819 
L 503.399966 107.577559 
L 505.070237 107.813411 
L 506.740508 107.754448 
L 508.41078 108.332285 
L 511.751322 108.756819 
L 513.421593 109.157767 
L 515.091864 109.841738 
L 516.762136 109.75919 
L 518.432407 110.07759 
L 520.102678 111.068168 
L 521.772949 111.339398 
L 523.44322 111.881858 
L 528.454034 112.860644 
L 530.124305 112.97857 
L 531.794576 112.848851 
L 533.464847 113.756881 
L 535.135119 113.34414 
L 538.475661 113.473859 
L 540.145932 113.179044 
L 543.486475 111.952613 
L 545.156746 111.233265 
L 546.827017 111.20968 
L 548.497288 110.101175 
L 550.167559 109.44079 
L 551.837831 109.428997 
L 553.508102 108.686063 
L 555.178373 108.520967 
L 556.848644 107.966715 
L 558.518915 107.71907 
L 561.859458 108.072848 
L 563.529729 107.553974 
L 565.2 108.296907 
L 565.2 108.296907 
" style="fill:none;stroke:#0000ff;stroke-linecap:square;stroke-width:1.5;"/>
   </g>
   <g id="patch_3">
    <path d="M 72.47 174.76 
L 72.47 26.88 
" style="fill:none;stroke:#000000;stroke-linecap:square;stroke-linejoin:miter;stroke-width:0.8;"/>
   </g>
   <g id="patch_4">
    <path d="M 565.2 174.76 
L 565.2 26.88 
" style="fill:none;stroke:#000000;stroke-linecap:square;stroke-linejoin:miter;stroke-width:0.8;"/>
   </g>
   <g id="patch_5">
    <path d="M 72.47 174.76 
L 565.2 174.76 
" style="fill:none;stroke:#000000;stroke-linecap:square;stroke-linejoin:miter;stroke-width:0.8;"/>
   </g>
   <g id="patch_6">
    <path d="M 72.47 26.88 
L 565.2 26.88 
" style="fill:none;stroke:#000000;stroke-linecap:square;stroke-linejoin:miter;stroke-width:0.8;"/>
   </g>
   <g id="text_13">
    <!-- V1, Num Trials=160 All stimulated trials, Num cells = 160 -->
    <defs>
     <path d="M 28.609375 0 
L 0.78125 72.90625 
L 11.078125 72.90625 
L 34.1875 11.53125 
L 57.328125 72.90625 
L 67.578125 72.90625 
L 39.796875 0 
z
" id="DejaVuSans-86"/>
     <path d="M 11.71875 12.40625 
L 22.015625 12.40625 
L 22.015625 4 
L 14.015625 -11.625 
L 7.71875 -11.625 
L 11.71875 4 
z
" id="DejaVuSans-44"/>
     <path d="M 9.8125 72.90625 
L 23.09375 72.90625 
L 55.421875 11.921875 
L 55.421875 72.90625 
L 64.984375 72.90625 
L 64.984375 0 
L 51.703125 0 
L 19.390625 60.984375 
L 19.390625 0 
L 9.8125 0 
z
" id="DejaVuSans-78"/>
     <path d="M 8.5 21.578125 
L 8.5 54.6875 
L 17.484375 54.6875 
L 17.484375 21.921875 
Q 17.484375 14.15625 20.5 10.265625 
Q 23.53125 6.390625 29.59375 6.390625 
Q 36.859375 6.390625 41.078125 11.03125 
Q 45.3125 15.671875 45.3125 23.6875 
L 45.3125 54.6875 
L 54.296875 54.6875 
L 54.296875 0 
L 45.3125 0 
L 45.3125 8.40625 
Q 42.046875 3.421875 37.71875 1 
Q 33.40625 -1.421875 27.6875 -1.421875 
Q 18.265625 -1.421875 13.375 4.4375 
Q 8.5 10.296875 8.5 21.578125 
z
M 31.109375 56 
z
" id="DejaVuSans-117"/>
     <path d="M 41.109375 46.296875 
Q 39.59375 47.171875 37.8125 47.578125 
Q 36.03125 48 33.890625 48 
Q 26.265625 48 22.1875 43.046875 
Q 18.109375 38.09375 18.109375 28.8125 
L 18.109375 0 
L 9.078125 0 
L 9.078125 54.6875 
L 18.109375 54.6875 
L 18.109375 46.1875 
Q 20.953125 51.171875 25.484375 53.578125 
Q 30.03125 56 36.53125 56 
Q 37.453125 56 38.578125 55.875 
Q 39.703125 55.765625 41.0625 55.515625 
z
" id="DejaVuSans-114"/>
     <path d="M 34.28125 27.484375 
Q 23.390625 27.484375 19.1875 25 
Q 14.984375 22.515625 14.984375 16.5 
Q 14.984375 11.71875 18.140625 8.90625 
Q 21.296875 6.109375 26.703125 6.109375 
Q 34.1875 6.109375 38.703125 11.40625 
Q 43.21875 16.703125 43.21875 25.484375 
L 43.21875 27.484375 
z
M 52.203125 31.203125 
L 52.203125 0 
L 43.21875 0 
L 43.21875 8.296875 
Q 40.140625 3.328125 35.546875 0.953125 
Q 30.953125 -1.421875 24.3125 -1.421875 
Q 15.921875 -1.421875 10.953125 3.296875 
Q 6 8.015625 6 15.921875 
Q 6 25.140625 12.171875 29.828125 
Q 18.359375 34.515625 30.609375 34.515625 
L 43.21875 34.515625 
L 43.21875 35.40625 
Q 43.21875 41.609375 39.140625 45 
Q 35.0625 48.390625 27.6875 48.390625 
Q 23 48.390625 18.546875 47.265625 
Q 14.109375 46.140625 10.015625 43.890625 
L 10.015625 52.203125 
Q 14.9375 54.109375 19.578125 55.046875 
Q 24.21875 56 28.609375 56 
Q 40.484375 56 46.34375 49.84375 
Q 52.203125 43.703125 52.203125 31.203125 
z
" id="DejaVuSans-97"/>
     <path d="M 9.421875 75.984375 
L 18.40625 75.984375 
L 18.40625 0 
L 9.421875 0 
z
" id="DejaVuSans-108"/>
     <path d="M 10.59375 45.40625 
L 73.1875 45.40625 
L 73.1875 37.203125 
L 10.59375 37.203125 
z
M 10.59375 25.484375 
L 73.1875 25.484375 
L 73.1875 17.1875 
L 10.59375 17.1875 
z
" id="DejaVuSans-61"/>
     <path d="M 33.015625 40.375 
Q 26.375 40.375 22.484375 35.828125 
Q 18.609375 31.296875 18.609375 23.390625 
Q 18.609375 15.53125 22.484375 10.953125 
Q 26.375 6.390625 33.015625 6.390625 
Q 39.65625 6.390625 43.53125 10.953125 
Q 47.40625 15.53125 47.40625 23.390625 
Q 47.40625 31.296875 43.53125 35.828125 
Q 39.65625 40.375 33.015625 40.375 
z
M 52.59375 71.296875 
L 52.59375 62.3125 
Q 48.875 64.0625 45.09375 64.984375 
Q 41.3125 65.921875 37.59375 65.921875 
Q 27.828125 65.921875 22.671875 59.328125 
Q 17.53125 52.734375 16.796875 39.40625 
Q 19.671875 43.65625 24.015625 45.921875 
Q 28.375 48.1875 33.59375 48.1875 
Q 44.578125 48.1875 50.953125 41.515625 
Q 57.328125 34.859375 57.328125 23.390625 
Q 57.328125 12.15625 50.6875 5.359375 
Q 44.046875 -1.421875 33.015625 -1.421875 
Q 20.359375 -1.421875 13.671875 8.265625 
Q 6.984375 17.96875 6.984375 36.375 
Q 6.984375 53.65625 15.1875 63.9375 
Q 23.390625 74.21875 37.203125 74.21875 
Q 40.921875 74.21875 44.703125 73.484375 
Q 48.484375 72.75 52.59375 71.296875 
z
" id="DejaVuSans-54"/>
     <path d="M 34.1875 63.1875 
L 20.796875 26.90625 
L 47.609375 26.90625 
z
M 28.609375 72.90625 
L 39.796875 72.90625 
L 67.578125 0 
L 57.328125 0 
L 50.6875 18.703125 
L 17.828125 18.703125 
L 11.1875 0 
L 0.78125 0 
z
" id="DejaVuSans-65"/>
     <path d="M 18.3125 70.21875 
L 18.3125 54.6875 
L 36.8125 54.6875 
L 36.8125 47.703125 
L 18.3125 47.703125 
L 18.3125 18.015625 
Q 18.3125 11.328125 20.140625 9.421875 
Q 21.96875 7.515625 27.59375 7.515625 
L 36.8125 7.515625 
L 36.8125 0 
L 27.59375 0 
Q 17.1875 0 13.234375 3.875 
Q 9.28125 7.765625 9.28125 18.015625 
L 9.28125 47.703125 
L 2.6875 47.703125 
L 2.6875 54.6875 
L 9.28125 54.6875 
L 9.28125 70.21875 
z
" id="DejaVuSans-116"/>
     <path d="M 45.40625 46.390625 
L 45.40625 75.984375 
L 54.390625 75.984375 
L 54.390625 0 
L 45.40625 0 
L 45.40625 8.203125 
Q 42.578125 3.328125 38.25 0.953125 
Q 33.9375 -1.421875 27.875 -1.421875 
Q 17.96875 -1.421875 11.734375 6.484375 
Q 5.515625 14.40625 5.515625 27.296875 
Q 5.515625 40.1875 11.734375 48.09375 
Q 17.96875 56 27.875 56 
Q 33.9375 56 38.25 53.625 
Q 42.578125 51.265625 45.40625 46.390625 
z
M 14.796875 27.296875 
Q 14.796875 17.390625 18.875 11.75 
Q 22.953125 6.109375 30.078125 6.109375 
Q 37.203125 6.109375 41.296875 11.75 
Q 45.40625 17.390625 45.40625 27.296875 
Q 45.40625 37.203125 41.296875 42.84375 
Q 37.203125 48.484375 30.078125 48.484375 
Q 22.953125 48.484375 18.875 42.84375 
Q 14.796875 37.203125 14.796875 27.296875 
z
" id="DejaVuSans-100"/>
     <path d="M 48.78125 52.59375 
L 48.78125 44.1875 
Q 44.96875 46.296875 41.140625 47.34375 
Q 37.3125 48.390625 33.40625 48.390625 
Q 24.65625 48.390625 19.8125 42.84375 
Q 14.984375 37.3125 14.984375 27.296875 
Q 14.984375 17.28125 19.8125 11.734375 
Q 24.65625 6.203125 33.40625 6.203125 
Q 37.3125 6.203125 41.140625 7.25 
Q 44.96875 8.296875 48.78125 10.40625 
L 48.78125 2.09375 
Q 45.015625 0.34375 40.984375 -0.53125 
Q 36.96875 -1.421875 32.421875 -1.421875 
Q 20.0625 -1.421875 12.78125 6.34375 
Q 5.515625 14.109375 5.515625 27.296875 
Q 5.515625 40.671875 12.859375 48.328125 
Q 20.21875 56 33.015625 56 
Q 37.15625 56 41.109375 55.140625 
Q 45.0625 54.296875 48.78125 52.59375 
z
" id="DejaVuSans-99"/>
    </defs>
    <g transform="translate(144.619375 20.88)scale(0.12 -0.12)">
     <use xlink:href="#DejaVuSans-86"/>
     <use x="68.408203" xlink:href="#DejaVuSans-49"/>
     <use x="132.03125" xlink:href="#DejaVuSans-44"/>
     <use x="163.818359" xlink:href="#DejaVuSans-32"/>
     <use x="195.605469" xlink:href="#DejaVuSans-78"/>
     <use x="270.410156" xlink:href="#DejaVuSans-117"/>
     <use x="333.789062" xlink:href="#DejaVuSans-109"/>
     <use x="431.201172" xlink:href="#DejaVuSans-32"/>
     <use x="462.988281" xlink:href="#DejaVuSans-84"/>
     <use x="523.853516" xlink:href="#DejaVuSans-114"/>
     <use x="564.966797" xlink:href="#DejaVuSans-105"/>
     <use x="592.75" xlink:href="#DejaVuSans-97"/>
     <use x="654.029297" xlink:href="#DejaVuSans-108"/>
     <use x="681.8125" xlink:href="#DejaVuSans-115"/>
     <use x="733.912109" xlink:href="#DejaVuSans-61"/>
     <use x="817.701172" xlink:href="#DejaVuSans-49"/>
     <use x="881.324219" xlink:href="#DejaVuSans-54"/>
     <use x="944.947266" xlink:href="#DejaVuSans-48"/>
     <use x="1008.570312" xlink:href="#DejaVuSans-32"/>
     <use x="1040.357422" xlink:href="#DejaVuSans-65"/>
     <use x="1108.765625" xlink:href="#DejaVuSans-108"/>
     <use x="1136.548828" xlink:href="#DejaVuSans-108"/>
     <use x="1164.332031" xlink:href="#DejaVuSans-32"/>
     <use x="1196.119141" xlink:href="#DejaVuSans-115"/>
     <use x="1248.21875" xlink:href="#DejaVuSans-116"/>
     <use x="1287.427734" xlink:href="#DejaVuSans-105"/>
     <use x="1315.210938" xlink:href="#DejaVuSans-109"/>
     <use x="1412.623047" xlink:href="#DejaVuSans-117"/>
     <use x="1476.001953" xlink:href="#DejaVuSans-108"/>
     <use x="1503.785156" xlink:href="#DejaVuSans-97"/>
     <use x="1565.064453" xlink:href="#DejaVuSans-116"/>
     <use x="1604.273438" xlink:href="#DejaVuSans-101"/>
     <use x="1665.796875" xlink:href="#DejaVuSans-100"/>
     <use x="1729.273438" xlink:href="#DejaVuSans-32"/>
     <use x="1761.060547" xlink:href="#DejaVuSans-116"/>
     <use x="1800.269531" xlink:href="#DejaVuSans-114"/>
     <use x="1841.382812" xlink:href="#DejaVuSans-105"/>
     <use x="1869.166016" xlink:href="#DejaVuSans-97"/>
     <use x="1930.445312" xlink:href="#DejaVuSans-108"/>
     <use x="1958.228516" xlink:href="#DejaVuSans-115"/>
     <use x="2010.328125" xlink:href="#DejaVuSans-44"/>
     <use x="2042.115234" xlink:href="#DejaVuSans-32"/>
     <use x="2073.902344" xlink:href="#DejaVuSans-78"/>
     <use x="2148.707031" xlink:href="#DejaVuSans-117"/>
     <use x="2212.085938" xlink:href="#DejaVuSans-109"/>
     <use x="2309.498047" xlink:href="#DejaVuSans-32"/>
     <use x="2341.285156" xlink:href="#DejaVuSans-99"/>
     <use x="2396.265625" xlink:href="#DejaVuSans-101"/>
     <use x="2457.789062" xlink:href="#DejaVuSans-108"/>
     <use x="2485.572266" xlink:href="#DejaVuSans-108"/>
     <use x="2513.355469" xlink:href="#DejaVuSans-115"/>
     <use x="2565.455078" xlink:href="#DejaVuSans-32"/>
     <use x="2597.242188" xlink:href="#DejaVuSans-61"/>
     <use x="2681.03125" xlink:href="#DejaVuSans-32"/>
     <use x="2712.818359" xlink:href="#DejaVuSans-49"/>
     <use x="2776.441406" xlink:href="#DejaVuSans-54"/>
     <use x="2840.064453" xlink:href="#DejaVuSans-48"/>
    </g>
   </g>
   <g id="legend_1">
    <g id="patch_7">
     <path d="M 454.68 71.73375 
L 556.8 71.73375 
Q 559.2 71.73375 559.2 69.33375 
L 559.2 35.28 
Q 559.2 32.88 556.8 32.88 
L 454.68 32.88 
Q 452.28 32.88 452.28 35.28 
L 452.28 69.33375 
Q 452.28 71.73375 454.68 71.73375 
z
" style="fill:#ffffff;opacity:0.8;stroke:#cccccc;stroke-linejoin:miter;"/>
    </g>
    <g id="line2d_12">
     <path d="M 457.08 42.6 
L 481.08 42.6 
" style="fill:none;stroke:#0000ff;stroke-linecap:square;stroke-width:1.5;"/>
    </g>
    <g id="line2d_13"/>
    <g id="text_14">
     <!-- Binomial $p$ -->
     <defs>
      <path d="M 30.609375 48.390625 
Q 23.390625 48.390625 19.1875 42.75 
Q 14.984375 37.109375 14.984375 27.296875 
Q 14.984375 17.484375 19.15625 11.84375 
Q 23.34375 6.203125 30.609375 6.203125 
Q 37.796875 6.203125 41.984375 11.859375 
Q 46.1875 17.53125 46.1875 27.296875 
Q 46.1875 37.015625 41.984375 42.703125 
Q 37.796875 48.390625 30.609375 48.390625 
z
M 30.609375 56 
Q 42.328125 56 49.015625 48.375 
Q 55.71875 40.765625 55.71875 27.296875 
Q 55.71875 13.875 49.015625 6.21875 
Q 42.328125 -1.421875 30.609375 -1.421875 
Q 18.84375 -1.421875 12.171875 6.21875 
Q 5.515625 13.875 5.515625 27.296875 
Q 5.515625 40.765625 12.171875 48.375 
Q 18.84375 56 30.609375 56 
z
" id="DejaVuSans-111"/>
     </defs>
     <g transform="translate(490.68 46.8)scale(0.12 -0.12)">
      <use transform="translate(0 0.015625)" xlink:href="#DejaVuSans-66"/>
      <use transform="translate(68.603516 0.015625)" xlink:href="#DejaVuSans-105"/>
      <use transform="translate(96.386719 0.015625)" xlink:href="#DejaVuSans-110"/>
      <use transform="translate(159.765625 0.015625)" xlink:href="#DejaVuSans-111"/>
      <use transform="translate(220.947266 0.015625)" xlink:href="#DejaVuSans-109"/>
      <use transform="translate(318.359375 0.015625)" xlink:href="#DejaVuSans-105"/>
      <use transform="translate(346.142578 0.015625)" xlink:href="#DejaVuSans-97"/>
      <use transform="translate(407.421875 0.015625)" xlink:href="#DejaVuSans-108"/>
      <use transform="translate(435.205078 0.015625)" xlink:href="#DejaVuSans-32"/>
      <use transform="translate(466.992188 0.015625)" xlink:href="#DejaVuSans-Oblique-112"/>
     </g>
    </g>
    <g id="patch_8">
     <path d="M 457.08 64.438125 
L 481.08 64.438125 
L 481.08 56.038125 
L 457.08 56.038125 
z
" style="fill:#0000ff;opacity:0.3;stroke:#0000ff;stroke-linejoin:miter;"/>
    </g>
    <g id="text_15">
     <!-- Std. Err. -->
     <defs>
      <path d="M 53.515625 70.515625 
L 53.515625 60.890625 
Q 47.90625 63.578125 42.921875 64.890625 
Q 37.9375 66.21875 33.296875 66.21875 
Q 25.25 66.21875 20.875 63.09375 
Q 16.5 59.96875 16.5 54.203125 
Q 16.5 49.359375 19.40625 46.890625 
Q 22.3125 44.4375 30.421875 42.921875 
L 36.375 41.703125 
Q 47.40625 39.59375 52.65625 34.296875 
Q 57.90625 29 57.90625 20.125 
Q 57.90625 9.515625 50.796875 4.046875 
Q 43.703125 -1.421875 29.984375 -1.421875 
Q 24.8125 -1.421875 18.96875 -0.25 
Q 13.140625 0.921875 6.890625 3.21875 
L 6.890625 13.375 
Q 12.890625 10.015625 18.65625 8.296875 
Q 24.421875 6.59375 29.984375 6.59375 
Q 38.421875 6.59375 43.015625 9.90625 
Q 47.609375 13.234375 47.609375 19.390625 
Q 47.609375 24.75 44.3125 27.78125 
Q 41.015625 30.8125 33.5 32.328125 
L 27.484375 33.5 
Q 16.453125 35.6875 11.515625 40.375 
Q 6.59375 45.0625 6.59375 53.421875 
Q 6.59375 63.09375 13.40625 68.65625 
Q 20.21875 74.21875 32.171875 74.21875 
Q 37.3125 74.21875 42.625 73.28125 
Q 47.953125 72.359375 53.515625 70.515625 
z
" id="DejaVuSans-83"/>
      <path d="M 9.8125 72.90625 
L 55.90625 72.90625 
L 55.90625 64.59375 
L 19.671875 64.59375 
L 19.671875 43.015625 
L 54.390625 43.015625 
L 54.390625 34.71875 
L 19.671875 34.71875 
L 19.671875 8.296875 
L 56.78125 8.296875 
L 56.78125 0 
L 9.8125 0 
z
" id="DejaVuSans-69"/>
     </defs>
     <g transform="translate(490.68 64.438125)scale(0.12 -0.12)">
      <use xlink:href="#DejaVuSans-83"/>
      <use x="63.476562" xlink:href="#DejaVuSans-116"/>
      <use x="102.685547" xlink:href="#DejaVuSans-100"/>
      <use x="166.162109" xlink:href="#DejaVuSans-46"/>
      <use x="197.949219" xlink:href="#DejaVuSans-32"/>
      <use x="229.736328" xlink:href="#DejaVuSans-69"/>
      <use x="292.919922" xlink:href="#DejaVuSans-114"/>
      <use x="334.017578" xlink:href="#DejaVuSans-114"/>
      <use x="374.990234" xlink:href="#DejaVuSans-46"/>
     </g>
    </g>
   </g>
  </g>
 </g>
 <defs>
  <clipPath id="pa97862fc85">
   <rect height="147.88" width="492.73" x="72.47" y="26.88"/>
  </clipPath>
 </defs>
</svg>
