<?xml version="1.0" encoding="utf-8" standalone="no"?>
<!DOCTYPE svg PUBLIC "-//W3C//DTD SVG 1.1//EN"
  "http://www.w3.org/Graphics/SVG/1.1/DTD/svg11.dtd">
<!-- Created with matplotlib (https://matplotlib.org/) -->
<svg height="288pt" version="1.1" viewBox="0 0 720 288" width="720pt" xmlns="http://www.w3.org/2000/svg" xmlns:xlink="http://www.w3.org/1999/xlink">
 <defs>
  <style type="text/css">
*{stroke-linecap:butt;stroke-linejoin:round;white-space:pre;}
  </style>
 </defs>
 <g id="figure_1">
  <g id="patch_1">
   <path d="M 0 288 
L 720 288 
L 720 0 
L 0 0 
z
" style="fill:#ffffff;"/>
  </g>
  <g id="axes_1">
   <g id="patch_2">
    <path d="M 90 256.32 
L 648 256.32 
L 648 34.56 
L 90 34.56 
z
" style="fill:#ffffff;"/>
   </g>
   <g id="PolyCollection_1">
    <defs>
     <path d="M 142.269796 -31.68 
L 142.269796 -264.528 
L 597.78 -264.528 
L 597.78 -31.68 
L 597.78 -31.68 
L 142.269796 -31.68 
z
" id="m2071bba7da" style="stroke:#808080;stroke-opacity:0.3;"/>
    </defs>
    <g clip-path="url(#p6a77739eb0)">
     <use style="fill:#808080;fill-opacity:0.3;stroke:#808080;stroke-opacity:0.3;" x="0" xlink:href="#m2071bba7da" y="288"/>
    </g>
   </g>
   <g id="matplotlib.axis_1">
    <g id="xtick_1">
     <g id="line2d_1">
      <defs>
       <path d="M 0 0 
L 0 3.5 
" id="mc018c0d56f" style="stroke:#000000;stroke-width:0.8;"/>
      </defs>
      <g>
       <use style="stroke:#000000;stroke-width:0.8;" x="90" xlink:href="#mc018c0d56f" y="256.32"/>
      </g>
     </g>
     <g id="text_1">
      <!-- 0.0 -->
      <defs>
       <path d="M 31.78125 66.40625 
Q 24.171875 66.40625 20.328125 58.90625 
Q 16.5 51.421875 16.5 36.375 
Q 16.5 21.390625 20.328125 13.890625 
Q 24.171875 6.390625 31.78125 6.390625 
Q 39.453125 6.390625 43.28125 13.890625 
Q 47.125 21.390625 47.125 36.375 
Q 47.125 51.421875 43.28125 58.90625 
Q 39.453125 66.40625 31.78125 66.40625 
z
M 31.78125 74.21875 
Q 44.046875 74.21875 50.515625 64.515625 
Q 56.984375 54.828125 56.984375 36.375 
Q 56.984375 17.96875 50.515625 8.265625 
Q 44.046875 -1.421875 31.78125 -1.421875 
Q 19.53125 -1.421875 13.0625 8.265625 
Q 6.59375 17.96875 6.59375 36.375 
Q 6.59375 54.828125 13.0625 64.515625 
Q 19.53125 74.21875 31.78125 74.21875 
z
" id="DejaVuSans-48"/>
       <path d="M 10.6875 12.40625 
L 21 12.40625 
L 21 0 
L 10.6875 0 
z
" id="DejaVuSans-46"/>
      </defs>
      <g transform="translate(82.048438 270.918437)scale(0.1 -0.1)">
       <use xlink:href="#DejaVuSans-48"/>
       <use x="63.623047" xlink:href="#DejaVuSans-46"/>
       <use x="95.410156" xlink:href="#DejaVuSans-48"/>
      </g>
     </g>
    </g>
    <g id="xtick_2">
     <g id="line2d_2">
      <g>
       <use style="stroke:#000000;stroke-width:0.8;" x="203.877551" xlink:href="#mc018c0d56f" y="256.32"/>
      </g>
     </g>
     <g id="text_2">
      <!-- 0.5 -->
      <defs>
       <path d="M 10.796875 72.90625 
L 49.515625 72.90625 
L 49.515625 64.59375 
L 19.828125 64.59375 
L 19.828125 46.734375 
Q 21.96875 47.46875 24.109375 47.828125 
Q 26.265625 48.1875 28.421875 48.1875 
Q 40.625 48.1875 47.75 41.5 
Q 54.890625 34.8125 54.890625 23.390625 
Q 54.890625 11.625 47.5625 5.09375 
Q 40.234375 -1.421875 26.90625 -1.421875 
Q 22.3125 -1.421875 17.546875 -0.640625 
Q 12.796875 0.140625 7.71875 1.703125 
L 7.71875 11.625 
Q 12.109375 9.234375 16.796875 8.0625 
Q 21.484375 6.890625 26.703125 6.890625 
Q 35.15625 6.890625 40.078125 11.328125 
Q 45.015625 15.765625 45.015625 23.390625 
Q 45.015625 31 40.078125 35.4375 
Q 35.15625 39.890625 26.703125 39.890625 
Q 22.75 39.890625 18.8125 39.015625 
Q 14.890625 38.140625 10.796875 36.28125 
z
" id="DejaVuSans-53"/>
      </defs>
      <g transform="translate(195.925989 270.918437)scale(0.1 -0.1)">
       <use xlink:href="#DejaVuSans-48"/>
       <use x="63.623047" xlink:href="#DejaVuSans-46"/>
       <use x="95.410156" xlink:href="#DejaVuSans-53"/>
      </g>
     </g>
    </g>
    <g id="xtick_3">
     <g id="line2d_3">
      <g>
       <use style="stroke:#000000;stroke-width:0.8;" x="317.755102" xlink:href="#mc018c0d56f" y="256.32"/>
      </g>
     </g>
     <g id="text_3">
      <!-- 1.0 -->
      <defs>
       <path d="M 12.40625 8.296875 
L 28.515625 8.296875 
L 28.515625 63.921875 
L 10.984375 60.40625 
L 10.984375 69.390625 
L 28.421875 72.90625 
L 38.28125 72.90625 
L 38.28125 8.296875 
L 54.390625 8.296875 
L 54.390625 0 
L 12.40625 0 
z
" id="DejaVuSans-49"/>
      </defs>
      <g transform="translate(309.80354 270.918437)scale(0.1 -0.1)">
       <use xlink:href="#DejaVuSans-49"/>
       <use x="63.623047" xlink:href="#DejaVuSans-46"/>
       <use x="95.410156" xlink:href="#DejaVuSans-48"/>
      </g>
     </g>
    </g>
    <g id="xtick_4">
     <g id="line2d_4">
      <g>
       <use style="stroke:#000000;stroke-width:0.8;" x="431.632653" xlink:href="#mc018c0d56f" y="256.32"/>
      </g>
     </g>
     <g id="text_4">
      <!-- 1.5 -->
      <g transform="translate(423.681091 270.918437)scale(0.1 -0.1)">
       <use xlink:href="#DejaVuSans-49"/>
       <use x="63.623047" xlink:href="#DejaVuSans-46"/>
       <use x="95.410156" xlink:href="#DejaVuSans-53"/>
      </g>
     </g>
    </g>
    <g id="xtick_5">
     <g id="line2d_5">
      <g>
       <use style="stroke:#000000;stroke-width:0.8;" x="545.510204" xlink:href="#mc018c0d56f" y="256.32"/>
      </g>
     </g>
     <g id="text_5">
      <!-- 2.0 -->
      <defs>
       <path d="M 19.1875 8.296875 
L 53.609375 8.296875 
L 53.609375 0 
L 7.328125 0 
L 7.328125 8.296875 
Q 12.9375 14.109375 22.625 23.890625 
Q 32.328125 33.6875 34.8125 36.53125 
Q 39.546875 41.84375 41.421875 45.53125 
Q 43.3125 49.21875 43.3125 52.78125 
Q 43.3125 58.59375 39.234375 62.25 
Q 35.15625 65.921875 28.609375 65.921875 
Q 23.96875 65.921875 18.8125 64.3125 
Q 13.671875 62.703125 7.8125 59.421875 
L 7.8125 69.390625 
Q 13.765625 71.78125 18.9375 73 
Q 24.125 74.21875 28.421875 74.21875 
Q 39.75 74.21875 46.484375 68.546875 
Q 53.21875 62.890625 53.21875 53.421875 
Q 53.21875 48.921875 51.53125 44.890625 
Q 49.859375 40.875 45.40625 35.40625 
Q 44.1875 33.984375 37.640625 27.21875 
Q 31.109375 20.453125 19.1875 8.296875 
z
" id="DejaVuSans-50"/>
      </defs>
      <g transform="translate(537.558642 270.918437)scale(0.1 -0.1)">
       <use xlink:href="#DejaVuSans-50"/>
       <use x="63.623047" xlink:href="#DejaVuSans-46"/>
       <use x="95.410156" xlink:href="#DejaVuSans-48"/>
      </g>
     </g>
    </g>
    <g id="text_6">
     <!-- Time (s) -->
     <defs>
      <path d="M -0.296875 72.90625 
L 61.375 72.90625 
L 61.375 64.59375 
L 35.5 64.59375 
L 35.5 0 
L 25.59375 0 
L 25.59375 64.59375 
L -0.296875 64.59375 
z
" id="DejaVuSans-84"/>
      <path d="M 9.421875 54.6875 
L 18.40625 54.6875 
L 18.40625 0 
L 9.421875 0 
z
M 9.421875 75.984375 
L 18.40625 75.984375 
L 18.40625 64.59375 
L 9.421875 64.59375 
z
" id="DejaVuSans-105"/>
      <path d="M 52 44.1875 
Q 55.375 50.25 60.0625 53.125 
Q 64.75 56 71.09375 56 
Q 79.640625 56 84.28125 50.015625 
Q 88.921875 44.046875 88.921875 33.015625 
L 88.921875 0 
L 79.890625 0 
L 79.890625 32.71875 
Q 79.890625 40.578125 77.09375 44.375 
Q 74.3125 48.1875 68.609375 48.1875 
Q 61.625 48.1875 57.5625 43.546875 
Q 53.515625 38.921875 53.515625 30.90625 
L 53.515625 0 
L 44.484375 0 
L 44.484375 32.71875 
Q 44.484375 40.625 41.703125 44.40625 
Q 38.921875 48.1875 33.109375 48.1875 
Q 26.21875 48.1875 22.15625 43.53125 
Q 18.109375 38.875 18.109375 30.90625 
L 18.109375 0 
L 9.078125 0 
L 9.078125 54.6875 
L 18.109375 54.6875 
L 18.109375 46.1875 
Q 21.1875 51.21875 25.484375 53.609375 
Q 29.78125 56 35.6875 56 
Q 41.65625 56 45.828125 52.96875 
Q 50 49.953125 52 44.1875 
z
" id="DejaVuSans-109"/>
      <path d="M 56.203125 29.59375 
L 56.203125 25.203125 
L 14.890625 25.203125 
Q 15.484375 15.921875 20.484375 11.0625 
Q 25.484375 6.203125 34.421875 6.203125 
Q 39.59375 6.203125 44.453125 7.46875 
Q 49.3125 8.734375 54.109375 11.28125 
L 54.109375 2.78125 
Q 49.265625 0.734375 44.1875 -0.34375 
Q 39.109375 -1.421875 33.890625 -1.421875 
Q 20.796875 -1.421875 13.15625 6.1875 
Q 5.515625 13.8125 5.515625 26.8125 
Q 5.515625 40.234375 12.765625 48.109375 
Q 20.015625 56 32.328125 56 
Q 43.359375 56 49.78125 48.890625 
Q 56.203125 41.796875 56.203125 29.59375 
z
M 47.21875 32.234375 
Q 47.125 39.59375 43.09375 43.984375 
Q 39.0625 48.390625 32.421875 48.390625 
Q 24.90625 48.390625 20.390625 44.140625 
Q 15.875 39.890625 15.1875 32.171875 
z
" id="DejaVuSans-101"/>
      <path id="DejaVuSans-32"/>
      <path d="M 31 75.875 
Q 24.46875 64.65625 21.28125 53.65625 
Q 18.109375 42.671875 18.109375 31.390625 
Q 18.109375 20.125 21.3125 9.0625 
Q 24.515625 -2 31 -13.1875 
L 23.1875 -13.1875 
Q 15.875 -1.703125 12.234375 9.375 
Q 8.59375 20.453125 8.59375 31.390625 
Q 8.59375 42.28125 12.203125 53.3125 
Q 15.828125 64.359375 23.1875 75.875 
z
" id="DejaVuSans-40"/>
      <path d="M 44.28125 53.078125 
L 44.28125 44.578125 
Q 40.484375 46.53125 36.375 47.5 
Q 32.28125 48.484375 27.875 48.484375 
Q 21.1875 48.484375 17.84375 46.4375 
Q 14.5 44.390625 14.5 40.28125 
Q 14.5 37.15625 16.890625 35.375 
Q 19.28125 33.59375 26.515625 31.984375 
L 29.59375 31.296875 
Q 39.15625 29.25 43.1875 25.515625 
Q 47.21875 21.78125 47.21875 15.09375 
Q 47.21875 7.46875 41.1875 3.015625 
Q 35.15625 -1.421875 24.609375 -1.421875 
Q 20.21875 -1.421875 15.453125 -0.5625 
Q 10.6875 0.296875 5.421875 2 
L 5.421875 11.28125 
Q 10.40625 8.6875 15.234375 7.390625 
Q 20.0625 6.109375 24.8125 6.109375 
Q 31.15625 6.109375 34.5625 8.28125 
Q 37.984375 10.453125 37.984375 14.40625 
Q 37.984375 18.0625 35.515625 20.015625 
Q 33.0625 21.96875 24.703125 23.78125 
L 21.578125 24.515625 
Q 13.234375 26.265625 9.515625 29.90625 
Q 5.8125 33.546875 5.8125 39.890625 
Q 5.8125 47.609375 11.28125 51.796875 
Q 16.75 56 26.8125 56 
Q 31.78125 56 36.171875 55.265625 
Q 40.578125 54.546875 44.28125 53.078125 
z
" id="DejaVuSans-115"/>
      <path d="M 8.015625 75.875 
L 15.828125 75.875 
Q 23.140625 64.359375 26.78125 53.3125 
Q 30.421875 42.28125 30.421875 31.390625 
Q 30.421875 20.453125 26.78125 9.375 
Q 23.140625 -1.703125 15.828125 -13.1875 
L 8.015625 -13.1875 
Q 14.5 -2 17.703125 9.0625 
Q 20.90625 20.125 20.90625 31.390625 
Q 20.90625 42.671875 17.703125 53.65625 
Q 14.5 64.65625 8.015625 75.875 
z
" id="DejaVuSans-41"/>
     </defs>
     <g transform="translate(344.420625 286.11625)scale(0.12 -0.12)">
      <use xlink:href="#DejaVuSans-84"/>
      <use x="61.037109" xlink:href="#DejaVuSans-105"/>
      <use x="88.820312" xlink:href="#DejaVuSans-109"/>
      <use x="186.232422" xlink:href="#DejaVuSans-101"/>
      <use x="247.755859" xlink:href="#DejaVuSans-32"/>
      <use x="279.542969" xlink:href="#DejaVuSans-40"/>
      <use x="318.556641" xlink:href="#DejaVuSans-115"/>
      <use x="370.65625" xlink:href="#DejaVuSans-41"/>
     </g>
    </g>
   </g>
   <g id="matplotlib.axis_2">
    <g id="ytick_1">
     <g id="line2d_6">
      <defs>
       <path d="M 0 0 
L -3.5 0 
" id="m32f92f95dd" style="stroke:#000000;stroke-width:0.8;"/>
      </defs>
      <g>
       <use style="stroke:#000000;stroke-width:0.8;" x="90" xlink:href="#m32f92f95dd" y="229.936892"/>
      </g>
     </g>
     <g id="text_7">
      <!-- 0.001 -->
      <g transform="translate(54.371875 233.73611)scale(0.1 -0.1)">
       <use xlink:href="#DejaVuSans-48"/>
       <use x="63.623047" xlink:href="#DejaVuSans-46"/>
       <use x="95.410156" xlink:href="#DejaVuSans-48"/>
       <use x="159.033203" xlink:href="#DejaVuSans-48"/>
       <use x="222.65625" xlink:href="#DejaVuSans-49"/>
      </g>
     </g>
    </g>
    <g id="ytick_2">
     <g id="line2d_7">
      <g>
       <use style="stroke:#000000;stroke-width:0.8;" x="90" xlink:href="#m32f92f95dd" y="186.248868"/>
      </g>
     </g>
     <g id="text_8">
      <!-- 0.002 -->
      <g transform="translate(54.371875 190.048087)scale(0.1 -0.1)">
       <use xlink:href="#DejaVuSans-48"/>
       <use x="63.623047" xlink:href="#DejaVuSans-46"/>
       <use x="95.410156" xlink:href="#DejaVuSans-48"/>
       <use x="159.033203" xlink:href="#DejaVuSans-48"/>
       <use x="222.65625" xlink:href="#DejaVuSans-50"/>
      </g>
     </g>
    </g>
    <g id="ytick_3">
     <g id="line2d_8">
      <g>
       <use style="stroke:#000000;stroke-width:0.8;" x="90" xlink:href="#m32f92f95dd" y="142.560845"/>
      </g>
     </g>
     <g id="text_9">
      <!-- 0.003 -->
      <defs>
       <path d="M 40.578125 39.3125 
Q 47.65625 37.796875 51.625 33 
Q 55.609375 28.21875 55.609375 21.1875 
Q 55.609375 10.40625 48.1875 4.484375 
Q 40.765625 -1.421875 27.09375 -1.421875 
Q 22.515625 -1.421875 17.65625 -0.515625 
Q 12.796875 0.390625 7.625 2.203125 
L 7.625 11.71875 
Q 11.71875 9.328125 16.59375 8.109375 
Q 21.484375 6.890625 26.8125 6.890625 
Q 36.078125 6.890625 40.9375 10.546875 
Q 45.796875 14.203125 45.796875 21.1875 
Q 45.796875 27.640625 41.28125 31.265625 
Q 36.765625 34.90625 28.71875 34.90625 
L 20.21875 34.90625 
L 20.21875 43.015625 
L 29.109375 43.015625 
Q 36.375 43.015625 40.234375 45.921875 
Q 44.09375 48.828125 44.09375 54.296875 
Q 44.09375 59.90625 40.109375 62.90625 
Q 36.140625 65.921875 28.71875 65.921875 
Q 24.65625 65.921875 20.015625 65.03125 
Q 15.375 64.15625 9.8125 62.3125 
L 9.8125 71.09375 
Q 15.4375 72.65625 20.34375 73.4375 
Q 25.25 74.21875 29.59375 74.21875 
Q 40.828125 74.21875 47.359375 69.109375 
Q 53.90625 64.015625 53.90625 55.328125 
Q 53.90625 49.265625 50.4375 45.09375 
Q 46.96875 40.921875 40.578125 39.3125 
z
" id="DejaVuSans-51"/>
      </defs>
      <g transform="translate(54.371875 146.360064)scale(0.1 -0.1)">
       <use xlink:href="#DejaVuSans-48"/>
       <use x="63.623047" xlink:href="#DejaVuSans-46"/>
       <use x="95.410156" xlink:href="#DejaVuSans-48"/>
       <use x="159.033203" xlink:href="#DejaVuSans-48"/>
       <use x="222.65625" xlink:href="#DejaVuSans-51"/>
      </g>
     </g>
    </g>
    <g id="ytick_4">
     <g id="line2d_9">
      <g>
       <use style="stroke:#000000;stroke-width:0.8;" x="90" xlink:href="#m32f92f95dd" y="98.872822"/>
      </g>
     </g>
     <g id="text_10">
      <!-- 0.004 -->
      <defs>
       <path d="M 37.796875 64.3125 
L 12.890625 25.390625 
L 37.796875 25.390625 
z
M 35.203125 72.90625 
L 47.609375 72.90625 
L 47.609375 25.390625 
L 58.015625 25.390625 
L 58.015625 17.1875 
L 47.609375 17.1875 
L 47.609375 0 
L 37.796875 0 
L 37.796875 17.1875 
L 4.890625 17.1875 
L 4.890625 26.703125 
z
" id="DejaVuSans-52"/>
      </defs>
      <g transform="translate(54.371875 102.672041)scale(0.1 -0.1)">
       <use xlink:href="#DejaVuSans-48"/>
       <use x="63.623047" xlink:href="#DejaVuSans-46"/>
       <use x="95.410156" xlink:href="#DejaVuSans-48"/>
       <use x="159.033203" xlink:href="#DejaVuSans-48"/>
       <use x="222.65625" xlink:href="#DejaVuSans-52"/>
      </g>
     </g>
    </g>
    <g id="ytick_5">
     <g id="line2d_10">
      <g>
       <use style="stroke:#000000;stroke-width:0.8;" x="90" xlink:href="#m32f92f95dd" y="55.184799"/>
      </g>
     </g>
     <g id="text_11">
      <!-- 0.005 -->
      <g transform="translate(54.371875 58.984017)scale(0.1 -0.1)">
       <use xlink:href="#DejaVuSans-48"/>
       <use x="63.623047" xlink:href="#DejaVuSans-46"/>
       <use x="95.410156" xlink:href="#DejaVuSans-48"/>
       <use x="159.033203" xlink:href="#DejaVuSans-48"/>
       <use x="222.65625" xlink:href="#DejaVuSans-53"/>
      </g>
     </g>
    </g>
   </g>
   <g id="line2d_11">
    <path clip-path="url(#p6a77739eb0)" d="M 90 188.701224 
L 92.277551 187.084345 
L 94.555102 199.501212 
L 96.832653 201.979298 
L 99.110204 199.899033 
L 103.665306 195.173281 
L 105.942857 202.594329 
L 108.220408 203.25173 
L 110.497959 204.717906 
L 112.77551 223.101382 
L 115.053061 214.089916 
L 117.330612 218.143193 
L 119.608163 212.529228 
L 121.885714 218.042302 
L 124.163265 212.956197 
L 126.440816 222.499509 
L 128.718367 197.574643 
L 130.995918 208.208264 
L 133.273469 202.377478 
L 135.55102 207.240281 
L 137.828571 204.907806 
L 140.106122 207.025527 
L 142.383673 207.561247 
L 144.661224 215.016088 
L 146.938776 216.286466 
L 149.216327 206.461427 
L 151.493878 212.90602 
L 153.771429 195.978294 
L 156.04898 200.59473 
L 158.326531 195.084929 
L 160.604082 191.708649 
L 162.881633 183.566108 
L 165.159184 186.120648 
L 167.436735 186.589162 
L 171.991837 191.757396 
L 174.269388 186.735036 
L 176.546939 186.626378 
L 178.82449 174.544345 
L 181.102041 185.416517 
L 183.379592 179.476158 
L 185.657143 182.742246 
L 187.934694 187.495561 
L 190.212245 179.312353 
L 192.489796 184.902418 
L 197.044898 195.083188 
L 199.322449 195.877903 
L 201.6 190.649706 
L 203.877551 208.37612 
L 206.155102 205.33154 
L 208.432653 210.193681 
L 210.710204 200.491343 
L 212.987755 194.944088 
L 215.265306 200.724908 
L 219.820408 196.225176 
L 222.097959 189.575346 
L 224.37551 182.262615 
L 226.653061 195.025038 
L 228.930612 175.027112 
L 231.208163 177.743176 
L 233.485714 180.015075 
L 235.763265 179.63056 
L 238.040816 182.881006 
L 240.318367 172.047592 
L 242.595918 177.285477 
L 244.873469 185.907721 
L 247.15102 181.107595 
L 249.428571 182.064457 
L 251.706122 187.968372 
L 253.983673 187.368949 
L 256.261224 185.350987 
L 258.538776 188.964227 
L 260.816327 181.089364 
L 263.093878 182.903741 
L 265.371429 186.003929 
L 267.64898 180.841483 
L 269.926531 186.454223 
L 272.204082 184.005141 
L 274.481633 185.263409 
L 276.759184 171.943237 
L 279.036735 173.864876 
L 281.314286 182.802124 
L 283.591837 178.958893 
L 285.869388 187.15347 
L 288.146939 186.892447 
L 290.42449 188.749277 
L 292.702041 189.356918 
L 294.979592 191.322022 
L 297.257143 196.56972 
L 299.534694 197.604714 
L 301.812245 205.194485 
L 304.089796 201.505094 
L 306.367347 212.198669 
L 308.644898 193.745792 
L 313.2 199.374126 
L 315.477551 184.379892 
L 317.755102 197.200102 
L 320.032653 182.523696 
L 322.310204 207.081079 
L 324.587755 202.53235 
L 326.865306 200.585918 
L 329.142857 194.991267 
L 331.420408 204.507069 
L 333.697959 204.712926 
L 335.97551 215.410514 
L 338.253061 213.234224 
L 340.530612 208.42931 
L 342.808163 206.723515 
L 345.085714 214.596716 
L 347.363265 193.484616 
L 349.640816 191.940948 
L 351.918367 186.360148 
L 354.195918 201.62152 
L 356.473469 187.867882 
L 358.75102 192.697027 
L 361.028571 195.506164 
L 363.306122 194.598107 
L 365.583673 191.185498 
L 367.861224 193.007859 
L 370.138776 202.577049 
L 372.416327 208.627494 
L 374.693878 201.427704 
L 376.971429 202.761694 
L 379.24898 208.857211 
L 381.526531 198.325398 
L 383.804082 195.544453 
L 386.081633 190.827712 
L 388.359184 195.781088 
L 390.636735 194.049231 
L 392.914286 198.050712 
L 395.191837 194.054452 
L 397.469388 196.174868 
L 399.746939 199.205989 
L 402.02449 199.584422 
L 404.302041 188.923947 
L 406.579592 200.855295 
L 408.857143 206.755406 
L 411.134694 196.718435 
L 413.412245 201.594791 
L 415.689796 190.890197 
L 417.967347 195.739471 
L 420.244898 199.07167 
L 422.522449 182.261055 
L 424.8 185.885137 
L 427.077551 169.982971 
L 429.355102 190.420417 
L 431.632653 184.834193 
L 433.910204 192.655284 
L 436.187755 193.011677 
L 438.465306 190.834684 
L 440.742857 180.070405 
L 443.020408 182.256924 
L 445.297959 183.777135 
L 447.57551 186.814629 
L 449.853061 186.434691 
L 452.130612 184.530535 
L 454.408163 191.133758 
L 456.685714 179.278789 
L 458.963265 180.497206 
L 461.240816 176.576594 
L 463.518367 181.576376 
L 465.795918 180.824518 
L 468.073469 198.305584 
L 470.35102 184.630854 
L 472.628571 190.899585 
L 474.906122 190.979656 
L 477.183673 206.212136 
L 479.461224 197.187611 
L 481.738776 198.71709 
L 484.016327 202.442135 
L 486.293878 197.62327 
L 488.571429 203.418002 
L 490.84898 202.452381 
L 493.126531 210.548812 
L 495.404082 205.736184 
L 497.681633 206.447823 
L 499.959184 200.693691 
L 502.236735 198.887878 
L 504.514286 181.943182 
L 506.791837 178.429849 
L 509.069388 182.260778 
L 511.346939 191.12366 
L 513.62449 181.379426 
L 515.902041 184.54033 
L 518.179592 182.409745 
L 520.457143 182.415842 
L 522.734694 182.942938 
L 525.012245 189.224438 
L 527.289796 197.059065 
L 529.567347 196.556368 
L 531.844898 195.672322 
L 534.122449 185.652697 
L 536.4 194.853676 
L 538.677551 176.639876 
L 540.955102 186.32781 
L 543.232653 184.712758 
L 545.510204 191.753926 
L 547.787755 188.612677 
L 550.065306 186.393641 
L 552.342857 191.304063 
L 554.620408 208.175213 
L 556.897959 199.267412 
L 559.17551 200.966721 
L 561.453061 204.147436 
L 563.730612 204.925844 
L 566.008163 211.282691 
L 568.285714 202.777481 
L 570.563265 195.240684 
L 572.840816 192.277399 
L 575.118367 195.316396 
L 577.395918 190.674503 
L 579.673469 184.379193 
L 581.95102 176.905479 
L 584.228571 184.449054 
L 586.506122 183.713814 
L 588.783673 181.208629 
L 591.061224 176.891675 
L 593.338776 180.948939 
L 595.616327 186.874785 
L 597.893878 191.398097 
L 600.171429 191.72734 
L 602.44898 197.26448 
L 604.726531 199.916347 
L 607.004082 182.457541 
L 609.281633 197.650784 
L 611.559184 189.971555 
L 613.836735 203.008 
L 616.114286 191.404061 
L 618.391837 204.959292 
L 620.669388 191.119261 
L 622.946939 192.419688 
L 625.22449 194.138506 
L 627.502041 190.176744 
L 629.779592 179.88651 
L 632.057143 184.266766 
L 634.334694 187.290629 
L 636.612245 192.147324 
L 638.889796 192.565943 
L 641.167347 180.033218 
L 643.444898 188.402487 
L 645.722449 185.079693 
L 648 188.503001 
L 648 188.503001 
" style="fill:none;stroke:#0000ff;stroke-linecap:square;stroke-opacity:0.05;stroke-width:1.5;"/>
   </g>
   <g id="line2d_12">
    <path clip-path="url(#p6a77739eb0)" d="M 90 180.093837 
L 92.277551 161.779085 
L 94.555102 164.659439 
L 96.832653 157.421824 
L 99.110204 153.217136 
L 101.387755 150.794381 
L 103.665306 145.166409 
L 105.942857 127.076199 
L 108.220408 130.393557 
L 110.497959 121.3472 
L 112.77551 134.149598 
L 115.053061 145.54799 
L 117.330612 159.508823 
L 119.608163 172.449869 
L 121.885714 180.463394 
L 124.163265 184.203852 
L 126.440816 193.479205 
L 128.718367 196.468207 
L 130.995918 216.719882 
L 135.55102 230.28126 
L 137.828571 220.020514 
L 140.106122 217.957803 
L 142.383673 208.775597 
L 144.661224 200.935313 
L 146.938776 193.999688 
L 149.216327 195.412797 
L 151.493878 199.818916 
L 153.771429 178.239373 
L 156.04898 182.228456 
L 158.326531 171.912037 
L 160.604082 180.39274 
L 162.881633 160.301249 
L 165.159184 161.382299 
L 167.436735 157.496166 
L 169.714286 162.473403 
L 171.991837 163.420936 
L 174.269388 160.55788 
L 176.546939 156.226562 
L 178.82449 153.293812 
L 181.102041 158.261525 
L 183.379592 171.07285 
L 185.657143 165.907676 
L 187.934694 173.366159 
L 190.212245 160.054085 
L 192.489796 175.952016 
L 194.767347 177.393808 
L 197.044898 188.184929 
L 199.322449 179.44545 
L 201.6 182.053931 
L 203.877551 190.370673 
L 206.155102 182.520201 
L 208.432653 200.730284 
L 210.710204 182.026417 
L 212.987755 190.359043 
L 215.265306 185.484329 
L 217.542857 186.790455 
L 219.820408 188.520197 
L 222.097959 182.976471 
L 224.37551 190.203299 
L 226.653061 189.826727 
L 228.930612 184.784294 
L 231.208163 186.773344 
L 233.485714 190.790408 
L 235.763265 187.689919 
L 238.040816 183.635192 
L 240.318367 193.435069 
L 242.595918 185.636929 
L 244.873469 196.550588 
L 247.15102 183.494505 
L 249.428571 185.955845 
L 251.706122 191.120181 
L 253.983673 170.355478 
L 256.261224 168.005575 
L 258.538776 179.973189 
L 260.816327 188.496216 
L 263.093878 178.339781 
L 265.371429 178.825719 
L 267.64898 181.960169 
L 269.926531 176.899461 
L 272.204082 182.526015 
L 274.481633 190.270256 
L 276.759184 187.522925 
L 279.036735 196.382058 
L 281.314286 190.635855 
L 283.591837 192.259851 
L 285.869388 193.363627 
L 288.146939 193.138854 
L 290.42449 196.355467 
L 292.702041 185.627421 
L 294.979592 205.294481 
L 297.257143 196.951029 
L 299.534694 199.511333 
L 301.812245 191.189531 
L 304.089796 192.940648 
L 306.367347 181.848977 
L 308.644898 185.344453 
L 310.922449 183.443788 
L 313.2 184.476079 
L 315.477551 186.024495 
L 317.755102 192.702274 
L 320.032653 186.275675 
L 322.310204 198.674721 
L 324.587755 206.403791 
L 326.865306 211.561864 
L 329.142857 217.004507 
L 331.420408 207.789009 
L 333.697959 206.24262 
L 335.97551 204.471091 
L 338.253061 203.425402 
L 340.530612 194.753711 
L 342.808163 189.483253 
L 345.085714 183.357097 
L 347.363265 171.09692 
L 349.640816 160.959059 
L 351.918367 156.913962 
L 354.195918 147.53621 
L 356.473469 146.440024 
L 358.75102 147.880914 
L 361.028571 134.023635 
L 363.306122 140.479794 
L 365.583673 138.841316 
L 367.861224 134.670123 
L 370.138776 147.410246 
L 372.416327 143.699124 
L 374.693878 147.233103 
L 376.971429 153.298499 
L 379.24898 156.59022 
L 381.526531 149.674468 
L 383.804082 153.019818 
L 386.081633 153.566541 
L 388.359184 151.475184 
L 390.636735 157.543901 
L 392.914286 159.273821 
L 395.191837 165.510884 
L 397.469388 164.901003 
L 399.746939 171.554932 
L 402.02449 179.789624 
L 404.302041 177.806977 
L 406.579592 167.9534 
L 408.857143 170.762221 
L 411.134694 177.351343 
L 413.412245 161.308661 
L 415.689796 166.188124 
L 420.244898 169.795646 
L 422.522449 174.221664 
L 424.8 171.025946 
L 427.077551 182.842899 
L 429.355102 190.77253 
L 431.632653 185.381281 
L 433.910204 188.133782 
L 436.187755 197.42016 
L 438.465306 188.895438 
L 440.742857 183.861394 
L 443.020408 177.651915 
L 445.297959 174.382297 
L 447.57551 166.324441 
L 449.853061 172.965221 
L 452.130612 173.49742 
L 454.408163 159.820889 
L 456.685714 159.240378 
L 458.963265 165.983189 
L 461.240816 182.891339 
L 463.518367 169.461951 
L 465.795918 163.370075 
L 468.073469 157.900099 
L 470.35102 150.505843 
L 472.628571 151.116022 
L 474.906122 152.831011 
L 477.183673 153.871728 
L 479.461224 146.992908 
L 481.738776 134.321241 
L 484.016327 126.803255 
L 486.293878 136.333568 
L 488.571429 143.324989 
L 490.84898 145.447177 
L 493.126531 149.443254 
L 495.404082 168.100206 
L 497.681633 166.101091 
L 499.959184 161.887069 
L 502.236735 168.154389 
L 504.514286 181.12544 
L 506.791837 188.844453 
L 509.069388 185.656175 
L 511.346939 175.558071 
L 513.62449 175.277795 
L 515.902041 186.088127 
L 518.179592 183.223617 
L 520.457143 190.882149 
L 522.734694 185.321492 
L 525.012245 191.377033 
L 529.567347 178.46819 
L 531.844898 184.952122 
L 534.122449 195.606079 
L 536.4 179.683055 
L 538.677551 203.69953 
L 540.955102 193.38926 
L 543.232653 184.41538 
L 545.510204 194.03474 
L 547.787755 194.605309 
L 550.065306 201.99602 
L 552.342857 196.522497 
L 554.620408 208.816082 
L 556.897959 200.107087 
L 559.17551 209.367669 
L 561.453061 226.570154 
L 563.730612 224.358943 
L 566.008163 214.962906 
L 568.285714 212.597207 
L 570.563265 210.785763 
L 572.840816 208.00908 
L 575.118367 210.410574 
L 579.673469 197.893432 
L 581.95102 174.067324 
L 584.228571 163.585845 
L 586.506122 161.301116 
L 588.783673 150.504805 
L 591.061224 143.411698 
L 593.338776 135.023022 
L 595.616327 131.511425 
L 597.893878 122.616671 
L 600.171429 124.751338 
L 602.44898 133.967233 
L 604.726531 142.625533 
L 607.004082 142.064585 
L 609.281633 149.371931 
L 611.559184 149.141817 
L 613.836735 155.735625 
L 616.114286 149.100389 
L 618.391837 146.969829 
L 620.669388 147.937288 
L 622.946939 147.108537 
L 625.22449 146.06676 
L 627.502041 141.780721 
L 629.779592 158.539973 
L 632.057143 156.000749 
L 634.334694 154.138964 
L 636.612245 179.01311 
L 638.889796 187.56048 
L 641.167347 191.096208 
L 643.444898 196.83521 
L 645.722449 203.114594 
L 648 226.357789 
L 648 226.357789 
" style="fill:none;stroke:#0000ff;stroke-linecap:square;stroke-opacity:0.05;stroke-width:1.5;"/>
   </g>
   <g id="line2d_13">
    <path clip-path="url(#p6a77739eb0)" d="M 90 182.140804 
L 92.277551 174.159742 
L 94.555102 185.02727 
L 96.832653 181.338215 
L 99.110204 174.382267 
L 101.387755 177.593599 
L 103.665306 176.216538 
L 105.942857 169.370828 
L 108.220408 172.205991 
L 110.497959 169.422941 
L 112.77551 167.647144 
L 115.053061 159.523214 
L 117.330612 156.258225 
L 119.608163 147.748925 
L 121.885714 161.830408 
L 124.163265 162.914367 
L 126.440816 165.534079 
L 128.718367 169.54106 
L 130.995918 178.949232 
L 133.273469 185.527254 
L 135.55102 182.524251 
L 137.828571 181.989361 
L 140.106122 183.402837 
L 142.383673 193.019999 
L 144.661224 189.747093 
L 146.938776 187.514705 
L 149.216327 193.6057 
L 151.493878 191.643655 
L 153.771429 184.589639 
L 156.04898 183.288654 
L 158.326531 178.13134 
L 160.604082 196.174168 
L 162.881633 190.585842 
L 165.159184 199.816423 
L 167.436735 189.74156 
L 169.714286 196.968621 
L 171.991837 190.383485 
L 174.269388 188.188242 
L 176.546939 186.187665 
L 178.82449 182.525253 
L 181.102041 178.15174 
L 183.379592 173.246388 
L 185.657143 164.032957 
L 187.934694 161.858089 
L 190.212245 164.882378 
L 192.489796 158.97622 
L 197.044898 178.024053 
L 199.322449 168.96133 
L 201.6 177.667834 
L 203.877551 184.435614 
L 206.155102 197.727703 
L 208.432653 202.592803 
L 210.710204 206.367209 
L 212.987755 204.197233 
L 215.265306 190.320716 
L 217.542857 201.495542 
L 219.820408 209.321132 
L 222.097959 203.412655 
L 224.37551 206.907808 
L 226.653061 208.211069 
L 228.930612 204.879924 
L 231.208163 198.761614 
L 233.485714 191.451423 
L 235.763265 156.92164 
L 238.040816 189.175647 
L 240.318367 184.142518 
L 242.595918 170.296086 
L 244.873469 168.841651 
L 247.15102 174.109681 
L 249.428571 170.646117 
L 251.706122 153.039014 
L 253.983673 158.922178 
L 256.261224 138.150469 
L 258.538776 143.349962 
L 260.816327 140.573867 
L 263.093878 125.155368 
L 265.371429 137.325942 
L 267.64898 125.133955 
L 269.926531 137.388721 
L 272.204082 132.085514 
L 274.481633 148.966341 
L 276.759184 143.168373 
L 279.036735 151.913011 
L 281.314286 167.202908 
L 283.591837 173.560358 
L 285.869388 173.568711 
L 288.146939 171.04031 
L 290.42449 182.832947 
L 292.702041 188.036662 
L 294.979592 181.743421 
L 297.257143 194.360207 
L 299.534694 195.019342 
L 301.812245 200.712257 
L 304.089796 203.400739 
L 306.367347 195.707353 
L 308.644898 196.555609 
L 310.922449 196.311638 
L 313.2 193.540029 
L 315.477551 191.452642 
L 317.755102 195.75805 
L 320.032653 193.888973 
L 322.310204 203.701642 
L 324.587755 201.964586 
L 326.865306 210.67071 
L 329.142857 214.913807 
L 333.697959 216.118532 
L 335.97551 214.143559 
L 338.253061 219.080424 
L 340.530612 216.467836 
L 342.808163 198.490444 
L 345.085714 191.406715 
L 347.363265 198.73758 
L 349.640816 190.922728 
L 351.918367 184.030965 
L 354.195918 185.642981 
L 356.473469 160.600942 
L 358.75102 143.559554 
L 361.028571 147.61081 
L 363.306122 150.242534 
L 365.583673 150.987413 
L 367.861224 149.817907 
L 370.138776 155.164854 
L 372.416327 167.443126 
L 374.693878 153.239921 
L 376.971429 167.062564 
L 379.24898 187.797113 
L 381.526531 183.075901 
L 383.804082 177.687502 
L 386.081633 175.787379 
L 388.359184 170.090634 
L 390.636735 161.647393 
L 392.914286 150.504594 
L 395.191837 165.851282 
L 397.469388 163.030047 
L 399.746939 155.322898 
L 402.02449 149.477733 
L 404.302041 157.168603 
L 406.579592 175.102745 
L 408.857143 177.049417 
L 411.134694 187.207949 
L 413.412245 182.40752 
L 415.689796 184.491782 
L 417.967347 181.645229 
L 420.244898 164.784511 
L 422.522449 181.195378 
L 424.8 178.508681 
L 427.077551 188.476217 
L 429.355102 177.007877 
L 431.632653 179.412993 
L 433.910204 167.785601 
L 436.187755 173.219021 
L 438.465306 174.076243 
L 440.742857 177.051035 
L 443.020408 175.850916 
L 445.297959 172.15878 
L 447.57551 189.826033 
L 449.853061 182.376154 
L 452.130612 161.229214 
L 454.408163 145.360618 
L 456.685714 149.646037 
L 458.963265 138.267871 
L 461.240816 135.549486 
L 463.518367 134.558564 
L 465.795918 134.998873 
L 468.073469 132.179438 
L 470.35102 136.773183 
L 472.628571 156.758322 
L 474.906122 161.598334 
L 477.183673 169.916509 
L 479.461224 192.890052 
L 481.738776 179.918472 
L 484.016327 190.663549 
L 486.293878 195.798952 
L 488.571429 203.989263 
L 490.84898 209.720455 
L 493.126531 213.36849 
L 495.404082 212.811865 
L 497.681633 217.733735 
L 499.959184 212.365678 
L 502.236735 203.051893 
L 504.514286 187.799866 
L 506.791837 157.091651 
L 509.069388 128.168184 
L 511.346939 96.17551 
L 513.62449 80.563563 
L 515.902041 62.018029 
L 518.179592 49.628729 
L 520.457143 34.56 
L 522.734694 45.188276 
L 525.012245 51.052123 
L 527.289796 76.186722 
L 529.567347 80.770553 
L 531.844898 128.37164 
L 534.122449 152.884614 
L 536.4 158.597032 
L 538.677551 178.095122 
L 540.955102 184.194128 
L 543.232653 200.860983 
L 545.510204 212.503896 
L 547.787755 209.639709 
L 550.065306 213.517587 
L 552.342857 209.153061 
L 554.620408 216.860137 
L 556.897959 214.505469 
L 559.17551 206.399846 
L 561.453061 203.236991 
L 563.730612 202.041898 
L 566.008163 197.252642 
L 568.285714 185.420389 
L 570.563265 187.568236 
L 572.840816 177.145427 
L 575.118367 170.830865 
L 577.395918 170.265767 
L 579.673469 165.653949 
L 581.95102 166.242999 
L 584.228571 158.479615 
L 586.506122 162.523415 
L 588.783673 149.884158 
L 591.061224 149.917312 
L 593.338776 150.460666 
L 595.616327 147.359887 
L 597.893878 149.920014 
L 600.171429 153.543173 
L 602.44898 165.969808 
L 607.004082 175.118643 
L 609.281633 183.506008 
L 611.559184 197.917697 
L 613.836735 214.661231 
L 616.114286 222.268221 
L 618.391837 217.635683 
L 620.669388 215.485322 
L 622.946939 220.626889 
L 625.22449 213.622703 
L 627.502041 211.497928 
L 629.779592 217.012369 
L 632.057143 205.055793 
L 634.334694 206.953953 
L 636.612245 202.955234 
L 638.889796 193.634148 
L 641.167347 204.27243 
L 643.444898 187.630952 
L 645.722449 183.064785 
L 648 167.776601 
L 648 167.776601 
" style="fill:none;stroke:#0000ff;stroke-linecap:square;stroke-opacity:0.05;stroke-width:1.5;"/>
   </g>
   <g id="line2d_14">
    <path clip-path="url(#p6a77739eb0)" d="M 90 171.967181 
L 92.277551 192.042329 
L 94.555102 203.851544 
L 96.832653 202.251265 
L 99.110204 207.605835 
L 101.387755 213.413767 
L 103.665306 221.407773 
L 105.942857 214.481561 
L 108.220408 208.304116 
L 110.497959 190.332402 
L 112.77551 186.582555 
L 115.053061 178.013291 
L 117.330612 166.746397 
L 119.608163 164.838323 
L 121.885714 160.203367 
L 126.440816 165.711479 
L 128.718367 173.947974 
L 130.995918 176.81146 
L 133.273469 180.160245 
L 135.55102 194.042653 
L 140.106122 192.212715 
L 142.383673 195.754553 
L 144.661224 187.085897 
L 146.938776 176.549304 
L 149.216327 151.212255 
L 151.493878 129.23648 
L 153.771429 145.81484 
L 156.04898 156.459624 
L 158.326531 144.794577 
L 160.604082 140.576598 
L 162.881633 142.651342 
L 165.159184 135.795943 
L 167.436735 129.766308 
L 169.714286 138.682255 
L 171.991837 138.8407 
L 174.269388 147.247192 
L 176.546939 145.709224 
L 178.82449 155.955752 
L 181.102041 163.708482 
L 183.379592 161.471943 
L 185.657143 171.280173 
L 187.934694 177.719396 
L 190.212245 180.737507 
L 192.489796 181.091537 
L 194.767347 186.75956 
L 197.044898 194.712028 
L 199.322449 188.278933 
L 201.6 188.519235 
L 203.877551 181.231744 
L 206.155102 194.751501 
L 208.432653 187.364754 
L 210.710204 195.549127 
L 212.987755 200.560341 
L 215.265306 191.150275 
L 217.542857 207.056438 
L 219.820408 203.597205 
L 222.097959 209.734017 
L 224.37551 205.952412 
L 226.653061 197.184659 
L 228.930612 201.429406 
L 231.208163 192.39797 
L 233.485714 203.172313 
L 235.763265 193.327901 
L 238.040816 179.160808 
L 240.318367 173.080461 
L 242.595918 173.312604 
L 244.873469 175.004906 
L 247.15102 178.656445 
L 249.428571 180.505469 
L 251.706122 184.979687 
L 253.983673 174.43322 
L 256.261224 169.21711 
L 258.538776 172.691855 
L 260.816327 167.259517 
L 263.093878 172.420403 
L 265.371429 183.418939 
L 267.64898 176.496719 
L 269.926531 174.280135 
L 272.204082 174.746187 
L 274.481633 179.801545 
L 276.759184 187.247885 
L 279.036735 189.246141 
L 281.314286 186.594373 
L 283.591837 191.756461 
L 285.869388 177.321468 
L 288.146939 173.538191 
L 290.42449 161.685203 
L 292.702041 154.496405 
L 294.979592 143.385212 
L 297.257143 133.242886 
L 299.534694 135.011745 
L 301.812245 123.751786 
L 304.089796 116.692697 
L 306.367347 114.240914 
L 308.644898 98.521981 
L 310.922449 104.309495 
L 313.2 111.138473 
L 315.477551 116.821861 
L 317.755102 118.261309 
L 320.032653 99.985701 
L 322.310204 125.463156 
L 324.587755 122.840119 
L 326.865306 121.757445 
L 331.420408 101.373646 
L 333.697959 134.906566 
L 335.97551 134.838478 
L 338.253061 149.268624 
L 340.530612 158.145265 
L 342.808163 150.29588 
L 345.085714 154.379296 
L 347.363265 158.702636 
L 349.640816 166.100846 
L 351.918367 164.70448 
L 354.195918 165.599535 
L 356.473469 170.572253 
L 358.75102 163.835124 
L 361.028571 168.582901 
L 363.306122 157.441044 
L 365.583673 174.226895 
L 367.861224 167.845218 
L 370.138776 176.730054 
L 372.416327 174.867386 
L 374.693878 184.696612 
L 376.971429 164.648471 
L 379.24898 182.599254 
L 381.526531 178.636892 
L 383.804082 175.583046 
L 386.081633 166.26723 
L 388.359184 157.514503 
L 390.636735 140.475265 
L 392.914286 145.127111 
L 395.191837 138.544162 
L 397.469388 140.407528 
L 399.746939 136.223128 
L 402.02449 147.116214 
L 404.302041 156.639845 
L 406.579592 162.304139 
L 408.857143 175.320176 
L 411.134694 182.447053 
L 413.412245 195.011758 
L 415.689796 203.87228 
L 417.967347 204.604602 
L 420.244898 208.367702 
L 422.522449 198.87675 
L 424.8 200.213942 
L 427.077551 202.51576 
L 429.355102 186.521589 
L 431.632653 193.288741 
L 433.910204 170.395009 
L 436.187755 165.670865 
L 438.465306 154.843772 
L 440.742857 142.783805 
L 443.020408 132.122553 
L 445.297959 134.464385 
L 447.57551 123.013622 
L 449.853061 127.14386 
L 452.130612 124.254826 
L 454.408163 126.850826 
L 456.685714 142.948747 
L 458.963265 143.144502 
L 461.240816 154.802217 
L 463.518367 150.598167 
L 465.795918 148.983264 
L 468.073469 152.632672 
L 470.35102 155.810938 
L 472.628571 159.309837 
L 474.906122 160.819779 
L 477.183673 169.4931 
L 479.461224 179.938242 
L 484.016327 164.362988 
L 486.293878 157.510765 
L 488.571429 156.778994 
L 490.84898 171.364863 
L 493.126531 170.477016 
L 495.404082 170.349757 
L 497.681633 164.103478 
L 499.959184 165.231562 
L 502.236735 158.652634 
L 504.514286 173.744644 
L 506.791837 177.973749 
L 509.069388 177.037095 
L 511.346939 183.898523 
L 513.62449 181.937258 
L 515.902041 180.665283 
L 518.179592 174.663303 
L 520.457143 176.808866 
L 522.734694 176.832275 
L 525.012245 164.731802 
L 527.289796 168.535141 
L 529.567347 160.220198 
L 531.844898 158.882285 
L 534.122449 157.301203 
L 536.4 157.143836 
L 538.677551 158.566918 
L 540.955102 171.324349 
L 543.232653 165.753038 
L 545.510204 172.655565 
L 547.787755 180.631643 
L 550.065306 184.633077 
L 552.342857 195.12548 
L 554.620408 187.205318 
L 556.897959 184.24161 
L 559.17551 179.052411 
L 561.453061 183.950286 
L 563.730612 181.588194 
L 566.008163 175.660871 
L 568.285714 171.045807 
L 570.563265 166.136363 
L 572.840816 166.389542 
L 575.118367 175.46331 
L 577.395918 174.619 
L 579.673469 179.983745 
L 581.95102 175.690303 
L 586.506122 160.745405 
L 588.783673 167.941556 
L 591.061224 164.046639 
L 593.338776 169.140973 
L 595.616327 165.760714 
L 597.893878 140.36483 
L 600.171429 159.706582 
L 602.44898 170.698776 
L 604.726531 163.780776 
L 607.004082 179.374901 
L 609.281633 171.195527 
L 611.559184 175.297333 
L 613.836735 185.276215 
L 616.114286 177.813232 
L 618.391837 186.825795 
L 620.669388 182.871204 
L 622.946939 165.125312 
L 625.22449 167.548584 
L 627.502041 161.126316 
L 632.057143 144.781267 
L 634.334694 143.885841 
L 636.612245 137.377929 
L 638.889796 133.86603 
L 641.167347 134.019624 
L 643.444898 142.503244 
L 645.722449 152.284673 
L 648 146.110244 
L 648 146.110244 
" style="fill:none;stroke:#0000ff;stroke-linecap:square;stroke-opacity:0.05;stroke-width:1.5;"/>
   </g>
   <g id="line2d_15">
    <path clip-path="url(#p6a77739eb0)" d="M 90 151.238462 
L 92.277551 158.829927 
L 94.555102 161.13935 
L 96.832653 177.967886 
L 99.110204 172.832612 
L 101.387755 177.351627 
L 103.665306 169.819335 
L 105.942857 171.655643 
L 108.220408 176.936506 
L 110.497959 182.573446 
L 112.77551 186.090895 
L 115.053061 190.898629 
L 117.330612 199.348914 
L 119.608163 199.141598 
L 121.885714 197.534194 
L 124.163265 186.948093 
L 126.440816 185.163642 
L 128.718367 175.420431 
L 130.995918 171.582016 
L 133.273469 174.323613 
L 135.55102 167.227136 
L 137.828571 173.930402 
L 140.106122 171.031348 
L 142.383673 157.000732 
L 144.661224 161.72272 
L 146.938776 161.786251 
L 149.216327 157.727286 
L 151.493878 158.689659 
L 153.771429 168.091934 
L 156.04898 163.35845 
L 158.326531 168.488003 
L 160.604082 154.404668 
L 162.881633 155.925988 
L 165.159184 156.564485 
L 167.436735 157.888676 
L 169.714286 172.214899 
L 171.991837 168.247513 
L 174.269388 162.686801 
L 176.546939 172.912222 
L 178.82449 180.995812 
L 181.102041 175.904213 
L 183.379592 178.984689 
L 185.657143 164.398369 
L 187.934694 172.847061 
L 190.212245 168.340645 
L 192.489796 164.481621 
L 194.767347 160.139179 
L 197.044898 163.813427 
L 199.322449 162.716762 
L 201.6 165.022699 
L 203.877551 164.758502 
L 206.155102 171.786274 
L 208.432653 174.293657 
L 210.710204 168.956638 
L 212.987755 184.95922 
L 215.265306 204.417845 
L 217.542857 181.38258 
L 219.820408 191.849001 
L 222.097959 185.819213 
L 224.37551 195.043665 
L 226.653061 194.755479 
L 228.930612 186.90872 
L 231.208163 177.152408 
L 233.485714 189.894616 
L 235.763265 183.739819 
L 238.040816 206.710116 
L 240.318367 193.569782 
L 242.595918 190.825408 
L 244.873469 176.533388 
L 247.15102 177.032619 
L 249.428571 162.959087 
L 251.706122 163.918685 
L 253.983673 180.86688 
L 256.261224 156.97771 
L 258.538776 156.263996 
L 260.816327 160.056452 
L 263.093878 144.911467 
L 265.371429 168.463619 
L 267.64898 170.826568 
L 269.926531 163.586107 
L 272.204082 159.288714 
L 274.481633 177.959019 
L 276.759184 182.875685 
L 279.036735 187.275779 
L 281.314286 194.908401 
L 283.591837 197.36209 
L 285.869388 215.120248 
L 288.146939 210.013065 
L 290.42449 206.207119 
L 292.702041 207.708906 
L 294.979592 205.705357 
L 297.257143 202.51115 
L 299.534694 187.865701 
L 301.812245 197.147304 
L 304.089796 195.252152 
L 306.367347 178.474439 
L 308.644898 171.755242 
L 310.922449 158.702052 
L 315.477551 168.709074 
L 317.755102 162.435507 
L 320.032653 173.012716 
L 322.310204 175.689793 
L 324.587755 180.28379 
L 326.865306 175.336043 
L 329.142857 187.507643 
L 331.420408 195.106429 
L 333.697959 195.12251 
L 338.253061 208.205345 
L 340.530612 189.149812 
L 342.808163 196.529014 
L 345.085714 193.588758 
L 347.363265 197.905692 
L 349.640816 187.806711 
L 351.918367 186.945888 
L 354.195918 184.564863 
L 356.473469 181.032853 
L 358.75102 167.724099 
L 361.028571 169.741964 
L 363.306122 164.698886 
L 365.583673 156.350386 
L 367.861224 162.96434 
L 370.138776 161.406375 
L 372.416327 164.780621 
L 374.693878 157.490648 
L 376.971429 151.143194 
L 379.24898 153.554663 
L 381.526531 160.833931 
L 383.804082 149.960362 
L 386.081633 168.216388 
L 388.359184 152.57539 
L 390.636735 142.684857 
L 392.914286 143.462927 
L 395.191837 115.064599 
L 397.469388 136.73198 
L 399.746939 148.225826 
L 402.02449 142.717051 
L 404.302041 145.71573 
L 406.579592 160.281086 
L 408.857143 157.439621 
L 411.134694 167.038675 
L 413.412245 180.941922 
L 415.689796 171.546695 
L 417.967347 179.565688 
L 420.244898 180.26316 
L 422.522449 180.36994 
L 424.8 186.124956 
L 427.077551 180.376479 
L 429.355102 173.732974 
L 431.632653 167.595443 
L 433.910204 177.643627 
L 436.187755 160.8118 
L 438.465306 161.41758 
L 440.742857 159.18814 
L 443.020408 160.19049 
L 445.297959 154.901152 
L 447.57551 153.790022 
L 449.853061 151.998035 
L 452.130612 154.050134 
L 454.408163 161.615944 
L 456.685714 144.552076 
L 458.963265 155.839268 
L 461.240816 150.981257 
L 463.518367 158.32474 
L 465.795918 164.188027 
L 468.073469 165.358797 
L 470.35102 167.39628 
L 472.628571 161.74468 
L 474.906122 165.538537 
L 477.183673 162.614333 
L 479.461224 167.911067 
L 481.738776 178.008064 
L 484.016327 183.848354 
L 486.293878 169.057711 
L 488.571429 156.12438 
L 490.84898 155.490122 
L 493.126531 168.269496 
L 495.404082 165.456207 
L 497.681633 175.635987 
L 499.959184 167.724375 
L 502.236735 191.032333 
L 504.514286 155.413118 
L 506.791837 173.905196 
L 509.069388 172.899392 
L 511.346939 177.224413 
L 513.62449 175.376736 
L 515.902041 167.532846 
L 518.179592 174.416737 
L 520.457143 179.965017 
L 522.734694 165.681489 
L 525.012245 171.841343 
L 527.289796 168.731534 
L 529.567347 161.030839 
L 531.844898 186.248593 
L 534.122449 176.509758 
L 536.4 170.465762 
L 538.677551 157.17039 
L 540.955102 161.345939 
L 543.232653 152.815101 
L 545.510204 165.130351 
L 547.787755 160.449404 
L 550.065306 162.894205 
L 554.620408 156.24536 
L 556.897959 169.278395 
L 559.17551 149.151702 
L 561.453061 166.829053 
L 563.730612 165.08829 
L 566.008163 164.134353 
L 568.285714 175.271673 
L 570.563265 176.85501 
L 572.840816 162.6116 
L 575.118367 155.231832 
L 577.395918 153.200419 
L 579.673469 153.046408 
L 581.95102 157.411394 
L 584.228571 155.535063 
L 586.506122 142.101705 
L 588.783673 135.0774 
L 591.061224 133.323546 
L 593.338776 142.580385 
L 595.616327 141.704216 
L 600.171429 148.491561 
L 602.44898 139.105421 
L 604.726531 137.776416 
L 607.004082 157.461813 
L 609.281633 161.480127 
L 611.559184 158.227022 
L 613.836735 168.390695 
L 616.114286 170.552713 
L 618.391837 166.9902 
L 620.669388 169.668454 
L 622.946939 169.187124 
L 625.22449 178.898334 
L 627.502041 176.680164 
L 629.779592 190.324449 
L 632.057143 181.794781 
L 634.334694 194.743945 
L 636.612245 178.570038 
L 638.889796 182.841333 
L 641.167347 178.838711 
L 643.444898 182.640615 
L 645.722449 198.069432 
L 648 180.918809 
L 648 180.918809 
" style="fill:none;stroke:#0000ff;stroke-linecap:square;stroke-opacity:0.05;stroke-width:1.5;"/>
   </g>
   <g id="line2d_16">
    <path clip-path="url(#p6a77739eb0)" d="M 90 191.352264 
L 92.277551 190.076473 
L 94.555102 196.854699 
L 96.832653 198.357413 
L 99.110204 197.655777 
L 101.387755 185.968725 
L 103.665306 183.218166 
L 105.942857 206.329475 
L 108.220408 189.356861 
L 110.497959 182.28095 
L 112.77551 189.782267 
L 115.053061 179.118079 
L 117.330612 187.22159 
L 119.608163 178.744145 
L 121.885714 179.99154 
L 124.163265 199.81431 
L 126.440816 195.641146 
L 128.718367 199.582869 
L 130.995918 188.932493 
L 133.273469 208.173653 
L 135.55102 210.310412 
L 137.828571 214.92253 
L 140.106122 213.553369 
L 142.383673 211.34608 
L 144.661224 208.252537 
L 146.938776 204.747252 
L 149.216327 198.251279 
L 151.493878 199.282113 
L 153.771429 181.169573 
L 156.04898 179.727539 
L 158.326531 176.231005 
L 160.604082 176.731405 
L 162.881633 173.324686 
L 165.159184 184.614895 
L 167.436735 174.849062 
L 169.714286 173.308188 
L 171.991837 175.018744 
L 174.269388 186.142435 
L 176.546939 192.496453 
L 178.82449 185.357806 
L 181.102041 203.479859 
L 183.379592 185.194271 
L 185.657143 200.996188 
L 187.934694 201.191182 
L 190.212245 197.664537 
L 192.489796 199.209189 
L 194.767347 204.625022 
L 197.044898 183.378544 
L 199.322449 184.419474 
L 201.6 172.145589 
L 203.877551 181.630694 
L 206.155102 176.9285 
L 208.432653 186.21778 
L 210.710204 191.627455 
L 212.987755 186.95145 
L 215.265306 188.725994 
L 217.542857 183.646875 
L 219.820408 199.369949 
L 222.097959 192.982332 
L 224.37551 180.035463 
L 226.653061 186.481451 
L 228.930612 177.858482 
L 231.208163 182.755598 
L 233.485714 179.906323 
L 235.763265 178.994615 
L 238.040816 191.459353 
L 240.318367 193.130985 
L 242.595918 200.346512 
L 244.873469 200.710606 
L 247.15102 207.355726 
L 249.428571 204.61722 
L 251.706122 212.377969 
L 253.983673 216.969059 
L 256.261224 229.239086 
L 258.538776 222.79449 
L 260.816327 213.967711 
L 263.093878 221.10658 
L 265.371429 216.329528 
L 267.64898 219.485845 
L 269.926531 211.364531 
L 272.204082 205.043024 
L 274.481633 197.843225 
L 276.759184 203.349904 
L 279.036735 191.136197 
L 281.314286 178.048393 
L 283.591837 187.203853 
L 285.869388 179.028658 
L 288.146939 169.082927 
L 290.42449 194.654264 
L 292.702041 199.325254 
L 294.979592 196.089369 
L 297.257143 204.813577 
L 299.534694 211.695237 
L 301.812245 212.878776 
L 304.089796 209.185969 
L 306.367347 213.549851 
L 308.644898 220.550006 
L 310.922449 205.376077 
L 313.2 213.998942 
L 315.477551 202.145775 
L 320.032653 172.842303 
L 322.310204 150.797312 
L 324.587755 157.921619 
L 326.865306 142.829926 
L 329.142857 125.929678 
L 331.420408 128.422616 
L 333.697959 134.227059 
L 335.97551 142.130134 
L 338.253061 152.075267 
L 340.530612 160.111621 
L 342.808163 170.495518 
L 345.085714 187.024237 
L 347.363265 198.427847 
L 349.640816 210.748496 
L 351.918367 207.800476 
L 354.195918 207.72401 
L 356.473469 204.838018 
L 358.75102 200.566063 
L 361.028571 185.632675 
L 363.306122 193.186743 
L 365.583673 199.090991 
L 367.861224 182.300426 
L 370.138776 198.753223 
L 372.416327 189.538369 
L 374.693878 192.914589 
L 376.971429 190.451145 
L 379.24898 202.948042 
L 381.526531 210.846576 
L 383.804082 211.008288 
L 386.081633 225.365683 
L 388.359184 221.340344 
L 390.636735 223.424734 
L 392.914286 198.941822 
L 395.191837 203.567369 
L 397.469388 212.674859 
L 399.746939 197.564919 
L 402.02449 184.427588 
L 404.302041 191.836643 
L 406.579592 184.656477 
L 408.857143 176.67836 
L 411.134694 182.149263 
L 413.412245 176.579434 
L 415.689796 189.999125 
L 417.967347 177.81015 
L 420.244898 176.398624 
L 422.522449 172.624164 
L 424.8 172.559501 
L 427.077551 178.26707 
L 429.355102 174.587299 
L 431.632653 172.803058 
L 433.910204 179.403607 
L 436.187755 163.15533 
L 438.465306 168.448073 
L 440.742857 176.643564 
L 443.020408 176.384651 
L 445.297959 169.600066 
L 447.57551 181.332812 
L 449.853061 180.027877 
L 452.130612 184.18487 
L 454.408163 181.932988 
L 456.685714 174.343553 
L 458.963265 187.478141 
L 461.240816 192.185952 
L 463.518367 195.160438 
L 465.795918 204.064629 
L 468.073469 204.80812 
L 470.35102 213.309184 
L 472.628571 211.880235 
L 474.906122 206.32178 
L 477.183673 216.156248 
L 479.461224 218.87501 
L 481.738776 232.640923 
L 484.016327 225.958383 
L 486.293878 228.846318 
L 488.571429 223.270496 
L 490.84898 224.710599 
L 493.126531 217.108204 
L 495.404082 219.91869 
L 497.681633 218.413232 
L 499.959184 206.669699 
L 502.236735 206.1497 
L 504.514286 201.747324 
L 506.791837 207.386203 
L 509.069388 210.249269 
L 511.346939 202.394566 
L 513.62449 211.021482 
L 515.902041 197.36411 
L 518.179592 200.235102 
L 520.457143 197.512647 
L 522.734694 191.732242 
L 525.012245 201.19839 
L 527.289796 183.352494 
L 529.567347 180.712236 
L 531.844898 180.109991 
L 534.122449 162.927041 
L 536.4 195.011972 
L 538.677551 169.523193 
L 540.955102 166.464827 
L 543.232653 157.68656 
L 545.510204 161.655818 
L 547.787755 161.969887 
L 550.065306 165.924653 
L 552.342857 179.683768 
L 554.620408 162.860777 
L 556.897959 175.367984 
L 559.17551 170.916993 
L 561.453061 192.553109 
L 563.730612 185.804258 
L 566.008163 190.433363 
L 568.285714 185.255695 
L 570.563265 194.254093 
L 572.840816 189.799658 
L 575.118367 176.539852 
L 577.395918 190.106175 
L 579.673469 186.048661 
L 581.95102 196.279217 
L 584.228571 185.208158 
L 586.506122 183.28194 
L 588.783673 171.036732 
L 591.061224 179.049899 
L 593.338776 188.936676 
L 595.616327 174.93788 
L 597.893878 183.506825 
L 600.171429 188.180349 
L 602.44898 200.219052 
L 604.726531 190.03127 
L 607.004082 203.448427 
L 609.281633 200.630481 
L 611.559184 207.57968 
L 613.836735 186.36397 
L 616.114286 204.795088 
L 618.391837 219.771882 
L 620.669388 202.14548 
L 622.946939 205.98103 
L 625.22449 199.813687 
L 627.502041 206.422585 
L 629.779592 197.159724 
L 632.057143 196.65989 
L 634.334694 204.157528 
L 636.612245 187.426707 
L 638.889796 192.583215 
L 641.167347 185.857946 
L 643.444898 194.20606 
L 645.722449 186.827217 
L 648 197.985834 
L 648 197.985834 
" style="fill:none;stroke:#0000ff;stroke-linecap:square;stroke-opacity:0.05;stroke-width:1.5;"/>
   </g>
   <g id="line2d_17">
    <path clip-path="url(#p6a77739eb0)" d="M 90 213.668633 
L 92.277551 223.641574 
L 94.555102 222.703605 
L 96.832653 216.82006 
L 99.110204 225.863062 
L 101.387755 217.190127 
L 103.665306 207.051775 
L 105.942857 195.698943 
L 108.220408 193.12564 
L 110.497959 186.541841 
L 112.77551 192.02551 
L 115.053061 176.16629 
L 117.330612 173.090874 
L 119.608163 162.008506 
L 121.885714 156.492484 
L 124.163265 169.821265 
L 126.440816 195.033482 
L 128.718367 171.401377 
L 130.995918 167.050481 
L 133.273469 181.39332 
L 135.55102 163.651184 
L 137.828571 175.908603 
L 140.106122 172.234621 
L 142.383673 176.161179 
L 144.661224 180.536714 
L 146.938776 167.39913 
L 149.216327 172.977414 
L 151.493878 159.43238 
L 153.771429 159.760899 
L 156.04898 166.290535 
L 158.326531 166.17265 
L 160.604082 178.058766 
L 165.159184 186.862515 
L 167.436735 200.205814 
L 169.714286 207.599037 
L 171.991837 203.6737 
L 174.269388 223.202758 
L 176.546939 217.114525 
L 178.82449 218.358065 
L 181.102041 220.591146 
L 183.379592 218.389465 
L 185.657143 209.602256 
L 187.934694 191.623133 
L 190.212245 197.2103 
L 192.489796 198.193607 
L 194.767347 193.921913 
L 197.044898 201.346012 
L 199.322449 201.0927 
L 201.6 213.112318 
L 203.877551 207.196517 
L 206.155102 206.954171 
L 208.432653 212.126393 
L 210.710204 224.064616 
L 212.987755 215.762384 
L 215.265306 204.930217 
L 217.542857 196.513245 
L 219.820408 187.483655 
L 222.097959 169.803253 
L 224.37551 164.510153 
L 226.653061 149.880828 
L 228.930612 141.630803 
L 231.208163 129.980036 
L 233.485714 131.577891 
L 235.763265 123.192115 
L 238.040816 130.281221 
L 240.318367 124.184877 
L 242.595918 131.957659 
L 244.873469 138.660106 
L 247.15102 146.708977 
L 249.428571 152.959048 
L 251.706122 165.310616 
L 253.983673 162.99381 
L 256.261224 173.29323 
L 258.538776 174.736724 
L 260.816327 186.077549 
L 263.093878 188.551499 
L 265.371429 195.74902 
L 267.64898 187.687129 
L 269.926531 198.218877 
L 272.204082 211.386316 
L 274.481633 195.433441 
L 276.759184 192.258855 
L 279.036735 180.504875 
L 281.314286 171.783098 
L 283.591837 160.507159 
L 285.869388 163.401466 
L 288.146939 162.091915 
L 290.42449 160.651727 
L 292.702041 174.150675 
L 294.979592 166.891472 
L 297.257143 167.681431 
L 299.534694 170.218386 
L 301.812245 168.397011 
L 306.367347 181.914935 
L 308.644898 185.22547 
L 310.922449 187.048238 
L 313.2 199.453551 
L 315.477551 150.01684 
L 317.755102 203.462307 
L 320.032653 198.029509 
L 322.310204 199.374864 
L 324.587755 200.325694 
L 326.865306 211.037461 
L 329.142857 214.474612 
L 331.420408 209.970559 
L 333.697959 209.010377 
L 335.97551 211.522404 
L 338.253061 208.831112 
L 340.530612 203.944638 
L 342.808163 207.873396 
L 345.085714 198.501442 
L 347.363265 181.793319 
L 349.640816 182.656052 
L 351.918367 188.944239 
L 354.195918 198.342061 
L 356.473469 198.003748 
L 358.75102 198.027116 
L 361.028571 168.990314 
L 363.306122 201.222394 
L 365.583673 196.198682 
L 367.861224 188.632067 
L 370.138776 191.487174 
L 372.416327 192.832207 
L 374.693878 140.061076 
L 376.971429 178.33067 
L 379.24898 176.806154 
L 381.526531 177.360481 
L 383.804082 167.924239 
L 386.081633 176.311337 
L 388.359184 164.283065 
L 390.636735 183.916151 
L 392.914286 180.449807 
L 395.191837 173.080108 
L 397.469388 189.252448 
L 399.746939 189.795281 
L 402.02449 184.188076 
L 406.579592 193.905905 
L 408.857143 197.997983 
L 411.134694 193.017204 
L 413.412245 190.676764 
L 415.689796 193.043887 
L 417.967347 170.476366 
L 420.244898 188.146717 
L 422.522449 186.364733 
L 424.8 177.730468 
L 427.077551 177.614179 
L 429.355102 170.958291 
L 431.632653 167.229702 
L 433.910204 170.61141 
L 436.187755 155.367457 
L 438.465306 160.617524 
L 440.742857 158.331385 
L 443.020408 140.29319 
L 445.297959 143.753467 
L 447.57551 148.574973 
L 449.853061 149.305801 
L 452.130612 158.418813 
L 454.408163 158.113519 
L 456.685714 159.028099 
L 458.963265 165.402959 
L 461.240816 164.985261 
L 465.795918 169.090264 
L 468.073469 167.03481 
L 470.35102 158.008936 
L 472.628571 143.197393 
L 474.906122 173.270513 
L 477.183673 173.847772 
L 479.461224 174.06146 
L 481.738776 182.483714 
L 484.016327 185.313144 
L 486.293878 183.752266 
L 488.571429 175.441061 
L 493.126531 181.314894 
L 495.404082 187.094258 
L 497.681633 187.86527 
L 499.959184 191.001407 
L 502.236735 188.475893 
L 504.514286 189.355472 
L 506.791837 182.810657 
L 509.069388 184.699493 
L 511.346939 197.876734 
L 513.62449 195.904159 
L 515.902041 193.377127 
L 518.179592 192.98364 
L 520.457143 187.726963 
L 522.734694 184.298895 
L 525.012245 181.642286 
L 527.289796 192.89496 
L 529.567347 186.480277 
L 531.844898 188.337761 
L 534.122449 184.966664 
L 536.4 191.743529 
L 538.677551 187.616786 
L 540.955102 188.713813 
L 543.232653 201.127293 
L 545.510204 222.659818 
L 547.787755 193.383914 
L 550.065306 192.692116 
L 552.342857 207.305859 
L 554.620408 184.49412 
L 556.897959 195.061325 
L 559.17551 179.232954 
L 561.453061 180.961694 
L 563.730612 188.738447 
L 566.008163 169.507385 
L 568.285714 194.726067 
L 570.563265 173.703315 
L 572.840816 180.325341 
L 575.118367 182.842272 
L 577.395918 184.138495 
L 579.673469 194.80432 
L 581.95102 181.781435 
L 584.228571 194.48727 
L 586.506122 195.557982 
L 588.783673 201.944609 
L 591.061224 197.10355 
L 593.338776 201.354251 
L 595.616327 202.182461 
L 597.893878 204.007944 
L 600.171429 194.574546 
L 602.44898 198.548816 
L 604.726531 194.428123 
L 607.004082 200.276196 
L 609.281633 193.421995 
L 611.559184 199.803031 
L 616.114286 205.857922 
L 618.391837 207.92992 
L 620.669388 204.425734 
L 622.946939 219.489162 
L 625.22449 212.234651 
L 627.502041 208.835563 
L 629.779592 207.739813 
L 632.057143 205.545369 
L 634.334694 189.971989 
L 636.612245 182.816911 
L 638.889796 182.844415 
L 641.167347 182.43381 
L 643.444898 192.168923 
L 645.722449 188.621524 
L 648 192.477077 
L 648 192.477077 
" style="fill:none;stroke:#0000ff;stroke-linecap:square;stroke-opacity:0.05;stroke-width:1.5;"/>
   </g>
   <g id="line2d_18">
    <path clip-path="url(#p6a77739eb0)" d="M 90 154.50269 
L 92.277551 171.541347 
L 94.555102 175.658172 
L 96.832653 177.701263 
L 99.110204 176.72125 
L 101.387755 187.160029 
L 103.665306 190.718025 
L 105.942857 191.020074 
L 108.220408 186.875251 
L 110.497959 189.166665 
L 112.77551 187.811431 
L 115.053061 186.037744 
L 117.330612 190.834904 
L 119.608163 177.449367 
L 121.885714 198.270974 
L 124.163265 186.942765 
L 126.440816 193.531694 
L 128.718367 198.245678 
L 130.995918 196.689295 
L 133.273469 188.595735 
L 135.55102 192.5449 
L 137.828571 194.596411 
L 140.106122 193.939102 
L 142.383673 188.061237 
L 144.661224 190.458428 
L 146.938776 194.215089 
L 149.216327 187.230939 
L 151.493878 188.290758 
L 153.771429 185.570339 
L 156.04898 193.265144 
L 158.326531 196.071909 
L 160.604082 193.196964 
L 162.881633 185.030019 
L 165.159184 192.588278 
L 167.436735 206.178109 
L 169.714286 194.294946 
L 171.991837 202.972204 
L 174.269388 196.135488 
L 176.546939 195.943438 
L 178.82449 202.19136 
L 181.102041 208.900171 
L 183.379592 205.57591 
L 185.657143 208.081149 
L 187.934694 208.443556 
L 190.212245 200.168116 
L 192.489796 202.657653 
L 194.767347 201.121221 
L 197.044898 193.083995 
L 199.322449 185.913895 
L 201.6 186.691801 
L 203.877551 164.1248 
L 206.155102 158.243485 
L 208.432653 162.951737 
L 210.710204 170.359664 
L 212.987755 170.569732 
L 215.265306 183.886435 
L 217.542857 181.872387 
L 219.820408 186.974028 
L 222.097959 197.392202 
L 224.37551 205.16619 
L 226.653061 219.350572 
L 228.930612 238.392907 
L 231.208163 240.334374 
L 233.485714 237.089497 
L 235.763265 230.320527 
L 238.040816 217.193579 
L 240.318367 220.150263 
L 242.595918 208.085557 
L 244.873469 196.77662 
L 247.15102 205.736967 
L 249.428571 209.669333 
L 251.706122 185.950229 
L 253.983673 187.504211 
L 256.261224 181.613135 
L 258.538776 197.388957 
L 260.816327 191.987393 
L 263.093878 199.971209 
L 265.371429 204.414267 
L 267.64898 206.012922 
L 269.926531 187.253531 
L 272.204082 184.827841 
L 274.481633 181.429784 
L 276.759184 181.473179 
L 279.036735 177.13063 
L 281.314286 171.913381 
L 283.591837 166.000858 
L 285.869388 172.389144 
L 288.146939 167.979201 
L 290.42449 174.203911 
L 292.702041 174.459064 
L 294.979592 187.505312 
L 297.257143 196.371119 
L 299.534694 208.93703 
L 301.812245 214.616757 
L 304.089796 216.135081 
L 306.367347 228.410372 
L 308.644898 221.673151 
L 310.922449 209.332451 
L 313.2 221.934189 
L 315.477551 204.82174 
L 317.755102 210.906746 
L 320.032653 208.512903 
L 322.310204 199.286809 
L 324.587755 195.552437 
L 326.865306 183.248927 
L 329.142857 199.913798 
L 331.420408 198.649794 
L 333.697959 199.368939 
L 335.97551 206.723377 
L 338.253061 219.212846 
L 340.530612 211.889187 
L 342.808163 224.441466 
L 345.085714 227.393484 
L 347.363265 234.987421 
L 349.640816 219.853865 
L 351.918367 224.268591 
L 354.195918 216.474029 
L 356.473469 207.367735 
L 358.75102 210.613676 
L 361.028571 185.832288 
L 363.306122 191.221793 
L 365.583673 182.786577 
L 367.861224 181.89076 
L 370.138776 178.723554 
L 372.416327 170.026495 
L 374.693878 168.313632 
L 376.971429 176.797917 
L 379.24898 164.645593 
L 381.526531 160.810716 
L 383.804082 162.998822 
L 386.081633 169.393521 
L 388.359184 167.745149 
L 390.636735 164.637079 
L 392.914286 155.922472 
L 395.191837 154.749173 
L 397.469388 160.766038 
L 399.746939 153.747386 
L 402.02449 156.332315 
L 404.302041 169.763956 
L 406.579592 165.01321 
L 408.857143 174.714119 
L 411.134694 170.464856 
L 413.412245 168.199728 
L 415.689796 175.654365 
L 417.967347 188.60112 
L 420.244898 182.232955 
L 422.522449 191.451659 
L 424.8 202.954662 
L 427.077551 185.286997 
L 429.355102 192.460489 
L 431.632653 200.322139 
L 433.910204 200.417874 
L 436.187755 200.274086 
L 438.465306 201.022536 
L 440.742857 207.916065 
L 443.020408 204.233584 
L 445.297959 206.450577 
L 447.57551 204.642879 
L 449.853061 207.859963 
L 452.130612 207.986733 
L 454.408163 196.879817 
L 456.685714 214.018965 
L 458.963265 210.799565 
L 461.240816 204.752486 
L 463.518367 212.753234 
L 465.795918 215.165742 
L 468.073469 212.737878 
L 470.35102 222.761433 
L 472.628571 224.556858 
L 474.906122 218.194745 
L 477.183673 202.121783 
L 479.461224 196.563838 
L 481.738776 185.059348 
L 484.016327 189.112032 
L 486.293878 181.485108 
L 488.571429 179.992183 
L 490.84898 174.572993 
L 493.126531 163.781287 
L 495.404082 141.776302 
L 497.681633 157.967205 
L 499.959184 152.654412 
L 502.236735 152.966503 
L 504.514286 157.611959 
L 506.791837 171.770411 
L 509.069388 179.600155 
L 511.346939 177.873482 
L 513.62449 186.134265 
L 515.902041 205.126215 
L 518.179592 214.331903 
L 520.457143 219.4455 
L 522.734694 229.883392 
L 525.012245 234.710387 
L 527.289796 243.186651 
L 529.567347 243.174462 
L 531.844898 238.234005 
L 534.122449 244.160754 
L 536.4 242.665072 
L 538.677551 231.00635 
L 540.955102 230.99659 
L 543.232653 227.647109 
L 545.510204 222.092734 
L 547.787755 223.363638 
L 550.065306 219.651017 
L 552.342857 220.147706 
L 554.620408 206.244652 
L 556.897959 211.491903 
L 559.17551 206.939888 
L 561.453061 206.039881 
L 563.730612 194.436454 
L 566.008163 195.379019 
L 568.285714 198.895352 
L 570.563265 174.684792 
L 572.840816 167.99703 
L 575.118367 167.488619 
L 577.395918 152.780324 
L 579.673469 155.141469 
L 581.95102 121.918621 
L 584.228571 141.153961 
L 586.506122 131.546073 
L 588.783673 149.001359 
L 591.061224 144.154526 
L 593.338776 164.938733 
L 595.616327 164.234339 
L 597.893878 175.838068 
L 600.171429 181.641925 
L 602.44898 184.259584 
L 604.726531 199.463685 
L 607.004082 197.667322 
L 609.281633 203.530788 
L 611.559184 198.737705 
L 613.836735 190.436063 
L 616.114286 189.774185 
L 618.391837 187.395499 
L 620.669388 177.522134 
L 625.22449 155.768377 
L 627.502041 148.10486 
L 629.779592 145.688355 
L 632.057143 140.216389 
L 634.334694 136.692171 
L 636.612245 137.815569 
L 638.889796 133.038124 
L 641.167347 116.744645 
L 643.444898 126.986751 
L 645.722449 133.615007 
L 648 141.525836 
L 648 141.525836 
" style="fill:none;stroke:#0000ff;stroke-linecap:square;stroke-opacity:0.05;stroke-width:1.5;"/>
   </g>
   <g id="line2d_19">
    <path clip-path="url(#p6a77739eb0)" d="M 90 144.436483 
L 92.277551 155.315346 
L 94.555102 155.816216 
L 96.832653 150.243338 
L 99.110204 155.118244 
L 101.387755 180.335796 
L 103.665306 181.468918 
L 105.942857 197.273098 
L 108.220408 207.84935 
L 110.497959 202.207102 
L 112.77551 209.460204 
L 115.053061 214.180351 
L 117.330612 209.382754 
L 119.608163 204.086282 
L 121.885714 195.704335 
L 124.163265 202.783579 
L 126.440816 187.968668 
L 128.718367 194.654889 
L 130.995918 184.893036 
L 133.273469 201.151792 
L 135.55102 198.630348 
L 137.828571 207.723415 
L 140.106122 196.93015 
L 142.383673 209.983677 
L 144.661224 216.93083 
L 146.938776 215.879793 
L 149.216327 219.410697 
L 151.493878 194.721776 
L 153.771429 201.428464 
L 156.04898 174.310399 
L 158.326531 193.168607 
L 160.604082 168.986049 
L 162.881633 159.069012 
L 165.159184 150.805226 
L 167.436735 131.598823 
L 169.714286 132.018881 
L 171.991837 141.243242 
L 174.269388 158.579327 
L 176.546939 151.292626 
L 178.82449 169.13262 
L 181.102041 168.908263 
L 183.379592 184.459157 
L 185.657143 187.966598 
L 187.934694 176.534582 
L 190.212245 181.200819 
L 192.489796 169.388449 
L 194.767347 167.988896 
L 197.044898 157.707136 
L 199.322449 161.631199 
L 201.6 152.740096 
L 203.877551 159.751346 
L 206.155102 151.528354 
L 208.432653 173.790996 
L 210.710204 193.394164 
L 212.987755 201.594861 
L 215.265306 196.456109 
L 217.542857 192.963966 
L 219.820408 204.760056 
L 222.097959 167.756923 
L 224.37551 157.495574 
L 226.653061 131.186207 
L 228.930612 140.926605 
L 231.208163 117.795993 
L 233.485714 131.335584 
L 235.763265 137.269341 
L 238.040816 128.454411 
L 240.318367 134.773084 
L 242.595918 140.548358 
L 244.873469 160.123266 
L 247.15102 177.489977 
L 249.428571 191.416197 
L 251.706122 174.97533 
L 253.983673 163.451167 
L 256.261224 139.007616 
L 258.538776 137.196934 
L 260.816327 129.271725 
L 263.093878 123.347253 
L 265.371429 118.913043 
L 267.64898 106.430856 
L 269.926531 96.985393 
L 272.204082 110.633877 
L 274.481633 118.225476 
L 276.759184 144.467159 
L 279.036735 164.365508 
L 281.314286 173.528996 
L 283.591837 184.604519 
L 285.869388 191.21373 
L 288.146939 194.003596 
L 290.42449 198.690135 
L 292.702041 201.935256 
L 294.979592 195.859221 
L 297.257143 186.892265 
L 299.534694 182.461433 
L 301.812245 188.014901 
L 304.089796 184.937883 
L 306.367347 184.363662 
L 308.644898 177.524586 
L 310.922449 189.404575 
L 313.2 190.799842 
L 315.477551 195.686887 
L 317.755102 195.919583 
L 320.032653 203.260308 
L 322.310204 191.940213 
L 324.587755 181.965126 
L 326.865306 182.93861 
L 329.142857 191.701049 
L 331.420408 184.336596 
L 333.697959 188.881767 
L 338.253061 183.67148 
L 340.530612 191.68785 
L 342.808163 186.204954 
L 345.085714 190.266832 
L 347.363265 192.578409 
L 349.640816 185.234874 
L 351.918367 189.194298 
L 354.195918 190.755748 
L 356.473469 186.110673 
L 358.75102 174.055453 
L 361.028571 179.727773 
L 363.306122 170.646565 
L 365.583673 175.0366 
L 367.861224 159.913699 
L 370.138776 165.759645 
L 372.416327 176.146012 
L 374.693878 165.201753 
L 376.971429 176.28643 
L 379.24898 182.430473 
L 381.526531 185.54026 
L 383.804082 191.267417 
L 386.081633 195.546408 
L 388.359184 195.984333 
L 390.636735 190.041732 
L 392.914286 189.273199 
L 395.191837 190.157416 
L 397.469388 186.621257 
L 399.746939 196.921366 
L 402.02449 180.432657 
L 404.302041 177.484283 
L 406.579592 176.505608 
L 408.857143 187.778354 
L 411.134694 187.211912 
L 413.412245 190.731624 
L 415.689796 180.052276 
L 417.967347 196.506118 
L 420.244898 200.207605 
L 422.522449 201.481685 
L 424.8 206.81528 
L 427.077551 199.633292 
L 429.355102 206.310143 
L 431.632653 215.951159 
L 433.910204 223.83804 
L 436.187755 200.851995 
L 438.465306 218.067246 
L 440.742857 216.809416 
L 443.020408 224.578941 
L 445.297959 229.889136 
L 447.57551 226.794831 
L 449.853061 222.583383 
L 452.130612 220.238596 
L 454.408163 202.888056 
L 456.685714 215.704452 
L 458.963265 218.991523 
L 461.240816 212.09769 
L 463.518367 211.792033 
L 465.795918 206.883806 
L 468.073469 194.174103 
L 470.35102 203.018197 
L 472.628571 185.069257 
L 474.906122 181.417148 
L 477.183673 187.457677 
L 479.461224 190.444431 
L 481.738776 201.427315 
L 484.016327 208.039661 
L 486.293878 216.350893 
L 488.571429 221.055539 
L 490.84898 234.802191 
L 493.126531 244.940249 
L 495.404082 244.985059 
L 497.681633 248.843371 
L 499.959184 248.512149 
L 502.236735 229.242466 
L 504.514286 214.194687 
L 506.791837 192.300165 
L 509.069388 176.349102 
L 515.902041 160.166537 
L 518.179592 149.916464 
L 520.457143 148.892395 
L 522.734694 152.44713 
L 525.012245 164.490424 
L 527.289796 172.633959 
L 529.567347 181.898549 
L 531.844898 195.007479 
L 534.122449 203.86041 
L 536.4 204.308732 
L 538.677551 197.613298 
L 540.955102 181.803935 
L 543.232653 173.503535 
L 545.510204 154.137916 
L 547.787755 151.924036 
L 550.065306 145.978011 
L 552.342857 143.654751 
L 554.620408 129.974765 
L 556.897959 130.678698 
L 559.17551 144.264601 
L 561.453061 148.004752 
L 563.730612 144.719427 
L 566.008163 139.477049 
L 568.285714 142.536398 
L 570.563265 143.75862 
L 572.840816 157.304565 
L 575.118367 154.699424 
L 577.395918 144.928842 
L 579.673469 142.054785 
L 581.95102 140.09241 
L 584.228571 140.982817 
L 586.506122 144.7128 
L 588.783673 163.574356 
L 591.061224 176.553203 
L 593.338776 171.669465 
L 595.616327 163.810735 
L 597.893878 163.589548 
L 600.171429 167.905975 
L 602.44898 160.920396 
L 604.726531 158.397359 
L 607.004082 151.259956 
L 609.281633 141.801707 
L 611.559184 137.845723 
L 613.836735 122.066373 
L 616.114286 118.069543 
L 618.391837 118.69897 
L 620.669388 113.587162 
L 622.946939 90.294774 
L 625.22449 151.262288 
L 627.502041 143.102683 
L 629.779592 156.348251 
L 632.057143 171.536933 
L 634.334694 174.621977 
L 636.612245 186.981774 
L 638.889796 194.521899 
L 641.167347 186.728317 
L 643.444898 169.854679 
L 645.722449 171.932095 
L 648 161.294766 
L 648 161.294766 
" style="fill:none;stroke:#0000ff;stroke-linecap:square;stroke-opacity:0.05;stroke-width:1.5;"/>
   </g>
   <g id="line2d_20">
    <path clip-path="url(#p6a77739eb0)" d="M 90 192.424864 
L 92.277551 194.890688 
L 94.555102 186.300434 
L 96.832653 172.576789 
L 99.110204 163.671796 
L 101.387755 165.311592 
L 103.665306 131.302462 
L 105.942857 175.768016 
L 108.220408 157.255519 
L 110.497959 156.404926 
L 112.77551 172.69288 
L 115.053061 163.35387 
L 117.330612 181.204116 
L 119.608163 192.297071 
L 121.885714 193.240018 
L 124.163265 179.411432 
L 126.440816 189.919575 
L 128.718367 186.136611 
L 130.995918 178.56444 
L 133.273469 181.270682 
L 135.55102 180.406646 
L 137.828571 193.741028 
L 140.106122 180.409897 
L 142.383673 178.707931 
L 144.661224 180.445161 
L 146.938776 161.317607 
L 149.216327 159.267002 
L 151.493878 155.644176 
L 153.771429 144.7328 
L 156.04898 144.935612 
L 158.326531 131.435909 
L 160.604082 134.342571 
L 162.881633 132.182133 
L 165.159184 144.560407 
L 167.436735 161.842218 
L 169.714286 182.028542 
L 171.991837 194.956171 
L 174.269388 215.637286 
L 176.546939 223.404661 
L 178.82449 227.597142 
L 181.102041 240.239505 
L 183.379592 244.986499 
L 185.657143 252.937773 
L 187.934694 252.545289 
L 190.212245 256.32 
L 192.489796 248.164216 
L 194.767347 247.631462 
L 197.044898 241.273718 
L 201.6 204.064645 
L 203.877551 177.084474 
L 206.155102 155.316676 
L 208.432653 128.959107 
L 210.710204 120.998781 
L 212.987755 96.682061 
L 215.265306 73.889735 
L 217.542857 54.885076 
L 219.820408 59.075433 
L 222.097959 50.904751 
L 224.37551 70.301793 
L 226.653061 83.048725 
L 228.930612 80.260061 
L 231.208163 85.674354 
L 233.485714 103.457655 
L 238.040816 109.681831 
L 240.318367 128.348626 
L 242.595918 143.817314 
L 244.873469 155.845731 
L 247.15102 161.031108 
L 249.428571 161.013207 
L 251.706122 162.201532 
L 253.983673 175.785789 
L 256.261224 165.480771 
L 258.538776 153.145294 
L 260.816327 152.663167 
L 263.093878 150.092188 
L 265.371429 138.152257 
L 267.64898 139.031701 
L 269.926531 156.406554 
L 272.204082 157.024139 
L 274.481633 157.495917 
L 276.759184 157.23376 
L 279.036735 161.565942 
L 281.314286 163.511836 
L 283.591837 154.024138 
L 285.869388 143.491048 
L 288.146939 147.211203 
L 290.42449 144.369315 
L 292.702041 128.670204 
L 294.979592 118.238883 
L 297.257143 115.479093 
L 299.534694 128.857697 
L 301.812245 134.754971 
L 304.089796 137.414744 
L 306.367347 150.700958 
L 308.644898 167.143742 
L 310.922449 165.02641 
L 313.2 171.87534 
L 315.477551 181.0992 
L 317.755102 182.268168 
L 320.032653 176.179159 
L 322.310204 193.98759 
L 324.587755 185.094441 
L 326.865306 184.028411 
L 329.142857 193.870979 
L 331.420408 185.760941 
L 333.697959 182.962656 
L 335.97551 198.546542 
L 338.253061 194.66165 
L 340.530612 192.253144 
L 342.808163 181.718336 
L 345.085714 186.957248 
L 347.363265 185.10589 
L 349.640816 186.358917 
L 351.918367 190.265161 
L 354.195918 203.46809 
L 356.473469 206.836909 
L 358.75102 208.991965 
L 361.028571 203.147061 
L 363.306122 185.841753 
L 365.583673 196.269975 
L 367.861224 184.607392 
L 370.138776 179.066708 
L 372.416327 180.7923 
L 374.693878 170.780711 
L 376.971429 164.186505 
L 379.24898 167.19483 
L 381.526531 171.25796 
L 383.804082 174.14023 
L 386.081633 179.945416 
L 388.359184 179.211448 
L 390.636735 190.170675 
L 392.914286 195.049403 
L 395.191837 182.434452 
L 397.469388 194.979374 
L 399.746939 203.628514 
L 402.02449 191.517469 
L 404.302041 205.2742 
L 406.579592 210.791121 
L 408.857143 192.052599 
L 411.134694 193.884174 
L 413.412245 196.636017 
L 415.689796 195.063763 
L 417.967347 187.733502 
L 420.244898 201.423901 
L 422.522449 197.874625 
L 424.8 202.373577 
L 427.077551 204.277893 
L 429.355102 201.560833 
L 431.632653 202.252113 
L 433.910204 214.604763 
L 436.187755 208.847917 
L 438.465306 210.903576 
L 440.742857 209.487826 
L 443.020408 209.99886 
L 445.297959 222.143749 
L 447.57551 217.219284 
L 449.853061 216.149313 
L 452.130612 206.448792 
L 454.408163 220.614188 
L 456.685714 207.275833 
L 458.963265 209.882444 
L 461.240816 209.496559 
L 463.518367 203.658259 
L 465.795918 222.046509 
L 468.073469 201.36663 
L 470.35102 203.685152 
L 472.628571 199.746977 
L 474.906122 199.680883 
L 477.183673 206.061299 
L 479.461224 200.007369 
L 481.738776 203.569876 
L 484.016327 196.535002 
L 486.293878 189.066198 
L 488.571429 185.50146 
L 490.84898 203.705905 
L 493.126531 181.174781 
L 495.404082 199.464615 
L 497.681633 193.577601 
L 499.959184 186.598461 
L 502.236735 191.887831 
L 504.514286 195.795565 
L 506.791837 204.386754 
L 509.069388 194.841338 
L 511.346939 202.35926 
L 513.62449 202.335428 
L 515.902041 191.457805 
L 518.179592 192.117366 
L 520.457143 196.828058 
L 522.734694 194.702095 
L 525.012245 184.188964 
L 527.289796 197.193185 
L 529.567347 198.168965 
L 531.844898 200.266865 
L 534.122449 197.130112 
L 536.4 191.970538 
L 538.677551 196.015125 
L 540.955102 190.185677 
L 543.232653 181.476772 
L 545.510204 182.053992 
L 547.787755 180.698576 
L 550.065306 167.642663 
L 552.342857 169.373596 
L 554.620408 176.624294 
L 556.897959 177.42871 
L 559.17551 168.994689 
L 561.453061 175.34828 
L 563.730612 189.011712 
L 566.008163 179.023482 
L 568.285714 193.743354 
L 570.563265 189.064653 
L 572.840816 194.047495 
L 575.118367 184.303692 
L 577.395918 191.034555 
L 579.673469 186.287677 
L 581.95102 178.028768 
L 584.228571 176.895133 
L 586.506122 177.233795 
L 588.783673 176.563996 
L 591.061224 163.066067 
L 593.338776 170.220612 
L 595.616327 169.778265 
L 597.893878 184.163551 
L 600.171429 187.450859 
L 602.44898 182.923484 
L 604.726531 194.908069 
L 607.004082 201.241946 
L 609.281633 196.582839 
L 611.559184 205.629468 
L 613.836735 205.467366 
L 616.114286 197.496642 
L 618.391837 196.87641 
L 620.669388 191.401753 
L 622.946939 191.313745 
L 625.22449 185.920008 
L 627.502041 186.091215 
L 629.779592 183.865509 
L 632.057143 176.785125 
L 634.334694 175.816101 
L 636.612245 173.207073 
L 638.889796 171.9485 
L 641.167347 166.503034 
L 643.444898 160.270331 
L 645.722449 160.633471 
L 648 165.993305 
L 648 165.993305 
" style="fill:none;stroke:#0000ff;stroke-linecap:square;stroke-opacity:0.05;stroke-width:1.5;"/>
   </g>
   <g id="line2d_21">
    <path clip-path="url(#p6a77739eb0)" d="M 90 177.052644 
L 92.277551 180.936086 
L 94.555102 185.151194 
L 96.832653 183.665735 
L 99.110204 182.696701 
L 101.387755 185.269661 
L 103.665306 180.154268 
L 105.942857 185.126816 
L 108.220408 182.555452 
L 110.497959 178.499538 
L 112.77551 184.934386 
L 115.053061 180.692937 
L 117.330612 184.173979 
L 119.608163 181.129331 
L 121.885714 184.177302 
L 124.163265 184.868848 
L 126.440816 189.448248 
L 128.718367 186.297374 
L 130.995918 186.84006 
L 133.273469 192.649892 
L 135.55102 192.685907 
L 137.828571 196.085617 
L 140.106122 192.869737 
L 142.383673 192.637223 
L 144.661224 193.113078 
L 146.938776 187.969528 
L 149.216327 184.15568 
L 151.493878 178.966593 
L 153.771429 174.537616 
L 156.04898 174.445914 
L 158.326531 172.149097 
L 160.604082 171.457258 
L 162.881633 166.505835 
L 165.159184 169.911112 
L 167.436735 169.61559 
L 169.714286 174.871769 
L 171.991837 177.051409 
L 174.269388 182.511245 
L 176.546939 182.791375 
L 178.82449 184.995197 
L 181.102041 190.356142 
L 183.379592 190.285733 
L 185.657143 190.794539 
L 187.934694 190.362401 
L 190.212245 188.589074 
L 192.489796 188.301693 
L 194.767347 189.787339 
L 197.044898 189.660703 
L 199.322449 185.137812 
L 201.6 183.266785 
L 203.877551 181.896048 
L 206.155102 180.108841 
L 208.432653 183.922119 
L 210.710204 185.383541 
L 212.987755 184.658041 
L 215.265306 181.998656 
L 217.542857 178.50402 
L 219.820408 182.717583 
L 222.097959 175.035716 
L 224.37551 175.787897 
L 226.653061 175.495075 
L 228.930612 173.209831 
L 231.208163 168.936887 
L 233.485714 173.869079 
L 235.763265 167.771743 
L 238.040816 171.863316 
L 240.318367 171.686326 
L 242.595918 172.21119 
L 244.873469 175.495458 
L 247.15102 179.27236 
L 249.428571 180.180598 
L 251.706122 178.184161 
L 253.983673 177.865074 
L 256.261224 170.633569 
L 258.538776 172.650563 
L 260.816327 171.144296 
L 263.093878 168.679949 
L 265.371429 172.759626 
L 267.64898 169.390735 
L 269.926531 168.883753 
L 272.204082 170.156677 
L 274.481633 173.268841 
L 276.759184 175.154096 
L 279.036735 177.338502 
L 281.314286 178.092937 
L 283.591837 178.623818 
L 285.869388 179.605157 
L 288.146939 177.499171 
L 290.42449 180.839936 
L 292.702041 180.376676 
L 294.979592 179.203475 
L 297.257143 179.487248 
L 299.534694 181.718262 
L 301.812245 183.665778 
L 304.089796 183.263537 
L 306.367347 184.141013 
L 310.922449 179.559219 
L 313.2 185.033782 
L 315.477551 178.115841 
L 317.755102 184.667473 
L 320.032653 179.451094 
L 322.310204 184.599718 
L 326.865306 182.399531 
L 329.142857 185.188711 
L 331.420408 183.138933 
L 333.697959 187.155395 
L 335.97551 191.574738 
L 338.253061 195.166637 
L 340.530612 192.683237 
L 342.808163 191.225578 
L 345.085714 192.747182 
L 347.363265 191.282033 
L 349.640816 188.25825 
L 351.918367 187.942821 
L 354.195918 190.172905 
L 356.473469 184.967104 
L 358.75102 180.795099 
L 361.028571 173.879559 
L 365.583673 176.097433 
L 367.861224 170.564979 
L 370.138776 175.707888 
L 372.416327 176.875313 
L 374.693878 168.135975 
L 376.971429 172.496709 
L 379.24898 178.342355 
L 381.526531 177.636258 
L 383.804082 175.913418 
L 386.081633 180.122761 
L 388.359184 175.600114 
L 390.636735 174.859102 
L 395.191837 168.30139 
L 397.469388 174.55394 
L 399.746939 175.219024 
L 402.02449 171.558315 
L 404.302041 175.956394 
L 406.579592 179.736898 
L 408.857143 181.654825 
L 411.134694 183.749086 
L 415.689796 185.080249 
L 417.967347 185.063352 
L 420.244898 187.069249 
L 422.522449 186.672165 
L 424.8 188.419215 
L 427.077551 186.927376 
L 429.355102 186.433244 
L 431.632653 186.907082 
L 433.910204 188.5489 
L 436.187755 181.863031 
L 438.465306 182.912667 
L 440.742857 181.214303 
L 443.020408 178.356202 
L 447.57551 179.833353 
L 449.853061 179.68443 
L 452.130612 177.483993 
L 454.408163 174.52106 
L 456.685714 174.603693 
L 458.963265 177.628667 
L 461.240816 178.431884 
L 463.518367 178.499483 
L 465.795918 180.961571 
L 468.073469 178.649813 
L 470.35102 179.59 
L 472.628571 178.427917 
L 474.906122 181.065238 
L 477.183673 184.775259 
L 479.461224 186.487199 
L 481.738776 186.835422 
L 484.016327 187.30785 
L 486.293878 185.582505 
L 488.571429 184.889637 
L 490.84898 190.058191 
L 493.126531 190.042648 
L 495.404082 191.569314 
L 497.681633 193.668879 
L 499.959184 189.33385 
L 502.236735 188.850152 
L 504.514286 183.873126 
L 506.791837 183.489909 
L 509.069388 179.176098 
L 511.346939 177.536345 
L 513.62449 175.539805 
L 515.902041 172.833641 
L 518.179592 171.39266 
L 520.457143 171.503744 
L 522.734694 170.903022 
L 525.012245 173.445719 
L 527.289796 178.456355 
L 529.567347 176.748064 
L 531.844898 185.608306 
L 534.122449 186.099933 
L 536.4 188.64432 
L 538.677551 185.594659 
L 540.955102 185.474633 
L 543.232653 182.999853 
L 545.510204 187.867876 
L 547.787755 184.527879 
L 550.065306 184.132299 
L 552.342857 187.183309 
L 554.620408 183.750072 
L 556.897959 185.742859 
L 559.17551 181.528747 
L 561.453061 188.764164 
L 563.730612 188.071347 
L 566.008163 183.711376 
L 568.285714 186.226942 
L 570.563265 181.205153 
L 572.840816 179.590714 
L 575.118367 177.312683 
L 577.395918 175.592269 
L 579.673469 174.529364 
L 581.95102 166.841795 
L 584.228571 166.91662 
L 586.506122 164.271804 
L 588.783673 164.67376 
L 591.061224 162.751812 
L 593.338776 167.527372 
L 595.616327 164.815471 
L 597.893878 166.049843 
L 602.44898 173.387705 
L 604.726531 175.194274 
L 607.004082 179.037133 
L 609.281633 179.917219 
L 611.559184 182.015103 
L 613.836735 183.417 
L 616.114286 182.713199 
L 618.391837 185.405348 
L 620.669388 179.616379 
L 622.946939 176.816468 
L 625.22449 180.52739 
L 627.502041 177.381878 
L 629.779592 178.971812 
L 632.057143 176.264306 
L 634.334694 176.82731 
L 636.612245 175.831167 
L 638.889796 176.540409 
L 641.167347 172.652794 
L 643.444898 174.149925 
L 645.722449 176.324249 
L 648 176.894326 
L 648 176.894326 
" style="fill:none;stroke:#0000ff;stroke-linecap:square;stroke-width:1.5;"/>
   </g>
   <g id="patch_3">
    <path d="M 90 256.32 
L 90 34.56 
" style="fill:none;stroke:#000000;stroke-linecap:square;stroke-linejoin:miter;stroke-width:0.8;"/>
   </g>
   <g id="patch_4">
    <path d="M 648 256.32 
L 648 34.56 
" style="fill:none;stroke:#000000;stroke-linecap:square;stroke-linejoin:miter;stroke-width:0.8;"/>
   </g>
   <g id="patch_5">
    <path d="M 90 256.32 
L 648 256.32 
" style="fill:none;stroke:#000000;stroke-linecap:square;stroke-linejoin:miter;stroke-width:0.8;"/>
   </g>
   <g id="patch_6">
    <path d="M 90 34.56 
L 648 34.56 
" style="fill:none;stroke:#000000;stroke-linecap:square;stroke-linejoin:miter;stroke-width:0.8;"/>
   </g>
   <g id="text_12">
    <!-- Motor cortex, Num Trials=10 All unstimulated trials -->
    <defs>
     <path d="M 9.8125 72.90625 
L 24.515625 72.90625 
L 43.109375 23.296875 
L 61.8125 72.90625 
L 76.515625 72.90625 
L 76.515625 0 
L 66.890625 0 
L 66.890625 64.015625 
L 48.09375 14.015625 
L 38.1875 14.015625 
L 19.390625 64.015625 
L 19.390625 0 
L 9.8125 0 
z
" id="DejaVuSans-77"/>
     <path d="M 30.609375 48.390625 
Q 23.390625 48.390625 19.1875 42.75 
Q 14.984375 37.109375 14.984375 27.296875 
Q 14.984375 17.484375 19.15625 11.84375 
Q 23.34375 6.203125 30.609375 6.203125 
Q 37.796875 6.203125 41.984375 11.859375 
Q 46.1875 17.53125 46.1875 27.296875 
Q 46.1875 37.015625 41.984375 42.703125 
Q 37.796875 48.390625 30.609375 48.390625 
z
M 30.609375 56 
Q 42.328125 56 49.015625 48.375 
Q 55.71875 40.765625 55.71875 27.296875 
Q 55.71875 13.875 49.015625 6.21875 
Q 42.328125 -1.421875 30.609375 -1.421875 
Q 18.84375 -1.421875 12.171875 6.21875 
Q 5.515625 13.875 5.515625 27.296875 
Q 5.515625 40.765625 12.171875 48.375 
Q 18.84375 56 30.609375 56 
z
" id="DejaVuSans-111"/>
     <path d="M 18.3125 70.21875 
L 18.3125 54.6875 
L 36.8125 54.6875 
L 36.8125 47.703125 
L 18.3125 47.703125 
L 18.3125 18.015625 
Q 18.3125 11.328125 20.140625 9.421875 
Q 21.96875 7.515625 27.59375 7.515625 
L 36.8125 7.515625 
L 36.8125 0 
L 27.59375 0 
Q 17.1875 0 13.234375 3.875 
Q 9.28125 7.765625 9.28125 18.015625 
L 9.28125 47.703125 
L 2.6875 47.703125 
L 2.6875 54.6875 
L 9.28125 54.6875 
L 9.28125 70.21875 
z
" id="DejaVuSans-116"/>
     <path d="M 41.109375 46.296875 
Q 39.59375 47.171875 37.8125 47.578125 
Q 36.03125 48 33.890625 48 
Q 26.265625 48 22.1875 43.046875 
Q 18.109375 38.09375 18.109375 28.8125 
L 18.109375 0 
L 9.078125 0 
L 9.078125 54.6875 
L 18.109375 54.6875 
L 18.109375 46.1875 
Q 20.953125 51.171875 25.484375 53.578125 
Q 30.03125 56 36.53125 56 
Q 37.453125 56 38.578125 55.875 
Q 39.703125 55.765625 41.0625 55.515625 
z
" id="DejaVuSans-114"/>
     <path d="M 48.78125 52.59375 
L 48.78125 44.1875 
Q 44.96875 46.296875 41.140625 47.34375 
Q 37.3125 48.390625 33.40625 48.390625 
Q 24.65625 48.390625 19.8125 42.84375 
Q 14.984375 37.3125 14.984375 27.296875 
Q 14.984375 17.28125 19.8125 11.734375 
Q 24.65625 6.203125 33.40625 6.203125 
Q 37.3125 6.203125 41.140625 7.25 
Q 44.96875 8.296875 48.78125 10.40625 
L 48.78125 2.09375 
Q 45.015625 0.34375 40.984375 -0.53125 
Q 36.96875 -1.421875 32.421875 -1.421875 
Q 20.0625 -1.421875 12.78125 6.34375 
Q 5.515625 14.109375 5.515625 27.296875 
Q 5.515625 40.671875 12.859375 48.328125 
Q 20.21875 56 33.015625 56 
Q 37.15625 56 41.109375 55.140625 
Q 45.0625 54.296875 48.78125 52.59375 
z
" id="DejaVuSans-99"/>
     <path d="M 54.890625 54.6875 
L 35.109375 28.078125 
L 55.90625 0 
L 45.3125 0 
L 29.390625 21.484375 
L 13.484375 0 
L 2.875 0 
L 24.125 28.609375 
L 4.6875 54.6875 
L 15.28125 54.6875 
L 29.78125 35.203125 
L 44.28125 54.6875 
z
" id="DejaVuSans-120"/>
     <path d="M 11.71875 12.40625 
L 22.015625 12.40625 
L 22.015625 4 
L 14.015625 -11.625 
L 7.71875 -11.625 
L 11.71875 4 
z
" id="DejaVuSans-44"/>
     <path d="M 9.8125 72.90625 
L 23.09375 72.90625 
L 55.421875 11.921875 
L 55.421875 72.90625 
L 64.984375 72.90625 
L 64.984375 0 
L 51.703125 0 
L 19.390625 60.984375 
L 19.390625 0 
L 9.8125 0 
z
" id="DejaVuSans-78"/>
     <path d="M 8.5 21.578125 
L 8.5 54.6875 
L 17.484375 54.6875 
L 17.484375 21.921875 
Q 17.484375 14.15625 20.5 10.265625 
Q 23.53125 6.390625 29.59375 6.390625 
Q 36.859375 6.390625 41.078125 11.03125 
Q 45.3125 15.671875 45.3125 23.6875 
L 45.3125 54.6875 
L 54.296875 54.6875 
L 54.296875 0 
L 45.3125 0 
L 45.3125 8.40625 
Q 42.046875 3.421875 37.71875 1 
Q 33.40625 -1.421875 27.6875 -1.421875 
Q 18.265625 -1.421875 13.375 4.4375 
Q 8.5 10.296875 8.5 21.578125 
z
M 31.109375 56 
z
" id="DejaVuSans-117"/>
     <path d="M 34.28125 27.484375 
Q 23.390625 27.484375 19.1875 25 
Q 14.984375 22.515625 14.984375 16.5 
Q 14.984375 11.71875 18.140625 8.90625 
Q 21.296875 6.109375 26.703125 6.109375 
Q 34.1875 6.109375 38.703125 11.40625 
Q 43.21875 16.703125 43.21875 25.484375 
L 43.21875 27.484375 
z
M 52.203125 31.203125 
L 52.203125 0 
L 43.21875 0 
L 43.21875 8.296875 
Q 40.140625 3.328125 35.546875 0.953125 
Q 30.953125 -1.421875 24.3125 -1.421875 
Q 15.921875 -1.421875 10.953125 3.296875 
Q 6 8.015625 6 15.921875 
Q 6 25.140625 12.171875 29.828125 
Q 18.359375 34.515625 30.609375 34.515625 
L 43.21875 34.515625 
L 43.21875 35.40625 
Q 43.21875 41.609375 39.140625 45 
Q 35.0625 48.390625 27.6875 48.390625 
Q 23 48.390625 18.546875 47.265625 
Q 14.109375 46.140625 10.015625 43.890625 
L 10.015625 52.203125 
Q 14.9375 54.109375 19.578125 55.046875 
Q 24.21875 56 28.609375 56 
Q 40.484375 56 46.34375 49.84375 
Q 52.203125 43.703125 52.203125 31.203125 
z
" id="DejaVuSans-97"/>
     <path d="M 9.421875 75.984375 
L 18.40625 75.984375 
L 18.40625 0 
L 9.421875 0 
z
" id="DejaVuSans-108"/>
     <path d="M 10.59375 45.40625 
L 73.1875 45.40625 
L 73.1875 37.203125 
L 10.59375 37.203125 
z
M 10.59375 25.484375 
L 73.1875 25.484375 
L 73.1875 17.1875 
L 10.59375 17.1875 
z
" id="DejaVuSans-61"/>
     <path d="M 34.1875 63.1875 
L 20.796875 26.90625 
L 47.609375 26.90625 
z
M 28.609375 72.90625 
L 39.796875 72.90625 
L 67.578125 0 
L 57.328125 0 
L 50.6875 18.703125 
L 17.828125 18.703125 
L 11.1875 0 
L 0.78125 0 
z
" id="DejaVuSans-65"/>
     <path d="M 54.890625 33.015625 
L 54.890625 0 
L 45.90625 0 
L 45.90625 32.71875 
Q 45.90625 40.484375 42.875 44.328125 
Q 39.84375 48.1875 33.796875 48.1875 
Q 26.515625 48.1875 22.3125 43.546875 
Q 18.109375 38.921875 18.109375 30.90625 
L 18.109375 0 
L 9.078125 0 
L 9.078125 54.6875 
L 18.109375 54.6875 
L 18.109375 46.1875 
Q 21.34375 51.125 25.703125 53.5625 
Q 30.078125 56 35.796875 56 
Q 45.21875 56 50.046875 50.171875 
Q 54.890625 44.34375 54.890625 33.015625 
z
" id="DejaVuSans-110"/>
     <path d="M 45.40625 46.390625 
L 45.40625 75.984375 
L 54.390625 75.984375 
L 54.390625 0 
L 45.40625 0 
L 45.40625 8.203125 
Q 42.578125 3.328125 38.25 0.953125 
Q 33.9375 -1.421875 27.875 -1.421875 
Q 17.96875 -1.421875 11.734375 6.484375 
Q 5.515625 14.40625 5.515625 27.296875 
Q 5.515625 40.1875 11.734375 48.09375 
Q 17.96875 56 27.875 56 
Q 33.9375 56 38.25 53.625 
Q 42.578125 51.265625 45.40625 46.390625 
z
M 14.796875 27.296875 
Q 14.796875 17.390625 18.875 11.75 
Q 22.953125 6.109375 30.078125 6.109375 
Q 37.203125 6.109375 41.296875 11.75 
Q 45.40625 17.390625 45.40625 27.296875 
Q 45.40625 37.203125 41.296875 42.84375 
Q 37.203125 48.484375 30.078125 48.484375 
Q 22.953125 48.484375 18.875 42.84375 
Q 14.796875 37.203125 14.796875 27.296875 
z
" id="DejaVuSans-100"/>
    </defs>
    <g transform="translate(214.243125 28.56)scale(0.12 -0.12)">
     <use xlink:href="#DejaVuSans-77"/>
     <use x="86.279297" xlink:href="#DejaVuSans-111"/>
     <use x="147.460938" xlink:href="#DejaVuSans-116"/>
     <use x="186.669922" xlink:href="#DejaVuSans-111"/>
     <use x="247.851562" xlink:href="#DejaVuSans-114"/>
     <use x="288.964844" xlink:href="#DejaVuSans-32"/>
     <use x="320.751953" xlink:href="#DejaVuSans-99"/>
     <use x="375.732422" xlink:href="#DejaVuSans-111"/>
     <use x="436.914062" xlink:href="#DejaVuSans-114"/>
     <use x="478.027344" xlink:href="#DejaVuSans-116"/>
     <use x="517.236328" xlink:href="#DejaVuSans-101"/>
     <use x="578.744141" xlink:href="#DejaVuSans-120"/>
     <use x="637.923828" xlink:href="#DejaVuSans-44"/>
     <use x="669.710938" xlink:href="#DejaVuSans-32"/>
     <use x="701.498047" xlink:href="#DejaVuSans-78"/>
     <use x="776.302734" xlink:href="#DejaVuSans-117"/>
     <use x="839.681641" xlink:href="#DejaVuSans-109"/>
     <use x="937.09375" xlink:href="#DejaVuSans-32"/>
     <use x="968.880859" xlink:href="#DejaVuSans-84"/>
     <use x="1029.746094" xlink:href="#DejaVuSans-114"/>
     <use x="1070.859375" xlink:href="#DejaVuSans-105"/>
     <use x="1098.642578" xlink:href="#DejaVuSans-97"/>
     <use x="1159.921875" xlink:href="#DejaVuSans-108"/>
     <use x="1187.705078" xlink:href="#DejaVuSans-115"/>
     <use x="1239.804688" xlink:href="#DejaVuSans-61"/>
     <use x="1323.59375" xlink:href="#DejaVuSans-49"/>
     <use x="1387.216797" xlink:href="#DejaVuSans-48"/>
     <use x="1450.839844" xlink:href="#DejaVuSans-32"/>
     <use x="1482.626953" xlink:href="#DejaVuSans-65"/>
     <use x="1551.035156" xlink:href="#DejaVuSans-108"/>
     <use x="1578.818359" xlink:href="#DejaVuSans-108"/>
     <use x="1606.601562" xlink:href="#DejaVuSans-32"/>
     <use x="1638.388672" xlink:href="#DejaVuSans-117"/>
     <use x="1701.767578" xlink:href="#DejaVuSans-110"/>
     <use x="1765.146484" xlink:href="#DejaVuSans-115"/>
     <use x="1817.246094" xlink:href="#DejaVuSans-116"/>
     <use x="1856.455078" xlink:href="#DejaVuSans-105"/>
     <use x="1884.238281" xlink:href="#DejaVuSans-109"/>
     <use x="1981.650391" xlink:href="#DejaVuSans-117"/>
     <use x="2045.029297" xlink:href="#DejaVuSans-108"/>
     <use x="2072.8125" xlink:href="#DejaVuSans-97"/>
     <use x="2134.091797" xlink:href="#DejaVuSans-116"/>
     <use x="2173.300781" xlink:href="#DejaVuSans-101"/>
     <use x="2234.824219" xlink:href="#DejaVuSans-100"/>
     <use x="2298.300781" xlink:href="#DejaVuSans-32"/>
     <use x="2330.087891" xlink:href="#DejaVuSans-116"/>
     <use x="2369.296875" xlink:href="#DejaVuSans-114"/>
     <use x="2410.410156" xlink:href="#DejaVuSans-105"/>
     <use x="2438.193359" xlink:href="#DejaVuSans-97"/>
     <use x="2499.472656" xlink:href="#DejaVuSans-108"/>
     <use x="2527.255859" xlink:href="#DejaVuSans-115"/>
    </g>
   </g>
   <g id="legend_1">
    <g id="patch_7">
     <path d="M 302.16 61.77375 
L 435.84 61.77375 
Q 438.24 61.77375 438.24 59.37375 
L 438.24 42.96 
Q 438.24 40.56 435.84 40.56 
L 302.16 40.56 
Q 299.76 40.56 299.76 42.96 
L 299.76 59.37375 
Q 299.76 61.77375 302.16 61.77375 
z
" style="fill:#ffffff;opacity:0.8;stroke:#cccccc;stroke-linejoin:miter;"/>
    </g>
    <g id="line2d_22">
     <path d="M 304.56 50.278125 
L 328.56 50.278125 
" style="fill:none;stroke:#0000ff;stroke-linecap:square;stroke-width:1.5;"/>
    </g>
    <g id="line2d_23"/>
    <g id="text_13">
     <!-- Beta-Binomial $\pi$ -->
     <defs>
      <path d="M 19.671875 34.8125 
L 19.671875 8.109375 
L 35.5 8.109375 
Q 43.453125 8.109375 47.28125 11.40625 
Q 51.125 14.703125 51.125 21.484375 
Q 51.125 28.328125 47.28125 31.5625 
Q 43.453125 34.8125 35.5 34.8125 
z
M 19.671875 64.796875 
L 19.671875 42.828125 
L 34.28125 42.828125 
Q 41.5 42.828125 45.03125 45.53125 
Q 48.578125 48.25 48.578125 53.8125 
Q 48.578125 59.328125 45.03125 62.0625 
Q 41.5 64.796875 34.28125 64.796875 
z
M 9.8125 72.90625 
L 35.015625 72.90625 
Q 46.296875 72.90625 52.390625 68.21875 
Q 58.5 63.53125 58.5 54.890625 
Q 58.5 48.1875 55.375 44.234375 
Q 52.25 40.28125 46.1875 39.3125 
Q 53.46875 37.75 57.5 32.78125 
Q 61.53125 27.828125 61.53125 20.40625 
Q 61.53125 10.640625 54.890625 5.3125 
Q 48.25 0 35.984375 0 
L 9.8125 0 
z
" id="DejaVuSans-66"/>
      <path d="M 4.890625 31.390625 
L 31.203125 31.390625 
L 31.203125 23.390625 
L 4.890625 23.390625 
z
" id="DejaVuSans-45"/>
      <path d="M 9.125 54.6875 
L 61.53125 54.6875 
L 59.765625 45.703125 
L 52.875 45.703125 
L 46.34375 12.109375 
Q 45.65625 8.59375 46.578125 7.03125 
Q 47.46875 5.515625 50.140625 5.515625 
Q 50.875 5.515625 51.953125 5.671875 
Q 53.078125 5.765625 53.421875 5.8125 
L 52.15625 -0.6875 
Q 50.34375 -1.3125 48.484375 -1.609375 
Q 46.578125 -1.90625 44.78125 -1.90625 
Q 38.921875 -1.90625 37.3125 1.265625 
Q 35.6875 4.5 37.359375 13.09375 
L 43.703125 45.703125 
L 23.53125 45.703125 
L 14.65625 0 
L 5.46875 0 
L 14.359375 45.703125 
L 7.375 45.703125 
z
" id="DejaVuSans-Oblique-960"/>
     </defs>
     <g transform="translate(338.16 54.478125)scale(0.12 -0.12)">
      <use transform="translate(0 0.015625)" xlink:href="#DejaVuSans-66"/>
      <use transform="translate(68.603516 0.015625)" xlink:href="#DejaVuSans-101"/>
      <use transform="translate(130.126953 0.015625)" xlink:href="#DejaVuSans-116"/>
      <use transform="translate(169.335938 0.015625)" xlink:href="#DejaVuSans-97"/>
      <use transform="translate(230.615234 0.015625)" xlink:href="#DejaVuSans-45"/>
      <use transform="translate(266.699219 0.015625)" xlink:href="#DejaVuSans-66"/>
      <use transform="translate(335.302734 0.015625)" xlink:href="#DejaVuSans-105"/>
      <use transform="translate(363.085938 0.015625)" xlink:href="#DejaVuSans-110"/>
      <use transform="translate(426.464844 0.015625)" xlink:href="#DejaVuSans-111"/>
      <use transform="translate(487.646484 0.015625)" xlink:href="#DejaVuSans-109"/>
      <use transform="translate(585.058594 0.015625)" xlink:href="#DejaVuSans-105"/>
      <use transform="translate(612.841797 0.015625)" xlink:href="#DejaVuSans-97"/>
      <use transform="translate(674.121094 0.015625)" xlink:href="#DejaVuSans-108"/>
      <use transform="translate(701.904297 0.015625)" xlink:href="#DejaVuSans-32"/>
      <use transform="translate(733.691406 0.015625)" xlink:href="#DejaVuSans-Oblique-960"/>
     </g>
    </g>
   </g>
  </g>
 </g>
 <defs>
  <clipPath id="p6a77739eb0">
   <rect height="221.76" width="558" x="90" y="34.56"/>
  </clipPath>
 </defs>
</svg>
