<?xml version="1.0" encoding="utf-8" standalone="no"?>
<!DOCTYPE svg PUBLIC "-//W3C//DTD SVG 1.1//EN"
  "http://www.w3.org/Graphics/SVG/1.1/DTD/svg11.dtd">
<!-- Created with matplotlib (https://matplotlib.org/) -->
<svg height="223.2pt" version="1.1" viewBox="0 0 576 223.2" width="576pt" xmlns="http://www.w3.org/2000/svg" xmlns:xlink="http://www.w3.org/1999/xlink">
 <defs>
  <style type="text/css">
*{stroke-linecap:butt;stroke-linejoin:round;}
  </style>
 </defs>
 <g id="figure_1">
  <g id="patch_1">
   <path d="M 0 223.2 
L 576 223.2 
L 576 0 
L 0 0 
z
" style="fill:#ffffff;"/>
  </g>
  <g id="axes_1">
   <g id="patch_2">
    <path d="M 72.47 174.76 
L 565.2 174.76 
L 565.2 26.88 
L 72.47 26.88 
z
" style="fill:#ffffff;"/>
   </g>
   <g id="PolyCollection_1">
    <defs>
     <path d="M 132.899151 -48.44 
L 132.899151 -196.32 
L 411.802925 -196.32 
L 411.802925 -48.44 
L 411.802925 -48.44 
L 132.899151 -48.44 
z
" id="mb8908d385d" style="stroke:#808080;stroke-opacity:0.3;"/>
    </defs>
    <g clip-path="url(#p40d25196dc)">
     <use style="fill:#808080;fill-opacity:0.3;stroke:#808080;stroke-opacity:0.3;" x="0" xlink:href="#mb8908d385d" y="223.2"/>
    </g>
   </g>
   <g id="PolyCollection_2">
    <defs>
     <path d="M 72.47 -135.447304 
L 72.47 -103.266217 
L 74.329358 -109.975178 
L 76.188717 -106.168546 
L 78.048075 -107.017288 
L 79.907434 -95.980315 
L 81.766792 -95.780706 
L 83.626151 -99.405335 
L 85.485509 -100.818089 
L 87.344868 -100.508474 
L 89.204226 -95.162565 
L 91.063585 -98.519535 
L 92.922943 -91.940498 
L 94.782302 -85.402239 
L 96.64166 -101.813867 
L 98.501019 -94.541599 
L 100.360377 -101.634126 
L 102.219736 -101.946506 
L 104.079094 -94.19256 
L 105.938453 -87.97928 
L 107.797811 -89.636614 
L 109.65717 -90.460375 
L 111.516528 -94.237649 
L 113.375887 -92.652633 
L 115.235245 -94.794017 
L 117.094604 -95.75238 
L 118.953962 -93.657221 
L 120.813321 -86.270047 
L 122.672679 -86.830541 
L 124.532038 -81.832522 
L 126.391396 -90.434042 
L 128.250755 -100.65224 
L 130.110113 -95.025731 
L 131.969472 -97.142121 
L 133.82883 -92.710612 
L 135.688189 -94.098049 
L 137.547547 -91.027465 
L 139.406906 -92.962463 
L 141.266264 -86.671421 
L 143.125623 -92.741312 
L 144.984981 -93.422256 
L 146.84434 -77.350584 
L 148.703698 -86.104184 
L 150.563057 -88.580654 
L 152.422415 -90.636067 
L 154.281774 -87.712955 
L 156.141132 -83.35388 
L 158.000491 -84.281601 
L 159.859849 -84.75552 
L 161.719208 -94.596833 
L 163.578566 -93.970975 
L 165.437925 -93.378951 
L 167.297283 -94.607405 
L 169.156642 -98.762555 
L 171.016 -97.37179 
L 172.875358 -98.323186 
L 174.734717 -100.567169 
L 176.594075 -98.411082 
L 178.453434 -100.368972 
L 180.312792 -101.972098 
L 182.172151 -98.87126 
L 184.031509 -100.976694 
L 185.890868 -98.866535 
L 187.750226 -93.054423 
L 189.609585 -94.133773 
L 191.468943 -100.779205 
L 193.328302 -99.663704 
L 195.18766 -106.633746 
L 197.047019 -106.689987 
L 198.906377 -107.538054 
L 200.765736 -110.86202 
L 202.625094 -100.865486 
L 204.484453 -95.757739 
L 206.343811 -100.755135 
L 208.20317 -99.686423 
L 210.062528 -97.802772 
L 211.921887 -103.16775 
L 213.781245 -98.565793 
L 215.640604 -96.557787 
L 217.499962 -97.474907 
L 219.359321 -96.35365 
L 221.218679 -97.365819 
L 223.078038 -99.001586 
L 224.937396 -91.199325 
L 226.796755 -99.428176 
L 228.656113 -98.026107 
L 230.515472 -90.31124 
L 232.37483 -88.630036 
L 234.234189 -89.36625 
L 236.093547 -81.044471 
L 237.952906 -83.064459 
L 239.812264 -87.15704 
L 241.671623 -85.149559 
L 243.530981 -81.292118 
L 245.39034 -78.171745 
L 247.249698 -89.73257 
L 249.109057 -84.805257 
L 250.968415 -89.799836 
L 252.827774 -94.812082 
L 254.687132 -93.443582 
L 256.546491 -95.791002 
L 258.405849 -95.622736 
L 260.265208 -92.320101 
L 262.124566 -93.047883 
L 263.983925 -82.274807 
L 265.843283 -87.76283 
L 267.702642 -90.274211 
L 269.562 -86.647142 
L 271.421358 -90.896635 
L 273.280717 -79.679646 
L 275.140075 -79.485816 
L 276.999434 -82.452738 
L 278.858792 -82.735478 
L 280.718151 -85.857302 
L 282.577509 -82.96566 
L 284.436868 -81.437023 
L 286.296226 -81.224273 
L 288.155585 -85.241233 
L 290.014943 -81.302142 
L 291.874302 -87.045248 
L 293.73366 -90.538621 
L 295.593019 -79.559606 
L 297.452377 -79.573514 
L 299.311736 -79.734528 
L 301.171094 -88.715173 
L 303.030453 -78.428352 
L 304.889811 -88.784808 
L 306.74917 -82.128807 
L 308.608528 -79.660083 
L 310.467887 -83.024944 
L 312.327245 -76.904402 
L 314.186604 -81.673748 
L 316.045962 -78.195557 
L 317.905321 -76.415447 
L 319.764679 -76.691058 
L 321.624038 -82.173103 
L 323.483396 -80.572076 
L 325.342755 -78.109544 
L 327.202113 -64.231543 
L 329.061472 -71.200445 
L 330.92083 -74.603509 
L 332.780189 -69.51445 
L 334.639547 -71.115015 
L 336.498906 -70.507382 
L 338.358264 -78.795436 
L 340.217623 -71.068584 
L 342.076981 -71.249947 
L 343.93634 -71.658921 
L 345.795698 -72.324489 
L 347.655057 -71.019309 
L 349.514415 -71.59498 
L 351.373774 -66.861147 
L 353.233132 -78.094346 
L 355.092491 -68.711419 
L 356.951849 -76.618505 
L 358.811208 -76.247683 
L 360.670566 -67.793104 
L 362.529925 -71.674745 
L 364.389283 -77.493202 
L 366.248642 -79.165343 
L 368.108 -74.825371 
L 369.967358 -73.825439 
L 371.826717 -69.004873 
L 373.686075 -68.067648 
L 375.545434 -67.227283 
L 377.404792 -79.702544 
L 379.264151 -73.213567 
L 381.123509 -75.313789 
L 382.982868 -74.523763 
L 384.842226 -72.381112 
L 386.701585 -82.736775 
L 388.560943 -88.428002 
L 390.420302 -80.858627 
L 392.27966 -74.784255 
L 394.139019 -83.847223 
L 395.998377 -79.880068 
L 397.857736 -82.308549 
L 399.717094 -78.357871 
L 401.576453 -87.620565 
L 403.435811 -90.621515 
L 405.29517 -78.293383 
L 407.154528 -93.822555 
L 409.013887 -89.859252 
L 410.873245 -90.031527 
L 412.732604 -94.635058 
L 414.591962 -98.14515 
L 416.451321 -103.748691 
L 418.310679 -94.706174 
L 420.170038 -98.445593 
L 422.029396 -95.013838 
L 423.888755 -100.388372 
L 425.748113 -100.659727 
L 427.607472 -102.463624 
L 429.46683 -107.441288 
L 431.326189 -106.908817 
L 433.185547 -103.824714 
L 435.044906 -106.322904 
L 436.904264 -110.95116 
L 438.763623 -106.458369 
L 440.622981 -111.08701 
L 442.48234 -113.77698 
L 444.341698 -107.787056 
L 446.201057 -106.500615 
L 448.060415 -107.130818 
L 449.919774 -110.406956 
L 451.779132 -109.770205 
L 453.638491 -109.579091 
L 455.497849 -106.504849 
L 457.357208 -93.906605 
L 459.216566 -99.675069 
L 461.075925 -102.40133 
L 462.935283 -94.939843 
L 464.794642 -89.484507 
L 466.654 -90.14693 
L 468.513358 -88.76682 
L 470.372717 -93.40904 
L 472.232075 -82.919598 
L 474.091434 -76.924585 
L 475.950792 -91.629276 
L 477.810151 -92.241899 
L 479.669509 -79.851634 
L 481.528868 -83.466837 
L 483.388226 -83.125046 
L 485.247585 -85.553488 
L 487.106943 -87.149373 
L 488.966302 -76.864941 
L 490.82566 -84.34926 
L 492.685019 -76.18219 
L 494.544377 -78.638828 
L 496.403736 -84.951287 
L 498.263094 -79.916976 
L 500.122453 -81.412337 
L 501.981811 -84.491171 
L 503.84117 -84.176319 
L 505.700528 -75.845531 
L 507.559887 -75.699509 
L 509.419245 -85.548468 
L 511.278604 -84.252741 
L 513.137962 -80.413376 
L 514.997321 -84.179576 
L 516.856679 -84.681078 
L 518.716038 -86.449808 
L 520.575396 -79.575981 
L 522.434755 -77.032801 
L 524.294113 -85.826388 
L 526.153472 -76.061786 
L 528.01283 -81.406195 
L 529.872189 -90.384447 
L 531.731547 -82.610165 
L 533.590906 -84.090533 
L 535.450264 -91.690927 
L 537.309623 -87.64959 
L 539.168981 -91.818022 
L 541.02834 -96.653037 
L 542.887698 -91.907259 
L 544.747057 -92.426193 
L 546.606415 -98.23486 
L 548.465774 -87.595086 
L 550.325132 -97.005829 
L 552.184491 -90.953391 
L 554.043849 -101.337189 
L 555.903208 -98.299673 
L 557.762566 -109.098093 
L 559.621925 -96.049362 
L 561.481283 -91.824005 
L 563.340642 -93.326565 
L 565.2 -94.123408 
L 565.2 -122.23934 
L 565.2 -122.23934 
L 563.340642 -121.092612 
L 561.481283 -119.805164 
L 559.621925 -124.08875 
L 557.762566 -131.490881 
L 555.903208 -126.775247 
L 554.043849 -129.204003 
L 552.184491 -116.636253 
L 550.325132 -119.55173 
L 548.465774 -117.519387 
L 546.606415 -122.532369 
L 544.747057 -116.579941 
L 542.887698 -118.185032 
L 541.02834 -121.038348 
L 539.168981 -113.902528 
L 537.309623 -105.156066 
L 535.450264 -107.919589 
L 533.590906 -103.57853 
L 531.731547 -98.669104 
L 529.872189 -102.427369 
L 528.01283 -91.839881 
L 526.153472 -92.126837 
L 524.294113 -98.144244 
L 522.434755 -92.855775 
L 520.575396 -94.23508 
L 518.716038 -101.675354 
L 516.856679 -100.908258 
L 514.997321 -97.666588 
L 513.137962 -95.484442 
L 511.278604 -99.183073 
L 509.419245 -96.260333 
L 507.559887 -86.97352 
L 505.700528 -90.371771 
L 503.84117 -94.736499 
L 501.981811 -95.81393 
L 500.122453 -90.723243 
L 498.263094 -92.286248 
L 496.403736 -94.938225 
L 494.544377 -90.988732 
L 492.685019 -88.462161 
L 490.82566 -94.304536 
L 488.966302 -87.89567 
L 487.106943 -96.167279 
L 485.247585 -97.290964 
L 483.388226 -101.531334 
L 481.528868 -98.492564 
L 479.669509 -99.00054 
L 477.810151 -113.543041 
L 475.950792 -118.126405 
L 474.091434 -109.849036 
L 472.232075 -117.6216 
L 470.372717 -125.763051 
L 468.513358 -123.862215 
L 466.654 -126.596624 
L 464.794642 -131.894912 
L 462.935283 -138.181001 
L 461.075925 -149.939411 
L 459.216566 -152.84343 
L 457.357208 -153.137095 
L 455.497849 -165.600025 
L 453.638491 -168.21735 
L 451.779132 -168.853774 
L 449.919774 -167.297288 
L 448.060415 -166.110882 
L 446.201057 -166.420471 
L 444.341698 -168.514277 
L 442.48234 -172.253144 
L 440.622981 -170.689881 
L 438.763623 -167.190332 
L 436.904264 -170.344475 
L 435.044906 -165.713769 
L 433.185547 -162.444122 
L 431.326189 -162.059748 
L 429.46683 -158.869306 
L 427.607472 -154.51647 
L 425.748113 -153.247321 
L 423.888755 -151.036844 
L 422.029396 -146.530238 
L 420.170038 -149.09696 
L 418.310679 -147.196814 
L 416.451321 -151.867173 
L 414.591962 -148.161108 
L 412.732604 -145.479121 
L 410.873245 -141.616781 
L 409.013887 -140.436874 
L 407.154528 -139.822353 
L 405.29517 -123.620526 
L 403.435811 -121.392871 
L 401.576453 -113.12932 
L 399.717094 -98.981605 
L 397.857736 -100.010269 
L 395.998377 -100.255419 
L 394.139019 -100.309248 
L 392.27966 -91.417004 
L 390.420302 -94.897101 
L 388.560943 -95.136827 
L 386.701585 -92.991738 
L 384.842226 -82.600643 
L 382.982868 -85.478388 
L 381.123509 -83.212904 
L 379.264151 -82.69674 
L 377.404792 -85.808142 
L 375.545434 -76.799919 
L 373.686075 -79.038826 
L 371.826717 -76.297746 
L 369.967358 -80.288126 
L 368.108 -81.016402 
L 366.248642 -85.413999 
L 364.389283 -87.11821 
L 362.529925 -79.960345 
L 360.670566 -80.287226 
L 358.811208 -85.294938 
L 356.951849 -86.464495 
L 355.092491 -79.846653 
L 353.233132 -89.726049 
L 351.373774 -77.457857 
L 349.514415 -81.506396 
L 347.655057 -80.962875 
L 345.795698 -80.568619 
L 343.93634 -77.343845 
L 342.076981 -80.213055 
L 340.217623 -79.711393 
L 338.358264 -83.982174 
L 336.498906 -78.904972 
L 334.639547 -78.194912 
L 332.780189 -80.054523 
L 330.92083 -81.358273 
L 329.061472 -78.952575 
L 327.202113 -77.931472 
L 325.342755 -87.268442 
L 323.483396 -86.493566 
L 321.624038 -95.186651 
L 319.764679 -89.453821 
L 317.905321 -88.250927 
L 316.045962 -89.816955 
L 314.186604 -91.417633 
L 312.327245 -91.17066 
L 310.467887 -93.66251 
L 308.608528 -89.889041 
L 306.74917 -94.060978 
L 304.889811 -101.970757 
L 303.030453 -92.631651 
L 301.171094 -97.803157 
L 299.311736 -88.608601 
L 297.452377 -87.548607 
L 295.593019 -86.049143 
L 293.73366 -97.602907 
L 291.874302 -94.298535 
L 290.014943 -93.571738 
L 288.155585 -96.013271 
L 286.296226 -91.584175 
L 284.436868 -91.754742 
L 282.577509 -91.857906 
L 280.718151 -95.057781 
L 278.858792 -94.00783 
L 276.999434 -92.556738 
L 275.140075 -90.121232 
L 273.280717 -89.595481 
L 271.421358 -104.079631 
L 269.562 -102.521282 
L 267.702642 -110.817563 
L 265.843283 -108.963064 
L 263.983925 -106.566194 
L 262.124566 -110.933358 
L 260.265208 -110.712778 
L 258.405849 -114.5952 
L 256.546491 -114.528362 
L 254.687132 -114.755651 
L 252.827774 -112.759259 
L 250.968415 -108.994865 
L 249.109057 -106.760416 
L 247.249698 -110.613269 
L 245.39034 -104.013755 
L 243.530981 -112.288259 
L 241.671623 -114.213986 
L 239.812264 -117.264144 
L 237.952906 -113.147355 
L 236.093547 -111.419011 
L 234.234189 -116.525405 
L 232.37483 -116.813455 
L 230.515472 -116.59528 
L 228.656113 -126.595825 
L 226.796755 -128.774378 
L 224.937396 -123.438682 
L 223.078038 -129.053193 
L 221.218679 -128.625419 
L 219.359321 -131.17333 
L 217.499962 -133.788767 
L 215.640604 -133.212009 
L 213.781245 -139.700349 
L 211.921887 -149.991434 
L 210.062528 -150.74393 
L 208.20317 -152.514494 
L 206.343811 -156.141856 
L 204.484453 -160.40022 
L 202.625094 -175.996432 
L 200.765736 -196.32 
L 198.906377 -194.203897 
L 197.047019 -192.692761 
L 195.18766 -192.794796 
L 193.328302 -186.185001 
L 191.468943 -185.064906 
L 189.609585 -180.600608 
L 187.750226 -179.878108 
L 185.890868 -185.957543 
L 184.031509 -188.490083 
L 182.172151 -188.337079 
L 180.312792 -192.108623 
L 178.453434 -190.982176 
L 176.594075 -189.598438 
L 174.734717 -190.410497 
L 172.875358 -183.036438 
L 171.016 -180.662102 
L 169.156642 -177.700833 
L 167.297283 -174.48799 
L 165.437925 -172.025655 
L 163.578566 -166.714599 
L 161.719208 -164.855125 
L 159.859849 -152.541504 
L 158.000491 -147.609514 
L 156.141132 -141.377175 
L 154.281774 -135.378612 
L 152.422415 -127.899713 
L 150.563057 -120.50055 
L 148.703698 -118.707238 
L 146.84434 -112.659718 
L 144.984981 -121.21595 
L 143.125623 -119.894023 
L 141.266264 -117.224721 
L 139.406906 -121.410483 
L 137.547547 -117.442159 
L 135.688189 -118.61746 
L 133.82883 -115.955585 
L 131.969472 -120.375885 
L 130.110113 -118.597581 
L 128.250755 -122.160303 
L 126.391396 -115.350614 
L 124.532038 -107.766916 
L 122.672679 -110.194648 
L 120.813321 -108.724846 
L 118.953962 -112.977918 
L 117.094604 -115.658643 
L 115.235245 -116.082159 
L 113.375887 -113.606122 
L 111.516528 -114.816734 
L 109.65717 -111.926793 
L 107.797811 -110.195511 
L 105.938453 -110.470011 
L 104.079094 -112.471822 
L 102.219736 -121.206648 
L 100.360377 -118.273872 
L 98.501019 -117.497619 
L 96.64166 -121.946321 
L 94.782302 -109.887675 
L 92.922943 -113.588642 
L 91.063585 -117.962931 
L 89.204226 -114.883626 
L 87.344868 -122.822181 
L 85.485509 -121.816744 
L 83.626151 -127.590888 
L 81.766792 -126.165092 
L 79.907434 -127.998696 
L 78.048075 -137.767913 
L 76.188717 -139.001578 
L 74.329358 -139.549174 
L 72.47 -135.447304 
z
" id="mbd92966f39" style="stroke:#0000ff;stroke-opacity:0.3;"/>
    </defs>
    <g clip-path="url(#p40d25196dc)">
     <use style="fill:#0000ff;fill-opacity:0.3;stroke:#0000ff;stroke-opacity:0.3;" x="0" xlink:href="#mbd92966f39" y="223.2"/>
    </g>
   </g>
   <g id="matplotlib.axis_1">
    <g id="xtick_1">
     <g id="line2d_1">
      <defs>
       <path d="M 0 0 
L 0 3.5 
" id="m35c7df460d" style="stroke:#000000;stroke-width:0.8;"/>
      </defs>
      <g>
       <use style="stroke:#000000;stroke-width:0.8;" x="132.899151" xlink:href="#m35c7df460d" y="174.76"/>
      </g>
     </g>
     <g id="text_1">
      <!-- 0.0 -->
      <defs>
       <path d="M 31.78125 66.40625 
Q 24.171875 66.40625 20.328125 58.90625 
Q 16.5 51.421875 16.5 36.375 
Q 16.5 21.390625 20.328125 13.890625 
Q 24.171875 6.390625 31.78125 6.390625 
Q 39.453125 6.390625 43.28125 13.890625 
Q 47.125 21.390625 47.125 36.375 
Q 47.125 51.421875 43.28125 58.90625 
Q 39.453125 66.40625 31.78125 66.40625 
z
M 31.78125 74.21875 
Q 44.046875 74.21875 50.515625 64.515625 
Q 56.984375 54.828125 56.984375 36.375 
Q 56.984375 17.96875 50.515625 8.265625 
Q 44.046875 -1.421875 31.78125 -1.421875 
Q 19.53125 -1.421875 13.0625 8.265625 
Q 6.59375 17.96875 6.59375 36.375 
Q 6.59375 54.828125 13.0625 64.515625 
Q 19.53125 74.21875 31.78125 74.21875 
z
" id="DejaVuSans-48"/>
       <path d="M 10.6875 12.40625 
L 21 12.40625 
L 21 0 
L 10.6875 0 
z
" id="DejaVuSans-46"/>
      </defs>
      <g transform="translate(123.357276 190.878125)scale(0.12 -0.12)">
       <use xlink:href="#DejaVuSans-48"/>
       <use x="63.623047" xlink:href="#DejaVuSans-46"/>
       <use x="95.410156" xlink:href="#DejaVuSans-48"/>
      </g>
     </g>
    </g>
    <g id="xtick_2">
     <g id="line2d_2">
      <g>
       <use style="stroke:#000000;stroke-width:0.8;" x="225.867075" xlink:href="#m35c7df460d" y="174.76"/>
      </g>
     </g>
     <g id="text_2">
      <!-- 0.5 -->
      <defs>
       <path d="M 10.796875 72.90625 
L 49.515625 72.90625 
L 49.515625 64.59375 
L 19.828125 64.59375 
L 19.828125 46.734375 
Q 21.96875 47.46875 24.109375 47.828125 
Q 26.265625 48.1875 28.421875 48.1875 
Q 40.625 48.1875 47.75 41.5 
Q 54.890625 34.8125 54.890625 23.390625 
Q 54.890625 11.625 47.5625 5.09375 
Q 40.234375 -1.421875 26.90625 -1.421875 
Q 22.3125 -1.421875 17.546875 -0.640625 
Q 12.796875 0.140625 7.71875 1.703125 
L 7.71875 11.625 
Q 12.109375 9.234375 16.796875 8.0625 
Q 21.484375 6.890625 26.703125 6.890625 
Q 35.15625 6.890625 40.078125 11.328125 
Q 45.015625 15.765625 45.015625 23.390625 
Q 45.015625 31 40.078125 35.4375 
Q 35.15625 39.890625 26.703125 39.890625 
Q 22.75 39.890625 18.8125 39.015625 
Q 14.890625 38.140625 10.796875 36.28125 
z
" id="DejaVuSans-53"/>
      </defs>
      <g transform="translate(216.3252 190.878125)scale(0.12 -0.12)">
       <use xlink:href="#DejaVuSans-48"/>
       <use x="63.623047" xlink:href="#DejaVuSans-46"/>
       <use x="95.410156" xlink:href="#DejaVuSans-53"/>
      </g>
     </g>
    </g>
    <g id="xtick_3">
     <g id="line2d_3">
      <g>
       <use style="stroke:#000000;stroke-width:0.8;" x="318.835" xlink:href="#m35c7df460d" y="174.76"/>
      </g>
     </g>
     <g id="text_3">
      <!-- 1.0 -->
      <defs>
       <path d="M 12.40625 8.296875 
L 28.515625 8.296875 
L 28.515625 63.921875 
L 10.984375 60.40625 
L 10.984375 69.390625 
L 28.421875 72.90625 
L 38.28125 72.90625 
L 38.28125 8.296875 
L 54.390625 8.296875 
L 54.390625 0 
L 12.40625 0 
z
" id="DejaVuSans-49"/>
      </defs>
      <g transform="translate(309.293125 190.878125)scale(0.12 -0.12)">
       <use xlink:href="#DejaVuSans-49"/>
       <use x="63.623047" xlink:href="#DejaVuSans-46"/>
       <use x="95.410156" xlink:href="#DejaVuSans-48"/>
      </g>
     </g>
    </g>
    <g id="xtick_4">
     <g id="line2d_4">
      <g>
       <use style="stroke:#000000;stroke-width:0.8;" x="411.802925" xlink:href="#m35c7df460d" y="174.76"/>
      </g>
     </g>
     <g id="text_4">
      <!-- 1.5 -->
      <g transform="translate(402.26105 190.878125)scale(0.12 -0.12)">
       <use xlink:href="#DejaVuSans-49"/>
       <use x="63.623047" xlink:href="#DejaVuSans-46"/>
       <use x="95.410156" xlink:href="#DejaVuSans-53"/>
      </g>
     </g>
    </g>
    <g id="xtick_5">
     <g id="line2d_5">
      <g>
       <use style="stroke:#000000;stroke-width:0.8;" x="504.770849" xlink:href="#m35c7df460d" y="174.76"/>
      </g>
     </g>
     <g id="text_5">
      <!-- 2.0 -->
      <defs>
       <path d="M 19.1875 8.296875 
L 53.609375 8.296875 
L 53.609375 0 
L 7.328125 0 
L 7.328125 8.296875 
Q 12.9375 14.109375 22.625 23.890625 
Q 32.328125 33.6875 34.8125 36.53125 
Q 39.546875 41.84375 41.421875 45.53125 
Q 43.3125 49.21875 43.3125 52.78125 
Q 43.3125 58.59375 39.234375 62.25 
Q 35.15625 65.921875 28.609375 65.921875 
Q 23.96875 65.921875 18.8125 64.3125 
Q 13.671875 62.703125 7.8125 59.421875 
L 7.8125 69.390625 
Q 13.765625 71.78125 18.9375 73 
Q 24.125 74.21875 28.421875 74.21875 
Q 39.75 74.21875 46.484375 68.546875 
Q 53.21875 62.890625 53.21875 53.421875 
Q 53.21875 48.921875 51.53125 44.890625 
Q 49.859375 40.875 45.40625 35.40625 
Q 44.1875 33.984375 37.640625 27.21875 
Q 31.109375 20.453125 19.1875 8.296875 
z
" id="DejaVuSans-50"/>
      </defs>
      <g transform="translate(495.228974 190.878125)scale(0.12 -0.12)">
       <use xlink:href="#DejaVuSans-50"/>
       <use x="63.623047" xlink:href="#DejaVuSans-46"/>
       <use x="95.410156" xlink:href="#DejaVuSans-48"/>
      </g>
     </g>
    </g>
    <g id="text_6">
     <!-- Time (s) -->
     <defs>
      <path d="M -0.296875 72.90625 
L 61.375 72.90625 
L 61.375 64.59375 
L 35.5 64.59375 
L 35.5 0 
L 25.59375 0 
L 25.59375 64.59375 
L -0.296875 64.59375 
z
" id="DejaVuSans-84"/>
      <path d="M 9.421875 54.6875 
L 18.40625 54.6875 
L 18.40625 0 
L 9.421875 0 
z
M 9.421875 75.984375 
L 18.40625 75.984375 
L 18.40625 64.59375 
L 9.421875 64.59375 
z
" id="DejaVuSans-105"/>
      <path d="M 52 44.1875 
Q 55.375 50.25 60.0625 53.125 
Q 64.75 56 71.09375 56 
Q 79.640625 56 84.28125 50.015625 
Q 88.921875 44.046875 88.921875 33.015625 
L 88.921875 0 
L 79.890625 0 
L 79.890625 32.71875 
Q 79.890625 40.578125 77.09375 44.375 
Q 74.3125 48.1875 68.609375 48.1875 
Q 61.625 48.1875 57.5625 43.546875 
Q 53.515625 38.921875 53.515625 30.90625 
L 53.515625 0 
L 44.484375 0 
L 44.484375 32.71875 
Q 44.484375 40.625 41.703125 44.40625 
Q 38.921875 48.1875 33.109375 48.1875 
Q 26.21875 48.1875 22.15625 43.53125 
Q 18.109375 38.875 18.109375 30.90625 
L 18.109375 0 
L 9.078125 0 
L 9.078125 54.6875 
L 18.109375 54.6875 
L 18.109375 46.1875 
Q 21.1875 51.21875 25.484375 53.609375 
Q 29.78125 56 35.6875 56 
Q 41.65625 56 45.828125 52.96875 
Q 50 49.953125 52 44.1875 
z
" id="DejaVuSans-109"/>
      <path d="M 56.203125 29.59375 
L 56.203125 25.203125 
L 14.890625 25.203125 
Q 15.484375 15.921875 20.484375 11.0625 
Q 25.484375 6.203125 34.421875 6.203125 
Q 39.59375 6.203125 44.453125 7.46875 
Q 49.3125 8.734375 54.109375 11.28125 
L 54.109375 2.78125 
Q 49.265625 0.734375 44.1875 -0.34375 
Q 39.109375 -1.421875 33.890625 -1.421875 
Q 20.796875 -1.421875 13.15625 6.1875 
Q 5.515625 13.8125 5.515625 26.8125 
Q 5.515625 40.234375 12.765625 48.109375 
Q 20.015625 56 32.328125 56 
Q 43.359375 56 49.78125 48.890625 
Q 56.203125 41.796875 56.203125 29.59375 
z
M 47.21875 32.234375 
Q 47.125 39.59375 43.09375 43.984375 
Q 39.0625 48.390625 32.421875 48.390625 
Q 24.90625 48.390625 20.390625 44.140625 
Q 15.875 39.890625 15.1875 32.171875 
z
" id="DejaVuSans-101"/>
      <path id="DejaVuSans-32"/>
      <path d="M 31 75.875 
Q 24.46875 64.65625 21.28125 53.65625 
Q 18.109375 42.671875 18.109375 31.390625 
Q 18.109375 20.125 21.3125 9.0625 
Q 24.515625 -2 31 -13.1875 
L 23.1875 -13.1875 
Q 15.875 -1.703125 12.234375 9.375 
Q 8.59375 20.453125 8.59375 31.390625 
Q 8.59375 42.28125 12.203125 53.3125 
Q 15.828125 64.359375 23.1875 75.875 
z
" id="DejaVuSans-40"/>
      <path d="M 44.28125 53.078125 
L 44.28125 44.578125 
Q 40.484375 46.53125 36.375 47.5 
Q 32.28125 48.484375 27.875 48.484375 
Q 21.1875 48.484375 17.84375 46.4375 
Q 14.5 44.390625 14.5 40.28125 
Q 14.5 37.15625 16.890625 35.375 
Q 19.28125 33.59375 26.515625 31.984375 
L 29.59375 31.296875 
Q 39.15625 29.25 43.1875 25.515625 
Q 47.21875 21.78125 47.21875 15.09375 
Q 47.21875 7.46875 41.1875 3.015625 
Q 35.15625 -1.421875 24.609375 -1.421875 
Q 20.21875 -1.421875 15.453125 -0.5625 
Q 10.6875 0.296875 5.421875 2 
L 5.421875 11.28125 
Q 10.40625 8.6875 15.234375 7.390625 
Q 20.0625 6.109375 24.8125 6.109375 
Q 31.15625 6.109375 34.5625 8.28125 
Q 37.984375 10.453125 37.984375 14.40625 
Q 37.984375 18.0625 35.515625 20.015625 
Q 33.0625 21.96875 24.703125 23.78125 
L 21.578125 24.515625 
Q 13.234375 26.265625 9.515625 29.90625 
Q 5.8125 33.546875 5.8125 39.890625 
Q 5.8125 47.609375 11.28125 51.796875 
Q 16.75 56 26.8125 56 
Q 31.78125 56 36.171875 55.265625 
Q 40.578125 54.546875 44.28125 53.078125 
z
" id="DejaVuSans-115"/>
      <path d="M 8.015625 75.875 
L 15.828125 75.875 
Q 23.140625 64.359375 26.78125 53.3125 
Q 30.421875 42.28125 30.421875 31.390625 
Q 30.421875 20.453125 26.78125 9.375 
Q 23.140625 -1.703125 15.828125 -13.1875 
L 8.015625 -13.1875 
Q 14.5 -2 17.703125 9.0625 
Q 20.90625 20.125 20.90625 31.390625 
Q 20.90625 42.671875 17.703125 53.65625 
Q 14.5 64.65625 8.015625 75.875 
z
" id="DejaVuSans-41"/>
     </defs>
     <g transform="translate(289.33975 208.3155)scale(0.144 -0.144)">
      <use xlink:href="#DejaVuSans-84"/>
      <use x="61.037109" xlink:href="#DejaVuSans-105"/>
      <use x="88.820312" xlink:href="#DejaVuSans-109"/>
      <use x="186.232422" xlink:href="#DejaVuSans-101"/>
      <use x="247.755859" xlink:href="#DejaVuSans-32"/>
      <use x="279.542969" xlink:href="#DejaVuSans-40"/>
      <use x="318.556641" xlink:href="#DejaVuSans-115"/>
      <use x="370.65625" xlink:href="#DejaVuSans-41"/>
     </g>
    </g>
   </g>
   <g id="matplotlib.axis_2">
    <g id="ytick_1">
     <g id="line2d_6">
      <defs>
       <path d="M 0 0 
L -3.5 0 
" id="mc98e875d4b" style="stroke:#000000;stroke-width:0.8;"/>
      </defs>
      <g>
       <use style="stroke:#000000;stroke-width:0.8;" x="72.47" xlink:href="#mc98e875d4b" y="174.76"/>
      </g>
     </g>
     <g id="text_7">
      <!-- 0.000 -->
      <g transform="translate(31.11625 179.319062)scale(0.12 -0.12)">
       <use xlink:href="#DejaVuSans-48"/>
       <use x="63.623047" xlink:href="#DejaVuSans-46"/>
       <use x="95.410156" xlink:href="#DejaVuSans-48"/>
       <use x="159.033203" xlink:href="#DejaVuSans-48"/>
       <use x="222.65625" xlink:href="#DejaVuSans-48"/>
      </g>
     </g>
    </g>
    <g id="ytick_2">
     <g id="line2d_7">
      <g>
       <use style="stroke:#000000;stroke-width:0.8;" x="72.47" xlink:href="#mc98e875d4b" y="144.068583"/>
      </g>
     </g>
     <g id="text_8">
      <!-- 0.001 -->
      <g transform="translate(31.11625 148.627646)scale(0.12 -0.12)">
       <use xlink:href="#DejaVuSans-48"/>
       <use x="63.623047" xlink:href="#DejaVuSans-46"/>
       <use x="95.410156" xlink:href="#DejaVuSans-48"/>
       <use x="159.033203" xlink:href="#DejaVuSans-48"/>
       <use x="222.65625" xlink:href="#DejaVuSans-49"/>
      </g>
     </g>
    </g>
    <g id="ytick_3">
     <g id="line2d_8">
      <g>
       <use style="stroke:#000000;stroke-width:0.8;" x="72.47" xlink:href="#mc98e875d4b" y="113.377166"/>
      </g>
     </g>
     <g id="text_9">
      <!-- 0.002 -->
      <g transform="translate(31.11625 117.936229)scale(0.12 -0.12)">
       <use xlink:href="#DejaVuSans-48"/>
       <use x="63.623047" xlink:href="#DejaVuSans-46"/>
       <use x="95.410156" xlink:href="#DejaVuSans-48"/>
       <use x="159.033203" xlink:href="#DejaVuSans-48"/>
       <use x="222.65625" xlink:href="#DejaVuSans-50"/>
      </g>
     </g>
    </g>
    <g id="ytick_4">
     <g id="line2d_9">
      <g>
       <use style="stroke:#000000;stroke-width:0.8;" x="72.47" xlink:href="#mc98e875d4b" y="82.68575"/>
      </g>
     </g>
     <g id="text_10">
      <!-- 0.003 -->
      <defs>
       <path d="M 40.578125 39.3125 
Q 47.65625 37.796875 51.625 33 
Q 55.609375 28.21875 55.609375 21.1875 
Q 55.609375 10.40625 48.1875 4.484375 
Q 40.765625 -1.421875 27.09375 -1.421875 
Q 22.515625 -1.421875 17.65625 -0.515625 
Q 12.796875 0.390625 7.625 2.203125 
L 7.625 11.71875 
Q 11.71875 9.328125 16.59375 8.109375 
Q 21.484375 6.890625 26.8125 6.890625 
Q 36.078125 6.890625 40.9375 10.546875 
Q 45.796875 14.203125 45.796875 21.1875 
Q 45.796875 27.640625 41.28125 31.265625 
Q 36.765625 34.90625 28.71875 34.90625 
L 20.21875 34.90625 
L 20.21875 43.015625 
L 29.109375 43.015625 
Q 36.375 43.015625 40.234375 45.921875 
Q 44.09375 48.828125 44.09375 54.296875 
Q 44.09375 59.90625 40.109375 62.90625 
Q 36.140625 65.921875 28.71875 65.921875 
Q 24.65625 65.921875 20.015625 65.03125 
Q 15.375 64.15625 9.8125 62.3125 
L 9.8125 71.09375 
Q 15.4375 72.65625 20.34375 73.4375 
Q 25.25 74.21875 29.59375 74.21875 
Q 40.828125 74.21875 47.359375 69.109375 
Q 53.90625 64.015625 53.90625 55.328125 
Q 53.90625 49.265625 50.4375 45.09375 
Q 46.96875 40.921875 40.578125 39.3125 
z
" id="DejaVuSans-51"/>
      </defs>
      <g transform="translate(31.11625 87.244812)scale(0.12 -0.12)">
       <use xlink:href="#DejaVuSans-48"/>
       <use x="63.623047" xlink:href="#DejaVuSans-46"/>
       <use x="95.410156" xlink:href="#DejaVuSans-48"/>
       <use x="159.033203" xlink:href="#DejaVuSans-48"/>
       <use x="222.65625" xlink:href="#DejaVuSans-51"/>
      </g>
     </g>
    </g>
    <g id="ytick_5">
     <g id="line2d_10">
      <g>
       <use style="stroke:#000000;stroke-width:0.8;" x="72.47" xlink:href="#mc98e875d4b" y="51.994333"/>
      </g>
     </g>
     <g id="text_11">
      <!-- 0.004 -->
      <defs>
       <path d="M 37.796875 64.3125 
L 12.890625 25.390625 
L 37.796875 25.390625 
z
M 35.203125 72.90625 
L 47.609375 72.90625 
L 47.609375 25.390625 
L 58.015625 25.390625 
L 58.015625 17.1875 
L 47.609375 17.1875 
L 47.609375 0 
L 37.796875 0 
L 37.796875 17.1875 
L 4.890625 17.1875 
L 4.890625 26.703125 
z
" id="DejaVuSans-52"/>
      </defs>
      <g transform="translate(31.11625 56.553395)scale(0.12 -0.12)">
       <use xlink:href="#DejaVuSans-48"/>
       <use x="63.623047" xlink:href="#DejaVuSans-46"/>
       <use x="95.410156" xlink:href="#DejaVuSans-48"/>
       <use x="159.033203" xlink:href="#DejaVuSans-48"/>
       <use x="222.65625" xlink:href="#DejaVuSans-52"/>
      </g>
     </g>
    </g>
    <g id="text_12">
     <!-- Beta-bin $\rho$ -->
     <defs>
      <path d="M 19.671875 34.8125 
L 19.671875 8.109375 
L 35.5 8.109375 
Q 43.453125 8.109375 47.28125 11.40625 
Q 51.125 14.703125 51.125 21.484375 
Q 51.125 28.328125 47.28125 31.5625 
Q 43.453125 34.8125 35.5 34.8125 
z
M 19.671875 64.796875 
L 19.671875 42.828125 
L 34.28125 42.828125 
Q 41.5 42.828125 45.03125 45.53125 
Q 48.578125 48.25 48.578125 53.8125 
Q 48.578125 59.328125 45.03125 62.0625 
Q 41.5 64.796875 34.28125 64.796875 
z
M 9.8125 72.90625 
L 35.015625 72.90625 
Q 46.296875 72.90625 52.390625 68.21875 
Q 58.5 63.53125 58.5 54.890625 
Q 58.5 48.1875 55.375 44.234375 
Q 52.25 40.28125 46.1875 39.3125 
Q 53.46875 37.75 57.5 32.78125 
Q 61.53125 27.828125 61.53125 20.40625 
Q 61.53125 10.640625 54.890625 5.3125 
Q 48.25 0 35.984375 0 
L 9.8125 0 
z
" id="DejaVuSans-66"/>
      <path d="M 18.3125 70.21875 
L 18.3125 54.6875 
L 36.8125 54.6875 
L 36.8125 47.703125 
L 18.3125 47.703125 
L 18.3125 18.015625 
Q 18.3125 11.328125 20.140625 9.421875 
Q 21.96875 7.515625 27.59375 7.515625 
L 36.8125 7.515625 
L 36.8125 0 
L 27.59375 0 
Q 17.1875 0 13.234375 3.875 
Q 9.28125 7.765625 9.28125 18.015625 
L 9.28125 47.703125 
L 2.6875 47.703125 
L 2.6875 54.6875 
L 9.28125 54.6875 
L 9.28125 70.21875 
z
" id="DejaVuSans-116"/>
      <path d="M 34.28125 27.484375 
Q 23.390625 27.484375 19.1875 25 
Q 14.984375 22.515625 14.984375 16.5 
Q 14.984375 11.71875 18.140625 8.90625 
Q 21.296875 6.109375 26.703125 6.109375 
Q 34.1875 6.109375 38.703125 11.40625 
Q 43.21875 16.703125 43.21875 25.484375 
L 43.21875 27.484375 
z
M 52.203125 31.203125 
L 52.203125 0 
L 43.21875 0 
L 43.21875 8.296875 
Q 40.140625 3.328125 35.546875 0.953125 
Q 30.953125 -1.421875 24.3125 -1.421875 
Q 15.921875 -1.421875 10.953125 3.296875 
Q 6 8.015625 6 15.921875 
Q 6 25.140625 12.171875 29.828125 
Q 18.359375 34.515625 30.609375 34.515625 
L 43.21875 34.515625 
L 43.21875 35.40625 
Q 43.21875 41.609375 39.140625 45 
Q 35.0625 48.390625 27.6875 48.390625 
Q 23 48.390625 18.546875 47.265625 
Q 14.109375 46.140625 10.015625 43.890625 
L 10.015625 52.203125 
Q 14.9375 54.109375 19.578125 55.046875 
Q 24.21875 56 28.609375 56 
Q 40.484375 56 46.34375 49.84375 
Q 52.203125 43.703125 52.203125 31.203125 
z
" id="DejaVuSans-97"/>
      <path d="M 4.890625 31.390625 
L 31.203125 31.390625 
L 31.203125 23.390625 
L 4.890625 23.390625 
z
" id="DejaVuSans-45"/>
      <path d="M 48.6875 27.296875 
Q 48.6875 37.203125 44.609375 42.84375 
Q 40.53125 48.484375 33.40625 48.484375 
Q 26.265625 48.484375 22.1875 42.84375 
Q 18.109375 37.203125 18.109375 27.296875 
Q 18.109375 17.390625 22.1875 11.75 
Q 26.265625 6.109375 33.40625 6.109375 
Q 40.53125 6.109375 44.609375 11.75 
Q 48.6875 17.390625 48.6875 27.296875 
z
M 18.109375 46.390625 
Q 20.953125 51.265625 25.265625 53.625 
Q 29.59375 56 35.59375 56 
Q 45.5625 56 51.78125 48.09375 
Q 58.015625 40.1875 58.015625 27.296875 
Q 58.015625 14.40625 51.78125 6.484375 
Q 45.5625 -1.421875 35.59375 -1.421875 
Q 29.59375 -1.421875 25.265625 0.953125 
Q 20.953125 3.328125 18.109375 8.203125 
L 18.109375 0 
L 9.078125 0 
L 9.078125 75.984375 
L 18.109375 75.984375 
z
" id="DejaVuSans-98"/>
      <path d="M 54.890625 33.015625 
L 54.890625 0 
L 45.90625 0 
L 45.90625 32.71875 
Q 45.90625 40.484375 42.875 44.328125 
Q 39.84375 48.1875 33.796875 48.1875 
Q 26.515625 48.1875 22.3125 43.546875 
Q 18.109375 38.921875 18.109375 30.90625 
L 18.109375 0 
L 9.078125 0 
L 9.078125 54.6875 
L 18.109375 54.6875 
L 18.109375 46.1875 
Q 21.34375 51.125 25.703125 53.5625 
Q 30.078125 56 35.796875 56 
Q 45.21875 56 50.046875 50.171875 
Q 54.890625 44.34375 54.890625 33.015625 
z
" id="DejaVuSans-110"/>
      <path d="M 18.796875 44.921875 
Q 22.703125 49.90625 30.953125 54.296875 
Q 34.1875 56 43.0625 56 
Q 53.03125 56 57.71875 48.09375 
Q 62.40625 40.1875 59.90625 27.296875 
Q 57.375 14.40625 49.609375 6.484375 
Q 41.84375 -1.421875 31.890625 -1.421875 
Q 25.875 -1.421875 22.015625 0.984375 
Q 18.171875 3.328125 16.3125 8.203125 
L 10.640625 -20.796875 
L 1.609375 -20.796875 
L 10.890625 26.8125 
Q 13.09375 38.09375 18.796875 44.921875 
z
M 50.59375 27.296875 
Q 52.484375 37.203125 49.515625 42.875 
Q 46.53125 48.484375 39.40625 48.484375 
Q 32.28125 48.484375 27.09375 42.875 
Q 21.921875 37.203125 20.015625 27.296875 
Q 18.0625 17.390625 21.046875 11.71875 
Q 24.03125 6.109375 31.15625 6.109375 
Q 38.28125 6.109375 43.453125 11.71875 
Q 48.640625 17.390625 50.59375 27.296875 
z
" id="DejaVuSans-Oblique-961"/>
     </defs>
     <g transform="translate(24.09225 138.044)rotate(-90)scale(0.144 -0.144)">
      <use transform="translate(0 0.015625)" xlink:href="#DejaVuSans-66"/>
      <use transform="translate(68.603516 0.015625)" xlink:href="#DejaVuSans-101"/>
      <use transform="translate(130.126953 0.015625)" xlink:href="#DejaVuSans-116"/>
      <use transform="translate(169.335938 0.015625)" xlink:href="#DejaVuSans-97"/>
      <use transform="translate(230.615234 0.015625)" xlink:href="#DejaVuSans-45"/>
      <use transform="translate(266.699219 0.015625)" xlink:href="#DejaVuSans-98"/>
      <use transform="translate(330.175781 0.015625)" xlink:href="#DejaVuSans-105"/>
      <use transform="translate(357.958984 0.015625)" xlink:href="#DejaVuSans-110"/>
      <use transform="translate(421.337891 0.015625)" xlink:href="#DejaVuSans-32"/>
      <use transform="translate(453.125 0.015625)" xlink:href="#DejaVuSans-Oblique-961"/>
     </g>
    </g>
   </g>
   <g id="line2d_11">
    <path clip-path="url(#p40d25196dc)" d="M 72.47 103.843239 
L 74.329358 98.437824 
L 76.188717 100.614938 
L 78.048075 100.8074 
L 79.907434 111.210494 
L 81.766792 112.227101 
L 83.626151 109.701888 
L 85.485509 111.882584 
L 87.344868 111.534672 
L 89.204226 118.176905 
L 91.063585 114.958767 
L 92.922943 120.43543 
L 94.782302 125.555043 
L 96.64166 111.319906 
L 98.501019 117.180391 
L 100.360377 113.246001 
L 102.219736 111.623423 
L 104.079094 119.867809 
L 105.938453 123.975355 
L 107.797811 123.283937 
L 109.65717 122.006416 
L 111.516528 118.672809 
L 113.375887 120.070622 
L 115.235245 117.761912 
L 117.094604 117.494488 
L 118.953962 119.88243 
L 120.813321 125.702554 
L 122.672679 124.687406 
L 124.532038 128.400281 
L 128.250755 111.793729 
L 130.110113 116.388344 
L 131.969472 114.440997 
L 133.82883 118.866901 
L 135.688189 116.842246 
L 137.547547 118.965188 
L 139.406906 116.013527 
L 141.266264 121.251929 
L 143.125623 116.882333 
L 144.984981 115.880897 
L 146.84434 128.194849 
L 148.703698 120.794289 
L 150.563057 118.659398 
L 152.422415 113.93211 
L 154.281774 111.654217 
L 156.141132 110.834472 
L 158.000491 107.254442 
L 159.859849 104.551488 
L 161.719208 93.474021 
L 163.578566 92.857213 
L 165.437925 90.497697 
L 167.297283 88.652303 
L 169.156642 84.968306 
L 171.016 84.183054 
L 172.875358 82.520188 
L 174.734717 77.711167 
L 176.594075 79.19524 
L 178.453434 77.524426 
L 180.312792 76.15964 
L 182.172151 79.595831 
L 184.031509 78.466611 
L 185.890868 80.787961 
L 187.750226 86.733734 
L 189.609585 85.83281 
L 191.468943 80.277945 
L 193.328302 80.275648 
L 195.18766 73.485729 
L 197.047019 73.508626 
L 198.906377 72.329024 
L 200.765736 69.60899 
L 202.625094 84.769041 
L 204.484453 95.12102 
L 206.343811 94.751504 
L 208.20317 97.099541 
L 210.062528 98.926649 
L 211.921887 96.620408 
L 213.781245 104.066929 
L 215.640604 108.315102 
L 217.499962 107.568163 
L 219.359321 109.43651 
L 221.218679 110.204381 
L 223.078038 109.172611 
L 224.937396 115.880997 
L 226.796755 109.098723 
L 228.656113 110.889034 
L 230.515472 119.74674 
L 232.37483 120.478255 
L 234.234189 120.254173 
L 236.093547 126.968259 
L 237.952906 125.094093 
L 239.812264 120.989408 
L 241.671623 123.518227 
L 243.530981 126.409811 
L 245.39034 132.10725 
L 247.249698 123.02708 
L 249.109057 127.417164 
L 250.968415 123.802649 
L 252.827774 119.41433 
L 254.687132 119.100384 
L 256.546491 118.040318 
L 258.405849 118.091032 
L 260.265208 121.68356 
L 262.124566 121.20938 
L 263.983925 128.779499 
L 265.843283 124.837053 
L 267.702642 122.654113 
L 269.562 128.615788 
L 271.421358 125.711867 
L 273.280717 138.562436 
L 275.140075 138.396476 
L 276.999434 135.695262 
L 278.858792 134.828346 
L 280.718151 132.742459 
L 282.577509 135.788217 
L 284.436868 136.604118 
L 286.296226 136.795776 
L 288.155585 132.572748 
L 290.014943 135.76306 
L 293.73366 129.129236 
L 295.593019 140.395626 
L 297.452377 139.638939 
L 299.311736 139.028435 
L 301.171094 129.940835 
L 303.030453 137.669998 
L 304.889811 127.822218 
L 306.74917 135.105108 
L 308.608528 138.425438 
L 310.467887 134.856273 
L 312.327245 139.162469 
L 314.186604 136.654309 
L 316.045962 139.193744 
L 317.905321 140.866813 
L 319.764679 140.127561 
L 321.624038 134.520123 
L 323.483396 139.667179 
L 325.342755 140.511007 
L 327.202113 152.118492 
L 329.061472 148.12349 
L 330.92083 145.219109 
L 332.780189 148.415513 
L 334.639547 148.545036 
L 336.498906 148.493823 
L 338.358264 141.811195 
L 340.217623 147.810012 
L 342.076981 147.468499 
L 343.93634 148.698617 
L 345.795698 146.753446 
L 347.655057 147.208908 
L 349.514415 146.649312 
L 351.373774 151.040498 
L 353.233132 139.289803 
L 355.092491 148.920964 
L 356.951849 141.6585 
L 358.811208 142.42869 
L 360.670566 149.159835 
L 362.529925 147.382455 
L 364.389283 140.894294 
L 366.248642 140.910329 
L 368.108 145.279114 
L 369.967358 146.143218 
L 371.826717 150.54869 
L 373.686075 149.646763 
L 375.545434 151.186399 
L 377.404792 140.444657 
L 379.264151 145.244847 
L 381.123509 143.936654 
L 382.982868 143.198924 
L 384.842226 145.709122 
L 386.701585 135.335744 
L 388.560943 131.417585 
L 390.420302 135.322136 
L 392.27966 140.099371 
L 394.139019 131.121764 
L 395.998377 133.132256 
L 397.857736 132.040591 
L 399.717094 134.530262 
L 401.576453 122.825057 
L 403.435811 117.192807 
L 405.29517 122.243046 
L 407.154528 106.377546 
L 409.013887 108.051937 
L 410.873245 107.375846 
L 412.732604 103.142911 
L 414.591962 100.046871 
L 416.451321 95.392068 
L 418.310679 102.248506 
L 420.170038 99.428724 
L 422.029396 102.427962 
L 423.888755 97.487392 
L 425.748113 96.246476 
L 427.607472 94.709953 
L 429.46683 90.044703 
L 431.326189 88.715717 
L 433.185547 90.065582 
L 435.044906 87.181664 
L 436.904264 82.552183 
L 438.763623 86.37565 
L 440.622981 82.311555 
L 442.48234 80.184938 
L 444.341698 85.049334 
L 446.201057 86.739457 
L 448.060415 86.57915 
L 449.919774 84.347878 
L 451.779132 83.888011 
L 453.638491 84.301779 
L 455.497849 87.147563 
L 457.357208 99.67815 
L 459.216566 96.940751 
L 461.075925 97.02963 
L 462.935283 106.639578 
L 464.794642 112.510291 
L 466.654 114.828223 
L 468.513358 116.885482 
L 470.372717 113.613955 
L 472.232075 122.929401 
L 474.091434 129.81319 
L 475.950792 118.32216 
L 477.810151 120.30753 
L 479.669509 133.773913 
L 481.528868 132.220299 
L 483.388226 130.87181 
L 485.247585 131.777774 
L 487.106943 131.541674 
L 488.966302 140.819694 
L 490.82566 133.873102 
L 492.685019 140.877824 
L 494.544377 138.38622 
L 496.403736 133.255244 
L 498.263094 137.098388 
L 500.122453 137.13221 
L 501.981811 133.04745 
L 503.84117 133.743591 
L 505.700528 140.091349 
L 507.559887 141.863485 
L 509.419245 132.2956 
L 511.278604 131.482093 
L 513.137962 135.251091 
L 514.997321 132.276918 
L 516.856679 130.405332 
L 518.716038 129.137419 
L 520.575396 136.294469 
L 522.434755 138.255712 
L 524.294113 131.214684 
L 526.153472 139.105689 
L 528.01283 136.576962 
L 529.872189 126.794092 
L 531.731547 132.560365 
L 533.590906 129.365469 
L 535.450264 123.394742 
L 537.309623 126.797172 
L 539.168981 120.339725 
L 541.02834 114.354308 
L 542.887698 118.153854 
L 544.747057 118.696933 
L 546.606415 112.816385 
L 548.465774 120.642763 
L 550.325132 114.92122 
L 552.184491 119.405178 
L 554.043849 107.929404 
L 555.903208 110.66254 
L 557.762566 102.905513 
L 559.621925 113.130944 
L 561.481283 117.385415 
L 563.340642 115.990411 
L 565.2 115.018626 
L 565.2 115.018626 
" style="fill:none;stroke:#0000ff;stroke-linecap:square;stroke-width:1.5;"/>
   </g>
   <g id="patch_3">
    <path d="M 72.47 174.76 
L 72.47 26.88 
" style="fill:none;stroke:#000000;stroke-linecap:square;stroke-linejoin:miter;stroke-width:0.8;"/>
   </g>
   <g id="patch_4">
    <path d="M 565.2 174.76 
L 565.2 26.88 
" style="fill:none;stroke:#000000;stroke-linecap:square;stroke-linejoin:miter;stroke-width:0.8;"/>
   </g>
   <g id="patch_5">
    <path d="M 72.47 174.76 
L 565.2 174.76 
" style="fill:none;stroke:#000000;stroke-linecap:square;stroke-linejoin:miter;stroke-width:0.8;"/>
   </g>
   <g id="patch_6">
    <path d="M 72.47 26.88 
L 565.2 26.88 
" style="fill:none;stroke:#000000;stroke-linecap:square;stroke-linejoin:miter;stroke-width:0.8;"/>
   </g>
   <g id="text_13">
    <!-- Motor cortex, Num Trials=10 All unstimulated trials, Num cells = 471 -->
    <defs>
     <path d="M 9.8125 72.90625 
L 24.515625 72.90625 
L 43.109375 23.296875 
L 61.8125 72.90625 
L 76.515625 72.90625 
L 76.515625 0 
L 66.890625 0 
L 66.890625 64.015625 
L 48.09375 14.015625 
L 38.1875 14.015625 
L 19.390625 64.015625 
L 19.390625 0 
L 9.8125 0 
z
" id="DejaVuSans-77"/>
     <path d="M 30.609375 48.390625 
Q 23.390625 48.390625 19.1875 42.75 
Q 14.984375 37.109375 14.984375 27.296875 
Q 14.984375 17.484375 19.15625 11.84375 
Q 23.34375 6.203125 30.609375 6.203125 
Q 37.796875 6.203125 41.984375 11.859375 
Q 46.1875 17.53125 46.1875 27.296875 
Q 46.1875 37.015625 41.984375 42.703125 
Q 37.796875 48.390625 30.609375 48.390625 
z
M 30.609375 56 
Q 42.328125 56 49.015625 48.375 
Q 55.71875 40.765625 55.71875 27.296875 
Q 55.71875 13.875 49.015625 6.21875 
Q 42.328125 -1.421875 30.609375 -1.421875 
Q 18.84375 -1.421875 12.171875 6.21875 
Q 5.515625 13.875 5.515625 27.296875 
Q 5.515625 40.765625 12.171875 48.375 
Q 18.84375 56 30.609375 56 
z
" id="DejaVuSans-111"/>
     <path d="M 41.109375 46.296875 
Q 39.59375 47.171875 37.8125 47.578125 
Q 36.03125 48 33.890625 48 
Q 26.265625 48 22.1875 43.046875 
Q 18.109375 38.09375 18.109375 28.8125 
L 18.109375 0 
L 9.078125 0 
L 9.078125 54.6875 
L 18.109375 54.6875 
L 18.109375 46.1875 
Q 20.953125 51.171875 25.484375 53.578125 
Q 30.03125 56 36.53125 56 
Q 37.453125 56 38.578125 55.875 
Q 39.703125 55.765625 41.0625 55.515625 
z
" id="DejaVuSans-114"/>
     <path d="M 48.78125 52.59375 
L 48.78125 44.1875 
Q 44.96875 46.296875 41.140625 47.34375 
Q 37.3125 48.390625 33.40625 48.390625 
Q 24.65625 48.390625 19.8125 42.84375 
Q 14.984375 37.3125 14.984375 27.296875 
Q 14.984375 17.28125 19.8125 11.734375 
Q 24.65625 6.203125 33.40625 6.203125 
Q 37.3125 6.203125 41.140625 7.25 
Q 44.96875 8.296875 48.78125 10.40625 
L 48.78125 2.09375 
Q 45.015625 0.34375 40.984375 -0.53125 
Q 36.96875 -1.421875 32.421875 -1.421875 
Q 20.0625 -1.421875 12.78125 6.34375 
Q 5.515625 14.109375 5.515625 27.296875 
Q 5.515625 40.671875 12.859375 48.328125 
Q 20.21875 56 33.015625 56 
Q 37.15625 56 41.109375 55.140625 
Q 45.0625 54.296875 48.78125 52.59375 
z
" id="DejaVuSans-99"/>
     <path d="M 54.890625 54.6875 
L 35.109375 28.078125 
L 55.90625 0 
L 45.3125 0 
L 29.390625 21.484375 
L 13.484375 0 
L 2.875 0 
L 24.125 28.609375 
L 4.6875 54.6875 
L 15.28125 54.6875 
L 29.78125 35.203125 
L 44.28125 54.6875 
z
" id="DejaVuSans-120"/>
     <path d="M 11.71875 12.40625 
L 22.015625 12.40625 
L 22.015625 4 
L 14.015625 -11.625 
L 7.71875 -11.625 
L 11.71875 4 
z
" id="DejaVuSans-44"/>
     <path d="M 9.8125 72.90625 
L 23.09375 72.90625 
L 55.421875 11.921875 
L 55.421875 72.90625 
L 64.984375 72.90625 
L 64.984375 0 
L 51.703125 0 
L 19.390625 60.984375 
L 19.390625 0 
L 9.8125 0 
z
" id="DejaVuSans-78"/>
     <path d="M 8.5 21.578125 
L 8.5 54.6875 
L 17.484375 54.6875 
L 17.484375 21.921875 
Q 17.484375 14.15625 20.5 10.265625 
Q 23.53125 6.390625 29.59375 6.390625 
Q 36.859375 6.390625 41.078125 11.03125 
Q 45.3125 15.671875 45.3125 23.6875 
L 45.3125 54.6875 
L 54.296875 54.6875 
L 54.296875 0 
L 45.3125 0 
L 45.3125 8.40625 
Q 42.046875 3.421875 37.71875 1 
Q 33.40625 -1.421875 27.6875 -1.421875 
Q 18.265625 -1.421875 13.375 4.4375 
Q 8.5 10.296875 8.5 21.578125 
z
M 31.109375 56 
z
" id="DejaVuSans-117"/>
     <path d="M 9.421875 75.984375 
L 18.40625 75.984375 
L 18.40625 0 
L 9.421875 0 
z
" id="DejaVuSans-108"/>
     <path d="M 10.59375 45.40625 
L 73.1875 45.40625 
L 73.1875 37.203125 
L 10.59375 37.203125 
z
M 10.59375 25.484375 
L 73.1875 25.484375 
L 73.1875 17.1875 
L 10.59375 17.1875 
z
" id="DejaVuSans-61"/>
     <path d="M 34.1875 63.1875 
L 20.796875 26.90625 
L 47.609375 26.90625 
z
M 28.609375 72.90625 
L 39.796875 72.90625 
L 67.578125 0 
L 57.328125 0 
L 50.6875 18.703125 
L 17.828125 18.703125 
L 11.1875 0 
L 0.78125 0 
z
" id="DejaVuSans-65"/>
     <path d="M 45.40625 46.390625 
L 45.40625 75.984375 
L 54.390625 75.984375 
L 54.390625 0 
L 45.40625 0 
L 45.40625 8.203125 
Q 42.578125 3.328125 38.25 0.953125 
Q 33.9375 -1.421875 27.875 -1.421875 
Q 17.96875 -1.421875 11.734375 6.484375 
Q 5.515625 14.40625 5.515625 27.296875 
Q 5.515625 40.1875 11.734375 48.09375 
Q 17.96875 56 27.875 56 
Q 33.9375 56 38.25 53.625 
Q 42.578125 51.265625 45.40625 46.390625 
z
M 14.796875 27.296875 
Q 14.796875 17.390625 18.875 11.75 
Q 22.953125 6.109375 30.078125 6.109375 
Q 37.203125 6.109375 41.296875 11.75 
Q 45.40625 17.390625 45.40625 27.296875 
Q 45.40625 37.203125 41.296875 42.84375 
Q 37.203125 48.484375 30.078125 48.484375 
Q 22.953125 48.484375 18.875 42.84375 
Q 14.796875 37.203125 14.796875 27.296875 
z
" id="DejaVuSans-100"/>
     <path d="M 8.203125 72.90625 
L 55.078125 72.90625 
L 55.078125 68.703125 
L 28.609375 0 
L 18.3125 0 
L 43.21875 64.59375 
L 8.203125 64.59375 
z
" id="DejaVuSans-55"/>
    </defs>
    <g transform="translate(110.4775 20.88)scale(0.12 -0.12)">
     <use xlink:href="#DejaVuSans-77"/>
     <use x="86.279297" xlink:href="#DejaVuSans-111"/>
     <use x="147.460938" xlink:href="#DejaVuSans-116"/>
     <use x="186.669922" xlink:href="#DejaVuSans-111"/>
     <use x="247.851562" xlink:href="#DejaVuSans-114"/>
     <use x="288.964844" xlink:href="#DejaVuSans-32"/>
     <use x="320.751953" xlink:href="#DejaVuSans-99"/>
     <use x="375.732422" xlink:href="#DejaVuSans-111"/>
     <use x="436.914062" xlink:href="#DejaVuSans-114"/>
     <use x="478.027344" xlink:href="#DejaVuSans-116"/>
     <use x="517.236328" xlink:href="#DejaVuSans-101"/>
     <use x="578.744141" xlink:href="#DejaVuSans-120"/>
     <use x="637.923828" xlink:href="#DejaVuSans-44"/>
     <use x="669.710938" xlink:href="#DejaVuSans-32"/>
     <use x="701.498047" xlink:href="#DejaVuSans-78"/>
     <use x="776.302734" xlink:href="#DejaVuSans-117"/>
     <use x="839.681641" xlink:href="#DejaVuSans-109"/>
     <use x="937.09375" xlink:href="#DejaVuSans-32"/>
     <use x="968.880859" xlink:href="#DejaVuSans-84"/>
     <use x="1029.746094" xlink:href="#DejaVuSans-114"/>
     <use x="1070.859375" xlink:href="#DejaVuSans-105"/>
     <use x="1098.642578" xlink:href="#DejaVuSans-97"/>
     <use x="1159.921875" xlink:href="#DejaVuSans-108"/>
     <use x="1187.705078" xlink:href="#DejaVuSans-115"/>
     <use x="1239.804688" xlink:href="#DejaVuSans-61"/>
     <use x="1323.59375" xlink:href="#DejaVuSans-49"/>
     <use x="1387.216797" xlink:href="#DejaVuSans-48"/>
     <use x="1450.839844" xlink:href="#DejaVuSans-32"/>
     <use x="1482.626953" xlink:href="#DejaVuSans-65"/>
     <use x="1551.035156" xlink:href="#DejaVuSans-108"/>
     <use x="1578.818359" xlink:href="#DejaVuSans-108"/>
     <use x="1606.601562" xlink:href="#DejaVuSans-32"/>
     <use x="1638.388672" xlink:href="#DejaVuSans-117"/>
     <use x="1701.767578" xlink:href="#DejaVuSans-110"/>
     <use x="1765.146484" xlink:href="#DejaVuSans-115"/>
     <use x="1817.246094" xlink:href="#DejaVuSans-116"/>
     <use x="1856.455078" xlink:href="#DejaVuSans-105"/>
     <use x="1884.238281" xlink:href="#DejaVuSans-109"/>
     <use x="1981.650391" xlink:href="#DejaVuSans-117"/>
     <use x="2045.029297" xlink:href="#DejaVuSans-108"/>
     <use x="2072.8125" xlink:href="#DejaVuSans-97"/>
     <use x="2134.091797" xlink:href="#DejaVuSans-116"/>
     <use x="2173.300781" xlink:href="#DejaVuSans-101"/>
     <use x="2234.824219" xlink:href="#DejaVuSans-100"/>
     <use x="2298.300781" xlink:href="#DejaVuSans-32"/>
     <use x="2330.087891" xlink:href="#DejaVuSans-116"/>
     <use x="2369.296875" xlink:href="#DejaVuSans-114"/>
     <use x="2410.410156" xlink:href="#DejaVuSans-105"/>
     <use x="2438.193359" xlink:href="#DejaVuSans-97"/>
     <use x="2499.472656" xlink:href="#DejaVuSans-108"/>
     <use x="2527.255859" xlink:href="#DejaVuSans-115"/>
     <use x="2579.355469" xlink:href="#DejaVuSans-44"/>
     <use x="2611.142578" xlink:href="#DejaVuSans-32"/>
     <use x="2642.929688" xlink:href="#DejaVuSans-78"/>
     <use x="2717.734375" xlink:href="#DejaVuSans-117"/>
     <use x="2781.113281" xlink:href="#DejaVuSans-109"/>
     <use x="2878.525391" xlink:href="#DejaVuSans-32"/>
     <use x="2910.3125" xlink:href="#DejaVuSans-99"/>
     <use x="2965.292969" xlink:href="#DejaVuSans-101"/>
     <use x="3026.816406" xlink:href="#DejaVuSans-108"/>
     <use x="3054.599609" xlink:href="#DejaVuSans-108"/>
     <use x="3082.382812" xlink:href="#DejaVuSans-115"/>
     <use x="3134.482422" xlink:href="#DejaVuSans-32"/>
     <use x="3166.269531" xlink:href="#DejaVuSans-61"/>
     <use x="3250.058594" xlink:href="#DejaVuSans-32"/>
     <use x="3281.845703" xlink:href="#DejaVuSans-52"/>
     <use x="3345.46875" xlink:href="#DejaVuSans-55"/>
     <use x="3409.091797" xlink:href="#DejaVuSans-49"/>
    </g>
   </g>
   <g id="legend_1">
    <g id="patch_7">
     <path d="M 422.64 71.73375 
L 556.8 71.73375 
Q 559.2 71.73375 559.2 69.33375 
L 559.2 35.28 
Q 559.2 32.88 556.8 32.88 
L 422.64 32.88 
Q 420.24 32.88 420.24 35.28 
L 420.24 69.33375 
Q 420.24 71.73375 422.64 71.73375 
z
" style="fill:#ffffff;opacity:0.8;stroke:#cccccc;stroke-linejoin:miter;"/>
    </g>
    <g id="line2d_12">
     <path d="M 425.04 42.6 
L 449.04 42.6 
" style="fill:none;stroke:#0000ff;stroke-linecap:square;stroke-width:1.5;"/>
    </g>
    <g id="line2d_13"/>
    <g id="text_14">
     <!-- Beta-Binomial $\rho$ -->
     <g transform="translate(458.64 46.8)scale(0.12 -0.12)">
      <use transform="translate(0 0.015625)" xlink:href="#DejaVuSans-66"/>
      <use transform="translate(68.603516 0.015625)" xlink:href="#DejaVuSans-101"/>
      <use transform="translate(130.126953 0.015625)" xlink:href="#DejaVuSans-116"/>
      <use transform="translate(169.335938 0.015625)" xlink:href="#DejaVuSans-97"/>
      <use transform="translate(230.615234 0.015625)" xlink:href="#DejaVuSans-45"/>
      <use transform="translate(266.699219 0.015625)" xlink:href="#DejaVuSans-66"/>
      <use transform="translate(335.302734 0.015625)" xlink:href="#DejaVuSans-105"/>
      <use transform="translate(363.085938 0.015625)" xlink:href="#DejaVuSans-110"/>
      <use transform="translate(426.464844 0.015625)" xlink:href="#DejaVuSans-111"/>
      <use transform="translate(487.646484 0.015625)" xlink:href="#DejaVuSans-109"/>
      <use transform="translate(585.058594 0.015625)" xlink:href="#DejaVuSans-105"/>
      <use transform="translate(612.841797 0.015625)" xlink:href="#DejaVuSans-97"/>
      <use transform="translate(674.121094 0.015625)" xlink:href="#DejaVuSans-108"/>
      <use transform="translate(701.904297 0.015625)" xlink:href="#DejaVuSans-32"/>
      <use transform="translate(733.691406 0.015625)" xlink:href="#DejaVuSans-Oblique-961"/>
     </g>
    </g>
    <g id="patch_8">
     <path d="M 425.04 64.438125 
L 449.04 64.438125 
L 449.04 56.038125 
L 425.04 56.038125 
z
" style="fill:#0000ff;opacity:0.3;stroke:#0000ff;stroke-linejoin:miter;"/>
    </g>
    <g id="text_15">
     <!-- Std. Err. -->
     <defs>
      <path d="M 53.515625 70.515625 
L 53.515625 60.890625 
Q 47.90625 63.578125 42.921875 64.890625 
Q 37.9375 66.21875 33.296875 66.21875 
Q 25.25 66.21875 20.875 63.09375 
Q 16.5 59.96875 16.5 54.203125 
Q 16.5 49.359375 19.40625 46.890625 
Q 22.3125 44.4375 30.421875 42.921875 
L 36.375 41.703125 
Q 47.40625 39.59375 52.65625 34.296875 
Q 57.90625 29 57.90625 20.125 
Q 57.90625 9.515625 50.796875 4.046875 
Q 43.703125 -1.421875 29.984375 -1.421875 
Q 24.8125 -1.421875 18.96875 -0.25 
Q 13.140625 0.921875 6.890625 3.21875 
L 6.890625 13.375 
Q 12.890625 10.015625 18.65625 8.296875 
Q 24.421875 6.59375 29.984375 6.59375 
Q 38.421875 6.59375 43.015625 9.90625 
Q 47.609375 13.234375 47.609375 19.390625 
Q 47.609375 24.75 44.3125 27.78125 
Q 41.015625 30.8125 33.5 32.328125 
L 27.484375 33.5 
Q 16.453125 35.6875 11.515625 40.375 
Q 6.59375 45.0625 6.59375 53.421875 
Q 6.59375 63.09375 13.40625 68.65625 
Q 20.21875 74.21875 32.171875 74.21875 
Q 37.3125 74.21875 42.625 73.28125 
Q 47.953125 72.359375 53.515625 70.515625 
z
" id="DejaVuSans-83"/>
      <path d="M 9.8125 72.90625 
L 55.90625 72.90625 
L 55.90625 64.59375 
L 19.671875 64.59375 
L 19.671875 43.015625 
L 54.390625 43.015625 
L 54.390625 34.71875 
L 19.671875 34.71875 
L 19.671875 8.296875 
L 56.78125 8.296875 
L 56.78125 0 
L 9.8125 0 
z
" id="DejaVuSans-69"/>
     </defs>
     <g transform="translate(458.64 64.438125)scale(0.12 -0.12)">
      <use xlink:href="#DejaVuSans-83"/>
      <use x="63.476562" xlink:href="#DejaVuSans-116"/>
      <use x="102.685547" xlink:href="#DejaVuSans-100"/>
      <use x="166.162109" xlink:href="#DejaVuSans-46"/>
      <use x="197.949219" xlink:href="#DejaVuSans-32"/>
      <use x="229.736328" xlink:href="#DejaVuSans-69"/>
      <use x="292.919922" xlink:href="#DejaVuSans-114"/>
      <use x="334.017578" xlink:href="#DejaVuSans-114"/>
      <use x="374.990234" xlink:href="#DejaVuSans-46"/>
     </g>
    </g>
   </g>
  </g>
 </g>
 <defs>
  <clipPath id="p40d25196dc">
   <rect height="147.88" width="492.73" x="72.47" y="26.88"/>
  </clipPath>
 </defs>
</svg>
