<?xml version="1.0" encoding="utf-8" standalone="no"?>
<!DOCTYPE svg PUBLIC "-//W3C//DTD SVG 1.1//EN"
  "http://www.w3.org/Graphics/SVG/1.1/DTD/svg11.dtd">
<!-- Created with matplotlib (https://matplotlib.org/) -->
<svg height="216pt" version="1.1" viewBox="0 0 648 216" width="648pt" xmlns="http://www.w3.org/2000/svg" xmlns:xlink="http://www.w3.org/1999/xlink">
 <defs>
  <style type="text/css">
*{stroke-linecap:butt;stroke-linejoin:round;}
  </style>
 </defs>
 <g id="figure_1">
  <g id="patch_1">
   <path d="M 0 216 
L 648 216 
L 648 0 
L 0 0 
z
" style="fill:#ffffff;"/>
  </g>
  <g id="axes_1">
   <g id="patch_2">
    <path d="M 81 192.24 
L 583.2 192.24 
L 583.2 25.92 
L 81 25.92 
z
" style="fill:#ffffff;"/>
   </g>
   <g id="PolyCollection_1">
    <defs>
     <path d="M 156.33 -23.76 
L 156.33 -190.08 
L 420.645789 -190.08 
L 420.645789 -23.76 
L 420.645789 -23.76 
L 156.33 -23.76 
z
" id="mcba60abd21" style="stroke:#808080;stroke-opacity:0.3;"/>
    </defs>
    <g clip-path="url(#p07a00d3b9a)">
     <use style="fill:#808080;fill-opacity:0.3;stroke:#808080;stroke-opacity:0.3;" x="0" xlink:href="#mcba60abd21" y="216"/>
    </g>
   </g>
   <g id="PolyCollection_2">
    <defs>
     <path d="M 81 -121.928833 
L 81 -92.705964 
L 82.762105 -85.735097 
L 84.524211 -75.893625 
L 86.286316 -85.715131 
L 88.048421 -79.453027 
L 89.810526 -74.888592 
L 91.572632 -75.594484 
L 93.334737 -74.636619 
L 95.096842 -72.492665 
L 96.858947 -83.82042 
L 98.621053 -89.659704 
L 100.383158 -99.378778 
L 102.145263 -95.769372 
L 103.907368 -99.700768 
L 105.669474 -72.847538 
L 107.431579 -77.424494 
L 109.193684 -77.568218 
L 110.955789 -60.092327 
L 112.717895 -51.338683 
L 114.48 -48.955863 
L 116.242105 -44.422325 
L 118.004211 -42.408558 
L 119.766316 -47.806529 
L 121.528421 -40.292213 
L 123.290526 -44.642219 
L 125.052632 -43.702419 
L 126.814737 -43.166949 
L 128.576842 -38.996643 
L 130.338947 -40.568383 
L 132.101053 -35.876981 
L 133.863158 -32.133608 
L 135.625263 -25.193273 
L 137.387368 -26.228722 
L 139.149474 -23.76 
L 140.911579 -29.653612 
L 142.673684 -34.307662 
L 144.435789 -39.542351 
L 146.197895 -46.028655 
L 147.96 -56.399024 
L 149.722105 -54.926118 
L 151.484211 -58.902332 
L 153.246316 -61.619005 
L 155.008421 -57.310345 
L 156.770526 -64.651227 
L 158.532632 -68.389481 
L 160.294737 -66.249197 
L 162.056842 -70.8875 
L 163.818947 -83.209643 
L 165.581053 -83.2258 
L 167.343158 -86.553969 
L 169.105263 -85.285141 
L 170.867368 -85.329767 
L 172.629474 -92.273174 
L 174.391579 -92.158176 
L 176.153684 -90.122537 
L 177.915789 -96.487855 
L 179.677895 -97.667416 
L 181.44 -94.707011 
L 183.202105 -97.661623 
L 184.964211 -105.949102 
L 186.726316 -111.387607 
L 188.488421 -107.773944 
L 190.250526 -114.630275 
L 192.012632 -109.320505 
L 193.774737 -106.58113 
L 195.536842 -119.331256 
L 197.298947 -118.999787 
L 199.061053 -122.718982 
L 200.823158 -124.782881 
L 202.585263 -127.135683 
L 204.347368 -122.155829 
L 206.109474 -123.858541 
L 207.871579 -122.456553 
L 209.633684 -123.144886 
L 211.395789 -125.416834 
L 213.157895 -119.786714 
L 214.92 -118.847654 
L 216.682105 -126.607806 
L 218.444211 -125.583843 
L 220.206316 -128.820007 
L 221.968421 -128.839779 
L 223.730526 -131.092054 
L 225.492632 -127.757982 
L 227.254737 -110.461155 
L 229.016842 -112.389768 
L 230.778947 -113.789406 
L 232.541053 -114.295217 
L 234.303158 -113.368553 
L 236.065263 -115.222781 
L 237.827368 -120.133582 
L 239.589474 -124.117378 
L 241.351579 -117.739827 
L 243.113684 -105.821467 
L 244.875789 -105.27284 
L 246.637895 -95.885512 
L 248.4 -95.279651 
L 250.162105 -94.574876 
L 251.924211 -88.369975 
L 253.686316 -93.753657 
L 255.448421 -92.306843 
L 257.210526 -80.844525 
L 258.972632 -80.107966 
L 260.734737 -74.394563 
L 262.496842 -89.276212 
L 264.258947 -94.666844 
L 266.021053 -90.308158 
L 267.783158 -80.245025 
L 269.545263 -78.053455 
L 271.307368 -75.927132 
L 273.069474 -68.191474 
L 274.831579 -66.730309 
L 276.593684 -67.477641 
L 278.355789 -71.462937 
L 280.117895 -75.423653 
L 281.88 -75.444946 
L 283.642105 -72.308533 
L 285.404211 -75.23787 
L 287.166316 -68.287584 
L 288.928421 -69.678293 
L 290.690526 -73.653738 
L 292.452632 -82.891674 
L 294.214737 -79.881941 
L 295.976842 -83.33382 
L 297.738947 -79.271243 
L 299.501053 -78.468013 
L 301.263158 -78.716125 
L 303.025263 -88.270868 
L 304.787368 -78.560864 
L 306.549474 -75.438018 
L 308.311579 -76.250159 
L 310.073684 -75.77044 
L 311.835789 -75.009068 
L 313.597895 -82.331515 
L 315.36 -84.164047 
L 317.122105 -90.348727 
L 318.884211 -83.229805 
L 320.646316 -84.81468 
L 322.408421 -91.036681 
L 324.170526 -90.541104 
L 325.932632 -93.528236 
L 327.694737 -92.248819 
L 329.456842 -96.891626 
L 331.218947 -98.084884 
L 332.981053 -103.493672 
L 334.743158 -104.786938 
L 336.505263 -102.58793 
L 338.267368 -100.081624 
L 340.029474 -93.39956 
L 341.791579 -96.254218 
L 343.553684 -101.777527 
L 345.315789 -103.162937 
L 347.077895 -101.895434 
L 348.84 -99.197348 
L 350.602105 -96.549135 
L 352.364211 -87.964148 
L 354.126316 -86.42989 
L 355.888421 -82.147878 
L 357.650526 -81.271736 
L 359.412632 -80.967529 
L 361.174737 -77.03889 
L 362.936842 -74.252455 
L 364.698947 -66.620312 
L 366.461053 -78.421607 
L 368.223158 -76.528764 
L 369.985263 -72.007631 
L 371.747368 -69.648617 
L 373.509474 -83.222877 
L 375.271579 -97.699611 
L 377.033684 -92.759805 
L 378.795789 -95.663718 
L 380.557895 -102.780625 
L 382.32 -112.925446 
L 384.082105 -107.630762 
L 385.844211 -112.134484 
L 387.606316 -112.303066 
L 389.368421 -110.44541 
L 391.130526 -109.027753 
L 392.892632 -109.174308 
L 394.654737 -108.968169 
L 396.416842 -109.100329 
L 398.178947 -119.079203 
L 399.941053 -122.87452 
L 401.703158 -122.231794 
L 403.465263 -124.554367 
L 405.227368 -122.451051 
L 406.989474 -128.847583 
L 408.751579 -119.120728 
L 410.513684 -121.019921 
L 412.275789 -118.464552 
L 414.037895 -126.418398 
L 415.8 -131.481834 
L 417.562105 -127.782428 
L 419.324211 -126.10496 
L 421.086316 -123.161136 
L 422.848421 -119.858966 
L 424.610526 -121.985208 
L 426.372632 -127.638024 
L 428.134737 -128.302083 
L 429.896842 -128.219151 
L 431.658947 -134.553656 
L 433.421053 -124.280931 
L 435.183158 -123.691558 
L 436.945263 -120.711939 
L 438.707368 -117.159742 
L 440.469474 -100.528373 
L 442.231579 -93.524443 
L 443.993684 -98.114157 
L 445.755789 -89.168761 
L 447.517895 -92.217469 
L 449.28 -82.625664 
L 451.042105 -85.07974 
L 452.804211 -82.03057 
L 454.566316 -86.026254 
L 456.328421 -82.771697 
L 458.090526 -85.997029 
L 459.852632 -83.102467 
L 461.614737 -82.873957 
L 463.376842 -75.207419 
L 465.138947 -74.632505 
L 466.901053 -68.216771 
L 468.663158 -61.324079 
L 470.425263 -60.181627 
L 472.187368 -54.964504 
L 473.949474 -52.519158 
L 475.711579 -46.485915 
L 477.473684 -51.918763 
L 479.235789 -52.473075 
L 480.997895 -56.647256 
L 482.76 -62.76989 
L 484.522105 -75.385192 
L 486.284211 -73.251884 
L 488.046316 -75.889004 
L 489.808421 -80.370483 
L 491.570526 -80.843798 
L 493.332632 -74.955045 
L 495.094737 -79.673929 
L 496.856842 -82.257417 
L 498.618947 -88.585883 
L 500.381053 -93.01285 
L 502.143158 -104.379512 
L 503.905263 -103.557355 
L 505.667368 -102.273456 
L 507.429474 -104.478553 
L 509.191579 -104.513485 
L 510.953684 -102.757713 
L 512.715789 -97.141511 
L 514.477895 -97.780788 
L 516.24 -98.791157 
L 518.002105 -98.44691 
L 519.764211 -95.06084 
L 521.526316 -91.296847 
L 523.288421 -91.305004 
L 525.050526 -83.261092 
L 526.812632 -79.408343 
L 528.574737 -82.484397 
L 530.336842 -85.62945 
L 532.098947 -79.292533 
L 533.861053 -82.313715 
L 535.623158 -79.8001 
L 537.385263 -82.875775 
L 539.147368 -82.619394 
L 540.909474 -77.53925 
L 542.671579 -72.444778 
L 544.433684 -64.895463 
L 546.195789 -62.976361 
L 547.957895 -62.481012 
L 549.72 -61.619697 
L 551.482105 -77.757117 
L 553.244211 -85.381948 
L 555.006316 -94.047005 
L 556.768421 -93.258573 
L 558.530526 -82.234154 
L 560.292632 -89.701966 
L 562.054737 -89.906679 
L 563.816842 -95.485661 
L 565.578947 -86.867625 
L 567.341053 -88.028442 
L 569.103158 -87.305531 
L 570.865263 -81.725977 
L 572.627368 -75.738369 
L 574.389474 -74.893152 
L 576.151579 -75.504368 
L 577.913684 -76.793289 
L 579.675789 -85.407085 
L 581.437895 -83.601362 
L 583.2 -87.288805 
L 583.2 -112.349066 
L 583.2 -112.349066 
L 581.437895 -110.188631 
L 579.675789 -110.584218 
L 577.913684 -100.732525 
L 576.151579 -99.91209 
L 574.389474 -97.667279 
L 572.627368 -96.240116 
L 570.865263 -111.115497 
L 569.103158 -109.607073 
L 567.341053 -117.273376 
L 565.578947 -119.14669 
L 563.816842 -125.909472 
L 562.054737 -117.833827 
L 560.292632 -117.293206 
L 558.530526 -105.949242 
L 556.768421 -122.058787 
L 555.006316 -129.389266 
L 553.244211 -119.14846 
L 551.482105 -109.730757 
L 549.72 -95.263792 
L 547.957895 -105.735493 
L 546.195789 -102.240283 
L 544.433684 -112.654725 
L 542.671579 -120.799414 
L 540.909474 -124.808046 
L 539.147368 -134.126497 
L 537.385263 -133.135545 
L 535.623158 -127.878854 
L 533.861053 -127.24359 
L 532.098947 -117.354217 
L 530.336842 -117.160904 
L 528.574737 -110.546505 
L 526.812632 -103.966182 
L 525.050526 -105.840478 
L 523.288421 -114.526406 
L 521.526316 -112.808472 
L 519.764211 -114.930863 
L 518.002105 -117.260796 
L 516.24 -120.297333 
L 514.477895 -117.707582 
L 512.715789 -129.390696 
L 510.953684 -138.758805 
L 509.191579 -134.299914 
L 507.429474 -131.278343 
L 505.667368 -131.946244 
L 503.905263 -129.084686 
L 502.143158 -130.959177 
L 500.381053 -127.881382 
L 498.618947 -115.568677 
L 496.856842 -116.445773 
L 495.094737 -112.999888 
L 493.332632 -111.433037 
L 491.570526 -124.007463 
L 489.808421 -123.0339 
L 488.046316 -114.552494 
L 486.284211 -112.790712 
L 484.522105 -107.966868 
L 482.76 -89.568657 
L 480.997895 -90.504695 
L 479.235789 -82.126389 
L 477.473684 -82.752071 
L 475.711579 -78.113559 
L 473.949474 -82.717675 
L 472.187368 -83.843677 
L 470.425263 -91.565859 
L 468.663158 -91.48616 
L 466.901053 -101.727722 
L 465.138947 -107.896766 
L 463.376842 -104.74592 
L 461.614737 -122.491355 
L 459.852632 -113.464297 
L 458.090526 -118.272417 
L 456.328421 -120.379192 
L 454.566316 -125.999113 
L 452.804211 -123.215304 
L 451.042105 -132.600122 
L 449.28 -124.808374 
L 447.517895 -136.020736 
L 445.755789 -136.363637 
L 443.993684 -152.033602 
L 442.231579 -137.267779 
L 440.469474 -140.487863 
L 438.707368 -156.676285 
L 436.945263 -158.451235 
L 435.183158 -167.659656 
L 433.421053 -160.968024 
L 431.658947 -190.08 
L 429.896842 -172.30533 
L 428.134737 -169.924679 
L 426.372632 -167.799737 
L 424.610526 -157.205482 
L 422.848421 -153.141127 
L 421.086316 -164.630621 
L 419.324211 -177.374596 
L 417.562105 -177.713701 
L 415.8 -183.444865 
L 414.037895 -177.123492 
L 412.275789 -169.485766 
L 410.513684 -162.224006 
L 408.751579 -164.657837 
L 406.989474 -181.104716 
L 405.227368 -160.986102 
L 403.465263 -165.415339 
L 401.703158 -161.646933 
L 399.941053 -157.386233 
L 398.178947 -149.712163 
L 396.416842 -137.44773 
L 394.654737 -139.596138 
L 392.892632 -138.241628 
L 391.130526 -141.222299 
L 389.368421 -146.864352 
L 387.606316 -149.013431 
L 385.844211 -144.12222 
L 384.082105 -132.530733 
L 382.32 -143.529807 
L 380.557895 -126.299181 
L 378.795789 -115.872919 
L 377.033684 -115.218778 
L 375.271579 -120.195324 
L 373.509474 -104.097195 
L 371.747368 -96.259061 
L 369.985263 -104.036832 
L 368.223158 -101.42364 
L 366.461053 -111.207104 
L 364.698947 -94.999884 
L 362.936842 -99.293897 
L 361.174737 -108.388937 
L 359.412632 -111.342213 
L 357.650526 -113.842996 
L 355.888421 -115.721108 
L 354.126316 -124.663351 
L 352.364211 -126.442028 
L 350.602105 -134.937719 
L 348.84 -138.184343 
L 347.077895 -142.643452 
L 345.315789 -143.440123 
L 343.553684 -142.291425 
L 341.791579 -134.630192 
L 340.029474 -125.758351 
L 338.267368 -127.963978 
L 336.505263 -133.28048 
L 334.743158 -132.785471 
L 332.981053 -131.85533 
L 331.218947 -126.99274 
L 329.456842 -124.06908 
L 327.694737 -120.876152 
L 325.932632 -120.402449 
L 324.170526 -119.262866 
L 322.408421 -119.753012 
L 320.646316 -115.274039 
L 318.884211 -117.088265 
L 317.122105 -120.047493 
L 315.36 -112.860667 
L 313.597895 -111.926487 
L 311.835789 -107.449843 
L 310.073684 -108.999915 
L 308.311579 -109.313159 
L 306.549474 -112.822655 
L 304.787368 -111.363895 
L 303.025263 -125.961895 
L 301.263158 -116.464267 
L 299.501053 -114.10038 
L 297.738947 -115.70591 
L 295.976842 -119.846588 
L 294.214737 -115.275672 
L 292.452632 -126.834173 
L 290.690526 -115.574203 
L 288.928421 -111.853206 
L 287.166316 -109.49477 
L 285.404211 -120.465423 
L 283.642105 -108.146978 
L 281.88 -113.218108 
L 280.117895 -110.935103 
L 278.355789 -107.901697 
L 276.593684 -103.34652 
L 274.831579 -100.01073 
L 273.069474 -101.067092 
L 271.307368 -113.48369 
L 269.545263 -117.271445 
L 267.783158 -118.830172 
L 266.021053 -127.918608 
L 264.258947 -135.308056 
L 262.496842 -133.783871 
L 260.734737 -111.415887 
L 258.972632 -118.523553 
L 257.210526 -120.120503 
L 255.448421 -126.855034 
L 253.686316 -136.858925 
L 251.924211 -119.505348 
L 250.162105 -138.269284 
L 248.4 -137.529587 
L 246.637895 -133.427831 
L 244.875789 -143.937171 
L 243.113684 -145.902765 
L 241.351579 -160.61181 
L 239.589474 -163.619685 
L 237.827368 -173.326161 
L 236.065263 -163.164043 
L 234.303158 -161.595206 
L 232.541053 -158.639096 
L 230.778947 -164.184911 
L 229.016842 -161.408772 
L 227.254737 -161.800626 
L 225.492632 -175.588493 
L 223.730526 -178.43148 
L 221.968421 -171.458063 
L 220.206316 -173.783917 
L 218.444211 -159.390395 
L 216.682105 -167.631652 
L 214.92 -150.783993 
L 213.157895 -151.300235 
L 211.395789 -162.220954 
L 209.633684 -158.82703 
L 207.871579 -160.950926 
L 206.109474 -170.082208 
L 204.347368 -169.045051 
L 202.585263 -162.654914 
L 200.823158 -160.003218 
L 199.061053 -158.721037 
L 197.298947 -154.131312 
L 195.536842 -151.577539 
L 193.774737 -138.610551 
L 192.012632 -146.075527 
L 190.250526 -152.599615 
L 188.488421 -147.435095 
L 186.726316 -150.743965 
L 184.964211 -150.593713 
L 183.202105 -150.760009 
L 181.44 -139.668312 
L 179.677895 -148.510754 
L 177.915789 -152.191155 
L 176.153684 -142.601516 
L 174.391579 -143.07926 
L 172.629474 -139.130322 
L 170.867368 -124.256246 
L 169.105263 -129.96257 
L 167.343158 -136.885469 
L 165.581053 -129.483884 
L 163.818947 -131.743833 
L 162.056842 -114.986305 
L 160.294737 -113.127464 
L 158.532632 -117.441135 
L 156.770526 -113.966117 
L 155.008421 -97.68649 
L 153.246316 -98.401555 
L 151.484211 -96.297296 
L 149.722105 -93.338182 
L 147.96 -96.816446 
L 146.197895 -96.221869 
L 144.435789 -88.488168 
L 142.673684 -81.574155 
L 140.911579 -71.038786 
L 139.149474 -64.42891 
L 137.387368 -67.126755 
L 135.625263 -64.326047 
L 133.863158 -69.661503 
L 132.101053 -75.220079 
L 130.338947 -84.519161 
L 128.576842 -80.717688 
L 126.814737 -86.79136 
L 125.052632 -86.952814 
L 123.290526 -87.591047 
L 121.528421 -81.729689 
L 119.766316 -95.931103 
L 118.004211 -92.231516 
L 116.242105 -94.973683 
L 114.48 -93.065505 
L 112.717895 -92.147365 
L 110.955789 -94.710551 
L 109.193684 -110.976371 
L 107.431579 -116.013306 
L 105.669474 -111.562307 
L 103.907368 -125.903249 
L 102.145263 -132.971533 
L 100.383158 -138.047907 
L 98.621053 -134.592549 
L 96.858947 -122.138966 
L 95.096842 -104.664831 
L 93.334737 -104.262149 
L 91.572632 -104.208252 
L 89.810526 -94.866239 
L 88.048421 -102.26281 
L 86.286316 -107.549064 
L 84.524211 -96.254531 
L 82.762105 -110.005534 
L 81 -121.928833 
z
" id="mf1fd3397fa" style="stroke:#0000ff;stroke-opacity:0.3;"/>
    </defs>
    <g clip-path="url(#p07a00d3b9a)">
     <use style="fill:#0000ff;fill-opacity:0.3;stroke:#0000ff;stroke-opacity:0.3;" x="0" xlink:href="#mf1fd3397fa" y="216"/>
    </g>
   </g>
   <g id="matplotlib.axis_1">
    <g id="xtick_1">
     <g id="line2d_1">
      <defs>
       <path d="M 0 0 
L 0 3.5 
" id="me87a001e48" style="stroke:#000000;stroke-width:0.8;"/>
      </defs>
      <g>
       <use style="stroke:#000000;stroke-width:0.8;" x="156.33" xlink:href="#me87a001e48" y="192.24"/>
      </g>
     </g>
     <g id="text_1">
      <!-- 0.0 -->
      <defs>
       <path d="M 31.78125 66.40625 
Q 24.171875 66.40625 20.328125 58.90625 
Q 16.5 51.421875 16.5 36.375 
Q 16.5 21.390625 20.328125 13.890625 
Q 24.171875 6.390625 31.78125 6.390625 
Q 39.453125 6.390625 43.28125 13.890625 
Q 47.125 21.390625 47.125 36.375 
Q 47.125 51.421875 43.28125 58.90625 
Q 39.453125 66.40625 31.78125 66.40625 
z
M 31.78125 74.21875 
Q 44.046875 74.21875 50.515625 64.515625 
Q 56.984375 54.828125 56.984375 36.375 
Q 56.984375 17.96875 50.515625 8.265625 
Q 44.046875 -1.421875 31.78125 -1.421875 
Q 19.53125 -1.421875 13.0625 8.265625 
Q 6.59375 17.96875 6.59375 36.375 
Q 6.59375 54.828125 13.0625 64.515625 
Q 19.53125 74.21875 31.78125 74.21875 
z
" id="DejaVuSans-48"/>
       <path d="M 10.6875 12.40625 
L 21 12.40625 
L 21 0 
L 10.6875 0 
z
" id="DejaVuSans-46"/>
      </defs>
      <g transform="translate(146.788125 208.358125)scale(0.12 -0.12)">
       <use xlink:href="#DejaVuSans-48"/>
       <use x="63.623047" xlink:href="#DejaVuSans-46"/>
       <use x="95.410156" xlink:href="#DejaVuSans-48"/>
      </g>
     </g>
    </g>
    <g id="xtick_2">
     <g id="line2d_2">
      <g>
       <use style="stroke:#000000;stroke-width:0.8;" x="244.435263" xlink:href="#me87a001e48" y="192.24"/>
      </g>
     </g>
     <g id="text_2">
      <!-- 0.5 -->
      <defs>
       <path d="M 10.796875 72.90625 
L 49.515625 72.90625 
L 49.515625 64.59375 
L 19.828125 64.59375 
L 19.828125 46.734375 
Q 21.96875 47.46875 24.109375 47.828125 
Q 26.265625 48.1875 28.421875 48.1875 
Q 40.625 48.1875 47.75 41.5 
Q 54.890625 34.8125 54.890625 23.390625 
Q 54.890625 11.625 47.5625 5.09375 
Q 40.234375 -1.421875 26.90625 -1.421875 
Q 22.3125 -1.421875 17.546875 -0.640625 
Q 12.796875 0.140625 7.71875 1.703125 
L 7.71875 11.625 
Q 12.109375 9.234375 16.796875 8.0625 
Q 21.484375 6.890625 26.703125 6.890625 
Q 35.15625 6.890625 40.078125 11.328125 
Q 45.015625 15.765625 45.015625 23.390625 
Q 45.015625 31 40.078125 35.4375 
Q 35.15625 39.890625 26.703125 39.890625 
Q 22.75 39.890625 18.8125 39.015625 
Q 14.890625 38.140625 10.796875 36.28125 
z
" id="DejaVuSans-53"/>
      </defs>
      <g transform="translate(234.893388 208.358125)scale(0.12 -0.12)">
       <use xlink:href="#DejaVuSans-48"/>
       <use x="63.623047" xlink:href="#DejaVuSans-46"/>
       <use x="95.410156" xlink:href="#DejaVuSans-53"/>
      </g>
     </g>
    </g>
    <g id="xtick_3">
     <g id="line2d_3">
      <g>
       <use style="stroke:#000000;stroke-width:0.8;" x="332.540526" xlink:href="#me87a001e48" y="192.24"/>
      </g>
     </g>
     <g id="text_3">
      <!-- 1.0 -->
      <defs>
       <path d="M 12.40625 8.296875 
L 28.515625 8.296875 
L 28.515625 63.921875 
L 10.984375 60.40625 
L 10.984375 69.390625 
L 28.421875 72.90625 
L 38.28125 72.90625 
L 38.28125 8.296875 
L 54.390625 8.296875 
L 54.390625 0 
L 12.40625 0 
z
" id="DejaVuSans-49"/>
      </defs>
      <g transform="translate(322.998651 208.358125)scale(0.12 -0.12)">
       <use xlink:href="#DejaVuSans-49"/>
       <use x="63.623047" xlink:href="#DejaVuSans-46"/>
       <use x="95.410156" xlink:href="#DejaVuSans-48"/>
      </g>
     </g>
    </g>
    <g id="xtick_4">
     <g id="line2d_4">
      <g>
       <use style="stroke:#000000;stroke-width:0.8;" x="420.645789" xlink:href="#me87a001e48" y="192.24"/>
      </g>
     </g>
     <g id="text_4">
      <!-- 1.5 -->
      <g transform="translate(411.103914 208.358125)scale(0.12 -0.12)">
       <use xlink:href="#DejaVuSans-49"/>
       <use x="63.623047" xlink:href="#DejaVuSans-46"/>
       <use x="95.410156" xlink:href="#DejaVuSans-53"/>
      </g>
     </g>
    </g>
    <g id="xtick_5">
     <g id="line2d_5">
      <g>
       <use style="stroke:#000000;stroke-width:0.8;" x="508.751053" xlink:href="#me87a001e48" y="192.24"/>
      </g>
     </g>
     <g id="text_5">
      <!-- 2.0 -->
      <defs>
       <path d="M 19.1875 8.296875 
L 53.609375 8.296875 
L 53.609375 0 
L 7.328125 0 
L 7.328125 8.296875 
Q 12.9375 14.109375 22.625 23.890625 
Q 32.328125 33.6875 34.8125 36.53125 
Q 39.546875 41.84375 41.421875 45.53125 
Q 43.3125 49.21875 43.3125 52.78125 
Q 43.3125 58.59375 39.234375 62.25 
Q 35.15625 65.921875 28.609375 65.921875 
Q 23.96875 65.921875 18.8125 64.3125 
Q 13.671875 62.703125 7.8125 59.421875 
L 7.8125 69.390625 
Q 13.765625 71.78125 18.9375 73 
Q 24.125 74.21875 28.421875 74.21875 
Q 39.75 74.21875 46.484375 68.546875 
Q 53.21875 62.890625 53.21875 53.421875 
Q 53.21875 48.921875 51.53125 44.890625 
Q 49.859375 40.875 45.40625 35.40625 
Q 44.1875 33.984375 37.640625 27.21875 
Q 31.109375 20.453125 19.1875 8.296875 
z
" id="DejaVuSans-50"/>
      </defs>
      <g transform="translate(499.209178 208.358125)scale(0.12 -0.12)">
       <use xlink:href="#DejaVuSans-50"/>
       <use x="63.623047" xlink:href="#DejaVuSans-46"/>
       <use x="95.410156" xlink:href="#DejaVuSans-48"/>
      </g>
     </g>
    </g>
    <g id="text_6">
     <!-- Time (s) -->
     <defs>
      <path d="M -0.296875 72.90625 
L 61.375 72.90625 
L 61.375 64.59375 
L 35.5 64.59375 
L 35.5 0 
L 25.59375 0 
L 25.59375 64.59375 
L -0.296875 64.59375 
z
" id="DejaVuSans-84"/>
      <path d="M 9.421875 54.6875 
L 18.40625 54.6875 
L 18.40625 0 
L 9.421875 0 
z
M 9.421875 75.984375 
L 18.40625 75.984375 
L 18.40625 64.59375 
L 9.421875 64.59375 
z
" id="DejaVuSans-105"/>
      <path d="M 52 44.1875 
Q 55.375 50.25 60.0625 53.125 
Q 64.75 56 71.09375 56 
Q 79.640625 56 84.28125 50.015625 
Q 88.921875 44.046875 88.921875 33.015625 
L 88.921875 0 
L 79.890625 0 
L 79.890625 32.71875 
Q 79.890625 40.578125 77.09375 44.375 
Q 74.3125 48.1875 68.609375 48.1875 
Q 61.625 48.1875 57.5625 43.546875 
Q 53.515625 38.921875 53.515625 30.90625 
L 53.515625 0 
L 44.484375 0 
L 44.484375 32.71875 
Q 44.484375 40.625 41.703125 44.40625 
Q 38.921875 48.1875 33.109375 48.1875 
Q 26.21875 48.1875 22.15625 43.53125 
Q 18.109375 38.875 18.109375 30.90625 
L 18.109375 0 
L 9.078125 0 
L 9.078125 54.6875 
L 18.109375 54.6875 
L 18.109375 46.1875 
Q 21.1875 51.21875 25.484375 53.609375 
Q 29.78125 56 35.6875 56 
Q 41.65625 56 45.828125 52.96875 
Q 50 49.953125 52 44.1875 
z
" id="DejaVuSans-109"/>
      <path d="M 56.203125 29.59375 
L 56.203125 25.203125 
L 14.890625 25.203125 
Q 15.484375 15.921875 20.484375 11.0625 
Q 25.484375 6.203125 34.421875 6.203125 
Q 39.59375 6.203125 44.453125 7.46875 
Q 49.3125 8.734375 54.109375 11.28125 
L 54.109375 2.78125 
Q 49.265625 0.734375 44.1875 -0.34375 
Q 39.109375 -1.421875 33.890625 -1.421875 
Q 20.796875 -1.421875 13.15625 6.1875 
Q 5.515625 13.8125 5.515625 26.8125 
Q 5.515625 40.234375 12.765625 48.109375 
Q 20.015625 56 32.328125 56 
Q 43.359375 56 49.78125 48.890625 
Q 56.203125 41.796875 56.203125 29.59375 
z
M 47.21875 32.234375 
Q 47.125 39.59375 43.09375 43.984375 
Q 39.0625 48.390625 32.421875 48.390625 
Q 24.90625 48.390625 20.390625 44.140625 
Q 15.875 39.890625 15.1875 32.171875 
z
" id="DejaVuSans-101"/>
      <path id="DejaVuSans-32"/>
      <path d="M 31 75.875 
Q 24.46875 64.65625 21.28125 53.65625 
Q 18.109375 42.671875 18.109375 31.390625 
Q 18.109375 20.125 21.3125 9.0625 
Q 24.515625 -2 31 -13.1875 
L 23.1875 -13.1875 
Q 15.875 -1.703125 12.234375 9.375 
Q 8.59375 20.453125 8.59375 31.390625 
Q 8.59375 42.28125 12.203125 53.3125 
Q 15.828125 64.359375 23.1875 75.875 
z
" id="DejaVuSans-40"/>
      <path d="M 44.28125 53.078125 
L 44.28125 44.578125 
Q 40.484375 46.53125 36.375 47.5 
Q 32.28125 48.484375 27.875 48.484375 
Q 21.1875 48.484375 17.84375 46.4375 
Q 14.5 44.390625 14.5 40.28125 
Q 14.5 37.15625 16.890625 35.375 
Q 19.28125 33.59375 26.515625 31.984375 
L 29.59375 31.296875 
Q 39.15625 29.25 43.1875 25.515625 
Q 47.21875 21.78125 47.21875 15.09375 
Q 47.21875 7.46875 41.1875 3.015625 
Q 35.15625 -1.421875 24.609375 -1.421875 
Q 20.21875 -1.421875 15.453125 -0.5625 
Q 10.6875 0.296875 5.421875 2 
L 5.421875 11.28125 
Q 10.40625 8.6875 15.234375 7.390625 
Q 20.0625 6.109375 24.8125 6.109375 
Q 31.15625 6.109375 34.5625 8.28125 
Q 37.984375 10.453125 37.984375 14.40625 
Q 37.984375 18.0625 35.515625 20.015625 
Q 33.0625 21.96875 24.703125 23.78125 
L 21.578125 24.515625 
Q 13.234375 26.265625 9.515625 29.90625 
Q 5.8125 33.546875 5.8125 39.890625 
Q 5.8125 47.609375 11.28125 51.796875 
Q 16.75 56 26.8125 56 
Q 31.78125 56 36.171875 55.265625 
Q 40.578125 54.546875 44.28125 53.078125 
z
" id="DejaVuSans-115"/>
      <path d="M 8.015625 75.875 
L 15.828125 75.875 
Q 23.140625 64.359375 26.78125 53.3125 
Q 30.421875 42.28125 30.421875 31.390625 
Q 30.421875 20.453125 26.78125 9.375 
Q 23.140625 -1.703125 15.828125 -13.1875 
L 8.015625 -13.1875 
Q 14.5 -2 17.703125 9.0625 
Q 20.90625 20.125 20.90625 31.390625 
Q 20.90625 42.671875 17.703125 53.65625 
Q 14.5 64.65625 8.015625 75.875 
z
" id="DejaVuSans-41"/>
     </defs>
     <g transform="translate(302.60475 225.7955)scale(0.144 -0.144)">
      <use xlink:href="#DejaVuSans-84"/>
      <use x="61.037109" xlink:href="#DejaVuSans-105"/>
      <use x="88.820312" xlink:href="#DejaVuSans-109"/>
      <use x="186.232422" xlink:href="#DejaVuSans-101"/>
      <use x="247.755859" xlink:href="#DejaVuSans-32"/>
      <use x="279.542969" xlink:href="#DejaVuSans-40"/>
      <use x="318.556641" xlink:href="#DejaVuSans-115"/>
      <use x="370.65625" xlink:href="#DejaVuSans-41"/>
     </g>
    </g>
   </g>
   <g id="matplotlib.axis_2">
    <g id="ytick_1">
     <g id="line2d_6">
      <defs>
       <path d="M 0 0 
L -3.5 0 
" id="m2d7f02eb6c" style="stroke:#000000;stroke-width:0.8;"/>
      </defs>
      <g>
       <use style="stroke:#000000;stroke-width:0.8;" x="81" xlink:href="#m2d7f02eb6c" y="168.591666"/>
      </g>
     </g>
     <g id="text_7">
      <!-- 0.4 -->
      <defs>
       <path d="M 37.796875 64.3125 
L 12.890625 25.390625 
L 37.796875 25.390625 
z
M 35.203125 72.90625 
L 47.609375 72.90625 
L 47.609375 25.390625 
L 58.015625 25.390625 
L 58.015625 17.1875 
L 47.609375 17.1875 
L 47.609375 0 
L 37.796875 0 
L 37.796875 17.1875 
L 4.890625 17.1875 
L 4.890625 26.703125 
z
" id="DejaVuSans-52"/>
      </defs>
      <g transform="translate(54.91625 173.150729)scale(0.12 -0.12)">
       <use xlink:href="#DejaVuSans-48"/>
       <use x="63.623047" xlink:href="#DejaVuSans-46"/>
       <use x="95.410156" xlink:href="#DejaVuSans-52"/>
      </g>
     </g>
    </g>
    <g id="ytick_2">
     <g id="line2d_7">
      <g>
       <use style="stroke:#000000;stroke-width:0.8;" x="81" xlink:href="#m2d7f02eb6c" y="135.320019"/>
      </g>
     </g>
     <g id="text_8">
      <!-- 0.6 -->
      <defs>
       <path d="M 33.015625 40.375 
Q 26.375 40.375 22.484375 35.828125 
Q 18.609375 31.296875 18.609375 23.390625 
Q 18.609375 15.53125 22.484375 10.953125 
Q 26.375 6.390625 33.015625 6.390625 
Q 39.65625 6.390625 43.53125 10.953125 
Q 47.40625 15.53125 47.40625 23.390625 
Q 47.40625 31.296875 43.53125 35.828125 
Q 39.65625 40.375 33.015625 40.375 
z
M 52.59375 71.296875 
L 52.59375 62.3125 
Q 48.875 64.0625 45.09375 64.984375 
Q 41.3125 65.921875 37.59375 65.921875 
Q 27.828125 65.921875 22.671875 59.328125 
Q 17.53125 52.734375 16.796875 39.40625 
Q 19.671875 43.65625 24.015625 45.921875 
Q 28.375 48.1875 33.59375 48.1875 
Q 44.578125 48.1875 50.953125 41.515625 
Q 57.328125 34.859375 57.328125 23.390625 
Q 57.328125 12.15625 50.6875 5.359375 
Q 44.046875 -1.421875 33.015625 -1.421875 
Q 20.359375 -1.421875 13.671875 8.265625 
Q 6.984375 17.96875 6.984375 36.375 
Q 6.984375 53.65625 15.1875 63.9375 
Q 23.390625 74.21875 37.203125 74.21875 
Q 40.921875 74.21875 44.703125 73.484375 
Q 48.484375 72.75 52.59375 71.296875 
z
" id="DejaVuSans-54"/>
      </defs>
      <g transform="translate(54.91625 139.879081)scale(0.12 -0.12)">
       <use xlink:href="#DejaVuSans-48"/>
       <use x="63.623047" xlink:href="#DejaVuSans-46"/>
       <use x="95.410156" xlink:href="#DejaVuSans-54"/>
      </g>
     </g>
    </g>
    <g id="ytick_3">
     <g id="line2d_8">
      <g>
       <use style="stroke:#000000;stroke-width:0.8;" x="81" xlink:href="#m2d7f02eb6c" y="102.048371"/>
      </g>
     </g>
     <g id="text_9">
      <!-- 0.8 -->
      <defs>
       <path d="M 31.78125 34.625 
Q 24.75 34.625 20.71875 30.859375 
Q 16.703125 27.09375 16.703125 20.515625 
Q 16.703125 13.921875 20.71875 10.15625 
Q 24.75 6.390625 31.78125 6.390625 
Q 38.8125 6.390625 42.859375 10.171875 
Q 46.921875 13.96875 46.921875 20.515625 
Q 46.921875 27.09375 42.890625 30.859375 
Q 38.875 34.625 31.78125 34.625 
z
M 21.921875 38.8125 
Q 15.578125 40.375 12.03125 44.71875 
Q 8.5 49.078125 8.5 55.328125 
Q 8.5 64.0625 14.71875 69.140625 
Q 20.953125 74.21875 31.78125 74.21875 
Q 42.671875 74.21875 48.875 69.140625 
Q 55.078125 64.0625 55.078125 55.328125 
Q 55.078125 49.078125 51.53125 44.71875 
Q 48 40.375 41.703125 38.8125 
Q 48.828125 37.15625 52.796875 32.3125 
Q 56.78125 27.484375 56.78125 20.515625 
Q 56.78125 9.90625 50.3125 4.234375 
Q 43.84375 -1.421875 31.78125 -1.421875 
Q 19.734375 -1.421875 13.25 4.234375 
Q 6.78125 9.90625 6.78125 20.515625 
Q 6.78125 27.484375 10.78125 32.3125 
Q 14.796875 37.15625 21.921875 38.8125 
z
M 18.3125 54.390625 
Q 18.3125 48.734375 21.84375 45.5625 
Q 25.390625 42.390625 31.78125 42.390625 
Q 38.140625 42.390625 41.71875 45.5625 
Q 45.3125 48.734375 45.3125 54.390625 
Q 45.3125 60.0625 41.71875 63.234375 
Q 38.140625 66.40625 31.78125 66.40625 
Q 25.390625 66.40625 21.84375 63.234375 
Q 18.3125 60.0625 18.3125 54.390625 
z
" id="DejaVuSans-56"/>
      </defs>
      <g transform="translate(54.91625 106.607434)scale(0.12 -0.12)">
       <use xlink:href="#DejaVuSans-48"/>
       <use x="63.623047" xlink:href="#DejaVuSans-46"/>
       <use x="95.410156" xlink:href="#DejaVuSans-56"/>
      </g>
     </g>
    </g>
    <g id="ytick_4">
     <g id="line2d_9">
      <g>
       <use style="stroke:#000000;stroke-width:0.8;" x="81" xlink:href="#m2d7f02eb6c" y="68.776724"/>
      </g>
     </g>
     <g id="text_10">
      <!-- 1.0 -->
      <g transform="translate(54.91625 73.335786)scale(0.12 -0.12)">
       <use xlink:href="#DejaVuSans-49"/>
       <use x="63.623047" xlink:href="#DejaVuSans-46"/>
       <use x="95.410156" xlink:href="#DejaVuSans-48"/>
      </g>
     </g>
    </g>
    <g id="ytick_5">
     <g id="line2d_10">
      <g>
       <use style="stroke:#000000;stroke-width:0.8;" x="81" xlink:href="#m2d7f02eb6c" y="35.505076"/>
      </g>
     </g>
     <g id="text_11">
      <!-- 1.2 -->
      <g transform="translate(54.91625 40.064139)scale(0.12 -0.12)">
       <use xlink:href="#DejaVuSans-49"/>
       <use x="63.623047" xlink:href="#DejaVuSans-46"/>
       <use x="95.410156" xlink:href="#DejaVuSans-50"/>
      </g>
     </g>
    </g>
    <g id="text_12">
     <!-- COMb $\nu$ -->
     <defs>
      <path d="M 64.40625 67.28125 
L 64.40625 56.890625 
Q 59.421875 61.53125 53.78125 63.8125 
Q 48.140625 66.109375 41.796875 66.109375 
Q 29.296875 66.109375 22.65625 58.46875 
Q 16.015625 50.828125 16.015625 36.375 
Q 16.015625 21.96875 22.65625 14.328125 
Q 29.296875 6.6875 41.796875 6.6875 
Q 48.140625 6.6875 53.78125 8.984375 
Q 59.421875 11.28125 64.40625 15.921875 
L 64.40625 5.609375 
Q 59.234375 2.09375 53.4375 0.328125 
Q 47.65625 -1.421875 41.21875 -1.421875 
Q 24.65625 -1.421875 15.125 8.703125 
Q 5.609375 18.84375 5.609375 36.375 
Q 5.609375 53.953125 15.125 64.078125 
Q 24.65625 74.21875 41.21875 74.21875 
Q 47.75 74.21875 53.53125 72.484375 
Q 59.328125 70.75 64.40625 67.28125 
z
" id="DejaVuSans-67"/>
      <path d="M 39.40625 66.21875 
Q 28.65625 66.21875 22.328125 58.203125 
Q 16.015625 50.203125 16.015625 36.375 
Q 16.015625 22.609375 22.328125 14.59375 
Q 28.65625 6.59375 39.40625 6.59375 
Q 50.140625 6.59375 56.421875 14.59375 
Q 62.703125 22.609375 62.703125 36.375 
Q 62.703125 50.203125 56.421875 58.203125 
Q 50.140625 66.21875 39.40625 66.21875 
z
M 39.40625 74.21875 
Q 54.734375 74.21875 63.90625 63.9375 
Q 73.09375 53.65625 73.09375 36.375 
Q 73.09375 19.140625 63.90625 8.859375 
Q 54.734375 -1.421875 39.40625 -1.421875 
Q 24.03125 -1.421875 14.8125 8.828125 
Q 5.609375 19.09375 5.609375 36.375 
Q 5.609375 53.65625 14.8125 63.9375 
Q 24.03125 74.21875 39.40625 74.21875 
z
" id="DejaVuSans-79"/>
      <path d="M 9.8125 72.90625 
L 24.515625 72.90625 
L 43.109375 23.296875 
L 61.8125 72.90625 
L 76.515625 72.90625 
L 76.515625 0 
L 66.890625 0 
L 66.890625 64.015625 
L 48.09375 14.015625 
L 38.1875 14.015625 
L 19.390625 64.015625 
L 19.390625 0 
L 9.8125 0 
z
" id="DejaVuSans-77"/>
      <path d="M 48.6875 27.296875 
Q 48.6875 37.203125 44.609375 42.84375 
Q 40.53125 48.484375 33.40625 48.484375 
Q 26.265625 48.484375 22.1875 42.84375 
Q 18.109375 37.203125 18.109375 27.296875 
Q 18.109375 17.390625 22.1875 11.75 
Q 26.265625 6.109375 33.40625 6.109375 
Q 40.53125 6.109375 44.609375 11.75 
Q 48.6875 17.390625 48.6875 27.296875 
z
M 18.109375 46.390625 
Q 20.953125 51.265625 25.265625 53.625 
Q 29.59375 56 35.59375 56 
Q 45.5625 56 51.78125 48.09375 
Q 58.015625 40.1875 58.015625 27.296875 
Q 58.015625 14.40625 51.78125 6.484375 
Q 45.5625 -1.421875 35.59375 -1.421875 
Q 29.59375 -1.421875 25.265625 0.953125 
Q 20.953125 3.328125 18.109375 8.203125 
L 18.109375 0 
L 9.078125 0 
L 9.078125 75.984375 
L 18.109375 75.984375 
z
" id="DejaVuSans-98"/>
      <path d="M 14.984375 0 
L 8.9375 54.6875 
L 18.609375 54.6875 
L 23.78125 8.796875 
Q 30.8125 14.84375 37.359375 23.25 
Q 42.28125 29.546875 43.5625 35.015625 
Q 44.140625 37.59375 43.890625 42.484375 
Q 43.65625 48.296875 39.75 54.6875 
L 48.828125 54.6875 
L 48.828125 54.6875 
Q 51.375 50.34375 52.390625 44.28125 
Q 53.375 38.71875 52.640625 34.90625 
Q 50.78125 25.34375 42.484375 16.796875 
Q 31.640625 5.671875 24.5625 0 
z
" id="DejaVuSans-Oblique-957"/>
     </defs>
     <g transform="translate(47.9215 136.872)rotate(-90)scale(0.144 -0.144)">
      <use transform="translate(0 0.015625)" xlink:href="#DejaVuSans-67"/>
      <use transform="translate(69.824219 0.015625)" xlink:href="#DejaVuSans-79"/>
      <use transform="translate(148.535156 0.015625)" xlink:href="#DejaVuSans-77"/>
      <use transform="translate(234.814453 0.015625)" xlink:href="#DejaVuSans-98"/>
      <use transform="translate(298.291016 0.015625)" xlink:href="#DejaVuSans-32"/>
      <use transform="translate(330.078125 0.015625)" xlink:href="#DejaVuSans-Oblique-957"/>
     </g>
    </g>
   </g>
   <g id="line2d_11">
    <path clip-path="url(#p07a00d3b9a)" d="M 81 108.682601 
L 82.762105 118.129684 
L 84.524211 129.925922 
L 86.286316 119.367902 
L 89.810526 131.122585 
L 91.572632 126.098632 
L 93.334737 126.550616 
L 95.096842 127.421252 
L 96.858947 113.020307 
L 98.621053 103.873873 
L 100.383158 97.286658 
L 102.145263 101.629547 
L 103.907368 103.197991 
L 105.669474 123.795077 
L 107.431579 119.2811 
L 109.193684 121.727705 
L 110.955789 138.598561 
L 112.717895 144.256976 
L 114.48 144.989316 
L 116.242105 146.301996 
L 118.004211 148.679963 
L 119.766316 144.131184 
L 121.528421 154.989049 
L 123.290526 149.883367 
L 125.052632 150.672383 
L 126.814737 151.020845 
L 128.576842 156.142835 
L 130.338947 153.456228 
L 132.101053 160.45147 
L 133.863158 165.102445 
L 135.625263 171.24034 
L 137.387368 169.322262 
L 139.149474 171.905545 
L 140.911579 165.653801 
L 142.673684 158.059092 
L 144.435789 151.984741 
L 146.197895 144.874738 
L 147.96 139.392265 
L 149.722105 141.86785 
L 151.484211 138.400186 
L 153.246316 135.98972 
L 155.008421 138.501582 
L 156.770526 126.691328 
L 158.532632 123.084692 
L 160.294737 126.311669 
L 162.056842 123.063097 
L 163.818947 108.523262 
L 165.581053 109.645158 
L 167.343158 104.280281 
L 169.105263 108.376144 
L 170.867368 111.206993 
L 172.629474 100.298252 
L 174.391579 98.381282 
L 176.153684 99.637973 
L 177.915789 91.660495 
L 179.677895 92.910915 
L 181.44 98.812339 
L 183.202105 91.789184 
L 184.964211 87.728592 
L 186.726316 84.934214 
L 188.488421 88.39548 
L 190.250526 82.385055 
L 192.012632 88.301984 
L 193.774737 93.40416 
L 195.536842 80.545602 
L 197.298947 79.43445 
L 199.061053 75.279991 
L 200.823158 73.60695 
L 202.585263 71.104701 
L 204.347368 70.39956 
L 206.109474 69.029626 
L 207.871579 74.296261 
L 209.633684 75.014042 
L 211.395789 72.181106 
L 213.157895 80.456526 
L 214.92 81.184176 
L 216.682105 68.880271 
L 218.444211 73.512881 
L 220.206316 64.698038 
L 221.968421 65.851079 
L 223.730526 61.238233 
L 225.492632 64.326763 
L 227.254737 79.869109 
L 229.016842 79.10073 
L 230.778947 77.012842 
L 232.541053 79.532844 
L 234.303158 78.51812 
L 236.065263 76.806588 
L 237.827368 69.270128 
L 239.589474 72.131468 
L 241.351579 76.824182 
L 243.113684 90.137884 
L 244.875789 91.394995 
L 246.637895 101.343329 
L 248.4 99.595381 
L 250.162105 99.57792 
L 251.924211 112.062338 
L 253.686316 100.693709 
L 255.448421 106.419062 
L 257.210526 115.517486 
L 258.972632 116.68424 
L 260.734737 123.094775 
L 262.496842 104.469959 
L 264.258947 101.01255 
L 266.021053 106.886617 
L 267.783158 116.462402 
L 269.545263 118.33755 
L 271.307368 121.294589 
L 273.069474 131.370717 
L 274.831579 132.62948 
L 276.593684 130.58792 
L 278.355789 126.317683 
L 280.117895 122.820622 
L 281.88 121.668473 
L 283.642105 125.772245 
L 285.404211 118.148353 
L 287.166316 127.108823 
L 288.928421 125.23425 
L 290.690526 121.386029 
L 292.452632 111.137077 
L 294.214737 118.421194 
L 295.976842 114.409796 
L 297.738947 118.511424 
L 299.501053 119.715804 
L 301.263158 118.409804 
L 303.025263 108.883619 
L 304.787368 121.037621 
L 306.549474 121.869663 
L 308.311579 123.218341 
L 310.073684 123.614822 
L 311.835789 124.770545 
L 313.597895 118.870999 
L 315.36 117.487643 
L 317.122105 110.80189 
L 318.884211 115.840965 
L 320.646316 115.955641 
L 322.408421 110.605154 
L 324.170526 111.098015 
L 325.932632 109.034658 
L 327.694737 109.437515 
L 329.456842 105.519647 
L 331.218947 103.461188 
L 332.981053 98.325499 
L 334.743158 97.213795 
L 336.505263 98.065795 
L 338.267368 101.977199 
L 340.029474 106.421045 
L 341.791579 100.557795 
L 343.553684 93.965524 
L 345.315789 92.69847 
L 347.077895 93.730557 
L 348.84 97.309154 
L 350.602105 100.256573 
L 352.364211 108.796912 
L 354.126316 110.453379 
L 355.888421 117.065507 
L 359.412632 119.845129 
L 361.174737 123.286087 
L 364.698947 135.189902 
L 366.461053 121.185645 
L 368.223158 127.023798 
L 369.985263 127.977769 
L 371.747368 133.046161 
L 373.509474 122.339964 
L 375.271579 107.052532 
L 377.033684 112.010709 
L 378.795789 110.231681 
L 380.557895 101.460097 
L 382.32 87.772374 
L 384.082105 95.919253 
L 385.844211 87.871648 
L 387.606316 85.341751 
L 389.368421 87.345119 
L 391.130526 90.874974 
L 392.892632 92.292032 
L 394.654737 91.717846 
L 396.416842 92.725971 
L 398.178947 81.604317 
L 399.941053 75.869623 
L 401.703158 74.060636 
L 403.465263 71.015147 
L 405.227368 74.281424 
L 406.989474 61.023851 
L 408.751579 74.110717 
L 410.513684 74.378037 
L 412.275789 72.024841 
L 414.037895 64.229055 
L 415.8 58.53665 
L 417.562105 63.251935 
L 419.324211 64.260222 
L 422.848421 79.499954 
L 424.610526 76.404655 
L 426.372632 68.281119 
L 428.134737 66.886619 
L 429.896842 65.737759 
L 431.658947 53.683172 
L 433.421053 73.375522 
L 435.183158 70.324393 
L 436.945263 76.418413 
L 438.707368 79.081986 
L 440.469474 95.491882 
L 442.231579 100.603889 
L 443.993684 90.92612 
L 445.755789 103.233801 
L 447.517895 101.880897 
L 449.28 112.282981 
L 451.042105 107.160069 
L 452.804211 113.377063 
L 454.566316 109.987316 
L 456.328421 114.424556 
L 458.090526 113.865277 
L 459.852632 117.716618 
L 461.614737 113.317344 
L 463.376842 126.02333 
L 465.138947 124.735364 
L 466.901053 131.027754 
L 468.663158 139.59488 
L 470.425263 140.126257 
L 472.187368 146.595909 
L 473.949474 148.381583 
L 475.711579 153.700263 
L 477.473684 148.664583 
L 479.235789 148.700268 
L 480.997895 142.424025 
L 482.76 139.830727 
L 484.522105 124.32397 
L 486.284211 122.978702 
L 488.046316 120.779251 
L 489.808421 114.297808 
L 491.570526 113.57437 
L 493.332632 122.805959 
L 496.856842 116.648405 
L 498.618947 113.92272 
L 500.381053 105.552884 
L 502.143158 98.330656 
L 503.905263 99.678979 
L 507.429474 98.121552 
L 509.191579 96.593301 
L 510.953684 95.241741 
L 512.715789 102.733897 
L 514.477895 108.255815 
L 516.24 106.455755 
L 518.002105 108.146147 
L 521.526316 113.947341 
L 523.288421 113.084295 
L 525.050526 121.449215 
L 526.812632 124.312738 
L 530.336842 114.604823 
L 532.098947 117.676625 
L 533.861053 111.221348 
L 535.623158 112.160523 
L 537.385263 107.99434 
L 539.147368 107.627054 
L 540.909474 114.826352 
L 542.671579 119.377904 
L 544.433684 127.224906 
L 546.195789 133.391678 
L 547.957895 131.891748 
L 549.72 137.558256 
L 551.482105 122.256063 
L 553.244211 113.734796 
L 555.006316 104.281864 
L 556.768421 108.34132 
L 558.530526 121.908302 
L 560.292632 112.502414 
L 562.054737 112.129747 
L 563.816842 105.302434 
L 565.578947 112.992842 
L 567.341053 113.349091 
L 569.103158 117.543698 
L 570.865263 119.579263 
L 572.627368 130.010757 
L 574.389474 129.719785 
L 576.151579 128.291771 
L 577.913684 127.237093 
L 579.675789 118.004348 
L 581.437895 119.105003 
L 583.2 116.181064 
L 583.2 116.181064 
" style="fill:none;stroke:#0000ff;stroke-linecap:square;stroke-width:1.5;"/>
   </g>
   <g id="patch_3">
    <path d="M 81 192.24 
L 81 25.92 
" style="fill:none;stroke:#000000;stroke-linecap:square;stroke-linejoin:miter;stroke-width:0.8;"/>
   </g>
   <g id="patch_4">
    <path d="M 583.2 192.24 
L 583.2 25.92 
" style="fill:none;stroke:#000000;stroke-linecap:square;stroke-linejoin:miter;stroke-width:0.8;"/>
   </g>
   <g id="patch_5">
    <path d="M 81 192.24 
L 583.2 192.24 
" style="fill:none;stroke:#000000;stroke-linecap:square;stroke-linejoin:miter;stroke-width:0.8;"/>
   </g>
   <g id="patch_6">
    <path d="M 81 25.92 
L 583.2 25.92 
" style="fill:none;stroke:#000000;stroke-linecap:square;stroke-linejoin:miter;stroke-width:0.8;"/>
   </g>
   <g id="text_13">
    <!-- V1, Num Trials=10 All unstimulated trials -->
    <defs>
     <path d="M 28.609375 0 
L 0.78125 72.90625 
L 11.078125 72.90625 
L 34.1875 11.53125 
L 57.328125 72.90625 
L 67.578125 72.90625 
L 39.796875 0 
z
" id="DejaVuSans-86"/>
     <path d="M 11.71875 12.40625 
L 22.015625 12.40625 
L 22.015625 4 
L 14.015625 -11.625 
L 7.71875 -11.625 
L 11.71875 4 
z
" id="DejaVuSans-44"/>
     <path d="M 9.8125 72.90625 
L 23.09375 72.90625 
L 55.421875 11.921875 
L 55.421875 72.90625 
L 64.984375 72.90625 
L 64.984375 0 
L 51.703125 0 
L 19.390625 60.984375 
L 19.390625 0 
L 9.8125 0 
z
" id="DejaVuSans-78"/>
     <path d="M 8.5 21.578125 
L 8.5 54.6875 
L 17.484375 54.6875 
L 17.484375 21.921875 
Q 17.484375 14.15625 20.5 10.265625 
Q 23.53125 6.390625 29.59375 6.390625 
Q 36.859375 6.390625 41.078125 11.03125 
Q 45.3125 15.671875 45.3125 23.6875 
L 45.3125 54.6875 
L 54.296875 54.6875 
L 54.296875 0 
L 45.3125 0 
L 45.3125 8.40625 
Q 42.046875 3.421875 37.71875 1 
Q 33.40625 -1.421875 27.6875 -1.421875 
Q 18.265625 -1.421875 13.375 4.4375 
Q 8.5 10.296875 8.5 21.578125 
z
M 31.109375 56 
z
" id="DejaVuSans-117"/>
     <path d="M 41.109375 46.296875 
Q 39.59375 47.171875 37.8125 47.578125 
Q 36.03125 48 33.890625 48 
Q 26.265625 48 22.1875 43.046875 
Q 18.109375 38.09375 18.109375 28.8125 
L 18.109375 0 
L 9.078125 0 
L 9.078125 54.6875 
L 18.109375 54.6875 
L 18.109375 46.1875 
Q 20.953125 51.171875 25.484375 53.578125 
Q 30.03125 56 36.53125 56 
Q 37.453125 56 38.578125 55.875 
Q 39.703125 55.765625 41.0625 55.515625 
z
" id="DejaVuSans-114"/>
     <path d="M 34.28125 27.484375 
Q 23.390625 27.484375 19.1875 25 
Q 14.984375 22.515625 14.984375 16.5 
Q 14.984375 11.71875 18.140625 8.90625 
Q 21.296875 6.109375 26.703125 6.109375 
Q 34.1875 6.109375 38.703125 11.40625 
Q 43.21875 16.703125 43.21875 25.484375 
L 43.21875 27.484375 
z
M 52.203125 31.203125 
L 52.203125 0 
L 43.21875 0 
L 43.21875 8.296875 
Q 40.140625 3.328125 35.546875 0.953125 
Q 30.953125 -1.421875 24.3125 -1.421875 
Q 15.921875 -1.421875 10.953125 3.296875 
Q 6 8.015625 6 15.921875 
Q 6 25.140625 12.171875 29.828125 
Q 18.359375 34.515625 30.609375 34.515625 
L 43.21875 34.515625 
L 43.21875 35.40625 
Q 43.21875 41.609375 39.140625 45 
Q 35.0625 48.390625 27.6875 48.390625 
Q 23 48.390625 18.546875 47.265625 
Q 14.109375 46.140625 10.015625 43.890625 
L 10.015625 52.203125 
Q 14.9375 54.109375 19.578125 55.046875 
Q 24.21875 56 28.609375 56 
Q 40.484375 56 46.34375 49.84375 
Q 52.203125 43.703125 52.203125 31.203125 
z
" id="DejaVuSans-97"/>
     <path d="M 9.421875 75.984375 
L 18.40625 75.984375 
L 18.40625 0 
L 9.421875 0 
z
" id="DejaVuSans-108"/>
     <path d="M 10.59375 45.40625 
L 73.1875 45.40625 
L 73.1875 37.203125 
L 10.59375 37.203125 
z
M 10.59375 25.484375 
L 73.1875 25.484375 
L 73.1875 17.1875 
L 10.59375 17.1875 
z
" id="DejaVuSans-61"/>
     <path d="M 34.1875 63.1875 
L 20.796875 26.90625 
L 47.609375 26.90625 
z
M 28.609375 72.90625 
L 39.796875 72.90625 
L 67.578125 0 
L 57.328125 0 
L 50.6875 18.703125 
L 17.828125 18.703125 
L 11.1875 0 
L 0.78125 0 
z
" id="DejaVuSans-65"/>
     <path d="M 54.890625 33.015625 
L 54.890625 0 
L 45.90625 0 
L 45.90625 32.71875 
Q 45.90625 40.484375 42.875 44.328125 
Q 39.84375 48.1875 33.796875 48.1875 
Q 26.515625 48.1875 22.3125 43.546875 
Q 18.109375 38.921875 18.109375 30.90625 
L 18.109375 0 
L 9.078125 0 
L 9.078125 54.6875 
L 18.109375 54.6875 
L 18.109375 46.1875 
Q 21.34375 51.125 25.703125 53.5625 
Q 30.078125 56 35.796875 56 
Q 45.21875 56 50.046875 50.171875 
Q 54.890625 44.34375 54.890625 33.015625 
z
" id="DejaVuSans-110"/>
     <path d="M 18.3125 70.21875 
L 18.3125 54.6875 
L 36.8125 54.6875 
L 36.8125 47.703125 
L 18.3125 47.703125 
L 18.3125 18.015625 
Q 18.3125 11.328125 20.140625 9.421875 
Q 21.96875 7.515625 27.59375 7.515625 
L 36.8125 7.515625 
L 36.8125 0 
L 27.59375 0 
Q 17.1875 0 13.234375 3.875 
Q 9.28125 7.765625 9.28125 18.015625 
L 9.28125 47.703125 
L 2.6875 47.703125 
L 2.6875 54.6875 
L 9.28125 54.6875 
L 9.28125 70.21875 
z
" id="DejaVuSans-116"/>
     <path d="M 45.40625 46.390625 
L 45.40625 75.984375 
L 54.390625 75.984375 
L 54.390625 0 
L 45.40625 0 
L 45.40625 8.203125 
Q 42.578125 3.328125 38.25 0.953125 
Q 33.9375 -1.421875 27.875 -1.421875 
Q 17.96875 -1.421875 11.734375 6.484375 
Q 5.515625 14.40625 5.515625 27.296875 
Q 5.515625 40.1875 11.734375 48.09375 
Q 17.96875 56 27.875 56 
Q 33.9375 56 38.25 53.625 
Q 42.578125 51.265625 45.40625 46.390625 
z
M 14.796875 27.296875 
Q 14.796875 17.390625 18.875 11.75 
Q 22.953125 6.109375 30.078125 6.109375 
Q 37.203125 6.109375 41.296875 11.75 
Q 45.40625 17.390625 45.40625 27.296875 
Q 45.40625 37.203125 41.296875 42.84375 
Q 37.203125 48.484375 30.078125 48.484375 
Q 22.953125 48.484375 18.875 42.84375 
Q 14.796875 37.203125 14.796875 27.296875 
z
" id="DejaVuSans-100"/>
    </defs>
    <g transform="translate(207.6975 19.92)scale(0.12 -0.12)">
     <use xlink:href="#DejaVuSans-86"/>
     <use x="68.408203" xlink:href="#DejaVuSans-49"/>
     <use x="132.03125" xlink:href="#DejaVuSans-44"/>
     <use x="163.818359" xlink:href="#DejaVuSans-32"/>
     <use x="195.605469" xlink:href="#DejaVuSans-78"/>
     <use x="270.410156" xlink:href="#DejaVuSans-117"/>
     <use x="333.789062" xlink:href="#DejaVuSans-109"/>
     <use x="431.201172" xlink:href="#DejaVuSans-32"/>
     <use x="462.988281" xlink:href="#DejaVuSans-84"/>
     <use x="523.853516" xlink:href="#DejaVuSans-114"/>
     <use x="564.966797" xlink:href="#DejaVuSans-105"/>
     <use x="592.75" xlink:href="#DejaVuSans-97"/>
     <use x="654.029297" xlink:href="#DejaVuSans-108"/>
     <use x="681.8125" xlink:href="#DejaVuSans-115"/>
     <use x="733.912109" xlink:href="#DejaVuSans-61"/>
     <use x="817.701172" xlink:href="#DejaVuSans-49"/>
     <use x="881.324219" xlink:href="#DejaVuSans-48"/>
     <use x="944.947266" xlink:href="#DejaVuSans-32"/>
     <use x="976.734375" xlink:href="#DejaVuSans-65"/>
     <use x="1045.142578" xlink:href="#DejaVuSans-108"/>
     <use x="1072.925781" xlink:href="#DejaVuSans-108"/>
     <use x="1100.708984" xlink:href="#DejaVuSans-32"/>
     <use x="1132.496094" xlink:href="#DejaVuSans-117"/>
     <use x="1195.875" xlink:href="#DejaVuSans-110"/>
     <use x="1259.253906" xlink:href="#DejaVuSans-115"/>
     <use x="1311.353516" xlink:href="#DejaVuSans-116"/>
     <use x="1350.5625" xlink:href="#DejaVuSans-105"/>
     <use x="1378.345703" xlink:href="#DejaVuSans-109"/>
     <use x="1475.757812" xlink:href="#DejaVuSans-117"/>
     <use x="1539.136719" xlink:href="#DejaVuSans-108"/>
     <use x="1566.919922" xlink:href="#DejaVuSans-97"/>
     <use x="1628.199219" xlink:href="#DejaVuSans-116"/>
     <use x="1667.408203" xlink:href="#DejaVuSans-101"/>
     <use x="1728.931641" xlink:href="#DejaVuSans-100"/>
     <use x="1792.408203" xlink:href="#DejaVuSans-32"/>
     <use x="1824.195312" xlink:href="#DejaVuSans-116"/>
     <use x="1863.404297" xlink:href="#DejaVuSans-114"/>
     <use x="1904.517578" xlink:href="#DejaVuSans-105"/>
     <use x="1932.300781" xlink:href="#DejaVuSans-97"/>
     <use x="1993.580078" xlink:href="#DejaVuSans-108"/>
     <use x="2021.363281" xlink:href="#DejaVuSans-115"/>
    </g>
   </g>
   <g id="legend_1">
    <g id="patch_7">
     <path d="M 441.12 70.7475 
L 574.8 70.7475 
Q 577.2 70.7475 577.2 68.3475 
L 577.2 34.32 
Q 577.2 31.92 574.8 31.92 
L 441.12 31.92 
Q 438.72 31.92 438.72 34.32 
L 438.72 68.3475 
Q 438.72 70.7475 441.12 70.7475 
z
" style="fill:#ffffff;opacity:0.8;stroke:#cccccc;stroke-linejoin:miter;"/>
    </g>
    <g id="line2d_12">
     <path d="M 443.52 41.638125 
L 467.52 41.638125 
" style="fill:none;stroke:#0000ff;stroke-linecap:square;stroke-width:1.5;"/>
    </g>
    <g id="line2d_13"/>
    <g id="text_14">
     <!-- COM-Binomial $\nu$ -->
     <defs>
      <path d="M 4.890625 31.390625 
L 31.203125 31.390625 
L 31.203125 23.390625 
L 4.890625 23.390625 
z
" id="DejaVuSans-45"/>
      <path d="M 19.671875 34.8125 
L 19.671875 8.109375 
L 35.5 8.109375 
Q 43.453125 8.109375 47.28125 11.40625 
Q 51.125 14.703125 51.125 21.484375 
Q 51.125 28.328125 47.28125 31.5625 
Q 43.453125 34.8125 35.5 34.8125 
z
M 19.671875 64.796875 
L 19.671875 42.828125 
L 34.28125 42.828125 
Q 41.5 42.828125 45.03125 45.53125 
Q 48.578125 48.25 48.578125 53.8125 
Q 48.578125 59.328125 45.03125 62.0625 
Q 41.5 64.796875 34.28125 64.796875 
z
M 9.8125 72.90625 
L 35.015625 72.90625 
Q 46.296875 72.90625 52.390625 68.21875 
Q 58.5 63.53125 58.5 54.890625 
Q 58.5 48.1875 55.375 44.234375 
Q 52.25 40.28125 46.1875 39.3125 
Q 53.46875 37.75 57.5 32.78125 
Q 61.53125 27.828125 61.53125 20.40625 
Q 61.53125 10.640625 54.890625 5.3125 
Q 48.25 0 35.984375 0 
L 9.8125 0 
z
" id="DejaVuSans-66"/>
      <path d="M 30.609375 48.390625 
Q 23.390625 48.390625 19.1875 42.75 
Q 14.984375 37.109375 14.984375 27.296875 
Q 14.984375 17.484375 19.15625 11.84375 
Q 23.34375 6.203125 30.609375 6.203125 
Q 37.796875 6.203125 41.984375 11.859375 
Q 46.1875 17.53125 46.1875 27.296875 
Q 46.1875 37.015625 41.984375 42.703125 
Q 37.796875 48.390625 30.609375 48.390625 
z
M 30.609375 56 
Q 42.328125 56 49.015625 48.375 
Q 55.71875 40.765625 55.71875 27.296875 
Q 55.71875 13.875 49.015625 6.21875 
Q 42.328125 -1.421875 30.609375 -1.421875 
Q 18.84375 -1.421875 12.171875 6.21875 
Q 5.515625 13.875 5.515625 27.296875 
Q 5.515625 40.765625 12.171875 48.375 
Q 18.84375 56 30.609375 56 
z
" id="DejaVuSans-111"/>
     </defs>
     <g transform="translate(477.12 45.838125)scale(0.12 -0.12)">
      <use transform="translate(0 0.015625)" xlink:href="#DejaVuSans-67"/>
      <use transform="translate(69.824219 0.015625)" xlink:href="#DejaVuSans-79"/>
      <use transform="translate(148.535156 0.015625)" xlink:href="#DejaVuSans-77"/>
      <use transform="translate(234.814453 0.015625)" xlink:href="#DejaVuSans-45"/>
      <use transform="translate(270.898438 0.015625)" xlink:href="#DejaVuSans-66"/>
      <use transform="translate(339.501953 0.015625)" xlink:href="#DejaVuSans-105"/>
      <use transform="translate(367.285156 0.015625)" xlink:href="#DejaVuSans-110"/>
      <use transform="translate(430.664062 0.015625)" xlink:href="#DejaVuSans-111"/>
      <use transform="translate(491.845703 0.015625)" xlink:href="#DejaVuSans-109"/>
      <use transform="translate(589.257812 0.015625)" xlink:href="#DejaVuSans-105"/>
      <use transform="translate(617.041016 0.015625)" xlink:href="#DejaVuSans-97"/>
      <use transform="translate(678.320312 0.015625)" xlink:href="#DejaVuSans-108"/>
      <use transform="translate(706.103516 0.015625)" xlink:href="#DejaVuSans-32"/>
      <use transform="translate(737.890625 0.015625)" xlink:href="#DejaVuSans-Oblique-957"/>
     </g>
    </g>
    <g id="patch_8">
     <path d="M 443.52 63.451875 
L 467.52 63.451875 
L 467.52 55.051875 
L 443.52 55.051875 
z
" style="fill:#0000ff;opacity:0.3;stroke:#0000ff;stroke-linejoin:miter;"/>
    </g>
    <g id="text_15">
     <!-- Std. Err. -->
     <defs>
      <path d="M 53.515625 70.515625 
L 53.515625 60.890625 
Q 47.90625 63.578125 42.921875 64.890625 
Q 37.9375 66.21875 33.296875 66.21875 
Q 25.25 66.21875 20.875 63.09375 
Q 16.5 59.96875 16.5 54.203125 
Q 16.5 49.359375 19.40625 46.890625 
Q 22.3125 44.4375 30.421875 42.921875 
L 36.375 41.703125 
Q 47.40625 39.59375 52.65625 34.296875 
Q 57.90625 29 57.90625 20.125 
Q 57.90625 9.515625 50.796875 4.046875 
Q 43.703125 -1.421875 29.984375 -1.421875 
Q 24.8125 -1.421875 18.96875 -0.25 
Q 13.140625 0.921875 6.890625 3.21875 
L 6.890625 13.375 
Q 12.890625 10.015625 18.65625 8.296875 
Q 24.421875 6.59375 29.984375 6.59375 
Q 38.421875 6.59375 43.015625 9.90625 
Q 47.609375 13.234375 47.609375 19.390625 
Q 47.609375 24.75 44.3125 27.78125 
Q 41.015625 30.8125 33.5 32.328125 
L 27.484375 33.5 
Q 16.453125 35.6875 11.515625 40.375 
Q 6.59375 45.0625 6.59375 53.421875 
Q 6.59375 63.09375 13.40625 68.65625 
Q 20.21875 74.21875 32.171875 74.21875 
Q 37.3125 74.21875 42.625 73.28125 
Q 47.953125 72.359375 53.515625 70.515625 
z
" id="DejaVuSans-83"/>
      <path d="M 9.8125 72.90625 
L 55.90625 72.90625 
L 55.90625 64.59375 
L 19.671875 64.59375 
L 19.671875 43.015625 
L 54.390625 43.015625 
L 54.390625 34.71875 
L 19.671875 34.71875 
L 19.671875 8.296875 
L 56.78125 8.296875 
L 56.78125 0 
L 9.8125 0 
z
" id="DejaVuSans-69"/>
     </defs>
     <g transform="translate(477.12 63.451875)scale(0.12 -0.12)">
      <use xlink:href="#DejaVuSans-83"/>
      <use x="63.476562" xlink:href="#DejaVuSans-116"/>
      <use x="102.685547" xlink:href="#DejaVuSans-100"/>
      <use x="166.162109" xlink:href="#DejaVuSans-46"/>
      <use x="197.949219" xlink:href="#DejaVuSans-32"/>
      <use x="229.736328" xlink:href="#DejaVuSans-69"/>
      <use x="292.919922" xlink:href="#DejaVuSans-114"/>
      <use x="334.017578" xlink:href="#DejaVuSans-114"/>
      <use x="374.990234" xlink:href="#DejaVuSans-46"/>
     </g>
    </g>
   </g>
  </g>
 </g>
 <defs>
  <clipPath id="p07a00d3b9a">
   <rect height="166.32" width="502.2" x="81" y="25.92"/>
  </clipPath>
 </defs>
</svg>
