<?xml version="1.0" encoding="utf-8" standalone="no"?>
<!DOCTYPE svg PUBLIC "-//W3C//DTD SVG 1.1//EN"
  "http://www.w3.org/Graphics/SVG/1.1/DTD/svg11.dtd">
<!-- Created with matplotlib (https://matplotlib.org/) -->
<svg height="223.2pt" version="1.1" viewBox="0 0 576 223.2" width="576pt" xmlns="http://www.w3.org/2000/svg" xmlns:xlink="http://www.w3.org/1999/xlink">
 <defs>
  <style type="text/css">
*{stroke-linecap:butt;stroke-linejoin:round;}
  </style>
 </defs>
 <g id="figure_1">
  <g id="patch_1">
   <path d="M 0 223.2 
L 576 223.2 
L 576 0 
L 0 0 
z
" style="fill:#ffffff;"/>
  </g>
  <g id="axes_1">
   <g id="patch_2">
    <path d="M 54.47 174.76 
L 565.2 174.76 
L 565.2 26.88 
L 54.47 26.88 
z
" style="fill:#ffffff;"/>
   </g>
   <g id="PolyCollection_1">
    <defs>
     <path d="M 137.485266 -48.44 
L 137.485266 -196.32 
L 397.178486 -196.32 
L 397.178486 -48.44 
L 397.178486 -48.44 
L 137.485266 -48.44 
z
" id="ma2a841c2e4" style="stroke:#808080;stroke-opacity:0.3;"/>
    </defs>
    <g clip-path="url(#p9bb73c68a3)">
     <use style="fill:#808080;fill-opacity:0.3;stroke:#808080;stroke-opacity:0.3;" x="0" xlink:href="#ma2a841c2e4" y="223.2"/>
    </g>
   </g>
   <g id="PolyCollection_2">
    <defs>
     <path d="M 54.47 -181.646887 
L 54.47 -172.77026 
L 56.201288 -172.467811 
L 57.932576 -173.318543 
L 59.663864 -175.02817 
L 61.395153 -174.605639 
L 63.126441 -174.922108 
L 64.857729 -174.959376 
L 66.589017 -176.484586 
L 68.320305 -177.342398 
L 70.051593 -177.079061 
L 71.782881 -176.773525 
L 73.514169 -176.733572 
L 75.245458 -175.243434 
L 76.976746 -173.288198 
L 78.708034 -173.757726 
L 80.439322 -174.204693 
L 82.17061 -174.122023 
L 83.901898 -171.937169 
L 85.633186 -171.265928 
L 87.364475 -172.202893 
L 89.095763 -172.037867 
L 90.827051 -171.02818 
L 92.558339 -170.696179 
L 94.289627 -171.250869 
L 96.020915 -171.55767 
L 97.752203 -171.763627 
L 99.483492 -171.025561 
L 101.21478 -171.026134 
L 102.946068 -171.243215 
L 104.677356 -170.820765 
L 106.408644 -171.099505 
L 108.139932 -171.353263 
L 109.87122 -171.65685 
L 111.602508 -172.113364 
L 113.333797 -172.661665 
L 115.065085 -172.319795 
L 116.796373 -173.186854 
L 118.527661 -174.775817 
L 120.258949 -173.769495 
L 121.990237 -173.17129 
L 123.721525 -172.325735 
L 125.452814 -171.88998 
L 127.184102 -172.432283 
L 128.91539 -171.816358 
L 130.646678 -171.351125 
L 132.377966 -170.780476 
L 134.109254 -169.574178 
L 135.840542 -168.787527 
L 137.571831 -168.682406 
L 139.303119 -168.57439 
L 141.034407 -169.661918 
L 142.765695 -169.955148 
L 144.496983 -170.159101 
L 146.228271 -169.146134 
L 147.959559 -168.817377 
L 149.690847 -169.297036 
L 151.422136 -170.17094 
L 153.153424 -170.744805 
L 154.884712 -171.24696 
L 156.616 -171.303177 
L 158.347288 -171.221993 
L 160.078576 -171.363413 
L 161.809864 -171.209494 
L 163.541153 -172.759274 
L 165.272441 -173.803254 
L 167.003729 -173.926531 
L 168.735017 -173.927311 
L 170.466305 -173.14391 
L 172.197593 -172.832919 
L 173.928881 -173.636241 
L 175.660169 -172.885285 
L 177.391458 -172.690759 
L 179.122746 -172.287949 
L 180.854034 -171.699213 
L 182.585322 -170.787049 
L 184.31661 -171.140915 
L 186.047898 -171.137535 
L 187.779186 -171.190528 
L 189.510475 -171.466197 
L 191.241763 -171.495828 
L 192.973051 -171.258044 
L 194.704339 -171.623774 
L 196.435627 -171.844448 
L 198.166915 -171.636796 
L 199.898203 -171.473959 
L 201.629492 -170.904011 
L 203.36078 -170.615192 
L 205.092068 -170.290248 
L 206.823356 -170.841521 
L 208.554644 -170.971872 
L 210.285932 -172.61244 
L 212.01722 -173.508079 
L 213.748508 -174.621823 
L 215.479797 -176.16546 
L 217.211085 -176.164873 
L 218.942373 -175.843239 
L 220.673661 -176.253548 
L 222.404949 -176.510294 
L 224.136237 -175.723744 
L 225.867525 -174.912602 
L 227.598814 -174.330159 
L 229.330102 -173.901005 
L 231.06139 -173.386302 
L 232.792678 -172.762195 
L 234.523966 -173.012235 
L 236.255254 -172.073992 
L 237.986542 -171.538172 
L 239.717831 -171.412149 
L 241.449119 -170.629125 
L 243.180407 -171.159732 
L 244.911695 -170.234452 
L 246.642983 -168.412756 
L 248.374271 -167.66681 
L 250.105559 -167.579416 
L 251.836847 -166.484855 
L 253.568136 -166.984173 
L 255.299424 -167.260715 
L 257.030712 -166.698279 
L 258.762 -168.159922 
L 260.493288 -168.899378 
L 262.224576 -169.000255 
L 263.955864 -170.718815 
L 265.687153 -170.765072 
L 267.418441 -169.403801 
L 269.149729 -169.652253 
L 270.881017 -168.83075 
L 272.612305 -168.378818 
L 274.343593 -168.682364 
L 276.074881 -168.395553 
L 277.806169 -166.744629 
L 279.537458 -166.531229 
L 281.268746 -165.534696 
L 283.000034 -165.676948 
L 284.731322 -167.523822 
L 286.46261 -167.357145 
L 288.193898 -167.949771 
L 289.925186 -167.317108 
L 291.656475 -166.998388 
L 293.387763 -166.929215 
L 295.119051 -168.281723 
L 296.850339 -168.497325 
L 298.581627 -168.775757 
L 300.312915 -168.530519 
L 302.044203 -168.557683 
L 303.775492 -168.928406 
L 305.50678 -170.041252 
L 307.238068 -172.031093 
L 308.969356 -173.530338 
L 310.700644 -173.982327 
L 312.431932 -173.990581 
L 314.16322 -174.28439 
L 315.894508 -173.301011 
L 317.625797 -172.843499 
L 319.357085 -171.340725 
L 321.088373 -171.657585 
L 322.819661 -170.701453 
L 324.550949 -169.723015 
L 326.282237 -169.260626 
L 328.013525 -167.336726 
L 329.744814 -166.450503 
L 331.476102 -166.037198 
L 333.20739 -165.781731 
L 334.938678 -166.974126 
L 336.669966 -167.939698 
L 338.401254 -167.91117 
L 340.132542 -167.519516 
L 341.863831 -166.292731 
L 343.595119 -166.552932 
L 345.326407 -167.603379 
L 347.057695 -167.103933 
L 348.788983 -166.089728 
L 350.520271 -166.830924 
L 352.251559 -166.046896 
L 353.982847 -165.777962 
L 355.714136 -164.760475 
L 357.445424 -164.995873 
L 359.176712 -164.636203 
L 360.908 -163.519402 
L 362.639288 -163.454088 
L 364.370576 -162.46444 
L 366.101864 -162.874272 
L 367.833153 -161.969404 
L 369.564441 -161.538097 
L 371.295729 -160.624563 
L 373.027017 -159.998526 
L 374.758305 -159.522615 
L 376.489593 -160.090433 
L 378.220881 -160.083068 
L 379.952169 -160.307379 
L 381.683458 -161.162865 
L 383.414746 -161.320183 
L 385.146034 -161.440432 
L 386.877322 -161.542012 
L 388.60861 -161.593436 
L 390.339898 -161.329067 
L 392.071186 -161.249229 
L 393.802475 -160.922951 
L 395.533763 -161.339512 
L 397.265051 -160.666576 
L 398.996339 -161.25419 
L 400.727627 -161.344098 
L 402.458915 -162.081148 
L 404.190203 -161.669235 
L 405.921492 -161.695511 
L 407.65278 -161.54219 
L 409.384068 -161.292454 
L 411.115356 -161.178369 
L 412.846644 -160.00002 
L 414.577932 -159.914723 
L 416.30922 -158.945037 
L 418.040508 -158.04479 
L 419.771797 -157.274675 
L 421.503085 -157.286203 
L 423.234373 -156.401509 
L 424.965661 -156.103286 
L 426.696949 -155.893386 
L 428.428237 -154.895283 
L 430.159525 -153.813864 
L 431.890814 -152.752322 
L 433.622102 -151.991575 
L 435.35339 -151.145313 
L 437.084678 -150.999222 
L 438.815966 -150.070708 
L 440.547254 -149.971972 
L 442.278542 -150.267709 
L 444.009831 -149.524116 
L 445.741119 -150.689039 
L 447.472407 -151.12018 
L 449.203695 -151.877206 
L 450.934983 -151.44422 
L 452.666271 -151.107286 
L 454.397559 -150.245762 
L 456.128847 -150.601015 
L 457.860136 -150.245638 
L 459.591424 -150.281926 
L 461.322712 -150.073618 
L 463.054 -148.636063 
L 464.785288 -150.182953 
L 466.516576 -150.623763 
L 468.247864 -151.48789 
L 469.979153 -152.224122 
L 471.710441 -152.637322 
L 473.441729 -152.042107 
L 475.173017 -152.519611 
L 476.904305 -152.750093 
L 478.635593 -153.064591 
L 480.366881 -154.436653 
L 482.098169 -153.878073 
L 483.829458 -153.91407 
L 485.560746 -153.82125 
L 487.292034 -153.490484 
L 489.023322 -154.572148 
L 490.75461 -155.59315 
L 492.485898 -155.760229 
L 494.217186 -156.456888 
L 495.948475 -156.864518 
L 497.679763 -156.642499 
L 499.411051 -157.327302 
L 501.142339 -158.340003 
L 502.873627 -158.698468 
L 504.604915 -159.182877 
L 506.336203 -159.876682 
L 508.067492 -160.02371 
L 509.79878 -163.363675 
L 511.530068 -165.846333 
L 513.261356 -168.452887 
L 514.992644 -170.543367 
L 516.723932 -171.363653 
L 518.45522 -172.872466 
L 520.186508 -175.157907 
L 521.917797 -177.847606 
L 523.649085 -179.544793 
L 525.380373 -182.61072 
L 527.111661 -184.200631 
L 528.842949 -184.777354 
L 530.574237 -184.075339 
L 532.305525 -183.969726 
L 534.036814 -182.348526 
L 535.768102 -182.618168 
L 537.49939 -183.913993 
L 539.230678 -184.268159 
L 540.961966 -184.362724 
L 542.693254 -183.056797 
L 544.424542 -181.143196 
L 546.155831 -179.848154 
L 547.887119 -181.212757 
L 549.618407 -181.730092 
L 551.349695 -183.714882 
L 553.080983 -183.257502 
L 554.812271 -182.24235 
L 556.543559 -180.426559 
L 558.274847 -178.825515 
L 560.006136 -178.476864 
L 561.737424 -178.034465 
L 563.468712 -176.745043 
L 565.2 -175.503716 
L 565.2 -183.172714 
L 565.2 -183.172714 
L 563.468712 -185.219255 
L 561.737424 -186.769355 
L 560.006136 -187.261009 
L 558.274847 -187.734324 
L 556.543559 -189.495872 
L 554.812271 -191.52838 
L 553.080983 -193.203301 
L 551.349695 -194.053596 
L 549.618407 -191.704379 
L 547.887119 -191.063489 
L 546.155831 -189.625931 
L 544.424542 -191.31986 
L 542.693254 -194.487508 
L 540.961966 -196.32 
L 539.230678 -196.15303 
L 537.49939 -195.87204 
L 535.768102 -194.328343 
L 534.036814 -194.261726 
L 532.305525 -195.853669 
L 530.574237 -195.710694 
L 528.842949 -196.017456 
L 527.111661 -194.987608 
L 525.380373 -192.91603 
L 523.649085 -189.667758 
L 521.917797 -187.703456 
L 520.186508 -184.938285 
L 518.45522 -182.590821 
L 516.723932 -180.849129 
L 514.992644 -179.876033 
L 513.261356 -177.595144 
L 511.530068 -174.447931 
L 509.79878 -171.438356 
L 508.067492 -168.165225 
L 506.336203 -168.312252 
L 504.604915 -167.847831 
L 502.873627 -167.360825 
L 501.142339 -166.859961 
L 499.411051 -165.593572 
L 497.679763 -164.9707 
L 495.948475 -165.495925 
L 494.217186 -164.969501 
L 492.485898 -164.545296 
L 490.75461 -164.26403 
L 489.023322 -162.931217 
L 487.292034 -161.621705 
L 485.560746 -161.739284 
L 483.829458 -161.758551 
L 482.098169 -161.682462 
L 480.366881 -162.581005 
L 478.635593 -161.300356 
L 476.904305 -160.867611 
L 475.173017 -160.313489 
L 473.441729 -159.707491 
L 471.710441 -160.158416 
L 469.979153 -159.674925 
L 468.247864 -158.991396 
L 466.516576 -157.950054 
L 464.785288 -157.419449 
L 463.054 -155.566385 
L 461.322712 -157.043076 
L 459.591424 -157.208389 
L 457.860136 -157.244677 
L 456.128847 -157.785991 
L 454.397559 -157.580812 
L 452.666271 -158.400584 
L 450.934983 -158.362547 
L 449.203695 -158.863614 
L 447.472407 -158.051431 
L 445.741119 -157.660606 
L 444.009831 -156.359627 
L 442.278542 -157.185244 
L 440.547254 -156.920549 
L 438.815966 -156.821813 
L 437.084678 -157.761405 
L 435.35339 -158.06366 
L 433.622102 -159.085505 
L 431.890814 -160.080777 
L 430.159525 -161.410412 
L 428.428237 -162.421272 
L 426.696949 -163.328637 
L 424.965661 -163.305548 
L 423.234373 -163.493033 
L 421.503085 -164.401721 
L 419.771797 -164.749508 
L 418.040508 -166.109035 
L 416.30922 -167.039532 
L 414.577932 -168.573108 
L 412.846644 -169.272416 
L 411.115356 -170.559967 
L 409.384068 -170.894228 
L 407.65278 -171.055475 
L 405.921492 -171.163689 
L 404.190203 -170.853706 
L 402.458915 -170.815415 
L 400.727627 -169.945893 
L 398.996339 -169.774266 
L 397.265051 -168.942119 
L 395.533763 -169.576857 
L 393.802475 -169.022003 
L 392.071186 -169.48033 
L 390.339898 -169.699389 
L 388.60861 -169.958089 
L 386.877322 -169.747979 
L 385.146034 -169.550662 
L 383.414746 -169.558824 
L 381.683458 -169.230435 
L 379.952169 -168.105728 
L 378.220881 -167.956417 
L 376.489593 -167.911691 
L 374.758305 -167.209196 
L 373.027017 -168.003598 
L 371.295729 -168.94677 
L 369.564441 -169.714532 
L 367.833153 -170.25464 
L 366.101864 -171.031067 
L 364.370576 -170.581571 
L 362.639288 -171.460029 
L 360.908 -171.207905 
L 359.176712 -172.66909 
L 357.445424 -173.243473 
L 355.714136 -172.806353 
L 353.982847 -173.806421 
L 352.251559 -174.845161 
L 350.520271 -175.74243 
L 348.788983 -175.101226 
L 347.057695 -176.104577 
L 345.326407 -176.46446 
L 343.595119 -175.235817 
L 341.863831 -174.674051 
L 340.132542 -175.763717 
L 338.401254 -175.895134 
L 336.669966 -175.717157 
L 334.938678 -174.366277 
L 333.20739 -172.980685 
L 331.476102 -173.397736 
L 329.744814 -174.067934 
L 328.013525 -175.199265 
L 326.282237 -177.721459 
L 324.550949 -178.716192 
L 322.819661 -179.717947 
L 321.088373 -180.966181 
L 319.357085 -180.573161 
L 317.625797 -181.94727 
L 315.894508 -182.237001 
L 314.16322 -183.047004 
L 312.431932 -182.59357 
L 310.700644 -182.863359 
L 308.969356 -182.157122 
L 307.238068 -180.3685 
L 305.50678 -178.211145 
L 303.775492 -176.895453 
L 302.044203 -176.033225 
L 300.312915 -176.06039 
L 298.581627 -176.300859 
L 296.850339 -175.906772 
L 295.119051 -175.524581 
L 293.387763 -174.26174 
L 291.656475 -174.26729 
L 289.925186 -174.845261 
L 288.193898 -175.370825 
L 286.46261 -174.655777 
L 284.731322 -174.825358 
L 283.000034 -173.010744 
L 281.268746 -172.966186 
L 279.537458 -173.949846 
L 277.806169 -174.408964 
L 276.074881 -176.344804 
L 274.343593 -176.767873 
L 272.612305 -176.623074 
L 270.881017 -177.179919 
L 269.149729 -177.890263 
L 267.418441 -177.765095 
L 265.687153 -180.065311 
L 263.955864 -180.261017 
L 262.224576 -178.355451 
L 260.493288 -177.895896 
L 258.762 -176.916694 
L 257.030712 -175.389367 
L 255.299424 -175.87307 
L 253.568136 -175.40237 
L 251.836847 -174.780824 
L 250.105559 -175.55437 
L 248.374271 -174.794457 
L 246.642983 -175.430909 
L 244.911695 -177.308065 
L 243.180407 -178.58715 
L 241.449119 -178.146342 
L 239.717831 -178.969889 
L 237.986542 -178.955952 
L 236.255254 -179.540996 
L 234.523966 -180.358773 
L 232.792678 -180.384641 
L 231.06139 -182.301159 
L 229.330102 -183.729286 
L 227.598814 -184.308909 
L 225.867525 -184.996778 
L 224.136237 -186.315278 
L 222.404949 -186.985851 
L 220.673661 -186.756889 
L 218.942373 -186.008972 
L 217.211085 -186.210408 
L 215.479797 -185.761476 
L 213.748508 -183.494176 
L 212.01722 -181.992571 
L 210.285932 -180.833292 
L 208.554644 -178.588199 
L 206.823356 -178.120757 
L 205.092068 -177.62589 
L 203.36078 -177.973464 
L 201.629492 -178.394526 
L 199.898203 -179.169614 
L 198.166915 -179.081501 
L 196.435627 -179.06066 
L 194.704339 -178.795626 
L 192.973051 -178.414113 
L 191.241763 -178.475227 
L 189.510475 -178.318048 
L 187.779186 -178.033284 
L 186.047898 -177.974191 
L 184.31661 -178.194984 
L 182.585322 -177.689521 
L 180.854034 -178.832273 
L 179.122746 -179.663298 
L 177.391458 -180.269266 
L 175.660169 -180.448361 
L 173.928881 -181.490787 
L 172.197593 -181.061159 
L 170.466305 -181.273238 
L 168.735017 -181.94696 
L 167.003729 -181.723567 
L 165.272441 -181.510585 
L 163.541153 -180.462285 
L 161.809864 -178.537388 
L 160.078576 -178.57028 
L 158.347288 -178.37544 
L 156.616 -178.443705 
L 154.884712 -178.051577 
L 153.153424 -177.582316 
L 151.422136 -177.110041 
L 149.690847 -176.265288 
L 147.959559 -175.997704 
L 146.228271 -176.378828 
L 144.496983 -177.757036 
L 142.765695 -177.512644 
L 141.034407 -177.170718 
L 139.303119 -175.867069 
L 137.571831 -176.020588 
L 135.840542 -176.251726 
L 134.109254 -177.183734 
L 132.377966 -178.443336 
L 130.646678 -179.180362 
L 128.91539 -180.022803 
L 127.184102 -180.789277 
L 125.452814 -180.322802 
L 123.721525 -180.895824 
L 121.990237 -181.694204 
L 120.258949 -182.104776 
L 118.527661 -183.116009 
L 116.796373 -181.566553 
L 115.065085 -180.416057 
L 113.333797 -180.821429 
L 111.602508 -180.510401 
L 109.87122 -179.958138 
L 108.139932 -179.551845 
L 106.408644 -179.058361 
L 104.677356 -178.96348 
L 102.946068 -179.475082 
L 101.21478 -179.206456 
L 99.483492 -179.020218 
L 97.752203 -179.627188 
L 96.020915 -179.123265 
L 94.289627 -178.79491 
L 92.558339 -178.116649 
L 90.827051 -178.494529 
L 89.095763 -179.72657 
L 87.364475 -179.972527 
L 85.633186 -179.190835 
L 83.901898 -179.789906 
L 82.17061 -182.31268 
L 80.439322 -182.715717 
L 78.708034 -182.265994 
L 76.976746 -181.577295 
L 75.245458 -183.65717 
L 73.514169 -185.716433 
L 71.782881 -185.825929 
L 70.051593 -186.043463 
L 68.320305 -186.303196 
L 66.589017 -185.255539 
L 64.857729 -183.604968 
L 63.126441 -183.492788 
L 61.395153 -183.248824 
L 59.663864 -183.98452 
L 57.932576 -182.294194 
L 56.201288 -181.164732 
L 54.47 -181.646887 
z
" id="mb0b9f639b8" style="stroke:#0000ff;stroke-opacity:0.3;"/>
    </defs>
    <g clip-path="url(#p9bb73c68a3)">
     <use style="fill:#0000ff;fill-opacity:0.3;stroke:#0000ff;stroke-opacity:0.3;" x="0" xlink:href="#mb0b9f639b8" y="223.2"/>
    </g>
   </g>
   <g id="matplotlib.axis_1">
    <g id="xtick_1">
     <g id="line2d_1">
      <defs>
       <path d="M 0 0 
L 0 3.5 
" id="m7855f1618d" style="stroke:#000000;stroke-width:0.8;"/>
      </defs>
      <g>
       <use style="stroke:#000000;stroke-width:0.8;" x="137.485266" xlink:href="#m7855f1618d" y="174.76"/>
      </g>
     </g>
     <g id="text_1">
      <!-- 0.0 -->
      <defs>
       <path d="M 31.78125 66.40625 
Q 24.171875 66.40625 20.328125 58.90625 
Q 16.5 51.421875 16.5 36.375 
Q 16.5 21.390625 20.328125 13.890625 
Q 24.171875 6.390625 31.78125 6.390625 
Q 39.453125 6.390625 43.28125 13.890625 
Q 47.125 21.390625 47.125 36.375 
Q 47.125 51.421875 43.28125 58.90625 
Q 39.453125 66.40625 31.78125 66.40625 
z
M 31.78125 74.21875 
Q 44.046875 74.21875 50.515625 64.515625 
Q 56.984375 54.828125 56.984375 36.375 
Q 56.984375 17.96875 50.515625 8.265625 
Q 44.046875 -1.421875 31.78125 -1.421875 
Q 19.53125 -1.421875 13.0625 8.265625 
Q 6.59375 17.96875 6.59375 36.375 
Q 6.59375 54.828125 13.0625 64.515625 
Q 19.53125 74.21875 31.78125 74.21875 
z
" id="DejaVuSans-48"/>
       <path d="M 10.6875 12.40625 
L 21 12.40625 
L 21 0 
L 10.6875 0 
z
" id="DejaVuSans-46"/>
      </defs>
      <g transform="translate(127.943391 190.878125)scale(0.12 -0.12)">
       <use xlink:href="#DejaVuSans-48"/>
       <use x="63.623047" xlink:href="#DejaVuSans-46"/>
       <use x="95.410156" xlink:href="#DejaVuSans-48"/>
      </g>
     </g>
    </g>
    <g id="xtick_2">
     <g id="line2d_2">
      <g>
       <use style="stroke:#000000;stroke-width:0.8;" x="224.049673" xlink:href="#m7855f1618d" y="174.76"/>
      </g>
     </g>
     <g id="text_2">
      <!-- 0.5 -->
      <defs>
       <path d="M 10.796875 72.90625 
L 49.515625 72.90625 
L 49.515625 64.59375 
L 19.828125 64.59375 
L 19.828125 46.734375 
Q 21.96875 47.46875 24.109375 47.828125 
Q 26.265625 48.1875 28.421875 48.1875 
Q 40.625 48.1875 47.75 41.5 
Q 54.890625 34.8125 54.890625 23.390625 
Q 54.890625 11.625 47.5625 5.09375 
Q 40.234375 -1.421875 26.90625 -1.421875 
Q 22.3125 -1.421875 17.546875 -0.640625 
Q 12.796875 0.140625 7.71875 1.703125 
L 7.71875 11.625 
Q 12.109375 9.234375 16.796875 8.0625 
Q 21.484375 6.890625 26.703125 6.890625 
Q 35.15625 6.890625 40.078125 11.328125 
Q 45.015625 15.765625 45.015625 23.390625 
Q 45.015625 31 40.078125 35.4375 
Q 35.15625 39.890625 26.703125 39.890625 
Q 22.75 39.890625 18.8125 39.015625 
Q 14.890625 38.140625 10.796875 36.28125 
z
" id="DejaVuSans-53"/>
      </defs>
      <g transform="translate(214.507798 190.878125)scale(0.12 -0.12)">
       <use xlink:href="#DejaVuSans-48"/>
       <use x="63.623047" xlink:href="#DejaVuSans-46"/>
       <use x="95.410156" xlink:href="#DejaVuSans-53"/>
      </g>
     </g>
    </g>
    <g id="xtick_3">
     <g id="line2d_3">
      <g>
       <use style="stroke:#000000;stroke-width:0.8;" x="310.61408" xlink:href="#m7855f1618d" y="174.76"/>
      </g>
     </g>
     <g id="text_3">
      <!-- 1.0 -->
      <defs>
       <path d="M 12.40625 8.296875 
L 28.515625 8.296875 
L 28.515625 63.921875 
L 10.984375 60.40625 
L 10.984375 69.390625 
L 28.421875 72.90625 
L 38.28125 72.90625 
L 38.28125 8.296875 
L 54.390625 8.296875 
L 54.390625 0 
L 12.40625 0 
z
" id="DejaVuSans-49"/>
      </defs>
      <g transform="translate(301.072205 190.878125)scale(0.12 -0.12)">
       <use xlink:href="#DejaVuSans-49"/>
       <use x="63.623047" xlink:href="#DejaVuSans-46"/>
       <use x="95.410156" xlink:href="#DejaVuSans-48"/>
      </g>
     </g>
    </g>
    <g id="xtick_4">
     <g id="line2d_4">
      <g>
       <use style="stroke:#000000;stroke-width:0.8;" x="397.178486" xlink:href="#m7855f1618d" y="174.76"/>
      </g>
     </g>
     <g id="text_4">
      <!-- 1.5 -->
      <g transform="translate(387.636611 190.878125)scale(0.12 -0.12)">
       <use xlink:href="#DejaVuSans-49"/>
       <use x="63.623047" xlink:href="#DejaVuSans-46"/>
       <use x="95.410156" xlink:href="#DejaVuSans-53"/>
      </g>
     </g>
    </g>
    <g id="xtick_5">
     <g id="line2d_5">
      <g>
       <use style="stroke:#000000;stroke-width:0.8;" x="483.742893" xlink:href="#m7855f1618d" y="174.76"/>
      </g>
     </g>
     <g id="text_5">
      <!-- 2.0 -->
      <defs>
       <path d="M 19.1875 8.296875 
L 53.609375 8.296875 
L 53.609375 0 
L 7.328125 0 
L 7.328125 8.296875 
Q 12.9375 14.109375 22.625 23.890625 
Q 32.328125 33.6875 34.8125 36.53125 
Q 39.546875 41.84375 41.421875 45.53125 
Q 43.3125 49.21875 43.3125 52.78125 
Q 43.3125 58.59375 39.234375 62.25 
Q 35.15625 65.921875 28.609375 65.921875 
Q 23.96875 65.921875 18.8125 64.3125 
Q 13.671875 62.703125 7.8125 59.421875 
L 7.8125 69.390625 
Q 13.765625 71.78125 18.9375 73 
Q 24.125 74.21875 28.421875 74.21875 
Q 39.75 74.21875 46.484375 68.546875 
Q 53.21875 62.890625 53.21875 53.421875 
Q 53.21875 48.921875 51.53125 44.890625 
Q 49.859375 40.875 45.40625 35.40625 
Q 44.1875 33.984375 37.640625 27.21875 
Q 31.109375 20.453125 19.1875 8.296875 
z
" id="DejaVuSans-50"/>
      </defs>
      <g transform="translate(474.201018 190.878125)scale(0.12 -0.12)">
       <use xlink:href="#DejaVuSans-50"/>
       <use x="63.623047" xlink:href="#DejaVuSans-46"/>
       <use x="95.410156" xlink:href="#DejaVuSans-48"/>
      </g>
     </g>
    </g>
    <g id="text_6">
     <!-- Time (s) -->
     <defs>
      <path d="M -0.296875 72.90625 
L 61.375 72.90625 
L 61.375 64.59375 
L 35.5 64.59375 
L 35.5 0 
L 25.59375 0 
L 25.59375 64.59375 
L -0.296875 64.59375 
z
" id="DejaVuSans-84"/>
      <path d="M 9.421875 54.6875 
L 18.40625 54.6875 
L 18.40625 0 
L 9.421875 0 
z
M 9.421875 75.984375 
L 18.40625 75.984375 
L 18.40625 64.59375 
L 9.421875 64.59375 
z
" id="DejaVuSans-105"/>
      <path d="M 52 44.1875 
Q 55.375 50.25 60.0625 53.125 
Q 64.75 56 71.09375 56 
Q 79.640625 56 84.28125 50.015625 
Q 88.921875 44.046875 88.921875 33.015625 
L 88.921875 0 
L 79.890625 0 
L 79.890625 32.71875 
Q 79.890625 40.578125 77.09375 44.375 
Q 74.3125 48.1875 68.609375 48.1875 
Q 61.625 48.1875 57.5625 43.546875 
Q 53.515625 38.921875 53.515625 30.90625 
L 53.515625 0 
L 44.484375 0 
L 44.484375 32.71875 
Q 44.484375 40.625 41.703125 44.40625 
Q 38.921875 48.1875 33.109375 48.1875 
Q 26.21875 48.1875 22.15625 43.53125 
Q 18.109375 38.875 18.109375 30.90625 
L 18.109375 0 
L 9.078125 0 
L 9.078125 54.6875 
L 18.109375 54.6875 
L 18.109375 46.1875 
Q 21.1875 51.21875 25.484375 53.609375 
Q 29.78125 56 35.6875 56 
Q 41.65625 56 45.828125 52.96875 
Q 50 49.953125 52 44.1875 
z
" id="DejaVuSans-109"/>
      <path d="M 56.203125 29.59375 
L 56.203125 25.203125 
L 14.890625 25.203125 
Q 15.484375 15.921875 20.484375 11.0625 
Q 25.484375 6.203125 34.421875 6.203125 
Q 39.59375 6.203125 44.453125 7.46875 
Q 49.3125 8.734375 54.109375 11.28125 
L 54.109375 2.78125 
Q 49.265625 0.734375 44.1875 -0.34375 
Q 39.109375 -1.421875 33.890625 -1.421875 
Q 20.796875 -1.421875 13.15625 6.1875 
Q 5.515625 13.8125 5.515625 26.8125 
Q 5.515625 40.234375 12.765625 48.109375 
Q 20.015625 56 32.328125 56 
Q 43.359375 56 49.78125 48.890625 
Q 56.203125 41.796875 56.203125 29.59375 
z
M 47.21875 32.234375 
Q 47.125 39.59375 43.09375 43.984375 
Q 39.0625 48.390625 32.421875 48.390625 
Q 24.90625 48.390625 20.390625 44.140625 
Q 15.875 39.890625 15.1875 32.171875 
z
" id="DejaVuSans-101"/>
      <path id="DejaVuSans-32"/>
      <path d="M 31 75.875 
Q 24.46875 64.65625 21.28125 53.65625 
Q 18.109375 42.671875 18.109375 31.390625 
Q 18.109375 20.125 21.3125 9.0625 
Q 24.515625 -2 31 -13.1875 
L 23.1875 -13.1875 
Q 15.875 -1.703125 12.234375 9.375 
Q 8.59375 20.453125 8.59375 31.390625 
Q 8.59375 42.28125 12.203125 53.3125 
Q 15.828125 64.359375 23.1875 75.875 
z
" id="DejaVuSans-40"/>
      <path d="M 44.28125 53.078125 
L 44.28125 44.578125 
Q 40.484375 46.53125 36.375 47.5 
Q 32.28125 48.484375 27.875 48.484375 
Q 21.1875 48.484375 17.84375 46.4375 
Q 14.5 44.390625 14.5 40.28125 
Q 14.5 37.15625 16.890625 35.375 
Q 19.28125 33.59375 26.515625 31.984375 
L 29.59375 31.296875 
Q 39.15625 29.25 43.1875 25.515625 
Q 47.21875 21.78125 47.21875 15.09375 
Q 47.21875 7.46875 41.1875 3.015625 
Q 35.15625 -1.421875 24.609375 -1.421875 
Q 20.21875 -1.421875 15.453125 -0.5625 
Q 10.6875 0.296875 5.421875 2 
L 5.421875 11.28125 
Q 10.40625 8.6875 15.234375 7.390625 
Q 20.0625 6.109375 24.8125 6.109375 
Q 31.15625 6.109375 34.5625 8.28125 
Q 37.984375 10.453125 37.984375 14.40625 
Q 37.984375 18.0625 35.515625 20.015625 
Q 33.0625 21.96875 24.703125 23.78125 
L 21.578125 24.515625 
Q 13.234375 26.265625 9.515625 29.90625 
Q 5.8125 33.546875 5.8125 39.890625 
Q 5.8125 47.609375 11.28125 51.796875 
Q 16.75 56 26.8125 56 
Q 31.78125 56 36.171875 55.265625 
Q 40.578125 54.546875 44.28125 53.078125 
z
" id="DejaVuSans-115"/>
      <path d="M 8.015625 75.875 
L 15.828125 75.875 
Q 23.140625 64.359375 26.78125 53.3125 
Q 30.421875 42.28125 30.421875 31.390625 
Q 30.421875 20.453125 26.78125 9.375 
Q 23.140625 -1.703125 15.828125 -13.1875 
L 8.015625 -13.1875 
Q 14.5 -2 17.703125 9.0625 
Q 20.90625 20.125 20.90625 31.390625 
Q 20.90625 42.671875 17.703125 53.65625 
Q 14.5 64.65625 8.015625 75.875 
z
" id="DejaVuSans-41"/>
     </defs>
     <g transform="translate(280.33975 208.3155)scale(0.144 -0.144)">
      <use xlink:href="#DejaVuSans-84"/>
      <use x="61.037109" xlink:href="#DejaVuSans-105"/>
      <use x="88.820312" xlink:href="#DejaVuSans-109"/>
      <use x="186.232422" xlink:href="#DejaVuSans-101"/>
      <use x="247.755859" xlink:href="#DejaVuSans-32"/>
      <use x="279.542969" xlink:href="#DejaVuSans-40"/>
      <use x="318.556641" xlink:href="#DejaVuSans-115"/>
      <use x="370.65625" xlink:href="#DejaVuSans-41"/>
     </g>
    </g>
   </g>
   <g id="matplotlib.axis_2">
    <g id="ytick_1">
     <g id="line2d_6">
      <defs>
       <path d="M 0 0 
L -3.5 0 
" id="m1812c35f1a" style="stroke:#000000;stroke-width:0.8;"/>
      </defs>
      <g>
       <use style="stroke:#000000;stroke-width:0.8;" x="54.47" xlink:href="#m1812c35f1a" y="174.76"/>
      </g>
     </g>
     <g id="text_7">
      <!-- 0.0 -->
      <g transform="translate(28.38625 179.319062)scale(0.12 -0.12)">
       <use xlink:href="#DejaVuSans-48"/>
       <use x="63.623047" xlink:href="#DejaVuSans-46"/>
       <use x="95.410156" xlink:href="#DejaVuSans-48"/>
      </g>
     </g>
    </g>
    <g id="ytick_2">
     <g id="line2d_7">
      <g>
       <use style="stroke:#000000;stroke-width:0.8;" x="54.47" xlink:href="#m1812c35f1a" y="144.870298"/>
      </g>
     </g>
     <g id="text_8">
      <!-- 0.1 -->
      <g transform="translate(28.38625 149.42936)scale(0.12 -0.12)">
       <use xlink:href="#DejaVuSans-48"/>
       <use x="63.623047" xlink:href="#DejaVuSans-46"/>
       <use x="95.410156" xlink:href="#DejaVuSans-49"/>
      </g>
     </g>
    </g>
    <g id="ytick_3">
     <g id="line2d_8">
      <g>
       <use style="stroke:#000000;stroke-width:0.8;" x="54.47" xlink:href="#m1812c35f1a" y="114.980595"/>
      </g>
     </g>
     <g id="text_9">
      <!-- 0.2 -->
      <g transform="translate(28.38625 119.539658)scale(0.12 -0.12)">
       <use xlink:href="#DejaVuSans-48"/>
       <use x="63.623047" xlink:href="#DejaVuSans-46"/>
       <use x="95.410156" xlink:href="#DejaVuSans-50"/>
      </g>
     </g>
    </g>
    <g id="ytick_4">
     <g id="line2d_9">
      <g>
       <use style="stroke:#000000;stroke-width:0.8;" x="54.47" xlink:href="#m1812c35f1a" y="85.090893"/>
      </g>
     </g>
     <g id="text_10">
      <!-- 0.3 -->
      <defs>
       <path d="M 40.578125 39.3125 
Q 47.65625 37.796875 51.625 33 
Q 55.609375 28.21875 55.609375 21.1875 
Q 55.609375 10.40625 48.1875 4.484375 
Q 40.765625 -1.421875 27.09375 -1.421875 
Q 22.515625 -1.421875 17.65625 -0.515625 
Q 12.796875 0.390625 7.625 2.203125 
L 7.625 11.71875 
Q 11.71875 9.328125 16.59375 8.109375 
Q 21.484375 6.890625 26.8125 6.890625 
Q 36.078125 6.890625 40.9375 10.546875 
Q 45.796875 14.203125 45.796875 21.1875 
Q 45.796875 27.640625 41.28125 31.265625 
Q 36.765625 34.90625 28.71875 34.90625 
L 20.21875 34.90625 
L 20.21875 43.015625 
L 29.109375 43.015625 
Q 36.375 43.015625 40.234375 45.921875 
Q 44.09375 48.828125 44.09375 54.296875 
Q 44.09375 59.90625 40.109375 62.90625 
Q 36.140625 65.921875 28.71875 65.921875 
Q 24.65625 65.921875 20.015625 65.03125 
Q 15.375 64.15625 9.8125 62.3125 
L 9.8125 71.09375 
Q 15.4375 72.65625 20.34375 73.4375 
Q 25.25 74.21875 29.59375 74.21875 
Q 40.828125 74.21875 47.359375 69.109375 
Q 53.90625 64.015625 53.90625 55.328125 
Q 53.90625 49.265625 50.4375 45.09375 
Q 46.96875 40.921875 40.578125 39.3125 
z
" id="DejaVuSans-51"/>
      </defs>
      <g transform="translate(28.38625 89.649955)scale(0.12 -0.12)">
       <use xlink:href="#DejaVuSans-48"/>
       <use x="63.623047" xlink:href="#DejaVuSans-46"/>
       <use x="95.410156" xlink:href="#DejaVuSans-51"/>
      </g>
     </g>
    </g>
    <g id="ytick_5">
     <g id="line2d_10">
      <g>
       <use style="stroke:#000000;stroke-width:0.8;" x="54.47" xlink:href="#m1812c35f1a" y="55.201191"/>
      </g>
     </g>
     <g id="text_11">
      <!-- 0.4 -->
      <defs>
       <path d="M 37.796875 64.3125 
L 12.890625 25.390625 
L 37.796875 25.390625 
z
M 35.203125 72.90625 
L 47.609375 72.90625 
L 47.609375 25.390625 
L 58.015625 25.390625 
L 58.015625 17.1875 
L 47.609375 17.1875 
L 47.609375 0 
L 37.796875 0 
L 37.796875 17.1875 
L 4.890625 17.1875 
L 4.890625 26.703125 
z
" id="DejaVuSans-52"/>
      </defs>
      <g transform="translate(28.38625 59.760253)scale(0.12 -0.12)">
       <use xlink:href="#DejaVuSans-48"/>
       <use x="63.623047" xlink:href="#DejaVuSans-46"/>
       <use x="95.410156" xlink:href="#DejaVuSans-52"/>
      </g>
     </g>
    </g>
    <g id="text_12">
     <!-- Num. Act. Cells Moving Avg. -->
     <defs>
      <path d="M 9.8125 72.90625 
L 23.09375 72.90625 
L 55.421875 11.921875 
L 55.421875 72.90625 
L 64.984375 72.90625 
L 64.984375 0 
L 51.703125 0 
L 19.390625 60.984375 
L 19.390625 0 
L 9.8125 0 
z
" id="DejaVuSans-78"/>
      <path d="M 8.5 21.578125 
L 8.5 54.6875 
L 17.484375 54.6875 
L 17.484375 21.921875 
Q 17.484375 14.15625 20.5 10.265625 
Q 23.53125 6.390625 29.59375 6.390625 
Q 36.859375 6.390625 41.078125 11.03125 
Q 45.3125 15.671875 45.3125 23.6875 
L 45.3125 54.6875 
L 54.296875 54.6875 
L 54.296875 0 
L 45.3125 0 
L 45.3125 8.40625 
Q 42.046875 3.421875 37.71875 1 
Q 33.40625 -1.421875 27.6875 -1.421875 
Q 18.265625 -1.421875 13.375 4.4375 
Q 8.5 10.296875 8.5 21.578125 
z
M 31.109375 56 
z
" id="DejaVuSans-117"/>
      <path d="M 34.1875 63.1875 
L 20.796875 26.90625 
L 47.609375 26.90625 
z
M 28.609375 72.90625 
L 39.796875 72.90625 
L 67.578125 0 
L 57.328125 0 
L 50.6875 18.703125 
L 17.828125 18.703125 
L 11.1875 0 
L 0.78125 0 
z
" id="DejaVuSans-65"/>
      <path d="M 48.78125 52.59375 
L 48.78125 44.1875 
Q 44.96875 46.296875 41.140625 47.34375 
Q 37.3125 48.390625 33.40625 48.390625 
Q 24.65625 48.390625 19.8125 42.84375 
Q 14.984375 37.3125 14.984375 27.296875 
Q 14.984375 17.28125 19.8125 11.734375 
Q 24.65625 6.203125 33.40625 6.203125 
Q 37.3125 6.203125 41.140625 7.25 
Q 44.96875 8.296875 48.78125 10.40625 
L 48.78125 2.09375 
Q 45.015625 0.34375 40.984375 -0.53125 
Q 36.96875 -1.421875 32.421875 -1.421875 
Q 20.0625 -1.421875 12.78125 6.34375 
Q 5.515625 14.109375 5.515625 27.296875 
Q 5.515625 40.671875 12.859375 48.328125 
Q 20.21875 56 33.015625 56 
Q 37.15625 56 41.109375 55.140625 
Q 45.0625 54.296875 48.78125 52.59375 
z
" id="DejaVuSans-99"/>
      <path d="M 18.3125 70.21875 
L 18.3125 54.6875 
L 36.8125 54.6875 
L 36.8125 47.703125 
L 18.3125 47.703125 
L 18.3125 18.015625 
Q 18.3125 11.328125 20.140625 9.421875 
Q 21.96875 7.515625 27.59375 7.515625 
L 36.8125 7.515625 
L 36.8125 0 
L 27.59375 0 
Q 17.1875 0 13.234375 3.875 
Q 9.28125 7.765625 9.28125 18.015625 
L 9.28125 47.703125 
L 2.6875 47.703125 
L 2.6875 54.6875 
L 9.28125 54.6875 
L 9.28125 70.21875 
z
" id="DejaVuSans-116"/>
      <path d="M 64.40625 67.28125 
L 64.40625 56.890625 
Q 59.421875 61.53125 53.78125 63.8125 
Q 48.140625 66.109375 41.796875 66.109375 
Q 29.296875 66.109375 22.65625 58.46875 
Q 16.015625 50.828125 16.015625 36.375 
Q 16.015625 21.96875 22.65625 14.328125 
Q 29.296875 6.6875 41.796875 6.6875 
Q 48.140625 6.6875 53.78125 8.984375 
Q 59.421875 11.28125 64.40625 15.921875 
L 64.40625 5.609375 
Q 59.234375 2.09375 53.4375 0.328125 
Q 47.65625 -1.421875 41.21875 -1.421875 
Q 24.65625 -1.421875 15.125 8.703125 
Q 5.609375 18.84375 5.609375 36.375 
Q 5.609375 53.953125 15.125 64.078125 
Q 24.65625 74.21875 41.21875 74.21875 
Q 47.75 74.21875 53.53125 72.484375 
Q 59.328125 70.75 64.40625 67.28125 
z
" id="DejaVuSans-67"/>
      <path d="M 9.421875 75.984375 
L 18.40625 75.984375 
L 18.40625 0 
L 9.421875 0 
z
" id="DejaVuSans-108"/>
      <path d="M 9.8125 72.90625 
L 24.515625 72.90625 
L 43.109375 23.296875 
L 61.8125 72.90625 
L 76.515625 72.90625 
L 76.515625 0 
L 66.890625 0 
L 66.890625 64.015625 
L 48.09375 14.015625 
L 38.1875 14.015625 
L 19.390625 64.015625 
L 19.390625 0 
L 9.8125 0 
z
" id="DejaVuSans-77"/>
      <path d="M 30.609375 48.390625 
Q 23.390625 48.390625 19.1875 42.75 
Q 14.984375 37.109375 14.984375 27.296875 
Q 14.984375 17.484375 19.15625 11.84375 
Q 23.34375 6.203125 30.609375 6.203125 
Q 37.796875 6.203125 41.984375 11.859375 
Q 46.1875 17.53125 46.1875 27.296875 
Q 46.1875 37.015625 41.984375 42.703125 
Q 37.796875 48.390625 30.609375 48.390625 
z
M 30.609375 56 
Q 42.328125 56 49.015625 48.375 
Q 55.71875 40.765625 55.71875 27.296875 
Q 55.71875 13.875 49.015625 6.21875 
Q 42.328125 -1.421875 30.609375 -1.421875 
Q 18.84375 -1.421875 12.171875 6.21875 
Q 5.515625 13.875 5.515625 27.296875 
Q 5.515625 40.765625 12.171875 48.375 
Q 18.84375 56 30.609375 56 
z
" id="DejaVuSans-111"/>
      <path d="M 2.984375 54.6875 
L 12.5 54.6875 
L 29.59375 8.796875 
L 46.6875 54.6875 
L 56.203125 54.6875 
L 35.6875 0 
L 23.484375 0 
z
" id="DejaVuSans-118"/>
      <path d="M 54.890625 33.015625 
L 54.890625 0 
L 45.90625 0 
L 45.90625 32.71875 
Q 45.90625 40.484375 42.875 44.328125 
Q 39.84375 48.1875 33.796875 48.1875 
Q 26.515625 48.1875 22.3125 43.546875 
Q 18.109375 38.921875 18.109375 30.90625 
L 18.109375 0 
L 9.078125 0 
L 9.078125 54.6875 
L 18.109375 54.6875 
L 18.109375 46.1875 
Q 21.34375 51.125 25.703125 53.5625 
Q 30.078125 56 35.796875 56 
Q 45.21875 56 50.046875 50.171875 
Q 54.890625 44.34375 54.890625 33.015625 
z
" id="DejaVuSans-110"/>
      <path d="M 45.40625 27.984375 
Q 45.40625 37.75 41.375 43.109375 
Q 37.359375 48.484375 30.078125 48.484375 
Q 22.859375 48.484375 18.828125 43.109375 
Q 14.796875 37.75 14.796875 27.984375 
Q 14.796875 18.265625 18.828125 12.890625 
Q 22.859375 7.515625 30.078125 7.515625 
Q 37.359375 7.515625 41.375 12.890625 
Q 45.40625 18.265625 45.40625 27.984375 
z
M 54.390625 6.78125 
Q 54.390625 -7.171875 48.1875 -13.984375 
Q 42 -20.796875 29.203125 -20.796875 
Q 24.46875 -20.796875 20.265625 -20.09375 
Q 16.0625 -19.390625 12.109375 -17.921875 
L 12.109375 -9.1875 
Q 16.0625 -11.328125 19.921875 -12.34375 
Q 23.78125 -13.375 27.78125 -13.375 
Q 36.625 -13.375 41.015625 -8.765625 
Q 45.40625 -4.15625 45.40625 5.171875 
L 45.40625 9.625 
Q 42.625 4.78125 38.28125 2.390625 
Q 33.9375 0 27.875 0 
Q 17.828125 0 11.671875 7.65625 
Q 5.515625 15.328125 5.515625 27.984375 
Q 5.515625 40.671875 11.671875 48.328125 
Q 17.828125 56 27.875 56 
Q 33.9375 56 38.28125 53.609375 
Q 42.625 51.21875 45.40625 46.390625 
L 45.40625 54.6875 
L 54.390625 54.6875 
z
" id="DejaVuSans-103"/>
     </defs>
     <g transform="translate(21.3915 202.480625)rotate(-90)scale(0.144 -0.144)">
      <use xlink:href="#DejaVuSans-78"/>
      <use x="74.804688" xlink:href="#DejaVuSans-117"/>
      <use x="138.183594" xlink:href="#DejaVuSans-109"/>
      <use x="235.595703" xlink:href="#DejaVuSans-46"/>
      <use x="267.382812" xlink:href="#DejaVuSans-32"/>
      <use x="299.169922" xlink:href="#DejaVuSans-65"/>
      <use x="367.5625" xlink:href="#DejaVuSans-99"/>
      <use x="422.542969" xlink:href="#DejaVuSans-116"/>
      <use x="461.751953" xlink:href="#DejaVuSans-46"/>
      <use x="493.539062" xlink:href="#DejaVuSans-32"/>
      <use x="525.326172" xlink:href="#DejaVuSans-67"/>
      <use x="595.150391" xlink:href="#DejaVuSans-101"/>
      <use x="656.673828" xlink:href="#DejaVuSans-108"/>
      <use x="684.457031" xlink:href="#DejaVuSans-108"/>
      <use x="712.240234" xlink:href="#DejaVuSans-115"/>
      <use x="764.339844" xlink:href="#DejaVuSans-32"/>
      <use x="796.126953" xlink:href="#DejaVuSans-77"/>
      <use x="882.40625" xlink:href="#DejaVuSans-111"/>
      <use x="943.587891" xlink:href="#DejaVuSans-118"/>
      <use x="1002.767578" xlink:href="#DejaVuSans-105"/>
      <use x="1030.550781" xlink:href="#DejaVuSans-110"/>
      <use x="1093.929688" xlink:href="#DejaVuSans-103"/>
      <use x="1157.40625" xlink:href="#DejaVuSans-32"/>
      <use x="1189.193359" xlink:href="#DejaVuSans-65"/>
      <use x="1257.523438" xlink:href="#DejaVuSans-118"/>
      <use x="1316.703125" xlink:href="#DejaVuSans-103"/>
      <use x="1380.179688" xlink:href="#DejaVuSans-46"/>
     </g>
    </g>
   </g>
   <g id="line2d_11">
    <path clip-path="url(#p9bb73c68a3)" d="M 54.47 45.991426 
L 56.201288 46.383728 
L 57.932576 45.393632 
L 59.663864 43.693655 
L 61.395153 44.272768 
L 63.126441 43.992552 
L 64.857729 43.917828 
L 66.589017 42.329937 
L 68.320305 41.377203 
L 71.782881 41.900273 
L 73.514169 41.974997 
L 75.245458 43.749698 
L 76.976746 45.767253 
L 78.708034 45.18814 
L 80.439322 44.739795 
L 82.17061 44.982649 
L 83.901898 47.336463 
L 85.633186 47.971619 
L 87.364475 47.11229 
L 89.095763 47.317782 
L 90.827051 48.438645 
L 92.558339 48.793586 
L 94.289627 48.177111 
L 97.752203 47.504592 
L 99.483492 48.177111 
L 101.21478 48.083705 
L 102.946068 47.840851 
L 104.677356 48.307878 
L 106.408644 48.121067 
L 111.602508 46.888117 
L 113.333797 46.458453 
L 115.065085 46.832074 
L 116.796373 45.823296 
L 118.527661 44.254087 
L 120.258949 45.262865 
L 121.990237 45.767253 
L 123.721525 46.58922 
L 125.452814 47.093609 
L 127.184102 46.58922 
L 132.377966 48.588094 
L 134.109254 49.821044 
L 135.840542 50.680373 
L 139.303119 50.97927 
L 141.034407 49.783682 
L 144.496983 49.241931 
L 146.228271 50.437519 
L 147.959559 50.792459 
L 149.690847 50.418838 
L 151.422136 49.559509 
L 154.884712 48.550732 
L 156.616 48.326559 
L 158.347288 48.401283 
L 160.078576 48.233154 
L 161.809864 48.326559 
L 163.541153 46.58922 
L 165.272441 45.54308 
L 168.735017 45.262865 
L 170.466305 45.991426 
L 172.197593 46.252961 
L 173.928881 45.636486 
L 175.660169 46.533177 
L 177.391458 46.719988 
L 179.122746 47.224376 
L 180.854034 47.934257 
L 182.585322 48.961715 
L 184.31661 48.532051 
L 186.047898 48.644137 
L 187.779186 48.588094 
L 189.510475 48.307878 
L 191.241763 48.214473 
L 192.973051 48.363921 
L 194.704339 47.9903 
L 196.435627 47.747446 
L 199.898203 47.878213 
L 201.629492 48.550732 
L 205.092068 49.241931 
L 206.823356 48.718861 
L 208.554644 48.419964 
L 210.285932 46.477134 
L 212.01722 45.449675 
L 213.748508 44.142001 
L 215.479797 42.236532 
L 217.211085 42.012359 
L 218.942373 42.273894 
L 220.673661 41.694781 
L 222.404949 41.451927 
L 224.136237 42.180489 
L 225.867525 43.24531 
L 227.598814 43.880466 
L 229.330102 44.384855 
L 231.06139 45.35627 
L 232.792678 46.626582 
L 234.523966 46.514496 
L 236.255254 47.392506 
L 237.986542 47.952938 
L 239.717831 48.008981 
L 241.449119 48.812267 
L 243.180407 48.326559 
L 244.911695 49.428742 
L 246.642983 51.278167 
L 248.374271 51.969366 
L 250.105559 51.633107 
L 251.836847 52.567161 
L 253.568136 52.006729 
L 255.299424 51.633107 
L 257.030712 52.156177 
L 258.762 50.661692 
L 260.493288 49.802363 
L 262.224576 49.522147 
L 263.955864 47.710084 
L 265.687153 47.784808 
L 267.418441 49.615552 
L 269.149729 49.428742 
L 270.881017 50.194665 
L 272.612305 50.699054 
L 274.343593 50.474881 
L 276.074881 50.829822 
L 277.806169 52.623204 
L 279.537458 52.959463 
L 281.268746 53.949559 
L 283.000034 53.856154 
L 284.731322 52.02541 
L 286.46261 52.193539 
L 288.193898 51.539702 
L 289.925186 52.118815 
L 291.656475 52.567161 
L 293.387763 52.604523 
L 295.119051 51.296848 
L 298.581627 50.661692 
L 300.312915 50.904546 
L 302.044203 50.904546 
L 303.775492 50.288071 
L 305.50678 49.073802 
L 307.238068 47.000203 
L 308.969356 45.35627 
L 310.700644 44.777157 
L 312.431932 44.907924 
L 314.16322 44.534303 
L 315.894508 45.430994 
L 317.625797 45.804615 
L 319.357085 47.243057 
L 321.088373 46.888117 
L 324.550949 48.980396 
L 326.282237 49.708958 
L 328.013525 51.932004 
L 329.744814 52.940782 
L 331.476102 53.482533 
L 333.20739 53.818792 
L 336.669966 51.371572 
L 338.401254 51.296848 
L 340.132542 51.558383 
L 341.863831 52.716609 
L 343.595119 52.305626 
L 345.326407 51.166081 
L 347.057695 51.595745 
L 348.788983 52.604523 
L 350.520271 51.913323 
L 352.251559 52.753971 
L 353.982847 53.407808 
L 355.714136 54.416586 
L 357.445424 54.080327 
L 359.176712 54.547353 
L 360.908 55.836347 
L 362.639288 55.742941 
L 364.370576 56.676995 
L 366.101864 56.24733 
L 367.833153 57.087978 
L 369.564441 57.573686 
L 373.027017 59.198938 
L 374.758305 59.834094 
L 376.489593 59.198938 
L 378.220881 59.180257 
L 379.952169 58.993447 
L 381.683458 58.00335 
L 383.414746 57.760496 
L 386.877322 57.555005 
L 388.60861 57.424237 
L 393.802475 58.227523 
L 395.533763 57.741815 
L 397.265051 58.395653 
L 398.996339 57.685772 
L 400.727627 57.555005 
L 402.458915 56.751719 
L 404.190203 56.93853 
L 405.921492 56.7704 
L 409.384068 57.106659 
L 411.115356 57.330832 
L 412.846644 58.563782 
L 414.577932 58.956084 
L 416.30922 60.207716 
L 418.040508 61.123088 
L 419.771797 62.187908 
L 421.503085 62.356038 
L 423.234373 63.252729 
L 424.965661 63.495583 
L 426.696949 63.588988 
L 430.159525 65.587862 
L 431.890814 66.78345 
L 435.35339 68.595513 
L 437.084678 68.819686 
L 438.815966 69.753739 
L 440.547254 69.753739 
L 442.278542 69.473523 
L 444.009831 70.258128 
L 445.741119 69.025178 
L 447.472407 68.614194 
L 449.203695 67.82959 
L 450.934983 68.296616 
L 452.666271 68.446065 
L 454.397559 69.286713 
L 456.128847 69.006497 
L 457.860136 69.454842 
L 459.591424 69.454842 
L 461.322712 69.641653 
L 463.054 71.098776 
L 464.785288 69.398799 
L 466.516576 68.913092 
L 468.247864 67.960357 
L 469.979153 67.250477 
L 471.710441 66.802131 
L 473.441729 67.325201 
L 475.173017 66.78345 
L 478.635593 66.017527 
L 480.366881 64.691171 
L 482.098169 65.419733 
L 483.829458 65.363689 
L 485.560746 65.419733 
L 487.292034 65.643905 
L 490.75461 63.27141 
L 492.485898 63.047237 
L 495.948475 62.019779 
L 497.679763 62.3934 
L 499.411051 61.739563 
L 501.142339 60.600018 
L 504.604915 59.684646 
L 506.336203 59.105533 
L 508.067492 59.105533 
L 509.79878 55.798985 
L 513.261356 50.175984 
L 514.992644 47.9903 
L 516.723932 47.093609 
L 518.45522 45.468356 
L 520.186508 43.151904 
L 521.917797 40.424469 
L 523.649085 38.593725 
L 525.380373 35.436625 
L 527.111661 33.605881 
L 528.842949 32.802595 
L 530.574237 33.306984 
L 532.305525 33.288303 
L 534.036814 34.894874 
L 535.768102 34.726744 
L 537.49939 33.306984 
L 539.230678 32.989405 
L 540.961966 32.858638 
L 542.693254 34.427847 
L 544.424542 36.968472 
L 546.155831 38.462957 
L 547.887119 37.061877 
L 549.618407 36.482764 
L 551.349695 34.315761 
L 553.080983 34.969598 
L 554.812271 36.314635 
L 556.543559 38.238784 
L 558.274847 39.92008 
L 561.737424 40.79809 
L 563.468712 42.217851 
L 565.2 43.861785 
L 565.2 43.861785 
" style="fill:none;stroke:#0000ff;stroke-linecap:square;stroke-width:1.5;"/>
   </g>
   <g id="patch_3">
    <path d="M 54.47 174.76 
L 54.47 26.88 
" style="fill:none;stroke:#000000;stroke-linecap:square;stroke-linejoin:miter;stroke-width:0.8;"/>
   </g>
   <g id="patch_4">
    <path d="M 565.2 174.76 
L 565.2 26.88 
" style="fill:none;stroke:#000000;stroke-linecap:square;stroke-linejoin:miter;stroke-width:0.8;"/>
   </g>
   <g id="patch_5">
    <path d="M 54.47 174.76 
L 565.2 174.76 
" style="fill:none;stroke:#000000;stroke-linecap:square;stroke-linejoin:miter;stroke-width:0.8;"/>
   </g>
   <g id="patch_6">
    <path d="M 54.47 26.88 
L 565.2 26.88 
" style="fill:none;stroke:#000000;stroke-linecap:square;stroke-linejoin:miter;stroke-width:0.8;"/>
   </g>
   <g id="text_13">
    <!-- Striatum, Num Trials=160 All stimulated trials, Num cells = 351 -->
    <defs>
     <path d="M 53.515625 70.515625 
L 53.515625 60.890625 
Q 47.90625 63.578125 42.921875 64.890625 
Q 37.9375 66.21875 33.296875 66.21875 
Q 25.25 66.21875 20.875 63.09375 
Q 16.5 59.96875 16.5 54.203125 
Q 16.5 49.359375 19.40625 46.890625 
Q 22.3125 44.4375 30.421875 42.921875 
L 36.375 41.703125 
Q 47.40625 39.59375 52.65625 34.296875 
Q 57.90625 29 57.90625 20.125 
Q 57.90625 9.515625 50.796875 4.046875 
Q 43.703125 -1.421875 29.984375 -1.421875 
Q 24.8125 -1.421875 18.96875 -0.25 
Q 13.140625 0.921875 6.890625 3.21875 
L 6.890625 13.375 
Q 12.890625 10.015625 18.65625 8.296875 
Q 24.421875 6.59375 29.984375 6.59375 
Q 38.421875 6.59375 43.015625 9.90625 
Q 47.609375 13.234375 47.609375 19.390625 
Q 47.609375 24.75 44.3125 27.78125 
Q 41.015625 30.8125 33.5 32.328125 
L 27.484375 33.5 
Q 16.453125 35.6875 11.515625 40.375 
Q 6.59375 45.0625 6.59375 53.421875 
Q 6.59375 63.09375 13.40625 68.65625 
Q 20.21875 74.21875 32.171875 74.21875 
Q 37.3125 74.21875 42.625 73.28125 
Q 47.953125 72.359375 53.515625 70.515625 
z
" id="DejaVuSans-83"/>
     <path d="M 41.109375 46.296875 
Q 39.59375 47.171875 37.8125 47.578125 
Q 36.03125 48 33.890625 48 
Q 26.265625 48 22.1875 43.046875 
Q 18.109375 38.09375 18.109375 28.8125 
L 18.109375 0 
L 9.078125 0 
L 9.078125 54.6875 
L 18.109375 54.6875 
L 18.109375 46.1875 
Q 20.953125 51.171875 25.484375 53.578125 
Q 30.03125 56 36.53125 56 
Q 37.453125 56 38.578125 55.875 
Q 39.703125 55.765625 41.0625 55.515625 
z
" id="DejaVuSans-114"/>
     <path d="M 34.28125 27.484375 
Q 23.390625 27.484375 19.1875 25 
Q 14.984375 22.515625 14.984375 16.5 
Q 14.984375 11.71875 18.140625 8.90625 
Q 21.296875 6.109375 26.703125 6.109375 
Q 34.1875 6.109375 38.703125 11.40625 
Q 43.21875 16.703125 43.21875 25.484375 
L 43.21875 27.484375 
z
M 52.203125 31.203125 
L 52.203125 0 
L 43.21875 0 
L 43.21875 8.296875 
Q 40.140625 3.328125 35.546875 0.953125 
Q 30.953125 -1.421875 24.3125 -1.421875 
Q 15.921875 -1.421875 10.953125 3.296875 
Q 6 8.015625 6 15.921875 
Q 6 25.140625 12.171875 29.828125 
Q 18.359375 34.515625 30.609375 34.515625 
L 43.21875 34.515625 
L 43.21875 35.40625 
Q 43.21875 41.609375 39.140625 45 
Q 35.0625 48.390625 27.6875 48.390625 
Q 23 48.390625 18.546875 47.265625 
Q 14.109375 46.140625 10.015625 43.890625 
L 10.015625 52.203125 
Q 14.9375 54.109375 19.578125 55.046875 
Q 24.21875 56 28.609375 56 
Q 40.484375 56 46.34375 49.84375 
Q 52.203125 43.703125 52.203125 31.203125 
z
" id="DejaVuSans-97"/>
     <path d="M 11.71875 12.40625 
L 22.015625 12.40625 
L 22.015625 4 
L 14.015625 -11.625 
L 7.71875 -11.625 
L 11.71875 4 
z
" id="DejaVuSans-44"/>
     <path d="M 10.59375 45.40625 
L 73.1875 45.40625 
L 73.1875 37.203125 
L 10.59375 37.203125 
z
M 10.59375 25.484375 
L 73.1875 25.484375 
L 73.1875 17.1875 
L 10.59375 17.1875 
z
" id="DejaVuSans-61"/>
     <path d="M 33.015625 40.375 
Q 26.375 40.375 22.484375 35.828125 
Q 18.609375 31.296875 18.609375 23.390625 
Q 18.609375 15.53125 22.484375 10.953125 
Q 26.375 6.390625 33.015625 6.390625 
Q 39.65625 6.390625 43.53125 10.953125 
Q 47.40625 15.53125 47.40625 23.390625 
Q 47.40625 31.296875 43.53125 35.828125 
Q 39.65625 40.375 33.015625 40.375 
z
M 52.59375 71.296875 
L 52.59375 62.3125 
Q 48.875 64.0625 45.09375 64.984375 
Q 41.3125 65.921875 37.59375 65.921875 
Q 27.828125 65.921875 22.671875 59.328125 
Q 17.53125 52.734375 16.796875 39.40625 
Q 19.671875 43.65625 24.015625 45.921875 
Q 28.375 48.1875 33.59375 48.1875 
Q 44.578125 48.1875 50.953125 41.515625 
Q 57.328125 34.859375 57.328125 23.390625 
Q 57.328125 12.15625 50.6875 5.359375 
Q 44.046875 -1.421875 33.015625 -1.421875 
Q 20.359375 -1.421875 13.671875 8.265625 
Q 6.984375 17.96875 6.984375 36.375 
Q 6.984375 53.65625 15.1875 63.9375 
Q 23.390625 74.21875 37.203125 74.21875 
Q 40.921875 74.21875 44.703125 73.484375 
Q 48.484375 72.75 52.59375 71.296875 
z
" id="DejaVuSans-54"/>
     <path d="M 45.40625 46.390625 
L 45.40625 75.984375 
L 54.390625 75.984375 
L 54.390625 0 
L 45.40625 0 
L 45.40625 8.203125 
Q 42.578125 3.328125 38.25 0.953125 
Q 33.9375 -1.421875 27.875 -1.421875 
Q 17.96875 -1.421875 11.734375 6.484375 
Q 5.515625 14.40625 5.515625 27.296875 
Q 5.515625 40.1875 11.734375 48.09375 
Q 17.96875 56 27.875 56 
Q 33.9375 56 38.25 53.625 
Q 42.578125 51.265625 45.40625 46.390625 
z
M 14.796875 27.296875 
Q 14.796875 17.390625 18.875 11.75 
Q 22.953125 6.109375 30.078125 6.109375 
Q 37.203125 6.109375 41.296875 11.75 
Q 45.40625 17.390625 45.40625 27.296875 
Q 45.40625 37.203125 41.296875 42.84375 
Q 37.203125 48.484375 30.078125 48.484375 
Q 22.953125 48.484375 18.875 42.84375 
Q 14.796875 37.203125 14.796875 27.296875 
z
" id="DejaVuSans-100"/>
    </defs>
    <g transform="translate(117.570625 20.88)scale(0.12 -0.12)">
     <use xlink:href="#DejaVuSans-83"/>
     <use x="63.476562" xlink:href="#DejaVuSans-116"/>
     <use x="102.685547" xlink:href="#DejaVuSans-114"/>
     <use x="143.798828" xlink:href="#DejaVuSans-105"/>
     <use x="171.582031" xlink:href="#DejaVuSans-97"/>
     <use x="232.861328" xlink:href="#DejaVuSans-116"/>
     <use x="272.070312" xlink:href="#DejaVuSans-117"/>
     <use x="335.449219" xlink:href="#DejaVuSans-109"/>
     <use x="432.861328" xlink:href="#DejaVuSans-44"/>
     <use x="464.648438" xlink:href="#DejaVuSans-32"/>
     <use x="496.435547" xlink:href="#DejaVuSans-78"/>
     <use x="571.240234" xlink:href="#DejaVuSans-117"/>
     <use x="634.619141" xlink:href="#DejaVuSans-109"/>
     <use x="732.03125" xlink:href="#DejaVuSans-32"/>
     <use x="763.818359" xlink:href="#DejaVuSans-84"/>
     <use x="824.683594" xlink:href="#DejaVuSans-114"/>
     <use x="865.796875" xlink:href="#DejaVuSans-105"/>
     <use x="893.580078" xlink:href="#DejaVuSans-97"/>
     <use x="954.859375" xlink:href="#DejaVuSans-108"/>
     <use x="982.642578" xlink:href="#DejaVuSans-115"/>
     <use x="1034.742188" xlink:href="#DejaVuSans-61"/>
     <use x="1118.53125" xlink:href="#DejaVuSans-49"/>
     <use x="1182.154297" xlink:href="#DejaVuSans-54"/>
     <use x="1245.777344" xlink:href="#DejaVuSans-48"/>
     <use x="1309.400391" xlink:href="#DejaVuSans-32"/>
     <use x="1341.1875" xlink:href="#DejaVuSans-65"/>
     <use x="1409.595703" xlink:href="#DejaVuSans-108"/>
     <use x="1437.378906" xlink:href="#DejaVuSans-108"/>
     <use x="1465.162109" xlink:href="#DejaVuSans-32"/>
     <use x="1496.949219" xlink:href="#DejaVuSans-115"/>
     <use x="1549.048828" xlink:href="#DejaVuSans-116"/>
     <use x="1588.257812" xlink:href="#DejaVuSans-105"/>
     <use x="1616.041016" xlink:href="#DejaVuSans-109"/>
     <use x="1713.453125" xlink:href="#DejaVuSans-117"/>
     <use x="1776.832031" xlink:href="#DejaVuSans-108"/>
     <use x="1804.615234" xlink:href="#DejaVuSans-97"/>
     <use x="1865.894531" xlink:href="#DejaVuSans-116"/>
     <use x="1905.103516" xlink:href="#DejaVuSans-101"/>
     <use x="1966.626953" xlink:href="#DejaVuSans-100"/>
     <use x="2030.103516" xlink:href="#DejaVuSans-32"/>
     <use x="2061.890625" xlink:href="#DejaVuSans-116"/>
     <use x="2101.099609" xlink:href="#DejaVuSans-114"/>
     <use x="2142.212891" xlink:href="#DejaVuSans-105"/>
     <use x="2169.996094" xlink:href="#DejaVuSans-97"/>
     <use x="2231.275391" xlink:href="#DejaVuSans-108"/>
     <use x="2259.058594" xlink:href="#DejaVuSans-115"/>
     <use x="2311.158203" xlink:href="#DejaVuSans-44"/>
     <use x="2342.945312" xlink:href="#DejaVuSans-32"/>
     <use x="2374.732422" xlink:href="#DejaVuSans-78"/>
     <use x="2449.537109" xlink:href="#DejaVuSans-117"/>
     <use x="2512.916016" xlink:href="#DejaVuSans-109"/>
     <use x="2610.328125" xlink:href="#DejaVuSans-32"/>
     <use x="2642.115234" xlink:href="#DejaVuSans-99"/>
     <use x="2697.095703" xlink:href="#DejaVuSans-101"/>
     <use x="2758.619141" xlink:href="#DejaVuSans-108"/>
     <use x="2786.402344" xlink:href="#DejaVuSans-108"/>
     <use x="2814.185547" xlink:href="#DejaVuSans-115"/>
     <use x="2866.285156" xlink:href="#DejaVuSans-32"/>
     <use x="2898.072266" xlink:href="#DejaVuSans-61"/>
     <use x="2981.861328" xlink:href="#DejaVuSans-32"/>
     <use x="3013.648438" xlink:href="#DejaVuSans-51"/>
     <use x="3077.271484" xlink:href="#DejaVuSans-53"/>
     <use x="3140.894531" xlink:href="#DejaVuSans-49"/>
    </g>
   </g>
   <g id="legend_1">
    <g id="patch_7">
     <path d="M 62.87 168.76 
L 175.173125 168.76 
Q 177.573125 168.76 177.573125 166.36 
L 177.573125 132.3325 
Q 177.573125 129.9325 175.173125 129.9325 
L 62.87 129.9325 
Q 60.47 129.9325 60.47 132.3325 
L 60.47 166.36 
Q 60.47 168.76 62.87 168.76 
z
" style="fill:#ffffff;opacity:0.8;stroke:#cccccc;stroke-linejoin:miter;"/>
    </g>
    <g id="line2d_12">
     <path d="M 65.27 139.650625 
L 89.27 139.650625 
" style="fill:none;stroke:#0000ff;stroke-linecap:square;stroke-width:1.5;"/>
    </g>
    <g id="line2d_13"/>
    <g id="text_14">
     <!-- Moving Avg. -->
     <g transform="translate(98.87 143.850625)scale(0.12 -0.12)">
      <use xlink:href="#DejaVuSans-77"/>
      <use x="86.279297" xlink:href="#DejaVuSans-111"/>
      <use x="147.460938" xlink:href="#DejaVuSans-118"/>
      <use x="206.640625" xlink:href="#DejaVuSans-105"/>
      <use x="234.423828" xlink:href="#DejaVuSans-110"/>
      <use x="297.802734" xlink:href="#DejaVuSans-103"/>
      <use x="361.279297" xlink:href="#DejaVuSans-32"/>
      <use x="393.066406" xlink:href="#DejaVuSans-65"/>
      <use x="461.396484" xlink:href="#DejaVuSans-118"/>
      <use x="520.576172" xlink:href="#DejaVuSans-103"/>
      <use x="584.052734" xlink:href="#DejaVuSans-46"/>
     </g>
    </g>
    <g id="patch_8">
     <path d="M 65.27 161.464375 
L 89.27 161.464375 
L 89.27 153.064375 
L 65.27 153.064375 
z
" style="fill:#0000ff;opacity:0.3;stroke:#0000ff;stroke-linejoin:miter;"/>
    </g>
    <g id="text_15">
     <!-- Std. Err. -->
     <defs>
      <path d="M 9.8125 72.90625 
L 55.90625 72.90625 
L 55.90625 64.59375 
L 19.671875 64.59375 
L 19.671875 43.015625 
L 54.390625 43.015625 
L 54.390625 34.71875 
L 19.671875 34.71875 
L 19.671875 8.296875 
L 56.78125 8.296875 
L 56.78125 0 
L 9.8125 0 
z
" id="DejaVuSans-69"/>
     </defs>
     <g transform="translate(98.87 161.464375)scale(0.12 -0.12)">
      <use xlink:href="#DejaVuSans-83"/>
      <use x="63.476562" xlink:href="#DejaVuSans-116"/>
      <use x="102.685547" xlink:href="#DejaVuSans-100"/>
      <use x="166.162109" xlink:href="#DejaVuSans-46"/>
      <use x="197.949219" xlink:href="#DejaVuSans-32"/>
      <use x="229.736328" xlink:href="#DejaVuSans-69"/>
      <use x="292.919922" xlink:href="#DejaVuSans-114"/>
      <use x="334.017578" xlink:href="#DejaVuSans-114"/>
      <use x="374.990234" xlink:href="#DejaVuSans-46"/>
     </g>
    </g>
   </g>
  </g>
 </g>
 <defs>
  <clipPath id="p9bb73c68a3">
   <rect height="147.88" width="510.73" x="54.47" y="26.88"/>
  </clipPath>
 </defs>
</svg>
