<?xml version="1.0" encoding="utf-8" standalone="no"?>
<!DOCTYPE svg PUBLIC "-//W3C//DTD SVG 1.1//EN"
  "http://www.w3.org/Graphics/SVG/1.1/DTD/svg11.dtd">
<!-- Created with matplotlib (https://matplotlib.org/) -->
<svg height="223.2pt" version="1.1" viewBox="0 0 576 223.2" width="576pt" xmlns="http://www.w3.org/2000/svg" xmlns:xlink="http://www.w3.org/1999/xlink">
 <defs>
  <style type="text/css">
*{stroke-linecap:butt;stroke-linejoin:round;}
  </style>
 </defs>
 <g id="figure_1">
  <g id="patch_1">
   <path d="M 0 223.2 
L 576 223.2 
L 576 0 
L 0 0 
z
" style="fill:#ffffff;"/>
  </g>
  <g id="axes_1">
   <g id="patch_2">
    <path d="M 64.91 174.76 
L 565.2 174.76 
L 565.2 26.88 
L 64.91 26.88 
z
" style="fill:#ffffff;"/>
   </g>
   <g id="PolyCollection_1">
    <defs>
     <path d="M 126.266321 -48.44 
L 126.266321 -196.32 
L 409.44934 -196.32 
L 409.44934 -48.44 
L 409.44934 -48.44 
L 126.266321 -48.44 
z
" id="m4593b7ce7e" style="stroke:#808080;stroke-opacity:0.3;"/>
    </defs>
    <g clip-path="url(#p0ad1a833ae)">
     <use style="fill:#808080;fill-opacity:0.3;stroke:#808080;stroke-opacity:0.3;" x="0" xlink:href="#m4593b7ce7e" y="223.2"/>
    </g>
   </g>
   <g id="PolyCollection_2">
    <defs>
     <path d="M 64.91 -145.634438 
L 64.91 -82.009457 
L 66.797887 -82.300719 
L 68.685774 -81.478272 
L 70.57366 -83.369711 
L 72.461547 -83.862697 
L 74.349434 -82.608059 
L 76.237321 -84.551571 
L 78.125208 -84.147668 
L 80.013094 -84.334117 
L 81.900981 -93.904861 
L 83.788868 -91.386682 
L 85.676755 -89.673073 
L 87.564642 -88.002137 
L 89.452528 -88.263151 
L 91.340415 -89.182924 
L 93.228302 -84.947733 
L 95.116189 -86.283146 
L 97.004075 -82.682183 
L 98.891962 -82.895689 
L 100.779849 -84.41794 
L 102.667736 -88.98427 
L 104.555623 -86.974751 
L 106.443509 -84.658056 
L 108.331396 -83.953158 
L 110.219283 -84.487414 
L 112.10717 -83.280558 
L 113.995057 -81.508996 
L 115.882943 -82.276842 
L 117.77083 -77.625114 
L 119.658717 -79.910312 
L 121.546604 -77.033076 
L 123.434491 -77.057403 
L 125.322377 -78.327333 
L 127.210264 -75.431442 
L 129.098151 -74.382119 
L 130.986038 -75.661023 
L 132.873925 -79.60407 
L 134.761811 -79.792469 
L 136.649698 -83.391837 
L 138.537585 -86.563593 
L 140.425472 -87.378912 
L 142.313358 -89.166219 
L 144.201245 -88.954072 
L 146.089132 -87.667973 
L 147.977019 -87.066488 
L 149.864906 -88.082633 
L 151.752792 -84.840804 
L 153.640679 -82.54176 
L 155.528566 -84.671211 
L 157.416453 -81.121713 
L 159.30434 -76.916638 
L 161.192226 -76.635753 
L 163.080113 -76.486764 
L 164.968 -77.762498 
L 166.855887 -77.118678 
L 168.743774 -77.700643 
L 170.63166 -77.353363 
L 172.519547 -74.82266 
L 174.407434 -80.358921 
L 176.295321 -81.980028 
L 178.183208 -81.992181 
L 180.071094 -83.307693 
L 181.958981 -81.352245 
L 183.846868 -79.560301 
L 185.734755 -78.484578 
L 187.622642 -82.293101 
L 189.510528 -79.354523 
L 191.398415 -78.50382 
L 193.286302 -80.735762 
L 195.174189 -82.037534 
L 197.062075 -81.058475 
L 198.949962 -80.082151 
L 200.837849 -82.943129 
L 202.725736 -83.06041 
L 204.613623 -82.421857 
L 206.501509 -79.114892 
L 208.389396 -78.570575 
L 210.277283 -79.251963 
L 212.16517 -85.55177 
L 214.053057 -84.698888 
L 215.940943 -89.037844 
L 217.82883 -89.904211 
L 219.716717 -92.884174 
L 221.604604 -94.282625 
L 223.492491 -93.443138 
L 225.380377 -95.250699 
L 227.268264 -93.393544 
L 229.156151 -95.618403 
L 231.044038 -96.340081 
L 232.931925 -89.871621 
L 234.819811 -86.897128 
L 236.707698 -86.483078 
L 238.595585 -86.567429 
L 240.483472 -86.965814 
L 242.371358 -87.65921 
L 244.259245 -84.587288 
L 246.147132 -86.70527 
L 248.035019 -81.45079 
L 249.922906 -77.695097 
L 251.810792 -75.798297 
L 253.698679 -79.043031 
L 255.586566 -78.277925 
L 257.474453 -78.601202 
L 259.36234 -79.750915 
L 261.250226 -80.104381 
L 263.138113 -79.573053 
L 265.026 -80.22491 
L 266.913887 -80.205697 
L 268.801774 -81.256473 
L 270.68966 -76.248656 
L 272.577547 -77.255481 
L 274.465434 -76.339657 
L 276.353321 -76.29726 
L 278.241208 -75.623806 
L 280.129094 -75.601683 
L 282.016981 -81.589456 
L 283.904868 -81.483543 
L 285.792755 -80.039337 
L 287.680642 -77.768046 
L 289.568528 -78.667543 
L 291.456415 -77.439778 
L 293.344302 -78.878706 
L 295.232189 -76.652746 
L 297.120075 -77.203688 
L 299.007962 -75.496612 
L 300.895849 -74.103937 
L 302.783736 -76.162198 
L 304.671623 -76.236568 
L 306.559509 -76.191849 
L 308.447396 -78.333473 
L 310.335283 -82.080803 
L 312.22317 -82.324573 
L 314.111057 -81.095593 
L 315.998943 -82.266681 
L 317.88683 -83.699119 
L 319.774717 -85.406439 
L 321.662604 -81.715039 
L 323.550491 -82.392905 
L 325.438377 -80.725725 
L 327.326264 -79.311019 
L 329.214151 -75.845974 
L 331.102038 -76.355878 
L 332.989925 -78.249504 
L 334.877811 -82.307202 
L 336.765698 -91.41243 
L 338.653585 -86.871501 
L 340.541472 -85.722388 
L 342.429358 -88.646545 
L 344.317245 -85.788557 
L 346.205132 -87.409181 
L 348.093019 -89.149725 
L 349.980906 -89.573093 
L 351.868792 -89.962278 
L 353.756679 -89.396785 
L 355.644566 -90.442412 
L 357.532453 -82.716078 
L 359.42034 -79.045445 
L 361.308226 -80.839528 
L 363.196113 -82.73168 
L 365.084 -80.813817 
L 366.971887 -77.409005 
L 368.859774 -77.163998 
L 370.74766 -76.924643 
L 372.635547 -78.854328 
L 374.523434 -81.490688 
L 376.411321 -83.769385 
L 378.299208 -80.039683 
L 380.187094 -82.949108 
L 382.074981 -82.88415 
L 383.962868 -80.161868 
L 385.850755 -74.937824 
L 387.738642 -73.075579 
L 389.626528 -71.519554 
L 391.514415 -70.119613 
L 393.402302 -69.331918 
L 395.290189 -68.579356 
L 397.178075 -71.299612 
L 399.065962 -70.680735 
L 400.953849 -72.617173 
L 402.841736 -75.80231 
L 404.729623 -74.657468 
L 406.617509 -75.417756 
L 408.505396 -74.057846 
L 410.393283 -72.957293 
L 412.28117 -69.891125 
L 414.169057 -70.182794 
L 416.056943 -68.756418 
L 417.94483 -68.442444 
L 419.832717 -69.599011 
L 421.720604 -73.937756 
L 423.608491 -72.637298 
L 425.496377 -70.439734 
L 427.384264 -69.649297 
L 429.272151 -67.16209 
L 431.160038 -64.53347 
L 433.047925 -64.801191 
L 434.935811 -67.125628 
L 436.823698 -67.070544 
L 438.711585 -66.140378 
L 440.599472 -68.121765 
L 442.487358 -68.58063 
L 444.375245 -69.467015 
L 446.263132 -70.542038 
L 448.151019 -68.015517 
L 450.038906 -68.054709 
L 451.926792 -70.454472 
L 453.814679 -70.338109 
L 455.702566 -68.440916 
L 457.590453 -66.030238 
L 459.47834 -65.637719 
L 461.366226 -66.174453 
L 463.254113 -66.929232 
L 465.142 -66.563283 
L 467.029887 -67.941706 
L 468.917774 -68.481416 
L 470.80566 -69.966887 
L 472.693547 -66.96826 
L 474.581434 -69.093179 
L 476.469321 -66.823489 
L 478.357208 -64.230439 
L 480.245094 -64.692875 
L 482.132981 -66.055017 
L 484.020868 -69.385117 
L 485.908755 -68.916388 
L 487.796642 -66.184344 
L 489.684528 -67.26827 
L 491.572415 -67.958621 
L 493.460302 -71.087995 
L 495.348189 -70.947342 
L 497.236075 -68.25867 
L 499.123962 -69.257938 
L 501.011849 -73.359233 
L 502.899736 -74.719642 
L 504.787623 -71.607666 
L 506.675509 -73.684547 
L 508.563396 -76.520169 
L 510.451283 -80.55516 
L 512.33917 -79.71258 
L 514.227057 -81.005191 
L 516.114943 -79.85143 
L 518.00283 -78.88358 
L 519.890717 -79.378499 
L 521.778604 -81.451645 
L 523.666491 -83.361705 
L 525.554377 -83.790496 
L 527.442264 -87.869143 
L 529.330151 -86.368223 
L 531.218038 -85.385782 
L 533.105925 -86.485178 
L 534.993811 -86.592135 
L 536.881698 -90.415382 
L 538.769585 -101.217629 
L 540.657472 -106.297784 
L 542.545358 -123.309424 
L 544.433245 -123.146754 
L 546.321132 -122.593699 
L 548.209019 -126.335622 
L 550.096906 -126.508975 
L 551.984792 -132.777241 
L 553.872679 -133.454462 
L 555.760566 -133.692731 
L 557.648453 -119.413478 
L 559.53634 -130.972583 
L 561.424226 -128.118427 
L 563.312113 -122.325379 
L 565.2 -122.75174 
L 565.2 -177.540553 
L 565.2 -177.540553 
L 563.312113 -177.331175 
L 561.424226 -186.564862 
L 559.53634 -191.809767 
L 557.648453 -177.075376 
L 555.760566 -194.612139 
L 553.872679 -196.32 
L 551.984792 -194.849231 
L 550.096906 -185.787247 
L 548.209019 -185.226428 
L 546.321132 -181.90565 
L 544.433245 -186.26323 
L 542.545358 -187.416794 
L 540.657472 -154.235093 
L 538.769585 -153.092345 
L 536.881698 -148.390022 
L 534.993811 -141.523683 
L 533.105925 -140.904462 
L 531.218038 -140.902508 
L 529.330151 -144.842291 
L 527.442264 -146.570688 
L 525.554377 -135.300387 
L 523.666491 -134.985185 
L 521.778604 -129.600268 
L 519.890717 -125.521669 
L 518.00283 -126.520381 
L 516.114943 -128.518747 
L 514.227057 -132.162766 
L 512.33917 -123.132856 
L 510.451283 -122.905788 
L 508.563396 -108.505073 
L 506.675509 -104.099039 
L 504.787623 -101.498603 
L 502.899736 -105.40985 
L 501.011849 -104.053269 
L 499.123962 -97.680199 
L 497.236075 -95.660125 
L 495.348189 -100.244111 
L 493.460302 -99.841137 
L 491.572415 -95.827 
L 489.684528 -96.678148 
L 487.796642 -94.79214 
L 485.908755 -92.252513 
L 484.020868 -92.832839 
L 482.132981 -91.954503 
L 480.245094 -95.784234 
L 478.357208 -94.682751 
L 476.469321 -97.559086 
L 474.581434 -106.222367 
L 472.693547 -100.138967 
L 470.80566 -104.762696 
L 468.917774 -94.385274 
L 467.029887 -92.191706 
L 465.142 -87.474332 
L 463.254113 -85.271132 
L 461.366226 -80.751875 
L 459.47834 -80.233276 
L 457.590453 -81.714396 
L 455.702566 -85.41535 
L 453.814679 -87.816548 
L 451.926792 -88.365899 
L 450.038906 -82.964613 
L 448.151019 -82.607438 
L 446.263132 -84.391833 
L 444.375245 -83.350777 
L 442.487358 -79.802662 
L 440.599472 -77.350997 
L 438.711585 -73.094916 
L 436.823698 -79.041342 
L 434.935811 -77.451795 
L 433.047925 -75.454086 
L 431.160038 -74.125578 
L 429.272151 -78.294439 
L 427.384264 -83.564347 
L 425.496377 -86.795591 
L 423.608491 -89.800473 
L 421.720604 -91.935392 
L 419.832717 -87.871325 
L 417.94483 -83.878832 
L 416.056943 -84.035007 
L 414.169057 -86.563476 
L 412.28117 -89.40415 
L 410.393283 -94.339865 
L 408.505396 -101.550687 
L 406.617509 -106.199856 
L 404.729623 -104.557043 
L 402.841736 -106.318521 
L 400.953849 -102.126197 
L 399.065962 -100.531445 
L 397.178075 -104.054557 
L 395.290189 -104.297527 
L 393.402302 -106.89423 
L 391.514415 -108.809926 
L 389.626528 -109.98407 
L 387.738642 -109.40946 
L 385.850755 -110.847559 
L 383.962868 -119.972558 
L 382.074981 -125.269423 
L 380.187094 -123.938871 
L 378.299208 -119.400284 
L 376.411321 -126.427485 
L 374.523434 -125.711526 
L 372.635547 -122.666917 
L 370.74766 -120.241231 
L 368.859774 -120.490727 
L 366.971887 -117.934198 
L 365.084 -121.208783 
L 363.196113 -124.548576 
L 361.308226 -122.078569 
L 359.42034 -117.944147 
L 357.532453 -121.322301 
L 355.644566 -136.715847 
L 353.756679 -137.919799 
L 351.868792 -137.557938 
L 349.980906 -138.37005 
L 348.093019 -138.082415 
L 346.205132 -136.593486 
L 344.317245 -132.401645 
L 342.429358 -135.594846 
L 340.541472 -130.526269 
L 338.653585 -131.331377 
L 336.765698 -132.444567 
L 334.877811 -110.219062 
L 332.989925 -108.635691 
L 331.102038 -103.473401 
L 329.214151 -102.660352 
L 327.326264 -107.187059 
L 325.438377 -110.957975 
L 323.550491 -112.527521 
L 321.662604 -111.341366 
L 319.774717 -114.295898 
L 317.88683 -110.758338 
L 315.998943 -105.171688 
L 314.111057 -104.253986 
L 312.22317 -106.296264 
L 310.335283 -106.134909 
L 308.447396 -103.217483 
L 306.559509 -102.095887 
L 304.671623 -103.079584 
L 302.783736 -105.799085 
L 300.895849 -104.149634 
L 299.007962 -103.411158 
L 297.120075 -105.889774 
L 295.232189 -103.924817 
L 293.344302 -103.076646 
L 291.456415 -100.318263 
L 289.568528 -101.940331 
L 287.680642 -99.092361 
L 285.792755 -102.692456 
L 283.904868 -105.125186 
L 282.016981 -103.070626 
L 280.129094 -92.939259 
L 278.241208 -94.165957 
L 276.353321 -93.488639 
L 274.465434 -92.541189 
L 272.577547 -93.956675 
L 270.68966 -94.209689 
L 268.801774 -100.954765 
L 266.913887 -102.600316 
L 265.026 -102.819172 
L 263.138113 -104.022297 
L 261.250226 -101.146544 
L 259.36234 -99.546136 
L 257.474453 -96.050583 
L 255.586566 -95.218171 
L 253.698679 -95.223506 
L 251.810792 -89.070492 
L 249.922906 -90.434433 
L 248.035019 -99.418701 
L 246.147132 -104.307475 
L 244.259245 -102.229499 
L 242.371358 -105.546816 
L 240.483472 -109.666076 
L 238.595585 -112.683842 
L 236.707698 -108.661346 
L 234.819811 -108.541319 
L 232.931925 -111.212063 
L 231.044038 -116.520669 
L 229.156151 -115.930329 
L 227.268264 -112.425808 
L 225.380377 -112.652626 
L 223.492491 -114.606732 
L 221.604604 -115.855869 
L 219.716717 -113.990906 
L 217.82883 -111.789677 
L 215.940943 -111.821707 
L 214.053057 -107.922237 
L 212.16517 -108.069182 
L 210.277283 -109.461178 
L 208.389396 -111.435342 
L 206.501509 -112.85074 
L 204.613623 -116.251419 
L 202.725736 -115.577761 
L 200.837849 -111.96294 
L 198.949962 -106.738954 
L 197.062075 -101.318609 
L 195.174189 -101.806338 
L 193.286302 -103.374597 
L 191.398415 -101.123647 
L 189.510528 -102.079791 
L 187.622642 -104.133869 
L 185.734755 -99.243411 
L 183.846868 -102.017271 
L 181.958981 -102.044629 
L 180.071094 -104.196003 
L 178.183208 -101.571128 
L 176.295321 -102.866155 
L 174.407434 -102.996462 
L 172.519547 -98.450535 
L 170.63166 -101.583559 
L 168.743774 -104.225469 
L 166.855887 -104.998249 
L 164.968 -108.362263 
L 163.080113 -106.177397 
L 161.192226 -103.964338 
L 159.30434 -104.580191 
L 157.416453 -118.590591 
L 155.528566 -167.3691 
L 153.640679 -166.696861 
L 151.752792 -172.242703 
L 149.864906 -175.736284 
L 147.977019 -175.285116 
L 146.089132 -178.063647 
L 144.201245 -180.034452 
L 142.313358 -177.471553 
L 140.425472 -173.224952 
L 138.537585 -168.853993 
L 136.649698 -164.591409 
L 134.761811 -158.521469 
L 132.873925 -157.29069 
L 130.986038 -151.712015 
L 129.098151 -140.676132 
L 127.210264 -140.192919 
L 125.322377 -132.862518 
L 123.434491 -130.163199 
L 121.546604 -130.296171 
L 119.658717 -132.830704 
L 117.77083 -120.380557 
L 115.882943 -124.931495 
L 113.995057 -124.034792 
L 112.10717 -124.128716 
L 110.219283 -124.439311 
L 108.331396 -128.551277 
L 106.443509 -130.330232 
L 104.555623 -130.470539 
L 102.667736 -136.592692 
L 100.779849 -132.525458 
L 98.891962 -130.218998 
L 97.004075 -131.165652 
L 95.116189 -134.325726 
L 93.228302 -131.398741 
L 91.340415 -137.241135 
L 89.452528 -137.315126 
L 87.564642 -137.117507 
L 85.676755 -142.040888 
L 83.788868 -144.801575 
L 81.900981 -143.613358 
L 80.013094 -101.128372 
L 78.125208 -100.376287 
L 76.237321 -99.022801 
L 74.349434 -94.052199 
L 72.461547 -110.558018 
L 70.57366 -134.314893 
L 68.685774 -135.103024 
L 66.797887 -143.635049 
L 64.91 -145.634438 
z
" id="m5b08677ee1" style="stroke:#0000ff;stroke-opacity:0.3;"/>
    </defs>
    <g clip-path="url(#p0ad1a833ae)">
     <use style="fill:#0000ff;fill-opacity:0.3;stroke:#0000ff;stroke-opacity:0.3;" x="0" xlink:href="#m5b08677ee1" y="223.2"/>
    </g>
   </g>
   <g id="matplotlib.axis_1">
    <g id="xtick_1">
     <g id="line2d_1">
      <defs>
       <path d="M 0 0 
L 0 3.5 
" id="m9d3ecc511e" style="stroke:#000000;stroke-width:0.8;"/>
      </defs>
      <g>
       <use style="stroke:#000000;stroke-width:0.8;" x="126.266321" xlink:href="#m9d3ecc511e" y="174.76"/>
      </g>
     </g>
     <g id="text_1">
      <!-- 0.0 -->
      <defs>
       <path d="M 31.78125 66.40625 
Q 24.171875 66.40625 20.328125 58.90625 
Q 16.5 51.421875 16.5 36.375 
Q 16.5 21.390625 20.328125 13.890625 
Q 24.171875 6.390625 31.78125 6.390625 
Q 39.453125 6.390625 43.28125 13.890625 
Q 47.125 21.390625 47.125 36.375 
Q 47.125 51.421875 43.28125 58.90625 
Q 39.453125 66.40625 31.78125 66.40625 
z
M 31.78125 74.21875 
Q 44.046875 74.21875 50.515625 64.515625 
Q 56.984375 54.828125 56.984375 36.375 
Q 56.984375 17.96875 50.515625 8.265625 
Q 44.046875 -1.421875 31.78125 -1.421875 
Q 19.53125 -1.421875 13.0625 8.265625 
Q 6.59375 17.96875 6.59375 36.375 
Q 6.59375 54.828125 13.0625 64.515625 
Q 19.53125 74.21875 31.78125 74.21875 
z
" id="DejaVuSans-48"/>
       <path d="M 10.6875 12.40625 
L 21 12.40625 
L 21 0 
L 10.6875 0 
z
" id="DejaVuSans-46"/>
      </defs>
      <g transform="translate(116.724446 190.878125)scale(0.12 -0.12)">
       <use xlink:href="#DejaVuSans-48"/>
       <use x="63.623047" xlink:href="#DejaVuSans-46"/>
       <use x="95.410156" xlink:href="#DejaVuSans-48"/>
      </g>
     </g>
    </g>
    <g id="xtick_2">
     <g id="line2d_2">
      <g>
       <use style="stroke:#000000;stroke-width:0.8;" x="220.66066" xlink:href="#m9d3ecc511e" y="174.76"/>
      </g>
     </g>
     <g id="text_2">
      <!-- 0.5 -->
      <defs>
       <path d="M 10.796875 72.90625 
L 49.515625 72.90625 
L 49.515625 64.59375 
L 19.828125 64.59375 
L 19.828125 46.734375 
Q 21.96875 47.46875 24.109375 47.828125 
Q 26.265625 48.1875 28.421875 48.1875 
Q 40.625 48.1875 47.75 41.5 
Q 54.890625 34.8125 54.890625 23.390625 
Q 54.890625 11.625 47.5625 5.09375 
Q 40.234375 -1.421875 26.90625 -1.421875 
Q 22.3125 -1.421875 17.546875 -0.640625 
Q 12.796875 0.140625 7.71875 1.703125 
L 7.71875 11.625 
Q 12.109375 9.234375 16.796875 8.0625 
Q 21.484375 6.890625 26.703125 6.890625 
Q 35.15625 6.890625 40.078125 11.328125 
Q 45.015625 15.765625 45.015625 23.390625 
Q 45.015625 31 40.078125 35.4375 
Q 35.15625 39.890625 26.703125 39.890625 
Q 22.75 39.890625 18.8125 39.015625 
Q 14.890625 38.140625 10.796875 36.28125 
z
" id="DejaVuSans-53"/>
      </defs>
      <g transform="translate(211.118785 190.878125)scale(0.12 -0.12)">
       <use xlink:href="#DejaVuSans-48"/>
       <use x="63.623047" xlink:href="#DejaVuSans-46"/>
       <use x="95.410156" xlink:href="#DejaVuSans-53"/>
      </g>
     </g>
    </g>
    <g id="xtick_3">
     <g id="line2d_3">
      <g>
       <use style="stroke:#000000;stroke-width:0.8;" x="315.055" xlink:href="#m9d3ecc511e" y="174.76"/>
      </g>
     </g>
     <g id="text_3">
      <!-- 1.0 -->
      <defs>
       <path d="M 12.40625 8.296875 
L 28.515625 8.296875 
L 28.515625 63.921875 
L 10.984375 60.40625 
L 10.984375 69.390625 
L 28.421875 72.90625 
L 38.28125 72.90625 
L 38.28125 8.296875 
L 54.390625 8.296875 
L 54.390625 0 
L 12.40625 0 
z
" id="DejaVuSans-49"/>
      </defs>
      <g transform="translate(305.513125 190.878125)scale(0.12 -0.12)">
       <use xlink:href="#DejaVuSans-49"/>
       <use x="63.623047" xlink:href="#DejaVuSans-46"/>
       <use x="95.410156" xlink:href="#DejaVuSans-48"/>
      </g>
     </g>
    </g>
    <g id="xtick_4">
     <g id="line2d_4">
      <g>
       <use style="stroke:#000000;stroke-width:0.8;" x="409.44934" xlink:href="#m9d3ecc511e" y="174.76"/>
      </g>
     </g>
     <g id="text_4">
      <!-- 1.5 -->
      <g transform="translate(399.907465 190.878125)scale(0.12 -0.12)">
       <use xlink:href="#DejaVuSans-49"/>
       <use x="63.623047" xlink:href="#DejaVuSans-46"/>
       <use x="95.410156" xlink:href="#DejaVuSans-53"/>
      </g>
     </g>
    </g>
    <g id="xtick_5">
     <g id="line2d_5">
      <g>
       <use style="stroke:#000000;stroke-width:0.8;" x="503.843679" xlink:href="#m9d3ecc511e" y="174.76"/>
      </g>
     </g>
     <g id="text_5">
      <!-- 2.0 -->
      <defs>
       <path d="M 19.1875 8.296875 
L 53.609375 8.296875 
L 53.609375 0 
L 7.328125 0 
L 7.328125 8.296875 
Q 12.9375 14.109375 22.625 23.890625 
Q 32.328125 33.6875 34.8125 36.53125 
Q 39.546875 41.84375 41.421875 45.53125 
Q 43.3125 49.21875 43.3125 52.78125 
Q 43.3125 58.59375 39.234375 62.25 
Q 35.15625 65.921875 28.609375 65.921875 
Q 23.96875 65.921875 18.8125 64.3125 
Q 13.671875 62.703125 7.8125 59.421875 
L 7.8125 69.390625 
Q 13.765625 71.78125 18.9375 73 
Q 24.125 74.21875 28.421875 74.21875 
Q 39.75 74.21875 46.484375 68.546875 
Q 53.21875 62.890625 53.21875 53.421875 
Q 53.21875 48.921875 51.53125 44.890625 
Q 49.859375 40.875 45.40625 35.40625 
Q 44.1875 33.984375 37.640625 27.21875 
Q 31.109375 20.453125 19.1875 8.296875 
z
" id="DejaVuSans-50"/>
      </defs>
      <g transform="translate(494.301804 190.878125)scale(0.12 -0.12)">
       <use xlink:href="#DejaVuSans-50"/>
       <use x="63.623047" xlink:href="#DejaVuSans-46"/>
       <use x="95.410156" xlink:href="#DejaVuSans-48"/>
      </g>
     </g>
    </g>
    <g id="text_6">
     <!-- Time (s) -->
     <defs>
      <path d="M -0.296875 72.90625 
L 61.375 72.90625 
L 61.375 64.59375 
L 35.5 64.59375 
L 35.5 0 
L 25.59375 0 
L 25.59375 64.59375 
L -0.296875 64.59375 
z
" id="DejaVuSans-84"/>
      <path d="M 9.421875 54.6875 
L 18.40625 54.6875 
L 18.40625 0 
L 9.421875 0 
z
M 9.421875 75.984375 
L 18.40625 75.984375 
L 18.40625 64.59375 
L 9.421875 64.59375 
z
" id="DejaVuSans-105"/>
      <path d="M 52 44.1875 
Q 55.375 50.25 60.0625 53.125 
Q 64.75 56 71.09375 56 
Q 79.640625 56 84.28125 50.015625 
Q 88.921875 44.046875 88.921875 33.015625 
L 88.921875 0 
L 79.890625 0 
L 79.890625 32.71875 
Q 79.890625 40.578125 77.09375 44.375 
Q 74.3125 48.1875 68.609375 48.1875 
Q 61.625 48.1875 57.5625 43.546875 
Q 53.515625 38.921875 53.515625 30.90625 
L 53.515625 0 
L 44.484375 0 
L 44.484375 32.71875 
Q 44.484375 40.625 41.703125 44.40625 
Q 38.921875 48.1875 33.109375 48.1875 
Q 26.21875 48.1875 22.15625 43.53125 
Q 18.109375 38.875 18.109375 30.90625 
L 18.109375 0 
L 9.078125 0 
L 9.078125 54.6875 
L 18.109375 54.6875 
L 18.109375 46.1875 
Q 21.1875 51.21875 25.484375 53.609375 
Q 29.78125 56 35.6875 56 
Q 41.65625 56 45.828125 52.96875 
Q 50 49.953125 52 44.1875 
z
" id="DejaVuSans-109"/>
      <path d="M 56.203125 29.59375 
L 56.203125 25.203125 
L 14.890625 25.203125 
Q 15.484375 15.921875 20.484375 11.0625 
Q 25.484375 6.203125 34.421875 6.203125 
Q 39.59375 6.203125 44.453125 7.46875 
Q 49.3125 8.734375 54.109375 11.28125 
L 54.109375 2.78125 
Q 49.265625 0.734375 44.1875 -0.34375 
Q 39.109375 -1.421875 33.890625 -1.421875 
Q 20.796875 -1.421875 13.15625 6.1875 
Q 5.515625 13.8125 5.515625 26.8125 
Q 5.515625 40.234375 12.765625 48.109375 
Q 20.015625 56 32.328125 56 
Q 43.359375 56 49.78125 48.890625 
Q 56.203125 41.796875 56.203125 29.59375 
z
M 47.21875 32.234375 
Q 47.125 39.59375 43.09375 43.984375 
Q 39.0625 48.390625 32.421875 48.390625 
Q 24.90625 48.390625 20.390625 44.140625 
Q 15.875 39.890625 15.1875 32.171875 
z
" id="DejaVuSans-101"/>
      <path id="DejaVuSans-32"/>
      <path d="M 31 75.875 
Q 24.46875 64.65625 21.28125 53.65625 
Q 18.109375 42.671875 18.109375 31.390625 
Q 18.109375 20.125 21.3125 9.0625 
Q 24.515625 -2 31 -13.1875 
L 23.1875 -13.1875 
Q 15.875 -1.703125 12.234375 9.375 
Q 8.59375 20.453125 8.59375 31.390625 
Q 8.59375 42.28125 12.203125 53.3125 
Q 15.828125 64.359375 23.1875 75.875 
z
" id="DejaVuSans-40"/>
      <path d="M 44.28125 53.078125 
L 44.28125 44.578125 
Q 40.484375 46.53125 36.375 47.5 
Q 32.28125 48.484375 27.875 48.484375 
Q 21.1875 48.484375 17.84375 46.4375 
Q 14.5 44.390625 14.5 40.28125 
Q 14.5 37.15625 16.890625 35.375 
Q 19.28125 33.59375 26.515625 31.984375 
L 29.59375 31.296875 
Q 39.15625 29.25 43.1875 25.515625 
Q 47.21875 21.78125 47.21875 15.09375 
Q 47.21875 7.46875 41.1875 3.015625 
Q 35.15625 -1.421875 24.609375 -1.421875 
Q 20.21875 -1.421875 15.453125 -0.5625 
Q 10.6875 0.296875 5.421875 2 
L 5.421875 11.28125 
Q 10.40625 8.6875 15.234375 7.390625 
Q 20.0625 6.109375 24.8125 6.109375 
Q 31.15625 6.109375 34.5625 8.28125 
Q 37.984375 10.453125 37.984375 14.40625 
Q 37.984375 18.0625 35.515625 20.015625 
Q 33.0625 21.96875 24.703125 23.78125 
L 21.578125 24.515625 
Q 13.234375 26.265625 9.515625 29.90625 
Q 5.8125 33.546875 5.8125 39.890625 
Q 5.8125 47.609375 11.28125 51.796875 
Q 16.75 56 26.8125 56 
Q 31.78125 56 36.171875 55.265625 
Q 40.578125 54.546875 44.28125 53.078125 
z
" id="DejaVuSans-115"/>
      <path d="M 8.015625 75.875 
L 15.828125 75.875 
Q 23.140625 64.359375 26.78125 53.3125 
Q 30.421875 42.28125 30.421875 31.390625 
Q 30.421875 20.453125 26.78125 9.375 
Q 23.140625 -1.703125 15.828125 -13.1875 
L 8.015625 -13.1875 
Q 14.5 -2 17.703125 9.0625 
Q 20.90625 20.125 20.90625 31.390625 
Q 20.90625 42.671875 17.703125 53.65625 
Q 14.5 64.65625 8.015625 75.875 
z
" id="DejaVuSans-41"/>
     </defs>
     <g transform="translate(285.55975 208.3155)scale(0.144 -0.144)">
      <use xlink:href="#DejaVuSans-84"/>
      <use x="61.037109" xlink:href="#DejaVuSans-105"/>
      <use x="88.820312" xlink:href="#DejaVuSans-109"/>
      <use x="186.232422" xlink:href="#DejaVuSans-101"/>
      <use x="247.755859" xlink:href="#DejaVuSans-32"/>
      <use x="279.542969" xlink:href="#DejaVuSans-40"/>
      <use x="318.556641" xlink:href="#DejaVuSans-115"/>
      <use x="370.65625" xlink:href="#DejaVuSans-41"/>
     </g>
    </g>
   </g>
   <g id="matplotlib.axis_2">
    <g id="ytick_1">
     <g id="line2d_6">
      <defs>
       <path d="M 0 0 
L -3.5 0 
" id="ma11c3398d3" style="stroke:#000000;stroke-width:0.8;"/>
      </defs>
      <g>
       <use style="stroke:#000000;stroke-width:0.8;" x="64.91" xlink:href="#ma11c3398d3" y="174.76"/>
      </g>
     </g>
     <g id="text_7">
      <!-- 0.00 -->
      <g transform="translate(31.19125 179.319062)scale(0.12 -0.12)">
       <use xlink:href="#DejaVuSans-48"/>
       <use x="63.623047" xlink:href="#DejaVuSans-46"/>
       <use x="95.410156" xlink:href="#DejaVuSans-48"/>
       <use x="159.033203" xlink:href="#DejaVuSans-48"/>
      </g>
     </g>
    </g>
    <g id="ytick_2">
     <g id="line2d_7">
      <g>
       <use style="stroke:#000000;stroke-width:0.8;" x="64.91" xlink:href="#ma11c3398d3" y="142.30958"/>
      </g>
     </g>
     <g id="text_8">
      <!-- 0.02 -->
      <g transform="translate(31.19125 146.868643)scale(0.12 -0.12)">
       <use xlink:href="#DejaVuSans-48"/>
       <use x="63.623047" xlink:href="#DejaVuSans-46"/>
       <use x="95.410156" xlink:href="#DejaVuSans-48"/>
       <use x="159.033203" xlink:href="#DejaVuSans-50"/>
      </g>
     </g>
    </g>
    <g id="ytick_3">
     <g id="line2d_8">
      <g>
       <use style="stroke:#000000;stroke-width:0.8;" x="64.91" xlink:href="#ma11c3398d3" y="109.859161"/>
      </g>
     </g>
     <g id="text_9">
      <!-- 0.04 -->
      <defs>
       <path d="M 37.796875 64.3125 
L 12.890625 25.390625 
L 37.796875 25.390625 
z
M 35.203125 72.90625 
L 47.609375 72.90625 
L 47.609375 25.390625 
L 58.015625 25.390625 
L 58.015625 17.1875 
L 47.609375 17.1875 
L 47.609375 0 
L 37.796875 0 
L 37.796875 17.1875 
L 4.890625 17.1875 
L 4.890625 26.703125 
z
" id="DejaVuSans-52"/>
      </defs>
      <g transform="translate(31.19125 114.418223)scale(0.12 -0.12)">
       <use xlink:href="#DejaVuSans-48"/>
       <use x="63.623047" xlink:href="#DejaVuSans-46"/>
       <use x="95.410156" xlink:href="#DejaVuSans-48"/>
       <use x="159.033203" xlink:href="#DejaVuSans-52"/>
      </g>
     </g>
    </g>
    <g id="ytick_4">
     <g id="line2d_9">
      <g>
       <use style="stroke:#000000;stroke-width:0.8;" x="64.91" xlink:href="#ma11c3398d3" y="77.408741"/>
      </g>
     </g>
     <g id="text_10">
      <!-- 0.06 -->
      <defs>
       <path d="M 33.015625 40.375 
Q 26.375 40.375 22.484375 35.828125 
Q 18.609375 31.296875 18.609375 23.390625 
Q 18.609375 15.53125 22.484375 10.953125 
Q 26.375 6.390625 33.015625 6.390625 
Q 39.65625 6.390625 43.53125 10.953125 
Q 47.40625 15.53125 47.40625 23.390625 
Q 47.40625 31.296875 43.53125 35.828125 
Q 39.65625 40.375 33.015625 40.375 
z
M 52.59375 71.296875 
L 52.59375 62.3125 
Q 48.875 64.0625 45.09375 64.984375 
Q 41.3125 65.921875 37.59375 65.921875 
Q 27.828125 65.921875 22.671875 59.328125 
Q 17.53125 52.734375 16.796875 39.40625 
Q 19.671875 43.65625 24.015625 45.921875 
Q 28.375 48.1875 33.59375 48.1875 
Q 44.578125 48.1875 50.953125 41.515625 
Q 57.328125 34.859375 57.328125 23.390625 
Q 57.328125 12.15625 50.6875 5.359375 
Q 44.046875 -1.421875 33.015625 -1.421875 
Q 20.359375 -1.421875 13.671875 8.265625 
Q 6.984375 17.96875 6.984375 36.375 
Q 6.984375 53.65625 15.1875 63.9375 
Q 23.390625 74.21875 37.203125 74.21875 
Q 40.921875 74.21875 44.703125 73.484375 
Q 48.484375 72.75 52.59375 71.296875 
z
" id="DejaVuSans-54"/>
      </defs>
      <g transform="translate(31.19125 81.967804)scale(0.12 -0.12)">
       <use xlink:href="#DejaVuSans-48"/>
       <use x="63.623047" xlink:href="#DejaVuSans-46"/>
       <use x="95.410156" xlink:href="#DejaVuSans-48"/>
       <use x="159.033203" xlink:href="#DejaVuSans-54"/>
      </g>
     </g>
    </g>
    <g id="ytick_5">
     <g id="line2d_10">
      <g>
       <use style="stroke:#000000;stroke-width:0.8;" x="64.91" xlink:href="#ma11c3398d3" y="44.958321"/>
      </g>
     </g>
     <g id="text_11">
      <!-- 0.08 -->
      <defs>
       <path d="M 31.78125 34.625 
Q 24.75 34.625 20.71875 30.859375 
Q 16.703125 27.09375 16.703125 20.515625 
Q 16.703125 13.921875 20.71875 10.15625 
Q 24.75 6.390625 31.78125 6.390625 
Q 38.8125 6.390625 42.859375 10.171875 
Q 46.921875 13.96875 46.921875 20.515625 
Q 46.921875 27.09375 42.890625 30.859375 
Q 38.875 34.625 31.78125 34.625 
z
M 21.921875 38.8125 
Q 15.578125 40.375 12.03125 44.71875 
Q 8.5 49.078125 8.5 55.328125 
Q 8.5 64.0625 14.71875 69.140625 
Q 20.953125 74.21875 31.78125 74.21875 
Q 42.671875 74.21875 48.875 69.140625 
Q 55.078125 64.0625 55.078125 55.328125 
Q 55.078125 49.078125 51.53125 44.71875 
Q 48 40.375 41.703125 38.8125 
Q 48.828125 37.15625 52.796875 32.3125 
Q 56.78125 27.484375 56.78125 20.515625 
Q 56.78125 9.90625 50.3125 4.234375 
Q 43.84375 -1.421875 31.78125 -1.421875 
Q 19.734375 -1.421875 13.25 4.234375 
Q 6.78125 9.90625 6.78125 20.515625 
Q 6.78125 27.484375 10.78125 32.3125 
Q 14.796875 37.15625 21.921875 38.8125 
z
M 18.3125 54.390625 
Q 18.3125 48.734375 21.84375 45.5625 
Q 25.390625 42.390625 31.78125 42.390625 
Q 38.140625 42.390625 41.71875 45.5625 
Q 45.3125 48.734375 45.3125 54.390625 
Q 45.3125 60.0625 41.71875 63.234375 
Q 38.140625 66.40625 31.78125 66.40625 
Q 25.390625 66.40625 21.84375 63.234375 
Q 18.3125 60.0625 18.3125 54.390625 
z
" id="DejaVuSans-56"/>
      </defs>
      <g transform="translate(31.19125 49.517384)scale(0.12 -0.12)">
       <use xlink:href="#DejaVuSans-48"/>
       <use x="63.623047" xlink:href="#DejaVuSans-46"/>
       <use x="95.410156" xlink:href="#DejaVuSans-48"/>
       <use x="159.033203" xlink:href="#DejaVuSans-56"/>
      </g>
     </g>
    </g>
    <g id="text_12">
     <!-- COMb $p$ -->
     <defs>
      <path d="M 64.40625 67.28125 
L 64.40625 56.890625 
Q 59.421875 61.53125 53.78125 63.8125 
Q 48.140625 66.109375 41.796875 66.109375 
Q 29.296875 66.109375 22.65625 58.46875 
Q 16.015625 50.828125 16.015625 36.375 
Q 16.015625 21.96875 22.65625 14.328125 
Q 29.296875 6.6875 41.796875 6.6875 
Q 48.140625 6.6875 53.78125 8.984375 
Q 59.421875 11.28125 64.40625 15.921875 
L 64.40625 5.609375 
Q 59.234375 2.09375 53.4375 0.328125 
Q 47.65625 -1.421875 41.21875 -1.421875 
Q 24.65625 -1.421875 15.125 8.703125 
Q 5.609375 18.84375 5.609375 36.375 
Q 5.609375 53.953125 15.125 64.078125 
Q 24.65625 74.21875 41.21875 74.21875 
Q 47.75 74.21875 53.53125 72.484375 
Q 59.328125 70.75 64.40625 67.28125 
z
" id="DejaVuSans-67"/>
      <path d="M 39.40625 66.21875 
Q 28.65625 66.21875 22.328125 58.203125 
Q 16.015625 50.203125 16.015625 36.375 
Q 16.015625 22.609375 22.328125 14.59375 
Q 28.65625 6.59375 39.40625 6.59375 
Q 50.140625 6.59375 56.421875 14.59375 
Q 62.703125 22.609375 62.703125 36.375 
Q 62.703125 50.203125 56.421875 58.203125 
Q 50.140625 66.21875 39.40625 66.21875 
z
M 39.40625 74.21875 
Q 54.734375 74.21875 63.90625 63.9375 
Q 73.09375 53.65625 73.09375 36.375 
Q 73.09375 19.140625 63.90625 8.859375 
Q 54.734375 -1.421875 39.40625 -1.421875 
Q 24.03125 -1.421875 14.8125 8.828125 
Q 5.609375 19.09375 5.609375 36.375 
Q 5.609375 53.65625 14.8125 63.9375 
Q 24.03125 74.21875 39.40625 74.21875 
z
" id="DejaVuSans-79"/>
      <path d="M 9.8125 72.90625 
L 24.515625 72.90625 
L 43.109375 23.296875 
L 61.8125 72.90625 
L 76.515625 72.90625 
L 76.515625 0 
L 66.890625 0 
L 66.890625 64.015625 
L 48.09375 14.015625 
L 38.1875 14.015625 
L 19.390625 64.015625 
L 19.390625 0 
L 9.8125 0 
z
" id="DejaVuSans-77"/>
      <path d="M 48.6875 27.296875 
Q 48.6875 37.203125 44.609375 42.84375 
Q 40.53125 48.484375 33.40625 48.484375 
Q 26.265625 48.484375 22.1875 42.84375 
Q 18.109375 37.203125 18.109375 27.296875 
Q 18.109375 17.390625 22.1875 11.75 
Q 26.265625 6.109375 33.40625 6.109375 
Q 40.53125 6.109375 44.609375 11.75 
Q 48.6875 17.390625 48.6875 27.296875 
z
M 18.109375 46.390625 
Q 20.953125 51.265625 25.265625 53.625 
Q 29.59375 56 35.59375 56 
Q 45.5625 56 51.78125 48.09375 
Q 58.015625 40.1875 58.015625 27.296875 
Q 58.015625 14.40625 51.78125 6.484375 
Q 45.5625 -1.421875 35.59375 -1.421875 
Q 29.59375 -1.421875 25.265625 0.953125 
Q 20.953125 3.328125 18.109375 8.203125 
L 18.109375 0 
L 9.078125 0 
L 9.078125 75.984375 
L 18.109375 75.984375 
z
" id="DejaVuSans-98"/>
      <path d="M 49.609375 33.6875 
Q 49.609375 40.875 46.484375 44.671875 
Q 43.359375 48.484375 37.5 48.484375 
Q 33.5 48.484375 29.859375 46.4375 
Q 26.21875 44.390625 23.390625 40.484375 
Q 20.609375 36.625 18.9375 31.15625 
Q 17.28125 25.6875 17.28125 20.3125 
Q 17.28125 13.484375 20.40625 9.796875 
Q 23.53125 6.109375 29.296875 6.109375 
Q 33.546875 6.109375 37.1875 8.109375 
Q 40.828125 10.109375 43.40625 13.921875 
Q 46.1875 17.921875 47.890625 23.34375 
Q 49.609375 28.765625 49.609375 33.6875 
z
M 21.78125 46.390625 
Q 25.390625 51.125 30.296875 53.5625 
Q 35.203125 56 41.21875 56 
Q 49.609375 56 54.25 50.5 
Q 58.890625 45.015625 58.890625 35.109375 
Q 58.890625 27 56 19.65625 
Q 53.125 12.3125 47.703125 6.5 
Q 44.09375 2.640625 39.546875 0.609375 
Q 35.015625 -1.421875 29.984375 -1.421875 
Q 24.171875 -1.421875 20.21875 1 
Q 16.265625 3.421875 14.3125 8.203125 
L 8.6875 -20.796875 
L -0.296875 -20.796875 
L 14.40625 54.6875 
L 23.390625 54.6875 
z
" id="DejaVuSans-Oblique-112"/>
     </defs>
     <g transform="translate(24.16725 129.188)rotate(-90)scale(0.144 -0.144)">
      <use transform="translate(0 0.015625)" xlink:href="#DejaVuSans-67"/>
      <use transform="translate(69.824219 0.015625)" xlink:href="#DejaVuSans-79"/>
      <use transform="translate(148.535156 0.015625)" xlink:href="#DejaVuSans-77"/>
      <use transform="translate(234.814453 0.015625)" xlink:href="#DejaVuSans-98"/>
      <use transform="translate(298.291016 0.015625)" xlink:href="#DejaVuSans-32"/>
      <use transform="translate(330.078125 0.015625)" xlink:href="#DejaVuSans-Oblique-112"/>
     </g>
    </g>
   </g>
   <g id="line2d_11">
    <path clip-path="url(#p0ad1a833ae)" d="M 64.91 109.378052 
L 66.797887 110.232116 
L 68.685774 114.909352 
L 70.57366 114.357698 
L 72.461547 125.989642 
L 74.349434 134.869871 
L 76.237321 131.412814 
L 80.013094 130.468756 
L 81.900981 104.44089 
L 83.788868 105.105871 
L 85.676755 107.343019 
L 87.564642 110.640178 
L 89.452528 110.410862 
L 91.340415 109.98797 
L 93.228302 115.026763 
L 95.116189 112.895564 
L 97.004075 116.276083 
L 98.891962 116.642656 
L 100.779849 114.728301 
L 102.667736 110.411519 
L 104.555623 114.477355 
L 108.331396 116.947783 
L 110.219283 118.736638 
L 112.10717 119.495363 
L 113.995057 120.428106 
L 115.882943 119.595832 
L 117.77083 124.197165 
L 119.658717 116.829492 
L 121.546604 119.535376 
L 123.434491 119.589699 
L 125.322377 117.605075 
L 127.210264 115.387819 
L 129.098151 115.670875 
L 130.986038 109.513481 
L 132.873925 104.75262 
L 134.761811 104.043031 
L 136.649698 99.208377 
L 138.537585 95.491207 
L 140.425472 92.898068 
L 142.313358 89.881114 
L 144.201245 88.705738 
L 147.977019 92.024198 
L 149.864906 91.290542 
L 151.752792 94.658247 
L 153.640679 98.580689 
L 155.528566 97.179845 
L 157.416453 123.343848 
L 159.30434 132.451585 
L 161.192226 132.899954 
L 163.080113 131.867919 
L 164.968 130.13762 
L 166.855887 132.141536 
L 168.743774 132.236944 
L 170.63166 133.731539 
L 172.519547 136.563402 
L 174.407434 131.522308 
L 176.295321 130.776909 
L 178.183208 131.418345 
L 180.071094 129.448152 
L 181.958981 131.501563 
L 183.846868 132.411214 
L 185.734755 134.336006 
L 187.622642 129.986515 
L 189.510528 132.482843 
L 191.398415 133.386267 
L 193.286302 131.144821 
L 195.174189 131.278064 
L 197.062075 132.011458 
L 198.949962 129.789448 
L 200.837849 125.746965 
L 202.725736 123.880915 
L 204.613623 123.863362 
L 206.501509 127.217184 
L 208.389396 128.197042 
L 210.277283 128.843429 
L 212.16517 126.389524 
L 214.053057 126.889437 
L 215.940943 122.770224 
L 217.82883 122.353056 
L 219.716717 119.76246 
L 221.604604 118.130753 
L 223.492491 119.175065 
L 225.380377 119.248338 
L 227.268264 120.290324 
L 229.156151 117.425634 
L 231.044038 116.769625 
L 232.931925 122.658158 
L 234.819811 125.480776 
L 236.707698 125.627788 
L 238.595585 123.574365 
L 240.483472 124.884055 
L 242.371358 126.596987 
L 244.259245 129.791606 
L 246.147132 127.693628 
L 248.035019 132.765254 
L 249.922906 139.135235 
L 251.810792 140.765606 
L 253.698679 136.066732 
L 255.586566 136.451952 
L 257.474453 135.874107 
L 259.36234 133.551475 
L 261.250226 132.574538 
L 263.138113 131.402325 
L 265.026 131.677959 
L 266.913887 131.796994 
L 268.801774 132.094381 
L 270.68966 137.970827 
L 272.577547 137.593922 
L 274.465434 138.759577 
L 276.353321 138.307051 
L 278.241208 138.305119 
L 280.129094 138.929529 
L 282.016981 130.869959 
L 283.904868 129.895636 
L 285.792755 131.834103 
L 287.680642 134.769796 
L 289.568528 132.896063 
L 291.456415 134.32098 
L 293.344302 132.222324 
L 295.232189 132.911219 
L 297.120075 131.653269 
L 299.007962 133.746115 
L 300.895849 134.073214 
L 302.783736 132.219358 
L 304.671623 133.541924 
L 306.559509 134.056132 
L 308.447396 132.424522 
L 310.335283 129.092144 
L 312.22317 128.889582 
L 314.111057 130.525211 
L 315.998943 129.480816 
L 317.88683 125.971271 
L 319.774717 123.348831 
L 321.662604 126.671797 
L 323.550491 125.739787 
L 325.438377 127.35815 
L 327.326264 129.950961 
L 329.214151 133.946837 
L 331.102038 133.28536 
L 332.989925 129.757403 
L 334.877811 126.936868 
L 336.765698 111.271501 
L 338.653585 114.098561 
L 340.541472 115.075671 
L 342.429358 111.079305 
L 344.317245 114.104899 
L 346.205132 111.198666 
L 348.093019 109.58393 
L 349.980906 109.228428 
L 353.756679 109.541708 
L 355.644566 109.620871 
L 357.532453 121.18081 
L 359.42034 124.705204 
L 361.308226 121.740952 
L 363.196113 119.559872 
L 365.084 122.1887 
L 366.971887 125.528399 
L 368.859774 124.372638 
L 370.74766 124.617063 
L 372.635547 122.439378 
L 374.523434 119.598893 
L 376.411321 118.101565 
L 378.299208 123.480017 
L 380.187094 119.756011 
L 382.074981 119.123213 
L 383.962868 123.132787 
L 385.850755 130.307309 
L 387.738642 131.95748 
L 389.626528 132.448188 
L 393.402302 135.086926 
L 395.290189 136.761559 
L 397.178075 135.522916 
L 399.065962 137.59391 
L 400.953849 135.828315 
L 402.841736 132.139584 
L 404.729623 133.592745 
L 406.617509 132.391194 
L 408.505396 135.395733 
L 412.28117 143.552363 
L 414.169057 144.826865 
L 416.056943 146.804288 
L 417.94483 147.039362 
L 419.832717 144.464832 
L 421.720604 140.263426 
L 423.608491 141.981115 
L 425.496377 144.582337 
L 427.384264 146.593178 
L 429.272151 150.471735 
L 431.160038 153.870476 
L 433.047925 153.072361 
L 434.935811 150.911288 
L 436.823698 150.144057 
L 438.711585 153.582353 
L 440.599472 150.463619 
L 442.487358 149.008354 
L 444.375245 146.791104 
L 446.263132 145.733065 
L 448.151019 147.888522 
L 450.038906 147.690339 
L 451.926792 143.789815 
L 453.814679 144.122671 
L 455.702566 146.271867 
L 457.590453 149.327683 
L 459.47834 150.264502 
L 461.366226 149.736836 
L 463.254113 147.099818 
L 465.142 146.181192 
L 467.029887 143.133294 
L 468.917774 141.766655 
L 470.80566 135.835209 
L 472.693547 139.646387 
L 474.581434 135.542227 
L 476.469321 141.008713 
L 478.357208 143.743405 
L 480.245094 142.961445 
L 482.132981 144.19524 
L 484.020868 142.091022 
L 485.908755 142.615549 
L 487.796642 142.711758 
L 489.684528 141.226791 
L 491.572415 141.307189 
L 493.460302 137.735434 
L 495.348189 137.604274 
L 497.236075 141.240603 
L 499.123962 139.730931 
L 501.011849 134.493749 
L 502.899736 133.135254 
L 504.787623 136.646866 
L 506.675509 134.308207 
L 508.563396 130.687379 
L 510.451283 121.469526 
L 512.33917 121.777282 
L 514.227057 116.616022 
L 516.114943 119.014911 
L 518.00283 120.49802 
L 519.890717 120.749916 
L 521.778604 117.674043 
L 523.666491 114.026555 
L 525.554377 113.654559 
L 527.442264 105.980084 
L 529.330151 107.594743 
L 531.218038 110.055855 
L 533.105925 109.50518 
L 534.993811 109.142091 
L 536.881698 103.797298 
L 538.769585 96.045013 
L 540.657472 92.933561 
L 542.545358 67.836891 
L 544.433245 68.495008 
L 546.321132 70.950325 
L 548.209019 67.418975 
L 550.096906 67.051889 
L 551.984792 59.386764 
L 553.872679 58.312769 
L 555.760566 59.047565 
L 557.648453 74.955573 
L 559.53634 61.808825 
L 561.424226 65.858356 
L 563.312113 73.371723 
L 565.2 73.053854 
L 565.2 73.053854 
" style="fill:none;stroke:#0000ff;stroke-linecap:square;stroke-width:1.5;"/>
   </g>
   <g id="patch_3">
    <path d="M 64.91 174.76 
L 64.91 26.88 
" style="fill:none;stroke:#000000;stroke-linecap:square;stroke-linejoin:miter;stroke-width:0.8;"/>
   </g>
   <g id="patch_4">
    <path d="M 565.2 174.76 
L 565.2 26.88 
" style="fill:none;stroke:#000000;stroke-linecap:square;stroke-linejoin:miter;stroke-width:0.8;"/>
   </g>
   <g id="patch_5">
    <path d="M 64.91 174.76 
L 565.2 174.76 
" style="fill:none;stroke:#000000;stroke-linecap:square;stroke-linejoin:miter;stroke-width:0.8;"/>
   </g>
   <g id="patch_6">
    <path d="M 64.91 26.88 
L 565.2 26.88 
" style="fill:none;stroke:#000000;stroke-linecap:square;stroke-linejoin:miter;stroke-width:0.8;"/>
   </g>
   <g id="text_13">
    <!-- Striatum, Num Trials=10 All unstimulated trials, Num cells = 351 -->
    <defs>
     <path d="M 53.515625 70.515625 
L 53.515625 60.890625 
Q 47.90625 63.578125 42.921875 64.890625 
Q 37.9375 66.21875 33.296875 66.21875 
Q 25.25 66.21875 20.875 63.09375 
Q 16.5 59.96875 16.5 54.203125 
Q 16.5 49.359375 19.40625 46.890625 
Q 22.3125 44.4375 30.421875 42.921875 
L 36.375 41.703125 
Q 47.40625 39.59375 52.65625 34.296875 
Q 57.90625 29 57.90625 20.125 
Q 57.90625 9.515625 50.796875 4.046875 
Q 43.703125 -1.421875 29.984375 -1.421875 
Q 24.8125 -1.421875 18.96875 -0.25 
Q 13.140625 0.921875 6.890625 3.21875 
L 6.890625 13.375 
Q 12.890625 10.015625 18.65625 8.296875 
Q 24.421875 6.59375 29.984375 6.59375 
Q 38.421875 6.59375 43.015625 9.90625 
Q 47.609375 13.234375 47.609375 19.390625 
Q 47.609375 24.75 44.3125 27.78125 
Q 41.015625 30.8125 33.5 32.328125 
L 27.484375 33.5 
Q 16.453125 35.6875 11.515625 40.375 
Q 6.59375 45.0625 6.59375 53.421875 
Q 6.59375 63.09375 13.40625 68.65625 
Q 20.21875 74.21875 32.171875 74.21875 
Q 37.3125 74.21875 42.625 73.28125 
Q 47.953125 72.359375 53.515625 70.515625 
z
" id="DejaVuSans-83"/>
     <path d="M 18.3125 70.21875 
L 18.3125 54.6875 
L 36.8125 54.6875 
L 36.8125 47.703125 
L 18.3125 47.703125 
L 18.3125 18.015625 
Q 18.3125 11.328125 20.140625 9.421875 
Q 21.96875 7.515625 27.59375 7.515625 
L 36.8125 7.515625 
L 36.8125 0 
L 27.59375 0 
Q 17.1875 0 13.234375 3.875 
Q 9.28125 7.765625 9.28125 18.015625 
L 9.28125 47.703125 
L 2.6875 47.703125 
L 2.6875 54.6875 
L 9.28125 54.6875 
L 9.28125 70.21875 
z
" id="DejaVuSans-116"/>
     <path d="M 41.109375 46.296875 
Q 39.59375 47.171875 37.8125 47.578125 
Q 36.03125 48 33.890625 48 
Q 26.265625 48 22.1875 43.046875 
Q 18.109375 38.09375 18.109375 28.8125 
L 18.109375 0 
L 9.078125 0 
L 9.078125 54.6875 
L 18.109375 54.6875 
L 18.109375 46.1875 
Q 20.953125 51.171875 25.484375 53.578125 
Q 30.03125 56 36.53125 56 
Q 37.453125 56 38.578125 55.875 
Q 39.703125 55.765625 41.0625 55.515625 
z
" id="DejaVuSans-114"/>
     <path d="M 34.28125 27.484375 
Q 23.390625 27.484375 19.1875 25 
Q 14.984375 22.515625 14.984375 16.5 
Q 14.984375 11.71875 18.140625 8.90625 
Q 21.296875 6.109375 26.703125 6.109375 
Q 34.1875 6.109375 38.703125 11.40625 
Q 43.21875 16.703125 43.21875 25.484375 
L 43.21875 27.484375 
z
M 52.203125 31.203125 
L 52.203125 0 
L 43.21875 0 
L 43.21875 8.296875 
Q 40.140625 3.328125 35.546875 0.953125 
Q 30.953125 -1.421875 24.3125 -1.421875 
Q 15.921875 -1.421875 10.953125 3.296875 
Q 6 8.015625 6 15.921875 
Q 6 25.140625 12.171875 29.828125 
Q 18.359375 34.515625 30.609375 34.515625 
L 43.21875 34.515625 
L 43.21875 35.40625 
Q 43.21875 41.609375 39.140625 45 
Q 35.0625 48.390625 27.6875 48.390625 
Q 23 48.390625 18.546875 47.265625 
Q 14.109375 46.140625 10.015625 43.890625 
L 10.015625 52.203125 
Q 14.9375 54.109375 19.578125 55.046875 
Q 24.21875 56 28.609375 56 
Q 40.484375 56 46.34375 49.84375 
Q 52.203125 43.703125 52.203125 31.203125 
z
" id="DejaVuSans-97"/>
     <path d="M 8.5 21.578125 
L 8.5 54.6875 
L 17.484375 54.6875 
L 17.484375 21.921875 
Q 17.484375 14.15625 20.5 10.265625 
Q 23.53125 6.390625 29.59375 6.390625 
Q 36.859375 6.390625 41.078125 11.03125 
Q 45.3125 15.671875 45.3125 23.6875 
L 45.3125 54.6875 
L 54.296875 54.6875 
L 54.296875 0 
L 45.3125 0 
L 45.3125 8.40625 
Q 42.046875 3.421875 37.71875 1 
Q 33.40625 -1.421875 27.6875 -1.421875 
Q 18.265625 -1.421875 13.375 4.4375 
Q 8.5 10.296875 8.5 21.578125 
z
M 31.109375 56 
z
" id="DejaVuSans-117"/>
     <path d="M 11.71875 12.40625 
L 22.015625 12.40625 
L 22.015625 4 
L 14.015625 -11.625 
L 7.71875 -11.625 
L 11.71875 4 
z
" id="DejaVuSans-44"/>
     <path d="M 9.8125 72.90625 
L 23.09375 72.90625 
L 55.421875 11.921875 
L 55.421875 72.90625 
L 64.984375 72.90625 
L 64.984375 0 
L 51.703125 0 
L 19.390625 60.984375 
L 19.390625 0 
L 9.8125 0 
z
" id="DejaVuSans-78"/>
     <path d="M 9.421875 75.984375 
L 18.40625 75.984375 
L 18.40625 0 
L 9.421875 0 
z
" id="DejaVuSans-108"/>
     <path d="M 10.59375 45.40625 
L 73.1875 45.40625 
L 73.1875 37.203125 
L 10.59375 37.203125 
z
M 10.59375 25.484375 
L 73.1875 25.484375 
L 73.1875 17.1875 
L 10.59375 17.1875 
z
" id="DejaVuSans-61"/>
     <path d="M 34.1875 63.1875 
L 20.796875 26.90625 
L 47.609375 26.90625 
z
M 28.609375 72.90625 
L 39.796875 72.90625 
L 67.578125 0 
L 57.328125 0 
L 50.6875 18.703125 
L 17.828125 18.703125 
L 11.1875 0 
L 0.78125 0 
z
" id="DejaVuSans-65"/>
     <path d="M 54.890625 33.015625 
L 54.890625 0 
L 45.90625 0 
L 45.90625 32.71875 
Q 45.90625 40.484375 42.875 44.328125 
Q 39.84375 48.1875 33.796875 48.1875 
Q 26.515625 48.1875 22.3125 43.546875 
Q 18.109375 38.921875 18.109375 30.90625 
L 18.109375 0 
L 9.078125 0 
L 9.078125 54.6875 
L 18.109375 54.6875 
L 18.109375 46.1875 
Q 21.34375 51.125 25.703125 53.5625 
Q 30.078125 56 35.796875 56 
Q 45.21875 56 50.046875 50.171875 
Q 54.890625 44.34375 54.890625 33.015625 
z
" id="DejaVuSans-110"/>
     <path d="M 45.40625 46.390625 
L 45.40625 75.984375 
L 54.390625 75.984375 
L 54.390625 0 
L 45.40625 0 
L 45.40625 8.203125 
Q 42.578125 3.328125 38.25 0.953125 
Q 33.9375 -1.421875 27.875 -1.421875 
Q 17.96875 -1.421875 11.734375 6.484375 
Q 5.515625 14.40625 5.515625 27.296875 
Q 5.515625 40.1875 11.734375 48.09375 
Q 17.96875 56 27.875 56 
Q 33.9375 56 38.25 53.625 
Q 42.578125 51.265625 45.40625 46.390625 
z
M 14.796875 27.296875 
Q 14.796875 17.390625 18.875 11.75 
Q 22.953125 6.109375 30.078125 6.109375 
Q 37.203125 6.109375 41.296875 11.75 
Q 45.40625 17.390625 45.40625 27.296875 
Q 45.40625 37.203125 41.296875 42.84375 
Q 37.203125 48.484375 30.078125 48.484375 
Q 22.953125 48.484375 18.875 42.84375 
Q 14.796875 37.203125 14.796875 27.296875 
z
" id="DejaVuSans-100"/>
     <path d="M 48.78125 52.59375 
L 48.78125 44.1875 
Q 44.96875 46.296875 41.140625 47.34375 
Q 37.3125 48.390625 33.40625 48.390625 
Q 24.65625 48.390625 19.8125 42.84375 
Q 14.984375 37.3125 14.984375 27.296875 
Q 14.984375 17.28125 19.8125 11.734375 
Q 24.65625 6.203125 33.40625 6.203125 
Q 37.3125 6.203125 41.140625 7.25 
Q 44.96875 8.296875 48.78125 10.40625 
L 48.78125 2.09375 
Q 45.015625 0.34375 40.984375 -0.53125 
Q 36.96875 -1.421875 32.421875 -1.421875 
Q 20.0625 -1.421875 12.78125 6.34375 
Q 5.515625 14.109375 5.515625 27.296875 
Q 5.515625 40.671875 12.859375 48.328125 
Q 20.21875 56 33.015625 56 
Q 37.15625 56 41.109375 55.140625 
Q 45.0625 54.296875 48.78125 52.59375 
z
" id="DejaVuSans-99"/>
     <path d="M 40.578125 39.3125 
Q 47.65625 37.796875 51.625 33 
Q 55.609375 28.21875 55.609375 21.1875 
Q 55.609375 10.40625 48.1875 4.484375 
Q 40.765625 -1.421875 27.09375 -1.421875 
Q 22.515625 -1.421875 17.65625 -0.515625 
Q 12.796875 0.390625 7.625 2.203125 
L 7.625 11.71875 
Q 11.71875 9.328125 16.59375 8.109375 
Q 21.484375 6.890625 26.8125 6.890625 
Q 36.078125 6.890625 40.9375 10.546875 
Q 45.796875 14.203125 45.796875 21.1875 
Q 45.796875 27.640625 41.28125 31.265625 
Q 36.765625 34.90625 28.71875 34.90625 
L 20.21875 34.90625 
L 20.21875 43.015625 
L 29.109375 43.015625 
Q 36.375 43.015625 40.234375 45.921875 
Q 44.09375 48.828125 44.09375 54.296875 
Q 44.09375 59.90625 40.109375 62.90625 
Q 36.140625 65.921875 28.71875 65.921875 
Q 24.65625 65.921875 20.015625 65.03125 
Q 15.375 64.15625 9.8125 62.3125 
L 9.8125 71.09375 
Q 15.4375 72.65625 20.34375 73.4375 
Q 25.25 74.21875 29.59375 74.21875 
Q 40.828125 74.21875 47.359375 69.109375 
Q 53.90625 64.015625 53.90625 55.328125 
Q 53.90625 49.265625 50.4375 45.09375 
Q 46.96875 40.921875 40.578125 39.3125 
z
" id="DejaVuSans-51"/>
    </defs>
    <g transform="translate(119.003125 20.88)scale(0.12 -0.12)">
     <use xlink:href="#DejaVuSans-83"/>
     <use x="63.476562" xlink:href="#DejaVuSans-116"/>
     <use x="102.685547" xlink:href="#DejaVuSans-114"/>
     <use x="143.798828" xlink:href="#DejaVuSans-105"/>
     <use x="171.582031" xlink:href="#DejaVuSans-97"/>
     <use x="232.861328" xlink:href="#DejaVuSans-116"/>
     <use x="272.070312" xlink:href="#DejaVuSans-117"/>
     <use x="335.449219" xlink:href="#DejaVuSans-109"/>
     <use x="432.861328" xlink:href="#DejaVuSans-44"/>
     <use x="464.648438" xlink:href="#DejaVuSans-32"/>
     <use x="496.435547" xlink:href="#DejaVuSans-78"/>
     <use x="571.240234" xlink:href="#DejaVuSans-117"/>
     <use x="634.619141" xlink:href="#DejaVuSans-109"/>
     <use x="732.03125" xlink:href="#DejaVuSans-32"/>
     <use x="763.818359" xlink:href="#DejaVuSans-84"/>
     <use x="824.683594" xlink:href="#DejaVuSans-114"/>
     <use x="865.796875" xlink:href="#DejaVuSans-105"/>
     <use x="893.580078" xlink:href="#DejaVuSans-97"/>
     <use x="954.859375" xlink:href="#DejaVuSans-108"/>
     <use x="982.642578" xlink:href="#DejaVuSans-115"/>
     <use x="1034.742188" xlink:href="#DejaVuSans-61"/>
     <use x="1118.53125" xlink:href="#DejaVuSans-49"/>
     <use x="1182.154297" xlink:href="#DejaVuSans-48"/>
     <use x="1245.777344" xlink:href="#DejaVuSans-32"/>
     <use x="1277.564453" xlink:href="#DejaVuSans-65"/>
     <use x="1345.972656" xlink:href="#DejaVuSans-108"/>
     <use x="1373.755859" xlink:href="#DejaVuSans-108"/>
     <use x="1401.539062" xlink:href="#DejaVuSans-32"/>
     <use x="1433.326172" xlink:href="#DejaVuSans-117"/>
     <use x="1496.705078" xlink:href="#DejaVuSans-110"/>
     <use x="1560.083984" xlink:href="#DejaVuSans-115"/>
     <use x="1612.183594" xlink:href="#DejaVuSans-116"/>
     <use x="1651.392578" xlink:href="#DejaVuSans-105"/>
     <use x="1679.175781" xlink:href="#DejaVuSans-109"/>
     <use x="1776.587891" xlink:href="#DejaVuSans-117"/>
     <use x="1839.966797" xlink:href="#DejaVuSans-108"/>
     <use x="1867.75" xlink:href="#DejaVuSans-97"/>
     <use x="1929.029297" xlink:href="#DejaVuSans-116"/>
     <use x="1968.238281" xlink:href="#DejaVuSans-101"/>
     <use x="2029.761719" xlink:href="#DejaVuSans-100"/>
     <use x="2093.238281" xlink:href="#DejaVuSans-32"/>
     <use x="2125.025391" xlink:href="#DejaVuSans-116"/>
     <use x="2164.234375" xlink:href="#DejaVuSans-114"/>
     <use x="2205.347656" xlink:href="#DejaVuSans-105"/>
     <use x="2233.130859" xlink:href="#DejaVuSans-97"/>
     <use x="2294.410156" xlink:href="#DejaVuSans-108"/>
     <use x="2322.193359" xlink:href="#DejaVuSans-115"/>
     <use x="2374.292969" xlink:href="#DejaVuSans-44"/>
     <use x="2406.080078" xlink:href="#DejaVuSans-32"/>
     <use x="2437.867188" xlink:href="#DejaVuSans-78"/>
     <use x="2512.671875" xlink:href="#DejaVuSans-117"/>
     <use x="2576.050781" xlink:href="#DejaVuSans-109"/>
     <use x="2673.462891" xlink:href="#DejaVuSans-32"/>
     <use x="2705.25" xlink:href="#DejaVuSans-99"/>
     <use x="2760.230469" xlink:href="#DejaVuSans-101"/>
     <use x="2821.753906" xlink:href="#DejaVuSans-108"/>
     <use x="2849.537109" xlink:href="#DejaVuSans-108"/>
     <use x="2877.320312" xlink:href="#DejaVuSans-115"/>
     <use x="2929.419922" xlink:href="#DejaVuSans-32"/>
     <use x="2961.207031" xlink:href="#DejaVuSans-61"/>
     <use x="3044.996094" xlink:href="#DejaVuSans-32"/>
     <use x="3076.783203" xlink:href="#DejaVuSans-51"/>
     <use x="3140.40625" xlink:href="#DejaVuSans-53"/>
     <use x="3204.029297" xlink:href="#DejaVuSans-49"/>
    </g>
   </g>
   <g id="legend_1">
    <g id="patch_7">
     <path d="M 73.31 71.73375 
L 207.95 71.73375 
Q 210.35 71.73375 210.35 69.33375 
L 210.35 35.28 
Q 210.35 32.88 207.95 32.88 
L 73.31 32.88 
Q 70.91 32.88 70.91 35.28 
L 70.91 69.33375 
Q 70.91 71.73375 73.31 71.73375 
z
" style="fill:#ffffff;opacity:0.8;stroke:#cccccc;stroke-linejoin:miter;"/>
    </g>
    <g id="line2d_12">
     <path d="M 75.71 42.6 
L 99.71 42.6 
" style="fill:none;stroke:#0000ff;stroke-linecap:square;stroke-width:1.5;"/>
    </g>
    <g id="line2d_13"/>
    <g id="text_14">
     <!-- COM-Binomial $p$ -->
     <defs>
      <path d="M 4.890625 31.390625 
L 31.203125 31.390625 
L 31.203125 23.390625 
L 4.890625 23.390625 
z
" id="DejaVuSans-45"/>
      <path d="M 19.671875 34.8125 
L 19.671875 8.109375 
L 35.5 8.109375 
Q 43.453125 8.109375 47.28125 11.40625 
Q 51.125 14.703125 51.125 21.484375 
Q 51.125 28.328125 47.28125 31.5625 
Q 43.453125 34.8125 35.5 34.8125 
z
M 19.671875 64.796875 
L 19.671875 42.828125 
L 34.28125 42.828125 
Q 41.5 42.828125 45.03125 45.53125 
Q 48.578125 48.25 48.578125 53.8125 
Q 48.578125 59.328125 45.03125 62.0625 
Q 41.5 64.796875 34.28125 64.796875 
z
M 9.8125 72.90625 
L 35.015625 72.90625 
Q 46.296875 72.90625 52.390625 68.21875 
Q 58.5 63.53125 58.5 54.890625 
Q 58.5 48.1875 55.375 44.234375 
Q 52.25 40.28125 46.1875 39.3125 
Q 53.46875 37.75 57.5 32.78125 
Q 61.53125 27.828125 61.53125 20.40625 
Q 61.53125 10.640625 54.890625 5.3125 
Q 48.25 0 35.984375 0 
L 9.8125 0 
z
" id="DejaVuSans-66"/>
      <path d="M 30.609375 48.390625 
Q 23.390625 48.390625 19.1875 42.75 
Q 14.984375 37.109375 14.984375 27.296875 
Q 14.984375 17.484375 19.15625 11.84375 
Q 23.34375 6.203125 30.609375 6.203125 
Q 37.796875 6.203125 41.984375 11.859375 
Q 46.1875 17.53125 46.1875 27.296875 
Q 46.1875 37.015625 41.984375 42.703125 
Q 37.796875 48.390625 30.609375 48.390625 
z
M 30.609375 56 
Q 42.328125 56 49.015625 48.375 
Q 55.71875 40.765625 55.71875 27.296875 
Q 55.71875 13.875 49.015625 6.21875 
Q 42.328125 -1.421875 30.609375 -1.421875 
Q 18.84375 -1.421875 12.171875 6.21875 
Q 5.515625 13.875 5.515625 27.296875 
Q 5.515625 40.765625 12.171875 48.375 
Q 18.84375 56 30.609375 56 
z
" id="DejaVuSans-111"/>
     </defs>
     <g transform="translate(109.31 46.8)scale(0.12 -0.12)">
      <use transform="translate(0 0.015625)" xlink:href="#DejaVuSans-67"/>
      <use transform="translate(69.824219 0.015625)" xlink:href="#DejaVuSans-79"/>
      <use transform="translate(148.535156 0.015625)" xlink:href="#DejaVuSans-77"/>
      <use transform="translate(234.814453 0.015625)" xlink:href="#DejaVuSans-45"/>
      <use transform="translate(270.898438 0.015625)" xlink:href="#DejaVuSans-66"/>
      <use transform="translate(339.501953 0.015625)" xlink:href="#DejaVuSans-105"/>
      <use transform="translate(367.285156 0.015625)" xlink:href="#DejaVuSans-110"/>
      <use transform="translate(430.664062 0.015625)" xlink:href="#DejaVuSans-111"/>
      <use transform="translate(491.845703 0.015625)" xlink:href="#DejaVuSans-109"/>
      <use transform="translate(589.257812 0.015625)" xlink:href="#DejaVuSans-105"/>
      <use transform="translate(617.041016 0.015625)" xlink:href="#DejaVuSans-97"/>
      <use transform="translate(678.320312 0.015625)" xlink:href="#DejaVuSans-108"/>
      <use transform="translate(706.103516 0.015625)" xlink:href="#DejaVuSans-32"/>
      <use transform="translate(737.890625 0.015625)" xlink:href="#DejaVuSans-Oblique-112"/>
     </g>
    </g>
    <g id="patch_8">
     <path d="M 75.71 64.438125 
L 99.71 64.438125 
L 99.71 56.038125 
L 75.71 56.038125 
z
" style="fill:#0000ff;opacity:0.3;stroke:#0000ff;stroke-linejoin:miter;"/>
    </g>
    <g id="text_15">
     <!-- Std. Err. -->
     <defs>
      <path d="M 9.8125 72.90625 
L 55.90625 72.90625 
L 55.90625 64.59375 
L 19.671875 64.59375 
L 19.671875 43.015625 
L 54.390625 43.015625 
L 54.390625 34.71875 
L 19.671875 34.71875 
L 19.671875 8.296875 
L 56.78125 8.296875 
L 56.78125 0 
L 9.8125 0 
z
" id="DejaVuSans-69"/>
     </defs>
     <g transform="translate(109.31 64.438125)scale(0.12 -0.12)">
      <use xlink:href="#DejaVuSans-83"/>
      <use x="63.476562" xlink:href="#DejaVuSans-116"/>
      <use x="102.685547" xlink:href="#DejaVuSans-100"/>
      <use x="166.162109" xlink:href="#DejaVuSans-46"/>
      <use x="197.949219" xlink:href="#DejaVuSans-32"/>
      <use x="229.736328" xlink:href="#DejaVuSans-69"/>
      <use x="292.919922" xlink:href="#DejaVuSans-114"/>
      <use x="334.017578" xlink:href="#DejaVuSans-114"/>
      <use x="374.990234" xlink:href="#DejaVuSans-46"/>
     </g>
    </g>
   </g>
  </g>
 </g>
 <defs>
  <clipPath id="p0ad1a833ae">
   <rect height="147.88" width="500.29" x="64.91" y="26.88"/>
  </clipPath>
 </defs>
</svg>
