<?xml version="1.0" encoding="utf-8" standalone="no"?>
<!DOCTYPE svg PUBLIC "-//W3C//DTD SVG 1.1//EN"
  "http://www.w3.org/Graphics/SVG/1.1/DTD/svg11.dtd">
<!-- Created with matplotlib (https://matplotlib.org/) -->
<svg height="216pt" version="1.1" viewBox="0 0 648 216" width="648pt" xmlns="http://www.w3.org/2000/svg" xmlns:xlink="http://www.w3.org/1999/xlink">
 <defs>
  <style type="text/css">
*{stroke-linecap:butt;stroke-linejoin:round;}
  </style>
 </defs>
 <g id="figure_1">
  <g id="patch_1">
   <path d="M 0 216 
L 648 216 
L 648 0 
L 0 0 
z
" style="fill:#ffffff;"/>
  </g>
  <g id="axes_1">
   <g id="patch_2">
    <path d="M 81 192.24 
L 583.2 192.24 
L 583.2 25.92 
L 81 25.92 
z
" style="fill:#ffffff;"/>
   </g>
   <g id="PolyCollection_1">
    <defs>
     <path d="M 156.33 -23.76 
L 156.33 -190.08 
L 420.645789 -190.08 
L 420.645789 -23.76 
L 420.645789 -23.76 
L 156.33 -23.76 
z
" id="mb8fea5102e" style="stroke:#808080;stroke-opacity:0.3;"/>
    </defs>
    <g clip-path="url(#p53145a4c35)">
     <use style="fill:#808080;fill-opacity:0.3;stroke:#808080;stroke-opacity:0.3;" x="0" xlink:href="#mb8fea5102e" y="216"/>
    </g>
   </g>
   <g id="PolyCollection_2">
    <defs>
     <path d="M 81 -141.526162 
L 81 -92.499422 
L 82.762105 -84.670147 
L 84.524211 -85.716109 
L 86.286316 -95.737409 
L 88.048421 -78.730241 
L 89.810526 -91.638969 
L 91.572632 -81.088788 
L 93.334737 -84.80928 
L 95.096842 -88.408187 
L 96.858947 -94.238012 
L 98.621053 -88.323335 
L 100.383158 -87.306582 
L 102.145263 -96.410786 
L 103.907368 -78.475695 
L 105.669474 -84.207744 
L 107.431579 -87.157201 
L 109.193684 -77.360741 
L 110.955789 -73.14967 
L 112.717895 -78.222181 
L 114.48 -59.269176 
L 116.242105 -66.299652 
L 118.004211 -54.131822 
L 119.766316 -55.440019 
L 121.528421 -66.813199 
L 123.290526 -66.55027 
L 125.052632 -68.152084 
L 126.814737 -48.821297 
L 128.576842 -58.912276 
L 130.338947 -62.627314 
L 132.101053 -58.354833 
L 133.863158 -37.762001 
L 135.625263 -42.557391 
L 137.387368 -48.181279 
L 139.149474 -54.59437 
L 140.911579 -51.412403 
L 142.673684 -46.830138 
L 144.435789 -42.174816 
L 146.197895 -38.365131 
L 147.96 -54.066859 
L 149.722105 -35.434621 
L 151.484211 -38.816217 
L 153.246316 -47.339048 
L 155.008421 -48.855288 
L 156.770526 -54.420457 
L 158.532632 -44.230829 
L 160.294737 -29.325968 
L 162.056842 -44.045241 
L 163.818947 -45.870848 
L 165.581053 -36.388167 
L 167.343158 -35.879867 
L 169.105263 -48.024358 
L 170.867368 -39.928259 
L 172.629474 -39.888969 
L 174.391579 -53.41791 
L 176.153684 -31.121858 
L 177.915789 -40.915155 
L 179.677895 -35.417762 
L 181.44 -39.161469 
L 183.202105 -28.556483 
L 184.964211 -31.473296 
L 186.726316 -31.638359 
L 188.488421 -24.665754 
L 190.250526 -30.726995 
L 192.012632 -28.626868 
L 193.774737 -23.76 
L 195.536842 -33.568282 
L 197.298947 -49.309251 
L 199.061053 -30.283994 
L 200.823158 -45.348979 
L 202.585263 -48.01392 
L 204.347368 -42.893191 
L 206.109474 -41.99592 
L 207.871579 -34.698499 
L 209.633684 -46.057183 
L 211.395789 -35.878459 
L 213.157895 -33.209713 
L 214.92 -52.581786 
L 216.682105 -50.108494 
L 218.444211 -47.398339 
L 220.206316 -58.790583 
L 221.968421 -47.49032 
L 223.730526 -47.025767 
L 225.492632 -71.641001 
L 227.254737 -81.139542 
L 229.016842 -92.102347 
L 230.778947 -87.23835 
L 232.541053 -89.071948 
L 234.303158 -72.638006 
L 236.065263 -68.107561 
L 237.827368 -77.891494 
L 239.589474 -81.303925 
L 241.351579 -81.853842 
L 243.113684 -85.342513 
L 244.875789 -74.856087 
L 246.637895 -81.891417 
L 248.4 -62.604405 
L 250.162105 -91.515492 
L 251.924211 -82.89597 
L 253.686316 -81.467865 
L 255.448421 -88.983224 
L 257.210526 -61.445669 
L 258.972632 -61.798374 
L 260.734737 -60.960567 
L 262.496842 -55.531105 
L 264.258947 -49.658265 
L 266.021053 -62.476428 
L 267.783158 -59.692726 
L 269.545263 -51.344166 
L 271.307368 -50.23321 
L 273.069474 -63.509743 
L 274.831579 -75.450332 
L 276.593684 -73.182367 
L 278.355789 -61.062028 
L 280.117895 -69.474402 
L 281.88 -55.212493 
L 283.642105 -48.881705 
L 285.404211 -51.926899 
L 287.166316 -49.065118 
L 288.928421 -57.399159 
L 290.690526 -64.49469 
L 292.452632 -61.591384 
L 294.214737 -48.349683 
L 295.976842 -47.519117 
L 297.738947 -47.242025 
L 299.501053 -46.449787 
L 301.263158 -32.525939 
L 303.025263 -45.906378 
L 304.787368 -48.890157 
L 306.549474 -44.208511 
L 308.311579 -47.665559 
L 310.073684 -58.008924 
L 311.835789 -51.49856 
L 313.597895 -55.890371 
L 315.36 -45.601097 
L 317.122105 -46.26301 
L 318.884211 -45.632757 
L 320.646316 -64.872867 
L 322.408421 -58.527041 
L 324.170526 -52.189981 
L 325.932632 -45.949569 
L 327.694737 -50.781781 
L 329.456842 -39.213737 
L 331.218947 -53.12596 
L 332.981053 -47.747648 
L 334.743158 -49.672625 
L 336.505263 -53.852946 
L 338.267368 -45.680019 
L 340.029474 -41.407307 
L 341.791579 -41.529699 
L 343.553684 -31.714475 
L 345.315789 -41.671311 
L 347.077895 -50.303776 
L 348.84 -44.888721 
L 350.602105 -54.717895 
L 352.364211 -54.541467 
L 354.126316 -70.045837 
L 355.888421 -55.080558 
L 357.650526 -45.343961 
L 359.412632 -37.210893 
L 361.174737 -41.095976 
L 362.936842 -48.922417 
L 364.698947 -46.513949 
L 366.461053 -47.971797 
L 368.223158 -47.904099 
L 369.985263 -37.644893 
L 371.747368 -48.783616 
L 373.509474 -56.03664 
L 375.271579 -43.747449 
L 377.033684 -60.1537 
L 378.795789 -38.963054 
L 380.557895 -48.621939 
L 382.32 -46.797576 
L 384.082105 -57.658766 
L 385.844211 -40.266616 
L 387.606316 -56.645948 
L 389.368421 -43.861712 
L 391.130526 -42.609803 
L 392.892632 -44.56276 
L 394.654737 -59.11586 
L 396.416842 -46.223007 
L 398.178947 -54.223666 
L 399.941053 -54.324925 
L 401.703158 -56.713202 
L 403.465263 -54.554358 
L 405.227368 -40.150625 
L 406.989474 -45.25499 
L 408.751579 -53.174311 
L 410.513684 -52.962575 
L 412.275789 -48.659976 
L 414.037895 -54.137008 
L 415.8 -57.819733 
L 417.562105 -70.390176 
L 419.324211 -75.7247 
L 421.086316 -69.383621 
L 422.848421 -63.312215 
L 424.610526 -66.158508 
L 426.372632 -72.109032 
L 428.134737 -71.229987 
L 429.896842 -59.954083 
L 431.658947 -68.340776 
L 433.421053 -72.603061 
L 435.183158 -70.697669 
L 436.945263 -59.080571 
L 438.707368 -61.673615 
L 440.469474 -48.088722 
L 442.231579 -77.291481 
L 443.993684 -55.876832 
L 445.755789 -58.975211 
L 447.517895 -48.193556 
L 449.28 -61.578381 
L 451.042105 -54.463793 
L 452.804211 -53.101417 
L 454.566316 -54.041924 
L 456.328421 -45.962233 
L 458.090526 -44.618257 
L 459.852632 -44.015812 
L 461.614737 -49.159333 
L 463.376842 -46.045078 
L 465.138947 -41.906493 
L 466.901053 -57.390609 
L 468.663158 -43.109444 
L 470.425263 -41.58625 
L 472.187368 -59.761339 
L 473.949474 -50.337342 
L 475.711579 -52.019438 
L 477.473684 -55.839899 
L 479.235789 -51.307403 
L 480.997895 -49.312059 
L 482.76 -59.234698 
L 484.522105 -56.6657 
L 486.284211 -52.946884 
L 488.046316 -51.70936 
L 489.808421 -47.029239 
L 491.570526 -50.852887 
L 493.332632 -45.278409 
L 495.094737 -55.86472 
L 496.856842 -66.11245 
L 498.618947 -73.208296 
L 500.381053 -64.91694 
L 502.143158 -65.920073 
L 503.905263 -59.631127 
L 505.667368 -64.752832 
L 507.429474 -67.048183 
L 509.191579 -73.668376 
L 510.953684 -61.232042 
L 512.715789 -56.726159 
L 514.477895 -54.108352 
L 516.24 -53.914102 
L 518.002105 -58.707499 
L 519.764211 -59.517275 
L 521.526316 -62.998079 
L 523.288421 -57.360635 
L 525.050526 -62.804305 
L 526.812632 -80.916546 
L 528.574737 -57.389944 
L 530.336842 -84.97811 
L 532.098947 -73.503393 
L 533.861053 -85.066531 
L 535.623158 -95.755502 
L 537.385263 -83.220206 
L 539.147368 -95.291561 
L 540.909474 -94.893089 
L 542.671579 -90.806517 
L 544.433684 -124.909038 
L 546.195789 -108.121927 
L 547.957895 -120.340628 
L 549.72 -127.915844 
L 551.482105 -118.052083 
L 553.244211 -116.414934 
L 555.006316 -109.488764 
L 556.768421 -99.837269 
L 558.530526 -114.142235 
L 560.292632 -120.965854 
L 562.054737 -99.543627 
L 563.816842 -106.932311 
L 565.578947 -106.672214 
L 567.341053 -109.250016 
L 569.103158 -88.822311 
L 570.865263 -100.633956 
L 572.627368 -106.674072 
L 574.389474 -88.655286 
L 576.151579 -102.808543 
L 577.913684 -88.545939 
L 579.675789 -73.652396 
L 581.437895 -71.241771 
L 583.2 -69.576693 
L 583.2 -105.992742 
L 583.2 -105.992742 
L 581.437895 -108.576429 
L 579.675789 -114.65473 
L 577.913684 -139.123369 
L 576.151579 -157.227444 
L 574.389474 -146.20476 
L 572.627368 -166.04372 
L 570.865263 -159.652555 
L 569.103158 -149.077035 
L 567.341053 -169.66023 
L 565.578947 -161.288201 
L 563.816842 -157.463877 
L 562.054737 -155.819436 
L 560.292632 -177.887281 
L 558.530526 -171.120019 
L 556.768421 -160.04171 
L 555.006316 -172.151451 
L 553.244211 -178.191817 
L 551.482105 -180.320757 
L 549.72 -190.08 
L 547.957895 -182.427533 
L 546.195789 -168.868233 
L 544.433684 -179.909445 
L 542.671579 -130.75984 
L 540.909474 -131.521768 
L 539.147368 -127.335684 
L 537.385263 -114.590302 
L 535.623158 -126.241345 
L 533.861053 -119.423643 
L 532.098947 -108.344649 
L 530.336842 -120.380579 
L 528.574737 -93.51777 
L 526.812632 -111.88961 
L 525.050526 -88.509259 
L 523.288421 -81.947806 
L 521.526316 -89.90852 
L 519.764211 -84.611596 
L 518.002105 -82.412686 
L 516.24 -76.88638 
L 514.477895 -74.318444 
L 512.715789 -78.763611 
L 510.953684 -84.727215 
L 509.191579 -97.546995 
L 507.429474 -92.646597 
L 505.667368 -90.105668 
L 503.905263 -86.116135 
L 502.143158 -91.437467 
L 500.381053 -92.694603 
L 498.618947 -99.826277 
L 496.856842 -94.005815 
L 495.094737 -83.208942 
L 493.332632 -73.608097 
L 491.570526 -74.762349 
L 489.808421 -71.311829 
L 488.046316 -77.301893 
L 486.284211 -78.310414 
L 484.522105 -82.567872 
L 482.76 -86.212086 
L 480.997895 -75.526964 
L 479.235789 -73.293615 
L 477.473684 -74.508112 
L 475.711579 -73.736634 
L 473.949474 -70.843269 
L 472.187368 -80.01408 
L 470.425263 -61.799154 
L 468.663158 -64.645255 
L 466.901053 -78.082472 
L 465.138947 -62.756559 
L 463.376842 -66.456859 
L 461.614737 -71.780583 
L 459.852632 -64.893139 
L 458.090526 -66.183067 
L 456.328421 -66.655513 
L 454.566316 -74.542712 
L 452.804211 -80.975578 
L 451.042105 -88.440635 
L 449.28 -96.361292 
L 447.517895 -87.455335 
L 445.755789 -103.313866 
L 443.993684 -101.369501 
L 442.231579 -125.167948 
L 440.469474 -97.485743 
L 438.707368 -112.369888 
L 436.945263 -110.781734 
L 435.183158 -124.996859 
L 433.421053 -129.492907 
L 431.658947 -127.034224 
L 429.896842 -123.90376 
L 428.134737 -129.79188 
L 426.372632 -132.364624 
L 424.610526 -132.921841 
L 422.848421 -130.610842 
L 421.086316 -137.728167 
L 419.324211 -147.031552 
L 417.562105 -139.146135 
L 415.8 -128.803041 
L 414.037895 -126.645239 
L 412.275789 -86.098952 
L 410.513684 -77.976081 
L 408.751579 -77.411158 
L 406.989474 -70.264425 
L 405.227368 -67.879454 
L 403.465263 -83.436718 
L 401.703158 -85.615622 
L 399.941053 -82.492091 
L 398.178947 -83.655091 
L 396.416842 -76.216165 
L 394.654737 -88.754346 
L 392.892632 -68.568162 
L 391.130526 -69.455097 
L 389.368421 -71.736763 
L 387.606316 -82.526222 
L 385.844211 -67.086328 
L 384.082105 -86.151653 
L 382.32 -76.290175 
L 380.557895 -78.675306 
L 378.795789 -68.760048 
L 377.033684 -88.361352 
L 375.271579 -72.342457 
L 373.509474 -85.035311 
L 371.747368 -79.184229 
L 369.985263 -65.129002 
L 368.223158 -76.041129 
L 366.461053 -76.26493 
L 364.698947 -74.99885 
L 362.936842 -77.796318 
L 361.174737 -69.926908 
L 359.412632 -66.975509 
L 357.650526 -75.817525 
L 355.888421 -84.750958 
L 354.126316 -101.128774 
L 352.364211 -87.087408 
L 350.602105 -84.598112 
L 348.84 -72.504144 
L 347.077895 -80.336081 
L 345.315789 -72.021975 
L 343.553684 -65.694317 
L 341.791579 -76.494389 
L 340.029474 -76.664871 
L 338.267368 -79.489797 
L 336.505263 -86.439438 
L 334.743158 -83.377592 
L 332.981053 -80.159254 
L 331.218947 -87.052101 
L 329.456842 -74.572817 
L 327.694737 -86.295171 
L 325.932632 -81.927203 
L 324.170526 -89.509038 
L 322.408421 -91.494656 
L 320.646316 -93.986642 
L 318.884211 -71.018203 
L 317.122105 -69.987632 
L 315.36 -69.863535 
L 313.597895 -80.141826 
L 311.835789 -76.285292 
L 310.073684 -85.042316 
L 308.311579 -72.982177 
L 306.549474 -71.556428 
L 304.787368 -76.717739 
L 303.025263 -74.713412 
L 301.263158 -62.979099 
L 299.501053 -76.102028 
L 297.738947 -77.717749 
L 295.976842 -88.737198 
L 294.214737 -94.74813 
L 292.452632 -111.279922 
L 290.690526 -115.339006 
L 288.928421 -108.308777 
L 287.166316 -100.875705 
L 285.404211 -99.918948 
L 283.642105 -98.94596 
L 281.88 -105.123586 
L 280.117895 -119.457188 
L 278.355789 -112.474029 
L 276.593684 -126.826754 
L 274.831579 -128.258813 
L 273.069474 -113.79694 
L 271.307368 -98.276228 
L 269.545263 -99.420519 
L 267.783158 -106.168619 
L 266.021053 -107.932872 
L 264.258947 -97.944219 
L 262.496842 -98.32027 
L 260.734737 -93.440373 
L 258.972632 -101.148963 
L 257.210526 -105.168208 
L 255.448421 -136.530655 
L 253.686316 -137.79038 
L 251.924211 -139.622653 
L 250.162105 -146.978176 
L 248.4 -118.068809 
L 246.637895 -136.826665 
L 244.875789 -131.992312 
L 243.113684 -142.07462 
L 241.351579 -137.452558 
L 239.589474 -136.190548 
L 237.827368 -133.420593 
L 236.065263 -123.71084 
L 234.303158 -128.200186 
L 232.541053 -146.785869 
L 230.778947 -145.75055 
L 229.016842 -152.019552 
L 227.254737 -141.057921 
L 225.492632 -123.692048 
L 223.730526 -94.442856 
L 221.968421 -92.303185 
L 220.206316 -88.667389 
L 218.444211 -65.145323 
L 216.682105 -68.296486 
L 214.92 -71.590204 
L 213.157895 -51.658617 
L 211.395789 -54.614821 
L 209.633684 -63.058204 
L 207.871579 -52.580112 
L 206.109474 -60.095872 
L 204.347368 -60.095152 
L 202.585263 -67.025729 
L 200.823158 -63.024233 
L 199.061053 -47.048597 
L 197.298947 -66.796907 
L 195.536842 -50.432417 
L 193.774737 -41.599408 
L 192.012632 -47.133324 
L 190.250526 -48.508608 
L 188.488421 -41.351417 
L 186.726316 -47.903905 
L 184.964211 -47.915368 
L 183.202105 -45.50271 
L 181.44 -55.63809 
L 179.677895 -53.597595 
L 177.915789 -60.025875 
L 176.153684 -49.812785 
L 174.391579 -70.850942 
L 172.629474 -57.993754 
L 170.867368 -58.16706 
L 169.105263 -66.64022 
L 167.343158 -54.519712 
L 165.581053 -55.574113 
L 163.818947 -64.93241 
L 162.056842 -61.878924 
L 160.294737 -48.325798 
L 158.532632 -62.643729 
L 156.770526 -73.984663 
L 155.008421 -68.300758 
L 153.246316 -66.82899 
L 151.484211 -59.790735 
L 149.722105 -56.939913 
L 147.96 -74.819811 
L 146.197895 -61.904455 
L 144.435789 -67.725972 
L 142.673684 -74.600457 
L 140.911579 -80.94275 
L 139.149474 -84.36266 
L 137.387368 -78.580866 
L 135.625263 -72.937432 
L 133.863158 -68.422685 
L 132.101053 -89.837313 
L 130.338947 -95.550846 
L 128.576842 -90.87699 
L 126.814737 -80.867521 
L 125.052632 -103.33427 
L 123.290526 -98.67592 
L 121.528421 -89.77206 
L 119.766316 -81.058526 
L 118.004211 -79.314494 
L 116.242105 -92.127074 
L 114.48 -88.523538 
L 112.717895 -110.014217 
L 110.955789 -105.862986 
L 109.193684 -114.032347 
L 107.431579 -128.608713 
L 105.669474 -124.79204 
L 103.907368 -115.545555 
L 102.145263 -131.128109 
L 100.383158 -128.055647 
L 98.621053 -129.915013 
L 96.858947 -135.736369 
L 95.096842 -130.230549 
L 93.334737 -127.427616 
L 91.572632 -125.69982 
L 89.810526 -135.614536 
L 88.048421 -123.501998 
L 86.286316 -141.925341 
L 84.524211 -135.595189 
L 82.762105 -133.172305 
L 81 -141.526162 
z
" id="ma452ec6a7d" style="stroke:#0000ff;stroke-opacity:0.3;"/>
    </defs>
    <g clip-path="url(#p53145a4c35)">
     <use style="fill:#0000ff;fill-opacity:0.3;stroke:#0000ff;stroke-opacity:0.3;" x="0" xlink:href="#ma452ec6a7d" y="216"/>
    </g>
   </g>
   <g id="matplotlib.axis_1">
    <g id="xtick_1">
     <g id="line2d_1">
      <defs>
       <path d="M 0 0 
L 0 3.5 
" id="mc6d7fa9050" style="stroke:#000000;stroke-width:0.8;"/>
      </defs>
      <g>
       <use style="stroke:#000000;stroke-width:0.8;" x="156.33" xlink:href="#mc6d7fa9050" y="192.24"/>
      </g>
     </g>
     <g id="text_1">
      <!-- 0.0 -->
      <defs>
       <path d="M 31.78125 66.40625 
Q 24.171875 66.40625 20.328125 58.90625 
Q 16.5 51.421875 16.5 36.375 
Q 16.5 21.390625 20.328125 13.890625 
Q 24.171875 6.390625 31.78125 6.390625 
Q 39.453125 6.390625 43.28125 13.890625 
Q 47.125 21.390625 47.125 36.375 
Q 47.125 51.421875 43.28125 58.90625 
Q 39.453125 66.40625 31.78125 66.40625 
z
M 31.78125 74.21875 
Q 44.046875 74.21875 50.515625 64.515625 
Q 56.984375 54.828125 56.984375 36.375 
Q 56.984375 17.96875 50.515625 8.265625 
Q 44.046875 -1.421875 31.78125 -1.421875 
Q 19.53125 -1.421875 13.0625 8.265625 
Q 6.59375 17.96875 6.59375 36.375 
Q 6.59375 54.828125 13.0625 64.515625 
Q 19.53125 74.21875 31.78125 74.21875 
z
" id="DejaVuSans-48"/>
       <path d="M 10.6875 12.40625 
L 21 12.40625 
L 21 0 
L 10.6875 0 
z
" id="DejaVuSans-46"/>
      </defs>
      <g transform="translate(146.788125 208.358125)scale(0.12 -0.12)">
       <use xlink:href="#DejaVuSans-48"/>
       <use x="63.623047" xlink:href="#DejaVuSans-46"/>
       <use x="95.410156" xlink:href="#DejaVuSans-48"/>
      </g>
     </g>
    </g>
    <g id="xtick_2">
     <g id="line2d_2">
      <g>
       <use style="stroke:#000000;stroke-width:0.8;" x="244.435263" xlink:href="#mc6d7fa9050" y="192.24"/>
      </g>
     </g>
     <g id="text_2">
      <!-- 0.5 -->
      <defs>
       <path d="M 10.796875 72.90625 
L 49.515625 72.90625 
L 49.515625 64.59375 
L 19.828125 64.59375 
L 19.828125 46.734375 
Q 21.96875 47.46875 24.109375 47.828125 
Q 26.265625 48.1875 28.421875 48.1875 
Q 40.625 48.1875 47.75 41.5 
Q 54.890625 34.8125 54.890625 23.390625 
Q 54.890625 11.625 47.5625 5.09375 
Q 40.234375 -1.421875 26.90625 -1.421875 
Q 22.3125 -1.421875 17.546875 -0.640625 
Q 12.796875 0.140625 7.71875 1.703125 
L 7.71875 11.625 
Q 12.109375 9.234375 16.796875 8.0625 
Q 21.484375 6.890625 26.703125 6.890625 
Q 35.15625 6.890625 40.078125 11.328125 
Q 45.015625 15.765625 45.015625 23.390625 
Q 45.015625 31 40.078125 35.4375 
Q 35.15625 39.890625 26.703125 39.890625 
Q 22.75 39.890625 18.8125 39.015625 
Q 14.890625 38.140625 10.796875 36.28125 
z
" id="DejaVuSans-53"/>
      </defs>
      <g transform="translate(234.893388 208.358125)scale(0.12 -0.12)">
       <use xlink:href="#DejaVuSans-48"/>
       <use x="63.623047" xlink:href="#DejaVuSans-46"/>
       <use x="95.410156" xlink:href="#DejaVuSans-53"/>
      </g>
     </g>
    </g>
    <g id="xtick_3">
     <g id="line2d_3">
      <g>
       <use style="stroke:#000000;stroke-width:0.8;" x="332.540526" xlink:href="#mc6d7fa9050" y="192.24"/>
      </g>
     </g>
     <g id="text_3">
      <!-- 1.0 -->
      <defs>
       <path d="M 12.40625 8.296875 
L 28.515625 8.296875 
L 28.515625 63.921875 
L 10.984375 60.40625 
L 10.984375 69.390625 
L 28.421875 72.90625 
L 38.28125 72.90625 
L 38.28125 8.296875 
L 54.390625 8.296875 
L 54.390625 0 
L 12.40625 0 
z
" id="DejaVuSans-49"/>
      </defs>
      <g transform="translate(322.998651 208.358125)scale(0.12 -0.12)">
       <use xlink:href="#DejaVuSans-49"/>
       <use x="63.623047" xlink:href="#DejaVuSans-46"/>
       <use x="95.410156" xlink:href="#DejaVuSans-48"/>
      </g>
     </g>
    </g>
    <g id="xtick_4">
     <g id="line2d_4">
      <g>
       <use style="stroke:#000000;stroke-width:0.8;" x="420.645789" xlink:href="#mc6d7fa9050" y="192.24"/>
      </g>
     </g>
     <g id="text_4">
      <!-- 1.5 -->
      <g transform="translate(411.103914 208.358125)scale(0.12 -0.12)">
       <use xlink:href="#DejaVuSans-49"/>
       <use x="63.623047" xlink:href="#DejaVuSans-46"/>
       <use x="95.410156" xlink:href="#DejaVuSans-53"/>
      </g>
     </g>
    </g>
    <g id="xtick_5">
     <g id="line2d_5">
      <g>
       <use style="stroke:#000000;stroke-width:0.8;" x="508.751053" xlink:href="#mc6d7fa9050" y="192.24"/>
      </g>
     </g>
     <g id="text_5">
      <!-- 2.0 -->
      <defs>
       <path d="M 19.1875 8.296875 
L 53.609375 8.296875 
L 53.609375 0 
L 7.328125 0 
L 7.328125 8.296875 
Q 12.9375 14.109375 22.625 23.890625 
Q 32.328125 33.6875 34.8125 36.53125 
Q 39.546875 41.84375 41.421875 45.53125 
Q 43.3125 49.21875 43.3125 52.78125 
Q 43.3125 58.59375 39.234375 62.25 
Q 35.15625 65.921875 28.609375 65.921875 
Q 23.96875 65.921875 18.8125 64.3125 
Q 13.671875 62.703125 7.8125 59.421875 
L 7.8125 69.390625 
Q 13.765625 71.78125 18.9375 73 
Q 24.125 74.21875 28.421875 74.21875 
Q 39.75 74.21875 46.484375 68.546875 
Q 53.21875 62.890625 53.21875 53.421875 
Q 53.21875 48.921875 51.53125 44.890625 
Q 49.859375 40.875 45.40625 35.40625 
Q 44.1875 33.984375 37.640625 27.21875 
Q 31.109375 20.453125 19.1875 8.296875 
z
" id="DejaVuSans-50"/>
      </defs>
      <g transform="translate(499.209178 208.358125)scale(0.12 -0.12)">
       <use xlink:href="#DejaVuSans-50"/>
       <use x="63.623047" xlink:href="#DejaVuSans-46"/>
       <use x="95.410156" xlink:href="#DejaVuSans-48"/>
      </g>
     </g>
    </g>
    <g id="text_6">
     <!-- Time (s) -->
     <defs>
      <path d="M -0.296875 72.90625 
L 61.375 72.90625 
L 61.375 64.59375 
L 35.5 64.59375 
L 35.5 0 
L 25.59375 0 
L 25.59375 64.59375 
L -0.296875 64.59375 
z
" id="DejaVuSans-84"/>
      <path d="M 9.421875 54.6875 
L 18.40625 54.6875 
L 18.40625 0 
L 9.421875 0 
z
M 9.421875 75.984375 
L 18.40625 75.984375 
L 18.40625 64.59375 
L 9.421875 64.59375 
z
" id="DejaVuSans-105"/>
      <path d="M 52 44.1875 
Q 55.375 50.25 60.0625 53.125 
Q 64.75 56 71.09375 56 
Q 79.640625 56 84.28125 50.015625 
Q 88.921875 44.046875 88.921875 33.015625 
L 88.921875 0 
L 79.890625 0 
L 79.890625 32.71875 
Q 79.890625 40.578125 77.09375 44.375 
Q 74.3125 48.1875 68.609375 48.1875 
Q 61.625 48.1875 57.5625 43.546875 
Q 53.515625 38.921875 53.515625 30.90625 
L 53.515625 0 
L 44.484375 0 
L 44.484375 32.71875 
Q 44.484375 40.625 41.703125 44.40625 
Q 38.921875 48.1875 33.109375 48.1875 
Q 26.21875 48.1875 22.15625 43.53125 
Q 18.109375 38.875 18.109375 30.90625 
L 18.109375 0 
L 9.078125 0 
L 9.078125 54.6875 
L 18.109375 54.6875 
L 18.109375 46.1875 
Q 21.1875 51.21875 25.484375 53.609375 
Q 29.78125 56 35.6875 56 
Q 41.65625 56 45.828125 52.96875 
Q 50 49.953125 52 44.1875 
z
" id="DejaVuSans-109"/>
      <path d="M 56.203125 29.59375 
L 56.203125 25.203125 
L 14.890625 25.203125 
Q 15.484375 15.921875 20.484375 11.0625 
Q 25.484375 6.203125 34.421875 6.203125 
Q 39.59375 6.203125 44.453125 7.46875 
Q 49.3125 8.734375 54.109375 11.28125 
L 54.109375 2.78125 
Q 49.265625 0.734375 44.1875 -0.34375 
Q 39.109375 -1.421875 33.890625 -1.421875 
Q 20.796875 -1.421875 13.15625 6.1875 
Q 5.515625 13.8125 5.515625 26.8125 
Q 5.515625 40.234375 12.765625 48.109375 
Q 20.015625 56 32.328125 56 
Q 43.359375 56 49.78125 48.890625 
Q 56.203125 41.796875 56.203125 29.59375 
z
M 47.21875 32.234375 
Q 47.125 39.59375 43.09375 43.984375 
Q 39.0625 48.390625 32.421875 48.390625 
Q 24.90625 48.390625 20.390625 44.140625 
Q 15.875 39.890625 15.1875 32.171875 
z
" id="DejaVuSans-101"/>
      <path id="DejaVuSans-32"/>
      <path d="M 31 75.875 
Q 24.46875 64.65625 21.28125 53.65625 
Q 18.109375 42.671875 18.109375 31.390625 
Q 18.109375 20.125 21.3125 9.0625 
Q 24.515625 -2 31 -13.1875 
L 23.1875 -13.1875 
Q 15.875 -1.703125 12.234375 9.375 
Q 8.59375 20.453125 8.59375 31.390625 
Q 8.59375 42.28125 12.203125 53.3125 
Q 15.828125 64.359375 23.1875 75.875 
z
" id="DejaVuSans-40"/>
      <path d="M 44.28125 53.078125 
L 44.28125 44.578125 
Q 40.484375 46.53125 36.375 47.5 
Q 32.28125 48.484375 27.875 48.484375 
Q 21.1875 48.484375 17.84375 46.4375 
Q 14.5 44.390625 14.5 40.28125 
Q 14.5 37.15625 16.890625 35.375 
Q 19.28125 33.59375 26.515625 31.984375 
L 29.59375 31.296875 
Q 39.15625 29.25 43.1875 25.515625 
Q 47.21875 21.78125 47.21875 15.09375 
Q 47.21875 7.46875 41.1875 3.015625 
Q 35.15625 -1.421875 24.609375 -1.421875 
Q 20.21875 -1.421875 15.453125 -0.5625 
Q 10.6875 0.296875 5.421875 2 
L 5.421875 11.28125 
Q 10.40625 8.6875 15.234375 7.390625 
Q 20.0625 6.109375 24.8125 6.109375 
Q 31.15625 6.109375 34.5625 8.28125 
Q 37.984375 10.453125 37.984375 14.40625 
Q 37.984375 18.0625 35.515625 20.015625 
Q 33.0625 21.96875 24.703125 23.78125 
L 21.578125 24.515625 
Q 13.234375 26.265625 9.515625 29.90625 
Q 5.8125 33.546875 5.8125 39.890625 
Q 5.8125 47.609375 11.28125 51.796875 
Q 16.75 56 26.8125 56 
Q 31.78125 56 36.171875 55.265625 
Q 40.578125 54.546875 44.28125 53.078125 
z
" id="DejaVuSans-115"/>
      <path d="M 8.015625 75.875 
L 15.828125 75.875 
Q 23.140625 64.359375 26.78125 53.3125 
Q 30.421875 42.28125 30.421875 31.390625 
Q 30.421875 20.453125 26.78125 9.375 
Q 23.140625 -1.703125 15.828125 -13.1875 
L 8.015625 -13.1875 
Q 14.5 -2 17.703125 9.0625 
Q 20.90625 20.125 20.90625 31.390625 
Q 20.90625 42.671875 17.703125 53.65625 
Q 14.5 64.65625 8.015625 75.875 
z
" id="DejaVuSans-41"/>
     </defs>
     <g transform="translate(302.60475 225.7955)scale(0.144 -0.144)">
      <use xlink:href="#DejaVuSans-84"/>
      <use x="61.037109" xlink:href="#DejaVuSans-105"/>
      <use x="88.820312" xlink:href="#DejaVuSans-109"/>
      <use x="186.232422" xlink:href="#DejaVuSans-101"/>
      <use x="247.755859" xlink:href="#DejaVuSans-32"/>
      <use x="279.542969" xlink:href="#DejaVuSans-40"/>
      <use x="318.556641" xlink:href="#DejaVuSans-115"/>
      <use x="370.65625" xlink:href="#DejaVuSans-41"/>
     </g>
    </g>
   </g>
   <g id="matplotlib.axis_2">
    <g id="ytick_1">
     <g id="line2d_6">
      <defs>
       <path d="M 0 0 
L -3.5 0 
" id="m9c9945fb72" style="stroke:#000000;stroke-width:0.8;"/>
      </defs>
      <g>
       <use style="stroke:#000000;stroke-width:0.8;" x="81" xlink:href="#m9c9945fb72" y="172.562062"/>
      </g>
     </g>
     <g id="text_7">
      <!-- 0.0010 -->
      <g transform="translate(32.01125 177.121125)scale(0.12 -0.12)">
       <use xlink:href="#DejaVuSans-48"/>
       <use x="63.623047" xlink:href="#DejaVuSans-46"/>
       <use x="95.410156" xlink:href="#DejaVuSans-48"/>
       <use x="159.033203" xlink:href="#DejaVuSans-48"/>
       <use x="222.65625" xlink:href="#DejaVuSans-49"/>
       <use x="286.279297" xlink:href="#DejaVuSans-48"/>
      </g>
     </g>
    </g>
    <g id="ytick_2">
     <g id="line2d_7">
      <g>
       <use style="stroke:#000000;stroke-width:0.8;" x="81" xlink:href="#m9c9945fb72" y="134.885259"/>
      </g>
     </g>
     <g id="text_8">
      <!-- 0.0012 -->
      <g transform="translate(32.01125 139.444321)scale(0.12 -0.12)">
       <use xlink:href="#DejaVuSans-48"/>
       <use x="63.623047" xlink:href="#DejaVuSans-46"/>
       <use x="95.410156" xlink:href="#DejaVuSans-48"/>
       <use x="159.033203" xlink:href="#DejaVuSans-48"/>
       <use x="222.65625" xlink:href="#DejaVuSans-49"/>
       <use x="286.279297" xlink:href="#DejaVuSans-50"/>
      </g>
     </g>
    </g>
    <g id="ytick_3">
     <g id="line2d_8">
      <g>
       <use style="stroke:#000000;stroke-width:0.8;" x="81" xlink:href="#m9c9945fb72" y="97.208455"/>
      </g>
     </g>
     <g id="text_9">
      <!-- 0.0014 -->
      <defs>
       <path d="M 37.796875 64.3125 
L 12.890625 25.390625 
L 37.796875 25.390625 
z
M 35.203125 72.90625 
L 47.609375 72.90625 
L 47.609375 25.390625 
L 58.015625 25.390625 
L 58.015625 17.1875 
L 47.609375 17.1875 
L 47.609375 0 
L 37.796875 0 
L 37.796875 17.1875 
L 4.890625 17.1875 
L 4.890625 26.703125 
z
" id="DejaVuSans-52"/>
      </defs>
      <g transform="translate(32.01125 101.767518)scale(0.12 -0.12)">
       <use xlink:href="#DejaVuSans-48"/>
       <use x="63.623047" xlink:href="#DejaVuSans-46"/>
       <use x="95.410156" xlink:href="#DejaVuSans-48"/>
       <use x="159.033203" xlink:href="#DejaVuSans-48"/>
       <use x="222.65625" xlink:href="#DejaVuSans-49"/>
       <use x="286.279297" xlink:href="#DejaVuSans-52"/>
      </g>
     </g>
    </g>
    <g id="ytick_4">
     <g id="line2d_9">
      <g>
       <use style="stroke:#000000;stroke-width:0.8;" x="81" xlink:href="#m9c9945fb72" y="59.531651"/>
      </g>
     </g>
     <g id="text_10">
      <!-- 0.0016 -->
      <defs>
       <path d="M 33.015625 40.375 
Q 26.375 40.375 22.484375 35.828125 
Q 18.609375 31.296875 18.609375 23.390625 
Q 18.609375 15.53125 22.484375 10.953125 
Q 26.375 6.390625 33.015625 6.390625 
Q 39.65625 6.390625 43.53125 10.953125 
Q 47.40625 15.53125 47.40625 23.390625 
Q 47.40625 31.296875 43.53125 35.828125 
Q 39.65625 40.375 33.015625 40.375 
z
M 52.59375 71.296875 
L 52.59375 62.3125 
Q 48.875 64.0625 45.09375 64.984375 
Q 41.3125 65.921875 37.59375 65.921875 
Q 27.828125 65.921875 22.671875 59.328125 
Q 17.53125 52.734375 16.796875 39.40625 
Q 19.671875 43.65625 24.015625 45.921875 
Q 28.375 48.1875 33.59375 48.1875 
Q 44.578125 48.1875 50.953125 41.515625 
Q 57.328125 34.859375 57.328125 23.390625 
Q 57.328125 12.15625 50.6875 5.359375 
Q 44.046875 -1.421875 33.015625 -1.421875 
Q 20.359375 -1.421875 13.671875 8.265625 
Q 6.984375 17.96875 6.984375 36.375 
Q 6.984375 53.65625 15.1875 63.9375 
Q 23.390625 74.21875 37.203125 74.21875 
Q 40.921875 74.21875 44.703125 73.484375 
Q 48.484375 72.75 52.59375 71.296875 
z
" id="DejaVuSans-54"/>
      </defs>
      <g transform="translate(32.01125 64.090714)scale(0.12 -0.12)">
       <use xlink:href="#DejaVuSans-48"/>
       <use x="63.623047" xlink:href="#DejaVuSans-46"/>
       <use x="95.410156" xlink:href="#DejaVuSans-48"/>
       <use x="159.033203" xlink:href="#DejaVuSans-48"/>
       <use x="222.65625" xlink:href="#DejaVuSans-49"/>
       <use x="286.279297" xlink:href="#DejaVuSans-54"/>
      </g>
     </g>
    </g>
    <g id="text_11">
     <!-- Beta-bin $\rho$ -->
     <defs>
      <path d="M 19.671875 34.8125 
L 19.671875 8.109375 
L 35.5 8.109375 
Q 43.453125 8.109375 47.28125 11.40625 
Q 51.125 14.703125 51.125 21.484375 
Q 51.125 28.328125 47.28125 31.5625 
Q 43.453125 34.8125 35.5 34.8125 
z
M 19.671875 64.796875 
L 19.671875 42.828125 
L 34.28125 42.828125 
Q 41.5 42.828125 45.03125 45.53125 
Q 48.578125 48.25 48.578125 53.8125 
Q 48.578125 59.328125 45.03125 62.0625 
Q 41.5 64.796875 34.28125 64.796875 
z
M 9.8125 72.90625 
L 35.015625 72.90625 
Q 46.296875 72.90625 52.390625 68.21875 
Q 58.5 63.53125 58.5 54.890625 
Q 58.5 48.1875 55.375 44.234375 
Q 52.25 40.28125 46.1875 39.3125 
Q 53.46875 37.75 57.5 32.78125 
Q 61.53125 27.828125 61.53125 20.40625 
Q 61.53125 10.640625 54.890625 5.3125 
Q 48.25 0 35.984375 0 
L 9.8125 0 
z
" id="DejaVuSans-66"/>
      <path d="M 18.3125 70.21875 
L 18.3125 54.6875 
L 36.8125 54.6875 
L 36.8125 47.703125 
L 18.3125 47.703125 
L 18.3125 18.015625 
Q 18.3125 11.328125 20.140625 9.421875 
Q 21.96875 7.515625 27.59375 7.515625 
L 36.8125 7.515625 
L 36.8125 0 
L 27.59375 0 
Q 17.1875 0 13.234375 3.875 
Q 9.28125 7.765625 9.28125 18.015625 
L 9.28125 47.703125 
L 2.6875 47.703125 
L 2.6875 54.6875 
L 9.28125 54.6875 
L 9.28125 70.21875 
z
" id="DejaVuSans-116"/>
      <path d="M 34.28125 27.484375 
Q 23.390625 27.484375 19.1875 25 
Q 14.984375 22.515625 14.984375 16.5 
Q 14.984375 11.71875 18.140625 8.90625 
Q 21.296875 6.109375 26.703125 6.109375 
Q 34.1875 6.109375 38.703125 11.40625 
Q 43.21875 16.703125 43.21875 25.484375 
L 43.21875 27.484375 
z
M 52.203125 31.203125 
L 52.203125 0 
L 43.21875 0 
L 43.21875 8.296875 
Q 40.140625 3.328125 35.546875 0.953125 
Q 30.953125 -1.421875 24.3125 -1.421875 
Q 15.921875 -1.421875 10.953125 3.296875 
Q 6 8.015625 6 15.921875 
Q 6 25.140625 12.171875 29.828125 
Q 18.359375 34.515625 30.609375 34.515625 
L 43.21875 34.515625 
L 43.21875 35.40625 
Q 43.21875 41.609375 39.140625 45 
Q 35.0625 48.390625 27.6875 48.390625 
Q 23 48.390625 18.546875 47.265625 
Q 14.109375 46.140625 10.015625 43.890625 
L 10.015625 52.203125 
Q 14.9375 54.109375 19.578125 55.046875 
Q 24.21875 56 28.609375 56 
Q 40.484375 56 46.34375 49.84375 
Q 52.203125 43.703125 52.203125 31.203125 
z
" id="DejaVuSans-97"/>
      <path d="M 4.890625 31.390625 
L 31.203125 31.390625 
L 31.203125 23.390625 
L 4.890625 23.390625 
z
" id="DejaVuSans-45"/>
      <path d="M 48.6875 27.296875 
Q 48.6875 37.203125 44.609375 42.84375 
Q 40.53125 48.484375 33.40625 48.484375 
Q 26.265625 48.484375 22.1875 42.84375 
Q 18.109375 37.203125 18.109375 27.296875 
Q 18.109375 17.390625 22.1875 11.75 
Q 26.265625 6.109375 33.40625 6.109375 
Q 40.53125 6.109375 44.609375 11.75 
Q 48.6875 17.390625 48.6875 27.296875 
z
M 18.109375 46.390625 
Q 20.953125 51.265625 25.265625 53.625 
Q 29.59375 56 35.59375 56 
Q 45.5625 56 51.78125 48.09375 
Q 58.015625 40.1875 58.015625 27.296875 
Q 58.015625 14.40625 51.78125 6.484375 
Q 45.5625 -1.421875 35.59375 -1.421875 
Q 29.59375 -1.421875 25.265625 0.953125 
Q 20.953125 3.328125 18.109375 8.203125 
L 18.109375 0 
L 9.078125 0 
L 9.078125 75.984375 
L 18.109375 75.984375 
z
" id="DejaVuSans-98"/>
      <path d="M 54.890625 33.015625 
L 54.890625 0 
L 45.90625 0 
L 45.90625 32.71875 
Q 45.90625 40.484375 42.875 44.328125 
Q 39.84375 48.1875 33.796875 48.1875 
Q 26.515625 48.1875 22.3125 43.546875 
Q 18.109375 38.921875 18.109375 30.90625 
L 18.109375 0 
L 9.078125 0 
L 9.078125 54.6875 
L 18.109375 54.6875 
L 18.109375 46.1875 
Q 21.34375 51.125 25.703125 53.5625 
Q 30.078125 56 35.796875 56 
Q 45.21875 56 50.046875 50.171875 
Q 54.890625 44.34375 54.890625 33.015625 
z
" id="DejaVuSans-110"/>
      <path d="M 18.796875 44.921875 
Q 22.703125 49.90625 30.953125 54.296875 
Q 34.1875 56 43.0625 56 
Q 53.03125 56 57.71875 48.09375 
Q 62.40625 40.1875 59.90625 27.296875 
Q 57.375 14.40625 49.609375 6.484375 
Q 41.84375 -1.421875 31.890625 -1.421875 
Q 25.875 -1.421875 22.015625 0.984375 
Q 18.171875 3.328125 16.3125 8.203125 
L 10.640625 -20.796875 
L 1.609375 -20.796875 
L 10.890625 26.8125 
Q 13.09375 38.09375 18.796875 44.921875 
z
M 50.59375 27.296875 
Q 52.484375 37.203125 49.515625 42.875 
Q 46.53125 48.484375 39.40625 48.484375 
Q 32.28125 48.484375 27.09375 42.875 
Q 21.921875 37.203125 20.015625 27.296875 
Q 18.0625 17.390625 21.046875 11.71875 
Q 24.03125 6.109375 31.15625 6.109375 
Q 38.28125 6.109375 43.453125 11.71875 
Q 48.640625 17.390625 50.59375 27.296875 
z
" id="DejaVuSans-Oblique-961"/>
     </defs>
     <g transform="translate(24.98725 146.304)rotate(-90)scale(0.144 -0.144)">
      <use transform="translate(0 0.015625)" xlink:href="#DejaVuSans-66"/>
      <use transform="translate(68.603516 0.015625)" xlink:href="#DejaVuSans-101"/>
      <use transform="translate(130.126953 0.015625)" xlink:href="#DejaVuSans-116"/>
      <use transform="translate(169.335938 0.015625)" xlink:href="#DejaVuSans-97"/>
      <use transform="translate(230.615234 0.015625)" xlink:href="#DejaVuSans-45"/>
      <use transform="translate(266.699219 0.015625)" xlink:href="#DejaVuSans-98"/>
      <use transform="translate(330.175781 0.015625)" xlink:href="#DejaVuSans-105"/>
      <use transform="translate(357.958984 0.015625)" xlink:href="#DejaVuSans-110"/>
      <use transform="translate(421.337891 0.015625)" xlink:href="#DejaVuSans-32"/>
      <use transform="translate(453.125 0.015625)" xlink:href="#DejaVuSans-Oblique-961"/>
     </g>
    </g>
   </g>
   <g id="line2d_10">
    <path clip-path="url(#p53145a4c35)" d="M 81 98.987208 
L 82.762105 107.078774 
L 84.524211 105.344351 
L 86.286316 97.168625 
L 88.048421 114.88388 
L 89.810526 102.373247 
L 91.572632 112.605696 
L 93.334737 109.881552 
L 95.096842 106.680632 
L 96.858947 101.01281 
L 98.621053 106.880826 
L 100.383158 108.318885 
L 102.145263 102.230553 
L 103.907368 118.989375 
L 105.669474 111.500108 
L 107.431579 108.117043 
L 109.193684 120.303456 
L 110.955789 126.493672 
L 112.717895 121.881801 
L 114.48 142.103643 
L 116.242105 136.786637 
L 118.004211 149.276842 
L 119.766316 147.750727 
L 121.528421 137.707371 
L 123.290526 133.386905 
L 125.052632 130.256823 
L 126.814737 151.155591 
L 128.576842 141.105367 
L 130.338947 136.91092 
L 132.101053 141.903927 
L 133.863158 162.907657 
L 135.625263 158.252588 
L 137.387368 152.618927 
L 139.149474 146.521485 
L 140.911579 149.822423 
L 146.197895 165.865207 
L 147.96 151.556665 
L 149.722105 169.812733 
L 151.484211 166.696524 
L 153.246316 158.915981 
L 155.008421 157.421977 
L 156.770526 151.79744 
L 158.532632 162.562721 
L 160.294737 177.174117 
L 162.056842 163.037917 
L 163.818947 160.598371 
L 165.581053 170.01886 
L 167.343158 170.800211 
L 169.105263 158.667711 
L 170.867368 166.95234 
L 172.629474 167.058639 
L 174.391579 153.865574 
L 176.153684 175.532678 
L 177.915789 165.529485 
L 179.677895 171.492321 
L 181.44 168.600221 
L 183.202105 178.970403 
L 184.964211 176.305668 
L 186.726316 176.228868 
L 188.488421 182.991414 
L 190.250526 176.382199 
L 192.012632 178.119904 
L 193.774737 183.320296 
L 195.536842 173.99965 
L 197.298947 157.946921 
L 199.061053 177.333705 
L 200.823158 161.813394 
L 202.585263 158.480176 
L 204.347368 164.505829 
L 206.109474 164.954104 
L 207.871579 172.360694 
L 209.633684 161.442307 
L 211.395789 170.75336 
L 213.157895 173.565835 
L 214.92 153.914005 
L 218.444211 159.728169 
L 220.206316 142.271014 
L 221.968421 146.103248 
L 223.730526 145.265689 
L 225.492632 118.333476 
L 227.254737 104.901268 
L 229.016842 93.93905 
L 230.778947 99.50555 
L 232.541053 98.071091 
L 234.303158 115.580904 
L 236.065263 120.090799 
L 237.827368 110.343956 
L 239.589474 107.252764 
L 241.351579 106.3468 
L 243.113684 102.291433 
L 244.875789 112.575801 
L 246.637895 106.640959 
L 248.4 125.663393 
L 250.162105 96.753166 
L 251.924211 104.740688 
L 253.686316 106.370877 
L 255.448421 103.243061 
L 257.210526 132.693062 
L 258.972632 134.526331 
L 260.734737 138.79953 
L 262.496842 139.074312 
L 264.258947 142.198758 
L 266.021053 130.79535 
L 267.783158 133.069327 
L 269.545263 140.617658 
L 271.307368 141.745281 
L 273.069474 127.346658 
L 274.831579 114.145428 
L 276.593684 115.995439 
L 278.355789 129.231971 
L 280.117895 121.534205 
L 281.88 135.831961 
L 283.642105 142.086168 
L 285.404211 140.077076 
L 287.166316 141.029589 
L 288.928421 133.146032 
L 290.690526 126.083152 
L 292.452632 129.564347 
L 294.214737 144.451093 
L 295.976842 147.871843 
L 297.738947 153.520113 
L 299.501053 154.724093 
L 301.263158 168.247481 
L 303.025263 155.690105 
L 304.787368 153.196052 
L 306.549474 158.117531 
L 308.311579 155.676132 
L 310.073684 144.47438 
L 311.835789 152.108074 
L 313.597895 147.983902 
L 315.36 158.267684 
L 317.122105 157.874679 
L 318.884211 157.67452 
L 320.646316 136.570246 
L 324.170526 145.15049 
L 325.932632 152.061614 
L 327.694737 147.461524 
L 329.456842 159.106723 
L 331.218947 145.910969 
L 332.981053 152.046549 
L 334.743158 149.474891 
L 336.505263 145.853808 
L 338.267368 153.415092 
L 340.029474 156.963911 
L 341.791579 156.987956 
L 343.553684 167.295604 
L 347.077895 150.680071 
L 348.84 157.303567 
L 350.602105 146.341996 
L 352.364211 145.185563 
L 354.126316 130.412695 
L 355.888421 146.084242 
L 357.650526 155.419257 
L 359.412632 163.906799 
L 361.174737 160.488558 
L 362.936842 152.640633 
L 364.698947 155.2436 
L 366.461053 153.881636 
L 368.223158 154.027386 
L 369.985263 164.613053 
L 371.747368 152.016078 
L 373.509474 145.464024 
L 375.271579 157.955047 
L 377.033684 141.742474 
L 378.795789 162.138449 
L 380.557895 152.351378 
L 382.32 154.456124 
L 384.082105 144.094791 
L 385.844211 162.323528 
L 387.606316 146.413915 
L 389.368421 158.200763 
L 391.130526 159.96755 
L 392.892632 159.434539 
L 394.654737 142.064897 
L 396.416842 154.780414 
L 398.178947 147.060622 
L 399.941053 147.591492 
L 401.703158 144.835588 
L 403.465263 147.004462 
L 405.227368 161.98496 
L 406.989474 158.240293 
L 408.751579 150.707266 
L 410.513684 150.530672 
L 412.275789 148.620536 
L 414.037895 125.608876 
L 415.8 122.688613 
L 417.562105 111.231845 
L 419.324211 104.621874 
L 421.086316 112.444106 
L 422.848421 119.038471 
L 426.372632 113.763172 
L 428.134737 115.489066 
L 429.896842 124.071079 
L 431.658947 118.3125 
L 433.421053 114.952016 
L 435.183158 118.152736 
L 436.945263 131.068847 
L 438.707368 128.978248 
L 440.469474 143.212767 
L 442.231579 114.770286 
L 443.993684 137.376833 
L 445.755789 134.855461 
L 447.517895 148.175554 
L 449.28 137.030164 
L 451.042105 144.547786 
L 452.804211 148.961503 
L 454.566316 151.707682 
L 456.328421 159.691127 
L 459.852632 161.545524 
L 461.614737 155.530042 
L 463.376842 159.749031 
L 465.138947 163.668474 
L 466.901053 148.263459 
L 468.663158 162.12265 
L 470.425263 164.307298 
L 472.187368 146.112291 
L 473.949474 155.409694 
L 477.473684 150.825994 
L 479.235789 153.699491 
L 480.997895 153.580489 
L 482.76 143.276608 
L 484.522105 146.383214 
L 486.284211 150.371351 
L 488.046316 151.494374 
L 489.808421 156.829466 
L 491.570526 153.192382 
L 493.332632 156.556747 
L 496.856842 135.940868 
L 498.618947 129.482714 
L 500.381053 137.194228 
L 502.143158 137.32123 
L 503.905263 143.126369 
L 505.667368 138.57075 
L 507.429474 136.15261 
L 509.191579 130.392314 
L 510.953684 143.020372 
L 512.715789 148.255115 
L 514.477895 151.786602 
L 516.24 150.599759 
L 518.002105 145.439907 
L 519.764211 143.935565 
L 521.526316 139.5467 
L 523.288421 146.34578 
L 525.050526 140.343218 
L 526.812632 119.596922 
L 528.574737 140.546143 
L 530.336842 113.320655 
L 532.098947 125.075979 
L 533.861053 113.754913 
L 535.623158 105.001577 
L 537.385263 117.094746 
L 539.147368 104.686377 
L 540.909474 102.792571 
L 542.671579 105.216821 
L 544.433684 63.590759 
L 546.195789 77.50492 
L 547.957895 64.615919 
L 549.72 57.002078 
L 551.482105 66.81358 
L 553.244211 68.696624 
L 555.006316 75.179893 
L 556.768421 86.06051 
L 558.530526 73.368873 
L 560.292632 66.573433 
L 562.054737 88.318468 
L 563.816842 83.801906 
L 565.578947 82.019792 
L 567.341053 76.544877 
L 569.103158 97.050327 
L 570.865263 85.856744 
L 572.627368 79.641104 
L 574.389474 98.569977 
L 576.151579 85.982007 
L 577.913684 102.165346 
L 579.675789 121.846437 
L 581.437895 126.0909 
L 583.2 128.215282 
L 583.2 128.215282 
" style="fill:none;stroke:#0000ff;stroke-linecap:square;stroke-width:1.5;"/>
   </g>
   <g id="patch_3">
    <path d="M 81 192.24 
L 81 25.92 
" style="fill:none;stroke:#000000;stroke-linecap:square;stroke-linejoin:miter;stroke-width:0.8;"/>
   </g>
   <g id="patch_4">
    <path d="M 583.2 192.24 
L 583.2 25.92 
" style="fill:none;stroke:#000000;stroke-linecap:square;stroke-linejoin:miter;stroke-width:0.8;"/>
   </g>
   <g id="patch_5">
    <path d="M 81 192.24 
L 583.2 192.24 
" style="fill:none;stroke:#000000;stroke-linecap:square;stroke-linejoin:miter;stroke-width:0.8;"/>
   </g>
   <g id="patch_6">
    <path d="M 81 25.92 
L 583.2 25.92 
" style="fill:none;stroke:#000000;stroke-linecap:square;stroke-linejoin:miter;stroke-width:0.8;"/>
   </g>
   <g id="text_12">
    <!-- Striatum, Num Trials=160 All stimulated trials -->
    <defs>
     <path d="M 53.515625 70.515625 
L 53.515625 60.890625 
Q 47.90625 63.578125 42.921875 64.890625 
Q 37.9375 66.21875 33.296875 66.21875 
Q 25.25 66.21875 20.875 63.09375 
Q 16.5 59.96875 16.5 54.203125 
Q 16.5 49.359375 19.40625 46.890625 
Q 22.3125 44.4375 30.421875 42.921875 
L 36.375 41.703125 
Q 47.40625 39.59375 52.65625 34.296875 
Q 57.90625 29 57.90625 20.125 
Q 57.90625 9.515625 50.796875 4.046875 
Q 43.703125 -1.421875 29.984375 -1.421875 
Q 24.8125 -1.421875 18.96875 -0.25 
Q 13.140625 0.921875 6.890625 3.21875 
L 6.890625 13.375 
Q 12.890625 10.015625 18.65625 8.296875 
Q 24.421875 6.59375 29.984375 6.59375 
Q 38.421875 6.59375 43.015625 9.90625 
Q 47.609375 13.234375 47.609375 19.390625 
Q 47.609375 24.75 44.3125 27.78125 
Q 41.015625 30.8125 33.5 32.328125 
L 27.484375 33.5 
Q 16.453125 35.6875 11.515625 40.375 
Q 6.59375 45.0625 6.59375 53.421875 
Q 6.59375 63.09375 13.40625 68.65625 
Q 20.21875 74.21875 32.171875 74.21875 
Q 37.3125 74.21875 42.625 73.28125 
Q 47.953125 72.359375 53.515625 70.515625 
z
" id="DejaVuSans-83"/>
     <path d="M 41.109375 46.296875 
Q 39.59375 47.171875 37.8125 47.578125 
Q 36.03125 48 33.890625 48 
Q 26.265625 48 22.1875 43.046875 
Q 18.109375 38.09375 18.109375 28.8125 
L 18.109375 0 
L 9.078125 0 
L 9.078125 54.6875 
L 18.109375 54.6875 
L 18.109375 46.1875 
Q 20.953125 51.171875 25.484375 53.578125 
Q 30.03125 56 36.53125 56 
Q 37.453125 56 38.578125 55.875 
Q 39.703125 55.765625 41.0625 55.515625 
z
" id="DejaVuSans-114"/>
     <path d="M 8.5 21.578125 
L 8.5 54.6875 
L 17.484375 54.6875 
L 17.484375 21.921875 
Q 17.484375 14.15625 20.5 10.265625 
Q 23.53125 6.390625 29.59375 6.390625 
Q 36.859375 6.390625 41.078125 11.03125 
Q 45.3125 15.671875 45.3125 23.6875 
L 45.3125 54.6875 
L 54.296875 54.6875 
L 54.296875 0 
L 45.3125 0 
L 45.3125 8.40625 
Q 42.046875 3.421875 37.71875 1 
Q 33.40625 -1.421875 27.6875 -1.421875 
Q 18.265625 -1.421875 13.375 4.4375 
Q 8.5 10.296875 8.5 21.578125 
z
M 31.109375 56 
z
" id="DejaVuSans-117"/>
     <path d="M 11.71875 12.40625 
L 22.015625 12.40625 
L 22.015625 4 
L 14.015625 -11.625 
L 7.71875 -11.625 
L 11.71875 4 
z
" id="DejaVuSans-44"/>
     <path d="M 9.8125 72.90625 
L 23.09375 72.90625 
L 55.421875 11.921875 
L 55.421875 72.90625 
L 64.984375 72.90625 
L 64.984375 0 
L 51.703125 0 
L 19.390625 60.984375 
L 19.390625 0 
L 9.8125 0 
z
" id="DejaVuSans-78"/>
     <path d="M 9.421875 75.984375 
L 18.40625 75.984375 
L 18.40625 0 
L 9.421875 0 
z
" id="DejaVuSans-108"/>
     <path d="M 10.59375 45.40625 
L 73.1875 45.40625 
L 73.1875 37.203125 
L 10.59375 37.203125 
z
M 10.59375 25.484375 
L 73.1875 25.484375 
L 73.1875 17.1875 
L 10.59375 17.1875 
z
" id="DejaVuSans-61"/>
     <path d="M 34.1875 63.1875 
L 20.796875 26.90625 
L 47.609375 26.90625 
z
M 28.609375 72.90625 
L 39.796875 72.90625 
L 67.578125 0 
L 57.328125 0 
L 50.6875 18.703125 
L 17.828125 18.703125 
L 11.1875 0 
L 0.78125 0 
z
" id="DejaVuSans-65"/>
     <path d="M 45.40625 46.390625 
L 45.40625 75.984375 
L 54.390625 75.984375 
L 54.390625 0 
L 45.40625 0 
L 45.40625 8.203125 
Q 42.578125 3.328125 38.25 0.953125 
Q 33.9375 -1.421875 27.875 -1.421875 
Q 17.96875 -1.421875 11.734375 6.484375 
Q 5.515625 14.40625 5.515625 27.296875 
Q 5.515625 40.1875 11.734375 48.09375 
Q 17.96875 56 27.875 56 
Q 33.9375 56 38.25 53.625 
Q 42.578125 51.265625 45.40625 46.390625 
z
M 14.796875 27.296875 
Q 14.796875 17.390625 18.875 11.75 
Q 22.953125 6.109375 30.078125 6.109375 
Q 37.203125 6.109375 41.296875 11.75 
Q 45.40625 17.390625 45.40625 27.296875 
Q 45.40625 37.203125 41.296875 42.84375 
Q 37.203125 48.484375 30.078125 48.484375 
Q 22.953125 48.484375 18.875 42.84375 
Q 14.796875 37.203125 14.796875 27.296875 
z
" id="DejaVuSans-100"/>
    </defs>
    <g transform="translate(193.43625 19.92)scale(0.12 -0.12)">
     <use xlink:href="#DejaVuSans-83"/>
     <use x="63.476562" xlink:href="#DejaVuSans-116"/>
     <use x="102.685547" xlink:href="#DejaVuSans-114"/>
     <use x="143.798828" xlink:href="#DejaVuSans-105"/>
     <use x="171.582031" xlink:href="#DejaVuSans-97"/>
     <use x="232.861328" xlink:href="#DejaVuSans-116"/>
     <use x="272.070312" xlink:href="#DejaVuSans-117"/>
     <use x="335.449219" xlink:href="#DejaVuSans-109"/>
     <use x="432.861328" xlink:href="#DejaVuSans-44"/>
     <use x="464.648438" xlink:href="#DejaVuSans-32"/>
     <use x="496.435547" xlink:href="#DejaVuSans-78"/>
     <use x="571.240234" xlink:href="#DejaVuSans-117"/>
     <use x="634.619141" xlink:href="#DejaVuSans-109"/>
     <use x="732.03125" xlink:href="#DejaVuSans-32"/>
     <use x="763.818359" xlink:href="#DejaVuSans-84"/>
     <use x="824.683594" xlink:href="#DejaVuSans-114"/>
     <use x="865.796875" xlink:href="#DejaVuSans-105"/>
     <use x="893.580078" xlink:href="#DejaVuSans-97"/>
     <use x="954.859375" xlink:href="#DejaVuSans-108"/>
     <use x="982.642578" xlink:href="#DejaVuSans-115"/>
     <use x="1034.742188" xlink:href="#DejaVuSans-61"/>
     <use x="1118.53125" xlink:href="#DejaVuSans-49"/>
     <use x="1182.154297" xlink:href="#DejaVuSans-54"/>
     <use x="1245.777344" xlink:href="#DejaVuSans-48"/>
     <use x="1309.400391" xlink:href="#DejaVuSans-32"/>
     <use x="1341.1875" xlink:href="#DejaVuSans-65"/>
     <use x="1409.595703" xlink:href="#DejaVuSans-108"/>
     <use x="1437.378906" xlink:href="#DejaVuSans-108"/>
     <use x="1465.162109" xlink:href="#DejaVuSans-32"/>
     <use x="1496.949219" xlink:href="#DejaVuSans-115"/>
     <use x="1549.048828" xlink:href="#DejaVuSans-116"/>
     <use x="1588.257812" xlink:href="#DejaVuSans-105"/>
     <use x="1616.041016" xlink:href="#DejaVuSans-109"/>
     <use x="1713.453125" xlink:href="#DejaVuSans-117"/>
     <use x="1776.832031" xlink:href="#DejaVuSans-108"/>
     <use x="1804.615234" xlink:href="#DejaVuSans-97"/>
     <use x="1865.894531" xlink:href="#DejaVuSans-116"/>
     <use x="1905.103516" xlink:href="#DejaVuSans-101"/>
     <use x="1966.626953" xlink:href="#DejaVuSans-100"/>
     <use x="2030.103516" xlink:href="#DejaVuSans-32"/>
     <use x="2061.890625" xlink:href="#DejaVuSans-116"/>
     <use x="2101.099609" xlink:href="#DejaVuSans-114"/>
     <use x="2142.212891" xlink:href="#DejaVuSans-105"/>
     <use x="2169.996094" xlink:href="#DejaVuSans-97"/>
     <use x="2231.275391" xlink:href="#DejaVuSans-108"/>
     <use x="2259.058594" xlink:href="#DejaVuSans-115"/>
    </g>
   </g>
   <g id="legend_1">
    <g id="patch_7">
     <path d="M 89.4 70.77375 
L 223.56 70.77375 
Q 225.96 70.77375 225.96 68.37375 
L 225.96 34.32 
Q 225.96 31.92 223.56 31.92 
L 89.4 31.92 
Q 87 31.92 87 34.32 
L 87 68.37375 
Q 87 70.77375 89.4 70.77375 
z
" style="fill:#ffffff;opacity:0.8;stroke:#cccccc;stroke-linejoin:miter;"/>
    </g>
    <g id="line2d_11">
     <path d="M 91.8 41.64 
L 115.8 41.64 
" style="fill:none;stroke:#0000ff;stroke-linecap:square;stroke-width:1.5;"/>
    </g>
    <g id="line2d_12"/>
    <g id="text_13">
     <!-- Beta-Binomial $\rho$ -->
     <defs>
      <path d="M 30.609375 48.390625 
Q 23.390625 48.390625 19.1875 42.75 
Q 14.984375 37.109375 14.984375 27.296875 
Q 14.984375 17.484375 19.15625 11.84375 
Q 23.34375 6.203125 30.609375 6.203125 
Q 37.796875 6.203125 41.984375 11.859375 
Q 46.1875 17.53125 46.1875 27.296875 
Q 46.1875 37.015625 41.984375 42.703125 
Q 37.796875 48.390625 30.609375 48.390625 
z
M 30.609375 56 
Q 42.328125 56 49.015625 48.375 
Q 55.71875 40.765625 55.71875 27.296875 
Q 55.71875 13.875 49.015625 6.21875 
Q 42.328125 -1.421875 30.609375 -1.421875 
Q 18.84375 -1.421875 12.171875 6.21875 
Q 5.515625 13.875 5.515625 27.296875 
Q 5.515625 40.765625 12.171875 48.375 
Q 18.84375 56 30.609375 56 
z
" id="DejaVuSans-111"/>
     </defs>
     <g transform="translate(125.4 45.84)scale(0.12 -0.12)">
      <use transform="translate(0 0.015625)" xlink:href="#DejaVuSans-66"/>
      <use transform="translate(68.603516 0.015625)" xlink:href="#DejaVuSans-101"/>
      <use transform="translate(130.126953 0.015625)" xlink:href="#DejaVuSans-116"/>
      <use transform="translate(169.335938 0.015625)" xlink:href="#DejaVuSans-97"/>
      <use transform="translate(230.615234 0.015625)" xlink:href="#DejaVuSans-45"/>
      <use transform="translate(266.699219 0.015625)" xlink:href="#DejaVuSans-66"/>
      <use transform="translate(335.302734 0.015625)" xlink:href="#DejaVuSans-105"/>
      <use transform="translate(363.085938 0.015625)" xlink:href="#DejaVuSans-110"/>
      <use transform="translate(426.464844 0.015625)" xlink:href="#DejaVuSans-111"/>
      <use transform="translate(487.646484 0.015625)" xlink:href="#DejaVuSans-109"/>
      <use transform="translate(585.058594 0.015625)" xlink:href="#DejaVuSans-105"/>
      <use transform="translate(612.841797 0.015625)" xlink:href="#DejaVuSans-97"/>
      <use transform="translate(674.121094 0.015625)" xlink:href="#DejaVuSans-108"/>
      <use transform="translate(701.904297 0.015625)" xlink:href="#DejaVuSans-32"/>
      <use transform="translate(733.691406 0.015625)" xlink:href="#DejaVuSans-Oblique-961"/>
     </g>
    </g>
    <g id="patch_8">
     <path d="M 91.8 63.478125 
L 115.8 63.478125 
L 115.8 55.078125 
L 91.8 55.078125 
z
" style="fill:#0000ff;opacity:0.3;stroke:#0000ff;stroke-linejoin:miter;"/>
    </g>
    <g id="text_14">
     <!-- Std. Err. -->
     <defs>
      <path d="M 9.8125 72.90625 
L 55.90625 72.90625 
L 55.90625 64.59375 
L 19.671875 64.59375 
L 19.671875 43.015625 
L 54.390625 43.015625 
L 54.390625 34.71875 
L 19.671875 34.71875 
L 19.671875 8.296875 
L 56.78125 8.296875 
L 56.78125 0 
L 9.8125 0 
z
" id="DejaVuSans-69"/>
     </defs>
     <g transform="translate(125.4 63.478125)scale(0.12 -0.12)">
      <use xlink:href="#DejaVuSans-83"/>
      <use x="63.476562" xlink:href="#DejaVuSans-116"/>
      <use x="102.685547" xlink:href="#DejaVuSans-100"/>
      <use x="166.162109" xlink:href="#DejaVuSans-46"/>
      <use x="197.949219" xlink:href="#DejaVuSans-32"/>
      <use x="229.736328" xlink:href="#DejaVuSans-69"/>
      <use x="292.919922" xlink:href="#DejaVuSans-114"/>
      <use x="334.017578" xlink:href="#DejaVuSans-114"/>
      <use x="374.990234" xlink:href="#DejaVuSans-46"/>
     </g>
    </g>
   </g>
  </g>
 </g>
 <defs>
  <clipPath id="p53145a4c35">
   <rect height="166.32" width="502.2" x="81" y="25.92"/>
  </clipPath>
 </defs>
</svg>
