<?xml version="1.0" encoding="utf-8" standalone="no"?>
<!DOCTYPE svg PUBLIC "-//W3C//DTD SVG 1.1//EN"
  "http://www.w3.org/Graphics/SVG/1.1/DTD/svg11.dtd">
<!-- Created with matplotlib (https://matplotlib.org/) -->
<svg height="216pt" version="1.1" viewBox="0 0 648 216" width="648pt" xmlns="http://www.w3.org/2000/svg" xmlns:xlink="http://www.w3.org/1999/xlink">
 <defs>
  <style type="text/css">
*{stroke-linecap:butt;stroke-linejoin:round;}
  </style>
 </defs>
 <g id="figure_1">
  <g id="patch_1">
   <path d="M 0 216 
L 648 216 
L 648 0 
L 0 0 
z
" style="fill:#ffffff;"/>
  </g>
  <g id="axes_1">
   <g id="patch_2">
    <path d="M 81 192.24 
L 583.2 192.24 
L 583.2 25.92 
L 81 25.92 
z
" style="fill:#ffffff;"/>
   </g>
   <g id="PolyCollection_1">
    <defs>
     <path d="M 156.33 -23.76 
L 156.33 -190.08 
L 420.645789 -190.08 
L 420.645789 -23.76 
L 420.645789 -23.76 
L 156.33 -23.76 
z
" id="m032381ee74" style="stroke:#808080;stroke-opacity:0.3;"/>
    </defs>
    <g clip-path="url(#p54b5ce6798)">
     <use style="fill:#808080;fill-opacity:0.3;stroke:#808080;stroke-opacity:0.3;" x="0" xlink:href="#m032381ee74" y="216"/>
    </g>
   </g>
   <g id="PolyCollection_2">
    <defs>
     <path d="M 81 -86.411016 
L 81 -46.666107 
L 82.762105 -54.162667 
L 84.524211 -60.68672 
L 86.286316 -62.950468 
L 88.048421 -68.81855 
L 89.810526 -74.622093 
L 91.572632 -78.902367 
L 93.334737 -83.591806 
L 95.096842 -78.530137 
L 96.858947 -72.326026 
L 98.621053 -70.233405 
L 100.383158 -64.617347 
L 102.145263 -66.142749 
L 103.907368 -63.693076 
L 105.669474 -64.417784 
L 107.431579 -63.546405 
L 109.193684 -63.917121 
L 110.955789 -66.045912 
L 112.717895 -65.28046 
L 114.48 -67.19442 
L 116.242105 -67.211846 
L 118.004211 -65.080595 
L 119.766316 -62.407081 
L 121.528421 -63.786955 
L 123.290526 -58.686925 
L 125.052632 -55.822505 
L 126.814737 -49.649013 
L 128.576842 -47.286306 
L 130.338947 -42.147105 
L 132.101053 -41.394225 
L 133.863158 -39.689839 
L 135.625263 -39.960001 
L 137.387368 -36.915143 
L 139.149474 -37.134325 
L 140.911579 -38.516857 
L 142.673684 -34.905314 
L 144.435789 -30.592571 
L 146.197895 -27.479517 
L 147.96 -25.825904 
L 149.722105 -29.062362 
L 151.484211 -32.714011 
L 153.246316 -34.968242 
L 155.008421 -34.766899 
L 156.770526 -36.649788 
L 158.532632 -39.161484 
L 160.294737 -41.811323 
L 162.056842 -47.626085 
L 163.818947 -50.780126 
L 165.581053 -51.964695 
L 167.343158 -53.526512 
L 169.105263 -52.17723 
L 170.867368 -55.033289 
L 172.629474 -55.563089 
L 174.391579 -50.821192 
L 176.153684 -53.962423 
L 177.915789 -58.243513 
L 179.677895 -58.630761 
L 181.44 -59.769459 
L 183.202105 -58.767946 
L 184.964211 -55.341391 
L 186.726316 -50.911387 
L 188.488421 -50.616655 
L 190.250526 -48.438163 
L 192.012632 -52.202113 
L 193.774737 -53.402957 
L 195.536842 -53.053177 
L 197.298947 -53.68855 
L 199.061053 -47.873726 
L 200.823158 -48.834843 
L 202.585263 -50.102644 
L 204.347368 -59.443949 
L 206.109474 -65.028536 
L 207.871579 -67.058899 
L 209.633684 -72.047161 
L 211.395789 -74.22617 
L 213.157895 -75.246178 
L 214.92 -75.072196 
L 216.682105 -70.154296 
L 218.444211 -69.225067 
L 220.206316 -68.922238 
L 221.968421 -68.503704 
L 223.730526 -67.617727 
L 225.492632 -66.607886 
L 227.254737 -70.068527 
L 229.016842 -74.054506 
L 230.778947 -69.730126 
L 232.541053 -69.605508 
L 234.303158 -72.463544 
L 236.065263 -69.909533 
L 237.827368 -71.33029 
L 239.589474 -68.658309 
L 241.351579 -69.619409 
L 243.113684 -67.197691 
L 244.875789 -69.079296 
L 246.637895 -67.276054 
L 248.4 -59.230598 
L 250.162105 -57.293011 
L 251.924211 -58.596924 
L 253.686316 -55.4495 
L 255.448421 -59.012697 
L 257.210526 -63.306786 
L 258.972632 -64.688465 
L 260.734737 -65.372422 
L 262.496842 -61.98534 
L 264.258947 -63.174524 
L 266.021053 -67.848532 
L 267.783158 -62.317285 
L 269.545263 -60.252484 
L 271.307368 -59.282745 
L 273.069474 -53.973853 
L 274.831579 -52.954808 
L 276.593684 -45.199645 
L 278.355789 -46.347699 
L 280.117895 -40.899045 
L 281.88 -39.672114 
L 283.642105 -44.115193 
L 285.404211 -45.077488 
L 287.166316 -42.227257 
L 288.928421 -39.782007 
L 290.690526 -35.266782 
L 292.452632 -32.470899 
L 294.214737 -30.468462 
L 295.976842 -28.395749 
L 297.738947 -31.074123 
L 299.501053 -27.832436 
L 301.263158 -27.375304 
L 303.025263 -28.816231 
L 304.787368 -30.201348 
L 306.549474 -32.178466 
L 308.311579 -32.809568 
L 310.073684 -31.55001 
L 311.835789 -34.578613 
L 313.597895 -37.060842 
L 315.36 -40.013716 
L 317.122105 -48.617398 
L 318.884211 -50.153652 
L 320.646316 -46.414921 
L 322.408421 -47.260091 
L 324.170526 -42.961403 
L 325.932632 -42.759026 
L 327.694737 -40.426052 
L 329.456842 -38.429435 
L 331.218947 -41.040046 
L 332.981053 -40.747128 
L 334.743158 -41.51067 
L 336.505263 -44.456131 
L 338.267368 -42.142099 
L 340.029474 -41.590751 
L 341.791579 -40.385322 
L 343.553684 -42.065136 
L 345.315789 -40.151188 
L 347.077895 -36.047078 
L 348.84 -33.809927 
L 350.602105 -34.681994 
L 352.364211 -35.049907 
L 354.126316 -32.40954 
L 355.888421 -37.127938 
L 357.650526 -37.905143 
L 359.412632 -37.741026 
L 361.174737 -38.664049 
L 362.936842 -39.084147 
L 364.698947 -41.738777 
L 366.461053 -37.891365 
L 368.223158 -34.650629 
L 369.985263 -35.415248 
L 371.747368 -29.332898 
L 373.509474 -32.164163 
L 375.271579 -35.013983 
L 377.033684 -37.061713 
L 378.795789 -34.922312 
L 380.557895 -34.405541 
L 382.32 -33.288512 
L 384.082105 -35.182793 
L 385.844211 -35.335089 
L 387.606316 -30.867335 
L 389.368421 -32.9251 
L 391.130526 -28.285402 
L 392.892632 -27.878447 
L 394.654737 -24.63456 
L 396.416842 -24.861622 
L 398.178947 -24.768807 
L 399.941053 -23.76 
L 401.703158 -28.577683 
L 403.465263 -30.02038 
L 405.227368 -30.125565 
L 406.989474 -33.955855 
L 408.751579 -34.891559 
L 410.513684 -35.590864 
L 412.275789 -33.747563 
L 414.037895 -35.630066 
L 415.8 -37.086034 
L 417.562105 -35.538087 
L 419.324211 -39.649044 
L 421.086316 -41.115219 
L 422.848421 -39.305368 
L 424.610526 -43.343955 
L 426.372632 -53.383075 
L 428.134737 -51.647328 
L 429.896842 -57.992164 
L 431.658947 -64.682724 
L 433.421053 -64.849289 
L 435.183158 -68.970527 
L 436.945263 -65.31001 
L 438.707368 -64.72481 
L 440.469474 -65.740828 
L 442.231579 -63.954001 
L 443.993684 -63.189412 
L 445.755789 -54.894482 
L 447.517895 -55.642374 
L 449.28 -53.545803 
L 451.042105 -56.8327 
L 452.804211 -55.410266 
L 454.566316 -49.580545 
L 456.328421 -47.648226 
L 458.090526 -49.242813 
L 459.852632 -49.283949 
L 461.614737 -44.847321 
L 463.376842 -39.122265 
L 465.138947 -38.533899 
L 466.901053 -36.158886 
L 468.663158 -31.494026 
L 470.425263 -30.302099 
L 472.187368 -27.439369 
L 473.949474 -27.568021 
L 475.711579 -26.832176 
L 477.473684 -29.215773 
L 479.235789 -32.855299 
L 480.997895 -30.617877 
L 482.76 -29.169474 
L 484.522105 -32.573619 
L 486.284211 -26.514735 
L 488.046316 -36.799737 
L 489.808421 -40.758004 
L 491.570526 -43.596819 
L 493.332632 -46.071371 
L 495.094737 -47.801649 
L 496.856842 -45.989151 
L 498.618947 -47.439468 
L 500.381053 -46.114819 
L 502.143158 -46.584122 
L 503.905263 -50.756343 
L 505.667368 -49.89883 
L 507.429474 -50.117051 
L 509.191579 -50.705299 
L 510.953684 -48.745655 
L 512.715789 -48.185652 
L 514.477895 -48.564239 
L 516.24 -48.804379 
L 518.002105 -55.028958 
L 519.764211 -53.584747 
L 521.526316 -60.872276 
L 523.288421 -60.103099 
L 525.050526 -61.304151 
L 526.812632 -55.909089 
L 528.574737 -56.207068 
L 530.336842 -50.608125 
L 532.098947 -50.799138 
L 533.861053 -48.55055 
L 535.623158 -53.492761 
L 537.385263 -57.168238 
L 539.147368 -55.500149 
L 540.909474 -54.33647 
L 542.671579 -52.796376 
L 544.433684 -54.19199 
L 546.195789 -53.360751 
L 547.957895 -52.406281 
L 549.72 -53.717204 
L 551.482105 -59.309527 
L 553.244211 -61.717974 
L 555.006316 -62.720326 
L 556.768421 -64.877465 
L 558.530526 -67.494606 
L 560.292632 -75.661002 
L 562.054737 -76.569417 
L 563.816842 -74.821652 
L 565.578947 -72.18653 
L 567.341053 -77.018232 
L 569.103158 -78.66853 
L 570.865263 -78.378602 
L 572.627368 -77.37534 
L 574.389474 -75.309746 
L 576.151579 -76.050634 
L 577.913684 -73.089142 
L 579.675789 -71.288632 
L 581.437895 -73.174363 
L 583.2 -72.550006 
L 583.2 -127.748274 
L 583.2 -127.748274 
L 581.437895 -129.839385 
L 579.675789 -130.388973 
L 577.913684 -135.594319 
L 576.151579 -138.373666 
L 574.389474 -139.670856 
L 572.627368 -136.962593 
L 570.865263 -133.096532 
L 569.103158 -136.507668 
L 567.341053 -137.926808 
L 565.578947 -129.894967 
L 563.816842 -132.83049 
L 562.054737 -135.20292 
L 560.292632 -134.104582 
L 558.530526 -124.403252 
L 556.768421 -121.071259 
L 555.006316 -119.692447 
L 553.244211 -113.142802 
L 551.482105 -109.861215 
L 549.72 -95.919444 
L 547.957895 -94.438695 
L 546.195789 -95.435094 
L 544.433684 -94.926459 
L 542.671579 -94.294998 
L 540.909474 -95.953008 
L 539.147368 -99.51155 
L 537.385263 -97.70121 
L 535.623158 -85.038159 
L 533.861053 -81.46818 
L 532.098947 -78.068883 
L 530.336842 -77.584205 
L 528.574737 -81.173144 
L 526.812632 -84.105305 
L 525.050526 -90.654235 
L 523.288421 -85.720718 
L 521.526316 -87.512057 
L 519.764211 -75.506812 
L 518.002105 -77.496943 
L 516.24 -72.379555 
L 514.477895 -73.054069 
L 512.715789 -72.543588 
L 510.953684 -72.511945 
L 509.191579 -77.781694 
L 507.429474 -76.434314 
L 505.667368 -77.739738 
L 503.905263 -81.383449 
L 502.143158 -79.626857 
L 500.381053 -80.850598 
L 498.618947 -81.647011 
L 496.856842 -81.207423 
L 495.094737 -82.570168 
L 493.332632 -74.393689 
L 491.570526 -71.396662 
L 489.808421 -72.429399 
L 488.046316 -66.234511 
L 486.284211 -56.612011 
L 484.522105 -62.166894 
L 482.76 -64.293322 
L 480.997895 -67.30042 
L 479.235789 -68.23062 
L 477.473684 -67.882041 
L 475.711579 -63.23438 
L 473.949474 -55.507921 
L 472.187368 -54.971042 
L 470.425263 -61.954105 
L 468.663158 -65.685075 
L 466.901053 -87.593185 
L 465.138947 -119.114522 
L 463.376842 -139.807903 
L 461.614737 -147.279155 
L 459.852632 -151.410602 
L 458.090526 -152.223957 
L 456.328421 -151.456163 
L 454.566316 -149.627992 
L 452.804211 -159.938664 
L 451.042105 -164.147841 
L 449.28 -166.67776 
L 447.517895 -172.186531 
L 445.755789 -174.288346 
L 443.993684 -181.22442 
L 442.231579 -180.06102 
L 440.469474 -183.522234 
L 438.707368 -184.083557 
L 436.945263 -190.08 
L 435.183158 -189.282282 
L 433.421053 -183.885412 
L 431.658947 -166.0166 
L 429.896842 -128.959936 
L 428.134737 -98.179836 
L 426.372632 -88.838747 
L 424.610526 -70.978915 
L 422.848421 -67.363898 
L 421.086316 -71.653052 
L 419.324211 -68.620543 
L 417.562105 -61.082171 
L 415.8 -60.888147 
L 414.037895 -56.184144 
L 412.275789 -52.109892 
L 410.513684 -54.262316 
L 408.751579 -50.323227 
L 406.989474 -49.81102 
L 405.227368 -45.454265 
L 403.465263 -47.881187 
L 401.703158 -46.158802 
L 399.941053 -40.869053 
L 398.178947 -44.021084 
L 396.416842 -43.664089 
L 394.654737 -44.554141 
L 392.892632 -48.288167 
L 391.130526 -49.567901 
L 389.368421 -56.214285 
L 387.606316 -53.260248 
L 385.844211 -58.267418 
L 384.082105 -58.399393 
L 382.32 -56.879652 
L 380.557895 -56.50436 
L 378.795789 -56.475306 
L 377.033684 -57.742306 
L 375.271579 -51.460739 
L 373.509474 -48.262357 
L 371.747368 -42.738923 
L 369.985263 -54.14073 
L 368.223158 -55.253356 
L 366.461053 -59.470629 
L 364.698947 -63.215857 
L 362.936842 -61.465791 
L 361.174737 -62.729233 
L 359.412632 -63.370294 
L 357.650526 -60.584698 
L 355.888421 -57.432222 
L 354.126316 -52.901774 
L 352.364211 -54.577196 
L 350.602105 -54.2999 
L 348.84 -54.026339 
L 347.077895 -59.158291 
L 345.315789 -62.174346 
L 343.553684 -64.068148 
L 341.791579 -61.632848 
L 340.029474 -62.810122 
L 338.267368 -62.426426 
L 336.505263 -65.401078 
L 334.743158 -58.797949 
L 332.981053 -57.925607 
L 331.218947 -57.195775 
L 329.456842 -53.135836 
L 327.694737 -55.973209 
L 325.932632 -58.446282 
L 324.170526 -57.537731 
L 322.408421 -61.819819 
L 320.646316 -63.853799 
L 318.884211 -69.394397 
L 317.122105 -73.834093 
L 315.36 -67.991692 
L 313.597895 -66.720222 
L 311.835789 -64.383703 
L 310.073684 -59.705358 
L 308.311579 -63.495705 
L 306.549474 -62.503623 
L 304.787368 -58.635754 
L 303.025263 -57.186016 
L 301.263158 -56.228998 
L 299.501053 -55.863314 
L 297.738947 -58.331983 
L 295.976842 -53.798746 
L 294.214737 -56.295843 
L 292.452632 -56.577039 
L 290.690526 -60.266272 
L 288.928421 -65.505392 
L 287.166316 -62.427635 
L 285.404211 -62.203964 
L 283.642105 -60.16883 
L 281.88 -56.447725 
L 280.117895 -63.735525 
L 278.355789 -68.671184 
L 276.593684 -67.728659 
L 274.831579 -75.943696 
L 273.069474 -77.411501 
L 271.307368 -86.210847 
L 269.545263 -96.133461 
L 267.783158 -99.215093 
L 266.021053 -112.377134 
L 264.258947 -108.737087 
L 262.496842 -110.947429 
L 260.734737 -114.843084 
L 258.972632 -115.91569 
L 257.210526 -113.177175 
L 255.448421 -106.218204 
L 253.686316 -99.940688 
L 251.924211 -100.890598 
L 250.162105 -99.514606 
L 248.4 -100.274706 
L 246.637895 -107.912407 
L 244.875789 -111.077785 
L 243.113684 -115.601192 
L 241.351579 -117.83819 
L 239.589474 -114.044047 
L 237.827368 -116.554061 
L 236.065263 -115.863917 
L 234.303158 -114.452994 
L 232.541053 -113.267041 
L 230.778947 -106.532838 
L 229.016842 -116.141422 
L 227.254737 -114.213829 
L 225.492632 -109.429 
L 223.730526 -110.001701 
L 221.968421 -113.073345 
L 220.206316 -121.774109 
L 218.444211 -131.659999 
L 216.682105 -134.810321 
L 214.92 -146.408763 
L 213.157895 -156.240606 
L 211.395789 -156.597623 
L 209.633684 -154.836791 
L 207.871579 -152.430548 
L 206.109474 -156.058693 
L 204.347368 -157.289387 
L 202.585263 -145.834123 
L 200.823158 -140.995298 
L 199.061053 -133.591555 
L 197.298947 -127.558275 
L 195.536842 -114.395313 
L 193.774737 -92.908578 
L 192.012632 -76.353465 
L 190.250526 -69.829629 
L 188.488421 -74.806863 
L 186.726316 -78.41133 
L 184.964211 -89.344419 
L 183.202105 -101.072663 
L 181.44 -101.64861 
L 179.677895 -98.987178 
L 177.915789 -96.775807 
L 176.153684 -91.876635 
L 174.391579 -89.157639 
L 172.629474 -93.994814 
L 170.867368 -91.936156 
L 169.105263 -85.990442 
L 167.343158 -87.493798 
L 165.581053 -84.80333 
L 163.818947 -82.248734 
L 162.056842 -73.062511 
L 160.294737 -66.369358 
L 158.532632 -65.302893 
L 156.770526 -62.472561 
L 155.008421 -61.251333 
L 153.246316 -58.908606 
L 151.484211 -54.553252 
L 149.722105 -47.825668 
L 147.96 -43.085916 
L 146.197895 -46.685425 
L 144.435789 -52.836458 
L 142.673684 -60.254332 
L 140.911579 -70.034692 
L 139.149474 -68.264844 
L 137.387368 -65.136049 
L 135.625263 -68.60679 
L 133.863158 -68.546726 
L 132.101053 -68.833853 
L 130.338947 -69.732098 
L 128.576842 -70.930682 
L 126.814737 -75.589072 
L 125.052632 -81.133495 
L 123.290526 -87.698275 
L 121.528421 -99.80044 
L 119.766316 -98.106679 
L 118.004211 -96.446703 
L 116.242105 -104.346678 
L 114.48 -101.394617 
L 112.717895 -99.983463 
L 110.955789 -101.270488 
L 109.193684 -96.116543 
L 107.431579 -93.731148 
L 105.669474 -93.311923 
L 103.907368 -91.702193 
L 102.145263 -95.516639 
L 100.383158 -91.636508 
L 98.621053 -96.75023 
L 96.858947 -101.48819 
L 95.096842 -114.26187 
L 93.334737 -121.802104 
L 91.572632 -122.465335 
L 89.810526 -119.272358 
L 88.048421 -114.427407 
L 86.286316 -105.803682 
L 84.524211 -105.072541 
L 82.762105 -100.749965 
L 81 -86.411016 
z
" id="m8943b990a5" style="stroke:#0000ff;stroke-opacity:0.3;"/>
    </defs>
    <g clip-path="url(#p54b5ce6798)">
     <use style="fill:#0000ff;fill-opacity:0.3;stroke:#0000ff;stroke-opacity:0.3;" x="0" xlink:href="#m8943b990a5" y="216"/>
    </g>
   </g>
   <g id="matplotlib.axis_1">
    <g id="xtick_1">
     <g id="line2d_1">
      <defs>
       <path d="M 0 0 
L 0 3.5 
" id="me3b6763628" style="stroke:#000000;stroke-width:0.8;"/>
      </defs>
      <g>
       <use style="stroke:#000000;stroke-width:0.8;" x="156.33" xlink:href="#me3b6763628" y="192.24"/>
      </g>
     </g>
     <g id="text_1">
      <!-- 0.0 -->
      <defs>
       <path d="M 31.78125 66.40625 
Q 24.171875 66.40625 20.328125 58.90625 
Q 16.5 51.421875 16.5 36.375 
Q 16.5 21.390625 20.328125 13.890625 
Q 24.171875 6.390625 31.78125 6.390625 
Q 39.453125 6.390625 43.28125 13.890625 
Q 47.125 21.390625 47.125 36.375 
Q 47.125 51.421875 43.28125 58.90625 
Q 39.453125 66.40625 31.78125 66.40625 
z
M 31.78125 74.21875 
Q 44.046875 74.21875 50.515625 64.515625 
Q 56.984375 54.828125 56.984375 36.375 
Q 56.984375 17.96875 50.515625 8.265625 
Q 44.046875 -1.421875 31.78125 -1.421875 
Q 19.53125 -1.421875 13.0625 8.265625 
Q 6.59375 17.96875 6.59375 36.375 
Q 6.59375 54.828125 13.0625 64.515625 
Q 19.53125 74.21875 31.78125 74.21875 
z
" id="DejaVuSans-48"/>
       <path d="M 10.6875 12.40625 
L 21 12.40625 
L 21 0 
L 10.6875 0 
z
" id="DejaVuSans-46"/>
      </defs>
      <g transform="translate(146.788125 208.358125)scale(0.12 -0.12)">
       <use xlink:href="#DejaVuSans-48"/>
       <use x="63.623047" xlink:href="#DejaVuSans-46"/>
       <use x="95.410156" xlink:href="#DejaVuSans-48"/>
      </g>
     </g>
    </g>
    <g id="xtick_2">
     <g id="line2d_2">
      <g>
       <use style="stroke:#000000;stroke-width:0.8;" x="244.435263" xlink:href="#me3b6763628" y="192.24"/>
      </g>
     </g>
     <g id="text_2">
      <!-- 0.5 -->
      <defs>
       <path d="M 10.796875 72.90625 
L 49.515625 72.90625 
L 49.515625 64.59375 
L 19.828125 64.59375 
L 19.828125 46.734375 
Q 21.96875 47.46875 24.109375 47.828125 
Q 26.265625 48.1875 28.421875 48.1875 
Q 40.625 48.1875 47.75 41.5 
Q 54.890625 34.8125 54.890625 23.390625 
Q 54.890625 11.625 47.5625 5.09375 
Q 40.234375 -1.421875 26.90625 -1.421875 
Q 22.3125 -1.421875 17.546875 -0.640625 
Q 12.796875 0.140625 7.71875 1.703125 
L 7.71875 11.625 
Q 12.109375 9.234375 16.796875 8.0625 
Q 21.484375 6.890625 26.703125 6.890625 
Q 35.15625 6.890625 40.078125 11.328125 
Q 45.015625 15.765625 45.015625 23.390625 
Q 45.015625 31 40.078125 35.4375 
Q 35.15625 39.890625 26.703125 39.890625 
Q 22.75 39.890625 18.8125 39.015625 
Q 14.890625 38.140625 10.796875 36.28125 
z
" id="DejaVuSans-53"/>
      </defs>
      <g transform="translate(234.893388 208.358125)scale(0.12 -0.12)">
       <use xlink:href="#DejaVuSans-48"/>
       <use x="63.623047" xlink:href="#DejaVuSans-46"/>
       <use x="95.410156" xlink:href="#DejaVuSans-53"/>
      </g>
     </g>
    </g>
    <g id="xtick_3">
     <g id="line2d_3">
      <g>
       <use style="stroke:#000000;stroke-width:0.8;" x="332.540526" xlink:href="#me3b6763628" y="192.24"/>
      </g>
     </g>
     <g id="text_3">
      <!-- 1.0 -->
      <defs>
       <path d="M 12.40625 8.296875 
L 28.515625 8.296875 
L 28.515625 63.921875 
L 10.984375 60.40625 
L 10.984375 69.390625 
L 28.421875 72.90625 
L 38.28125 72.90625 
L 38.28125 8.296875 
L 54.390625 8.296875 
L 54.390625 0 
L 12.40625 0 
z
" id="DejaVuSans-49"/>
      </defs>
      <g transform="translate(322.998651 208.358125)scale(0.12 -0.12)">
       <use xlink:href="#DejaVuSans-49"/>
       <use x="63.623047" xlink:href="#DejaVuSans-46"/>
       <use x="95.410156" xlink:href="#DejaVuSans-48"/>
      </g>
     </g>
    </g>
    <g id="xtick_4">
     <g id="line2d_4">
      <g>
       <use style="stroke:#000000;stroke-width:0.8;" x="420.645789" xlink:href="#me3b6763628" y="192.24"/>
      </g>
     </g>
     <g id="text_4">
      <!-- 1.5 -->
      <g transform="translate(411.103914 208.358125)scale(0.12 -0.12)">
       <use xlink:href="#DejaVuSans-49"/>
       <use x="63.623047" xlink:href="#DejaVuSans-46"/>
       <use x="95.410156" xlink:href="#DejaVuSans-53"/>
      </g>
     </g>
    </g>
    <g id="xtick_5">
     <g id="line2d_5">
      <g>
       <use style="stroke:#000000;stroke-width:0.8;" x="508.751053" xlink:href="#me3b6763628" y="192.24"/>
      </g>
     </g>
     <g id="text_5">
      <!-- 2.0 -->
      <defs>
       <path d="M 19.1875 8.296875 
L 53.609375 8.296875 
L 53.609375 0 
L 7.328125 0 
L 7.328125 8.296875 
Q 12.9375 14.109375 22.625 23.890625 
Q 32.328125 33.6875 34.8125 36.53125 
Q 39.546875 41.84375 41.421875 45.53125 
Q 43.3125 49.21875 43.3125 52.78125 
Q 43.3125 58.59375 39.234375 62.25 
Q 35.15625 65.921875 28.609375 65.921875 
Q 23.96875 65.921875 18.8125 64.3125 
Q 13.671875 62.703125 7.8125 59.421875 
L 7.8125 69.390625 
Q 13.765625 71.78125 18.9375 73 
Q 24.125 74.21875 28.421875 74.21875 
Q 39.75 74.21875 46.484375 68.546875 
Q 53.21875 62.890625 53.21875 53.421875 
Q 53.21875 48.921875 51.53125 44.890625 
Q 49.859375 40.875 45.40625 35.40625 
Q 44.1875 33.984375 37.640625 27.21875 
Q 31.109375 20.453125 19.1875 8.296875 
z
" id="DejaVuSans-50"/>
      </defs>
      <g transform="translate(499.209178 208.358125)scale(0.12 -0.12)">
       <use xlink:href="#DejaVuSans-50"/>
       <use x="63.623047" xlink:href="#DejaVuSans-46"/>
       <use x="95.410156" xlink:href="#DejaVuSans-48"/>
      </g>
     </g>
    </g>
    <g id="text_6">
     <!-- Time (s) -->
     <defs>
      <path d="M -0.296875 72.90625 
L 61.375 72.90625 
L 61.375 64.59375 
L 35.5 64.59375 
L 35.5 0 
L 25.59375 0 
L 25.59375 64.59375 
L -0.296875 64.59375 
z
" id="DejaVuSans-84"/>
      <path d="M 9.421875 54.6875 
L 18.40625 54.6875 
L 18.40625 0 
L 9.421875 0 
z
M 9.421875 75.984375 
L 18.40625 75.984375 
L 18.40625 64.59375 
L 9.421875 64.59375 
z
" id="DejaVuSans-105"/>
      <path d="M 52 44.1875 
Q 55.375 50.25 60.0625 53.125 
Q 64.75 56 71.09375 56 
Q 79.640625 56 84.28125 50.015625 
Q 88.921875 44.046875 88.921875 33.015625 
L 88.921875 0 
L 79.890625 0 
L 79.890625 32.71875 
Q 79.890625 40.578125 77.09375 44.375 
Q 74.3125 48.1875 68.609375 48.1875 
Q 61.625 48.1875 57.5625 43.546875 
Q 53.515625 38.921875 53.515625 30.90625 
L 53.515625 0 
L 44.484375 0 
L 44.484375 32.71875 
Q 44.484375 40.625 41.703125 44.40625 
Q 38.921875 48.1875 33.109375 48.1875 
Q 26.21875 48.1875 22.15625 43.53125 
Q 18.109375 38.875 18.109375 30.90625 
L 18.109375 0 
L 9.078125 0 
L 9.078125 54.6875 
L 18.109375 54.6875 
L 18.109375 46.1875 
Q 21.1875 51.21875 25.484375 53.609375 
Q 29.78125 56 35.6875 56 
Q 41.65625 56 45.828125 52.96875 
Q 50 49.953125 52 44.1875 
z
" id="DejaVuSans-109"/>
      <path d="M 56.203125 29.59375 
L 56.203125 25.203125 
L 14.890625 25.203125 
Q 15.484375 15.921875 20.484375 11.0625 
Q 25.484375 6.203125 34.421875 6.203125 
Q 39.59375 6.203125 44.453125 7.46875 
Q 49.3125 8.734375 54.109375 11.28125 
L 54.109375 2.78125 
Q 49.265625 0.734375 44.1875 -0.34375 
Q 39.109375 -1.421875 33.890625 -1.421875 
Q 20.796875 -1.421875 13.15625 6.1875 
Q 5.515625 13.8125 5.515625 26.8125 
Q 5.515625 40.234375 12.765625 48.109375 
Q 20.015625 56 32.328125 56 
Q 43.359375 56 49.78125 48.890625 
Q 56.203125 41.796875 56.203125 29.59375 
z
M 47.21875 32.234375 
Q 47.125 39.59375 43.09375 43.984375 
Q 39.0625 48.390625 32.421875 48.390625 
Q 24.90625 48.390625 20.390625 44.140625 
Q 15.875 39.890625 15.1875 32.171875 
z
" id="DejaVuSans-101"/>
      <path id="DejaVuSans-32"/>
      <path d="M 31 75.875 
Q 24.46875 64.65625 21.28125 53.65625 
Q 18.109375 42.671875 18.109375 31.390625 
Q 18.109375 20.125 21.3125 9.0625 
Q 24.515625 -2 31 -13.1875 
L 23.1875 -13.1875 
Q 15.875 -1.703125 12.234375 9.375 
Q 8.59375 20.453125 8.59375 31.390625 
Q 8.59375 42.28125 12.203125 53.3125 
Q 15.828125 64.359375 23.1875 75.875 
z
" id="DejaVuSans-40"/>
      <path d="M 44.28125 53.078125 
L 44.28125 44.578125 
Q 40.484375 46.53125 36.375 47.5 
Q 32.28125 48.484375 27.875 48.484375 
Q 21.1875 48.484375 17.84375 46.4375 
Q 14.5 44.390625 14.5 40.28125 
Q 14.5 37.15625 16.890625 35.375 
Q 19.28125 33.59375 26.515625 31.984375 
L 29.59375 31.296875 
Q 39.15625 29.25 43.1875 25.515625 
Q 47.21875 21.78125 47.21875 15.09375 
Q 47.21875 7.46875 41.1875 3.015625 
Q 35.15625 -1.421875 24.609375 -1.421875 
Q 20.21875 -1.421875 15.453125 -0.5625 
Q 10.6875 0.296875 5.421875 2 
L 5.421875 11.28125 
Q 10.40625 8.6875 15.234375 7.390625 
Q 20.0625 6.109375 24.8125 6.109375 
Q 31.15625 6.109375 34.5625 8.28125 
Q 37.984375 10.453125 37.984375 14.40625 
Q 37.984375 18.0625 35.515625 20.015625 
Q 33.0625 21.96875 24.703125 23.78125 
L 21.578125 24.515625 
Q 13.234375 26.265625 9.515625 29.90625 
Q 5.8125 33.546875 5.8125 39.890625 
Q 5.8125 47.609375 11.28125 51.796875 
Q 16.75 56 26.8125 56 
Q 31.78125 56 36.171875 55.265625 
Q 40.578125 54.546875 44.28125 53.078125 
z
" id="DejaVuSans-115"/>
      <path d="M 8.015625 75.875 
L 15.828125 75.875 
Q 23.140625 64.359375 26.78125 53.3125 
Q 30.421875 42.28125 30.421875 31.390625 
Q 30.421875 20.453125 26.78125 9.375 
Q 23.140625 -1.703125 15.828125 -13.1875 
L 8.015625 -13.1875 
Q 14.5 -2 17.703125 9.0625 
Q 20.90625 20.125 20.90625 31.390625 
Q 20.90625 42.671875 17.703125 53.65625 
Q 14.5 64.65625 8.015625 75.875 
z
" id="DejaVuSans-41"/>
     </defs>
     <g transform="translate(302.60475 225.7955)scale(0.144 -0.144)">
      <use xlink:href="#DejaVuSans-84"/>
      <use x="61.037109" xlink:href="#DejaVuSans-105"/>
      <use x="88.820312" xlink:href="#DejaVuSans-109"/>
      <use x="186.232422" xlink:href="#DejaVuSans-101"/>
      <use x="247.755859" xlink:href="#DejaVuSans-32"/>
      <use x="279.542969" xlink:href="#DejaVuSans-40"/>
      <use x="318.556641" xlink:href="#DejaVuSans-115"/>
      <use x="370.65625" xlink:href="#DejaVuSans-41"/>
     </g>
    </g>
   </g>
   <g id="matplotlib.axis_2">
    <g id="ytick_1">
     <g id="line2d_6">
      <defs>
       <path d="M 0 0 
L -3.5 0 
" id="m8fe2efa1a9" style="stroke:#000000;stroke-width:0.8;"/>
      </defs>
      <g>
       <use style="stroke:#000000;stroke-width:0.8;" x="81" xlink:href="#m8fe2efa1a9" y="190.093113"/>
      </g>
     </g>
     <g id="text_7">
      <!-- 4 -->
      <defs>
       <path d="M 37.796875 64.3125 
L 12.890625 25.390625 
L 37.796875 25.390625 
z
M 35.203125 72.90625 
L 47.609375 72.90625 
L 47.609375 25.390625 
L 58.015625 25.390625 
L 58.015625 17.1875 
L 47.609375 17.1875 
L 47.609375 0 
L 37.796875 0 
L 37.796875 17.1875 
L 4.890625 17.1875 
L 4.890625 26.703125 
z
" id="DejaVuSans-52"/>
      </defs>
      <g transform="translate(66.365 194.652176)scale(0.12 -0.12)">
       <use xlink:href="#DejaVuSans-52"/>
      </g>
     </g>
    </g>
    <g id="ytick_2">
     <g id="line2d_7">
      <g>
       <use style="stroke:#000000;stroke-width:0.8;" x="81" xlink:href="#m8fe2efa1a9" y="149.450007"/>
      </g>
     </g>
     <g id="text_8">
      <!-- 6 -->
      <defs>
       <path d="M 33.015625 40.375 
Q 26.375 40.375 22.484375 35.828125 
Q 18.609375 31.296875 18.609375 23.390625 
Q 18.609375 15.53125 22.484375 10.953125 
Q 26.375 6.390625 33.015625 6.390625 
Q 39.65625 6.390625 43.53125 10.953125 
Q 47.40625 15.53125 47.40625 23.390625 
Q 47.40625 31.296875 43.53125 35.828125 
Q 39.65625 40.375 33.015625 40.375 
z
M 52.59375 71.296875 
L 52.59375 62.3125 
Q 48.875 64.0625 45.09375 64.984375 
Q 41.3125 65.921875 37.59375 65.921875 
Q 27.828125 65.921875 22.671875 59.328125 
Q 17.53125 52.734375 16.796875 39.40625 
Q 19.671875 43.65625 24.015625 45.921875 
Q 28.375 48.1875 33.59375 48.1875 
Q 44.578125 48.1875 50.953125 41.515625 
Q 57.328125 34.859375 57.328125 23.390625 
Q 57.328125 12.15625 50.6875 5.359375 
Q 44.046875 -1.421875 33.015625 -1.421875 
Q 20.359375 -1.421875 13.671875 8.265625 
Q 6.984375 17.96875 6.984375 36.375 
Q 6.984375 53.65625 15.1875 63.9375 
Q 23.390625 74.21875 37.203125 74.21875 
Q 40.921875 74.21875 44.703125 73.484375 
Q 48.484375 72.75 52.59375 71.296875 
z
" id="DejaVuSans-54"/>
      </defs>
      <g transform="translate(66.365 154.00907)scale(0.12 -0.12)">
       <use xlink:href="#DejaVuSans-54"/>
      </g>
     </g>
    </g>
    <g id="ytick_3">
     <g id="line2d_8">
      <g>
       <use style="stroke:#000000;stroke-width:0.8;" x="81" xlink:href="#m8fe2efa1a9" y="108.806902"/>
      </g>
     </g>
     <g id="text_9">
      <!-- 8 -->
      <defs>
       <path d="M 31.78125 34.625 
Q 24.75 34.625 20.71875 30.859375 
Q 16.703125 27.09375 16.703125 20.515625 
Q 16.703125 13.921875 20.71875 10.15625 
Q 24.75 6.390625 31.78125 6.390625 
Q 38.8125 6.390625 42.859375 10.171875 
Q 46.921875 13.96875 46.921875 20.515625 
Q 46.921875 27.09375 42.890625 30.859375 
Q 38.875 34.625 31.78125 34.625 
z
M 21.921875 38.8125 
Q 15.578125 40.375 12.03125 44.71875 
Q 8.5 49.078125 8.5 55.328125 
Q 8.5 64.0625 14.71875 69.140625 
Q 20.953125 74.21875 31.78125 74.21875 
Q 42.671875 74.21875 48.875 69.140625 
Q 55.078125 64.0625 55.078125 55.328125 
Q 55.078125 49.078125 51.53125 44.71875 
Q 48 40.375 41.703125 38.8125 
Q 48.828125 37.15625 52.796875 32.3125 
Q 56.78125 27.484375 56.78125 20.515625 
Q 56.78125 9.90625 50.3125 4.234375 
Q 43.84375 -1.421875 31.78125 -1.421875 
Q 19.734375 -1.421875 13.25 4.234375 
Q 6.78125 9.90625 6.78125 20.515625 
Q 6.78125 27.484375 10.78125 32.3125 
Q 14.796875 37.15625 21.921875 38.8125 
z
M 18.3125 54.390625 
Q 18.3125 48.734375 21.84375 45.5625 
Q 25.390625 42.390625 31.78125 42.390625 
Q 38.140625 42.390625 41.71875 45.5625 
Q 45.3125 48.734375 45.3125 54.390625 
Q 45.3125 60.0625 41.71875 63.234375 
Q 38.140625 66.40625 31.78125 66.40625 
Q 25.390625 66.40625 21.84375 63.234375 
Q 18.3125 60.0625 18.3125 54.390625 
z
" id="DejaVuSans-56"/>
      </defs>
      <g transform="translate(66.365 113.365964)scale(0.12 -0.12)">
       <use xlink:href="#DejaVuSans-56"/>
      </g>
     </g>
    </g>
    <g id="ytick_4">
     <g id="line2d_9">
      <g>
       <use style="stroke:#000000;stroke-width:0.8;" x="81" xlink:href="#m8fe2efa1a9" y="68.163796"/>
      </g>
     </g>
     <g id="text_10">
      <!-- 10 -->
      <g transform="translate(58.73 72.722858)scale(0.12 -0.12)">
       <use xlink:href="#DejaVuSans-49"/>
       <use x="63.623047" xlink:href="#DejaVuSans-48"/>
      </g>
     </g>
    </g>
    <g id="ytick_5">
     <g id="line2d_10">
      <g>
       <use style="stroke:#000000;stroke-width:0.8;" x="81" xlink:href="#m8fe2efa1a9" y="27.52069"/>
      </g>
     </g>
     <g id="text_11">
      <!-- 12 -->
      <g transform="translate(58.73 32.079752)scale(0.12 -0.12)">
       <use xlink:href="#DejaVuSans-49"/>
       <use x="63.623047" xlink:href="#DejaVuSans-50"/>
      </g>
     </g>
    </g>
    <g id="text_12">
     <!-- Act. Cells Moving Var. -->
     <defs>
      <path d="M 34.1875 63.1875 
L 20.796875 26.90625 
L 47.609375 26.90625 
z
M 28.609375 72.90625 
L 39.796875 72.90625 
L 67.578125 0 
L 57.328125 0 
L 50.6875 18.703125 
L 17.828125 18.703125 
L 11.1875 0 
L 0.78125 0 
z
" id="DejaVuSans-65"/>
      <path d="M 48.78125 52.59375 
L 48.78125 44.1875 
Q 44.96875 46.296875 41.140625 47.34375 
Q 37.3125 48.390625 33.40625 48.390625 
Q 24.65625 48.390625 19.8125 42.84375 
Q 14.984375 37.3125 14.984375 27.296875 
Q 14.984375 17.28125 19.8125 11.734375 
Q 24.65625 6.203125 33.40625 6.203125 
Q 37.3125 6.203125 41.140625 7.25 
Q 44.96875 8.296875 48.78125 10.40625 
L 48.78125 2.09375 
Q 45.015625 0.34375 40.984375 -0.53125 
Q 36.96875 -1.421875 32.421875 -1.421875 
Q 20.0625 -1.421875 12.78125 6.34375 
Q 5.515625 14.109375 5.515625 27.296875 
Q 5.515625 40.671875 12.859375 48.328125 
Q 20.21875 56 33.015625 56 
Q 37.15625 56 41.109375 55.140625 
Q 45.0625 54.296875 48.78125 52.59375 
z
" id="DejaVuSans-99"/>
      <path d="M 18.3125 70.21875 
L 18.3125 54.6875 
L 36.8125 54.6875 
L 36.8125 47.703125 
L 18.3125 47.703125 
L 18.3125 18.015625 
Q 18.3125 11.328125 20.140625 9.421875 
Q 21.96875 7.515625 27.59375 7.515625 
L 36.8125 7.515625 
L 36.8125 0 
L 27.59375 0 
Q 17.1875 0 13.234375 3.875 
Q 9.28125 7.765625 9.28125 18.015625 
L 9.28125 47.703125 
L 2.6875 47.703125 
L 2.6875 54.6875 
L 9.28125 54.6875 
L 9.28125 70.21875 
z
" id="DejaVuSans-116"/>
      <path d="M 64.40625 67.28125 
L 64.40625 56.890625 
Q 59.421875 61.53125 53.78125 63.8125 
Q 48.140625 66.109375 41.796875 66.109375 
Q 29.296875 66.109375 22.65625 58.46875 
Q 16.015625 50.828125 16.015625 36.375 
Q 16.015625 21.96875 22.65625 14.328125 
Q 29.296875 6.6875 41.796875 6.6875 
Q 48.140625 6.6875 53.78125 8.984375 
Q 59.421875 11.28125 64.40625 15.921875 
L 64.40625 5.609375 
Q 59.234375 2.09375 53.4375 0.328125 
Q 47.65625 -1.421875 41.21875 -1.421875 
Q 24.65625 -1.421875 15.125 8.703125 
Q 5.609375 18.84375 5.609375 36.375 
Q 5.609375 53.953125 15.125 64.078125 
Q 24.65625 74.21875 41.21875 74.21875 
Q 47.75 74.21875 53.53125 72.484375 
Q 59.328125 70.75 64.40625 67.28125 
z
" id="DejaVuSans-67"/>
      <path d="M 9.421875 75.984375 
L 18.40625 75.984375 
L 18.40625 0 
L 9.421875 0 
z
" id="DejaVuSans-108"/>
      <path d="M 9.8125 72.90625 
L 24.515625 72.90625 
L 43.109375 23.296875 
L 61.8125 72.90625 
L 76.515625 72.90625 
L 76.515625 0 
L 66.890625 0 
L 66.890625 64.015625 
L 48.09375 14.015625 
L 38.1875 14.015625 
L 19.390625 64.015625 
L 19.390625 0 
L 9.8125 0 
z
" id="DejaVuSans-77"/>
      <path d="M 30.609375 48.390625 
Q 23.390625 48.390625 19.1875 42.75 
Q 14.984375 37.109375 14.984375 27.296875 
Q 14.984375 17.484375 19.15625 11.84375 
Q 23.34375 6.203125 30.609375 6.203125 
Q 37.796875 6.203125 41.984375 11.859375 
Q 46.1875 17.53125 46.1875 27.296875 
Q 46.1875 37.015625 41.984375 42.703125 
Q 37.796875 48.390625 30.609375 48.390625 
z
M 30.609375 56 
Q 42.328125 56 49.015625 48.375 
Q 55.71875 40.765625 55.71875 27.296875 
Q 55.71875 13.875 49.015625 6.21875 
Q 42.328125 -1.421875 30.609375 -1.421875 
Q 18.84375 -1.421875 12.171875 6.21875 
Q 5.515625 13.875 5.515625 27.296875 
Q 5.515625 40.765625 12.171875 48.375 
Q 18.84375 56 30.609375 56 
z
" id="DejaVuSans-111"/>
      <path d="M 2.984375 54.6875 
L 12.5 54.6875 
L 29.59375 8.796875 
L 46.6875 54.6875 
L 56.203125 54.6875 
L 35.6875 0 
L 23.484375 0 
z
" id="DejaVuSans-118"/>
      <path d="M 54.890625 33.015625 
L 54.890625 0 
L 45.90625 0 
L 45.90625 32.71875 
Q 45.90625 40.484375 42.875 44.328125 
Q 39.84375 48.1875 33.796875 48.1875 
Q 26.515625 48.1875 22.3125 43.546875 
Q 18.109375 38.921875 18.109375 30.90625 
L 18.109375 0 
L 9.078125 0 
L 9.078125 54.6875 
L 18.109375 54.6875 
L 18.109375 46.1875 
Q 21.34375 51.125 25.703125 53.5625 
Q 30.078125 56 35.796875 56 
Q 45.21875 56 50.046875 50.171875 
Q 54.890625 44.34375 54.890625 33.015625 
z
" id="DejaVuSans-110"/>
      <path d="M 45.40625 27.984375 
Q 45.40625 37.75 41.375 43.109375 
Q 37.359375 48.484375 30.078125 48.484375 
Q 22.859375 48.484375 18.828125 43.109375 
Q 14.796875 37.75 14.796875 27.984375 
Q 14.796875 18.265625 18.828125 12.890625 
Q 22.859375 7.515625 30.078125 7.515625 
Q 37.359375 7.515625 41.375 12.890625 
Q 45.40625 18.265625 45.40625 27.984375 
z
M 54.390625 6.78125 
Q 54.390625 -7.171875 48.1875 -13.984375 
Q 42 -20.796875 29.203125 -20.796875 
Q 24.46875 -20.796875 20.265625 -20.09375 
Q 16.0625 -19.390625 12.109375 -17.921875 
L 12.109375 -9.1875 
Q 16.0625 -11.328125 19.921875 -12.34375 
Q 23.78125 -13.375 27.78125 -13.375 
Q 36.625 -13.375 41.015625 -8.765625 
Q 45.40625 -4.15625 45.40625 5.171875 
L 45.40625 9.625 
Q 42.625 4.78125 38.28125 2.390625 
Q 33.9375 0 27.875 0 
Q 17.828125 0 11.671875 7.65625 
Q 5.515625 15.328125 5.515625 27.984375 
Q 5.515625 40.671875 11.671875 48.328125 
Q 17.828125 56 27.875 56 
Q 33.9375 56 38.28125 53.609375 
Q 42.625 51.21875 45.40625 46.390625 
L 45.40625 54.6875 
L 54.390625 54.6875 
z
" id="DejaVuSans-103"/>
      <path d="M 28.609375 0 
L 0.78125 72.90625 
L 11.078125 72.90625 
L 34.1875 11.53125 
L 57.328125 72.90625 
L 67.578125 72.90625 
L 39.796875 0 
z
" id="DejaVuSans-86"/>
      <path d="M 34.28125 27.484375 
Q 23.390625 27.484375 19.1875 25 
Q 14.984375 22.515625 14.984375 16.5 
Q 14.984375 11.71875 18.140625 8.90625 
Q 21.296875 6.109375 26.703125 6.109375 
Q 34.1875 6.109375 38.703125 11.40625 
Q 43.21875 16.703125 43.21875 25.484375 
L 43.21875 27.484375 
z
M 52.203125 31.203125 
L 52.203125 0 
L 43.21875 0 
L 43.21875 8.296875 
Q 40.140625 3.328125 35.546875 0.953125 
Q 30.953125 -1.421875 24.3125 -1.421875 
Q 15.921875 -1.421875 10.953125 3.296875 
Q 6 8.015625 6 15.921875 
Q 6 25.140625 12.171875 29.828125 
Q 18.359375 34.515625 30.609375 34.515625 
L 43.21875 34.515625 
L 43.21875 35.40625 
Q 43.21875 41.609375 39.140625 45 
Q 35.0625 48.390625 27.6875 48.390625 
Q 23 48.390625 18.546875 47.265625 
Q 14.109375 46.140625 10.015625 43.890625 
L 10.015625 52.203125 
Q 14.9375 54.109375 19.578125 55.046875 
Q 24.21875 56 28.609375 56 
Q 40.484375 56 46.34375 49.84375 
Q 52.203125 43.703125 52.203125 31.203125 
z
" id="DejaVuSans-97"/>
      <path d="M 41.109375 46.296875 
Q 39.59375 47.171875 37.8125 47.578125 
Q 36.03125 48 33.890625 48 
Q 26.265625 48 22.1875 43.046875 
Q 18.109375 38.09375 18.109375 28.8125 
L 18.109375 0 
L 9.078125 0 
L 9.078125 54.6875 
L 18.109375 54.6875 
L 18.109375 46.1875 
Q 20.953125 51.171875 25.484375 53.578125 
Q 30.03125 56 36.53125 56 
Q 37.453125 56 38.578125 55.875 
Q 39.703125 55.765625 41.0625 55.515625 
z
" id="DejaVuSans-114"/>
     </defs>
     <g transform="translate(51.73525 187.72875)rotate(-90)scale(0.144 -0.144)">
      <use xlink:href="#DejaVuSans-65"/>
      <use x="68.392578" xlink:href="#DejaVuSans-99"/>
      <use x="123.373047" xlink:href="#DejaVuSans-116"/>
      <use x="162.582031" xlink:href="#DejaVuSans-46"/>
      <use x="194.369141" xlink:href="#DejaVuSans-32"/>
      <use x="226.15625" xlink:href="#DejaVuSans-67"/>
      <use x="295.980469" xlink:href="#DejaVuSans-101"/>
      <use x="357.503906" xlink:href="#DejaVuSans-108"/>
      <use x="385.287109" xlink:href="#DejaVuSans-108"/>
      <use x="413.070312" xlink:href="#DejaVuSans-115"/>
      <use x="465.169922" xlink:href="#DejaVuSans-32"/>
      <use x="496.957031" xlink:href="#DejaVuSans-77"/>
      <use x="583.236328" xlink:href="#DejaVuSans-111"/>
      <use x="644.417969" xlink:href="#DejaVuSans-118"/>
      <use x="703.597656" xlink:href="#DejaVuSans-105"/>
      <use x="731.380859" xlink:href="#DejaVuSans-110"/>
      <use x="794.759766" xlink:href="#DejaVuSans-103"/>
      <use x="858.236328" xlink:href="#DejaVuSans-32"/>
      <use x="890.023438" xlink:href="#DejaVuSans-86"/>
      <use x="958.322266" xlink:href="#DejaVuSans-97"/>
      <use x="1019.601562" xlink:href="#DejaVuSans-114"/>
      <use x="1060.574219" xlink:href="#DejaVuSans-46"/>
     </g>
    </g>
   </g>
   <g id="line2d_11">
    <path clip-path="url(#p54b5ce6798)" d="M 81 149.461438 
L 82.762105 138.543684 
L 84.524211 133.12037 
L 86.286316 131.622925 
L 88.048421 124.377021 
L 89.810526 119.052775 
L 91.572632 115.316149 
L 93.334737 113.303045 
L 95.096842 119.603997 
L 96.858947 129.092892 
L 98.621053 132.508183 
L 100.383158 137.873073 
L 102.145263 135.170306 
L 103.907368 138.302366 
L 105.669474 137.135146 
L 107.431579 137.361224 
L 109.193684 135.983168 
L 110.955789 132.3418 
L 112.717895 133.368038 
L 114.48 131.705481 
L 116.242105 130.220738 
L 118.004211 135.236351 
L 119.766316 135.74312 
L 121.528421 134.206303 
L 123.290526 142.8074 
L 125.052632 147.522 
L 126.814737 153.380958 
L 128.576842 156.891506 
L 130.338947 160.060398 
L 132.101053 160.885961 
L 133.863158 161.881717 
L 135.625263 161.716605 
L 137.387368 164.974404 
L 140.911579 161.724225 
L 142.673684 168.420177 
L 144.435789 174.285485 
L 146.197895 178.917529 
L 147.96 181.54409 
L 149.722105 177.555985 
L 151.484211 172.366369 
L 153.246316 169.061576 
L 155.008421 167.990884 
L 156.770526 166.438826 
L 158.532632 163.767812 
L 160.294737 161.90966 
L 163.818947 149.48557 
L 165.581053 147.615987 
L 167.343158 145.489845 
L 169.105263 146.916164 
L 170.867368 142.515277 
L 172.629474 141.221049 
L 174.391579 146.010585 
L 176.153684 143.080471 
L 177.915789 138.49034 
L 179.677895 137.191031 
L 181.44 135.290965 
L 183.202105 136.079696 
L 186.726316 151.338642 
L 188.488421 153.288241 
L 190.250526 156.866104 
L 192.012632 151.722211 
L 193.774737 142.844233 
L 195.536842 132.275755 
L 197.298947 125.376588 
L 199.061053 125.267359 
L 200.823158 121.08493 
L 202.585263 118.031616 
L 204.347368 107.633332 
L 206.109474 105.456386 
L 207.871579 106.255277 
L 209.633684 102.558024 
L 211.395789 100.588104 
L 213.157895 100.256608 
L 214.92 105.25952 
L 216.682105 113.517692 
L 218.444211 115.557467 
L 220.206316 120.651827 
L 221.968421 125.211475 
L 223.730526 127.190286 
L 225.492632 127.981557 
L 227.254737 123.858822 
L 229.016842 120.902036 
L 230.778947 127.868518 
L 232.541053 124.563726 
L 234.303158 122.541731 
L 236.065263 123.113275 
L 237.827368 122.057824 
L 239.589474 124.648822 
L 241.351579 122.2712 
L 243.113684 124.600558 
L 244.875789 125.921459 
L 246.637895 128.405769 
L 248.4 136.247348 
L 250.162105 137.596192 
L 251.924211 136.256239 
L 253.686316 138.304906 
L 255.448421 133.38455 
L 257.210526 127.75802 
L 258.972632 125.697922 
L 260.734737 125.892247 
L 262.496842 129.533615 
L 264.258947 130.044194 
L 266.021053 125.887167 
L 267.783158 135.233811 
L 269.545263 137.807028 
L 271.307368 143.253204 
L 273.069474 150.307323 
L 274.831579 151.550748 
L 276.593684 159.535848 
L 278.355789 158.490558 
L 280.117895 163.682715 
L 281.88 167.94008 
L 283.642105 163.857988 
L 285.404211 162.359274 
L 287.166316 163.672554 
L 288.928421 163.3563 
L 290.690526 168.233473 
L 292.452632 171.476031 
L 294.214737 172.617848 
L 295.976842 174.902752 
L 297.738947 171.296947 
L 299.501053 174.152125 
L 301.263158 174.197849 
L 303.025263 172.998877 
L 304.787368 171.581449 
L 306.549474 168.658955 
L 308.311579 167.847363 
L 310.073684 170.372316 
L 311.835789 166.518842 
L 313.597895 164.109468 
L 315.36 161.997296 
L 317.122105 154.774254 
L 318.884211 156.225975 
L 320.646316 160.86564 
L 322.408421 161.460045 
L 324.170526 165.750433 
L 325.932632 165.397346 
L 329.456842 170.217364 
L 331.218947 166.88209 
L 332.981053 166.663633 
L 334.743158 165.84569 
L 336.505263 161.071395 
L 338.267368 163.715738 
L 340.029474 163.799564 
L 341.791579 164.990915 
L 343.553684 162.933358 
L 345.315789 164.837233 
L 348.84 172.081867 
L 350.602105 171.509053 
L 352.364211 171.186448 
L 354.126316 173.344343 
L 355.888421 168.71992 
L 357.650526 166.75508 
L 359.412632 165.44434 
L 361.174737 165.303359 
L 362.936842 165.725031 
L 364.698947 163.522683 
L 368.223158 171.048008 
L 369.985263 171.222011 
L 371.747368 179.964089 
L 373.509474 175.78674 
L 375.271579 172.762639 
L 377.033684 168.597991 
L 378.795789 170.301191 
L 380.557895 170.545049 
L 382.32 170.915918 
L 384.082105 169.208907 
L 385.844211 169.198747 
L 387.606316 173.936209 
L 389.368421 171.430307 
L 391.130526 177.073348 
L 392.892632 177.916693 
L 394.654737 181.405649 
L 396.416842 181.737145 
L 398.178947 181.605055 
L 399.941053 183.685474 
L 401.703158 178.631757 
L 403.465263 177.049216 
L 405.227368 178.210085 
L 406.989474 174.116562 
L 408.751579 173.392607 
L 410.513684 171.07341 
L 412.275789 173.071272 
L 415.8 167.01291 
L 417.562105 167.689871 
L 419.324211 161.865206 
L 421.086316 159.615864 
L 422.848421 162.665367 
L 424.610526 158.838565 
L 426.372632 144.889089 
L 428.134737 141.086418 
L 429.896842 122.52395 
L 431.658947 100.650338 
L 433.421053 91.632649 
L 435.183158 86.873595 
L 436.945263 88.304995 
L 438.707368 91.595816 
L 440.469474 91.368469 
L 442.231579 93.992489 
L 443.993684 93.793084 
L 445.755789 101.408586 
L 447.517895 102.085548 
L 449.28 105.888219 
L 451.042105 105.50973 
L 452.804211 108.325535 
L 454.566316 116.395731 
L 456.328421 116.447805 
L 458.090526 115.266615 
L 459.852632 115.652725 
L 461.614737 119.936762 
L 463.376842 126.534916 
L 465.138947 137.175789 
L 466.901053 154.123965 
L 468.663158 167.41045 
L 470.425263 169.871898 
L 472.187368 174.794794 
L 473.949474 174.462029 
L 477.473684 167.451093 
L 479.235789 165.457041 
L 480.997895 167.040852 
L 482.76 169.268602 
L 484.522105 168.629743 
L 486.284211 174.436627 
L 488.046316 164.482876 
L 489.808421 159.406298 
L 491.570526 158.503259 
L 493.332632 155.76747 
L 495.094737 150.814092 
L 496.856842 152.401713 
L 498.618947 151.456761 
L 500.381053 152.517292 
L 502.143158 152.894511 
L 503.905263 149.930104 
L 505.667368 152.180716 
L 507.429474 152.724318 
L 509.191579 151.756504 
L 510.953684 155.3712 
L 512.715789 155.63538 
L 514.477895 155.190846 
L 516.24 155.408033 
L 518.002105 149.737049 
L 519.764211 151.454221 
L 521.526316 141.807833 
L 523.288421 143.088091 
L 525.050526 140.020807 
L 526.812632 145.992803 
L 528.574737 147.309894 
L 530.336842 151.903835 
L 532.098947 151.565989 
L 533.861053 150.990635 
L 535.623158 146.73454 
L 537.385263 138.565276 
L 539.147368 138.49415 
L 540.909474 140.855261 
L 542.671579 142.454313 
L 544.433684 141.440775 
L 546.195789 141.602078 
L 547.957895 142.577512 
L 549.72 141.181676 
L 551.482105 131.414629 
L 553.244211 128.569612 
L 555.006316 124.793613 
L 556.768421 123.025638 
L 558.530526 120.051071 
L 560.292632 111.117208 
L 562.054737 110.113831 
L 563.816842 112.173929 
L 565.578947 114.959252 
L 567.341053 108.52748 
L 569.103158 108.411901 
L 570.865263 110.262433 
L 572.627368 108.831033 
L 574.389474 108.509699 
L 576.151579 108.78785 
L 577.913684 111.658269 
L 579.675789 115.161197 
L 581.437895 114.493126 
L 583.2 115.85086 
L 583.2 115.85086 
" style="fill:none;stroke:#0000ff;stroke-linecap:square;stroke-width:1.5;"/>
   </g>
   <g id="patch_3">
    <path d="M 81 192.24 
L 81 25.92 
" style="fill:none;stroke:#000000;stroke-linecap:square;stroke-linejoin:miter;stroke-width:0.8;"/>
   </g>
   <g id="patch_4">
    <path d="M 583.2 192.24 
L 583.2 25.92 
" style="fill:none;stroke:#000000;stroke-linecap:square;stroke-linejoin:miter;stroke-width:0.8;"/>
   </g>
   <g id="patch_5">
    <path d="M 81 192.24 
L 583.2 192.24 
" style="fill:none;stroke:#000000;stroke-linecap:square;stroke-linejoin:miter;stroke-width:0.8;"/>
   </g>
   <g id="patch_6">
    <path d="M 81 25.92 
L 583.2 25.92 
" style="fill:none;stroke:#000000;stroke-linecap:square;stroke-linejoin:miter;stroke-width:0.8;"/>
   </g>
   <g id="text_13">
    <!-- Motor cortex, Num Trials=10 All unstimulated trials -->
    <defs>
     <path d="M 54.890625 54.6875 
L 35.109375 28.078125 
L 55.90625 0 
L 45.3125 0 
L 29.390625 21.484375 
L 13.484375 0 
L 2.875 0 
L 24.125 28.609375 
L 4.6875 54.6875 
L 15.28125 54.6875 
L 29.78125 35.203125 
L 44.28125 54.6875 
z
" id="DejaVuSans-120"/>
     <path d="M 11.71875 12.40625 
L 22.015625 12.40625 
L 22.015625 4 
L 14.015625 -11.625 
L 7.71875 -11.625 
L 11.71875 4 
z
" id="DejaVuSans-44"/>
     <path d="M 9.8125 72.90625 
L 23.09375 72.90625 
L 55.421875 11.921875 
L 55.421875 72.90625 
L 64.984375 72.90625 
L 64.984375 0 
L 51.703125 0 
L 19.390625 60.984375 
L 19.390625 0 
L 9.8125 0 
z
" id="DejaVuSans-78"/>
     <path d="M 8.5 21.578125 
L 8.5 54.6875 
L 17.484375 54.6875 
L 17.484375 21.921875 
Q 17.484375 14.15625 20.5 10.265625 
Q 23.53125 6.390625 29.59375 6.390625 
Q 36.859375 6.390625 41.078125 11.03125 
Q 45.3125 15.671875 45.3125 23.6875 
L 45.3125 54.6875 
L 54.296875 54.6875 
L 54.296875 0 
L 45.3125 0 
L 45.3125 8.40625 
Q 42.046875 3.421875 37.71875 1 
Q 33.40625 -1.421875 27.6875 -1.421875 
Q 18.265625 -1.421875 13.375 4.4375 
Q 8.5 10.296875 8.5 21.578125 
z
M 31.109375 56 
z
" id="DejaVuSans-117"/>
     <path d="M 10.59375 45.40625 
L 73.1875 45.40625 
L 73.1875 37.203125 
L 10.59375 37.203125 
z
M 10.59375 25.484375 
L 73.1875 25.484375 
L 73.1875 17.1875 
L 10.59375 17.1875 
z
" id="DejaVuSans-61"/>
     <path d="M 45.40625 46.390625 
L 45.40625 75.984375 
L 54.390625 75.984375 
L 54.390625 0 
L 45.40625 0 
L 45.40625 8.203125 
Q 42.578125 3.328125 38.25 0.953125 
Q 33.9375 -1.421875 27.875 -1.421875 
Q 17.96875 -1.421875 11.734375 6.484375 
Q 5.515625 14.40625 5.515625 27.296875 
Q 5.515625 40.1875 11.734375 48.09375 
Q 17.96875 56 27.875 56 
Q 33.9375 56 38.25 53.625 
Q 42.578125 51.265625 45.40625 46.390625 
z
M 14.796875 27.296875 
Q 14.796875 17.390625 18.875 11.75 
Q 22.953125 6.109375 30.078125 6.109375 
Q 37.203125 6.109375 41.296875 11.75 
Q 45.40625 17.390625 45.40625 27.296875 
Q 45.40625 37.203125 41.296875 42.84375 
Q 37.203125 48.484375 30.078125 48.484375 
Q 22.953125 48.484375 18.875 42.84375 
Q 14.796875 37.203125 14.796875 27.296875 
z
" id="DejaVuSans-100"/>
    </defs>
    <g transform="translate(177.343125 19.92)scale(0.12 -0.12)">
     <use xlink:href="#DejaVuSans-77"/>
     <use x="86.279297" xlink:href="#DejaVuSans-111"/>
     <use x="147.460938" xlink:href="#DejaVuSans-116"/>
     <use x="186.669922" xlink:href="#DejaVuSans-111"/>
     <use x="247.851562" xlink:href="#DejaVuSans-114"/>
     <use x="288.964844" xlink:href="#DejaVuSans-32"/>
     <use x="320.751953" xlink:href="#DejaVuSans-99"/>
     <use x="375.732422" xlink:href="#DejaVuSans-111"/>
     <use x="436.914062" xlink:href="#DejaVuSans-114"/>
     <use x="478.027344" xlink:href="#DejaVuSans-116"/>
     <use x="517.236328" xlink:href="#DejaVuSans-101"/>
     <use x="578.744141" xlink:href="#DejaVuSans-120"/>
     <use x="637.923828" xlink:href="#DejaVuSans-44"/>
     <use x="669.710938" xlink:href="#DejaVuSans-32"/>
     <use x="701.498047" xlink:href="#DejaVuSans-78"/>
     <use x="776.302734" xlink:href="#DejaVuSans-117"/>
     <use x="839.681641" xlink:href="#DejaVuSans-109"/>
     <use x="937.09375" xlink:href="#DejaVuSans-32"/>
     <use x="968.880859" xlink:href="#DejaVuSans-84"/>
     <use x="1029.746094" xlink:href="#DejaVuSans-114"/>
     <use x="1070.859375" xlink:href="#DejaVuSans-105"/>
     <use x="1098.642578" xlink:href="#DejaVuSans-97"/>
     <use x="1159.921875" xlink:href="#DejaVuSans-108"/>
     <use x="1187.705078" xlink:href="#DejaVuSans-115"/>
     <use x="1239.804688" xlink:href="#DejaVuSans-61"/>
     <use x="1323.59375" xlink:href="#DejaVuSans-49"/>
     <use x="1387.216797" xlink:href="#DejaVuSans-48"/>
     <use x="1450.839844" xlink:href="#DejaVuSans-32"/>
     <use x="1482.626953" xlink:href="#DejaVuSans-65"/>
     <use x="1551.035156" xlink:href="#DejaVuSans-108"/>
     <use x="1578.818359" xlink:href="#DejaVuSans-108"/>
     <use x="1606.601562" xlink:href="#DejaVuSans-32"/>
     <use x="1638.388672" xlink:href="#DejaVuSans-117"/>
     <use x="1701.767578" xlink:href="#DejaVuSans-110"/>
     <use x="1765.146484" xlink:href="#DejaVuSans-115"/>
     <use x="1817.246094" xlink:href="#DejaVuSans-116"/>
     <use x="1856.455078" xlink:href="#DejaVuSans-105"/>
     <use x="1884.238281" xlink:href="#DejaVuSans-109"/>
     <use x="1981.650391" xlink:href="#DejaVuSans-117"/>
     <use x="2045.029297" xlink:href="#DejaVuSans-108"/>
     <use x="2072.8125" xlink:href="#DejaVuSans-97"/>
     <use x="2134.091797" xlink:href="#DejaVuSans-116"/>
     <use x="2173.300781" xlink:href="#DejaVuSans-101"/>
     <use x="2234.824219" xlink:href="#DejaVuSans-100"/>
     <use x="2298.300781" xlink:href="#DejaVuSans-32"/>
     <use x="2330.087891" xlink:href="#DejaVuSans-116"/>
     <use x="2369.296875" xlink:href="#DejaVuSans-114"/>
     <use x="2410.410156" xlink:href="#DejaVuSans-105"/>
     <use x="2438.193359" xlink:href="#DejaVuSans-97"/>
     <use x="2499.472656" xlink:href="#DejaVuSans-108"/>
     <use x="2527.255859" xlink:href="#DejaVuSans-115"/>
    </g>
   </g>
   <g id="legend_1">
    <g id="patch_7">
     <path d="M 464.95125 70.7475 
L 574.8 70.7475 
Q 577.2 70.7475 577.2 68.3475 
L 577.2 34.32 
Q 577.2 31.92 574.8 31.92 
L 464.95125 31.92 
Q 462.55125 31.92 462.55125 34.32 
L 462.55125 68.3475 
Q 462.55125 70.7475 464.95125 70.7475 
z
" style="fill:#ffffff;opacity:0.8;stroke:#cccccc;stroke-linejoin:miter;"/>
    </g>
    <g id="line2d_12">
     <path d="M 467.35125 41.638125 
L 491.35125 41.638125 
" style="fill:none;stroke:#0000ff;stroke-linecap:square;stroke-width:1.5;"/>
    </g>
    <g id="line2d_13"/>
    <g id="text_14">
     <!-- Moving Var. -->
     <g transform="translate(500.95125 45.838125)scale(0.12 -0.12)">
      <use xlink:href="#DejaVuSans-77"/>
      <use x="86.279297" xlink:href="#DejaVuSans-111"/>
      <use x="147.460938" xlink:href="#DejaVuSans-118"/>
      <use x="206.640625" xlink:href="#DejaVuSans-105"/>
      <use x="234.423828" xlink:href="#DejaVuSans-110"/>
      <use x="297.802734" xlink:href="#DejaVuSans-103"/>
      <use x="361.279297" xlink:href="#DejaVuSans-32"/>
      <use x="393.066406" xlink:href="#DejaVuSans-86"/>
      <use x="461.365234" xlink:href="#DejaVuSans-97"/>
      <use x="522.644531" xlink:href="#DejaVuSans-114"/>
      <use x="563.617188" xlink:href="#DejaVuSans-46"/>
     </g>
    </g>
    <g id="patch_8">
     <path d="M 467.35125 63.451875 
L 491.35125 63.451875 
L 491.35125 55.051875 
L 467.35125 55.051875 
z
" style="fill:#0000ff;opacity:0.3;stroke:#0000ff;stroke-linejoin:miter;"/>
    </g>
    <g id="text_15">
     <!-- Std. Err. -->
     <defs>
      <path d="M 53.515625 70.515625 
L 53.515625 60.890625 
Q 47.90625 63.578125 42.921875 64.890625 
Q 37.9375 66.21875 33.296875 66.21875 
Q 25.25 66.21875 20.875 63.09375 
Q 16.5 59.96875 16.5 54.203125 
Q 16.5 49.359375 19.40625 46.890625 
Q 22.3125 44.4375 30.421875 42.921875 
L 36.375 41.703125 
Q 47.40625 39.59375 52.65625 34.296875 
Q 57.90625 29 57.90625 20.125 
Q 57.90625 9.515625 50.796875 4.046875 
Q 43.703125 -1.421875 29.984375 -1.421875 
Q 24.8125 -1.421875 18.96875 -0.25 
Q 13.140625 0.921875 6.890625 3.21875 
L 6.890625 13.375 
Q 12.890625 10.015625 18.65625 8.296875 
Q 24.421875 6.59375 29.984375 6.59375 
Q 38.421875 6.59375 43.015625 9.90625 
Q 47.609375 13.234375 47.609375 19.390625 
Q 47.609375 24.75 44.3125 27.78125 
Q 41.015625 30.8125 33.5 32.328125 
L 27.484375 33.5 
Q 16.453125 35.6875 11.515625 40.375 
Q 6.59375 45.0625 6.59375 53.421875 
Q 6.59375 63.09375 13.40625 68.65625 
Q 20.21875 74.21875 32.171875 74.21875 
Q 37.3125 74.21875 42.625 73.28125 
Q 47.953125 72.359375 53.515625 70.515625 
z
" id="DejaVuSans-83"/>
      <path d="M 9.8125 72.90625 
L 55.90625 72.90625 
L 55.90625 64.59375 
L 19.671875 64.59375 
L 19.671875 43.015625 
L 54.390625 43.015625 
L 54.390625 34.71875 
L 19.671875 34.71875 
L 19.671875 8.296875 
L 56.78125 8.296875 
L 56.78125 0 
L 9.8125 0 
z
" id="DejaVuSans-69"/>
     </defs>
     <g transform="translate(500.95125 63.451875)scale(0.12 -0.12)">
      <use xlink:href="#DejaVuSans-83"/>
      <use x="63.476562" xlink:href="#DejaVuSans-116"/>
      <use x="102.685547" xlink:href="#DejaVuSans-100"/>
      <use x="166.162109" xlink:href="#DejaVuSans-46"/>
      <use x="197.949219" xlink:href="#DejaVuSans-32"/>
      <use x="229.736328" xlink:href="#DejaVuSans-69"/>
      <use x="292.919922" xlink:href="#DejaVuSans-114"/>
      <use x="334.017578" xlink:href="#DejaVuSans-114"/>
      <use x="374.990234" xlink:href="#DejaVuSans-46"/>
     </g>
    </g>
   </g>
  </g>
 </g>
 <defs>
  <clipPath id="p54b5ce6798">
   <rect height="166.32" width="502.2" x="81" y="25.92"/>
  </clipPath>
 </defs>
</svg>
