<?xml version="1.0" encoding="utf-8" standalone="no"?>
<!DOCTYPE svg PUBLIC "-//W3C//DTD SVG 1.1//EN"
  "http://www.w3.org/Graphics/SVG/1.1/DTD/svg11.dtd">
<!-- Created with matplotlib (https://matplotlib.org/) -->
<svg height="223.2pt" version="1.1" viewBox="0 0 576 223.2" width="576pt" xmlns="http://www.w3.org/2000/svg" xmlns:xlink="http://www.w3.org/1999/xlink">
 <defs>
  <style type="text/css">
*{stroke-linecap:butt;stroke-linejoin:round;}
  </style>
 </defs>
 <g id="figure_1">
  <g id="patch_1">
   <path d="M 0 223.2 
L 576 223.2 
L 576 0 
L 0 0 
z
" style="fill:#ffffff;"/>
  </g>
  <g id="axes_1">
   <g id="patch_2">
    <path d="M 54.47 174.76 
L 565.2 174.76 
L 565.2 26.88 
L 54.47 26.88 
z
" style="fill:#ffffff;"/>
   </g>
   <g id="PolyCollection_1">
    <defs>
     <path d="M 137.485266 -48.44 
L 137.485266 -196.32 
L 397.178486 -196.32 
L 397.178486 -48.44 
L 397.178486 -48.44 
L 137.485266 -48.44 
z
" id="m12399ca744" style="stroke:#808080;stroke-opacity:0.3;"/>
    </defs>
    <g clip-path="url(#pf19cef8d10)">
     <use style="fill:#808080;fill-opacity:0.3;stroke:#808080;stroke-opacity:0.3;" x="0" xlink:href="#m12399ca744" y="223.2"/>
    </g>
   </g>
   <g id="PolyCollection_2">
    <defs>
     <path d="M 54.47 -168.107857 
L 54.47 -122.43304 
L 56.201288 -123.826703 
L 57.932576 -126.184043 
L 59.663864 -126.057879 
L 61.395153 -125.082124 
L 63.126441 -128.355742 
L 64.857729 -129.879779 
L 66.589017 -132.32296 
L 68.320305 -134.260958 
L 70.051593 -132.483739 
L 71.782881 -134.596592 
L 73.514169 -130.733289 
L 75.245458 -126.181372 
L 76.976746 -123.552071 
L 78.708034 -119.790806 
L 80.439322 -112.406934 
L 82.17061 -110.806459 
L 83.901898 -109.896458 
L 85.633186 -107.650325 
L 87.364475 -104.565063 
L 89.095763 -104.860873 
L 90.827051 -111.12597 
L 92.558339 -116.055057 
L 94.289627 -120.004247 
L 96.020915 -126.25071 
L 97.752203 -127.697496 
L 99.483492 -129.718392 
L 101.21478 -134.199253 
L 102.946068 -138.987322 
L 104.677356 -139.437174 
L 106.408644 -135.410222 
L 108.139932 -128.843361 
L 109.87122 -124.236469 
L 111.602508 -120.570359 
L 113.333797 -115.224154 
L 115.065085 -111.672817 
L 116.796373 -113.155213 
L 118.527661 -114.453266 
L 120.258949 -107.890394 
L 121.990237 -106.007539 
L 123.721525 -107.259855 
L 125.452814 -109.208572 
L 127.184102 -107.499534 
L 128.91539 -111.231067 
L 130.646678 -114.928409 
L 132.377966 -118.885238 
L 134.109254 -120.915635 
L 135.840542 -115.988134 
L 137.571831 -124.000512 
L 139.303119 -126.609388 
L 141.034407 -130.334053 
L 142.765695 -135.311895 
L 144.496983 -139.216692 
L 146.228271 -133.522086 
L 147.959559 -132.427566 
L 149.690847 -131.118922 
L 151.422136 -129.661174 
L 153.153424 -129.278845 
L 154.884712 -122.25757 
L 156.616 -119.623305 
L 158.347288 -111.723392 
L 160.078576 -109.304526 
L 161.809864 -108.226987 
L 163.541153 -113.69229 
L 165.272441 -118.294944 
L 167.003729 -119.774473 
L 168.735017 -122.256669 
L 170.466305 -121.384075 
L 172.197593 -118.653203 
L 173.928881 -117.491169 
L 175.660169 -118.300968 
L 177.391458 -117.712971 
L 179.122746 -119.677791 
L 180.854034 -121.070622 
L 182.585322 -123.55727 
L 184.31661 -123.051348 
L 186.047898 -123.096309 
L 187.779186 -124.09887 
L 189.510475 -116.98295 
L 191.241763 -117.378786 
L 192.973051 -118.389754 
L 194.704339 -119.707312 
L 196.435627 -118.404207 
L 198.166915 -117.036871 
L 199.898203 -115.871377 
L 201.629492 -115.927222 
L 203.36078 -115.669431 
L 205.092068 -113.7204 
L 206.823356 -120.095963 
L 208.554644 -120.257556 
L 210.285932 -116.942611 
L 212.01722 -120.753722 
L 213.748508 -122.404222 
L 215.479797 -128.404298 
L 217.211085 -124.92974 
L 218.942373 -121.725223 
L 220.673661 -116.631201 
L 222.404949 -121.411348 
L 224.136237 -120.637876 
L 225.867525 -117.163169 
L 227.598814 -119.131604 
L 229.330102 -113.254285 
L 231.06139 -114.70454 
L 232.792678 -111.320206 
L 234.523966 -118.800395 
L 236.255254 -118.327408 
L 237.986542 -121.860101 
L 239.717831 -118.842972 
L 241.449119 -115.538833 
L 243.180407 -117.107433 
L 244.911695 -114.502582 
L 246.642983 -119.481481 
L 248.374271 -121.158417 
L 250.105559 -119.9589 
L 251.836847 -113.191431 
L 253.568136 -115.743489 
L 255.299424 -115.752403 
L 257.030712 -119.471406 
L 258.762 -121.876114 
L 260.493288 -119.307087 
L 262.224576 -117.085424 
L 263.955864 -113.955179 
L 265.687153 -112.087843 
L 267.418441 -111.891692 
L 269.149729 -112.491993 
L 270.881017 -111.056372 
L 272.612305 -106.628253 
L 274.343593 -107.635954 
L 276.074881 -109.411671 
L 277.806169 -113.018695 
L 279.537458 -117.945705 
L 281.268746 -124.899767 
L 283.000034 -124.122086 
L 284.731322 -124.15218 
L 286.46261 -132.612335 
L 288.193898 -131.177416 
L 289.925186 -130.749323 
L 291.656475 -130.009534 
L 293.387763 -132.845575 
L 295.119051 -131.728455 
L 296.850339 -132.19348 
L 298.581627 -128.613198 
L 300.312915 -127.255097 
L 302.044203 -127.955333 
L 303.775492 -117.253139 
L 305.50678 -119.339256 
L 307.238068 -124.419028 
L 308.969356 -126.589539 
L 310.700644 -127.392548 
L 312.431932 -132.564984 
L 314.16322 -130.179404 
L 315.894508 -129.750676 
L 317.625797 -131.827185 
L 319.357085 -131.004628 
L 321.088373 -131.442694 
L 322.819661 -135.706244 
L 324.550949 -137.838352 
L 326.282237 -144.79547 
L 328.013525 -142.07041 
L 329.744814 -136.994293 
L 331.476102 -140.128393 
L 333.20739 -140.057563 
L 334.938678 -133.334733 
L 336.669966 -132.432362 
L 338.401254 -129.748425 
L 340.132542 -125.149863 
L 341.863831 -121.888433 
L 343.595119 -118.902813 
L 345.326407 -120.316208 
L 347.057695 -120.581504 
L 348.788983 -117.786116 
L 350.520271 -113.53633 
L 352.251559 -115.91556 
L 353.982847 -114.629145 
L 355.714136 -115.247213 
L 357.445424 -116.519488 
L 359.176712 -115.320958 
L 360.908 -112.631104 
L 362.639288 -115.092194 
L 364.370576 -115.144282 
L 366.101864 -115.261184 
L 367.833153 -118.927876 
L 369.564441 -125.036214 
L 371.295729 -129.250944 
L 373.027017 -131.966179 
L 374.758305 -132.45635 
L 376.489593 -131.05242 
L 378.220881 -131.22954 
L 379.952169 -131.355773 
L 381.683458 -133.205786 
L 383.414746 -131.701773 
L 385.146034 -133.589396 
L 386.877322 -132.046008 
L 388.60861 -128.439233 
L 390.339898 -124.489935 
L 392.071186 -123.788815 
L 393.802475 -131.583926 
L 395.533763 -132.933003 
L 397.265051 -135.569652 
L 398.996339 -139.742877 
L 400.727627 -144.11832 
L 402.458915 -142.165989 
L 404.190203 -149.798189 
L 405.921492 -149.23339 
L 407.65278 -149.493935 
L 409.384068 -149.308457 
L 411.115356 -144.53554 
L 412.846644 -144.144908 
L 414.577932 -142.412638 
L 416.30922 -137.977183 
L 418.040508 -129.402692 
L 419.771797 -126.005216 
L 421.503085 -125.202082 
L 423.234373 -127.551927 
L 424.965661 -130.418589 
L 426.696949 -129.896376 
L 428.428237 -126.413268 
L 430.159525 -130.539813 
L 431.890814 -130.307294 
L 433.622102 -130.644868 
L 435.35339 -128.258657 
L 437.084678 -129.262667 
L 438.815966 -126.598336 
L 440.547254 -124.572623 
L 442.278542 -120.747313 
L 444.009831 -119.176037 
L 445.741119 -117.162753 
L 447.472407 -113.321123 
L 449.203695 -106.941194 
L 450.934983 -105.724147 
L 452.666271 -109.097389 
L 454.397559 -110.632646 
L 456.128847 -116.442038 
L 457.860136 -119.771862 
L 459.591424 -118.125595 
L 461.322712 -118.99376 
L 463.054 -118.291105 
L 464.785288 -113.284339 
L 466.516576 -113.474918 
L 468.247864 -110.303791 
L 469.979153 -107.811356 
L 471.710441 -105.689188 
L 473.441729 -102.437078 
L 475.173017 -98.353443 
L 476.904305 -100.777312 
L 478.635593 -101.895121 
L 480.366881 -102.89419 
L 482.098169 -104.341488 
L 483.829458 -102.78965 
L 485.560746 -108.82993 
L 487.292034 -113.107378 
L 489.023322 -114.532953 
L 490.75461 -113.226468 
L 492.485898 -113.57025 
L 494.217186 -115.539109 
L 495.948475 -116.204689 
L 497.679763 -115.577866 
L 499.411051 -119.912585 
L 501.142339 -122.709765 
L 502.873627 -120.883559 
L 504.604915 -117.356935 
L 506.336203 -115.21373 
L 508.067492 -115.796525 
L 509.79878 -118.591557 
L 511.530068 -114.405492 
L 513.261356 -113.582812 
L 514.992644 -110.568336 
L 516.723932 -107.656431 
L 518.45522 -105.479892 
L 520.186508 -104.434616 
L 521.917797 -105.133357 
L 523.649085 -106.617306 
L 525.380373 -107.019998 
L 527.111661 -105.367841 
L 528.842949 -107.6881 
L 530.574237 -108.405121 
L 532.305525 -112.514882 
L 534.036814 -108.914317 
L 535.768102 -109.087933 
L 537.49939 -111.631968 
L 539.230678 -119.517508 
L 540.961966 -124.235344 
L 542.693254 -127.223023 
L 544.424542 -133.135048 
L 546.155831 -136.440674 
L 547.887119 -142.102694 
L 549.618407 -141.282527 
L 551.349695 -143.471652 
L 553.080983 -145.177787 
L 554.812271 -147.735388 
L 556.543559 -144.9569 
L 558.274847 -145.40113 
L 560.006136 -145.203739 
L 561.737424 -142.548365 
L 563.468712 -140.036405 
L 565.2 -132.698635 
L 565.2 -178.601183 
L 565.2 -178.601183 
L 563.468712 -185.740745 
L 561.737424 -187.076877 
L 560.006136 -190.139232 
L 558.274847 -180.455158 
L 556.543559 -173.974801 
L 554.812271 -175.237305 
L 553.080983 -168.258761 
L 551.349695 -165.300692 
L 549.618407 -160.891675 
L 547.887119 -154.413132 
L 546.155831 -144.727301 
L 544.424542 -142.137136 
L 542.693254 -137.261644 
L 540.961966 -139.626111 
L 539.230678 -137.201731 
L 537.49939 -136.258423 
L 535.768102 -137.54614 
L 534.036814 -137.47245 
L 532.305525 -139.421446 
L 530.574237 -135.365141 
L 528.842949 -134.766491 
L 527.111661 -132.284054 
L 525.380373 -130.953396 
L 523.649085 -127.671219 
L 521.917797 -126.098458 
L 520.186508 -119.946804 
L 518.45522 -117.833164 
L 516.723932 -120.662111 
L 514.992644 -122.498494 
L 513.261356 -126.581719 
L 511.530068 -133.410707 
L 509.79878 -144.73077 
L 508.067492 -143.197935 
L 506.336203 -142.954726 
L 504.604915 -145.178957 
L 502.873627 -149.684852 
L 501.142339 -152.201351 
L 499.411051 -148.306413 
L 497.679763 -143.846908 
L 495.948475 -142.824394 
L 494.217186 -136.867102 
L 492.485898 -128.993155 
L 490.75461 -129.020385 
L 489.023322 -129.791276 
L 487.292034 -129.045499 
L 485.560746 -124.113247 
L 483.829458 -118.475707 
L 482.098169 -123.358787 
L 480.366881 -123.248053 
L 478.635593 -120.305055 
L 476.904305 -119.666986 
L 475.173017 -118.366417 
L 473.441729 -122.364763 
L 471.710441 -129.756732 
L 469.979153 -132.170168 
L 468.247864 -138.422497 
L 466.516576 -141.092753 
L 464.785288 -135.64474 
L 463.054 -140.381856 
L 461.322712 -141.009711 
L 459.591424 -140.344575 
L 457.860136 -139.430335 
L 456.128847 -136.814907 
L 454.397559 -129.225225 
L 452.666271 -126.23477 
L 450.934983 -121.34797 
L 449.203695 -121.456486 
L 447.472407 -127.397375 
L 445.741119 -128.778862 
L 444.009831 -130.153678 
L 442.278542 -135.50699 
L 440.547254 -142.528549 
L 438.815966 -145.201663 
L 437.084678 -148.175923 
L 435.35339 -148.071999 
L 433.622102 -150.770413 
L 431.890814 -150.326499 
L 430.159525 -150.02968 
L 428.428237 -145.312538 
L 426.696949 -147.166309 
L 424.965661 -146.520442 
L 423.234373 -144.342048 
L 421.503085 -145.994489 
L 419.771797 -157.28465 
L 418.040508 -163.185904 
L 416.30922 -176.206231 
L 414.577932 -182.568184 
L 412.846644 -189.832931 
L 411.115356 -190.847001 
L 409.384068 -195.585498 
L 407.65278 -196.32 
L 405.921492 -194.117371 
L 404.190203 -193.804825 
L 402.458915 -183.339123 
L 400.727627 -183.572983 
L 398.996339 -166.581131 
L 397.265051 -161.272618 
L 395.533763 -150.599224 
L 393.802475 -150.553491 
L 392.071186 -140.413923 
L 390.339898 -141.547819 
L 388.60861 -148.935057 
L 386.877322 -149.977648 
L 385.146034 -154.923587 
L 383.414746 -151.508955 
L 381.683458 -152.626392 
L 379.952169 -150.93992 
L 378.220881 -155.601757 
L 376.489593 -154.947927 
L 374.758305 -157.411873 
L 373.027017 -152.960857 
L 371.295729 -144.997391 
L 369.564441 -140.803695 
L 367.833153 -135.941509 
L 366.101864 -133.751979 
L 364.370576 -131.554091 
L 362.639288 -131.279734 
L 360.908 -126.326571 
L 359.176712 -126.465905 
L 357.445424 -128.442793 
L 355.714136 -129.848613 
L 353.982847 -127.459432 
L 352.251559 -135.372824 
L 350.520271 -137.168411 
L 348.788983 -149.428817 
L 347.057695 -155.027017 
L 345.326407 -155.584135 
L 343.595119 -155.657128 
L 341.863831 -162.474744 
L 340.132542 -166.800682 
L 338.401254 -169.982388 
L 336.669966 -172.066523 
L 334.938678 -167.370468 
L 333.20739 -171.35107 
L 331.476102 -165.053058 
L 329.744814 -159.664971 
L 328.013525 -164.238759 
L 326.282237 -166.009735 
L 324.550949 -157.48051 
L 322.819661 -152.742439 
L 321.088373 -150.991491 
L 319.357085 -151.02892 
L 317.625797 -152.031487 
L 315.894508 -147.959952 
L 314.16322 -151.740383 
L 312.431932 -153.519447 
L 310.700644 -146.628264 
L 308.969356 -150.656152 
L 307.238068 -149.136848 
L 305.50678 -147.331602 
L 303.775492 -143.437845 
L 302.044203 -151.906863 
L 300.312915 -154.867482 
L 298.581627 -159.345818 
L 296.850339 -165.267057 
L 295.119051 -165.954658 
L 293.387763 -167.552965 
L 291.656475 -163.820542 
L 289.925186 -175.114695 
L 288.193898 -172.688364 
L 286.46261 -173.76608 
L 284.731322 -164.593271 
L 283.000034 -164.504658 
L 281.268746 -163.266986 
L 279.537458 -150.159532 
L 277.806169 -142.904216 
L 276.074881 -140.546204 
L 274.343593 -135.703994 
L 272.612305 -124.638185 
L 270.881017 -127.159382 
L 269.149729 -126.554712 
L 267.418441 -124.350555 
L 265.687153 -123.877421 
L 263.955864 -129.241331 
L 262.224576 -134.341452 
L 260.493288 -136.897754 
L 258.762 -138.424125 
L 257.030712 -136.644405 
L 255.299424 -134.339017 
L 253.568136 -133.195482 
L 251.836847 -131.023983 
L 250.105559 -136.00358 
L 248.374271 -135.768559 
L 246.642983 -132.247109 
L 244.911695 -126.992458 
L 243.180407 -129.061704 
L 241.449119 -126.98995 
L 239.717831 -131.629301 
L 237.986542 -135.991802 
L 236.255254 -133.08463 
L 234.523966 -132.102191 
L 232.792678 -124.818172 
L 231.06139 -139.581201 
L 229.330102 -139.5674 
L 227.598814 -145.041457 
L 225.867525 -143.255777 
L 224.136237 -146.671033 
L 222.404949 -149.636838 
L 220.673661 -143.703661 
L 218.942373 -145.667771 
L 217.211085 -148.245283 
L 215.479797 -150.968231 
L 213.748508 -138.618152 
L 212.01722 -137.859886 
L 210.285932 -136.497341 
L 208.554644 -142.322851 
L 206.823356 -140.144923 
L 205.092068 -134.437083 
L 203.36078 -136.415281 
L 201.629492 -136.15749 
L 199.898203 -134.610788 
L 198.166915 -136.620711 
L 196.435627 -137.622573 
L 194.704339 -136.537098 
L 192.973051 -134.560531 
L 191.241763 -125.075805 
L 189.510475 -124.319192 
L 187.779186 -135.662241 
L 186.047898 -140.97783 
L 184.31661 -142.818237 
L 182.585322 -147.723384 
L 180.854034 -150.590885 
L 179.122746 -156.034599 
L 177.391458 -153.33027 
L 175.660169 -154.89384 
L 173.928881 -153.947762 
L 172.197593 -154.699882 
L 170.466305 -151.078706 
L 168.735017 -147.604446 
L 167.003729 -148.009265 
L 165.272441 -143.419889 
L 163.541153 -137.239973 
L 161.809864 -133.530198 
L 160.078576 -140.603888 
L 158.347288 -146.825916 
L 156.616 -153.264843 
L 154.884712 -155.922941 
L 153.153424 -161.044423 
L 151.422136 -162.516893 
L 149.690847 -162.078049 
L 147.959559 -164.666957 
L 146.228271 -165.550891 
L 144.496983 -167.913536 
L 142.765695 -159.660737 
L 141.034407 -154.588037 
L 139.303119 -148.479789 
L 137.571831 -144.901052 
L 135.840542 -135.176597 
L 134.109254 -143.435487 
L 132.377966 -142.755404 
L 130.646678 -136.899104 
L 128.91539 -133.983466 
L 127.184102 -128.772391 
L 125.452814 -130.614676 
L 123.721525 -128.631217 
L 121.990237 -128.093033 
L 120.258949 -130.315469 
L 118.527661 -134.0455 
L 116.796373 -131.040416 
L 115.065085 -132.844311 
L 113.333797 -137.033673 
L 111.602508 -141.58468 
L 109.87122 -146.91064 
L 108.139932 -154.342636 
L 106.408644 -155.323574 
L 104.677356 -160.18977 
L 102.946068 -158.938152 
L 101.21478 -156.638412 
L 99.483492 -154.51124 
L 97.752203 -151.274396 
L 96.020915 -146.953991 
L 94.289627 -142.274445 
L 92.558339 -137.196942 
L 90.827051 -131.017014 
L 89.095763 -122.864133 
L 87.364475 -122.942314 
L 85.633186 -126.890453 
L 83.901898 -134.388202 
L 82.17061 -137.682414 
L 80.439322 -141.117103 
L 78.708034 -153.260564 
L 76.976746 -156.468401 
L 75.245458 -156.678181 
L 73.514169 -158.234738 
L 71.782881 -161.538382 
L 70.051593 -161.311713 
L 68.320305 -166.285967 
L 66.589017 -163.584492 
L 64.857729 -160.49295 
L 63.126441 -162.645145 
L 61.395153 -164.514061 
L 59.663864 -168.543793 
L 57.932576 -171.291333 
L 56.201288 -169.800582 
L 54.47 -168.107857 
z
" id="m92985c072c" style="stroke:#0000ff;stroke-opacity:0.3;"/>
    </defs>
    <g clip-path="url(#pf19cef8d10)">
     <use style="fill:#0000ff;fill-opacity:0.3;stroke:#0000ff;stroke-opacity:0.3;" x="0" xlink:href="#m92985c072c" y="223.2"/>
    </g>
   </g>
   <g id="matplotlib.axis_1">
    <g id="xtick_1">
     <g id="line2d_1">
      <defs>
       <path d="M 0 0 
L 0 3.5 
" id="m082d813a01" style="stroke:#000000;stroke-width:0.8;"/>
      </defs>
      <g>
       <use style="stroke:#000000;stroke-width:0.8;" x="137.485266" xlink:href="#m082d813a01" y="174.76"/>
      </g>
     </g>
     <g id="text_1">
      <!-- 0.0 -->
      <defs>
       <path d="M 31.78125 66.40625 
Q 24.171875 66.40625 20.328125 58.90625 
Q 16.5 51.421875 16.5 36.375 
Q 16.5 21.390625 20.328125 13.890625 
Q 24.171875 6.390625 31.78125 6.390625 
Q 39.453125 6.390625 43.28125 13.890625 
Q 47.125 21.390625 47.125 36.375 
Q 47.125 51.421875 43.28125 58.90625 
Q 39.453125 66.40625 31.78125 66.40625 
z
M 31.78125 74.21875 
Q 44.046875 74.21875 50.515625 64.515625 
Q 56.984375 54.828125 56.984375 36.375 
Q 56.984375 17.96875 50.515625 8.265625 
Q 44.046875 -1.421875 31.78125 -1.421875 
Q 19.53125 -1.421875 13.0625 8.265625 
Q 6.59375 17.96875 6.59375 36.375 
Q 6.59375 54.828125 13.0625 64.515625 
Q 19.53125 74.21875 31.78125 74.21875 
z
" id="DejaVuSans-48"/>
       <path d="M 10.6875 12.40625 
L 21 12.40625 
L 21 0 
L 10.6875 0 
z
" id="DejaVuSans-46"/>
      </defs>
      <g transform="translate(127.943391 190.878125)scale(0.12 -0.12)">
       <use xlink:href="#DejaVuSans-48"/>
       <use x="63.623047" xlink:href="#DejaVuSans-46"/>
       <use x="95.410156" xlink:href="#DejaVuSans-48"/>
      </g>
     </g>
    </g>
    <g id="xtick_2">
     <g id="line2d_2">
      <g>
       <use style="stroke:#000000;stroke-width:0.8;" x="224.049673" xlink:href="#m082d813a01" y="174.76"/>
      </g>
     </g>
     <g id="text_2">
      <!-- 0.5 -->
      <defs>
       <path d="M 10.796875 72.90625 
L 49.515625 72.90625 
L 49.515625 64.59375 
L 19.828125 64.59375 
L 19.828125 46.734375 
Q 21.96875 47.46875 24.109375 47.828125 
Q 26.265625 48.1875 28.421875 48.1875 
Q 40.625 48.1875 47.75 41.5 
Q 54.890625 34.8125 54.890625 23.390625 
Q 54.890625 11.625 47.5625 5.09375 
Q 40.234375 -1.421875 26.90625 -1.421875 
Q 22.3125 -1.421875 17.546875 -0.640625 
Q 12.796875 0.140625 7.71875 1.703125 
L 7.71875 11.625 
Q 12.109375 9.234375 16.796875 8.0625 
Q 21.484375 6.890625 26.703125 6.890625 
Q 35.15625 6.890625 40.078125 11.328125 
Q 45.015625 15.765625 45.015625 23.390625 
Q 45.015625 31 40.078125 35.4375 
Q 35.15625 39.890625 26.703125 39.890625 
Q 22.75 39.890625 18.8125 39.015625 
Q 14.890625 38.140625 10.796875 36.28125 
z
" id="DejaVuSans-53"/>
      </defs>
      <g transform="translate(214.507798 190.878125)scale(0.12 -0.12)">
       <use xlink:href="#DejaVuSans-48"/>
       <use x="63.623047" xlink:href="#DejaVuSans-46"/>
       <use x="95.410156" xlink:href="#DejaVuSans-53"/>
      </g>
     </g>
    </g>
    <g id="xtick_3">
     <g id="line2d_3">
      <g>
       <use style="stroke:#000000;stroke-width:0.8;" x="310.61408" xlink:href="#m082d813a01" y="174.76"/>
      </g>
     </g>
     <g id="text_3">
      <!-- 1.0 -->
      <defs>
       <path d="M 12.40625 8.296875 
L 28.515625 8.296875 
L 28.515625 63.921875 
L 10.984375 60.40625 
L 10.984375 69.390625 
L 28.421875 72.90625 
L 38.28125 72.90625 
L 38.28125 8.296875 
L 54.390625 8.296875 
L 54.390625 0 
L 12.40625 0 
z
" id="DejaVuSans-49"/>
      </defs>
      <g transform="translate(301.072205 190.878125)scale(0.12 -0.12)">
       <use xlink:href="#DejaVuSans-49"/>
       <use x="63.623047" xlink:href="#DejaVuSans-46"/>
       <use x="95.410156" xlink:href="#DejaVuSans-48"/>
      </g>
     </g>
    </g>
    <g id="xtick_4">
     <g id="line2d_4">
      <g>
       <use style="stroke:#000000;stroke-width:0.8;" x="397.178486" xlink:href="#m082d813a01" y="174.76"/>
      </g>
     </g>
     <g id="text_4">
      <!-- 1.5 -->
      <g transform="translate(387.636611 190.878125)scale(0.12 -0.12)">
       <use xlink:href="#DejaVuSans-49"/>
       <use x="63.623047" xlink:href="#DejaVuSans-46"/>
       <use x="95.410156" xlink:href="#DejaVuSans-53"/>
      </g>
     </g>
    </g>
    <g id="xtick_5">
     <g id="line2d_5">
      <g>
       <use style="stroke:#000000;stroke-width:0.8;" x="483.742893" xlink:href="#m082d813a01" y="174.76"/>
      </g>
     </g>
     <g id="text_5">
      <!-- 2.0 -->
      <defs>
       <path d="M 19.1875 8.296875 
L 53.609375 8.296875 
L 53.609375 0 
L 7.328125 0 
L 7.328125 8.296875 
Q 12.9375 14.109375 22.625 23.890625 
Q 32.328125 33.6875 34.8125 36.53125 
Q 39.546875 41.84375 41.421875 45.53125 
Q 43.3125 49.21875 43.3125 52.78125 
Q 43.3125 58.59375 39.234375 62.25 
Q 35.15625 65.921875 28.609375 65.921875 
Q 23.96875 65.921875 18.8125 64.3125 
Q 13.671875 62.703125 7.8125 59.421875 
L 7.8125 69.390625 
Q 13.765625 71.78125 18.9375 73 
Q 24.125 74.21875 28.421875 74.21875 
Q 39.75 74.21875 46.484375 68.546875 
Q 53.21875 62.890625 53.21875 53.421875 
Q 53.21875 48.921875 51.53125 44.890625 
Q 49.859375 40.875 45.40625 35.40625 
Q 44.1875 33.984375 37.640625 27.21875 
Q 31.109375 20.453125 19.1875 8.296875 
z
" id="DejaVuSans-50"/>
      </defs>
      <g transform="translate(474.201018 190.878125)scale(0.12 -0.12)">
       <use xlink:href="#DejaVuSans-50"/>
       <use x="63.623047" xlink:href="#DejaVuSans-46"/>
       <use x="95.410156" xlink:href="#DejaVuSans-48"/>
      </g>
     </g>
    </g>
    <g id="text_6">
     <!-- Time (s) -->
     <defs>
      <path d="M -0.296875 72.90625 
L 61.375 72.90625 
L 61.375 64.59375 
L 35.5 64.59375 
L 35.5 0 
L 25.59375 0 
L 25.59375 64.59375 
L -0.296875 64.59375 
z
" id="DejaVuSans-84"/>
      <path d="M 9.421875 54.6875 
L 18.40625 54.6875 
L 18.40625 0 
L 9.421875 0 
z
M 9.421875 75.984375 
L 18.40625 75.984375 
L 18.40625 64.59375 
L 9.421875 64.59375 
z
" id="DejaVuSans-105"/>
      <path d="M 52 44.1875 
Q 55.375 50.25 60.0625 53.125 
Q 64.75 56 71.09375 56 
Q 79.640625 56 84.28125 50.015625 
Q 88.921875 44.046875 88.921875 33.015625 
L 88.921875 0 
L 79.890625 0 
L 79.890625 32.71875 
Q 79.890625 40.578125 77.09375 44.375 
Q 74.3125 48.1875 68.609375 48.1875 
Q 61.625 48.1875 57.5625 43.546875 
Q 53.515625 38.921875 53.515625 30.90625 
L 53.515625 0 
L 44.484375 0 
L 44.484375 32.71875 
Q 44.484375 40.625 41.703125 44.40625 
Q 38.921875 48.1875 33.109375 48.1875 
Q 26.21875 48.1875 22.15625 43.53125 
Q 18.109375 38.875 18.109375 30.90625 
L 18.109375 0 
L 9.078125 0 
L 9.078125 54.6875 
L 18.109375 54.6875 
L 18.109375 46.1875 
Q 21.1875 51.21875 25.484375 53.609375 
Q 29.78125 56 35.6875 56 
Q 41.65625 56 45.828125 52.96875 
Q 50 49.953125 52 44.1875 
z
" id="DejaVuSans-109"/>
      <path d="M 56.203125 29.59375 
L 56.203125 25.203125 
L 14.890625 25.203125 
Q 15.484375 15.921875 20.484375 11.0625 
Q 25.484375 6.203125 34.421875 6.203125 
Q 39.59375 6.203125 44.453125 7.46875 
Q 49.3125 8.734375 54.109375 11.28125 
L 54.109375 2.78125 
Q 49.265625 0.734375 44.1875 -0.34375 
Q 39.109375 -1.421875 33.890625 -1.421875 
Q 20.796875 -1.421875 13.15625 6.1875 
Q 5.515625 13.8125 5.515625 26.8125 
Q 5.515625 40.234375 12.765625 48.109375 
Q 20.015625 56 32.328125 56 
Q 43.359375 56 49.78125 48.890625 
Q 56.203125 41.796875 56.203125 29.59375 
z
M 47.21875 32.234375 
Q 47.125 39.59375 43.09375 43.984375 
Q 39.0625 48.390625 32.421875 48.390625 
Q 24.90625 48.390625 20.390625 44.140625 
Q 15.875 39.890625 15.1875 32.171875 
z
" id="DejaVuSans-101"/>
      <path id="DejaVuSans-32"/>
      <path d="M 31 75.875 
Q 24.46875 64.65625 21.28125 53.65625 
Q 18.109375 42.671875 18.109375 31.390625 
Q 18.109375 20.125 21.3125 9.0625 
Q 24.515625 -2 31 -13.1875 
L 23.1875 -13.1875 
Q 15.875 -1.703125 12.234375 9.375 
Q 8.59375 20.453125 8.59375 31.390625 
Q 8.59375 42.28125 12.203125 53.3125 
Q 15.828125 64.359375 23.1875 75.875 
z
" id="DejaVuSans-40"/>
      <path d="M 44.28125 53.078125 
L 44.28125 44.578125 
Q 40.484375 46.53125 36.375 47.5 
Q 32.28125 48.484375 27.875 48.484375 
Q 21.1875 48.484375 17.84375 46.4375 
Q 14.5 44.390625 14.5 40.28125 
Q 14.5 37.15625 16.890625 35.375 
Q 19.28125 33.59375 26.515625 31.984375 
L 29.59375 31.296875 
Q 39.15625 29.25 43.1875 25.515625 
Q 47.21875 21.78125 47.21875 15.09375 
Q 47.21875 7.46875 41.1875 3.015625 
Q 35.15625 -1.421875 24.609375 -1.421875 
Q 20.21875 -1.421875 15.453125 -0.5625 
Q 10.6875 0.296875 5.421875 2 
L 5.421875 11.28125 
Q 10.40625 8.6875 15.234375 7.390625 
Q 20.0625 6.109375 24.8125 6.109375 
Q 31.15625 6.109375 34.5625 8.28125 
Q 37.984375 10.453125 37.984375 14.40625 
Q 37.984375 18.0625 35.515625 20.015625 
Q 33.0625 21.96875 24.703125 23.78125 
L 21.578125 24.515625 
Q 13.234375 26.265625 9.515625 29.90625 
Q 5.8125 33.546875 5.8125 39.890625 
Q 5.8125 47.609375 11.28125 51.796875 
Q 16.75 56 26.8125 56 
Q 31.78125 56 36.171875 55.265625 
Q 40.578125 54.546875 44.28125 53.078125 
z
" id="DejaVuSans-115"/>
      <path d="M 8.015625 75.875 
L 15.828125 75.875 
Q 23.140625 64.359375 26.78125 53.3125 
Q 30.421875 42.28125 30.421875 31.390625 
Q 30.421875 20.453125 26.78125 9.375 
Q 23.140625 -1.703125 15.828125 -13.1875 
L 8.015625 -13.1875 
Q 14.5 -2 17.703125 9.0625 
Q 20.90625 20.125 20.90625 31.390625 
Q 20.90625 42.671875 17.703125 53.65625 
Q 14.5 64.65625 8.015625 75.875 
z
" id="DejaVuSans-41"/>
     </defs>
     <g transform="translate(280.33975 208.3155)scale(0.144 -0.144)">
      <use xlink:href="#DejaVuSans-84"/>
      <use x="61.037109" xlink:href="#DejaVuSans-105"/>
      <use x="88.820312" xlink:href="#DejaVuSans-109"/>
      <use x="186.232422" xlink:href="#DejaVuSans-101"/>
      <use x="247.755859" xlink:href="#DejaVuSans-32"/>
      <use x="279.542969" xlink:href="#DejaVuSans-40"/>
      <use x="318.556641" xlink:href="#DejaVuSans-115"/>
      <use x="370.65625" xlink:href="#DejaVuSans-41"/>
     </g>
    </g>
   </g>
   <g id="matplotlib.axis_2">
    <g id="ytick_1">
     <g id="line2d_6">
      <defs>
       <path d="M 0 0 
L -3.5 0 
" id="md5f9e7ce9d" style="stroke:#000000;stroke-width:0.8;"/>
      </defs>
      <g>
       <use style="stroke:#000000;stroke-width:0.8;" x="54.47" xlink:href="#md5f9e7ce9d" y="174.76"/>
      </g>
     </g>
     <g id="text_7">
      <!-- 0.0 -->
      <g transform="translate(28.38625 179.319062)scale(0.12 -0.12)">
       <use xlink:href="#DejaVuSans-48"/>
       <use x="63.623047" xlink:href="#DejaVuSans-46"/>
       <use x="95.410156" xlink:href="#DejaVuSans-48"/>
      </g>
     </g>
    </g>
    <g id="ytick_2">
     <g id="line2d_7">
      <g>
       <use style="stroke:#000000;stroke-width:0.8;" x="54.47" xlink:href="#md5f9e7ce9d" y="150.029334"/>
      </g>
     </g>
     <g id="text_8">
      <!-- 0.1 -->
      <g transform="translate(28.38625 154.588397)scale(0.12 -0.12)">
       <use xlink:href="#DejaVuSans-48"/>
       <use x="63.623047" xlink:href="#DejaVuSans-46"/>
       <use x="95.410156" xlink:href="#DejaVuSans-49"/>
      </g>
     </g>
    </g>
    <g id="ytick_3">
     <g id="line2d_8">
      <g>
       <use style="stroke:#000000;stroke-width:0.8;" x="54.47" xlink:href="#md5f9e7ce9d" y="125.298669"/>
      </g>
     </g>
     <g id="text_9">
      <!-- 0.2 -->
      <g transform="translate(28.38625 129.857731)scale(0.12 -0.12)">
       <use xlink:href="#DejaVuSans-48"/>
       <use x="63.623047" xlink:href="#DejaVuSans-46"/>
       <use x="95.410156" xlink:href="#DejaVuSans-50"/>
      </g>
     </g>
    </g>
    <g id="ytick_4">
     <g id="line2d_9">
      <g>
       <use style="stroke:#000000;stroke-width:0.8;" x="54.47" xlink:href="#md5f9e7ce9d" y="100.568003"/>
      </g>
     </g>
     <g id="text_10">
      <!-- 0.3 -->
      <defs>
       <path d="M 40.578125 39.3125 
Q 47.65625 37.796875 51.625 33 
Q 55.609375 28.21875 55.609375 21.1875 
Q 55.609375 10.40625 48.1875 4.484375 
Q 40.765625 -1.421875 27.09375 -1.421875 
Q 22.515625 -1.421875 17.65625 -0.515625 
Q 12.796875 0.390625 7.625 2.203125 
L 7.625 11.71875 
Q 11.71875 9.328125 16.59375 8.109375 
Q 21.484375 6.890625 26.8125 6.890625 
Q 36.078125 6.890625 40.9375 10.546875 
Q 45.796875 14.203125 45.796875 21.1875 
Q 45.796875 27.640625 41.28125 31.265625 
Q 36.765625 34.90625 28.71875 34.90625 
L 20.21875 34.90625 
L 20.21875 43.015625 
L 29.109375 43.015625 
Q 36.375 43.015625 40.234375 45.921875 
Q 44.09375 48.828125 44.09375 54.296875 
Q 44.09375 59.90625 40.109375 62.90625 
Q 36.140625 65.921875 28.71875 65.921875 
Q 24.65625 65.921875 20.015625 65.03125 
Q 15.375 64.15625 9.8125 62.3125 
L 9.8125 71.09375 
Q 15.4375 72.65625 20.34375 73.4375 
Q 25.25 74.21875 29.59375 74.21875 
Q 40.828125 74.21875 47.359375 69.109375 
Q 53.90625 64.015625 53.90625 55.328125 
Q 53.90625 49.265625 50.4375 45.09375 
Q 46.96875 40.921875 40.578125 39.3125 
z
" id="DejaVuSans-51"/>
      </defs>
      <g transform="translate(28.38625 105.127065)scale(0.12 -0.12)">
       <use xlink:href="#DejaVuSans-48"/>
       <use x="63.623047" xlink:href="#DejaVuSans-46"/>
       <use x="95.410156" xlink:href="#DejaVuSans-51"/>
      </g>
     </g>
    </g>
    <g id="ytick_5">
     <g id="line2d_10">
      <g>
       <use style="stroke:#000000;stroke-width:0.8;" x="54.47" xlink:href="#md5f9e7ce9d" y="75.837337"/>
      </g>
     </g>
     <g id="text_11">
      <!-- 0.4 -->
      <defs>
       <path d="M 37.796875 64.3125 
L 12.890625 25.390625 
L 37.796875 25.390625 
z
M 35.203125 72.90625 
L 47.609375 72.90625 
L 47.609375 25.390625 
L 58.015625 25.390625 
L 58.015625 17.1875 
L 47.609375 17.1875 
L 47.609375 0 
L 37.796875 0 
L 37.796875 17.1875 
L 4.890625 17.1875 
L 4.890625 26.703125 
z
" id="DejaVuSans-52"/>
      </defs>
      <g transform="translate(28.38625 80.3964)scale(0.12 -0.12)">
       <use xlink:href="#DejaVuSans-48"/>
       <use x="63.623047" xlink:href="#DejaVuSans-46"/>
       <use x="95.410156" xlink:href="#DejaVuSans-52"/>
      </g>
     </g>
    </g>
    <g id="ytick_6">
     <g id="line2d_11">
      <g>
       <use style="stroke:#000000;stroke-width:0.8;" x="54.47" xlink:href="#md5f9e7ce9d" y="51.106671"/>
      </g>
     </g>
     <g id="text_12">
      <!-- 0.5 -->
      <g transform="translate(28.38625 55.665734)scale(0.12 -0.12)">
       <use xlink:href="#DejaVuSans-48"/>
       <use x="63.623047" xlink:href="#DejaVuSans-46"/>
       <use x="95.410156" xlink:href="#DejaVuSans-53"/>
      </g>
     </g>
    </g>
    <g id="text_13">
     <!-- Num. Act. Cells Moving Var. -->
     <defs>
      <path d="M 9.8125 72.90625 
L 23.09375 72.90625 
L 55.421875 11.921875 
L 55.421875 72.90625 
L 64.984375 72.90625 
L 64.984375 0 
L 51.703125 0 
L 19.390625 60.984375 
L 19.390625 0 
L 9.8125 0 
z
" id="DejaVuSans-78"/>
      <path d="M 8.5 21.578125 
L 8.5 54.6875 
L 17.484375 54.6875 
L 17.484375 21.921875 
Q 17.484375 14.15625 20.5 10.265625 
Q 23.53125 6.390625 29.59375 6.390625 
Q 36.859375 6.390625 41.078125 11.03125 
Q 45.3125 15.671875 45.3125 23.6875 
L 45.3125 54.6875 
L 54.296875 54.6875 
L 54.296875 0 
L 45.3125 0 
L 45.3125 8.40625 
Q 42.046875 3.421875 37.71875 1 
Q 33.40625 -1.421875 27.6875 -1.421875 
Q 18.265625 -1.421875 13.375 4.4375 
Q 8.5 10.296875 8.5 21.578125 
z
M 31.109375 56 
z
" id="DejaVuSans-117"/>
      <path d="M 34.1875 63.1875 
L 20.796875 26.90625 
L 47.609375 26.90625 
z
M 28.609375 72.90625 
L 39.796875 72.90625 
L 67.578125 0 
L 57.328125 0 
L 50.6875 18.703125 
L 17.828125 18.703125 
L 11.1875 0 
L 0.78125 0 
z
" id="DejaVuSans-65"/>
      <path d="M 48.78125 52.59375 
L 48.78125 44.1875 
Q 44.96875 46.296875 41.140625 47.34375 
Q 37.3125 48.390625 33.40625 48.390625 
Q 24.65625 48.390625 19.8125 42.84375 
Q 14.984375 37.3125 14.984375 27.296875 
Q 14.984375 17.28125 19.8125 11.734375 
Q 24.65625 6.203125 33.40625 6.203125 
Q 37.3125 6.203125 41.140625 7.25 
Q 44.96875 8.296875 48.78125 10.40625 
L 48.78125 2.09375 
Q 45.015625 0.34375 40.984375 -0.53125 
Q 36.96875 -1.421875 32.421875 -1.421875 
Q 20.0625 -1.421875 12.78125 6.34375 
Q 5.515625 14.109375 5.515625 27.296875 
Q 5.515625 40.671875 12.859375 48.328125 
Q 20.21875 56 33.015625 56 
Q 37.15625 56 41.109375 55.140625 
Q 45.0625 54.296875 48.78125 52.59375 
z
" id="DejaVuSans-99"/>
      <path d="M 18.3125 70.21875 
L 18.3125 54.6875 
L 36.8125 54.6875 
L 36.8125 47.703125 
L 18.3125 47.703125 
L 18.3125 18.015625 
Q 18.3125 11.328125 20.140625 9.421875 
Q 21.96875 7.515625 27.59375 7.515625 
L 36.8125 7.515625 
L 36.8125 0 
L 27.59375 0 
Q 17.1875 0 13.234375 3.875 
Q 9.28125 7.765625 9.28125 18.015625 
L 9.28125 47.703125 
L 2.6875 47.703125 
L 2.6875 54.6875 
L 9.28125 54.6875 
L 9.28125 70.21875 
z
" id="DejaVuSans-116"/>
      <path d="M 64.40625 67.28125 
L 64.40625 56.890625 
Q 59.421875 61.53125 53.78125 63.8125 
Q 48.140625 66.109375 41.796875 66.109375 
Q 29.296875 66.109375 22.65625 58.46875 
Q 16.015625 50.828125 16.015625 36.375 
Q 16.015625 21.96875 22.65625 14.328125 
Q 29.296875 6.6875 41.796875 6.6875 
Q 48.140625 6.6875 53.78125 8.984375 
Q 59.421875 11.28125 64.40625 15.921875 
L 64.40625 5.609375 
Q 59.234375 2.09375 53.4375 0.328125 
Q 47.65625 -1.421875 41.21875 -1.421875 
Q 24.65625 -1.421875 15.125 8.703125 
Q 5.609375 18.84375 5.609375 36.375 
Q 5.609375 53.953125 15.125 64.078125 
Q 24.65625 74.21875 41.21875 74.21875 
Q 47.75 74.21875 53.53125 72.484375 
Q 59.328125 70.75 64.40625 67.28125 
z
" id="DejaVuSans-67"/>
      <path d="M 9.421875 75.984375 
L 18.40625 75.984375 
L 18.40625 0 
L 9.421875 0 
z
" id="DejaVuSans-108"/>
      <path d="M 9.8125 72.90625 
L 24.515625 72.90625 
L 43.109375 23.296875 
L 61.8125 72.90625 
L 76.515625 72.90625 
L 76.515625 0 
L 66.890625 0 
L 66.890625 64.015625 
L 48.09375 14.015625 
L 38.1875 14.015625 
L 19.390625 64.015625 
L 19.390625 0 
L 9.8125 0 
z
" id="DejaVuSans-77"/>
      <path d="M 30.609375 48.390625 
Q 23.390625 48.390625 19.1875 42.75 
Q 14.984375 37.109375 14.984375 27.296875 
Q 14.984375 17.484375 19.15625 11.84375 
Q 23.34375 6.203125 30.609375 6.203125 
Q 37.796875 6.203125 41.984375 11.859375 
Q 46.1875 17.53125 46.1875 27.296875 
Q 46.1875 37.015625 41.984375 42.703125 
Q 37.796875 48.390625 30.609375 48.390625 
z
M 30.609375 56 
Q 42.328125 56 49.015625 48.375 
Q 55.71875 40.765625 55.71875 27.296875 
Q 55.71875 13.875 49.015625 6.21875 
Q 42.328125 -1.421875 30.609375 -1.421875 
Q 18.84375 -1.421875 12.171875 6.21875 
Q 5.515625 13.875 5.515625 27.296875 
Q 5.515625 40.765625 12.171875 48.375 
Q 18.84375 56 30.609375 56 
z
" id="DejaVuSans-111"/>
      <path d="M 2.984375 54.6875 
L 12.5 54.6875 
L 29.59375 8.796875 
L 46.6875 54.6875 
L 56.203125 54.6875 
L 35.6875 0 
L 23.484375 0 
z
" id="DejaVuSans-118"/>
      <path d="M 54.890625 33.015625 
L 54.890625 0 
L 45.90625 0 
L 45.90625 32.71875 
Q 45.90625 40.484375 42.875 44.328125 
Q 39.84375 48.1875 33.796875 48.1875 
Q 26.515625 48.1875 22.3125 43.546875 
Q 18.109375 38.921875 18.109375 30.90625 
L 18.109375 0 
L 9.078125 0 
L 9.078125 54.6875 
L 18.109375 54.6875 
L 18.109375 46.1875 
Q 21.34375 51.125 25.703125 53.5625 
Q 30.078125 56 35.796875 56 
Q 45.21875 56 50.046875 50.171875 
Q 54.890625 44.34375 54.890625 33.015625 
z
" id="DejaVuSans-110"/>
      <path d="M 45.40625 27.984375 
Q 45.40625 37.75 41.375 43.109375 
Q 37.359375 48.484375 30.078125 48.484375 
Q 22.859375 48.484375 18.828125 43.109375 
Q 14.796875 37.75 14.796875 27.984375 
Q 14.796875 18.265625 18.828125 12.890625 
Q 22.859375 7.515625 30.078125 7.515625 
Q 37.359375 7.515625 41.375 12.890625 
Q 45.40625 18.265625 45.40625 27.984375 
z
M 54.390625 6.78125 
Q 54.390625 -7.171875 48.1875 -13.984375 
Q 42 -20.796875 29.203125 -20.796875 
Q 24.46875 -20.796875 20.265625 -20.09375 
Q 16.0625 -19.390625 12.109375 -17.921875 
L 12.109375 -9.1875 
Q 16.0625 -11.328125 19.921875 -12.34375 
Q 23.78125 -13.375 27.78125 -13.375 
Q 36.625 -13.375 41.015625 -8.765625 
Q 45.40625 -4.15625 45.40625 5.171875 
L 45.40625 9.625 
Q 42.625 4.78125 38.28125 2.390625 
Q 33.9375 0 27.875 0 
Q 17.828125 0 11.671875 7.65625 
Q 5.515625 15.328125 5.515625 27.984375 
Q 5.515625 40.671875 11.671875 48.328125 
Q 17.828125 56 27.875 56 
Q 33.9375 56 38.28125 53.609375 
Q 42.625 51.21875 45.40625 46.390625 
L 45.40625 54.6875 
L 54.390625 54.6875 
z
" id="DejaVuSans-103"/>
      <path d="M 28.609375 0 
L 0.78125 72.90625 
L 11.078125 72.90625 
L 34.1875 11.53125 
L 57.328125 72.90625 
L 67.578125 72.90625 
L 39.796875 0 
z
" id="DejaVuSans-86"/>
      <path d="M 34.28125 27.484375 
Q 23.390625 27.484375 19.1875 25 
Q 14.984375 22.515625 14.984375 16.5 
Q 14.984375 11.71875 18.140625 8.90625 
Q 21.296875 6.109375 26.703125 6.109375 
Q 34.1875 6.109375 38.703125 11.40625 
Q 43.21875 16.703125 43.21875 25.484375 
L 43.21875 27.484375 
z
M 52.203125 31.203125 
L 52.203125 0 
L 43.21875 0 
L 43.21875 8.296875 
Q 40.140625 3.328125 35.546875 0.953125 
Q 30.953125 -1.421875 24.3125 -1.421875 
Q 15.921875 -1.421875 10.953125 3.296875 
Q 6 8.015625 6 15.921875 
Q 6 25.140625 12.171875 29.828125 
Q 18.359375 34.515625 30.609375 34.515625 
L 43.21875 34.515625 
L 43.21875 35.40625 
Q 43.21875 41.609375 39.140625 45 
Q 35.0625 48.390625 27.6875 48.390625 
Q 23 48.390625 18.546875 47.265625 
Q 14.109375 46.140625 10.015625 43.890625 
L 10.015625 52.203125 
Q 14.9375 54.109375 19.578125 55.046875 
Q 24.21875 56 28.609375 56 
Q 40.484375 56 46.34375 49.84375 
Q 52.203125 43.703125 52.203125 31.203125 
z
" id="DejaVuSans-97"/>
      <path d="M 41.109375 46.296875 
Q 39.59375 47.171875 37.8125 47.578125 
Q 36.03125 48 33.890625 48 
Q 26.265625 48 22.1875 43.046875 
Q 18.109375 38.09375 18.109375 28.8125 
L 18.109375 0 
L 9.078125 0 
L 9.078125 54.6875 
L 18.109375 54.6875 
L 18.109375 46.1875 
Q 20.953125 51.171875 25.484375 53.578125 
Q 30.03125 56 36.53125 56 
Q 37.453125 56 38.578125 55.875 
Q 39.703125 55.765625 41.0625 55.515625 
z
" id="DejaVuSans-114"/>
     </defs>
     <g transform="translate(21.3915 201.008)rotate(-90)scale(0.144 -0.144)">
      <use xlink:href="#DejaVuSans-78"/>
      <use x="74.804688" xlink:href="#DejaVuSans-117"/>
      <use x="138.183594" xlink:href="#DejaVuSans-109"/>
      <use x="235.595703" xlink:href="#DejaVuSans-46"/>
      <use x="267.382812" xlink:href="#DejaVuSans-32"/>
      <use x="299.169922" xlink:href="#DejaVuSans-65"/>
      <use x="367.5625" xlink:href="#DejaVuSans-99"/>
      <use x="422.542969" xlink:href="#DejaVuSans-116"/>
      <use x="461.751953" xlink:href="#DejaVuSans-46"/>
      <use x="493.539062" xlink:href="#DejaVuSans-32"/>
      <use x="525.326172" xlink:href="#DejaVuSans-67"/>
      <use x="595.150391" xlink:href="#DejaVuSans-101"/>
      <use x="656.673828" xlink:href="#DejaVuSans-108"/>
      <use x="684.457031" xlink:href="#DejaVuSans-108"/>
      <use x="712.240234" xlink:href="#DejaVuSans-115"/>
      <use x="764.339844" xlink:href="#DejaVuSans-32"/>
      <use x="796.126953" xlink:href="#DejaVuSans-77"/>
      <use x="882.40625" xlink:href="#DejaVuSans-111"/>
      <use x="943.587891" xlink:href="#DejaVuSans-118"/>
      <use x="1002.767578" xlink:href="#DejaVuSans-105"/>
      <use x="1030.550781" xlink:href="#DejaVuSans-110"/>
      <use x="1093.929688" xlink:href="#DejaVuSans-103"/>
      <use x="1157.40625" xlink:href="#DejaVuSans-32"/>
      <use x="1189.193359" xlink:href="#DejaVuSans-86"/>
      <use x="1257.492188" xlink:href="#DejaVuSans-97"/>
      <use x="1318.771484" xlink:href="#DejaVuSans-114"/>
      <use x="1359.744141" xlink:href="#DejaVuSans-46"/>
     </g>
    </g>
   </g>
   <g id="line2d_12">
    <path clip-path="url(#pf19cef8d10)" d="M 54.47 77.929551 
L 56.201288 76.386358 
L 57.932576 74.462312 
L 59.663864 75.899164 
L 61.395153 78.401907 
L 63.126441 77.699556 
L 64.857729 78.013636 
L 66.589017 75.246274 
L 68.320305 72.926538 
L 70.051593 76.302274 
L 71.782881 75.132513 
L 73.514169 78.715987 
L 75.245458 81.770224 
L 76.976746 83.189764 
L 78.708034 86.674315 
L 80.439322 96.437982 
L 82.17061 98.955563 
L 83.901898 101.05767 
L 85.633186 105.929611 
L 87.364475 109.446312 
L 89.095763 109.337497 
L 90.827051 102.128508 
L 92.558339 96.574 
L 94.289627 92.060654 
L 96.020915 86.59765 
L 97.752203 83.714054 
L 99.483492 81.085184 
L 101.21478 77.781167 
L 102.946068 74.237263 
L 104.677356 73.386528 
L 106.408644 77.833102 
L 108.139932 81.607001 
L 109.87122 87.626445 
L 111.602508 92.12248 
L 113.333797 97.071087 
L 115.065085 100.941436 
L 116.796373 101.102185 
L 118.527661 98.950617 
L 120.258949 104.097069 
L 121.990237 106.149714 
L 123.721525 105.254464 
L 125.452814 103.288376 
L 127.184102 105.064038 
L 128.91539 100.592733 
L 130.646678 97.286243 
L 132.377966 92.379679 
L 134.109254 91.024439 
L 135.840542 97.617634 
L 137.571831 88.749218 
L 139.303119 85.655411 
L 142.765695 75.713684 
L 144.496983 69.634886 
L 146.228271 73.663512 
L 147.959559 74.652738 
L 149.690847 76.601515 
L 151.422136 77.110966 
L 153.153424 78.038366 
L 154.884712 84.109745 
L 156.616 86.755926 
L 158.347288 93.925346 
L 161.809864 102.321407 
L 163.541153 97.733869 
L 165.272441 92.342583 
L 167.003729 89.308131 
L 168.735017 88.269443 
L 170.466305 86.96861 
L 172.197593 86.523458 
L 173.928881 87.480535 
L 175.660169 86.602596 
L 177.391458 87.67838 
L 179.122746 85.343805 
L 180.854034 87.369247 
L 182.585322 87.559673 
L 184.31661 90.265207 
L 186.047898 91.162931 
L 187.779186 93.319445 
L 189.510475 102.548929 
L 191.241763 101.972705 
L 192.973051 96.724857 
L 194.704339 95.077795 
L 196.435627 95.18661 
L 198.166915 96.371209 
L 199.898203 97.958918 
L 201.629492 97.157644 
L 203.36078 97.157644 
L 205.092068 99.121259 
L 206.823356 93.079557 
L 208.554644 91.909797 
L 210.285932 96.480024 
L 212.01722 93.893196 
L 213.748508 92.688813 
L 215.479797 83.513736 
L 220.673661 93.032569 
L 222.404949 87.675907 
L 224.136237 89.545545 
L 225.867525 92.990527 
L 227.598814 91.113469 
L 229.330102 96.789157 
L 231.06139 96.057129 
L 232.792678 105.130811 
L 234.523966 97.748707 
L 236.255254 97.493981 
L 237.986542 94.274048 
L 239.717831 97.963864 
L 241.449119 101.935609 
L 243.180407 100.115432 
L 244.911695 102.45248 
L 246.642983 97.335705 
L 248.374271 94.736512 
L 250.105559 95.21876 
L 251.836847 101.092293 
L 253.568136 98.730514 
L 255.299424 98.15429 
L 257.030712 95.142095 
L 258.762 93.04988 
L 260.493288 95.09758 
L 262.224576 97.486562 
L 263.955864 101.601745 
L 265.687153 105.217368 
L 267.418441 105.078876 
L 269.149729 103.676647 
L 270.881017 104.092123 
L 272.612305 107.566781 
L 274.343593 101.530026 
L 276.074881 98.221063 
L 277.806169 95.238544 
L 279.537458 89.147381 
L 281.268746 79.116623 
L 283.000034 78.886628 
L 284.731322 78.827275 
L 286.46261 70.010792 
L 288.193898 71.26711 
L 289.925186 70.267991 
L 291.656475 76.284962 
L 293.387763 73.00073 
L 295.119051 74.358443 
L 296.850339 74.469731 
L 298.581627 79.220492 
L 300.312915 82.138711 
L 302.044203 83.268902 
L 303.775492 92.854508 
L 305.50678 89.864571 
L 307.238068 86.422062 
L 308.969356 84.577154 
L 310.700644 86.189594 
L 312.431932 80.157784 
L 315.894508 84.344686 
L 317.625797 81.270664 
L 319.357085 82.183226 
L 321.088373 81.982908 
L 322.819661 78.975659 
L 324.550949 75.540569 
L 326.282237 67.797398 
L 328.013525 70.045415 
L 329.744814 74.870368 
L 331.476102 70.609274 
L 333.20739 67.495684 
L 334.938678 72.8474 
L 336.669966 70.950558 
L 338.401254 73.334594 
L 341.863831 81.018412 
L 343.595119 85.92003 
L 345.326407 85.249828 
L 347.057695 85.395739 
L 348.788983 89.592533 
L 350.520271 97.84763 
L 352.251559 97.555808 
L 353.982847 102.155712 
L 355.714136 100.652087 
L 357.445424 100.71886 
L 359.176712 102.306569 
L 360.908 103.721163 
L 362.639288 100.014036 
L 364.370576 99.850814 
L 366.101864 98.693418 
L 367.833153 95.765308 
L 369.564441 90.280046 
L 371.295729 86.075833 
L 373.027017 80.736482 
L 374.758305 78.265888 
L 376.489593 80.199827 
L 378.220881 79.784351 
L 379.952169 82.052153 
L 381.683458 80.283911 
L 383.414746 81.594636 
L 385.146034 78.943509 
L 386.877322 82.188172 
L 388.60861 84.512855 
L 390.339898 90.181123 
L 392.071186 91.098631 
L 393.802475 82.131292 
L 395.533763 81.433887 
L 397.265051 74.778865 
L 398.996339 70.037996 
L 400.727627 59.354348 
L 402.458915 60.447444 
L 404.190203 51.398493 
L 405.921492 51.52462 
L 407.65278 50.293032 
L 409.384068 50.753023 
L 411.115356 55.50873 
L 412.846644 56.211081 
L 414.577932 60.709589 
L 416.30922 66.108293 
L 418.040508 76.905702 
L 419.771797 81.555067 
L 421.503085 87.601715 
L 423.234373 87.253012 
L 424.965661 84.730484 
L 426.696949 84.668658 
L 428.428237 87.337097 
L 430.159525 82.915254 
L 431.890814 82.883104 
L 433.622102 82.492359 
L 435.35339 85.034672 
L 437.084678 84.480705 
L 438.815966 87.300001 
L 440.547254 89.649414 
L 442.278542 95.072849 
L 444.009831 98.535142 
L 445.741119 100.229193 
L 447.472407 102.840751 
L 449.203695 109.00116 
L 450.934983 109.663942 
L 452.666271 105.53392 
L 454.397559 103.271065 
L 456.128847 96.571527 
L 457.860136 93.598901 
L 459.591424 93.964915 
L 461.322712 93.198264 
L 463.054 93.863519 
L 464.785288 98.73546 
L 466.516576 95.916165 
L 468.247864 98.836856 
L 469.979153 103.209238 
L 471.710441 105.47704 
L 473.441729 110.799079 
L 475.173017 114.84007 
L 476.904305 112.977851 
L 478.635593 112.099912 
L 480.366881 110.128878 
L 482.098169 109.349862 
L 483.829458 112.567322 
L 485.560746 106.728412 
L 487.292034 102.123562 
L 489.023322 101.037885 
L 490.75461 102.076573 
L 492.485898 101.918297 
L 494.217186 96.996895 
L 495.948475 93.685459 
L 497.679763 93.487613 
L 499.411051 89.090501 
L 501.142339 85.744442 
L 502.873627 87.915794 
L 504.604915 91.932054 
L 506.336203 94.115772 
L 508.067492 93.70277 
L 509.79878 91.538837 
L 511.530068 99.2919 
L 513.261356 103.117734 
L 514.992644 106.666585 
L 518.45522 111.543472 
L 520.186508 111.00929 
L 521.917797 107.584093 
L 523.649085 106.055738 
L 525.380373 104.213303 
L 527.111661 104.374052 
L 528.842949 101.972705 
L 530.574237 101.314869 
L 532.305525 97.231836 
L 534.036814 100.006617 
L 535.768102 99.882963 
L 537.49939 99.254804 
L 539.230678 94.840381 
L 540.961966 91.269273 
L 542.693254 90.957666 
L 544.424542 85.563908 
L 546.155831 82.616013 
L 547.887119 74.942087 
L 549.618407 72.112899 
L 551.349695 68.813828 
L 553.080983 66.481726 
L 554.812271 61.713654 
L 556.543559 63.734149 
L 558.274847 60.271856 
L 560.006136 55.528514 
L 561.737424 58.387379 
L 563.468712 60.311425 
L 565.2 67.550091 
L 565.2 67.550091 
" style="fill:none;stroke:#0000ff;stroke-linecap:square;stroke-width:1.5;"/>
   </g>
   <g id="patch_3">
    <path d="M 54.47 174.76 
L 54.47 26.88 
" style="fill:none;stroke:#000000;stroke-linecap:square;stroke-linejoin:miter;stroke-width:0.8;"/>
   </g>
   <g id="patch_4">
    <path d="M 565.2 174.76 
L 565.2 26.88 
" style="fill:none;stroke:#000000;stroke-linecap:square;stroke-linejoin:miter;stroke-width:0.8;"/>
   </g>
   <g id="patch_5">
    <path d="M 54.47 174.76 
L 565.2 174.76 
" style="fill:none;stroke:#000000;stroke-linecap:square;stroke-linejoin:miter;stroke-width:0.8;"/>
   </g>
   <g id="patch_6">
    <path d="M 54.47 26.88 
L 565.2 26.88 
" style="fill:none;stroke:#000000;stroke-linecap:square;stroke-linejoin:miter;stroke-width:0.8;"/>
   </g>
   <g id="text_14">
    <!-- V1, Num Trials=10 All unstimulated trials, Num cells = 160 -->
    <defs>
     <path d="M 11.71875 12.40625 
L 22.015625 12.40625 
L 22.015625 4 
L 14.015625 -11.625 
L 7.71875 -11.625 
L 11.71875 4 
z
" id="DejaVuSans-44"/>
     <path d="M 10.59375 45.40625 
L 73.1875 45.40625 
L 73.1875 37.203125 
L 10.59375 37.203125 
z
M 10.59375 25.484375 
L 73.1875 25.484375 
L 73.1875 17.1875 
L 10.59375 17.1875 
z
" id="DejaVuSans-61"/>
     <path d="M 45.40625 46.390625 
L 45.40625 75.984375 
L 54.390625 75.984375 
L 54.390625 0 
L 45.40625 0 
L 45.40625 8.203125 
Q 42.578125 3.328125 38.25 0.953125 
Q 33.9375 -1.421875 27.875 -1.421875 
Q 17.96875 -1.421875 11.734375 6.484375 
Q 5.515625 14.40625 5.515625 27.296875 
Q 5.515625 40.1875 11.734375 48.09375 
Q 17.96875 56 27.875 56 
Q 33.9375 56 38.25 53.625 
Q 42.578125 51.265625 45.40625 46.390625 
z
M 14.796875 27.296875 
Q 14.796875 17.390625 18.875 11.75 
Q 22.953125 6.109375 30.078125 6.109375 
Q 37.203125 6.109375 41.296875 11.75 
Q 45.40625 17.390625 45.40625 27.296875 
Q 45.40625 37.203125 41.296875 42.84375 
Q 37.203125 48.484375 30.078125 48.484375 
Q 22.953125 48.484375 18.875 42.84375 
Q 14.796875 37.203125 14.796875 27.296875 
z
" id="DejaVuSans-100"/>
     <path d="M 33.015625 40.375 
Q 26.375 40.375 22.484375 35.828125 
Q 18.609375 31.296875 18.609375 23.390625 
Q 18.609375 15.53125 22.484375 10.953125 
Q 26.375 6.390625 33.015625 6.390625 
Q 39.65625 6.390625 43.53125 10.953125 
Q 47.40625 15.53125 47.40625 23.390625 
Q 47.40625 31.296875 43.53125 35.828125 
Q 39.65625 40.375 33.015625 40.375 
z
M 52.59375 71.296875 
L 52.59375 62.3125 
Q 48.875 64.0625 45.09375 64.984375 
Q 41.3125 65.921875 37.59375 65.921875 
Q 27.828125 65.921875 22.671875 59.328125 
Q 17.53125 52.734375 16.796875 39.40625 
Q 19.671875 43.65625 24.015625 45.921875 
Q 28.375 48.1875 33.59375 48.1875 
Q 44.578125 48.1875 50.953125 41.515625 
Q 57.328125 34.859375 57.328125 23.390625 
Q 57.328125 12.15625 50.6875 5.359375 
Q 44.046875 -1.421875 33.015625 -1.421875 
Q 20.359375 -1.421875 13.671875 8.265625 
Q 6.984375 17.96875 6.984375 36.375 
Q 6.984375 53.65625 15.1875 63.9375 
Q 23.390625 74.21875 37.203125 74.21875 
Q 40.921875 74.21875 44.703125 73.484375 
Q 48.484375 72.75 52.59375 71.296875 
z
" id="DejaVuSans-54"/>
    </defs>
    <g transform="translate(131.831875 20.88)scale(0.12 -0.12)">
     <use xlink:href="#DejaVuSans-86"/>
     <use x="68.408203" xlink:href="#DejaVuSans-49"/>
     <use x="132.03125" xlink:href="#DejaVuSans-44"/>
     <use x="163.818359" xlink:href="#DejaVuSans-32"/>
     <use x="195.605469" xlink:href="#DejaVuSans-78"/>
     <use x="270.410156" xlink:href="#DejaVuSans-117"/>
     <use x="333.789062" xlink:href="#DejaVuSans-109"/>
     <use x="431.201172" xlink:href="#DejaVuSans-32"/>
     <use x="462.988281" xlink:href="#DejaVuSans-84"/>
     <use x="523.853516" xlink:href="#DejaVuSans-114"/>
     <use x="564.966797" xlink:href="#DejaVuSans-105"/>
     <use x="592.75" xlink:href="#DejaVuSans-97"/>
     <use x="654.029297" xlink:href="#DejaVuSans-108"/>
     <use x="681.8125" xlink:href="#DejaVuSans-115"/>
     <use x="733.912109" xlink:href="#DejaVuSans-61"/>
     <use x="817.701172" xlink:href="#DejaVuSans-49"/>
     <use x="881.324219" xlink:href="#DejaVuSans-48"/>
     <use x="944.947266" xlink:href="#DejaVuSans-32"/>
     <use x="976.734375" xlink:href="#DejaVuSans-65"/>
     <use x="1045.142578" xlink:href="#DejaVuSans-108"/>
     <use x="1072.925781" xlink:href="#DejaVuSans-108"/>
     <use x="1100.708984" xlink:href="#DejaVuSans-32"/>
     <use x="1132.496094" xlink:href="#DejaVuSans-117"/>
     <use x="1195.875" xlink:href="#DejaVuSans-110"/>
     <use x="1259.253906" xlink:href="#DejaVuSans-115"/>
     <use x="1311.353516" xlink:href="#DejaVuSans-116"/>
     <use x="1350.5625" xlink:href="#DejaVuSans-105"/>
     <use x="1378.345703" xlink:href="#DejaVuSans-109"/>
     <use x="1475.757812" xlink:href="#DejaVuSans-117"/>
     <use x="1539.136719" xlink:href="#DejaVuSans-108"/>
     <use x="1566.919922" xlink:href="#DejaVuSans-97"/>
     <use x="1628.199219" xlink:href="#DejaVuSans-116"/>
     <use x="1667.408203" xlink:href="#DejaVuSans-101"/>
     <use x="1728.931641" xlink:href="#DejaVuSans-100"/>
     <use x="1792.408203" xlink:href="#DejaVuSans-32"/>
     <use x="1824.195312" xlink:href="#DejaVuSans-116"/>
     <use x="1863.404297" xlink:href="#DejaVuSans-114"/>
     <use x="1904.517578" xlink:href="#DejaVuSans-105"/>
     <use x="1932.300781" xlink:href="#DejaVuSans-97"/>
     <use x="1993.580078" xlink:href="#DejaVuSans-108"/>
     <use x="2021.363281" xlink:href="#DejaVuSans-115"/>
     <use x="2073.462891" xlink:href="#DejaVuSans-44"/>
     <use x="2105.25" xlink:href="#DejaVuSans-32"/>
     <use x="2137.037109" xlink:href="#DejaVuSans-78"/>
     <use x="2211.841797" xlink:href="#DejaVuSans-117"/>
     <use x="2275.220703" xlink:href="#DejaVuSans-109"/>
     <use x="2372.632812" xlink:href="#DejaVuSans-32"/>
     <use x="2404.419922" xlink:href="#DejaVuSans-99"/>
     <use x="2459.400391" xlink:href="#DejaVuSans-101"/>
     <use x="2520.923828" xlink:href="#DejaVuSans-108"/>
     <use x="2548.707031" xlink:href="#DejaVuSans-108"/>
     <use x="2576.490234" xlink:href="#DejaVuSans-115"/>
     <use x="2628.589844" xlink:href="#DejaVuSans-32"/>
     <use x="2660.376953" xlink:href="#DejaVuSans-61"/>
     <use x="2744.166016" xlink:href="#DejaVuSans-32"/>
     <use x="2775.953125" xlink:href="#DejaVuSans-49"/>
     <use x="2839.576172" xlink:href="#DejaVuSans-54"/>
     <use x="2903.199219" xlink:href="#DejaVuSans-48"/>
    </g>
   </g>
   <g id="legend_1">
    <g id="patch_7">
     <path d="M 62.87 168.76 
L 172.71875 168.76 
Q 175.11875 168.76 175.11875 166.36 
L 175.11875 132.3325 
Q 175.11875 129.9325 172.71875 129.9325 
L 62.87 129.9325 
Q 60.47 129.9325 60.47 132.3325 
L 60.47 166.36 
Q 60.47 168.76 62.87 168.76 
z
" style="fill:#ffffff;opacity:0.8;stroke:#cccccc;stroke-linejoin:miter;"/>
    </g>
    <g id="line2d_13">
     <path d="M 65.27 139.650625 
L 89.27 139.650625 
" style="fill:none;stroke:#0000ff;stroke-linecap:square;stroke-width:1.5;"/>
    </g>
    <g id="line2d_14"/>
    <g id="text_15">
     <!-- Moving Var. -->
     <g transform="translate(98.87 143.850625)scale(0.12 -0.12)">
      <use xlink:href="#DejaVuSans-77"/>
      <use x="86.279297" xlink:href="#DejaVuSans-111"/>
      <use x="147.460938" xlink:href="#DejaVuSans-118"/>
      <use x="206.640625" xlink:href="#DejaVuSans-105"/>
      <use x="234.423828" xlink:href="#DejaVuSans-110"/>
      <use x="297.802734" xlink:href="#DejaVuSans-103"/>
      <use x="361.279297" xlink:href="#DejaVuSans-32"/>
      <use x="393.066406" xlink:href="#DejaVuSans-86"/>
      <use x="461.365234" xlink:href="#DejaVuSans-97"/>
      <use x="522.644531" xlink:href="#DejaVuSans-114"/>
      <use x="563.617188" xlink:href="#DejaVuSans-46"/>
     </g>
    </g>
    <g id="patch_8">
     <path d="M 65.27 161.464375 
L 89.27 161.464375 
L 89.27 153.064375 
L 65.27 153.064375 
z
" style="fill:#0000ff;opacity:0.3;stroke:#0000ff;stroke-linejoin:miter;"/>
    </g>
    <g id="text_16">
     <!-- Std. Err. -->
     <defs>
      <path d="M 53.515625 70.515625 
L 53.515625 60.890625 
Q 47.90625 63.578125 42.921875 64.890625 
Q 37.9375 66.21875 33.296875 66.21875 
Q 25.25 66.21875 20.875 63.09375 
Q 16.5 59.96875 16.5 54.203125 
Q 16.5 49.359375 19.40625 46.890625 
Q 22.3125 44.4375 30.421875 42.921875 
L 36.375 41.703125 
Q 47.40625 39.59375 52.65625 34.296875 
Q 57.90625 29 57.90625 20.125 
Q 57.90625 9.515625 50.796875 4.046875 
Q 43.703125 -1.421875 29.984375 -1.421875 
Q 24.8125 -1.421875 18.96875 -0.25 
Q 13.140625 0.921875 6.890625 3.21875 
L 6.890625 13.375 
Q 12.890625 10.015625 18.65625 8.296875 
Q 24.421875 6.59375 29.984375 6.59375 
Q 38.421875 6.59375 43.015625 9.90625 
Q 47.609375 13.234375 47.609375 19.390625 
Q 47.609375 24.75 44.3125 27.78125 
Q 41.015625 30.8125 33.5 32.328125 
L 27.484375 33.5 
Q 16.453125 35.6875 11.515625 40.375 
Q 6.59375 45.0625 6.59375 53.421875 
Q 6.59375 63.09375 13.40625 68.65625 
Q 20.21875 74.21875 32.171875 74.21875 
Q 37.3125 74.21875 42.625 73.28125 
Q 47.953125 72.359375 53.515625 70.515625 
z
" id="DejaVuSans-83"/>
      <path d="M 9.8125 72.90625 
L 55.90625 72.90625 
L 55.90625 64.59375 
L 19.671875 64.59375 
L 19.671875 43.015625 
L 54.390625 43.015625 
L 54.390625 34.71875 
L 19.671875 34.71875 
L 19.671875 8.296875 
L 56.78125 8.296875 
L 56.78125 0 
L 9.8125 0 
z
" id="DejaVuSans-69"/>
     </defs>
     <g transform="translate(98.87 161.464375)scale(0.12 -0.12)">
      <use xlink:href="#DejaVuSans-83"/>
      <use x="63.476562" xlink:href="#DejaVuSans-116"/>
      <use x="102.685547" xlink:href="#DejaVuSans-100"/>
      <use x="166.162109" xlink:href="#DejaVuSans-46"/>
      <use x="197.949219" xlink:href="#DejaVuSans-32"/>
      <use x="229.736328" xlink:href="#DejaVuSans-69"/>
      <use x="292.919922" xlink:href="#DejaVuSans-114"/>
      <use x="334.017578" xlink:href="#DejaVuSans-114"/>
      <use x="374.990234" xlink:href="#DejaVuSans-46"/>
     </g>
    </g>
   </g>
  </g>
 </g>
 <defs>
  <clipPath id="pf19cef8d10">
   <rect height="147.88" width="510.73" x="54.47" y="26.88"/>
  </clipPath>
 </defs>
</svg>
