<?xml version="1.0" encoding="utf-8" standalone="no"?>
<!DOCTYPE svg PUBLIC "-//W3C//DTD SVG 1.1//EN"
  "http://www.w3.org/Graphics/SVG/1.1/DTD/svg11.dtd">
<!-- Created with matplotlib (https://matplotlib.org/) -->
<svg height="223.2pt" version="1.1" viewBox="0 0 576 223.2" width="576pt" xmlns="http://www.w3.org/2000/svg" xmlns:xlink="http://www.w3.org/1999/xlink">
 <defs>
  <style type="text/css">
*{stroke-linecap:butt;stroke-linejoin:round;}
  </style>
 </defs>
 <g id="figure_1">
  <g id="patch_1">
   <path d="M 0 223.2 
L 576 223.2 
L 576 0 
L 0 0 
z
" style="fill:#ffffff;"/>
  </g>
  <g id="axes_1">
   <g id="patch_2">
    <path d="M 72.47 174.76 
L 565.2 174.76 
L 565.2 26.88 
L 72.47 26.88 
z
" style="fill:#ffffff;"/>
   </g>
   <g id="PolyCollection_1">
    <defs>
     <path d="M 132.899151 -48.44 
L 132.899151 -196.32 
L 411.802925 -196.32 
L 411.802925 -48.44 
L 411.802925 -48.44 
L 132.899151 -48.44 
z
" id="m59289f81c1" style="stroke:#808080;stroke-opacity:0.3;"/>
    </defs>
    <g clip-path="url(#pc6f689e945)">
     <use style="fill:#808080;fill-opacity:0.3;stroke:#808080;stroke-opacity:0.3;" x="0" xlink:href="#m59289f81c1" y="223.2"/>
    </g>
   </g>
   <g id="PolyCollection_2">
    <defs>
     <path d="M 72.47 -153.505344 
L 72.47 -148.778304 
L 74.329358 -148.871756 
L 76.188717 -149.044592 
L 78.048075 -149.043427 
L 79.907434 -148.86096 
L 81.766792 -148.639482 
L 83.626151 -148.58497 
L 85.485509 -148.596409 
L 87.344868 -148.418393 
L 89.204226 -148.668127 
L 91.063585 -148.828835 
L 92.922943 -148.716238 
L 94.782302 -148.647162 
L 96.64166 -148.721566 
L 98.501019 -148.937701 
L 100.360377 -149.720178 
L 102.219736 -152.92876 
L 104.079094 -157.510303 
L 105.938453 -163.578052 
L 107.797811 -170.344723 
L 109.65717 -174.878535 
L 111.516528 -177.158855 
L 113.375887 -178.554324 
L 115.235245 -179.349648 
L 117.094604 -178.999994 
L 118.953962 -178.640202 
L 120.813321 -178.219328 
L 122.672679 -177.454631 
L 124.532038 -176.862232 
L 126.391396 -176.30657 
L 128.250755 -175.52885 
L 130.110113 -174.64494 
L 131.969472 -173.685791 
L 133.82883 -172.864835 
L 135.688189 -172.301009 
L 137.547547 -172.04368 
L 139.406906 -172.213549 
L 141.266264 -173.164612 
L 143.125623 -174.423097 
L 144.984981 -175.852918 
L 146.84434 -177.968645 
L 148.703698 -180.433837 
L 150.563057 -182.793378 
L 152.422415 -184.43331 
L 154.281774 -185.981843 
L 156.141132 -187.5188 
L 158.000491 -188.42693 
L 159.859849 -189.028341 
L 161.719208 -189.724021 
L 163.578566 -189.752321 
L 165.437925 -190.112871 
L 167.297283 -190.175671 
L 169.156642 -190.370889 
L 171.016 -190.499607 
L 172.875358 -190.73746 
L 174.734717 -190.075654 
L 176.594075 -187.247686 
L 178.453434 -182.944804 
L 180.312792 -176.943471 
L 182.172151 -170.562875 
L 184.031509 -166.333152 
L 185.890868 -164.34798 
L 187.750226 -162.984387 
L 189.609585 -162.575631 
L 191.468943 -162.995716 
L 193.328302 -163.657554 
L 195.18766 -164.338529 
L 197.047019 -165.201563 
L 198.906377 -165.876212 
L 200.765736 -166.518672 
L 202.625094 -167.30955 
L 204.484453 -168.19897 
L 206.343811 -169.18002 
L 208.20317 -169.559056 
L 210.062528 -170.007181 
L 211.921887 -170.334399 
L 213.781245 -170.042877 
L 215.640604 -169.457206 
L 217.499962 -168.473812 
L 219.359321 -167.369079 
L 221.218679 -165.671453 
L 223.078038 -163.434186 
L 224.937396 -161.519514 
L 226.796755 -160.007544 
L 228.656113 -158.71667 
L 230.515472 -157.275698 
L 232.37483 -156.733384 
L 234.234189 -156.183582 
L 236.093547 -155.887726 
L 237.952906 -155.963064 
L 239.812264 -156.109801 
L 241.671623 -156.696737 
L 243.530981 -156.906029 
L 245.39034 -156.953027 
L 247.249698 -156.918216 
L 249.109057 -156.910384 
L 250.968415 -157.025812 
L 252.827774 -157.104278 
L 254.687132 -157.301519 
L 256.546491 -157.47626 
L 258.405849 -157.422525 
L 260.265208 -157.23437 
L 262.124566 -157.525011 
L 263.983925 -157.750024 
L 265.843283 -157.76302 
L 267.702642 -157.763635 
L 269.562 -157.885713 
L 271.421358 -158.005345 
L 273.280717 -158.20716 
L 275.140075 -158.348598 
L 276.999434 -158.584138 
L 278.858792 -158.673692 
L 280.718151 -158.72915 
L 282.577509 -159.155248 
L 284.436868 -159.345082 
L 286.296226 -159.515165 
L 288.155585 -159.377463 
L 290.014943 -159.150201 
L 291.874302 -159.252061 
L 293.73366 -159.192201 
L 295.593019 -159.043809 
L 297.452377 -159.034291 
L 299.311736 -158.81043 
L 301.171094 -158.872751 
L 303.030453 -158.81241 
L 304.889811 -158.977975 
L 306.74917 -158.727161 
L 308.608528 -158.612825 
L 310.467887 -158.348259 
L 312.327245 -158.291177 
L 314.186604 -158.115732 
L 316.045962 -157.795867 
L 317.905321 -157.765551 
L 319.764679 -157.93465 
L 321.624038 -158.080849 
L 323.483396 -157.954909 
L 325.342755 -157.814756 
L 327.202113 -157.959783 
L 329.061472 -158.165625 
L 330.92083 -158.302408 
L 332.780189 -158.947771 
L 334.639547 -159.561111 
L 336.498906 -159.850504 
L 338.358264 -160.083975 
L 340.217623 -160.385054 
L 342.076981 -160.570386 
L 343.93634 -160.816319 
L 345.795698 -161.184683 
L 347.655057 -161.578074 
L 349.514415 -161.806364 
L 351.373774 -161.978986 
L 353.233132 -161.96179 
L 355.092491 -161.992968 
L 356.951849 -162.000996 
L 358.811208 -161.980011 
L 360.670566 -162.081364 
L 362.529925 -162.543898 
L 364.389283 -162.971152 
L 366.248642 -163.070543 
L 368.108 -162.982221 
L 369.967358 -163.001175 
L 371.826717 -162.973153 
L 373.686075 -163.133327 
L 375.545434 -162.945292 
L 377.404792 -162.725893 
L 379.264151 -163.059882 
L 381.123509 -163.774856 
L 382.982868 -164.84117 
L 384.842226 -166.184748 
L 386.701585 -167.370013 
L 388.560943 -168.548395 
L 390.420302 -169.920187 
L 392.27966 -171.15131 
L 394.139019 -171.617951 
L 395.998377 -172.424847 
L 397.857736 -173.099044 
L 399.717094 -173.48499 
L 401.576453 -173.419489 
L 403.435811 -173.11872 
L 405.29517 -172.552971 
L 407.154528 -171.769141 
L 409.013887 -170.945625 
L 410.873245 -170.112663 
L 412.732604 -169.467623 
L 414.591962 -168.878295 
L 416.451321 -168.29465 
L 418.310679 -167.909044 
L 420.170038 -167.856578 
L 422.029396 -168.085533 
L 423.888755 -168.286857 
L 425.748113 -168.318855 
L 427.607472 -168.766778 
L 429.46683 -169.229281 
L 431.326189 -169.451753 
L 433.185547 -169.557269 
L 435.044906 -169.297117 
L 436.904264 -169.141152 
L 438.763623 -168.920176 
L 440.622981 -168.690302 
L 442.48234 -168.484587 
L 444.341698 -168.122 
L 446.201057 -168.023717 
L 448.060415 -167.536313 
L 449.919774 -167.370075 
L 451.779132 -167.611538 
L 453.638491 -166.947421 
L 455.497849 -165.912223 
L 457.357208 -164.741009 
L 459.216566 -163.220618 
L 461.075925 -161.934724 
L 462.935283 -160.305051 
L 464.794642 -158.649398 
L 466.654 -157.307444 
L 468.513358 -156.509167 
L 470.372717 -155.641901 
L 472.232075 -154.936857 
L 474.091434 -154.484086 
L 475.950792 -154.343444 
L 477.810151 -154.01876 
L 479.669509 -154.180497 
L 481.528868 -154.482605 
L 483.388226 -154.707061 
L 485.247585 -155.00323 
L 487.106943 -155.224812 
L 488.966302 -155.472242 
L 490.82566 -155.691387 
L 492.685019 -155.680148 
L 494.544377 -155.35696 
L 496.403736 -154.926387 
L 498.263094 -154.452219 
L 500.122453 -154.341 
L 501.981811 -153.719306 
L 503.84117 -153.060638 
L 505.700528 -152.700024 
L 507.559887 -152.259333 
L 509.419245 -151.888288 
L 511.278604 -151.692942 
L 513.137962 -151.359124 
L 514.997321 -151.059368 
L 516.856679 -150.956579 
L 518.716038 -151.064618 
L 520.575396 -150.614352 
L 522.434755 -150.546596 
L 524.294113 -150.507325 
L 526.153472 -150.153936 
L 528.01283 -150.115819 
L 529.872189 -149.99456 
L 531.731547 -150.071272 
L 533.590906 -150.044185 
L 535.450264 -149.921554 
L 537.309623 -150.160601 
L 539.168981 -150.131817 
L 541.02834 -150.144452 
L 542.887698 -150.089393 
L 544.747057 -149.778026 
L 546.606415 -150.063998 
L 548.465774 -149.942672 
L 550.325132 -149.942594 
L 552.184491 -150.249689 
L 554.043849 -150.097734 
L 555.903208 -150.231778 
L 557.762566 -150.219178 
L 559.621925 -150.236014 
L 561.481283 -150.156601 
L 563.340642 -150.144869 
L 565.2 -150.070366 
L 565.2 -155.424708 
L 565.2 -155.424708 
L 563.340642 -155.477877 
L 561.481283 -155.436682 
L 559.621925 -155.504582 
L 557.762566 -155.482135 
L 555.903208 -155.459714 
L 554.043849 -155.289311 
L 552.184491 -155.441803 
L 550.325132 -155.081079 
L 548.465774 -155.041717 
L 546.606415 -155.136451 
L 544.747057 -154.83317 
L 542.887698 -155.130697 
L 541.02834 -155.193489 
L 539.168981 -155.255228 
L 537.309623 -155.314831 
L 535.450264 -155.092297 
L 533.590906 -155.283935 
L 531.731547 -155.325594 
L 529.872189 -155.264813 
L 528.01283 -155.389076 
L 526.153472 -155.409885 
L 524.294113 -155.743957 
L 522.434755 -155.793074 
L 520.575396 -155.843169 
L 518.716038 -156.266961 
L 516.856679 -156.119657 
L 514.997321 -156.174002 
L 513.137962 -156.414394 
L 511.278604 -156.709113 
L 509.419245 -156.847676 
L 507.559887 -157.213196 
L 505.700528 -157.636743 
L 503.84117 -157.943949 
L 501.981811 -158.630741 
L 500.122453 -159.266119 
L 498.263094 -159.420064 
L 496.403736 -159.947626 
L 494.544377 -160.342006 
L 492.685019 -160.7161 
L 490.82566 -160.704861 
L 488.966302 -160.540992 
L 487.106943 -160.346483 
L 485.247585 -160.145767 
L 483.388226 -159.92143 
L 481.528868 -159.782513 
L 479.669509 -159.603398 
L 477.810151 -159.578538 
L 475.950792 -160.019882 
L 474.091434 -160.291717 
L 472.232075 -160.870139 
L 470.372717 -161.697152 
L 468.513358 -162.695852 
L 466.654 -163.567124 
L 464.794642 -164.975016 
L 462.935283 -166.825417 
L 461.075925 -168.544662 
L 459.216566 -169.871122 
L 457.357208 -171.493411 
L 455.497849 -172.679208 
L 453.638491 -173.726035 
L 451.779132 -174.387737 
L 449.919774 -174.147977 
L 448.060415 -174.32547 
L 446.201057 -174.810333 
L 444.341698 -174.888826 
L 442.48234 -175.272625 
L 440.622981 -175.479388 
L 438.763623 -175.711094 
L 436.904264 -175.882953 
L 435.044906 -175.992152 
L 433.185547 -176.17394 
L 431.326189 -176.112501 
L 429.46683 -175.902854 
L 427.607472 -175.491299 
L 425.748113 -175.084805 
L 423.888755 -175.067699 
L 422.029396 -174.836905 
L 420.170038 -174.653383 
L 418.310679 -174.699126 
L 416.451321 -175.079549 
L 414.591962 -175.595841 
L 412.732604 -176.126093 
L 410.873245 -176.777409 
L 409.013887 -177.545251 
L 407.154528 -178.283254 
L 405.29517 -179.011839 
L 403.435811 -179.496924 
L 401.576453 -179.736303 
L 399.717094 -179.749368 
L 397.857736 -179.271078 
L 395.998377 -178.501606 
L 394.139019 -177.599669 
L 392.27966 -177.094043 
L 390.420302 -175.811021 
L 388.560943 -174.364222 
L 386.701585 -173.175773 
L 384.842226 -171.984385 
L 382.982868 -170.59776 
L 381.123509 -169.50348 
L 379.264151 -168.755144 
L 377.404792 -168.362388 
L 375.545434 -168.555466 
L 373.686075 -168.720982 
L 371.826717 -168.517784 
L 369.967358 -168.519224 
L 368.108 -168.430149 
L 366.248642 -168.508782 
L 364.389283 -168.441218 
L 362.529925 -167.925668 
L 360.670566 -167.455218 
L 358.811208 -167.340511 
L 356.951849 -167.329347 
L 355.092491 -167.298092 
L 353.233132 -167.329271 
L 351.373774 -167.361179 
L 349.514415 -167.180249 
L 347.655057 -166.897853 
L 345.795698 -166.485933 
L 343.93634 -166.147193 
L 342.076981 -165.862799 
L 340.217623 -165.665117 
L 338.358264 -165.376943 
L 336.498906 -165.139012 
L 334.639547 -164.888257 
L 332.780189 -164.224882 
L 330.92083 -163.564069 
L 329.061472 -163.425867 
L 327.202113 -163.219232 
L 325.342755 -163.079455 
L 323.483396 -163.25357 
L 321.624038 -163.392793 
L 319.764679 -163.214903 
L 317.905321 -163.020629 
L 316.045962 -163.088522 
L 314.186604 -163.387372 
L 312.327245 -163.5753 
L 310.467887 -163.596785 
L 308.608528 -163.892009 
L 306.74917 -163.974091 
L 304.889811 -164.204499 
L 303.030453 -164.016513 
L 301.171094 -164.005276 
L 299.311736 -163.910463 
L 297.452377 -164.089258 
L 295.593019 -164.050278 
L 293.73366 -164.186691 
L 291.874302 -164.254503 
L 290.014943 -164.120662 
L 288.155585 -164.364801 
L 286.296226 -164.492264 
L 284.436868 -164.25969 
L 282.577509 -164.095973 
L 280.718151 -163.667654 
L 278.858792 -163.69365 
L 276.999434 -163.62607 
L 275.140075 -163.449133 
L 273.280717 -163.295944 
L 271.421358 -163.163849 
L 269.562 -163.057602 
L 267.702642 -162.993083 
L 265.843283 -163.023161 
L 263.983925 -163.036156 
L 262.124566 -162.779946 
L 260.265208 -162.461693 
L 258.405849 -162.646731 
L 256.546491 -162.730489 
L 254.687132 -162.532037 
L 252.827774 -162.316801 
L 250.968415 -162.277416 
L 249.109057 -162.12768 
L 247.249698 -162.129669 
L 245.39034 -162.143962 
L 243.530981 -162.08293 
L 241.671623 -161.869925 
L 239.812264 -161.32746 
L 237.952906 -161.189392 
L 236.093547 -161.215626 
L 234.234189 -161.577768 
L 232.37483 -162.098442 
L 230.515472 -162.656066 
L 228.656113 -164.07297 
L 226.796755 -165.404269 
L 224.937396 -166.985876 
L 223.078038 -168.920987 
L 221.218679 -171.15222 
L 219.359321 -172.862438 
L 217.499962 -174.006686 
L 215.640604 -175.056214 
L 213.781245 -175.629406 
L 211.921887 -175.927138 
L 210.062528 -175.52761 
L 208.20317 -175.032931 
L 206.343811 -174.66558 
L 204.484453 -173.63335 
L 202.625094 -172.686266 
L 200.765736 -171.8567 
L 198.906377 -171.183162 
L 197.047019 -170.512351 
L 195.18766 -169.705836 
L 193.328302 -169.090454 
L 191.468943 -168.406833 
L 189.609585 -168.041247 
L 187.750226 -168.555654 
L 185.890868 -170.010653 
L 184.031509 -172.022578 
L 182.172151 -176.317376 
L 180.312792 -182.674458 
L 178.453434 -188.7037 
L 176.594075 -192.984265 
L 174.734717 -195.734555 
L 172.875358 -196.32 
L 171.016 -196.027526 
L 169.156642 -195.881259 
L 167.297283 -195.634538 
L 165.437925 -195.559845 
L 163.578566 -195.213292 
L 161.719208 -195.143383 
L 159.859849 -194.444499 
L 158.000491 -193.798659 
L 156.141132 -192.889926 
L 154.281774 -191.36277 
L 152.422415 -189.85701 
L 150.563057 -188.236411 
L 148.703698 -186.009602 
L 146.84434 -183.633102 
L 144.984981 -181.604418 
L 143.125623 -180.215648 
L 141.266264 -178.97963 
L 139.406906 -177.976338 
L 137.547547 -177.664984 
L 135.688189 -177.810311 
L 133.82883 -178.208931 
L 131.969472 -178.910211 
L 130.110113 -179.826849 
L 128.250755 -180.612489 
L 126.391396 -181.347184 
L 124.532038 -181.78343 
L 122.672679 -182.310611 
L 120.813321 -183.048509 
L 118.953962 -183.374022 
L 117.094604 -183.721332 
L 115.235245 -184.06896 
L 113.375887 -183.234019 
L 111.516528 -181.86 
L 109.65717 -179.593254 
L 107.797811 -175.170427 
L 105.938453 -168.364645 
L 104.079094 -162.303611 
L 102.219736 -157.800842 
L 100.360377 -154.674958 
L 98.501019 -153.915558 
L 96.64166 -153.709395 
L 94.782302 -153.646306 
L 92.922943 -153.744186 
L 91.063585 -153.847648 
L 89.204226 -153.72355 
L 87.344868 -153.433136 
L 85.485509 -153.58903 
L 83.626151 -153.571007 
L 81.766792 -153.575419 
L 79.907434 -153.746776 
L 78.048075 -153.888398 
L 76.188717 -153.83813 
L 74.329358 -153.647593 
L 72.47 -153.505344 
z
" id="ma5d163beef" style="stroke:#0000ff;stroke-opacity:0.3;"/>
    </defs>
    <g clip-path="url(#pc6f689e945)">
     <use style="fill:#0000ff;fill-opacity:0.3;stroke:#0000ff;stroke-opacity:0.3;" x="0" xlink:href="#ma5d163beef" y="223.2"/>
    </g>
   </g>
   <g id="matplotlib.axis_1">
    <g id="xtick_1">
     <g id="line2d_1">
      <defs>
       <path d="M 0 0 
L 0 3.5 
" id="m1af621c800" style="stroke:#000000;stroke-width:0.8;"/>
      </defs>
      <g>
       <use style="stroke:#000000;stroke-width:0.8;" x="132.899151" xlink:href="#m1af621c800" y="174.76"/>
      </g>
     </g>
     <g id="text_1">
      <!-- 0.0 -->
      <defs>
       <path d="M 31.78125 66.40625 
Q 24.171875 66.40625 20.328125 58.90625 
Q 16.5 51.421875 16.5 36.375 
Q 16.5 21.390625 20.328125 13.890625 
Q 24.171875 6.390625 31.78125 6.390625 
Q 39.453125 6.390625 43.28125 13.890625 
Q 47.125 21.390625 47.125 36.375 
Q 47.125 51.421875 43.28125 58.90625 
Q 39.453125 66.40625 31.78125 66.40625 
z
M 31.78125 74.21875 
Q 44.046875 74.21875 50.515625 64.515625 
Q 56.984375 54.828125 56.984375 36.375 
Q 56.984375 17.96875 50.515625 8.265625 
Q 44.046875 -1.421875 31.78125 -1.421875 
Q 19.53125 -1.421875 13.0625 8.265625 
Q 6.59375 17.96875 6.59375 36.375 
Q 6.59375 54.828125 13.0625 64.515625 
Q 19.53125 74.21875 31.78125 74.21875 
z
" id="DejaVuSans-48"/>
       <path d="M 10.6875 12.40625 
L 21 12.40625 
L 21 0 
L 10.6875 0 
z
" id="DejaVuSans-46"/>
      </defs>
      <g transform="translate(123.357276 190.878125)scale(0.12 -0.12)">
       <use xlink:href="#DejaVuSans-48"/>
       <use x="63.623047" xlink:href="#DejaVuSans-46"/>
       <use x="95.410156" xlink:href="#DejaVuSans-48"/>
      </g>
     </g>
    </g>
    <g id="xtick_2">
     <g id="line2d_2">
      <g>
       <use style="stroke:#000000;stroke-width:0.8;" x="225.867075" xlink:href="#m1af621c800" y="174.76"/>
      </g>
     </g>
     <g id="text_2">
      <!-- 0.5 -->
      <defs>
       <path d="M 10.796875 72.90625 
L 49.515625 72.90625 
L 49.515625 64.59375 
L 19.828125 64.59375 
L 19.828125 46.734375 
Q 21.96875 47.46875 24.109375 47.828125 
Q 26.265625 48.1875 28.421875 48.1875 
Q 40.625 48.1875 47.75 41.5 
Q 54.890625 34.8125 54.890625 23.390625 
Q 54.890625 11.625 47.5625 5.09375 
Q 40.234375 -1.421875 26.90625 -1.421875 
Q 22.3125 -1.421875 17.546875 -0.640625 
Q 12.796875 0.140625 7.71875 1.703125 
L 7.71875 11.625 
Q 12.109375 9.234375 16.796875 8.0625 
Q 21.484375 6.890625 26.703125 6.890625 
Q 35.15625 6.890625 40.078125 11.328125 
Q 45.015625 15.765625 45.015625 23.390625 
Q 45.015625 31 40.078125 35.4375 
Q 35.15625 39.890625 26.703125 39.890625 
Q 22.75 39.890625 18.8125 39.015625 
Q 14.890625 38.140625 10.796875 36.28125 
z
" id="DejaVuSans-53"/>
      </defs>
      <g transform="translate(216.3252 190.878125)scale(0.12 -0.12)">
       <use xlink:href="#DejaVuSans-48"/>
       <use x="63.623047" xlink:href="#DejaVuSans-46"/>
       <use x="95.410156" xlink:href="#DejaVuSans-53"/>
      </g>
     </g>
    </g>
    <g id="xtick_3">
     <g id="line2d_3">
      <g>
       <use style="stroke:#000000;stroke-width:0.8;" x="318.835" xlink:href="#m1af621c800" y="174.76"/>
      </g>
     </g>
     <g id="text_3">
      <!-- 1.0 -->
      <defs>
       <path d="M 12.40625 8.296875 
L 28.515625 8.296875 
L 28.515625 63.921875 
L 10.984375 60.40625 
L 10.984375 69.390625 
L 28.421875 72.90625 
L 38.28125 72.90625 
L 38.28125 8.296875 
L 54.390625 8.296875 
L 54.390625 0 
L 12.40625 0 
z
" id="DejaVuSans-49"/>
      </defs>
      <g transform="translate(309.293125 190.878125)scale(0.12 -0.12)">
       <use xlink:href="#DejaVuSans-49"/>
       <use x="63.623047" xlink:href="#DejaVuSans-46"/>
       <use x="95.410156" xlink:href="#DejaVuSans-48"/>
      </g>
     </g>
    </g>
    <g id="xtick_4">
     <g id="line2d_4">
      <g>
       <use style="stroke:#000000;stroke-width:0.8;" x="411.802925" xlink:href="#m1af621c800" y="174.76"/>
      </g>
     </g>
     <g id="text_4">
      <!-- 1.5 -->
      <g transform="translate(402.26105 190.878125)scale(0.12 -0.12)">
       <use xlink:href="#DejaVuSans-49"/>
       <use x="63.623047" xlink:href="#DejaVuSans-46"/>
       <use x="95.410156" xlink:href="#DejaVuSans-53"/>
      </g>
     </g>
    </g>
    <g id="xtick_5">
     <g id="line2d_5">
      <g>
       <use style="stroke:#000000;stroke-width:0.8;" x="504.770849" xlink:href="#m1af621c800" y="174.76"/>
      </g>
     </g>
     <g id="text_5">
      <!-- 2.0 -->
      <defs>
       <path d="M 19.1875 8.296875 
L 53.609375 8.296875 
L 53.609375 0 
L 7.328125 0 
L 7.328125 8.296875 
Q 12.9375 14.109375 22.625 23.890625 
Q 32.328125 33.6875 34.8125 36.53125 
Q 39.546875 41.84375 41.421875 45.53125 
Q 43.3125 49.21875 43.3125 52.78125 
Q 43.3125 58.59375 39.234375 62.25 
Q 35.15625 65.921875 28.609375 65.921875 
Q 23.96875 65.921875 18.8125 64.3125 
Q 13.671875 62.703125 7.8125 59.421875 
L 7.8125 69.390625 
Q 13.765625 71.78125 18.9375 73 
Q 24.125 74.21875 28.421875 74.21875 
Q 39.75 74.21875 46.484375 68.546875 
Q 53.21875 62.890625 53.21875 53.421875 
Q 53.21875 48.921875 51.53125 44.890625 
Q 49.859375 40.875 45.40625 35.40625 
Q 44.1875 33.984375 37.640625 27.21875 
Q 31.109375 20.453125 19.1875 8.296875 
z
" id="DejaVuSans-50"/>
      </defs>
      <g transform="translate(495.228974 190.878125)scale(0.12 -0.12)">
       <use xlink:href="#DejaVuSans-50"/>
       <use x="63.623047" xlink:href="#DejaVuSans-46"/>
       <use x="95.410156" xlink:href="#DejaVuSans-48"/>
      </g>
     </g>
    </g>
    <g id="text_6">
     <!-- Time (s) -->
     <defs>
      <path d="M -0.296875 72.90625 
L 61.375 72.90625 
L 61.375 64.59375 
L 35.5 64.59375 
L 35.5 0 
L 25.59375 0 
L 25.59375 64.59375 
L -0.296875 64.59375 
z
" id="DejaVuSans-84"/>
      <path d="M 9.421875 54.6875 
L 18.40625 54.6875 
L 18.40625 0 
L 9.421875 0 
z
M 9.421875 75.984375 
L 18.40625 75.984375 
L 18.40625 64.59375 
L 9.421875 64.59375 
z
" id="DejaVuSans-105"/>
      <path d="M 52 44.1875 
Q 55.375 50.25 60.0625 53.125 
Q 64.75 56 71.09375 56 
Q 79.640625 56 84.28125 50.015625 
Q 88.921875 44.046875 88.921875 33.015625 
L 88.921875 0 
L 79.890625 0 
L 79.890625 32.71875 
Q 79.890625 40.578125 77.09375 44.375 
Q 74.3125 48.1875 68.609375 48.1875 
Q 61.625 48.1875 57.5625 43.546875 
Q 53.515625 38.921875 53.515625 30.90625 
L 53.515625 0 
L 44.484375 0 
L 44.484375 32.71875 
Q 44.484375 40.625 41.703125 44.40625 
Q 38.921875 48.1875 33.109375 48.1875 
Q 26.21875 48.1875 22.15625 43.53125 
Q 18.109375 38.875 18.109375 30.90625 
L 18.109375 0 
L 9.078125 0 
L 9.078125 54.6875 
L 18.109375 54.6875 
L 18.109375 46.1875 
Q 21.1875 51.21875 25.484375 53.609375 
Q 29.78125 56 35.6875 56 
Q 41.65625 56 45.828125 52.96875 
Q 50 49.953125 52 44.1875 
z
" id="DejaVuSans-109"/>
      <path d="M 56.203125 29.59375 
L 56.203125 25.203125 
L 14.890625 25.203125 
Q 15.484375 15.921875 20.484375 11.0625 
Q 25.484375 6.203125 34.421875 6.203125 
Q 39.59375 6.203125 44.453125 7.46875 
Q 49.3125 8.734375 54.109375 11.28125 
L 54.109375 2.78125 
Q 49.265625 0.734375 44.1875 -0.34375 
Q 39.109375 -1.421875 33.890625 -1.421875 
Q 20.796875 -1.421875 13.15625 6.1875 
Q 5.515625 13.8125 5.515625 26.8125 
Q 5.515625 40.234375 12.765625 48.109375 
Q 20.015625 56 32.328125 56 
Q 43.359375 56 49.78125 48.890625 
Q 56.203125 41.796875 56.203125 29.59375 
z
M 47.21875 32.234375 
Q 47.125 39.59375 43.09375 43.984375 
Q 39.0625 48.390625 32.421875 48.390625 
Q 24.90625 48.390625 20.390625 44.140625 
Q 15.875 39.890625 15.1875 32.171875 
z
" id="DejaVuSans-101"/>
      <path id="DejaVuSans-32"/>
      <path d="M 31 75.875 
Q 24.46875 64.65625 21.28125 53.65625 
Q 18.109375 42.671875 18.109375 31.390625 
Q 18.109375 20.125 21.3125 9.0625 
Q 24.515625 -2 31 -13.1875 
L 23.1875 -13.1875 
Q 15.875 -1.703125 12.234375 9.375 
Q 8.59375 20.453125 8.59375 31.390625 
Q 8.59375 42.28125 12.203125 53.3125 
Q 15.828125 64.359375 23.1875 75.875 
z
" id="DejaVuSans-40"/>
      <path d="M 44.28125 53.078125 
L 44.28125 44.578125 
Q 40.484375 46.53125 36.375 47.5 
Q 32.28125 48.484375 27.875 48.484375 
Q 21.1875 48.484375 17.84375 46.4375 
Q 14.5 44.390625 14.5 40.28125 
Q 14.5 37.15625 16.890625 35.375 
Q 19.28125 33.59375 26.515625 31.984375 
L 29.59375 31.296875 
Q 39.15625 29.25 43.1875 25.515625 
Q 47.21875 21.78125 47.21875 15.09375 
Q 47.21875 7.46875 41.1875 3.015625 
Q 35.15625 -1.421875 24.609375 -1.421875 
Q 20.21875 -1.421875 15.453125 -0.5625 
Q 10.6875 0.296875 5.421875 2 
L 5.421875 11.28125 
Q 10.40625 8.6875 15.234375 7.390625 
Q 20.0625 6.109375 24.8125 6.109375 
Q 31.15625 6.109375 34.5625 8.28125 
Q 37.984375 10.453125 37.984375 14.40625 
Q 37.984375 18.0625 35.515625 20.015625 
Q 33.0625 21.96875 24.703125 23.78125 
L 21.578125 24.515625 
Q 13.234375 26.265625 9.515625 29.90625 
Q 5.8125 33.546875 5.8125 39.890625 
Q 5.8125 47.609375 11.28125 51.796875 
Q 16.75 56 26.8125 56 
Q 31.78125 56 36.171875 55.265625 
Q 40.578125 54.546875 44.28125 53.078125 
z
" id="DejaVuSans-115"/>
      <path d="M 8.015625 75.875 
L 15.828125 75.875 
Q 23.140625 64.359375 26.78125 53.3125 
Q 30.421875 42.28125 30.421875 31.390625 
Q 30.421875 20.453125 26.78125 9.375 
Q 23.140625 -1.703125 15.828125 -13.1875 
L 8.015625 -13.1875 
Q 14.5 -2 17.703125 9.0625 
Q 20.90625 20.125 20.90625 31.390625 
Q 20.90625 42.671875 17.703125 53.65625 
Q 14.5 64.65625 8.015625 75.875 
z
" id="DejaVuSans-41"/>
     </defs>
     <g transform="translate(289.33975 208.3155)scale(0.144 -0.144)">
      <use xlink:href="#DejaVuSans-84"/>
      <use x="61.037109" xlink:href="#DejaVuSans-105"/>
      <use x="88.820312" xlink:href="#DejaVuSans-109"/>
      <use x="186.232422" xlink:href="#DejaVuSans-101"/>
      <use x="247.755859" xlink:href="#DejaVuSans-32"/>
      <use x="279.542969" xlink:href="#DejaVuSans-40"/>
      <use x="318.556641" xlink:href="#DejaVuSans-115"/>
      <use x="370.65625" xlink:href="#DejaVuSans-41"/>
     </g>
    </g>
   </g>
   <g id="matplotlib.axis_2">
    <g id="ytick_1">
     <g id="line2d_6">
      <defs>
       <path d="M 0 0 
L -3.5 0 
" id="mfa8f546521" style="stroke:#000000;stroke-width:0.8;"/>
      </defs>
      <g>
       <use style="stroke:#000000;stroke-width:0.8;" x="72.47" xlink:href="#mfa8f546521" y="174.76"/>
      </g>
     </g>
     <g id="text_7">
      <!-- 0.000 -->
      <g transform="translate(31.11625 179.319062)scale(0.12 -0.12)">
       <use xlink:href="#DejaVuSans-48"/>
       <use x="63.623047" xlink:href="#DejaVuSans-46"/>
       <use x="95.410156" xlink:href="#DejaVuSans-48"/>
       <use x="159.033203" xlink:href="#DejaVuSans-48"/>
       <use x="222.65625" xlink:href="#DejaVuSans-48"/>
      </g>
     </g>
    </g>
    <g id="ytick_2">
     <g id="line2d_7">
      <g>
       <use style="stroke:#000000;stroke-width:0.8;" x="72.47" xlink:href="#mfa8f546521" y="149.618554"/>
      </g>
     </g>
     <g id="text_8">
      <!-- 0.005 -->
      <g transform="translate(31.11625 154.177617)scale(0.12 -0.12)">
       <use xlink:href="#DejaVuSans-48"/>
       <use x="63.623047" xlink:href="#DejaVuSans-46"/>
       <use x="95.410156" xlink:href="#DejaVuSans-48"/>
       <use x="159.033203" xlink:href="#DejaVuSans-48"/>
       <use x="222.65625" xlink:href="#DejaVuSans-53"/>
      </g>
     </g>
    </g>
    <g id="ytick_3">
     <g id="line2d_8">
      <g>
       <use style="stroke:#000000;stroke-width:0.8;" x="72.47" xlink:href="#mfa8f546521" y="124.477108"/>
      </g>
     </g>
     <g id="text_9">
      <!-- 0.010 -->
      <g transform="translate(31.11625 129.036171)scale(0.12 -0.12)">
       <use xlink:href="#DejaVuSans-48"/>
       <use x="63.623047" xlink:href="#DejaVuSans-46"/>
       <use x="95.410156" xlink:href="#DejaVuSans-48"/>
       <use x="159.033203" xlink:href="#DejaVuSans-49"/>
       <use x="222.65625" xlink:href="#DejaVuSans-48"/>
      </g>
     </g>
    </g>
    <g id="ytick_4">
     <g id="line2d_9">
      <g>
       <use style="stroke:#000000;stroke-width:0.8;" x="72.47" xlink:href="#mfa8f546521" y="99.335663"/>
      </g>
     </g>
     <g id="text_10">
      <!-- 0.015 -->
      <g transform="translate(31.11625 103.894725)scale(0.12 -0.12)">
       <use xlink:href="#DejaVuSans-48"/>
       <use x="63.623047" xlink:href="#DejaVuSans-46"/>
       <use x="95.410156" xlink:href="#DejaVuSans-48"/>
       <use x="159.033203" xlink:href="#DejaVuSans-49"/>
       <use x="222.65625" xlink:href="#DejaVuSans-53"/>
      </g>
     </g>
    </g>
    <g id="ytick_5">
     <g id="line2d_10">
      <g>
       <use style="stroke:#000000;stroke-width:0.8;" x="72.47" xlink:href="#mfa8f546521" y="74.194217"/>
      </g>
     </g>
     <g id="text_11">
      <!-- 0.020 -->
      <g transform="translate(31.11625 78.753279)scale(0.12 -0.12)">
       <use xlink:href="#DejaVuSans-48"/>
       <use x="63.623047" xlink:href="#DejaVuSans-46"/>
       <use x="95.410156" xlink:href="#DejaVuSans-48"/>
       <use x="159.033203" xlink:href="#DejaVuSans-50"/>
       <use x="222.65625" xlink:href="#DejaVuSans-48"/>
      </g>
     </g>
    </g>
    <g id="ytick_6">
     <g id="line2d_11">
      <g>
       <use style="stroke:#000000;stroke-width:0.8;" x="72.47" xlink:href="#mfa8f546521" y="49.052771"/>
      </g>
     </g>
     <g id="text_12">
      <!-- 0.025 -->
      <g transform="translate(31.11625 53.611834)scale(0.12 -0.12)">
       <use xlink:href="#DejaVuSans-48"/>
       <use x="63.623047" xlink:href="#DejaVuSans-46"/>
       <use x="95.410156" xlink:href="#DejaVuSans-48"/>
       <use x="159.033203" xlink:href="#DejaVuSans-50"/>
       <use x="222.65625" xlink:href="#DejaVuSans-53"/>
      </g>
     </g>
    </g>
    <g id="text_13">
     <!-- Bin. $p$ -->
     <defs>
      <path d="M 19.671875 34.8125 
L 19.671875 8.109375 
L 35.5 8.109375 
Q 43.453125 8.109375 47.28125 11.40625 
Q 51.125 14.703125 51.125 21.484375 
Q 51.125 28.328125 47.28125 31.5625 
Q 43.453125 34.8125 35.5 34.8125 
z
M 19.671875 64.796875 
L 19.671875 42.828125 
L 34.28125 42.828125 
Q 41.5 42.828125 45.03125 45.53125 
Q 48.578125 48.25 48.578125 53.8125 
Q 48.578125 59.328125 45.03125 62.0625 
Q 41.5 64.796875 34.28125 64.796875 
z
M 9.8125 72.90625 
L 35.015625 72.90625 
Q 46.296875 72.90625 52.390625 68.21875 
Q 58.5 63.53125 58.5 54.890625 
Q 58.5 48.1875 55.375 44.234375 
Q 52.25 40.28125 46.1875 39.3125 
Q 53.46875 37.75 57.5 32.78125 
Q 61.53125 27.828125 61.53125 20.40625 
Q 61.53125 10.640625 54.890625 5.3125 
Q 48.25 0 35.984375 0 
L 9.8125 0 
z
" id="DejaVuSans-66"/>
      <path d="M 54.890625 33.015625 
L 54.890625 0 
L 45.90625 0 
L 45.90625 32.71875 
Q 45.90625 40.484375 42.875 44.328125 
Q 39.84375 48.1875 33.796875 48.1875 
Q 26.515625 48.1875 22.3125 43.546875 
Q 18.109375 38.921875 18.109375 30.90625 
L 18.109375 0 
L 9.078125 0 
L 9.078125 54.6875 
L 18.109375 54.6875 
L 18.109375 46.1875 
Q 21.34375 51.125 25.703125 53.5625 
Q 30.078125 56 35.796875 56 
Q 45.21875 56 50.046875 50.171875 
Q 54.890625 44.34375 54.890625 33.015625 
z
" id="DejaVuSans-110"/>
      <path d="M 49.609375 33.6875 
Q 49.609375 40.875 46.484375 44.671875 
Q 43.359375 48.484375 37.5 48.484375 
Q 33.5 48.484375 29.859375 46.4375 
Q 26.21875 44.390625 23.390625 40.484375 
Q 20.609375 36.625 18.9375 31.15625 
Q 17.28125 25.6875 17.28125 20.3125 
Q 17.28125 13.484375 20.40625 9.796875 
Q 23.53125 6.109375 29.296875 6.109375 
Q 33.546875 6.109375 37.1875 8.109375 
Q 40.828125 10.109375 43.40625 13.921875 
Q 46.1875 17.921875 47.890625 23.34375 
Q 49.609375 28.765625 49.609375 33.6875 
z
M 21.78125 46.390625 
Q 25.390625 51.125 30.296875 53.5625 
Q 35.203125 56 41.21875 56 
Q 49.609375 56 54.25 50.5 
Q 58.890625 45.015625 58.890625 35.109375 
Q 58.890625 27 56 19.65625 
Q 53.125 12.3125 47.703125 6.5 
Q 44.09375 2.640625 39.546875 0.609375 
Q 35.015625 -1.421875 29.984375 -1.421875 
Q 24.171875 -1.421875 20.21875 1 
Q 16.265625 3.421875 14.3125 8.203125 
L 8.6875 -20.796875 
L -0.296875 -20.796875 
L 14.40625 54.6875 
L 23.390625 54.6875 
z
" id="DejaVuSans-Oblique-112"/>
     </defs>
     <g transform="translate(24.09225 121.484)rotate(-90)scale(0.144 -0.144)">
      <use transform="translate(0 0.015625)" xlink:href="#DejaVuSans-66"/>
      <use transform="translate(68.603516 0.015625)" xlink:href="#DejaVuSans-105"/>
      <use transform="translate(96.386719 0.015625)" xlink:href="#DejaVuSans-110"/>
      <use transform="translate(159.765625 0.015625)" xlink:href="#DejaVuSans-46"/>
      <use transform="translate(191.552734 0.015625)" xlink:href="#DejaVuSans-32"/>
      <use transform="translate(223.339844 0.015625)" xlink:href="#DejaVuSans-Oblique-112"/>
     </g>
    </g>
   </g>
   <g id="line2d_12">
    <path clip-path="url(#pc6f689e945)" d="M 72.47 72.058176 
L 78.048075 71.734087 
L 83.626151 72.122012 
L 85.485509 72.107281 
L 87.344868 72.274235 
L 89.204226 72.004161 
L 91.063585 71.861759 
L 94.782302 72.053266 
L 96.64166 71.98452 
L 98.501019 71.773371 
L 100.360377 71.002432 
L 102.219736 67.835199 
L 104.079094 63.293043 
L 105.938453 57.228651 
L 107.797811 50.442425 
L 109.65717 45.964105 
L 111.516528 43.690572 
L 113.375887 42.305828 
L 115.235245 41.490696 
L 120.813321 42.566082 
L 122.672679 43.317379 
L 126.391396 44.373123 
L 130.110113 45.964105 
L 131.969472 46.901999 
L 133.82883 47.663117 
L 135.688189 48.14434 
L 137.547547 48.345668 
L 139.406906 48.105057 
L 141.266264 47.127879 
L 143.125623 45.880628 
L 144.984981 44.471332 
L 146.84434 42.399127 
L 150.563057 37.685106 
L 154.281774 34.527694 
L 156.141132 32.995637 
L 158.000491 32.087206 
L 161.719208 30.766298 
L 163.578566 30.717193 
L 165.437925 30.363642 
L 167.297283 30.294896 
L 172.875358 29.67127 
L 174.734717 30.294896 
L 176.594075 33.084025 
L 178.453434 37.375748 
L 182.172151 49.759874 
L 184.031509 54.022135 
L 185.890868 56.020684 
L 187.750226 57.429979 
L 189.609585 57.891561 
L 191.468943 57.498726 
L 195.18766 56.177818 
L 197.047019 55.343043 
L 200.765736 54.012314 
L 204.484453 52.28384 
L 206.343811 51.2772 
L 211.921887 50.069232 
L 213.781245 50.363858 
L 215.640604 50.94329 
L 219.359321 53.084241 
L 221.218679 54.788163 
L 223.078038 57.022413 
L 224.937396 58.947305 
L 226.796755 60.494093 
L 230.515472 63.234118 
L 234.234189 64.319325 
L 236.093547 64.648324 
L 237.952906 64.623772 
L 239.812264 64.481369 
L 241.671623 63.916669 
L 243.530981 63.70552 
L 247.249698 63.676057 
L 249.109057 63.680968 
L 256.546491 63.096626 
L 258.405849 63.165372 
L 260.265208 63.351968 
L 263.983925 62.80691 
L 269.562 62.728343 
L 275.140075 62.301135 
L 276.999434 62.094896 
L 280.718151 62.001598 
L 282.577509 61.57439 
L 286.296226 61.196286 
L 290.014943 61.564569 
L 291.874302 61.446718 
L 297.452377 61.638225 
L 299.311736 61.839553 
L 304.889811 61.608763 
L 306.74917 61.849374 
L 308.608528 61.947583 
L 310.467887 62.227478 
L 312.327245 62.266762 
L 314.186604 62.448448 
L 316.045962 62.757805 
L 317.905321 62.80691 
L 321.624038 62.463179 
L 325.342755 62.752895 
L 330.92083 62.266762 
L 334.639547 60.975316 
L 345.795698 59.364692 
L 347.655057 58.962036 
L 351.373774 58.529918 
L 358.811208 58.539739 
L 360.670566 58.431709 
L 364.389283 57.493815 
L 366.248642 57.410338 
L 368.108 57.493815 
L 373.686075 57.272845 
L 377.404792 57.65586 
L 379.264151 57.292487 
L 381.123509 56.560832 
L 382.982868 55.480535 
L 384.842226 54.115433 
L 388.560943 51.743692 
L 390.420302 50.334396 
L 392.27966 49.077323 
L 394.139019 48.59119 
L 395.998377 47.736774 
L 397.857736 47.014939 
L 399.717094 46.582821 
L 401.576453 46.622104 
L 403.435811 46.892178 
L 405.29517 47.417595 
L 412.732604 50.403142 
L 416.451321 51.512901 
L 418.310679 51.895915 
L 420.170038 51.94502 
L 423.888755 51.522722 
L 425.748113 51.49817 
L 429.46683 50.633932 
L 431.326189 50.417873 
L 433.185547 50.334396 
L 436.904264 50.687947 
L 442.48234 51.321394 
L 444.341698 51.694587 
L 446.201057 51.782975 
L 448.060415 52.269108 
L 449.919774 52.440974 
L 451.779132 52.200362 
L 453.638491 52.863272 
L 455.497849 53.904285 
L 457.357208 55.08279 
L 459.216566 56.65413 
L 461.075925 57.960307 
L 464.794642 61.387793 
L 466.654 62.762716 
L 472.232075 65.296502 
L 474.091434 65.812098 
L 475.950792 66.018337 
L 477.810151 66.401351 
L 479.669509 66.308052 
L 488.966302 65.193383 
L 490.82566 65.001876 
L 492.685019 65.001876 
L 496.403736 65.762994 
L 498.263094 66.263859 
L 500.122453 66.39644 
L 503.84117 67.697707 
L 507.559887 68.463735 
L 509.419245 68.832018 
L 511.278604 68.998973 
L 514.997321 69.583315 
L 516.856679 69.661882 
L 518.716038 69.534211 
L 520.575396 69.97124 
L 524.294113 70.074359 
L 526.153472 70.41809 
L 533.590906 70.53594 
L 535.450264 70.693074 
L 537.309623 70.462284 
L 542.887698 70.589955 
L 544.747057 70.894402 
L 546.606415 70.599776 
L 548.465774 70.707806 
L 550.325132 70.688164 
L 552.184491 70.354254 
L 554.043849 70.506478 
L 555.903208 70.354254 
L 563.340642 70.388627 
L 565.2 70.452463 
L 565.2 70.452463 
" style="fill:none;stroke:#0000ff;stroke-linecap:square;stroke-width:1.5;"/>
   </g>
   <g id="patch_3">
    <path d="M 72.47 174.76 
L 72.47 26.88 
" style="fill:none;stroke:#000000;stroke-linecap:square;stroke-linejoin:miter;stroke-width:0.8;"/>
   </g>
   <g id="patch_4">
    <path d="M 565.2 174.76 
L 565.2 26.88 
" style="fill:none;stroke:#000000;stroke-linecap:square;stroke-linejoin:miter;stroke-width:0.8;"/>
   </g>
   <g id="patch_5">
    <path d="M 72.47 174.76 
L 565.2 174.76 
" style="fill:none;stroke:#000000;stroke-linecap:square;stroke-linejoin:miter;stroke-width:0.8;"/>
   </g>
   <g id="patch_6">
    <path d="M 72.47 26.88 
L 565.2 26.88 
" style="fill:none;stroke:#000000;stroke-linecap:square;stroke-linejoin:miter;stroke-width:0.8;"/>
   </g>
   <g id="text_14">
    <!-- V1, Num Trials=160 All stimulated trials, Num cells = 160 -->
    <defs>
     <path d="M 28.609375 0 
L 0.78125 72.90625 
L 11.078125 72.90625 
L 34.1875 11.53125 
L 57.328125 72.90625 
L 67.578125 72.90625 
L 39.796875 0 
z
" id="DejaVuSans-86"/>
     <path d="M 11.71875 12.40625 
L 22.015625 12.40625 
L 22.015625 4 
L 14.015625 -11.625 
L 7.71875 -11.625 
L 11.71875 4 
z
" id="DejaVuSans-44"/>
     <path d="M 9.8125 72.90625 
L 23.09375 72.90625 
L 55.421875 11.921875 
L 55.421875 72.90625 
L 64.984375 72.90625 
L 64.984375 0 
L 51.703125 0 
L 19.390625 60.984375 
L 19.390625 0 
L 9.8125 0 
z
" id="DejaVuSans-78"/>
     <path d="M 8.5 21.578125 
L 8.5 54.6875 
L 17.484375 54.6875 
L 17.484375 21.921875 
Q 17.484375 14.15625 20.5 10.265625 
Q 23.53125 6.390625 29.59375 6.390625 
Q 36.859375 6.390625 41.078125 11.03125 
Q 45.3125 15.671875 45.3125 23.6875 
L 45.3125 54.6875 
L 54.296875 54.6875 
L 54.296875 0 
L 45.3125 0 
L 45.3125 8.40625 
Q 42.046875 3.421875 37.71875 1 
Q 33.40625 -1.421875 27.6875 -1.421875 
Q 18.265625 -1.421875 13.375 4.4375 
Q 8.5 10.296875 8.5 21.578125 
z
M 31.109375 56 
z
" id="DejaVuSans-117"/>
     <path d="M 41.109375 46.296875 
Q 39.59375 47.171875 37.8125 47.578125 
Q 36.03125 48 33.890625 48 
Q 26.265625 48 22.1875 43.046875 
Q 18.109375 38.09375 18.109375 28.8125 
L 18.109375 0 
L 9.078125 0 
L 9.078125 54.6875 
L 18.109375 54.6875 
L 18.109375 46.1875 
Q 20.953125 51.171875 25.484375 53.578125 
Q 30.03125 56 36.53125 56 
Q 37.453125 56 38.578125 55.875 
Q 39.703125 55.765625 41.0625 55.515625 
z
" id="DejaVuSans-114"/>
     <path d="M 34.28125 27.484375 
Q 23.390625 27.484375 19.1875 25 
Q 14.984375 22.515625 14.984375 16.5 
Q 14.984375 11.71875 18.140625 8.90625 
Q 21.296875 6.109375 26.703125 6.109375 
Q 34.1875 6.109375 38.703125 11.40625 
Q 43.21875 16.703125 43.21875 25.484375 
L 43.21875 27.484375 
z
M 52.203125 31.203125 
L 52.203125 0 
L 43.21875 0 
L 43.21875 8.296875 
Q 40.140625 3.328125 35.546875 0.953125 
Q 30.953125 -1.421875 24.3125 -1.421875 
Q 15.921875 -1.421875 10.953125 3.296875 
Q 6 8.015625 6 15.921875 
Q 6 25.140625 12.171875 29.828125 
Q 18.359375 34.515625 30.609375 34.515625 
L 43.21875 34.515625 
L 43.21875 35.40625 
Q 43.21875 41.609375 39.140625 45 
Q 35.0625 48.390625 27.6875 48.390625 
Q 23 48.390625 18.546875 47.265625 
Q 14.109375 46.140625 10.015625 43.890625 
L 10.015625 52.203125 
Q 14.9375 54.109375 19.578125 55.046875 
Q 24.21875 56 28.609375 56 
Q 40.484375 56 46.34375 49.84375 
Q 52.203125 43.703125 52.203125 31.203125 
z
" id="DejaVuSans-97"/>
     <path d="M 9.421875 75.984375 
L 18.40625 75.984375 
L 18.40625 0 
L 9.421875 0 
z
" id="DejaVuSans-108"/>
     <path d="M 10.59375 45.40625 
L 73.1875 45.40625 
L 73.1875 37.203125 
L 10.59375 37.203125 
z
M 10.59375 25.484375 
L 73.1875 25.484375 
L 73.1875 17.1875 
L 10.59375 17.1875 
z
" id="DejaVuSans-61"/>
     <path d="M 33.015625 40.375 
Q 26.375 40.375 22.484375 35.828125 
Q 18.609375 31.296875 18.609375 23.390625 
Q 18.609375 15.53125 22.484375 10.953125 
Q 26.375 6.390625 33.015625 6.390625 
Q 39.65625 6.390625 43.53125 10.953125 
Q 47.40625 15.53125 47.40625 23.390625 
Q 47.40625 31.296875 43.53125 35.828125 
Q 39.65625 40.375 33.015625 40.375 
z
M 52.59375 71.296875 
L 52.59375 62.3125 
Q 48.875 64.0625 45.09375 64.984375 
Q 41.3125 65.921875 37.59375 65.921875 
Q 27.828125 65.921875 22.671875 59.328125 
Q 17.53125 52.734375 16.796875 39.40625 
Q 19.671875 43.65625 24.015625 45.921875 
Q 28.375 48.1875 33.59375 48.1875 
Q 44.578125 48.1875 50.953125 41.515625 
Q 57.328125 34.859375 57.328125 23.390625 
Q 57.328125 12.15625 50.6875 5.359375 
Q 44.046875 -1.421875 33.015625 -1.421875 
Q 20.359375 -1.421875 13.671875 8.265625 
Q 6.984375 17.96875 6.984375 36.375 
Q 6.984375 53.65625 15.1875 63.9375 
Q 23.390625 74.21875 37.203125 74.21875 
Q 40.921875 74.21875 44.703125 73.484375 
Q 48.484375 72.75 52.59375 71.296875 
z
" id="DejaVuSans-54"/>
     <path d="M 34.1875 63.1875 
L 20.796875 26.90625 
L 47.609375 26.90625 
z
M 28.609375 72.90625 
L 39.796875 72.90625 
L 67.578125 0 
L 57.328125 0 
L 50.6875 18.703125 
L 17.828125 18.703125 
L 11.1875 0 
L 0.78125 0 
z
" id="DejaVuSans-65"/>
     <path d="M 18.3125 70.21875 
L 18.3125 54.6875 
L 36.8125 54.6875 
L 36.8125 47.703125 
L 18.3125 47.703125 
L 18.3125 18.015625 
Q 18.3125 11.328125 20.140625 9.421875 
Q 21.96875 7.515625 27.59375 7.515625 
L 36.8125 7.515625 
L 36.8125 0 
L 27.59375 0 
Q 17.1875 0 13.234375 3.875 
Q 9.28125 7.765625 9.28125 18.015625 
L 9.28125 47.703125 
L 2.6875 47.703125 
L 2.6875 54.6875 
L 9.28125 54.6875 
L 9.28125 70.21875 
z
" id="DejaVuSans-116"/>
     <path d="M 45.40625 46.390625 
L 45.40625 75.984375 
L 54.390625 75.984375 
L 54.390625 0 
L 45.40625 0 
L 45.40625 8.203125 
Q 42.578125 3.328125 38.25 0.953125 
Q 33.9375 -1.421875 27.875 -1.421875 
Q 17.96875 -1.421875 11.734375 6.484375 
Q 5.515625 14.40625 5.515625 27.296875 
Q 5.515625 40.1875 11.734375 48.09375 
Q 17.96875 56 27.875 56 
Q 33.9375 56 38.25 53.625 
Q 42.578125 51.265625 45.40625 46.390625 
z
M 14.796875 27.296875 
Q 14.796875 17.390625 18.875 11.75 
Q 22.953125 6.109375 30.078125 6.109375 
Q 37.203125 6.109375 41.296875 11.75 
Q 45.40625 17.390625 45.40625 27.296875 
Q 45.40625 37.203125 41.296875 42.84375 
Q 37.203125 48.484375 30.078125 48.484375 
Q 22.953125 48.484375 18.875 42.84375 
Q 14.796875 37.203125 14.796875 27.296875 
z
" id="DejaVuSans-100"/>
     <path d="M 48.78125 52.59375 
L 48.78125 44.1875 
Q 44.96875 46.296875 41.140625 47.34375 
Q 37.3125 48.390625 33.40625 48.390625 
Q 24.65625 48.390625 19.8125 42.84375 
Q 14.984375 37.3125 14.984375 27.296875 
Q 14.984375 17.28125 19.8125 11.734375 
Q 24.65625 6.203125 33.40625 6.203125 
Q 37.3125 6.203125 41.140625 7.25 
Q 44.96875 8.296875 48.78125 10.40625 
L 48.78125 2.09375 
Q 45.015625 0.34375 40.984375 -0.53125 
Q 36.96875 -1.421875 32.421875 -1.421875 
Q 20.0625 -1.421875 12.78125 6.34375 
Q 5.515625 14.109375 5.515625 27.296875 
Q 5.515625 40.671875 12.859375 48.328125 
Q 20.21875 56 33.015625 56 
Q 37.15625 56 41.109375 55.140625 
Q 45.0625 54.296875 48.78125 52.59375 
z
" id="DejaVuSans-99"/>
    </defs>
    <g transform="translate(144.619375 20.88)scale(0.12 -0.12)">
     <use xlink:href="#DejaVuSans-86"/>
     <use x="68.408203" xlink:href="#DejaVuSans-49"/>
     <use x="132.03125" xlink:href="#DejaVuSans-44"/>
     <use x="163.818359" xlink:href="#DejaVuSans-32"/>
     <use x="195.605469" xlink:href="#DejaVuSans-78"/>
     <use x="270.410156" xlink:href="#DejaVuSans-117"/>
     <use x="333.789062" xlink:href="#DejaVuSans-109"/>
     <use x="431.201172" xlink:href="#DejaVuSans-32"/>
     <use x="462.988281" xlink:href="#DejaVuSans-84"/>
     <use x="523.853516" xlink:href="#DejaVuSans-114"/>
     <use x="564.966797" xlink:href="#DejaVuSans-105"/>
     <use x="592.75" xlink:href="#DejaVuSans-97"/>
     <use x="654.029297" xlink:href="#DejaVuSans-108"/>
     <use x="681.8125" xlink:href="#DejaVuSans-115"/>
     <use x="733.912109" xlink:href="#DejaVuSans-61"/>
     <use x="817.701172" xlink:href="#DejaVuSans-49"/>
     <use x="881.324219" xlink:href="#DejaVuSans-54"/>
     <use x="944.947266" xlink:href="#DejaVuSans-48"/>
     <use x="1008.570312" xlink:href="#DejaVuSans-32"/>
     <use x="1040.357422" xlink:href="#DejaVuSans-65"/>
     <use x="1108.765625" xlink:href="#DejaVuSans-108"/>
     <use x="1136.548828" xlink:href="#DejaVuSans-108"/>
     <use x="1164.332031" xlink:href="#DejaVuSans-32"/>
     <use x="1196.119141" xlink:href="#DejaVuSans-115"/>
     <use x="1248.21875" xlink:href="#DejaVuSans-116"/>
     <use x="1287.427734" xlink:href="#DejaVuSans-105"/>
     <use x="1315.210938" xlink:href="#DejaVuSans-109"/>
     <use x="1412.623047" xlink:href="#DejaVuSans-117"/>
     <use x="1476.001953" xlink:href="#DejaVuSans-108"/>
     <use x="1503.785156" xlink:href="#DejaVuSans-97"/>
     <use x="1565.064453" xlink:href="#DejaVuSans-116"/>
     <use x="1604.273438" xlink:href="#DejaVuSans-101"/>
     <use x="1665.796875" xlink:href="#DejaVuSans-100"/>
     <use x="1729.273438" xlink:href="#DejaVuSans-32"/>
     <use x="1761.060547" xlink:href="#DejaVuSans-116"/>
     <use x="1800.269531" xlink:href="#DejaVuSans-114"/>
     <use x="1841.382812" xlink:href="#DejaVuSans-105"/>
     <use x="1869.166016" xlink:href="#DejaVuSans-97"/>
     <use x="1930.445312" xlink:href="#DejaVuSans-108"/>
     <use x="1958.228516" xlink:href="#DejaVuSans-115"/>
     <use x="2010.328125" xlink:href="#DejaVuSans-44"/>
     <use x="2042.115234" xlink:href="#DejaVuSans-32"/>
     <use x="2073.902344" xlink:href="#DejaVuSans-78"/>
     <use x="2148.707031" xlink:href="#DejaVuSans-117"/>
     <use x="2212.085938" xlink:href="#DejaVuSans-109"/>
     <use x="2309.498047" xlink:href="#DejaVuSans-32"/>
     <use x="2341.285156" xlink:href="#DejaVuSans-99"/>
     <use x="2396.265625" xlink:href="#DejaVuSans-101"/>
     <use x="2457.789062" xlink:href="#DejaVuSans-108"/>
     <use x="2485.572266" xlink:href="#DejaVuSans-108"/>
     <use x="2513.355469" xlink:href="#DejaVuSans-115"/>
     <use x="2565.455078" xlink:href="#DejaVuSans-32"/>
     <use x="2597.242188" xlink:href="#DejaVuSans-61"/>
     <use x="2681.03125" xlink:href="#DejaVuSans-32"/>
     <use x="2712.818359" xlink:href="#DejaVuSans-49"/>
     <use x="2776.441406" xlink:href="#DejaVuSans-54"/>
     <use x="2840.064453" xlink:href="#DejaVuSans-48"/>
    </g>
   </g>
   <g id="legend_1">
    <g id="patch_7">
     <path d="M 80.87 168.76 
L 182.99 168.76 
Q 185.39 168.76 185.39 166.36 
L 185.39 132.30625 
Q 185.39 129.90625 182.99 129.90625 
L 80.87 129.90625 
Q 78.47 129.90625 78.47 132.30625 
L 78.47 166.36 
Q 78.47 168.76 80.87 168.76 
z
" style="fill:#ffffff;opacity:0.8;stroke:#cccccc;stroke-linejoin:miter;"/>
    </g>
    <g id="line2d_13">
     <path d="M 83.27 139.62625 
L 107.27 139.62625 
" style="fill:none;stroke:#0000ff;stroke-linecap:square;stroke-width:1.5;"/>
    </g>
    <g id="line2d_14"/>
    <g id="text_15">
     <!-- Binomial $p$ -->
     <defs>
      <path d="M 30.609375 48.390625 
Q 23.390625 48.390625 19.1875 42.75 
Q 14.984375 37.109375 14.984375 27.296875 
Q 14.984375 17.484375 19.15625 11.84375 
Q 23.34375 6.203125 30.609375 6.203125 
Q 37.796875 6.203125 41.984375 11.859375 
Q 46.1875 17.53125 46.1875 27.296875 
Q 46.1875 37.015625 41.984375 42.703125 
Q 37.796875 48.390625 30.609375 48.390625 
z
M 30.609375 56 
Q 42.328125 56 49.015625 48.375 
Q 55.71875 40.765625 55.71875 27.296875 
Q 55.71875 13.875 49.015625 6.21875 
Q 42.328125 -1.421875 30.609375 -1.421875 
Q 18.84375 -1.421875 12.171875 6.21875 
Q 5.515625 13.875 5.515625 27.296875 
Q 5.515625 40.765625 12.171875 48.375 
Q 18.84375 56 30.609375 56 
z
" id="DejaVuSans-111"/>
     </defs>
     <g transform="translate(116.87 143.82625)scale(0.12 -0.12)">
      <use transform="translate(0 0.015625)" xlink:href="#DejaVuSans-66"/>
      <use transform="translate(68.603516 0.015625)" xlink:href="#DejaVuSans-105"/>
      <use transform="translate(96.386719 0.015625)" xlink:href="#DejaVuSans-110"/>
      <use transform="translate(159.765625 0.015625)" xlink:href="#DejaVuSans-111"/>
      <use transform="translate(220.947266 0.015625)" xlink:href="#DejaVuSans-109"/>
      <use transform="translate(318.359375 0.015625)" xlink:href="#DejaVuSans-105"/>
      <use transform="translate(346.142578 0.015625)" xlink:href="#DejaVuSans-97"/>
      <use transform="translate(407.421875 0.015625)" xlink:href="#DejaVuSans-108"/>
      <use transform="translate(435.205078 0.015625)" xlink:href="#DejaVuSans-32"/>
      <use transform="translate(466.992188 0.015625)" xlink:href="#DejaVuSans-Oblique-112"/>
     </g>
    </g>
    <g id="patch_8">
     <path d="M 83.27 161.464375 
L 107.27 161.464375 
L 107.27 153.064375 
L 83.27 153.064375 
z
" style="fill:#0000ff;opacity:0.3;stroke:#0000ff;stroke-linejoin:miter;"/>
    </g>
    <g id="text_16">
     <!-- Std. Err. -->
     <defs>
      <path d="M 53.515625 70.515625 
L 53.515625 60.890625 
Q 47.90625 63.578125 42.921875 64.890625 
Q 37.9375 66.21875 33.296875 66.21875 
Q 25.25 66.21875 20.875 63.09375 
Q 16.5 59.96875 16.5 54.203125 
Q 16.5 49.359375 19.40625 46.890625 
Q 22.3125 44.4375 30.421875 42.921875 
L 36.375 41.703125 
Q 47.40625 39.59375 52.65625 34.296875 
Q 57.90625 29 57.90625 20.125 
Q 57.90625 9.515625 50.796875 4.046875 
Q 43.703125 -1.421875 29.984375 -1.421875 
Q 24.8125 -1.421875 18.96875 -0.25 
Q 13.140625 0.921875 6.890625 3.21875 
L 6.890625 13.375 
Q 12.890625 10.015625 18.65625 8.296875 
Q 24.421875 6.59375 29.984375 6.59375 
Q 38.421875 6.59375 43.015625 9.90625 
Q 47.609375 13.234375 47.609375 19.390625 
Q 47.609375 24.75 44.3125 27.78125 
Q 41.015625 30.8125 33.5 32.328125 
L 27.484375 33.5 
Q 16.453125 35.6875 11.515625 40.375 
Q 6.59375 45.0625 6.59375 53.421875 
Q 6.59375 63.09375 13.40625 68.65625 
Q 20.21875 74.21875 32.171875 74.21875 
Q 37.3125 74.21875 42.625 73.28125 
Q 47.953125 72.359375 53.515625 70.515625 
z
" id="DejaVuSans-83"/>
      <path d="M 9.8125 72.90625 
L 55.90625 72.90625 
L 55.90625 64.59375 
L 19.671875 64.59375 
L 19.671875 43.015625 
L 54.390625 43.015625 
L 54.390625 34.71875 
L 19.671875 34.71875 
L 19.671875 8.296875 
L 56.78125 8.296875 
L 56.78125 0 
L 9.8125 0 
z
" id="DejaVuSans-69"/>
     </defs>
     <g transform="translate(116.87 161.464375)scale(0.12 -0.12)">
      <use xlink:href="#DejaVuSans-83"/>
      <use x="63.476562" xlink:href="#DejaVuSans-116"/>
      <use x="102.685547" xlink:href="#DejaVuSans-100"/>
      <use x="166.162109" xlink:href="#DejaVuSans-46"/>
      <use x="197.949219" xlink:href="#DejaVuSans-32"/>
      <use x="229.736328" xlink:href="#DejaVuSans-69"/>
      <use x="292.919922" xlink:href="#DejaVuSans-114"/>
      <use x="334.017578" xlink:href="#DejaVuSans-114"/>
      <use x="374.990234" xlink:href="#DejaVuSans-46"/>
     </g>
    </g>
   </g>
  </g>
 </g>
 <defs>
  <clipPath id="pc6f689e945">
   <rect height="147.88" width="492.73" x="72.47" y="26.88"/>
  </clipPath>
 </defs>
</svg>
