<?xml version="1.0" encoding="utf-8" standalone="no"?>
<!DOCTYPE svg PUBLIC "-//W3C//DTD SVG 1.1//EN"
  "http://www.w3.org/Graphics/SVG/1.1/DTD/svg11.dtd">
<!-- Created with matplotlib (https://matplotlib.org/) -->
<svg height="216pt" version="1.1" viewBox="0 0 648 216" width="648pt" xmlns="http://www.w3.org/2000/svg" xmlns:xlink="http://www.w3.org/1999/xlink">
 <defs>
  <style type="text/css">
*{stroke-linecap:butt;stroke-linejoin:round;}
  </style>
 </defs>
 <g id="figure_1">
  <g id="patch_1">
   <path d="M 0 216 
L 648 216 
L 648 0 
L 0 0 
z
" style="fill:#ffffff;"/>
  </g>
  <g id="axes_1">
   <g id="patch_2">
    <path d="M 81 192.24 
L 583.2 192.24 
L 583.2 25.92 
L 81 25.92 
z
" style="fill:#ffffff;"/>
   </g>
   <g id="PolyCollection_1">
    <defs>
     <path d="M 81 -155.697238 
L 81 -122.220025 
L 83.049796 -119.077885 
L 85.099592 -119.080324 
L 87.149388 -120.004494 
L 89.199184 -118.206014 
L 91.24898 -119.392682 
L 93.298776 -120.472998 
L 95.348571 -121.765448 
L 97.398367 -123.708946 
L 99.448163 -126.043206 
L 101.497959 -124.587775 
L 103.547755 -128.279069 
L 105.597551 -135.043695 
L 107.647347 -130.759523 
L 109.697143 -128.212807 
L 111.746939 -124.613064 
L 113.796735 -122.757943 
L 115.846531 -125.066665 
L 117.896327 -122.444513 
L 119.946122 -120.463894 
L 121.995918 -118.034496 
L 124.045714 -112.898971 
L 126.09551 -109.549997 
L 128.145306 -109.10247 
L 130.195102 -108.642618 
L 132.244898 -113.272504 
L 134.294694 -114.520862 
L 136.34449 -115.389142 
L 138.394286 -111.076678 
L 140.444082 -109.677076 
L 142.493878 -111.719106 
L 144.543673 -115.439543 
L 146.593469 -117.882633 
L 148.643265 -120.020437 
L 150.693061 -120.25977 
L 152.742857 -119.914147 
L 154.792653 -120.516208 
L 156.842449 -119.860937 
L 158.892245 -126.458752 
L 160.942041 -130.903242 
L 162.991837 -131.428066 
L 165.041633 -131.431388 
L 167.091429 -128.096245 
L 169.141224 -126.772278 
L 171.19102 -130.192225 
L 173.240816 -126.995211 
L 175.290612 -126.167064 
L 177.340408 -124.4522 
L 179.390204 -121.945798 
L 181.44 -118.062477 
L 183.489796 -119.568976 
L 185.539592 -119.554587 
L 187.589388 -119.780192 
L 189.639184 -120.953785 
L 191.68898 -121.079933 
L 193.738776 -120.067627 
L 195.788571 -121.624633 
L 197.838367 -122.5641 
L 199.888163 -121.680071 
L 201.937959 -120.986832 
L 203.987755 -118.560415 
L 206.037551 -117.330841 
L 208.087347 -115.947467 
L 210.137143 -118.294378 
L 212.186939 -118.849319 
L 214.236735 -125.833641 
L 216.286531 -129.646606 
L 218.336327 -134.388103 
L 220.386122 -140.959766 
L 222.435918 -140.957268 
L 224.485714 -139.587988 
L 226.53551 -141.334781 
L 228.585306 -142.427813 
L 230.635102 -139.079267 
L 232.684898 -135.626026 
L 234.734694 -133.146414 
L 236.78449 -131.319394 
L 238.834286 -129.12817 
L 240.884082 -126.471185 
L 242.933878 -127.535672 
L 244.983673 -123.541329 
L 247.033469 -121.260205 
L 249.083265 -120.723691 
L 251.133061 -117.390154 
L 253.182857 -119.649086 
L 255.232653 -115.709928 
L 257.282449 -107.954501 
L 259.332245 -104.778814 
L 261.382041 -104.406753 
L 263.431837 -99.746924 
L 265.481633 -101.872649 
L 267.531429 -103.049963 
L 269.581224 -100.655525 
L 271.63102 -106.878117 
L 273.680816 -110.026175 
L 275.730612 -110.455633 
L 277.780408 -117.771988 
L 279.830204 -117.968917 
L 281.88 -112.173632 
L 283.929796 -113.231359 
L 285.979592 -109.734007 
L 288.029388 -107.810015 
L 290.079184 -109.102291 
L 292.12898 -107.881262 
L 294.178776 -100.852849 
L 296.228571 -99.944349 
L 298.278367 -95.701851 
L 300.328163 -96.307455 
L 302.377959 -104.170077 
L 304.427755 -103.460489 
L 306.477551 -105.983453 
L 308.527347 -103.290044 
L 310.577143 -101.93317 
L 312.626939 -101.638679 
L 314.676735 -107.396657 
L 316.726531 -108.314532 
L 318.776327 -109.499888 
L 320.826122 -108.455845 
L 322.875918 -108.57149 
L 324.925714 -110.149753 
L 326.97551 -114.887426 
L 329.025306 -123.358696 
L 331.075102 -129.741369 
L 333.124898 -131.665605 
L 335.174694 -131.700743 
L 337.22449 -132.951565 
L 339.274286 -128.765064 
L 341.324082 -126.817319 
L 343.373878 -120.419619 
L 345.423673 -121.768575 
L 347.473469 -117.698074 
L 349.523265 -113.532611 
L 351.573061 -111.564099 
L 353.622857 -103.37356 
L 355.672653 -99.600679 
L 357.722449 -97.841134 
L 359.772245 -96.753546 
L 361.822041 -101.829879 
L 363.871837 -105.94057 
L 365.921633 -105.819117 
L 367.971429 -104.151747 
L 370.021224 -98.929002 
L 372.07102 -100.036746 
L 374.120816 -104.508771 
L 376.170612 -102.3825 
L 378.220408 -98.064769 
L 380.270204 -101.220229 
L 382.32 -97.882422 
L 384.369796 -96.737498 
L 386.419592 -92.405794 
L 388.469388 -93.407945 
L 390.519184 -91.876735 
L 392.56898 -87.122224 
L 394.618776 -86.844165 
L 396.668571 -82.630977 
L 398.718367 -84.37574 
L 400.768163 -80.523483 
L 402.817959 -78.687296 
L 404.867755 -74.798144 
L 406.917551 -72.132942 
L 408.967347 -70.10687 
L 411.017143 -72.524216 
L 413.066939 -72.492863 
L 415.116735 -73.447811 
L 417.166531 -77.089835 
L 419.216327 -77.759581 
L 421.266122 -78.271509 
L 423.315918 -78.703964 
L 425.365714 -78.92289 
L 427.41551 -77.797403 
L 429.465306 -77.457508 
L 431.515102 -76.06846 
L 433.564898 -77.841869 
L 435.614694 -74.977008 
L 437.66449 -77.47863 
L 439.714286 -77.861391 
L 441.764082 -80.999203 
L 443.813878 -79.245587 
L 445.863673 -79.357449 
L 447.913469 -78.704723 
L 449.963265 -77.64153 
L 452.013061 -77.155842 
L 454.062857 -72.139303 
L 456.112653 -71.776173 
L 458.162449 -67.647969 
L 460.212245 -63.815383 
L 462.262041 -60.536806 
L 464.311837 -60.585882 
L 466.361633 -56.819511 
L 468.411429 -55.549901 
L 470.461224 -54.656303 
L 472.51102 -50.407119 
L 474.560816 -45.803236 
L 476.610612 -41.283979 
L 478.660408 -38.045281 
L 480.710204 -34.442527 
L 482.76 -33.820579 
L 484.809796 -29.867656 
L 486.859592 -29.44731 
L 488.909388 -30.706338 
L 490.959184 -27.540673 
L 493.00898 -32.500048 
L 495.058776 -34.335528 
L 497.108571 -37.558384 
L 499.158367 -35.715052 
L 501.208163 -34.280635 
L 503.257959 -30.612905 
L 505.307755 -32.12531 
L 507.357551 -30.612377 
L 509.407347 -30.766864 
L 511.457143 -29.880042 
L 513.506939 -23.76 
L 515.556735 -30.345511 
L 517.606531 -32.222153 
L 519.656327 -35.900963 
L 521.706122 -39.035293 
L 523.755918 -40.794393 
L 525.805714 -38.260409 
L 527.85551 -40.293267 
L 529.905306 -41.274489 
L 531.955102 -42.61339 
L 534.004898 -48.45461 
L 536.054694 -46.076594 
L 538.10449 -46.229841 
L 540.154286 -45.834684 
L 542.204082 -44.426526 
L 544.253878 -49.03145 
L 546.303673 -53.378118 
L 548.353469 -54.089418 
L 550.403265 -57.055276 
L 552.453061 -58.790659 
L 554.502857 -57.84547 
L 556.552653 -60.760852 
L 558.602449 -65.072184 
L 560.652245 -66.59826 
L 562.702041 -68.660517 
L 564.751837 -71.614222 
L 566.801633 -72.240157 
L 568.851429 -86.459254 
L 570.901224 -97.028571 
L 572.95102 -108.125347 
L 575.000816 -117.025062 
L 577.050612 -120.517231 
L 579.100408 -126.940639 
L 581.150204 -136.670351 
L 583.2 -148.121097 
L 583.2 -190.08 
L 583.2 -190.08 
L 581.150204 -178.30795 
L 579.100408 -168.314191 
L 577.050612 -160.899358 
L 575.000816 -156.756635 
L 572.95102 -147.046301 
L 570.901224 -133.647799 
L 568.851429 -120.83526 
L 566.801633 -106.900693 
L 564.751837 -107.526628 
L 562.702041 -105.549466 
L 560.652245 -103.476156 
L 558.602449 -101.343847 
L 556.552653 -95.952504 
L 554.502857 -93.300778 
L 552.453061 -95.536793 
L 550.403265 -93.29567 
L 548.353469 -91.489721 
L 546.303673 -90.292297 
L 544.253878 -84.61817 
L 542.204082 -79.043238 
L 540.154286 -79.543803 
L 538.10449 -79.625827 
L 536.054694 -79.301894 
L 534.004898 -83.127227 
L 531.955102 -77.675169 
L 529.905306 -75.832865 
L 527.85551 -73.473822 
L 525.805714 -70.893933 
L 523.755918 -72.813636 
L 521.706122 -70.75529 
L 519.656327 -67.845331 
L 517.606531 -63.412068 
L 515.556735 -61.153144 
L 513.506939 -53.264172 
L 511.457143 -59.55083 
L 509.407347 -60.25461 
L 507.357551 -60.409097 
L 505.307755 -62.71361 
L 503.257959 -61.840112 
L 501.208163 -65.330093 
L 499.158367 -65.168158 
L 497.108571 -67.301332 
L 495.058776 -63.843658 
L 493.00898 -62.179812 
L 490.959184 -56.641211 
L 488.909388 -60.156076 
L 486.859592 -59.0292 
L 484.809796 -58.608854 
L 482.76 -62.608943 
L 480.710204 -63.895719 
L 478.660408 -68.245977 
L 476.610612 -72.48311 
L 474.560816 -78.143709 
L 472.51102 -82.447199 
L 470.461224 -86.310089 
L 468.411429 -86.211791 
L 466.361633 -87.009965 
L 464.311837 -90.878485 
L 462.262041 -92.359103 
L 460.212245 -98.146961 
L 458.162449 -102.108327 
L 456.112653 -108.63716 
L 454.062857 -111.614294 
L 452.013061 -117.095732 
L 449.963265 -118.518767 
L 447.913469 -119.205236 
L 445.863673 -119.665933 
L 443.813878 -118.346252 
L 441.764082 -118.183238 
L 439.714286 -114.48146 
L 437.66449 -113.750799 
L 435.614694 -110.208132 
L 433.564898 -112.910379 
L 431.515102 -110.548222 
L 429.465306 -112.499439 
L 427.41551 -113.432026 
L 425.365714 -114.533383 
L 423.315918 -113.638887 
L 421.266122 -112.79886 
L 419.216327 -112.833607 
L 417.166531 -111.43557 
L 415.116735 -106.647401 
L 413.066939 -106.011746 
L 411.017143 -105.821333 
L 408.967347 -102.830631 
L 406.917551 -106.212607 
L 404.867755 -110.227935 
L 402.817959 -113.496494 
L 400.768163 -115.795874 
L 398.718367 -119.101328 
L 396.668571 -117.187706 
L 394.618776 -120.92753 
L 392.56898 -119.85417 
L 390.519184 -126.074815 
L 388.469388 -128.520112 
L 386.419592 -126.659179 
L 384.369796 -130.916728 
L 382.32 -135.338912 
L 380.270204 -139.158816 
L 378.220408 -136.429047 
L 376.170612 -140.70057 
L 374.120816 -142.232684 
L 372.07102 -137.002034 
L 370.021224 -134.610453 
L 367.971429 -139.249443 
L 365.921633 -139.808916 
L 363.871837 -139.051223 
L 361.822041 -133.300178 
L 359.772245 -127.401354 
L 357.722449 -129.17685 
L 355.672653 -132.030053 
L 353.622857 -136.846425 
L 351.573061 -147.584055 
L 349.523265 -151.818893 
L 347.473469 -156.083623 
L 345.423673 -161.397676 
L 343.373878 -159.724488 
L 341.324082 -165.574427 
L 339.274286 -166.807887 
L 337.22449 -170.256278 
L 335.174694 -168.325895 
L 333.124898 -169.474455 
L 331.075102 -166.467823 
L 329.025306 -158.853194 
L 326.97551 -149.668777 
L 324.925714 -144.067534 
L 322.875918 -140.396808 
L 320.826122 -140.512454 
L 318.776327 -141.536194 
L 316.726531 -139.858466 
L 314.676735 -138.231376 
L 312.626939 -132.855137 
L 310.577143 -132.878767 
L 308.527347 -135.339339 
L 306.477551 -137.576798 
L 304.427755 -134.532652 
L 302.377959 -135.254607 
L 300.328163 -127.529324 
L 298.278367 -127.339627 
L 296.228571 -131.527322 
L 294.178776 -133.481907 
L 292.12898 -141.723278 
L 290.079184 -143.524393 
L 288.029388 -142.907946 
L 285.979592 -145.278581 
L 283.929796 -148.302699 
L 281.88 -147.769824 
L 279.830204 -157.562442 
L 277.780408 -158.395612 
L 275.730612 -150.283124 
L 273.680816 -148.326678 
L 271.63102 -144.157965 
L 269.581224 -137.655737 
L 267.531429 -139.714986 
L 265.481633 -137.711095 
L 263.431837 -135.065013 
L 261.382041 -138.358196 
L 259.332245 -135.12305 
L 257.282449 -137.832593 
L 255.232653 -145.82413 
L 253.182857 -151.269527 
L 251.133061 -149.392892 
L 249.083265 -152.898946 
L 247.033469 -152.839613 
L 244.983673 -155.330296 
L 242.933878 -158.811784 
L 240.884082 -158.92191 
L 238.834286 -167.081022 
L 236.78449 -173.16093 
L 234.734694 -175.628537 
L 232.684898 -178.556973 
L 230.635102 -184.170166 
L 228.585306 -187.02497 
L 226.53551 -186.050219 
L 224.485714 -182.866144 
L 222.435918 -183.723707 
L 220.386122 -181.812487 
L 218.336327 -172.160005 
L 216.286531 -165.767285 
L 214.236735 -160.831936 
L 212.186939 -151.273992 
L 210.137143 -149.283969 
L 208.087347 -147.177193 
L 206.037551 -148.656904 
L 203.987755 -150.449475 
L 201.937959 -153.749227 
L 199.888163 -153.374108 
L 197.838367 -153.28538 
L 195.788571 -152.157064 
L 193.738776 -150.532865 
L 191.68898 -150.793041 
L 189.639184 -150.123888 
L 187.589388 -148.911577 
L 185.539592 -148.660002 
L 183.489796 -149.599974 
L 181.44 -147.448088 
L 179.390204 -152.313079 
L 177.340408 -155.850968 
L 175.290612 -158.43073 
L 173.240816 -159.193185 
L 171.19102 -163.631063 
L 169.141224 -161.802022 
L 167.091429 -162.704898 
L 165.041633 -165.573105 
L 162.991837 -164.622066 
L 160.942041 -163.715348 
L 158.892245 -159.252463 
L 156.842449 -151.057676 
L 154.792653 -151.197706 
L 152.742857 -150.368224 
L 150.693061 -150.658842 
L 148.643265 -148.989452 
L 146.593469 -146.99169 
L 144.543673 -144.981093 
L 142.493878 -141.384759 
L 140.444082 -140.245584 
L 138.394286 -141.868127 
L 136.34449 -147.735518 
L 134.294694 -146.695075 
L 132.244898 -145.239409 
L 130.195102 -139.68944 
L 128.145306 -140.343009 
L 126.09551 -141.327024 
L 124.045714 -145.294822 
L 121.995918 -150.657273 
L 119.946122 -153.794984 
L 117.896327 -157.381473 
L 115.846531 -160.64455 
L 113.796735 -158.658646 
L 111.746939 -161.098151 
L 109.697143 -164.497059 
L 107.647347 -166.24497 
L 105.597551 -170.550052 
L 103.547755 -163.953617 
L 101.497959 -159.055657 
L 99.448163 -160.781432 
L 97.398367 -159.457305 
L 95.348571 -157.106177 
L 93.298776 -155.376482 
L 91.24898 -153.275593 
L 89.199184 -152.871659 
L 87.149388 -155.049685 
L 85.099592 -153.906072 
L 83.049796 -153.11321 
L 81 -155.697238 
z
" id="m5ae3512d31" style="stroke:#0000ff;stroke-opacity:0.3;"/>
    </defs>
    <g clip-path="url(#p1ac2279b78)">
     <use style="fill:#0000ff;fill-opacity:0.3;stroke:#0000ff;stroke-opacity:0.3;" x="0" xlink:href="#m5ae3512d31" y="216"/>
    </g>
   </g>
   <g id="PolyCollection_2">
    <defs>
     <path d="M 128.042816 -23.76 
L 128.042816 -190.08 
L 435.512204 -190.08 
L 435.512204 -23.76 
L 435.512204 -23.76 
L 128.042816 -23.76 
z
" id="mc04e9c1fe8" style="stroke:#808080;stroke-opacity:0.3;"/>
    </defs>
    <g clip-path="url(#p1ac2279b78)">
     <use style="fill:#808080;fill-opacity:0.3;stroke:#808080;stroke-opacity:0.3;" x="0" xlink:href="#mc04e9c1fe8" y="216"/>
    </g>
   </g>
   <g id="matplotlib.axis_1">
    <g id="xtick_1">
     <g id="line2d_1">
      <defs>
       <path d="M 0 0 
L 0 3.5 
" id="m8e2deecd22" style="stroke:#000000;stroke-width:0.8;"/>
      </defs>
      <g>
       <use style="stroke:#000000;stroke-width:0.8;" x="81" xlink:href="#m8e2deecd22" y="192.24"/>
      </g>
     </g>
     <g id="text_1">
      <!-- 0.0 -->
      <defs>
       <path d="M 31.78125 66.40625 
Q 24.171875 66.40625 20.328125 58.90625 
Q 16.5 51.421875 16.5 36.375 
Q 16.5 21.390625 20.328125 13.890625 
Q 24.171875 6.390625 31.78125 6.390625 
Q 39.453125 6.390625 43.28125 13.890625 
Q 47.125 21.390625 47.125 36.375 
Q 47.125 51.421875 43.28125 58.90625 
Q 39.453125 66.40625 31.78125 66.40625 
z
M 31.78125 74.21875 
Q 44.046875 74.21875 50.515625 64.515625 
Q 56.984375 54.828125 56.984375 36.375 
Q 56.984375 17.96875 50.515625 8.265625 
Q 44.046875 -1.421875 31.78125 -1.421875 
Q 19.53125 -1.421875 13.0625 8.265625 
Q 6.59375 17.96875 6.59375 36.375 
Q 6.59375 54.828125 13.0625 64.515625 
Q 19.53125 74.21875 31.78125 74.21875 
z
" id="DejaVuSans-48"/>
       <path d="M 10.6875 12.40625 
L 21 12.40625 
L 21 0 
L 10.6875 0 
z
" id="DejaVuSans-46"/>
      </defs>
      <g transform="translate(71.458125 208.358125)scale(0.12 -0.12)">
       <use xlink:href="#DejaVuSans-48"/>
       <use x="63.623047" xlink:href="#DejaVuSans-46"/>
       <use x="95.410156" xlink:href="#DejaVuSans-48"/>
      </g>
     </g>
    </g>
    <g id="xtick_2">
     <g id="line2d_2">
      <g>
       <use style="stroke:#000000;stroke-width:0.8;" x="183.489796" xlink:href="#m8e2deecd22" y="192.24"/>
      </g>
     </g>
     <g id="text_2">
      <!-- 0.5 -->
      <defs>
       <path d="M 10.796875 72.90625 
L 49.515625 72.90625 
L 49.515625 64.59375 
L 19.828125 64.59375 
L 19.828125 46.734375 
Q 21.96875 47.46875 24.109375 47.828125 
Q 26.265625 48.1875 28.421875 48.1875 
Q 40.625 48.1875 47.75 41.5 
Q 54.890625 34.8125 54.890625 23.390625 
Q 54.890625 11.625 47.5625 5.09375 
Q 40.234375 -1.421875 26.90625 -1.421875 
Q 22.3125 -1.421875 17.546875 -0.640625 
Q 12.796875 0.140625 7.71875 1.703125 
L 7.71875 11.625 
Q 12.109375 9.234375 16.796875 8.0625 
Q 21.484375 6.890625 26.703125 6.890625 
Q 35.15625 6.890625 40.078125 11.328125 
Q 45.015625 15.765625 45.015625 23.390625 
Q 45.015625 31 40.078125 35.4375 
Q 35.15625 39.890625 26.703125 39.890625 
Q 22.75 39.890625 18.8125 39.015625 
Q 14.890625 38.140625 10.796875 36.28125 
z
" id="DejaVuSans-53"/>
      </defs>
      <g transform="translate(173.947921 208.358125)scale(0.12 -0.12)">
       <use xlink:href="#DejaVuSans-48"/>
       <use x="63.623047" xlink:href="#DejaVuSans-46"/>
       <use x="95.410156" xlink:href="#DejaVuSans-53"/>
      </g>
     </g>
    </g>
    <g id="xtick_3">
     <g id="line2d_3">
      <g>
       <use style="stroke:#000000;stroke-width:0.8;" x="285.979592" xlink:href="#m8e2deecd22" y="192.24"/>
      </g>
     </g>
     <g id="text_3">
      <!-- 1.0 -->
      <defs>
       <path d="M 12.40625 8.296875 
L 28.515625 8.296875 
L 28.515625 63.921875 
L 10.984375 60.40625 
L 10.984375 69.390625 
L 28.421875 72.90625 
L 38.28125 72.90625 
L 38.28125 8.296875 
L 54.390625 8.296875 
L 54.390625 0 
L 12.40625 0 
z
" id="DejaVuSans-49"/>
      </defs>
      <g transform="translate(276.437717 208.358125)scale(0.12 -0.12)">
       <use xlink:href="#DejaVuSans-49"/>
       <use x="63.623047" xlink:href="#DejaVuSans-46"/>
       <use x="95.410156" xlink:href="#DejaVuSans-48"/>
      </g>
     </g>
    </g>
    <g id="xtick_4">
     <g id="line2d_4">
      <g>
       <use style="stroke:#000000;stroke-width:0.8;" x="388.469388" xlink:href="#m8e2deecd22" y="192.24"/>
      </g>
     </g>
     <g id="text_4">
      <!-- 1.5 -->
      <g transform="translate(378.927513 208.358125)scale(0.12 -0.12)">
       <use xlink:href="#DejaVuSans-49"/>
       <use x="63.623047" xlink:href="#DejaVuSans-46"/>
       <use x="95.410156" xlink:href="#DejaVuSans-53"/>
      </g>
     </g>
    </g>
    <g id="xtick_5">
     <g id="line2d_5">
      <g>
       <use style="stroke:#000000;stroke-width:0.8;" x="490.959184" xlink:href="#m8e2deecd22" y="192.24"/>
      </g>
     </g>
     <g id="text_5">
      <!-- 2.0 -->
      <defs>
       <path d="M 19.1875 8.296875 
L 53.609375 8.296875 
L 53.609375 0 
L 7.328125 0 
L 7.328125 8.296875 
Q 12.9375 14.109375 22.625 23.890625 
Q 32.328125 33.6875 34.8125 36.53125 
Q 39.546875 41.84375 41.421875 45.53125 
Q 43.3125 49.21875 43.3125 52.78125 
Q 43.3125 58.59375 39.234375 62.25 
Q 35.15625 65.921875 28.609375 65.921875 
Q 23.96875 65.921875 18.8125 64.3125 
Q 13.671875 62.703125 7.8125 59.421875 
L 7.8125 69.390625 
Q 13.765625 71.78125 18.9375 73 
Q 24.125 74.21875 28.421875 74.21875 
Q 39.75 74.21875 46.484375 68.546875 
Q 53.21875 62.890625 53.21875 53.421875 
Q 53.21875 48.921875 51.53125 44.890625 
Q 49.859375 40.875 45.40625 35.40625 
Q 44.1875 33.984375 37.640625 27.21875 
Q 31.109375 20.453125 19.1875 8.296875 
z
" id="DejaVuSans-50"/>
      </defs>
      <g transform="translate(481.417309 208.358125)scale(0.12 -0.12)">
       <use xlink:href="#DejaVuSans-50"/>
       <use x="63.623047" xlink:href="#DejaVuSans-46"/>
       <use x="95.410156" xlink:href="#DejaVuSans-48"/>
      </g>
     </g>
    </g>
    <g id="text_6">
     <!-- Time (s) -->
     <defs>
      <path d="M -0.296875 72.90625 
L 61.375 72.90625 
L 61.375 64.59375 
L 35.5 64.59375 
L 35.5 0 
L 25.59375 0 
L 25.59375 64.59375 
L -0.296875 64.59375 
z
" id="DejaVuSans-84"/>
      <path d="M 9.421875 54.6875 
L 18.40625 54.6875 
L 18.40625 0 
L 9.421875 0 
z
M 9.421875 75.984375 
L 18.40625 75.984375 
L 18.40625 64.59375 
L 9.421875 64.59375 
z
" id="DejaVuSans-105"/>
      <path d="M 52 44.1875 
Q 55.375 50.25 60.0625 53.125 
Q 64.75 56 71.09375 56 
Q 79.640625 56 84.28125 50.015625 
Q 88.921875 44.046875 88.921875 33.015625 
L 88.921875 0 
L 79.890625 0 
L 79.890625 32.71875 
Q 79.890625 40.578125 77.09375 44.375 
Q 74.3125 48.1875 68.609375 48.1875 
Q 61.625 48.1875 57.5625 43.546875 
Q 53.515625 38.921875 53.515625 30.90625 
L 53.515625 0 
L 44.484375 0 
L 44.484375 32.71875 
Q 44.484375 40.625 41.703125 44.40625 
Q 38.921875 48.1875 33.109375 48.1875 
Q 26.21875 48.1875 22.15625 43.53125 
Q 18.109375 38.875 18.109375 30.90625 
L 18.109375 0 
L 9.078125 0 
L 9.078125 54.6875 
L 18.109375 54.6875 
L 18.109375 46.1875 
Q 21.1875 51.21875 25.484375 53.609375 
Q 29.78125 56 35.6875 56 
Q 41.65625 56 45.828125 52.96875 
Q 50 49.953125 52 44.1875 
z
" id="DejaVuSans-109"/>
      <path d="M 56.203125 29.59375 
L 56.203125 25.203125 
L 14.890625 25.203125 
Q 15.484375 15.921875 20.484375 11.0625 
Q 25.484375 6.203125 34.421875 6.203125 
Q 39.59375 6.203125 44.453125 7.46875 
Q 49.3125 8.734375 54.109375 11.28125 
L 54.109375 2.78125 
Q 49.265625 0.734375 44.1875 -0.34375 
Q 39.109375 -1.421875 33.890625 -1.421875 
Q 20.796875 -1.421875 13.15625 6.1875 
Q 5.515625 13.8125 5.515625 26.8125 
Q 5.515625 40.234375 12.765625 48.109375 
Q 20.015625 56 32.328125 56 
Q 43.359375 56 49.78125 48.890625 
Q 56.203125 41.796875 56.203125 29.59375 
z
M 47.21875 32.234375 
Q 47.125 39.59375 43.09375 43.984375 
Q 39.0625 48.390625 32.421875 48.390625 
Q 24.90625 48.390625 20.390625 44.140625 
Q 15.875 39.890625 15.1875 32.171875 
z
" id="DejaVuSans-101"/>
      <path id="DejaVuSans-32"/>
      <path d="M 31 75.875 
Q 24.46875 64.65625 21.28125 53.65625 
Q 18.109375 42.671875 18.109375 31.390625 
Q 18.109375 20.125 21.3125 9.0625 
Q 24.515625 -2 31 -13.1875 
L 23.1875 -13.1875 
Q 15.875 -1.703125 12.234375 9.375 
Q 8.59375 20.453125 8.59375 31.390625 
Q 8.59375 42.28125 12.203125 53.3125 
Q 15.828125 64.359375 23.1875 75.875 
z
" id="DejaVuSans-40"/>
      <path d="M 44.28125 53.078125 
L 44.28125 44.578125 
Q 40.484375 46.53125 36.375 47.5 
Q 32.28125 48.484375 27.875 48.484375 
Q 21.1875 48.484375 17.84375 46.4375 
Q 14.5 44.390625 14.5 40.28125 
Q 14.5 37.15625 16.890625 35.375 
Q 19.28125 33.59375 26.515625 31.984375 
L 29.59375 31.296875 
Q 39.15625 29.25 43.1875 25.515625 
Q 47.21875 21.78125 47.21875 15.09375 
Q 47.21875 7.46875 41.1875 3.015625 
Q 35.15625 -1.421875 24.609375 -1.421875 
Q 20.21875 -1.421875 15.453125 -0.5625 
Q 10.6875 0.296875 5.421875 2 
L 5.421875 11.28125 
Q 10.40625 8.6875 15.234375 7.390625 
Q 20.0625 6.109375 24.8125 6.109375 
Q 31.15625 6.109375 34.5625 8.28125 
Q 37.984375 10.453125 37.984375 14.40625 
Q 37.984375 18.0625 35.515625 20.015625 
Q 33.0625 21.96875 24.703125 23.78125 
L 21.578125 24.515625 
Q 13.234375 26.265625 9.515625 29.90625 
Q 5.8125 33.546875 5.8125 39.890625 
Q 5.8125 47.609375 11.28125 51.796875 
Q 16.75 56 26.8125 56 
Q 31.78125 56 36.171875 55.265625 
Q 40.578125 54.546875 44.28125 53.078125 
z
" id="DejaVuSans-115"/>
      <path d="M 8.015625 75.875 
L 15.828125 75.875 
Q 23.140625 64.359375 26.78125 53.3125 
Q 30.421875 42.28125 30.421875 31.390625 
Q 30.421875 20.453125 26.78125 9.375 
Q 23.140625 -1.703125 15.828125 -13.1875 
L 8.015625 -13.1875 
Q 14.5 -2 17.703125 9.0625 
Q 20.90625 20.125 20.90625 31.390625 
Q 20.90625 42.671875 17.703125 53.65625 
Q 14.5 64.65625 8.015625 75.875 
z
" id="DejaVuSans-41"/>
     </defs>
     <g transform="translate(302.60475 225.7955)scale(0.144 -0.144)">
      <use xlink:href="#DejaVuSans-84"/>
      <use x="61.037109" xlink:href="#DejaVuSans-105"/>
      <use x="88.820312" xlink:href="#DejaVuSans-109"/>
      <use x="186.232422" xlink:href="#DejaVuSans-101"/>
      <use x="247.755859" xlink:href="#DejaVuSans-32"/>
      <use x="279.542969" xlink:href="#DejaVuSans-40"/>
      <use x="318.556641" xlink:href="#DejaVuSans-115"/>
      <use x="370.65625" xlink:href="#DejaVuSans-41"/>
     </g>
    </g>
   </g>
   <g id="matplotlib.axis_2">
    <g id="ytick_1">
     <g id="line2d_6">
      <defs>
       <path d="M 0 0 
L -3.5 0 
" id="ma5a5e2579c" style="stroke:#000000;stroke-width:0.8;"/>
      </defs>
      <g>
       <use style="stroke:#000000;stroke-width:0.8;" x="81" xlink:href="#ma5a5e2579c" y="172.159396"/>
      </g>
     </g>
     <g id="text_7">
      <!-- 0.00100 -->
      <g transform="translate(24.37625 176.718458)scale(0.12 -0.12)">
       <use xlink:href="#DejaVuSans-48"/>
       <use x="63.623047" xlink:href="#DejaVuSans-46"/>
       <use x="95.410156" xlink:href="#DejaVuSans-48"/>
       <use x="159.033203" xlink:href="#DejaVuSans-48"/>
       <use x="222.65625" xlink:href="#DejaVuSans-49"/>
       <use x="286.279297" xlink:href="#DejaVuSans-48"/>
       <use x="349.902344" xlink:href="#DejaVuSans-48"/>
      </g>
     </g>
    </g>
    <g id="ytick_2">
     <g id="line2d_7">
      <g>
       <use style="stroke:#000000;stroke-width:0.8;" x="81" xlink:href="#ma5a5e2579c" y="149.827337"/>
      </g>
     </g>
     <g id="text_8">
      <!-- 0.00105 -->
      <g transform="translate(24.37625 154.386399)scale(0.12 -0.12)">
       <use xlink:href="#DejaVuSans-48"/>
       <use x="63.623047" xlink:href="#DejaVuSans-46"/>
       <use x="95.410156" xlink:href="#DejaVuSans-48"/>
       <use x="159.033203" xlink:href="#DejaVuSans-48"/>
       <use x="222.65625" xlink:href="#DejaVuSans-49"/>
       <use x="286.279297" xlink:href="#DejaVuSans-48"/>
       <use x="349.902344" xlink:href="#DejaVuSans-53"/>
      </g>
     </g>
    </g>
    <g id="ytick_3">
     <g id="line2d_8">
      <g>
       <use style="stroke:#000000;stroke-width:0.8;" x="81" xlink:href="#ma5a5e2579c" y="127.495278"/>
      </g>
     </g>
     <g id="text_9">
      <!-- 0.00110 -->
      <g transform="translate(24.37625 132.054341)scale(0.12 -0.12)">
       <use xlink:href="#DejaVuSans-48"/>
       <use x="63.623047" xlink:href="#DejaVuSans-46"/>
       <use x="95.410156" xlink:href="#DejaVuSans-48"/>
       <use x="159.033203" xlink:href="#DejaVuSans-48"/>
       <use x="222.65625" xlink:href="#DejaVuSans-49"/>
       <use x="286.279297" xlink:href="#DejaVuSans-49"/>
       <use x="349.902344" xlink:href="#DejaVuSans-48"/>
      </g>
     </g>
    </g>
    <g id="ytick_4">
     <g id="line2d_9">
      <g>
       <use style="stroke:#000000;stroke-width:0.8;" x="81" xlink:href="#ma5a5e2579c" y="105.16322"/>
      </g>
     </g>
     <g id="text_10">
      <!-- 0.00115 -->
      <g transform="translate(24.37625 109.722282)scale(0.12 -0.12)">
       <use xlink:href="#DejaVuSans-48"/>
       <use x="63.623047" xlink:href="#DejaVuSans-46"/>
       <use x="95.410156" xlink:href="#DejaVuSans-48"/>
       <use x="159.033203" xlink:href="#DejaVuSans-48"/>
       <use x="222.65625" xlink:href="#DejaVuSans-49"/>
       <use x="286.279297" xlink:href="#DejaVuSans-49"/>
       <use x="349.902344" xlink:href="#DejaVuSans-53"/>
      </g>
     </g>
    </g>
    <g id="ytick_5">
     <g id="line2d_10">
      <g>
       <use style="stroke:#000000;stroke-width:0.8;" x="81" xlink:href="#ma5a5e2579c" y="82.831161"/>
      </g>
     </g>
     <g id="text_11">
      <!-- 0.00120 -->
      <g transform="translate(24.37625 87.390224)scale(0.12 -0.12)">
       <use xlink:href="#DejaVuSans-48"/>
       <use x="63.623047" xlink:href="#DejaVuSans-46"/>
       <use x="95.410156" xlink:href="#DejaVuSans-48"/>
       <use x="159.033203" xlink:href="#DejaVuSans-48"/>
       <use x="222.65625" xlink:href="#DejaVuSans-49"/>
       <use x="286.279297" xlink:href="#DejaVuSans-50"/>
       <use x="349.902344" xlink:href="#DejaVuSans-48"/>
      </g>
     </g>
    </g>
    <g id="ytick_6">
     <g id="line2d_11">
      <g>
       <use style="stroke:#000000;stroke-width:0.8;" x="81" xlink:href="#ma5a5e2579c" y="60.499103"/>
      </g>
     </g>
     <g id="text_12">
      <!-- 0.00125 -->
      <g transform="translate(24.37625 65.058165)scale(0.12 -0.12)">
       <use xlink:href="#DejaVuSans-48"/>
       <use x="63.623047" xlink:href="#DejaVuSans-46"/>
       <use x="95.410156" xlink:href="#DejaVuSans-48"/>
       <use x="159.033203" xlink:href="#DejaVuSans-48"/>
       <use x="222.65625" xlink:href="#DejaVuSans-49"/>
       <use x="286.279297" xlink:href="#DejaVuSans-50"/>
       <use x="349.902344" xlink:href="#DejaVuSans-53"/>
      </g>
     </g>
    </g>
    <g id="ytick_7">
     <g id="line2d_12">
      <g>
       <use style="stroke:#000000;stroke-width:0.8;" x="81" xlink:href="#ma5a5e2579c" y="38.167044"/>
      </g>
     </g>
     <g id="text_13">
      <!-- 0.00130 -->
      <defs>
       <path d="M 40.578125 39.3125 
Q 47.65625 37.796875 51.625 33 
Q 55.609375 28.21875 55.609375 21.1875 
Q 55.609375 10.40625 48.1875 4.484375 
Q 40.765625 -1.421875 27.09375 -1.421875 
Q 22.515625 -1.421875 17.65625 -0.515625 
Q 12.796875 0.390625 7.625 2.203125 
L 7.625 11.71875 
Q 11.71875 9.328125 16.59375 8.109375 
Q 21.484375 6.890625 26.8125 6.890625 
Q 36.078125 6.890625 40.9375 10.546875 
Q 45.796875 14.203125 45.796875 21.1875 
Q 45.796875 27.640625 41.28125 31.265625 
Q 36.765625 34.90625 28.71875 34.90625 
L 20.21875 34.90625 
L 20.21875 43.015625 
L 29.109375 43.015625 
Q 36.375 43.015625 40.234375 45.921875 
Q 44.09375 48.828125 44.09375 54.296875 
Q 44.09375 59.90625 40.109375 62.90625 
Q 36.140625 65.921875 28.71875 65.921875 
Q 24.65625 65.921875 20.015625 65.03125 
Q 15.375 64.15625 9.8125 62.3125 
L 9.8125 71.09375 
Q 15.4375 72.65625 20.34375 73.4375 
Q 25.25 74.21875 29.59375 74.21875 
Q 40.828125 74.21875 47.359375 69.109375 
Q 53.90625 64.015625 53.90625 55.328125 
Q 53.90625 49.265625 50.4375 45.09375 
Q 46.96875 40.921875 40.578125 39.3125 
z
" id="DejaVuSans-51"/>
      </defs>
      <g transform="translate(24.37625 42.726107)scale(0.12 -0.12)">
       <use xlink:href="#DejaVuSans-48"/>
       <use x="63.623047" xlink:href="#DejaVuSans-46"/>
       <use x="95.410156" xlink:href="#DejaVuSans-48"/>
       <use x="159.033203" xlink:href="#DejaVuSans-48"/>
       <use x="222.65625" xlink:href="#DejaVuSans-49"/>
       <use x="286.279297" xlink:href="#DejaVuSans-51"/>
       <use x="349.902344" xlink:href="#DejaVuSans-48"/>
      </g>
     </g>
    </g>
    <g id="text_14">
     <!-- Bin. $p$ -->
     <defs>
      <path d="M 19.671875 34.8125 
L 19.671875 8.109375 
L 35.5 8.109375 
Q 43.453125 8.109375 47.28125 11.40625 
Q 51.125 14.703125 51.125 21.484375 
Q 51.125 28.328125 47.28125 31.5625 
Q 43.453125 34.8125 35.5 34.8125 
z
M 19.671875 64.796875 
L 19.671875 42.828125 
L 34.28125 42.828125 
Q 41.5 42.828125 45.03125 45.53125 
Q 48.578125 48.25 48.578125 53.8125 
Q 48.578125 59.328125 45.03125 62.0625 
Q 41.5 64.796875 34.28125 64.796875 
z
M 9.8125 72.90625 
L 35.015625 72.90625 
Q 46.296875 72.90625 52.390625 68.21875 
Q 58.5 63.53125 58.5 54.890625 
Q 58.5 48.1875 55.375 44.234375 
Q 52.25 40.28125 46.1875 39.3125 
Q 53.46875 37.75 57.5 32.78125 
Q 61.53125 27.828125 61.53125 20.40625 
Q 61.53125 10.640625 54.890625 5.3125 
Q 48.25 0 35.984375 0 
L 9.8125 0 
z
" id="DejaVuSans-66"/>
      <path d="M 54.890625 33.015625 
L 54.890625 0 
L 45.90625 0 
L 45.90625 32.71875 
Q 45.90625 40.484375 42.875 44.328125 
Q 39.84375 48.1875 33.796875 48.1875 
Q 26.515625 48.1875 22.3125 43.546875 
Q 18.109375 38.921875 18.109375 30.90625 
L 18.109375 0 
L 9.078125 0 
L 9.078125 54.6875 
L 18.109375 54.6875 
L 18.109375 46.1875 
Q 21.34375 51.125 25.703125 53.5625 
Q 30.078125 56 35.796875 56 
Q 45.21875 56 50.046875 50.171875 
Q 54.890625 44.34375 54.890625 33.015625 
z
" id="DejaVuSans-110"/>
      <path d="M 49.609375 33.6875 
Q 49.609375 40.875 46.484375 44.671875 
Q 43.359375 48.484375 37.5 48.484375 
Q 33.5 48.484375 29.859375 46.4375 
Q 26.21875 44.390625 23.390625 40.484375 
Q 20.609375 36.625 18.9375 31.15625 
Q 17.28125 25.6875 17.28125 20.3125 
Q 17.28125 13.484375 20.40625 9.796875 
Q 23.53125 6.109375 29.296875 6.109375 
Q 33.546875 6.109375 37.1875 8.109375 
Q 40.828125 10.109375 43.40625 13.921875 
Q 46.1875 17.921875 47.890625 23.34375 
Q 49.609375 28.765625 49.609375 33.6875 
z
M 21.78125 46.390625 
Q 25.390625 51.125 30.296875 53.5625 
Q 35.203125 56 41.21875 56 
Q 49.609375 56 54.25 50.5 
Q 58.890625 45.015625 58.890625 35.109375 
Q 58.890625 27 56 19.65625 
Q 53.125 12.3125 47.703125 6.5 
Q 44.09375 2.640625 39.546875 0.609375 
Q 35.015625 -1.421875 29.984375 -1.421875 
Q 24.171875 -1.421875 20.21875 1 
Q 16.265625 3.421875 14.3125 8.203125 
L 8.6875 -20.796875 
L -0.296875 -20.796875 
L 14.40625 54.6875 
L 23.390625 54.6875 
z
" id="DejaVuSans-Oblique-112"/>
     </defs>
     <g transform="translate(17.35225 129.744)rotate(-90)scale(0.144 -0.144)">
      <use transform="translate(0 0.015625)" xlink:href="#DejaVuSans-66"/>
      <use transform="translate(68.603516 0.015625)" xlink:href="#DejaVuSans-105"/>
      <use transform="translate(96.386719 0.015625)" xlink:href="#DejaVuSans-110"/>
      <use transform="translate(159.765625 0.015625)" xlink:href="#DejaVuSans-46"/>
      <use transform="translate(191.552734 0.015625)" xlink:href="#DejaVuSans-32"/>
      <use transform="translate(223.339844 0.015625)" xlink:href="#DejaVuSans-Oblique-112"/>
     </g>
    </g>
   </g>
   <g id="line2d_13">
    <path clip-path="url(#p1ac2279b78)" d="M 81 77.041368 
L 83.049796 79.904453 
L 85.099592 79.506802 
L 87.149388 78.472911 
L 89.199184 80.461164 
L 91.24898 79.665862 
L 95.348571 76.564188 
L 97.398367 74.416874 
L 99.448163 72.587681 
L 101.497959 74.178284 
L 103.547755 69.883657 
L 105.597551 63.203127 
L 107.647347 67.497754 
L 109.697143 69.645067 
L 111.746939 73.144392 
L 113.796735 75.291706 
L 115.846531 73.144392 
L 119.946122 78.870561 
L 121.995918 81.654115 
L 124.045714 86.903104 
L 126.09551 90.561489 
L 128.145306 91.27726 
L 130.195102 91.833971 
L 132.244898 86.744043 
L 134.294694 85.392031 
L 136.34449 84.43767 
L 138.394286 89.527598 
L 140.444082 91.03867 
L 142.493878 89.448067 
L 144.543673 85.789682 
L 148.643265 81.495055 
L 150.693061 80.540694 
L 152.742857 80.858814 
L 154.792653 80.143043 
L 156.842449 80.540694 
L 158.892245 73.144392 
L 160.942041 68.690705 
L 162.991837 67.974934 
L 165.041633 67.497754 
L 167.091429 70.599428 
L 169.141224 71.71285 
L 171.19102 69.088356 
L 173.240816 72.905802 
L 175.290612 73.701103 
L 177.340408 75.848416 
L 179.390204 78.870561 
L 181.44 83.244718 
L 183.489796 81.415525 
L 185.539592 81.892706 
L 187.589388 81.654115 
L 189.639184 80.461164 
L 191.68898 80.063513 
L 193.738776 80.699754 
L 195.788571 79.109151 
L 197.838367 78.07526 
L 199.888163 78.472911 
L 201.937959 78.631971 
L 203.987755 81.495055 
L 208.087347 84.43767 
L 210.137143 82.210826 
L 212.186939 80.938344 
L 214.236735 72.667212 
L 216.286531 68.293055 
L 218.336327 62.725946 
L 220.386122 54.613874 
L 222.435918 53.659512 
L 224.485714 54.772934 
L 226.53551 52.3075 
L 228.585306 51.273608 
L 230.635102 54.375283 
L 232.684898 58.9085 
L 234.734694 61.612524 
L 236.78449 63.759838 
L 238.834286 67.895404 
L 240.884082 73.303452 
L 242.933878 72.826272 
L 244.983673 76.564188 
L 247.033469 78.950091 
L 249.083265 79.188682 
L 251.133061 82.608477 
L 253.182857 80.540694 
L 255.232653 85.232971 
L 257.282449 93.106453 
L 259.332245 96.049068 
L 261.382041 94.617525 
L 263.431837 98.594032 
L 265.481633 96.208128 
L 267.531429 94.617525 
L 269.581224 96.844369 
L 271.63102 90.481959 
L 273.680816 86.823573 
L 275.730612 85.630622 
L 277.780408 77.9162 
L 279.830204 78.23432 
L 281.88 86.028272 
L 283.929796 85.232971 
L 285.979592 88.493706 
L 288.029388 90.641019 
L 290.079184 89.686658 
L 292.12898 91.19773 
L 294.178776 98.832622 
L 296.228571 100.264164 
L 298.278367 104.479261 
L 300.328163 104.08161 
L 302.377959 96.287658 
L 304.427755 97.003429 
L 306.477551 94.219875 
L 308.527347 96.685309 
L 310.577143 98.594032 
L 312.626939 98.753092 
L 314.676735 93.185983 
L 316.726531 91.913501 
L 318.776327 90.481959 
L 320.826122 91.515851 
L 322.875918 91.515851 
L 324.925714 88.891357 
L 326.97551 83.721899 
L 329.025306 74.894055 
L 331.075102 67.895404 
L 333.124898 65.42997 
L 335.174694 65.986681 
L 337.22449 64.396079 
L 339.274286 68.213525 
L 341.324082 69.804127 
L 343.373878 75.927947 
L 345.423673 74.416874 
L 347.473469 79.109151 
L 349.523265 83.324248 
L 351.573061 86.425923 
L 353.622857 95.890007 
L 355.672653 100.184634 
L 357.722449 102.491008 
L 359.772245 103.92255 
L 361.822041 98.434971 
L 363.871837 93.504104 
L 365.921633 93.185983 
L 367.971429 94.299405 
L 370.021224 99.230273 
L 372.07102 97.48061 
L 374.120816 92.629272 
L 376.170612 94.458465 
L 378.220408 98.753092 
L 380.270204 95.810477 
L 382.32 99.389333 
L 384.369796 102.172887 
L 386.419592 106.467514 
L 388.469388 105.035972 
L 390.519184 107.024225 
L 392.56898 112.511803 
L 394.618776 112.114153 
L 396.668571 116.090659 
L 398.718367 114.261466 
L 400.768163 117.840321 
L 402.817959 119.908105 
L 404.867755 123.48696 
L 406.917551 126.827225 
L 408.967347 129.53125 
L 411.017143 126.827225 
L 413.066939 126.747695 
L 415.116735 125.952394 
L 417.166531 121.737297 
L 419.216327 120.703406 
L 421.266122 120.464816 
L 425.365714 119.271864 
L 427.41551 120.385285 
L 429.465306 121.021526 
L 431.515102 122.691659 
L 433.564898 120.623876 
L 435.614694 123.40743 
L 437.66449 120.385285 
L 439.714286 119.828575 
L 441.764082 116.408779 
L 443.813878 117.20408 
L 445.863673 116.488309 
L 447.913469 117.04502 
L 452.013061 118.874213 
L 454.062857 124.123201 
L 456.112653 125.793334 
L 458.162449 131.121852 
L 460.212245 135.018828 
L 462.262041 139.552045 
L 464.311837 140.267816 
L 466.361633 144.085262 
L 468.411429 145.119154 
L 470.461224 145.516804 
L 472.51102 149.572841 
L 474.560816 154.026527 
L 476.610612 159.116455 
L 478.660408 162.854371 
L 480.710204 166.830877 
L 482.76 167.785239 
L 484.809796 171.761745 
L 486.859592 171.761745 
L 488.909388 170.568793 
L 490.959184 173.909058 
L 493.00898 168.66007 
L 495.058776 166.910407 
L 497.108571 163.570142 
L 499.158367 165.558395 
L 501.208163 166.194636 
L 503.257959 169.773492 
L 505.307755 168.58054 
L 507.357551 170.489263 
L 509.407347 170.489263 
L 511.457143 171.284564 
L 513.506939 177.487914 
L 515.556735 170.250673 
L 517.606531 168.182889 
L 519.656327 164.126853 
L 521.706122 161.104708 
L 523.755918 159.195985 
L 525.805714 161.422829 
L 527.85551 159.116455 
L 531.955102 155.85572 
L 534.004898 150.209082 
L 536.054694 153.310756 
L 538.10449 153.072166 
L 540.154286 153.310756 
L 542.204082 154.265118 
L 546.303673 144.164792 
L 548.353469 143.210431 
L 550.403265 140.824527 
L 552.453061 138.836274 
L 554.502857 140.426876 
L 556.552653 137.643322 
L 558.602449 132.791985 
L 560.652245 130.962792 
L 562.702041 128.895009 
L 564.751837 126.429575 
L 566.801633 126.429575 
L 568.851429 112.352743 
L 572.95102 88.414176 
L 575.000816 79.109151 
L 577.050612 75.291706 
L 579.100408 68.372585 
L 581.150204 58.51085 
L 583.2 46.899452 
L 583.2 46.899452 
" style="fill:none;stroke:#0000ff;stroke-linecap:square;stroke-width:1.5;"/>
   </g>
   <g id="patch_3">
    <path d="M 81 192.24 
L 81 25.92 
" style="fill:none;stroke:#000000;stroke-linecap:square;stroke-linejoin:miter;stroke-width:0.8;"/>
   </g>
   <g id="patch_4">
    <path d="M 583.2 192.24 
L 583.2 25.92 
" style="fill:none;stroke:#000000;stroke-linecap:square;stroke-linejoin:miter;stroke-width:0.8;"/>
   </g>
   <g id="patch_5">
    <path d="M 81 192.24 
L 583.2 192.24 
" style="fill:none;stroke:#000000;stroke-linecap:square;stroke-linejoin:miter;stroke-width:0.8;"/>
   </g>
   <g id="patch_6">
    <path d="M 81 25.92 
L 583.2 25.92 
" style="fill:none;stroke:#000000;stroke-linecap:square;stroke-linejoin:miter;stroke-width:0.8;"/>
   </g>
   <g id="text_15">
    <!-- Striatum, Num Trials=160 All stimulated trials -->
    <defs>
     <path d="M 53.515625 70.515625 
L 53.515625 60.890625 
Q 47.90625 63.578125 42.921875 64.890625 
Q 37.9375 66.21875 33.296875 66.21875 
Q 25.25 66.21875 20.875 63.09375 
Q 16.5 59.96875 16.5 54.203125 
Q 16.5 49.359375 19.40625 46.890625 
Q 22.3125 44.4375 30.421875 42.921875 
L 36.375 41.703125 
Q 47.40625 39.59375 52.65625 34.296875 
Q 57.90625 29 57.90625 20.125 
Q 57.90625 9.515625 50.796875 4.046875 
Q 43.703125 -1.421875 29.984375 -1.421875 
Q 24.8125 -1.421875 18.96875 -0.25 
Q 13.140625 0.921875 6.890625 3.21875 
L 6.890625 13.375 
Q 12.890625 10.015625 18.65625 8.296875 
Q 24.421875 6.59375 29.984375 6.59375 
Q 38.421875 6.59375 43.015625 9.90625 
Q 47.609375 13.234375 47.609375 19.390625 
Q 47.609375 24.75 44.3125 27.78125 
Q 41.015625 30.8125 33.5 32.328125 
L 27.484375 33.5 
Q 16.453125 35.6875 11.515625 40.375 
Q 6.59375 45.0625 6.59375 53.421875 
Q 6.59375 63.09375 13.40625 68.65625 
Q 20.21875 74.21875 32.171875 74.21875 
Q 37.3125 74.21875 42.625 73.28125 
Q 47.953125 72.359375 53.515625 70.515625 
z
" id="DejaVuSans-83"/>
     <path d="M 18.3125 70.21875 
L 18.3125 54.6875 
L 36.8125 54.6875 
L 36.8125 47.703125 
L 18.3125 47.703125 
L 18.3125 18.015625 
Q 18.3125 11.328125 20.140625 9.421875 
Q 21.96875 7.515625 27.59375 7.515625 
L 36.8125 7.515625 
L 36.8125 0 
L 27.59375 0 
Q 17.1875 0 13.234375 3.875 
Q 9.28125 7.765625 9.28125 18.015625 
L 9.28125 47.703125 
L 2.6875 47.703125 
L 2.6875 54.6875 
L 9.28125 54.6875 
L 9.28125 70.21875 
z
" id="DejaVuSans-116"/>
     <path d="M 41.109375 46.296875 
Q 39.59375 47.171875 37.8125 47.578125 
Q 36.03125 48 33.890625 48 
Q 26.265625 48 22.1875 43.046875 
Q 18.109375 38.09375 18.109375 28.8125 
L 18.109375 0 
L 9.078125 0 
L 9.078125 54.6875 
L 18.109375 54.6875 
L 18.109375 46.1875 
Q 20.953125 51.171875 25.484375 53.578125 
Q 30.03125 56 36.53125 56 
Q 37.453125 56 38.578125 55.875 
Q 39.703125 55.765625 41.0625 55.515625 
z
" id="DejaVuSans-114"/>
     <path d="M 34.28125 27.484375 
Q 23.390625 27.484375 19.1875 25 
Q 14.984375 22.515625 14.984375 16.5 
Q 14.984375 11.71875 18.140625 8.90625 
Q 21.296875 6.109375 26.703125 6.109375 
Q 34.1875 6.109375 38.703125 11.40625 
Q 43.21875 16.703125 43.21875 25.484375 
L 43.21875 27.484375 
z
M 52.203125 31.203125 
L 52.203125 0 
L 43.21875 0 
L 43.21875 8.296875 
Q 40.140625 3.328125 35.546875 0.953125 
Q 30.953125 -1.421875 24.3125 -1.421875 
Q 15.921875 -1.421875 10.953125 3.296875 
Q 6 8.015625 6 15.921875 
Q 6 25.140625 12.171875 29.828125 
Q 18.359375 34.515625 30.609375 34.515625 
L 43.21875 34.515625 
L 43.21875 35.40625 
Q 43.21875 41.609375 39.140625 45 
Q 35.0625 48.390625 27.6875 48.390625 
Q 23 48.390625 18.546875 47.265625 
Q 14.109375 46.140625 10.015625 43.890625 
L 10.015625 52.203125 
Q 14.9375 54.109375 19.578125 55.046875 
Q 24.21875 56 28.609375 56 
Q 40.484375 56 46.34375 49.84375 
Q 52.203125 43.703125 52.203125 31.203125 
z
" id="DejaVuSans-97"/>
     <path d="M 8.5 21.578125 
L 8.5 54.6875 
L 17.484375 54.6875 
L 17.484375 21.921875 
Q 17.484375 14.15625 20.5 10.265625 
Q 23.53125 6.390625 29.59375 6.390625 
Q 36.859375 6.390625 41.078125 11.03125 
Q 45.3125 15.671875 45.3125 23.6875 
L 45.3125 54.6875 
L 54.296875 54.6875 
L 54.296875 0 
L 45.3125 0 
L 45.3125 8.40625 
Q 42.046875 3.421875 37.71875 1 
Q 33.40625 -1.421875 27.6875 -1.421875 
Q 18.265625 -1.421875 13.375 4.4375 
Q 8.5 10.296875 8.5 21.578125 
z
M 31.109375 56 
z
" id="DejaVuSans-117"/>
     <path d="M 11.71875 12.40625 
L 22.015625 12.40625 
L 22.015625 4 
L 14.015625 -11.625 
L 7.71875 -11.625 
L 11.71875 4 
z
" id="DejaVuSans-44"/>
     <path d="M 9.8125 72.90625 
L 23.09375 72.90625 
L 55.421875 11.921875 
L 55.421875 72.90625 
L 64.984375 72.90625 
L 64.984375 0 
L 51.703125 0 
L 19.390625 60.984375 
L 19.390625 0 
L 9.8125 0 
z
" id="DejaVuSans-78"/>
     <path d="M 9.421875 75.984375 
L 18.40625 75.984375 
L 18.40625 0 
L 9.421875 0 
z
" id="DejaVuSans-108"/>
     <path d="M 10.59375 45.40625 
L 73.1875 45.40625 
L 73.1875 37.203125 
L 10.59375 37.203125 
z
M 10.59375 25.484375 
L 73.1875 25.484375 
L 73.1875 17.1875 
L 10.59375 17.1875 
z
" id="DejaVuSans-61"/>
     <path d="M 33.015625 40.375 
Q 26.375 40.375 22.484375 35.828125 
Q 18.609375 31.296875 18.609375 23.390625 
Q 18.609375 15.53125 22.484375 10.953125 
Q 26.375 6.390625 33.015625 6.390625 
Q 39.65625 6.390625 43.53125 10.953125 
Q 47.40625 15.53125 47.40625 23.390625 
Q 47.40625 31.296875 43.53125 35.828125 
Q 39.65625 40.375 33.015625 40.375 
z
M 52.59375 71.296875 
L 52.59375 62.3125 
Q 48.875 64.0625 45.09375 64.984375 
Q 41.3125 65.921875 37.59375 65.921875 
Q 27.828125 65.921875 22.671875 59.328125 
Q 17.53125 52.734375 16.796875 39.40625 
Q 19.671875 43.65625 24.015625 45.921875 
Q 28.375 48.1875 33.59375 48.1875 
Q 44.578125 48.1875 50.953125 41.515625 
Q 57.328125 34.859375 57.328125 23.390625 
Q 57.328125 12.15625 50.6875 5.359375 
Q 44.046875 -1.421875 33.015625 -1.421875 
Q 20.359375 -1.421875 13.671875 8.265625 
Q 6.984375 17.96875 6.984375 36.375 
Q 6.984375 53.65625 15.1875 63.9375 
Q 23.390625 74.21875 37.203125 74.21875 
Q 40.921875 74.21875 44.703125 73.484375 
Q 48.484375 72.75 52.59375 71.296875 
z
" id="DejaVuSans-54"/>
     <path d="M 34.1875 63.1875 
L 20.796875 26.90625 
L 47.609375 26.90625 
z
M 28.609375 72.90625 
L 39.796875 72.90625 
L 67.578125 0 
L 57.328125 0 
L 50.6875 18.703125 
L 17.828125 18.703125 
L 11.1875 0 
L 0.78125 0 
z
" id="DejaVuSans-65"/>
     <path d="M 45.40625 46.390625 
L 45.40625 75.984375 
L 54.390625 75.984375 
L 54.390625 0 
L 45.40625 0 
L 45.40625 8.203125 
Q 42.578125 3.328125 38.25 0.953125 
Q 33.9375 -1.421875 27.875 -1.421875 
Q 17.96875 -1.421875 11.734375 6.484375 
Q 5.515625 14.40625 5.515625 27.296875 
Q 5.515625 40.1875 11.734375 48.09375 
Q 17.96875 56 27.875 56 
Q 33.9375 56 38.25 53.625 
Q 42.578125 51.265625 45.40625 46.390625 
z
M 14.796875 27.296875 
Q 14.796875 17.390625 18.875 11.75 
Q 22.953125 6.109375 30.078125 6.109375 
Q 37.203125 6.109375 41.296875 11.75 
Q 45.40625 17.390625 45.40625 27.296875 
Q 45.40625 37.203125 41.296875 42.84375 
Q 37.203125 48.484375 30.078125 48.484375 
Q 22.953125 48.484375 18.875 42.84375 
Q 14.796875 37.203125 14.796875 27.296875 
z
" id="DejaVuSans-100"/>
    </defs>
    <g transform="translate(193.43625 19.92)scale(0.12 -0.12)">
     <use xlink:href="#DejaVuSans-83"/>
     <use x="63.476562" xlink:href="#DejaVuSans-116"/>
     <use x="102.685547" xlink:href="#DejaVuSans-114"/>
     <use x="143.798828" xlink:href="#DejaVuSans-105"/>
     <use x="171.582031" xlink:href="#DejaVuSans-97"/>
     <use x="232.861328" xlink:href="#DejaVuSans-116"/>
     <use x="272.070312" xlink:href="#DejaVuSans-117"/>
     <use x="335.449219" xlink:href="#DejaVuSans-109"/>
     <use x="432.861328" xlink:href="#DejaVuSans-44"/>
     <use x="464.648438" xlink:href="#DejaVuSans-32"/>
     <use x="496.435547" xlink:href="#DejaVuSans-78"/>
     <use x="571.240234" xlink:href="#DejaVuSans-117"/>
     <use x="634.619141" xlink:href="#DejaVuSans-109"/>
     <use x="732.03125" xlink:href="#DejaVuSans-32"/>
     <use x="763.818359" xlink:href="#DejaVuSans-84"/>
     <use x="824.683594" xlink:href="#DejaVuSans-114"/>
     <use x="865.796875" xlink:href="#DejaVuSans-105"/>
     <use x="893.580078" xlink:href="#DejaVuSans-97"/>
     <use x="954.859375" xlink:href="#DejaVuSans-108"/>
     <use x="982.642578" xlink:href="#DejaVuSans-115"/>
     <use x="1034.742188" xlink:href="#DejaVuSans-61"/>
     <use x="1118.53125" xlink:href="#DejaVuSans-49"/>
     <use x="1182.154297" xlink:href="#DejaVuSans-54"/>
     <use x="1245.777344" xlink:href="#DejaVuSans-48"/>
     <use x="1309.400391" xlink:href="#DejaVuSans-32"/>
     <use x="1341.1875" xlink:href="#DejaVuSans-65"/>
     <use x="1409.595703" xlink:href="#DejaVuSans-108"/>
     <use x="1437.378906" xlink:href="#DejaVuSans-108"/>
     <use x="1465.162109" xlink:href="#DejaVuSans-32"/>
     <use x="1496.949219" xlink:href="#DejaVuSans-115"/>
     <use x="1549.048828" xlink:href="#DejaVuSans-116"/>
     <use x="1588.257812" xlink:href="#DejaVuSans-105"/>
     <use x="1616.041016" xlink:href="#DejaVuSans-109"/>
     <use x="1713.453125" xlink:href="#DejaVuSans-117"/>
     <use x="1776.832031" xlink:href="#DejaVuSans-108"/>
     <use x="1804.615234" xlink:href="#DejaVuSans-97"/>
     <use x="1865.894531" xlink:href="#DejaVuSans-116"/>
     <use x="1905.103516" xlink:href="#DejaVuSans-101"/>
     <use x="1966.626953" xlink:href="#DejaVuSans-100"/>
     <use x="2030.103516" xlink:href="#DejaVuSans-32"/>
     <use x="2061.890625" xlink:href="#DejaVuSans-116"/>
     <use x="2101.099609" xlink:href="#DejaVuSans-114"/>
     <use x="2142.212891" xlink:href="#DejaVuSans-105"/>
     <use x="2169.996094" xlink:href="#DejaVuSans-97"/>
     <use x="2231.275391" xlink:href="#DejaVuSans-108"/>
     <use x="2259.058594" xlink:href="#DejaVuSans-115"/>
    </g>
   </g>
   <g id="legend_1">
    <g id="patch_7">
     <path d="M 472.68 70.77375 
L 574.8 70.77375 
Q 577.2 70.77375 577.2 68.37375 
L 577.2 34.32 
Q 577.2 31.92 574.8 31.92 
L 472.68 31.92 
Q 470.28 31.92 470.28 34.32 
L 470.28 68.37375 
Q 470.28 70.77375 472.68 70.77375 
z
" style="fill:#ffffff;opacity:0.8;stroke:#cccccc;stroke-linejoin:miter;"/>
    </g>
    <g id="line2d_14">
     <path d="M 475.08 41.64 
L 499.08 41.64 
" style="fill:none;stroke:#0000ff;stroke-linecap:square;stroke-width:1.5;"/>
    </g>
    <g id="line2d_15"/>
    <g id="text_16">
     <!-- Binomial $p$ -->
     <defs>
      <path d="M 30.609375 48.390625 
Q 23.390625 48.390625 19.1875 42.75 
Q 14.984375 37.109375 14.984375 27.296875 
Q 14.984375 17.484375 19.15625 11.84375 
Q 23.34375 6.203125 30.609375 6.203125 
Q 37.796875 6.203125 41.984375 11.859375 
Q 46.1875 17.53125 46.1875 27.296875 
Q 46.1875 37.015625 41.984375 42.703125 
Q 37.796875 48.390625 30.609375 48.390625 
z
M 30.609375 56 
Q 42.328125 56 49.015625 48.375 
Q 55.71875 40.765625 55.71875 27.296875 
Q 55.71875 13.875 49.015625 6.21875 
Q 42.328125 -1.421875 30.609375 -1.421875 
Q 18.84375 -1.421875 12.171875 6.21875 
Q 5.515625 13.875 5.515625 27.296875 
Q 5.515625 40.765625 12.171875 48.375 
Q 18.84375 56 30.609375 56 
z
" id="DejaVuSans-111"/>
     </defs>
     <g transform="translate(508.68 45.84)scale(0.12 -0.12)">
      <use transform="translate(0 0.015625)" xlink:href="#DejaVuSans-66"/>
      <use transform="translate(68.603516 0.015625)" xlink:href="#DejaVuSans-105"/>
      <use transform="translate(96.386719 0.015625)" xlink:href="#DejaVuSans-110"/>
      <use transform="translate(159.765625 0.015625)" xlink:href="#DejaVuSans-111"/>
      <use transform="translate(220.947266 0.015625)" xlink:href="#DejaVuSans-109"/>
      <use transform="translate(318.359375 0.015625)" xlink:href="#DejaVuSans-105"/>
      <use transform="translate(346.142578 0.015625)" xlink:href="#DejaVuSans-97"/>
      <use transform="translate(407.421875 0.015625)" xlink:href="#DejaVuSans-108"/>
      <use transform="translate(435.205078 0.015625)" xlink:href="#DejaVuSans-32"/>
      <use transform="translate(466.992188 0.015625)" xlink:href="#DejaVuSans-Oblique-112"/>
     </g>
    </g>
    <g id="patch_8">
     <path d="M 475.08 63.478125 
L 499.08 63.478125 
L 499.08 55.078125 
L 475.08 55.078125 
z
" style="fill:#0000ff;opacity:0.3;stroke:#0000ff;stroke-linejoin:miter;"/>
    </g>
    <g id="text_17">
     <!-- Std. Err. -->
     <defs>
      <path d="M 9.8125 72.90625 
L 55.90625 72.90625 
L 55.90625 64.59375 
L 19.671875 64.59375 
L 19.671875 43.015625 
L 54.390625 43.015625 
L 54.390625 34.71875 
L 19.671875 34.71875 
L 19.671875 8.296875 
L 56.78125 8.296875 
L 56.78125 0 
L 9.8125 0 
z
" id="DejaVuSans-69"/>
     </defs>
     <g transform="translate(508.68 63.478125)scale(0.12 -0.12)">
      <use xlink:href="#DejaVuSans-83"/>
      <use x="63.476562" xlink:href="#DejaVuSans-116"/>
      <use x="102.685547" xlink:href="#DejaVuSans-100"/>
      <use x="166.162109" xlink:href="#DejaVuSans-46"/>
      <use x="197.949219" xlink:href="#DejaVuSans-32"/>
      <use x="229.736328" xlink:href="#DejaVuSans-69"/>
      <use x="292.919922" xlink:href="#DejaVuSans-114"/>
      <use x="334.017578" xlink:href="#DejaVuSans-114"/>
      <use x="374.990234" xlink:href="#DejaVuSans-46"/>
     </g>
    </g>
   </g>
  </g>
 </g>
 <defs>
  <clipPath id="p1ac2279b78">
   <rect height="166.32" width="502.2" x="81" y="25.92"/>
  </clipPath>
 </defs>
</svg>
