<?xml version="1.0" encoding="utf-8" standalone="no"?>
<!DOCTYPE svg PUBLIC "-//W3C//DTD SVG 1.1//EN"
  "http://www.w3.org/Graphics/SVG/1.1/DTD/svg11.dtd">
<!-- Created with matplotlib (https://matplotlib.org/) -->
<svg height="216pt" version="1.1" viewBox="0 0 648 216" width="648pt" xmlns="http://www.w3.org/2000/svg" xmlns:xlink="http://www.w3.org/1999/xlink">
 <defs>
  <style type="text/css">
*{stroke-linecap:butt;stroke-linejoin:round;}
  </style>
 </defs>
 <g id="figure_1">
  <g id="patch_1">
   <path d="M 0 216 
L 648 216 
L 648 0 
L 0 0 
z
" style="fill:#ffffff;"/>
  </g>
  <g id="axes_1">
   <g id="patch_2">
    <path d="M 81 192.24 
L 583.2 192.24 
L 583.2 25.92 
L 81 25.92 
z
" style="fill:#ffffff;"/>
   </g>
   <g id="PolyCollection_1">
    <defs>
     <path d="M 142.590566 -23.76 
L 142.590566 -190.08 
L 426.854717 -190.08 
L 426.854717 -23.76 
L 426.854717 -23.76 
L 142.590566 -23.76 
z
" id="ma92eeb0580" style="stroke:#808080;stroke-opacity:0.3;"/>
    </defs>
    <g clip-path="url(#pd52b84f881)">
     <use style="fill:#808080;fill-opacity:0.3;stroke:#808080;stroke-opacity:0.3;" x="0" xlink:href="#ma92eeb0580" y="216"/>
    </g>
   </g>
   <g id="PolyCollection_2">
    <defs>
     <path d="M 81 -132.790685 
L 81 -69.99491 
L 82.895094 -73.27524 
L 84.790189 -78.632304 
L 86.685283 -72.504214 
L 88.580377 -78.620452 
L 90.475472 -77.939974 
L 92.370566 -87.752527 
L 94.26566 -91.084736 
L 96.160755 -96.614366 
L 98.055849 -95.846194 
L 99.950943 -96.918766 
L 101.846038 -102.27406 
L 103.741132 -109.835852 
L 105.636226 -107.311829 
L 107.531321 -110.825191 
L 109.426415 -118.424381 
L 111.321509 -125.467773 
L 113.216604 -129.782663 
L 115.111698 -125.254423 
L 117.006792 -126.875479 
L 118.901887 -118.07094 
L 120.796981 -114.700428 
L 122.692075 -110.135344 
L 124.58717 -116.119401 
L 126.482264 -113.7379 
L 128.377358 -115.696275 
L 130.272453 -115.232817 
L 132.167547 -115.511134 
L 134.062642 -112.670491 
L 135.957736 -112.716654 
L 137.85283 -111.404997 
L 139.747925 -106.332894 
L 141.643019 -102.861492 
L 143.538113 -93.01213 
L 145.433208 -99.889965 
L 147.328302 -100.198377 
L 149.223396 -100.535289 
L 151.118491 -90.477282 
L 153.013585 -89.172057 
L 154.908679 -93.319158 
L 156.803774 -98.612554 
L 158.698868 -102.079712 
L 160.593962 -94.939616 
L 162.489057 -92.670475 
L 164.384151 -90.483049 
L 166.279245 -86.924744 
L 168.17434 -81.816011 
L 170.069434 -84.188923 
L 171.964528 -72.899611 
L 173.859623 -85.056424 
L 175.754717 -90.386955 
L 177.649811 -83.673358 
L 179.544906 -83.312067 
L 181.44 -76.874299 
L 183.335094 -76.78682 
L 185.230189 -73.299657 
L 187.125283 -70.773274 
L 189.020377 -67.7426 
L 190.915472 -61.235767 
L 192.810566 -58.41616 
L 194.70566 -66.075802 
L 196.600755 -55.003403 
L 198.495849 -65.684062 
L 200.390943 -58.94425 
L 202.286038 -53.271333 
L 204.181132 -49.586515 
L 206.076226 -41.268668 
L 207.971321 -34.568952 
L 209.866415 -32.132532 
L 211.761509 -30.480243 
L 213.656604 -23.76 
L 215.551698 -26.386817 
L 217.446792 -30.512109 
L 219.341887 -33.925734 
L 221.236981 -33.082102 
L 223.132075 -33.070661 
L 225.02717 -31.042641 
L 226.922264 -34.917809 
L 228.817358 -40.288973 
L 230.712453 -34.325785 
L 232.607547 -36.936485 
L 234.502642 -45.556965 
L 236.397736 -44.502428 
L 238.29283 -40.34347 
L 240.187925 -40.054648 
L 242.083019 -43.649904 
L 243.978113 -41.532345 
L 245.873208 -47.862944 
L 247.768302 -48.758768 
L 249.663396 -43.014732 
L 251.558491 -35.885741 
L 253.453585 -36.042751 
L 255.348679 -33.06246 
L 257.243774 -35.873208 
L 259.138868 -37.721842 
L 261.033962 -38.247069 
L 262.929057 -43.467005 
L 264.824151 -41.970603 
L 266.719245 -42.063618 
L 268.61434 -41.016176 
L 270.509434 -34.574024 
L 272.404528 -36.395674 
L 274.299623 -30.480904 
L 276.194717 -33.478121 
L 278.089811 -31.279671 
L 279.984906 -34.585959 
L 281.88 -41.154719 
L 283.775094 -48.326165 
L 285.670189 -50.385605 
L 287.565283 -55.180223 
L 289.460377 -62.959829 
L 291.355472 -63.80501 
L 293.250566 -57.414337 
L 295.14566 -61.400536 
L 297.040755 -61.797706 
L 298.935849 -63.83129 
L 300.830943 -58.757886 
L 302.726038 -48.509188 
L 304.621132 -43.683573 
L 306.516226 -39.884509 
L 308.411321 -32.939402 
L 310.306415 -35.228483 
L 312.201509 -32.554308 
L 314.096604 -33.667587 
L 315.991698 -36.367138 
L 317.886792 -40.6395 
L 319.781887 -43.631841 
L 321.676981 -39.184412 
L 323.572075 -41.658731 
L 325.46717 -43.553217 
L 327.362264 -45.151476 
L 329.257358 -45.773661 
L 331.152453 -44.777019 
L 333.047547 -42.204912 
L 334.942642 -39.290366 
L 336.837736 -38.773387 
L 338.73283 -42.136795 
L 340.627925 -39.882932 
L 342.523019 -40.33331 
L 344.418113 -45.428726 
L 346.313208 -43.645869 
L 348.208302 -46.2066 
L 350.103396 -49.25853 
L 351.998491 -51.061251 
L 353.893585 -51.867516 
L 355.788679 -52.756841 
L 357.683774 -54.072788 
L 359.578868 -54.050454 
L 361.473962 -53.748753 
L 363.369057 -46.538311 
L 365.264151 -42.916468 
L 367.159245 -38.766576 
L 369.05434 -37.629062 
L 370.949434 -34.831186 
L 372.844528 -37.779167 
L 374.739623 -32.900728 
L 376.634717 -33.750045 
L 378.529811 -39.860448 
L 380.424906 -38.38208 
L 382.32 -40.714351 
L 384.215094 -42.894256 
L 386.110189 -43.592267 
L 388.005283 -42.022763 
L 389.900377 -50.320333 
L 391.795472 -44.274905 
L 393.690566 -48.795251 
L 395.58566 -43.747623 
L 397.480755 -44.808211 
L 399.375849 -46.31745 
L 401.270943 -50.756629 
L 403.166038 -49.110328 
L 405.061132 -49.457711 
L 406.956226 -52.767988 
L 408.851321 -57.705708 
L 410.746415 -62.406818 
L 412.641509 -69.510112 
L 414.536604 -68.30058 
L 416.431698 -73.014289 
L 418.326792 -75.331427 
L 420.221887 -74.009585 
L 422.116981 -72.771671 
L 424.012075 -69.786148 
L 425.90717 -65.134518 
L 427.802264 -63.341248 
L 429.697358 -59.504766 
L 431.592453 -62.187023 
L 433.487547 -59.915482 
L 435.382642 -59.184334 
L 437.277736 -52.788489 
L 439.17283 -50.991493 
L 441.067925 -48.13256 
L 442.963019 -46.810078 
L 444.858113 -50.215222 
L 446.753208 -44.572329 
L 448.648302 -47.01585 
L 450.543396 -51.273267 
L 452.438491 -53.788586 
L 454.333585 -51.27404 
L 456.228679 -53.116268 
L 458.123774 -53.227649 
L 460.018868 -49.161863 
L 461.913962 -49.790505 
L 463.809057 -49.99126 
L 465.704151 -48.159225 
L 467.599245 -44.678664 
L 469.49434 -39.360468 
L 471.389434 -39.621371 
L 473.284528 -39.696833 
L 475.179623 -46.831592 
L 477.074717 -41.731665 
L 478.969811 -50.060236 
L 480.864906 -51.400681 
L 482.76 -54.224307 
L 484.655094 -49.425312 
L 486.550189 -44.014622 
L 488.445283 -36.284728 
L 490.340377 -30.249154 
L 492.235472 -24.701463 
L 494.130566 -24.674492 
L 496.02566 -24.017985 
L 497.920755 -35.853189 
L 499.815849 -42.143139 
L 501.710943 -39.65112 
L 503.606038 -46.410985 
L 505.501132 -47.099253 
L 507.396226 -49.644844 
L 509.291321 -42.891022 
L 511.186415 -41.335944 
L 513.081509 -48.09045 
L 514.976604 -43.317471 
L 516.871698 -48.814489 
L 518.766792 -53.96093 
L 520.661887 -51.298778 
L 522.556981 -47.720235 
L 524.452075 -59.45053 
L 526.34717 -55.181958 
L 528.242264 -56.377828 
L 530.137358 -57.046638 
L 532.032453 -50.022193 
L 533.927547 -45.167983 
L 535.822642 -52.511048 
L 537.717736 -60.071101 
L 539.61283 -61.532916 
L 541.507925 -61.965011 
L 543.403019 -66.70793 
L 545.298113 -67.530708 
L 547.193208 -65.764715 
L 549.088302 -60.910949 
L 550.983396 -63.317842 
L 552.878491 -59.024789 
L 554.773585 -58.978995 
L 556.668679 -59.054423 
L 558.563774 -54.467079 
L 560.458868 -59.830298 
L 562.353962 -58.396765 
L 564.249057 -65.577764 
L 566.144151 -71.225295 
L 568.039245 -74.313819 
L 569.93434 -70.287682 
L 571.829434 -70.534805 
L 573.724528 -70.508051 
L 575.619623 -73.207278 
L 577.514717 -69.984363 
L 579.409811 -75.155902 
L 581.304906 -70.617449 
L 583.2 -64.206357 
L 583.2 -135.309273 
L 583.2 -135.309273 
L 581.304906 -143.765462 
L 579.409811 -147.993926 
L 577.514717 -142.812421 
L 575.619623 -142.490607 
L 573.724528 -138.56869 
L 571.829434 -141.256192 
L 569.93434 -144.614184 
L 568.039245 -150.625446 
L 566.144151 -149.152578 
L 564.249057 -140.481015 
L 562.353962 -131.187288 
L 560.458868 -133.199335 
L 558.563774 -122.076623 
L 556.668679 -123.411328 
L 554.773585 -125.55817 
L 552.878491 -123.119617 
L 550.983396 -129.968456 
L 549.088302 -128.603693 
L 547.193208 -134.506941 
L 545.298113 -135.010986 
L 543.403019 -130.757904 
L 541.507925 -122.27623 
L 539.61283 -122.472398 
L 537.717736 -120.964 
L 535.822642 -113.826546 
L 533.927547 -103.019514 
L 532.032453 -105.001186 
L 530.137358 -107.449963 
L 528.242264 -108.576576 
L 526.34717 -108.847166 
L 524.452075 -114.196728 
L 522.556981 -105.637659 
L 520.661887 -114.82524 
L 518.766792 -116.750694 
L 516.871698 -113.309196 
L 514.976604 -113.063364 
L 513.081509 -112.799131 
L 511.186415 -102.913768 
L 509.291321 -102.793443 
L 507.396226 -105.980672 
L 505.501132 -104.962858 
L 503.606038 -101.914289 
L 501.710943 -99.212879 
L 499.815849 -102.772028 
L 497.920755 -100.215981 
L 496.02566 -86.825749 
L 494.130566 -85.515613 
L 492.235472 -82.638213 
L 490.340377 -85.659687 
L 488.445283 -87.367599 
L 486.550189 -92.816082 
L 484.655094 -98.488526 
L 482.76 -102.223346 
L 480.864906 -102.408073 
L 478.969811 -103.075727 
L 477.074717 -95.296161 
L 475.179623 -102.787452 
L 473.284528 -102.628592 
L 471.389434 -99.294271 
L 469.49434 -99.98062 
L 467.599245 -105.806299 
L 465.704151 -106.201201 
L 463.809057 -113.103293 
L 461.913962 -111.217465 
L 460.018868 -111.711342 
L 458.123774 -116.286239 
L 456.228679 -116.478708 
L 454.333585 -111.57306 
L 452.438491 -118.371416 
L 450.543396 -115.587915 
L 448.648302 -108.18122 
L 446.753208 -104.01573 
L 444.858113 -108.80547 
L 442.963019 -104.162839 
L 441.067925 -109.124686 
L 439.17283 -112.719346 
L 437.277736 -111.852053 
L 435.382642 -121.185539 
L 433.487547 -122.391739 
L 431.592453 -125.516623 
L 429.697358 -125.569455 
L 427.802264 -130.932074 
L 425.90717 -138.449702 
L 424.012075 -141.819019 
L 422.116981 -146.14409 
L 420.221887 -149.533972 
L 418.326792 -152.722969 
L 416.431698 -150.327414 
L 414.536604 -146.641544 
L 412.641509 -147.476671 
L 410.746415 -140.106915 
L 408.851321 -140.344142 
L 406.956226 -136.881482 
L 405.061132 -137.348597 
L 403.166038 -137.196873 
L 401.270943 -143.650514 
L 399.375849 -137.226936 
L 397.480755 -136.826867 
L 395.58566 -139.022621 
L 393.690566 -140.868753 
L 391.795472 -133.989026 
L 389.900377 -146.403886 
L 388.005283 -137.052062 
L 386.110189 -137.755173 
L 384.215094 -140.33851 
L 382.32 -140.518278 
L 380.424906 -136.869363 
L 378.529811 -145.773342 
L 376.634717 -142.971628 
L 374.739623 -146.036595 
L 372.844528 -149.846053 
L 370.949434 -151.559605 
L 369.05434 -152.120044 
L 367.159245 -152.759391 
L 365.264151 -150.584783 
L 363.369057 -158.833168 
L 361.473962 -167.113857 
L 359.578868 -167.024681 
L 357.683774 -167.346915 
L 355.788679 -166.633488 
L 353.893585 -167.378286 
L 351.998491 -161.911 
L 350.103396 -159.372606 
L 348.208302 -153.068644 
L 346.313208 -152.539736 
L 344.418113 -155.806284 
L 342.523019 -153.42415 
L 340.627925 -150.415426 
L 338.73283 -151.170359 
L 336.837736 -147.673535 
L 334.942642 -147.484552 
L 333.047547 -146.033093 
L 331.152453 -144.483316 
L 329.257358 -143.030723 
L 327.362264 -137.594962 
L 325.46717 -134.568534 
L 323.572075 -136.420614 
L 321.676981 -135.306888 
L 319.781887 -137.934934 
L 317.886792 -136.981593 
L 315.991698 -130.613001 
L 314.096604 -131.632384 
L 312.201509 -131.83623 
L 310.306415 -131.261954 
L 308.411321 -133.172064 
L 306.516226 -137.638322 
L 304.621132 -137.963475 
L 302.726038 -141.054827 
L 300.830943 -147.95772 
L 298.935849 -150.080564 
L 297.040755 -145.128034 
L 295.14566 -140.227143 
L 293.250566 -135.653555 
L 291.355472 -140.009346 
L 289.460377 -131.595334 
L 287.565283 -121.928248 
L 285.670189 -109.670454 
L 283.775094 -109.880796 
L 281.88 -102.34092 
L 279.984906 -94.379354 
L 278.089811 -88.104308 
L 276.194717 -87.530084 
L 274.299623 -84.499833 
L 272.404528 -92.125921 
L 270.509434 -90.667756 
L 268.61434 -97.398589 
L 266.719245 -100.568047 
L 264.824151 -106.378745 
L 262.929057 -106.293745 
L 261.033962 -104.044914 
L 259.138868 -100.50559 
L 257.243774 -99.396366 
L 255.348679 -95.487297 
L 253.453585 -102.216278 
L 251.558491 -104.440479 
L 249.663396 -111.79801 
L 247.768302 -114.782065 
L 245.873208 -116.466419 
L 243.978113 -114.574655 
L 242.083019 -119.786164 
L 240.187925 -117.554142 
L 238.29283 -119.139693 
L 236.397736 -121.395022 
L 234.502642 -119.0889 
L 232.607547 -111.573838 
L 230.712453 -108.530624 
L 228.817358 -107.10056 
L 226.922264 -97.760707 
L 225.02717 -91.911719 
L 223.132075 -88.734756 
L 221.236981 -88.920341 
L 219.341887 -90.699821 
L 217.446792 -88.39763 
L 215.551698 -81.30654 
L 213.656604 -79.500784 
L 211.761509 -81.154593 
L 209.866415 -77.351635 
L 207.971321 -73.823481 
L 206.076226 -79.777338 
L 204.181132 -83.5906 
L 202.286038 -89.615224 
L 200.390943 -93.526297 
L 198.495849 -96.072788 
L 196.600755 -86.414604 
L 194.70566 -90.501607 
L 192.810566 -78.794778 
L 190.915472 -78.019004 
L 189.020377 -84.334838 
L 187.125283 -90.525085 
L 185.230189 -100.014266 
L 183.335094 -109.174863 
L 181.44 -113.519132 
L 179.544906 -120.010896 
L 177.649811 -126.776277 
L 175.754717 -128.668125 
L 173.859623 -126.222437 
L 171.964528 -116.510084 
L 170.069434 -126.264786 
L 168.17434 -132.072991 
L 166.279245 -138.197593 
L 164.384151 -144.355864 
L 162.489057 -151.924873 
L 160.593962 -154.184396 
L 158.698868 -159.380975 
L 156.803774 -158.929395 
L 154.908679 -156.827617 
L 153.013585 -152.016207 
L 151.118491 -153.646286 
L 149.223396 -160.44975 
L 147.328302 -156.081563 
L 145.433208 -154.443265 
L 143.538113 -150.759558 
L 141.643019 -162.520855 
L 139.747925 -167.4135 
L 137.85283 -170.750858 
L 135.957736 -169.971938 
L 134.062642 -167.999258 
L 132.167547 -165.593724 
L 130.272453 -167.584394 
L 128.377358 -164.374455 
L 126.482264 -165.314184 
L 124.58717 -166.484786 
L 122.692075 -163.252134 
L 120.796981 -170.286015 
L 118.901887 -177.850001 
L 117.006792 -187.926833 
L 115.111698 -190.08 
L 113.216604 -189.797317 
L 111.321509 -182.396457 
L 109.426415 -176.352096 
L 107.531321 -170.117355 
L 105.636226 -168.595542 
L 103.741132 -169.787688 
L 101.846038 -159.700029 
L 99.950943 -156.293721 
L 98.055849 -160.629103 
L 96.160755 -161.113559 
L 94.26566 -157.766185 
L 92.370566 -151.416274 
L 90.475472 -143.843642 
L 88.580377 -145.463027 
L 86.685283 -136.526111 
L 84.790189 -145.705928 
L 82.895094 -133.32465 
L 81 -132.790685 
z
" id="m88a2d9a2c0" style="stroke:#0000ff;stroke-opacity:0.3;"/>
    </defs>
    <g clip-path="url(#pd52b84f881)">
     <use style="fill:#0000ff;fill-opacity:0.3;stroke:#0000ff;stroke-opacity:0.3;" x="0" xlink:href="#m88a2d9a2c0" y="216"/>
    </g>
   </g>
   <g id="matplotlib.axis_1">
    <g id="xtick_1">
     <g id="line2d_1">
      <defs>
       <path d="M 0 0 
L 0 3.5 
" id="m54d5bd6221" style="stroke:#000000;stroke-width:0.8;"/>
      </defs>
      <g>
       <use style="stroke:#000000;stroke-width:0.8;" x="142.590566" xlink:href="#m54d5bd6221" y="192.24"/>
      </g>
     </g>
     <g id="text_1">
      <!-- 0.0 -->
      <defs>
       <path d="M 31.78125 66.40625 
Q 24.171875 66.40625 20.328125 58.90625 
Q 16.5 51.421875 16.5 36.375 
Q 16.5 21.390625 20.328125 13.890625 
Q 24.171875 6.390625 31.78125 6.390625 
Q 39.453125 6.390625 43.28125 13.890625 
Q 47.125 21.390625 47.125 36.375 
Q 47.125 51.421875 43.28125 58.90625 
Q 39.453125 66.40625 31.78125 66.40625 
z
M 31.78125 74.21875 
Q 44.046875 74.21875 50.515625 64.515625 
Q 56.984375 54.828125 56.984375 36.375 
Q 56.984375 17.96875 50.515625 8.265625 
Q 44.046875 -1.421875 31.78125 -1.421875 
Q 19.53125 -1.421875 13.0625 8.265625 
Q 6.59375 17.96875 6.59375 36.375 
Q 6.59375 54.828125 13.0625 64.515625 
Q 19.53125 74.21875 31.78125 74.21875 
z
" id="DejaVuSans-48"/>
       <path d="M 10.6875 12.40625 
L 21 12.40625 
L 21 0 
L 10.6875 0 
z
" id="DejaVuSans-46"/>
      </defs>
      <g transform="translate(133.048691 208.358125)scale(0.12 -0.12)">
       <use xlink:href="#DejaVuSans-48"/>
       <use x="63.623047" xlink:href="#DejaVuSans-46"/>
       <use x="95.410156" xlink:href="#DejaVuSans-48"/>
      </g>
     </g>
    </g>
    <g id="xtick_2">
     <g id="line2d_2">
      <g>
       <use style="stroke:#000000;stroke-width:0.8;" x="237.345283" xlink:href="#m54d5bd6221" y="192.24"/>
      </g>
     </g>
     <g id="text_2">
      <!-- 0.5 -->
      <defs>
       <path d="M 10.796875 72.90625 
L 49.515625 72.90625 
L 49.515625 64.59375 
L 19.828125 64.59375 
L 19.828125 46.734375 
Q 21.96875 47.46875 24.109375 47.828125 
Q 26.265625 48.1875 28.421875 48.1875 
Q 40.625 48.1875 47.75 41.5 
Q 54.890625 34.8125 54.890625 23.390625 
Q 54.890625 11.625 47.5625 5.09375 
Q 40.234375 -1.421875 26.90625 -1.421875 
Q 22.3125 -1.421875 17.546875 -0.640625 
Q 12.796875 0.140625 7.71875 1.703125 
L 7.71875 11.625 
Q 12.109375 9.234375 16.796875 8.0625 
Q 21.484375 6.890625 26.703125 6.890625 
Q 35.15625 6.890625 40.078125 11.328125 
Q 45.015625 15.765625 45.015625 23.390625 
Q 45.015625 31 40.078125 35.4375 
Q 35.15625 39.890625 26.703125 39.890625 
Q 22.75 39.890625 18.8125 39.015625 
Q 14.890625 38.140625 10.796875 36.28125 
z
" id="DejaVuSans-53"/>
      </defs>
      <g transform="translate(227.803408 208.358125)scale(0.12 -0.12)">
       <use xlink:href="#DejaVuSans-48"/>
       <use x="63.623047" xlink:href="#DejaVuSans-46"/>
       <use x="95.410156" xlink:href="#DejaVuSans-53"/>
      </g>
     </g>
    </g>
    <g id="xtick_3">
     <g id="line2d_3">
      <g>
       <use style="stroke:#000000;stroke-width:0.8;" x="332.1" xlink:href="#m54d5bd6221" y="192.24"/>
      </g>
     </g>
     <g id="text_3">
      <!-- 1.0 -->
      <defs>
       <path d="M 12.40625 8.296875 
L 28.515625 8.296875 
L 28.515625 63.921875 
L 10.984375 60.40625 
L 10.984375 69.390625 
L 28.421875 72.90625 
L 38.28125 72.90625 
L 38.28125 8.296875 
L 54.390625 8.296875 
L 54.390625 0 
L 12.40625 0 
z
" id="DejaVuSans-49"/>
      </defs>
      <g transform="translate(322.558125 208.358125)scale(0.12 -0.12)">
       <use xlink:href="#DejaVuSans-49"/>
       <use x="63.623047" xlink:href="#DejaVuSans-46"/>
       <use x="95.410156" xlink:href="#DejaVuSans-48"/>
      </g>
     </g>
    </g>
    <g id="xtick_4">
     <g id="line2d_4">
      <g>
       <use style="stroke:#000000;stroke-width:0.8;" x="426.854717" xlink:href="#m54d5bd6221" y="192.24"/>
      </g>
     </g>
     <g id="text_4">
      <!-- 1.5 -->
      <g transform="translate(417.312842 208.358125)scale(0.12 -0.12)">
       <use xlink:href="#DejaVuSans-49"/>
       <use x="63.623047" xlink:href="#DejaVuSans-46"/>
       <use x="95.410156" xlink:href="#DejaVuSans-53"/>
      </g>
     </g>
    </g>
    <g id="xtick_5">
     <g id="line2d_5">
      <g>
       <use style="stroke:#000000;stroke-width:0.8;" x="521.609434" xlink:href="#m54d5bd6221" y="192.24"/>
      </g>
     </g>
     <g id="text_5">
      <!-- 2.0 -->
      <defs>
       <path d="M 19.1875 8.296875 
L 53.609375 8.296875 
L 53.609375 0 
L 7.328125 0 
L 7.328125 8.296875 
Q 12.9375 14.109375 22.625 23.890625 
Q 32.328125 33.6875 34.8125 36.53125 
Q 39.546875 41.84375 41.421875 45.53125 
Q 43.3125 49.21875 43.3125 52.78125 
Q 43.3125 58.59375 39.234375 62.25 
Q 35.15625 65.921875 28.609375 65.921875 
Q 23.96875 65.921875 18.8125 64.3125 
Q 13.671875 62.703125 7.8125 59.421875 
L 7.8125 69.390625 
Q 13.765625 71.78125 18.9375 73 
Q 24.125 74.21875 28.421875 74.21875 
Q 39.75 74.21875 46.484375 68.546875 
Q 53.21875 62.890625 53.21875 53.421875 
Q 53.21875 48.921875 51.53125 44.890625 
Q 49.859375 40.875 45.40625 35.40625 
Q 44.1875 33.984375 37.640625 27.21875 
Q 31.109375 20.453125 19.1875 8.296875 
z
" id="DejaVuSans-50"/>
      </defs>
      <g transform="translate(512.067559 208.358125)scale(0.12 -0.12)">
       <use xlink:href="#DejaVuSans-50"/>
       <use x="63.623047" xlink:href="#DejaVuSans-46"/>
       <use x="95.410156" xlink:href="#DejaVuSans-48"/>
      </g>
     </g>
    </g>
    <g id="text_6">
     <!-- Time (s) -->
     <defs>
      <path d="M -0.296875 72.90625 
L 61.375 72.90625 
L 61.375 64.59375 
L 35.5 64.59375 
L 35.5 0 
L 25.59375 0 
L 25.59375 64.59375 
L -0.296875 64.59375 
z
" id="DejaVuSans-84"/>
      <path d="M 9.421875 54.6875 
L 18.40625 54.6875 
L 18.40625 0 
L 9.421875 0 
z
M 9.421875 75.984375 
L 18.40625 75.984375 
L 18.40625 64.59375 
L 9.421875 64.59375 
z
" id="DejaVuSans-105"/>
      <path d="M 52 44.1875 
Q 55.375 50.25 60.0625 53.125 
Q 64.75 56 71.09375 56 
Q 79.640625 56 84.28125 50.015625 
Q 88.921875 44.046875 88.921875 33.015625 
L 88.921875 0 
L 79.890625 0 
L 79.890625 32.71875 
Q 79.890625 40.578125 77.09375 44.375 
Q 74.3125 48.1875 68.609375 48.1875 
Q 61.625 48.1875 57.5625 43.546875 
Q 53.515625 38.921875 53.515625 30.90625 
L 53.515625 0 
L 44.484375 0 
L 44.484375 32.71875 
Q 44.484375 40.625 41.703125 44.40625 
Q 38.921875 48.1875 33.109375 48.1875 
Q 26.21875 48.1875 22.15625 43.53125 
Q 18.109375 38.875 18.109375 30.90625 
L 18.109375 0 
L 9.078125 0 
L 9.078125 54.6875 
L 18.109375 54.6875 
L 18.109375 46.1875 
Q 21.1875 51.21875 25.484375 53.609375 
Q 29.78125 56 35.6875 56 
Q 41.65625 56 45.828125 52.96875 
Q 50 49.953125 52 44.1875 
z
" id="DejaVuSans-109"/>
      <path d="M 56.203125 29.59375 
L 56.203125 25.203125 
L 14.890625 25.203125 
Q 15.484375 15.921875 20.484375 11.0625 
Q 25.484375 6.203125 34.421875 6.203125 
Q 39.59375 6.203125 44.453125 7.46875 
Q 49.3125 8.734375 54.109375 11.28125 
L 54.109375 2.78125 
Q 49.265625 0.734375 44.1875 -0.34375 
Q 39.109375 -1.421875 33.890625 -1.421875 
Q 20.796875 -1.421875 13.15625 6.1875 
Q 5.515625 13.8125 5.515625 26.8125 
Q 5.515625 40.234375 12.765625 48.109375 
Q 20.015625 56 32.328125 56 
Q 43.359375 56 49.78125 48.890625 
Q 56.203125 41.796875 56.203125 29.59375 
z
M 47.21875 32.234375 
Q 47.125 39.59375 43.09375 43.984375 
Q 39.0625 48.390625 32.421875 48.390625 
Q 24.90625 48.390625 20.390625 44.140625 
Q 15.875 39.890625 15.1875 32.171875 
z
" id="DejaVuSans-101"/>
      <path id="DejaVuSans-32"/>
      <path d="M 31 75.875 
Q 24.46875 64.65625 21.28125 53.65625 
Q 18.109375 42.671875 18.109375 31.390625 
Q 18.109375 20.125 21.3125 9.0625 
Q 24.515625 -2 31 -13.1875 
L 23.1875 -13.1875 
Q 15.875 -1.703125 12.234375 9.375 
Q 8.59375 20.453125 8.59375 31.390625 
Q 8.59375 42.28125 12.203125 53.3125 
Q 15.828125 64.359375 23.1875 75.875 
z
" id="DejaVuSans-40"/>
      <path d="M 44.28125 53.078125 
L 44.28125 44.578125 
Q 40.484375 46.53125 36.375 47.5 
Q 32.28125 48.484375 27.875 48.484375 
Q 21.1875 48.484375 17.84375 46.4375 
Q 14.5 44.390625 14.5 40.28125 
Q 14.5 37.15625 16.890625 35.375 
Q 19.28125 33.59375 26.515625 31.984375 
L 29.59375 31.296875 
Q 39.15625 29.25 43.1875 25.515625 
Q 47.21875 21.78125 47.21875 15.09375 
Q 47.21875 7.46875 41.1875 3.015625 
Q 35.15625 -1.421875 24.609375 -1.421875 
Q 20.21875 -1.421875 15.453125 -0.5625 
Q 10.6875 0.296875 5.421875 2 
L 5.421875 11.28125 
Q 10.40625 8.6875 15.234375 7.390625 
Q 20.0625 6.109375 24.8125 6.109375 
Q 31.15625 6.109375 34.5625 8.28125 
Q 37.984375 10.453125 37.984375 14.40625 
Q 37.984375 18.0625 35.515625 20.015625 
Q 33.0625 21.96875 24.703125 23.78125 
L 21.578125 24.515625 
Q 13.234375 26.265625 9.515625 29.90625 
Q 5.8125 33.546875 5.8125 39.890625 
Q 5.8125 47.609375 11.28125 51.796875 
Q 16.75 56 26.8125 56 
Q 31.78125 56 36.171875 55.265625 
Q 40.578125 54.546875 44.28125 53.078125 
z
" id="DejaVuSans-115"/>
      <path d="M 8.015625 75.875 
L 15.828125 75.875 
Q 23.140625 64.359375 26.78125 53.3125 
Q 30.421875 42.28125 30.421875 31.390625 
Q 30.421875 20.453125 26.78125 9.375 
Q 23.140625 -1.703125 15.828125 -13.1875 
L 8.015625 -13.1875 
Q 14.5 -2 17.703125 9.0625 
Q 20.90625 20.125 20.90625 31.390625 
Q 20.90625 42.671875 17.703125 53.65625 
Q 14.5 64.65625 8.015625 75.875 
z
" id="DejaVuSans-41"/>
     </defs>
     <g transform="translate(302.60475 225.7955)scale(0.144 -0.144)">
      <use xlink:href="#DejaVuSans-84"/>
      <use x="61.037109" xlink:href="#DejaVuSans-105"/>
      <use x="88.820312" xlink:href="#DejaVuSans-109"/>
      <use x="186.232422" xlink:href="#DejaVuSans-101"/>
      <use x="247.755859" xlink:href="#DejaVuSans-32"/>
      <use x="279.542969" xlink:href="#DejaVuSans-40"/>
      <use x="318.556641" xlink:href="#DejaVuSans-115"/>
      <use x="370.65625" xlink:href="#DejaVuSans-41"/>
     </g>
    </g>
   </g>
   <g id="matplotlib.axis_2">
    <g id="ytick_1">
     <g id="line2d_6">
      <defs>
       <path d="M 0 0 
L -3.5 0 
" id="m606fa5988a" style="stroke:#000000;stroke-width:0.8;"/>
      </defs>
      <g>
       <use style="stroke:#000000;stroke-width:0.8;" x="81" xlink:href="#m606fa5988a" y="173.908818"/>
      </g>
     </g>
     <g id="text_7">
      <!-- 0.028 -->
      <defs>
       <path d="M 31.78125 34.625 
Q 24.75 34.625 20.71875 30.859375 
Q 16.703125 27.09375 16.703125 20.515625 
Q 16.703125 13.921875 20.71875 10.15625 
Q 24.75 6.390625 31.78125 6.390625 
Q 38.8125 6.390625 42.859375 10.171875 
Q 46.921875 13.96875 46.921875 20.515625 
Q 46.921875 27.09375 42.890625 30.859375 
Q 38.875 34.625 31.78125 34.625 
z
M 21.921875 38.8125 
Q 15.578125 40.375 12.03125 44.71875 
Q 8.5 49.078125 8.5 55.328125 
Q 8.5 64.0625 14.71875 69.140625 
Q 20.953125 74.21875 31.78125 74.21875 
Q 42.671875 74.21875 48.875 69.140625 
Q 55.078125 64.0625 55.078125 55.328125 
Q 55.078125 49.078125 51.53125 44.71875 
Q 48 40.375 41.703125 38.8125 
Q 48.828125 37.15625 52.796875 32.3125 
Q 56.78125 27.484375 56.78125 20.515625 
Q 56.78125 9.90625 50.3125 4.234375 
Q 43.84375 -1.421875 31.78125 -1.421875 
Q 19.734375 -1.421875 13.25 4.234375 
Q 6.78125 9.90625 6.78125 20.515625 
Q 6.78125 27.484375 10.78125 32.3125 
Q 14.796875 37.15625 21.921875 38.8125 
z
M 18.3125 54.390625 
Q 18.3125 48.734375 21.84375 45.5625 
Q 25.390625 42.390625 31.78125 42.390625 
Q 38.140625 42.390625 41.71875 45.5625 
Q 45.3125 48.734375 45.3125 54.390625 
Q 45.3125 60.0625 41.71875 63.234375 
Q 38.140625 66.40625 31.78125 66.40625 
Q 25.390625 66.40625 21.84375 63.234375 
Q 18.3125 60.0625 18.3125 54.390625 
z
" id="DejaVuSans-56"/>
      </defs>
      <g transform="translate(39.64625 178.46788)scale(0.12 -0.12)">
       <use xlink:href="#DejaVuSans-48"/>
       <use x="63.623047" xlink:href="#DejaVuSans-46"/>
       <use x="95.410156" xlink:href="#DejaVuSans-48"/>
       <use x="159.033203" xlink:href="#DejaVuSans-50"/>
       <use x="222.65625" xlink:href="#DejaVuSans-56"/>
      </g>
     </g>
    </g>
    <g id="ytick_2">
     <g id="line2d_7">
      <g>
       <use style="stroke:#000000;stroke-width:0.8;" x="81" xlink:href="#m606fa5988a" y="151.609927"/>
      </g>
     </g>
     <g id="text_8">
      <!-- 0.029 -->
      <defs>
       <path d="M 10.984375 1.515625 
L 10.984375 10.5 
Q 14.703125 8.734375 18.5 7.8125 
Q 22.3125 6.890625 25.984375 6.890625 
Q 35.75 6.890625 40.890625 13.453125 
Q 46.046875 20.015625 46.78125 33.40625 
Q 43.953125 29.203125 39.59375 26.953125 
Q 35.25 24.703125 29.984375 24.703125 
Q 19.046875 24.703125 12.671875 31.3125 
Q 6.296875 37.9375 6.296875 49.421875 
Q 6.296875 60.640625 12.9375 67.421875 
Q 19.578125 74.21875 30.609375 74.21875 
Q 43.265625 74.21875 49.921875 64.515625 
Q 56.59375 54.828125 56.59375 36.375 
Q 56.59375 19.140625 48.40625 8.859375 
Q 40.234375 -1.421875 26.421875 -1.421875 
Q 22.703125 -1.421875 18.890625 -0.6875 
Q 15.09375 0.046875 10.984375 1.515625 
z
M 30.609375 32.421875 
Q 37.25 32.421875 41.125 36.953125 
Q 45.015625 41.5 45.015625 49.421875 
Q 45.015625 57.28125 41.125 61.84375 
Q 37.25 66.40625 30.609375 66.40625 
Q 23.96875 66.40625 20.09375 61.84375 
Q 16.21875 57.28125 16.21875 49.421875 
Q 16.21875 41.5 20.09375 36.953125 
Q 23.96875 32.421875 30.609375 32.421875 
z
" id="DejaVuSans-57"/>
      </defs>
      <g transform="translate(39.64625 156.168989)scale(0.12 -0.12)">
       <use xlink:href="#DejaVuSans-48"/>
       <use x="63.623047" xlink:href="#DejaVuSans-46"/>
       <use x="95.410156" xlink:href="#DejaVuSans-48"/>
       <use x="159.033203" xlink:href="#DejaVuSans-50"/>
       <use x="222.65625" xlink:href="#DejaVuSans-57"/>
      </g>
     </g>
    </g>
    <g id="ytick_3">
     <g id="line2d_8">
      <g>
       <use style="stroke:#000000;stroke-width:0.8;" x="81" xlink:href="#m606fa5988a" y="129.311036"/>
      </g>
     </g>
     <g id="text_9">
      <!-- 0.030 -->
      <defs>
       <path d="M 40.578125 39.3125 
Q 47.65625 37.796875 51.625 33 
Q 55.609375 28.21875 55.609375 21.1875 
Q 55.609375 10.40625 48.1875 4.484375 
Q 40.765625 -1.421875 27.09375 -1.421875 
Q 22.515625 -1.421875 17.65625 -0.515625 
Q 12.796875 0.390625 7.625 2.203125 
L 7.625 11.71875 
Q 11.71875 9.328125 16.59375 8.109375 
Q 21.484375 6.890625 26.8125 6.890625 
Q 36.078125 6.890625 40.9375 10.546875 
Q 45.796875 14.203125 45.796875 21.1875 
Q 45.796875 27.640625 41.28125 31.265625 
Q 36.765625 34.90625 28.71875 34.90625 
L 20.21875 34.90625 
L 20.21875 43.015625 
L 29.109375 43.015625 
Q 36.375 43.015625 40.234375 45.921875 
Q 44.09375 48.828125 44.09375 54.296875 
Q 44.09375 59.90625 40.109375 62.90625 
Q 36.140625 65.921875 28.71875 65.921875 
Q 24.65625 65.921875 20.015625 65.03125 
Q 15.375 64.15625 9.8125 62.3125 
L 9.8125 71.09375 
Q 15.4375 72.65625 20.34375 73.4375 
Q 25.25 74.21875 29.59375 74.21875 
Q 40.828125 74.21875 47.359375 69.109375 
Q 53.90625 64.015625 53.90625 55.328125 
Q 53.90625 49.265625 50.4375 45.09375 
Q 46.96875 40.921875 40.578125 39.3125 
z
" id="DejaVuSans-51"/>
      </defs>
      <g transform="translate(39.64625 133.870098)scale(0.12 -0.12)">
       <use xlink:href="#DejaVuSans-48"/>
       <use x="63.623047" xlink:href="#DejaVuSans-46"/>
       <use x="95.410156" xlink:href="#DejaVuSans-48"/>
       <use x="159.033203" xlink:href="#DejaVuSans-51"/>
       <use x="222.65625" xlink:href="#DejaVuSans-48"/>
      </g>
     </g>
    </g>
    <g id="ytick_4">
     <g id="line2d_9">
      <g>
       <use style="stroke:#000000;stroke-width:0.8;" x="81" xlink:href="#m606fa5988a" y="107.012145"/>
      </g>
     </g>
     <g id="text_10">
      <!-- 0.031 -->
      <g transform="translate(39.64625 111.571207)scale(0.12 -0.12)">
       <use xlink:href="#DejaVuSans-48"/>
       <use x="63.623047" xlink:href="#DejaVuSans-46"/>
       <use x="95.410156" xlink:href="#DejaVuSans-48"/>
       <use x="159.033203" xlink:href="#DejaVuSans-51"/>
       <use x="222.65625" xlink:href="#DejaVuSans-49"/>
      </g>
     </g>
    </g>
    <g id="ytick_5">
     <g id="line2d_10">
      <g>
       <use style="stroke:#000000;stroke-width:0.8;" x="81" xlink:href="#m606fa5988a" y="84.713253"/>
      </g>
     </g>
     <g id="text_11">
      <!-- 0.032 -->
      <g transform="translate(39.64625 89.272316)scale(0.12 -0.12)">
       <use xlink:href="#DejaVuSans-48"/>
       <use x="63.623047" xlink:href="#DejaVuSans-46"/>
       <use x="95.410156" xlink:href="#DejaVuSans-48"/>
       <use x="159.033203" xlink:href="#DejaVuSans-51"/>
       <use x="222.65625" xlink:href="#DejaVuSans-50"/>
      </g>
     </g>
    </g>
    <g id="ytick_6">
     <g id="line2d_11">
      <g>
       <use style="stroke:#000000;stroke-width:0.8;" x="81" xlink:href="#m606fa5988a" y="62.414362"/>
      </g>
     </g>
     <g id="text_12">
      <!-- 0.033 -->
      <g transform="translate(39.64625 66.973425)scale(0.12 -0.12)">
       <use xlink:href="#DejaVuSans-48"/>
       <use x="63.623047" xlink:href="#DejaVuSans-46"/>
       <use x="95.410156" xlink:href="#DejaVuSans-48"/>
       <use x="159.033203" xlink:href="#DejaVuSans-51"/>
       <use x="222.65625" xlink:href="#DejaVuSans-51"/>
      </g>
     </g>
    </g>
    <g id="ytick_7">
     <g id="line2d_12">
      <g>
       <use style="stroke:#000000;stroke-width:0.8;" x="81" xlink:href="#m606fa5988a" y="40.115471"/>
      </g>
     </g>
     <g id="text_13">
      <!-- 0.034 -->
      <defs>
       <path d="M 37.796875 64.3125 
L 12.890625 25.390625 
L 37.796875 25.390625 
z
M 35.203125 72.90625 
L 47.609375 72.90625 
L 47.609375 25.390625 
L 58.015625 25.390625 
L 58.015625 17.1875 
L 47.609375 17.1875 
L 47.609375 0 
L 37.796875 0 
L 37.796875 17.1875 
L 4.890625 17.1875 
L 4.890625 26.703125 
z
" id="DejaVuSans-52"/>
      </defs>
      <g transform="translate(39.64625 44.674534)scale(0.12 -0.12)">
       <use xlink:href="#DejaVuSans-48"/>
       <use x="63.623047" xlink:href="#DejaVuSans-46"/>
       <use x="95.410156" xlink:href="#DejaVuSans-48"/>
       <use x="159.033203" xlink:href="#DejaVuSans-51"/>
       <use x="222.65625" xlink:href="#DejaVuSans-52"/>
      </g>
     </g>
    </g>
    <g id="text_14">
     <!-- Beta-bin $\pi$ -->
     <defs>
      <path d="M 19.671875 34.8125 
L 19.671875 8.109375 
L 35.5 8.109375 
Q 43.453125 8.109375 47.28125 11.40625 
Q 51.125 14.703125 51.125 21.484375 
Q 51.125 28.328125 47.28125 31.5625 
Q 43.453125 34.8125 35.5 34.8125 
z
M 19.671875 64.796875 
L 19.671875 42.828125 
L 34.28125 42.828125 
Q 41.5 42.828125 45.03125 45.53125 
Q 48.578125 48.25 48.578125 53.8125 
Q 48.578125 59.328125 45.03125 62.0625 
Q 41.5 64.796875 34.28125 64.796875 
z
M 9.8125 72.90625 
L 35.015625 72.90625 
Q 46.296875 72.90625 52.390625 68.21875 
Q 58.5 63.53125 58.5 54.890625 
Q 58.5 48.1875 55.375 44.234375 
Q 52.25 40.28125 46.1875 39.3125 
Q 53.46875 37.75 57.5 32.78125 
Q 61.53125 27.828125 61.53125 20.40625 
Q 61.53125 10.640625 54.890625 5.3125 
Q 48.25 0 35.984375 0 
L 9.8125 0 
z
" id="DejaVuSans-66"/>
      <path d="M 18.3125 70.21875 
L 18.3125 54.6875 
L 36.8125 54.6875 
L 36.8125 47.703125 
L 18.3125 47.703125 
L 18.3125 18.015625 
Q 18.3125 11.328125 20.140625 9.421875 
Q 21.96875 7.515625 27.59375 7.515625 
L 36.8125 7.515625 
L 36.8125 0 
L 27.59375 0 
Q 17.1875 0 13.234375 3.875 
Q 9.28125 7.765625 9.28125 18.015625 
L 9.28125 47.703125 
L 2.6875 47.703125 
L 2.6875 54.6875 
L 9.28125 54.6875 
L 9.28125 70.21875 
z
" id="DejaVuSans-116"/>
      <path d="M 34.28125 27.484375 
Q 23.390625 27.484375 19.1875 25 
Q 14.984375 22.515625 14.984375 16.5 
Q 14.984375 11.71875 18.140625 8.90625 
Q 21.296875 6.109375 26.703125 6.109375 
Q 34.1875 6.109375 38.703125 11.40625 
Q 43.21875 16.703125 43.21875 25.484375 
L 43.21875 27.484375 
z
M 52.203125 31.203125 
L 52.203125 0 
L 43.21875 0 
L 43.21875 8.296875 
Q 40.140625 3.328125 35.546875 0.953125 
Q 30.953125 -1.421875 24.3125 -1.421875 
Q 15.921875 -1.421875 10.953125 3.296875 
Q 6 8.015625 6 15.921875 
Q 6 25.140625 12.171875 29.828125 
Q 18.359375 34.515625 30.609375 34.515625 
L 43.21875 34.515625 
L 43.21875 35.40625 
Q 43.21875 41.609375 39.140625 45 
Q 35.0625 48.390625 27.6875 48.390625 
Q 23 48.390625 18.546875 47.265625 
Q 14.109375 46.140625 10.015625 43.890625 
L 10.015625 52.203125 
Q 14.9375 54.109375 19.578125 55.046875 
Q 24.21875 56 28.609375 56 
Q 40.484375 56 46.34375 49.84375 
Q 52.203125 43.703125 52.203125 31.203125 
z
" id="DejaVuSans-97"/>
      <path d="M 4.890625 31.390625 
L 31.203125 31.390625 
L 31.203125 23.390625 
L 4.890625 23.390625 
z
" id="DejaVuSans-45"/>
      <path d="M 48.6875 27.296875 
Q 48.6875 37.203125 44.609375 42.84375 
Q 40.53125 48.484375 33.40625 48.484375 
Q 26.265625 48.484375 22.1875 42.84375 
Q 18.109375 37.203125 18.109375 27.296875 
Q 18.109375 17.390625 22.1875 11.75 
Q 26.265625 6.109375 33.40625 6.109375 
Q 40.53125 6.109375 44.609375 11.75 
Q 48.6875 17.390625 48.6875 27.296875 
z
M 18.109375 46.390625 
Q 20.953125 51.265625 25.265625 53.625 
Q 29.59375 56 35.59375 56 
Q 45.5625 56 51.78125 48.09375 
Q 58.015625 40.1875 58.015625 27.296875 
Q 58.015625 14.40625 51.78125 6.484375 
Q 45.5625 -1.421875 35.59375 -1.421875 
Q 29.59375 -1.421875 25.265625 0.953125 
Q 20.953125 3.328125 18.109375 8.203125 
L 18.109375 0 
L 9.078125 0 
L 9.078125 75.984375 
L 18.109375 75.984375 
z
" id="DejaVuSans-98"/>
      <path d="M 54.890625 33.015625 
L 54.890625 0 
L 45.90625 0 
L 45.90625 32.71875 
Q 45.90625 40.484375 42.875 44.328125 
Q 39.84375 48.1875 33.796875 48.1875 
Q 26.515625 48.1875 22.3125 43.546875 
Q 18.109375 38.921875 18.109375 30.90625 
L 18.109375 0 
L 9.078125 0 
L 9.078125 54.6875 
L 18.109375 54.6875 
L 18.109375 46.1875 
Q 21.34375 51.125 25.703125 53.5625 
Q 30.078125 56 35.796875 56 
Q 45.21875 56 50.046875 50.171875 
Q 54.890625 44.34375 54.890625 33.015625 
z
" id="DejaVuSans-110"/>
      <path d="M 9.125 54.6875 
L 61.53125 54.6875 
L 59.765625 45.703125 
L 52.875 45.703125 
L 46.34375 12.109375 
Q 45.65625 8.59375 46.578125 7.03125 
Q 47.46875 5.515625 50.140625 5.515625 
Q 50.875 5.515625 51.953125 5.671875 
Q 53.078125 5.765625 53.421875 5.8125 
L 52.15625 -0.6875 
Q 50.34375 -1.3125 48.484375 -1.609375 
Q 46.578125 -1.90625 44.78125 -1.90625 
Q 38.921875 -1.90625 37.3125 1.265625 
Q 35.6875 4.5 37.359375 13.09375 
L 43.703125 45.703125 
L 23.53125 45.703125 
L 14.65625 0 
L 5.46875 0 
L 14.359375 45.703125 
L 7.375 45.703125 
z
" id="DejaVuSans-Oblique-960"/>
     </defs>
     <g transform="translate(32.6515 146.088)rotate(-90)scale(0.144 -0.144)">
      <use transform="translate(0 0.015625)" xlink:href="#DejaVuSans-66"/>
      <use transform="translate(68.603516 0.015625)" xlink:href="#DejaVuSans-101"/>
      <use transform="translate(130.126953 0.015625)" xlink:href="#DejaVuSans-116"/>
      <use transform="translate(169.335938 0.015625)" xlink:href="#DejaVuSans-97"/>
      <use transform="translate(230.615234 0.015625)" xlink:href="#DejaVuSans-45"/>
      <use transform="translate(266.699219 0.015625)" xlink:href="#DejaVuSans-98"/>
      <use transform="translate(330.175781 0.015625)" xlink:href="#DejaVuSans-105"/>
      <use transform="translate(357.958984 0.015625)" xlink:href="#DejaVuSans-110"/>
      <use transform="translate(421.337891 0.015625)" xlink:href="#DejaVuSans-32"/>
      <use transform="translate(453.125 0.015625)" xlink:href="#DejaVuSans-Oblique-960"/>
     </g>
    </g>
   </g>
   <g id="line2d_13">
    <path clip-path="url(#pd52b84f881)" d="M 81 114.607203 
L 82.895094 112.700055 
L 84.790189 103.830884 
L 86.685283 111.484838 
L 88.580377 103.958261 
L 90.475472 105.108192 
L 92.370566 96.4156 
L 94.26566 91.57454 
L 96.160755 87.136038 
L 98.055849 87.762351 
L 99.950943 89.393756 
L 101.846038 85.012956 
L 103.741132 76.18823 
L 105.636226 78.046314 
L 107.531321 75.528727 
L 111.321509 62.067885 
L 113.216604 56.21001 
L 115.111698 58.332788 
L 117.006792 58.598844 
L 118.901887 68.03953 
L 122.692075 79.306261 
L 124.58717 74.697906 
L 126.482264 76.473958 
L 128.377358 75.964635 
L 130.272453 74.591395 
L 132.167547 75.447571 
L 134.062642 75.665125 
L 135.957736 74.655704 
L 137.85283 74.922073 
L 141.643019 83.308827 
L 143.538113 94.114156 
L 145.433208 88.833385 
L 147.328302 87.86003 
L 149.223396 85.507481 
L 151.118491 93.938216 
L 153.013585 95.405868 
L 154.908679 90.926613 
L 156.803774 87.229026 
L 158.698868 85.269657 
L 160.593962 91.437994 
L 162.489057 93.702326 
L 166.279245 103.438832 
L 168.17434 109.055499 
L 170.069434 110.773146 
L 171.964528 121.295153 
L 173.859623 110.36057 
L 175.754717 106.47246 
L 177.649811 110.775183 
L 179.544906 114.338519 
L 181.44 120.803285 
L 183.335094 123.019159 
L 187.125283 135.350821 
L 189.020377 139.961281 
L 190.915472 146.372615 
L 192.810566 147.394531 
L 194.70566 137.711295 
L 196.600755 145.290997 
L 198.495849 135.121575 
L 202.286038 144.556721 
L 204.181132 149.411443 
L 207.971321 161.803784 
L 209.866415 161.257916 
L 211.761509 160.182582 
L 213.656604 164.369608 
L 215.551698 162.153321 
L 217.446792 156.545131 
L 219.341887 153.687222 
L 221.236981 154.998778 
L 223.132075 155.097292 
L 225.02717 154.52282 
L 226.922264 149.660742 
L 228.817358 142.305234 
L 230.712453 144.571795 
L 232.607547 141.744839 
L 234.502642 133.677068 
L 236.397736 133.051275 
L 238.29283 136.258419 
L 240.187925 137.195605 
L 242.083019 134.281966 
L 243.978113 137.9465 
L 245.873208 133.835318 
L 247.768302 134.229583 
L 249.663396 138.593629 
L 251.558491 145.83689 
L 253.453585 146.870486 
L 255.348679 151.725121 
L 257.243774 148.365213 
L 259.138868 146.886284 
L 261.033962 144.854008 
L 262.929057 141.119625 
L 264.824151 141.825326 
L 266.719245 144.684168 
L 268.61434 146.792617 
L 270.509434 153.37911 
L 272.404528 151.739203 
L 274.299623 158.509632 
L 276.194717 155.495897 
L 278.089811 156.308011 
L 279.984906 151.517344 
L 283.775094 136.89652 
L 285.670189 135.971971 
L 289.460377 118.722419 
L 291.355472 114.092822 
L 293.250566 119.466054 
L 295.14566 115.186161 
L 297.040755 112.53713 
L 298.935849 109.044073 
L 300.830943 112.642197 
L 302.726038 121.217992 
L 304.621132 125.176476 
L 306.516226 127.238585 
L 308.411321 132.944267 
L 310.306415 132.754781 
L 312.201509 133.804731 
L 314.096604 133.350014 
L 315.991698 132.50993 
L 317.886792 127.189453 
L 319.781887 125.216612 
L 321.676981 128.75435 
L 323.572075 126.960328 
L 325.46717 126.939124 
L 327.362264 124.626781 
L 329.257358 121.597808 
L 331.152453 121.369833 
L 333.047547 121.880997 
L 334.942642 122.612541 
L 336.837736 122.776539 
L 338.73283 119.346423 
L 340.627925 120.850821 
L 342.523019 119.12127 
L 344.418113 115.382495 
L 346.313208 117.907198 
L 348.208302 116.362378 
L 350.103396 111.684432 
L 351.998491 109.513875 
L 353.893585 106.377099 
L 355.788679 106.304836 
L 357.683774 105.290148 
L 361.473962 105.568695 
L 363.369057 113.314261 
L 365.264151 119.249374 
L 369.05434 121.125447 
L 370.949434 122.804604 
L 372.844528 122.18739 
L 374.739623 126.531339 
L 376.634717 127.639164 
L 378.529811 123.183105 
L 380.424906 128.374278 
L 382.32 125.383686 
L 384.215094 124.383617 
L 386.110189 125.32628 
L 388.005283 126.462588 
L 389.900377 117.637891 
L 391.795472 126.868034 
L 393.690566 121.167998 
L 395.58566 124.614878 
L 397.480755 125.182461 
L 399.375849 124.227807 
L 401.270943 118.796428 
L 403.166038 122.8464 
L 405.061132 122.596846 
L 406.956226 121.175265 
L 408.851321 116.975075 
L 410.746415 114.743134 
L 412.641509 107.506609 
L 414.536604 108.528938 
L 416.431698 104.329148 
L 418.326792 101.972802 
L 422.116981 106.54212 
L 424.012075 110.197416 
L 425.90717 114.20789 
L 429.697358 123.462889 
L 431.592453 122.148177 
L 433.487547 124.84639 
L 435.382642 125.815064 
L 437.277736 133.679729 
L 439.17283 134.14458 
L 442.963019 140.513541 
L 444.858113 136.489654 
L 446.753208 141.70597 
L 448.648302 138.401465 
L 450.543396 132.569409 
L 452.438491 129.919999 
L 454.333585 134.57645 
L 456.228679 131.202512 
L 458.123774 131.243056 
L 460.018868 135.563397 
L 461.913962 135.496015 
L 463.809057 134.452724 
L 465.704151 138.819787 
L 467.599245 140.757518 
L 469.49434 146.329456 
L 471.389434 146.542179 
L 473.284528 144.837287 
L 475.179623 141.190478 
L 477.074717 147.486087 
L 478.969811 139.432018 
L 480.864906 139.095623 
L 482.76 137.776173 
L 484.655094 142.043081 
L 486.550189 147.584648 
L 488.445283 154.173836 
L 490.340377 158.045579 
L 492.235472 162.330162 
L 494.130566 160.904947 
L 496.02566 160.578133 
L 497.920755 147.965415 
L 499.815849 143.542416 
L 501.710943 146.568001 
L 503.606038 141.837363 
L 507.396226 138.187242 
L 509.291321 143.157768 
L 511.186415 143.875144 
L 513.081509 135.555209 
L 514.976604 137.809583 
L 516.871698 134.938157 
L 518.766792 130.644188 
L 520.661887 132.937991 
L 522.556981 139.321053 
L 524.452075 129.176371 
L 526.34717 133.985438 
L 528.242264 133.522798 
L 530.137358 133.7517 
L 532.032453 138.488311 
L 533.927547 141.906251 
L 535.822642 132.831203 
L 537.717736 125.482449 
L 539.61283 123.997343 
L 541.507925 123.87938 
L 543.403019 117.267083 
L 545.298113 114.729153 
L 547.193208 115.864172 
L 549.088302 121.242679 
L 550.983396 119.356851 
L 552.878491 124.927797 
L 554.773585 123.731418 
L 556.668679 124.767125 
L 558.563774 127.728149 
L 560.458868 119.485184 
L 562.353962 121.207974 
L 564.249057 112.970611 
L 566.144151 105.811063 
L 568.039245 103.530367 
L 569.93434 108.549067 
L 571.829434 110.104501 
L 573.724528 111.461629 
L 575.619623 108.151058 
L 577.514717 109.601608 
L 579.409811 104.425086 
L 581.304906 108.808545 
L 583.2 116.242185 
L 583.2 116.242185 
" style="fill:none;stroke:#0000ff;stroke-linecap:square;stroke-width:1.5;"/>
   </g>
   <g id="patch_3">
    <path d="M 81 192.24 
L 81 25.92 
" style="fill:none;stroke:#000000;stroke-linecap:square;stroke-linejoin:miter;stroke-width:0.8;"/>
   </g>
   <g id="patch_4">
    <path d="M 583.2 192.24 
L 583.2 25.92 
" style="fill:none;stroke:#000000;stroke-linecap:square;stroke-linejoin:miter;stroke-width:0.8;"/>
   </g>
   <g id="patch_5">
    <path d="M 81 192.24 
L 583.2 192.24 
" style="fill:none;stroke:#000000;stroke-linecap:square;stroke-linejoin:miter;stroke-width:0.8;"/>
   </g>
   <g id="patch_6">
    <path d="M 81 25.92 
L 583.2 25.92 
" style="fill:none;stroke:#000000;stroke-linecap:square;stroke-linejoin:miter;stroke-width:0.8;"/>
   </g>
   <g id="text_15">
    <!-- Hippocampus, Num Trials=10 All unstimulated trials -->
    <defs>
     <path d="M 9.8125 72.90625 
L 19.671875 72.90625 
L 19.671875 43.015625 
L 55.515625 43.015625 
L 55.515625 72.90625 
L 65.375 72.90625 
L 65.375 0 
L 55.515625 0 
L 55.515625 34.71875 
L 19.671875 34.71875 
L 19.671875 0 
L 9.8125 0 
z
" id="DejaVuSans-72"/>
     <path d="M 18.109375 8.203125 
L 18.109375 -20.796875 
L 9.078125 -20.796875 
L 9.078125 54.6875 
L 18.109375 54.6875 
L 18.109375 46.390625 
Q 20.953125 51.265625 25.265625 53.625 
Q 29.59375 56 35.59375 56 
Q 45.5625 56 51.78125 48.09375 
Q 58.015625 40.1875 58.015625 27.296875 
Q 58.015625 14.40625 51.78125 6.484375 
Q 45.5625 -1.421875 35.59375 -1.421875 
Q 29.59375 -1.421875 25.265625 0.953125 
Q 20.953125 3.328125 18.109375 8.203125 
z
M 48.6875 27.296875 
Q 48.6875 37.203125 44.609375 42.84375 
Q 40.53125 48.484375 33.40625 48.484375 
Q 26.265625 48.484375 22.1875 42.84375 
Q 18.109375 37.203125 18.109375 27.296875 
Q 18.109375 17.390625 22.1875 11.75 
Q 26.265625 6.109375 33.40625 6.109375 
Q 40.53125 6.109375 44.609375 11.75 
Q 48.6875 17.390625 48.6875 27.296875 
z
" id="DejaVuSans-112"/>
     <path d="M 30.609375 48.390625 
Q 23.390625 48.390625 19.1875 42.75 
Q 14.984375 37.109375 14.984375 27.296875 
Q 14.984375 17.484375 19.15625 11.84375 
Q 23.34375 6.203125 30.609375 6.203125 
Q 37.796875 6.203125 41.984375 11.859375 
Q 46.1875 17.53125 46.1875 27.296875 
Q 46.1875 37.015625 41.984375 42.703125 
Q 37.796875 48.390625 30.609375 48.390625 
z
M 30.609375 56 
Q 42.328125 56 49.015625 48.375 
Q 55.71875 40.765625 55.71875 27.296875 
Q 55.71875 13.875 49.015625 6.21875 
Q 42.328125 -1.421875 30.609375 -1.421875 
Q 18.84375 -1.421875 12.171875 6.21875 
Q 5.515625 13.875 5.515625 27.296875 
Q 5.515625 40.765625 12.171875 48.375 
Q 18.84375 56 30.609375 56 
z
" id="DejaVuSans-111"/>
     <path d="M 48.78125 52.59375 
L 48.78125 44.1875 
Q 44.96875 46.296875 41.140625 47.34375 
Q 37.3125 48.390625 33.40625 48.390625 
Q 24.65625 48.390625 19.8125 42.84375 
Q 14.984375 37.3125 14.984375 27.296875 
Q 14.984375 17.28125 19.8125 11.734375 
Q 24.65625 6.203125 33.40625 6.203125 
Q 37.3125 6.203125 41.140625 7.25 
Q 44.96875 8.296875 48.78125 10.40625 
L 48.78125 2.09375 
Q 45.015625 0.34375 40.984375 -0.53125 
Q 36.96875 -1.421875 32.421875 -1.421875 
Q 20.0625 -1.421875 12.78125 6.34375 
Q 5.515625 14.109375 5.515625 27.296875 
Q 5.515625 40.671875 12.859375 48.328125 
Q 20.21875 56 33.015625 56 
Q 37.15625 56 41.109375 55.140625 
Q 45.0625 54.296875 48.78125 52.59375 
z
" id="DejaVuSans-99"/>
     <path d="M 8.5 21.578125 
L 8.5 54.6875 
L 17.484375 54.6875 
L 17.484375 21.921875 
Q 17.484375 14.15625 20.5 10.265625 
Q 23.53125 6.390625 29.59375 6.390625 
Q 36.859375 6.390625 41.078125 11.03125 
Q 45.3125 15.671875 45.3125 23.6875 
L 45.3125 54.6875 
L 54.296875 54.6875 
L 54.296875 0 
L 45.3125 0 
L 45.3125 8.40625 
Q 42.046875 3.421875 37.71875 1 
Q 33.40625 -1.421875 27.6875 -1.421875 
Q 18.265625 -1.421875 13.375 4.4375 
Q 8.5 10.296875 8.5 21.578125 
z
M 31.109375 56 
z
" id="DejaVuSans-117"/>
     <path d="M 11.71875 12.40625 
L 22.015625 12.40625 
L 22.015625 4 
L 14.015625 -11.625 
L 7.71875 -11.625 
L 11.71875 4 
z
" id="DejaVuSans-44"/>
     <path d="M 9.8125 72.90625 
L 23.09375 72.90625 
L 55.421875 11.921875 
L 55.421875 72.90625 
L 64.984375 72.90625 
L 64.984375 0 
L 51.703125 0 
L 19.390625 60.984375 
L 19.390625 0 
L 9.8125 0 
z
" id="DejaVuSans-78"/>
     <path d="M 41.109375 46.296875 
Q 39.59375 47.171875 37.8125 47.578125 
Q 36.03125 48 33.890625 48 
Q 26.265625 48 22.1875 43.046875 
Q 18.109375 38.09375 18.109375 28.8125 
L 18.109375 0 
L 9.078125 0 
L 9.078125 54.6875 
L 18.109375 54.6875 
L 18.109375 46.1875 
Q 20.953125 51.171875 25.484375 53.578125 
Q 30.03125 56 36.53125 56 
Q 37.453125 56 38.578125 55.875 
Q 39.703125 55.765625 41.0625 55.515625 
z
" id="DejaVuSans-114"/>
     <path d="M 9.421875 75.984375 
L 18.40625 75.984375 
L 18.40625 0 
L 9.421875 0 
z
" id="DejaVuSans-108"/>
     <path d="M 10.59375 45.40625 
L 73.1875 45.40625 
L 73.1875 37.203125 
L 10.59375 37.203125 
z
M 10.59375 25.484375 
L 73.1875 25.484375 
L 73.1875 17.1875 
L 10.59375 17.1875 
z
" id="DejaVuSans-61"/>
     <path d="M 34.1875 63.1875 
L 20.796875 26.90625 
L 47.609375 26.90625 
z
M 28.609375 72.90625 
L 39.796875 72.90625 
L 67.578125 0 
L 57.328125 0 
L 50.6875 18.703125 
L 17.828125 18.703125 
L 11.1875 0 
L 0.78125 0 
z
" id="DejaVuSans-65"/>
     <path d="M 45.40625 46.390625 
L 45.40625 75.984375 
L 54.390625 75.984375 
L 54.390625 0 
L 45.40625 0 
L 45.40625 8.203125 
Q 42.578125 3.328125 38.25 0.953125 
Q 33.9375 -1.421875 27.875 -1.421875 
Q 17.96875 -1.421875 11.734375 6.484375 
Q 5.515625 14.40625 5.515625 27.296875 
Q 5.515625 40.1875 11.734375 48.09375 
Q 17.96875 56 27.875 56 
Q 33.9375 56 38.25 53.625 
Q 42.578125 51.265625 45.40625 46.390625 
z
M 14.796875 27.296875 
Q 14.796875 17.390625 18.875 11.75 
Q 22.953125 6.109375 30.078125 6.109375 
Q 37.203125 6.109375 41.296875 11.75 
Q 45.40625 17.390625 45.40625 27.296875 
Q 45.40625 37.203125 41.296875 42.84375 
Q 37.203125 48.484375 30.078125 48.484375 
Q 22.953125 48.484375 18.875 42.84375 
Q 14.796875 37.203125 14.796875 27.296875 
z
" id="DejaVuSans-100"/>
    </defs>
    <g transform="translate(174.593438 19.92)scale(0.12 -0.12)">
     <use xlink:href="#DejaVuSans-72"/>
     <use x="75.195312" xlink:href="#DejaVuSans-105"/>
     <use x="102.978516" xlink:href="#DejaVuSans-112"/>
     <use x="166.455078" xlink:href="#DejaVuSans-112"/>
     <use x="229.931641" xlink:href="#DejaVuSans-111"/>
     <use x="291.113281" xlink:href="#DejaVuSans-99"/>
     <use x="346.09375" xlink:href="#DejaVuSans-97"/>
     <use x="407.373047" xlink:href="#DejaVuSans-109"/>
     <use x="504.785156" xlink:href="#DejaVuSans-112"/>
     <use x="568.261719" xlink:href="#DejaVuSans-117"/>
     <use x="631.640625" xlink:href="#DejaVuSans-115"/>
     <use x="683.740234" xlink:href="#DejaVuSans-44"/>
     <use x="715.527344" xlink:href="#DejaVuSans-32"/>
     <use x="747.314453" xlink:href="#DejaVuSans-78"/>
     <use x="822.119141" xlink:href="#DejaVuSans-117"/>
     <use x="885.498047" xlink:href="#DejaVuSans-109"/>
     <use x="982.910156" xlink:href="#DejaVuSans-32"/>
     <use x="1014.697266" xlink:href="#DejaVuSans-84"/>
     <use x="1075.5625" xlink:href="#DejaVuSans-114"/>
     <use x="1116.675781" xlink:href="#DejaVuSans-105"/>
     <use x="1144.458984" xlink:href="#DejaVuSans-97"/>
     <use x="1205.738281" xlink:href="#DejaVuSans-108"/>
     <use x="1233.521484" xlink:href="#DejaVuSans-115"/>
     <use x="1285.621094" xlink:href="#DejaVuSans-61"/>
     <use x="1369.410156" xlink:href="#DejaVuSans-49"/>
     <use x="1433.033203" xlink:href="#DejaVuSans-48"/>
     <use x="1496.65625" xlink:href="#DejaVuSans-32"/>
     <use x="1528.443359" xlink:href="#DejaVuSans-65"/>
     <use x="1596.851562" xlink:href="#DejaVuSans-108"/>
     <use x="1624.634766" xlink:href="#DejaVuSans-108"/>
     <use x="1652.417969" xlink:href="#DejaVuSans-32"/>
     <use x="1684.205078" xlink:href="#DejaVuSans-117"/>
     <use x="1747.583984" xlink:href="#DejaVuSans-110"/>
     <use x="1810.962891" xlink:href="#DejaVuSans-115"/>
     <use x="1863.0625" xlink:href="#DejaVuSans-116"/>
     <use x="1902.271484" xlink:href="#DejaVuSans-105"/>
     <use x="1930.054688" xlink:href="#DejaVuSans-109"/>
     <use x="2027.466797" xlink:href="#DejaVuSans-117"/>
     <use x="2090.845703" xlink:href="#DejaVuSans-108"/>
     <use x="2118.628906" xlink:href="#DejaVuSans-97"/>
     <use x="2179.908203" xlink:href="#DejaVuSans-116"/>
     <use x="2219.117188" xlink:href="#DejaVuSans-101"/>
     <use x="2280.640625" xlink:href="#DejaVuSans-100"/>
     <use x="2344.117188" xlink:href="#DejaVuSans-32"/>
     <use x="2375.904297" xlink:href="#DejaVuSans-116"/>
     <use x="2415.113281" xlink:href="#DejaVuSans-114"/>
     <use x="2456.226562" xlink:href="#DejaVuSans-105"/>
     <use x="2484.009766" xlink:href="#DejaVuSans-97"/>
     <use x="2545.289062" xlink:href="#DejaVuSans-108"/>
     <use x="2573.072266" xlink:href="#DejaVuSans-115"/>
    </g>
   </g>
   <g id="legend_1">
    <g id="patch_7">
     <path d="M 441.12 70.7475 
L 574.8 70.7475 
Q 577.2 70.7475 577.2 68.3475 
L 577.2 34.32 
Q 577.2 31.92 574.8 31.92 
L 441.12 31.92 
Q 438.72 31.92 438.72 34.32 
L 438.72 68.3475 
Q 438.72 70.7475 441.12 70.7475 
z
" style="fill:#ffffff;opacity:0.8;stroke:#cccccc;stroke-linejoin:miter;"/>
    </g>
    <g id="line2d_14">
     <path d="M 443.52 41.638125 
L 467.52 41.638125 
" style="fill:none;stroke:#0000ff;stroke-linecap:square;stroke-width:1.5;"/>
    </g>
    <g id="line2d_15"/>
    <g id="text_16">
     <!-- Beta-Binomial $\pi$ -->
     <g transform="translate(477.12 45.838125)scale(0.12 -0.12)">
      <use transform="translate(0 0.015625)" xlink:href="#DejaVuSans-66"/>
      <use transform="translate(68.603516 0.015625)" xlink:href="#DejaVuSans-101"/>
      <use transform="translate(130.126953 0.015625)" xlink:href="#DejaVuSans-116"/>
      <use transform="translate(169.335938 0.015625)" xlink:href="#DejaVuSans-97"/>
      <use transform="translate(230.615234 0.015625)" xlink:href="#DejaVuSans-45"/>
      <use transform="translate(266.699219 0.015625)" xlink:href="#DejaVuSans-66"/>
      <use transform="translate(335.302734 0.015625)" xlink:href="#DejaVuSans-105"/>
      <use transform="translate(363.085938 0.015625)" xlink:href="#DejaVuSans-110"/>
      <use transform="translate(426.464844 0.015625)" xlink:href="#DejaVuSans-111"/>
      <use transform="translate(487.646484 0.015625)" xlink:href="#DejaVuSans-109"/>
      <use transform="translate(585.058594 0.015625)" xlink:href="#DejaVuSans-105"/>
      <use transform="translate(612.841797 0.015625)" xlink:href="#DejaVuSans-97"/>
      <use transform="translate(674.121094 0.015625)" xlink:href="#DejaVuSans-108"/>
      <use transform="translate(701.904297 0.015625)" xlink:href="#DejaVuSans-32"/>
      <use transform="translate(733.691406 0.015625)" xlink:href="#DejaVuSans-Oblique-960"/>
     </g>
    </g>
    <g id="patch_8">
     <path d="M 443.52 63.451875 
L 467.52 63.451875 
L 467.52 55.051875 
L 443.52 55.051875 
z
" style="fill:#0000ff;opacity:0.3;stroke:#0000ff;stroke-linejoin:miter;"/>
    </g>
    <g id="text_17">
     <!-- Std. Err. -->
     <defs>
      <path d="M 53.515625 70.515625 
L 53.515625 60.890625 
Q 47.90625 63.578125 42.921875 64.890625 
Q 37.9375 66.21875 33.296875 66.21875 
Q 25.25 66.21875 20.875 63.09375 
Q 16.5 59.96875 16.5 54.203125 
Q 16.5 49.359375 19.40625 46.890625 
Q 22.3125 44.4375 30.421875 42.921875 
L 36.375 41.703125 
Q 47.40625 39.59375 52.65625 34.296875 
Q 57.90625 29 57.90625 20.125 
Q 57.90625 9.515625 50.796875 4.046875 
Q 43.703125 -1.421875 29.984375 -1.421875 
Q 24.8125 -1.421875 18.96875 -0.25 
Q 13.140625 0.921875 6.890625 3.21875 
L 6.890625 13.375 
Q 12.890625 10.015625 18.65625 8.296875 
Q 24.421875 6.59375 29.984375 6.59375 
Q 38.421875 6.59375 43.015625 9.90625 
Q 47.609375 13.234375 47.609375 19.390625 
Q 47.609375 24.75 44.3125 27.78125 
Q 41.015625 30.8125 33.5 32.328125 
L 27.484375 33.5 
Q 16.453125 35.6875 11.515625 40.375 
Q 6.59375 45.0625 6.59375 53.421875 
Q 6.59375 63.09375 13.40625 68.65625 
Q 20.21875 74.21875 32.171875 74.21875 
Q 37.3125 74.21875 42.625 73.28125 
Q 47.953125 72.359375 53.515625 70.515625 
z
" id="DejaVuSans-83"/>
      <path d="M 9.8125 72.90625 
L 55.90625 72.90625 
L 55.90625 64.59375 
L 19.671875 64.59375 
L 19.671875 43.015625 
L 54.390625 43.015625 
L 54.390625 34.71875 
L 19.671875 34.71875 
L 19.671875 8.296875 
L 56.78125 8.296875 
L 56.78125 0 
L 9.8125 0 
z
" id="DejaVuSans-69"/>
     </defs>
     <g transform="translate(477.12 63.451875)scale(0.12 -0.12)">
      <use xlink:href="#DejaVuSans-83"/>
      <use x="63.476562" xlink:href="#DejaVuSans-116"/>
      <use x="102.685547" xlink:href="#DejaVuSans-100"/>
      <use x="166.162109" xlink:href="#DejaVuSans-46"/>
      <use x="197.949219" xlink:href="#DejaVuSans-32"/>
      <use x="229.736328" xlink:href="#DejaVuSans-69"/>
      <use x="292.919922" xlink:href="#DejaVuSans-114"/>
      <use x="334.017578" xlink:href="#DejaVuSans-114"/>
      <use x="374.990234" xlink:href="#DejaVuSans-46"/>
     </g>
    </g>
   </g>
  </g>
 </g>
 <defs>
  <clipPath id="pd52b84f881">
   <rect height="166.32" width="502.2" x="81" y="25.92"/>
  </clipPath>
 </defs>
</svg>
