<?xml version="1.0" encoding="utf-8" standalone="no"?>
<!DOCTYPE svg PUBLIC "-//W3C//DTD SVG 1.1//EN"
  "http://www.w3.org/Graphics/SVG/1.1/DTD/svg11.dtd">
<!-- Created with matplotlib (https://matplotlib.org/) -->
<svg height="223.2pt" version="1.1" viewBox="0 0 576 223.2" width="576pt" xmlns="http://www.w3.org/2000/svg" xmlns:xlink="http://www.w3.org/1999/xlink">
 <defs>
  <style type="text/css">
*{stroke-linecap:butt;stroke-linejoin:round;}
  </style>
 </defs>
 <g id="figure_1">
  <g id="patch_1">
   <path d="M 0 223.2 
L 576 223.2 
L 576 0 
L 0 0 
z
" style="fill:#ffffff;"/>
  </g>
  <g id="axes_1">
   <g id="patch_2">
    <path d="M 69.59 174.76 
L 565.2 174.76 
L 565.2 26.88 
L 69.59 26.88 
z
" style="fill:#ffffff;"/>
   </g>
   <g id="PolyCollection_1">
    <path clip-path="url(#paa0438790c)" d="M 150.147625 278.124377 
L 150.147625 26.88 
L 402.15271 26.88 
L 402.15271 278.124377 
L 402.15271 278.124377 
L 150.147625 278.124377 
z
" style="fill:#808080;fill-opacity:0.3;stroke:#808080;stroke-opacity:0.3;"/>
   </g>
   <g id="PolyCollection_2">
    <path clip-path="url(#paa0438790c)" d="M 69.59 241.710093 
L 69.59 241.710093 
L 71.270034 257.377595 
L 72.950068 241.710093 
L 74.630102 198.111302 
L 76.310136 223.512767 
L 77.990169 241.710093 
L 79.670203 241.710093 
L 81.350237 278.124377 
L 83.030271 241.710093 
L 84.710305 203.406991 
L 86.390339 228.329269 
L 88.070373 241.693098 
L 89.750407 225.352169 
L 91.430441 226.87094 
L 91.430441 211.906404 
L 91.430441 211.906404 
L 89.750407 214.894162 
L 88.070373 220.556242 
L 86.390339 213.106893 
L 84.710305 188.764048 
L 83.030271 241.710093 
L 81.350237 247.957796 
L 79.670203 241.710093 
L 77.990169 241.710093 
L 76.310136 211.822601 
L 74.630102 189.759848 
L 72.950068 241.710093 
L 71.270034 242.834969 
L 69.59 241.710093 
z
" style="fill:#0000ff;fill-opacity:0.3;stroke:#0000ff;stroke-opacity:0.3;"/>
    <path clip-path="url(#paa0438790c)" d="M 94.790508 213.407584 
L 94.790508 225.480921 
L 96.470542 231.539694 
L 98.150576 240.732075 
L 99.83061 235.067725 
L 101.510644 235.406552 
L 103.190678 219.265306 
L 104.870712 248.894191 
L 106.550746 226.420413 
L 108.23078 242.610778 
L 109.910814 216.291451 
L 111.590847 224.055548 
L 113.270881 241.883438 
L 114.950915 249.26887 
L 116.630949 251.671304 
L 118.310983 240.117614 
L 119.991017 226.426558 
L 121.671051 205.86196 
L 123.351085 179.101782 
L 125.031119 234.890526 
L 126.711153 210.90341 
L 128.391186 241.6226 
L 130.07122 196.336495 
L 131.751254 208.823698 
L 133.431288 227.844063 
L 135.111322 208.936982 
L 136.791356 210.015782 
L 138.47139 182.74932 
L 140.151424 214.450671 
L 141.831458 199.759929 
L 143.511492 239.261255 
L 145.191525 224.929354 
L 146.871559 241.045746 
L 148.551593 231.623571 
L 150.231627 220.383389 
L 151.911661 242.561952 
L 153.591695 241.710093 
L 155.271729 217.049603 
L 156.951763 207.710925 
L 158.631797 198.249183 
L 160.311831 230.058843 
L 161.991864 210.464033 
L 163.671898 209.363625 
L 165.351932 209.66132 
L 167.031966 239.354869 
L 168.712 228.734086 
L 170.392034 245.31213 
L 172.072068 224.500743 
L 173.752102 227.460735 
L 175.432136 244.174915 
L 177.112169 236.647311 
L 178.792203 230.658985 
L 180.472237 239.297114 
L 182.152271 244.991808 
L 183.832305 243.098808 
L 185.512339 234.13828 
L 187.192373 217.752217 
L 188.872407 194.518154 
L 190.552441 196.27731 
L 192.232475 202.814397 
L 193.912508 185.84255 
L 195.592542 227.473905 
L 197.272576 217.139256 
L 198.95261 240.460895 
L 200.632644 241.710093 
L 202.312678 247.81739 
L 203.992712 211.654826 
L 205.672746 219.978623 
L 207.35278 215.331891 
L 209.032814 207.452616 
L 210.712847 248.959956 
L 212.392881 225.914304 
L 214.072915 251.045562 
L 215.752949 227.405933 
L 217.432983 241.710093 
L 219.113017 232.301704 
L 220.793051 238.173266 
L 222.473085 216.036177 
L 224.153119 185.382423 
L 225.833153 221.311352 
L 227.513186 228.946801 
L 229.19322 227.886039 
L 230.873254 189.025763 
L 232.553288 227.908969 
L 234.233322 204.269322 
L 235.913356 210.648696 
L 237.59339 210.170511 
L 239.273424 230.446035 
L 240.953458 192.868223 
L 242.633492 215.844604 
L 244.313525 223.616536 
L 245.993559 237.909611 
L 247.673593 239.243285 
L 247.673593 111.205863 
L 247.673593 111.205863 
L 245.993559 220.063288 
L 244.313525 202.265957 
L 242.633492 198.81476 
L 240.953458 184.347908 
L 239.273424 221.113413 
L 237.59339 199.643958 
L 235.913356 200.454285 
L 234.233322 197.225552 
L 232.553288 211.92537 
L 230.873254 180.269745 
L 229.19322 213.204882 
L 227.513186 210.55671 
L 225.833153 208.538351 
L 224.153119 177.22315 
L 222.473085 206.617724 
L 220.793051 228.363551 
L 219.113017 216.701436 
L 217.432983 241.710093 
L 215.752949 152.8596 
L 214.072915 244.050541 
L 212.392881 211.648098 
L 210.712847 241.923509 
L 209.032814 195.250778 
L 207.35278 203.838154 
L 205.672746 195.421361 
L 203.992712 196.90939 
L 202.312678 205.360359 
L 200.632644 241.710093 
L 198.95261 194.273462 
L 197.272576 202.31861 
L 195.592542 209.520514 
L 193.912508 182.478126 
L 192.232475 190.394373 
L 190.552441 188.058671 
L 188.872407 182.628252 
L 187.192373 192.968688 
L 185.512339 222.083136 
L 183.832305 228.914377 
L 182.152271 232.162454 
L 180.472237 221.088507 
L 178.792203 184.665892 
L 177.112169 219.207833 
L 175.432136 242.165345 
L 173.752102 211.27545 
L 172.072068 203.803073 
L 170.392034 238.689119 
L 168.712 214.458957 
L 167.031966 223.854916 
L 165.351932 197.943133 
L 163.671898 194.229287 
L 161.991864 198.501945 
L 160.311831 215.696064 
L 158.631797 186.034682 
L 156.951763 194.724835 
L 155.271729 204.171961 
L 153.591695 241.710093 
L 151.911661 235.204949 
L 150.231627 205.064853 
L 148.551593 197.652746 
L 146.871559 224.132619 
L 145.191525 214.857263 
L 143.511492 223.758012 
L 141.831458 190.508653 
L 140.151424 201.576452 
L 138.47139 174.66726 
L 136.791356 194.852268 
L 135.111322 194.032952 
L 133.431288 212.900303 
L 131.751254 187.133088 
L 130.07122 181.704416 
L 128.391186 226.136746 
L 126.711153 181.061591 
L 125.031119 218.625035 
L 123.351085 176.652697 
L 121.671051 190.075825 
L 119.991017 208.748644 
L 118.310983 214.281633 
L 116.630949 243.709821 
L 114.950915 242.364446 
L 113.270881 221.284692 
L 111.590847 204.622158 
L 109.910814 204.037611 
L 108.23078 229.103808 
L 106.550746 216.245227 
L 104.870712 240.735266 
L 103.190678 204.991687 
L 101.510644 216.806735 
L 99.83061 218.386697 
L 98.150576 208.486275 
L 96.470542 216.928957 
L 94.790508 213.407584 
z
" style="fill:#0000ff;fill-opacity:0.3;stroke:#0000ff;stroke-opacity:0.3;"/>
    <path clip-path="url(#paa0438790c)" d="M 251.033661 195.606073 
L 251.033661 210.533613 
L 252.713695 198.175837 
L 254.393729 235.282413 
L 256.073763 239.210321 
L 257.753797 202.554408 
L 259.433831 213.252436 
L 261.113864 213.078199 
L 262.793898 195.591436 
L 264.473932 254.061667 
L 266.153966 249.765614 
L 267.834 235.993374 
L 269.514034 240.452414 
L 271.194068 218.441099 
L 272.874102 246.458045 
L 274.554136 237.119204 
L 276.234169 190.110218 
L 277.914203 244.015078 
L 279.594237 236.813961 
L 281.274271 242.816275 
L 282.954305 226.501402 
L 284.634339 222.759 
L 286.314373 205.492401 
L 287.994407 221.685461 
L 289.674441 249.086367 
L 291.354475 244.967963 
L 293.034508 242.647074 
L 294.714542 225.108775 
L 296.394576 190.334445 
L 298.07461 236.864508 
L 299.754644 196.117285 
L 301.434678 211.314474 
L 303.114712 187.40855 
L 304.794746 225.613609 
L 306.47478 206.885729 
L 308.154814 243.90686 
L 309.834847 239.084592 
L 311.514881 238.466437 
L 313.194915 234.341309 
L 314.874949 230.047224 
L 316.554983 226.783809 
L 318.235017 241.710093 
L 319.915051 229.014102 
L 321.595085 228.066175 
L 323.275119 218.692444 
L 324.955153 212.406658 
L 326.635186 231.065538 
L 328.31522 214.621944 
L 329.995254 203.514394 
L 331.675288 233.347293 
L 333.355322 237.818297 
L 335.035356 220.086768 
L 336.71539 230.100173 
L 338.395424 244.505695 
L 340.075458 242.471471 
L 341.755492 239.900518 
L 343.435525 227.64959 
L 345.115559 215.63625 
L 346.795593 222.062278 
L 348.475627 246.227562 
L 350.155661 243.218182 
L 351.835695 223.367826 
L 353.515729 220.058957 
L 355.195763 224.162571 
L 356.875797 244.616298 
L 358.555831 241.710093 
L 360.235864 228.849834 
L 361.915898 222.248566 
L 363.595932 227.430333 
L 365.275966 241.710093 
L 366.956 190.885232 
L 368.636034 237.098644 
L 370.316068 207.598341 
L 371.996102 201.523686 
L 373.676136 230.967384 
L 375.356169 241.262809 
L 377.036203 245.706982 
L 378.716237 236.197373 
L 380.396271 246.057425 
L 382.076305 242.509009 
L 383.756339 184.420739 
L 385.436373 208.1838 
L 387.116407 209.163114 
L 388.796441 181.543757 
L 390.476475 188.754668 
L 392.156508 242.214647 
L 393.836542 204.100436 
L 395.516576 207.14097 
L 397.19661 224.463485 
L 398.876644 219.886264 
L 400.556678 206.284463 
L 402.236712 205.616344 
L 403.916746 231.596765 
L 405.59678 194.047368 
L 407.276814 182.259225 
L 408.956847 237.731506 
L 410.636881 222.527972 
L 412.316915 234.272307 
L 413.996949 195.540263 
L 415.676983 204.037763 
L 417.357017 217.130352 
L 419.037051 224.973596 
L 420.717085 206.011197 
L 422.397119 231.543603 
L 424.077153 239.422755 
L 425.757186 211.865088 
L 427.43722 219.17588 
L 429.117254 242.39729 
L 430.797288 238.463088 
L 432.477322 244.419357 
L 434.157356 245.501423 
L 435.83739 228.032958 
L 437.517424 231.722156 
L 439.197458 238.86843 
L 440.877492 212.590429 
L 442.557525 247.611979 
L 444.237559 222.948072 
L 445.917593 245.632125 
L 447.597627 232.921709 
L 449.277661 241.710093 
L 450.957695 243.997768 
L 452.637729 229.132218 
L 454.317763 225.720152 
L 455.997797 218.223475 
L 457.677831 217.912294 
L 459.357864 192.98007 
L 461.037898 223.826444 
L 462.717932 222.843123 
L 464.397966 241.710093 
L 466.078 236.97983 
L 467.758034 225.821438 
L 469.438068 234.475956 
L 471.118102 224.300205 
L 472.798136 193.634648 
L 474.478169 176.637842 
L 476.158203 178.358822 
L 477.838237 181.805983 
L 479.518271 181.669953 
L 481.198305 179.251087 
L 482.878339 186.066091 
L 484.558373 182.813709 
L 486.238407 177.900959 
L 487.918441 181.700215 
L 489.598475 181.859488 
L 491.278508 188.686837 
L 492.958542 184.715105 
L 494.638576 192.907189 
L 496.31861 178.36768 
L 497.998644 177.109879 
L 499.678678 181.064428 
L 501.358712 185.589442 
L 503.038746 186.379579 
L 504.71878 200.408798 
L 506.398814 193.450631 
L 508.078847 183.954022 
L 509.758881 192.786125 
L 511.438915 192.493897 
L 513.118949 183.420552 
L 514.798983 184.58345 
L 516.479017 183.538967 
L 518.159051 186.06729 
L 519.839085 197.558719 
L 521.519119 204.277208 
L 523.199153 205.236006 
L 524.879186 192.949994 
L 526.55922 202.774581 
L 528.239254 219.286819 
L 529.919288 210.545902 
L 531.599322 224.837264 
L 533.279356 198.801196 
L 534.95939 235.033832 
L 536.639424 198.665381 
L 538.319458 216.604997 
L 539.999492 207.376913 
L 541.679525 216.370036 
L 543.359559 214.766157 
L 545.039593 226.172578 
L 546.719627 197.602836 
L 548.399661 239.904249 
L 550.079695 238.199265 
L 551.759729 232.481139 
L 553.439763 236.231082 
L 555.119797 245.010933 
L 556.799831 226.01127 
L 558.479864 256.844062 
L 560.159898 241.710093 
L 561.839932 242.143401 
L 563.519966 240.646723 
L 565.2 241.710093 
L 565.2 241.710093 
L 565.2 241.710093 
L 563.519966 188.562862 
L 561.839932 236.779535 
L 560.159898 241.710093 
L 558.479864 247.156134 
L 556.799831 168.811471 
L 555.119797 212.189239 
L 553.439763 213.43144 
L 551.759729 202.012576 
L 550.079695 217.318811 
L 548.399661 228.397931 
L 546.719627 164.324861 
L 545.039593 213.637111 
L 543.359559 191.027587 
L 541.679525 197.689833 
L 539.999492 182.081805 
L 538.319458 188.69524 
L 536.639424 187.648742 
L 534.95939 218.719321 
L 533.279356 187.893732 
L 531.599322 211.089009 
L 529.919288 198.721226 
L 528.239254 205.032455 
L 526.55922 189.907113 
L 524.879186 176.758121 
L 523.199153 193.066914 
L 521.519119 169.796589 
L 519.839085 181.544908 
L 518.159051 180.426807 
L 516.479017 177 
L 514.798983 178.010925 
L 513.118949 178.658564 
L 511.438915 186.186722 
L 509.758881 184.638454 
L 508.078847 178.955425 
L 506.398814 184.968126 
L 504.71878 190.934828 
L 503.038746 182.548409 
L 501.358712 181.196942 
L 499.678678 172.746222 
L 497.998644 174.144429 
L 496.31861 176.350244 
L 494.638576 183.060313 
L 492.958542 176.151489 
L 491.278508 180.744638 
L 489.598475 178.155355 
L 487.918441 177.697861 
L 486.238407 175.226299 
L 484.558373 179.417752 
L 482.878339 179.20635 
L 481.198305 176.266356 
L 479.518271 177.003048 
L 477.838237 179.1548 
L 476.158203 176.281612 
L 474.478169 175.122127 
L 472.798136 188.024559 
L 471.118102 212.282656 
L 469.438068 215.636423 
L 467.758034 217.991914 
L 466.078 221.641289 
L 464.397966 241.710093 
L 462.717932 210.474692 
L 461.037898 208.140934 
L 459.357864 180.278591 
L 457.677831 194.002528 
L 455.997797 207.739681 
L 454.317763 213.099847 
L 452.637729 221.043302 
L 450.957695 237.104108 
L 449.277661 241.710093 
L 447.597627 215.437058 
L 445.917593 215.107326 
L 444.237559 183.711899 
L 442.557525 241.191433 
L 440.877492 196.473876 
L 439.197458 224.486317 
L 437.517424 214.82191 
L 435.83739 208.499078 
L 434.157356 88.839713 
L 432.477322 233.320895 
L 430.797288 228.215965 
L 429.117254 241.712463 
L 427.43722 208.953211 
L 425.757186 185.959491 
L 424.077153 224.766482 
L 422.397119 197.782529 
L 420.717085 193.348554 
L 419.037051 208.130365 
L 417.357017 192.84969 
L 415.676983 192.65685 
L 413.996949 184.142434 
L 412.316915 210.333848 
L 410.636881 203.731969 
L 408.956847 223.997839 
L 407.276814 178.320344 
L 405.59678 186.685034 
L 403.916746 214.838327 
L 402.236712 193.765318 
L 400.556678 188.48723 
L 398.876644 199.613011 
L 397.19661 203.998344 
L 395.516576 191.306193 
L 393.836542 186.789581 
L 392.156508 241.715242 
L 390.476475 181.876143 
L 388.796441 176.586641 
L 387.116407 197.341576 
L 385.436373 192.520799 
L 383.756339 181.146141 
L 382.076305 220.999054 
L 380.396271 222.022576 
L 378.716237 220.964837 
L 377.036203 210.672784 
L 375.356169 217.565019 
L 373.676136 198.954476 
L 371.996102 187.94024 
L 370.316068 198.211452 
L 368.636034 219.186799 
L 366.956 177.978899 
L 365.275966 241.710093 
L 363.595932 211.113709 
L 361.915898 210.201735 
L 360.235864 199.603749 
L 358.555831 241.710093 
L 356.875797 226.696598 
L 355.195763 207.544395 
L 353.515729 205.596263 
L 351.835695 210.833795 
L 350.155661 229.63524 
L 348.475627 243.396698 
L 346.795593 199.504853 
L 345.115559 189.448227 
L 343.435525 214.210798 
L 341.755492 231.807229 
L 340.075458 241.820956 
L 338.395424 221.141499 
L 336.71539 216.563923 
L 335.035356 200.800403 
L 333.355322 226.575835 
L 331.675288 201.553971 
L 329.995254 189.089442 
L 328.31522 206.184481 
L 326.635186 217.407106 
L 324.955153 199.655398 
L 323.275119 204.880611 
L 321.595085 217.256018 
L 319.915051 209.834117 
L 318.235017 241.710093 
L 316.554983 136.652376 
L 314.874949 181.481205 
L 313.194915 186.907902 
L 311.514881 208.446916 
L 309.834847 229.259132 
L 308.154814 210.903453 
L 306.47478 26.88 
L 304.794746 201.755157 
L 303.114712 181.804158 
L 301.434678 197.850119 
L 299.754644 184.130366 
L 298.07461 224.381229 
L 296.394576 183.503496 
L 294.714542 206.5937 
L 293.034508 241.737675 
L 291.354475 236.587804 
L 289.674441 239.991159 
L 287.994407 208.145286 
L 286.314373 192.351315 
L 284.634339 202.379849 
L 282.954305 212.965152 
L 281.274271 231.939222 
L 279.594237 218.57627 
L 277.914203 238.487768 
L 276.234169 181.426575 
L 274.554136 224.696163 
L 272.874102 228.777731 
L 271.194068 200.449775 
L 269.514034 225.347002 
L 267.834 218.95341 
L 266.153966 243.795274 
L 264.473932 229.24458 
L 262.793898 184.489288 
L 261.113864 201.93595 
L 259.433831 188.079933 
L 257.753797 187.525297 
L 256.073763 201.766027 
L 254.393729 216.364546 
L 252.713695 190.220843 
L 251.033661 195.606073 
z
" style="fill:#0000ff;fill-opacity:0.3;stroke:#0000ff;stroke-opacity:0.3;"/>
   </g>
   <g id="matplotlib.axis_1">
    <g id="xtick_1">
     <g id="line2d_1">
      <defs>
       <path d="M 0 0 
L 0 3.5 
" id="mdbf581ba55" style="stroke:#000000;stroke-width:0.8;"/>
      </defs>
      <g>
       <use style="stroke:#000000;stroke-width:0.8;" x="150.147625" xlink:href="#mdbf581ba55" y="174.76"/>
      </g>
     </g>
     <g id="text_1">
      <!-- 0.0 -->
      <defs>
       <path d="M 31.78125 66.40625 
Q 24.171875 66.40625 20.328125 58.90625 
Q 16.5 51.421875 16.5 36.375 
Q 16.5 21.390625 20.328125 13.890625 
Q 24.171875 6.390625 31.78125 6.390625 
Q 39.453125 6.390625 43.28125 13.890625 
Q 47.125 21.390625 47.125 36.375 
Q 47.125 51.421875 43.28125 58.90625 
Q 39.453125 66.40625 31.78125 66.40625 
z
M 31.78125 74.21875 
Q 44.046875 74.21875 50.515625 64.515625 
Q 56.984375 54.828125 56.984375 36.375 
Q 56.984375 17.96875 50.515625 8.265625 
Q 44.046875 -1.421875 31.78125 -1.421875 
Q 19.53125 -1.421875 13.0625 8.265625 
Q 6.59375 17.96875 6.59375 36.375 
Q 6.59375 54.828125 13.0625 64.515625 
Q 19.53125 74.21875 31.78125 74.21875 
z
" id="DejaVuSans-48"/>
       <path d="M 10.6875 12.40625 
L 21 12.40625 
L 21 0 
L 10.6875 0 
z
" id="DejaVuSans-46"/>
      </defs>
      <g transform="translate(140.60575 190.878125)scale(0.12 -0.12)">
       <use xlink:href="#DejaVuSans-48"/>
       <use x="63.623047" xlink:href="#DejaVuSans-46"/>
       <use x="95.410156" xlink:href="#DejaVuSans-48"/>
      </g>
     </g>
    </g>
    <g id="xtick_2">
     <g id="line2d_2">
      <g>
       <use style="stroke:#000000;stroke-width:0.8;" x="234.14932" xlink:href="#mdbf581ba55" y="174.76"/>
      </g>
     </g>
     <g id="text_2">
      <!-- 0.5 -->
      <defs>
       <path d="M 10.796875 72.90625 
L 49.515625 72.90625 
L 49.515625 64.59375 
L 19.828125 64.59375 
L 19.828125 46.734375 
Q 21.96875 47.46875 24.109375 47.828125 
Q 26.265625 48.1875 28.421875 48.1875 
Q 40.625 48.1875 47.75 41.5 
Q 54.890625 34.8125 54.890625 23.390625 
Q 54.890625 11.625 47.5625 5.09375 
Q 40.234375 -1.421875 26.90625 -1.421875 
Q 22.3125 -1.421875 17.546875 -0.640625 
Q 12.796875 0.140625 7.71875 1.703125 
L 7.71875 11.625 
Q 12.109375 9.234375 16.796875 8.0625 
Q 21.484375 6.890625 26.703125 6.890625 
Q 35.15625 6.890625 40.078125 11.328125 
Q 45.015625 15.765625 45.015625 23.390625 
Q 45.015625 31 40.078125 35.4375 
Q 35.15625 39.890625 26.703125 39.890625 
Q 22.75 39.890625 18.8125 39.015625 
Q 14.890625 38.140625 10.796875 36.28125 
z
" id="DejaVuSans-53"/>
      </defs>
      <g transform="translate(224.607445 190.878125)scale(0.12 -0.12)">
       <use xlink:href="#DejaVuSans-48"/>
       <use x="63.623047" xlink:href="#DejaVuSans-46"/>
       <use x="95.410156" xlink:href="#DejaVuSans-53"/>
      </g>
     </g>
    </g>
    <g id="xtick_3">
     <g id="line2d_3">
      <g>
       <use style="stroke:#000000;stroke-width:0.8;" x="318.151015" xlink:href="#mdbf581ba55" y="174.76"/>
      </g>
     </g>
     <g id="text_3">
      <!-- 1.0 -->
      <defs>
       <path d="M 12.40625 8.296875 
L 28.515625 8.296875 
L 28.515625 63.921875 
L 10.984375 60.40625 
L 10.984375 69.390625 
L 28.421875 72.90625 
L 38.28125 72.90625 
L 38.28125 8.296875 
L 54.390625 8.296875 
L 54.390625 0 
L 12.40625 0 
z
" id="DejaVuSans-49"/>
      </defs>
      <g transform="translate(308.60914 190.878125)scale(0.12 -0.12)">
       <use xlink:href="#DejaVuSans-49"/>
       <use x="63.623047" xlink:href="#DejaVuSans-46"/>
       <use x="95.410156" xlink:href="#DejaVuSans-48"/>
      </g>
     </g>
    </g>
    <g id="xtick_4">
     <g id="line2d_4">
      <g>
       <use style="stroke:#000000;stroke-width:0.8;" x="402.15271" xlink:href="#mdbf581ba55" y="174.76"/>
      </g>
     </g>
     <g id="text_4">
      <!-- 1.5 -->
      <g transform="translate(392.610835 190.878125)scale(0.12 -0.12)">
       <use xlink:href="#DejaVuSans-49"/>
       <use x="63.623047" xlink:href="#DejaVuSans-46"/>
       <use x="95.410156" xlink:href="#DejaVuSans-53"/>
      </g>
     </g>
    </g>
    <g id="xtick_5">
     <g id="line2d_5">
      <g>
       <use style="stroke:#000000;stroke-width:0.8;" x="486.154405" xlink:href="#mdbf581ba55" y="174.76"/>
      </g>
     </g>
     <g id="text_5">
      <!-- 2.0 -->
      <defs>
       <path d="M 19.1875 8.296875 
L 53.609375 8.296875 
L 53.609375 0 
L 7.328125 0 
L 7.328125 8.296875 
Q 12.9375 14.109375 22.625 23.890625 
Q 32.328125 33.6875 34.8125 36.53125 
Q 39.546875 41.84375 41.421875 45.53125 
Q 43.3125 49.21875 43.3125 52.78125 
Q 43.3125 58.59375 39.234375 62.25 
Q 35.15625 65.921875 28.609375 65.921875 
Q 23.96875 65.921875 18.8125 64.3125 
Q 13.671875 62.703125 7.8125 59.421875 
L 7.8125 69.390625 
Q 13.765625 71.78125 18.9375 73 
Q 24.125 74.21875 28.421875 74.21875 
Q 39.75 74.21875 46.484375 68.546875 
Q 53.21875 62.890625 53.21875 53.421875 
Q 53.21875 48.921875 51.53125 44.890625 
Q 49.859375 40.875 45.40625 35.40625 
Q 44.1875 33.984375 37.640625 27.21875 
Q 31.109375 20.453125 19.1875 8.296875 
z
" id="DejaVuSans-50"/>
      </defs>
      <g transform="translate(476.61253 190.878125)scale(0.12 -0.12)">
       <use xlink:href="#DejaVuSans-50"/>
       <use x="63.623047" xlink:href="#DejaVuSans-46"/>
       <use x="95.410156" xlink:href="#DejaVuSans-48"/>
      </g>
     </g>
    </g>
    <g id="text_6">
     <!-- Time (s) -->
     <defs>
      <path d="M -0.296875 72.90625 
L 61.375 72.90625 
L 61.375 64.59375 
L 35.5 64.59375 
L 35.5 0 
L 25.59375 0 
L 25.59375 64.59375 
L -0.296875 64.59375 
z
" id="DejaVuSans-84"/>
      <path d="M 9.421875 54.6875 
L 18.40625 54.6875 
L 18.40625 0 
L 9.421875 0 
z
M 9.421875 75.984375 
L 18.40625 75.984375 
L 18.40625 64.59375 
L 9.421875 64.59375 
z
" id="DejaVuSans-105"/>
      <path d="M 52 44.1875 
Q 55.375 50.25 60.0625 53.125 
Q 64.75 56 71.09375 56 
Q 79.640625 56 84.28125 50.015625 
Q 88.921875 44.046875 88.921875 33.015625 
L 88.921875 0 
L 79.890625 0 
L 79.890625 32.71875 
Q 79.890625 40.578125 77.09375 44.375 
Q 74.3125 48.1875 68.609375 48.1875 
Q 61.625 48.1875 57.5625 43.546875 
Q 53.515625 38.921875 53.515625 30.90625 
L 53.515625 0 
L 44.484375 0 
L 44.484375 32.71875 
Q 44.484375 40.625 41.703125 44.40625 
Q 38.921875 48.1875 33.109375 48.1875 
Q 26.21875 48.1875 22.15625 43.53125 
Q 18.109375 38.875 18.109375 30.90625 
L 18.109375 0 
L 9.078125 0 
L 9.078125 54.6875 
L 18.109375 54.6875 
L 18.109375 46.1875 
Q 21.1875 51.21875 25.484375 53.609375 
Q 29.78125 56 35.6875 56 
Q 41.65625 56 45.828125 52.96875 
Q 50 49.953125 52 44.1875 
z
" id="DejaVuSans-109"/>
      <path d="M 56.203125 29.59375 
L 56.203125 25.203125 
L 14.890625 25.203125 
Q 15.484375 15.921875 20.484375 11.0625 
Q 25.484375 6.203125 34.421875 6.203125 
Q 39.59375 6.203125 44.453125 7.46875 
Q 49.3125 8.734375 54.109375 11.28125 
L 54.109375 2.78125 
Q 49.265625 0.734375 44.1875 -0.34375 
Q 39.109375 -1.421875 33.890625 -1.421875 
Q 20.796875 -1.421875 13.15625 6.1875 
Q 5.515625 13.8125 5.515625 26.8125 
Q 5.515625 40.234375 12.765625 48.109375 
Q 20.015625 56 32.328125 56 
Q 43.359375 56 49.78125 48.890625 
Q 56.203125 41.796875 56.203125 29.59375 
z
M 47.21875 32.234375 
Q 47.125 39.59375 43.09375 43.984375 
Q 39.0625 48.390625 32.421875 48.390625 
Q 24.90625 48.390625 20.390625 44.140625 
Q 15.875 39.890625 15.1875 32.171875 
z
" id="DejaVuSans-101"/>
      <path id="DejaVuSans-32"/>
      <path d="M 31 75.875 
Q 24.46875 64.65625 21.28125 53.65625 
Q 18.109375 42.671875 18.109375 31.390625 
Q 18.109375 20.125 21.3125 9.0625 
Q 24.515625 -2 31 -13.1875 
L 23.1875 -13.1875 
Q 15.875 -1.703125 12.234375 9.375 
Q 8.59375 20.453125 8.59375 31.390625 
Q 8.59375 42.28125 12.203125 53.3125 
Q 15.828125 64.359375 23.1875 75.875 
z
" id="DejaVuSans-40"/>
      <path d="M 44.28125 53.078125 
L 44.28125 44.578125 
Q 40.484375 46.53125 36.375 47.5 
Q 32.28125 48.484375 27.875 48.484375 
Q 21.1875 48.484375 17.84375 46.4375 
Q 14.5 44.390625 14.5 40.28125 
Q 14.5 37.15625 16.890625 35.375 
Q 19.28125 33.59375 26.515625 31.984375 
L 29.59375 31.296875 
Q 39.15625 29.25 43.1875 25.515625 
Q 47.21875 21.78125 47.21875 15.09375 
Q 47.21875 7.46875 41.1875 3.015625 
Q 35.15625 -1.421875 24.609375 -1.421875 
Q 20.21875 -1.421875 15.453125 -0.5625 
Q 10.6875 0.296875 5.421875 2 
L 5.421875 11.28125 
Q 10.40625 8.6875 15.234375 7.390625 
Q 20.0625 6.109375 24.8125 6.109375 
Q 31.15625 6.109375 34.5625 8.28125 
Q 37.984375 10.453125 37.984375 14.40625 
Q 37.984375 18.0625 35.515625 20.015625 
Q 33.0625 21.96875 24.703125 23.78125 
L 21.578125 24.515625 
Q 13.234375 26.265625 9.515625 29.90625 
Q 5.8125 33.546875 5.8125 39.890625 
Q 5.8125 47.609375 11.28125 51.796875 
Q 16.75 56 26.8125 56 
Q 31.78125 56 36.171875 55.265625 
Q 40.578125 54.546875 44.28125 53.078125 
z
" id="DejaVuSans-115"/>
      <path d="M 8.015625 75.875 
L 15.828125 75.875 
Q 23.140625 64.359375 26.78125 53.3125 
Q 30.421875 42.28125 30.421875 31.390625 
Q 30.421875 20.453125 26.78125 9.375 
Q 23.140625 -1.703125 15.828125 -13.1875 
L 8.015625 -13.1875 
Q 14.5 -2 17.703125 9.0625 
Q 20.90625 20.125 20.90625 31.390625 
Q 20.90625 42.671875 17.703125 53.65625 
Q 14.5 64.65625 8.015625 75.875 
z
" id="DejaVuSans-41"/>
     </defs>
     <g transform="translate(287.89975 208.3155)scale(0.144 -0.144)">
      <use xlink:href="#DejaVuSans-84"/>
      <use x="61.037109" xlink:href="#DejaVuSans-105"/>
      <use x="88.820312" xlink:href="#DejaVuSans-109"/>
      <use x="186.232422" xlink:href="#DejaVuSans-101"/>
      <use x="247.755859" xlink:href="#DejaVuSans-32"/>
      <use x="279.542969" xlink:href="#DejaVuSans-40"/>
      <use x="318.556641" xlink:href="#DejaVuSans-115"/>
      <use x="370.65625" xlink:href="#DejaVuSans-41"/>
     </g>
    </g>
   </g>
   <g id="matplotlib.axis_2">
    <g id="ytick_1">
     <g id="line2d_6">
      <defs>
       <path d="M 0 0 
L -3.5 0 
" id="m3545c7ea8c" style="stroke:#000000;stroke-width:0.8;"/>
      </defs>
      <g>
       <use style="stroke:#000000;stroke-width:0.8;" x="69.59" xlink:href="#m3545c7ea8c" y="174.76"/>
      </g>
     </g>
     <g id="text_7">
      <!-- 0.000 -->
      <g transform="translate(28.23625 179.319062)scale(0.12 -0.12)">
       <use xlink:href="#DejaVuSans-48"/>
       <use x="63.623047" xlink:href="#DejaVuSans-46"/>
       <use x="95.410156" xlink:href="#DejaVuSans-48"/>
       <use x="159.033203" xlink:href="#DejaVuSans-48"/>
       <use x="222.65625" xlink:href="#DejaVuSans-48"/>
      </g>
     </g>
    </g>
    <g id="ytick_2">
     <g id="line2d_7">
      <g>
       <use style="stroke:#000000;stroke-width:0.8;" x="69.59" xlink:href="#m3545c7ea8c" y="141.619704"/>
      </g>
     </g>
     <g id="text_8">
      <!-- 0.005 -->
      <g transform="translate(28.23625 146.178766)scale(0.12 -0.12)">
       <use xlink:href="#DejaVuSans-48"/>
       <use x="63.623047" xlink:href="#DejaVuSans-46"/>
       <use x="95.410156" xlink:href="#DejaVuSans-48"/>
       <use x="159.033203" xlink:href="#DejaVuSans-48"/>
       <use x="222.65625" xlink:href="#DejaVuSans-53"/>
      </g>
     </g>
    </g>
    <g id="ytick_3">
     <g id="line2d_8">
      <g>
       <use style="stroke:#000000;stroke-width:0.8;" x="69.59" xlink:href="#m3545c7ea8c" y="108.479408"/>
      </g>
     </g>
     <g id="text_9">
      <!-- 0.010 -->
      <g transform="translate(28.23625 113.03847)scale(0.12 -0.12)">
       <use xlink:href="#DejaVuSans-48"/>
       <use x="63.623047" xlink:href="#DejaVuSans-46"/>
       <use x="95.410156" xlink:href="#DejaVuSans-48"/>
       <use x="159.033203" xlink:href="#DejaVuSans-49"/>
       <use x="222.65625" xlink:href="#DejaVuSans-48"/>
      </g>
     </g>
    </g>
    <g id="ytick_4">
     <g id="line2d_9">
      <g>
       <use style="stroke:#000000;stroke-width:0.8;" x="69.59" xlink:href="#m3545c7ea8c" y="75.339112"/>
      </g>
     </g>
     <g id="text_10">
      <!-- 0.015 -->
      <g transform="translate(28.23625 79.898174)scale(0.12 -0.12)">
       <use xlink:href="#DejaVuSans-48"/>
       <use x="63.623047" xlink:href="#DejaVuSans-46"/>
       <use x="95.410156" xlink:href="#DejaVuSans-48"/>
       <use x="159.033203" xlink:href="#DejaVuSans-49"/>
       <use x="222.65625" xlink:href="#DejaVuSans-53"/>
      </g>
     </g>
    </g>
    <g id="ytick_5">
     <g id="line2d_10">
      <g>
       <use style="stroke:#000000;stroke-width:0.8;" x="69.59" xlink:href="#m3545c7ea8c" y="42.198816"/>
      </g>
     </g>
     <g id="text_11">
      <!-- 0.020 -->
      <g transform="translate(28.23625 46.757878)scale(0.12 -0.12)">
       <use xlink:href="#DejaVuSans-48"/>
       <use x="63.623047" xlink:href="#DejaVuSans-46"/>
       <use x="95.410156" xlink:href="#DejaVuSans-48"/>
       <use x="159.033203" xlink:href="#DejaVuSans-50"/>
       <use x="222.65625" xlink:href="#DejaVuSans-48"/>
      </g>
     </g>
    </g>
    <g id="text_12">
     <!-- Avg. Corr. Coef. -->
     <defs>
      <path d="M 34.1875 63.1875 
L 20.796875 26.90625 
L 47.609375 26.90625 
z
M 28.609375 72.90625 
L 39.796875 72.90625 
L 67.578125 0 
L 57.328125 0 
L 50.6875 18.703125 
L 17.828125 18.703125 
L 11.1875 0 
L 0.78125 0 
z
" id="DejaVuSans-65"/>
      <path d="M 2.984375 54.6875 
L 12.5 54.6875 
L 29.59375 8.796875 
L 46.6875 54.6875 
L 56.203125 54.6875 
L 35.6875 0 
L 23.484375 0 
z
" id="DejaVuSans-118"/>
      <path d="M 45.40625 27.984375 
Q 45.40625 37.75 41.375 43.109375 
Q 37.359375 48.484375 30.078125 48.484375 
Q 22.859375 48.484375 18.828125 43.109375 
Q 14.796875 37.75 14.796875 27.984375 
Q 14.796875 18.265625 18.828125 12.890625 
Q 22.859375 7.515625 30.078125 7.515625 
Q 37.359375 7.515625 41.375 12.890625 
Q 45.40625 18.265625 45.40625 27.984375 
z
M 54.390625 6.78125 
Q 54.390625 -7.171875 48.1875 -13.984375 
Q 42 -20.796875 29.203125 -20.796875 
Q 24.46875 -20.796875 20.265625 -20.09375 
Q 16.0625 -19.390625 12.109375 -17.921875 
L 12.109375 -9.1875 
Q 16.0625 -11.328125 19.921875 -12.34375 
Q 23.78125 -13.375 27.78125 -13.375 
Q 36.625 -13.375 41.015625 -8.765625 
Q 45.40625 -4.15625 45.40625 5.171875 
L 45.40625 9.625 
Q 42.625 4.78125 38.28125 2.390625 
Q 33.9375 0 27.875 0 
Q 17.828125 0 11.671875 7.65625 
Q 5.515625 15.328125 5.515625 27.984375 
Q 5.515625 40.671875 11.671875 48.328125 
Q 17.828125 56 27.875 56 
Q 33.9375 56 38.28125 53.609375 
Q 42.625 51.21875 45.40625 46.390625 
L 45.40625 54.6875 
L 54.390625 54.6875 
z
" id="DejaVuSans-103"/>
      <path d="M 64.40625 67.28125 
L 64.40625 56.890625 
Q 59.421875 61.53125 53.78125 63.8125 
Q 48.140625 66.109375 41.796875 66.109375 
Q 29.296875 66.109375 22.65625 58.46875 
Q 16.015625 50.828125 16.015625 36.375 
Q 16.015625 21.96875 22.65625 14.328125 
Q 29.296875 6.6875 41.796875 6.6875 
Q 48.140625 6.6875 53.78125 8.984375 
Q 59.421875 11.28125 64.40625 15.921875 
L 64.40625 5.609375 
Q 59.234375 2.09375 53.4375 0.328125 
Q 47.65625 -1.421875 41.21875 -1.421875 
Q 24.65625 -1.421875 15.125 8.703125 
Q 5.609375 18.84375 5.609375 36.375 
Q 5.609375 53.953125 15.125 64.078125 
Q 24.65625 74.21875 41.21875 74.21875 
Q 47.75 74.21875 53.53125 72.484375 
Q 59.328125 70.75 64.40625 67.28125 
z
" id="DejaVuSans-67"/>
      <path d="M 30.609375 48.390625 
Q 23.390625 48.390625 19.1875 42.75 
Q 14.984375 37.109375 14.984375 27.296875 
Q 14.984375 17.484375 19.15625 11.84375 
Q 23.34375 6.203125 30.609375 6.203125 
Q 37.796875 6.203125 41.984375 11.859375 
Q 46.1875 17.53125 46.1875 27.296875 
Q 46.1875 37.015625 41.984375 42.703125 
Q 37.796875 48.390625 30.609375 48.390625 
z
M 30.609375 56 
Q 42.328125 56 49.015625 48.375 
Q 55.71875 40.765625 55.71875 27.296875 
Q 55.71875 13.875 49.015625 6.21875 
Q 42.328125 -1.421875 30.609375 -1.421875 
Q 18.84375 -1.421875 12.171875 6.21875 
Q 5.515625 13.875 5.515625 27.296875 
Q 5.515625 40.765625 12.171875 48.375 
Q 18.84375 56 30.609375 56 
z
" id="DejaVuSans-111"/>
      <path d="M 41.109375 46.296875 
Q 39.59375 47.171875 37.8125 47.578125 
Q 36.03125 48 33.890625 48 
Q 26.265625 48 22.1875 43.046875 
Q 18.109375 38.09375 18.109375 28.8125 
L 18.109375 0 
L 9.078125 0 
L 9.078125 54.6875 
L 18.109375 54.6875 
L 18.109375 46.1875 
Q 20.953125 51.171875 25.484375 53.578125 
Q 30.03125 56 36.53125 56 
Q 37.453125 56 38.578125 55.875 
Q 39.703125 55.765625 41.0625 55.515625 
z
" id="DejaVuSans-114"/>
      <path d="M 37.109375 75.984375 
L 37.109375 68.5 
L 28.515625 68.5 
Q 23.6875 68.5 21.796875 66.546875 
Q 19.921875 64.59375 19.921875 59.515625 
L 19.921875 54.6875 
L 34.71875 54.6875 
L 34.71875 47.703125 
L 19.921875 47.703125 
L 19.921875 0 
L 10.890625 0 
L 10.890625 47.703125 
L 2.296875 47.703125 
L 2.296875 54.6875 
L 10.890625 54.6875 
L 10.890625 58.5 
Q 10.890625 67.625 15.140625 71.796875 
Q 19.390625 75.984375 28.609375 75.984375 
z
" id="DejaVuSans-102"/>
     </defs>
     <g transform="translate(21.2415 157.745)rotate(-90)scale(0.144 -0.144)">
      <use xlink:href="#DejaVuSans-65"/>
      <use x="68.330078" xlink:href="#DejaVuSans-118"/>
      <use x="127.509766" xlink:href="#DejaVuSans-103"/>
      <use x="190.986328" xlink:href="#DejaVuSans-46"/>
      <use x="222.773438" xlink:href="#DejaVuSans-32"/>
      <use x="254.560547" xlink:href="#DejaVuSans-67"/>
      <use x="324.384766" xlink:href="#DejaVuSans-111"/>
      <use x="385.566406" xlink:href="#DejaVuSans-114"/>
      <use x="426.664062" xlink:href="#DejaVuSans-114"/>
      <use x="467.636719" xlink:href="#DejaVuSans-46"/>
      <use x="499.423828" xlink:href="#DejaVuSans-32"/>
      <use x="531.210938" xlink:href="#DejaVuSans-67"/>
      <use x="601.035156" xlink:href="#DejaVuSans-111"/>
      <use x="662.216797" xlink:href="#DejaVuSans-101"/>
      <use x="723.740234" xlink:href="#DejaVuSans-102"/>
      <use x="758.835938" xlink:href="#DejaVuSans-46"/>
     </g>
    </g>
   </g>
   <g id="line2d_11">
    <path clip-path="url(#paa0438790c)" d="M 73.565826 224.2 
L 74.630102 193.935575 
L 76.7666 224.2 
M 83.675045 224.2 
L 84.710305 196.08552 
L 86.390339 220.718081 
L 86.952458 224.2 
M 89.127836 224.2 
L 89.750407 220.123166 
L 91.430441 219.388672 
M 94.790508 219.444253 
L 96.458503 224.2 
M 101.739804 224.2 
L 103.190678 212.128497 
L 103.811139 224.2 
M 106.345611 224.2 
L 106.550746 221.33282 
L 106.88239 224.2 
M 108.993043 224.2 
L 109.910814 210.164531 
L 111.590847 214.338853 
L 112.551523 224.2 
M 118.835271 224.2 
L 119.991017 217.587601 
L 123.351085 177.87724 
L 124.943207 224.2 
M 125.170749 224.2 
L 126.711153 195.982501 
L 127.962073 224.2 
M 128.753702 224.2 
L 130.07122 189.020455 
L 131.751254 197.978393 
L 133.431288 220.372183 
L 135.111322 201.484967 
L 136.791356 202.434025 
L 138.47139 178.70829 
L 140.151424 208.013561 
L 141.831458 195.134291 
L 143.173888 224.2 
M 144.568662 224.2 
L 145.191525 219.893309 
L 145.761426 224.2 
M 147.656702 224.2 
L 148.551593 214.638159 
L 150.231627 212.724121 
L 150.968644 224.2 
M 154.537618 224.2 
L 155.271729 210.610782 
L 158.631797 192.141932 
L 160.311831 222.877454 
L 161.991864 204.482989 
L 163.671898 201.796456 
L 165.351932 203.802227 
L 166.58451 224.2 
M 168.274973 224.2 
L 168.712 221.596522 
L 168.926365 224.2 
M 171.465895 224.2 
L 172.072068 214.151908 
L 173.752102 219.368092 
L 174.093155 224.2 
M 177.421195 224.2 
L 178.792203 207.662438 
L 180.025368 224.2 
M 185.801132 224.2 
L 187.192373 205.360452 
L 188.872407 188.573203 
L 190.552441 192.167991 
L 192.232475 196.604385 
L 193.912508 184.160338 
L 195.592542 218.497209 
L 197.272576 209.728933 
L 198.95261 217.367178 
L 199.42418 224.2 
M 202.492596 224.2 
L 203.992712 204.282108 
L 205.672746 207.699992 
L 207.35278 209.585022 
L 209.032814 201.351697 
L 209.903439 224.2 
M 212.051412 224.2 
L 212.392881 218.781201 
L 212.709349 224.2 
M 214.756105 224.2 
L 215.752949 190.132767 
L 216.862625 224.2 
M 221.487409 224.2 
L 222.473085 211.326951 
L 224.153119 181.302786 
L 225.833153 214.924852 
L 227.513186 219.751756 
L 229.19322 220.545461 
L 230.873254 184.647754 
L 232.553288 219.917169 
L 234.233322 200.747437 
L 235.913356 205.551491 
L 237.59339 204.907234 
L 239.146271 224.2 
M 239.344822 224.2 
L 240.953458 188.608065 
L 242.633492 207.329682 
L 244.313525 212.941247 
L 245.492388 224.2 
M 246.143134 224.2 
L 247.673593 175.224574 
M 251.033661 203.069843 
L 252.713695 194.19834 
L 254.307484 224.2 
M 254.904946 224.2 
L 256.073763 220.488174 
L 257.753797 195.039853 
L 259.433831 200.666184 
L 261.113864 207.507074 
L 262.793898 190.040362 
L 263.90582 224.2 
M 270.137196 224.2 
L 271.194068 209.445437 
L 272.07394 224.2 
M 274.803788 224.2 
L 276.234169 185.768396 
L 277.397884 224.2 
M 282.529002 224.2 
L 282.954305 219.733277 
L 284.634339 212.569425 
L 286.314373 198.921858 
L 287.994407 214.915374 
L 288.520967 224.2 
M 294.18206 224.2 
L 294.714542 215.851238 
L 296.394576 186.91897 
L 297.827707 224.2 
M 298.341052 224.2 
L 299.754644 190.123825 
L 301.434678 204.582296 
L 303.114712 184.606354 
L 304.794746 213.684383 
L 306.47478 116.882865 
L 308.106092 224.2 
M 311.398336 224.2 
L 311.514881 223.456676 
L 313.194915 210.624605 
L 314.874949 205.764215 
L 316.554983 181.718092 
L 317.744659 224.2 
M 319.555019 224.2 
L 319.915051 219.42411 
L 321.595085 222.661097 
L 323.275119 211.786528 
L 324.955153 206.031028 
L 326.631835 224.2 
M 326.639598 224.2 
L 329.995254 196.301918 
L 331.675288 217.450632 
L 332.444231 224.2 
M 333.97294 224.2 
L 335.035356 210.443585 
L 336.86902 224.2 
M 343.067427 224.2 
L 343.435525 220.930194 
L 345.115559 202.542239 
L 346.795593 210.783566 
L 347.45798 224.2 
M 351.21855 224.2 
L 351.835695 217.10081 
L 353.515729 212.82761 
L 355.195763 215.853483 
L 355.90386 224.2 
M 359.62621 224.2 
L 360.235864 214.226791 
L 361.915898 216.22515 
L 363.595932 219.272021 
L 363.964911 224.2 
M 365.789558 224.2 
L 366.956 184.432066 
L 368.484494 224.2 
M 368.898493 224.2 
L 370.316068 202.904896 
L 371.996102 194.731963 
L 373.676136 214.96093 
L 374.750097 224.2 
M 382.335461 224.2 
L 383.756339 182.78344 
L 385.436373 200.352299 
L 387.116407 203.252345 
L 388.796441 179.065199 
L 390.476475 185.315406 
L 391.62966 224.2 
M 392.798077 224.2 
L 393.836542 195.445009 
L 395.516576 199.223581 
L 397.19661 214.230915 
L 398.876644 209.749638 
L 400.556678 197.385846 
L 402.236712 199.690831 
L 403.916746 223.217546 
L 405.59678 190.366201 
L 407.276814 180.289785 
L 408.735455 224.2 
M 409.588201 224.2 
L 410.636881 213.12997 
L 412.316915 222.303077 
L 413.996949 189.841348 
L 415.676983 198.347306 
L 417.357017 204.990021 
L 419.037051 216.55198 
L 420.717085 199.679875 
L 422.397119 214.663066 
L 423.316278 224.2 
M 424.47686 224.2 
L 425.757186 198.91229 
L 427.43722 214.064545 
L 428.04557 224.2 
M 432.821066 224.2 
L 434.157356 167.170568 
L 435.83739 218.266018 
L 437.517424 223.272033 
L 437.702903 224.2 
M 439.660237 224.2 
L 440.877492 204.532153 
L 441.706261 224.2 
M 443.383874 224.2 
L 444.237559 203.329986 
L 445.534256 224.2 
M 447.592032 224.2 
L 447.597627 224.179384 
L 447.599603 224.2 
M 452.900415 224.2 
L 454.317763 219.409999 
L 455.997797 212.981578 
L 457.677831 205.957411 
L 459.357864 186.62933 
L 461.037898 215.983689 
L 462.717932 216.658907 
L 463.223668 224.2 
M 467.23765 224.2 
L 467.758034 221.906676 
L 468.981354 224.2 
M 469.650703 224.2 
L 471.118102 218.29143 
L 472.798136 190.829604 
L 474.478169 175.879984 
L 476.158203 177.320217 
L 477.838237 180.480392 
L 479.518271 179.336501 
L 481.198305 177.758722 
L 482.878339 182.636221 
L 484.558373 181.115731 
L 486.238407 176.563629 
L 487.918441 179.699038 
L 489.598475 180.007422 
L 491.278508 184.715737 
L 492.958542 180.433297 
L 494.638576 187.983751 
L 496.31861 177.358962 
L 497.998644 175.627154 
L 499.678678 176.905325 
L 501.358712 183.393192 
L 503.038746 184.463994 
L 504.71878 195.671813 
L 506.398814 189.209379 
L 508.078847 181.454723 
L 509.758881 188.71229 
L 511.438915 189.340309 
L 513.118949 181.039558 
L 514.798983 181.297188 
L 516.479017 180.269484 
L 518.159051 183.247048 
L 519.839085 189.551813 
L 521.519119 187.036899 
L 523.199153 199.15146 
L 524.879186 184.854057 
L 526.55922 196.340847 
L 528.239254 212.159637 
L 529.919288 204.633564 
L 531.599322 217.963136 
L 533.279356 193.347464 
L 534.825275 224.2 
M 535.092747 224.2 
L 536.639424 193.157061 
L 538.319458 202.650118 
L 539.999492 194.729359 
L 541.679525 207.029935 
L 543.359559 202.896872 
L 545.039593 219.904844 
L 546.719627 180.963848 
L 548.085334 224.2 
M 550.648493 224.2 
L 551.759729 217.246858 
L 553.299931 224.2 
M 555.356815 224.2 
L 556.799831 197.41137 
L 557.624283 224.2 
M 562.871437 224.2 
L 563.519966 214.604792 
L 564.114694 224.2 
L 564.114694 224.2 
" style="fill:none;stroke:#0000ff;stroke-linecap:square;stroke-width:1.5;"/>
   </g>
   <g id="patch_3">
    <path d="M 69.59 174.76 
L 69.59 26.88 
" style="fill:none;stroke:#000000;stroke-linecap:square;stroke-linejoin:miter;stroke-width:0.8;"/>
   </g>
   <g id="patch_4">
    <path d="M 565.2 174.76 
L 565.2 26.88 
" style="fill:none;stroke:#000000;stroke-linecap:square;stroke-linejoin:miter;stroke-width:0.8;"/>
   </g>
   <g id="patch_5">
    <path d="M 69.59 174.76 
L 565.2 174.76 
" style="fill:none;stroke:#000000;stroke-linecap:square;stroke-linejoin:miter;stroke-width:0.8;"/>
   </g>
   <g id="patch_6">
    <path d="M 69.59 26.88 
L 565.2 26.88 
" style="fill:none;stroke:#000000;stroke-linecap:square;stroke-linejoin:miter;stroke-width:0.8;"/>
   </g>
   <g id="text_13">
    <!-- Striatum, Num Trials=160 All stimulated trials, Num cells = 351 -->
    <defs>
     <path d="M 53.515625 70.515625 
L 53.515625 60.890625 
Q 47.90625 63.578125 42.921875 64.890625 
Q 37.9375 66.21875 33.296875 66.21875 
Q 25.25 66.21875 20.875 63.09375 
Q 16.5 59.96875 16.5 54.203125 
Q 16.5 49.359375 19.40625 46.890625 
Q 22.3125 44.4375 30.421875 42.921875 
L 36.375 41.703125 
Q 47.40625 39.59375 52.65625 34.296875 
Q 57.90625 29 57.90625 20.125 
Q 57.90625 9.515625 50.796875 4.046875 
Q 43.703125 -1.421875 29.984375 -1.421875 
Q 24.8125 -1.421875 18.96875 -0.25 
Q 13.140625 0.921875 6.890625 3.21875 
L 6.890625 13.375 
Q 12.890625 10.015625 18.65625 8.296875 
Q 24.421875 6.59375 29.984375 6.59375 
Q 38.421875 6.59375 43.015625 9.90625 
Q 47.609375 13.234375 47.609375 19.390625 
Q 47.609375 24.75 44.3125 27.78125 
Q 41.015625 30.8125 33.5 32.328125 
L 27.484375 33.5 
Q 16.453125 35.6875 11.515625 40.375 
Q 6.59375 45.0625 6.59375 53.421875 
Q 6.59375 63.09375 13.40625 68.65625 
Q 20.21875 74.21875 32.171875 74.21875 
Q 37.3125 74.21875 42.625 73.28125 
Q 47.953125 72.359375 53.515625 70.515625 
z
" id="DejaVuSans-83"/>
     <path d="M 18.3125 70.21875 
L 18.3125 54.6875 
L 36.8125 54.6875 
L 36.8125 47.703125 
L 18.3125 47.703125 
L 18.3125 18.015625 
Q 18.3125 11.328125 20.140625 9.421875 
Q 21.96875 7.515625 27.59375 7.515625 
L 36.8125 7.515625 
L 36.8125 0 
L 27.59375 0 
Q 17.1875 0 13.234375 3.875 
Q 9.28125 7.765625 9.28125 18.015625 
L 9.28125 47.703125 
L 2.6875 47.703125 
L 2.6875 54.6875 
L 9.28125 54.6875 
L 9.28125 70.21875 
z
" id="DejaVuSans-116"/>
     <path d="M 34.28125 27.484375 
Q 23.390625 27.484375 19.1875 25 
Q 14.984375 22.515625 14.984375 16.5 
Q 14.984375 11.71875 18.140625 8.90625 
Q 21.296875 6.109375 26.703125 6.109375 
Q 34.1875 6.109375 38.703125 11.40625 
Q 43.21875 16.703125 43.21875 25.484375 
L 43.21875 27.484375 
z
M 52.203125 31.203125 
L 52.203125 0 
L 43.21875 0 
L 43.21875 8.296875 
Q 40.140625 3.328125 35.546875 0.953125 
Q 30.953125 -1.421875 24.3125 -1.421875 
Q 15.921875 -1.421875 10.953125 3.296875 
Q 6 8.015625 6 15.921875 
Q 6 25.140625 12.171875 29.828125 
Q 18.359375 34.515625 30.609375 34.515625 
L 43.21875 34.515625 
L 43.21875 35.40625 
Q 43.21875 41.609375 39.140625 45 
Q 35.0625 48.390625 27.6875 48.390625 
Q 23 48.390625 18.546875 47.265625 
Q 14.109375 46.140625 10.015625 43.890625 
L 10.015625 52.203125 
Q 14.9375 54.109375 19.578125 55.046875 
Q 24.21875 56 28.609375 56 
Q 40.484375 56 46.34375 49.84375 
Q 52.203125 43.703125 52.203125 31.203125 
z
" id="DejaVuSans-97"/>
     <path d="M 8.5 21.578125 
L 8.5 54.6875 
L 17.484375 54.6875 
L 17.484375 21.921875 
Q 17.484375 14.15625 20.5 10.265625 
Q 23.53125 6.390625 29.59375 6.390625 
Q 36.859375 6.390625 41.078125 11.03125 
Q 45.3125 15.671875 45.3125 23.6875 
L 45.3125 54.6875 
L 54.296875 54.6875 
L 54.296875 0 
L 45.3125 0 
L 45.3125 8.40625 
Q 42.046875 3.421875 37.71875 1 
Q 33.40625 -1.421875 27.6875 -1.421875 
Q 18.265625 -1.421875 13.375 4.4375 
Q 8.5 10.296875 8.5 21.578125 
z
M 31.109375 56 
z
" id="DejaVuSans-117"/>
     <path d="M 11.71875 12.40625 
L 22.015625 12.40625 
L 22.015625 4 
L 14.015625 -11.625 
L 7.71875 -11.625 
L 11.71875 4 
z
" id="DejaVuSans-44"/>
     <path d="M 9.8125 72.90625 
L 23.09375 72.90625 
L 55.421875 11.921875 
L 55.421875 72.90625 
L 64.984375 72.90625 
L 64.984375 0 
L 51.703125 0 
L 19.390625 60.984375 
L 19.390625 0 
L 9.8125 0 
z
" id="DejaVuSans-78"/>
     <path d="M 9.421875 75.984375 
L 18.40625 75.984375 
L 18.40625 0 
L 9.421875 0 
z
" id="DejaVuSans-108"/>
     <path d="M 10.59375 45.40625 
L 73.1875 45.40625 
L 73.1875 37.203125 
L 10.59375 37.203125 
z
M 10.59375 25.484375 
L 73.1875 25.484375 
L 73.1875 17.1875 
L 10.59375 17.1875 
z
" id="DejaVuSans-61"/>
     <path d="M 33.015625 40.375 
Q 26.375 40.375 22.484375 35.828125 
Q 18.609375 31.296875 18.609375 23.390625 
Q 18.609375 15.53125 22.484375 10.953125 
Q 26.375 6.390625 33.015625 6.390625 
Q 39.65625 6.390625 43.53125 10.953125 
Q 47.40625 15.53125 47.40625 23.390625 
Q 47.40625 31.296875 43.53125 35.828125 
Q 39.65625 40.375 33.015625 40.375 
z
M 52.59375 71.296875 
L 52.59375 62.3125 
Q 48.875 64.0625 45.09375 64.984375 
Q 41.3125 65.921875 37.59375 65.921875 
Q 27.828125 65.921875 22.671875 59.328125 
Q 17.53125 52.734375 16.796875 39.40625 
Q 19.671875 43.65625 24.015625 45.921875 
Q 28.375 48.1875 33.59375 48.1875 
Q 44.578125 48.1875 50.953125 41.515625 
Q 57.328125 34.859375 57.328125 23.390625 
Q 57.328125 12.15625 50.6875 5.359375 
Q 44.046875 -1.421875 33.015625 -1.421875 
Q 20.359375 -1.421875 13.671875 8.265625 
Q 6.984375 17.96875 6.984375 36.375 
Q 6.984375 53.65625 15.1875 63.9375 
Q 23.390625 74.21875 37.203125 74.21875 
Q 40.921875 74.21875 44.703125 73.484375 
Q 48.484375 72.75 52.59375 71.296875 
z
" id="DejaVuSans-54"/>
     <path d="M 45.40625 46.390625 
L 45.40625 75.984375 
L 54.390625 75.984375 
L 54.390625 0 
L 45.40625 0 
L 45.40625 8.203125 
Q 42.578125 3.328125 38.25 0.953125 
Q 33.9375 -1.421875 27.875 -1.421875 
Q 17.96875 -1.421875 11.734375 6.484375 
Q 5.515625 14.40625 5.515625 27.296875 
Q 5.515625 40.1875 11.734375 48.09375 
Q 17.96875 56 27.875 56 
Q 33.9375 56 38.25 53.625 
Q 42.578125 51.265625 45.40625 46.390625 
z
M 14.796875 27.296875 
Q 14.796875 17.390625 18.875 11.75 
Q 22.953125 6.109375 30.078125 6.109375 
Q 37.203125 6.109375 41.296875 11.75 
Q 45.40625 17.390625 45.40625 27.296875 
Q 45.40625 37.203125 41.296875 42.84375 
Q 37.203125 48.484375 30.078125 48.484375 
Q 22.953125 48.484375 18.875 42.84375 
Q 14.796875 37.203125 14.796875 27.296875 
z
" id="DejaVuSans-100"/>
     <path d="M 48.78125 52.59375 
L 48.78125 44.1875 
Q 44.96875 46.296875 41.140625 47.34375 
Q 37.3125 48.390625 33.40625 48.390625 
Q 24.65625 48.390625 19.8125 42.84375 
Q 14.984375 37.3125 14.984375 27.296875 
Q 14.984375 17.28125 19.8125 11.734375 
Q 24.65625 6.203125 33.40625 6.203125 
Q 37.3125 6.203125 41.140625 7.25 
Q 44.96875 8.296875 48.78125 10.40625 
L 48.78125 2.09375 
Q 45.015625 0.34375 40.984375 -0.53125 
Q 36.96875 -1.421875 32.421875 -1.421875 
Q 20.0625 -1.421875 12.78125 6.34375 
Q 5.515625 14.109375 5.515625 27.296875 
Q 5.515625 40.671875 12.859375 48.328125 
Q 20.21875 56 33.015625 56 
Q 37.15625 56 41.109375 55.140625 
Q 45.0625 54.296875 48.78125 52.59375 
z
" id="DejaVuSans-99"/>
     <path d="M 40.578125 39.3125 
Q 47.65625 37.796875 51.625 33 
Q 55.609375 28.21875 55.609375 21.1875 
Q 55.609375 10.40625 48.1875 4.484375 
Q 40.765625 -1.421875 27.09375 -1.421875 
Q 22.515625 -1.421875 17.65625 -0.515625 
Q 12.796875 0.390625 7.625 2.203125 
L 7.625 11.71875 
Q 11.71875 9.328125 16.59375 8.109375 
Q 21.484375 6.890625 26.8125 6.890625 
Q 36.078125 6.890625 40.9375 10.546875 
Q 45.796875 14.203125 45.796875 21.1875 
Q 45.796875 27.640625 41.28125 31.265625 
Q 36.765625 34.90625 28.71875 34.90625 
L 20.21875 34.90625 
L 20.21875 43.015625 
L 29.109375 43.015625 
Q 36.375 43.015625 40.234375 45.921875 
Q 44.09375 48.828125 44.09375 54.296875 
Q 44.09375 59.90625 40.109375 62.90625 
Q 36.140625 65.921875 28.71875 65.921875 
Q 24.65625 65.921875 20.015625 65.03125 
Q 15.375 64.15625 9.8125 62.3125 
L 9.8125 71.09375 
Q 15.4375 72.65625 20.34375 73.4375 
Q 25.25 74.21875 29.59375 74.21875 
Q 40.828125 74.21875 47.359375 69.109375 
Q 53.90625 64.015625 53.90625 55.328125 
Q 53.90625 49.265625 50.4375 45.09375 
Q 46.96875 40.921875 40.578125 39.3125 
z
" id="DejaVuSans-51"/>
    </defs>
    <g transform="translate(125.130625 20.88)scale(0.12 -0.12)">
     <use xlink:href="#DejaVuSans-83"/>
     <use x="63.476562" xlink:href="#DejaVuSans-116"/>
     <use x="102.685547" xlink:href="#DejaVuSans-114"/>
     <use x="143.798828" xlink:href="#DejaVuSans-105"/>
     <use x="171.582031" xlink:href="#DejaVuSans-97"/>
     <use x="232.861328" xlink:href="#DejaVuSans-116"/>
     <use x="272.070312" xlink:href="#DejaVuSans-117"/>
     <use x="335.449219" xlink:href="#DejaVuSans-109"/>
     <use x="432.861328" xlink:href="#DejaVuSans-44"/>
     <use x="464.648438" xlink:href="#DejaVuSans-32"/>
     <use x="496.435547" xlink:href="#DejaVuSans-78"/>
     <use x="571.240234" xlink:href="#DejaVuSans-117"/>
     <use x="634.619141" xlink:href="#DejaVuSans-109"/>
     <use x="732.03125" xlink:href="#DejaVuSans-32"/>
     <use x="763.818359" xlink:href="#DejaVuSans-84"/>
     <use x="824.683594" xlink:href="#DejaVuSans-114"/>
     <use x="865.796875" xlink:href="#DejaVuSans-105"/>
     <use x="893.580078" xlink:href="#DejaVuSans-97"/>
     <use x="954.859375" xlink:href="#DejaVuSans-108"/>
     <use x="982.642578" xlink:href="#DejaVuSans-115"/>
     <use x="1034.742188" xlink:href="#DejaVuSans-61"/>
     <use x="1118.53125" xlink:href="#DejaVuSans-49"/>
     <use x="1182.154297" xlink:href="#DejaVuSans-54"/>
     <use x="1245.777344" xlink:href="#DejaVuSans-48"/>
     <use x="1309.400391" xlink:href="#DejaVuSans-32"/>
     <use x="1341.1875" xlink:href="#DejaVuSans-65"/>
     <use x="1409.595703" xlink:href="#DejaVuSans-108"/>
     <use x="1437.378906" xlink:href="#DejaVuSans-108"/>
     <use x="1465.162109" xlink:href="#DejaVuSans-32"/>
     <use x="1496.949219" xlink:href="#DejaVuSans-115"/>
     <use x="1549.048828" xlink:href="#DejaVuSans-116"/>
     <use x="1588.257812" xlink:href="#DejaVuSans-105"/>
     <use x="1616.041016" xlink:href="#DejaVuSans-109"/>
     <use x="1713.453125" xlink:href="#DejaVuSans-117"/>
     <use x="1776.832031" xlink:href="#DejaVuSans-108"/>
     <use x="1804.615234" xlink:href="#DejaVuSans-97"/>
     <use x="1865.894531" xlink:href="#DejaVuSans-116"/>
     <use x="1905.103516" xlink:href="#DejaVuSans-101"/>
     <use x="1966.626953" xlink:href="#DejaVuSans-100"/>
     <use x="2030.103516" xlink:href="#DejaVuSans-32"/>
     <use x="2061.890625" xlink:href="#DejaVuSans-116"/>
     <use x="2101.099609" xlink:href="#DejaVuSans-114"/>
     <use x="2142.212891" xlink:href="#DejaVuSans-105"/>
     <use x="2169.996094" xlink:href="#DejaVuSans-97"/>
     <use x="2231.275391" xlink:href="#DejaVuSans-108"/>
     <use x="2259.058594" xlink:href="#DejaVuSans-115"/>
     <use x="2311.158203" xlink:href="#DejaVuSans-44"/>
     <use x="2342.945312" xlink:href="#DejaVuSans-32"/>
     <use x="2374.732422" xlink:href="#DejaVuSans-78"/>
     <use x="2449.537109" xlink:href="#DejaVuSans-117"/>
     <use x="2512.916016" xlink:href="#DejaVuSans-109"/>
     <use x="2610.328125" xlink:href="#DejaVuSans-32"/>
     <use x="2642.115234" xlink:href="#DejaVuSans-99"/>
     <use x="2697.095703" xlink:href="#DejaVuSans-101"/>
     <use x="2758.619141" xlink:href="#DejaVuSans-108"/>
     <use x="2786.402344" xlink:href="#DejaVuSans-108"/>
     <use x="2814.185547" xlink:href="#DejaVuSans-115"/>
     <use x="2866.285156" xlink:href="#DejaVuSans-32"/>
     <use x="2898.072266" xlink:href="#DejaVuSans-61"/>
     <use x="2981.861328" xlink:href="#DejaVuSans-32"/>
     <use x="3013.648438" xlink:href="#DejaVuSans-51"/>
     <use x="3077.271484" xlink:href="#DejaVuSans-53"/>
     <use x="3140.894531" xlink:href="#DejaVuSans-49"/>
    </g>
   </g>
   <g id="legend_1">
    <g id="patch_7">
     <path d="M 458.469375 71.7075 
L 556.8 71.7075 
Q 559.2 71.7075 559.2 69.3075 
L 559.2 35.28 
Q 559.2 32.88 556.8 32.88 
L 458.469375 32.88 
Q 456.069375 32.88 456.069375 35.28 
L 456.069375 69.3075 
Q 456.069375 71.7075 458.469375 71.7075 
z
" style="fill:#ffffff;opacity:0.8;stroke:#cccccc;stroke-linejoin:miter;"/>
    </g>
    <g id="line2d_12">
     <path d="M 460.869375 42.598125 
L 484.869375 42.598125 
" style="fill:none;stroke:#0000ff;stroke-linecap:square;stroke-width:1.5;"/>
    </g>
    <g id="line2d_13"/>
    <g id="text_14">
     <!-- Avg. Corr. -->
     <g transform="translate(494.469375 46.798125)scale(0.12 -0.12)">
      <use xlink:href="#DejaVuSans-65"/>
      <use x="68.330078" xlink:href="#DejaVuSans-118"/>
      <use x="127.509766" xlink:href="#DejaVuSans-103"/>
      <use x="190.986328" xlink:href="#DejaVuSans-46"/>
      <use x="222.773438" xlink:href="#DejaVuSans-32"/>
      <use x="254.560547" xlink:href="#DejaVuSans-67"/>
      <use x="324.384766" xlink:href="#DejaVuSans-111"/>
      <use x="385.566406" xlink:href="#DejaVuSans-114"/>
      <use x="426.664062" xlink:href="#DejaVuSans-114"/>
      <use x="467.636719" xlink:href="#DejaVuSans-46"/>
     </g>
    </g>
    <g id="patch_8">
     <path d="M 460.869375 64.411875 
L 484.869375 64.411875 
L 484.869375 56.011875 
L 460.869375 56.011875 
z
" style="fill:#0000ff;opacity:0.3;stroke:#0000ff;stroke-linejoin:miter;"/>
    </g>
    <g id="text_15">
     <!-- Std. Err. -->
     <defs>
      <path d="M 9.8125 72.90625 
L 55.90625 72.90625 
L 55.90625 64.59375 
L 19.671875 64.59375 
L 19.671875 43.015625 
L 54.390625 43.015625 
L 54.390625 34.71875 
L 19.671875 34.71875 
L 19.671875 8.296875 
L 56.78125 8.296875 
L 56.78125 0 
L 9.8125 0 
z
" id="DejaVuSans-69"/>
     </defs>
     <g transform="translate(494.469375 64.411875)scale(0.12 -0.12)">
      <use xlink:href="#DejaVuSans-83"/>
      <use x="63.476562" xlink:href="#DejaVuSans-116"/>
      <use x="102.685547" xlink:href="#DejaVuSans-100"/>
      <use x="166.162109" xlink:href="#DejaVuSans-46"/>
      <use x="197.949219" xlink:href="#DejaVuSans-32"/>
      <use x="229.736328" xlink:href="#DejaVuSans-69"/>
      <use x="292.919922" xlink:href="#DejaVuSans-114"/>
      <use x="334.017578" xlink:href="#DejaVuSans-114"/>
      <use x="374.990234" xlink:href="#DejaVuSans-46"/>
     </g>
    </g>
   </g>
  </g>
 </g>
 <defs>
  <clipPath id="paa0438790c">
   <rect height="147.88" width="495.61" x="69.59" y="26.88"/>
  </clipPath>
 </defs>
</svg>
