<?xml version="1.0" encoding="utf-8" standalone="no"?>
<!DOCTYPE svg PUBLIC "-//W3C//DTD SVG 1.1//EN"
  "http://www.w3.org/Graphics/SVG/1.1/DTD/svg11.dtd">
<!-- Created with matplotlib (https://matplotlib.org/) -->
<svg height="216pt" version="1.1" viewBox="0 0 648 216" width="648pt" xmlns="http://www.w3.org/2000/svg" xmlns:xlink="http://www.w3.org/1999/xlink">
 <defs>
  <style type="text/css">
*{stroke-linecap:butt;stroke-linejoin:round;}
  </style>
 </defs>
 <g id="figure_1">
  <g id="patch_1">
   <path d="M 0 216 
L 648 216 
L 648 0 
L 0 0 
z
" style="fill:#ffffff;"/>
  </g>
  <g id="axes_1">
   <g id="patch_2">
    <path d="M 81 192.24 
L 583.2 192.24 
L 583.2 25.92 
L 81 25.92 
z
" style="fill:#ffffff;"/>
   </g>
   <g id="PolyCollection_1">
    <defs>
     <path d="M 162.62878 -23.76 
L 162.62878 -190.08 
L 417.984712 -190.08 
L 417.984712 -23.76 
L 417.984712 -23.76 
L 162.62878 -23.76 
z
" id="m94f4318737" style="stroke:#808080;stroke-opacity:0.3;"/>
    </defs>
    <g clip-path="url(#p86ceb73def)">
     <use style="fill:#808080;fill-opacity:0.3;stroke:#808080;stroke-opacity:0.3;" x="0" xlink:href="#m94f4318737" y="216"/>
    </g>
   </g>
   <g id="PolyCollection_2">
    <path clip-path="url(#p86ceb73def)" d="M 81 168.134291 
L 81 168.134291 
L 82.702373 178.505942 
L 84.404746 168.134291 
L 86.107119 139.272547 
L 87.809492 156.087935 
L 89.511864 168.134291 
L 91.214237 168.134291 
L 92.91661 192.24 
L 94.618983 168.134291 
L 96.321356 142.778214 
L 98.023729 159.276387 
L 99.726102 168.123041 
L 101.428475 157.305592 
L 103.130847 158.310995 
L 103.130847 148.404698 
L 103.130847 148.404698 
L 101.428475 150.382548 
L 99.726102 154.13076 
L 98.023729 149.199403 
L 96.321356 133.084806 
L 94.618983 168.134291 
L 92.91661 172.270177 
L 91.214237 168.134291 
L 89.511864 168.134291 
L 87.809492 148.349221 
L 86.107119 133.744011 
L 84.404746 168.134291 
L 82.702373 168.878942 
L 81 168.134291 
z
" style="fill:#0000ff;fill-opacity:0.3;stroke:#0000ff;stroke-opacity:0.3;"/>
    <path clip-path="url(#p86ceb73def)" d="M 106.535593 149.398456 
L 106.535593 157.390824 
L 108.237966 161.40164 
L 109.940339 167.486858 
L 111.642712 163.737144 
L 113.345085 163.961442 
L 115.047458 153.27618 
L 116.749831 172.890057 
L 118.452203 158.012753 
L 120.154576 168.730531 
L 121.856949 151.307532 
L 123.559322 156.447248 
L 125.261695 168.249043 
L 126.964068 173.138088 
L 128.666441 174.728464 
L 130.368814 167.080094 
L 132.071186 158.016821 
L 133.773559 144.403366 
L 135.475932 126.688531 
L 137.178305 163.619841 
L 138.880678 147.740731 
L 140.583051 168.076372 
L 142.285424 138.097652 
L 143.987797 146.363993 
L 145.690169 158.955188 
L 147.392542 146.438984 
L 149.094915 147.153134 
L 150.797288 129.103146 
L 152.499661 150.088964 
L 154.202034 140.363913 
L 155.904407 166.513197 
L 157.60678 157.025694 
L 159.309153 167.694503 
L 161.011525 161.457166 
L 162.713898 154.016334 
L 164.416271 168.698209 
L 166.118644 168.134291 
L 167.821017 151.809418 
L 169.52339 145.627353 
L 171.225763 139.363822 
L 172.928136 160.421339 
L 174.630508 147.449869 
L 176.332881 146.721416 
L 178.035254 146.918485 
L 179.737627 166.575168 
L 181.44 159.54437 
L 183.142373 170.518786 
L 184.844746 156.741961 
L 186.547119 158.701431 
L 188.249492 169.765967 
L 189.951864 164.782806 
L 191.654237 160.818624 
L 193.35661 166.536936 
L 195.058983 170.306737 
L 196.761356 169.0536 
L 198.463729 163.121865 
L 200.166102 152.274537 
L 201.868475 136.893937 
L 203.570847 138.058472 
L 205.27322 142.385925 
L 206.975593 131.150818 
L 208.677966 158.710149 
L 210.380339 151.868767 
L 212.082712 167.307341 
L 213.785085 168.134291 
L 215.487458 172.17723 
L 217.189831 148.238156 
L 218.892203 153.748385 
L 220.594576 150.672318 
L 222.296949 145.456357 
L 223.999322 172.933592 
L 225.701695 157.677717 
L 227.404068 174.314231 
L 229.106441 158.665153 
L 230.808814 168.134291 
L 232.511186 161.906079 
L 234.213559 165.792965 
L 235.915932 151.138545 
L 237.618305 130.846221 
L 239.320678 154.630632 
L 241.023051 159.685184 
L 242.725424 158.982976 
L 244.427797 133.258057 
L 246.130169 158.998155 
L 247.832542 143.349064 
L 249.534915 147.572114 
L 251.237288 147.255562 
L 252.939661 160.677654 
L 254.642034 135.801708 
L 256.344407 151.011727 
L 258.04678 156.156629 
L 259.749153 165.618429 
L 261.451525 166.501302 
L 261.451525 81.742453 
L 261.451525 81.742453 
L 259.749153 153.804432 
L 258.04678 142.022867 
L 256.344407 139.738226 
L 254.642034 130.161387 
L 252.939661 154.499599 
L 251.237288 140.287142 
L 249.534915 140.823567 
L 247.832542 138.686194 
L 246.130169 148.417253 
L 244.427797 127.461705 
L 242.725424 149.26427 
L 241.023051 147.51122 
L 239.320678 146.175097 
L 237.618305 125.444904 
L 235.915932 144.903671 
L 234.213559 159.299081 
L 232.511186 151.578937 
L 230.808814 168.134291 
L 229.106441 109.316601 
L 227.404068 169.683633 
L 225.701695 148.233703 
L 223.999322 168.27557 
L 222.296949 137.378924 
L 220.594576 143.063637 
L 218.892203 137.491847 
L 217.189831 138.4769 
L 215.487458 144.071314 
L 213.785085 168.134291 
L 212.082712 136.731955 
L 210.380339 142.057722 
L 208.677966 146.825274 
L 206.975593 128.92362 
L 205.27322 134.164056 
L 203.570847 132.617857 
L 201.868475 129.023001 
L 200.166102 135.868214 
L 198.463729 155.141541 
L 196.761356 159.66372 
L 195.058983 161.813898 
L 193.35661 154.483112 
L 191.654237 130.371888 
L 189.951864 153.238134 
L 188.249492 168.435661 
L 186.547119 147.987015 
L 184.844746 143.040414 
L 183.142373 166.134452 
L 181.44 150.094449 
L 179.737627 156.314433 
L 178.035254 139.161222 
L 176.332881 136.702712 
L 174.630508 139.531147 
L 172.928136 150.913395 
L 171.225763 131.278006 
L 169.52339 137.030757 
L 167.821017 143.284612 
L 166.118644 168.134291 
L 164.416271 163.827984 
L 162.713898 143.875694 
L 161.011525 138.96899 
L 159.309153 156.498268 
L 157.60678 150.358122 
L 155.904407 156.250283 
L 154.202034 134.239708 
L 152.499661 141.566424 
L 150.797288 123.752944 
L 149.094915 137.115116 
L 147.392542 136.572741 
L 145.690169 149.062644 
L 143.987797 132.005135 
L 142.285424 128.411435 
L 140.583051 157.82497 
L 138.880678 127.985895 
L 137.178305 152.85233 
L 135.475932 125.067274 
L 133.773559 133.953182 
L 132.071186 146.314307 
L 130.368814 149.977063 
L 128.666441 169.458081 
L 126.964068 168.567463 
L 125.261695 154.612983 
L 123.559322 143.582636 
L 121.856949 143.195675 
L 120.154576 159.78912 
L 118.452203 151.276933 
L 116.749831 167.48897 
L 115.047458 143.827259 
L 113.345085 151.648643 
L 111.642712 152.694554 
L 109.940339 146.140624 
L 108.237966 151.729552 
L 106.535593 149.398456 
z
" style="fill:#0000ff;fill-opacity:0.3;stroke:#0000ff;stroke-opacity:0.3;"/>
    <path clip-path="url(#p86ceb73def)" d="M 264.856271 137.614123 
L 264.856271 147.49593 
L 266.558644 139.315268 
L 268.261017 163.879264 
L 269.96339 166.47948 
L 271.665763 142.213817 
L 273.368136 149.295751 
L 275.070508 149.180408 
L 276.772881 137.604434 
L 278.475254 176.310847 
L 280.177627 173.466925 
L 281.88 164.349909 
L 283.582373 167.301727 
L 285.284746 152.730567 
L 286.987119 171.277364 
L 288.689492 165.095192 
L 290.391864 133.97595 
L 292.094237 169.660157 
L 293.79661 164.893126 
L 295.498983 168.866567 
L 297.201356 158.066367 
L 298.903729 155.588953 
L 300.606102 144.158724 
L 302.308475 154.878286 
L 304.010847 173.017274 
L 305.71322 170.290952 
L 307.415593 168.754559 
L 309.117966 157.144469 
L 310.820339 134.124385 
L 312.522712 164.926587 
L 314.225085 137.952538 
L 315.927458 148.012849 
L 317.629831 132.187487 
L 319.332203 157.478661 
L 321.034576 145.081086 
L 322.736949 169.588518 
L 324.439322 166.396249 
L 326.141695 165.98704 
L 327.844068 163.256267 
L 329.546441 160.413648 
L 331.248814 158.253316 
L 332.951186 168.134291 
L 334.653559 159.729736 
L 336.355932 159.102223 
L 338.058305 152.896954 
L 339.760678 148.735858 
L 341.463051 161.087756 
L 343.165424 150.202344 
L 344.867797 142.849313 
L 346.570169 162.598244 
L 348.272542 165.557981 
L 349.974915 153.819975 
L 351.677288 160.448699 
L 353.379661 169.984938 
L 355.082034 168.638312 
L 356.784407 166.93638 
L 358.48678 158.82645 
L 360.189153 150.8738 
L 361.891525 155.127733 
L 363.593898 171.124788 
L 365.296271 169.132624 
L 366.998644 155.991986 
L 368.701017 153.801565 
L 370.40339 156.518096 
L 372.105763 170.058156 
L 373.808136 168.134291 
L 375.510508 159.620993 
L 377.212881 155.251053 
L 378.915254 158.681305 
L 380.617627 168.134291 
L 382.32 134.488998 
L 384.022373 165.081582 
L 385.724746 145.552825 
L 387.427119 141.531494 
L 389.129492 161.02278 
L 390.831864 167.838196 
L 392.534237 170.780172 
L 394.23661 164.484953 
L 395.938983 171.01216 
L 397.641356 168.663162 
L 399.343729 130.209601 
L 401.046102 145.940389 
L 402.748475 146.588681 
L 404.450847 128.305081 
L 406.15322 133.078597 
L 407.855593 168.468298 
L 409.557966 143.237264 
L 411.260339 145.250052 
L 412.962712 156.717296 
L 414.665085 153.687245 
L 416.367458 144.683057 
L 418.069831 144.240772 
L 419.772203 161.43942 
L 421.474576 136.582284 
L 423.176949 128.778711 
L 424.879322 165.500527 
L 426.581695 155.436015 
L 428.284068 163.210589 
L 429.986441 137.570558 
L 431.688814 143.195775 
L 433.391186 151.862872 
L 435.093559 157.054982 
L 436.795932 144.502159 
L 438.498305 161.404228 
L 440.200678 166.620108 
L 441.903051 148.377347 
L 443.605424 153.216981 
L 445.307797 168.589205 
L 447.010169 165.984823 
L 448.712542 169.927783 
L 450.414915 170.644095 
L 452.117288 159.080233 
L 453.819661 161.522427 
L 455.522034 166.253154 
L 457.224407 148.857512 
L 458.92678 172.041251 
L 460.629153 155.714116 
L 462.331525 170.730618 
L 464.033898 162.316513 
L 465.736271 168.134291 
L 467.438644 169.648698 
L 469.141017 159.807927 
L 470.84339 157.549191 
L 472.545763 152.586504 
L 474.248136 152.380506 
L 475.950508 135.875749 
L 477.652881 156.295585 
L 479.355254 155.644641 
L 481.057627 168.134291 
L 482.76 165.002928 
L 484.462373 157.61624 
L 486.164746 163.345401 
L 487.867119 156.609207 
L 489.569492 136.30907 
L 491.271864 125.057439 
L 492.974237 126.196702 
L 494.67661 128.478671 
L 496.378983 128.388622 
L 498.081356 126.787369 
L 499.783729 131.298799 
L 501.486102 129.145771 
L 503.188475 125.893604 
L 504.890847 128.408654 
L 506.59322 128.514091 
L 508.295593 133.033693 
L 509.997966 130.404466 
L 511.700339 135.827503 
L 513.402712 126.202567 
L 515.105085 125.369921 
L 516.807458 127.987773 
L 518.509831 130.983264 
L 520.212203 131.506323 
L 521.914576 140.793455 
L 523.616949 136.187253 
L 525.319322 129.900641 
L 527.021695 135.74736 
L 528.724068 135.55391 
L 530.426441 129.547491 
L 532.128814 130.317313 
L 533.831186 129.625881 
L 535.533559 131.299592 
L 537.235932 138.906745 
L 538.938305 143.354284 
L 540.640678 143.988994 
L 542.343051 135.855839 
L 544.045424 142.359568 
L 545.747797 153.290421 
L 547.450169 147.504066 
L 549.152542 156.964732 
L 550.854915 139.729247 
L 552.557288 163.714707 
L 554.259661 139.639339 
L 555.962034 151.515095 
L 557.664407 145.406243 
L 559.36678 151.359554 
L 561.069153 150.297811 
L 562.771525 157.84869 
L 564.473898 138.93595 
L 566.176271 166.93885 
L 567.878644 165.810176 
L 569.581017 162.024863 
L 571.28339 164.507268 
L 572.985763 170.319398 
L 574.688136 157.741907 
L 576.390508 178.152751 
L 578.092881 168.134291 
L 579.795254 168.421135 
L 581.497627 167.430356 
L 583.2 168.134291 
L 583.2 168.134291 
L 583.2 168.134291 
L 581.497627 132.951623 
L 579.795254 164.870336 
L 578.092881 168.134291 
L 576.390508 171.739489 
L 574.688136 119.8765 
L 572.985763 148.59193 
L 571.28339 149.414248 
L 569.581017 141.855132 
L 567.878644 151.98763 
L 566.176271 159.321841 
L 564.473898 116.906431 
L 562.771525 149.5504 
L 561.069153 134.583234 
L 559.36678 138.993541 
L 557.664407 128.661261 
L 555.962034 133.039256 
L 554.259661 132.34649 
L 552.557288 152.914746 
L 550.854915 132.50867 
L 549.152542 147.863594 
L 547.450169 139.676308 
L 545.747797 143.854247 
L 544.045424 133.841498 
L 542.343051 125.137062 
L 540.640678 135.933238 
L 538.938305 120.528633 
L 537.235932 128.305843 
L 535.533559 127.565677 
L 533.831186 125.297183 
L 532.128814 125.9664 
L 530.426441 126.395128 
L 528.724068 131.378654 
L 527.021695 130.353725 
L 525.319322 126.591644 
L 523.616949 130.571963 
L 521.914576 134.521829 
L 520.212203 128.970146 
L 518.509831 128.075496 
L 516.807458 122.481246 
L 515.105085 123.406838 
L 513.402712 124.867054 
L 511.700339 129.309019 
L 509.997966 124.735481 
L 508.295593 127.776077 
L 506.59322 126.062011 
L 504.890847 125.759157 
L 503.188475 124.123019 
L 501.486102 126.897698 
L 499.783729 126.757753 
L 498.081356 124.811521 
L 496.378983 125.299201 
L 494.67661 126.723628 
L 492.974237 124.821621 
L 491.271864 124.054059 
L 489.569492 132.595275 
L 487.867119 148.653771 
L 486.164746 150.873914 
L 484.462373 152.433214 
L 482.76 154.849045 
L 481.057627 168.134291 
L 479.355254 147.456926 
L 477.652881 145.912013 
L 475.950508 127.467561 
L 474.248136 136.552601 
L 472.545763 145.646389 
L 470.84339 149.194739 
L 469.141017 154.453186 
L 467.438644 165.085198 
L 465.736271 168.134291 
L 464.033898 150.741937 
L 462.331525 150.52366 
L 460.629153 129.740359 
L 458.92678 167.790946 
L 457.224407 138.188596 
L 455.522034 156.73241 
L 453.819661 150.334718 
L 452.117288 146.149099 
L 450.414915 66.936399 
L 448.712542 162.580769 
L 447.010169 159.201382 
L 445.307797 168.13586 
L 443.605424 146.449728 
L 441.903051 131.228231 
L 440.200678 156.917876 
L 438.498305 139.054904 
L 436.795932 136.11968 
L 435.093559 145.905016 
L 433.391186 135.789439 
L 431.688814 135.661782 
L 429.986441 130.025367 
L 428.284068 147.363689 
L 426.581695 142.993344 
L 424.879322 156.409046 
L 423.176949 126.171231 
L 421.474576 131.70853 
L 419.772203 150.345586 
L 418.069831 136.395571 
L 416.367458 132.901556 
L 414.665085 140.266656 
L 412.962712 143.169681 
L 411.260339 134.767667 
L 409.557966 131.777738 
L 407.855593 168.1377 
L 406.15322 128.525116 
L 404.450847 125.023545 
L 402.748475 138.763001 
L 401.046102 135.571718 
L 399.343729 128.041866 
L 397.641356 154.423895 
L 395.938983 155.101451 
L 394.23661 154.401244 
L 392.534237 147.588059 
L 390.831864 152.150616 
L 389.129492 139.830716 
L 387.427119 132.539457 
L 385.724746 139.338845 
L 384.022373 153.22421 
L 382.32 125.945199 
L 380.617627 168.134291 
L 378.915254 147.879945 
L 377.212881 147.276232 
L 375.510508 140.260525 
L 373.808136 168.134291 
L 372.105763 158.195584 
L 370.40339 145.517113 
L 368.701017 144.227479 
L 366.998644 147.694647 
L 365.296271 160.14092 
L 363.593898 169.250799 
L 361.891525 140.195057 
L 360.189153 133.537722 
L 358.48678 149.930172 
L 356.784407 161.578744 
L 355.082034 168.207681 
L 353.379661 154.518192 
L 351.677288 151.487905 
L 349.974915 141.052692 
L 348.272542 158.11564 
L 346.570169 141.551543 
L 344.867797 133.300212 
L 343.165424 144.61687 
L 341.463051 152.046079 
L 339.760678 140.294715 
L 338.058305 143.753728 
L 336.355932 151.946061 
L 334.653559 147.032875 
L 332.951186 168.134291 
L 331.248814 98.587663 
L 329.546441 128.263673 
L 327.844068 131.856065 
L 326.141695 146.114569 
L 324.439322 159.891943 
L 322.736949 147.740759 
L 321.034576 25.92 
L 319.332203 141.684725 
L 317.629831 128.477463 
L 315.927458 139.099648 
L 314.225085 130.017378 
L 312.522712 156.662844 
L 310.820339 129.602399 
L 309.117966 144.887767 
L 307.415593 168.15255 
L 305.71322 164.743413 
L 304.010847 166.996383 
L 302.308475 145.914894 
L 300.606102 135.459523 
L 298.903729 142.098261 
L 297.201356 149.105573 
L 295.498983 161.666122 
L 293.79661 152.820048 
L 292.094237 166.001161 
L 290.391864 128.227509 
L 288.689492 156.871326 
L 286.987119 159.573262 
L 285.284746 140.820581 
L 283.582373 157.302171 
L 281.88 153.06971 
L 280.177627 169.51465 
L 278.475254 159.88231 
L 276.772881 130.254979 
L 275.070508 141.804407 
L 273.368136 132.631932 
L 271.665763 132.264771 
L 269.96339 141.69192 
L 268.261017 151.35592 
L 266.558644 134.049182 
L 264.856271 137.614123 
z
" style="fill:#0000ff;fill-opacity:0.3;stroke:#0000ff;stroke-opacity:0.3;"/>
   </g>
   <g id="matplotlib.axis_1">
    <g id="xtick_1">
     <g id="line2d_1">
      <defs>
       <path d="M 0 0 
L 0 3.5 
" id="m4837dafba7" style="stroke:#000000;stroke-width:0.8;"/>
      </defs>
      <g>
       <use style="stroke:#000000;stroke-width:0.8;" x="162.62878" xlink:href="#m4837dafba7" y="192.24"/>
      </g>
     </g>
     <g id="text_1">
      <!-- 0.0 -->
      <defs>
       <path d="M 31.78125 66.40625 
Q 24.171875 66.40625 20.328125 58.90625 
Q 16.5 51.421875 16.5 36.375 
Q 16.5 21.390625 20.328125 13.890625 
Q 24.171875 6.390625 31.78125 6.390625 
Q 39.453125 6.390625 43.28125 13.890625 
Q 47.125 21.390625 47.125 36.375 
Q 47.125 51.421875 43.28125 58.90625 
Q 39.453125 66.40625 31.78125 66.40625 
z
M 31.78125 74.21875 
Q 44.046875 74.21875 50.515625 64.515625 
Q 56.984375 54.828125 56.984375 36.375 
Q 56.984375 17.96875 50.515625 8.265625 
Q 44.046875 -1.421875 31.78125 -1.421875 
Q 19.53125 -1.421875 13.0625 8.265625 
Q 6.59375 17.96875 6.59375 36.375 
Q 6.59375 54.828125 13.0625 64.515625 
Q 19.53125 74.21875 31.78125 74.21875 
z
" id="DejaVuSans-48"/>
       <path d="M 10.6875 12.40625 
L 21 12.40625 
L 21 0 
L 10.6875 0 
z
" id="DejaVuSans-46"/>
      </defs>
      <g transform="translate(153.086905 208.358125)scale(0.12 -0.12)">
       <use xlink:href="#DejaVuSans-48"/>
       <use x="63.623047" xlink:href="#DejaVuSans-46"/>
       <use x="95.410156" xlink:href="#DejaVuSans-48"/>
      </g>
     </g>
    </g>
    <g id="xtick_2">
     <g id="line2d_2">
      <g>
       <use style="stroke:#000000;stroke-width:0.8;" x="247.747424" xlink:href="#m4837dafba7" y="192.24"/>
      </g>
     </g>
     <g id="text_2">
      <!-- 0.5 -->
      <defs>
       <path d="M 10.796875 72.90625 
L 49.515625 72.90625 
L 49.515625 64.59375 
L 19.828125 64.59375 
L 19.828125 46.734375 
Q 21.96875 47.46875 24.109375 47.828125 
Q 26.265625 48.1875 28.421875 48.1875 
Q 40.625 48.1875 47.75 41.5 
Q 54.890625 34.8125 54.890625 23.390625 
Q 54.890625 11.625 47.5625 5.09375 
Q 40.234375 -1.421875 26.90625 -1.421875 
Q 22.3125 -1.421875 17.546875 -0.640625 
Q 12.796875 0.140625 7.71875 1.703125 
L 7.71875 11.625 
Q 12.109375 9.234375 16.796875 8.0625 
Q 21.484375 6.890625 26.703125 6.890625 
Q 35.15625 6.890625 40.078125 11.328125 
Q 45.015625 15.765625 45.015625 23.390625 
Q 45.015625 31 40.078125 35.4375 
Q 35.15625 39.890625 26.703125 39.890625 
Q 22.75 39.890625 18.8125 39.015625 
Q 14.890625 38.140625 10.796875 36.28125 
z
" id="DejaVuSans-53"/>
      </defs>
      <g transform="translate(238.205549 208.358125)scale(0.12 -0.12)">
       <use xlink:href="#DejaVuSans-48"/>
       <use x="63.623047" xlink:href="#DejaVuSans-46"/>
       <use x="95.410156" xlink:href="#DejaVuSans-53"/>
      </g>
     </g>
    </g>
    <g id="xtick_3">
     <g id="line2d_3">
      <g>
       <use style="stroke:#000000;stroke-width:0.8;" x="332.866068" xlink:href="#m4837dafba7" y="192.24"/>
      </g>
     </g>
     <g id="text_3">
      <!-- 1.0 -->
      <defs>
       <path d="M 12.40625 8.296875 
L 28.515625 8.296875 
L 28.515625 63.921875 
L 10.984375 60.40625 
L 10.984375 69.390625 
L 28.421875 72.90625 
L 38.28125 72.90625 
L 38.28125 8.296875 
L 54.390625 8.296875 
L 54.390625 0 
L 12.40625 0 
z
" id="DejaVuSans-49"/>
      </defs>
      <g transform="translate(323.324193 208.358125)scale(0.12 -0.12)">
       <use xlink:href="#DejaVuSans-49"/>
       <use x="63.623047" xlink:href="#DejaVuSans-46"/>
       <use x="95.410156" xlink:href="#DejaVuSans-48"/>
      </g>
     </g>
    </g>
    <g id="xtick_4">
     <g id="line2d_4">
      <g>
       <use style="stroke:#000000;stroke-width:0.8;" x="417.984712" xlink:href="#m4837dafba7" y="192.24"/>
      </g>
     </g>
     <g id="text_4">
      <!-- 1.5 -->
      <g transform="translate(408.442837 208.358125)scale(0.12 -0.12)">
       <use xlink:href="#DejaVuSans-49"/>
       <use x="63.623047" xlink:href="#DejaVuSans-46"/>
       <use x="95.410156" xlink:href="#DejaVuSans-53"/>
      </g>
     </g>
    </g>
    <g id="xtick_5">
     <g id="line2d_5">
      <g>
       <use style="stroke:#000000;stroke-width:0.8;" x="503.103356" xlink:href="#m4837dafba7" y="192.24"/>
      </g>
     </g>
     <g id="text_5">
      <!-- 2.0 -->
      <defs>
       <path d="M 19.1875 8.296875 
L 53.609375 8.296875 
L 53.609375 0 
L 7.328125 0 
L 7.328125 8.296875 
Q 12.9375 14.109375 22.625 23.890625 
Q 32.328125 33.6875 34.8125 36.53125 
Q 39.546875 41.84375 41.421875 45.53125 
Q 43.3125 49.21875 43.3125 52.78125 
Q 43.3125 58.59375 39.234375 62.25 
Q 35.15625 65.921875 28.609375 65.921875 
Q 23.96875 65.921875 18.8125 64.3125 
Q 13.671875 62.703125 7.8125 59.421875 
L 7.8125 69.390625 
Q 13.765625 71.78125 18.9375 73 
Q 24.125 74.21875 28.421875 74.21875 
Q 39.75 74.21875 46.484375 68.546875 
Q 53.21875 62.890625 53.21875 53.421875 
Q 53.21875 48.921875 51.53125 44.890625 
Q 49.859375 40.875 45.40625 35.40625 
Q 44.1875 33.984375 37.640625 27.21875 
Q 31.109375 20.453125 19.1875 8.296875 
z
" id="DejaVuSans-50"/>
      </defs>
      <g transform="translate(493.561481 208.358125)scale(0.12 -0.12)">
       <use xlink:href="#DejaVuSans-50"/>
       <use x="63.623047" xlink:href="#DejaVuSans-46"/>
       <use x="95.410156" xlink:href="#DejaVuSans-48"/>
      </g>
     </g>
    </g>
    <g id="text_6">
     <!-- Time (s) -->
     <defs>
      <path d="M -0.296875 72.90625 
L 61.375 72.90625 
L 61.375 64.59375 
L 35.5 64.59375 
L 35.5 0 
L 25.59375 0 
L 25.59375 64.59375 
L -0.296875 64.59375 
z
" id="DejaVuSans-84"/>
      <path d="M 9.421875 54.6875 
L 18.40625 54.6875 
L 18.40625 0 
L 9.421875 0 
z
M 9.421875 75.984375 
L 18.40625 75.984375 
L 18.40625 64.59375 
L 9.421875 64.59375 
z
" id="DejaVuSans-105"/>
      <path d="M 52 44.1875 
Q 55.375 50.25 60.0625 53.125 
Q 64.75 56 71.09375 56 
Q 79.640625 56 84.28125 50.015625 
Q 88.921875 44.046875 88.921875 33.015625 
L 88.921875 0 
L 79.890625 0 
L 79.890625 32.71875 
Q 79.890625 40.578125 77.09375 44.375 
Q 74.3125 48.1875 68.609375 48.1875 
Q 61.625 48.1875 57.5625 43.546875 
Q 53.515625 38.921875 53.515625 30.90625 
L 53.515625 0 
L 44.484375 0 
L 44.484375 32.71875 
Q 44.484375 40.625 41.703125 44.40625 
Q 38.921875 48.1875 33.109375 48.1875 
Q 26.21875 48.1875 22.15625 43.53125 
Q 18.109375 38.875 18.109375 30.90625 
L 18.109375 0 
L 9.078125 0 
L 9.078125 54.6875 
L 18.109375 54.6875 
L 18.109375 46.1875 
Q 21.1875 51.21875 25.484375 53.609375 
Q 29.78125 56 35.6875 56 
Q 41.65625 56 45.828125 52.96875 
Q 50 49.953125 52 44.1875 
z
" id="DejaVuSans-109"/>
      <path d="M 56.203125 29.59375 
L 56.203125 25.203125 
L 14.890625 25.203125 
Q 15.484375 15.921875 20.484375 11.0625 
Q 25.484375 6.203125 34.421875 6.203125 
Q 39.59375 6.203125 44.453125 7.46875 
Q 49.3125 8.734375 54.109375 11.28125 
L 54.109375 2.78125 
Q 49.265625 0.734375 44.1875 -0.34375 
Q 39.109375 -1.421875 33.890625 -1.421875 
Q 20.796875 -1.421875 13.15625 6.1875 
Q 5.515625 13.8125 5.515625 26.8125 
Q 5.515625 40.234375 12.765625 48.109375 
Q 20.015625 56 32.328125 56 
Q 43.359375 56 49.78125 48.890625 
Q 56.203125 41.796875 56.203125 29.59375 
z
M 47.21875 32.234375 
Q 47.125 39.59375 43.09375 43.984375 
Q 39.0625 48.390625 32.421875 48.390625 
Q 24.90625 48.390625 20.390625 44.140625 
Q 15.875 39.890625 15.1875 32.171875 
z
" id="DejaVuSans-101"/>
      <path id="DejaVuSans-32"/>
      <path d="M 31 75.875 
Q 24.46875 64.65625 21.28125 53.65625 
Q 18.109375 42.671875 18.109375 31.390625 
Q 18.109375 20.125 21.3125 9.0625 
Q 24.515625 -2 31 -13.1875 
L 23.1875 -13.1875 
Q 15.875 -1.703125 12.234375 9.375 
Q 8.59375 20.453125 8.59375 31.390625 
Q 8.59375 42.28125 12.203125 53.3125 
Q 15.828125 64.359375 23.1875 75.875 
z
" id="DejaVuSans-40"/>
      <path d="M 44.28125 53.078125 
L 44.28125 44.578125 
Q 40.484375 46.53125 36.375 47.5 
Q 32.28125 48.484375 27.875 48.484375 
Q 21.1875 48.484375 17.84375 46.4375 
Q 14.5 44.390625 14.5 40.28125 
Q 14.5 37.15625 16.890625 35.375 
Q 19.28125 33.59375 26.515625 31.984375 
L 29.59375 31.296875 
Q 39.15625 29.25 43.1875 25.515625 
Q 47.21875 21.78125 47.21875 15.09375 
Q 47.21875 7.46875 41.1875 3.015625 
Q 35.15625 -1.421875 24.609375 -1.421875 
Q 20.21875 -1.421875 15.453125 -0.5625 
Q 10.6875 0.296875 5.421875 2 
L 5.421875 11.28125 
Q 10.40625 8.6875 15.234375 7.390625 
Q 20.0625 6.109375 24.8125 6.109375 
Q 31.15625 6.109375 34.5625 8.28125 
Q 37.984375 10.453125 37.984375 14.40625 
Q 37.984375 18.0625 35.515625 20.015625 
Q 33.0625 21.96875 24.703125 23.78125 
L 21.578125 24.515625 
Q 13.234375 26.265625 9.515625 29.90625 
Q 5.8125 33.546875 5.8125 39.890625 
Q 5.8125 47.609375 11.28125 51.796875 
Q 16.75 56 26.8125 56 
Q 31.78125 56 36.171875 55.265625 
Q 40.578125 54.546875 44.28125 53.078125 
z
" id="DejaVuSans-115"/>
      <path d="M 8.015625 75.875 
L 15.828125 75.875 
Q 23.140625 64.359375 26.78125 53.3125 
Q 30.421875 42.28125 30.421875 31.390625 
Q 30.421875 20.453125 26.78125 9.375 
Q 23.140625 -1.703125 15.828125 -13.1875 
L 8.015625 -13.1875 
Q 14.5 -2 17.703125 9.0625 
Q 20.90625 20.125 20.90625 31.390625 
Q 20.90625 42.671875 17.703125 53.65625 
Q 14.5 64.65625 8.015625 75.875 
z
" id="DejaVuSans-41"/>
     </defs>
     <g transform="translate(302.60475 225.7955)scale(0.144 -0.144)">
      <use xlink:href="#DejaVuSans-84"/>
      <use x="61.037109" xlink:href="#DejaVuSans-105"/>
      <use x="88.820312" xlink:href="#DejaVuSans-109"/>
      <use x="186.232422" xlink:href="#DejaVuSans-101"/>
      <use x="247.755859" xlink:href="#DejaVuSans-32"/>
      <use x="279.542969" xlink:href="#DejaVuSans-40"/>
      <use x="318.556641" xlink:href="#DejaVuSans-115"/>
      <use x="370.65625" xlink:href="#DejaVuSans-41"/>
     </g>
    </g>
   </g>
   <g id="matplotlib.axis_2">
    <g id="ytick_1">
     <g id="line2d_6">
      <defs>
       <path d="M 0 0 
L -3.5 0 
" id="m51b5d07e13" style="stroke:#000000;stroke-width:0.8;"/>
      </defs>
      <g>
       <use style="stroke:#000000;stroke-width:0.8;" x="81" xlink:href="#m51b5d07e13" y="189.62947"/>
      </g>
     </g>
     <g id="text_7">
      <!-- −0.015 -->
      <defs>
       <path d="M 10.59375 35.5 
L 73.1875 35.5 
L 73.1875 27.203125 
L 10.59375 27.203125 
z
" id="DejaVuSans-8722"/>
      </defs>
      <g transform="translate(29.590625 194.188532)scale(0.12 -0.12)">
       <use xlink:href="#DejaVuSans-8722"/>
       <use x="83.789062" xlink:href="#DejaVuSans-48"/>
       <use x="147.412109" xlink:href="#DejaVuSans-46"/>
       <use x="179.199219" xlink:href="#DejaVuSans-48"/>
       <use x="242.822266" xlink:href="#DejaVuSans-49"/>
       <use x="306.445312" xlink:href="#DejaVuSans-53"/>
      </g>
     </g>
    </g>
    <g id="ytick_2">
     <g id="line2d_7">
      <g>
       <use style="stroke:#000000;stroke-width:0.8;" x="81" xlink:href="#m51b5d07e13" y="167.691092"/>
      </g>
     </g>
     <g id="text_8">
      <!-- −0.010 -->
      <g transform="translate(29.590625 172.250154)scale(0.12 -0.12)">
       <use xlink:href="#DejaVuSans-8722"/>
       <use x="83.789062" xlink:href="#DejaVuSans-48"/>
       <use x="147.412109" xlink:href="#DejaVuSans-46"/>
       <use x="179.199219" xlink:href="#DejaVuSans-48"/>
       <use x="242.822266" xlink:href="#DejaVuSans-49"/>
       <use x="306.445312" xlink:href="#DejaVuSans-48"/>
      </g>
     </g>
    </g>
    <g id="ytick_3">
     <g id="line2d_8">
      <g>
       <use style="stroke:#000000;stroke-width:0.8;" x="81" xlink:href="#m51b5d07e13" y="145.752714"/>
      </g>
     </g>
     <g id="text_9">
      <!-- −0.005 -->
      <g transform="translate(29.590625 150.311777)scale(0.12 -0.12)">
       <use xlink:href="#DejaVuSans-8722"/>
       <use x="83.789062" xlink:href="#DejaVuSans-48"/>
       <use x="147.412109" xlink:href="#DejaVuSans-46"/>
       <use x="179.199219" xlink:href="#DejaVuSans-48"/>
       <use x="242.822266" xlink:href="#DejaVuSans-48"/>
       <use x="306.445312" xlink:href="#DejaVuSans-53"/>
      </g>
     </g>
    </g>
    <g id="ytick_4">
     <g id="line2d_9">
      <g>
       <use style="stroke:#000000;stroke-width:0.8;" x="81" xlink:href="#m51b5d07e13" y="123.814336"/>
      </g>
     </g>
     <g id="text_10">
      <!-- 0.000 -->
      <g transform="translate(39.64625 128.373399)scale(0.12 -0.12)">
       <use xlink:href="#DejaVuSans-48"/>
       <use x="63.623047" xlink:href="#DejaVuSans-46"/>
       <use x="95.410156" xlink:href="#DejaVuSans-48"/>
       <use x="159.033203" xlink:href="#DejaVuSans-48"/>
       <use x="222.65625" xlink:href="#DejaVuSans-48"/>
      </g>
     </g>
    </g>
    <g id="ytick_5">
     <g id="line2d_10">
      <g>
       <use style="stroke:#000000;stroke-width:0.8;" x="81" xlink:href="#m51b5d07e13" y="101.875959"/>
      </g>
     </g>
     <g id="text_11">
      <!-- 0.005 -->
      <g transform="translate(39.64625 106.435021)scale(0.12 -0.12)">
       <use xlink:href="#DejaVuSans-48"/>
       <use x="63.623047" xlink:href="#DejaVuSans-46"/>
       <use x="95.410156" xlink:href="#DejaVuSans-48"/>
       <use x="159.033203" xlink:href="#DejaVuSans-48"/>
       <use x="222.65625" xlink:href="#DejaVuSans-53"/>
      </g>
     </g>
    </g>
    <g id="ytick_6">
     <g id="line2d_11">
      <g>
       <use style="stroke:#000000;stroke-width:0.8;" x="81" xlink:href="#m51b5d07e13" y="79.937581"/>
      </g>
     </g>
     <g id="text_12">
      <!-- 0.010 -->
      <g transform="translate(39.64625 84.496644)scale(0.12 -0.12)">
       <use xlink:href="#DejaVuSans-48"/>
       <use x="63.623047" xlink:href="#DejaVuSans-46"/>
       <use x="95.410156" xlink:href="#DejaVuSans-48"/>
       <use x="159.033203" xlink:href="#DejaVuSans-49"/>
       <use x="222.65625" xlink:href="#DejaVuSans-48"/>
      </g>
     </g>
    </g>
    <g id="ytick_7">
     <g id="line2d_12">
      <g>
       <use style="stroke:#000000;stroke-width:0.8;" x="81" xlink:href="#m51b5d07e13" y="57.999203"/>
      </g>
     </g>
     <g id="text_13">
      <!-- 0.015 -->
      <g transform="translate(39.64625 62.558266)scale(0.12 -0.12)">
       <use xlink:href="#DejaVuSans-48"/>
       <use x="63.623047" xlink:href="#DejaVuSans-46"/>
       <use x="95.410156" xlink:href="#DejaVuSans-48"/>
       <use x="159.033203" xlink:href="#DejaVuSans-49"/>
       <use x="222.65625" xlink:href="#DejaVuSans-53"/>
      </g>
     </g>
    </g>
    <g id="ytick_8">
     <g id="line2d_13">
      <g>
       <use style="stroke:#000000;stroke-width:0.8;" x="81" xlink:href="#m51b5d07e13" y="36.060826"/>
      </g>
     </g>
     <g id="text_14">
      <!-- 0.020 -->
      <g transform="translate(39.64625 40.619888)scale(0.12 -0.12)">
       <use xlink:href="#DejaVuSans-48"/>
       <use x="63.623047" xlink:href="#DejaVuSans-46"/>
       <use x="95.410156" xlink:href="#DejaVuSans-48"/>
       <use x="159.033203" xlink:href="#DejaVuSans-50"/>
       <use x="222.65625" xlink:href="#DejaVuSans-48"/>
      </g>
     </g>
    </g>
    <g id="text_15">
     <!-- Avg. Corr. Coef. -->
     <defs>
      <path d="M 34.1875 63.1875 
L 20.796875 26.90625 
L 47.609375 26.90625 
z
M 28.609375 72.90625 
L 39.796875 72.90625 
L 67.578125 0 
L 57.328125 0 
L 50.6875 18.703125 
L 17.828125 18.703125 
L 11.1875 0 
L 0.78125 0 
z
" id="DejaVuSans-65"/>
      <path d="M 2.984375 54.6875 
L 12.5 54.6875 
L 29.59375 8.796875 
L 46.6875 54.6875 
L 56.203125 54.6875 
L 35.6875 0 
L 23.484375 0 
z
" id="DejaVuSans-118"/>
      <path d="M 45.40625 27.984375 
Q 45.40625 37.75 41.375 43.109375 
Q 37.359375 48.484375 30.078125 48.484375 
Q 22.859375 48.484375 18.828125 43.109375 
Q 14.796875 37.75 14.796875 27.984375 
Q 14.796875 18.265625 18.828125 12.890625 
Q 22.859375 7.515625 30.078125 7.515625 
Q 37.359375 7.515625 41.375 12.890625 
Q 45.40625 18.265625 45.40625 27.984375 
z
M 54.390625 6.78125 
Q 54.390625 -7.171875 48.1875 -13.984375 
Q 42 -20.796875 29.203125 -20.796875 
Q 24.46875 -20.796875 20.265625 -20.09375 
Q 16.0625 -19.390625 12.109375 -17.921875 
L 12.109375 -9.1875 
Q 16.0625 -11.328125 19.921875 -12.34375 
Q 23.78125 -13.375 27.78125 -13.375 
Q 36.625 -13.375 41.015625 -8.765625 
Q 45.40625 -4.15625 45.40625 5.171875 
L 45.40625 9.625 
Q 42.625 4.78125 38.28125 2.390625 
Q 33.9375 0 27.875 0 
Q 17.828125 0 11.671875 7.65625 
Q 5.515625 15.328125 5.515625 27.984375 
Q 5.515625 40.671875 11.671875 48.328125 
Q 17.828125 56 27.875 56 
Q 33.9375 56 38.28125 53.609375 
Q 42.625 51.21875 45.40625 46.390625 
L 45.40625 54.6875 
L 54.390625 54.6875 
z
" id="DejaVuSans-103"/>
      <path d="M 64.40625 67.28125 
L 64.40625 56.890625 
Q 59.421875 61.53125 53.78125 63.8125 
Q 48.140625 66.109375 41.796875 66.109375 
Q 29.296875 66.109375 22.65625 58.46875 
Q 16.015625 50.828125 16.015625 36.375 
Q 16.015625 21.96875 22.65625 14.328125 
Q 29.296875 6.6875 41.796875 6.6875 
Q 48.140625 6.6875 53.78125 8.984375 
Q 59.421875 11.28125 64.40625 15.921875 
L 64.40625 5.609375 
Q 59.234375 2.09375 53.4375 0.328125 
Q 47.65625 -1.421875 41.21875 -1.421875 
Q 24.65625 -1.421875 15.125 8.703125 
Q 5.609375 18.84375 5.609375 36.375 
Q 5.609375 53.953125 15.125 64.078125 
Q 24.65625 74.21875 41.21875 74.21875 
Q 47.75 74.21875 53.53125 72.484375 
Q 59.328125 70.75 64.40625 67.28125 
z
" id="DejaVuSans-67"/>
      <path d="M 30.609375 48.390625 
Q 23.390625 48.390625 19.1875 42.75 
Q 14.984375 37.109375 14.984375 27.296875 
Q 14.984375 17.484375 19.15625 11.84375 
Q 23.34375 6.203125 30.609375 6.203125 
Q 37.796875 6.203125 41.984375 11.859375 
Q 46.1875 17.53125 46.1875 27.296875 
Q 46.1875 37.015625 41.984375 42.703125 
Q 37.796875 48.390625 30.609375 48.390625 
z
M 30.609375 56 
Q 42.328125 56 49.015625 48.375 
Q 55.71875 40.765625 55.71875 27.296875 
Q 55.71875 13.875 49.015625 6.21875 
Q 42.328125 -1.421875 30.609375 -1.421875 
Q 18.84375 -1.421875 12.171875 6.21875 
Q 5.515625 13.875 5.515625 27.296875 
Q 5.515625 40.765625 12.171875 48.375 
Q 18.84375 56 30.609375 56 
z
" id="DejaVuSans-111"/>
      <path d="M 41.109375 46.296875 
Q 39.59375 47.171875 37.8125 47.578125 
Q 36.03125 48 33.890625 48 
Q 26.265625 48 22.1875 43.046875 
Q 18.109375 38.09375 18.109375 28.8125 
L 18.109375 0 
L 9.078125 0 
L 9.078125 54.6875 
L 18.109375 54.6875 
L 18.109375 46.1875 
Q 20.953125 51.171875 25.484375 53.578125 
Q 30.03125 56 36.53125 56 
Q 37.453125 56 38.578125 55.875 
Q 39.703125 55.765625 41.0625 55.515625 
z
" id="DejaVuSans-114"/>
      <path d="M 37.109375 75.984375 
L 37.109375 68.5 
L 28.515625 68.5 
Q 23.6875 68.5 21.796875 66.546875 
Q 19.921875 64.59375 19.921875 59.515625 
L 19.921875 54.6875 
L 34.71875 54.6875 
L 34.71875 47.703125 
L 19.921875 47.703125 
L 19.921875 0 
L 10.890625 0 
L 10.890625 47.703125 
L 2.296875 47.703125 
L 2.296875 54.6875 
L 10.890625 54.6875 
L 10.890625 58.5 
Q 10.890625 67.625 15.140625 71.796875 
Q 19.390625 75.984375 28.609375 75.984375 
z
" id="DejaVuSans-102"/>
     </defs>
     <g transform="translate(22.595875 166.005)rotate(-90)scale(0.144 -0.144)">
      <use xlink:href="#DejaVuSans-65"/>
      <use x="68.330078" xlink:href="#DejaVuSans-118"/>
      <use x="127.509766" xlink:href="#DejaVuSans-103"/>
      <use x="190.986328" xlink:href="#DejaVuSans-46"/>
      <use x="222.773438" xlink:href="#DejaVuSans-32"/>
      <use x="254.560547" xlink:href="#DejaVuSans-67"/>
      <use x="324.384766" xlink:href="#DejaVuSans-111"/>
      <use x="385.566406" xlink:href="#DejaVuSans-114"/>
      <use x="426.664062" xlink:href="#DejaVuSans-114"/>
      <use x="467.636719" xlink:href="#DejaVuSans-46"/>
      <use x="499.423828" xlink:href="#DejaVuSans-32"/>
      <use x="531.210938" xlink:href="#DejaVuSans-67"/>
      <use x="601.035156" xlink:href="#DejaVuSans-111"/>
      <use x="662.216797" xlink:href="#DejaVuSans-101"/>
      <use x="723.740234" xlink:href="#DejaVuSans-102"/>
      <use x="758.835938" xlink:href="#DejaVuSans-46"/>
     </g>
    </g>
   </g>
   <g id="line2d_14">
    <path clip-path="url(#p86ceb73def)" d="M 81 168.134291 
L 82.702373 173.692442 
L 84.404746 168.134291 
L 86.107119 136.508279 
L 89.511864 168.134291 
L 91.214237 168.134291 
L 92.91661 182.255089 
L 94.618983 168.134291 
L 96.321356 137.93151 
L 98.023729 154.237895 
L 99.726102 161.126901 
L 101.428475 153.84407 
L 103.130847 153.357846 
M 106.535593 153.39464 
L 108.237966 156.565596 
L 109.940339 156.813741 
L 111.642712 158.215849 
L 113.345085 157.805042 
L 115.047458 148.551719 
L 116.749831 170.189513 
L 118.452203 154.644843 
L 120.154576 164.259826 
L 121.856949 147.251604 
L 123.559322 150.014942 
L 125.261695 161.431013 
L 126.964068 170.852776 
L 128.666441 172.093272 
L 130.368814 158.528579 
L 132.071186 152.165564 
L 135.475932 125.877902 
L 137.178305 158.236085 
L 138.880678 137.863313 
L 140.583051 162.950671 
L 142.285424 133.254544 
L 143.987797 139.184564 
L 145.690169 154.008916 
L 147.392542 141.505863 
L 149.094915 142.134125 
L 150.797288 126.428045 
L 152.499661 145.827694 
L 154.202034 137.301811 
L 155.904407 161.38174 
L 157.60678 153.691908 
L 159.309153 162.096386 
L 161.011525 150.213078 
L 162.713898 148.946014 
L 164.416271 166.263096 
L 166.118644 168.134291 
L 167.821017 147.547015 
L 171.225763 135.320914 
L 172.928136 155.667367 
L 174.630508 143.490508 
L 176.332881 141.712064 
L 178.035254 143.039854 
L 179.737627 161.444801 
L 181.44 154.81941 
L 183.142373 168.326619 
L 184.844746 149.891187 
L 186.547119 153.344223 
L 188.249492 169.100814 
L 189.951864 159.01047 
L 191.654237 145.595256 
L 193.35661 160.510024 
L 195.058983 166.060318 
L 196.761356 164.35866 
L 198.463729 159.131703 
L 200.166102 144.071376 
L 201.868475 132.958469 
L 203.570847 135.338165 
L 205.27322 138.274991 
L 206.975593 130.037219 
L 208.677966 152.767711 
L 210.380339 146.963244 
L 212.082712 152.019648 
L 213.785085 168.134291 
L 215.487458 158.124272 
L 217.189831 143.357528 
L 218.892203 145.620116 
L 220.594576 146.867978 
L 222.296949 141.41764 
L 223.999322 170.604581 
L 225.701695 152.95571 
L 227.404068 171.998932 
L 229.106441 133.990877 
L 230.808814 168.134291 
L 232.511186 156.742508 
L 234.213559 162.546023 
L 235.915932 148.021108 
L 237.618305 128.145563 
L 239.320678 150.402865 
L 241.023051 153.598202 
L 242.725424 154.123623 
L 244.427797 130.359881 
L 246.130169 153.707704 
L 247.832542 141.017629 
L 249.534915 144.197841 
L 251.237288 143.771352 
L 252.939661 157.588627 
L 254.642034 132.981547 
L 256.344407 145.374976 
L 258.04678 149.089748 
L 259.749153 159.71143 
L 261.451525 124.121878 
M 264.856271 142.555027 
L 266.558644 136.682225 
L 268.261017 157.617592 
L 269.96339 154.0857 
L 271.665763 137.239294 
L 273.368136 140.963841 
L 275.070508 145.492407 
L 276.772881 133.929706 
L 278.475254 168.096578 
L 280.177627 171.490788 
L 281.88 158.709809 
L 283.582373 162.301949 
L 285.284746 146.775574 
L 286.987119 165.425313 
L 288.689492 160.983259 
L 290.391864 131.101729 
L 292.094237 167.830659 
L 293.79661 158.856587 
L 295.498983 165.266345 
L 297.201356 153.58597 
L 298.903729 148.843607 
L 300.606102 139.809123 
L 302.308475 150.39659 
L 304.010847 170.006828 
L 305.71322 167.517183 
L 307.415593 168.453555 
L 309.117966 151.016118 
L 310.820339 131.863392 
L 312.522712 160.794716 
L 314.225085 133.984958 
L 315.927458 143.556248 
L 317.629831 130.332475 
L 319.332203 149.581693 
L 321.034576 85.500543 
L 322.736949 158.664639 
L 324.439322 163.144096 
L 326.141695 156.050804 
L 327.844068 147.556166 
L 329.546441 144.338661 
L 331.248814 128.420489 
L 332.951186 168.134291 
L 334.653559 153.381306 
L 336.355932 155.524142 
L 338.058305 148.325341 
L 339.760678 144.515287 
L 341.463051 156.566918 
L 344.867797 138.074762 
L 346.570169 152.074893 
L 348.272542 161.836811 
L 349.974915 147.436333 
L 351.677288 155.968302 
L 355.082034 168.422996 
L 356.784407 164.257562 
L 358.48678 154.378311 
L 360.189153 142.205761 
L 361.891525 147.661395 
L 363.593898 170.187793 
L 365.296271 164.636772 
L 366.998644 151.843316 
L 368.701017 149.014522 
L 370.40339 151.017604 
L 372.105763 164.12687 
L 373.808136 168.134291 
L 375.510508 149.940759 
L 377.212881 151.263643 
L 378.915254 153.280625 
L 380.617627 168.134291 
L 382.32 130.217098 
L 384.022373 159.152896 
L 385.724746 142.445835 
L 387.427119 137.035476 
L 389.129492 150.426748 
L 390.831864 159.994406 
L 392.534237 159.184116 
L 394.23661 159.443099 
L 395.938983 163.056805 
L 397.641356 161.543528 
L 399.343729 129.125733 
L 401.046102 140.756054 
L 402.748475 142.675841 
L 404.450847 126.664313 
L 406.15322 130.801856 
L 407.855593 168.302999 
L 409.557966 137.507501 
L 411.260339 140.00886 
L 412.962712 149.943489 
L 414.665085 146.976951 
L 416.367458 138.792307 
L 418.069831 140.318172 
L 419.772203 155.892503 
L 421.474576 134.145407 
L 423.176949 127.474971 
L 424.879322 160.954786 
L 426.581695 149.21468 
L 428.284068 155.287139 
L 429.986441 133.797962 
L 431.688814 139.428779 
L 433.391186 143.826156 
L 435.093559 151.479999 
L 436.795932 140.310919 
L 438.498305 150.229566 
L 440.200678 161.768992 
L 441.903051 139.802789 
L 443.605424 149.833355 
L 445.307797 168.362533 
L 447.010169 162.593102 
L 448.712542 166.254276 
L 450.414915 118.790247 
L 452.117288 152.614666 
L 453.819661 155.928573 
L 455.522034 161.492782 
L 457.224407 143.523054 
L 458.92678 169.916099 
L 460.629153 142.727237 
L 462.331525 160.627139 
L 464.033898 156.529225 
L 465.736271 168.134291 
L 467.438644 167.366948 
L 469.141017 157.130557 
L 470.84339 153.371965 
L 472.545763 149.116446 
L 474.248136 144.466553 
L 475.950508 131.671655 
L 477.652881 151.103799 
L 479.355254 151.550783 
L 481.057627 168.134291 
L 482.76 159.925987 
L 484.462373 155.024727 
L 486.164746 157.109658 
L 487.867119 152.631489 
L 489.569492 134.452172 
L 491.271864 124.555749 
L 492.974237 125.509161 
L 494.67661 127.60115 
L 496.378983 126.843911 
L 498.081356 125.799445 
L 499.783729 129.028276 
L 501.486102 128.021735 
L 503.188475 125.008312 
L 504.890847 127.083906 
L 506.59322 127.288051 
L 508.295593 130.404885 
L 509.997966 127.569974 
L 511.700339 132.568261 
L 513.402712 125.53481 
L 515.105085 124.388379 
L 516.807458 125.234509 
L 518.509831 129.52938 
L 520.212203 130.238234 
L 521.914576 137.657642 
L 523.616949 133.379608 
L 525.319322 128.246143 
L 527.021695 133.050542 
L 528.724068 133.466282 
L 530.426441 127.97131 
L 532.128814 128.141856 
L 533.831186 127.461532 
L 535.533559 129.432635 
L 537.235932 133.606294 
L 538.938305 131.941459 
L 540.640678 139.961116 
L 542.343051 130.496451 
L 544.045424 138.100533 
L 545.747797 148.572334 
L 547.450169 143.590187 
L 549.152542 152.414163 
L 550.854915 136.118958 
L 552.557288 158.314726 
L 554.259661 135.992914 
L 555.962034 142.277175 
L 557.664407 137.033752 
L 559.36678 145.176548 
L 561.069153 142.440523 
L 562.771525 153.699545 
L 564.473898 127.921191 
L 566.176271 163.130345 
L 567.878644 158.898903 
L 569.581017 151.939997 
L 571.28339 156.960758 
L 572.985763 159.455664 
L 574.688136 138.809203 
L 576.390508 174.94612 
L 578.092881 168.134291 
L 579.795254 166.645736 
L 581.497627 150.19099 
L 583.2 168.134291 
L 583.2 168.134291 
" style="fill:none;stroke:#0000ff;stroke-linecap:square;stroke-width:1.5;"/>
   </g>
   <g id="patch_3">
    <path d="M 81 192.24 
L 81 25.92 
" style="fill:none;stroke:#000000;stroke-linecap:square;stroke-linejoin:miter;stroke-width:0.8;"/>
   </g>
   <g id="patch_4">
    <path d="M 583.2 192.24 
L 583.2 25.92 
" style="fill:none;stroke:#000000;stroke-linecap:square;stroke-linejoin:miter;stroke-width:0.8;"/>
   </g>
   <g id="patch_5">
    <path d="M 81 192.24 
L 583.2 192.24 
" style="fill:none;stroke:#000000;stroke-linecap:square;stroke-linejoin:miter;stroke-width:0.8;"/>
   </g>
   <g id="patch_6">
    <path d="M 81 25.92 
L 583.2 25.92 
" style="fill:none;stroke:#000000;stroke-linecap:square;stroke-linejoin:miter;stroke-width:0.8;"/>
   </g>
   <g id="text_16">
    <!-- Striatum, Num Trials=160 All stimulated trials -->
    <defs>
     <path d="M 53.515625 70.515625 
L 53.515625 60.890625 
Q 47.90625 63.578125 42.921875 64.890625 
Q 37.9375 66.21875 33.296875 66.21875 
Q 25.25 66.21875 20.875 63.09375 
Q 16.5 59.96875 16.5 54.203125 
Q 16.5 49.359375 19.40625 46.890625 
Q 22.3125 44.4375 30.421875 42.921875 
L 36.375 41.703125 
Q 47.40625 39.59375 52.65625 34.296875 
Q 57.90625 29 57.90625 20.125 
Q 57.90625 9.515625 50.796875 4.046875 
Q 43.703125 -1.421875 29.984375 -1.421875 
Q 24.8125 -1.421875 18.96875 -0.25 
Q 13.140625 0.921875 6.890625 3.21875 
L 6.890625 13.375 
Q 12.890625 10.015625 18.65625 8.296875 
Q 24.421875 6.59375 29.984375 6.59375 
Q 38.421875 6.59375 43.015625 9.90625 
Q 47.609375 13.234375 47.609375 19.390625 
Q 47.609375 24.75 44.3125 27.78125 
Q 41.015625 30.8125 33.5 32.328125 
L 27.484375 33.5 
Q 16.453125 35.6875 11.515625 40.375 
Q 6.59375 45.0625 6.59375 53.421875 
Q 6.59375 63.09375 13.40625 68.65625 
Q 20.21875 74.21875 32.171875 74.21875 
Q 37.3125 74.21875 42.625 73.28125 
Q 47.953125 72.359375 53.515625 70.515625 
z
" id="DejaVuSans-83"/>
     <path d="M 18.3125 70.21875 
L 18.3125 54.6875 
L 36.8125 54.6875 
L 36.8125 47.703125 
L 18.3125 47.703125 
L 18.3125 18.015625 
Q 18.3125 11.328125 20.140625 9.421875 
Q 21.96875 7.515625 27.59375 7.515625 
L 36.8125 7.515625 
L 36.8125 0 
L 27.59375 0 
Q 17.1875 0 13.234375 3.875 
Q 9.28125 7.765625 9.28125 18.015625 
L 9.28125 47.703125 
L 2.6875 47.703125 
L 2.6875 54.6875 
L 9.28125 54.6875 
L 9.28125 70.21875 
z
" id="DejaVuSans-116"/>
     <path d="M 34.28125 27.484375 
Q 23.390625 27.484375 19.1875 25 
Q 14.984375 22.515625 14.984375 16.5 
Q 14.984375 11.71875 18.140625 8.90625 
Q 21.296875 6.109375 26.703125 6.109375 
Q 34.1875 6.109375 38.703125 11.40625 
Q 43.21875 16.703125 43.21875 25.484375 
L 43.21875 27.484375 
z
M 52.203125 31.203125 
L 52.203125 0 
L 43.21875 0 
L 43.21875 8.296875 
Q 40.140625 3.328125 35.546875 0.953125 
Q 30.953125 -1.421875 24.3125 -1.421875 
Q 15.921875 -1.421875 10.953125 3.296875 
Q 6 8.015625 6 15.921875 
Q 6 25.140625 12.171875 29.828125 
Q 18.359375 34.515625 30.609375 34.515625 
L 43.21875 34.515625 
L 43.21875 35.40625 
Q 43.21875 41.609375 39.140625 45 
Q 35.0625 48.390625 27.6875 48.390625 
Q 23 48.390625 18.546875 47.265625 
Q 14.109375 46.140625 10.015625 43.890625 
L 10.015625 52.203125 
Q 14.9375 54.109375 19.578125 55.046875 
Q 24.21875 56 28.609375 56 
Q 40.484375 56 46.34375 49.84375 
Q 52.203125 43.703125 52.203125 31.203125 
z
" id="DejaVuSans-97"/>
     <path d="M 8.5 21.578125 
L 8.5 54.6875 
L 17.484375 54.6875 
L 17.484375 21.921875 
Q 17.484375 14.15625 20.5 10.265625 
Q 23.53125 6.390625 29.59375 6.390625 
Q 36.859375 6.390625 41.078125 11.03125 
Q 45.3125 15.671875 45.3125 23.6875 
L 45.3125 54.6875 
L 54.296875 54.6875 
L 54.296875 0 
L 45.3125 0 
L 45.3125 8.40625 
Q 42.046875 3.421875 37.71875 1 
Q 33.40625 -1.421875 27.6875 -1.421875 
Q 18.265625 -1.421875 13.375 4.4375 
Q 8.5 10.296875 8.5 21.578125 
z
M 31.109375 56 
z
" id="DejaVuSans-117"/>
     <path d="M 11.71875 12.40625 
L 22.015625 12.40625 
L 22.015625 4 
L 14.015625 -11.625 
L 7.71875 -11.625 
L 11.71875 4 
z
" id="DejaVuSans-44"/>
     <path d="M 9.8125 72.90625 
L 23.09375 72.90625 
L 55.421875 11.921875 
L 55.421875 72.90625 
L 64.984375 72.90625 
L 64.984375 0 
L 51.703125 0 
L 19.390625 60.984375 
L 19.390625 0 
L 9.8125 0 
z
" id="DejaVuSans-78"/>
     <path d="M 9.421875 75.984375 
L 18.40625 75.984375 
L 18.40625 0 
L 9.421875 0 
z
" id="DejaVuSans-108"/>
     <path d="M 10.59375 45.40625 
L 73.1875 45.40625 
L 73.1875 37.203125 
L 10.59375 37.203125 
z
M 10.59375 25.484375 
L 73.1875 25.484375 
L 73.1875 17.1875 
L 10.59375 17.1875 
z
" id="DejaVuSans-61"/>
     <path d="M 33.015625 40.375 
Q 26.375 40.375 22.484375 35.828125 
Q 18.609375 31.296875 18.609375 23.390625 
Q 18.609375 15.53125 22.484375 10.953125 
Q 26.375 6.390625 33.015625 6.390625 
Q 39.65625 6.390625 43.53125 10.953125 
Q 47.40625 15.53125 47.40625 23.390625 
Q 47.40625 31.296875 43.53125 35.828125 
Q 39.65625 40.375 33.015625 40.375 
z
M 52.59375 71.296875 
L 52.59375 62.3125 
Q 48.875 64.0625 45.09375 64.984375 
Q 41.3125 65.921875 37.59375 65.921875 
Q 27.828125 65.921875 22.671875 59.328125 
Q 17.53125 52.734375 16.796875 39.40625 
Q 19.671875 43.65625 24.015625 45.921875 
Q 28.375 48.1875 33.59375 48.1875 
Q 44.578125 48.1875 50.953125 41.515625 
Q 57.328125 34.859375 57.328125 23.390625 
Q 57.328125 12.15625 50.6875 5.359375 
Q 44.046875 -1.421875 33.015625 -1.421875 
Q 20.359375 -1.421875 13.671875 8.265625 
Q 6.984375 17.96875 6.984375 36.375 
Q 6.984375 53.65625 15.1875 63.9375 
Q 23.390625 74.21875 37.203125 74.21875 
Q 40.921875 74.21875 44.703125 73.484375 
Q 48.484375 72.75 52.59375 71.296875 
z
" id="DejaVuSans-54"/>
     <path d="M 45.40625 46.390625 
L 45.40625 75.984375 
L 54.390625 75.984375 
L 54.390625 0 
L 45.40625 0 
L 45.40625 8.203125 
Q 42.578125 3.328125 38.25 0.953125 
Q 33.9375 -1.421875 27.875 -1.421875 
Q 17.96875 -1.421875 11.734375 6.484375 
Q 5.515625 14.40625 5.515625 27.296875 
Q 5.515625 40.1875 11.734375 48.09375 
Q 17.96875 56 27.875 56 
Q 33.9375 56 38.25 53.625 
Q 42.578125 51.265625 45.40625 46.390625 
z
M 14.796875 27.296875 
Q 14.796875 17.390625 18.875 11.75 
Q 22.953125 6.109375 30.078125 6.109375 
Q 37.203125 6.109375 41.296875 11.75 
Q 45.40625 17.390625 45.40625 27.296875 
Q 45.40625 37.203125 41.296875 42.84375 
Q 37.203125 48.484375 30.078125 48.484375 
Q 22.953125 48.484375 18.875 42.84375 
Q 14.796875 37.203125 14.796875 27.296875 
z
" id="DejaVuSans-100"/>
    </defs>
    <g transform="translate(193.43625 19.92)scale(0.12 -0.12)">
     <use xlink:href="#DejaVuSans-83"/>
     <use x="63.476562" xlink:href="#DejaVuSans-116"/>
     <use x="102.685547" xlink:href="#DejaVuSans-114"/>
     <use x="143.798828" xlink:href="#DejaVuSans-105"/>
     <use x="171.582031" xlink:href="#DejaVuSans-97"/>
     <use x="232.861328" xlink:href="#DejaVuSans-116"/>
     <use x="272.070312" xlink:href="#DejaVuSans-117"/>
     <use x="335.449219" xlink:href="#DejaVuSans-109"/>
     <use x="432.861328" xlink:href="#DejaVuSans-44"/>
     <use x="464.648438" xlink:href="#DejaVuSans-32"/>
     <use x="496.435547" xlink:href="#DejaVuSans-78"/>
     <use x="571.240234" xlink:href="#DejaVuSans-117"/>
     <use x="634.619141" xlink:href="#DejaVuSans-109"/>
     <use x="732.03125" xlink:href="#DejaVuSans-32"/>
     <use x="763.818359" xlink:href="#DejaVuSans-84"/>
     <use x="824.683594" xlink:href="#DejaVuSans-114"/>
     <use x="865.796875" xlink:href="#DejaVuSans-105"/>
     <use x="893.580078" xlink:href="#DejaVuSans-97"/>
     <use x="954.859375" xlink:href="#DejaVuSans-108"/>
     <use x="982.642578" xlink:href="#DejaVuSans-115"/>
     <use x="1034.742188" xlink:href="#DejaVuSans-61"/>
     <use x="1118.53125" xlink:href="#DejaVuSans-49"/>
     <use x="1182.154297" xlink:href="#DejaVuSans-54"/>
     <use x="1245.777344" xlink:href="#DejaVuSans-48"/>
     <use x="1309.400391" xlink:href="#DejaVuSans-32"/>
     <use x="1341.1875" xlink:href="#DejaVuSans-65"/>
     <use x="1409.595703" xlink:href="#DejaVuSans-108"/>
     <use x="1437.378906" xlink:href="#DejaVuSans-108"/>
     <use x="1465.162109" xlink:href="#DejaVuSans-32"/>
     <use x="1496.949219" xlink:href="#DejaVuSans-115"/>
     <use x="1549.048828" xlink:href="#DejaVuSans-116"/>
     <use x="1588.257812" xlink:href="#DejaVuSans-105"/>
     <use x="1616.041016" xlink:href="#DejaVuSans-109"/>
     <use x="1713.453125" xlink:href="#DejaVuSans-117"/>
     <use x="1776.832031" xlink:href="#DejaVuSans-108"/>
     <use x="1804.615234" xlink:href="#DejaVuSans-97"/>
     <use x="1865.894531" xlink:href="#DejaVuSans-116"/>
     <use x="1905.103516" xlink:href="#DejaVuSans-101"/>
     <use x="1966.626953" xlink:href="#DejaVuSans-100"/>
     <use x="2030.103516" xlink:href="#DejaVuSans-32"/>
     <use x="2061.890625" xlink:href="#DejaVuSans-116"/>
     <use x="2101.099609" xlink:href="#DejaVuSans-114"/>
     <use x="2142.212891" xlink:href="#DejaVuSans-105"/>
     <use x="2169.996094" xlink:href="#DejaVuSans-97"/>
     <use x="2231.275391" xlink:href="#DejaVuSans-108"/>
     <use x="2259.058594" xlink:href="#DejaVuSans-115"/>
    </g>
   </g>
   <g id="legend_1">
    <g id="patch_7">
     <path d="M 476.469375 70.7475 
L 574.8 70.7475 
Q 577.2 70.7475 577.2 68.3475 
L 577.2 34.32 
Q 577.2 31.92 574.8 31.92 
L 476.469375 31.92 
Q 474.069375 31.92 474.069375 34.32 
L 474.069375 68.3475 
Q 474.069375 70.7475 476.469375 70.7475 
z
" style="fill:#ffffff;opacity:0.8;stroke:#cccccc;stroke-linejoin:miter;"/>
    </g>
    <g id="line2d_15">
     <path d="M 478.869375 41.638125 
L 502.869375 41.638125 
" style="fill:none;stroke:#0000ff;stroke-linecap:square;stroke-width:1.5;"/>
    </g>
    <g id="line2d_16"/>
    <g id="text_17">
     <!-- Avg. Corr. -->
     <g transform="translate(512.469375 45.838125)scale(0.12 -0.12)">
      <use xlink:href="#DejaVuSans-65"/>
      <use x="68.330078" xlink:href="#DejaVuSans-118"/>
      <use x="127.509766" xlink:href="#DejaVuSans-103"/>
      <use x="190.986328" xlink:href="#DejaVuSans-46"/>
      <use x="222.773438" xlink:href="#DejaVuSans-32"/>
      <use x="254.560547" xlink:href="#DejaVuSans-67"/>
      <use x="324.384766" xlink:href="#DejaVuSans-111"/>
      <use x="385.566406" xlink:href="#DejaVuSans-114"/>
      <use x="426.664062" xlink:href="#DejaVuSans-114"/>
      <use x="467.636719" xlink:href="#DejaVuSans-46"/>
     </g>
    </g>
    <g id="patch_8">
     <path d="M 478.869375 63.451875 
L 502.869375 63.451875 
L 502.869375 55.051875 
L 478.869375 55.051875 
z
" style="fill:#0000ff;opacity:0.3;stroke:#0000ff;stroke-linejoin:miter;"/>
    </g>
    <g id="text_18">
     <!-- Std. Err. -->
     <defs>
      <path d="M 9.8125 72.90625 
L 55.90625 72.90625 
L 55.90625 64.59375 
L 19.671875 64.59375 
L 19.671875 43.015625 
L 54.390625 43.015625 
L 54.390625 34.71875 
L 19.671875 34.71875 
L 19.671875 8.296875 
L 56.78125 8.296875 
L 56.78125 0 
L 9.8125 0 
z
" id="DejaVuSans-69"/>
     </defs>
     <g transform="translate(512.469375 63.451875)scale(0.12 -0.12)">
      <use xlink:href="#DejaVuSans-83"/>
      <use x="63.476562" xlink:href="#DejaVuSans-116"/>
      <use x="102.685547" xlink:href="#DejaVuSans-100"/>
      <use x="166.162109" xlink:href="#DejaVuSans-46"/>
      <use x="197.949219" xlink:href="#DejaVuSans-32"/>
      <use x="229.736328" xlink:href="#DejaVuSans-69"/>
      <use x="292.919922" xlink:href="#DejaVuSans-114"/>
      <use x="334.017578" xlink:href="#DejaVuSans-114"/>
      <use x="374.990234" xlink:href="#DejaVuSans-46"/>
     </g>
    </g>
   </g>
  </g>
 </g>
 <defs>
  <clipPath id="p86ceb73def">
   <rect height="166.32" width="502.2" x="81" y="25.92"/>
  </clipPath>
 </defs>
</svg>
