<?xml version="1.0" encoding="utf-8" standalone="no"?>
<!DOCTYPE svg PUBLIC "-//W3C//DTD SVG 1.1//EN"
  "http://www.w3.org/Graphics/SVG/1.1/DTD/svg11.dtd">
<!-- Created with matplotlib (https://matplotlib.org/) -->
<svg height="223.2pt" version="1.1" viewBox="0 0 576 223.2" width="576pt" xmlns="http://www.w3.org/2000/svg" xmlns:xlink="http://www.w3.org/1999/xlink">
 <defs>
  <style type="text/css">
*{stroke-linecap:butt;stroke-linejoin:round;}
  </style>
 </defs>
 <g id="figure_1">
  <g id="patch_1">
   <path d="M 0 223.2 
L 576 223.2 
L 576 0 
L 0 0 
z
" style="fill:#ffffff;"/>
  </g>
  <g id="axes_1">
   <g id="patch_2">
    <path d="M 80.03 174.76 
L 565.2 174.76 
L 565.2 26.88 
L 80.03 26.88 
z
" style="fill:#ffffff;"/>
   </g>
   <g id="PolyCollection_1">
    <defs>
     <path d="M 158.890683 -48.44 
L 158.890683 -196.32 
L 405.587293 -196.32 
L 405.587293 -48.44 
L 405.587293 -48.44 
L 158.890683 -48.44 
z
" id="m9afdb8fcd2" style="stroke:#808080;stroke-opacity:0.3;"/>
    </defs>
    <g clip-path="url(#pe2f73439e7)">
     <use style="fill:#808080;fill-opacity:0.3;stroke:#808080;stroke-opacity:0.3;" x="0" xlink:href="#m9afdb8fcd2" y="223.2"/>
    </g>
   </g>
   <g id="PolyCollection_2">
    <defs>
     <path d="M 80.03 -184.562012 
L 80.03 -172.940272 
L 81.674644 -166.263143 
L 83.319288 -169.49941 
L 84.963932 -174.102282 
L 86.608576 -173.359775 
L 88.25322 -168.622224 
L 89.897864 -177.132811 
L 91.542508 -171.947833 
L 93.187153 -172.538206 
L 94.831797 -169.202596 
L 96.476441 -161.59836 
L 98.121085 -176.631467 
L 99.765729 -184.311999 
L 101.410373 -162.204114 
L 103.055017 -163.331932 
L 104.699661 -176.913616 
L 106.344305 -154.471784 
L 107.988949 -166.463002 
L 109.633593 -167.512281 
L 111.278237 -168.481836 
L 112.922881 -168.908248 
L 114.567525 -163.811076 
L 116.212169 -164.359051 
L 117.856814 -170.541689 
L 119.501458 -169.364915 
L 121.146102 -162.511679 
L 122.790746 -173.277366 
L 124.43539 -179.911768 
L 126.080034 -167.818323 
L 127.724678 -169.669043 
L 129.369322 -163.618443 
L 131.013966 -172.341933 
L 132.65861 -164.12213 
L 134.303254 -183.056355 
L 135.947898 -160.200564 
L 137.592542 -167.020036 
L 139.237186 -172.935565 
L 140.881831 -176.537643 
L 142.526475 -170.731395 
L 144.171119 -166.275296 
L 145.815763 -183.646651 
L 147.460407 -168.624673 
L 149.105051 -171.639433 
L 150.749695 -173.283878 
L 152.394339 -166.293105 
L 154.038983 -170.731314 
L 155.683627 -181.701626 
L 157.328271 -179.204774 
L 158.972915 -171.381077 
L 160.617559 -171.94734 
L 162.262203 -174.241495 
L 163.906847 -168.337407 
L 165.551492 -176.206811 
L 167.196136 -172.009233 
L 168.84078 -177.684255 
L 170.485424 -167.654995 
L 172.130068 -170.410396 
L 173.774712 -166.030503 
L 175.419356 -170.000391 
L 177.064 -161.469584 
L 178.708644 -168.73309 
L 180.353288 -158.780651 
L 181.997932 -174.46608 
L 183.642576 -172.21235 
L 185.28722 -170.395008 
L 186.931864 -160.78727 
L 188.576508 -171.012907 
L 190.221153 -167.000494 
L 191.865797 -169.061288 
L 193.510441 -171.939964 
L 195.155085 -171.521277 
L 196.799729 -180.576506 
L 198.444373 -172.160796 
L 200.089017 -177.51918 
L 201.733661 -174.00536 
L 203.378305 -172.014284 
L 205.022949 -160.547514 
L 206.667593 -171.002134 
L 208.312237 -172.85268 
L 209.956881 -168.344538 
L 211.601525 -171.081906 
L 213.246169 -160.944138 
L 214.890814 -161.924649 
L 216.535458 -166.064761 
L 218.180102 -162.136851 
L 219.824746 -166.462061 
L 221.46939 -168.605472 
L 223.114034 -162.130577 
L 224.758678 -174.190769 
L 226.403322 -165.640605 
L 228.047966 -163.259578 
L 229.69261 -177.344947 
L 231.337254 -162.507399 
L 232.981898 -181.926008 
L 234.626542 -167.763326 
L 236.271186 -154.464971 
L 237.915831 -167.173133 
L 239.560475 -167.595867 
L 241.205119 -163.026982 
L 242.849763 -165.311736 
L 244.494407 -166.702728 
L 246.139051 -178.518745 
L 247.783695 -163.121102 
L 249.428339 -166.331864 
L 251.072983 -170.485072 
L 252.717627 -164.310651 
L 254.362271 -161.234695 
L 256.006915 -160.799334 
L 257.651559 -178.345451 
L 259.296203 -175.035071 
L 260.940847 -167.870674 
L 262.585492 -165.12812 
L 264.230136 -177.144707 
L 265.87478 -174.568377 
L 267.519424 -176.748257 
L 269.164068 -167.875573 
L 270.808712 -173.103904 
L 272.453356 -164.346627 
L 274.098 -163.270292 
L 275.742644 -160.361618 
L 277.387288 -173.404746 
L 279.031932 -161.759992 
L 280.676576 -169.861801 
L 282.32122 -166.864234 
L 283.965864 -171.161126 
L 285.610508 -160.775674 
L 287.255153 -161.578403 
L 288.899797 -166.51808 
L 290.544441 -168.868226 
L 292.189085 -160.371388 
L 293.833729 -171.845737 
L 295.478373 -181.51049 
L 297.123017 -158.869968 
L 298.767661 -159.188432 
L 300.412305 -167.61702 
L 302.056949 -153.835385 
L 303.701593 -168.831186 
L 305.346237 -165.195873 
L 306.990881 -173.131362 
L 308.635525 -170.264875 
L 310.280169 -163.76239 
L 311.924814 -163.664305 
L 313.569458 -159.642407 
L 315.214102 -159.667604 
L 316.858746 -171.569362 
L 318.50339 -176.445165 
L 320.148034 -175.229016 
L 321.792678 -168.414154 
L 323.437322 -168.731194 
L 325.081966 -173.843778 
L 326.72661 -160.04189 
L 328.371254 -160.969732 
L 330.015898 -161.174385 
L 331.660542 -182.089486 
L 333.305186 -168.343133 
L 334.949831 -166.132382 
L 336.594475 -172.194967 
L 338.239119 -167.833621 
L 339.883763 -172.829542 
L 341.528407 -170.682955 
L 343.173051 -168.061811 
L 344.817695 -182.18919 
L 346.462339 -159.988645 
L 348.106983 -165.821526 
L 349.751627 -156.561449 
L 351.396271 -173.355553 
L 353.040915 -163.116416 
L 354.685559 -162.821759 
L 356.330203 -165.495711 
L 357.974847 -162.648159 
L 359.619492 -165.737527 
L 361.264136 -171.774953 
L 362.90878 -155.957295 
L 364.553424 -158.158435 
L 366.198068 -163.427268 
L 367.842712 -161.328942 
L 369.487356 -164.93601 
L 371.132 -166.747952 
L 372.776644 -164.180052 
L 374.421288 -163.150394 
L 376.065932 -167.143475 
L 377.710576 -169.532856 
L 379.35522 -178.948806 
L 380.999864 -167.460479 
L 382.644508 -167.382083 
L 384.289153 -170.854269 
L 385.933797 -165.774055 
L 387.578441 -174.003457 
L 389.223085 -169.202602 
L 390.867729 -171.008067 
L 392.512373 -163.686845 
L 394.157017 -165.907926 
L 395.801661 -174.67578 
L 397.446305 -159.06068 
L 399.090949 -172.429605 
L 400.735593 -167.302585 
L 402.380237 -178.111303 
L 404.024881 -160.077967 
L 405.669525 -159.717475 
L 407.314169 -168.821887 
L 408.958814 -158.975686 
L 410.603458 -170.161848 
L 412.248102 -176.76975 
L 413.892746 -171.247347 
L 415.53739 -169.320144 
L 417.182034 -159.360247 
L 418.826678 -169.489879 
L 420.471322 -171.378091 
L 422.115966 -156.008488 
L 423.76061 -171.594154 
L 425.405254 -170.408255 
L 427.049898 -160.730668 
L 428.694542 -161.800537 
L 430.339186 -167.778993 
L 431.983831 -159.333167 
L 433.628475 -152.226262 
L 435.273119 -180.780104 
L 436.917763 -169.598758 
L 438.562407 -171.448611 
L 440.207051 -173.417916 
L 441.851695 -174.650908 
L 443.496339 -175.25959 
L 445.140983 -168.173797 
L 446.785627 -173.446828 
L 448.430271 -175.717325 
L 450.074915 -164.748572 
L 451.719559 -171.655063 
L 453.364203 -174.930757 
L 455.008847 -169.409774 
L 456.653492 -179.600552 
L 458.298136 -177.038048 
L 459.94278 -171.923892 
L 461.587424 -167.477502 
L 463.232068 -172.132295 
L 464.876712 -163.946856 
L 466.521356 -177.00416 
L 468.166 -175.101377 
L 469.810644 -171.88353 
L 471.455288 -171.857004 
L 473.099932 -180.006724 
L 474.744576 -184.829531 
L 476.38922 -178.01087 
L 478.033864 -162.692745 
L 479.678508 -173.162322 
L 481.323153 -171.742599 
L 482.967797 -163.525678 
L 484.612441 -176.724352 
L 486.257085 -168.647143 
L 487.901729 -172.666845 
L 489.546373 -169.438348 
L 491.191017 -174.075161 
L 492.835661 -166.595573 
L 494.480305 -178.133465 
L 496.124949 -167.67752 
L 497.769593 -164.332987 
L 499.414237 -173.006765 
L 501.058881 -170.978493 
L 502.703525 -180.986982 
L 504.348169 -169.239437 
L 505.992814 -164.655433 
L 507.637458 -167.696795 
L 509.282102 -173.776894 
L 510.926746 -170.216893 
L 512.57139 -164.904971 
L 514.216034 -170.594812 
L 515.860678 -170.236351 
L 517.505322 -164.182765 
L 519.149966 -182.359582 
L 520.79461 -158.34601 
L 522.439254 -167.279063 
L 524.083898 -156.833529 
L 525.728542 -166.037153 
L 527.373186 -166.724499 
L 529.017831 -162.230457 
L 530.662475 -168.395054 
L 532.307119 -164.157752 
L 533.951763 -169.539314 
L 535.596407 -169.878163 
L 537.241051 -169.31983 
L 538.885695 -167.764944 
L 540.530339 -178.387996 
L 542.174983 -170.150786 
L 543.819627 -175.126993 
L 545.464271 -169.94309 
L 547.108915 -168.660068 
L 548.753559 -168.913725 
L 550.398203 -163.878129 
L 552.042847 -167.797823 
L 553.687492 -174.413068 
L 555.332136 -169.205926 
L 556.97678 -169.716276 
L 558.621424 -174.516275 
L 560.266068 -176.762356 
L 561.910712 -161.110378 
L 563.555356 -168.312937 
L 565.2 -170.750542 
L 565.2 -182.072104 
L 565.2 -182.072104 
L 563.555356 -179.176158 
L 561.910712 -172.323433 
L 560.266068 -188.478408 
L 558.621424 -186.605898 
L 556.97678 -181.849191 
L 555.332136 -180.768316 
L 553.687492 -185.681363 
L 552.042847 -178.940388 
L 550.398203 -175.03632 
L 548.753559 -179.789997 
L 547.108915 -179.717787 
L 545.464271 -181.543773 
L 543.819627 -186.706953 
L 542.174983 -181.742915 
L 540.530339 -190.471539 
L 538.885695 -178.678508 
L 537.241051 -181.155629 
L 535.596407 -181.929208 
L 533.951763 -181.417176 
L 532.307119 -175.390006 
L 530.662475 -180.153547 
L 529.017831 -173.446479 
L 527.373186 -179.04422 
L 525.728542 -177.696518 
L 524.083898 -167.98427 
L 522.439254 -179.170962 
L 520.79461 -169.901328 
L 519.149966 -193.448301 
L 517.505322 -176.141407 
L 515.860678 -181.515987 
L 514.216034 -181.525482 
L 512.57139 -176.604146 
L 510.926746 -182.081735 
L 509.282102 -184.937702 
L 507.637458 -178.122511 
L 505.992814 -175.507128 
L 504.348169 -181.475984 
L 502.703525 -193.166928 
L 501.058881 -183.3228 
L 499.414237 -184.303363 
L 497.769593 -176.187382 
L 496.124949 -179.751211 
L 494.480305 -188.717231 
L 492.835661 -177.923923 
L 491.191017 -185.067125 
L 489.546373 -179.469582 
L 487.901729 -184.128764 
L 486.257085 -179.806715 
L 484.612441 -188.778811 
L 482.967797 -175.213899 
L 481.323153 -182.665039 
L 479.678508 -185.287919 
L 478.033864 -173.859236 
L 476.38922 -190.170187 
L 474.744576 -195.870456 
L 473.099932 -191.450598 
L 471.455288 -183.392666 
L 469.810644 -183.07842 
L 468.166 -186.083481 
L 466.521356 -188.118004 
L 464.876712 -175.768066 
L 463.232068 -183.90519 
L 461.587424 -179.567423 
L 459.94278 -183.012053 
L 458.298136 -188.468067 
L 456.653492 -190.412983 
L 455.008847 -181.610168 
L 453.364203 -186.349592 
L 451.719559 -182.949273 
L 450.074915 -176.359525 
L 448.430271 -187.150428 
L 446.785627 -186.046859 
L 445.140983 -178.86292 
L 443.496339 -186.297416 
L 441.851695 -186.625804 
L 440.207051 -185.771734 
L 438.562407 -183.093668 
L 436.917763 -181.010157 
L 435.273119 -192.629077 
L 433.628475 -163.777021 
L 431.983831 -171.49607 
L 430.339186 -179.121146 
L 428.694542 -174.000706 
L 427.049898 -172.74492 
L 425.405254 -182.616283 
L 423.76061 -182.206591 
L 422.115966 -167.004223 
L 420.471322 -183.268431 
L 418.826678 -180.049201 
L 417.182034 -170.189128 
L 415.53739 -180.551433 
L 413.892746 -182.479045 
L 412.248102 -187.469337 
L 410.603458 -180.875346 
L 408.958814 -171.03972 
L 407.314169 -180.186896 
L 405.669525 -171.188838 
L 404.024881 -171.278286 
L 402.380237 -189.705434 
L 400.735593 -178.656001 
L 399.090949 -184.119486 
L 397.446305 -169.932665 
L 395.801661 -185.025804 
L 394.157017 -176.538383 
L 392.512373 -174.868839 
L 390.867729 -181.567015 
L 389.223085 -181.050909 
L 387.578441 -184.984079 
L 385.933797 -177.76038 
L 384.289153 -182.318943 
L 382.644508 -179.04166 
L 380.999864 -178.796788 
L 379.35522 -189.363707 
L 377.710576 -181.742891 
L 376.065932 -177.981349 
L 374.421288 -174.396148 
L 372.776644 -175.868427 
L 371.132 -177.407622 
L 369.487356 -176.772155 
L 367.842712 -172.111575 
L 366.198068 -174.756452 
L 364.553424 -169.616085 
L 362.90878 -167.443741 
L 361.264136 -183.829392 
L 359.619492 -177.380842 
L 357.974847 -174.894973 
L 356.330203 -176.487614 
L 354.685559 -174.247761 
L 353.040915 -174.227848 
L 351.396271 -184.30008 
L 349.751627 -167.886901 
L 348.106983 -176.729659 
L 346.462339 -170.366996 
L 344.817695 -193.290938 
L 343.173051 -179.538212 
L 341.528407 -181.180434 
L 339.883763 -184.85512 
L 338.239119 -179.620146 
L 336.594475 -183.635292 
L 334.949831 -178.104835 
L 333.305186 -179.679173 
L 331.660542 -193.400161 
L 330.015898 -172.220075 
L 328.371254 -172.001547 
L 326.72661 -171.553584 
L 325.081966 -185.257051 
L 323.437322 -180.366613 
L 321.792678 -179.158474 
L 320.148034 -185.859839 
L 318.50339 -187.085861 
L 316.858746 -183.967441 
L 315.214102 -170.550206 
L 313.569458 -170.762282 
L 311.924814 -174.423789 
L 310.280169 -175.203678 
L 308.635525 -181.623762 
L 306.990881 -184.673852 
L 305.346237 -176.730993 
L 303.701593 -180.103631 
L 302.056949 -165.83616 
L 300.412305 -178.726197 
L 298.767661 -170.208887 
L 297.123017 -169.628064 
L 295.478373 -193.151056 
L 293.833729 -182.878489 
L 292.189085 -172.336999 
L 290.544441 -180.425108 
L 288.899797 -177.269232 
L 287.255153 -172.702249 
L 285.610508 -172.232493 
L 283.965864 -181.495753 
L 282.32122 -178.713296 
L 280.676576 -181.689482 
L 279.031932 -173.23602 
L 277.387288 -185.223095 
L 275.742644 -171.354231 
L 274.098 -174.662981 
L 272.453356 -176.352343 
L 270.808712 -184.319267 
L 269.164068 -179.668119 
L 267.519424 -187.644168 
L 265.87478 -186.329287 
L 264.230136 -188.188467 
L 262.585492 -176.695119 
L 260.940847 -178.953133 
L 259.296203 -186.494095 
L 257.651559 -189.591825 
L 256.006915 -172.637893 
L 254.362271 -172.138264 
L 252.717627 -175.775702 
L 251.072983 -181.600646 
L 249.428339 -178.546552 
L 247.783695 -174.595419 
L 246.139051 -190.670419 
L 244.494407 -177.432959 
L 242.849763 -176.340478 
L 241.205119 -175.227887 
L 239.560475 -178.738303 
L 237.915831 -177.903112 
L 236.271186 -164.817077 
L 234.626542 -178.923884 
L 232.981898 -193.438515 
L 231.337254 -174.623455 
L 229.69261 -188.387998 
L 228.047966 -173.345781 
L 226.403322 -177.977856 
L 224.758678 -185.685186 
L 223.114034 -173.502536 
L 221.46939 -180.258905 
L 219.824746 -177.360551 
L 218.180102 -173.982456 
L 216.535458 -178.145405 
L 214.890814 -172.866603 
L 213.246169 -172.763258 
L 211.601525 -182.936213 
L 209.956881 -179.349097 
L 208.312237 -185.552583 
L 206.667593 -182.682984 
L 205.022949 -171.195848 
L 203.378305 -182.580291 
L 201.733661 -185.006817 
L 200.089017 -189.017941 
L 198.444373 -183.891865 
L 196.799729 -192.596523 
L 195.155085 -182.849373 
L 193.510441 -184.144684 
L 191.865797 -180.804277 
L 190.221153 -178.606263 
L 188.576508 -181.671307 
L 186.931864 -171.859639 
L 185.28722 -182.446442 
L 183.642576 -184.062145 
L 181.997932 -185.661497 
L 180.353288 -170.541323 
L 178.708644 -180.84272 
L 177.064 -172.890169 
L 175.419356 -181.22991 
L 173.774712 -177.608509 
L 172.130068 -181.765425 
L 170.485424 -179.01802 
L 168.84078 -188.610512 
L 167.196136 -183.621243 
L 165.551492 -187.384726 
L 163.906847 -180.656632 
L 162.262203 -185.149492 
L 160.617559 -182.887458 
L 158.972915 -182.81057 
L 157.328271 -189.732613 
L 155.683627 -193.803141 
L 154.038983 -181.756728 
L 152.394339 -178.226567 
L 150.749695 -184.300425 
L 149.105051 -183.434556 
L 147.460407 -181.272048 
L 145.815763 -194.611608 
L 144.171119 -178.111288 
L 142.526475 -183.041783 
L 140.881831 -187.526203 
L 139.237186 -184.83476 
L 137.592542 -177.834721 
L 135.947898 -171.590565 
L 134.303254 -194.043521 
L 132.65861 -174.693403 
L 131.013966 -183.77113 
L 129.369322 -175.860177 
L 127.724678 -180.721317 
L 126.080034 -179.577924 
L 124.43539 -191.272867 
L 122.790746 -184.533884 
L 121.146102 -174.199434 
L 119.501458 -181.583199 
L 117.856814 -182.187336 
L 116.212169 -176.312391 
L 114.567525 -175.396731 
L 112.922881 -181.546315 
L 111.278237 -179.177127 
L 109.633593 -179.788872 
L 107.988949 -177.453856 
L 106.344305 -165.463486 
L 104.699661 -188.500993 
L 103.055017 -174.969334 
L 101.410373 -174.322673 
L 99.765729 -196.32 
L 98.121085 -187.871009 
L 96.476441 -173.603822 
L 94.831797 -180.224314 
L 93.187153 -184.441244 
L 91.542508 -183.5994 
L 89.897864 -188.69773 
L 88.25322 -180.805134 
L 86.608576 -184.900233 
L 84.963932 -186.010306 
L 83.319288 -181.566868 
L 81.674644 -177.384937 
L 80.03 -184.562012 
z
" id="mb5912e6ab7" style="stroke:#0000ff;stroke-opacity:0.3;"/>
    </defs>
    <g clip-path="url(#pe2f73439e7)">
     <use style="fill:#0000ff;fill-opacity:0.3;stroke:#0000ff;stroke-opacity:0.3;" x="0" xlink:href="#mb5912e6ab7" y="223.2"/>
    </g>
   </g>
   <g id="matplotlib.axis_1">
    <g id="xtick_1">
     <g id="line2d_1">
      <defs>
       <path d="M 0 0 
L 0 3.5 
" id="m3843cc8168" style="stroke:#000000;stroke-width:0.8;"/>
      </defs>
      <g>
       <use style="stroke:#000000;stroke-width:0.8;" x="158.890683" xlink:href="#m3843cc8168" y="174.76"/>
      </g>
     </g>
     <g id="text_1">
      <!-- 0.0 -->
      <defs>
       <path d="M 31.78125 66.40625 
Q 24.171875 66.40625 20.328125 58.90625 
Q 16.5 51.421875 16.5 36.375 
Q 16.5 21.390625 20.328125 13.890625 
Q 24.171875 6.390625 31.78125 6.390625 
Q 39.453125 6.390625 43.28125 13.890625 
Q 47.125 21.390625 47.125 36.375 
Q 47.125 51.421875 43.28125 58.90625 
Q 39.453125 66.40625 31.78125 66.40625 
z
M 31.78125 74.21875 
Q 44.046875 74.21875 50.515625 64.515625 
Q 56.984375 54.828125 56.984375 36.375 
Q 56.984375 17.96875 50.515625 8.265625 
Q 44.046875 -1.421875 31.78125 -1.421875 
Q 19.53125 -1.421875 13.0625 8.265625 
Q 6.59375 17.96875 6.59375 36.375 
Q 6.59375 54.828125 13.0625 64.515625 
Q 19.53125 74.21875 31.78125 74.21875 
z
" id="DejaVuSans-48"/>
       <path d="M 10.6875 12.40625 
L 21 12.40625 
L 21 0 
L 10.6875 0 
z
" id="DejaVuSans-46"/>
      </defs>
      <g transform="translate(149.348808 190.878125)scale(0.12 -0.12)">
       <use xlink:href="#DejaVuSans-48"/>
       <use x="63.623047" xlink:href="#DejaVuSans-46"/>
       <use x="95.410156" xlink:href="#DejaVuSans-48"/>
      </g>
     </g>
    </g>
    <g id="xtick_2">
     <g id="line2d_2">
      <g>
       <use style="stroke:#000000;stroke-width:0.8;" x="241.122886" xlink:href="#m3843cc8168" y="174.76"/>
      </g>
     </g>
     <g id="text_2">
      <!-- 0.5 -->
      <defs>
       <path d="M 10.796875 72.90625 
L 49.515625 72.90625 
L 49.515625 64.59375 
L 19.828125 64.59375 
L 19.828125 46.734375 
Q 21.96875 47.46875 24.109375 47.828125 
Q 26.265625 48.1875 28.421875 48.1875 
Q 40.625 48.1875 47.75 41.5 
Q 54.890625 34.8125 54.890625 23.390625 
Q 54.890625 11.625 47.5625 5.09375 
Q 40.234375 -1.421875 26.90625 -1.421875 
Q 22.3125 -1.421875 17.546875 -0.640625 
Q 12.796875 0.140625 7.71875 1.703125 
L 7.71875 11.625 
Q 12.109375 9.234375 16.796875 8.0625 
Q 21.484375 6.890625 26.703125 6.890625 
Q 35.15625 6.890625 40.078125 11.328125 
Q 45.015625 15.765625 45.015625 23.390625 
Q 45.015625 31 40.078125 35.4375 
Q 35.15625 39.890625 26.703125 39.890625 
Q 22.75 39.890625 18.8125 39.015625 
Q 14.890625 38.140625 10.796875 36.28125 
z
" id="DejaVuSans-53"/>
      </defs>
      <g transform="translate(231.581011 190.878125)scale(0.12 -0.12)">
       <use xlink:href="#DejaVuSans-48"/>
       <use x="63.623047" xlink:href="#DejaVuSans-46"/>
       <use x="95.410156" xlink:href="#DejaVuSans-53"/>
      </g>
     </g>
    </g>
    <g id="xtick_3">
     <g id="line2d_3">
      <g>
       <use style="stroke:#000000;stroke-width:0.8;" x="323.35509" xlink:href="#m3843cc8168" y="174.76"/>
      </g>
     </g>
     <g id="text_3">
      <!-- 1.0 -->
      <defs>
       <path d="M 12.40625 8.296875 
L 28.515625 8.296875 
L 28.515625 63.921875 
L 10.984375 60.40625 
L 10.984375 69.390625 
L 28.421875 72.90625 
L 38.28125 72.90625 
L 38.28125 8.296875 
L 54.390625 8.296875 
L 54.390625 0 
L 12.40625 0 
z
" id="DejaVuSans-49"/>
      </defs>
      <g transform="translate(313.813215 190.878125)scale(0.12 -0.12)">
       <use xlink:href="#DejaVuSans-49"/>
       <use x="63.623047" xlink:href="#DejaVuSans-46"/>
       <use x="95.410156" xlink:href="#DejaVuSans-48"/>
      </g>
     </g>
    </g>
    <g id="xtick_4">
     <g id="line2d_4">
      <g>
       <use style="stroke:#000000;stroke-width:0.8;" x="405.587293" xlink:href="#m3843cc8168" y="174.76"/>
      </g>
     </g>
     <g id="text_4">
      <!-- 1.5 -->
      <g transform="translate(396.045418 190.878125)scale(0.12 -0.12)">
       <use xlink:href="#DejaVuSans-49"/>
       <use x="63.623047" xlink:href="#DejaVuSans-46"/>
       <use x="95.410156" xlink:href="#DejaVuSans-53"/>
      </g>
     </g>
    </g>
    <g id="xtick_5">
     <g id="line2d_5">
      <g>
       <use style="stroke:#000000;stroke-width:0.8;" x="487.819497" xlink:href="#m3843cc8168" y="174.76"/>
      </g>
     </g>
     <g id="text_5">
      <!-- 2.0 -->
      <defs>
       <path d="M 19.1875 8.296875 
L 53.609375 8.296875 
L 53.609375 0 
L 7.328125 0 
L 7.328125 8.296875 
Q 12.9375 14.109375 22.625 23.890625 
Q 32.328125 33.6875 34.8125 36.53125 
Q 39.546875 41.84375 41.421875 45.53125 
Q 43.3125 49.21875 43.3125 52.78125 
Q 43.3125 58.59375 39.234375 62.25 
Q 35.15625 65.921875 28.609375 65.921875 
Q 23.96875 65.921875 18.8125 64.3125 
Q 13.671875 62.703125 7.8125 59.421875 
L 7.8125 69.390625 
Q 13.765625 71.78125 18.9375 73 
Q 24.125 74.21875 28.421875 74.21875 
Q 39.75 74.21875 46.484375 68.546875 
Q 53.21875 62.890625 53.21875 53.421875 
Q 53.21875 48.921875 51.53125 44.890625 
Q 49.859375 40.875 45.40625 35.40625 
Q 44.1875 33.984375 37.640625 27.21875 
Q 31.109375 20.453125 19.1875 8.296875 
z
" id="DejaVuSans-50"/>
      </defs>
      <g transform="translate(478.277622 190.878125)scale(0.12 -0.12)">
       <use xlink:href="#DejaVuSans-50"/>
       <use x="63.623047" xlink:href="#DejaVuSans-46"/>
       <use x="95.410156" xlink:href="#DejaVuSans-48"/>
      </g>
     </g>
    </g>
    <g id="text_6">
     <!-- Time (s) -->
     <defs>
      <path d="M -0.296875 72.90625 
L 61.375 72.90625 
L 61.375 64.59375 
L 35.5 64.59375 
L 35.5 0 
L 25.59375 0 
L 25.59375 64.59375 
L -0.296875 64.59375 
z
" id="DejaVuSans-84"/>
      <path d="M 9.421875 54.6875 
L 18.40625 54.6875 
L 18.40625 0 
L 9.421875 0 
z
M 9.421875 75.984375 
L 18.40625 75.984375 
L 18.40625 64.59375 
L 9.421875 64.59375 
z
" id="DejaVuSans-105"/>
      <path d="M 52 44.1875 
Q 55.375 50.25 60.0625 53.125 
Q 64.75 56 71.09375 56 
Q 79.640625 56 84.28125 50.015625 
Q 88.921875 44.046875 88.921875 33.015625 
L 88.921875 0 
L 79.890625 0 
L 79.890625 32.71875 
Q 79.890625 40.578125 77.09375 44.375 
Q 74.3125 48.1875 68.609375 48.1875 
Q 61.625 48.1875 57.5625 43.546875 
Q 53.515625 38.921875 53.515625 30.90625 
L 53.515625 0 
L 44.484375 0 
L 44.484375 32.71875 
Q 44.484375 40.625 41.703125 44.40625 
Q 38.921875 48.1875 33.109375 48.1875 
Q 26.21875 48.1875 22.15625 43.53125 
Q 18.109375 38.875 18.109375 30.90625 
L 18.109375 0 
L 9.078125 0 
L 9.078125 54.6875 
L 18.109375 54.6875 
L 18.109375 46.1875 
Q 21.1875 51.21875 25.484375 53.609375 
Q 29.78125 56 35.6875 56 
Q 41.65625 56 45.828125 52.96875 
Q 50 49.953125 52 44.1875 
z
" id="DejaVuSans-109"/>
      <path d="M 56.203125 29.59375 
L 56.203125 25.203125 
L 14.890625 25.203125 
Q 15.484375 15.921875 20.484375 11.0625 
Q 25.484375 6.203125 34.421875 6.203125 
Q 39.59375 6.203125 44.453125 7.46875 
Q 49.3125 8.734375 54.109375 11.28125 
L 54.109375 2.78125 
Q 49.265625 0.734375 44.1875 -0.34375 
Q 39.109375 -1.421875 33.890625 -1.421875 
Q 20.796875 -1.421875 13.15625 6.1875 
Q 5.515625 13.8125 5.515625 26.8125 
Q 5.515625 40.234375 12.765625 48.109375 
Q 20.015625 56 32.328125 56 
Q 43.359375 56 49.78125 48.890625 
Q 56.203125 41.796875 56.203125 29.59375 
z
M 47.21875 32.234375 
Q 47.125 39.59375 43.09375 43.984375 
Q 39.0625 48.390625 32.421875 48.390625 
Q 24.90625 48.390625 20.390625 44.140625 
Q 15.875 39.890625 15.1875 32.171875 
z
" id="DejaVuSans-101"/>
      <path id="DejaVuSans-32"/>
      <path d="M 31 75.875 
Q 24.46875 64.65625 21.28125 53.65625 
Q 18.109375 42.671875 18.109375 31.390625 
Q 18.109375 20.125 21.3125 9.0625 
Q 24.515625 -2 31 -13.1875 
L 23.1875 -13.1875 
Q 15.875 -1.703125 12.234375 9.375 
Q 8.59375 20.453125 8.59375 31.390625 
Q 8.59375 42.28125 12.203125 53.3125 
Q 15.828125 64.359375 23.1875 75.875 
z
" id="DejaVuSans-40"/>
      <path d="M 44.28125 53.078125 
L 44.28125 44.578125 
Q 40.484375 46.53125 36.375 47.5 
Q 32.28125 48.484375 27.875 48.484375 
Q 21.1875 48.484375 17.84375 46.4375 
Q 14.5 44.390625 14.5 40.28125 
Q 14.5 37.15625 16.890625 35.375 
Q 19.28125 33.59375 26.515625 31.984375 
L 29.59375 31.296875 
Q 39.15625 29.25 43.1875 25.515625 
Q 47.21875 21.78125 47.21875 15.09375 
Q 47.21875 7.46875 41.1875 3.015625 
Q 35.15625 -1.421875 24.609375 -1.421875 
Q 20.21875 -1.421875 15.453125 -0.5625 
Q 10.6875 0.296875 5.421875 2 
L 5.421875 11.28125 
Q 10.40625 8.6875 15.234375 7.390625 
Q 20.0625 6.109375 24.8125 6.109375 
Q 31.15625 6.109375 34.5625 8.28125 
Q 37.984375 10.453125 37.984375 14.40625 
Q 37.984375 18.0625 35.515625 20.015625 
Q 33.0625 21.96875 24.703125 23.78125 
L 21.578125 24.515625 
Q 13.234375 26.265625 9.515625 29.90625 
Q 5.8125 33.546875 5.8125 39.890625 
Q 5.8125 47.609375 11.28125 51.796875 
Q 16.75 56 26.8125 56 
Q 31.78125 56 36.171875 55.265625 
Q 40.578125 54.546875 44.28125 53.078125 
z
" id="DejaVuSans-115"/>
      <path d="M 8.015625 75.875 
L 15.828125 75.875 
Q 23.140625 64.359375 26.78125 53.3125 
Q 30.421875 42.28125 30.421875 31.390625 
Q 30.421875 20.453125 26.78125 9.375 
Q 23.140625 -1.703125 15.828125 -13.1875 
L 8.015625 -13.1875 
Q 14.5 -2 17.703125 9.0625 
Q 20.90625 20.125 20.90625 31.390625 
Q 20.90625 42.671875 17.703125 53.65625 
Q 14.5 64.65625 8.015625 75.875 
z
" id="DejaVuSans-41"/>
     </defs>
     <g transform="translate(293.11975 208.3155)scale(0.144 -0.144)">
      <use xlink:href="#DejaVuSans-84"/>
      <use x="61.037109" xlink:href="#DejaVuSans-105"/>
      <use x="88.820312" xlink:href="#DejaVuSans-109"/>
      <use x="186.232422" xlink:href="#DejaVuSans-101"/>
      <use x="247.755859" xlink:href="#DejaVuSans-32"/>
      <use x="279.542969" xlink:href="#DejaVuSans-40"/>
      <use x="318.556641" xlink:href="#DejaVuSans-115"/>
      <use x="370.65625" xlink:href="#DejaVuSans-41"/>
     </g>
    </g>
   </g>
   <g id="matplotlib.axis_2">
    <g id="ytick_1">
     <g id="line2d_6">
      <defs>
       <path d="M 0 0 
L -3.5 0 
" id="ma0044f0885" style="stroke:#000000;stroke-width:0.8;"/>
      </defs>
      <g>
       <use style="stroke:#000000;stroke-width:0.8;" x="80.03" xlink:href="#ma0044f0885" y="174.76"/>
      </g>
     </g>
     <g id="text_7">
      <!-- 0.0000 -->
      <g transform="translate(31.04125 179.319062)scale(0.12 -0.12)">
       <use xlink:href="#DejaVuSans-48"/>
       <use x="63.623047" xlink:href="#DejaVuSans-46"/>
       <use x="95.410156" xlink:href="#DejaVuSans-48"/>
       <use x="159.033203" xlink:href="#DejaVuSans-48"/>
       <use x="222.65625" xlink:href="#DejaVuSans-48"/>
       <use x="286.279297" xlink:href="#DejaVuSans-48"/>
      </g>
     </g>
    </g>
    <g id="ytick_2">
     <g id="line2d_7">
      <g>
       <use style="stroke:#000000;stroke-width:0.8;" x="80.03" xlink:href="#ma0044f0885" y="143.098619"/>
      </g>
     </g>
     <g id="text_8">
      <!-- 0.0002 -->
      <g transform="translate(31.04125 147.657682)scale(0.12 -0.12)">
       <use xlink:href="#DejaVuSans-48"/>
       <use x="63.623047" xlink:href="#DejaVuSans-46"/>
       <use x="95.410156" xlink:href="#DejaVuSans-48"/>
       <use x="159.033203" xlink:href="#DejaVuSans-48"/>
       <use x="222.65625" xlink:href="#DejaVuSans-48"/>
       <use x="286.279297" xlink:href="#DejaVuSans-50"/>
      </g>
     </g>
    </g>
    <g id="ytick_3">
     <g id="line2d_8">
      <g>
       <use style="stroke:#000000;stroke-width:0.8;" x="80.03" xlink:href="#ma0044f0885" y="111.437238"/>
      </g>
     </g>
     <g id="text_9">
      <!-- 0.0004 -->
      <defs>
       <path d="M 37.796875 64.3125 
L 12.890625 25.390625 
L 37.796875 25.390625 
z
M 35.203125 72.90625 
L 47.609375 72.90625 
L 47.609375 25.390625 
L 58.015625 25.390625 
L 58.015625 17.1875 
L 47.609375 17.1875 
L 47.609375 0 
L 37.796875 0 
L 37.796875 17.1875 
L 4.890625 17.1875 
L 4.890625 26.703125 
z
" id="DejaVuSans-52"/>
      </defs>
      <g transform="translate(31.04125 115.996301)scale(0.12 -0.12)">
       <use xlink:href="#DejaVuSans-48"/>
       <use x="63.623047" xlink:href="#DejaVuSans-46"/>
       <use x="95.410156" xlink:href="#DejaVuSans-48"/>
       <use x="159.033203" xlink:href="#DejaVuSans-48"/>
       <use x="222.65625" xlink:href="#DejaVuSans-48"/>
       <use x="286.279297" xlink:href="#DejaVuSans-52"/>
      </g>
     </g>
    </g>
    <g id="ytick_4">
     <g id="line2d_9">
      <g>
       <use style="stroke:#000000;stroke-width:0.8;" x="80.03" xlink:href="#ma0044f0885" y="79.775857"/>
      </g>
     </g>
     <g id="text_10">
      <!-- 0.0006 -->
      <defs>
       <path d="M 33.015625 40.375 
Q 26.375 40.375 22.484375 35.828125 
Q 18.609375 31.296875 18.609375 23.390625 
Q 18.609375 15.53125 22.484375 10.953125 
Q 26.375 6.390625 33.015625 6.390625 
Q 39.65625 6.390625 43.53125 10.953125 
Q 47.40625 15.53125 47.40625 23.390625 
Q 47.40625 31.296875 43.53125 35.828125 
Q 39.65625 40.375 33.015625 40.375 
z
M 52.59375 71.296875 
L 52.59375 62.3125 
Q 48.875 64.0625 45.09375 64.984375 
Q 41.3125 65.921875 37.59375 65.921875 
Q 27.828125 65.921875 22.671875 59.328125 
Q 17.53125 52.734375 16.796875 39.40625 
Q 19.671875 43.65625 24.015625 45.921875 
Q 28.375 48.1875 33.59375 48.1875 
Q 44.578125 48.1875 50.953125 41.515625 
Q 57.328125 34.859375 57.328125 23.390625 
Q 57.328125 12.15625 50.6875 5.359375 
Q 44.046875 -1.421875 33.015625 -1.421875 
Q 20.359375 -1.421875 13.671875 8.265625 
Q 6.984375 17.96875 6.984375 36.375 
Q 6.984375 53.65625 15.1875 63.9375 
Q 23.390625 74.21875 37.203125 74.21875 
Q 40.921875 74.21875 44.703125 73.484375 
Q 48.484375 72.75 52.59375 71.296875 
z
" id="DejaVuSans-54"/>
      </defs>
      <g transform="translate(31.04125 84.33492)scale(0.12 -0.12)">
       <use xlink:href="#DejaVuSans-48"/>
       <use x="63.623047" xlink:href="#DejaVuSans-46"/>
       <use x="95.410156" xlink:href="#DejaVuSans-48"/>
       <use x="159.033203" xlink:href="#DejaVuSans-48"/>
       <use x="222.65625" xlink:href="#DejaVuSans-48"/>
       <use x="286.279297" xlink:href="#DejaVuSans-54"/>
      </g>
     </g>
    </g>
    <g id="ytick_5">
     <g id="line2d_10">
      <g>
       <use style="stroke:#000000;stroke-width:0.8;" x="80.03" xlink:href="#ma0044f0885" y="48.114476"/>
      </g>
     </g>
     <g id="text_11">
      <!-- 0.0008 -->
      <defs>
       <path d="M 31.78125 34.625 
Q 24.75 34.625 20.71875 30.859375 
Q 16.703125 27.09375 16.703125 20.515625 
Q 16.703125 13.921875 20.71875 10.15625 
Q 24.75 6.390625 31.78125 6.390625 
Q 38.8125 6.390625 42.859375 10.171875 
Q 46.921875 13.96875 46.921875 20.515625 
Q 46.921875 27.09375 42.890625 30.859375 
Q 38.875 34.625 31.78125 34.625 
z
M 21.921875 38.8125 
Q 15.578125 40.375 12.03125 44.71875 
Q 8.5 49.078125 8.5 55.328125 
Q 8.5 64.0625 14.71875 69.140625 
Q 20.953125 74.21875 31.78125 74.21875 
Q 42.671875 74.21875 48.875 69.140625 
Q 55.078125 64.0625 55.078125 55.328125 
Q 55.078125 49.078125 51.53125 44.71875 
Q 48 40.375 41.703125 38.8125 
Q 48.828125 37.15625 52.796875 32.3125 
Q 56.78125 27.484375 56.78125 20.515625 
Q 56.78125 9.90625 50.3125 4.234375 
Q 43.84375 -1.421875 31.78125 -1.421875 
Q 19.734375 -1.421875 13.25 4.234375 
Q 6.78125 9.90625 6.78125 20.515625 
Q 6.78125 27.484375 10.78125 32.3125 
Q 14.796875 37.15625 21.921875 38.8125 
z
M 18.3125 54.390625 
Q 18.3125 48.734375 21.84375 45.5625 
Q 25.390625 42.390625 31.78125 42.390625 
Q 38.140625 42.390625 41.71875 45.5625 
Q 45.3125 48.734375 45.3125 54.390625 
Q 45.3125 60.0625 41.71875 63.234375 
Q 38.140625 66.40625 31.78125 66.40625 
Q 25.390625 66.40625 21.84375 63.234375 
Q 18.3125 60.0625 18.3125 54.390625 
z
" id="DejaVuSans-56"/>
      </defs>
      <g transform="translate(31.04125 52.673539)scale(0.12 -0.12)">
       <use xlink:href="#DejaVuSans-48"/>
       <use x="63.623047" xlink:href="#DejaVuSans-46"/>
       <use x="95.410156" xlink:href="#DejaVuSans-48"/>
       <use x="159.033203" xlink:href="#DejaVuSans-48"/>
       <use x="222.65625" xlink:href="#DejaVuSans-48"/>
       <use x="286.279297" xlink:href="#DejaVuSans-56"/>
      </g>
     </g>
    </g>
    <g id="text_12">
     <!-- Beta-bin $\rho$ -->
     <defs>
      <path d="M 19.671875 34.8125 
L 19.671875 8.109375 
L 35.5 8.109375 
Q 43.453125 8.109375 47.28125 11.40625 
Q 51.125 14.703125 51.125 21.484375 
Q 51.125 28.328125 47.28125 31.5625 
Q 43.453125 34.8125 35.5 34.8125 
z
M 19.671875 64.796875 
L 19.671875 42.828125 
L 34.28125 42.828125 
Q 41.5 42.828125 45.03125 45.53125 
Q 48.578125 48.25 48.578125 53.8125 
Q 48.578125 59.328125 45.03125 62.0625 
Q 41.5 64.796875 34.28125 64.796875 
z
M 9.8125 72.90625 
L 35.015625 72.90625 
Q 46.296875 72.90625 52.390625 68.21875 
Q 58.5 63.53125 58.5 54.890625 
Q 58.5 48.1875 55.375 44.234375 
Q 52.25 40.28125 46.1875 39.3125 
Q 53.46875 37.75 57.5 32.78125 
Q 61.53125 27.828125 61.53125 20.40625 
Q 61.53125 10.640625 54.890625 5.3125 
Q 48.25 0 35.984375 0 
L 9.8125 0 
z
" id="DejaVuSans-66"/>
      <path d="M 18.3125 70.21875 
L 18.3125 54.6875 
L 36.8125 54.6875 
L 36.8125 47.703125 
L 18.3125 47.703125 
L 18.3125 18.015625 
Q 18.3125 11.328125 20.140625 9.421875 
Q 21.96875 7.515625 27.59375 7.515625 
L 36.8125 7.515625 
L 36.8125 0 
L 27.59375 0 
Q 17.1875 0 13.234375 3.875 
Q 9.28125 7.765625 9.28125 18.015625 
L 9.28125 47.703125 
L 2.6875 47.703125 
L 2.6875 54.6875 
L 9.28125 54.6875 
L 9.28125 70.21875 
z
" id="DejaVuSans-116"/>
      <path d="M 34.28125 27.484375 
Q 23.390625 27.484375 19.1875 25 
Q 14.984375 22.515625 14.984375 16.5 
Q 14.984375 11.71875 18.140625 8.90625 
Q 21.296875 6.109375 26.703125 6.109375 
Q 34.1875 6.109375 38.703125 11.40625 
Q 43.21875 16.703125 43.21875 25.484375 
L 43.21875 27.484375 
z
M 52.203125 31.203125 
L 52.203125 0 
L 43.21875 0 
L 43.21875 8.296875 
Q 40.140625 3.328125 35.546875 0.953125 
Q 30.953125 -1.421875 24.3125 -1.421875 
Q 15.921875 -1.421875 10.953125 3.296875 
Q 6 8.015625 6 15.921875 
Q 6 25.140625 12.171875 29.828125 
Q 18.359375 34.515625 30.609375 34.515625 
L 43.21875 34.515625 
L 43.21875 35.40625 
Q 43.21875 41.609375 39.140625 45 
Q 35.0625 48.390625 27.6875 48.390625 
Q 23 48.390625 18.546875 47.265625 
Q 14.109375 46.140625 10.015625 43.890625 
L 10.015625 52.203125 
Q 14.9375 54.109375 19.578125 55.046875 
Q 24.21875 56 28.609375 56 
Q 40.484375 56 46.34375 49.84375 
Q 52.203125 43.703125 52.203125 31.203125 
z
" id="DejaVuSans-97"/>
      <path d="M 4.890625 31.390625 
L 31.203125 31.390625 
L 31.203125 23.390625 
L 4.890625 23.390625 
z
" id="DejaVuSans-45"/>
      <path d="M 48.6875 27.296875 
Q 48.6875 37.203125 44.609375 42.84375 
Q 40.53125 48.484375 33.40625 48.484375 
Q 26.265625 48.484375 22.1875 42.84375 
Q 18.109375 37.203125 18.109375 27.296875 
Q 18.109375 17.390625 22.1875 11.75 
Q 26.265625 6.109375 33.40625 6.109375 
Q 40.53125 6.109375 44.609375 11.75 
Q 48.6875 17.390625 48.6875 27.296875 
z
M 18.109375 46.390625 
Q 20.953125 51.265625 25.265625 53.625 
Q 29.59375 56 35.59375 56 
Q 45.5625 56 51.78125 48.09375 
Q 58.015625 40.1875 58.015625 27.296875 
Q 58.015625 14.40625 51.78125 6.484375 
Q 45.5625 -1.421875 35.59375 -1.421875 
Q 29.59375 -1.421875 25.265625 0.953125 
Q 20.953125 3.328125 18.109375 8.203125 
L 18.109375 0 
L 9.078125 0 
L 9.078125 75.984375 
L 18.109375 75.984375 
z
" id="DejaVuSans-98"/>
      <path d="M 54.890625 33.015625 
L 54.890625 0 
L 45.90625 0 
L 45.90625 32.71875 
Q 45.90625 40.484375 42.875 44.328125 
Q 39.84375 48.1875 33.796875 48.1875 
Q 26.515625 48.1875 22.3125 43.546875 
Q 18.109375 38.921875 18.109375 30.90625 
L 18.109375 0 
L 9.078125 0 
L 9.078125 54.6875 
L 18.109375 54.6875 
L 18.109375 46.1875 
Q 21.34375 51.125 25.703125 53.5625 
Q 30.078125 56 35.796875 56 
Q 45.21875 56 50.046875 50.171875 
Q 54.890625 44.34375 54.890625 33.015625 
z
" id="DejaVuSans-110"/>
      <path d="M 18.796875 44.921875 
Q 22.703125 49.90625 30.953125 54.296875 
Q 34.1875 56 43.0625 56 
Q 53.03125 56 57.71875 48.09375 
Q 62.40625 40.1875 59.90625 27.296875 
Q 57.375 14.40625 49.609375 6.484375 
Q 41.84375 -1.421875 31.890625 -1.421875 
Q 25.875 -1.421875 22.015625 0.984375 
Q 18.171875 3.328125 16.3125 8.203125 
L 10.640625 -20.796875 
L 1.609375 -20.796875 
L 10.890625 26.8125 
Q 13.09375 38.09375 18.796875 44.921875 
z
M 50.59375 27.296875 
Q 52.484375 37.203125 49.515625 42.875 
Q 46.53125 48.484375 39.40625 48.484375 
Q 32.28125 48.484375 27.09375 42.875 
Q 21.921875 37.203125 20.015625 27.296875 
Q 18.0625 17.390625 21.046875 11.71875 
Q 24.03125 6.109375 31.15625 6.109375 
Q 38.28125 6.109375 43.453125 11.71875 
Q 48.640625 17.390625 50.59375 27.296875 
z
" id="DejaVuSans-Oblique-961"/>
     </defs>
     <g transform="translate(24.01725 138.044)rotate(-90)scale(0.144 -0.144)">
      <use transform="translate(0 0.015625)" xlink:href="#DejaVuSans-66"/>
      <use transform="translate(68.603516 0.015625)" xlink:href="#DejaVuSans-101"/>
      <use transform="translate(130.126953 0.015625)" xlink:href="#DejaVuSans-116"/>
      <use transform="translate(169.335938 0.015625)" xlink:href="#DejaVuSans-97"/>
      <use transform="translate(230.615234 0.015625)" xlink:href="#DejaVuSans-45"/>
      <use transform="translate(266.699219 0.015625)" xlink:href="#DejaVuSans-98"/>
      <use transform="translate(330.175781 0.015625)" xlink:href="#DejaVuSans-105"/>
      <use transform="translate(357.958984 0.015625)" xlink:href="#DejaVuSans-110"/>
      <use transform="translate(421.337891 0.015625)" xlink:href="#DejaVuSans-32"/>
      <use transform="translate(453.125 0.015625)" xlink:href="#DejaVuSans-Oblique-961"/>
     </g>
    </g>
   </g>
   <g id="line2d_11">
    <path clip-path="url(#pe2f73439e7)" d="M 80.03 44.448858 
L 81.674644 51.37596 
L 83.319288 47.666861 
L 84.963932 43.143706 
L 86.608576 44.069996 
L 88.25322 48.486321 
L 89.897864 40.28473 
L 91.542508 45.426384 
L 93.187153 44.710275 
L 94.831797 48.486545 
L 96.476441 55.598909 
L 98.121085 40.948762 
L 99.765729 32.884 
L 101.410373 54.936606 
L 103.055017 54.049367 
L 104.699661 40.492695 
L 106.344305 63.232365 
L 107.988949 51.241571 
L 109.633593 49.549424 
L 111.278237 49.370519 
L 112.922881 47.972719 
L 114.567525 53.596097 
L 116.212169 52.864279 
L 117.856814 46.835487 
L 119.501458 47.725943 
L 121.146102 54.844443 
L 122.790746 44.294375 
L 124.43539 37.607683 
L 126.080034 49.501876 
L 127.724678 48.00482 
L 129.369322 53.46069 
L 131.013966 45.143468 
L 132.65861 53.792233 
L 134.303254 34.650062 
L 135.947898 57.304436 
L 139.237186 44.314837 
L 140.881831 41.168077 
L 142.526475 46.313411 
L 144.171119 51.006708 
L 145.815763 34.07087 
L 147.460407 48.251639 
L 149.105051 45.663005 
L 150.749695 44.407849 
L 152.394339 50.940164 
L 154.038983 46.955979 
L 155.683627 35.447617 
L 157.328271 38.731307 
L 158.972915 46.104177 
L 160.617559 45.782601 
L 162.262203 43.504506 
L 163.906847 48.70298 
L 165.551492 41.404231 
L 167.196136 45.384762 
L 168.84078 40.052616 
L 170.485424 49.863492 
L 172.130068 47.11209 
L 173.774712 51.380494 
L 175.419356 47.584849 
L 177.064 56.020123 
L 178.708644 48.412095 
L 180.353288 58.539013 
L 181.997932 43.136212 
L 183.642576 45.062752 
L 185.28722 46.779275 
L 186.931864 56.876545 
L 188.576508 46.857893 
L 190.221153 50.396622 
L 191.865797 48.267217 
L 193.510441 45.157676 
L 195.155085 46.014675 
L 196.799729 36.613486 
L 198.444373 45.173669 
L 200.089017 39.931439 
L 201.733661 43.693911 
L 203.378305 45.902713 
L 205.022949 57.328319 
L 206.667593 46.357441 
L 208.312237 43.997369 
L 209.956881 49.353183 
L 211.601525 46.190941 
L 213.246169 56.346302 
L 214.890814 55.804374 
L 216.535458 51.094917 
L 218.180102 55.140346 
L 219.824746 51.288694 
L 221.46939 48.767812 
L 223.114034 55.383444 
L 224.758678 43.262022 
L 226.403322 51.39077 
L 228.047966 54.897321 
L 229.69261 40.333528 
L 231.337254 54.634573 
L 232.981898 35.517738 
L 236.271186 63.558976 
L 237.915831 50.661878 
L 239.560475 50.032915 
L 241.205119 54.072565 
L 242.849763 52.373893 
L 244.494407 51.132156 
L 246.139051 38.605418 
L 247.783695 54.34174 
L 251.072983 47.157141 
L 252.717627 53.156824 
L 254.362271 56.513521 
L 256.006915 56.481386 
L 257.651559 39.231362 
L 259.296203 42.435417 
L 260.940847 49.788097 
L 262.585492 52.288381 
L 264.230136 40.533413 
L 265.87478 42.751168 
L 267.519424 41.003788 
L 269.164068 49.428154 
L 270.808712 44.488415 
L 272.453356 52.850515 
L 274.098 54.233363 
L 275.742644 57.342075 
L 277.387288 43.88608 
L 279.031932 55.701994 
L 280.676576 47.424359 
L 282.32122 50.411235 
L 283.965864 46.87156 
L 285.610508 56.695917 
L 287.255153 56.059674 
L 288.899797 51.306344 
L 290.544441 48.553333 
L 292.189085 56.845807 
L 293.833729 45.837887 
L 295.478373 35.869227 
L 297.123017 58.950984 
L 298.767661 58.50134 
L 300.412305 50.028391 
L 302.056949 63.364228 
L 303.701593 48.732591 
L 305.346237 52.236567 
L 306.990881 44.297393 
L 308.635525 47.255682 
L 310.280169 53.716966 
L 311.924814 54.155953 
L 313.569458 57.997655 
L 315.214102 58.091095 
L 316.858746 45.431598 
L 318.50339 41.434487 
L 320.148034 42.655573 
L 321.792678 49.413686 
L 323.437322 48.651096 
L 325.081966 43.649585 
L 326.72661 57.402263 
L 328.371254 56.714361 
L 330.015898 56.50277 
L 331.660542 35.455177 
L 333.305186 49.188847 
L 334.949831 51.081391 
L 336.594475 45.284871 
L 338.239119 49.473116 
L 339.883763 44.357669 
L 341.528407 47.268305 
L 343.173051 49.399989 
L 344.817695 35.459936 
L 346.462339 58.02218 
L 348.106983 51.924407 
L 349.751627 60.975825 
L 351.396271 44.372183 
L 353.040915 54.527868 
L 354.685559 54.66524 
L 356.330203 52.208338 
L 357.974847 54.428434 
L 359.619492 51.640815 
L 361.264136 45.397828 
L 362.90878 61.499482 
L 364.553424 59.31274 
L 366.198068 54.10814 
L 367.842712 56.479742 
L 369.487356 52.345918 
L 371.132 51.122213 
L 372.776644 53.17576 
L 374.421288 54.426729 
L 376.065932 50.637588 
L 377.710576 47.562127 
L 379.35522 39.043743 
L 380.999864 50.071366 
L 382.644508 49.988129 
L 384.289153 46.613394 
L 385.933797 51.432782 
L 387.578441 43.706232 
L 389.223085 48.073244 
L 390.867729 46.912459 
L 392.512373 53.922158 
L 394.157017 51.976846 
L 395.801661 43.349208 
L 397.446305 58.703327 
L 399.090949 44.925454 
L 400.735593 50.220707 
L 402.380237 39.291631 
L 404.024881 57.521874 
L 405.669525 57.746843 
L 407.314169 48.695609 
L 408.958814 58.192297 
L 410.603458 47.681403 
L 412.248102 41.080457 
L 413.892746 46.336804 
L 415.53739 48.264212 
L 417.182034 58.425313 
L 418.826678 48.43046 
L 420.471322 45.876739 
L 422.115966 61.693645 
L 423.76061 46.299628 
L 425.405254 46.687731 
L 427.049898 56.462206 
L 428.694542 55.299378 
L 430.339186 49.74993 
L 431.983831 57.785381 
L 433.628475 65.198359 
L 435.273119 36.495409 
L 436.917763 47.895542 
L 438.562407 45.928861 
L 440.207051 43.605175 
L 441.851695 42.561644 
L 443.496339 42.421497 
L 445.140983 49.681642 
L 446.785627 43.453157 
L 448.430271 41.766124 
L 450.074915 52.645952 
L 451.719559 45.897832 
L 453.364203 42.559826 
L 455.008847 47.690029 
L 456.653492 38.193233 
L 458.298136 40.446942 
L 459.94278 45.732028 
L 461.587424 49.677538 
L 463.232068 45.181258 
L 464.876712 53.342539 
L 466.521356 40.638918 
L 468.166 42.607571 
L 469.810644 45.719025 
L 471.455288 45.575165 
L 473.099932 37.471339 
L 474.744576 32.850006 
L 476.38922 39.109472 
L 478.033864 54.92401 
L 479.678508 43.974879 
L 481.323153 45.996181 
L 482.967797 53.830212 
L 484.612441 40.448418 
L 486.257085 48.973071 
L 487.901729 44.802195 
L 489.546373 48.746035 
L 491.191017 43.628857 
L 492.835661 50.940252 
L 494.480305 39.774652 
L 496.124949 49.485634 
L 497.769593 52.939815 
L 499.414237 44.544936 
L 501.058881 46.049353 
L 502.703525 36.123045 
L 504.348169 47.84229 
L 505.992814 53.118719 
L 507.637458 50.290347 
L 509.282102 43.842702 
L 510.926746 47.050686 
L 512.57139 52.445441 
L 514.216034 47.139853 
L 515.860678 47.323831 
L 517.505322 53.037914 
L 519.149966 35.296058 
L 520.79461 59.076331 
L 522.439254 49.974988 
L 524.083898 60.7911 
L 525.728542 51.333164 
L 527.373186 50.315641 
L 529.017831 55.361532 
L 530.662475 48.9257 
L 532.307119 53.426121 
L 533.951763 47.721755 
L 535.596407 47.296315 
L 537.241051 47.96227 
L 538.885695 49.978274 
L 540.530339 38.770233 
L 542.174983 47.25315 
L 543.819627 42.283027 
L 545.464271 47.456569 
L 547.108915 49.011072 
L 548.753559 48.848139 
L 550.398203 53.742775 
L 552.042847 49.830895 
L 553.687492 43.152784 
L 555.332136 48.212879 
L 556.97678 47.417267 
L 558.621424 42.638914 
L 560.266068 40.579618 
L 561.910712 56.483094 
L 563.555356 49.455452 
L 565.2 46.788677 
L 565.2 46.788677 
" style="fill:none;stroke:#0000ff;stroke-linecap:square;stroke-width:1.5;"/>
   </g>
   <g id="patch_3">
    <path d="M 80.03 174.76 
L 80.03 26.88 
" style="fill:none;stroke:#000000;stroke-linecap:square;stroke-linejoin:miter;stroke-width:0.8;"/>
   </g>
   <g id="patch_4">
    <path d="M 565.2 174.76 
L 565.2 26.88 
" style="fill:none;stroke:#000000;stroke-linecap:square;stroke-linejoin:miter;stroke-width:0.8;"/>
   </g>
   <g id="patch_5">
    <path d="M 80.03 174.76 
L 565.2 174.76 
" style="fill:none;stroke:#000000;stroke-linecap:square;stroke-linejoin:miter;stroke-width:0.8;"/>
   </g>
   <g id="patch_6">
    <path d="M 80.03 26.88 
L 565.2 26.88 
" style="fill:none;stroke:#000000;stroke-linecap:square;stroke-linejoin:miter;stroke-width:0.8;"/>
   </g>
   <g id="text_13">
    <!-- Thalamus, Num Trials=160 All stimulated trials, Num cells = 610 -->
    <defs>
     <path d="M 54.890625 33.015625 
L 54.890625 0 
L 45.90625 0 
L 45.90625 32.71875 
Q 45.90625 40.484375 42.875 44.328125 
Q 39.84375 48.1875 33.796875 48.1875 
Q 26.515625 48.1875 22.3125 43.546875 
Q 18.109375 38.921875 18.109375 30.90625 
L 18.109375 0 
L 9.078125 0 
L 9.078125 75.984375 
L 18.109375 75.984375 
L 18.109375 46.1875 
Q 21.34375 51.125 25.703125 53.5625 
Q 30.078125 56 35.796875 56 
Q 45.21875 56 50.046875 50.171875 
Q 54.890625 44.34375 54.890625 33.015625 
z
" id="DejaVuSans-104"/>
     <path d="M 9.421875 75.984375 
L 18.40625 75.984375 
L 18.40625 0 
L 9.421875 0 
z
" id="DejaVuSans-108"/>
     <path d="M 8.5 21.578125 
L 8.5 54.6875 
L 17.484375 54.6875 
L 17.484375 21.921875 
Q 17.484375 14.15625 20.5 10.265625 
Q 23.53125 6.390625 29.59375 6.390625 
Q 36.859375 6.390625 41.078125 11.03125 
Q 45.3125 15.671875 45.3125 23.6875 
L 45.3125 54.6875 
L 54.296875 54.6875 
L 54.296875 0 
L 45.3125 0 
L 45.3125 8.40625 
Q 42.046875 3.421875 37.71875 1 
Q 33.40625 -1.421875 27.6875 -1.421875 
Q 18.265625 -1.421875 13.375 4.4375 
Q 8.5 10.296875 8.5 21.578125 
z
M 31.109375 56 
z
" id="DejaVuSans-117"/>
     <path d="M 11.71875 12.40625 
L 22.015625 12.40625 
L 22.015625 4 
L 14.015625 -11.625 
L 7.71875 -11.625 
L 11.71875 4 
z
" id="DejaVuSans-44"/>
     <path d="M 9.8125 72.90625 
L 23.09375 72.90625 
L 55.421875 11.921875 
L 55.421875 72.90625 
L 64.984375 72.90625 
L 64.984375 0 
L 51.703125 0 
L 19.390625 60.984375 
L 19.390625 0 
L 9.8125 0 
z
" id="DejaVuSans-78"/>
     <path d="M 41.109375 46.296875 
Q 39.59375 47.171875 37.8125 47.578125 
Q 36.03125 48 33.890625 48 
Q 26.265625 48 22.1875 43.046875 
Q 18.109375 38.09375 18.109375 28.8125 
L 18.109375 0 
L 9.078125 0 
L 9.078125 54.6875 
L 18.109375 54.6875 
L 18.109375 46.1875 
Q 20.953125 51.171875 25.484375 53.578125 
Q 30.03125 56 36.53125 56 
Q 37.453125 56 38.578125 55.875 
Q 39.703125 55.765625 41.0625 55.515625 
z
" id="DejaVuSans-114"/>
     <path d="M 10.59375 45.40625 
L 73.1875 45.40625 
L 73.1875 37.203125 
L 10.59375 37.203125 
z
M 10.59375 25.484375 
L 73.1875 25.484375 
L 73.1875 17.1875 
L 10.59375 17.1875 
z
" id="DejaVuSans-61"/>
     <path d="M 34.1875 63.1875 
L 20.796875 26.90625 
L 47.609375 26.90625 
z
M 28.609375 72.90625 
L 39.796875 72.90625 
L 67.578125 0 
L 57.328125 0 
L 50.6875 18.703125 
L 17.828125 18.703125 
L 11.1875 0 
L 0.78125 0 
z
" id="DejaVuSans-65"/>
     <path d="M 45.40625 46.390625 
L 45.40625 75.984375 
L 54.390625 75.984375 
L 54.390625 0 
L 45.40625 0 
L 45.40625 8.203125 
Q 42.578125 3.328125 38.25 0.953125 
Q 33.9375 -1.421875 27.875 -1.421875 
Q 17.96875 -1.421875 11.734375 6.484375 
Q 5.515625 14.40625 5.515625 27.296875 
Q 5.515625 40.1875 11.734375 48.09375 
Q 17.96875 56 27.875 56 
Q 33.9375 56 38.25 53.625 
Q 42.578125 51.265625 45.40625 46.390625 
z
M 14.796875 27.296875 
Q 14.796875 17.390625 18.875 11.75 
Q 22.953125 6.109375 30.078125 6.109375 
Q 37.203125 6.109375 41.296875 11.75 
Q 45.40625 17.390625 45.40625 27.296875 
Q 45.40625 37.203125 41.296875 42.84375 
Q 37.203125 48.484375 30.078125 48.484375 
Q 22.953125 48.484375 18.875 42.84375 
Q 14.796875 37.203125 14.796875 27.296875 
z
" id="DejaVuSans-100"/>
     <path d="M 48.78125 52.59375 
L 48.78125 44.1875 
Q 44.96875 46.296875 41.140625 47.34375 
Q 37.3125 48.390625 33.40625 48.390625 
Q 24.65625 48.390625 19.8125 42.84375 
Q 14.984375 37.3125 14.984375 27.296875 
Q 14.984375 17.28125 19.8125 11.734375 
Q 24.65625 6.203125 33.40625 6.203125 
Q 37.3125 6.203125 41.140625 7.25 
Q 44.96875 8.296875 48.78125 10.40625 
L 48.78125 2.09375 
Q 45.015625 0.34375 40.984375 -0.53125 
Q 36.96875 -1.421875 32.421875 -1.421875 
Q 20.0625 -1.421875 12.78125 6.34375 
Q 5.515625 14.109375 5.515625 27.296875 
Q 5.515625 40.671875 12.859375 48.328125 
Q 20.21875 56 33.015625 56 
Q 37.15625 56 41.109375 55.140625 
Q 45.0625 54.296875 48.78125 52.59375 
z
" id="DejaVuSans-99"/>
    </defs>
    <g transform="translate(127.060938 20.88)scale(0.12 -0.12)">
     <use xlink:href="#DejaVuSans-84"/>
     <use x="61.083984" xlink:href="#DejaVuSans-104"/>
     <use x="124.462891" xlink:href="#DejaVuSans-97"/>
     <use x="185.742188" xlink:href="#DejaVuSans-108"/>
     <use x="213.525391" xlink:href="#DejaVuSans-97"/>
     <use x="274.804688" xlink:href="#DejaVuSans-109"/>
     <use x="372.216797" xlink:href="#DejaVuSans-117"/>
     <use x="435.595703" xlink:href="#DejaVuSans-115"/>
     <use x="487.695312" xlink:href="#DejaVuSans-44"/>
     <use x="519.482422" xlink:href="#DejaVuSans-32"/>
     <use x="551.269531" xlink:href="#DejaVuSans-78"/>
     <use x="626.074219" xlink:href="#DejaVuSans-117"/>
     <use x="689.453125" xlink:href="#DejaVuSans-109"/>
     <use x="786.865234" xlink:href="#DejaVuSans-32"/>
     <use x="818.652344" xlink:href="#DejaVuSans-84"/>
     <use x="879.517578" xlink:href="#DejaVuSans-114"/>
     <use x="920.630859" xlink:href="#DejaVuSans-105"/>
     <use x="948.414062" xlink:href="#DejaVuSans-97"/>
     <use x="1009.693359" xlink:href="#DejaVuSans-108"/>
     <use x="1037.476562" xlink:href="#DejaVuSans-115"/>
     <use x="1089.576172" xlink:href="#DejaVuSans-61"/>
     <use x="1173.365234" xlink:href="#DejaVuSans-49"/>
     <use x="1236.988281" xlink:href="#DejaVuSans-54"/>
     <use x="1300.611328" xlink:href="#DejaVuSans-48"/>
     <use x="1364.234375" xlink:href="#DejaVuSans-32"/>
     <use x="1396.021484" xlink:href="#DejaVuSans-65"/>
     <use x="1464.429688" xlink:href="#DejaVuSans-108"/>
     <use x="1492.212891" xlink:href="#DejaVuSans-108"/>
     <use x="1519.996094" xlink:href="#DejaVuSans-32"/>
     <use x="1551.783203" xlink:href="#DejaVuSans-115"/>
     <use x="1603.882812" xlink:href="#DejaVuSans-116"/>
     <use x="1643.091797" xlink:href="#DejaVuSans-105"/>
     <use x="1670.875" xlink:href="#DejaVuSans-109"/>
     <use x="1768.287109" xlink:href="#DejaVuSans-117"/>
     <use x="1831.666016" xlink:href="#DejaVuSans-108"/>
     <use x="1859.449219" xlink:href="#DejaVuSans-97"/>
     <use x="1920.728516" xlink:href="#DejaVuSans-116"/>
     <use x="1959.9375" xlink:href="#DejaVuSans-101"/>
     <use x="2021.460938" xlink:href="#DejaVuSans-100"/>
     <use x="2084.9375" xlink:href="#DejaVuSans-32"/>
     <use x="2116.724609" xlink:href="#DejaVuSans-116"/>
     <use x="2155.933594" xlink:href="#DejaVuSans-114"/>
     <use x="2197.046875" xlink:href="#DejaVuSans-105"/>
     <use x="2224.830078" xlink:href="#DejaVuSans-97"/>
     <use x="2286.109375" xlink:href="#DejaVuSans-108"/>
     <use x="2313.892578" xlink:href="#DejaVuSans-115"/>
     <use x="2365.992188" xlink:href="#DejaVuSans-44"/>
     <use x="2397.779297" xlink:href="#DejaVuSans-32"/>
     <use x="2429.566406" xlink:href="#DejaVuSans-78"/>
     <use x="2504.371094" xlink:href="#DejaVuSans-117"/>
     <use x="2567.75" xlink:href="#DejaVuSans-109"/>
     <use x="2665.162109" xlink:href="#DejaVuSans-32"/>
     <use x="2696.949219" xlink:href="#DejaVuSans-99"/>
     <use x="2751.929688" xlink:href="#DejaVuSans-101"/>
     <use x="2813.453125" xlink:href="#DejaVuSans-108"/>
     <use x="2841.236328" xlink:href="#DejaVuSans-108"/>
     <use x="2869.019531" xlink:href="#DejaVuSans-115"/>
     <use x="2921.119141" xlink:href="#DejaVuSans-32"/>
     <use x="2952.90625" xlink:href="#DejaVuSans-61"/>
     <use x="3036.695312" xlink:href="#DejaVuSans-32"/>
     <use x="3068.482422" xlink:href="#DejaVuSans-54"/>
     <use x="3132.105469" xlink:href="#DejaVuSans-49"/>
     <use x="3195.728516" xlink:href="#DejaVuSans-48"/>
    </g>
   </g>
   <g id="legend_1">
    <g id="patch_7">
     <path d="M 88.43 168.76 
L 222.59 168.76 
Q 224.99 168.76 224.99 166.36 
L 224.99 132.30625 
Q 224.99 129.90625 222.59 129.90625 
L 88.43 129.90625 
Q 86.03 129.90625 86.03 132.30625 
L 86.03 166.36 
Q 86.03 168.76 88.43 168.76 
z
" style="fill:#ffffff;opacity:0.8;stroke:#cccccc;stroke-linejoin:miter;"/>
    </g>
    <g id="line2d_12">
     <path d="M 90.83 139.62625 
L 114.83 139.62625 
" style="fill:none;stroke:#0000ff;stroke-linecap:square;stroke-width:1.5;"/>
    </g>
    <g id="line2d_13"/>
    <g id="text_14">
     <!-- Beta-Binomial $\rho$ -->
     <defs>
      <path d="M 30.609375 48.390625 
Q 23.390625 48.390625 19.1875 42.75 
Q 14.984375 37.109375 14.984375 27.296875 
Q 14.984375 17.484375 19.15625 11.84375 
Q 23.34375 6.203125 30.609375 6.203125 
Q 37.796875 6.203125 41.984375 11.859375 
Q 46.1875 17.53125 46.1875 27.296875 
Q 46.1875 37.015625 41.984375 42.703125 
Q 37.796875 48.390625 30.609375 48.390625 
z
M 30.609375 56 
Q 42.328125 56 49.015625 48.375 
Q 55.71875 40.765625 55.71875 27.296875 
Q 55.71875 13.875 49.015625 6.21875 
Q 42.328125 -1.421875 30.609375 -1.421875 
Q 18.84375 -1.421875 12.171875 6.21875 
Q 5.515625 13.875 5.515625 27.296875 
Q 5.515625 40.765625 12.171875 48.375 
Q 18.84375 56 30.609375 56 
z
" id="DejaVuSans-111"/>
     </defs>
     <g transform="translate(124.43 143.82625)scale(0.12 -0.12)">
      <use transform="translate(0 0.015625)" xlink:href="#DejaVuSans-66"/>
      <use transform="translate(68.603516 0.015625)" xlink:href="#DejaVuSans-101"/>
      <use transform="translate(130.126953 0.015625)" xlink:href="#DejaVuSans-116"/>
      <use transform="translate(169.335938 0.015625)" xlink:href="#DejaVuSans-97"/>
      <use transform="translate(230.615234 0.015625)" xlink:href="#DejaVuSans-45"/>
      <use transform="translate(266.699219 0.015625)" xlink:href="#DejaVuSans-66"/>
      <use transform="translate(335.302734 0.015625)" xlink:href="#DejaVuSans-105"/>
      <use transform="translate(363.085938 0.015625)" xlink:href="#DejaVuSans-110"/>
      <use transform="translate(426.464844 0.015625)" xlink:href="#DejaVuSans-111"/>
      <use transform="translate(487.646484 0.015625)" xlink:href="#DejaVuSans-109"/>
      <use transform="translate(585.058594 0.015625)" xlink:href="#DejaVuSans-105"/>
      <use transform="translate(612.841797 0.015625)" xlink:href="#DejaVuSans-97"/>
      <use transform="translate(674.121094 0.015625)" xlink:href="#DejaVuSans-108"/>
      <use transform="translate(701.904297 0.015625)" xlink:href="#DejaVuSans-32"/>
      <use transform="translate(733.691406 0.015625)" xlink:href="#DejaVuSans-Oblique-961"/>
     </g>
    </g>
    <g id="patch_8">
     <path d="M 90.83 161.464375 
L 114.83 161.464375 
L 114.83 153.064375 
L 90.83 153.064375 
z
" style="fill:#0000ff;opacity:0.3;stroke:#0000ff;stroke-linejoin:miter;"/>
    </g>
    <g id="text_15">
     <!-- Std. Err. -->
     <defs>
      <path d="M 53.515625 70.515625 
L 53.515625 60.890625 
Q 47.90625 63.578125 42.921875 64.890625 
Q 37.9375 66.21875 33.296875 66.21875 
Q 25.25 66.21875 20.875 63.09375 
Q 16.5 59.96875 16.5 54.203125 
Q 16.5 49.359375 19.40625 46.890625 
Q 22.3125 44.4375 30.421875 42.921875 
L 36.375 41.703125 
Q 47.40625 39.59375 52.65625 34.296875 
Q 57.90625 29 57.90625 20.125 
Q 57.90625 9.515625 50.796875 4.046875 
Q 43.703125 -1.421875 29.984375 -1.421875 
Q 24.8125 -1.421875 18.96875 -0.25 
Q 13.140625 0.921875 6.890625 3.21875 
L 6.890625 13.375 
Q 12.890625 10.015625 18.65625 8.296875 
Q 24.421875 6.59375 29.984375 6.59375 
Q 38.421875 6.59375 43.015625 9.90625 
Q 47.609375 13.234375 47.609375 19.390625 
Q 47.609375 24.75 44.3125 27.78125 
Q 41.015625 30.8125 33.5 32.328125 
L 27.484375 33.5 
Q 16.453125 35.6875 11.515625 40.375 
Q 6.59375 45.0625 6.59375 53.421875 
Q 6.59375 63.09375 13.40625 68.65625 
Q 20.21875 74.21875 32.171875 74.21875 
Q 37.3125 74.21875 42.625 73.28125 
Q 47.953125 72.359375 53.515625 70.515625 
z
" id="DejaVuSans-83"/>
      <path d="M 9.8125 72.90625 
L 55.90625 72.90625 
L 55.90625 64.59375 
L 19.671875 64.59375 
L 19.671875 43.015625 
L 54.390625 43.015625 
L 54.390625 34.71875 
L 19.671875 34.71875 
L 19.671875 8.296875 
L 56.78125 8.296875 
L 56.78125 0 
L 9.8125 0 
z
" id="DejaVuSans-69"/>
     </defs>
     <g transform="translate(124.43 161.464375)scale(0.12 -0.12)">
      <use xlink:href="#DejaVuSans-83"/>
      <use x="63.476562" xlink:href="#DejaVuSans-116"/>
      <use x="102.685547" xlink:href="#DejaVuSans-100"/>
      <use x="166.162109" xlink:href="#DejaVuSans-46"/>
      <use x="197.949219" xlink:href="#DejaVuSans-32"/>
      <use x="229.736328" xlink:href="#DejaVuSans-69"/>
      <use x="292.919922" xlink:href="#DejaVuSans-114"/>
      <use x="334.017578" xlink:href="#DejaVuSans-114"/>
      <use x="374.990234" xlink:href="#DejaVuSans-46"/>
     </g>
    </g>
   </g>
  </g>
 </g>
 <defs>
  <clipPath id="pe2f73439e7">
   <rect height="147.88" width="485.17" x="80.03" y="26.88"/>
  </clipPath>
 </defs>
</svg>
