<?xml version="1.0" encoding="utf-8" standalone="no"?>
<!DOCTYPE svg PUBLIC "-//W3C//DTD SVG 1.1//EN"
  "http://www.w3.org/Graphics/SVG/1.1/DTD/svg11.dtd">
<!-- Created with matplotlib (https://matplotlib.org/) -->
<svg height="216pt" version="1.1" viewBox="0 0 648 216" width="648pt" xmlns="http://www.w3.org/2000/svg" xmlns:xlink="http://www.w3.org/1999/xlink">
 <defs>
  <style type="text/css">
*{stroke-linecap:butt;stroke-linejoin:round;}
  </style>
 </defs>
 <g id="figure_1">
  <g id="patch_1">
   <path d="M 0 216 
L 648 216 
L 648 0 
L 0 0 
z
" style="fill:#ffffff;"/>
  </g>
  <g id="axes_1">
   <g id="patch_2">
    <path d="M 81 192.24 
L 583.2 192.24 
L 583.2 25.92 
L 81 25.92 
z
" style="fill:#ffffff;"/>
   </g>
   <g id="PolyCollection_1">
    <defs>
     <path d="M 81 -68.41487 
L 81 -35.306304 
L 83.049796 -33.202589 
L 85.099592 -36.217685 
L 87.149388 -34.445033 
L 89.199184 -31.972241 
L 91.24898 -32.009333 
L 93.298776 -32.453138 
L 95.348571 -30.884093 
L 97.398367 -33.391627 
L 99.448163 -26.316817 
L 101.497959 -28.314262 
L 103.547755 -31.947056 
L 105.597551 -28.264577 
L 107.647347 -25.50345 
L 109.697143 -25.221086 
L 111.746939 -25.044365 
L 113.796735 -25.152828 
L 115.846531 -23.76 
L 117.896327 -27.603542 
L 119.946122 -39.453757 
L 121.995918 -63.422137 
L 124.045714 -75.940503 
L 126.09551 -83.161834 
L 128.145306 -86.96229 
L 130.195102 -91.284914 
L 132.244898 -99.049669 
L 134.294694 -101.867318 
L 136.34449 -104.802354 
L 138.394286 -103.72287 
L 140.444082 -88.998779 
L 142.493878 -67.633724 
L 144.543673 -60.198297 
L 146.593469 -52.401483 
L 148.643265 -44.745391 
L 150.693061 -41.267366 
L 152.742857 -41.205423 
L 154.792653 -37.086156 
L 156.842449 -39.73348 
L 158.892245 -45.781077 
L 160.942041 -45.73023 
L 162.991837 -48.180981 
L 165.041633 -51.742233 
L 167.091429 -54.776141 
L 169.141224 -58.364329 
L 171.19102 -68.061119 
L 173.240816 -74.927203 
L 175.290612 -87.219942 
L 177.340408 -92.96385 
L 179.390204 -98.139031 
L 181.44 -98.55753 
L 183.489796 -101.489305 
L 185.539592 -101.115715 
L 187.589388 -108.647428 
L 189.639184 -105.670089 
L 191.68898 -100.752719 
L 193.738776 -99.902419 
L 195.788571 -92.858167 
L 197.838367 -90.56773 
L 199.888163 -88.720419 
L 201.937959 -87.133095 
L 203.987755 -88.191632 
L 206.037551 -86.121341 
L 208.087347 -82.83005 
L 210.137143 -85.587961 
L 212.186939 -87.727693 
L 214.236735 -88.933583 
L 216.286531 -84.872413 
L 218.336327 -83.809904 
L 220.386122 -84.704807 
L 222.435918 -79.744665 
L 224.485714 -79.096969 
L 226.53551 -84.174505 
L 228.585306 -81.709366 
L 230.635102 -80.338966 
L 232.684898 -81.213821 
L 234.734694 -79.28119 
L 236.78449 -83.867891 
L 238.834286 -78.127143 
L 240.884082 -76.074143 
L 242.933878 -77.086097 
L 244.983673 -79.025044 
L 247.033469 -79.757667 
L 249.083265 -82.030394 
L 251.133061 -89.343103 
L 253.182857 -91.067295 
L 255.232653 -89.09409 
L 257.282449 -91.878833 
L 259.332245 -100.732082 
L 261.382041 -101.013916 
L 263.431837 -103.31222 
L 265.481633 -100.990751 
L 267.531429 -99.4454 
L 269.581224 -103.244095 
L 271.63102 -102.102356 
L 273.680816 -103.387747 
L 275.730612 -106.979361 
L 277.780408 -107.309916 
L 279.830204 -106.137845 
L 281.88 -110.560656 
L 283.929796 -107.474788 
L 285.979592 -107.349674 
L 288.029388 -107.960747 
L 290.079184 -111.135775 
L 292.12898 -112.570209 
L 294.178776 -110.24265 
L 296.228571 -113.311725 
L 298.278367 -119.895625 
L 300.328163 -114.671583 
L 302.377959 -113.941358 
L 304.427755 -115.389709 
L 306.477551 -110.434812 
L 308.527347 -113.705558 
L 310.577143 -111.477436 
L 312.626939 -111.577398 
L 314.676735 -113.904016 
L 316.726531 -112.209064 
L 318.776327 -115.366445 
L 320.826122 -117.85672 
L 322.875918 -121.006014 
L 324.925714 -120.243788 
L 326.97551 -122.922024 
L 329.025306 -127.209534 
L 331.075102 -121.204556 
L 333.124898 -126.045056 
L 335.174694 -124.452261 
L 337.22449 -120.29821 
L 339.274286 -117.799842 
L 341.324082 -113.848177 
L 343.373878 -116.391494 
L 345.423673 -114.588628 
L 347.473469 -111.547404 
L 349.523265 -116.08015 
L 351.573061 -111.323814 
L 353.622857 -115.031884 
L 355.672653 -118.926412 
L 357.722449 -115.715589 
L 359.772245 -119.874567 
L 361.822041 -118.550757 
L 363.871837 -122.402819 
L 365.921633 -123.571956 
L 367.971429 -130.096449 
L 370.021224 -126.745632 
L 372.07102 -127.135936 
L 374.120816 -126.347725 
L 376.170612 -127.325795 
L 378.220408 -128.628603 
L 380.270204 -132.230308 
L 382.32 -131.249058 
L 384.369796 -131.962664 
L 386.419592 -135.296475 
L 388.469388 -136.803035 
L 390.519184 -141.607086 
L 392.56898 -144.198374 
L 394.618776 -146.483049 
L 396.668571 -141.651713 
L 398.718367 -143.680478 
L 400.768163 -146.855904 
L 402.817959 -145.178788 
L 404.867755 -145.568882 
L 406.917551 -148.878562 
L 408.967347 -153.305767 
L 411.017143 -153.316466 
L 413.066939 -153.820131 
L 415.116735 -157.331398 
L 417.166531 -157.555858 
L 419.216327 -157.190056 
L 421.266122 -157.149648 
L 423.315918 -153.491209 
L 425.365714 -144.477762 
L 427.41551 -144.00652 
L 429.465306 -134.062197 
L 431.515102 -128.529351 
L 433.564898 -112.093298 
L 435.614694 -101.225082 
L 437.66449 -93.410855 
L 439.714286 -82.522519 
L 441.764082 -77.907388 
L 443.813878 -68.430344 
L 445.863673 -67.506498 
L 447.913469 -63.733674 
L 449.963265 -58.631155 
L 452.013061 -60.907201 
L 454.062857 -60.489534 
L 456.112653 -56.686431 
L 458.162449 -61.368144 
L 460.212245 -58.940483 
L 462.262041 -52.742273 
L 464.311837 -53.709588 
L 466.361633 -55.071931 
L 468.411429 -55.165008 
L 470.461224 -57.880152 
L 472.51102 -66.778119 
L 474.560816 -66.328521 
L 476.610612 -70.032079 
L 478.660408 -68.905053 
L 480.710204 -74.754508 
L 482.76 -83.061626 
L 484.809796 -79.612573 
L 486.859592 -83.10653 
L 488.909388 -82.861242 
L 490.959184 -81.285572 
L 493.00898 -82.318234 
L 495.058776 -82.058898 
L 497.108571 -77.56659 
L 499.158367 -79.760605 
L 501.208163 -75.41712 
L 503.257959 -69.008566 
L 505.307755 -64.873254 
L 507.357551 -60.020456 
L 509.407347 -57.348885 
L 511.457143 -55.942622 
L 513.506939 -53.689992 
L 515.556735 -53.893546 
L 517.606531 -54.966322 
L 519.656327 -55.111885 
L 521.706122 -59.918703 
L 523.755918 -60.28882 
L 525.805714 -58.941049 
L 527.85551 -66.303635 
L 529.905306 -64.668342 
L 531.955102 -62.316602 
L 534.004898 -68.245564 
L 536.054694 -65.195668 
L 538.10449 -69.524035 
L 540.154286 -65.140451 
L 542.204082 -63.454532 
L 544.253878 -60.253797 
L 546.303673 -60.784841 
L 548.353469 -54.141375 
L 550.403265 -50.110166 
L 552.453061 -51.376296 
L 554.502857 -49.157014 
L 556.552653 -47.095518 
L 558.602449 -38.541062 
L 560.652245 -38.309267 
L 562.702041 -38.844765 
L 564.751837 -39.409428 
L 566.801633 -42.149583 
L 568.851429 -42.11442 
L 570.901224 -43.516605 
L 572.95102 -41.384603 
L 575.000816 -42.285877 
L 577.050612 -47.051293 
L 579.100408 -49.008779 
L 581.150204 -45.739633 
L 583.2 -40.651722 
L 583.2 -74.028156 
L 583.2 -74.028156 
L 581.150204 -79.321397 
L 579.100408 -82.913641 
L 577.050612 -81.725622 
L 575.000816 -76.864144 
L 572.95102 -76.070298 
L 570.901224 -78.523765 
L 568.851429 -76.968947 
L 566.801633 -77.638473 
L 564.751837 -74.443477 
L 562.702041 -74.929859 
L 560.652245 -74.0681 
L 558.602449 -74.170122 
L 556.552653 -82.077665 
L 554.502857 -84.23673 
L 552.453061 -85.670657 
L 550.403265 -85.245686 
L 548.353469 -88.574164 
L 546.303673 -95.68698 
L 544.253878 -95.343396 
L 542.204082 -97.702669 
L 540.154286 -99.14084 
L 538.10449 -103.350286 
L 536.054694 -99.197255 
L 534.004898 -102.599714 
L 531.955102 -96.89845 
L 529.905306 -99.633666 
L 527.85551 -101.346618 
L 525.805714 -94.547953 
L 523.755918 -95.454371 
L 521.706122 -95.032893 
L 519.656327 -90.479024 
L 517.606531 -89.994876 
L 515.556735 -88.81429 
L 513.506939 -87.742829 
L 511.457143 -90.090006 
L 509.407347 -90.586551 
L 507.357551 -94.2249 
L 505.307755 -98.421042 
L 503.257959 -103.488839 
L 501.208163 -109.92842 
L 499.158367 -114.876719 
L 497.108571 -112.065488 
L 495.058776 -115.808638 
L 493.00898 -116.097756 
L 490.959184 -115.523682 
L 488.909388 -117.318481 
L 486.859592 -117.55349 
L 484.809796 -114.360694 
L 482.76 -118.326285 
L 480.710204 -109.653146 
L 478.660408 -103.338168 
L 476.610612 -105.860071 
L 474.560816 -102.334697 
L 472.51102 -103.472259 
L 470.461224 -95.035721 
L 468.411429 -91.879965 
L 466.361633 -91.768219 
L 464.311837 -90.640106 
L 462.262041 -89.602817 
L 460.212245 -96.1618 
L 458.162449 -97.585461 
L 456.112653 -92.875754 
L 454.062857 -96.144229 
L 452.013061 -96.104789 
L 449.963265 -93.130209 
L 447.913469 -97.504762 
L 445.863673 -100.864467 
L 443.813878 -101.062591 
L 441.764082 -110.563991 
L 439.714286 -115.107223 
L 437.66449 -125.193984 
L 435.614694 -133.326822 
L 433.564898 -144.76526 
L 431.515102 -160.545638 
L 429.465306 -166.251069 
L 427.41551 -177.10397 
L 425.365714 -177.217745 
L 423.315918 -186.566791 
L 421.266122 -190.08 
L 419.216327 -189.951546 
L 417.166531 -189.522318 
L 415.116735 -190.009712 
L 413.066939 -186.091169 
L 411.017143 -185.576097 
L 408.967347 -185.434443 
L 406.917551 -181.183839 
L 404.867755 -177.684747 
L 402.817959 -177.820248 
L 400.768163 -178.364806 
L 398.718367 -175.815714 
L 396.668571 -173.746776 
L 394.618776 -177.816264 
L 392.56898 -175.31758 
L 390.519184 -173.627889 
L 388.469388 -168.188009 
L 386.419592 -166.533694 
L 384.369796 -163.648584 
L 382.32 -163.33978 
L 380.270204 -164.581032 
L 378.220408 -161.743684 
L 376.170612 -161.118936 
L 374.120816 -160.724345 
L 372.07102 -160.323073 
L 370.021224 -160.993242 
L 367.971429 -163.229625 
L 365.921633 -156.113945 
L 363.871837 -155.251476 
L 361.822041 -151.198989 
L 359.772245 -152.403787 
L 357.722449 -148.448596 
L 355.672653 -150.933111 
L 353.622857 -146.730035 
L 351.573061 -143.582952 
L 349.523265 -147.902262 
L 347.473469 -144.529911 
L 345.423673 -148.340706 
L 343.373878 -149.261973 
L 341.324082 -145.269874 
L 339.274286 -148.540276 
L 337.22449 -150.861167 
L 335.174694 -154.878941 
L 333.124898 -155.847638 
L 331.075102 -151.651147 
L 329.025306 -157.1503 
L 326.97551 -152.638771 
L 324.925714 -149.345572 
L 322.875918 -150.413945 
L 320.826122 -147.353959 
L 318.776327 -146.051351 
L 316.726531 -142.153389 
L 314.676735 -143.33195 
L 312.626939 -141.954933 
L 310.577143 -141.835321 
L 308.527347 -144.062272 
L 306.477551 -141.566425 
L 304.427755 -147.049508 
L 302.377959 -145.739936 
L 300.328163 -146.753362 
L 298.278367 -152.074633 
L 296.228571 -145.936594 
L 294.178776 -142.489056 
L 292.12898 -144.479244 
L 290.079184 -143.293873 
L 288.029388 -140.026134 
L 285.979592 -139.05643 
L 283.929796 -139.718279 
L 281.88 -143.274605 
L 279.830204 -137.914988 
L 277.780408 -139.769846 
L 275.730612 -139.44226 
L 273.680816 -135.409145 
L 271.63102 -134.568649 
L 269.581224 -134.334878 
L 267.531429 -130.408798 
L 265.481633 -132.00711 
L 263.431837 -134.856128 
L 261.382041 -132.38343 
L 259.332245 -131.412193 
L 257.282449 -123.155257 
L 255.232653 -120.50672 
L 253.182857 -123.144797 
L 251.133061 -120.931621 
L 249.083265 -113.696923 
L 247.033469 -111.551632 
L 244.983673 -111.563007 
L 242.933878 -109.42456 
L 240.884082 -108.62942 
L 238.834286 -110.345983 
L 236.78449 -116.434264 
L 234.734694 -111.703203 
L 232.684898 -113.224944 
L 230.635102 -112.651766 
L 228.585306 -114.291726 
L 226.53551 -116.584414 
L 224.485714 -111.708101 
L 222.435918 -111.722924 
L 220.386122 -117.141473 
L 218.336327 -116.004362 
L 216.286531 -117.454759 
L 214.236735 -121.882297 
L 212.186939 -120.595975 
L 210.137143 -118.643137 
L 208.087347 -115.754375 
L 206.037551 -118.618516 
L 203.987755 -121.269416 
L 201.937959 -120.038431 
L 199.888163 -120.409497 
L 197.838367 -121.71597 
L 195.788571 -123.68257 
L 193.738776 -130.443041 
L 191.68898 -131.673052 
L 189.639184 -136.321057 
L 187.589388 -139.003696 
L 185.539592 -131.156307 
L 183.489796 -129.670802 
L 181.44 -128.09782 
L 179.390204 -127.386627 
L 177.340408 -122.985042 
L 175.290612 -118.110728 
L 173.240816 -105.875083 
L 171.19102 -99.542752 
L 169.141224 -90.737901 
L 167.091429 -87.40102 
L 165.041633 -83.945663 
L 162.991837 -81.297572 
L 160.942041 -78.808997 
L 158.892245 -79.034489 
L 156.842449 -73.557226 
L 154.792653 -71.28861 
L 152.742857 -74.690374 
L 150.693061 -75.526082 
L 148.643265 -78.332206 
L 146.593469 -85.811387 
L 144.543673 -93.658253 
L 142.493878 -101.740617 
L 140.444082 -122.364196 
L 138.394286 -137.957451 
L 136.34449 -138.119912 
L 134.294694 -135.276482 
L 132.244898 -132.559309 
L 130.195102 -124.624605 
L 128.145306 -120.004394 
L 126.09551 -117.104491 
L 124.045714 -109.067403 
L 121.995918 -96.150545 
L 119.946122 -71.833724 
L 117.896327 -59.647476 
L 115.846531 -55.329784 
L 113.796735 -57.067455 
L 111.746939 -57.237095 
L 109.697143 -58.153836 
L 107.647347 -57.921852 
L 105.597551 -59.981156 
L 103.547755 -64.669795 
L 101.497959 -61.128182 
L 99.448163 -58.422406 
L 97.398367 -65.65152 
L 95.348571 -63.385571 
L 93.298776 -64.932604 
L 91.24898 -64.582421 
L 89.199184 -64.030114 
L 87.149388 -67.415571 
L 85.099592 -69.175863 
L 83.049796 -66.226904 
L 81 -68.41487 
z
" id="m601b897347" style="stroke:#0000ff;stroke-opacity:0.3;"/>
    </defs>
    <g clip-path="url(#pfb5fa09213)">
     <use style="fill:#0000ff;fill-opacity:0.3;stroke:#0000ff;stroke-opacity:0.3;" x="0" xlink:href="#m601b897347" y="216"/>
    </g>
   </g>
   <g id="PolyCollection_2">
    <defs>
     <path d="M 128.042816 -23.76 
L 128.042816 -190.08 
L 435.512204 -190.08 
L 435.512204 -23.76 
L 435.512204 -23.76 
L 128.042816 -23.76 
z
" id="m52d50927aa" style="stroke:#808080;stroke-opacity:0.3;"/>
    </defs>
    <g clip-path="url(#pfb5fa09213)">
     <use style="fill:#808080;fill-opacity:0.3;stroke:#808080;stroke-opacity:0.3;" x="0" xlink:href="#m52d50927aa" y="216"/>
    </g>
   </g>
   <g id="matplotlib.axis_1">
    <g id="xtick_1">
     <g id="line2d_1">
      <defs>
       <path d="M 0 0 
L 0 3.5 
" id="m1bc6f7fb44" style="stroke:#000000;stroke-width:0.8;"/>
      </defs>
      <g>
       <use style="stroke:#000000;stroke-width:0.8;" x="81" xlink:href="#m1bc6f7fb44" y="192.24"/>
      </g>
     </g>
     <g id="text_1">
      <!-- 0.0 -->
      <defs>
       <path d="M 31.78125 66.40625 
Q 24.171875 66.40625 20.328125 58.90625 
Q 16.5 51.421875 16.5 36.375 
Q 16.5 21.390625 20.328125 13.890625 
Q 24.171875 6.390625 31.78125 6.390625 
Q 39.453125 6.390625 43.28125 13.890625 
Q 47.125 21.390625 47.125 36.375 
Q 47.125 51.421875 43.28125 58.90625 
Q 39.453125 66.40625 31.78125 66.40625 
z
M 31.78125 74.21875 
Q 44.046875 74.21875 50.515625 64.515625 
Q 56.984375 54.828125 56.984375 36.375 
Q 56.984375 17.96875 50.515625 8.265625 
Q 44.046875 -1.421875 31.78125 -1.421875 
Q 19.53125 -1.421875 13.0625 8.265625 
Q 6.59375 17.96875 6.59375 36.375 
Q 6.59375 54.828125 13.0625 64.515625 
Q 19.53125 74.21875 31.78125 74.21875 
z
" id="DejaVuSans-48"/>
       <path d="M 10.6875 12.40625 
L 21 12.40625 
L 21 0 
L 10.6875 0 
z
" id="DejaVuSans-46"/>
      </defs>
      <g transform="translate(71.458125 208.358125)scale(0.12 -0.12)">
       <use xlink:href="#DejaVuSans-48"/>
       <use x="63.623047" xlink:href="#DejaVuSans-46"/>
       <use x="95.410156" xlink:href="#DejaVuSans-48"/>
      </g>
     </g>
    </g>
    <g id="xtick_2">
     <g id="line2d_2">
      <g>
       <use style="stroke:#000000;stroke-width:0.8;" x="183.489796" xlink:href="#m1bc6f7fb44" y="192.24"/>
      </g>
     </g>
     <g id="text_2">
      <!-- 0.5 -->
      <defs>
       <path d="M 10.796875 72.90625 
L 49.515625 72.90625 
L 49.515625 64.59375 
L 19.828125 64.59375 
L 19.828125 46.734375 
Q 21.96875 47.46875 24.109375 47.828125 
Q 26.265625 48.1875 28.421875 48.1875 
Q 40.625 48.1875 47.75 41.5 
Q 54.890625 34.8125 54.890625 23.390625 
Q 54.890625 11.625 47.5625 5.09375 
Q 40.234375 -1.421875 26.90625 -1.421875 
Q 22.3125 -1.421875 17.546875 -0.640625 
Q 12.796875 0.140625 7.71875 1.703125 
L 7.71875 11.625 
Q 12.109375 9.234375 16.796875 8.0625 
Q 21.484375 6.890625 26.703125 6.890625 
Q 35.15625 6.890625 40.078125 11.328125 
Q 45.015625 15.765625 45.015625 23.390625 
Q 45.015625 31 40.078125 35.4375 
Q 35.15625 39.890625 26.703125 39.890625 
Q 22.75 39.890625 18.8125 39.015625 
Q 14.890625 38.140625 10.796875 36.28125 
z
" id="DejaVuSans-53"/>
      </defs>
      <g transform="translate(173.947921 208.358125)scale(0.12 -0.12)">
       <use xlink:href="#DejaVuSans-48"/>
       <use x="63.623047" xlink:href="#DejaVuSans-46"/>
       <use x="95.410156" xlink:href="#DejaVuSans-53"/>
      </g>
     </g>
    </g>
    <g id="xtick_3">
     <g id="line2d_3">
      <g>
       <use style="stroke:#000000;stroke-width:0.8;" x="285.979592" xlink:href="#m1bc6f7fb44" y="192.24"/>
      </g>
     </g>
     <g id="text_3">
      <!-- 1.0 -->
      <defs>
       <path d="M 12.40625 8.296875 
L 28.515625 8.296875 
L 28.515625 63.921875 
L 10.984375 60.40625 
L 10.984375 69.390625 
L 28.421875 72.90625 
L 38.28125 72.90625 
L 38.28125 8.296875 
L 54.390625 8.296875 
L 54.390625 0 
L 12.40625 0 
z
" id="DejaVuSans-49"/>
      </defs>
      <g transform="translate(276.437717 208.358125)scale(0.12 -0.12)">
       <use xlink:href="#DejaVuSans-49"/>
       <use x="63.623047" xlink:href="#DejaVuSans-46"/>
       <use x="95.410156" xlink:href="#DejaVuSans-48"/>
      </g>
     </g>
    </g>
    <g id="xtick_4">
     <g id="line2d_4">
      <g>
       <use style="stroke:#000000;stroke-width:0.8;" x="388.469388" xlink:href="#m1bc6f7fb44" y="192.24"/>
      </g>
     </g>
     <g id="text_4">
      <!-- 1.5 -->
      <g transform="translate(378.927513 208.358125)scale(0.12 -0.12)">
       <use xlink:href="#DejaVuSans-49"/>
       <use x="63.623047" xlink:href="#DejaVuSans-46"/>
       <use x="95.410156" xlink:href="#DejaVuSans-53"/>
      </g>
     </g>
    </g>
    <g id="xtick_5">
     <g id="line2d_5">
      <g>
       <use style="stroke:#000000;stroke-width:0.8;" x="490.959184" xlink:href="#m1bc6f7fb44" y="192.24"/>
      </g>
     </g>
     <g id="text_5">
      <!-- 2.0 -->
      <defs>
       <path d="M 19.1875 8.296875 
L 53.609375 8.296875 
L 53.609375 0 
L 7.328125 0 
L 7.328125 8.296875 
Q 12.9375 14.109375 22.625 23.890625 
Q 32.328125 33.6875 34.8125 36.53125 
Q 39.546875 41.84375 41.421875 45.53125 
Q 43.3125 49.21875 43.3125 52.78125 
Q 43.3125 58.59375 39.234375 62.25 
Q 35.15625 65.921875 28.609375 65.921875 
Q 23.96875 65.921875 18.8125 64.3125 
Q 13.671875 62.703125 7.8125 59.421875 
L 7.8125 69.390625 
Q 13.765625 71.78125 18.9375 73 
Q 24.125 74.21875 28.421875 74.21875 
Q 39.75 74.21875 46.484375 68.546875 
Q 53.21875 62.890625 53.21875 53.421875 
Q 53.21875 48.921875 51.53125 44.890625 
Q 49.859375 40.875 45.40625 35.40625 
Q 44.1875 33.984375 37.640625 27.21875 
Q 31.109375 20.453125 19.1875 8.296875 
z
" id="DejaVuSans-50"/>
      </defs>
      <g transform="translate(481.417309 208.358125)scale(0.12 -0.12)">
       <use xlink:href="#DejaVuSans-50"/>
       <use x="63.623047" xlink:href="#DejaVuSans-46"/>
       <use x="95.410156" xlink:href="#DejaVuSans-48"/>
      </g>
     </g>
    </g>
    <g id="text_6">
     <!-- Time (s) -->
     <defs>
      <path d="M -0.296875 72.90625 
L 61.375 72.90625 
L 61.375 64.59375 
L 35.5 64.59375 
L 35.5 0 
L 25.59375 0 
L 25.59375 64.59375 
L -0.296875 64.59375 
z
" id="DejaVuSans-84"/>
      <path d="M 9.421875 54.6875 
L 18.40625 54.6875 
L 18.40625 0 
L 9.421875 0 
z
M 9.421875 75.984375 
L 18.40625 75.984375 
L 18.40625 64.59375 
L 9.421875 64.59375 
z
" id="DejaVuSans-105"/>
      <path d="M 52 44.1875 
Q 55.375 50.25 60.0625 53.125 
Q 64.75 56 71.09375 56 
Q 79.640625 56 84.28125 50.015625 
Q 88.921875 44.046875 88.921875 33.015625 
L 88.921875 0 
L 79.890625 0 
L 79.890625 32.71875 
Q 79.890625 40.578125 77.09375 44.375 
Q 74.3125 48.1875 68.609375 48.1875 
Q 61.625 48.1875 57.5625 43.546875 
Q 53.515625 38.921875 53.515625 30.90625 
L 53.515625 0 
L 44.484375 0 
L 44.484375 32.71875 
Q 44.484375 40.625 41.703125 44.40625 
Q 38.921875 48.1875 33.109375 48.1875 
Q 26.21875 48.1875 22.15625 43.53125 
Q 18.109375 38.875 18.109375 30.90625 
L 18.109375 0 
L 9.078125 0 
L 9.078125 54.6875 
L 18.109375 54.6875 
L 18.109375 46.1875 
Q 21.1875 51.21875 25.484375 53.609375 
Q 29.78125 56 35.6875 56 
Q 41.65625 56 45.828125 52.96875 
Q 50 49.953125 52 44.1875 
z
" id="DejaVuSans-109"/>
      <path d="M 56.203125 29.59375 
L 56.203125 25.203125 
L 14.890625 25.203125 
Q 15.484375 15.921875 20.484375 11.0625 
Q 25.484375 6.203125 34.421875 6.203125 
Q 39.59375 6.203125 44.453125 7.46875 
Q 49.3125 8.734375 54.109375 11.28125 
L 54.109375 2.78125 
Q 49.265625 0.734375 44.1875 -0.34375 
Q 39.109375 -1.421875 33.890625 -1.421875 
Q 20.796875 -1.421875 13.15625 6.1875 
Q 5.515625 13.8125 5.515625 26.8125 
Q 5.515625 40.234375 12.765625 48.109375 
Q 20.015625 56 32.328125 56 
Q 43.359375 56 49.78125 48.890625 
Q 56.203125 41.796875 56.203125 29.59375 
z
M 47.21875 32.234375 
Q 47.125 39.59375 43.09375 43.984375 
Q 39.0625 48.390625 32.421875 48.390625 
Q 24.90625 48.390625 20.390625 44.140625 
Q 15.875 39.890625 15.1875 32.171875 
z
" id="DejaVuSans-101"/>
      <path id="DejaVuSans-32"/>
      <path d="M 31 75.875 
Q 24.46875 64.65625 21.28125 53.65625 
Q 18.109375 42.671875 18.109375 31.390625 
Q 18.109375 20.125 21.3125 9.0625 
Q 24.515625 -2 31 -13.1875 
L 23.1875 -13.1875 
Q 15.875 -1.703125 12.234375 9.375 
Q 8.59375 20.453125 8.59375 31.390625 
Q 8.59375 42.28125 12.203125 53.3125 
Q 15.828125 64.359375 23.1875 75.875 
z
" id="DejaVuSans-40"/>
      <path d="M 44.28125 53.078125 
L 44.28125 44.578125 
Q 40.484375 46.53125 36.375 47.5 
Q 32.28125 48.484375 27.875 48.484375 
Q 21.1875 48.484375 17.84375 46.4375 
Q 14.5 44.390625 14.5 40.28125 
Q 14.5 37.15625 16.890625 35.375 
Q 19.28125 33.59375 26.515625 31.984375 
L 29.59375 31.296875 
Q 39.15625 29.25 43.1875 25.515625 
Q 47.21875 21.78125 47.21875 15.09375 
Q 47.21875 7.46875 41.1875 3.015625 
Q 35.15625 -1.421875 24.609375 -1.421875 
Q 20.21875 -1.421875 15.453125 -0.5625 
Q 10.6875 0.296875 5.421875 2 
L 5.421875 11.28125 
Q 10.40625 8.6875 15.234375 7.390625 
Q 20.0625 6.109375 24.8125 6.109375 
Q 31.15625 6.109375 34.5625 8.28125 
Q 37.984375 10.453125 37.984375 14.40625 
Q 37.984375 18.0625 35.515625 20.015625 
Q 33.0625 21.96875 24.703125 23.78125 
L 21.578125 24.515625 
Q 13.234375 26.265625 9.515625 29.90625 
Q 5.8125 33.546875 5.8125 39.890625 
Q 5.8125 47.609375 11.28125 51.796875 
Q 16.75 56 26.8125 56 
Q 31.78125 56 36.171875 55.265625 
Q 40.578125 54.546875 44.28125 53.078125 
z
" id="DejaVuSans-115"/>
      <path d="M 8.015625 75.875 
L 15.828125 75.875 
Q 23.140625 64.359375 26.78125 53.3125 
Q 30.421875 42.28125 30.421875 31.390625 
Q 30.421875 20.453125 26.78125 9.375 
Q 23.140625 -1.703125 15.828125 -13.1875 
L 8.015625 -13.1875 
Q 14.5 -2 17.703125 9.0625 
Q 20.90625 20.125 20.90625 31.390625 
Q 20.90625 42.671875 17.703125 53.65625 
Q 14.5 64.65625 8.015625 75.875 
z
" id="DejaVuSans-41"/>
     </defs>
     <g transform="translate(302.60475 225.7955)scale(0.144 -0.144)">
      <use xlink:href="#DejaVuSans-84"/>
      <use x="61.037109" xlink:href="#DejaVuSans-105"/>
      <use x="88.820312" xlink:href="#DejaVuSans-109"/>
      <use x="186.232422" xlink:href="#DejaVuSans-101"/>
      <use x="247.755859" xlink:href="#DejaVuSans-32"/>
      <use x="279.542969" xlink:href="#DejaVuSans-40"/>
      <use x="318.556641" xlink:href="#DejaVuSans-115"/>
      <use x="370.65625" xlink:href="#DejaVuSans-41"/>
     </g>
    </g>
   </g>
   <g id="matplotlib.axis_2">
    <g id="ytick_1">
     <g id="line2d_6">
      <defs>
       <path d="M 0 0 
L -3.5 0 
" id="m9883f7bda5" style="stroke:#000000;stroke-width:0.8;"/>
      </defs>
      <g>
       <use style="stroke:#000000;stroke-width:0.8;" x="81" xlink:href="#m9883f7bda5" y="162.492436"/>
      </g>
     </g>
     <g id="text_7">
      <!-- 0.0038 -->
      <defs>
       <path d="M 40.578125 39.3125 
Q 47.65625 37.796875 51.625 33 
Q 55.609375 28.21875 55.609375 21.1875 
Q 55.609375 10.40625 48.1875 4.484375 
Q 40.765625 -1.421875 27.09375 -1.421875 
Q 22.515625 -1.421875 17.65625 -0.515625 
Q 12.796875 0.390625 7.625 2.203125 
L 7.625 11.71875 
Q 11.71875 9.328125 16.59375 8.109375 
Q 21.484375 6.890625 26.8125 6.890625 
Q 36.078125 6.890625 40.9375 10.546875 
Q 45.796875 14.203125 45.796875 21.1875 
Q 45.796875 27.640625 41.28125 31.265625 
Q 36.765625 34.90625 28.71875 34.90625 
L 20.21875 34.90625 
L 20.21875 43.015625 
L 29.109375 43.015625 
Q 36.375 43.015625 40.234375 45.921875 
Q 44.09375 48.828125 44.09375 54.296875 
Q 44.09375 59.90625 40.109375 62.90625 
Q 36.140625 65.921875 28.71875 65.921875 
Q 24.65625 65.921875 20.015625 65.03125 
Q 15.375 64.15625 9.8125 62.3125 
L 9.8125 71.09375 
Q 15.4375 72.65625 20.34375 73.4375 
Q 25.25 74.21875 29.59375 74.21875 
Q 40.828125 74.21875 47.359375 69.109375 
Q 53.90625 64.015625 53.90625 55.328125 
Q 53.90625 49.265625 50.4375 45.09375 
Q 46.96875 40.921875 40.578125 39.3125 
z
" id="DejaVuSans-51"/>
       <path d="M 31.78125 34.625 
Q 24.75 34.625 20.71875 30.859375 
Q 16.703125 27.09375 16.703125 20.515625 
Q 16.703125 13.921875 20.71875 10.15625 
Q 24.75 6.390625 31.78125 6.390625 
Q 38.8125 6.390625 42.859375 10.171875 
Q 46.921875 13.96875 46.921875 20.515625 
Q 46.921875 27.09375 42.890625 30.859375 
Q 38.875 34.625 31.78125 34.625 
z
M 21.921875 38.8125 
Q 15.578125 40.375 12.03125 44.71875 
Q 8.5 49.078125 8.5 55.328125 
Q 8.5 64.0625 14.71875 69.140625 
Q 20.953125 74.21875 31.78125 74.21875 
Q 42.671875 74.21875 48.875 69.140625 
Q 55.078125 64.0625 55.078125 55.328125 
Q 55.078125 49.078125 51.53125 44.71875 
Q 48 40.375 41.703125 38.8125 
Q 48.828125 37.15625 52.796875 32.3125 
Q 56.78125 27.484375 56.78125 20.515625 
Q 56.78125 9.90625 50.3125 4.234375 
Q 43.84375 -1.421875 31.78125 -1.421875 
Q 19.734375 -1.421875 13.25 4.234375 
Q 6.78125 9.90625 6.78125 20.515625 
Q 6.78125 27.484375 10.78125 32.3125 
Q 14.796875 37.15625 21.921875 38.8125 
z
M 18.3125 54.390625 
Q 18.3125 48.734375 21.84375 45.5625 
Q 25.390625 42.390625 31.78125 42.390625 
Q 38.140625 42.390625 41.71875 45.5625 
Q 45.3125 48.734375 45.3125 54.390625 
Q 45.3125 60.0625 41.71875 63.234375 
Q 38.140625 66.40625 31.78125 66.40625 
Q 25.390625 66.40625 21.84375 63.234375 
Q 18.3125 60.0625 18.3125 54.390625 
z
" id="DejaVuSans-56"/>
      </defs>
      <g transform="translate(32.01125 167.051498)scale(0.12 -0.12)">
       <use xlink:href="#DejaVuSans-48"/>
       <use x="63.623047" xlink:href="#DejaVuSans-46"/>
       <use x="95.410156" xlink:href="#DejaVuSans-48"/>
       <use x="159.033203" xlink:href="#DejaVuSans-48"/>
       <use x="222.65625" xlink:href="#DejaVuSans-51"/>
       <use x="286.279297" xlink:href="#DejaVuSans-56"/>
      </g>
     </g>
    </g>
    <g id="ytick_2">
     <g id="line2d_7">
      <g>
       <use style="stroke:#000000;stroke-width:0.8;" x="81" xlink:href="#m9883f7bda5" y="130.568597"/>
      </g>
     </g>
     <g id="text_8">
      <!-- 0.0040 -->
      <defs>
       <path d="M 37.796875 64.3125 
L 12.890625 25.390625 
L 37.796875 25.390625 
z
M 35.203125 72.90625 
L 47.609375 72.90625 
L 47.609375 25.390625 
L 58.015625 25.390625 
L 58.015625 17.1875 
L 47.609375 17.1875 
L 47.609375 0 
L 37.796875 0 
L 37.796875 17.1875 
L 4.890625 17.1875 
L 4.890625 26.703125 
z
" id="DejaVuSans-52"/>
      </defs>
      <g transform="translate(32.01125 135.127659)scale(0.12 -0.12)">
       <use xlink:href="#DejaVuSans-48"/>
       <use x="63.623047" xlink:href="#DejaVuSans-46"/>
       <use x="95.410156" xlink:href="#DejaVuSans-48"/>
       <use x="159.033203" xlink:href="#DejaVuSans-48"/>
       <use x="222.65625" xlink:href="#DejaVuSans-52"/>
       <use x="286.279297" xlink:href="#DejaVuSans-48"/>
      </g>
     </g>
    </g>
    <g id="ytick_3">
     <g id="line2d_8">
      <g>
       <use style="stroke:#000000;stroke-width:0.8;" x="81" xlink:href="#m9883f7bda5" y="98.644758"/>
      </g>
     </g>
     <g id="text_9">
      <!-- 0.0042 -->
      <g transform="translate(32.01125 103.20382)scale(0.12 -0.12)">
       <use xlink:href="#DejaVuSans-48"/>
       <use x="63.623047" xlink:href="#DejaVuSans-46"/>
       <use x="95.410156" xlink:href="#DejaVuSans-48"/>
       <use x="159.033203" xlink:href="#DejaVuSans-48"/>
       <use x="222.65625" xlink:href="#DejaVuSans-52"/>
       <use x="286.279297" xlink:href="#DejaVuSans-50"/>
      </g>
     </g>
    </g>
    <g id="ytick_4">
     <g id="line2d_9">
      <g>
       <use style="stroke:#000000;stroke-width:0.8;" x="81" xlink:href="#m9883f7bda5" y="66.720919"/>
      </g>
     </g>
     <g id="text_10">
      <!-- 0.0044 -->
      <g transform="translate(32.01125 71.279981)scale(0.12 -0.12)">
       <use xlink:href="#DejaVuSans-48"/>
       <use x="63.623047" xlink:href="#DejaVuSans-46"/>
       <use x="95.410156" xlink:href="#DejaVuSans-48"/>
       <use x="159.033203" xlink:href="#DejaVuSans-48"/>
       <use x="222.65625" xlink:href="#DejaVuSans-52"/>
       <use x="286.279297" xlink:href="#DejaVuSans-52"/>
      </g>
     </g>
    </g>
    <g id="ytick_5">
     <g id="line2d_10">
      <g>
       <use style="stroke:#000000;stroke-width:0.8;" x="81" xlink:href="#m9883f7bda5" y="34.79708"/>
      </g>
     </g>
     <g id="text_11">
      <!-- 0.0046 -->
      <defs>
       <path d="M 33.015625 40.375 
Q 26.375 40.375 22.484375 35.828125 
Q 18.609375 31.296875 18.609375 23.390625 
Q 18.609375 15.53125 22.484375 10.953125 
Q 26.375 6.390625 33.015625 6.390625 
Q 39.65625 6.390625 43.53125 10.953125 
Q 47.40625 15.53125 47.40625 23.390625 
Q 47.40625 31.296875 43.53125 35.828125 
Q 39.65625 40.375 33.015625 40.375 
z
M 52.59375 71.296875 
L 52.59375 62.3125 
Q 48.875 64.0625 45.09375 64.984375 
Q 41.3125 65.921875 37.59375 65.921875 
Q 27.828125 65.921875 22.671875 59.328125 
Q 17.53125 52.734375 16.796875 39.40625 
Q 19.671875 43.65625 24.015625 45.921875 
Q 28.375 48.1875 33.59375 48.1875 
Q 44.578125 48.1875 50.953125 41.515625 
Q 57.328125 34.859375 57.328125 23.390625 
Q 57.328125 12.15625 50.6875 5.359375 
Q 44.046875 -1.421875 33.015625 -1.421875 
Q 20.359375 -1.421875 13.671875 8.265625 
Q 6.984375 17.96875 6.984375 36.375 
Q 6.984375 53.65625 15.1875 63.9375 
Q 23.390625 74.21875 37.203125 74.21875 
Q 40.921875 74.21875 44.703125 73.484375 
Q 48.484375 72.75 52.59375 71.296875 
z
" id="DejaVuSans-54"/>
      </defs>
      <g transform="translate(32.01125 39.356143)scale(0.12 -0.12)">
       <use xlink:href="#DejaVuSans-48"/>
       <use x="63.623047" xlink:href="#DejaVuSans-46"/>
       <use x="95.410156" xlink:href="#DejaVuSans-48"/>
       <use x="159.033203" xlink:href="#DejaVuSans-48"/>
       <use x="222.65625" xlink:href="#DejaVuSans-52"/>
       <use x="286.279297" xlink:href="#DejaVuSans-54"/>
      </g>
     </g>
    </g>
    <g id="text_12">
     <!-- Beta-bin $\pi$ -->
     <defs>
      <path d="M 19.671875 34.8125 
L 19.671875 8.109375 
L 35.5 8.109375 
Q 43.453125 8.109375 47.28125 11.40625 
Q 51.125 14.703125 51.125 21.484375 
Q 51.125 28.328125 47.28125 31.5625 
Q 43.453125 34.8125 35.5 34.8125 
z
M 19.671875 64.796875 
L 19.671875 42.828125 
L 34.28125 42.828125 
Q 41.5 42.828125 45.03125 45.53125 
Q 48.578125 48.25 48.578125 53.8125 
Q 48.578125 59.328125 45.03125 62.0625 
Q 41.5 64.796875 34.28125 64.796875 
z
M 9.8125 72.90625 
L 35.015625 72.90625 
Q 46.296875 72.90625 52.390625 68.21875 
Q 58.5 63.53125 58.5 54.890625 
Q 58.5 48.1875 55.375 44.234375 
Q 52.25 40.28125 46.1875 39.3125 
Q 53.46875 37.75 57.5 32.78125 
Q 61.53125 27.828125 61.53125 20.40625 
Q 61.53125 10.640625 54.890625 5.3125 
Q 48.25 0 35.984375 0 
L 9.8125 0 
z
" id="DejaVuSans-66"/>
      <path d="M 18.3125 70.21875 
L 18.3125 54.6875 
L 36.8125 54.6875 
L 36.8125 47.703125 
L 18.3125 47.703125 
L 18.3125 18.015625 
Q 18.3125 11.328125 20.140625 9.421875 
Q 21.96875 7.515625 27.59375 7.515625 
L 36.8125 7.515625 
L 36.8125 0 
L 27.59375 0 
Q 17.1875 0 13.234375 3.875 
Q 9.28125 7.765625 9.28125 18.015625 
L 9.28125 47.703125 
L 2.6875 47.703125 
L 2.6875 54.6875 
L 9.28125 54.6875 
L 9.28125 70.21875 
z
" id="DejaVuSans-116"/>
      <path d="M 34.28125 27.484375 
Q 23.390625 27.484375 19.1875 25 
Q 14.984375 22.515625 14.984375 16.5 
Q 14.984375 11.71875 18.140625 8.90625 
Q 21.296875 6.109375 26.703125 6.109375 
Q 34.1875 6.109375 38.703125 11.40625 
Q 43.21875 16.703125 43.21875 25.484375 
L 43.21875 27.484375 
z
M 52.203125 31.203125 
L 52.203125 0 
L 43.21875 0 
L 43.21875 8.296875 
Q 40.140625 3.328125 35.546875 0.953125 
Q 30.953125 -1.421875 24.3125 -1.421875 
Q 15.921875 -1.421875 10.953125 3.296875 
Q 6 8.015625 6 15.921875 
Q 6 25.140625 12.171875 29.828125 
Q 18.359375 34.515625 30.609375 34.515625 
L 43.21875 34.515625 
L 43.21875 35.40625 
Q 43.21875 41.609375 39.140625 45 
Q 35.0625 48.390625 27.6875 48.390625 
Q 23 48.390625 18.546875 47.265625 
Q 14.109375 46.140625 10.015625 43.890625 
L 10.015625 52.203125 
Q 14.9375 54.109375 19.578125 55.046875 
Q 24.21875 56 28.609375 56 
Q 40.484375 56 46.34375 49.84375 
Q 52.203125 43.703125 52.203125 31.203125 
z
" id="DejaVuSans-97"/>
      <path d="M 4.890625 31.390625 
L 31.203125 31.390625 
L 31.203125 23.390625 
L 4.890625 23.390625 
z
" id="DejaVuSans-45"/>
      <path d="M 48.6875 27.296875 
Q 48.6875 37.203125 44.609375 42.84375 
Q 40.53125 48.484375 33.40625 48.484375 
Q 26.265625 48.484375 22.1875 42.84375 
Q 18.109375 37.203125 18.109375 27.296875 
Q 18.109375 17.390625 22.1875 11.75 
Q 26.265625 6.109375 33.40625 6.109375 
Q 40.53125 6.109375 44.609375 11.75 
Q 48.6875 17.390625 48.6875 27.296875 
z
M 18.109375 46.390625 
Q 20.953125 51.265625 25.265625 53.625 
Q 29.59375 56 35.59375 56 
Q 45.5625 56 51.78125 48.09375 
Q 58.015625 40.1875 58.015625 27.296875 
Q 58.015625 14.40625 51.78125 6.484375 
Q 45.5625 -1.421875 35.59375 -1.421875 
Q 29.59375 -1.421875 25.265625 0.953125 
Q 20.953125 3.328125 18.109375 8.203125 
L 18.109375 0 
L 9.078125 0 
L 9.078125 75.984375 
L 18.109375 75.984375 
z
" id="DejaVuSans-98"/>
      <path d="M 54.890625 33.015625 
L 54.890625 0 
L 45.90625 0 
L 45.90625 32.71875 
Q 45.90625 40.484375 42.875 44.328125 
Q 39.84375 48.1875 33.796875 48.1875 
Q 26.515625 48.1875 22.3125 43.546875 
Q 18.109375 38.921875 18.109375 30.90625 
L 18.109375 0 
L 9.078125 0 
L 9.078125 54.6875 
L 18.109375 54.6875 
L 18.109375 46.1875 
Q 21.34375 51.125 25.703125 53.5625 
Q 30.078125 56 35.796875 56 
Q 45.21875 56 50.046875 50.171875 
Q 54.890625 44.34375 54.890625 33.015625 
z
" id="DejaVuSans-110"/>
      <path d="M 9.125 54.6875 
L 61.53125 54.6875 
L 59.765625 45.703125 
L 52.875 45.703125 
L 46.34375 12.109375 
Q 45.65625 8.59375 46.578125 7.03125 
Q 47.46875 5.515625 50.140625 5.515625 
Q 50.875 5.515625 51.953125 5.671875 
Q 53.078125 5.765625 53.421875 5.8125 
L 52.15625 -0.6875 
Q 50.34375 -1.3125 48.484375 -1.609375 
Q 46.578125 -1.90625 44.78125 -1.90625 
Q 38.921875 -1.90625 37.3125 1.265625 
Q 35.6875 4.5 37.359375 13.09375 
L 43.703125 45.703125 
L 23.53125 45.703125 
L 14.65625 0 
L 5.46875 0 
L 14.359375 45.703125 
L 7.375 45.703125 
z
" id="DejaVuSans-Oblique-960"/>
     </defs>
     <g transform="translate(25.0165 146.088)rotate(-90)scale(0.144 -0.144)">
      <use transform="translate(0 0.015625)" xlink:href="#DejaVuSans-66"/>
      <use transform="translate(68.603516 0.015625)" xlink:href="#DejaVuSans-101"/>
      <use transform="translate(130.126953 0.015625)" xlink:href="#DejaVuSans-116"/>
      <use transform="translate(169.335938 0.015625)" xlink:href="#DejaVuSans-97"/>
      <use transform="translate(230.615234 0.015625)" xlink:href="#DejaVuSans-45"/>
      <use transform="translate(266.699219 0.015625)" xlink:href="#DejaVuSans-98"/>
      <use transform="translate(330.175781 0.015625)" xlink:href="#DejaVuSans-105"/>
      <use transform="translate(357.958984 0.015625)" xlink:href="#DejaVuSans-110"/>
      <use transform="translate(421.337891 0.015625)" xlink:href="#DejaVuSans-32"/>
      <use transform="translate(453.125 0.015625)" xlink:href="#DejaVuSans-Oblique-960"/>
     </g>
    </g>
   </g>
   <g id="line2d_11">
    <path clip-path="url(#pfb5fa09213)" d="M 81 164.139413 
L 83.049796 166.285253 
L 85.099592 163.303226 
L 87.149388 165.069698 
L 89.199184 167.998823 
L 93.298776 167.307129 
L 95.348571 168.865168 
L 97.398367 166.478426 
L 99.448163 173.630388 
L 101.497959 171.278778 
L 103.547755 167.691574 
L 105.597551 171.877133 
L 107.647347 174.287349 
L 109.697143 174.312539 
L 111.746939 174.85927 
L 113.796735 174.889858 
L 115.846531 176.455108 
L 117.896327 172.374491 
L 119.946122 160.356259 
L 121.995918 136.213659 
L 124.045714 123.496047 
L 126.09551 115.866838 
L 128.145306 112.516658 
L 130.195102 108.045241 
L 132.244898 100.195511 
L 136.34449 94.538867 
L 138.394286 95.159839 
L 140.444082 110.318512 
L 142.493878 131.312829 
L 148.643265 154.461201 
L 150.693061 157.603276 
L 152.742857 158.052102 
L 154.792653 161.812617 
L 156.842449 159.354647 
L 158.892245 153.592217 
L 160.942041 153.730387 
L 162.991837 151.260723 
L 167.091429 144.911419 
L 169.141224 141.448885 
L 171.19102 132.198065 
L 173.240816 125.598857 
L 175.290612 113.334665 
L 177.340408 108.025554 
L 179.390204 103.237171 
L 181.44 102.672325 
L 183.489796 100.419947 
L 185.539592 99.863989 
L 187.589388 92.174438 
L 189.639184 95.004427 
L 191.68898 99.787115 
L 193.738776 100.82727 
L 195.788571 107.729631 
L 197.838367 109.85815 
L 199.888163 111.435042 
L 201.937959 112.414237 
L 203.987755 111.269476 
L 206.037551 113.630072 
L 208.087347 116.707788 
L 210.137143 113.884451 
L 212.186939 111.838166 
L 214.236735 110.59206 
L 216.286531 114.836414 
L 218.336327 116.092867 
L 220.386122 115.07686 
L 222.435918 120.266206 
L 224.485714 120.597465 
L 226.53551 115.62054 
L 228.585306 117.999454 
L 230.635102 119.504634 
L 232.684898 118.780617 
L 234.734694 120.507804 
L 236.78449 115.848923 
L 238.834286 121.763437 
L 240.884082 123.648218 
L 242.933878 122.744671 
L 244.983673 120.705974 
L 247.033469 120.345351 
L 249.083265 118.136342 
L 251.133061 110.862638 
L 253.182857 108.893954 
L 255.232653 111.199595 
L 257.282449 108.482955 
L 259.332245 99.927862 
L 261.382041 99.301327 
L 263.431837 96.915826 
L 265.481633 99.50107 
L 267.531429 101.072901 
L 269.581224 97.210514 
L 271.63102 97.664498 
L 273.680816 96.601554 
L 275.730612 92.789189 
L 277.780408 92.460119 
L 279.830204 93.973584 
L 281.88 89.08237 
L 283.929796 92.403466 
L 285.979592 92.796948 
L 288.029388 92.00656 
L 290.079184 88.785176 
L 292.12898 87.475274 
L 294.178776 89.634147 
L 296.228571 86.375841 
L 298.278367 80.014871 
L 300.328163 85.287527 
L 302.377959 86.159353 
L 304.427755 84.780392 
L 306.477551 89.999382 
L 308.527347 87.116085 
L 310.577143 89.343622 
L 312.626939 89.233835 
L 314.676735 87.382017 
L 316.726531 88.818773 
L 318.776327 85.291102 
L 320.826122 83.394661 
L 322.875918 80.29002 
L 324.925714 81.20532 
L 326.97551 78.219602 
L 329.025306 73.820083 
L 331.075102 79.572148 
L 333.124898 75.053653 
L 335.174694 76.334399 
L 337.22449 80.420311 
L 339.274286 82.829941 
L 341.324082 86.440974 
L 343.373878 83.173266 
L 345.423673 84.535333 
L 347.473469 87.961343 
L 349.523265 84.008794 
L 351.573061 88.546617 
L 353.622857 85.119041 
L 355.672653 81.070238 
L 357.722449 83.917908 
L 359.772245 79.860823 
L 361.822041 81.125127 
L 363.871837 77.172853 
L 365.921633 76.15705 
L 367.971429 69.336963 
L 370.021224 72.130563 
L 374.120816 72.463965 
L 376.170612 71.777634 
L 378.220408 70.813856 
L 380.270204 67.59433 
L 382.32 68.705581 
L 384.369796 68.194376 
L 386.419592 65.084915 
L 388.469388 63.504478 
L 390.519184 58.382513 
L 392.56898 56.242023 
L 394.618776 53.850343 
L 396.668571 58.300756 
L 398.718367 56.251904 
L 400.768163 53.389645 
L 402.817959 54.500482 
L 404.867755 54.373185 
L 406.917551 50.9688 
L 408.967347 46.629895 
L 411.017143 46.553718 
L 413.066939 46.04435 
L 415.116735 42.329445 
L 417.166531 42.460912 
L 421.266122 42.385176 
L 423.315918 45.971 
L 425.365714 55.152247 
L 427.41551 55.444755 
L 429.465306 65.843367 
L 431.515102 71.462505 
L 433.564898 87.570721 
L 435.614694 98.724048 
L 437.66449 106.697581 
L 439.714286 117.185129 
L 441.764082 121.764311 
L 443.813878 131.253532 
L 445.863673 131.814517 
L 447.913469 135.380782 
L 449.963265 140.119318 
L 452.013061 137.494005 
L 454.062857 137.683118 
L 456.112653 141.218908 
L 458.162449 136.523197 
L 460.212245 138.448858 
L 462.262041 144.827455 
L 464.311837 143.825153 
L 466.361633 142.579925 
L 468.411429 142.477514 
L 470.461224 139.542064 
L 472.51102 130.874811 
L 474.560816 131.668391 
L 476.610612 128.053925 
L 478.660408 129.878389 
L 480.710204 123.796173 
L 482.76 115.306044 
L 484.809796 119.013366 
L 486.859592 115.66999 
L 488.909388 115.910139 
L 490.959184 117.595373 
L 493.00898 116.792005 
L 495.058776 117.066232 
L 497.108571 121.183961 
L 499.158367 118.681338 
L 501.208163 123.32723 
L 503.257959 129.751297 
L 507.357551 138.877322 
L 509.407347 142.032282 
L 511.457143 142.983686 
L 513.506939 145.283589 
L 515.556735 144.646082 
L 517.606531 143.519401 
L 519.656327 143.204546 
L 521.706122 138.524202 
L 523.755918 138.128404 
L 525.805714 139.255499 
L 527.85551 132.174873 
L 529.905306 133.848996 
L 531.955102 136.392474 
L 534.004898 130.577361 
L 536.054694 133.803538 
L 538.10449 129.56284 
L 540.154286 133.859354 
L 542.204082 135.4214 
L 544.253878 138.201403 
L 546.303673 137.76409 
L 548.353469 144.642231 
L 550.403265 148.322074 
L 552.453061 147.476523 
L 554.502857 149.303128 
L 556.552653 151.413408 
L 558.602449 159.644408 
L 560.652245 159.811316 
L 562.702041 159.112688 
L 564.751837 159.073547 
L 566.801633 156.105972 
L 568.851429 156.458317 
L 570.901224 154.979815 
L 572.95102 157.272549 
L 575.000816 156.42499 
L 577.050612 151.611543 
L 579.100408 150.03879 
L 581.150204 153.469485 
L 583.2 158.660061 
L 583.2 158.660061 
" style="fill:none;stroke:#0000ff;stroke-linecap:square;stroke-width:1.5;"/>
   </g>
   <g id="patch_3">
    <path d="M 81 192.24 
L 81 25.92 
" style="fill:none;stroke:#000000;stroke-linecap:square;stroke-linejoin:miter;stroke-width:0.8;"/>
   </g>
   <g id="patch_4">
    <path d="M 583.2 192.24 
L 583.2 25.92 
" style="fill:none;stroke:#000000;stroke-linecap:square;stroke-linejoin:miter;stroke-width:0.8;"/>
   </g>
   <g id="patch_5">
    <path d="M 81 192.24 
L 583.2 192.24 
" style="fill:none;stroke:#000000;stroke-linecap:square;stroke-linejoin:miter;stroke-width:0.8;"/>
   </g>
   <g id="patch_6">
    <path d="M 81 25.92 
L 583.2 25.92 
" style="fill:none;stroke:#000000;stroke-linecap:square;stroke-linejoin:miter;stroke-width:0.8;"/>
   </g>
   <g id="text_13">
    <!-- Thalamus, Num Trials=160 All stimulated trials -->
    <defs>
     <path d="M 54.890625 33.015625 
L 54.890625 0 
L 45.90625 0 
L 45.90625 32.71875 
Q 45.90625 40.484375 42.875 44.328125 
Q 39.84375 48.1875 33.796875 48.1875 
Q 26.515625 48.1875 22.3125 43.546875 
Q 18.109375 38.921875 18.109375 30.90625 
L 18.109375 0 
L 9.078125 0 
L 9.078125 75.984375 
L 18.109375 75.984375 
L 18.109375 46.1875 
Q 21.34375 51.125 25.703125 53.5625 
Q 30.078125 56 35.796875 56 
Q 45.21875 56 50.046875 50.171875 
Q 54.890625 44.34375 54.890625 33.015625 
z
" id="DejaVuSans-104"/>
     <path d="M 9.421875 75.984375 
L 18.40625 75.984375 
L 18.40625 0 
L 9.421875 0 
z
" id="DejaVuSans-108"/>
     <path d="M 8.5 21.578125 
L 8.5 54.6875 
L 17.484375 54.6875 
L 17.484375 21.921875 
Q 17.484375 14.15625 20.5 10.265625 
Q 23.53125 6.390625 29.59375 6.390625 
Q 36.859375 6.390625 41.078125 11.03125 
Q 45.3125 15.671875 45.3125 23.6875 
L 45.3125 54.6875 
L 54.296875 54.6875 
L 54.296875 0 
L 45.3125 0 
L 45.3125 8.40625 
Q 42.046875 3.421875 37.71875 1 
Q 33.40625 -1.421875 27.6875 -1.421875 
Q 18.265625 -1.421875 13.375 4.4375 
Q 8.5 10.296875 8.5 21.578125 
z
M 31.109375 56 
z
" id="DejaVuSans-117"/>
     <path d="M 11.71875 12.40625 
L 22.015625 12.40625 
L 22.015625 4 
L 14.015625 -11.625 
L 7.71875 -11.625 
L 11.71875 4 
z
" id="DejaVuSans-44"/>
     <path d="M 9.8125 72.90625 
L 23.09375 72.90625 
L 55.421875 11.921875 
L 55.421875 72.90625 
L 64.984375 72.90625 
L 64.984375 0 
L 51.703125 0 
L 19.390625 60.984375 
L 19.390625 0 
L 9.8125 0 
z
" id="DejaVuSans-78"/>
     <path d="M 41.109375 46.296875 
Q 39.59375 47.171875 37.8125 47.578125 
Q 36.03125 48 33.890625 48 
Q 26.265625 48 22.1875 43.046875 
Q 18.109375 38.09375 18.109375 28.8125 
L 18.109375 0 
L 9.078125 0 
L 9.078125 54.6875 
L 18.109375 54.6875 
L 18.109375 46.1875 
Q 20.953125 51.171875 25.484375 53.578125 
Q 30.03125 56 36.53125 56 
Q 37.453125 56 38.578125 55.875 
Q 39.703125 55.765625 41.0625 55.515625 
z
" id="DejaVuSans-114"/>
     <path d="M 10.59375 45.40625 
L 73.1875 45.40625 
L 73.1875 37.203125 
L 10.59375 37.203125 
z
M 10.59375 25.484375 
L 73.1875 25.484375 
L 73.1875 17.1875 
L 10.59375 17.1875 
z
" id="DejaVuSans-61"/>
     <path d="M 34.1875 63.1875 
L 20.796875 26.90625 
L 47.609375 26.90625 
z
M 28.609375 72.90625 
L 39.796875 72.90625 
L 67.578125 0 
L 57.328125 0 
L 50.6875 18.703125 
L 17.828125 18.703125 
L 11.1875 0 
L 0.78125 0 
z
" id="DejaVuSans-65"/>
     <path d="M 45.40625 46.390625 
L 45.40625 75.984375 
L 54.390625 75.984375 
L 54.390625 0 
L 45.40625 0 
L 45.40625 8.203125 
Q 42.578125 3.328125 38.25 0.953125 
Q 33.9375 -1.421875 27.875 -1.421875 
Q 17.96875 -1.421875 11.734375 6.484375 
Q 5.515625 14.40625 5.515625 27.296875 
Q 5.515625 40.1875 11.734375 48.09375 
Q 17.96875 56 27.875 56 
Q 33.9375 56 38.25 53.625 
Q 42.578125 51.265625 45.40625 46.390625 
z
M 14.796875 27.296875 
Q 14.796875 17.390625 18.875 11.75 
Q 22.953125 6.109375 30.078125 6.109375 
Q 37.203125 6.109375 41.296875 11.75 
Q 45.40625 17.390625 45.40625 27.296875 
Q 45.40625 37.203125 41.296875 42.84375 
Q 37.203125 48.484375 30.078125 48.484375 
Q 22.953125 48.484375 18.875 42.84375 
Q 14.796875 37.203125 14.796875 27.296875 
z
" id="DejaVuSans-100"/>
    </defs>
    <g transform="translate(190.146563 19.92)scale(0.12 -0.12)">
     <use xlink:href="#DejaVuSans-84"/>
     <use x="61.083984" xlink:href="#DejaVuSans-104"/>
     <use x="124.462891" xlink:href="#DejaVuSans-97"/>
     <use x="185.742188" xlink:href="#DejaVuSans-108"/>
     <use x="213.525391" xlink:href="#DejaVuSans-97"/>
     <use x="274.804688" xlink:href="#DejaVuSans-109"/>
     <use x="372.216797" xlink:href="#DejaVuSans-117"/>
     <use x="435.595703" xlink:href="#DejaVuSans-115"/>
     <use x="487.695312" xlink:href="#DejaVuSans-44"/>
     <use x="519.482422" xlink:href="#DejaVuSans-32"/>
     <use x="551.269531" xlink:href="#DejaVuSans-78"/>
     <use x="626.074219" xlink:href="#DejaVuSans-117"/>
     <use x="689.453125" xlink:href="#DejaVuSans-109"/>
     <use x="786.865234" xlink:href="#DejaVuSans-32"/>
     <use x="818.652344" xlink:href="#DejaVuSans-84"/>
     <use x="879.517578" xlink:href="#DejaVuSans-114"/>
     <use x="920.630859" xlink:href="#DejaVuSans-105"/>
     <use x="948.414062" xlink:href="#DejaVuSans-97"/>
     <use x="1009.693359" xlink:href="#DejaVuSans-108"/>
     <use x="1037.476562" xlink:href="#DejaVuSans-115"/>
     <use x="1089.576172" xlink:href="#DejaVuSans-61"/>
     <use x="1173.365234" xlink:href="#DejaVuSans-49"/>
     <use x="1236.988281" xlink:href="#DejaVuSans-54"/>
     <use x="1300.611328" xlink:href="#DejaVuSans-48"/>
     <use x="1364.234375" xlink:href="#DejaVuSans-32"/>
     <use x="1396.021484" xlink:href="#DejaVuSans-65"/>
     <use x="1464.429688" xlink:href="#DejaVuSans-108"/>
     <use x="1492.212891" xlink:href="#DejaVuSans-108"/>
     <use x="1519.996094" xlink:href="#DejaVuSans-32"/>
     <use x="1551.783203" xlink:href="#DejaVuSans-115"/>
     <use x="1603.882812" xlink:href="#DejaVuSans-116"/>
     <use x="1643.091797" xlink:href="#DejaVuSans-105"/>
     <use x="1670.875" xlink:href="#DejaVuSans-109"/>
     <use x="1768.287109" xlink:href="#DejaVuSans-117"/>
     <use x="1831.666016" xlink:href="#DejaVuSans-108"/>
     <use x="1859.449219" xlink:href="#DejaVuSans-97"/>
     <use x="1920.728516" xlink:href="#DejaVuSans-116"/>
     <use x="1959.9375" xlink:href="#DejaVuSans-101"/>
     <use x="2021.460938" xlink:href="#DejaVuSans-100"/>
     <use x="2084.9375" xlink:href="#DejaVuSans-32"/>
     <use x="2116.724609" xlink:href="#DejaVuSans-116"/>
     <use x="2155.933594" xlink:href="#DejaVuSans-114"/>
     <use x="2197.046875" xlink:href="#DejaVuSans-105"/>
     <use x="2224.830078" xlink:href="#DejaVuSans-97"/>
     <use x="2286.109375" xlink:href="#DejaVuSans-108"/>
     <use x="2313.892578" xlink:href="#DejaVuSans-115"/>
    </g>
   </g>
   <g id="legend_1">
    <g id="patch_7">
     <path d="M 441.12 70.7475 
L 574.8 70.7475 
Q 577.2 70.7475 577.2 68.3475 
L 577.2 34.32 
Q 577.2 31.92 574.8 31.92 
L 441.12 31.92 
Q 438.72 31.92 438.72 34.32 
L 438.72 68.3475 
Q 438.72 70.7475 441.12 70.7475 
z
" style="fill:#ffffff;opacity:0.8;stroke:#cccccc;stroke-linejoin:miter;"/>
    </g>
    <g id="line2d_12">
     <path d="M 443.52 41.638125 
L 467.52 41.638125 
" style="fill:none;stroke:#0000ff;stroke-linecap:square;stroke-width:1.5;"/>
    </g>
    <g id="line2d_13"/>
    <g id="text_14">
     <!-- Beta-Binomial $\pi$ -->
     <defs>
      <path d="M 30.609375 48.390625 
Q 23.390625 48.390625 19.1875 42.75 
Q 14.984375 37.109375 14.984375 27.296875 
Q 14.984375 17.484375 19.15625 11.84375 
Q 23.34375 6.203125 30.609375 6.203125 
Q 37.796875 6.203125 41.984375 11.859375 
Q 46.1875 17.53125 46.1875 27.296875 
Q 46.1875 37.015625 41.984375 42.703125 
Q 37.796875 48.390625 30.609375 48.390625 
z
M 30.609375 56 
Q 42.328125 56 49.015625 48.375 
Q 55.71875 40.765625 55.71875 27.296875 
Q 55.71875 13.875 49.015625 6.21875 
Q 42.328125 -1.421875 30.609375 -1.421875 
Q 18.84375 -1.421875 12.171875 6.21875 
Q 5.515625 13.875 5.515625 27.296875 
Q 5.515625 40.765625 12.171875 48.375 
Q 18.84375 56 30.609375 56 
z
" id="DejaVuSans-111"/>
     </defs>
     <g transform="translate(477.12 45.838125)scale(0.12 -0.12)">
      <use transform="translate(0 0.015625)" xlink:href="#DejaVuSans-66"/>
      <use transform="translate(68.603516 0.015625)" xlink:href="#DejaVuSans-101"/>
      <use transform="translate(130.126953 0.015625)" xlink:href="#DejaVuSans-116"/>
      <use transform="translate(169.335938 0.015625)" xlink:href="#DejaVuSans-97"/>
      <use transform="translate(230.615234 0.015625)" xlink:href="#DejaVuSans-45"/>
      <use transform="translate(266.699219 0.015625)" xlink:href="#DejaVuSans-66"/>
      <use transform="translate(335.302734 0.015625)" xlink:href="#DejaVuSans-105"/>
      <use transform="translate(363.085938 0.015625)" xlink:href="#DejaVuSans-110"/>
      <use transform="translate(426.464844 0.015625)" xlink:href="#DejaVuSans-111"/>
      <use transform="translate(487.646484 0.015625)" xlink:href="#DejaVuSans-109"/>
      <use transform="translate(585.058594 0.015625)" xlink:href="#DejaVuSans-105"/>
      <use transform="translate(612.841797 0.015625)" xlink:href="#DejaVuSans-97"/>
      <use transform="translate(674.121094 0.015625)" xlink:href="#DejaVuSans-108"/>
      <use transform="translate(701.904297 0.015625)" xlink:href="#DejaVuSans-32"/>
      <use transform="translate(733.691406 0.015625)" xlink:href="#DejaVuSans-Oblique-960"/>
     </g>
    </g>
    <g id="patch_8">
     <path d="M 443.52 63.451875 
L 467.52 63.451875 
L 467.52 55.051875 
L 443.52 55.051875 
z
" style="fill:#0000ff;opacity:0.3;stroke:#0000ff;stroke-linejoin:miter;"/>
    </g>
    <g id="text_15">
     <!-- Std. Err. -->
     <defs>
      <path d="M 53.515625 70.515625 
L 53.515625 60.890625 
Q 47.90625 63.578125 42.921875 64.890625 
Q 37.9375 66.21875 33.296875 66.21875 
Q 25.25 66.21875 20.875 63.09375 
Q 16.5 59.96875 16.5 54.203125 
Q 16.5 49.359375 19.40625 46.890625 
Q 22.3125 44.4375 30.421875 42.921875 
L 36.375 41.703125 
Q 47.40625 39.59375 52.65625 34.296875 
Q 57.90625 29 57.90625 20.125 
Q 57.90625 9.515625 50.796875 4.046875 
Q 43.703125 -1.421875 29.984375 -1.421875 
Q 24.8125 -1.421875 18.96875 -0.25 
Q 13.140625 0.921875 6.890625 3.21875 
L 6.890625 13.375 
Q 12.890625 10.015625 18.65625 8.296875 
Q 24.421875 6.59375 29.984375 6.59375 
Q 38.421875 6.59375 43.015625 9.90625 
Q 47.609375 13.234375 47.609375 19.390625 
Q 47.609375 24.75 44.3125 27.78125 
Q 41.015625 30.8125 33.5 32.328125 
L 27.484375 33.5 
Q 16.453125 35.6875 11.515625 40.375 
Q 6.59375 45.0625 6.59375 53.421875 
Q 6.59375 63.09375 13.40625 68.65625 
Q 20.21875 74.21875 32.171875 74.21875 
Q 37.3125 74.21875 42.625 73.28125 
Q 47.953125 72.359375 53.515625 70.515625 
z
" id="DejaVuSans-83"/>
      <path d="M 9.8125 72.90625 
L 55.90625 72.90625 
L 55.90625 64.59375 
L 19.671875 64.59375 
L 19.671875 43.015625 
L 54.390625 43.015625 
L 54.390625 34.71875 
L 19.671875 34.71875 
L 19.671875 8.296875 
L 56.78125 8.296875 
L 56.78125 0 
L 9.8125 0 
z
" id="DejaVuSans-69"/>
     </defs>
     <g transform="translate(477.12 63.451875)scale(0.12 -0.12)">
      <use xlink:href="#DejaVuSans-83"/>
      <use x="63.476562" xlink:href="#DejaVuSans-116"/>
      <use x="102.685547" xlink:href="#DejaVuSans-100"/>
      <use x="166.162109" xlink:href="#DejaVuSans-46"/>
      <use x="197.949219" xlink:href="#DejaVuSans-32"/>
      <use x="229.736328" xlink:href="#DejaVuSans-69"/>
      <use x="292.919922" xlink:href="#DejaVuSans-114"/>
      <use x="334.017578" xlink:href="#DejaVuSans-114"/>
      <use x="374.990234" xlink:href="#DejaVuSans-46"/>
     </g>
    </g>
   </g>
  </g>
 </g>
 <defs>
  <clipPath id="pfb5fa09213">
   <rect height="166.32" width="502.2" x="81" y="25.92"/>
  </clipPath>
 </defs>
</svg>
