<?xml version="1.0" encoding="utf-8" standalone="no"?>
<!DOCTYPE svg PUBLIC "-//W3C//DTD SVG 1.1//EN"
  "http://www.w3.org/Graphics/SVG/1.1/DTD/svg11.dtd">
<!-- Created with matplotlib (https://matplotlib.org/) -->
<svg height="223.2pt" version="1.1" viewBox="0 0 576 223.2" width="576pt" xmlns="http://www.w3.org/2000/svg" xmlns:xlink="http://www.w3.org/1999/xlink">
 <defs>
  <style type="text/css">
*{stroke-linecap:butt;stroke-linejoin:round;}
  </style>
 </defs>
 <g id="figure_1">
  <g id="patch_1">
   <path d="M 0 223.2 
L 576 223.2 
L 576 0 
L 0 0 
z
" style="fill:#ffffff;"/>
  </g>
  <g id="axes_1">
   <g id="patch_2">
    <path d="M 80.03 174.76 
L 565.2 174.76 
L 565.2 26.88 
L 80.03 26.88 
z
" style="fill:#ffffff;"/>
   </g>
   <g id="PolyCollection_1">
    <defs>
     <path d="M 158.890683 -48.44 
L 158.890683 -196.32 
L 405.587293 -196.32 
L 405.587293 -48.44 
L 405.587293 -48.44 
L 158.890683 -48.44 
z
" id="mdac8675b8d" style="stroke:#808080;stroke-opacity:0.3;"/>
    </defs>
    <g clip-path="url(#p31d6766cee)">
     <use style="fill:#808080;fill-opacity:0.3;stroke:#808080;stroke-opacity:0.3;" x="0" xlink:href="#mdac8675b8d" y="223.2"/>
    </g>
   </g>
   <g id="PolyCollection_2">
    <defs>
     <path d="M 80.03 -167.245747 
L 80.03 -157.460096 
L 81.674644 -156.859869 
L 83.319288 -157.350604 
L 84.963932 -151.607385 
L 86.608576 -156.599827 
L 88.25322 -150.311703 
L 89.897864 -164.463214 
L 91.542508 -167.429527 
L 93.187153 -164.078679 
L 94.831797 -166.836422 
L 96.476441 -170.915249 
L 98.121085 -162.469752 
L 99.765729 -161.825663 
L 101.410373 -166.13196 
L 103.055017 -165.285567 
L 104.699661 -163.568525 
L 106.344305 -158.679361 
L 107.988949 -159.317132 
L 109.633593 -161.602056 
L 111.278237 -163.326694 
L 112.922881 -166.849241 
L 114.567525 -167.544707 
L 116.212169 -175.892606 
L 117.856814 -169.403739 
L 119.501458 -159.062146 
L 121.146102 -162.598706 
L 122.790746 -163.304167 
L 124.43539 -162.656632 
L 126.080034 -163.683455 
L 127.724678 -160.74275 
L 129.369322 -161.986061 
L 131.013966 -161.447727 
L 132.65861 -152.720618 
L 134.303254 -161.910649 
L 135.947898 -166.866802 
L 137.592542 -155.818539 
L 139.237186 -169.961185 
L 140.881831 -159.363471 
L 142.526475 -158.440685 
L 144.171119 -163.968783 
L 145.815763 -163.930325 
L 147.460407 -168.617135 
L 149.105051 -169.308603 
L 150.749695 -168.450961 
L 152.394339 -170.976486 
L 154.038983 -174.965074 
L 155.683627 -180.897431 
L 157.328271 -164.715547 
L 158.972915 -161.844092 
L 160.617559 -165.592847 
L 162.262203 -172.697266 
L 163.906847 -163.970556 
L 165.551492 -159.675467 
L 167.196136 -163.924069 
L 168.84078 -162.127433 
L 170.485424 -159.568157 
L 172.130068 -156.625367 
L 173.774712 -161.902484 
L 175.419356 -159.900452 
L 177.064 -164.127343 
L 178.708644 -158.582626 
L 180.353288 -155.807729 
L 181.997932 -160.47549 
L 183.642576 -154.102857 
L 185.28722 -160.292095 
L 186.931864 -150.433059 
L 188.576508 -155.05935 
L 190.221153 -155.496698 
L 191.865797 -154.097263 
L 193.510441 -152.450553 
L 195.155085 -156.918499 
L 196.799729 -164.804132 
L 198.444373 -158.719804 
L 200.089017 -156.93875 
L 201.733661 -163.010405 
L 203.378305 -160.048907 
L 205.022949 -164.72254 
L 206.667593 -164.869681 
L 208.312237 -157.066948 
L 209.956881 -167.202446 
L 211.601525 -157.758947 
L 213.246169 -163.458718 
L 214.890814 -155.587321 
L 216.535458 -162.794559 
L 218.180102 -164.152195 
L 219.824746 -160.375605 
L 221.46939 -155.400525 
L 223.114034 -157.716552 
L 224.758678 -158.883237 
L 226.403322 -150.633605 
L 228.047966 -156.703094 
L 229.69261 -154.895081 
L 231.337254 -148.914205 
L 232.981898 -162.560334 
L 234.626542 -154.926606 
L 236.271186 -162.62064 
L 237.915831 -152.889288 
L 239.560475 -161.512123 
L 241.205119 -161.640621 
L 242.849763 -156.714443 
L 244.494407 -160.635794 
L 246.139051 -155.497741 
L 247.783695 -150.674276 
L 249.428339 -158.678843 
L 251.072983 -161.85726 
L 252.717627 -160.817764 
L 254.362271 -159.227439 
L 256.006915 -155.461747 
L 257.651559 -154.465884 
L 259.296203 -154.467224 
L 260.940847 -147.892644 
L 262.585492 -162.702383 
L 264.230136 -154.716141 
L 265.87478 -154.924715 
L 267.519424 -158.810726 
L 269.164068 -159.562265 
L 270.808712 -157.08478 
L 272.453356 -151.902741 
L 274.098 -157.27441 
L 275.742644 -163.388001 
L 277.387288 -151.834245 
L 279.031932 -158.03147 
L 280.676576 -149.117565 
L 282.32122 -155.896872 
L 283.965864 -153.475442 
L 285.610508 -160.380538 
L 287.255153 -156.56426 
L 288.899797 -150.039601 
L 290.544441 -148.358369 
L 292.189085 -160.084953 
L 293.833729 -158.585847 
L 295.478373 -151.008143 
L 297.123017 -157.768778 
L 298.767661 -155.215713 
L 300.412305 -150.246944 
L 302.056949 -143.24555 
L 303.701593 -149.756156 
L 305.346237 -148.761624 
L 306.990881 -148.770432 
L 308.635525 -148.315538 
L 310.280169 -150.429737 
L 311.924814 -162.397788 
L 313.569458 -159.501225 
L 315.214102 -158.959659 
L 316.858746 -155.970824 
L 318.50339 -157.012709 
L 320.148034 -152.694463 
L 321.792678 -145.845401 
L 323.437322 -144.488868 
L 325.081966 -145.650239 
L 326.72661 -149.727948 
L 328.371254 -152.588039 
L 330.015898 -150.408694 
L 331.660542 -151.759756 
L 333.305186 -146.041277 
L 334.949831 -149.924137 
L 336.594475 -152.243587 
L 338.239119 -142.568771 
L 339.883763 -152.992024 
L 341.528407 -150.895513 
L 343.173051 -149.169744 
L 344.817695 -147.975972 
L 346.462339 -148.327933 
L 348.106983 -151.500268 
L 349.751627 -155.963794 
L 351.396271 -155.846062 
L 353.040915 -160.988267 
L 354.685559 -156.425522 
L 356.330203 -150.280894 
L 357.974847 -155.335194 
L 359.619492 -151.221123 
L 361.264136 -159.734015 
L 362.90878 -146.026966 
L 364.553424 -153.142007 
L 366.198068 -152.728338 
L 367.842712 -159.892154 
L 369.487356 -156.603164 
L 371.132 -153.617213 
L 372.776644 -156.181514 
L 374.421288 -147.951672 
L 376.065932 -157.972417 
L 377.710576 -153.369941 
L 379.35522 -157.938671 
L 380.999864 -158.052484 
L 382.644508 -160.95413 
L 384.289153 -167.556173 
L 385.933797 -161.669328 
L 387.578441 -167.894569 
L 389.223085 -163.331011 
L 390.867729 -163.511545 
L 392.512373 -162.07959 
L 394.157017 -160.94564 
L 395.801661 -162.330011 
L 397.446305 -148.920655 
L 399.090949 -159.506924 
L 400.735593 -153.515568 
L 402.380237 -149.636751 
L 404.024881 -150.633395 
L 405.669525 -151.7397 
L 407.314169 -151.642761 
L 408.958814 -155.222121 
L 410.603458 -150.592165 
L 412.248102 -153.233607 
L 413.892746 -142.257278 
L 415.53739 -148.826031 
L 417.182034 -146.810415 
L 418.826678 -154.354531 
L 420.471322 -152.060004 
L 422.115966 -154.511471 
L 423.76061 -156.717341 
L 425.405254 -156.843682 
L 427.049898 -149.127959 
L 428.694542 -149.974287 
L 430.339186 -159.327132 
L 431.983831 -157.411923 
L 433.628475 -154.12785 
L 435.273119 -155.332673 
L 436.917763 -151.783872 
L 438.562407 -148.5894 
L 440.207051 -155.444991 
L 441.851695 -154.391649 
L 443.496339 -162.170487 
L 445.140983 -150.984409 
L 446.785627 -154.678387 
L 448.430271 -156.258466 
L 450.074915 -159.342463 
L 451.719559 -156.906416 
L 453.364203 -154.650253 
L 455.008847 -148.423429 
L 456.653492 -150.848072 
L 458.298136 -160.396797 
L 459.94278 -162.70168 
L 461.587424 -169.492134 
L 463.232068 -162.653867 
L 464.876712 -165.763634 
L 466.521356 -161.166818 
L 468.166 -158.653595 
L 469.810644 -164.115725 
L 471.455288 -163.882499 
L 473.099932 -164.940961 
L 474.744576 -161.091483 
L 476.38922 -158.655921 
L 478.033864 -151.571571 
L 479.678508 -155.367384 
L 481.323153 -166.071757 
L 482.967797 -157.007081 
L 484.612441 -153.580985 
L 486.257085 -157.48221 
L 487.901729 -151.132472 
L 489.546373 -152.484256 
L 491.191017 -148.48256 
L 492.835661 -155.05428 
L 494.480305 -155.716069 
L 496.124949 -157.880384 
L 497.769593 -155.503806 
L 499.414237 -152.90921 
L 501.058881 -145.549215 
L 502.703525 -152.403546 
L 504.348169 -150.753164 
L 505.992814 -157.629776 
L 507.637458 -158.05462 
L 509.282102 -150.932417 
L 510.926746 -155.851746 
L 512.57139 -155.998206 
L 514.216034 -145.674867 
L 515.860678 -155.789153 
L 517.505322 -148.734177 
L 519.149966 -148.740664 
L 520.79461 -155.563454 
L 522.439254 -148.532965 
L 524.083898 -157.328786 
L 525.728542 -152.964337 
L 527.373186 -160.12569 
L 529.017831 -153.322853 
L 530.662475 -157.76219 
L 532.307119 -161.981425 
L 533.951763 -158.23341 
L 535.596407 -162.109119 
L 537.241051 -167.885695 
L 538.885695 -163.406546 
L 540.530339 -162.548694 
L 542.174983 -162.69287 
L 543.819627 -155.402423 
L 545.464271 -161.586134 
L 547.108915 -164.914068 
L 548.753559 -164.268321 
L 550.398203 -165.963746 
L 552.042847 -160.661104 
L 553.687492 -162.688046 
L 555.332136 -160.592772 
L 556.97678 -156.668638 
L 558.621424 -157.607627 
L 560.266068 -163.453723 
L 561.910712 -154.59435 
L 563.555356 -161.004988 
L 565.2 -166.869906 
L 565.2 -178.972887 
L 565.2 -178.972887 
L 563.555356 -173.143173 
L 561.910712 -167.10169 
L 560.266068 -174.765585 
L 558.621424 -168.745455 
L 556.97678 -170.627517 
L 555.332136 -175.515387 
L 553.687492 -177.951143 
L 552.042847 -176.745354 
L 550.398203 -181.414431 
L 548.753559 -179.294178 
L 547.108915 -178.747602 
L 545.464271 -174.171536 
L 543.819627 -167.884108 
L 542.174983 -173.947991 
L 540.530339 -174.141124 
L 538.885695 -174.931534 
L 537.241051 -179.317544 
L 535.596407 -174.458062 
L 533.951763 -169.401555 
L 532.307119 -172.431147 
L 530.662475 -167.987424 
L 529.017831 -163.933306 
L 527.373186 -171.305391 
L 525.728542 -164.578244 
L 524.083898 -167.751336 
L 522.439254 -158.720428 
L 520.79461 -165.672411 
L 519.149966 -157.616475 
L 517.505322 -157.266066 
L 515.860678 -164.509741 
L 514.216034 -155.36833 
L 512.57139 -164.709241 
L 510.926746 -165.905017 
L 509.282102 -164.567261 
L 507.637458 -172.892659 
L 505.992814 -170.938803 
L 504.348169 -164.406687 
L 502.703525 -166.036152 
L 501.058881 -158.95151 
L 499.414237 -166.710971 
L 497.769593 -169.29207 
L 496.124949 -172.241689 
L 494.480305 -170.438945 
L 492.835661 -165.678596 
L 491.191017 -157.905425 
L 489.546373 -163.016359 
L 487.901729 -161.013103 
L 486.257085 -167.776686 
L 484.612441 -163.875936 
L 482.967797 -168.900223 
L 481.323153 -178.123369 
L 479.678508 -166.973388 
L 478.033864 -162.504743 
L 476.38922 -169.516111 
L 474.744576 -173.465946 
L 473.099932 -177.921841 
L 471.455288 -177.281761 
L 469.810644 -177.630884 
L 468.166 -171.713721 
L 466.521356 -174.137719 
L 464.876712 -178.444321 
L 463.232068 -174.338654 
L 461.587424 -181.514094 
L 459.94278 -173.959093 
L 458.298136 -171.563681 
L 456.653492 -161.077078 
L 455.008847 -158.215242 
L 453.364203 -164.773161 
L 451.719559 -166.059881 
L 450.074915 -169.477804 
L 448.430271 -165.795799 
L 446.785627 -164.498962 
L 445.140983 -161.382339 
L 443.496339 -173.492708 
L 441.851695 -165.474798 
L 440.207051 -166.647053 
L 438.562407 -158.879221 
L 436.917763 -161.698685 
L 435.273119 -165.209181 
L 433.628475 -163.79709 
L 431.983831 -167.046171 
L 430.339186 -169.918671 
L 428.694542 -160.641312 
L 427.049898 -158.923131 
L 425.405254 -166.542906 
L 423.76061 -165.746369 
L 422.115966 -164.652311 
L 420.471322 -162.158602 
L 418.826678 -164.705014 
L 417.182034 -156.392403 
L 415.53739 -157.945768 
L 413.892746 -151.514325 
L 412.248102 -162.147955 
L 410.603458 -160.112088 
L 408.958814 -164.606499 
L 407.314169 -161.596746 
L 405.669525 -161.803893 
L 404.024881 -159.926236 
L 402.380237 -159.207305 
L 400.735593 -164.136741 
L 399.090949 -170.902597 
L 397.446305 -159.791686 
L 395.801661 -172.984812 
L 394.157017 -171.76069 
L 392.512373 -177.012529 
L 390.867729 -177.47933 
L 389.223085 -176.727117 
L 387.578441 -180.394467 
L 385.933797 -173.956799 
L 384.289153 -179.03592 
L 382.644508 -171.923586 
L 380.999864 -168.435549 
L 379.35522 -168.923526 
L 377.710576 -164.502977 
L 376.065932 -168.795321 
L 374.421288 -158.070599 
L 372.776644 -166.918051 
L 371.132 -164.080603 
L 369.487356 -166.738963 
L 367.842712 -169.889632 
L 366.198068 -162.785682 
L 364.553424 -162.960723 
L 362.90878 -155.715174 
L 361.264136 -169.33505 
L 359.619492 -159.987692 
L 357.974847 -164.752477 
L 356.330203 -159.459879 
L 354.685559 -167.541832 
L 353.040915 -173.406793 
L 351.396271 -167.93034 
L 349.751627 -166.958447 
L 348.106983 -161.579527 
L 346.462339 -158.202052 
L 344.817695 -157.863124 
L 343.173051 -159.322747 
L 341.528407 -160.993779 
L 339.883763 -163.171786 
L 338.239119 -152.532902 
L 336.594475 -161.96671 
L 334.949831 -159.244039 
L 333.305186 -155.78708 
L 331.660542 -161.188709 
L 330.015898 -159.929728 
L 328.371254 -161.83787 
L 326.72661 -159.075169 
L 325.081966 -155.031905 
L 323.437322 -154.905071 
L 321.792678 -156.106511 
L 320.148034 -162.246302 
L 318.50339 -167.043818 
L 316.858746 -165.075229 
L 315.214102 -168.831859 
L 313.569458 -169.290284 
L 311.924814 -172.70601 
L 310.280169 -159.69899 
L 308.635525 -159.557163 
L 306.990881 -159.279108 
L 305.346237 -159.592927 
L 303.701593 -160.78316 
L 302.056949 -153.964695 
L 300.412305 -160.173884 
L 298.767661 -165.914092 
L 297.123017 -167.502938 
L 295.478373 -161.260369 
L 293.833729 -167.778938 
L 292.189085 -170.375762 
L 290.544441 -157.041389 
L 288.899797 -160.071032 
L 287.255153 -165.869424 
L 285.610508 -169.740072 
L 283.965864 -163.491441 
L 282.32122 -166.498576 
L 280.676576 -160.552722 
L 279.031932 -167.825829 
L 277.387288 -162.557757 
L 275.742644 -173.603333 
L 274.098 -166.716914 
L 272.453356 -161.876333 
L 270.808712 -169.074412 
L 269.164068 -173.003128 
L 267.519424 -171.596583 
L 265.87478 -167.51192 
L 264.230136 -165.619814 
L 262.585492 -171.24024 
L 260.940847 -157.808637 
L 259.296203 -165.615513 
L 257.651559 -166.4948 
L 256.006915 -168.886034 
L 254.362271 -173.797436 
L 252.717627 -174.50568 
L 251.072983 -174.628335 
L 249.428339 -169.365032 
L 247.783695 -162.431556 
L 246.139051 -166.746384 
L 244.494407 -172.119361 
L 242.849763 -167.126149 
L 241.205119 -173.280667 
L 239.560475 -172.236219 
L 237.915831 -164.014171 
L 236.271186 -172.521489 
L 234.626542 -165.486211 
L 232.981898 -172.268192 
L 231.337254 -159.799415 
L 229.69261 -164.062494 
L 228.047966 -166.428539 
L 226.403322 -161.210105 
L 224.758678 -170.019282 
L 223.114034 -167.144653 
L 221.46939 -165.122102 
L 219.824746 -173.901097 
L 218.180102 -181.404234 
L 216.535458 -178.295955 
L 214.890814 -168.816809 
L 213.246169 -175.678517 
L 211.601525 -170.35435 
L 209.956881 -179.20718 
L 208.312237 -168.690124 
L 206.667593 -176.537652 
L 205.022949 -176.582208 
L 203.378305 -170.18507 
L 201.733661 -172.742817 
L 200.089017 -167.28592 
L 198.444373 -168.396435 
L 196.799729 -175.009201 
L 195.155085 -167.157289 
L 193.510441 -162.350651 
L 191.865797 -164.837461 
L 190.221153 -165.38711 
L 188.576508 -164.707273 
L 186.931864 -160.67919 
L 185.28722 -170.24905 
L 183.642576 -164.597121 
L 181.997932 -170.421578 
L 180.353288 -165.225007 
L 178.708644 -168.414311 
L 177.064 -175.511026 
L 175.419356 -171.385041 
L 173.774712 -174.232242 
L 172.130068 -169.895717 
L 170.485424 -171.987956 
L 168.84078 -173.734762 
L 167.196136 -176.459288 
L 165.551492 -172.229612 
L 163.906847 -178.752558 
L 162.262203 -187.018249 
L 160.617559 -180.548782 
L 158.972915 -178.490945 
L 157.328271 -181.631271 
L 155.683627 -196.32 
L 154.038983 -191.709926 
L 152.394339 -186.161349 
L 150.749695 -182.015104 
L 149.105051 -182.942678 
L 147.460407 -181.243832 
L 145.815763 -176.427198 
L 144.171119 -176.086668 
L 142.526475 -169.298223 
L 140.881831 -171.640468 
L 139.237186 -182.456951 
L 137.592542 -168.331355 
L 135.947898 -179.459267 
L 134.303254 -174.926273 
L 132.65861 -164.272119 
L 131.013966 -172.156556 
L 129.369322 -172.878144 
L 127.724678 -171.743971 
L 126.080034 -175.252063 
L 124.43539 -174.697141 
L 122.790746 -177.574898 
L 121.146102 -176.197208 
L 119.501458 -172.340399 
L 117.856814 -183.403565 
L 116.212169 -189.043044 
L 114.567525 -182.139919 
L 112.922881 -181.721719 
L 111.278237 -177.862489 
L 109.633593 -175.810138 
L 107.988949 -174.488719 
L 106.344305 -172.901502 
L 104.699661 -176.493517 
L 103.055017 -178.271156 
L 101.410373 -179.541854 
L 99.765729 -175.353445 
L 98.121085 -174.966953 
L 96.476441 -182.625405 
L 94.831797 -179.654858 
L 93.187153 -177.262206 
L 91.542508 -177.619792 
L 89.897864 -175.072908 
L 88.25322 -160.824013 
L 86.608576 -166.675499 
L 84.963932 -161.537592 
L 83.319288 -166.783078 
L 81.674644 -167.188895 
L 80.03 -167.245747 
z
" id="m00cf761f62" style="stroke:#0000ff;stroke-opacity:0.3;"/>
    </defs>
    <g clip-path="url(#p31d6766cee)">
     <use style="fill:#0000ff;fill-opacity:0.3;stroke:#0000ff;stroke-opacity:0.3;" x="0" xlink:href="#m00cf761f62" y="223.2"/>
    </g>
   </g>
   <g id="matplotlib.axis_1">
    <g id="xtick_1">
     <g id="line2d_1">
      <defs>
       <path d="M 0 0 
L 0 3.5 
" id="m329c18b396" style="stroke:#000000;stroke-width:0.8;"/>
      </defs>
      <g>
       <use style="stroke:#000000;stroke-width:0.8;" x="158.890683" xlink:href="#m329c18b396" y="174.76"/>
      </g>
     </g>
     <g id="text_1">
      <!-- 0.0 -->
      <defs>
       <path d="M 31.78125 66.40625 
Q 24.171875 66.40625 20.328125 58.90625 
Q 16.5 51.421875 16.5 36.375 
Q 16.5 21.390625 20.328125 13.890625 
Q 24.171875 6.390625 31.78125 6.390625 
Q 39.453125 6.390625 43.28125 13.890625 
Q 47.125 21.390625 47.125 36.375 
Q 47.125 51.421875 43.28125 58.90625 
Q 39.453125 66.40625 31.78125 66.40625 
z
M 31.78125 74.21875 
Q 44.046875 74.21875 50.515625 64.515625 
Q 56.984375 54.828125 56.984375 36.375 
Q 56.984375 17.96875 50.515625 8.265625 
Q 44.046875 -1.421875 31.78125 -1.421875 
Q 19.53125 -1.421875 13.0625 8.265625 
Q 6.59375 17.96875 6.59375 36.375 
Q 6.59375 54.828125 13.0625 64.515625 
Q 19.53125 74.21875 31.78125 74.21875 
z
" id="DejaVuSans-48"/>
       <path d="M 10.6875 12.40625 
L 21 12.40625 
L 21 0 
L 10.6875 0 
z
" id="DejaVuSans-46"/>
      </defs>
      <g transform="translate(149.348808 190.878125)scale(0.12 -0.12)">
       <use xlink:href="#DejaVuSans-48"/>
       <use x="63.623047" xlink:href="#DejaVuSans-46"/>
       <use x="95.410156" xlink:href="#DejaVuSans-48"/>
      </g>
     </g>
    </g>
    <g id="xtick_2">
     <g id="line2d_2">
      <g>
       <use style="stroke:#000000;stroke-width:0.8;" x="241.122886" xlink:href="#m329c18b396" y="174.76"/>
      </g>
     </g>
     <g id="text_2">
      <!-- 0.5 -->
      <defs>
       <path d="M 10.796875 72.90625 
L 49.515625 72.90625 
L 49.515625 64.59375 
L 19.828125 64.59375 
L 19.828125 46.734375 
Q 21.96875 47.46875 24.109375 47.828125 
Q 26.265625 48.1875 28.421875 48.1875 
Q 40.625 48.1875 47.75 41.5 
Q 54.890625 34.8125 54.890625 23.390625 
Q 54.890625 11.625 47.5625 5.09375 
Q 40.234375 -1.421875 26.90625 -1.421875 
Q 22.3125 -1.421875 17.546875 -0.640625 
Q 12.796875 0.140625 7.71875 1.703125 
L 7.71875 11.625 
Q 12.109375 9.234375 16.796875 8.0625 
Q 21.484375 6.890625 26.703125 6.890625 
Q 35.15625 6.890625 40.078125 11.328125 
Q 45.015625 15.765625 45.015625 23.390625 
Q 45.015625 31 40.078125 35.4375 
Q 35.15625 39.890625 26.703125 39.890625 
Q 22.75 39.890625 18.8125 39.015625 
Q 14.890625 38.140625 10.796875 36.28125 
z
" id="DejaVuSans-53"/>
      </defs>
      <g transform="translate(231.581011 190.878125)scale(0.12 -0.12)">
       <use xlink:href="#DejaVuSans-48"/>
       <use x="63.623047" xlink:href="#DejaVuSans-46"/>
       <use x="95.410156" xlink:href="#DejaVuSans-53"/>
      </g>
     </g>
    </g>
    <g id="xtick_3">
     <g id="line2d_3">
      <g>
       <use style="stroke:#000000;stroke-width:0.8;" x="323.35509" xlink:href="#m329c18b396" y="174.76"/>
      </g>
     </g>
     <g id="text_3">
      <!-- 1.0 -->
      <defs>
       <path d="M 12.40625 8.296875 
L 28.515625 8.296875 
L 28.515625 63.921875 
L 10.984375 60.40625 
L 10.984375 69.390625 
L 28.421875 72.90625 
L 38.28125 72.90625 
L 38.28125 8.296875 
L 54.390625 8.296875 
L 54.390625 0 
L 12.40625 0 
z
" id="DejaVuSans-49"/>
      </defs>
      <g transform="translate(313.813215 190.878125)scale(0.12 -0.12)">
       <use xlink:href="#DejaVuSans-49"/>
       <use x="63.623047" xlink:href="#DejaVuSans-46"/>
       <use x="95.410156" xlink:href="#DejaVuSans-48"/>
      </g>
     </g>
    </g>
    <g id="xtick_4">
     <g id="line2d_4">
      <g>
       <use style="stroke:#000000;stroke-width:0.8;" x="405.587293" xlink:href="#m329c18b396" y="174.76"/>
      </g>
     </g>
     <g id="text_4">
      <!-- 1.5 -->
      <g transform="translate(396.045418 190.878125)scale(0.12 -0.12)">
       <use xlink:href="#DejaVuSans-49"/>
       <use x="63.623047" xlink:href="#DejaVuSans-46"/>
       <use x="95.410156" xlink:href="#DejaVuSans-53"/>
      </g>
     </g>
    </g>
    <g id="xtick_5">
     <g id="line2d_5">
      <g>
       <use style="stroke:#000000;stroke-width:0.8;" x="487.819497" xlink:href="#m329c18b396" y="174.76"/>
      </g>
     </g>
     <g id="text_5">
      <!-- 2.0 -->
      <defs>
       <path d="M 19.1875 8.296875 
L 53.609375 8.296875 
L 53.609375 0 
L 7.328125 0 
L 7.328125 8.296875 
Q 12.9375 14.109375 22.625 23.890625 
Q 32.328125 33.6875 34.8125 36.53125 
Q 39.546875 41.84375 41.421875 45.53125 
Q 43.3125 49.21875 43.3125 52.78125 
Q 43.3125 58.59375 39.234375 62.25 
Q 35.15625 65.921875 28.609375 65.921875 
Q 23.96875 65.921875 18.8125 64.3125 
Q 13.671875 62.703125 7.8125 59.421875 
L 7.8125 69.390625 
Q 13.765625 71.78125 18.9375 73 
Q 24.125 74.21875 28.421875 74.21875 
Q 39.75 74.21875 46.484375 68.546875 
Q 53.21875 62.890625 53.21875 53.421875 
Q 53.21875 48.921875 51.53125 44.890625 
Q 49.859375 40.875 45.40625 35.40625 
Q 44.1875 33.984375 37.640625 27.21875 
Q 31.109375 20.453125 19.1875 8.296875 
z
" id="DejaVuSans-50"/>
      </defs>
      <g transform="translate(478.277622 190.878125)scale(0.12 -0.12)">
       <use xlink:href="#DejaVuSans-50"/>
       <use x="63.623047" xlink:href="#DejaVuSans-46"/>
       <use x="95.410156" xlink:href="#DejaVuSans-48"/>
      </g>
     </g>
    </g>
    <g id="text_6">
     <!-- Time (s) -->
     <defs>
      <path d="M -0.296875 72.90625 
L 61.375 72.90625 
L 61.375 64.59375 
L 35.5 64.59375 
L 35.5 0 
L 25.59375 0 
L 25.59375 64.59375 
L -0.296875 64.59375 
z
" id="DejaVuSans-84"/>
      <path d="M 9.421875 54.6875 
L 18.40625 54.6875 
L 18.40625 0 
L 9.421875 0 
z
M 9.421875 75.984375 
L 18.40625 75.984375 
L 18.40625 64.59375 
L 9.421875 64.59375 
z
" id="DejaVuSans-105"/>
      <path d="M 52 44.1875 
Q 55.375 50.25 60.0625 53.125 
Q 64.75 56 71.09375 56 
Q 79.640625 56 84.28125 50.015625 
Q 88.921875 44.046875 88.921875 33.015625 
L 88.921875 0 
L 79.890625 0 
L 79.890625 32.71875 
Q 79.890625 40.578125 77.09375 44.375 
Q 74.3125 48.1875 68.609375 48.1875 
Q 61.625 48.1875 57.5625 43.546875 
Q 53.515625 38.921875 53.515625 30.90625 
L 53.515625 0 
L 44.484375 0 
L 44.484375 32.71875 
Q 44.484375 40.625 41.703125 44.40625 
Q 38.921875 48.1875 33.109375 48.1875 
Q 26.21875 48.1875 22.15625 43.53125 
Q 18.109375 38.875 18.109375 30.90625 
L 18.109375 0 
L 9.078125 0 
L 9.078125 54.6875 
L 18.109375 54.6875 
L 18.109375 46.1875 
Q 21.1875 51.21875 25.484375 53.609375 
Q 29.78125 56 35.6875 56 
Q 41.65625 56 45.828125 52.96875 
Q 50 49.953125 52 44.1875 
z
" id="DejaVuSans-109"/>
      <path d="M 56.203125 29.59375 
L 56.203125 25.203125 
L 14.890625 25.203125 
Q 15.484375 15.921875 20.484375 11.0625 
Q 25.484375 6.203125 34.421875 6.203125 
Q 39.59375 6.203125 44.453125 7.46875 
Q 49.3125 8.734375 54.109375 11.28125 
L 54.109375 2.78125 
Q 49.265625 0.734375 44.1875 -0.34375 
Q 39.109375 -1.421875 33.890625 -1.421875 
Q 20.796875 -1.421875 13.15625 6.1875 
Q 5.515625 13.8125 5.515625 26.8125 
Q 5.515625 40.234375 12.765625 48.109375 
Q 20.015625 56 32.328125 56 
Q 43.359375 56 49.78125 48.890625 
Q 56.203125 41.796875 56.203125 29.59375 
z
M 47.21875 32.234375 
Q 47.125 39.59375 43.09375 43.984375 
Q 39.0625 48.390625 32.421875 48.390625 
Q 24.90625 48.390625 20.390625 44.140625 
Q 15.875 39.890625 15.1875 32.171875 
z
" id="DejaVuSans-101"/>
      <path id="DejaVuSans-32"/>
      <path d="M 31 75.875 
Q 24.46875 64.65625 21.28125 53.65625 
Q 18.109375 42.671875 18.109375 31.390625 
Q 18.109375 20.125 21.3125 9.0625 
Q 24.515625 -2 31 -13.1875 
L 23.1875 -13.1875 
Q 15.875 -1.703125 12.234375 9.375 
Q 8.59375 20.453125 8.59375 31.390625 
Q 8.59375 42.28125 12.203125 53.3125 
Q 15.828125 64.359375 23.1875 75.875 
z
" id="DejaVuSans-40"/>
      <path d="M 44.28125 53.078125 
L 44.28125 44.578125 
Q 40.484375 46.53125 36.375 47.5 
Q 32.28125 48.484375 27.875 48.484375 
Q 21.1875 48.484375 17.84375 46.4375 
Q 14.5 44.390625 14.5 40.28125 
Q 14.5 37.15625 16.890625 35.375 
Q 19.28125 33.59375 26.515625 31.984375 
L 29.59375 31.296875 
Q 39.15625 29.25 43.1875 25.515625 
Q 47.21875 21.78125 47.21875 15.09375 
Q 47.21875 7.46875 41.1875 3.015625 
Q 35.15625 -1.421875 24.609375 -1.421875 
Q 20.21875 -1.421875 15.453125 -0.5625 
Q 10.6875 0.296875 5.421875 2 
L 5.421875 11.28125 
Q 10.40625 8.6875 15.234375 7.390625 
Q 20.0625 6.109375 24.8125 6.109375 
Q 31.15625 6.109375 34.5625 8.28125 
Q 37.984375 10.453125 37.984375 14.40625 
Q 37.984375 18.0625 35.515625 20.015625 
Q 33.0625 21.96875 24.703125 23.78125 
L 21.578125 24.515625 
Q 13.234375 26.265625 9.515625 29.90625 
Q 5.8125 33.546875 5.8125 39.890625 
Q 5.8125 47.609375 11.28125 51.796875 
Q 16.75 56 26.8125 56 
Q 31.78125 56 36.171875 55.265625 
Q 40.578125 54.546875 44.28125 53.078125 
z
" id="DejaVuSans-115"/>
      <path d="M 8.015625 75.875 
L 15.828125 75.875 
Q 23.140625 64.359375 26.78125 53.3125 
Q 30.421875 42.28125 30.421875 31.390625 
Q 30.421875 20.453125 26.78125 9.375 
Q 23.140625 -1.703125 15.828125 -13.1875 
L 8.015625 -13.1875 
Q 14.5 -2 17.703125 9.0625 
Q 20.90625 20.125 20.90625 31.390625 
Q 20.90625 42.671875 17.703125 53.65625 
Q 14.5 64.65625 8.015625 75.875 
z
" id="DejaVuSans-41"/>
     </defs>
     <g transform="translate(293.11975 208.3155)scale(0.144 -0.144)">
      <use xlink:href="#DejaVuSans-84"/>
      <use x="61.037109" xlink:href="#DejaVuSans-105"/>
      <use x="88.820312" xlink:href="#DejaVuSans-109"/>
      <use x="186.232422" xlink:href="#DejaVuSans-101"/>
      <use x="247.755859" xlink:href="#DejaVuSans-32"/>
      <use x="279.542969" xlink:href="#DejaVuSans-40"/>
      <use x="318.556641" xlink:href="#DejaVuSans-115"/>
      <use x="370.65625" xlink:href="#DejaVuSans-41"/>
     </g>
    </g>
   </g>
   <g id="matplotlib.axis_2">
    <g id="ytick_1">
     <g id="line2d_6">
      <defs>
       <path d="M 0 0 
L -3.5 0 
" id="m3079bd0279" style="stroke:#000000;stroke-width:0.8;"/>
      </defs>
      <g>
       <use style="stroke:#000000;stroke-width:0.8;" x="80.03" xlink:href="#m3079bd0279" y="174.76"/>
      </g>
     </g>
     <g id="text_7">
      <!-- 0.0000 -->
      <g transform="translate(31.04125 179.319062)scale(0.12 -0.12)">
       <use xlink:href="#DejaVuSans-48"/>
       <use x="63.623047" xlink:href="#DejaVuSans-46"/>
       <use x="95.410156" xlink:href="#DejaVuSans-48"/>
       <use x="159.033203" xlink:href="#DejaVuSans-48"/>
       <use x="222.65625" xlink:href="#DejaVuSans-48"/>
       <use x="286.279297" xlink:href="#DejaVuSans-48"/>
      </g>
     </g>
    </g>
    <g id="ytick_2">
     <g id="line2d_7">
      <g>
       <use style="stroke:#000000;stroke-width:0.8;" x="80.03" xlink:href="#m3079bd0279" y="138.265616"/>
      </g>
     </g>
     <g id="text_8">
      <!-- 0.0005 -->
      <g transform="translate(31.04125 142.824678)scale(0.12 -0.12)">
       <use xlink:href="#DejaVuSans-48"/>
       <use x="63.623047" xlink:href="#DejaVuSans-46"/>
       <use x="95.410156" xlink:href="#DejaVuSans-48"/>
       <use x="159.033203" xlink:href="#DejaVuSans-48"/>
       <use x="222.65625" xlink:href="#DejaVuSans-48"/>
       <use x="286.279297" xlink:href="#DejaVuSans-53"/>
      </g>
     </g>
    </g>
    <g id="ytick_3">
     <g id="line2d_8">
      <g>
       <use style="stroke:#000000;stroke-width:0.8;" x="80.03" xlink:href="#m3079bd0279" y="101.771231"/>
      </g>
     </g>
     <g id="text_9">
      <!-- 0.0010 -->
      <g transform="translate(31.04125 106.330294)scale(0.12 -0.12)">
       <use xlink:href="#DejaVuSans-48"/>
       <use x="63.623047" xlink:href="#DejaVuSans-46"/>
       <use x="95.410156" xlink:href="#DejaVuSans-48"/>
       <use x="159.033203" xlink:href="#DejaVuSans-48"/>
       <use x="222.65625" xlink:href="#DejaVuSans-49"/>
       <use x="286.279297" xlink:href="#DejaVuSans-48"/>
      </g>
     </g>
    </g>
    <g id="ytick_4">
     <g id="line2d_9">
      <g>
       <use style="stroke:#000000;stroke-width:0.8;" x="80.03" xlink:href="#m3079bd0279" y="65.276847"/>
      </g>
     </g>
     <g id="text_10">
      <!-- 0.0015 -->
      <g transform="translate(31.04125 69.83591)scale(0.12 -0.12)">
       <use xlink:href="#DejaVuSans-48"/>
       <use x="63.623047" xlink:href="#DejaVuSans-46"/>
       <use x="95.410156" xlink:href="#DejaVuSans-48"/>
       <use x="159.033203" xlink:href="#DejaVuSans-48"/>
       <use x="222.65625" xlink:href="#DejaVuSans-49"/>
       <use x="286.279297" xlink:href="#DejaVuSans-53"/>
      </g>
     </g>
    </g>
    <g id="ytick_5">
     <g id="line2d_10">
      <g>
       <use style="stroke:#000000;stroke-width:0.8;" x="80.03" xlink:href="#m3079bd0279" y="28.782463"/>
      </g>
     </g>
     <g id="text_11">
      <!-- 0.0020 -->
      <g transform="translate(31.04125 33.341525)scale(0.12 -0.12)">
       <use xlink:href="#DejaVuSans-48"/>
       <use x="63.623047" xlink:href="#DejaVuSans-46"/>
       <use x="95.410156" xlink:href="#DejaVuSans-48"/>
       <use x="159.033203" xlink:href="#DejaVuSans-48"/>
       <use x="222.65625" xlink:href="#DejaVuSans-50"/>
       <use x="286.279297" xlink:href="#DejaVuSans-48"/>
      </g>
     </g>
    </g>
    <g id="text_12">
     <!-- Beta-bin $\rho$ -->
     <defs>
      <path d="M 19.671875 34.8125 
L 19.671875 8.109375 
L 35.5 8.109375 
Q 43.453125 8.109375 47.28125 11.40625 
Q 51.125 14.703125 51.125 21.484375 
Q 51.125 28.328125 47.28125 31.5625 
Q 43.453125 34.8125 35.5 34.8125 
z
M 19.671875 64.796875 
L 19.671875 42.828125 
L 34.28125 42.828125 
Q 41.5 42.828125 45.03125 45.53125 
Q 48.578125 48.25 48.578125 53.8125 
Q 48.578125 59.328125 45.03125 62.0625 
Q 41.5 64.796875 34.28125 64.796875 
z
M 9.8125 72.90625 
L 35.015625 72.90625 
Q 46.296875 72.90625 52.390625 68.21875 
Q 58.5 63.53125 58.5 54.890625 
Q 58.5 48.1875 55.375 44.234375 
Q 52.25 40.28125 46.1875 39.3125 
Q 53.46875 37.75 57.5 32.78125 
Q 61.53125 27.828125 61.53125 20.40625 
Q 61.53125 10.640625 54.890625 5.3125 
Q 48.25 0 35.984375 0 
L 9.8125 0 
z
" id="DejaVuSans-66"/>
      <path d="M 18.3125 70.21875 
L 18.3125 54.6875 
L 36.8125 54.6875 
L 36.8125 47.703125 
L 18.3125 47.703125 
L 18.3125 18.015625 
Q 18.3125 11.328125 20.140625 9.421875 
Q 21.96875 7.515625 27.59375 7.515625 
L 36.8125 7.515625 
L 36.8125 0 
L 27.59375 0 
Q 17.1875 0 13.234375 3.875 
Q 9.28125 7.765625 9.28125 18.015625 
L 9.28125 47.703125 
L 2.6875 47.703125 
L 2.6875 54.6875 
L 9.28125 54.6875 
L 9.28125 70.21875 
z
" id="DejaVuSans-116"/>
      <path d="M 34.28125 27.484375 
Q 23.390625 27.484375 19.1875 25 
Q 14.984375 22.515625 14.984375 16.5 
Q 14.984375 11.71875 18.140625 8.90625 
Q 21.296875 6.109375 26.703125 6.109375 
Q 34.1875 6.109375 38.703125 11.40625 
Q 43.21875 16.703125 43.21875 25.484375 
L 43.21875 27.484375 
z
M 52.203125 31.203125 
L 52.203125 0 
L 43.21875 0 
L 43.21875 8.296875 
Q 40.140625 3.328125 35.546875 0.953125 
Q 30.953125 -1.421875 24.3125 -1.421875 
Q 15.921875 -1.421875 10.953125 3.296875 
Q 6 8.015625 6 15.921875 
Q 6 25.140625 12.171875 29.828125 
Q 18.359375 34.515625 30.609375 34.515625 
L 43.21875 34.515625 
L 43.21875 35.40625 
Q 43.21875 41.609375 39.140625 45 
Q 35.0625 48.390625 27.6875 48.390625 
Q 23 48.390625 18.546875 47.265625 
Q 14.109375 46.140625 10.015625 43.890625 
L 10.015625 52.203125 
Q 14.9375 54.109375 19.578125 55.046875 
Q 24.21875 56 28.609375 56 
Q 40.484375 56 46.34375 49.84375 
Q 52.203125 43.703125 52.203125 31.203125 
z
" id="DejaVuSans-97"/>
      <path d="M 4.890625 31.390625 
L 31.203125 31.390625 
L 31.203125 23.390625 
L 4.890625 23.390625 
z
" id="DejaVuSans-45"/>
      <path d="M 48.6875 27.296875 
Q 48.6875 37.203125 44.609375 42.84375 
Q 40.53125 48.484375 33.40625 48.484375 
Q 26.265625 48.484375 22.1875 42.84375 
Q 18.109375 37.203125 18.109375 27.296875 
Q 18.109375 17.390625 22.1875 11.75 
Q 26.265625 6.109375 33.40625 6.109375 
Q 40.53125 6.109375 44.609375 11.75 
Q 48.6875 17.390625 48.6875 27.296875 
z
M 18.109375 46.390625 
Q 20.953125 51.265625 25.265625 53.625 
Q 29.59375 56 35.59375 56 
Q 45.5625 56 51.78125 48.09375 
Q 58.015625 40.1875 58.015625 27.296875 
Q 58.015625 14.40625 51.78125 6.484375 
Q 45.5625 -1.421875 35.59375 -1.421875 
Q 29.59375 -1.421875 25.265625 0.953125 
Q 20.953125 3.328125 18.109375 8.203125 
L 18.109375 0 
L 9.078125 0 
L 9.078125 75.984375 
L 18.109375 75.984375 
z
" id="DejaVuSans-98"/>
      <path d="M 54.890625 33.015625 
L 54.890625 0 
L 45.90625 0 
L 45.90625 32.71875 
Q 45.90625 40.484375 42.875 44.328125 
Q 39.84375 48.1875 33.796875 48.1875 
Q 26.515625 48.1875 22.3125 43.546875 
Q 18.109375 38.921875 18.109375 30.90625 
L 18.109375 0 
L 9.078125 0 
L 9.078125 54.6875 
L 18.109375 54.6875 
L 18.109375 46.1875 
Q 21.34375 51.125 25.703125 53.5625 
Q 30.078125 56 35.796875 56 
Q 45.21875 56 50.046875 50.171875 
Q 54.890625 44.34375 54.890625 33.015625 
z
" id="DejaVuSans-110"/>
      <path d="M 18.796875 44.921875 
Q 22.703125 49.90625 30.953125 54.296875 
Q 34.1875 56 43.0625 56 
Q 53.03125 56 57.71875 48.09375 
Q 62.40625 40.1875 59.90625 27.296875 
Q 57.375 14.40625 49.609375 6.484375 
Q 41.84375 -1.421875 31.890625 -1.421875 
Q 25.875 -1.421875 22.015625 0.984375 
Q 18.171875 3.328125 16.3125 8.203125 
L 10.640625 -20.796875 
L 1.609375 -20.796875 
L 10.890625 26.8125 
Q 13.09375 38.09375 18.796875 44.921875 
z
M 50.59375 27.296875 
Q 52.484375 37.203125 49.515625 42.875 
Q 46.53125 48.484375 39.40625 48.484375 
Q 32.28125 48.484375 27.09375 42.875 
Q 21.921875 37.203125 20.015625 27.296875 
Q 18.0625 17.390625 21.046875 11.71875 
Q 24.03125 6.109375 31.15625 6.109375 
Q 38.28125 6.109375 43.453125 11.71875 
Q 48.640625 17.390625 50.59375 27.296875 
z
" id="DejaVuSans-Oblique-961"/>
     </defs>
     <g transform="translate(24.01725 138.044)rotate(-90)scale(0.144 -0.144)">
      <use transform="translate(0 0.015625)" xlink:href="#DejaVuSans-66"/>
      <use transform="translate(68.603516 0.015625)" xlink:href="#DejaVuSans-101"/>
      <use transform="translate(130.126953 0.015625)" xlink:href="#DejaVuSans-116"/>
      <use transform="translate(169.335938 0.015625)" xlink:href="#DejaVuSans-97"/>
      <use transform="translate(230.615234 0.015625)" xlink:href="#DejaVuSans-45"/>
      <use transform="translate(266.699219 0.015625)" xlink:href="#DejaVuSans-98"/>
      <use transform="translate(330.175781 0.015625)" xlink:href="#DejaVuSans-105"/>
      <use transform="translate(357.958984 0.015625)" xlink:href="#DejaVuSans-110"/>
      <use transform="translate(421.337891 0.015625)" xlink:href="#DejaVuSans-32"/>
      <use transform="translate(453.125 0.015625)" xlink:href="#DejaVuSans-Oblique-961"/>
     </g>
    </g>
   </g>
   <g id="line2d_11">
    <path clip-path="url(#p31d6766cee)" d="M 80.03 60.847079 
L 81.674644 61.175618 
L 83.319288 61.133159 
L 84.963932 66.627512 
L 86.608576 61.562337 
L 88.25322 67.632142 
L 89.897864 53.431939 
L 91.542508 50.675341 
L 93.187153 52.529558 
L 94.831797 49.95436 
L 96.476441 46.429673 
L 98.121085 54.481647 
L 99.765729 54.610446 
L 101.410373 50.363093 
L 103.055017 51.421638 
L 104.699661 53.168979 
L 106.344305 57.409568 
L 107.988949 56.297074 
L 111.278237 52.605409 
L 112.922881 48.91452 
L 114.567525 48.357687 
L 116.212169 40.732175 
L 117.856814 46.796348 
L 119.501458 57.498727 
L 121.146102 53.802043 
L 122.790746 52.760468 
L 124.43539 54.523114 
L 126.080034 53.732241 
L 127.724678 56.956639 
L 129.369322 55.767898 
L 131.013966 56.397858 
L 132.65861 64.703631 
L 134.303254 54.781539 
L 135.947898 50.036965 
L 137.592542 61.125053 
L 139.237186 46.990932 
L 140.881831 57.698031 
L 142.526475 59.330546 
L 144.171119 53.172274 
L 145.815763 53.021238 
L 147.460407 48.269516 
L 149.105051 47.074359 
L 150.749695 47.966968 
L 152.394339 44.631082 
L 154.038983 39.8625 
L 155.683627 34.591285 
L 157.328271 50.026591 
L 158.972915 53.032482 
L 160.617559 50.129185 
L 162.262203 43.342242 
L 163.906847 51.838443 
L 165.551492 57.247461 
L 167.196136 53.008321 
L 172.130068 59.939458 
L 173.774712 55.132637 
L 175.419356 57.557253 
L 177.064 53.380815 
L 178.708644 59.701532 
L 180.353288 62.683632 
L 181.997932 57.751466 
L 183.642576 63.850011 
L 185.28722 57.929427 
L 186.931864 67.643876 
L 188.576508 63.316688 
L 190.221153 62.758096 
L 191.865797 63.732638 
L 193.510441 65.799398 
L 195.155085 61.162106 
L 196.799729 53.293334 
L 198.444373 59.641881 
L 200.089017 61.087665 
L 201.733661 55.323389 
L 203.378305 58.083012 
L 205.022949 52.547626 
L 206.667593 52.496334 
L 208.312237 60.321464 
L 209.956881 49.995187 
L 211.601525 59.143352 
L 213.246169 53.631382 
L 214.890814 60.997935 
L 216.535458 52.654743 
L 218.180102 50.421785 
L 219.824746 56.061649 
L 221.46939 62.938687 
L 224.758678 58.748741 
L 226.403322 67.278145 
L 228.047966 61.634184 
L 229.69261 63.721213 
L 231.337254 68.84319 
L 232.981898 55.785737 
L 234.626542 62.993591 
L 236.271186 55.628936 
L 237.915831 64.74827 
L 239.560475 56.325829 
L 241.205119 55.739356 
L 242.849763 61.279704 
L 244.494407 56.822422 
L 246.139051 62.077937 
L 247.783695 66.647084 
L 249.428339 59.178062 
L 251.072983 54.957202 
L 252.717627 55.538278 
L 254.362271 56.687563 
L 256.006915 61.02611 
L 257.651559 62.719658 
L 259.296203 63.158631 
L 260.940847 70.349359 
L 262.585492 56.228688 
L 264.230136 63.032022 
L 265.87478 61.981683 
L 267.519424 57.996346 
L 269.164068 56.917304 
L 270.808712 60.120404 
L 272.453356 66.310463 
L 274.098 61.204338 
L 275.742644 54.704333 
L 277.387288 66.003999 
L 279.031932 60.27135 
L 280.676576 68.364856 
L 282.32122 62.002276 
L 283.965864 64.716559 
L 285.610508 58.139695 
L 287.255153 61.983158 
L 288.899797 68.144684 
L 290.544441 70.500121 
L 292.189085 57.969643 
L 293.833729 60.017608 
L 295.478373 67.065744 
L 297.123017 60.564142 
L 298.767661 62.635097 
L 300.412305 67.989586 
L 302.056949 74.594878 
L 303.701593 67.930342 
L 305.346237 69.022724 
L 308.635525 69.263649 
L 310.280169 68.135636 
L 311.924814 55.648101 
L 313.569458 58.804245 
L 315.214102 59.304241 
L 316.858746 62.676973 
L 318.50339 61.171737 
L 320.148034 65.729618 
L 321.792678 72.224044 
L 323.437322 73.50303 
L 325.081966 72.858928 
L 326.72661 68.798442 
L 328.371254 65.987046 
L 330.015898 68.030789 
L 331.660542 66.725767 
L 333.305186 72.285821 
L 334.949831 68.615912 
L 336.594475 66.094852 
L 338.239119 75.649163 
L 339.883763 65.118095 
L 341.528407 67.255354 
L 343.173051 68.953755 
L 344.817695 70.280452 
L 346.462339 69.935008 
L 348.106983 66.660103 
L 349.751627 61.738879 
L 351.396271 61.311799 
L 353.040915 56.00247 
L 354.685559 61.216323 
L 356.330203 68.329613 
L 357.974847 63.156164 
L 359.619492 67.595593 
L 361.264136 58.665468 
L 362.90878 72.32893 
L 364.553424 65.148635 
L 366.198068 65.44299 
L 367.842712 58.309107 
L 369.487356 61.528936 
L 371.132 64.351092 
L 372.776644 61.650218 
L 374.421288 70.188864 
L 376.065932 59.816131 
L 377.710576 64.263541 
L 379.35522 59.768901 
L 380.999864 59.955983 
L 382.644508 56.761142 
L 384.289153 49.903954 
L 385.933797 55.386936 
L 387.578441 49.055482 
L 389.223085 53.170936 
L 390.867729 52.704562 
L 392.512373 53.65394 
L 394.157017 56.846835 
L 395.801661 55.542588 
L 397.446305 68.843829 
L 399.090949 57.995239 
L 400.735593 64.373845 
L 402.380237 68.777972 
L 404.024881 67.920184 
L 405.669525 66.428204 
L 407.314169 66.580246 
L 408.958814 63.28569 
L 410.603458 67.847873 
L 412.248102 65.509219 
L 413.892746 76.314198 
L 415.53739 69.814101 
L 417.182034 71.598591 
L 418.826678 63.670227 
L 420.471322 66.090697 
L 422.115966 63.618109 
L 423.76061 61.968145 
L 425.405254 61.506706 
L 427.049898 69.174455 
L 428.694542 67.8922 
L 430.339186 58.577098 
L 431.983831 60.970953 
L 433.628475 64.23753 
L 435.273119 62.929073 
L 436.917763 66.458722 
L 438.562407 69.465689 
L 440.207051 62.153978 
L 441.851695 63.266777 
L 443.496339 55.368403 
L 445.140983 67.016626 
L 446.785627 63.611325 
L 448.430271 62.172868 
L 450.074915 58.789867 
L 451.719559 61.716852 
L 453.364203 63.488293 
L 455.008847 69.880664 
L 456.653492 67.237425 
L 458.298136 57.219761 
L 459.94278 54.869613 
L 461.587424 47.696886 
L 463.232068 54.70374 
L 464.876712 51.096023 
L 466.521356 55.547731 
L 468.166 58.016342 
L 469.810644 52.326695 
L 471.455288 52.61787 
L 473.099932 51.768599 
L 474.744576 55.921285 
L 476.38922 59.113984 
L 478.033864 66.161843 
L 479.678508 62.029614 
L 481.323153 51.102437 
L 482.967797 60.246348 
L 484.612441 64.47154 
L 486.257085 60.570552 
L 487.901729 67.127213 
L 489.546373 65.449692 
L 491.191017 70.006008 
L 492.835661 62.833562 
L 494.480305 60.122493 
L 496.124949 58.138964 
L 499.414237 63.389909 
L 501.058881 70.949638 
L 502.703525 63.980151 
L 504.348169 65.620075 
L 505.992814 58.91571 
L 507.637458 57.726361 
L 509.282102 65.450161 
L 510.926746 62.321618 
L 512.57139 62.846276 
L 514.216034 72.678401 
L 515.860678 63.050553 
L 517.505322 70.199879 
L 519.149966 70.021431 
L 520.79461 62.582068 
L 522.439254 69.573304 
L 524.083898 60.659939 
L 525.728542 64.428709 
L 527.373186 57.484459 
L 529.017831 64.57192 
L 532.307119 55.993714 
L 533.951763 59.382517 
L 535.596407 54.91641 
L 537.241051 49.59838 
L 538.885695 54.03096 
L 540.530339 54.855091 
L 542.174983 54.879569 
L 543.819627 61.556735 
L 545.464271 55.321165 
L 547.108915 51.369165 
L 548.753559 51.418751 
L 550.398203 49.510912 
L 552.042847 54.496771 
L 553.687492 52.880406 
L 555.332136 55.14592 
L 556.97678 59.551923 
L 558.621424 60.023459 
L 560.266068 54.090346 
L 561.910712 62.35198 
L 565.2 50.278603 
L 565.2 50.278603 
" style="fill:none;stroke:#0000ff;stroke-linecap:square;stroke-width:1.5;"/>
   </g>
   <g id="patch_3">
    <path d="M 80.03 174.76 
L 80.03 26.88 
" style="fill:none;stroke:#000000;stroke-linecap:square;stroke-linejoin:miter;stroke-width:0.8;"/>
   </g>
   <g id="patch_4">
    <path d="M 565.2 174.76 
L 565.2 26.88 
" style="fill:none;stroke:#000000;stroke-linecap:square;stroke-linejoin:miter;stroke-width:0.8;"/>
   </g>
   <g id="patch_5">
    <path d="M 80.03 174.76 
L 565.2 174.76 
" style="fill:none;stroke:#000000;stroke-linecap:square;stroke-linejoin:miter;stroke-width:0.8;"/>
   </g>
   <g id="patch_6">
    <path d="M 80.03 26.88 
L 565.2 26.88 
" style="fill:none;stroke:#000000;stroke-linecap:square;stroke-linejoin:miter;stroke-width:0.8;"/>
   </g>
   <g id="text_13">
    <!-- Hippocampus, Num Trials=160 All stimulated trials, Num cells = 169 -->
    <defs>
     <path d="M 9.8125 72.90625 
L 19.671875 72.90625 
L 19.671875 43.015625 
L 55.515625 43.015625 
L 55.515625 72.90625 
L 65.375 72.90625 
L 65.375 0 
L 55.515625 0 
L 55.515625 34.71875 
L 19.671875 34.71875 
L 19.671875 0 
L 9.8125 0 
z
" id="DejaVuSans-72"/>
     <path d="M 18.109375 8.203125 
L 18.109375 -20.796875 
L 9.078125 -20.796875 
L 9.078125 54.6875 
L 18.109375 54.6875 
L 18.109375 46.390625 
Q 20.953125 51.265625 25.265625 53.625 
Q 29.59375 56 35.59375 56 
Q 45.5625 56 51.78125 48.09375 
Q 58.015625 40.1875 58.015625 27.296875 
Q 58.015625 14.40625 51.78125 6.484375 
Q 45.5625 -1.421875 35.59375 -1.421875 
Q 29.59375 -1.421875 25.265625 0.953125 
Q 20.953125 3.328125 18.109375 8.203125 
z
M 48.6875 27.296875 
Q 48.6875 37.203125 44.609375 42.84375 
Q 40.53125 48.484375 33.40625 48.484375 
Q 26.265625 48.484375 22.1875 42.84375 
Q 18.109375 37.203125 18.109375 27.296875 
Q 18.109375 17.390625 22.1875 11.75 
Q 26.265625 6.109375 33.40625 6.109375 
Q 40.53125 6.109375 44.609375 11.75 
Q 48.6875 17.390625 48.6875 27.296875 
z
" id="DejaVuSans-112"/>
     <path d="M 30.609375 48.390625 
Q 23.390625 48.390625 19.1875 42.75 
Q 14.984375 37.109375 14.984375 27.296875 
Q 14.984375 17.484375 19.15625 11.84375 
Q 23.34375 6.203125 30.609375 6.203125 
Q 37.796875 6.203125 41.984375 11.859375 
Q 46.1875 17.53125 46.1875 27.296875 
Q 46.1875 37.015625 41.984375 42.703125 
Q 37.796875 48.390625 30.609375 48.390625 
z
M 30.609375 56 
Q 42.328125 56 49.015625 48.375 
Q 55.71875 40.765625 55.71875 27.296875 
Q 55.71875 13.875 49.015625 6.21875 
Q 42.328125 -1.421875 30.609375 -1.421875 
Q 18.84375 -1.421875 12.171875 6.21875 
Q 5.515625 13.875 5.515625 27.296875 
Q 5.515625 40.765625 12.171875 48.375 
Q 18.84375 56 30.609375 56 
z
" id="DejaVuSans-111"/>
     <path d="M 48.78125 52.59375 
L 48.78125 44.1875 
Q 44.96875 46.296875 41.140625 47.34375 
Q 37.3125 48.390625 33.40625 48.390625 
Q 24.65625 48.390625 19.8125 42.84375 
Q 14.984375 37.3125 14.984375 27.296875 
Q 14.984375 17.28125 19.8125 11.734375 
Q 24.65625 6.203125 33.40625 6.203125 
Q 37.3125 6.203125 41.140625 7.25 
Q 44.96875 8.296875 48.78125 10.40625 
L 48.78125 2.09375 
Q 45.015625 0.34375 40.984375 -0.53125 
Q 36.96875 -1.421875 32.421875 -1.421875 
Q 20.0625 -1.421875 12.78125 6.34375 
Q 5.515625 14.109375 5.515625 27.296875 
Q 5.515625 40.671875 12.859375 48.328125 
Q 20.21875 56 33.015625 56 
Q 37.15625 56 41.109375 55.140625 
Q 45.0625 54.296875 48.78125 52.59375 
z
" id="DejaVuSans-99"/>
     <path d="M 8.5 21.578125 
L 8.5 54.6875 
L 17.484375 54.6875 
L 17.484375 21.921875 
Q 17.484375 14.15625 20.5 10.265625 
Q 23.53125 6.390625 29.59375 6.390625 
Q 36.859375 6.390625 41.078125 11.03125 
Q 45.3125 15.671875 45.3125 23.6875 
L 45.3125 54.6875 
L 54.296875 54.6875 
L 54.296875 0 
L 45.3125 0 
L 45.3125 8.40625 
Q 42.046875 3.421875 37.71875 1 
Q 33.40625 -1.421875 27.6875 -1.421875 
Q 18.265625 -1.421875 13.375 4.4375 
Q 8.5 10.296875 8.5 21.578125 
z
M 31.109375 56 
z
" id="DejaVuSans-117"/>
     <path d="M 11.71875 12.40625 
L 22.015625 12.40625 
L 22.015625 4 
L 14.015625 -11.625 
L 7.71875 -11.625 
L 11.71875 4 
z
" id="DejaVuSans-44"/>
     <path d="M 9.8125 72.90625 
L 23.09375 72.90625 
L 55.421875 11.921875 
L 55.421875 72.90625 
L 64.984375 72.90625 
L 64.984375 0 
L 51.703125 0 
L 19.390625 60.984375 
L 19.390625 0 
L 9.8125 0 
z
" id="DejaVuSans-78"/>
     <path d="M 41.109375 46.296875 
Q 39.59375 47.171875 37.8125 47.578125 
Q 36.03125 48 33.890625 48 
Q 26.265625 48 22.1875 43.046875 
Q 18.109375 38.09375 18.109375 28.8125 
L 18.109375 0 
L 9.078125 0 
L 9.078125 54.6875 
L 18.109375 54.6875 
L 18.109375 46.1875 
Q 20.953125 51.171875 25.484375 53.578125 
Q 30.03125 56 36.53125 56 
Q 37.453125 56 38.578125 55.875 
Q 39.703125 55.765625 41.0625 55.515625 
z
" id="DejaVuSans-114"/>
     <path d="M 9.421875 75.984375 
L 18.40625 75.984375 
L 18.40625 0 
L 9.421875 0 
z
" id="DejaVuSans-108"/>
     <path d="M 10.59375 45.40625 
L 73.1875 45.40625 
L 73.1875 37.203125 
L 10.59375 37.203125 
z
M 10.59375 25.484375 
L 73.1875 25.484375 
L 73.1875 17.1875 
L 10.59375 17.1875 
z
" id="DejaVuSans-61"/>
     <path d="M 33.015625 40.375 
Q 26.375 40.375 22.484375 35.828125 
Q 18.609375 31.296875 18.609375 23.390625 
Q 18.609375 15.53125 22.484375 10.953125 
Q 26.375 6.390625 33.015625 6.390625 
Q 39.65625 6.390625 43.53125 10.953125 
Q 47.40625 15.53125 47.40625 23.390625 
Q 47.40625 31.296875 43.53125 35.828125 
Q 39.65625 40.375 33.015625 40.375 
z
M 52.59375 71.296875 
L 52.59375 62.3125 
Q 48.875 64.0625 45.09375 64.984375 
Q 41.3125 65.921875 37.59375 65.921875 
Q 27.828125 65.921875 22.671875 59.328125 
Q 17.53125 52.734375 16.796875 39.40625 
Q 19.671875 43.65625 24.015625 45.921875 
Q 28.375 48.1875 33.59375 48.1875 
Q 44.578125 48.1875 50.953125 41.515625 
Q 57.328125 34.859375 57.328125 23.390625 
Q 57.328125 12.15625 50.6875 5.359375 
Q 44.046875 -1.421875 33.015625 -1.421875 
Q 20.359375 -1.421875 13.671875 8.265625 
Q 6.984375 17.96875 6.984375 36.375 
Q 6.984375 53.65625 15.1875 63.9375 
Q 23.390625 74.21875 37.203125 74.21875 
Q 40.921875 74.21875 44.703125 73.484375 
Q 48.484375 72.75 52.59375 71.296875 
z
" id="DejaVuSans-54"/>
     <path d="M 34.1875 63.1875 
L 20.796875 26.90625 
L 47.609375 26.90625 
z
M 28.609375 72.90625 
L 39.796875 72.90625 
L 67.578125 0 
L 57.328125 0 
L 50.6875 18.703125 
L 17.828125 18.703125 
L 11.1875 0 
L 0.78125 0 
z
" id="DejaVuSans-65"/>
     <path d="M 45.40625 46.390625 
L 45.40625 75.984375 
L 54.390625 75.984375 
L 54.390625 0 
L 45.40625 0 
L 45.40625 8.203125 
Q 42.578125 3.328125 38.25 0.953125 
Q 33.9375 -1.421875 27.875 -1.421875 
Q 17.96875 -1.421875 11.734375 6.484375 
Q 5.515625 14.40625 5.515625 27.296875 
Q 5.515625 40.1875 11.734375 48.09375 
Q 17.96875 56 27.875 56 
Q 33.9375 56 38.25 53.625 
Q 42.578125 51.265625 45.40625 46.390625 
z
M 14.796875 27.296875 
Q 14.796875 17.390625 18.875 11.75 
Q 22.953125 6.109375 30.078125 6.109375 
Q 37.203125 6.109375 41.296875 11.75 
Q 45.40625 17.390625 45.40625 27.296875 
Q 45.40625 37.203125 41.296875 42.84375 
Q 37.203125 48.484375 30.078125 48.484375 
Q 22.953125 48.484375 18.875 42.84375 
Q 14.796875 37.203125 14.796875 27.296875 
z
" id="DejaVuSans-100"/>
     <path d="M 10.984375 1.515625 
L 10.984375 10.5 
Q 14.703125 8.734375 18.5 7.8125 
Q 22.3125 6.890625 25.984375 6.890625 
Q 35.75 6.890625 40.890625 13.453125 
Q 46.046875 20.015625 46.78125 33.40625 
Q 43.953125 29.203125 39.59375 26.953125 
Q 35.25 24.703125 29.984375 24.703125 
Q 19.046875 24.703125 12.671875 31.3125 
Q 6.296875 37.9375 6.296875 49.421875 
Q 6.296875 60.640625 12.9375 67.421875 
Q 19.578125 74.21875 30.609375 74.21875 
Q 43.265625 74.21875 49.921875 64.515625 
Q 56.59375 54.828125 56.59375 36.375 
Q 56.59375 19.140625 48.40625 8.859375 
Q 40.234375 -1.421875 26.421875 -1.421875 
Q 22.703125 -1.421875 18.890625 -0.6875 
Q 15.09375 0.046875 10.984375 1.515625 
z
M 30.609375 32.421875 
Q 37.25 32.421875 41.125 36.953125 
Q 45.015625 41.5 45.015625 49.421875 
Q 45.015625 57.28125 41.125 61.84375 
Q 37.25 66.40625 30.609375 66.40625 
Q 23.96875 66.40625 20.09375 61.84375 
Q 16.21875 57.28125 16.21875 49.421875 
Q 16.21875 41.5 20.09375 36.953125 
Q 23.96875 32.421875 30.609375 32.421875 
z
" id="DejaVuSans-57"/>
    </defs>
    <g transform="translate(115.295313 20.88)scale(0.12 -0.12)">
     <use xlink:href="#DejaVuSans-72"/>
     <use x="75.195312" xlink:href="#DejaVuSans-105"/>
     <use x="102.978516" xlink:href="#DejaVuSans-112"/>
     <use x="166.455078" xlink:href="#DejaVuSans-112"/>
     <use x="229.931641" xlink:href="#DejaVuSans-111"/>
     <use x="291.113281" xlink:href="#DejaVuSans-99"/>
     <use x="346.09375" xlink:href="#DejaVuSans-97"/>
     <use x="407.373047" xlink:href="#DejaVuSans-109"/>
     <use x="504.785156" xlink:href="#DejaVuSans-112"/>
     <use x="568.261719" xlink:href="#DejaVuSans-117"/>
     <use x="631.640625" xlink:href="#DejaVuSans-115"/>
     <use x="683.740234" xlink:href="#DejaVuSans-44"/>
     <use x="715.527344" xlink:href="#DejaVuSans-32"/>
     <use x="747.314453" xlink:href="#DejaVuSans-78"/>
     <use x="822.119141" xlink:href="#DejaVuSans-117"/>
     <use x="885.498047" xlink:href="#DejaVuSans-109"/>
     <use x="982.910156" xlink:href="#DejaVuSans-32"/>
     <use x="1014.697266" xlink:href="#DejaVuSans-84"/>
     <use x="1075.5625" xlink:href="#DejaVuSans-114"/>
     <use x="1116.675781" xlink:href="#DejaVuSans-105"/>
     <use x="1144.458984" xlink:href="#DejaVuSans-97"/>
     <use x="1205.738281" xlink:href="#DejaVuSans-108"/>
     <use x="1233.521484" xlink:href="#DejaVuSans-115"/>
     <use x="1285.621094" xlink:href="#DejaVuSans-61"/>
     <use x="1369.410156" xlink:href="#DejaVuSans-49"/>
     <use x="1433.033203" xlink:href="#DejaVuSans-54"/>
     <use x="1496.65625" xlink:href="#DejaVuSans-48"/>
     <use x="1560.279297" xlink:href="#DejaVuSans-32"/>
     <use x="1592.066406" xlink:href="#DejaVuSans-65"/>
     <use x="1660.474609" xlink:href="#DejaVuSans-108"/>
     <use x="1688.257812" xlink:href="#DejaVuSans-108"/>
     <use x="1716.041016" xlink:href="#DejaVuSans-32"/>
     <use x="1747.828125" xlink:href="#DejaVuSans-115"/>
     <use x="1799.927734" xlink:href="#DejaVuSans-116"/>
     <use x="1839.136719" xlink:href="#DejaVuSans-105"/>
     <use x="1866.919922" xlink:href="#DejaVuSans-109"/>
     <use x="1964.332031" xlink:href="#DejaVuSans-117"/>
     <use x="2027.710938" xlink:href="#DejaVuSans-108"/>
     <use x="2055.494141" xlink:href="#DejaVuSans-97"/>
     <use x="2116.773438" xlink:href="#DejaVuSans-116"/>
     <use x="2155.982422" xlink:href="#DejaVuSans-101"/>
     <use x="2217.505859" xlink:href="#DejaVuSans-100"/>
     <use x="2280.982422" xlink:href="#DejaVuSans-32"/>
     <use x="2312.769531" xlink:href="#DejaVuSans-116"/>
     <use x="2351.978516" xlink:href="#DejaVuSans-114"/>
     <use x="2393.091797" xlink:href="#DejaVuSans-105"/>
     <use x="2420.875" xlink:href="#DejaVuSans-97"/>
     <use x="2482.154297" xlink:href="#DejaVuSans-108"/>
     <use x="2509.9375" xlink:href="#DejaVuSans-115"/>
     <use x="2562.037109" xlink:href="#DejaVuSans-44"/>
     <use x="2593.824219" xlink:href="#DejaVuSans-32"/>
     <use x="2625.611328" xlink:href="#DejaVuSans-78"/>
     <use x="2700.416016" xlink:href="#DejaVuSans-117"/>
     <use x="2763.794922" xlink:href="#DejaVuSans-109"/>
     <use x="2861.207031" xlink:href="#DejaVuSans-32"/>
     <use x="2892.994141" xlink:href="#DejaVuSans-99"/>
     <use x="2947.974609" xlink:href="#DejaVuSans-101"/>
     <use x="3009.498047" xlink:href="#DejaVuSans-108"/>
     <use x="3037.28125" xlink:href="#DejaVuSans-108"/>
     <use x="3065.064453" xlink:href="#DejaVuSans-115"/>
     <use x="3117.164062" xlink:href="#DejaVuSans-32"/>
     <use x="3148.951172" xlink:href="#DejaVuSans-61"/>
     <use x="3232.740234" xlink:href="#DejaVuSans-32"/>
     <use x="3264.527344" xlink:href="#DejaVuSans-49"/>
     <use x="3328.150391" xlink:href="#DejaVuSans-54"/>
     <use x="3391.773438" xlink:href="#DejaVuSans-57"/>
    </g>
   </g>
   <g id="legend_1">
    <g id="patch_7">
     <path d="M 88.43 168.76 
L 222.59 168.76 
Q 224.99 168.76 224.99 166.36 
L 224.99 132.30625 
Q 224.99 129.90625 222.59 129.90625 
L 88.43 129.90625 
Q 86.03 129.90625 86.03 132.30625 
L 86.03 166.36 
Q 86.03 168.76 88.43 168.76 
z
" style="fill:#ffffff;opacity:0.8;stroke:#cccccc;stroke-linejoin:miter;"/>
    </g>
    <g id="line2d_12">
     <path d="M 90.83 139.62625 
L 114.83 139.62625 
" style="fill:none;stroke:#0000ff;stroke-linecap:square;stroke-width:1.5;"/>
    </g>
    <g id="line2d_13"/>
    <g id="text_14">
     <!-- Beta-Binomial $\rho$ -->
     <g transform="translate(124.43 143.82625)scale(0.12 -0.12)">
      <use transform="translate(0 0.015625)" xlink:href="#DejaVuSans-66"/>
      <use transform="translate(68.603516 0.015625)" xlink:href="#DejaVuSans-101"/>
      <use transform="translate(130.126953 0.015625)" xlink:href="#DejaVuSans-116"/>
      <use transform="translate(169.335938 0.015625)" xlink:href="#DejaVuSans-97"/>
      <use transform="translate(230.615234 0.015625)" xlink:href="#DejaVuSans-45"/>
      <use transform="translate(266.699219 0.015625)" xlink:href="#DejaVuSans-66"/>
      <use transform="translate(335.302734 0.015625)" xlink:href="#DejaVuSans-105"/>
      <use transform="translate(363.085938 0.015625)" xlink:href="#DejaVuSans-110"/>
      <use transform="translate(426.464844 0.015625)" xlink:href="#DejaVuSans-111"/>
      <use transform="translate(487.646484 0.015625)" xlink:href="#DejaVuSans-109"/>
      <use transform="translate(585.058594 0.015625)" xlink:href="#DejaVuSans-105"/>
      <use transform="translate(612.841797 0.015625)" xlink:href="#DejaVuSans-97"/>
      <use transform="translate(674.121094 0.015625)" xlink:href="#DejaVuSans-108"/>
      <use transform="translate(701.904297 0.015625)" xlink:href="#DejaVuSans-32"/>
      <use transform="translate(733.691406 0.015625)" xlink:href="#DejaVuSans-Oblique-961"/>
     </g>
    </g>
    <g id="patch_8">
     <path d="M 90.83 161.464375 
L 114.83 161.464375 
L 114.83 153.064375 
L 90.83 153.064375 
z
" style="fill:#0000ff;opacity:0.3;stroke:#0000ff;stroke-linejoin:miter;"/>
    </g>
    <g id="text_15">
     <!-- Std. Err. -->
     <defs>
      <path d="M 53.515625 70.515625 
L 53.515625 60.890625 
Q 47.90625 63.578125 42.921875 64.890625 
Q 37.9375 66.21875 33.296875 66.21875 
Q 25.25 66.21875 20.875 63.09375 
Q 16.5 59.96875 16.5 54.203125 
Q 16.5 49.359375 19.40625 46.890625 
Q 22.3125 44.4375 30.421875 42.921875 
L 36.375 41.703125 
Q 47.40625 39.59375 52.65625 34.296875 
Q 57.90625 29 57.90625 20.125 
Q 57.90625 9.515625 50.796875 4.046875 
Q 43.703125 -1.421875 29.984375 -1.421875 
Q 24.8125 -1.421875 18.96875 -0.25 
Q 13.140625 0.921875 6.890625 3.21875 
L 6.890625 13.375 
Q 12.890625 10.015625 18.65625 8.296875 
Q 24.421875 6.59375 29.984375 6.59375 
Q 38.421875 6.59375 43.015625 9.90625 
Q 47.609375 13.234375 47.609375 19.390625 
Q 47.609375 24.75 44.3125 27.78125 
Q 41.015625 30.8125 33.5 32.328125 
L 27.484375 33.5 
Q 16.453125 35.6875 11.515625 40.375 
Q 6.59375 45.0625 6.59375 53.421875 
Q 6.59375 63.09375 13.40625 68.65625 
Q 20.21875 74.21875 32.171875 74.21875 
Q 37.3125 74.21875 42.625 73.28125 
Q 47.953125 72.359375 53.515625 70.515625 
z
" id="DejaVuSans-83"/>
      <path d="M 9.8125 72.90625 
L 55.90625 72.90625 
L 55.90625 64.59375 
L 19.671875 64.59375 
L 19.671875 43.015625 
L 54.390625 43.015625 
L 54.390625 34.71875 
L 19.671875 34.71875 
L 19.671875 8.296875 
L 56.78125 8.296875 
L 56.78125 0 
L 9.8125 0 
z
" id="DejaVuSans-69"/>
     </defs>
     <g transform="translate(124.43 161.464375)scale(0.12 -0.12)">
      <use xlink:href="#DejaVuSans-83"/>
      <use x="63.476562" xlink:href="#DejaVuSans-116"/>
      <use x="102.685547" xlink:href="#DejaVuSans-100"/>
      <use x="166.162109" xlink:href="#DejaVuSans-46"/>
      <use x="197.949219" xlink:href="#DejaVuSans-32"/>
      <use x="229.736328" xlink:href="#DejaVuSans-69"/>
      <use x="292.919922" xlink:href="#DejaVuSans-114"/>
      <use x="334.017578" xlink:href="#DejaVuSans-114"/>
      <use x="374.990234" xlink:href="#DejaVuSans-46"/>
     </g>
    </g>
   </g>
  </g>
 </g>
 <defs>
  <clipPath id="p31d6766cee">
   <rect height="147.88" width="485.17" x="80.03" y="26.88"/>
  </clipPath>
 </defs>
</svg>
