<?xml version="1.0" encoding="utf-8" standalone="no"?>
<!DOCTYPE svg PUBLIC "-//W3C//DTD SVG 1.1//EN"
  "http://www.w3.org/Graphics/SVG/1.1/DTD/svg11.dtd">
<!-- Created with matplotlib (https://matplotlib.org/) -->
<svg height="223.2pt" version="1.1" viewBox="0 0 576 223.2" width="576pt" xmlns="http://www.w3.org/2000/svg" xmlns:xlink="http://www.w3.org/1999/xlink">
 <defs>
  <style type="text/css">
*{stroke-linecap:butt;stroke-linejoin:round;}
  </style>
 </defs>
 <g id="figure_1">
  <g id="patch_1">
   <path d="M 0 223.2 
L 576 223.2 
L 576 0 
L 0 0 
z
" style="fill:#ffffff;"/>
  </g>
  <g id="axes_1">
   <g id="patch_2">
    <path d="M 87.68 174.76 
L 565.2 174.76 
L 565.2 26.88 
L 87.68 26.88 
z
" style="fill:#ffffff;"/>
   </g>
   <g id="PolyCollection_1">
    <defs>
     <path d="M 146.243774 -48.44 
L 146.243774 -196.32 
L 416.538113 -196.32 
L 416.538113 -48.44 
L 416.538113 -48.44 
L 146.243774 -48.44 
z
" id="m9e6da717e0" style="stroke:#808080;stroke-opacity:0.3;"/>
    </defs>
    <g clip-path="url(#p8082eb2ce3)">
     <use style="fill:#808080;fill-opacity:0.3;stroke:#808080;stroke-opacity:0.3;" x="0" xlink:href="#m9e6da717e0" y="223.2"/>
    </g>
   </g>
   <g id="PolyCollection_2">
    <defs>
     <path d="M 87.68 -155.2636 
L 87.68 -145.964295 
L 89.481962 -140.015037 
L 91.283925 -118.219198 
L 93.085887 -139.442198 
L 94.887849 -132.908455 
L 96.689811 -139.533964 
L 98.491774 -130.125516 
L 100.293736 -141.179798 
L 102.095698 -129.873091 
L 103.89766 -116.765134 
L 105.699623 -130.986723 
L 107.501585 -115.800079 
L 109.303547 -118.02674 
L 111.105509 -148.953675 
L 112.907472 -125.621788 
L 114.709434 -141.917445 
L 116.511396 -139.31236 
L 118.313358 -120.162737 
L 120.115321 -131.171029 
L 121.917283 -134.453073 
L 123.719245 -127.018186 
L 125.521208 -130.333054 
L 127.32317 -111.894735 
L 129.125132 -125.07647 
L 130.927094 -137.353699 
L 132.729057 -124.565192 
L 134.531019 -133.917046 
L 136.332981 -132.709787 
L 138.134943 -121.970891 
L 139.936906 -135.278067 
L 141.738868 -121.046526 
L 143.54083 -131.218815 
L 145.342792 -151.886978 
L 147.144755 -130.271505 
L 148.946717 -150.954411 
L 150.748679 -145.163009 
L 152.550642 -125.223436 
L 154.352604 -133.24073 
L 156.154566 -122.899424 
L 157.956528 -122.70973 
L 159.758491 -121.562866 
L 161.560453 -113.422823 
L 163.362415 -135.348567 
L 165.164377 -127.90674 
L 166.96634 -122.399902 
L 168.768302 -128.818158 
L 170.570264 -120.556145 
L 172.372226 -101.785535 
L 174.174189 -128.943778 
L 175.976151 -125.652853 
L 177.778113 -124.690326 
L 179.580075 -118.191781 
L 181.382038 -142.89477 
L 183.184 -133.877474 
L 184.985962 -134.334031 
L 186.787925 -126.961122 
L 188.589887 -133.185239 
L 190.391849 -137.234618 
L 192.193811 -125.171437 
L 193.995774 -143.3328 
L 195.797736 -123.70505 
L 197.599698 -133.206333 
L 199.40166 -151.005826 
L 201.203623 -127.040985 
L 203.005585 -115.712794 
L 204.807547 -150.128401 
L 206.609509 -132.790469 
L 208.411472 -115.180814 
L 210.213434 -127.713162 
L 212.015396 -126.596053 
L 213.817358 -140.720049 
L 215.619321 -144.677438 
L 217.421283 -118.83443 
L 219.223245 -125.170075 
L 221.025208 -135.237235 
L 222.82717 -116.632858 
L 224.629132 -118.897874 
L 226.431094 -129.885154 
L 228.233057 -103.270206 
L 230.035019 -120.06614 
L 231.836981 -109.477875 
L 233.638943 -130.91682 
L 235.440906 -116.817926 
L 237.242868 -125.176022 
L 239.04483 -128.936544 
L 240.846792 -127.173808 
L 242.648755 -112.876818 
L 244.450717 -122.11534 
L 246.252679 -114.865169 
L 248.054642 -112.958665 
L 249.856604 -106.286951 
L 251.658566 -112.868462 
L 253.460528 -125.060807 
L 255.262491 -119.579037 
L 257.064453 -108.12198 
L 258.866415 -101.11509 
L 260.668377 -96.114498 
L 262.47034 -100.244297 
L 264.272302 -124.158938 
L 266.074264 -127.272245 
L 267.876226 -124.352265 
L 269.678189 -93.025683 
L 271.480151 -106.779218 
L 273.282113 -123.734852 
L 275.084075 -107.620297 
L 276.886038 -111.867468 
L 278.688 -113.570822 
L 280.489962 -117.700717 
L 282.291925 -117.357134 
L 284.093887 -108.958502 
L 285.895849 -118.959324 
L 287.697811 -134.549274 
L 289.499774 -127.63737 
L 291.301736 -124.723999 
L 293.103698 -120.855195 
L 294.90566 -120.94396 
L 296.707623 -119.933449 
L 298.509585 -142.546934 
L 300.311547 -127.471045 
L 302.113509 -138.966017 
L 303.915472 -138.497537 
L 305.717434 -132.749416 
L 307.519396 -137.266556 
L 309.321358 -118.526755 
L 311.123321 -128.396863 
L 312.925283 -148.516799 
L 314.727245 -134.016699 
L 316.529208 -146.013002 
L 318.33117 -133.22633 
L 320.133132 -144.25792 
L 321.935094 -127.945183 
L 323.737057 -124.299048 
L 325.539019 -133.018139 
L 327.340981 -124.325389 
L 329.142943 -123.601286 
L 330.944906 -131.424554 
L 332.746868 -119.454063 
L 334.54883 -129.270396 
L 336.350792 -141.300421 
L 338.152755 -150.485311 
L 339.954717 -116.934449 
L 341.756679 -118.789842 
L 343.558642 -142.620701 
L 345.360604 -112.689473 
L 347.162566 -87.153593 
L 348.964528 -101.512767 
L 350.766491 -109.627438 
L 352.568453 -109.810595 
L 354.370415 -92.26914 
L 356.172377 -124.781902 
L 357.97434 -107.324748 
L 359.776302 -113.663745 
L 361.578264 -99.148826 
L 363.380226 -85.457598 
L 365.182189 -125.56774 
L 366.984151 -114.846359 
L 368.786113 -96.063777 
L 370.588075 -104.578705 
L 372.390038 -111.248436 
L 374.192 -84.923531 
L 375.993962 -96.419733 
L 377.795925 -96.842311 
L 379.597887 -98.575909 
L 381.399849 -104.973908 
L 383.201811 -124.194709 
L 385.003774 -122.998202 
L 386.805736 -107.278171 
L 388.607698 -116.203212 
L 390.40966 -116.509336 
L 392.211623 -130.712513 
L 394.013585 -105.967505 
L 395.815547 -136.824523 
L 397.617509 -115.261405 
L 399.419472 -111.886535 
L 401.221434 -119.873628 
L 403.023396 -111.203762 
L 404.825358 -115.434126 
L 406.627321 -119.679873 
L 408.429283 -121.931703 
L 410.231245 -120.913236 
L 412.033208 -130.211874 
L 413.83517 -147.953065 
L 415.637132 -128.036323 
L 417.439094 -137.723396 
L 419.241057 -130.706108 
L 421.043019 -128.275695 
L 422.844981 -142.327149 
L 424.646943 -128.392124 
L 426.448906 -117.060598 
L 428.250868 -125.866998 
L 430.05283 -143.177994 
L 431.854792 -132.610556 
L 433.656755 -137.548971 
L 435.458717 -129.504128 
L 437.260679 -132.031269 
L 439.062642 -112.657448 
L 440.864604 -117.583389 
L 442.666566 -126.729642 
L 444.468528 -116.588107 
L 446.270491 -121.659168 
L 448.072453 -135.627694 
L 449.874415 -119.265726 
L 451.676377 -110.556245 
L 453.47834 -120.724163 
L 455.280302 -131.521671 
L 457.082264 -114.067016 
L 458.884226 -109.800204 
L 460.686189 -112.546051 
L 462.488151 -119.300251 
L 464.290113 -129.061214 
L 466.092075 -140.412302 
L 467.894038 -103.893705 
L 469.696 -116.106658 
L 471.497962 -126.150285 
L 473.299925 -113.837813 
L 475.101887 -115.586504 
L 476.903849 -115.704503 
L 478.705811 -123.89024 
L 480.507774 -112.458974 
L 482.309736 -131.145561 
L 484.111698 -101.942382 
L 485.91366 -112.1462 
L 487.715623 -112.804169 
L 489.517585 -110.642805 
L 491.319547 -99.84218 
L 493.121509 -110.457287 
L 494.923472 -106.283655 
L 496.725434 -106.229878 
L 498.527396 -108.890429 
L 500.329358 -101.886245 
L 502.131321 -105.623256 
L 503.933283 -104.203874 
L 505.735245 -106.858569 
L 507.537208 -116.970968 
L 509.33917 -103.115141 
L 511.141132 -126.456908 
L 512.943094 -108.439479 
L 514.745057 -125.727342 
L 516.547019 -141.07403 
L 518.348981 -119.83076 
L 520.150943 -128.005597 
L 521.952906 -112.785044 
L 523.754868 -105.359592 
L 525.55683 -108.237285 
L 527.358792 -115.910466 
L 529.160755 -124.378045 
L 530.962717 -102.426474 
L 532.764679 -91.671998 
L 534.566642 -129.439543 
L 536.368604 -120.655711 
L 538.170566 -109.444068 
L 539.972528 -117.382521 
L 541.774491 -107.424124 
L 543.576453 -141.200243 
L 545.378415 -112.593128 
L 547.180377 -131.131481 
L 548.98234 -132.563179 
L 550.784302 -125.915618 
L 552.586264 -113.439971 
L 554.388226 -108.269865 
L 556.190189 -110.40539 
L 557.992151 -132.579978 
L 559.794113 -111.237774 
L 561.596075 -125.085018 
L 563.398038 -110.744042 
L 565.2 -135.557392 
L 565.2 -161.106463 
L 565.2 -161.106463 
L 563.398038 -135.062011 
L 561.596075 -153.182332 
L 559.794113 -138.539023 
L 557.992151 -152.780034 
L 556.190189 -138.429227 
L 554.388226 -129.61532 
L 552.586264 -141.360934 
L 550.784302 -144.998865 
L 548.98234 -157.839902 
L 547.180377 -147.53532 
L 545.378415 -139.468578 
L 543.576453 -161.908209 
L 541.774491 -140.969987 
L 539.972528 -137.712655 
L 538.170566 -130.33611 
L 536.368604 -153.625945 
L 534.566642 -155.546663 
L 532.764679 -119.37788 
L 530.962717 -123.76709 
L 529.160755 -149.320689 
L 527.358792 -138.079545 
L 525.55683 -135.971627 
L 523.754868 -132.757049 
L 521.952906 -138.07857 
L 520.150943 -144.315795 
L 518.348981 -145.31165 
L 516.547019 -160.055009 
L 514.745057 -139.880795 
L 512.943094 -130.198182 
L 511.141132 -144.356752 
L 509.33917 -122.204616 
L 507.537208 -134.739122 
L 505.735245 -124.746761 
L 503.933283 -125.057735 
L 502.131321 -130.809453 
L 500.329358 -112.645223 
L 498.527396 -127.403067 
L 496.725434 -130.651218 
L 494.923472 -132.753651 
L 493.121509 -133.988789 
L 491.319547 -124.998366 
L 489.517585 -133.084943 
L 487.715623 -127.770081 
L 485.91366 -136.344646 
L 484.111698 -128.652658 
L 482.309736 -146.038496 
L 480.507774 -125.867314 
L 478.705811 -156.781362 
L 476.903849 -140.690708 
L 475.101887 -142.226339 
L 473.299925 -140.415002 
L 471.497962 -146.200117 
L 469.696 -143.880108 
L 467.894038 -131.247431 
L 466.092075 -166.679554 
L 464.290113 -150.672576 
L 462.488151 -147.072906 
L 460.686189 -139.029867 
L 458.884226 -142.720666 
L 457.082264 -146.636335 
L 455.280302 -163.623765 
L 453.47834 -150.178569 
L 451.676377 -143.879401 
L 449.874415 -147.191088 
L 448.072453 -153.419276 
L 446.270491 -148.999481 
L 444.468528 -146.90692 
L 442.666566 -155.736589 
L 440.864604 -153.996661 
L 439.062642 -152.423848 
L 437.260679 -172.236022 
L 435.458717 -173.041217 
L 433.656755 -179.030965 
L 431.854792 -182.047405 
L 430.05283 -193.590594 
L 428.250868 -177.035495 
L 426.448906 -176.040975 
L 424.646943 -175.530699 
L 422.844981 -184.989339 
L 421.043019 -166.506694 
L 419.241057 -173.594498 
L 417.439094 -174.722485 
L 415.637132 -176.295731 
L 413.83517 -173.340631 
L 412.033208 -160.260622 
L 410.231245 -160.751153 
L 408.429283 -155.949594 
L 406.627321 -155.564627 
L 404.825358 -142.226496 
L 403.023396 -145.167847 
L 401.221434 -151.946825 
L 399.419472 -141.996869 
L 397.617509 -132.507188 
L 395.815547 -158.108543 
L 394.013585 -138.911093 
L 392.211623 -162.006616 
L 390.40966 -146.624046 
L 388.607698 -142.146921 
L 386.805736 -134.40315 
L 385.003774 -147.139262 
L 383.201811 -139.991859 
L 381.399849 -131.835823 
L 379.597887 -124.410417 
L 377.795925 -121.832445 
L 375.993962 -116.749997 
L 374.192 -110.697787 
L 372.390038 -134.910026 
L 370.588075 -130.664545 
L 368.786113 -117.674639 
L 366.984151 -141.372243 
L 365.182189 -151.779776 
L 363.380226 -107.597491 
L 361.578264 -115.593734 
L 359.776302 -130.000645 
L 357.97434 -135.369502 
L 356.172377 -152.957115 
L 354.370415 -116.319006 
L 352.568453 -131.087912 
L 350.766491 -126.055464 
L 348.964528 -124.169448 
L 347.162566 -114.057236 
L 345.360604 -135.332021 
L 343.558642 -169.432119 
L 341.756679 -142.53783 
L 339.954717 -144.809663 
L 338.152755 -177.857116 
L 336.350792 -167.623905 
L 334.54883 -170.91105 
L 332.746868 -165.659827 
L 330.944906 -172.615133 
L 329.142943 -168.790466 
L 327.340981 -184.46356 
L 325.539019 -182.610374 
L 323.737057 -177.608477 
L 321.935094 -181.879299 
L 320.133132 -195.803066 
L 318.33117 -192.075846 
L 316.529208 -192.373682 
L 314.727245 -175.657499 
L 312.925283 -187.205951 
L 311.123321 -171.084204 
L 309.321358 -164.80203 
L 307.519396 -185.13294 
L 305.717434 -182.342342 
L 303.915472 -186.507061 
L 302.113509 -187.405353 
L 300.311547 -171.413226 
L 298.509585 -170.303119 
L 296.707623 -144.94009 
L 294.90566 -137.192186 
L 293.103698 -148.415515 
L 291.301736 -148.853037 
L 289.499774 -158.599724 
L 287.697811 -160.007427 
L 285.895849 -145.72566 
L 284.093887 -147.020914 
L 282.291925 -150.319879 
L 280.489962 -144.251421 
L 278.688 -139.982654 
L 276.886038 -142.395066 
L 275.084075 -138.135551 
L 273.282113 -148.09558 
L 271.480151 -123.594721 
L 269.678189 -115.240579 
L 267.876226 -141.98451 
L 266.074264 -142.14054 
L 264.272302 -140.877517 
L 262.47034 -120.141832 
L 260.668377 -113.837729 
L 258.866415 -124.547091 
L 257.064453 -131.627521 
L 255.262491 -129.220599 
L 253.460528 -142.06178 
L 251.658566 -131.190484 
L 249.856604 -134.368758 
L 248.054642 -135.036269 
L 246.252679 -131.113878 
L 244.450717 -149.342166 
L 242.648755 -143.417187 
L 240.846792 -162.457024 
L 239.04483 -163.894087 
L 237.242868 -164.467492 
L 235.440906 -156.573668 
L 233.638943 -168.795242 
L 231.836981 -155.496753 
L 230.035019 -167.417712 
L 228.233057 -152.073671 
L 226.431094 -172.33071 
L 224.629132 -155.88806 
L 222.82717 -154.945416 
L 221.025208 -177.157411 
L 219.223245 -167.214727 
L 217.421283 -152.583031 
L 215.619321 -179.979318 
L 213.817358 -169.748303 
L 212.015396 -156.391519 
L 210.213434 -161.566156 
L 208.411472 -144.352193 
L 206.609509 -158.592017 
L 204.807547 -177.358849 
L 203.005585 -149.988198 
L 201.203623 -153.819248 
L 199.40166 -171.44967 
L 197.599698 -162.912435 
L 195.797736 -146.642377 
L 193.995774 -163.770648 
L 192.193811 -150.306083 
L 190.391849 -159.315851 
L 188.589887 -161.975287 
L 186.787925 -148.327534 
L 184.985962 -157.191883 
L 183.184 -155.637946 
L 181.382038 -166.240218 
L 179.580075 -154.080951 
L 177.778113 -151.480873 
L 175.976151 -151.869064 
L 174.174189 -154.376953 
L 172.372226 -131.694615 
L 170.570264 -153.463631 
L 168.768302 -154.664612 
L 166.96634 -149.113053 
L 165.164377 -151.612836 
L 163.362415 -156.519454 
L 161.560453 -136.852771 
L 159.758491 -150.290175 
L 157.956528 -145.002277 
L 156.154566 -143.290761 
L 154.352604 -153.074231 
L 152.550642 -151.573859 
L 150.748679 -177.71652 
L 148.946717 -187.880577 
L 147.144755 -161.270766 
L 145.342792 -188.017986 
L 143.54083 -179.31168 
L 141.738868 -178.789175 
L 139.936906 -190.563056 
L 138.134943 -177.696327 
L 136.332981 -192.91599 
L 134.531019 -195.357693 
L 132.729057 -190.353137 
L 130.927094 -196.32 
L 129.125132 -186.962831 
L 127.32317 -177.265363 
L 125.521208 -191.584157 
L 123.719245 -192.954554 
L 121.917283 -187.184311 
L 120.115321 -180.692497 
L 118.313358 -172.690927 
L 116.511396 -184.012499 
L 114.709434 -182.672561 
L 112.907472 -173.807939 
L 111.105509 -185.094879 
L 109.303547 -155.382335 
L 107.501585 -141.203315 
L 105.699623 -150.648595 
L 103.89766 -142.976826 
L 102.095698 -153.681597 
L 100.293736 -161.112472 
L 98.491774 -150.22812 
L 96.689811 -156.395498 
L 94.887849 -153.132515 
L 93.085887 -166.607161 
L 91.283925 -149.444911 
L 89.481962 -150.744642 
L 87.68 -155.2636 
z
" id="m3e3a4631cf" style="stroke:#0000ff;stroke-opacity:0.3;"/>
    </defs>
    <g clip-path="url(#p8082eb2ce3)">
     <use style="fill:#0000ff;fill-opacity:0.3;stroke:#0000ff;stroke-opacity:0.3;" x="0" xlink:href="#m3e3a4631cf" y="223.2"/>
    </g>
   </g>
   <g id="matplotlib.axis_1">
    <g id="xtick_1">
     <g id="line2d_1">
      <defs>
       <path d="M 0 0 
L 0 3.5 
" id="m6b8e7241ba" style="stroke:#000000;stroke-width:0.8;"/>
      </defs>
      <g>
       <use style="stroke:#000000;stroke-width:0.8;" x="146.243774" xlink:href="#m6b8e7241ba" y="174.76"/>
      </g>
     </g>
     <g id="text_1">
      <!-- 0.0 -->
      <defs>
       <path d="M 31.78125 66.40625 
Q 24.171875 66.40625 20.328125 58.90625 
Q 16.5 51.421875 16.5 36.375 
Q 16.5 21.390625 20.328125 13.890625 
Q 24.171875 6.390625 31.78125 6.390625 
Q 39.453125 6.390625 43.28125 13.890625 
Q 47.125 21.390625 47.125 36.375 
Q 47.125 51.421875 43.28125 58.90625 
Q 39.453125 66.40625 31.78125 66.40625 
z
M 31.78125 74.21875 
Q 44.046875 74.21875 50.515625 64.515625 
Q 56.984375 54.828125 56.984375 36.375 
Q 56.984375 17.96875 50.515625 8.265625 
Q 44.046875 -1.421875 31.78125 -1.421875 
Q 19.53125 -1.421875 13.0625 8.265625 
Q 6.59375 17.96875 6.59375 36.375 
Q 6.59375 54.828125 13.0625 64.515625 
Q 19.53125 74.21875 31.78125 74.21875 
z
" id="DejaVuSans-48"/>
       <path d="M 10.6875 12.40625 
L 21 12.40625 
L 21 0 
L 10.6875 0 
z
" id="DejaVuSans-46"/>
      </defs>
      <g transform="translate(136.701899 190.878125)scale(0.12 -0.12)">
       <use xlink:href="#DejaVuSans-48"/>
       <use x="63.623047" xlink:href="#DejaVuSans-46"/>
       <use x="95.410156" xlink:href="#DejaVuSans-48"/>
      </g>
     </g>
    </g>
    <g id="xtick_2">
     <g id="line2d_2">
      <g>
       <use style="stroke:#000000;stroke-width:0.8;" x="236.341887" xlink:href="#m6b8e7241ba" y="174.76"/>
      </g>
     </g>
     <g id="text_2">
      <!-- 0.5 -->
      <defs>
       <path d="M 10.796875 72.90625 
L 49.515625 72.90625 
L 49.515625 64.59375 
L 19.828125 64.59375 
L 19.828125 46.734375 
Q 21.96875 47.46875 24.109375 47.828125 
Q 26.265625 48.1875 28.421875 48.1875 
Q 40.625 48.1875 47.75 41.5 
Q 54.890625 34.8125 54.890625 23.390625 
Q 54.890625 11.625 47.5625 5.09375 
Q 40.234375 -1.421875 26.90625 -1.421875 
Q 22.3125 -1.421875 17.546875 -0.640625 
Q 12.796875 0.140625 7.71875 1.703125 
L 7.71875 11.625 
Q 12.109375 9.234375 16.796875 8.0625 
Q 21.484375 6.890625 26.703125 6.890625 
Q 35.15625 6.890625 40.078125 11.328125 
Q 45.015625 15.765625 45.015625 23.390625 
Q 45.015625 31 40.078125 35.4375 
Q 35.15625 39.890625 26.703125 39.890625 
Q 22.75 39.890625 18.8125 39.015625 
Q 14.890625 38.140625 10.796875 36.28125 
z
" id="DejaVuSans-53"/>
      </defs>
      <g transform="translate(226.800012 190.878125)scale(0.12 -0.12)">
       <use xlink:href="#DejaVuSans-48"/>
       <use x="63.623047" xlink:href="#DejaVuSans-46"/>
       <use x="95.410156" xlink:href="#DejaVuSans-53"/>
      </g>
     </g>
    </g>
    <g id="xtick_3">
     <g id="line2d_3">
      <g>
       <use style="stroke:#000000;stroke-width:0.8;" x="326.44" xlink:href="#m6b8e7241ba" y="174.76"/>
      </g>
     </g>
     <g id="text_3">
      <!-- 1.0 -->
      <defs>
       <path d="M 12.40625 8.296875 
L 28.515625 8.296875 
L 28.515625 63.921875 
L 10.984375 60.40625 
L 10.984375 69.390625 
L 28.421875 72.90625 
L 38.28125 72.90625 
L 38.28125 8.296875 
L 54.390625 8.296875 
L 54.390625 0 
L 12.40625 0 
z
" id="DejaVuSans-49"/>
      </defs>
      <g transform="translate(316.898125 190.878125)scale(0.12 -0.12)">
       <use xlink:href="#DejaVuSans-49"/>
       <use x="63.623047" xlink:href="#DejaVuSans-46"/>
       <use x="95.410156" xlink:href="#DejaVuSans-48"/>
      </g>
     </g>
    </g>
    <g id="xtick_4">
     <g id="line2d_4">
      <g>
       <use style="stroke:#000000;stroke-width:0.8;" x="416.538113" xlink:href="#m6b8e7241ba" y="174.76"/>
      </g>
     </g>
     <g id="text_4">
      <!-- 1.5 -->
      <g transform="translate(406.996238 190.878125)scale(0.12 -0.12)">
       <use xlink:href="#DejaVuSans-49"/>
       <use x="63.623047" xlink:href="#DejaVuSans-46"/>
       <use x="95.410156" xlink:href="#DejaVuSans-53"/>
      </g>
     </g>
    </g>
    <g id="xtick_5">
     <g id="line2d_5">
      <g>
       <use style="stroke:#000000;stroke-width:0.8;" x="506.636226" xlink:href="#m6b8e7241ba" y="174.76"/>
      </g>
     </g>
     <g id="text_5">
      <!-- 2.0 -->
      <defs>
       <path d="M 19.1875 8.296875 
L 53.609375 8.296875 
L 53.609375 0 
L 7.328125 0 
L 7.328125 8.296875 
Q 12.9375 14.109375 22.625 23.890625 
Q 32.328125 33.6875 34.8125 36.53125 
Q 39.546875 41.84375 41.421875 45.53125 
Q 43.3125 49.21875 43.3125 52.78125 
Q 43.3125 58.59375 39.234375 62.25 
Q 35.15625 65.921875 28.609375 65.921875 
Q 23.96875 65.921875 18.8125 64.3125 
Q 13.671875 62.703125 7.8125 59.421875 
L 7.8125 69.390625 
Q 13.765625 71.78125 18.9375 73 
Q 24.125 74.21875 28.421875 74.21875 
Q 39.75 74.21875 46.484375 68.546875 
Q 53.21875 62.890625 53.21875 53.421875 
Q 53.21875 48.921875 51.53125 44.890625 
Q 49.859375 40.875 45.40625 35.40625 
Q 44.1875 33.984375 37.640625 27.21875 
Q 31.109375 20.453125 19.1875 8.296875 
z
" id="DejaVuSans-50"/>
      </defs>
      <g transform="translate(497.094351 190.878125)scale(0.12 -0.12)">
       <use xlink:href="#DejaVuSans-50"/>
       <use x="63.623047" xlink:href="#DejaVuSans-46"/>
       <use x="95.410156" xlink:href="#DejaVuSans-48"/>
      </g>
     </g>
    </g>
    <g id="text_6">
     <!-- Time (s) -->
     <defs>
      <path d="M -0.296875 72.90625 
L 61.375 72.90625 
L 61.375 64.59375 
L 35.5 64.59375 
L 35.5 0 
L 25.59375 0 
L 25.59375 64.59375 
L -0.296875 64.59375 
z
" id="DejaVuSans-84"/>
      <path d="M 9.421875 54.6875 
L 18.40625 54.6875 
L 18.40625 0 
L 9.421875 0 
z
M 9.421875 75.984375 
L 18.40625 75.984375 
L 18.40625 64.59375 
L 9.421875 64.59375 
z
" id="DejaVuSans-105"/>
      <path d="M 52 44.1875 
Q 55.375 50.25 60.0625 53.125 
Q 64.75 56 71.09375 56 
Q 79.640625 56 84.28125 50.015625 
Q 88.921875 44.046875 88.921875 33.015625 
L 88.921875 0 
L 79.890625 0 
L 79.890625 32.71875 
Q 79.890625 40.578125 77.09375 44.375 
Q 74.3125 48.1875 68.609375 48.1875 
Q 61.625 48.1875 57.5625 43.546875 
Q 53.515625 38.921875 53.515625 30.90625 
L 53.515625 0 
L 44.484375 0 
L 44.484375 32.71875 
Q 44.484375 40.625 41.703125 44.40625 
Q 38.921875 48.1875 33.109375 48.1875 
Q 26.21875 48.1875 22.15625 43.53125 
Q 18.109375 38.875 18.109375 30.90625 
L 18.109375 0 
L 9.078125 0 
L 9.078125 54.6875 
L 18.109375 54.6875 
L 18.109375 46.1875 
Q 21.1875 51.21875 25.484375 53.609375 
Q 29.78125 56 35.6875 56 
Q 41.65625 56 45.828125 52.96875 
Q 50 49.953125 52 44.1875 
z
" id="DejaVuSans-109"/>
      <path d="M 56.203125 29.59375 
L 56.203125 25.203125 
L 14.890625 25.203125 
Q 15.484375 15.921875 20.484375 11.0625 
Q 25.484375 6.203125 34.421875 6.203125 
Q 39.59375 6.203125 44.453125 7.46875 
Q 49.3125 8.734375 54.109375 11.28125 
L 54.109375 2.78125 
Q 49.265625 0.734375 44.1875 -0.34375 
Q 39.109375 -1.421875 33.890625 -1.421875 
Q 20.796875 -1.421875 13.15625 6.1875 
Q 5.515625 13.8125 5.515625 26.8125 
Q 5.515625 40.234375 12.765625 48.109375 
Q 20.015625 56 32.328125 56 
Q 43.359375 56 49.78125 48.890625 
Q 56.203125 41.796875 56.203125 29.59375 
z
M 47.21875 32.234375 
Q 47.125 39.59375 43.09375 43.984375 
Q 39.0625 48.390625 32.421875 48.390625 
Q 24.90625 48.390625 20.390625 44.140625 
Q 15.875 39.890625 15.1875 32.171875 
z
" id="DejaVuSans-101"/>
      <path id="DejaVuSans-32"/>
      <path d="M 31 75.875 
Q 24.46875 64.65625 21.28125 53.65625 
Q 18.109375 42.671875 18.109375 31.390625 
Q 18.109375 20.125 21.3125 9.0625 
Q 24.515625 -2 31 -13.1875 
L 23.1875 -13.1875 
Q 15.875 -1.703125 12.234375 9.375 
Q 8.59375 20.453125 8.59375 31.390625 
Q 8.59375 42.28125 12.203125 53.3125 
Q 15.828125 64.359375 23.1875 75.875 
z
" id="DejaVuSans-40"/>
      <path d="M 44.28125 53.078125 
L 44.28125 44.578125 
Q 40.484375 46.53125 36.375 47.5 
Q 32.28125 48.484375 27.875 48.484375 
Q 21.1875 48.484375 17.84375 46.4375 
Q 14.5 44.390625 14.5 40.28125 
Q 14.5 37.15625 16.890625 35.375 
Q 19.28125 33.59375 26.515625 31.984375 
L 29.59375 31.296875 
Q 39.15625 29.25 43.1875 25.515625 
Q 47.21875 21.78125 47.21875 15.09375 
Q 47.21875 7.46875 41.1875 3.015625 
Q 35.15625 -1.421875 24.609375 -1.421875 
Q 20.21875 -1.421875 15.453125 -0.5625 
Q 10.6875 0.296875 5.421875 2 
L 5.421875 11.28125 
Q 10.40625 8.6875 15.234375 7.390625 
Q 20.0625 6.109375 24.8125 6.109375 
Q 31.15625 6.109375 34.5625 8.28125 
Q 37.984375 10.453125 37.984375 14.40625 
Q 37.984375 18.0625 35.515625 20.015625 
Q 33.0625 21.96875 24.703125 23.78125 
L 21.578125 24.515625 
Q 13.234375 26.265625 9.515625 29.90625 
Q 5.8125 33.546875 5.8125 39.890625 
Q 5.8125 47.609375 11.28125 51.796875 
Q 16.75 56 26.8125 56 
Q 31.78125 56 36.171875 55.265625 
Q 40.578125 54.546875 44.28125 53.078125 
z
" id="DejaVuSans-115"/>
      <path d="M 8.015625 75.875 
L 15.828125 75.875 
Q 23.140625 64.359375 26.78125 53.3125 
Q 30.421875 42.28125 30.421875 31.390625 
Q 30.421875 20.453125 26.78125 9.375 
Q 23.140625 -1.703125 15.828125 -13.1875 
L 8.015625 -13.1875 
Q 14.5 -2 17.703125 9.0625 
Q 20.90625 20.125 20.90625 31.390625 
Q 20.90625 42.671875 17.703125 53.65625 
Q 14.5 64.65625 8.015625 75.875 
z
" id="DejaVuSans-41"/>
     </defs>
     <g transform="translate(296.94475 208.3155)scale(0.144 -0.144)">
      <use xlink:href="#DejaVuSans-84"/>
      <use x="61.037109" xlink:href="#DejaVuSans-105"/>
      <use x="88.820312" xlink:href="#DejaVuSans-109"/>
      <use x="186.232422" xlink:href="#DejaVuSans-101"/>
      <use x="247.755859" xlink:href="#DejaVuSans-32"/>
      <use x="279.542969" xlink:href="#DejaVuSans-40"/>
      <use x="318.556641" xlink:href="#DejaVuSans-115"/>
      <use x="370.65625" xlink:href="#DejaVuSans-41"/>
     </g>
    </g>
   </g>
   <g id="matplotlib.axis_2">
    <g id="ytick_1">
     <g id="line2d_6">
      <defs>
       <path d="M 0 0 
L -3.5 0 
" id="mccc5ba9eef" style="stroke:#000000;stroke-width:0.8;"/>
      </defs>
      <g>
       <use style="stroke:#000000;stroke-width:0.8;" x="87.68" xlink:href="#mccc5ba9eef" y="174.76"/>
      </g>
     </g>
     <g id="text_7">
      <!-- 0.0000 -->
      <g transform="translate(38.69125 179.319062)scale(0.12 -0.12)">
       <use xlink:href="#DejaVuSans-48"/>
       <use x="63.623047" xlink:href="#DejaVuSans-46"/>
       <use x="95.410156" xlink:href="#DejaVuSans-48"/>
       <use x="159.033203" xlink:href="#DejaVuSans-48"/>
       <use x="222.65625" xlink:href="#DejaVuSans-48"/>
       <use x="286.279297" xlink:href="#DejaVuSans-48"/>
      </g>
     </g>
    </g>
    <g id="ytick_2">
     <g id="line2d_7">
      <g>
       <use style="stroke:#000000;stroke-width:0.8;" x="87.68" xlink:href="#mccc5ba9eef" y="133.626411"/>
      </g>
     </g>
     <g id="text_8">
      <!-- 0.0005 -->
      <g transform="translate(38.69125 138.185474)scale(0.12 -0.12)">
       <use xlink:href="#DejaVuSans-48"/>
       <use x="63.623047" xlink:href="#DejaVuSans-46"/>
       <use x="95.410156" xlink:href="#DejaVuSans-48"/>
       <use x="159.033203" xlink:href="#DejaVuSans-48"/>
       <use x="222.65625" xlink:href="#DejaVuSans-48"/>
       <use x="286.279297" xlink:href="#DejaVuSans-53"/>
      </g>
     </g>
    </g>
    <g id="ytick_3">
     <g id="line2d_8">
      <g>
       <use style="stroke:#000000;stroke-width:0.8;" x="87.68" xlink:href="#mccc5ba9eef" y="92.492822"/>
      </g>
     </g>
     <g id="text_9">
      <!-- 0.0010 -->
      <g transform="translate(38.69125 97.051885)scale(0.12 -0.12)">
       <use xlink:href="#DejaVuSans-48"/>
       <use x="63.623047" xlink:href="#DejaVuSans-46"/>
       <use x="95.410156" xlink:href="#DejaVuSans-48"/>
       <use x="159.033203" xlink:href="#DejaVuSans-48"/>
       <use x="222.65625" xlink:href="#DejaVuSans-49"/>
       <use x="286.279297" xlink:href="#DejaVuSans-48"/>
      </g>
     </g>
    </g>
    <g id="ytick_4">
     <g id="line2d_9">
      <g>
       <use style="stroke:#000000;stroke-width:0.8;" x="87.68" xlink:href="#mccc5ba9eef" y="51.359234"/>
      </g>
     </g>
     <g id="text_10">
      <!-- 0.0015 -->
      <g transform="translate(38.69125 55.918296)scale(0.12 -0.12)">
       <use xlink:href="#DejaVuSans-48"/>
       <use x="63.623047" xlink:href="#DejaVuSans-46"/>
       <use x="95.410156" xlink:href="#DejaVuSans-48"/>
       <use x="159.033203" xlink:href="#DejaVuSans-48"/>
       <use x="222.65625" xlink:href="#DejaVuSans-49"/>
       <use x="286.279297" xlink:href="#DejaVuSans-53"/>
      </g>
     </g>
    </g>
    <g id="text_11">
     <!-- Beta-bin $\rho$ -->
     <defs>
      <path d="M 19.671875 34.8125 
L 19.671875 8.109375 
L 35.5 8.109375 
Q 43.453125 8.109375 47.28125 11.40625 
Q 51.125 14.703125 51.125 21.484375 
Q 51.125 28.328125 47.28125 31.5625 
Q 43.453125 34.8125 35.5 34.8125 
z
M 19.671875 64.796875 
L 19.671875 42.828125 
L 34.28125 42.828125 
Q 41.5 42.828125 45.03125 45.53125 
Q 48.578125 48.25 48.578125 53.8125 
Q 48.578125 59.328125 45.03125 62.0625 
Q 41.5 64.796875 34.28125 64.796875 
z
M 9.8125 72.90625 
L 35.015625 72.90625 
Q 46.296875 72.90625 52.390625 68.21875 
Q 58.5 63.53125 58.5 54.890625 
Q 58.5 48.1875 55.375 44.234375 
Q 52.25 40.28125 46.1875 39.3125 
Q 53.46875 37.75 57.5 32.78125 
Q 61.53125 27.828125 61.53125 20.40625 
Q 61.53125 10.640625 54.890625 5.3125 
Q 48.25 0 35.984375 0 
L 9.8125 0 
z
" id="DejaVuSans-66"/>
      <path d="M 18.3125 70.21875 
L 18.3125 54.6875 
L 36.8125 54.6875 
L 36.8125 47.703125 
L 18.3125 47.703125 
L 18.3125 18.015625 
Q 18.3125 11.328125 20.140625 9.421875 
Q 21.96875 7.515625 27.59375 7.515625 
L 36.8125 7.515625 
L 36.8125 0 
L 27.59375 0 
Q 17.1875 0 13.234375 3.875 
Q 9.28125 7.765625 9.28125 18.015625 
L 9.28125 47.703125 
L 2.6875 47.703125 
L 2.6875 54.6875 
L 9.28125 54.6875 
L 9.28125 70.21875 
z
" id="DejaVuSans-116"/>
      <path d="M 34.28125 27.484375 
Q 23.390625 27.484375 19.1875 25 
Q 14.984375 22.515625 14.984375 16.5 
Q 14.984375 11.71875 18.140625 8.90625 
Q 21.296875 6.109375 26.703125 6.109375 
Q 34.1875 6.109375 38.703125 11.40625 
Q 43.21875 16.703125 43.21875 25.484375 
L 43.21875 27.484375 
z
M 52.203125 31.203125 
L 52.203125 0 
L 43.21875 0 
L 43.21875 8.296875 
Q 40.140625 3.328125 35.546875 0.953125 
Q 30.953125 -1.421875 24.3125 -1.421875 
Q 15.921875 -1.421875 10.953125 3.296875 
Q 6 8.015625 6 15.921875 
Q 6 25.140625 12.171875 29.828125 
Q 18.359375 34.515625 30.609375 34.515625 
L 43.21875 34.515625 
L 43.21875 35.40625 
Q 43.21875 41.609375 39.140625 45 
Q 35.0625 48.390625 27.6875 48.390625 
Q 23 48.390625 18.546875 47.265625 
Q 14.109375 46.140625 10.015625 43.890625 
L 10.015625 52.203125 
Q 14.9375 54.109375 19.578125 55.046875 
Q 24.21875 56 28.609375 56 
Q 40.484375 56 46.34375 49.84375 
Q 52.203125 43.703125 52.203125 31.203125 
z
" id="DejaVuSans-97"/>
      <path d="M 4.890625 31.390625 
L 31.203125 31.390625 
L 31.203125 23.390625 
L 4.890625 23.390625 
z
" id="DejaVuSans-45"/>
      <path d="M 48.6875 27.296875 
Q 48.6875 37.203125 44.609375 42.84375 
Q 40.53125 48.484375 33.40625 48.484375 
Q 26.265625 48.484375 22.1875 42.84375 
Q 18.109375 37.203125 18.109375 27.296875 
Q 18.109375 17.390625 22.1875 11.75 
Q 26.265625 6.109375 33.40625 6.109375 
Q 40.53125 6.109375 44.609375 11.75 
Q 48.6875 17.390625 48.6875 27.296875 
z
M 18.109375 46.390625 
Q 20.953125 51.265625 25.265625 53.625 
Q 29.59375 56 35.59375 56 
Q 45.5625 56 51.78125 48.09375 
Q 58.015625 40.1875 58.015625 27.296875 
Q 58.015625 14.40625 51.78125 6.484375 
Q 45.5625 -1.421875 35.59375 -1.421875 
Q 29.59375 -1.421875 25.265625 0.953125 
Q 20.953125 3.328125 18.109375 8.203125 
L 18.109375 0 
L 9.078125 0 
L 9.078125 75.984375 
L 18.109375 75.984375 
z
" id="DejaVuSans-98"/>
      <path d="M 54.890625 33.015625 
L 54.890625 0 
L 45.90625 0 
L 45.90625 32.71875 
Q 45.90625 40.484375 42.875 44.328125 
Q 39.84375 48.1875 33.796875 48.1875 
Q 26.515625 48.1875 22.3125 43.546875 
Q 18.109375 38.921875 18.109375 30.90625 
L 18.109375 0 
L 9.078125 0 
L 9.078125 54.6875 
L 18.109375 54.6875 
L 18.109375 46.1875 
Q 21.34375 51.125 25.703125 53.5625 
Q 30.078125 56 35.796875 56 
Q 45.21875 56 50.046875 50.171875 
Q 54.890625 44.34375 54.890625 33.015625 
z
" id="DejaVuSans-110"/>
      <path d="M 18.796875 44.921875 
Q 22.703125 49.90625 30.953125 54.296875 
Q 34.1875 56 43.0625 56 
Q 53.03125 56 57.71875 48.09375 
Q 62.40625 40.1875 59.90625 27.296875 
Q 57.375 14.40625 49.609375 6.484375 
Q 41.84375 -1.421875 31.890625 -1.421875 
Q 25.875 -1.421875 22.015625 0.984375 
Q 18.171875 3.328125 16.3125 8.203125 
L 10.640625 -20.796875 
L 1.609375 -20.796875 
L 10.890625 26.8125 
Q 13.09375 38.09375 18.796875 44.921875 
z
M 50.59375 27.296875 
Q 52.484375 37.203125 49.515625 42.875 
Q 46.53125 48.484375 39.40625 48.484375 
Q 32.28125 48.484375 27.09375 42.875 
Q 21.921875 37.203125 20.015625 27.296875 
Q 18.0625 17.390625 21.046875 11.71875 
Q 24.03125 6.109375 31.15625 6.109375 
Q 38.28125 6.109375 43.453125 11.71875 
Q 48.640625 17.390625 50.59375 27.296875 
z
" id="DejaVuSans-Oblique-961"/>
     </defs>
     <g transform="translate(31.66725 138.044)rotate(-90)scale(0.144 -0.144)">
      <use transform="translate(0 0.015625)" xlink:href="#DejaVuSans-66"/>
      <use transform="translate(68.603516 0.015625)" xlink:href="#DejaVuSans-101"/>
      <use transform="translate(130.126953 0.015625)" xlink:href="#DejaVuSans-116"/>
      <use transform="translate(169.335938 0.015625)" xlink:href="#DejaVuSans-97"/>
      <use transform="translate(230.615234 0.015625)" xlink:href="#DejaVuSans-45"/>
      <use transform="translate(266.699219 0.015625)" xlink:href="#DejaVuSans-98"/>
      <use transform="translate(330.175781 0.015625)" xlink:href="#DejaVuSans-105"/>
      <use transform="translate(357.958984 0.015625)" xlink:href="#DejaVuSans-110"/>
      <use transform="translate(421.337891 0.015625)" xlink:href="#DejaVuSans-32"/>
      <use transform="translate(453.125 0.015625)" xlink:href="#DejaVuSans-Oblique-961"/>
     </g>
    </g>
   </g>
   <g id="line2d_10">
    <path clip-path="url(#p8082eb2ce3)" d="M 87.68 72.586052 
L 89.481962 77.820161 
L 91.283925 89.367945 
L 93.085887 70.175321 
L 94.887849 80.179515 
L 96.689811 75.235269 
L 98.491774 83.023182 
L 100.293736 72.053865 
L 102.095698 81.422656 
L 103.89766 93.32902 
L 105.699623 82.382341 
L 107.501585 94.698303 
L 109.303547 86.495462 
L 111.105509 56.175723 
L 112.907472 73.485137 
L 114.709434 60.904997 
L 116.511396 61.53757 
L 118.313358 76.773168 
L 120.115321 67.268237 
L 121.917283 62.381308 
L 123.719245 63.21363 
L 125.521208 62.241394 
L 127.32317 78.619951 
L 130.927094 56.363151 
L 132.729057 65.740836 
L 134.531019 58.56263 
L 136.332981 60.387112 
L 138.134943 73.366391 
L 139.936906 60.279439 
L 141.738868 73.28215 
L 143.54083 67.934752 
L 145.342792 53.247518 
L 147.144755 77.428864 
L 148.946717 53.782506 
L 150.748679 61.760236 
L 152.550642 84.801352 
L 154.352604 80.042519 
L 156.154566 90.104907 
L 157.956528 89.343996 
L 159.758491 87.273479 
L 161.560453 98.062203 
L 163.362415 77.26599 
L 165.164377 83.440212 
L 166.96634 87.443522 
L 168.768302 81.458615 
L 170.570264 86.190112 
L 172.372226 106.459925 
L 174.174189 81.539634 
L 175.976151 84.439041 
L 177.778113 85.114401 
L 179.580075 87.063634 
L 181.382038 68.632506 
L 183.184 78.44229 
L 184.985962 77.437043 
L 186.787925 85.555672 
L 188.589887 75.619737 
L 190.391849 74.924765 
L 192.193811 85.46124 
L 193.995774 69.648276 
L 195.797736 88.026287 
L 199.40166 61.972252 
L 201.203623 82.769883 
L 203.005585 90.349504 
L 204.807547 59.456375 
L 206.609509 77.508757 
L 208.411472 93.433496 
L 210.213434 78.560341 
L 212.015396 81.706214 
L 213.817358 67.965824 
L 215.619321 60.871622 
L 217.421283 87.49127 
L 221.025208 67.002677 
L 222.82717 87.410863 
L 224.629132 85.807033 
L 226.431094 72.092068 
L 228.233057 95.528061 
L 230.035019 79.458074 
L 231.836981 90.712686 
L 233.638943 73.343969 
L 235.440906 86.504203 
L 237.242868 78.378243 
L 239.04483 76.784684 
L 240.846792 78.384584 
L 242.648755 95.052997 
L 244.450717 87.471247 
L 246.252679 100.210476 
L 248.054642 99.202533 
L 249.856604 102.872146 
L 251.658566 101.170527 
L 253.460528 89.638706 
L 255.262491 98.800182 
L 257.064453 103.325249 
L 258.866415 110.368909 
L 260.668377 118.223887 
L 262.47034 113.006935 
L 264.272302 90.681773 
L 266.074264 88.493608 
L 267.876226 90.031613 
L 269.678189 119.066869 
L 271.480151 108.013031 
L 273.282113 87.284784 
L 275.084075 100.322076 
L 276.886038 96.068733 
L 278.688 96.423262 
L 280.489962 92.223931 
L 282.291925 89.361493 
L 284.093887 95.210292 
L 285.895849 90.857508 
L 287.697811 75.921649 
L 289.499774 80.081453 
L 291.301736 86.411482 
L 293.103698 88.564645 
L 294.90566 94.131927 
L 296.707623 90.76323 
L 298.509585 66.774973 
L 300.311547 73.757865 
L 302.113509 60.014315 
L 303.915472 60.697701 
L 305.717434 65.654121 
L 307.519396 62.000252 
L 309.321358 81.535607 
L 311.123321 73.459466 
L 312.925283 55.338625 
L 314.727245 68.362901 
L 316.529208 54.006658 
L 318.33117 60.548912 
L 320.133132 53.169507 
L 321.935094 68.287759 
L 323.737057 72.246238 
L 325.539019 65.385744 
L 327.340981 68.805525 
L 329.142943 77.004124 
L 330.944906 71.180157 
L 332.746868 80.643055 
L 334.54883 73.109277 
L 336.350792 68.737837 
L 338.152755 59.028786 
L 339.954717 92.327944 
L 341.756679 92.536164 
L 343.558642 67.17359 
L 345.360604 99.189253 
L 347.162566 122.594586 
L 348.964528 110.358892 
L 350.766491 105.358549 
L 352.568453 102.750747 
L 354.370415 118.905927 
L 356.172377 84.330491 
L 357.97434 101.852875 
L 359.776302 101.367805 
L 361.578264 115.82872 
L 363.380226 126.672455 
L 365.182189 84.526242 
L 366.984151 95.090699 
L 368.786113 116.330792 
L 370.588075 105.578375 
L 372.390038 100.120769 
L 374.192 125.389341 
L 375.993962 116.615135 
L 377.795925 113.862622 
L 379.597887 111.706837 
L 381.399849 104.795134 
L 383.201811 91.106716 
L 385.003774 88.131268 
L 386.805736 102.35934 
L 388.607698 94.024933 
L 390.40966 91.633309 
L 392.211623 76.840435 
L 394.013585 100.760701 
L 395.815547 75.733467 
L 397.617509 99.315703 
L 399.419472 96.258298 
L 401.221434 87.289774 
L 403.023396 95.014196 
L 404.825358 94.369689 
L 406.627321 85.57775 
L 408.429283 84.259351 
L 410.231245 82.367806 
L 412.033208 77.963752 
L 413.83517 62.553152 
L 415.637132 71.033973 
L 417.439094 66.97706 
L 419.241057 71.049697 
L 421.043019 75.808805 
L 422.844981 59.541756 
L 424.646943 71.238588 
L 426.448906 76.649213 
L 428.250868 71.748754 
L 430.05283 54.815706 
L 431.854792 65.871019 
L 433.656755 64.910032 
L 435.458717 71.927328 
L 437.260679 71.066355 
L 439.062642 90.659352 
L 440.864604 87.409975 
L 442.666566 81.966885 
L 444.468528 91.452486 
L 446.270491 87.870676 
L 448.072453 78.676515 
L 449.874415 89.971593 
L 451.676377 95.982177 
L 453.47834 87.748634 
L 455.280302 75.627282 
L 457.082264 92.848324 
L 458.884226 96.939565 
L 460.686189 97.412041 
L 462.488151 90.013421 
L 464.290113 83.333105 
L 466.092075 69.654072 
L 467.894038 105.629432 
L 469.696 93.206617 
L 471.497962 87.024799 
L 473.299925 96.073592 
L 475.101887 94.293579 
L 476.903849 95.002394 
L 478.705811 82.864199 
L 480.507774 104.036856 
L 482.309736 84.607972 
L 484.111698 107.90248 
L 485.91366 98.954577 
L 487.715623 102.912875 
L 489.517585 101.336126 
L 491.319547 110.779727 
L 493.121509 100.976962 
L 494.923472 103.681347 
L 496.725434 104.759452 
L 498.527396 105.053252 
L 500.329358 115.934266 
L 502.131321 104.983646 
L 503.933283 108.569195 
L 505.735245 107.397335 
L 507.537208 97.344955 
L 509.33917 110.540121 
L 511.141132 87.79317 
L 512.943094 103.88117 
L 514.745057 90.395931 
L 516.547019 72.635481 
L 518.348981 90.628795 
L 520.150943 87.039304 
L 521.952906 97.768193 
L 523.754868 104.141679 
L 525.55683 101.095544 
L 527.358792 96.204995 
L 529.160755 86.350633 
L 530.962717 110.103218 
L 532.764679 117.675061 
L 534.566642 80.706897 
L 536.368604 86.059172 
L 538.170566 103.309911 
L 539.972528 95.652412 
L 541.774491 99.002944 
L 543.576453 71.645774 
L 545.378415 97.169147 
L 547.180377 83.866599 
L 548.98234 77.99846 
L 550.784302 87.742759 
L 554.388226 104.257407 
L 556.190189 98.782692 
L 557.992151 80.519994 
L 559.794113 98.311602 
L 561.596075 84.066325 
L 563.398038 100.296974 
L 565.2 74.868072 
L 565.2 74.868072 
" style="fill:none;stroke:#0000ff;stroke-linecap:square;stroke-width:1.5;"/>
   </g>
   <g id="patch_3">
    <path d="M 87.68 174.76 
L 87.68 26.88 
" style="fill:none;stroke:#000000;stroke-linecap:square;stroke-linejoin:miter;stroke-width:0.8;"/>
   </g>
   <g id="patch_4">
    <path d="M 565.2 174.76 
L 565.2 26.88 
" style="fill:none;stroke:#000000;stroke-linecap:square;stroke-linejoin:miter;stroke-width:0.8;"/>
   </g>
   <g id="patch_5">
    <path d="M 87.68 174.76 
L 565.2 174.76 
" style="fill:none;stroke:#000000;stroke-linecap:square;stroke-linejoin:miter;stroke-width:0.8;"/>
   </g>
   <g id="patch_6">
    <path d="M 87.68 26.88 
L 565.2 26.88 
" style="fill:none;stroke:#000000;stroke-linecap:square;stroke-linejoin:miter;stroke-width:0.8;"/>
   </g>
   <g id="text_12">
    <!-- Thalamus, Num Trials=10 All unstimulated trials, Num cells = 610 -->
    <defs>
     <path d="M 54.890625 33.015625 
L 54.890625 0 
L 45.90625 0 
L 45.90625 32.71875 
Q 45.90625 40.484375 42.875 44.328125 
Q 39.84375 48.1875 33.796875 48.1875 
Q 26.515625 48.1875 22.3125 43.546875 
Q 18.109375 38.921875 18.109375 30.90625 
L 18.109375 0 
L 9.078125 0 
L 9.078125 75.984375 
L 18.109375 75.984375 
L 18.109375 46.1875 
Q 21.34375 51.125 25.703125 53.5625 
Q 30.078125 56 35.796875 56 
Q 45.21875 56 50.046875 50.171875 
Q 54.890625 44.34375 54.890625 33.015625 
z
" id="DejaVuSans-104"/>
     <path d="M 9.421875 75.984375 
L 18.40625 75.984375 
L 18.40625 0 
L 9.421875 0 
z
" id="DejaVuSans-108"/>
     <path d="M 8.5 21.578125 
L 8.5 54.6875 
L 17.484375 54.6875 
L 17.484375 21.921875 
Q 17.484375 14.15625 20.5 10.265625 
Q 23.53125 6.390625 29.59375 6.390625 
Q 36.859375 6.390625 41.078125 11.03125 
Q 45.3125 15.671875 45.3125 23.6875 
L 45.3125 54.6875 
L 54.296875 54.6875 
L 54.296875 0 
L 45.3125 0 
L 45.3125 8.40625 
Q 42.046875 3.421875 37.71875 1 
Q 33.40625 -1.421875 27.6875 -1.421875 
Q 18.265625 -1.421875 13.375 4.4375 
Q 8.5 10.296875 8.5 21.578125 
z
M 31.109375 56 
z
" id="DejaVuSans-117"/>
     <path d="M 11.71875 12.40625 
L 22.015625 12.40625 
L 22.015625 4 
L 14.015625 -11.625 
L 7.71875 -11.625 
L 11.71875 4 
z
" id="DejaVuSans-44"/>
     <path d="M 9.8125 72.90625 
L 23.09375 72.90625 
L 55.421875 11.921875 
L 55.421875 72.90625 
L 64.984375 72.90625 
L 64.984375 0 
L 51.703125 0 
L 19.390625 60.984375 
L 19.390625 0 
L 9.8125 0 
z
" id="DejaVuSans-78"/>
     <path d="M 41.109375 46.296875 
Q 39.59375 47.171875 37.8125 47.578125 
Q 36.03125 48 33.890625 48 
Q 26.265625 48 22.1875 43.046875 
Q 18.109375 38.09375 18.109375 28.8125 
L 18.109375 0 
L 9.078125 0 
L 9.078125 54.6875 
L 18.109375 54.6875 
L 18.109375 46.1875 
Q 20.953125 51.171875 25.484375 53.578125 
Q 30.03125 56 36.53125 56 
Q 37.453125 56 38.578125 55.875 
Q 39.703125 55.765625 41.0625 55.515625 
z
" id="DejaVuSans-114"/>
     <path d="M 10.59375 45.40625 
L 73.1875 45.40625 
L 73.1875 37.203125 
L 10.59375 37.203125 
z
M 10.59375 25.484375 
L 73.1875 25.484375 
L 73.1875 17.1875 
L 10.59375 17.1875 
z
" id="DejaVuSans-61"/>
     <path d="M 34.1875 63.1875 
L 20.796875 26.90625 
L 47.609375 26.90625 
z
M 28.609375 72.90625 
L 39.796875 72.90625 
L 67.578125 0 
L 57.328125 0 
L 50.6875 18.703125 
L 17.828125 18.703125 
L 11.1875 0 
L 0.78125 0 
z
" id="DejaVuSans-65"/>
     <path d="M 45.40625 46.390625 
L 45.40625 75.984375 
L 54.390625 75.984375 
L 54.390625 0 
L 45.40625 0 
L 45.40625 8.203125 
Q 42.578125 3.328125 38.25 0.953125 
Q 33.9375 -1.421875 27.875 -1.421875 
Q 17.96875 -1.421875 11.734375 6.484375 
Q 5.515625 14.40625 5.515625 27.296875 
Q 5.515625 40.1875 11.734375 48.09375 
Q 17.96875 56 27.875 56 
Q 33.9375 56 38.25 53.625 
Q 42.578125 51.265625 45.40625 46.390625 
z
M 14.796875 27.296875 
Q 14.796875 17.390625 18.875 11.75 
Q 22.953125 6.109375 30.078125 6.109375 
Q 37.203125 6.109375 41.296875 11.75 
Q 45.40625 17.390625 45.40625 27.296875 
Q 45.40625 37.203125 41.296875 42.84375 
Q 37.203125 48.484375 30.078125 48.484375 
Q 22.953125 48.484375 18.875 42.84375 
Q 14.796875 37.203125 14.796875 27.296875 
z
" id="DejaVuSans-100"/>
     <path d="M 48.78125 52.59375 
L 48.78125 44.1875 
Q 44.96875 46.296875 41.140625 47.34375 
Q 37.3125 48.390625 33.40625 48.390625 
Q 24.65625 48.390625 19.8125 42.84375 
Q 14.984375 37.3125 14.984375 27.296875 
Q 14.984375 17.28125 19.8125 11.734375 
Q 24.65625 6.203125 33.40625 6.203125 
Q 37.3125 6.203125 41.140625 7.25 
Q 44.96875 8.296875 48.78125 10.40625 
L 48.78125 2.09375 
Q 45.015625 0.34375 40.984375 -0.53125 
Q 36.96875 -1.421875 32.421875 -1.421875 
Q 20.0625 -1.421875 12.78125 6.34375 
Q 5.515625 14.109375 5.515625 27.296875 
Q 5.515625 40.671875 12.859375 48.328125 
Q 20.21875 56 33.015625 56 
Q 37.15625 56 41.109375 55.140625 
Q 45.0625 54.296875 48.78125 52.59375 
z
" id="DejaVuSans-99"/>
     <path d="M 33.015625 40.375 
Q 26.375 40.375 22.484375 35.828125 
Q 18.609375 31.296875 18.609375 23.390625 
Q 18.609375 15.53125 22.484375 10.953125 
Q 26.375 6.390625 33.015625 6.390625 
Q 39.65625 6.390625 43.53125 10.953125 
Q 47.40625 15.53125 47.40625 23.390625 
Q 47.40625 31.296875 43.53125 35.828125 
Q 39.65625 40.375 33.015625 40.375 
z
M 52.59375 71.296875 
L 52.59375 62.3125 
Q 48.875 64.0625 45.09375 64.984375 
Q 41.3125 65.921875 37.59375 65.921875 
Q 27.828125 65.921875 22.671875 59.328125 
Q 17.53125 52.734375 16.796875 39.40625 
Q 19.671875 43.65625 24.015625 45.921875 
Q 28.375 48.1875 33.59375 48.1875 
Q 44.578125 48.1875 50.953125 41.515625 
Q 57.328125 34.859375 57.328125 23.390625 
Q 57.328125 12.15625 50.6875 5.359375 
Q 44.046875 -1.421875 33.015625 -1.421875 
Q 20.359375 -1.421875 13.671875 8.265625 
Q 6.984375 17.96875 6.984375 36.375 
Q 6.984375 53.65625 15.1875 63.9375 
Q 23.390625 74.21875 37.203125 74.21875 
Q 40.921875 74.21875 44.703125 73.484375 
Q 48.484375 72.75 52.59375 71.296875 
z
" id="DejaVuSans-54"/>
    </defs>
    <g transform="translate(127.098438 20.88)scale(0.12 -0.12)">
     <use xlink:href="#DejaVuSans-84"/>
     <use x="61.083984" xlink:href="#DejaVuSans-104"/>
     <use x="124.462891" xlink:href="#DejaVuSans-97"/>
     <use x="185.742188" xlink:href="#DejaVuSans-108"/>
     <use x="213.525391" xlink:href="#DejaVuSans-97"/>
     <use x="274.804688" xlink:href="#DejaVuSans-109"/>
     <use x="372.216797" xlink:href="#DejaVuSans-117"/>
     <use x="435.595703" xlink:href="#DejaVuSans-115"/>
     <use x="487.695312" xlink:href="#DejaVuSans-44"/>
     <use x="519.482422" xlink:href="#DejaVuSans-32"/>
     <use x="551.269531" xlink:href="#DejaVuSans-78"/>
     <use x="626.074219" xlink:href="#DejaVuSans-117"/>
     <use x="689.453125" xlink:href="#DejaVuSans-109"/>
     <use x="786.865234" xlink:href="#DejaVuSans-32"/>
     <use x="818.652344" xlink:href="#DejaVuSans-84"/>
     <use x="879.517578" xlink:href="#DejaVuSans-114"/>
     <use x="920.630859" xlink:href="#DejaVuSans-105"/>
     <use x="948.414062" xlink:href="#DejaVuSans-97"/>
     <use x="1009.693359" xlink:href="#DejaVuSans-108"/>
     <use x="1037.476562" xlink:href="#DejaVuSans-115"/>
     <use x="1089.576172" xlink:href="#DejaVuSans-61"/>
     <use x="1173.365234" xlink:href="#DejaVuSans-49"/>
     <use x="1236.988281" xlink:href="#DejaVuSans-48"/>
     <use x="1300.611328" xlink:href="#DejaVuSans-32"/>
     <use x="1332.398438" xlink:href="#DejaVuSans-65"/>
     <use x="1400.806641" xlink:href="#DejaVuSans-108"/>
     <use x="1428.589844" xlink:href="#DejaVuSans-108"/>
     <use x="1456.373047" xlink:href="#DejaVuSans-32"/>
     <use x="1488.160156" xlink:href="#DejaVuSans-117"/>
     <use x="1551.539062" xlink:href="#DejaVuSans-110"/>
     <use x="1614.917969" xlink:href="#DejaVuSans-115"/>
     <use x="1667.017578" xlink:href="#DejaVuSans-116"/>
     <use x="1706.226562" xlink:href="#DejaVuSans-105"/>
     <use x="1734.009766" xlink:href="#DejaVuSans-109"/>
     <use x="1831.421875" xlink:href="#DejaVuSans-117"/>
     <use x="1894.800781" xlink:href="#DejaVuSans-108"/>
     <use x="1922.583984" xlink:href="#DejaVuSans-97"/>
     <use x="1983.863281" xlink:href="#DejaVuSans-116"/>
     <use x="2023.072266" xlink:href="#DejaVuSans-101"/>
     <use x="2084.595703" xlink:href="#DejaVuSans-100"/>
     <use x="2148.072266" xlink:href="#DejaVuSans-32"/>
     <use x="2179.859375" xlink:href="#DejaVuSans-116"/>
     <use x="2219.068359" xlink:href="#DejaVuSans-114"/>
     <use x="2260.181641" xlink:href="#DejaVuSans-105"/>
     <use x="2287.964844" xlink:href="#DejaVuSans-97"/>
     <use x="2349.244141" xlink:href="#DejaVuSans-108"/>
     <use x="2377.027344" xlink:href="#DejaVuSans-115"/>
     <use x="2429.126953" xlink:href="#DejaVuSans-44"/>
     <use x="2460.914062" xlink:href="#DejaVuSans-32"/>
     <use x="2492.701172" xlink:href="#DejaVuSans-78"/>
     <use x="2567.505859" xlink:href="#DejaVuSans-117"/>
     <use x="2630.884766" xlink:href="#DejaVuSans-109"/>
     <use x="2728.296875" xlink:href="#DejaVuSans-32"/>
     <use x="2760.083984" xlink:href="#DejaVuSans-99"/>
     <use x="2815.064453" xlink:href="#DejaVuSans-101"/>
     <use x="2876.587891" xlink:href="#DejaVuSans-108"/>
     <use x="2904.371094" xlink:href="#DejaVuSans-108"/>
     <use x="2932.154297" xlink:href="#DejaVuSans-115"/>
     <use x="2984.253906" xlink:href="#DejaVuSans-32"/>
     <use x="3016.041016" xlink:href="#DejaVuSans-61"/>
     <use x="3099.830078" xlink:href="#DejaVuSans-32"/>
     <use x="3131.617188" xlink:href="#DejaVuSans-54"/>
     <use x="3195.240234" xlink:href="#DejaVuSans-49"/>
     <use x="3258.863281" xlink:href="#DejaVuSans-48"/>
    </g>
   </g>
   <g id="legend_1">
    <g id="patch_7">
     <path d="M 96.08 168.76 
L 230.24 168.76 
Q 232.64 168.76 232.64 166.36 
L 232.64 132.30625 
Q 232.64 129.90625 230.24 129.90625 
L 96.08 129.90625 
Q 93.68 129.90625 93.68 132.30625 
L 93.68 166.36 
Q 93.68 168.76 96.08 168.76 
z
" style="fill:#ffffff;opacity:0.8;stroke:#cccccc;stroke-linejoin:miter;"/>
    </g>
    <g id="line2d_11">
     <path d="M 98.48 139.62625 
L 122.48 139.62625 
" style="fill:none;stroke:#0000ff;stroke-linecap:square;stroke-width:1.5;"/>
    </g>
    <g id="line2d_12"/>
    <g id="text_13">
     <!-- Beta-Binomial $\rho$ -->
     <defs>
      <path d="M 30.609375 48.390625 
Q 23.390625 48.390625 19.1875 42.75 
Q 14.984375 37.109375 14.984375 27.296875 
Q 14.984375 17.484375 19.15625 11.84375 
Q 23.34375 6.203125 30.609375 6.203125 
Q 37.796875 6.203125 41.984375 11.859375 
Q 46.1875 17.53125 46.1875 27.296875 
Q 46.1875 37.015625 41.984375 42.703125 
Q 37.796875 48.390625 30.609375 48.390625 
z
M 30.609375 56 
Q 42.328125 56 49.015625 48.375 
Q 55.71875 40.765625 55.71875 27.296875 
Q 55.71875 13.875 49.015625 6.21875 
Q 42.328125 -1.421875 30.609375 -1.421875 
Q 18.84375 -1.421875 12.171875 6.21875 
Q 5.515625 13.875 5.515625 27.296875 
Q 5.515625 40.765625 12.171875 48.375 
Q 18.84375 56 30.609375 56 
z
" id="DejaVuSans-111"/>
     </defs>
     <g transform="translate(132.08 143.82625)scale(0.12 -0.12)">
      <use transform="translate(0 0.015625)" xlink:href="#DejaVuSans-66"/>
      <use transform="translate(68.603516 0.015625)" xlink:href="#DejaVuSans-101"/>
      <use transform="translate(130.126953 0.015625)" xlink:href="#DejaVuSans-116"/>
      <use transform="translate(169.335938 0.015625)" xlink:href="#DejaVuSans-97"/>
      <use transform="translate(230.615234 0.015625)" xlink:href="#DejaVuSans-45"/>
      <use transform="translate(266.699219 0.015625)" xlink:href="#DejaVuSans-66"/>
      <use transform="translate(335.302734 0.015625)" xlink:href="#DejaVuSans-105"/>
      <use transform="translate(363.085938 0.015625)" xlink:href="#DejaVuSans-110"/>
      <use transform="translate(426.464844 0.015625)" xlink:href="#DejaVuSans-111"/>
      <use transform="translate(487.646484 0.015625)" xlink:href="#DejaVuSans-109"/>
      <use transform="translate(585.058594 0.015625)" xlink:href="#DejaVuSans-105"/>
      <use transform="translate(612.841797 0.015625)" xlink:href="#DejaVuSans-97"/>
      <use transform="translate(674.121094 0.015625)" xlink:href="#DejaVuSans-108"/>
      <use transform="translate(701.904297 0.015625)" xlink:href="#DejaVuSans-32"/>
      <use transform="translate(733.691406 0.015625)" xlink:href="#DejaVuSans-Oblique-961"/>
     </g>
    </g>
    <g id="patch_8">
     <path d="M 98.48 161.464375 
L 122.48 161.464375 
L 122.48 153.064375 
L 98.48 153.064375 
z
" style="fill:#0000ff;opacity:0.3;stroke:#0000ff;stroke-linejoin:miter;"/>
    </g>
    <g id="text_14">
     <!-- Std. Err. -->
     <defs>
      <path d="M 53.515625 70.515625 
L 53.515625 60.890625 
Q 47.90625 63.578125 42.921875 64.890625 
Q 37.9375 66.21875 33.296875 66.21875 
Q 25.25 66.21875 20.875 63.09375 
Q 16.5 59.96875 16.5 54.203125 
Q 16.5 49.359375 19.40625 46.890625 
Q 22.3125 44.4375 30.421875 42.921875 
L 36.375 41.703125 
Q 47.40625 39.59375 52.65625 34.296875 
Q 57.90625 29 57.90625 20.125 
Q 57.90625 9.515625 50.796875 4.046875 
Q 43.703125 -1.421875 29.984375 -1.421875 
Q 24.8125 -1.421875 18.96875 -0.25 
Q 13.140625 0.921875 6.890625 3.21875 
L 6.890625 13.375 
Q 12.890625 10.015625 18.65625 8.296875 
Q 24.421875 6.59375 29.984375 6.59375 
Q 38.421875 6.59375 43.015625 9.90625 
Q 47.609375 13.234375 47.609375 19.390625 
Q 47.609375 24.75 44.3125 27.78125 
Q 41.015625 30.8125 33.5 32.328125 
L 27.484375 33.5 
Q 16.453125 35.6875 11.515625 40.375 
Q 6.59375 45.0625 6.59375 53.421875 
Q 6.59375 63.09375 13.40625 68.65625 
Q 20.21875 74.21875 32.171875 74.21875 
Q 37.3125 74.21875 42.625 73.28125 
Q 47.953125 72.359375 53.515625 70.515625 
z
" id="DejaVuSans-83"/>
      <path d="M 9.8125 72.90625 
L 55.90625 72.90625 
L 55.90625 64.59375 
L 19.671875 64.59375 
L 19.671875 43.015625 
L 54.390625 43.015625 
L 54.390625 34.71875 
L 19.671875 34.71875 
L 19.671875 8.296875 
L 56.78125 8.296875 
L 56.78125 0 
L 9.8125 0 
z
" id="DejaVuSans-69"/>
     </defs>
     <g transform="translate(132.08 161.464375)scale(0.12 -0.12)">
      <use xlink:href="#DejaVuSans-83"/>
      <use x="63.476562" xlink:href="#DejaVuSans-116"/>
      <use x="102.685547" xlink:href="#DejaVuSans-100"/>
      <use x="166.162109" xlink:href="#DejaVuSans-46"/>
      <use x="197.949219" xlink:href="#DejaVuSans-32"/>
      <use x="229.736328" xlink:href="#DejaVuSans-69"/>
      <use x="292.919922" xlink:href="#DejaVuSans-114"/>
      <use x="334.017578" xlink:href="#DejaVuSans-114"/>
      <use x="374.990234" xlink:href="#DejaVuSans-46"/>
     </g>
    </g>
   </g>
  </g>
 </g>
 <defs>
  <clipPath id="p8082eb2ce3">
   <rect height="147.88" width="477.52" x="87.68" y="26.88"/>
  </clipPath>
 </defs>
</svg>
