<?xml version="1.0" encoding="utf-8" standalone="no"?>
<!DOCTYPE svg PUBLIC "-//W3C//DTD SVG 1.1//EN"
  "http://www.w3.org/Graphics/SVG/1.1/DTD/svg11.dtd">
<!-- Created with matplotlib (https://matplotlib.org/) -->
<svg height="216pt" version="1.1" viewBox="0 0 648 216" width="648pt" xmlns="http://www.w3.org/2000/svg" xmlns:xlink="http://www.w3.org/1999/xlink">
 <defs>
  <style type="text/css">
*{stroke-linecap:butt;stroke-linejoin:round;}
  </style>
 </defs>
 <g id="figure_1">
  <g id="patch_1">
   <path d="M 0 216 
L 648 216 
L 648 0 
L 0 0 
z
" style="fill:#ffffff;"/>
  </g>
  <g id="axes_1">
   <g id="patch_2">
    <path d="M 81 192.24 
L 583.2 192.24 
L 583.2 25.92 
L 81 25.92 
z
" style="fill:#ffffff;"/>
   </g>
   <g id="PolyCollection_1">
    <defs>
     <path d="M 81 -82.179085 
L 81 -56.493718 
L 83.049796 -54.258509 
L 85.099592 -45.764336 
L 87.149388 -41.077742 
L 89.199184 -47.941073 
L 91.24898 -47.760058 
L 93.298776 -48.015236 
L 95.348571 -43.154853 
L 97.398367 -50.874037 
L 99.448163 -50.498138 
L 101.497959 -58.940894 
L 103.547755 -59.3942 
L 105.597551 -56.038678 
L 107.647347 -53.513379 
L 109.697143 -49.875122 
L 111.746939 -52.041586 
L 113.796735 -46.909373 
L 115.846531 -48.924339 
L 117.896327 -44.649661 
L 119.946122 -41.545386 
L 121.995918 -30.95766 
L 124.045714 -28.153794 
L 126.09551 -33.552095 
L 128.145306 -34.830647 
L 130.195102 -41.014479 
L 132.244898 -42.609892 
L 134.294694 -48.826729 
L 136.34449 -52.190867 
L 138.394286 -56.983368 
L 140.444082 -56.990904 
L 142.493878 -60.792786 
L 144.543673 -67.109353 
L 146.593469 -69.874379 
L 148.643265 -71.144151 
L 150.693061 -64.332339 
L 152.742857 -60.456632 
L 154.792653 -57.962643 
L 156.842449 -57.114954 
L 158.892245 -45.869104 
L 160.942041 -45.599925 
L 162.991837 -52.978072 
L 165.041633 -50.968133 
L 167.091429 -45.34582 
L 169.141224 -47.852698 
L 171.19102 -52.047368 
L 173.240816 -54.506042 
L 175.290612 -56.48809 
L 177.340408 -57.008746 
L 179.390204 -74.449917 
L 181.44 -82.128995 
L 183.489796 -73.124158 
L 185.539592 -68.320237 
L 187.589388 -58.14877 
L 189.639184 -47.332159 
L 191.68898 -47.001981 
L 193.738776 -53.264496 
L 195.788571 -58.940669 
L 197.838367 -62.276797 
L 199.888163 -60.299039 
L 201.937959 -67.199716 
L 203.987755 -68.436654 
L 206.037551 -64.189665 
L 208.087347 -66.571289 
L 210.137143 -68.574635 
L 212.186939 -72.930689 
L 214.236735 -69.898476 
L 216.286531 -73.086632 
L 218.336327 -75.983599 
L 220.386122 -78.792723 
L 222.435918 -71.886919 
L 224.485714 -61.079512 
L 226.53551 -64.562703 
L 228.585306 -70.596834 
L 230.635102 -73.391704 
L 232.684898 -76.948222 
L 234.734694 -77.600362 
L 236.78449 -81.152098 
L 238.834286 -76.841857 
L 240.884082 -80.297188 
L 242.933878 -83.269457 
L 244.983673 -82.248967 
L 247.033469 -82.683847 
L 249.083265 -82.45275 
L 251.133061 -75.825042 
L 253.182857 -69.037222 
L 255.232653 -64.931606 
L 257.282449 -55.176788 
L 259.332245 -57.527776 
L 261.382041 -53.00512 
L 263.431837 -51.066445 
L 265.481633 -53.756168 
L 267.531429 -48.514144 
L 269.581224 -41.647683 
L 271.63102 -42.500668 
L 273.680816 -40.554589 
L 275.730612 -38.535576 
L 277.780408 -40.084139 
L 279.830204 -37.691312 
L 281.88 -37.553057 
L 283.929796 -38.933921 
L 285.979592 -37.728424 
L 288.029388 -37.744124 
L 290.079184 -36.499354 
L 292.12898 -38.300722 
L 294.178776 -36.504801 
L 296.228571 -32.405318 
L 298.278367 -32.88298 
L 300.328163 -28.725934 
L 302.377959 -23.76 
L 304.427755 -27.775722 
L 306.477551 -30.354593 
L 308.527347 -34.834327 
L 310.577143 -39.418063 
L 312.626939 -35.499558 
L 314.676735 -37.154365 
L 316.726531 -33.243019 
L 318.776327 -35.464665 
L 320.826122 -40.691972 
L 322.875918 -51.530777 
L 324.925714 -57.561037 
L 326.97551 -65.813046 
L 329.025306 -62.587763 
L 331.075102 -66.31768 
L 333.124898 -61.020112 
L 335.174694 -66.047403 
L 337.22449 -71.883288 
L 339.274286 -67.49256 
L 341.324082 -65.564666 
L 343.373878 -68.072149 
L 345.423673 -63.132809 
L 347.473469 -64.866462 
L 349.523265 -66.401698 
L 351.573061 -62.28299 
L 353.622857 -66.507144 
L 355.672653 -62.907559 
L 357.722449 -61.870707 
L 359.772245 -61.458188 
L 361.822041 -58.086051 
L 363.871837 -56.648683 
L 365.921633 -53.205725 
L 367.971429 -41.580303 
L 370.021224 -46.111161 
L 372.07102 -43.558742 
L 374.120816 -43.620708 
L 376.170612 -42.675744 
L 378.220408 -45.700985 
L 380.270204 -48.059795 
L 382.32 -49.884494 
L 384.369796 -47.409218 
L 386.419592 -53.891387 
L 388.469388 -54.790856 
L 390.519184 -53.380893 
L 392.56898 -56.348698 
L 394.618776 -54.547203 
L 396.668571 -51.63257 
L 398.718367 -43.643866 
L 400.768163 -41.01712 
L 402.817959 -49.546737 
L 404.867755 -50.642467 
L 406.917551 -49.917622 
L 408.967347 -49.046751 
L 411.017143 -51.138381 
L 413.066939 -52.005989 
L 415.116735 -44.399179 
L 417.166531 -45.192653 
L 419.216327 -53.273461 
L 421.266122 -57.503763 
L 423.315918 -60.556199 
L 425.365714 -59.32926 
L 427.41551 -59.174039 
L 429.465306 -60.473207 
L 431.515102 -61.13387 
L 433.564898 -51.849128 
L 435.614694 -53.067429 
L 437.66449 -61.184869 
L 439.714286 -57.67366 
L 441.764082 -53.396341 
L 443.813878 -40.18721 
L 445.863673 -41.961642 
L 447.913469 -34.638351 
L 449.963265 -50.742231 
L 452.013061 -66.366022 
L 454.062857 -81.129069 
L 456.112653 -88.692704 
L 458.162449 -84.897657 
L 460.212245 -85.551569 
L 462.262041 -83.812647 
L 464.311837 -83.185712 
L 466.361633 -75.717645 
L 468.411429 -75.33621 
L 470.461224 -71.591937 
L 472.51102 -74.036457 
L 474.560816 -63.805846 
L 476.610612 -55.46695 
L 478.660408 -50.281615 
L 480.710204 -42.966001 
L 482.76 -44.827836 
L 484.809796 -45.781729 
L 486.859592 -54.013023 
L 488.909388 -52.130053 
L 490.959184 -50.261908 
L 493.00898 -46.927034 
L 495.058776 -41.054457 
L 497.108571 -37.644332 
L 499.158367 -43.048791 
L 501.208163 -39.824537 
L 503.257959 -41.916373 
L 505.307755 -33.996059 
L 507.357551 -28.226762 
L 509.407347 -32.349473 
L 511.457143 -36.549963 
L 513.506939 -42.867497 
L 515.556735 -46.586414 
L 517.606531 -52.356751 
L 519.656327 -59.657152 
L 521.706122 -59.434469 
L 523.755918 -68.884451 
L 525.805714 -81.783881 
L 527.85551 -88.602094 
L 529.905306 -84.799162 
L 531.955102 -88.113753 
L 534.004898 -85.84057 
L 536.054694 -85.495757 
L 538.10449 -83.07259 
L 540.154286 -75.049523 
L 542.204082 -75.940902 
L 544.253878 -65.957074 
L 546.303673 -54.101296 
L 548.353469 -51.307841 
L 550.403265 -49.56578 
L 552.453061 -38.402449 
L 554.502857 -43.013917 
L 556.552653 -44.140101 
L 558.602449 -51.800879 
L 560.652245 -54.484806 
L 562.702041 -61.365041 
L 564.751837 -61.002586 
L 566.801633 -65.819553 
L 568.851429 -63.965538 
L 570.901224 -63.134172 
L 572.95102 -63.01537 
L 575.000816 -55.609769 
L 577.050612 -54.819253 
L 579.100408 -57.168522 
L 581.150204 -63.864572 
L 583.2 -61.939306 
L 583.2 -97.836413 
L 583.2 -97.836413 
L 581.150204 -104.234608 
L 579.100408 -91.491734 
L 577.050612 -88.407632 
L 575.000816 -88.576977 
L 572.95102 -92.125695 
L 570.901224 -91.866767 
L 568.851429 -96.524822 
L 566.801633 -102.65096 
L 564.751837 -97.956902 
L 562.702041 -98.463226 
L 560.652245 -84.506783 
L 558.602449 -83.715595 
L 556.552653 -80.593708 
L 554.502857 -78.626619 
L 552.453061 -73.828653 
L 550.403265 -87.478063 
L 548.353469 -87.750308 
L 546.303673 -88.70171 
L 544.253878 -101.115686 
L 542.204082 -108.906791 
L 540.154286 -107.377501 
L 538.10449 -119.651627 
L 536.054694 -117.536737 
L 534.004898 -118.253375 
L 531.955102 -123.448886 
L 529.905306 -113.931475 
L 527.85551 -123.843337 
L 525.805714 -115.580532 
L 523.755918 -100.283187 
L 521.706122 -92.820009 
L 519.656327 -91.504346 
L 517.606531 -82.984566 
L 515.556735 -76.3678 
L 513.506939 -73.994756 
L 511.457143 -67.690476 
L 509.407347 -61.339508 
L 507.357551 -54.178605 
L 505.307755 -59.191973 
L 503.257959 -69.102642 
L 501.208163 -67.04676 
L 499.158367 -74.349442 
L 497.108571 -73.879135 
L 495.058776 -77.335165 
L 493.00898 -82.150668 
L 490.959184 -89.601963 
L 488.909388 -92.028667 
L 486.859592 -88.436165 
L 484.809796 -79.036155 
L 482.76 -78.841018 
L 480.710204 -81.484054 
L 478.660408 -98.073868 
L 476.610612 -121.926061 
L 474.560816 -138.904359 
L 472.51102 -152.887452 
L 470.461224 -149.047339 
L 468.411429 -156.120762 
L 466.361633 -161.754219 
L 464.311837 -176.91994 
L 462.262041 -186.476633 
L 460.212245 -190.08 
L 458.162449 -174.934751 
L 456.112653 -150.881044 
L 454.062857 -118.911743 
L 452.013061 -99.522677 
L 449.963265 -89.079602 
L 447.913469 -80.878696 
L 445.863673 -87.420833 
L 443.813878 -82.357136 
L 441.764082 -91.427977 
L 439.714286 -94.657886 
L 437.66449 -100.05166 
L 435.614694 -94.328194 
L 433.564898 -89.50708 
L 431.515102 -89.530182 
L 429.465306 -90.187341 
L 427.41551 -93.283621 
L 425.365714 -97.766557 
L 423.315918 -101.643693 
L 421.266122 -99.283778 
L 419.216327 -95.442846 
L 417.166531 -86.859215 
L 415.116735 -87.004609 
L 413.066939 -96.191852 
L 411.017143 -97.651491 
L 408.967347 -95.006875 
L 406.917551 -91.449096 
L 404.867755 -90.559603 
L 402.817959 -90.352166 
L 400.768163 -83.289306 
L 398.718367 -85.966314 
L 396.668571 -92.350993 
L 394.618776 -90.956724 
L 392.56898 -88.370525 
L 390.519184 -80.800885 
L 388.469388 -82.039295 
L 386.419592 -77.918765 
L 384.369796 -67.389685 
L 382.32 -65.604528 
L 380.270204 -64.153791 
L 378.220408 -62.711694 
L 376.170612 -61.186356 
L 374.120816 -60.272921 
L 372.07102 -56.985884 
L 370.021224 -58.311441 
L 367.971429 -57.307338 
L 365.921633 -76.597128 
L 363.871837 -82.819334 
L 361.822041 -88.132516 
L 359.772245 -91.983854 
L 357.722449 -91.501272 
L 355.672653 -92.986681 
L 353.622857 -98.908631 
L 351.573061 -95.432883 
L 349.523265 -94.631648 
L 347.473469 -92.471072 
L 345.423673 -82.188954 
L 343.373878 -82.360696 
L 341.324082 -79.855186 
L 339.274286 -81.889343 
L 337.22449 -84.609989 
L 335.174694 -78.496664 
L 333.124898 -73.116125 
L 331.075102 -79.498026 
L 329.025306 -76.729618 
L 326.97551 -82.405814 
L 324.925714 -75.829031 
L 322.875918 -73.329145 
L 320.826122 -67.244279 
L 318.776327 -60.042446 
L 316.726531 -56.589005 
L 314.676735 -60.661315 
L 312.626939 -63.447636 
L 310.577143 -67.165977 
L 308.527347 -65.114766 
L 306.477551 -62.479622 
L 304.427755 -63.275394 
L 302.377959 -63.308046 
L 300.328163 -67.226076 
L 298.278367 -70.036775 
L 296.228571 -72.931604 
L 294.178776 -73.473781 
L 292.12898 -76.165383 
L 290.079184 -70.168761 
L 288.029388 -72.644326 
L 285.979592 -71.115141 
L 283.929796 -70.351039 
L 281.88 -71.42713 
L 279.830204 -71.838869 
L 277.780408 -76.613466 
L 275.730612 -76.417465 
L 273.680816 -78.738843 
L 271.63102 -80.965004 
L 269.581224 -77.722819 
L 267.531429 -81.85972 
L 265.481633 -86.090188 
L 263.431837 -81.248159 
L 261.382041 -81.62506 
L 259.332245 -85.667581 
L 257.282449 -79.572499 
L 255.232653 -90.640345 
L 253.182857 -94.605964 
L 251.133061 -106.258673 
L 249.083265 -123.189583 
L 247.033469 -129.593434 
L 244.983673 -135.931105 
L 242.933878 -134.385144 
L 240.884082 -137.017608 
L 238.834286 -136.601969 
L 236.78449 -142.065489 
L 234.734694 -137.020519 
L 232.684898 -128.610035 
L 230.635102 -119.796966 
L 228.585306 -103.152912 
L 226.53551 -87.534133 
L 224.485714 -76.139488 
L 222.435918 -95.494118 
L 220.386122 -101.956296 
L 218.336327 -103.360661 
L 216.286531 -103.696833 
L 214.236735 -101.556712 
L 212.186939 -108.778191 
L 210.137143 -113.635194 
L 208.087347 -114.878358 
L 206.037551 -115.403318 
L 203.987755 -119.910676 
L 201.937959 -113.507266 
L 199.888163 -107.572437 
L 197.838367 -112.635991 
L 195.788571 -111.652747 
L 193.738776 -111.356066 
L 191.68898 -114.031365 
L 189.639184 -115.161997 
L 187.589388 -120.880207 
L 185.539592 -124.069716 
L 183.489796 -117.100855 
L 181.44 -112.261252 
L 179.390204 -103.416018 
L 177.340408 -92.646402 
L 175.290612 -96.039632 
L 173.240816 -94.241792 
L 171.19102 -90.902769 
L 169.141224 -86.682897 
L 167.091429 -83.724876 
L 165.041633 -91.754301 
L 162.991837 -89.933531 
L 160.942041 -80.307435 
L 158.892245 -77.894335 
L 156.842449 -87.194402 
L 154.792653 -85.530481 
L 152.742857 -89.808062 
L 150.693061 -93.061245 
L 148.643265 -107.418909 
L 146.593469 -101.482721 
L 144.543673 -95.174615 
L 142.493878 -87.909507 
L 140.444082 -84.543965 
L 138.394286 -84.302778 
L 136.34449 -79.16738 
L 134.294694 -76.071727 
L 132.244898 -69.263889 
L 130.195102 -61.89827 
L 128.145306 -47.245424 
L 126.09551 -49.557403 
L 124.045714 -45.206465 
L 121.995918 -49.909829 
L 119.946122 -63.125939 
L 117.896327 -63.808559 
L 115.846531 -74.198026 
L 113.796735 -76.433689 
L 111.746939 -81.639242 
L 109.697143 -83.882775 
L 107.647347 -86.445076 
L 105.597551 -91.672227 
L 103.547755 -98.924214 
L 101.497959 -97.937729 
L 99.448163 -91.733855 
L 97.398367 -88.107042 
L 95.348571 -80.612089 
L 93.298776 -83.570715 
L 91.24898 -81.202041 
L 89.199184 -80.859881 
L 87.149388 -75.357128 
L 85.099592 -71.858099 
L 83.049796 -77.369479 
L 81 -82.179085 
z
" id="m9c3283c039" style="stroke:#0000ff;stroke-opacity:0.3;"/>
    </defs>
    <g clip-path="url(#p685708c80d)">
     <use style="fill:#0000ff;fill-opacity:0.3;stroke:#0000ff;stroke-opacity:0.3;" x="0" xlink:href="#m9c3283c039" y="216"/>
    </g>
   </g>
   <g id="PolyCollection_2">
    <defs>
     <path d="M 128.042816 -23.76 
L 128.042816 -190.08 
L 435.512204 -190.08 
L 435.512204 -23.76 
L 435.512204 -23.76 
L 128.042816 -23.76 
z
" id="m1b7dc9ebe1" style="stroke:#808080;stroke-opacity:0.3;"/>
    </defs>
    <g clip-path="url(#p685708c80d)">
     <use style="fill:#808080;fill-opacity:0.3;stroke:#808080;stroke-opacity:0.3;" x="0" xlink:href="#m1b7dc9ebe1" y="216"/>
    </g>
   </g>
   <g id="matplotlib.axis_1">
    <g id="xtick_1">
     <g id="line2d_1">
      <defs>
       <path d="M 0 0 
L 0 3.5 
" id="mbd86d0703f" style="stroke:#000000;stroke-width:0.8;"/>
      </defs>
      <g>
       <use style="stroke:#000000;stroke-width:0.8;" x="81" xlink:href="#mbd86d0703f" y="192.24"/>
      </g>
     </g>
     <g id="text_1">
      <!-- 0.0 -->
      <defs>
       <path d="M 31.78125 66.40625 
Q 24.171875 66.40625 20.328125 58.90625 
Q 16.5 51.421875 16.5 36.375 
Q 16.5 21.390625 20.328125 13.890625 
Q 24.171875 6.390625 31.78125 6.390625 
Q 39.453125 6.390625 43.28125 13.890625 
Q 47.125 21.390625 47.125 36.375 
Q 47.125 51.421875 43.28125 58.90625 
Q 39.453125 66.40625 31.78125 66.40625 
z
M 31.78125 74.21875 
Q 44.046875 74.21875 50.515625 64.515625 
Q 56.984375 54.828125 56.984375 36.375 
Q 56.984375 17.96875 50.515625 8.265625 
Q 44.046875 -1.421875 31.78125 -1.421875 
Q 19.53125 -1.421875 13.0625 8.265625 
Q 6.59375 17.96875 6.59375 36.375 
Q 6.59375 54.828125 13.0625 64.515625 
Q 19.53125 74.21875 31.78125 74.21875 
z
" id="DejaVuSans-48"/>
       <path d="M 10.6875 12.40625 
L 21 12.40625 
L 21 0 
L 10.6875 0 
z
" id="DejaVuSans-46"/>
      </defs>
      <g transform="translate(71.458125 208.358125)scale(0.12 -0.12)">
       <use xlink:href="#DejaVuSans-48"/>
       <use x="63.623047" xlink:href="#DejaVuSans-46"/>
       <use x="95.410156" xlink:href="#DejaVuSans-48"/>
      </g>
     </g>
    </g>
    <g id="xtick_2">
     <g id="line2d_2">
      <g>
       <use style="stroke:#000000;stroke-width:0.8;" x="183.489796" xlink:href="#mbd86d0703f" y="192.24"/>
      </g>
     </g>
     <g id="text_2">
      <!-- 0.5 -->
      <defs>
       <path d="M 10.796875 72.90625 
L 49.515625 72.90625 
L 49.515625 64.59375 
L 19.828125 64.59375 
L 19.828125 46.734375 
Q 21.96875 47.46875 24.109375 47.828125 
Q 26.265625 48.1875 28.421875 48.1875 
Q 40.625 48.1875 47.75 41.5 
Q 54.890625 34.8125 54.890625 23.390625 
Q 54.890625 11.625 47.5625 5.09375 
Q 40.234375 -1.421875 26.90625 -1.421875 
Q 22.3125 -1.421875 17.546875 -0.640625 
Q 12.796875 0.140625 7.71875 1.703125 
L 7.71875 11.625 
Q 12.109375 9.234375 16.796875 8.0625 
Q 21.484375 6.890625 26.703125 6.890625 
Q 35.15625 6.890625 40.078125 11.328125 
Q 45.015625 15.765625 45.015625 23.390625 
Q 45.015625 31 40.078125 35.4375 
Q 35.15625 39.890625 26.703125 39.890625 
Q 22.75 39.890625 18.8125 39.015625 
Q 14.890625 38.140625 10.796875 36.28125 
z
" id="DejaVuSans-53"/>
      </defs>
      <g transform="translate(173.947921 208.358125)scale(0.12 -0.12)">
       <use xlink:href="#DejaVuSans-48"/>
       <use x="63.623047" xlink:href="#DejaVuSans-46"/>
       <use x="95.410156" xlink:href="#DejaVuSans-53"/>
      </g>
     </g>
    </g>
    <g id="xtick_3">
     <g id="line2d_3">
      <g>
       <use style="stroke:#000000;stroke-width:0.8;" x="285.979592" xlink:href="#mbd86d0703f" y="192.24"/>
      </g>
     </g>
     <g id="text_3">
      <!-- 1.0 -->
      <defs>
       <path d="M 12.40625 8.296875 
L 28.515625 8.296875 
L 28.515625 63.921875 
L 10.984375 60.40625 
L 10.984375 69.390625 
L 28.421875 72.90625 
L 38.28125 72.90625 
L 38.28125 8.296875 
L 54.390625 8.296875 
L 54.390625 0 
L 12.40625 0 
z
" id="DejaVuSans-49"/>
      </defs>
      <g transform="translate(276.437717 208.358125)scale(0.12 -0.12)">
       <use xlink:href="#DejaVuSans-49"/>
       <use x="63.623047" xlink:href="#DejaVuSans-46"/>
       <use x="95.410156" xlink:href="#DejaVuSans-48"/>
      </g>
     </g>
    </g>
    <g id="xtick_4">
     <g id="line2d_4">
      <g>
       <use style="stroke:#000000;stroke-width:0.8;" x="388.469388" xlink:href="#mbd86d0703f" y="192.24"/>
      </g>
     </g>
     <g id="text_4">
      <!-- 1.5 -->
      <g transform="translate(378.927513 208.358125)scale(0.12 -0.12)">
       <use xlink:href="#DejaVuSans-49"/>
       <use x="63.623047" xlink:href="#DejaVuSans-46"/>
       <use x="95.410156" xlink:href="#DejaVuSans-53"/>
      </g>
     </g>
    </g>
    <g id="xtick_5">
     <g id="line2d_5">
      <g>
       <use style="stroke:#000000;stroke-width:0.8;" x="490.959184" xlink:href="#mbd86d0703f" y="192.24"/>
      </g>
     </g>
     <g id="text_5">
      <!-- 2.0 -->
      <defs>
       <path d="M 19.1875 8.296875 
L 53.609375 8.296875 
L 53.609375 0 
L 7.328125 0 
L 7.328125 8.296875 
Q 12.9375 14.109375 22.625 23.890625 
Q 32.328125 33.6875 34.8125 36.53125 
Q 39.546875 41.84375 41.421875 45.53125 
Q 43.3125 49.21875 43.3125 52.78125 
Q 43.3125 58.59375 39.234375 62.25 
Q 35.15625 65.921875 28.609375 65.921875 
Q 23.96875 65.921875 18.8125 64.3125 
Q 13.671875 62.703125 7.8125 59.421875 
L 7.8125 69.390625 
Q 13.765625 71.78125 18.9375 73 
Q 24.125 74.21875 28.421875 74.21875 
Q 39.75 74.21875 46.484375 68.546875 
Q 53.21875 62.890625 53.21875 53.421875 
Q 53.21875 48.921875 51.53125 44.890625 
Q 49.859375 40.875 45.40625 35.40625 
Q 44.1875 33.984375 37.640625 27.21875 
Q 31.109375 20.453125 19.1875 8.296875 
z
" id="DejaVuSans-50"/>
      </defs>
      <g transform="translate(481.417309 208.358125)scale(0.12 -0.12)">
       <use xlink:href="#DejaVuSans-50"/>
       <use x="63.623047" xlink:href="#DejaVuSans-46"/>
       <use x="95.410156" xlink:href="#DejaVuSans-48"/>
      </g>
     </g>
    </g>
    <g id="text_6">
     <!-- Time (s) -->
     <defs>
      <path d="M -0.296875 72.90625 
L 61.375 72.90625 
L 61.375 64.59375 
L 35.5 64.59375 
L 35.5 0 
L 25.59375 0 
L 25.59375 64.59375 
L -0.296875 64.59375 
z
" id="DejaVuSans-84"/>
      <path d="M 9.421875 54.6875 
L 18.40625 54.6875 
L 18.40625 0 
L 9.421875 0 
z
M 9.421875 75.984375 
L 18.40625 75.984375 
L 18.40625 64.59375 
L 9.421875 64.59375 
z
" id="DejaVuSans-105"/>
      <path d="M 52 44.1875 
Q 55.375 50.25 60.0625 53.125 
Q 64.75 56 71.09375 56 
Q 79.640625 56 84.28125 50.015625 
Q 88.921875 44.046875 88.921875 33.015625 
L 88.921875 0 
L 79.890625 0 
L 79.890625 32.71875 
Q 79.890625 40.578125 77.09375 44.375 
Q 74.3125 48.1875 68.609375 48.1875 
Q 61.625 48.1875 57.5625 43.546875 
Q 53.515625 38.921875 53.515625 30.90625 
L 53.515625 0 
L 44.484375 0 
L 44.484375 32.71875 
Q 44.484375 40.625 41.703125 44.40625 
Q 38.921875 48.1875 33.109375 48.1875 
Q 26.21875 48.1875 22.15625 43.53125 
Q 18.109375 38.875 18.109375 30.90625 
L 18.109375 0 
L 9.078125 0 
L 9.078125 54.6875 
L 18.109375 54.6875 
L 18.109375 46.1875 
Q 21.1875 51.21875 25.484375 53.609375 
Q 29.78125 56 35.6875 56 
Q 41.65625 56 45.828125 52.96875 
Q 50 49.953125 52 44.1875 
z
" id="DejaVuSans-109"/>
      <path d="M 56.203125 29.59375 
L 56.203125 25.203125 
L 14.890625 25.203125 
Q 15.484375 15.921875 20.484375 11.0625 
Q 25.484375 6.203125 34.421875 6.203125 
Q 39.59375 6.203125 44.453125 7.46875 
Q 49.3125 8.734375 54.109375 11.28125 
L 54.109375 2.78125 
Q 49.265625 0.734375 44.1875 -0.34375 
Q 39.109375 -1.421875 33.890625 -1.421875 
Q 20.796875 -1.421875 13.15625 6.1875 
Q 5.515625 13.8125 5.515625 26.8125 
Q 5.515625 40.234375 12.765625 48.109375 
Q 20.015625 56 32.328125 56 
Q 43.359375 56 49.78125 48.890625 
Q 56.203125 41.796875 56.203125 29.59375 
z
M 47.21875 32.234375 
Q 47.125 39.59375 43.09375 43.984375 
Q 39.0625 48.390625 32.421875 48.390625 
Q 24.90625 48.390625 20.390625 44.140625 
Q 15.875 39.890625 15.1875 32.171875 
z
" id="DejaVuSans-101"/>
      <path id="DejaVuSans-32"/>
      <path d="M 31 75.875 
Q 24.46875 64.65625 21.28125 53.65625 
Q 18.109375 42.671875 18.109375 31.390625 
Q 18.109375 20.125 21.3125 9.0625 
Q 24.515625 -2 31 -13.1875 
L 23.1875 -13.1875 
Q 15.875 -1.703125 12.234375 9.375 
Q 8.59375 20.453125 8.59375 31.390625 
Q 8.59375 42.28125 12.203125 53.3125 
Q 15.828125 64.359375 23.1875 75.875 
z
" id="DejaVuSans-40"/>
      <path d="M 44.28125 53.078125 
L 44.28125 44.578125 
Q 40.484375 46.53125 36.375 47.5 
Q 32.28125 48.484375 27.875 48.484375 
Q 21.1875 48.484375 17.84375 46.4375 
Q 14.5 44.390625 14.5 40.28125 
Q 14.5 37.15625 16.890625 35.375 
Q 19.28125 33.59375 26.515625 31.984375 
L 29.59375 31.296875 
Q 39.15625 29.25 43.1875 25.515625 
Q 47.21875 21.78125 47.21875 15.09375 
Q 47.21875 7.46875 41.1875 3.015625 
Q 35.15625 -1.421875 24.609375 -1.421875 
Q 20.21875 -1.421875 15.453125 -0.5625 
Q 10.6875 0.296875 5.421875 2 
L 5.421875 11.28125 
Q 10.40625 8.6875 15.234375 7.390625 
Q 20.0625 6.109375 24.8125 6.109375 
Q 31.15625 6.109375 34.5625 8.28125 
Q 37.984375 10.453125 37.984375 14.40625 
Q 37.984375 18.0625 35.515625 20.015625 
Q 33.0625 21.96875 24.703125 23.78125 
L 21.578125 24.515625 
Q 13.234375 26.265625 9.515625 29.90625 
Q 5.8125 33.546875 5.8125 39.890625 
Q 5.8125 47.609375 11.28125 51.796875 
Q 16.75 56 26.8125 56 
Q 31.78125 56 36.171875 55.265625 
Q 40.578125 54.546875 44.28125 53.078125 
z
" id="DejaVuSans-115"/>
      <path d="M 8.015625 75.875 
L 15.828125 75.875 
Q 23.140625 64.359375 26.78125 53.3125 
Q 30.421875 42.28125 30.421875 31.390625 
Q 30.421875 20.453125 26.78125 9.375 
Q 23.140625 -1.703125 15.828125 -13.1875 
L 8.015625 -13.1875 
Q 14.5 -2 17.703125 9.0625 
Q 20.90625 20.125 20.90625 31.390625 
Q 20.90625 42.671875 17.703125 53.65625 
Q 14.5 64.65625 8.015625 75.875 
z
" id="DejaVuSans-41"/>
     </defs>
     <g transform="translate(302.60475 225.7955)scale(0.144 -0.144)">
      <use xlink:href="#DejaVuSans-84"/>
      <use x="61.037109" xlink:href="#DejaVuSans-105"/>
      <use x="88.820312" xlink:href="#DejaVuSans-109"/>
      <use x="186.232422" xlink:href="#DejaVuSans-101"/>
      <use x="247.755859" xlink:href="#DejaVuSans-32"/>
      <use x="279.542969" xlink:href="#DejaVuSans-40"/>
      <use x="318.556641" xlink:href="#DejaVuSans-115"/>
      <use x="370.65625" xlink:href="#DejaVuSans-41"/>
     </g>
    </g>
   </g>
   <g id="matplotlib.axis_2">
    <g id="ytick_1">
     <g id="line2d_6">
      <defs>
       <path d="M 0 0 
L -3.5 0 
" id="mfbf36a7a3c" style="stroke:#000000;stroke-width:0.8;"/>
      </defs>
      <g>
       <use style="stroke:#000000;stroke-width:0.8;" x="81" xlink:href="#mfbf36a7a3c" y="177.43343"/>
      </g>
     </g>
     <g id="text_7">
      <!-- 0.8 -->
      <defs>
       <path d="M 31.78125 34.625 
Q 24.75 34.625 20.71875 30.859375 
Q 16.703125 27.09375 16.703125 20.515625 
Q 16.703125 13.921875 20.71875 10.15625 
Q 24.75 6.390625 31.78125 6.390625 
Q 38.8125 6.390625 42.859375 10.171875 
Q 46.921875 13.96875 46.921875 20.515625 
Q 46.921875 27.09375 42.890625 30.859375 
Q 38.875 34.625 31.78125 34.625 
z
M 21.921875 38.8125 
Q 15.578125 40.375 12.03125 44.71875 
Q 8.5 49.078125 8.5 55.328125 
Q 8.5 64.0625 14.71875 69.140625 
Q 20.953125 74.21875 31.78125 74.21875 
Q 42.671875 74.21875 48.875 69.140625 
Q 55.078125 64.0625 55.078125 55.328125 
Q 55.078125 49.078125 51.53125 44.71875 
Q 48 40.375 41.703125 38.8125 
Q 48.828125 37.15625 52.796875 32.3125 
Q 56.78125 27.484375 56.78125 20.515625 
Q 56.78125 9.90625 50.3125 4.234375 
Q 43.84375 -1.421875 31.78125 -1.421875 
Q 19.734375 -1.421875 13.25 4.234375 
Q 6.78125 9.90625 6.78125 20.515625 
Q 6.78125 27.484375 10.78125 32.3125 
Q 14.796875 37.15625 21.921875 38.8125 
z
M 18.3125 54.390625 
Q 18.3125 48.734375 21.84375 45.5625 
Q 25.390625 42.390625 31.78125 42.390625 
Q 38.140625 42.390625 41.71875 45.5625 
Q 45.3125 48.734375 45.3125 54.390625 
Q 45.3125 60.0625 41.71875 63.234375 
Q 38.140625 66.40625 31.78125 66.40625 
Q 25.390625 66.40625 21.84375 63.234375 
Q 18.3125 60.0625 18.3125 54.390625 
z
" id="DejaVuSans-56"/>
      </defs>
      <g transform="translate(54.91625 181.992492)scale(0.12 -0.12)">
       <use xlink:href="#DejaVuSans-48"/>
       <use x="63.623047" xlink:href="#DejaVuSans-46"/>
       <use x="95.410156" xlink:href="#DejaVuSans-56"/>
      </g>
     </g>
    </g>
    <g id="ytick_2">
     <g id="line2d_7">
      <g>
       <use style="stroke:#000000;stroke-width:0.8;" x="81" xlink:href="#mfbf36a7a3c" y="142.402028"/>
      </g>
     </g>
     <g id="text_8">
      <!-- 1.0 -->
      <g transform="translate(54.91625 146.961091)scale(0.12 -0.12)">
       <use xlink:href="#DejaVuSans-49"/>
       <use x="63.623047" xlink:href="#DejaVuSans-46"/>
       <use x="95.410156" xlink:href="#DejaVuSans-48"/>
      </g>
     </g>
    </g>
    <g id="ytick_3">
     <g id="line2d_8">
      <g>
       <use style="stroke:#000000;stroke-width:0.8;" x="81" xlink:href="#mfbf36a7a3c" y="107.370627"/>
      </g>
     </g>
     <g id="text_9">
      <!-- 1.2 -->
      <g transform="translate(54.91625 111.92969)scale(0.12 -0.12)">
       <use xlink:href="#DejaVuSans-49"/>
       <use x="63.623047" xlink:href="#DejaVuSans-46"/>
       <use x="95.410156" xlink:href="#DejaVuSans-50"/>
      </g>
     </g>
    </g>
    <g id="ytick_4">
     <g id="line2d_9">
      <g>
       <use style="stroke:#000000;stroke-width:0.8;" x="81" xlink:href="#mfbf36a7a3c" y="72.339226"/>
      </g>
     </g>
     <g id="text_10">
      <!-- 1.4 -->
      <defs>
       <path d="M 37.796875 64.3125 
L 12.890625 25.390625 
L 37.796875 25.390625 
z
M 35.203125 72.90625 
L 47.609375 72.90625 
L 47.609375 25.390625 
L 58.015625 25.390625 
L 58.015625 17.1875 
L 47.609375 17.1875 
L 47.609375 0 
L 37.796875 0 
L 37.796875 17.1875 
L 4.890625 17.1875 
L 4.890625 26.703125 
z
" id="DejaVuSans-52"/>
      </defs>
      <g transform="translate(54.91625 76.898289)scale(0.12 -0.12)">
       <use xlink:href="#DejaVuSans-49"/>
       <use x="63.623047" xlink:href="#DejaVuSans-46"/>
       <use x="95.410156" xlink:href="#DejaVuSans-52"/>
      </g>
     </g>
    </g>
    <g id="ytick_5">
     <g id="line2d_10">
      <g>
       <use style="stroke:#000000;stroke-width:0.8;" x="81" xlink:href="#mfbf36a7a3c" y="37.307825"/>
      </g>
     </g>
     <g id="text_11">
      <!-- 1.6 -->
      <defs>
       <path d="M 33.015625 40.375 
Q 26.375 40.375 22.484375 35.828125 
Q 18.609375 31.296875 18.609375 23.390625 
Q 18.609375 15.53125 22.484375 10.953125 
Q 26.375 6.390625 33.015625 6.390625 
Q 39.65625 6.390625 43.53125 10.953125 
Q 47.40625 15.53125 47.40625 23.390625 
Q 47.40625 31.296875 43.53125 35.828125 
Q 39.65625 40.375 33.015625 40.375 
z
M 52.59375 71.296875 
L 52.59375 62.3125 
Q 48.875 64.0625 45.09375 64.984375 
Q 41.3125 65.921875 37.59375 65.921875 
Q 27.828125 65.921875 22.671875 59.328125 
Q 17.53125 52.734375 16.796875 39.40625 
Q 19.671875 43.65625 24.015625 45.921875 
Q 28.375 48.1875 33.59375 48.1875 
Q 44.578125 48.1875 50.953125 41.515625 
Q 57.328125 34.859375 57.328125 23.390625 
Q 57.328125 12.15625 50.6875 5.359375 
Q 44.046875 -1.421875 33.015625 -1.421875 
Q 20.359375 -1.421875 13.671875 8.265625 
Q 6.984375 17.96875 6.984375 36.375 
Q 6.984375 53.65625 15.1875 63.9375 
Q 23.390625 74.21875 37.203125 74.21875 
Q 40.921875 74.21875 44.703125 73.484375 
Q 48.484375 72.75 52.59375 71.296875 
z
" id="DejaVuSans-54"/>
      </defs>
      <g transform="translate(54.91625 41.866887)scale(0.12 -0.12)">
       <use xlink:href="#DejaVuSans-49"/>
       <use x="63.623047" xlink:href="#DejaVuSans-46"/>
       <use x="95.410156" xlink:href="#DejaVuSans-54"/>
      </g>
     </g>
    </g>
    <g id="text_12">
     <!-- Act. Cells Moving Var. -->
     <defs>
      <path d="M 34.1875 63.1875 
L 20.796875 26.90625 
L 47.609375 26.90625 
z
M 28.609375 72.90625 
L 39.796875 72.90625 
L 67.578125 0 
L 57.328125 0 
L 50.6875 18.703125 
L 17.828125 18.703125 
L 11.1875 0 
L 0.78125 0 
z
" id="DejaVuSans-65"/>
      <path d="M 48.78125 52.59375 
L 48.78125 44.1875 
Q 44.96875 46.296875 41.140625 47.34375 
Q 37.3125 48.390625 33.40625 48.390625 
Q 24.65625 48.390625 19.8125 42.84375 
Q 14.984375 37.3125 14.984375 27.296875 
Q 14.984375 17.28125 19.8125 11.734375 
Q 24.65625 6.203125 33.40625 6.203125 
Q 37.3125 6.203125 41.140625 7.25 
Q 44.96875 8.296875 48.78125 10.40625 
L 48.78125 2.09375 
Q 45.015625 0.34375 40.984375 -0.53125 
Q 36.96875 -1.421875 32.421875 -1.421875 
Q 20.0625 -1.421875 12.78125 6.34375 
Q 5.515625 14.109375 5.515625 27.296875 
Q 5.515625 40.671875 12.859375 48.328125 
Q 20.21875 56 33.015625 56 
Q 37.15625 56 41.109375 55.140625 
Q 45.0625 54.296875 48.78125 52.59375 
z
" id="DejaVuSans-99"/>
      <path d="M 18.3125 70.21875 
L 18.3125 54.6875 
L 36.8125 54.6875 
L 36.8125 47.703125 
L 18.3125 47.703125 
L 18.3125 18.015625 
Q 18.3125 11.328125 20.140625 9.421875 
Q 21.96875 7.515625 27.59375 7.515625 
L 36.8125 7.515625 
L 36.8125 0 
L 27.59375 0 
Q 17.1875 0 13.234375 3.875 
Q 9.28125 7.765625 9.28125 18.015625 
L 9.28125 47.703125 
L 2.6875 47.703125 
L 2.6875 54.6875 
L 9.28125 54.6875 
L 9.28125 70.21875 
z
" id="DejaVuSans-116"/>
      <path d="M 64.40625 67.28125 
L 64.40625 56.890625 
Q 59.421875 61.53125 53.78125 63.8125 
Q 48.140625 66.109375 41.796875 66.109375 
Q 29.296875 66.109375 22.65625 58.46875 
Q 16.015625 50.828125 16.015625 36.375 
Q 16.015625 21.96875 22.65625 14.328125 
Q 29.296875 6.6875 41.796875 6.6875 
Q 48.140625 6.6875 53.78125 8.984375 
Q 59.421875 11.28125 64.40625 15.921875 
L 64.40625 5.609375 
Q 59.234375 2.09375 53.4375 0.328125 
Q 47.65625 -1.421875 41.21875 -1.421875 
Q 24.65625 -1.421875 15.125 8.703125 
Q 5.609375 18.84375 5.609375 36.375 
Q 5.609375 53.953125 15.125 64.078125 
Q 24.65625 74.21875 41.21875 74.21875 
Q 47.75 74.21875 53.53125 72.484375 
Q 59.328125 70.75 64.40625 67.28125 
z
" id="DejaVuSans-67"/>
      <path d="M 9.421875 75.984375 
L 18.40625 75.984375 
L 18.40625 0 
L 9.421875 0 
z
" id="DejaVuSans-108"/>
      <path d="M 9.8125 72.90625 
L 24.515625 72.90625 
L 43.109375 23.296875 
L 61.8125 72.90625 
L 76.515625 72.90625 
L 76.515625 0 
L 66.890625 0 
L 66.890625 64.015625 
L 48.09375 14.015625 
L 38.1875 14.015625 
L 19.390625 64.015625 
L 19.390625 0 
L 9.8125 0 
z
" id="DejaVuSans-77"/>
      <path d="M 30.609375 48.390625 
Q 23.390625 48.390625 19.1875 42.75 
Q 14.984375 37.109375 14.984375 27.296875 
Q 14.984375 17.484375 19.15625 11.84375 
Q 23.34375 6.203125 30.609375 6.203125 
Q 37.796875 6.203125 41.984375 11.859375 
Q 46.1875 17.53125 46.1875 27.296875 
Q 46.1875 37.015625 41.984375 42.703125 
Q 37.796875 48.390625 30.609375 48.390625 
z
M 30.609375 56 
Q 42.328125 56 49.015625 48.375 
Q 55.71875 40.765625 55.71875 27.296875 
Q 55.71875 13.875 49.015625 6.21875 
Q 42.328125 -1.421875 30.609375 -1.421875 
Q 18.84375 -1.421875 12.171875 6.21875 
Q 5.515625 13.875 5.515625 27.296875 
Q 5.515625 40.765625 12.171875 48.375 
Q 18.84375 56 30.609375 56 
z
" id="DejaVuSans-111"/>
      <path d="M 2.984375 54.6875 
L 12.5 54.6875 
L 29.59375 8.796875 
L 46.6875 54.6875 
L 56.203125 54.6875 
L 35.6875 0 
L 23.484375 0 
z
" id="DejaVuSans-118"/>
      <path d="M 54.890625 33.015625 
L 54.890625 0 
L 45.90625 0 
L 45.90625 32.71875 
Q 45.90625 40.484375 42.875 44.328125 
Q 39.84375 48.1875 33.796875 48.1875 
Q 26.515625 48.1875 22.3125 43.546875 
Q 18.109375 38.921875 18.109375 30.90625 
L 18.109375 0 
L 9.078125 0 
L 9.078125 54.6875 
L 18.109375 54.6875 
L 18.109375 46.1875 
Q 21.34375 51.125 25.703125 53.5625 
Q 30.078125 56 35.796875 56 
Q 45.21875 56 50.046875 50.171875 
Q 54.890625 44.34375 54.890625 33.015625 
z
" id="DejaVuSans-110"/>
      <path d="M 45.40625 27.984375 
Q 45.40625 37.75 41.375 43.109375 
Q 37.359375 48.484375 30.078125 48.484375 
Q 22.859375 48.484375 18.828125 43.109375 
Q 14.796875 37.75 14.796875 27.984375 
Q 14.796875 18.265625 18.828125 12.890625 
Q 22.859375 7.515625 30.078125 7.515625 
Q 37.359375 7.515625 41.375 12.890625 
Q 45.40625 18.265625 45.40625 27.984375 
z
M 54.390625 6.78125 
Q 54.390625 -7.171875 48.1875 -13.984375 
Q 42 -20.796875 29.203125 -20.796875 
Q 24.46875 -20.796875 20.265625 -20.09375 
Q 16.0625 -19.390625 12.109375 -17.921875 
L 12.109375 -9.1875 
Q 16.0625 -11.328125 19.921875 -12.34375 
Q 23.78125 -13.375 27.78125 -13.375 
Q 36.625 -13.375 41.015625 -8.765625 
Q 45.40625 -4.15625 45.40625 5.171875 
L 45.40625 9.625 
Q 42.625 4.78125 38.28125 2.390625 
Q 33.9375 0 27.875 0 
Q 17.828125 0 11.671875 7.65625 
Q 5.515625 15.328125 5.515625 27.984375 
Q 5.515625 40.671875 11.671875 48.328125 
Q 17.828125 56 27.875 56 
Q 33.9375 56 38.28125 53.609375 
Q 42.625 51.21875 45.40625 46.390625 
L 45.40625 54.6875 
L 54.390625 54.6875 
z
" id="DejaVuSans-103"/>
      <path d="M 28.609375 0 
L 0.78125 72.90625 
L 11.078125 72.90625 
L 34.1875 11.53125 
L 57.328125 72.90625 
L 67.578125 72.90625 
L 39.796875 0 
z
" id="DejaVuSans-86"/>
      <path d="M 34.28125 27.484375 
Q 23.390625 27.484375 19.1875 25 
Q 14.984375 22.515625 14.984375 16.5 
Q 14.984375 11.71875 18.140625 8.90625 
Q 21.296875 6.109375 26.703125 6.109375 
Q 34.1875 6.109375 38.703125 11.40625 
Q 43.21875 16.703125 43.21875 25.484375 
L 43.21875 27.484375 
z
M 52.203125 31.203125 
L 52.203125 0 
L 43.21875 0 
L 43.21875 8.296875 
Q 40.140625 3.328125 35.546875 0.953125 
Q 30.953125 -1.421875 24.3125 -1.421875 
Q 15.921875 -1.421875 10.953125 3.296875 
Q 6 8.015625 6 15.921875 
Q 6 25.140625 12.171875 29.828125 
Q 18.359375 34.515625 30.609375 34.515625 
L 43.21875 34.515625 
L 43.21875 35.40625 
Q 43.21875 41.609375 39.140625 45 
Q 35.0625 48.390625 27.6875 48.390625 
Q 23 48.390625 18.546875 47.265625 
Q 14.109375 46.140625 10.015625 43.890625 
L 10.015625 52.203125 
Q 14.9375 54.109375 19.578125 55.046875 
Q 24.21875 56 28.609375 56 
Q 40.484375 56 46.34375 49.84375 
Q 52.203125 43.703125 52.203125 31.203125 
z
" id="DejaVuSans-97"/>
      <path d="M 41.109375 46.296875 
Q 39.59375 47.171875 37.8125 47.578125 
Q 36.03125 48 33.890625 48 
Q 26.265625 48 22.1875 43.046875 
Q 18.109375 38.09375 18.109375 28.8125 
L 18.109375 0 
L 9.078125 0 
L 9.078125 54.6875 
L 18.109375 54.6875 
L 18.109375 46.1875 
Q 20.953125 51.171875 25.484375 53.578125 
Q 30.03125 56 36.53125 56 
Q 37.453125 56 38.578125 55.875 
Q 39.703125 55.765625 41.0625 55.515625 
z
" id="DejaVuSans-114"/>
     </defs>
     <g transform="translate(47.9215 187.72875)rotate(-90)scale(0.144 -0.144)">
      <use xlink:href="#DejaVuSans-65"/>
      <use x="68.392578" xlink:href="#DejaVuSans-99"/>
      <use x="123.373047" xlink:href="#DejaVuSans-116"/>
      <use x="162.582031" xlink:href="#DejaVuSans-46"/>
      <use x="194.369141" xlink:href="#DejaVuSans-32"/>
      <use x="226.15625" xlink:href="#DejaVuSans-67"/>
      <use x="295.980469" xlink:href="#DejaVuSans-101"/>
      <use x="357.503906" xlink:href="#DejaVuSans-108"/>
      <use x="385.287109" xlink:href="#DejaVuSans-108"/>
      <use x="413.070312" xlink:href="#DejaVuSans-115"/>
      <use x="465.169922" xlink:href="#DejaVuSans-32"/>
      <use x="496.957031" xlink:href="#DejaVuSans-77"/>
      <use x="583.236328" xlink:href="#DejaVuSans-111"/>
      <use x="644.417969" xlink:href="#DejaVuSans-118"/>
      <use x="703.597656" xlink:href="#DejaVuSans-105"/>
      <use x="731.380859" xlink:href="#DejaVuSans-110"/>
      <use x="794.759766" xlink:href="#DejaVuSans-103"/>
      <use x="858.236328" xlink:href="#DejaVuSans-32"/>
      <use x="890.023438" xlink:href="#DejaVuSans-86"/>
      <use x="958.322266" xlink:href="#DejaVuSans-97"/>
      <use x="1019.601562" xlink:href="#DejaVuSans-114"/>
      <use x="1060.574219" xlink:href="#DejaVuSans-46"/>
     </g>
    </g>
   </g>
   <g id="line2d_11">
    <path clip-path="url(#p685708c80d)" d="M 81 146.663598 
L 83.049796 150.186006 
L 85.099592 157.188783 
L 87.149388 157.782565 
L 89.199184 151.599523 
L 91.24898 151.518951 
L 93.298776 150.207025 
L 95.348571 154.116529 
L 97.398367 146.50946 
L 99.448163 144.884003 
L 101.497959 137.560689 
L 103.547755 136.840793 
L 105.597551 142.144548 
L 107.647347 146.020772 
L 109.697143 149.121051 
L 111.746939 149.159586 
L 113.796735 154.328469 
L 115.846531 154.438818 
L 117.896327 161.77089 
L 119.946122 163.664337 
L 121.995918 175.566256 
L 124.045714 179.319871 
L 126.09551 174.445251 
L 128.145306 174.961964 
L 130.195102 164.543626 
L 132.244898 160.063109 
L 134.294694 153.550772 
L 136.34449 150.320877 
L 138.394286 145.356927 
L 140.444082 145.232566 
L 142.493878 141.648853 
L 144.543673 134.858016 
L 146.593469 130.32145 
L 148.643265 126.71847 
L 150.693061 137.303208 
L 154.792653 144.253438 
L 156.842449 143.845322 
L 158.892245 154.118281 
L 160.942041 153.04632 
L 162.991837 144.544199 
L 165.041633 144.638783 
L 167.091429 151.464652 
L 169.141224 148.732203 
L 171.19102 144.524931 
L 173.240816 141.626083 
L 175.290612 139.736139 
L 177.340408 141.172426 
L 179.390204 127.067033 
L 181.44 118.804877 
L 183.489796 120.887493 
L 185.539592 119.805023 
L 187.589388 126.485511 
L 189.639184 134.752922 
L 191.68898 135.483327 
L 193.738776 133.689719 
L 195.788571 130.703292 
L 197.838367 128.543606 
L 199.888163 132.064262 
L 201.937959 125.646509 
L 203.987755 121.826335 
L 206.037551 126.203509 
L 208.087347 125.275176 
L 210.137143 124.895086 
L 212.186939 125.14556 
L 214.236735 130.272406 
L 216.286531 127.608268 
L 218.336327 126.32787 
L 220.386122 125.62549 
L 222.435918 132.309482 
L 224.485714 147.3905 
L 226.53551 139.951582 
L 228.585306 129.125127 
L 230.635102 119.405665 
L 232.684898 113.220871 
L 236.78449 104.391207 
L 238.834286 109.278087 
L 240.884082 107.342602 
L 244.983673 106.909964 
L 247.033469 109.86136 
L 249.083265 113.178834 
L 251.133061 124.958142 
L 253.182857 134.178407 
L 255.232653 138.214024 
L 257.282449 148.625357 
L 259.332245 144.402321 
L 261.382041 148.68491 
L 263.431837 149.842698 
L 265.481633 146.076822 
L 267.531429 150.813068 
L 269.581224 156.314749 
L 271.63102 154.267164 
L 275.730612 158.523479 
L 277.780408 157.651197 
L 279.830204 161.23491 
L 281.88 161.509906 
L 283.929796 161.35752 
L 285.979592 161.578217 
L 288.029388 160.805775 
L 290.079184 162.665942 
L 292.12898 158.766947 
L 296.228571 163.331539 
L 298.278367 164.540122 
L 300.328163 168.023995 
L 302.377959 172.465977 
L 304.427755 170.474442 
L 306.477551 169.582893 
L 308.527347 166.025454 
L 310.577143 162.70798 
L 312.626939 166.526403 
L 314.676735 167.09216 
L 316.726531 171.083988 
L 318.776327 168.246445 
L 320.826122 162.031874 
L 322.875918 153.570039 
L 324.925714 149.304966 
L 326.97551 141.89057 
L 329.025306 146.341309 
L 331.075102 143.092147 
L 333.124898 148.931882 
L 335.174694 143.727967 
L 337.22449 137.753361 
L 339.274286 141.309049 
L 341.324082 143.290074 
L 343.373878 140.783578 
L 345.423673 143.339118 
L 347.473469 137.331233 
L 349.523265 135.483327 
L 351.573061 137.142064 
L 353.622857 133.292113 
L 355.672653 138.05288 
L 357.722449 139.31401 
L 359.772245 139.278979 
L 361.822041 142.890716 
L 363.871837 146.265992 
L 365.921633 151.098574 
L 367.971429 166.55618 
L 370.021224 163.788699 
L 372.07102 165.727687 
L 374.120816 164.053186 
L 376.170612 164.06895 
L 378.220408 161.793661 
L 380.270204 159.893207 
L 382.32 158.255489 
L 384.369796 158.600548 
L 386.419592 150.094924 
L 388.469388 147.584924 
L 390.519184 148.909111 
L 392.56898 143.640388 
L 394.618776 143.248037 
L 396.668571 144.008218 
L 398.718367 151.19491 
L 400.768163 153.846787 
L 402.817959 146.050549 
L 404.867755 145.398965 
L 406.917551 145.316641 
L 408.967347 143.973187 
L 411.017143 141.605064 
L 413.066939 141.901079 
L 415.116735 150.298106 
L 417.166531 149.974066 
L 419.216327 141.641847 
L 421.266122 137.60623 
L 423.315918 134.900054 
L 425.365714 137.452091 
L 427.41551 139.77117 
L 429.465306 140.669726 
L 431.515102 140.667974 
L 433.564898 145.321896 
L 435.614694 142.302189 
L 437.66449 135.381736 
L 439.714286 139.834227 
L 441.764082 143.587841 
L 443.813878 154.727827 
L 445.863673 151.308762 
L 447.913469 158.241476 
L 449.963265 146.089083 
L 452.013061 133.055651 
L 454.062857 115.979594 
L 456.112653 96.213126 
L 458.162449 86.083796 
L 460.212245 78.184215 
L 462.262041 80.85536 
L 464.311837 85.947174 
L 466.361633 97.264068 
L 468.411429 100.271514 
L 470.461224 105.680362 
L 472.51102 102.538045 
L 476.610612 127.303495 
L 478.660408 141.822259 
L 480.710204 153.774973 
L 482.76 154.165573 
L 484.809796 153.591058 
L 486.859592 144.775406 
L 488.909388 143.92064 
L 490.959184 146.068065 
L 495.058776 156.805189 
L 497.108571 160.238266 
L 499.158367 157.300883 
L 501.208163 162.564351 
L 503.257959 160.490492 
L 505.307755 169.405984 
L 507.357551 174.797317 
L 509.407347 169.155509 
L 511.457143 163.87978 
L 513.506939 157.568874 
L 515.556735 154.522893 
L 517.606531 148.329341 
L 519.656327 140.419251 
L 521.706122 139.872761 
L 523.755918 131.416181 
L 525.805714 117.317794 
L 527.85551 109.777285 
L 529.905306 116.634681 
L 531.955102 110.21868 
L 534.004898 113.953028 
L 536.054694 114.483753 
L 538.10449 114.637891 
L 540.154286 124.786488 
L 542.204082 123.576153 
L 544.253878 132.46362 
L 546.303673 144.598497 
L 548.353469 146.470926 
L 550.403265 147.478078 
L 552.453061 159.884449 
L 554.502857 155.179732 
L 556.552653 153.633096 
L 558.602449 148.241763 
L 560.652245 146.504205 
L 562.702041 136.085867 
L 564.751837 136.520256 
L 566.801633 131.764743 
L 568.851429 135.75482 
L 570.901224 138.49953 
L 572.95102 138.429468 
L 575.000816 143.906627 
L 577.050612 144.386557 
L 579.100408 141.669872 
L 581.150204 131.95041 
L 583.2 136.11214 
L 583.2 136.11214 
" style="fill:none;stroke:#0000ff;stroke-linecap:square;stroke-width:1.5;"/>
   </g>
   <g id="patch_3">
    <path d="M 81 192.24 
L 81 25.92 
" style="fill:none;stroke:#000000;stroke-linecap:square;stroke-linejoin:miter;stroke-width:0.8;"/>
   </g>
   <g id="patch_4">
    <path d="M 583.2 192.24 
L 583.2 25.92 
" style="fill:none;stroke:#000000;stroke-linecap:square;stroke-linejoin:miter;stroke-width:0.8;"/>
   </g>
   <g id="patch_5">
    <path d="M 81 192.24 
L 583.2 192.24 
" style="fill:none;stroke:#000000;stroke-linecap:square;stroke-linejoin:miter;stroke-width:0.8;"/>
   </g>
   <g id="patch_6">
    <path d="M 81 25.92 
L 583.2 25.92 
" style="fill:none;stroke:#000000;stroke-linecap:square;stroke-linejoin:miter;stroke-width:0.8;"/>
   </g>
   <g id="text_13">
    <!-- Motor cortex, Num Trials=10 All unstimulated trials -->
    <defs>
     <path d="M 54.890625 54.6875 
L 35.109375 28.078125 
L 55.90625 0 
L 45.3125 0 
L 29.390625 21.484375 
L 13.484375 0 
L 2.875 0 
L 24.125 28.609375 
L 4.6875 54.6875 
L 15.28125 54.6875 
L 29.78125 35.203125 
L 44.28125 54.6875 
z
" id="DejaVuSans-120"/>
     <path d="M 11.71875 12.40625 
L 22.015625 12.40625 
L 22.015625 4 
L 14.015625 -11.625 
L 7.71875 -11.625 
L 11.71875 4 
z
" id="DejaVuSans-44"/>
     <path d="M 9.8125 72.90625 
L 23.09375 72.90625 
L 55.421875 11.921875 
L 55.421875 72.90625 
L 64.984375 72.90625 
L 64.984375 0 
L 51.703125 0 
L 19.390625 60.984375 
L 19.390625 0 
L 9.8125 0 
z
" id="DejaVuSans-78"/>
     <path d="M 8.5 21.578125 
L 8.5 54.6875 
L 17.484375 54.6875 
L 17.484375 21.921875 
Q 17.484375 14.15625 20.5 10.265625 
Q 23.53125 6.390625 29.59375 6.390625 
Q 36.859375 6.390625 41.078125 11.03125 
Q 45.3125 15.671875 45.3125 23.6875 
L 45.3125 54.6875 
L 54.296875 54.6875 
L 54.296875 0 
L 45.3125 0 
L 45.3125 8.40625 
Q 42.046875 3.421875 37.71875 1 
Q 33.40625 -1.421875 27.6875 -1.421875 
Q 18.265625 -1.421875 13.375 4.4375 
Q 8.5 10.296875 8.5 21.578125 
z
M 31.109375 56 
z
" id="DejaVuSans-117"/>
     <path d="M 10.59375 45.40625 
L 73.1875 45.40625 
L 73.1875 37.203125 
L 10.59375 37.203125 
z
M 10.59375 25.484375 
L 73.1875 25.484375 
L 73.1875 17.1875 
L 10.59375 17.1875 
z
" id="DejaVuSans-61"/>
     <path d="M 45.40625 46.390625 
L 45.40625 75.984375 
L 54.390625 75.984375 
L 54.390625 0 
L 45.40625 0 
L 45.40625 8.203125 
Q 42.578125 3.328125 38.25 0.953125 
Q 33.9375 -1.421875 27.875 -1.421875 
Q 17.96875 -1.421875 11.734375 6.484375 
Q 5.515625 14.40625 5.515625 27.296875 
Q 5.515625 40.1875 11.734375 48.09375 
Q 17.96875 56 27.875 56 
Q 33.9375 56 38.25 53.625 
Q 42.578125 51.265625 45.40625 46.390625 
z
M 14.796875 27.296875 
Q 14.796875 17.390625 18.875 11.75 
Q 22.953125 6.109375 30.078125 6.109375 
Q 37.203125 6.109375 41.296875 11.75 
Q 45.40625 17.390625 45.40625 27.296875 
Q 45.40625 37.203125 41.296875 42.84375 
Q 37.203125 48.484375 30.078125 48.484375 
Q 22.953125 48.484375 18.875 42.84375 
Q 14.796875 37.203125 14.796875 27.296875 
z
" id="DejaVuSans-100"/>
    </defs>
    <g transform="translate(177.343125 19.92)scale(0.12 -0.12)">
     <use xlink:href="#DejaVuSans-77"/>
     <use x="86.279297" xlink:href="#DejaVuSans-111"/>
     <use x="147.460938" xlink:href="#DejaVuSans-116"/>
     <use x="186.669922" xlink:href="#DejaVuSans-111"/>
     <use x="247.851562" xlink:href="#DejaVuSans-114"/>
     <use x="288.964844" xlink:href="#DejaVuSans-32"/>
     <use x="320.751953" xlink:href="#DejaVuSans-99"/>
     <use x="375.732422" xlink:href="#DejaVuSans-111"/>
     <use x="436.914062" xlink:href="#DejaVuSans-114"/>
     <use x="478.027344" xlink:href="#DejaVuSans-116"/>
     <use x="517.236328" xlink:href="#DejaVuSans-101"/>
     <use x="578.744141" xlink:href="#DejaVuSans-120"/>
     <use x="637.923828" xlink:href="#DejaVuSans-44"/>
     <use x="669.710938" xlink:href="#DejaVuSans-32"/>
     <use x="701.498047" xlink:href="#DejaVuSans-78"/>
     <use x="776.302734" xlink:href="#DejaVuSans-117"/>
     <use x="839.681641" xlink:href="#DejaVuSans-109"/>
     <use x="937.09375" xlink:href="#DejaVuSans-32"/>
     <use x="968.880859" xlink:href="#DejaVuSans-84"/>
     <use x="1029.746094" xlink:href="#DejaVuSans-114"/>
     <use x="1070.859375" xlink:href="#DejaVuSans-105"/>
     <use x="1098.642578" xlink:href="#DejaVuSans-97"/>
     <use x="1159.921875" xlink:href="#DejaVuSans-108"/>
     <use x="1187.705078" xlink:href="#DejaVuSans-115"/>
     <use x="1239.804688" xlink:href="#DejaVuSans-61"/>
     <use x="1323.59375" xlink:href="#DejaVuSans-49"/>
     <use x="1387.216797" xlink:href="#DejaVuSans-48"/>
     <use x="1450.839844" xlink:href="#DejaVuSans-32"/>
     <use x="1482.626953" xlink:href="#DejaVuSans-65"/>
     <use x="1551.035156" xlink:href="#DejaVuSans-108"/>
     <use x="1578.818359" xlink:href="#DejaVuSans-108"/>
     <use x="1606.601562" xlink:href="#DejaVuSans-32"/>
     <use x="1638.388672" xlink:href="#DejaVuSans-117"/>
     <use x="1701.767578" xlink:href="#DejaVuSans-110"/>
     <use x="1765.146484" xlink:href="#DejaVuSans-115"/>
     <use x="1817.246094" xlink:href="#DejaVuSans-116"/>
     <use x="1856.455078" xlink:href="#DejaVuSans-105"/>
     <use x="1884.238281" xlink:href="#DejaVuSans-109"/>
     <use x="1981.650391" xlink:href="#DejaVuSans-117"/>
     <use x="2045.029297" xlink:href="#DejaVuSans-108"/>
     <use x="2072.8125" xlink:href="#DejaVuSans-97"/>
     <use x="2134.091797" xlink:href="#DejaVuSans-116"/>
     <use x="2173.300781" xlink:href="#DejaVuSans-101"/>
     <use x="2234.824219" xlink:href="#DejaVuSans-100"/>
     <use x="2298.300781" xlink:href="#DejaVuSans-32"/>
     <use x="2330.087891" xlink:href="#DejaVuSans-116"/>
     <use x="2369.296875" xlink:href="#DejaVuSans-114"/>
     <use x="2410.410156" xlink:href="#DejaVuSans-105"/>
     <use x="2438.193359" xlink:href="#DejaVuSans-97"/>
     <use x="2499.472656" xlink:href="#DejaVuSans-108"/>
     <use x="2527.255859" xlink:href="#DejaVuSans-115"/>
    </g>
   </g>
   <g id="legend_1">
    <g id="patch_7">
     <path d="M 464.95125 70.7475 
L 574.8 70.7475 
Q 577.2 70.7475 577.2 68.3475 
L 577.2 34.32 
Q 577.2 31.92 574.8 31.92 
L 464.95125 31.92 
Q 462.55125 31.92 462.55125 34.32 
L 462.55125 68.3475 
Q 462.55125 70.7475 464.95125 70.7475 
z
" style="fill:#ffffff;opacity:0.8;stroke:#cccccc;stroke-linejoin:miter;"/>
    </g>
    <g id="line2d_12">
     <path d="M 467.35125 41.638125 
L 491.35125 41.638125 
" style="fill:none;stroke:#0000ff;stroke-linecap:square;stroke-width:1.5;"/>
    </g>
    <g id="line2d_13"/>
    <g id="text_14">
     <!-- Moving Var. -->
     <g transform="translate(500.95125 45.838125)scale(0.12 -0.12)">
      <use xlink:href="#DejaVuSans-77"/>
      <use x="86.279297" xlink:href="#DejaVuSans-111"/>
      <use x="147.460938" xlink:href="#DejaVuSans-118"/>
      <use x="206.640625" xlink:href="#DejaVuSans-105"/>
      <use x="234.423828" xlink:href="#DejaVuSans-110"/>
      <use x="297.802734" xlink:href="#DejaVuSans-103"/>
      <use x="361.279297" xlink:href="#DejaVuSans-32"/>
      <use x="393.066406" xlink:href="#DejaVuSans-86"/>
      <use x="461.365234" xlink:href="#DejaVuSans-97"/>
      <use x="522.644531" xlink:href="#DejaVuSans-114"/>
      <use x="563.617188" xlink:href="#DejaVuSans-46"/>
     </g>
    </g>
    <g id="patch_8">
     <path d="M 467.35125 63.451875 
L 491.35125 63.451875 
L 491.35125 55.051875 
L 467.35125 55.051875 
z
" style="fill:#0000ff;opacity:0.3;stroke:#0000ff;stroke-linejoin:miter;"/>
    </g>
    <g id="text_15">
     <!-- Std. Err. -->
     <defs>
      <path d="M 53.515625 70.515625 
L 53.515625 60.890625 
Q 47.90625 63.578125 42.921875 64.890625 
Q 37.9375 66.21875 33.296875 66.21875 
Q 25.25 66.21875 20.875 63.09375 
Q 16.5 59.96875 16.5 54.203125 
Q 16.5 49.359375 19.40625 46.890625 
Q 22.3125 44.4375 30.421875 42.921875 
L 36.375 41.703125 
Q 47.40625 39.59375 52.65625 34.296875 
Q 57.90625 29 57.90625 20.125 
Q 57.90625 9.515625 50.796875 4.046875 
Q 43.703125 -1.421875 29.984375 -1.421875 
Q 24.8125 -1.421875 18.96875 -0.25 
Q 13.140625 0.921875 6.890625 3.21875 
L 6.890625 13.375 
Q 12.890625 10.015625 18.65625 8.296875 
Q 24.421875 6.59375 29.984375 6.59375 
Q 38.421875 6.59375 43.015625 9.90625 
Q 47.609375 13.234375 47.609375 19.390625 
Q 47.609375 24.75 44.3125 27.78125 
Q 41.015625 30.8125 33.5 32.328125 
L 27.484375 33.5 
Q 16.453125 35.6875 11.515625 40.375 
Q 6.59375 45.0625 6.59375 53.421875 
Q 6.59375 63.09375 13.40625 68.65625 
Q 20.21875 74.21875 32.171875 74.21875 
Q 37.3125 74.21875 42.625 73.28125 
Q 47.953125 72.359375 53.515625 70.515625 
z
" id="DejaVuSans-83"/>
      <path d="M 9.8125 72.90625 
L 55.90625 72.90625 
L 55.90625 64.59375 
L 19.671875 64.59375 
L 19.671875 43.015625 
L 54.390625 43.015625 
L 54.390625 34.71875 
L 19.671875 34.71875 
L 19.671875 8.296875 
L 56.78125 8.296875 
L 56.78125 0 
L 9.8125 0 
z
" id="DejaVuSans-69"/>
     </defs>
     <g transform="translate(500.95125 63.451875)scale(0.12 -0.12)">
      <use xlink:href="#DejaVuSans-83"/>
      <use x="63.476562" xlink:href="#DejaVuSans-116"/>
      <use x="102.685547" xlink:href="#DejaVuSans-100"/>
      <use x="166.162109" xlink:href="#DejaVuSans-46"/>
      <use x="197.949219" xlink:href="#DejaVuSans-32"/>
      <use x="229.736328" xlink:href="#DejaVuSans-69"/>
      <use x="292.919922" xlink:href="#DejaVuSans-114"/>
      <use x="334.017578" xlink:href="#DejaVuSans-114"/>
      <use x="374.990234" xlink:href="#DejaVuSans-46"/>
     </g>
    </g>
   </g>
  </g>
 </g>
 <defs>
  <clipPath id="p685708c80d">
   <rect height="166.32" width="502.2" x="81" y="25.92"/>
  </clipPath>
 </defs>
</svg>
