<?xml version="1.0" encoding="utf-8" standalone="no"?>
<!DOCTYPE svg PUBLIC "-//W3C//DTD SVG 1.1//EN"
  "http://www.w3.org/Graphics/SVG/1.1/DTD/svg11.dtd">
<!-- Created with matplotlib (https://matplotlib.org/) -->
<svg height="216pt" version="1.1" viewBox="0 0 648 216" width="648pt" xmlns="http://www.w3.org/2000/svg" xmlns:xlink="http://www.w3.org/1999/xlink">
 <defs>
  <style type="text/css">
*{stroke-linecap:butt;stroke-linejoin:round;}
  </style>
 </defs>
 <g id="figure_1">
  <g id="patch_1">
   <path d="M 0 216 
L 648 216 
L 648 0 
L 0 0 
z
" style="fill:#ffffff;"/>
  </g>
  <g id="axes_1">
   <g id="patch_2">
    <path d="M 81 192.24 
L 583.2 192.24 
L 583.2 25.92 
L 81 25.92 
z
" style="fill:#ffffff;"/>
   </g>
   <g id="PolyCollection_1">
    <defs>
     <path d="M 156.33 -23.76 
L 156.33 -190.08 
L 420.645789 -190.08 
L 420.645789 -23.76 
L 420.645789 -23.76 
L 156.33 -23.76 
z
" id="m07c102056a" style="stroke:#808080;stroke-opacity:0.3;"/>
    </defs>
    <g clip-path="url(#pe2f03a2925)">
     <use style="fill:#808080;fill-opacity:0.3;stroke:#808080;stroke-opacity:0.3;" x="0" xlink:href="#m07c102056a" y="216"/>
    </g>
   </g>
   <g id="PolyCollection_2">
    <defs>
     <path d="M 81 -79.988864 
L 81 -62.549281 
L 82.762105 -62.517914 
L 84.524211 -63.289683 
L 86.286316 -64.600876 
L 88.048421 -66.240874 
L 89.810526 -69.082019 
L 91.572632 -70.006942 
L 93.334737 -73.036729 
L 95.096842 -72.577855 
L 96.858947 -71.997911 
L 98.621053 -70.97874 
L 100.383158 -72.734629 
L 102.145263 -72.149557 
L 103.907368 -74.474408 
L 105.669474 -75.79374 
L 107.431579 -78.813225 
L 109.193684 -78.747216 
L 110.955789 -79.505324 
L 112.717895 -83.242907 
L 114.48 -85.989029 
L 116.242105 -85.436836 
L 118.004211 -86.126347 
L 119.766316 -87.655939 
L 121.528421 -91.113434 
L 123.290526 -89.369662 
L 125.052632 -88.849902 
L 126.814737 -88.104581 
L 128.576842 -87.993561 
L 130.338947 -88.204505 
L 132.101053 -88.268957 
L 133.863158 -88.42393 
L 135.625263 -90.065484 
L 137.387368 -91.077914 
L 139.149474 -91.181865 
L 140.911579 -89.184305 
L 142.673684 -88.041064 
L 144.435789 -88.085937 
L 146.197895 -87.035821 
L 147.96 -81.43621 
L 149.722105 -79.637884 
L 151.484211 -80.231157 
L 153.246316 -81.434724 
L 155.008421 -87.446043 
L 156.770526 -91.237178 
L 158.532632 -99.645591 
L 160.294737 -107.846961 
L 162.056842 -115.865736 
L 163.818947 -123.168624 
L 165.581053 -130.277983 
L 167.343158 -136.060271 
L 169.105263 -141.047238 
L 170.867368 -143.455273 
L 172.629474 -146.092014 
L 174.391579 -149.536549 
L 176.153684 -153.860019 
L 177.915789 -159.35783 
L 179.677895 -160.449811 
L 181.44 -162.872801 
L 183.202105 -168.407036 
L 184.964211 -169.600693 
L 186.726316 -168.638966 
L 188.488421 -165.890534 
L 190.250526 -158.287186 
L 192.012632 -150.917905 
L 193.774737 -143.608068 
L 195.536842 -133.970478 
L 197.298947 -127.11299 
L 199.061053 -119.411427 
L 200.823158 -112.914663 
L 202.585263 -107.336487 
L 204.347368 -103.395087 
L 206.109474 -99.727535 
L 207.871579 -97.349891 
L 209.633684 -94.722063 
L 211.395789 -92.29352 
L 213.157895 -89.951563 
L 214.92 -92.489294 
L 216.682105 -95.939976 
L 218.444211 -93.61238 
L 220.206316 -92.540799 
L 221.968421 -95.374883 
L 223.730526 -97.054772 
L 225.492632 -98.808069 
L 227.254737 -101.261562 
L 229.016842 -102.689896 
L 230.778947 -107.567579 
L 232.541053 -109.051487 
L 234.303158 -109.943476 
L 236.065263 -110.920804 
L 237.827368 -113.15495 
L 239.589474 -111.633123 
L 241.351579 -113.641693 
L 243.113684 -112.783062 
L 244.875789 -112.407445 
L 246.637895 -111.500264 
L 248.4 -110.058785 
L 250.162105 -107.672582 
L 251.924211 -103.880674 
L 253.686316 -102.36532 
L 255.448421 -104.921246 
L 257.210526 -103.16301 
L 258.972632 -102.844556 
L 260.734737 -102.279888 
L 262.496842 -101.823638 
L 264.258947 -101.475761 
L 266.021053 -97.525415 
L 267.783158 -93.211188 
L 269.545263 -90.050986 
L 271.307368 -86.500953 
L 273.069474 -83.765051 
L 274.831579 -82.65015 
L 276.593684 -80.155857 
L 278.355789 -79.162176 
L 280.117895 -78.586594 
L 281.88 -80.036324 
L 283.642105 -79.920543 
L 285.404211 -77.111774 
L 287.166316 -76.733348 
L 288.928421 -78.751988 
L 290.690526 -76.90843 
L 292.452632 -76.546768 
L 294.214737 -76.81659 
L 295.976842 -77.929108 
L 297.738947 -77.54554 
L 299.501053 -75.978748 
L 301.263158 -78.022317 
L 303.025263 -78.020762 
L 304.787368 -80.097732 
L 306.549474 -81.568666 
L 308.311579 -79.704983 
L 310.073684 -80.684026 
L 311.835789 -80.848293 
L 313.597895 -83.317672 
L 315.36 -81.452779 
L 317.122105 -79.037293 
L 318.884211 -77.993147 
L 320.646316 -80.096609 
L 322.408421 -80.432475 
L 324.170526 -79.879005 
L 325.932632 -80.100589 
L 327.694737 -78.519698 
L 329.456842 -78.12796 
L 331.218947 -75.920804 
L 332.981053 -75.66216 
L 334.743158 -76.236649 
L 336.505263 -75.768393 
L 338.267368 -77.005446 
L 340.029474 -76.811906 
L 341.791579 -75.742944 
L 343.553684 -75.21499 
L 345.315789 -75.101215 
L 347.077895 -75.487888 
L 348.84 -72.687787 
L 350.602105 -73.242137 
L 352.364211 -72.290576 
L 354.126316 -71.649382 
L 355.888421 -70.562907 
L 357.650526 -70.112464 
L 359.412632 -71.339728 
L 361.174737 -70.323605 
L 362.936842 -72.107033 
L 364.698947 -71.167925 
L 366.461053 -71.366393 
L 368.223158 -72.640052 
L 369.985263 -72.180715 
L 371.747368 -68.938567 
L 373.509474 -68.770177 
L 375.271579 -68.755642 
L 377.033684 -70.560335 
L 378.795789 -72.315349 
L 380.557895 -72.958562 
L 382.32 -74.030603 
L 384.082105 -76.670445 
L 385.844211 -78.653543 
L 387.606316 -80.020584 
L 389.368421 -81.439812 
L 391.130526 -81.488016 
L 392.892632 -83.842803 
L 394.654737 -80.981352 
L 396.416842 -80.653975 
L 398.178947 -80.762053 
L 399.941053 -80.943235 
L 401.703158 -80.919702 
L 403.465263 -78.51549 
L 405.227368 -78.606129 
L 406.989474 -79.155988 
L 408.751579 -81.350701 
L 410.513684 -81.635845 
L 412.275789 -80.851957 
L 414.037895 -81.590244 
L 415.8 -83.496148 
L 417.562105 -82.170757 
L 419.324211 -80.029794 
L 421.086316 -77.976698 
L 422.848421 -76.898913 
L 424.610526 -74.350322 
L 426.372632 -71.710573 
L 428.134737 -68.602924 
L 429.896842 -68.323649 
L 431.658947 -68.733368 
L 433.421053 -67.137055 
L 435.183158 -64.86382 
L 436.945263 -62.441858 
L 438.707368 -59.737106 
L 440.469474 -56.982659 
L 442.231579 -55.594224 
L 443.993684 -50.76973 
L 445.755789 -48.012171 
L 447.517895 -45.812025 
L 449.28 -42.020132 
L 451.042105 -37.027907 
L 452.804211 -34.575827 
L 454.566316 -33.207814 
L 456.328421 -31.690201 
L 458.090526 -30.83937 
L 459.852632 -30.2431 
L 461.614737 -29.699312 
L 463.376842 -29.7641 
L 465.138947 -26.805146 
L 466.901053 -24.306581 
L 468.663158 -23.76 
L 470.425263 -26.511036 
L 472.187368 -28.748974 
L 473.949474 -31.714303 
L 475.711579 -33.490787 
L 477.473684 -34.448841 
L 479.235789 -38.155192 
L 480.997895 -39.417084 
L 482.76 -41.000161 
L 484.522105 -41.499964 
L 486.284211 -44.621131 
L 488.046316 -44.684714 
L 489.808421 -45.857995 
L 491.570526 -46.959944 
L 493.332632 -47.318977 
L 495.094737 -48.21976 
L 496.856842 -47.212446 
L 498.618947 -45.920399 
L 500.381053 -48.581828 
L 502.143158 -50.900525 
L 503.905263 -52.70602 
L 505.667368 -52.356758 
L 507.429474 -54.665251 
L 509.191579 -55.58158 
L 510.953684 -56.477838 
L 512.715789 -56.639126 
L 514.477895 -56.882886 
L 516.24 -57.93989 
L 518.002105 -58.571878 
L 519.764211 -60.459505 
L 521.526316 -59.235837 
L 523.288421 -60.671115 
L 525.050526 -60.685522 
L 526.812632 -60.22042 
L 528.574737 -61.751592 
L 530.336842 -61.820792 
L 532.098947 -65.737129 
L 533.861053 -67.323558 
L 535.623158 -69.481709 
L 537.385263 -69.852466 
L 539.147368 -67.511787 
L 540.909474 -67.067738 
L 542.671579 -63.960131 
L 544.433684 -63.420958 
L 546.195789 -62.209909 
L 547.957895 -62.73741 
L 549.72 -62.864237 
L 551.482105 -62.819707 
L 553.244211 -63.141979 
L 555.006316 -64.997335 
L 556.768421 -64.812823 
L 558.530526 -64.300107 
L 560.292632 -63.927215 
L 562.054737 -63.620761 
L 563.816842 -63.336754 
L 565.578947 -63.522325 
L 567.341053 -61.225465 
L 569.103158 -60.835835 
L 570.865263 -58.05009 
L 572.627368 -55.684472 
L 574.389474 -58.210098 
L 576.151579 -58.9708 
L 577.913684 -61.895456 
L 579.675789 -63.609239 
L 581.437895 -64.017579 
L 583.2 -65.739841 
L 583.2 -85.419502 
L 583.2 -85.419502 
L 581.437895 -83.420384 
L 579.675789 -82.588263 
L 577.913684 -80.270551 
L 576.151579 -77.116953 
L 574.389474 -76.823263 
L 572.627368 -74.076934 
L 570.865263 -76.114949 
L 569.103158 -79.159367 
L 567.341053 -79.45199 
L 565.578947 -81.68281 
L 563.816842 -81.558265 
L 562.054737 -81.894488 
L 560.292632 -82.270287 
L 558.530526 -82.517626 
L 556.768421 -82.501094 
L 555.006316 -82.254558 
L 553.244211 -79.954373 
L 551.482105 -78.850116 
L 549.72 -78.867609 
L 547.957895 -79.118482 
L 546.195789 -79.273845 
L 544.433684 -80.605739 
L 542.671579 -81.245003 
L 540.909474 -84.525766 
L 539.147368 -85.322177 
L 537.385263 -87.633224 
L 535.623158 -87.073636 
L 533.861053 -84.642085 
L 532.098947 -82.879271 
L 530.336842 -78.670594 
L 528.574737 -78.615748 
L 526.812632 -76.8597 
L 525.050526 -77.324943 
L 523.288421 -77.091259 
L 521.526316 -75.673478 
L 519.764211 -76.806685 
L 518.002105 -74.53877 
L 516.24 -73.744229 
L 514.477895 -72.630428 
L 512.715789 -72.812164 
L 510.953684 -72.601314 
L 509.191579 -72.071044 
L 507.429474 -71.06466 
L 505.667368 -68.349289 
L 503.905263 -69.178464 
L 502.143158 -67.69674 
L 500.381053 -65.487757 
L 498.618947 -62.815208 
L 496.856842 -64.128127 
L 495.094737 -65.043525 
L 493.332632 -64.021595 
L 491.570526 -63.822422 
L 489.808421 -62.815589 
L 488.046316 -62.066156 
L 486.284211 -62.005693 
L 484.522105 -58.92456 
L 482.76 -58.990201 
L 480.997895 -57.224036 
L 479.235789 -55.880962 
L 477.473684 -52.392644 
L 475.711579 -51.241916 
L 473.949474 -49.359042 
L 472.187368 -46.12207 
L 470.425263 -43.646259 
L 468.663158 -40.443087 
L 466.901053 -41.198989 
L 465.138947 -43.910356 
L 463.376842 -47.029658 
L 461.614737 -46.536239 
L 459.852632 -47.108865 
L 458.090526 -47.194847 
L 456.328421 -48.142684 
L 454.566316 -49.788244 
L 452.804211 -51.521382 
L 451.042105 -53.721027 
L 449.28 -59.21069 
L 447.517895 -63.109651 
L 445.755789 -65.56123 
L 443.993684 -68.13765 
L 442.231579 -73.236836 
L 440.469474 -74.887529 
L 438.707368 -77.405037 
L 436.945263 -80.096287 
L 435.183158 -82.32605 
L 433.421053 -84.766564 
L 431.658947 -86.271402 
L 429.896842 -85.564706 
L 428.134737 -85.65757 
L 426.372632 -89.000313 
L 424.610526 -91.756566 
L 422.848421 -94.293862 
L 421.086316 -95.386882 
L 419.324211 -97.737419 
L 417.562105 -100.00009 
L 415.8 -101.279665 
L 414.037895 -99.402165 
L 412.275789 -98.403808 
L 410.513684 -98.860381 
L 408.751579 -99.021479 
L 406.989474 -96.874581 
L 405.227368 -96.494095 
L 403.465263 -96.646757 
L 401.703158 -99.5145 
L 399.941053 -99.801083 
L 398.178947 -99.672149 
L 396.416842 -99.842251 
L 394.654737 -100.197126 
L 392.892632 -103.103815 
L 391.130526 -100.8689 
L 389.368421 -100.23485 
L 387.606316 -98.552929 
L 385.844211 -96.942865 
L 384.082105 -94.708399 
L 382.32 -92.3864 
L 380.557895 -90.543359 
L 378.795789 -89.077791 
L 377.033684 -87.297493 
L 375.271579 -85.504851 
L 373.509474 -85.180201 
L 371.747368 -85.507996 
L 369.985263 -88.654217 
L 368.223158 -89.311294 
L 366.461053 -87.793918 
L 364.698947 -87.558225 
L 362.936842 -88.479808 
L 361.174737 -86.665901 
L 359.412632 -87.696537 
L 357.650526 -86.380857 
L 355.888421 -86.798736 
L 354.126316 -87.32486 
L 352.364211 -87.862103 
L 350.602105 -89.081348 
L 348.84 -88.829398 
L 347.077895 -92.107552 
L 345.315789 -91.873995 
L 343.553684 -92.132358 
L 341.791579 -92.534749 
L 340.029474 -93.512546 
L 338.267368 -93.443052 
L 336.505263 -92.013116 
L 334.743158 -92.599251 
L 332.981053 -91.995303 
L 331.218947 -92.046774 
L 329.456842 -94.119206 
L 327.694737 -94.533767 
L 325.932632 -95.992003 
L 324.170526 -95.407288 
L 322.408421 -96.218324 
L 320.646316 -95.93396 
L 318.884211 -94.005926 
L 317.122105 -95.256632 
L 315.36 -97.802986 
L 313.597895 -99.721496 
L 311.835789 -97.291059 
L 310.073684 -97.33128 
L 308.311579 -96.635701 
L 306.549474 -98.183283 
L 304.787368 -97.793527 
L 303.025263 -95.963048 
L 301.263158 -96.333631 
L 299.501053 -94.345705 
L 297.738947 -96.004109 
L 295.976842 -96.736955 
L 294.214737 -95.492599 
L 292.452632 -95.390282 
L 290.690526 -95.83492 
L 288.928421 -97.402627 
L 287.166316 -95.389771 
L 285.404211 -95.50753 
L 283.642105 -98.094763 
L 281.88 -98.041005 
L 280.117895 -96.265538 
L 278.355789 -96.682324 
L 276.593684 -97.735403 
L 274.831579 -99.954858 
L 273.069474 -100.824693 
L 271.307368 -103.112654 
L 269.545263 -106.447176 
L 267.783158 -109.427251 
L 266.021053 -113.920291 
L 264.258947 -118.467097 
L 262.496842 -119.35968 
L 260.734737 -120.14389 
L 258.972632 -120.75766 
L 257.210526 -121.059436 
L 255.448421 -122.960557 
L 253.686316 -120.740712 
L 251.924211 -122.388531 
L 250.162105 -125.915337 
L 248.4 -128.428953 
L 246.637895 -129.902554 
L 244.875789 -130.98011 
L 243.113684 -131.534838 
L 241.351579 -132.226782 
L 239.589474 -130.203856 
L 237.827368 -131.535088 
L 236.065263 -128.807393 
L 234.303158 -127.117732 
L 232.541053 -125.962961 
L 230.778947 -123.787512 
L 229.016842 -118.741514 
L 227.254737 -117.626905 
L 225.492632 -115.552719 
L 223.730526 -114.204865 
L 221.968421 -113.155742 
L 220.206316 -111.090008 
L 218.444211 -112.313278 
L 216.682105 -114.575385 
L 214.92 -111.017467 
L 213.157895 -108.159196 
L 211.395789 -110.220873 
L 209.633684 -112.444056 
L 207.871579 -114.902114 
L 206.109474 -117.176195 
L 204.347368 -121.385566 
L 202.585263 -125.445133 
L 200.823158 -131.403236 
L 199.061053 -138.05535 
L 197.298947 -145.859539 
L 195.536842 -152.833182 
L 193.774737 -162.54677 
L 192.012632 -170.432569 
L 190.250526 -178.569041 
L 188.488421 -186.161329 
L 186.726316 -188.994968 
L 184.964211 -190.08 
L 183.202105 -189.040828 
L 181.44 -183.78306 
L 179.677895 -181.430279 
L 177.915789 -180.66157 
L 176.153684 -175.553446 
L 174.391579 -171.255719 
L 172.629474 -167.381539 
L 170.867368 -164.436209 
L 169.105263 -161.696335 
L 167.343158 -156.635574 
L 165.581053 -150.261353 
L 163.818947 -143.229466 
L 162.056842 -135.770879 
L 160.294737 -127.539626 
L 158.532632 -118.932761 
L 156.770526 -110.098778 
L 155.008421 -106.261083 
L 153.246316 -100.488031 
L 151.484211 -99.210678 
L 149.722105 -98.56349 
L 147.96 -100.424521 
L 146.197895 -106.299167 
L 144.435789 -107.357833 
L 142.673684 -107.340684 
L 140.911579 -108.802409 
L 139.149474 -110.588252 
L 137.387368 -110.071972 
L 135.625263 -108.293367 
L 133.863158 -106.39961 
L 132.101053 -106.058399 
L 130.338947 -105.564644 
L 128.576842 -105.40345 
L 126.814737 -106.656936 
L 125.052632 -107.772305 
L 123.290526 -108.306937 
L 121.528421 -110.408591 
L 119.766316 -106.919509 
L 118.004211 -106.030203 
L 116.242105 -105.665323 
L 114.48 -106.663706 
L 112.717895 -104.323942 
L 110.955789 -100.990901 
L 109.193684 -100.632595 
L 107.431579 -100.44254 
L 105.669474 -97.755909 
L 103.907368 -96.284205 
L 102.145263 -93.895308 
L 100.383158 -94.550696 
L 98.621053 -92.399136 
L 96.858947 -92.868517 
L 95.096842 -93.032849 
L 93.334737 -92.635998 
L 91.572632 -88.9673 
L 89.810526 -87.659395 
L 88.048421 -84.856447 
L 86.286316 -83.209225 
L 84.524211 -81.419268 
L 82.762105 -80.2063 
L 81 -79.988864 
z
" id="m21d864f2dc" style="stroke:#0000ff;stroke-opacity:0.3;"/>
    </defs>
    <g clip-path="url(#pe2f03a2925)">
     <use style="fill:#0000ff;fill-opacity:0.3;stroke:#0000ff;stroke-opacity:0.3;" x="0" xlink:href="#m21d864f2dc" y="216"/>
    </g>
   </g>
   <g id="matplotlib.axis_1">
    <g id="xtick_1">
     <g id="line2d_1">
      <defs>
       <path d="M 0 0 
L 0 3.5 
" id="mea1d98f869" style="stroke:#000000;stroke-width:0.8;"/>
      </defs>
      <g>
       <use style="stroke:#000000;stroke-width:0.8;" x="156.33" xlink:href="#mea1d98f869" y="192.24"/>
      </g>
     </g>
     <g id="text_1">
      <!-- 0.0 -->
      <defs>
       <path d="M 31.78125 66.40625 
Q 24.171875 66.40625 20.328125 58.90625 
Q 16.5 51.421875 16.5 36.375 
Q 16.5 21.390625 20.328125 13.890625 
Q 24.171875 6.390625 31.78125 6.390625 
Q 39.453125 6.390625 43.28125 13.890625 
Q 47.125 21.390625 47.125 36.375 
Q 47.125 51.421875 43.28125 58.90625 
Q 39.453125 66.40625 31.78125 66.40625 
z
M 31.78125 74.21875 
Q 44.046875 74.21875 50.515625 64.515625 
Q 56.984375 54.828125 56.984375 36.375 
Q 56.984375 17.96875 50.515625 8.265625 
Q 44.046875 -1.421875 31.78125 -1.421875 
Q 19.53125 -1.421875 13.0625 8.265625 
Q 6.59375 17.96875 6.59375 36.375 
Q 6.59375 54.828125 13.0625 64.515625 
Q 19.53125 74.21875 31.78125 74.21875 
z
" id="DejaVuSans-48"/>
       <path d="M 10.6875 12.40625 
L 21 12.40625 
L 21 0 
L 10.6875 0 
z
" id="DejaVuSans-46"/>
      </defs>
      <g transform="translate(146.788125 208.358125)scale(0.12 -0.12)">
       <use xlink:href="#DejaVuSans-48"/>
       <use x="63.623047" xlink:href="#DejaVuSans-46"/>
       <use x="95.410156" xlink:href="#DejaVuSans-48"/>
      </g>
     </g>
    </g>
    <g id="xtick_2">
     <g id="line2d_2">
      <g>
       <use style="stroke:#000000;stroke-width:0.8;" x="244.435263" xlink:href="#mea1d98f869" y="192.24"/>
      </g>
     </g>
     <g id="text_2">
      <!-- 0.5 -->
      <defs>
       <path d="M 10.796875 72.90625 
L 49.515625 72.90625 
L 49.515625 64.59375 
L 19.828125 64.59375 
L 19.828125 46.734375 
Q 21.96875 47.46875 24.109375 47.828125 
Q 26.265625 48.1875 28.421875 48.1875 
Q 40.625 48.1875 47.75 41.5 
Q 54.890625 34.8125 54.890625 23.390625 
Q 54.890625 11.625 47.5625 5.09375 
Q 40.234375 -1.421875 26.90625 -1.421875 
Q 22.3125 -1.421875 17.546875 -0.640625 
Q 12.796875 0.140625 7.71875 1.703125 
L 7.71875 11.625 
Q 12.109375 9.234375 16.796875 8.0625 
Q 21.484375 6.890625 26.703125 6.890625 
Q 35.15625 6.890625 40.078125 11.328125 
Q 45.015625 15.765625 45.015625 23.390625 
Q 45.015625 31 40.078125 35.4375 
Q 35.15625 39.890625 26.703125 39.890625 
Q 22.75 39.890625 18.8125 39.015625 
Q 14.890625 38.140625 10.796875 36.28125 
z
" id="DejaVuSans-53"/>
      </defs>
      <g transform="translate(234.893388 208.358125)scale(0.12 -0.12)">
       <use xlink:href="#DejaVuSans-48"/>
       <use x="63.623047" xlink:href="#DejaVuSans-46"/>
       <use x="95.410156" xlink:href="#DejaVuSans-53"/>
      </g>
     </g>
    </g>
    <g id="xtick_3">
     <g id="line2d_3">
      <g>
       <use style="stroke:#000000;stroke-width:0.8;" x="332.540526" xlink:href="#mea1d98f869" y="192.24"/>
      </g>
     </g>
     <g id="text_3">
      <!-- 1.0 -->
      <defs>
       <path d="M 12.40625 8.296875 
L 28.515625 8.296875 
L 28.515625 63.921875 
L 10.984375 60.40625 
L 10.984375 69.390625 
L 28.421875 72.90625 
L 38.28125 72.90625 
L 38.28125 8.296875 
L 54.390625 8.296875 
L 54.390625 0 
L 12.40625 0 
z
" id="DejaVuSans-49"/>
      </defs>
      <g transform="translate(322.998651 208.358125)scale(0.12 -0.12)">
       <use xlink:href="#DejaVuSans-49"/>
       <use x="63.623047" xlink:href="#DejaVuSans-46"/>
       <use x="95.410156" xlink:href="#DejaVuSans-48"/>
      </g>
     </g>
    </g>
    <g id="xtick_4">
     <g id="line2d_4">
      <g>
       <use style="stroke:#000000;stroke-width:0.8;" x="420.645789" xlink:href="#mea1d98f869" y="192.24"/>
      </g>
     </g>
     <g id="text_4">
      <!-- 1.5 -->
      <g transform="translate(411.103914 208.358125)scale(0.12 -0.12)">
       <use xlink:href="#DejaVuSans-49"/>
       <use x="63.623047" xlink:href="#DejaVuSans-46"/>
       <use x="95.410156" xlink:href="#DejaVuSans-53"/>
      </g>
     </g>
    </g>
    <g id="xtick_5">
     <g id="line2d_5">
      <g>
       <use style="stroke:#000000;stroke-width:0.8;" x="508.751053" xlink:href="#mea1d98f869" y="192.24"/>
      </g>
     </g>
     <g id="text_5">
      <!-- 2.0 -->
      <defs>
       <path d="M 19.1875 8.296875 
L 53.609375 8.296875 
L 53.609375 0 
L 7.328125 0 
L 7.328125 8.296875 
Q 12.9375 14.109375 22.625 23.890625 
Q 32.328125 33.6875 34.8125 36.53125 
Q 39.546875 41.84375 41.421875 45.53125 
Q 43.3125 49.21875 43.3125 52.78125 
Q 43.3125 58.59375 39.234375 62.25 
Q 35.15625 65.921875 28.609375 65.921875 
Q 23.96875 65.921875 18.8125 64.3125 
Q 13.671875 62.703125 7.8125 59.421875 
L 7.8125 69.390625 
Q 13.765625 71.78125 18.9375 73 
Q 24.125 74.21875 28.421875 74.21875 
Q 39.75 74.21875 46.484375 68.546875 
Q 53.21875 62.890625 53.21875 53.421875 
Q 53.21875 48.921875 51.53125 44.890625 
Q 49.859375 40.875 45.40625 35.40625 
Q 44.1875 33.984375 37.640625 27.21875 
Q 31.109375 20.453125 19.1875 8.296875 
z
" id="DejaVuSans-50"/>
      </defs>
      <g transform="translate(499.209178 208.358125)scale(0.12 -0.12)">
       <use xlink:href="#DejaVuSans-50"/>
       <use x="63.623047" xlink:href="#DejaVuSans-46"/>
       <use x="95.410156" xlink:href="#DejaVuSans-48"/>
      </g>
     </g>
    </g>
    <g id="text_6">
     <!-- Time (s) -->
     <defs>
      <path d="M -0.296875 72.90625 
L 61.375 72.90625 
L 61.375 64.59375 
L 35.5 64.59375 
L 35.5 0 
L 25.59375 0 
L 25.59375 64.59375 
L -0.296875 64.59375 
z
" id="DejaVuSans-84"/>
      <path d="M 9.421875 54.6875 
L 18.40625 54.6875 
L 18.40625 0 
L 9.421875 0 
z
M 9.421875 75.984375 
L 18.40625 75.984375 
L 18.40625 64.59375 
L 9.421875 64.59375 
z
" id="DejaVuSans-105"/>
      <path d="M 52 44.1875 
Q 55.375 50.25 60.0625 53.125 
Q 64.75 56 71.09375 56 
Q 79.640625 56 84.28125 50.015625 
Q 88.921875 44.046875 88.921875 33.015625 
L 88.921875 0 
L 79.890625 0 
L 79.890625 32.71875 
Q 79.890625 40.578125 77.09375 44.375 
Q 74.3125 48.1875 68.609375 48.1875 
Q 61.625 48.1875 57.5625 43.546875 
Q 53.515625 38.921875 53.515625 30.90625 
L 53.515625 0 
L 44.484375 0 
L 44.484375 32.71875 
Q 44.484375 40.625 41.703125 44.40625 
Q 38.921875 48.1875 33.109375 48.1875 
Q 26.21875 48.1875 22.15625 43.53125 
Q 18.109375 38.875 18.109375 30.90625 
L 18.109375 0 
L 9.078125 0 
L 9.078125 54.6875 
L 18.109375 54.6875 
L 18.109375 46.1875 
Q 21.1875 51.21875 25.484375 53.609375 
Q 29.78125 56 35.6875 56 
Q 41.65625 56 45.828125 52.96875 
Q 50 49.953125 52 44.1875 
z
" id="DejaVuSans-109"/>
      <path d="M 56.203125 29.59375 
L 56.203125 25.203125 
L 14.890625 25.203125 
Q 15.484375 15.921875 20.484375 11.0625 
Q 25.484375 6.203125 34.421875 6.203125 
Q 39.59375 6.203125 44.453125 7.46875 
Q 49.3125 8.734375 54.109375 11.28125 
L 54.109375 2.78125 
Q 49.265625 0.734375 44.1875 -0.34375 
Q 39.109375 -1.421875 33.890625 -1.421875 
Q 20.796875 -1.421875 13.15625 6.1875 
Q 5.515625 13.8125 5.515625 26.8125 
Q 5.515625 40.234375 12.765625 48.109375 
Q 20.015625 56 32.328125 56 
Q 43.359375 56 49.78125 48.890625 
Q 56.203125 41.796875 56.203125 29.59375 
z
M 47.21875 32.234375 
Q 47.125 39.59375 43.09375 43.984375 
Q 39.0625 48.390625 32.421875 48.390625 
Q 24.90625 48.390625 20.390625 44.140625 
Q 15.875 39.890625 15.1875 32.171875 
z
" id="DejaVuSans-101"/>
      <path id="DejaVuSans-32"/>
      <path d="M 31 75.875 
Q 24.46875 64.65625 21.28125 53.65625 
Q 18.109375 42.671875 18.109375 31.390625 
Q 18.109375 20.125 21.3125 9.0625 
Q 24.515625 -2 31 -13.1875 
L 23.1875 -13.1875 
Q 15.875 -1.703125 12.234375 9.375 
Q 8.59375 20.453125 8.59375 31.390625 
Q 8.59375 42.28125 12.203125 53.3125 
Q 15.828125 64.359375 23.1875 75.875 
z
" id="DejaVuSans-40"/>
      <path d="M 44.28125 53.078125 
L 44.28125 44.578125 
Q 40.484375 46.53125 36.375 47.5 
Q 32.28125 48.484375 27.875 48.484375 
Q 21.1875 48.484375 17.84375 46.4375 
Q 14.5 44.390625 14.5 40.28125 
Q 14.5 37.15625 16.890625 35.375 
Q 19.28125 33.59375 26.515625 31.984375 
L 29.59375 31.296875 
Q 39.15625 29.25 43.1875 25.515625 
Q 47.21875 21.78125 47.21875 15.09375 
Q 47.21875 7.46875 41.1875 3.015625 
Q 35.15625 -1.421875 24.609375 -1.421875 
Q 20.21875 -1.421875 15.453125 -0.5625 
Q 10.6875 0.296875 5.421875 2 
L 5.421875 11.28125 
Q 10.40625 8.6875 15.234375 7.390625 
Q 20.0625 6.109375 24.8125 6.109375 
Q 31.15625 6.109375 34.5625 8.28125 
Q 37.984375 10.453125 37.984375 14.40625 
Q 37.984375 18.0625 35.515625 20.015625 
Q 33.0625 21.96875 24.703125 23.78125 
L 21.578125 24.515625 
Q 13.234375 26.265625 9.515625 29.90625 
Q 5.8125 33.546875 5.8125 39.890625 
Q 5.8125 47.609375 11.28125 51.796875 
Q 16.75 56 26.8125 56 
Q 31.78125 56 36.171875 55.265625 
Q 40.578125 54.546875 44.28125 53.078125 
z
" id="DejaVuSans-115"/>
      <path d="M 8.015625 75.875 
L 15.828125 75.875 
Q 23.140625 64.359375 26.78125 53.3125 
Q 30.421875 42.28125 30.421875 31.390625 
Q 30.421875 20.453125 26.78125 9.375 
Q 23.140625 -1.703125 15.828125 -13.1875 
L 8.015625 -13.1875 
Q 14.5 -2 17.703125 9.0625 
Q 20.90625 20.125 20.90625 31.390625 
Q 20.90625 42.671875 17.703125 53.65625 
Q 14.5 64.65625 8.015625 75.875 
z
" id="DejaVuSans-41"/>
     </defs>
     <g transform="translate(302.60475 225.7955)scale(0.144 -0.144)">
      <use xlink:href="#DejaVuSans-84"/>
      <use x="61.037109" xlink:href="#DejaVuSans-105"/>
      <use x="88.820312" xlink:href="#DejaVuSans-109"/>
      <use x="186.232422" xlink:href="#DejaVuSans-101"/>
      <use x="247.755859" xlink:href="#DejaVuSans-32"/>
      <use x="279.542969" xlink:href="#DejaVuSans-40"/>
      <use x="318.556641" xlink:href="#DejaVuSans-115"/>
      <use x="370.65625" xlink:href="#DejaVuSans-41"/>
     </g>
    </g>
   </g>
   <g id="matplotlib.axis_2">
    <g id="ytick_1">
     <g id="line2d_6">
      <defs>
       <path d="M 0 0 
L -3.5 0 
" id="m71b46662ca" style="stroke:#000000;stroke-width:0.8;"/>
      </defs>
      <g>
       <use style="stroke:#000000;stroke-width:0.8;" x="81" xlink:href="#m71b46662ca" y="185.231951"/>
      </g>
     </g>
     <g id="text_7">
      <!-- 2.4 -->
      <defs>
       <path d="M 37.796875 64.3125 
L 12.890625 25.390625 
L 37.796875 25.390625 
z
M 35.203125 72.90625 
L 47.609375 72.90625 
L 47.609375 25.390625 
L 58.015625 25.390625 
L 58.015625 17.1875 
L 47.609375 17.1875 
L 47.609375 0 
L 37.796875 0 
L 37.796875 17.1875 
L 4.890625 17.1875 
L 4.890625 26.703125 
z
" id="DejaVuSans-52"/>
      </defs>
      <g transform="translate(54.91625 189.791014)scale(0.12 -0.12)">
       <use xlink:href="#DejaVuSans-50"/>
       <use x="63.623047" xlink:href="#DejaVuSans-46"/>
       <use x="95.410156" xlink:href="#DejaVuSans-52"/>
      </g>
     </g>
    </g>
    <g id="ytick_2">
     <g id="line2d_7">
      <g>
       <use style="stroke:#000000;stroke-width:0.8;" x="81" xlink:href="#m71b46662ca" y="145.537227"/>
      </g>
     </g>
     <g id="text_8">
      <!-- 2.6 -->
      <defs>
       <path d="M 33.015625 40.375 
Q 26.375 40.375 22.484375 35.828125 
Q 18.609375 31.296875 18.609375 23.390625 
Q 18.609375 15.53125 22.484375 10.953125 
Q 26.375 6.390625 33.015625 6.390625 
Q 39.65625 6.390625 43.53125 10.953125 
Q 47.40625 15.53125 47.40625 23.390625 
Q 47.40625 31.296875 43.53125 35.828125 
Q 39.65625 40.375 33.015625 40.375 
z
M 52.59375 71.296875 
L 52.59375 62.3125 
Q 48.875 64.0625 45.09375 64.984375 
Q 41.3125 65.921875 37.59375 65.921875 
Q 27.828125 65.921875 22.671875 59.328125 
Q 17.53125 52.734375 16.796875 39.40625 
Q 19.671875 43.65625 24.015625 45.921875 
Q 28.375 48.1875 33.59375 48.1875 
Q 44.578125 48.1875 50.953125 41.515625 
Q 57.328125 34.859375 57.328125 23.390625 
Q 57.328125 12.15625 50.6875 5.359375 
Q 44.046875 -1.421875 33.015625 -1.421875 
Q 20.359375 -1.421875 13.671875 8.265625 
Q 6.984375 17.96875 6.984375 36.375 
Q 6.984375 53.65625 15.1875 63.9375 
Q 23.390625 74.21875 37.203125 74.21875 
Q 40.921875 74.21875 44.703125 73.484375 
Q 48.484375 72.75 52.59375 71.296875 
z
" id="DejaVuSans-54"/>
      </defs>
      <g transform="translate(54.91625 150.096289)scale(0.12 -0.12)">
       <use xlink:href="#DejaVuSans-50"/>
       <use x="63.623047" xlink:href="#DejaVuSans-46"/>
       <use x="95.410156" xlink:href="#DejaVuSans-54"/>
      </g>
     </g>
    </g>
    <g id="ytick_3">
     <g id="line2d_8">
      <g>
       <use style="stroke:#000000;stroke-width:0.8;" x="81" xlink:href="#m71b46662ca" y="105.842502"/>
      </g>
     </g>
     <g id="text_9">
      <!-- 2.8 -->
      <defs>
       <path d="M 31.78125 34.625 
Q 24.75 34.625 20.71875 30.859375 
Q 16.703125 27.09375 16.703125 20.515625 
Q 16.703125 13.921875 20.71875 10.15625 
Q 24.75 6.390625 31.78125 6.390625 
Q 38.8125 6.390625 42.859375 10.171875 
Q 46.921875 13.96875 46.921875 20.515625 
Q 46.921875 27.09375 42.890625 30.859375 
Q 38.875 34.625 31.78125 34.625 
z
M 21.921875 38.8125 
Q 15.578125 40.375 12.03125 44.71875 
Q 8.5 49.078125 8.5 55.328125 
Q 8.5 64.0625 14.71875 69.140625 
Q 20.953125 74.21875 31.78125 74.21875 
Q 42.671875 74.21875 48.875 69.140625 
Q 55.078125 64.0625 55.078125 55.328125 
Q 55.078125 49.078125 51.53125 44.71875 
Q 48 40.375 41.703125 38.8125 
Q 48.828125 37.15625 52.796875 32.3125 
Q 56.78125 27.484375 56.78125 20.515625 
Q 56.78125 9.90625 50.3125 4.234375 
Q 43.84375 -1.421875 31.78125 -1.421875 
Q 19.734375 -1.421875 13.25 4.234375 
Q 6.78125 9.90625 6.78125 20.515625 
Q 6.78125 27.484375 10.78125 32.3125 
Q 14.796875 37.15625 21.921875 38.8125 
z
M 18.3125 54.390625 
Q 18.3125 48.734375 21.84375 45.5625 
Q 25.390625 42.390625 31.78125 42.390625 
Q 38.140625 42.390625 41.71875 45.5625 
Q 45.3125 48.734375 45.3125 54.390625 
Q 45.3125 60.0625 41.71875 63.234375 
Q 38.140625 66.40625 31.78125 66.40625 
Q 25.390625 66.40625 21.84375 63.234375 
Q 18.3125 60.0625 18.3125 54.390625 
z
" id="DejaVuSans-56"/>
      </defs>
      <g transform="translate(54.91625 110.401564)scale(0.12 -0.12)">
       <use xlink:href="#DejaVuSans-50"/>
       <use x="63.623047" xlink:href="#DejaVuSans-46"/>
       <use x="95.410156" xlink:href="#DejaVuSans-56"/>
      </g>
     </g>
    </g>
    <g id="ytick_4">
     <g id="line2d_9">
      <g>
       <use style="stroke:#000000;stroke-width:0.8;" x="81" xlink:href="#m71b46662ca" y="66.147777"/>
      </g>
     </g>
     <g id="text_10">
      <!-- 3.0 -->
      <defs>
       <path d="M 40.578125 39.3125 
Q 47.65625 37.796875 51.625 33 
Q 55.609375 28.21875 55.609375 21.1875 
Q 55.609375 10.40625 48.1875 4.484375 
Q 40.765625 -1.421875 27.09375 -1.421875 
Q 22.515625 -1.421875 17.65625 -0.515625 
Q 12.796875 0.390625 7.625 2.203125 
L 7.625 11.71875 
Q 11.71875 9.328125 16.59375 8.109375 
Q 21.484375 6.890625 26.8125 6.890625 
Q 36.078125 6.890625 40.9375 10.546875 
Q 45.796875 14.203125 45.796875 21.1875 
Q 45.796875 27.640625 41.28125 31.265625 
Q 36.765625 34.90625 28.71875 34.90625 
L 20.21875 34.90625 
L 20.21875 43.015625 
L 29.109375 43.015625 
Q 36.375 43.015625 40.234375 45.921875 
Q 44.09375 48.828125 44.09375 54.296875 
Q 44.09375 59.90625 40.109375 62.90625 
Q 36.140625 65.921875 28.71875 65.921875 
Q 24.65625 65.921875 20.015625 65.03125 
Q 15.375 64.15625 9.8125 62.3125 
L 9.8125 71.09375 
Q 15.4375 72.65625 20.34375 73.4375 
Q 25.25 74.21875 29.59375 74.21875 
Q 40.828125 74.21875 47.359375 69.109375 
Q 53.90625 64.015625 53.90625 55.328125 
Q 53.90625 49.265625 50.4375 45.09375 
Q 46.96875 40.921875 40.578125 39.3125 
z
" id="DejaVuSans-51"/>
      </defs>
      <g transform="translate(54.91625 70.70684)scale(0.12 -0.12)">
       <use xlink:href="#DejaVuSans-51"/>
       <use x="63.623047" xlink:href="#DejaVuSans-46"/>
       <use x="95.410156" xlink:href="#DejaVuSans-48"/>
      </g>
     </g>
    </g>
    <g id="ytick_5">
     <g id="line2d_10">
      <g>
       <use style="stroke:#000000;stroke-width:0.8;" x="81" xlink:href="#m71b46662ca" y="26.453053"/>
      </g>
     </g>
     <g id="text_11">
      <!-- 3.2 -->
      <g transform="translate(54.91625 31.012115)scale(0.12 -0.12)">
       <use xlink:href="#DejaVuSans-51"/>
       <use x="63.623047" xlink:href="#DejaVuSans-46"/>
       <use x="95.410156" xlink:href="#DejaVuSans-50"/>
      </g>
     </g>
    </g>
    <g id="text_12">
     <!-- Act. Cells Moving Avg. -->
     <defs>
      <path d="M 34.1875 63.1875 
L 20.796875 26.90625 
L 47.609375 26.90625 
z
M 28.609375 72.90625 
L 39.796875 72.90625 
L 67.578125 0 
L 57.328125 0 
L 50.6875 18.703125 
L 17.828125 18.703125 
L 11.1875 0 
L 0.78125 0 
z
" id="DejaVuSans-65"/>
      <path d="M 48.78125 52.59375 
L 48.78125 44.1875 
Q 44.96875 46.296875 41.140625 47.34375 
Q 37.3125 48.390625 33.40625 48.390625 
Q 24.65625 48.390625 19.8125 42.84375 
Q 14.984375 37.3125 14.984375 27.296875 
Q 14.984375 17.28125 19.8125 11.734375 
Q 24.65625 6.203125 33.40625 6.203125 
Q 37.3125 6.203125 41.140625 7.25 
Q 44.96875 8.296875 48.78125 10.40625 
L 48.78125 2.09375 
Q 45.015625 0.34375 40.984375 -0.53125 
Q 36.96875 -1.421875 32.421875 -1.421875 
Q 20.0625 -1.421875 12.78125 6.34375 
Q 5.515625 14.109375 5.515625 27.296875 
Q 5.515625 40.671875 12.859375 48.328125 
Q 20.21875 56 33.015625 56 
Q 37.15625 56 41.109375 55.140625 
Q 45.0625 54.296875 48.78125 52.59375 
z
" id="DejaVuSans-99"/>
      <path d="M 18.3125 70.21875 
L 18.3125 54.6875 
L 36.8125 54.6875 
L 36.8125 47.703125 
L 18.3125 47.703125 
L 18.3125 18.015625 
Q 18.3125 11.328125 20.140625 9.421875 
Q 21.96875 7.515625 27.59375 7.515625 
L 36.8125 7.515625 
L 36.8125 0 
L 27.59375 0 
Q 17.1875 0 13.234375 3.875 
Q 9.28125 7.765625 9.28125 18.015625 
L 9.28125 47.703125 
L 2.6875 47.703125 
L 2.6875 54.6875 
L 9.28125 54.6875 
L 9.28125 70.21875 
z
" id="DejaVuSans-116"/>
      <path d="M 64.40625 67.28125 
L 64.40625 56.890625 
Q 59.421875 61.53125 53.78125 63.8125 
Q 48.140625 66.109375 41.796875 66.109375 
Q 29.296875 66.109375 22.65625 58.46875 
Q 16.015625 50.828125 16.015625 36.375 
Q 16.015625 21.96875 22.65625 14.328125 
Q 29.296875 6.6875 41.796875 6.6875 
Q 48.140625 6.6875 53.78125 8.984375 
Q 59.421875 11.28125 64.40625 15.921875 
L 64.40625 5.609375 
Q 59.234375 2.09375 53.4375 0.328125 
Q 47.65625 -1.421875 41.21875 -1.421875 
Q 24.65625 -1.421875 15.125 8.703125 
Q 5.609375 18.84375 5.609375 36.375 
Q 5.609375 53.953125 15.125 64.078125 
Q 24.65625 74.21875 41.21875 74.21875 
Q 47.75 74.21875 53.53125 72.484375 
Q 59.328125 70.75 64.40625 67.28125 
z
" id="DejaVuSans-67"/>
      <path d="M 9.421875 75.984375 
L 18.40625 75.984375 
L 18.40625 0 
L 9.421875 0 
z
" id="DejaVuSans-108"/>
      <path d="M 9.8125 72.90625 
L 24.515625 72.90625 
L 43.109375 23.296875 
L 61.8125 72.90625 
L 76.515625 72.90625 
L 76.515625 0 
L 66.890625 0 
L 66.890625 64.015625 
L 48.09375 14.015625 
L 38.1875 14.015625 
L 19.390625 64.015625 
L 19.390625 0 
L 9.8125 0 
z
" id="DejaVuSans-77"/>
      <path d="M 30.609375 48.390625 
Q 23.390625 48.390625 19.1875 42.75 
Q 14.984375 37.109375 14.984375 27.296875 
Q 14.984375 17.484375 19.15625 11.84375 
Q 23.34375 6.203125 30.609375 6.203125 
Q 37.796875 6.203125 41.984375 11.859375 
Q 46.1875 17.53125 46.1875 27.296875 
Q 46.1875 37.015625 41.984375 42.703125 
Q 37.796875 48.390625 30.609375 48.390625 
z
M 30.609375 56 
Q 42.328125 56 49.015625 48.375 
Q 55.71875 40.765625 55.71875 27.296875 
Q 55.71875 13.875 49.015625 6.21875 
Q 42.328125 -1.421875 30.609375 -1.421875 
Q 18.84375 -1.421875 12.171875 6.21875 
Q 5.515625 13.875 5.515625 27.296875 
Q 5.515625 40.765625 12.171875 48.375 
Q 18.84375 56 30.609375 56 
z
" id="DejaVuSans-111"/>
      <path d="M 2.984375 54.6875 
L 12.5 54.6875 
L 29.59375 8.796875 
L 46.6875 54.6875 
L 56.203125 54.6875 
L 35.6875 0 
L 23.484375 0 
z
" id="DejaVuSans-118"/>
      <path d="M 54.890625 33.015625 
L 54.890625 0 
L 45.90625 0 
L 45.90625 32.71875 
Q 45.90625 40.484375 42.875 44.328125 
Q 39.84375 48.1875 33.796875 48.1875 
Q 26.515625 48.1875 22.3125 43.546875 
Q 18.109375 38.921875 18.109375 30.90625 
L 18.109375 0 
L 9.078125 0 
L 9.078125 54.6875 
L 18.109375 54.6875 
L 18.109375 46.1875 
Q 21.34375 51.125 25.703125 53.5625 
Q 30.078125 56 35.796875 56 
Q 45.21875 56 50.046875 50.171875 
Q 54.890625 44.34375 54.890625 33.015625 
z
" id="DejaVuSans-110"/>
      <path d="M 45.40625 27.984375 
Q 45.40625 37.75 41.375 43.109375 
Q 37.359375 48.484375 30.078125 48.484375 
Q 22.859375 48.484375 18.828125 43.109375 
Q 14.796875 37.75 14.796875 27.984375 
Q 14.796875 18.265625 18.828125 12.890625 
Q 22.859375 7.515625 30.078125 7.515625 
Q 37.359375 7.515625 41.375 12.890625 
Q 45.40625 18.265625 45.40625 27.984375 
z
M 54.390625 6.78125 
Q 54.390625 -7.171875 48.1875 -13.984375 
Q 42 -20.796875 29.203125 -20.796875 
Q 24.46875 -20.796875 20.265625 -20.09375 
Q 16.0625 -19.390625 12.109375 -17.921875 
L 12.109375 -9.1875 
Q 16.0625 -11.328125 19.921875 -12.34375 
Q 23.78125 -13.375 27.78125 -13.375 
Q 36.625 -13.375 41.015625 -8.765625 
Q 45.40625 -4.15625 45.40625 5.171875 
L 45.40625 9.625 
Q 42.625 4.78125 38.28125 2.390625 
Q 33.9375 0 27.875 0 
Q 17.828125 0 11.671875 7.65625 
Q 5.515625 15.328125 5.515625 27.984375 
Q 5.515625 40.671875 11.671875 48.328125 
Q 17.828125 56 27.875 56 
Q 33.9375 56 38.28125 53.609375 
Q 42.625 51.21875 45.40625 46.390625 
L 45.40625 54.6875 
L 54.390625 54.6875 
z
" id="DejaVuSans-103"/>
     </defs>
     <g transform="translate(47.9215 189.201375)rotate(-90)scale(0.144 -0.144)">
      <use xlink:href="#DejaVuSans-65"/>
      <use x="68.392578" xlink:href="#DejaVuSans-99"/>
      <use x="123.373047" xlink:href="#DejaVuSans-116"/>
      <use x="162.582031" xlink:href="#DejaVuSans-46"/>
      <use x="194.369141" xlink:href="#DejaVuSans-32"/>
      <use x="226.15625" xlink:href="#DejaVuSans-67"/>
      <use x="295.980469" xlink:href="#DejaVuSans-101"/>
      <use x="357.503906" xlink:href="#DejaVuSans-108"/>
      <use x="385.287109" xlink:href="#DejaVuSans-108"/>
      <use x="413.070312" xlink:href="#DejaVuSans-115"/>
      <use x="465.169922" xlink:href="#DejaVuSans-32"/>
      <use x="496.957031" xlink:href="#DejaVuSans-77"/>
      <use x="583.236328" xlink:href="#DejaVuSans-111"/>
      <use x="644.417969" xlink:href="#DejaVuSans-118"/>
      <use x="703.597656" xlink:href="#DejaVuSans-105"/>
      <use x="731.380859" xlink:href="#DejaVuSans-110"/>
      <use x="794.759766" xlink:href="#DejaVuSans-103"/>
      <use x="858.236328" xlink:href="#DejaVuSans-32"/>
      <use x="890.023438" xlink:href="#DejaVuSans-65"/>
      <use x="958.353516" xlink:href="#DejaVuSans-118"/>
      <use x="1017.533203" xlink:href="#DejaVuSans-103"/>
      <use x="1081.009766" xlink:href="#DejaVuSans-46"/>
     </g>
    </g>
   </g>
   <g id="line2d_11">
    <path clip-path="url(#pe2f03a2925)" d="M 81 144.730927 
L 82.762105 144.637893 
L 84.524211 143.645525 
L 88.048421 140.45134 
L 89.810526 137.629293 
L 91.572632 136.512879 
L 93.334737 133.163637 
L 95.096842 133.194648 
L 96.858947 133.566786 
L 98.621053 134.311062 
L 100.383158 132.357338 
L 102.145263 132.977568 
L 103.907368 130.620693 
L 105.669474 129.225176 
L 107.431579 126.372117 
L 109.193684 126.310094 
L 110.955789 125.751887 
L 112.717895 122.216576 
L 114.48 119.673633 
L 116.242105 120.44892 
L 118.004211 119.921725 
L 119.766316 118.712276 
L 121.528421 115.238988 
L 123.290526 117.161701 
L 125.052632 117.688896 
L 126.814737 118.619241 
L 128.576842 119.301495 
L 132.101053 118.836322 
L 133.863158 118.58823 
L 135.625263 116.820574 
L 137.387368 115.425057 
L 139.149474 115.114942 
L 140.911579 117.006643 
L 142.673684 118.309126 
L 144.435789 118.278115 
L 146.197895 119.332506 
L 147.96 125.069634 
L 149.722105 126.899313 
L 151.484211 126.279083 
L 153.246316 125.038623 
L 155.008421 119.146437 
L 156.770526 115.332022 
L 160.294737 98.306707 
L 162.056842 90.181693 
L 165.581053 75.730332 
L 167.343158 69.652077 
L 169.105263 64.628214 
L 170.867368 62.054259 
L 172.629474 59.263224 
L 174.391579 55.603866 
L 176.153684 51.293267 
L 177.915789 45.9903 
L 179.677895 45.059955 
L 181.44 42.672069 
L 183.202105 37.276068 
L 184.964211 36.159653 
L 186.726316 37.183033 
L 188.488421 39.974068 
L 193.774737 62.922581 
L 195.536842 72.59817 
L 197.298947 79.513735 
L 199.061053 87.266611 
L 200.823158 93.84105 
L 202.585263 99.60919 
L 206.109474 107.548135 
L 207.871579 109.873997 
L 209.633684 112.416941 
L 213.157895 116.94462 
L 214.92 114.246619 
L 216.682105 110.74232 
L 218.444211 113.037171 
L 220.206316 114.184596 
L 221.968421 111.734688 
L 223.730526 110.370181 
L 225.492632 108.819606 
L 227.254737 106.555767 
L 229.016842 105.284295 
L 230.778947 100.322454 
L 232.541053 98.492776 
L 234.303158 97.469396 
L 236.065263 96.135901 
L 237.827368 93.654981 
L 239.589474 95.08151 
L 241.351579 93.065763 
L 243.113684 93.84105 
L 244.875789 94.306223 
L 246.637895 95.298591 
L 248.4 96.756131 
L 250.162105 99.20604 
L 251.924211 102.865398 
L 253.686316 104.446984 
L 255.448421 102.059099 
L 257.210526 103.888777 
L 258.972632 104.198892 
L 264.258947 106.028571 
L 267.783158 114.68078 
L 269.545263 117.750919 
L 271.307368 121.193196 
L 273.069474 123.705128 
L 274.831579 124.697496 
L 276.593684 127.05437 
L 278.355789 128.07775 
L 280.117895 128.573934 
L 281.88 126.961336 
L 283.642105 126.992347 
L 285.404211 129.690348 
L 287.166316 129.93844 
L 288.928421 127.922692 
L 290.690526 129.628325 
L 292.452632 130.031475 
L 294.214737 129.845406 
L 295.976842 128.666969 
L 297.738947 129.225176 
L 299.501053 130.837774 
L 301.263158 128.822026 
L 303.025263 129.008095 
L 304.787368 127.05437 
L 306.549474 126.124025 
L 308.311579 127.829658 
L 310.073684 126.992347 
L 311.835789 126.930324 
L 313.597895 124.480416 
L 315.36 126.372117 
L 317.122105 128.853038 
L 318.884211 130.000463 
L 320.646316 127.984716 
L 322.408421 127.6746 
L 324.170526 128.356854 
L 325.932632 127.953704 
L 327.694737 129.473268 
L 329.456842 129.876417 
L 331.218947 132.016211 
L 332.981053 132.171268 
L 334.743158 131.58205 
L 336.505263 132.109245 
L 338.267368 130.775751 
L 340.029474 130.837774 
L 341.791579 131.861153 
L 343.553684 132.326326 
L 345.315789 132.512395 
L 347.077895 132.20228 
L 348.84 135.241407 
L 350.602105 134.838258 
L 352.364211 135.92366 
L 354.126316 136.512879 
L 355.888421 137.319178 
L 357.650526 137.753339 
L 359.412632 136.481867 
L 361.174737 137.505247 
L 362.936842 135.70658 
L 364.698947 136.636925 
L 366.461053 136.419844 
L 368.223158 135.024327 
L 369.985263 135.582534 
L 371.747368 138.776719 
L 373.509474 139.024811 
L 375.271579 138.869753 
L 378.795789 135.30343 
L 380.557895 134.249039 
L 382.32 132.791499 
L 384.082105 130.310578 
L 385.844211 128.201796 
L 389.368421 125.162669 
L 391.130526 124.821542 
L 392.892632 122.526691 
L 394.654737 125.410761 
L 396.416842 125.751887 
L 398.178947 125.782899 
L 399.941053 125.627841 
L 401.703158 125.782899 
L 403.465263 128.418877 
L 405.227368 128.449888 
L 406.989474 127.984716 
L 408.751579 125.81391 
L 410.513684 125.751887 
L 412.275789 126.372117 
L 414.037895 125.503795 
L 415.8 123.612094 
L 417.562105 124.914577 
L 421.086316 129.31821 
L 422.848421 130.403613 
L 426.372632 135.644557 
L 428.134737 138.869753 
L 429.896842 139.055822 
L 431.658947 138.497615 
L 433.421053 140.04819 
L 436.945263 144.730927 
L 440.469474 150.064906 
L 442.231579 151.58447 
L 443.993684 156.54631 
L 445.755789 159.2133 
L 447.517895 161.539162 
L 449.28 165.384589 
L 451.042105 170.625533 
L 452.804211 172.951396 
L 456.328421 176.083558 
L 458.090526 176.982891 
L 459.852632 177.324018 
L 461.614737 177.882225 
L 463.376842 177.603121 
L 465.138947 180.642249 
L 466.901053 183.247215 
L 468.663158 183.898456 
L 470.425263 180.921352 
L 472.187368 178.564478 
L 473.949474 175.463327 
L 475.711579 173.633649 
L 477.473684 172.579258 
L 479.235789 168.981923 
L 480.997895 167.67944 
L 482.76 166.004819 
L 484.522105 165.787738 
L 486.284211 162.686588 
L 488.046316 162.624565 
L 491.570526 160.608817 
L 493.332632 160.329714 
L 495.094737 159.368357 
L 496.856842 160.329714 
L 498.618947 161.632197 
L 500.381053 158.965208 
L 502.143158 156.701368 
L 503.905263 155.057758 
L 505.667368 155.646977 
L 507.429474 153.135045 
L 509.191579 152.173688 
L 510.953684 151.460424 
L 512.715789 151.274355 
L 514.477895 151.243343 
L 516.24 150.157941 
L 518.002105 149.444676 
L 519.764211 147.366905 
L 521.526316 148.545342 
L 523.288421 147.118813 
L 525.050526 146.994767 
L 526.812632 147.45994 
L 528.574737 145.81633 
L 530.336842 145.754307 
L 532.098947 141.6918 
L 533.861053 140.017179 
L 535.623158 137.722328 
L 537.385263 137.257155 
L 539.147368 139.583018 
L 540.909474 140.203248 
L 542.671579 143.397433 
L 544.433684 143.986651 
L 546.195789 145.258123 
L 547.957895 145.072054 
L 551.482105 145.165088 
L 553.244211 144.451824 
L 555.006316 142.374053 
L 556.768421 142.343042 
L 560.292632 142.901249 
L 563.816842 143.55249 
L 565.578947 143.397433 
L 567.341053 145.661273 
L 569.103158 146.002399 
L 570.865263 148.91748 
L 572.627368 151.119297 
L 574.389474 148.483319 
L 576.151579 147.956124 
L 577.913684 144.916996 
L 579.675789 142.901249 
L 581.437895 142.281019 
L 583.2 140.420328 
L 583.2 140.420328 
" style="fill:none;stroke:#0000ff;stroke-linecap:square;stroke-width:1.5;"/>
   </g>
   <g id="patch_3">
    <path d="M 81 192.24 
L 81 25.92 
" style="fill:none;stroke:#000000;stroke-linecap:square;stroke-linejoin:miter;stroke-width:0.8;"/>
   </g>
   <g id="patch_4">
    <path d="M 583.2 192.24 
L 583.2 25.92 
" style="fill:none;stroke:#000000;stroke-linecap:square;stroke-linejoin:miter;stroke-width:0.8;"/>
   </g>
   <g id="patch_5">
    <path d="M 81 192.24 
L 583.2 192.24 
" style="fill:none;stroke:#000000;stroke-linecap:square;stroke-linejoin:miter;stroke-width:0.8;"/>
   </g>
   <g id="patch_6">
    <path d="M 81 25.92 
L 583.2 25.92 
" style="fill:none;stroke:#000000;stroke-linecap:square;stroke-linejoin:miter;stroke-width:0.8;"/>
   </g>
   <g id="text_13">
    <!-- Hippocampus, Num Trials=160 All stimulated trials -->
    <defs>
     <path d="M 9.8125 72.90625 
L 19.671875 72.90625 
L 19.671875 43.015625 
L 55.515625 43.015625 
L 55.515625 72.90625 
L 65.375 72.90625 
L 65.375 0 
L 55.515625 0 
L 55.515625 34.71875 
L 19.671875 34.71875 
L 19.671875 0 
L 9.8125 0 
z
" id="DejaVuSans-72"/>
     <path d="M 18.109375 8.203125 
L 18.109375 -20.796875 
L 9.078125 -20.796875 
L 9.078125 54.6875 
L 18.109375 54.6875 
L 18.109375 46.390625 
Q 20.953125 51.265625 25.265625 53.625 
Q 29.59375 56 35.59375 56 
Q 45.5625 56 51.78125 48.09375 
Q 58.015625 40.1875 58.015625 27.296875 
Q 58.015625 14.40625 51.78125 6.484375 
Q 45.5625 -1.421875 35.59375 -1.421875 
Q 29.59375 -1.421875 25.265625 0.953125 
Q 20.953125 3.328125 18.109375 8.203125 
z
M 48.6875 27.296875 
Q 48.6875 37.203125 44.609375 42.84375 
Q 40.53125 48.484375 33.40625 48.484375 
Q 26.265625 48.484375 22.1875 42.84375 
Q 18.109375 37.203125 18.109375 27.296875 
Q 18.109375 17.390625 22.1875 11.75 
Q 26.265625 6.109375 33.40625 6.109375 
Q 40.53125 6.109375 44.609375 11.75 
Q 48.6875 17.390625 48.6875 27.296875 
z
" id="DejaVuSans-112"/>
     <path d="M 34.28125 27.484375 
Q 23.390625 27.484375 19.1875 25 
Q 14.984375 22.515625 14.984375 16.5 
Q 14.984375 11.71875 18.140625 8.90625 
Q 21.296875 6.109375 26.703125 6.109375 
Q 34.1875 6.109375 38.703125 11.40625 
Q 43.21875 16.703125 43.21875 25.484375 
L 43.21875 27.484375 
z
M 52.203125 31.203125 
L 52.203125 0 
L 43.21875 0 
L 43.21875 8.296875 
Q 40.140625 3.328125 35.546875 0.953125 
Q 30.953125 -1.421875 24.3125 -1.421875 
Q 15.921875 -1.421875 10.953125 3.296875 
Q 6 8.015625 6 15.921875 
Q 6 25.140625 12.171875 29.828125 
Q 18.359375 34.515625 30.609375 34.515625 
L 43.21875 34.515625 
L 43.21875 35.40625 
Q 43.21875 41.609375 39.140625 45 
Q 35.0625 48.390625 27.6875 48.390625 
Q 23 48.390625 18.546875 47.265625 
Q 14.109375 46.140625 10.015625 43.890625 
L 10.015625 52.203125 
Q 14.9375 54.109375 19.578125 55.046875 
Q 24.21875 56 28.609375 56 
Q 40.484375 56 46.34375 49.84375 
Q 52.203125 43.703125 52.203125 31.203125 
z
" id="DejaVuSans-97"/>
     <path d="M 8.5 21.578125 
L 8.5 54.6875 
L 17.484375 54.6875 
L 17.484375 21.921875 
Q 17.484375 14.15625 20.5 10.265625 
Q 23.53125 6.390625 29.59375 6.390625 
Q 36.859375 6.390625 41.078125 11.03125 
Q 45.3125 15.671875 45.3125 23.6875 
L 45.3125 54.6875 
L 54.296875 54.6875 
L 54.296875 0 
L 45.3125 0 
L 45.3125 8.40625 
Q 42.046875 3.421875 37.71875 1 
Q 33.40625 -1.421875 27.6875 -1.421875 
Q 18.265625 -1.421875 13.375 4.4375 
Q 8.5 10.296875 8.5 21.578125 
z
M 31.109375 56 
z
" id="DejaVuSans-117"/>
     <path d="M 11.71875 12.40625 
L 22.015625 12.40625 
L 22.015625 4 
L 14.015625 -11.625 
L 7.71875 -11.625 
L 11.71875 4 
z
" id="DejaVuSans-44"/>
     <path d="M 9.8125 72.90625 
L 23.09375 72.90625 
L 55.421875 11.921875 
L 55.421875 72.90625 
L 64.984375 72.90625 
L 64.984375 0 
L 51.703125 0 
L 19.390625 60.984375 
L 19.390625 0 
L 9.8125 0 
z
" id="DejaVuSans-78"/>
     <path d="M 41.109375 46.296875 
Q 39.59375 47.171875 37.8125 47.578125 
Q 36.03125 48 33.890625 48 
Q 26.265625 48 22.1875 43.046875 
Q 18.109375 38.09375 18.109375 28.8125 
L 18.109375 0 
L 9.078125 0 
L 9.078125 54.6875 
L 18.109375 54.6875 
L 18.109375 46.1875 
Q 20.953125 51.171875 25.484375 53.578125 
Q 30.03125 56 36.53125 56 
Q 37.453125 56 38.578125 55.875 
Q 39.703125 55.765625 41.0625 55.515625 
z
" id="DejaVuSans-114"/>
     <path d="M 10.59375 45.40625 
L 73.1875 45.40625 
L 73.1875 37.203125 
L 10.59375 37.203125 
z
M 10.59375 25.484375 
L 73.1875 25.484375 
L 73.1875 17.1875 
L 10.59375 17.1875 
z
" id="DejaVuSans-61"/>
     <path d="M 45.40625 46.390625 
L 45.40625 75.984375 
L 54.390625 75.984375 
L 54.390625 0 
L 45.40625 0 
L 45.40625 8.203125 
Q 42.578125 3.328125 38.25 0.953125 
Q 33.9375 -1.421875 27.875 -1.421875 
Q 17.96875 -1.421875 11.734375 6.484375 
Q 5.515625 14.40625 5.515625 27.296875 
Q 5.515625 40.1875 11.734375 48.09375 
Q 17.96875 56 27.875 56 
Q 33.9375 56 38.25 53.625 
Q 42.578125 51.265625 45.40625 46.390625 
z
M 14.796875 27.296875 
Q 14.796875 17.390625 18.875 11.75 
Q 22.953125 6.109375 30.078125 6.109375 
Q 37.203125 6.109375 41.296875 11.75 
Q 45.40625 17.390625 45.40625 27.296875 
Q 45.40625 37.203125 41.296875 42.84375 
Q 37.203125 48.484375 30.078125 48.484375 
Q 22.953125 48.484375 18.875 42.84375 
Q 14.796875 37.203125 14.796875 27.296875 
z
" id="DejaVuSans-100"/>
    </defs>
    <g transform="translate(178.380938 19.92)scale(0.12 -0.12)">
     <use xlink:href="#DejaVuSans-72"/>
     <use x="75.195312" xlink:href="#DejaVuSans-105"/>
     <use x="102.978516" xlink:href="#DejaVuSans-112"/>
     <use x="166.455078" xlink:href="#DejaVuSans-112"/>
     <use x="229.931641" xlink:href="#DejaVuSans-111"/>
     <use x="291.113281" xlink:href="#DejaVuSans-99"/>
     <use x="346.09375" xlink:href="#DejaVuSans-97"/>
     <use x="407.373047" xlink:href="#DejaVuSans-109"/>
     <use x="504.785156" xlink:href="#DejaVuSans-112"/>
     <use x="568.261719" xlink:href="#DejaVuSans-117"/>
     <use x="631.640625" xlink:href="#DejaVuSans-115"/>
     <use x="683.740234" xlink:href="#DejaVuSans-44"/>
     <use x="715.527344" xlink:href="#DejaVuSans-32"/>
     <use x="747.314453" xlink:href="#DejaVuSans-78"/>
     <use x="822.119141" xlink:href="#DejaVuSans-117"/>
     <use x="885.498047" xlink:href="#DejaVuSans-109"/>
     <use x="982.910156" xlink:href="#DejaVuSans-32"/>
     <use x="1014.697266" xlink:href="#DejaVuSans-84"/>
     <use x="1075.5625" xlink:href="#DejaVuSans-114"/>
     <use x="1116.675781" xlink:href="#DejaVuSans-105"/>
     <use x="1144.458984" xlink:href="#DejaVuSans-97"/>
     <use x="1205.738281" xlink:href="#DejaVuSans-108"/>
     <use x="1233.521484" xlink:href="#DejaVuSans-115"/>
     <use x="1285.621094" xlink:href="#DejaVuSans-61"/>
     <use x="1369.410156" xlink:href="#DejaVuSans-49"/>
     <use x="1433.033203" xlink:href="#DejaVuSans-54"/>
     <use x="1496.65625" xlink:href="#DejaVuSans-48"/>
     <use x="1560.279297" xlink:href="#DejaVuSans-32"/>
     <use x="1592.066406" xlink:href="#DejaVuSans-65"/>
     <use x="1660.474609" xlink:href="#DejaVuSans-108"/>
     <use x="1688.257812" xlink:href="#DejaVuSans-108"/>
     <use x="1716.041016" xlink:href="#DejaVuSans-32"/>
     <use x="1747.828125" xlink:href="#DejaVuSans-115"/>
     <use x="1799.927734" xlink:href="#DejaVuSans-116"/>
     <use x="1839.136719" xlink:href="#DejaVuSans-105"/>
     <use x="1866.919922" xlink:href="#DejaVuSans-109"/>
     <use x="1964.332031" xlink:href="#DejaVuSans-117"/>
     <use x="2027.710938" xlink:href="#DejaVuSans-108"/>
     <use x="2055.494141" xlink:href="#DejaVuSans-97"/>
     <use x="2116.773438" xlink:href="#DejaVuSans-116"/>
     <use x="2155.982422" xlink:href="#DejaVuSans-101"/>
     <use x="2217.505859" xlink:href="#DejaVuSans-100"/>
     <use x="2280.982422" xlink:href="#DejaVuSans-32"/>
     <use x="2312.769531" xlink:href="#DejaVuSans-116"/>
     <use x="2351.978516" xlink:href="#DejaVuSans-114"/>
     <use x="2393.091797" xlink:href="#DejaVuSans-105"/>
     <use x="2420.875" xlink:href="#DejaVuSans-97"/>
     <use x="2482.154297" xlink:href="#DejaVuSans-108"/>
     <use x="2509.9375" xlink:href="#DejaVuSans-115"/>
    </g>
   </g>
   <g id="legend_1">
    <g id="patch_7">
     <path d="M 462.496875 70.7475 
L 574.8 70.7475 
Q 577.2 70.7475 577.2 68.3475 
L 577.2 34.32 
Q 577.2 31.92 574.8 31.92 
L 462.496875 31.92 
Q 460.096875 31.92 460.096875 34.32 
L 460.096875 68.3475 
Q 460.096875 70.7475 462.496875 70.7475 
z
" style="fill:#ffffff;opacity:0.8;stroke:#cccccc;stroke-linejoin:miter;"/>
    </g>
    <g id="line2d_12">
     <path d="M 464.896875 41.638125 
L 488.896875 41.638125 
" style="fill:none;stroke:#0000ff;stroke-linecap:square;stroke-width:1.5;"/>
    </g>
    <g id="line2d_13"/>
    <g id="text_14">
     <!-- Moving Avg. -->
     <g transform="translate(498.496875 45.838125)scale(0.12 -0.12)">
      <use xlink:href="#DejaVuSans-77"/>
      <use x="86.279297" xlink:href="#DejaVuSans-111"/>
      <use x="147.460938" xlink:href="#DejaVuSans-118"/>
      <use x="206.640625" xlink:href="#DejaVuSans-105"/>
      <use x="234.423828" xlink:href="#DejaVuSans-110"/>
      <use x="297.802734" xlink:href="#DejaVuSans-103"/>
      <use x="361.279297" xlink:href="#DejaVuSans-32"/>
      <use x="393.066406" xlink:href="#DejaVuSans-65"/>
      <use x="461.396484" xlink:href="#DejaVuSans-118"/>
      <use x="520.576172" xlink:href="#DejaVuSans-103"/>
      <use x="584.052734" xlink:href="#DejaVuSans-46"/>
     </g>
    </g>
    <g id="patch_8">
     <path d="M 464.896875 63.451875 
L 488.896875 63.451875 
L 488.896875 55.051875 
L 464.896875 55.051875 
z
" style="fill:#0000ff;opacity:0.3;stroke:#0000ff;stroke-linejoin:miter;"/>
    </g>
    <g id="text_15">
     <!-- Std. Err. -->
     <defs>
      <path d="M 53.515625 70.515625 
L 53.515625 60.890625 
Q 47.90625 63.578125 42.921875 64.890625 
Q 37.9375 66.21875 33.296875 66.21875 
Q 25.25 66.21875 20.875 63.09375 
Q 16.5 59.96875 16.5 54.203125 
Q 16.5 49.359375 19.40625 46.890625 
Q 22.3125 44.4375 30.421875 42.921875 
L 36.375 41.703125 
Q 47.40625 39.59375 52.65625 34.296875 
Q 57.90625 29 57.90625 20.125 
Q 57.90625 9.515625 50.796875 4.046875 
Q 43.703125 -1.421875 29.984375 -1.421875 
Q 24.8125 -1.421875 18.96875 -0.25 
Q 13.140625 0.921875 6.890625 3.21875 
L 6.890625 13.375 
Q 12.890625 10.015625 18.65625 8.296875 
Q 24.421875 6.59375 29.984375 6.59375 
Q 38.421875 6.59375 43.015625 9.90625 
Q 47.609375 13.234375 47.609375 19.390625 
Q 47.609375 24.75 44.3125 27.78125 
Q 41.015625 30.8125 33.5 32.328125 
L 27.484375 33.5 
Q 16.453125 35.6875 11.515625 40.375 
Q 6.59375 45.0625 6.59375 53.421875 
Q 6.59375 63.09375 13.40625 68.65625 
Q 20.21875 74.21875 32.171875 74.21875 
Q 37.3125 74.21875 42.625 73.28125 
Q 47.953125 72.359375 53.515625 70.515625 
z
" id="DejaVuSans-83"/>
      <path d="M 9.8125 72.90625 
L 55.90625 72.90625 
L 55.90625 64.59375 
L 19.671875 64.59375 
L 19.671875 43.015625 
L 54.390625 43.015625 
L 54.390625 34.71875 
L 19.671875 34.71875 
L 19.671875 8.296875 
L 56.78125 8.296875 
L 56.78125 0 
L 9.8125 0 
z
" id="DejaVuSans-69"/>
     </defs>
     <g transform="translate(498.496875 63.451875)scale(0.12 -0.12)">
      <use xlink:href="#DejaVuSans-83"/>
      <use x="63.476562" xlink:href="#DejaVuSans-116"/>
      <use x="102.685547" xlink:href="#DejaVuSans-100"/>
      <use x="166.162109" xlink:href="#DejaVuSans-46"/>
      <use x="197.949219" xlink:href="#DejaVuSans-32"/>
      <use x="229.736328" xlink:href="#DejaVuSans-69"/>
      <use x="292.919922" xlink:href="#DejaVuSans-114"/>
      <use x="334.017578" xlink:href="#DejaVuSans-114"/>
      <use x="374.990234" xlink:href="#DejaVuSans-46"/>
     </g>
    </g>
   </g>
  </g>
 </g>
 <defs>
  <clipPath id="pe2f03a2925">
   <rect height="166.32" width="502.2" x="81" y="25.92"/>
  </clipPath>
 </defs>
</svg>
