<?xml version="1.0" encoding="utf-8" standalone="no"?>
<!DOCTYPE svg PUBLIC "-//W3C//DTD SVG 1.1//EN"
  "http://www.w3.org/Graphics/SVG/1.1/DTD/svg11.dtd">
<!-- Created with matplotlib (https://matplotlib.org/) -->
<svg height="216pt" version="1.1" viewBox="0 0 648 216" width="648pt" xmlns="http://www.w3.org/2000/svg" xmlns:xlink="http://www.w3.org/1999/xlink">
 <defs>
  <style type="text/css">
*{stroke-linecap:butt;stroke-linejoin:round;}
  </style>
 </defs>
 <g id="figure_1">
  <g id="patch_1">
   <path d="M 0 216 
L 648 216 
L 648 0 
L 0 0 
z
" style="fill:#ffffff;"/>
  </g>
  <g id="axes_1">
   <g id="patch_2">
    <path d="M 81 192.24 
L 583.2 192.24 
L 583.2 25.92 
L 81 25.92 
z
" style="fill:#ffffff;"/>
   </g>
   <g id="PolyCollection_1">
    <defs>
     <path d="M 162.62878 -23.76 
L 162.62878 -190.08 
L 417.984712 -190.08 
L 417.984712 -23.76 
L 417.984712 -23.76 
L 162.62878 -23.76 
z
" id="mf1f0a49ca1" style="stroke:#808080;stroke-opacity:0.3;"/>
    </defs>
    <g clip-path="url(#p84654b738d)">
     <use style="fill:#808080;fill-opacity:0.3;stroke:#808080;stroke-opacity:0.3;" x="0" xlink:href="#mf1f0a49ca1" y="216"/>
    </g>
   </g>
   <g id="PolyCollection_2">
    <defs>
     <path d="M 81 -74.576003 
L 81 -57.680853 
L 82.702373 -54.072284 
L 84.404746 -55.932698 
L 86.107119 -56.013804 
L 87.809492 -55.957028 
L 89.511864 -56.673799 
L 91.214237 -57.380474 
L 92.91661 -57.494429 
L 94.618983 -56.385537 
L 96.321356 -54.442633 
L 98.023729 -55.407736 
L 99.726102 -58.719396 
L 101.428475 -57.123792 
L 103.130847 -58.017994 
L 104.83322 -60.115961 
L 106.535593 -64.213249 
L 108.237966 -65.15516 
L 109.940339 -69.84676 
L 111.642712 -70.721468 
L 113.345085 -72.038099 
L 115.047458 -70.442511 
L 116.749831 -69.508345 
L 118.452203 -69.671093 
L 120.154576 -71.39295 
L 121.856949 -71.262143 
L 123.559322 -71.791086 
L 125.261695 -71.327682 
L 126.964068 -67.927039 
L 128.666441 -72.053154 
L 130.368814 -73.977099 
L 132.071186 -75.059569 
L 133.773559 -77.398999 
L 135.475932 -80.11462 
L 137.178305 -83.248006 
L 138.880678 -80.680105 
L 140.583051 -79.70835 
L 142.285424 -78.909229 
L 143.987797 -81.921554 
L 145.690169 -77.583287 
L 147.392542 -75.743561 
L 149.094915 -75.038122 
L 150.797288 -75.755458 
L 152.499661 -75.612358 
L 154.202034 -72.830689 
L 155.904407 -72.428207 
L 157.60678 -71.686519 
L 159.309153 -72.046823 
L 161.011525 -67.351105 
L 162.713898 -63.184358 
L 164.416271 -62.036807 
L 166.118644 -63.196703 
L 167.821017 -64.283465 
L 169.52339 -73.124856 
L 171.225763 -81.952851 
L 172.928136 -94.549569 
L 174.630508 -108.084582 
L 176.332881 -120.031619 
L 178.035254 -135.436613 
L 179.737627 -150.164535 
L 181.44 -159.259874 
L 183.142373 -165.30011 
L 184.844746 -167.455544 
L 186.547119 -162.833179 
L 188.249492 -159.723019 
L 189.951864 -153.567927 
L 191.654237 -148.732214 
L 193.35661 -138.977399 
L 195.058983 -127.63944 
L 196.761356 -120.758742 
L 198.463729 -113.212011 
L 200.166102 -105.843996 
L 201.868475 -99.714707 
L 203.570847 -93.251616 
L 205.27322 -85.452575 
L 206.975593 -80.595798 
L 208.677966 -71.259093 
L 210.380339 -70.554857 
L 212.082712 -70.760651 
L 213.785085 -68.023986 
L 215.487458 -67.97057 
L 217.189831 -69.605481 
L 218.892203 -70.567923 
L 220.594576 -73.667462 
L 222.296949 -78.127535 
L 223.999322 -79.631552 
L 225.701695 -84.81139 
L 227.404068 -88.435633 
L 229.106441 -93.192127 
L 230.808814 -92.371285 
L 232.511186 -91.295066 
L 234.213559 -93.771874 
L 235.915932 -94.928529 
L 237.618305 -94.202698 
L 239.320678 -93.495691 
L 241.023051 -93.888893 
L 242.725424 -95.885513 
L 244.427797 -93.99715 
L 246.130169 -90.096113 
L 247.832542 -92.22832 
L 249.534915 -96.788883 
L 251.237288 -92.400118 
L 252.939661 -94.172505 
L 254.642034 -93.467682 
L 256.344407 -93.386515 
L 258.04678 -92.298951 
L 259.749153 -88.763242 
L 261.451525 -87.057913 
L 263.153898 -84.996457 
L 264.856271 -80.574986 
L 266.558644 -78.901984 
L 268.261017 -80.110154 
L 269.96339 -77.804292 
L 271.665763 -77.769202 
L 273.368136 -77.188585 
L 275.070508 -78.1187 
L 276.772881 -75.386477 
L 278.475254 -70.847851 
L 280.177627 -68.225095 
L 281.88 -67.959442 
L 283.582373 -66.21994 
L 285.284746 -63.485954 
L 286.987119 -62.528293 
L 288.689492 -60.905025 
L 290.391864 -61.483587 
L 292.094237 -62.734351 
L 293.79661 -65.05707 
L 295.498983 -65.654802 
L 297.201356 -67.613896 
L 298.903729 -70.991181 
L 300.606102 -69.952368 
L 302.308475 -72.312382 
L 304.010847 -74.469207 
L 305.71322 -77.815925 
L 307.415593 -76.521019 
L 309.117966 -72.959923 
L 310.820339 -73.726811 
L 312.522712 -73.249345 
L 314.225085 -74.020853 
L 315.927458 -72.388369 
L 317.629831 -69.801524 
L 319.332203 -68.661504 
L 321.034576 -67.442972 
L 322.736949 -68.120838 
L 324.439322 -66.374 
L 326.141695 -66.217639 
L 327.844068 -63.934409 
L 329.546441 -67.288302 
L 331.248814 -67.014831 
L 332.951186 -67.691842 
L 334.653559 -70.709917 
L 336.355932 -69.961896 
L 338.058305 -70.448283 
L 339.760678 -66.413306 
L 341.463051 -67.449314 
L 343.165424 -68.327702 
L 344.867797 -69.648264 
L 346.570169 -68.094454 
L 348.272542 -67.90752 
L 349.974915 -65.583558 
L 351.677288 -61.560567 
L 353.379661 -62.814064 
L 355.082034 -62.791475 
L 356.784407 -62.346072 
L 358.48678 -62.145111 
L 360.189153 -59.90353 
L 361.891525 -57.637522 
L 363.593898 -57.930932 
L 365.296271 -57.428162 
L 366.998644 -61.172856 
L 368.701017 -63.181009 
L 370.40339 -64.441109 
L 372.105763 -62.869011 
L 373.808136 -63.718525 
L 375.510508 -65.949829 
L 377.212881 -67.292749 
L 378.915254 -65.20971 
L 380.617627 -64.408897 
L 382.32 -65.764508 
L 384.022373 -64.687119 
L 385.724746 -65.568064 
L 387.427119 -65.152683 
L 389.129492 -67.868779 
L 390.831864 -70.893941 
L 392.534237 -71.180782 
L 394.23661 -72.248918 
L 395.938983 -76.696642 
L 397.641356 -78.103531 
L 399.343729 -80.368034 
L 401.046102 -77.755469 
L 402.748475 -76.311629 
L 404.450847 -76.472719 
L 406.15322 -73.694112 
L 407.855593 -70.927147 
L 409.557966 -67.157799 
L 411.260339 -66.465751 
L 412.962712 -62.967193 
L 414.665085 -65.119176 
L 416.367458 -63.0537 
L 418.069831 -64.501926 
L 419.772203 -67.159067 
L 421.474576 -70.003539 
L 423.176949 -70.850656 
L 424.879322 -70.46732 
L 426.581695 -71.165933 
L 428.284068 -69.553489 
L 429.986441 -69.121833 
L 431.688814 -63.294613 
L 433.391186 -60.769613 
L 435.093559 -58.729846 
L 436.795932 -56.711474 
L 438.498305 -51.834536 
L 440.200678 -47.645237 
L 441.903051 -44.545589 
L 443.605424 -39.411135 
L 445.307797 -36.887183 
L 447.010169 -34.601623 
L 448.712542 -32.949532 
L 450.414915 -31.82742 
L 452.117288 -30.327253 
L 453.819661 -26.522627 
L 455.522034 -23.76 
L 457.224407 -24.123035 
L 458.92678 -25.032548 
L 460.629153 -27.528222 
L 462.331525 -28.64084 
L 464.033898 -30.317451 
L 465.736271 -31.771215 
L 467.438644 -33.144451 
L 469.141017 -30.505888 
L 470.84339 -31.459684 
L 472.545763 -33.489715 
L 474.248136 -36.614935 
L 475.950508 -38.98695 
L 477.652881 -40.608257 
L 479.355254 -42.077233 
L 481.057627 -41.642025 
L 482.76 -45.417805 
L 484.462373 -45.118671 
L 486.164746 -50.228566 
L 487.867119 -50.099632 
L 489.569492 -52.722663 
L 491.271864 -49.687628 
L 492.974237 -48.737593 
L 494.67661 -48.535414 
L 496.378983 -48.238663 
L 498.081356 -50.342493 
L 499.783729 -44.381675 
L 501.486102 -42.426548 
L 503.188475 -40.890373 
L 504.890847 -44.135792 
L 506.59322 -44.264501 
L 508.295593 -46.803748 
L 509.997966 -51.057427 
L 511.700339 -52.591001 
L 513.402712 -54.161837 
L 515.105085 -52.846137 
L 516.807458 -58.751095 
L 518.509831 -62.0549 
L 520.212203 -64.886551 
L 521.914576 -64.097594 
L 523.616949 -62.746236 
L 525.319322 -63.058465 
L 527.021695 -58.528136 
L 528.724068 -55.872531 
L 530.426441 -56.494703 
L 532.128814 -58.294813 
L 533.831186 -58.483239 
L 535.533559 -57.551998 
L 537.235932 -58.194227 
L 538.938305 -59.017595 
L 540.640678 -56.753033 
L 542.343051 -55.986526 
L 544.045424 -55.719968 
L 545.747797 -57.731259 
L 547.450169 -55.368901 
L 549.152542 -54.209913 
L 550.854915 -54.075604 
L 552.557288 -54.822514 
L 554.259661 -54.44623 
L 555.962034 -56.342858 
L 557.664407 -58.430099 
L 559.36678 -58.744903 
L 561.069153 -58.472707 
L 562.771525 -56.118582 
L 564.473898 -58.40644 
L 566.176271 -60.260978 
L 567.878644 -57.104387 
L 569.581017 -55.63398 
L 571.28339 -51.015311 
L 572.985763 -45.437208 
L 574.688136 -46.91835 
L 576.390508 -47.067437 
L 578.092881 -51.971388 
L 579.795254 -56.213187 
L 581.497627 -55.12443 
L 583.2 -56.047669 
L 583.2 -76.919286 
L 583.2 -76.919286 
L 581.497627 -75.889755 
L 579.795254 -77.108817 
L 578.092881 -71.498001 
L 576.390508 -65.928002 
L 574.688136 -65.455754 
L 572.985763 -63.386404 
L 571.28339 -68.282251 
L 569.581017 -72.806098 
L 567.878644 -74.974944 
L 566.176271 -79.008099 
L 564.473898 -77.578432 
L 562.771525 -75.516938 
L 561.069153 -77.778452 
L 559.36678 -78.03883 
L 557.664407 -77.554773 
L 555.962034 -75.026376 
L 554.259661 -72.396127 
L 552.557288 -71.93108 
L 550.854915 -70.37017 
L 549.152542 -70.058338 
L 547.450169 -71.562218 
L 545.747797 -73.904261 
L 544.045424 -72.010011 
L 542.343051 -71.832216 
L 540.640678 -72.308381 
L 538.938305 -74.304409 
L 537.235932 -73.70758 
L 535.533559 -73.107137 
L 533.831186 -74.306191 
L 532.128814 -74.672141 
L 530.426441 -73.454334 
L 528.724068 -72.922596 
L 527.021695 -75.237679 
L 525.319322 -80.382439 
L 523.616949 -81.138479 
L 521.914576 -82.538753 
L 520.212203 -82.371132 
L 518.509831 -79.166947 
L 516.807458 -75.281007 
L 515.105085 -69.025531 
L 513.402712 -70.106414 
L 511.700339 -68.21552 
L 509.997966 -66.10984 
L 508.295593 -60.777192 
L 506.59322 -58.700801 
L 504.890847 -59.362083 
L 503.188475 -55.772806 
L 501.486102 -57.520835 
L 499.783729 -59.382487 
L 498.081356 -65.582102 
L 496.378983 -64.312965 
L 494.67661 -65.43641 
L 492.974237 -65.678043 
L 491.271864 -66.947066 
L 489.569492 -70.48044 
L 487.867119 -67.866495 
L 486.164746 -67.826324 
L 484.462373 -61.929695 
L 482.76 -61.808086 
L 481.057627 -56.7964 
L 479.355254 -56.982527 
L 477.652881 -56.054921 
L 475.950508 -54.480786 
L 474.248136 -51.704588 
L 472.545763 -47.995113 
L 470.84339 -46.563414 
L 469.141017 -46.452063 
L 467.438644 -49.671811 
L 465.736271 -47.760842 
L 464.033898 -47.084311 
L 462.331525 -45.032906 
L 460.629153 -43.393893 
L 458.92678 -40.386305 
L 457.224407 -39.343048 
L 455.522034 -37.842075 
L 453.819661 -40.493947 
L 452.117288 -44.944215 
L 450.414915 -46.728251 
L 448.712542 -48.180246 
L 447.010169 -50.078646 
L 445.307797 -52.497488 
L 443.605424 -55.299273 
L 441.903051 -60.28372 
L 440.200678 -63.663719 
L 438.498305 -68.084362 
L 436.795932 -73.681374 
L 435.093559 -75.47978 
L 433.391186 -77.700603 
L 431.688814 -80.057529 
L 429.986441 -86.213218 
L 428.284068 -86.402898 
L 426.581695 -87.275798 
L 424.879322 -86.199166 
L 423.176949 -86.437166 
L 421.474576 -85.597799 
L 419.772203 -82.317674 
L 418.069831 -79.826601 
L 416.367458 -77.724336 
L 414.665085 -80.096974 
L 412.962712 -78.609703 
L 411.260339 -82.744702 
L 409.557966 -84.094187 
L 407.855593 -88.757256 
L 406.15322 -92.381176 
L 404.450847 -94.928306 
L 402.748475 -94.734347 
L 401.046102 -96.042138 
L 399.343729 -98.489023 
L 397.641356 -96.759223 
L 395.938983 -94.881908 
L 394.23661 -90.364641 
L 392.534237 -89.480006 
L 390.831864 -88.7017 
L 389.129492 -85.513502 
L 387.427119 -82.371286 
L 385.724746 -82.754766 
L 384.022373 -81.682941 
L 382.32 -83.090896 
L 380.617627 -81.961163 
L 378.915254 -82.580547 
L 377.212881 -84.314286 
L 375.510508 -82.639288 
L 373.808136 -79.811141 
L 372.105763 -79.151696 
L 370.40339 -79.532369 
L 368.701017 -77.597027 
L 366.998644 -75.699639 
L 365.296271 -71.54449 
L 363.593898 -72.106867 
L 361.891525 -72.045228 
L 360.189153 -74.661145 
L 358.48678 -77.212728 
L 356.784407 -77.633103 
L 355.082034 -78.519134 
L 353.379661 -78.762833 
L 351.677288 -77.886035 
L 349.974915 -81.230313 
L 348.272542 -83.52199 
L 346.570169 -83.423818 
L 344.867797 -84.710402 
L 343.165424 -83.279333 
L 341.463051 -82.116189 
L 339.760678 -80.933139 
L 338.058305 -85.241817 
L 336.355932 -85.55068 
L 334.653559 -86.755429 
L 332.951186 -83.915193 
L 331.248814 -82.994483 
L 329.546441 -83.43111 
L 327.844068 -79.950307 
L 326.141695 -82.016429 
L 324.439322 -82.126354 
L 322.736949 -83.486197 
L 321.034576 -82.033768 
L 319.332203 -83.389343 
L 317.629831 -85.089715 
L 315.927458 -86.76346 
L 314.225085 -89.214041 
L 312.522712 -88.387829 
L 310.820339 -89.419321 
L 309.117966 -88.943538 
L 307.415593 -92.483424 
L 305.71322 -93.940149 
L 304.010847 -91.073507 
L 302.308475 -89.502316 
L 300.606102 -87.335454 
L 298.903729 -88.160649 
L 297.201356 -85.324574 
L 295.498983 -82.934315 
L 293.79661 -82.378137 
L 292.094237 -79.641406 
L 290.391864 -78.584351 
L 288.689492 -78.630339 
L 286.987119 -79.936226 
L 285.284746 -81.197623 
L 283.582373 -83.878136 
L 281.88 -85.422839 
L 280.177627 -85.68976 
L 278.475254 -87.682643 
L 276.772881 -91.842721 
L 275.070508 -94.436235 
L 273.368136 -93.679867 
L 271.665763 -94.519446 
L 269.96339 -94.928168 
L 268.261017 -96.971658 
L 266.558644 -95.694484 
L 264.856271 -97.483211 
L 263.153898 -102.204256 
L 261.451525 -104.403389 
L 259.749153 -107.047412 
L 258.04678 -111.677834 
L 256.344407 -113.430663 
L 254.642034 -114.059595 
L 252.939661 -114.153632 
L 251.237288 -112.730576 
L 249.534915 -116.41918 
L 247.832542 -111.038366 
L 246.130169 -107.933599 
L 244.427797 -110.95602 
L 242.725424 -111.908051 
L 241.023051 -109.555318 
L 239.320678 -109.238422 
L 237.618305 -110.129136 
L 235.915932 -111.178551 
L 234.213559 -110.204911 
L 232.511186 -108.598653 
L 230.808814 -110.185303 
L 229.106441 -110.87342 
L 227.404068 -106.221112 
L 225.701695 -101.590462 
L 223.999322 -96.385112 
L 222.296949 -95.670072 
L 220.594576 -91.78649 
L 218.892203 -88.761431 
L 217.189831 -88.214914 
L 215.487458 -86.210571 
L 213.785085 -86.423442 
L 212.082712 -89.278801 
L 210.380339 -89.040784 
L 208.677966 -88.78036 
L 206.975593 -97.196112 
L 205.27322 -101.48185 
L 203.570847 -109.21621 
L 201.868475 -116.244987 
L 200.166102 -123.252517 
L 198.463729 -131.32914 
L 196.761356 -139.227046 
L 195.058983 -146.459552 
L 193.35661 -158.732363 
L 191.654237 -169.836685 
L 189.951864 -175.208635 
L 188.249492 -182.190361 
L 186.547119 -185.737374 
L 184.844746 -190.08 
L 183.142373 -187.264746 
L 181.44 -181.144548 
L 179.737627 -171.777331 
L 178.035254 -156.237313 
L 176.332881 -140.664268 
L 174.630508 -129.266824 
L 172.928136 -116.350674 
L 171.225763 -103.472616 
L 169.52339 -94.81444 
L 167.821017 -85.903374 
L 166.118644 -83.972218 
L 164.416271 -81.936671 
L 162.713898 -82.74189 
L 161.011525 -87.540135 
L 159.309153 -91.543121 
L 157.60678 -90.483229 
L 155.904407 -91.339261 
L 154.202034 -90.93678 
L 152.499661 -94.368471 
L 150.797288 -95.024231 
L 149.094915 -94.67642 
L 147.392542 -95.657464 
L 145.690169 -96.746894 
L 143.987797 -101.018569 
L 142.285424 -98.438869 
L 140.583051 -99.148708 
L 138.880678 -100.573534 
L 137.178305 -102.710035 
L 135.475932 -98.742437 
L 133.773559 -96.398608 
L 132.071186 -93.944875 
L 130.368814 -92.719525 
L 128.666441 -90.826691 
L 126.964068 -86.16534 
L 125.261695 -90.487016 
L 123.559322 -91.621333 
L 121.856949 -91.706465 
L 120.154576 -92.108231 
L 118.452203 -90.812171 
L 116.749831 -91.862542 
L 115.047458 -94.21258 
L 113.345085 -96.700057 
L 111.642712 -94.821246 
L 109.940339 -93.743184 
L 108.237966 -88.848456 
L 106.535593 -87.482549 
L 104.83322 -83.324944 
L 103.130847 -81.16232 
L 101.428475 -78.328506 
L 99.726102 -77.709287 
L 98.023729 -72.677293 
L 96.321356 -71.689626 
L 94.618983 -73.5635 
L 92.91661 -73.874805 
L 91.214237 -73.811234 
L 89.511864 -73.364 
L 87.809492 -73.281911 
L 86.107119 -72.958847 
L 84.404746 -72.596142 
L 82.702373 -70.551015 
L 81 -74.576003 
z
" id="m566fc11bea" style="stroke:#0000ff;stroke-opacity:0.3;"/>
    </defs>
    <g clip-path="url(#p84654b738d)">
     <use style="fill:#0000ff;fill-opacity:0.3;stroke:#0000ff;stroke-opacity:0.3;" x="0" xlink:href="#m566fc11bea" y="216"/>
    </g>
   </g>
   <g id="matplotlib.axis_1">
    <g id="xtick_1">
     <g id="line2d_1">
      <defs>
       <path d="M 0 0 
L 0 3.5 
" id="mdbcd29c7e6" style="stroke:#000000;stroke-width:0.8;"/>
      </defs>
      <g>
       <use style="stroke:#000000;stroke-width:0.8;" x="162.62878" xlink:href="#mdbcd29c7e6" y="192.24"/>
      </g>
     </g>
     <g id="text_1">
      <!-- 0.0 -->
      <defs>
       <path d="M 31.78125 66.40625 
Q 24.171875 66.40625 20.328125 58.90625 
Q 16.5 51.421875 16.5 36.375 
Q 16.5 21.390625 20.328125 13.890625 
Q 24.171875 6.390625 31.78125 6.390625 
Q 39.453125 6.390625 43.28125 13.890625 
Q 47.125 21.390625 47.125 36.375 
Q 47.125 51.421875 43.28125 58.90625 
Q 39.453125 66.40625 31.78125 66.40625 
z
M 31.78125 74.21875 
Q 44.046875 74.21875 50.515625 64.515625 
Q 56.984375 54.828125 56.984375 36.375 
Q 56.984375 17.96875 50.515625 8.265625 
Q 44.046875 -1.421875 31.78125 -1.421875 
Q 19.53125 -1.421875 13.0625 8.265625 
Q 6.59375 17.96875 6.59375 36.375 
Q 6.59375 54.828125 13.0625 64.515625 
Q 19.53125 74.21875 31.78125 74.21875 
z
" id="DejaVuSans-48"/>
       <path d="M 10.6875 12.40625 
L 21 12.40625 
L 21 0 
L 10.6875 0 
z
" id="DejaVuSans-46"/>
      </defs>
      <g transform="translate(153.086905 208.358125)scale(0.12 -0.12)">
       <use xlink:href="#DejaVuSans-48"/>
       <use x="63.623047" xlink:href="#DejaVuSans-46"/>
       <use x="95.410156" xlink:href="#DejaVuSans-48"/>
      </g>
     </g>
    </g>
    <g id="xtick_2">
     <g id="line2d_2">
      <g>
       <use style="stroke:#000000;stroke-width:0.8;" x="247.747424" xlink:href="#mdbcd29c7e6" y="192.24"/>
      </g>
     </g>
     <g id="text_2">
      <!-- 0.5 -->
      <defs>
       <path d="M 10.796875 72.90625 
L 49.515625 72.90625 
L 49.515625 64.59375 
L 19.828125 64.59375 
L 19.828125 46.734375 
Q 21.96875 47.46875 24.109375 47.828125 
Q 26.265625 48.1875 28.421875 48.1875 
Q 40.625 48.1875 47.75 41.5 
Q 54.890625 34.8125 54.890625 23.390625 
Q 54.890625 11.625 47.5625 5.09375 
Q 40.234375 -1.421875 26.90625 -1.421875 
Q 22.3125 -1.421875 17.546875 -0.640625 
Q 12.796875 0.140625 7.71875 1.703125 
L 7.71875 11.625 
Q 12.109375 9.234375 16.796875 8.0625 
Q 21.484375 6.890625 26.703125 6.890625 
Q 35.15625 6.890625 40.078125 11.328125 
Q 45.015625 15.765625 45.015625 23.390625 
Q 45.015625 31 40.078125 35.4375 
Q 35.15625 39.890625 26.703125 39.890625 
Q 22.75 39.890625 18.8125 39.015625 
Q 14.890625 38.140625 10.796875 36.28125 
z
" id="DejaVuSans-53"/>
      </defs>
      <g transform="translate(238.205549 208.358125)scale(0.12 -0.12)">
       <use xlink:href="#DejaVuSans-48"/>
       <use x="63.623047" xlink:href="#DejaVuSans-46"/>
       <use x="95.410156" xlink:href="#DejaVuSans-53"/>
      </g>
     </g>
    </g>
    <g id="xtick_3">
     <g id="line2d_3">
      <g>
       <use style="stroke:#000000;stroke-width:0.8;" x="332.866068" xlink:href="#mdbcd29c7e6" y="192.24"/>
      </g>
     </g>
     <g id="text_3">
      <!-- 1.0 -->
      <defs>
       <path d="M 12.40625 8.296875 
L 28.515625 8.296875 
L 28.515625 63.921875 
L 10.984375 60.40625 
L 10.984375 69.390625 
L 28.421875 72.90625 
L 38.28125 72.90625 
L 38.28125 8.296875 
L 54.390625 8.296875 
L 54.390625 0 
L 12.40625 0 
z
" id="DejaVuSans-49"/>
      </defs>
      <g transform="translate(323.324193 208.358125)scale(0.12 -0.12)">
       <use xlink:href="#DejaVuSans-49"/>
       <use x="63.623047" xlink:href="#DejaVuSans-46"/>
       <use x="95.410156" xlink:href="#DejaVuSans-48"/>
      </g>
     </g>
    </g>
    <g id="xtick_4">
     <g id="line2d_4">
      <g>
       <use style="stroke:#000000;stroke-width:0.8;" x="417.984712" xlink:href="#mdbcd29c7e6" y="192.24"/>
      </g>
     </g>
     <g id="text_4">
      <!-- 1.5 -->
      <g transform="translate(408.442837 208.358125)scale(0.12 -0.12)">
       <use xlink:href="#DejaVuSans-49"/>
       <use x="63.623047" xlink:href="#DejaVuSans-46"/>
       <use x="95.410156" xlink:href="#DejaVuSans-53"/>
      </g>
     </g>
    </g>
    <g id="xtick_5">
     <g id="line2d_5">
      <g>
       <use style="stroke:#000000;stroke-width:0.8;" x="503.103356" xlink:href="#mdbcd29c7e6" y="192.24"/>
      </g>
     </g>
     <g id="text_5">
      <!-- 2.0 -->
      <defs>
       <path d="M 19.1875 8.296875 
L 53.609375 8.296875 
L 53.609375 0 
L 7.328125 0 
L 7.328125 8.296875 
Q 12.9375 14.109375 22.625 23.890625 
Q 32.328125 33.6875 34.8125 36.53125 
Q 39.546875 41.84375 41.421875 45.53125 
Q 43.3125 49.21875 43.3125 52.78125 
Q 43.3125 58.59375 39.234375 62.25 
Q 35.15625 65.921875 28.609375 65.921875 
Q 23.96875 65.921875 18.8125 64.3125 
Q 13.671875 62.703125 7.8125 59.421875 
L 7.8125 69.390625 
Q 13.765625 71.78125 18.9375 73 
Q 24.125 74.21875 28.421875 74.21875 
Q 39.75 74.21875 46.484375 68.546875 
Q 53.21875 62.890625 53.21875 53.421875 
Q 53.21875 48.921875 51.53125 44.890625 
Q 49.859375 40.875 45.40625 35.40625 
Q 44.1875 33.984375 37.640625 27.21875 
Q 31.109375 20.453125 19.1875 8.296875 
z
" id="DejaVuSans-50"/>
      </defs>
      <g transform="translate(493.561481 208.358125)scale(0.12 -0.12)">
       <use xlink:href="#DejaVuSans-50"/>
       <use x="63.623047" xlink:href="#DejaVuSans-46"/>
       <use x="95.410156" xlink:href="#DejaVuSans-48"/>
      </g>
     </g>
    </g>
    <g id="text_6">
     <!-- Time (s) -->
     <defs>
      <path d="M -0.296875 72.90625 
L 61.375 72.90625 
L 61.375 64.59375 
L 35.5 64.59375 
L 35.5 0 
L 25.59375 0 
L 25.59375 64.59375 
L -0.296875 64.59375 
z
" id="DejaVuSans-84"/>
      <path d="M 9.421875 54.6875 
L 18.40625 54.6875 
L 18.40625 0 
L 9.421875 0 
z
M 9.421875 75.984375 
L 18.40625 75.984375 
L 18.40625 64.59375 
L 9.421875 64.59375 
z
" id="DejaVuSans-105"/>
      <path d="M 52 44.1875 
Q 55.375 50.25 60.0625 53.125 
Q 64.75 56 71.09375 56 
Q 79.640625 56 84.28125 50.015625 
Q 88.921875 44.046875 88.921875 33.015625 
L 88.921875 0 
L 79.890625 0 
L 79.890625 32.71875 
Q 79.890625 40.578125 77.09375 44.375 
Q 74.3125 48.1875 68.609375 48.1875 
Q 61.625 48.1875 57.5625 43.546875 
Q 53.515625 38.921875 53.515625 30.90625 
L 53.515625 0 
L 44.484375 0 
L 44.484375 32.71875 
Q 44.484375 40.625 41.703125 44.40625 
Q 38.921875 48.1875 33.109375 48.1875 
Q 26.21875 48.1875 22.15625 43.53125 
Q 18.109375 38.875 18.109375 30.90625 
L 18.109375 0 
L 9.078125 0 
L 9.078125 54.6875 
L 18.109375 54.6875 
L 18.109375 46.1875 
Q 21.1875 51.21875 25.484375 53.609375 
Q 29.78125 56 35.6875 56 
Q 41.65625 56 45.828125 52.96875 
Q 50 49.953125 52 44.1875 
z
" id="DejaVuSans-109"/>
      <path d="M 56.203125 29.59375 
L 56.203125 25.203125 
L 14.890625 25.203125 
Q 15.484375 15.921875 20.484375 11.0625 
Q 25.484375 6.203125 34.421875 6.203125 
Q 39.59375 6.203125 44.453125 7.46875 
Q 49.3125 8.734375 54.109375 11.28125 
L 54.109375 2.78125 
Q 49.265625 0.734375 44.1875 -0.34375 
Q 39.109375 -1.421875 33.890625 -1.421875 
Q 20.796875 -1.421875 13.15625 6.1875 
Q 5.515625 13.8125 5.515625 26.8125 
Q 5.515625 40.234375 12.765625 48.109375 
Q 20.015625 56 32.328125 56 
Q 43.359375 56 49.78125 48.890625 
Q 56.203125 41.796875 56.203125 29.59375 
z
M 47.21875 32.234375 
Q 47.125 39.59375 43.09375 43.984375 
Q 39.0625 48.390625 32.421875 48.390625 
Q 24.90625 48.390625 20.390625 44.140625 
Q 15.875 39.890625 15.1875 32.171875 
z
" id="DejaVuSans-101"/>
      <path id="DejaVuSans-32"/>
      <path d="M 31 75.875 
Q 24.46875 64.65625 21.28125 53.65625 
Q 18.109375 42.671875 18.109375 31.390625 
Q 18.109375 20.125 21.3125 9.0625 
Q 24.515625 -2 31 -13.1875 
L 23.1875 -13.1875 
Q 15.875 -1.703125 12.234375 9.375 
Q 8.59375 20.453125 8.59375 31.390625 
Q 8.59375 42.28125 12.203125 53.3125 
Q 15.828125 64.359375 23.1875 75.875 
z
" id="DejaVuSans-40"/>
      <path d="M 44.28125 53.078125 
L 44.28125 44.578125 
Q 40.484375 46.53125 36.375 47.5 
Q 32.28125 48.484375 27.875 48.484375 
Q 21.1875 48.484375 17.84375 46.4375 
Q 14.5 44.390625 14.5 40.28125 
Q 14.5 37.15625 16.890625 35.375 
Q 19.28125 33.59375 26.515625 31.984375 
L 29.59375 31.296875 
Q 39.15625 29.25 43.1875 25.515625 
Q 47.21875 21.78125 47.21875 15.09375 
Q 47.21875 7.46875 41.1875 3.015625 
Q 35.15625 -1.421875 24.609375 -1.421875 
Q 20.21875 -1.421875 15.453125 -0.5625 
Q 10.6875 0.296875 5.421875 2 
L 5.421875 11.28125 
Q 10.40625 8.6875 15.234375 7.390625 
Q 20.0625 6.109375 24.8125 6.109375 
Q 31.15625 6.109375 34.5625 8.28125 
Q 37.984375 10.453125 37.984375 14.40625 
Q 37.984375 18.0625 35.515625 20.015625 
Q 33.0625 21.96875 24.703125 23.78125 
L 21.578125 24.515625 
Q 13.234375 26.265625 9.515625 29.90625 
Q 5.8125 33.546875 5.8125 39.890625 
Q 5.8125 47.609375 11.28125 51.796875 
Q 16.75 56 26.8125 56 
Q 31.78125 56 36.171875 55.265625 
Q 40.578125 54.546875 44.28125 53.078125 
z
" id="DejaVuSans-115"/>
      <path d="M 8.015625 75.875 
L 15.828125 75.875 
Q 23.140625 64.359375 26.78125 53.3125 
Q 30.421875 42.28125 30.421875 31.390625 
Q 30.421875 20.453125 26.78125 9.375 
Q 23.140625 -1.703125 15.828125 -13.1875 
L 8.015625 -13.1875 
Q 14.5 -2 17.703125 9.0625 
Q 20.90625 20.125 20.90625 31.390625 
Q 20.90625 42.671875 17.703125 53.65625 
Q 14.5 64.65625 8.015625 75.875 
z
" id="DejaVuSans-41"/>
     </defs>
     <g transform="translate(302.60475 225.7955)scale(0.144 -0.144)">
      <use xlink:href="#DejaVuSans-84"/>
      <use x="61.037109" xlink:href="#DejaVuSans-105"/>
      <use x="88.820312" xlink:href="#DejaVuSans-109"/>
      <use x="186.232422" xlink:href="#DejaVuSans-101"/>
      <use x="247.755859" xlink:href="#DejaVuSans-32"/>
      <use x="279.542969" xlink:href="#DejaVuSans-40"/>
      <use x="318.556641" xlink:href="#DejaVuSans-115"/>
      <use x="370.65625" xlink:href="#DejaVuSans-41"/>
     </g>
    </g>
   </g>
   <g id="matplotlib.axis_2">
    <g id="ytick_1">
     <g id="line2d_6">
      <defs>
       <path d="M 0 0 
L -3.5 0 
" id="m0bbbce5ba7" style="stroke:#000000;stroke-width:0.8;"/>
      </defs>
      <g>
       <use style="stroke:#000000;stroke-width:0.8;" x="81" xlink:href="#m0bbbce5ba7" y="171.352046"/>
      </g>
     </g>
     <g id="text_7">
      <!-- 0.50 -->
      <g transform="translate(47.28125 175.911108)scale(0.12 -0.12)">
       <use xlink:href="#DejaVuSans-48"/>
       <use x="63.623047" xlink:href="#DejaVuSans-46"/>
       <use x="95.410156" xlink:href="#DejaVuSans-53"/>
       <use x="159.033203" xlink:href="#DejaVuSans-48"/>
      </g>
     </g>
    </g>
    <g id="ytick_2">
     <g id="line2d_7">
      <g>
       <use style="stroke:#000000;stroke-width:0.8;" x="81" xlink:href="#m0bbbce5ba7" y="135.84713"/>
      </g>
     </g>
     <g id="text_8">
      <!-- 0.55 -->
      <g transform="translate(47.28125 140.406193)scale(0.12 -0.12)">
       <use xlink:href="#DejaVuSans-48"/>
       <use x="63.623047" xlink:href="#DejaVuSans-46"/>
       <use x="95.410156" xlink:href="#DejaVuSans-53"/>
       <use x="159.033203" xlink:href="#DejaVuSans-53"/>
      </g>
     </g>
    </g>
    <g id="ytick_3">
     <g id="line2d_8">
      <g>
       <use style="stroke:#000000;stroke-width:0.8;" x="81" xlink:href="#m0bbbce5ba7" y="100.342215"/>
      </g>
     </g>
     <g id="text_9">
      <!-- 0.60 -->
      <defs>
       <path d="M 33.015625 40.375 
Q 26.375 40.375 22.484375 35.828125 
Q 18.609375 31.296875 18.609375 23.390625 
Q 18.609375 15.53125 22.484375 10.953125 
Q 26.375 6.390625 33.015625 6.390625 
Q 39.65625 6.390625 43.53125 10.953125 
Q 47.40625 15.53125 47.40625 23.390625 
Q 47.40625 31.296875 43.53125 35.828125 
Q 39.65625 40.375 33.015625 40.375 
z
M 52.59375 71.296875 
L 52.59375 62.3125 
Q 48.875 64.0625 45.09375 64.984375 
Q 41.3125 65.921875 37.59375 65.921875 
Q 27.828125 65.921875 22.671875 59.328125 
Q 17.53125 52.734375 16.796875 39.40625 
Q 19.671875 43.65625 24.015625 45.921875 
Q 28.375 48.1875 33.59375 48.1875 
Q 44.578125 48.1875 50.953125 41.515625 
Q 57.328125 34.859375 57.328125 23.390625 
Q 57.328125 12.15625 50.6875 5.359375 
Q 44.046875 -1.421875 33.015625 -1.421875 
Q 20.359375 -1.421875 13.671875 8.265625 
Q 6.984375 17.96875 6.984375 36.375 
Q 6.984375 53.65625 15.1875 63.9375 
Q 23.390625 74.21875 37.203125 74.21875 
Q 40.921875 74.21875 44.703125 73.484375 
Q 48.484375 72.75 52.59375 71.296875 
z
" id="DejaVuSans-54"/>
      </defs>
      <g transform="translate(47.28125 104.901278)scale(0.12 -0.12)">
       <use xlink:href="#DejaVuSans-48"/>
       <use x="63.623047" xlink:href="#DejaVuSans-46"/>
       <use x="95.410156" xlink:href="#DejaVuSans-54"/>
       <use x="159.033203" xlink:href="#DejaVuSans-48"/>
      </g>
     </g>
    </g>
    <g id="ytick_4">
     <g id="line2d_9">
      <g>
       <use style="stroke:#000000;stroke-width:0.8;" x="81" xlink:href="#m0bbbce5ba7" y="64.8373"/>
      </g>
     </g>
     <g id="text_10">
      <!-- 0.65 -->
      <g transform="translate(47.28125 69.396362)scale(0.12 -0.12)">
       <use xlink:href="#DejaVuSans-48"/>
       <use x="63.623047" xlink:href="#DejaVuSans-46"/>
       <use x="95.410156" xlink:href="#DejaVuSans-54"/>
       <use x="159.033203" xlink:href="#DejaVuSans-53"/>
      </g>
     </g>
    </g>
    <g id="ytick_5">
     <g id="line2d_10">
      <g>
       <use style="stroke:#000000;stroke-width:0.8;" x="81" xlink:href="#m0bbbce5ba7" y="29.332385"/>
      </g>
     </g>
     <g id="text_11">
      <!-- 0.70 -->
      <defs>
       <path d="M 8.203125 72.90625 
L 55.078125 72.90625 
L 55.078125 68.703125 
L 28.609375 0 
L 18.3125 0 
L 43.21875 64.59375 
L 8.203125 64.59375 
z
" id="DejaVuSans-55"/>
      </defs>
      <g transform="translate(47.28125 33.891447)scale(0.12 -0.12)">
       <use xlink:href="#DejaVuSans-48"/>
       <use x="63.623047" xlink:href="#DejaVuSans-46"/>
       <use x="95.410156" xlink:href="#DejaVuSans-55"/>
       <use x="159.033203" xlink:href="#DejaVuSans-48"/>
      </g>
     </g>
    </g>
    <g id="text_12">
     <!-- Act. Cells Moving Avg. -->
     <defs>
      <path d="M 34.1875 63.1875 
L 20.796875 26.90625 
L 47.609375 26.90625 
z
M 28.609375 72.90625 
L 39.796875 72.90625 
L 67.578125 0 
L 57.328125 0 
L 50.6875 18.703125 
L 17.828125 18.703125 
L 11.1875 0 
L 0.78125 0 
z
" id="DejaVuSans-65"/>
      <path d="M 48.78125 52.59375 
L 48.78125 44.1875 
Q 44.96875 46.296875 41.140625 47.34375 
Q 37.3125 48.390625 33.40625 48.390625 
Q 24.65625 48.390625 19.8125 42.84375 
Q 14.984375 37.3125 14.984375 27.296875 
Q 14.984375 17.28125 19.8125 11.734375 
Q 24.65625 6.203125 33.40625 6.203125 
Q 37.3125 6.203125 41.140625 7.25 
Q 44.96875 8.296875 48.78125 10.40625 
L 48.78125 2.09375 
Q 45.015625 0.34375 40.984375 -0.53125 
Q 36.96875 -1.421875 32.421875 -1.421875 
Q 20.0625 -1.421875 12.78125 6.34375 
Q 5.515625 14.109375 5.515625 27.296875 
Q 5.515625 40.671875 12.859375 48.328125 
Q 20.21875 56 33.015625 56 
Q 37.15625 56 41.109375 55.140625 
Q 45.0625 54.296875 48.78125 52.59375 
z
" id="DejaVuSans-99"/>
      <path d="M 18.3125 70.21875 
L 18.3125 54.6875 
L 36.8125 54.6875 
L 36.8125 47.703125 
L 18.3125 47.703125 
L 18.3125 18.015625 
Q 18.3125 11.328125 20.140625 9.421875 
Q 21.96875 7.515625 27.59375 7.515625 
L 36.8125 7.515625 
L 36.8125 0 
L 27.59375 0 
Q 17.1875 0 13.234375 3.875 
Q 9.28125 7.765625 9.28125 18.015625 
L 9.28125 47.703125 
L 2.6875 47.703125 
L 2.6875 54.6875 
L 9.28125 54.6875 
L 9.28125 70.21875 
z
" id="DejaVuSans-116"/>
      <path d="M 64.40625 67.28125 
L 64.40625 56.890625 
Q 59.421875 61.53125 53.78125 63.8125 
Q 48.140625 66.109375 41.796875 66.109375 
Q 29.296875 66.109375 22.65625 58.46875 
Q 16.015625 50.828125 16.015625 36.375 
Q 16.015625 21.96875 22.65625 14.328125 
Q 29.296875 6.6875 41.796875 6.6875 
Q 48.140625 6.6875 53.78125 8.984375 
Q 59.421875 11.28125 64.40625 15.921875 
L 64.40625 5.609375 
Q 59.234375 2.09375 53.4375 0.328125 
Q 47.65625 -1.421875 41.21875 -1.421875 
Q 24.65625 -1.421875 15.125 8.703125 
Q 5.609375 18.84375 5.609375 36.375 
Q 5.609375 53.953125 15.125 64.078125 
Q 24.65625 74.21875 41.21875 74.21875 
Q 47.75 74.21875 53.53125 72.484375 
Q 59.328125 70.75 64.40625 67.28125 
z
" id="DejaVuSans-67"/>
      <path d="M 9.421875 75.984375 
L 18.40625 75.984375 
L 18.40625 0 
L 9.421875 0 
z
" id="DejaVuSans-108"/>
      <path d="M 9.8125 72.90625 
L 24.515625 72.90625 
L 43.109375 23.296875 
L 61.8125 72.90625 
L 76.515625 72.90625 
L 76.515625 0 
L 66.890625 0 
L 66.890625 64.015625 
L 48.09375 14.015625 
L 38.1875 14.015625 
L 19.390625 64.015625 
L 19.390625 0 
L 9.8125 0 
z
" id="DejaVuSans-77"/>
      <path d="M 30.609375 48.390625 
Q 23.390625 48.390625 19.1875 42.75 
Q 14.984375 37.109375 14.984375 27.296875 
Q 14.984375 17.484375 19.15625 11.84375 
Q 23.34375 6.203125 30.609375 6.203125 
Q 37.796875 6.203125 41.984375 11.859375 
Q 46.1875 17.53125 46.1875 27.296875 
Q 46.1875 37.015625 41.984375 42.703125 
Q 37.796875 48.390625 30.609375 48.390625 
z
M 30.609375 56 
Q 42.328125 56 49.015625 48.375 
Q 55.71875 40.765625 55.71875 27.296875 
Q 55.71875 13.875 49.015625 6.21875 
Q 42.328125 -1.421875 30.609375 -1.421875 
Q 18.84375 -1.421875 12.171875 6.21875 
Q 5.515625 13.875 5.515625 27.296875 
Q 5.515625 40.765625 12.171875 48.375 
Q 18.84375 56 30.609375 56 
z
" id="DejaVuSans-111"/>
      <path d="M 2.984375 54.6875 
L 12.5 54.6875 
L 29.59375 8.796875 
L 46.6875 54.6875 
L 56.203125 54.6875 
L 35.6875 0 
L 23.484375 0 
z
" id="DejaVuSans-118"/>
      <path d="M 54.890625 33.015625 
L 54.890625 0 
L 45.90625 0 
L 45.90625 32.71875 
Q 45.90625 40.484375 42.875 44.328125 
Q 39.84375 48.1875 33.796875 48.1875 
Q 26.515625 48.1875 22.3125 43.546875 
Q 18.109375 38.921875 18.109375 30.90625 
L 18.109375 0 
L 9.078125 0 
L 9.078125 54.6875 
L 18.109375 54.6875 
L 18.109375 46.1875 
Q 21.34375 51.125 25.703125 53.5625 
Q 30.078125 56 35.796875 56 
Q 45.21875 56 50.046875 50.171875 
Q 54.890625 44.34375 54.890625 33.015625 
z
" id="DejaVuSans-110"/>
      <path d="M 45.40625 27.984375 
Q 45.40625 37.75 41.375 43.109375 
Q 37.359375 48.484375 30.078125 48.484375 
Q 22.859375 48.484375 18.828125 43.109375 
Q 14.796875 37.75 14.796875 27.984375 
Q 14.796875 18.265625 18.828125 12.890625 
Q 22.859375 7.515625 30.078125 7.515625 
Q 37.359375 7.515625 41.375 12.890625 
Q 45.40625 18.265625 45.40625 27.984375 
z
M 54.390625 6.78125 
Q 54.390625 -7.171875 48.1875 -13.984375 
Q 42 -20.796875 29.203125 -20.796875 
Q 24.46875 -20.796875 20.265625 -20.09375 
Q 16.0625 -19.390625 12.109375 -17.921875 
L 12.109375 -9.1875 
Q 16.0625 -11.328125 19.921875 -12.34375 
Q 23.78125 -13.375 27.78125 -13.375 
Q 36.625 -13.375 41.015625 -8.765625 
Q 45.40625 -4.15625 45.40625 5.171875 
L 45.40625 9.625 
Q 42.625 4.78125 38.28125 2.390625 
Q 33.9375 0 27.875 0 
Q 17.828125 0 11.671875 7.65625 
Q 5.515625 15.328125 5.515625 27.984375 
Q 5.515625 40.671875 11.671875 48.328125 
Q 17.828125 56 27.875 56 
Q 33.9375 56 38.28125 53.609375 
Q 42.625 51.21875 45.40625 46.390625 
L 45.40625 54.6875 
L 54.390625 54.6875 
z
" id="DejaVuSans-103"/>
     </defs>
     <g transform="translate(40.2865 189.201375)rotate(-90)scale(0.144 -0.144)">
      <use xlink:href="#DejaVuSans-65"/>
      <use x="68.392578" xlink:href="#DejaVuSans-99"/>
      <use x="123.373047" xlink:href="#DejaVuSans-116"/>
      <use x="162.582031" xlink:href="#DejaVuSans-46"/>
      <use x="194.369141" xlink:href="#DejaVuSans-32"/>
      <use x="226.15625" xlink:href="#DejaVuSans-67"/>
      <use x="295.980469" xlink:href="#DejaVuSans-101"/>
      <use x="357.503906" xlink:href="#DejaVuSans-108"/>
      <use x="385.287109" xlink:href="#DejaVuSans-108"/>
      <use x="413.070312" xlink:href="#DejaVuSans-115"/>
      <use x="465.169922" xlink:href="#DejaVuSans-32"/>
      <use x="496.957031" xlink:href="#DejaVuSans-77"/>
      <use x="583.236328" xlink:href="#DejaVuSans-111"/>
      <use x="644.417969" xlink:href="#DejaVuSans-118"/>
      <use x="703.597656" xlink:href="#DejaVuSans-105"/>
      <use x="731.380859" xlink:href="#DejaVuSans-110"/>
      <use x="794.759766" xlink:href="#DejaVuSans-103"/>
      <use x="858.236328" xlink:href="#DejaVuSans-32"/>
      <use x="890.023438" xlink:href="#DejaVuSans-65"/>
      <use x="958.353516" xlink:href="#DejaVuSans-118"/>
      <use x="1017.533203" xlink:href="#DejaVuSans-103"/>
      <use x="1081.009766" xlink:href="#DejaVuSans-46"/>
     </g>
    </g>
   </g>
   <g id="line2d_11">
    <path clip-path="url(#p84654b738d)" d="M 81 149.871572 
L 82.702373 153.68835 
L 84.404746 151.73558 
L 89.511864 150.981101 
L 91.214237 150.404146 
L 92.91661 150.315383 
L 94.618983 151.025482 
L 96.321356 152.933871 
L 98.023729 151.957486 
L 99.726102 147.785658 
L 101.428475 148.273851 
L 103.130847 146.409843 
L 104.83322 144.279548 
L 106.535593 140.152101 
L 108.237966 138.998192 
L 109.940339 134.205028 
L 111.642712 133.228643 
L 113.345085 131.630922 
L 115.047458 133.672454 
L 116.749831 135.314557 
L 118.452203 135.758368 
L 120.154576 134.249409 
L 121.856949 134.515696 
L 123.559322 134.29379 
L 125.261695 135.092651 
L 126.964068 138.95381 
L 128.666441 134.560077 
L 130.368814 132.651688 
L 132.071186 131.497778 
L 135.475932 126.571471 
L 137.178305 123.02098 
L 138.880678 125.37318 
L 140.583051 126.571471 
L 142.285424 127.325951 
L 143.987797 124.529939 
L 145.690169 128.83491 
L 147.392542 130.299487 
L 149.094915 131.142729 
L 150.797288 130.610155 
L 152.499661 131.009586 
L 154.202034 134.116266 
L 155.904407 134.116266 
L 157.60678 134.915126 
L 159.309153 134.205028 
L 162.713898 143.036876 
L 164.416271 144.013261 
L 167.821017 140.906581 
L 171.225763 123.287267 
L 176.332881 85.652056 
L 179.737627 55.029067 
L 181.44 45.797789 
L 183.142373 39.717572 
L 184.844746 37.232228 
L 186.547119 41.714724 
L 188.249492 45.04331 
L 189.951864 51.611719 
L 191.654237 56.71555 
L 193.35661 67.145119 
L 195.058983 78.950504 
L 196.761356 86.007106 
L 200.166102 101.451744 
L 203.570847 114.766087 
L 205.27322 122.532787 
L 206.975593 127.104045 
L 208.677966 135.980274 
L 210.380339 136.20218 
L 212.082712 135.980274 
L 213.785085 138.776286 
L 215.487458 138.909429 
L 217.189831 137.089802 
L 218.892203 136.335323 
L 220.594576 133.273024 
L 222.296949 129.101196 
L 223.999322 127.991668 
L 225.701695 122.799074 
L 227.404068 118.671628 
L 229.106441 113.967226 
L 230.808814 114.721706 
L 232.511186 116.05314 
L 234.213559 114.011607 
L 235.915932 112.94646 
L 239.320678 114.632944 
L 241.023051 114.277894 
L 242.725424 112.103218 
L 244.427797 113.523415 
L 246.130169 116.985144 
L 247.832542 114.366657 
L 249.534915 109.395969 
L 251.237288 113.434653 
L 252.939661 111.836931 
L 256.344407 112.591411 
L 258.04678 114.011607 
L 259.749153 118.094673 
L 263.153898 122.399644 
L 264.856271 126.970902 
L 266.558644 128.701766 
L 268.261017 127.459094 
L 269.96339 129.63377 
L 271.665763 129.855676 
L 273.368136 130.565774 
L 275.070508 129.722533 
L 276.772881 132.385401 
L 278.475254 136.734753 
L 280.177627 139.042573 
L 281.88 139.30886 
L 283.582373 140.950962 
L 285.284746 143.658212 
L 286.987119 144.76774 
L 288.689492 146.232318 
L 290.391864 145.966031 
L 292.094237 144.812121 
L 293.79661 142.282396 
L 295.498983 141.705441 
L 297.201356 139.530765 
L 298.903729 136.424085 
L 300.606102 137.356089 
L 302.308475 135.092651 
L 304.010847 133.228643 
L 305.71322 130.121963 
L 307.415593 131.497778 
L 309.117966 135.04827 
L 310.820339 134.426934 
L 312.522712 135.181413 
L 314.225085 134.382553 
L 317.629831 138.55438 
L 321.034576 141.26163 
L 322.736949 140.196483 
L 324.439322 141.749823 
L 326.141695 141.882966 
L 327.844068 144.057642 
L 329.546441 140.640294 
L 331.248814 140.995343 
L 332.951186 140.196483 
L 334.653559 137.267327 
L 336.355932 138.243712 
L 338.058305 138.15495 
L 339.760678 142.326777 
L 343.165424 140.196483 
L 344.867797 138.820667 
L 346.570169 140.240864 
L 348.272542 140.285245 
L 349.974915 142.593064 
L 351.677288 146.276699 
L 353.379661 145.211552 
L 355.082034 145.344695 
L 356.784407 146.010412 
L 358.48678 146.32108 
L 361.891525 151.158625 
L 363.593898 150.981101 
L 365.296271 151.513674 
L 366.998644 147.563752 
L 368.701017 145.610982 
L 370.40339 144.013261 
L 372.105763 144.989646 
L 373.808136 144.235167 
L 375.510508 141.705441 
L 377.212881 140.196483 
L 378.915254 142.104872 
L 380.617627 142.81497 
L 382.32 141.572298 
L 384.022373 142.81497 
L 385.724746 141.838585 
L 387.427119 142.238015 
L 390.831864 136.20218 
L 392.534237 135.669606 
L 394.23661 134.693221 
L 395.938983 130.210725 
L 397.641356 128.568623 
L 399.343729 126.571471 
L 401.046102 129.101196 
L 402.748475 130.477012 
L 404.450847 130.299487 
L 406.15322 132.962356 
L 407.855593 136.157798 
L 409.557966 140.374007 
L 411.260339 141.394773 
L 412.962712 145.211552 
L 414.665085 143.391925 
L 416.367458 145.610982 
L 418.069831 143.835736 
L 419.772203 141.26163 
L 421.474576 138.199331 
L 423.176949 137.356089 
L 424.879322 137.666757 
L 426.581695 136.779134 
L 428.284068 138.021806 
L 429.986441 138.332474 
L 431.688814 144.323929 
L 433.391186 146.764892 
L 435.093559 148.895187 
L 436.795932 150.803576 
L 438.498305 156.040551 
L 440.200678 160.345522 
L 441.903051 163.585345 
L 443.605424 168.644796 
L 445.307797 171.307665 
L 447.010169 173.659865 
L 448.712542 175.435111 
L 450.414915 176.722164 
L 452.117288 178.364266 
L 453.819661 182.491713 
L 455.522034 185.198963 
L 458.92678 183.290573 
L 460.629153 180.538942 
L 462.331525 179.163127 
L 464.033898 177.299119 
L 465.736271 176.233972 
L 467.438644 174.591869 
L 469.141017 177.521025 
L 470.84339 176.988451 
L 472.545763 175.257586 
L 474.248136 171.840238 
L 475.950508 169.266132 
L 477.652881 167.668411 
L 479.355254 166.47012 
L 481.057627 166.780788 
L 482.76 162.387055 
L 484.462373 162.475817 
L 486.164746 156.972555 
L 487.867119 157.016936 
L 489.569492 154.398449 
L 491.271864 157.682653 
L 492.974237 158.792182 
L 494.67661 159.014088 
L 496.378983 159.724186 
L 498.081356 158.037702 
L 499.783729 164.117919 
L 501.486102 166.026308 
L 503.188475 167.668411 
L 504.890847 164.251063 
L 506.59322 164.517349 
L 508.295593 162.20953 
L 509.997966 157.416366 
L 513.402712 153.865875 
L 515.105085 155.064166 
L 516.807458 148.983949 
L 518.509831 145.389076 
L 520.212203 142.371159 
L 521.914576 142.681827 
L 523.616949 144.057642 
L 525.319322 144.279548 
L 527.021695 149.117092 
L 528.724068 151.602437 
L 530.426441 151.025482 
L 532.128814 149.516523 
L 533.831186 149.605285 
L 535.533559 150.670433 
L 538.938305 149.338998 
L 540.640678 151.469293 
L 542.343051 152.090629 
L 544.045424 152.13501 
L 545.747797 150.18224 
L 547.450169 152.534441 
L 549.152542 153.865875 
L 550.854915 153.777113 
L 552.557288 152.623203 
L 554.259661 152.578822 
L 557.664407 148.007564 
L 559.36678 147.608134 
L 561.069153 147.87442 
L 562.771525 150.18224 
L 564.473898 148.007564 
L 566.176271 146.365462 
L 567.878644 149.960334 
L 569.581017 151.779961 
L 571.28339 156.351219 
L 572.985763 161.588194 
L 574.688136 159.812948 
L 576.390508 159.50228 
L 579.795254 149.338998 
L 581.497627 150.492908 
L 583.2 149.516523 
L 583.2 149.516523 
" style="fill:none;stroke:#0000ff;stroke-linecap:square;stroke-width:1.5;"/>
   </g>
   <g id="patch_3">
    <path d="M 81 192.24 
L 81 25.92 
" style="fill:none;stroke:#000000;stroke-linecap:square;stroke-linejoin:miter;stroke-width:0.8;"/>
   </g>
   <g id="patch_4">
    <path d="M 583.2 192.24 
L 583.2 25.92 
" style="fill:none;stroke:#000000;stroke-linecap:square;stroke-linejoin:miter;stroke-width:0.8;"/>
   </g>
   <g id="patch_5">
    <path d="M 81 192.24 
L 583.2 192.24 
" style="fill:none;stroke:#000000;stroke-linecap:square;stroke-linejoin:miter;stroke-width:0.8;"/>
   </g>
   <g id="patch_6">
    <path d="M 81 25.92 
L 583.2 25.92 
" style="fill:none;stroke:#000000;stroke-linecap:square;stroke-linejoin:miter;stroke-width:0.8;"/>
   </g>
   <g id="text_13">
    <!-- Hippocampus, Num Trials=160 All stimulated trials -->
    <defs>
     <path d="M 9.8125 72.90625 
L 19.671875 72.90625 
L 19.671875 43.015625 
L 55.515625 43.015625 
L 55.515625 72.90625 
L 65.375 72.90625 
L 65.375 0 
L 55.515625 0 
L 55.515625 34.71875 
L 19.671875 34.71875 
L 19.671875 0 
L 9.8125 0 
z
" id="DejaVuSans-72"/>
     <path d="M 18.109375 8.203125 
L 18.109375 -20.796875 
L 9.078125 -20.796875 
L 9.078125 54.6875 
L 18.109375 54.6875 
L 18.109375 46.390625 
Q 20.953125 51.265625 25.265625 53.625 
Q 29.59375 56 35.59375 56 
Q 45.5625 56 51.78125 48.09375 
Q 58.015625 40.1875 58.015625 27.296875 
Q 58.015625 14.40625 51.78125 6.484375 
Q 45.5625 -1.421875 35.59375 -1.421875 
Q 29.59375 -1.421875 25.265625 0.953125 
Q 20.953125 3.328125 18.109375 8.203125 
z
M 48.6875 27.296875 
Q 48.6875 37.203125 44.609375 42.84375 
Q 40.53125 48.484375 33.40625 48.484375 
Q 26.265625 48.484375 22.1875 42.84375 
Q 18.109375 37.203125 18.109375 27.296875 
Q 18.109375 17.390625 22.1875 11.75 
Q 26.265625 6.109375 33.40625 6.109375 
Q 40.53125 6.109375 44.609375 11.75 
Q 48.6875 17.390625 48.6875 27.296875 
z
" id="DejaVuSans-112"/>
     <path d="M 34.28125 27.484375 
Q 23.390625 27.484375 19.1875 25 
Q 14.984375 22.515625 14.984375 16.5 
Q 14.984375 11.71875 18.140625 8.90625 
Q 21.296875 6.109375 26.703125 6.109375 
Q 34.1875 6.109375 38.703125 11.40625 
Q 43.21875 16.703125 43.21875 25.484375 
L 43.21875 27.484375 
z
M 52.203125 31.203125 
L 52.203125 0 
L 43.21875 0 
L 43.21875 8.296875 
Q 40.140625 3.328125 35.546875 0.953125 
Q 30.953125 -1.421875 24.3125 -1.421875 
Q 15.921875 -1.421875 10.953125 3.296875 
Q 6 8.015625 6 15.921875 
Q 6 25.140625 12.171875 29.828125 
Q 18.359375 34.515625 30.609375 34.515625 
L 43.21875 34.515625 
L 43.21875 35.40625 
Q 43.21875 41.609375 39.140625 45 
Q 35.0625 48.390625 27.6875 48.390625 
Q 23 48.390625 18.546875 47.265625 
Q 14.109375 46.140625 10.015625 43.890625 
L 10.015625 52.203125 
Q 14.9375 54.109375 19.578125 55.046875 
Q 24.21875 56 28.609375 56 
Q 40.484375 56 46.34375 49.84375 
Q 52.203125 43.703125 52.203125 31.203125 
z
" id="DejaVuSans-97"/>
     <path d="M 8.5 21.578125 
L 8.5 54.6875 
L 17.484375 54.6875 
L 17.484375 21.921875 
Q 17.484375 14.15625 20.5 10.265625 
Q 23.53125 6.390625 29.59375 6.390625 
Q 36.859375 6.390625 41.078125 11.03125 
Q 45.3125 15.671875 45.3125 23.6875 
L 45.3125 54.6875 
L 54.296875 54.6875 
L 54.296875 0 
L 45.3125 0 
L 45.3125 8.40625 
Q 42.046875 3.421875 37.71875 1 
Q 33.40625 -1.421875 27.6875 -1.421875 
Q 18.265625 -1.421875 13.375 4.4375 
Q 8.5 10.296875 8.5 21.578125 
z
M 31.109375 56 
z
" id="DejaVuSans-117"/>
     <path d="M 11.71875 12.40625 
L 22.015625 12.40625 
L 22.015625 4 
L 14.015625 -11.625 
L 7.71875 -11.625 
L 11.71875 4 
z
" id="DejaVuSans-44"/>
     <path d="M 9.8125 72.90625 
L 23.09375 72.90625 
L 55.421875 11.921875 
L 55.421875 72.90625 
L 64.984375 72.90625 
L 64.984375 0 
L 51.703125 0 
L 19.390625 60.984375 
L 19.390625 0 
L 9.8125 0 
z
" id="DejaVuSans-78"/>
     <path d="M 41.109375 46.296875 
Q 39.59375 47.171875 37.8125 47.578125 
Q 36.03125 48 33.890625 48 
Q 26.265625 48 22.1875 43.046875 
Q 18.109375 38.09375 18.109375 28.8125 
L 18.109375 0 
L 9.078125 0 
L 9.078125 54.6875 
L 18.109375 54.6875 
L 18.109375 46.1875 
Q 20.953125 51.171875 25.484375 53.578125 
Q 30.03125 56 36.53125 56 
Q 37.453125 56 38.578125 55.875 
Q 39.703125 55.765625 41.0625 55.515625 
z
" id="DejaVuSans-114"/>
     <path d="M 10.59375 45.40625 
L 73.1875 45.40625 
L 73.1875 37.203125 
L 10.59375 37.203125 
z
M 10.59375 25.484375 
L 73.1875 25.484375 
L 73.1875 17.1875 
L 10.59375 17.1875 
z
" id="DejaVuSans-61"/>
     <path d="M 45.40625 46.390625 
L 45.40625 75.984375 
L 54.390625 75.984375 
L 54.390625 0 
L 45.40625 0 
L 45.40625 8.203125 
Q 42.578125 3.328125 38.25 0.953125 
Q 33.9375 -1.421875 27.875 -1.421875 
Q 17.96875 -1.421875 11.734375 6.484375 
Q 5.515625 14.40625 5.515625 27.296875 
Q 5.515625 40.1875 11.734375 48.09375 
Q 17.96875 56 27.875 56 
Q 33.9375 56 38.25 53.625 
Q 42.578125 51.265625 45.40625 46.390625 
z
M 14.796875 27.296875 
Q 14.796875 17.390625 18.875 11.75 
Q 22.953125 6.109375 30.078125 6.109375 
Q 37.203125 6.109375 41.296875 11.75 
Q 45.40625 17.390625 45.40625 27.296875 
Q 45.40625 37.203125 41.296875 42.84375 
Q 37.203125 48.484375 30.078125 48.484375 
Q 22.953125 48.484375 18.875 42.84375 
Q 14.796875 37.203125 14.796875 27.296875 
z
" id="DejaVuSans-100"/>
    </defs>
    <g transform="translate(178.380938 19.92)scale(0.12 -0.12)">
     <use xlink:href="#DejaVuSans-72"/>
     <use x="75.195312" xlink:href="#DejaVuSans-105"/>
     <use x="102.978516" xlink:href="#DejaVuSans-112"/>
     <use x="166.455078" xlink:href="#DejaVuSans-112"/>
     <use x="229.931641" xlink:href="#DejaVuSans-111"/>
     <use x="291.113281" xlink:href="#DejaVuSans-99"/>
     <use x="346.09375" xlink:href="#DejaVuSans-97"/>
     <use x="407.373047" xlink:href="#DejaVuSans-109"/>
     <use x="504.785156" xlink:href="#DejaVuSans-112"/>
     <use x="568.261719" xlink:href="#DejaVuSans-117"/>
     <use x="631.640625" xlink:href="#DejaVuSans-115"/>
     <use x="683.740234" xlink:href="#DejaVuSans-44"/>
     <use x="715.527344" xlink:href="#DejaVuSans-32"/>
     <use x="747.314453" xlink:href="#DejaVuSans-78"/>
     <use x="822.119141" xlink:href="#DejaVuSans-117"/>
     <use x="885.498047" xlink:href="#DejaVuSans-109"/>
     <use x="982.910156" xlink:href="#DejaVuSans-32"/>
     <use x="1014.697266" xlink:href="#DejaVuSans-84"/>
     <use x="1075.5625" xlink:href="#DejaVuSans-114"/>
     <use x="1116.675781" xlink:href="#DejaVuSans-105"/>
     <use x="1144.458984" xlink:href="#DejaVuSans-97"/>
     <use x="1205.738281" xlink:href="#DejaVuSans-108"/>
     <use x="1233.521484" xlink:href="#DejaVuSans-115"/>
     <use x="1285.621094" xlink:href="#DejaVuSans-61"/>
     <use x="1369.410156" xlink:href="#DejaVuSans-49"/>
     <use x="1433.033203" xlink:href="#DejaVuSans-54"/>
     <use x="1496.65625" xlink:href="#DejaVuSans-48"/>
     <use x="1560.279297" xlink:href="#DejaVuSans-32"/>
     <use x="1592.066406" xlink:href="#DejaVuSans-65"/>
     <use x="1660.474609" xlink:href="#DejaVuSans-108"/>
     <use x="1688.257812" xlink:href="#DejaVuSans-108"/>
     <use x="1716.041016" xlink:href="#DejaVuSans-32"/>
     <use x="1747.828125" xlink:href="#DejaVuSans-115"/>
     <use x="1799.927734" xlink:href="#DejaVuSans-116"/>
     <use x="1839.136719" xlink:href="#DejaVuSans-105"/>
     <use x="1866.919922" xlink:href="#DejaVuSans-109"/>
     <use x="1964.332031" xlink:href="#DejaVuSans-117"/>
     <use x="2027.710938" xlink:href="#DejaVuSans-108"/>
     <use x="2055.494141" xlink:href="#DejaVuSans-97"/>
     <use x="2116.773438" xlink:href="#DejaVuSans-116"/>
     <use x="2155.982422" xlink:href="#DejaVuSans-101"/>
     <use x="2217.505859" xlink:href="#DejaVuSans-100"/>
     <use x="2280.982422" xlink:href="#DejaVuSans-32"/>
     <use x="2312.769531" xlink:href="#DejaVuSans-116"/>
     <use x="2351.978516" xlink:href="#DejaVuSans-114"/>
     <use x="2393.091797" xlink:href="#DejaVuSans-105"/>
     <use x="2420.875" xlink:href="#DejaVuSans-97"/>
     <use x="2482.154297" xlink:href="#DejaVuSans-108"/>
     <use x="2509.9375" xlink:href="#DejaVuSans-115"/>
    </g>
   </g>
   <g id="legend_1">
    <g id="patch_7">
     <path d="M 462.496875 70.7475 
L 574.8 70.7475 
Q 577.2 70.7475 577.2 68.3475 
L 577.2 34.32 
Q 577.2 31.92 574.8 31.92 
L 462.496875 31.92 
Q 460.096875 31.92 460.096875 34.32 
L 460.096875 68.3475 
Q 460.096875 70.7475 462.496875 70.7475 
z
" style="fill:#ffffff;opacity:0.8;stroke:#cccccc;stroke-linejoin:miter;"/>
    </g>
    <g id="line2d_12">
     <path d="M 464.896875 41.638125 
L 488.896875 41.638125 
" style="fill:none;stroke:#0000ff;stroke-linecap:square;stroke-width:1.5;"/>
    </g>
    <g id="line2d_13"/>
    <g id="text_14">
     <!-- Moving Avg. -->
     <g transform="translate(498.496875 45.838125)scale(0.12 -0.12)">
      <use xlink:href="#DejaVuSans-77"/>
      <use x="86.279297" xlink:href="#DejaVuSans-111"/>
      <use x="147.460938" xlink:href="#DejaVuSans-118"/>
      <use x="206.640625" xlink:href="#DejaVuSans-105"/>
      <use x="234.423828" xlink:href="#DejaVuSans-110"/>
      <use x="297.802734" xlink:href="#DejaVuSans-103"/>
      <use x="361.279297" xlink:href="#DejaVuSans-32"/>
      <use x="393.066406" xlink:href="#DejaVuSans-65"/>
      <use x="461.396484" xlink:href="#DejaVuSans-118"/>
      <use x="520.576172" xlink:href="#DejaVuSans-103"/>
      <use x="584.052734" xlink:href="#DejaVuSans-46"/>
     </g>
    </g>
    <g id="patch_8">
     <path d="M 464.896875 63.451875 
L 488.896875 63.451875 
L 488.896875 55.051875 
L 464.896875 55.051875 
z
" style="fill:#0000ff;opacity:0.3;stroke:#0000ff;stroke-linejoin:miter;"/>
    </g>
    <g id="text_15">
     <!-- Std. Err. -->
     <defs>
      <path d="M 53.515625 70.515625 
L 53.515625 60.890625 
Q 47.90625 63.578125 42.921875 64.890625 
Q 37.9375 66.21875 33.296875 66.21875 
Q 25.25 66.21875 20.875 63.09375 
Q 16.5 59.96875 16.5 54.203125 
Q 16.5 49.359375 19.40625 46.890625 
Q 22.3125 44.4375 30.421875 42.921875 
L 36.375 41.703125 
Q 47.40625 39.59375 52.65625 34.296875 
Q 57.90625 29 57.90625 20.125 
Q 57.90625 9.515625 50.796875 4.046875 
Q 43.703125 -1.421875 29.984375 -1.421875 
Q 24.8125 -1.421875 18.96875 -0.25 
Q 13.140625 0.921875 6.890625 3.21875 
L 6.890625 13.375 
Q 12.890625 10.015625 18.65625 8.296875 
Q 24.421875 6.59375 29.984375 6.59375 
Q 38.421875 6.59375 43.015625 9.90625 
Q 47.609375 13.234375 47.609375 19.390625 
Q 47.609375 24.75 44.3125 27.78125 
Q 41.015625 30.8125 33.5 32.328125 
L 27.484375 33.5 
Q 16.453125 35.6875 11.515625 40.375 
Q 6.59375 45.0625 6.59375 53.421875 
Q 6.59375 63.09375 13.40625 68.65625 
Q 20.21875 74.21875 32.171875 74.21875 
Q 37.3125 74.21875 42.625 73.28125 
Q 47.953125 72.359375 53.515625 70.515625 
z
" id="DejaVuSans-83"/>
      <path d="M 9.8125 72.90625 
L 55.90625 72.90625 
L 55.90625 64.59375 
L 19.671875 64.59375 
L 19.671875 43.015625 
L 54.390625 43.015625 
L 54.390625 34.71875 
L 19.671875 34.71875 
L 19.671875 8.296875 
L 56.78125 8.296875 
L 56.78125 0 
L 9.8125 0 
z
" id="DejaVuSans-69"/>
     </defs>
     <g transform="translate(498.496875 63.451875)scale(0.12 -0.12)">
      <use xlink:href="#DejaVuSans-83"/>
      <use x="63.476562" xlink:href="#DejaVuSans-116"/>
      <use x="102.685547" xlink:href="#DejaVuSans-100"/>
      <use x="166.162109" xlink:href="#DejaVuSans-46"/>
      <use x="197.949219" xlink:href="#DejaVuSans-32"/>
      <use x="229.736328" xlink:href="#DejaVuSans-69"/>
      <use x="292.919922" xlink:href="#DejaVuSans-114"/>
      <use x="334.017578" xlink:href="#DejaVuSans-114"/>
      <use x="374.990234" xlink:href="#DejaVuSans-46"/>
     </g>
    </g>
   </g>
  </g>
 </g>
 <defs>
  <clipPath id="p84654b738d">
   <rect height="166.32" width="502.2" x="81" y="25.92"/>
  </clipPath>
 </defs>
</svg>
