<?xml version="1.0" encoding="utf-8" standalone="no"?>
<!DOCTYPE svg PUBLIC "-//W3C//DTD SVG 1.1//EN"
  "http://www.w3.org/Graphics/SVG/1.1/DTD/svg11.dtd">
<!-- Created with matplotlib (https://matplotlib.org/) -->
<svg height="223.2pt" version="1.1" viewBox="0 0 576 223.2" width="576pt" xmlns="http://www.w3.org/2000/svg" xmlns:xlink="http://www.w3.org/1999/xlink">
 <defs>
  <style type="text/css">
*{stroke-linecap:butt;stroke-linejoin:round;}
  </style>
 </defs>
 <g id="figure_1">
  <g id="patch_1">
   <path d="M 0 223.2 
L 576 223.2 
L 576 0 
L 0 0 
z
" style="fill:#ffffff;"/>
  </g>
  <g id="axes_1">
   <g id="patch_2">
    <path d="M 79.58 174.76 
L 565.2 174.76 
L 565.2 26.88 
L 79.58 26.88 
z
" style="fill:#ffffff;"/>
   </g>
   <g id="PolyCollection_1">
    <defs>
     <path d="M 139.13717 -48.44 
L 139.13717 -196.32 
L 414.016415 -196.32 
L 414.016415 -48.44 
L 414.016415 -48.44 
L 139.13717 -48.44 
z
" id="m1ec79bd973" style="stroke:#808080;stroke-opacity:0.3;"/>
    </defs>
    <g clip-path="url(#p0b8a2a1f25)">
     <use style="fill:#808080;fill-opacity:0.3;stroke:#808080;stroke-opacity:0.3;" x="0" xlink:href="#m1ec79bd973" y="223.2"/>
    </g>
   </g>
   <g id="PolyCollection_2">
    <defs>
     <path d="M 79.58 -67.402199 
L 79.58 -50.355571 
L 81.412528 -154.411944 
L 83.245057 -130.826147 
L 85.077585 -51.767147 
L 86.910113 -51.182717 
L 88.742642 -97.360943 
L 90.57517 -92.440729 
L 92.407698 -48.44 
L 94.240226 -145.168206 
L 96.072755 -132.036497 
L 97.905283 -158.919075 
L 99.737811 -127.866524 
L 101.57034 -113.636004 
L 103.402868 -77.461232 
L 105.235396 -64.482061 
L 107.067925 -95.933642 
L 108.900453 -127.196607 
L 110.732981 -71.117178 
L 112.565509 -117.063865 
L 114.398038 -146.426447 
L 116.230566 -117.970277 
L 118.063094 -119.237675 
L 119.895623 -126.808782 
L 121.728151 -122.498466 
L 123.560679 -124.576813 
L 125.393208 -130.739098 
L 127.225736 -72.799039 
L 129.058264 -69.655176 
L 130.890792 -75.429558 
L 132.723321 -48.564253 
L 134.555849 -65.147397 
L 136.388377 -58.334146 
L 138.220906 -89.596916 
L 140.053434 -97.975275 
L 141.885962 -67.145889 
L 143.718491 -89.148272 
L 145.551019 -145.298404 
L 147.383547 -81.795796 
L 149.216075 -110.665954 
L 151.048604 -52.384067 
L 152.881132 -152.016108 
L 154.71366 -159.274093 
L 156.546189 -125.420838 
L 158.378717 -105.168069 
L 160.211245 -117.176173 
L 162.043774 -117.830183 
L 163.876302 -72.229937 
L 165.70883 -63.513822 
L 167.541358 -83.23908 
L 169.373887 -144.691046 
L 171.206415 -102.62526 
L 173.038943 -147.391583 
L 174.871472 -126.677741 
L 176.704 -154.052605 
L 178.536528 -94.317312 
L 180.369057 -126.600479 
L 182.201585 -140.900928 
L 184.034113 -93.182071 
L 185.866642 -86.410705 
L 187.69917 -91.090727 
L 189.531698 -114.873783 
L 191.364226 -98.010354 
L 193.196755 -79.999209 
L 195.029283 -110.277454 
L 196.861811 -102.349056 
L 198.69434 -126.321397 
L 200.526868 -144.541926 
L 202.359396 -102.293892 
L 204.191925 -75.512997 
L 206.024453 -153.343721 
L 207.856981 -147.815161 
L 209.689509 -144.497095 
L 211.522038 -142.468711 
L 213.354566 -135.937955 
L 215.187094 -134.949131 
L 217.019623 -78.912505 
L 218.852151 -84.954463 
L 220.684679 -111.224892 
L 222.517208 -137.475488 
L 224.349736 -157.273172 
L 226.182264 -140.998381 
L 228.014792 -137.855785 
L 229.847321 -93.418686 
L 231.679849 -103.178121 
L 233.512377 -112.306438 
L 235.344906 -122.712013 
L 237.177434 -152.164918 
L 239.009962 -94.869098 
L 240.842491 -112.209426 
L 242.675019 -107.63136 
L 244.507547 -63.384066 
L 246.340075 -138.073142 
L 248.172604 -129.989973 
L 250.005132 -102.180719 
L 251.83766 -76.08313 
L 253.670189 -122.352486 
L 255.502717 -103.106633 
L 257.335245 -108.08032 
L 259.167774 -71.633247 
L 261.000302 -110.824752 
L 262.83283 -149.809704 
L 264.665358 -114.217718 
L 266.497887 -123.541338 
L 268.330415 -99.912484 
L 270.162943 -53.875235 
L 271.995472 -147.517094 
L 273.828 -91.591325 
L 275.660528 -88.405236 
L 277.493057 -83.210817 
L 279.325585 -139.98184 
L 281.158113 -84.482342 
L 282.990642 -145.127095 
L 284.82317 -155.163937 
L 286.655698 -109.04524 
L 288.488226 -112.178399 
L 290.320755 -97.751904 
L 292.153283 -64.2336 
L 293.985811 -72.811792 
L 295.81834 -99.217399 
L 297.650868 -135.481066 
L 299.483396 -92.809493 
L 301.315925 -156.457179 
L 303.148453 -53.6366 
L 304.980981 -95.028831 
L 306.813509 -110.632466 
L 308.646038 -100.544047 
L 310.478566 -132.870522 
L 312.311094 -103.170608 
L 314.143623 -145.137631 
L 315.976151 -109.261791 
L 317.808679 -97.584414 
L 319.641208 -129.54124 
L 321.473736 -156.388208 
L 323.306264 -137.162407 
L 325.138792 -113.310502 
L 326.971321 -139.53927 
L 328.803849 -113.338159 
L 330.636377 -103.451471 
L 332.468906 -111.870964 
L 334.301434 -110.251108 
L 336.133962 -76.7287 
L 337.966491 -141.132042 
L 339.799019 -64.511117 
L 341.631547 -101.246494 
L 343.464075 -111.074208 
L 345.296604 -112.809885 
L 347.129132 -85.260519 
L 348.96166 -70.104134 
L 350.794189 -110.582511 
L 352.626717 -96.817278 
L 354.459245 -149.092022 
L 356.291774 -120.435731 
L 358.124302 -81.826752 
L 359.95683 -120.406969 
L 361.789358 -95.25791 
L 363.621887 -91.741554 
L 365.454415 -54.520474 
L 367.286943 -83.229527 
L 369.119472 -75.815514 
L 370.952 -65.390672 
L 372.784528 -93.819834 
L 374.617057 -120.710786 
L 376.449585 -112.407422 
L 378.282113 -143.100727 
L 380.114642 -125.994706 
L 381.94717 -161.898707 
L 383.779698 -150.065954 
L 385.612226 -127.173896 
L 387.444755 -120.659148 
L 389.277283 -105.514098 
L 391.109811 -92.507414 
L 392.94234 -132.589889 
L 394.774868 -110.996083 
L 396.607396 -50.033494 
L 398.439925 -93.015177 
L 400.272453 -107.629169 
L 402.104981 -121.035221 
L 403.937509 -116.519955 
L 405.770038 -107.104198 
L 407.602566 -119.469595 
L 409.435094 -103.119787 
L 411.267623 -137.514505 
L 413.100151 -62.109989 
L 414.932679 -55.438293 
L 416.765208 -98.025722 
L 418.597736 -86.51521 
L 420.430264 -106.595313 
L 422.262792 -62.14881 
L 424.095321 -59.548602 
L 425.927849 -117.536635 
L 427.760377 -108.511533 
L 429.592906 -136.325076 
L 431.425434 -154.184822 
L 433.257962 -158.052929 
L 435.090491 -104.502591 
L 436.923019 -95.769718 
L 438.755547 -128.645288 
L 440.588075 -69.955096 
L 442.420604 -77.480836 
L 444.253132 -171.082257 
L 446.08566 -172.03556 
L 447.918189 -170.941817 
L 449.750717 -173.61142 
L 451.583245 -173.90881 
L 453.415774 -170.74619 
L 455.248302 -172.912544 
L 457.08083 -172.784142 
L 458.913358 -171.920737 
L 460.745887 -153.144083 
L 462.578415 -164.408026 
L 464.410943 -171.543583 
L 466.243472 -170.318581 
L 468.076 -172.468781 
L 469.908528 -170.075338 
L 471.741057 -172.699923 
L 473.573585 -170.742649 
L 475.406113 -171.963296 
L 477.238642 -140.612826 
L 479.07117 -170.009249 
L 480.903698 -165.189354 
L 482.736226 -170.724489 
L 484.568755 -165.80588 
L 486.401283 -159.222961 
L 488.233811 -166.436172 
L 490.06634 -163.859538 
L 491.898868 -167.286987 
L 493.731396 -170.792241 
L 495.563925 -166.58886 
L 497.396453 -166.413481 
L 499.228981 -169.225959 
L 501.061509 -168.612951 
L 502.894038 -161.845726 
L 504.726566 -164.303159 
L 506.559094 -169.93019 
L 508.391623 -168.170282 
L 510.224151 -116.030153 
L 512.056679 -161.805057 
L 513.889208 -148.187984 
L 515.721736 -158.081499 
L 517.554264 -113.781617 
L 519.386792 -155.738193 
L 521.219321 -164.031926 
L 523.051849 -121.261534 
L 524.884377 -153.89155 
L 526.716906 -113.410495 
L 528.549434 -157.220841 
L 530.381962 -133.253729 
L 532.214491 -139.546362 
L 534.047019 -135.836621 
L 535.879547 -129.915538 
L 537.712075 -128.84923 
L 539.544604 -140.107781 
L 541.377132 -127.86762 
L 543.20966 -109.191613 
L 545.042189 -101.666572 
L 546.874717 -114.796091 
L 548.707245 -112.087413 
L 550.539774 -98.082066 
L 552.372302 -97.876005 
L 554.20483 -78.31936 
L 556.037358 -107.294674 
L 557.869887 -87.923759 
L 559.702415 -80.016692 
L 561.534943 -85.746031 
L 563.367472 -68.312512 
L 565.2 -67.778878 
L 565.2 -108.671021 
L 565.2 -108.671021 
L 563.367472 -77.402698 
L 561.534943 -162.907954 
L 559.702415 -90.319163 
L 557.869887 -100.214201 
L 556.037358 -143.460424 
L 554.20483 -100.089635 
L 552.372302 -122.613598 
L 550.539774 -106.441741 
L 548.707245 -119.122366 
L 546.874717 -123.731465 
L 545.042189 -110.466583 
L 543.20966 -143.917011 
L 541.377132 -196.32 
L 539.544604 -170.459847 
L 537.712075 -144.233842 
L 535.879547 -135.681875 
L 534.047019 -140.694335 
L 532.214491 -144.290774 
L 530.381962 -142.529826 
L 528.549434 -173.918338 
L 526.716906 -120.661302 
L 524.884377 -157.322034 
L 523.051849 -129.3989 
L 521.219321 -165.986461 
L 519.386792 -158.612444 
L 517.554264 -154.046767 
L 515.721736 -160.817128 
L 513.889208 -151.710054 
L 512.056679 -163.258118 
L 510.224151 -126.566028 
L 508.391623 -168.967276 
L 506.559094 -170.802755 
L 504.726566 -165.530056 
L 502.894038 -163.882435 
L 501.061509 -169.351892 
L 499.228981 -169.770861 
L 497.396453 -168.576464 
L 495.563925 -167.40876 
L 493.731396 -171.253385 
L 491.898868 -168.266815 
L 490.06634 -164.918952 
L 488.233811 -177.377979 
L 486.401283 -161.371831 
L 484.568755 -166.981731 
L 482.736226 -171.245475 
L 480.903698 -167.139129 
L 479.07117 -170.478304 
L 477.238642 -147.086286 
L 475.406113 -172.324 
L 473.573585 -171.393582 
L 471.741057 -173.090883 
L 469.908528 -170.52116 
L 468.076 -172.780101 
L 466.243472 -170.787527 
L 464.410943 -172.113795 
L 462.578415 -166.389111 
L 460.745887 -156.567039 
L 458.913358 -172.827355 
L 457.08083 -173.400885 
L 455.248302 -173.092302 
L 453.415774 -173.310968 
L 451.583245 -174.235925 
L 449.750717 -174.382677 
L 447.918189 -173.408966 
L 446.08566 -172.69836 
L 444.253132 -172.170854 
L 442.420604 -102.168747 
L 440.588075 -77.384191 
L 438.755547 -134.502936 
L 436.923019 -121.439341 
L 435.090491 -113.109232 
L 433.257962 -161.456252 
L 431.425434 -156.973689 
L 429.592906 -140.967345 
L 427.760377 -114.857157 
L 425.927849 -133.859323 
L 424.095321 -80.019722 
L 422.262792 -70.243192 
L 420.430264 -112.468469 
L 418.597736 -99.935285 
L 416.765208 -105.88913 
L 414.932679 -63.946661 
L 413.100151 -71.448445 
L 411.267623 -142.250654 
L 409.435094 -109.755851 
L 407.602566 -125.0926 
L 405.770038 -119.981124 
L 403.937509 -152.234747 
L 402.104981 -128.392645 
L 400.272453 -123.099029 
L 398.439925 -100.466496 
L 396.607396 -57.103732 
L 394.774868 -117.251127 
L 392.94234 -137.115381 
L 391.109811 -99.275665 
L 389.277283 -112.334679 
L 387.444755 -127.176628 
L 385.612226 -133.342646 
L 383.779698 -153.303102 
L 381.94717 -164.802864 
L 380.114642 -148.660931 
L 378.282113 -147.501011 
L 376.449585 -119.127148 
L 374.617057 -148.673675 
L 372.784528 -144.310756 
L 370.952 -79.719629 
L 369.119472 -84.149059 
L 367.286943 -90.963839 
L 365.454415 -60.86673 
L 363.621887 -99.780423 
L 361.789358 -102.825666 
L 359.95683 -126.6214 
L 358.124302 -89.497195 
L 356.291774 -126.476319 
L 354.459245 -152.148866 
L 352.626717 -108.84802 
L 350.794189 -116.843423 
L 348.96166 -77.21813 
L 347.129132 -94.780936 
L 345.296604 -120.536374 
L 343.464075 -117.870767 
L 341.631547 -119.397166 
L 339.799019 -74.74969 
L 337.966491 -150.150038 
L 336.133962 -84.297632 
L 334.301434 -122.813277 
L 332.468906 -120.082355 
L 330.636377 -114.225636 
L 328.803849 -130.352508 
L 326.971321 -151.83131 
L 325.138792 -168.040062 
L 323.306264 -141.749911 
L 321.473736 -158.860367 
L 319.641208 -135.024339 
L 317.808679 -119.519954 
L 315.976151 -123.995686 
L 314.143623 -150.011167 
L 312.311094 -111.458402 
L 310.478566 -138.55092 
L 308.646038 -111.217525 
L 306.813509 -119.750765 
L 304.980981 -104.027806 
L 303.148453 -66.303301 
L 301.315925 -159.274467 
L 299.483396 -114.674941 
L 297.650868 -140.369378 
L 295.81834 -114.986946 
L 293.985811 -81.865311 
L 292.153283 -75.094843 
L 290.320755 -104.939566 
L 288.488226 -118.559439 
L 286.655698 -116.637655 
L 284.82317 -157.755532 
L 282.990642 -153.972531 
L 281.158113 -94.274918 
L 279.325585 -145.293139 
L 277.493057 -91.640699 
L 275.660528 -103.091618 
L 273.828 -125.143422 
L 271.995472 -151.916827 
L 270.162943 -61.767708 
L 268.330415 -106.578023 
L 266.497887 -139.71661 
L 264.665358 -122.418752 
L 262.83283 -154.040083 
L 261.000302 -138.733112 
L 259.167774 -81.001464 
L 257.335245 -118.093894 
L 255.502717 -193.331793 
L 253.670189 -131.998759 
L 251.83766 -88.355607 
L 250.005132 -112.654465 
L 248.172604 -144.493579 
L 246.340075 -148.745133 
L 244.507547 -77.110714 
L 242.675019 -121.200898 
L 240.842491 -120.793538 
L 239.009962 -110.86719 
L 237.177434 -155.344807 
L 235.344906 -128.212249 
L 233.512377 -158.88158 
L 231.679849 -149.493188 
L 229.847321 -101.62475 
L 228.014792 -142.671085 
L 226.182264 -149.352316 
L 224.349736 -160.246765 
L 222.517208 -141.301103 
L 220.684679 -118.673528 
L 218.852151 -92.989969 
L 217.019623 -86.721012 
L 215.187094 -140.308222 
L 213.354566 -165.665505 
L 211.522038 -146.536863 
L 209.689509 -148.523462 
L 207.856981 -150.997567 
L 206.024453 -155.589332 
L 204.191925 -84.227046 
L 202.359396 -110.009607 
L 200.526868 -162.652026 
L 198.69434 -144.004454 
L 196.861811 -108.839078 
L 195.029283 -122.909582 
L 193.196755 -90.970921 
L 191.364226 -107.309152 
L 189.531698 -125.765555 
L 187.69917 -99.303196 
L 185.866642 -98.770856 
L 184.034113 -104.033656 
L 182.201585 -145.976048 
L 180.369057 -131.578122 
L 178.536528 -100.67605 
L 176.704 -157.176146 
L 174.871472 -132.488734 
L 173.038943 -152.149159 
L 171.206415 -109.010697 
L 169.373887 -150.612522 
L 167.541358 -98.187936 
L 165.70883 -87.934261 
L 163.876302 -110.117502 
L 162.043774 -124.947711 
L 160.211245 -141.208445 
L 158.378717 -118.156431 
L 156.546189 -132.198587 
L 154.71366 -161.898346 
L 152.881132 -155.079503 
L 151.048604 -60.398875 
L 149.216075 -124.806419 
L 147.383547 -95.56803 
L 145.551019 -149.439739 
L 143.718491 -98.247151 
L 141.885962 -76.505656 
L 140.053434 -106.085179 
L 138.220906 -96.488237 
L 136.388377 -71.658887 
L 134.555849 -75.336835 
L 132.723321 -49.150975 
L 130.890792 -93.672647 
L 129.058264 -158.976512 
L 127.225736 -81.858539 
L 125.393208 -135.901804 
L 123.560679 -178.207056 
L 121.728151 -128.881028 
L 119.895623 -132.169842 
L 118.063094 -134.931022 
L 116.230566 -127.897689 
L 114.398038 -168.191773 
L 112.565509 -182.998453 
L 110.732981 -78.593282 
L 108.900453 -144.935492 
L 107.067925 -116.078496 
L 105.235396 -80.414946 
L 103.402868 -85.187141 
L 101.57034 -119.475418 
L 99.737811 -133.954541 
L 97.905283 -161.716653 
L 96.072755 -138.575044 
L 94.240226 -149.603668 
L 92.407698 -48.44 
L 90.57517 -163.549788 
L 88.742642 -106.053158 
L 86.910113 -64.361946 
L 85.077585 -59.922996 
L 83.245057 -134.896803 
L 81.412528 -156.458921 
L 79.58 -67.402199 
z
" id="m91396e2947" style="stroke:#0000ff;stroke-opacity:0.3;"/>
    </defs>
    <g clip-path="url(#p0b8a2a1f25)">
     <use style="fill:#0000ff;fill-opacity:0.3;stroke:#0000ff;stroke-opacity:0.3;" x="0" xlink:href="#m91396e2947" y="223.2"/>
    </g>
   </g>
   <g id="matplotlib.axis_1">
    <g id="xtick_1">
     <g id="line2d_1">
      <defs>
       <path d="M 0 0 
L 0 3.5 
" id="m2b470152a5" style="stroke:#000000;stroke-width:0.8;"/>
      </defs>
      <g>
       <use style="stroke:#000000;stroke-width:0.8;" x="139.13717" xlink:href="#m2b470152a5" y="174.76"/>
      </g>
     </g>
     <g id="text_1">
      <!-- 0.0 -->
      <defs>
       <path d="M 31.78125 66.40625 
Q 24.171875 66.40625 20.328125 58.90625 
Q 16.5 51.421875 16.5 36.375 
Q 16.5 21.390625 20.328125 13.890625 
Q 24.171875 6.390625 31.78125 6.390625 
Q 39.453125 6.390625 43.28125 13.890625 
Q 47.125 21.390625 47.125 36.375 
Q 47.125 51.421875 43.28125 58.90625 
Q 39.453125 66.40625 31.78125 66.40625 
z
M 31.78125 74.21875 
Q 44.046875 74.21875 50.515625 64.515625 
Q 56.984375 54.828125 56.984375 36.375 
Q 56.984375 17.96875 50.515625 8.265625 
Q 44.046875 -1.421875 31.78125 -1.421875 
Q 19.53125 -1.421875 13.0625 8.265625 
Q 6.59375 17.96875 6.59375 36.375 
Q 6.59375 54.828125 13.0625 64.515625 
Q 19.53125 74.21875 31.78125 74.21875 
z
" id="DejaVuSans-48"/>
       <path d="M 10.6875 12.40625 
L 21 12.40625 
L 21 0 
L 10.6875 0 
z
" id="DejaVuSans-46"/>
      </defs>
      <g transform="translate(129.595295 190.878125)scale(0.12 -0.12)">
       <use xlink:href="#DejaVuSans-48"/>
       <use x="63.623047" xlink:href="#DejaVuSans-46"/>
       <use x="95.410156" xlink:href="#DejaVuSans-48"/>
      </g>
     </g>
    </g>
    <g id="xtick_2">
     <g id="line2d_2">
      <g>
       <use style="stroke:#000000;stroke-width:0.8;" x="230.763585" xlink:href="#m2b470152a5" y="174.76"/>
      </g>
     </g>
     <g id="text_2">
      <!-- 0.5 -->
      <defs>
       <path d="M 10.796875 72.90625 
L 49.515625 72.90625 
L 49.515625 64.59375 
L 19.828125 64.59375 
L 19.828125 46.734375 
Q 21.96875 47.46875 24.109375 47.828125 
Q 26.265625 48.1875 28.421875 48.1875 
Q 40.625 48.1875 47.75 41.5 
Q 54.890625 34.8125 54.890625 23.390625 
Q 54.890625 11.625 47.5625 5.09375 
Q 40.234375 -1.421875 26.90625 -1.421875 
Q 22.3125 -1.421875 17.546875 -0.640625 
Q 12.796875 0.140625 7.71875 1.703125 
L 7.71875 11.625 
Q 12.109375 9.234375 16.796875 8.0625 
Q 21.484375 6.890625 26.703125 6.890625 
Q 35.15625 6.890625 40.078125 11.328125 
Q 45.015625 15.765625 45.015625 23.390625 
Q 45.015625 31 40.078125 35.4375 
Q 35.15625 39.890625 26.703125 39.890625 
Q 22.75 39.890625 18.8125 39.015625 
Q 14.890625 38.140625 10.796875 36.28125 
z
" id="DejaVuSans-53"/>
      </defs>
      <g transform="translate(221.22171 190.878125)scale(0.12 -0.12)">
       <use xlink:href="#DejaVuSans-48"/>
       <use x="63.623047" xlink:href="#DejaVuSans-46"/>
       <use x="95.410156" xlink:href="#DejaVuSans-53"/>
      </g>
     </g>
    </g>
    <g id="xtick_3">
     <g id="line2d_3">
      <g>
       <use style="stroke:#000000;stroke-width:0.8;" x="322.39" xlink:href="#m2b470152a5" y="174.76"/>
      </g>
     </g>
     <g id="text_3">
      <!-- 1.0 -->
      <defs>
       <path d="M 12.40625 8.296875 
L 28.515625 8.296875 
L 28.515625 63.921875 
L 10.984375 60.40625 
L 10.984375 69.390625 
L 28.421875 72.90625 
L 38.28125 72.90625 
L 38.28125 8.296875 
L 54.390625 8.296875 
L 54.390625 0 
L 12.40625 0 
z
" id="DejaVuSans-49"/>
      </defs>
      <g transform="translate(312.848125 190.878125)scale(0.12 -0.12)">
       <use xlink:href="#DejaVuSans-49"/>
       <use x="63.623047" xlink:href="#DejaVuSans-46"/>
       <use x="95.410156" xlink:href="#DejaVuSans-48"/>
      </g>
     </g>
    </g>
    <g id="xtick_4">
     <g id="line2d_4">
      <g>
       <use style="stroke:#000000;stroke-width:0.8;" x="414.016415" xlink:href="#m2b470152a5" y="174.76"/>
      </g>
     </g>
     <g id="text_4">
      <!-- 1.5 -->
      <g transform="translate(404.47454 190.878125)scale(0.12 -0.12)">
       <use xlink:href="#DejaVuSans-49"/>
       <use x="63.623047" xlink:href="#DejaVuSans-46"/>
       <use x="95.410156" xlink:href="#DejaVuSans-53"/>
      </g>
     </g>
    </g>
    <g id="xtick_5">
     <g id="line2d_5">
      <g>
       <use style="stroke:#000000;stroke-width:0.8;" x="505.64283" xlink:href="#m2b470152a5" y="174.76"/>
      </g>
     </g>
     <g id="text_5">
      <!-- 2.0 -->
      <defs>
       <path d="M 19.1875 8.296875 
L 53.609375 8.296875 
L 53.609375 0 
L 7.328125 0 
L 7.328125 8.296875 
Q 12.9375 14.109375 22.625 23.890625 
Q 32.328125 33.6875 34.8125 36.53125 
Q 39.546875 41.84375 41.421875 45.53125 
Q 43.3125 49.21875 43.3125 52.78125 
Q 43.3125 58.59375 39.234375 62.25 
Q 35.15625 65.921875 28.609375 65.921875 
Q 23.96875 65.921875 18.8125 64.3125 
Q 13.671875 62.703125 7.8125 59.421875 
L 7.8125 69.390625 
Q 13.765625 71.78125 18.9375 73 
Q 24.125 74.21875 28.421875 74.21875 
Q 39.75 74.21875 46.484375 68.546875 
Q 53.21875 62.890625 53.21875 53.421875 
Q 53.21875 48.921875 51.53125 44.890625 
Q 49.859375 40.875 45.40625 35.40625 
Q 44.1875 33.984375 37.640625 27.21875 
Q 31.109375 20.453125 19.1875 8.296875 
z
" id="DejaVuSans-50"/>
      </defs>
      <g transform="translate(496.100955 190.878125)scale(0.12 -0.12)">
       <use xlink:href="#DejaVuSans-50"/>
       <use x="63.623047" xlink:href="#DejaVuSans-46"/>
       <use x="95.410156" xlink:href="#DejaVuSans-48"/>
      </g>
     </g>
    </g>
    <g id="text_6">
     <!-- Time (s) -->
     <defs>
      <path d="M -0.296875 72.90625 
L 61.375 72.90625 
L 61.375 64.59375 
L 35.5 64.59375 
L 35.5 0 
L 25.59375 0 
L 25.59375 64.59375 
L -0.296875 64.59375 
z
" id="DejaVuSans-84"/>
      <path d="M 9.421875 54.6875 
L 18.40625 54.6875 
L 18.40625 0 
L 9.421875 0 
z
M 9.421875 75.984375 
L 18.40625 75.984375 
L 18.40625 64.59375 
L 9.421875 64.59375 
z
" id="DejaVuSans-105"/>
      <path d="M 52 44.1875 
Q 55.375 50.25 60.0625 53.125 
Q 64.75 56 71.09375 56 
Q 79.640625 56 84.28125 50.015625 
Q 88.921875 44.046875 88.921875 33.015625 
L 88.921875 0 
L 79.890625 0 
L 79.890625 32.71875 
Q 79.890625 40.578125 77.09375 44.375 
Q 74.3125 48.1875 68.609375 48.1875 
Q 61.625 48.1875 57.5625 43.546875 
Q 53.515625 38.921875 53.515625 30.90625 
L 53.515625 0 
L 44.484375 0 
L 44.484375 32.71875 
Q 44.484375 40.625 41.703125 44.40625 
Q 38.921875 48.1875 33.109375 48.1875 
Q 26.21875 48.1875 22.15625 43.53125 
Q 18.109375 38.875 18.109375 30.90625 
L 18.109375 0 
L 9.078125 0 
L 9.078125 54.6875 
L 18.109375 54.6875 
L 18.109375 46.1875 
Q 21.1875 51.21875 25.484375 53.609375 
Q 29.78125 56 35.6875 56 
Q 41.65625 56 45.828125 52.96875 
Q 50 49.953125 52 44.1875 
z
" id="DejaVuSans-109"/>
      <path d="M 56.203125 29.59375 
L 56.203125 25.203125 
L 14.890625 25.203125 
Q 15.484375 15.921875 20.484375 11.0625 
Q 25.484375 6.203125 34.421875 6.203125 
Q 39.59375 6.203125 44.453125 7.46875 
Q 49.3125 8.734375 54.109375 11.28125 
L 54.109375 2.78125 
Q 49.265625 0.734375 44.1875 -0.34375 
Q 39.109375 -1.421875 33.890625 -1.421875 
Q 20.796875 -1.421875 13.15625 6.1875 
Q 5.515625 13.8125 5.515625 26.8125 
Q 5.515625 40.234375 12.765625 48.109375 
Q 20.015625 56 32.328125 56 
Q 43.359375 56 49.78125 48.890625 
Q 56.203125 41.796875 56.203125 29.59375 
z
M 47.21875 32.234375 
Q 47.125 39.59375 43.09375 43.984375 
Q 39.0625 48.390625 32.421875 48.390625 
Q 24.90625 48.390625 20.390625 44.140625 
Q 15.875 39.890625 15.1875 32.171875 
z
" id="DejaVuSans-101"/>
      <path id="DejaVuSans-32"/>
      <path d="M 31 75.875 
Q 24.46875 64.65625 21.28125 53.65625 
Q 18.109375 42.671875 18.109375 31.390625 
Q 18.109375 20.125 21.3125 9.0625 
Q 24.515625 -2 31 -13.1875 
L 23.1875 -13.1875 
Q 15.875 -1.703125 12.234375 9.375 
Q 8.59375 20.453125 8.59375 31.390625 
Q 8.59375 42.28125 12.203125 53.3125 
Q 15.828125 64.359375 23.1875 75.875 
z
" id="DejaVuSans-40"/>
      <path d="M 44.28125 53.078125 
L 44.28125 44.578125 
Q 40.484375 46.53125 36.375 47.5 
Q 32.28125 48.484375 27.875 48.484375 
Q 21.1875 48.484375 17.84375 46.4375 
Q 14.5 44.390625 14.5 40.28125 
Q 14.5 37.15625 16.890625 35.375 
Q 19.28125 33.59375 26.515625 31.984375 
L 29.59375 31.296875 
Q 39.15625 29.25 43.1875 25.515625 
Q 47.21875 21.78125 47.21875 15.09375 
Q 47.21875 7.46875 41.1875 3.015625 
Q 35.15625 -1.421875 24.609375 -1.421875 
Q 20.21875 -1.421875 15.453125 -0.5625 
Q 10.6875 0.296875 5.421875 2 
L 5.421875 11.28125 
Q 10.40625 8.6875 15.234375 7.390625 
Q 20.0625 6.109375 24.8125 6.109375 
Q 31.15625 6.109375 34.5625 8.28125 
Q 37.984375 10.453125 37.984375 14.40625 
Q 37.984375 18.0625 35.515625 20.015625 
Q 33.0625 21.96875 24.703125 23.78125 
L 21.578125 24.515625 
Q 13.234375 26.265625 9.515625 29.90625 
Q 5.8125 33.546875 5.8125 39.890625 
Q 5.8125 47.609375 11.28125 51.796875 
Q 16.75 56 26.8125 56 
Q 31.78125 56 36.171875 55.265625 
Q 40.578125 54.546875 44.28125 53.078125 
z
" id="DejaVuSans-115"/>
      <path d="M 8.015625 75.875 
L 15.828125 75.875 
Q 23.140625 64.359375 26.78125 53.3125 
Q 30.421875 42.28125 30.421875 31.390625 
Q 30.421875 20.453125 26.78125 9.375 
Q 23.140625 -1.703125 15.828125 -13.1875 
L 8.015625 -13.1875 
Q 14.5 -2 17.703125 9.0625 
Q 20.90625 20.125 20.90625 31.390625 
Q 20.90625 42.671875 17.703125 53.65625 
Q 14.5 64.65625 8.015625 75.875 
z
" id="DejaVuSans-41"/>
     </defs>
     <g transform="translate(292.89475 208.3155)scale(0.144 -0.144)">
      <use xlink:href="#DejaVuSans-84"/>
      <use x="61.037109" xlink:href="#DejaVuSans-105"/>
      <use x="88.820312" xlink:href="#DejaVuSans-109"/>
      <use x="186.232422" xlink:href="#DejaVuSans-101"/>
      <use x="247.755859" xlink:href="#DejaVuSans-32"/>
      <use x="279.542969" xlink:href="#DejaVuSans-40"/>
      <use x="318.556641" xlink:href="#DejaVuSans-115"/>
      <use x="370.65625" xlink:href="#DejaVuSans-41"/>
     </g>
    </g>
   </g>
   <g id="matplotlib.axis_2">
    <g id="ytick_1">
     <g id="line2d_6">
      <defs>
       <path d="M 0 0 
L -3.5 0 
" id="m8719a6ab90" style="stroke:#000000;stroke-width:0.8;"/>
      </defs>
      <g>
       <use style="stroke:#000000;stroke-width:0.8;" x="79.58" xlink:href="#m8719a6ab90" y="171.392538"/>
      </g>
     </g>
     <g id="text_7">
      <!-- −0.025 -->
      <defs>
       <path d="M 10.59375 35.5 
L 73.1875 35.5 
L 73.1875 27.203125 
L 10.59375 27.203125 
z
" id="DejaVuSans-8722"/>
      </defs>
      <g transform="translate(28.170625 175.951601)scale(0.12 -0.12)">
       <use xlink:href="#DejaVuSans-8722"/>
       <use x="83.789062" xlink:href="#DejaVuSans-48"/>
       <use x="147.412109" xlink:href="#DejaVuSans-46"/>
       <use x="179.199219" xlink:href="#DejaVuSans-48"/>
       <use x="242.822266" xlink:href="#DejaVuSans-50"/>
       <use x="306.445312" xlink:href="#DejaVuSans-53"/>
      </g>
     </g>
    </g>
    <g id="ytick_2">
     <g id="line2d_7">
      <g>
       <use style="stroke:#000000;stroke-width:0.8;" x="79.58" xlink:href="#m8719a6ab90" y="145.126337"/>
      </g>
     </g>
     <g id="text_8">
      <!-- −0.020 -->
      <g transform="translate(28.170625 149.6854)scale(0.12 -0.12)">
       <use xlink:href="#DejaVuSans-8722"/>
       <use x="83.789062" xlink:href="#DejaVuSans-48"/>
       <use x="147.412109" xlink:href="#DejaVuSans-46"/>
       <use x="179.199219" xlink:href="#DejaVuSans-48"/>
       <use x="242.822266" xlink:href="#DejaVuSans-50"/>
       <use x="306.445312" xlink:href="#DejaVuSans-48"/>
      </g>
     </g>
    </g>
    <g id="ytick_3">
     <g id="line2d_8">
      <g>
       <use style="stroke:#000000;stroke-width:0.8;" x="79.58" xlink:href="#m8719a6ab90" y="118.860136"/>
      </g>
     </g>
     <g id="text_9">
      <!-- −0.015 -->
      <g transform="translate(28.170625 123.419199)scale(0.12 -0.12)">
       <use xlink:href="#DejaVuSans-8722"/>
       <use x="83.789062" xlink:href="#DejaVuSans-48"/>
       <use x="147.412109" xlink:href="#DejaVuSans-46"/>
       <use x="179.199219" xlink:href="#DejaVuSans-48"/>
       <use x="242.822266" xlink:href="#DejaVuSans-49"/>
       <use x="306.445312" xlink:href="#DejaVuSans-53"/>
      </g>
     </g>
    </g>
    <g id="ytick_4">
     <g id="line2d_9">
      <g>
       <use style="stroke:#000000;stroke-width:0.8;" x="79.58" xlink:href="#m8719a6ab90" y="92.593935"/>
      </g>
     </g>
     <g id="text_10">
      <!-- −0.010 -->
      <g transform="translate(28.170625 97.152998)scale(0.12 -0.12)">
       <use xlink:href="#DejaVuSans-8722"/>
       <use x="83.789062" xlink:href="#DejaVuSans-48"/>
       <use x="147.412109" xlink:href="#DejaVuSans-46"/>
       <use x="179.199219" xlink:href="#DejaVuSans-48"/>
       <use x="242.822266" xlink:href="#DejaVuSans-49"/>
       <use x="306.445312" xlink:href="#DejaVuSans-48"/>
      </g>
     </g>
    </g>
    <g id="ytick_5">
     <g id="line2d_10">
      <g>
       <use style="stroke:#000000;stroke-width:0.8;" x="79.58" xlink:href="#m8719a6ab90" y="66.327734"/>
      </g>
     </g>
     <g id="text_11">
      <!-- −0.005 -->
      <g transform="translate(28.170625 70.886797)scale(0.12 -0.12)">
       <use xlink:href="#DejaVuSans-8722"/>
       <use x="83.789062" xlink:href="#DejaVuSans-48"/>
       <use x="147.412109" xlink:href="#DejaVuSans-46"/>
       <use x="179.199219" xlink:href="#DejaVuSans-48"/>
       <use x="242.822266" xlink:href="#DejaVuSans-48"/>
       <use x="306.445312" xlink:href="#DejaVuSans-53"/>
      </g>
     </g>
    </g>
    <g id="ytick_6">
     <g id="line2d_11">
      <g>
       <use style="stroke:#000000;stroke-width:0.8;" x="79.58" xlink:href="#m8719a6ab90" y="40.061534"/>
      </g>
     </g>
     <g id="text_12">
      <!-- 0.000 -->
      <g transform="translate(38.22625 44.620596)scale(0.12 -0.12)">
       <use xlink:href="#DejaVuSans-48"/>
       <use x="63.623047" xlink:href="#DejaVuSans-46"/>
       <use x="95.410156" xlink:href="#DejaVuSans-48"/>
       <use x="159.033203" xlink:href="#DejaVuSans-48"/>
       <use x="222.65625" xlink:href="#DejaVuSans-48"/>
      </g>
     </g>
    </g>
    <g id="text_13">
     <!-- Avg. Corr. Coef. -->
     <defs>
      <path d="M 34.1875 63.1875 
L 20.796875 26.90625 
L 47.609375 26.90625 
z
M 28.609375 72.90625 
L 39.796875 72.90625 
L 67.578125 0 
L 57.328125 0 
L 50.6875 18.703125 
L 17.828125 18.703125 
L 11.1875 0 
L 0.78125 0 
z
" id="DejaVuSans-65"/>
      <path d="M 2.984375 54.6875 
L 12.5 54.6875 
L 29.59375 8.796875 
L 46.6875 54.6875 
L 56.203125 54.6875 
L 35.6875 0 
L 23.484375 0 
z
" id="DejaVuSans-118"/>
      <path d="M 45.40625 27.984375 
Q 45.40625 37.75 41.375 43.109375 
Q 37.359375 48.484375 30.078125 48.484375 
Q 22.859375 48.484375 18.828125 43.109375 
Q 14.796875 37.75 14.796875 27.984375 
Q 14.796875 18.265625 18.828125 12.890625 
Q 22.859375 7.515625 30.078125 7.515625 
Q 37.359375 7.515625 41.375 12.890625 
Q 45.40625 18.265625 45.40625 27.984375 
z
M 54.390625 6.78125 
Q 54.390625 -7.171875 48.1875 -13.984375 
Q 42 -20.796875 29.203125 -20.796875 
Q 24.46875 -20.796875 20.265625 -20.09375 
Q 16.0625 -19.390625 12.109375 -17.921875 
L 12.109375 -9.1875 
Q 16.0625 -11.328125 19.921875 -12.34375 
Q 23.78125 -13.375 27.78125 -13.375 
Q 36.625 -13.375 41.015625 -8.765625 
Q 45.40625 -4.15625 45.40625 5.171875 
L 45.40625 9.625 
Q 42.625 4.78125 38.28125 2.390625 
Q 33.9375 0 27.875 0 
Q 17.828125 0 11.671875 7.65625 
Q 5.515625 15.328125 5.515625 27.984375 
Q 5.515625 40.671875 11.671875 48.328125 
Q 17.828125 56 27.875 56 
Q 33.9375 56 38.28125 53.609375 
Q 42.625 51.21875 45.40625 46.390625 
L 45.40625 54.6875 
L 54.390625 54.6875 
z
" id="DejaVuSans-103"/>
      <path d="M 64.40625 67.28125 
L 64.40625 56.890625 
Q 59.421875 61.53125 53.78125 63.8125 
Q 48.140625 66.109375 41.796875 66.109375 
Q 29.296875 66.109375 22.65625 58.46875 
Q 16.015625 50.828125 16.015625 36.375 
Q 16.015625 21.96875 22.65625 14.328125 
Q 29.296875 6.6875 41.796875 6.6875 
Q 48.140625 6.6875 53.78125 8.984375 
Q 59.421875 11.28125 64.40625 15.921875 
L 64.40625 5.609375 
Q 59.234375 2.09375 53.4375 0.328125 
Q 47.65625 -1.421875 41.21875 -1.421875 
Q 24.65625 -1.421875 15.125 8.703125 
Q 5.609375 18.84375 5.609375 36.375 
Q 5.609375 53.953125 15.125 64.078125 
Q 24.65625 74.21875 41.21875 74.21875 
Q 47.75 74.21875 53.53125 72.484375 
Q 59.328125 70.75 64.40625 67.28125 
z
" id="DejaVuSans-67"/>
      <path d="M 30.609375 48.390625 
Q 23.390625 48.390625 19.1875 42.75 
Q 14.984375 37.109375 14.984375 27.296875 
Q 14.984375 17.484375 19.15625 11.84375 
Q 23.34375 6.203125 30.609375 6.203125 
Q 37.796875 6.203125 41.984375 11.859375 
Q 46.1875 17.53125 46.1875 27.296875 
Q 46.1875 37.015625 41.984375 42.703125 
Q 37.796875 48.390625 30.609375 48.390625 
z
M 30.609375 56 
Q 42.328125 56 49.015625 48.375 
Q 55.71875 40.765625 55.71875 27.296875 
Q 55.71875 13.875 49.015625 6.21875 
Q 42.328125 -1.421875 30.609375 -1.421875 
Q 18.84375 -1.421875 12.171875 6.21875 
Q 5.515625 13.875 5.515625 27.296875 
Q 5.515625 40.765625 12.171875 48.375 
Q 18.84375 56 30.609375 56 
z
" id="DejaVuSans-111"/>
      <path d="M 41.109375 46.296875 
Q 39.59375 47.171875 37.8125 47.578125 
Q 36.03125 48 33.890625 48 
Q 26.265625 48 22.1875 43.046875 
Q 18.109375 38.09375 18.109375 28.8125 
L 18.109375 0 
L 9.078125 0 
L 9.078125 54.6875 
L 18.109375 54.6875 
L 18.109375 46.1875 
Q 20.953125 51.171875 25.484375 53.578125 
Q 30.03125 56 36.53125 56 
Q 37.453125 56 38.578125 55.875 
Q 39.703125 55.765625 41.0625 55.515625 
z
" id="DejaVuSans-114"/>
      <path d="M 37.109375 75.984375 
L 37.109375 68.5 
L 28.515625 68.5 
Q 23.6875 68.5 21.796875 66.546875 
Q 19.921875 64.59375 19.921875 59.515625 
L 19.921875 54.6875 
L 34.71875 54.6875 
L 34.71875 47.703125 
L 19.921875 47.703125 
L 19.921875 0 
L 10.890625 0 
L 10.890625 47.703125 
L 2.296875 47.703125 
L 2.296875 54.6875 
L 10.890625 54.6875 
L 10.890625 58.5 
Q 10.890625 67.625 15.140625 71.796875 
Q 19.390625 75.984375 28.609375 75.984375 
z
" id="DejaVuSans-102"/>
     </defs>
     <g transform="translate(21.175875 157.745)rotate(-90)scale(0.144 -0.144)">
      <use xlink:href="#DejaVuSans-65"/>
      <use x="68.330078" xlink:href="#DejaVuSans-118"/>
      <use x="127.509766" xlink:href="#DejaVuSans-103"/>
      <use x="190.986328" xlink:href="#DejaVuSans-46"/>
      <use x="222.773438" xlink:href="#DejaVuSans-32"/>
      <use x="254.560547" xlink:href="#DejaVuSans-67"/>
      <use x="324.384766" xlink:href="#DejaVuSans-111"/>
      <use x="385.566406" xlink:href="#DejaVuSans-114"/>
      <use x="426.664062" xlink:href="#DejaVuSans-114"/>
      <use x="467.636719" xlink:href="#DejaVuSans-46"/>
      <use x="499.423828" xlink:href="#DejaVuSans-32"/>
      <use x="531.210938" xlink:href="#DejaVuSans-67"/>
      <use x="601.035156" xlink:href="#DejaVuSans-111"/>
      <use x="662.216797" xlink:href="#DejaVuSans-101"/>
      <use x="723.740234" xlink:href="#DejaVuSans-102"/>
      <use x="758.835938" xlink:href="#DejaVuSans-46"/>
     </g>
    </g>
   </g>
   <g id="line2d_12">
    <path clip-path="url(#p0b8a2a1f25)" d="M 79.58 164.321115 
L 81.412528 67.764567 
L 83.245057 90.338525 
L 85.077585 167.354929 
L 86.910113 165.427669 
L 88.742642 121.49295 
L 90.57517 95.204741 
L 92.407698 174.76 
L 94.240226 75.814063 
L 96.072755 87.894229 
L 97.905283 62.882136 
L 99.737811 92.289467 
L 101.57034 106.644289 
L 103.402868 141.875814 
L 105.235396 150.751497 
L 107.067925 117.193931 
L 108.900453 87.133951 
L 110.732981 148.34477 
L 112.565509 73.168841 
L 114.398038 65.89089 
L 116.230566 100.266017 
L 118.063094 96.115651 
L 119.895623 93.710688 
L 121.728151 97.510253 
L 123.560679 71.808065 
L 125.393208 89.879549 
L 127.225736 145.871211 
L 129.058264 108.884156 
L 130.890792 138.648898 
L 132.723321 174.342386 
L 134.555849 152.957884 
L 136.388377 158.203483 
L 138.220906 130.157424 
L 140.053434 121.169773 
L 141.885962 151.374228 
L 143.718491 129.502288 
L 145.551019 75.830929 
L 147.383547 134.518087 
L 149.216075 105.463813 
L 151.048604 166.808529 
L 152.881132 69.652195 
L 154.71366 62.613781 
L 156.546189 94.390287 
L 158.378717 111.53775 
L 160.211245 94.007691 
L 162.043774 101.811053 
L 163.876302 132.026281 
L 165.70883 147.475959 
L 167.541358 132.486492 
L 169.373887 75.548216 
L 171.206415 117.382022 
L 173.038943 73.429629 
L 174.871472 93.616763 
L 176.704 67.585625 
L 178.536528 125.703319 
L 180.369057 94.1107 
L 182.201585 79.761512 
L 184.034113 124.592137 
L 185.866642 130.609219 
L 187.69917 128.003039 
L 189.531698 102.880331 
L 193.196755 137.714935 
L 195.029283 106.606482 
L 196.861811 117.605933 
L 198.69434 88.037075 
L 200.526868 69.603024 
L 202.359396 117.048251 
L 204.191925 143.329979 
L 206.024453 68.733473 
L 207.856981 73.793636 
L 209.689509 76.689721 
L 211.522038 78.697213 
L 213.354566 72.39827 
L 215.187094 85.571324 
L 217.019623 140.383241 
L 218.852151 134.227784 
L 222.517208 83.811704 
L 224.349736 64.440032 
L 226.182264 78.024651 
L 228.014792 82.936565 
L 229.847321 125.678282 
L 231.679849 96.864345 
L 233.512377 87.605991 
L 235.344906 97.737869 
L 237.177434 69.445138 
L 239.009962 120.331856 
L 240.842491 106.698518 
L 242.675019 108.783871 
L 244.507547 152.95261 
L 246.340075 79.790863 
L 248.172604 85.958224 
L 250.005132 115.782408 
L 251.83766 140.980631 
L 253.670189 96.024377 
L 255.502717 74.980787 
L 259.167774 146.882644 
L 261.000302 98.421068 
L 262.83283 71.275107 
L 264.665358 104.881765 
L 266.497887 91.571026 
L 268.330415 119.954746 
L 270.162943 165.378528 
L 271.995472 73.48304 
L 273.828 114.832626 
L 275.660528 127.451573 
L 277.493057 135.774242 
L 279.325585 80.56251 
L 281.158113 133.82137 
L 282.990642 73.650187 
L 284.82317 66.740266 
L 286.655698 110.358553 
L 288.488226 107.831081 
L 290.320755 121.854265 
L 292.153283 153.535779 
L 293.985811 145.861448 
L 297.650868 85.274778 
L 299.483396 119.457783 
L 301.315925 65.334177 
L 303.148453 163.23005 
L 304.980981 123.671681 
L 306.813509 108.008384 
L 308.646038 117.319214 
L 310.478566 87.489279 
L 312.311094 115.885495 
L 314.143623 75.625601 
L 315.976151 106.571261 
L 317.808679 114.647816 
L 319.641208 90.91721 
L 321.473736 65.575712 
L 323.306264 83.743841 
L 325.138792 82.524718 
L 326.971321 77.51471 
L 328.803849 101.354667 
L 330.636377 114.361446 
L 332.468906 107.22334 
L 334.301434 106.667807 
L 336.133962 142.686834 
L 337.966491 77.55896 
L 339.799019 153.569597 
L 341.631547 112.87817 
L 343.464075 108.727512 
L 345.296604 106.526871 
L 347.129132 133.179273 
L 348.96166 149.538868 
L 350.794189 109.487033 
L 352.626717 120.367351 
L 354.459245 72.579556 
L 356.291774 99.743975 
L 358.124302 137.538026 
L 359.95683 99.685816 
L 361.789358 124.158212 
L 363.621887 127.439012 
L 365.454415 165.506398 
L 367.286943 136.103317 
L 370.952 150.644849 
L 372.784528 104.134705 
L 374.617057 88.50777 
L 376.449585 107.432715 
L 378.282113 77.899131 
L 380.114642 85.872181 
L 381.94717 59.849214 
L 383.779698 71.515472 
L 385.612226 92.941729 
L 387.444755 99.282112 
L 389.277283 114.275612 
L 391.109811 127.308461 
L 392.94234 88.347365 
L 394.774868 109.076395 
L 396.607396 169.631387 
L 398.439925 126.459164 
L 400.272453 107.835901 
L 403.937509 88.822649 
L 405.770038 109.657339 
L 407.602566 100.918902 
L 409.435094 116.762181 
L 411.267623 83.317421 
L 413.100151 156.420783 
L 414.932679 163.507523 
L 416.765208 121.242574 
L 418.597736 129.974753 
L 420.430264 113.668109 
L 422.262792 157.003999 
L 424.095321 153.415838 
L 425.927849 97.502021 
L 427.760377 111.515655 
L 429.592906 84.55379 
L 431.425434 67.620745 
L 433.257962 63.44541 
L 435.090491 114.394089 
L 436.923019 114.595471 
L 438.755547 91.625888 
L 440.588075 149.530357 
L 442.420604 133.375208 
L 444.253132 51.573444 
L 446.08566 50.83304 
L 447.918189 51.024609 
L 449.750717 49.202951 
L 451.583245 49.127633 
L 453.415774 51.171421 
L 455.248302 50.197577 
L 457.08083 50.107486 
L 458.913358 50.825954 
L 460.745887 68.344439 
L 462.578415 57.801431 
L 464.410943 51.371311 
L 466.243472 52.646946 
L 468.076 50.575559 
L 469.908528 52.901751 
L 471.741057 50.304597 
L 473.573585 52.131884 
L 475.406113 51.056352 
L 477.238642 79.350444 
L 479.07117 52.956224 
L 480.903698 57.035759 
L 482.736226 52.215018 
L 484.568755 56.806195 
L 486.401283 62.902604 
L 488.233811 51.292925 
L 490.06634 58.810755 
L 493.731396 52.177187 
L 495.563925 56.20119 
L 497.396453 55.705028 
L 499.228981 53.70159 
L 501.061509 54.217579 
L 502.894038 60.335919 
L 504.726566 58.283392 
L 506.559094 52.833528 
L 508.391623 54.631221 
L 510.224151 101.90191 
L 512.056679 60.668413 
L 513.889208 73.250981 
L 515.721736 63.750686 
L 517.554264 89.285808 
L 519.386792 66.024681 
L 521.219321 58.190807 
L 523.051849 97.869783 
L 524.884377 67.593208 
L 526.716906 106.164102 
L 528.549434 57.630411 
L 530.381962 85.308222 
L 532.214491 81.281432 
L 534.047019 84.934522 
L 535.879547 90.401294 
L 537.712075 86.658464 
L 539.544604 67.916186 
L 541.377132 61.10619 
L 543.20966 96.645688 
L 545.042189 117.133423 
L 546.874717 103.936222 
L 548.707245 107.595111 
L 550.539774 120.938097 
L 552.372302 112.955198 
L 554.20483 133.995503 
L 556.037358 97.822451 
L 557.869887 129.13102 
L 559.702415 138.032072 
L 561.534943 98.873008 
L 563.367472 150.342395 
L 565.2 134.97505 
L 565.2 134.97505 
" style="fill:none;stroke:#0000ff;stroke-linecap:square;stroke-width:1.5;"/>
   </g>
   <g id="patch_3">
    <path d="M 79.58 174.76 
L 79.58 26.88 
" style="fill:none;stroke:#000000;stroke-linecap:square;stroke-linejoin:miter;stroke-width:0.8;"/>
   </g>
   <g id="patch_4">
    <path d="M 565.2 174.76 
L 565.2 26.88 
" style="fill:none;stroke:#000000;stroke-linecap:square;stroke-linejoin:miter;stroke-width:0.8;"/>
   </g>
   <g id="patch_5">
    <path d="M 79.58 174.76 
L 565.2 174.76 
" style="fill:none;stroke:#000000;stroke-linecap:square;stroke-linejoin:miter;stroke-width:0.8;"/>
   </g>
   <g id="patch_6">
    <path d="M 79.58 26.88 
L 565.2 26.88 
" style="fill:none;stroke:#000000;stroke-linecap:square;stroke-linejoin:miter;stroke-width:0.8;"/>
   </g>
   <g id="text_14">
    <!-- Motor cortex, Num Trials=160 All stimulated trials, Num cells = 471 -->
    <defs>
     <path d="M 9.8125 72.90625 
L 24.515625 72.90625 
L 43.109375 23.296875 
L 61.8125 72.90625 
L 76.515625 72.90625 
L 76.515625 0 
L 66.890625 0 
L 66.890625 64.015625 
L 48.09375 14.015625 
L 38.1875 14.015625 
L 19.390625 64.015625 
L 19.390625 0 
L 9.8125 0 
z
" id="DejaVuSans-77"/>
     <path d="M 18.3125 70.21875 
L 18.3125 54.6875 
L 36.8125 54.6875 
L 36.8125 47.703125 
L 18.3125 47.703125 
L 18.3125 18.015625 
Q 18.3125 11.328125 20.140625 9.421875 
Q 21.96875 7.515625 27.59375 7.515625 
L 36.8125 7.515625 
L 36.8125 0 
L 27.59375 0 
Q 17.1875 0 13.234375 3.875 
Q 9.28125 7.765625 9.28125 18.015625 
L 9.28125 47.703125 
L 2.6875 47.703125 
L 2.6875 54.6875 
L 9.28125 54.6875 
L 9.28125 70.21875 
z
" id="DejaVuSans-116"/>
     <path d="M 48.78125 52.59375 
L 48.78125 44.1875 
Q 44.96875 46.296875 41.140625 47.34375 
Q 37.3125 48.390625 33.40625 48.390625 
Q 24.65625 48.390625 19.8125 42.84375 
Q 14.984375 37.3125 14.984375 27.296875 
Q 14.984375 17.28125 19.8125 11.734375 
Q 24.65625 6.203125 33.40625 6.203125 
Q 37.3125 6.203125 41.140625 7.25 
Q 44.96875 8.296875 48.78125 10.40625 
L 48.78125 2.09375 
Q 45.015625 0.34375 40.984375 -0.53125 
Q 36.96875 -1.421875 32.421875 -1.421875 
Q 20.0625 -1.421875 12.78125 6.34375 
Q 5.515625 14.109375 5.515625 27.296875 
Q 5.515625 40.671875 12.859375 48.328125 
Q 20.21875 56 33.015625 56 
Q 37.15625 56 41.109375 55.140625 
Q 45.0625 54.296875 48.78125 52.59375 
z
" id="DejaVuSans-99"/>
     <path d="M 54.890625 54.6875 
L 35.109375 28.078125 
L 55.90625 0 
L 45.3125 0 
L 29.390625 21.484375 
L 13.484375 0 
L 2.875 0 
L 24.125 28.609375 
L 4.6875 54.6875 
L 15.28125 54.6875 
L 29.78125 35.203125 
L 44.28125 54.6875 
z
" id="DejaVuSans-120"/>
     <path d="M 11.71875 12.40625 
L 22.015625 12.40625 
L 22.015625 4 
L 14.015625 -11.625 
L 7.71875 -11.625 
L 11.71875 4 
z
" id="DejaVuSans-44"/>
     <path d="M 9.8125 72.90625 
L 23.09375 72.90625 
L 55.421875 11.921875 
L 55.421875 72.90625 
L 64.984375 72.90625 
L 64.984375 0 
L 51.703125 0 
L 19.390625 60.984375 
L 19.390625 0 
L 9.8125 0 
z
" id="DejaVuSans-78"/>
     <path d="M 8.5 21.578125 
L 8.5 54.6875 
L 17.484375 54.6875 
L 17.484375 21.921875 
Q 17.484375 14.15625 20.5 10.265625 
Q 23.53125 6.390625 29.59375 6.390625 
Q 36.859375 6.390625 41.078125 11.03125 
Q 45.3125 15.671875 45.3125 23.6875 
L 45.3125 54.6875 
L 54.296875 54.6875 
L 54.296875 0 
L 45.3125 0 
L 45.3125 8.40625 
Q 42.046875 3.421875 37.71875 1 
Q 33.40625 -1.421875 27.6875 -1.421875 
Q 18.265625 -1.421875 13.375 4.4375 
Q 8.5 10.296875 8.5 21.578125 
z
M 31.109375 56 
z
" id="DejaVuSans-117"/>
     <path d="M 34.28125 27.484375 
Q 23.390625 27.484375 19.1875 25 
Q 14.984375 22.515625 14.984375 16.5 
Q 14.984375 11.71875 18.140625 8.90625 
Q 21.296875 6.109375 26.703125 6.109375 
Q 34.1875 6.109375 38.703125 11.40625 
Q 43.21875 16.703125 43.21875 25.484375 
L 43.21875 27.484375 
z
M 52.203125 31.203125 
L 52.203125 0 
L 43.21875 0 
L 43.21875 8.296875 
Q 40.140625 3.328125 35.546875 0.953125 
Q 30.953125 -1.421875 24.3125 -1.421875 
Q 15.921875 -1.421875 10.953125 3.296875 
Q 6 8.015625 6 15.921875 
Q 6 25.140625 12.171875 29.828125 
Q 18.359375 34.515625 30.609375 34.515625 
L 43.21875 34.515625 
L 43.21875 35.40625 
Q 43.21875 41.609375 39.140625 45 
Q 35.0625 48.390625 27.6875 48.390625 
Q 23 48.390625 18.546875 47.265625 
Q 14.109375 46.140625 10.015625 43.890625 
L 10.015625 52.203125 
Q 14.9375 54.109375 19.578125 55.046875 
Q 24.21875 56 28.609375 56 
Q 40.484375 56 46.34375 49.84375 
Q 52.203125 43.703125 52.203125 31.203125 
z
" id="DejaVuSans-97"/>
     <path d="M 9.421875 75.984375 
L 18.40625 75.984375 
L 18.40625 0 
L 9.421875 0 
z
" id="DejaVuSans-108"/>
     <path d="M 10.59375 45.40625 
L 73.1875 45.40625 
L 73.1875 37.203125 
L 10.59375 37.203125 
z
M 10.59375 25.484375 
L 73.1875 25.484375 
L 73.1875 17.1875 
L 10.59375 17.1875 
z
" id="DejaVuSans-61"/>
     <path d="M 33.015625 40.375 
Q 26.375 40.375 22.484375 35.828125 
Q 18.609375 31.296875 18.609375 23.390625 
Q 18.609375 15.53125 22.484375 10.953125 
Q 26.375 6.390625 33.015625 6.390625 
Q 39.65625 6.390625 43.53125 10.953125 
Q 47.40625 15.53125 47.40625 23.390625 
Q 47.40625 31.296875 43.53125 35.828125 
Q 39.65625 40.375 33.015625 40.375 
z
M 52.59375 71.296875 
L 52.59375 62.3125 
Q 48.875 64.0625 45.09375 64.984375 
Q 41.3125 65.921875 37.59375 65.921875 
Q 27.828125 65.921875 22.671875 59.328125 
Q 17.53125 52.734375 16.796875 39.40625 
Q 19.671875 43.65625 24.015625 45.921875 
Q 28.375 48.1875 33.59375 48.1875 
Q 44.578125 48.1875 50.953125 41.515625 
Q 57.328125 34.859375 57.328125 23.390625 
Q 57.328125 12.15625 50.6875 5.359375 
Q 44.046875 -1.421875 33.015625 -1.421875 
Q 20.359375 -1.421875 13.671875 8.265625 
Q 6.984375 17.96875 6.984375 36.375 
Q 6.984375 53.65625 15.1875 63.9375 
Q 23.390625 74.21875 37.203125 74.21875 
Q 40.921875 74.21875 44.703125 73.484375 
Q 48.484375 72.75 52.59375 71.296875 
z
" id="DejaVuSans-54"/>
     <path d="M 45.40625 46.390625 
L 45.40625 75.984375 
L 54.390625 75.984375 
L 54.390625 0 
L 45.40625 0 
L 45.40625 8.203125 
Q 42.578125 3.328125 38.25 0.953125 
Q 33.9375 -1.421875 27.875 -1.421875 
Q 17.96875 -1.421875 11.734375 6.484375 
Q 5.515625 14.40625 5.515625 27.296875 
Q 5.515625 40.1875 11.734375 48.09375 
Q 17.96875 56 27.875 56 
Q 33.9375 56 38.25 53.625 
Q 42.578125 51.265625 45.40625 46.390625 
z
M 14.796875 27.296875 
Q 14.796875 17.390625 18.875 11.75 
Q 22.953125 6.109375 30.078125 6.109375 
Q 37.203125 6.109375 41.296875 11.75 
Q 45.40625 17.390625 45.40625 27.296875 
Q 45.40625 37.203125 41.296875 42.84375 
Q 37.203125 48.484375 30.078125 48.484375 
Q 22.953125 48.484375 18.875 42.84375 
Q 14.796875 37.203125 14.796875 27.296875 
z
" id="DejaVuSans-100"/>
     <path d="M 37.796875 64.3125 
L 12.890625 25.390625 
L 37.796875 25.390625 
z
M 35.203125 72.90625 
L 47.609375 72.90625 
L 47.609375 25.390625 
L 58.015625 25.390625 
L 58.015625 17.1875 
L 47.609375 17.1875 
L 47.609375 0 
L 37.796875 0 
L 37.796875 17.1875 
L 4.890625 17.1875 
L 4.890625 26.703125 
z
" id="DejaVuSans-52"/>
     <path d="M 8.203125 72.90625 
L 55.078125 72.90625 
L 55.078125 68.703125 
L 28.609375 0 
L 18.3125 0 
L 43.21875 64.59375 
L 8.203125 64.59375 
z
" id="DejaVuSans-55"/>
    </defs>
    <g transform="translate(117.82 20.88)scale(0.12 -0.12)">
     <use xlink:href="#DejaVuSans-77"/>
     <use x="86.279297" xlink:href="#DejaVuSans-111"/>
     <use x="147.460938" xlink:href="#DejaVuSans-116"/>
     <use x="186.669922" xlink:href="#DejaVuSans-111"/>
     <use x="247.851562" xlink:href="#DejaVuSans-114"/>
     <use x="288.964844" xlink:href="#DejaVuSans-32"/>
     <use x="320.751953" xlink:href="#DejaVuSans-99"/>
     <use x="375.732422" xlink:href="#DejaVuSans-111"/>
     <use x="436.914062" xlink:href="#DejaVuSans-114"/>
     <use x="478.027344" xlink:href="#DejaVuSans-116"/>
     <use x="517.236328" xlink:href="#DejaVuSans-101"/>
     <use x="578.744141" xlink:href="#DejaVuSans-120"/>
     <use x="637.923828" xlink:href="#DejaVuSans-44"/>
     <use x="669.710938" xlink:href="#DejaVuSans-32"/>
     <use x="701.498047" xlink:href="#DejaVuSans-78"/>
     <use x="776.302734" xlink:href="#DejaVuSans-117"/>
     <use x="839.681641" xlink:href="#DejaVuSans-109"/>
     <use x="937.09375" xlink:href="#DejaVuSans-32"/>
     <use x="968.880859" xlink:href="#DejaVuSans-84"/>
     <use x="1029.746094" xlink:href="#DejaVuSans-114"/>
     <use x="1070.859375" xlink:href="#DejaVuSans-105"/>
     <use x="1098.642578" xlink:href="#DejaVuSans-97"/>
     <use x="1159.921875" xlink:href="#DejaVuSans-108"/>
     <use x="1187.705078" xlink:href="#DejaVuSans-115"/>
     <use x="1239.804688" xlink:href="#DejaVuSans-61"/>
     <use x="1323.59375" xlink:href="#DejaVuSans-49"/>
     <use x="1387.216797" xlink:href="#DejaVuSans-54"/>
     <use x="1450.839844" xlink:href="#DejaVuSans-48"/>
     <use x="1514.462891" xlink:href="#DejaVuSans-32"/>
     <use x="1546.25" xlink:href="#DejaVuSans-65"/>
     <use x="1614.658203" xlink:href="#DejaVuSans-108"/>
     <use x="1642.441406" xlink:href="#DejaVuSans-108"/>
     <use x="1670.224609" xlink:href="#DejaVuSans-32"/>
     <use x="1702.011719" xlink:href="#DejaVuSans-115"/>
     <use x="1754.111328" xlink:href="#DejaVuSans-116"/>
     <use x="1793.320312" xlink:href="#DejaVuSans-105"/>
     <use x="1821.103516" xlink:href="#DejaVuSans-109"/>
     <use x="1918.515625" xlink:href="#DejaVuSans-117"/>
     <use x="1981.894531" xlink:href="#DejaVuSans-108"/>
     <use x="2009.677734" xlink:href="#DejaVuSans-97"/>
     <use x="2070.957031" xlink:href="#DejaVuSans-116"/>
     <use x="2110.166016" xlink:href="#DejaVuSans-101"/>
     <use x="2171.689453" xlink:href="#DejaVuSans-100"/>
     <use x="2235.166016" xlink:href="#DejaVuSans-32"/>
     <use x="2266.953125" xlink:href="#DejaVuSans-116"/>
     <use x="2306.162109" xlink:href="#DejaVuSans-114"/>
     <use x="2347.275391" xlink:href="#DejaVuSans-105"/>
     <use x="2375.058594" xlink:href="#DejaVuSans-97"/>
     <use x="2436.337891" xlink:href="#DejaVuSans-108"/>
     <use x="2464.121094" xlink:href="#DejaVuSans-115"/>
     <use x="2516.220703" xlink:href="#DejaVuSans-44"/>
     <use x="2548.007812" xlink:href="#DejaVuSans-32"/>
     <use x="2579.794922" xlink:href="#DejaVuSans-78"/>
     <use x="2654.599609" xlink:href="#DejaVuSans-117"/>
     <use x="2717.978516" xlink:href="#DejaVuSans-109"/>
     <use x="2815.390625" xlink:href="#DejaVuSans-32"/>
     <use x="2847.177734" xlink:href="#DejaVuSans-99"/>
     <use x="2902.158203" xlink:href="#DejaVuSans-101"/>
     <use x="2963.681641" xlink:href="#DejaVuSans-108"/>
     <use x="2991.464844" xlink:href="#DejaVuSans-108"/>
     <use x="3019.248047" xlink:href="#DejaVuSans-115"/>
     <use x="3071.347656" xlink:href="#DejaVuSans-32"/>
     <use x="3103.134766" xlink:href="#DejaVuSans-61"/>
     <use x="3186.923828" xlink:href="#DejaVuSans-32"/>
     <use x="3218.710938" xlink:href="#DejaVuSans-52"/>
     <use x="3282.333984" xlink:href="#DejaVuSans-55"/>
     <use x="3345.957031" xlink:href="#DejaVuSans-49"/>
    </g>
   </g>
   <g id="legend_1">
    <g id="patch_7">
     <path d="M 458.469375 168.76 
L 556.8 168.76 
Q 559.2 168.76 559.2 166.36 
L 559.2 132.3325 
Q 559.2 129.9325 556.8 129.9325 
L 458.469375 129.9325 
Q 456.069375 129.9325 456.069375 132.3325 
L 456.069375 166.36 
Q 456.069375 168.76 458.469375 168.76 
z
" style="fill:#ffffff;opacity:0.8;stroke:#cccccc;stroke-linejoin:miter;"/>
    </g>
    <g id="line2d_13">
     <path d="M 460.869375 139.650625 
L 484.869375 139.650625 
" style="fill:none;stroke:#0000ff;stroke-linecap:square;stroke-width:1.5;"/>
    </g>
    <g id="line2d_14"/>
    <g id="text_15">
     <!-- Avg. Corr. -->
     <g transform="translate(494.469375 143.850625)scale(0.12 -0.12)">
      <use xlink:href="#DejaVuSans-65"/>
      <use x="68.330078" xlink:href="#DejaVuSans-118"/>
      <use x="127.509766" xlink:href="#DejaVuSans-103"/>
      <use x="190.986328" xlink:href="#DejaVuSans-46"/>
      <use x="222.773438" xlink:href="#DejaVuSans-32"/>
      <use x="254.560547" xlink:href="#DejaVuSans-67"/>
      <use x="324.384766" xlink:href="#DejaVuSans-111"/>
      <use x="385.566406" xlink:href="#DejaVuSans-114"/>
      <use x="426.664062" xlink:href="#DejaVuSans-114"/>
      <use x="467.636719" xlink:href="#DejaVuSans-46"/>
     </g>
    </g>
    <g id="patch_8">
     <path d="M 460.869375 161.464375 
L 484.869375 161.464375 
L 484.869375 153.064375 
L 460.869375 153.064375 
z
" style="fill:#0000ff;opacity:0.3;stroke:#0000ff;stroke-linejoin:miter;"/>
    </g>
    <g id="text_16">
     <!-- Std. Err. -->
     <defs>
      <path d="M 53.515625 70.515625 
L 53.515625 60.890625 
Q 47.90625 63.578125 42.921875 64.890625 
Q 37.9375 66.21875 33.296875 66.21875 
Q 25.25 66.21875 20.875 63.09375 
Q 16.5 59.96875 16.5 54.203125 
Q 16.5 49.359375 19.40625 46.890625 
Q 22.3125 44.4375 30.421875 42.921875 
L 36.375 41.703125 
Q 47.40625 39.59375 52.65625 34.296875 
Q 57.90625 29 57.90625 20.125 
Q 57.90625 9.515625 50.796875 4.046875 
Q 43.703125 -1.421875 29.984375 -1.421875 
Q 24.8125 -1.421875 18.96875 -0.25 
Q 13.140625 0.921875 6.890625 3.21875 
L 6.890625 13.375 
Q 12.890625 10.015625 18.65625 8.296875 
Q 24.421875 6.59375 29.984375 6.59375 
Q 38.421875 6.59375 43.015625 9.90625 
Q 47.609375 13.234375 47.609375 19.390625 
Q 47.609375 24.75 44.3125 27.78125 
Q 41.015625 30.8125 33.5 32.328125 
L 27.484375 33.5 
Q 16.453125 35.6875 11.515625 40.375 
Q 6.59375 45.0625 6.59375 53.421875 
Q 6.59375 63.09375 13.40625 68.65625 
Q 20.21875 74.21875 32.171875 74.21875 
Q 37.3125 74.21875 42.625 73.28125 
Q 47.953125 72.359375 53.515625 70.515625 
z
" id="DejaVuSans-83"/>
      <path d="M 9.8125 72.90625 
L 55.90625 72.90625 
L 55.90625 64.59375 
L 19.671875 64.59375 
L 19.671875 43.015625 
L 54.390625 43.015625 
L 54.390625 34.71875 
L 19.671875 34.71875 
L 19.671875 8.296875 
L 56.78125 8.296875 
L 56.78125 0 
L 9.8125 0 
z
" id="DejaVuSans-69"/>
     </defs>
     <g transform="translate(494.469375 161.464375)scale(0.12 -0.12)">
      <use xlink:href="#DejaVuSans-83"/>
      <use x="63.476562" xlink:href="#DejaVuSans-116"/>
      <use x="102.685547" xlink:href="#DejaVuSans-100"/>
      <use x="166.162109" xlink:href="#DejaVuSans-46"/>
      <use x="197.949219" xlink:href="#DejaVuSans-32"/>
      <use x="229.736328" xlink:href="#DejaVuSans-69"/>
      <use x="292.919922" xlink:href="#DejaVuSans-114"/>
      <use x="334.017578" xlink:href="#DejaVuSans-114"/>
      <use x="374.990234" xlink:href="#DejaVuSans-46"/>
     </g>
    </g>
   </g>
  </g>
 </g>
 <defs>
  <clipPath id="p0b8a2a1f25">
   <rect height="147.88" width="485.62" x="79.58" y="26.88"/>
  </clipPath>
 </defs>
</svg>
