<?xml version="1.0" encoding="utf-8" standalone="no"?>
<!DOCTYPE svg PUBLIC "-//W3C//DTD SVG 1.1//EN"
  "http://www.w3.org/Graphics/SVG/1.1/DTD/svg11.dtd">
<!-- Created with matplotlib (https://matplotlib.org/) -->
<svg height="216pt" version="1.1" viewBox="0 0 648 216" width="648pt" xmlns="http://www.w3.org/2000/svg" xmlns:xlink="http://www.w3.org/1999/xlink">
 <defs>
  <style type="text/css">
*{stroke-linecap:butt;stroke-linejoin:round;}
  </style>
 </defs>
 <g id="figure_1">
  <g id="patch_1">
   <path d="M 0 216 
L 648 216 
L 648 0 
L 0 0 
z
" style="fill:#ffffff;"/>
  </g>
  <g id="axes_1">
   <g id="patch_2">
    <path d="M 81 192.24 
L 583.2 192.24 
L 583.2 25.92 
L 81 25.92 
z
" style="fill:#ffffff;"/>
   </g>
   <g id="PolyCollection_1">
    <path clip-path="url(#p93d74b09d8)" d="M 83.049796 110.134416 
L 83.049796 128.914368 
L 85.099592 124.674469 
L 87.149388 111.558844 
L 89.199184 115.296782 
L 91.24898 119.176101 
L 93.298776 119.176101 
L 93.298776 119.176101 
L 93.298776 119.176101 
L 91.24898 119.176101 
L 89.199184 101.421525 
L 87.149388 94.146719 
L 85.099592 113.773781 
L 83.049796 110.134416 
z
" style="fill:#0000ff;fill-opacity:0.3;stroke:#0000ff;stroke-opacity:0.3;"/>
    <path clip-path="url(#p93d74b09d8)" d="M 99.448163 119.765506 
L 99.448163 127.385444 
L 101.497959 111.240434 
L 103.547755 122.026825 
L 105.597551 120.994273 
L 107.647347 120.46097 
L 107.647347 111.77092 
L 107.647347 111.77092 
L 105.597551 111.790365 
L 103.547755 110.923262 
L 101.497959 79.366543 
L 99.448163 119.765506 
z
" style="fill:#0000ff;fill-opacity:0.3;stroke:#0000ff;stroke-opacity:0.3;"/>
    <path clip-path="url(#p93d74b09d8)" d="M 113.796735 119.176101 
L 113.796735 119.176101 
L 115.846531 114.523482 
L 117.896327 142.99092 
L 119.946122 128.185403 
L 121.995918 119.176101 
L 121.995918 119.176101 
L 121.995918 119.176101 
L 119.946122 122.86107 
L 117.896327 128.983368 
L 115.846531 73.119912 
L 113.796735 119.176101 
z
" style="fill:#0000ff;fill-opacity:0.3;stroke:#0000ff;stroke-opacity:0.3;"/>
    <path clip-path="url(#p93d74b09d8)" d="M 128.145306 119.176101 
L 128.145306 119.176101 
L 130.195102 112.285276 
L 132.244898 111.541551 
L 134.294694 102.595597 
L 136.34449 112.845648 
L 138.394286 101.456175 
L 140.444082 125.628517 
L 142.493878 119.176101 
L 144.543673 141.429627 
L 144.543673 141.429627 
L 144.543673 141.429627 
L 142.493878 119.176101 
L 140.444082 119.424639 
L 138.394286 89.743372 
L 136.34449 99.632211 
L 134.294694 87.427638 
L 132.244898 92.923539 
L 130.195102 85.567924 
L 128.145306 119.176101 
z
" style="fill:#0000ff;fill-opacity:0.3;stroke:#0000ff;stroke-opacity:0.3;"/>
    <path clip-path="url(#p93d74b09d8)" d="M 156.842449 119.176101 
L 156.842449 119.176101 
L 158.892245 100.730705 
L 160.942041 89.938838 
L 160.942041 80.245744 
L 160.942041 80.245744 
L 158.892245 87.287176 
L 156.842449 119.176101 
z
" style="fill:#0000ff;fill-opacity:0.3;stroke:#0000ff;stroke-opacity:0.3;"/>
    <path clip-path="url(#p93d74b09d8)" d="M 165.041633 119.176101 
L 165.041633 119.176101 
L 165.041633 119.176101 
L 165.041633 119.176101 
z
" style="fill:#0000ff;fill-opacity:0.3;stroke:#0000ff;stroke-opacity:0.3;"/>
    <path clip-path="url(#p93d74b09d8)" d="M 171.19102 119.176101 
L 171.19102 119.176101 
L 173.240816 119.176101 
L 175.290612 119.176101 
L 177.340408 100.072668 
L 179.390204 102.841416 
L 181.44 113.865128 
L 183.489796 119.176101 
L 185.539592 119.176101 
L 187.589388 77.948838 
L 189.639184 148.152833 
L 189.639184 124.147723 
L 189.639184 124.147723 
L 187.589388 54.692317 
L 185.539592 119.176101 
L 183.489796 119.176101 
L 181.44 96.448195 
L 179.390204 95.351917 
L 177.340408 78.378327 
L 175.290612 119.176101 
L 173.240816 119.176101 
L 171.19102 119.176101 
z
" style="fill:#0000ff;fill-opacity:0.3;stroke:#0000ff;stroke-opacity:0.3;"/>
    <path clip-path="url(#p93d74b09d8)" d="M 195.788571 31.168403 
L 195.788571 110.285518 
L 197.838367 119.176101 
L 199.888163 102.779046 
L 201.937959 122.870721 
L 203.987755 118.352534 
L 206.037551 122.050351 
L 208.087347 87.326951 
L 210.137143 119.607916 
L 212.186939 106.233082 
L 214.236735 119.745061 
L 216.286531 119.176101 
L 218.336327 119.176101 
L 220.386122 119.176101 
L 222.435918 138.170674 
L 224.485714 130.874277 
L 226.53551 117.707933 
L 228.585306 116.47462 
L 230.635102 111.846355 
L 232.684898 119.176101 
L 234.734694 120.171838 
L 236.78449 120.804811 
L 236.78449 108.862662 
L 236.78449 108.862662 
L 234.734694 119.231592 
L 232.684898 119.176101 
L 230.635102 88.252086 
L 228.585306 111.373981 
L 226.53551 101.946242 
L 224.485714 122.51452 
L 222.435918 122.435055 
L 220.386122 119.176101 
L 218.336327 119.176101 
L 216.286531 119.176101 
L 214.236735 119.19285 
L 212.186939 74.053953 
L 210.137143 88.847722 
L 208.087347 62.00039 
L 206.037551 108.061106 
L 203.987755 109.495584 
L 201.937959 119.549334 
L 199.888163 25.92 
L 197.838367 119.176101 
L 195.788571 31.168403 
z
" style="fill:#0000ff;fill-opacity:0.3;stroke:#0000ff;stroke-opacity:0.3;"/>
    <path clip-path="url(#p93d74b09d8)" d="M 240.884082 119.176101 
L 240.884082 119.176101 
L 242.933878 119.176101 
L 244.983673 119.176101 
L 247.033469 119.176101 
L 249.083265 121.143456 
L 251.133061 118.579334 
L 253.182857 111.485473 
L 253.182857 88.526253 
L 253.182857 88.526253 
L 251.133061 101.292983 
L 249.083265 119.831883 
L 247.033469 119.176101 
L 244.983673 119.176101 
L 242.933878 119.176101 
L 240.884082 119.176101 
z
" style="fill:#0000ff;fill-opacity:0.3;stroke:#0000ff;stroke-opacity:0.3;"/>
    <path clip-path="url(#p93d74b09d8)" d="M 257.282449 92.290699 
L 257.282449 113.295162 
L 259.332245 107.516569 
L 261.382041 100.917259 
L 263.431837 124.85676 
L 265.481633 125.76323 
L 265.481633 120.330199 
L 265.481633 120.330199 
L 263.431837 121.492976 
L 261.382041 87.747811 
L 259.332245 92.231728 
L 257.282449 92.290699 
z
" style="fill:#0000ff;fill-opacity:0.3;stroke:#0000ff;stroke-opacity:0.3;"/>
    <path clip-path="url(#p93d74b09d8)" d="M 269.581224 119.176101 
L 269.581224 119.176101 
L 271.63102 123.987265 
L 273.680816 113.829417 
L 275.730612 135.102672 
L 275.730612 124.88644 
L 275.730612 124.88644 
L 273.680816 70.309542 
L 271.63102 110.86736 
L 269.581224 119.176101 
z
" style="fill:#0000ff;fill-opacity:0.3;stroke:#0000ff;stroke-opacity:0.3;"/>
    <path clip-path="url(#p93d74b09d8)" d="M 279.830204 90.555041 
L 279.830204 90.555041 
L 281.88 119.176101 
L 281.88 119.176101 
L 281.88 119.176101 
L 279.830204 90.555041 
z
" style="fill:#0000ff;fill-opacity:0.3;stroke:#0000ff;stroke-opacity:0.3;"/>
    <path clip-path="url(#p93d74b09d8)" d="M 285.979592 119.176101 
L 285.979592 119.176101 
L 288.029388 119.176101 
L 290.079184 119.176101 
L 292.12898 122.299856 
L 294.178776 119.176101 
L 296.228571 119.176101 
L 298.278367 119.176101 
L 298.278367 119.176101 
L 298.278367 119.176101 
L 296.228571 119.176101 
L 294.178776 119.176101 
L 292.12898 120.362569 
L 290.079184 119.176101 
L 288.029388 119.176101 
L 285.979592 119.176101 
z
" style="fill:#0000ff;fill-opacity:0.3;stroke:#0000ff;stroke-opacity:0.3;"/>
    <path clip-path="url(#p93d74b09d8)" d="M 302.377959 119.176101 
L 302.377959 119.176101 
L 304.427755 154.992776 
L 306.477551 192.24 
L 306.477551 192.24 
L 306.477551 192.24 
L 304.427755 130.783599 
L 302.377959 119.176101 
z
" style="fill:#0000ff;fill-opacity:0.3;stroke:#0000ff;stroke-opacity:0.3;"/>
    <path clip-path="url(#p93d74b09d8)" d="M 310.577143 101.920364 
L 310.577143 118.622555 
L 312.626939 145.095385 
L 312.626939 115.50734 
L 312.626939 115.50734 
L 310.577143 101.920364 
z
" style="fill:#0000ff;fill-opacity:0.3;stroke:#0000ff;stroke-opacity:0.3;"/>
    <path clip-path="url(#p93d74b09d8)" d="M 316.726531 119.176101 
L 316.726531 119.176101 
L 318.776327 122.6988 
L 320.826122 119.176101 
L 320.826122 119.176101 
L 320.826122 119.176101 
L 318.776327 98.063899 
L 316.726531 119.176101 
z
" style="fill:#0000ff;fill-opacity:0.3;stroke:#0000ff;stroke-opacity:0.3;"/>
    <path clip-path="url(#p93d74b09d8)" d="M 324.925714 119.176101 
L 324.925714 119.176101 
L 326.97551 103.880209 
L 329.025306 111.914452 
L 331.075102 115.175967 
L 333.124898 106.024938 
L 335.174694 97.753246 
L 335.174694 79.155388 
L 335.174694 79.155388 
L 333.124898 93.964797 
L 331.075102 95.86161 
L 329.025306 96.84041 
L 326.97551 84.100013 
L 324.925714 119.176101 
z
" style="fill:#0000ff;fill-opacity:0.3;stroke:#0000ff;stroke-opacity:0.3;"/>
    <path clip-path="url(#p93d74b09d8)" d="M 339.274286 119.532028 
L 339.274286 123.705461 
L 341.324082 120.503366 
L 343.373878 118.937203 
L 345.423673 118.671943 
L 347.473469 119.176101 
L 349.523265 120.218491 
L 349.523265 95.868804 
L 349.523265 95.868804 
L 347.473469 119.176101 
L 345.423673 108.107587 
L 343.373878 112.973948 
L 341.324082 111.005742 
L 339.274286 119.532028 
z
" style="fill:#0000ff;fill-opacity:0.3;stroke:#0000ff;stroke-opacity:0.3;"/>
    <path clip-path="url(#p93d74b09d8)" d="M 353.622857 119.176101 
L 353.622857 119.176101 
L 355.672653 114.924735 
L 357.722449 122.011902 
L 359.772245 122.860789 
L 359.772245 119.54833 
L 359.772245 119.54833 
L 357.722449 119.967379 
L 355.672653 45.594659 
L 353.622857 119.176101 
z
" style="fill:#0000ff;fill-opacity:0.3;stroke:#0000ff;stroke-opacity:0.3;"/>
    <path clip-path="url(#p93d74b09d8)" d="M 363.871837 92.693332 
L 363.871837 108.039018 
L 365.921633 115.827498 
L 367.971429 123.220129 
L 370.021224 116.75676 
L 372.07102 112.364673 
L 374.120816 121.693066 
L 376.170612 112.3766 
L 376.170612 83.653493 
L 376.170612 83.653493 
L 374.120816 109.99205 
L 372.07102 89.370446 
L 370.021224 105.238134 
L 367.971429 115.510627 
L 365.921633 105.502372 
L 363.871837 92.693332 
z
" style="fill:#0000ff;fill-opacity:0.3;stroke:#0000ff;stroke-opacity:0.3;"/>
    <path clip-path="url(#p93d74b09d8)" d="M 380.270204 119.176101 
L 380.270204 119.176101 
L 382.32 119.176101 
L 384.369796 119.176101 
L 386.419592 119.176101 
L 388.469388 116.938638 
L 390.519184 119.176101 
L 390.519184 119.176101 
L 390.519184 119.176101 
L 388.469388 97.027497 
L 386.419592 119.176101 
L 384.369796 119.176101 
L 382.32 119.176101 
L 380.270204 119.176101 
z
" style="fill:#0000ff;fill-opacity:0.3;stroke:#0000ff;stroke-opacity:0.3;"/>
    <path clip-path="url(#p93d74b09d8)" d="M 396.668571 120.587753 
L 396.668571 124.524952 
L 396.668571 120.587753 
L 396.668571 120.587753 
z
" style="fill:#0000ff;fill-opacity:0.3;stroke:#0000ff;stroke-opacity:0.3;"/>
    <path clip-path="url(#p93d74b09d8)" d="M 400.768163 119.645975 
L 400.768163 127.607638 
L 402.817959 118.822213 
L 404.867755 119.176101 
L 406.917551 119.176101 
L 408.967347 125.843536 
L 411.017143 119.176101 
L 413.066939 119.176101 
L 413.066939 119.176101 
L 413.066939 119.176101 
L 411.017143 119.176101 
L 408.967347 119.547665 
L 406.917551 119.176101 
L 404.867755 119.176101 
L 402.817959 108.571256 
L 400.768163 119.645975 
z
" style="fill:#0000ff;fill-opacity:0.3;stroke:#0000ff;stroke-opacity:0.3;"/>
    <path clip-path="url(#p93d74b09d8)" d="M 417.166531 119.176101 
L 417.166531 119.176101 
L 417.166531 119.176101 
L 417.166531 119.176101 
z
" style="fill:#0000ff;fill-opacity:0.3;stroke:#0000ff;stroke-opacity:0.3;"/>
    <path clip-path="url(#p93d74b09d8)" d="M 421.266122 119.176101 
L 421.266122 119.176101 
L 421.266122 119.176101 
L 421.266122 119.176101 
z
" style="fill:#0000ff;fill-opacity:0.3;stroke:#0000ff;stroke-opacity:0.3;"/>
    <path clip-path="url(#p93d74b09d8)" d="M 429.465306 73.290234 
L 429.465306 107.294197 
L 431.515102 105.043736 
L 433.564898 98.701149 
L 435.614694 95.106692 
L 437.66449 108.673699 
L 439.714286 95.978711 
L 441.764082 93.278772 
L 443.813878 102.030962 
L 445.863673 98.962828 
L 447.913469 96.489557 
L 449.963265 105.22993 
L 452.013061 98.516202 
L 454.062857 139.276516 
L 456.112653 109.879286 
L 458.162449 98.248279 
L 460.212245 97.198289 
L 462.262041 118.723999 
L 464.311837 95.265895 
L 466.361633 100.651351 
L 468.411429 94.599769 
L 470.461224 99.355814 
L 472.51102 100.201803 
L 474.560816 97.316331 
L 476.610612 99.497386 
L 478.660408 101.432047 
L 480.710204 101.295659 
L 482.76 104.292183 
L 484.809796 91.938609 
L 486.859592 115.725939 
L 488.909388 116.119591 
L 490.959184 122.090947 
L 493.00898 117.755722 
L 495.058776 119.016837 
L 497.108571 117.049754 
L 499.158367 119.176101 
L 501.208163 119.176101 
L 503.257959 128.037647 
L 505.307755 95.098688 
L 507.357551 97.329014 
L 509.407347 114.357473 
L 511.457143 116.35145 
L 513.506939 93.889462 
L 515.556735 115.179475 
L 517.606531 130.070517 
L 519.656327 116.289476 
L 521.706122 118.968166 
L 523.755918 108.473264 
L 523.755918 96.533392 
L 523.755918 96.533392 
L 521.706122 102.010507 
L 519.656327 94.665943 
L 517.606531 122.359681 
L 515.556735 96.297837 
L 513.506939 82.477685 
L 511.457143 102.5697 
L 509.407347 103.022947 
L 507.357551 90.030791 
L 505.307755 59.217777 
L 503.257959 120.696502 
L 501.208163 119.176101 
L 499.158367 119.176101 
L 497.108571 89.559908 
L 495.058776 114.403472 
L 493.00898 79.159778 
L 490.959184 111.279685 
L 488.909388 106.660409 
L 486.859592 100.899317 
L 484.809796 86.593212 
L 482.76 99.534255 
L 480.710204 94.697624 
L 478.660408 63.699526 
L 476.610612 88.009464 
L 474.560816 90.429403 
L 472.51102 78.896823 
L 470.461224 92.025594 
L 468.411429 89.008024 
L 466.361633 94.728192 
L 464.311837 86.526799 
L 462.262041 108.556655 
L 460.212245 93.009967 
L 458.162449 91.623359 
L 456.112653 89.561553 
L 454.062857 126.89057 
L 452.013061 76.133626 
L 449.963265 95.439494 
L 447.913469 93.055511 
L 445.863673 95.801463 
L 443.813878 95.882346 
L 441.764082 91.066984 
L 439.714286 90.628627 
L 437.66449 100.631964 
L 435.614694 88.814389 
L 433.564898 93.884949 
L 431.515102 94.221488 
L 429.465306 73.290234 
z
" style="fill:#0000ff;fill-opacity:0.3;stroke:#0000ff;stroke-opacity:0.3;"/>
    <path clip-path="url(#p93d74b09d8)" d="M 527.85551 119.176101 
L 527.85551 119.176101 
L 529.905306 119.336966 
L 531.955102 101.731365 
L 534.004898 94.046387 
L 536.054694 101.083985 
L 538.10449 119.176101 
L 540.154286 120.24464 
L 542.204082 128.886539 
L 542.204082 123.073566 
L 542.204082 123.073566 
L 540.154286 98.57757 
L 538.10449 119.176101 
L 536.054694 85.57338 
L 534.004898 77.10932 
L 531.955102 89.106655 
L 529.905306 119.182298 
L 527.85551 119.176101 
z
" style="fill:#0000ff;fill-opacity:0.3;stroke:#0000ff;stroke-opacity:0.3;"/>
    <path clip-path="url(#p93d74b09d8)" d="M 546.303673 121.185543 
L 546.303673 130.887984 
L 548.353469 106.767581 
L 550.403265 109.383992 
L 552.453061 119.176101 
L 554.502857 111.776703 
L 556.552653 117.768677 
L 558.602449 121.105431 
L 560.652245 120.721842 
L 562.702041 127.681874 
L 564.751837 112.033125 
L 566.801633 119.176101 
L 568.851429 119.176101 
L 570.901224 129.808868 
L 572.95102 122.255615 
L 575.000816 116.007795 
L 575.000816 87.813096 
L 575.000816 87.813096 
L 572.95102 106.417468 
L 570.901224 120.250229 
L 568.851429 119.176101 
L 566.801633 119.176101 
L 564.751837 77.543786 
L 562.702041 119.650112 
L 560.652245 115.043156 
L 558.602449 119.631805 
L 556.552653 109.185466 
L 554.502857 96.167496 
L 552.453061 119.176101 
L 550.403265 56.049506 
L 548.353469 62.141917 
L 546.303673 121.185543 
z
" style="fill:#0000ff;fill-opacity:0.3;stroke:#0000ff;stroke-opacity:0.3;"/>
    <path clip-path="url(#p93d74b09d8)" d="M 579.100408 78.693896 
L 579.100408 106.729905 
L 581.150204 120.402112 
L 581.150204 119.264125 
L 581.150204 119.264125 
L 579.100408 78.693896 
z
" style="fill:#0000ff;fill-opacity:0.3;stroke:#0000ff;stroke-opacity:0.3;"/>
   </g>
   <g id="PolyCollection_2">
    <defs>
     <path d="M 128.042816 -23.76 
L 128.042816 -190.08 
L 435.512204 -190.08 
L 435.512204 -23.76 
L 435.512204 -23.76 
L 128.042816 -23.76 
z
" id="m33e6b51ef0" style="stroke:#808080;stroke-opacity:0.3;"/>
    </defs>
    <g clip-path="url(#p93d74b09d8)">
     <use style="fill:#808080;fill-opacity:0.3;stroke:#808080;stroke-opacity:0.3;" x="0" xlink:href="#m33e6b51ef0" y="216"/>
    </g>
   </g>
   <g id="matplotlib.axis_1">
    <g id="xtick_1">
     <g id="line2d_1">
      <defs>
       <path d="M 0 0 
L 0 3.5 
" id="maec2c5550a" style="stroke:#000000;stroke-width:0.8;"/>
      </defs>
      <g>
       <use style="stroke:#000000;stroke-width:0.8;" x="81" xlink:href="#maec2c5550a" y="192.24"/>
      </g>
     </g>
     <g id="text_1">
      <!-- 0.0 -->
      <defs>
       <path d="M 31.78125 66.40625 
Q 24.171875 66.40625 20.328125 58.90625 
Q 16.5 51.421875 16.5 36.375 
Q 16.5 21.390625 20.328125 13.890625 
Q 24.171875 6.390625 31.78125 6.390625 
Q 39.453125 6.390625 43.28125 13.890625 
Q 47.125 21.390625 47.125 36.375 
Q 47.125 51.421875 43.28125 58.90625 
Q 39.453125 66.40625 31.78125 66.40625 
z
M 31.78125 74.21875 
Q 44.046875 74.21875 50.515625 64.515625 
Q 56.984375 54.828125 56.984375 36.375 
Q 56.984375 17.96875 50.515625 8.265625 
Q 44.046875 -1.421875 31.78125 -1.421875 
Q 19.53125 -1.421875 13.0625 8.265625 
Q 6.59375 17.96875 6.59375 36.375 
Q 6.59375 54.828125 13.0625 64.515625 
Q 19.53125 74.21875 31.78125 74.21875 
z
" id="DejaVuSans-48"/>
       <path d="M 10.6875 12.40625 
L 21 12.40625 
L 21 0 
L 10.6875 0 
z
" id="DejaVuSans-46"/>
      </defs>
      <g transform="translate(71.458125 208.358125)scale(0.12 -0.12)">
       <use xlink:href="#DejaVuSans-48"/>
       <use x="63.623047" xlink:href="#DejaVuSans-46"/>
       <use x="95.410156" xlink:href="#DejaVuSans-48"/>
      </g>
     </g>
    </g>
    <g id="xtick_2">
     <g id="line2d_2">
      <g>
       <use style="stroke:#000000;stroke-width:0.8;" x="183.489796" xlink:href="#maec2c5550a" y="192.24"/>
      </g>
     </g>
     <g id="text_2">
      <!-- 0.5 -->
      <defs>
       <path d="M 10.796875 72.90625 
L 49.515625 72.90625 
L 49.515625 64.59375 
L 19.828125 64.59375 
L 19.828125 46.734375 
Q 21.96875 47.46875 24.109375 47.828125 
Q 26.265625 48.1875 28.421875 48.1875 
Q 40.625 48.1875 47.75 41.5 
Q 54.890625 34.8125 54.890625 23.390625 
Q 54.890625 11.625 47.5625 5.09375 
Q 40.234375 -1.421875 26.90625 -1.421875 
Q 22.3125 -1.421875 17.546875 -0.640625 
Q 12.796875 0.140625 7.71875 1.703125 
L 7.71875 11.625 
Q 12.109375 9.234375 16.796875 8.0625 
Q 21.484375 6.890625 26.703125 6.890625 
Q 35.15625 6.890625 40.078125 11.328125 
Q 45.015625 15.765625 45.015625 23.390625 
Q 45.015625 31 40.078125 35.4375 
Q 35.15625 39.890625 26.703125 39.890625 
Q 22.75 39.890625 18.8125 39.015625 
Q 14.890625 38.140625 10.796875 36.28125 
z
" id="DejaVuSans-53"/>
      </defs>
      <g transform="translate(173.947921 208.358125)scale(0.12 -0.12)">
       <use xlink:href="#DejaVuSans-48"/>
       <use x="63.623047" xlink:href="#DejaVuSans-46"/>
       <use x="95.410156" xlink:href="#DejaVuSans-53"/>
      </g>
     </g>
    </g>
    <g id="xtick_3">
     <g id="line2d_3">
      <g>
       <use style="stroke:#000000;stroke-width:0.8;" x="285.979592" xlink:href="#maec2c5550a" y="192.24"/>
      </g>
     </g>
     <g id="text_3">
      <!-- 1.0 -->
      <defs>
       <path d="M 12.40625 8.296875 
L 28.515625 8.296875 
L 28.515625 63.921875 
L 10.984375 60.40625 
L 10.984375 69.390625 
L 28.421875 72.90625 
L 38.28125 72.90625 
L 38.28125 8.296875 
L 54.390625 8.296875 
L 54.390625 0 
L 12.40625 0 
z
" id="DejaVuSans-49"/>
      </defs>
      <g transform="translate(276.437717 208.358125)scale(0.12 -0.12)">
       <use xlink:href="#DejaVuSans-49"/>
       <use x="63.623047" xlink:href="#DejaVuSans-46"/>
       <use x="95.410156" xlink:href="#DejaVuSans-48"/>
      </g>
     </g>
    </g>
    <g id="xtick_4">
     <g id="line2d_4">
      <g>
       <use style="stroke:#000000;stroke-width:0.8;" x="388.469388" xlink:href="#maec2c5550a" y="192.24"/>
      </g>
     </g>
     <g id="text_4">
      <!-- 1.5 -->
      <g transform="translate(378.927513 208.358125)scale(0.12 -0.12)">
       <use xlink:href="#DejaVuSans-49"/>
       <use x="63.623047" xlink:href="#DejaVuSans-46"/>
       <use x="95.410156" xlink:href="#DejaVuSans-53"/>
      </g>
     </g>
    </g>
    <g id="xtick_5">
     <g id="line2d_5">
      <g>
       <use style="stroke:#000000;stroke-width:0.8;" x="490.959184" xlink:href="#maec2c5550a" y="192.24"/>
      </g>
     </g>
     <g id="text_5">
      <!-- 2.0 -->
      <defs>
       <path d="M 19.1875 8.296875 
L 53.609375 8.296875 
L 53.609375 0 
L 7.328125 0 
L 7.328125 8.296875 
Q 12.9375 14.109375 22.625 23.890625 
Q 32.328125 33.6875 34.8125 36.53125 
Q 39.546875 41.84375 41.421875 45.53125 
Q 43.3125 49.21875 43.3125 52.78125 
Q 43.3125 58.59375 39.234375 62.25 
Q 35.15625 65.921875 28.609375 65.921875 
Q 23.96875 65.921875 18.8125 64.3125 
Q 13.671875 62.703125 7.8125 59.421875 
L 7.8125 69.390625 
Q 13.765625 71.78125 18.9375 73 
Q 24.125 74.21875 28.421875 74.21875 
Q 39.75 74.21875 46.484375 68.546875 
Q 53.21875 62.890625 53.21875 53.421875 
Q 53.21875 48.921875 51.53125 44.890625 
Q 49.859375 40.875 45.40625 35.40625 
Q 44.1875 33.984375 37.640625 27.21875 
Q 31.109375 20.453125 19.1875 8.296875 
z
" id="DejaVuSans-50"/>
      </defs>
      <g transform="translate(481.417309 208.358125)scale(0.12 -0.12)">
       <use xlink:href="#DejaVuSans-50"/>
       <use x="63.623047" xlink:href="#DejaVuSans-46"/>
       <use x="95.410156" xlink:href="#DejaVuSans-48"/>
      </g>
     </g>
    </g>
    <g id="text_6">
     <!-- Time (s) -->
     <defs>
      <path d="M -0.296875 72.90625 
L 61.375 72.90625 
L 61.375 64.59375 
L 35.5 64.59375 
L 35.5 0 
L 25.59375 0 
L 25.59375 64.59375 
L -0.296875 64.59375 
z
" id="DejaVuSans-84"/>
      <path d="M 9.421875 54.6875 
L 18.40625 54.6875 
L 18.40625 0 
L 9.421875 0 
z
M 9.421875 75.984375 
L 18.40625 75.984375 
L 18.40625 64.59375 
L 9.421875 64.59375 
z
" id="DejaVuSans-105"/>
      <path d="M 52 44.1875 
Q 55.375 50.25 60.0625 53.125 
Q 64.75 56 71.09375 56 
Q 79.640625 56 84.28125 50.015625 
Q 88.921875 44.046875 88.921875 33.015625 
L 88.921875 0 
L 79.890625 0 
L 79.890625 32.71875 
Q 79.890625 40.578125 77.09375 44.375 
Q 74.3125 48.1875 68.609375 48.1875 
Q 61.625 48.1875 57.5625 43.546875 
Q 53.515625 38.921875 53.515625 30.90625 
L 53.515625 0 
L 44.484375 0 
L 44.484375 32.71875 
Q 44.484375 40.625 41.703125 44.40625 
Q 38.921875 48.1875 33.109375 48.1875 
Q 26.21875 48.1875 22.15625 43.53125 
Q 18.109375 38.875 18.109375 30.90625 
L 18.109375 0 
L 9.078125 0 
L 9.078125 54.6875 
L 18.109375 54.6875 
L 18.109375 46.1875 
Q 21.1875 51.21875 25.484375 53.609375 
Q 29.78125 56 35.6875 56 
Q 41.65625 56 45.828125 52.96875 
Q 50 49.953125 52 44.1875 
z
" id="DejaVuSans-109"/>
      <path d="M 56.203125 29.59375 
L 56.203125 25.203125 
L 14.890625 25.203125 
Q 15.484375 15.921875 20.484375 11.0625 
Q 25.484375 6.203125 34.421875 6.203125 
Q 39.59375 6.203125 44.453125 7.46875 
Q 49.3125 8.734375 54.109375 11.28125 
L 54.109375 2.78125 
Q 49.265625 0.734375 44.1875 -0.34375 
Q 39.109375 -1.421875 33.890625 -1.421875 
Q 20.796875 -1.421875 13.15625 6.1875 
Q 5.515625 13.8125 5.515625 26.8125 
Q 5.515625 40.234375 12.765625 48.109375 
Q 20.015625 56 32.328125 56 
Q 43.359375 56 49.78125 48.890625 
Q 56.203125 41.796875 56.203125 29.59375 
z
M 47.21875 32.234375 
Q 47.125 39.59375 43.09375 43.984375 
Q 39.0625 48.390625 32.421875 48.390625 
Q 24.90625 48.390625 20.390625 44.140625 
Q 15.875 39.890625 15.1875 32.171875 
z
" id="DejaVuSans-101"/>
      <path id="DejaVuSans-32"/>
      <path d="M 31 75.875 
Q 24.46875 64.65625 21.28125 53.65625 
Q 18.109375 42.671875 18.109375 31.390625 
Q 18.109375 20.125 21.3125 9.0625 
Q 24.515625 -2 31 -13.1875 
L 23.1875 -13.1875 
Q 15.875 -1.703125 12.234375 9.375 
Q 8.59375 20.453125 8.59375 31.390625 
Q 8.59375 42.28125 12.203125 53.3125 
Q 15.828125 64.359375 23.1875 75.875 
z
" id="DejaVuSans-40"/>
      <path d="M 44.28125 53.078125 
L 44.28125 44.578125 
Q 40.484375 46.53125 36.375 47.5 
Q 32.28125 48.484375 27.875 48.484375 
Q 21.1875 48.484375 17.84375 46.4375 
Q 14.5 44.390625 14.5 40.28125 
Q 14.5 37.15625 16.890625 35.375 
Q 19.28125 33.59375 26.515625 31.984375 
L 29.59375 31.296875 
Q 39.15625 29.25 43.1875 25.515625 
Q 47.21875 21.78125 47.21875 15.09375 
Q 47.21875 7.46875 41.1875 3.015625 
Q 35.15625 -1.421875 24.609375 -1.421875 
Q 20.21875 -1.421875 15.453125 -0.5625 
Q 10.6875 0.296875 5.421875 2 
L 5.421875 11.28125 
Q 10.40625 8.6875 15.234375 7.390625 
Q 20.0625 6.109375 24.8125 6.109375 
Q 31.15625 6.109375 34.5625 8.28125 
Q 37.984375 10.453125 37.984375 14.40625 
Q 37.984375 18.0625 35.515625 20.015625 
Q 33.0625 21.96875 24.703125 23.78125 
L 21.578125 24.515625 
Q 13.234375 26.265625 9.515625 29.90625 
Q 5.8125 33.546875 5.8125 39.890625 
Q 5.8125 47.609375 11.28125 51.796875 
Q 16.75 56 26.8125 56 
Q 31.78125 56 36.171875 55.265625 
Q 40.578125 54.546875 44.28125 53.078125 
z
" id="DejaVuSans-115"/>
      <path d="M 8.015625 75.875 
L 15.828125 75.875 
Q 23.140625 64.359375 26.78125 53.3125 
Q 30.421875 42.28125 30.421875 31.390625 
Q 30.421875 20.453125 26.78125 9.375 
Q 23.140625 -1.703125 15.828125 -13.1875 
L 8.015625 -13.1875 
Q 14.5 -2 17.703125 9.0625 
Q 20.90625 20.125 20.90625 31.390625 
Q 20.90625 42.671875 17.703125 53.65625 
Q 14.5 64.65625 8.015625 75.875 
z
" id="DejaVuSans-41"/>
     </defs>
     <g transform="translate(302.60475 225.7955)scale(0.144 -0.144)">
      <use xlink:href="#DejaVuSans-84"/>
      <use x="61.037109" xlink:href="#DejaVuSans-105"/>
      <use x="88.820312" xlink:href="#DejaVuSans-109"/>
      <use x="186.232422" xlink:href="#DejaVuSans-101"/>
      <use x="247.755859" xlink:href="#DejaVuSans-32"/>
      <use x="279.542969" xlink:href="#DejaVuSans-40"/>
      <use x="318.556641" xlink:href="#DejaVuSans-115"/>
      <use x="370.65625" xlink:href="#DejaVuSans-41"/>
     </g>
    </g>
   </g>
   <g id="matplotlib.axis_2">
    <g id="ytick_1">
     <g id="line2d_6">
      <defs>
       <path d="M 0 0 
L -3.5 0 
" id="ma340963394" style="stroke:#000000;stroke-width:0.8;"/>
      </defs>
      <g>
       <use style="stroke:#000000;stroke-width:0.8;" x="81" xlink:href="#ma340963394" y="173.579642"/>
      </g>
     </g>
     <g id="text_7">
      <!-- −0.03 -->
      <defs>
       <path d="M 10.59375 35.5 
L 73.1875 35.5 
L 73.1875 27.203125 
L 10.59375 27.203125 
z
" id="DejaVuSans-8722"/>
       <path d="M 40.578125 39.3125 
Q 47.65625 37.796875 51.625 33 
Q 55.609375 28.21875 55.609375 21.1875 
Q 55.609375 10.40625 48.1875 4.484375 
Q 40.765625 -1.421875 27.09375 -1.421875 
Q 22.515625 -1.421875 17.65625 -0.515625 
Q 12.796875 0.390625 7.625 2.203125 
L 7.625 11.71875 
Q 11.71875 9.328125 16.59375 8.109375 
Q 21.484375 6.890625 26.8125 6.890625 
Q 36.078125 6.890625 40.9375 10.546875 
Q 45.796875 14.203125 45.796875 21.1875 
Q 45.796875 27.640625 41.28125 31.265625 
Q 36.765625 34.90625 28.71875 34.90625 
L 20.21875 34.90625 
L 20.21875 43.015625 
L 29.109375 43.015625 
Q 36.375 43.015625 40.234375 45.921875 
Q 44.09375 48.828125 44.09375 54.296875 
Q 44.09375 59.90625 40.109375 62.90625 
Q 36.140625 65.921875 28.71875 65.921875 
Q 24.65625 65.921875 20.015625 65.03125 
Q 15.375 64.15625 9.8125 62.3125 
L 9.8125 71.09375 
Q 15.4375 72.65625 20.34375 73.4375 
Q 25.25 74.21875 29.59375 74.21875 
Q 40.828125 74.21875 47.359375 69.109375 
Q 53.90625 64.015625 53.90625 55.328125 
Q 53.90625 49.265625 50.4375 45.09375 
Q 46.96875 40.921875 40.578125 39.3125 
z
" id="DejaVuSans-51"/>
      </defs>
      <g transform="translate(37.225625 178.138704)scale(0.12 -0.12)">
       <use xlink:href="#DejaVuSans-8722"/>
       <use x="83.789062" xlink:href="#DejaVuSans-48"/>
       <use x="147.412109" xlink:href="#DejaVuSans-46"/>
       <use x="179.199219" xlink:href="#DejaVuSans-48"/>
       <use x="242.822266" xlink:href="#DejaVuSans-51"/>
      </g>
     </g>
    </g>
    <g id="ytick_2">
     <g id="line2d_7">
      <g>
       <use style="stroke:#000000;stroke-width:0.8;" x="81" xlink:href="#ma340963394" y="146.239792"/>
      </g>
     </g>
     <g id="text_8">
      <!-- −0.02 -->
      <g transform="translate(37.225625 150.798854)scale(0.12 -0.12)">
       <use xlink:href="#DejaVuSans-8722"/>
       <use x="83.789062" xlink:href="#DejaVuSans-48"/>
       <use x="147.412109" xlink:href="#DejaVuSans-46"/>
       <use x="179.199219" xlink:href="#DejaVuSans-48"/>
       <use x="242.822266" xlink:href="#DejaVuSans-50"/>
      </g>
     </g>
    </g>
    <g id="ytick_3">
     <g id="line2d_8">
      <g>
       <use style="stroke:#000000;stroke-width:0.8;" x="81" xlink:href="#ma340963394" y="118.899941"/>
      </g>
     </g>
     <g id="text_9">
      <!-- −0.01 -->
      <g transform="translate(37.225625 123.459004)scale(0.12 -0.12)">
       <use xlink:href="#DejaVuSans-8722"/>
       <use x="83.789062" xlink:href="#DejaVuSans-48"/>
       <use x="147.412109" xlink:href="#DejaVuSans-46"/>
       <use x="179.199219" xlink:href="#DejaVuSans-48"/>
       <use x="242.822266" xlink:href="#DejaVuSans-49"/>
      </g>
     </g>
    </g>
    <g id="ytick_4">
     <g id="line2d_9">
      <g>
       <use style="stroke:#000000;stroke-width:0.8;" x="81" xlink:href="#ma340963394" y="91.560091"/>
      </g>
     </g>
     <g id="text_10">
      <!-- 0.00 -->
      <g transform="translate(47.28125 96.119154)scale(0.12 -0.12)">
       <use xlink:href="#DejaVuSans-48"/>
       <use x="63.623047" xlink:href="#DejaVuSans-46"/>
       <use x="95.410156" xlink:href="#DejaVuSans-48"/>
       <use x="159.033203" xlink:href="#DejaVuSans-48"/>
      </g>
     </g>
    </g>
    <g id="ytick_5">
     <g id="line2d_10">
      <g>
       <use style="stroke:#000000;stroke-width:0.8;" x="81" xlink:href="#ma340963394" y="64.220241"/>
      </g>
     </g>
     <g id="text_11">
      <!-- 0.01 -->
      <g transform="translate(47.28125 68.779303)scale(0.12 -0.12)">
       <use xlink:href="#DejaVuSans-48"/>
       <use x="63.623047" xlink:href="#DejaVuSans-46"/>
       <use x="95.410156" xlink:href="#DejaVuSans-48"/>
       <use x="159.033203" xlink:href="#DejaVuSans-49"/>
      </g>
     </g>
    </g>
    <g id="ytick_6">
     <g id="line2d_11">
      <g>
       <use style="stroke:#000000;stroke-width:0.8;" x="81" xlink:href="#ma340963394" y="36.880391"/>
      </g>
     </g>
     <g id="text_12">
      <!-- 0.02 -->
      <g transform="translate(47.28125 41.439453)scale(0.12 -0.12)">
       <use xlink:href="#DejaVuSans-48"/>
       <use x="63.623047" xlink:href="#DejaVuSans-46"/>
       <use x="95.410156" xlink:href="#DejaVuSans-48"/>
       <use x="159.033203" xlink:href="#DejaVuSans-50"/>
      </g>
     </g>
    </g>
    <g id="text_13">
     <!-- Avg. Corr. Coef. -->
     <defs>
      <path d="M 34.1875 63.1875 
L 20.796875 26.90625 
L 47.609375 26.90625 
z
M 28.609375 72.90625 
L 39.796875 72.90625 
L 67.578125 0 
L 57.328125 0 
L 50.6875 18.703125 
L 17.828125 18.703125 
L 11.1875 0 
L 0.78125 0 
z
" id="DejaVuSans-65"/>
      <path d="M 2.984375 54.6875 
L 12.5 54.6875 
L 29.59375 8.796875 
L 46.6875 54.6875 
L 56.203125 54.6875 
L 35.6875 0 
L 23.484375 0 
z
" id="DejaVuSans-118"/>
      <path d="M 45.40625 27.984375 
Q 45.40625 37.75 41.375 43.109375 
Q 37.359375 48.484375 30.078125 48.484375 
Q 22.859375 48.484375 18.828125 43.109375 
Q 14.796875 37.75 14.796875 27.984375 
Q 14.796875 18.265625 18.828125 12.890625 
Q 22.859375 7.515625 30.078125 7.515625 
Q 37.359375 7.515625 41.375 12.890625 
Q 45.40625 18.265625 45.40625 27.984375 
z
M 54.390625 6.78125 
Q 54.390625 -7.171875 48.1875 -13.984375 
Q 42 -20.796875 29.203125 -20.796875 
Q 24.46875 -20.796875 20.265625 -20.09375 
Q 16.0625 -19.390625 12.109375 -17.921875 
L 12.109375 -9.1875 
Q 16.0625 -11.328125 19.921875 -12.34375 
Q 23.78125 -13.375 27.78125 -13.375 
Q 36.625 -13.375 41.015625 -8.765625 
Q 45.40625 -4.15625 45.40625 5.171875 
L 45.40625 9.625 
Q 42.625 4.78125 38.28125 2.390625 
Q 33.9375 0 27.875 0 
Q 17.828125 0 11.671875 7.65625 
Q 5.515625 15.328125 5.515625 27.984375 
Q 5.515625 40.671875 11.671875 48.328125 
Q 17.828125 56 27.875 56 
Q 33.9375 56 38.28125 53.609375 
Q 42.625 51.21875 45.40625 46.390625 
L 45.40625 54.6875 
L 54.390625 54.6875 
z
" id="DejaVuSans-103"/>
      <path d="M 64.40625 67.28125 
L 64.40625 56.890625 
Q 59.421875 61.53125 53.78125 63.8125 
Q 48.140625 66.109375 41.796875 66.109375 
Q 29.296875 66.109375 22.65625 58.46875 
Q 16.015625 50.828125 16.015625 36.375 
Q 16.015625 21.96875 22.65625 14.328125 
Q 29.296875 6.6875 41.796875 6.6875 
Q 48.140625 6.6875 53.78125 8.984375 
Q 59.421875 11.28125 64.40625 15.921875 
L 64.40625 5.609375 
Q 59.234375 2.09375 53.4375 0.328125 
Q 47.65625 -1.421875 41.21875 -1.421875 
Q 24.65625 -1.421875 15.125 8.703125 
Q 5.609375 18.84375 5.609375 36.375 
Q 5.609375 53.953125 15.125 64.078125 
Q 24.65625 74.21875 41.21875 74.21875 
Q 47.75 74.21875 53.53125 72.484375 
Q 59.328125 70.75 64.40625 67.28125 
z
" id="DejaVuSans-67"/>
      <path d="M 30.609375 48.390625 
Q 23.390625 48.390625 19.1875 42.75 
Q 14.984375 37.109375 14.984375 27.296875 
Q 14.984375 17.484375 19.15625 11.84375 
Q 23.34375 6.203125 30.609375 6.203125 
Q 37.796875 6.203125 41.984375 11.859375 
Q 46.1875 17.53125 46.1875 27.296875 
Q 46.1875 37.015625 41.984375 42.703125 
Q 37.796875 48.390625 30.609375 48.390625 
z
M 30.609375 56 
Q 42.328125 56 49.015625 48.375 
Q 55.71875 40.765625 55.71875 27.296875 
Q 55.71875 13.875 49.015625 6.21875 
Q 42.328125 -1.421875 30.609375 -1.421875 
Q 18.84375 -1.421875 12.171875 6.21875 
Q 5.515625 13.875 5.515625 27.296875 
Q 5.515625 40.765625 12.171875 48.375 
Q 18.84375 56 30.609375 56 
z
" id="DejaVuSans-111"/>
      <path d="M 41.109375 46.296875 
Q 39.59375 47.171875 37.8125 47.578125 
Q 36.03125 48 33.890625 48 
Q 26.265625 48 22.1875 43.046875 
Q 18.109375 38.09375 18.109375 28.8125 
L 18.109375 0 
L 9.078125 0 
L 9.078125 54.6875 
L 18.109375 54.6875 
L 18.109375 46.1875 
Q 20.953125 51.171875 25.484375 53.578125 
Q 30.03125 56 36.53125 56 
Q 37.453125 56 38.578125 55.875 
Q 39.703125 55.765625 41.0625 55.515625 
z
" id="DejaVuSans-114"/>
      <path d="M 37.109375 75.984375 
L 37.109375 68.5 
L 28.515625 68.5 
Q 23.6875 68.5 21.796875 66.546875 
Q 19.921875 64.59375 19.921875 59.515625 
L 19.921875 54.6875 
L 34.71875 54.6875 
L 34.71875 47.703125 
L 19.921875 47.703125 
L 19.921875 0 
L 10.890625 0 
L 10.890625 47.703125 
L 2.296875 47.703125 
L 2.296875 54.6875 
L 10.890625 54.6875 
L 10.890625 58.5 
Q 10.890625 67.625 15.140625 71.796875 
Q 19.390625 75.984375 28.609375 75.984375 
z
" id="DejaVuSans-102"/>
     </defs>
     <g transform="translate(30.230875 166.005)rotate(-90)scale(0.144 -0.144)">
      <use xlink:href="#DejaVuSans-65"/>
      <use x="68.330078" xlink:href="#DejaVuSans-118"/>
      <use x="127.509766" xlink:href="#DejaVuSans-103"/>
      <use x="190.986328" xlink:href="#DejaVuSans-46"/>
      <use x="222.773438" xlink:href="#DejaVuSans-32"/>
      <use x="254.560547" xlink:href="#DejaVuSans-67"/>
      <use x="324.384766" xlink:href="#DejaVuSans-111"/>
      <use x="385.566406" xlink:href="#DejaVuSans-114"/>
      <use x="426.664062" xlink:href="#DejaVuSans-114"/>
      <use x="467.636719" xlink:href="#DejaVuSans-46"/>
      <use x="499.423828" xlink:href="#DejaVuSans-32"/>
      <use x="531.210938" xlink:href="#DejaVuSans-67"/>
      <use x="601.035156" xlink:href="#DejaVuSans-111"/>
      <use x="662.216797" xlink:href="#DejaVuSans-101"/>
      <use x="723.740234" xlink:href="#DejaVuSans-102"/>
      <use x="758.835938" xlink:href="#DejaVuSans-46"/>
     </g>
    </g>
   </g>
   <g id="line2d_12">
    <path clip-path="url(#p93d74b09d8)" d="M 83.049796 119.524392 
L 85.099592 119.224125 
L 87.149388 102.852782 
L 89.199184 108.359153 
L 91.24898 119.176101 
L 93.298776 119.176101 
M 99.448163 123.575475 
L 101.497959 95.303488 
L 103.547755 116.475044 
L 105.597551 116.392319 
L 107.647347 116.115945 
M 113.796735 119.176101 
L 115.846531 93.821697 
L 117.896327 135.987144 
L 119.946122 125.523237 
L 121.995918 119.176101 
M 128.145306 119.176101 
L 130.195102 98.9266 
L 132.244898 102.232545 
L 134.294694 95.011618 
L 136.34449 106.23893 
L 138.394286 95.599773 
L 140.444082 122.526578 
L 142.493878 119.176101 
L 144.543673 141.429627 
M 156.842449 119.176101 
L 158.892245 94.00894 
L 160.942041 85.092291 
M 171.19102 119.176101 
L 175.290612 119.176101 
L 177.340408 89.225497 
L 179.390204 99.096666 
L 181.44 105.156662 
L 183.489796 119.176101 
L 185.539592 119.176101 
L 187.589388 66.320577 
L 189.639184 136.150278 
M 195.788571 70.72696 
L 197.838367 119.176101 
L 199.888163 64.349523 
L 201.937959 121.210027 
L 203.987755 113.924059 
L 206.037551 115.055728 
L 208.087347 74.66367 
L 210.137143 104.227819 
L 212.186939 90.143517 
L 214.236735 119.468956 
L 216.286531 119.176101 
L 220.386122 119.176101 
L 222.435918 130.302864 
L 224.485714 126.694398 
L 226.53551 109.827087 
L 228.585306 113.9243 
L 230.635102 100.04922 
L 232.684898 119.176101 
L 234.734694 119.701715 
L 236.78449 114.833736 
M 240.884082 119.176101 
L 247.033469 119.176101 
L 249.083265 120.48767 
L 251.133061 109.936158 
L 253.182857 100.005863 
M 257.282449 102.792931 
L 259.332245 99.874149 
L 261.382041 94.332535 
L 263.431837 123.174868 
L 265.481633 123.046715 
M 269.581224 119.176101 
L 271.63102 117.427313 
L 273.680816 92.06948 
L 275.730612 129.994556 
M 279.830204 90.555041 
L 281.88 119.176101 
M 285.979592 119.176101 
L 290.079184 119.176101 
L 292.12898 121.331212 
L 294.178776 119.176101 
L 298.278367 119.176101 
M 302.377959 119.176101 
L 304.427755 142.888187 
L 306.477551 192.24 
M 310.577143 110.271459 
L 312.626939 130.301363 
M 316.726531 119.176101 
L 318.776327 110.381349 
L 320.826122 119.176101 
M 324.925714 119.176101 
L 326.97551 93.990111 
L 329.025306 104.377431 
L 331.075102 105.518788 
L 333.124898 99.994867 
L 335.174694 88.454317 
M 339.274286 121.618744 
L 341.324082 115.754554 
L 343.373878 115.955575 
L 345.423673 113.389765 
L 347.473469 119.176101 
L 349.523265 108.043647 
M 353.622857 119.176101 
L 355.672653 80.259697 
L 357.722449 120.989641 
L 359.772245 121.20456 
M 363.871837 100.366175 
L 365.921633 110.664935 
L 367.971429 119.365378 
L 370.021224 110.997447 
L 372.07102 100.86756 
L 374.120816 115.842558 
L 376.170612 98.015046 
M 380.270204 119.176101 
L 386.419592 119.176101 
L 388.469388 106.983068 
L 390.519184 119.176101 
M 400.768163 123.626807 
L 402.817959 113.696734 
L 404.867755 119.176101 
L 406.917551 119.176101 
L 408.967347 122.6956 
L 411.017143 119.176101 
L 413.066939 119.176101 
M 429.465306 90.292216 
L 431.515102 99.632612 
L 433.564898 96.293049 
L 435.614694 91.96054 
L 437.66449 104.652832 
L 439.714286 93.303669 
L 441.764082 92.172878 
L 443.813878 98.956654 
L 445.863673 97.382146 
L 447.913469 94.772534 
L 449.963265 100.334712 
L 452.013061 87.324914 
L 454.062857 133.083543 
L 456.112653 99.72042 
L 458.162449 94.935819 
L 460.212245 95.104128 
L 462.262041 113.640327 
L 464.311837 90.896347 
L 466.361633 97.689772 
L 468.411429 91.803896 
L 470.461224 95.690704 
L 472.51102 89.549313 
L 474.560816 93.872867 
L 476.610612 93.753425 
L 478.660408 82.565786 
L 480.710204 97.996642 
L 482.76 101.913219 
L 484.809796 89.26591 
L 486.859592 108.312628 
L 488.909388 111.39 
L 490.959184 116.685316 
L 493.00898 98.45775 
L 495.058776 116.710154 
L 497.108571 103.304831 
L 499.158367 119.176101 
L 501.208163 119.176101 
L 503.257959 124.367075 
L 505.307755 77.158232 
L 507.357551 93.679902 
L 509.407347 108.69021 
L 511.457143 109.460575 
L 513.506939 88.183573 
L 515.556735 105.738656 
L 517.606531 126.215099 
L 519.656327 105.47771 
L 521.706122 110.489336 
L 523.755918 102.503328 
M 527.85551 119.176101 
L 529.905306 119.259632 
L 531.955102 95.41901 
L 534.004898 85.577854 
L 536.054694 93.328683 
L 538.10449 119.176101 
L 540.154286 109.411105 
L 542.204082 125.980052 
M 546.303673 126.036763 
L 548.353469 84.454749 
L 550.403265 82.716749 
L 552.453061 119.176101 
L 554.502857 103.972099 
L 556.552653 113.477072 
L 558.602449 120.368618 
L 560.652245 117.882499 
L 562.702041 123.665993 
L 564.751837 94.788455 
L 566.801633 119.176101 
L 568.851429 119.176101 
L 570.901224 125.029548 
L 572.95102 114.336541 
L 575.000816 101.910445 
M 579.100408 92.711901 
L 581.150204 119.833118 
L 581.150204 119.833118 
" style="fill:none;stroke:#0000ff;stroke-linecap:square;stroke-width:1.5;"/>
   </g>
   <g id="patch_3">
    <path d="M 81 192.24 
L 81 25.92 
" style="fill:none;stroke:#000000;stroke-linecap:square;stroke-linejoin:miter;stroke-width:0.8;"/>
   </g>
   <g id="patch_4">
    <path d="M 583.2 192.24 
L 583.2 25.92 
" style="fill:none;stroke:#000000;stroke-linecap:square;stroke-linejoin:miter;stroke-width:0.8;"/>
   </g>
   <g id="patch_5">
    <path d="M 81 192.24 
L 583.2 192.24 
" style="fill:none;stroke:#000000;stroke-linecap:square;stroke-linejoin:miter;stroke-width:0.8;"/>
   </g>
   <g id="patch_6">
    <path d="M 81 25.92 
L 583.2 25.92 
" style="fill:none;stroke:#000000;stroke-linecap:square;stroke-linejoin:miter;stroke-width:0.8;"/>
   </g>
   <g id="text_14">
    <!-- V1, Num Trials=10 All unstimulated trials -->
    <defs>
     <path d="M 28.609375 0 
L 0.78125 72.90625 
L 11.078125 72.90625 
L 34.1875 11.53125 
L 57.328125 72.90625 
L 67.578125 72.90625 
L 39.796875 0 
z
" id="DejaVuSans-86"/>
     <path d="M 11.71875 12.40625 
L 22.015625 12.40625 
L 22.015625 4 
L 14.015625 -11.625 
L 7.71875 -11.625 
L 11.71875 4 
z
" id="DejaVuSans-44"/>
     <path d="M 9.8125 72.90625 
L 23.09375 72.90625 
L 55.421875 11.921875 
L 55.421875 72.90625 
L 64.984375 72.90625 
L 64.984375 0 
L 51.703125 0 
L 19.390625 60.984375 
L 19.390625 0 
L 9.8125 0 
z
" id="DejaVuSans-78"/>
     <path d="M 8.5 21.578125 
L 8.5 54.6875 
L 17.484375 54.6875 
L 17.484375 21.921875 
Q 17.484375 14.15625 20.5 10.265625 
Q 23.53125 6.390625 29.59375 6.390625 
Q 36.859375 6.390625 41.078125 11.03125 
Q 45.3125 15.671875 45.3125 23.6875 
L 45.3125 54.6875 
L 54.296875 54.6875 
L 54.296875 0 
L 45.3125 0 
L 45.3125 8.40625 
Q 42.046875 3.421875 37.71875 1 
Q 33.40625 -1.421875 27.6875 -1.421875 
Q 18.265625 -1.421875 13.375 4.4375 
Q 8.5 10.296875 8.5 21.578125 
z
M 31.109375 56 
z
" id="DejaVuSans-117"/>
     <path d="M 34.28125 27.484375 
Q 23.390625 27.484375 19.1875 25 
Q 14.984375 22.515625 14.984375 16.5 
Q 14.984375 11.71875 18.140625 8.90625 
Q 21.296875 6.109375 26.703125 6.109375 
Q 34.1875 6.109375 38.703125 11.40625 
Q 43.21875 16.703125 43.21875 25.484375 
L 43.21875 27.484375 
z
M 52.203125 31.203125 
L 52.203125 0 
L 43.21875 0 
L 43.21875 8.296875 
Q 40.140625 3.328125 35.546875 0.953125 
Q 30.953125 -1.421875 24.3125 -1.421875 
Q 15.921875 -1.421875 10.953125 3.296875 
Q 6 8.015625 6 15.921875 
Q 6 25.140625 12.171875 29.828125 
Q 18.359375 34.515625 30.609375 34.515625 
L 43.21875 34.515625 
L 43.21875 35.40625 
Q 43.21875 41.609375 39.140625 45 
Q 35.0625 48.390625 27.6875 48.390625 
Q 23 48.390625 18.546875 47.265625 
Q 14.109375 46.140625 10.015625 43.890625 
L 10.015625 52.203125 
Q 14.9375 54.109375 19.578125 55.046875 
Q 24.21875 56 28.609375 56 
Q 40.484375 56 46.34375 49.84375 
Q 52.203125 43.703125 52.203125 31.203125 
z
" id="DejaVuSans-97"/>
     <path d="M 9.421875 75.984375 
L 18.40625 75.984375 
L 18.40625 0 
L 9.421875 0 
z
" id="DejaVuSans-108"/>
     <path d="M 10.59375 45.40625 
L 73.1875 45.40625 
L 73.1875 37.203125 
L 10.59375 37.203125 
z
M 10.59375 25.484375 
L 73.1875 25.484375 
L 73.1875 17.1875 
L 10.59375 17.1875 
z
" id="DejaVuSans-61"/>
     <path d="M 54.890625 33.015625 
L 54.890625 0 
L 45.90625 0 
L 45.90625 32.71875 
Q 45.90625 40.484375 42.875 44.328125 
Q 39.84375 48.1875 33.796875 48.1875 
Q 26.515625 48.1875 22.3125 43.546875 
Q 18.109375 38.921875 18.109375 30.90625 
L 18.109375 0 
L 9.078125 0 
L 9.078125 54.6875 
L 18.109375 54.6875 
L 18.109375 46.1875 
Q 21.34375 51.125 25.703125 53.5625 
Q 30.078125 56 35.796875 56 
Q 45.21875 56 50.046875 50.171875 
Q 54.890625 44.34375 54.890625 33.015625 
z
" id="DejaVuSans-110"/>
     <path d="M 18.3125 70.21875 
L 18.3125 54.6875 
L 36.8125 54.6875 
L 36.8125 47.703125 
L 18.3125 47.703125 
L 18.3125 18.015625 
Q 18.3125 11.328125 20.140625 9.421875 
Q 21.96875 7.515625 27.59375 7.515625 
L 36.8125 7.515625 
L 36.8125 0 
L 27.59375 0 
Q 17.1875 0 13.234375 3.875 
Q 9.28125 7.765625 9.28125 18.015625 
L 9.28125 47.703125 
L 2.6875 47.703125 
L 2.6875 54.6875 
L 9.28125 54.6875 
L 9.28125 70.21875 
z
" id="DejaVuSans-116"/>
     <path d="M 45.40625 46.390625 
L 45.40625 75.984375 
L 54.390625 75.984375 
L 54.390625 0 
L 45.40625 0 
L 45.40625 8.203125 
Q 42.578125 3.328125 38.25 0.953125 
Q 33.9375 -1.421875 27.875 -1.421875 
Q 17.96875 -1.421875 11.734375 6.484375 
Q 5.515625 14.40625 5.515625 27.296875 
Q 5.515625 40.1875 11.734375 48.09375 
Q 17.96875 56 27.875 56 
Q 33.9375 56 38.25 53.625 
Q 42.578125 51.265625 45.40625 46.390625 
z
M 14.796875 27.296875 
Q 14.796875 17.390625 18.875 11.75 
Q 22.953125 6.109375 30.078125 6.109375 
Q 37.203125 6.109375 41.296875 11.75 
Q 45.40625 17.390625 45.40625 27.296875 
Q 45.40625 37.203125 41.296875 42.84375 
Q 37.203125 48.484375 30.078125 48.484375 
Q 22.953125 48.484375 18.875 42.84375 
Q 14.796875 37.203125 14.796875 27.296875 
z
" id="DejaVuSans-100"/>
    </defs>
    <g transform="translate(207.6975 19.92)scale(0.12 -0.12)">
     <use xlink:href="#DejaVuSans-86"/>
     <use x="68.408203" xlink:href="#DejaVuSans-49"/>
     <use x="132.03125" xlink:href="#DejaVuSans-44"/>
     <use x="163.818359" xlink:href="#DejaVuSans-32"/>
     <use x="195.605469" xlink:href="#DejaVuSans-78"/>
     <use x="270.410156" xlink:href="#DejaVuSans-117"/>
     <use x="333.789062" xlink:href="#DejaVuSans-109"/>
     <use x="431.201172" xlink:href="#DejaVuSans-32"/>
     <use x="462.988281" xlink:href="#DejaVuSans-84"/>
     <use x="523.853516" xlink:href="#DejaVuSans-114"/>
     <use x="564.966797" xlink:href="#DejaVuSans-105"/>
     <use x="592.75" xlink:href="#DejaVuSans-97"/>
     <use x="654.029297" xlink:href="#DejaVuSans-108"/>
     <use x="681.8125" xlink:href="#DejaVuSans-115"/>
     <use x="733.912109" xlink:href="#DejaVuSans-61"/>
     <use x="817.701172" xlink:href="#DejaVuSans-49"/>
     <use x="881.324219" xlink:href="#DejaVuSans-48"/>
     <use x="944.947266" xlink:href="#DejaVuSans-32"/>
     <use x="976.734375" xlink:href="#DejaVuSans-65"/>
     <use x="1045.142578" xlink:href="#DejaVuSans-108"/>
     <use x="1072.925781" xlink:href="#DejaVuSans-108"/>
     <use x="1100.708984" xlink:href="#DejaVuSans-32"/>
     <use x="1132.496094" xlink:href="#DejaVuSans-117"/>
     <use x="1195.875" xlink:href="#DejaVuSans-110"/>
     <use x="1259.253906" xlink:href="#DejaVuSans-115"/>
     <use x="1311.353516" xlink:href="#DejaVuSans-116"/>
     <use x="1350.5625" xlink:href="#DejaVuSans-105"/>
     <use x="1378.345703" xlink:href="#DejaVuSans-109"/>
     <use x="1475.757812" xlink:href="#DejaVuSans-117"/>
     <use x="1539.136719" xlink:href="#DejaVuSans-108"/>
     <use x="1566.919922" xlink:href="#DejaVuSans-97"/>
     <use x="1628.199219" xlink:href="#DejaVuSans-116"/>
     <use x="1667.408203" xlink:href="#DejaVuSans-101"/>
     <use x="1728.931641" xlink:href="#DejaVuSans-100"/>
     <use x="1792.408203" xlink:href="#DejaVuSans-32"/>
     <use x="1824.195312" xlink:href="#DejaVuSans-116"/>
     <use x="1863.404297" xlink:href="#DejaVuSans-114"/>
     <use x="1904.517578" xlink:href="#DejaVuSans-105"/>
     <use x="1932.300781" xlink:href="#DejaVuSans-97"/>
     <use x="1993.580078" xlink:href="#DejaVuSans-108"/>
     <use x="2021.363281" xlink:href="#DejaVuSans-115"/>
    </g>
   </g>
   <g id="legend_1">
    <g id="patch_7">
     <path d="M 476.469375 70.7475 
L 574.8 70.7475 
Q 577.2 70.7475 577.2 68.3475 
L 577.2 34.32 
Q 577.2 31.92 574.8 31.92 
L 476.469375 31.92 
Q 474.069375 31.92 474.069375 34.32 
L 474.069375 68.3475 
Q 474.069375 70.7475 476.469375 70.7475 
z
" style="fill:#ffffff;opacity:0.8;stroke:#cccccc;stroke-linejoin:miter;"/>
    </g>
    <g id="line2d_13">
     <path d="M 478.869375 41.638125 
L 502.869375 41.638125 
" style="fill:none;stroke:#0000ff;stroke-linecap:square;stroke-width:1.5;"/>
    </g>
    <g id="line2d_14"/>
    <g id="text_15">
     <!-- Avg. Corr. -->
     <g transform="translate(512.469375 45.838125)scale(0.12 -0.12)">
      <use xlink:href="#DejaVuSans-65"/>
      <use x="68.330078" xlink:href="#DejaVuSans-118"/>
      <use x="127.509766" xlink:href="#DejaVuSans-103"/>
      <use x="190.986328" xlink:href="#DejaVuSans-46"/>
      <use x="222.773438" xlink:href="#DejaVuSans-32"/>
      <use x="254.560547" xlink:href="#DejaVuSans-67"/>
      <use x="324.384766" xlink:href="#DejaVuSans-111"/>
      <use x="385.566406" xlink:href="#DejaVuSans-114"/>
      <use x="426.664062" xlink:href="#DejaVuSans-114"/>
      <use x="467.636719" xlink:href="#DejaVuSans-46"/>
     </g>
    </g>
    <g id="patch_8">
     <path d="M 478.869375 63.451875 
L 502.869375 63.451875 
L 502.869375 55.051875 
L 478.869375 55.051875 
z
" style="fill:#0000ff;opacity:0.3;stroke:#0000ff;stroke-linejoin:miter;"/>
    </g>
    <g id="text_16">
     <!-- Std. Err. -->
     <defs>
      <path d="M 53.515625 70.515625 
L 53.515625 60.890625 
Q 47.90625 63.578125 42.921875 64.890625 
Q 37.9375 66.21875 33.296875 66.21875 
Q 25.25 66.21875 20.875 63.09375 
Q 16.5 59.96875 16.5 54.203125 
Q 16.5 49.359375 19.40625 46.890625 
Q 22.3125 44.4375 30.421875 42.921875 
L 36.375 41.703125 
Q 47.40625 39.59375 52.65625 34.296875 
Q 57.90625 29 57.90625 20.125 
Q 57.90625 9.515625 50.796875 4.046875 
Q 43.703125 -1.421875 29.984375 -1.421875 
Q 24.8125 -1.421875 18.96875 -0.25 
Q 13.140625 0.921875 6.890625 3.21875 
L 6.890625 13.375 
Q 12.890625 10.015625 18.65625 8.296875 
Q 24.421875 6.59375 29.984375 6.59375 
Q 38.421875 6.59375 43.015625 9.90625 
Q 47.609375 13.234375 47.609375 19.390625 
Q 47.609375 24.75 44.3125 27.78125 
Q 41.015625 30.8125 33.5 32.328125 
L 27.484375 33.5 
Q 16.453125 35.6875 11.515625 40.375 
Q 6.59375 45.0625 6.59375 53.421875 
Q 6.59375 63.09375 13.40625 68.65625 
Q 20.21875 74.21875 32.171875 74.21875 
Q 37.3125 74.21875 42.625 73.28125 
Q 47.953125 72.359375 53.515625 70.515625 
z
" id="DejaVuSans-83"/>
      <path d="M 9.8125 72.90625 
L 55.90625 72.90625 
L 55.90625 64.59375 
L 19.671875 64.59375 
L 19.671875 43.015625 
L 54.390625 43.015625 
L 54.390625 34.71875 
L 19.671875 34.71875 
L 19.671875 8.296875 
L 56.78125 8.296875 
L 56.78125 0 
L 9.8125 0 
z
" id="DejaVuSans-69"/>
     </defs>
     <g transform="translate(512.469375 63.451875)scale(0.12 -0.12)">
      <use xlink:href="#DejaVuSans-83"/>
      <use x="63.476562" xlink:href="#DejaVuSans-116"/>
      <use x="102.685547" xlink:href="#DejaVuSans-100"/>
      <use x="166.162109" xlink:href="#DejaVuSans-46"/>
      <use x="197.949219" xlink:href="#DejaVuSans-32"/>
      <use x="229.736328" xlink:href="#DejaVuSans-69"/>
      <use x="292.919922" xlink:href="#DejaVuSans-114"/>
      <use x="334.017578" xlink:href="#DejaVuSans-114"/>
      <use x="374.990234" xlink:href="#DejaVuSans-46"/>
     </g>
    </g>
   </g>
  </g>
 </g>
 <defs>
  <clipPath id="p93d74b09d8">
   <rect height="166.32" width="502.2" x="81" y="25.92"/>
  </clipPath>
 </defs>
</svg>
