<?xml version="1.0" encoding="utf-8" standalone="no"?>
<!DOCTYPE svg PUBLIC "-//W3C//DTD SVG 1.1//EN"
  "http://www.w3.org/Graphics/SVG/1.1/DTD/svg11.dtd">
<!-- Created with matplotlib (https://matplotlib.org/) -->
<svg height="216pt" version="1.1" viewBox="0 0 648 216" width="648pt" xmlns="http://www.w3.org/2000/svg" xmlns:xlink="http://www.w3.org/1999/xlink">
 <defs>
  <style type="text/css">
*{stroke-linecap:butt;stroke-linejoin:round;}
  </style>
 </defs>
 <g id="figure_1">
  <g id="patch_1">
   <path d="M 0 216 
L 648 216 
L 648 0 
L 0 0 
z
" style="fill:#ffffff;"/>
  </g>
  <g id="axes_1">
   <g id="patch_2">
    <path d="M 28.48 170.44 
L 634.248529 170.44 
L 634.248529 27.6 
L 28.48 27.6 
z
" style="fill:#ffffff;"/>
   </g>
   <g id="PolyCollection_1">
    <defs>
     <path d="M 133.400693 -45.56 
L 133.400693 -188.4 
L 430.346051 -188.4 
L 430.346051 -45.56 
L 430.346051 -45.56 
L 133.400693 -45.56 
z
" id="m2aedda5a77" style="stroke:#808080;stroke-opacity:0.3;"/>
    </defs>
    <g clip-path="url(#p34e1410df1)">
     <use style="fill:#808080;fill-opacity:0.3;stroke:#808080;stroke-opacity:0.3;" x="0" xlink:href="#m2aedda5a77" y="216"/>
    </g>
   </g>
   <g id="matplotlib.axis_1">
    <g id="xtick_1">
     <g id="line2d_1">
      <defs>
       <path d="M 0 0 
L 0 3.5 
" id="m234c2be15f" style="stroke:#000000;stroke-width:0.8;"/>
      </defs>
      <g>
       <use style="stroke:#000000;stroke-width:0.8;" x="34.418907" xlink:href="#m234c2be15f" y="170.44"/>
      </g>
     </g>
     <g id="text_1">
      <!-- −0.5 -->
      <defs>
       <path d="M 10.59375 35.5 
L 73.1875 35.5 
L 73.1875 27.203125 
L 10.59375 27.203125 
z
" id="DejaVuSans-8722"/>
       <path d="M 31.78125 66.40625 
Q 24.171875 66.40625 20.328125 58.90625 
Q 16.5 51.421875 16.5 36.375 
Q 16.5 21.390625 20.328125 13.890625 
Q 24.171875 6.390625 31.78125 6.390625 
Q 39.453125 6.390625 43.28125 13.890625 
Q 47.125 21.390625 47.125 36.375 
Q 47.125 51.421875 43.28125 58.90625 
Q 39.453125 66.40625 31.78125 66.40625 
z
M 31.78125 74.21875 
Q 44.046875 74.21875 50.515625 64.515625 
Q 56.984375 54.828125 56.984375 36.375 
Q 56.984375 17.96875 50.515625 8.265625 
Q 44.046875 -1.421875 31.78125 -1.421875 
Q 19.53125 -1.421875 13.0625 8.265625 
Q 6.59375 17.96875 6.59375 36.375 
Q 6.59375 54.828125 13.0625 64.515625 
Q 19.53125 74.21875 31.78125 74.21875 
z
" id="DejaVuSans-48"/>
       <path d="M 10.6875 12.40625 
L 21 12.40625 
L 21 0 
L 10.6875 0 
z
" id="DejaVuSans-46"/>
       <path d="M 10.796875 72.90625 
L 49.515625 72.90625 
L 49.515625 64.59375 
L 19.828125 64.59375 
L 19.828125 46.734375 
Q 21.96875 47.46875 24.109375 47.828125 
Q 26.265625 48.1875 28.421875 48.1875 
Q 40.625 48.1875 47.75 41.5 
Q 54.890625 34.8125 54.890625 23.390625 
Q 54.890625 11.625 47.5625 5.09375 
Q 40.234375 -1.421875 26.90625 -1.421875 
Q 22.3125 -1.421875 17.546875 -0.640625 
Q 12.796875 0.140625 7.71875 1.703125 
L 7.71875 11.625 
Q 12.109375 9.234375 16.796875 8.0625 
Q 21.484375 6.890625 26.703125 6.890625 
Q 35.15625 6.890625 40.078125 11.328125 
Q 45.015625 15.765625 45.015625 23.390625 
Q 45.015625 31 40.078125 35.4375 
Q 35.15625 39.890625 26.703125 39.890625 
Q 22.75 39.890625 18.8125 39.015625 
Q 14.890625 38.140625 10.796875 36.28125 
z
" id="DejaVuSans-53"/>
      </defs>
      <g transform="translate(22.277501 185.038437)scale(0.1 -0.1)">
       <use xlink:href="#DejaVuSans-8722"/>
       <use x="83.789062" xlink:href="#DejaVuSans-48"/>
       <use x="147.412109" xlink:href="#DejaVuSans-46"/>
       <use x="179.199219" xlink:href="#DejaVuSans-53"/>
      </g>
     </g>
    </g>
    <g id="xtick_2">
     <g id="line2d_2">
      <g>
       <use style="stroke:#000000;stroke-width:0.8;" x="133.400693" xlink:href="#m234c2be15f" y="170.44"/>
      </g>
     </g>
     <g id="text_2">
      <!-- 0.0 -->
      <g transform="translate(125.449131 185.038437)scale(0.1 -0.1)">
       <use xlink:href="#DejaVuSans-48"/>
       <use x="63.623047" xlink:href="#DejaVuSans-46"/>
       <use x="95.410156" xlink:href="#DejaVuSans-48"/>
      </g>
     </g>
    </g>
    <g id="xtick_3">
     <g id="line2d_3">
      <g>
       <use style="stroke:#000000;stroke-width:0.8;" x="232.382479" xlink:href="#m234c2be15f" y="170.44"/>
      </g>
     </g>
     <g id="text_3">
      <!-- 0.5 -->
      <g transform="translate(224.430916 185.038437)scale(0.1 -0.1)">
       <use xlink:href="#DejaVuSans-48"/>
       <use x="63.623047" xlink:href="#DejaVuSans-46"/>
       <use x="95.410156" xlink:href="#DejaVuSans-53"/>
      </g>
     </g>
    </g>
    <g id="xtick_4">
     <g id="line2d_4">
      <g>
       <use style="stroke:#000000;stroke-width:0.8;" x="331.364265" xlink:href="#m234c2be15f" y="170.44"/>
      </g>
     </g>
     <g id="text_4">
      <!-- 1.0 -->
      <defs>
       <path d="M 12.40625 8.296875 
L 28.515625 8.296875 
L 28.515625 63.921875 
L 10.984375 60.40625 
L 10.984375 69.390625 
L 28.421875 72.90625 
L 38.28125 72.90625 
L 38.28125 8.296875 
L 54.390625 8.296875 
L 54.390625 0 
L 12.40625 0 
z
" id="DejaVuSans-49"/>
      </defs>
      <g transform="translate(323.412702 185.038437)scale(0.1 -0.1)">
       <use xlink:href="#DejaVuSans-49"/>
       <use x="63.623047" xlink:href="#DejaVuSans-46"/>
       <use x="95.410156" xlink:href="#DejaVuSans-48"/>
      </g>
     </g>
    </g>
    <g id="xtick_5">
     <g id="line2d_5">
      <g>
       <use style="stroke:#000000;stroke-width:0.8;" x="430.346051" xlink:href="#m234c2be15f" y="170.44"/>
      </g>
     </g>
     <g id="text_5">
      <!-- 1.5 -->
      <g transform="translate(422.394488 185.038437)scale(0.1 -0.1)">
       <use xlink:href="#DejaVuSans-49"/>
       <use x="63.623047" xlink:href="#DejaVuSans-46"/>
       <use x="95.410156" xlink:href="#DejaVuSans-53"/>
      </g>
     </g>
    </g>
    <g id="xtick_6">
     <g id="line2d_6">
      <g>
       <use style="stroke:#000000;stroke-width:0.8;" x="529.327836" xlink:href="#m234c2be15f" y="170.44"/>
      </g>
     </g>
     <g id="text_6">
      <!-- 2.0 -->
      <defs>
       <path d="M 19.1875 8.296875 
L 53.609375 8.296875 
L 53.609375 0 
L 7.328125 0 
L 7.328125 8.296875 
Q 12.9375 14.109375 22.625 23.890625 
Q 32.328125 33.6875 34.8125 36.53125 
Q 39.546875 41.84375 41.421875 45.53125 
Q 43.3125 49.21875 43.3125 52.78125 
Q 43.3125 58.59375 39.234375 62.25 
Q 35.15625 65.921875 28.609375 65.921875 
Q 23.96875 65.921875 18.8125 64.3125 
Q 13.671875 62.703125 7.8125 59.421875 
L 7.8125 69.390625 
Q 13.765625 71.78125 18.9375 73 
Q 24.125 74.21875 28.421875 74.21875 
Q 39.75 74.21875 46.484375 68.546875 
Q 53.21875 62.890625 53.21875 53.421875 
Q 53.21875 48.921875 51.53125 44.890625 
Q 49.859375 40.875 45.40625 35.40625 
Q 44.1875 33.984375 37.640625 27.21875 
Q 31.109375 20.453125 19.1875 8.296875 
z
" id="DejaVuSans-50"/>
      </defs>
      <g transform="translate(521.376274 185.038437)scale(0.1 -0.1)">
       <use xlink:href="#DejaVuSans-50"/>
       <use x="63.623047" xlink:href="#DejaVuSans-46"/>
       <use x="95.410156" xlink:href="#DejaVuSans-48"/>
      </g>
     </g>
    </g>
    <g id="xtick_7">
     <g id="line2d_7">
      <g>
       <use style="stroke:#000000;stroke-width:0.8;" x="628.309622" xlink:href="#m234c2be15f" y="170.44"/>
      </g>
     </g>
     <g id="text_7">
      <!-- 2.5 -->
      <g transform="translate(620.35806 185.038437)scale(0.1 -0.1)">
       <use xlink:href="#DejaVuSans-50"/>
       <use x="63.623047" xlink:href="#DejaVuSans-46"/>
       <use x="95.410156" xlink:href="#DejaVuSans-53"/>
      </g>
     </g>
    </g>
    <g id="text_8">
     <!-- Time (s) -->
     <defs>
      <path d="M -0.296875 72.90625 
L 61.375 72.90625 
L 61.375 64.59375 
L 35.5 64.59375 
L 35.5 0 
L 25.59375 0 
L 25.59375 64.59375 
L -0.296875 64.59375 
z
" id="DejaVuSans-84"/>
      <path d="M 9.421875 54.6875 
L 18.40625 54.6875 
L 18.40625 0 
L 9.421875 0 
z
M 9.421875 75.984375 
L 18.40625 75.984375 
L 18.40625 64.59375 
L 9.421875 64.59375 
z
" id="DejaVuSans-105"/>
      <path d="M 52 44.1875 
Q 55.375 50.25 60.0625 53.125 
Q 64.75 56 71.09375 56 
Q 79.640625 56 84.28125 50.015625 
Q 88.921875 44.046875 88.921875 33.015625 
L 88.921875 0 
L 79.890625 0 
L 79.890625 32.71875 
Q 79.890625 40.578125 77.09375 44.375 
Q 74.3125 48.1875 68.609375 48.1875 
Q 61.625 48.1875 57.5625 43.546875 
Q 53.515625 38.921875 53.515625 30.90625 
L 53.515625 0 
L 44.484375 0 
L 44.484375 32.71875 
Q 44.484375 40.625 41.703125 44.40625 
Q 38.921875 48.1875 33.109375 48.1875 
Q 26.21875 48.1875 22.15625 43.53125 
Q 18.109375 38.875 18.109375 30.90625 
L 18.109375 0 
L 9.078125 0 
L 9.078125 54.6875 
L 18.109375 54.6875 
L 18.109375 46.1875 
Q 21.1875 51.21875 25.484375 53.609375 
Q 29.78125 56 35.6875 56 
Q 41.65625 56 45.828125 52.96875 
Q 50 49.953125 52 44.1875 
z
" id="DejaVuSans-109"/>
      <path d="M 56.203125 29.59375 
L 56.203125 25.203125 
L 14.890625 25.203125 
Q 15.484375 15.921875 20.484375 11.0625 
Q 25.484375 6.203125 34.421875 6.203125 
Q 39.59375 6.203125 44.453125 7.46875 
Q 49.3125 8.734375 54.109375 11.28125 
L 54.109375 2.78125 
Q 49.265625 0.734375 44.1875 -0.34375 
Q 39.109375 -1.421875 33.890625 -1.421875 
Q 20.796875 -1.421875 13.15625 6.1875 
Q 5.515625 13.8125 5.515625 26.8125 
Q 5.515625 40.234375 12.765625 48.109375 
Q 20.015625 56 32.328125 56 
Q 43.359375 56 49.78125 48.890625 
Q 56.203125 41.796875 56.203125 29.59375 
z
M 47.21875 32.234375 
Q 47.125 39.59375 43.09375 43.984375 
Q 39.0625 48.390625 32.421875 48.390625 
Q 24.90625 48.390625 20.390625 44.140625 
Q 15.875 39.890625 15.1875 32.171875 
z
" id="DejaVuSans-101"/>
      <path id="DejaVuSans-32"/>
      <path d="M 31 75.875 
Q 24.46875 64.65625 21.28125 53.65625 
Q 18.109375 42.671875 18.109375 31.390625 
Q 18.109375 20.125 21.3125 9.0625 
Q 24.515625 -2 31 -13.1875 
L 23.1875 -13.1875 
Q 15.875 -1.703125 12.234375 9.375 
Q 8.59375 20.453125 8.59375 31.390625 
Q 8.59375 42.28125 12.203125 53.3125 
Q 15.828125 64.359375 23.1875 75.875 
z
" id="DejaVuSans-40"/>
      <path d="M 44.28125 53.078125 
L 44.28125 44.578125 
Q 40.484375 46.53125 36.375 47.5 
Q 32.28125 48.484375 27.875 48.484375 
Q 21.1875 48.484375 17.84375 46.4375 
Q 14.5 44.390625 14.5 40.28125 
Q 14.5 37.15625 16.890625 35.375 
Q 19.28125 33.59375 26.515625 31.984375 
L 29.59375 31.296875 
Q 39.15625 29.25 43.1875 25.515625 
Q 47.21875 21.78125 47.21875 15.09375 
Q 47.21875 7.46875 41.1875 3.015625 
Q 35.15625 -1.421875 24.609375 -1.421875 
Q 20.21875 -1.421875 15.453125 -0.5625 
Q 10.6875 0.296875 5.421875 2 
L 5.421875 11.28125 
Q 10.40625 8.6875 15.234375 7.390625 
Q 20.0625 6.109375 24.8125 6.109375 
Q 31.15625 6.109375 34.5625 8.28125 
Q 37.984375 10.453125 37.984375 14.40625 
Q 37.984375 18.0625 35.515625 20.015625 
Q 33.0625 21.96875 24.703125 23.78125 
L 21.578125 24.515625 
Q 13.234375 26.265625 9.515625 29.90625 
Q 5.8125 33.546875 5.8125 39.890625 
Q 5.8125 47.609375 11.28125 51.796875 
Q 16.75 56 26.8125 56 
Q 31.78125 56 36.171875 55.265625 
Q 40.578125 54.546875 44.28125 53.078125 
z
" id="DejaVuSans-115"/>
      <path d="M 8.015625 75.875 
L 15.828125 75.875 
Q 23.140625 64.359375 26.78125 53.3125 
Q 30.421875 42.28125 30.421875 31.390625 
Q 30.421875 20.453125 26.78125 9.375 
Q 23.140625 -1.703125 15.828125 -13.1875 
L 8.015625 -13.1875 
Q 14.5 -2 17.703125 9.0625 
Q 20.90625 20.125 20.90625 31.390625 
Q 20.90625 42.671875 17.703125 53.65625 
Q 14.5 64.65625 8.015625 75.875 
z
" id="DejaVuSans-41"/>
     </defs>
     <g transform="translate(301.869015 202.059875)scale(0.144 -0.144)">
      <use xlink:href="#DejaVuSans-84"/>
      <use x="61.037109" xlink:href="#DejaVuSans-105"/>
      <use x="88.820312" xlink:href="#DejaVuSans-109"/>
      <use x="186.232422" xlink:href="#DejaVuSans-101"/>
      <use x="247.755859" xlink:href="#DejaVuSans-32"/>
      <use x="279.542969" xlink:href="#DejaVuSans-40"/>
      <use x="318.556641" xlink:href="#DejaVuSans-115"/>
      <use x="370.65625" xlink:href="#DejaVuSans-41"/>
     </g>
    </g>
   </g>
   <g id="matplotlib.axis_2">
    <g id="text_9">
     <!-- Cells -->
     <defs>
      <path d="M 64.40625 67.28125 
L 64.40625 56.890625 
Q 59.421875 61.53125 53.78125 63.8125 
Q 48.140625 66.109375 41.796875 66.109375 
Q 29.296875 66.109375 22.65625 58.46875 
Q 16.015625 50.828125 16.015625 36.375 
Q 16.015625 21.96875 22.65625 14.328125 
Q 29.296875 6.6875 41.796875 6.6875 
Q 48.140625 6.6875 53.78125 8.984375 
Q 59.421875 11.28125 64.40625 15.921875 
L 64.40625 5.609375 
Q 59.234375 2.09375 53.4375 0.328125 
Q 47.65625 -1.421875 41.21875 -1.421875 
Q 24.65625 -1.421875 15.125 8.703125 
Q 5.609375 18.84375 5.609375 36.375 
Q 5.609375 53.953125 15.125 64.078125 
Q 24.65625 74.21875 41.21875 74.21875 
Q 47.75 74.21875 53.53125 72.484375 
Q 59.328125 70.75 64.40625 67.28125 
z
" id="DejaVuSans-67"/>
      <path d="M 9.421875 75.984375 
L 18.40625 75.984375 
L 18.40625 0 
L 9.421875 0 
z
" id="DejaVuSans-108"/>
     </defs>
     <g transform="translate(21.48525 116.229125)rotate(-90)scale(0.144 -0.144)">
      <use xlink:href="#DejaVuSans-67"/>
      <use x="69.824219" xlink:href="#DejaVuSans-101"/>
      <use x="131.347656" xlink:href="#DejaVuSans-108"/>
      <use x="159.130859" xlink:href="#DejaVuSans-108"/>
      <use x="186.914062" xlink:href="#DejaVuSans-115"/>
     </g>
    </g>
   </g>
   <g id="LineCollection_1">
    <path clip-path="url(#p34e1410df1)" d="M 76.281604 170.44 
L 76.281604 166.238824 
" style="fill:none;stroke:#000000;stroke-width:1.5;"/>
    <path clip-path="url(#p34e1410df1)" d="M 88.449765 170.44 
L 88.449765 166.238824 
" style="fill:none;stroke:#000000;stroke-width:1.5;"/>
   </g>
   <g id="LineCollection_2">
    <path clip-path="url(#p34e1410df1)" d="M 274.568516 153.635294 
L 274.568516 149.434118 
" style="fill:none;stroke:#000000;stroke-width:1.5;"/>
    <path clip-path="url(#p34e1410df1)" d="M 275.584729 153.635294 
L 275.584729 149.434118 
" style="fill:none;stroke:#000000;stroke-width:1.5;"/>
    <path clip-path="url(#p34e1410df1)" d="M 279.299845 153.635294 
L 279.299845 149.434118 
" style="fill:none;stroke:#000000;stroke-width:1.5;"/>
    <path clip-path="url(#p34e1410df1)" d="M 282.407873 153.635294 
L 282.407873 149.434118 
" style="fill:none;stroke:#000000;stroke-width:1.5;"/>
    <path clip-path="url(#p34e1410df1)" d="M 288.439164 153.635294 
L 288.439164 149.434118 
" style="fill:none;stroke:#000000;stroke-width:1.5;"/>
    <path clip-path="url(#p34e1410df1)" d="M 343.611611 153.635294 
L 343.611611 149.434118 
" style="fill:none;stroke:#000000;stroke-width:1.5;"/>
    <path clip-path="url(#p34e1410df1)" d="M 356.294477 153.635294 
L 356.294477 149.434118 
" style="fill:none;stroke:#000000;stroke-width:1.5;"/>
    <path clip-path="url(#p34e1410df1)" d="M 379.37703 153.635294 
L 379.37703 149.434118 
" style="fill:none;stroke:#000000;stroke-width:1.5;"/>
    <path clip-path="url(#p34e1410df1)" d="M 396.71204 153.635294 
L 396.71204 149.434118 
" style="fill:none;stroke:#000000;stroke-width:1.5;"/>
    <path clip-path="url(#p34e1410df1)" d="M 536.454525 153.635294 
L 536.454525 149.434118 
" style="fill:none;stroke:#000000;stroke-width:1.5;"/>
    <path clip-path="url(#p34e1410df1)" d="M 540.895508 153.635294 
L 540.895508 149.434118 
" style="fill:none;stroke:#000000;stroke-width:1.5;"/>
   </g>
   <g id="LineCollection_3">
    <path clip-path="url(#p34e1410df1)" d="M 80.775377 149.434118 
L 80.775377 145.232941 
" style="fill:none;stroke:#000000;stroke-width:1.5;"/>
    <path clip-path="url(#p34e1410df1)" d="M 106.405061 149.434118 
L 106.405061 145.232941 
" style="fill:none;stroke:#000000;stroke-width:1.5;"/>
    <path clip-path="url(#p34e1410df1)" d="M 158.680641 149.434118 
L 158.680641 145.232941 
" style="fill:none;stroke:#000000;stroke-width:1.5;"/>
    <path clip-path="url(#p34e1410df1)" d="M 159.82883 149.434118 
L 159.82883 145.232941 
" style="fill:none;stroke:#000000;stroke-width:1.5;"/>
    <path clip-path="url(#p34e1410df1)" d="M 171.310717 149.434118 
L 171.310717 145.232941 
" style="fill:none;stroke:#000000;stroke-width:1.5;"/>
    <path clip-path="url(#p34e1410df1)" d="M 215.760138 149.434118 
L 215.760138 145.232941 
" style="fill:none;stroke:#000000;stroke-width:1.5;"/>
    <path clip-path="url(#p34e1410df1)" d="M 238.611733 149.434118 
L 238.611733 145.232941 
" style="fill:none;stroke:#000000;stroke-width:1.5;"/>
    <path clip-path="url(#p34e1410df1)" d="M 258.467479 149.434118 
L 258.467479 145.232941 
" style="fill:none;stroke:#000000;stroke-width:1.5;"/>
    <path clip-path="url(#p34e1410df1)" d="M 261.271963 149.434118 
L 261.271963 145.232941 
" style="fill:none;stroke:#000000;stroke-width:1.5;"/>
    <path clip-path="url(#p34e1410df1)" d="M 262.769887 149.434118 
L 262.769887 145.232941 
" style="fill:none;stroke:#000000;stroke-width:1.5;"/>
    <path clip-path="url(#p34e1410df1)" d="M 334.822028 149.434118 
L 334.822028 145.232941 
" style="fill:none;stroke:#000000;stroke-width:1.5;"/>
    <path clip-path="url(#p34e1410df1)" d="M 408.273112 149.434118 
L 408.273112 145.232941 
" style="fill:none;stroke:#000000;stroke-width:1.5;"/>
    <path clip-path="url(#p34e1410df1)" d="M 430.478026 149.434118 
L 430.478026 145.232941 
" style="fill:none;stroke:#000000;stroke-width:1.5;"/>
    <path clip-path="url(#p34e1410df1)" d="M 432.715015 149.434118 
L 432.715015 145.232941 
" style="fill:none;stroke:#000000;stroke-width:1.5;"/>
    <path clip-path="url(#p34e1410df1)" d="M 438.871682 149.434118 
L 438.871682 145.232941 
" style="fill:none;stroke:#000000;stroke-width:1.5;"/>
    <path clip-path="url(#p34e1410df1)" d="M 535.39212 149.434118 
L 535.39212 145.232941 
" style="fill:none;stroke:#000000;stroke-width:1.5;"/>
    <path clip-path="url(#p34e1410df1)" d="M 551.084033 149.434118 
L 551.084033 145.232941 
" style="fill:none;stroke:#000000;stroke-width:1.5;"/>
    <path clip-path="url(#p34e1410df1)" d="M 571.04536 149.434118 
L 571.04536 145.232941 
" style="fill:none;stroke:#000000;stroke-width:1.5;"/>
   </g>
   <g id="LineCollection_4">
    <path clip-path="url(#p34e1410df1)" d="M 187.64931 141.031765 
L 187.64931 136.830588 
" style="fill:none;stroke:#000000;stroke-width:1.5;"/>
   </g>
   <g id="LineCollection_5">
    <path clip-path="url(#p34e1410df1)" d="M 32.201715 128.428235 
L 32.201715 124.227059 
" style="fill:none;stroke:#000000;stroke-width:1.5;"/>
    <path clip-path="url(#p34e1410df1)" d="M 34.524488 128.428235 
L 34.524488 124.227059 
" style="fill:none;stroke:#000000;stroke-width:1.5;"/>
    <path clip-path="url(#p34e1410df1)" d="M 48.309351 128.428235 
L 48.309351 124.227059 
" style="fill:none;stroke:#000000;stroke-width:1.5;"/>
    <path clip-path="url(#p34e1410df1)" d="M 105.75838 128.428235 
L 105.75838 124.227059 
" style="fill:none;stroke:#000000;stroke-width:1.5;"/>
    <path clip-path="url(#p34e1410df1)" d="M 428.082667 128.428235 
L 428.082667 124.227059 
" style="fill:none;stroke:#000000;stroke-width:1.5;"/>
    <path clip-path="url(#p34e1410df1)" d="M 482.351081 128.428235 
L 482.351081 124.227059 
" style="fill:none;stroke:#000000;stroke-width:1.5;"/>
    <path clip-path="url(#p34e1410df1)" d="M 482.832792 128.428235 
L 482.832792 124.227059 
" style="fill:none;stroke:#000000;stroke-width:1.5;"/>
    <path clip-path="url(#p34e1410df1)" d="M 483.420084 128.428235 
L 483.420084 124.227059 
" style="fill:none;stroke:#000000;stroke-width:1.5;"/>
    <path clip-path="url(#p34e1410df1)" d="M 535.524096 128.428235 
L 535.524096 124.227059 
" style="fill:none;stroke:#000000;stroke-width:1.5;"/>
    <path clip-path="url(#p34e1410df1)" d="M 535.99261 128.428235 
L 535.99261 124.227059 
" style="fill:none;stroke:#000000;stroke-width:1.5;"/>
    <path clip-path="url(#p34e1410df1)" d="M 536.527112 128.428235 
L 536.527112 124.227059 
" style="fill:none;stroke:#000000;stroke-width:1.5;"/>
    <path clip-path="url(#p34e1410df1)" d="M 595.348688 128.428235 
L 595.348688 124.227059 
" style="fill:none;stroke:#000000;stroke-width:1.5;"/>
    <path clip-path="url(#p34e1410df1)" d="M 595.896387 128.428235 
L 595.896387 124.227059 
" style="fill:none;stroke:#000000;stroke-width:1.5;"/>
    <path clip-path="url(#p34e1410df1)" d="M 596.602457 128.428235 
L 596.602457 124.227059 
" style="fill:none;stroke:#000000;stroke-width:1.5;"/>
   </g>
   <g id="LineCollection_6">
    <path clip-path="url(#p34e1410df1)" d="M 519.640819 124.227059 
L 519.640819 120.025882 
" style="fill:none;stroke:#000000;stroke-width:1.5;"/>
    <path clip-path="url(#p34e1410df1)" d="M 520.591044 124.227059 
L 520.591044 120.025882 
" style="fill:none;stroke:#000000;stroke-width:1.5;"/>
   </g>
   <g id="LineCollection_7">
    <path clip-path="url(#p34e1410df1)" d="M 58.319709 120.025882 
L 58.319709 115.824706 
" style="fill:none;stroke:#000000;stroke-width:1.5;"/>
    <path clip-path="url(#p34e1410df1)" d="M 80.293666 120.025882 
L 80.293666 115.824706 
" style="fill:none;stroke:#000000;stroke-width:1.5;"/>
    <path clip-path="url(#p34e1410df1)" d="M 161.518119 120.025882 
L 161.518119 115.824706 
" style="fill:none;stroke:#000000;stroke-width:1.5;"/>
    <path clip-path="url(#p34e1410df1)" d="M 167.391038 120.025882 
L 167.391038 115.824706 
" style="fill:none;stroke:#000000;stroke-width:1.5;"/>
    <path clip-path="url(#p34e1410df1)" d="M 475.395961 120.025882 
L 475.395961 115.824706 
" style="fill:none;stroke:#000000;stroke-width:1.5;"/>
   </g>
   <g id="LineCollection_8">
    <path clip-path="url(#p34e1410df1)" d="M 46.870816 111.623529 
L 46.870816 107.422353 
" style="fill:none;stroke:#000000;stroke-width:1.5;"/>
    <path clip-path="url(#p34e1410df1)" d="M 70.619846 111.623529 
L 70.619846 107.422353 
" style="fill:none;stroke:#000000;stroke-width:1.5;"/>
    <path clip-path="url(#p34e1410df1)" d="M 304.995517 111.623529 
L 304.995517 107.422353 
" style="fill:none;stroke:#000000;stroke-width:1.5;"/>
    <path clip-path="url(#p34e1410df1)" d="M 316.259644 111.623529 
L 316.259644 107.422353 
" style="fill:none;stroke:#000000;stroke-width:1.5;"/>
    <path clip-path="url(#p34e1410df1)" d="M 380.40644 111.623529 
L 380.40644 107.422353 
" style="fill:none;stroke:#000000;stroke-width:1.5;"/>
    <path clip-path="url(#p34e1410df1)" d="M 473.139176 111.623529 
L 473.139176 107.422353 
" style="fill:none;stroke:#000000;stroke-width:1.5;"/>
   </g>
   <g id="LineCollection_9">
    <path clip-path="url(#p34e1410df1)" d="M 519.357071 107.422353 
L 519.357071 103.221176 
" style="fill:none;stroke:#000000;stroke-width:1.5;"/>
    <path clip-path="url(#p34e1410df1)" d="M 519.970758 107.422353 
L 519.970758 103.221176 
" style="fill:none;stroke:#000000;stroke-width:1.5;"/>
   </g>
   <g id="LineCollection_10">
    <path clip-path="url(#p34e1410df1)" d="M 30.862162 103.221176 
L 30.862162 99.02 
" style="fill:none;stroke:#000000;stroke-width:1.5;"/>
    <path clip-path="url(#p34e1410df1)" d="M 37.909665 103.221176 
L 37.909665 99.02 
" style="fill:none;stroke:#000000;stroke-width:1.5;"/>
    <path clip-path="url(#p34e1410df1)" d="M 48.718476 103.221176 
L 48.718476 99.02 
" style="fill:none;stroke:#000000;stroke-width:1.5;"/>
    <path clip-path="url(#p34e1410df1)" d="M 53.146261 103.221176 
L 53.146261 99.02 
" style="fill:none;stroke:#000000;stroke-width:1.5;"/>
    <path clip-path="url(#p34e1410df1)" d="M 79.792158 103.221176 
L 79.792158 99.02 
" style="fill:none;stroke:#000000;stroke-width:1.5;"/>
    <path clip-path="url(#p34e1410df1)" d="M 95.068347 103.221176 
L 95.068347 99.02 
" style="fill:none;stroke:#000000;stroke-width:1.5;"/>
    <path clip-path="url(#p34e1410df1)" d="M 362.695299 103.221176 
L 362.695299 99.02 
" style="fill:none;stroke:#000000;stroke-width:1.5;"/>
    <path clip-path="url(#p34e1410df1)" d="M 467.774363 103.221176 
L 467.774363 99.02 
" style="fill:none;stroke:#000000;stroke-width:1.5;"/>
    <path clip-path="url(#p34e1410df1)" d="M 474.485328 103.221176 
L 474.485328 99.02 
" style="fill:none;stroke:#000000;stroke-width:1.5;"/>
    <path clip-path="url(#p34e1410df1)" d="M 480.219673 103.221176 
L 480.219673 99.02 
" style="fill:none;stroke:#000000;stroke-width:1.5;"/>
    <path clip-path="url(#p34e1410df1)" d="M 519.112916 103.221176 
L 519.112916 99.02 
" style="fill:none;stroke:#000000;stroke-width:1.5;"/>
    <path clip-path="url(#p34e1410df1)" d="M 521.943795 103.221176 
L 521.943795 99.02 
" style="fill:none;stroke:#000000;stroke-width:1.5;"/>
    <path clip-path="url(#p34e1410df1)" d="M 529.769955 103.221176 
L 529.769955 99.02 
" style="fill:none;stroke:#000000;stroke-width:1.5;"/>
    <path clip-path="url(#p34e1410df1)" d="M 547.982604 103.221176 
L 547.982604 99.02 
" style="fill:none;stroke:#000000;stroke-width:1.5;"/>
    <path clip-path="url(#p34e1410df1)" d="M 552.581957 103.221176 
L 552.581957 99.02 
" style="fill:none;stroke:#000000;stroke-width:1.5;"/>
    <path clip-path="url(#p34e1410df1)" d="M 565.086656 103.221176 
L 565.086656 99.02 
" style="fill:none;stroke:#000000;stroke-width:1.5;"/>
    <path clip-path="url(#p34e1410df1)" d="M 583.589651 103.221176 
L 583.589651 99.02 
" style="fill:none;stroke:#000000;stroke-width:1.5;"/>
    <path clip-path="url(#p34e1410df1)" d="M 592.557401 103.221176 
L 592.557401 99.02 
" style="fill:none;stroke:#000000;stroke-width:1.5;"/>
    <path clip-path="url(#p34e1410df1)" d="M 596.483679 103.221176 
L 596.483679 99.02 
" style="fill:none;stroke:#000000;stroke-width:1.5;"/>
    <path clip-path="url(#p34e1410df1)" d="M 600.040424 103.221176 
L 600.040424 99.02 
" style="fill:none;stroke:#000000;stroke-width:1.5;"/>
    <path clip-path="url(#p34e1410df1)" d="M 611.073594 103.221176 
L 611.073594 99.02 
" style="fill:none;stroke:#000000;stroke-width:1.5;"/>
    <path clip-path="url(#p34e1410df1)" d="M 629.279644 103.221176 
L 629.279644 99.02 
" style="fill:none;stroke:#000000;stroke-width:1.5;"/>
   </g>
   <g id="LineCollection_11">
    <path clip-path="url(#p34e1410df1)" d="M 341.414215 99.02 
L 341.414215 94.818824 
" style="fill:none;stroke:#000000;stroke-width:1.5;"/>
    <path clip-path="url(#p34e1410df1)" d="M 342.5822 99.02 
L 342.5822 94.818824 
" style="fill:none;stroke:#000000;stroke-width:1.5;"/>
    <path clip-path="url(#p34e1410df1)" d="M 344.469453 99.02 
L 344.469453 94.818824 
" style="fill:none;stroke:#000000;stroke-width:1.5;"/>
    <path clip-path="url(#p34e1410df1)" d="M 348.303348 99.02 
L 348.303348 94.818824 
" style="fill:none;stroke:#000000;stroke-width:1.5;"/>
    <path clip-path="url(#p34e1410df1)" d="M 365.090659 99.02 
L 365.090659 94.818824 
" style="fill:none;stroke:#000000;stroke-width:1.5;"/>
    <path clip-path="url(#p34e1410df1)" d="M 373.081788 99.02 
L 373.081788 94.818824 
" style="fill:none;stroke:#000000;stroke-width:1.5;"/>
    <path clip-path="url(#p34e1410df1)" d="M 384.999195 99.02 
L 384.999195 94.818824 
" style="fill:none;stroke:#000000;stroke-width:1.5;"/>
    <path clip-path="url(#p34e1410df1)" d="M 480.932342 99.02 
L 480.932342 94.818824 
" style="fill:none;stroke:#000000;stroke-width:1.5;"/>
   </g>
   <g id="LineCollection_12">
    <path clip-path="url(#p34e1410df1)" d="M 66.825544 94.818824 
L 66.825544 90.617647 
" style="fill:none;stroke:#000000;stroke-width:1.5;"/>
    <path clip-path="url(#p34e1410df1)" d="M 67.656991 94.818824 
L 67.656991 90.617647 
" style="fill:none;stroke:#000000;stroke-width:1.5;"/>
    <path clip-path="url(#p34e1410df1)" d="M 276.693325 94.818824 
L 276.693325 90.617647 
" style="fill:none;stroke:#000000;stroke-width:1.5;"/>
    <path clip-path="url(#p34e1410df1)" d="M 372.626472 94.818824 
L 372.626472 90.617647 
" style="fill:none;stroke:#000000;stroke-width:1.5;"/>
    <path clip-path="url(#p34e1410df1)" d="M 518.16929 94.818824 
L 518.16929 90.617647 
" style="fill:none;stroke:#000000;stroke-width:1.5;"/>
    <path clip-path="url(#p34e1410df1)" d="M 519.244892 94.818824 
L 519.244892 90.617647 
" style="fill:none;stroke:#000000;stroke-width:1.5;"/>
    <path clip-path="url(#p34e1410df1)" d="M 520.221512 94.818824 
L 520.221512 90.617647 
" style="fill:none;stroke:#000000;stroke-width:1.5;"/>
   </g>
   <g id="LineCollection_13">
    <path clip-path="url(#p34e1410df1)" d="M 55.284268 90.617647 
L 55.284268 86.416471 
" style="fill:none;stroke:#000000;stroke-width:1.5;"/>
    <path clip-path="url(#p34e1410df1)" d="M 99.357557 90.617647 
L 99.357557 86.416471 
" style="fill:none;stroke:#000000;stroke-width:1.5;"/>
    <path clip-path="url(#p34e1410df1)" d="M 128.141461 90.617647 
L 128.141461 86.416471 
" style="fill:none;stroke:#000000;stroke-width:1.5;"/>
    <path clip-path="url(#p34e1410df1)" d="M 141.965917 90.617647 
L 141.965917 86.416471 
" style="fill:none;stroke:#000000;stroke-width:1.5;"/>
    <path clip-path="url(#p34e1410df1)" d="M 174.748684 90.617647 
L 174.748684 86.416471 
" style="fill:none;stroke:#000000;stroke-width:1.5;"/>
    <path clip-path="url(#p34e1410df1)" d="M 189.430983 90.617647 
L 189.430983 86.416471 
" style="fill:none;stroke:#000000;stroke-width:1.5;"/>
    <path clip-path="url(#p34e1410df1)" d="M 520.663631 90.617647 
L 520.663631 86.416471 
" style="fill:none;stroke:#000000;stroke-width:1.5;"/>
   </g>
   <g id="LineCollection_14">
    <path clip-path="url(#p34e1410df1)" d="M 528.945107 82.215294 
L 528.945107 78.014118 
" style="fill:none;stroke:#000000;stroke-width:1.5;"/>
   </g>
   <g id="LineCollection_15">
    <path clip-path="url(#p34e1410df1)" d="M 191.793348 73.812941 
L 191.793348 69.611765 
" style="fill:none;stroke:#000000;stroke-width:1.5;"/>
    <path clip-path="url(#p34e1410df1)" d="M 201.909286 73.812941 
L 201.909286 69.611765 
" style="fill:none;stroke:#000000;stroke-width:1.5;"/>
    <path clip-path="url(#p34e1410df1)" d="M 211.009012 73.812941 
L 211.009012 69.611765 
" style="fill:none;stroke:#000000;stroke-width:1.5;"/>
    <path clip-path="url(#p34e1410df1)" d="M 220.471671 73.812941 
L 220.471671 69.611765 
" style="fill:none;stroke:#000000;stroke-width:1.5;"/>
    <path clip-path="url(#p34e1410df1)" d="M 224.727887 73.812941 
L 224.727887 69.611765 
" style="fill:none;stroke:#000000;stroke-width:1.5;"/>
    <path clip-path="url(#p34e1410df1)" d="M 233.603254 73.812941 
L 233.603254 69.611765 
" style="fill:none;stroke:#000000;stroke-width:1.5;"/>
    <path clip-path="url(#p34e1410df1)" d="M 241.548192 73.812941 
L 241.548192 69.611765 
" style="fill:none;stroke:#000000;stroke-width:1.5;"/>
    <path clip-path="url(#p34e1410df1)" d="M 249.776878 73.812941 
L 249.776878 69.611765 
" style="fill:none;stroke:#000000;stroke-width:1.5;"/>
    <path clip-path="url(#p34e1410df1)" d="M 256.804585 73.812941 
L 256.804585 69.611765 
" style="fill:none;stroke:#000000;stroke-width:1.5;"/>
    <path clip-path="url(#p34e1410df1)" d="M 259.998397 73.812941 
L 259.998397 69.611765 
" style="fill:none;stroke:#000000;stroke-width:1.5;"/>
    <path clip-path="url(#p34e1410df1)" d="M 268.84077 73.812941 
L 268.84077 69.611765 
" style="fill:none;stroke:#000000;stroke-width:1.5;"/>
    <path clip-path="url(#p34e1410df1)" d="M 278.653164 73.812941 
L 278.653164 69.611765 
" style="fill:none;stroke:#000000;stroke-width:1.5;"/>
    <path clip-path="url(#p34e1410df1)" d="M 298.291151 73.812941 
L 298.291151 69.611765 
" style="fill:none;stroke:#000000;stroke-width:1.5;"/>
    <path clip-path="url(#p34e1410df1)" d="M 306.493441 73.812941 
L 306.493441 69.611765 
" style="fill:none;stroke:#000000;stroke-width:1.5;"/>
    <path clip-path="url(#p34e1410df1)" d="M 322.561485 73.812941 
L 322.561485 69.611765 
" style="fill:none;stroke:#000000;stroke-width:1.5;"/>
    <path clip-path="url(#p34e1410df1)" d="M 324.138594 73.812941 
L 324.138594 69.611765 
" style="fill:none;stroke:#000000;stroke-width:1.5;"/>
    <path clip-path="url(#p34e1410df1)" d="M 328.539984 73.812941 
L 328.539984 69.611765 
" style="fill:none;stroke:#000000;stroke-width:1.5;"/>
    <path clip-path="url(#p34e1410df1)" d="M 340.490385 73.812941 
L 340.490385 69.611765 
" style="fill:none;stroke:#000000;stroke-width:1.5;"/>
    <path clip-path="url(#p34e1410df1)" d="M 347.630272 73.812941 
L 347.630272 69.611765 
" style="fill:none;stroke:#000000;stroke-width:1.5;"/>
    <path clip-path="url(#p34e1410df1)" d="M 349.543919 73.812941 
L 349.543919 69.611765 
" style="fill:none;stroke:#000000;stroke-width:1.5;"/>
    <path clip-path="url(#p34e1410df1)" d="M 351.233209 73.812941 
L 351.233209 69.611765 
" style="fill:none;stroke:#000000;stroke-width:1.5;"/>
    <path clip-path="url(#p34e1410df1)" d="M 354.10368 73.812941 
L 354.10368 69.611765 
" style="fill:none;stroke:#000000;stroke-width:1.5;"/>
    <path clip-path="url(#p34e1410df1)" d="M 356.60462 73.812941 
L 356.60462 69.611765 
" style="fill:none;stroke:#000000;stroke-width:1.5;"/>
    <path clip-path="url(#p34e1410df1)" d="M 363.051634 73.812941 
L 363.051634 69.611765 
" style="fill:none;stroke:#000000;stroke-width:1.5;"/>
    <path clip-path="url(#p34e1410df1)" d="M 369.670216 73.812941 
L 369.670216 69.611765 
" style="fill:none;stroke:#000000;stroke-width:1.5;"/>
    <path clip-path="url(#p34e1410df1)" d="M 375.450752 73.812941 
L 375.450752 69.611765 
" style="fill:none;stroke:#000000;stroke-width:1.5;"/>
    <path clip-path="url(#p34e1410df1)" d="M 377.575561 73.812941 
L 377.575561 69.611765 
" style="fill:none;stroke:#000000;stroke-width:1.5;"/>
    <path clip-path="url(#p34e1410df1)" d="M 392.19847 73.812941 
L 392.19847 69.611765 
" style="fill:none;stroke:#000000;stroke-width:1.5;"/>
    <path clip-path="url(#p34e1410df1)" d="M 397.03538 73.812941 
L 397.03538 69.611765 
" style="fill:none;stroke:#000000;stroke-width:1.5;"/>
    <path clip-path="url(#p34e1410df1)" d="M 399.75408 73.812941 
L 399.75408 69.611765 
" style="fill:none;stroke:#000000;stroke-width:1.5;"/>
    <path clip-path="url(#p34e1410df1)" d="M 406.214291 73.812941 
L 406.214291 69.611765 
" style="fill:none;stroke:#000000;stroke-width:1.5;"/>
    <path clip-path="url(#p34e1410df1)" d="M 407.732012 73.812941 
L 407.732012 69.611765 
" style="fill:none;stroke:#000000;stroke-width:1.5;"/>
    <path clip-path="url(#p34e1410df1)" d="M 418.092105 73.812941 
L 418.092105 69.611765 
" style="fill:none;stroke:#000000;stroke-width:1.5;"/>
    <path clip-path="url(#p34e1410df1)" d="M 423.047794 73.812941 
L 423.047794 69.611765 
" style="fill:none;stroke:#000000;stroke-width:1.5;"/>
    <path clip-path="url(#p34e1410df1)" d="M 428.782138 73.812941 
L 428.782138 69.611765 
" style="fill:none;stroke:#000000;stroke-width:1.5;"/>
   </g>
   <g id="LineCollection_16">
    <path clip-path="url(#p34e1410df1)" d="M 67.696584 69.611765 
L 67.696584 65.410588 
" style="fill:none;stroke:#000000;stroke-width:1.5;"/>
    <path clip-path="url(#p34e1410df1)" d="M 74.750685 69.611765 
L 74.750685 65.410588 
" style="fill:none;stroke:#000000;stroke-width:1.5;"/>
    <path clip-path="url(#p34e1410df1)" d="M 80.537821 69.611765 
L 80.537821 65.410588 
" style="fill:none;stroke:#000000;stroke-width:1.5;"/>
    <path clip-path="url(#p34e1410df1)" d="M 267.290055 69.611765 
L 267.290055 65.410588 
" style="fill:none;stroke:#000000;stroke-width:1.5;"/>
    <path clip-path="url(#p34e1410df1)" d="M 290.511182 69.611765 
L 290.511182 65.410588 
" style="fill:none;stroke:#000000;stroke-width:1.5;"/>
    <path clip-path="url(#p34e1410df1)" d="M 329.575994 69.611765 
L 329.575994 65.410588 
" style="fill:none;stroke:#000000;stroke-width:1.5;"/>
    <path clip-path="url(#p34e1410df1)" d="M 351.180418 69.611765 
L 351.180418 65.410588 
" style="fill:none;stroke:#000000;stroke-width:1.5;"/>
    <path clip-path="url(#p34e1410df1)" d="M 376.031445 69.611765 
L 376.031445 65.410588 
" style="fill:none;stroke:#000000;stroke-width:1.5;"/>
    <path clip-path="url(#p34e1410df1)" d="M 419.570233 69.611765 
L 419.570233 65.410588 
" style="fill:none;stroke:#000000;stroke-width:1.5;"/>
    <path clip-path="url(#p34e1410df1)" d="M 475.620319 69.611765 
L 475.620319 65.410588 
" style="fill:none;stroke:#000000;stroke-width:1.5;"/>
    <path clip-path="url(#p34e1410df1)" d="M 478.081666 69.611765 
L 478.081666 65.410588 
" style="fill:none;stroke:#000000;stroke-width:1.5;"/>
    <path clip-path="url(#p34e1410df1)" d="M 522.4585 69.611765 
L 522.4585 65.410588 
" style="fill:none;stroke:#000000;stroke-width:1.5;"/>
    <path clip-path="url(#p34e1410df1)" d="M 559.431497 69.611765 
L 559.431497 65.410588 
" style="fill:none;stroke:#000000;stroke-width:1.5;"/>
    <path clip-path="url(#p34e1410df1)" d="M 588.934668 69.611765 
L 588.934668 65.410588 
" style="fill:none;stroke:#000000;stroke-width:1.5;"/>
    <path clip-path="url(#p34e1410df1)" d="M 594.946162 69.611765 
L 594.946162 65.410588 
" style="fill:none;stroke:#000000;stroke-width:1.5;"/>
    <path clip-path="url(#p34e1410df1)" d="M 596.96539 69.611765 
L 596.96539 65.410588 
" style="fill:none;stroke:#000000;stroke-width:1.5;"/>
   </g>
   <g id="LineCollection_17">
    <path clip-path="url(#p34e1410df1)" d="M 41.255249 65.410588 
L 41.255249 61.209412 
" style="fill:none;stroke:#000000;stroke-width:1.5;"/>
    <path clip-path="url(#p34e1410df1)" d="M 50.526543 65.410588 
L 50.526543 61.209412 
" style="fill:none;stroke:#000000;stroke-width:1.5;"/>
    <path clip-path="url(#p34e1410df1)" d="M 65.776337 65.410588 
L 65.776337 61.209412 
" style="fill:none;stroke:#000000;stroke-width:1.5;"/>
    <path clip-path="url(#p34e1410df1)" d="M 81.197699 65.410588 
L 81.197699 61.209412 
" style="fill:none;stroke:#000000;stroke-width:1.5;"/>
    <path clip-path="url(#p34e1410df1)" d="M 141.992312 65.410588 
L 141.992312 61.209412 
" style="fill:none;stroke:#000000;stroke-width:1.5;"/>
    <path clip-path="url(#p34e1410df1)" d="M 152.088454 65.410588 
L 152.088454 61.209412 
" style="fill:none;stroke:#000000;stroke-width:1.5;"/>
    <path clip-path="url(#p34e1410df1)" d="M 162.415554 65.410588 
L 162.415554 61.209412 
" style="fill:none;stroke:#000000;stroke-width:1.5;"/>
    <path clip-path="url(#p34e1410df1)" d="M 186.798067 65.410588 
L 186.798067 61.209412 
" style="fill:none;stroke:#000000;stroke-width:1.5;"/>
    <path clip-path="url(#p34e1410df1)" d="M 226.601943 65.410588 
L 226.601943 61.209412 
" style="fill:none;stroke:#000000;stroke-width:1.5;"/>
    <path clip-path="url(#p34e1410df1)" d="M 236.592504 65.410588 
L 236.592504 61.209412 
" style="fill:none;stroke:#000000;stroke-width:1.5;"/>
    <path clip-path="url(#p34e1410df1)" d="M 252.185435 65.410588 
L 252.185435 61.209412 
" style="fill:none;stroke:#000000;stroke-width:1.5;"/>
    <path clip-path="url(#p34e1410df1)" d="M 343.294869 65.410588 
L 343.294869 61.209412 
" style="fill:none;stroke:#000000;stroke-width:1.5;"/>
    <path clip-path="url(#p34e1410df1)" d="M 480.364846 65.410588 
L 480.364846 61.209412 
" style="fill:none;stroke:#000000;stroke-width:1.5;"/>
    <path clip-path="url(#p34e1410df1)" d="M 518.406846 65.410588 
L 518.406846 61.209412 
" style="fill:none;stroke:#000000;stroke-width:1.5;"/>
    <path clip-path="url(#p34e1410df1)" d="M 525.764492 65.410588 
L 525.764492 61.209412 
" style="fill:none;stroke:#000000;stroke-width:1.5;"/>
    <path clip-path="url(#p34e1410df1)" d="M 527.335003 65.410588 
L 527.335003 61.209412 
" style="fill:none;stroke:#000000;stroke-width:1.5;"/>
    <path clip-path="url(#p34e1410df1)" d="M 574.113795 65.410588 
L 574.113795 61.209412 
" style="fill:none;stroke:#000000;stroke-width:1.5;"/>
    <path clip-path="url(#p34e1410df1)" d="M 594.41166 65.410588 
L 594.41166 61.209412 
" style="fill:none;stroke:#000000;stroke-width:1.5;"/>
    <path clip-path="url(#p34e1410df1)" d="M 599.307959 65.410588 
L 599.307959 61.209412 
" style="fill:none;stroke:#000000;stroke-width:1.5;"/>
   </g>
   <g id="LineCollection_18">
    <path clip-path="url(#p34e1410df1)" d="M 326.2832 57.008235 
L 326.2832 52.807059 
" style="fill:none;stroke:#000000;stroke-width:1.5;"/>
    <path clip-path="url(#p34e1410df1)" d="M 349.873859 57.008235 
L 349.873859 52.807059 
" style="fill:none;stroke:#000000;stroke-width:1.5;"/>
    <path clip-path="url(#p34e1410df1)" d="M 406.253884 57.008235 
L 406.253884 52.807059 
" style="fill:none;stroke:#000000;stroke-width:1.5;"/>
   </g>
   <g id="LineCollection_19">
    <path clip-path="url(#p34e1410df1)" d="M 37.903066 52.807059 
L 37.903066 48.605882 
" style="fill:none;stroke:#000000;stroke-width:1.5;"/>
   </g>
   <g id="LineCollection_20">
    <path clip-path="url(#p34e1410df1)" d="M 56.399462 48.605882 
L 56.399462 44.404706 
" style="fill:none;stroke:#000000;stroke-width:1.5;"/>
    <path clip-path="url(#p34e1410df1)" d="M 160.765857 48.605882 
L 160.765857 44.404706 
" style="fill:none;stroke:#000000;stroke-width:1.5;"/>
    <path clip-path="url(#p34e1410df1)" d="M 198.260158 48.605882 
L 198.260158 44.404706 
" style="fill:none;stroke:#000000;stroke-width:1.5;"/>
    <path clip-path="url(#p34e1410df1)" d="M 209.187747 48.605882 
L 209.187747 44.404706 
" style="fill:none;stroke:#000000;stroke-width:1.5;"/>
    <path clip-path="url(#p34e1410df1)" d="M 213.51655 48.605882 
L 213.51655 44.404706 
" style="fill:none;stroke:#000000;stroke-width:1.5;"/>
    <path clip-path="url(#p34e1410df1)" d="M 214.651542 48.605882 
L 214.651542 44.404706 
" style="fill:none;stroke:#000000;stroke-width:1.5;"/>
    <path clip-path="url(#p34e1410df1)" d="M 231.445451 48.605882 
L 231.445451 44.404706 
" style="fill:none;stroke:#000000;stroke-width:1.5;"/>
    <path clip-path="url(#p34e1410df1)" d="M 246.378503 48.605882 
L 246.378503 44.404706 
" style="fill:none;stroke:#000000;stroke-width:1.5;"/>
    <path clip-path="url(#p34e1410df1)" d="M 251.004252 48.605882 
L 251.004252 44.404706 
" style="fill:none;stroke:#000000;stroke-width:1.5;"/>
    <path clip-path="url(#p34e1410df1)" d="M 258.414689 48.605882 
L 258.414689 44.404706 
" style="fill:none;stroke:#000000;stroke-width:1.5;"/>
    <path clip-path="url(#p34e1410df1)" d="M 265.910909 48.605882 
L 265.910909 44.404706 
" style="fill:none;stroke:#000000;stroke-width:1.5;"/>
    <path clip-path="url(#p34e1410df1)" d="M 269.639223 48.605882 
L 269.639223 44.404706 
" style="fill:none;stroke:#000000;stroke-width:1.5;"/>
    <path clip-path="url(#p34e1410df1)" d="M 272.654868 48.605882 
L 272.654868 44.404706 
" style="fill:none;stroke:#000000;stroke-width:1.5;"/>
    <path clip-path="url(#p34e1410df1)" d="M 280.151089 48.605882 
L 280.151089 44.404706 
" style="fill:none;stroke:#000000;stroke-width:1.5;"/>
    <path clip-path="url(#p34e1410df1)" d="M 305.925946 48.605882 
L 305.925946 44.404706 
" style="fill:none;stroke:#000000;stroke-width:1.5;"/>
    <path clip-path="url(#p34e1410df1)" d="M 352.157039 48.605882 
L 352.157039 44.404706 
" style="fill:none;stroke:#000000;stroke-width:1.5;"/>
    <path clip-path="url(#p34e1410df1)" d="M 353.872723 48.605882 
L 353.872723 44.404706 
" style="fill:none;stroke:#000000;stroke-width:1.5;"/>
    <path clip-path="url(#p34e1410df1)" d="M 371.22093 48.605882 
L 371.22093 44.404706 
" style="fill:none;stroke:#000000;stroke-width:1.5;"/>
    <path clip-path="url(#p34e1410df1)" d="M 379.792753 48.605882 
L 379.792753 44.404706 
" style="fill:none;stroke:#000000;stroke-width:1.5;"/>
    <path clip-path="url(#p34e1410df1)" d="M 401.911883 48.605882 
L 401.911883 44.404706 
" style="fill:none;stroke:#000000;stroke-width:1.5;"/>
    <path clip-path="url(#p34e1410df1)" d="M 407.210708 48.605882 
L 407.210708 44.404706 
" style="fill:none;stroke:#000000;stroke-width:1.5;"/>
    <path clip-path="url(#p34e1410df1)" d="M 414.198822 48.605882 
L 414.198822 44.404706 
" style="fill:none;stroke:#000000;stroke-width:1.5;"/>
    <path clip-path="url(#p34e1410df1)" d="M 419.359072 48.605882 
L 419.359072 44.404706 
" style="fill:none;stroke:#000000;stroke-width:1.5;"/>
    <path clip-path="url(#p34e1410df1)" d="M 600.475944 48.605882 
L 600.475944 44.404706 
" style="fill:none;stroke:#000000;stroke-width:1.5;"/>
   </g>
   <g id="LineCollection_21">
    <path clip-path="url(#p34e1410df1)" d="M 77.588163 44.404706 
L 77.588163 40.203529 
" style="fill:none;stroke:#000000;stroke-width:1.5;"/>
    <path clip-path="url(#p34e1410df1)" d="M 108.067955 44.404706 
L 108.067955 40.203529 
" style="fill:none;stroke:#000000;stroke-width:1.5;"/>
    <path clip-path="url(#p34e1410df1)" d="M 122.261943 44.404706 
L 122.261943 40.203529 
" style="fill:none;stroke:#000000;stroke-width:1.5;"/>
    <path clip-path="url(#p34e1410df1)" d="M 132.503258 44.404706 
L 132.503258 40.203529 
" style="fill:none;stroke:#000000;stroke-width:1.5;"/>
    <path clip-path="url(#p34e1410df1)" d="M 158.482678 44.404706 
L 158.482678 40.203529 
" style="fill:none;stroke:#000000;stroke-width:1.5;"/>
    <path clip-path="url(#p34e1410df1)" d="M 179.849546 44.404706 
L 179.849546 40.203529 
" style="fill:none;stroke:#000000;stroke-width:1.5;"/>
   </g>
   <g id="LineCollection_22">
    <path clip-path="url(#p34e1410df1)" d="M 192.261862 40.203529 
L 192.261862 36.002353 
" style="fill:none;stroke:#000000;stroke-width:1.5;"/>
   </g>
   <g id="LineCollection_23">
    <path clip-path="url(#p34e1410df1)" d="M 529.36083 36.002353 
L 529.36083 31.801176 
" style="fill:none;stroke:#000000;stroke-width:1.5;"/>
    <path clip-path="url(#p34e1410df1)" d="M 530.363846 36.002353 
L 530.363846 31.801176 
" style="fill:none;stroke:#000000;stroke-width:1.5;"/>
   </g>
   <g id="patch_3">
    <path d="M 28.48 170.44 
L 28.48 27.6 
" style="fill:none;stroke:#000000;stroke-linecap:square;stroke-linejoin:miter;stroke-width:0.8;"/>
   </g>
   <g id="patch_4">
    <path d="M 634.248529 170.44 
L 634.248529 27.6 
" style="fill:none;stroke:#000000;stroke-linecap:square;stroke-linejoin:miter;stroke-width:0.8;"/>
   </g>
   <g id="patch_5">
    <path d="M 28.48 170.44 
L 634.248529 170.44 
" style="fill:none;stroke:#000000;stroke-linecap:square;stroke-linejoin:miter;stroke-width:0.8;"/>
   </g>
   <g id="patch_6">
    <path d="M 28.48 27.6 
L 634.248529 27.6 
" style="fill:none;stroke:#000000;stroke-linecap:square;stroke-linejoin:miter;stroke-width:0.8;"/>
   </g>
   <g id="text_10">
    <!-- V1 raster -->
    <defs>
     <path d="M 28.609375 0 
L 0.78125 72.90625 
L 11.078125 72.90625 
L 34.1875 11.53125 
L 57.328125 72.90625 
L 67.578125 72.90625 
L 39.796875 0 
z
" id="DejaVuSans-86"/>
     <path d="M 41.109375 46.296875 
Q 39.59375 47.171875 37.8125 47.578125 
Q 36.03125 48 33.890625 48 
Q 26.265625 48 22.1875 43.046875 
Q 18.109375 38.09375 18.109375 28.8125 
L 18.109375 0 
L 9.078125 0 
L 9.078125 54.6875 
L 18.109375 54.6875 
L 18.109375 46.1875 
Q 20.953125 51.171875 25.484375 53.578125 
Q 30.03125 56 36.53125 56 
Q 37.453125 56 38.578125 55.875 
Q 39.703125 55.765625 41.0625 55.515625 
z
" id="DejaVuSans-114"/>
     <path d="M 34.28125 27.484375 
Q 23.390625 27.484375 19.1875 25 
Q 14.984375 22.515625 14.984375 16.5 
Q 14.984375 11.71875 18.140625 8.90625 
Q 21.296875 6.109375 26.703125 6.109375 
Q 34.1875 6.109375 38.703125 11.40625 
Q 43.21875 16.703125 43.21875 25.484375 
L 43.21875 27.484375 
z
M 52.203125 31.203125 
L 52.203125 0 
L 43.21875 0 
L 43.21875 8.296875 
Q 40.140625 3.328125 35.546875 0.953125 
Q 30.953125 -1.421875 24.3125 -1.421875 
Q 15.921875 -1.421875 10.953125 3.296875 
Q 6 8.015625 6 15.921875 
Q 6 25.140625 12.171875 29.828125 
Q 18.359375 34.515625 30.609375 34.515625 
L 43.21875 34.515625 
L 43.21875 35.40625 
Q 43.21875 41.609375 39.140625 45 
Q 35.0625 48.390625 27.6875 48.390625 
Q 23 48.390625 18.546875 47.265625 
Q 14.109375 46.140625 10.015625 43.890625 
L 10.015625 52.203125 
Q 14.9375 54.109375 19.578125 55.046875 
Q 24.21875 56 28.609375 56 
Q 40.484375 56 46.34375 49.84375 
Q 52.203125 43.703125 52.203125 31.203125 
z
" id="DejaVuSans-97"/>
     <path d="M 18.3125 70.21875 
L 18.3125 54.6875 
L 36.8125 54.6875 
L 36.8125 47.703125 
L 18.3125 47.703125 
L 18.3125 18.015625 
Q 18.3125 11.328125 20.140625 9.421875 
Q 21.96875 7.515625 27.59375 7.515625 
L 36.8125 7.515625 
L 36.8125 0 
L 27.59375 0 
Q 17.1875 0 13.234375 3.875 
Q 9.28125 7.765625 9.28125 18.015625 
L 9.28125 47.703125 
L 2.6875 47.703125 
L 2.6875 54.6875 
L 9.28125 54.6875 
L 9.28125 70.21875 
z
" id="DejaVuSans-116"/>
    </defs>
    <g transform="translate(298.23414 21.6)scale(0.144 -0.144)">
     <use xlink:href="#DejaVuSans-86"/>
     <use x="68.408203" xlink:href="#DejaVuSans-49"/>
     <use x="132.03125" xlink:href="#DejaVuSans-32"/>
     <use x="163.818359" xlink:href="#DejaVuSans-114"/>
     <use x="204.931641" xlink:href="#DejaVuSans-97"/>
     <use x="266.210938" xlink:href="#DejaVuSans-115"/>
     <use x="318.310547" xlink:href="#DejaVuSans-116"/>
     <use x="357.519531" xlink:href="#DejaVuSans-101"/>
     <use x="419.042969" xlink:href="#DejaVuSans-114"/>
    </g>
   </g>
  </g>
 </g>
 <defs>
  <clipPath id="p34e1410df1">
   <rect height="142.84" width="605.768529" x="28.48" y="27.6"/>
  </clipPath>
 </defs>
</svg>
