<?xml version="1.0" encoding="utf-8" standalone="no"?>
<!DOCTYPE svg PUBLIC "-//W3C//DTD SVG 1.1//EN"
  "http://www.w3.org/Graphics/SVG/1.1/DTD/svg11.dtd">
<!-- Created with matplotlib (https://matplotlib.org/) -->
<svg height="216pt" version="1.1" viewBox="0 0 576 216" width="576pt" xmlns="http://www.w3.org/2000/svg" xmlns:xlink="http://www.w3.org/1999/xlink">
 <defs>
  <style type="text/css">
*{stroke-linecap:butt;stroke-linejoin:round;}
  </style>
 </defs>
 <g id="figure_1">
  <g id="patch_1">
   <path d="M 0 216 
L 576 216 
L 576 0 
L 0 0 
z
" style="fill:#ffffff;"/>
  </g>
  <g id="axes_1">
   <g id="patch_2">
    <path d="M 28.48 167.56 
L 560.081471 167.56 
L 560.081471 27.6 
L 28.48 27.6 
z
" style="fill:#ffffff;"/>
   </g>
   <g id="PolyCollection_1">
    <defs>
     <path d="M 120.554765 -48.44 
L 120.554765 -188.4 
L 381.143721 -188.4 
L 381.143721 -48.44 
L 381.143721 -48.44 
L 120.554765 -48.44 
z
" id="me6fa270045" style="stroke:#808080;stroke-opacity:0.3;"/>
    </defs>
    <g clip-path="url(#p502e921aaa)">
     <use style="fill:#808080;fill-opacity:0.3;stroke:#808080;stroke-opacity:0.3;" x="0" xlink:href="#me6fa270045" y="216"/>
    </g>
   </g>
   <g id="matplotlib.axis_1">
    <g id="xtick_1">
     <g id="line2d_1">
      <defs>
       <path d="M 0 0 
L 0 3.5 
" id="m9f5745f13c" style="stroke:#000000;stroke-width:0.8;"/>
      </defs>
      <g>
       <use style="stroke:#000000;stroke-width:0.8;" x="33.691779" xlink:href="#m9f5745f13c" y="167.56"/>
      </g>
     </g>
     <g id="text_1">
      <!-- −0.5 -->
      <defs>
       <path d="M 10.59375 35.5 
L 73.1875 35.5 
L 73.1875 27.203125 
L 10.59375 27.203125 
z
" id="DejaVuSans-8722"/>
       <path d="M 31.78125 66.40625 
Q 24.171875 66.40625 20.328125 58.90625 
Q 16.5 51.421875 16.5 36.375 
Q 16.5 21.390625 20.328125 13.890625 
Q 24.171875 6.390625 31.78125 6.390625 
Q 39.453125 6.390625 43.28125 13.890625 
Q 47.125 21.390625 47.125 36.375 
Q 47.125 51.421875 43.28125 58.90625 
Q 39.453125 66.40625 31.78125 66.40625 
z
M 31.78125 74.21875 
Q 44.046875 74.21875 50.515625 64.515625 
Q 56.984375 54.828125 56.984375 36.375 
Q 56.984375 17.96875 50.515625 8.265625 
Q 44.046875 -1.421875 31.78125 -1.421875 
Q 19.53125 -1.421875 13.0625 8.265625 
Q 6.59375 17.96875 6.59375 36.375 
Q 6.59375 54.828125 13.0625 64.515625 
Q 19.53125 74.21875 31.78125 74.21875 
z
" id="DejaVuSans-48"/>
       <path d="M 10.6875 12.40625 
L 21 12.40625 
L 21 0 
L 10.6875 0 
z
" id="DejaVuSans-46"/>
       <path d="M 10.796875 72.90625 
L 49.515625 72.90625 
L 49.515625 64.59375 
L 19.828125 64.59375 
L 19.828125 46.734375 
Q 21.96875 47.46875 24.109375 47.828125 
Q 26.265625 48.1875 28.421875 48.1875 
Q 40.625 48.1875 47.75 41.5 
Q 54.890625 34.8125 54.890625 23.390625 
Q 54.890625 11.625 47.5625 5.09375 
Q 40.234375 -1.421875 26.90625 -1.421875 
Q 22.3125 -1.421875 17.546875 -0.640625 
Q 12.796875 0.140625 7.71875 1.703125 
L 7.71875 11.625 
Q 12.109375 9.234375 16.796875 8.0625 
Q 21.484375 6.890625 26.703125 6.890625 
Q 35.15625 6.890625 40.078125 11.328125 
Q 45.015625 15.765625 45.015625 23.390625 
Q 45.015625 31 40.078125 35.4375 
Q 35.15625 39.890625 26.703125 39.890625 
Q 22.75 39.890625 18.8125 39.015625 
Q 14.890625 38.140625 10.796875 36.28125 
z
" id="DejaVuSans-53"/>
      </defs>
      <g transform="translate(19.122092 183.678125)scale(0.12 -0.12)">
       <use xlink:href="#DejaVuSans-8722"/>
       <use x="83.789062" xlink:href="#DejaVuSans-48"/>
       <use x="147.412109" xlink:href="#DejaVuSans-46"/>
       <use x="179.199219" xlink:href="#DejaVuSans-53"/>
      </g>
     </g>
    </g>
    <g id="xtick_2">
     <g id="line2d_2">
      <g>
       <use style="stroke:#000000;stroke-width:0.8;" x="120.554765" xlink:href="#m9f5745f13c" y="167.56"/>
      </g>
     </g>
     <g id="text_2">
      <!-- 0.0 -->
      <g transform="translate(111.01289 183.678125)scale(0.12 -0.12)">
       <use xlink:href="#DejaVuSans-48"/>
       <use x="63.623047" xlink:href="#DejaVuSans-46"/>
       <use x="95.410156" xlink:href="#DejaVuSans-48"/>
      </g>
     </g>
    </g>
    <g id="xtick_3">
     <g id="line2d_3">
      <g>
       <use style="stroke:#000000;stroke-width:0.8;" x="207.41775" xlink:href="#m9f5745f13c" y="167.56"/>
      </g>
     </g>
     <g id="text_3">
      <!-- 0.5 -->
      <g transform="translate(197.875875 183.678125)scale(0.12 -0.12)">
       <use xlink:href="#DejaVuSans-48"/>
       <use x="63.623047" xlink:href="#DejaVuSans-46"/>
       <use x="95.410156" xlink:href="#DejaVuSans-53"/>
      </g>
     </g>
    </g>
    <g id="xtick_4">
     <g id="line2d_4">
      <g>
       <use style="stroke:#000000;stroke-width:0.8;" x="294.280735" xlink:href="#m9f5745f13c" y="167.56"/>
      </g>
     </g>
     <g id="text_4">
      <!-- 1.0 -->
      <defs>
       <path d="M 12.40625 8.296875 
L 28.515625 8.296875 
L 28.515625 63.921875 
L 10.984375 60.40625 
L 10.984375 69.390625 
L 28.421875 72.90625 
L 38.28125 72.90625 
L 38.28125 8.296875 
L 54.390625 8.296875 
L 54.390625 0 
L 12.40625 0 
z
" id="DejaVuSans-49"/>
      </defs>
      <g transform="translate(284.73886 183.678125)scale(0.12 -0.12)">
       <use xlink:href="#DejaVuSans-49"/>
       <use x="63.623047" xlink:href="#DejaVuSans-46"/>
       <use x="95.410156" xlink:href="#DejaVuSans-48"/>
      </g>
     </g>
    </g>
    <g id="xtick_5">
     <g id="line2d_5">
      <g>
       <use style="stroke:#000000;stroke-width:0.8;" x="381.143721" xlink:href="#m9f5745f13c" y="167.56"/>
      </g>
     </g>
     <g id="text_5">
      <!-- 1.5 -->
      <g transform="translate(371.601846 183.678125)scale(0.12 -0.12)">
       <use xlink:href="#DejaVuSans-49"/>
       <use x="63.623047" xlink:href="#DejaVuSans-46"/>
       <use x="95.410156" xlink:href="#DejaVuSans-53"/>
      </g>
     </g>
    </g>
    <g id="xtick_6">
     <g id="line2d_6">
      <g>
       <use style="stroke:#000000;stroke-width:0.8;" x="468.006706" xlink:href="#m9f5745f13c" y="167.56"/>
      </g>
     </g>
     <g id="text_6">
      <!-- 2.0 -->
      <defs>
       <path d="M 19.1875 8.296875 
L 53.609375 8.296875 
L 53.609375 0 
L 7.328125 0 
L 7.328125 8.296875 
Q 12.9375 14.109375 22.625 23.890625 
Q 32.328125 33.6875 34.8125 36.53125 
Q 39.546875 41.84375 41.421875 45.53125 
Q 43.3125 49.21875 43.3125 52.78125 
Q 43.3125 58.59375 39.234375 62.25 
Q 35.15625 65.921875 28.609375 65.921875 
Q 23.96875 65.921875 18.8125 64.3125 
Q 13.671875 62.703125 7.8125 59.421875 
L 7.8125 69.390625 
Q 13.765625 71.78125 18.9375 73 
Q 24.125 74.21875 28.421875 74.21875 
Q 39.75 74.21875 46.484375 68.546875 
Q 53.21875 62.890625 53.21875 53.421875 
Q 53.21875 48.921875 51.53125 44.890625 
Q 49.859375 40.875 45.40625 35.40625 
Q 44.1875 33.984375 37.640625 27.21875 
Q 31.109375 20.453125 19.1875 8.296875 
z
" id="DejaVuSans-50"/>
      </defs>
      <g transform="translate(458.464831 183.678125)scale(0.12 -0.12)">
       <use xlink:href="#DejaVuSans-50"/>
       <use x="63.623047" xlink:href="#DejaVuSans-46"/>
       <use x="95.410156" xlink:href="#DejaVuSans-48"/>
      </g>
     </g>
    </g>
    <g id="xtick_7">
     <g id="line2d_7">
      <g>
       <use style="stroke:#000000;stroke-width:0.8;" x="554.869691" xlink:href="#m9f5745f13c" y="167.56"/>
      </g>
     </g>
     <g id="text_7">
      <!-- 2.5 -->
      <g transform="translate(545.327816 183.678125)scale(0.12 -0.12)">
       <use xlink:href="#DejaVuSans-50"/>
       <use x="63.623047" xlink:href="#DejaVuSans-46"/>
       <use x="95.410156" xlink:href="#DejaVuSans-53"/>
      </g>
     </g>
    </g>
    <g id="text_8">
     <!-- Time (s) -->
     <defs>
      <path d="M -0.296875 72.90625 
L 61.375 72.90625 
L 61.375 64.59375 
L 35.5 64.59375 
L 35.5 0 
L 25.59375 0 
L 25.59375 64.59375 
L -0.296875 64.59375 
z
" id="DejaVuSans-84"/>
      <path d="M 9.421875 54.6875 
L 18.40625 54.6875 
L 18.40625 0 
L 9.421875 0 
z
M 9.421875 75.984375 
L 18.40625 75.984375 
L 18.40625 64.59375 
L 9.421875 64.59375 
z
" id="DejaVuSans-105"/>
      <path d="M 52 44.1875 
Q 55.375 50.25 60.0625 53.125 
Q 64.75 56 71.09375 56 
Q 79.640625 56 84.28125 50.015625 
Q 88.921875 44.046875 88.921875 33.015625 
L 88.921875 0 
L 79.890625 0 
L 79.890625 32.71875 
Q 79.890625 40.578125 77.09375 44.375 
Q 74.3125 48.1875 68.609375 48.1875 
Q 61.625 48.1875 57.5625 43.546875 
Q 53.515625 38.921875 53.515625 30.90625 
L 53.515625 0 
L 44.484375 0 
L 44.484375 32.71875 
Q 44.484375 40.625 41.703125 44.40625 
Q 38.921875 48.1875 33.109375 48.1875 
Q 26.21875 48.1875 22.15625 43.53125 
Q 18.109375 38.875 18.109375 30.90625 
L 18.109375 0 
L 9.078125 0 
L 9.078125 54.6875 
L 18.109375 54.6875 
L 18.109375 46.1875 
Q 21.1875 51.21875 25.484375 53.609375 
Q 29.78125 56 35.6875 56 
Q 41.65625 56 45.828125 52.96875 
Q 50 49.953125 52 44.1875 
z
" id="DejaVuSans-109"/>
      <path d="M 56.203125 29.59375 
L 56.203125 25.203125 
L 14.890625 25.203125 
Q 15.484375 15.921875 20.484375 11.0625 
Q 25.484375 6.203125 34.421875 6.203125 
Q 39.59375 6.203125 44.453125 7.46875 
Q 49.3125 8.734375 54.109375 11.28125 
L 54.109375 2.78125 
Q 49.265625 0.734375 44.1875 -0.34375 
Q 39.109375 -1.421875 33.890625 -1.421875 
Q 20.796875 -1.421875 13.15625 6.1875 
Q 5.515625 13.8125 5.515625 26.8125 
Q 5.515625 40.234375 12.765625 48.109375 
Q 20.015625 56 32.328125 56 
Q 43.359375 56 49.78125 48.890625 
Q 56.203125 41.796875 56.203125 29.59375 
z
M 47.21875 32.234375 
Q 47.125 39.59375 43.09375 43.984375 
Q 39.0625 48.390625 32.421875 48.390625 
Q 24.90625 48.390625 20.390625 44.140625 
Q 15.875 39.890625 15.1875 32.171875 
z
" id="DejaVuSans-101"/>
      <path id="DejaVuSans-32"/>
      <path d="M 31 75.875 
Q 24.46875 64.65625 21.28125 53.65625 
Q 18.109375 42.671875 18.109375 31.390625 
Q 18.109375 20.125 21.3125 9.0625 
Q 24.515625 -2 31 -13.1875 
L 23.1875 -13.1875 
Q 15.875 -1.703125 12.234375 9.375 
Q 8.59375 20.453125 8.59375 31.390625 
Q 8.59375 42.28125 12.203125 53.3125 
Q 15.828125 64.359375 23.1875 75.875 
z
" id="DejaVuSans-40"/>
      <path d="M 44.28125 53.078125 
L 44.28125 44.578125 
Q 40.484375 46.53125 36.375 47.5 
Q 32.28125 48.484375 27.875 48.484375 
Q 21.1875 48.484375 17.84375 46.4375 
Q 14.5 44.390625 14.5 40.28125 
Q 14.5 37.15625 16.890625 35.375 
Q 19.28125 33.59375 26.515625 31.984375 
L 29.59375 31.296875 
Q 39.15625 29.25 43.1875 25.515625 
Q 47.21875 21.78125 47.21875 15.09375 
Q 47.21875 7.46875 41.1875 3.015625 
Q 35.15625 -1.421875 24.609375 -1.421875 
Q 20.21875 -1.421875 15.453125 -0.5625 
Q 10.6875 0.296875 5.421875 2 
L 5.421875 11.28125 
Q 10.40625 8.6875 15.234375 7.390625 
Q 20.0625 6.109375 24.8125 6.109375 
Q 31.15625 6.109375 34.5625 8.28125 
Q 37.984375 10.453125 37.984375 14.40625 
Q 37.984375 18.0625 35.515625 20.015625 
Q 33.0625 21.96875 24.703125 23.78125 
L 21.578125 24.515625 
Q 13.234375 26.265625 9.515625 29.90625 
Q 5.8125 33.546875 5.8125 39.890625 
Q 5.8125 47.609375 11.28125 51.796875 
Q 16.75 56 26.8125 56 
Q 31.78125 56 36.171875 55.265625 
Q 40.578125 54.546875 44.28125 53.078125 
z
" id="DejaVuSans-115"/>
      <path d="M 8.015625 75.875 
L 15.828125 75.875 
Q 23.140625 64.359375 26.78125 53.3125 
Q 30.421875 42.28125 30.421875 31.390625 
Q 30.421875 20.453125 26.78125 9.375 
Q 23.140625 -1.703125 15.828125 -13.1875 
L 8.015625 -13.1875 
Q 14.5 -2 17.703125 9.0625 
Q 20.90625 20.125 20.90625 31.390625 
Q 20.90625 42.671875 17.703125 53.65625 
Q 14.5 64.65625 8.015625 75.875 
z
" id="DejaVuSans-41"/>
     </defs>
     <g transform="translate(264.785485 201.1155)scale(0.144 -0.144)">
      <use xlink:href="#DejaVuSans-84"/>
      <use x="61.037109" xlink:href="#DejaVuSans-105"/>
      <use x="88.820312" xlink:href="#DejaVuSans-109"/>
      <use x="186.232422" xlink:href="#DejaVuSans-101"/>
      <use x="247.755859" xlink:href="#DejaVuSans-32"/>
      <use x="279.542969" xlink:href="#DejaVuSans-40"/>
      <use x="318.556641" xlink:href="#DejaVuSans-115"/>
      <use x="370.65625" xlink:href="#DejaVuSans-41"/>
     </g>
    </g>
   </g>
   <g id="matplotlib.axis_2">
    <g id="text_9">
     <!-- Cells -->
     <defs>
      <path d="M 64.40625 67.28125 
L 64.40625 56.890625 
Q 59.421875 61.53125 53.78125 63.8125 
Q 48.140625 66.109375 41.796875 66.109375 
Q 29.296875 66.109375 22.65625 58.46875 
Q 16.015625 50.828125 16.015625 36.375 
Q 16.015625 21.96875 22.65625 14.328125 
Q 29.296875 6.6875 41.796875 6.6875 
Q 48.140625 6.6875 53.78125 8.984375 
Q 59.421875 11.28125 64.40625 15.921875 
L 64.40625 5.609375 
Q 59.234375 2.09375 53.4375 0.328125 
Q 47.65625 -1.421875 41.21875 -1.421875 
Q 24.65625 -1.421875 15.125 8.703125 
Q 5.609375 18.84375 5.609375 36.375 
Q 5.609375 53.953125 15.125 64.078125 
Q 24.65625 74.21875 41.21875 74.21875 
Q 47.75 74.21875 53.53125 72.484375 
Q 59.328125 70.75 64.40625 67.28125 
z
" id="DejaVuSans-67"/>
      <path d="M 9.421875 75.984375 
L 18.40625 75.984375 
L 18.40625 0 
L 9.421875 0 
z
" id="DejaVuSans-108"/>
     </defs>
     <g transform="translate(21.48525 114.789125)rotate(-90)scale(0.144 -0.144)">
      <use xlink:href="#DejaVuSans-67"/>
      <use x="69.824219" xlink:href="#DejaVuSans-101"/>
      <use x="131.347656" xlink:href="#DejaVuSans-108"/>
      <use x="159.130859" xlink:href="#DejaVuSans-108"/>
      <use x="186.914062" xlink:href="#DejaVuSans-115"/>
     </g>
    </g>
   </g>
   <g id="LineCollection_1">
    <path clip-path="url(#p502e921aaa)" d="M 31.42176 159.327059 
L 31.42176 155.210588 
" style="fill:none;stroke:#000000;stroke-width:1.5;"/>
    <path clip-path="url(#p502e921aaa)" d="M 41.833736 159.327059 
L 41.833736 155.210588 
" style="fill:none;stroke:#000000;stroke-width:1.5;"/>
    <path clip-path="url(#p502e921aaa)" d="M 53.739756 159.327059 
L 53.739756 155.210588 
" style="fill:none;stroke:#000000;stroke-width:1.5;"/>
    <path clip-path="url(#p502e921aaa)" d="M 58.412985 159.327059 
L 58.412985 155.210588 
" style="fill:none;stroke:#000000;stroke-width:1.5;"/>
    <path clip-path="url(#p502e921aaa)" d="M 64.661329 159.327059 
L 64.661329 155.210588 
" style="fill:none;stroke:#000000;stroke-width:1.5;"/>
    <path clip-path="url(#p502e921aaa)" d="M 68.292202 159.327059 
L 68.292202 155.210588 
" style="fill:none;stroke:#000000;stroke-width:1.5;"/>
    <path clip-path="url(#p502e921aaa)" d="M 75.536575 159.327059 
L 75.536575 155.210588 
" style="fill:none;stroke:#000000;stroke-width:1.5;"/>
    <path clip-path="url(#p502e921aaa)" d="M 80.018705 159.327059 
L 80.018705 155.210588 
" style="fill:none;stroke:#000000;stroke-width:1.5;"/>
    <path clip-path="url(#p502e921aaa)" d="M 88.525486 159.327059 
L 88.525486 155.210588 
" style="fill:none;stroke:#000000;stroke-width:1.5;"/>
    <path clip-path="url(#p502e921aaa)" d="M 94.142626 159.327059 
L 94.142626 155.210588 
" style="fill:none;stroke:#000000;stroke-width:1.5;"/>
    <path clip-path="url(#p502e921aaa)" d="M 97.837198 159.327059 
L 97.837198 155.210588 
" style="fill:none;stroke:#000000;stroke-width:1.5;"/>
    <path clip-path="url(#p502e921aaa)" d="M 100.037727 159.327059 
L 100.037727 155.210588 
" style="fill:none;stroke:#000000;stroke-width:1.5;"/>
    <path clip-path="url(#p502e921aaa)" d="M 103.118468 159.327059 
L 103.118468 155.210588 
" style="fill:none;stroke:#000000;stroke-width:1.5;"/>
    <path clip-path="url(#p502e921aaa)" d="M 107.762742 159.327059 
L 107.762742 155.210588 
" style="fill:none;stroke:#000000;stroke-width:1.5;"/>
    <path clip-path="url(#p502e921aaa)" d="M 113.69838 159.327059 
L 113.69838 155.210588 
" style="fill:none;stroke:#000000;stroke-width:1.5;"/>
    <path clip-path="url(#p502e921aaa)" d="M 125.268529 159.327059 
L 125.268529 155.210588 
" style="fill:none;stroke:#000000;stroke-width:1.5;"/>
    <path clip-path="url(#p502e921aaa)" d="M 135.941095 159.327059 
L 135.941095 155.210588 
" style="fill:none;stroke:#000000;stroke-width:1.5;"/>
    <path clip-path="url(#p502e921aaa)" d="M 178.903527 159.327059 
L 178.903527 155.210588 
" style="fill:none;stroke:#000000;stroke-width:1.5;"/>
    <path clip-path="url(#p502e921aaa)" d="M 188.898561 159.327059 
L 188.898561 155.210588 
" style="fill:none;stroke:#000000;stroke-width:1.5;"/>
    <path clip-path="url(#p502e921aaa)" d="M 212.710601 159.327059 
L 212.710601 155.210588 
" style="fill:none;stroke:#000000;stroke-width:1.5;"/>
    <path clip-path="url(#p502e921aaa)" d="M 228.861326 159.327059 
L 228.861326 155.210588 
" style="fill:none;stroke:#000000;stroke-width:1.5;"/>
    <path clip-path="url(#p502e921aaa)" d="M 248.173863 159.327059 
L 248.173863 155.210588 
" style="fill:none;stroke:#000000;stroke-width:1.5;"/>
    <path clip-path="url(#p502e921aaa)" d="M 261.591298 159.327059 
L 261.591298 155.210588 
" style="fill:none;stroke:#000000;stroke-width:1.5;"/>
    <path clip-path="url(#p502e921aaa)" d="M 278.981268 159.327059 
L 278.981268 155.210588 
" style="fill:none;stroke:#000000;stroke-width:1.5;"/>
    <path clip-path="url(#p502e921aaa)" d="M 290.348737 159.327059 
L 290.348737 155.210588 
" style="fill:none;stroke:#000000;stroke-width:1.5;"/>
    <path clip-path="url(#p502e921aaa)" d="M 318.12752 159.327059 
L 318.12752 155.210588 
" style="fill:none;stroke:#000000;stroke-width:1.5;"/>
    <path clip-path="url(#p502e921aaa)" d="M 327.919874 159.327059 
L 327.919874 155.210588 
" style="fill:none;stroke:#000000;stroke-width:1.5;"/>
    <path clip-path="url(#p502e921aaa)" d="M 341.464709 159.327059 
L 341.464709 155.210588 
" style="fill:none;stroke:#000000;stroke-width:1.5;"/>
    <path clip-path="url(#p502e921aaa)" d="M 383.801728 159.327059 
L 383.801728 155.210588 
" style="fill:none;stroke:#000000;stroke-width:1.5;"/>
    <path clip-path="url(#p502e921aaa)" d="M 394.375849 159.327059 
L 394.375849 155.210588 
" style="fill:none;stroke:#000000;stroke-width:1.5;"/>
    <path clip-path="url(#p502e921aaa)" d="M 413.103508 159.327059 
L 413.103508 155.210588 
" style="fill:none;stroke:#000000;stroke-width:1.5;"/>
    <path clip-path="url(#p502e921aaa)" d="M 428.958899 159.327059 
L 428.958899 155.210588 
" style="fill:none;stroke:#000000;stroke-width:1.5;"/>
    <path clip-path="url(#p502e921aaa)" d="M 443.899332 159.327059 
L 443.899332 155.210588 
" style="fill:none;stroke:#000000;stroke-width:1.5;"/>
    <path clip-path="url(#p502e921aaa)" d="M 457.965345 159.327059 
L 457.965345 155.210588 
" style="fill:none;stroke:#000000;stroke-width:1.5;"/>
    <path clip-path="url(#p502e921aaa)" d="M 471.070074 159.327059 
L 471.070074 155.210588 
" style="fill:none;stroke:#000000;stroke-width:1.5;"/>
    <path clip-path="url(#p502e921aaa)" d="M 482.663387 159.327059 
L 482.663387 155.210588 
" style="fill:none;stroke:#000000;stroke-width:1.5;"/>
    <path clip-path="url(#p502e921aaa)" d="M 490.944325 159.327059 
L 490.944325 155.210588 
" style="fill:none;stroke:#000000;stroke-width:1.5;"/>
    <path clip-path="url(#p502e921aaa)" d="M 499.2021 159.327059 
L 499.2021 155.210588 
" style="fill:none;stroke:#000000;stroke-width:1.5;"/>
    <path clip-path="url(#p502e921aaa)" d="M 511.606134 159.327059 
L 511.606134 155.210588 
" style="fill:none;stroke:#000000;stroke-width:1.5;"/>
    <path clip-path="url(#p502e921aaa)" d="M 519.834954 159.327059 
L 519.834954 155.210588 
" style="fill:none;stroke:#000000;stroke-width:1.5;"/>
    <path clip-path="url(#p502e921aaa)" d="M 527.114072 159.327059 
L 527.114072 155.210588 
" style="fill:none;stroke:#000000;stroke-width:1.5;"/>
    <path clip-path="url(#p502e921aaa)" d="M 536.993289 159.327059 
L 536.993289 155.210588 
" style="fill:none;stroke:#000000;stroke-width:1.5;"/>
    <path clip-path="url(#p502e921aaa)" d="M 549.246761 159.327059 
L 549.246761 155.210588 
" style="fill:none;stroke:#000000;stroke-width:1.5;"/>
   </g>
   <g id="LineCollection_2">
    <path clip-path="url(#p502e921aaa)" d="M 393.611455 155.210588 
L 393.611455 151.094118 
" style="fill:none;stroke:#000000;stroke-width:1.5;"/>
   </g>
   <g id="LineCollection_3">
    <path clip-path="url(#p502e921aaa)" d="M 38.38238 151.094118 
L 38.38238 146.977647 
" style="fill:none;stroke:#000000;stroke-width:1.5;"/>
    <path clip-path="url(#p502e921aaa)" d="M 45.841015 151.094118 
L 45.841015 146.977647 
" style="fill:none;stroke:#000000;stroke-width:1.5;"/>
    <path clip-path="url(#p502e921aaa)" d="M 59.125261 151.094118 
L 59.125261 146.977647 
" style="fill:none;stroke:#000000;stroke-width:1.5;"/>
    <path clip-path="url(#p502e921aaa)" d="M 63.294685 151.094118 
L 63.294685 146.977647 
" style="fill:none;stroke:#000000;stroke-width:1.5;"/>
    <path clip-path="url(#p502e921aaa)" d="M 70.168442 151.094118 
L 70.168442 146.977647 
" style="fill:none;stroke:#000000;stroke-width:1.5;"/>
    <path clip-path="url(#p502e921aaa)" d="M 81.339022 151.094118 
L 81.339022 146.977647 
" style="fill:none;stroke:#000000;stroke-width:1.5;"/>
    <path clip-path="url(#p502e921aaa)" d="M 86.950371 151.094118 
L 86.950371 146.977647 
" style="fill:none;stroke:#000000;stroke-width:1.5;"/>
    <path clip-path="url(#p502e921aaa)" d="M 94.530614 151.094118 
L 94.530614 146.977647 
" style="fill:none;stroke:#000000;stroke-width:1.5;"/>
    <path clip-path="url(#p502e921aaa)" d="M 97.275484 151.094118 
L 97.275484 146.977647 
" style="fill:none;stroke:#000000;stroke-width:1.5;"/>
    <path clip-path="url(#p502e921aaa)" d="M 100.199872 151.094118 
L 100.199872 146.977647 
" style="fill:none;stroke:#000000;stroke-width:1.5;"/>
    <path clip-path="url(#p502e921aaa)" d="M 106.396098 151.094118 
L 106.396098 146.977647 
" style="fill:none;stroke:#000000;stroke-width:1.5;"/>
    <path clip-path="url(#p502e921aaa)" d="M 111.607877 151.094118 
L 111.607877 146.977647 
" style="fill:none;stroke:#000000;stroke-width:1.5;"/>
    <path clip-path="url(#p502e921aaa)" d="M 118.939113 151.094118 
L 118.939113 146.977647 
" style="fill:none;stroke:#000000;stroke-width:1.5;"/>
    <path clip-path="url(#p502e921aaa)" d="M 124.729979 151.094118 
L 124.729979 146.977647 
" style="fill:none;stroke:#000000;stroke-width:1.5;"/>
    <path clip-path="url(#p502e921aaa)" d="M 127.874419 151.094118 
L 127.874419 146.977647 
" style="fill:none;stroke:#000000;stroke-width:1.5;"/>
    <path clip-path="url(#p502e921aaa)" d="M 129.912803 151.094118 
L 129.912803 146.977647 
" style="fill:none;stroke:#000000;stroke-width:1.5;"/>
    <path clip-path="url(#p502e921aaa)" d="M 145.247016 151.094118 
L 145.247016 146.977647 
" style="fill:none;stroke:#000000;stroke-width:1.5;"/>
    <path clip-path="url(#p502e921aaa)" d="M 151.49536 151.094118 
L 151.49536 146.977647 
" style="fill:none;stroke:#000000;stroke-width:1.5;"/>
    <path clip-path="url(#p502e921aaa)" d="M 156.220706 151.094118 
L 156.220706 146.977647 
" style="fill:none;stroke:#000000;stroke-width:1.5;"/>
    <path clip-path="url(#p502e921aaa)" d="M 161.994199 151.094118 
L 161.994199 146.977647 
" style="fill:none;stroke:#000000;stroke-width:1.5;"/>
    <path clip-path="url(#p502e921aaa)" d="M 169.140128 151.094118 
L 169.140128 146.977647 
" style="fill:none;stroke:#000000;stroke-width:1.5;"/>
    <path clip-path="url(#p502e921aaa)" d="M 175.562198 151.094118 
L 175.562198 146.977647 
" style="fill:none;stroke:#000000;stroke-width:1.5;"/>
    <path clip-path="url(#p502e921aaa)" d="M 187.248165 151.094118 
L 187.248165 146.977647 
" style="fill:none;stroke:#000000;stroke-width:1.5;"/>
    <path clip-path="url(#p502e921aaa)" d="M 194.625728 151.094118 
L 194.625728 146.977647 
" style="fill:none;stroke:#000000;stroke-width:1.5;"/>
    <path clip-path="url(#p502e921aaa)" d="M 197.642769 151.094118 
L 197.642769 146.977647 
" style="fill:none;stroke:#000000;stroke-width:1.5;"/>
    <path clip-path="url(#p502e921aaa)" d="M 200.86249 151.094118 
L 200.86249 146.977647 
" style="fill:none;stroke:#000000;stroke-width:1.5;"/>
    <path clip-path="url(#p502e921aaa)" d="M 209.977313 151.094118 
L 209.977313 146.977647 
" style="fill:none;stroke:#000000;stroke-width:1.5;"/>
    <path clip-path="url(#p502e921aaa)" d="M 214.499979 151.094118 
L 214.499979 146.977647 
" style="fill:none;stroke:#000000;stroke-width:1.5;"/>
    <path clip-path="url(#p502e921aaa)" d="M 224.269169 151.094118 
L 224.269169 146.977647 
" style="fill:none;stroke:#000000;stroke-width:1.5;"/>
    <path clip-path="url(#p502e921aaa)" d="M 230.060035 151.094118 
L 230.060035 146.977647 
" style="fill:none;stroke:#000000;stroke-width:1.5;"/>
    <path clip-path="url(#p502e921aaa)" d="M 241.751793 151.094118 
L 241.751793 146.977647 
" style="fill:none;stroke:#000000;stroke-width:1.5;"/>
    <path clip-path="url(#p502e921aaa)" d="M 252.181142 151.094118 
L 252.181142 146.977647 
" style="fill:none;stroke:#000000;stroke-width:1.5;"/>
    <path clip-path="url(#p502e921aaa)" d="M 262.014032 151.094118 
L 262.014032 146.977647 
" style="fill:none;stroke:#000000;stroke-width:1.5;"/>
    <path clip-path="url(#p502e921aaa)" d="M 267.405328 151.094118 
L 267.405328 146.977647 
" style="fill:none;stroke:#000000;stroke-width:1.5;"/>
    <path clip-path="url(#p502e921aaa)" d="M 278.749634 151.094118 
L 278.749634 146.977647 
" style="fill:none;stroke:#000000;stroke-width:1.5;"/>
    <path clip-path="url(#p502e921aaa)" d="M 292.074415 151.094118 
L 292.074415 146.977647 
" style="fill:none;stroke:#000000;stroke-width:1.5;"/>
    <path clip-path="url(#p502e921aaa)" d="M 309.493339 151.094118 
L 309.493339 146.977647 
" style="fill:none;stroke:#000000;stroke-width:1.5;"/>
    <path clip-path="url(#p502e921aaa)" d="M 318.503926 151.094118 
L 318.503926 146.977647 
" style="fill:none;stroke:#000000;stroke-width:1.5;"/>
    <path clip-path="url(#p502e921aaa)" d="M 327.995155 151.094118 
L 327.995155 146.977647 
" style="fill:none;stroke:#000000;stroke-width:1.5;"/>
    <path clip-path="url(#p502e921aaa)" d="M 330.43311 151.094118 
L 330.43311 146.977647 
" style="fill:none;stroke:#000000;stroke-width:1.5;"/>
    <path clip-path="url(#p502e921aaa)" d="M 335.882314 151.094118 
L 335.882314 146.977647 
" style="fill:none;stroke:#000000;stroke-width:1.5;"/>
    <path clip-path="url(#p502e921aaa)" d="M 344.267488 151.094118 
L 344.267488 146.977647 
" style="fill:none;stroke:#000000;stroke-width:1.5;"/>
    <path clip-path="url(#p502e921aaa)" d="M 353.886116 151.094118 
L 353.886116 146.977647 
" style="fill:none;stroke:#000000;stroke-width:1.5;"/>
    <path clip-path="url(#p502e921aaa)" d="M 360.597729 151.094118 
L 360.597729 146.977647 
" style="fill:none;stroke:#000000;stroke-width:1.5;"/>
    <path clip-path="url(#p502e921aaa)" d="M 373.036509 151.094118 
L 373.036509 146.977647 
" style="fill:none;stroke:#000000;stroke-width:1.5;"/>
    <path clip-path="url(#p502e921aaa)" d="M 381.850206 151.094118 
L 381.850206 146.977647 
" style="fill:none;stroke:#000000;stroke-width:1.5;"/>
    <path clip-path="url(#p502e921aaa)" d="M 386.569762 151.094118 
L 386.569762 146.977647 
" style="fill:none;stroke:#000000;stroke-width:1.5;"/>
    <path clip-path="url(#p502e921aaa)" d="M 390.866584 151.094118 
L 390.866584 146.977647 
" style="fill:none;stroke:#000000;stroke-width:1.5;"/>
    <path clip-path="url(#p502e921aaa)" d="M 394.167378 151.094118 
L 394.167378 146.977647 
" style="fill:none;stroke:#000000;stroke-width:1.5;"/>
    <path clip-path="url(#p502e921aaa)" d="M 398.672671 151.094118 
L 398.672671 146.977647 
" style="fill:none;stroke:#000000;stroke-width:1.5;"/>
    <path clip-path="url(#p502e921aaa)" d="M 405.297421 151.094118 
L 405.297421 146.977647 
" style="fill:none;stroke:#000000;stroke-width:1.5;"/>
    <path clip-path="url(#p502e921aaa)" d="M 407.150499 151.094118 
L 407.150499 146.977647 
" style="fill:none;stroke:#000000;stroke-width:1.5;"/>
    <path clip-path="url(#p502e921aaa)" d="M 415.286665 151.094118 
L 415.286665 146.977647 
" style="fill:none;stroke:#000000;stroke-width:1.5;"/>
    <path clip-path="url(#p502e921aaa)" d="M 421.031204 151.094118 
L 421.031204 146.977647 
" style="fill:none;stroke:#000000;stroke-width:1.5;"/>
    <path clip-path="url(#p502e921aaa)" d="M 427.945497 151.094118 
L 427.945497 146.977647 
" style="fill:none;stroke:#000000;stroke-width:1.5;"/>
    <path clip-path="url(#p502e921aaa)" d="M 432.450791 151.094118 
L 432.450791 146.977647 
" style="fill:none;stroke:#000000;stroke-width:1.5;"/>
    <path clip-path="url(#p502e921aaa)" d="M 440.592748 151.094118 
L 440.592748 146.977647 
" style="fill:none;stroke:#000000;stroke-width:1.5;"/>
    <path clip-path="url(#p502e921aaa)" d="M 450.188212 151.094118 
L 450.188212 146.977647 
" style="fill:none;stroke:#000000;stroke-width:1.5;"/>
    <path clip-path="url(#p502e921aaa)" d="M 455.72428 151.094118 
L 455.72428 146.977647 
" style="fill:none;stroke:#000000;stroke-width:1.5;"/>
    <path clip-path="url(#p502e921aaa)" d="M 460.73917 151.094118 
L 460.73917 146.977647 
" style="fill:none;stroke:#000000;stroke-width:1.5;"/>
    <path clip-path="url(#p502e921aaa)" d="M 465.366071 151.094118 
L 465.366071 146.977647 
" style="fill:none;stroke:#000000;stroke-width:1.5;"/>
    <path clip-path="url(#p502e921aaa)" d="M 467.867725 151.094118 
L 467.867725 146.977647 
" style="fill:none;stroke:#000000;stroke-width:1.5;"/>
    <path clip-path="url(#p502e921aaa)" d="M 472.535163 151.094118 
L 472.535163 146.977647 
" style="fill:none;stroke:#000000;stroke-width:1.5;"/>
    <path clip-path="url(#p502e921aaa)" d="M 482.796577 151.094118 
L 482.796577 146.977647 
" style="fill:none;stroke:#000000;stroke-width:1.5;"/>
    <path clip-path="url(#p502e921aaa)" d="M 488.726424 151.094118 
L 488.726424 146.977647 
" style="fill:none;stroke:#000000;stroke-width:1.5;"/>
    <path clip-path="url(#p502e921aaa)" d="M 492.253061 151.094118 
L 492.253061 146.977647 
" style="fill:none;stroke:#000000;stroke-width:1.5;"/>
    <path clip-path="url(#p502e921aaa)" d="M 496.405111 151.094118 
L 496.405111 146.977647 
" style="fill:none;stroke:#000000;stroke-width:1.5;"/>
    <path clip-path="url(#p502e921aaa)" d="M 508.8381 151.094118 
L 508.8381 146.977647 
" style="fill:none;stroke:#000000;stroke-width:1.5;"/>
    <path clip-path="url(#p502e921aaa)" d="M 519.27324 151.094118 
L 519.27324 146.977647 
" style="fill:none;stroke:#000000;stroke-width:1.5;"/>
    <path clip-path="url(#p502e921aaa)" d="M 526.013808 151.094118 
L 526.013808 146.977647 
" style="fill:none;stroke:#000000;stroke-width:1.5;"/>
    <path clip-path="url(#p502e921aaa)" d="M 531.532503 151.094118 
L 531.532503 146.977647 
" style="fill:none;stroke:#000000;stroke-width:1.5;"/>
    <path clip-path="url(#p502e921aaa)" d="M 537.045407 151.094118 
L 537.045407 146.977647 
" style="fill:none;stroke:#000000;stroke-width:1.5;"/>
    <path clip-path="url(#p502e921aaa)" d="M 542.668337 151.094118 
L 542.668337 146.977647 
" style="fill:none;stroke:#000000;stroke-width:1.5;"/>
    <path clip-path="url(#p502e921aaa)" d="M 548.077006 151.094118 
L 548.077006 146.977647 
" style="fill:none;stroke:#000000;stroke-width:1.5;"/>
    <path clip-path="url(#p502e921aaa)" d="M 553.468302 151.094118 
L 553.468302 146.977647 
" style="fill:none;stroke:#000000;stroke-width:1.5;"/>
   </g>
   <g id="LineCollection_4">
    <path clip-path="url(#p502e921aaa)" d="M 43.883703 142.861176 
L 43.883703 138.744706 
" style="fill:none;stroke:#000000;stroke-width:1.5;"/>
    <path clip-path="url(#p502e921aaa)" d="M 54.127744 142.861176 
L 54.127744 138.744706 
" style="fill:none;stroke:#000000;stroke-width:1.5;"/>
    <path clip-path="url(#p502e921aaa)" d="M 67.713115 142.861176 
L 67.713115 138.744706 
" style="fill:none;stroke:#000000;stroke-width:1.5;"/>
    <path clip-path="url(#p502e921aaa)" d="M 71.454014 142.861176 
L 71.454014 138.744706 
" style="fill:none;stroke:#000000;stroke-width:1.5;"/>
    <path clip-path="url(#p502e921aaa)" d="M 78.843159 142.861176 
L 78.843159 138.744706 
" style="fill:none;stroke:#000000;stroke-width:1.5;"/>
    <path clip-path="url(#p502e921aaa)" d="M 117.85043 142.861176 
L 117.85043 138.744706 
" style="fill:none;stroke:#000000;stroke-width:1.5;"/>
    <path clip-path="url(#p502e921aaa)" d="M 133.705821 142.861176 
L 133.705821 138.744706 
" style="fill:none;stroke:#000000;stroke-width:1.5;"/>
    <path clip-path="url(#p502e921aaa)" d="M 148.906843 142.861176 
L 148.906843 138.744706 
" style="fill:none;stroke:#000000;stroke-width:1.5;"/>
    <path clip-path="url(#p502e921aaa)" d="M 154.90618 142.861176 
L 154.90618 138.744706 
" style="fill:none;stroke:#000000;stroke-width:1.5;"/>
    <path clip-path="url(#p502e921aaa)" d="M 182.968715 142.861176 
L 182.968715 138.744706 
" style="fill:none;stroke:#000000;stroke-width:1.5;"/>
    <path clip-path="url(#p502e921aaa)" d="M 192.818977 142.861176 
L 192.818977 138.744706 
" style="fill:none;stroke:#000000;stroke-width:1.5;"/>
    <path clip-path="url(#p502e921aaa)" d="M 200.93198 142.861176 
L 200.93198 138.744706 
" style="fill:none;stroke:#000000;stroke-width:1.5;"/>
    <path clip-path="url(#p502e921aaa)" d="M 400.693683 142.861176 
L 400.693683 138.744706 
" style="fill:none;stroke:#000000;stroke-width:1.5;"/>
    <path clip-path="url(#p502e921aaa)" d="M 404.307183 142.861176 
L 404.307183 138.744706 
" style="fill:none;stroke:#000000;stroke-width:1.5;"/>
    <path clip-path="url(#p502e921aaa)" d="M 406.675648 142.861176 
L 406.675648 138.744706 
" style="fill:none;stroke:#000000;stroke-width:1.5;"/>
    <path clip-path="url(#p502e921aaa)" d="M 421.372865 142.861176 
L 421.372865 138.744706 
" style="fill:none;stroke:#000000;stroke-width:1.5;"/>
    <path clip-path="url(#p502e921aaa)" d="M 427.89917 142.861176 
L 427.89917 138.744706 
" style="fill:none;stroke:#000000;stroke-width:1.5;"/>
    <path clip-path="url(#p502e921aaa)" d="M 433.574219 142.861176 
L 433.574219 138.744706 
" style="fill:none;stroke:#000000;stroke-width:1.5;"/>
    <path clip-path="url(#p502e921aaa)" d="M 437.66257 142.861176 
L 437.66257 138.744706 
" style="fill:none;stroke:#000000;stroke-width:1.5;"/>
    <path clip-path="url(#p502e921aaa)" d="M 450.159258 142.861176 
L 450.159258 138.744706 
" style="fill:none;stroke:#000000;stroke-width:1.5;"/>
    <path clip-path="url(#p502e921aaa)" d="M 455.035167 142.861176 
L 455.035167 138.744706 
" style="fill:none;stroke:#000000;stroke-width:1.5;"/>
    <path clip-path="url(#p502e921aaa)" d="M 479.356803 142.861176 
L 479.356803 138.744706 
" style="fill:none;stroke:#000000;stroke-width:1.5;"/>
    <path clip-path="url(#p502e921aaa)" d="M 492.895847 142.861176 
L 492.895847 138.744706 
" style="fill:none;stroke:#000000;stroke-width:1.5;"/>
    <path clip-path="url(#p502e921aaa)" d="M 498.188698 142.861176 
L 498.188698 138.744706 
" style="fill:none;stroke:#000000;stroke-width:1.5;"/>
    <path clip-path="url(#p502e921aaa)" d="M 501.865898 142.861176 
L 501.865898 138.744706 
" style="fill:none;stroke:#000000;stroke-width:1.5;"/>
    <path clip-path="url(#p502e921aaa)" d="M 504.778703 142.861176 
L 504.778703 138.744706 
" style="fill:none;stroke:#000000;stroke-width:1.5;"/>
    <path clip-path="url(#p502e921aaa)" d="M 508.467485 142.861176 
L 508.467485 138.744706 
" style="fill:none;stroke:#000000;stroke-width:1.5;"/>
    <path clip-path="url(#p502e921aaa)" d="M 512.387901 142.861176 
L 512.387901 138.744706 
" style="fill:none;stroke:#000000;stroke-width:1.5;"/>
    <path clip-path="url(#p502e921aaa)" d="M 515.769766 142.861176 
L 515.769766 138.744706 
" style="fill:none;stroke:#000000;stroke-width:1.5;"/>
    <path clip-path="url(#p502e921aaa)" d="M 524.218639 142.861176 
L 524.218639 138.744706 
" style="fill:none;stroke:#000000;stroke-width:1.5;"/>
    <path clip-path="url(#p502e921aaa)" d="M 529.57519 142.861176 
L 529.57519 138.744706 
" style="fill:none;stroke:#000000;stroke-width:1.5;"/>
    <path clip-path="url(#p502e921aaa)" d="M 538.058808 142.861176 
L 538.058808 138.744706 
" style="fill:none;stroke:#000000;stroke-width:1.5;"/>
    <path clip-path="url(#p502e921aaa)" d="M 546.108112 142.861176 
L 546.108112 138.744706 
" style="fill:none;stroke:#000000;stroke-width:1.5;"/>
    <path clip-path="url(#p502e921aaa)" d="M 552.142194 142.861176 
L 552.142194 138.744706 
" style="fill:none;stroke:#000000;stroke-width:1.5;"/>
    <path clip-path="url(#p502e921aaa)" d="M 559.971444 142.861176 
L 559.971444 138.744706 
" style="fill:none;stroke:#000000;stroke-width:1.5;"/>
   </g>
   <g id="LineCollection_5">
    <path clip-path="url(#p502e921aaa)" d="M 63.080423 138.744706 
L 63.080423 134.628235 
" style="fill:none;stroke:#000000;stroke-width:1.5;"/>
    <path clip-path="url(#p502e921aaa)" d="M 69.861526 138.744706 
L 69.861526 134.628235 
" style="fill:none;stroke:#000000;stroke-width:1.5;"/>
    <path clip-path="url(#p502e921aaa)" d="M 102.811552 138.744706 
L 102.811552 134.628235 
" style="fill:none;stroke:#000000;stroke-width:1.5;"/>
    <path clip-path="url(#p502e921aaa)" d="M 129.565352 138.744706 
L 129.565352 134.628235 
" style="fill:none;stroke:#000000;stroke-width:1.5;"/>
    <path clip-path="url(#p502e921aaa)" d="M 162.306906 138.744706 
L 162.306906 134.628235 
" style="fill:none;stroke:#000000;stroke-width:1.5;"/>
    <path clip-path="url(#p502e921aaa)" d="M 204.296473 138.744706 
L 204.296473 134.628235 
" style="fill:none;stroke:#000000;stroke-width:1.5;"/>
    <path clip-path="url(#p502e921aaa)" d="M 330.531555 138.744706 
L 330.531555 134.628235 
" style="fill:none;stroke:#000000;stroke-width:1.5;"/>
    <path clip-path="url(#p502e921aaa)" d="M 339.490024 138.744706 
L 339.490024 134.628235 
" style="fill:none;stroke:#000000;stroke-width:1.5;"/>
    <path clip-path="url(#p502e921aaa)" d="M 344.499123 138.744706 
L 344.499123 134.628235 
" style="fill:none;stroke:#000000;stroke-width:1.5;"/>
    <path clip-path="url(#p502e921aaa)" d="M 346.670697 138.744706 
L 346.670697 134.628235 
" style="fill:none;stroke:#000000;stroke-width:1.5;"/>
    <path clip-path="url(#p502e921aaa)" d="M 351.071755 138.744706 
L 351.071755 134.628235 
" style="fill:none;stroke:#000000;stroke-width:1.5;"/>
    <path clip-path="url(#p502e921aaa)" d="M 352.397863 138.744706 
L 352.397863 134.628235 
" style="fill:none;stroke:#000000;stroke-width:1.5;"/>
    <path clip-path="url(#p502e921aaa)" d="M 369.202956 138.744706 
L 369.202956 134.628235 
" style="fill:none;stroke:#000000;stroke-width:1.5;"/>
    <path clip-path="url(#p502e921aaa)" d="M 387.421019 138.744706 
L 387.421019 134.628235 
" style="fill:none;stroke:#000000;stroke-width:1.5;"/>
    <path clip-path="url(#p502e921aaa)" d="M 390.779721 138.744706 
L 390.779721 134.628235 
" style="fill:none;stroke:#000000;stroke-width:1.5;"/>
    <path clip-path="url(#p502e921aaa)" d="M 395.134452 138.744706 
L 395.134452 134.628235 
" style="fill:none;stroke:#000000;stroke-width:1.5;"/>
    <path clip-path="url(#p502e921aaa)" d="M 396.25788 138.744706 
L 396.25788 134.628235 
" style="fill:none;stroke:#000000;stroke-width:1.5;"/>
    <path clip-path="url(#p502e921aaa)" d="M 400.699474 138.744706 
L 400.699474 134.628235 
" style="fill:none;stroke:#000000;stroke-width:1.5;"/>
    <path clip-path="url(#p502e921aaa)" d="M 416.022105 138.744706 
L 416.022105 134.628235 
" style="fill:none;stroke:#000000;stroke-width:1.5;"/>
    <path clip-path="url(#p502e921aaa)" d="M 421.355492 138.744706 
L 421.355492 134.628235 
" style="fill:none;stroke:#000000;stroke-width:1.5;"/>
    <path clip-path="url(#p502e921aaa)" d="M 448.508861 138.744706 
L 448.508861 134.628235 
" style="fill:none;stroke:#000000;stroke-width:1.5;"/>
    <path clip-path="url(#p502e921aaa)" d="M 456.552374 138.744706 
L 456.552374 134.628235 
" style="fill:none;stroke:#000000;stroke-width:1.5;"/>
    <path clip-path="url(#p502e921aaa)" d="M 457.559984 138.744706 
L 457.559984 134.628235 
" style="fill:none;stroke:#000000;stroke-width:1.5;"/>
    <path clip-path="url(#p502e921aaa)" d="M 459.754722 138.744706 
L 459.754722 134.628235 
" style="fill:none;stroke:#000000;stroke-width:1.5;"/>
    <path clip-path="url(#p502e921aaa)" d="M 460.907105 138.744706 
L 460.907105 134.628235 
" style="fill:none;stroke:#000000;stroke-width:1.5;"/>
    <path clip-path="url(#p502e921aaa)" d="M 463.559321 138.744706 
L 463.559321 134.628235 
" style="fill:none;stroke:#000000;stroke-width:1.5;"/>
    <path clip-path="url(#p502e921aaa)" d="M 465.429771 138.744706 
L 465.429771 134.628235 
" style="fill:none;stroke:#000000;stroke-width:1.5;"/>
    <path clip-path="url(#p502e921aaa)" d="M 466.408427 138.744706 
L 466.408427 134.628235 
" style="fill:none;stroke:#000000;stroke-width:1.5;"/>
    <path clip-path="url(#p502e921aaa)" d="M 469.390723 138.744706 
L 469.390723 134.628235 
" style="fill:none;stroke:#000000;stroke-width:1.5;"/>
    <path clip-path="url(#p502e921aaa)" d="M 488.923313 138.744706 
L 488.923313 134.628235 
" style="fill:none;stroke:#000000;stroke-width:1.5;"/>
    <path clip-path="url(#p502e921aaa)" d="M 545.077338 138.744706 
L 545.077338 134.628235 
" style="fill:none;stroke:#000000;stroke-width:1.5;"/>
    <path clip-path="url(#p502e921aaa)" d="M 554.939182 138.744706 
L 554.939182 134.628235 
" style="fill:none;stroke:#000000;stroke-width:1.5;"/>
   </g>
   <g id="LineCollection_6">
    <path clip-path="url(#p502e921aaa)" d="M 30.060906 134.628235 
L 30.060906 130.511765 
" style="fill:none;stroke:#000000;stroke-width:1.5;"/>
    <path clip-path="url(#p502e921aaa)" d="M 44.231155 134.628235 
L 44.231155 130.511765 
" style="fill:none;stroke:#000000;stroke-width:1.5;"/>
    <path clip-path="url(#p502e921aaa)" d="M 87.234123 134.628235 
L 87.234123 130.511765 
" style="fill:none;stroke:#000000;stroke-width:1.5;"/>
    <path clip-path="url(#p502e921aaa)" d="M 100.240408 134.628235 
L 100.240408 130.511765 
" style="fill:none;stroke:#000000;stroke-width:1.5;"/>
    <path clip-path="url(#p502e921aaa)" d="M 104.716747 134.628235 
L 104.716747 130.511765 
" style="fill:none;stroke:#000000;stroke-width:1.5;"/>
    <path clip-path="url(#p502e921aaa)" d="M 118.111019 134.628235 
L 118.111019 130.511765 
" style="fill:none;stroke:#000000;stroke-width:1.5;"/>
    <path clip-path="url(#p502e921aaa)" d="M 129.322135 134.628235 
L 129.322135 130.511765 
" style="fill:none;stroke:#000000;stroke-width:1.5;"/>
    <path clip-path="url(#p502e921aaa)" d="M 278.767006 134.628235 
L 278.767006 130.511765 
" style="fill:none;stroke:#000000;stroke-width:1.5;"/>
    <path clip-path="url(#p502e921aaa)" d="M 373.586641 134.628235 
L 373.586641 130.511765 
" style="fill:none;stroke:#000000;stroke-width:1.5;"/>
    <path clip-path="url(#p502e921aaa)" d="M 387.235711 134.628235 
L 387.235711 130.511765 
" style="fill:none;stroke:#000000;stroke-width:1.5;"/>
    <path clip-path="url(#p502e921aaa)" d="M 392.360628 134.628235 
L 392.360628 130.511765 
" style="fill:none;stroke:#000000;stroke-width:1.5;"/>
    <path clip-path="url(#p502e921aaa)" d="M 398.307847 134.628235 
L 398.307847 130.511765 
" style="fill:none;stroke:#000000;stroke-width:1.5;"/>
    <path clip-path="url(#p502e921aaa)" d="M 408.748777 134.628235 
L 408.748777 130.511765 
" style="fill:none;stroke:#000000;stroke-width:1.5;"/>
    <path clip-path="url(#p502e921aaa)" d="M 414.1864 134.628235 
L 414.1864 130.511765 
" style="fill:none;stroke:#000000;stroke-width:1.5;"/>
    <path clip-path="url(#p502e921aaa)" d="M 415.373528 134.628235 
L 415.373528 130.511765 
" style="fill:none;stroke:#000000;stroke-width:1.5;"/>
    <path clip-path="url(#p502e921aaa)" d="M 424.314624 134.628235 
L 424.314624 130.511765 
" style="fill:none;stroke:#000000;stroke-width:1.5;"/>
    <path clip-path="url(#p502e921aaa)" d="M 432.497118 134.628235 
L 432.497118 130.511765 
" style="fill:none;stroke:#000000;stroke-width:1.5;"/>
    <path clip-path="url(#p502e921aaa)" d="M 438.415382 134.628235 
L 438.415382 130.511765 
" style="fill:none;stroke:#000000;stroke-width:1.5;"/>
    <path clip-path="url(#p502e921aaa)" d="M 448.439371 134.628235 
L 448.439371 130.511765 
" style="fill:none;stroke:#000000;stroke-width:1.5;"/>
    <path clip-path="url(#p502e921aaa)" d="M 468.7711 134.628235 
L 468.7711 130.511765 
" style="fill:none;stroke:#000000;stroke-width:1.5;"/>
    <path clip-path="url(#p502e921aaa)" d="M 476.235526 134.628235 
L 476.235526 130.511765 
" style="fill:none;stroke:#000000;stroke-width:1.5;"/>
    <path clip-path="url(#p502e921aaa)" d="M 485.836782 134.628235 
L 485.836782 130.511765 
" style="fill:none;stroke:#000000;stroke-width:1.5;"/>
    <path clip-path="url(#p502e921aaa)" d="M 492.108289 134.628235 
L 492.108289 130.511765 
" style="fill:none;stroke:#000000;stroke-width:1.5;"/>
    <path clip-path="url(#p502e921aaa)" d="M 501.663217 134.628235 
L 501.663217 130.511765 
" style="fill:none;stroke:#000000;stroke-width:1.5;"/>
    <path clip-path="url(#p502e921aaa)" d="M 523.697461 134.628235 
L 523.697461 130.511765 
" style="fill:none;stroke:#000000;stroke-width:1.5;"/>
    <path clip-path="url(#p502e921aaa)" d="M 532.030517 134.628235 
L 532.030517 130.511765 
" style="fill:none;stroke:#000000;stroke-width:1.5;"/>
    <path clip-path="url(#p502e921aaa)" d="M 541.602818 134.628235 
L 541.602818 130.511765 
" style="fill:none;stroke:#000000;stroke-width:1.5;"/>
    <path clip-path="url(#p502e921aaa)" d="M 547.515292 134.628235 
L 547.515292 130.511765 
" style="fill:none;stroke:#000000;stroke-width:1.5;"/>
   </g>
   <g id="LineCollection_7">
    <path clip-path="url(#p502e921aaa)" d="M 391.741005 130.511765 
L 391.741005 126.395294 
" style="fill:none;stroke:#000000;stroke-width:1.5;"/>
    <path clip-path="url(#p502e921aaa)" d="M 395.146034 130.511765 
L 395.146034 126.395294 
" style="fill:none;stroke:#000000;stroke-width:1.5;"/>
    <path clip-path="url(#p502e921aaa)" d="M 396.043618 130.511765 
L 396.043618 126.395294 
" style="fill:none;stroke:#000000;stroke-width:1.5;"/>
    <path clip-path="url(#p502e921aaa)" d="M 455.718489 130.511765 
L 455.718489 126.395294 
" style="fill:none;stroke:#000000;stroke-width:1.5;"/>
    <path clip-path="url(#p502e921aaa)" d="M 463.455086 130.511765 
L 463.455086 126.395294 
" style="fill:none;stroke:#000000;stroke-width:1.5;"/>
    <path clip-path="url(#p502e921aaa)" d="M 469.10118 130.511765 
L 469.10118 126.395294 
" style="fill:none;stroke:#000000;stroke-width:1.5;"/>
    <path clip-path="url(#p502e921aaa)" d="M 535.632436 130.511765 
L 535.632436 126.395294 
" style="fill:none;stroke:#000000;stroke-width:1.5;"/>
   </g>
   <g id="LineCollection_8">
    <path clip-path="url(#p502e921aaa)" d="M 174.485097 126.395294 
L 174.485097 122.278824 
" style="fill:none;stroke:#000000;stroke-width:1.5;"/>
    <path clip-path="url(#p502e921aaa)" d="M 186.726987 126.395294 
L 186.726987 122.278824 
" style="fill:none;stroke:#000000;stroke-width:1.5;"/>
    <path clip-path="url(#p502e921aaa)" d="M 386.610298 126.395294 
L 386.610298 122.278824 
" style="fill:none;stroke:#000000;stroke-width:1.5;"/>
    <path clip-path="url(#p502e921aaa)" d="M 463.136588 126.395294 
L 463.136588 122.278824 
" style="fill:none;stroke:#000000;stroke-width:1.5;"/>
    <path clip-path="url(#p502e921aaa)" d="M 540.340409 126.395294 
L 540.340409 122.278824 
" style="fill:none;stroke:#000000;stroke-width:1.5;"/>
   </g>
   <g id="LineCollection_9">
    <path clip-path="url(#p502e921aaa)" d="M 129.28739 118.162353 
L 129.28739 114.045882 
" style="fill:none;stroke:#000000;stroke-width:1.5;"/>
    <path clip-path="url(#p502e921aaa)" d="M 318.034866 118.162353 
L 318.034866 114.045882 
" style="fill:none;stroke:#000000;stroke-width:1.5;"/>
    <path clip-path="url(#p502e921aaa)" d="M 330.288338 118.162353 
L 330.288338 114.045882 
" style="fill:none;stroke:#000000;stroke-width:1.5;"/>
    <path clip-path="url(#p502e921aaa)" d="M 338.042307 118.162353 
L 338.042307 114.045882 
" style="fill:none;stroke:#000000;stroke-width:1.5;"/>
    <path clip-path="url(#p502e921aaa)" d="M 346.410108 118.162353 
L 346.410108 114.045882 
" style="fill:none;stroke:#000000;stroke-width:1.5;"/>
    <path clip-path="url(#p502e921aaa)" d="M 366.799746 118.162353 
L 366.799746 114.045882 
" style="fill:none;stroke:#000000;stroke-width:1.5;"/>
    <path clip-path="url(#p502e921aaa)" d="M 385.649014 118.162353 
L 385.649014 114.045882 
" style="fill:none;stroke:#000000;stroke-width:1.5;"/>
    <path clip-path="url(#p502e921aaa)" d="M 396.773267 118.162353 
L 396.773267 114.045882 
" style="fill:none;stroke:#000000;stroke-width:1.5;"/>
    <path clip-path="url(#p502e921aaa)" d="M 467.36392 118.162353 
L 467.36392 114.045882 
" style="fill:none;stroke:#000000;stroke-width:1.5;"/>
   </g>
   <g id="LineCollection_10">
    <path clip-path="url(#p502e921aaa)" d="M 111.098281 114.045882 
L 111.098281 109.929412 
" style="fill:none;stroke:#000000;stroke-width:1.5;"/>
    <path clip-path="url(#p502e921aaa)" d="M 203.312026 114.045882 
L 203.312026 109.929412 
" style="fill:none;stroke:#000000;stroke-width:1.5;"/>
    <path clip-path="url(#p502e921aaa)" d="M 388.23174 114.045882 
L 388.23174 109.929412 
" style="fill:none;stroke:#000000;stroke-width:1.5;"/>
    <path clip-path="url(#p502e921aaa)" d="M 390.681276 114.045882 
L 390.681276 109.929412 
" style="fill:none;stroke:#000000;stroke-width:1.5;"/>
    <path clip-path="url(#p502e921aaa)" d="M 391.590442 114.045882 
L 391.590442 109.929412 
" style="fill:none;stroke:#000000;stroke-width:1.5;"/>
    <path clip-path="url(#p502e921aaa)" d="M 393.431938 114.045882 
L 393.431938 109.929412 
" style="fill:none;stroke:#000000;stroke-width:1.5;"/>
    <path clip-path="url(#p502e921aaa)" d="M 394.798582 114.045882 
L 394.798582 109.929412 
" style="fill:none;stroke:#000000;stroke-width:1.5;"/>
    <path clip-path="url(#p502e921aaa)" d="M 491.58132 114.045882 
L 491.58132 109.929412 
" style="fill:none;stroke:#000000;stroke-width:1.5;"/>
   </g>
   <g id="LineCollection_11">
    <path clip-path="url(#p502e921aaa)" d="M 129.073128 109.929412 
L 129.073128 105.812941 
" style="fill:none;stroke:#000000;stroke-width:1.5;"/>
   </g>
   <g id="LineCollection_12">
    <path clip-path="url(#p502e921aaa)" d="M 131.528455 105.812941 
L 131.528455 101.696471 
" style="fill:none;stroke:#000000;stroke-width:1.5;"/>
   </g>
   <g id="LineCollection_13">
    <path clip-path="url(#p502e921aaa)" d="M 341.33731 101.696471 
L 341.33731 97.58 
" style="fill:none;stroke:#000000;stroke-width:1.5;"/>
    <path clip-path="url(#p502e921aaa)" d="M 342.987707 101.696471 
L 342.987707 97.58 
" style="fill:none;stroke:#000000;stroke-width:1.5;"/>
    <path clip-path="url(#p502e921aaa)" d="M 352.832178 101.696471 
L 352.832178 97.58 
" style="fill:none;stroke:#000000;stroke-width:1.5;"/>
    <path clip-path="url(#p502e921aaa)" d="M 396.796431 101.696471 
L 396.796431 97.58 
" style="fill:none;stroke:#000000;stroke-width:1.5;"/>
   </g>
   <g id="LineCollection_14">
    <path clip-path="url(#p502e921aaa)" d="M 129.796986 97.58 
L 129.796986 93.463529 
" style="fill:none;stroke:#000000;stroke-width:1.5;"/>
   </g>
   <g id="LineCollection_15">
    <path clip-path="url(#p502e921aaa)" d="M 146.161973 93.463529 
L 146.161973 89.347059 
" style="fill:none;stroke:#000000;stroke-width:1.5;"/>
    <path clip-path="url(#p502e921aaa)" d="M 156.434968 93.463529 
L 156.434968 89.347059 
" style="fill:none;stroke:#000000;stroke-width:1.5;"/>
    <path clip-path="url(#p502e921aaa)" d="M 176.702998 93.463529 
L 176.702998 89.347059 
" style="fill:none;stroke:#000000;stroke-width:1.5;"/>
    <path clip-path="url(#p502e921aaa)" d="M 233.650371 93.463529 
L 233.650371 89.347059 
" style="fill:none;stroke:#000000;stroke-width:1.5;"/>
    <path clip-path="url(#p502e921aaa)" d="M 319.974806 93.463529 
L 319.974806 89.347059 
" style="fill:none;stroke:#000000;stroke-width:1.5;"/>
    <path clip-path="url(#p502e921aaa)" d="M 391.77575 93.463529 
L 391.77575 89.347059 
" style="fill:none;stroke:#000000;stroke-width:1.5;"/>
    <path clip-path="url(#p502e921aaa)" d="M 454.977258 93.463529 
L 454.977258 89.347059 
" style="fill:none;stroke:#000000;stroke-width:1.5;"/>
   </g>
   <g id="LineCollection_16">
    <path clip-path="url(#p502e921aaa)" d="M 232.608016 85.230588 
L 232.608016 81.114118 
" style="fill:none;stroke:#000000;stroke-width:1.5;"/>
    <path clip-path="url(#p502e921aaa)" d="M 321.353032 85.230588 
L 321.353032 81.114118 
" style="fill:none;stroke:#000000;stroke-width:1.5;"/>
    <path clip-path="url(#p502e921aaa)" d="M 378.474132 85.230588 
L 378.474132 81.114118 
" style="fill:none;stroke:#000000;stroke-width:1.5;"/>
    <path clip-path="url(#p502e921aaa)" d="M 404.388256 85.230588 
L 404.388256 81.114118 
" style="fill:none;stroke:#000000;stroke-width:1.5;"/>
   </g>
   <g id="LineCollection_17">
    <path clip-path="url(#p502e921aaa)" d="M 90.610198 76.997647 
L 90.610198 72.881176 
" style="fill:none;stroke:#000000;stroke-width:1.5;"/>
   </g>
   <g id="LineCollection_18">
    <path clip-path="url(#p502e921aaa)" d="M 42.273842 72.881176 
L 42.273842 68.764706 
" style="fill:none;stroke:#000000;stroke-width:1.5;"/>
    <path clip-path="url(#p502e921aaa)" d="M 101.618634 72.881176 
L 101.618634 68.764706 
" style="fill:none;stroke:#000000;stroke-width:1.5;"/>
    <path clip-path="url(#p502e921aaa)" d="M 107.722206 72.881176 
L 107.722206 68.764706 
" style="fill:none;stroke:#000000;stroke-width:1.5;"/>
    <path clip-path="url(#p502e921aaa)" d="M 110.9593 72.881176 
L 110.9593 68.764706 
" style="fill:none;stroke:#000000;stroke-width:1.5;"/>
    <path clip-path="url(#p502e921aaa)" d="M 113.69838 72.881176 
L 113.69838 68.764706 
" style="fill:none;stroke:#000000;stroke-width:1.5;"/>
    <path clip-path="url(#p502e921aaa)" d="M 126.044505 72.881176 
L 126.044505 68.764706 
" style="fill:none;stroke:#000000;stroke-width:1.5;"/>
    <path clip-path="url(#p502e921aaa)" d="M 128.453505 72.881176 
L 128.453505 68.764706 
" style="fill:none;stroke:#000000;stroke-width:1.5;"/>
    <path clip-path="url(#p502e921aaa)" d="M 130.497681 72.881176 
L 130.497681 68.764706 
" style="fill:none;stroke:#000000;stroke-width:1.5;"/>
    <path clip-path="url(#p502e921aaa)" d="M 147.053766 72.881176 
L 147.053766 68.764706 
" style="fill:none;stroke:#000000;stroke-width:1.5;"/>
    <path clip-path="url(#p502e921aaa)" d="M 156.267033 72.881176 
L 156.267033 68.764706 
" style="fill:none;stroke:#000000;stroke-width:1.5;"/>
    <path clip-path="url(#p502e921aaa)" d="M 292.873555 72.881176 
L 292.873555 68.764706 
" style="fill:none;stroke:#000000;stroke-width:1.5;"/>
    <path clip-path="url(#p502e921aaa)" d="M 357.464871 72.881176 
L 357.464871 68.764706 
" style="fill:none;stroke:#000000;stroke-width:1.5;"/>
    <path clip-path="url(#p502e921aaa)" d="M 405.62171 72.881176 
L 405.62171 68.764706 
" style="fill:none;stroke:#000000;stroke-width:1.5;"/>
    <path clip-path="url(#p502e921aaa)" d="M 416.369557 72.881176 
L 416.369557 68.764706 
" style="fill:none;stroke:#000000;stroke-width:1.5;"/>
    <path clip-path="url(#p502e921aaa)" d="M 430.725113 72.881176 
L 430.725113 68.764706 
" style="fill:none;stroke:#000000;stroke-width:1.5;"/>
    <path clip-path="url(#p502e921aaa)" d="M 455.116239 72.881176 
L 455.116239 68.764706 
" style="fill:none;stroke:#000000;stroke-width:1.5;"/>
    <path clip-path="url(#p502e921aaa)" d="M 459.552042 72.881176 
L 459.552042 68.764706 
" style="fill:none;stroke:#000000;stroke-width:1.5;"/>
    <path clip-path="url(#p502e921aaa)" d="M 551.076674 72.881176 
L 551.076674 68.764706 
" style="fill:none;stroke:#000000;stroke-width:1.5;"/>
   </g>
   <g id="LineCollection_19">
    <path clip-path="url(#p502e921aaa)" d="M 32.319344 64.648235 
L 32.319344 60.531765 
" style="fill:none;stroke:#000000;stroke-width:1.5;"/>
    <path clip-path="url(#p502e921aaa)" d="M 41.358885 64.648235 
L 41.358885 60.531765 
" style="fill:none;stroke:#000000;stroke-width:1.5;"/>
    <path clip-path="url(#p502e921aaa)" d="M 50.861696 64.648235 
L 50.861696 60.531765 
" style="fill:none;stroke:#000000;stroke-width:1.5;"/>
    <path clip-path="url(#p502e921aaa)" d="M 61.487934 64.648235 
L 61.487934 60.531765 
" style="fill:none;stroke:#000000;stroke-width:1.5;"/>
    <path clip-path="url(#p502e921aaa)" d="M 66.085882 64.648235 
L 66.085882 60.531765 
" style="fill:none;stroke:#000000;stroke-width:1.5;"/>
    <path clip-path="url(#p502e921aaa)" d="M 80.985779 64.648235 
L 80.985779 60.531765 
" style="fill:none;stroke:#000000;stroke-width:1.5;"/>
    <path clip-path="url(#p502e921aaa)" d="M 90.534917 64.648235 
L 90.534917 60.531765 
" style="fill:none;stroke:#000000;stroke-width:1.5;"/>
    <path clip-path="url(#p502e921aaa)" d="M 110.229651 64.648235 
L 110.229651 60.531765 
" style="fill:none;stroke:#000000;stroke-width:1.5;"/>
    <path clip-path="url(#p502e921aaa)" d="M 115.568829 64.648235 
L 115.568829 60.531765 
" style="fill:none;stroke:#000000;stroke-width:1.5;"/>
    <path clip-path="url(#p502e921aaa)" d="M 128.737258 64.648235 
L 128.737258 60.531765 
" style="fill:none;stroke:#000000;stroke-width:1.5;"/>
    <path clip-path="url(#p502e921aaa)" d="M 130.520844 64.648235 
L 130.520844 60.531765 
" style="fill:none;stroke:#000000;stroke-width:1.5;"/>
    <path clip-path="url(#p502e921aaa)" d="M 178.289695 64.648235 
L 178.289695 60.531765 
" style="fill:none;stroke:#000000;stroke-width:1.5;"/>
    <path clip-path="url(#p502e921aaa)" d="M 181.248828 64.648235 
L 181.248828 60.531765 
" style="fill:none;stroke:#000000;stroke-width:1.5;"/>
    <path clip-path="url(#p502e921aaa)" d="M 208.807558 64.648235 
L 208.807558 60.531765 
" style="fill:none;stroke:#000000;stroke-width:1.5;"/>
    <path clip-path="url(#p502e921aaa)" d="M 218.223505 64.648235 
L 218.223505 60.531765 
" style="fill:none;stroke:#000000;stroke-width:1.5;"/>
    <path clip-path="url(#p502e921aaa)" d="M 229.735746 64.648235 
L 229.735746 60.531765 
" style="fill:none;stroke:#000000;stroke-width:1.5;"/>
    <path clip-path="url(#p502e921aaa)" d="M 239.180648 64.648235 
L 239.180648 60.531765 
" style="fill:none;stroke:#000000;stroke-width:1.5;"/>
    <path clip-path="url(#p502e921aaa)" d="M 254.364298 64.648235 
L 254.364298 60.531765 
" style="fill:none;stroke:#000000;stroke-width:1.5;"/>
    <path clip-path="url(#p502e921aaa)" d="M 261.382827 64.648235 
L 261.382827 60.531765 
" style="fill:none;stroke:#000000;stroke-width:1.5;"/>
    <path clip-path="url(#p502e921aaa)" d="M 272.385472 64.648235 
L 272.385472 60.531765 
" style="fill:none;stroke:#000000;stroke-width:1.5;"/>
    <path clip-path="url(#p502e921aaa)" d="M 292.462403 64.648235 
L 292.462403 60.531765 
" style="fill:none;stroke:#000000;stroke-width:1.5;"/>
    <path clip-path="url(#p502e921aaa)" d="M 305.908794 64.648235 
L 305.908794 60.531765 
" style="fill:none;stroke:#000000;stroke-width:1.5;"/>
    <path clip-path="url(#p502e921aaa)" d="M 318.891914 64.648235 
L 318.891914 60.531765 
" style="fill:none;stroke:#000000;stroke-width:1.5;"/>
    <path clip-path="url(#p502e921aaa)" d="M 326.21736 64.648235 
L 326.21736 60.531765 
" style="fill:none;stroke:#000000;stroke-width:1.5;"/>
    <path clip-path="url(#p502e921aaa)" d="M 361.877511 64.648235 
L 361.877511 60.531765 
" style="fill:none;stroke:#000000;stroke-width:1.5;"/>
    <path clip-path="url(#p502e921aaa)" d="M 369.76467 64.648235 
L 369.76467 60.531765 
" style="fill:none;stroke:#000000;stroke-width:1.5;"/>
    <path clip-path="url(#p502e921aaa)" d="M 375.937732 64.648235 
L 375.937732 60.531765 
" style="fill:none;stroke:#000000;stroke-width:1.5;"/>
    <path clip-path="url(#p502e921aaa)" d="M 386.413408 64.648235 
L 386.413408 60.531765 
" style="fill:none;stroke:#000000;stroke-width:1.5;"/>
    <path clip-path="url(#p502e921aaa)" d="M 396.506887 64.648235 
L 396.506887 60.531765 
" style="fill:none;stroke:#000000;stroke-width:1.5;"/>
    <path clip-path="url(#p502e921aaa)" d="M 430.470315 64.648235 
L 430.470315 60.531765 
" style="fill:none;stroke:#000000;stroke-width:1.5;"/>
    <path clip-path="url(#p502e921aaa)" d="M 451.010515 64.648235 
L 451.010515 60.531765 
" style="fill:none;stroke:#000000;stroke-width:1.5;"/>
    <path clip-path="url(#p502e921aaa)" d="M 466.15942 64.648235 
L 466.15942 60.531765 
" style="fill:none;stroke:#000000;stroke-width:1.5;"/>
    <path clip-path="url(#p502e921aaa)" d="M 481.429933 64.648235 
L 481.429933 60.531765 
" style="fill:none;stroke:#000000;stroke-width:1.5;"/>
    <path clip-path="url(#p502e921aaa)" d="M 503.829001 64.648235 
L 503.829001 60.531765 
" style="fill:none;stroke:#000000;stroke-width:1.5;"/>
    <path clip-path="url(#p502e921aaa)" d="M 517.344882 64.648235 
L 517.344882 60.531765 
" style="fill:none;stroke:#000000;stroke-width:1.5;"/>
    <path clip-path="url(#p502e921aaa)" d="M 526.691339 64.648235 
L 526.691339 60.531765 
" style="fill:none;stroke:#000000;stroke-width:1.5;"/>
    <path clip-path="url(#p502e921aaa)" d="M 539.182236 64.648235 
L 539.182236 60.531765 
" style="fill:none;stroke:#000000;stroke-width:1.5;"/>
    <path clip-path="url(#p502e921aaa)" d="M 543.95391 64.648235 
L 543.95391 60.531765 
" style="fill:none;stroke:#000000;stroke-width:1.5;"/>
   </g>
   <g id="LineCollection_20">
    <path clip-path="url(#p502e921aaa)" d="M 128.314525 56.415294 
L 128.314525 52.298824 
" style="fill:none;stroke:#000000;stroke-width:1.5;"/>
    <path clip-path="url(#p502e921aaa)" d="M 354.552065 56.415294 
L 354.552065 52.298824 
" style="fill:none;stroke:#000000;stroke-width:1.5;"/>
    <path clip-path="url(#p502e921aaa)" d="M 394.236868 56.415294 
L 394.236868 52.298824 
" style="fill:none;stroke:#000000;stroke-width:1.5;"/>
    <path clip-path="url(#p502e921aaa)" d="M 469.020108 56.415294 
L 469.020108 52.298824 
" style="fill:none;stroke:#000000;stroke-width:1.5;"/>
   </g>
   <g id="LineCollection_21">
    <path clip-path="url(#p502e921aaa)" d="M 96.84696 48.182353 
L 96.84696 44.065882 
" style="fill:none;stroke:#000000;stroke-width:1.5;"/>
    <path clip-path="url(#p502e921aaa)" d="M 98.873763 48.182353 
L 98.873763 44.065882 
" style="fill:none;stroke:#000000;stroke-width:1.5;"/>
   </g>
   <g id="LineCollection_22">
    <path clip-path="url(#p502e921aaa)" d="M 266.826241 39.949412 
L 266.826241 35.832941 
" style="fill:none;stroke:#000000;stroke-width:1.5;"/>
   </g>
   <g id="patch_3">
    <path d="M 28.48 167.56 
L 28.48 27.6 
" style="fill:none;stroke:#000000;stroke-linecap:square;stroke-linejoin:miter;stroke-width:0.8;"/>
   </g>
   <g id="patch_4">
    <path d="M 560.081471 167.56 
L 560.081471 27.6 
" style="fill:none;stroke:#000000;stroke-linecap:square;stroke-linejoin:miter;stroke-width:0.8;"/>
   </g>
   <g id="patch_5">
    <path d="M 28.48 167.56 
L 560.081471 167.56 
" style="fill:none;stroke:#000000;stroke-linecap:square;stroke-linejoin:miter;stroke-width:0.8;"/>
   </g>
   <g id="patch_6">
    <path d="M 28.48 27.6 
L 560.081471 27.6 
" style="fill:none;stroke:#000000;stroke-linecap:square;stroke-linejoin:miter;stroke-width:0.8;"/>
   </g>
   <g id="text_10">
    <!-- V1 raster -->
    <defs>
     <path d="M 28.609375 0 
L 0.78125 72.90625 
L 11.078125 72.90625 
L 34.1875 11.53125 
L 57.328125 72.90625 
L 67.578125 72.90625 
L 39.796875 0 
z
" id="DejaVuSans-86"/>
     <path d="M 41.109375 46.296875 
Q 39.59375 47.171875 37.8125 47.578125 
Q 36.03125 48 33.890625 48 
Q 26.265625 48 22.1875 43.046875 
Q 18.109375 38.09375 18.109375 28.8125 
L 18.109375 0 
L 9.078125 0 
L 9.078125 54.6875 
L 18.109375 54.6875 
L 18.109375 46.1875 
Q 20.953125 51.171875 25.484375 53.578125 
Q 30.03125 56 36.53125 56 
Q 37.453125 56 38.578125 55.875 
Q 39.703125 55.765625 41.0625 55.515625 
z
" id="DejaVuSans-114"/>
     <path d="M 34.28125 27.484375 
Q 23.390625 27.484375 19.1875 25 
Q 14.984375 22.515625 14.984375 16.5 
Q 14.984375 11.71875 18.140625 8.90625 
Q 21.296875 6.109375 26.703125 6.109375 
Q 34.1875 6.109375 38.703125 11.40625 
Q 43.21875 16.703125 43.21875 25.484375 
L 43.21875 27.484375 
z
M 52.203125 31.203125 
L 52.203125 0 
L 43.21875 0 
L 43.21875 8.296875 
Q 40.140625 3.328125 35.546875 0.953125 
Q 30.953125 -1.421875 24.3125 -1.421875 
Q 15.921875 -1.421875 10.953125 3.296875 
Q 6 8.015625 6 15.921875 
Q 6 25.140625 12.171875 29.828125 
Q 18.359375 34.515625 30.609375 34.515625 
L 43.21875 34.515625 
L 43.21875 35.40625 
Q 43.21875 41.609375 39.140625 45 
Q 35.0625 48.390625 27.6875 48.390625 
Q 23 48.390625 18.546875 47.265625 
Q 14.109375 46.140625 10.015625 43.890625 
L 10.015625 52.203125 
Q 14.9375 54.109375 19.578125 55.046875 
Q 24.21875 56 28.609375 56 
Q 40.484375 56 46.34375 49.84375 
Q 52.203125 43.703125 52.203125 31.203125 
z
" id="DejaVuSans-97"/>
     <path d="M 18.3125 70.21875 
L 18.3125 54.6875 
L 36.8125 54.6875 
L 36.8125 47.703125 
L 18.3125 47.703125 
L 18.3125 18.015625 
Q 18.3125 11.328125 20.140625 9.421875 
Q 21.96875 7.515625 27.59375 7.515625 
L 36.8125 7.515625 
L 36.8125 0 
L 27.59375 0 
Q 17.1875 0 13.234375 3.875 
Q 9.28125 7.765625 9.28125 18.015625 
L 9.28125 47.703125 
L 2.6875 47.703125 
L 2.6875 54.6875 
L 9.28125 54.6875 
L 9.28125 70.21875 
z
" id="DejaVuSans-116"/>
    </defs>
    <g transform="translate(261.15061 21.6)scale(0.144 -0.144)">
     <use xlink:href="#DejaVuSans-86"/>
     <use x="68.408203" xlink:href="#DejaVuSans-49"/>
     <use x="132.03125" xlink:href="#DejaVuSans-32"/>
     <use x="163.818359" xlink:href="#DejaVuSans-114"/>
     <use x="204.931641" xlink:href="#DejaVuSans-97"/>
     <use x="266.210938" xlink:href="#DejaVuSans-115"/>
     <use x="318.310547" xlink:href="#DejaVuSans-116"/>
     <use x="357.519531" xlink:href="#DejaVuSans-101"/>
     <use x="419.042969" xlink:href="#DejaVuSans-114"/>
    </g>
   </g>
  </g>
 </g>
 <defs>
  <clipPath id="p502e921aaa">
   <rect height="139.96" width="531.601471" x="28.48" y="27.6"/>
  </clipPath>
 </defs>
</svg>
