<?xml version="1.0" encoding="utf-8" standalone="no"?>
<!DOCTYPE svg PUBLIC "-//W3C//DTD SVG 1.1//EN"
  "http://www.w3.org/Graphics/SVG/1.1/DTD/svg11.dtd">
<!-- Created with matplotlib (https://matplotlib.org/) -->
<svg height="216pt" version="1.1" viewBox="0 0 576 216" width="576pt" xmlns="http://www.w3.org/2000/svg" xmlns:xlink="http://www.w3.org/1999/xlink">
 <defs>
  <style type="text/css">
*{stroke-linecap:butt;stroke-linejoin:round;}
  </style>
 </defs>
 <g id="figure_1">
  <g id="patch_1">
   <path d="M 0 216 
L 576 216 
L 576 0 
L 0 0 
z
" style="fill:#ffffff;"/>
  </g>
  <g id="axes_1">
   <g id="patch_2">
    <path d="M 28.48 170.44 
L 561.701471 170.44 
L 561.701471 27.6 
L 28.48 27.6 
z
" style="fill:#ffffff;"/>
   </g>
   <g id="PolyCollection_1">
    <defs>
     <path d="M 120.835353 -45.56 
L 120.835353 -188.4 
L 382.218427 -188.4 
L 382.218427 -45.56 
L 382.218427 -45.56 
L 120.835353 -45.56 
z
" id="m463b602a0f" style="stroke:#808080;stroke-opacity:0.3;"/>
    </defs>
    <g clip-path="url(#p5addd901ef)">
     <use style="fill:#808080;fill-opacity:0.3;stroke:#808080;stroke-opacity:0.3;" x="0" xlink:href="#m463b602a0f" y="216"/>
    </g>
   </g>
   <g id="matplotlib.axis_1">
    <g id="xtick_1">
     <g id="line2d_1">
      <defs>
       <path d="M 0 0 
L 0 3.5 
" id="mbd43958726" style="stroke:#000000;stroke-width:0.8;"/>
      </defs>
      <g>
       <use style="stroke:#000000;stroke-width:0.8;" x="33.707661" xlink:href="#mbd43958726" y="170.44"/>
      </g>
     </g>
     <g id="text_1">
      <!-- −0.5 -->
      <defs>
       <path d="M 10.59375 35.5 
L 73.1875 35.5 
L 73.1875 27.203125 
L 10.59375 27.203125 
z
" id="DejaVuSans-8722"/>
       <path d="M 31.78125 66.40625 
Q 24.171875 66.40625 20.328125 58.90625 
Q 16.5 51.421875 16.5 36.375 
Q 16.5 21.390625 20.328125 13.890625 
Q 24.171875 6.390625 31.78125 6.390625 
Q 39.453125 6.390625 43.28125 13.890625 
Q 47.125 21.390625 47.125 36.375 
Q 47.125 51.421875 43.28125 58.90625 
Q 39.453125 66.40625 31.78125 66.40625 
z
M 31.78125 74.21875 
Q 44.046875 74.21875 50.515625 64.515625 
Q 56.984375 54.828125 56.984375 36.375 
Q 56.984375 17.96875 50.515625 8.265625 
Q 44.046875 -1.421875 31.78125 -1.421875 
Q 19.53125 -1.421875 13.0625 8.265625 
Q 6.59375 17.96875 6.59375 36.375 
Q 6.59375 54.828125 13.0625 64.515625 
Q 19.53125 74.21875 31.78125 74.21875 
z
" id="DejaVuSans-48"/>
       <path d="M 10.6875 12.40625 
L 21 12.40625 
L 21 0 
L 10.6875 0 
z
" id="DejaVuSans-46"/>
       <path d="M 10.796875 72.90625 
L 49.515625 72.90625 
L 49.515625 64.59375 
L 19.828125 64.59375 
L 19.828125 46.734375 
Q 21.96875 47.46875 24.109375 47.828125 
Q 26.265625 48.1875 28.421875 48.1875 
Q 40.625 48.1875 47.75 41.5 
Q 54.890625 34.8125 54.890625 23.390625 
Q 54.890625 11.625 47.5625 5.09375 
Q 40.234375 -1.421875 26.90625 -1.421875 
Q 22.3125 -1.421875 17.546875 -0.640625 
Q 12.796875 0.140625 7.71875 1.703125 
L 7.71875 11.625 
Q 12.109375 9.234375 16.796875 8.0625 
Q 21.484375 6.890625 26.703125 6.890625 
Q 35.15625 6.890625 40.078125 11.328125 
Q 45.015625 15.765625 45.015625 23.390625 
Q 45.015625 31 40.078125 35.4375 
Q 35.15625 39.890625 26.703125 39.890625 
Q 22.75 39.890625 18.8125 39.015625 
Q 14.890625 38.140625 10.796875 36.28125 
z
" id="DejaVuSans-53"/>
      </defs>
      <g transform="translate(21.566255 185.038437)scale(0.1 -0.1)">
       <use xlink:href="#DejaVuSans-8722"/>
       <use x="83.789062" xlink:href="#DejaVuSans-48"/>
       <use x="147.412109" xlink:href="#DejaVuSans-46"/>
       <use x="179.199219" xlink:href="#DejaVuSans-53"/>
      </g>
     </g>
    </g>
    <g id="xtick_2">
     <g id="line2d_2">
      <g>
       <use style="stroke:#000000;stroke-width:0.8;" x="120.835353" xlink:href="#mbd43958726" y="170.44"/>
      </g>
     </g>
     <g id="text_2">
      <!-- 0.0 -->
      <g transform="translate(112.88379 185.038437)scale(0.1 -0.1)">
       <use xlink:href="#DejaVuSans-48"/>
       <use x="63.623047" xlink:href="#DejaVuSans-46"/>
       <use x="95.410156" xlink:href="#DejaVuSans-48"/>
      </g>
     </g>
    </g>
    <g id="xtick_3">
     <g id="line2d_3">
      <g>
       <use style="stroke:#000000;stroke-width:0.8;" x="207.963044" xlink:href="#mbd43958726" y="170.44"/>
      </g>
     </g>
     <g id="text_3">
      <!-- 0.5 -->
      <g transform="translate(200.011482 185.038437)scale(0.1 -0.1)">
       <use xlink:href="#DejaVuSans-48"/>
       <use x="63.623047" xlink:href="#DejaVuSans-46"/>
       <use x="95.410156" xlink:href="#DejaVuSans-53"/>
      </g>
     </g>
    </g>
    <g id="xtick_4">
     <g id="line2d_4">
      <g>
       <use style="stroke:#000000;stroke-width:0.8;" x="295.090735" xlink:href="#mbd43958726" y="170.44"/>
      </g>
     </g>
     <g id="text_4">
      <!-- 1.0 -->
      <defs>
       <path d="M 12.40625 8.296875 
L 28.515625 8.296875 
L 28.515625 63.921875 
L 10.984375 60.40625 
L 10.984375 69.390625 
L 28.421875 72.90625 
L 38.28125 72.90625 
L 38.28125 8.296875 
L 54.390625 8.296875 
L 54.390625 0 
L 12.40625 0 
z
" id="DejaVuSans-49"/>
      </defs>
      <g transform="translate(287.139173 185.038437)scale(0.1 -0.1)">
       <use xlink:href="#DejaVuSans-49"/>
       <use x="63.623047" xlink:href="#DejaVuSans-46"/>
       <use x="95.410156" xlink:href="#DejaVuSans-48"/>
      </g>
     </g>
    </g>
    <g id="xtick_5">
     <g id="line2d_5">
      <g>
       <use style="stroke:#000000;stroke-width:0.8;" x="382.218427" xlink:href="#mbd43958726" y="170.44"/>
      </g>
     </g>
     <g id="text_5">
      <!-- 1.5 -->
      <g transform="translate(374.266864 185.038437)scale(0.1 -0.1)">
       <use xlink:href="#DejaVuSans-49"/>
       <use x="63.623047" xlink:href="#DejaVuSans-46"/>
       <use x="95.410156" xlink:href="#DejaVuSans-53"/>
      </g>
     </g>
    </g>
    <g id="xtick_6">
     <g id="line2d_6">
      <g>
       <use style="stroke:#000000;stroke-width:0.8;" x="469.346118" xlink:href="#mbd43958726" y="170.44"/>
      </g>
     </g>
     <g id="text_6">
      <!-- 2.0 -->
      <defs>
       <path d="M 19.1875 8.296875 
L 53.609375 8.296875 
L 53.609375 0 
L 7.328125 0 
L 7.328125 8.296875 
Q 12.9375 14.109375 22.625 23.890625 
Q 32.328125 33.6875 34.8125 36.53125 
Q 39.546875 41.84375 41.421875 45.53125 
Q 43.3125 49.21875 43.3125 52.78125 
Q 43.3125 58.59375 39.234375 62.25 
Q 35.15625 65.921875 28.609375 65.921875 
Q 23.96875 65.921875 18.8125 64.3125 
Q 13.671875 62.703125 7.8125 59.421875 
L 7.8125 69.390625 
Q 13.765625 71.78125 18.9375 73 
Q 24.125 74.21875 28.421875 74.21875 
Q 39.75 74.21875 46.484375 68.546875 
Q 53.21875 62.890625 53.21875 53.421875 
Q 53.21875 48.921875 51.53125 44.890625 
Q 49.859375 40.875 45.40625 35.40625 
Q 44.1875 33.984375 37.640625 27.21875 
Q 31.109375 20.453125 19.1875 8.296875 
z
" id="DejaVuSans-50"/>
      </defs>
      <g transform="translate(461.394555 185.038437)scale(0.1 -0.1)">
       <use xlink:href="#DejaVuSans-50"/>
       <use x="63.623047" xlink:href="#DejaVuSans-46"/>
       <use x="95.410156" xlink:href="#DejaVuSans-48"/>
      </g>
     </g>
    </g>
    <g id="xtick_7">
     <g id="line2d_7">
      <g>
       <use style="stroke:#000000;stroke-width:0.8;" x="556.473809" xlink:href="#mbd43958726" y="170.44"/>
      </g>
     </g>
     <g id="text_7">
      <!-- 2.5 -->
      <g transform="translate(548.522247 185.038437)scale(0.1 -0.1)">
       <use xlink:href="#DejaVuSans-50"/>
       <use x="63.623047" xlink:href="#DejaVuSans-46"/>
       <use x="95.410156" xlink:href="#DejaVuSans-53"/>
      </g>
     </g>
    </g>
    <g id="text_8">
     <!-- Time (s) -->
     <defs>
      <path d="M -0.296875 72.90625 
L 61.375 72.90625 
L 61.375 64.59375 
L 35.5 64.59375 
L 35.5 0 
L 25.59375 0 
L 25.59375 64.59375 
L -0.296875 64.59375 
z
" id="DejaVuSans-84"/>
      <path d="M 9.421875 54.6875 
L 18.40625 54.6875 
L 18.40625 0 
L 9.421875 0 
z
M 9.421875 75.984375 
L 18.40625 75.984375 
L 18.40625 64.59375 
L 9.421875 64.59375 
z
" id="DejaVuSans-105"/>
      <path d="M 52 44.1875 
Q 55.375 50.25 60.0625 53.125 
Q 64.75 56 71.09375 56 
Q 79.640625 56 84.28125 50.015625 
Q 88.921875 44.046875 88.921875 33.015625 
L 88.921875 0 
L 79.890625 0 
L 79.890625 32.71875 
Q 79.890625 40.578125 77.09375 44.375 
Q 74.3125 48.1875 68.609375 48.1875 
Q 61.625 48.1875 57.5625 43.546875 
Q 53.515625 38.921875 53.515625 30.90625 
L 53.515625 0 
L 44.484375 0 
L 44.484375 32.71875 
Q 44.484375 40.625 41.703125 44.40625 
Q 38.921875 48.1875 33.109375 48.1875 
Q 26.21875 48.1875 22.15625 43.53125 
Q 18.109375 38.875 18.109375 30.90625 
L 18.109375 0 
L 9.078125 0 
L 9.078125 54.6875 
L 18.109375 54.6875 
L 18.109375 46.1875 
Q 21.1875 51.21875 25.484375 53.609375 
Q 29.78125 56 35.6875 56 
Q 41.65625 56 45.828125 52.96875 
Q 50 49.953125 52 44.1875 
z
" id="DejaVuSans-109"/>
      <path d="M 56.203125 29.59375 
L 56.203125 25.203125 
L 14.890625 25.203125 
Q 15.484375 15.921875 20.484375 11.0625 
Q 25.484375 6.203125 34.421875 6.203125 
Q 39.59375 6.203125 44.453125 7.46875 
Q 49.3125 8.734375 54.109375 11.28125 
L 54.109375 2.78125 
Q 49.265625 0.734375 44.1875 -0.34375 
Q 39.109375 -1.421875 33.890625 -1.421875 
Q 20.796875 -1.421875 13.15625 6.1875 
Q 5.515625 13.8125 5.515625 26.8125 
Q 5.515625 40.234375 12.765625 48.109375 
Q 20.015625 56 32.328125 56 
Q 43.359375 56 49.78125 48.890625 
Q 56.203125 41.796875 56.203125 29.59375 
z
M 47.21875 32.234375 
Q 47.125 39.59375 43.09375 43.984375 
Q 39.0625 48.390625 32.421875 48.390625 
Q 24.90625 48.390625 20.390625 44.140625 
Q 15.875 39.890625 15.1875 32.171875 
z
" id="DejaVuSans-101"/>
      <path id="DejaVuSans-32"/>
      <path d="M 31 75.875 
Q 24.46875 64.65625 21.28125 53.65625 
Q 18.109375 42.671875 18.109375 31.390625 
Q 18.109375 20.125 21.3125 9.0625 
Q 24.515625 -2 31 -13.1875 
L 23.1875 -13.1875 
Q 15.875 -1.703125 12.234375 9.375 
Q 8.59375 20.453125 8.59375 31.390625 
Q 8.59375 42.28125 12.203125 53.3125 
Q 15.828125 64.359375 23.1875 75.875 
z
" id="DejaVuSans-40"/>
      <path d="M 44.28125 53.078125 
L 44.28125 44.578125 
Q 40.484375 46.53125 36.375 47.5 
Q 32.28125 48.484375 27.875 48.484375 
Q 21.1875 48.484375 17.84375 46.4375 
Q 14.5 44.390625 14.5 40.28125 
Q 14.5 37.15625 16.890625 35.375 
Q 19.28125 33.59375 26.515625 31.984375 
L 29.59375 31.296875 
Q 39.15625 29.25 43.1875 25.515625 
Q 47.21875 21.78125 47.21875 15.09375 
Q 47.21875 7.46875 41.1875 3.015625 
Q 35.15625 -1.421875 24.609375 -1.421875 
Q 20.21875 -1.421875 15.453125 -0.5625 
Q 10.6875 0.296875 5.421875 2 
L 5.421875 11.28125 
Q 10.40625 8.6875 15.234375 7.390625 
Q 20.0625 6.109375 24.8125 6.109375 
Q 31.15625 6.109375 34.5625 8.28125 
Q 37.984375 10.453125 37.984375 14.40625 
Q 37.984375 18.0625 35.515625 20.015625 
Q 33.0625 21.96875 24.703125 23.78125 
L 21.578125 24.515625 
Q 13.234375 26.265625 9.515625 29.90625 
Q 5.8125 33.546875 5.8125 39.890625 
Q 5.8125 47.609375 11.28125 51.796875 
Q 16.75 56 26.8125 56 
Q 31.78125 56 36.171875 55.265625 
Q 40.578125 54.546875 44.28125 53.078125 
z
" id="DejaVuSans-115"/>
      <path d="M 8.015625 75.875 
L 15.828125 75.875 
Q 23.140625 64.359375 26.78125 53.3125 
Q 30.421875 42.28125 30.421875 31.390625 
Q 30.421875 20.453125 26.78125 9.375 
Q 23.140625 -1.703125 15.828125 -13.1875 
L 8.015625 -13.1875 
Q 14.5 -2 17.703125 9.0625 
Q 20.90625 20.125 20.90625 31.390625 
Q 20.90625 42.671875 17.703125 53.65625 
Q 14.5 64.65625 8.015625 75.875 
z
" id="DejaVuSans-41"/>
     </defs>
     <g transform="translate(265.595485 202.059875)scale(0.144 -0.144)">
      <use xlink:href="#DejaVuSans-84"/>
      <use x="61.037109" xlink:href="#DejaVuSans-105"/>
      <use x="88.820312" xlink:href="#DejaVuSans-109"/>
      <use x="186.232422" xlink:href="#DejaVuSans-101"/>
      <use x="247.755859" xlink:href="#DejaVuSans-32"/>
      <use x="279.542969" xlink:href="#DejaVuSans-40"/>
      <use x="318.556641" xlink:href="#DejaVuSans-115"/>
      <use x="370.65625" xlink:href="#DejaVuSans-41"/>
     </g>
    </g>
   </g>
   <g id="matplotlib.axis_2">
    <g id="text_9">
     <!-- Cells -->
     <defs>
      <path d="M 64.40625 67.28125 
L 64.40625 56.890625 
Q 59.421875 61.53125 53.78125 63.8125 
Q 48.140625 66.109375 41.796875 66.109375 
Q 29.296875 66.109375 22.65625 58.46875 
Q 16.015625 50.828125 16.015625 36.375 
Q 16.015625 21.96875 22.65625 14.328125 
Q 29.296875 6.6875 41.796875 6.6875 
Q 48.140625 6.6875 53.78125 8.984375 
Q 59.421875 11.28125 64.40625 15.921875 
L 64.40625 5.609375 
Q 59.234375 2.09375 53.4375 0.328125 
Q 47.65625 -1.421875 41.21875 -1.421875 
Q 24.65625 -1.421875 15.125 8.703125 
Q 5.609375 18.84375 5.609375 36.375 
Q 5.609375 53.953125 15.125 64.078125 
Q 24.65625 74.21875 41.21875 74.21875 
Q 47.75 74.21875 53.53125 72.484375 
Q 59.328125 70.75 64.40625 67.28125 
z
" id="DejaVuSans-67"/>
      <path d="M 9.421875 75.984375 
L 18.40625 75.984375 
L 18.40625 0 
L 9.421875 0 
z
" id="DejaVuSans-108"/>
     </defs>
     <g transform="translate(21.48525 116.229125)rotate(-90)scale(0.144 -0.144)">
      <use xlink:href="#DejaVuSans-67"/>
      <use x="69.824219" xlink:href="#DejaVuSans-101"/>
      <use x="131.347656" xlink:href="#DejaVuSans-108"/>
      <use x="159.130859" xlink:href="#DejaVuSans-108"/>
      <use x="186.914062" xlink:href="#DejaVuSans-115"/>
     </g>
    </g>
   </g>
   <g id="LineCollection_1">
    <path clip-path="url(#p5addd901ef)" d="M 96.799727 170.44 
L 96.799727 166.238824 
" style="fill:none;stroke:#000000;stroke-width:1.5;"/>
    <path clip-path="url(#p5addd901ef)" d="M 107.911412 170.44 
L 107.911412 166.238824 
" style="fill:none;stroke:#000000;stroke-width:1.5;"/>
    <path clip-path="url(#p5addd901ef)" d="M 109.601689 170.44 
L 109.601689 166.238824 
" style="fill:none;stroke:#000000;stroke-width:1.5;"/>
    <path clip-path="url(#p5addd901ef)" d="M 112.442052 170.44 
L 112.442052 166.238824 
" style="fill:none;stroke:#000000;stroke-width:1.5;"/>
    <path clip-path="url(#p5addd901ef)" d="M 114.962946 170.44 
L 114.962946 166.238824 
" style="fill:none;stroke:#000000;stroke-width:1.5;"/>
    <path clip-path="url(#p5addd901ef)" d="M 277.502559 170.44 
L 277.502559 166.238824 
" style="fill:none;stroke:#000000;stroke-width:1.5;"/>
    <path clip-path="url(#p5addd901ef)" d="M 345.113647 170.44 
L 345.113647 166.238824 
" style="fill:none;stroke:#000000;stroke-width:1.5;"/>
    <path clip-path="url(#p5addd901ef)" d="M 378.02468 170.44 
L 378.02468 166.238824 
" style="fill:none;stroke:#000000;stroke-width:1.5;"/>
    <path clip-path="url(#p5addd901ef)" d="M 452.303941 170.44 
L 452.303941 166.238824 
" style="fill:none;stroke:#000000;stroke-width:1.5;"/>
    <path clip-path="url(#p5addd901ef)" d="M 523.04001 170.44 
L 523.04001 166.238824 
" style="fill:none;stroke:#000000;stroke-width:1.5;"/>
    <path clip-path="url(#p5addd901ef)" d="M 551.11836 170.44 
L 551.11836 166.238824 
" style="fill:none;stroke:#000000;stroke-width:1.5;"/>
   </g>
   <g id="LineCollection_2">
    <path clip-path="url(#p5addd901ef)" d="M 104.391453 166.238824 
L 104.391453 162.037647 
" style="fill:none;stroke:#000000;stroke-width:1.5;"/>
    <path clip-path="url(#p5addd901ef)" d="M 132.463995 166.238824 
L 132.463995 162.037647 
" style="fill:none;stroke:#000000;stroke-width:1.5;"/>
    <path clip-path="url(#p5addd901ef)" d="M 175.412139 166.238824 
L 175.412139 162.037647 
" style="fill:none;stroke:#000000;stroke-width:1.5;"/>
    <path clip-path="url(#p5addd901ef)" d="M 177.607756 166.238824 
L 177.607756 162.037647 
" style="fill:none;stroke:#000000;stroke-width:1.5;"/>
    <path clip-path="url(#p5addd901ef)" d="M 201.521403 166.238824 
L 201.521403 162.037647 
" style="fill:none;stroke:#000000;stroke-width:1.5;"/>
    <path clip-path="url(#p5addd901ef)" d="M 203.165212 166.238824 
L 203.165212 162.037647 
" style="fill:none;stroke:#000000;stroke-width:1.5;"/>
    <path clip-path="url(#p5addd901ef)" d="M 204.663809 166.238824 
L 204.663809 162.037647 
" style="fill:none;stroke:#000000;stroke-width:1.5;"/>
    <path clip-path="url(#p5addd901ef)" d="M 209.240917 166.238824 
L 209.240917 162.037647 
" style="fill:none;stroke:#000000;stroke-width:1.5;"/>
    <path clip-path="url(#p5addd901ef)" d="M 212.969982 166.238824 
L 212.969982 162.037647 
" style="fill:none;stroke:#000000;stroke-width:1.5;"/>
    <path clip-path="url(#p5addd901ef)" d="M 216.786175 166.238824 
L 216.786175 162.037647 
" style="fill:none;stroke:#000000;stroke-width:1.5;"/>
    <path clip-path="url(#p5addd901ef)" d="M 227.235689 166.238824 
L 227.235689 162.037647 
" style="fill:none;stroke:#000000;stroke-width:1.5;"/>
    <path clip-path="url(#p5addd901ef)" d="M 233.102287 166.238824 
L 233.102287 162.037647 
" style="fill:none;stroke:#000000;stroke-width:1.5;"/>
    <path clip-path="url(#p5addd901ef)" d="M 241.693078 166.238824 
L 241.693078 162.037647 
" style="fill:none;stroke:#000000;stroke-width:1.5;"/>
    <path clip-path="url(#p5addd901ef)" d="M 254.18138 166.238824 
L 254.18138 162.037647 
" style="fill:none;stroke:#000000;stroke-width:1.5;"/>
    <path clip-path="url(#p5addd901ef)" d="M 263.881596 166.238824 
L 263.881596 162.037647 
" style="fill:none;stroke:#000000;stroke-width:1.5;"/>
    <path clip-path="url(#p5addd901ef)" d="M 274.052302 166.238824 
L 274.052302 162.037647 
" style="fill:none;stroke:#000000;stroke-width:1.5;"/>
    <path clip-path="url(#p5addd901ef)" d="M 274.633153 166.238824 
L 274.633153 162.037647 
" style="fill:none;stroke:#000000;stroke-width:1.5;"/>
    <path clip-path="url(#p5addd901ef)" d="M 276.015579 166.238824 
L 276.015579 162.037647 
" style="fill:none;stroke:#000000;stroke-width:1.5;"/>
    <path clip-path="url(#p5addd901ef)" d="M 280.069921 166.238824 
L 280.069921 162.037647 
" style="fill:none;stroke:#000000;stroke-width:1.5;"/>
    <path clip-path="url(#p5addd901ef)" d="M 330.685301 166.238824 
L 330.685301 162.037647 
" style="fill:none;stroke:#000000;stroke-width:1.5;"/>
    <path clip-path="url(#p5addd901ef)" d="M 337.028197 166.238824 
L 337.028197 162.037647 
" style="fill:none;stroke:#000000;stroke-width:1.5;"/>
    <path clip-path="url(#p5addd901ef)" d="M 345.392456 166.238824 
L 345.392456 162.037647 
" style="fill:none;stroke:#000000;stroke-width:1.5;"/>
    <path clip-path="url(#p5addd901ef)" d="M 416.140141 166.238824 
L 416.140141 162.037647 
" style="fill:none;stroke:#000000;stroke-width:1.5;"/>
    <path clip-path="url(#p5addd901ef)" d="M 423.528569 166.238824 
L 423.528569 162.037647 
" style="fill:none;stroke:#000000;stroke-width:1.5;"/>
    <path clip-path="url(#p5addd901ef)" d="M 425.43957 166.238824 
L 425.43957 162.037647 
" style="fill:none;stroke:#000000;stroke-width:1.5;"/>
    <path clip-path="url(#p5addd901ef)" d="M 431.637253 166.238824 
L 431.637253 162.037647 
" style="fill:none;stroke:#000000;stroke-width:1.5;"/>
    <path clip-path="url(#p5addd901ef)" d="M 456.939135 166.238824 
L 456.939135 162.037647 
" style="fill:none;stroke:#000000;stroke-width:1.5;"/>
    <path clip-path="url(#p5addd901ef)" d="M 459.69237 166.238824 
L 459.69237 162.037647 
" style="fill:none;stroke:#000000;stroke-width:1.5;"/>
    <path clip-path="url(#p5addd901ef)" d="M 461.783434 166.238824 
L 461.783434 162.037647 
" style="fill:none;stroke:#000000;stroke-width:1.5;"/>
    <path clip-path="url(#p5addd901ef)" d="M 464.670265 166.238824 
L 464.670265 162.037647 
" style="fill:none;stroke:#000000;stroke-width:1.5;"/>
    <path clip-path="url(#p5addd901ef)" d="M 482.566293 166.238824 
L 482.566293 162.037647 
" style="fill:none;stroke:#000000;stroke-width:1.5;"/>
    <path clip-path="url(#p5addd901ef)" d="M 487.486103 166.238824 
L 487.486103 162.037647 
" style="fill:none;stroke:#000000;stroke-width:1.5;"/>
    <path clip-path="url(#p5addd901ef)" d="M 498.133107 166.238824 
L 498.133107 162.037647 
" style="fill:none;stroke:#000000;stroke-width:1.5;"/>
    <path clip-path="url(#p5addd901ef)" d="M 500.084767 166.238824 
L 500.084767 162.037647 
" style="fill:none;stroke:#000000;stroke-width:1.5;"/>
    <path clip-path="url(#p5addd901ef)" d="M 504.05779 166.238824 
L 504.05779 162.037647 
" style="fill:none;stroke:#000000;stroke-width:1.5;"/>
    <path clip-path="url(#p5addd901ef)" d="M 512.851878 166.238824 
L 512.851878 162.037647 
" style="fill:none;stroke:#000000;stroke-width:1.5;"/>
    <path clip-path="url(#p5addd901ef)" d="M 515.442475 166.238824 
L 515.442475 162.037647 
" style="fill:none;stroke:#000000;stroke-width:1.5;"/>
    <path clip-path="url(#p5addd901ef)" d="M 517.010773 166.238824 
L 517.010773 162.037647 
" style="fill:none;stroke:#000000;stroke-width:1.5;"/>
    <path clip-path="url(#p5addd901ef)" d="M 549.462934 166.238824 
L 549.462934 162.037647 
" style="fill:none;stroke:#000000;stroke-width:1.5;"/>
    <path clip-path="url(#p5addd901ef)" d="M 559.616215 166.238824 
L 559.616215 162.037647 
" style="fill:none;stroke:#000000;stroke-width:1.5;"/>
   </g>
   <g id="LineCollection_3">
    <path clip-path="url(#p5addd901ef)" d="M 99.523919 162.037647 
L 99.523919 157.836471 
" style="fill:none;stroke:#000000;stroke-width:1.5;"/>
   </g>
   <g id="LineCollection_4">
    <path clip-path="url(#p5addd901ef)" d="M 182.974822 153.635294 
L 182.974822 149.434118 
" style="fill:none;stroke:#000000;stroke-width:1.5;"/>
    <path clip-path="url(#p5addd901ef)" d="M 186.006866 153.635294 
L 186.006866 149.434118 
" style="fill:none;stroke:#000000;stroke-width:1.5;"/>
    <path clip-path="url(#p5addd901ef)" d="M 187.894632 153.635294 
L 187.894632 149.434118 
" style="fill:none;stroke:#000000;stroke-width:1.5;"/>
    <path clip-path="url(#p5addd901ef)" d="M 189.869527 153.635294 
L 189.869527 149.434118 
" style="fill:none;stroke:#000000;stroke-width:1.5;"/>
    <path clip-path="url(#p5addd901ef)" d="M 203.083893 153.635294 
L 203.083893 149.434118 
" style="fill:none;stroke:#000000;stroke-width:1.5;"/>
   </g>
   <g id="LineCollection_5">
    <path clip-path="url(#p5addd901ef)" d="M 408.507755 149.434118 
L 408.507755 145.232941 
" style="fill:none;stroke:#000000;stroke-width:1.5;"/>
   </g>
   <g id="LineCollection_6">
    <path clip-path="url(#p5addd901ef)" d="M 103.723474 141.031765 
L 103.723474 136.830588 
" style="fill:none;stroke:#000000;stroke-width:1.5;"/>
    <path clip-path="url(#p5addd901ef)" d="M 172.606627 141.031765 
L 172.606627 136.830588 
" style="fill:none;stroke:#000000;stroke-width:1.5;"/>
    <path clip-path="url(#p5addd901ef)" d="M 195.63738 141.031765 
L 195.63738 136.830588 
" style="fill:none;stroke:#000000;stroke-width:1.5;"/>
    <path clip-path="url(#p5addd901ef)" d="M 453.529538 141.031765 
L 453.529538 136.830588 
" style="fill:none;stroke:#000000;stroke-width:1.5;"/>
    <path clip-path="url(#p5addd901ef)" d="M 481.212909 141.031765 
L 481.212909 136.830588 
" style="fill:none;stroke:#000000;stroke-width:1.5;"/>
    <path clip-path="url(#p5addd901ef)" d="M 558.925001 141.031765 
L 558.925001 136.830588 
" style="fill:none;stroke:#000000;stroke-width:1.5;"/>
   </g>
   <g id="LineCollection_7">
    <path clip-path="url(#p5addd901ef)" d="M 127.282802 136.830588 
L 127.282802 132.629412 
" style="fill:none;stroke:#000000;stroke-width:1.5;"/>
    <path clip-path="url(#p5addd901ef)" d="M 128.374802 136.830588 
L 128.374802 132.629412 
" style="fill:none;stroke:#000000;stroke-width:1.5;"/>
    <path clip-path="url(#p5addd901ef)" d="M 129.623633 136.830588 
L 129.623633 132.629412 
" style="fill:none;stroke:#000000;stroke-width:1.5;"/>
    <path clip-path="url(#p5addd901ef)" d="M 130.756293 136.830588 
L 130.756293 132.629412 
" style="fill:none;stroke:#000000;stroke-width:1.5;"/>
    <path clip-path="url(#p5addd901ef)" d="M 131.552059 136.830588 
L 131.552059 132.629412 
" style="fill:none;stroke:#000000;stroke-width:1.5;"/>
    <path clip-path="url(#p5addd901ef)" d="M 132.214229 136.830588 
L 132.214229 132.629412 
" style="fill:none;stroke:#000000;stroke-width:1.5;"/>
    <path clip-path="url(#p5addd901ef)" d="M 132.969336 136.830588 
L 132.969336 132.629412 
" style="fill:none;stroke:#000000;stroke-width:1.5;"/>
    <path clip-path="url(#p5addd901ef)" d="M 133.980017 136.830588 
L 133.980017 132.629412 
" style="fill:none;stroke:#000000;stroke-width:1.5;"/>
    <path clip-path="url(#p5addd901ef)" d="M 135.29855 136.830588 
L 135.29855 132.629412 
" style="fill:none;stroke:#000000;stroke-width:1.5;"/>
    <path clip-path="url(#p5addd901ef)" d="M 136.11755 136.830588 
L 136.11755 132.629412 
" style="fill:none;stroke:#000000;stroke-width:1.5;"/>
    <path clip-path="url(#p5addd901ef)" d="M 137.09338 136.830588 
L 137.09338 132.629412 
" style="fill:none;stroke:#000000;stroke-width:1.5;"/>
    <path clip-path="url(#p5addd901ef)" d="M 161.953815 136.830588 
L 161.953815 132.629412 
" style="fill:none;stroke:#000000;stroke-width:1.5;"/>
    <path clip-path="url(#p5addd901ef)" d="M 164.579262 136.830588 
L 164.579262 132.629412 
" style="fill:none;stroke:#000000;stroke-width:1.5;"/>
    <path clip-path="url(#p5addd901ef)" d="M 165.398263 136.830588 
L 165.398263 132.629412 
" style="fill:none;stroke:#000000;stroke-width:1.5;"/>
    <path clip-path="url(#p5addd901ef)" d="M 171.038328 136.830588 
L 171.038328 132.629412 
" style="fill:none;stroke:#000000;stroke-width:1.5;"/>
    <path clip-path="url(#p5addd901ef)" d="M 173.001606 136.830588 
L 173.001606 132.629412 
" style="fill:none;stroke:#000000;stroke-width:1.5;"/>
    <path clip-path="url(#p5addd901ef)" d="M 174.790628 136.830588 
L 174.790628 132.629412 
" style="fill:none;stroke:#000000;stroke-width:1.5;"/>
    <path clip-path="url(#p5addd901ef)" d="M 175.5225 136.830588 
L 175.5225 132.629412 
" style="fill:none;stroke:#000000;stroke-width:1.5;"/>
    <path clip-path="url(#p5addd901ef)" d="M 177.35799 136.830588 
L 177.35799 132.629412 
" style="fill:none;stroke:#000000;stroke-width:1.5;"/>
    <path clip-path="url(#p5addd901ef)" d="M 178.362863 136.830588 
L 178.362863 132.629412 
" style="fill:none;stroke:#000000;stroke-width:1.5;"/>
    <path clip-path="url(#p5addd901ef)" d="M 184.601206 136.830588 
L 184.601206 132.629412 
" style="fill:none;stroke:#000000;stroke-width:1.5;"/>
    <path clip-path="url(#p5addd901ef)" d="M 188.655548 136.830588 
L 188.655548 132.629412 
" style="fill:none;stroke:#000000;stroke-width:1.5;"/>
    <path clip-path="url(#p5addd901ef)" d="M 193.534698 136.830588 
L 193.534698 132.629412 
" style="fill:none;stroke:#000000;stroke-width:1.5;"/>
    <path clip-path="url(#p5addd901ef)" d="M 194.574422 136.830588 
L 194.574422 132.629412 
" style="fill:none;stroke:#000000;stroke-width:1.5;"/>
    <path clip-path="url(#p5addd901ef)" d="M 197.037232 136.830588 
L 197.037232 132.629412 
" style="fill:none;stroke:#000000;stroke-width:1.5;"/>
    <path clip-path="url(#p5addd901ef)" d="M 199.064402 136.830588 
L 199.064402 132.629412 
" style="fill:none;stroke:#000000;stroke-width:1.5;"/>
    <path clip-path="url(#p5addd901ef)" d="M 203.960979 136.830588 
L 203.960979 132.629412 
" style="fill:none;stroke:#000000;stroke-width:1.5;"/>
    <path clip-path="url(#p5addd901ef)" d="M 206.96398 136.830588 
L 206.96398 132.629412 
" style="fill:none;stroke:#000000;stroke-width:1.5;"/>
    <path clip-path="url(#p5addd901ef)" d="M 208.114065 136.830588 
L 208.114065 132.629412 
" style="fill:none;stroke:#000000;stroke-width:1.5;"/>
    <path clip-path="url(#p5addd901ef)" d="M 209.572002 136.830588 
L 209.572002 132.629412 
" style="fill:none;stroke:#000000;stroke-width:1.5;"/>
    <path clip-path="url(#p5addd901ef)" d="M 213.272025 136.830588 
L 213.272025 132.629412 
" style="fill:none;stroke:#000000;stroke-width:1.5;"/>
    <path clip-path="url(#p5addd901ef)" d="M 217.047558 136.830588 
L 217.047558 132.629412 
" style="fill:none;stroke:#000000;stroke-width:1.5;"/>
    <path clip-path="url(#p5addd901ef)" d="M 218.168601 136.830588 
L 218.168601 132.629412 
" style="fill:none;stroke:#000000;stroke-width:1.5;"/>
    <path clip-path="url(#p5addd901ef)" d="M 220.63141 136.830588 
L 220.63141 132.629412 
" style="fill:none;stroke:#000000;stroke-width:1.5;"/>
    <path clip-path="url(#p5addd901ef)" d="M 222.472709 136.830588 
L 222.472709 132.629412 
" style="fill:none;stroke:#000000;stroke-width:1.5;"/>
    <path clip-path="url(#p5addd901ef)" d="M 224.122326 136.830588 
L 224.122326 132.629412 
" style="fill:none;stroke:#000000;stroke-width:1.5;"/>
    <path clip-path="url(#p5addd901ef)" d="M 226.445732 136.830588 
L 226.445732 132.629412 
" style="fill:none;stroke:#000000;stroke-width:1.5;"/>
    <path clip-path="url(#p5addd901ef)" d="M 230.912478 136.830588 
L 230.912478 132.629412 
" style="fill:none;stroke:#000000;stroke-width:1.5;"/>
    <path clip-path="url(#p5addd901ef)" d="M 234.176862 136.830588 
L 234.176862 132.629412 
" style="fill:none;stroke:#000000;stroke-width:1.5;"/>
    <path clip-path="url(#p5addd901ef)" d="M 235.175926 136.830588 
L 235.175926 132.629412 
" style="fill:none;stroke:#000000;stroke-width:1.5;"/>
    <path clip-path="url(#p5addd901ef)" d="M 236.651289 136.830588 
L 236.651289 132.629412 
" style="fill:none;stroke:#000000;stroke-width:1.5;"/>
    <path clip-path="url(#p5addd901ef)" d="M 237.603885 136.830588 
L 237.603885 132.629412 
" style="fill:none;stroke:#000000;stroke-width:1.5;"/>
    <path clip-path="url(#p5addd901ef)" d="M 238.411268 136.830588 
L 238.411268 132.629412 
" style="fill:none;stroke:#000000;stroke-width:1.5;"/>
    <path clip-path="url(#p5addd901ef)" d="M 240.281609 136.830588 
L 240.281609 132.629412 
" style="fill:none;stroke:#000000;stroke-width:1.5;"/>
    <path clip-path="url(#p5addd901ef)" d="M 241.379418 136.830588 
L 241.379418 132.629412 
" style="fill:none;stroke:#000000;stroke-width:1.5;"/>
    <path clip-path="url(#p5addd901ef)" d="M 242.256503 136.830588 
L 242.256503 132.629412 
" style="fill:none;stroke:#000000;stroke-width:1.5;"/>
    <path clip-path="url(#p5addd901ef)" d="M 243.952589 136.830588 
L 243.952589 132.629412 
" style="fill:none;stroke:#000000;stroke-width:1.5;"/>
    <path clip-path="url(#p5addd901ef)" d="M 244.812249 136.830588 
L 244.812249 132.629412 
" style="fill:none;stroke:#000000;stroke-width:1.5;"/>
    <path clip-path="url(#p5addd901ef)" d="M 246.061079 136.830588 
L 246.061079 132.629412 
" style="fill:none;stroke:#000000;stroke-width:1.5;"/>
    <path clip-path="url(#p5addd901ef)" d="M 246.973016 136.830588 
L 246.973016 132.629412 
" style="fill:none;stroke:#000000;stroke-width:1.5;"/>
    <path clip-path="url(#p5addd901ef)" d="M 247.919803 136.830588 
L 247.919803 132.629412 
" style="fill:none;stroke:#000000;stroke-width:1.5;"/>
    <path clip-path="url(#p5addd901ef)" d="M 250.806634 136.830588 
L 250.806634 132.629412 
" style="fill:none;stroke:#000000;stroke-width:1.5;"/>
    <path clip-path="url(#p5addd901ef)" d="M 253.397231 136.830588 
L 253.397231 132.629412 
" style="fill:none;stroke:#000000;stroke-width:1.5;"/>
    <path clip-path="url(#p5addd901ef)" d="M 254.22204 136.830588 
L 254.22204 132.629412 
" style="fill:none;stroke:#000000;stroke-width:1.5;"/>
    <path clip-path="url(#p5addd901ef)" d="M 255.343083 136.830588 
L 255.343083 132.629412 
" style="fill:none;stroke:#000000;stroke-width:1.5;"/>
    <path clip-path="url(#p5addd901ef)" d="M 260.175765 136.830588 
L 260.175765 132.629412 
" style="fill:none;stroke:#000000;stroke-width:1.5;"/>
    <path clip-path="url(#p5addd901ef)" d="M 262.568872 136.830588 
L 262.568872 132.629412 
" style="fill:none;stroke:#000000;stroke-width:1.5;"/>
    <path clip-path="url(#p5addd901ef)" d="M 264.590235 136.830588 
L 264.590235 132.629412 
" style="fill:none;stroke:#000000;stroke-width:1.5;"/>
    <path clip-path="url(#p5addd901ef)" d="M 269.643641 136.830588 
L 269.643641 132.629412 
" style="fill:none;stroke:#000000;stroke-width:1.5;"/>
    <path clip-path="url(#p5addd901ef)" d="M 271.142237 136.830588 
L 271.142237 132.629412 
" style="fill:none;stroke:#000000;stroke-width:1.5;"/>
    <path clip-path="url(#p5addd901ef)" d="M 272.524663 136.830588 
L 272.524663 132.629412 
" style="fill:none;stroke:#000000;stroke-width:1.5;"/>
    <path clip-path="url(#p5addd901ef)" d="M 273.610855 136.830588 
L 273.610855 132.629412 
" style="fill:none;stroke:#000000;stroke-width:1.5;"/>
    <path clip-path="url(#p5addd901ef)" d="M 275.876175 136.830588 
L 275.876175 132.629412 
" style="fill:none;stroke:#000000;stroke-width:1.5;"/>
    <path clip-path="url(#p5addd901ef)" d="M 279.6459 136.830588 
L 279.6459 132.629412 
" style="fill:none;stroke:#000000;stroke-width:1.5;"/>
    <path clip-path="url(#p5addd901ef)" d="M 280.418432 136.830588 
L 280.418432 132.629412 
" style="fill:none;stroke:#000000;stroke-width:1.5;"/>
    <path clip-path="url(#p5addd901ef)" d="M 282.648901 136.830588 
L 282.648901 132.629412 
" style="fill:none;stroke:#000000;stroke-width:1.5;"/>
    <path clip-path="url(#p5addd901ef)" d="M 285.338242 136.830588 
L 285.338242 132.629412 
" style="fill:none;stroke:#000000;stroke-width:1.5;"/>
    <path clip-path="url(#p5addd901ef)" d="M 286.273413 136.830588 
L 286.273413 132.629412 
" style="fill:none;stroke:#000000;stroke-width:1.5;"/>
    <path clip-path="url(#p5addd901ef)" d="M 287.133073 136.830588 
L 287.133073 132.629412 
" style="fill:none;stroke:#000000;stroke-width:1.5;"/>
    <path clip-path="url(#p5addd901ef)" d="M 291.396521 136.830588 
L 291.396521 132.629412 
" style="fill:none;stroke:#000000;stroke-width:1.5;"/>
    <path clip-path="url(#p5addd901ef)" d="M 292.325883 136.830588 
L 292.325883 132.629412 
" style="fill:none;stroke:#000000;stroke-width:1.5;"/>
    <path clip-path="url(#p5addd901ef)" d="M 300.800503 136.830588 
L 300.800503 132.629412 
" style="fill:none;stroke:#000000;stroke-width:1.5;"/>
    <path clip-path="url(#p5addd901ef)" d="M 304.831611 136.830588 
L 304.831611 132.629412 
" style="fill:none;stroke:#000000;stroke-width:1.5;"/>
    <path clip-path="url(#p5addd901ef)" d="M 305.563484 136.830588 
L 305.563484 132.629412 
" style="fill:none;stroke:#000000;stroke-width:1.5;"/>
    <path clip-path="url(#p5addd901ef)" d="M 307.701016 136.830588 
L 307.701016 132.629412 
" style="fill:none;stroke:#000000;stroke-width:1.5;"/>
    <path clip-path="url(#p5addd901ef)" d="M 308.589719 136.830588 
L 308.589719 132.629412 
" style="fill:none;stroke:#000000;stroke-width:1.5;"/>
    <path clip-path="url(#p5addd901ef)" d="M 310.407783 136.830588 
L 310.407783 132.629412 
" style="fill:none;stroke:#000000;stroke-width:1.5;"/>
    <path clip-path="url(#p5addd901ef)" d="M 313.399167 136.830588 
L 313.399167 132.629412 
" style="fill:none;stroke:#000000;stroke-width:1.5;"/>
    <path clip-path="url(#p5addd901ef)" d="M 314.276253 136.830588 
L 314.276253 132.629412 
" style="fill:none;stroke:#000000;stroke-width:1.5;"/>
    <path clip-path="url(#p5addd901ef)" d="M 316.094317 136.830588 
L 316.094317 132.629412 
" style="fill:none;stroke:#000000;stroke-width:1.5;"/>
    <path clip-path="url(#p5addd901ef)" d="M 319.108936 136.830588 
L 319.108936 132.629412 
" style="fill:none;stroke:#000000;stroke-width:1.5;"/>
    <path clip-path="url(#p5addd901ef)" d="M 320.177702 136.830588 
L 320.177702 132.629412 
" style="fill:none;stroke:#000000;stroke-width:1.5;"/>
    <path clip-path="url(#p5addd901ef)" d="M 320.863106 136.830588 
L 320.863106 132.629412 
" style="fill:none;stroke:#000000;stroke-width:1.5;"/>
    <path clip-path="url(#p5addd901ef)" d="M 321.821511 136.830588 
L 321.821511 132.629412 
" style="fill:none;stroke:#000000;stroke-width:1.5;"/>
    <path clip-path="url(#p5addd901ef)" d="M 323.46532 136.830588 
L 323.46532 132.629412 
" style="fill:none;stroke:#000000;stroke-width:1.5;"/>
    <path clip-path="url(#p5addd901ef)" d="M 324.243661 136.830588 
L 324.243661 132.629412 
" style="fill:none;stroke:#000000;stroke-width:1.5;"/>
    <path clip-path="url(#p5addd901ef)" d="M 327.844939 136.830588 
L 327.844939 132.629412 
" style="fill:none;stroke:#000000;stroke-width:1.5;"/>
    <path clip-path="url(#p5addd901ef)" d="M 330.452961 136.830588 
L 330.452961 132.629412 
" style="fill:none;stroke:#000000;stroke-width:1.5;"/>
    <path clip-path="url(#p5addd901ef)" d="M 331.533344 136.830588 
L 331.533344 132.629412 
" style="fill:none;stroke:#000000;stroke-width:1.5;"/>
    <path clip-path="url(#p5addd901ef)" d="M 332.427855 136.830588 
L 332.427855 132.629412 
" style="fill:none;stroke:#000000;stroke-width:1.5;"/>
    <path clip-path="url(#p5addd901ef)" d="M 336.145303 136.830588 
L 336.145303 132.629412 
" style="fill:none;stroke:#000000;stroke-width:1.5;"/>
    <path clip-path="url(#p5addd901ef)" d="M 337.045623 136.830588 
L 337.045623 132.629412 
" style="fill:none;stroke:#000000;stroke-width:1.5;"/>
    <path clip-path="url(#p5addd901ef)" d="M 337.707793 136.830588 
L 337.707793 132.629412 
" style="fill:none;stroke:#000000;stroke-width:1.5;"/>
    <path clip-path="url(#p5addd901ef)" d="M 340.780497 136.830588 
L 340.780497 132.629412 
" style="fill:none;stroke:#000000;stroke-width:1.5;"/>
    <path clip-path="url(#p5addd901ef)" d="M 341.686625 136.830588 
L 341.686625 132.629412 
" style="fill:none;stroke:#000000;stroke-width:1.5;"/>
    <path clip-path="url(#p5addd901ef)" d="M 342.569519 136.830588 
L 342.569519 132.629412 
" style="fill:none;stroke:#000000;stroke-width:1.5;"/>
    <path clip-path="url(#p5addd901ef)" d="M 343.551157 136.830588 
L 343.551157 132.629412 
" style="fill:none;stroke:#000000;stroke-width:1.5;"/>
    <path clip-path="url(#p5addd901ef)" d="M 344.770945 136.830588 
L 344.770945 132.629412 
" style="fill:none;stroke:#000000;stroke-width:1.5;"/>
    <path clip-path="url(#p5addd901ef)" d="M 350.660777 136.830588 
L 350.660777 132.629412 
" style="fill:none;stroke:#000000;stroke-width:1.5;"/>
    <path clip-path="url(#p5addd901ef)" d="M 352.612437 136.830588 
L 352.612437 132.629412 
" style="fill:none;stroke:#000000;stroke-width:1.5;"/>
    <path clip-path="url(#p5addd901ef)" d="M 353.936778 136.830588 
L 353.936778 132.629412 
" style="fill:none;stroke:#000000;stroke-width:1.5;"/>
    <path clip-path="url(#p5addd901ef)" d="M 355.830353 136.830588 
L 355.830353 132.629412 
" style="fill:none;stroke:#000000;stroke-width:1.5;"/>
    <path clip-path="url(#p5addd901ef)" d="M 356.788758 136.830588 
L 356.788758 132.629412 
" style="fill:none;stroke:#000000;stroke-width:1.5;"/>
    <path clip-path="url(#p5addd901ef)" d="M 357.996928 136.830588 
L 357.996928 132.629412 
" style="fill:none;stroke:#000000;stroke-width:1.5;"/>
    <path clip-path="url(#p5addd901ef)" d="M 359.977631 136.830588 
L 359.977631 132.629412 
" style="fill:none;stroke:#000000;stroke-width:1.5;"/>
    <path clip-path="url(#p5addd901ef)" d="M 361.028972 136.830588 
L 361.028972 132.629412 
" style="fill:none;stroke:#000000;stroke-width:1.5;"/>
    <path clip-path="url(#p5addd901ef)" d="M 370.142529 136.830588 
L 370.142529 132.629412 
" style="fill:none;stroke:#000000;stroke-width:1.5;"/>
    <path clip-path="url(#p5addd901ef)" d="M 371.071891 136.830588 
L 371.071891 132.629412 
" style="fill:none;stroke:#000000;stroke-width:1.5;"/>
    <path clip-path="url(#p5addd901ef)" d="M 371.914125 136.830588 
L 371.914125 132.629412 
" style="fill:none;stroke:#000000;stroke-width:1.5;"/>
    <path clip-path="url(#p5addd901ef)" d="M 379.052787 136.830588 
L 379.052787 132.629412 
" style="fill:none;stroke:#000000;stroke-width:1.5;"/>
    <path clip-path="url(#p5addd901ef)" d="M 379.848553 136.830588 
L 379.848553 132.629412 
" style="fill:none;stroke:#000000;stroke-width:1.5;"/>
    <path clip-path="url(#p5addd901ef)" d="M 380.946362 136.830588 
L 380.946362 132.629412 
" style="fill:none;stroke:#000000;stroke-width:1.5;"/>
    <path clip-path="url(#p5addd901ef)" d="M 384.019066 136.830588 
L 384.019066 132.629412 
" style="fill:none;stroke:#000000;stroke-width:1.5;"/>
    <path clip-path="url(#p5addd901ef)" d="M 385.105257 136.830588 
L 385.105257 132.629412 
" style="fill:none;stroke:#000000;stroke-width:1.5;"/>
    <path clip-path="url(#p5addd901ef)" d="M 385.964917 136.830588 
L 385.964917 132.629412 
" style="fill:none;stroke:#000000;stroke-width:1.5;"/>
    <path clip-path="url(#p5addd901ef)" d="M 386.882662 136.830588 
L 386.882662 132.629412 
" style="fill:none;stroke:#000000;stroke-width:1.5;"/>
    <path clip-path="url(#p5addd901ef)" d="M 414.339502 136.830588 
L 414.339502 132.629412 
" style="fill:none;stroke:#000000;stroke-width:1.5;"/>
    <path clip-path="url(#p5addd901ef)" d="M 462.34686 136.830588 
L 462.34686 132.629412 
" style="fill:none;stroke:#000000;stroke-width:1.5;"/>
    <path clip-path="url(#p5addd901ef)" d="M 549.369998 136.830588 
L 549.369998 132.629412 
" style="fill:none;stroke:#000000;stroke-width:1.5;"/>
    <path clip-path="url(#p5addd901ef)" d="M 553.430148 136.830588 
L 553.430148 132.629412 
" style="fill:none;stroke:#000000;stroke-width:1.5;"/>
    <path clip-path="url(#p5addd901ef)" d="M 557.13598 136.830588 
L 557.13598 132.629412 
" style="fill:none;stroke:#000000;stroke-width:1.5;"/>
   </g>
   <g id="LineCollection_8">
    <path clip-path="url(#p5addd901ef)" d="M 163.028389 132.629412 
L 163.028389 128.428235 
" style="fill:none;stroke:#000000;stroke-width:1.5;"/>
    <path clip-path="url(#p5addd901ef)" d="M 374.818381 132.629412 
L 374.818381 128.428235 
" style="fill:none;stroke:#000000;stroke-width:1.5;"/>
    <path clip-path="url(#p5addd901ef)" d="M 387.480939 132.629412 
L 387.480939 128.428235 
" style="fill:none;stroke:#000000;stroke-width:1.5;"/>
   </g>
   <g id="LineCollection_9">
    <path clip-path="url(#p5addd901ef)" d="M 73.443697 128.428235 
L 73.443697 124.227059 
" style="fill:none;stroke:#000000;stroke-width:1.5;"/>
    <path clip-path="url(#p5addd901ef)" d="M 80.942487 128.428235 
L 80.942487 124.227059 
" style="fill:none;stroke:#000000;stroke-width:1.5;"/>
    <path clip-path="url(#p5addd901ef)" d="M 89.655256 128.428235 
L 89.655256 124.227059 
" style="fill:none;stroke:#000000;stroke-width:1.5;"/>
    <path clip-path="url(#p5addd901ef)" d="M 91.850874 128.428235 
L 91.850874 124.227059 
" style="fill:none;stroke:#000000;stroke-width:1.5;"/>
    <path clip-path="url(#p5addd901ef)" d="M 109.439051 128.428235 
L 109.439051 124.227059 
" style="fill:none;stroke:#000000;stroke-width:1.5;"/>
    <path clip-path="url(#p5addd901ef)" d="M 111.710179 128.428235 
L 111.710179 124.227059 
" style="fill:none;stroke:#000000;stroke-width:1.5;"/>
    <path clip-path="url(#p5addd901ef)" d="M 163.975177 128.428235 
L 163.975177 124.227059 
" style="fill:none;stroke:#000000;stroke-width:1.5;"/>
    <path clip-path="url(#p5addd901ef)" d="M 187.836547 128.428235 
L 187.836547 124.227059 
" style="fill:none;stroke:#000000;stroke-width:1.5;"/>
    <path clip-path="url(#p5addd901ef)" d="M 200.899893 128.428235 
L 200.899893 124.227059 
" style="fill:none;stroke:#000000;stroke-width:1.5;"/>
    <path clip-path="url(#p5addd901ef)" d="M 262.365574 128.428235 
L 262.365574 124.227059 
" style="fill:none;stroke:#000000;stroke-width:1.5;"/>
    <path clip-path="url(#p5addd901ef)" d="M 312.051593 128.428235 
L 312.051593 124.227059 
" style="fill:none;stroke:#000000;stroke-width:1.5;"/>
    <path clip-path="url(#p5addd901ef)" d="M 316.454445 128.428235 
L 316.454445 124.227059 
" style="fill:none;stroke:#000000;stroke-width:1.5;"/>
    <path clip-path="url(#p5addd901ef)" d="M 333.525664 128.428235 
L 333.525664 124.227059 
" style="fill:none;stroke:#000000;stroke-width:1.5;"/>
    <path clip-path="url(#p5addd901ef)" d="M 351.276479 128.428235 
L 351.276479 124.227059 
" style="fill:none;stroke:#000000;stroke-width:1.5;"/>
    <path clip-path="url(#p5addd901ef)" d="M 389.455833 128.428235 
L 389.455833 124.227059 
" style="fill:none;stroke:#000000;stroke-width:1.5;"/>
    <path clip-path="url(#p5addd901ef)" d="M 401.891859 128.428235 
L 401.891859 124.227059 
" style="fill:none;stroke:#000000;stroke-width:1.5;"/>
    <path clip-path="url(#p5addd901ef)" d="M 511.695984 128.428235 
L 511.695984 124.227059 
" style="fill:none;stroke:#000000;stroke-width:1.5;"/>
    <path clip-path="url(#p5addd901ef)" d="M 518.126008 128.428235 
L 518.126008 124.227059 
" style="fill:none;stroke:#000000;stroke-width:1.5;"/>
    <path clip-path="url(#p5addd901ef)" d="M 537.584526 128.428235 
L 537.584526 124.227059 
" style="fill:none;stroke:#000000;stroke-width:1.5;"/>
   </g>
   <g id="LineCollection_10">
    <path clip-path="url(#p5addd901ef)" d="M 257.114679 120.025882 
L 257.114679 115.824706 
" style="fill:none;stroke:#000000;stroke-width:1.5;"/>
    <path clip-path="url(#p5addd901ef)" d="M 258.526148 120.025882 
L 258.526148 115.824706 
" style="fill:none;stroke:#000000;stroke-width:1.5;"/>
    <path clip-path="url(#p5addd901ef)" d="M 265.07815 120.025882 
L 265.07815 115.824706 
" style="fill:none;stroke:#000000;stroke-width:1.5;"/>
   </g>
   <g id="LineCollection_11">
    <path clip-path="url(#p5addd901ef)" d="M 77.044975 115.824706 
L 77.044975 111.623529 
" style="fill:none;stroke:#000000;stroke-width:1.5;"/>
    <path clip-path="url(#p5addd901ef)" d="M 100.49975 115.824706 
L 100.49975 111.623529 
" style="fill:none;stroke:#000000;stroke-width:1.5;"/>
    <path clip-path="url(#p5addd901ef)" d="M 106.993667 115.824706 
L 106.993667 111.623529 
" style="fill:none;stroke:#000000;stroke-width:1.5;"/>
    <path clip-path="url(#p5addd901ef)" d="M 113.133265 115.824706 
L 113.133265 111.623529 
" style="fill:none;stroke:#000000;stroke-width:1.5;"/>
    <path clip-path="url(#p5addd901ef)" d="M 115.991053 115.824706 
L 115.991053 111.623529 
" style="fill:none;stroke:#000000;stroke-width:1.5;"/>
    <path clip-path="url(#p5addd901ef)" d="M 129.04859 115.824706 
L 129.04859 111.623529 
" style="fill:none;stroke:#000000;stroke-width:1.5;"/>
    <path clip-path="url(#p5addd901ef)" d="M 204.756745 115.824706 
L 204.756745 111.623529 
" style="fill:none;stroke:#000000;stroke-width:1.5;"/>
    <path clip-path="url(#p5addd901ef)" d="M 226.788434 115.824706 
L 226.788434 111.623529 
" style="fill:none;stroke:#000000;stroke-width:1.5;"/>
    <path clip-path="url(#p5addd901ef)" d="M 237.145012 115.824706 
L 237.145012 111.623529 
" style="fill:none;stroke:#000000;stroke-width:1.5;"/>
    <path clip-path="url(#p5addd901ef)" d="M 254.779657 115.824706 
L 254.779657 111.623529 
" style="fill:none;stroke:#000000;stroke-width:1.5;"/>
    <path clip-path="url(#p5addd901ef)" d="M 270.758875 115.824706 
L 270.758875 111.623529 
" style="fill:none;stroke:#000000;stroke-width:1.5;"/>
    <path clip-path="url(#p5addd901ef)" d="M 302.455929 115.824706 
L 302.455929 111.623529 
" style="fill:none;stroke:#000000;stroke-width:1.5;"/>
    <path clip-path="url(#p5addd901ef)" d="M 340.402943 115.824706 
L 340.402943 111.623529 
" style="fill:none;stroke:#000000;stroke-width:1.5;"/>
    <path clip-path="url(#p5addd901ef)" d="M 358.560354 115.824706 
L 358.560354 111.623529 
" style="fill:none;stroke:#000000;stroke-width:1.5;"/>
    <path clip-path="url(#p5addd901ef)" d="M 377.507723 115.824706 
L 377.507723 111.623529 
" style="fill:none;stroke:#000000;stroke-width:1.5;"/>
    <path clip-path="url(#p5addd901ef)" d="M 387.51579 115.824706 
L 387.51579 111.623529 
" style="fill:none;stroke:#000000;stroke-width:1.5;"/>
    <path clip-path="url(#p5addd901ef)" d="M 414.345311 115.824706 
L 414.345311 111.623529 
" style="fill:none;stroke:#000000;stroke-width:1.5;"/>
    <path clip-path="url(#p5addd901ef)" d="M 490.070891 115.824706 
L 490.070891 111.623529 
" style="fill:none;stroke:#000000;stroke-width:1.5;"/>
    <path clip-path="url(#p5addd901ef)" d="M 538.281547 115.824706 
L 538.281547 111.623529 
" style="fill:none;stroke:#000000;stroke-width:1.5;"/>
    <path clip-path="url(#p5addd901ef)" d="M 553.029361 115.824706 
L 553.029361 111.623529 
" style="fill:none;stroke:#000000;stroke-width:1.5;"/>
   </g>
   <g id="LineCollection_12">
    <path clip-path="url(#p5addd901ef)" d="M 31.163533 111.623529 
L 31.163533 107.422353 
" style="fill:none;stroke:#000000;stroke-width:1.5;"/>
    <path clip-path="url(#p5addd901ef)" d="M 31.866363 111.623529 
L 31.866363 107.422353 
" style="fill:none;stroke:#000000;stroke-width:1.5;"/>
    <path clip-path="url(#p5addd901ef)" d="M 97.537408 111.623529 
L 97.537408 107.422353 
" style="fill:none;stroke:#000000;stroke-width:1.5;"/>
    <path clip-path="url(#p5addd901ef)" d="M 101.731154 111.623529 
L 101.731154 107.422353 
" style="fill:none;stroke:#000000;stroke-width:1.5;"/>
    <path clip-path="url(#p5addd901ef)" d="M 179.716247 111.623529 
L 179.716247 107.422353 
" style="fill:none;stroke:#000000;stroke-width:1.5;"/>
    <path clip-path="url(#p5addd901ef)" d="M 182.068694 111.623529 
L 182.068694 107.422353 
" style="fill:none;stroke:#000000;stroke-width:1.5;"/>
   </g>
   <g id="LineCollection_13">
    <path clip-path="url(#p5addd901ef)" d="M 100.435856 107.422353 
L 100.435856 103.221176 
" style="fill:none;stroke:#000000;stroke-width:1.5;"/>
    <path clip-path="url(#p5addd901ef)" d="M 134.624762 107.422353 
L 134.624762 103.221176 
" style="fill:none;stroke:#000000;stroke-width:1.5;"/>
    <path clip-path="url(#p5addd901ef)" d="M 210.303875 107.422353 
L 210.303875 103.221176 
" style="fill:none;stroke:#000000;stroke-width:1.5;"/>
    <path clip-path="url(#p5addd901ef)" d="M 222.019645 107.422353 
L 222.019645 103.221176 
" style="fill:none;stroke:#000000;stroke-width:1.5;"/>
   </g>
   <g id="LineCollection_14">
    <path clip-path="url(#p5addd901ef)" d="M 89.748193 103.221176 
L 89.748193 99.02 
" style="fill:none;stroke:#000000;stroke-width:1.5;"/>
    <path clip-path="url(#p5addd901ef)" d="M 94.354343 103.221176 
L 94.354343 99.02 
" style="fill:none;stroke:#000000;stroke-width:1.5;"/>
    <path clip-path="url(#p5addd901ef)" d="M 105.1059 103.221176 
L 105.1059 99.02 
" style="fill:none;stroke:#000000;stroke-width:1.5;"/>
    <path clip-path="url(#p5addd901ef)" d="M 115.590266 103.221176 
L 115.590266 99.02 
" style="fill:none;stroke:#000000;stroke-width:1.5;"/>
   </g>
   <g id="LineCollection_15">
    <path clip-path="url(#p5addd901ef)" d="M 547.307976 94.818824 
L 547.307976 90.617647 
" style="fill:none;stroke:#000000;stroke-width:1.5;"/>
   </g>
   <g id="LineCollection_16">
    <path clip-path="url(#p5addd901ef)" d="M 488.862721 86.416471 
L 488.862721 82.215294 
" style="fill:none;stroke:#000000;stroke-width:1.5;"/>
    <path clip-path="url(#p5addd901ef)" d="M 503.500173 86.416471 
L 503.500173 82.215294 
" style="fill:none;stroke:#000000;stroke-width:1.5;"/>
   </g>
   <g id="LineCollection_17">
    <path clip-path="url(#p5addd901ef)" d="M 99.477451 82.215294 
L 99.477451 78.014118 
" style="fill:none;stroke:#000000;stroke-width:1.5;"/>
   </g>
   <g id="LineCollection_18">
    <path clip-path="url(#p5addd901ef)" d="M 487.050465 69.611765 
L 487.050465 65.410588 
" style="fill:none;stroke:#000000;stroke-width:1.5;"/>
    <path clip-path="url(#p5addd901ef)" d="M 553.708957 69.611765 
L 553.708957 65.410588 
" style="fill:none;stroke:#000000;stroke-width:1.5;"/>
   </g>
   <g id="LineCollection_19">
    <path clip-path="url(#p5addd901ef)" d="M 96.770684 65.410588 
L 96.770684 61.209412 
" style="fill:none;stroke:#000000;stroke-width:1.5;"/>
    <path clip-path="url(#p5addd901ef)" d="M 109.293838 65.410588 
L 109.293838 61.209412 
" style="fill:none;stroke:#000000;stroke-width:1.5;"/>
    <path clip-path="url(#p5addd901ef)" d="M 122.763779 65.410588 
L 122.763779 61.209412 
" style="fill:none;stroke:#000000;stroke-width:1.5;"/>
    <path clip-path="url(#p5addd901ef)" d="M 182.51595 65.410588 
L 182.51595 61.209412 
" style="fill:none;stroke:#000000;stroke-width:1.5;"/>
   </g>
   <g id="LineCollection_20">
    <path clip-path="url(#p5addd901ef)" d="M 125.911993 61.209412 
L 125.911993 57.008235 
" style="fill:none;stroke:#000000;stroke-width:1.5;"/>
    <path clip-path="url(#p5addd901ef)" d="M 276.242111 61.209412 
L 276.242111 57.008235 
" style="fill:none;stroke:#000000;stroke-width:1.5;"/>
    <path clip-path="url(#p5addd901ef)" d="M 302.246823 61.209412 
L 302.246823 57.008235 
" style="fill:none;stroke:#000000;stroke-width:1.5;"/>
    <path clip-path="url(#p5addd901ef)" d="M 548.487104 61.209412 
L 548.487104 57.008235 
" style="fill:none;stroke:#000000;stroke-width:1.5;"/>
   </g>
   <g id="LineCollection_21">
    <path clip-path="url(#p5addd901ef)" d="M 109.566838 57.008235 
L 109.566838 52.807059 
" style="fill:none;stroke:#000000;stroke-width:1.5;"/>
    <path clip-path="url(#p5addd901ef)" d="M 280.999283 57.008235 
L 280.999283 52.807059 
" style="fill:none;stroke:#000000;stroke-width:1.5;"/>
    <path clip-path="url(#p5addd901ef)" d="M 341.831837 57.008235 
L 341.831837 52.807059 
" style="fill:none;stroke:#000000;stroke-width:1.5;"/>
    <path clip-path="url(#p5addd901ef)" d="M 550.694339 57.008235 
L 550.694339 52.807059 
" style="fill:none;stroke:#000000;stroke-width:1.5;"/>
   </g>
   <g id="LineCollection_22">
    <path clip-path="url(#p5addd901ef)" d="M 141.478807 48.605882 
L 141.478807 44.404706 
" style="fill:none;stroke:#000000;stroke-width:1.5;"/>
    <path clip-path="url(#p5addd901ef)" d="M 145.068468 48.605882 
L 145.068468 44.404706 
" style="fill:none;stroke:#000000;stroke-width:1.5;"/>
    <path clip-path="url(#p5addd901ef)" d="M 146.201128 48.605882 
L 146.201128 44.404706 
" style="fill:none;stroke:#000000;stroke-width:1.5;"/>
    <path clip-path="url(#p5addd901ef)" d="M 235.419884 48.605882 
L 235.419884 44.404706 
" style="fill:none;stroke:#000000;stroke-width:1.5;"/>
    <path clip-path="url(#p5addd901ef)" d="M 256.150466 48.605882 
L 256.150466 44.404706 
" style="fill:none;stroke:#000000;stroke-width:1.5;"/>
    <path clip-path="url(#p5addd901ef)" d="M 290.531053 48.605882 
L 290.531053 44.404706 
" style="fill:none;stroke:#000000;stroke-width:1.5;"/>
    <path clip-path="url(#p5addd901ef)" d="M 307.544187 48.605882 
L 307.544187 44.404706 
" style="fill:none;stroke:#000000;stroke-width:1.5;"/>
    <path clip-path="url(#p5addd901ef)" d="M 333.926452 48.605882 
L 333.926452 44.404706 
" style="fill:none;stroke:#000000;stroke-width:1.5;"/>
   </g>
   <g id="LineCollection_23">
    <path clip-path="url(#p5addd901ef)" d="M 38.017578 40.203529 
L 38.017578 36.002353 
" style="fill:none;stroke:#000000;stroke-width:1.5;"/>
    <path clip-path="url(#p5addd901ef)" d="M 126.487036 40.203529 
L 126.487036 36.002353 
" style="fill:none;stroke:#000000;stroke-width:1.5;"/>
    <path clip-path="url(#p5addd901ef)" d="M 275.254664 40.203529 
L 275.254664 36.002353 
" style="fill:none;stroke:#000000;stroke-width:1.5;"/>
    <path clip-path="url(#p5addd901ef)" d="M 415.594141 40.203529 
L 415.594141 36.002353 
" style="fill:none;stroke:#000000;stroke-width:1.5;"/>
    <path clip-path="url(#p5addd901ef)" d="M 421.513015 40.203529 
L 421.513015 36.002353 
" style="fill:none;stroke:#000000;stroke-width:1.5;"/>
    <path clip-path="url(#p5addd901ef)" d="M 429.412593 40.203529 
L 429.412593 36.002353 
" style="fill:none;stroke:#000000;stroke-width:1.5;"/>
    <path clip-path="url(#p5addd901ef)" d="M 434.30336 40.203529 
L 434.30336 36.002353 
" style="fill:none;stroke:#000000;stroke-width:1.5;"/>
   </g>
   <g id="LineCollection_24">
    <path clip-path="url(#p5addd901ef)" d="M 183.578907 36.002353 
L 183.578907 31.801176 
" style="fill:none;stroke:#000000;stroke-width:1.5;"/>
    <path clip-path="url(#p5addd901ef)" d="M 187.813313 36.002353 
L 187.813313 31.801176 
" style="fill:none;stroke:#000000;stroke-width:1.5;"/>
    <path clip-path="url(#p5addd901ef)" d="M 195.300486 36.002353 
L 195.300486 31.801176 
" style="fill:none;stroke:#000000;stroke-width:1.5;"/>
    <path clip-path="url(#p5addd901ef)" d="M 202.468191 36.002353 
L 202.468191 31.801176 
" style="fill:none;stroke:#000000;stroke-width:1.5;"/>
   </g>
   <g id="patch_3">
    <path d="M 28.48 170.44 
L 28.48 27.6 
" style="fill:none;stroke:#000000;stroke-linecap:square;stroke-linejoin:miter;stroke-width:0.8;"/>
   </g>
   <g id="patch_4">
    <path d="M 561.701471 170.44 
L 561.701471 27.6 
" style="fill:none;stroke:#000000;stroke-linecap:square;stroke-linejoin:miter;stroke-width:0.8;"/>
   </g>
   <g id="patch_5">
    <path d="M 28.48 170.44 
L 561.701471 170.44 
" style="fill:none;stroke:#000000;stroke-linecap:square;stroke-linejoin:miter;stroke-width:0.8;"/>
   </g>
   <g id="patch_6">
    <path d="M 28.48 27.6 
L 561.701471 27.6 
" style="fill:none;stroke:#000000;stroke-linecap:square;stroke-linejoin:miter;stroke-width:0.8;"/>
   </g>
   <g id="text_10">
    <!-- V1 raster -->
    <defs>
     <path d="M 28.609375 0 
L 0.78125 72.90625 
L 11.078125 72.90625 
L 34.1875 11.53125 
L 57.328125 72.90625 
L 67.578125 72.90625 
L 39.796875 0 
z
" id="DejaVuSans-86"/>
     <path d="M 41.109375 46.296875 
Q 39.59375 47.171875 37.8125 47.578125 
Q 36.03125 48 33.890625 48 
Q 26.265625 48 22.1875 43.046875 
Q 18.109375 38.09375 18.109375 28.8125 
L 18.109375 0 
L 9.078125 0 
L 9.078125 54.6875 
L 18.109375 54.6875 
L 18.109375 46.1875 
Q 20.953125 51.171875 25.484375 53.578125 
Q 30.03125 56 36.53125 56 
Q 37.453125 56 38.578125 55.875 
Q 39.703125 55.765625 41.0625 55.515625 
z
" id="DejaVuSans-114"/>
     <path d="M 34.28125 27.484375 
Q 23.390625 27.484375 19.1875 25 
Q 14.984375 22.515625 14.984375 16.5 
Q 14.984375 11.71875 18.140625 8.90625 
Q 21.296875 6.109375 26.703125 6.109375 
Q 34.1875 6.109375 38.703125 11.40625 
Q 43.21875 16.703125 43.21875 25.484375 
L 43.21875 27.484375 
z
M 52.203125 31.203125 
L 52.203125 0 
L 43.21875 0 
L 43.21875 8.296875 
Q 40.140625 3.328125 35.546875 0.953125 
Q 30.953125 -1.421875 24.3125 -1.421875 
Q 15.921875 -1.421875 10.953125 3.296875 
Q 6 8.015625 6 15.921875 
Q 6 25.140625 12.171875 29.828125 
Q 18.359375 34.515625 30.609375 34.515625 
L 43.21875 34.515625 
L 43.21875 35.40625 
Q 43.21875 41.609375 39.140625 45 
Q 35.0625 48.390625 27.6875 48.390625 
Q 23 48.390625 18.546875 47.265625 
Q 14.109375 46.140625 10.015625 43.890625 
L 10.015625 52.203125 
Q 14.9375 54.109375 19.578125 55.046875 
Q 24.21875 56 28.609375 56 
Q 40.484375 56 46.34375 49.84375 
Q 52.203125 43.703125 52.203125 31.203125 
z
" id="DejaVuSans-97"/>
     <path d="M 18.3125 70.21875 
L 18.3125 54.6875 
L 36.8125 54.6875 
L 36.8125 47.703125 
L 18.3125 47.703125 
L 18.3125 18.015625 
Q 18.3125 11.328125 20.140625 9.421875 
Q 21.96875 7.515625 27.59375 7.515625 
L 36.8125 7.515625 
L 36.8125 0 
L 27.59375 0 
Q 17.1875 0 13.234375 3.875 
Q 9.28125 7.765625 9.28125 18.015625 
L 9.28125 47.703125 
L 2.6875 47.703125 
L 2.6875 54.6875 
L 9.28125 54.6875 
L 9.28125 70.21875 
z
" id="DejaVuSans-116"/>
    </defs>
    <g transform="translate(261.96061 21.6)scale(0.144 -0.144)">
     <use xlink:href="#DejaVuSans-86"/>
     <use x="68.408203" xlink:href="#DejaVuSans-49"/>
     <use x="132.03125" xlink:href="#DejaVuSans-32"/>
     <use x="163.818359" xlink:href="#DejaVuSans-114"/>
     <use x="204.931641" xlink:href="#DejaVuSans-97"/>
     <use x="266.210938" xlink:href="#DejaVuSans-115"/>
     <use x="318.310547" xlink:href="#DejaVuSans-116"/>
     <use x="357.519531" xlink:href="#DejaVuSans-101"/>
     <use x="419.042969" xlink:href="#DejaVuSans-114"/>
    </g>
   </g>
  </g>
 </g>
 <defs>
  <clipPath id="p5addd901ef">
   <rect height="142.84" width="533.221471" x="28.48" y="27.6"/>
  </clipPath>
 </defs>
</svg>
