<?xml version="1.0" encoding="utf-8" standalone="no"?>
<!DOCTYPE svg PUBLIC "-//W3C//DTD SVG 1.1//EN"
  "http://www.w3.org/Graphics/SVG/1.1/DTD/svg11.dtd">
<!-- Created with matplotlib (https://matplotlib.org/) -->
<svg height="216pt" version="1.1" viewBox="0 0 648 216" width="648pt" xmlns="http://www.w3.org/2000/svg" xmlns:xlink="http://www.w3.org/1999/xlink">
 <defs>
  <style type="text/css">
*{stroke-linecap:butt;stroke-linejoin:round;}
  </style>
 </defs>
 <g id="figure_1">
  <g id="patch_1">
   <path d="M 0 216 
L 648 216 
L 648 0 
L 0 0 
z
" style="fill:#ffffff;"/>
  </g>
  <g id="axes_1">
   <g id="patch_2">
    <path d="M 28.48 170.44 
L 634.248529 170.44 
L 634.248529 27.6 
L 28.48 27.6 
z
" style="fill:#ffffff;"/>
   </g>
   <g id="PolyCollection_1">
    <defs>
     <path d="M 133.400693 -45.56 
L 133.400693 -188.4 
L 430.346051 -188.4 
L 430.346051 -45.56 
L 430.346051 -45.56 
L 133.400693 -45.56 
z
" id="m2ca0eaf1e0" style="stroke:#808080;stroke-opacity:0.3;"/>
    </defs>
    <g clip-path="url(#p5380e49b4b)">
     <use style="fill:#808080;fill-opacity:0.3;stroke:#808080;stroke-opacity:0.3;" x="0" xlink:href="#m2ca0eaf1e0" y="216"/>
    </g>
   </g>
   <g id="matplotlib.axis_1">
    <g id="xtick_1">
     <g id="line2d_1">
      <defs>
       <path d="M 0 0 
L 0 3.5 
" id="mf4a4c571bb" style="stroke:#000000;stroke-width:0.8;"/>
      </defs>
      <g>
       <use style="stroke:#000000;stroke-width:0.8;" x="34.418907" xlink:href="#mf4a4c571bb" y="170.44"/>
      </g>
     </g>
     <g id="text_1">
      <!-- −0.5 -->
      <defs>
       <path d="M 10.59375 35.5 
L 73.1875 35.5 
L 73.1875 27.203125 
L 10.59375 27.203125 
z
" id="DejaVuSans-8722"/>
       <path d="M 31.78125 66.40625 
Q 24.171875 66.40625 20.328125 58.90625 
Q 16.5 51.421875 16.5 36.375 
Q 16.5 21.390625 20.328125 13.890625 
Q 24.171875 6.390625 31.78125 6.390625 
Q 39.453125 6.390625 43.28125 13.890625 
Q 47.125 21.390625 47.125 36.375 
Q 47.125 51.421875 43.28125 58.90625 
Q 39.453125 66.40625 31.78125 66.40625 
z
M 31.78125 74.21875 
Q 44.046875 74.21875 50.515625 64.515625 
Q 56.984375 54.828125 56.984375 36.375 
Q 56.984375 17.96875 50.515625 8.265625 
Q 44.046875 -1.421875 31.78125 -1.421875 
Q 19.53125 -1.421875 13.0625 8.265625 
Q 6.59375 17.96875 6.59375 36.375 
Q 6.59375 54.828125 13.0625 64.515625 
Q 19.53125 74.21875 31.78125 74.21875 
z
" id="DejaVuSans-48"/>
       <path d="M 10.6875 12.40625 
L 21 12.40625 
L 21 0 
L 10.6875 0 
z
" id="DejaVuSans-46"/>
       <path d="M 10.796875 72.90625 
L 49.515625 72.90625 
L 49.515625 64.59375 
L 19.828125 64.59375 
L 19.828125 46.734375 
Q 21.96875 47.46875 24.109375 47.828125 
Q 26.265625 48.1875 28.421875 48.1875 
Q 40.625 48.1875 47.75 41.5 
Q 54.890625 34.8125 54.890625 23.390625 
Q 54.890625 11.625 47.5625 5.09375 
Q 40.234375 -1.421875 26.90625 -1.421875 
Q 22.3125 -1.421875 17.546875 -0.640625 
Q 12.796875 0.140625 7.71875 1.703125 
L 7.71875 11.625 
Q 12.109375 9.234375 16.796875 8.0625 
Q 21.484375 6.890625 26.703125 6.890625 
Q 35.15625 6.890625 40.078125 11.328125 
Q 45.015625 15.765625 45.015625 23.390625 
Q 45.015625 31 40.078125 35.4375 
Q 35.15625 39.890625 26.703125 39.890625 
Q 22.75 39.890625 18.8125 39.015625 
Q 14.890625 38.140625 10.796875 36.28125 
z
" id="DejaVuSans-53"/>
      </defs>
      <g transform="translate(22.277501 185.038437)scale(0.1 -0.1)">
       <use xlink:href="#DejaVuSans-8722"/>
       <use x="83.789062" xlink:href="#DejaVuSans-48"/>
       <use x="147.412109" xlink:href="#DejaVuSans-46"/>
       <use x="179.199219" xlink:href="#DejaVuSans-53"/>
      </g>
     </g>
    </g>
    <g id="xtick_2">
     <g id="line2d_2">
      <g>
       <use style="stroke:#000000;stroke-width:0.8;" x="133.400693" xlink:href="#mf4a4c571bb" y="170.44"/>
      </g>
     </g>
     <g id="text_2">
      <!-- 0.0 -->
      <g transform="translate(125.449131 185.038437)scale(0.1 -0.1)">
       <use xlink:href="#DejaVuSans-48"/>
       <use x="63.623047" xlink:href="#DejaVuSans-46"/>
       <use x="95.410156" xlink:href="#DejaVuSans-48"/>
      </g>
     </g>
    </g>
    <g id="xtick_3">
     <g id="line2d_3">
      <g>
       <use style="stroke:#000000;stroke-width:0.8;" x="232.382479" xlink:href="#mf4a4c571bb" y="170.44"/>
      </g>
     </g>
     <g id="text_3">
      <!-- 0.5 -->
      <g transform="translate(224.430916 185.038437)scale(0.1 -0.1)">
       <use xlink:href="#DejaVuSans-48"/>
       <use x="63.623047" xlink:href="#DejaVuSans-46"/>
       <use x="95.410156" xlink:href="#DejaVuSans-53"/>
      </g>
     </g>
    </g>
    <g id="xtick_4">
     <g id="line2d_4">
      <g>
       <use style="stroke:#000000;stroke-width:0.8;" x="331.364265" xlink:href="#mf4a4c571bb" y="170.44"/>
      </g>
     </g>
     <g id="text_4">
      <!-- 1.0 -->
      <defs>
       <path d="M 12.40625 8.296875 
L 28.515625 8.296875 
L 28.515625 63.921875 
L 10.984375 60.40625 
L 10.984375 69.390625 
L 28.421875 72.90625 
L 38.28125 72.90625 
L 38.28125 8.296875 
L 54.390625 8.296875 
L 54.390625 0 
L 12.40625 0 
z
" id="DejaVuSans-49"/>
      </defs>
      <g transform="translate(323.412702 185.038437)scale(0.1 -0.1)">
       <use xlink:href="#DejaVuSans-49"/>
       <use x="63.623047" xlink:href="#DejaVuSans-46"/>
       <use x="95.410156" xlink:href="#DejaVuSans-48"/>
      </g>
     </g>
    </g>
    <g id="xtick_5">
     <g id="line2d_5">
      <g>
       <use style="stroke:#000000;stroke-width:0.8;" x="430.346051" xlink:href="#mf4a4c571bb" y="170.44"/>
      </g>
     </g>
     <g id="text_5">
      <!-- 1.5 -->
      <g transform="translate(422.394488 185.038437)scale(0.1 -0.1)">
       <use xlink:href="#DejaVuSans-49"/>
       <use x="63.623047" xlink:href="#DejaVuSans-46"/>
       <use x="95.410156" xlink:href="#DejaVuSans-53"/>
      </g>
     </g>
    </g>
    <g id="xtick_6">
     <g id="line2d_6">
      <g>
       <use style="stroke:#000000;stroke-width:0.8;" x="529.327836" xlink:href="#mf4a4c571bb" y="170.44"/>
      </g>
     </g>
     <g id="text_6">
      <!-- 2.0 -->
      <defs>
       <path d="M 19.1875 8.296875 
L 53.609375 8.296875 
L 53.609375 0 
L 7.328125 0 
L 7.328125 8.296875 
Q 12.9375 14.109375 22.625 23.890625 
Q 32.328125 33.6875 34.8125 36.53125 
Q 39.546875 41.84375 41.421875 45.53125 
Q 43.3125 49.21875 43.3125 52.78125 
Q 43.3125 58.59375 39.234375 62.25 
Q 35.15625 65.921875 28.609375 65.921875 
Q 23.96875 65.921875 18.8125 64.3125 
Q 13.671875 62.703125 7.8125 59.421875 
L 7.8125 69.390625 
Q 13.765625 71.78125 18.9375 73 
Q 24.125 74.21875 28.421875 74.21875 
Q 39.75 74.21875 46.484375 68.546875 
Q 53.21875 62.890625 53.21875 53.421875 
Q 53.21875 48.921875 51.53125 44.890625 
Q 49.859375 40.875 45.40625 35.40625 
Q 44.1875 33.984375 37.640625 27.21875 
Q 31.109375 20.453125 19.1875 8.296875 
z
" id="DejaVuSans-50"/>
      </defs>
      <g transform="translate(521.376274 185.038437)scale(0.1 -0.1)">
       <use xlink:href="#DejaVuSans-50"/>
       <use x="63.623047" xlink:href="#DejaVuSans-46"/>
       <use x="95.410156" xlink:href="#DejaVuSans-48"/>
      </g>
     </g>
    </g>
    <g id="xtick_7">
     <g id="line2d_7">
      <g>
       <use style="stroke:#000000;stroke-width:0.8;" x="628.309622" xlink:href="#mf4a4c571bb" y="170.44"/>
      </g>
     </g>
     <g id="text_7">
      <!-- 2.5 -->
      <g transform="translate(620.35806 185.038437)scale(0.1 -0.1)">
       <use xlink:href="#DejaVuSans-50"/>
       <use x="63.623047" xlink:href="#DejaVuSans-46"/>
       <use x="95.410156" xlink:href="#DejaVuSans-53"/>
      </g>
     </g>
    </g>
    <g id="text_8">
     <!-- Time (s) -->
     <defs>
      <path d="M -0.296875 72.90625 
L 61.375 72.90625 
L 61.375 64.59375 
L 35.5 64.59375 
L 35.5 0 
L 25.59375 0 
L 25.59375 64.59375 
L -0.296875 64.59375 
z
" id="DejaVuSans-84"/>
      <path d="M 9.421875 54.6875 
L 18.40625 54.6875 
L 18.40625 0 
L 9.421875 0 
z
M 9.421875 75.984375 
L 18.40625 75.984375 
L 18.40625 64.59375 
L 9.421875 64.59375 
z
" id="DejaVuSans-105"/>
      <path d="M 52 44.1875 
Q 55.375 50.25 60.0625 53.125 
Q 64.75 56 71.09375 56 
Q 79.640625 56 84.28125 50.015625 
Q 88.921875 44.046875 88.921875 33.015625 
L 88.921875 0 
L 79.890625 0 
L 79.890625 32.71875 
Q 79.890625 40.578125 77.09375 44.375 
Q 74.3125 48.1875 68.609375 48.1875 
Q 61.625 48.1875 57.5625 43.546875 
Q 53.515625 38.921875 53.515625 30.90625 
L 53.515625 0 
L 44.484375 0 
L 44.484375 32.71875 
Q 44.484375 40.625 41.703125 44.40625 
Q 38.921875 48.1875 33.109375 48.1875 
Q 26.21875 48.1875 22.15625 43.53125 
Q 18.109375 38.875 18.109375 30.90625 
L 18.109375 0 
L 9.078125 0 
L 9.078125 54.6875 
L 18.109375 54.6875 
L 18.109375 46.1875 
Q 21.1875 51.21875 25.484375 53.609375 
Q 29.78125 56 35.6875 56 
Q 41.65625 56 45.828125 52.96875 
Q 50 49.953125 52 44.1875 
z
" id="DejaVuSans-109"/>
      <path d="M 56.203125 29.59375 
L 56.203125 25.203125 
L 14.890625 25.203125 
Q 15.484375 15.921875 20.484375 11.0625 
Q 25.484375 6.203125 34.421875 6.203125 
Q 39.59375 6.203125 44.453125 7.46875 
Q 49.3125 8.734375 54.109375 11.28125 
L 54.109375 2.78125 
Q 49.265625 0.734375 44.1875 -0.34375 
Q 39.109375 -1.421875 33.890625 -1.421875 
Q 20.796875 -1.421875 13.15625 6.1875 
Q 5.515625 13.8125 5.515625 26.8125 
Q 5.515625 40.234375 12.765625 48.109375 
Q 20.015625 56 32.328125 56 
Q 43.359375 56 49.78125 48.890625 
Q 56.203125 41.796875 56.203125 29.59375 
z
M 47.21875 32.234375 
Q 47.125 39.59375 43.09375 43.984375 
Q 39.0625 48.390625 32.421875 48.390625 
Q 24.90625 48.390625 20.390625 44.140625 
Q 15.875 39.890625 15.1875 32.171875 
z
" id="DejaVuSans-101"/>
      <path id="DejaVuSans-32"/>
      <path d="M 31 75.875 
Q 24.46875 64.65625 21.28125 53.65625 
Q 18.109375 42.671875 18.109375 31.390625 
Q 18.109375 20.125 21.3125 9.0625 
Q 24.515625 -2 31 -13.1875 
L 23.1875 -13.1875 
Q 15.875 -1.703125 12.234375 9.375 
Q 8.59375 20.453125 8.59375 31.390625 
Q 8.59375 42.28125 12.203125 53.3125 
Q 15.828125 64.359375 23.1875 75.875 
z
" id="DejaVuSans-40"/>
      <path d="M 44.28125 53.078125 
L 44.28125 44.578125 
Q 40.484375 46.53125 36.375 47.5 
Q 32.28125 48.484375 27.875 48.484375 
Q 21.1875 48.484375 17.84375 46.4375 
Q 14.5 44.390625 14.5 40.28125 
Q 14.5 37.15625 16.890625 35.375 
Q 19.28125 33.59375 26.515625 31.984375 
L 29.59375 31.296875 
Q 39.15625 29.25 43.1875 25.515625 
Q 47.21875 21.78125 47.21875 15.09375 
Q 47.21875 7.46875 41.1875 3.015625 
Q 35.15625 -1.421875 24.609375 -1.421875 
Q 20.21875 -1.421875 15.453125 -0.5625 
Q 10.6875 0.296875 5.421875 2 
L 5.421875 11.28125 
Q 10.40625 8.6875 15.234375 7.390625 
Q 20.0625 6.109375 24.8125 6.109375 
Q 31.15625 6.109375 34.5625 8.28125 
Q 37.984375 10.453125 37.984375 14.40625 
Q 37.984375 18.0625 35.515625 20.015625 
Q 33.0625 21.96875 24.703125 23.78125 
L 21.578125 24.515625 
Q 13.234375 26.265625 9.515625 29.90625 
Q 5.8125 33.546875 5.8125 39.890625 
Q 5.8125 47.609375 11.28125 51.796875 
Q 16.75 56 26.8125 56 
Q 31.78125 56 36.171875 55.265625 
Q 40.578125 54.546875 44.28125 53.078125 
z
" id="DejaVuSans-115"/>
      <path d="M 8.015625 75.875 
L 15.828125 75.875 
Q 23.140625 64.359375 26.78125 53.3125 
Q 30.421875 42.28125 30.421875 31.390625 
Q 30.421875 20.453125 26.78125 9.375 
Q 23.140625 -1.703125 15.828125 -13.1875 
L 8.015625 -13.1875 
Q 14.5 -2 17.703125 9.0625 
Q 20.90625 20.125 20.90625 31.390625 
Q 20.90625 42.671875 17.703125 53.65625 
Q 14.5 64.65625 8.015625 75.875 
z
" id="DejaVuSans-41"/>
     </defs>
     <g transform="translate(301.869015 202.059875)scale(0.144 -0.144)">
      <use xlink:href="#DejaVuSans-84"/>
      <use x="61.037109" xlink:href="#DejaVuSans-105"/>
      <use x="88.820312" xlink:href="#DejaVuSans-109"/>
      <use x="186.232422" xlink:href="#DejaVuSans-101"/>
      <use x="247.755859" xlink:href="#DejaVuSans-32"/>
      <use x="279.542969" xlink:href="#DejaVuSans-40"/>
      <use x="318.556641" xlink:href="#DejaVuSans-115"/>
      <use x="370.65625" xlink:href="#DejaVuSans-41"/>
     </g>
    </g>
   </g>
   <g id="matplotlib.axis_2">
    <g id="text_9">
     <!-- Cells -->
     <defs>
      <path d="M 64.40625 67.28125 
L 64.40625 56.890625 
Q 59.421875 61.53125 53.78125 63.8125 
Q 48.140625 66.109375 41.796875 66.109375 
Q 29.296875 66.109375 22.65625 58.46875 
Q 16.015625 50.828125 16.015625 36.375 
Q 16.015625 21.96875 22.65625 14.328125 
Q 29.296875 6.6875 41.796875 6.6875 
Q 48.140625 6.6875 53.78125 8.984375 
Q 59.421875 11.28125 64.40625 15.921875 
L 64.40625 5.609375 
Q 59.234375 2.09375 53.4375 0.328125 
Q 47.65625 -1.421875 41.21875 -1.421875 
Q 24.65625 -1.421875 15.125 8.703125 
Q 5.609375 18.84375 5.609375 36.375 
Q 5.609375 53.953125 15.125 64.078125 
Q 24.65625 74.21875 41.21875 74.21875 
Q 47.75 74.21875 53.53125 72.484375 
Q 59.328125 70.75 64.40625 67.28125 
z
" id="DejaVuSans-67"/>
      <path d="M 9.421875 75.984375 
L 18.40625 75.984375 
L 18.40625 0 
L 9.421875 0 
z
" id="DejaVuSans-108"/>
     </defs>
     <g transform="translate(21.48525 116.229125)rotate(-90)scale(0.144 -0.144)">
      <use xlink:href="#DejaVuSans-67"/>
      <use x="69.824219" xlink:href="#DejaVuSans-101"/>
      <use x="131.347656" xlink:href="#DejaVuSans-108"/>
      <use x="159.130859" xlink:href="#DejaVuSans-108"/>
      <use x="186.914062" xlink:href="#DejaVuSans-115"/>
     </g>
    </g>
   </g>
   <g id="LineCollection_1">
    <path clip-path="url(#p5380e49b4b)" d="M 554.898131 170.44 
L 554.898131 166.238824 
" style="fill:none;stroke:#000000;stroke-width:1.5;"/>
   </g>
   <g id="LineCollection_2">
    <path clip-path="url(#p5380e49b4b)" d="M 122.077177 166.238824 
L 122.077177 162.037647 
" style="fill:none;stroke:#000000;stroke-width:1.5;"/>
    <path clip-path="url(#p5380e49b4b)" d="M 279.05569 166.238824 
L 279.05569 162.037647 
" style="fill:none;stroke:#000000;stroke-width:1.5;"/>
    <path clip-path="url(#p5380e49b4b)" d="M 279.511006 166.238824 
L 279.511006 162.037647 
" style="fill:none;stroke:#000000;stroke-width:1.5;"/>
    <path clip-path="url(#p5380e49b4b)" d="M 602.165233 166.238824 
L 602.165233 162.037647 
" style="fill:none;stroke:#000000;stroke-width:1.5;"/>
    <path clip-path="url(#p5380e49b4b)" d="M 603.313422 166.238824 
L 603.313422 162.037647 
" style="fill:none;stroke:#000000;stroke-width:1.5;"/>
   </g>
   <g id="LineCollection_3">
    <path clip-path="url(#p5380e49b4b)" d="M 38.173616 162.037647 
L 38.173616 157.836471 
" style="fill:none;stroke:#000000;stroke-width:1.5;"/>
    <path clip-path="url(#p5380e49b4b)" d="M 53.786343 162.037647 
L 53.786343 157.836471 
" style="fill:none;stroke:#000000;stroke-width:1.5;"/>
    <path clip-path="url(#p5380e49b4b)" d="M 67.353447 162.037647 
L 67.353447 157.836471 
" style="fill:none;stroke:#000000;stroke-width:1.5;"/>
    <path clip-path="url(#p5380e49b4b)" d="M 79.23786 162.037647 
L 79.23786 157.836471 
" style="fill:none;stroke:#000000;stroke-width:1.5;"/>
    <path clip-path="url(#p5380e49b4b)" d="M 84.530086 162.037647 
L 84.530086 157.836471 
" style="fill:none;stroke:#000000;stroke-width:1.5;"/>
    <path clip-path="url(#p5380e49b4b)" d="M 107.612638 162.037647 
L 107.612638 157.836471 
" style="fill:none;stroke:#000000;stroke-width:1.5;"/>
    <path clip-path="url(#p5380e49b4b)" d="M 124.94105 162.037647 
L 124.94105 157.836471 
" style="fill:none;stroke:#000000;stroke-width:1.5;"/>
    <path clip-path="url(#p5380e49b4b)" d="M 132.628635 162.037647 
L 132.628635 157.836471 
" style="fill:none;stroke:#000000;stroke-width:1.5;"/>
    <path clip-path="url(#p5380e49b4b)" d="M 474.683292 162.037647 
L 474.683292 157.836471 
" style="fill:none;stroke:#000000;stroke-width:1.5;"/>
    <path clip-path="url(#p5380e49b4b)" d="M 550.193197 162.037647 
L 550.193197 157.836471 
" style="fill:none;stroke:#000000;stroke-width:1.5;"/>
    <path clip-path="url(#p5380e49b4b)" d="M 574.938643 162.037647 
L 574.938643 157.836471 
" style="fill:none;stroke:#000000;stroke-width:1.5;"/>
    <path clip-path="url(#p5380e49b4b)" d="M 612.934452 162.037647 
L 612.934452 157.836471 
" style="fill:none;stroke:#000000;stroke-width:1.5;"/>
   </g>
   <g id="LineCollection_4">
    <path clip-path="url(#p5380e49b4b)" d="M 63.440367 153.635294 
L 63.440367 149.434118 
" style="fill:none;stroke:#000000;stroke-width:1.5;"/>
    <path clip-path="url(#p5380e49b4b)" d="M 113.280995 153.635294 
L 113.280995 149.434118 
" style="fill:none;stroke:#000000;stroke-width:1.5;"/>
    <path clip-path="url(#p5380e49b4b)" d="M 121.83962 153.635294 
L 121.83962 149.434118 
" style="fill:none;stroke:#000000;stroke-width:1.5;"/>
    <path clip-path="url(#p5380e49b4b)" d="M 125.178606 153.635294 
L 125.178606 149.434118 
" style="fill:none;stroke:#000000;stroke-width:1.5;"/>
   </g>
   <g id="LineCollection_5">
    <path clip-path="url(#p5380e49b4b)" d="M 299.756081 149.434118 
L 299.756081 145.232941 
" style="fill:none;stroke:#000000;stroke-width:1.5;"/>
   </g>
   <g id="LineCollection_6">
    <path clip-path="url(#p5380e49b4b)" d="M 63.394175 145.232941 
L 63.394175 141.031765 
" style="fill:none;stroke:#000000;stroke-width:1.5;"/>
    <path clip-path="url(#p5380e49b4b)" d="M 72.421314 145.232941 
L 72.421314 141.031765 
" style="fill:none;stroke:#000000;stroke-width:1.5;"/>
    <path clip-path="url(#p5380e49b4b)" d="M 188.533548 145.232941 
L 188.533548 141.031765 
" style="fill:none;stroke:#000000;stroke-width:1.5;"/>
    <path clip-path="url(#p5380e49b4b)" d="M 224.054811 145.232941 
L 224.054811 141.031765 
" style="fill:none;stroke:#000000;stroke-width:1.5;"/>
    <path clip-path="url(#p5380e49b4b)" d="M 298.07999 145.232941 
L 298.07999 141.031765 
" style="fill:none;stroke:#000000;stroke-width:1.5;"/>
    <path clip-path="url(#p5380e49b4b)" d="M 495.72682 145.232941 
L 495.72682 141.031765 
" style="fill:none;stroke:#000000;stroke-width:1.5;"/>
    <path clip-path="url(#p5380e49b4b)" d="M 566.406413 145.232941 
L 566.406413 141.031765 
" style="fill:none;stroke:#000000;stroke-width:1.5;"/>
    <path clip-path="url(#p5380e49b4b)" d="M 586.163178 145.232941 
L 586.163178 141.031765 
" style="fill:none;stroke:#000000;stroke-width:1.5;"/>
    <path clip-path="url(#p5380e49b4b)" d="M 589.291002 145.232941 
L 589.291002 141.031765 
" style="fill:none;stroke:#000000;stroke-width:1.5;"/>
    <path clip-path="url(#p5380e49b4b)" d="M 599.657695 145.232941 
L 599.657695 141.031765 
" style="fill:none;stroke:#000000;stroke-width:1.5;"/>
    <path clip-path="url(#p5380e49b4b)" d="M 605.187477 145.232941 
L 605.187477 141.031765 
" style="fill:none;stroke:#000000;stroke-width:1.5;"/>
   </g>
   <g id="LineCollection_7">
    <path clip-path="url(#p5380e49b4b)" d="M 133.770225 141.031765 
L 133.770225 136.830588 
" style="fill:none;stroke:#000000;stroke-width:1.5;"/>
    <path clip-path="url(#p5380e49b4b)" d="M 178.707956 141.031765 
L 178.707956 136.830588 
" style="fill:none;stroke:#000000;stroke-width:1.5;"/>
    <path clip-path="url(#p5380e49b4b)" d="M 242.208071 141.031765 
L 242.208071 136.830588 
" style="fill:none;stroke:#000000;stroke-width:1.5;"/>
    <path clip-path="url(#p5380e49b4b)" d="M 248.68148 141.031765 
L 248.68148 136.830588 
" style="fill:none;stroke:#000000;stroke-width:1.5;"/>
    <path clip-path="url(#p5380e49b4b)" d="M 519.700208 141.031765 
L 519.700208 136.830588 
" style="fill:none;stroke:#000000;stroke-width:1.5;"/>
    <path clip-path="url(#p5380e49b4b)" d="M 609.02797 141.031765 
L 609.02797 136.830588 
" style="fill:none;stroke:#000000;stroke-width:1.5;"/>
    <path clip-path="url(#p5380e49b4b)" d="M 611.812658 141.031765 
L 611.812658 136.830588 
" style="fill:none;stroke:#000000;stroke-width:1.5;"/>
   </g>
   <g id="LineCollection_8">
    <path clip-path="url(#p5380e49b4b)" d="M 144.697814 132.629412 
L 144.697814 128.428235 
" style="fill:none;stroke:#000000;stroke-width:1.5;"/>
    <path clip-path="url(#p5380e49b4b)" d="M 179.288649 132.629412 
L 179.288649 128.428235 
" style="fill:none;stroke:#000000;stroke-width:1.5;"/>
   </g>
   <g id="LineCollection_9">
    <path clip-path="url(#p5380e49b4b)" d="M 156.641616 124.227059 
L 156.641616 120.025882 
" style="fill:none;stroke:#000000;stroke-width:1.5;"/>
    <path clip-path="url(#p5380e49b4b)" d="M 181.651014 124.227059 
L 181.651014 120.025882 
" style="fill:none;stroke:#000000;stroke-width:1.5;"/>
    <path clip-path="url(#p5380e49b4b)" d="M 185.742261 124.227059 
L 185.742261 120.025882 
" style="fill:none;stroke:#000000;stroke-width:1.5;"/>
    <path clip-path="url(#p5380e49b4b)" d="M 192.829357 124.227059 
L 192.829357 120.025882 
" style="fill:none;stroke:#000000;stroke-width:1.5;"/>
    <path clip-path="url(#p5380e49b4b)" d="M 194.439461 124.227059 
L 194.439461 120.025882 
" style="fill:none;stroke:#000000;stroke-width:1.5;"/>
    <path clip-path="url(#p5380e49b4b)" d="M 195.607446 124.227059 
L 195.607446 120.025882 
" style="fill:none;stroke:#000000;stroke-width:1.5;"/>
    <path clip-path="url(#p5380e49b4b)" d="M 202.714338 124.227059 
L 202.714338 120.025882 
" style="fill:none;stroke:#000000;stroke-width:1.5;"/>
    <path clip-path="url(#p5380e49b4b)" d="M 204.641184 124.227059 
L 204.641184 120.025882 
" style="fill:none;stroke:#000000;stroke-width:1.5;"/>
    <path clip-path="url(#p5380e49b4b)" d="M 206.713202 124.227059 
L 206.713202 120.025882 
" style="fill:none;stroke:#000000;stroke-width:1.5;"/>
    <path clip-path="url(#p5380e49b4b)" d="M 218.874764 124.227059 
L 218.874764 120.025882 
" style="fill:none;stroke:#000000;stroke-width:1.5;"/>
    <path clip-path="url(#p5380e49b4b)" d="M 221.164543 124.227059 
L 221.164543 120.025882 
" style="fill:none;stroke:#000000;stroke-width:1.5;"/>
    <path clip-path="url(#p5380e49b4b)" d="M 225.447155 124.227059 
L 225.447155 120.025882 
" style="fill:none;stroke:#000000;stroke-width:1.5;"/>
    <path clip-path="url(#p5380e49b4b)" d="M 231.986552 124.227059 
L 231.986552 120.025882 
" style="fill:none;stroke:#000000;stroke-width:1.5;"/>
    <path clip-path="url(#p5380e49b4b)" d="M 241.086277 124.227059 
L 241.086277 120.025882 
" style="fill:none;stroke:#000000;stroke-width:1.5;"/>
    <path clip-path="url(#p5380e49b4b)" d="M 247.704859 124.227059 
L 247.704859 120.025882 
" style="fill:none;stroke:#000000;stroke-width:1.5;"/>
    <path clip-path="url(#p5380e49b4b)" d="M 250.443355 124.227059 
L 250.443355 120.025882 
" style="fill:none;stroke:#000000;stroke-width:1.5;"/>
    <path clip-path="url(#p5380e49b4b)" d="M 253.35342 124.227059 
L 253.35342 120.025882 
" style="fill:none;stroke:#000000;stroke-width:1.5;"/>
    <path clip-path="url(#p5380e49b4b)" d="M 280.203879 124.227059 
L 280.203879 120.025882 
" style="fill:none;stroke:#000000;stroke-width:1.5;"/>
    <path clip-path="url(#p5380e49b4b)" d="M 282.902782 124.227059 
L 282.902782 120.025882 
" style="fill:none;stroke:#000000;stroke-width:1.5;"/>
    <path clip-path="url(#p5380e49b4b)" d="M 286.34075 124.227059 
L 286.34075 120.025882 
" style="fill:none;stroke:#000000;stroke-width:1.5;"/>
    <path clip-path="url(#p5380e49b4b)" d="M 292.939535 124.227059 
L 292.939535 120.025882 
" style="fill:none;stroke:#000000;stroke-width:1.5;"/>
    <path clip-path="url(#p5380e49b4b)" d="M 295.691229 124.227059 
L 295.691229 120.025882 
" style="fill:none;stroke:#000000;stroke-width:1.5;"/>
    <path clip-path="url(#p5380e49b4b)" d="M 303.649365 124.227059 
L 303.649365 120.025882 
" style="fill:none;stroke:#000000;stroke-width:1.5;"/>
    <path clip-path="url(#p5380e49b4b)" d="M 313.818093 124.227059 
L 313.818093 120.025882 
" style="fill:none;stroke:#000000;stroke-width:1.5;"/>
    <path clip-path="url(#p5380e49b4b)" d="M 325.069023 124.227059 
L 325.069023 120.025882 
" style="fill:none;stroke:#000000;stroke-width:1.5;"/>
    <path clip-path="url(#p5380e49b4b)" d="M 331.555629 124.227059 
L 331.555629 120.025882 
" style="fill:none;stroke:#000000;stroke-width:1.5;"/>
    <path clip-path="url(#p5380e49b4b)" d="M 336.379342 124.227059 
L 336.379342 120.025882 
" style="fill:none;stroke:#000000;stroke-width:1.5;"/>
    <path clip-path="url(#p5380e49b4b)" d="M 343.545623 124.227059 
L 343.545623 120.025882 
" style="fill:none;stroke:#000000;stroke-width:1.5;"/>
    <path clip-path="url(#p5380e49b4b)" d="M 345.023751 124.227059 
L 345.023751 120.025882 
" style="fill:none;stroke:#000000;stroke-width:1.5;"/>
    <path clip-path="url(#p5380e49b4b)" d="M 349.293166 124.227059 
L 349.293166 120.025882 
" style="fill:none;stroke:#000000;stroke-width:1.5;"/>
    <path clip-path="url(#p5380e49b4b)" d="M 361.342548 124.227059 
L 361.342548 120.025882 
" style="fill:none;stroke:#000000;stroke-width:1.5;"/>
    <path clip-path="url(#p5380e49b4b)" d="M 395.339492 124.227059 
L 395.339492 120.025882 
" style="fill:none;stroke:#000000;stroke-width:1.5;"/>
    <path clip-path="url(#p5380e49b4b)" d="M 397.444505 124.227059 
L 397.444505 120.025882 
" style="fill:none;stroke:#000000;stroke-width:1.5;"/>
    <path clip-path="url(#p5380e49b4b)" d="M 398.869843 124.227059 
L 398.869843 120.025882 
" style="fill:none;stroke:#000000;stroke-width:1.5;"/>
    <path clip-path="url(#p5380e49b4b)" d="M 401.067238 124.227059 
L 401.067238 120.025882 
" style="fill:none;stroke:#000000;stroke-width:1.5;"/>
    <path clip-path="url(#p5380e49b4b)" d="M 433.619048 124.227059 
L 433.619048 120.025882 
" style="fill:none;stroke:#000000;stroke-width:1.5;"/>
   </g>
   <g id="LineCollection_10">
    <path clip-path="url(#p5380e49b4b)" d="M 146.274924 120.025882 
L 146.274924 115.824706 
" style="fill:none;stroke:#000000;stroke-width:1.5;"/>
    <path clip-path="url(#p5380e49b4b)" d="M 183.459082 120.025882 
L 183.459082 115.824706 
" style="fill:none;stroke:#000000;stroke-width:1.5;"/>
    <path clip-path="url(#p5380e49b4b)" d="M 225.315179 120.025882 
L 225.315179 115.824706 
" style="fill:none;stroke:#000000;stroke-width:1.5;"/>
    <path clip-path="url(#p5380e49b4b)" d="M 248.146978 120.025882 
L 248.146978 115.824706 
" style="fill:none;stroke:#000000;stroke-width:1.5;"/>
    <path clip-path="url(#p5380e49b4b)" d="M 252.70014 120.025882 
L 252.70014 115.824706 
" style="fill:none;stroke:#000000;stroke-width:1.5;"/>
    <path clip-path="url(#p5380e49b4b)" d="M 314.365793 120.025882 
L 314.365793 115.824706 
" style="fill:none;stroke:#000000;stroke-width:1.5;"/>
    <path clip-path="url(#p5380e49b4b)" d="M 374.678694 120.025882 
L 374.678694 115.824706 
" style="fill:none;stroke:#000000;stroke-width:1.5;"/>
    <path clip-path="url(#p5380e49b4b)" d="M 394.508045 120.025882 
L 394.508045 115.824706 
" style="fill:none;stroke:#000000;stroke-width:1.5;"/>
    <path clip-path="url(#p5380e49b4b)" d="M 408.002562 120.025882 
L 408.002562 115.824706 
" style="fill:none;stroke:#000000;stroke-width:1.5;"/>
    <path clip-path="url(#p5380e49b4b)" d="M 423.410727 120.025882 
L 423.410727 115.824706 
" style="fill:none;stroke:#000000;stroke-width:1.5;"/>
    <path clip-path="url(#p5380e49b4b)" d="M 436.080395 120.025882 
L 436.080395 115.824706 
" style="fill:none;stroke:#000000;stroke-width:1.5;"/>
    <path clip-path="url(#p5380e49b4b)" d="M 490.157444 120.025882 
L 490.157444 115.824706 
" style="fill:none;stroke:#000000;stroke-width:1.5;"/>
    <path clip-path="url(#p5380e49b4b)" d="M 588.103221 120.025882 
L 588.103221 115.824706 
" style="fill:none;stroke:#000000;stroke-width:1.5;"/>
   </g>
   <g id="LineCollection_11">
    <path clip-path="url(#p5380e49b4b)" d="M 36.042208 115.824706 
L 36.042208 111.623529 
" style="fill:none;stroke:#000000;stroke-width:1.5;"/>
    <path clip-path="url(#p5380e49b4b)" d="M 37.652312 115.824706 
L 37.652312 111.623529 
" style="fill:none;stroke:#000000;stroke-width:1.5;"/>
    <path clip-path="url(#p5380e49b4b)" d="M 281.01553 115.824706 
L 281.01553 111.623529 
" style="fill:none;stroke:#000000;stroke-width:1.5;"/>
    <path clip-path="url(#p5380e49b4b)" d="M 534.118555 115.824706 
L 534.118555 111.623529 
" style="fill:none;stroke:#000000;stroke-width:1.5;"/>
    <path clip-path="url(#p5380e49b4b)" d="M 551.196212 115.824706 
L 551.196212 111.623529 
" style="fill:none;stroke:#000000;stroke-width:1.5;"/>
    <path clip-path="url(#p5380e49b4b)" d="M 585.595682 115.824706 
L 585.595682 111.623529 
" style="fill:none;stroke:#000000;stroke-width:1.5;"/>
    <path clip-path="url(#p5380e49b4b)" d="M 613.633923 115.824706 
L 613.633923 111.623529 
" style="fill:none;stroke:#000000;stroke-width:1.5;"/>
   </g>
   <g id="LineCollection_12">
    <path clip-path="url(#p5380e49b4b)" d="M 71.325916 94.818824 
L 71.325916 90.617647 
" style="fill:none;stroke:#000000;stroke-width:1.5;"/>
    <path clip-path="url(#p5380e49b4b)" d="M 74.744087 94.818824 
L 74.744087 90.617647 
" style="fill:none;stroke:#000000;stroke-width:1.5;"/>
   </g>
   <g id="LineCollection_13">
    <path clip-path="url(#p5380e49b4b)" d="M 267.369241 90.617647 
L 267.369241 86.416471 
" style="fill:none;stroke:#000000;stroke-width:1.5;"/>
    <path clip-path="url(#p5380e49b4b)" d="M 269.876779 90.617647 
L 269.876779 86.416471 
" style="fill:none;stroke:#000000;stroke-width:1.5;"/>
   </g>
   <g id="LineCollection_14">
    <path clip-path="url(#p5380e49b4b)" d="M 29.417028 86.416471 
L 29.417028 82.215294 
" style="fill:none;stroke:#000000;stroke-width:1.5;"/>
    <path clip-path="url(#p5380e49b4b)" d="M 60.041992 86.416471 
L 60.041992 82.215294 
" style="fill:none;stroke:#000000;stroke-width:1.5;"/>
    <path clip-path="url(#p5380e49b4b)" d="M 85.090983 86.416471 
L 85.090983 82.215294 
" style="fill:none;stroke:#000000;stroke-width:1.5;"/>
    <path clip-path="url(#p5380e49b4b)" d="M 106.127912 86.416471 
L 106.127912 82.215294 
" style="fill:none;stroke:#000000;stroke-width:1.5;"/>
    <path clip-path="url(#p5380e49b4b)" d="M 110.694271 86.416471 
L 110.694271 82.215294 
" style="fill:none;stroke:#000000;stroke-width:1.5;"/>
    <path clip-path="url(#p5380e49b4b)" d="M 148.188572 86.416471 
L 148.188572 82.215294 
" style="fill:none;stroke:#000000;stroke-width:1.5;"/>
    <path clip-path="url(#p5380e49b4b)" d="M 170.954383 86.416471 
L 170.954383 82.215294 
" style="fill:none;stroke:#000000;stroke-width:1.5;"/>
    <path clip-path="url(#p5380e49b4b)" d="M 249.592112 86.416471 
L 249.592112 82.215294 
" style="fill:none;stroke:#000000;stroke-width:1.5;"/>
    <path clip-path="url(#p5380e49b4b)" d="M 283.8926 86.416471 
L 283.8926 82.215294 
" style="fill:none;stroke:#000000;stroke-width:1.5;"/>
    <path clip-path="url(#p5380e49b4b)" d="M 291.639575 86.416471 
L 291.639575 82.215294 
" style="fill:none;stroke:#000000;stroke-width:1.5;"/>
    <path clip-path="url(#p5380e49b4b)" d="M 332.472861 86.416471 
L 332.472861 82.215294 
" style="fill:none;stroke:#000000;stroke-width:1.5;"/>
    <path clip-path="url(#p5380e49b4b)" d="M 357.416271 86.416471 
L 357.416271 82.215294 
" style="fill:none;stroke:#000000;stroke-width:1.5;"/>
    <path clip-path="url(#p5380e49b4b)" d="M 383.059152 86.416471 
L 383.059152 82.215294 
" style="fill:none;stroke:#000000;stroke-width:1.5;"/>
    <path clip-path="url(#p5380e49b4b)" d="M 439.049849 86.416471 
L 439.049849 82.215294 
" style="fill:none;stroke:#000000;stroke-width:1.5;"/>
    <path clip-path="url(#p5380e49b4b)" d="M 475.052824 86.416471 
L 475.052824 82.215294 
" style="fill:none;stroke:#000000;stroke-width:1.5;"/>
    <path clip-path="url(#p5380e49b4b)" d="M 485.736258 86.416471 
L 485.736258 82.215294 
" style="fill:none;stroke:#000000;stroke-width:1.5;"/>
    <path clip-path="url(#p5380e49b4b)" d="M 493.978141 86.416471 
L 493.978141 82.215294 
" style="fill:none;stroke:#000000;stroke-width:1.5;"/>
    <path clip-path="url(#p5380e49b4b)" d="M 505.169682 86.416471 
L 505.169682 82.215294 
" style="fill:none;stroke:#000000;stroke-width:1.5;"/>
    <path clip-path="url(#p5380e49b4b)" d="M 526.813699 86.416471 
L 526.813699 82.215294 
" style="fill:none;stroke:#000000;stroke-width:1.5;"/>
    <path clip-path="url(#p5380e49b4b)" d="M 543.488831 86.416471 
L 543.488831 82.215294 
" style="fill:none;stroke:#000000;stroke-width:1.5;"/>
    <path clip-path="url(#p5380e49b4b)" d="M 551.823097 86.416471 
L 551.823097 82.215294 
" style="fill:none;stroke:#000000;stroke-width:1.5;"/>
    <path clip-path="url(#p5380e49b4b)" d="M 564.340993 86.416471 
L 564.340993 82.215294 
" style="fill:none;stroke:#000000;stroke-width:1.5;"/>
    <path clip-path="url(#p5380e49b4b)" d="M 569.276885 86.416471 
L 569.276885 82.215294 
" style="fill:none;stroke:#000000;stroke-width:1.5;"/>
    <path clip-path="url(#p5380e49b4b)" d="M 579.214656 86.416471 
L 579.214656 82.215294 
" style="fill:none;stroke:#000000;stroke-width:1.5;"/>
    <path clip-path="url(#p5380e49b4b)" d="M 593.567015 86.416471 
L 593.567015 82.215294 
" style="fill:none;stroke:#000000;stroke-width:1.5;"/>
    <path clip-path="url(#p5380e49b4b)" d="M 612.729889 86.416471 
L 612.729889 82.215294 
" style="fill:none;stroke:#000000;stroke-width:1.5;"/>
   </g>
   <g id="LineCollection_15">
    <path clip-path="url(#p5380e49b4b)" d="M 48.282956 82.215294 
L 48.282956 78.014118 
" style="fill:none;stroke:#000000;stroke-width:1.5;"/>
    <path clip-path="url(#p5380e49b4b)" d="M 169.839188 82.215294 
L 169.839188 78.014118 
" style="fill:none;stroke:#000000;stroke-width:1.5;"/>
    <path clip-path="url(#p5380e49b4b)" d="M 178.866327 82.215294 
L 178.866327 78.014118 
" style="fill:none;stroke:#000000;stroke-width:1.5;"/>
    <path clip-path="url(#p5380e49b4b)" d="M 223.203568 82.215294 
L 223.203568 78.014118 
" style="fill:none;stroke:#000000;stroke-width:1.5;"/>
    <path clip-path="url(#p5380e49b4b)" d="M 290.907109 82.215294 
L 290.907109 78.014118 
" style="fill:none;stroke:#000000;stroke-width:1.5;"/>
    <path clip-path="url(#p5380e49b4b)" d="M 296.265323 82.215294 
L 296.265323 78.014118 
" style="fill:none;stroke:#000000;stroke-width:1.5;"/>
    <path clip-path="url(#p5380e49b4b)" d="M 297.175956 82.215294 
L 297.175956 78.014118 
" style="fill:none;stroke:#000000;stroke-width:1.5;"/>
    <path clip-path="url(#p5380e49b4b)" d="M 321.479284 82.215294 
L 321.479284 78.014118 
" style="fill:none;stroke:#000000;stroke-width:1.5;"/>
    <path clip-path="url(#p5380e49b4b)" d="M 329.793754 82.215294 
L 329.793754 78.014118 
" style="fill:none;stroke:#000000;stroke-width:1.5;"/>
    <path clip-path="url(#p5380e49b4b)" d="M 330.941942 82.215294 
L 330.941942 78.014118 
" style="fill:none;stroke:#000000;stroke-width:1.5;"/>
   </g>
   <g id="LineCollection_16">
    <path clip-path="url(#p5380e49b4b)" d="M 145.205921 78.014118 
L 145.205921 73.812941 
" style="fill:none;stroke:#000000;stroke-width:1.5;"/>
    <path clip-path="url(#p5380e49b4b)" d="M 291.303037 78.014118 
L 291.303037 73.812941 
" style="fill:none;stroke:#000000;stroke-width:1.5;"/>
   </g>
   <g id="LineCollection_17">
    <path clip-path="url(#p5380e49b4b)" d="M 181.611421 73.812941 
L 181.611421 69.611765 
" style="fill:none;stroke:#000000;stroke-width:1.5;"/>
   </g>
   <g id="LineCollection_18">
    <path clip-path="url(#p5380e49b4b)" d="M 119.965565 69.611765 
L 119.965565 65.410588 
" style="fill:none;stroke:#000000;stroke-width:1.5;"/>
    <path clip-path="url(#p5380e49b4b)" d="M 138.593937 69.611765 
L 138.593937 65.410588 
" style="fill:none;stroke:#000000;stroke-width:1.5;"/>
    <path clip-path="url(#p5380e49b4b)" d="M 169.053932 69.611765 
L 169.053932 65.410588 
" style="fill:none;stroke:#000000;stroke-width:1.5;"/>
    <path clip-path="url(#p5380e49b4b)" d="M 191.733959 69.611765 
L 191.733959 65.410588 
" style="fill:none;stroke:#000000;stroke-width:1.5;"/>
    <path clip-path="url(#p5380e49b4b)" d="M 198.154577 69.611765 
L 198.154577 65.410588 
" style="fill:none;stroke:#000000;stroke-width:1.5;"/>
    <path clip-path="url(#p5380e49b4b)" d="M 237.536131 69.611765 
L 237.536131 65.410588 
" style="fill:none;stroke:#000000;stroke-width:1.5;"/>
    <path clip-path="url(#p5380e49b4b)" d="M 242.353244 69.611765 
L 242.353244 65.410588 
" style="fill:none;stroke:#000000;stroke-width:1.5;"/>
    <path clip-path="url(#p5380e49b4b)" d="M 306.566028 69.611765 
L 306.566028 65.410588 
" style="fill:none;stroke:#000000;stroke-width:1.5;"/>
    <path clip-path="url(#p5380e49b4b)" d="M 617.005902 69.611765 
L 617.005902 65.410588 
" style="fill:none;stroke:#000000;stroke-width:1.5;"/>
    <path clip-path="url(#p5380e49b4b)" d="M 624.502123 69.611765 
L 624.502123 65.410588 
" style="fill:none;stroke:#000000;stroke-width:1.5;"/>
   </g>
   <g id="LineCollection_19">
    <path clip-path="url(#p5380e49b4b)" d="M 545.910585 65.410588 
L 545.910585 61.209412 
" style="fill:none;stroke:#000000;stroke-width:1.5;"/>
   </g>
   <g id="LineCollection_20">
    <path clip-path="url(#p5380e49b4b)" d="M 175.962861 61.209412 
L 175.962861 57.008235 
" style="fill:none;stroke:#000000;stroke-width:1.5;"/>
    <path clip-path="url(#p5380e49b4b)" d="M 180.85916 61.209412 
L 180.85916 57.008235 
" style="fill:none;stroke:#000000;stroke-width:1.5;"/>
    <path clip-path="url(#p5380e49b4b)" d="M 190.447196 61.209412 
L 190.447196 57.008235 
" style="fill:none;stroke:#000000;stroke-width:1.5;"/>
    <path clip-path="url(#p5380e49b4b)" d="M 200.127614 61.209412 
L 200.127614 57.008235 
" style="fill:none;stroke:#000000;stroke-width:1.5;"/>
    <path clip-path="url(#p5380e49b4b)" d="M 213.971867 61.209412 
L 213.971867 57.008235 
" style="fill:none;stroke:#000000;stroke-width:1.5;"/>
    <path clip-path="url(#p5380e49b4b)" d="M 218.406251 61.209412 
L 218.406251 57.008235 
" style="fill:none;stroke:#000000;stroke-width:1.5;"/>
    <path clip-path="url(#p5380e49b4b)" d="M 232.078935 61.209412 
L 232.078935 57.008235 
" style="fill:none;stroke:#000000;stroke-width:1.5;"/>
    <path clip-path="url(#p5380e49b4b)" d="M 267.118487 61.209412 
L 267.118487 57.008235 
" style="fill:none;stroke:#000000;stroke-width:1.5;"/>
    <path clip-path="url(#p5380e49b4b)" d="M 268.999141 61.209412 
L 268.999141 57.008235 
" style="fill:none;stroke:#000000;stroke-width:1.5;"/>
    <path clip-path="url(#p5380e49b4b)" d="M 271.99499 61.209412 
L 271.99499 57.008235 
" style="fill:none;stroke:#000000;stroke-width:1.5;"/>
    <path clip-path="url(#p5380e49b4b)" d="M 316.002292 61.209412 
L 316.002292 57.008235 
" style="fill:none;stroke:#000000;stroke-width:1.5;"/>
    <path clip-path="url(#p5380e49b4b)" d="M 478.787737 61.209412 
L 478.787737 57.008235 
" style="fill:none;stroke:#000000;stroke-width:1.5;"/>
    <path clip-path="url(#p5380e49b4b)" d="M 565.515577 61.209412 
L 565.515577 57.008235 
" style="fill:none;stroke:#000000;stroke-width:1.5;"/>
    <path clip-path="url(#p5380e49b4b)" d="M 574.028011 61.209412 
L 574.028011 57.008235 
" style="fill:none;stroke:#000000;stroke-width:1.5;"/>
    <path clip-path="url(#p5380e49b4b)" d="M 595.98877 61.209412 
L 595.98877 57.008235 
" style="fill:none;stroke:#000000;stroke-width:1.5;"/>
    <path clip-path="url(#p5380e49b4b)" d="M 597.994801 61.209412 
L 597.994801 57.008235 
" style="fill:none;stroke:#000000;stroke-width:1.5;"/>
   </g>
   <g id="LineCollection_21">
    <path clip-path="url(#p5380e49b4b)" d="M 479.902931 52.807059 
L 479.902931 48.605882 
" style="fill:none;stroke:#000000;stroke-width:1.5;"/>
    <path clip-path="url(#p5380e49b4b)" d="M 481.519634 52.807059 
L 481.519634 48.605882 
" style="fill:none;stroke:#000000;stroke-width:1.5;"/>
    <path clip-path="url(#p5380e49b4b)" d="M 482.555643 52.807059 
L 482.555643 48.605882 
" style="fill:none;stroke:#000000;stroke-width:1.5;"/>
    <path clip-path="url(#p5380e49b4b)" d="M 482.997762 52.807059 
L 482.997762 48.605882 
" style="fill:none;stroke:#000000;stroke-width:1.5;"/>
   </g>
   <g id="LineCollection_22">
    <path clip-path="url(#p5380e49b4b)" d="M 30.716988 40.203529 
L 30.716988 36.002353 
" style="fill:none;stroke:#000000;stroke-width:1.5;"/>
    <path clip-path="url(#p5380e49b4b)" d="M 37.170601 40.203529 
L 37.170601 36.002353 
" style="fill:none;stroke:#000000;stroke-width:1.5;"/>
    <path clip-path="url(#p5380e49b4b)" d="M 42.443031 40.203529 
L 42.443031 36.002353 
" style="fill:none;stroke:#000000;stroke-width:1.5;"/>
    <path clip-path="url(#p5380e49b4b)" d="M 45.524664 40.203529 
L 45.524664 36.002353 
" style="fill:none;stroke:#000000;stroke-width:1.5;"/>
    <path clip-path="url(#p5380e49b4b)" d="M 49.233181 40.203529 
L 49.233181 36.002353 
" style="fill:none;stroke:#000000;stroke-width:1.5;"/>
    <path clip-path="url(#p5380e49b4b)" d="M 53.357422 40.203529 
L 53.357422 36.002353 
" style="fill:none;stroke:#000000;stroke-width:1.5;"/>
    <path clip-path="url(#p5380e49b4b)" d="M 61.68509 40.203529 
L 61.68509 36.002353 
" style="fill:none;stroke:#000000;stroke-width:1.5;"/>
    <path clip-path="url(#p5380e49b4b)" d="M 65.063668 40.203529 
L 65.063668 36.002353 
" style="fill:none;stroke:#000000;stroke-width:1.5;"/>
    <path clip-path="url(#p5380e49b4b)" d="M 70.850803 40.203529 
L 70.850803 36.002353 
" style="fill:none;stroke:#000000;stroke-width:1.5;"/>
    <path clip-path="url(#p5380e49b4b)" d="M 76.941482 40.203529 
L 76.941482 36.002353 
" style="fill:none;stroke:#000000;stroke-width:1.5;"/>
    <path clip-path="url(#p5380e49b4b)" d="M 82.273301 40.203529 
L 82.273301 36.002353 
" style="fill:none;stroke:#000000;stroke-width:1.5;"/>
    <path clip-path="url(#p5380e49b4b)" d="M 87.097014 40.203529 
L 87.097014 36.002353 
" style="fill:none;stroke:#000000;stroke-width:1.5;"/>
    <path clip-path="url(#p5380e49b4b)" d="M 100.010837 40.203529 
L 100.010837 36.002353 
" style="fill:none;stroke:#000000;stroke-width:1.5;"/>
    <path clip-path="url(#p5380e49b4b)" d="M 104.596993 40.203529 
L 104.596993 36.002353 
" style="fill:none;stroke:#000000;stroke-width:1.5;"/>
    <path clip-path="url(#p5380e49b4b)" d="M 110.912031 40.203529 
L 110.912031 36.002353 
" style="fill:none;stroke:#000000;stroke-width:1.5;"/>
    <path clip-path="url(#p5380e49b4b)" d="M 114.805315 40.203529 
L 114.805315 36.002353 
" style="fill:none;stroke:#000000;stroke-width:1.5;"/>
    <path clip-path="url(#p5380e49b4b)" d="M 120.440678 40.203529 
L 120.440678 36.002353 
" style="fill:none;stroke:#000000;stroke-width:1.5;"/>
    <path clip-path="url(#p5380e49b4b)" d="M 125.205001 40.203529 
L 125.205001 36.002353 
" style="fill:none;stroke:#000000;stroke-width:1.5;"/>
    <path clip-path="url(#p5380e49b4b)" d="M 129.210464 40.203529 
L 129.210464 36.002353 
" style="fill:none;stroke:#000000;stroke-width:1.5;"/>
    <path clip-path="url(#p5380e49b4b)" d="M 133.110346 40.203529 
L 133.110346 36.002353 
" style="fill:none;stroke:#000000;stroke-width:1.5;"/>
    <path clip-path="url(#p5380e49b4b)" d="M 134.634666 40.203529 
L 134.634666 36.002353 
" style="fill:none;stroke:#000000;stroke-width:1.5;"/>
    <path clip-path="url(#p5380e49b4b)" d="M 140.415202 40.203529 
L 140.415202 36.002353 
" style="fill:none;stroke:#000000;stroke-width:1.5;"/>
    <path clip-path="url(#p5380e49b4b)" d="M 146.73024 40.203529 
L 146.73024 36.002353 
" style="fill:none;stroke:#000000;stroke-width:1.5;"/>
    <path clip-path="url(#p5380e49b4b)" d="M 163.2536 40.203529 
L 163.2536 36.002353 
" style="fill:none;stroke:#000000;stroke-width:1.5;"/>
    <path clip-path="url(#p5380e49b4b)" d="M 168.638209 40.203529 
L 168.638209 36.002353 
" style="fill:none;stroke:#000000;stroke-width:1.5;"/>
    <path clip-path="url(#p5380e49b4b)" d="M 172.227948 40.203529 
L 172.227948 36.002353 
" style="fill:none;stroke:#000000;stroke-width:1.5;"/>
    <path clip-path="url(#p5380e49b4b)" d="M 177.249624 40.203529 
L 177.249624 36.002353 
" style="fill:none;stroke:#000000;stroke-width:1.5;"/>
    <path clip-path="url(#p5380e49b4b)" d="M 181.387063 40.203529 
L 181.387063 36.002353 
" style="fill:none;stroke:#000000;stroke-width:1.5;"/>
    <path clip-path="url(#p5380e49b4b)" d="M 192.037503 40.203529 
L 192.037503 36.002353 
" style="fill:none;stroke:#000000;stroke-width:1.5;"/>
    <path clip-path="url(#p5380e49b4b)" d="M 196.452091 40.203529 
L 196.452091 36.002353 
" style="fill:none;stroke:#000000;stroke-width:1.5;"/>
    <path clip-path="url(#p5380e49b4b)" d="M 203.242241 40.203529 
L 203.242241 36.002353 
" style="fill:none;stroke:#000000;stroke-width:1.5;"/>
    <path clip-path="url(#p5380e49b4b)" d="M 207.412674 40.203529 
L 207.412674 36.002353 
" style="fill:none;stroke:#000000;stroke-width:1.5;"/>
    <path clip-path="url(#p5380e49b4b)" d="M 212.909462 40.203529 
L 212.909462 36.002353 
" style="fill:none;stroke:#000000;stroke-width:1.5;"/>
    <path clip-path="url(#p5380e49b4b)" d="M 218.445843 40.203529 
L 218.445843 36.002353 
" style="fill:none;stroke:#000000;stroke-width:1.5;"/>
    <path clip-path="url(#p5380e49b4b)" d="M 223.711674 40.203529 
L 223.711674 36.002353 
" style="fill:none;stroke:#000000;stroke-width:1.5;"/>
    <path clip-path="url(#p5380e49b4b)" d="M 239.825909 40.203529 
L 239.825909 36.002353 
" style="fill:none;stroke:#000000;stroke-width:1.5;"/>
    <path clip-path="url(#p5380e49b4b)" d="M 243.052715 40.203529 
L 243.052715 36.002353 
" style="fill:none;stroke:#000000;stroke-width:1.5;"/>
    <path clip-path="url(#p5380e49b4b)" d="M 247.223148 40.203529 
L 247.223148 36.002353 
" style="fill:none;stroke:#000000;stroke-width:1.5;"/>
    <path clip-path="url(#p5380e49b4b)" d="M 258.718233 40.203529 
L 258.718233 36.002353 
" style="fill:none;stroke:#000000;stroke-width:1.5;"/>
    <path clip-path="url(#p5380e49b4b)" d="M 264.089644 40.203529 
L 264.089644 36.002353 
" style="fill:none;stroke:#000000;stroke-width:1.5;"/>
    <path clip-path="url(#p5380e49b4b)" d="M 269.16411 40.203529 
L 269.16411 36.002353 
" style="fill:none;stroke:#000000;stroke-width:1.5;"/>
    <path clip-path="url(#p5380e49b4b)" d="M 273.492914 40.203529 
L 273.492914 36.002353 
" style="fill:none;stroke:#000000;stroke-width:1.5;"/>
    <path clip-path="url(#p5380e49b4b)" d="M 278.006483 40.203529 
L 278.006483 36.002353 
" style="fill:none;stroke:#000000;stroke-width:1.5;"/>
    <path clip-path="url(#p5380e49b4b)" d="M 280.038909 40.203529 
L 280.038909 36.002353 
" style="fill:none;stroke:#000000;stroke-width:1.5;"/>
    <path clip-path="url(#p5380e49b4b)" d="M 285.839242 40.203529 
L 285.839242 36.002353 
" style="fill:none;stroke:#000000;stroke-width:1.5;"/>
    <path clip-path="url(#p5380e49b4b)" d="M 293.632408 40.203529 
L 293.632408 36.002353 
" style="fill:none;stroke:#000000;stroke-width:1.5;"/>
    <path clip-path="url(#p5380e49b4b)" d="M 296.60846 40.203529 
L 296.60846 36.002353 
" style="fill:none;stroke:#000000;stroke-width:1.5;"/>
    <path clip-path="url(#p5380e49b4b)" d="M 298.799257 40.203529 
L 298.799257 36.002353 
" style="fill:none;stroke:#000000;stroke-width:1.5;"/>
    <path clip-path="url(#p5380e49b4b)" d="M 303.07527 40.203529 
L 303.07527 36.002353 
" style="fill:none;stroke:#000000;stroke-width:1.5;"/>
    <path clip-path="url(#p5380e49b4b)" d="M 308.671041 40.203529 
L 308.671041 36.002353 
" style="fill:none;stroke:#000000;stroke-width:1.5;"/>
    <path clip-path="url(#p5380e49b4b)" d="M 316.82714 40.203529 
L 316.82714 36.002353 
" style="fill:none;stroke:#000000;stroke-width:1.5;"/>
    <path clip-path="url(#p5380e49b4b)" d="M 321.921402 40.203529 
L 321.921402 36.002353 
" style="fill:none;stroke:#000000;stroke-width:1.5;"/>
    <path clip-path="url(#p5380e49b4b)" d="M 328.883121 40.203529 
L 328.883121 36.002353 
" style="fill:none;stroke:#000000;stroke-width:1.5;"/>
    <path clip-path="url(#p5380e49b4b)" d="M 333.772821 40.203529 
L 333.772821 36.002353 
" style="fill:none;stroke:#000000;stroke-width:1.5;"/>
    <path clip-path="url(#p5380e49b4b)" d="M 340.985294 40.203529 
L 340.985294 36.002353 
" style="fill:none;stroke:#000000;stroke-width:1.5;"/>
    <path clip-path="url(#p5380e49b4b)" d="M 347.617074 40.203529 
L 347.617074 36.002353 
" style="fill:none;stroke:#000000;stroke-width:1.5;"/>
    <path clip-path="url(#p5380e49b4b)" d="M 353.489993 40.203529 
L 353.489993 36.002353 
" style="fill:none;stroke:#000000;stroke-width:1.5;"/>
    <path clip-path="url(#p5380e49b4b)" d="M 360.808047 40.203529 
L 360.808047 36.002353 
" style="fill:none;stroke:#000000;stroke-width:1.5;"/>
    <path clip-path="url(#p5380e49b4b)" d="M 366.98451 40.203529 
L 366.98451 36.002353 
" style="fill:none;stroke:#000000;stroke-width:1.5;"/>
    <path clip-path="url(#p5380e49b4b)" d="M 374.738083 40.203529 
L 374.738083 36.002353 
" style="fill:none;stroke:#000000;stroke-width:1.5;"/>
    <path clip-path="url(#p5380e49b4b)" d="M 382.300292 40.203529 
L 382.300292 36.002353 
" style="fill:none;stroke:#000000;stroke-width:1.5;"/>
    <path clip-path="url(#p5380e49b4b)" d="M 386.761071 40.203529 
L 386.761071 36.002353 
" style="fill:none;stroke:#000000;stroke-width:1.5;"/>
    <path clip-path="url(#p5380e49b4b)" d="M 391.677166 40.203529 
L 391.677166 36.002353 
" style="fill:none;stroke:#000000;stroke-width:1.5;"/>
    <path clip-path="url(#p5380e49b4b)" d="M 397.754648 40.203529 
L 397.754648 36.002353 
" style="fill:none;stroke:#000000;stroke-width:1.5;"/>
    <path clip-path="url(#p5380e49b4b)" d="M 404.623984 40.203529 
L 404.623984 36.002353 
" style="fill:none;stroke:#000000;stroke-width:1.5;"/>
    <path clip-path="url(#p5380e49b4b)" d="M 412.931855 40.203529 
L 412.931855 36.002353 
" style="fill:none;stroke:#000000;stroke-width:1.5;"/>
    <path clip-path="url(#p5380e49b4b)" d="M 423.0148 40.203529 
L 423.0148 36.002353 
" style="fill:none;stroke:#000000;stroke-width:1.5;"/>
    <path clip-path="url(#p5380e49b4b)" d="M 428.650163 40.203529 
L 428.650163 36.002353 
" style="fill:none;stroke:#000000;stroke-width:1.5;"/>
    <path clip-path="url(#p5380e49b4b)" d="M 437.017423 40.203529 
L 437.017423 36.002353 
" style="fill:none;stroke:#000000;stroke-width:1.5;"/>
    <path clip-path="url(#p5380e49b4b)" d="M 443.042114 40.203529 
L 443.042114 36.002353 
" style="fill:none;stroke:#000000;stroke-width:1.5;"/>
    <path clip-path="url(#p5380e49b4b)" d="M 450.221593 40.203529 
L 450.221593 36.002353 
" style="fill:none;stroke:#000000;stroke-width:1.5;"/>
    <path clip-path="url(#p5380e49b4b)" d="M 456.27268 40.203529 
L 456.27268 36.002353 
" style="fill:none;stroke:#000000;stroke-width:1.5;"/>
    <path clip-path="url(#p5380e49b4b)" d="M 459.618264 40.203529 
L 459.618264 36.002353 
" style="fill:none;stroke:#000000;stroke-width:1.5;"/>
    <path clip-path="url(#p5380e49b4b)" d="M 463.940469 40.203529 
L 463.940469 36.002353 
" style="fill:none;stroke:#000000;stroke-width:1.5;"/>
    <path clip-path="url(#p5380e49b4b)" d="M 472.017382 40.203529 
L 472.017382 36.002353 
" style="fill:none;stroke:#000000;stroke-width:1.5;"/>
    <path clip-path="url(#p5380e49b4b)" d="M 475.99645 40.203529 
L 475.99645 36.002353 
" style="fill:none;stroke:#000000;stroke-width:1.5;"/>
    <path clip-path="url(#p5380e49b4b)" d="M 479.401424 40.203529 
L 479.401424 36.002353 
" style="fill:none;stroke:#000000;stroke-width:1.5;"/>
    <path clip-path="url(#p5380e49b4b)" d="M 481.875968 40.203529 
L 481.875968 36.002353 
" style="fill:none;stroke:#000000;stroke-width:1.5;"/>
    <path clip-path="url(#p5380e49b4b)" d="M 489.735122 40.203529 
L 489.735122 36.002353 
" style="fill:none;stroke:#000000;stroke-width:1.5;"/>
    <path clip-path="url(#p5380e49b4b)" d="M 494.275087 40.203529 
L 494.275087 36.002353 
" style="fill:none;stroke:#000000;stroke-width:1.5;"/>
    <path clip-path="url(#p5380e49b4b)" d="M 499.03941 40.203529 
L 499.03941 36.002353 
" style="fill:none;stroke:#000000;stroke-width:1.5;"/>
    <path clip-path="url(#p5380e49b4b)" d="M 502.648946 40.203529 
L 502.648946 36.002353 
" style="fill:none;stroke:#000000;stroke-width:1.5;"/>
    <path clip-path="url(#p5380e49b4b)" d="M 506.383858 40.203529 
L 506.383858 36.002353 
" style="fill:none;stroke:#000000;stroke-width:1.5;"/>
    <path clip-path="url(#p5380e49b4b)" d="M 512.415149 40.203529 
L 512.415149 36.002353 
" style="fill:none;stroke:#000000;stroke-width:1.5;"/>
    <path clip-path="url(#p5380e49b4b)" d="M 516.367821 40.203529 
L 516.367821 36.002353 
" style="fill:none;stroke:#000000;stroke-width:1.5;"/>
    <path clip-path="url(#p5380e49b4b)" d="M 519.977357 40.203529 
L 519.977357 36.002353 
" style="fill:none;stroke:#000000;stroke-width:1.5;"/>
    <path clip-path="url(#p5380e49b4b)" d="M 524.055407 40.203529 
L 524.055407 36.002353 
" style="fill:none;stroke:#000000;stroke-width:1.5;"/>
    <path clip-path="url(#p5380e49b4b)" d="M 531.116107 40.203529 
L 531.116107 36.002353 
" style="fill:none;stroke:#000000;stroke-width:1.5;"/>
    <path clip-path="url(#p5380e49b4b)" d="M 536.586501 40.203529 
L 536.586501 36.002353 
" style="fill:none;stroke:#000000;stroke-width:1.5;"/>
    <path clip-path="url(#p5380e49b4b)" d="M 541.80614 40.203529 
L 541.80614 36.002353 
" style="fill:none;stroke:#000000;stroke-width:1.5;"/>
    <path clip-path="url(#p5380e49b4b)" d="M 547.368917 40.203529 
L 547.368917 36.002353 
" style="fill:none;stroke:#000000;stroke-width:1.5;"/>
    <path clip-path="url(#p5380e49b4b)" d="M 550.767291 40.203529 
L 550.767291 36.002353 
" style="fill:none;stroke:#000000;stroke-width:1.5;"/>
    <path clip-path="url(#p5380e49b4b)" d="M 559.880214 40.203529 
L 559.880214 36.002353 
" style="fill:none;stroke:#000000;stroke-width:1.5;"/>
    <path clip-path="url(#p5380e49b4b)" d="M 562.486735 40.203529 
L 562.486735 36.002353 
" style="fill:none;stroke:#000000;stroke-width:1.5;"/>
    <path clip-path="url(#p5380e49b4b)" d="M 565.99069 40.203529 
L 565.99069 36.002353 
" style="fill:none;stroke:#000000;stroke-width:1.5;"/>
    <path clip-path="url(#p5380e49b4b)" d="M 574.371148 40.203529 
L 574.371148 36.002353 
" style="fill:none;stroke:#000000;stroke-width:1.5;"/>
    <path clip-path="url(#p5380e49b4b)" d="M 576.91168 40.203529 
L 576.91168 36.002353 
" style="fill:none;stroke:#000000;stroke-width:1.5;"/>
    <path clip-path="url(#p5380e49b4b)" d="M 581.200891 40.203529 
L 581.200891 36.002353 
" style="fill:none;stroke:#000000;stroke-width:1.5;"/>
    <path clip-path="url(#p5380e49b4b)" d="M 585.628676 40.203529 
L 585.628676 36.002353 
" style="fill:none;stroke:#000000;stroke-width:1.5;"/>
    <path clip-path="url(#p5380e49b4b)" d="M 591.026483 40.203529 
L 591.026483 36.002353 
" style="fill:none;stroke:#000000;stroke-width:1.5;"/>
    <path clip-path="url(#p5380e49b4b)" d="M 596.9126 40.203529 
L 596.9126 36.002353 
" style="fill:none;stroke:#000000;stroke-width:1.5;"/>
    <path clip-path="url(#p5380e49b4b)" d="M 605.055501 40.203529 
L 605.055501 36.002353 
" style="fill:none;stroke:#000000;stroke-width:1.5;"/>
    <path clip-path="url(#p5380e49b4b)" d="M 608.816809 40.203529 
L 608.816809 36.002353 
" style="fill:none;stroke:#000000;stroke-width:1.5;"/>
    <path clip-path="url(#p5380e49b4b)" d="M 611.608096 40.203529 
L 611.608096 36.002353 
" style="fill:none;stroke:#000000;stroke-width:1.5;"/>
    <path clip-path="url(#p5380e49b4b)" d="M 615.540972 40.203529 
L 615.540972 36.002353 
" style="fill:none;stroke:#000000;stroke-width:1.5;"/>
    <path clip-path="url(#p5380e49b4b)" d="M 618.714988 40.203529 
L 618.714988 36.002353 
" style="fill:none;stroke:#000000;stroke-width:1.5;"/>
    <path clip-path="url(#p5380e49b4b)" d="M 623.294545 40.203529 
L 623.294545 36.002353 
" style="fill:none;stroke:#000000;stroke-width:1.5;"/>
    <path clip-path="url(#p5380e49b4b)" d="M 630.480623 40.203529 
L 630.480623 36.002353 
" style="fill:none;stroke:#000000;stroke-width:1.5;"/>
   </g>
   <g id="LineCollection_23">
    <path clip-path="url(#p5380e49b4b)" d="M 185.5311 36.002353 
L 185.5311 31.801176 
" style="fill:none;stroke:#000000;stroke-width:1.5;"/>
    <path clip-path="url(#p5380e49b4b)" d="M 274.898455 36.002353 
L 274.898455 31.801176 
" style="fill:none;stroke:#000000;stroke-width:1.5;"/>
    <path clip-path="url(#p5380e49b4b)" d="M 275.617723 36.002353 
L 275.617723 31.801176 
" style="fill:none;stroke:#000000;stroke-width:1.5;"/>
    <path clip-path="url(#p5380e49b4b)" d="M 276.930881 36.002353 
L 276.930881 31.801176 
" style="fill:none;stroke:#000000;stroke-width:1.5;"/>
    <path clip-path="url(#p5380e49b4b)" d="M 277.656748 36.002353 
L 277.656748 31.801176 
" style="fill:none;stroke:#000000;stroke-width:1.5;"/>
    <path clip-path="url(#p5380e49b4b)" d="M 278.554183 36.002353 
L 278.554183 31.801176 
" style="fill:none;stroke:#000000;stroke-width:1.5;"/>
    <path clip-path="url(#p5380e49b4b)" d="M 281.305876 36.002353 
L 281.305876 31.801176 
" style="fill:none;stroke:#000000;stroke-width:1.5;"/>
    <path clip-path="url(#p5380e49b4b)" d="M 484.753039 36.002353 
L 484.753039 31.801176 
" style="fill:none;stroke:#000000;stroke-width:1.5;"/>
    <path clip-path="url(#p5380e49b4b)" d="M 555.518417 36.002353 
L 555.518417 31.801176 
" style="fill:none;stroke:#000000;stroke-width:1.5;"/>
    <path clip-path="url(#p5380e49b4b)" d="M 612.848667 36.002353 
L 612.848667 31.801176 
" style="fill:none;stroke:#000000;stroke-width:1.5;"/>
    <path clip-path="url(#p5380e49b4b)" d="M 623.373731 36.002353 
L 623.373731 31.801176 
" style="fill:none;stroke:#000000;stroke-width:1.5;"/>
   </g>
   <g id="patch_3">
    <path d="M 28.48 170.44 
L 28.48 27.6 
" style="fill:none;stroke:#000000;stroke-linecap:square;stroke-linejoin:miter;stroke-width:0.8;"/>
   </g>
   <g id="patch_4">
    <path d="M 634.248529 170.44 
L 634.248529 27.6 
" style="fill:none;stroke:#000000;stroke-linecap:square;stroke-linejoin:miter;stroke-width:0.8;"/>
   </g>
   <g id="patch_5">
    <path d="M 28.48 170.44 
L 634.248529 170.44 
" style="fill:none;stroke:#000000;stroke-linecap:square;stroke-linejoin:miter;stroke-width:0.8;"/>
   </g>
   <g id="patch_6">
    <path d="M 28.48 27.6 
L 634.248529 27.6 
" style="fill:none;stroke:#000000;stroke-linecap:square;stroke-linejoin:miter;stroke-width:0.8;"/>
   </g>
   <g id="text_10">
    <!-- V1 raster -->
    <defs>
     <path d="M 28.609375 0 
L 0.78125 72.90625 
L 11.078125 72.90625 
L 34.1875 11.53125 
L 57.328125 72.90625 
L 67.578125 72.90625 
L 39.796875 0 
z
" id="DejaVuSans-86"/>
     <path d="M 41.109375 46.296875 
Q 39.59375 47.171875 37.8125 47.578125 
Q 36.03125 48 33.890625 48 
Q 26.265625 48 22.1875 43.046875 
Q 18.109375 38.09375 18.109375 28.8125 
L 18.109375 0 
L 9.078125 0 
L 9.078125 54.6875 
L 18.109375 54.6875 
L 18.109375 46.1875 
Q 20.953125 51.171875 25.484375 53.578125 
Q 30.03125 56 36.53125 56 
Q 37.453125 56 38.578125 55.875 
Q 39.703125 55.765625 41.0625 55.515625 
z
" id="DejaVuSans-114"/>
     <path d="M 34.28125 27.484375 
Q 23.390625 27.484375 19.1875 25 
Q 14.984375 22.515625 14.984375 16.5 
Q 14.984375 11.71875 18.140625 8.90625 
Q 21.296875 6.109375 26.703125 6.109375 
Q 34.1875 6.109375 38.703125 11.40625 
Q 43.21875 16.703125 43.21875 25.484375 
L 43.21875 27.484375 
z
M 52.203125 31.203125 
L 52.203125 0 
L 43.21875 0 
L 43.21875 8.296875 
Q 40.140625 3.328125 35.546875 0.953125 
Q 30.953125 -1.421875 24.3125 -1.421875 
Q 15.921875 -1.421875 10.953125 3.296875 
Q 6 8.015625 6 15.921875 
Q 6 25.140625 12.171875 29.828125 
Q 18.359375 34.515625 30.609375 34.515625 
L 43.21875 34.515625 
L 43.21875 35.40625 
Q 43.21875 41.609375 39.140625 45 
Q 35.0625 48.390625 27.6875 48.390625 
Q 23 48.390625 18.546875 47.265625 
Q 14.109375 46.140625 10.015625 43.890625 
L 10.015625 52.203125 
Q 14.9375 54.109375 19.578125 55.046875 
Q 24.21875 56 28.609375 56 
Q 40.484375 56 46.34375 49.84375 
Q 52.203125 43.703125 52.203125 31.203125 
z
" id="DejaVuSans-97"/>
     <path d="M 18.3125 70.21875 
L 18.3125 54.6875 
L 36.8125 54.6875 
L 36.8125 47.703125 
L 18.3125 47.703125 
L 18.3125 18.015625 
Q 18.3125 11.328125 20.140625 9.421875 
Q 21.96875 7.515625 27.59375 7.515625 
L 36.8125 7.515625 
L 36.8125 0 
L 27.59375 0 
Q 17.1875 0 13.234375 3.875 
Q 9.28125 7.765625 9.28125 18.015625 
L 9.28125 47.703125 
L 2.6875 47.703125 
L 2.6875 54.6875 
L 9.28125 54.6875 
L 9.28125 70.21875 
z
" id="DejaVuSans-116"/>
    </defs>
    <g transform="translate(298.23414 21.6)scale(0.144 -0.144)">
     <use xlink:href="#DejaVuSans-86"/>
     <use x="68.408203" xlink:href="#DejaVuSans-49"/>
     <use x="132.03125" xlink:href="#DejaVuSans-32"/>
     <use x="163.818359" xlink:href="#DejaVuSans-114"/>
     <use x="204.931641" xlink:href="#DejaVuSans-97"/>
     <use x="266.210938" xlink:href="#DejaVuSans-115"/>
     <use x="318.310547" xlink:href="#DejaVuSans-116"/>
     <use x="357.519531" xlink:href="#DejaVuSans-101"/>
     <use x="419.042969" xlink:href="#DejaVuSans-114"/>
    </g>
   </g>
  </g>
 </g>
 <defs>
  <clipPath id="p5380e49b4b">
   <rect height="142.84" width="605.768529" x="28.48" y="27.6"/>
  </clipPath>
 </defs>
</svg>
