<?xml version="1.0" encoding="utf-8" standalone="no"?>
<!DOCTYPE svg PUBLIC "-//W3C//DTD SVG 1.1//EN"
  "http://www.w3.org/Graphics/SVG/1.1/DTD/svg11.dtd">
<!-- Created with matplotlib (https://matplotlib.org/) -->
<svg height="216pt" version="1.1" viewBox="0 0 576 216" width="576pt" xmlns="http://www.w3.org/2000/svg" xmlns:xlink="http://www.w3.org/1999/xlink">
 <defs>
  <style type="text/css">
*{stroke-linecap:butt;stroke-linejoin:round;}
  </style>
 </defs>
 <g id="figure_1">
  <g id="patch_1">
   <path d="M 0 216 
L 576 216 
L 576 0 
L 0 0 
z
" style="fill:#ffffff;"/>
  </g>
  <g id="axes_1">
   <g id="patch_2">
    <path d="M 28.48 167.56 
L 560.081471 167.56 
L 560.081471 27.6 
L 28.48 27.6 
z
" style="fill:#ffffff;"/>
   </g>
   <g id="PolyCollection_1">
    <defs>
     <path d="M 120.554765 -48.44 
L 120.554765 -188.4 
L 381.143721 -188.4 
L 381.143721 -48.44 
L 381.143721 -48.44 
L 120.554765 -48.44 
z
" id="m5a610c657b" style="stroke:#808080;stroke-opacity:0.3;"/>
    </defs>
    <g clip-path="url(#pc17eeb4289)">
     <use style="fill:#808080;fill-opacity:0.3;stroke:#808080;stroke-opacity:0.3;" x="0" xlink:href="#m5a610c657b" y="216"/>
    </g>
   </g>
   <g id="matplotlib.axis_1">
    <g id="xtick_1">
     <g id="line2d_1">
      <defs>
       <path d="M 0 0 
L 0 3.5 
" id="m27e9b2778a" style="stroke:#000000;stroke-width:0.8;"/>
      </defs>
      <g>
       <use style="stroke:#000000;stroke-width:0.8;" x="33.691779" xlink:href="#m27e9b2778a" y="167.56"/>
      </g>
     </g>
     <g id="text_1">
      <!-- −0.5 -->
      <defs>
       <path d="M 10.59375 35.5 
L 73.1875 35.5 
L 73.1875 27.203125 
L 10.59375 27.203125 
z
" id="DejaVuSans-8722"/>
       <path d="M 31.78125 66.40625 
Q 24.171875 66.40625 20.328125 58.90625 
Q 16.5 51.421875 16.5 36.375 
Q 16.5 21.390625 20.328125 13.890625 
Q 24.171875 6.390625 31.78125 6.390625 
Q 39.453125 6.390625 43.28125 13.890625 
Q 47.125 21.390625 47.125 36.375 
Q 47.125 51.421875 43.28125 58.90625 
Q 39.453125 66.40625 31.78125 66.40625 
z
M 31.78125 74.21875 
Q 44.046875 74.21875 50.515625 64.515625 
Q 56.984375 54.828125 56.984375 36.375 
Q 56.984375 17.96875 50.515625 8.265625 
Q 44.046875 -1.421875 31.78125 -1.421875 
Q 19.53125 -1.421875 13.0625 8.265625 
Q 6.59375 17.96875 6.59375 36.375 
Q 6.59375 54.828125 13.0625 64.515625 
Q 19.53125 74.21875 31.78125 74.21875 
z
" id="DejaVuSans-48"/>
       <path d="M 10.6875 12.40625 
L 21 12.40625 
L 21 0 
L 10.6875 0 
z
" id="DejaVuSans-46"/>
       <path d="M 10.796875 72.90625 
L 49.515625 72.90625 
L 49.515625 64.59375 
L 19.828125 64.59375 
L 19.828125 46.734375 
Q 21.96875 47.46875 24.109375 47.828125 
Q 26.265625 48.1875 28.421875 48.1875 
Q 40.625 48.1875 47.75 41.5 
Q 54.890625 34.8125 54.890625 23.390625 
Q 54.890625 11.625 47.5625 5.09375 
Q 40.234375 -1.421875 26.90625 -1.421875 
Q 22.3125 -1.421875 17.546875 -0.640625 
Q 12.796875 0.140625 7.71875 1.703125 
L 7.71875 11.625 
Q 12.109375 9.234375 16.796875 8.0625 
Q 21.484375 6.890625 26.703125 6.890625 
Q 35.15625 6.890625 40.078125 11.328125 
Q 45.015625 15.765625 45.015625 23.390625 
Q 45.015625 31 40.078125 35.4375 
Q 35.15625 39.890625 26.703125 39.890625 
Q 22.75 39.890625 18.8125 39.015625 
Q 14.890625 38.140625 10.796875 36.28125 
z
" id="DejaVuSans-53"/>
      </defs>
      <g transform="translate(19.122092 183.678125)scale(0.12 -0.12)">
       <use xlink:href="#DejaVuSans-8722"/>
       <use x="83.789062" xlink:href="#DejaVuSans-48"/>
       <use x="147.412109" xlink:href="#DejaVuSans-46"/>
       <use x="179.199219" xlink:href="#DejaVuSans-53"/>
      </g>
     </g>
    </g>
    <g id="xtick_2">
     <g id="line2d_2">
      <g>
       <use style="stroke:#000000;stroke-width:0.8;" x="120.554765" xlink:href="#m27e9b2778a" y="167.56"/>
      </g>
     </g>
     <g id="text_2">
      <!-- 0.0 -->
      <g transform="translate(111.01289 183.678125)scale(0.12 -0.12)">
       <use xlink:href="#DejaVuSans-48"/>
       <use x="63.623047" xlink:href="#DejaVuSans-46"/>
       <use x="95.410156" xlink:href="#DejaVuSans-48"/>
      </g>
     </g>
    </g>
    <g id="xtick_3">
     <g id="line2d_3">
      <g>
       <use style="stroke:#000000;stroke-width:0.8;" x="207.41775" xlink:href="#m27e9b2778a" y="167.56"/>
      </g>
     </g>
     <g id="text_3">
      <!-- 0.5 -->
      <g transform="translate(197.875875 183.678125)scale(0.12 -0.12)">
       <use xlink:href="#DejaVuSans-48"/>
       <use x="63.623047" xlink:href="#DejaVuSans-46"/>
       <use x="95.410156" xlink:href="#DejaVuSans-53"/>
      </g>
     </g>
    </g>
    <g id="xtick_4">
     <g id="line2d_4">
      <g>
       <use style="stroke:#000000;stroke-width:0.8;" x="294.280735" xlink:href="#m27e9b2778a" y="167.56"/>
      </g>
     </g>
     <g id="text_4">
      <!-- 1.0 -->
      <defs>
       <path d="M 12.40625 8.296875 
L 28.515625 8.296875 
L 28.515625 63.921875 
L 10.984375 60.40625 
L 10.984375 69.390625 
L 28.421875 72.90625 
L 38.28125 72.90625 
L 38.28125 8.296875 
L 54.390625 8.296875 
L 54.390625 0 
L 12.40625 0 
z
" id="DejaVuSans-49"/>
      </defs>
      <g transform="translate(284.73886 183.678125)scale(0.12 -0.12)">
       <use xlink:href="#DejaVuSans-49"/>
       <use x="63.623047" xlink:href="#DejaVuSans-46"/>
       <use x="95.410156" xlink:href="#DejaVuSans-48"/>
      </g>
     </g>
    </g>
    <g id="xtick_5">
     <g id="line2d_5">
      <g>
       <use style="stroke:#000000;stroke-width:0.8;" x="381.143721" xlink:href="#m27e9b2778a" y="167.56"/>
      </g>
     </g>
     <g id="text_5">
      <!-- 1.5 -->
      <g transform="translate(371.601846 183.678125)scale(0.12 -0.12)">
       <use xlink:href="#DejaVuSans-49"/>
       <use x="63.623047" xlink:href="#DejaVuSans-46"/>
       <use x="95.410156" xlink:href="#DejaVuSans-53"/>
      </g>
     </g>
    </g>
    <g id="xtick_6">
     <g id="line2d_6">
      <g>
       <use style="stroke:#000000;stroke-width:0.8;" x="468.006706" xlink:href="#m27e9b2778a" y="167.56"/>
      </g>
     </g>
     <g id="text_6">
      <!-- 2.0 -->
      <defs>
       <path d="M 19.1875 8.296875 
L 53.609375 8.296875 
L 53.609375 0 
L 7.328125 0 
L 7.328125 8.296875 
Q 12.9375 14.109375 22.625 23.890625 
Q 32.328125 33.6875 34.8125 36.53125 
Q 39.546875 41.84375 41.421875 45.53125 
Q 43.3125 49.21875 43.3125 52.78125 
Q 43.3125 58.59375 39.234375 62.25 
Q 35.15625 65.921875 28.609375 65.921875 
Q 23.96875 65.921875 18.8125 64.3125 
Q 13.671875 62.703125 7.8125 59.421875 
L 7.8125 69.390625 
Q 13.765625 71.78125 18.9375 73 
Q 24.125 74.21875 28.421875 74.21875 
Q 39.75 74.21875 46.484375 68.546875 
Q 53.21875 62.890625 53.21875 53.421875 
Q 53.21875 48.921875 51.53125 44.890625 
Q 49.859375 40.875 45.40625 35.40625 
Q 44.1875 33.984375 37.640625 27.21875 
Q 31.109375 20.453125 19.1875 8.296875 
z
" id="DejaVuSans-50"/>
      </defs>
      <g transform="translate(458.464831 183.678125)scale(0.12 -0.12)">
       <use xlink:href="#DejaVuSans-50"/>
       <use x="63.623047" xlink:href="#DejaVuSans-46"/>
       <use x="95.410156" xlink:href="#DejaVuSans-48"/>
      </g>
     </g>
    </g>
    <g id="xtick_7">
     <g id="line2d_7">
      <g>
       <use style="stroke:#000000;stroke-width:0.8;" x="554.869691" xlink:href="#m27e9b2778a" y="167.56"/>
      </g>
     </g>
     <g id="text_7">
      <!-- 2.5 -->
      <g transform="translate(545.327816 183.678125)scale(0.12 -0.12)">
       <use xlink:href="#DejaVuSans-50"/>
       <use x="63.623047" xlink:href="#DejaVuSans-46"/>
       <use x="95.410156" xlink:href="#DejaVuSans-53"/>
      </g>
     </g>
    </g>
    <g id="text_8">
     <!-- Time (s) -->
     <defs>
      <path d="M -0.296875 72.90625 
L 61.375 72.90625 
L 61.375 64.59375 
L 35.5 64.59375 
L 35.5 0 
L 25.59375 0 
L 25.59375 64.59375 
L -0.296875 64.59375 
z
" id="DejaVuSans-84"/>
      <path d="M 9.421875 54.6875 
L 18.40625 54.6875 
L 18.40625 0 
L 9.421875 0 
z
M 9.421875 75.984375 
L 18.40625 75.984375 
L 18.40625 64.59375 
L 9.421875 64.59375 
z
" id="DejaVuSans-105"/>
      <path d="M 52 44.1875 
Q 55.375 50.25 60.0625 53.125 
Q 64.75 56 71.09375 56 
Q 79.640625 56 84.28125 50.015625 
Q 88.921875 44.046875 88.921875 33.015625 
L 88.921875 0 
L 79.890625 0 
L 79.890625 32.71875 
Q 79.890625 40.578125 77.09375 44.375 
Q 74.3125 48.1875 68.609375 48.1875 
Q 61.625 48.1875 57.5625 43.546875 
Q 53.515625 38.921875 53.515625 30.90625 
L 53.515625 0 
L 44.484375 0 
L 44.484375 32.71875 
Q 44.484375 40.625 41.703125 44.40625 
Q 38.921875 48.1875 33.109375 48.1875 
Q 26.21875 48.1875 22.15625 43.53125 
Q 18.109375 38.875 18.109375 30.90625 
L 18.109375 0 
L 9.078125 0 
L 9.078125 54.6875 
L 18.109375 54.6875 
L 18.109375 46.1875 
Q 21.1875 51.21875 25.484375 53.609375 
Q 29.78125 56 35.6875 56 
Q 41.65625 56 45.828125 52.96875 
Q 50 49.953125 52 44.1875 
z
" id="DejaVuSans-109"/>
      <path d="M 56.203125 29.59375 
L 56.203125 25.203125 
L 14.890625 25.203125 
Q 15.484375 15.921875 20.484375 11.0625 
Q 25.484375 6.203125 34.421875 6.203125 
Q 39.59375 6.203125 44.453125 7.46875 
Q 49.3125 8.734375 54.109375 11.28125 
L 54.109375 2.78125 
Q 49.265625 0.734375 44.1875 -0.34375 
Q 39.109375 -1.421875 33.890625 -1.421875 
Q 20.796875 -1.421875 13.15625 6.1875 
Q 5.515625 13.8125 5.515625 26.8125 
Q 5.515625 40.234375 12.765625 48.109375 
Q 20.015625 56 32.328125 56 
Q 43.359375 56 49.78125 48.890625 
Q 56.203125 41.796875 56.203125 29.59375 
z
M 47.21875 32.234375 
Q 47.125 39.59375 43.09375 43.984375 
Q 39.0625 48.390625 32.421875 48.390625 
Q 24.90625 48.390625 20.390625 44.140625 
Q 15.875 39.890625 15.1875 32.171875 
z
" id="DejaVuSans-101"/>
      <path id="DejaVuSans-32"/>
      <path d="M 31 75.875 
Q 24.46875 64.65625 21.28125 53.65625 
Q 18.109375 42.671875 18.109375 31.390625 
Q 18.109375 20.125 21.3125 9.0625 
Q 24.515625 -2 31 -13.1875 
L 23.1875 -13.1875 
Q 15.875 -1.703125 12.234375 9.375 
Q 8.59375 20.453125 8.59375 31.390625 
Q 8.59375 42.28125 12.203125 53.3125 
Q 15.828125 64.359375 23.1875 75.875 
z
" id="DejaVuSans-40"/>
      <path d="M 44.28125 53.078125 
L 44.28125 44.578125 
Q 40.484375 46.53125 36.375 47.5 
Q 32.28125 48.484375 27.875 48.484375 
Q 21.1875 48.484375 17.84375 46.4375 
Q 14.5 44.390625 14.5 40.28125 
Q 14.5 37.15625 16.890625 35.375 
Q 19.28125 33.59375 26.515625 31.984375 
L 29.59375 31.296875 
Q 39.15625 29.25 43.1875 25.515625 
Q 47.21875 21.78125 47.21875 15.09375 
Q 47.21875 7.46875 41.1875 3.015625 
Q 35.15625 -1.421875 24.609375 -1.421875 
Q 20.21875 -1.421875 15.453125 -0.5625 
Q 10.6875 0.296875 5.421875 2 
L 5.421875 11.28125 
Q 10.40625 8.6875 15.234375 7.390625 
Q 20.0625 6.109375 24.8125 6.109375 
Q 31.15625 6.109375 34.5625 8.28125 
Q 37.984375 10.453125 37.984375 14.40625 
Q 37.984375 18.0625 35.515625 20.015625 
Q 33.0625 21.96875 24.703125 23.78125 
L 21.578125 24.515625 
Q 13.234375 26.265625 9.515625 29.90625 
Q 5.8125 33.546875 5.8125 39.890625 
Q 5.8125 47.609375 11.28125 51.796875 
Q 16.75 56 26.8125 56 
Q 31.78125 56 36.171875 55.265625 
Q 40.578125 54.546875 44.28125 53.078125 
z
" id="DejaVuSans-115"/>
      <path d="M 8.015625 75.875 
L 15.828125 75.875 
Q 23.140625 64.359375 26.78125 53.3125 
Q 30.421875 42.28125 30.421875 31.390625 
Q 30.421875 20.453125 26.78125 9.375 
Q 23.140625 -1.703125 15.828125 -13.1875 
L 8.015625 -13.1875 
Q 14.5 -2 17.703125 9.0625 
Q 20.90625 20.125 20.90625 31.390625 
Q 20.90625 42.671875 17.703125 53.65625 
Q 14.5 64.65625 8.015625 75.875 
z
" id="DejaVuSans-41"/>
     </defs>
     <g transform="translate(264.785485 201.1155)scale(0.144 -0.144)">
      <use xlink:href="#DejaVuSans-84"/>
      <use x="61.037109" xlink:href="#DejaVuSans-105"/>
      <use x="88.820312" xlink:href="#DejaVuSans-109"/>
      <use x="186.232422" xlink:href="#DejaVuSans-101"/>
      <use x="247.755859" xlink:href="#DejaVuSans-32"/>
      <use x="279.542969" xlink:href="#DejaVuSans-40"/>
      <use x="318.556641" xlink:href="#DejaVuSans-115"/>
      <use x="370.65625" xlink:href="#DejaVuSans-41"/>
     </g>
    </g>
   </g>
   <g id="matplotlib.axis_2">
    <g id="text_9">
     <!-- Cells -->
     <defs>
      <path d="M 64.40625 67.28125 
L 64.40625 56.890625 
Q 59.421875 61.53125 53.78125 63.8125 
Q 48.140625 66.109375 41.796875 66.109375 
Q 29.296875 66.109375 22.65625 58.46875 
Q 16.015625 50.828125 16.015625 36.375 
Q 16.015625 21.96875 22.65625 14.328125 
Q 29.296875 6.6875 41.796875 6.6875 
Q 48.140625 6.6875 53.78125 8.984375 
Q 59.421875 11.28125 64.40625 15.921875 
L 64.40625 5.609375 
Q 59.234375 2.09375 53.4375 0.328125 
Q 47.65625 -1.421875 41.21875 -1.421875 
Q 24.65625 -1.421875 15.125 8.703125 
Q 5.609375 18.84375 5.609375 36.375 
Q 5.609375 53.953125 15.125 64.078125 
Q 24.65625 74.21875 41.21875 74.21875 
Q 47.75 74.21875 53.53125 72.484375 
Q 59.328125 70.75 64.40625 67.28125 
z
" id="DejaVuSans-67"/>
      <path d="M 9.421875 75.984375 
L 18.40625 75.984375 
L 18.40625 0 
L 9.421875 0 
z
" id="DejaVuSans-108"/>
     </defs>
     <g transform="translate(21.48525 114.789125)rotate(-90)scale(0.144 -0.144)">
      <use xlink:href="#DejaVuSans-67"/>
      <use x="69.824219" xlink:href="#DejaVuSans-101"/>
      <use x="131.347656" xlink:href="#DejaVuSans-108"/>
      <use x="159.130859" xlink:href="#DejaVuSans-108"/>
      <use x="186.914062" xlink:href="#DejaVuSans-115"/>
     </g>
    </g>
   </g>
   <g id="LineCollection_1">
    <path clip-path="url(#pc17eeb4289)" d="M 36.778311 163.443529 
L 36.778311 159.327059 
" style="fill:none;stroke:#000000;stroke-width:1.5;"/>
    <path clip-path="url(#pc17eeb4289)" d="M 45.151902 163.443529 
L 45.151902 159.327059 
" style="fill:none;stroke:#000000;stroke-width:1.5;"/>
    <path clip-path="url(#pc17eeb4289)" d="M 47.890982 163.443529 
L 47.890982 159.327059 
" style="fill:none;stroke:#000000;stroke-width:1.5;"/>
    <path clip-path="url(#pc17eeb4289)" d="M 60.364507 163.443529 
L 60.364507 159.327059 
" style="fill:none;stroke:#000000;stroke-width:1.5;"/>
    <path clip-path="url(#pc17eeb4289)" d="M 72.774332 163.443529 
L 72.774332 159.327059 
" style="fill:none;stroke:#000000;stroke-width:1.5;"/>
    <path clip-path="url(#pc17eeb4289)" d="M 78.773669 163.443529 
L 78.773669 159.327059 
" style="fill:none;stroke:#000000;stroke-width:1.5;"/>
    <path clip-path="url(#pc17eeb4289)" d="M 82.99521 163.443529 
L 82.99521 159.327059 
" style="fill:none;stroke:#000000;stroke-width:1.5;"/>
    <path clip-path="url(#pc17eeb4289)" d="M 90.82446 163.443529 
L 90.82446 159.327059 
" style="fill:none;stroke:#000000;stroke-width:1.5;"/>
    <path clip-path="url(#pc17eeb4289)" d="M 115.522502 163.443529 
L 115.522502 159.327059 
" style="fill:none;stroke:#000000;stroke-width:1.5;"/>
    <path clip-path="url(#pc17eeb4289)" d="M 196.698858 163.443529 
L 196.698858 159.327059 
" style="fill:none;stroke:#000000;stroke-width:1.5;"/>
    <path clip-path="url(#pc17eeb4289)" d="M 239.493355 163.443529 
L 239.493355 159.327059 
" style="fill:none;stroke:#000000;stroke-width:1.5;"/>
    <path clip-path="url(#pc17eeb4289)" d="M 425.050064 163.443529 
L 425.050064 159.327059 
" style="fill:none;stroke:#000000;stroke-width:1.5;"/>
    <path clip-path="url(#pc17eeb4289)" d="M 451.450621 163.443529 
L 451.450621 159.327059 
" style="fill:none;stroke:#000000;stroke-width:1.5;"/>
    <path clip-path="url(#pc17eeb4289)" d="M 463.588276 163.443529 
L 463.588276 159.327059 
" style="fill:none;stroke:#000000;stroke-width:1.5;"/>
    <path clip-path="url(#pc17eeb4289)" d="M 469.877156 163.443529 
L 469.877156 159.327059 
" style="fill:none;stroke:#000000;stroke-width:1.5;"/>
    <path clip-path="url(#pc17eeb4289)" d="M 474.417194 163.443529 
L 474.417194 159.327059 
" style="fill:none;stroke:#000000;stroke-width:1.5;"/>
    <path clip-path="url(#pc17eeb4289)" d="M 484.950779 163.443529 
L 484.950779 159.327059 
" style="fill:none;stroke:#000000;stroke-width:1.5;"/>
    <path clip-path="url(#pc17eeb4289)" d="M 487.452433 163.443529 
L 487.452433 159.327059 
" style="fill:none;stroke:#000000;stroke-width:1.5;"/>
    <path clip-path="url(#pc17eeb4289)" d="M 489.959878 163.443529 
L 489.959878 159.327059 
" style="fill:none;stroke:#000000;stroke-width:1.5;"/>
    <path clip-path="url(#pc17eeb4289)" d="M 493.25488 163.443529 
L 493.25488 159.327059 
" style="fill:none;stroke:#000000;stroke-width:1.5;"/>
    <path clip-path="url(#pc17eeb4289)" d="M 497.829664 163.443529 
L 497.829664 159.327059 
" style="fill:none;stroke:#000000;stroke-width:1.5;"/>
    <path clip-path="url(#pc17eeb4289)" d="M 507.106631 163.443529 
L 507.106631 159.327059 
" style="fill:none;stroke:#000000;stroke-width:1.5;"/>
    <path clip-path="url(#pc17eeb4289)" d="M 512.602163 163.443529 
L 512.602163 159.327059 
" style="fill:none;stroke:#000000;stroke-width:1.5;"/>
    <path clip-path="url(#pc17eeb4289)" d="M 514.484194 163.443529 
L 514.484194 159.327059 
" style="fill:none;stroke:#000000;stroke-width:1.5;"/>
    <path clip-path="url(#pc17eeb4289)" d="M 516.273572 163.443529 
L 516.273572 159.327059 
" style="fill:none;stroke:#000000;stroke-width:1.5;"/>
    <path clip-path="url(#pc17eeb4289)" d="M 523.934887 163.443529 
L 523.934887 159.327059 
" style="fill:none;stroke:#000000;stroke-width:1.5;"/>
    <path clip-path="url(#pc17eeb4289)" d="M 527.982702 163.443529 
L 527.982702 159.327059 
" style="fill:none;stroke:#000000;stroke-width:1.5;"/>
    <path clip-path="url(#pc17eeb4289)" d="M 542.558311 163.443529 
L 542.558311 159.327059 
" style="fill:none;stroke:#000000;stroke-width:1.5;"/>
    <path clip-path="url(#pc17eeb4289)" d="M 545.615888 163.443529 
L 545.615888 159.327059 
" style="fill:none;stroke:#000000;stroke-width:1.5;"/>
    <path clip-path="url(#pc17eeb4289)" d="M 553.045569 163.443529 
L 553.045569 159.327059 
" style="fill:none;stroke:#000000;stroke-width:1.5;"/>
   </g>
   <g id="LineCollection_2">
    <path clip-path="url(#pc17eeb4289)" d="M 110.88981 151.094118 
L 110.88981 146.977647 
" style="fill:none;stroke:#000000;stroke-width:1.5;"/>
    <path clip-path="url(#pc17eeb4289)" d="M 128.575113 151.094118 
L 128.575113 146.977647 
" style="fill:none;stroke:#000000;stroke-width:1.5;"/>
    <path clip-path="url(#pc17eeb4289)" d="M 129.275808 151.094118 
L 129.275808 146.977647 
" style="fill:none;stroke:#000000;stroke-width:1.5;"/>
    <path clip-path="url(#pc17eeb4289)" d="M 131.123094 151.094118 
L 131.123094 146.977647 
" style="fill:none;stroke:#000000;stroke-width:1.5;"/>
    <path clip-path="url(#pc17eeb4289)" d="M 134.215417 151.094118 
L 134.215417 146.977647 
" style="fill:none;stroke:#000000;stroke-width:1.5;"/>
    <path clip-path="url(#pc17eeb4289)" d="M 135.263563 151.094118 
L 135.263563 146.977647 
" style="fill:none;stroke:#000000;stroke-width:1.5;"/>
    <path clip-path="url(#pc17eeb4289)" d="M 136.717071 151.094118 
L 136.717071 146.977647 
" style="fill:none;stroke:#000000;stroke-width:1.5;"/>
    <path clip-path="url(#pc17eeb4289)" d="M 137.550955 151.094118 
L 137.550955 146.977647 
" style="fill:none;stroke:#000000;stroke-width:1.5;"/>
    <path clip-path="url(#pc17eeb4289)" d="M 138.402213 151.094118 
L 138.402213 146.977647 
" style="fill:none;stroke:#000000;stroke-width:1.5;"/>
    <path clip-path="url(#pc17eeb4289)" d="M 140.064191 151.094118 
L 140.064191 146.977647 
" style="fill:none;stroke:#000000;stroke-width:1.5;"/>
    <path clip-path="url(#pc17eeb4289)" d="M 142.519518 151.094118 
L 142.519518 146.977647 
" style="fill:none;stroke:#000000;stroke-width:1.5;"/>
    <path clip-path="url(#pc17eeb4289)" d="M 143.654528 151.094118 
L 143.654528 146.977647 
" style="fill:none;stroke:#000000;stroke-width:1.5;"/>
    <path clip-path="url(#pc17eeb4289)" d="M 144.430504 151.094118 
L 144.430504 146.977647 
" style="fill:none;stroke:#000000;stroke-width:1.5;"/>
    <path clip-path="url(#pc17eeb4289)" d="M 145.814521 151.094118 
L 145.814521 146.977647 
" style="fill:none;stroke:#000000;stroke-width:1.5;"/>
    <path clip-path="url(#pc17eeb4289)" d="M 146.706314 151.094118 
L 146.706314 146.977647 
" style="fill:none;stroke:#000000;stroke-width:1.5;"/>
    <path clip-path="url(#pc17eeb4289)" d="M 148.113494 151.094118 
L 148.113494 146.977647 
" style="fill:none;stroke:#000000;stroke-width:1.5;"/>
    <path clip-path="url(#pc17eeb4289)" d="M 150.053434 151.094118 
L 150.053434 146.977647 
" style="fill:none;stroke:#000000;stroke-width:1.5;"/>
    <path clip-path="url(#pc17eeb4289)" d="M 152.468225 151.094118 
L 152.468225 146.977647 
" style="fill:none;stroke:#000000;stroke-width:1.5;"/>
    <path clip-path="url(#pc17eeb4289)" d="M 154.025968 151.094118 
L 154.025968 146.977647 
" style="fill:none;stroke:#000000;stroke-width:1.5;"/>
    <path clip-path="url(#pc17eeb4289)" d="M 160.917098 151.094118 
L 160.917098 146.977647 
" style="fill:none;stroke:#000000;stroke-width:1.5;"/>
    <path clip-path="url(#pc17eeb4289)" d="M 163.951512 151.094118 
L 163.951512 146.977647 
" style="fill:none;stroke:#000000;stroke-width:1.5;"/>
    <path clip-path="url(#pc17eeb4289)" d="M 169.470207 151.094118 
L 169.470207 146.977647 
" style="fill:none;stroke:#000000;stroke-width:1.5;"/>
    <path clip-path="url(#pc17eeb4289)" d="M 172.145587 151.094118 
L 172.145587 146.977647 
" style="fill:none;stroke:#000000;stroke-width:1.5;"/>
    <path clip-path="url(#pc17eeb4289)" d="M 173.106871 151.094118 
L 173.106871 146.977647 
" style="fill:none;stroke:#000000;stroke-width:1.5;"/>
    <path clip-path="url(#pc17eeb4289)" d="M 174.068154 151.094118 
L 174.068154 146.977647 
" style="fill:none;stroke:#000000;stroke-width:1.5;"/>
    <path clip-path="url(#pc17eeb4289)" d="M 177.177849 151.094118 
L 177.177849 146.977647 
" style="fill:none;stroke:#000000;stroke-width:1.5;"/>
    <path clip-path="url(#pc17eeb4289)" d="M 179.644758 151.094118 
L 179.644758 146.977647 
" style="fill:none;stroke:#000000;stroke-width:1.5;"/>
    <path clip-path="url(#pc17eeb4289)" d="M 185.47616 151.094118 
L 185.47616 146.977647 
" style="fill:none;stroke:#000000;stroke-width:1.5;"/>
    <path clip-path="url(#pc17eeb4289)" d="M 187.196047 151.094118 
L 187.196047 146.977647 
" style="fill:none;stroke:#000000;stroke-width:1.5;"/>
    <path clip-path="url(#pc17eeb4289)" d="M 192.604715 151.094118 
L 192.604715 146.977647 
" style="fill:none;stroke:#000000;stroke-width:1.5;"/>
    <path clip-path="url(#pc17eeb4289)" d="M 194.631518 151.094118 
L 194.631518 146.977647 
" style="fill:none;stroke:#000000;stroke-width:1.5;"/>
    <path clip-path="url(#pc17eeb4289)" d="M 199.136812 151.094118 
L 199.136812 146.977647 
" style="fill:none;stroke:#000000;stroke-width:1.5;"/>
    <path clip-path="url(#pc17eeb4289)" d="M 206.578074 151.094118 
L 206.578074 146.977647 
" style="fill:none;stroke:#000000;stroke-width:1.5;"/>
    <path clip-path="url(#pc17eeb4289)" d="M 210.156829 151.094118 
L 210.156829 146.977647 
" style="fill:none;stroke:#000000;stroke-width:1.5;"/>
    <path clip-path="url(#pc17eeb4289)" d="M 213.428668 151.094118 
L 213.428668 146.977647 
" style="fill:none;stroke:#000000;stroke-width:1.5;"/>
    <path clip-path="url(#pc17eeb4289)" d="M 218.275623 151.094118 
L 218.275623 146.977647 
" style="fill:none;stroke:#000000;stroke-width:1.5;"/>
    <path clip-path="url(#pc17eeb4289)" d="M 219.254279 151.094118 
L 219.254279 146.977647 
" style="fill:none;stroke:#000000;stroke-width:1.5;"/>
    <path clip-path="url(#pc17eeb4289)" d="M 223.053087 151.094118 
L 223.053087 146.977647 
" style="fill:none;stroke:#000000;stroke-width:1.5;"/>
    <path clip-path="url(#pc17eeb4289)" d="M 223.991208 151.094118 
L 223.991208 146.977647 
" style="fill:none;stroke:#000000;stroke-width:1.5;"/>
    <path clip-path="url(#pc17eeb4289)" d="M 225.352061 151.094118 
L 225.352061 146.977647 
" style="fill:none;stroke:#000000;stroke-width:1.5;"/>
    <path clip-path="url(#pc17eeb4289)" d="M 226.759241 151.094118 
L 226.759241 146.977647 
" style="fill:none;stroke:#000000;stroke-width:1.5;"/>
    <path clip-path="url(#pc17eeb4289)" d="M 230.743357 151.094118 
L 230.743357 146.977647 
" style="fill:none;stroke:#000000;stroke-width:1.5;"/>
    <path clip-path="url(#pc17eeb4289)" d="M 233.355037 151.094118 
L 233.355037 146.977647 
" style="fill:none;stroke:#000000;stroke-width:1.5;"/>
    <path clip-path="url(#pc17eeb4289)" d="M 234.408975 151.094118 
L 234.408975 146.977647 
" style="fill:none;stroke:#000000;stroke-width:1.5;"/>
    <path clip-path="url(#pc17eeb4289)" d="M 235.38184 151.094118 
L 235.38184 146.977647 
" style="fill:none;stroke:#000000;stroke-width:1.5;"/>
    <path clip-path="url(#pc17eeb4289)" d="M 236.308379 151.094118 
L 236.308379 146.977647 
" style="fill:none;stroke:#000000;stroke-width:1.5;"/>
    <path clip-path="url(#pc17eeb4289)" d="M 239.32542 151.094118 
L 239.32542 146.977647 
" style="fill:none;stroke:#000000;stroke-width:1.5;"/>
    <path clip-path="url(#pc17eeb4289)" d="M 240.26354 151.094118 
L 240.26354 146.977647 
" style="fill:none;stroke:#000000;stroke-width:1.5;"/>
    <path clip-path="url(#pc17eeb4289)" d="M 248.903512 151.094118 
L 248.903512 146.977647 
" style="fill:none;stroke:#000000;stroke-width:1.5;"/>
    <path clip-path="url(#pc17eeb4289)" d="M 249.841632 151.094118 
L 249.841632 146.977647 
" style="fill:none;stroke:#000000;stroke-width:1.5;"/>
    <path clip-path="url(#pc17eeb4289)" d="M 250.866615 151.094118 
L 250.866615 146.977647 
" style="fill:none;stroke:#000000;stroke-width:1.5;"/>
    <path clip-path="url(#pc17eeb4289)" d="M 253.426178 151.094118 
L 253.426178 146.977647 
" style="fill:none;stroke:#000000;stroke-width:1.5;"/>
    <path clip-path="url(#pc17eeb4289)" d="M 260.965885 151.094118 
L 260.965885 146.977647 
" style="fill:none;stroke:#000000;stroke-width:1.5;"/>
    <path clip-path="url(#pc17eeb4289)" d="M 264.156652 151.094118 
L 264.156652 146.977647 
" style="fill:none;stroke:#000000;stroke-width:1.5;"/>
    <path clip-path="url(#pc17eeb4289)" d="M 266.42088 151.094118 
L 266.42088 146.977647 
" style="fill:none;stroke:#000000;stroke-width:1.5;"/>
    <path clip-path="url(#pc17eeb4289)" d="M 269.217869 151.094118 
L 269.217869 146.977647 
" style="fill:none;stroke:#000000;stroke-width:1.5;"/>
    <path clip-path="url(#pc17eeb4289)" d="M 273.520482 151.094118 
L 273.520482 146.977647 
" style="fill:none;stroke:#000000;stroke-width:1.5;"/>
    <path clip-path="url(#pc17eeb4289)" d="M 280.347912 151.094118 
L 280.347912 146.977647 
" style="fill:none;stroke:#000000;stroke-width:1.5;"/>
    <path clip-path="url(#pc17eeb4289)" d="M 284.366773 151.094118 
L 284.366773 146.977647 
" style="fill:none;stroke:#000000;stroke-width:1.5;"/>
    <path clip-path="url(#pc17eeb4289)" d="M 291.77329 151.094118 
L 291.77329 146.977647 
" style="fill:none;stroke:#000000;stroke-width:1.5;"/>
    <path clip-path="url(#pc17eeb4289)" d="M 295.282555 151.094118 
L 295.282555 146.977647 
" style="fill:none;stroke:#000000;stroke-width:1.5;"/>
    <path clip-path="url(#pc17eeb4289)" d="M 300.998139 151.094118 
L 300.998139 146.977647 
" style="fill:none;stroke:#000000;stroke-width:1.5;"/>
    <path clip-path="url(#pc17eeb4289)" d="M 308.213558 151.094118 
L 308.213558 146.977647 
" style="fill:none;stroke:#000000;stroke-width:1.5;"/>
    <path clip-path="url(#pc17eeb4289)" d="M 311.774941 151.094118 
L 311.774941 146.977647 
" style="fill:none;stroke:#000000;stroke-width:1.5;"/>
    <path clip-path="url(#pc17eeb4289)" d="M 313.008395 151.094118 
L 313.008395 146.977647 
" style="fill:none;stroke:#000000;stroke-width:1.5;"/>
    <path clip-path="url(#pc17eeb4289)" d="M 314.537183 151.094118 
L 314.537183 146.977647 
" style="fill:none;stroke:#000000;stroke-width:1.5;"/>
    <path clip-path="url(#pc17eeb4289)" d="M 321.364614 151.094118 
L 321.364614 146.977647 
" style="fill:none;stroke:#000000;stroke-width:1.5;"/>
    <path clip-path="url(#pc17eeb4289)" d="M 324.68278 151.094118 
L 324.68278 146.977647 
" style="fill:none;stroke:#000000;stroke-width:1.5;"/>
    <path clip-path="url(#pc17eeb4289)" d="M 330.977451 151.094118 
L 330.977451 146.977647 
" style="fill:none;stroke:#000000;stroke-width:1.5;"/>
    <path clip-path="url(#pc17eeb4289)" d="M 331.961898 151.094118 
L 331.961898 146.977647 
" style="fill:none;stroke:#000000;stroke-width:1.5;"/>
    <path clip-path="url(#pc17eeb4289)" d="M 340.109646 151.094118 
L 340.109646 146.977647 
" style="fill:none;stroke:#000000;stroke-width:1.5;"/>
    <path clip-path="url(#pc17eeb4289)" d="M 341.812161 151.094118 
L 341.812161 146.977647 
" style="fill:none;stroke:#000000;stroke-width:1.5;"/>
    <path clip-path="url(#pc17eeb4289)" d="M 351.453952 151.094118 
L 351.453952 146.977647 
" style="fill:none;stroke:#000000;stroke-width:1.5;"/>
    <path clip-path="url(#pc17eeb4289)" d="M 353.469174 151.094118 
L 353.469174 146.977647 
" style="fill:none;stroke:#000000;stroke-width:1.5;"/>
    <path clip-path="url(#pc17eeb4289)" d="M 356.677313 151.094118 
L 356.677313 146.977647 
" style="fill:none;stroke:#000000;stroke-width:1.5;"/>
    <path clip-path="url(#pc17eeb4289)" d="M 370.048422 151.094118 
L 370.048422 146.977647 
" style="fill:none;stroke:#000000;stroke-width:1.5;"/>
    <path clip-path="url(#pc17eeb4289)" d="M 372.295278 151.094118 
L 372.295278 146.977647 
" style="fill:none;stroke:#000000;stroke-width:1.5;"/>
    <path clip-path="url(#pc17eeb4289)" d="M 378.769466 151.094118 
L 378.769466 146.977647 
" style="fill:none;stroke:#000000;stroke-width:1.5;"/>
    <path clip-path="url(#pc17eeb4289)" d="M 381.774925 151.094118 
L 381.774925 146.977647 
" style="fill:none;stroke:#000000;stroke-width:1.5;"/>
   </g>
   <g id="LineCollection_3">
    <path clip-path="url(#pc17eeb4289)" d="M 135.77895 142.861176 
L 135.77895 138.744706 
" style="fill:none;stroke:#000000;stroke-width:1.5;"/>
    <path clip-path="url(#pc17eeb4289)" d="M 398.058839 142.861176 
L 398.058839 138.744706 
" style="fill:none;stroke:#000000;stroke-width:1.5;"/>
    <path clip-path="url(#pc17eeb4289)" d="M 474.289795 142.861176 
L 474.289795 138.744706 
" style="fill:none;stroke:#000000;stroke-width:1.5;"/>
   </g>
   <g id="LineCollection_4">
    <path clip-path="url(#pc17eeb4289)" d="M 126.559892 138.744706 
L 126.559892 134.628235 
" style="fill:none;stroke:#000000;stroke-width:1.5;"/>
    <path clip-path="url(#pc17eeb4289)" d="M 131.343147 138.744706 
L 131.343147 134.628235 
" style="fill:none;stroke:#000000;stroke-width:1.5;"/>
    <path clip-path="url(#pc17eeb4289)" d="M 135.327263 138.744706 
L 135.327263 134.628235 
" style="fill:none;stroke:#000000;stroke-width:1.5;"/>
    <path clip-path="url(#pc17eeb4289)" d="M 137.481465 138.744706 
L 137.481465 134.628235 
" style="fill:none;stroke:#000000;stroke-width:1.5;"/>
    <path clip-path="url(#pc17eeb4289)" d="M 138.906018 138.744706 
L 138.906018 134.628235 
" style="fill:none;stroke:#000000;stroke-width:1.5;"/>
    <path clip-path="url(#pc17eeb4289)" d="M 145.223852 138.744706 
L 145.223852 134.628235 
" style="fill:none;stroke:#000000;stroke-width:1.5;"/>
    <path clip-path="url(#pc17eeb4289)" d="M 146.046155 138.744706 
L 146.046155 134.628235 
" style="fill:none;stroke:#000000;stroke-width:1.5;"/>
    <path clip-path="url(#pc17eeb4289)" d="M 147.986095 138.744706 
L 147.986095 134.628235 
" style="fill:none;stroke:#000000;stroke-width:1.5;"/>
    <path clip-path="url(#pc17eeb4289)" d="M 148.88947 138.744706 
L 148.88947 134.628235 
" style="fill:none;stroke:#000000;stroke-width:1.5;"/>
    <path clip-path="url(#pc17eeb4289)" d="M 153.458463 138.744706 
L 153.458463 134.628235 
" style="fill:none;stroke:#000000;stroke-width:1.5;"/>
    <path clip-path="url(#pc17eeb4289)" d="M 157.083545 138.744706 
L 157.083545 134.628235 
" style="fill:none;stroke:#000000;stroke-width:1.5;"/>
    <path clip-path="url(#pc17eeb4289)" d="M 160.320639 138.744706 
L 160.320639 134.628235 
" style="fill:none;stroke:#000000;stroke-width:1.5;"/>
    <path clip-path="url(#pc17eeb4289)" d="M 163.158163 138.744706 
L 163.158163 134.628235 
" style="fill:none;stroke:#000000;stroke-width:1.5;"/>
    <path clip-path="url(#pc17eeb4289)" d="M 167.408659 138.744706 
L 167.408659 134.628235 
" style="fill:none;stroke:#000000;stroke-width:1.5;"/>
    <path clip-path="url(#pc17eeb4289)" d="M 170.448863 138.744706 
L 170.448863 134.628235 
" style="fill:none;stroke:#000000;stroke-width:1.5;"/>
    <path clip-path="url(#pc17eeb4289)" d="M 173.216897 138.744706 
L 173.216897 134.628235 
" style="fill:none;stroke:#000000;stroke-width:1.5;"/>
    <path clip-path="url(#pc17eeb4289)" d="M 196.258752 138.744706 
L 196.258752 134.628235 
" style="fill:none;stroke:#000000;stroke-width:1.5;"/>
    <path clip-path="url(#pc17eeb4289)" d="M 200.19654 138.744706 
L 200.19654 134.628235 
" style="fill:none;stroke:#000000;stroke-width:1.5;"/>
    <path clip-path="url(#pc17eeb4289)" d="M 204.904514 138.744706 
L 204.904514 134.628235 
" style="fill:none;stroke:#000000;stroke-width:1.5;"/>
    <path clip-path="url(#pc17eeb4289)" d="M 210.197365 138.744706 
L 210.197365 134.628235 
" style="fill:none;stroke:#000000;stroke-width:1.5;"/>
    <path clip-path="url(#pc17eeb4289)" d="M 218.061361 138.744706 
L 218.061361 134.628235 
" style="fill:none;stroke:#000000;stroke-width:1.5;"/>
    <path clip-path="url(#pc17eeb4289)" d="M 233.488227 138.744706 
L 233.488227 134.628235 
" style="fill:none;stroke:#000000;stroke-width:1.5;"/>
    <path clip-path="url(#pc17eeb4289)" d="M 234.901198 138.744706 
L 234.901198 134.628235 
" style="fill:none;stroke:#000000;stroke-width:1.5;"/>
    <path clip-path="url(#pc17eeb4289)" d="M 239.105367 138.744706 
L 239.105367 134.628235 
" style="fill:none;stroke:#000000;stroke-width:1.5;"/>
    <path clip-path="url(#pc17eeb4289)" d="M 247.206788 138.744706 
L 247.206788 134.628235 
" style="fill:none;stroke:#000000;stroke-width:1.5;"/>
    <path clip-path="url(#pc17eeb4289)" d="M 248.515524 138.744706 
L 248.515524 134.628235 
" style="fill:none;stroke:#000000;stroke-width:1.5;"/>
    <path clip-path="url(#pc17eeb4289)" d="M 255.754106 138.744706 
L 255.754106 134.628235 
" style="fill:none;stroke:#000000;stroke-width:1.5;"/>
    <path clip-path="url(#pc17eeb4289)" d="M 261.232265 138.744706 
L 261.232265 134.628235 
" style="fill:none;stroke:#000000;stroke-width:1.5;"/>
    <path clip-path="url(#pc17eeb4289)" d="M 263.612311 138.744706 
L 263.612311 134.628235 
" style="fill:none;stroke:#000000;stroke-width:1.5;"/>
    <path clip-path="url(#pc17eeb4289)" d="M 269.8954 138.744706 
L 269.8954 134.628235 
" style="fill:none;stroke:#000000;stroke-width:1.5;"/>
    <path clip-path="url(#pc17eeb4289)" d="M 275.51254 138.744706 
L 275.51254 134.628235 
" style="fill:none;stroke:#000000;stroke-width:1.5;"/>
    <path clip-path="url(#pc17eeb4289)" d="M 294.425507 138.744706 
L 294.425507 134.628235 
" style="fill:none;stroke:#000000;stroke-width:1.5;"/>
    <path clip-path="url(#pc17eeb4289)" d="M 300.581197 138.744706 
L 300.581197 134.628235 
" style="fill:none;stroke:#000000;stroke-width:1.5;"/>
    <path clip-path="url(#pc17eeb4289)" d="M 314.149195 138.744706 
L 314.149195 134.628235 
" style="fill:none;stroke:#000000;stroke-width:1.5;"/>
    <path clip-path="url(#pc17eeb4289)" d="M 316.847739 138.744706 
L 316.847739 134.628235 
" style="fill:none;stroke:#000000;stroke-width:1.5;"/>
    <path clip-path="url(#pc17eeb4289)" d="M 324.648035 138.744706 
L 324.648035 134.628235 
" style="fill:none;stroke:#000000;stroke-width:1.5;"/>
    <path clip-path="url(#pc17eeb4289)" d="M 332.558358 138.744706 
L 332.558358 134.628235 
" style="fill:none;stroke:#000000;stroke-width:1.5;"/>
    <path clip-path="url(#pc17eeb4289)" d="M 355.606003 138.744706 
L 355.606003 134.628235 
" style="fill:none;stroke:#000000;stroke-width:1.5;"/>
    <path clip-path="url(#pc17eeb4289)" d="M 363.892732 138.744706 
L 363.892732 134.628235 
" style="fill:none;stroke:#000000;stroke-width:1.5;"/>
    <path clip-path="url(#pc17eeb4289)" d="M 368.953948 138.744706 
L 368.953948 134.628235 
" style="fill:none;stroke:#000000;stroke-width:1.5;"/>
    <path clip-path="url(#pc17eeb4289)" d="M 438.994469 138.744706 
L 438.994469 134.628235 
" style="fill:none;stroke:#000000;stroke-width:1.5;"/>
    <path clip-path="url(#pc17eeb4289)" d="M 459.725768 138.744706 
L 459.725768 134.628235 
" style="fill:none;stroke:#000000;stroke-width:1.5;"/>
    <path clip-path="url(#pc17eeb4289)" d="M 462.389566 138.744706 
L 462.389566 134.628235 
" style="fill:none;stroke:#000000;stroke-width:1.5;"/>
    <path clip-path="url(#pc17eeb4289)" d="M 473.670173 138.744706 
L 473.670173 134.628235 
" style="fill:none;stroke:#000000;stroke-width:1.5;"/>
    <path clip-path="url(#pc17eeb4289)" d="M 492.78582 138.744706 
L 492.78582 134.628235 
" style="fill:none;stroke:#000000;stroke-width:1.5;"/>
    <path clip-path="url(#pc17eeb4289)" d="M 551.458872 138.744706 
L 551.458872 134.628235 
" style="fill:none;stroke:#000000;stroke-width:1.5;"/>
   </g>
   <g id="LineCollection_5">
    <path clip-path="url(#pc17eeb4289)" d="M 39.083075 130.511765 
L 39.083075 126.395294 
" style="fill:none;stroke:#000000;stroke-width:1.5;"/>
   </g>
   <g id="LineCollection_6">
    <path clip-path="url(#pc17eeb4289)" d="M 138.280604 126.395294 
L 138.280604 122.278824 
" style="fill:none;stroke:#000000;stroke-width:1.5;"/>
    <path clip-path="url(#pc17eeb4289)" d="M 139.212934 126.395294 
L 139.212934 122.278824 
" style="fill:none;stroke:#000000;stroke-width:1.5;"/>
    <path clip-path="url(#pc17eeb4289)" d="M 141.853569 126.395294 
L 141.853569 122.278824 
" style="fill:none;stroke:#000000;stroke-width:1.5;"/>
    <path clip-path="url(#pc17eeb4289)" d="M 144.007771 126.395294 
L 144.007771 122.278824 
" style="fill:none;stroke:#000000;stroke-width:1.5;"/>
    <path clip-path="url(#pc17eeb4289)" d="M 144.859028 126.395294 
L 144.859028 122.278824 
" style="fill:none;stroke:#000000;stroke-width:1.5;"/>
    <path clip-path="url(#pc17eeb4289)" d="M 150.435631 126.395294 
L 150.435631 122.278824 
" style="fill:none;stroke:#000000;stroke-width:1.5;"/>
    <path clip-path="url(#pc17eeb4289)" d="M 174.543005 126.395294 
L 174.543005 122.278824 
" style="fill:none;stroke:#000000;stroke-width:1.5;"/>
    <path clip-path="url(#pc17eeb4289)" d="M 266.513534 126.395294 
L 266.513534 122.278824 
" style="fill:none;stroke:#000000;stroke-width:1.5;"/>
   </g>
   <g id="LineCollection_7">
    <path clip-path="url(#pc17eeb4289)" d="M 38.24919 122.278824 
L 38.24919 118.162353 
" style="fill:none;stroke:#000000;stroke-width:1.5;"/>
   </g>
   <g id="LineCollection_8">
    <path clip-path="url(#pc17eeb4289)" d="M 397.473962 118.162353 
L 397.473962 114.045882 
" style="fill:none;stroke:#000000;stroke-width:1.5;"/>
    <path clip-path="url(#pc17eeb4289)" d="M 482.640224 118.162353 
L 482.640224 114.045882 
" style="fill:none;stroke:#000000;stroke-width:1.5;"/>
    <path clip-path="url(#pc17eeb4289)" d="M 484.360111 118.162353 
L 484.360111 114.045882 
" style="fill:none;stroke:#000000;stroke-width:1.5;"/>
    <path clip-path="url(#pc17eeb4289)" d="M 516.117218 118.162353 
L 516.117218 114.045882 
" style="fill:none;stroke:#000000;stroke-width:1.5;"/>
    <path clip-path="url(#pc17eeb4289)" d="M 557.330809 118.162353 
L 557.330809 114.045882 
" style="fill:none;stroke:#000000;stroke-width:1.5;"/>
   </g>
   <g id="LineCollection_9">
    <path clip-path="url(#pc17eeb4289)" d="M 555.558804 114.045882 
L 555.558804 109.929412 
" style="fill:none;stroke:#000000;stroke-width:1.5;"/>
   </g>
   <g id="LineCollection_10">
    <path clip-path="url(#pc17eeb4289)" d="M 172.429339 109.929412 
L 172.429339 105.812941 
" style="fill:none;stroke:#000000;stroke-width:1.5;"/>
    <path clip-path="url(#pc17eeb4289)" d="M 196.258752 109.929412 
L 196.258752 105.812941 
" style="fill:none;stroke:#000000;stroke-width:1.5;"/>
    <path clip-path="url(#pc17eeb4289)" d="M 240.952653 109.929412 
L 240.952653 105.812941 
" style="fill:none;stroke:#000000;stroke-width:1.5;"/>
    <path clip-path="url(#pc17eeb4289)" d="M 294.477625 109.929412 
L 294.477625 105.812941 
" style="fill:none;stroke:#000000;stroke-width:1.5;"/>
    <path clip-path="url(#pc17eeb4289)" d="M 364.923506 109.929412 
L 364.923506 105.812941 
" style="fill:none;stroke:#000000;stroke-width:1.5;"/>
   </g>
   <g id="LineCollection_11">
    <path clip-path="url(#pc17eeb4289)" d="M 194.417256 105.812941 
L 194.417256 101.696471 
" style="fill:none;stroke:#000000;stroke-width:1.5;"/>
   </g>
   <g id="LineCollection_12">
    <path clip-path="url(#pc17eeb4289)" d="M 128.731467 89.347059 
L 128.731467 85.230588 
" style="fill:none;stroke:#000000;stroke-width:1.5;"/>
    <path clip-path="url(#pc17eeb4289)" d="M 365.936907 89.347059 
L 365.936907 85.230588 
" style="fill:none;stroke:#000000;stroke-width:1.5;"/>
    <path clip-path="url(#pc17eeb4289)" d="M 432.346555 89.347059 
L 432.346555 85.230588 
" style="fill:none;stroke:#000000;stroke-width:1.5;"/>
   </g>
   <g id="LineCollection_13">
    <path clip-path="url(#pc17eeb4289)" d="M 68.274829 85.230588 
L 68.274829 81.114118 
" style="fill:none;stroke:#000000;stroke-width:1.5;"/>
    <path clip-path="url(#pc17eeb4289)" d="M 72.287899 85.230588 
L 72.287899 81.114118 
" style="fill:none;stroke:#000000;stroke-width:1.5;"/>
    <path clip-path="url(#pc17eeb4289)" d="M 470.994793 85.230588 
L 470.994793 81.114118 
" style="fill:none;stroke:#000000;stroke-width:1.5;"/>
    <path clip-path="url(#pc17eeb4289)" d="M 489.23602 85.230588 
L 489.23602 81.114118 
" style="fill:none;stroke:#000000;stroke-width:1.5;"/>
   </g>
   <g id="LineCollection_14">
    <path clip-path="url(#pc17eeb4289)" d="M 490.544755 81.114118 
L 490.544755 76.997647 
" style="fill:none;stroke:#000000;stroke-width:1.5;"/>
   </g>
   <g id="LineCollection_15">
    <path clip-path="url(#pc17eeb4289)" d="M 460.165874 68.764706 
L 460.165874 64.648235 
" style="fill:none;stroke:#000000;stroke-width:1.5;"/>
    <path clip-path="url(#pc17eeb4289)" d="M 489.988832 68.764706 
L 489.988832 64.648235 
" style="fill:none;stroke:#000000;stroke-width:1.5;"/>
    <path clip-path="url(#pc17eeb4289)" d="M 531.352986 68.764706 
L 531.352986 64.648235 
" style="fill:none;stroke:#000000;stroke-width:1.5;"/>
    <path clip-path="url(#pc17eeb4289)" d="M 547.219958 68.764706 
L 547.219958 64.648235 
" style="fill:none;stroke:#000000;stroke-width:1.5;"/>
   </g>
   <g id="LineCollection_16">
    <path clip-path="url(#pc17eeb4289)" d="M 43.547833 64.648235 
L 43.547833 60.531765 
" style="fill:none;stroke:#000000;stroke-width:1.5;"/>
    <path clip-path="url(#pc17eeb4289)" d="M 46.049487 64.648235 
L 46.049487 60.531765 
" style="fill:none;stroke:#000000;stroke-width:1.5;"/>
    <path clip-path="url(#pc17eeb4289)" d="M 61.314208 64.648235 
L 61.314208 60.531765 
" style="fill:none;stroke:#000000;stroke-width:1.5;"/>
    <path clip-path="url(#pc17eeb4289)" d="M 64.551302 64.648235 
L 64.551302 60.531765 
" style="fill:none;stroke:#000000;stroke-width:1.5;"/>
    <path clip-path="url(#pc17eeb4289)" d="M 105.880711 64.648235 
L 105.880711 60.531765 
" style="fill:none;stroke:#000000;stroke-width:1.5;"/>
    <path clip-path="url(#pc17eeb4289)" d="M 182.794989 64.648235 
L 182.794989 60.531765 
" style="fill:none;stroke:#000000;stroke-width:1.5;"/>
    <path clip-path="url(#pc17eeb4289)" d="M 236.499477 64.648235 
L 236.499477 60.531765 
" style="fill:none;stroke:#000000;stroke-width:1.5;"/>
    <path clip-path="url(#pc17eeb4289)" d="M 293.753767 64.648235 
L 293.753767 60.531765 
" style="fill:none;stroke:#000000;stroke-width:1.5;"/>
    <path clip-path="url(#pc17eeb4289)" d="M 307.900851 64.648235 
L 307.900851 60.531765 
" style="fill:none;stroke:#000000;stroke-width:1.5;"/>
    <path clip-path="url(#pc17eeb4289)" d="M 318.202801 64.648235 
L 318.202801 60.531765 
" style="fill:none;stroke:#000000;stroke-width:1.5;"/>
    <path clip-path="url(#pc17eeb4289)" d="M 385.869067 64.648235 
L 385.869067 60.531765 
" style="fill:none;stroke:#000000;stroke-width:1.5;"/>
    <path clip-path="url(#pc17eeb4289)" d="M 394.966517 64.648235 
L 394.966517 60.531765 
" style="fill:none;stroke:#000000;stroke-width:1.5;"/>
    <path clip-path="url(#pc17eeb4289)" d="M 398.742162 64.648235 
L 398.742162 60.531765 
" style="fill:none;stroke:#000000;stroke-width:1.5;"/>
    <path clip-path="url(#pc17eeb4289)" d="M 403.565953 64.648235 
L 403.565953 60.531765 
" style="fill:none;stroke:#000000;stroke-width:1.5;"/>
    <path clip-path="url(#pc17eeb4289)" d="M 465.620869 64.648235 
L 465.620869 60.531765 
" style="fill:none;stroke:#000000;stroke-width:1.5;"/>
    <path clip-path="url(#pc17eeb4289)" d="M 505.983203 64.648235 
L 505.983203 60.531765 
" style="fill:none;stroke:#000000;stroke-width:1.5;"/>
   </g>
   <g id="LineCollection_17">
    <path clip-path="url(#pc17eeb4289)" d="M 40.646609 60.531765 
L 40.646609 56.415294 
" style="fill:none;stroke:#000000;stroke-width:1.5;"/>
    <path clip-path="url(#pc17eeb4289)" d="M 70.539058 60.531765 
L 70.539058 56.415294 
" style="fill:none;stroke:#000000;stroke-width:1.5;"/>
    <path clip-path="url(#pc17eeb4289)" d="M 84.952522 60.531765 
L 84.952522 56.415294 
" style="fill:none;stroke:#000000;stroke-width:1.5;"/>
    <path clip-path="url(#pc17eeb4289)" d="M 94.252653 60.531765 
L 94.252653 56.415294 
" style="fill:none;stroke:#000000;stroke-width:1.5;"/>
    <path clip-path="url(#pc17eeb4289)" d="M 113.808406 60.531765 
L 113.808406 56.415294 
" style="fill:none;stroke:#000000;stroke-width:1.5;"/>
    <path clip-path="url(#pc17eeb4289)" d="M 148.565182 60.531765 
L 148.565182 56.415294 
" style="fill:none;stroke:#000000;stroke-width:1.5;"/>
    <path clip-path="url(#pc17eeb4289)" d="M 233.163939 60.531765 
L 233.163939 56.415294 
" style="fill:none;stroke:#000000;stroke-width:1.5;"/>
    <path clip-path="url(#pc17eeb4289)" d="M 261.498645 60.531765 
L 261.498645 56.415294 
" style="fill:none;stroke:#000000;stroke-width:1.5;"/>
    <path clip-path="url(#pc17eeb4289)" d="M 292.757738 60.531765 
L 292.757738 56.415294 
" style="fill:none;stroke:#000000;stroke-width:1.5;"/>
    <path clip-path="url(#pc17eeb4289)" d="M 303.216041 60.531765 
L 303.216041 56.415294 
" style="fill:none;stroke:#000000;stroke-width:1.5;"/>
    <path clip-path="url(#pc17eeb4289)" d="M 346.925495 60.531765 
L 346.925495 56.415294 
" style="fill:none;stroke:#000000;stroke-width:1.5;"/>
    <path clip-path="url(#pc17eeb4289)" d="M 356.231416 60.531765 
L 356.231416 56.415294 
" style="fill:none;stroke:#000000;stroke-width:1.5;"/>
    <path clip-path="url(#pc17eeb4289)" d="M 399.46602 60.531765 
L 399.46602 56.415294 
" style="fill:none;stroke:#000000;stroke-width:1.5;"/>
    <path clip-path="url(#pc17eeb4289)" d="M 410.155958 60.531765 
L 410.155958 56.415294 
" style="fill:none;stroke:#000000;stroke-width:1.5;"/>
    <path clip-path="url(#pc17eeb4289)" d="M 427.464855 60.531765 
L 427.464855 56.415294 
" style="fill:none;stroke:#000000;stroke-width:1.5;"/>
    <path clip-path="url(#pc17eeb4289)" d="M 449.406445 60.531765 
L 449.406445 56.415294 
" style="fill:none;stroke:#000000;stroke-width:1.5;"/>
    <path clip-path="url(#pc17eeb4289)" d="M 478.690853 60.531765 
L 478.690853 56.415294 
" style="fill:none;stroke:#000000;stroke-width:1.5;"/>
    <path clip-path="url(#pc17eeb4289)" d="M 535.481873 60.531765 
L 535.481873 56.415294 
" style="fill:none;stroke:#000000;stroke-width:1.5;"/>
    <path clip-path="url(#pc17eeb4289)" d="M 539.309635 60.531765 
L 539.309635 56.415294 
" style="fill:none;stroke:#000000;stroke-width:1.5;"/>
    <path clip-path="url(#pc17eeb4289)" d="M 553.236667 60.531765 
L 553.236667 56.415294 
" style="fill:none;stroke:#000000;stroke-width:1.5;"/>
   </g>
   <g id="LineCollection_18">
    <path clip-path="url(#pc17eeb4289)" d="M 50.172583 35.832941 
L 50.172583 31.716471 
" style="fill:none;stroke:#000000;stroke-width:1.5;"/>
    <path clip-path="url(#pc17eeb4289)" d="M 104.838355 35.832941 
L 104.838355 31.716471 
" style="fill:none;stroke:#000000;stroke-width:1.5;"/>
    <path clip-path="url(#pc17eeb4289)" d="M 483.653625 35.832941 
L 483.653625 31.716471 
" style="fill:none;stroke:#000000;stroke-width:1.5;"/>
   </g>
   <g id="patch_3">
    <path d="M 28.48 167.56 
L 28.48 27.6 
" style="fill:none;stroke:#000000;stroke-linecap:square;stroke-linejoin:miter;stroke-width:0.8;"/>
   </g>
   <g id="patch_4">
    <path d="M 560.081471 167.56 
L 560.081471 27.6 
" style="fill:none;stroke:#000000;stroke-linecap:square;stroke-linejoin:miter;stroke-width:0.8;"/>
   </g>
   <g id="patch_5">
    <path d="M 28.48 167.56 
L 560.081471 167.56 
" style="fill:none;stroke:#000000;stroke-linecap:square;stroke-linejoin:miter;stroke-width:0.8;"/>
   </g>
   <g id="patch_6">
    <path d="M 28.48 27.6 
L 560.081471 27.6 
" style="fill:none;stroke:#000000;stroke-linecap:square;stroke-linejoin:miter;stroke-width:0.8;"/>
   </g>
   <g id="text_10">
    <!-- V1 raster -->
    <defs>
     <path d="M 28.609375 0 
L 0.78125 72.90625 
L 11.078125 72.90625 
L 34.1875 11.53125 
L 57.328125 72.90625 
L 67.578125 72.90625 
L 39.796875 0 
z
" id="DejaVuSans-86"/>
     <path d="M 41.109375 46.296875 
Q 39.59375 47.171875 37.8125 47.578125 
Q 36.03125 48 33.890625 48 
Q 26.265625 48 22.1875 43.046875 
Q 18.109375 38.09375 18.109375 28.8125 
L 18.109375 0 
L 9.078125 0 
L 9.078125 54.6875 
L 18.109375 54.6875 
L 18.109375 46.1875 
Q 20.953125 51.171875 25.484375 53.578125 
Q 30.03125 56 36.53125 56 
Q 37.453125 56 38.578125 55.875 
Q 39.703125 55.765625 41.0625 55.515625 
z
" id="DejaVuSans-114"/>
     <path d="M 34.28125 27.484375 
Q 23.390625 27.484375 19.1875 25 
Q 14.984375 22.515625 14.984375 16.5 
Q 14.984375 11.71875 18.140625 8.90625 
Q 21.296875 6.109375 26.703125 6.109375 
Q 34.1875 6.109375 38.703125 11.40625 
Q 43.21875 16.703125 43.21875 25.484375 
L 43.21875 27.484375 
z
M 52.203125 31.203125 
L 52.203125 0 
L 43.21875 0 
L 43.21875 8.296875 
Q 40.140625 3.328125 35.546875 0.953125 
Q 30.953125 -1.421875 24.3125 -1.421875 
Q 15.921875 -1.421875 10.953125 3.296875 
Q 6 8.015625 6 15.921875 
Q 6 25.140625 12.171875 29.828125 
Q 18.359375 34.515625 30.609375 34.515625 
L 43.21875 34.515625 
L 43.21875 35.40625 
Q 43.21875 41.609375 39.140625 45 
Q 35.0625 48.390625 27.6875 48.390625 
Q 23 48.390625 18.546875 47.265625 
Q 14.109375 46.140625 10.015625 43.890625 
L 10.015625 52.203125 
Q 14.9375 54.109375 19.578125 55.046875 
Q 24.21875 56 28.609375 56 
Q 40.484375 56 46.34375 49.84375 
Q 52.203125 43.703125 52.203125 31.203125 
z
" id="DejaVuSans-97"/>
     <path d="M 18.3125 70.21875 
L 18.3125 54.6875 
L 36.8125 54.6875 
L 36.8125 47.703125 
L 18.3125 47.703125 
L 18.3125 18.015625 
Q 18.3125 11.328125 20.140625 9.421875 
Q 21.96875 7.515625 27.59375 7.515625 
L 36.8125 7.515625 
L 36.8125 0 
L 27.59375 0 
Q 17.1875 0 13.234375 3.875 
Q 9.28125 7.765625 9.28125 18.015625 
L 9.28125 47.703125 
L 2.6875 47.703125 
L 2.6875 54.6875 
L 9.28125 54.6875 
L 9.28125 70.21875 
z
" id="DejaVuSans-116"/>
    </defs>
    <g transform="translate(261.15061 21.6)scale(0.144 -0.144)">
     <use xlink:href="#DejaVuSans-86"/>
     <use x="68.408203" xlink:href="#DejaVuSans-49"/>
     <use x="132.03125" xlink:href="#DejaVuSans-32"/>
     <use x="163.818359" xlink:href="#DejaVuSans-114"/>
     <use x="204.931641" xlink:href="#DejaVuSans-97"/>
     <use x="266.210938" xlink:href="#DejaVuSans-115"/>
     <use x="318.310547" xlink:href="#DejaVuSans-116"/>
     <use x="357.519531" xlink:href="#DejaVuSans-101"/>
     <use x="419.042969" xlink:href="#DejaVuSans-114"/>
    </g>
   </g>
  </g>
 </g>
 <defs>
  <clipPath id="pc17eeb4289">
   <rect height="139.96" width="531.601471" x="28.48" y="27.6"/>
  </clipPath>
 </defs>
</svg>
