<?xml version="1.0" encoding="utf-8" standalone="no"?>
<!DOCTYPE svg PUBLIC "-//W3C//DTD SVG 1.1//EN"
  "http://www.w3.org/Graphics/SVG/1.1/DTD/svg11.dtd">
<!-- Created with matplotlib (https://matplotlib.org/) -->
<svg height="216pt" version="1.1" viewBox="0 0 576 216" width="576pt" xmlns="http://www.w3.org/2000/svg" xmlns:xlink="http://www.w3.org/1999/xlink">
 <defs>
  <style type="text/css">
*{stroke-linecap:butt;stroke-linejoin:round;}
  </style>
 </defs>
 <g id="figure_1">
  <g id="patch_1">
   <path d="M 0 216 
L 576 216 
L 576 0 
L 0 0 
z
" style="fill:#ffffff;"/>
  </g>
  <g id="axes_1">
   <g id="patch_2">
    <path d="M 28.48 167.56 
L 560.081471 167.56 
L 560.081471 27.6 
L 28.48 27.6 
z
" style="fill:#ffffff;"/>
   </g>
   <g id="PolyCollection_1">
    <defs>
     <path d="M 120.554765 -48.44 
L 120.554765 -188.4 
L 381.143721 -188.4 
L 381.143721 -48.44 
L 381.143721 -48.44 
L 120.554765 -48.44 
z
" id="m63a0424a45" style="stroke:#808080;stroke-opacity:0.3;"/>
    </defs>
    <g clip-path="url(#pca70f28d2b)">
     <use style="fill:#808080;fill-opacity:0.3;stroke:#808080;stroke-opacity:0.3;" x="0" xlink:href="#m63a0424a45" y="216"/>
    </g>
   </g>
   <g id="matplotlib.axis_1">
    <g id="xtick_1">
     <g id="line2d_1">
      <defs>
       <path d="M 0 0 
L 0 3.5 
" id="mcb7d2561bc" style="stroke:#000000;stroke-width:0.8;"/>
      </defs>
      <g>
       <use style="stroke:#000000;stroke-width:0.8;" x="33.691779" xlink:href="#mcb7d2561bc" y="167.56"/>
      </g>
     </g>
     <g id="text_1">
      <!-- −0.5 -->
      <defs>
       <path d="M 10.59375 35.5 
L 73.1875 35.5 
L 73.1875 27.203125 
L 10.59375 27.203125 
z
" id="DejaVuSans-8722"/>
       <path d="M 31.78125 66.40625 
Q 24.171875 66.40625 20.328125 58.90625 
Q 16.5 51.421875 16.5 36.375 
Q 16.5 21.390625 20.328125 13.890625 
Q 24.171875 6.390625 31.78125 6.390625 
Q 39.453125 6.390625 43.28125 13.890625 
Q 47.125 21.390625 47.125 36.375 
Q 47.125 51.421875 43.28125 58.90625 
Q 39.453125 66.40625 31.78125 66.40625 
z
M 31.78125 74.21875 
Q 44.046875 74.21875 50.515625 64.515625 
Q 56.984375 54.828125 56.984375 36.375 
Q 56.984375 17.96875 50.515625 8.265625 
Q 44.046875 -1.421875 31.78125 -1.421875 
Q 19.53125 -1.421875 13.0625 8.265625 
Q 6.59375 17.96875 6.59375 36.375 
Q 6.59375 54.828125 13.0625 64.515625 
Q 19.53125 74.21875 31.78125 74.21875 
z
" id="DejaVuSans-48"/>
       <path d="M 10.6875 12.40625 
L 21 12.40625 
L 21 0 
L 10.6875 0 
z
" id="DejaVuSans-46"/>
       <path d="M 10.796875 72.90625 
L 49.515625 72.90625 
L 49.515625 64.59375 
L 19.828125 64.59375 
L 19.828125 46.734375 
Q 21.96875 47.46875 24.109375 47.828125 
Q 26.265625 48.1875 28.421875 48.1875 
Q 40.625 48.1875 47.75 41.5 
Q 54.890625 34.8125 54.890625 23.390625 
Q 54.890625 11.625 47.5625 5.09375 
Q 40.234375 -1.421875 26.90625 -1.421875 
Q 22.3125 -1.421875 17.546875 -0.640625 
Q 12.796875 0.140625 7.71875 1.703125 
L 7.71875 11.625 
Q 12.109375 9.234375 16.796875 8.0625 
Q 21.484375 6.890625 26.703125 6.890625 
Q 35.15625 6.890625 40.078125 11.328125 
Q 45.015625 15.765625 45.015625 23.390625 
Q 45.015625 31 40.078125 35.4375 
Q 35.15625 39.890625 26.703125 39.890625 
Q 22.75 39.890625 18.8125 39.015625 
Q 14.890625 38.140625 10.796875 36.28125 
z
" id="DejaVuSans-53"/>
      </defs>
      <g transform="translate(19.122092 183.678125)scale(0.12 -0.12)">
       <use xlink:href="#DejaVuSans-8722"/>
       <use x="83.789062" xlink:href="#DejaVuSans-48"/>
       <use x="147.412109" xlink:href="#DejaVuSans-46"/>
       <use x="179.199219" xlink:href="#DejaVuSans-53"/>
      </g>
     </g>
    </g>
    <g id="xtick_2">
     <g id="line2d_2">
      <g>
       <use style="stroke:#000000;stroke-width:0.8;" x="120.554765" xlink:href="#mcb7d2561bc" y="167.56"/>
      </g>
     </g>
     <g id="text_2">
      <!-- 0.0 -->
      <g transform="translate(111.01289 183.678125)scale(0.12 -0.12)">
       <use xlink:href="#DejaVuSans-48"/>
       <use x="63.623047" xlink:href="#DejaVuSans-46"/>
       <use x="95.410156" xlink:href="#DejaVuSans-48"/>
      </g>
     </g>
    </g>
    <g id="xtick_3">
     <g id="line2d_3">
      <g>
       <use style="stroke:#000000;stroke-width:0.8;" x="207.41775" xlink:href="#mcb7d2561bc" y="167.56"/>
      </g>
     </g>
     <g id="text_3">
      <!-- 0.5 -->
      <g transform="translate(197.875875 183.678125)scale(0.12 -0.12)">
       <use xlink:href="#DejaVuSans-48"/>
       <use x="63.623047" xlink:href="#DejaVuSans-46"/>
       <use x="95.410156" xlink:href="#DejaVuSans-53"/>
      </g>
     </g>
    </g>
    <g id="xtick_4">
     <g id="line2d_4">
      <g>
       <use style="stroke:#000000;stroke-width:0.8;" x="294.280735" xlink:href="#mcb7d2561bc" y="167.56"/>
      </g>
     </g>
     <g id="text_4">
      <!-- 1.0 -->
      <defs>
       <path d="M 12.40625 8.296875 
L 28.515625 8.296875 
L 28.515625 63.921875 
L 10.984375 60.40625 
L 10.984375 69.390625 
L 28.421875 72.90625 
L 38.28125 72.90625 
L 38.28125 8.296875 
L 54.390625 8.296875 
L 54.390625 0 
L 12.40625 0 
z
" id="DejaVuSans-49"/>
      </defs>
      <g transform="translate(284.73886 183.678125)scale(0.12 -0.12)">
       <use xlink:href="#DejaVuSans-49"/>
       <use x="63.623047" xlink:href="#DejaVuSans-46"/>
       <use x="95.410156" xlink:href="#DejaVuSans-48"/>
      </g>
     </g>
    </g>
    <g id="xtick_5">
     <g id="line2d_5">
      <g>
       <use style="stroke:#000000;stroke-width:0.8;" x="381.143721" xlink:href="#mcb7d2561bc" y="167.56"/>
      </g>
     </g>
     <g id="text_5">
      <!-- 1.5 -->
      <g transform="translate(371.601846 183.678125)scale(0.12 -0.12)">
       <use xlink:href="#DejaVuSans-49"/>
       <use x="63.623047" xlink:href="#DejaVuSans-46"/>
       <use x="95.410156" xlink:href="#DejaVuSans-53"/>
      </g>
     </g>
    </g>
    <g id="xtick_6">
     <g id="line2d_6">
      <g>
       <use style="stroke:#000000;stroke-width:0.8;" x="468.006706" xlink:href="#mcb7d2561bc" y="167.56"/>
      </g>
     </g>
     <g id="text_6">
      <!-- 2.0 -->
      <defs>
       <path d="M 19.1875 8.296875 
L 53.609375 8.296875 
L 53.609375 0 
L 7.328125 0 
L 7.328125 8.296875 
Q 12.9375 14.109375 22.625 23.890625 
Q 32.328125 33.6875 34.8125 36.53125 
Q 39.546875 41.84375 41.421875 45.53125 
Q 43.3125 49.21875 43.3125 52.78125 
Q 43.3125 58.59375 39.234375 62.25 
Q 35.15625 65.921875 28.609375 65.921875 
Q 23.96875 65.921875 18.8125 64.3125 
Q 13.671875 62.703125 7.8125 59.421875 
L 7.8125 69.390625 
Q 13.765625 71.78125 18.9375 73 
Q 24.125 74.21875 28.421875 74.21875 
Q 39.75 74.21875 46.484375 68.546875 
Q 53.21875 62.890625 53.21875 53.421875 
Q 53.21875 48.921875 51.53125 44.890625 
Q 49.859375 40.875 45.40625 35.40625 
Q 44.1875 33.984375 37.640625 27.21875 
Q 31.109375 20.453125 19.1875 8.296875 
z
" id="DejaVuSans-50"/>
      </defs>
      <g transform="translate(458.464831 183.678125)scale(0.12 -0.12)">
       <use xlink:href="#DejaVuSans-50"/>
       <use x="63.623047" xlink:href="#DejaVuSans-46"/>
       <use x="95.410156" xlink:href="#DejaVuSans-48"/>
      </g>
     </g>
    </g>
    <g id="xtick_7">
     <g id="line2d_7">
      <g>
       <use style="stroke:#000000;stroke-width:0.8;" x="554.869691" xlink:href="#mcb7d2561bc" y="167.56"/>
      </g>
     </g>
     <g id="text_7">
      <!-- 2.5 -->
      <g transform="translate(545.327816 183.678125)scale(0.12 -0.12)">
       <use xlink:href="#DejaVuSans-50"/>
       <use x="63.623047" xlink:href="#DejaVuSans-46"/>
       <use x="95.410156" xlink:href="#DejaVuSans-53"/>
      </g>
     </g>
    </g>
    <g id="text_8">
     <!-- Time (s) -->
     <defs>
      <path d="M -0.296875 72.90625 
L 61.375 72.90625 
L 61.375 64.59375 
L 35.5 64.59375 
L 35.5 0 
L 25.59375 0 
L 25.59375 64.59375 
L -0.296875 64.59375 
z
" id="DejaVuSans-84"/>
      <path d="M 9.421875 54.6875 
L 18.40625 54.6875 
L 18.40625 0 
L 9.421875 0 
z
M 9.421875 75.984375 
L 18.40625 75.984375 
L 18.40625 64.59375 
L 9.421875 64.59375 
z
" id="DejaVuSans-105"/>
      <path d="M 52 44.1875 
Q 55.375 50.25 60.0625 53.125 
Q 64.75 56 71.09375 56 
Q 79.640625 56 84.28125 50.015625 
Q 88.921875 44.046875 88.921875 33.015625 
L 88.921875 0 
L 79.890625 0 
L 79.890625 32.71875 
Q 79.890625 40.578125 77.09375 44.375 
Q 74.3125 48.1875 68.609375 48.1875 
Q 61.625 48.1875 57.5625 43.546875 
Q 53.515625 38.921875 53.515625 30.90625 
L 53.515625 0 
L 44.484375 0 
L 44.484375 32.71875 
Q 44.484375 40.625 41.703125 44.40625 
Q 38.921875 48.1875 33.109375 48.1875 
Q 26.21875 48.1875 22.15625 43.53125 
Q 18.109375 38.875 18.109375 30.90625 
L 18.109375 0 
L 9.078125 0 
L 9.078125 54.6875 
L 18.109375 54.6875 
L 18.109375 46.1875 
Q 21.1875 51.21875 25.484375 53.609375 
Q 29.78125 56 35.6875 56 
Q 41.65625 56 45.828125 52.96875 
Q 50 49.953125 52 44.1875 
z
" id="DejaVuSans-109"/>
      <path d="M 56.203125 29.59375 
L 56.203125 25.203125 
L 14.890625 25.203125 
Q 15.484375 15.921875 20.484375 11.0625 
Q 25.484375 6.203125 34.421875 6.203125 
Q 39.59375 6.203125 44.453125 7.46875 
Q 49.3125 8.734375 54.109375 11.28125 
L 54.109375 2.78125 
Q 49.265625 0.734375 44.1875 -0.34375 
Q 39.109375 -1.421875 33.890625 -1.421875 
Q 20.796875 -1.421875 13.15625 6.1875 
Q 5.515625 13.8125 5.515625 26.8125 
Q 5.515625 40.234375 12.765625 48.109375 
Q 20.015625 56 32.328125 56 
Q 43.359375 56 49.78125 48.890625 
Q 56.203125 41.796875 56.203125 29.59375 
z
M 47.21875 32.234375 
Q 47.125 39.59375 43.09375 43.984375 
Q 39.0625 48.390625 32.421875 48.390625 
Q 24.90625 48.390625 20.390625 44.140625 
Q 15.875 39.890625 15.1875 32.171875 
z
" id="DejaVuSans-101"/>
      <path id="DejaVuSans-32"/>
      <path d="M 31 75.875 
Q 24.46875 64.65625 21.28125 53.65625 
Q 18.109375 42.671875 18.109375 31.390625 
Q 18.109375 20.125 21.3125 9.0625 
Q 24.515625 -2 31 -13.1875 
L 23.1875 -13.1875 
Q 15.875 -1.703125 12.234375 9.375 
Q 8.59375 20.453125 8.59375 31.390625 
Q 8.59375 42.28125 12.203125 53.3125 
Q 15.828125 64.359375 23.1875 75.875 
z
" id="DejaVuSans-40"/>
      <path d="M 44.28125 53.078125 
L 44.28125 44.578125 
Q 40.484375 46.53125 36.375 47.5 
Q 32.28125 48.484375 27.875 48.484375 
Q 21.1875 48.484375 17.84375 46.4375 
Q 14.5 44.390625 14.5 40.28125 
Q 14.5 37.15625 16.890625 35.375 
Q 19.28125 33.59375 26.515625 31.984375 
L 29.59375 31.296875 
Q 39.15625 29.25 43.1875 25.515625 
Q 47.21875 21.78125 47.21875 15.09375 
Q 47.21875 7.46875 41.1875 3.015625 
Q 35.15625 -1.421875 24.609375 -1.421875 
Q 20.21875 -1.421875 15.453125 -0.5625 
Q 10.6875 0.296875 5.421875 2 
L 5.421875 11.28125 
Q 10.40625 8.6875 15.234375 7.390625 
Q 20.0625 6.109375 24.8125 6.109375 
Q 31.15625 6.109375 34.5625 8.28125 
Q 37.984375 10.453125 37.984375 14.40625 
Q 37.984375 18.0625 35.515625 20.015625 
Q 33.0625 21.96875 24.703125 23.78125 
L 21.578125 24.515625 
Q 13.234375 26.265625 9.515625 29.90625 
Q 5.8125 33.546875 5.8125 39.890625 
Q 5.8125 47.609375 11.28125 51.796875 
Q 16.75 56 26.8125 56 
Q 31.78125 56 36.171875 55.265625 
Q 40.578125 54.546875 44.28125 53.078125 
z
" id="DejaVuSans-115"/>
      <path d="M 8.015625 75.875 
L 15.828125 75.875 
Q 23.140625 64.359375 26.78125 53.3125 
Q 30.421875 42.28125 30.421875 31.390625 
Q 30.421875 20.453125 26.78125 9.375 
Q 23.140625 -1.703125 15.828125 -13.1875 
L 8.015625 -13.1875 
Q 14.5 -2 17.703125 9.0625 
Q 20.90625 20.125 20.90625 31.390625 
Q 20.90625 42.671875 17.703125 53.65625 
Q 14.5 64.65625 8.015625 75.875 
z
" id="DejaVuSans-41"/>
     </defs>
     <g transform="translate(264.785485 201.1155)scale(0.144 -0.144)">
      <use xlink:href="#DejaVuSans-84"/>
      <use x="61.037109" xlink:href="#DejaVuSans-105"/>
      <use x="88.820312" xlink:href="#DejaVuSans-109"/>
      <use x="186.232422" xlink:href="#DejaVuSans-101"/>
      <use x="247.755859" xlink:href="#DejaVuSans-32"/>
      <use x="279.542969" xlink:href="#DejaVuSans-40"/>
      <use x="318.556641" xlink:href="#DejaVuSans-115"/>
      <use x="370.65625" xlink:href="#DejaVuSans-41"/>
     </g>
    </g>
   </g>
   <g id="matplotlib.axis_2">
    <g id="text_9">
     <!-- Cells -->
     <defs>
      <path d="M 64.40625 67.28125 
L 64.40625 56.890625 
Q 59.421875 61.53125 53.78125 63.8125 
Q 48.140625 66.109375 41.796875 66.109375 
Q 29.296875 66.109375 22.65625 58.46875 
Q 16.015625 50.828125 16.015625 36.375 
Q 16.015625 21.96875 22.65625 14.328125 
Q 29.296875 6.6875 41.796875 6.6875 
Q 48.140625 6.6875 53.78125 8.984375 
Q 59.421875 11.28125 64.40625 15.921875 
L 64.40625 5.609375 
Q 59.234375 2.09375 53.4375 0.328125 
Q 47.65625 -1.421875 41.21875 -1.421875 
Q 24.65625 -1.421875 15.125 8.703125 
Q 5.609375 18.84375 5.609375 36.375 
Q 5.609375 53.953125 15.125 64.078125 
Q 24.65625 74.21875 41.21875 74.21875 
Q 47.75 74.21875 53.53125 72.484375 
Q 59.328125 70.75 64.40625 67.28125 
z
" id="DejaVuSans-67"/>
      <path d="M 9.421875 75.984375 
L 18.40625 75.984375 
L 18.40625 0 
L 9.421875 0 
z
" id="DejaVuSans-108"/>
     </defs>
     <g transform="translate(21.48525 114.789125)rotate(-90)scale(0.144 -0.144)">
      <use xlink:href="#DejaVuSans-67"/>
      <use x="69.824219" xlink:href="#DejaVuSans-101"/>
      <use x="131.347656" xlink:href="#DejaVuSans-108"/>
      <use x="159.130859" xlink:href="#DejaVuSans-108"/>
      <use x="186.914062" xlink:href="#DejaVuSans-115"/>
     </g>
    </g>
   </g>
   <g id="LineCollection_1">
    <path clip-path="url(#pca70f28d2b)" d="M 51.996706 167.56 
L 51.996706 163.443529 
" style="fill:none;stroke:#000000;stroke-width:1.5;"/>
    <path clip-path="url(#pca70f28d2b)" d="M 69.896271 167.56 
L 69.896271 163.443529 
" style="fill:none;stroke:#000000;stroke-width:1.5;"/>
    <path clip-path="url(#pca70f28d2b)" d="M 72.768541 167.56 
L 72.768541 163.443529 
" style="fill:none;stroke:#000000;stroke-width:1.5;"/>
    <path clip-path="url(#pca70f28d2b)" d="M 133.028289 167.56 
L 133.028289 163.443529 
" style="fill:none;stroke:#000000;stroke-width:1.5;"/>
    <path clip-path="url(#pca70f28d2b)" d="M 135.414126 167.56 
L 135.414126 163.443529 
" style="fill:none;stroke:#000000;stroke-width:1.5;"/>
    <path clip-path="url(#pca70f28d2b)" d="M 255.325582 167.56 
L 255.325582 163.443529 
" style="fill:none;stroke:#000000;stroke-width:1.5;"/>
    <path clip-path="url(#pca70f28d2b)" d="M 287.065317 167.56 
L 287.065317 163.443529 
" style="fill:none;stroke:#000000;stroke-width:1.5;"/>
    <path clip-path="url(#pca70f28d2b)" d="M 343.022452 167.56 
L 343.022452 163.443529 
" style="fill:none;stroke:#000000;stroke-width:1.5;"/>
    <path clip-path="url(#pca70f28d2b)" d="M 475.99231 167.56 
L 475.99231 163.443529 
" style="fill:none;stroke:#000000;stroke-width:1.5;"/>
   </g>
   <g id="LineCollection_2">
    <path clip-path="url(#pca70f28d2b)" d="M 174.849921 163.443529 
L 174.849921 159.327059 
" style="fill:none;stroke:#000000;stroke-width:1.5;"/>
    <path clip-path="url(#pca70f28d2b)" d="M 300.627524 163.443529 
L 300.627524 159.327059 
" style="fill:none;stroke:#000000;stroke-width:1.5;"/>
    <path clip-path="url(#pca70f28d2b)" d="M 317.606342 163.443529 
L 317.606342 159.327059 
" style="fill:none;stroke:#000000;stroke-width:1.5;"/>
   </g>
   <g id="LineCollection_3">
    <path clip-path="url(#pca70f28d2b)" d="M 530.889717 155.210588 
L 530.889717 151.094118 
" style="fill:none;stroke:#000000;stroke-width:1.5;"/>
   </g>
   <g id="LineCollection_4">
    <path clip-path="url(#pca70f28d2b)" d="M 29.273349 151.094118 
L 29.273349 146.977647 
" style="fill:none;stroke:#000000;stroke-width:1.5;"/>
    <path clip-path="url(#pca70f28d2b)" d="M 65.454677 151.094118 
L 65.454677 146.977647 
" style="fill:none;stroke:#000000;stroke-width:1.5;"/>
    <path clip-path="url(#pca70f28d2b)" d="M 129.2179 151.094118 
L 129.2179 146.977647 
" style="fill:none;stroke:#000000;stroke-width:1.5;"/>
    <path clip-path="url(#pca70f28d2b)" d="M 254.862313 151.094118 
L 254.862313 146.977647 
" style="fill:none;stroke:#000000;stroke-width:1.5;"/>
    <path clip-path="url(#pca70f28d2b)" d="M 270.584513 151.094118 
L 270.584513 146.977647 
" style="fill:none;stroke:#000000;stroke-width:1.5;"/>
    <path clip-path="url(#pca70f28d2b)" d="M 283.173855 151.094118 
L 283.173855 146.977647 
" style="fill:none;stroke:#000000;stroke-width:1.5;"/>
    <path clip-path="url(#pca70f28d2b)" d="M 519.197959 151.094118 
L 519.197959 146.977647 
" style="fill:none;stroke:#000000;stroke-width:1.5;"/>
   </g>
   <g id="LineCollection_5">
    <path clip-path="url(#pca70f28d2b)" d="M 127.515385 146.977647 
L 127.515385 142.861176 
" style="fill:none;stroke:#000000;stroke-width:1.5;"/>
   </g>
   <g id="LineCollection_6">
    <path clip-path="url(#pca70f28d2b)" d="M 110.229651 142.861176 
L 110.229651 138.744706 
" style="fill:none;stroke:#000000;stroke-width:1.5;"/>
    <path clip-path="url(#pca70f28d2b)" d="M 167.530267 142.861176 
L 167.530267 138.744706 
" style="fill:none;stroke:#000000;stroke-width:1.5;"/>
    <path clip-path="url(#pca70f28d2b)" d="M 208.060536 142.861176 
L 208.060536 138.744706 
" style="fill:none;stroke:#000000;stroke-width:1.5;"/>
    <path clip-path="url(#pca70f28d2b)" d="M 208.599087 142.861176 
L 208.599087 138.744706 
" style="fill:none;stroke:#000000;stroke-width:1.5;"/>
    <path clip-path="url(#pca70f28d2b)" d="M 272.229119 142.861176 
L 272.229119 138.744706 
" style="fill:none;stroke:#000000;stroke-width:1.5;"/>
    <path clip-path="url(#pca70f28d2b)" d="M 422.693182 142.861176 
L 422.693182 138.744706 
" style="fill:none;stroke:#000000;stroke-width:1.5;"/>
   </g>
   <g id="LineCollection_7">
    <path clip-path="url(#pca70f28d2b)" d="M 285.067468 138.744706 
L 285.067468 134.628235 
" style="fill:none;stroke:#000000;stroke-width:1.5;"/>
    <path clip-path="url(#pca70f28d2b)" d="M 285.878189 138.744706 
L 285.878189 134.628235 
" style="fill:none;stroke:#000000;stroke-width:1.5;"/>
    <path clip-path="url(#pca70f28d2b)" d="M 429.456913 138.744706 
L 429.456913 134.628235 
" style="fill:none;stroke:#000000;stroke-width:1.5;"/>
    <path clip-path="url(#pca70f28d2b)" d="M 438.4675 138.744706 
L 438.4675 134.628235 
" style="fill:none;stroke:#000000;stroke-width:1.5;"/>
    <path clip-path="url(#pca70f28d2b)" d="M 441.032854 138.744706 
L 441.032854 134.628235 
" style="fill:none;stroke:#000000;stroke-width:1.5;"/>
   </g>
   <g id="LineCollection_8">
    <path clip-path="url(#pca70f28d2b)" d="M 368.473307 134.628235 
L 368.473307 130.511765 
" style="fill:none;stroke:#000000;stroke-width:1.5;"/>
   </g>
   <g id="LineCollection_9">
    <path clip-path="url(#pca70f28d2b)" d="M 113.866315 130.511765 
L 113.866315 126.395294 
" style="fill:none;stroke:#000000;stroke-width:1.5;"/>
    <path clip-path="url(#pca70f28d2b)" d="M 468.585793 130.511765 
L 468.585793 126.395294 
" style="fill:none;stroke:#000000;stroke-width:1.5;"/>
   </g>
   <g id="LineCollection_10">
    <path clip-path="url(#pca70f28d2b)" d="M 363.464208 126.395294 
L 363.464208 122.278824 
" style="fill:none;stroke:#000000;stroke-width:1.5;"/>
    <path clip-path="url(#pca70f28d2b)" d="M 523.865397 126.395294 
L 523.865397 122.278824 
" style="fill:none;stroke:#000000;stroke-width:1.5;"/>
   </g>
   <g id="LineCollection_11">
    <path clip-path="url(#pca70f28d2b)" d="M 33.060575 122.278824 
L 33.060575 118.162353 
" style="fill:none;stroke:#000000;stroke-width:1.5;"/>
    <path clip-path="url(#pca70f28d2b)" d="M 48.626422 122.278824 
L 48.626422 118.162353 
" style="fill:none;stroke:#000000;stroke-width:1.5;"/>
    <path clip-path="url(#pca70f28d2b)" d="M 100.709468 122.278824 
L 100.709468 118.162353 
" style="fill:none;stroke:#000000;stroke-width:1.5;"/>
    <path clip-path="url(#pca70f28d2b)" d="M 109.308903 122.278824 
L 109.308903 118.162353 
" style="fill:none;stroke:#000000;stroke-width:1.5;"/>
    <path clip-path="url(#pca70f28d2b)" d="M 164.825933 122.278824 
L 164.825933 118.162353 
" style="fill:none;stroke:#000000;stroke-width:1.5;"/>
    <path clip-path="url(#pca70f28d2b)" d="M 177.878544 122.278824 
L 177.878544 118.162353 
" style="fill:none;stroke:#000000;stroke-width:1.5;"/>
    <path clip-path="url(#pca70f28d2b)" d="M 180.003792 122.278824 
L 180.003792 118.162353 
" style="fill:none;stroke:#000000;stroke-width:1.5;"/>
    <path clip-path="url(#pca70f28d2b)" d="M 205.634163 122.278824 
L 205.634163 118.162353 
" style="fill:none;stroke:#000000;stroke-width:1.5;"/>
    <path clip-path="url(#pca70f28d2b)" d="M 214.233599 122.278824 
L 214.233599 118.162353 
" style="fill:none;stroke:#000000;stroke-width:1.5;"/>
    <path clip-path="url(#pca70f28d2b)" d="M 230.210597 122.278824 
L 230.210597 118.162353 
" style="fill:none;stroke:#000000;stroke-width:1.5;"/>
    <path clip-path="url(#pca70f28d2b)" d="M 241.410132 122.278824 
L 241.410132 118.162353 
" style="fill:none;stroke:#000000;stroke-width:1.5;"/>
    <path clip-path="url(#pca70f28d2b)" d="M 254.839149 122.278824 
L 254.839149 118.162353 
" style="fill:none;stroke:#000000;stroke-width:1.5;"/>
    <path clip-path="url(#pca70f28d2b)" d="M 275.587821 122.278824 
L 275.587821 118.162353 
" style="fill:none;stroke:#000000;stroke-width:1.5;"/>
    <path clip-path="url(#pca70f28d2b)" d="M 289.63067 122.278824 
L 289.63067 118.162353 
" style="fill:none;stroke:#000000;stroke-width:1.5;"/>
    <path clip-path="url(#pca70f28d2b)" d="M 311.832849 122.278824 
L 311.832849 118.162353 
" style="fill:none;stroke:#000000;stroke-width:1.5;"/>
    <path clip-path="url(#pca70f28d2b)" d="M 322.389597 122.278824 
L 322.389597 118.162353 
" style="fill:none;stroke:#000000;stroke-width:1.5;"/>
    <path clip-path="url(#pca70f28d2b)" d="M 339.113617 122.278824 
L 339.113617 118.162353 
" style="fill:none;stroke:#000000;stroke-width:1.5;"/>
    <path clip-path="url(#pca70f28d2b)" d="M 347.325065 122.278824 
L 347.325065 118.162353 
" style="fill:none;stroke:#000000;stroke-width:1.5;"/>
    <path clip-path="url(#pca70f28d2b)" d="M 379.221153 122.278824 
L 379.221153 118.162353 
" style="fill:none;stroke:#000000;stroke-width:1.5;"/>
    <path clip-path="url(#pca70f28d2b)" d="M 501.616891 122.278824 
L 501.616891 118.162353 
" style="fill:none;stroke:#000000;stroke-width:1.5;"/>
   </g>
   <g id="LineCollection_12">
    <path clip-path="url(#pca70f28d2b)" d="M 61.540052 118.162353 
L 61.540052 114.045882 
" style="fill:none;stroke:#000000;stroke-width:1.5;"/>
    <path clip-path="url(#pca70f28d2b)" d="M 81.107387 118.162353 
L 81.107387 114.045882 
" style="fill:none;stroke:#000000;stroke-width:1.5;"/>
    <path clip-path="url(#pca70f28d2b)" d="M 165.47451 118.162353 
L 165.47451 114.045882 
" style="fill:none;stroke:#000000;stroke-width:1.5;"/>
    <path clip-path="url(#pca70f28d2b)" d="M 174.212926 118.162353 
L 174.212926 114.045882 
" style="fill:none;stroke:#000000;stroke-width:1.5;"/>
    <path clip-path="url(#pca70f28d2b)" d="M 214.216226 118.162353 
L 214.216226 114.045882 
" style="fill:none;stroke:#000000;stroke-width:1.5;"/>
    <path clip-path="url(#pca70f28d2b)" d="M 466.640062 118.162353 
L 466.640062 114.045882 
" style="fill:none;stroke:#000000;stroke-width:1.5;"/>
    <path clip-path="url(#pca70f28d2b)" d="M 496.833635 118.162353 
L 496.833635 114.045882 
" style="fill:none;stroke:#000000;stroke-width:1.5;"/>
    <path clip-path="url(#pca70f28d2b)" d="M 500.093893 118.162353 
L 500.093893 114.045882 
" style="fill:none;stroke:#000000;stroke-width:1.5;"/>
    <path clip-path="url(#pca70f28d2b)" d="M 508.924963 118.162353 
L 508.924963 114.045882 
" style="fill:none;stroke:#000000;stroke-width:1.5;"/>
    <path clip-path="url(#pca70f28d2b)" d="M 510.957557 118.162353 
L 510.957557 114.045882 
" style="fill:none;stroke:#000000;stroke-width:1.5;"/>
    <path clip-path="url(#pca70f28d2b)" d="M 517.014802 118.162353 
L 517.014802 114.045882 
" style="fill:none;stroke:#000000;stroke-width:1.5;"/>
    <path clip-path="url(#pca70f28d2b)" d="M 558.6048 118.162353 
L 558.6048 114.045882 
" style="fill:none;stroke:#000000;stroke-width:1.5;"/>
   </g>
   <g id="LineCollection_13">
    <path clip-path="url(#pca70f28d2b)" d="M 29.719245 97.58 
L 29.719245 93.463529 
" style="fill:none;stroke:#000000;stroke-width:1.5;"/>
    <path clip-path="url(#pca70f28d2b)" d="M 36.158688 97.58 
L 36.158688 93.463529 
" style="fill:none;stroke:#000000;stroke-width:1.5;"/>
    <path clip-path="url(#pca70f28d2b)" d="M 46.999188 97.58 
L 46.999188 93.463529 
" style="fill:none;stroke:#000000;stroke-width:1.5;"/>
    <path clip-path="url(#pca70f28d2b)" d="M 55.969239 97.58 
L 55.969239 93.463529 
" style="fill:none;stroke:#000000;stroke-width:1.5;"/>
    <path clip-path="url(#pca70f28d2b)" d="M 126.554101 97.58 
L 126.554101 93.463529 
" style="fill:none;stroke:#000000;stroke-width:1.5;"/>
    <path clip-path="url(#pca70f28d2b)" d="M 128.899402 97.58 
L 128.899402 93.463529 
" style="fill:none;stroke:#000000;stroke-width:1.5;"/>
    <path clip-path="url(#pca70f28d2b)" d="M 132.072796 97.58 
L 132.072796 93.463529 
" style="fill:none;stroke:#000000;stroke-width:1.5;"/>
    <path clip-path="url(#pca70f28d2b)" d="M 163.331889 97.58 
L 163.331889 93.463529 
" style="fill:none;stroke:#000000;stroke-width:1.5;"/>
    <path clip-path="url(#pca70f28d2b)" d="M 165.584536 97.58 
L 165.584536 93.463529 
" style="fill:none;stroke:#000000;stroke-width:1.5;"/>
    <path clip-path="url(#pca70f28d2b)" d="M 167.379705 97.58 
L 167.379705 93.463529 
" style="fill:none;stroke:#000000;stroke-width:1.5;"/>
    <path clip-path="url(#pca70f28d2b)" d="M 177.258921 97.58 
L 177.258921 93.463529 
" style="fill:none;stroke:#000000;stroke-width:1.5;"/>
    <path clip-path="url(#pca70f28d2b)" d="M 180.739232 97.58 
L 180.739232 93.463529 
" style="fill:none;stroke:#000000;stroke-width:1.5;"/>
    <path clip-path="url(#pca70f28d2b)" d="M 208.697531 97.58 
L 208.697531 93.463529 
" style="fill:none;stroke:#000000;stroke-width:1.5;"/>
    <path clip-path="url(#pca70f28d2b)" d="M 223.858018 97.58 
L 223.858018 93.463529 
" style="fill:none;stroke:#000000;stroke-width:1.5;"/>
    <path clip-path="url(#pca70f28d2b)" d="M 233.835679 97.58 
L 233.835679 93.463529 
" style="fill:none;stroke:#000000;stroke-width:1.5;"/>
    <path clip-path="url(#pca70f28d2b)" d="M 240.831045 97.58 
L 240.831045 93.463529 
" style="fill:none;stroke:#000000;stroke-width:1.5;"/>
    <path clip-path="url(#pca70f28d2b)" d="M 246.158641 97.58 
L 246.158641 93.463529 
" style="fill:none;stroke:#000000;stroke-width:1.5;"/>
    <path clip-path="url(#pca70f28d2b)" d="M 253.316151 97.58 
L 253.316151 93.463529 
" style="fill:none;stroke:#000000;stroke-width:1.5;"/>
    <path clip-path="url(#pca70f28d2b)" d="M 258.342623 97.58 
L 258.342623 93.463529 
" style="fill:none;stroke:#000000;stroke-width:1.5;"/>
    <path clip-path="url(#pca70f28d2b)" d="M 265.048445 97.58 
L 265.048445 93.463529 
" style="fill:none;stroke:#000000;stroke-width:1.5;"/>
    <path clip-path="url(#pca70f28d2b)" d="M 272.344936 97.58 
L 272.344936 93.463529 
" style="fill:none;stroke:#000000;stroke-width:1.5;"/>
    <path clip-path="url(#pca70f28d2b)" d="M 282.826403 97.58 
L 282.826403 93.463529 
" style="fill:none;stroke:#000000;stroke-width:1.5;"/>
    <path clip-path="url(#pca70f28d2b)" d="M 283.556052 97.58 
L 283.556052 93.463529 
" style="fill:none;stroke:#000000;stroke-width:1.5;"/>
    <path clip-path="url(#pca70f28d2b)" d="M 291.744336 97.58 
L 291.744336 93.463529 
" style="fill:none;stroke:#000000;stroke-width:1.5;"/>
    <path clip-path="url(#pca70f28d2b)" d="M 294.506579 97.58 
L 294.506579 93.463529 
" style="fill:none;stroke:#000000;stroke-width:1.5;"/>
    <path clip-path="url(#pca70f28d2b)" d="M 302.787517 97.58 
L 302.787517 93.463529 
" style="fill:none;stroke:#000000;stroke-width:1.5;"/>
    <path clip-path="url(#pca70f28d2b)" d="M 310.373551 97.58 
L 310.373551 93.463529 
" style="fill:none;stroke:#000000;stroke-width:1.5;"/>
    <path clip-path="url(#pca70f28d2b)" d="M 316.05439 97.58 
L 316.05439 93.463529 
" style="fill:none;stroke:#000000;stroke-width:1.5;"/>
    <path clip-path="url(#pca70f28d2b)" d="M 324.410609 97.58 
L 324.410609 93.463529 
" style="fill:none;stroke:#000000;stroke-width:1.5;"/>
    <path clip-path="url(#pca70f28d2b)" d="M 332.84211 97.58 
L 332.84211 93.463529 
" style="fill:none;stroke:#000000;stroke-width:1.5;"/>
    <path clip-path="url(#pca70f28d2b)" d="M 342.078541 97.58 
L 342.078541 93.463529 
" style="fill:none;stroke:#000000;stroke-width:1.5;"/>
    <path clip-path="url(#pca70f28d2b)" d="M 349.236051 97.58 
L 349.236051 93.463529 
" style="fill:none;stroke:#000000;stroke-width:1.5;"/>
    <path clip-path="url(#pca70f28d2b)" d="M 363.724797 97.58 
L 363.724797 93.463529 
" style="fill:none;stroke:#000000;stroke-width:1.5;"/>
    <path clip-path="url(#pca70f28d2b)" d="M 369.185583 97.58 
L 369.185583 93.463529 
" style="fill:none;stroke:#000000;stroke-width:1.5;"/>
    <path clip-path="url(#pca70f28d2b)" d="M 387.038822 97.58 
L 387.038822 93.463529 
" style="fill:none;stroke:#000000;stroke-width:1.5;"/>
    <path clip-path="url(#pca70f28d2b)" d="M 416.751754 97.58 
L 416.751754 93.463529 
" style="fill:none;stroke:#000000;stroke-width:1.5;"/>
    <path clip-path="url(#pca70f28d2b)" d="M 424.523096 97.58 
L 424.523096 93.463529 
" style="fill:none;stroke:#000000;stroke-width:1.5;"/>
    <path clip-path="url(#pca70f28d2b)" d="M 439.677791 97.58 
L 439.677791 93.463529 
" style="fill:none;stroke:#000000;stroke-width:1.5;"/>
    <path clip-path="url(#pca70f28d2b)" d="M 467.178612 97.58 
L 467.178612 93.463529 
" style="fill:none;stroke:#000000;stroke-width:1.5;"/>
    <path clip-path="url(#pca70f28d2b)" d="M 475.708557 97.58 
L 475.708557 93.463529 
" style="fill:none;stroke:#000000;stroke-width:1.5;"/>
    <path clip-path="url(#pca70f28d2b)" d="M 496.654119 97.58 
L 496.654119 93.463529 
" style="fill:none;stroke:#000000;stroke-width:1.5;"/>
    <path clip-path="url(#pca70f28d2b)" d="M 502.207559 97.58 
L 502.207559 93.463529 
" style="fill:none;stroke:#000000;stroke-width:1.5;"/>
    <path clip-path="url(#pca70f28d2b)" d="M 558.263139 97.58 
L 558.263139 93.463529 
" style="fill:none;stroke:#000000;stroke-width:1.5;"/>
   </g>
   <g id="LineCollection_14">
    <path clip-path="url(#pca70f28d2b)" d="M 30.136188 85.230588 
L 30.136188 81.114118 
" style="fill:none;stroke:#000000;stroke-width:1.5;"/>
    <path clip-path="url(#pca70f28d2b)" d="M 33.981322 85.230588 
L 33.981322 81.114118 
" style="fill:none;stroke:#000000;stroke-width:1.5;"/>
    <path clip-path="url(#pca70f28d2b)" d="M 166.684801 85.230588 
L 166.684801 81.114118 
" style="fill:none;stroke:#000000;stroke-width:1.5;"/>
    <path clip-path="url(#pca70f28d2b)" d="M 307.808198 85.230588 
L 307.808198 81.114118 
" style="fill:none;stroke:#000000;stroke-width:1.5;"/>
   </g>
   <g id="LineCollection_15">
    <path clip-path="url(#pca70f28d2b)" d="M 128.378224 81.114118 
L 128.378224 76.997647 
" style="fill:none;stroke:#000000;stroke-width:1.5;"/>
    <path clip-path="url(#pca70f28d2b)" d="M 132.188614 81.114118 
L 132.188614 76.997647 
" style="fill:none;stroke:#000000;stroke-width:1.5;"/>
    <path clip-path="url(#pca70f28d2b)" d="M 165.092313 81.114118 
L 165.092313 76.997647 
" style="fill:none;stroke:#000000;stroke-width:1.5;"/>
    <path clip-path="url(#pca70f28d2b)" d="M 165.804589 81.114118 
L 165.804589 76.997647 
" style="fill:none;stroke:#000000;stroke-width:1.5;"/>
    <path clip-path="url(#pca70f28d2b)" d="M 167.721366 81.114118 
L 167.721366 76.997647 
" style="fill:none;stroke:#000000;stroke-width:1.5;"/>
    <path clip-path="url(#pca70f28d2b)" d="M 179.042508 81.114118 
L 179.042508 76.997647 
" style="fill:none;stroke:#000000;stroke-width:1.5;"/>
    <path clip-path="url(#pca70f28d2b)" d="M 182.893434 81.114118 
L 182.893434 76.997647 
" style="fill:none;stroke:#000000;stroke-width:1.5;"/>
    <path clip-path="url(#pca70f28d2b)" d="M 184.07477 81.114118 
L 184.07477 76.997647 
" style="fill:none;stroke:#000000;stroke-width:1.5;"/>
    <path clip-path="url(#pca70f28d2b)" d="M 188.759581 81.114118 
L 188.759581 76.997647 
" style="fill:none;stroke:#000000;stroke-width:1.5;"/>
    <path clip-path="url(#pca70f28d2b)" d="M 209.948358 81.114118 
L 209.948358 76.997647 
" style="fill:none;stroke:#000000;stroke-width:1.5;"/>
    <path clip-path="url(#pca70f28d2b)" d="M 211.019668 81.114118 
L 211.019668 76.997647 
" style="fill:none;stroke:#000000;stroke-width:1.5;"/>
    <path clip-path="url(#pca70f28d2b)" d="M 223.597429 81.114118 
L 223.597429 76.997647 
" style="fill:none;stroke:#000000;stroke-width:1.5;"/>
    <path clip-path="url(#pca70f28d2b)" d="M 224.935119 81.114118 
L 224.935119 76.997647 
" style="fill:none;stroke:#000000;stroke-width:1.5;"/>
    <path clip-path="url(#pca70f28d2b)" d="M 229.405667 81.114118 
L 229.405667 76.997647 
" style="fill:none;stroke:#000000;stroke-width:1.5;"/>
    <path clip-path="url(#pca70f28d2b)" d="M 243.599079 81.114118 
L 243.599079 76.997647 
" style="fill:none;stroke:#000000;stroke-width:1.5;"/>
    <path clip-path="url(#pca70f28d2b)" d="M 246.141269 81.114118 
L 246.141269 76.997647 
" style="fill:none;stroke:#000000;stroke-width:1.5;"/>
    <path clip-path="url(#pca70f28d2b)" d="M 248.752949 81.114118 
L 248.752949 76.997647 
" style="fill:none;stroke:#000000;stroke-width:1.5;"/>
    <path clip-path="url(#pca70f28d2b)" d="M 258.429486 81.114118 
L 258.429486 76.997647 
" style="fill:none;stroke:#000000;stroke-width:1.5;"/>
    <path clip-path="url(#pca70f28d2b)" d="M 269.872236 81.114118 
L 269.872236 76.997647 
" style="fill:none;stroke:#000000;stroke-width:1.5;"/>
    <path clip-path="url(#pca70f28d2b)" d="M 272.223328 81.114118 
L 272.223328 76.997647 
" style="fill:none;stroke:#000000;stroke-width:1.5;"/>
    <path clip-path="url(#pca70f28d2b)" d="M 286.625211 81.114118 
L 286.625211 76.997647 
" style="fill:none;stroke:#000000;stroke-width:1.5;"/>
    <path clip-path="url(#pca70f28d2b)" d="M 292.282887 81.114118 
L 292.282887 76.997647 
" style="fill:none;stroke:#000000;stroke-width:1.5;"/>
    <path clip-path="url(#pca70f28d2b)" d="M 294.321271 81.114118 
L 294.321271 76.997647 
" style="fill:none;stroke:#000000;stroke-width:1.5;"/>
    <path clip-path="url(#pca70f28d2b)" d="M 303.14076 81.114118 
L 303.14076 76.997647 
" style="fill:none;stroke:#000000;stroke-width:1.5;"/>
    <path clip-path="url(#pca70f28d2b)" d="M 306.343109 81.114118 
L 306.343109 76.997647 
" style="fill:none;stroke:#000000;stroke-width:1.5;"/>
    <path clip-path="url(#pca70f28d2b)" d="M 309.835001 81.114118 
L 309.835001 76.997647 
" style="fill:none;stroke:#000000;stroke-width:1.5;"/>
    <path clip-path="url(#pca70f28d2b)" d="M 311.607005 81.114118 
L 311.607005 76.997647 
" style="fill:none;stroke:#000000;stroke-width:1.5;"/>
    <path clip-path="url(#pca70f28d2b)" d="M 313.946515 81.114118 
L 313.946515 76.997647 
" style="fill:none;stroke:#000000;stroke-width:1.5;"/>
    <path clip-path="url(#pca70f28d2b)" d="M 332.714711 81.114118 
L 332.714711 76.997647 
" style="fill:none;stroke:#000000;stroke-width:1.5;"/>
    <path clip-path="url(#pca70f28d2b)" d="M 341.4068 81.114118 
L 341.4068 76.997647 
" style="fill:none;stroke:#000000;stroke-width:1.5;"/>
    <path clip-path="url(#pca70f28d2b)" d="M 351.824568 81.114118 
L 351.824568 76.997647 
" style="fill:none;stroke:#000000;stroke-width:1.5;"/>
    <path clip-path="url(#pca70f28d2b)" d="M 357.32589 81.114118 
L 357.32589 76.997647 
" style="fill:none;stroke:#000000;stroke-width:1.5;"/>
    <path clip-path="url(#pca70f28d2b)" d="M 365.021951 81.114118 
L 365.021951 76.997647 
" style="fill:none;stroke:#000000;stroke-width:1.5;"/>
    <path clip-path="url(#pca70f28d2b)" d="M 559.432894 81.114118 
L 559.432894 76.997647 
" style="fill:none;stroke:#000000;stroke-width:1.5;"/>
   </g>
   <g id="LineCollection_16">
    <path clip-path="url(#pca70f28d2b)" d="M 36.199224 76.997647 
L 36.199224 72.881176 
" style="fill:none;stroke:#000000;stroke-width:1.5;"/>
    <path clip-path="url(#pca70f28d2b)" d="M 189.164941 76.997647 
L 189.164941 72.881176 
" style="fill:none;stroke:#000000;stroke-width:1.5;"/>
   </g>
   <g id="LineCollection_17">
    <path clip-path="url(#pca70f28d2b)" d="M 346.560671 68.764706 
L 346.560671 64.648235 
" style="fill:none;stroke:#000000;stroke-width:1.5;"/>
   </g>
   <g id="LineCollection_18">
    <path clip-path="url(#pca70f28d2b)" d="M 114.428029 64.648235 
L 114.428029 60.531765 
" style="fill:none;stroke:#000000;stroke-width:1.5;"/>
    <path clip-path="url(#pca70f28d2b)" d="M 145.866638 64.648235 
L 145.866638 60.531765 
" style="fill:none;stroke:#000000;stroke-width:1.5;"/>
    <path clip-path="url(#pca70f28d2b)" d="M 178.272323 64.648235 
L 178.272323 60.531765 
" style="fill:none;stroke:#000000;stroke-width:1.5;"/>
    <path clip-path="url(#pca70f28d2b)" d="M 229.214568 64.648235 
L 229.214568 60.531765 
" style="fill:none;stroke:#000000;stroke-width:1.5;"/>
    <path clip-path="url(#pca70f28d2b)" d="M 292.057043 64.648235 
L 292.057043 60.531765 
" style="fill:none;stroke:#000000;stroke-width:1.5;"/>
    <path clip-path="url(#pca70f28d2b)" d="M 302.619582 64.648235 
L 302.619582 60.531765 
" style="fill:none;stroke:#000000;stroke-width:1.5;"/>
    <path clip-path="url(#pca70f28d2b)" d="M 395.244479 64.648235 
L 395.244479 60.531765 
" style="fill:none;stroke:#000000;stroke-width:1.5;"/>
    <path clip-path="url(#pca70f28d2b)" d="M 433.429447 64.648235 
L 433.429447 60.531765 
" style="fill:none;stroke:#000000;stroke-width:1.5;"/>
    <path clip-path="url(#pca70f28d2b)" d="M 452.012335 64.648235 
L 452.012335 60.531765 
" style="fill:none;stroke:#000000;stroke-width:1.5;"/>
    <path clip-path="url(#pca70f28d2b)" d="M 455.677953 64.648235 
L 455.677953 60.531765 
" style="fill:none;stroke:#000000;stroke-width:1.5;"/>
    <path clip-path="url(#pca70f28d2b)" d="M 456.540792 64.648235 
L 456.540792 60.531765 
" style="fill:none;stroke:#000000;stroke-width:1.5;"/>
    <path clip-path="url(#pca70f28d2b)" d="M 499.868049 64.648235 
L 499.868049 60.531765 
" style="fill:none;stroke:#000000;stroke-width:1.5;"/>
    <path clip-path="url(#pca70f28d2b)" d="M 501.170994 64.648235 
L 501.170994 60.531765 
" style="fill:none;stroke:#000000;stroke-width:1.5;"/>
    <path clip-path="url(#pca70f28d2b)" d="M 553.057151 64.648235 
L 553.057151 60.531765 
" style="fill:none;stroke:#000000;stroke-width:1.5;"/>
   </g>
   <g id="LineCollection_19">
    <path clip-path="url(#pca70f28d2b)" d="M 246.61612 60.531765 
L 246.61612 56.415294 
" style="fill:none;stroke:#000000;stroke-width:1.5;"/>
    <path clip-path="url(#pca70f28d2b)" d="M 256.501128 60.531765 
L 256.501128 56.415294 
" style="fill:none;stroke:#000000;stroke-width:1.5;"/>
    <path clip-path="url(#pca70f28d2b)" d="M 285.131167 60.531765 
L 285.131167 56.415294 
" style="fill:none;stroke:#000000;stroke-width:1.5;"/>
   </g>
   <g id="LineCollection_20">
    <path clip-path="url(#pca70f28d2b)" d="M 35.788073 52.298824 
L 35.788073 48.182353 
" style="fill:none;stroke:#000000;stroke-width:1.5;"/>
    <path clip-path="url(#pca70f28d2b)" d="M 130.370282 52.298824 
L 130.370282 48.182353 
" style="fill:none;stroke:#000000;stroke-width:1.5;"/>
    <path clip-path="url(#pca70f28d2b)" d="M 166.800618 52.298824 
L 166.800618 48.182353 
" style="fill:none;stroke:#000000;stroke-width:1.5;"/>
    <path clip-path="url(#pca70f28d2b)" d="M 227.732107 52.298824 
L 227.732107 48.182353 
" style="fill:none;stroke:#000000;stroke-width:1.5;"/>
    <path clip-path="url(#pca70f28d2b)" d="M 250.131175 52.298824 
L 250.131175 48.182353 
" style="fill:none;stroke:#000000;stroke-width:1.5;"/>
    <path clip-path="url(#pca70f28d2b)" d="M 267.445864 52.298824 
L 267.445864 48.182353 
" style="fill:none;stroke:#000000;stroke-width:1.5;"/>
    <path clip-path="url(#pca70f28d2b)" d="M 314.710909 52.298824 
L 314.710909 48.182353 
" style="fill:none;stroke:#000000;stroke-width:1.5;"/>
    <path clip-path="url(#pca70f28d2b)" d="M 351.847731 52.298824 
L 351.847731 48.182353 
" style="fill:none;stroke:#000000;stroke-width:1.5;"/>
    <path clip-path="url(#pca70f28d2b)" d="M 352.91325 52.298824 
L 352.91325 48.182353 
" style="fill:none;stroke:#000000;stroke-width:1.5;"/>
    <path clip-path="url(#pca70f28d2b)" d="M 369.185583 52.298824 
L 369.185583 48.182353 
" style="fill:none;stroke:#000000;stroke-width:1.5;"/>
   </g>
   <g id="LineCollection_21">
    <path clip-path="url(#pca70f28d2b)" d="M 506.035321 48.182353 
L 506.035321 44.065882 
" style="fill:none;stroke:#000000;stroke-width:1.5;"/>
   </g>
   <g id="LineCollection_22">
    <path clip-path="url(#pca70f28d2b)" d="M 130.271837 39.949412 
L 130.271837 35.832941 
" style="fill:none;stroke:#000000;stroke-width:1.5;"/>
    <path clip-path="url(#pca70f28d2b)" d="M 132.171241 39.949412 
L 132.171241 35.832941 
" style="fill:none;stroke:#000000;stroke-width:1.5;"/>
    <path clip-path="url(#pca70f28d2b)" d="M 167.576594 39.949412 
L 167.576594 35.832941 
" style="fill:none;stroke:#000000;stroke-width:1.5;"/>
    <path clip-path="url(#pca70f28d2b)" d="M 180.924539 39.949412 
L 180.924539 35.832941 
" style="fill:none;stroke:#000000;stroke-width:1.5;"/>
    <path clip-path="url(#pca70f28d2b)" d="M 224.830883 39.949412 
L 224.830883 35.832941 
" style="fill:none;stroke:#000000;stroke-width:1.5;"/>
    <path clip-path="url(#pca70f28d2b)" d="M 307.304392 39.949412 
L 307.304392 35.832941 
" style="fill:none;stroke:#000000;stroke-width:1.5;"/>
   </g>
   <g id="LineCollection_23">
    <path clip-path="url(#pca70f28d2b)" d="M 29.244394 35.832941 
L 29.244394 31.716471 
" style="fill:none;stroke:#000000;stroke-width:1.5;"/>
    <path clip-path="url(#pca70f28d2b)" d="M 66.045346 35.832941 
L 66.045346 31.716471 
" style="fill:none;stroke:#000000;stroke-width:1.5;"/>
    <path clip-path="url(#pca70f28d2b)" d="M 77.505469 35.832941 
L 77.505469 31.716471 
" style="fill:none;stroke:#000000;stroke-width:1.5;"/>
    <path clip-path="url(#pca70f28d2b)" d="M 106.737759 35.832941 
L 106.737759 31.716471 
" style="fill:none;stroke:#000000;stroke-width:1.5;"/>
    <path clip-path="url(#pca70f28d2b)" d="M 293.834839 35.832941 
L 293.834839 31.716471 
" style="fill:none;stroke:#000000;stroke-width:1.5;"/>
    <path clip-path="url(#pca70f28d2b)" d="M 344.794457 35.832941 
L 344.794457 31.716471 
" style="fill:none;stroke:#000000;stroke-width:1.5;"/>
   </g>
   <g id="patch_3">
    <path d="M 28.48 167.56 
L 28.48 27.6 
" style="fill:none;stroke:#000000;stroke-linecap:square;stroke-linejoin:miter;stroke-width:0.8;"/>
   </g>
   <g id="patch_4">
    <path d="M 560.081471 167.56 
L 560.081471 27.6 
" style="fill:none;stroke:#000000;stroke-linecap:square;stroke-linejoin:miter;stroke-width:0.8;"/>
   </g>
   <g id="patch_5">
    <path d="M 28.48 167.56 
L 560.081471 167.56 
" style="fill:none;stroke:#000000;stroke-linecap:square;stroke-linejoin:miter;stroke-width:0.8;"/>
   </g>
   <g id="patch_6">
    <path d="M 28.48 27.6 
L 560.081471 27.6 
" style="fill:none;stroke:#000000;stroke-linecap:square;stroke-linejoin:miter;stroke-width:0.8;"/>
   </g>
   <g id="text_10">
    <!-- V1 raster -->
    <defs>
     <path d="M 28.609375 0 
L 0.78125 72.90625 
L 11.078125 72.90625 
L 34.1875 11.53125 
L 57.328125 72.90625 
L 67.578125 72.90625 
L 39.796875 0 
z
" id="DejaVuSans-86"/>
     <path d="M 41.109375 46.296875 
Q 39.59375 47.171875 37.8125 47.578125 
Q 36.03125 48 33.890625 48 
Q 26.265625 48 22.1875 43.046875 
Q 18.109375 38.09375 18.109375 28.8125 
L 18.109375 0 
L 9.078125 0 
L 9.078125 54.6875 
L 18.109375 54.6875 
L 18.109375 46.1875 
Q 20.953125 51.171875 25.484375 53.578125 
Q 30.03125 56 36.53125 56 
Q 37.453125 56 38.578125 55.875 
Q 39.703125 55.765625 41.0625 55.515625 
z
" id="DejaVuSans-114"/>
     <path d="M 34.28125 27.484375 
Q 23.390625 27.484375 19.1875 25 
Q 14.984375 22.515625 14.984375 16.5 
Q 14.984375 11.71875 18.140625 8.90625 
Q 21.296875 6.109375 26.703125 6.109375 
Q 34.1875 6.109375 38.703125 11.40625 
Q 43.21875 16.703125 43.21875 25.484375 
L 43.21875 27.484375 
z
M 52.203125 31.203125 
L 52.203125 0 
L 43.21875 0 
L 43.21875 8.296875 
Q 40.140625 3.328125 35.546875 0.953125 
Q 30.953125 -1.421875 24.3125 -1.421875 
Q 15.921875 -1.421875 10.953125 3.296875 
Q 6 8.015625 6 15.921875 
Q 6 25.140625 12.171875 29.828125 
Q 18.359375 34.515625 30.609375 34.515625 
L 43.21875 34.515625 
L 43.21875 35.40625 
Q 43.21875 41.609375 39.140625 45 
Q 35.0625 48.390625 27.6875 48.390625 
Q 23 48.390625 18.546875 47.265625 
Q 14.109375 46.140625 10.015625 43.890625 
L 10.015625 52.203125 
Q 14.9375 54.109375 19.578125 55.046875 
Q 24.21875 56 28.609375 56 
Q 40.484375 56 46.34375 49.84375 
Q 52.203125 43.703125 52.203125 31.203125 
z
" id="DejaVuSans-97"/>
     <path d="M 18.3125 70.21875 
L 18.3125 54.6875 
L 36.8125 54.6875 
L 36.8125 47.703125 
L 18.3125 47.703125 
L 18.3125 18.015625 
Q 18.3125 11.328125 20.140625 9.421875 
Q 21.96875 7.515625 27.59375 7.515625 
L 36.8125 7.515625 
L 36.8125 0 
L 27.59375 0 
Q 17.1875 0 13.234375 3.875 
Q 9.28125 7.765625 9.28125 18.015625 
L 9.28125 47.703125 
L 2.6875 47.703125 
L 2.6875 54.6875 
L 9.28125 54.6875 
L 9.28125 70.21875 
z
" id="DejaVuSans-116"/>
    </defs>
    <g transform="translate(261.15061 21.6)scale(0.144 -0.144)">
     <use xlink:href="#DejaVuSans-86"/>
     <use x="68.408203" xlink:href="#DejaVuSans-49"/>
     <use x="132.03125" xlink:href="#DejaVuSans-32"/>
     <use x="163.818359" xlink:href="#DejaVuSans-114"/>
     <use x="204.931641" xlink:href="#DejaVuSans-97"/>
     <use x="266.210938" xlink:href="#DejaVuSans-115"/>
     <use x="318.310547" xlink:href="#DejaVuSans-116"/>
     <use x="357.519531" xlink:href="#DejaVuSans-101"/>
     <use x="419.042969" xlink:href="#DejaVuSans-114"/>
    </g>
   </g>
  </g>
 </g>
 <defs>
  <clipPath id="pca70f28d2b">
   <rect height="139.96" width="531.601471" x="28.48" y="27.6"/>
  </clipPath>
 </defs>
</svg>
