<?xml version="1.0" encoding="utf-8" standalone="no"?>
<!DOCTYPE svg PUBLIC "-//W3C//DTD SVG 1.1//EN"
  "http://www.w3.org/Graphics/SVG/1.1/DTD/svg11.dtd">
<!-- Created with matplotlib (https://matplotlib.org/) -->
<svg height="216pt" version="1.1" viewBox="0 0 648 216" width="648pt" xmlns="http://www.w3.org/2000/svg" xmlns:xlink="http://www.w3.org/1999/xlink">
 <defs>
  <style type="text/css">
*{stroke-linecap:butt;stroke-linejoin:round;}
  </style>
 </defs>
 <g id="figure_1">
  <g id="patch_1">
   <path d="M 0 216 
L 648 216 
L 648 0 
L 0 0 
z
" style="fill:#ffffff;"/>
  </g>
  <g id="axes_1">
   <g id="patch_2">
    <path d="M 81 192.24 
L 583.2 192.24 
L 583.2 25.92 
L 81 25.92 
z
" style="fill:#ffffff;"/>
   </g>
   <g id="PolyCollection_1">
    <defs>
     <path d="M 142.590566 -23.76 
L 142.590566 -190.08 
L 426.854717 -190.08 
L 426.854717 -23.76 
L 426.854717 -23.76 
L 142.590566 -23.76 
z
" id="m35dceb8a03" style="stroke:#808080;stroke-opacity:0.3;"/>
    </defs>
    <g clip-path="url(#p0fcb66a855)">
     <use style="fill:#808080;fill-opacity:0.3;stroke:#808080;stroke-opacity:0.3;" x="0" xlink:href="#m35dceb8a03" y="216"/>
    </g>
   </g>
   <g id="PolyCollection_2">
    <defs>
     <path d="M 81 -186.885953 
L 81 -120.113782 
L 82.895094 -122.548838 
L 84.790189 -121.375627 
L 86.685283 -123.08955 
L 88.580377 -120.967238 
L 90.475472 -118.235605 
L 92.370566 -120.513361 
L 94.26566 -118.125355 
L 96.160755 -120.181776 
L 98.055849 -125.004019 
L 99.950943 -124.211488 
L 101.846038 -124.899862 
L 103.741132 -126.90187 
L 105.636226 -125.229025 
L 107.531321 -127.096113 
L 109.426415 -126.31943 
L 111.321509 -123.61464 
L 113.216604 -122.458413 
L 115.111698 -120.183854 
L 117.006792 -115.450268 
L 118.901887 -112.792469 
L 120.796981 -111.643946 
L 122.692075 -109.280756 
L 124.58717 -110.310837 
L 126.482264 -109.73374 
L 128.377358 -106.96729 
L 130.272453 -106.873866 
L 132.167547 -106.747945 
L 134.062642 -103.693263 
L 135.957736 -103.873707 
L 137.85283 -98.17073 
L 139.747925 -92.953139 
L 141.643019 -93.164745 
L 143.538113 -88.156806 
L 145.433208 -82.780387 
L 147.328302 -80.068467 
L 149.223396 -78.646246 
L 151.118491 -76.510216 
L 153.013585 -73.69082 
L 154.908679 -75.574039 
L 156.803774 -76.434509 
L 158.698868 -71.587184 
L 160.593962 -69.950859 
L 162.489057 -67.226035 
L 164.384151 -65.270865 
L 166.279245 -65.477759 
L 168.17434 -60.95622 
L 170.069434 -62.429299 
L 171.964528 -60.760725 
L 173.859623 -53.24852 
L 175.754717 -49.976624 
L 177.649811 -49.694052 
L 179.544906 -47.962255 
L 181.44 -47.076803 
L 183.335094 -43.272307 
L 185.230189 -43.440879 
L 187.125283 -43.488244 
L 189.020377 -36.966613 
L 190.915472 -39.464251 
L 192.810566 -39.021634 
L 194.70566 -39.545588 
L 196.600755 -41.192131 
L 198.495849 -40.534252 
L 200.390943 -38.095424 
L 202.286038 -37.714154 
L 204.181132 -37.867835 
L 206.076226 -35.633914 
L 207.971321 -34.996432 
L 209.866415 -31.115298 
L 211.761509 -31.425403 
L 213.656604 -31.76289 
L 215.551698 -29.593689 
L 217.446792 -29.942699 
L 219.341887 -30.615613 
L 221.236981 -31.296556 
L 223.132075 -35.871136 
L 225.02717 -39.672559 
L 226.922264 -41.73222 
L 228.817358 -44.781527 
L 230.712453 -46.274803 
L 232.607547 -49.819545 
L 234.502642 -51.325298 
L 236.397736 -54.130517 
L 238.29283 -54.046098 
L 240.187925 -54.452722 
L 242.083019 -53.063545 
L 243.978113 -56.932501 
L 245.873208 -56.779107 
L 247.768302 -59.610947 
L 249.663396 -61.412159 
L 251.558491 -62.410479 
L 253.453585 -58.920596 
L 255.348679 -61.621236 
L 257.243774 -63.141383 
L 259.138868 -63.108283 
L 261.033962 -62.577523 
L 262.929057 -63.799471 
L 264.824151 -63.891127 
L 266.719245 -61.761866 
L 268.61434 -61.678937 
L 270.509434 -60.964149 
L 272.404528 -57.959799 
L 274.299623 -58.510725 
L 276.194717 -59.384164 
L 278.089811 -61.046645 
L 279.984906 -61.640393 
L 281.88 -64.472281 
L 283.775094 -63.421562 
L 285.670189 -66.795559 
L 287.565283 -68.051782 
L 289.460377 -66.453172 
L 291.355472 -67.919449 
L 293.250566 -68.737752 
L 295.14566 -70.473691 
L 297.040755 -74.215149 
L 298.935849 -74.820388 
L 300.830943 -74.100558 
L 302.726038 -72.67062 
L 304.621132 -73.473047 
L 306.516226 -73.276335 
L 308.411321 -70.943626 
L 310.306415 -72.218888 
L 312.201509 -69.573618 
L 314.096604 -71.988301 
L 315.991698 -70.979612 
L 317.886792 -71.007961 
L 319.781887 -66.6842 
L 321.676981 -67.891017 
L 323.572075 -65.949988 
L 325.46717 -65.704618 
L 327.362264 -64.982428 
L 329.257358 -66.035566 
L 331.152453 -62.436633 
L 333.047547 -60.374117 
L 334.942642 -59.1233 
L 336.837736 -58.374247 
L 338.73283 -56.647721 
L 340.627925 -59.302157 
L 342.523019 -59.442888 
L 344.418113 -61.905851 
L 346.313208 -62.480359 
L 348.208302 -61.458543 
L 350.103396 -61.02247 
L 351.998491 -60.557222 
L 353.893585 -59.759534 
L 355.788679 -59.142205 
L 357.683774 -57.464976 
L 359.578868 -59.691903 
L 361.473962 -61.169759 
L 363.369057 -62.519989 
L 365.264151 -64.341216 
L 367.159245 -64.236031 
L 369.05434 -64.095731 
L 370.949434 -62.4827 
L 372.844528 -61.140434 
L 374.739623 -61.175104 
L 376.634717 -59.396876 
L 378.529811 -59.98098 
L 380.424906 -55.839225 
L 382.32 -56.113906 
L 384.215094 -57.071454 
L 386.110189 -58.422659 
L 388.005283 -60.905034 
L 389.900377 -60.092654 
L 391.795472 -62.401831 
L 393.690566 -65.120947 
L 395.58566 -68.737379 
L 397.480755 -67.595614 
L 399.375849 -67.584664 
L 401.270943 -67.06553 
L 403.166038 -67.807632 
L 405.061132 -69.685081 
L 406.956226 -73.63181 
L 408.851321 -77.336085 
L 410.746415 -79.966352 
L 412.641509 -80.01909 
L 414.536604 -84.877144 
L 416.431698 -84.267934 
L 418.326792 -85.104007 
L 420.221887 -85.85978 
L 422.116981 -85.760689 
L 424.012075 -87.528246 
L 425.90717 -87.979975 
L 427.802264 -85.999385 
L 429.697358 -86.269952 
L 431.592453 -85.957471 
L 433.487547 -87.216518 
L 435.382642 -86.375086 
L 437.277736 -86.716741 
L 439.17283 -86.756313 
L 441.067925 -85.340896 
L 442.963019 -85.274092 
L 444.858113 -84.540708 
L 446.753208 -83.701579 
L 448.648302 -82.057387 
L 450.543396 -79.325451 
L 452.438491 -77.462513 
L 454.333585 -79.104587 
L 456.228679 -78.220988 
L 458.123774 -77.417131 
L 460.018868 -75.052268 
L 461.913962 -74.461497 
L 463.809057 -71.44029 
L 465.704151 -70.019172 
L 467.599245 -68.953861 
L 469.49434 -67.389877 
L 471.389434 -61.751467 
L 473.284528 -60.556777 
L 475.179623 -60.787791 
L 477.074717 -59.146175 
L 478.969811 -57.150857 
L 480.864906 -53.838198 
L 482.76 -50.541325 
L 484.655094 -46.913449 
L 486.550189 -45.595882 
L 488.445283 -43.807529 
L 490.340377 -39.492916 
L 492.235472 -39.039421 
L 494.130566 -38.140401 
L 496.02566 -36.336259 
L 497.920755 -36.31474 
L 499.815849 -34.700241 
L 501.710943 -34.195571 
L 503.606038 -33.952244 
L 505.501132 -31.965515 
L 507.396226 -33.196477 
L 509.291321 -31.325006 
L 511.186415 -31.227922 
L 513.081509 -26.937482 
L 514.976604 -24.717072 
L 516.871698 -24.48569 
L 518.766792 -27.392705 
L 520.661887 -24.688454 
L 522.556981 -23.76 
L 524.452075 -23.967004 
L 526.34717 -25.267125 
L 528.242264 -28.217488 
L 530.137358 -27.023511 
L 532.032453 -29.167744 
L 533.927547 -29.728504 
L 535.822642 -30.094587 
L 537.717736 -30.908978 
L 539.61283 -32.552352 
L 541.507925 -33.14703 
L 543.403019 -29.822702 
L 545.298113 -32.256851 
L 547.193208 -33.684706 
L 549.088302 -35.087049 
L 550.983396 -35.697914 
L 552.878491 -39.258241 
L 554.773585 -43.199183 
L 556.668679 -49.114098 
L 558.563774 -54.454637 
L 560.458868 -63.042648 
L 562.353962 -64.554154 
L 564.249057 -66.525705 
L 566.144151 -69.61025 
L 568.039245 -74.024357 
L 569.93434 -76.39921 
L 571.829434 -77.271063 
L 573.724528 -81.257293 
L 575.619623 -85.510492 
L 577.514717 -88.391682 
L 579.409811 -94.576415 
L 581.304906 -95.211315 
L 583.2 -96.497365 
L 583.2 -169.375974 
L 583.2 -169.375974 
L 581.304906 -167.467742 
L 579.409811 -164.908358 
L 577.514717 -159.513815 
L 575.619623 -157.204295 
L 573.724528 -153.471786 
L 571.829434 -149.472308 
L 569.93434 -148.347735 
L 568.039245 -145.132591 
L 566.144151 -141.560991 
L 564.249057 -138.656255 
L 562.353962 -135.03781 
L 560.458868 -130.959321 
L 558.563774 -124.773772 
L 556.668679 -118.13575 
L 554.773585 -113.269959 
L 552.878491 -107.228766 
L 550.983396 -101.605529 
L 549.088302 -99.820682 
L 547.193208 -95.233743 
L 545.298113 -91.470888 
L 543.403019 -87.516471 
L 541.507925 -90.181423 
L 539.61283 -88.38039 
L 537.717736 -85.232339 
L 535.822642 -82.053876 
L 533.927547 -79.624961 
L 532.032453 -79.38715 
L 530.137358 -76.340673 
L 528.242264 -77.542408 
L 526.34717 -75.302062 
L 524.452075 -73.008614 
L 522.556981 -73.614903 
L 520.661887 -75.082162 
L 518.766792 -78.766477 
L 516.871698 -76.882067 
L 514.976604 -77.04997 
L 513.081509 -77.624558 
L 511.186415 -82.517682 
L 509.291321 -81.222742 
L 507.396226 -84.142696 
L 505.501132 -84.175802 
L 503.606038 -88.577639 
L 501.710943 -88.334312 
L 499.815849 -89.826069 
L 497.920755 -91.405853 
L 496.02566 -92.981475 
L 494.130566 -97.166614 
L 492.235472 -98.663307 
L 490.340377 -99.806954 
L 488.445283 -106.273046 
L 486.550189 -109.675403 
L 484.655094 -113.548547 
L 482.76 -117.507093 
L 480.864906 -122.595213 
L 478.969811 -124.473264 
L 477.074717 -126.870086 
L 475.179623 -130.019895 
L 473.284528 -131.04948 
L 471.389434 -132.250502 
L 469.49434 -136.594226 
L 467.599245 -138.224526 
L 465.704151 -139.554927 
L 463.809057 -142.126663 
L 461.913962 -145.893308 
L 460.018868 -144.903251 
L 458.123774 -146.930528 
L 456.228679 -145.727385 
L 454.333585 -145.642357 
L 452.438491 -145.68729 
L 450.543396 -147.018635 
L 448.648302 -149.477409 
L 446.753208 -151.426785 
L 444.858113 -151.785513 
L 442.963019 -154.246412 
L 441.067925 -153.780323 
L 439.17283 -155.958474 
L 437.277736 -156.796617 
L 435.382642 -157.537557 
L 433.487547 -159.890409 
L 431.592453 -157.955172 
L 429.697358 -159.639118 
L 427.802264 -163.103969 
L 425.90717 -167.112659 
L 424.012075 -165.567961 
L 422.116981 -164.141235 
L 420.221887 -161.247146 
L 418.326792 -158.010065 
L 416.431698 -155.651855 
L 414.536604 -153.445503 
L 412.641509 -146.324996 
L 410.746415 -144.780592 
L 408.851321 -141.022293 
L 406.956226 -137.53943 
L 405.061132 -132.701881 
L 403.166038 -130.985761 
L 401.270943 -128.932866 
L 399.375849 -126.417304 
L 397.480755 -125.208498 
L 395.58566 -126.861731 
L 393.690566 -121.294599 
L 391.795472 -118.42372 
L 389.900377 -116.340757 
L 388.005283 -115.927663 
L 386.110189 -114.017899 
L 384.215094 -113.372677 
L 382.32 -112.733082 
L 380.424906 -113.806334 
L 378.529811 -117.650288 
L 376.634717 -115.439394 
L 374.739623 -117.65402 
L 372.844528 -118.886545 
L 370.949434 -120.339278 
L 369.05434 -121.521245 
L 367.159245 -118.585946 
L 365.264151 -117.282906 
L 363.369057 -114.312707 
L 361.473962 -114.864367 
L 359.578868 -112.748654 
L 357.683774 -110.583442 
L 355.788679 -110.104069 
L 353.893585 -110.285311 
L 351.998491 -107.890481 
L 350.103396 -105.828092 
L 348.208302 -106.98916 
L 346.313208 -108.762342 
L 344.418113 -107.340423 
L 342.523019 -108.206245 
L 340.627925 -109.145546 
L 338.73283 -109.004984 
L 336.837736 -110.073457 
L 334.942642 -111.720115 
L 333.047547 -116.45858 
L 331.152453 -119.586774 
L 329.257358 -122.775693 
L 327.362264 -123.429545 
L 325.46717 -125.103068 
L 323.572075 -127.652696 
L 321.676981 -130.902377 
L 319.781887 -130.911338 
L 317.886792 -135.771141 
L 315.991698 -137.39663 
L 314.096604 -135.988656 
L 312.201509 -134.410485 
L 310.306415 -136.55664 
L 308.411321 -137.432617 
L 306.516226 -139.891333 
L 304.621132 -140.892477 
L 302.726038 -140.896333 
L 300.830943 -142.261393 
L 298.935849 -141.541563 
L 297.040755 -139.351804 
L 295.14566 -133.909698 
L 293.250566 -130.454927 
L 291.355472 -130.075374 
L 289.460377 -129.145938 
L 287.565283 -131.140896 
L 285.670189 -128.004981 
L 283.775094 -124.990412 
L 281.88 -126.73469 
L 279.984906 -124.375868 
L 278.089811 -122.174618 
L 276.194717 -121.441387 
L 274.299623 -121.116969 
L 272.404528 -122.06718 
L 270.509434 -125.451398 
L 268.61434 -129.128748 
L 266.719245 -130.243676 
L 264.824151 -132.506554 
L 262.929057 -132.59821 
L 261.033962 -131.424446 
L 259.138868 -132.490827 
L 257.243774 -130.860586 
L 255.348679 -128.787164 
L 253.453585 -126.297094 
L 251.558491 -127.598635 
L 249.663396 -125.402673 
L 247.768302 -122.41246 
L 245.873208 -120.85216 
L 243.978113 -120.698766 
L 242.083019 -114.186302 
L 240.187925 -113.196411 
L 238.29283 -112.405179 
L 236.397736 -111.921474 
L 234.502642 -107.938842 
L 232.607547 -106.250311 
L 230.712453 -103.007202 
L 228.817358 -100.906909 
L 226.922264 -97.168364 
L 225.02717 -93.238744 
L 223.132075 -91.450172 
L 221.236981 -86.441902 
L 219.341887 -85.525703 
L 217.446792 -84.202191 
L 215.551698 -84.151915 
L 213.656604 -85.576282 
L 211.761509 -84.316628 
L 209.866415 -85.425304 
L 207.971321 -89.929164 
L 206.076226 -90.489537 
L 204.181132 -94.244897 
L 202.286038 -94.797863 
L 200.390943 -94.815879 
L 198.495849 -95.172049 
L 196.600755 -94.913455 
L 194.70566 -92.167859 
L 192.810566 -89.49753 
L 190.915472 -85.86063 
L 189.020377 -81.171131 
L 187.125283 -83.833064 
L 185.230189 -83.880428 
L 183.335094 -83.649715 
L 181.44 -86.633071 
L 179.544906 -86.945476 
L 177.649811 -89.605818 
L 175.754717 -90.521102 
L 173.859623 -93.637772 
L 171.964528 -102.496268 
L 170.069434 -104.820548 
L 168.17434 -105.095771 
L 166.279245 -111.354938 
L 164.384151 -114.35683 
L 162.489057 -117.59237 
L 160.593962 -120.457541 
L 158.698868 -121.216929 
L 156.803774 -129.945307 
L 154.908679 -129.208636 
L 153.013585 -127.498286 
L 151.118491 -131.466742 
L 149.223396 -133.323566 
L 147.328302 -134.696342 
L 145.433208 -137.973704 
L 143.538113 -143.37799 
L 141.643019 -147.9529 
L 139.747925 -148.164506 
L 137.85283 -152.92905 
L 135.957736 -157.607494 
L 134.062642 -161.381506 
L 132.167547 -165.114675 
L 130.272453 -164.988755 
L 128.377358 -164.895331 
L 126.482264 -168.517447 
L 124.58717 -170.336063 
L 122.692075 -169.769002 
L 120.796981 -172.995807 
L 118.901887 -174.242997 
L 117.006792 -177.175193 
L 115.111698 -181.625171 
L 113.216604 -184.541322 
L 111.321509 -185.381523 
L 109.426415 -188.266728 
L 107.531321 -187.88933 
L 105.636226 -187.360706 
L 103.741132 -190.08 
L 101.846038 -186.492013 
L 99.950943 -184.784675 
L 98.055849 -182.794287 
L 96.160755 -176.43654 
L 94.26566 -175.697962 
L 92.370566 -179.299237 
L 90.475472 -176.386283 
L 88.580377 -181.640358 
L 86.685283 -186.305898 
L 84.790189 -185.624109 
L 82.895094 -188.443752 
L 81 -186.885953 
z
" id="m1aec215a9a" style="stroke:#0000ff;stroke-opacity:0.3;"/>
    </defs>
    <g clip-path="url(#p0fcb66a855)">
     <use style="fill:#0000ff;fill-opacity:0.3;stroke:#0000ff;stroke-opacity:0.3;" x="0" xlink:href="#m1aec215a9a" y="216"/>
    </g>
   </g>
   <g id="matplotlib.axis_1">
    <g id="xtick_1">
     <g id="line2d_1">
      <defs>
       <path d="M 0 0 
L 0 3.5 
" id="m2e92dc4930" style="stroke:#000000;stroke-width:0.8;"/>
      </defs>
      <g>
       <use style="stroke:#000000;stroke-width:0.8;" x="142.590566" xlink:href="#m2e92dc4930" y="192.24"/>
      </g>
     </g>
     <g id="text_1">
      <!-- 0.0 -->
      <defs>
       <path d="M 31.78125 66.40625 
Q 24.171875 66.40625 20.328125 58.90625 
Q 16.5 51.421875 16.5 36.375 
Q 16.5 21.390625 20.328125 13.890625 
Q 24.171875 6.390625 31.78125 6.390625 
Q 39.453125 6.390625 43.28125 13.890625 
Q 47.125 21.390625 47.125 36.375 
Q 47.125 51.421875 43.28125 58.90625 
Q 39.453125 66.40625 31.78125 66.40625 
z
M 31.78125 74.21875 
Q 44.046875 74.21875 50.515625 64.515625 
Q 56.984375 54.828125 56.984375 36.375 
Q 56.984375 17.96875 50.515625 8.265625 
Q 44.046875 -1.421875 31.78125 -1.421875 
Q 19.53125 -1.421875 13.0625 8.265625 
Q 6.59375 17.96875 6.59375 36.375 
Q 6.59375 54.828125 13.0625 64.515625 
Q 19.53125 74.21875 31.78125 74.21875 
z
" id="DejaVuSans-48"/>
       <path d="M 10.6875 12.40625 
L 21 12.40625 
L 21 0 
L 10.6875 0 
z
" id="DejaVuSans-46"/>
      </defs>
      <g transform="translate(133.048691 208.358125)scale(0.12 -0.12)">
       <use xlink:href="#DejaVuSans-48"/>
       <use x="63.623047" xlink:href="#DejaVuSans-46"/>
       <use x="95.410156" xlink:href="#DejaVuSans-48"/>
      </g>
     </g>
    </g>
    <g id="xtick_2">
     <g id="line2d_2">
      <g>
       <use style="stroke:#000000;stroke-width:0.8;" x="237.345283" xlink:href="#m2e92dc4930" y="192.24"/>
      </g>
     </g>
     <g id="text_2">
      <!-- 0.5 -->
      <defs>
       <path d="M 10.796875 72.90625 
L 49.515625 72.90625 
L 49.515625 64.59375 
L 19.828125 64.59375 
L 19.828125 46.734375 
Q 21.96875 47.46875 24.109375 47.828125 
Q 26.265625 48.1875 28.421875 48.1875 
Q 40.625 48.1875 47.75 41.5 
Q 54.890625 34.8125 54.890625 23.390625 
Q 54.890625 11.625 47.5625 5.09375 
Q 40.234375 -1.421875 26.90625 -1.421875 
Q 22.3125 -1.421875 17.546875 -0.640625 
Q 12.796875 0.140625 7.71875 1.703125 
L 7.71875 11.625 
Q 12.109375 9.234375 16.796875 8.0625 
Q 21.484375 6.890625 26.703125 6.890625 
Q 35.15625 6.890625 40.078125 11.328125 
Q 45.015625 15.765625 45.015625 23.390625 
Q 45.015625 31 40.078125 35.4375 
Q 35.15625 39.890625 26.703125 39.890625 
Q 22.75 39.890625 18.8125 39.015625 
Q 14.890625 38.140625 10.796875 36.28125 
z
" id="DejaVuSans-53"/>
      </defs>
      <g transform="translate(227.803408 208.358125)scale(0.12 -0.12)">
       <use xlink:href="#DejaVuSans-48"/>
       <use x="63.623047" xlink:href="#DejaVuSans-46"/>
       <use x="95.410156" xlink:href="#DejaVuSans-53"/>
      </g>
     </g>
    </g>
    <g id="xtick_3">
     <g id="line2d_3">
      <g>
       <use style="stroke:#000000;stroke-width:0.8;" x="332.1" xlink:href="#m2e92dc4930" y="192.24"/>
      </g>
     </g>
     <g id="text_3">
      <!-- 1.0 -->
      <defs>
       <path d="M 12.40625 8.296875 
L 28.515625 8.296875 
L 28.515625 63.921875 
L 10.984375 60.40625 
L 10.984375 69.390625 
L 28.421875 72.90625 
L 38.28125 72.90625 
L 38.28125 8.296875 
L 54.390625 8.296875 
L 54.390625 0 
L 12.40625 0 
z
" id="DejaVuSans-49"/>
      </defs>
      <g transform="translate(322.558125 208.358125)scale(0.12 -0.12)">
       <use xlink:href="#DejaVuSans-49"/>
       <use x="63.623047" xlink:href="#DejaVuSans-46"/>
       <use x="95.410156" xlink:href="#DejaVuSans-48"/>
      </g>
     </g>
    </g>
    <g id="xtick_4">
     <g id="line2d_4">
      <g>
       <use style="stroke:#000000;stroke-width:0.8;" x="426.854717" xlink:href="#m2e92dc4930" y="192.24"/>
      </g>
     </g>
     <g id="text_4">
      <!-- 1.5 -->
      <g transform="translate(417.312842 208.358125)scale(0.12 -0.12)">
       <use xlink:href="#DejaVuSans-49"/>
       <use x="63.623047" xlink:href="#DejaVuSans-46"/>
       <use x="95.410156" xlink:href="#DejaVuSans-53"/>
      </g>
     </g>
    </g>
    <g id="xtick_5">
     <g id="line2d_5">
      <g>
       <use style="stroke:#000000;stroke-width:0.8;" x="521.609434" xlink:href="#m2e92dc4930" y="192.24"/>
      </g>
     </g>
     <g id="text_5">
      <!-- 2.0 -->
      <defs>
       <path d="M 19.1875 8.296875 
L 53.609375 8.296875 
L 53.609375 0 
L 7.328125 0 
L 7.328125 8.296875 
Q 12.9375 14.109375 22.625 23.890625 
Q 32.328125 33.6875 34.8125 36.53125 
Q 39.546875 41.84375 41.421875 45.53125 
Q 43.3125 49.21875 43.3125 52.78125 
Q 43.3125 58.59375 39.234375 62.25 
Q 35.15625 65.921875 28.609375 65.921875 
Q 23.96875 65.921875 18.8125 64.3125 
Q 13.671875 62.703125 7.8125 59.421875 
L 7.8125 69.390625 
Q 13.765625 71.78125 18.9375 73 
Q 24.125 74.21875 28.421875 74.21875 
Q 39.75 74.21875 46.484375 68.546875 
Q 53.21875 62.890625 53.21875 53.421875 
Q 53.21875 48.921875 51.53125 44.890625 
Q 49.859375 40.875 45.40625 35.40625 
Q 44.1875 33.984375 37.640625 27.21875 
Q 31.109375 20.453125 19.1875 8.296875 
z
" id="DejaVuSans-50"/>
      </defs>
      <g transform="translate(512.067559 208.358125)scale(0.12 -0.12)">
       <use xlink:href="#DejaVuSans-50"/>
       <use x="63.623047" xlink:href="#DejaVuSans-46"/>
       <use x="95.410156" xlink:href="#DejaVuSans-48"/>
      </g>
     </g>
    </g>
    <g id="text_6">
     <!-- Time (s) -->
     <defs>
      <path d="M -0.296875 72.90625 
L 61.375 72.90625 
L 61.375 64.59375 
L 35.5 64.59375 
L 35.5 0 
L 25.59375 0 
L 25.59375 64.59375 
L -0.296875 64.59375 
z
" id="DejaVuSans-84"/>
      <path d="M 9.421875 54.6875 
L 18.40625 54.6875 
L 18.40625 0 
L 9.421875 0 
z
M 9.421875 75.984375 
L 18.40625 75.984375 
L 18.40625 64.59375 
L 9.421875 64.59375 
z
" id="DejaVuSans-105"/>
      <path d="M 52 44.1875 
Q 55.375 50.25 60.0625 53.125 
Q 64.75 56 71.09375 56 
Q 79.640625 56 84.28125 50.015625 
Q 88.921875 44.046875 88.921875 33.015625 
L 88.921875 0 
L 79.890625 0 
L 79.890625 32.71875 
Q 79.890625 40.578125 77.09375 44.375 
Q 74.3125 48.1875 68.609375 48.1875 
Q 61.625 48.1875 57.5625 43.546875 
Q 53.515625 38.921875 53.515625 30.90625 
L 53.515625 0 
L 44.484375 0 
L 44.484375 32.71875 
Q 44.484375 40.625 41.703125 44.40625 
Q 38.921875 48.1875 33.109375 48.1875 
Q 26.21875 48.1875 22.15625 43.53125 
Q 18.109375 38.875 18.109375 30.90625 
L 18.109375 0 
L 9.078125 0 
L 9.078125 54.6875 
L 18.109375 54.6875 
L 18.109375 46.1875 
Q 21.1875 51.21875 25.484375 53.609375 
Q 29.78125 56 35.6875 56 
Q 41.65625 56 45.828125 52.96875 
Q 50 49.953125 52 44.1875 
z
" id="DejaVuSans-109"/>
      <path d="M 56.203125 29.59375 
L 56.203125 25.203125 
L 14.890625 25.203125 
Q 15.484375 15.921875 20.484375 11.0625 
Q 25.484375 6.203125 34.421875 6.203125 
Q 39.59375 6.203125 44.453125 7.46875 
Q 49.3125 8.734375 54.109375 11.28125 
L 54.109375 2.78125 
Q 49.265625 0.734375 44.1875 -0.34375 
Q 39.109375 -1.421875 33.890625 -1.421875 
Q 20.796875 -1.421875 13.15625 6.1875 
Q 5.515625 13.8125 5.515625 26.8125 
Q 5.515625 40.234375 12.765625 48.109375 
Q 20.015625 56 32.328125 56 
Q 43.359375 56 49.78125 48.890625 
Q 56.203125 41.796875 56.203125 29.59375 
z
M 47.21875 32.234375 
Q 47.125 39.59375 43.09375 43.984375 
Q 39.0625 48.390625 32.421875 48.390625 
Q 24.90625 48.390625 20.390625 44.140625 
Q 15.875 39.890625 15.1875 32.171875 
z
" id="DejaVuSans-101"/>
      <path id="DejaVuSans-32"/>
      <path d="M 31 75.875 
Q 24.46875 64.65625 21.28125 53.65625 
Q 18.109375 42.671875 18.109375 31.390625 
Q 18.109375 20.125 21.3125 9.0625 
Q 24.515625 -2 31 -13.1875 
L 23.1875 -13.1875 
Q 15.875 -1.703125 12.234375 9.375 
Q 8.59375 20.453125 8.59375 31.390625 
Q 8.59375 42.28125 12.203125 53.3125 
Q 15.828125 64.359375 23.1875 75.875 
z
" id="DejaVuSans-40"/>
      <path d="M 44.28125 53.078125 
L 44.28125 44.578125 
Q 40.484375 46.53125 36.375 47.5 
Q 32.28125 48.484375 27.875 48.484375 
Q 21.1875 48.484375 17.84375 46.4375 
Q 14.5 44.390625 14.5 40.28125 
Q 14.5 37.15625 16.890625 35.375 
Q 19.28125 33.59375 26.515625 31.984375 
L 29.59375 31.296875 
Q 39.15625 29.25 43.1875 25.515625 
Q 47.21875 21.78125 47.21875 15.09375 
Q 47.21875 7.46875 41.1875 3.015625 
Q 35.15625 -1.421875 24.609375 -1.421875 
Q 20.21875 -1.421875 15.453125 -0.5625 
Q 10.6875 0.296875 5.421875 2 
L 5.421875 11.28125 
Q 10.40625 8.6875 15.234375 7.390625 
Q 20.0625 6.109375 24.8125 6.109375 
Q 31.15625 6.109375 34.5625 8.28125 
Q 37.984375 10.453125 37.984375 14.40625 
Q 37.984375 18.0625 35.515625 20.015625 
Q 33.0625 21.96875 24.703125 23.78125 
L 21.578125 24.515625 
Q 13.234375 26.265625 9.515625 29.90625 
Q 5.8125 33.546875 5.8125 39.890625 
Q 5.8125 47.609375 11.28125 51.796875 
Q 16.75 56 26.8125 56 
Q 31.78125 56 36.171875 55.265625 
Q 40.578125 54.546875 44.28125 53.078125 
z
" id="DejaVuSans-115"/>
      <path d="M 8.015625 75.875 
L 15.828125 75.875 
Q 23.140625 64.359375 26.78125 53.3125 
Q 30.421875 42.28125 30.421875 31.390625 
Q 30.421875 20.453125 26.78125 9.375 
Q 23.140625 -1.703125 15.828125 -13.1875 
L 8.015625 -13.1875 
Q 14.5 -2 17.703125 9.0625 
Q 20.90625 20.125 20.90625 31.390625 
Q 20.90625 42.671875 17.703125 53.65625 
Q 14.5 64.65625 8.015625 75.875 
z
" id="DejaVuSans-41"/>
     </defs>
     <g transform="translate(302.60475 225.7955)scale(0.144 -0.144)">
      <use xlink:href="#DejaVuSans-84"/>
      <use x="61.037109" xlink:href="#DejaVuSans-105"/>
      <use x="88.820312" xlink:href="#DejaVuSans-109"/>
      <use x="186.232422" xlink:href="#DejaVuSans-101"/>
      <use x="247.755859" xlink:href="#DejaVuSans-32"/>
      <use x="279.542969" xlink:href="#DejaVuSans-40"/>
      <use x="318.556641" xlink:href="#DejaVuSans-115"/>
      <use x="370.65625" xlink:href="#DejaVuSans-41"/>
     </g>
    </g>
   </g>
   <g id="matplotlib.axis_2">
    <g id="ytick_1">
     <g id="line2d_6">
      <defs>
       <path d="M 0 0 
L -3.5 0 
" id="m776a7c240f" style="stroke:#000000;stroke-width:0.8;"/>
      </defs>
      <g>
       <use style="stroke:#000000;stroke-width:0.8;" x="81" xlink:href="#m776a7c240f" y="185.879319"/>
      </g>
     </g>
     <g id="text_7">
      <!-- 3.5 -->
      <defs>
       <path d="M 40.578125 39.3125 
Q 47.65625 37.796875 51.625 33 
Q 55.609375 28.21875 55.609375 21.1875 
Q 55.609375 10.40625 48.1875 4.484375 
Q 40.765625 -1.421875 27.09375 -1.421875 
Q 22.515625 -1.421875 17.65625 -0.515625 
Q 12.796875 0.390625 7.625 2.203125 
L 7.625 11.71875 
Q 11.71875 9.328125 16.59375 8.109375 
Q 21.484375 6.890625 26.8125 6.890625 
Q 36.078125 6.890625 40.9375 10.546875 
Q 45.796875 14.203125 45.796875 21.1875 
Q 45.796875 27.640625 41.28125 31.265625 
Q 36.765625 34.90625 28.71875 34.90625 
L 20.21875 34.90625 
L 20.21875 43.015625 
L 29.109375 43.015625 
Q 36.375 43.015625 40.234375 45.921875 
Q 44.09375 48.828125 44.09375 54.296875 
Q 44.09375 59.90625 40.109375 62.90625 
Q 36.140625 65.921875 28.71875 65.921875 
Q 24.65625 65.921875 20.015625 65.03125 
Q 15.375 64.15625 9.8125 62.3125 
L 9.8125 71.09375 
Q 15.4375 72.65625 20.34375 73.4375 
Q 25.25 74.21875 29.59375 74.21875 
Q 40.828125 74.21875 47.359375 69.109375 
Q 53.90625 64.015625 53.90625 55.328125 
Q 53.90625 49.265625 50.4375 45.09375 
Q 46.96875 40.921875 40.578125 39.3125 
z
" id="DejaVuSans-51"/>
      </defs>
      <g transform="translate(54.91625 190.438382)scale(0.12 -0.12)">
       <use xlink:href="#DejaVuSans-51"/>
       <use x="63.623047" xlink:href="#DejaVuSans-46"/>
       <use x="95.410156" xlink:href="#DejaVuSans-53"/>
      </g>
     </g>
    </g>
    <g id="ytick_2">
     <g id="line2d_7">
      <g>
       <use style="stroke:#000000;stroke-width:0.8;" x="81" xlink:href="#m776a7c240f" y="145.95078"/>
      </g>
     </g>
     <g id="text_8">
      <!-- 4.0 -->
      <defs>
       <path d="M 37.796875 64.3125 
L 12.890625 25.390625 
L 37.796875 25.390625 
z
M 35.203125 72.90625 
L 47.609375 72.90625 
L 47.609375 25.390625 
L 58.015625 25.390625 
L 58.015625 17.1875 
L 47.609375 17.1875 
L 47.609375 0 
L 37.796875 0 
L 37.796875 17.1875 
L 4.890625 17.1875 
L 4.890625 26.703125 
z
" id="DejaVuSans-52"/>
      </defs>
      <g transform="translate(54.91625 150.509842)scale(0.12 -0.12)">
       <use xlink:href="#DejaVuSans-52"/>
       <use x="63.623047" xlink:href="#DejaVuSans-46"/>
       <use x="95.410156" xlink:href="#DejaVuSans-48"/>
      </g>
     </g>
    </g>
    <g id="ytick_3">
     <g id="line2d_8">
      <g>
       <use style="stroke:#000000;stroke-width:0.8;" x="81" xlink:href="#m776a7c240f" y="106.02224"/>
      </g>
     </g>
     <g id="text_9">
      <!-- 4.5 -->
      <g transform="translate(54.91625 110.581303)scale(0.12 -0.12)">
       <use xlink:href="#DejaVuSans-52"/>
       <use x="63.623047" xlink:href="#DejaVuSans-46"/>
       <use x="95.410156" xlink:href="#DejaVuSans-53"/>
      </g>
     </g>
    </g>
    <g id="ytick_4">
     <g id="line2d_9">
      <g>
       <use style="stroke:#000000;stroke-width:0.8;" x="81" xlink:href="#m776a7c240f" y="66.093701"/>
      </g>
     </g>
     <g id="text_10">
      <!-- 5.0 -->
      <g transform="translate(54.91625 70.652763)scale(0.12 -0.12)">
       <use xlink:href="#DejaVuSans-53"/>
       <use x="63.623047" xlink:href="#DejaVuSans-46"/>
       <use x="95.410156" xlink:href="#DejaVuSans-48"/>
      </g>
     </g>
    </g>
    <g id="ytick_5">
     <g id="line2d_10">
      <g>
       <use style="stroke:#000000;stroke-width:0.8;" x="81" xlink:href="#m776a7c240f" y="26.165161"/>
      </g>
     </g>
     <g id="text_11">
      <!-- 5.5 -->
      <g transform="translate(54.91625 30.724224)scale(0.12 -0.12)">
       <use xlink:href="#DejaVuSans-53"/>
       <use x="63.623047" xlink:href="#DejaVuSans-46"/>
       <use x="95.410156" xlink:href="#DejaVuSans-53"/>
      </g>
     </g>
    </g>
    <g id="text_12">
     <!-- Act. Cells Moving Avg. -->
     <defs>
      <path d="M 34.1875 63.1875 
L 20.796875 26.90625 
L 47.609375 26.90625 
z
M 28.609375 72.90625 
L 39.796875 72.90625 
L 67.578125 0 
L 57.328125 0 
L 50.6875 18.703125 
L 17.828125 18.703125 
L 11.1875 0 
L 0.78125 0 
z
" id="DejaVuSans-65"/>
      <path d="M 48.78125 52.59375 
L 48.78125 44.1875 
Q 44.96875 46.296875 41.140625 47.34375 
Q 37.3125 48.390625 33.40625 48.390625 
Q 24.65625 48.390625 19.8125 42.84375 
Q 14.984375 37.3125 14.984375 27.296875 
Q 14.984375 17.28125 19.8125 11.734375 
Q 24.65625 6.203125 33.40625 6.203125 
Q 37.3125 6.203125 41.140625 7.25 
Q 44.96875 8.296875 48.78125 10.40625 
L 48.78125 2.09375 
Q 45.015625 0.34375 40.984375 -0.53125 
Q 36.96875 -1.421875 32.421875 -1.421875 
Q 20.0625 -1.421875 12.78125 6.34375 
Q 5.515625 14.109375 5.515625 27.296875 
Q 5.515625 40.671875 12.859375 48.328125 
Q 20.21875 56 33.015625 56 
Q 37.15625 56 41.109375 55.140625 
Q 45.0625 54.296875 48.78125 52.59375 
z
" id="DejaVuSans-99"/>
      <path d="M 18.3125 70.21875 
L 18.3125 54.6875 
L 36.8125 54.6875 
L 36.8125 47.703125 
L 18.3125 47.703125 
L 18.3125 18.015625 
Q 18.3125 11.328125 20.140625 9.421875 
Q 21.96875 7.515625 27.59375 7.515625 
L 36.8125 7.515625 
L 36.8125 0 
L 27.59375 0 
Q 17.1875 0 13.234375 3.875 
Q 9.28125 7.765625 9.28125 18.015625 
L 9.28125 47.703125 
L 2.6875 47.703125 
L 2.6875 54.6875 
L 9.28125 54.6875 
L 9.28125 70.21875 
z
" id="DejaVuSans-116"/>
      <path d="M 64.40625 67.28125 
L 64.40625 56.890625 
Q 59.421875 61.53125 53.78125 63.8125 
Q 48.140625 66.109375 41.796875 66.109375 
Q 29.296875 66.109375 22.65625 58.46875 
Q 16.015625 50.828125 16.015625 36.375 
Q 16.015625 21.96875 22.65625 14.328125 
Q 29.296875 6.6875 41.796875 6.6875 
Q 48.140625 6.6875 53.78125 8.984375 
Q 59.421875 11.28125 64.40625 15.921875 
L 64.40625 5.609375 
Q 59.234375 2.09375 53.4375 0.328125 
Q 47.65625 -1.421875 41.21875 -1.421875 
Q 24.65625 -1.421875 15.125 8.703125 
Q 5.609375 18.84375 5.609375 36.375 
Q 5.609375 53.953125 15.125 64.078125 
Q 24.65625 74.21875 41.21875 74.21875 
Q 47.75 74.21875 53.53125 72.484375 
Q 59.328125 70.75 64.40625 67.28125 
z
" id="DejaVuSans-67"/>
      <path d="M 9.421875 75.984375 
L 18.40625 75.984375 
L 18.40625 0 
L 9.421875 0 
z
" id="DejaVuSans-108"/>
      <path d="M 9.8125 72.90625 
L 24.515625 72.90625 
L 43.109375 23.296875 
L 61.8125 72.90625 
L 76.515625 72.90625 
L 76.515625 0 
L 66.890625 0 
L 66.890625 64.015625 
L 48.09375 14.015625 
L 38.1875 14.015625 
L 19.390625 64.015625 
L 19.390625 0 
L 9.8125 0 
z
" id="DejaVuSans-77"/>
      <path d="M 30.609375 48.390625 
Q 23.390625 48.390625 19.1875 42.75 
Q 14.984375 37.109375 14.984375 27.296875 
Q 14.984375 17.484375 19.15625 11.84375 
Q 23.34375 6.203125 30.609375 6.203125 
Q 37.796875 6.203125 41.984375 11.859375 
Q 46.1875 17.53125 46.1875 27.296875 
Q 46.1875 37.015625 41.984375 42.703125 
Q 37.796875 48.390625 30.609375 48.390625 
z
M 30.609375 56 
Q 42.328125 56 49.015625 48.375 
Q 55.71875 40.765625 55.71875 27.296875 
Q 55.71875 13.875 49.015625 6.21875 
Q 42.328125 -1.421875 30.609375 -1.421875 
Q 18.84375 -1.421875 12.171875 6.21875 
Q 5.515625 13.875 5.515625 27.296875 
Q 5.515625 40.765625 12.171875 48.375 
Q 18.84375 56 30.609375 56 
z
" id="DejaVuSans-111"/>
      <path d="M 2.984375 54.6875 
L 12.5 54.6875 
L 29.59375 8.796875 
L 46.6875 54.6875 
L 56.203125 54.6875 
L 35.6875 0 
L 23.484375 0 
z
" id="DejaVuSans-118"/>
      <path d="M 54.890625 33.015625 
L 54.890625 0 
L 45.90625 0 
L 45.90625 32.71875 
Q 45.90625 40.484375 42.875 44.328125 
Q 39.84375 48.1875 33.796875 48.1875 
Q 26.515625 48.1875 22.3125 43.546875 
Q 18.109375 38.921875 18.109375 30.90625 
L 18.109375 0 
L 9.078125 0 
L 9.078125 54.6875 
L 18.109375 54.6875 
L 18.109375 46.1875 
Q 21.34375 51.125 25.703125 53.5625 
Q 30.078125 56 35.796875 56 
Q 45.21875 56 50.046875 50.171875 
Q 54.890625 44.34375 54.890625 33.015625 
z
" id="DejaVuSans-110"/>
      <path d="M 45.40625 27.984375 
Q 45.40625 37.75 41.375 43.109375 
Q 37.359375 48.484375 30.078125 48.484375 
Q 22.859375 48.484375 18.828125 43.109375 
Q 14.796875 37.75 14.796875 27.984375 
Q 14.796875 18.265625 18.828125 12.890625 
Q 22.859375 7.515625 30.078125 7.515625 
Q 37.359375 7.515625 41.375 12.890625 
Q 45.40625 18.265625 45.40625 27.984375 
z
M 54.390625 6.78125 
Q 54.390625 -7.171875 48.1875 -13.984375 
Q 42 -20.796875 29.203125 -20.796875 
Q 24.46875 -20.796875 20.265625 -20.09375 
Q 16.0625 -19.390625 12.109375 -17.921875 
L 12.109375 -9.1875 
Q 16.0625 -11.328125 19.921875 -12.34375 
Q 23.78125 -13.375 27.78125 -13.375 
Q 36.625 -13.375 41.015625 -8.765625 
Q 45.40625 -4.15625 45.40625 5.171875 
L 45.40625 9.625 
Q 42.625 4.78125 38.28125 2.390625 
Q 33.9375 0 27.875 0 
Q 17.828125 0 11.671875 7.65625 
Q 5.515625 15.328125 5.515625 27.984375 
Q 5.515625 40.671875 11.671875 48.328125 
Q 17.828125 56 27.875 56 
Q 33.9375 56 38.28125 53.609375 
Q 42.625 51.21875 45.40625 46.390625 
L 45.40625 54.6875 
L 54.390625 54.6875 
z
" id="DejaVuSans-103"/>
     </defs>
     <g transform="translate(47.9215 189.201375)rotate(-90)scale(0.144 -0.144)">
      <use xlink:href="#DejaVuSans-65"/>
      <use x="68.392578" xlink:href="#DejaVuSans-99"/>
      <use x="123.373047" xlink:href="#DejaVuSans-116"/>
      <use x="162.582031" xlink:href="#DejaVuSans-46"/>
      <use x="194.369141" xlink:href="#DejaVuSans-32"/>
      <use x="226.15625" xlink:href="#DejaVuSans-67"/>
      <use x="295.980469" xlink:href="#DejaVuSans-101"/>
      <use x="357.503906" xlink:href="#DejaVuSans-108"/>
      <use x="385.287109" xlink:href="#DejaVuSans-108"/>
      <use x="413.070312" xlink:href="#DejaVuSans-115"/>
      <use x="465.169922" xlink:href="#DejaVuSans-32"/>
      <use x="496.957031" xlink:href="#DejaVuSans-77"/>
      <use x="583.236328" xlink:href="#DejaVuSans-111"/>
      <use x="644.417969" xlink:href="#DejaVuSans-118"/>
      <use x="703.597656" xlink:href="#DejaVuSans-105"/>
      <use x="731.380859" xlink:href="#DejaVuSans-110"/>
      <use x="794.759766" xlink:href="#DejaVuSans-103"/>
      <use x="858.236328" xlink:href="#DejaVuSans-32"/>
      <use x="890.023438" xlink:href="#DejaVuSans-65"/>
      <use x="958.353516" xlink:href="#DejaVuSans-118"/>
      <use x="1017.533203" xlink:href="#DejaVuSans-103"/>
      <use x="1081.009766" xlink:href="#DejaVuSans-46"/>
     </g>
    </g>
   </g>
   <g id="line2d_11">
    <path clip-path="url(#p0fcb66a855)" d="M 81 62.500132 
L 82.895094 60.503705 
L 84.790189 62.500132 
L 86.685283 61.302276 
L 88.580377 64.696202 
L 90.475472 68.689056 
L 92.370566 66.093701 
L 94.26566 69.088341 
L 96.160755 67.690842 
L 98.055849 62.100847 
L 99.950943 61.501919 
L 101.846038 60.304063 
L 103.741132 57.509065 
L 105.636226 59.705134 
L 107.531321 58.507278 
L 109.426415 58.706921 
L 111.321509 61.501919 
L 113.216604 62.500132 
L 115.111698 65.095487 
L 117.006792 69.687269 
L 118.901887 72.482267 
L 120.796981 73.680123 
L 122.692075 76.475121 
L 124.58717 75.67655 
L 126.482264 76.874406 
L 128.377358 80.06869 
L 132.167547 80.06869 
L 134.062642 83.462615 
L 135.957736 85.2594 
L 139.747925 95.441177 
L 141.643019 95.441177 
L 143.538113 100.232602 
L 145.433208 105.622955 
L 147.328302 108.617595 
L 149.223396 110.015094 
L 151.118491 112.011521 
L 153.013585 115.405447 
L 154.908679 113.608663 
L 156.803774 112.810092 
L 158.698868 119.597944 
L 160.593962 120.7958 
L 162.489057 123.590798 
L 164.384151 126.186153 
L 166.279245 127.583652 
L 168.17434 132.974004 
L 170.069434 132.375076 
L 171.964528 134.371503 
L 173.859623 142.556854 
L 175.754717 145.751137 
L 177.649811 146.350065 
L 179.544906 148.546135 
L 181.44 149.145063 
L 183.335094 152.538989 
L 185.230189 152.339346 
L 187.125283 152.339346 
L 189.020377 156.931128 
L 190.915472 153.33756 
L 194.70566 150.143276 
L 196.600755 147.947207 
L 198.495849 148.14685 
L 200.390943 149.544348 
L 204.181132 149.943634 
L 206.076226 152.938274 
L 207.971321 153.537202 
L 209.866415 157.729699 
L 211.761509 158.128984 
L 213.656604 157.330414 
L 215.551698 159.127198 
L 217.446792 158.927555 
L 219.341887 157.929342 
L 221.236981 157.130771 
L 223.132075 152.339346 
L 225.02717 149.544348 
L 226.922264 146.549708 
L 228.817358 143.155782 
L 230.712453 141.358998 
L 232.607547 137.965072 
L 234.502642 136.36793 
L 236.397736 132.974004 
L 238.29283 132.774362 
L 240.187925 132.175434 
L 242.083019 132.375076 
L 243.978113 127.184366 
L 245.873208 127.184366 
L 247.768302 124.988297 
L 249.663396 122.592584 
L 251.558491 120.995443 
L 253.453585 123.391155 
L 255.348679 120.7958 
L 257.243774 118.999016 
L 259.138868 118.200445 
L 261.033962 118.999016 
L 262.929057 117.801159 
L 264.824151 117.801159 
L 266.719245 119.997229 
L 268.61434 120.596157 
L 270.509434 122.792227 
L 272.404528 125.98651 
L 274.299623 126.186153 
L 276.194717 125.587225 
L 278.089811 124.389368 
L 279.984906 122.99187 
L 281.88 120.396515 
L 283.775094 121.794013 
L 285.670189 118.59973 
L 287.565283 116.403661 
L 289.460377 118.200445 
L 291.355472 117.002589 
L 293.250566 116.403661 
L 295.14566 113.808306 
L 297.040755 109.216523 
L 298.935849 107.819025 
L 300.830943 107.819025 
L 302.726038 109.216523 
L 304.621132 108.817238 
L 306.516226 109.416166 
L 308.411321 111.811879 
L 310.306415 111.612236 
L 312.201509 114.007948 
L 314.096604 112.011521 
L 315.991698 111.811879 
L 317.886792 112.610449 
L 319.781887 117.202231 
L 321.676981 116.603303 
L 323.572075 119.198658 
L 325.46717 120.596157 
L 327.362264 121.794013 
L 329.257358 121.594371 
L 331.152453 124.988297 
L 333.047547 127.583652 
L 334.942642 130.578292 
L 336.837736 131.776148 
L 338.73283 133.173647 
L 340.627925 131.776148 
L 342.523019 132.175434 
L 344.418113 131.376863 
L 346.313208 130.378649 
L 348.208302 131.776148 
L 350.103396 132.574719 
L 353.893585 130.977578 
L 355.788679 131.376863 
L 357.683774 131.975791 
L 359.578868 129.779721 
L 361.473962 127.982937 
L 363.369057 127.583652 
L 365.264151 125.187939 
L 367.159245 124.589011 
L 369.05434 123.191512 
L 372.844528 125.98651 
L 374.739623 126.585438 
L 376.634717 128.581865 
L 378.529811 127.184366 
L 380.424906 131.17722 
L 382.32 131.576506 
L 384.215094 130.777935 
L 386.110189 129.779721 
L 388.005283 127.583652 
L 389.900377 127.783294 
L 391.795472 125.587225 
L 393.690566 122.792227 
L 395.58566 118.200445 
L 397.480755 119.597944 
L 399.375849 118.999016 
L 401.270943 118.000802 
L 403.166038 116.603303 
L 405.061132 114.806519 
L 406.956226 110.41438 
L 408.851321 106.820811 
L 410.746415 103.626528 
L 412.641509 102.827957 
L 414.536604 96.838676 
L 416.431698 96.040105 
L 418.326792 94.442964 
L 420.221887 92.446537 
L 422.116981 91.049038 
L 424.012075 89.451896 
L 425.90717 88.453683 
L 427.802264 91.448323 
L 429.697358 93.045465 
L 431.592453 94.043678 
L 433.487547 92.446537 
L 435.382642 94.043678 
L 437.277736 94.243321 
L 439.17283 94.642607 
L 441.067925 96.439391 
L 442.963019 96.239748 
L 444.858113 97.83689 
L 446.753208 98.435818 
L 448.648302 100.232602 
L 450.543396 102.827957 
L 452.438491 104.425099 
L 454.333585 103.626528 
L 456.228679 104.025813 
L 458.123774 103.826171 
L 460.018868 106.02224 
L 461.913962 105.822598 
L 463.809057 109.216523 
L 465.704151 111.21295 
L 467.599245 112.410807 
L 469.49434 114.007948 
L 471.389434 118.999016 
L 473.284528 120.196872 
L 475.179623 120.596157 
L 477.074717 122.99187 
L 478.969811 125.187939 
L 480.864906 127.783294 
L 482.76 131.975791 
L 484.655094 135.769002 
L 488.445283 140.959712 
L 490.340377 146.350065 
L 492.235472 147.148636 
L 494.130566 148.346492 
L 496.02566 151.341133 
L 497.920755 152.139703 
L 499.815849 153.736845 
L 501.710943 154.735059 
L 503.606038 154.735059 
L 505.501132 157.929342 
L 507.396226 157.330414 
L 509.291321 159.726126 
L 511.186415 159.127198 
L 513.081509 163.71898 
L 514.976604 165.116479 
L 516.871698 165.316122 
L 518.766792 162.920409 
L 520.661887 166.114692 
L 522.556981 167.312548 
L 524.452075 167.512191 
L 526.34717 165.715407 
L 528.242264 163.120052 
L 530.137358 164.317908 
L 532.032453 161.722553 
L 533.927547 161.323268 
L 535.822642 159.925769 
L 537.717736 157.929342 
L 539.61283 155.533629 
L 541.507925 154.335773 
L 543.403019 157.330414 
L 545.298113 154.13613 
L 547.193208 151.540775 
L 549.088302 148.546135 
L 550.983396 147.348279 
L 552.878491 142.756497 
L 554.773585 137.765429 
L 556.668679 132.375076 
L 558.563774 126.385795 
L 560.458868 118.999016 
L 564.249057 113.40902 
L 566.144151 110.41438 
L 568.039245 106.421526 
L 569.93434 103.626528 
L 571.829434 102.628314 
L 575.619623 94.642607 
L 577.514717 92.047251 
L 579.409811 86.257613 
L 583.2 83.06333 
L 583.2 83.06333 
" style="fill:none;stroke:#0000ff;stroke-linecap:square;stroke-width:1.5;"/>
   </g>
   <g id="patch_3">
    <path d="M 81 192.24 
L 81 25.92 
" style="fill:none;stroke:#000000;stroke-linecap:square;stroke-linejoin:miter;stroke-width:0.8;"/>
   </g>
   <g id="patch_4">
    <path d="M 583.2 192.24 
L 583.2 25.92 
" style="fill:none;stroke:#000000;stroke-linecap:square;stroke-linejoin:miter;stroke-width:0.8;"/>
   </g>
   <g id="patch_5">
    <path d="M 81 192.24 
L 583.2 192.24 
" style="fill:none;stroke:#000000;stroke-linecap:square;stroke-linejoin:miter;stroke-width:0.8;"/>
   </g>
   <g id="patch_6">
    <path d="M 81 25.92 
L 583.2 25.92 
" style="fill:none;stroke:#000000;stroke-linecap:square;stroke-linejoin:miter;stroke-width:0.8;"/>
   </g>
   <g id="text_13">
    <!-- Striatum, Num Trials=10 All unstimulated trials -->
    <defs>
     <path d="M 53.515625 70.515625 
L 53.515625 60.890625 
Q 47.90625 63.578125 42.921875 64.890625 
Q 37.9375 66.21875 33.296875 66.21875 
Q 25.25 66.21875 20.875 63.09375 
Q 16.5 59.96875 16.5 54.203125 
Q 16.5 49.359375 19.40625 46.890625 
Q 22.3125 44.4375 30.421875 42.921875 
L 36.375 41.703125 
Q 47.40625 39.59375 52.65625 34.296875 
Q 57.90625 29 57.90625 20.125 
Q 57.90625 9.515625 50.796875 4.046875 
Q 43.703125 -1.421875 29.984375 -1.421875 
Q 24.8125 -1.421875 18.96875 -0.25 
Q 13.140625 0.921875 6.890625 3.21875 
L 6.890625 13.375 
Q 12.890625 10.015625 18.65625 8.296875 
Q 24.421875 6.59375 29.984375 6.59375 
Q 38.421875 6.59375 43.015625 9.90625 
Q 47.609375 13.234375 47.609375 19.390625 
Q 47.609375 24.75 44.3125 27.78125 
Q 41.015625 30.8125 33.5 32.328125 
L 27.484375 33.5 
Q 16.453125 35.6875 11.515625 40.375 
Q 6.59375 45.0625 6.59375 53.421875 
Q 6.59375 63.09375 13.40625 68.65625 
Q 20.21875 74.21875 32.171875 74.21875 
Q 37.3125 74.21875 42.625 73.28125 
Q 47.953125 72.359375 53.515625 70.515625 
z
" id="DejaVuSans-83"/>
     <path d="M 41.109375 46.296875 
Q 39.59375 47.171875 37.8125 47.578125 
Q 36.03125 48 33.890625 48 
Q 26.265625 48 22.1875 43.046875 
Q 18.109375 38.09375 18.109375 28.8125 
L 18.109375 0 
L 9.078125 0 
L 9.078125 54.6875 
L 18.109375 54.6875 
L 18.109375 46.1875 
Q 20.953125 51.171875 25.484375 53.578125 
Q 30.03125 56 36.53125 56 
Q 37.453125 56 38.578125 55.875 
Q 39.703125 55.765625 41.0625 55.515625 
z
" id="DejaVuSans-114"/>
     <path d="M 34.28125 27.484375 
Q 23.390625 27.484375 19.1875 25 
Q 14.984375 22.515625 14.984375 16.5 
Q 14.984375 11.71875 18.140625 8.90625 
Q 21.296875 6.109375 26.703125 6.109375 
Q 34.1875 6.109375 38.703125 11.40625 
Q 43.21875 16.703125 43.21875 25.484375 
L 43.21875 27.484375 
z
M 52.203125 31.203125 
L 52.203125 0 
L 43.21875 0 
L 43.21875 8.296875 
Q 40.140625 3.328125 35.546875 0.953125 
Q 30.953125 -1.421875 24.3125 -1.421875 
Q 15.921875 -1.421875 10.953125 3.296875 
Q 6 8.015625 6 15.921875 
Q 6 25.140625 12.171875 29.828125 
Q 18.359375 34.515625 30.609375 34.515625 
L 43.21875 34.515625 
L 43.21875 35.40625 
Q 43.21875 41.609375 39.140625 45 
Q 35.0625 48.390625 27.6875 48.390625 
Q 23 48.390625 18.546875 47.265625 
Q 14.109375 46.140625 10.015625 43.890625 
L 10.015625 52.203125 
Q 14.9375 54.109375 19.578125 55.046875 
Q 24.21875 56 28.609375 56 
Q 40.484375 56 46.34375 49.84375 
Q 52.203125 43.703125 52.203125 31.203125 
z
" id="DejaVuSans-97"/>
     <path d="M 8.5 21.578125 
L 8.5 54.6875 
L 17.484375 54.6875 
L 17.484375 21.921875 
Q 17.484375 14.15625 20.5 10.265625 
Q 23.53125 6.390625 29.59375 6.390625 
Q 36.859375 6.390625 41.078125 11.03125 
Q 45.3125 15.671875 45.3125 23.6875 
L 45.3125 54.6875 
L 54.296875 54.6875 
L 54.296875 0 
L 45.3125 0 
L 45.3125 8.40625 
Q 42.046875 3.421875 37.71875 1 
Q 33.40625 -1.421875 27.6875 -1.421875 
Q 18.265625 -1.421875 13.375 4.4375 
Q 8.5 10.296875 8.5 21.578125 
z
M 31.109375 56 
z
" id="DejaVuSans-117"/>
     <path d="M 11.71875 12.40625 
L 22.015625 12.40625 
L 22.015625 4 
L 14.015625 -11.625 
L 7.71875 -11.625 
L 11.71875 4 
z
" id="DejaVuSans-44"/>
     <path d="M 9.8125 72.90625 
L 23.09375 72.90625 
L 55.421875 11.921875 
L 55.421875 72.90625 
L 64.984375 72.90625 
L 64.984375 0 
L 51.703125 0 
L 19.390625 60.984375 
L 19.390625 0 
L 9.8125 0 
z
" id="DejaVuSans-78"/>
     <path d="M 10.59375 45.40625 
L 73.1875 45.40625 
L 73.1875 37.203125 
L 10.59375 37.203125 
z
M 10.59375 25.484375 
L 73.1875 25.484375 
L 73.1875 17.1875 
L 10.59375 17.1875 
z
" id="DejaVuSans-61"/>
     <path d="M 45.40625 46.390625 
L 45.40625 75.984375 
L 54.390625 75.984375 
L 54.390625 0 
L 45.40625 0 
L 45.40625 8.203125 
Q 42.578125 3.328125 38.25 0.953125 
Q 33.9375 -1.421875 27.875 -1.421875 
Q 17.96875 -1.421875 11.734375 6.484375 
Q 5.515625 14.40625 5.515625 27.296875 
Q 5.515625 40.1875 11.734375 48.09375 
Q 17.96875 56 27.875 56 
Q 33.9375 56 38.25 53.625 
Q 42.578125 51.265625 45.40625 46.390625 
z
M 14.796875 27.296875 
Q 14.796875 17.390625 18.875 11.75 
Q 22.953125 6.109375 30.078125 6.109375 
Q 37.203125 6.109375 41.296875 11.75 
Q 45.40625 17.390625 45.40625 27.296875 
Q 45.40625 37.203125 41.296875 42.84375 
Q 37.203125 48.484375 30.078125 48.484375 
Q 22.953125 48.484375 18.875 42.84375 
Q 14.796875 37.203125 14.796875 27.296875 
z
" id="DejaVuSans-100"/>
    </defs>
    <g transform="translate(189.64875 19.92)scale(0.12 -0.12)">
     <use xlink:href="#DejaVuSans-83"/>
     <use x="63.476562" xlink:href="#DejaVuSans-116"/>
     <use x="102.685547" xlink:href="#DejaVuSans-114"/>
     <use x="143.798828" xlink:href="#DejaVuSans-105"/>
     <use x="171.582031" xlink:href="#DejaVuSans-97"/>
     <use x="232.861328" xlink:href="#DejaVuSans-116"/>
     <use x="272.070312" xlink:href="#DejaVuSans-117"/>
     <use x="335.449219" xlink:href="#DejaVuSans-109"/>
     <use x="432.861328" xlink:href="#DejaVuSans-44"/>
     <use x="464.648438" xlink:href="#DejaVuSans-32"/>
     <use x="496.435547" xlink:href="#DejaVuSans-78"/>
     <use x="571.240234" xlink:href="#DejaVuSans-117"/>
     <use x="634.619141" xlink:href="#DejaVuSans-109"/>
     <use x="732.03125" xlink:href="#DejaVuSans-32"/>
     <use x="763.818359" xlink:href="#DejaVuSans-84"/>
     <use x="824.683594" xlink:href="#DejaVuSans-114"/>
     <use x="865.796875" xlink:href="#DejaVuSans-105"/>
     <use x="893.580078" xlink:href="#DejaVuSans-97"/>
     <use x="954.859375" xlink:href="#DejaVuSans-108"/>
     <use x="982.642578" xlink:href="#DejaVuSans-115"/>
     <use x="1034.742188" xlink:href="#DejaVuSans-61"/>
     <use x="1118.53125" xlink:href="#DejaVuSans-49"/>
     <use x="1182.154297" xlink:href="#DejaVuSans-48"/>
     <use x="1245.777344" xlink:href="#DejaVuSans-32"/>
     <use x="1277.564453" xlink:href="#DejaVuSans-65"/>
     <use x="1345.972656" xlink:href="#DejaVuSans-108"/>
     <use x="1373.755859" xlink:href="#DejaVuSans-108"/>
     <use x="1401.539062" xlink:href="#DejaVuSans-32"/>
     <use x="1433.326172" xlink:href="#DejaVuSans-117"/>
     <use x="1496.705078" xlink:href="#DejaVuSans-110"/>
     <use x="1560.083984" xlink:href="#DejaVuSans-115"/>
     <use x="1612.183594" xlink:href="#DejaVuSans-116"/>
     <use x="1651.392578" xlink:href="#DejaVuSans-105"/>
     <use x="1679.175781" xlink:href="#DejaVuSans-109"/>
     <use x="1776.587891" xlink:href="#DejaVuSans-117"/>
     <use x="1839.966797" xlink:href="#DejaVuSans-108"/>
     <use x="1867.75" xlink:href="#DejaVuSans-97"/>
     <use x="1929.029297" xlink:href="#DejaVuSans-116"/>
     <use x="1968.238281" xlink:href="#DejaVuSans-101"/>
     <use x="2029.761719" xlink:href="#DejaVuSans-100"/>
     <use x="2093.238281" xlink:href="#DejaVuSans-32"/>
     <use x="2125.025391" xlink:href="#DejaVuSans-116"/>
     <use x="2164.234375" xlink:href="#DejaVuSans-114"/>
     <use x="2205.347656" xlink:href="#DejaVuSans-105"/>
     <use x="2233.130859" xlink:href="#DejaVuSans-97"/>
     <use x="2294.410156" xlink:href="#DejaVuSans-108"/>
     <use x="2322.193359" xlink:href="#DejaVuSans-115"/>
    </g>
   </g>
   <g id="legend_1">
    <g id="patch_7">
     <path d="M 462.496875 70.7475 
L 574.8 70.7475 
Q 577.2 70.7475 577.2 68.3475 
L 577.2 34.32 
Q 577.2 31.92 574.8 31.92 
L 462.496875 31.92 
Q 460.096875 31.92 460.096875 34.32 
L 460.096875 68.3475 
Q 460.096875 70.7475 462.496875 70.7475 
z
" style="fill:#ffffff;opacity:0.8;stroke:#cccccc;stroke-linejoin:miter;"/>
    </g>
    <g id="line2d_12">
     <path d="M 464.896875 41.638125 
L 488.896875 41.638125 
" style="fill:none;stroke:#0000ff;stroke-linecap:square;stroke-width:1.5;"/>
    </g>
    <g id="line2d_13"/>
    <g id="text_14">
     <!-- Moving Avg. -->
     <g transform="translate(498.496875 45.838125)scale(0.12 -0.12)">
      <use xlink:href="#DejaVuSans-77"/>
      <use x="86.279297" xlink:href="#DejaVuSans-111"/>
      <use x="147.460938" xlink:href="#DejaVuSans-118"/>
      <use x="206.640625" xlink:href="#DejaVuSans-105"/>
      <use x="234.423828" xlink:href="#DejaVuSans-110"/>
      <use x="297.802734" xlink:href="#DejaVuSans-103"/>
      <use x="361.279297" xlink:href="#DejaVuSans-32"/>
      <use x="393.066406" xlink:href="#DejaVuSans-65"/>
      <use x="461.396484" xlink:href="#DejaVuSans-118"/>
      <use x="520.576172" xlink:href="#DejaVuSans-103"/>
      <use x="584.052734" xlink:href="#DejaVuSans-46"/>
     </g>
    </g>
    <g id="patch_8">
     <path d="M 464.896875 63.451875 
L 488.896875 63.451875 
L 488.896875 55.051875 
L 464.896875 55.051875 
z
" style="fill:#0000ff;opacity:0.3;stroke:#0000ff;stroke-linejoin:miter;"/>
    </g>
    <g id="text_15">
     <!-- Std. Err. -->
     <defs>
      <path d="M 9.8125 72.90625 
L 55.90625 72.90625 
L 55.90625 64.59375 
L 19.671875 64.59375 
L 19.671875 43.015625 
L 54.390625 43.015625 
L 54.390625 34.71875 
L 19.671875 34.71875 
L 19.671875 8.296875 
L 56.78125 8.296875 
L 56.78125 0 
L 9.8125 0 
z
" id="DejaVuSans-69"/>
     </defs>
     <g transform="translate(498.496875 63.451875)scale(0.12 -0.12)">
      <use xlink:href="#DejaVuSans-83"/>
      <use x="63.476562" xlink:href="#DejaVuSans-116"/>
      <use x="102.685547" xlink:href="#DejaVuSans-100"/>
      <use x="166.162109" xlink:href="#DejaVuSans-46"/>
      <use x="197.949219" xlink:href="#DejaVuSans-32"/>
      <use x="229.736328" xlink:href="#DejaVuSans-69"/>
      <use x="292.919922" xlink:href="#DejaVuSans-114"/>
      <use x="334.017578" xlink:href="#DejaVuSans-114"/>
      <use x="374.990234" xlink:href="#DejaVuSans-46"/>
     </g>
    </g>
   </g>
  </g>
 </g>
 <defs>
  <clipPath id="p0fcb66a855">
   <rect height="166.32" width="502.2" x="81" y="25.92"/>
  </clipPath>
 </defs>
</svg>
