<?xml version="1.0" encoding="utf-8" standalone="no"?>
<!DOCTYPE svg PUBLIC "-//W3C//DTD SVG 1.1//EN"
  "http://www.w3.org/Graphics/SVG/1.1/DTD/svg11.dtd">
<!-- Created with matplotlib (https://matplotlib.org/) -->
<svg height="216pt" version="1.1" viewBox="0 0 288 216" width="288pt" xmlns="http://www.w3.org/2000/svg" xmlns:xlink="http://www.w3.org/1999/xlink">
 <defs>
  <style type="text/css">
*{stroke-linecap:butt;stroke-linejoin:round;}
  </style>
 </defs>
 <g id="figure_1">
  <g id="patch_1">
   <path d="M 0 216 
L 288 216 
L 288 0 
L 0 0 
z
" style="fill:#ffffff;"/>
  </g>
  <g id="axes_1">
   <g id="patch_2">
    <path d="M 51.41 170.44 
L 277.2 170.44 
L 277.2 26.88 
L 51.41 26.88 
z
" style="fill:#ffffff;"/>
   </g>
   <g id="PolyCollection_1">
    <defs>
     <path d="M 51.41 -186.071347 
L 51.41 -137.469748 
L 52.17539 -133.257556 
L 52.94078 -131.217023 
L 53.706169 -126.540567 
L 54.471559 -120.221981 
L 55.236949 -115.398944 
L 56.002339 -113.414158 
L 56.767729 -114.641666 
L 57.533119 -111.898558 
L 58.298508 -110.214033 
L 59.063898 -106.705007 
L 59.829288 -109.714348 
L 60.594678 -115.633243 
L 61.360068 -112.849952 
L 62.125458 -109.410225 
L 62.890847 -109.399609 
L 63.656237 -114.185317 
L 64.421627 -114.46543 
L 65.187017 -110.394828 
L 65.952407 -111.495481 
L 66.717797 -115.641718 
L 67.483186 -111.758869 
L 68.248576 -111.876957 
L 69.013966 -112.455251 
L 69.779356 -121.296366 
L 70.544746 -122.576542 
L 71.310136 -120.362064 
L 72.075525 -123.433922 
L 72.840915 -118.148063 
L 73.606305 -112.720229 
L 74.371695 -103.632567 
L 75.137085 -100.184314 
L 75.902475 -102.688136 
L 76.667864 -98.910624 
L 77.433254 -99.031005 
L 78.198644 -94.982681 
L 78.964034 -96.52599 
L 79.729424 -102.14422 
L 80.494814 -103.177592 
L 81.260203 -103.086941 
L 82.025593 -110.406274 
L 82.790983 -122.83428 
L 83.556373 -130.403543 
L 84.321763 -134.827307 
L 85.087153 -136.667466 
L 85.852542 -138.132302 
L 86.617932 -117.666255 
L 87.383322 -104.640408 
L 88.148712 -83.79299 
L 88.914102 -71.224089 
L 89.679492 -67.736435 
L 90.444881 -61.783374 
L 91.210271 -62.310024 
L 91.975661 -63.982113 
L 92.741051 -65.925091 
L 93.506441 -69.464343 
L 94.271831 -73.17321 
L 95.03722 -76.646731 
L 95.80261 -86.65504 
L 96.568 -104.419031 
L 97.33339 -111.004023 
L 98.09878 -124.690561 
L 98.864169 -127.338364 
L 99.629559 -130.323948 
L 100.394949 -131.872757 
L 101.160339 -130.815437 
L 101.925729 -129.7677 
L 102.691119 -128.212363 
L 103.456508 -120.408095 
L 104.221898 -119.856959 
L 104.987288 -117.764431 
L 105.752678 -115.844635 
L 106.518068 -117.803378 
L 107.283458 -121.259075 
L 108.048847 -127.180586 
L 108.814237 -133.548492 
L 109.579627 -137.913039 
L 110.345017 -143.331768 
L 111.110407 -144.419869 
L 111.875797 -138.703166 
L 112.641186 -135.646565 
L 113.406576 -128.186682 
L 114.171966 -123.727856 
L 114.937356 -120.733583 
L 115.702746 -120.487193 
L 116.468136 -128.08765 
L 117.233525 -130.689225 
L 117.998915 -137.628396 
L 118.764305 -135.629282 
L 119.529695 -124.96737 
L 120.295085 -125.106971 
L 121.060475 -129.211897 
L 121.825864 -125.289099 
L 122.591254 -123.954914 
L 123.356644 -123.521795 
L 124.122034 -122.460587 
L 124.887424 -124.128753 
L 125.652814 -116.432896 
L 126.418203 -114.634326 
L 127.183593 -117.046515 
L 127.948983 -117.006597 
L 128.714373 -114.901835 
L 129.479763 -112.563039 
L 130.245153 -109.896352 
L 131.010542 -107.371617 
L 131.775932 -106.060585 
L 132.541322 -103.882904 
L 133.306712 -108.939805 
L 134.072102 -112.972137 
L 134.837492 -109.019738 
L 135.602881 -106.069931 
L 136.368271 -106.725135 
L 137.133661 -112.813748 
L 137.899051 -112.088429 
L 138.664441 -113.294789 
L 139.429831 -112.72022 
L 140.19522 -113.12744 
L 140.96061 -110.103094 
L 141.726 -111.834812 
L 142.49139 -110.262255 
L 143.25678 -108.209867 
L 144.022169 -109.468716 
L 144.787559 -108.847219 
L 145.552949 -112.328045 
L 146.318339 -110.173043 
L 147.083729 -113.68756 
L 147.849119 -113.511527 
L 148.614508 -112.254676 
L 149.379898 -109.317789 
L 150.145288 -107.65841 
L 150.910678 -104.823679 
L 151.676068 -101.97943 
L 152.441458 -101.069851 
L 153.206847 -100.93004 
L 153.972237 -107.145276 
L 154.737627 -103.310273 
L 155.503017 -100.809166 
L 156.268407 -102.775286 
L 157.033797 -105.290995 
L 157.799186 -109.192917 
L 158.564576 -108.345984 
L 159.329966 -106.577638 
L 160.095356 -103.743408 
L 160.860746 -105.772001 
L 161.626136 -107.201128 
L 162.391525 -110.187661 
L 163.156915 -109.527061 
L 163.922305 -112.660813 
L 164.687695 -111.722843 
L 165.453085 -105.814637 
L 166.218475 -106.755868 
L 166.983864 -105.098106 
L 167.749254 -106.517148 
L 168.514644 -108.36421 
L 169.280034 -108.313772 
L 170.045424 -106.556731 
L 170.810814 -101.417069 
L 171.576203 -97.913647 
L 172.341593 -98.823751 
L 173.106983 -101.315175 
L 173.872373 -106.512575 
L 174.637763 -102.028239 
L 175.403153 -101.256701 
L 176.168542 -99.884766 
L 176.933932 -100.905922 
L 177.699322 -100.875421 
L 178.464712 -99.62772 
L 179.230102 -102.73288 
L 179.995492 -103.33715 
L 180.760881 -105.928108 
L 181.526271 -103.200644 
L 182.291661 -108.91042 
L 183.057051 -111.049777 
L 183.822441 -118.420241 
L 184.587831 -118.979821 
L 185.35322 -118.423257 
L 186.11861 -121.788137 
L 186.884 -117.892367 
L 187.64939 -111.851682 
L 188.41478 -112.792026 
L 189.180169 -109.642556 
L 189.945559 -105.419504 
L 190.710949 -98.036246 
L 191.476339 -97.101818 
L 192.241729 -94.433197 
L 193.007119 -94.484669 
L 193.772508 -89.47387 
L 194.537898 -90.887728 
L 195.303288 -93.48201 
L 196.068678 -91.087432 
L 196.834068 -89.941058 
L 197.599458 -90.877882 
L 198.364847 -93.681113 
L 199.130237 -93.543508 
L 199.895627 -96.242544 
L 200.661017 -103.008706 
L 201.426407 -97.017602 
L 202.191797 -96.077784 
L 202.957186 -89.629125 
L 203.722576 -88.517361 
L 204.487966 -91.003393 
L 205.253356 -92.167449 
L 206.018746 -92.266984 
L 206.784136 -92.561758 
L 207.549525 -98.642748 
L 208.314915 -105.514722 
L 209.080305 -112.732641 
L 209.845695 -117.001599 
L 210.611085 -121.57643 
L 211.376475 -122.723591 
L 212.141864 -123.646321 
L 212.907254 -126.002589 
L 213.672644 -134.326194 
L 214.438034 -134.719784 
L 215.203424 -129.61672 
L 215.968814 -137.159753 
L 216.734203 -134.669086 
L 217.499593 -129.488695 
L 218.264983 -120.88017 
L 219.030373 -116.16919 
L 219.795763 -111.279515 
L 220.561153 -106.80686 
L 221.326542 -103.406477 
L 222.091932 -100.531449 
L 222.857322 -98.291466 
L 223.622712 -98.262619 
L 224.388102 -105.350346 
L 225.153492 -111.934589 
L 225.918881 -111.684193 
L 226.684271 -108.950887 
L 227.449661 -104.686199 
L 228.215051 -105.523127 
L 228.980441 -101.075677 
L 229.745831 -110.180277 
L 230.51122 -114.04986 
L 231.27661 -111.04737 
L 232.042 -113.071128 
L 232.80739 -113.533153 
L 233.57278 -116.389229 
L 234.338169 -112.898894 
L 235.103559 -112.724435 
L 235.868949 -111.607602 
L 236.634339 -113.954901 
L 237.399729 -111.362457 
L 238.165119 -112.764045 
L 238.930508 -113.92943 
L 239.695898 -110.344168 
L 240.461288 -111.808161 
L 241.226678 -110.569848 
L 241.992068 -108.347546 
L 242.757458 -107.254945 
L 243.522847 -107.967209 
L 244.288237 -110.017209 
L 245.053627 -113.09882 
L 245.819017 -113.998498 
L 246.584407 -113.35662 
L 247.349797 -113.402105 
L 248.115186 -119.142533 
L 248.880576 -120.767899 
L 249.645966 -122.024703 
L 250.411356 -120.507311 
L 251.176746 -119.283343 
L 251.942136 -118.564984 
L 252.707525 -115.443727 
L 253.472915 -111.996603 
L 254.238305 -111.082574 
L 255.003695 -106.942203 
L 255.769085 -110.063965 
L 256.534475 -111.338737 
L 257.299864 -113.116961 
L 258.065254 -109.51414 
L 258.830644 -109.925829 
L 259.596034 -107.747464 
L 260.361424 -109.711244 
L 261.126814 -106.85405 
L 261.892203 -114.354344 
L 262.657593 -116.764173 
L 263.422983 -111.714527 
L 264.188373 -109.985435 
L 264.953763 -109.222887 
L 265.719153 -111.453134 
L 266.484542 -119.815274 
L 267.249932 -119.707543 
L 268.015322 -129.878567 
L 268.780712 -135.854908 
L 269.546102 -132.423656 
L 270.311492 -134.360952 
L 271.076881 -135.972048 
L 271.842271 -130.700313 
L 272.607661 -122.294556 
L 273.373051 -119.987236 
L 274.138441 -124.564781 
L 274.903831 -120.561499 
L 275.66922 -120.578914 
L 276.43461 -124.702679 
L 277.2 -123.475894 
L 277.2 -173.006457 
L 277.2 -173.006457 
L 276.43461 -172.039656 
L 275.66922 -167.404876 
L 274.903831 -165.997987 
L 274.138441 -166.809829 
L 273.373051 -155.263052 
L 272.607661 -158.377217 
L 271.842271 -173.169036 
L 271.076881 -183.322683 
L 270.311492 -179.517128 
L 269.546102 -177.611844 
L 268.780712 -181.479778 
L 268.015322 -175.06702 
L 267.249932 -162.202152 
L 266.484542 -162.63052 
L 265.719153 -150.168778 
L 264.953763 -140.491613 
L 264.188373 -140.1317 
L 263.422983 -142.187627 
L 262.657593 -146.895511 
L 261.892203 -141.857593 
L 261.126814 -135.399592 
L 260.361424 -139.047307 
L 259.596034 -135.897766 
L 258.830644 -140.820962 
L 258.065254 -140.815704 
L 257.299864 -144.864051 
L 256.534475 -141.350603 
L 255.769085 -139.053579 
L 255.003695 -136.063947 
L 254.238305 -140.685852 
L 253.472915 -141.102399 
L 252.707525 -144.510784 
L 251.942136 -147.815678 
L 251.176746 -150.033468 
L 250.411356 -154.169247 
L 249.645966 -158.759669 
L 248.880576 -159.496507 
L 248.115186 -156.859571 
L 247.349797 -151.561509 
L 246.584407 -151.505549 
L 245.819017 -148.34299 
L 245.053627 -144.174411 
L 244.288237 -142.759516 
L 243.522847 -143.790466 
L 242.757458 -146.451232 
L 241.992068 -151.23056 
L 241.226678 -156.785235 
L 240.461288 -157.587601 
L 239.695898 -151.657281 
L 238.930508 -155.593704 
L 238.165119 -147.139341 
L 237.399729 -142.207869 
L 236.634339 -144.346329 
L 235.868949 -145.484258 
L 235.103559 -148.54458 
L 234.338169 -147.297483 
L 233.57278 -153.625845 
L 232.80739 -153.93495 
L 232.042 -151.580362 
L 231.27661 -147.962945 
L 230.51122 -150.967607 
L 229.745831 -144.108983 
L 228.980441 -130.673869 
L 228.215051 -136.292858 
L 227.449661 -135.230117 
L 226.684271 -140.510222 
L 225.918881 -142.744426 
L 225.153492 -143.256648 
L 224.388102 -135.623093 
L 223.622712 -127.742263 
L 222.857322 -127.629591 
L 222.091932 -129.128334 
L 221.326542 -133.148694 
L 220.561153 -136.730062 
L 219.795763 -141.540977 
L 219.030373 -147.225068 
L 218.264983 -151.856359 
L 217.499593 -161.685932 
L 216.734203 -167.330882 
L 215.968814 -169.258398 
L 215.203424 -160.736053 
L 214.438034 -166.49151 
L 213.672644 -166.532838 
L 212.907254 -158.2208 
L 212.141864 -157.162871 
L 211.376475 -158.805262 
L 210.611085 -157.788828 
L 209.845695 -153.07264 
L 209.080305 -147.597937 
L 208.314915 -134.879512 
L 207.549525 -127.038667 
L 206.784136 -119.349052 
L 206.018746 -120.755168 
L 205.253356 -119.630336 
L 204.487966 -117.893699 
L 203.722576 -115.727669 
L 202.957186 -115.802927 
L 202.191797 -122.489662 
L 201.426407 -123.403079 
L 200.661017 -129.269211 
L 199.895627 -121.497474 
L 199.130237 -119.227476 
L 198.364847 -120.017156 
L 197.599458 -116.009748 
L 196.834068 -115.285411 
L 196.068678 -117.156575 
L 195.303288 -119.753106 
L 194.537898 -117.089011 
L 193.772508 -115.295065 
L 193.007119 -121.071349 
L 192.241729 -123.03567 
L 191.476339 -127.399181 
L 190.710949 -129.023291 
L 189.945559 -137.509663 
L 189.180169 -142.133545 
L 188.41478 -145.356538 
L 187.64939 -146.33103 
L 186.884 -152.347006 
L 186.11861 -155.377347 
L 185.35322 -152.687647 
L 184.587831 -152.279986 
L 183.822441 -152.954665 
L 183.057051 -146.984144 
L 182.291661 -144.825519 
L 181.526271 -138.108572 
L 180.760881 -142.952628 
L 179.995492 -140.390843 
L 179.230102 -138.638113 
L 178.464712 -134.141268 
L 177.699322 -132.061521 
L 176.933932 -132.083748 
L 176.168542 -127.935177 
L 175.403153 -128.110264 
L 174.637763 -129.5312 
L 173.872373 -134.715149 
L 173.106983 -129.131958 
L 172.341593 -127.925587 
L 171.576203 -124.944155 
L 170.810814 -129.694562 
L 170.045424 -136.929001 
L 169.280034 -139.515667 
L 168.514644 -139.049222 
L 167.749254 -135.45746 
L 166.983864 -133.550946 
L 166.218475 -135.814124 
L 165.453085 -134.379437 
L 164.687695 -141.578875 
L 163.922305 -148.31093 
L 163.156915 -142.042553 
L 162.391525 -142.398327 
L 161.626136 -136.969922 
L 160.860746 -137.089854 
L 160.095356 -135.602978 
L 159.329966 -140.330356 
L 158.564576 -139.450487 
L 157.799186 -140.591438 
L 157.033797 -137.466651 
L 156.268407 -133.923652 
L 155.503017 -130.714892 
L 154.737627 -133.241783 
L 153.972237 -138.590169 
L 153.206847 -131.722351 
L 152.441458 -132.809709 
L 151.676068 -133.469187 
L 150.910678 -137.504911 
L 150.145288 -139.582194 
L 149.379898 -141.333307 
L 148.614508 -144.528481 
L 147.849119 -144.816193 
L 147.083729 -143.948001 
L 146.318339 -138.818188 
L 145.552949 -140.836735 
L 144.787559 -137.614322 
L 144.022169 -139.041411 
L 143.25678 -137.662793 
L 142.49139 -139.534188 
L 141.726 -141.812241 
L 140.96061 -140.624399 
L 140.19522 -144.887131 
L 139.429831 -142.553171 
L 138.664441 -142.222154 
L 137.899051 -142.219933 
L 137.133661 -143.369233 
L 136.368271 -135.68763 
L 135.602881 -134.714262 
L 134.837492 -139.203052 
L 134.072102 -144.82498 
L 133.306712 -138.826121 
L 132.541322 -134.103272 
L 131.775932 -136.343082 
L 131.010542 -137.787491 
L 130.245153 -139.292392 
L 129.479763 -142.256092 
L 128.714373 -145.813339 
L 127.948983 -148.812756 
L 127.183593 -148.399546 
L 126.418203 -144.968286 
L 125.652814 -146.903237 
L 124.887424 -156.947848 
L 124.122034 -157.41522 
L 123.356644 -160.692533 
L 122.591254 -161.987868 
L 121.825864 -165.82092 
L 121.060475 -170.328833 
L 120.295085 -168.264399 
L 119.529695 -173.148222 
L 118.764305 -189.12 
L 117.998915 -184.15502 
L 117.233525 -168.098765 
L 116.468136 -163.532827 
L 115.702746 -155.798916 
L 114.937356 -157.770891 
L 114.171966 -161.288586 
L 113.406576 -167.18505 
L 112.641186 -175.610167 
L 111.875797 -177.300187 
L 111.110407 -183.239957 
L 110.345017 -182.089029 
L 109.579627 -174.489958 
L 108.814237 -169.077298 
L 108.048847 -160.290605 
L 107.283458 -153.609315 
L 106.518068 -150.375005 
L 105.752678 -148.256757 
L 104.987288 -151.377872 
L 104.221898 -154.293794 
L 103.456508 -154.43802 
L 102.691119 -164.830384 
L 101.925729 -171.699666 
L 101.160339 -175.176533 
L 100.394949 -176.680032 
L 99.629559 -174.645687 
L 98.864169 -170.164386 
L 98.09878 -167.279601 
L 97.33339 -148.794146 
L 96.568 -137.621239 
L 95.80261 -115.006901 
L 95.03722 -102.169822 
L 94.271831 -98.518129 
L 93.506441 -94.559518 
L 92.741051 -90.141555 
L 91.975661 -87.271493 
L 91.210271 -84.723189 
L 90.444881 -84.372046 
L 89.679492 -93.785222 
L 88.914102 -102.250987 
L 88.148712 -115.139479 
L 87.383322 -139.148912 
L 86.617932 -157.274864 
L 85.852542 -185.076343 
L 85.087153 -184.00301 
L 84.321763 -179.353788 
L 83.556373 -172.59377 
L 82.790983 -160.616872 
L 82.025593 -143.146764 
L 81.260203 -134.967156 
L 80.494814 -129.763482 
L 79.729424 -133.630597 
L 78.964034 -131.596492 
L 78.198644 -128.75618 
L 77.433254 -134.428495 
L 76.667864 -136.482833 
L 75.902475 -142.048296 
L 75.137085 -135.597383 
L 74.371695 -140.658053 
L 73.606305 -153.843624 
L 72.840915 -162.04346 
L 72.075525 -166.605444 
L 71.310136 -163.137849 
L 70.544746 -165.426799 
L 69.779356 -163.015664 
L 69.013966 -152.571963 
L 68.248576 -153.04708 
L 67.483186 -150.907116 
L 66.717797 -151.09953 
L 65.952407 -147.152301 
L 65.187017 -154.288435 
L 64.421627 -158.692127 
L 63.656237 -158.336263 
L 62.890847 -151.19658 
L 62.125458 -152.742325 
L 61.360068 -156.47731 
L 60.594678 -159.720805 
L 59.829288 -147.07091 
L 59.063898 -140.422011 
L 58.298508 -143.755418 
L 57.533119 -145.379282 
L 56.767729 -149.543126 
L 56.002339 -148.272015 
L 55.236949 -151.747957 
L 54.471559 -159.677719 
L 53.706169 -170.033126 
L 52.94078 -173.070849 
L 52.17539 -179.878204 
L 51.41 -186.071347 
z
" id="mb02ba1919b" style="stroke:#0000ff;stroke-opacity:0.25;"/>
    </defs>
    <g clip-path="url(#pfe75e3e8c9)">
     <use style="fill:#0000ff;fill-opacity:0.25;stroke:#0000ff;stroke-opacity:0.25;" x="0" xlink:href="#mb02ba1919b" y="216"/>
    </g>
   </g>
   <g id="PolyCollection_2">
    <defs>
     <path d="M 88.110442 -45.56 
L 88.110442 -195.95619 
L 202.918917 -195.95619 
L 202.918917 -45.56 
L 202.918917 -45.56 
L 88.110442 -45.56 
z
" id="mff8146a4d2" style="stroke:#808080;stroke-opacity:0.3;"/>
    </defs>
    <g clip-path="url(#pfe75e3e8c9)">
     <use style="fill:#808080;fill-opacity:0.3;stroke:#808080;stroke-opacity:0.3;" x="0" xlink:href="#mff8146a4d2" y="216"/>
    </g>
   </g>
   <g id="matplotlib.axis_1">
    <g id="xtick_1">
     <g id="line2d_1">
      <defs>
       <path d="M 0 0 
L 0 3.5 
" id="m965bcef9b2" style="stroke:#000000;stroke-width:0.8;"/>
      </defs>
      <g>
       <use style="stroke:#000000;stroke-width:0.8;" x="88.110442" xlink:href="#m965bcef9b2" y="170.44"/>
      </g>
     </g>
     <g id="text_1">
      <!-- 0.0 -->
      <defs>
       <path d="M 31.78125 66.40625 
Q 24.171875 66.40625 20.328125 58.90625 
Q 16.5 51.421875 16.5 36.375 
Q 16.5 21.390625 20.328125 13.890625 
Q 24.171875 6.390625 31.78125 6.390625 
Q 39.453125 6.390625 43.28125 13.890625 
Q 47.125 21.390625 47.125 36.375 
Q 47.125 51.421875 43.28125 58.90625 
Q 39.453125 66.40625 31.78125 66.40625 
z
M 31.78125 74.21875 
Q 44.046875 74.21875 50.515625 64.515625 
Q 56.984375 54.828125 56.984375 36.375 
Q 56.984375 17.96875 50.515625 8.265625 
Q 44.046875 -1.421875 31.78125 -1.421875 
Q 19.53125 -1.421875 13.0625 8.265625 
Q 6.59375 17.96875 6.59375 36.375 
Q 6.59375 54.828125 13.0625 64.515625 
Q 19.53125 74.21875 31.78125 74.21875 
z
" id="DejaVuSans-48"/>
       <path d="M 10.6875 12.40625 
L 21 12.40625 
L 21 0 
L 10.6875 0 
z
" id="DejaVuSans-46"/>
      </defs>
      <g transform="translate(80.15888 185.038437)scale(0.1 -0.1)">
       <use xlink:href="#DejaVuSans-48"/>
       <use x="63.623047" xlink:href="#DejaVuSans-46"/>
       <use x="95.410156" xlink:href="#DejaVuSans-48"/>
      </g>
     </g>
    </g>
    <g id="xtick_2">
     <g id="line2d_2">
      <g>
       <use style="stroke:#000000;stroke-width:0.8;" x="126.379934" xlink:href="#m965bcef9b2" y="170.44"/>
      </g>
     </g>
     <g id="text_2">
      <!-- 0.5 -->
      <defs>
       <path d="M 10.796875 72.90625 
L 49.515625 72.90625 
L 49.515625 64.59375 
L 19.828125 64.59375 
L 19.828125 46.734375 
Q 21.96875 47.46875 24.109375 47.828125 
Q 26.265625 48.1875 28.421875 48.1875 
Q 40.625 48.1875 47.75 41.5 
Q 54.890625 34.8125 54.890625 23.390625 
Q 54.890625 11.625 47.5625 5.09375 
Q 40.234375 -1.421875 26.90625 -1.421875 
Q 22.3125 -1.421875 17.546875 -0.640625 
Q 12.796875 0.140625 7.71875 1.703125 
L 7.71875 11.625 
Q 12.109375 9.234375 16.796875 8.0625 
Q 21.484375 6.890625 26.703125 6.890625 
Q 35.15625 6.890625 40.078125 11.328125 
Q 45.015625 15.765625 45.015625 23.390625 
Q 45.015625 31 40.078125 35.4375 
Q 35.15625 39.890625 26.703125 39.890625 
Q 22.75 39.890625 18.8125 39.015625 
Q 14.890625 38.140625 10.796875 36.28125 
z
" id="DejaVuSans-53"/>
      </defs>
      <g transform="translate(118.428371 185.038437)scale(0.1 -0.1)">
       <use xlink:href="#DejaVuSans-48"/>
       <use x="63.623047" xlink:href="#DejaVuSans-46"/>
       <use x="95.410156" xlink:href="#DejaVuSans-53"/>
      </g>
     </g>
    </g>
    <g id="xtick_3">
     <g id="line2d_3">
      <g>
       <use style="stroke:#000000;stroke-width:0.8;" x="164.649425" xlink:href="#m965bcef9b2" y="170.44"/>
      </g>
     </g>
     <g id="text_3">
      <!-- 1.0 -->
      <defs>
       <path d="M 12.40625 8.296875 
L 28.515625 8.296875 
L 28.515625 63.921875 
L 10.984375 60.40625 
L 10.984375 69.390625 
L 28.421875 72.90625 
L 38.28125 72.90625 
L 38.28125 8.296875 
L 54.390625 8.296875 
L 54.390625 0 
L 12.40625 0 
z
" id="DejaVuSans-49"/>
      </defs>
      <g transform="translate(156.697863 185.038437)scale(0.1 -0.1)">
       <use xlink:href="#DejaVuSans-49"/>
       <use x="63.623047" xlink:href="#DejaVuSans-46"/>
       <use x="95.410156" xlink:href="#DejaVuSans-48"/>
      </g>
     </g>
    </g>
    <g id="xtick_4">
     <g id="line2d_4">
      <g>
       <use style="stroke:#000000;stroke-width:0.8;" x="202.918917" xlink:href="#m965bcef9b2" y="170.44"/>
      </g>
     </g>
     <g id="text_4">
      <!-- 1.5 -->
      <g transform="translate(194.967354 185.038437)scale(0.1 -0.1)">
       <use xlink:href="#DejaVuSans-49"/>
       <use x="63.623047" xlink:href="#DejaVuSans-46"/>
       <use x="95.410156" xlink:href="#DejaVuSans-53"/>
      </g>
     </g>
    </g>
    <g id="xtick_5">
     <g id="line2d_5">
      <g>
       <use style="stroke:#000000;stroke-width:0.8;" x="241.188408" xlink:href="#m965bcef9b2" y="170.44"/>
      </g>
     </g>
     <g id="text_5">
      <!-- 2.0 -->
      <defs>
       <path d="M 19.1875 8.296875 
L 53.609375 8.296875 
L 53.609375 0 
L 7.328125 0 
L 7.328125 8.296875 
Q 12.9375 14.109375 22.625 23.890625 
Q 32.328125 33.6875 34.8125 36.53125 
Q 39.546875 41.84375 41.421875 45.53125 
Q 43.3125 49.21875 43.3125 52.78125 
Q 43.3125 58.59375 39.234375 62.25 
Q 35.15625 65.921875 28.609375 65.921875 
Q 23.96875 65.921875 18.8125 64.3125 
Q 13.671875 62.703125 7.8125 59.421875 
L 7.8125 69.390625 
Q 13.765625 71.78125 18.9375 73 
Q 24.125 74.21875 28.421875 74.21875 
Q 39.75 74.21875 46.484375 68.546875 
Q 53.21875 62.890625 53.21875 53.421875 
Q 53.21875 48.921875 51.53125 44.890625 
Q 49.859375 40.875 45.40625 35.40625 
Q 44.1875 33.984375 37.640625 27.21875 
Q 31.109375 20.453125 19.1875 8.296875 
z
" id="DejaVuSans-50"/>
      </defs>
      <g transform="translate(233.236846 185.038437)scale(0.1 -0.1)">
       <use xlink:href="#DejaVuSans-50"/>
       <use x="63.623047" xlink:href="#DejaVuSans-46"/>
       <use x="95.410156" xlink:href="#DejaVuSans-48"/>
      </g>
     </g>
    </g>
    <g id="text_6">
     <!-- Time (s) -->
     <defs>
      <path d="M -0.296875 72.90625 
L 61.375 72.90625 
L 61.375 64.59375 
L 35.5 64.59375 
L 35.5 0 
L 25.59375 0 
L 25.59375 64.59375 
L -0.296875 64.59375 
z
" id="DejaVuSans-84"/>
      <path d="M 9.421875 54.6875 
L 18.40625 54.6875 
L 18.40625 0 
L 9.421875 0 
z
M 9.421875 75.984375 
L 18.40625 75.984375 
L 18.40625 64.59375 
L 9.421875 64.59375 
z
" id="DejaVuSans-105"/>
      <path d="M 52 44.1875 
Q 55.375 50.25 60.0625 53.125 
Q 64.75 56 71.09375 56 
Q 79.640625 56 84.28125 50.015625 
Q 88.921875 44.046875 88.921875 33.015625 
L 88.921875 0 
L 79.890625 0 
L 79.890625 32.71875 
Q 79.890625 40.578125 77.09375 44.375 
Q 74.3125 48.1875 68.609375 48.1875 
Q 61.625 48.1875 57.5625 43.546875 
Q 53.515625 38.921875 53.515625 30.90625 
L 53.515625 0 
L 44.484375 0 
L 44.484375 32.71875 
Q 44.484375 40.625 41.703125 44.40625 
Q 38.921875 48.1875 33.109375 48.1875 
Q 26.21875 48.1875 22.15625 43.53125 
Q 18.109375 38.875 18.109375 30.90625 
L 18.109375 0 
L 9.078125 0 
L 9.078125 54.6875 
L 18.109375 54.6875 
L 18.109375 46.1875 
Q 21.1875 51.21875 25.484375 53.609375 
Q 29.78125 56 35.6875 56 
Q 41.65625 56 45.828125 52.96875 
Q 50 49.953125 52 44.1875 
z
" id="DejaVuSans-109"/>
      <path d="M 56.203125 29.59375 
L 56.203125 25.203125 
L 14.890625 25.203125 
Q 15.484375 15.921875 20.484375 11.0625 
Q 25.484375 6.203125 34.421875 6.203125 
Q 39.59375 6.203125 44.453125 7.46875 
Q 49.3125 8.734375 54.109375 11.28125 
L 54.109375 2.78125 
Q 49.265625 0.734375 44.1875 -0.34375 
Q 39.109375 -1.421875 33.890625 -1.421875 
Q 20.796875 -1.421875 13.15625 6.1875 
Q 5.515625 13.8125 5.515625 26.8125 
Q 5.515625 40.234375 12.765625 48.109375 
Q 20.015625 56 32.328125 56 
Q 43.359375 56 49.78125 48.890625 
Q 56.203125 41.796875 56.203125 29.59375 
z
M 47.21875 32.234375 
Q 47.125 39.59375 43.09375 43.984375 
Q 39.0625 48.390625 32.421875 48.390625 
Q 24.90625 48.390625 20.390625 44.140625 
Q 15.875 39.890625 15.1875 32.171875 
z
" id="DejaVuSans-101"/>
      <path id="DejaVuSans-32"/>
      <path d="M 31 75.875 
Q 24.46875 64.65625 21.28125 53.65625 
Q 18.109375 42.671875 18.109375 31.390625 
Q 18.109375 20.125 21.3125 9.0625 
Q 24.515625 -2 31 -13.1875 
L 23.1875 -13.1875 
Q 15.875 -1.703125 12.234375 9.375 
Q 8.59375 20.453125 8.59375 31.390625 
Q 8.59375 42.28125 12.203125 53.3125 
Q 15.828125 64.359375 23.1875 75.875 
z
" id="DejaVuSans-40"/>
      <path d="M 44.28125 53.078125 
L 44.28125 44.578125 
Q 40.484375 46.53125 36.375 47.5 
Q 32.28125 48.484375 27.875 48.484375 
Q 21.1875 48.484375 17.84375 46.4375 
Q 14.5 44.390625 14.5 40.28125 
Q 14.5 37.15625 16.890625 35.375 
Q 19.28125 33.59375 26.515625 31.984375 
L 29.59375 31.296875 
Q 39.15625 29.25 43.1875 25.515625 
Q 47.21875 21.78125 47.21875 15.09375 
Q 47.21875 7.46875 41.1875 3.015625 
Q 35.15625 -1.421875 24.609375 -1.421875 
Q 20.21875 -1.421875 15.453125 -0.5625 
Q 10.6875 0.296875 5.421875 2 
L 5.421875 11.28125 
Q 10.40625 8.6875 15.234375 7.390625 
Q 20.0625 6.109375 24.8125 6.109375 
Q 31.15625 6.109375 34.5625 8.28125 
Q 37.984375 10.453125 37.984375 14.40625 
Q 37.984375 18.0625 35.515625 20.015625 
Q 33.0625 21.96875 24.703125 23.78125 
L 21.578125 24.515625 
Q 13.234375 26.265625 9.515625 29.90625 
Q 5.8125 33.546875 5.8125 39.890625 
Q 5.8125 47.609375 11.28125 51.796875 
Q 16.75 56 26.8125 56 
Q 31.78125 56 36.171875 55.265625 
Q 40.578125 54.546875 44.28125 53.078125 
z
" id="DejaVuSans-115"/>
      <path d="M 8.015625 75.875 
L 15.828125 75.875 
Q 23.140625 64.359375 26.78125 53.3125 
Q 30.421875 42.28125 30.421875 31.390625 
Q 30.421875 20.453125 26.78125 9.375 
Q 23.140625 -1.703125 15.828125 -13.1875 
L 8.015625 -13.1875 
Q 14.5 -2 17.703125 9.0625 
Q 20.90625 20.125 20.90625 31.390625 
Q 20.90625 42.671875 17.703125 53.65625 
Q 14.5 64.65625 8.015625 75.875 
z
" id="DejaVuSans-41"/>
     </defs>
     <g transform="translate(134.80975 202.059875)scale(0.144 -0.144)">
      <use xlink:href="#DejaVuSans-84"/>
      <use x="61.037109" xlink:href="#DejaVuSans-105"/>
      <use x="88.820312" xlink:href="#DejaVuSans-109"/>
      <use x="186.232422" xlink:href="#DejaVuSans-101"/>
      <use x="247.755859" xlink:href="#DejaVuSans-32"/>
      <use x="279.542969" xlink:href="#DejaVuSans-40"/>
      <use x="318.556641" xlink:href="#DejaVuSans-115"/>
      <use x="370.65625" xlink:href="#DejaVuSans-41"/>
     </g>
    </g>
   </g>
   <g id="matplotlib.axis_2">
    <g id="ytick_1">
     <g id="line2d_6">
      <defs>
       <path d="M 0 0 
L -3.5 0 
" id="m5a6297612b" style="stroke:#000000;stroke-width:0.8;"/>
      </defs>
      <g>
       <use style="stroke:#000000;stroke-width:0.8;" x="51.41" xlink:href="#m5a6297612b" y="150.60721"/>
      </g>
     </g>
     <g id="text_7">
      <!-- 1.1 -->
      <g transform="translate(28.506875 154.406429)scale(0.1 -0.1)">
       <use xlink:href="#DejaVuSans-49"/>
       <use x="63.623047" xlink:href="#DejaVuSans-46"/>
       <use x="95.410156" xlink:href="#DejaVuSans-49"/>
      </g>
     </g>
    </g>
    <g id="ytick_2">
     <g id="line2d_7">
      <g>
       <use style="stroke:#000000;stroke-width:0.8;" x="51.41" xlink:href="#m5a6297612b" y="126.243135"/>
      </g>
     </g>
     <g id="text_8">
      <!-- 1.2 -->
      <g transform="translate(28.506875 130.042354)scale(0.1 -0.1)">
       <use xlink:href="#DejaVuSans-49"/>
       <use x="63.623047" xlink:href="#DejaVuSans-46"/>
       <use x="95.410156" xlink:href="#DejaVuSans-50"/>
      </g>
     </g>
    </g>
    <g id="ytick_3">
     <g id="line2d_8">
      <g>
       <use style="stroke:#000000;stroke-width:0.8;" x="51.41" xlink:href="#m5a6297612b" y="101.879061"/>
      </g>
     </g>
     <g id="text_9">
      <!-- 1.3 -->
      <defs>
       <path d="M 40.578125 39.3125 
Q 47.65625 37.796875 51.625 33 
Q 55.609375 28.21875 55.609375 21.1875 
Q 55.609375 10.40625 48.1875 4.484375 
Q 40.765625 -1.421875 27.09375 -1.421875 
Q 22.515625 -1.421875 17.65625 -0.515625 
Q 12.796875 0.390625 7.625 2.203125 
L 7.625 11.71875 
Q 11.71875 9.328125 16.59375 8.109375 
Q 21.484375 6.890625 26.8125 6.890625 
Q 36.078125 6.890625 40.9375 10.546875 
Q 45.796875 14.203125 45.796875 21.1875 
Q 45.796875 27.640625 41.28125 31.265625 
Q 36.765625 34.90625 28.71875 34.90625 
L 20.21875 34.90625 
L 20.21875 43.015625 
L 29.109375 43.015625 
Q 36.375 43.015625 40.234375 45.921875 
Q 44.09375 48.828125 44.09375 54.296875 
Q 44.09375 59.90625 40.109375 62.90625 
Q 36.140625 65.921875 28.71875 65.921875 
Q 24.65625 65.921875 20.015625 65.03125 
Q 15.375 64.15625 9.8125 62.3125 
L 9.8125 71.09375 
Q 15.4375 72.65625 20.34375 73.4375 
Q 25.25 74.21875 29.59375 74.21875 
Q 40.828125 74.21875 47.359375 69.109375 
Q 53.90625 64.015625 53.90625 55.328125 
Q 53.90625 49.265625 50.4375 45.09375 
Q 46.96875 40.921875 40.578125 39.3125 
z
" id="DejaVuSans-51"/>
      </defs>
      <g transform="translate(28.506875 105.67828)scale(0.1 -0.1)">
       <use xlink:href="#DejaVuSans-49"/>
       <use x="63.623047" xlink:href="#DejaVuSans-46"/>
       <use x="95.410156" xlink:href="#DejaVuSans-51"/>
      </g>
     </g>
    </g>
    <g id="ytick_4">
     <g id="line2d_9">
      <g>
       <use style="stroke:#000000;stroke-width:0.8;" x="51.41" xlink:href="#m5a6297612b" y="77.514987"/>
      </g>
     </g>
     <g id="text_10">
      <!-- 1.4 -->
      <defs>
       <path d="M 37.796875 64.3125 
L 12.890625 25.390625 
L 37.796875 25.390625 
z
M 35.203125 72.90625 
L 47.609375 72.90625 
L 47.609375 25.390625 
L 58.015625 25.390625 
L 58.015625 17.1875 
L 47.609375 17.1875 
L 47.609375 0 
L 37.796875 0 
L 37.796875 17.1875 
L 4.890625 17.1875 
L 4.890625 26.703125 
z
" id="DejaVuSans-52"/>
      </defs>
      <g transform="translate(28.506875 81.314205)scale(0.1 -0.1)">
       <use xlink:href="#DejaVuSans-49"/>
       <use x="63.623047" xlink:href="#DejaVuSans-46"/>
       <use x="95.410156" xlink:href="#DejaVuSans-52"/>
      </g>
     </g>
    </g>
    <g id="ytick_5">
     <g id="line2d_10">
      <g>
       <use style="stroke:#000000;stroke-width:0.8;" x="51.41" xlink:href="#m5a6297612b" y="53.150912"/>
      </g>
     </g>
     <g id="text_11">
      <!-- 1.5 -->
      <g transform="translate(28.506875 56.950131)scale(0.1 -0.1)">
       <use xlink:href="#DejaVuSans-49"/>
       <use x="63.623047" xlink:href="#DejaVuSans-46"/>
       <use x="95.410156" xlink:href="#DejaVuSans-53"/>
      </g>
     </g>
    </g>
    <g id="ytick_6">
     <g id="line2d_11">
      <g>
       <use style="stroke:#000000;stroke-width:0.8;" x="51.41" xlink:href="#m5a6297612b" y="28.786838"/>
      </g>
     </g>
     <g id="text_12">
      <!-- 1.6 -->
      <defs>
       <path d="M 33.015625 40.375 
Q 26.375 40.375 22.484375 35.828125 
Q 18.609375 31.296875 18.609375 23.390625 
Q 18.609375 15.53125 22.484375 10.953125 
Q 26.375 6.390625 33.015625 6.390625 
Q 39.65625 6.390625 43.53125 10.953125 
Q 47.40625 15.53125 47.40625 23.390625 
Q 47.40625 31.296875 43.53125 35.828125 
Q 39.65625 40.375 33.015625 40.375 
z
M 52.59375 71.296875 
L 52.59375 62.3125 
Q 48.875 64.0625 45.09375 64.984375 
Q 41.3125 65.921875 37.59375 65.921875 
Q 27.828125 65.921875 22.671875 59.328125 
Q 17.53125 52.734375 16.796875 39.40625 
Q 19.671875 43.65625 24.015625 45.921875 
Q 28.375 48.1875 33.59375 48.1875 
Q 44.578125 48.1875 50.953125 41.515625 
Q 57.328125 34.859375 57.328125 23.390625 
Q 57.328125 12.15625 50.6875 5.359375 
Q 44.046875 -1.421875 33.015625 -1.421875 
Q 20.359375 -1.421875 13.671875 8.265625 
Q 6.984375 17.96875 6.984375 36.375 
Q 6.984375 53.65625 15.1875 63.9375 
Q 23.390625 74.21875 37.203125 74.21875 
Q 40.921875 74.21875 44.703125 73.484375 
Q 48.484375 72.75 52.59375 71.296875 
z
" id="DejaVuSans-54"/>
      </defs>
      <g transform="translate(28.506875 32.586057)scale(0.1 -0.1)">
       <use xlink:href="#DejaVuSans-49"/>
       <use x="63.623047" xlink:href="#DejaVuSans-46"/>
       <use x="95.410156" xlink:href="#DejaVuSans-54"/>
      </g>
     </g>
    </g>
    <g id="text_13">
     <!-- Mean Fano Factor -->
     <defs>
      <path d="M 9.8125 72.90625 
L 24.515625 72.90625 
L 43.109375 23.296875 
L 61.8125 72.90625 
L 76.515625 72.90625 
L 76.515625 0 
L 66.890625 0 
L 66.890625 64.015625 
L 48.09375 14.015625 
L 38.1875 14.015625 
L 19.390625 64.015625 
L 19.390625 0 
L 9.8125 0 
z
" id="DejaVuSans-77"/>
      <path d="M 34.28125 27.484375 
Q 23.390625 27.484375 19.1875 25 
Q 14.984375 22.515625 14.984375 16.5 
Q 14.984375 11.71875 18.140625 8.90625 
Q 21.296875 6.109375 26.703125 6.109375 
Q 34.1875 6.109375 38.703125 11.40625 
Q 43.21875 16.703125 43.21875 25.484375 
L 43.21875 27.484375 
z
M 52.203125 31.203125 
L 52.203125 0 
L 43.21875 0 
L 43.21875 8.296875 
Q 40.140625 3.328125 35.546875 0.953125 
Q 30.953125 -1.421875 24.3125 -1.421875 
Q 15.921875 -1.421875 10.953125 3.296875 
Q 6 8.015625 6 15.921875 
Q 6 25.140625 12.171875 29.828125 
Q 18.359375 34.515625 30.609375 34.515625 
L 43.21875 34.515625 
L 43.21875 35.40625 
Q 43.21875 41.609375 39.140625 45 
Q 35.0625 48.390625 27.6875 48.390625 
Q 23 48.390625 18.546875 47.265625 
Q 14.109375 46.140625 10.015625 43.890625 
L 10.015625 52.203125 
Q 14.9375 54.109375 19.578125 55.046875 
Q 24.21875 56 28.609375 56 
Q 40.484375 56 46.34375 49.84375 
Q 52.203125 43.703125 52.203125 31.203125 
z
" id="DejaVuSans-97"/>
      <path d="M 54.890625 33.015625 
L 54.890625 0 
L 45.90625 0 
L 45.90625 32.71875 
Q 45.90625 40.484375 42.875 44.328125 
Q 39.84375 48.1875 33.796875 48.1875 
Q 26.515625 48.1875 22.3125 43.546875 
Q 18.109375 38.921875 18.109375 30.90625 
L 18.109375 0 
L 9.078125 0 
L 9.078125 54.6875 
L 18.109375 54.6875 
L 18.109375 46.1875 
Q 21.34375 51.125 25.703125 53.5625 
Q 30.078125 56 35.796875 56 
Q 45.21875 56 50.046875 50.171875 
Q 54.890625 44.34375 54.890625 33.015625 
z
" id="DejaVuSans-110"/>
      <path d="M 9.8125 72.90625 
L 51.703125 72.90625 
L 51.703125 64.59375 
L 19.671875 64.59375 
L 19.671875 43.109375 
L 48.578125 43.109375 
L 48.578125 34.8125 
L 19.671875 34.8125 
L 19.671875 0 
L 9.8125 0 
z
" id="DejaVuSans-70"/>
      <path d="M 30.609375 48.390625 
Q 23.390625 48.390625 19.1875 42.75 
Q 14.984375 37.109375 14.984375 27.296875 
Q 14.984375 17.484375 19.15625 11.84375 
Q 23.34375 6.203125 30.609375 6.203125 
Q 37.796875 6.203125 41.984375 11.859375 
Q 46.1875 17.53125 46.1875 27.296875 
Q 46.1875 37.015625 41.984375 42.703125 
Q 37.796875 48.390625 30.609375 48.390625 
z
M 30.609375 56 
Q 42.328125 56 49.015625 48.375 
Q 55.71875 40.765625 55.71875 27.296875 
Q 55.71875 13.875 49.015625 6.21875 
Q 42.328125 -1.421875 30.609375 -1.421875 
Q 18.84375 -1.421875 12.171875 6.21875 
Q 5.515625 13.875 5.515625 27.296875 
Q 5.515625 40.765625 12.171875 48.375 
Q 18.84375 56 30.609375 56 
z
" id="DejaVuSans-111"/>
      <path d="M 48.78125 52.59375 
L 48.78125 44.1875 
Q 44.96875 46.296875 41.140625 47.34375 
Q 37.3125 48.390625 33.40625 48.390625 
Q 24.65625 48.390625 19.8125 42.84375 
Q 14.984375 37.3125 14.984375 27.296875 
Q 14.984375 17.28125 19.8125 11.734375 
Q 24.65625 6.203125 33.40625 6.203125 
Q 37.3125 6.203125 41.140625 7.25 
Q 44.96875 8.296875 48.78125 10.40625 
L 48.78125 2.09375 
Q 45.015625 0.34375 40.984375 -0.53125 
Q 36.96875 -1.421875 32.421875 -1.421875 
Q 20.0625 -1.421875 12.78125 6.34375 
Q 5.515625 14.109375 5.515625 27.296875 
Q 5.515625 40.671875 12.859375 48.328125 
Q 20.21875 56 33.015625 56 
Q 37.15625 56 41.109375 55.140625 
Q 45.0625 54.296875 48.78125 52.59375 
z
" id="DejaVuSans-99"/>
      <path d="M 18.3125 70.21875 
L 18.3125 54.6875 
L 36.8125 54.6875 
L 36.8125 47.703125 
L 18.3125 47.703125 
L 18.3125 18.015625 
Q 18.3125 11.328125 20.140625 9.421875 
Q 21.96875 7.515625 27.59375 7.515625 
L 36.8125 7.515625 
L 36.8125 0 
L 27.59375 0 
Q 17.1875 0 13.234375 3.875 
Q 9.28125 7.765625 9.28125 18.015625 
L 9.28125 47.703125 
L 2.6875 47.703125 
L 2.6875 54.6875 
L 9.28125 54.6875 
L 9.28125 70.21875 
z
" id="DejaVuSans-116"/>
      <path d="M 41.109375 46.296875 
Q 39.59375 47.171875 37.8125 47.578125 
Q 36.03125 48 33.890625 48 
Q 26.265625 48 22.1875 43.046875 
Q 18.109375 38.09375 18.109375 28.8125 
L 18.109375 0 
L 9.078125 0 
L 9.078125 54.6875 
L 18.109375 54.6875 
L 18.109375 46.1875 
Q 20.953125 51.171875 25.484375 53.578125 
Q 30.03125 56 36.53125 56 
Q 37.453125 56 38.578125 55.875 
Q 39.703125 55.765625 41.0625 55.515625 
z
" id="DejaVuSans-114"/>
     </defs>
     <g transform="translate(21.512125 163.056125)rotate(-90)scale(0.144 -0.144)">
      <use xlink:href="#DejaVuSans-77"/>
      <use x="86.279297" xlink:href="#DejaVuSans-101"/>
      <use x="147.802734" xlink:href="#DejaVuSans-97"/>
      <use x="209.082031" xlink:href="#DejaVuSans-110"/>
      <use x="272.460938" xlink:href="#DejaVuSans-32"/>
      <use x="304.248047" xlink:href="#DejaVuSans-70"/>
      <use x="361.626953" xlink:href="#DejaVuSans-97"/>
      <use x="422.90625" xlink:href="#DejaVuSans-110"/>
      <use x="486.285156" xlink:href="#DejaVuSans-111"/>
      <use x="547.466797" xlink:href="#DejaVuSans-32"/>
      <use x="579.253906" xlink:href="#DejaVuSans-70"/>
      <use x="636.632812" xlink:href="#DejaVuSans-97"/>
      <use x="697.912109" xlink:href="#DejaVuSans-99"/>
      <use x="752.892578" xlink:href="#DejaVuSans-116"/>
      <use x="792.101562" xlink:href="#DejaVuSans-111"/>
      <use x="853.283203" xlink:href="#DejaVuSans-114"/>
     </g>
    </g>
   </g>
   <g id="line2d_12">
    <path clip-path="url(#pfe75e3e8c9)" d="M 51.41 54.229453 
L 52.17539 59.43212 
L 53.706169 67.713153 
L 54.471559 76.05015 
L 55.236949 82.42655 
L 56.002339 85.156914 
L 56.767729 83.907604 
L 57.533119 87.36108 
L 58.298508 89.015274 
L 59.063898 92.436491 
L 59.829288 87.607371 
L 60.594678 78.322976 
L 61.360068 81.336369 
L 62.125458 84.923725 
L 62.890847 85.701905 
L 63.656237 79.73921 
L 64.421627 79.421221 
L 65.187017 83.658369 
L 65.952407 86.676109 
L 66.717797 82.629376 
L 67.483186 84.667007 
L 68.248576 83.537982 
L 69.013966 83.486393 
L 69.779356 73.843985 
L 70.544746 71.998329 
L 71.310136 74.250043 
L 72.075525 70.980317 
L 72.840915 75.904238 
L 73.606305 82.718074 
L 74.371695 93.85469 
L 75.137085 98.109152 
L 75.902475 93.631784 
L 76.667864 98.303271 
L 77.433254 99.27025 
L 78.198644 104.13057 
L 78.964034 101.938759 
L 79.729424 98.112592 
L 80.494814 99.529463 
L 81.260203 96.972952 
L 82.025593 89.223481 
L 82.790983 74.274424 
L 83.556373 64.501344 
L 84.321763 58.909452 
L 85.087153 55.664762 
L 85.852542 54.395678 
L 86.617932 78.52944 
L 87.383322 94.10534 
L 88.148712 116.533766 
L 88.914102 129.262462 
L 89.679492 135.239171 
L 90.444881 142.92229 
L 91.210271 142.483393 
L 92.741051 137.966677 
L 95.03722 126.591724 
L 95.80261 115.169029 
L 96.568 94.979865 
L 97.33339 86.100916 
L 98.09878 70.014919 
L 98.864169 67.248625 
L 99.629559 63.515183 
L 100.394949 61.723605 
L 101.160339 63.004015 
L 101.925729 65.266317 
L 102.691119 69.478627 
L 103.456508 78.576943 
L 104.221898 78.924623 
L 105.752678 83.949304 
L 106.518068 81.910809 
L 107.283458 78.565805 
L 108.048847 72.264404 
L 108.814237 64.687105 
L 109.579627 59.798502 
L 110.345017 53.289602 
L 111.110407 52.170087 
L 111.875797 57.998324 
L 112.641186 60.371634 
L 113.406576 68.314134 
L 114.171966 73.491779 
L 114.937356 76.747763 
L 115.702746 77.856945 
L 116.468136 70.189762 
L 117.233525 66.606005 
L 117.998915 55.108292 
L 118.764305 53.625359 
L 119.529695 66.942204 
L 120.295085 69.314315 
L 121.060475 66.229635 
L 121.825864 70.444991 
L 122.591254 73.028609 
L 123.356644 73.892836 
L 124.122034 76.062097 
L 124.887424 75.4617 
L 125.652814 84.331933 
L 126.418203 86.198694 
L 127.183593 83.27697 
L 127.948983 83.090323 
L 128.714373 85.642413 
L 130.245153 91.405628 
L 131.010542 93.420446 
L 131.775932 94.798166 
L 132.541322 97.006912 
L 134.072102 87.101442 
L 134.837492 91.888605 
L 135.602881 95.607904 
L 136.368271 94.793617 
L 137.133661 87.90851 
L 137.899051 88.845819 
L 138.664441 88.241528 
L 139.429831 88.363305 
L 140.19522 86.992714 
L 140.96061 90.636254 
L 141.726 89.176474 
L 143.25678 93.06367 
L 144.022169 91.744937 
L 144.787559 92.769229 
L 145.552949 89.41761 
L 146.318339 91.504385 
L 147.083729 87.182219 
L 147.849119 86.83614 
L 148.614508 87.608422 
L 149.379898 90.674452 
L 150.145288 92.379698 
L 150.910678 94.835705 
L 151.676068 98.275692 
L 152.441458 99.06022 
L 153.206847 99.673804 
L 153.972237 93.132277 
L 154.737627 97.723972 
L 155.503017 100.237971 
L 156.268407 97.650531 
L 157.033797 94.621177 
L 157.799186 91.107822 
L 158.564576 92.101764 
L 159.329966 92.546003 
L 160.095356 96.326807 
L 160.860746 94.569073 
L 161.626136 93.914475 
L 162.391525 89.707006 
L 163.156915 90.215193 
L 163.922305 85.514128 
L 164.687695 89.349141 
L 165.453085 95.902963 
L 166.218475 94.715004 
L 166.983864 96.675474 
L 167.749254 95.012696 
L 168.514644 92.293284 
L 169.280034 92.085281 
L 170.045424 94.257134 
L 170.810814 100.444184 
L 171.576203 104.571099 
L 173.106983 100.776433 
L 173.872373 95.386138 
L 174.637763 100.22028 
L 175.403153 101.316518 
L 176.168542 102.090029 
L 176.933932 99.505165 
L 177.699322 99.531529 
L 178.464712 99.115506 
L 179.230102 95.314504 
L 179.995492 94.136003 
L 180.760881 91.559632 
L 181.526271 95.345392 
L 182.291661 89.132031 
L 183.057051 86.98304 
L 183.822441 80.312547 
L 185.35322 80.444548 
L 186.11861 77.417258 
L 186.884 80.880314 
L 187.64939 86.908644 
L 188.41478 86.925718 
L 189.180169 90.11195 
L 189.945559 94.535416 
L 190.710949 102.470231 
L 191.476339 103.749501 
L 192.241729 107.265567 
L 193.007119 108.221991 
L 193.772508 113.615532 
L 194.537898 112.011631 
L 195.303288 109.382442 
L 196.068678 111.877996 
L 196.834068 113.386765 
L 197.599458 112.556185 
L 198.364847 109.150866 
L 199.130237 109.614508 
L 199.895627 107.129991 
L 200.661017 99.861042 
L 201.426407 105.789659 
L 202.191797 106.716277 
L 202.957186 113.283974 
L 203.722576 113.877485 
L 204.487966 111.551454 
L 205.253356 110.101107 
L 206.018746 109.488924 
L 206.784136 110.044595 
L 208.314915 95.802883 
L 209.080305 85.834711 
L 210.611085 76.317371 
L 211.376475 75.235574 
L 212.141864 75.595404 
L 212.907254 73.888305 
L 213.672644 65.570484 
L 214.438034 65.394353 
L 215.203424 70.823613 
L 215.968814 62.790925 
L 216.734203 65.000016 
L 217.499593 70.412686 
L 218.264983 79.631735 
L 221.326542 97.722415 
L 222.091932 101.170108 
L 222.857322 103.039472 
L 223.622712 102.997559 
L 225.153492 88.404382 
L 225.918881 88.78569 
L 226.684271 91.269446 
L 227.449661 96.041842 
L 228.215051 95.092007 
L 228.980441 100.125227 
L 229.745831 88.85537 
L 230.51122 83.491267 
L 231.27661 86.494842 
L 232.042 83.674255 
L 233.57278 80.992463 
L 234.338169 85.901812 
L 235.103559 85.365493 
L 235.868949 87.45407 
L 236.634339 86.849385 
L 237.399729 89.214837 
L 238.165119 86.048307 
L 238.930508 81.238433 
L 239.695898 84.999275 
L 240.461288 81.302119 
L 241.226678 82.322459 
L 241.992068 86.210947 
L 242.757458 89.146911 
L 243.522847 90.121163 
L 244.288237 89.611638 
L 245.819017 84.829256 
L 246.584407 83.568915 
L 247.349797 83.518193 
L 248.115186 77.998948 
L 248.880576 75.867797 
L 249.645966 75.607814 
L 251.176746 81.341594 
L 251.942136 82.809669 
L 253.472915 89.450499 
L 254.238305 90.115787 
L 255.003695 94.496925 
L 255.769085 91.441228 
L 256.534475 89.65533 
L 257.299864 87.009494 
L 258.065254 90.835078 
L 258.830644 90.626604 
L 259.596034 94.177385 
L 260.361424 91.620725 
L 261.126814 94.873179 
L 261.892203 87.894032 
L 262.657593 84.170158 
L 263.422983 89.048923 
L 264.188373 90.941433 
L 264.953763 91.14275 
L 265.719153 85.189044 
L 266.484542 74.777103 
L 267.249932 75.045152 
L 268.015322 63.527207 
L 268.780712 57.332657 
L 269.546102 60.98225 
L 270.311492 59.06096 
L 271.076881 56.352634 
L 271.842271 64.065325 
L 272.607661 75.664114 
L 273.373051 78.374856 
L 274.138441 70.312695 
L 274.903831 72.720257 
L 275.66922 72.008105 
L 276.43461 67.628832 
L 277.2 67.758824 
L 277.2 67.758824 
" style="fill:none;stroke:#0000ff;stroke-linecap:square;stroke-width:1.5;"/>
   </g>
   <g id="line2d_13">
    <path clip-path="url(#pfe75e3e8c9)" d="M 84.321763 158.39956 
L 84.321763 163.60381 
L 92.741051 163.60381 
L 92.741051 158.39956 
" style="fill:none;stroke:#000000;stroke-linecap:square;stroke-width:1.5;"/>
   </g>
   <g id="patch_3">
    <path d="M 51.41 170.44 
L 51.41 26.88 
" style="fill:none;stroke:#000000;stroke-linecap:square;stroke-linejoin:miter;stroke-width:0.8;"/>
   </g>
   <g id="patch_4">
    <path d="M 277.2 170.44 
L 277.2 26.88 
" style="fill:none;stroke:#000000;stroke-linecap:square;stroke-linejoin:miter;stroke-width:0.8;"/>
   </g>
   <g id="patch_5">
    <path d="M 51.41 170.44 
L 277.2 170.44 
" style="fill:none;stroke:#000000;stroke-linecap:square;stroke-linejoin:miter;stroke-width:0.8;"/>
   </g>
   <g id="patch_6">
    <path d="M 51.41 26.88 
L 277.2 26.88 
" style="fill:none;stroke:#000000;stroke-linecap:square;stroke-linejoin:miter;stroke-width:0.8;"/>
   </g>
   <g id="text_14">
    <!-- *** -->
    <defs>
     <path d="M 47.015625 60.890625 
L 29.5 51.421875 
L 47.015625 41.890625 
L 44.1875 37.109375 
L 27.78125 47.015625 
L 27.78125 28.609375 
L 22.21875 28.609375 
L 22.21875 47.015625 
L 5.8125 37.109375 
L 2.984375 41.890625 
L 20.515625 51.421875 
L 2.984375 60.890625 
L 5.8125 65.71875 
L 22.21875 55.8125 
L 22.21875 74.21875 
L 27.78125 74.21875 
L 27.78125 55.8125 
L 44.1875 65.71875 
z
" id="DejaVuSans-42"/>
    </defs>
    <g transform="translate(81.031407 172.477288)scale(0.1 -0.1)">
     <use xlink:href="#DejaVuSans-42"/>
     <use x="50" xlink:href="#DejaVuSans-42"/>
     <use x="100" xlink:href="#DejaVuSans-42"/>
    </g>
   </g>
   <g id="text_15">
    <!-- V1, n = 76 cells -->
    <defs>
     <path d="M 28.609375 0 
L 0.78125 72.90625 
L 11.078125 72.90625 
L 34.1875 11.53125 
L 57.328125 72.90625 
L 67.578125 72.90625 
L 39.796875 0 
z
" id="DejaVuSans-86"/>
     <path d="M 11.71875 12.40625 
L 22.015625 12.40625 
L 22.015625 4 
L 14.015625 -11.625 
L 7.71875 -11.625 
L 11.71875 4 
z
" id="DejaVuSans-44"/>
     <path d="M 10.59375 45.40625 
L 73.1875 45.40625 
L 73.1875 37.203125 
L 10.59375 37.203125 
z
M 10.59375 25.484375 
L 73.1875 25.484375 
L 73.1875 17.1875 
L 10.59375 17.1875 
z
" id="DejaVuSans-61"/>
     <path d="M 8.203125 72.90625 
L 55.078125 72.90625 
L 55.078125 68.703125 
L 28.609375 0 
L 18.3125 0 
L 43.21875 64.59375 
L 8.203125 64.59375 
z
" id="DejaVuSans-55"/>
     <path d="M 9.421875 75.984375 
L 18.40625 75.984375 
L 18.40625 0 
L 9.421875 0 
z
" id="DejaVuSans-108"/>
    </defs>
    <g transform="translate(116.933125 20.88)scale(0.12 -0.12)">
     <use xlink:href="#DejaVuSans-86"/>
     <use x="68.408203" xlink:href="#DejaVuSans-49"/>
     <use x="132.03125" xlink:href="#DejaVuSans-44"/>
     <use x="163.818359" xlink:href="#DejaVuSans-32"/>
     <use x="195.605469" xlink:href="#DejaVuSans-110"/>
     <use x="258.984375" xlink:href="#DejaVuSans-32"/>
     <use x="290.771484" xlink:href="#DejaVuSans-61"/>
     <use x="374.560547" xlink:href="#DejaVuSans-32"/>
     <use x="406.347656" xlink:href="#DejaVuSans-55"/>
     <use x="469.970703" xlink:href="#DejaVuSans-54"/>
     <use x="533.59375" xlink:href="#DejaVuSans-32"/>
     <use x="565.380859" xlink:href="#DejaVuSans-99"/>
     <use x="620.361328" xlink:href="#DejaVuSans-101"/>
     <use x="681.884766" xlink:href="#DejaVuSans-108"/>
     <use x="709.667969" xlink:href="#DejaVuSans-108"/>
     <use x="737.451172" xlink:href="#DejaVuSans-115"/>
    </g>
   </g>
   <g id="legend_1">
    <g id="patch_7">
     <path d="M 181.588125 54.09375 
L 268.8 54.09375 
Q 271.2 54.09375 271.2 51.69375 
L 271.2 35.28 
Q 271.2 32.88 268.8 32.88 
L 181.588125 32.88 
Q 179.188125 32.88 179.188125 35.28 
L 179.188125 51.69375 
Q 179.188125 54.09375 181.588125 54.09375 
z
" style="fill:#ffffff;opacity:0.8;stroke:#cccccc;stroke-linejoin:miter;"/>
    </g>
    <g id="patch_8">
     <path d="M 183.988125 46.798125 
L 207.988125 46.798125 
L 207.988125 38.398125 
L 183.988125 38.398125 
z
" style="fill:#0000ff;opacity:0.25;stroke:#0000ff;stroke-linejoin:miter;"/>
    </g>
    <g id="text_16">
     <!-- Std. Err. -->
     <defs>
      <path d="M 53.515625 70.515625 
L 53.515625 60.890625 
Q 47.90625 63.578125 42.921875 64.890625 
Q 37.9375 66.21875 33.296875 66.21875 
Q 25.25 66.21875 20.875 63.09375 
Q 16.5 59.96875 16.5 54.203125 
Q 16.5 49.359375 19.40625 46.890625 
Q 22.3125 44.4375 30.421875 42.921875 
L 36.375 41.703125 
Q 47.40625 39.59375 52.65625 34.296875 
Q 57.90625 29 57.90625 20.125 
Q 57.90625 9.515625 50.796875 4.046875 
Q 43.703125 -1.421875 29.984375 -1.421875 
Q 24.8125 -1.421875 18.96875 -0.25 
Q 13.140625 0.921875 6.890625 3.21875 
L 6.890625 13.375 
Q 12.890625 10.015625 18.65625 8.296875 
Q 24.421875 6.59375 29.984375 6.59375 
Q 38.421875 6.59375 43.015625 9.90625 
Q 47.609375 13.234375 47.609375 19.390625 
Q 47.609375 24.75 44.3125 27.78125 
Q 41.015625 30.8125 33.5 32.328125 
L 27.484375 33.5 
Q 16.453125 35.6875 11.515625 40.375 
Q 6.59375 45.0625 6.59375 53.421875 
Q 6.59375 63.09375 13.40625 68.65625 
Q 20.21875 74.21875 32.171875 74.21875 
Q 37.3125 74.21875 42.625 73.28125 
Q 47.953125 72.359375 53.515625 70.515625 
z
" id="DejaVuSans-83"/>
      <path d="M 45.40625 46.390625 
L 45.40625 75.984375 
L 54.390625 75.984375 
L 54.390625 0 
L 45.40625 0 
L 45.40625 8.203125 
Q 42.578125 3.328125 38.25 0.953125 
Q 33.9375 -1.421875 27.875 -1.421875 
Q 17.96875 -1.421875 11.734375 6.484375 
Q 5.515625 14.40625 5.515625 27.296875 
Q 5.515625 40.1875 11.734375 48.09375 
Q 17.96875 56 27.875 56 
Q 33.9375 56 38.25 53.625 
Q 42.578125 51.265625 45.40625 46.390625 
z
M 14.796875 27.296875 
Q 14.796875 17.390625 18.875 11.75 
Q 22.953125 6.109375 30.078125 6.109375 
Q 37.203125 6.109375 41.296875 11.75 
Q 45.40625 17.390625 45.40625 27.296875 
Q 45.40625 37.203125 41.296875 42.84375 
Q 37.203125 48.484375 30.078125 48.484375 
Q 22.953125 48.484375 18.875 42.84375 
Q 14.796875 37.203125 14.796875 27.296875 
z
" id="DejaVuSans-100"/>
      <path d="M 9.8125 72.90625 
L 55.90625 72.90625 
L 55.90625 64.59375 
L 19.671875 64.59375 
L 19.671875 43.015625 
L 54.390625 43.015625 
L 54.390625 34.71875 
L 19.671875 34.71875 
L 19.671875 8.296875 
L 56.78125 8.296875 
L 56.78125 0 
L 9.8125 0 
z
" id="DejaVuSans-69"/>
     </defs>
     <g transform="translate(217.588125 46.798125)scale(0.12 -0.12)">
      <use xlink:href="#DejaVuSans-83"/>
      <use x="63.476562" xlink:href="#DejaVuSans-116"/>
      <use x="102.685547" xlink:href="#DejaVuSans-100"/>
      <use x="166.162109" xlink:href="#DejaVuSans-46"/>
      <use x="197.949219" xlink:href="#DejaVuSans-32"/>
      <use x="229.736328" xlink:href="#DejaVuSans-69"/>
      <use x="292.919922" xlink:href="#DejaVuSans-114"/>
      <use x="334.017578" xlink:href="#DejaVuSans-114"/>
      <use x="374.990234" xlink:href="#DejaVuSans-46"/>
     </g>
    </g>
   </g>
  </g>
 </g>
 <defs>
  <clipPath id="pfe75e3e8c9">
   <rect height="143.56" width="225.79" x="51.41" y="26.88"/>
  </clipPath>
 </defs>
</svg>
