<?xml version="1.0" encoding="utf-8" standalone="no"?>
<!DOCTYPE svg PUBLIC "-//W3C//DTD SVG 1.1//EN"
  "http://www.w3.org/Graphics/SVG/1.1/DTD/svg11.dtd">
<!-- Created with matplotlib (https://matplotlib.org/) -->
<svg height="216pt" version="1.1" viewBox="0 0 648 216" width="648pt" xmlns="http://www.w3.org/2000/svg" xmlns:xlink="http://www.w3.org/1999/xlink">
 <defs>
  <style type="text/css">
*{stroke-linecap:butt;stroke-linejoin:round;}
  </style>
 </defs>
 <g id="figure_1">
  <g id="patch_1">
   <path d="M 0 216 
L 648 216 
L 648 0 
L 0 0 
z
" style="fill:#ffffff;"/>
  </g>
  <g id="axes_1">
   <g id="patch_2">
    <path d="M 81 192.24 
L 583.2 192.24 
L 583.2 25.92 
L 81 25.92 
z
" style="fill:#ffffff;"/>
   </g>
   <g id="PolyCollection_1">
    <defs>
     <path d="M 162.62878 -23.76 
L 162.62878 -190.08 
L 417.984712 -190.08 
L 417.984712 -23.76 
L 417.984712 -23.76 
L 162.62878 -23.76 
z
" id="m0e1fe457e4" style="stroke:#808080;stroke-opacity:0.3;"/>
    </defs>
    <g clip-path="url(#p1f464391b8)">
     <use style="fill:#808080;fill-opacity:0.3;stroke:#808080;stroke-opacity:0.3;" x="0" xlink:href="#m0e1fe457e4" y="216"/>
    </g>
   </g>
   <g id="PolyCollection_2">
    <defs>
     <path d="M 81 -60.538127 
L 81 -31.032996 
L 82.702373 -32.479399 
L 84.404746 -35.015985 
L 86.107119 -34.74028 
L 87.809492 -37.136212 
L 89.511864 -36.568275 
L 91.214237 -36.537566 
L 92.91661 -34.18258 
L 94.618983 -36.242205 
L 96.321356 -36.163801 
L 98.023729 -32.524524 
L 99.726102 -30.685003 
L 101.428475 -27.242252 
L 103.130847 -26.900781 
L 104.83322 -25.326683 
L 106.535593 -25.000047 
L 108.237966 -25.27685 
L 109.940339 -27.266827 
L 111.642712 -27.00155 
L 113.345085 -27.800046 
L 115.047458 -29.395796 
L 116.749831 -31.346402 
L 118.452203 -35.519974 
L 120.154576 -35.91489 
L 121.856949 -37.164698 
L 123.559322 -36.198069 
L 125.261695 -35.270251 
L 126.964068 -36.160558 
L 128.666441 -35.169815 
L 130.368814 -34.163214 
L 132.071186 -34.758016 
L 133.773559 -32.745981 
L 135.475932 -33.069744 
L 137.178305 -31.788923 
L 138.880678 -29.96304 
L 140.583051 -29.008874 
L 142.285424 -30.878723 
L 143.987797 -28.239361 
L 145.690169 -26.704928 
L 147.392542 -26.606437 
L 149.094915 -23.76 
L 150.797288 -26.093194 
L 152.499661 -24.856217 
L 154.202034 -28.36995 
L 155.904407 -43.565878 
L 157.60678 -66.170778 
L 159.309153 -71.929819 
L 161.011525 -81.914291 
L 162.713898 -89.0669 
L 164.416271 -93.726448 
L 166.118644 -99.791591 
L 167.821017 -101.351865 
L 169.52339 -104.264881 
L 171.225763 -101.09696 
L 172.928136 -87.952308 
L 174.630508 -68.135365 
L 176.332881 -61.762231 
L 178.035254 -53.081472 
L 179.737627 -47.77427 
L 181.44 -43.822001 
L 183.142373 -41.81882 
L 184.844746 -39.811786 
L 186.547119 -39.436164 
L 188.249492 -44.761264 
L 189.951864 -48.304999 
L 191.654237 -50.269349 
L 193.35661 -50.897889 
L 195.058983 -55.784832 
L 196.761356 -60.54183 
L 198.463729 -66.601541 
L 200.166102 -73.61607 
L 201.868475 -84.497855 
L 203.570847 -92.054764 
L 205.27322 -95.383149 
L 206.975593 -99.519109 
L 208.677966 -100.38835 
L 210.380339 -102.760083 
L 212.082712 -104.098518 
L 213.785085 -103.097378 
L 215.487458 -100.011355 
L 217.189831 -97.218041 
L 218.892203 -93.627116 
L 220.594576 -90.460532 
L 222.296949 -88.993477 
L 223.999322 -85.5169 
L 225.701695 -86.429281 
L 227.404068 -85.74163 
L 229.106441 -83.423222 
L 230.808814 -83.816535 
L 232.511186 -86.887407 
L 234.213559 -86.71384 
L 235.915932 -83.056306 
L 237.618305 -82.942865 
L 239.320678 -82.709948 
L 241.023051 -83.372648 
L 242.725424 -83.151832 
L 244.427797 -83.337915 
L 246.130169 -84.497153 
L 247.832542 -83.505202 
L 249.534915 -80.845323 
L 251.237288 -80.699213 
L 252.939661 -80.988251 
L 254.642034 -79.310604 
L 256.344407 -76.275458 
L 258.04678 -76.307848 
L 259.749153 -78.573936 
L 261.451525 -82.189126 
L 263.153898 -83.677729 
L 264.856271 -86.723575 
L 266.558644 -89.94016 
L 268.261017 -91.613778 
L 269.96339 -94.390017 
L 271.665763 -97.123682 
L 273.368136 -98.928642 
L 275.070508 -100.875674 
L 276.772881 -101.397197 
L 278.475254 -101.542661 
L 280.177627 -102.389009 
L 281.88 -102.309531 
L 283.582373 -104.626795 
L 285.284746 -104.303015 
L 286.987119 -105.739599 
L 288.689492 -104.591636 
L 290.391864 -106.392633 
L 292.094237 -107.284386 
L 293.79661 -108.984288 
L 295.498983 -108.699714 
L 297.201356 -111.236186 
L 298.903729 -112.545189 
L 300.606102 -111.954767 
L 302.308475 -114.442977 
L 304.010847 -112.89818 
L 305.71322 -115.383914 
L 307.415593 -114.741191 
L 309.117966 -115.266263 
L 310.820339 -112.793286 
L 312.522712 -111.920468 
L 314.225085 -110.648563 
L 315.927458 -110.755374 
L 317.629831 -111.729415 
L 319.332203 -112.563778 
L 321.034576 -115.585952 
L 322.736949 -117.854897 
L 324.439322 -120.237247 
L 326.141695 -117.704501 
L 327.844068 -119.172105 
L 329.546441 -122.979421 
L 331.248814 -122.717455 
L 332.951186 -123.48279 
L 334.653559 -123.330154 
L 336.355932 -120.795428 
L 338.058305 -118.298398 
L 339.760678 -114.298566 
L 341.463051 -113.398687 
L 343.165424 -113.262475 
L 344.867797 -113.295688 
L 346.570169 -112.06699 
L 348.272542 -113.455914 
L 349.974915 -113.219553 
L 351.677288 -114.950106 
L 353.379661 -116.862575 
L 355.082034 -116.25137 
L 356.784407 -118.159674 
L 358.48678 -121.312408 
L 360.189153 -124.759447 
L 361.891525 -125.177695 
L 363.593898 -124.046487 
L 365.296271 -123.973409 
L 366.998644 -124.139651 
L 368.701017 -126.631726 
L 370.40339 -128.126761 
L 372.105763 -130.90865 
L 373.808136 -132.983438 
L 375.510508 -133.097757 
L 377.212881 -134.978085 
L 378.915254 -136.716205 
L 380.617627 -139.63418 
L 382.32 -141.775445 
L 384.022373 -144.74311 
L 385.724746 -141.329027 
L 387.427119 -142.138135 
L 389.129492 -144.307925 
L 390.831864 -144.216244 
L 392.534237 -145.919607 
L 394.23661 -148.628686 
L 395.938983 -149.405532 
L 397.641356 -151.45539 
L 399.343729 -151.316765 
L 401.046102 -153.806799 
L 402.748475 -156.903101 
L 404.450847 -158.174515 
L 406.15322 -155.590522 
L 407.855593 -153.149613 
L 409.557966 -146.148803 
L 411.260339 -139.034361 
L 412.962712 -131.628172 
L 414.665085 -122.847223 
L 416.367458 -111.982007 
L 418.069831 -100.463603 
L 419.772203 -91.239647 
L 421.474576 -81.472412 
L 423.176949 -74.602455 
L 424.879322 -68.758215 
L 426.581695 -66.006623 
L 428.284068 -62.778985 
L 429.986441 -61.357596 
L 431.688814 -58.980558 
L 433.391186 -60.057032 
L 435.093559 -57.678976 
L 436.795932 -58.361687 
L 438.498305 -58.050429 
L 440.200678 -56.112963 
L 441.903051 -56.164541 
L 443.605424 -57.577635 
L 445.307797 -58.994564 
L 447.010169 -60.341969 
L 448.712542 -63.283577 
L 450.414915 -66.82293 
L 452.117288 -71.888621 
L 453.819661 -72.532135 
L 455.522034 -76.441288 
L 457.224407 -80.753594 
L 458.92678 -82.633774 
L 460.629153 -83.366378 
L 462.331525 -82.618268 
L 464.033898 -83.553258 
L 465.736271 -83.130948 
L 467.438644 -80.276336 
L 469.141017 -79.334541 
L 470.84339 -78.237975 
L 472.545763 -73.571207 
L 474.248136 -69.829318 
L 475.950508 -66.108239 
L 477.652881 -61.387337 
L 479.355254 -60.467123 
L 481.057627 -58.127821 
L 482.76 -55.95171 
L 484.462373 -57.5817 
L 486.164746 -56.23461 
L 487.867119 -55.448435 
L 489.569492 -57.99855 
L 491.271864 -57.87138 
L 492.974237 -59.78001 
L 494.67661 -62.885492 
L 496.378983 -63.707383 
L 498.081356 -64.438288 
L 499.783729 -64.613917 
L 501.486102 -66.775459 
L 503.188475 -66.128289 
L 504.890847 -64.06107 
L 506.59322 -61.176607 
L 508.295593 -62.490619 
L 509.997966 -59.534647 
L 511.700339 -56.156628 
L 513.402712 -53.065273 
L 515.105085 -51.921391 
L 516.807458 -49.193169 
L 518.509831 -43.579937 
L 520.212203 -38.436328 
L 521.914576 -40.294329 
L 523.616949 -41.27518 
L 525.319322 -39.385289 
L 527.021695 -42.891846 
L 528.724068 -45.985081 
L 530.426441 -45.729824 
L 532.128814 -44.046318 
L 533.831186 -46.109506 
L 535.533559 -46.448127 
L 537.235932 -50.53884 
L 538.938305 -48.146824 
L 540.640678 -45.51957 
L 542.343051 -45.122416 
L 544.045424 -42.250791 
L 545.747797 -39.305761 
L 547.450169 -37.388526 
L 549.152542 -34.677581 
L 550.854915 -34.400517 
L 552.557288 -32.711712 
L 554.259661 -30.84223 
L 555.962034 -30.372649 
L 557.664407 -30.653305 
L 559.36678 -30.217763 
L 561.069153 -29.790413 
L 562.771525 -29.787473 
L 564.473898 -31.255538 
L 566.176271 -32.93303 
L 567.878644 -30.460699 
L 569.581017 -30.0586 
L 571.28339 -28.311131 
L 572.985763 -26.733865 
L 574.688136 -26.611613 
L 576.390508 -26.70703 
L 578.092881 -26.230295 
L 579.795254 -27.640897 
L 581.497627 -26.826984 
L 583.2 -27.734106 
L 583.2 -57.734588 
L 583.2 -57.734588 
L 581.497627 -56.830052 
L 579.795254 -57.700663 
L 578.092881 -56.441453 
L 576.390508 -57.077139 
L 574.688136 -56.854722 
L 572.985763 -57.304572 
L 571.28339 -59.096356 
L 569.581017 -60.717935 
L 567.878644 -60.919723 
L 566.176271 -63.532748 
L 564.473898 -62.254377 
L 562.771525 -60.989062 
L 561.069153 -60.954339 
L 559.36678 -61.321576 
L 557.664407 -61.966672 
L 555.962034 -61.579876 
L 554.259661 -61.650613 
L 552.557288 -63.849417 
L 550.854915 -65.847496 
L 549.152542 -66.206101 
L 547.450169 -69.1844 
L 545.747797 -71.176533 
L 544.045424 -74.238581 
L 542.343051 -77.4376 
L 540.640678 -77.421848 
L 538.938305 -80.420271 
L 537.235932 -83.717498 
L 535.533559 -79.957691 
L 533.831186 -79.565292 
L 532.128814 -77.719112 
L 530.426441 -79.468222 
L 528.724068 -80.071119 
L 527.021695 -76.934791 
L 525.319322 -73.099365 
L 523.616949 -75.786294 
L 521.914576 -74.796569 
L 520.212203 -72.745202 
L 518.509831 -77.390905 
L 516.807458 -82.965459 
L 515.105085 -85.354377 
L 513.402712 -86.62604 
L 511.700339 -89.732464 
L 509.997966 -93.187893 
L 508.295593 -96.207215 
L 506.59322 -94.279312 
L 504.890847 -96.798041 
L 503.188475 -98.449489 
L 501.486102 -99.613978 
L 499.783729 -97.611883 
L 498.081356 -97.787513 
L 496.378983 -97.469564 
L 494.67661 -96.892981 
L 492.974237 -93.991385 
L 491.271864 -91.895296 
L 489.569492 -92.181312 
L 487.867119 -89.74142 
L 486.164746 -90.480852 
L 484.462373 -91.358606 
L 482.76 -89.238145 
L 481.057627 -91.034969 
L 479.355254 -92.82752 
L 477.652881 -93.909665 
L 475.950508 -98.533106 
L 474.248136 -102.376496 
L 472.545763 -106.771179 
L 470.84339 -111.95729 
L 469.141017 -112.640599 
L 467.438644 -113.001926 
L 465.736271 -115.931907 
L 464.033898 -116.62202 
L 462.331525 -115.808918 
L 460.629153 -116.745332 
L 458.92678 -116.365514 
L 457.224407 -114.590594 
L 455.522034 -110.13066 
L 453.819661 -106.25286 
L 452.117288 -106.006436 
L 450.414915 -101.60065 
L 448.712542 -98.338338 
L 447.010169 -95.336435 
L 445.307797 -94.172945 
L 443.605424 -92.792928 
L 441.903051 -91.758694 
L 440.200678 -91.556004 
L 438.498305 -93.941091 
L 436.795932 -93.756967 
L 435.093559 -92.564453 
L 433.391186 -94.477166 
L 431.688814 -92.883829 
L 429.986441 -94.765777 
L 428.284068 -95.473881 
L 426.581695 -98.380454 
L 424.879322 -100.459951 
L 423.176949 -105.994198 
L 421.474576 -112.060118 
L 419.772203 -122.157558 
L 418.069831 -131.590506 
L 416.367458 -143.115126 
L 414.665085 -153.989811 
L 412.962712 -162.880477 
L 411.260339 -170.730359 
L 409.557966 -177.950267 
L 407.855593 -185.283807 
L 406.15322 -187.737553 
L 404.450847 -190.08 
L 402.748475 -188.395551 
L 401.046102 -185.135156 
L 399.343729 -182.094865 
L 397.641356 -182.401208 
L 395.938983 -180.573482 
L 394.23661 -179.72937 
L 392.534237 -176.78099 
L 390.831864 -174.829253 
L 389.129492 -174.896489 
L 387.427119 -172.743726 
L 385.724746 -171.836525 
L 384.022373 -175.096973 
L 382.32 -172.311828 
L 380.617627 -170.257674 
L 378.915254 -167.422838 
L 377.212881 -165.696559 
L 375.510508 -163.953571 
L 373.808136 -164.417508 
L 372.105763 -162.741845 
L 370.40339 -160.247676 
L 368.701017 -159.072898 
L 366.998644 -156.892802 
L 365.296271 -156.963694 
L 363.593898 -156.668131 
L 361.891525 -157.348582 
L 360.189153 -156.368356 
L 358.48678 -152.981947 
L 356.784407 -149.714418 
L 355.082034 -147.554436 
L 353.379661 -147.864952 
L 351.677288 -145.899837 
L 349.974915 -144.07064 
L 348.272542 -144.438165 
L 346.570169 -143.252627 
L 344.867797 -144.979793 
L 343.165424 -145.299057 
L 341.463051 -144.876794 
L 339.760678 -144.993986 
L 338.058305 -148.367922 
L 336.355932 -150.384146 
L 334.653559 -152.77586 
L 332.951186 -152.655007 
L 331.248814 -151.926519 
L 329.546441 -151.950604 
L 327.844068 -147.684916 
L 326.141695 -146.069522 
L 324.439322 -148.590349 
L 322.736949 -146.523012 
L 321.034576 -144.278703 
L 319.332203 -141.103098 
L 317.629831 -140.125803 
L 315.927458 -139.70137 
L 314.225085 -139.553913 
L 312.522712 -141.142522 
L 310.820339 -142.844166 
L 309.117966 -145.67903 
L 307.415593 -145.18703 
L 305.71322 -146.419533 
L 304.010847 -143.533859 
L 302.308475 -145.421678 
L 300.606102 -142.888098 
L 298.903729 -143.34653 
L 297.201356 -142.494256 
L 295.498983 -139.881805 
L 293.79661 -140.328251 
L 292.094237 -138.627321 
L 290.391864 -137.9299 
L 288.689492 -135.757961 
L 286.987119 -136.739491 
L 285.284746 -135.156644 
L 283.582373 -135.627452 
L 281.88 -133.685729 
L 280.177627 -133.034149 
L 278.475254 -131.782787 
L 276.772881 -131.610417 
L 275.070508 -131.210218 
L 273.368136 -128.993614 
L 271.665763 -127.143474 
L 269.96339 -124.728215 
L 268.261017 -121.942344 
L 266.558644 -120.532965 
L 264.856271 -117.233936 
L 263.153898 -114.59054 
L 261.451525 -112.900795 
L 259.749153 -109.523619 
L 258.04678 -107.371803 
L 256.344407 -107.56311 
L 254.642034 -110.662175 
L 252.939661 -112.607846 
L 251.237288 -112.356565 
L 249.534915 -111.829053 
L 247.832542 -114.635933 
L 246.130169 -115.964176 
L 244.427797 -115.057487 
L 242.725424 -114.576118 
L 241.023051 -114.418868 
L 239.320678 -113.905579 
L 237.618305 -114.340115 
L 235.915932 -114.290242 
L 234.213559 -118.292527 
L 232.511186 -118.691062 
L 230.808814 -115.468805 
L 229.106441 -114.717913 
L 227.404068 -117.357727 
L 225.701695 -118.036766 
L 223.999322 -116.946788 
L 222.296949 -119.699773 
L 220.594576 -120.584695 
L 218.892203 -123.488757 
L 217.189831 -126.890197 
L 215.487458 -129.563642 
L 213.785085 -132.643614 
L 212.082712 -133.263432 
L 210.380339 -131.359952 
L 208.677966 -128.264927 
L 206.975593 -127.354292 
L 205.27322 -123.925784 
L 203.570847 -121.247091 
L 201.868475 -114.120032 
L 200.166102 -103.261916 
L 198.463729 -97.245218 
L 196.761356 -91.545041 
L 195.058983 -87.37088 
L 193.35661 -82.436728 
L 191.654237 -82.493165 
L 189.951864 -80.834198 
L 188.249492 -77.449135 
L 186.547119 -71.904283 
L 184.844746 -72.164331 
L 183.142373 -74.416284 
L 181.44 -76.544955 
L 179.737627 -80.506773 
L 178.035254 -85.179585 
L 176.332881 -94.392925 
L 174.630508 -100.923885 
L 172.928136 -120.645591 
L 171.225763 -133.595177 
L 169.52339 -136.625035 
L 167.821017 -133.721674 
L 166.118644 -132.421435 
L 164.416271 -125.836753 
L 162.713898 -121.310874 
L 161.011525 -114.351618 
L 159.309153 -103.390776 
L 157.60678 -97.453496 
L 155.904407 -74.798719 
L 154.202034 -59.06932 
L 152.499661 -55.972089 
L 150.797288 -57.373141 
L 149.094915 -55.161297 
L 147.392542 -58.035887 
L 145.690169 -57.683128 
L 143.987797 -58.913858 
L 142.285424 -62.15444 
L 140.583051 -60.496323 
L 138.880678 -61.322031 
L 137.178305 -63.310166 
L 135.475932 -64.572024 
L 133.773559 -64.101199 
L 132.071186 -66.125667 
L 130.368814 -65.544479 
L 128.666441 -66.889856 
L 126.964068 -67.96504 
L 125.261695 -67.075472 
L 123.559322 -67.736828 
L 121.856949 -68.772558 
L 120.154576 -67.575038 
L 118.452203 -67.080016 
L 116.749831 -62.32243 
L 115.047458 -60.459019 
L 113.345085 -58.971771 
L 111.642712 -58.149309 
L 109.940339 -58.265434 
L 108.237966 -56.123559 
L 106.535593 -55.701125 
L 104.83322 -55.883025 
L 103.130847 -57.709759 
L 101.428475 -58.226442 
L 99.726102 -62.316377 
L 98.023729 -64.100172 
L 96.321356 -67.802879 
L 94.618983 -67.788042 
L 92.91661 -65.461546 
L 91.214237 -67.429114 
L 89.511864 -66.921653 
L 87.809492 -67.402571 
L 86.107119 -64.649579 
L 84.404746 -64.532791 
L 82.702373 -61.697969 
L 81 -60.538127 
z
" id="mc936119775" style="stroke:#0000ff;stroke-opacity:0.3;"/>
    </defs>
    <g clip-path="url(#p1f464391b8)">
     <use style="fill:#0000ff;fill-opacity:0.3;stroke:#0000ff;stroke-opacity:0.3;" x="0" xlink:href="#mc936119775" y="216"/>
    </g>
   </g>
   <g id="matplotlib.axis_1">
    <g id="xtick_1">
     <g id="line2d_1">
      <defs>
       <path d="M 0 0 
L 0 3.5 
" id="ma587842762" style="stroke:#000000;stroke-width:0.8;"/>
      </defs>
      <g>
       <use style="stroke:#000000;stroke-width:0.8;" x="162.62878" xlink:href="#ma587842762" y="192.24"/>
      </g>
     </g>
     <g id="text_1">
      <!-- 0.0 -->
      <defs>
       <path d="M 31.78125 66.40625 
Q 24.171875 66.40625 20.328125 58.90625 
Q 16.5 51.421875 16.5 36.375 
Q 16.5 21.390625 20.328125 13.890625 
Q 24.171875 6.390625 31.78125 6.390625 
Q 39.453125 6.390625 43.28125 13.890625 
Q 47.125 21.390625 47.125 36.375 
Q 47.125 51.421875 43.28125 58.90625 
Q 39.453125 66.40625 31.78125 66.40625 
z
M 31.78125 74.21875 
Q 44.046875 74.21875 50.515625 64.515625 
Q 56.984375 54.828125 56.984375 36.375 
Q 56.984375 17.96875 50.515625 8.265625 
Q 44.046875 -1.421875 31.78125 -1.421875 
Q 19.53125 -1.421875 13.0625 8.265625 
Q 6.59375 17.96875 6.59375 36.375 
Q 6.59375 54.828125 13.0625 64.515625 
Q 19.53125 74.21875 31.78125 74.21875 
z
" id="DejaVuSans-48"/>
       <path d="M 10.6875 12.40625 
L 21 12.40625 
L 21 0 
L 10.6875 0 
z
" id="DejaVuSans-46"/>
      </defs>
      <g transform="translate(153.086905 208.358125)scale(0.12 -0.12)">
       <use xlink:href="#DejaVuSans-48"/>
       <use x="63.623047" xlink:href="#DejaVuSans-46"/>
       <use x="95.410156" xlink:href="#DejaVuSans-48"/>
      </g>
     </g>
    </g>
    <g id="xtick_2">
     <g id="line2d_2">
      <g>
       <use style="stroke:#000000;stroke-width:0.8;" x="247.747424" xlink:href="#ma587842762" y="192.24"/>
      </g>
     </g>
     <g id="text_2">
      <!-- 0.5 -->
      <defs>
       <path d="M 10.796875 72.90625 
L 49.515625 72.90625 
L 49.515625 64.59375 
L 19.828125 64.59375 
L 19.828125 46.734375 
Q 21.96875 47.46875 24.109375 47.828125 
Q 26.265625 48.1875 28.421875 48.1875 
Q 40.625 48.1875 47.75 41.5 
Q 54.890625 34.8125 54.890625 23.390625 
Q 54.890625 11.625 47.5625 5.09375 
Q 40.234375 -1.421875 26.90625 -1.421875 
Q 22.3125 -1.421875 17.546875 -0.640625 
Q 12.796875 0.140625 7.71875 1.703125 
L 7.71875 11.625 
Q 12.109375 9.234375 16.796875 8.0625 
Q 21.484375 6.890625 26.703125 6.890625 
Q 35.15625 6.890625 40.078125 11.328125 
Q 45.015625 15.765625 45.015625 23.390625 
Q 45.015625 31 40.078125 35.4375 
Q 35.15625 39.890625 26.703125 39.890625 
Q 22.75 39.890625 18.8125 39.015625 
Q 14.890625 38.140625 10.796875 36.28125 
z
" id="DejaVuSans-53"/>
      </defs>
      <g transform="translate(238.205549 208.358125)scale(0.12 -0.12)">
       <use xlink:href="#DejaVuSans-48"/>
       <use x="63.623047" xlink:href="#DejaVuSans-46"/>
       <use x="95.410156" xlink:href="#DejaVuSans-53"/>
      </g>
     </g>
    </g>
    <g id="xtick_3">
     <g id="line2d_3">
      <g>
       <use style="stroke:#000000;stroke-width:0.8;" x="332.866068" xlink:href="#ma587842762" y="192.24"/>
      </g>
     </g>
     <g id="text_3">
      <!-- 1.0 -->
      <defs>
       <path d="M 12.40625 8.296875 
L 28.515625 8.296875 
L 28.515625 63.921875 
L 10.984375 60.40625 
L 10.984375 69.390625 
L 28.421875 72.90625 
L 38.28125 72.90625 
L 38.28125 8.296875 
L 54.390625 8.296875 
L 54.390625 0 
L 12.40625 0 
z
" id="DejaVuSans-49"/>
      </defs>
      <g transform="translate(323.324193 208.358125)scale(0.12 -0.12)">
       <use xlink:href="#DejaVuSans-49"/>
       <use x="63.623047" xlink:href="#DejaVuSans-46"/>
       <use x="95.410156" xlink:href="#DejaVuSans-48"/>
      </g>
     </g>
    </g>
    <g id="xtick_4">
     <g id="line2d_4">
      <g>
       <use style="stroke:#000000;stroke-width:0.8;" x="417.984712" xlink:href="#ma587842762" y="192.24"/>
      </g>
     </g>
     <g id="text_4">
      <!-- 1.5 -->
      <g transform="translate(408.442837 208.358125)scale(0.12 -0.12)">
       <use xlink:href="#DejaVuSans-49"/>
       <use x="63.623047" xlink:href="#DejaVuSans-46"/>
       <use x="95.410156" xlink:href="#DejaVuSans-53"/>
      </g>
     </g>
    </g>
    <g id="xtick_5">
     <g id="line2d_5">
      <g>
       <use style="stroke:#000000;stroke-width:0.8;" x="503.103356" xlink:href="#ma587842762" y="192.24"/>
      </g>
     </g>
     <g id="text_5">
      <!-- 2.0 -->
      <defs>
       <path d="M 19.1875 8.296875 
L 53.609375 8.296875 
L 53.609375 0 
L 7.328125 0 
L 7.328125 8.296875 
Q 12.9375 14.109375 22.625 23.890625 
Q 32.328125 33.6875 34.8125 36.53125 
Q 39.546875 41.84375 41.421875 45.53125 
Q 43.3125 49.21875 43.3125 52.78125 
Q 43.3125 58.59375 39.234375 62.25 
Q 35.15625 65.921875 28.609375 65.921875 
Q 23.96875 65.921875 18.8125 64.3125 
Q 13.671875 62.703125 7.8125 59.421875 
L 7.8125 69.390625 
Q 13.765625 71.78125 18.9375 73 
Q 24.125 74.21875 28.421875 74.21875 
Q 39.75 74.21875 46.484375 68.546875 
Q 53.21875 62.890625 53.21875 53.421875 
Q 53.21875 48.921875 51.53125 44.890625 
Q 49.859375 40.875 45.40625 35.40625 
Q 44.1875 33.984375 37.640625 27.21875 
Q 31.109375 20.453125 19.1875 8.296875 
z
" id="DejaVuSans-50"/>
      </defs>
      <g transform="translate(493.561481 208.358125)scale(0.12 -0.12)">
       <use xlink:href="#DejaVuSans-50"/>
       <use x="63.623047" xlink:href="#DejaVuSans-46"/>
       <use x="95.410156" xlink:href="#DejaVuSans-48"/>
      </g>
     </g>
    </g>
    <g id="text_6">
     <!-- Time (s) -->
     <defs>
      <path d="M -0.296875 72.90625 
L 61.375 72.90625 
L 61.375 64.59375 
L 35.5 64.59375 
L 35.5 0 
L 25.59375 0 
L 25.59375 64.59375 
L -0.296875 64.59375 
z
" id="DejaVuSans-84"/>
      <path d="M 9.421875 54.6875 
L 18.40625 54.6875 
L 18.40625 0 
L 9.421875 0 
z
M 9.421875 75.984375 
L 18.40625 75.984375 
L 18.40625 64.59375 
L 9.421875 64.59375 
z
" id="DejaVuSans-105"/>
      <path d="M 52 44.1875 
Q 55.375 50.25 60.0625 53.125 
Q 64.75 56 71.09375 56 
Q 79.640625 56 84.28125 50.015625 
Q 88.921875 44.046875 88.921875 33.015625 
L 88.921875 0 
L 79.890625 0 
L 79.890625 32.71875 
Q 79.890625 40.578125 77.09375 44.375 
Q 74.3125 48.1875 68.609375 48.1875 
Q 61.625 48.1875 57.5625 43.546875 
Q 53.515625 38.921875 53.515625 30.90625 
L 53.515625 0 
L 44.484375 0 
L 44.484375 32.71875 
Q 44.484375 40.625 41.703125 44.40625 
Q 38.921875 48.1875 33.109375 48.1875 
Q 26.21875 48.1875 22.15625 43.53125 
Q 18.109375 38.875 18.109375 30.90625 
L 18.109375 0 
L 9.078125 0 
L 9.078125 54.6875 
L 18.109375 54.6875 
L 18.109375 46.1875 
Q 21.1875 51.21875 25.484375 53.609375 
Q 29.78125 56 35.6875 56 
Q 41.65625 56 45.828125 52.96875 
Q 50 49.953125 52 44.1875 
z
" id="DejaVuSans-109"/>
      <path d="M 56.203125 29.59375 
L 56.203125 25.203125 
L 14.890625 25.203125 
Q 15.484375 15.921875 20.484375 11.0625 
Q 25.484375 6.203125 34.421875 6.203125 
Q 39.59375 6.203125 44.453125 7.46875 
Q 49.3125 8.734375 54.109375 11.28125 
L 54.109375 2.78125 
Q 49.265625 0.734375 44.1875 -0.34375 
Q 39.109375 -1.421875 33.890625 -1.421875 
Q 20.796875 -1.421875 13.15625 6.1875 
Q 5.515625 13.8125 5.515625 26.8125 
Q 5.515625 40.234375 12.765625 48.109375 
Q 20.015625 56 32.328125 56 
Q 43.359375 56 49.78125 48.890625 
Q 56.203125 41.796875 56.203125 29.59375 
z
M 47.21875 32.234375 
Q 47.125 39.59375 43.09375 43.984375 
Q 39.0625 48.390625 32.421875 48.390625 
Q 24.90625 48.390625 20.390625 44.140625 
Q 15.875 39.890625 15.1875 32.171875 
z
" id="DejaVuSans-101"/>
      <path id="DejaVuSans-32"/>
      <path d="M 31 75.875 
Q 24.46875 64.65625 21.28125 53.65625 
Q 18.109375 42.671875 18.109375 31.390625 
Q 18.109375 20.125 21.3125 9.0625 
Q 24.515625 -2 31 -13.1875 
L 23.1875 -13.1875 
Q 15.875 -1.703125 12.234375 9.375 
Q 8.59375 20.453125 8.59375 31.390625 
Q 8.59375 42.28125 12.203125 53.3125 
Q 15.828125 64.359375 23.1875 75.875 
z
" id="DejaVuSans-40"/>
      <path d="M 44.28125 53.078125 
L 44.28125 44.578125 
Q 40.484375 46.53125 36.375 47.5 
Q 32.28125 48.484375 27.875 48.484375 
Q 21.1875 48.484375 17.84375 46.4375 
Q 14.5 44.390625 14.5 40.28125 
Q 14.5 37.15625 16.890625 35.375 
Q 19.28125 33.59375 26.515625 31.984375 
L 29.59375 31.296875 
Q 39.15625 29.25 43.1875 25.515625 
Q 47.21875 21.78125 47.21875 15.09375 
Q 47.21875 7.46875 41.1875 3.015625 
Q 35.15625 -1.421875 24.609375 -1.421875 
Q 20.21875 -1.421875 15.453125 -0.5625 
Q 10.6875 0.296875 5.421875 2 
L 5.421875 11.28125 
Q 10.40625 8.6875 15.234375 7.390625 
Q 20.0625 6.109375 24.8125 6.109375 
Q 31.15625 6.109375 34.5625 8.28125 
Q 37.984375 10.453125 37.984375 14.40625 
Q 37.984375 18.0625 35.515625 20.015625 
Q 33.0625 21.96875 24.703125 23.78125 
L 21.578125 24.515625 
Q 13.234375 26.265625 9.515625 29.90625 
Q 5.8125 33.546875 5.8125 39.890625 
Q 5.8125 47.609375 11.28125 51.796875 
Q 16.75 56 26.8125 56 
Q 31.78125 56 36.171875 55.265625 
Q 40.578125 54.546875 44.28125 53.078125 
z
" id="DejaVuSans-115"/>
      <path d="M 8.015625 75.875 
L 15.828125 75.875 
Q 23.140625 64.359375 26.78125 53.3125 
Q 30.421875 42.28125 30.421875 31.390625 
Q 30.421875 20.453125 26.78125 9.375 
Q 23.140625 -1.703125 15.828125 -13.1875 
L 8.015625 -13.1875 
Q 14.5 -2 17.703125 9.0625 
Q 20.90625 20.125 20.90625 31.390625 
Q 20.90625 42.671875 17.703125 53.65625 
Q 14.5 64.65625 8.015625 75.875 
z
" id="DejaVuSans-41"/>
     </defs>
     <g transform="translate(302.60475 225.7955)scale(0.144 -0.144)">
      <use xlink:href="#DejaVuSans-84"/>
      <use x="61.037109" xlink:href="#DejaVuSans-105"/>
      <use x="88.820312" xlink:href="#DejaVuSans-109"/>
      <use x="186.232422" xlink:href="#DejaVuSans-101"/>
      <use x="247.755859" xlink:href="#DejaVuSans-32"/>
      <use x="279.542969" xlink:href="#DejaVuSans-40"/>
      <use x="318.556641" xlink:href="#DejaVuSans-115"/>
      <use x="370.65625" xlink:href="#DejaVuSans-41"/>
     </g>
    </g>
   </g>
   <g id="matplotlib.axis_2">
    <g id="ytick_1">
     <g id="line2d_6">
      <defs>
       <path d="M 0 0 
L -3.5 0 
" id="m9040cfb597" style="stroke:#000000;stroke-width:0.8;"/>
      </defs>
      <g>
       <use style="stroke:#000000;stroke-width:0.8;" x="81" xlink:href="#m9040cfb597" y="175.42693"/>
      </g>
     </g>
     <g id="text_7">
      <!-- 2.2 -->
      <g transform="translate(54.91625 179.985992)scale(0.12 -0.12)">
       <use xlink:href="#DejaVuSans-50"/>
       <use x="63.623047" xlink:href="#DejaVuSans-46"/>
       <use x="95.410156" xlink:href="#DejaVuSans-50"/>
      </g>
     </g>
    </g>
    <g id="ytick_2">
     <g id="line2d_7">
      <g>
       <use style="stroke:#000000;stroke-width:0.8;" x="81" xlink:href="#m9040cfb597" y="150.000145"/>
      </g>
     </g>
     <g id="text_8">
      <!-- 2.3 -->
      <defs>
       <path d="M 40.578125 39.3125 
Q 47.65625 37.796875 51.625 33 
Q 55.609375 28.21875 55.609375 21.1875 
Q 55.609375 10.40625 48.1875 4.484375 
Q 40.765625 -1.421875 27.09375 -1.421875 
Q 22.515625 -1.421875 17.65625 -0.515625 
Q 12.796875 0.390625 7.625 2.203125 
L 7.625 11.71875 
Q 11.71875 9.328125 16.59375 8.109375 
Q 21.484375 6.890625 26.8125 6.890625 
Q 36.078125 6.890625 40.9375 10.546875 
Q 45.796875 14.203125 45.796875 21.1875 
Q 45.796875 27.640625 41.28125 31.265625 
Q 36.765625 34.90625 28.71875 34.90625 
L 20.21875 34.90625 
L 20.21875 43.015625 
L 29.109375 43.015625 
Q 36.375 43.015625 40.234375 45.921875 
Q 44.09375 48.828125 44.09375 54.296875 
Q 44.09375 59.90625 40.109375 62.90625 
Q 36.140625 65.921875 28.71875 65.921875 
Q 24.65625 65.921875 20.015625 65.03125 
Q 15.375 64.15625 9.8125 62.3125 
L 9.8125 71.09375 
Q 15.4375 72.65625 20.34375 73.4375 
Q 25.25 74.21875 29.59375 74.21875 
Q 40.828125 74.21875 47.359375 69.109375 
Q 53.90625 64.015625 53.90625 55.328125 
Q 53.90625 49.265625 50.4375 45.09375 
Q 46.96875 40.921875 40.578125 39.3125 
z
" id="DejaVuSans-51"/>
      </defs>
      <g transform="translate(54.91625 154.559207)scale(0.12 -0.12)">
       <use xlink:href="#DejaVuSans-50"/>
       <use x="63.623047" xlink:href="#DejaVuSans-46"/>
       <use x="95.410156" xlink:href="#DejaVuSans-51"/>
      </g>
     </g>
    </g>
    <g id="ytick_3">
     <g id="line2d_8">
      <g>
       <use style="stroke:#000000;stroke-width:0.8;" x="81" xlink:href="#m9040cfb597" y="124.57336"/>
      </g>
     </g>
     <g id="text_9">
      <!-- 2.4 -->
      <defs>
       <path d="M 37.796875 64.3125 
L 12.890625 25.390625 
L 37.796875 25.390625 
z
M 35.203125 72.90625 
L 47.609375 72.90625 
L 47.609375 25.390625 
L 58.015625 25.390625 
L 58.015625 17.1875 
L 47.609375 17.1875 
L 47.609375 0 
L 37.796875 0 
L 37.796875 17.1875 
L 4.890625 17.1875 
L 4.890625 26.703125 
z
" id="DejaVuSans-52"/>
      </defs>
      <g transform="translate(54.91625 129.132422)scale(0.12 -0.12)">
       <use xlink:href="#DejaVuSans-50"/>
       <use x="63.623047" xlink:href="#DejaVuSans-46"/>
       <use x="95.410156" xlink:href="#DejaVuSans-52"/>
      </g>
     </g>
    </g>
    <g id="ytick_4">
     <g id="line2d_9">
      <g>
       <use style="stroke:#000000;stroke-width:0.8;" x="81" xlink:href="#m9040cfb597" y="99.146575"/>
      </g>
     </g>
     <g id="text_10">
      <!-- 2.5 -->
      <g transform="translate(54.91625 103.705638)scale(0.12 -0.12)">
       <use xlink:href="#DejaVuSans-50"/>
       <use x="63.623047" xlink:href="#DejaVuSans-46"/>
       <use x="95.410156" xlink:href="#DejaVuSans-53"/>
      </g>
     </g>
    </g>
    <g id="ytick_5">
     <g id="line2d_10">
      <g>
       <use style="stroke:#000000;stroke-width:0.8;" x="81" xlink:href="#m9040cfb597" y="73.71979"/>
      </g>
     </g>
     <g id="text_11">
      <!-- 2.6 -->
      <defs>
       <path d="M 33.015625 40.375 
Q 26.375 40.375 22.484375 35.828125 
Q 18.609375 31.296875 18.609375 23.390625 
Q 18.609375 15.53125 22.484375 10.953125 
Q 26.375 6.390625 33.015625 6.390625 
Q 39.65625 6.390625 43.53125 10.953125 
Q 47.40625 15.53125 47.40625 23.390625 
Q 47.40625 31.296875 43.53125 35.828125 
Q 39.65625 40.375 33.015625 40.375 
z
M 52.59375 71.296875 
L 52.59375 62.3125 
Q 48.875 64.0625 45.09375 64.984375 
Q 41.3125 65.921875 37.59375 65.921875 
Q 27.828125 65.921875 22.671875 59.328125 
Q 17.53125 52.734375 16.796875 39.40625 
Q 19.671875 43.65625 24.015625 45.921875 
Q 28.375 48.1875 33.59375 48.1875 
Q 44.578125 48.1875 50.953125 41.515625 
Q 57.328125 34.859375 57.328125 23.390625 
Q 57.328125 12.15625 50.6875 5.359375 
Q 44.046875 -1.421875 33.015625 -1.421875 
Q 20.359375 -1.421875 13.671875 8.265625 
Q 6.984375 17.96875 6.984375 36.375 
Q 6.984375 53.65625 15.1875 63.9375 
Q 23.390625 74.21875 37.203125 74.21875 
Q 40.921875 74.21875 44.703125 73.484375 
Q 48.484375 72.75 52.59375 71.296875 
z
" id="DejaVuSans-54"/>
      </defs>
      <g transform="translate(54.91625 78.278853)scale(0.12 -0.12)">
       <use xlink:href="#DejaVuSans-50"/>
       <use x="63.623047" xlink:href="#DejaVuSans-46"/>
       <use x="95.410156" xlink:href="#DejaVuSans-54"/>
      </g>
     </g>
    </g>
    <g id="ytick_6">
     <g id="line2d_11">
      <g>
       <use style="stroke:#000000;stroke-width:0.8;" x="81" xlink:href="#m9040cfb597" y="48.293005"/>
      </g>
     </g>
     <g id="text_12">
      <!-- 2.7 -->
      <defs>
       <path d="M 8.203125 72.90625 
L 55.078125 72.90625 
L 55.078125 68.703125 
L 28.609375 0 
L 18.3125 0 
L 43.21875 64.59375 
L 8.203125 64.59375 
z
" id="DejaVuSans-55"/>
      </defs>
      <g transform="translate(54.91625 52.852068)scale(0.12 -0.12)">
       <use xlink:href="#DejaVuSans-50"/>
       <use x="63.623047" xlink:href="#DejaVuSans-46"/>
       <use x="95.410156" xlink:href="#DejaVuSans-55"/>
      </g>
     </g>
    </g>
    <g id="text_13">
     <!-- Act. Cells Moving Avg. -->
     <defs>
      <path d="M 34.1875 63.1875 
L 20.796875 26.90625 
L 47.609375 26.90625 
z
M 28.609375 72.90625 
L 39.796875 72.90625 
L 67.578125 0 
L 57.328125 0 
L 50.6875 18.703125 
L 17.828125 18.703125 
L 11.1875 0 
L 0.78125 0 
z
" id="DejaVuSans-65"/>
      <path d="M 48.78125 52.59375 
L 48.78125 44.1875 
Q 44.96875 46.296875 41.140625 47.34375 
Q 37.3125 48.390625 33.40625 48.390625 
Q 24.65625 48.390625 19.8125 42.84375 
Q 14.984375 37.3125 14.984375 27.296875 
Q 14.984375 17.28125 19.8125 11.734375 
Q 24.65625 6.203125 33.40625 6.203125 
Q 37.3125 6.203125 41.140625 7.25 
Q 44.96875 8.296875 48.78125 10.40625 
L 48.78125 2.09375 
Q 45.015625 0.34375 40.984375 -0.53125 
Q 36.96875 -1.421875 32.421875 -1.421875 
Q 20.0625 -1.421875 12.78125 6.34375 
Q 5.515625 14.109375 5.515625 27.296875 
Q 5.515625 40.671875 12.859375 48.328125 
Q 20.21875 56 33.015625 56 
Q 37.15625 56 41.109375 55.140625 
Q 45.0625 54.296875 48.78125 52.59375 
z
" id="DejaVuSans-99"/>
      <path d="M 18.3125 70.21875 
L 18.3125 54.6875 
L 36.8125 54.6875 
L 36.8125 47.703125 
L 18.3125 47.703125 
L 18.3125 18.015625 
Q 18.3125 11.328125 20.140625 9.421875 
Q 21.96875 7.515625 27.59375 7.515625 
L 36.8125 7.515625 
L 36.8125 0 
L 27.59375 0 
Q 17.1875 0 13.234375 3.875 
Q 9.28125 7.765625 9.28125 18.015625 
L 9.28125 47.703125 
L 2.6875 47.703125 
L 2.6875 54.6875 
L 9.28125 54.6875 
L 9.28125 70.21875 
z
" id="DejaVuSans-116"/>
      <path d="M 64.40625 67.28125 
L 64.40625 56.890625 
Q 59.421875 61.53125 53.78125 63.8125 
Q 48.140625 66.109375 41.796875 66.109375 
Q 29.296875 66.109375 22.65625 58.46875 
Q 16.015625 50.828125 16.015625 36.375 
Q 16.015625 21.96875 22.65625 14.328125 
Q 29.296875 6.6875 41.796875 6.6875 
Q 48.140625 6.6875 53.78125 8.984375 
Q 59.421875 11.28125 64.40625 15.921875 
L 64.40625 5.609375 
Q 59.234375 2.09375 53.4375 0.328125 
Q 47.65625 -1.421875 41.21875 -1.421875 
Q 24.65625 -1.421875 15.125 8.703125 
Q 5.609375 18.84375 5.609375 36.375 
Q 5.609375 53.953125 15.125 64.078125 
Q 24.65625 74.21875 41.21875 74.21875 
Q 47.75 74.21875 53.53125 72.484375 
Q 59.328125 70.75 64.40625 67.28125 
z
" id="DejaVuSans-67"/>
      <path d="M 9.421875 75.984375 
L 18.40625 75.984375 
L 18.40625 0 
L 9.421875 0 
z
" id="DejaVuSans-108"/>
      <path d="M 9.8125 72.90625 
L 24.515625 72.90625 
L 43.109375 23.296875 
L 61.8125 72.90625 
L 76.515625 72.90625 
L 76.515625 0 
L 66.890625 0 
L 66.890625 64.015625 
L 48.09375 14.015625 
L 38.1875 14.015625 
L 19.390625 64.015625 
L 19.390625 0 
L 9.8125 0 
z
" id="DejaVuSans-77"/>
      <path d="M 30.609375 48.390625 
Q 23.390625 48.390625 19.1875 42.75 
Q 14.984375 37.109375 14.984375 27.296875 
Q 14.984375 17.484375 19.15625 11.84375 
Q 23.34375 6.203125 30.609375 6.203125 
Q 37.796875 6.203125 41.984375 11.859375 
Q 46.1875 17.53125 46.1875 27.296875 
Q 46.1875 37.015625 41.984375 42.703125 
Q 37.796875 48.390625 30.609375 48.390625 
z
M 30.609375 56 
Q 42.328125 56 49.015625 48.375 
Q 55.71875 40.765625 55.71875 27.296875 
Q 55.71875 13.875 49.015625 6.21875 
Q 42.328125 -1.421875 30.609375 -1.421875 
Q 18.84375 -1.421875 12.171875 6.21875 
Q 5.515625 13.875 5.515625 27.296875 
Q 5.515625 40.765625 12.171875 48.375 
Q 18.84375 56 30.609375 56 
z
" id="DejaVuSans-111"/>
      <path d="M 2.984375 54.6875 
L 12.5 54.6875 
L 29.59375 8.796875 
L 46.6875 54.6875 
L 56.203125 54.6875 
L 35.6875 0 
L 23.484375 0 
z
" id="DejaVuSans-118"/>
      <path d="M 54.890625 33.015625 
L 54.890625 0 
L 45.90625 0 
L 45.90625 32.71875 
Q 45.90625 40.484375 42.875 44.328125 
Q 39.84375 48.1875 33.796875 48.1875 
Q 26.515625 48.1875 22.3125 43.546875 
Q 18.109375 38.921875 18.109375 30.90625 
L 18.109375 0 
L 9.078125 0 
L 9.078125 54.6875 
L 18.109375 54.6875 
L 18.109375 46.1875 
Q 21.34375 51.125 25.703125 53.5625 
Q 30.078125 56 35.796875 56 
Q 45.21875 56 50.046875 50.171875 
Q 54.890625 44.34375 54.890625 33.015625 
z
" id="DejaVuSans-110"/>
      <path d="M 45.40625 27.984375 
Q 45.40625 37.75 41.375 43.109375 
Q 37.359375 48.484375 30.078125 48.484375 
Q 22.859375 48.484375 18.828125 43.109375 
Q 14.796875 37.75 14.796875 27.984375 
Q 14.796875 18.265625 18.828125 12.890625 
Q 22.859375 7.515625 30.078125 7.515625 
Q 37.359375 7.515625 41.375 12.890625 
Q 45.40625 18.265625 45.40625 27.984375 
z
M 54.390625 6.78125 
Q 54.390625 -7.171875 48.1875 -13.984375 
Q 42 -20.796875 29.203125 -20.796875 
Q 24.46875 -20.796875 20.265625 -20.09375 
Q 16.0625 -19.390625 12.109375 -17.921875 
L 12.109375 -9.1875 
Q 16.0625 -11.328125 19.921875 -12.34375 
Q 23.78125 -13.375 27.78125 -13.375 
Q 36.625 -13.375 41.015625 -8.765625 
Q 45.40625 -4.15625 45.40625 5.171875 
L 45.40625 9.625 
Q 42.625 4.78125 38.28125 2.390625 
Q 33.9375 0 27.875 0 
Q 17.828125 0 11.671875 7.65625 
Q 5.515625 15.328125 5.515625 27.984375 
Q 5.515625 40.671875 11.671875 48.328125 
Q 17.828125 56 27.875 56 
Q 33.9375 56 38.28125 53.609375 
Q 42.625 51.21875 45.40625 46.390625 
L 45.40625 54.6875 
L 54.390625 54.6875 
z
" id="DejaVuSans-103"/>
     </defs>
     <g transform="translate(47.9215 189.201375)rotate(-90)scale(0.144 -0.144)">
      <use xlink:href="#DejaVuSans-65"/>
      <use x="68.392578" xlink:href="#DejaVuSans-99"/>
      <use x="123.373047" xlink:href="#DejaVuSans-116"/>
      <use x="162.582031" xlink:href="#DejaVuSans-46"/>
      <use x="194.369141" xlink:href="#DejaVuSans-32"/>
      <use x="226.15625" xlink:href="#DejaVuSans-67"/>
      <use x="295.980469" xlink:href="#DejaVuSans-101"/>
      <use x="357.503906" xlink:href="#DejaVuSans-108"/>
      <use x="385.287109" xlink:href="#DejaVuSans-108"/>
      <use x="413.070312" xlink:href="#DejaVuSans-115"/>
      <use x="465.169922" xlink:href="#DejaVuSans-32"/>
      <use x="496.957031" xlink:href="#DejaVuSans-77"/>
      <use x="583.236328" xlink:href="#DejaVuSans-111"/>
      <use x="644.417969" xlink:href="#DejaVuSans-118"/>
      <use x="703.597656" xlink:href="#DejaVuSans-105"/>
      <use x="731.380859" xlink:href="#DejaVuSans-110"/>
      <use x="794.759766" xlink:href="#DejaVuSans-103"/>
      <use x="858.236328" xlink:href="#DejaVuSans-32"/>
      <use x="890.023438" xlink:href="#DejaVuSans-65"/>
      <use x="958.353516" xlink:href="#DejaVuSans-118"/>
      <use x="1017.533203" xlink:href="#DejaVuSans-103"/>
      <use x="1081.009766" xlink:href="#DejaVuSans-46"/>
     </g>
    </g>
   </g>
   <g id="line2d_12">
    <path clip-path="url(#p1f464391b8)" d="M 81 170.214439 
L 82.702373 168.911316 
L 84.404746 166.225612 
L 86.107119 166.305071 
L 87.809492 163.730609 
L 89.511864 164.255036 
L 91.214237 164.01666 
L 92.91661 166.177937 
L 94.618983 163.984876 
L 96.321356 164.01666 
L 98.023729 167.687652 
L 99.726102 169.49931 
L 101.428475 173.265653 
L 103.130847 173.69473 
L 104.83322 175.395146 
L 106.535593 175.649414 
L 108.237966 175.299796 
L 109.940339 173.233869 
L 111.642712 173.42457 
L 113.345085 172.614092 
L 115.047458 171.072593 
L 116.749831 169.165584 
L 118.452203 164.700005 
L 120.154576 164.255036 
L 121.856949 163.031372 
L 123.559322 164.032552 
L 125.261695 164.827139 
L 126.964068 163.937201 
L 128.666441 164.970164 
L 130.368814 166.146153 
L 132.071186 165.558159 
L 133.773559 167.57641 
L 135.475932 167.179116 
L 137.178305 168.450456 
L 138.880678 170.357464 
L 140.583051 171.247402 
L 142.285424 169.483419 
L 143.987797 172.423391 
L 145.690169 173.805972 
L 147.392542 173.678838 
L 149.094915 176.539351 
L 150.797288 174.266833 
L 152.499661 175.585847 
L 154.202034 172.280365 
L 155.904407 156.817701 
L 157.60678 134.187863 
L 159.309153 128.339702 
L 161.011525 117.867045 
L 162.713898 110.811113 
L 164.416271 106.2184 
L 166.118644 99.893487 
L 167.821017 98.46323 
L 169.52339 95.555042 
L 171.225763 98.653931 
L 172.928136 111.70105 
L 174.630508 131.470375 
L 176.332881 137.922422 
L 178.035254 146.869472 
L 179.737627 151.859478 
L 181.44 155.816522 
L 184.844746 160.011941 
L 186.547119 160.329776 
L 188.249492 154.894801 
L 189.951864 151.430401 
L 191.654237 149.618743 
L 193.35661 149.332692 
L 195.058983 144.422144 
L 196.761356 139.956565 
L 198.463729 134.076621 
L 200.166102 127.561007 
L 201.868475 116.691057 
L 203.570847 109.349073 
L 205.27322 106.345534 
L 206.975593 102.563299 
L 208.677966 101.673362 
L 210.380339 98.939982 
L 212.082712 97.319025 
L 213.785085 98.129504 
L 215.487458 101.212501 
L 217.189831 103.945881 
L 218.892203 107.442064 
L 220.594576 110.477386 
L 222.296949 111.653375 
L 223.999322 114.768156 
L 225.701695 113.766976 
L 227.404068 114.450321 
L 229.106441 116.929433 
L 230.808814 116.35733 
L 232.511186 113.210765 
L 234.213559 113.496817 
L 235.915932 117.326726 
L 237.618305 117.35851 
L 239.320678 117.692236 
L 241.023051 117.104242 
L 242.725424 117.136025 
L 244.427797 116.802299 
L 246.130169 115.769336 
L 247.832542 116.929433 
L 249.534915 119.662812 
L 252.939661 119.201952 
L 254.642034 121.01361 
L 256.344407 124.080716 
L 258.04678 124.160175 
L 259.749153 121.951223 
L 261.451525 118.45504 
L 263.153898 116.865866 
L 264.856271 114.021244 
L 266.558644 110.763437 
L 268.261017 109.221939 
L 271.665763 103.866422 
L 273.368136 102.038872 
L 275.070508 99.957054 
L 276.772881 99.496193 
L 278.475254 99.337276 
L 280.177627 98.288421 
L 281.88 98.00237 
L 283.582373 95.872877 
L 285.284746 96.27017 
L 286.987119 94.760455 
L 288.689492 95.825201 
L 290.391864 93.838734 
L 292.094237 93.044147 
L 293.79661 91.343731 
L 295.498983 91.709241 
L 297.201356 89.134779 
L 298.903729 88.05414 
L 300.606102 88.578568 
L 302.308475 86.067673 
L 304.010847 87.783981 
L 305.71322 85.098276 
L 307.415593 86.035889 
L 309.117966 85.527353 
L 310.820339 88.181274 
L 312.522712 89.468505 
L 314.225085 90.898762 
L 315.927458 90.771628 
L 317.629831 90.072391 
L 319.332203 89.166562 
L 321.034576 86.067673 
L 324.439322 81.586202 
L 326.141695 84.112989 
L 327.844068 82.57149 
L 329.546441 78.534988 
L 331.248814 78.678013 
L 332.951186 77.931102 
L 334.653559 77.946993 
L 336.355932 80.410213 
L 338.058305 82.66684 
L 339.760678 86.353724 
L 341.463051 86.86226 
L 343.165424 86.719234 
L 344.867797 86.86226 
L 346.570169 88.340192 
L 348.272542 87.052961 
L 349.974915 87.354904 
L 353.379661 83.636236 
L 355.082034 84.097097 
L 356.784407 82.062954 
L 360.189153 75.436098 
L 361.891525 74.736862 
L 363.593898 75.642691 
L 366.998644 75.483773 
L 368.701017 73.147688 
L 370.40339 71.812781 
L 372.105763 69.174752 
L 373.808136 67.299527 
L 375.510508 67.474336 
L 378.915254 63.930478 
L 380.617627 61.054073 
L 382.32 58.956363 
L 384.022373 56.079958 
L 385.724746 59.417224 
L 387.427119 58.55907 
L 389.129492 56.397793 
L 390.831864 56.477252 
L 392.534237 54.649702 
L 394.23661 51.820972 
L 395.938983 51.010493 
L 397.641356 49.071701 
L 399.343729 49.294185 
L 401.046102 46.529022 
L 402.748475 43.350674 
L 404.450847 41.872742 
L 407.855593 46.78329 
L 412.962712 68.745675 
L 414.665085 77.581483 
L 418.069831 99.972946 
L 421.474576 119.233735 
L 423.176949 125.701674 
L 424.879322 131.390917 
L 426.581695 133.806461 
L 428.284068 136.873567 
L 429.986441 137.938314 
L 431.688814 140.067807 
L 433.391186 138.732901 
L 435.093559 140.878286 
L 436.795932 139.940673 
L 438.498305 140.00424 
L 440.200678 142.165517 
L 441.903051 142.038383 
L 443.605424 140.814719 
L 447.010169 138.160798 
L 448.712542 135.189043 
L 450.414915 131.78821 
L 452.117288 127.052471 
L 453.819661 126.607503 
L 455.522034 122.714026 
L 457.224407 118.327906 
L 458.92678 116.500356 
L 460.629153 115.944145 
L 462.331525 116.786407 
L 464.033898 115.912361 
L 465.736271 116.468572 
L 467.438644 119.360869 
L 469.141017 120.01243 
L 470.84339 120.902368 
L 472.545763 125.828807 
L 475.950508 133.679327 
L 477.652881 138.351499 
L 479.355254 139.352679 
L 482.76 143.405072 
L 484.462373 141.529847 
L 486.164746 142.642269 
L 487.867119 143.405072 
L 489.569492 140.910069 
L 491.271864 141.116662 
L 492.974237 139.114303 
L 494.67661 136.110764 
L 496.378983 135.411527 
L 498.081356 134.8871 
L 499.783729 134.8871 
L 501.486102 132.805282 
L 503.188475 133.711111 
L 504.890847 135.570444 
L 506.59322 138.27204 
L 508.295593 136.651083 
L 509.997966 139.63873 
L 511.700339 143.055454 
L 513.402712 146.154344 
L 515.105085 147.362116 
L 516.807458 149.920686 
L 518.509831 155.514579 
L 520.212203 160.409235 
L 521.914576 158.454551 
L 523.616949 157.469263 
L 525.319322 159.757673 
L 527.021695 156.086681 
L 528.724068 152.9719 
L 530.426441 153.400977 
L 532.128814 155.117285 
L 533.831186 153.162601 
L 535.533559 152.797091 
L 537.235932 148.871831 
L 540.640678 154.529291 
L 542.343051 154.719992 
L 545.747797 160.758853 
L 547.450169 162.713537 
L 549.152542 165.558159 
L 550.854915 165.875994 
L 552.557288 167.719435 
L 554.259661 169.753578 
L 555.962034 170.023738 
L 557.664407 169.690011 
L 559.36678 170.23033 
L 561.069153 170.627624 
L 562.771525 170.611732 
L 566.176271 167.767111 
L 567.878644 170.309789 
L 569.581017 170.611732 
L 572.985763 173.980781 
L 574.688136 174.266833 
L 576.390508 174.107915 
L 578.092881 174.664126 
L 579.795254 173.32922 
L 581.497627 174.171482 
L 583.2 173.265653 
L 583.2 173.265653 
" style="fill:none;stroke:#0000ff;stroke-linecap:square;stroke-width:1.5;"/>
   </g>
   <g id="patch_3">
    <path d="M 81 192.24 
L 81 25.92 
" style="fill:none;stroke:#000000;stroke-linecap:square;stroke-linejoin:miter;stroke-width:0.8;"/>
   </g>
   <g id="patch_4">
    <path d="M 583.2 192.24 
L 583.2 25.92 
" style="fill:none;stroke:#000000;stroke-linecap:square;stroke-linejoin:miter;stroke-width:0.8;"/>
   </g>
   <g id="patch_5">
    <path d="M 81 192.24 
L 583.2 192.24 
" style="fill:none;stroke:#000000;stroke-linecap:square;stroke-linejoin:miter;stroke-width:0.8;"/>
   </g>
   <g id="patch_6">
    <path d="M 81 25.92 
L 583.2 25.92 
" style="fill:none;stroke:#000000;stroke-linecap:square;stroke-linejoin:miter;stroke-width:0.8;"/>
   </g>
   <g id="text_14">
    <!-- Thalamus, Num Trials=160 All stimulated trials -->
    <defs>
     <path d="M 54.890625 33.015625 
L 54.890625 0 
L 45.90625 0 
L 45.90625 32.71875 
Q 45.90625 40.484375 42.875 44.328125 
Q 39.84375 48.1875 33.796875 48.1875 
Q 26.515625 48.1875 22.3125 43.546875 
Q 18.109375 38.921875 18.109375 30.90625 
L 18.109375 0 
L 9.078125 0 
L 9.078125 75.984375 
L 18.109375 75.984375 
L 18.109375 46.1875 
Q 21.34375 51.125 25.703125 53.5625 
Q 30.078125 56 35.796875 56 
Q 45.21875 56 50.046875 50.171875 
Q 54.890625 44.34375 54.890625 33.015625 
z
" id="DejaVuSans-104"/>
     <path d="M 34.28125 27.484375 
Q 23.390625 27.484375 19.1875 25 
Q 14.984375 22.515625 14.984375 16.5 
Q 14.984375 11.71875 18.140625 8.90625 
Q 21.296875 6.109375 26.703125 6.109375 
Q 34.1875 6.109375 38.703125 11.40625 
Q 43.21875 16.703125 43.21875 25.484375 
L 43.21875 27.484375 
z
M 52.203125 31.203125 
L 52.203125 0 
L 43.21875 0 
L 43.21875 8.296875 
Q 40.140625 3.328125 35.546875 0.953125 
Q 30.953125 -1.421875 24.3125 -1.421875 
Q 15.921875 -1.421875 10.953125 3.296875 
Q 6 8.015625 6 15.921875 
Q 6 25.140625 12.171875 29.828125 
Q 18.359375 34.515625 30.609375 34.515625 
L 43.21875 34.515625 
L 43.21875 35.40625 
Q 43.21875 41.609375 39.140625 45 
Q 35.0625 48.390625 27.6875 48.390625 
Q 23 48.390625 18.546875 47.265625 
Q 14.109375 46.140625 10.015625 43.890625 
L 10.015625 52.203125 
Q 14.9375 54.109375 19.578125 55.046875 
Q 24.21875 56 28.609375 56 
Q 40.484375 56 46.34375 49.84375 
Q 52.203125 43.703125 52.203125 31.203125 
z
" id="DejaVuSans-97"/>
     <path d="M 8.5 21.578125 
L 8.5 54.6875 
L 17.484375 54.6875 
L 17.484375 21.921875 
Q 17.484375 14.15625 20.5 10.265625 
Q 23.53125 6.390625 29.59375 6.390625 
Q 36.859375 6.390625 41.078125 11.03125 
Q 45.3125 15.671875 45.3125 23.6875 
L 45.3125 54.6875 
L 54.296875 54.6875 
L 54.296875 0 
L 45.3125 0 
L 45.3125 8.40625 
Q 42.046875 3.421875 37.71875 1 
Q 33.40625 -1.421875 27.6875 -1.421875 
Q 18.265625 -1.421875 13.375 4.4375 
Q 8.5 10.296875 8.5 21.578125 
z
M 31.109375 56 
z
" id="DejaVuSans-117"/>
     <path d="M 11.71875 12.40625 
L 22.015625 12.40625 
L 22.015625 4 
L 14.015625 -11.625 
L 7.71875 -11.625 
L 11.71875 4 
z
" id="DejaVuSans-44"/>
     <path d="M 9.8125 72.90625 
L 23.09375 72.90625 
L 55.421875 11.921875 
L 55.421875 72.90625 
L 64.984375 72.90625 
L 64.984375 0 
L 51.703125 0 
L 19.390625 60.984375 
L 19.390625 0 
L 9.8125 0 
z
" id="DejaVuSans-78"/>
     <path d="M 41.109375 46.296875 
Q 39.59375 47.171875 37.8125 47.578125 
Q 36.03125 48 33.890625 48 
Q 26.265625 48 22.1875 43.046875 
Q 18.109375 38.09375 18.109375 28.8125 
L 18.109375 0 
L 9.078125 0 
L 9.078125 54.6875 
L 18.109375 54.6875 
L 18.109375 46.1875 
Q 20.953125 51.171875 25.484375 53.578125 
Q 30.03125 56 36.53125 56 
Q 37.453125 56 38.578125 55.875 
Q 39.703125 55.765625 41.0625 55.515625 
z
" id="DejaVuSans-114"/>
     <path d="M 10.59375 45.40625 
L 73.1875 45.40625 
L 73.1875 37.203125 
L 10.59375 37.203125 
z
M 10.59375 25.484375 
L 73.1875 25.484375 
L 73.1875 17.1875 
L 10.59375 17.1875 
z
" id="DejaVuSans-61"/>
     <path d="M 45.40625 46.390625 
L 45.40625 75.984375 
L 54.390625 75.984375 
L 54.390625 0 
L 45.40625 0 
L 45.40625 8.203125 
Q 42.578125 3.328125 38.25 0.953125 
Q 33.9375 -1.421875 27.875 -1.421875 
Q 17.96875 -1.421875 11.734375 6.484375 
Q 5.515625 14.40625 5.515625 27.296875 
Q 5.515625 40.1875 11.734375 48.09375 
Q 17.96875 56 27.875 56 
Q 33.9375 56 38.25 53.625 
Q 42.578125 51.265625 45.40625 46.390625 
z
M 14.796875 27.296875 
Q 14.796875 17.390625 18.875 11.75 
Q 22.953125 6.109375 30.078125 6.109375 
Q 37.203125 6.109375 41.296875 11.75 
Q 45.40625 17.390625 45.40625 27.296875 
Q 45.40625 37.203125 41.296875 42.84375 
Q 37.203125 48.484375 30.078125 48.484375 
Q 22.953125 48.484375 18.875 42.84375 
Q 14.796875 37.203125 14.796875 27.296875 
z
" id="DejaVuSans-100"/>
    </defs>
    <g transform="translate(190.146563 19.92)scale(0.12 -0.12)">
     <use xlink:href="#DejaVuSans-84"/>
     <use x="61.083984" xlink:href="#DejaVuSans-104"/>
     <use x="124.462891" xlink:href="#DejaVuSans-97"/>
     <use x="185.742188" xlink:href="#DejaVuSans-108"/>
     <use x="213.525391" xlink:href="#DejaVuSans-97"/>
     <use x="274.804688" xlink:href="#DejaVuSans-109"/>
     <use x="372.216797" xlink:href="#DejaVuSans-117"/>
     <use x="435.595703" xlink:href="#DejaVuSans-115"/>
     <use x="487.695312" xlink:href="#DejaVuSans-44"/>
     <use x="519.482422" xlink:href="#DejaVuSans-32"/>
     <use x="551.269531" xlink:href="#DejaVuSans-78"/>
     <use x="626.074219" xlink:href="#DejaVuSans-117"/>
     <use x="689.453125" xlink:href="#DejaVuSans-109"/>
     <use x="786.865234" xlink:href="#DejaVuSans-32"/>
     <use x="818.652344" xlink:href="#DejaVuSans-84"/>
     <use x="879.517578" xlink:href="#DejaVuSans-114"/>
     <use x="920.630859" xlink:href="#DejaVuSans-105"/>
     <use x="948.414062" xlink:href="#DejaVuSans-97"/>
     <use x="1009.693359" xlink:href="#DejaVuSans-108"/>
     <use x="1037.476562" xlink:href="#DejaVuSans-115"/>
     <use x="1089.576172" xlink:href="#DejaVuSans-61"/>
     <use x="1173.365234" xlink:href="#DejaVuSans-49"/>
     <use x="1236.988281" xlink:href="#DejaVuSans-54"/>
     <use x="1300.611328" xlink:href="#DejaVuSans-48"/>
     <use x="1364.234375" xlink:href="#DejaVuSans-32"/>
     <use x="1396.021484" xlink:href="#DejaVuSans-65"/>
     <use x="1464.429688" xlink:href="#DejaVuSans-108"/>
     <use x="1492.212891" xlink:href="#DejaVuSans-108"/>
     <use x="1519.996094" xlink:href="#DejaVuSans-32"/>
     <use x="1551.783203" xlink:href="#DejaVuSans-115"/>
     <use x="1603.882812" xlink:href="#DejaVuSans-116"/>
     <use x="1643.091797" xlink:href="#DejaVuSans-105"/>
     <use x="1670.875" xlink:href="#DejaVuSans-109"/>
     <use x="1768.287109" xlink:href="#DejaVuSans-117"/>
     <use x="1831.666016" xlink:href="#DejaVuSans-108"/>
     <use x="1859.449219" xlink:href="#DejaVuSans-97"/>
     <use x="1920.728516" xlink:href="#DejaVuSans-116"/>
     <use x="1959.9375" xlink:href="#DejaVuSans-101"/>
     <use x="2021.460938" xlink:href="#DejaVuSans-100"/>
     <use x="2084.9375" xlink:href="#DejaVuSans-32"/>
     <use x="2116.724609" xlink:href="#DejaVuSans-116"/>
     <use x="2155.933594" xlink:href="#DejaVuSans-114"/>
     <use x="2197.046875" xlink:href="#DejaVuSans-105"/>
     <use x="2224.830078" xlink:href="#DejaVuSans-97"/>
     <use x="2286.109375" xlink:href="#DejaVuSans-108"/>
     <use x="2313.892578" xlink:href="#DejaVuSans-115"/>
    </g>
   </g>
   <g id="legend_1">
    <g id="patch_7">
     <path d="M 462.496875 70.7475 
L 574.8 70.7475 
Q 577.2 70.7475 577.2 68.3475 
L 577.2 34.32 
Q 577.2 31.92 574.8 31.92 
L 462.496875 31.92 
Q 460.096875 31.92 460.096875 34.32 
L 460.096875 68.3475 
Q 460.096875 70.7475 462.496875 70.7475 
z
" style="fill:#ffffff;opacity:0.8;stroke:#cccccc;stroke-linejoin:miter;"/>
    </g>
    <g id="line2d_13">
     <path d="M 464.896875 41.638125 
L 488.896875 41.638125 
" style="fill:none;stroke:#0000ff;stroke-linecap:square;stroke-width:1.5;"/>
    </g>
    <g id="line2d_14"/>
    <g id="text_15">
     <!-- Moving Avg. -->
     <g transform="translate(498.496875 45.838125)scale(0.12 -0.12)">
      <use xlink:href="#DejaVuSans-77"/>
      <use x="86.279297" xlink:href="#DejaVuSans-111"/>
      <use x="147.460938" xlink:href="#DejaVuSans-118"/>
      <use x="206.640625" xlink:href="#DejaVuSans-105"/>
      <use x="234.423828" xlink:href="#DejaVuSans-110"/>
      <use x="297.802734" xlink:href="#DejaVuSans-103"/>
      <use x="361.279297" xlink:href="#DejaVuSans-32"/>
      <use x="393.066406" xlink:href="#DejaVuSans-65"/>
      <use x="461.396484" xlink:href="#DejaVuSans-118"/>
      <use x="520.576172" xlink:href="#DejaVuSans-103"/>
      <use x="584.052734" xlink:href="#DejaVuSans-46"/>
     </g>
    </g>
    <g id="patch_8">
     <path d="M 464.896875 63.451875 
L 488.896875 63.451875 
L 488.896875 55.051875 
L 464.896875 55.051875 
z
" style="fill:#0000ff;opacity:0.3;stroke:#0000ff;stroke-linejoin:miter;"/>
    </g>
    <g id="text_16">
     <!-- Std. Err. -->
     <defs>
      <path d="M 53.515625 70.515625 
L 53.515625 60.890625 
Q 47.90625 63.578125 42.921875 64.890625 
Q 37.9375 66.21875 33.296875 66.21875 
Q 25.25 66.21875 20.875 63.09375 
Q 16.5 59.96875 16.5 54.203125 
Q 16.5 49.359375 19.40625 46.890625 
Q 22.3125 44.4375 30.421875 42.921875 
L 36.375 41.703125 
Q 47.40625 39.59375 52.65625 34.296875 
Q 57.90625 29 57.90625 20.125 
Q 57.90625 9.515625 50.796875 4.046875 
Q 43.703125 -1.421875 29.984375 -1.421875 
Q 24.8125 -1.421875 18.96875 -0.25 
Q 13.140625 0.921875 6.890625 3.21875 
L 6.890625 13.375 
Q 12.890625 10.015625 18.65625 8.296875 
Q 24.421875 6.59375 29.984375 6.59375 
Q 38.421875 6.59375 43.015625 9.90625 
Q 47.609375 13.234375 47.609375 19.390625 
Q 47.609375 24.75 44.3125 27.78125 
Q 41.015625 30.8125 33.5 32.328125 
L 27.484375 33.5 
Q 16.453125 35.6875 11.515625 40.375 
Q 6.59375 45.0625 6.59375 53.421875 
Q 6.59375 63.09375 13.40625 68.65625 
Q 20.21875 74.21875 32.171875 74.21875 
Q 37.3125 74.21875 42.625 73.28125 
Q 47.953125 72.359375 53.515625 70.515625 
z
" id="DejaVuSans-83"/>
      <path d="M 9.8125 72.90625 
L 55.90625 72.90625 
L 55.90625 64.59375 
L 19.671875 64.59375 
L 19.671875 43.015625 
L 54.390625 43.015625 
L 54.390625 34.71875 
L 19.671875 34.71875 
L 19.671875 8.296875 
L 56.78125 8.296875 
L 56.78125 0 
L 9.8125 0 
z
" id="DejaVuSans-69"/>
     </defs>
     <g transform="translate(498.496875 63.451875)scale(0.12 -0.12)">
      <use xlink:href="#DejaVuSans-83"/>
      <use x="63.476562" xlink:href="#DejaVuSans-116"/>
      <use x="102.685547" xlink:href="#DejaVuSans-100"/>
      <use x="166.162109" xlink:href="#DejaVuSans-46"/>
      <use x="197.949219" xlink:href="#DejaVuSans-32"/>
      <use x="229.736328" xlink:href="#DejaVuSans-69"/>
      <use x="292.919922" xlink:href="#DejaVuSans-114"/>
      <use x="334.017578" xlink:href="#DejaVuSans-114"/>
      <use x="374.990234" xlink:href="#DejaVuSans-46"/>
     </g>
    </g>
   </g>
  </g>
 </g>
 <defs>
  <clipPath id="p1f464391b8">
   <rect height="166.32" width="502.2" x="81" y="25.92"/>
  </clipPath>
 </defs>
</svg>
