<?xml version="1.0" encoding="utf-8" standalone="no"?>
<!DOCTYPE svg PUBLIC "-//W3C//DTD SVG 1.1//EN"
  "http://www.w3.org/Graphics/SVG/1.1/DTD/svg11.dtd">
<!-- Created with matplotlib (https://matplotlib.org/) -->
<svg height="288pt" version="1.1" viewBox="0 0 720 288" width="720pt" xmlns="http://www.w3.org/2000/svg" xmlns:xlink="http://www.w3.org/1999/xlink">
 <defs>
  <style type="text/css">
*{stroke-linecap:butt;stroke-linejoin:round;white-space:pre;}
  </style>
 </defs>
 <g id="figure_1">
  <g id="patch_1">
   <path d="M 0 288 
L 720 288 
L 720 0 
L 0 0 
z
" style="fill:#ffffff;"/>
  </g>
  <g id="axes_1">
   <g id="patch_2">
    <path d="M 90 256.32 
L 648 256.32 
L 648 34.56 
L 90 34.56 
z
" style="fill:#ffffff;"/>
   </g>
   <g id="PolyCollection_1">
    <defs>
     <path d="M 142.269796 -31.68 
L 142.269796 -264.528 
L 597.78 -264.528 
L 597.78 -31.68 
L 597.78 -31.68 
L 142.269796 -31.68 
z
" id="m80a25111b3" style="stroke:#808080;stroke-opacity:0.3;"/>
    </defs>
    <g clip-path="url(#pbce3569f64)">
     <use style="fill:#808080;fill-opacity:0.3;stroke:#808080;stroke-opacity:0.3;" x="0" xlink:href="#m80a25111b3" y="288"/>
    </g>
   </g>
   <g id="matplotlib.axis_1">
    <g id="xtick_1">
     <g id="line2d_1">
      <defs>
       <path d="M 0 0 
L 0 3.5 
" id="m8022298814" style="stroke:#000000;stroke-width:0.8;"/>
      </defs>
      <g>
       <use style="stroke:#000000;stroke-width:0.8;" x="90" xlink:href="#m8022298814" y="256.32"/>
      </g>
     </g>
     <g id="text_1">
      <!-- 0.0 -->
      <defs>
       <path d="M 31.78125 66.40625 
Q 24.171875 66.40625 20.328125 58.90625 
Q 16.5 51.421875 16.5 36.375 
Q 16.5 21.390625 20.328125 13.890625 
Q 24.171875 6.390625 31.78125 6.390625 
Q 39.453125 6.390625 43.28125 13.890625 
Q 47.125 21.390625 47.125 36.375 
Q 47.125 51.421875 43.28125 58.90625 
Q 39.453125 66.40625 31.78125 66.40625 
z
M 31.78125 74.21875 
Q 44.046875 74.21875 50.515625 64.515625 
Q 56.984375 54.828125 56.984375 36.375 
Q 56.984375 17.96875 50.515625 8.265625 
Q 44.046875 -1.421875 31.78125 -1.421875 
Q 19.53125 -1.421875 13.0625 8.265625 
Q 6.59375 17.96875 6.59375 36.375 
Q 6.59375 54.828125 13.0625 64.515625 
Q 19.53125 74.21875 31.78125 74.21875 
z
" id="DejaVuSans-48"/>
       <path d="M 10.6875 12.40625 
L 21 12.40625 
L 21 0 
L 10.6875 0 
z
" id="DejaVuSans-46"/>
      </defs>
      <g transform="translate(82.048438 270.918437)scale(0.1 -0.1)">
       <use xlink:href="#DejaVuSans-48"/>
       <use x="63.623047" xlink:href="#DejaVuSans-46"/>
       <use x="95.410156" xlink:href="#DejaVuSans-48"/>
      </g>
     </g>
    </g>
    <g id="xtick_2">
     <g id="line2d_2">
      <g>
       <use style="stroke:#000000;stroke-width:0.8;" x="203.877551" xlink:href="#m8022298814" y="256.32"/>
      </g>
     </g>
     <g id="text_2">
      <!-- 0.5 -->
      <defs>
       <path d="M 10.796875 72.90625 
L 49.515625 72.90625 
L 49.515625 64.59375 
L 19.828125 64.59375 
L 19.828125 46.734375 
Q 21.96875 47.46875 24.109375 47.828125 
Q 26.265625 48.1875 28.421875 48.1875 
Q 40.625 48.1875 47.75 41.5 
Q 54.890625 34.8125 54.890625 23.390625 
Q 54.890625 11.625 47.5625 5.09375 
Q 40.234375 -1.421875 26.90625 -1.421875 
Q 22.3125 -1.421875 17.546875 -0.640625 
Q 12.796875 0.140625 7.71875 1.703125 
L 7.71875 11.625 
Q 12.109375 9.234375 16.796875 8.0625 
Q 21.484375 6.890625 26.703125 6.890625 
Q 35.15625 6.890625 40.078125 11.328125 
Q 45.015625 15.765625 45.015625 23.390625 
Q 45.015625 31 40.078125 35.4375 
Q 35.15625 39.890625 26.703125 39.890625 
Q 22.75 39.890625 18.8125 39.015625 
Q 14.890625 38.140625 10.796875 36.28125 
z
" id="DejaVuSans-53"/>
      </defs>
      <g transform="translate(195.925989 270.918437)scale(0.1 -0.1)">
       <use xlink:href="#DejaVuSans-48"/>
       <use x="63.623047" xlink:href="#DejaVuSans-46"/>
       <use x="95.410156" xlink:href="#DejaVuSans-53"/>
      </g>
     </g>
    </g>
    <g id="xtick_3">
     <g id="line2d_3">
      <g>
       <use style="stroke:#000000;stroke-width:0.8;" x="317.755102" xlink:href="#m8022298814" y="256.32"/>
      </g>
     </g>
     <g id="text_3">
      <!-- 1.0 -->
      <defs>
       <path d="M 12.40625 8.296875 
L 28.515625 8.296875 
L 28.515625 63.921875 
L 10.984375 60.40625 
L 10.984375 69.390625 
L 28.421875 72.90625 
L 38.28125 72.90625 
L 38.28125 8.296875 
L 54.390625 8.296875 
L 54.390625 0 
L 12.40625 0 
z
" id="DejaVuSans-49"/>
      </defs>
      <g transform="translate(309.80354 270.918437)scale(0.1 -0.1)">
       <use xlink:href="#DejaVuSans-49"/>
       <use x="63.623047" xlink:href="#DejaVuSans-46"/>
       <use x="95.410156" xlink:href="#DejaVuSans-48"/>
      </g>
     </g>
    </g>
    <g id="xtick_4">
     <g id="line2d_4">
      <g>
       <use style="stroke:#000000;stroke-width:0.8;" x="431.632653" xlink:href="#m8022298814" y="256.32"/>
      </g>
     </g>
     <g id="text_4">
      <!-- 1.5 -->
      <g transform="translate(423.681091 270.918437)scale(0.1 -0.1)">
       <use xlink:href="#DejaVuSans-49"/>
       <use x="63.623047" xlink:href="#DejaVuSans-46"/>
       <use x="95.410156" xlink:href="#DejaVuSans-53"/>
      </g>
     </g>
    </g>
    <g id="xtick_5">
     <g id="line2d_5">
      <g>
       <use style="stroke:#000000;stroke-width:0.8;" x="545.510204" xlink:href="#m8022298814" y="256.32"/>
      </g>
     </g>
     <g id="text_5">
      <!-- 2.0 -->
      <defs>
       <path d="M 19.1875 8.296875 
L 53.609375 8.296875 
L 53.609375 0 
L 7.328125 0 
L 7.328125 8.296875 
Q 12.9375 14.109375 22.625 23.890625 
Q 32.328125 33.6875 34.8125 36.53125 
Q 39.546875 41.84375 41.421875 45.53125 
Q 43.3125 49.21875 43.3125 52.78125 
Q 43.3125 58.59375 39.234375 62.25 
Q 35.15625 65.921875 28.609375 65.921875 
Q 23.96875 65.921875 18.8125 64.3125 
Q 13.671875 62.703125 7.8125 59.421875 
L 7.8125 69.390625 
Q 13.765625 71.78125 18.9375 73 
Q 24.125 74.21875 28.421875 74.21875 
Q 39.75 74.21875 46.484375 68.546875 
Q 53.21875 62.890625 53.21875 53.421875 
Q 53.21875 48.921875 51.53125 44.890625 
Q 49.859375 40.875 45.40625 35.40625 
Q 44.1875 33.984375 37.640625 27.21875 
Q 31.109375 20.453125 19.1875 8.296875 
z
" id="DejaVuSans-50"/>
      </defs>
      <g transform="translate(537.558642 270.918437)scale(0.1 -0.1)">
       <use xlink:href="#DejaVuSans-50"/>
       <use x="63.623047" xlink:href="#DejaVuSans-46"/>
       <use x="95.410156" xlink:href="#DejaVuSans-48"/>
      </g>
     </g>
    </g>
    <g id="text_6">
     <!-- Time (s) -->
     <defs>
      <path d="M -0.296875 72.90625 
L 61.375 72.90625 
L 61.375 64.59375 
L 35.5 64.59375 
L 35.5 0 
L 25.59375 0 
L 25.59375 64.59375 
L -0.296875 64.59375 
z
" id="DejaVuSans-84"/>
      <path d="M 9.421875 54.6875 
L 18.40625 54.6875 
L 18.40625 0 
L 9.421875 0 
z
M 9.421875 75.984375 
L 18.40625 75.984375 
L 18.40625 64.59375 
L 9.421875 64.59375 
z
" id="DejaVuSans-105"/>
      <path d="M 52 44.1875 
Q 55.375 50.25 60.0625 53.125 
Q 64.75 56 71.09375 56 
Q 79.640625 56 84.28125 50.015625 
Q 88.921875 44.046875 88.921875 33.015625 
L 88.921875 0 
L 79.890625 0 
L 79.890625 32.71875 
Q 79.890625 40.578125 77.09375 44.375 
Q 74.3125 48.1875 68.609375 48.1875 
Q 61.625 48.1875 57.5625 43.546875 
Q 53.515625 38.921875 53.515625 30.90625 
L 53.515625 0 
L 44.484375 0 
L 44.484375 32.71875 
Q 44.484375 40.625 41.703125 44.40625 
Q 38.921875 48.1875 33.109375 48.1875 
Q 26.21875 48.1875 22.15625 43.53125 
Q 18.109375 38.875 18.109375 30.90625 
L 18.109375 0 
L 9.078125 0 
L 9.078125 54.6875 
L 18.109375 54.6875 
L 18.109375 46.1875 
Q 21.1875 51.21875 25.484375 53.609375 
Q 29.78125 56 35.6875 56 
Q 41.65625 56 45.828125 52.96875 
Q 50 49.953125 52 44.1875 
z
" id="DejaVuSans-109"/>
      <path d="M 56.203125 29.59375 
L 56.203125 25.203125 
L 14.890625 25.203125 
Q 15.484375 15.921875 20.484375 11.0625 
Q 25.484375 6.203125 34.421875 6.203125 
Q 39.59375 6.203125 44.453125 7.46875 
Q 49.3125 8.734375 54.109375 11.28125 
L 54.109375 2.78125 
Q 49.265625 0.734375 44.1875 -0.34375 
Q 39.109375 -1.421875 33.890625 -1.421875 
Q 20.796875 -1.421875 13.15625 6.1875 
Q 5.515625 13.8125 5.515625 26.8125 
Q 5.515625 40.234375 12.765625 48.109375 
Q 20.015625 56 32.328125 56 
Q 43.359375 56 49.78125 48.890625 
Q 56.203125 41.796875 56.203125 29.59375 
z
M 47.21875 32.234375 
Q 47.125 39.59375 43.09375 43.984375 
Q 39.0625 48.390625 32.421875 48.390625 
Q 24.90625 48.390625 20.390625 44.140625 
Q 15.875 39.890625 15.1875 32.171875 
z
" id="DejaVuSans-101"/>
      <path id="DejaVuSans-32"/>
      <path d="M 31 75.875 
Q 24.46875 64.65625 21.28125 53.65625 
Q 18.109375 42.671875 18.109375 31.390625 
Q 18.109375 20.125 21.3125 9.0625 
Q 24.515625 -2 31 -13.1875 
L 23.1875 -13.1875 
Q 15.875 -1.703125 12.234375 9.375 
Q 8.59375 20.453125 8.59375 31.390625 
Q 8.59375 42.28125 12.203125 53.3125 
Q 15.828125 64.359375 23.1875 75.875 
z
" id="DejaVuSans-40"/>
      <path d="M 44.28125 53.078125 
L 44.28125 44.578125 
Q 40.484375 46.53125 36.375 47.5 
Q 32.28125 48.484375 27.875 48.484375 
Q 21.1875 48.484375 17.84375 46.4375 
Q 14.5 44.390625 14.5 40.28125 
Q 14.5 37.15625 16.890625 35.375 
Q 19.28125 33.59375 26.515625 31.984375 
L 29.59375 31.296875 
Q 39.15625 29.25 43.1875 25.515625 
Q 47.21875 21.78125 47.21875 15.09375 
Q 47.21875 7.46875 41.1875 3.015625 
Q 35.15625 -1.421875 24.609375 -1.421875 
Q 20.21875 -1.421875 15.453125 -0.5625 
Q 10.6875 0.296875 5.421875 2 
L 5.421875 11.28125 
Q 10.40625 8.6875 15.234375 7.390625 
Q 20.0625 6.109375 24.8125 6.109375 
Q 31.15625 6.109375 34.5625 8.28125 
Q 37.984375 10.453125 37.984375 14.40625 
Q 37.984375 18.0625 35.515625 20.015625 
Q 33.0625 21.96875 24.703125 23.78125 
L 21.578125 24.515625 
Q 13.234375 26.265625 9.515625 29.90625 
Q 5.8125 33.546875 5.8125 39.890625 
Q 5.8125 47.609375 11.28125 51.796875 
Q 16.75 56 26.8125 56 
Q 31.78125 56 36.171875 55.265625 
Q 40.578125 54.546875 44.28125 53.078125 
z
" id="DejaVuSans-115"/>
      <path d="M 8.015625 75.875 
L 15.828125 75.875 
Q 23.140625 64.359375 26.78125 53.3125 
Q 30.421875 42.28125 30.421875 31.390625 
Q 30.421875 20.453125 26.78125 9.375 
Q 23.140625 -1.703125 15.828125 -13.1875 
L 8.015625 -13.1875 
Q 14.5 -2 17.703125 9.0625 
Q 20.90625 20.125 20.90625 31.390625 
Q 20.90625 42.671875 17.703125 53.65625 
Q 14.5 64.65625 8.015625 75.875 
z
" id="DejaVuSans-41"/>
     </defs>
     <g transform="translate(344.420625 286.11625)scale(0.12 -0.12)">
      <use xlink:href="#DejaVuSans-84"/>
      <use x="61.037109" xlink:href="#DejaVuSans-105"/>
      <use x="88.820312" xlink:href="#DejaVuSans-109"/>
      <use x="186.232422" xlink:href="#DejaVuSans-101"/>
      <use x="247.755859" xlink:href="#DejaVuSans-32"/>
      <use x="279.542969" xlink:href="#DejaVuSans-40"/>
      <use x="318.556641" xlink:href="#DejaVuSans-115"/>
      <use x="370.65625" xlink:href="#DejaVuSans-41"/>
     </g>
    </g>
   </g>
   <g id="matplotlib.axis_2">
    <g id="ytick_1">
     <g id="line2d_6">
      <defs>
       <path d="M 0 0 
L -3.5 0 
" id="m509d8c363a" style="stroke:#000000;stroke-width:0.8;"/>
      </defs>
      <g>
       <use style="stroke:#000000;stroke-width:0.8;" x="90" xlink:href="#m509d8c363a" y="252.96"/>
      </g>
     </g>
     <g id="text_7">
      <!-- 1.0 -->
      <g transform="translate(67.096875 256.759219)scale(0.1 -0.1)">
       <use xlink:href="#DejaVuSans-49"/>
       <use x="63.623047" xlink:href="#DejaVuSans-46"/>
       <use x="95.410156" xlink:href="#DejaVuSans-48"/>
      </g>
     </g>
    </g>
    <g id="ytick_2">
     <g id="line2d_7">
      <g>
       <use style="stroke:#000000;stroke-width:0.8;" x="90" xlink:href="#m509d8c363a" y="219.36"/>
      </g>
     </g>
     <g id="text_8">
      <!-- 1.5 -->
      <g transform="translate(67.096875 223.159219)scale(0.1 -0.1)">
       <use xlink:href="#DejaVuSans-49"/>
       <use x="63.623047" xlink:href="#DejaVuSans-46"/>
       <use x="95.410156" xlink:href="#DejaVuSans-53"/>
      </g>
     </g>
    </g>
    <g id="ytick_3">
     <g id="line2d_8">
      <g>
       <use style="stroke:#000000;stroke-width:0.8;" x="90" xlink:href="#m509d8c363a" y="185.76"/>
      </g>
     </g>
     <g id="text_9">
      <!-- 2.0 -->
      <g transform="translate(67.096875 189.559219)scale(0.1 -0.1)">
       <use xlink:href="#DejaVuSans-50"/>
       <use x="63.623047" xlink:href="#DejaVuSans-46"/>
       <use x="95.410156" xlink:href="#DejaVuSans-48"/>
      </g>
     </g>
    </g>
    <g id="ytick_4">
     <g id="line2d_9">
      <g>
       <use style="stroke:#000000;stroke-width:0.8;" x="90" xlink:href="#m509d8c363a" y="152.16"/>
      </g>
     </g>
     <g id="text_10">
      <!-- 2.5 -->
      <g transform="translate(67.096875 155.959219)scale(0.1 -0.1)">
       <use xlink:href="#DejaVuSans-50"/>
       <use x="63.623047" xlink:href="#DejaVuSans-46"/>
       <use x="95.410156" xlink:href="#DejaVuSans-53"/>
      </g>
     </g>
    </g>
    <g id="ytick_5">
     <g id="line2d_10">
      <g>
       <use style="stroke:#000000;stroke-width:0.8;" x="90" xlink:href="#m509d8c363a" y="118.56"/>
      </g>
     </g>
     <g id="text_11">
      <!-- 3.0 -->
      <defs>
       <path d="M 40.578125 39.3125 
Q 47.65625 37.796875 51.625 33 
Q 55.609375 28.21875 55.609375 21.1875 
Q 55.609375 10.40625 48.1875 4.484375 
Q 40.765625 -1.421875 27.09375 -1.421875 
Q 22.515625 -1.421875 17.65625 -0.515625 
Q 12.796875 0.390625 7.625 2.203125 
L 7.625 11.71875 
Q 11.71875 9.328125 16.59375 8.109375 
Q 21.484375 6.890625 26.8125 6.890625 
Q 36.078125 6.890625 40.9375 10.546875 
Q 45.796875 14.203125 45.796875 21.1875 
Q 45.796875 27.640625 41.28125 31.265625 
Q 36.765625 34.90625 28.71875 34.90625 
L 20.21875 34.90625 
L 20.21875 43.015625 
L 29.109375 43.015625 
Q 36.375 43.015625 40.234375 45.921875 
Q 44.09375 48.828125 44.09375 54.296875 
Q 44.09375 59.90625 40.109375 62.90625 
Q 36.140625 65.921875 28.71875 65.921875 
Q 24.65625 65.921875 20.015625 65.03125 
Q 15.375 64.15625 9.8125 62.3125 
L 9.8125 71.09375 
Q 15.4375 72.65625 20.34375 73.4375 
Q 25.25 74.21875 29.59375 74.21875 
Q 40.828125 74.21875 47.359375 69.109375 
Q 53.90625 64.015625 53.90625 55.328125 
Q 53.90625 49.265625 50.4375 45.09375 
Q 46.96875 40.921875 40.578125 39.3125 
z
" id="DejaVuSans-51"/>
      </defs>
      <g transform="translate(67.096875 122.359219)scale(0.1 -0.1)">
       <use xlink:href="#DejaVuSans-51"/>
       <use x="63.623047" xlink:href="#DejaVuSans-46"/>
       <use x="95.410156" xlink:href="#DejaVuSans-48"/>
      </g>
     </g>
    </g>
    <g id="ytick_6">
     <g id="line2d_11">
      <g>
       <use style="stroke:#000000;stroke-width:0.8;" x="90" xlink:href="#m509d8c363a" y="84.96"/>
      </g>
     </g>
     <g id="text_12">
      <!-- 3.5 -->
      <g transform="translate(67.096875 88.759219)scale(0.1 -0.1)">
       <use xlink:href="#DejaVuSans-51"/>
       <use x="63.623047" xlink:href="#DejaVuSans-46"/>
       <use x="95.410156" xlink:href="#DejaVuSans-53"/>
      </g>
     </g>
    </g>
    <g id="ytick_7">
     <g id="line2d_12">
      <g>
       <use style="stroke:#000000;stroke-width:0.8;" x="90" xlink:href="#m509d8c363a" y="51.36"/>
      </g>
     </g>
     <g id="text_13">
      <!-- 4.0 -->
      <defs>
       <path d="M 37.796875 64.3125 
L 12.890625 25.390625 
L 37.796875 25.390625 
z
M 35.203125 72.90625 
L 47.609375 72.90625 
L 47.609375 25.390625 
L 58.015625 25.390625 
L 58.015625 17.1875 
L 47.609375 17.1875 
L 47.609375 0 
L 37.796875 0 
L 37.796875 17.1875 
L 4.890625 17.1875 
L 4.890625 26.703125 
z
" id="DejaVuSans-52"/>
      </defs>
      <g transform="translate(67.096875 55.159219)scale(0.1 -0.1)">
       <use xlink:href="#DejaVuSans-52"/>
       <use x="63.623047" xlink:href="#DejaVuSans-46"/>
       <use x="95.410156" xlink:href="#DejaVuSans-48"/>
      </g>
     </g>
    </g>
   </g>
   <g id="line2d_13">
    <path clip-path="url(#pbce3569f64)" d="M 90 126.624 
L 92.277551 129.312 
L 94.555102 143.424 
L 96.832653 139.392 
L 99.110204 145.44 
L 101.387755 144.096 
L 103.665306 156.864 
L 105.942857 154.848 
L 108.220408 158.88 
L 110.497959 159.552 
L 112.77551 155.52 
L 115.053061 156.192 
L 117.330612 162.24 
L 119.608163 170.304 
L 121.885714 172.32 
L 124.163265 181.056 
L 126.440816 176.352 
L 128.718367 164.256 
L 130.995918 158.208 
L 133.273469 162.912 
L 135.55102 158.208 
L 137.828571 165.6 
L 140.106122 163.584 
L 142.383673 168.288 
L 144.661224 165.6 
L 146.938776 163.584 
L 149.216327 169.632 
L 153.771429 193.824 
L 156.04898 187.776 
L 158.326531 188.448 
L 160.604082 184.416 
L 162.881633 171.648 
L 165.159184 170.976 
L 167.436735 175.68 
L 169.714286 179.04 
L 171.991837 172.32 
L 174.269388 168.288 
L 176.546939 160.896 
L 178.82449 162.24 
L 181.102041 166.272 
L 183.379592 164.928 
L 185.657143 177.024 
L 187.934694 171.648 
L 190.212245 165.6 
L 192.489796 164.256 
L 194.767347 170.304 
L 197.044898 174.336 
L 199.322449 175.68 
L 201.6 174.336 
L 203.877551 171.648 
L 206.155102 170.304 
L 208.432653 170.304 
L 210.710204 171.648 
L 212.987755 178.368 
L 215.265306 177.696 
L 217.542857 174.336 
L 219.820408 168.288 
L 222.097959 167.616 
L 224.37551 172.32 
L 226.653061 183.744 
L 228.930612 189.792 
L 231.208163 188.448 
L 233.485714 198.528 
L 235.763265 187.776 
L 238.040816 183.744 
L 240.318367 181.728 
L 242.595918 183.072 
L 244.873469 189.12 
L 247.15102 187.104 
L 249.428571 178.368 
L 251.706122 177.696 
L 253.983673 177.696 
L 256.261224 178.368 
L 258.538776 185.088 
L 260.816327 181.056 
L 263.093878 184.416 
L 265.371429 193.824 
L 267.64898 188.448 
L 269.926531 193.152 
L 272.204082 198.528 
L 274.481633 198.528 
L 276.759184 202.56 
L 279.036735 196.512 
L 281.314286 193.824 
L 283.591837 205.248 
L 285.869388 204.576 
L 288.146939 199.872 
L 290.42449 198.528 
L 292.702041 196.512 
L 294.979592 201.888 
L 297.257143 202.56 
L 299.534694 203.904 
L 301.812245 200.544 
L 304.089796 204.576 
L 306.367347 192.48 
L 308.644898 187.776 
L 310.922449 187.776 
L 313.2 195.168 
L 315.477551 198.528 
L 317.755102 189.12 
L 320.032653 185.088 
L 322.310204 180.384 
L 324.587755 177.024 
L 326.865306 172.992 
L 331.420408 182.4 
L 333.697959 183.072 
L 335.97551 186.432 
L 338.253061 189.12 
L 340.530612 193.824 
L 342.808163 200.544 
L 345.085714 195.84 
L 347.363265 208.608 
L 349.640816 211.968 
L 351.918367 213.984 
L 354.195918 211.968 
L 356.473469 211.968 
L 358.75102 198.528 
L 361.028571 191.136 
L 365.583673 181.728 
L 367.861224 188.448 
L 370.138776 186.432 
L 372.416327 182.4 
L 374.693878 183.072 
L 376.971429 189.792 
L 379.24898 186.432 
L 381.526531 195.84 
L 383.804082 190.464 
L 386.081633 201.888 
L 388.359184 202.56 
L 390.636735 200.544 
L 392.914286 195.84 
L 395.191837 198.528 
L 397.469388 196.512 
L 399.746939 195.84 
L 402.02449 203.904 
L 404.302041 199.872 
L 406.579592 208.608 
L 408.857143 195.168 
L 411.134694 193.824 
L 413.412245 189.12 
L 415.689796 189.792 
L 417.967347 191.136 
L 420.244898 193.152 
L 422.522449 189.792 
L 424.8 181.728 
L 427.077551 187.104 
L 429.355102 183.744 
L 431.632653 191.808 
L 433.910204 196.512 
L 436.187755 203.904 
L 440.742857 203.904 
L 443.020408 209.952 
L 445.297959 211.296 
L 447.57551 213.984 
L 449.853061 211.296 
L 452.130612 212.64 
L 454.408163 209.28 
L 456.685714 207.936 
L 458.963265 207.264 
L 461.240816 213.312 
L 463.518367 213.312 
L 465.795918 205.248 
L 468.073469 198.528 
L 470.35102 201.216 
L 472.628571 199.2 
L 474.906122 195.84 
L 477.183673 197.856 
L 479.461224 201.216 
L 481.738776 197.184 
L 484.016327 193.824 
L 486.293878 197.184 
L 488.571429 201.888 
L 490.84898 209.952 
L 493.126531 207.936 
L 495.404082 211.968 
L 497.681633 213.984 
L 499.959184 210.624 
L 502.236735 201.888 
L 504.514286 201.888 
L 506.791837 195.84 
L 509.069388 191.808 
L 511.346939 184.416 
L 513.62449 186.432 
L 515.902041 191.136 
L 518.179592 190.464 
L 520.457143 188.448 
L 525.012245 199.2 
L 527.289796 195.168 
L 529.567347 199.2 
L 531.844898 197.184 
L 534.122449 201.888 
L 536.4 198.528 
L 538.677551 195.84 
L 540.955102 189.12 
L 545.510204 189.12 
L 547.787755 188.448 
L 550.065306 190.464 
L 552.342857 191.136 
L 556.897959 193.824 
L 559.17551 192.48 
L 561.453061 189.12 
L 563.730612 195.168 
L 566.008163 198.528 
L 568.285714 189.792 
L 570.563265 185.088 
L 572.840816 186.432 
L 575.118367 189.12 
L 577.395918 192.48 
L 579.673469 191.136 
L 581.95102 190.464 
L 584.228571 192.48 
L 586.506122 195.168 
L 588.783673 194.496 
L 591.061224 201.216 
L 593.338776 201.216 
L 595.616327 208.608 
L 600.171429 201.888 
L 602.44898 201.888 
L 604.726531 203.904 
L 607.004082 193.824 
L 609.281633 185.76 
L 611.559184 185.76 
L 613.836735 181.056 
L 616.114286 186.432 
L 618.391837 183.072 
L 620.669388 183.072 
L 622.946939 181.056 
L 625.22449 173.664 
L 627.502041 172.32 
L 629.779592 177.696 
L 632.057143 178.368 
L 634.334694 175.68 
L 636.612245 185.088 
L 638.889796 178.368 
L 641.167347 173.664 
L 643.444898 169.632 
L 645.722449 167.616 
L 648 175.008 
L 648 175.008 
" style="fill:none;stroke:#0000ff;stroke-linecap:square;stroke-opacity:0.05;stroke-width:1.5;"/>
   </g>
   <g id="line2d_14">
    <path clip-path="url(#pbce3569f64)" d="M 90 78.24 
L 92.277551 78.24 
L 96.832653 93.024 
L 99.110204 92.352 
L 101.387755 103.776 
L 103.665306 103.776 
L 105.942857 111.168 
L 108.220408 107.136 
L 110.497959 101.088 
L 112.77551 105.792 
L 115.053061 107.808 
L 117.330612 100.416 
L 121.885714 103.104 
L 124.163265 96.384 
L 126.440816 103.104 
L 128.718367 101.76 
L 130.995918 101.088 
L 133.273469 111.168 
L 135.55102 110.496 
L 137.828571 106.464 
L 140.106122 111.168 
L 142.383673 110.496 
L 144.661224 115.2 
L 146.938776 116.544 
L 149.216327 107.808 
L 151.493878 98.4 
L 153.771429 100.416 
L 158.326531 92.352 
L 160.604082 95.712 
L 162.881633 109.824 
L 165.159184 117.888 
L 167.436735 119.904 
L 169.714286 119.232 
L 171.991837 119.232 
L 174.269388 118.56 
L 176.546939 107.136 
L 178.82449 108.48 
L 181.102041 109.152 
L 183.379592 112.512 
L 185.657143 99.072 
L 187.934694 96.384 
L 190.212245 104.448 
L 192.489796 110.496 
L 194.767347 117.216 
L 197.044898 123.264 
L 199.322449 140.064 
L 201.6 150.144 
L 203.877551 148.128 
L 206.155102 143.424 
L 208.432653 151.488 
L 210.710204 150.144 
L 212.987755 146.112 
L 215.265306 154.176 
L 217.542857 154.848 
L 219.820408 159.552 
L 222.097959 160.224 
L 224.37551 158.88 
L 226.653061 159.552 
L 228.930612 161.568 
L 231.208163 160.224 
L 233.485714 165.6 
L 235.763265 164.256 
L 238.040816 152.832 
L 240.318367 159.552 
L 242.595918 162.912 
L 244.873469 166.944 
L 247.15102 160.896 
L 249.428571 166.272 
L 251.706122 169.632 
L 253.983673 170.304 
L 256.261224 172.32 
L 258.538776 172.992 
L 260.816327 179.712 
L 263.093878 177.024 
L 265.371429 176.352 
L 267.64898 176.352 
L 269.926531 175.008 
L 272.204082 171.648 
L 274.481633 164.256 
L 276.759184 160.224 
L 281.314286 160.224 
L 283.591837 158.208 
L 285.869388 160.224 
L 288.146939 160.896 
L 290.42449 152.832 
L 292.702041 151.488 
L 294.979592 154.176 
L 297.257143 164.928 
L 299.534694 162.912 
L 301.812245 155.52 
L 304.089796 153.504 
L 306.367347 154.176 
L 308.644898 153.504 
L 310.922449 154.176 
L 313.2 151.488 
L 315.477551 152.832 
L 317.755102 159.552 
L 320.032653 161.568 
L 322.310204 167.616 
L 326.865306 174.336 
L 329.142857 179.04 
L 331.420408 177.696 
L 333.697959 180.384 
L 335.97551 188.448 
L 338.253061 189.792 
L 340.530612 189.12 
L 342.808163 182.4 
L 347.363265 189.12 
L 349.640816 185.76 
L 351.918367 183.744 
L 354.195918 175.68 
L 356.473469 175.008 
L 358.75102 177.696 
L 361.028571 179.04 
L 363.306122 182.4 
L 365.583673 189.12 
L 367.861224 177.024 
L 370.138776 172.992 
L 372.416327 178.368 
L 374.693878 175.68 
L 376.971429 177.024 
L 379.24898 179.712 
L 381.526531 163.584 
L 383.804082 162.912 
L 386.081633 157.536 
L 388.359184 157.536 
L 390.636735 159.552 
L 392.914286 162.912 
L 395.191837 160.224 
L 397.469388 158.208 
L 399.746939 164.256 
L 402.02449 157.536 
L 404.302041 167.616 
L 406.579592 166.272 
L 408.857143 157.536 
L 411.134694 153.504 
L 413.412245 160.224 
L 415.689796 158.208 
L 420.244898 170.304 
L 422.522449 165.6 
L 424.8 164.256 
L 427.077551 161.568 
L 431.632653 176.352 
L 433.910204 172.32 
L 436.187755 166.944 
L 438.465306 164.256 
L 440.742857 156.864 
L 443.020408 147.456 
L 445.297959 156.192 
L 447.57551 159.552 
L 449.853061 164.256 
L 452.130612 162.24 
L 454.408163 166.944 
L 458.963265 169.632 
L 461.240816 165.6 
L 463.518367 160.224 
L 465.795918 156.192 
L 468.073469 141.408 
L 470.35102 141.408 
L 472.628571 134.016 
L 477.183673 124.608 
L 479.461224 119.232 
L 481.738776 114.528 
L 484.016327 110.496 
L 486.293878 95.712 
L 488.571429 102.432 
L 490.84898 108.48 
L 493.126531 95.04 
L 495.404082 85.632 
L 497.681633 83.616 
L 502.236735 67.488 
L 504.514286 67.488 
L 506.791837 64.128 
L 509.069388 76.224 
L 511.346939 72.864 
L 513.62449 73.536 
L 515.902041 77.568 
L 518.179592 84.288 
L 520.457143 80.928 
L 525.012245 87.648 
L 527.289796 86.976 
L 529.567347 82.272 
L 531.844898 73.536 
L 534.122449 74.88 
L 536.4 67.488 
L 538.677551 64.8 
L 540.955102 69.504 
L 543.232653 67.488 
L 545.510204 56.064 
L 547.787755 62.784 
L 550.065306 65.472 
L 552.342857 74.88 
L 554.620408 81.6 
L 556.897959 71.52 
L 559.17551 73.536 
L 561.453061 57.408 
L 563.730612 46.656 
L 566.008163 48 
L 568.285714 54.048 
L 570.563265 48.672 
L 572.840816 45.984 
L 575.118367 42.624 
L 577.395918 34.56 
L 579.673469 37.92 
L 581.95102 38.592 
L 584.228571 55.392 
L 586.506122 48 
L 588.783673 49.344 
L 591.061224 54.048 
L 593.338776 56.736 
L 595.616327 60.096 
L 597.893878 61.44 
L 600.171429 72.864 
L 602.44898 74.208 
L 604.726531 72.192 
L 607.004082 76.896 
L 609.281633 96.384 
L 611.559184 95.712 
L 613.836735 95.712 
L 616.114286 93.696 
L 618.391837 97.728 
L 620.669388 103.776 
L 622.946939 103.776 
L 625.22449 113.184 
L 627.502041 113.856 
L 629.779592 111.168 
L 632.057143 109.824 
L 634.334694 109.152 
L 636.612245 103.776 
L 638.889796 106.464 
L 641.167347 100.416 
L 643.444898 102.432 
L 645.722449 97.056 
L 648 89.664 
L 648 89.664 
" style="fill:none;stroke:#0000ff;stroke-linecap:square;stroke-opacity:0.05;stroke-width:1.5;"/>
   </g>
   <g id="line2d_15">
    <path clip-path="url(#pbce3569f64)" d="M 90 193.152 
L 92.277551 191.808 
L 94.555102 192.48 
L 96.832653 189.12 
L 99.110204 193.824 
L 101.387755 200.544 
L 105.942857 203.232 
L 108.220408 213.984 
L 110.497959 219.36 
L 112.77551 219.36 
L 115.053061 222.048 
L 117.330612 223.392 
L 119.608163 226.752 
L 121.885714 224.736 
L 124.163265 227.424 
L 126.440816 228.096 
L 128.718367 230.112 
L 130.995918 224.064 
L 133.273469 214.656 
L 135.55102 209.28 
L 137.828571 194.496 
L 140.106122 190.464 
L 142.383673 192.48 
L 144.661224 191.808 
L 146.938776 192.48 
L 149.216327 192.48 
L 153.771429 195.168 
L 156.04898 200.544 
L 158.326531 206.592 
L 160.604082 222.048 
L 162.881633 226.08 
L 165.159184 223.392 
L 167.436735 222.048 
L 169.714286 219.36 
L 171.991837 216 
L 174.269388 209.28 
L 176.546939 207.936 
L 178.82449 213.312 
L 181.102041 209.952 
L 183.379592 199.2 
L 185.657143 193.152 
L 187.934694 189.12 
L 190.212245 183.744 
L 192.489796 183.072 
L 194.767347 180.384 
L 197.044898 184.416 
L 199.322449 183.072 
L 201.6 178.368 
L 203.877551 176.352 
L 206.155102 183.072 
L 208.432653 189.12 
L 210.710204 189.792 
L 212.987755 192.48 
L 215.265306 183.072 
L 217.542857 181.056 
L 219.820408 178.368 
L 222.097959 175.008 
L 224.37551 177.024 
L 226.653061 181.728 
L 228.930612 183.072 
L 231.208163 177.024 
L 233.485714 183.744 
L 235.763265 188.448 
L 238.040816 201.888 
L 240.318367 209.28 
L 242.595918 209.952 
L 244.873469 215.328 
L 247.15102 215.328 
L 249.428571 209.952 
L 251.706122 207.936 
L 253.983673 205.248 
L 256.261224 189.792 
L 258.538776 176.352 
L 260.816327 170.304 
L 263.093878 167.616 
L 265.371429 172.32 
L 267.64898 175.68 
L 269.926531 172.992 
L 272.204082 180.384 
L 274.481633 181.056 
L 276.759184 185.76 
L 281.314286 214.656 
L 285.869388 228.096 
L 288.146939 225.408 
L 290.42449 218.016 
L 292.702041 211.296 
L 294.979592 207.936 
L 297.257143 203.232 
L 299.534694 203.904 
L 301.812245 198.528 
L 304.089796 191.808 
L 306.367347 184.416 
L 308.644898 177.696 
L 310.922449 177.024 
L 313.2 172.32 
L 315.477551 181.728 
L 317.755102 185.76 
L 320.032653 186.432 
L 322.310204 182.4 
L 324.587755 179.712 
L 326.865306 183.744 
L 329.142857 189.12 
L 331.420408 197.184 
L 333.697959 197.856 
L 335.97551 202.56 
L 338.253061 202.56 
L 340.530612 195.168 
L 342.808163 200.544 
L 345.085714 208.608 
L 347.363265 208.608 
L 349.640816 205.92 
L 354.195918 199.2 
L 356.473469 201.888 
L 358.75102 206.592 
L 361.028571 204.576 
L 363.306122 201.216 
L 365.583673 191.136 
L 367.861224 186.432 
L 370.138776 189.12 
L 372.416327 189.12 
L 374.693878 191.808 
L 376.971429 189.12 
L 379.24898 187.776 
L 381.526531 179.712 
L 383.804082 177.024 
L 386.081633 185.76 
L 388.359184 201.888 
L 390.636735 202.56 
L 392.914286 205.92 
L 395.191837 209.952 
L 397.469388 209.28 
L 399.746939 209.952 
L 402.02449 211.968 
L 404.302041 220.032 
L 406.579592 221.376 
L 408.857143 219.36 
L 411.134694 211.296 
L 413.412245 213.312 
L 415.689796 213.984 
L 417.967347 215.328 
L 420.244898 208.608 
L 422.522449 207.264 
L 424.8 207.264 
L 427.077551 203.232 
L 429.355102 205.248 
L 431.632653 208.608 
L 433.910204 208.608 
L 436.187755 205.92 
L 438.465306 204.576 
L 440.742857 206.592 
L 443.020408 212.64 
L 445.297959 211.968 
L 447.57551 209.952 
L 449.853061 216 
L 452.130612 214.656 
L 454.408163 207.936 
L 456.685714 211.296 
L 458.963265 215.328 
L 461.240816 215.328 
L 463.518367 207.264 
L 470.35102 211.296 
L 472.628571 210.624 
L 477.183673 218.688 
L 481.738776 211.968 
L 484.016327 212.64 
L 486.293878 219.36 
L 488.571429 220.704 
L 490.84898 225.408 
L 493.126531 220.032 
L 495.404082 218.016 
L 499.959184 215.328 
L 502.236735 214.656 
L 504.514286 216.672 
L 506.791837 217.344 
L 509.069388 208.608 
L 511.346939 207.936 
L 513.62449 205.248 
L 515.902041 213.312 
L 518.179592 211.296 
L 520.457143 210.624 
L 522.734694 215.328 
L 525.012245 218.688 
L 527.289796 220.032 
L 529.567347 216 
L 531.844898 221.376 
L 534.122449 220.032 
L 536.4 221.376 
L 538.677551 220.704 
L 540.955102 224.736 
L 543.232653 218.016 
L 545.510204 209.952 
L 547.787755 203.904 
L 550.065306 202.56 
L 552.342857 208.608 
L 554.620408 205.248 
L 556.897959 207.264 
L 559.17551 204.576 
L 561.453061 201.216 
L 563.730612 195.168 
L 566.008163 195.168 
L 568.285714 200.544 
L 570.563265 198.528 
L 572.840816 204.576 
L 575.118367 201.888 
L 577.395918 203.232 
L 579.673469 202.56 
L 581.95102 202.56 
L 584.228571 205.92 
L 586.506122 205.92 
L 591.061224 207.264 
L 593.338776 211.296 
L 595.616327 200.544 
L 597.893878 190.464 
L 600.171429 191.136 
L 602.44898 188.448 
L 604.726531 187.776 
L 607.004082 186.432 
L 609.281633 191.808 
L 611.559184 196.512 
L 613.836735 193.824 
L 616.114286 193.152 
L 618.391837 195.168 
L 620.669388 201.216 
L 622.946939 204.576 
L 625.22449 207.264 
L 627.502041 211.296 
L 629.779592 209.952 
L 632.057143 201.888 
L 634.334694 201.888 
L 636.612245 196.512 
L 641.167347 196.512 
L 643.444898 202.56 
L 645.722449 201.216 
L 648 199.2 
L 648 199.2 
" style="fill:none;stroke:#0000ff;stroke-linecap:square;stroke-opacity:0.05;stroke-width:1.5;"/>
   </g>
   <g id="line2d_16">
    <path clip-path="url(#pbce3569f64)" d="M 90 208.608 
L 92.277551 207.936 
L 94.555102 207.936 
L 96.832653 207.264 
L 99.110204 203.232 
L 101.387755 205.92 
L 103.665306 201.216 
L 105.942857 189.792 
L 108.220408 190.464 
L 110.497959 191.808 
L 112.77551 199.2 
L 115.053061 205.92 
L 117.330612 215.328 
L 119.608163 222.048 
L 121.885714 223.392 
L 124.163265 220.704 
L 126.440816 227.424 
L 128.718367 240.192 
L 130.995918 245.568 
L 133.273469 252.288 
L 135.55102 246.912 
L 137.828571 244.896 
L 142.383673 235.488 
L 144.661224 233.472 
L 146.938776 238.176 
L 149.216327 234.144 
L 151.493878 228.096 
L 153.771429 228.768 
L 156.04898 227.424 
L 158.326531 226.752 
L 160.604082 223.392 
L 162.881633 223.392 
L 165.159184 222.72 
L 167.436735 215.328 
L 169.714286 204.576 
L 171.991837 197.856 
L 174.269388 194.496 
L 176.546939 192.48 
L 178.82449 184.416 
L 181.102041 186.432 
L 183.379592 191.136 
L 185.657143 192.48 
L 187.934694 191.808 
L 190.212245 198.528 
L 192.489796 203.904 
L 194.767347 211.968 
L 197.044898 216 
L 199.322449 216 
L 201.6 225.408 
L 203.877551 225.408 
L 206.155102 224.736 
L 208.432653 224.736 
L 210.710204 226.08 
L 212.987755 224.736 
L 215.265306 224.736 
L 217.542857 221.376 
L 219.820408 220.032 
L 222.097959 221.376 
L 224.37551 216.672 
L 226.653061 215.328 
L 228.930612 207.264 
L 233.485714 203.232 
L 235.763265 207.264 
L 238.040816 202.56 
L 240.318367 199.872 
L 242.595918 197.856 
L 244.873469 197.856 
L 247.15102 198.528 
L 249.428571 197.184 
L 251.706122 205.92 
L 253.983673 205.92 
L 256.261224 206.592 
L 258.538776 199.872 
L 260.816327 200.544 
L 263.093878 208.608 
L 265.371429 208.608 
L 267.64898 202.56 
L 269.926531 190.464 
L 272.204082 187.776 
L 274.481633 183.744 
L 276.759184 181.728 
L 279.036735 184.416 
L 281.314286 184.416 
L 283.591837 188.448 
L 285.869388 181.728 
L 290.42449 199.2 
L 292.702041 211.968 
L 294.979592 215.328 
L 297.257143 220.704 
L 299.534694 225.408 
L 301.812245 219.36 
L 304.089796 223.392 
L 306.367347 219.36 
L 308.644898 226.08 
L 310.922449 223.392 
L 313.2 216.672 
L 315.477551 215.328 
L 317.755102 214.656 
L 320.032653 199.872 
L 322.310204 200.544 
L 324.587755 207.936 
L 326.865306 209.28 
L 329.142857 213.984 
L 331.420408 208.608 
L 333.697959 198.528 
L 335.97551 191.136 
L 338.253061 189.12 
L 340.530612 189.792 
L 342.808163 197.184 
L 345.085714 193.824 
L 347.363265 183.744 
L 349.640816 171.648 
L 351.918367 164.256 
L 354.195918 160.896 
L 356.473469 165.6 
L 358.75102 179.04 
L 361.028571 176.352 
L 363.306122 177.024 
L 365.583673 181.056 
L 367.861224 181.056 
L 370.138776 190.464 
L 372.416327 200.544 
L 374.693878 202.56 
L 376.971429 208.608 
L 379.24898 213.312 
L 381.526531 209.28 
L 383.804082 212.64 
L 386.081633 213.312 
L 388.359184 212.64 
L 390.636735 213.984 
L 392.914286 207.936 
L 395.191837 209.28 
L 397.469388 213.984 
L 399.746939 211.968 
L 402.02449 207.936 
L 404.302041 207.264 
L 406.579592 203.904 
L 408.857143 201.216 
L 411.134694 205.92 
L 413.412245 205.92 
L 415.689796 211.296 
L 417.967347 205.248 
L 420.244898 207.264 
L 422.522449 203.904 
L 424.8 205.248 
L 427.077551 203.904 
L 429.355102 210.624 
L 431.632653 207.936 
L 433.910204 205.92 
L 436.187755 205.248 
L 438.465306 205.248 
L 440.742857 207.264 
L 443.020408 206.592 
L 445.297959 210.624 
L 447.57551 208.608 
L 449.853061 203.904 
L 452.130612 197.856 
L 454.408163 194.496 
L 456.685714 192.48 
L 458.963265 183.072 
L 461.240816 181.056 
L 463.518367 184.416 
L 465.795918 183.072 
L 470.35102 189.792 
L 472.628571 199.2 
L 474.906122 201.888 
L 477.183673 205.92 
L 479.461224 202.56 
L 481.738776 212.64 
L 484.016327 211.296 
L 486.293878 205.92 
L 488.571429 204.576 
L 490.84898 201.216 
L 493.126531 203.232 
L 495.404082 199.2 
L 497.681633 203.232 
L 499.959184 204.576 
L 502.236735 211.296 
L 504.514286 209.952 
L 506.791837 215.328 
L 509.069388 217.344 
L 511.346939 221.376 
L 513.62449 218.688 
L 515.902041 209.952 
L 518.179592 197.184 
L 520.457143 187.104 
L 522.734694 182.4 
L 525.012245 173.664 
L 527.289796 177.696 
L 529.567347 172.992 
L 531.844898 178.368 
L 534.122449 177.696 
L 536.4 181.728 
L 538.677551 184.416 
L 540.955102 195.168 
L 543.232653 195.84 
L 545.510204 199.2 
L 547.787755 199.872 
L 550.065306 189.12 
L 552.342857 191.136 
L 554.620408 172.992 
L 556.897959 165.6 
L 559.17551 168.288 
L 561.453061 164.928 
L 563.730612 168.288 
L 566.008163 168.96 
L 568.285714 159.552 
L 572.840816 151.488 
L 575.118367 142.752 
L 577.395918 150.816 
L 579.673469 151.488 
L 581.95102 148.8 
L 584.228571 152.832 
L 586.506122 150.144 
L 588.783673 151.488 
L 591.061224 155.52 
L 593.338776 158.208 
L 595.616327 160.224 
L 597.893878 160.896 
L 600.171429 160.896 
L 602.44898 161.568 
L 604.726531 160.224 
L 607.004082 153.504 
L 609.281633 151.488 
L 611.559184 148.128 
L 613.836735 148.128 
L 616.114286 146.784 
L 618.391837 152.832 
L 620.669388 146.112 
L 622.946939 148.128 
L 625.22449 144.096 
L 627.502041 145.44 
L 629.779592 149.472 
L 632.057143 154.176 
L 634.334694 157.536 
L 636.612245 163.584 
L 638.889796 163.584 
L 641.167347 167.616 
L 643.444898 177.024 
L 645.722449 174.336 
L 648 168.288 
L 648 168.288 
" style="fill:none;stroke:#0000ff;stroke-linecap:square;stroke-opacity:0.05;stroke-width:1.5;"/>
   </g>
   <g id="line2d_17">
    <path clip-path="url(#pbce3569f64)" d="M 90 92.352 
L 92.277551 92.352 
L 94.555102 93.696 
L 96.832653 86.304 
L 99.110204 88.32 
L 101.387755 85.632 
L 103.665306 92.352 
L 105.942857 92.352 
L 110.497959 80.256 
L 112.77551 79.584 
L 117.330612 88.992 
L 119.608163 96.384 
L 121.885714 93.696 
L 124.163265 97.056 
L 126.440816 88.32 
L 128.718367 94.368 
L 130.995918 97.056 
L 133.273469 101.76 
L 135.55102 105.12 
L 137.828571 101.76 
L 140.106122 94.368 
L 142.383673 101.76 
L 146.938776 89.664 
L 149.216327 94.368 
L 151.493878 89.664 
L 153.771429 78.912 
L 156.04898 76.224 
L 158.326531 67.488 
L 160.604082 71.52 
L 162.881633 78.24 
L 165.159184 78.24 
L 167.436735 78.912 
L 169.714286 76.224 
L 171.991837 77.568 
L 174.269388 86.976 
L 176.546939 100.416 
L 178.82449 100.416 
L 181.102041 99.744 
L 183.379592 97.728 
L 185.657143 100.416 
L 187.934694 94.368 
L 190.212245 101.76 
L 192.489796 106.464 
L 194.767347 101.76 
L 197.044898 98.4 
L 199.322449 95.712 
L 201.6 95.712 
L 203.877551 102.432 
L 206.155102 103.104 
L 208.432653 97.056 
L 210.710204 100.416 
L 212.987755 97.728 
L 215.265306 103.776 
L 217.542857 104.448 
L 219.820408 95.04 
L 222.097959 93.696 
L 224.37551 91.68 
L 226.653061 87.648 
L 228.930612 88.992 
L 231.208163 88.992 
L 233.485714 86.976 
L 235.763265 95.712 
L 238.040816 84.288 
L 240.318367 86.304 
L 242.595918 98.4 
L 244.873469 93.696 
L 247.15102 99.072 
L 249.428571 97.056 
L 251.706122 99.072 
L 253.983673 95.712 
L 256.261224 93.696 
L 258.538776 95.04 
L 260.816327 97.728 
L 263.093878 105.792 
L 265.371429 99.072 
L 267.64898 105.792 
L 269.926531 109.152 
L 272.204082 114.528 
L 274.481633 121.248 
L 276.759184 133.344 
L 279.036735 138.048 
L 281.314286 134.016 
L 283.591837 143.424 
L 285.869388 132.672 
L 288.146939 141.408 
L 290.42449 144.768 
L 292.702041 130.656 
L 294.979592 132 
L 297.257143 123.936 
L 299.534694 121.92 
L 301.812245 115.2 
L 304.089796 113.856 
L 306.367347 105.12 
L 308.644898 107.808 
L 310.922449 90.336 
L 313.2 82.944 
L 317.755102 81.6 
L 320.032653 74.208 
L 322.310204 68.16 
L 324.587755 66.816 
L 326.865306 67.488 
L 329.142857 71.52 
L 331.420408 71.52 
L 333.697959 76.896 
L 335.97551 65.472 
L 338.253061 87.648 
L 340.530612 72.192 
L 342.808163 71.52 
L 345.085714 74.208 
L 347.363265 77.568 
L 349.640816 68.832 
L 351.918367 66.144 
L 354.195918 59.424 
L 356.473469 64.128 
L 358.75102 70.848 
L 361.028571 56.064 
L 365.583673 74.88 
L 367.861224 80.928 
L 370.138776 76.896 
L 372.416327 81.6 
L 374.693878 81.6 
L 376.971429 84.96 
L 379.24898 87.648 
L 381.526531 87.648 
L 383.804082 86.976 
L 386.081633 84.288 
L 388.359184 84.288 
L 390.636735 76.224 
L 392.914286 70.176 
L 395.191837 71.52 
L 397.469388 64.128 
L 399.746939 67.488 
L 402.02449 59.424 
L 404.302041 57.408 
L 406.579592 57.408 
L 408.857143 56.064 
L 411.134694 45.984 
L 413.412245 44.64 
L 415.689796 56.064 
L 417.967347 51.36 
L 420.244898 56.064 
L 422.522449 63.456 
L 424.8 65.472 
L 427.077551 74.88 
L 429.355102 73.536 
L 431.632653 80.256 
L 433.910204 76.896 
L 436.187755 70.176 
L 438.465306 69.504 
L 440.742857 64.128 
L 443.020408 73.536 
L 445.297959 62.784 
L 447.57551 67.488 
L 449.853061 60.768 
L 452.130612 68.16 
L 454.408163 62.112 
L 458.963265 66.144 
L 461.240816 61.44 
L 463.518367 66.816 
L 465.795918 54.72 
L 468.073469 50.016 
L 470.35102 43.296 
L 472.628571 47.328 
L 474.906122 45.984 
L 479.461224 41.952 
L 481.738776 47.328 
L 484.016327 50.688 
L 486.293878 55.392 
L 488.571429 56.736 
L 490.84898 62.112 
L 493.126531 62.784 
L 495.404082 62.112 
L 497.681633 62.784 
L 499.959184 72.864 
L 502.236735 78.912 
L 504.514286 81.6 
L 506.791837 82.944 
L 509.069388 76.896 
L 511.346939 78.24 
L 513.62449 78.24 
L 515.902041 77.568 
L 518.179592 74.208 
L 520.457143 70.176 
L 522.734694 62.784 
L 527.289796 61.44 
L 529.567347 60.096 
L 531.844898 65.472 
L 534.122449 74.88 
L 536.4 81.6 
L 538.677551 90.336 
L 540.955102 91.68 
L 543.232653 96.384 
L 545.510204 108.48 
L 547.787755 110.496 
L 550.065306 115.2 
L 552.342857 121.92 
L 554.620408 119.904 
L 556.897959 107.808 
L 559.17551 101.76 
L 561.453061 99.744 
L 563.730612 98.4 
L 566.008163 94.368 
L 568.285714 89.664 
L 570.563265 97.728 
L 572.840816 102.432 
L 575.118367 101.76 
L 577.395918 108.48 
L 579.673469 111.84 
L 581.95102 113.184 
L 584.228571 109.152 
L 586.506122 123.264 
L 588.783673 124.608 
L 591.061224 128.64 
L 593.338776 132 
L 595.616327 132 
L 597.893878 124.608 
L 600.171429 125.28 
L 602.44898 127.968 
L 604.726531 136.032 
L 607.004082 142.08 
L 609.281633 131.328 
L 611.559184 132 
L 613.836735 125.28 
L 616.114286 117.888 
L 618.391837 115.2 
L 620.669388 127.296 
L 622.946939 131.328 
L 625.22449 137.376 
L 627.502041 138.048 
L 629.779592 140.736 
L 632.057143 138.048 
L 634.334694 141.408 
L 636.612245 152.832 
L 638.889796 159.552 
L 641.167347 162.912 
L 643.444898 161.568 
L 645.722449 158.208 
L 648 160.224 
L 648 160.224 
" style="fill:none;stroke:#0000ff;stroke-linecap:square;stroke-opacity:0.05;stroke-width:1.5;"/>
   </g>
   <g id="line2d_18">
    <path clip-path="url(#pbce3569f64)" d="M 90 195.168 
L 92.277551 197.856 
L 94.555102 199.872 
L 99.110204 194.496 
L 101.387755 192.48 
L 105.942857 156.192 
L 108.220408 140.736 
L 110.497959 142.08 
L 112.77551 133.344 
L 115.053061 125.28 
L 117.330612 112.512 
L 119.608163 109.152 
L 121.885714 106.464 
L 124.163265 106.464 
L 126.440816 117.216 
L 128.718367 117.216 
L 130.995918 111.84 
L 133.273469 103.776 
L 135.55102 98.4 
L 137.828571 93.696 
L 140.106122 95.04 
L 142.383673 85.632 
L 144.661224 81.6 
L 146.938776 62.784 
L 149.216327 60.768 
L 151.493878 61.44 
L 153.771429 67.488 
L 156.04898 56.064 
L 158.326531 54.72 
L 160.604082 52.704 
L 162.881633 43.968 
L 165.159184 48.672 
L 167.436735 49.344 
L 169.714286 56.064 
L 171.991837 45.312 
L 174.269388 39.264 
L 176.546939 36.576 
L 178.82449 48 
L 181.102041 50.016 
L 183.379592 54.048 
L 185.657143 62.784 
L 187.934694 55.392 
L 190.212245 60.768 
L 192.489796 70.848 
L 194.767347 80.256 
L 197.044898 91.68 
L 199.322449 86.976 
L 203.877551 89.664 
L 206.155102 94.368 
L 208.432653 91.68 
L 210.710204 102.432 
L 212.987755 108.48 
L 215.265306 105.792 
L 217.542857 94.368 
L 219.820408 78.912 
L 222.097959 90.336 
L 224.37551 89.664 
L 226.653061 91.68 
L 228.930612 80.256 
L 231.208163 84.96 
L 233.485714 81.6 
L 235.763265 69.504 
L 238.040816 70.176 
L 240.318367 80.928 
L 242.595918 92.352 
L 244.873469 84.96 
L 247.15102 88.992 
L 249.428571 83.616 
L 251.706122 86.304 
L 253.983673 76.224 
L 256.261224 75.552 
L 258.538776 69.504 
L 260.816327 56.736 
L 265.371429 60.768 
L 267.64898 64.128 
L 269.926531 60.768 
L 272.204082 56.736 
L 274.481633 48 
L 276.759184 48.672 
L 279.036735 43.968 
L 281.314286 55.392 
L 283.591837 67.488 
L 285.869388 63.456 
L 290.42449 56.736 
L 292.702041 64.8 
L 297.257143 90.336 
L 299.534694 100.416 
L 301.812245 106.464 
L 304.089796 106.464 
L 306.367347 107.808 
L 308.644898 103.776 
L 310.922449 108.48 
L 313.2 107.808 
L 315.477551 97.056 
L 317.755102 93.024 
L 320.032653 97.056 
L 322.310204 92.352 
L 324.587755 88.992 
L 326.865306 82.272 
L 329.142857 81.6 
L 331.420408 88.32 
L 333.697959 92.352 
L 335.97551 97.728 
L 338.253061 106.464 
L 340.530612 103.104 
L 342.808163 103.776 
L 345.085714 107.136 
L 347.363265 113.856 
L 349.640816 115.872 
L 351.918367 113.184 
L 354.195918 118.56 
L 356.473469 117.216 
L 358.75102 121.248 
L 361.028571 120.576 
L 363.306122 132 
L 365.583673 126.624 
L 367.861224 118.56 
L 370.138776 103.776 
L 372.416327 107.808 
L 374.693878 112.512 
L 376.971429 109.152 
L 379.24898 109.152 
L 381.526531 107.136 
L 383.804082 114.528 
L 386.081633 113.184 
L 388.359184 117.216 
L 390.636735 127.296 
L 392.914286 139.392 
L 395.191837 138.72 
L 397.469388 134.688 
L 399.746939 134.688 
L 402.02449 135.36 
L 404.302041 142.752 
L 406.579592 132 
L 408.857143 127.296 
L 411.134694 123.936 
L 413.412245 123.264 
L 415.689796 125.28 
L 417.967347 129.312 
L 420.244898 137.376 
L 422.522449 137.376 
L 424.8 141.408 
L 427.077551 140.736 
L 429.355102 142.08 
L 431.632653 148.8 
L 433.910204 150.816 
L 436.187755 150.144 
L 438.465306 151.488 
L 440.742857 153.504 
L 443.020408 152.832 
L 445.297959 155.52 
L 447.57551 157.536 
L 449.853061 160.224 
L 452.130612 163.584 
L 454.408163 169.632 
L 456.685714 172.992 
L 458.963265 183.072 
L 461.240816 189.12 
L 463.518367 188.448 
L 465.795918 192.48 
L 468.073469 179.712 
L 470.35102 175.008 
L 472.628571 171.648 
L 474.906122 171.648 
L 477.183673 165.6 
L 479.461224 158.88 
L 481.738776 150.816 
L 484.016327 144.096 
L 486.293878 139.392 
L 488.571429 129.312 
L 490.84898 138.048 
L 493.126531 131.328 
L 495.404082 123.936 
L 497.681633 121.248 
L 499.959184 113.856 
L 502.236735 115.872 
L 504.514286 105.792 
L 506.791837 99.744 
L 509.069388 100.416 
L 511.346939 95.712 
L 513.62449 87.648 
L 515.902041 76.224 
L 518.179592 68.832 
L 520.457143 55.392 
L 522.734694 55.392 
L 525.012245 41.952 
L 527.289796 38.592 
L 529.567347 40.608 
L 531.844898 39.264 
L 534.122449 40.608 
L 536.4 50.016 
L 538.677551 60.096 
L 540.955102 56.736 
L 543.232653 65.472 
L 545.510204 64.128 
L 547.787755 73.536 
L 550.065306 74.88 
L 552.342857 78.24 
L 554.620408 83.616 
L 556.897959 83.616 
L 559.17551 81.6 
L 561.453061 87.648 
L 566.008163 94.368 
L 568.285714 101.088 
L 570.563265 96.384 
L 572.840816 108.48 
L 575.118367 109.152 
L 577.395918 105.12 
L 579.673469 100.416 
L 581.95102 97.056 
L 584.228571 87.648 
L 586.506122 85.632 
L 588.783673 84.96 
L 591.061224 80.928 
L 593.338776 88.992 
L 595.616327 86.976 
L 597.893878 86.304 
L 600.171429 91.68 
L 602.44898 100.416 
L 604.726531 111.84 
L 611.559184 125.952 
L 613.836735 125.952 
L 616.114286 131.328 
L 618.391837 126.624 
L 620.669388 130.656 
L 622.946939 127.968 
L 625.22449 130.656 
L 627.502041 130.656 
L 629.779592 140.064 
L 632.057143 151.488 
L 634.334694 158.208 
L 636.612245 160.896 
L 638.889796 162.912 
L 641.167347 177.696 
L 643.444898 178.368 
L 645.722449 183.744 
L 648 187.104 
L 648 187.104 
" style="fill:none;stroke:#0000ff;stroke-linecap:square;stroke-opacity:0.05;stroke-width:1.5;"/>
   </g>
   <g id="line2d_19">
    <path clip-path="url(#pbce3569f64)" d="M 90 222.72 
L 92.277551 218.688 
L 94.555102 219.36 
L 96.832653 214.656 
L 99.110204 207.936 
L 101.387755 198.528 
L 103.665306 191.808 
L 105.942857 180.384 
L 108.220408 178.368 
L 110.497959 177.024 
L 112.77551 185.088 
L 115.053061 188.448 
L 117.330612 187.776 
L 121.885714 201.216 
L 124.163265 206.592 
L 128.718367 214.656 
L 130.995918 210.624 
L 133.273469 207.264 
L 135.55102 203.232 
L 137.828571 204.576 
L 140.106122 203.904 
L 142.383673 196.512 
L 144.661224 194.496 
L 149.216327 193.152 
L 151.493878 197.184 
L 156.04898 199.872 
L 158.326531 192.48 
L 160.604082 195.84 
L 165.159184 205.248 
L 167.436735 207.264 
L 169.714286 205.248 
L 171.991837 210.624 
L 174.269388 201.888 
L 176.546939 203.904 
L 178.82449 201.888 
L 181.102041 209.28 
L 183.379592 196.512 
L 185.657143 185.088 
L 187.934694 185.76 
L 190.212245 188.448 
L 194.767347 185.76 
L 197.044898 194.496 
L 199.322449 199.872 
L 201.6 209.952 
L 203.877551 208.608 
L 206.155102 216.672 
L 208.432653 221.376 
L 210.710204 216 
L 212.987755 207.264 
L 215.265306 208.608 
L 217.542857 207.936 
L 219.820408 203.904 
L 222.097959 201.216 
L 224.37551 193.152 
L 226.653061 187.776 
L 228.930612 187.104 
L 231.208163 191.136 
L 233.485714 196.512 
L 235.763265 197.184 
L 238.040816 199.2 
L 240.318367 198.528 
L 242.595918 198.528 
L 244.873469 195.168 
L 249.428571 207.264 
L 251.706122 204.576 
L 253.983673 207.936 
L 256.261224 212.64 
L 258.538776 218.016 
L 260.816327 218.688 
L 263.093878 221.376 
L 265.371429 223.392 
L 267.64898 224.736 
L 269.926531 222.72 
L 272.204082 220.032 
L 274.481633 218.016 
L 276.759184 211.968 
L 279.036735 208.608 
L 283.591837 200.544 
L 285.869388 194.496 
L 288.146939 196.512 
L 290.42449 195.84 
L 292.702041 191.808 
L 294.979592 191.808 
L 297.257143 195.168 
L 299.534694 189.792 
L 301.812245 179.712 
L 304.089796 176.352 
L 306.367347 179.712 
L 308.644898 181.056 
L 310.922449 175.68 
L 313.2 173.664 
L 315.477551 172.32 
L 317.755102 172.992 
L 320.032653 172.992 
L 322.310204 180.384 
L 324.587755 192.48 
L 326.865306 201.888 
L 329.142857 201.216 
L 331.420408 199.872 
L 333.697959 203.904 
L 335.97551 196.512 
L 338.253061 203.232 
L 340.530612 204.576 
L 342.808163 207.264 
L 345.085714 207.264 
L 347.363265 199.872 
L 349.640816 188.448 
L 351.918367 191.808 
L 354.195918 191.808 
L 356.473469 192.48 
L 358.75102 198.528 
L 361.028571 199.2 
L 363.306122 202.56 
L 365.583673 205.248 
L 367.861224 207.264 
L 370.138776 205.248 
L 372.416327 212.64 
L 374.693878 210.624 
L 376.971429 218.016 
L 379.24898 218.688 
L 381.526531 228.768 
L 383.804082 224.736 
L 386.081633 219.36 
L 388.359184 216.672 
L 390.636735 216.672 
L 392.914286 222.72 
L 395.191837 219.36 
L 397.469388 220.032 
L 402.02449 214.656 
L 404.302041 209.952 
L 406.579592 207.936 
L 408.857143 211.968 
L 411.134694 211.296 
L 413.412245 207.936 
L 415.689796 210.624 
L 417.967347 214.656 
L 420.244898 215.328 
L 422.522449 209.952 
L 424.8 207.936 
L 427.077551 203.904 
L 429.355102 206.592 
L 433.910204 203.904 
L 436.187755 200.544 
L 438.465306 194.496 
L 440.742857 193.824 
L 443.020408 193.824 
L 445.297959 195.84 
L 447.57551 196.512 
L 449.853061 197.856 
L 452.130612 190.464 
L 454.408163 185.088 
L 456.685714 190.464 
L 458.963265 184.416 
L 461.240816 185.76 
L 463.518367 179.04 
L 465.795918 176.352 
L 468.073469 178.368 
L 470.35102 178.368 
L 472.628571 181.728 
L 474.906122 181.728 
L 477.183673 182.4 
L 479.461224 181.728 
L 481.738776 191.808 
L 486.293878 197.184 
L 488.571429 197.184 
L 490.84898 198.528 
L 493.126531 202.56 
L 495.404082 204.576 
L 497.681633 210.624 
L 499.959184 220.032 
L 502.236735 217.344 
L 504.514286 220.032 
L 506.791837 222.048 
L 509.069388 222.048 
L 511.346939 220.704 
L 513.62449 218.688 
L 515.902041 213.312 
L 518.179592 205.92 
L 520.457143 211.968 
L 522.734694 207.936 
L 525.012245 205.92 
L 527.289796 205.248 
L 529.567347 199.2 
L 531.844898 204.576 
L 534.122449 208.608 
L 536.4 209.952 
L 538.677551 207.936 
L 540.955102 209.28 
L 543.232653 207.936 
L 545.510204 203.232 
L 547.787755 203.904 
L 550.065306 198.528 
L 552.342857 203.232 
L 554.620408 203.904 
L 556.897959 198.528 
L 559.17551 196.512 
L 561.453061 201.216 
L 563.730612 207.936 
L 566.008163 203.232 
L 568.285714 208.608 
L 570.563265 209.28 
L 572.840816 210.624 
L 575.118367 205.248 
L 577.395918 202.56 
L 579.673469 213.312 
L 581.95102 219.36 
L 584.228571 224.736 
L 586.506122 222.72 
L 588.783673 222.048 
L 591.061224 219.36 
L 593.338776 220.032 
L 597.893878 237.504 
L 600.171429 232.128 
L 602.44898 219.36 
L 604.726531 207.264 
L 607.004082 197.184 
L 609.281633 193.152 
L 611.559184 190.464 
L 613.836735 189.792 
L 616.114286 193.824 
L 618.391837 181.056 
L 620.669388 175.68 
L 622.946939 177.024 
L 625.22449 174.336 
L 627.502041 175.68 
L 629.779592 181.728 
L 632.057143 183.072 
L 634.334694 185.76 
L 636.612245 178.368 
L 638.889796 166.944 
L 641.167347 166.944 
L 643.444898 160.224 
L 645.722449 162.912 
L 648 170.976 
L 648 170.976 
" style="fill:none;stroke:#0000ff;stroke-linecap:square;stroke-opacity:0.05;stroke-width:1.5;"/>
   </g>
   <g id="line2d_20">
    <path clip-path="url(#pbce3569f64)" d="M 90 209.28 
L 92.277551 216.672 
L 94.555102 215.328 
L 96.832653 210.624 
L 99.110204 209.952 
L 101.387755 222.048 
L 103.665306 221.376 
L 105.942857 215.328 
L 108.220408 216 
L 110.497959 219.36 
L 112.77551 218.688 
L 115.053061 211.968 
L 117.330612 211.296 
L 119.608163 207.936 
L 121.885714 205.92 
L 124.163265 196.512 
L 126.440816 199.2 
L 128.718367 203.232 
L 133.273469 204.576 
L 135.55102 201.888 
L 137.828571 197.856 
L 140.106122 202.56 
L 142.383673 213.984 
L 144.661224 215.328 
L 146.938776 218.016 
L 149.216327 219.36 
L 151.493878 214.656 
L 153.771429 210.624 
L 158.326531 210.624 
L 160.604082 222.048 
L 162.881633 220.704 
L 165.159184 215.328 
L 167.436735 219.36 
L 169.714286 218.016 
L 171.991837 214.656 
L 174.269388 222.048 
L 176.546939 222.72 
L 178.82449 220.032 
L 181.102041 223.392 
L 183.379592 210.624 
L 185.657143 205.248 
L 187.934694 207.264 
L 190.212245 203.232 
L 192.489796 206.592 
L 194.767347 203.232 
L 197.044898 201.216 
L 199.322449 202.56 
L 201.6 207.264 
L 203.877551 206.592 
L 206.155102 216 
L 208.432653 221.376 
L 210.710204 222.048 
L 212.987755 223.392 
L 215.265306 223.392 
L 217.542857 226.752 
L 219.820408 220.704 
L 222.097959 224.064 
L 224.37551 213.984 
L 226.653061 207.936 
L 228.930612 203.232 
L 231.208163 196.512 
L 233.485714 190.464 
L 235.763265 183.744 
L 238.040816 173.664 
L 240.318367 166.272 
L 242.595918 162.24 
L 244.873469 150.816 
L 247.15102 152.16 
L 249.428571 145.44 
L 251.706122 134.688 
L 253.983673 125.28 
L 256.261224 118.56 
L 258.538776 116.544 
L 260.816327 106.464 
L 263.093878 91.68 
L 265.371429 86.976 
L 267.64898 80.928 
L 269.926531 76.224 
L 274.481633 85.632 
L 276.759184 84.96 
L 279.036735 90.336 
L 281.314286 84.288 
L 283.591837 86.976 
L 285.869388 99.072 
L 288.146939 101.76 
L 290.42449 111.84 
L 292.702041 109.152 
L 294.979592 102.432 
L 297.257143 104.448 
L 299.534694 102.432 
L 301.812245 97.728 
L 304.089796 101.76 
L 306.367347 105.12 
L 308.644898 110.496 
L 310.922449 102.432 
L 313.2 99.072 
L 315.477551 108.48 
L 317.755102 112.512 
L 320.032653 108.48 
L 322.310204 115.872 
L 324.587755 115.2 
L 326.865306 112.512 
L 329.142857 114.528 
L 331.420408 108.48 
L 333.697959 112.512 
L 335.97551 115.2 
L 338.253061 107.136 
L 342.808163 115.2 
L 345.085714 115.2 
L 347.363265 123.264 
L 349.640816 130.656 
L 351.918367 127.968 
L 354.195918 136.704 
L 356.473469 128.64 
L 358.75102 128.64 
L 361.028571 136.704 
L 363.306122 132.672 
L 365.583673 130.656 
L 367.861224 131.328 
L 370.138776 134.016 
L 372.416327 137.376 
L 374.693878 144.096 
L 376.971429 142.752 
L 379.24898 158.88 
L 381.526531 152.16 
L 383.804082 152.16 
L 386.081633 157.536 
L 388.359184 164.928 
L 390.636735 167.616 
L 392.914286 167.616 
L 395.191837 164.928 
L 397.469388 160.896 
L 399.746939 158.208 
L 402.02449 160.896 
L 404.302041 168.96 
L 406.579592 170.976 
L 408.857143 173.664 
L 411.134694 171.648 
L 413.412245 172.32 
L 415.689796 170.976 
L 417.967347 170.976 
L 420.244898 183.744 
L 422.522449 189.792 
L 424.8 191.808 
L 427.077551 191.136 
L 429.355102 197.184 
L 431.632653 195.168 
L 433.910204 195.168 
L 436.187755 200.544 
L 438.465306 205.248 
L 440.742857 206.592 
L 443.020408 196.512 
L 445.297959 197.856 
L 447.57551 190.464 
L 449.853061 195.168 
L 454.408163 195.168 
L 456.685714 197.856 
L 458.963265 193.824 
L 461.240816 197.856 
L 463.518367 199.872 
L 465.795918 199.872 
L 468.073469 197.184 
L 470.35102 205.92 
L 474.906122 195.168 
L 477.183673 201.888 
L 484.016327 203.904 
L 486.293878 206.592 
L 488.571429 211.296 
L 490.84898 212.64 
L 493.126531 211.296 
L 495.404082 216 
L 497.681633 219.36 
L 499.959184 217.344 
L 502.236735 218.688 
L 504.514286 218.016 
L 506.791837 204.576 
L 509.069388 197.856 
L 511.346939 197.856 
L 513.62449 198.528 
L 515.902041 198.528 
L 518.179592 195.168 
L 520.457143 192.48 
L 522.734694 191.136 
L 525.012245 188.448 
L 527.289796 195.168 
L 529.567347 208.608 
L 531.844898 211.296 
L 534.122449 215.328 
L 536.4 214.656 
L 538.677551 213.312 
L 540.955102 218.016 
L 543.232653 221.376 
L 545.510204 218.016 
L 547.787755 216 
L 550.065306 210.624 
L 552.342857 203.904 
L 554.620408 206.592 
L 556.897959 198.528 
L 559.17551 193.152 
L 561.453061 197.856 
L 563.730612 197.856 
L 566.008163 189.792 
L 568.285714 193.824 
L 570.563265 197.184 
L 572.840816 198.528 
L 575.118367 194.496 
L 577.395918 195.168 
L 579.673469 198.528 
L 581.95102 207.264 
L 584.228571 205.248 
L 586.506122 204.576 
L 588.783673 206.592 
L 591.061224 204.576 
L 593.338776 203.904 
L 595.616327 199.2 
L 597.893878 207.264 
L 600.171429 205.92 
L 602.44898 197.856 
L 607.004082 195.168 
L 609.281633 192.48 
L 611.559184 194.496 
L 613.836735 201.216 
L 616.114286 203.904 
L 618.391837 213.984 
L 622.946939 218.016 
L 625.22449 230.784 
L 627.502041 233.472 
L 629.779592 234.144 
L 632.057143 241.536 
L 634.334694 244.896 
L 636.612245 242.88 
L 638.889796 238.848 
L 641.167347 235.488 
L 643.444898 223.392 
L 645.722449 225.408 
L 648 223.392 
L 648 223.392 
" style="fill:none;stroke:#0000ff;stroke-linecap:square;stroke-opacity:0.05;stroke-width:1.5;"/>
   </g>
   <g id="line2d_21">
    <path clip-path="url(#pbce3569f64)" d="M 90 185.088 
L 92.277551 187.104 
L 94.555102 189.792 
L 96.832653 182.4 
L 99.110204 191.136 
L 101.387755 206.592 
L 103.665306 218.016 
L 105.942857 230.784 
L 108.220408 231.456 
L 110.497959 226.08 
L 112.77551 225.408 
L 115.053061 226.752 
L 117.330612 222.72 
L 119.608163 220.032 
L 121.885714 207.936 
L 124.163265 205.248 
L 126.440816 203.904 
L 128.718367 196.512 
L 130.995918 194.496 
L 133.273469 195.168 
L 137.828571 183.072 
L 140.106122 181.056 
L 142.383673 177.696 
L 144.661224 185.088 
L 146.938776 184.416 
L 149.216327 189.12 
L 151.493878 196.512 
L 153.771429 201.216 
L 156.04898 209.28 
L 158.326531 211.968 
L 160.604082 220.704 
L 162.881633 234.144 
L 165.159184 249.6 
L 167.436735 254.304 
L 169.714286 256.32 
L 171.991837 244.224 
L 174.269388 236.832 
L 176.546939 237.504 
L 178.82449 238.848 
L 181.102041 244.896 
L 183.379592 244.896 
L 185.657143 236.16 
L 187.934694 223.392 
L 190.212245 220.704 
L 192.489796 217.344 
L 194.767347 224.736 
L 197.044898 230.784 
L 201.6 233.472 
L 203.877551 230.784 
L 206.155102 229.44 
L 208.432653 236.16 
L 210.710204 240.864 
L 212.987755 244.224 
L 215.265306 249.6 
L 217.542857 250.944 
L 219.820408 249.6 
L 222.097959 247.584 
L 224.37551 235.488 
L 228.930612 218.016 
L 231.208163 214.656 
L 233.485714 216 
L 238.040816 195.84 
L 240.318367 188.448 
L 242.595918 190.464 
L 244.873469 184.416 
L 247.15102 185.76 
L 249.428571 189.792 
L 251.706122 192.48 
L 253.983673 191.808 
L 256.261224 191.808 
L 258.538776 195.84 
L 260.816327 201.216 
L 263.093878 204.576 
L 265.371429 204.576 
L 267.64898 209.952 
L 269.926531 212.64 
L 274.481633 211.296 
L 276.759184 211.296 
L 279.036735 211.968 
L 281.314286 215.328 
L 283.591837 215.328 
L 285.869388 223.392 
L 288.146939 220.704 
L 290.42449 223.392 
L 292.702041 227.424 
L 294.979592 226.752 
L 297.257143 228.096 
L 301.812245 220.032 
L 304.089796 219.36 
L 306.367347 218.016 
L 308.644898 209.952 
L 310.922449 210.624 
L 313.2 203.904 
L 315.477551 203.232 
L 317.755102 205.92 
L 320.032653 205.92 
L 322.310204 209.952 
L 324.587755 216 
L 326.865306 213.984 
L 329.142857 216 
L 331.420408 214.656 
L 333.697959 214.656 
L 335.97551 216.672 
L 338.253061 211.968 
L 340.530612 209.28 
L 342.808163 210.624 
L 345.085714 203.232 
L 347.363265 188.448 
L 349.640816 181.728 
L 351.918367 171.648 
L 354.195918 166.272 
L 356.473469 163.584 
L 358.75102 160.224 
L 361.028571 150.144 
L 363.306122 142.08 
L 365.583673 125.952 
L 367.861224 115.2 
L 370.138776 107.808 
L 372.416327 97.728 
L 374.693878 89.664 
L 376.971429 84.288 
L 379.24898 78.24 
L 381.526531 68.832 
L 383.804082 68.832 
L 386.081633 70.176 
L 388.359184 78.912 
L 390.636735 81.6 
L 392.914286 79.584 
L 395.191837 93.024 
L 397.469388 104.448 
L 399.746939 109.824 
L 402.02449 103.104 
L 406.579592 100.416 
L 408.857143 101.088 
L 411.134694 94.368 
L 413.412245 97.056 
L 415.689796 113.856 
L 417.967347 108.48 
L 420.244898 102.432 
L 422.522449 99.744 
L 424.8 93.024 
L 427.077551 99.744 
L 429.355102 96.384 
L 431.632653 102.432 
L 433.910204 104.448 
L 436.187755 107.136 
L 438.465306 102.432 
L 440.742857 108.48 
L 443.020408 119.232 
L 445.297959 125.952 
L 447.57551 139.392 
L 449.853061 143.424 
L 452.130612 156.192 
L 454.408163 152.16 
L 456.685714 157.536 
L 458.963265 158.208 
L 461.240816 160.224 
L 463.518367 158.208 
L 465.795918 158.208 
L 468.073469 154.848 
L 470.35102 160.896 
L 472.628571 150.816 
L 474.906122 148.8 
L 477.183673 146.112 
L 479.461224 160.224 
L 481.738776 156.192 
L 484.016327 155.52 
L 486.293878 144.768 
L 488.571429 140.736 
L 490.84898 140.064 
L 493.126531 134.016 
L 495.404082 140.736 
L 497.681633 140.736 
L 499.959184 135.36 
L 502.236735 117.888 
L 504.514286 120.576 
L 506.791837 113.856 
L 509.069388 129.312 
L 511.346939 124.608 
L 513.62449 116.544 
L 515.902041 111.168 
L 518.179592 103.776 
L 520.457143 103.104 
L 522.734694 111.84 
L 525.012245 111.84 
L 527.289796 121.92 
L 529.567347 134.016 
L 531.844898 129.312 
L 534.122449 127.296 
L 536.4 132.672 
L 538.677551 140.736 
L 540.955102 142.08 
L 543.232653 144.768 
L 545.510204 150.144 
L 547.787755 156.192 
L 550.065306 152.16 
L 552.342857 145.44 
L 554.620408 152.16 
L 556.897959 156.864 
L 559.17551 168.288 
L 561.453061 160.224 
L 563.730612 166.944 
L 566.008163 167.616 
L 568.285714 165.6 
L 570.563265 170.304 
L 572.840816 169.632 
L 575.118367 176.352 
L 577.395918 174.336 
L 579.673469 181.728 
L 581.95102 177.696 
L 584.228571 189.792 
L 586.506122 198.528 
L 588.783673 196.512 
L 591.061224 198.528 
L 595.616327 199.872 
L 597.893878 196.512 
L 600.171429 195.168 
L 602.44898 197.856 
L 604.726531 199.2 
L 607.004082 201.216 
L 609.281633 197.184 
L 611.559184 203.904 
L 616.114286 199.872 
L 618.391837 201.216 
L 620.669388 207.936 
L 622.946939 206.592 
L 625.22449 198.528 
L 627.502041 189.792 
L 629.779592 185.76 
L 632.057143 183.744 
L 634.334694 183.744 
L 636.612245 187.104 
L 638.889796 191.136 
L 641.167347 187.104 
L 643.444898 184.416 
L 645.722449 182.4 
L 648 187.104 
L 648 187.104 
" style="fill:none;stroke:#0000ff;stroke-linecap:square;stroke-opacity:0.05;stroke-width:1.5;"/>
   </g>
   <g id="line2d_22">
    <path clip-path="url(#pbce3569f64)" d="M 90 101.088 
L 92.277551 106.464 
L 94.555102 109.152 
L 96.832653 107.808 
L 99.110204 115.2 
L 101.387755 127.968 
L 103.665306 129.984 
L 105.942857 131.328 
L 108.220408 126.624 
L 110.497959 127.296 
L 112.77551 124.608 
L 115.053061 117.216 
L 117.330612 118.56 
L 119.608163 117.216 
L 121.885714 119.904 
L 124.163265 121.248 
L 126.440816 109.152 
L 128.718367 101.76 
L 130.995918 106.464 
L 133.273469 103.776 
L 135.55102 95.04 
L 137.828571 96.384 
L 140.106122 88.32 
L 142.383673 88.32 
L 144.661224 76.224 
L 146.938776 62.784 
L 149.216327 74.88 
L 151.493878 76.896 
L 153.771429 64.8 
L 156.04898 73.536 
L 158.326531 78.912 
L 160.604082 79.584 
L 162.881633 69.504 
L 165.159184 70.176 
L 167.436735 87.648 
L 169.714286 96.384 
L 171.991837 93.024 
L 174.269388 99.744 
L 176.546939 110.496 
L 178.82449 97.728 
L 181.102041 94.368 
L 183.379592 92.352 
L 185.657143 96.384 
L 187.934694 86.304 
L 190.212245 68.832 
L 192.489796 63.456 
L 194.767347 60.096 
L 197.044898 50.016 
L 199.322449 45.312 
L 201.6 52.704 
L 203.877551 54.048 
L 206.155102 60.096 
L 208.432653 68.832 
L 210.710204 88.32 
L 212.987755 97.728 
L 215.265306 99.072 
L 219.820408 117.888 
L 222.097959 128.64 
L 224.37551 125.952 
L 228.930612 129.984 
L 231.208163 129.984 
L 235.763265 113.856 
L 238.040816 109.824 
L 240.318367 98.4 
L 242.595918 99.744 
L 244.873469 89.664 
L 247.15102 91.008 
L 249.428571 80.928 
L 251.706122 84.96 
L 253.983673 91.68 
L 256.261224 92.352 
L 258.538776 94.368 
L 260.816327 90.336 
L 265.371429 78.24 
L 267.64898 79.584 
L 269.926531 83.616 
L 272.204082 92.352 
L 274.481633 88.32 
L 276.759184 81.6 
L 279.036735 83.616 
L 281.314286 82.944 
L 283.591837 74.88 
L 285.869388 81.6 
L 288.146939 87.648 
L 290.42449 78.912 
L 292.702041 72.864 
L 294.979592 74.208 
L 297.257143 63.456 
L 301.812245 52.704 
L 304.089796 49.344 
L 306.367347 67.488 
L 308.644898 75.552 
L 310.922449 66.144 
L 313.2 72.192 
L 315.477551 65.472 
L 317.755102 54.72 
L 320.032653 50.688 
L 322.310204 58.752 
L 324.587755 54.72 
L 326.865306 59.424 
L 329.142857 63.456 
L 331.420408 62.112 
L 333.697959 70.848 
L 335.97551 64.128 
L 338.253061 78.24 
L 340.530612 80.928 
L 342.808163 88.992 
L 345.085714 77.568 
L 347.363265 77.568 
L 349.640816 80.928 
L 351.918367 74.88 
L 354.195918 66.816 
L 356.473469 58.08 
L 358.75102 66.144 
L 361.028571 62.112 
L 363.306122 65.472 
L 365.583673 65.472 
L 367.861224 71.52 
L 370.138776 81.6 
L 372.416327 95.04 
L 374.693878 104.448 
L 376.971429 111.84 
L 379.24898 123.936 
L 381.526531 112.512 
L 383.804082 104.448 
L 386.081633 102.432 
L 388.359184 107.808 
L 390.636735 107.136 
L 392.914286 97.728 
L 395.191837 76.224 
L 397.469388 64.128 
L 399.746939 68.16 
L 402.02449 58.752 
L 404.302041 75.552 
L 406.579592 86.976 
L 408.857143 91.008 
L 411.134694 95.712 
L 413.412245 104.448 
L 415.689796 109.824 
L 417.967347 117.888 
L 420.244898 119.904 
L 422.522449 118.56 
L 424.8 117.888 
L 427.077551 114.528 
L 429.355102 107.136 
L 431.632653 104.448 
L 433.910204 92.352 
L 436.187755 87.648 
L 438.465306 91.008 
L 440.742857 89.664 
L 443.020408 97.056 
L 445.297959 100.416 
L 447.57551 99.744 
L 449.853061 95.04 
L 452.130612 97.056 
L 454.408163 99.744 
L 456.685714 106.464 
L 458.963265 119.904 
L 461.240816 122.592 
L 463.518367 123.264 
L 465.795918 122.592 
L 468.073469 123.936 
L 470.35102 123.264 
L 472.628571 134.688 
L 474.906122 142.08 
L 477.183673 148.128 
L 479.461224 143.424 
L 481.738776 134.016 
L 484.016327 133.344 
L 486.293878 131.328 
L 488.571429 137.376 
L 490.84898 133.344 
L 493.126531 142.08 
L 495.404082 145.44 
L 497.681633 145.44 
L 499.959184 144.096 
L 502.236735 152.832 
L 504.514286 153.504 
L 506.791837 153.504 
L 509.069388 156.864 
L 511.346939 142.752 
L 513.62449 137.376 
L 515.902041 127.296 
L 518.179592 118.56 
L 520.457143 113.184 
L 522.734694 117.888 
L 525.012245 119.904 
L 527.289796 119.232 
L 529.567347 115.2 
L 531.844898 117.888 
L 534.122449 125.952 
L 536.4 129.312 
L 538.677551 142.752 
L 540.955102 146.784 
L 543.232653 152.16 
L 545.510204 150.144 
L 547.787755 150.144 
L 550.065306 154.176 
L 552.342857 160.224 
L 554.620408 161.568 
L 556.897959 159.552 
L 559.17551 170.304 
L 561.453061 170.304 
L 563.730612 172.32 
L 566.008163 167.616 
L 568.285714 159.552 
L 570.563265 154.176 
L 572.840816 153.504 
L 575.118367 149.472 
L 577.395918 149.472 
L 579.673469 148.128 
L 581.95102 138.72 
L 586.506122 126.624 
L 588.783673 128.64 
L 591.061224 137.376 
L 593.338776 145.44 
L 595.616327 144.096 
L 597.893878 144.768 
L 600.171429 143.424 
L 602.44898 148.128 
L 604.726531 148.128 
L 611.559184 164.256 
L 613.836735 163.584 
L 616.114286 155.52 
L 618.391837 154.848 
L 620.669388 167.616 
L 622.946939 169.632 
L 625.22449 166.272 
L 627.502041 167.616 
L 629.779592 162.24 
L 632.057143 160.896 
L 634.334694 154.848 
L 636.612245 154.176 
L 641.167347 156.864 
L 643.444898 146.112 
L 645.722449 146.784 
L 648 151.488 
L 648 151.488 
" style="fill:none;stroke:#0000ff;stroke-linecap:square;stroke-opacity:0.05;stroke-width:1.5;"/>
   </g>
   <g id="line2d_23">
    <path clip-path="url(#pbce3569f64)" d="M 90 161.232 
L 92.277551 162.6432 
L 94.555102 165.6672 
L 96.832653 162.7776 
L 99.110204 164.1888 
L 101.387755 168.7584 
L 103.665306 169.1616 
L 105.942857 166.5408 
L 108.220408 164.9952 
L 110.497959 164.3904 
L 112.77551 164.6592 
L 115.053061 164.592 
L 117.330612 164.3232 
L 119.608163 166.608 
L 121.885714 165.8688 
L 124.163265 165.8688 
L 126.440816 166.3392 
L 128.718367 166.4064 
L 130.995918 165.3312 
L 133.273469 165.7344 
L 135.55102 161.7696 
L 137.828571 158.88 
L 140.106122 157.0656 
L 142.383673 157.0656 
L 144.661224 155.4528 
L 146.938776 152.2272 
L 149.216327 153.5712 
L 151.493878 153.84 
L 153.771429 153.9744 
L 156.04898 153.7728 
L 158.326531 153.0336 
L 160.604082 156.7968 
L 162.881633 157.8048 
L 165.159184 160.224 
L 167.436735 162.9792 
L 169.714286 163.0464 
L 171.991837 159.0816 
L 174.269388 157.7376 
L 176.546939 158.0064 
L 178.82449 157.536 
L 181.102041 159.3504 
L 183.379592 156.3936 
L 185.657143 154.7808 
L 187.934694 150.144 
L 190.212245 149.6064 
L 192.489796 151.3536 
L 194.767347 153.5712 
L 197.044898 156.4608 
L 199.322449 157.7376 
L 201.6 161.568 
L 203.877551 161.3664 
L 206.155102 164.1216 
L 208.432653 167.2128 
L 210.710204 170.7744 
L 212.987755 172.0512 
L 215.265306 172.992 
L 217.542857 172.4544 
L 219.820408 169.2288 
L 222.097959 170.976 
L 224.37551 167.4816 
L 226.653061 167.0112 
L 228.930612 164.928 
L 231.208163 163.7184 
L 233.485714 164.4576 
L 235.763265 161.3664 
L 238.040816 157.4016 
L 240.318367 156.9312 
L 242.595918 159.552 
L 244.873469 156.7968 
L 247.15102 158.0064 
L 249.428571 155.5872 
L 251.706122 156.3264 
L 256.261224 153.168 
L 258.538776 152.3616 
L 260.816327 150.2784 
L 263.093878 150.4128 
L 265.371429 150.4128 
L 267.64898 150.816 
L 269.926531 149.6736 
L 272.204082 151.488 
L 274.481633 150.0096 
L 276.759184 150.2112 
L 279.036735 151.7568 
L 281.314286 152.9664 
L 283.591837 156.192 
L 285.869388 156.9312 
L 288.146939 158.4768 
L 290.42449 158.0064 
L 292.702041 156.7968 
L 294.979592 158.4096 
L 297.257143 159.6864 
L 299.534694 159.2832 
L 301.812245 154.5792 
L 304.089796 154.0416 
L 306.367347 153.3696 
L 308.644898 153.3696 
L 310.922449 149.6064 
L 313.2 147.5232 
L 315.477551 147.7248 
L 317.755102 146.9856 
L 320.032653 144.2304 
L 324.587755 146.9856 
L 326.865306 147.792 
L 329.142857 150.816 
L 331.420408 151.0848 
L 333.697959 153.1008 
L 335.97551 152.4288 
L 338.253061 156.528 
L 340.530612 154.9152 
L 342.808163 157.8048 
L 345.085714 156.864 
L 347.363265 157.0656 
L 349.640816 154.176 
L 351.918367 151.0176 
L 354.195918 148.7328 
L 356.473469 147.8592 
L 358.75102 150.7488 
L 361.028571 147.5904 
L 363.306122 148.7328 
L 365.583673 147.1872 
L 367.861224 145.776 
L 370.138776 144.8352 
L 372.416327 148.2624 
L 374.693878 149.6064 
L 376.971429 151.5552 
L 379.24898 154.3776 
L 381.526531 150.5472 
L 383.804082 149.472 
L 386.081633 150.5472 
L 388.359184 154.4448 
L 390.636735 155.3184 
L 392.914286 154.9824 
L 395.191837 154.176 
L 397.469388 152.6304 
L 399.746939 153.7728 
L 402.02449 151.3536 
L 404.302041 155.1168 
L 406.579592 155.5872 
L 408.857143 153.4368 
L 411.134694 150.7488 
L 413.412245 151.824 
L 415.689796 155.9904 
L 417.967347 156.864 
L 420.244898 159.4176 
L 424.8 157.6032 
L 427.077551 158.0736 
L 429.355102 159.1488 
L 431.632653 162.1056 
L 433.910204 160.6944 
L 436.187755 159.8208 
L 438.465306 159.216 
L 440.742857 159.0816 
L 445.297959 162.8448 
L 447.57551 164.3232 
L 449.853061 164.7936 
L 452.130612 165.8016 
L 454.408163 164.256 
L 456.685714 166.944 
L 461.240816 169.2288 
L 463.518367 168.0864 
L 465.795918 165.7344 
L 468.073469 162.0384 
L 470.35102 163.0464 
L 472.628571 162.9792 
L 474.906122 162.7104 
L 477.183673 163.5168 
L 484.016327 161.0304 
L 486.293878 159.2832 
L 488.571429 160.224 
L 490.84898 162.9792 
L 493.126531 161.0304 
L 495.404082 160.7616 
L 497.681633 161.7696 
L 499.959184 160.9632 
L 502.236735 159.6864 
L 504.514286 159.552 
L 506.791837 156.9312 
L 509.069388 157.7376 
L 511.346939 154.6464 
L 515.902041 149.6064 
L 518.179592 144.9696 
L 520.457143 141.3408 
L 522.734694 142.2816 
L 525.012245 140.9376 
L 527.289796 142.1472 
L 529.567347 142.8192 
L 531.844898 143.8272 
L 534.122449 146.7168 
L 536.4 148.7328 
L 538.677551 152.0928 
L 540.955102 154.3104 
L 543.232653 155.856 
L 545.510204 154.848 
L 547.787755 156.528 
L 550.065306 155.3184 
L 552.342857 157.872 
L 554.620408 158.0064 
L 556.897959 154.3104 
L 559.17551 155.0496 
L 561.453061 152.9664 
L 563.730612 153.9744 
L 566.008163 152.7648 
L 568.285714 152.2272 
L 570.563265 151.2864 
L 572.840816 153.168 
L 575.118367 151.2864 
L 577.395918 151.6224 
L 579.673469 153.7056 
L 581.95102 153.3696 
L 584.228571 155.5872 
L 588.783673 156.528 
L 591.061224 158.7456 
L 593.338776 161.7024 
L 595.616327 162.0384 
L 597.893878 161.5008 
L 600.171429 162.0384 
L 602.44898 161.7696 
L 604.726531 162.3072 
L 607.004082 161.6352 
L 609.281633 161.9712 
L 611.559184 163.7184 
L 613.836735 162.6432 
L 616.114286 162.24 
L 618.391837 162.1728 
L 620.669388 165.936 
L 625.22449 167.616 
L 627.502041 167.8176 
L 629.779592 169.296 
L 634.334694 171.312 
L 636.612245 172.5216 
L 638.889796 171.984 
L 641.167347 172.5216 
L 643.444898 170.5728 
L 645.722449 169.968 
L 648 171.2448 
L 648 171.2448 
" style="fill:none;stroke:#0000ff;stroke-linecap:square;stroke-width:1.5;"/>
   </g>
   <g id="patch_3">
    <path d="M 90 256.32 
L 90 34.56 
" style="fill:none;stroke:#000000;stroke-linecap:square;stroke-linejoin:miter;stroke-width:0.8;"/>
   </g>
   <g id="patch_4">
    <path d="M 648 256.32 
L 648 34.56 
" style="fill:none;stroke:#000000;stroke-linecap:square;stroke-linejoin:miter;stroke-width:0.8;"/>
   </g>
   <g id="patch_5">
    <path d="M 90 256.32 
L 648 256.32 
" style="fill:none;stroke:#000000;stroke-linecap:square;stroke-linejoin:miter;stroke-width:0.8;"/>
   </g>
   <g id="patch_6">
    <path d="M 90 34.56 
L 648 34.56 
" style="fill:none;stroke:#000000;stroke-linecap:square;stroke-linejoin:miter;stroke-width:0.8;"/>
   </g>
   <g id="text_14">
    <!-- Thalamus, Num Trials=10 All unstimulated trials -->
    <defs>
     <path d="M 54.890625 33.015625 
L 54.890625 0 
L 45.90625 0 
L 45.90625 32.71875 
Q 45.90625 40.484375 42.875 44.328125 
Q 39.84375 48.1875 33.796875 48.1875 
Q 26.515625 48.1875 22.3125 43.546875 
Q 18.109375 38.921875 18.109375 30.90625 
L 18.109375 0 
L 9.078125 0 
L 9.078125 75.984375 
L 18.109375 75.984375 
L 18.109375 46.1875 
Q 21.34375 51.125 25.703125 53.5625 
Q 30.078125 56 35.796875 56 
Q 45.21875 56 50.046875 50.171875 
Q 54.890625 44.34375 54.890625 33.015625 
z
" id="DejaVuSans-104"/>
     <path d="M 34.28125 27.484375 
Q 23.390625 27.484375 19.1875 25 
Q 14.984375 22.515625 14.984375 16.5 
Q 14.984375 11.71875 18.140625 8.90625 
Q 21.296875 6.109375 26.703125 6.109375 
Q 34.1875 6.109375 38.703125 11.40625 
Q 43.21875 16.703125 43.21875 25.484375 
L 43.21875 27.484375 
z
M 52.203125 31.203125 
L 52.203125 0 
L 43.21875 0 
L 43.21875 8.296875 
Q 40.140625 3.328125 35.546875 0.953125 
Q 30.953125 -1.421875 24.3125 -1.421875 
Q 15.921875 -1.421875 10.953125 3.296875 
Q 6 8.015625 6 15.921875 
Q 6 25.140625 12.171875 29.828125 
Q 18.359375 34.515625 30.609375 34.515625 
L 43.21875 34.515625 
L 43.21875 35.40625 
Q 43.21875 41.609375 39.140625 45 
Q 35.0625 48.390625 27.6875 48.390625 
Q 23 48.390625 18.546875 47.265625 
Q 14.109375 46.140625 10.015625 43.890625 
L 10.015625 52.203125 
Q 14.9375 54.109375 19.578125 55.046875 
Q 24.21875 56 28.609375 56 
Q 40.484375 56 46.34375 49.84375 
Q 52.203125 43.703125 52.203125 31.203125 
z
" id="DejaVuSans-97"/>
     <path d="M 9.421875 75.984375 
L 18.40625 75.984375 
L 18.40625 0 
L 9.421875 0 
z
" id="DejaVuSans-108"/>
     <path d="M 8.5 21.578125 
L 8.5 54.6875 
L 17.484375 54.6875 
L 17.484375 21.921875 
Q 17.484375 14.15625 20.5 10.265625 
Q 23.53125 6.390625 29.59375 6.390625 
Q 36.859375 6.390625 41.078125 11.03125 
Q 45.3125 15.671875 45.3125 23.6875 
L 45.3125 54.6875 
L 54.296875 54.6875 
L 54.296875 0 
L 45.3125 0 
L 45.3125 8.40625 
Q 42.046875 3.421875 37.71875 1 
Q 33.40625 -1.421875 27.6875 -1.421875 
Q 18.265625 -1.421875 13.375 4.4375 
Q 8.5 10.296875 8.5 21.578125 
z
M 31.109375 56 
z
" id="DejaVuSans-117"/>
     <path d="M 11.71875 12.40625 
L 22.015625 12.40625 
L 22.015625 4 
L 14.015625 -11.625 
L 7.71875 -11.625 
L 11.71875 4 
z
" id="DejaVuSans-44"/>
     <path d="M 9.8125 72.90625 
L 23.09375 72.90625 
L 55.421875 11.921875 
L 55.421875 72.90625 
L 64.984375 72.90625 
L 64.984375 0 
L 51.703125 0 
L 19.390625 60.984375 
L 19.390625 0 
L 9.8125 0 
z
" id="DejaVuSans-78"/>
     <path d="M 41.109375 46.296875 
Q 39.59375 47.171875 37.8125 47.578125 
Q 36.03125 48 33.890625 48 
Q 26.265625 48 22.1875 43.046875 
Q 18.109375 38.09375 18.109375 28.8125 
L 18.109375 0 
L 9.078125 0 
L 9.078125 54.6875 
L 18.109375 54.6875 
L 18.109375 46.1875 
Q 20.953125 51.171875 25.484375 53.578125 
Q 30.03125 56 36.53125 56 
Q 37.453125 56 38.578125 55.875 
Q 39.703125 55.765625 41.0625 55.515625 
z
" id="DejaVuSans-114"/>
     <path d="M 10.59375 45.40625 
L 73.1875 45.40625 
L 73.1875 37.203125 
L 10.59375 37.203125 
z
M 10.59375 25.484375 
L 73.1875 25.484375 
L 73.1875 17.1875 
L 10.59375 17.1875 
z
" id="DejaVuSans-61"/>
     <path d="M 34.1875 63.1875 
L 20.796875 26.90625 
L 47.609375 26.90625 
z
M 28.609375 72.90625 
L 39.796875 72.90625 
L 67.578125 0 
L 57.328125 0 
L 50.6875 18.703125 
L 17.828125 18.703125 
L 11.1875 0 
L 0.78125 0 
z
" id="DejaVuSans-65"/>
     <path d="M 54.890625 33.015625 
L 54.890625 0 
L 45.90625 0 
L 45.90625 32.71875 
Q 45.90625 40.484375 42.875 44.328125 
Q 39.84375 48.1875 33.796875 48.1875 
Q 26.515625 48.1875 22.3125 43.546875 
Q 18.109375 38.921875 18.109375 30.90625 
L 18.109375 0 
L 9.078125 0 
L 9.078125 54.6875 
L 18.109375 54.6875 
L 18.109375 46.1875 
Q 21.34375 51.125 25.703125 53.5625 
Q 30.078125 56 35.796875 56 
Q 45.21875 56 50.046875 50.171875 
Q 54.890625 44.34375 54.890625 33.015625 
z
" id="DejaVuSans-110"/>
     <path d="M 18.3125 70.21875 
L 18.3125 54.6875 
L 36.8125 54.6875 
L 36.8125 47.703125 
L 18.3125 47.703125 
L 18.3125 18.015625 
Q 18.3125 11.328125 20.140625 9.421875 
Q 21.96875 7.515625 27.59375 7.515625 
L 36.8125 7.515625 
L 36.8125 0 
L 27.59375 0 
Q 17.1875 0 13.234375 3.875 
Q 9.28125 7.765625 9.28125 18.015625 
L 9.28125 47.703125 
L 2.6875 47.703125 
L 2.6875 54.6875 
L 9.28125 54.6875 
L 9.28125 70.21875 
z
" id="DejaVuSans-116"/>
     <path d="M 45.40625 46.390625 
L 45.40625 75.984375 
L 54.390625 75.984375 
L 54.390625 0 
L 45.40625 0 
L 45.40625 8.203125 
Q 42.578125 3.328125 38.25 0.953125 
Q 33.9375 -1.421875 27.875 -1.421875 
Q 17.96875 -1.421875 11.734375 6.484375 
Q 5.515625 14.40625 5.515625 27.296875 
Q 5.515625 40.1875 11.734375 48.09375 
Q 17.96875 56 27.875 56 
Q 33.9375 56 38.25 53.625 
Q 42.578125 51.265625 45.40625 46.390625 
z
M 14.796875 27.296875 
Q 14.796875 17.390625 18.875 11.75 
Q 22.953125 6.109375 30.078125 6.109375 
Q 37.203125 6.109375 41.296875 11.75 
Q 45.40625 17.390625 45.40625 27.296875 
Q 45.40625 37.203125 41.296875 42.84375 
Q 37.203125 48.484375 30.078125 48.484375 
Q 22.953125 48.484375 18.875 42.84375 
Q 14.796875 37.203125 14.796875 27.296875 
z
" id="DejaVuSans-100"/>
    </defs>
    <g transform="translate(223.259062 28.56)scale(0.12 -0.12)">
     <use xlink:href="#DejaVuSans-84"/>
     <use x="61.083984" xlink:href="#DejaVuSans-104"/>
     <use x="124.462891" xlink:href="#DejaVuSans-97"/>
     <use x="185.742188" xlink:href="#DejaVuSans-108"/>
     <use x="213.525391" xlink:href="#DejaVuSans-97"/>
     <use x="274.804688" xlink:href="#DejaVuSans-109"/>
     <use x="372.216797" xlink:href="#DejaVuSans-117"/>
     <use x="435.595703" xlink:href="#DejaVuSans-115"/>
     <use x="487.695312" xlink:href="#DejaVuSans-44"/>
     <use x="519.482422" xlink:href="#DejaVuSans-32"/>
     <use x="551.269531" xlink:href="#DejaVuSans-78"/>
     <use x="626.074219" xlink:href="#DejaVuSans-117"/>
     <use x="689.453125" xlink:href="#DejaVuSans-109"/>
     <use x="786.865234" xlink:href="#DejaVuSans-32"/>
     <use x="818.652344" xlink:href="#DejaVuSans-84"/>
     <use x="879.517578" xlink:href="#DejaVuSans-114"/>
     <use x="920.630859" xlink:href="#DejaVuSans-105"/>
     <use x="948.414062" xlink:href="#DejaVuSans-97"/>
     <use x="1009.693359" xlink:href="#DejaVuSans-108"/>
     <use x="1037.476562" xlink:href="#DejaVuSans-115"/>
     <use x="1089.576172" xlink:href="#DejaVuSans-61"/>
     <use x="1173.365234" xlink:href="#DejaVuSans-49"/>
     <use x="1236.988281" xlink:href="#DejaVuSans-48"/>
     <use x="1300.611328" xlink:href="#DejaVuSans-32"/>
     <use x="1332.398438" xlink:href="#DejaVuSans-65"/>
     <use x="1400.806641" xlink:href="#DejaVuSans-108"/>
     <use x="1428.589844" xlink:href="#DejaVuSans-108"/>
     <use x="1456.373047" xlink:href="#DejaVuSans-32"/>
     <use x="1488.160156" xlink:href="#DejaVuSans-117"/>
     <use x="1551.539062" xlink:href="#DejaVuSans-110"/>
     <use x="1614.917969" xlink:href="#DejaVuSans-115"/>
     <use x="1667.017578" xlink:href="#DejaVuSans-116"/>
     <use x="1706.226562" xlink:href="#DejaVuSans-105"/>
     <use x="1734.009766" xlink:href="#DejaVuSans-109"/>
     <use x="1831.421875" xlink:href="#DejaVuSans-117"/>
     <use x="1894.800781" xlink:href="#DejaVuSans-108"/>
     <use x="1922.583984" xlink:href="#DejaVuSans-97"/>
     <use x="1983.863281" xlink:href="#DejaVuSans-116"/>
     <use x="2023.072266" xlink:href="#DejaVuSans-101"/>
     <use x="2084.595703" xlink:href="#DejaVuSans-100"/>
     <use x="2148.072266" xlink:href="#DejaVuSans-32"/>
     <use x="2179.859375" xlink:href="#DejaVuSans-116"/>
     <use x="2219.068359" xlink:href="#DejaVuSans-114"/>
     <use x="2260.181641" xlink:href="#DejaVuSans-105"/>
     <use x="2287.964844" xlink:href="#DejaVuSans-97"/>
     <use x="2349.244141" xlink:href="#DejaVuSans-108"/>
     <use x="2377.027344" xlink:href="#DejaVuSans-115"/>
    </g>
   </g>
   <g id="legend_1">
    <g id="patch_7">
     <path d="M 312.848437 250.32 
L 425.151563 250.32 
Q 427.551563 250.32 427.551563 247.92 
L 427.551563 231.50625 
Q 427.551563 229.10625 425.151563 229.10625 
L 312.848437 229.10625 
Q 310.448438 229.10625 310.448438 231.50625 
L 310.448438 247.92 
Q 310.448438 250.32 312.848437 250.32 
z
" style="fill:#ffffff;opacity:0.8;stroke:#cccccc;stroke-linejoin:miter;"/>
    </g>
    <g id="line2d_24">
     <path d="M 315.248438 238.824375 
L 339.248438 238.824375 
" style="fill:none;stroke:#0000ff;stroke-linecap:square;stroke-width:1.5;"/>
    </g>
    <g id="line2d_25"/>
    <g id="text_15">
     <!-- Moving Avg. -->
     <defs>
      <path d="M 9.8125 72.90625 
L 24.515625 72.90625 
L 43.109375 23.296875 
L 61.8125 72.90625 
L 76.515625 72.90625 
L 76.515625 0 
L 66.890625 0 
L 66.890625 64.015625 
L 48.09375 14.015625 
L 38.1875 14.015625 
L 19.390625 64.015625 
L 19.390625 0 
L 9.8125 0 
z
" id="DejaVuSans-77"/>
      <path d="M 30.609375 48.390625 
Q 23.390625 48.390625 19.1875 42.75 
Q 14.984375 37.109375 14.984375 27.296875 
Q 14.984375 17.484375 19.15625 11.84375 
Q 23.34375 6.203125 30.609375 6.203125 
Q 37.796875 6.203125 41.984375 11.859375 
Q 46.1875 17.53125 46.1875 27.296875 
Q 46.1875 37.015625 41.984375 42.703125 
Q 37.796875 48.390625 30.609375 48.390625 
z
M 30.609375 56 
Q 42.328125 56 49.015625 48.375 
Q 55.71875 40.765625 55.71875 27.296875 
Q 55.71875 13.875 49.015625 6.21875 
Q 42.328125 -1.421875 30.609375 -1.421875 
Q 18.84375 -1.421875 12.171875 6.21875 
Q 5.515625 13.875 5.515625 27.296875 
Q 5.515625 40.765625 12.171875 48.375 
Q 18.84375 56 30.609375 56 
z
" id="DejaVuSans-111"/>
      <path d="M 2.984375 54.6875 
L 12.5 54.6875 
L 29.59375 8.796875 
L 46.6875 54.6875 
L 56.203125 54.6875 
L 35.6875 0 
L 23.484375 0 
z
" id="DejaVuSans-118"/>
      <path d="M 45.40625 27.984375 
Q 45.40625 37.75 41.375 43.109375 
Q 37.359375 48.484375 30.078125 48.484375 
Q 22.859375 48.484375 18.828125 43.109375 
Q 14.796875 37.75 14.796875 27.984375 
Q 14.796875 18.265625 18.828125 12.890625 
Q 22.859375 7.515625 30.078125 7.515625 
Q 37.359375 7.515625 41.375 12.890625 
Q 45.40625 18.265625 45.40625 27.984375 
z
M 54.390625 6.78125 
Q 54.390625 -7.171875 48.1875 -13.984375 
Q 42 -20.796875 29.203125 -20.796875 
Q 24.46875 -20.796875 20.265625 -20.09375 
Q 16.0625 -19.390625 12.109375 -17.921875 
L 12.109375 -9.1875 
Q 16.0625 -11.328125 19.921875 -12.34375 
Q 23.78125 -13.375 27.78125 -13.375 
Q 36.625 -13.375 41.015625 -8.765625 
Q 45.40625 -4.15625 45.40625 5.171875 
L 45.40625 9.625 
Q 42.625 4.78125 38.28125 2.390625 
Q 33.9375 0 27.875 0 
Q 17.828125 0 11.671875 7.65625 
Q 5.515625 15.328125 5.515625 27.984375 
Q 5.515625 40.671875 11.671875 48.328125 
Q 17.828125 56 27.875 56 
Q 33.9375 56 38.28125 53.609375 
Q 42.625 51.21875 45.40625 46.390625 
L 45.40625 54.6875 
L 54.390625 54.6875 
z
" id="DejaVuSans-103"/>
     </defs>
     <g transform="translate(348.848438 243.024375)scale(0.12 -0.12)">
      <use xlink:href="#DejaVuSans-77"/>
      <use x="86.279297" xlink:href="#DejaVuSans-111"/>
      <use x="147.460938" xlink:href="#DejaVuSans-118"/>
      <use x="206.640625" xlink:href="#DejaVuSans-105"/>
      <use x="234.423828" xlink:href="#DejaVuSans-110"/>
      <use x="297.802734" xlink:href="#DejaVuSans-103"/>
      <use x="361.279297" xlink:href="#DejaVuSans-32"/>
      <use x="393.066406" xlink:href="#DejaVuSans-65"/>
      <use x="461.396484" xlink:href="#DejaVuSans-118"/>
      <use x="520.576172" xlink:href="#DejaVuSans-103"/>
      <use x="584.052734" xlink:href="#DejaVuSans-46"/>
     </g>
    </g>
   </g>
  </g>
 </g>
 <defs>
  <clipPath id="pbce3569f64">
   <rect height="221.76" width="558" x="90" y="34.56"/>
  </clipPath>
 </defs>
</svg>
