<?xml version="1.0" encoding="utf-8" standalone="no"?>
<!DOCTYPE svg PUBLIC "-//W3C//DTD SVG 1.1//EN"
  "http://www.w3.org/Graphics/SVG/1.1/DTD/svg11.dtd">
<!-- Created with matplotlib (https://matplotlib.org/) -->
<svg height="288pt" version="1.1" viewBox="0 0 396 288" width="396pt" xmlns="http://www.w3.org/2000/svg" xmlns:xlink="http://www.w3.org/1999/xlink">
 <defs>
  <style type="text/css">
*{stroke-linecap:butt;stroke-linejoin:round;}
  </style>
 </defs>
 <g id="figure_1">
  <g id="patch_1">
   <path d="M 0 288 
L 396 288 
L 396 0 
L 0 0 
z
" style="fill:#ffffff;"/>
  </g>
  <g id="axes_1">
   <g id="patch_2">
    <path d="M 51.41 242.44 
L 385.2 242.44 
L 385.2 26.88 
L 51.41 26.88 
z
" style="fill:#ffffff;"/>
   </g>
   <g id="PolyCollection_1">
    <defs>
     <path d="M 51.41 -239.951183 
L 51.41 -182.003131 
L 52.581193 -176.644719 
L 53.752386 -177.755979 
L 54.923579 -172.733462 
L 56.094772 -171.176758 
L 57.265965 -167.337302 
L 58.437158 -163.007252 
L 59.608351 -167.281512 
L 60.779544 -161.821884 
L 61.950737 -164.859462 
L 63.12193 -162.822407 
L 64.293123 -162.91919 
L 65.464316 -159.778745 
L 66.635509 -157.819096 
L 67.806702 -159.676144 
L 68.977895 -161.045789 
L 70.149088 -159.017373 
L 71.320281 -156.139895 
L 72.491474 -159.155384 
L 73.662667 -152.493448 
L 74.83386 -152.987781 
L 76.005053 -148.514575 
L 77.176246 -146.930931 
L 78.347439 -145.124801 
L 79.518632 -146.157977 
L 80.689825 -144.100442 
L 81.861018 -149.563957 
L 83.032211 -150.152926 
L 84.203404 -144.397693 
L 85.374596 -144.500322 
L 86.545789 -140.550643 
L 87.716982 -144.947359 
L 88.888175 -149.635076 
L 90.059368 -152.314086 
L 91.230561 -158.365814 
L 92.401754 -154.77147 
L 93.572947 -141.389391 
L 94.74414 -130.923917 
L 95.915333 -110.576991 
L 97.086526 -98.792202 
L 98.257719 -93.916654 
L 99.428912 -85.431107 
L 100.600105 -82.269729 
L 101.771298 -82.645669 
L 102.942491 -84.546341 
L 104.113684 -84.435487 
L 105.284877 -83.854944 
L 106.45607 -83.16465 
L 107.627263 -83.441613 
L 108.798456 -80.808911 
L 109.969649 -76.37802 
L 111.140842 -73.579232 
L 112.312035 -72.167829 
L 113.483228 -76.148382 
L 114.654421 -76.88196 
L 115.825614 -82.646436 
L 116.996807 -98.765616 
L 118.168 -110.519248 
L 119.339193 -119.163527 
L 120.510386 -132.018723 
L 121.681579 -129.419356 
L 122.852772 -126.859607 
L 124.023965 -128.008117 
L 125.195158 -124.902157 
L 126.366351 -129.361647 
L 127.537544 -131.503638 
L 128.708737 -128.346716 
L 129.87993 -134.968613 
L 131.051123 -134.281996 
L 132.222316 -134.761534 
L 133.393509 -136.894921 
L 134.564702 -139.477674 
L 135.735895 -143.604009 
L 136.907088 -143.637471 
L 138.078281 -146.318759 
L 139.249474 -147.785248 
L 140.420667 -149.160961 
L 141.59186 -154.314399 
L 142.763053 -161.175016 
L 143.934246 -161.716462 
L 145.105439 -167.424012 
L 146.276632 -172.026497 
L 147.447825 -180.819506 
L 148.619018 -180.648425 
L 149.790211 -179.355013 
L 150.961404 -181.618064 
L 152.132596 -184.185871 
L 153.303789 -189.177665 
L 154.474982 -183.821981 
L 155.646175 -184.592462 
L 156.817368 -183.812479 
L 157.988561 -180.148746 
L 159.159754 -177.571235 
L 160.330947 -174.20741 
L 161.50214 -173.431404 
L 162.673333 -170.633056 
L 163.844526 -171.952431 
L 165.015719 -169.551435 
L 166.186912 -163.252231 
L 167.358105 -163.075996 
L 168.529298 -162.903763 
L 169.700491 -158.820656 
L 170.871684 -160.161817 
L 172.042877 -157.376783 
L 173.21407 -159.301017 
L 174.385263 -159.172056 
L 175.556456 -156.041746 
L 176.727649 -162.832074 
L 177.898842 -162.568625 
L 179.070035 -153.432933 
L 180.241228 -152.830756 
L 181.412421 -150.729231 
L 182.583614 -151.260293 
L 183.754807 -153.244557 
L 184.926 -152.49304 
L 186.097193 -150.338863 
L 187.268386 -150.544493 
L 188.439579 -144.792511 
L 189.610772 -146.68832 
L 190.781965 -148.968528 
L 191.953158 -150.758966 
L 193.124351 -149.310536 
L 194.295544 -148.110572 
L 195.466737 -148.376572 
L 196.63793 -148.105337 
L 197.809123 -149.578617 
L 198.980316 -145.112551 
L 200.151509 -147.032926 
L 201.322702 -149.198267 
L 202.493895 -146.846555 
L 203.665088 -146.466717 
L 204.836281 -144.371467 
L 206.007474 -140.377888 
L 207.178667 -139.791261 
L 208.34986 -146.952512 
L 209.521053 -139.56359 
L 210.692246 -143.542233 
L 211.863439 -144.473412 
L 213.034632 -144.927182 
L 214.205825 -144.094805 
L 215.377018 -140.112473 
L 216.548211 -145.692486 
L 217.719404 -143.512525 
L 218.890596 -143.84064 
L 220.061789 -143.546678 
L 221.232982 -146.335488 
L 222.404175 -144.023649 
L 223.575368 -142.849846 
L 224.746561 -132.405939 
L 225.917754 -132.161896 
L 227.088947 -135.994715 
L 228.26014 -136.407048 
L 229.431333 -135.522729 
L 230.602526 -135.284454 
L 231.773719 -132.075641 
L 232.944912 -131.053293 
L 234.116105 -130.064654 
L 235.287298 -128.61795 
L 236.458491 -132.59452 
L 237.629684 -136.614857 
L 238.800877 -144.908471 
L 239.97207 -146.688799 
L 241.143263 -150.171473 
L 242.314456 -149.006875 
L 243.485649 -155.699699 
L 244.656842 -154.74799 
L 245.828035 -159.989141 
L 246.999228 -163.515246 
L 248.170421 -161.670929 
L 249.341614 -158.615664 
L 250.512807 -158.258861 
L 251.684 -162.820098 
L 252.855193 -160.622039 
L 254.026386 -162.161266 
L 255.197579 -164.227728 
L 256.368772 -167.133285 
L 257.539965 -160.280828 
L 258.711158 -161.87304 
L 259.882351 -157.515823 
L 261.053544 -153.383084 
L 262.224737 -142.675756 
L 263.39593 -145.923943 
L 264.567123 -145.989689 
L 265.738316 -143.260368 
L 266.909509 -141.22619 
L 268.080702 -142.970487 
L 269.251895 -141.680814 
L 270.423088 -132.542047 
L 271.594281 -125.613899 
L 272.765474 -121.128877 
L 273.936667 -117.949127 
L 275.10786 -114.305583 
L 276.279053 -108.77084 
L 277.450246 -105.583808 
L 278.621439 -106.303306 
L 279.792632 -109.651686 
L 280.963825 -111.487262 
L 282.135018 -114.420964 
L 283.306211 -120.011627 
L 284.477404 -130.768488 
L 285.648596 -134.704462 
L 286.819789 -136.180442 
L 287.990982 -143.525185 
L 289.162175 -148.799136 
L 290.333368 -163.316445 
L 291.504561 -174.008886 
L 292.675754 -177.859353 
L 293.846947 -181.963276 
L 295.01814 -178.906534 
L 296.189333 -180.126958 
L 297.360526 -178.9808 
L 298.531719 -173.324555 
L 299.702912 -176.945093 
L 300.874105 -176.375552 
L 302.045298 -170.709896 
L 303.216491 -169.646351 
L 304.387684 -164.73143 
L 305.558877 -163.499074 
L 306.73007 -158.197544 
L 307.901263 -161.365521 
L 309.072456 -158.037415 
L 310.243649 -158.027505 
L 311.414842 -157.731281 
L 312.586035 -158.964525 
L 313.757228 -156.287125 
L 314.928421 -152.116788 
L 316.099614 -155.764575 
L 317.270807 -157.62491 
L 318.442 -160.305523 
L 319.613193 -159.449125 
L 320.784386 -160.696294 
L 321.955579 -155.665935 
L 323.126772 -153.867824 
L 324.297965 -149.653639 
L 325.469158 -156.866888 
L 326.640351 -155.286628 
L 327.811544 -154.9243 
L 328.982737 -157.006495 
L 330.15393 -161.801818 
L 331.325123 -159.704937 
L 332.496316 -160.740158 
L 333.667509 -163.012533 
L 334.838702 -158.548735 
L 336.009895 -157.465309 
L 337.181088 -159.463217 
L 338.352281 -154.37002 
L 339.523474 -154.260651 
L 340.694667 -157.901393 
L 341.86586 -155.719947 
L 343.037053 -155.525232 
L 344.208246 -159.179704 
L 345.379439 -160.904533 
L 346.550632 -158.223072 
L 347.721825 -160.235688 
L 348.893018 -157.766564 
L 350.064211 -159.769239 
L 351.235404 -165.324891 
L 352.406596 -171.599279 
L 353.577789 -173.084717 
L 354.748982 -171.025874 
L 355.920175 -163.56712 
L 357.091368 -166.209469 
L 358.262561 -169.374422 
L 359.433754 -163.528019 
L 360.604947 -164.33726 
L 361.77614 -167.321442 
L 362.947333 -175.91405 
L 364.118526 -172.917685 
L 365.289719 -175.890745 
L 366.460912 -169.617396 
L 367.632105 -170.197302 
L 368.803298 -165.705963 
L 369.974491 -164.003779 
L 371.145684 -165.785843 
L 372.316877 -165.906539 
L 373.48807 -174.48197 
L 374.659263 -174.7291 
L 375.830456 -174.316866 
L 377.001649 -174.196818 
L 378.172842 -172.260242 
L 379.344035 -170.553261 
L 380.515228 -175.048756 
L 381.686421 -171.723109 
L 382.857614 -179.675984 
L 384.028807 -189.751806 
L 385.2 -189.844683 
L 385.2 -261.12 
L 385.2 -261.12 
L 384.028807 -260.533579 
L 382.857614 -247.088363 
L 381.686421 -236.059218 
L 380.515228 -236.04715 
L 379.344035 -230.763023 
L 378.172842 -232.471994 
L 377.001649 -235.39823 
L 375.830456 -236.870731 
L 374.659263 -235.195144 
L 373.48807 -232.461591 
L 372.316877 -221.725193 
L 371.145684 -220.153138 
L 369.974491 -218.915174 
L 368.803298 -221.413216 
L 367.632105 -225.645933 
L 366.460912 -224.732928 
L 365.289719 -232.145036 
L 364.118526 -227.866866 
L 362.947333 -230.788957 
L 361.77614 -220.97598 
L 360.604947 -218.000452 
L 359.433754 -217.360522 
L 358.262561 -222.366912 
L 357.091368 -217.684268 
L 355.920175 -216.341942 
L 354.748982 -225.644005 
L 353.577789 -231.066476 
L 352.406596 -227.617991 
L 351.235404 -220.443922 
L 350.064211 -215.876418 
L 348.893018 -213.799287 
L 347.721825 -214.074651 
L 346.550632 -210.345535 
L 345.379439 -212.154785 
L 344.208246 -209.191166 
L 343.037053 -206.102334 
L 341.86586 -207.760443 
L 340.694667 -211.025994 
L 339.523474 -206.350261 
L 338.352281 -207.692433 
L 337.181088 -213.316483 
L 336.009895 -210.821079 
L 334.838702 -212.019336 
L 333.667509 -220.199946 
L 332.496316 -217.663667 
L 331.325123 -213.575304 
L 330.15393 -217.759942 
L 328.982737 -209.496564 
L 327.811544 -206.171896 
L 326.640351 -205.726946 
L 325.469158 -208.785066 
L 324.297965 -200.139027 
L 323.126772 -205.188882 
L 321.955579 -209.685503 
L 320.784386 -220.813168 
L 319.613193 -218.046112 
L 318.442 -221.671581 
L 317.270807 -218.58086 
L 316.099614 -216.729951 
L 314.928421 -213.678553 
L 313.757228 -219.738102 
L 312.586035 -227.015866 
L 311.414842 -226.30914 
L 310.243649 -222.123657 
L 309.072456 -221.33439 
L 307.901263 -222.415098 
L 306.73007 -218.664581 
L 305.558877 -224.845665 
L 304.387684 -226.766629 
L 303.216491 -233.600913 
L 302.045298 -236.356766 
L 300.874105 -243.51322 
L 299.702912 -243.792889 
L 298.531719 -242.168407 
L 297.360526 -248.776275 
L 296.189333 -250.404748 
L 295.01814 -242.858585 
L 293.846947 -245.37595 
L 292.675754 -240.000748 
L 291.504561 -236.05847 
L 290.333368 -221.875876 
L 289.162175 -203.286317 
L 287.990982 -198.594824 
L 286.819789 -189.921974 
L 285.648596 -191.485045 
L 284.477404 -186.920857 
L 283.306211 -179.842737 
L 282.135018 -172.921298 
L 280.963825 -169.948512 
L 279.792632 -163.023738 
L 278.621439 -155.804336 
L 277.450246 -157.659 
L 276.279053 -160.225455 
L 275.10786 -166.289835 
L 273.936667 -163.460139 
L 272.765474 -166.917665 
L 271.594281 -172.095889 
L 270.423088 -178.380329 
L 269.251895 -188.255784 
L 268.080702 -188.306484 
L 266.909509 -186.817621 
L 265.738316 -191.111037 
L 264.567123 -195.413724 
L 263.39593 -196.403482 
L 262.224737 -191.190132 
L 261.053544 -204.835973 
L 259.882351 -210.946359 
L 258.711158 -217.117336 
L 257.539965 -215.494284 
L 256.368772 -226.237503 
L 255.197579 -219.707618 
L 254.026386 -217.757478 
L 252.855193 -223.231961 
L 251.684 -225.746745 
L 250.512807 -221.32557 
L 249.341614 -222.496914 
L 248.170421 -226.205016 
L 246.999228 -228.357726 
L 245.828035 -220.46188 
L 244.656842 -213.695255 
L 243.485649 -214.392525 
L 242.314456 -203.628294 
L 241.143263 -205.092882 
L 239.97207 -198.778299 
L 238.800877 -196.370102 
L 237.629684 -185.500395 
L 236.458491 -180.340761 
L 235.287298 -175.708713 
L 234.116105 -177.801517 
L 232.944912 -177.549452 
L 231.773719 -178.576291 
L 230.602526 -181.374681 
L 229.431333 -181.234917 
L 228.26014 -181.608086 
L 227.088947 -181.175881 
L 225.917754 -176.506752 
L 224.746561 -177.191502 
L 223.575368 -191.448901 
L 222.404175 -195.270373 
L 221.232982 -197.379105 
L 220.061789 -194.240874 
L 218.890596 -196.33651 
L 217.719404 -193.694825 
L 216.548211 -198.704589 
L 215.377018 -192.151904 
L 214.205825 -196.467081 
L 213.034632 -198.793026 
L 211.863439 -200.491308 
L 210.692246 -200.23186 
L 209.521053 -198.895128 
L 208.34986 -207.129486 
L 207.178667 -195.213055 
L 206.007474 -199.896385 
L 204.836281 -203.914223 
L 203.665088 -206.173387 
L 202.493895 -206.905499 
L 201.322702 -210.127864 
L 200.151509 -201.583377 
L 198.980316 -199.003603 
L 197.809123 -203.980543 
L 196.63793 -202.501956 
L 195.466737 -201.85885 
L 194.295544 -201.063312 
L 193.124351 -200.913741 
L 191.953158 -202.454969 
L 190.781965 -199.599381 
L 189.610772 -196.563363 
L 188.439579 -193.233911 
L 187.268386 -201.260374 
L 186.097193 -199.033383 
L 184.926 -200.465809 
L 183.754807 -201.582228 
L 182.583614 -199.874161 
L 181.412421 -200.670537 
L 180.241228 -202.395013 
L 179.070035 -203.440444 
L 177.898842 -216.171577 
L 176.727649 -214.361018 
L 175.556456 -206.763712 
L 174.385263 -212.970414 
L 173.21407 -213.003674 
L 172.042877 -211.418062 
L 170.871684 -215.139783 
L 169.700491 -214.049746 
L 168.529298 -220.292725 
L 167.358105 -220.547376 
L 166.186912 -223.891669 
L 165.015719 -232.044389 
L 163.844526 -236.080507 
L 162.673333 -234.99152 
L 161.50214 -237.172478 
L 160.330947 -238.107728 
L 159.159754 -239.603303 
L 157.988561 -246.335663 
L 156.817368 -250.214389 
L 155.646175 -252.647849 
L 154.474982 -253.530397 
L 153.303789 -259.977162 
L 152.132596 -251.789266 
L 150.961404 -252.165189 
L 149.790211 -247.862309 
L 148.619018 -253.00941 
L 147.447825 -247.130281 
L 146.276632 -234.27859 
L 145.105439 -227.77172 
L 143.934246 -221.819272 
L 142.763053 -220.014586 
L 141.59186 -212.39776 
L 140.420667 -206.62684 
L 139.249474 -204.603625 
L 138.078281 -202.777852 
L 136.907088 -199.806195 
L 135.735895 -200.886062 
L 134.564702 -197.956643 
L 133.393509 -195.946836 
L 132.222316 -193.253746 
L 131.051123 -193.738857 
L 129.87993 -194.441194 
L 128.708737 -187.098228 
L 127.537544 -189.793257 
L 126.366351 -187.60153 
L 125.195158 -182.114014 
L 124.023965 -184.588507 
L 122.852772 -183.604346 
L 121.681579 -184.593454 
L 120.510386 -186.583401 
L 119.339193 -172.118878 
L 118.168 -162.234772 
L 116.996807 -150.262486 
L 115.825614 -132.819322 
L 114.654421 -125.717306 
L 113.483228 -123.283898 
L 112.312035 -117.939021 
L 111.140842 -118.194457 
L 109.969649 -120.037323 
L 108.798456 -124.866658 
L 107.627263 -126.257862 
L 106.45607 -123.767074 
L 105.284877 -124.16349 
L 104.113684 -122.844098 
L 102.942491 -120.845165 
L 101.771298 -119.097989 
L 100.600105 -118.587503 
L 99.428912 -123.650518 
L 98.257719 -134.481198 
L 97.086526 -141.367136 
L 95.915333 -154.227265 
L 94.74414 -176.607696 
L 93.572947 -190.348296 
L 92.401754 -205.783586 
L 91.230561 -210.856964 
L 90.059368 -202.709733 
L 88.888175 -199.443865 
L 87.716982 -194.466513 
L 86.545789 -188.527745 
L 85.374596 -193.732873 
L 84.203404 -194.44985 
L 83.032211 -202.984143 
L 81.861018 -205.964684 
L 80.689825 -199.064501 
L 79.518632 -203.483763 
L 78.347439 -203.23058 
L 77.176246 -206.315027 
L 76.005053 -209.219993 
L 74.83386 -214.510126 
L 73.662667 -215.924557 
L 72.491474 -228.150729 
L 71.320281 -224.716924 
L 70.149088 -226.617999 
L 68.977895 -226.467561 
L 67.806702 -223.321451 
L 66.635509 -219.942805 
L 65.464316 -221.807402 
L 64.293123 -226.057523 
L 63.12193 -225.921788 
L 61.950737 -229.798806 
L 60.779544 -225.844733 
L 59.608351 -233.333999 
L 58.437158 -223.226669 
L 57.265965 -227.206938 
L 56.094772 -231.452878 
L 54.923579 -231.330227 
L 53.752386 -237.756603 
L 52.581193 -235.582168 
L 51.41 -239.951183 
z
" id="m51b8650e59" style="stroke:#0000ff;stroke-opacity:0.25;"/>
    </defs>
    <g clip-path="url(#p79b7811ac8)">
     <use style="fill:#0000ff;fill-opacity:0.25;stroke:#0000ff;stroke-opacity:0.25;" x="0" xlink:href="#m51b8650e59" y="288"/>
    </g>
   </g>
   <g id="PolyCollection_2">
    <defs>
     <path d="M 101.4785 -45.56 
L 101.4785 -271.384762 
L 277.157447 -271.384762 
L 277.157447 -45.56 
L 277.157447 -45.56 
L 101.4785 -45.56 
z
" id="m904f6bb182" style="stroke:#808080;stroke-opacity:0.3;"/>
    </defs>
    <g clip-path="url(#p79b7811ac8)">
     <use style="fill:#808080;fill-opacity:0.3;stroke:#808080;stroke-opacity:0.3;" x="0" xlink:href="#m904f6bb182" y="288"/>
    </g>
   </g>
   <g id="matplotlib.axis_1">
    <g id="xtick_1">
     <g id="line2d_1">
      <defs>
       <path d="M 0 0 
L 0 3.5 
" id="m5076bcfe8c" style="stroke:#000000;stroke-width:0.8;"/>
      </defs>
      <g>
       <use style="stroke:#000000;stroke-width:0.8;" x="101.4785" xlink:href="#m5076bcfe8c" y="242.44"/>
      </g>
     </g>
     <g id="text_1">
      <!-- 0.0 -->
      <defs>
       <path d="M 31.78125 66.40625 
Q 24.171875 66.40625 20.328125 58.90625 
Q 16.5 51.421875 16.5 36.375 
Q 16.5 21.390625 20.328125 13.890625 
Q 24.171875 6.390625 31.78125 6.390625 
Q 39.453125 6.390625 43.28125 13.890625 
Q 47.125 21.390625 47.125 36.375 
Q 47.125 51.421875 43.28125 58.90625 
Q 39.453125 66.40625 31.78125 66.40625 
z
M 31.78125 74.21875 
Q 44.046875 74.21875 50.515625 64.515625 
Q 56.984375 54.828125 56.984375 36.375 
Q 56.984375 17.96875 50.515625 8.265625 
Q 44.046875 -1.421875 31.78125 -1.421875 
Q 19.53125 -1.421875 13.0625 8.265625 
Q 6.59375 17.96875 6.59375 36.375 
Q 6.59375 54.828125 13.0625 64.515625 
Q 19.53125 74.21875 31.78125 74.21875 
z
" id="DejaVuSans-48"/>
       <path d="M 10.6875 12.40625 
L 21 12.40625 
L 21 0 
L 10.6875 0 
z
" id="DejaVuSans-46"/>
      </defs>
      <g transform="translate(93.526938 257.038437)scale(0.1 -0.1)">
       <use xlink:href="#DejaVuSans-48"/>
       <use x="63.623047" xlink:href="#DejaVuSans-46"/>
       <use x="95.410156" xlink:href="#DejaVuSans-48"/>
      </g>
     </g>
    </g>
    <g id="xtick_2">
     <g id="line2d_2">
      <g>
       <use style="stroke:#000000;stroke-width:0.8;" x="160.038149" xlink:href="#m5076bcfe8c" y="242.44"/>
      </g>
     </g>
     <g id="text_2">
      <!-- 0.5 -->
      <defs>
       <path d="M 10.796875 72.90625 
L 49.515625 72.90625 
L 49.515625 64.59375 
L 19.828125 64.59375 
L 19.828125 46.734375 
Q 21.96875 47.46875 24.109375 47.828125 
Q 26.265625 48.1875 28.421875 48.1875 
Q 40.625 48.1875 47.75 41.5 
Q 54.890625 34.8125 54.890625 23.390625 
Q 54.890625 11.625 47.5625 5.09375 
Q 40.234375 -1.421875 26.90625 -1.421875 
Q 22.3125 -1.421875 17.546875 -0.640625 
Q 12.796875 0.140625 7.71875 1.703125 
L 7.71875 11.625 
Q 12.109375 9.234375 16.796875 8.0625 
Q 21.484375 6.890625 26.703125 6.890625 
Q 35.15625 6.890625 40.078125 11.328125 
Q 45.015625 15.765625 45.015625 23.390625 
Q 45.015625 31 40.078125 35.4375 
Q 35.15625 39.890625 26.703125 39.890625 
Q 22.75 39.890625 18.8125 39.015625 
Q 14.890625 38.140625 10.796875 36.28125 
z
" id="DejaVuSans-53"/>
      </defs>
      <g transform="translate(152.086587 257.038437)scale(0.1 -0.1)">
       <use xlink:href="#DejaVuSans-48"/>
       <use x="63.623047" xlink:href="#DejaVuSans-46"/>
       <use x="95.410156" xlink:href="#DejaVuSans-53"/>
      </g>
     </g>
    </g>
    <g id="xtick_3">
     <g id="line2d_3">
      <g>
       <use style="stroke:#000000;stroke-width:0.8;" x="218.597798" xlink:href="#m5076bcfe8c" y="242.44"/>
      </g>
     </g>
     <g id="text_3">
      <!-- 1.0 -->
      <defs>
       <path d="M 12.40625 8.296875 
L 28.515625 8.296875 
L 28.515625 63.921875 
L 10.984375 60.40625 
L 10.984375 69.390625 
L 28.421875 72.90625 
L 38.28125 72.90625 
L 38.28125 8.296875 
L 54.390625 8.296875 
L 54.390625 0 
L 12.40625 0 
z
" id="DejaVuSans-49"/>
      </defs>
      <g transform="translate(210.646236 257.038437)scale(0.1 -0.1)">
       <use xlink:href="#DejaVuSans-49"/>
       <use x="63.623047" xlink:href="#DejaVuSans-46"/>
       <use x="95.410156" xlink:href="#DejaVuSans-48"/>
      </g>
     </g>
    </g>
    <g id="xtick_4">
     <g id="line2d_4">
      <g>
       <use style="stroke:#000000;stroke-width:0.8;" x="277.157447" xlink:href="#m5076bcfe8c" y="242.44"/>
      </g>
     </g>
     <g id="text_4">
      <!-- 1.5 -->
      <g transform="translate(269.205885 257.038437)scale(0.1 -0.1)">
       <use xlink:href="#DejaVuSans-49"/>
       <use x="63.623047" xlink:href="#DejaVuSans-46"/>
       <use x="95.410156" xlink:href="#DejaVuSans-53"/>
      </g>
     </g>
    </g>
    <g id="xtick_5">
     <g id="line2d_5">
      <g>
       <use style="stroke:#000000;stroke-width:0.8;" x="335.717096" xlink:href="#m5076bcfe8c" y="242.44"/>
      </g>
     </g>
     <g id="text_5">
      <!-- 2.0 -->
      <defs>
       <path d="M 19.1875 8.296875 
L 53.609375 8.296875 
L 53.609375 0 
L 7.328125 0 
L 7.328125 8.296875 
Q 12.9375 14.109375 22.625 23.890625 
Q 32.328125 33.6875 34.8125 36.53125 
Q 39.546875 41.84375 41.421875 45.53125 
Q 43.3125 49.21875 43.3125 52.78125 
Q 43.3125 58.59375 39.234375 62.25 
Q 35.15625 65.921875 28.609375 65.921875 
Q 23.96875 65.921875 18.8125 64.3125 
Q 13.671875 62.703125 7.8125 59.421875 
L 7.8125 69.390625 
Q 13.765625 71.78125 18.9375 73 
Q 24.125 74.21875 28.421875 74.21875 
Q 39.75 74.21875 46.484375 68.546875 
Q 53.21875 62.890625 53.21875 53.421875 
Q 53.21875 48.921875 51.53125 44.890625 
Q 49.859375 40.875 45.40625 35.40625 
Q 44.1875 33.984375 37.640625 27.21875 
Q 31.109375 20.453125 19.1875 8.296875 
z
" id="DejaVuSans-50"/>
      </defs>
      <g transform="translate(327.765534 257.038437)scale(0.1 -0.1)">
       <use xlink:href="#DejaVuSans-50"/>
       <use x="63.623047" xlink:href="#DejaVuSans-46"/>
       <use x="95.410156" xlink:href="#DejaVuSans-48"/>
      </g>
     </g>
    </g>
    <g id="text_6">
     <!-- Time (s) -->
     <defs>
      <path d="M -0.296875 72.90625 
L 61.375 72.90625 
L 61.375 64.59375 
L 35.5 64.59375 
L 35.5 0 
L 25.59375 0 
L 25.59375 64.59375 
L -0.296875 64.59375 
z
" id="DejaVuSans-84"/>
      <path d="M 9.421875 54.6875 
L 18.40625 54.6875 
L 18.40625 0 
L 9.421875 0 
z
M 9.421875 75.984375 
L 18.40625 75.984375 
L 18.40625 64.59375 
L 9.421875 64.59375 
z
" id="DejaVuSans-105"/>
      <path d="M 52 44.1875 
Q 55.375 50.25 60.0625 53.125 
Q 64.75 56 71.09375 56 
Q 79.640625 56 84.28125 50.015625 
Q 88.921875 44.046875 88.921875 33.015625 
L 88.921875 0 
L 79.890625 0 
L 79.890625 32.71875 
Q 79.890625 40.578125 77.09375 44.375 
Q 74.3125 48.1875 68.609375 48.1875 
Q 61.625 48.1875 57.5625 43.546875 
Q 53.515625 38.921875 53.515625 30.90625 
L 53.515625 0 
L 44.484375 0 
L 44.484375 32.71875 
Q 44.484375 40.625 41.703125 44.40625 
Q 38.921875 48.1875 33.109375 48.1875 
Q 26.21875 48.1875 22.15625 43.53125 
Q 18.109375 38.875 18.109375 30.90625 
L 18.109375 0 
L 9.078125 0 
L 9.078125 54.6875 
L 18.109375 54.6875 
L 18.109375 46.1875 
Q 21.1875 51.21875 25.484375 53.609375 
Q 29.78125 56 35.6875 56 
Q 41.65625 56 45.828125 52.96875 
Q 50 49.953125 52 44.1875 
z
" id="DejaVuSans-109"/>
      <path d="M 56.203125 29.59375 
L 56.203125 25.203125 
L 14.890625 25.203125 
Q 15.484375 15.921875 20.484375 11.0625 
Q 25.484375 6.203125 34.421875 6.203125 
Q 39.59375 6.203125 44.453125 7.46875 
Q 49.3125 8.734375 54.109375 11.28125 
L 54.109375 2.78125 
Q 49.265625 0.734375 44.1875 -0.34375 
Q 39.109375 -1.421875 33.890625 -1.421875 
Q 20.796875 -1.421875 13.15625 6.1875 
Q 5.515625 13.8125 5.515625 26.8125 
Q 5.515625 40.234375 12.765625 48.109375 
Q 20.015625 56 32.328125 56 
Q 43.359375 56 49.78125 48.890625 
Q 56.203125 41.796875 56.203125 29.59375 
z
M 47.21875 32.234375 
Q 47.125 39.59375 43.09375 43.984375 
Q 39.0625 48.390625 32.421875 48.390625 
Q 24.90625 48.390625 20.390625 44.140625 
Q 15.875 39.890625 15.1875 32.171875 
z
" id="DejaVuSans-101"/>
      <path id="DejaVuSans-32"/>
      <path d="M 31 75.875 
Q 24.46875 64.65625 21.28125 53.65625 
Q 18.109375 42.671875 18.109375 31.390625 
Q 18.109375 20.125 21.3125 9.0625 
Q 24.515625 -2 31 -13.1875 
L 23.1875 -13.1875 
Q 15.875 -1.703125 12.234375 9.375 
Q 8.59375 20.453125 8.59375 31.390625 
Q 8.59375 42.28125 12.203125 53.3125 
Q 15.828125 64.359375 23.1875 75.875 
z
" id="DejaVuSans-40"/>
      <path d="M 44.28125 53.078125 
L 44.28125 44.578125 
Q 40.484375 46.53125 36.375 47.5 
Q 32.28125 48.484375 27.875 48.484375 
Q 21.1875 48.484375 17.84375 46.4375 
Q 14.5 44.390625 14.5 40.28125 
Q 14.5 37.15625 16.890625 35.375 
Q 19.28125 33.59375 26.515625 31.984375 
L 29.59375 31.296875 
Q 39.15625 29.25 43.1875 25.515625 
Q 47.21875 21.78125 47.21875 15.09375 
Q 47.21875 7.46875 41.1875 3.015625 
Q 35.15625 -1.421875 24.609375 -1.421875 
Q 20.21875 -1.421875 15.453125 -0.5625 
Q 10.6875 0.296875 5.421875 2 
L 5.421875 11.28125 
Q 10.40625 8.6875 15.234375 7.390625 
Q 20.0625 6.109375 24.8125 6.109375 
Q 31.15625 6.109375 34.5625 8.28125 
Q 37.984375 10.453125 37.984375 14.40625 
Q 37.984375 18.0625 35.515625 20.015625 
Q 33.0625 21.96875 24.703125 23.78125 
L 21.578125 24.515625 
Q 13.234375 26.265625 9.515625 29.90625 
Q 5.8125 33.546875 5.8125 39.890625 
Q 5.8125 47.609375 11.28125 51.796875 
Q 16.75 56 26.8125 56 
Q 31.78125 56 36.171875 55.265625 
Q 40.578125 54.546875 44.28125 53.078125 
z
" id="DejaVuSans-115"/>
      <path d="M 8.015625 75.875 
L 15.828125 75.875 
Q 23.140625 64.359375 26.78125 53.3125 
Q 30.421875 42.28125 30.421875 31.390625 
Q 30.421875 20.453125 26.78125 9.375 
Q 23.140625 -1.703125 15.828125 -13.1875 
L 8.015625 -13.1875 
Q 14.5 -2 17.703125 9.0625 
Q 20.90625 20.125 20.90625 31.390625 
Q 20.90625 42.671875 17.703125 53.65625 
Q 14.5 64.65625 8.015625 75.875 
z
" id="DejaVuSans-41"/>
     </defs>
     <g transform="translate(188.80975 274.059875)scale(0.144 -0.144)">
      <use xlink:href="#DejaVuSans-84"/>
      <use x="61.037109" xlink:href="#DejaVuSans-105"/>
      <use x="88.820312" xlink:href="#DejaVuSans-109"/>
      <use x="186.232422" xlink:href="#DejaVuSans-101"/>
      <use x="247.755859" xlink:href="#DejaVuSans-32"/>
      <use x="279.542969" xlink:href="#DejaVuSans-40"/>
      <use x="318.556641" xlink:href="#DejaVuSans-115"/>
      <use x="370.65625" xlink:href="#DejaVuSans-41"/>
     </g>
    </g>
   </g>
   <g id="matplotlib.axis_2">
    <g id="ytick_1">
     <g id="line2d_6">
      <defs>
       <path d="M 0 0 
L -3.5 0 
" id="meec1eb6f05" style="stroke:#000000;stroke-width:0.8;"/>
      </defs>
      <g>
       <use style="stroke:#000000;stroke-width:0.8;" x="51.41" xlink:href="#meec1eb6f05" y="235.400157"/>
      </g>
     </g>
     <g id="text_7">
      <!-- 1.2 -->
      <g transform="translate(28.506875 239.199376)scale(0.1 -0.1)">
       <use xlink:href="#DejaVuSans-49"/>
       <use x="63.623047" xlink:href="#DejaVuSans-46"/>
       <use x="95.410156" xlink:href="#DejaVuSans-50"/>
      </g>
     </g>
    </g>
    <g id="ytick_2">
     <g id="line2d_7">
      <g>
       <use style="stroke:#000000;stroke-width:0.8;" x="51.41" xlink:href="#meec1eb6f05" y="202.593049"/>
      </g>
     </g>
     <g id="text_8">
      <!-- 1.3 -->
      <defs>
       <path d="M 40.578125 39.3125 
Q 47.65625 37.796875 51.625 33 
Q 55.609375 28.21875 55.609375 21.1875 
Q 55.609375 10.40625 48.1875 4.484375 
Q 40.765625 -1.421875 27.09375 -1.421875 
Q 22.515625 -1.421875 17.65625 -0.515625 
Q 12.796875 0.390625 7.625 2.203125 
L 7.625 11.71875 
Q 11.71875 9.328125 16.59375 8.109375 
Q 21.484375 6.890625 26.8125 6.890625 
Q 36.078125 6.890625 40.9375 10.546875 
Q 45.796875 14.203125 45.796875 21.1875 
Q 45.796875 27.640625 41.28125 31.265625 
Q 36.765625 34.90625 28.71875 34.90625 
L 20.21875 34.90625 
L 20.21875 43.015625 
L 29.109375 43.015625 
Q 36.375 43.015625 40.234375 45.921875 
Q 44.09375 48.828125 44.09375 54.296875 
Q 44.09375 59.90625 40.109375 62.90625 
Q 36.140625 65.921875 28.71875 65.921875 
Q 24.65625 65.921875 20.015625 65.03125 
Q 15.375 64.15625 9.8125 62.3125 
L 9.8125 71.09375 
Q 15.4375 72.65625 20.34375 73.4375 
Q 25.25 74.21875 29.59375 74.21875 
Q 40.828125 74.21875 47.359375 69.109375 
Q 53.90625 64.015625 53.90625 55.328125 
Q 53.90625 49.265625 50.4375 45.09375 
Q 46.96875 40.921875 40.578125 39.3125 
z
" id="DejaVuSans-51"/>
      </defs>
      <g transform="translate(28.506875 206.392268)scale(0.1 -0.1)">
       <use xlink:href="#DejaVuSans-49"/>
       <use x="63.623047" xlink:href="#DejaVuSans-46"/>
       <use x="95.410156" xlink:href="#DejaVuSans-51"/>
      </g>
     </g>
    </g>
    <g id="ytick_3">
     <g id="line2d_8">
      <g>
       <use style="stroke:#000000;stroke-width:0.8;" x="51.41" xlink:href="#meec1eb6f05" y="169.78594"/>
      </g>
     </g>
     <g id="text_9">
      <!-- 1.4 -->
      <defs>
       <path d="M 37.796875 64.3125 
L 12.890625 25.390625 
L 37.796875 25.390625 
z
M 35.203125 72.90625 
L 47.609375 72.90625 
L 47.609375 25.390625 
L 58.015625 25.390625 
L 58.015625 17.1875 
L 47.609375 17.1875 
L 47.609375 0 
L 37.796875 0 
L 37.796875 17.1875 
L 4.890625 17.1875 
L 4.890625 26.703125 
z
" id="DejaVuSans-52"/>
      </defs>
      <g transform="translate(28.506875 173.585159)scale(0.1 -0.1)">
       <use xlink:href="#DejaVuSans-49"/>
       <use x="63.623047" xlink:href="#DejaVuSans-46"/>
       <use x="95.410156" xlink:href="#DejaVuSans-52"/>
      </g>
     </g>
    </g>
    <g id="ytick_4">
     <g id="line2d_9">
      <g>
       <use style="stroke:#000000;stroke-width:0.8;" x="51.41" xlink:href="#meec1eb6f05" y="136.978832"/>
      </g>
     </g>
     <g id="text_10">
      <!-- 1.5 -->
      <g transform="translate(28.506875 140.778051)scale(0.1 -0.1)">
       <use xlink:href="#DejaVuSans-49"/>
       <use x="63.623047" xlink:href="#DejaVuSans-46"/>
       <use x="95.410156" xlink:href="#DejaVuSans-53"/>
      </g>
     </g>
    </g>
    <g id="ytick_5">
     <g id="line2d_10">
      <g>
       <use style="stroke:#000000;stroke-width:0.8;" x="51.41" xlink:href="#meec1eb6f05" y="104.171724"/>
      </g>
     </g>
     <g id="text_11">
      <!-- 1.6 -->
      <defs>
       <path d="M 33.015625 40.375 
Q 26.375 40.375 22.484375 35.828125 
Q 18.609375 31.296875 18.609375 23.390625 
Q 18.609375 15.53125 22.484375 10.953125 
Q 26.375 6.390625 33.015625 6.390625 
Q 39.65625 6.390625 43.53125 10.953125 
Q 47.40625 15.53125 47.40625 23.390625 
Q 47.40625 31.296875 43.53125 35.828125 
Q 39.65625 40.375 33.015625 40.375 
z
M 52.59375 71.296875 
L 52.59375 62.3125 
Q 48.875 64.0625 45.09375 64.984375 
Q 41.3125 65.921875 37.59375 65.921875 
Q 27.828125 65.921875 22.671875 59.328125 
Q 17.53125 52.734375 16.796875 39.40625 
Q 19.671875 43.65625 24.015625 45.921875 
Q 28.375 48.1875 33.59375 48.1875 
Q 44.578125 48.1875 50.953125 41.515625 
Q 57.328125 34.859375 57.328125 23.390625 
Q 57.328125 12.15625 50.6875 5.359375 
Q 44.046875 -1.421875 33.015625 -1.421875 
Q 20.359375 -1.421875 13.671875 8.265625 
Q 6.984375 17.96875 6.984375 36.375 
Q 6.984375 53.65625 15.1875 63.9375 
Q 23.390625 74.21875 37.203125 74.21875 
Q 40.921875 74.21875 44.703125 73.484375 
Q 48.484375 72.75 52.59375 71.296875 
z
" id="DejaVuSans-54"/>
      </defs>
      <g transform="translate(28.506875 107.970943)scale(0.1 -0.1)">
       <use xlink:href="#DejaVuSans-49"/>
       <use x="63.623047" xlink:href="#DejaVuSans-46"/>
       <use x="95.410156" xlink:href="#DejaVuSans-54"/>
      </g>
     </g>
    </g>
    <g id="ytick_6">
     <g id="line2d_11">
      <g>
       <use style="stroke:#000000;stroke-width:0.8;" x="51.41" xlink:href="#meec1eb6f05" y="71.364616"/>
      </g>
     </g>
     <g id="text_12">
      <!-- 1.7 -->
      <defs>
       <path d="M 8.203125 72.90625 
L 55.078125 72.90625 
L 55.078125 68.703125 
L 28.609375 0 
L 18.3125 0 
L 43.21875 64.59375 
L 8.203125 64.59375 
z
" id="DejaVuSans-55"/>
      </defs>
      <g transform="translate(28.506875 75.163834)scale(0.1 -0.1)">
       <use xlink:href="#DejaVuSans-49"/>
       <use x="63.623047" xlink:href="#DejaVuSans-46"/>
       <use x="95.410156" xlink:href="#DejaVuSans-55"/>
      </g>
     </g>
    </g>
    <g id="ytick_7">
     <g id="line2d_12">
      <g>
       <use style="stroke:#000000;stroke-width:0.8;" x="51.41" xlink:href="#meec1eb6f05" y="38.557507"/>
      </g>
     </g>
     <g id="text_13">
      <!-- 1.8 -->
      <defs>
       <path d="M 31.78125 34.625 
Q 24.75 34.625 20.71875 30.859375 
Q 16.703125 27.09375 16.703125 20.515625 
Q 16.703125 13.921875 20.71875 10.15625 
Q 24.75 6.390625 31.78125 6.390625 
Q 38.8125 6.390625 42.859375 10.171875 
Q 46.921875 13.96875 46.921875 20.515625 
Q 46.921875 27.09375 42.890625 30.859375 
Q 38.875 34.625 31.78125 34.625 
z
M 21.921875 38.8125 
Q 15.578125 40.375 12.03125 44.71875 
Q 8.5 49.078125 8.5 55.328125 
Q 8.5 64.0625 14.71875 69.140625 
Q 20.953125 74.21875 31.78125 74.21875 
Q 42.671875 74.21875 48.875 69.140625 
Q 55.078125 64.0625 55.078125 55.328125 
Q 55.078125 49.078125 51.53125 44.71875 
Q 48 40.375 41.703125 38.8125 
Q 48.828125 37.15625 52.796875 32.3125 
Q 56.78125 27.484375 56.78125 20.515625 
Q 56.78125 9.90625 50.3125 4.234375 
Q 43.84375 -1.421875 31.78125 -1.421875 
Q 19.734375 -1.421875 13.25 4.234375 
Q 6.78125 9.90625 6.78125 20.515625 
Q 6.78125 27.484375 10.78125 32.3125 
Q 14.796875 37.15625 21.921875 38.8125 
z
M 18.3125 54.390625 
Q 18.3125 48.734375 21.84375 45.5625 
Q 25.390625 42.390625 31.78125 42.390625 
Q 38.140625 42.390625 41.71875 45.5625 
Q 45.3125 48.734375 45.3125 54.390625 
Q 45.3125 60.0625 41.71875 63.234375 
Q 38.140625 66.40625 31.78125 66.40625 
Q 25.390625 66.40625 21.84375 63.234375 
Q 18.3125 60.0625 18.3125 54.390625 
z
" id="DejaVuSans-56"/>
      </defs>
      <g transform="translate(28.506875 42.356726)scale(0.1 -0.1)">
       <use xlink:href="#DejaVuSans-49"/>
       <use x="63.623047" xlink:href="#DejaVuSans-46"/>
       <use x="95.410156" xlink:href="#DejaVuSans-56"/>
      </g>
     </g>
    </g>
    <g id="text_14">
     <!-- Mean Fano Factor -->
     <defs>
      <path d="M 9.8125 72.90625 
L 24.515625 72.90625 
L 43.109375 23.296875 
L 61.8125 72.90625 
L 76.515625 72.90625 
L 76.515625 0 
L 66.890625 0 
L 66.890625 64.015625 
L 48.09375 14.015625 
L 38.1875 14.015625 
L 19.390625 64.015625 
L 19.390625 0 
L 9.8125 0 
z
" id="DejaVuSans-77"/>
      <path d="M 34.28125 27.484375 
Q 23.390625 27.484375 19.1875 25 
Q 14.984375 22.515625 14.984375 16.5 
Q 14.984375 11.71875 18.140625 8.90625 
Q 21.296875 6.109375 26.703125 6.109375 
Q 34.1875 6.109375 38.703125 11.40625 
Q 43.21875 16.703125 43.21875 25.484375 
L 43.21875 27.484375 
z
M 52.203125 31.203125 
L 52.203125 0 
L 43.21875 0 
L 43.21875 8.296875 
Q 40.140625 3.328125 35.546875 0.953125 
Q 30.953125 -1.421875 24.3125 -1.421875 
Q 15.921875 -1.421875 10.953125 3.296875 
Q 6 8.015625 6 15.921875 
Q 6 25.140625 12.171875 29.828125 
Q 18.359375 34.515625 30.609375 34.515625 
L 43.21875 34.515625 
L 43.21875 35.40625 
Q 43.21875 41.609375 39.140625 45 
Q 35.0625 48.390625 27.6875 48.390625 
Q 23 48.390625 18.546875 47.265625 
Q 14.109375 46.140625 10.015625 43.890625 
L 10.015625 52.203125 
Q 14.9375 54.109375 19.578125 55.046875 
Q 24.21875 56 28.609375 56 
Q 40.484375 56 46.34375 49.84375 
Q 52.203125 43.703125 52.203125 31.203125 
z
" id="DejaVuSans-97"/>
      <path d="M 54.890625 33.015625 
L 54.890625 0 
L 45.90625 0 
L 45.90625 32.71875 
Q 45.90625 40.484375 42.875 44.328125 
Q 39.84375 48.1875 33.796875 48.1875 
Q 26.515625 48.1875 22.3125 43.546875 
Q 18.109375 38.921875 18.109375 30.90625 
L 18.109375 0 
L 9.078125 0 
L 9.078125 54.6875 
L 18.109375 54.6875 
L 18.109375 46.1875 
Q 21.34375 51.125 25.703125 53.5625 
Q 30.078125 56 35.796875 56 
Q 45.21875 56 50.046875 50.171875 
Q 54.890625 44.34375 54.890625 33.015625 
z
" id="DejaVuSans-110"/>
      <path d="M 9.8125 72.90625 
L 51.703125 72.90625 
L 51.703125 64.59375 
L 19.671875 64.59375 
L 19.671875 43.109375 
L 48.578125 43.109375 
L 48.578125 34.8125 
L 19.671875 34.8125 
L 19.671875 0 
L 9.8125 0 
z
" id="DejaVuSans-70"/>
      <path d="M 30.609375 48.390625 
Q 23.390625 48.390625 19.1875 42.75 
Q 14.984375 37.109375 14.984375 27.296875 
Q 14.984375 17.484375 19.15625 11.84375 
Q 23.34375 6.203125 30.609375 6.203125 
Q 37.796875 6.203125 41.984375 11.859375 
Q 46.1875 17.53125 46.1875 27.296875 
Q 46.1875 37.015625 41.984375 42.703125 
Q 37.796875 48.390625 30.609375 48.390625 
z
M 30.609375 56 
Q 42.328125 56 49.015625 48.375 
Q 55.71875 40.765625 55.71875 27.296875 
Q 55.71875 13.875 49.015625 6.21875 
Q 42.328125 -1.421875 30.609375 -1.421875 
Q 18.84375 -1.421875 12.171875 6.21875 
Q 5.515625 13.875 5.515625 27.296875 
Q 5.515625 40.765625 12.171875 48.375 
Q 18.84375 56 30.609375 56 
z
" id="DejaVuSans-111"/>
      <path d="M 48.78125 52.59375 
L 48.78125 44.1875 
Q 44.96875 46.296875 41.140625 47.34375 
Q 37.3125 48.390625 33.40625 48.390625 
Q 24.65625 48.390625 19.8125 42.84375 
Q 14.984375 37.3125 14.984375 27.296875 
Q 14.984375 17.28125 19.8125 11.734375 
Q 24.65625 6.203125 33.40625 6.203125 
Q 37.3125 6.203125 41.140625 7.25 
Q 44.96875 8.296875 48.78125 10.40625 
L 48.78125 2.09375 
Q 45.015625 0.34375 40.984375 -0.53125 
Q 36.96875 -1.421875 32.421875 -1.421875 
Q 20.0625 -1.421875 12.78125 6.34375 
Q 5.515625 14.109375 5.515625 27.296875 
Q 5.515625 40.671875 12.859375 48.328125 
Q 20.21875 56 33.015625 56 
Q 37.15625 56 41.109375 55.140625 
Q 45.0625 54.296875 48.78125 52.59375 
z
" id="DejaVuSans-99"/>
      <path d="M 18.3125 70.21875 
L 18.3125 54.6875 
L 36.8125 54.6875 
L 36.8125 47.703125 
L 18.3125 47.703125 
L 18.3125 18.015625 
Q 18.3125 11.328125 20.140625 9.421875 
Q 21.96875 7.515625 27.59375 7.515625 
L 36.8125 7.515625 
L 36.8125 0 
L 27.59375 0 
Q 17.1875 0 13.234375 3.875 
Q 9.28125 7.765625 9.28125 18.015625 
L 9.28125 47.703125 
L 2.6875 47.703125 
L 2.6875 54.6875 
L 9.28125 54.6875 
L 9.28125 70.21875 
z
" id="DejaVuSans-116"/>
      <path d="M 41.109375 46.296875 
Q 39.59375 47.171875 37.8125 47.578125 
Q 36.03125 48 33.890625 48 
Q 26.265625 48 22.1875 43.046875 
Q 18.109375 38.09375 18.109375 28.8125 
L 18.109375 0 
L 9.078125 0 
L 9.078125 54.6875 
L 18.109375 54.6875 
L 18.109375 46.1875 
Q 20.953125 51.171875 25.484375 53.578125 
Q 30.03125 56 36.53125 56 
Q 37.453125 56 38.578125 55.875 
Q 39.703125 55.765625 41.0625 55.515625 
z
" id="DejaVuSans-114"/>
     </defs>
     <g transform="translate(21.512125 199.056125)rotate(-90)scale(0.144 -0.144)">
      <use xlink:href="#DejaVuSans-77"/>
      <use x="86.279297" xlink:href="#DejaVuSans-101"/>
      <use x="147.802734" xlink:href="#DejaVuSans-97"/>
      <use x="209.082031" xlink:href="#DejaVuSans-110"/>
      <use x="272.460938" xlink:href="#DejaVuSans-32"/>
      <use x="304.248047" xlink:href="#DejaVuSans-70"/>
      <use x="361.626953" xlink:href="#DejaVuSans-97"/>
      <use x="422.90625" xlink:href="#DejaVuSans-110"/>
      <use x="486.285156" xlink:href="#DejaVuSans-111"/>
      <use x="547.466797" xlink:href="#DejaVuSans-32"/>
      <use x="579.253906" xlink:href="#DejaVuSans-70"/>
      <use x="636.632812" xlink:href="#DejaVuSans-97"/>
      <use x="697.912109" xlink:href="#DejaVuSans-99"/>
      <use x="752.892578" xlink:href="#DejaVuSans-116"/>
      <use x="792.101562" xlink:href="#DejaVuSans-111"/>
      <use x="853.283203" xlink:href="#DejaVuSans-114"/>
     </g>
    </g>
   </g>
   <g id="line2d_13">
    <path clip-path="url(#p79b7811ac8)" d="M 51.41 77.022843 
L 52.581193 81.886557 
L 53.752386 80.243709 
L 54.923579 85.968155 
L 56.094772 86.685182 
L 58.437158 94.88304 
L 59.608351 87.692244 
L 60.779544 94.166691 
L 61.950737 90.670866 
L 63.12193 93.627902 
L 64.293123 93.511643 
L 65.464316 97.206926 
L 66.635509 99.11905 
L 67.806702 96.501203 
L 68.977895 94.243325 
L 70.149088 95.182314 
L 71.320281 97.571591 
L 72.491474 94.346943 
L 73.662667 103.790998 
L 74.83386 104.251046 
L 76.005053 109.132716 
L 78.347439 113.822309 
L 79.518632 113.17913 
L 80.689825 116.417529 
L 81.861018 110.235679 
L 83.032211 111.431466 
L 84.203404 118.576229 
L 85.374596 118.883403 
L 86.545789 123.460806 
L 88.888175 113.460529 
L 90.059368 110.488091 
L 91.230561 103.388611 
L 92.401754 107.722472 
L 93.572947 122.131157 
L 94.74414 134.234193 
L 95.915333 155.597872 
L 97.086526 167.920331 
L 98.257719 173.801074 
L 99.428912 183.459188 
L 100.600105 187.571384 
L 101.771298 187.128171 
L 102.942491 185.304247 
L 104.113684 184.360207 
L 105.284877 183.990783 
L 106.45607 184.534138 
L 107.627263 183.150263 
L 108.798456 185.162215 
L 109.969649 189.792328 
L 111.140842 192.113155 
L 112.312035 192.946575 
L 113.483228 188.28386 
L 114.654421 186.700367 
L 115.825614 180.267121 
L 116.996807 163.485949 
L 118.168 151.62299 
L 119.339193 142.358797 
L 120.510386 128.698938 
L 121.681579 130.993595 
L 122.852772 132.768024 
L 124.023965 131.701688 
L 125.195158 134.491914 
L 126.366351 129.518412 
L 127.537544 127.351553 
L 128.708737 130.277528 
L 129.87993 123.295096 
L 131.051123 123.989573 
L 132.222316 123.99236 
L 134.564702 119.282842 
L 135.735895 115.754964 
L 136.907088 116.278167 
L 138.078281 113.451694 
L 140.420667 110.106099 
L 141.59186 104.643921 
L 142.763053 97.405199 
L 143.934246 96.232133 
L 146.276632 84.847457 
L 147.447825 74.025107 
L 148.619018 71.171082 
L 149.790211 74.391339 
L 150.961404 71.108373 
L 152.132596 70.012431 
L 153.303789 63.422586 
L 154.474982 69.323811 
L 155.646175 69.379845 
L 156.817368 70.986566 
L 157.988561 74.757796 
L 159.159754 79.412731 
L 160.330947 81.842431 
L 161.50214 82.698059 
L 162.673333 85.187712 
L 163.844526 83.983531 
L 165.015719 87.202088 
L 166.186912 94.42805 
L 167.358105 96.188314 
L 168.529298 96.401756 
L 169.700491 101.564799 
L 170.871684 100.3492 
L 172.042877 103.602577 
L 173.21407 101.847654 
L 174.385263 101.928765 
L 175.556456 106.597271 
L 176.727649 99.403454 
L 177.898842 98.629899 
L 179.070035 109.563311 
L 180.241228 110.387115 
L 181.412421 112.300116 
L 182.583614 112.432773 
L 183.754807 110.586608 
L 184.926 111.520575 
L 186.097193 113.313877 
L 187.268386 112.097567 
L 188.439579 118.986789 
L 191.953158 111.393033 
L 193.124351 112.887861 
L 194.295544 113.413058 
L 195.466737 112.882289 
L 196.63793 112.696354 
L 197.809123 111.22042 
L 198.980316 115.941923 
L 200.151509 113.691849 
L 201.322702 108.336934 
L 202.493895 111.123973 
L 203.665088 111.679948 
L 204.836281 113.857155 
L 206.007474 117.862864 
L 207.178667 120.497842 
L 208.34986 110.959001 
L 209.521053 118.770641 
L 210.692246 116.112953 
L 211.863439 115.51764 
L 213.034632 116.139896 
L 214.205825 117.719057 
L 215.377018 121.867811 
L 216.548211 115.801462 
L 217.719404 119.396325 
L 218.890596 117.911425 
L 220.061789 119.106224 
L 221.232982 116.142704 
L 222.404175 118.352989 
L 223.575368 120.850627 
L 224.746561 133.201279 
L 225.917754 133.665676 
L 227.088947 129.414702 
L 228.26014 128.992433 
L 229.431333 129.621177 
L 230.602526 129.670432 
L 231.773719 132.674034 
L 232.944912 133.698628 
L 234.116105 134.066914 
L 235.287298 135.836668 
L 237.629684 126.942374 
L 238.800877 117.360713 
L 239.97207 115.266451 
L 241.143263 110.367823 
L 242.314456 111.682415 
L 243.485649 102.953888 
L 244.656842 103.778377 
L 246.999228 92.063514 
L 248.170421 94.062028 
L 249.341614 97.443711 
L 250.512807 98.207785 
L 251.684 93.716579 
L 252.855193 96.073 
L 254.026386 98.040628 
L 255.197579 96.032327 
L 256.368772 91.314606 
L 257.539965 100.112444 
L 258.711158 98.504812 
L 261.053544 108.890472 
L 262.224737 121.067056 
L 263.39593 116.836288 
L 264.567123 117.298294 
L 265.738316 120.814297 
L 266.909509 123.978094 
L 268.080702 122.361515 
L 269.251895 123.031701 
L 270.423088 132.538812 
L 271.594281 139.145106 
L 272.765474 143.976729 
L 273.936667 147.295367 
L 275.10786 147.702291 
L 276.279053 153.501853 
L 277.450246 156.378596 
L 278.621439 156.946179 
L 279.792632 151.662288 
L 280.963825 147.282113 
L 282.135018 144.328869 
L 283.306211 138.072818 
L 284.477404 129.155328 
L 285.648596 124.905246 
L 286.819789 124.948792 
L 287.990982 116.939996 
L 289.162175 111.957274 
L 290.333368 95.40384 
L 291.504561 82.966322 
L 292.675754 79.069949 
L 293.846947 74.330387 
L 295.01814 77.11744 
L 296.189333 72.734147 
L 297.360526 74.121462 
L 298.531719 80.253519 
L 299.702912 77.631009 
L 300.874105 78.055614 
L 302.045298 84.466669 
L 303.216491 86.376368 
L 304.387684 92.250971 
L 305.558877 93.827631 
L 306.73007 99.568937 
L 307.901263 96.109691 
L 309.072456 98.314098 
L 310.243649 97.924419 
L 311.414842 95.979789 
L 312.586035 95.009804 
L 314.928421 105.102329 
L 316.099614 101.752737 
L 317.270807 99.897115 
L 318.442 97.011448 
L 319.613193 99.252381 
L 320.784386 97.245269 
L 321.955579 105.324281 
L 323.126772 108.471647 
L 324.297965 113.103667 
L 325.469158 105.174023 
L 326.640351 107.493213 
L 327.811544 107.451902 
L 328.982737 104.74847 
L 330.15393 98.21912 
L 331.325123 101.35988 
L 333.667509 96.39376 
L 334.838702 102.715964 
L 336.009895 103.856806 
L 337.181088 101.61015 
L 338.352281 106.968774 
L 339.523474 107.694544 
L 340.694667 103.536306 
L 341.86586 106.259805 
L 343.037053 107.186217 
L 344.208246 103.814565 
L 345.379439 101.470341 
L 346.550632 103.715696 
L 347.721825 100.84483 
L 348.893018 102.217074 
L 350.064211 100.177171 
L 351.235404 95.115594 
L 352.406596 88.391365 
L 353.577789 85.924404 
L 354.748982 89.665061 
L 355.920175 98.045469 
L 357.091368 96.053131 
L 358.262561 92.129333 
L 359.433754 97.55573 
L 360.604947 96.831144 
L 361.77614 93.851289 
L 362.947333 84.648496 
L 364.118526 87.607725 
L 365.289719 83.982109 
L 366.460912 90.824838 
L 367.632105 90.078383 
L 368.803298 94.440411 
L 369.974491 96.540523 
L 371.145684 95.030509 
L 372.316877 94.184134 
L 373.48807 84.528219 
L 374.659263 83.037878 
L 375.830456 82.406202 
L 377.001649 83.202476 
L 378.172842 85.633882 
L 379.344035 87.341858 
L 380.515228 82.452047 
L 381.686421 84.108837 
L 382.857614 74.617827 
L 384.028807 62.857308 
L 385.2 62.517658 
L 385.2 62.517658 
" style="fill:none;stroke:#0000ff;stroke-linecap:square;stroke-width:1.5;"/>
   </g>
   <g id="line2d_14">
    <path clip-path="url(#p79b7811ac8)" d="M 90.059368 224.07503 
L 90.059368 232.175238 
L 114.654421 232.175238 
L 114.654421 224.07503 
" style="fill:none;stroke:#000000;stroke-linecap:square;stroke-width:1.5;"/>
   </g>
   <g id="patch_3">
    <path d="M 51.41 242.44 
L 51.41 26.88 
" style="fill:none;stroke:#000000;stroke-linecap:square;stroke-linejoin:miter;stroke-width:0.8;"/>
   </g>
   <g id="patch_4">
    <path d="M 385.2 242.44 
L 385.2 26.88 
" style="fill:none;stroke:#000000;stroke-linecap:square;stroke-linejoin:miter;stroke-width:0.8;"/>
   </g>
   <g id="patch_5">
    <path d="M 51.41 242.44 
L 385.2 242.44 
" style="fill:none;stroke:#000000;stroke-linecap:square;stroke-linejoin:miter;stroke-width:0.8;"/>
   </g>
   <g id="patch_6">
    <path d="M 51.41 26.88 
L 385.2 26.88 
" style="fill:none;stroke:#000000;stroke-linecap:square;stroke-linejoin:miter;stroke-width:0.8;"/>
   </g>
   <g id="text_15">
    <!-- *** -->
    <defs>
     <path d="M 47.015625 60.890625 
L 29.5 51.421875 
L 47.015625 41.890625 
L 44.1875 37.109375 
L 27.78125 47.015625 
L 27.78125 28.609375 
L 22.21875 28.609375 
L 22.21875 47.015625 
L 5.8125 37.109375 
L 2.984375 41.890625 
L 20.515625 51.421875 
L 2.984375 60.890625 
L 5.8125 65.71875 
L 22.21875 55.8125 
L 22.21875 74.21875 
L 27.78125 74.21875 
L 27.78125 55.8125 
L 44.1875 65.71875 
z
" id="DejaVuSans-42"/>
    </defs>
    <g transform="translate(94.856895 241.758227)scale(0.1 -0.1)">
     <use xlink:href="#DejaVuSans-42"/>
     <use x="50" xlink:href="#DejaVuSans-42"/>
     <use x="100" xlink:href="#DejaVuSans-42"/>
    </g>
   </g>
   <g id="text_16">
    <!-- V1, n = 106 cells -->
    <defs>
     <path d="M 28.609375 0 
L 0.78125 72.90625 
L 11.078125 72.90625 
L 34.1875 11.53125 
L 57.328125 72.90625 
L 67.578125 72.90625 
L 39.796875 0 
z
" id="DejaVuSans-86"/>
     <path d="M 11.71875 12.40625 
L 22.015625 12.40625 
L 22.015625 4 
L 14.015625 -11.625 
L 7.71875 -11.625 
L 11.71875 4 
z
" id="DejaVuSans-44"/>
     <path d="M 10.59375 45.40625 
L 73.1875 45.40625 
L 73.1875 37.203125 
L 10.59375 37.203125 
z
M 10.59375 25.484375 
L 73.1875 25.484375 
L 73.1875 17.1875 
L 10.59375 17.1875 
z
" id="DejaVuSans-61"/>
     <path d="M 9.421875 75.984375 
L 18.40625 75.984375 
L 18.40625 0 
L 9.421875 0 
z
" id="DejaVuSans-108"/>
    </defs>
    <g transform="translate(167.115625 20.88)scale(0.12 -0.12)">
     <use xlink:href="#DejaVuSans-86"/>
     <use x="68.408203" xlink:href="#DejaVuSans-49"/>
     <use x="132.03125" xlink:href="#DejaVuSans-44"/>
     <use x="163.818359" xlink:href="#DejaVuSans-32"/>
     <use x="195.605469" xlink:href="#DejaVuSans-110"/>
     <use x="258.984375" xlink:href="#DejaVuSans-32"/>
     <use x="290.771484" xlink:href="#DejaVuSans-61"/>
     <use x="374.560547" xlink:href="#DejaVuSans-32"/>
     <use x="406.347656" xlink:href="#DejaVuSans-49"/>
     <use x="469.970703" xlink:href="#DejaVuSans-48"/>
     <use x="533.59375" xlink:href="#DejaVuSans-54"/>
     <use x="597.216797" xlink:href="#DejaVuSans-32"/>
     <use x="629.003906" xlink:href="#DejaVuSans-99"/>
     <use x="683.984375" xlink:href="#DejaVuSans-101"/>
     <use x="745.507812" xlink:href="#DejaVuSans-108"/>
     <use x="773.291016" xlink:href="#DejaVuSans-108"/>
     <use x="801.074219" xlink:href="#DejaVuSans-115"/>
    </g>
   </g>
   <g id="legend_1">
    <g id="patch_7">
     <path d="M 289.588125 54.09375 
L 376.8 54.09375 
Q 379.2 54.09375 379.2 51.69375 
L 379.2 35.28 
Q 379.2 32.88 376.8 32.88 
L 289.588125 32.88 
Q 287.188125 32.88 287.188125 35.28 
L 287.188125 51.69375 
Q 287.188125 54.09375 289.588125 54.09375 
z
" style="fill:#ffffff;opacity:0.8;stroke:#cccccc;stroke-linejoin:miter;"/>
    </g>
    <g id="patch_8">
     <path d="M 291.988125 46.798125 
L 315.988125 46.798125 
L 315.988125 38.398125 
L 291.988125 38.398125 
z
" style="fill:#0000ff;opacity:0.25;stroke:#0000ff;stroke-linejoin:miter;"/>
    </g>
    <g id="text_17">
     <!-- Std. Err. -->
     <defs>
      <path d="M 53.515625 70.515625 
L 53.515625 60.890625 
Q 47.90625 63.578125 42.921875 64.890625 
Q 37.9375 66.21875 33.296875 66.21875 
Q 25.25 66.21875 20.875 63.09375 
Q 16.5 59.96875 16.5 54.203125 
Q 16.5 49.359375 19.40625 46.890625 
Q 22.3125 44.4375 30.421875 42.921875 
L 36.375 41.703125 
Q 47.40625 39.59375 52.65625 34.296875 
Q 57.90625 29 57.90625 20.125 
Q 57.90625 9.515625 50.796875 4.046875 
Q 43.703125 -1.421875 29.984375 -1.421875 
Q 24.8125 -1.421875 18.96875 -0.25 
Q 13.140625 0.921875 6.890625 3.21875 
L 6.890625 13.375 
Q 12.890625 10.015625 18.65625 8.296875 
Q 24.421875 6.59375 29.984375 6.59375 
Q 38.421875 6.59375 43.015625 9.90625 
Q 47.609375 13.234375 47.609375 19.390625 
Q 47.609375 24.75 44.3125 27.78125 
Q 41.015625 30.8125 33.5 32.328125 
L 27.484375 33.5 
Q 16.453125 35.6875 11.515625 40.375 
Q 6.59375 45.0625 6.59375 53.421875 
Q 6.59375 63.09375 13.40625 68.65625 
Q 20.21875 74.21875 32.171875 74.21875 
Q 37.3125 74.21875 42.625 73.28125 
Q 47.953125 72.359375 53.515625 70.515625 
z
" id="DejaVuSans-83"/>
      <path d="M 45.40625 46.390625 
L 45.40625 75.984375 
L 54.390625 75.984375 
L 54.390625 0 
L 45.40625 0 
L 45.40625 8.203125 
Q 42.578125 3.328125 38.25 0.953125 
Q 33.9375 -1.421875 27.875 -1.421875 
Q 17.96875 -1.421875 11.734375 6.484375 
Q 5.515625 14.40625 5.515625 27.296875 
Q 5.515625 40.1875 11.734375 48.09375 
Q 17.96875 56 27.875 56 
Q 33.9375 56 38.25 53.625 
Q 42.578125 51.265625 45.40625 46.390625 
z
M 14.796875 27.296875 
Q 14.796875 17.390625 18.875 11.75 
Q 22.953125 6.109375 30.078125 6.109375 
Q 37.203125 6.109375 41.296875 11.75 
Q 45.40625 17.390625 45.40625 27.296875 
Q 45.40625 37.203125 41.296875 42.84375 
Q 37.203125 48.484375 30.078125 48.484375 
Q 22.953125 48.484375 18.875 42.84375 
Q 14.796875 37.203125 14.796875 27.296875 
z
" id="DejaVuSans-100"/>
      <path d="M 9.8125 72.90625 
L 55.90625 72.90625 
L 55.90625 64.59375 
L 19.671875 64.59375 
L 19.671875 43.015625 
L 54.390625 43.015625 
L 54.390625 34.71875 
L 19.671875 34.71875 
L 19.671875 8.296875 
L 56.78125 8.296875 
L 56.78125 0 
L 9.8125 0 
z
" id="DejaVuSans-69"/>
     </defs>
     <g transform="translate(325.588125 46.798125)scale(0.12 -0.12)">
      <use xlink:href="#DejaVuSans-83"/>
      <use x="63.476562" xlink:href="#DejaVuSans-116"/>
      <use x="102.685547" xlink:href="#DejaVuSans-100"/>
      <use x="166.162109" xlink:href="#DejaVuSans-46"/>
      <use x="197.949219" xlink:href="#DejaVuSans-32"/>
      <use x="229.736328" xlink:href="#DejaVuSans-69"/>
      <use x="292.919922" xlink:href="#DejaVuSans-114"/>
      <use x="334.017578" xlink:href="#DejaVuSans-114"/>
      <use x="374.990234" xlink:href="#DejaVuSans-46"/>
     </g>
    </g>
   </g>
  </g>
 </g>
 <defs>
  <clipPath id="p79b7811ac8">
   <rect height="215.56" width="333.79" x="51.41" y="26.88"/>
  </clipPath>
 </defs>
</svg>
