<?xml version="1.0" encoding="utf-8" standalone="no"?>
<!DOCTYPE svg PUBLIC "-//W3C//DTD SVG 1.1//EN"
  "http://www.w3.org/Graphics/SVG/1.1/DTD/svg11.dtd">
<!-- Created with matplotlib (https://matplotlib.org/) -->
<svg height="223.2pt" version="1.1" viewBox="0 0 576 223.2" width="576pt" xmlns="http://www.w3.org/2000/svg" xmlns:xlink="http://www.w3.org/1999/xlink">
 <defs>
  <style type="text/css">
*{stroke-linecap:butt;stroke-linejoin:round;}
  </style>
 </defs>
 <g id="figure_1">
  <g id="patch_1">
   <path d="M 0 223.2 
L 576 223.2 
L 576 0 
L 0 0 
z
" style="fill:#ffffff;"/>
  </g>
  <g id="axes_1">
   <g id="patch_2">
    <path d="M 72.56 174.76 
L 565.2 174.76 
L 565.2 26.88 
L 72.56 26.88 
z
" style="fill:#ffffff;"/>
   </g>
   <g id="PolyCollection_1">
    <defs>
     <path d="M 132.978113 -48.44 
L 132.978113 -196.32 
L 411.830943 -196.32 
L 411.830943 -48.44 
L 411.830943 -48.44 
L 132.978113 -48.44 
z
" id="m50da02d6e6" style="stroke:#808080;stroke-opacity:0.3;"/>
    </defs>
    <g clip-path="url(#p03eea22c1b)">
     <use style="fill:#808080;fill-opacity:0.3;stroke:#808080;stroke-opacity:0.3;" x="0" xlink:href="#m50da02d6e6" y="223.2"/>
    </g>
   </g>
   <g id="PolyCollection_2">
    <defs>
     <path d="M 72.56 -195.245189 
L 72.56 -172.776047 
L 74.419019 -173.595454 
L 76.278038 -173.200664 
L 78.137057 -173.777406 
L 79.996075 -173.063239 
L 81.855094 -172.144032 
L 83.714113 -172.910507 
L 85.573132 -172.106932 
L 87.432151 -172.798927 
L 89.29117 -174.421634 
L 91.150189 -174.154944 
L 93.009208 -174.386585 
L 94.868226 -175.06027 
L 96.727245 -174.49735 
L 98.586264 -175.125633 
L 100.445283 -174.864276 
L 102.304302 -173.954102 
L 104.163321 -173.565026 
L 106.02234 -172.799627 
L 107.881358 -171.206753 
L 109.740377 -170.312392 
L 111.599396 -169.925908 
L 113.458415 -169.130684 
L 115.317434 -169.477311 
L 117.176453 -169.283115 
L 119.035472 -168.352192 
L 120.894491 -168.320755 
L 122.753509 -168.278382 
L 124.612528 -167.250467 
L 126.471547 -167.311187 
L 128.330566 -165.392109 
L 130.189585 -163.636366 
L 132.048604 -163.707573 
L 133.907623 -162.022378 
L 135.766642 -160.213188 
L 137.62566 -159.300615 
L 139.484679 -158.822031 
L 141.343698 -158.103247 
L 143.202717 -157.154507 
L 145.061736 -157.788219 
L 146.920755 -158.077771 
L 148.779774 -156.446624 
L 150.638792 -155.895993 
L 152.497811 -154.979078 
L 154.35683 -154.321154 
L 156.215849 -154.390775 
L 158.074868 -152.869256 
L 159.933887 -153.364954 
L 161.792906 -152.803471 
L 163.651925 -150.27558 
L 165.510943 -149.174572 
L 167.369962 -149.079485 
L 169.228981 -148.496727 
L 171.088 -148.198769 
L 172.947019 -146.918538 
L 174.806038 -146.975264 
L 176.665057 -146.991202 
L 178.524075 -144.796643 
L 180.383094 -145.63711 
L 182.242113 -145.488167 
L 184.101132 -145.664481 
L 185.960151 -146.21855 
L 187.81917 -145.99717 
L 189.678189 -145.176494 
L 191.537208 -145.048195 
L 193.396226 -145.099909 
L 195.255245 -144.348184 
L 197.114264 -144.133668 
L 198.973283 -142.827649 
L 200.832302 -142.932001 
L 202.691321 -143.045567 
L 204.55034 -142.315621 
L 206.409358 -142.433064 
L 208.268377 -142.659503 
L 210.127396 -142.888643 
L 211.986415 -144.428011 
L 213.845434 -145.707207 
L 215.704453 -146.400292 
L 217.563472 -147.426398 
L 219.422491 -147.928892 
L 221.281509 -149.121714 
L 223.140528 -149.628407 
L 224.999547 -150.572376 
L 226.858566 -150.543968 
L 228.717585 -150.680799 
L 230.576604 -150.213335 
L 232.435623 -151.515256 
L 234.294642 -151.463639 
L 236.15366 -152.416566 
L 238.012679 -153.022682 
L 239.871698 -153.358621 
L 241.730717 -152.18426 
L 243.589736 -153.093037 
L 245.448755 -153.604573 
L 247.307774 -153.593435 
L 249.166792 -153.414832 
L 251.025811 -153.826023 
L 252.88483 -153.856866 
L 254.743849 -153.14036 
L 256.602868 -153.112454 
L 258.461887 -152.871924 
L 260.320906 -151.860947 
L 262.179925 -152.046336 
L 264.038943 -152.340252 
L 265.897962 -152.899685 
L 267.756981 -153.099484 
L 269.616 -154.052427 
L 271.475019 -153.698855 
L 273.334038 -154.83422 
L 275.193057 -155.256945 
L 277.052075 -154.719006 
L 278.911094 -155.212415 
L 280.770113 -155.487777 
L 282.629132 -156.071929 
L 284.488151 -157.330947 
L 286.34717 -157.534612 
L 288.206189 -157.292386 
L 290.065208 -156.811206 
L 291.924226 -157.081226 
L 293.783245 -157.015031 
L 295.642264 -156.230064 
L 297.501283 -156.659196 
L 299.360302 -155.76905 
L 301.219321 -156.581602 
L 303.07834 -156.242174 
L 304.937358 -156.251713 
L 306.796377 -154.796748 
L 308.655396 -155.202847 
L 310.514415 -154.549682 
L 312.373434 -154.467114 
L 314.232453 -154.224094 
L 316.091472 -154.578479 
L 317.950491 -153.367422 
L 319.809509 -152.673376 
L 321.668528 -152.25247 
L 323.527547 -152.00041 
L 325.386566 -151.419427 
L 327.245585 -152.312656 
L 329.104604 -152.360013 
L 330.963623 -153.188811 
L 332.822642 -153.382136 
L 334.68166 -153.03829 
L 336.540679 -152.89155 
L 338.399698 -152.734992 
L 340.258717 -152.466566 
L 342.117736 -152.258832 
L 343.976755 -151.694437 
L 345.835774 -152.443808 
L 347.694792 -152.941113 
L 349.553811 -153.395472 
L 351.41283 -154.008323 
L 353.271849 -153.972928 
L 355.130868 -153.925716 
L 356.989887 -153.382924 
L 358.848906 -152.931245 
L 360.707925 -152.942912 
L 362.566943 -152.34453 
L 364.425962 -152.541083 
L 366.284981 -151.147364 
L 368.144 -151.239796 
L 370.003019 -151.562015 
L 371.862038 -152.016701 
L 373.721057 -152.852032 
L 375.580075 -152.578662 
L 377.439094 -153.355711 
L 379.298113 -154.270706 
L 381.157132 -155.487652 
L 383.016151 -155.103443 
L 384.87517 -155.099758 
L 386.734189 -154.925067 
L 388.593208 -155.174788 
L 390.452226 -155.806558 
L 392.311245 -157.13465 
L 394.170264 -158.381156 
L 396.029283 -159.266253 
L 397.888302 -159.283999 
L 399.747321 -160.918757 
L 401.60634 -160.713755 
L 403.465358 -160.995097 
L 405.324377 -161.249418 
L 407.183396 -161.216074 
L 409.042415 -161.810865 
L 410.901434 -161.962874 
L 412.760453 -161.296396 
L 414.619472 -161.387443 
L 416.478491 -161.282292 
L 418.337509 -161.705967 
L 420.196528 -161.422821 
L 422.055547 -161.537789 
L 423.914566 -161.551106 
L 425.773585 -161.074811 
L 427.632604 -161.052332 
L 429.491623 -160.805544 
L 431.350642 -160.523174 
L 433.20966 -159.969896 
L 435.068679 -159.050587 
L 436.927698 -158.423699 
L 438.786717 -158.976265 
L 440.645736 -158.67893 
L 442.504755 -158.408428 
L 444.363774 -157.612641 
L 446.222792 -157.413844 
L 448.081811 -156.397194 
L 449.94083 -155.918981 
L 451.799849 -155.560499 
L 453.658868 -155.034211 
L 455.517887 -153.13686 
L 457.376906 -152.734842 
L 459.235925 -152.812579 
L 461.094943 -152.260168 
L 462.953962 -151.588734 
L 464.812981 -150.474009 
L 466.672 -149.364596 
L 468.531019 -148.143799 
L 470.390038 -147.700432 
L 472.249057 -147.098643 
L 474.108075 -145.646756 
L 475.967094 -145.494153 
L 477.826113 -145.191629 
L 479.685132 -144.584527 
L 481.544151 -144.577285 
L 483.40317 -144.033999 
L 485.262189 -143.864175 
L 487.121208 -143.782295 
L 488.980226 -143.113751 
L 490.839245 -143.527975 
L 492.698264 -142.898217 
L 494.557283 -142.865548 
L 496.416302 -141.421795 
L 498.275321 -140.674617 
L 500.13434 -140.596756 
L 501.993358 -141.574979 
L 503.852377 -140.664987 
L 505.711396 -140.352558 
L 507.570415 -140.422215 
L 509.429434 -140.859712 
L 511.288453 -141.852523 
L 513.147472 -141.450744 
L 515.006491 -142.172288 
L 516.865509 -142.360987 
L 518.724528 -142.484175 
L 520.583547 -142.758221 
L 522.442566 -143.311224 
L 524.301585 -143.511336 
L 526.160604 -142.392685 
L 528.019623 -143.211787 
L 529.878642 -143.692267 
L 531.73766 -144.164161 
L 533.596679 -144.36972 
L 535.455698 -145.567787 
L 537.314717 -146.893932 
L 539.173736 -148.884328 
L 541.032755 -150.681444 
L 542.891774 -153.571349 
L 544.750792 -154.079978 
L 546.609811 -154.743413 
L 548.46883 -155.781377 
L 550.327849 -157.266744 
L 552.186868 -158.065893 
L 554.045887 -158.359276 
L 555.904906 -159.70066 
L 557.763925 -161.131881 
L 559.622943 -162.101415 
L 561.481962 -164.182606 
L 563.340981 -164.396253 
L 565.2 -164.829015 
L 565.2 -189.353001 
L 565.2 -189.353001 
L 563.340981 -188.710871 
L 561.481962 -187.849627 
L 559.622943 -186.034339 
L 557.763925 -185.257174 
L 555.904906 -184.001168 
L 554.045887 -182.655325 
L 552.186868 -182.276901 
L 550.327849 -181.194991 
L 548.46883 -179.993131 
L 546.609811 -179.015674 
L 544.750792 -177.798051 
L 542.891774 -176.425621 
L 541.032755 -174.344155 
L 539.173736 -172.11043 
L 537.314717 -170.473069 
L 535.455698 -168.44018 
L 533.596679 -166.547935 
L 531.73766 -165.947326 
L 529.878642 -164.4038 
L 528.019623 -163.137582 
L 526.160604 -161.806902 
L 524.301585 -162.703671 
L 522.442566 -162.097615 
L 520.583547 -161.038282 
L 518.724528 -159.968714 
L 516.865509 -159.151373 
L 515.006491 -159.071349 
L 513.147472 -158.046195 
L 511.288453 -158.450584 
L 509.429434 -157.696698 
L 507.570415 -156.924942 
L 505.711396 -157.128961 
L 503.852377 -157.6227 
L 501.993358 -158.862489 
L 500.13434 -158.228377 
L 498.275321 -158.284877 
L 496.416302 -158.478228 
L 494.557283 -160.124787 
L 492.698264 -159.689034 
L 490.839245 -160.671612 
L 488.980226 -160.682752 
L 487.121208 -162.16399 
L 485.262189 -162.08211 
L 483.40317 -162.584093 
L 481.544151 -163.115697 
L 479.685132 -163.645901 
L 477.826113 -165.05422 
L 475.967094 -165.557864 
L 474.108075 -165.942706 
L 472.249057 -168.118576 
L 470.390038 -169.263485 
L 468.531019 -170.566815 
L 466.672 -171.898884 
L 464.812981 -173.61106 
L 462.953962 -174.243033 
L 461.094943 -175.049574 
L 459.235925 -176.109499 
L 457.376906 -176.455959 
L 455.517887 -176.860109 
L 453.658868 -178.321792 
L 451.799849 -178.870395 
L 449.94083 -179.318081 
L 448.081811 -180.183482 
L 446.222792 -181.450976 
L 444.363774 -181.117817 
L 442.504755 -181.800005 
L 440.645736 -181.395142 
L 438.786717 -181.366529 
L 436.927698 -181.38165 
L 435.068679 -181.829653 
L 433.20966 -182.657042 
L 431.350642 -183.313016 
L 429.491623 -183.43373 
L 427.632604 -184.261833 
L 425.773585 -184.104992 
L 423.914566 -184.83795 
L 422.055547 -185.119989 
L 420.196528 -185.369319 
L 418.337509 -186.161064 
L 416.478491 -185.509848 
L 414.619472 -186.076504 
L 412.760453 -187.242442 
L 410.901434 -188.591385 
L 409.042415 -188.071587 
L 407.183396 -187.591487 
L 405.324377 -186.617613 
L 403.465358 -185.52832 
L 401.60634 -184.734771 
L 399.747321 -183.992324 
L 397.888302 -181.59624 
L 396.029283 -181.076542 
L 394.170264 -179.811857 
L 392.311245 -178.639858 
L 390.452226 -177.012 
L 388.593208 -176.434518 
L 386.734189 -175.743709 
L 384.87517 -174.897211 
L 383.016151 -174.490442 
L 381.157132 -175.046763 
L 379.298113 -173.173397 
L 377.439094 -172.207333 
L 375.580075 -171.506407 
L 373.721057 -171.367399 
L 371.862038 -170.724754 
L 370.003019 -170.507634 
L 368.144 -170.292408 
L 366.284981 -170.653562 
L 364.425962 -171.94707 
L 362.566943 -171.203094 
L 360.707925 -171.948326 
L 358.848906 -172.363076 
L 356.989887 -172.851927 
L 355.130868 -173.249665 
L 353.271849 -172.261923 
L 351.41283 -171.823444 
L 349.553811 -170.823959 
L 347.694792 -171.009595 
L 345.835774 -170.297648 
L 343.976755 -169.569044 
L 342.117736 -169.407733 
L 340.258717 -169.468721 
L 338.399698 -168.66285 
L 336.540679 -167.968847 
L 334.68166 -168.359552 
L 332.822642 -168.956235 
L 330.963623 -168.477753 
L 329.104604 -168.769106 
L 327.245585 -169.085185 
L 325.386566 -169.037886 
L 323.527547 -169.397432 
L 321.668528 -169.95154 
L 319.809509 -171.546055 
L 317.950491 -172.598706 
L 316.091472 -173.671792 
L 314.232453 -173.891817 
L 312.373434 -174.454965 
L 310.514415 -175.312926 
L 308.655396 -176.406458 
L 306.796377 -176.409474 
L 304.937358 -178.04482 
L 303.07834 -178.591805 
L 301.219321 -178.118015 
L 299.360302 -177.586953 
L 297.501283 -178.309144 
L 295.642264 -178.603914 
L 293.783245 -179.431283 
L 291.924226 -179.768173 
L 290.065208 -179.769471 
L 288.206189 -180.22882 
L 286.34717 -179.986593 
L 284.488151 -179.249729 
L 282.629132 -177.418436 
L 280.770113 -176.25589 
L 278.911094 -176.128168 
L 277.052075 -175.815409 
L 275.193057 -176.486722 
L 273.334038 -175.431472 
L 271.475019 -174.417055 
L 269.616 -175.004013 
L 267.756981 -174.210258 
L 265.897962 -173.469528 
L 264.038943 -173.222792 
L 262.179925 -173.113624 
L 260.320906 -173.433374 
L 258.461887 -174.572179 
L 256.602868 -175.809624 
L 254.743849 -176.184803 
L 252.88483 -176.946271 
L 251.025811 -176.977114 
L 249.166792 -176.582137 
L 247.307774 -176.940979 
L 245.448755 -176.392396 
L 243.589736 -175.69468 
L 241.730717 -174.85676 
L 239.871698 -175.294734 
L 238.012679 -174.555783 
L 236.15366 -173.549563 
L 234.294642 -173.024515 
L 232.435623 -172.972897 
L 230.576604 -170.781423 
L 228.717585 -170.44832 
L 226.858566 -170.182067 
L 224.999547 -170.019298 
L 223.140528 -168.679124 
L 221.281509 -168.110926 
L 219.422491 -167.019604 
L 217.563472 -166.312846 
L 215.704453 -165.054809 
L 213.845434 -163.732474 
L 211.986415 -163.130611 
L 210.127396 -161.445305 
L 208.268377 -161.137 
L 206.409358 -160.691632 
L 204.55034 -160.674714 
L 202.691321 -161.15402 
L 200.832302 -160.730141 
L 198.973283 -161.103215 
L 197.114264 -162.618785 
L 195.255245 -162.807353 
L 193.396226 -164.071049 
L 191.537208 -164.257124 
L 189.678189 -164.263187 
L 187.81917 -164.383039 
L 185.960151 -164.296021 
L 184.101132 -163.372116 
L 182.242113 -162.473538 
L 180.383094 -161.249704 
L 178.524075 -159.671666 
L 176.665057 -160.567419 
L 174.806038 -160.583357 
L 172.947019 -160.505721 
L 171.088 -161.509634 
L 169.228981 -161.61476 
L 167.369962 -162.509977 
L 165.510943 -162.817974 
L 163.651925 -163.866748 
L 161.792906 -166.847673 
L 159.933887 -167.629804 
L 158.074868 -167.722417 
L 156.215849 -169.828656 
L 154.35683 -170.838806 
L 152.497811 -171.92758 
L 150.638792 -172.891724 
L 148.779774 -173.147261 
L 146.920755 -176.0844 
L 145.061736 -175.836507 
L 143.202717 -175.260966 
L 141.343698 -176.59637 
L 139.484679 -177.2212 
L 137.62566 -177.683145 
L 135.766642 -178.785992 
L 133.907623 -180.60456 
L 132.048604 -182.144038 
L 130.189585 -182.215244 
L 128.330566 -183.818535 
L 126.471547 -185.392853 
L 124.612528 -186.662825 
L 122.753509 -187.919054 
L 120.894491 -187.876681 
L 119.035472 -187.845243 
L 117.176453 -189.064102 
L 115.317434 -189.676075 
L 113.458415 -189.485256 
L 111.599396 -190.571091 
L 109.740377 -190.990776 
L 107.881358 -191.977473 
L 106.02234 -193.474911 
L 104.163321 -194.45621 
L 102.304302 -194.738941 
L 100.445283 -195.709826 
L 98.586264 -195.58283 
L 96.727245 -195.404945 
L 94.868226 -196.32 
L 93.009208 -195.112626 
L 91.150189 -194.538099 
L 89.29117 -193.868324 
L 87.432151 -191.728913 
L 85.573132 -191.480378 
L 83.714113 -192.692224 
L 81.855094 -191.712002 
L 79.996075 -193.480022 
L 78.137057 -195.049997 
L 76.278038 -194.820572 
L 74.419019 -195.769395 
L 72.56 -195.245189 
z
" id="m3476d02cda" style="stroke:#0000ff;stroke-opacity:0.3;"/>
    </defs>
    <g clip-path="url(#p03eea22c1b)">
     <use style="fill:#0000ff;fill-opacity:0.3;stroke:#0000ff;stroke-opacity:0.3;" x="0" xlink:href="#m3476d02cda" y="223.2"/>
    </g>
   </g>
   <g id="matplotlib.axis_1">
    <g id="xtick_1">
     <g id="line2d_1">
      <defs>
       <path d="M 0 0 
L 0 3.5 
" id="m104ed1bd96" style="stroke:#000000;stroke-width:0.8;"/>
      </defs>
      <g>
       <use style="stroke:#000000;stroke-width:0.8;" x="132.978113" xlink:href="#m104ed1bd96" y="174.76"/>
      </g>
     </g>
     <g id="text_1">
      <!-- 0.0 -->
      <defs>
       <path d="M 31.78125 66.40625 
Q 24.171875 66.40625 20.328125 58.90625 
Q 16.5 51.421875 16.5 36.375 
Q 16.5 21.390625 20.328125 13.890625 
Q 24.171875 6.390625 31.78125 6.390625 
Q 39.453125 6.390625 43.28125 13.890625 
Q 47.125 21.390625 47.125 36.375 
Q 47.125 51.421875 43.28125 58.90625 
Q 39.453125 66.40625 31.78125 66.40625 
z
M 31.78125 74.21875 
Q 44.046875 74.21875 50.515625 64.515625 
Q 56.984375 54.828125 56.984375 36.375 
Q 56.984375 17.96875 50.515625 8.265625 
Q 44.046875 -1.421875 31.78125 -1.421875 
Q 19.53125 -1.421875 13.0625 8.265625 
Q 6.59375 17.96875 6.59375 36.375 
Q 6.59375 54.828125 13.0625 64.515625 
Q 19.53125 74.21875 31.78125 74.21875 
z
" id="DejaVuSans-48"/>
       <path d="M 10.6875 12.40625 
L 21 12.40625 
L 21 0 
L 10.6875 0 
z
" id="DejaVuSans-46"/>
      </defs>
      <g transform="translate(123.436238 190.878125)scale(0.12 -0.12)">
       <use xlink:href="#DejaVuSans-48"/>
       <use x="63.623047" xlink:href="#DejaVuSans-46"/>
       <use x="95.410156" xlink:href="#DejaVuSans-48"/>
      </g>
     </g>
    </g>
    <g id="xtick_2">
     <g id="line2d_2">
      <g>
       <use style="stroke:#000000;stroke-width:0.8;" x="225.929057" xlink:href="#m104ed1bd96" y="174.76"/>
      </g>
     </g>
     <g id="text_2">
      <!-- 0.5 -->
      <defs>
       <path d="M 10.796875 72.90625 
L 49.515625 72.90625 
L 49.515625 64.59375 
L 19.828125 64.59375 
L 19.828125 46.734375 
Q 21.96875 47.46875 24.109375 47.828125 
Q 26.265625 48.1875 28.421875 48.1875 
Q 40.625 48.1875 47.75 41.5 
Q 54.890625 34.8125 54.890625 23.390625 
Q 54.890625 11.625 47.5625 5.09375 
Q 40.234375 -1.421875 26.90625 -1.421875 
Q 22.3125 -1.421875 17.546875 -0.640625 
Q 12.796875 0.140625 7.71875 1.703125 
L 7.71875 11.625 
Q 12.109375 9.234375 16.796875 8.0625 
Q 21.484375 6.890625 26.703125 6.890625 
Q 35.15625 6.890625 40.078125 11.328125 
Q 45.015625 15.765625 45.015625 23.390625 
Q 45.015625 31 40.078125 35.4375 
Q 35.15625 39.890625 26.703125 39.890625 
Q 22.75 39.890625 18.8125 39.015625 
Q 14.890625 38.140625 10.796875 36.28125 
z
" id="DejaVuSans-53"/>
      </defs>
      <g transform="translate(216.387182 190.878125)scale(0.12 -0.12)">
       <use xlink:href="#DejaVuSans-48"/>
       <use x="63.623047" xlink:href="#DejaVuSans-46"/>
       <use x="95.410156" xlink:href="#DejaVuSans-53"/>
      </g>
     </g>
    </g>
    <g id="xtick_3">
     <g id="line2d_3">
      <g>
       <use style="stroke:#000000;stroke-width:0.8;" x="318.88" xlink:href="#m104ed1bd96" y="174.76"/>
      </g>
     </g>
     <g id="text_3">
      <!-- 1.0 -->
      <defs>
       <path d="M 12.40625 8.296875 
L 28.515625 8.296875 
L 28.515625 63.921875 
L 10.984375 60.40625 
L 10.984375 69.390625 
L 28.421875 72.90625 
L 38.28125 72.90625 
L 38.28125 8.296875 
L 54.390625 8.296875 
L 54.390625 0 
L 12.40625 0 
z
" id="DejaVuSans-49"/>
      </defs>
      <g transform="translate(309.338125 190.878125)scale(0.12 -0.12)">
       <use xlink:href="#DejaVuSans-49"/>
       <use x="63.623047" xlink:href="#DejaVuSans-46"/>
       <use x="95.410156" xlink:href="#DejaVuSans-48"/>
      </g>
     </g>
    </g>
    <g id="xtick_4">
     <g id="line2d_4">
      <g>
       <use style="stroke:#000000;stroke-width:0.8;" x="411.830943" xlink:href="#m104ed1bd96" y="174.76"/>
      </g>
     </g>
     <g id="text_4">
      <!-- 1.5 -->
      <g transform="translate(402.289068 190.878125)scale(0.12 -0.12)">
       <use xlink:href="#DejaVuSans-49"/>
       <use x="63.623047" xlink:href="#DejaVuSans-46"/>
       <use x="95.410156" xlink:href="#DejaVuSans-53"/>
      </g>
     </g>
    </g>
    <g id="xtick_5">
     <g id="line2d_5">
      <g>
       <use style="stroke:#000000;stroke-width:0.8;" x="504.781887" xlink:href="#m104ed1bd96" y="174.76"/>
      </g>
     </g>
     <g id="text_5">
      <!-- 2.0 -->
      <defs>
       <path d="M 19.1875 8.296875 
L 53.609375 8.296875 
L 53.609375 0 
L 7.328125 0 
L 7.328125 8.296875 
Q 12.9375 14.109375 22.625 23.890625 
Q 32.328125 33.6875 34.8125 36.53125 
Q 39.546875 41.84375 41.421875 45.53125 
Q 43.3125 49.21875 43.3125 52.78125 
Q 43.3125 58.59375 39.234375 62.25 
Q 35.15625 65.921875 28.609375 65.921875 
Q 23.96875 65.921875 18.8125 64.3125 
Q 13.671875 62.703125 7.8125 59.421875 
L 7.8125 69.390625 
Q 13.765625 71.78125 18.9375 73 
Q 24.125 74.21875 28.421875 74.21875 
Q 39.75 74.21875 46.484375 68.546875 
Q 53.21875 62.890625 53.21875 53.421875 
Q 53.21875 48.921875 51.53125 44.890625 
Q 49.859375 40.875 45.40625 35.40625 
Q 44.1875 33.984375 37.640625 27.21875 
Q 31.109375 20.453125 19.1875 8.296875 
z
" id="DejaVuSans-50"/>
      </defs>
      <g transform="translate(495.240012 190.878125)scale(0.12 -0.12)">
       <use xlink:href="#DejaVuSans-50"/>
       <use x="63.623047" xlink:href="#DejaVuSans-46"/>
       <use x="95.410156" xlink:href="#DejaVuSans-48"/>
      </g>
     </g>
    </g>
    <g id="text_6">
     <!-- Time (s) -->
     <defs>
      <path d="M -0.296875 72.90625 
L 61.375 72.90625 
L 61.375 64.59375 
L 35.5 64.59375 
L 35.5 0 
L 25.59375 0 
L 25.59375 64.59375 
L -0.296875 64.59375 
z
" id="DejaVuSans-84"/>
      <path d="M 9.421875 54.6875 
L 18.40625 54.6875 
L 18.40625 0 
L 9.421875 0 
z
M 9.421875 75.984375 
L 18.40625 75.984375 
L 18.40625 64.59375 
L 9.421875 64.59375 
z
" id="DejaVuSans-105"/>
      <path d="M 52 44.1875 
Q 55.375 50.25 60.0625 53.125 
Q 64.75 56 71.09375 56 
Q 79.640625 56 84.28125 50.015625 
Q 88.921875 44.046875 88.921875 33.015625 
L 88.921875 0 
L 79.890625 0 
L 79.890625 32.71875 
Q 79.890625 40.578125 77.09375 44.375 
Q 74.3125 48.1875 68.609375 48.1875 
Q 61.625 48.1875 57.5625 43.546875 
Q 53.515625 38.921875 53.515625 30.90625 
L 53.515625 0 
L 44.484375 0 
L 44.484375 32.71875 
Q 44.484375 40.625 41.703125 44.40625 
Q 38.921875 48.1875 33.109375 48.1875 
Q 26.21875 48.1875 22.15625 43.53125 
Q 18.109375 38.875 18.109375 30.90625 
L 18.109375 0 
L 9.078125 0 
L 9.078125 54.6875 
L 18.109375 54.6875 
L 18.109375 46.1875 
Q 21.1875 51.21875 25.484375 53.609375 
Q 29.78125 56 35.6875 56 
Q 41.65625 56 45.828125 52.96875 
Q 50 49.953125 52 44.1875 
z
" id="DejaVuSans-109"/>
      <path d="M 56.203125 29.59375 
L 56.203125 25.203125 
L 14.890625 25.203125 
Q 15.484375 15.921875 20.484375 11.0625 
Q 25.484375 6.203125 34.421875 6.203125 
Q 39.59375 6.203125 44.453125 7.46875 
Q 49.3125 8.734375 54.109375 11.28125 
L 54.109375 2.78125 
Q 49.265625 0.734375 44.1875 -0.34375 
Q 39.109375 -1.421875 33.890625 -1.421875 
Q 20.796875 -1.421875 13.15625 6.1875 
Q 5.515625 13.8125 5.515625 26.8125 
Q 5.515625 40.234375 12.765625 48.109375 
Q 20.015625 56 32.328125 56 
Q 43.359375 56 49.78125 48.890625 
Q 56.203125 41.796875 56.203125 29.59375 
z
M 47.21875 32.234375 
Q 47.125 39.59375 43.09375 43.984375 
Q 39.0625 48.390625 32.421875 48.390625 
Q 24.90625 48.390625 20.390625 44.140625 
Q 15.875 39.890625 15.1875 32.171875 
z
" id="DejaVuSans-101"/>
      <path id="DejaVuSans-32"/>
      <path d="M 31 75.875 
Q 24.46875 64.65625 21.28125 53.65625 
Q 18.109375 42.671875 18.109375 31.390625 
Q 18.109375 20.125 21.3125 9.0625 
Q 24.515625 -2 31 -13.1875 
L 23.1875 -13.1875 
Q 15.875 -1.703125 12.234375 9.375 
Q 8.59375 20.453125 8.59375 31.390625 
Q 8.59375 42.28125 12.203125 53.3125 
Q 15.828125 64.359375 23.1875 75.875 
z
" id="DejaVuSans-40"/>
      <path d="M 44.28125 53.078125 
L 44.28125 44.578125 
Q 40.484375 46.53125 36.375 47.5 
Q 32.28125 48.484375 27.875 48.484375 
Q 21.1875 48.484375 17.84375 46.4375 
Q 14.5 44.390625 14.5 40.28125 
Q 14.5 37.15625 16.890625 35.375 
Q 19.28125 33.59375 26.515625 31.984375 
L 29.59375 31.296875 
Q 39.15625 29.25 43.1875 25.515625 
Q 47.21875 21.78125 47.21875 15.09375 
Q 47.21875 7.46875 41.1875 3.015625 
Q 35.15625 -1.421875 24.609375 -1.421875 
Q 20.21875 -1.421875 15.453125 -0.5625 
Q 10.6875 0.296875 5.421875 2 
L 5.421875 11.28125 
Q 10.40625 8.6875 15.234375 7.390625 
Q 20.0625 6.109375 24.8125 6.109375 
Q 31.15625 6.109375 34.5625 8.28125 
Q 37.984375 10.453125 37.984375 14.40625 
Q 37.984375 18.0625 35.515625 20.015625 
Q 33.0625 21.96875 24.703125 23.78125 
L 21.578125 24.515625 
Q 13.234375 26.265625 9.515625 29.90625 
Q 5.8125 33.546875 5.8125 39.890625 
Q 5.8125 47.609375 11.28125 51.796875 
Q 16.75 56 26.8125 56 
Q 31.78125 56 36.171875 55.265625 
Q 40.578125 54.546875 44.28125 53.078125 
z
" id="DejaVuSans-115"/>
      <path d="M 8.015625 75.875 
L 15.828125 75.875 
Q 23.140625 64.359375 26.78125 53.3125 
Q 30.421875 42.28125 30.421875 31.390625 
Q 30.421875 20.453125 26.78125 9.375 
Q 23.140625 -1.703125 15.828125 -13.1875 
L 8.015625 -13.1875 
Q 14.5 -2 17.703125 9.0625 
Q 20.90625 20.125 20.90625 31.390625 
Q 20.90625 42.671875 17.703125 53.65625 
Q 14.5 64.65625 8.015625 75.875 
z
" id="DejaVuSans-41"/>
     </defs>
     <g transform="translate(289.38475 208.3155)scale(0.144 -0.144)">
      <use xlink:href="#DejaVuSans-84"/>
      <use x="61.037109" xlink:href="#DejaVuSans-105"/>
      <use x="88.820312" xlink:href="#DejaVuSans-109"/>
      <use x="186.232422" xlink:href="#DejaVuSans-101"/>
      <use x="247.755859" xlink:href="#DejaVuSans-32"/>
      <use x="279.542969" xlink:href="#DejaVuSans-40"/>
      <use x="318.556641" xlink:href="#DejaVuSans-115"/>
      <use x="370.65625" xlink:href="#DejaVuSans-41"/>
     </g>
    </g>
   </g>
   <g id="matplotlib.axis_2">
    <g id="ytick_1">
     <g id="line2d_6">
      <defs>
       <path d="M 0 0 
L -3.5 0 
" id="m79fbaca503" style="stroke:#000000;stroke-width:0.8;"/>
      </defs>
      <g>
       <use style="stroke:#000000;stroke-width:0.8;" x="72.56" xlink:href="#m79fbaca503" y="174.76"/>
      </g>
     </g>
     <g id="text_7">
      <!-- 0.0000 -->
      <g transform="translate(23.57125 179.319062)scale(0.12 -0.12)">
       <use xlink:href="#DejaVuSans-48"/>
       <use x="63.623047" xlink:href="#DejaVuSans-46"/>
       <use x="95.410156" xlink:href="#DejaVuSans-48"/>
       <use x="159.033203" xlink:href="#DejaVuSans-48"/>
       <use x="222.65625" xlink:href="#DejaVuSans-48"/>
       <use x="286.279297" xlink:href="#DejaVuSans-48"/>
      </g>
     </g>
    </g>
    <g id="ytick_2">
     <g id="line2d_7">
      <g>
       <use style="stroke:#000000;stroke-width:0.8;" x="72.56" xlink:href="#m79fbaca503" y="151.17958"/>
      </g>
     </g>
     <g id="text_8">
      <!-- 0.0025 -->
      <g transform="translate(23.57125 155.738643)scale(0.12 -0.12)">
       <use xlink:href="#DejaVuSans-48"/>
       <use x="63.623047" xlink:href="#DejaVuSans-46"/>
       <use x="95.410156" xlink:href="#DejaVuSans-48"/>
       <use x="159.033203" xlink:href="#DejaVuSans-48"/>
       <use x="222.65625" xlink:href="#DejaVuSans-50"/>
       <use x="286.279297" xlink:href="#DejaVuSans-53"/>
      </g>
     </g>
    </g>
    <g id="ytick_3">
     <g id="line2d_8">
      <g>
       <use style="stroke:#000000;stroke-width:0.8;" x="72.56" xlink:href="#m79fbaca503" y="127.599161"/>
      </g>
     </g>
     <g id="text_9">
      <!-- 0.0050 -->
      <g transform="translate(23.57125 132.158223)scale(0.12 -0.12)">
       <use xlink:href="#DejaVuSans-48"/>
       <use x="63.623047" xlink:href="#DejaVuSans-46"/>
       <use x="95.410156" xlink:href="#DejaVuSans-48"/>
       <use x="159.033203" xlink:href="#DejaVuSans-48"/>
       <use x="222.65625" xlink:href="#DejaVuSans-53"/>
       <use x="286.279297" xlink:href="#DejaVuSans-48"/>
      </g>
     </g>
    </g>
    <g id="ytick_4">
     <g id="line2d_9">
      <g>
       <use style="stroke:#000000;stroke-width:0.8;" x="72.56" xlink:href="#m79fbaca503" y="104.018741"/>
      </g>
     </g>
     <g id="text_10">
      <!-- 0.0075 -->
      <defs>
       <path d="M 8.203125 72.90625 
L 55.078125 72.90625 
L 55.078125 68.703125 
L 28.609375 0 
L 18.3125 0 
L 43.21875 64.59375 
L 8.203125 64.59375 
z
" id="DejaVuSans-55"/>
      </defs>
      <g transform="translate(23.57125 108.577804)scale(0.12 -0.12)">
       <use xlink:href="#DejaVuSans-48"/>
       <use x="63.623047" xlink:href="#DejaVuSans-46"/>
       <use x="95.410156" xlink:href="#DejaVuSans-48"/>
       <use x="159.033203" xlink:href="#DejaVuSans-48"/>
       <use x="222.65625" xlink:href="#DejaVuSans-55"/>
       <use x="286.279297" xlink:href="#DejaVuSans-53"/>
      </g>
     </g>
    </g>
    <g id="ytick_5">
     <g id="line2d_10">
      <g>
       <use style="stroke:#000000;stroke-width:0.8;" x="72.56" xlink:href="#m79fbaca503" y="80.438321"/>
      </g>
     </g>
     <g id="text_11">
      <!-- 0.0100 -->
      <g transform="translate(23.57125 84.997384)scale(0.12 -0.12)">
       <use xlink:href="#DejaVuSans-48"/>
       <use x="63.623047" xlink:href="#DejaVuSans-46"/>
       <use x="95.410156" xlink:href="#DejaVuSans-48"/>
       <use x="159.033203" xlink:href="#DejaVuSans-49"/>
       <use x="222.65625" xlink:href="#DejaVuSans-48"/>
       <use x="286.279297" xlink:href="#DejaVuSans-48"/>
      </g>
     </g>
    </g>
    <g id="ytick_6">
     <g id="line2d_11">
      <g>
       <use style="stroke:#000000;stroke-width:0.8;" x="72.56" xlink:href="#m79fbaca503" y="56.857902"/>
      </g>
     </g>
     <g id="text_12">
      <!-- 0.0125 -->
      <g transform="translate(23.57125 61.416964)scale(0.12 -0.12)">
       <use xlink:href="#DejaVuSans-48"/>
       <use x="63.623047" xlink:href="#DejaVuSans-46"/>
       <use x="95.410156" xlink:href="#DejaVuSans-48"/>
       <use x="159.033203" xlink:href="#DejaVuSans-49"/>
       <use x="222.65625" xlink:href="#DejaVuSans-50"/>
       <use x="286.279297" xlink:href="#DejaVuSans-53"/>
      </g>
     </g>
    </g>
    <g id="ytick_7">
     <g id="line2d_12">
      <g>
       <use style="stroke:#000000;stroke-width:0.8;" x="72.56" xlink:href="#m79fbaca503" y="33.277482"/>
      </g>
     </g>
     <g id="text_13">
      <!-- 0.0150 -->
      <g transform="translate(23.57125 37.836545)scale(0.12 -0.12)">
       <use xlink:href="#DejaVuSans-48"/>
       <use x="63.623047" xlink:href="#DejaVuSans-46"/>
       <use x="95.410156" xlink:href="#DejaVuSans-48"/>
       <use x="159.033203" xlink:href="#DejaVuSans-49"/>
       <use x="222.65625" xlink:href="#DejaVuSans-53"/>
       <use x="286.279297" xlink:href="#DejaVuSans-48"/>
      </g>
     </g>
    </g>
    <g id="text_14">
     <!-- Bin. $p$ -->
     <defs>
      <path d="M 19.671875 34.8125 
L 19.671875 8.109375 
L 35.5 8.109375 
Q 43.453125 8.109375 47.28125 11.40625 
Q 51.125 14.703125 51.125 21.484375 
Q 51.125 28.328125 47.28125 31.5625 
Q 43.453125 34.8125 35.5 34.8125 
z
M 19.671875 64.796875 
L 19.671875 42.828125 
L 34.28125 42.828125 
Q 41.5 42.828125 45.03125 45.53125 
Q 48.578125 48.25 48.578125 53.8125 
Q 48.578125 59.328125 45.03125 62.0625 
Q 41.5 64.796875 34.28125 64.796875 
z
M 9.8125 72.90625 
L 35.015625 72.90625 
Q 46.296875 72.90625 52.390625 68.21875 
Q 58.5 63.53125 58.5 54.890625 
Q 58.5 48.1875 55.375 44.234375 
Q 52.25 40.28125 46.1875 39.3125 
Q 53.46875 37.75 57.5 32.78125 
Q 61.53125 27.828125 61.53125 20.40625 
Q 61.53125 10.640625 54.890625 5.3125 
Q 48.25 0 35.984375 0 
L 9.8125 0 
z
" id="DejaVuSans-66"/>
      <path d="M 54.890625 33.015625 
L 54.890625 0 
L 45.90625 0 
L 45.90625 32.71875 
Q 45.90625 40.484375 42.875 44.328125 
Q 39.84375 48.1875 33.796875 48.1875 
Q 26.515625 48.1875 22.3125 43.546875 
Q 18.109375 38.921875 18.109375 30.90625 
L 18.109375 0 
L 9.078125 0 
L 9.078125 54.6875 
L 18.109375 54.6875 
L 18.109375 46.1875 
Q 21.34375 51.125 25.703125 53.5625 
Q 30.078125 56 35.796875 56 
Q 45.21875 56 50.046875 50.171875 
Q 54.890625 44.34375 54.890625 33.015625 
z
" id="DejaVuSans-110"/>
      <path d="M 49.609375 33.6875 
Q 49.609375 40.875 46.484375 44.671875 
Q 43.359375 48.484375 37.5 48.484375 
Q 33.5 48.484375 29.859375 46.4375 
Q 26.21875 44.390625 23.390625 40.484375 
Q 20.609375 36.625 18.9375 31.15625 
Q 17.28125 25.6875 17.28125 20.3125 
Q 17.28125 13.484375 20.40625 9.796875 
Q 23.53125 6.109375 29.296875 6.109375 
Q 33.546875 6.109375 37.1875 8.109375 
Q 40.828125 10.109375 43.40625 13.921875 
Q 46.1875 17.921875 47.890625 23.34375 
Q 49.609375 28.765625 49.609375 33.6875 
z
M 21.78125 46.390625 
Q 25.390625 51.125 30.296875 53.5625 
Q 35.203125 56 41.21875 56 
Q 49.609375 56 54.25 50.5 
Q 58.890625 45.015625 58.890625 35.109375 
Q 58.890625 27 56 19.65625 
Q 53.125 12.3125 47.703125 6.5 
Q 44.09375 2.640625 39.546875 0.609375 
Q 35.015625 -1.421875 29.984375 -1.421875 
Q 24.171875 -1.421875 20.21875 1 
Q 16.265625 3.421875 14.3125 8.203125 
L 8.6875 -20.796875 
L -0.296875 -20.796875 
L 14.40625 54.6875 
L 23.390625 54.6875 
z
" id="DejaVuSans-Oblique-112"/>
     </defs>
     <g transform="translate(16.54725 121.484)rotate(-90)scale(0.144 -0.144)">
      <use transform="translate(0 0.015625)" xlink:href="#DejaVuSans-66"/>
      <use transform="translate(68.603516 0.015625)" xlink:href="#DejaVuSans-105"/>
      <use transform="translate(96.386719 0.015625)" xlink:href="#DejaVuSans-110"/>
      <use transform="translate(159.765625 0.015625)" xlink:href="#DejaVuSans-46"/>
      <use transform="translate(191.552734 0.015625)" xlink:href="#DejaVuSans-32"/>
      <use transform="translate(223.339844 0.015625)" xlink:href="#DejaVuSans-Oblique-112"/>
     </g>
    </g>
   </g>
   <g id="line2d_13">
    <path clip-path="url(#p03eea22c1b)" d="M 72.56 39.189382 
L 74.419019 38.517575 
L 76.278038 39.189382 
L 78.137057 38.786298 
L 79.996075 39.92837 
L 81.855094 41.271983 
L 83.714113 40.398634 
L 85.573132 41.406345 
L 87.432151 40.93608 
L 89.29117 39.055021 
L 91.150189 38.853479 
L 93.009208 38.450395 
L 94.868226 37.509865 
L 96.727245 38.248853 
L 98.586264 37.845768 
L 100.445283 37.912949 
L 102.304302 38.853479 
L 104.163321 39.189382 
L 106.02234 40.062731 
L 107.881358 41.607887 
L 109.740377 42.548416 
L 111.599396 42.9515 
L 113.458415 43.89203 
L 115.317434 43.623307 
L 117.176453 44.026391 
L 119.035472 45.101282 
L 122.753509 45.101282 
L 124.612528 46.243354 
L 126.471547 46.84798 
L 130.189585 50.274195 
L 132.048604 50.274195 
L 133.907623 51.886531 
L 135.766642 53.70041 
L 137.62566 54.70812 
L 139.484679 55.178385 
L 141.343698 55.850191 
L 143.202717 56.992263 
L 145.061736 56.387637 
L 146.920755 56.118914 
L 148.779774 58.403057 
L 150.638792 58.806142 
L 154.35683 60.62002 
L 156.215849 61.090285 
L 158.074868 62.904163 
L 159.933887 62.702621 
L 161.792906 63.374428 
L 163.651925 66.128836 
L 165.510943 67.203727 
L 167.369962 67.405269 
L 169.228981 68.144256 
L 171.088 68.345798 
L 172.947019 69.48787 
L 176.665057 69.420689 
L 178.524075 70.965845 
L 180.383094 69.756593 
L 184.101132 68.681702 
L 185.960151 67.942714 
L 187.81917 68.009895 
L 189.678189 68.48016 
L 193.396226 68.614521 
L 195.255245 69.622231 
L 197.114264 69.823773 
L 198.973283 71.234568 
L 200.832302 71.368929 
L 202.691321 71.100206 
L 204.55034 71.704833 
L 206.409358 71.637652 
L 210.127396 71.033026 
L 211.986415 69.420689 
L 215.704453 67.47245 
L 217.563472 66.330378 
L 219.422491 65.725752 
L 221.281509 64.58368 
L 223.140528 64.046235 
L 224.999547 62.904163 
L 226.858566 62.836982 
L 228.717585 62.63544 
L 230.576604 62.702621 
L 232.435623 60.955923 
L 234.294642 60.955923 
L 238.012679 59.410768 
L 239.871698 58.873322 
L 241.730717 59.67949 
L 243.589736 58.806142 
L 245.448755 58.201515 
L 247.307774 57.932793 
L 249.166792 58.201515 
L 251.025811 57.798431 
L 252.88483 57.798431 
L 254.743849 58.537419 
L 256.602868 58.738961 
L 258.461887 59.477948 
L 260.320906 60.552839 
L 262.179925 60.62002 
L 264.038943 60.418478 
L 267.756981 59.545129 
L 269.616 58.67178 
L 271.475019 59.142045 
L 273.334038 58.067154 
L 275.193057 57.328166 
L 277.052075 57.932793 
L 278.911094 57.529709 
L 280.770113 57.328166 
L 282.629132 56.454818 
L 284.488151 54.909662 
L 286.34717 54.439397 
L 288.206189 54.439397 
L 290.065208 54.909662 
L 291.924226 54.775301 
L 293.783245 54.976843 
L 295.642264 55.783011 
L 297.501283 55.71583 
L 299.360302 56.521998 
L 301.219321 55.850191 
L 303.07834 55.783011 
L 304.937358 56.051734 
L 306.796377 57.596889 
L 308.655396 57.395347 
L 310.514415 58.268696 
L 314.232453 59.142045 
L 316.091472 59.074864 
L 317.950491 60.216936 
L 319.809509 61.090285 
L 321.668528 62.097995 
L 325.386566 62.971344 
L 327.245585 62.501079 
L 329.104604 62.63544 
L 332.822642 62.030814 
L 334.68166 62.501079 
L 336.540679 62.769802 
L 340.258717 62.232356 
L 343.976755 62.56826 
L 345.835774 61.829272 
L 347.694792 61.224646 
L 349.553811 61.090285 
L 351.41283 60.284117 
L 353.271849 60.082574 
L 355.130868 59.61231 
L 358.848906 60.552839 
L 360.707925 60.754381 
L 362.566943 61.426188 
L 364.425962 60.955923 
L 366.284981 62.299537 
L 368.144 62.433898 
L 371.862038 61.829272 
L 373.721057 61.090285 
L 375.580075 61.157465 
L 377.439094 60.418478 
L 379.298113 59.477948 
L 381.157132 57.932793 
L 383.016151 58.403057 
L 384.87517 58.201515 
L 386.734189 57.865612 
L 388.593208 57.395347 
L 390.452226 56.790721 
L 392.311245 55.312746 
L 394.170264 54.103494 
L 396.029283 53.028603 
L 397.888302 52.75988 
L 399.747321 50.74446 
L 401.60634 50.475737 
L 403.465358 49.938291 
L 405.324377 49.266485 
L 410.901434 47.922871 
L 412.760453 48.930581 
L 414.619472 49.468027 
L 416.478491 49.80393 
L 418.337509 49.266485 
L 420.196528 49.80393 
L 423.914566 50.005472 
L 425.773585 50.610098 
L 427.632604 50.542918 
L 429.491623 51.080363 
L 431.350642 51.281905 
L 433.20966 51.886531 
L 435.068679 52.75988 
L 436.927698 53.297326 
L 438.786717 53.028603 
L 440.645736 53.162964 
L 442.504755 53.095783 
L 444.363774 53.834771 
L 446.222792 53.76759 
L 448.081811 54.909662 
L 449.94083 55.581469 
L 451.799849 55.984553 
L 453.658868 56.521998 
L 455.517887 58.201515 
L 457.376906 58.604599 
L 459.235925 58.738961 
L 464.812981 61.157465 
L 468.531019 63.844693 
L 472.249057 65.59139 
L 474.108075 67.405269 
L 475.967094 67.673992 
L 477.826113 68.077076 
L 479.685132 69.084786 
L 481.544151 69.353509 
L 483.40317 69.890954 
L 485.262189 70.226858 
L 487.121208 70.226858 
L 488.980226 71.301749 
L 490.839245 71.100206 
L 492.698264 71.906375 
L 494.557283 71.704833 
L 496.416302 73.249988 
L 498.275321 73.720253 
L 500.13434 73.787434 
L 501.993358 72.981266 
L 503.852377 74.056157 
L 505.711396 74.459241 
L 507.570415 74.526421 
L 509.429434 73.921795 
L 511.288453 73.048446 
L 513.147472 73.45153 
L 515.006491 72.578181 
L 516.865509 72.44382 
L 518.724528 71.973555 
L 520.583547 71.301749 
L 522.442566 70.49558 
L 524.301585 70.092496 
L 526.160604 71.100206 
L 528.019623 70.025316 
L 529.878642 69.151967 
L 531.73766 68.144256 
L 533.596679 67.741172 
L 537.314717 64.5165 
L 539.173736 62.702621 
L 541.032755 60.687201 
L 542.891774 58.201515 
L 548.46883 55.312746 
L 550.327849 53.969132 
L 552.186868 53.028603 
L 554.045887 52.692699 
L 557.763925 50.005472 
L 559.622943 49.132123 
L 561.481962 47.183883 
L 565.2 46.108992 
L 565.2 46.108992 
" style="fill:none;stroke:#0000ff;stroke-linecap:square;stroke-width:1.5;"/>
   </g>
   <g id="patch_3">
    <path d="M 72.56 174.76 
L 72.56 26.88 
" style="fill:none;stroke:#000000;stroke-linecap:square;stroke-linejoin:miter;stroke-width:0.8;"/>
   </g>
   <g id="patch_4">
    <path d="M 565.2 174.76 
L 565.2 26.88 
" style="fill:none;stroke:#000000;stroke-linecap:square;stroke-linejoin:miter;stroke-width:0.8;"/>
   </g>
   <g id="patch_5">
    <path d="M 72.56 174.76 
L 565.2 174.76 
" style="fill:none;stroke:#000000;stroke-linecap:square;stroke-linejoin:miter;stroke-width:0.8;"/>
   </g>
   <g id="patch_6">
    <path d="M 72.56 26.88 
L 565.2 26.88 
" style="fill:none;stroke:#000000;stroke-linecap:square;stroke-linejoin:miter;stroke-width:0.8;"/>
   </g>
   <g id="text_15">
    <!-- Striatum, Num Trials=10 All unstimulated trials, Num cells = 351 -->
    <defs>
     <path d="M 53.515625 70.515625 
L 53.515625 60.890625 
Q 47.90625 63.578125 42.921875 64.890625 
Q 37.9375 66.21875 33.296875 66.21875 
Q 25.25 66.21875 20.875 63.09375 
Q 16.5 59.96875 16.5 54.203125 
Q 16.5 49.359375 19.40625 46.890625 
Q 22.3125 44.4375 30.421875 42.921875 
L 36.375 41.703125 
Q 47.40625 39.59375 52.65625 34.296875 
Q 57.90625 29 57.90625 20.125 
Q 57.90625 9.515625 50.796875 4.046875 
Q 43.703125 -1.421875 29.984375 -1.421875 
Q 24.8125 -1.421875 18.96875 -0.25 
Q 13.140625 0.921875 6.890625 3.21875 
L 6.890625 13.375 
Q 12.890625 10.015625 18.65625 8.296875 
Q 24.421875 6.59375 29.984375 6.59375 
Q 38.421875 6.59375 43.015625 9.90625 
Q 47.609375 13.234375 47.609375 19.390625 
Q 47.609375 24.75 44.3125 27.78125 
Q 41.015625 30.8125 33.5 32.328125 
L 27.484375 33.5 
Q 16.453125 35.6875 11.515625 40.375 
Q 6.59375 45.0625 6.59375 53.421875 
Q 6.59375 63.09375 13.40625 68.65625 
Q 20.21875 74.21875 32.171875 74.21875 
Q 37.3125 74.21875 42.625 73.28125 
Q 47.953125 72.359375 53.515625 70.515625 
z
" id="DejaVuSans-83"/>
     <path d="M 18.3125 70.21875 
L 18.3125 54.6875 
L 36.8125 54.6875 
L 36.8125 47.703125 
L 18.3125 47.703125 
L 18.3125 18.015625 
Q 18.3125 11.328125 20.140625 9.421875 
Q 21.96875 7.515625 27.59375 7.515625 
L 36.8125 7.515625 
L 36.8125 0 
L 27.59375 0 
Q 17.1875 0 13.234375 3.875 
Q 9.28125 7.765625 9.28125 18.015625 
L 9.28125 47.703125 
L 2.6875 47.703125 
L 2.6875 54.6875 
L 9.28125 54.6875 
L 9.28125 70.21875 
z
" id="DejaVuSans-116"/>
     <path d="M 41.109375 46.296875 
Q 39.59375 47.171875 37.8125 47.578125 
Q 36.03125 48 33.890625 48 
Q 26.265625 48 22.1875 43.046875 
Q 18.109375 38.09375 18.109375 28.8125 
L 18.109375 0 
L 9.078125 0 
L 9.078125 54.6875 
L 18.109375 54.6875 
L 18.109375 46.1875 
Q 20.953125 51.171875 25.484375 53.578125 
Q 30.03125 56 36.53125 56 
Q 37.453125 56 38.578125 55.875 
Q 39.703125 55.765625 41.0625 55.515625 
z
" id="DejaVuSans-114"/>
     <path d="M 34.28125 27.484375 
Q 23.390625 27.484375 19.1875 25 
Q 14.984375 22.515625 14.984375 16.5 
Q 14.984375 11.71875 18.140625 8.90625 
Q 21.296875 6.109375 26.703125 6.109375 
Q 34.1875 6.109375 38.703125 11.40625 
Q 43.21875 16.703125 43.21875 25.484375 
L 43.21875 27.484375 
z
M 52.203125 31.203125 
L 52.203125 0 
L 43.21875 0 
L 43.21875 8.296875 
Q 40.140625 3.328125 35.546875 0.953125 
Q 30.953125 -1.421875 24.3125 -1.421875 
Q 15.921875 -1.421875 10.953125 3.296875 
Q 6 8.015625 6 15.921875 
Q 6 25.140625 12.171875 29.828125 
Q 18.359375 34.515625 30.609375 34.515625 
L 43.21875 34.515625 
L 43.21875 35.40625 
Q 43.21875 41.609375 39.140625 45 
Q 35.0625 48.390625 27.6875 48.390625 
Q 23 48.390625 18.546875 47.265625 
Q 14.109375 46.140625 10.015625 43.890625 
L 10.015625 52.203125 
Q 14.9375 54.109375 19.578125 55.046875 
Q 24.21875 56 28.609375 56 
Q 40.484375 56 46.34375 49.84375 
Q 52.203125 43.703125 52.203125 31.203125 
z
" id="DejaVuSans-97"/>
     <path d="M 8.5 21.578125 
L 8.5 54.6875 
L 17.484375 54.6875 
L 17.484375 21.921875 
Q 17.484375 14.15625 20.5 10.265625 
Q 23.53125 6.390625 29.59375 6.390625 
Q 36.859375 6.390625 41.078125 11.03125 
Q 45.3125 15.671875 45.3125 23.6875 
L 45.3125 54.6875 
L 54.296875 54.6875 
L 54.296875 0 
L 45.3125 0 
L 45.3125 8.40625 
Q 42.046875 3.421875 37.71875 1 
Q 33.40625 -1.421875 27.6875 -1.421875 
Q 18.265625 -1.421875 13.375 4.4375 
Q 8.5 10.296875 8.5 21.578125 
z
M 31.109375 56 
z
" id="DejaVuSans-117"/>
     <path d="M 11.71875 12.40625 
L 22.015625 12.40625 
L 22.015625 4 
L 14.015625 -11.625 
L 7.71875 -11.625 
L 11.71875 4 
z
" id="DejaVuSans-44"/>
     <path d="M 9.8125 72.90625 
L 23.09375 72.90625 
L 55.421875 11.921875 
L 55.421875 72.90625 
L 64.984375 72.90625 
L 64.984375 0 
L 51.703125 0 
L 19.390625 60.984375 
L 19.390625 0 
L 9.8125 0 
z
" id="DejaVuSans-78"/>
     <path d="M 9.421875 75.984375 
L 18.40625 75.984375 
L 18.40625 0 
L 9.421875 0 
z
" id="DejaVuSans-108"/>
     <path d="M 10.59375 45.40625 
L 73.1875 45.40625 
L 73.1875 37.203125 
L 10.59375 37.203125 
z
M 10.59375 25.484375 
L 73.1875 25.484375 
L 73.1875 17.1875 
L 10.59375 17.1875 
z
" id="DejaVuSans-61"/>
     <path d="M 34.1875 63.1875 
L 20.796875 26.90625 
L 47.609375 26.90625 
z
M 28.609375 72.90625 
L 39.796875 72.90625 
L 67.578125 0 
L 57.328125 0 
L 50.6875 18.703125 
L 17.828125 18.703125 
L 11.1875 0 
L 0.78125 0 
z
" id="DejaVuSans-65"/>
     <path d="M 45.40625 46.390625 
L 45.40625 75.984375 
L 54.390625 75.984375 
L 54.390625 0 
L 45.40625 0 
L 45.40625 8.203125 
Q 42.578125 3.328125 38.25 0.953125 
Q 33.9375 -1.421875 27.875 -1.421875 
Q 17.96875 -1.421875 11.734375 6.484375 
Q 5.515625 14.40625 5.515625 27.296875 
Q 5.515625 40.1875 11.734375 48.09375 
Q 17.96875 56 27.875 56 
Q 33.9375 56 38.25 53.625 
Q 42.578125 51.265625 45.40625 46.390625 
z
M 14.796875 27.296875 
Q 14.796875 17.390625 18.875 11.75 
Q 22.953125 6.109375 30.078125 6.109375 
Q 37.203125 6.109375 41.296875 11.75 
Q 45.40625 17.390625 45.40625 27.296875 
Q 45.40625 37.203125 41.296875 42.84375 
Q 37.203125 48.484375 30.078125 48.484375 
Q 22.953125 48.484375 18.875 42.84375 
Q 14.796875 37.203125 14.796875 27.296875 
z
" id="DejaVuSans-100"/>
     <path d="M 48.78125 52.59375 
L 48.78125 44.1875 
Q 44.96875 46.296875 41.140625 47.34375 
Q 37.3125 48.390625 33.40625 48.390625 
Q 24.65625 48.390625 19.8125 42.84375 
Q 14.984375 37.3125 14.984375 27.296875 
Q 14.984375 17.28125 19.8125 11.734375 
Q 24.65625 6.203125 33.40625 6.203125 
Q 37.3125 6.203125 41.140625 7.25 
Q 44.96875 8.296875 48.78125 10.40625 
L 48.78125 2.09375 
Q 45.015625 0.34375 40.984375 -0.53125 
Q 36.96875 -1.421875 32.421875 -1.421875 
Q 20.0625 -1.421875 12.78125 6.34375 
Q 5.515625 14.109375 5.515625 27.296875 
Q 5.515625 40.671875 12.859375 48.328125 
Q 20.21875 56 33.015625 56 
Q 37.15625 56 41.109375 55.140625 
Q 45.0625 54.296875 48.78125 52.59375 
z
" id="DejaVuSans-99"/>
     <path d="M 40.578125 39.3125 
Q 47.65625 37.796875 51.625 33 
Q 55.609375 28.21875 55.609375 21.1875 
Q 55.609375 10.40625 48.1875 4.484375 
Q 40.765625 -1.421875 27.09375 -1.421875 
Q 22.515625 -1.421875 17.65625 -0.515625 
Q 12.796875 0.390625 7.625 2.203125 
L 7.625 11.71875 
Q 11.71875 9.328125 16.59375 8.109375 
Q 21.484375 6.890625 26.8125 6.890625 
Q 36.078125 6.890625 40.9375 10.546875 
Q 45.796875 14.203125 45.796875 21.1875 
Q 45.796875 27.640625 41.28125 31.265625 
Q 36.765625 34.90625 28.71875 34.90625 
L 20.21875 34.90625 
L 20.21875 43.015625 
L 29.109375 43.015625 
Q 36.375 43.015625 40.234375 45.921875 
Q 44.09375 48.828125 44.09375 54.296875 
Q 44.09375 59.90625 40.109375 62.90625 
Q 36.140625 65.921875 28.71875 65.921875 
Q 24.65625 65.921875 20.015625 65.03125 
Q 15.375 64.15625 9.8125 62.3125 
L 9.8125 71.09375 
Q 15.4375 72.65625 20.34375 73.4375 
Q 25.25 74.21875 29.59375 74.21875 
Q 40.828125 74.21875 47.359375 69.109375 
Q 53.90625 64.015625 53.90625 55.328125 
Q 53.90625 49.265625 50.4375 45.09375 
Q 46.96875 40.921875 40.578125 39.3125 
z
" id="DejaVuSans-51"/>
    </defs>
    <g transform="translate(122.828125 20.88)scale(0.12 -0.12)">
     <use xlink:href="#DejaVuSans-83"/>
     <use x="63.476562" xlink:href="#DejaVuSans-116"/>
     <use x="102.685547" xlink:href="#DejaVuSans-114"/>
     <use x="143.798828" xlink:href="#DejaVuSans-105"/>
     <use x="171.582031" xlink:href="#DejaVuSans-97"/>
     <use x="232.861328" xlink:href="#DejaVuSans-116"/>
     <use x="272.070312" xlink:href="#DejaVuSans-117"/>
     <use x="335.449219" xlink:href="#DejaVuSans-109"/>
     <use x="432.861328" xlink:href="#DejaVuSans-44"/>
     <use x="464.648438" xlink:href="#DejaVuSans-32"/>
     <use x="496.435547" xlink:href="#DejaVuSans-78"/>
     <use x="571.240234" xlink:href="#DejaVuSans-117"/>
     <use x="634.619141" xlink:href="#DejaVuSans-109"/>
     <use x="732.03125" xlink:href="#DejaVuSans-32"/>
     <use x="763.818359" xlink:href="#DejaVuSans-84"/>
     <use x="824.683594" xlink:href="#DejaVuSans-114"/>
     <use x="865.796875" xlink:href="#DejaVuSans-105"/>
     <use x="893.580078" xlink:href="#DejaVuSans-97"/>
     <use x="954.859375" xlink:href="#DejaVuSans-108"/>
     <use x="982.642578" xlink:href="#DejaVuSans-115"/>
     <use x="1034.742188" xlink:href="#DejaVuSans-61"/>
     <use x="1118.53125" xlink:href="#DejaVuSans-49"/>
     <use x="1182.154297" xlink:href="#DejaVuSans-48"/>
     <use x="1245.777344" xlink:href="#DejaVuSans-32"/>
     <use x="1277.564453" xlink:href="#DejaVuSans-65"/>
     <use x="1345.972656" xlink:href="#DejaVuSans-108"/>
     <use x="1373.755859" xlink:href="#DejaVuSans-108"/>
     <use x="1401.539062" xlink:href="#DejaVuSans-32"/>
     <use x="1433.326172" xlink:href="#DejaVuSans-117"/>
     <use x="1496.705078" xlink:href="#DejaVuSans-110"/>
     <use x="1560.083984" xlink:href="#DejaVuSans-115"/>
     <use x="1612.183594" xlink:href="#DejaVuSans-116"/>
     <use x="1651.392578" xlink:href="#DejaVuSans-105"/>
     <use x="1679.175781" xlink:href="#DejaVuSans-109"/>
     <use x="1776.587891" xlink:href="#DejaVuSans-117"/>
     <use x="1839.966797" xlink:href="#DejaVuSans-108"/>
     <use x="1867.75" xlink:href="#DejaVuSans-97"/>
     <use x="1929.029297" xlink:href="#DejaVuSans-116"/>
     <use x="1968.238281" xlink:href="#DejaVuSans-101"/>
     <use x="2029.761719" xlink:href="#DejaVuSans-100"/>
     <use x="2093.238281" xlink:href="#DejaVuSans-32"/>
     <use x="2125.025391" xlink:href="#DejaVuSans-116"/>
     <use x="2164.234375" xlink:href="#DejaVuSans-114"/>
     <use x="2205.347656" xlink:href="#DejaVuSans-105"/>
     <use x="2233.130859" xlink:href="#DejaVuSans-97"/>
     <use x="2294.410156" xlink:href="#DejaVuSans-108"/>
     <use x="2322.193359" xlink:href="#DejaVuSans-115"/>
     <use x="2374.292969" xlink:href="#DejaVuSans-44"/>
     <use x="2406.080078" xlink:href="#DejaVuSans-32"/>
     <use x="2437.867188" xlink:href="#DejaVuSans-78"/>
     <use x="2512.671875" xlink:href="#DejaVuSans-117"/>
     <use x="2576.050781" xlink:href="#DejaVuSans-109"/>
     <use x="2673.462891" xlink:href="#DejaVuSans-32"/>
     <use x="2705.25" xlink:href="#DejaVuSans-99"/>
     <use x="2760.230469" xlink:href="#DejaVuSans-101"/>
     <use x="2821.753906" xlink:href="#DejaVuSans-108"/>
     <use x="2849.537109" xlink:href="#DejaVuSans-108"/>
     <use x="2877.320312" xlink:href="#DejaVuSans-115"/>
     <use x="2929.419922" xlink:href="#DejaVuSans-32"/>
     <use x="2961.207031" xlink:href="#DejaVuSans-61"/>
     <use x="3044.996094" xlink:href="#DejaVuSans-32"/>
     <use x="3076.783203" xlink:href="#DejaVuSans-51"/>
     <use x="3140.40625" xlink:href="#DejaVuSans-53"/>
     <use x="3204.029297" xlink:href="#DejaVuSans-49"/>
    </g>
   </g>
   <g id="legend_1">
    <g id="patch_7">
     <path d="M 80.96 168.76 
L 183.08 168.76 
Q 185.48 168.76 185.48 166.36 
L 185.48 132.30625 
Q 185.48 129.90625 183.08 129.90625 
L 80.96 129.90625 
Q 78.56 129.90625 78.56 132.30625 
L 78.56 166.36 
Q 78.56 168.76 80.96 168.76 
z
" style="fill:#ffffff;opacity:0.8;stroke:#cccccc;stroke-linejoin:miter;"/>
    </g>
    <g id="line2d_14">
     <path d="M 83.36 139.62625 
L 107.36 139.62625 
" style="fill:none;stroke:#0000ff;stroke-linecap:square;stroke-width:1.5;"/>
    </g>
    <g id="line2d_15"/>
    <g id="text_16">
     <!-- Binomial $p$ -->
     <defs>
      <path d="M 30.609375 48.390625 
Q 23.390625 48.390625 19.1875 42.75 
Q 14.984375 37.109375 14.984375 27.296875 
Q 14.984375 17.484375 19.15625 11.84375 
Q 23.34375 6.203125 30.609375 6.203125 
Q 37.796875 6.203125 41.984375 11.859375 
Q 46.1875 17.53125 46.1875 27.296875 
Q 46.1875 37.015625 41.984375 42.703125 
Q 37.796875 48.390625 30.609375 48.390625 
z
M 30.609375 56 
Q 42.328125 56 49.015625 48.375 
Q 55.71875 40.765625 55.71875 27.296875 
Q 55.71875 13.875 49.015625 6.21875 
Q 42.328125 -1.421875 30.609375 -1.421875 
Q 18.84375 -1.421875 12.171875 6.21875 
Q 5.515625 13.875 5.515625 27.296875 
Q 5.515625 40.765625 12.171875 48.375 
Q 18.84375 56 30.609375 56 
z
" id="DejaVuSans-111"/>
     </defs>
     <g transform="translate(116.96 143.82625)scale(0.12 -0.12)">
      <use transform="translate(0 0.015625)" xlink:href="#DejaVuSans-66"/>
      <use transform="translate(68.603516 0.015625)" xlink:href="#DejaVuSans-105"/>
      <use transform="translate(96.386719 0.015625)" xlink:href="#DejaVuSans-110"/>
      <use transform="translate(159.765625 0.015625)" xlink:href="#DejaVuSans-111"/>
      <use transform="translate(220.947266 0.015625)" xlink:href="#DejaVuSans-109"/>
      <use transform="translate(318.359375 0.015625)" xlink:href="#DejaVuSans-105"/>
      <use transform="translate(346.142578 0.015625)" xlink:href="#DejaVuSans-97"/>
      <use transform="translate(407.421875 0.015625)" xlink:href="#DejaVuSans-108"/>
      <use transform="translate(435.205078 0.015625)" xlink:href="#DejaVuSans-32"/>
      <use transform="translate(466.992188 0.015625)" xlink:href="#DejaVuSans-Oblique-112"/>
     </g>
    </g>
    <g id="patch_8">
     <path d="M 83.36 161.464375 
L 107.36 161.464375 
L 107.36 153.064375 
L 83.36 153.064375 
z
" style="fill:#0000ff;opacity:0.3;stroke:#0000ff;stroke-linejoin:miter;"/>
    </g>
    <g id="text_17">
     <!-- Std. Err. -->
     <defs>
      <path d="M 9.8125 72.90625 
L 55.90625 72.90625 
L 55.90625 64.59375 
L 19.671875 64.59375 
L 19.671875 43.015625 
L 54.390625 43.015625 
L 54.390625 34.71875 
L 19.671875 34.71875 
L 19.671875 8.296875 
L 56.78125 8.296875 
L 56.78125 0 
L 9.8125 0 
z
" id="DejaVuSans-69"/>
     </defs>
     <g transform="translate(116.96 161.464375)scale(0.12 -0.12)">
      <use xlink:href="#DejaVuSans-83"/>
      <use x="63.476562" xlink:href="#DejaVuSans-116"/>
      <use x="102.685547" xlink:href="#DejaVuSans-100"/>
      <use x="166.162109" xlink:href="#DejaVuSans-46"/>
      <use x="197.949219" xlink:href="#DejaVuSans-32"/>
      <use x="229.736328" xlink:href="#DejaVuSans-69"/>
      <use x="292.919922" xlink:href="#DejaVuSans-114"/>
      <use x="334.017578" xlink:href="#DejaVuSans-114"/>
      <use x="374.990234" xlink:href="#DejaVuSans-46"/>
     </g>
    </g>
   </g>
  </g>
 </g>
 <defs>
  <clipPath id="p03eea22c1b">
   <rect height="147.88" width="492.64" x="72.56" y="26.88"/>
  </clipPath>
 </defs>
</svg>
