<?xml version="1.0" encoding="utf-8" standalone="no"?>
<!DOCTYPE svg PUBLIC "-//W3C//DTD SVG 1.1//EN"
  "http://www.w3.org/Graphics/SVG/1.1/DTD/svg11.dtd">
<!-- Created with matplotlib (https://matplotlib.org/) -->
<svg height="216pt" version="1.1" viewBox="0 0 648 216" width="648pt" xmlns="http://www.w3.org/2000/svg" xmlns:xlink="http://www.w3.org/1999/xlink">
 <defs>
  <style type="text/css">
*{stroke-linecap:butt;stroke-linejoin:round;}
  </style>
 </defs>
 <g id="figure_1">
  <g id="patch_1">
   <path d="M 0 216 
L 648 216 
L 648 0 
L 0 0 
z
" style="fill:#ffffff;"/>
  </g>
  <g id="axes_1">
   <g id="patch_2">
    <path d="M 81 192.24 
L 583.2 192.24 
L 583.2 25.92 
L 81 25.92 
z
" style="fill:#ffffff;"/>
   </g>
   <g id="PolyCollection_1">
    <defs>
     <path d="M 81 -148.926922 
L 81 -71.555969 
L 83.049796 -67.417004 
L 85.099592 -63.919896 
L 87.149388 -69.32043 
L 89.199184 -73.534445 
L 91.24898 -55.723849 
L 93.298776 -58.120367 
L 95.348571 -65.029285 
L 97.398367 -64.581364 
L 99.448163 -57.377085 
L 101.497959 -52.810839 
L 103.547755 -51.951283 
L 105.597551 -54.945567 
L 107.647347 -38.481299 
L 109.697143 -38.334421 
L 111.746939 -31.59245 
L 113.796735 -30.998203 
L 115.846531 -23.76 
L 117.896327 -24.267306 
L 119.946122 -24.859188 
L 121.995918 -32.488198 
L 124.045714 -52.008379 
L 126.09551 -55.777362 
L 128.145306 -63.775172 
L 130.195102 -62.3158 
L 132.244898 -66.066775 
L 134.294694 -67.990433 
L 136.34449 -65.367769 
L 138.394286 -62.303496 
L 140.444082 -67.865562 
L 142.493878 -66.445193 
L 144.543673 -51.057787 
L 146.593469 -58.911098 
L 148.643265 -49.931156 
L 150.693061 -53.363562 
L 152.742857 -47.097332 
L 154.792653 -56.236512 
L 156.842449 -71.54979 
L 158.892245 -71.931266 
L 160.942041 -69.199789 
L 162.991837 -57.820465 
L 165.041633 -68.766284 
L 167.091429 -69.151297 
L 169.141224 -71.530284 
L 171.19102 -72.013724 
L 173.240816 -82.176873 
L 175.290612 -73.249598 
L 177.340408 -60.41922 
L 179.390204 -63.165527 
L 181.44 -61.470059 
L 183.489796 -65.764157 
L 185.539592 -54.462632 
L 187.589388 -40.517408 
L 189.639184 -38.419232 
L 191.68898 -27.0423 
L 193.738776 -24.314231 
L 195.788571 -35.725943 
L 197.838367 -31.847695 
L 199.888163 -25.613607 
L 201.937959 -36.944663 
L 203.987755 -54.353418 
L 206.037551 -68.054636 
L 208.087347 -76.52208 
L 210.137143 -78.987974 
L 212.186939 -104.615047 
L 214.236735 -108.605996 
L 216.286531 -104.905944 
L 218.336327 -100.058741 
L 220.386122 -101.05937 
L 222.435918 -94.531134 
L 224.485714 -89.451493 
L 226.53551 -84.615133 
L 228.585306 -81.942747 
L 230.635102 -77.405138 
L 232.684898 -69.003494 
L 234.734694 -72.779216 
L 236.78449 -69.68667 
L 238.834286 -73.309181 
L 240.884082 -71.191309 
L 242.933878 -75.832162 
L 244.983673 -71.030242 
L 247.033469 -75.875897 
L 249.083265 -72.929648 
L 251.133061 -82.243096 
L 253.182857 -90.630442 
L 255.232653 -79.428382 
L 257.282449 -72.625034 
L 259.332245 -70.240261 
L 261.382041 -72.620988 
L 263.431837 -76.297782 
L 265.481633 -80.618 
L 267.531429 -77.720615 
L 269.581224 -82.601816 
L 271.63102 -88.960588 
L 273.680816 -65.137062 
L 275.730612 -75.348915 
L 277.780408 -74.303235 
L 279.830204 -78.384474 
L 281.88 -81.263806 
L 283.929796 -75.9574 
L 285.979592 -67.9461 
L 288.029388 -69.564171 
L 290.079184 -64.880367 
L 292.12898 -60.220673 
L 294.178776 -67.903034 
L 296.228571 -57.344088 
L 298.278367 -62.657656 
L 300.328163 -59.54932 
L 302.377959 -64.044888 
L 304.427755 -75.329905 
L 306.477551 -76.613016 
L 308.527347 -74.029573 
L 310.577143 -75.750154 
L 312.626939 -66.238498 
L 314.676735 -68.971118 
L 316.726531 -63.557245 
L 318.776327 -68.975911 
L 320.826122 -77.612333 
L 322.875918 -81.206561 
L 324.925714 -71.030064 
L 326.97551 -79.491464 
L 329.025306 -76.930359 
L 331.075102 -84.611823 
L 333.124898 -100.755449 
L 335.174694 -100.374914 
L 337.22449 -107.110989 
L 339.274286 -90.990439 
L 341.324082 -74.01897 
L 343.373878 -69.158305 
L 345.423673 -76.037094 
L 347.473469 -75.062192 
L 349.523265 -78.871385 
L 351.573061 -87.644174 
L 353.622857 -77.824229 
L 355.672653 -68.876548 
L 357.722449 -57.549483 
L 359.772245 -59.611118 
L 361.822041 -60.456094 
L 363.871837 -59.643426 
L 365.921633 -56.780977 
L 367.971429 -58.303739 
L 370.021224 -58.159957 
L 372.07102 -47.326592 
L 374.120816 -41.700851 
L 376.170612 -44.162849 
L 378.220408 -48.14598 
L 380.270204 -45.475199 
L 382.32 -52.273884 
L 384.369796 -48.397834 
L 386.419592 -43.900182 
L 388.469388 -38.345293 
L 390.519184 -36.08109 
L 392.56898 -42.574901 
L 394.618776 -46.336804 
L 396.668571 -45.461273 
L 398.718367 -55.761784 
L 400.768163 -60.791864 
L 402.817959 -58.58776 
L 404.867755 -58.115881 
L 406.917551 -56.847209 
L 408.967347 -65.77311 
L 411.017143 -59.467443 
L 413.066939 -57.363402 
L 415.116735 -51.725994 
L 417.166531 -52.635858 
L 419.216327 -43.701979 
L 421.266122 -57.410721 
L 423.315918 -49.45018 
L 425.365714 -57.691083 
L 427.41551 -67.337863 
L 429.465306 -56.509014 
L 431.515102 -66.624111 
L 433.564898 -64.596801 
L 435.614694 -72.243258 
L 437.66449 -84.042613 
L 439.714286 -86.181425 
L 441.764082 -72.537286 
L 443.813878 -80.217107 
L 445.863673 -68.762577 
L 447.913469 -53.616468 
L 449.963265 -46.612171 
L 452.013061 -40.157283 
L 454.062857 -40.971958 
L 456.112653 -44.412342 
L 458.162449 -41.784759 
L 460.212245 -32.096309 
L 462.262041 -38.129497 
L 464.311837 -44.216275 
L 466.361633 -64.553355 
L 468.411429 -75.425972 
L 470.461224 -80.868929 
L 472.51102 -78.692363 
L 474.560816 -83.921822 
L 476.610612 -83.196827 
L 478.660408 -84.591448 
L 480.710204 -89.341737 
L 482.76 -87.950242 
L 484.809796 -86.009594 
L 486.859592 -76.87879 
L 488.909388 -74.928462 
L 490.959184 -74.683502 
L 493.00898 -74.906001 
L 495.058776 -72.629549 
L 497.108571 -62.97771 
L 499.158367 -68.445523 
L 501.208163 -78.916289 
L 503.257959 -71.629024 
L 505.307755 -75.478289 
L 507.357551 -65.383112 
L 509.407347 -70.754518 
L 511.457143 -76.367703 
L 513.506939 -76.379167 
L 515.556735 -70.66201 
L 517.606531 -77.73614 
L 519.656327 -74.504196 
L 521.706122 -71.358215 
L 523.755918 -76.512141 
L 525.805714 -70.842966 
L 527.85551 -69.473919 
L 529.905306 -63.455388 
L 531.955102 -57.56137 
L 534.004898 -53.235967 
L 536.054694 -45.203431 
L 538.10449 -46.778185 
L 540.154286 -53.614645 
L 542.204082 -55.337392 
L 544.253878 -56.504692 
L 546.303673 -62.855777 
L 548.353469 -57.176606 
L 550.403265 -59.57336 
L 552.453061 -64.217038 
L 554.502857 -67.657875 
L 556.552653 -67.158869 
L 558.602449 -60.857427 
L 560.652245 -59.577872 
L 562.702041 -51.932966 
L 564.751837 -53.519228 
L 566.801633 -56.849927 
L 568.851429 -54.506742 
L 570.901224 -52.375996 
L 572.95102 -60.206886 
L 575.000816 -63.089896 
L 577.050612 -66.632341 
L 579.100408 -58.577197 
L 581.150204 -60.765532 
L 583.2 -60.109979 
L 583.2 -85.622292 
L 583.2 -85.622292 
L 581.150204 -87.164466 
L 579.100408 -86.207035 
L 577.050612 -97.105073 
L 575.000816 -95.248256 
L 572.95102 -96.666114 
L 570.901224 -94.083781 
L 568.851429 -97.446087 
L 566.801633 -101.351342 
L 564.751837 -102.010294 
L 562.702041 -102.696679 
L 560.652245 -109.561337 
L 558.602449 -110.433883 
L 556.552653 -118.505122 
L 554.502857 -112.289997 
L 552.453061 -104.628127 
L 550.403265 -100.38964 
L 548.353469 -99.698929 
L 546.303673 -119.14787 
L 544.253878 -115.13136 
L 542.204082 -117.520464 
L 540.154286 -127.086082 
L 538.10449 -125.709581 
L 536.054694 -115.005451 
L 534.004898 -122.078173 
L 531.955102 -133.46893 
L 529.905306 -140.261909 
L 527.85551 -136.993705 
L 525.805714 -128.940221 
L 523.755918 -146.12285 
L 521.706122 -139.31982 
L 519.656327 -129.778375 
L 517.606531 -136.298056 
L 515.556735 -145.268264 
L 513.506939 -153.634815 
L 511.457143 -148.074646 
L 509.407347 -145.408964 
L 507.357551 -148.433085 
L 505.307755 -161.843707 
L 503.257959 -149.827255 
L 501.208163 -156.129399 
L 499.158367 -142.769903 
L 497.108571 -148.080555 
L 495.058776 -148.958543 
L 493.00898 -154.849424 
L 490.959184 -155.966731 
L 488.909388 -159.460696 
L 486.859592 -155.946356 
L 484.809796 -161.961368 
L 482.76 -170.586036 
L 480.710204 -173.361858 
L 478.660408 -165.313615 
L 476.610612 -159.156875 
L 474.560816 -158.528205 
L 472.51102 -144.203719 
L 470.461224 -148.688777 
L 468.411429 -136.200102 
L 466.361633 -131.265304 
L 464.311837 -113.353813 
L 462.262041 -100.380945 
L 460.212245 -91.498989 
L 458.162449 -109.577445 
L 456.112653 -120.019624 
L 454.062857 -119.680525 
L 452.013061 -117.488851 
L 449.963265 -125.525783 
L 447.913469 -132.245243 
L 445.863673 -143.915466 
L 443.813878 -148.126399 
L 441.764082 -144.822652 
L 439.714286 -170.80098 
L 437.66449 -161.259136 
L 435.614694 -145.149633 
L 433.564898 -142.088822 
L 431.515102 -148.038731 
L 429.465306 -128.789957 
L 427.41551 -135.33 
L 425.365714 -129.559734 
L 423.315918 -121.250507 
L 421.266122 -128.537175 
L 419.216327 -102.603172 
L 417.166531 -108.267577 
L 415.116735 -110.315596 
L 413.066939 -107.301772 
L 411.017143 -107.968338 
L 408.967347 -122.732464 
L 406.917551 -114.83447 
L 404.867755 -118.232484 
L 402.817959 -119.659218 
L 400.768163 -130.494457 
L 398.718367 -121.232971 
L 396.668571 -111.290053 
L 394.618776 -108.467746 
L 392.56898 -105.77842 
L 390.519184 -93.445792 
L 388.469388 -88.132147 
L 386.419592 -90.851055 
L 384.369796 -90.292584 
L 382.32 -96.543317 
L 380.270204 -85.151814 
L 378.220408 -90.655971 
L 376.170612 -93.898921 
L 374.120816 -94.421748 
L 372.07102 -106.51978 
L 370.021224 -134.459703 
L 367.971429 -132.916676 
L 365.921633 -130.591513 
L 363.871837 -130.296882 
L 361.822041 -132.713631 
L 359.772245 -134.161905 
L 357.722449 -129.549242 
L 355.672653 -134.787516 
L 353.622857 -147.147906 
L 351.573061 -160.65632 
L 349.523265 -147.647018 
L 347.473469 -144.039198 
L 345.423673 -136.752483 
L 343.373878 -124.929042 
L 341.324082 -132.562724 
L 339.274286 -153.021064 
L 337.22449 -166.119898 
L 335.174694 -159.80142 
L 333.124898 -158.384126 
L 331.075102 -130.253808 
L 329.025306 -125.035347 
L 326.97551 -131.784799 
L 324.925714 -134.165059 
L 322.875918 -158.865762 
L 320.826122 -151.065775 
L 318.776327 -144.475265 
L 316.726531 -135.511111 
L 314.676735 -138.074456 
L 312.626939 -132.246838 
L 310.577143 -147.138324 
L 308.527347 -144.792982 
L 306.477551 -140.087857 
L 304.427755 -141.675152 
L 302.377959 -125.763608 
L 300.328163 -122.745837 
L 298.278367 -132.616007 
L 296.228571 -136.504981 
L 294.178776 -154.415099 
L 292.12898 -142.523236 
L 290.079184 -142.725412 
L 288.029388 -144.731115 
L 285.979592 -149.074165 
L 283.929796 -152.000806 
L 281.88 -158.565171 
L 279.830204 -157.305069 
L 277.780408 -149.1784 
L 275.730612 -145.983155 
L 273.680816 -134.450941 
L 271.63102 -159.403278 
L 269.581224 -157.53895 
L 267.531429 -150.977771 
L 265.481633 -158.115915 
L 263.431837 -156.793525 
L 261.382041 -152.607169 
L 259.332245 -148.719176 
L 257.282449 -148.101204 
L 255.232653 -154.283967 
L 253.182857 -161.35828 
L 251.133061 -154.749367 
L 249.083265 -140.379576 
L 247.033469 -145.385197 
L 244.983673 -143.90383 
L 242.933878 -160.336471 
L 240.884082 -155.935462 
L 238.834286 -161.123069 
L 236.78449 -156.451504 
L 234.734694 -147.650442 
L 232.684898 -142.044631 
L 230.635102 -156.96881 
L 228.585306 -166.058633 
L 226.53551 -168.189815 
L 224.485714 -165.490346 
L 222.435918 -153.095086 
L 220.386122 -158.901501 
L 218.336327 -156.756364 
L 216.286531 -177.133597 
L 214.236735 -190.08 
L 212.186939 -187.503116 
L 210.137143 -153.991799 
L 208.087347 -146.49821 
L 206.037551 -144.151922 
L 203.987755 -135.285241 
L 201.937959 -122.572201 
L 199.888163 -117.624357 
L 197.838367 -131.045609 
L 195.788571 -125.747836 
L 193.738776 -106.507967 
L 191.68898 -112.890201 
L 189.639184 -130.818838 
L 187.589388 -134.09204 
L 185.539592 -154.174837 
L 183.489796 -162.232072 
L 181.44 -156.272643 
L 179.390204 -150.985272 
L 177.340408 -148.167552 
L 175.290612 -150.437361 
L 173.240816 -157.036131 
L 171.19102 -136.70993 
L 169.141224 -133.573584 
L 167.091429 -130.190823 
L 165.041633 -141.810356 
L 162.991837 -137.673731 
L 160.942041 -146.966227 
L 158.892245 -160.156235 
L 156.842449 -159.097908 
L 154.792653 -153.300834 
L 152.742857 -150.325896 
L 150.693061 -165.21818 
L 148.643265 -157.160045 
L 146.593469 -164.099052 
L 144.543673 -139.868583 
L 142.493878 -151.943899 
L 140.444082 -153.116697 
L 138.394286 -133.297164 
L 136.34449 -138.141669 
L 134.294694 -134.712918 
L 132.244898 -129.331096 
L 130.195102 -120.554771 
L 128.145306 -117.300715 
L 126.09551 -107.660937 
L 124.045714 -105.156131 
L 121.995918 -87.441686 
L 119.946122 -79.630837 
L 117.896327 -79.923605 
L 115.846531 -79.340919 
L 113.796735 -83.53749 
L 111.746939 -87.640347 
L 109.697143 -89.679147 
L 107.647347 -90.558888 
L 105.597551 -115.205054 
L 103.547755 -116.551676 
L 101.497959 -119.172489 
L 99.448163 -137.440303 
L 97.398367 -149.959804 
L 95.348571 -150.153204 
L 93.298776 -132.790795 
L 91.24898 -123.232891 
L 89.199184 -144.555534 
L 87.149388 -141.578138 
L 85.099592 -137.369 
L 83.049796 -145.078529 
L 81 -148.926922 
z
" id="md7a2936eaf" style="stroke:#0000ff;stroke-opacity:0.3;"/>
    </defs>
    <g clip-path="url(#p25f5f75903)">
     <use style="fill:#0000ff;fill-opacity:0.3;stroke:#0000ff;stroke-opacity:0.3;" x="0" xlink:href="#md7a2936eaf" y="216"/>
    </g>
   </g>
   <g id="PolyCollection_2">
    <defs>
     <path d="M 128.042816 -23.76 
L 128.042816 -190.08 
L 435.512204 -190.08 
L 435.512204 -23.76 
L 435.512204 -23.76 
L 128.042816 -23.76 
z
" id="m108c920c8f" style="stroke:#808080;stroke-opacity:0.3;"/>
    </defs>
    <g clip-path="url(#p25f5f75903)">
     <use style="fill:#808080;fill-opacity:0.3;stroke:#808080;stroke-opacity:0.3;" x="0" xlink:href="#m108c920c8f" y="216"/>
    </g>
   </g>
   <g id="matplotlib.axis_1">
    <g id="xtick_1">
     <g id="line2d_1">
      <defs>
       <path d="M 0 0 
L 0 3.5 
" id="m218a1e615c" style="stroke:#000000;stroke-width:0.8;"/>
      </defs>
      <g>
       <use style="stroke:#000000;stroke-width:0.8;" x="81" xlink:href="#m218a1e615c" y="192.24"/>
      </g>
     </g>
     <g id="text_1">
      <!-- 0.0 -->
      <defs>
       <path d="M 31.78125 66.40625 
Q 24.171875 66.40625 20.328125 58.90625 
Q 16.5 51.421875 16.5 36.375 
Q 16.5 21.390625 20.328125 13.890625 
Q 24.171875 6.390625 31.78125 6.390625 
Q 39.453125 6.390625 43.28125 13.890625 
Q 47.125 21.390625 47.125 36.375 
Q 47.125 51.421875 43.28125 58.90625 
Q 39.453125 66.40625 31.78125 66.40625 
z
M 31.78125 74.21875 
Q 44.046875 74.21875 50.515625 64.515625 
Q 56.984375 54.828125 56.984375 36.375 
Q 56.984375 17.96875 50.515625 8.265625 
Q 44.046875 -1.421875 31.78125 -1.421875 
Q 19.53125 -1.421875 13.0625 8.265625 
Q 6.59375 17.96875 6.59375 36.375 
Q 6.59375 54.828125 13.0625 64.515625 
Q 19.53125 74.21875 31.78125 74.21875 
z
" id="DejaVuSans-48"/>
       <path d="M 10.6875 12.40625 
L 21 12.40625 
L 21 0 
L 10.6875 0 
z
" id="DejaVuSans-46"/>
      </defs>
      <g transform="translate(71.458125 208.358125)scale(0.12 -0.12)">
       <use xlink:href="#DejaVuSans-48"/>
       <use x="63.623047" xlink:href="#DejaVuSans-46"/>
       <use x="95.410156" xlink:href="#DejaVuSans-48"/>
      </g>
     </g>
    </g>
    <g id="xtick_2">
     <g id="line2d_2">
      <g>
       <use style="stroke:#000000;stroke-width:0.8;" x="183.489796" xlink:href="#m218a1e615c" y="192.24"/>
      </g>
     </g>
     <g id="text_2">
      <!-- 0.5 -->
      <defs>
       <path d="M 10.796875 72.90625 
L 49.515625 72.90625 
L 49.515625 64.59375 
L 19.828125 64.59375 
L 19.828125 46.734375 
Q 21.96875 47.46875 24.109375 47.828125 
Q 26.265625 48.1875 28.421875 48.1875 
Q 40.625 48.1875 47.75 41.5 
Q 54.890625 34.8125 54.890625 23.390625 
Q 54.890625 11.625 47.5625 5.09375 
Q 40.234375 -1.421875 26.90625 -1.421875 
Q 22.3125 -1.421875 17.546875 -0.640625 
Q 12.796875 0.140625 7.71875 1.703125 
L 7.71875 11.625 
Q 12.109375 9.234375 16.796875 8.0625 
Q 21.484375 6.890625 26.703125 6.890625 
Q 35.15625 6.890625 40.078125 11.328125 
Q 45.015625 15.765625 45.015625 23.390625 
Q 45.015625 31 40.078125 35.4375 
Q 35.15625 39.890625 26.703125 39.890625 
Q 22.75 39.890625 18.8125 39.015625 
Q 14.890625 38.140625 10.796875 36.28125 
z
" id="DejaVuSans-53"/>
      </defs>
      <g transform="translate(173.947921 208.358125)scale(0.12 -0.12)">
       <use xlink:href="#DejaVuSans-48"/>
       <use x="63.623047" xlink:href="#DejaVuSans-46"/>
       <use x="95.410156" xlink:href="#DejaVuSans-53"/>
      </g>
     </g>
    </g>
    <g id="xtick_3">
     <g id="line2d_3">
      <g>
       <use style="stroke:#000000;stroke-width:0.8;" x="285.979592" xlink:href="#m218a1e615c" y="192.24"/>
      </g>
     </g>
     <g id="text_3">
      <!-- 1.0 -->
      <defs>
       <path d="M 12.40625 8.296875 
L 28.515625 8.296875 
L 28.515625 63.921875 
L 10.984375 60.40625 
L 10.984375 69.390625 
L 28.421875 72.90625 
L 38.28125 72.90625 
L 38.28125 8.296875 
L 54.390625 8.296875 
L 54.390625 0 
L 12.40625 0 
z
" id="DejaVuSans-49"/>
      </defs>
      <g transform="translate(276.437717 208.358125)scale(0.12 -0.12)">
       <use xlink:href="#DejaVuSans-49"/>
       <use x="63.623047" xlink:href="#DejaVuSans-46"/>
       <use x="95.410156" xlink:href="#DejaVuSans-48"/>
      </g>
     </g>
    </g>
    <g id="xtick_4">
     <g id="line2d_4">
      <g>
       <use style="stroke:#000000;stroke-width:0.8;" x="388.469388" xlink:href="#m218a1e615c" y="192.24"/>
      </g>
     </g>
     <g id="text_4">
      <!-- 1.5 -->
      <g transform="translate(378.927513 208.358125)scale(0.12 -0.12)">
       <use xlink:href="#DejaVuSans-49"/>
       <use x="63.623047" xlink:href="#DejaVuSans-46"/>
       <use x="95.410156" xlink:href="#DejaVuSans-53"/>
      </g>
     </g>
    </g>
    <g id="xtick_5">
     <g id="line2d_5">
      <g>
       <use style="stroke:#000000;stroke-width:0.8;" x="490.959184" xlink:href="#m218a1e615c" y="192.24"/>
      </g>
     </g>
     <g id="text_5">
      <!-- 2.0 -->
      <defs>
       <path d="M 19.1875 8.296875 
L 53.609375 8.296875 
L 53.609375 0 
L 7.328125 0 
L 7.328125 8.296875 
Q 12.9375 14.109375 22.625 23.890625 
Q 32.328125 33.6875 34.8125 36.53125 
Q 39.546875 41.84375 41.421875 45.53125 
Q 43.3125 49.21875 43.3125 52.78125 
Q 43.3125 58.59375 39.234375 62.25 
Q 35.15625 65.921875 28.609375 65.921875 
Q 23.96875 65.921875 18.8125 64.3125 
Q 13.671875 62.703125 7.8125 59.421875 
L 7.8125 69.390625 
Q 13.765625 71.78125 18.9375 73 
Q 24.125 74.21875 28.421875 74.21875 
Q 39.75 74.21875 46.484375 68.546875 
Q 53.21875 62.890625 53.21875 53.421875 
Q 53.21875 48.921875 51.53125 44.890625 
Q 49.859375 40.875 45.40625 35.40625 
Q 44.1875 33.984375 37.640625 27.21875 
Q 31.109375 20.453125 19.1875 8.296875 
z
" id="DejaVuSans-50"/>
      </defs>
      <g transform="translate(481.417309 208.358125)scale(0.12 -0.12)">
       <use xlink:href="#DejaVuSans-50"/>
       <use x="63.623047" xlink:href="#DejaVuSans-46"/>
       <use x="95.410156" xlink:href="#DejaVuSans-48"/>
      </g>
     </g>
    </g>
    <g id="text_6">
     <!-- Time (s) -->
     <defs>
      <path d="M -0.296875 72.90625 
L 61.375 72.90625 
L 61.375 64.59375 
L 35.5 64.59375 
L 35.5 0 
L 25.59375 0 
L 25.59375 64.59375 
L -0.296875 64.59375 
z
" id="DejaVuSans-84"/>
      <path d="M 9.421875 54.6875 
L 18.40625 54.6875 
L 18.40625 0 
L 9.421875 0 
z
M 9.421875 75.984375 
L 18.40625 75.984375 
L 18.40625 64.59375 
L 9.421875 64.59375 
z
" id="DejaVuSans-105"/>
      <path d="M 52 44.1875 
Q 55.375 50.25 60.0625 53.125 
Q 64.75 56 71.09375 56 
Q 79.640625 56 84.28125 50.015625 
Q 88.921875 44.046875 88.921875 33.015625 
L 88.921875 0 
L 79.890625 0 
L 79.890625 32.71875 
Q 79.890625 40.578125 77.09375 44.375 
Q 74.3125 48.1875 68.609375 48.1875 
Q 61.625 48.1875 57.5625 43.546875 
Q 53.515625 38.921875 53.515625 30.90625 
L 53.515625 0 
L 44.484375 0 
L 44.484375 32.71875 
Q 44.484375 40.625 41.703125 44.40625 
Q 38.921875 48.1875 33.109375 48.1875 
Q 26.21875 48.1875 22.15625 43.53125 
Q 18.109375 38.875 18.109375 30.90625 
L 18.109375 0 
L 9.078125 0 
L 9.078125 54.6875 
L 18.109375 54.6875 
L 18.109375 46.1875 
Q 21.1875 51.21875 25.484375 53.609375 
Q 29.78125 56 35.6875 56 
Q 41.65625 56 45.828125 52.96875 
Q 50 49.953125 52 44.1875 
z
" id="DejaVuSans-109"/>
      <path d="M 56.203125 29.59375 
L 56.203125 25.203125 
L 14.890625 25.203125 
Q 15.484375 15.921875 20.484375 11.0625 
Q 25.484375 6.203125 34.421875 6.203125 
Q 39.59375 6.203125 44.453125 7.46875 
Q 49.3125 8.734375 54.109375 11.28125 
L 54.109375 2.78125 
Q 49.265625 0.734375 44.1875 -0.34375 
Q 39.109375 -1.421875 33.890625 -1.421875 
Q 20.796875 -1.421875 13.15625 6.1875 
Q 5.515625 13.8125 5.515625 26.8125 
Q 5.515625 40.234375 12.765625 48.109375 
Q 20.015625 56 32.328125 56 
Q 43.359375 56 49.78125 48.890625 
Q 56.203125 41.796875 56.203125 29.59375 
z
M 47.21875 32.234375 
Q 47.125 39.59375 43.09375 43.984375 
Q 39.0625 48.390625 32.421875 48.390625 
Q 24.90625 48.390625 20.390625 44.140625 
Q 15.875 39.890625 15.1875 32.171875 
z
" id="DejaVuSans-101"/>
      <path id="DejaVuSans-32"/>
      <path d="M 31 75.875 
Q 24.46875 64.65625 21.28125 53.65625 
Q 18.109375 42.671875 18.109375 31.390625 
Q 18.109375 20.125 21.3125 9.0625 
Q 24.515625 -2 31 -13.1875 
L 23.1875 -13.1875 
Q 15.875 -1.703125 12.234375 9.375 
Q 8.59375 20.453125 8.59375 31.390625 
Q 8.59375 42.28125 12.203125 53.3125 
Q 15.828125 64.359375 23.1875 75.875 
z
" id="DejaVuSans-40"/>
      <path d="M 44.28125 53.078125 
L 44.28125 44.578125 
Q 40.484375 46.53125 36.375 47.5 
Q 32.28125 48.484375 27.875 48.484375 
Q 21.1875 48.484375 17.84375 46.4375 
Q 14.5 44.390625 14.5 40.28125 
Q 14.5 37.15625 16.890625 35.375 
Q 19.28125 33.59375 26.515625 31.984375 
L 29.59375 31.296875 
Q 39.15625 29.25 43.1875 25.515625 
Q 47.21875 21.78125 47.21875 15.09375 
Q 47.21875 7.46875 41.1875 3.015625 
Q 35.15625 -1.421875 24.609375 -1.421875 
Q 20.21875 -1.421875 15.453125 -0.5625 
Q 10.6875 0.296875 5.421875 2 
L 5.421875 11.28125 
Q 10.40625 8.6875 15.234375 7.390625 
Q 20.0625 6.109375 24.8125 6.109375 
Q 31.15625 6.109375 34.5625 8.28125 
Q 37.984375 10.453125 37.984375 14.40625 
Q 37.984375 18.0625 35.515625 20.015625 
Q 33.0625 21.96875 24.703125 23.78125 
L 21.578125 24.515625 
Q 13.234375 26.265625 9.515625 29.90625 
Q 5.8125 33.546875 5.8125 39.890625 
Q 5.8125 47.609375 11.28125 51.796875 
Q 16.75 56 26.8125 56 
Q 31.78125 56 36.171875 55.265625 
Q 40.578125 54.546875 44.28125 53.078125 
z
" id="DejaVuSans-115"/>
      <path d="M 8.015625 75.875 
L 15.828125 75.875 
Q 23.140625 64.359375 26.78125 53.3125 
Q 30.421875 42.28125 30.421875 31.390625 
Q 30.421875 20.453125 26.78125 9.375 
Q 23.140625 -1.703125 15.828125 -13.1875 
L 8.015625 -13.1875 
Q 14.5 -2 17.703125 9.0625 
Q 20.90625 20.125 20.90625 31.390625 
Q 20.90625 42.671875 17.703125 53.65625 
Q 14.5 64.65625 8.015625 75.875 
z
" id="DejaVuSans-41"/>
     </defs>
     <g transform="translate(302.60475 225.7955)scale(0.144 -0.144)">
      <use xlink:href="#DejaVuSans-84"/>
      <use x="61.037109" xlink:href="#DejaVuSans-105"/>
      <use x="88.820312" xlink:href="#DejaVuSans-109"/>
      <use x="186.232422" xlink:href="#DejaVuSans-101"/>
      <use x="247.755859" xlink:href="#DejaVuSans-32"/>
      <use x="279.542969" xlink:href="#DejaVuSans-40"/>
      <use x="318.556641" xlink:href="#DejaVuSans-115"/>
      <use x="370.65625" xlink:href="#DejaVuSans-41"/>
     </g>
    </g>
   </g>
   <g id="matplotlib.axis_2">
    <g id="ytick_1">
     <g id="line2d_6">
      <defs>
       <path d="M 0 0 
L -3.5 0 
" id="m1129d80953" style="stroke:#000000;stroke-width:0.8;"/>
      </defs>
      <g>
       <use style="stroke:#000000;stroke-width:0.8;" x="81" xlink:href="#m1129d80953" y="176.272149"/>
      </g>
     </g>
     <g id="text_7">
      <!-- 2.0 -->
      <g transform="translate(54.91625 180.831211)scale(0.12 -0.12)">
       <use xlink:href="#DejaVuSans-50"/>
       <use x="63.623047" xlink:href="#DejaVuSans-46"/>
       <use x="95.410156" xlink:href="#DejaVuSans-48"/>
      </g>
     </g>
    </g>
    <g id="ytick_2">
     <g id="line2d_7">
      <g>
       <use style="stroke:#000000;stroke-width:0.8;" x="81" xlink:href="#m1129d80953" y="150.923503"/>
      </g>
     </g>
     <g id="text_8">
      <!-- 2.2 -->
      <g transform="translate(54.91625 155.482566)scale(0.12 -0.12)">
       <use xlink:href="#DejaVuSans-50"/>
       <use x="63.623047" xlink:href="#DejaVuSans-46"/>
       <use x="95.410156" xlink:href="#DejaVuSans-50"/>
      </g>
     </g>
    </g>
    <g id="ytick_3">
     <g id="line2d_8">
      <g>
       <use style="stroke:#000000;stroke-width:0.8;" x="81" xlink:href="#m1129d80953" y="125.574858"/>
      </g>
     </g>
     <g id="text_9">
      <!-- 2.4 -->
      <defs>
       <path d="M 37.796875 64.3125 
L 12.890625 25.390625 
L 37.796875 25.390625 
z
M 35.203125 72.90625 
L 47.609375 72.90625 
L 47.609375 25.390625 
L 58.015625 25.390625 
L 58.015625 17.1875 
L 47.609375 17.1875 
L 47.609375 0 
L 37.796875 0 
L 37.796875 17.1875 
L 4.890625 17.1875 
L 4.890625 26.703125 
z
" id="DejaVuSans-52"/>
      </defs>
      <g transform="translate(54.91625 130.133921)scale(0.12 -0.12)">
       <use xlink:href="#DejaVuSans-50"/>
       <use x="63.623047" xlink:href="#DejaVuSans-46"/>
       <use x="95.410156" xlink:href="#DejaVuSans-52"/>
      </g>
     </g>
    </g>
    <g id="ytick_4">
     <g id="line2d_9">
      <g>
       <use style="stroke:#000000;stroke-width:0.8;" x="81" xlink:href="#m1129d80953" y="100.226213"/>
      </g>
     </g>
     <g id="text_10">
      <!-- 2.6 -->
      <defs>
       <path d="M 33.015625 40.375 
Q 26.375 40.375 22.484375 35.828125 
Q 18.609375 31.296875 18.609375 23.390625 
Q 18.609375 15.53125 22.484375 10.953125 
Q 26.375 6.390625 33.015625 6.390625 
Q 39.65625 6.390625 43.53125 10.953125 
Q 47.40625 15.53125 47.40625 23.390625 
Q 47.40625 31.296875 43.53125 35.828125 
Q 39.65625 40.375 33.015625 40.375 
z
M 52.59375 71.296875 
L 52.59375 62.3125 
Q 48.875 64.0625 45.09375 64.984375 
Q 41.3125 65.921875 37.59375 65.921875 
Q 27.828125 65.921875 22.671875 59.328125 
Q 17.53125 52.734375 16.796875 39.40625 
Q 19.671875 43.65625 24.015625 45.921875 
Q 28.375 48.1875 33.59375 48.1875 
Q 44.578125 48.1875 50.953125 41.515625 
Q 57.328125 34.859375 57.328125 23.390625 
Q 57.328125 12.15625 50.6875 5.359375 
Q 44.046875 -1.421875 33.015625 -1.421875 
Q 20.359375 -1.421875 13.671875 8.265625 
Q 6.984375 17.96875 6.984375 36.375 
Q 6.984375 53.65625 15.1875 63.9375 
Q 23.390625 74.21875 37.203125 74.21875 
Q 40.921875 74.21875 44.703125 73.484375 
Q 48.484375 72.75 52.59375 71.296875 
z
" id="DejaVuSans-54"/>
      </defs>
      <g transform="translate(54.91625 104.785275)scale(0.12 -0.12)">
       <use xlink:href="#DejaVuSans-50"/>
       <use x="63.623047" xlink:href="#DejaVuSans-46"/>
       <use x="95.410156" xlink:href="#DejaVuSans-54"/>
      </g>
     </g>
    </g>
    <g id="ytick_5">
     <g id="line2d_10">
      <g>
       <use style="stroke:#000000;stroke-width:0.8;" x="81" xlink:href="#m1129d80953" y="74.877567"/>
      </g>
     </g>
     <g id="text_11">
      <!-- 2.8 -->
      <defs>
       <path d="M 31.78125 34.625 
Q 24.75 34.625 20.71875 30.859375 
Q 16.703125 27.09375 16.703125 20.515625 
Q 16.703125 13.921875 20.71875 10.15625 
Q 24.75 6.390625 31.78125 6.390625 
Q 38.8125 6.390625 42.859375 10.171875 
Q 46.921875 13.96875 46.921875 20.515625 
Q 46.921875 27.09375 42.890625 30.859375 
Q 38.875 34.625 31.78125 34.625 
z
M 21.921875 38.8125 
Q 15.578125 40.375 12.03125 44.71875 
Q 8.5 49.078125 8.5 55.328125 
Q 8.5 64.0625 14.71875 69.140625 
Q 20.953125 74.21875 31.78125 74.21875 
Q 42.671875 74.21875 48.875 69.140625 
Q 55.078125 64.0625 55.078125 55.328125 
Q 55.078125 49.078125 51.53125 44.71875 
Q 48 40.375 41.703125 38.8125 
Q 48.828125 37.15625 52.796875 32.3125 
Q 56.78125 27.484375 56.78125 20.515625 
Q 56.78125 9.90625 50.3125 4.234375 
Q 43.84375 -1.421875 31.78125 -1.421875 
Q 19.734375 -1.421875 13.25 4.234375 
Q 6.78125 9.90625 6.78125 20.515625 
Q 6.78125 27.484375 10.78125 32.3125 
Q 14.796875 37.15625 21.921875 38.8125 
z
M 18.3125 54.390625 
Q 18.3125 48.734375 21.84375 45.5625 
Q 25.390625 42.390625 31.78125 42.390625 
Q 38.140625 42.390625 41.71875 45.5625 
Q 45.3125 48.734375 45.3125 54.390625 
Q 45.3125 60.0625 41.71875 63.234375 
Q 38.140625 66.40625 31.78125 66.40625 
Q 25.390625 66.40625 21.84375 63.234375 
Q 18.3125 60.0625 18.3125 54.390625 
z
" id="DejaVuSans-56"/>
      </defs>
      <g transform="translate(54.91625 79.43663)scale(0.12 -0.12)">
       <use xlink:href="#DejaVuSans-50"/>
       <use x="63.623047" xlink:href="#DejaVuSans-46"/>
       <use x="95.410156" xlink:href="#DejaVuSans-56"/>
      </g>
     </g>
    </g>
    <g id="ytick_6">
     <g id="line2d_11">
      <g>
       <use style="stroke:#000000;stroke-width:0.8;" x="81" xlink:href="#m1129d80953" y="49.528922"/>
      </g>
     </g>
     <g id="text_12">
      <!-- 3.0 -->
      <defs>
       <path d="M 40.578125 39.3125 
Q 47.65625 37.796875 51.625 33 
Q 55.609375 28.21875 55.609375 21.1875 
Q 55.609375 10.40625 48.1875 4.484375 
Q 40.765625 -1.421875 27.09375 -1.421875 
Q 22.515625 -1.421875 17.65625 -0.515625 
Q 12.796875 0.390625 7.625 2.203125 
L 7.625 11.71875 
Q 11.71875 9.328125 16.59375 8.109375 
Q 21.484375 6.890625 26.8125 6.890625 
Q 36.078125 6.890625 40.9375 10.546875 
Q 45.796875 14.203125 45.796875 21.1875 
Q 45.796875 27.640625 41.28125 31.265625 
Q 36.765625 34.90625 28.71875 34.90625 
L 20.21875 34.90625 
L 20.21875 43.015625 
L 29.109375 43.015625 
Q 36.375 43.015625 40.234375 45.921875 
Q 44.09375 48.828125 44.09375 54.296875 
Q 44.09375 59.90625 40.109375 62.90625 
Q 36.140625 65.921875 28.71875 65.921875 
Q 24.65625 65.921875 20.015625 65.03125 
Q 15.375 64.15625 9.8125 62.3125 
L 9.8125 71.09375 
Q 15.4375 72.65625 20.34375 73.4375 
Q 25.25 74.21875 29.59375 74.21875 
Q 40.828125 74.21875 47.359375 69.109375 
Q 53.90625 64.015625 53.90625 55.328125 
Q 53.90625 49.265625 50.4375 45.09375 
Q 46.96875 40.921875 40.578125 39.3125 
z
" id="DejaVuSans-51"/>
      </defs>
      <g transform="translate(54.91625 54.087985)scale(0.12 -0.12)">
       <use xlink:href="#DejaVuSans-51"/>
       <use x="63.623047" xlink:href="#DejaVuSans-46"/>
       <use x="95.410156" xlink:href="#DejaVuSans-48"/>
      </g>
     </g>
    </g>
    <g id="text_13">
     <!-- Act. Cells Moving Var. -->
     <defs>
      <path d="M 34.1875 63.1875 
L 20.796875 26.90625 
L 47.609375 26.90625 
z
M 28.609375 72.90625 
L 39.796875 72.90625 
L 67.578125 0 
L 57.328125 0 
L 50.6875 18.703125 
L 17.828125 18.703125 
L 11.1875 0 
L 0.78125 0 
z
" id="DejaVuSans-65"/>
      <path d="M 48.78125 52.59375 
L 48.78125 44.1875 
Q 44.96875 46.296875 41.140625 47.34375 
Q 37.3125 48.390625 33.40625 48.390625 
Q 24.65625 48.390625 19.8125 42.84375 
Q 14.984375 37.3125 14.984375 27.296875 
Q 14.984375 17.28125 19.8125 11.734375 
Q 24.65625 6.203125 33.40625 6.203125 
Q 37.3125 6.203125 41.140625 7.25 
Q 44.96875 8.296875 48.78125 10.40625 
L 48.78125 2.09375 
Q 45.015625 0.34375 40.984375 -0.53125 
Q 36.96875 -1.421875 32.421875 -1.421875 
Q 20.0625 -1.421875 12.78125 6.34375 
Q 5.515625 14.109375 5.515625 27.296875 
Q 5.515625 40.671875 12.859375 48.328125 
Q 20.21875 56 33.015625 56 
Q 37.15625 56 41.109375 55.140625 
Q 45.0625 54.296875 48.78125 52.59375 
z
" id="DejaVuSans-99"/>
      <path d="M 18.3125 70.21875 
L 18.3125 54.6875 
L 36.8125 54.6875 
L 36.8125 47.703125 
L 18.3125 47.703125 
L 18.3125 18.015625 
Q 18.3125 11.328125 20.140625 9.421875 
Q 21.96875 7.515625 27.59375 7.515625 
L 36.8125 7.515625 
L 36.8125 0 
L 27.59375 0 
Q 17.1875 0 13.234375 3.875 
Q 9.28125 7.765625 9.28125 18.015625 
L 9.28125 47.703125 
L 2.6875 47.703125 
L 2.6875 54.6875 
L 9.28125 54.6875 
L 9.28125 70.21875 
z
" id="DejaVuSans-116"/>
      <path d="M 64.40625 67.28125 
L 64.40625 56.890625 
Q 59.421875 61.53125 53.78125 63.8125 
Q 48.140625 66.109375 41.796875 66.109375 
Q 29.296875 66.109375 22.65625 58.46875 
Q 16.015625 50.828125 16.015625 36.375 
Q 16.015625 21.96875 22.65625 14.328125 
Q 29.296875 6.6875 41.796875 6.6875 
Q 48.140625 6.6875 53.78125 8.984375 
Q 59.421875 11.28125 64.40625 15.921875 
L 64.40625 5.609375 
Q 59.234375 2.09375 53.4375 0.328125 
Q 47.65625 -1.421875 41.21875 -1.421875 
Q 24.65625 -1.421875 15.125 8.703125 
Q 5.609375 18.84375 5.609375 36.375 
Q 5.609375 53.953125 15.125 64.078125 
Q 24.65625 74.21875 41.21875 74.21875 
Q 47.75 74.21875 53.53125 72.484375 
Q 59.328125 70.75 64.40625 67.28125 
z
" id="DejaVuSans-67"/>
      <path d="M 9.421875 75.984375 
L 18.40625 75.984375 
L 18.40625 0 
L 9.421875 0 
z
" id="DejaVuSans-108"/>
      <path d="M 9.8125 72.90625 
L 24.515625 72.90625 
L 43.109375 23.296875 
L 61.8125 72.90625 
L 76.515625 72.90625 
L 76.515625 0 
L 66.890625 0 
L 66.890625 64.015625 
L 48.09375 14.015625 
L 38.1875 14.015625 
L 19.390625 64.015625 
L 19.390625 0 
L 9.8125 0 
z
" id="DejaVuSans-77"/>
      <path d="M 30.609375 48.390625 
Q 23.390625 48.390625 19.1875 42.75 
Q 14.984375 37.109375 14.984375 27.296875 
Q 14.984375 17.484375 19.15625 11.84375 
Q 23.34375 6.203125 30.609375 6.203125 
Q 37.796875 6.203125 41.984375 11.859375 
Q 46.1875 17.53125 46.1875 27.296875 
Q 46.1875 37.015625 41.984375 42.703125 
Q 37.796875 48.390625 30.609375 48.390625 
z
M 30.609375 56 
Q 42.328125 56 49.015625 48.375 
Q 55.71875 40.765625 55.71875 27.296875 
Q 55.71875 13.875 49.015625 6.21875 
Q 42.328125 -1.421875 30.609375 -1.421875 
Q 18.84375 -1.421875 12.171875 6.21875 
Q 5.515625 13.875 5.515625 27.296875 
Q 5.515625 40.765625 12.171875 48.375 
Q 18.84375 56 30.609375 56 
z
" id="DejaVuSans-111"/>
      <path d="M 2.984375 54.6875 
L 12.5 54.6875 
L 29.59375 8.796875 
L 46.6875 54.6875 
L 56.203125 54.6875 
L 35.6875 0 
L 23.484375 0 
z
" id="DejaVuSans-118"/>
      <path d="M 54.890625 33.015625 
L 54.890625 0 
L 45.90625 0 
L 45.90625 32.71875 
Q 45.90625 40.484375 42.875 44.328125 
Q 39.84375 48.1875 33.796875 48.1875 
Q 26.515625 48.1875 22.3125 43.546875 
Q 18.109375 38.921875 18.109375 30.90625 
L 18.109375 0 
L 9.078125 0 
L 9.078125 54.6875 
L 18.109375 54.6875 
L 18.109375 46.1875 
Q 21.34375 51.125 25.703125 53.5625 
Q 30.078125 56 35.796875 56 
Q 45.21875 56 50.046875 50.171875 
Q 54.890625 44.34375 54.890625 33.015625 
z
" id="DejaVuSans-110"/>
      <path d="M 45.40625 27.984375 
Q 45.40625 37.75 41.375 43.109375 
Q 37.359375 48.484375 30.078125 48.484375 
Q 22.859375 48.484375 18.828125 43.109375 
Q 14.796875 37.75 14.796875 27.984375 
Q 14.796875 18.265625 18.828125 12.890625 
Q 22.859375 7.515625 30.078125 7.515625 
Q 37.359375 7.515625 41.375 12.890625 
Q 45.40625 18.265625 45.40625 27.984375 
z
M 54.390625 6.78125 
Q 54.390625 -7.171875 48.1875 -13.984375 
Q 42 -20.796875 29.203125 -20.796875 
Q 24.46875 -20.796875 20.265625 -20.09375 
Q 16.0625 -19.390625 12.109375 -17.921875 
L 12.109375 -9.1875 
Q 16.0625 -11.328125 19.921875 -12.34375 
Q 23.78125 -13.375 27.78125 -13.375 
Q 36.625 -13.375 41.015625 -8.765625 
Q 45.40625 -4.15625 45.40625 5.171875 
L 45.40625 9.625 
Q 42.625 4.78125 38.28125 2.390625 
Q 33.9375 0 27.875 0 
Q 17.828125 0 11.671875 7.65625 
Q 5.515625 15.328125 5.515625 27.984375 
Q 5.515625 40.671875 11.671875 48.328125 
Q 17.828125 56 27.875 56 
Q 33.9375 56 38.28125 53.609375 
Q 42.625 51.21875 45.40625 46.390625 
L 45.40625 54.6875 
L 54.390625 54.6875 
z
" id="DejaVuSans-103"/>
      <path d="M 28.609375 0 
L 0.78125 72.90625 
L 11.078125 72.90625 
L 34.1875 11.53125 
L 57.328125 72.90625 
L 67.578125 72.90625 
L 39.796875 0 
z
" id="DejaVuSans-86"/>
      <path d="M 34.28125 27.484375 
Q 23.390625 27.484375 19.1875 25 
Q 14.984375 22.515625 14.984375 16.5 
Q 14.984375 11.71875 18.140625 8.90625 
Q 21.296875 6.109375 26.703125 6.109375 
Q 34.1875 6.109375 38.703125 11.40625 
Q 43.21875 16.703125 43.21875 25.484375 
L 43.21875 27.484375 
z
M 52.203125 31.203125 
L 52.203125 0 
L 43.21875 0 
L 43.21875 8.296875 
Q 40.140625 3.328125 35.546875 0.953125 
Q 30.953125 -1.421875 24.3125 -1.421875 
Q 15.921875 -1.421875 10.953125 3.296875 
Q 6 8.015625 6 15.921875 
Q 6 25.140625 12.171875 29.828125 
Q 18.359375 34.515625 30.609375 34.515625 
L 43.21875 34.515625 
L 43.21875 35.40625 
Q 43.21875 41.609375 39.140625 45 
Q 35.0625 48.390625 27.6875 48.390625 
Q 23 48.390625 18.546875 47.265625 
Q 14.109375 46.140625 10.015625 43.890625 
L 10.015625 52.203125 
Q 14.9375 54.109375 19.578125 55.046875 
Q 24.21875 56 28.609375 56 
Q 40.484375 56 46.34375 49.84375 
Q 52.203125 43.703125 52.203125 31.203125 
z
" id="DejaVuSans-97"/>
      <path d="M 41.109375 46.296875 
Q 39.59375 47.171875 37.8125 47.578125 
Q 36.03125 48 33.890625 48 
Q 26.265625 48 22.1875 43.046875 
Q 18.109375 38.09375 18.109375 28.8125 
L 18.109375 0 
L 9.078125 0 
L 9.078125 54.6875 
L 18.109375 54.6875 
L 18.109375 46.1875 
Q 20.953125 51.171875 25.484375 53.578125 
Q 30.03125 56 36.53125 56 
Q 37.453125 56 38.578125 55.875 
Q 39.703125 55.765625 41.0625 55.515625 
z
" id="DejaVuSans-114"/>
     </defs>
     <g transform="translate(47.9215 187.72875)rotate(-90)scale(0.144 -0.144)">
      <use xlink:href="#DejaVuSans-65"/>
      <use x="68.392578" xlink:href="#DejaVuSans-99"/>
      <use x="123.373047" xlink:href="#DejaVuSans-116"/>
      <use x="162.582031" xlink:href="#DejaVuSans-46"/>
      <use x="194.369141" xlink:href="#DejaVuSans-32"/>
      <use x="226.15625" xlink:href="#DejaVuSans-67"/>
      <use x="295.980469" xlink:href="#DejaVuSans-101"/>
      <use x="357.503906" xlink:href="#DejaVuSans-108"/>
      <use x="385.287109" xlink:href="#DejaVuSans-108"/>
      <use x="413.070312" xlink:href="#DejaVuSans-115"/>
      <use x="465.169922" xlink:href="#DejaVuSans-32"/>
      <use x="496.957031" xlink:href="#DejaVuSans-77"/>
      <use x="583.236328" xlink:href="#DejaVuSans-111"/>
      <use x="644.417969" xlink:href="#DejaVuSans-118"/>
      <use x="703.597656" xlink:href="#DejaVuSans-105"/>
      <use x="731.380859" xlink:href="#DejaVuSans-110"/>
      <use x="794.759766" xlink:href="#DejaVuSans-103"/>
      <use x="858.236328" xlink:href="#DejaVuSans-32"/>
      <use x="890.023438" xlink:href="#DejaVuSans-86"/>
      <use x="958.322266" xlink:href="#DejaVuSans-97"/>
      <use x="1019.601562" xlink:href="#DejaVuSans-114"/>
      <use x="1060.574219" xlink:href="#DejaVuSans-46"/>
     </g>
    </g>
   </g>
   <g id="line2d_12">
    <path clip-path="url(#p25f5f75903)" d="M 81 105.758555 
L 83.049796 109.752234 
L 85.099592 115.355552 
L 87.149388 110.550716 
L 89.199184 106.955011 
L 91.24898 126.52163 
L 93.298776 120.544419 
L 95.348571 108.408755 
L 97.398367 108.729416 
L 99.448163 118.591306 
L 101.497959 130.008336 
L 103.547755 131.748521 
L 105.597551 130.92469 
L 107.647347 151.479906 
L 109.697143 151.993216 
L 111.746939 156.383602 
L 113.796735 158.732154 
L 115.846531 164.44954 
L 117.896327 163.904545 
L 119.946122 163.754988 
L 121.995918 156.035058 
L 124.045714 137.417745 
L 126.09551 134.28085 
L 128.145306 125.462057 
L 130.195102 124.564715 
L 132.244898 118.301064 
L 134.294694 114.648324 
L 136.34449 114.245281 
L 138.394286 118.19967 
L 140.444082 105.50887 
L 142.493878 106.805454 
L 144.543673 120.536815 
L 146.593469 104.494925 
L 148.643265 112.454399 
L 150.693061 106.709129 
L 152.742857 117.288386 
L 154.792653 111.231327 
L 156.842449 100.676151 
L 158.892245 99.95625 
L 160.942041 107.916992 
L 162.991837 118.252902 
L 165.041633 110.71168 
L 167.091429 116.32894 
L 169.141224 113.448066 
L 171.19102 111.638173 
L 173.240816 96.393498 
L 177.340408 111.706614 
L 179.390204 108.9246 
L 181.44 107.128649 
L 183.489796 102.001885 
L 185.539592 111.681266 
L 187.589388 128.695276 
L 189.639184 131.380965 
L 191.68898 146.03375 
L 193.738776 150.588901 
L 195.788571 135.26311 
L 197.838367 134.553348 
L 199.888163 144.381018 
L 201.937959 136.241568 
L 203.987755 121.18067 
L 206.037551 109.896721 
L 208.087347 104.489855 
L 210.137143 99.510114 
L 212.186939 69.940919 
L 214.236735 66.657002 
L 216.286531 74.980229 
L 218.336327 87.592448 
L 220.386122 86.019565 
L 222.435918 92.18689 
L 224.485714 88.52908 
L 226.53551 89.597526 
L 228.585306 91.99931 
L 230.635102 98.813026 
L 232.684898 110.475937 
L 234.734694 105.785171 
L 236.78449 102.930913 
L 238.834286 98.783875 
L 240.884082 102.436615 
L 242.933878 97.915684 
L 244.983673 108.532964 
L 247.033469 105.369453 
L 249.083265 109.345388 
L 251.133061 97.503768 
L 253.182857 90.005639 
L 255.232653 99.143826 
L 257.282449 105.636881 
L 259.332245 106.520281 
L 261.382041 103.385921 
L 263.431837 99.454347 
L 265.481633 96.633042 
L 267.531429 101.650807 
L 269.581224 95.929617 
L 271.63102 91.818067 
L 273.680816 116.205999 
L 275.730612 105.333965 
L 277.780408 104.259182 
L 279.830204 98.155228 
L 281.88 96.085512 
L 283.929796 102.020897 
L 285.979592 107.489867 
L 288.029388 108.852357 
L 290.079184 112.19711 
L 292.12898 114.628046 
L 294.178776 104.840934 
L 296.228571 119.075465 
L 298.278367 118.363168 
L 300.328163 124.852422 
L 302.377959 121.095752 
L 304.427755 107.497472 
L 306.477551 107.649564 
L 308.527347 106.588723 
L 310.577143 104.555761 
L 312.626939 116.757332 
L 314.676735 112.477213 
L 316.726531 116.465822 
L 318.776327 109.274412 
L 320.826122 101.660946 
L 322.875918 95.963838 
L 324.925714 113.402439 
L 326.97551 110.361869 
L 329.025306 115.017147 
L 331.075102 108.567184 
L 333.124898 86.430213 
L 335.174694 85.911833 
L 337.22449 79.384557 
L 339.274286 93.994248 
L 341.324082 112.709153 
L 343.373878 118.956327 
L 345.423673 109.605212 
L 347.473469 106.449305 
L 349.523265 102.740798 
L 351.573061 91.849753 
L 353.622857 103.513932 
L 355.672653 114.167968 
L 357.722449 122.450638 
L 359.772245 119.113488 
L 361.822041 119.415137 
L 363.871837 121.029846 
L 365.921633 122.313755 
L 367.971429 120.389793 
L 370.021224 119.69017 
L 372.07102 139.076814 
L 374.120816 147.9387 
L 376.170612 146.969115 
L 378.220408 146.599024 
L 380.270204 150.686494 
L 382.32 141.5914 
L 384.369796 146.654791 
L 386.419592 148.624381 
L 388.469388 152.76128 
L 390.519184 151.236559 
L 392.56898 141.82334 
L 394.618776 138.597725 
L 396.668571 137.624337 
L 398.718367 127.502623 
L 400.768163 120.356839 
L 402.817959 126.876511 
L 404.867755 127.825818 
L 406.917551 130.159161 
L 408.967347 121.747213 
L 411.017143 132.28211 
L 415.116735 134.979205 
L 417.166531 135.548283 
L 419.216327 142.847425 
L 421.266122 123.026052 
L 423.315918 130.649657 
L 425.365714 122.374592 
L 427.41551 114.666069 
L 429.465306 123.350514 
L 431.515102 108.668579 
L 433.564898 112.657188 
L 435.614694 107.303555 
L 437.66449 93.349125 
L 439.714286 87.508797 
L 441.764082 107.320031 
L 443.813878 101.828247 
L 445.863673 109.660979 
L 447.913469 123.069144 
L 452.013061 137.176933 
L 454.062857 135.673758 
L 456.112653 133.784017 
L 458.162449 140.318898 
L 460.212245 154.202351 
L 462.262041 146.744779 
L 464.311837 137.214956 
L 466.361633 118.090671 
L 468.411429 110.186963 
L 470.461224 101.221147 
L 472.51102 104.551959 
L 474.560816 94.774987 
L 476.610612 94.823149 
L 478.660408 91.047468 
L 480.710204 84.648203 
L 482.76 86.731861 
L 484.809796 92.014519 
L 486.859592 99.587427 
L 488.909388 98.805421 
L 490.959184 100.674884 
L 493.00898 101.122287 
L 495.058776 105.205954 
L 497.108571 110.470868 
L 499.158367 110.392287 
L 501.208163 98.477156 
L 503.257959 105.271861 
L 505.307755 97.339002 
L 507.357551 109.091901 
L 509.407347 107.918259 
L 511.457143 103.778825 
L 513.506939 100.993009 
L 515.556735 108.034863 
L 517.606531 108.982902 
L 519.656327 113.858714 
L 521.706122 110.660983 
L 523.755918 104.682505 
L 525.805714 116.108406 
L 527.85551 112.766188 
L 529.905306 114.141352 
L 531.955102 120.48485 
L 536.054694 135.895559 
L 538.10449 129.756117 
L 540.154286 125.649637 
L 542.204082 129.571072 
L 544.253878 130.181974 
L 546.303673 124.998176 
L 548.353469 137.562232 
L 550.403265 136.0185 
L 552.453061 131.577417 
L 554.502857 126.026064 
L 556.552653 123.168004 
L 558.602449 130.354345 
L 560.652245 131.430395 
L 562.702041 138.685177 
L 564.751837 138.235239 
L 566.801633 136.899365 
L 568.851429 140.023586 
L 570.901224 142.770112 
L 572.95102 137.5635 
L 575.000816 136.830924 
L 577.050612 134.131293 
L 579.100408 143.607884 
L 581.150204 142.035001 
L 583.2 143.133865 
L 583.2 143.133865 
" style="fill:none;stroke:#0000ff;stroke-linecap:square;stroke-width:1.5;"/>
   </g>
   <g id="patch_3">
    <path d="M 81 192.24 
L 81 25.92 
" style="fill:none;stroke:#000000;stroke-linecap:square;stroke-linejoin:miter;stroke-width:0.8;"/>
   </g>
   <g id="patch_4">
    <path d="M 583.2 192.24 
L 583.2 25.92 
" style="fill:none;stroke:#000000;stroke-linecap:square;stroke-linejoin:miter;stroke-width:0.8;"/>
   </g>
   <g id="patch_5">
    <path d="M 81 192.24 
L 583.2 192.24 
" style="fill:none;stroke:#000000;stroke-linecap:square;stroke-linejoin:miter;stroke-width:0.8;"/>
   </g>
   <g id="patch_6">
    <path d="M 81 25.92 
L 583.2 25.92 
" style="fill:none;stroke:#000000;stroke-linecap:square;stroke-linejoin:miter;stroke-width:0.8;"/>
   </g>
   <g id="text_14">
    <!-- Thalamus, Num Trials=10 All unstimulated trials -->
    <defs>
     <path d="M 54.890625 33.015625 
L 54.890625 0 
L 45.90625 0 
L 45.90625 32.71875 
Q 45.90625 40.484375 42.875 44.328125 
Q 39.84375 48.1875 33.796875 48.1875 
Q 26.515625 48.1875 22.3125 43.546875 
Q 18.109375 38.921875 18.109375 30.90625 
L 18.109375 0 
L 9.078125 0 
L 9.078125 75.984375 
L 18.109375 75.984375 
L 18.109375 46.1875 
Q 21.34375 51.125 25.703125 53.5625 
Q 30.078125 56 35.796875 56 
Q 45.21875 56 50.046875 50.171875 
Q 54.890625 44.34375 54.890625 33.015625 
z
" id="DejaVuSans-104"/>
     <path d="M 8.5 21.578125 
L 8.5 54.6875 
L 17.484375 54.6875 
L 17.484375 21.921875 
Q 17.484375 14.15625 20.5 10.265625 
Q 23.53125 6.390625 29.59375 6.390625 
Q 36.859375 6.390625 41.078125 11.03125 
Q 45.3125 15.671875 45.3125 23.6875 
L 45.3125 54.6875 
L 54.296875 54.6875 
L 54.296875 0 
L 45.3125 0 
L 45.3125 8.40625 
Q 42.046875 3.421875 37.71875 1 
Q 33.40625 -1.421875 27.6875 -1.421875 
Q 18.265625 -1.421875 13.375 4.4375 
Q 8.5 10.296875 8.5 21.578125 
z
M 31.109375 56 
z
" id="DejaVuSans-117"/>
     <path d="M 11.71875 12.40625 
L 22.015625 12.40625 
L 22.015625 4 
L 14.015625 -11.625 
L 7.71875 -11.625 
L 11.71875 4 
z
" id="DejaVuSans-44"/>
     <path d="M 9.8125 72.90625 
L 23.09375 72.90625 
L 55.421875 11.921875 
L 55.421875 72.90625 
L 64.984375 72.90625 
L 64.984375 0 
L 51.703125 0 
L 19.390625 60.984375 
L 19.390625 0 
L 9.8125 0 
z
" id="DejaVuSans-78"/>
     <path d="M 10.59375 45.40625 
L 73.1875 45.40625 
L 73.1875 37.203125 
L 10.59375 37.203125 
z
M 10.59375 25.484375 
L 73.1875 25.484375 
L 73.1875 17.1875 
L 10.59375 17.1875 
z
" id="DejaVuSans-61"/>
     <path d="M 45.40625 46.390625 
L 45.40625 75.984375 
L 54.390625 75.984375 
L 54.390625 0 
L 45.40625 0 
L 45.40625 8.203125 
Q 42.578125 3.328125 38.25 0.953125 
Q 33.9375 -1.421875 27.875 -1.421875 
Q 17.96875 -1.421875 11.734375 6.484375 
Q 5.515625 14.40625 5.515625 27.296875 
Q 5.515625 40.1875 11.734375 48.09375 
Q 17.96875 56 27.875 56 
Q 33.9375 56 38.25 53.625 
Q 42.578125 51.265625 45.40625 46.390625 
z
M 14.796875 27.296875 
Q 14.796875 17.390625 18.875 11.75 
Q 22.953125 6.109375 30.078125 6.109375 
Q 37.203125 6.109375 41.296875 11.75 
Q 45.40625 17.390625 45.40625 27.296875 
Q 45.40625 37.203125 41.296875 42.84375 
Q 37.203125 48.484375 30.078125 48.484375 
Q 22.953125 48.484375 18.875 42.84375 
Q 14.796875 37.203125 14.796875 27.296875 
z
" id="DejaVuSans-100"/>
    </defs>
    <g transform="translate(186.359063 19.92)scale(0.12 -0.12)">
     <use xlink:href="#DejaVuSans-84"/>
     <use x="61.083984" xlink:href="#DejaVuSans-104"/>
     <use x="124.462891" xlink:href="#DejaVuSans-97"/>
     <use x="185.742188" xlink:href="#DejaVuSans-108"/>
     <use x="213.525391" xlink:href="#DejaVuSans-97"/>
     <use x="274.804688" xlink:href="#DejaVuSans-109"/>
     <use x="372.216797" xlink:href="#DejaVuSans-117"/>
     <use x="435.595703" xlink:href="#DejaVuSans-115"/>
     <use x="487.695312" xlink:href="#DejaVuSans-44"/>
     <use x="519.482422" xlink:href="#DejaVuSans-32"/>
     <use x="551.269531" xlink:href="#DejaVuSans-78"/>
     <use x="626.074219" xlink:href="#DejaVuSans-117"/>
     <use x="689.453125" xlink:href="#DejaVuSans-109"/>
     <use x="786.865234" xlink:href="#DejaVuSans-32"/>
     <use x="818.652344" xlink:href="#DejaVuSans-84"/>
     <use x="879.517578" xlink:href="#DejaVuSans-114"/>
     <use x="920.630859" xlink:href="#DejaVuSans-105"/>
     <use x="948.414062" xlink:href="#DejaVuSans-97"/>
     <use x="1009.693359" xlink:href="#DejaVuSans-108"/>
     <use x="1037.476562" xlink:href="#DejaVuSans-115"/>
     <use x="1089.576172" xlink:href="#DejaVuSans-61"/>
     <use x="1173.365234" xlink:href="#DejaVuSans-49"/>
     <use x="1236.988281" xlink:href="#DejaVuSans-48"/>
     <use x="1300.611328" xlink:href="#DejaVuSans-32"/>
     <use x="1332.398438" xlink:href="#DejaVuSans-65"/>
     <use x="1400.806641" xlink:href="#DejaVuSans-108"/>
     <use x="1428.589844" xlink:href="#DejaVuSans-108"/>
     <use x="1456.373047" xlink:href="#DejaVuSans-32"/>
     <use x="1488.160156" xlink:href="#DejaVuSans-117"/>
     <use x="1551.539062" xlink:href="#DejaVuSans-110"/>
     <use x="1614.917969" xlink:href="#DejaVuSans-115"/>
     <use x="1667.017578" xlink:href="#DejaVuSans-116"/>
     <use x="1706.226562" xlink:href="#DejaVuSans-105"/>
     <use x="1734.009766" xlink:href="#DejaVuSans-109"/>
     <use x="1831.421875" xlink:href="#DejaVuSans-117"/>
     <use x="1894.800781" xlink:href="#DejaVuSans-108"/>
     <use x="1922.583984" xlink:href="#DejaVuSans-97"/>
     <use x="1983.863281" xlink:href="#DejaVuSans-116"/>
     <use x="2023.072266" xlink:href="#DejaVuSans-101"/>
     <use x="2084.595703" xlink:href="#DejaVuSans-100"/>
     <use x="2148.072266" xlink:href="#DejaVuSans-32"/>
     <use x="2179.859375" xlink:href="#DejaVuSans-116"/>
     <use x="2219.068359" xlink:href="#DejaVuSans-114"/>
     <use x="2260.181641" xlink:href="#DejaVuSans-105"/>
     <use x="2287.964844" xlink:href="#DejaVuSans-97"/>
     <use x="2349.244141" xlink:href="#DejaVuSans-108"/>
     <use x="2377.027344" xlink:href="#DejaVuSans-115"/>
    </g>
   </g>
   <g id="legend_1">
    <g id="patch_7">
     <path d="M 464.95125 70.7475 
L 574.8 70.7475 
Q 577.2 70.7475 577.2 68.3475 
L 577.2 34.32 
Q 577.2 31.92 574.8 31.92 
L 464.95125 31.92 
Q 462.55125 31.92 462.55125 34.32 
L 462.55125 68.3475 
Q 462.55125 70.7475 464.95125 70.7475 
z
" style="fill:#ffffff;opacity:0.8;stroke:#cccccc;stroke-linejoin:miter;"/>
    </g>
    <g id="line2d_13">
     <path d="M 467.35125 41.638125 
L 491.35125 41.638125 
" style="fill:none;stroke:#0000ff;stroke-linecap:square;stroke-width:1.5;"/>
    </g>
    <g id="line2d_14"/>
    <g id="text_15">
     <!-- Moving Var. -->
     <g transform="translate(500.95125 45.838125)scale(0.12 -0.12)">
      <use xlink:href="#DejaVuSans-77"/>
      <use x="86.279297" xlink:href="#DejaVuSans-111"/>
      <use x="147.460938" xlink:href="#DejaVuSans-118"/>
      <use x="206.640625" xlink:href="#DejaVuSans-105"/>
      <use x="234.423828" xlink:href="#DejaVuSans-110"/>
      <use x="297.802734" xlink:href="#DejaVuSans-103"/>
      <use x="361.279297" xlink:href="#DejaVuSans-32"/>
      <use x="393.066406" xlink:href="#DejaVuSans-86"/>
      <use x="461.365234" xlink:href="#DejaVuSans-97"/>
      <use x="522.644531" xlink:href="#DejaVuSans-114"/>
      <use x="563.617188" xlink:href="#DejaVuSans-46"/>
     </g>
    </g>
    <g id="patch_8">
     <path d="M 467.35125 63.451875 
L 491.35125 63.451875 
L 491.35125 55.051875 
L 467.35125 55.051875 
z
" style="fill:#0000ff;opacity:0.3;stroke:#0000ff;stroke-linejoin:miter;"/>
    </g>
    <g id="text_16">
     <!-- Std. Err. -->
     <defs>
      <path d="M 53.515625 70.515625 
L 53.515625 60.890625 
Q 47.90625 63.578125 42.921875 64.890625 
Q 37.9375 66.21875 33.296875 66.21875 
Q 25.25 66.21875 20.875 63.09375 
Q 16.5 59.96875 16.5 54.203125 
Q 16.5 49.359375 19.40625 46.890625 
Q 22.3125 44.4375 30.421875 42.921875 
L 36.375 41.703125 
Q 47.40625 39.59375 52.65625 34.296875 
Q 57.90625 29 57.90625 20.125 
Q 57.90625 9.515625 50.796875 4.046875 
Q 43.703125 -1.421875 29.984375 -1.421875 
Q 24.8125 -1.421875 18.96875 -0.25 
Q 13.140625 0.921875 6.890625 3.21875 
L 6.890625 13.375 
Q 12.890625 10.015625 18.65625 8.296875 
Q 24.421875 6.59375 29.984375 6.59375 
Q 38.421875 6.59375 43.015625 9.90625 
Q 47.609375 13.234375 47.609375 19.390625 
Q 47.609375 24.75 44.3125 27.78125 
Q 41.015625 30.8125 33.5 32.328125 
L 27.484375 33.5 
Q 16.453125 35.6875 11.515625 40.375 
Q 6.59375 45.0625 6.59375 53.421875 
Q 6.59375 63.09375 13.40625 68.65625 
Q 20.21875 74.21875 32.171875 74.21875 
Q 37.3125 74.21875 42.625 73.28125 
Q 47.953125 72.359375 53.515625 70.515625 
z
" id="DejaVuSans-83"/>
      <path d="M 9.8125 72.90625 
L 55.90625 72.90625 
L 55.90625 64.59375 
L 19.671875 64.59375 
L 19.671875 43.015625 
L 54.390625 43.015625 
L 54.390625 34.71875 
L 19.671875 34.71875 
L 19.671875 8.296875 
L 56.78125 8.296875 
L 56.78125 0 
L 9.8125 0 
z
" id="DejaVuSans-69"/>
     </defs>
     <g transform="translate(500.95125 63.451875)scale(0.12 -0.12)">
      <use xlink:href="#DejaVuSans-83"/>
      <use x="63.476562" xlink:href="#DejaVuSans-116"/>
      <use x="102.685547" xlink:href="#DejaVuSans-100"/>
      <use x="166.162109" xlink:href="#DejaVuSans-46"/>
      <use x="197.949219" xlink:href="#DejaVuSans-32"/>
      <use x="229.736328" xlink:href="#DejaVuSans-69"/>
      <use x="292.919922" xlink:href="#DejaVuSans-114"/>
      <use x="334.017578" xlink:href="#DejaVuSans-114"/>
      <use x="374.990234" xlink:href="#DejaVuSans-46"/>
     </g>
    </g>
   </g>
  </g>
 </g>
 <defs>
  <clipPath id="p25f5f75903">
   <rect height="166.32" width="502.2" x="81" y="25.92"/>
  </clipPath>
 </defs>
</svg>
