<?xml version="1.0" encoding="utf-8" standalone="no"?>
<!DOCTYPE svg PUBLIC "-//W3C//DTD SVG 1.1//EN"
  "http://www.w3.org/Graphics/SVG/1.1/DTD/svg11.dtd">
<!-- Created with matplotlib (https://matplotlib.org/) -->
<svg height="216pt" version="1.1" viewBox="0 0 648 216" width="648pt" xmlns="http://www.w3.org/2000/svg" xmlns:xlink="http://www.w3.org/1999/xlink">
 <defs>
  <style type="text/css">
*{stroke-linecap:butt;stroke-linejoin:round;}
  </style>
 </defs>
 <g id="figure_1">
  <g id="patch_1">
   <path d="M 0 216 
L 648 216 
L 648 0 
L 0 0 
z
" style="fill:#ffffff;"/>
  </g>
  <g id="axes_1">
   <g id="patch_2">
    <path d="M 81 192.24 
L 583.2 192.24 
L 583.2 25.92 
L 81 25.92 
z
" style="fill:#ffffff;"/>
   </g>
   <g id="PolyCollection_1">
    <defs>
     <path d="M 162.62878 -23.76 
L 162.62878 -190.08 
L 417.984712 -190.08 
L 417.984712 -23.76 
L 417.984712 -23.76 
L 162.62878 -23.76 
z
" id="me91629f11e" style="stroke:#808080;stroke-opacity:0.3;"/>
    </defs>
    <g clip-path="url(#pd155f72fa3)">
     <use style="fill:#808080;fill-opacity:0.3;stroke:#808080;stroke-opacity:0.3;" x="0" xlink:href="#me91629f11e" y="216"/>
    </g>
   </g>
   <g id="PolyCollection_2">
    <defs>
     <path d="M 81 -72.975012 
L 81 -43.788148 
L 82.702373 -43.723917 
L 84.404746 -45.653736 
L 86.107119 -45.210893 
L 87.809492 -44.140484 
L 89.511864 -45.800547 
L 91.214237 -40.325287 
L 92.91661 -35.742119 
L 94.618983 -34.384447 
L 96.321356 -30.541794 
L 98.023729 -27.163973 
L 99.726102 -30.247737 
L 101.428475 -23.984737 
L 103.130847 -25.637505 
L 104.83322 -23.76 
L 106.535593 -24.137003 
L 108.237966 -27.280299 
L 109.940339 -25.619651 
L 111.642712 -26.346665 
L 113.345085 -30.033732 
L 115.047458 -31.077197 
L 116.749831 -35.726582 
L 118.452203 -41.639603 
L 120.154576 -44.570735 
L 121.856949 -42.492149 
L 123.559322 -40.491507 
L 125.261695 -41.16185 
L 126.964068 -41.041512 
L 128.666441 -39.427432 
L 130.368814 -36.805154 
L 132.071186 -38.563692 
L 133.773559 -31.771206 
L 135.475932 -35.312951 
L 137.178305 -29.29709 
L 138.880678 -29.082369 
L 140.583051 -27.968257 
L 142.285424 -33.952812 
L 143.987797 -35.775723 
L 145.690169 -33.624599 
L 147.392542 -34.74841 
L 149.094915 -32.108332 
L 150.797288 -37.623884 
L 152.499661 -32.521981 
L 154.202034 -38.197718 
L 155.904407 -54.274561 
L 157.60678 -87.272291 
L 159.309153 -87.343827 
L 161.011525 -97.159409 
L 162.713898 -99.763169 
L 164.416271 -101.823578 
L 166.118644 -104.732325 
L 167.821017 -104.734564 
L 169.52339 -109.345254 
L 171.225763 -104.860811 
L 172.928136 -95.596265 
L 174.630508 -64.643691 
L 176.332881 -59.452171 
L 178.035254 -47.053745 
L 179.737627 -39.83565 
L 181.44 -37.553529 
L 183.142373 -39.363945 
L 184.844746 -39.531875 
L 186.547119 -36.164539 
L 188.249492 -45.569797 
L 189.951864 -46.467358 
L 191.654237 -52.629622 
L 193.35661 -50.359865 
L 195.058983 -54.088324 
L 196.761356 -60.99205 
L 198.463729 -64.33103 
L 200.166102 -70.789473 
L 201.868475 -84.335524 
L 203.570847 -90.939543 
L 205.27322 -92.716785 
L 206.975593 -99.731745 
L 208.677966 -94.413488 
L 210.380339 -94.350407 
L 212.082712 -91.579493 
L 213.785085 -89.636018 
L 215.487458 -89.512149 
L 217.189831 -81.893016 
L 218.892203 -79.217783 
L 220.594576 -77.568882 
L 222.296949 -75.399017 
L 223.999322 -71.434245 
L 225.701695 -72.15146 
L 227.404068 -69.375745 
L 229.106441 -72.096772 
L 230.808814 -70.207018 
L 232.511186 -71.042899 
L 234.213559 -77.78479 
L 235.915932 -72.590051 
L 237.618305 -77.220425 
L 239.320678 -77.811971 
L 241.023051 -78.477273 
L 242.725424 -79.242596 
L 244.427797 -82.329184 
L 246.130169 -78.23221 
L 247.832542 -80.049111 
L 249.534915 -77.923873 
L 251.237288 -73.925002 
L 252.939661 -73.938346 
L 254.642034 -67.092039 
L 256.344407 -62.622172 
L 258.04678 -59.602058 
L 259.749153 -63.682237 
L 261.451525 -68.447255 
L 263.153898 -75.258888 
L 264.856271 -80.147532 
L 266.558644 -86.076719 
L 268.261017 -90.508247 
L 269.96339 -94.303417 
L 271.665763 -98.079939 
L 273.368136 -95.766095 
L 275.070508 -100.005163 
L 276.772881 -98.615265 
L 278.475254 -97.190849 
L 280.177627 -94.307528 
L 281.88 -91.495195 
L 283.582373 -95.268222 
L 285.284746 -94.04728 
L 286.987119 -94.979732 
L 288.689492 -95.553836 
L 290.391864 -104.838497 
L 292.094237 -104.241585 
L 293.79661 -106.339259 
L 295.498983 -105.274513 
L 297.201356 -104.766534 
L 298.903729 -101.812854 
L 300.606102 -100.741093 
L 302.308475 -99.412125 
L 304.010847 -95.07539 
L 305.71322 -92.741736 
L 307.415593 -86.069498 
L 309.117966 -85.963219 
L 310.820339 -85.858883 
L 312.522712 -94.422736 
L 314.225085 -96.710793 
L 315.927458 -97.08109 
L 317.629831 -97.692544 
L 319.332203 -103.258125 
L 321.034576 -104.385194 
L 322.736949 -108.330768 
L 324.439322 -115.196581 
L 326.141695 -111.874894 
L 327.844068 -110.337484 
L 329.546441 -106.779343 
L 331.248814 -105.506904 
L 332.951186 -109.010653 
L 334.653559 -106.088551 
L 336.355932 -102.667044 
L 338.058305 -106.276268 
L 339.760678 -100.372091 
L 341.463051 -101.558466 
L 343.165424 -105.374233 
L 344.867797 -109.301884 
L 346.570169 -109.11212 
L 348.272542 -112.874199 
L 349.974915 -111.842328 
L 351.677288 -112.085315 
L 353.379661 -108.673288 
L 355.082034 -104.599301 
L 356.784407 -101.724787 
L 358.48678 -102.493964 
L 360.189153 -99.993945 
L 361.891525 -99.008295 
L 363.593898 -101.088436 
L 365.296271 -96.789969 
L 366.998644 -99.483219 
L 368.701017 -105.383568 
L 370.40339 -109.396155 
L 372.105763 -111.611543 
L 373.808136 -115.961737 
L 375.510508 -114.737445 
L 377.212881 -116.383794 
L 378.915254 -118.021766 
L 380.617627 -122.148824 
L 382.32 -123.658624 
L 384.022373 -126.397958 
L 385.724746 -131.282223 
L 387.427119 -136.737842 
L 389.129492 -135.317042 
L 390.831864 -139.390315 
L 392.534237 -141.666999 
L 394.23661 -149.897931 
L 395.938983 -151.695229 
L 397.641356 -147.468727 
L 399.343729 -148.952405 
L 401.046102 -156.566604 
L 402.748475 -151.984514 
L 404.450847 -144.593265 
L 406.15322 -143.40635 
L 407.855593 -136.181682 
L 409.557966 -133.599578 
L 411.260339 -121.069647 
L 412.962712 -112.843746 
L 414.665085 -108.973717 
L 416.367458 -99.731066 
L 418.069831 -84.432478 
L 419.772203 -77.121499 
L 421.474576 -68.248746 
L 423.176949 -62.572524 
L 424.879322 -58.413379 
L 426.581695 -54.669633 
L 428.284068 -50.807968 
L 429.986441 -50.461659 
L 431.688814 -49.500332 
L 433.391186 -55.151872 
L 435.093559 -50.25969 
L 436.795932 -50.704785 
L 438.498305 -56.561512 
L 440.200678 -54.281155 
L 441.903051 -54.995011 
L 443.605424 -60.244946 
L 445.307797 -63.551221 
L 447.010169 -68.474676 
L 448.712542 -71.570598 
L 450.414915 -74.75415 
L 452.117288 -87.21351 
L 453.819661 -90.26961 
L 455.522034 -88.917774 
L 457.224407 -90.251413 
L 458.92678 -88.322669 
L 460.629153 -87.416365 
L 462.331525 -87.726999 
L 464.033898 -86.808535 
L 465.736271 -85.241869 
L 467.438644 -79.156762 
L 469.141017 -74.099824 
L 470.84339 -67.251972 
L 472.545763 -70.369479 
L 474.248136 -73.82245 
L 475.950508 -72.394499 
L 477.652881 -68.627009 
L 479.355254 -72.691354 
L 481.057627 -73.756435 
L 482.76 -72.930345 
L 484.462373 -72.660365 
L 486.164746 -67.502959 
L 487.867119 -66.051231 
L 489.569492 -65.004055 
L 491.271864 -61.928157 
L 492.974237 -60.535347 
L 494.67661 -61.775661 
L 496.378983 -63.345657 
L 498.081356 -61.888587 
L 499.783729 -60.346491 
L 501.486102 -64.893537 
L 503.188475 -64.857488 
L 504.890847 -65.482345 
L 506.59322 -63.109846 
L 508.295593 -65.155545 
L 509.997966 -63.608939 
L 511.700339 -66.172233 
L 513.402712 -61.031317 
L 515.105085 -57.359609 
L 516.807458 -54.59625 
L 518.509831 -48.361352 
L 520.212203 -41.610641 
L 521.914576 -43.943517 
L 523.616949 -45.188974 
L 525.319322 -46.94725 
L 527.021695 -50.87014 
L 528.724068 -52.969829 
L 530.426441 -56.852307 
L 532.128814 -56.246445 
L 533.831186 -57.404718 
L 535.533559 -56.751644 
L 537.235932 -58.894921 
L 538.938305 -55.69904 
L 540.640678 -52.795476 
L 542.343051 -52.695222 
L 544.045424 -50.369366 
L 545.747797 -41.501932 
L 547.450169 -39.198683 
L 549.152542 -37.102387 
L 550.854915 -39.342897 
L 552.557288 -35.008217 
L 554.259661 -34.696152 
L 555.962034 -38.109798 
L 557.664407 -37.449623 
L 559.36678 -31.481408 
L 561.069153 -31.979343 
L 562.771525 -33.652023 
L 564.473898 -34.954259 
L 566.176271 -35.76861 
L 567.878644 -31.753702 
L 569.581017 -30.950499 
L 571.28339 -30.906165 
L 572.985763 -29.547685 
L 574.688136 -28.629746 
L 576.390508 -33.379608 
L 578.092881 -29.567425 
L 579.795254 -29.329166 
L 581.497627 -29.169089 
L 583.2 -34.762417 
L 583.2 -65.111871 
L 583.2 -65.111871 
L 581.497627 -59.207473 
L 579.795254 -58.811113 
L 578.092881 -59.731491 
L 576.390508 -64.245191 
L 574.688136 -57.806607 
L 572.985763 -59.232287 
L 571.28339 -60.327197 
L 569.581017 -60.800435 
L 567.878644 -61.529914 
L 566.176271 -65.882876 
L 564.473898 -64.224353 
L 562.771525 -63.476061 
L 561.069153 -61.654992 
L 559.36678 -61.578549 
L 557.664407 -68.438763 
L 555.962034 -68.217948 
L 554.259661 -63.846335 
L 552.557288 -63.921763 
L 550.854915 -69.414913 
L 549.152542 -66.596061 
L 547.450169 -70.040748 
L 545.747797 -72.43983 
L 544.045424 -82.271672 
L 542.343051 -85.08778 
L 540.640678 -85.528699 
L 538.938305 -89.193579 
L 537.235932 -93.723131 
L 535.533559 -91.780992 
L 533.831186 -92.607362 
L 532.128814 -91.202199 
L 530.426441 -91.557935 
L 528.724068 -87.648567 
L 527.021695 -84.744878 
L 525.319322 -80.648697 
L 523.616949 -80.405292 
L 521.914576 -79.328535 
L 520.212203 -75.991447 
L 518.509831 -82.749199 
L 516.807458 -89.033723 
L 515.105085 -91.331098 
L 513.402712 -94.018445 
L 511.700339 -99.736934 
L 509.997966 -96.752659 
L 508.295593 -99.19679 
L 506.59322 -96.393889 
L 504.890847 -98.98525 
L 503.188475 -98.524194 
L 501.486102 -99.904469 
L 499.783729 -95.184893 
L 498.081356 -97.026498 
L 496.378983 -101.121389 
L 494.67661 -97.882302 
L 492.974237 -96.628885 
L 491.271864 -97.651594 
L 489.569492 -101.135357 
L 487.867119 -101.190561 
L 486.164746 -102.326144 
L 484.462373 -106.874721 
L 482.76 -107.685988 
L 481.057627 -108.096747 
L 479.355254 -106.072313 
L 477.652881 -102.718036 
L 475.950508 -106.248145 
L 474.248136 -106.917926 
L 472.545763 -103.920731 
L 470.84339 -100.315292 
L 469.141017 -108.714132 
L 467.438644 -113.098903 
L 465.736271 -119.307638 
L 464.033898 -120.816491 
L 462.331525 -120.51851 
L 460.629153 -119.322257 
L 458.92678 -121.295531 
L 457.224407 -124.939604 
L 455.522034 -123.865957 
L 453.819661 -125.420592 
L 452.117288 -121.485354 
L 450.414915 -108.888855 
L 448.712542 -106.108528 
L 447.010169 -102.964223 
L 445.307797 -97.887783 
L 443.605424 -94.825124 
L 441.903051 -88.846272 
L 440.200678 -87.29774 
L 438.498305 -90.3627 
L 436.795932 -84.003522 
L 435.093559 -84.106405 
L 433.391186 -89.489645 
L 431.688814 -82.215058 
L 429.986441 -82.568243 
L 428.284068 -82.576221 
L 426.581695 -86.172148 
L 424.879322 -88.913145 
L 423.176949 -92.229429 
L 421.474576 -95.937835 
L 419.772203 -105.212756 
L 418.069831 -112.638307 
L 416.367458 -128.515606 
L 414.665085 -138.685471 
L 412.962712 -142.296359 
L 411.260339 -151.368778 
L 409.557966 -164.802241 
L 407.855593 -166.346717 
L 406.15322 -174.295743 
L 404.450847 -175.985662 
L 402.748475 -184.472016 
L 401.046102 -190.08 
L 399.343729 -182.118193 
L 397.641356 -181.077679 
L 395.938983 -185.922133 
L 394.23661 -184.552802 
L 392.534237 -175.359178 
L 390.831864 -172.931336 
L 389.129492 -167.979483 
L 387.427119 -169.96873 
L 385.724746 -163.68979 
L 384.022373 -157.931174 
L 382.32 -156.039529 
L 380.617627 -154.582759 
L 378.915254 -149.535949 
L 377.212881 -147.832757 
L 375.510508 -145.733157 
L 373.808136 -148.86377 
L 372.105763 -144.726443 
L 370.40339 -141.926927 
L 368.701017 -137.897115 
L 366.998644 -132.144412 
L 365.296271 -129.135863 
L 363.593898 -133.803795 
L 361.891525 -131.173922 
L 360.189153 -131.756355 
L 358.48678 -134.833544 
L 356.784407 -132.900699 
L 355.082034 -135.865473 
L 353.379661 -140.133285 
L 351.677288 -144.137411 
L 349.974915 -143.763483 
L 348.272542 -145.364204 
L 346.570169 -141.445855 
L 344.867797 -142.719617 
L 343.165424 -139.369154 
L 341.463051 -135.556086 
L 339.760678 -134.507516 
L 338.058305 -141.221008 
L 336.355932 -135.781779 
L 334.653559 -139.364507 
L 332.951186 -142.439489 
L 331.248814 -137.282552 
L 329.546441 -138.193191 
L 327.844068 -140.781697 
L 326.141695 -142.133195 
L 324.439322 -145.73561 
L 322.736949 -138.284495 
L 321.034576 -132.237582 
L 319.332203 -131.185965 
L 317.629831 -126.071616 
L 315.927458 -126.162754 
L 314.225085 -125.045649 
L 312.522712 -123.036706 
L 310.820339 -113.73829 
L 309.117966 -113.778029 
L 307.415593 -113.436839 
L 305.71322 -121.220116 
L 304.010847 -124.129416 
L 302.308475 -129.024453 
L 300.606102 -130.727918 
L 298.903729 -131.627925 
L 297.201356 -136.442215 
L 295.498983 -138.406287 
L 293.79661 -140.207396 
L 292.094237 -138.256977 
L 290.391864 -139.780848 
L 288.689492 -129.210341 
L 286.987119 -128.697434 
L 285.284746 -127.661411 
L 283.582373 -128.45395 
L 281.88 -124.555058 
L 280.177627 -126.32513 
L 278.475254 -128.05989 
L 276.772881 -128.503782 
L 275.070508 -130.438583 
L 273.368136 -125.656367 
L 271.665763 -129.144762 
L 269.96339 -125.514462 
L 268.261017 -122.389372 
L 266.558644 -118.268888 
L 264.856271 -112.192108 
L 263.153898 -108.198877 
L 261.451525 -101.951561 
L 259.749153 -97.832784 
L 258.04678 -93.727038 
L 256.344407 -97.153521 
L 254.642034 -101.956314 
L 252.939661 -109.427486 
L 251.237288 -110.968024 
L 249.534915 -114.043368 
L 247.832542 -115.746954 
L 246.130169 -112.939463 
L 244.427797 -116.89065 
L 242.725424 -113.765003 
L 241.023051 -112.995722 
L 239.320678 -112.361057 
L 237.618305 -111.089508 
L 235.915932 -105.553409 
L 234.213559 -107.451819 
L 232.511186 -100.880092 
L 230.808814 -100.85811 
L 229.106441 -103.684682 
L 227.404068 -100.427013 
L 225.701695 -103.426643 
L 223.999322 -102.424015 
L 222.296949 -105.670123 
L 220.594576 -106.669358 
L 218.892203 -109.4286 
L 217.189831 -111.775406 
L 215.487458 -119.055539 
L 213.785085 -118.611686 
L 212.082712 -121.252538 
L 210.380339 -123.91311 
L 208.677966 -123.323127 
L 206.975593 -129.188375 
L 205.27322 -122.186631 
L 203.570847 -121.487156 
L 201.868475 -116.162323 
L 200.166102 -102.00428 
L 198.463729 -96.726518 
L 196.761356 -93.105446 
L 195.058983 -86.280891 
L 193.35661 -83.848159 
L 191.654237 -86.367726 
L 189.951864 -79.856338 
L 188.249492 -78.639154 
L 186.547119 -67.913993 
L 184.844746 -70.357952 
L 183.142373 -70.404036 
L 181.44 -68.094184 
L 179.737627 -71.051724 
L 178.035254 -78.135739 
L 176.332881 -90.772591 
L 174.630508 -96.594431 
L 172.928136 -128.741176 
L 171.225763 -137.886109 
L 169.52339 -142.060156 
L 167.821017 -135.937678 
L 166.118644 -137.330171 
L 164.416271 -134.770108 
L 162.713898 -131.713801 
L 161.011525 -130.23242 
L 159.309153 -119.778995 
L 157.60678 -119.568968 
L 155.904407 -85.212093 
L 154.202034 -69.524125 
L 152.499661 -64.738102 
L 150.797288 -70.671789 
L 149.094915 -64.138013 
L 147.392542 -66.548515 
L 145.690169 -65.479095 
L 143.987797 -66.236088 
L 142.285424 -64.211239 
L 140.583051 -58.073469 
L 138.880678 -59.963798 
L 137.178305 -60.224387 
L 135.475932 -66.092373 
L 133.773559 -62.50145 
L 132.071186 -70.023972 
L 130.368814 -68.273394 
L 128.666441 -71.662196 
L 126.964068 -73.0199 
L 125.261695 -73.525259 
L 123.559322 -73.063859 
L 121.856949 -74.101414 
L 120.154576 -75.430954 
L 118.452203 -72.496454 
L 116.749831 -65.777811 
L 115.047458 -61.301355 
L 113.345085 -60.305542 
L 111.642712 -56.779259 
L 109.940339 -55.935445 
L 108.237966 -56.63982 
L 106.535593 -52.799463 
L 104.83322 -51.78731 
L 103.130847 -54.73947 
L 101.428475 -53.33538 
L 99.726102 -59.463096 
L 98.023729 -56.211406 
L 96.321356 -59.571076 
L 94.618983 -64.217591 
L 92.91661 -66.164037 
L 91.214237 -71.102985 
L 89.511864 -75.469002 
L 87.809492 -73.425653 
L 86.107119 -74.681299 
L 84.404746 -75.048843 
L 82.702373 -72.600157 
L 81 -72.975012 
z
" id="m44c2f0076f" style="stroke:#0000ff;stroke-opacity:0.3;"/>
    </defs>
    <g clip-path="url(#pd155f72fa3)">
     <use style="fill:#0000ff;fill-opacity:0.3;stroke:#0000ff;stroke-opacity:0.3;" x="0" xlink:href="#m44c2f0076f" y="216"/>
    </g>
   </g>
   <g id="matplotlib.axis_1">
    <g id="xtick_1">
     <g id="line2d_1">
      <defs>
       <path d="M 0 0 
L 0 3.5 
" id="m2330cd1d5a" style="stroke:#000000;stroke-width:0.8;"/>
      </defs>
      <g>
       <use style="stroke:#000000;stroke-width:0.8;" x="162.62878" xlink:href="#m2330cd1d5a" y="192.24"/>
      </g>
     </g>
     <g id="text_1">
      <!-- 0.0 -->
      <defs>
       <path d="M 31.78125 66.40625 
Q 24.171875 66.40625 20.328125 58.90625 
Q 16.5 51.421875 16.5 36.375 
Q 16.5 21.390625 20.328125 13.890625 
Q 24.171875 6.390625 31.78125 6.390625 
Q 39.453125 6.390625 43.28125 13.890625 
Q 47.125 21.390625 47.125 36.375 
Q 47.125 51.421875 43.28125 58.90625 
Q 39.453125 66.40625 31.78125 66.40625 
z
M 31.78125 74.21875 
Q 44.046875 74.21875 50.515625 64.515625 
Q 56.984375 54.828125 56.984375 36.375 
Q 56.984375 17.96875 50.515625 8.265625 
Q 44.046875 -1.421875 31.78125 -1.421875 
Q 19.53125 -1.421875 13.0625 8.265625 
Q 6.59375 17.96875 6.59375 36.375 
Q 6.59375 54.828125 13.0625 64.515625 
Q 19.53125 74.21875 31.78125 74.21875 
z
" id="DejaVuSans-48"/>
       <path d="M 10.6875 12.40625 
L 21 12.40625 
L 21 0 
L 10.6875 0 
z
" id="DejaVuSans-46"/>
      </defs>
      <g transform="translate(153.086905 208.358125)scale(0.12 -0.12)">
       <use xlink:href="#DejaVuSans-48"/>
       <use x="63.623047" xlink:href="#DejaVuSans-46"/>
       <use x="95.410156" xlink:href="#DejaVuSans-48"/>
      </g>
     </g>
    </g>
    <g id="xtick_2">
     <g id="line2d_2">
      <g>
       <use style="stroke:#000000;stroke-width:0.8;" x="247.747424" xlink:href="#m2330cd1d5a" y="192.24"/>
      </g>
     </g>
     <g id="text_2">
      <!-- 0.5 -->
      <defs>
       <path d="M 10.796875 72.90625 
L 49.515625 72.90625 
L 49.515625 64.59375 
L 19.828125 64.59375 
L 19.828125 46.734375 
Q 21.96875 47.46875 24.109375 47.828125 
Q 26.265625 48.1875 28.421875 48.1875 
Q 40.625 48.1875 47.75 41.5 
Q 54.890625 34.8125 54.890625 23.390625 
Q 54.890625 11.625 47.5625 5.09375 
Q 40.234375 -1.421875 26.90625 -1.421875 
Q 22.3125 -1.421875 17.546875 -0.640625 
Q 12.796875 0.140625 7.71875 1.703125 
L 7.71875 11.625 
Q 12.109375 9.234375 16.796875 8.0625 
Q 21.484375 6.890625 26.703125 6.890625 
Q 35.15625 6.890625 40.078125 11.328125 
Q 45.015625 15.765625 45.015625 23.390625 
Q 45.015625 31 40.078125 35.4375 
Q 35.15625 39.890625 26.703125 39.890625 
Q 22.75 39.890625 18.8125 39.015625 
Q 14.890625 38.140625 10.796875 36.28125 
z
" id="DejaVuSans-53"/>
      </defs>
      <g transform="translate(238.205549 208.358125)scale(0.12 -0.12)">
       <use xlink:href="#DejaVuSans-48"/>
       <use x="63.623047" xlink:href="#DejaVuSans-46"/>
       <use x="95.410156" xlink:href="#DejaVuSans-53"/>
      </g>
     </g>
    </g>
    <g id="xtick_3">
     <g id="line2d_3">
      <g>
       <use style="stroke:#000000;stroke-width:0.8;" x="332.866068" xlink:href="#m2330cd1d5a" y="192.24"/>
      </g>
     </g>
     <g id="text_3">
      <!-- 1.0 -->
      <defs>
       <path d="M 12.40625 8.296875 
L 28.515625 8.296875 
L 28.515625 63.921875 
L 10.984375 60.40625 
L 10.984375 69.390625 
L 28.421875 72.90625 
L 38.28125 72.90625 
L 38.28125 8.296875 
L 54.390625 8.296875 
L 54.390625 0 
L 12.40625 0 
z
" id="DejaVuSans-49"/>
      </defs>
      <g transform="translate(323.324193 208.358125)scale(0.12 -0.12)">
       <use xlink:href="#DejaVuSans-49"/>
       <use x="63.623047" xlink:href="#DejaVuSans-46"/>
       <use x="95.410156" xlink:href="#DejaVuSans-48"/>
      </g>
     </g>
    </g>
    <g id="xtick_4">
     <g id="line2d_4">
      <g>
       <use style="stroke:#000000;stroke-width:0.8;" x="417.984712" xlink:href="#m2330cd1d5a" y="192.24"/>
      </g>
     </g>
     <g id="text_4">
      <!-- 1.5 -->
      <g transform="translate(408.442837 208.358125)scale(0.12 -0.12)">
       <use xlink:href="#DejaVuSans-49"/>
       <use x="63.623047" xlink:href="#DejaVuSans-46"/>
       <use x="95.410156" xlink:href="#DejaVuSans-53"/>
      </g>
     </g>
    </g>
    <g id="xtick_5">
     <g id="line2d_5">
      <g>
       <use style="stroke:#000000;stroke-width:0.8;" x="503.103356" xlink:href="#m2330cd1d5a" y="192.24"/>
      </g>
     </g>
     <g id="text_5">
      <!-- 2.0 -->
      <defs>
       <path d="M 19.1875 8.296875 
L 53.609375 8.296875 
L 53.609375 0 
L 7.328125 0 
L 7.328125 8.296875 
Q 12.9375 14.109375 22.625 23.890625 
Q 32.328125 33.6875 34.8125 36.53125 
Q 39.546875 41.84375 41.421875 45.53125 
Q 43.3125 49.21875 43.3125 52.78125 
Q 43.3125 58.59375 39.234375 62.25 
Q 35.15625 65.921875 28.609375 65.921875 
Q 23.96875 65.921875 18.8125 64.3125 
Q 13.671875 62.703125 7.8125 59.421875 
L 7.8125 69.390625 
Q 13.765625 71.78125 18.9375 73 
Q 24.125 74.21875 28.421875 74.21875 
Q 39.75 74.21875 46.484375 68.546875 
Q 53.21875 62.890625 53.21875 53.421875 
Q 53.21875 48.921875 51.53125 44.890625 
Q 49.859375 40.875 45.40625 35.40625 
Q 44.1875 33.984375 37.640625 27.21875 
Q 31.109375 20.453125 19.1875 8.296875 
z
" id="DejaVuSans-50"/>
      </defs>
      <g transform="translate(493.561481 208.358125)scale(0.12 -0.12)">
       <use xlink:href="#DejaVuSans-50"/>
       <use x="63.623047" xlink:href="#DejaVuSans-46"/>
       <use x="95.410156" xlink:href="#DejaVuSans-48"/>
      </g>
     </g>
    </g>
    <g id="text_6">
     <!-- Time (s) -->
     <defs>
      <path d="M -0.296875 72.90625 
L 61.375 72.90625 
L 61.375 64.59375 
L 35.5 64.59375 
L 35.5 0 
L 25.59375 0 
L 25.59375 64.59375 
L -0.296875 64.59375 
z
" id="DejaVuSans-84"/>
      <path d="M 9.421875 54.6875 
L 18.40625 54.6875 
L 18.40625 0 
L 9.421875 0 
z
M 9.421875 75.984375 
L 18.40625 75.984375 
L 18.40625 64.59375 
L 9.421875 64.59375 
z
" id="DejaVuSans-105"/>
      <path d="M 52 44.1875 
Q 55.375 50.25 60.0625 53.125 
Q 64.75 56 71.09375 56 
Q 79.640625 56 84.28125 50.015625 
Q 88.921875 44.046875 88.921875 33.015625 
L 88.921875 0 
L 79.890625 0 
L 79.890625 32.71875 
Q 79.890625 40.578125 77.09375 44.375 
Q 74.3125 48.1875 68.609375 48.1875 
Q 61.625 48.1875 57.5625 43.546875 
Q 53.515625 38.921875 53.515625 30.90625 
L 53.515625 0 
L 44.484375 0 
L 44.484375 32.71875 
Q 44.484375 40.625 41.703125 44.40625 
Q 38.921875 48.1875 33.109375 48.1875 
Q 26.21875 48.1875 22.15625 43.53125 
Q 18.109375 38.875 18.109375 30.90625 
L 18.109375 0 
L 9.078125 0 
L 9.078125 54.6875 
L 18.109375 54.6875 
L 18.109375 46.1875 
Q 21.1875 51.21875 25.484375 53.609375 
Q 29.78125 56 35.6875 56 
Q 41.65625 56 45.828125 52.96875 
Q 50 49.953125 52 44.1875 
z
" id="DejaVuSans-109"/>
      <path d="M 56.203125 29.59375 
L 56.203125 25.203125 
L 14.890625 25.203125 
Q 15.484375 15.921875 20.484375 11.0625 
Q 25.484375 6.203125 34.421875 6.203125 
Q 39.59375 6.203125 44.453125 7.46875 
Q 49.3125 8.734375 54.109375 11.28125 
L 54.109375 2.78125 
Q 49.265625 0.734375 44.1875 -0.34375 
Q 39.109375 -1.421875 33.890625 -1.421875 
Q 20.796875 -1.421875 13.15625 6.1875 
Q 5.515625 13.8125 5.515625 26.8125 
Q 5.515625 40.234375 12.765625 48.109375 
Q 20.015625 56 32.328125 56 
Q 43.359375 56 49.78125 48.890625 
Q 56.203125 41.796875 56.203125 29.59375 
z
M 47.21875 32.234375 
Q 47.125 39.59375 43.09375 43.984375 
Q 39.0625 48.390625 32.421875 48.390625 
Q 24.90625 48.390625 20.390625 44.140625 
Q 15.875 39.890625 15.1875 32.171875 
z
" id="DejaVuSans-101"/>
      <path id="DejaVuSans-32"/>
      <path d="M 31 75.875 
Q 24.46875 64.65625 21.28125 53.65625 
Q 18.109375 42.671875 18.109375 31.390625 
Q 18.109375 20.125 21.3125 9.0625 
Q 24.515625 -2 31 -13.1875 
L 23.1875 -13.1875 
Q 15.875 -1.703125 12.234375 9.375 
Q 8.59375 20.453125 8.59375 31.390625 
Q 8.59375 42.28125 12.203125 53.3125 
Q 15.828125 64.359375 23.1875 75.875 
z
" id="DejaVuSans-40"/>
      <path d="M 44.28125 53.078125 
L 44.28125 44.578125 
Q 40.484375 46.53125 36.375 47.5 
Q 32.28125 48.484375 27.875 48.484375 
Q 21.1875 48.484375 17.84375 46.4375 
Q 14.5 44.390625 14.5 40.28125 
Q 14.5 37.15625 16.890625 35.375 
Q 19.28125 33.59375 26.515625 31.984375 
L 29.59375 31.296875 
Q 39.15625 29.25 43.1875 25.515625 
Q 47.21875 21.78125 47.21875 15.09375 
Q 47.21875 7.46875 41.1875 3.015625 
Q 35.15625 -1.421875 24.609375 -1.421875 
Q 20.21875 -1.421875 15.453125 -0.5625 
Q 10.6875 0.296875 5.421875 2 
L 5.421875 11.28125 
Q 10.40625 8.6875 15.234375 7.390625 
Q 20.0625 6.109375 24.8125 6.109375 
Q 31.15625 6.109375 34.5625 8.28125 
Q 37.984375 10.453125 37.984375 14.40625 
Q 37.984375 18.0625 35.515625 20.015625 
Q 33.0625 21.96875 24.703125 23.78125 
L 21.578125 24.515625 
Q 13.234375 26.265625 9.515625 29.90625 
Q 5.8125 33.546875 5.8125 39.890625 
Q 5.8125 47.609375 11.28125 51.796875 
Q 16.75 56 26.8125 56 
Q 31.78125 56 36.171875 55.265625 
Q 40.578125 54.546875 44.28125 53.078125 
z
" id="DejaVuSans-115"/>
      <path d="M 8.015625 75.875 
L 15.828125 75.875 
Q 23.140625 64.359375 26.78125 53.3125 
Q 30.421875 42.28125 30.421875 31.390625 
Q 30.421875 20.453125 26.78125 9.375 
Q 23.140625 -1.703125 15.828125 -13.1875 
L 8.015625 -13.1875 
Q 14.5 -2 17.703125 9.0625 
Q 20.90625 20.125 20.90625 31.390625 
Q 20.90625 42.671875 17.703125 53.65625 
Q 14.5 64.65625 8.015625 75.875 
z
" id="DejaVuSans-41"/>
     </defs>
     <g transform="translate(302.60475 225.7955)scale(0.144 -0.144)">
      <use xlink:href="#DejaVuSans-84"/>
      <use x="61.037109" xlink:href="#DejaVuSans-105"/>
      <use x="88.820312" xlink:href="#DejaVuSans-109"/>
      <use x="186.232422" xlink:href="#DejaVuSans-101"/>
      <use x="247.755859" xlink:href="#DejaVuSans-32"/>
      <use x="279.542969" xlink:href="#DejaVuSans-40"/>
      <use x="318.556641" xlink:href="#DejaVuSans-115"/>
      <use x="370.65625" xlink:href="#DejaVuSans-41"/>
     </g>
    </g>
   </g>
   <g id="matplotlib.axis_2">
    <g id="ytick_1">
     <g id="line2d_6">
      <defs>
       <path d="M 0 0 
L -3.5 0 
" id="m640e79e59b" style="stroke:#000000;stroke-width:0.8;"/>
      </defs>
      <g>
       <use style="stroke:#000000;stroke-width:0.8;" x="81" xlink:href="#m640e79e59b" y="190.582209"/>
      </g>
     </g>
     <g id="text_7">
      <!-- 2.2 -->
      <g transform="translate(54.91625 195.141271)scale(0.12 -0.12)">
       <use xlink:href="#DejaVuSans-50"/>
       <use x="63.623047" xlink:href="#DejaVuSans-46"/>
       <use x="95.410156" xlink:href="#DejaVuSans-50"/>
      </g>
     </g>
    </g>
    <g id="ytick_2">
     <g id="line2d_7">
      <g>
       <use style="stroke:#000000;stroke-width:0.8;" x="81" xlink:href="#m640e79e59b" y="168.627938"/>
      </g>
     </g>
     <g id="text_8">
      <!-- 2.3 -->
      <defs>
       <path d="M 40.578125 39.3125 
Q 47.65625 37.796875 51.625 33 
Q 55.609375 28.21875 55.609375 21.1875 
Q 55.609375 10.40625 48.1875 4.484375 
Q 40.765625 -1.421875 27.09375 -1.421875 
Q 22.515625 -1.421875 17.65625 -0.515625 
Q 12.796875 0.390625 7.625 2.203125 
L 7.625 11.71875 
Q 11.71875 9.328125 16.59375 8.109375 
Q 21.484375 6.890625 26.8125 6.890625 
Q 36.078125 6.890625 40.9375 10.546875 
Q 45.796875 14.203125 45.796875 21.1875 
Q 45.796875 27.640625 41.28125 31.265625 
Q 36.765625 34.90625 28.71875 34.90625 
L 20.21875 34.90625 
L 20.21875 43.015625 
L 29.109375 43.015625 
Q 36.375 43.015625 40.234375 45.921875 
Q 44.09375 48.828125 44.09375 54.296875 
Q 44.09375 59.90625 40.109375 62.90625 
Q 36.140625 65.921875 28.71875 65.921875 
Q 24.65625 65.921875 20.015625 65.03125 
Q 15.375 64.15625 9.8125 62.3125 
L 9.8125 71.09375 
Q 15.4375 72.65625 20.34375 73.4375 
Q 25.25 74.21875 29.59375 74.21875 
Q 40.828125 74.21875 47.359375 69.109375 
Q 53.90625 64.015625 53.90625 55.328125 
Q 53.90625 49.265625 50.4375 45.09375 
Q 46.96875 40.921875 40.578125 39.3125 
z
" id="DejaVuSans-51"/>
      </defs>
      <g transform="translate(54.91625 173.187)scale(0.12 -0.12)">
       <use xlink:href="#DejaVuSans-50"/>
       <use x="63.623047" xlink:href="#DejaVuSans-46"/>
       <use x="95.410156" xlink:href="#DejaVuSans-51"/>
      </g>
     </g>
    </g>
    <g id="ytick_3">
     <g id="line2d_8">
      <g>
       <use style="stroke:#000000;stroke-width:0.8;" x="81" xlink:href="#m640e79e59b" y="146.673667"/>
      </g>
     </g>
     <g id="text_9">
      <!-- 2.4 -->
      <defs>
       <path d="M 37.796875 64.3125 
L 12.890625 25.390625 
L 37.796875 25.390625 
z
M 35.203125 72.90625 
L 47.609375 72.90625 
L 47.609375 25.390625 
L 58.015625 25.390625 
L 58.015625 17.1875 
L 47.609375 17.1875 
L 47.609375 0 
L 37.796875 0 
L 37.796875 17.1875 
L 4.890625 17.1875 
L 4.890625 26.703125 
z
" id="DejaVuSans-52"/>
      </defs>
      <g transform="translate(54.91625 151.23273)scale(0.12 -0.12)">
       <use xlink:href="#DejaVuSans-50"/>
       <use x="63.623047" xlink:href="#DejaVuSans-46"/>
       <use x="95.410156" xlink:href="#DejaVuSans-52"/>
      </g>
     </g>
    </g>
    <g id="ytick_4">
     <g id="line2d_9">
      <g>
       <use style="stroke:#000000;stroke-width:0.8;" x="81" xlink:href="#m640e79e59b" y="124.719396"/>
      </g>
     </g>
     <g id="text_10">
      <!-- 2.5 -->
      <g transform="translate(54.91625 129.278459)scale(0.12 -0.12)">
       <use xlink:href="#DejaVuSans-50"/>
       <use x="63.623047" xlink:href="#DejaVuSans-46"/>
       <use x="95.410156" xlink:href="#DejaVuSans-53"/>
      </g>
     </g>
    </g>
    <g id="ytick_5">
     <g id="line2d_10">
      <g>
       <use style="stroke:#000000;stroke-width:0.8;" x="81" xlink:href="#m640e79e59b" y="102.765125"/>
      </g>
     </g>
     <g id="text_11">
      <!-- 2.6 -->
      <defs>
       <path d="M 33.015625 40.375 
Q 26.375 40.375 22.484375 35.828125 
Q 18.609375 31.296875 18.609375 23.390625 
Q 18.609375 15.53125 22.484375 10.953125 
Q 26.375 6.390625 33.015625 6.390625 
Q 39.65625 6.390625 43.53125 10.953125 
Q 47.40625 15.53125 47.40625 23.390625 
Q 47.40625 31.296875 43.53125 35.828125 
Q 39.65625 40.375 33.015625 40.375 
z
M 52.59375 71.296875 
L 52.59375 62.3125 
Q 48.875 64.0625 45.09375 64.984375 
Q 41.3125 65.921875 37.59375 65.921875 
Q 27.828125 65.921875 22.671875 59.328125 
Q 17.53125 52.734375 16.796875 39.40625 
Q 19.671875 43.65625 24.015625 45.921875 
Q 28.375 48.1875 33.59375 48.1875 
Q 44.578125 48.1875 50.953125 41.515625 
Q 57.328125 34.859375 57.328125 23.390625 
Q 57.328125 12.15625 50.6875 5.359375 
Q 44.046875 -1.421875 33.015625 -1.421875 
Q 20.359375 -1.421875 13.671875 8.265625 
Q 6.984375 17.96875 6.984375 36.375 
Q 6.984375 53.65625 15.1875 63.9375 
Q 23.390625 74.21875 37.203125 74.21875 
Q 40.921875 74.21875 44.703125 73.484375 
Q 48.484375 72.75 52.59375 71.296875 
z
" id="DejaVuSans-54"/>
      </defs>
      <g transform="translate(54.91625 107.324188)scale(0.12 -0.12)">
       <use xlink:href="#DejaVuSans-50"/>
       <use x="63.623047" xlink:href="#DejaVuSans-46"/>
       <use x="95.410156" xlink:href="#DejaVuSans-54"/>
      </g>
     </g>
    </g>
    <g id="ytick_6">
     <g id="line2d_11">
      <g>
       <use style="stroke:#000000;stroke-width:0.8;" x="81" xlink:href="#m640e79e59b" y="80.810855"/>
      </g>
     </g>
     <g id="text_12">
      <!-- 2.7 -->
      <defs>
       <path d="M 8.203125 72.90625 
L 55.078125 72.90625 
L 55.078125 68.703125 
L 28.609375 0 
L 18.3125 0 
L 43.21875 64.59375 
L 8.203125 64.59375 
z
" id="DejaVuSans-55"/>
      </defs>
      <g transform="translate(54.91625 85.369917)scale(0.12 -0.12)">
       <use xlink:href="#DejaVuSans-50"/>
       <use x="63.623047" xlink:href="#DejaVuSans-46"/>
       <use x="95.410156" xlink:href="#DejaVuSans-55"/>
      </g>
     </g>
    </g>
    <g id="ytick_7">
     <g id="line2d_12">
      <g>
       <use style="stroke:#000000;stroke-width:0.8;" x="81" xlink:href="#m640e79e59b" y="58.856584"/>
      </g>
     </g>
     <g id="text_13">
      <!-- 2.8 -->
      <defs>
       <path d="M 31.78125 34.625 
Q 24.75 34.625 20.71875 30.859375 
Q 16.703125 27.09375 16.703125 20.515625 
Q 16.703125 13.921875 20.71875 10.15625 
Q 24.75 6.390625 31.78125 6.390625 
Q 38.8125 6.390625 42.859375 10.171875 
Q 46.921875 13.96875 46.921875 20.515625 
Q 46.921875 27.09375 42.890625 30.859375 
Q 38.875 34.625 31.78125 34.625 
z
M 21.921875 38.8125 
Q 15.578125 40.375 12.03125 44.71875 
Q 8.5 49.078125 8.5 55.328125 
Q 8.5 64.0625 14.71875 69.140625 
Q 20.953125 74.21875 31.78125 74.21875 
Q 42.671875 74.21875 48.875 69.140625 
Q 55.078125 64.0625 55.078125 55.328125 
Q 55.078125 49.078125 51.53125 44.71875 
Q 48 40.375 41.703125 38.8125 
Q 48.828125 37.15625 52.796875 32.3125 
Q 56.78125 27.484375 56.78125 20.515625 
Q 56.78125 9.90625 50.3125 4.234375 
Q 43.84375 -1.421875 31.78125 -1.421875 
Q 19.734375 -1.421875 13.25 4.234375 
Q 6.78125 9.90625 6.78125 20.515625 
Q 6.78125 27.484375 10.78125 32.3125 
Q 14.796875 37.15625 21.921875 38.8125 
z
M 18.3125 54.390625 
Q 18.3125 48.734375 21.84375 45.5625 
Q 25.390625 42.390625 31.78125 42.390625 
Q 38.140625 42.390625 41.71875 45.5625 
Q 45.3125 48.734375 45.3125 54.390625 
Q 45.3125 60.0625 41.71875 63.234375 
Q 38.140625 66.40625 31.78125 66.40625 
Q 25.390625 66.40625 21.84375 63.234375 
Q 18.3125 60.0625 18.3125 54.390625 
z
" id="DejaVuSans-56"/>
      </defs>
      <g transform="translate(54.91625 63.415646)scale(0.12 -0.12)">
       <use xlink:href="#DejaVuSans-50"/>
       <use x="63.623047" xlink:href="#DejaVuSans-46"/>
       <use x="95.410156" xlink:href="#DejaVuSans-56"/>
      </g>
     </g>
    </g>
    <g id="ytick_8">
     <g id="line2d_13">
      <g>
       <use style="stroke:#000000;stroke-width:0.8;" x="81" xlink:href="#m640e79e59b" y="36.902313"/>
      </g>
     </g>
     <g id="text_14">
      <!-- 2.9 -->
      <defs>
       <path d="M 10.984375 1.515625 
L 10.984375 10.5 
Q 14.703125 8.734375 18.5 7.8125 
Q 22.3125 6.890625 25.984375 6.890625 
Q 35.75 6.890625 40.890625 13.453125 
Q 46.046875 20.015625 46.78125 33.40625 
Q 43.953125 29.203125 39.59375 26.953125 
Q 35.25 24.703125 29.984375 24.703125 
Q 19.046875 24.703125 12.671875 31.3125 
Q 6.296875 37.9375 6.296875 49.421875 
Q 6.296875 60.640625 12.9375 67.421875 
Q 19.578125 74.21875 30.609375 74.21875 
Q 43.265625 74.21875 49.921875 64.515625 
Q 56.59375 54.828125 56.59375 36.375 
Q 56.59375 19.140625 48.40625 8.859375 
Q 40.234375 -1.421875 26.421875 -1.421875 
Q 22.703125 -1.421875 18.890625 -0.6875 
Q 15.09375 0.046875 10.984375 1.515625 
z
M 30.609375 32.421875 
Q 37.25 32.421875 41.125 36.953125 
Q 45.015625 41.5 45.015625 49.421875 
Q 45.015625 57.28125 41.125 61.84375 
Q 37.25 66.40625 30.609375 66.40625 
Q 23.96875 66.40625 20.09375 61.84375 
Q 16.21875 57.28125 16.21875 49.421875 
Q 16.21875 41.5 20.09375 36.953125 
Q 23.96875 32.421875 30.609375 32.421875 
z
" id="DejaVuSans-57"/>
      </defs>
      <g transform="translate(54.91625 41.461375)scale(0.12 -0.12)">
       <use xlink:href="#DejaVuSans-50"/>
       <use x="63.623047" xlink:href="#DejaVuSans-46"/>
       <use x="95.410156" xlink:href="#DejaVuSans-57"/>
      </g>
     </g>
    </g>
    <g id="text_15">
     <!-- Act. Cells Moving Var. -->
     <defs>
      <path d="M 34.1875 63.1875 
L 20.796875 26.90625 
L 47.609375 26.90625 
z
M 28.609375 72.90625 
L 39.796875 72.90625 
L 67.578125 0 
L 57.328125 0 
L 50.6875 18.703125 
L 17.828125 18.703125 
L 11.1875 0 
L 0.78125 0 
z
" id="DejaVuSans-65"/>
      <path d="M 48.78125 52.59375 
L 48.78125 44.1875 
Q 44.96875 46.296875 41.140625 47.34375 
Q 37.3125 48.390625 33.40625 48.390625 
Q 24.65625 48.390625 19.8125 42.84375 
Q 14.984375 37.3125 14.984375 27.296875 
Q 14.984375 17.28125 19.8125 11.734375 
Q 24.65625 6.203125 33.40625 6.203125 
Q 37.3125 6.203125 41.140625 7.25 
Q 44.96875 8.296875 48.78125 10.40625 
L 48.78125 2.09375 
Q 45.015625 0.34375 40.984375 -0.53125 
Q 36.96875 -1.421875 32.421875 -1.421875 
Q 20.0625 -1.421875 12.78125 6.34375 
Q 5.515625 14.109375 5.515625 27.296875 
Q 5.515625 40.671875 12.859375 48.328125 
Q 20.21875 56 33.015625 56 
Q 37.15625 56 41.109375 55.140625 
Q 45.0625 54.296875 48.78125 52.59375 
z
" id="DejaVuSans-99"/>
      <path d="M 18.3125 70.21875 
L 18.3125 54.6875 
L 36.8125 54.6875 
L 36.8125 47.703125 
L 18.3125 47.703125 
L 18.3125 18.015625 
Q 18.3125 11.328125 20.140625 9.421875 
Q 21.96875 7.515625 27.59375 7.515625 
L 36.8125 7.515625 
L 36.8125 0 
L 27.59375 0 
Q 17.1875 0 13.234375 3.875 
Q 9.28125 7.765625 9.28125 18.015625 
L 9.28125 47.703125 
L 2.6875 47.703125 
L 2.6875 54.6875 
L 9.28125 54.6875 
L 9.28125 70.21875 
z
" id="DejaVuSans-116"/>
      <path d="M 64.40625 67.28125 
L 64.40625 56.890625 
Q 59.421875 61.53125 53.78125 63.8125 
Q 48.140625 66.109375 41.796875 66.109375 
Q 29.296875 66.109375 22.65625 58.46875 
Q 16.015625 50.828125 16.015625 36.375 
Q 16.015625 21.96875 22.65625 14.328125 
Q 29.296875 6.6875 41.796875 6.6875 
Q 48.140625 6.6875 53.78125 8.984375 
Q 59.421875 11.28125 64.40625 15.921875 
L 64.40625 5.609375 
Q 59.234375 2.09375 53.4375 0.328125 
Q 47.65625 -1.421875 41.21875 -1.421875 
Q 24.65625 -1.421875 15.125 8.703125 
Q 5.609375 18.84375 5.609375 36.375 
Q 5.609375 53.953125 15.125 64.078125 
Q 24.65625 74.21875 41.21875 74.21875 
Q 47.75 74.21875 53.53125 72.484375 
Q 59.328125 70.75 64.40625 67.28125 
z
" id="DejaVuSans-67"/>
      <path d="M 9.421875 75.984375 
L 18.40625 75.984375 
L 18.40625 0 
L 9.421875 0 
z
" id="DejaVuSans-108"/>
      <path d="M 9.8125 72.90625 
L 24.515625 72.90625 
L 43.109375 23.296875 
L 61.8125 72.90625 
L 76.515625 72.90625 
L 76.515625 0 
L 66.890625 0 
L 66.890625 64.015625 
L 48.09375 14.015625 
L 38.1875 14.015625 
L 19.390625 64.015625 
L 19.390625 0 
L 9.8125 0 
z
" id="DejaVuSans-77"/>
      <path d="M 30.609375 48.390625 
Q 23.390625 48.390625 19.1875 42.75 
Q 14.984375 37.109375 14.984375 27.296875 
Q 14.984375 17.484375 19.15625 11.84375 
Q 23.34375 6.203125 30.609375 6.203125 
Q 37.796875 6.203125 41.984375 11.859375 
Q 46.1875 17.53125 46.1875 27.296875 
Q 46.1875 37.015625 41.984375 42.703125 
Q 37.796875 48.390625 30.609375 48.390625 
z
M 30.609375 56 
Q 42.328125 56 49.015625 48.375 
Q 55.71875 40.765625 55.71875 27.296875 
Q 55.71875 13.875 49.015625 6.21875 
Q 42.328125 -1.421875 30.609375 -1.421875 
Q 18.84375 -1.421875 12.171875 6.21875 
Q 5.515625 13.875 5.515625 27.296875 
Q 5.515625 40.765625 12.171875 48.375 
Q 18.84375 56 30.609375 56 
z
" id="DejaVuSans-111"/>
      <path d="M 2.984375 54.6875 
L 12.5 54.6875 
L 29.59375 8.796875 
L 46.6875 54.6875 
L 56.203125 54.6875 
L 35.6875 0 
L 23.484375 0 
z
" id="DejaVuSans-118"/>
      <path d="M 54.890625 33.015625 
L 54.890625 0 
L 45.90625 0 
L 45.90625 32.71875 
Q 45.90625 40.484375 42.875 44.328125 
Q 39.84375 48.1875 33.796875 48.1875 
Q 26.515625 48.1875 22.3125 43.546875 
Q 18.109375 38.921875 18.109375 30.90625 
L 18.109375 0 
L 9.078125 0 
L 9.078125 54.6875 
L 18.109375 54.6875 
L 18.109375 46.1875 
Q 21.34375 51.125 25.703125 53.5625 
Q 30.078125 56 35.796875 56 
Q 45.21875 56 50.046875 50.171875 
Q 54.890625 44.34375 54.890625 33.015625 
z
" id="DejaVuSans-110"/>
      <path d="M 45.40625 27.984375 
Q 45.40625 37.75 41.375 43.109375 
Q 37.359375 48.484375 30.078125 48.484375 
Q 22.859375 48.484375 18.828125 43.109375 
Q 14.796875 37.75 14.796875 27.984375 
Q 14.796875 18.265625 18.828125 12.890625 
Q 22.859375 7.515625 30.078125 7.515625 
Q 37.359375 7.515625 41.375 12.890625 
Q 45.40625 18.265625 45.40625 27.984375 
z
M 54.390625 6.78125 
Q 54.390625 -7.171875 48.1875 -13.984375 
Q 42 -20.796875 29.203125 -20.796875 
Q 24.46875 -20.796875 20.265625 -20.09375 
Q 16.0625 -19.390625 12.109375 -17.921875 
L 12.109375 -9.1875 
Q 16.0625 -11.328125 19.921875 -12.34375 
Q 23.78125 -13.375 27.78125 -13.375 
Q 36.625 -13.375 41.015625 -8.765625 
Q 45.40625 -4.15625 45.40625 5.171875 
L 45.40625 9.625 
Q 42.625 4.78125 38.28125 2.390625 
Q 33.9375 0 27.875 0 
Q 17.828125 0 11.671875 7.65625 
Q 5.515625 15.328125 5.515625 27.984375 
Q 5.515625 40.671875 11.671875 48.328125 
Q 17.828125 56 27.875 56 
Q 33.9375 56 38.28125 53.609375 
Q 42.625 51.21875 45.40625 46.390625 
L 45.40625 54.6875 
L 54.390625 54.6875 
z
" id="DejaVuSans-103"/>
      <path d="M 28.609375 0 
L 0.78125 72.90625 
L 11.078125 72.90625 
L 34.1875 11.53125 
L 57.328125 72.90625 
L 67.578125 72.90625 
L 39.796875 0 
z
" id="DejaVuSans-86"/>
      <path d="M 34.28125 27.484375 
Q 23.390625 27.484375 19.1875 25 
Q 14.984375 22.515625 14.984375 16.5 
Q 14.984375 11.71875 18.140625 8.90625 
Q 21.296875 6.109375 26.703125 6.109375 
Q 34.1875 6.109375 38.703125 11.40625 
Q 43.21875 16.703125 43.21875 25.484375 
L 43.21875 27.484375 
z
M 52.203125 31.203125 
L 52.203125 0 
L 43.21875 0 
L 43.21875 8.296875 
Q 40.140625 3.328125 35.546875 0.953125 
Q 30.953125 -1.421875 24.3125 -1.421875 
Q 15.921875 -1.421875 10.953125 3.296875 
Q 6 8.015625 6 15.921875 
Q 6 25.140625 12.171875 29.828125 
Q 18.359375 34.515625 30.609375 34.515625 
L 43.21875 34.515625 
L 43.21875 35.40625 
Q 43.21875 41.609375 39.140625 45 
Q 35.0625 48.390625 27.6875 48.390625 
Q 23 48.390625 18.546875 47.265625 
Q 14.109375 46.140625 10.015625 43.890625 
L 10.015625 52.203125 
Q 14.9375 54.109375 19.578125 55.046875 
Q 24.21875 56 28.609375 56 
Q 40.484375 56 46.34375 49.84375 
Q 52.203125 43.703125 52.203125 31.203125 
z
" id="DejaVuSans-97"/>
      <path d="M 41.109375 46.296875 
Q 39.59375 47.171875 37.8125 47.578125 
Q 36.03125 48 33.890625 48 
Q 26.265625 48 22.1875 43.046875 
Q 18.109375 38.09375 18.109375 28.8125 
L 18.109375 0 
L 9.078125 0 
L 9.078125 54.6875 
L 18.109375 54.6875 
L 18.109375 46.1875 
Q 20.953125 51.171875 25.484375 53.578125 
Q 30.03125 56 36.53125 56 
Q 37.453125 56 38.578125 55.875 
Q 39.703125 55.765625 41.0625 55.515625 
z
" id="DejaVuSans-114"/>
     </defs>
     <g transform="translate(47.9215 187.72875)rotate(-90)scale(0.144 -0.144)">
      <use xlink:href="#DejaVuSans-65"/>
      <use x="68.392578" xlink:href="#DejaVuSans-99"/>
      <use x="123.373047" xlink:href="#DejaVuSans-116"/>
      <use x="162.582031" xlink:href="#DejaVuSans-46"/>
      <use x="194.369141" xlink:href="#DejaVuSans-32"/>
      <use x="226.15625" xlink:href="#DejaVuSans-67"/>
      <use x="295.980469" xlink:href="#DejaVuSans-101"/>
      <use x="357.503906" xlink:href="#DejaVuSans-108"/>
      <use x="385.287109" xlink:href="#DejaVuSans-108"/>
      <use x="413.070312" xlink:href="#DejaVuSans-115"/>
      <use x="465.169922" xlink:href="#DejaVuSans-32"/>
      <use x="496.957031" xlink:href="#DejaVuSans-77"/>
      <use x="583.236328" xlink:href="#DejaVuSans-111"/>
      <use x="644.417969" xlink:href="#DejaVuSans-118"/>
      <use x="703.597656" xlink:href="#DejaVuSans-105"/>
      <use x="731.380859" xlink:href="#DejaVuSans-110"/>
      <use x="794.759766" xlink:href="#DejaVuSans-103"/>
      <use x="858.236328" xlink:href="#DejaVuSans-32"/>
      <use x="890.023438" xlink:href="#DejaVuSans-86"/>
      <use x="958.322266" xlink:href="#DejaVuSans-97"/>
      <use x="1019.601562" xlink:href="#DejaVuSans-114"/>
      <use x="1060.574219" xlink:href="#DejaVuSans-46"/>
     </g>
    </g>
   </g>
   <g id="line2d_14">
    <path clip-path="url(#pd155f72fa3)" d="M 81 157.61842 
L 82.702373 157.837963 
L 84.404746 155.64871 
L 86.107119 156.053904 
L 87.809492 157.216931 
L 89.511864 155.365226 
L 92.91661 165.046922 
L 94.618983 166.698981 
L 96.321356 170.943565 
L 98.023729 174.31231 
L 99.726102 171.144583 
L 101.428475 177.339941 
L 103.130847 175.811513 
L 104.83322 178.226345 
L 106.535593 177.531767 
L 108.237966 174.03994 
L 109.940339 175.222452 
L 111.642712 174.437038 
L 113.345085 170.830363 
L 115.047458 169.810724 
L 116.749831 165.247804 
L 118.452203 158.931971 
L 120.154576 155.999155 
L 121.856949 157.703218 
L 123.559322 159.222317 
L 125.261695 158.656445 
L 126.964068 158.969294 
L 128.666441 160.455186 
L 130.368814 163.460726 
L 132.071186 161.706168 
L 133.773559 168.863672 
L 135.475932 165.297338 
L 137.178305 171.239261 
L 138.880678 171.476916 
L 140.583051 172.979137 
L 142.285424 166.917975 
L 143.987797 164.994094 
L 145.690169 166.448153 
L 147.392542 165.351537 
L 149.094915 167.876827 
L 150.797288 161.852164 
L 152.499661 167.369958 
L 154.202034 162.139079 
L 155.904407 146.256673 
L 157.60678 112.579371 
L 159.309153 112.438589 
L 161.011525 102.304086 
L 162.713898 100.261515 
L 166.118644 94.968752 
L 167.821017 95.663879 
L 169.52339 90.297295 
L 171.225763 94.62654 
L 172.928136 103.83128 
L 174.630508 135.380939 
L 176.332881 140.887619 
L 178.035254 153.405258 
L 179.737627 160.556313 
L 181.44 163.176144 
L 183.142373 161.11601 
L 184.844746 161.055087 
L 186.547119 163.960734 
L 188.249492 153.895524 
L 189.951864 152.838152 
L 191.654237 146.501326 
L 193.35661 148.895988 
L 195.058983 145.815392 
L 196.761356 138.951252 
L 198.463729 135.471226 
L 200.166102 129.603124 
L 201.868475 115.751077 
L 203.570847 109.78665 
L 205.27322 108.548292 
L 206.975593 101.53994 
L 208.677966 107.131693 
L 210.380339 106.868241 
L 212.082712 109.583985 
L 213.785085 111.876148 
L 215.487458 111.716156 
L 217.189831 119.165789 
L 218.892203 121.676809 
L 220.594576 123.88088 
L 222.296949 125.46543 
L 223.999322 129.07087 
L 225.701695 128.210949 
L 227.404068 131.098621 
L 229.106441 128.109273 
L 230.808814 130.467436 
L 232.511186 130.038504 
L 234.213559 123.381695 
L 235.915932 126.92827 
L 237.618305 121.845033 
L 239.320678 120.913486 
L 242.725424 119.496201 
L 244.427797 116.390083 
L 246.130169 120.414164 
L 247.832542 118.101967 
L 249.534915 120.01638 
L 251.237288 123.553487 
L 252.939661 124.317084 
L 254.642034 131.475823 
L 256.344407 136.112153 
L 258.04678 139.335452 
L 259.749153 135.24249 
L 261.451525 130.800592 
L 263.153898 124.271118 
L 264.856271 119.83018 
L 266.558644 113.827196 
L 268.261017 109.551191 
L 271.665763 102.387649 
L 273.368136 105.288769 
L 275.070508 100.778127 
L 276.772881 102.440477 
L 278.475254 103.374631 
L 281.88 107.974874 
L 283.582373 104.138914 
L 285.284746 105.145654 
L 286.987119 104.161417 
L 288.689492 103.617912 
L 290.391864 93.690328 
L 292.094237 94.750719 
L 293.79661 92.726672 
L 295.498983 94.1596 
L 297.201356 95.395626 
L 298.903729 99.279611 
L 300.606102 100.265494 
L 302.308475 101.781711 
L 304.010847 106.397597 
L 305.71322 109.019074 
L 307.415593 116.246832 
L 309.117966 116.129376 
L 310.820339 116.201414 
L 312.522712 107.270279 
L 314.225085 105.121779 
L 315.927458 104.378078 
L 317.629831 104.11792 
L 319.332203 98.777955 
L 321.034576 97.688612 
L 322.736949 92.692369 
L 324.439322 85.533904 
L 326.141695 88.995956 
L 327.844068 90.440409 
L 329.546441 93.513733 
L 331.248814 94.605272 
L 332.951186 90.274929 
L 334.653559 93.273471 
L 336.355932 96.775589 
L 338.058305 92.251362 
L 339.760678 98.560196 
L 341.463051 97.442724 
L 344.867797 89.989249 
L 346.570169 90.721012 
L 348.272542 86.880799 
L 349.974915 88.197095 
L 351.677288 87.888637 
L 353.379661 91.596713 
L 355.082034 95.767613 
L 356.784407 98.687257 
L 358.48678 97.336246 
L 360.189153 100.12485 
L 361.891525 100.908892 
L 363.593898 98.553885 
L 365.296271 103.037084 
L 366.998644 100.186185 
L 368.701017 94.359658 
L 370.40339 90.338459 
L 372.105763 87.831007 
L 373.808136 83.587247 
L 375.510508 85.764699 
L 377.212881 83.891725 
L 378.915254 82.221142 
L 380.617627 77.634209 
L 382.32 76.150923 
L 384.022373 73.835434 
L 385.724746 68.513993 
L 387.427119 62.646714 
L 389.129492 64.351738 
L 390.831864 59.839175 
L 392.534237 57.486912 
L 394.23661 48.774634 
L 395.938983 47.191319 
L 397.641356 51.726797 
L 399.343729 50.464701 
L 401.046102 42.676698 
L 402.748475 47.771735 
L 404.450847 55.710537 
L 406.15322 57.148953 
L 407.855593 64.7358 
L 409.557966 66.79909 
L 411.260339 79.780788 
L 412.962712 88.429947 
L 414.665085 92.170406 
L 416.367458 101.876664 
L 418.069831 117.464607 
L 419.772203 124.832872 
L 421.474576 133.90671 
L 423.176949 138.599024 
L 424.879322 142.336738 
L 426.581695 145.579109 
L 428.284068 149.307905 
L 429.986441 149.485049 
L 431.688814 150.142305 
L 433.391186 143.679242 
L 435.093559 148.816953 
L 436.795932 148.645847 
L 438.498305 142.537894 
L 440.200678 145.210552 
L 441.903051 144.079358 
L 443.605424 138.464965 
L 445.307797 135.280498 
L 447.010169 130.28055 
L 450.414915 124.178498 
L 452.117288 111.650568 
L 453.819661 108.154899 
L 455.522034 109.608134 
L 457.224407 108.404492 
L 458.92678 111.1909 
L 460.629153 112.630689 
L 462.331525 111.877246 
L 464.033898 112.187487 
L 465.736271 113.725246 
L 467.438644 119.872168 
L 469.141017 124.593022 
L 470.84339 132.216368 
L 474.248136 125.629812 
L 475.950508 126.678678 
L 477.652881 130.327478 
L 479.355254 126.618166 
L 481.057627 125.073409 
L 484.462373 126.232457 
L 486.164746 131.085449 
L 487.867119 132.379104 
L 489.569492 132.930294 
L 491.271864 136.210124 
L 492.974237 137.417884 
L 494.67661 136.171018 
L 496.378983 133.766477 
L 498.081356 136.542457 
L 499.783729 138.234308 
L 501.486102 133.600997 
L 503.188475 134.309159 
L 504.890847 133.766202 
L 506.59322 136.248133 
L 508.295593 133.823832 
L 509.997966 135.819201 
L 511.700339 133.045416 
L 513.402712 138.475119 
L 515.105085 141.654646 
L 516.807458 144.185013 
L 518.509831 150.444725 
L 520.212203 157.198956 
L 521.914576 154.363974 
L 523.616949 153.202867 
L 525.319322 152.202027 
L 527.021695 148.192491 
L 528.724068 145.690802 
L 530.426441 141.794879 
L 532.128814 142.275678 
L 533.831186 140.99396 
L 535.533559 141.733682 
L 537.235932 139.690974 
L 538.938305 143.553691 
L 540.640678 146.837912 
L 542.343051 147.108499 
L 544.045424 149.679481 
L 545.747797 159.029119 
L 547.450169 161.380284 
L 549.152542 164.150776 
L 550.854915 161.621095 
L 552.557288 166.53501 
L 554.259661 166.728756 
L 555.962034 162.836127 
L 557.664407 163.055807 
L 559.36678 169.470021 
L 561.069153 169.182832 
L 562.771525 167.435958 
L 564.473898 166.410694 
L 566.176271 165.174257 
L 567.878644 169.358192 
L 569.581017 170.124533 
L 571.28339 170.383319 
L 574.688136 172.781823 
L 576.390508 167.187601 
L 578.092881 171.350542 
L 579.795254 171.92986 
L 581.497627 171.811719 
L 583.2 166.062856 
L 583.2 166.062856 
" style="fill:none;stroke:#0000ff;stroke-linecap:square;stroke-width:1.5;"/>
   </g>
   <g id="patch_3">
    <path d="M 81 192.24 
L 81 25.92 
" style="fill:none;stroke:#000000;stroke-linecap:square;stroke-linejoin:miter;stroke-width:0.8;"/>
   </g>
   <g id="patch_4">
    <path d="M 583.2 192.24 
L 583.2 25.92 
" style="fill:none;stroke:#000000;stroke-linecap:square;stroke-linejoin:miter;stroke-width:0.8;"/>
   </g>
   <g id="patch_5">
    <path d="M 81 192.24 
L 583.2 192.24 
" style="fill:none;stroke:#000000;stroke-linecap:square;stroke-linejoin:miter;stroke-width:0.8;"/>
   </g>
   <g id="patch_6">
    <path d="M 81 25.92 
L 583.2 25.92 
" style="fill:none;stroke:#000000;stroke-linecap:square;stroke-linejoin:miter;stroke-width:0.8;"/>
   </g>
   <g id="text_16">
    <!-- Thalamus, Num Trials=160 All stimulated trials -->
    <defs>
     <path d="M 54.890625 33.015625 
L 54.890625 0 
L 45.90625 0 
L 45.90625 32.71875 
Q 45.90625 40.484375 42.875 44.328125 
Q 39.84375 48.1875 33.796875 48.1875 
Q 26.515625 48.1875 22.3125 43.546875 
Q 18.109375 38.921875 18.109375 30.90625 
L 18.109375 0 
L 9.078125 0 
L 9.078125 75.984375 
L 18.109375 75.984375 
L 18.109375 46.1875 
Q 21.34375 51.125 25.703125 53.5625 
Q 30.078125 56 35.796875 56 
Q 45.21875 56 50.046875 50.171875 
Q 54.890625 44.34375 54.890625 33.015625 
z
" id="DejaVuSans-104"/>
     <path d="M 8.5 21.578125 
L 8.5 54.6875 
L 17.484375 54.6875 
L 17.484375 21.921875 
Q 17.484375 14.15625 20.5 10.265625 
Q 23.53125 6.390625 29.59375 6.390625 
Q 36.859375 6.390625 41.078125 11.03125 
Q 45.3125 15.671875 45.3125 23.6875 
L 45.3125 54.6875 
L 54.296875 54.6875 
L 54.296875 0 
L 45.3125 0 
L 45.3125 8.40625 
Q 42.046875 3.421875 37.71875 1 
Q 33.40625 -1.421875 27.6875 -1.421875 
Q 18.265625 -1.421875 13.375 4.4375 
Q 8.5 10.296875 8.5 21.578125 
z
M 31.109375 56 
z
" id="DejaVuSans-117"/>
     <path d="M 11.71875 12.40625 
L 22.015625 12.40625 
L 22.015625 4 
L 14.015625 -11.625 
L 7.71875 -11.625 
L 11.71875 4 
z
" id="DejaVuSans-44"/>
     <path d="M 9.8125 72.90625 
L 23.09375 72.90625 
L 55.421875 11.921875 
L 55.421875 72.90625 
L 64.984375 72.90625 
L 64.984375 0 
L 51.703125 0 
L 19.390625 60.984375 
L 19.390625 0 
L 9.8125 0 
z
" id="DejaVuSans-78"/>
     <path d="M 10.59375 45.40625 
L 73.1875 45.40625 
L 73.1875 37.203125 
L 10.59375 37.203125 
z
M 10.59375 25.484375 
L 73.1875 25.484375 
L 73.1875 17.1875 
L 10.59375 17.1875 
z
" id="DejaVuSans-61"/>
     <path d="M 45.40625 46.390625 
L 45.40625 75.984375 
L 54.390625 75.984375 
L 54.390625 0 
L 45.40625 0 
L 45.40625 8.203125 
Q 42.578125 3.328125 38.25 0.953125 
Q 33.9375 -1.421875 27.875 -1.421875 
Q 17.96875 -1.421875 11.734375 6.484375 
Q 5.515625 14.40625 5.515625 27.296875 
Q 5.515625 40.1875 11.734375 48.09375 
Q 17.96875 56 27.875 56 
Q 33.9375 56 38.25 53.625 
Q 42.578125 51.265625 45.40625 46.390625 
z
M 14.796875 27.296875 
Q 14.796875 17.390625 18.875 11.75 
Q 22.953125 6.109375 30.078125 6.109375 
Q 37.203125 6.109375 41.296875 11.75 
Q 45.40625 17.390625 45.40625 27.296875 
Q 45.40625 37.203125 41.296875 42.84375 
Q 37.203125 48.484375 30.078125 48.484375 
Q 22.953125 48.484375 18.875 42.84375 
Q 14.796875 37.203125 14.796875 27.296875 
z
" id="DejaVuSans-100"/>
    </defs>
    <g transform="translate(190.146563 19.92)scale(0.12 -0.12)">
     <use xlink:href="#DejaVuSans-84"/>
     <use x="61.083984" xlink:href="#DejaVuSans-104"/>
     <use x="124.462891" xlink:href="#DejaVuSans-97"/>
     <use x="185.742188" xlink:href="#DejaVuSans-108"/>
     <use x="213.525391" xlink:href="#DejaVuSans-97"/>
     <use x="274.804688" xlink:href="#DejaVuSans-109"/>
     <use x="372.216797" xlink:href="#DejaVuSans-117"/>
     <use x="435.595703" xlink:href="#DejaVuSans-115"/>
     <use x="487.695312" xlink:href="#DejaVuSans-44"/>
     <use x="519.482422" xlink:href="#DejaVuSans-32"/>
     <use x="551.269531" xlink:href="#DejaVuSans-78"/>
     <use x="626.074219" xlink:href="#DejaVuSans-117"/>
     <use x="689.453125" xlink:href="#DejaVuSans-109"/>
     <use x="786.865234" xlink:href="#DejaVuSans-32"/>
     <use x="818.652344" xlink:href="#DejaVuSans-84"/>
     <use x="879.517578" xlink:href="#DejaVuSans-114"/>
     <use x="920.630859" xlink:href="#DejaVuSans-105"/>
     <use x="948.414062" xlink:href="#DejaVuSans-97"/>
     <use x="1009.693359" xlink:href="#DejaVuSans-108"/>
     <use x="1037.476562" xlink:href="#DejaVuSans-115"/>
     <use x="1089.576172" xlink:href="#DejaVuSans-61"/>
     <use x="1173.365234" xlink:href="#DejaVuSans-49"/>
     <use x="1236.988281" xlink:href="#DejaVuSans-54"/>
     <use x="1300.611328" xlink:href="#DejaVuSans-48"/>
     <use x="1364.234375" xlink:href="#DejaVuSans-32"/>
     <use x="1396.021484" xlink:href="#DejaVuSans-65"/>
     <use x="1464.429688" xlink:href="#DejaVuSans-108"/>
     <use x="1492.212891" xlink:href="#DejaVuSans-108"/>
     <use x="1519.996094" xlink:href="#DejaVuSans-32"/>
     <use x="1551.783203" xlink:href="#DejaVuSans-115"/>
     <use x="1603.882812" xlink:href="#DejaVuSans-116"/>
     <use x="1643.091797" xlink:href="#DejaVuSans-105"/>
     <use x="1670.875" xlink:href="#DejaVuSans-109"/>
     <use x="1768.287109" xlink:href="#DejaVuSans-117"/>
     <use x="1831.666016" xlink:href="#DejaVuSans-108"/>
     <use x="1859.449219" xlink:href="#DejaVuSans-97"/>
     <use x="1920.728516" xlink:href="#DejaVuSans-116"/>
     <use x="1959.9375" xlink:href="#DejaVuSans-101"/>
     <use x="2021.460938" xlink:href="#DejaVuSans-100"/>
     <use x="2084.9375" xlink:href="#DejaVuSans-32"/>
     <use x="2116.724609" xlink:href="#DejaVuSans-116"/>
     <use x="2155.933594" xlink:href="#DejaVuSans-114"/>
     <use x="2197.046875" xlink:href="#DejaVuSans-105"/>
     <use x="2224.830078" xlink:href="#DejaVuSans-97"/>
     <use x="2286.109375" xlink:href="#DejaVuSans-108"/>
     <use x="2313.892578" xlink:href="#DejaVuSans-115"/>
    </g>
   </g>
   <g id="legend_1">
    <g id="patch_7">
     <path d="M 464.95125 70.7475 
L 574.8 70.7475 
Q 577.2 70.7475 577.2 68.3475 
L 577.2 34.32 
Q 577.2 31.92 574.8 31.92 
L 464.95125 31.92 
Q 462.55125 31.92 462.55125 34.32 
L 462.55125 68.3475 
Q 462.55125 70.7475 464.95125 70.7475 
z
" style="fill:#ffffff;opacity:0.8;stroke:#cccccc;stroke-linejoin:miter;"/>
    </g>
    <g id="line2d_15">
     <path d="M 467.35125 41.638125 
L 491.35125 41.638125 
" style="fill:none;stroke:#0000ff;stroke-linecap:square;stroke-width:1.5;"/>
    </g>
    <g id="line2d_16"/>
    <g id="text_17">
     <!-- Moving Var. -->
     <g transform="translate(500.95125 45.838125)scale(0.12 -0.12)">
      <use xlink:href="#DejaVuSans-77"/>
      <use x="86.279297" xlink:href="#DejaVuSans-111"/>
      <use x="147.460938" xlink:href="#DejaVuSans-118"/>
      <use x="206.640625" xlink:href="#DejaVuSans-105"/>
      <use x="234.423828" xlink:href="#DejaVuSans-110"/>
      <use x="297.802734" xlink:href="#DejaVuSans-103"/>
      <use x="361.279297" xlink:href="#DejaVuSans-32"/>
      <use x="393.066406" xlink:href="#DejaVuSans-86"/>
      <use x="461.365234" xlink:href="#DejaVuSans-97"/>
      <use x="522.644531" xlink:href="#DejaVuSans-114"/>
      <use x="563.617188" xlink:href="#DejaVuSans-46"/>
     </g>
    </g>
    <g id="patch_8">
     <path d="M 467.35125 63.451875 
L 491.35125 63.451875 
L 491.35125 55.051875 
L 467.35125 55.051875 
z
" style="fill:#0000ff;opacity:0.3;stroke:#0000ff;stroke-linejoin:miter;"/>
    </g>
    <g id="text_18">
     <!-- Std. Err. -->
     <defs>
      <path d="M 53.515625 70.515625 
L 53.515625 60.890625 
Q 47.90625 63.578125 42.921875 64.890625 
Q 37.9375 66.21875 33.296875 66.21875 
Q 25.25 66.21875 20.875 63.09375 
Q 16.5 59.96875 16.5 54.203125 
Q 16.5 49.359375 19.40625 46.890625 
Q 22.3125 44.4375 30.421875 42.921875 
L 36.375 41.703125 
Q 47.40625 39.59375 52.65625 34.296875 
Q 57.90625 29 57.90625 20.125 
Q 57.90625 9.515625 50.796875 4.046875 
Q 43.703125 -1.421875 29.984375 -1.421875 
Q 24.8125 -1.421875 18.96875 -0.25 
Q 13.140625 0.921875 6.890625 3.21875 
L 6.890625 13.375 
Q 12.890625 10.015625 18.65625 8.296875 
Q 24.421875 6.59375 29.984375 6.59375 
Q 38.421875 6.59375 43.015625 9.90625 
Q 47.609375 13.234375 47.609375 19.390625 
Q 47.609375 24.75 44.3125 27.78125 
Q 41.015625 30.8125 33.5 32.328125 
L 27.484375 33.5 
Q 16.453125 35.6875 11.515625 40.375 
Q 6.59375 45.0625 6.59375 53.421875 
Q 6.59375 63.09375 13.40625 68.65625 
Q 20.21875 74.21875 32.171875 74.21875 
Q 37.3125 74.21875 42.625 73.28125 
Q 47.953125 72.359375 53.515625 70.515625 
z
" id="DejaVuSans-83"/>
      <path d="M 9.8125 72.90625 
L 55.90625 72.90625 
L 55.90625 64.59375 
L 19.671875 64.59375 
L 19.671875 43.015625 
L 54.390625 43.015625 
L 54.390625 34.71875 
L 19.671875 34.71875 
L 19.671875 8.296875 
L 56.78125 8.296875 
L 56.78125 0 
L 9.8125 0 
z
" id="DejaVuSans-69"/>
     </defs>
     <g transform="translate(500.95125 63.451875)scale(0.12 -0.12)">
      <use xlink:href="#DejaVuSans-83"/>
      <use x="63.476562" xlink:href="#DejaVuSans-116"/>
      <use x="102.685547" xlink:href="#DejaVuSans-100"/>
      <use x="166.162109" xlink:href="#DejaVuSans-46"/>
      <use x="197.949219" xlink:href="#DejaVuSans-32"/>
      <use x="229.736328" xlink:href="#DejaVuSans-69"/>
      <use x="292.919922" xlink:href="#DejaVuSans-114"/>
      <use x="334.017578" xlink:href="#DejaVuSans-114"/>
      <use x="374.990234" xlink:href="#DejaVuSans-46"/>
     </g>
    </g>
   </g>
  </g>
 </g>
 <defs>
  <clipPath id="pd155f72fa3">
   <rect height="166.32" width="502.2" x="81" y="25.92"/>
  </clipPath>
 </defs>
</svg>
