<?xml version="1.0" encoding="utf-8" standalone="no"?>
<!DOCTYPE svg PUBLIC "-//W3C//DTD SVG 1.1//EN"
  "http://www.w3.org/Graphics/SVG/1.1/DTD/svg11.dtd">
<!-- Created with matplotlib (https://matplotlib.org/) -->
<svg height="223.2pt" version="1.1" viewBox="0 0 576 223.2" width="576pt" xmlns="http://www.w3.org/2000/svg" xmlns:xlink="http://www.w3.org/1999/xlink">
 <defs>
  <style type="text/css">
*{stroke-linecap:butt;stroke-linejoin:round;}
  </style>
 </defs>
 <g id="figure_1">
  <g id="patch_1">
   <path d="M 0 223.2 
L 576 223.2 
L 576 0 
L 0 0 
z
" style="fill:#ffffff;"/>
  </g>
  <g id="axes_1">
   <g id="patch_2">
    <path d="M 62.12 174.76 
L 565.2 174.76 
L 565.2 26.88 
L 62.12 26.88 
z
" style="fill:#ffffff;"/>
   </g>
   <g id="PolyCollection_1">
    <defs>
     <path d="M 143.891817 -48.44 
L 143.891817 -196.32 
L 399.695207 -196.32 
L 399.695207 -48.44 
L 399.695207 -48.44 
L 143.891817 -48.44 
z
" id="mb55e91d30e" style="stroke:#808080;stroke-opacity:0.3;"/>
    </defs>
    <g clip-path="url(#p4ba9606875)">
     <use style="fill:#808080;fill-opacity:0.3;stroke:#808080;stroke-opacity:0.3;" x="0" xlink:href="#mb55e91d30e" y="223.2"/>
    </g>
   </g>
   <g id="PolyCollection_2">
    <defs>
     <path d="M 62.12 -170.820657 
L 62.12 -142.824353 
L 63.825356 -136.890859 
L 65.530712 -133.266898 
L 67.236068 -147.44274 
L 68.941424 -145.581995 
L 70.64678 -151.558344 
L 72.352136 -139.334139 
L 74.057492 -131.882625 
L 75.762847 -128.178175 
L 77.468203 -119.4635 
L 79.173559 -118.62237 
L 80.878915 -115.445411 
L 82.584271 -105.849872 
L 84.289627 -110.784485 
L 85.994983 -107.98752 
L 87.700339 -110.290629 
L 89.405695 -117.361378 
L 91.111051 -126.631117 
L 92.816407 -123.686089 
L 94.521763 -123.848181 
L 96.227119 -121.191677 
L 97.932475 -121.584543 
L 99.637831 -128.813593 
L 101.343186 -126.2766 
L 103.048542 -127.689306 
L 104.753898 -126.855093 
L 106.459254 -124.402059 
L 108.16461 -123.802903 
L 109.869966 -127.871699 
L 111.575322 -130.239084 
L 113.280678 -124.120739 
L 114.986034 -129.170197 
L 116.69139 -116.113007 
L 118.396746 -116.209374 
L 120.102102 -126.904996 
L 121.807458 -124.503251 
L 123.512814 -129.40764 
L 125.218169 -130.254776 
L 126.923525 -120.12429 
L 128.628881 -111.672365 
L 130.334237 -120.761194 
L 132.039593 -121.540188 
L 133.744949 -128.22828 
L 135.450305 -129.968486 
L 137.155661 -124.382177 
L 138.861017 -130.503257 
L 140.566373 -119.062326 
L 142.271729 -119.69289 
L 143.977085 -129.520559 
L 145.682441 -132.711593 
L 147.387797 -138.668673 
L 149.093153 -133.981496 
L 150.798508 -133.826072 
L 152.503864 -146.686665 
L 154.20922 -146.990978 
L 155.914576 -136.357871 
L 157.619932 -141.71114 
L 159.325288 -138.026278 
L 161.030644 -144.195608 
L 162.736 -143.05951 
L 164.441356 -144.705933 
L 166.146712 -143.96786 
L 167.852068 -157.613659 
L 169.557424 -149.805871 
L 171.26278 -141.285068 
L 172.968136 -140.78189 
L 174.673492 -134.694795 
L 176.378847 -150.120495 
L 178.084203 -136.240215 
L 179.789559 -137.97083 
L 181.494915 -138.739899 
L 183.200271 -150.026936 
L 184.905627 -130.370243 
L 186.610983 -143.438074 
L 188.316339 -152.414484 
L 190.021695 -154.111595 
L 191.727051 -154.602183 
L 193.432407 -154.450822 
L 195.137763 -151.229509 
L 196.843119 -140.957436 
L 198.548475 -138.498847 
L 200.253831 -146.701661 
L 201.959186 -140.161989 
L 203.664542 -130.682589 
L 205.369898 -123.115803 
L 207.075254 -125.434784 
L 208.78061 -130.172923 
L 210.485966 -119.275263 
L 212.191322 -127.367518 
L 213.896678 -116.205108 
L 215.602034 -120.675781 
L 217.30739 -108.894919 
L 219.012746 -109.894185 
L 220.718102 -107.296202 
L 222.423458 -108.196289 
L 224.128814 -110.211959 
L 225.834169 -103.790902 
L 227.539525 -109.075787 
L 229.244881 -110.545346 
L 230.950237 -112.006027 
L 232.655593 -112.816621 
L 234.360949 -122.791193 
L 236.066305 -112.743287 
L 237.771661 -113.733753 
L 239.477017 -114.452671 
L 241.182373 -106.234859 
L 242.887729 -99.376668 
L 244.593085 -108.013127 
L 246.298441 -104.801443 
L 248.003797 -110.365704 
L 249.709153 -103.880457 
L 251.414508 -107.576933 
L 253.119864 -110.786128 
L 254.82522 -113.950169 
L 256.530576 -110.324952 
L 258.235932 -113.914219 
L 259.941288 -130.009891 
L 261.646644 -119.737994 
L 263.352 -120.318217 
L 265.057356 -122.566629 
L 266.762712 -124.133151 
L 268.468068 -126.953288 
L 270.173424 -126.425633 
L 271.87878 -127.511496 
L 273.584136 -123.455423 
L 275.289492 -122.542239 
L 276.994847 -118.899901 
L 278.700203 -116.982041 
L 280.405559 -127.525328 
L 282.110915 -121.496484 
L 283.816271 -121.418786 
L 285.521627 -121.380838 
L 287.226983 -131.42051 
L 288.932339 -126.946416 
L 290.637695 -136.803878 
L 292.343051 -135.846488 
L 294.048407 -127.190876 
L 295.753763 -127.944694 
L 297.459119 -127.883517 
L 299.164475 -128.239093 
L 300.869831 -140.016486 
L 302.575186 -140.873763 
L 304.280542 -137.016949 
L 305.985898 -151.189875 
L 307.691254 -149.342338 
L 309.39661 -133.240864 
L 311.101966 -135.963816 
L 312.807322 -128.735608 
L 314.512678 -128.823524 
L 316.218034 -129.851388 
L 317.92339 -126.842973 
L 319.628746 -128.638391 
L 321.334102 -131.769552 
L 323.039458 -129.870883 
L 324.744814 -132.21918 
L 326.450169 -129.764123 
L 328.155525 -140.318206 
L 329.860881 -138.51397 
L 331.566237 -134.554215 
L 333.271593 -123.073451 
L 334.976949 -115.348058 
L 336.682305 -110.348764 
L 338.387661 -115.475522 
L 340.093017 -118.481342 
L 341.798373 -114.235682 
L 343.503729 -124.860235 
L 345.209085 -131.042227 
L 346.914441 -147.641796 
L 348.619797 -148.144465 
L 350.325153 -145.581699 
L 352.030508 -139.818134 
L 353.735864 -137.25881 
L 355.44122 -144.324815 
L 357.146576 -124.025667 
L 358.851932 -117.767163 
L 360.557288 -115.649601 
L 362.262644 -115.594894 
L 363.968 -121.486563 
L 365.673356 -126.855718 
L 367.378712 -115.08624 
L 369.084068 -129.126357 
L 370.789424 -121.539278 
L 372.49478 -116.475984 
L 374.200136 -120.960339 
L 375.905492 -134.983693 
L 377.610847 -136.053893 
L 379.316203 -134.633733 
L 381.021559 -118.135546 
L 382.726915 -109.78671 
L 384.432271 -112.221683 
L 386.137627 -116.352025 
L 387.842983 -131.423804 
L 389.548339 -131.643383 
L 391.253695 -113.493962 
L 392.959051 -105.04265 
L 394.664407 -98.401975 
L 396.369763 -97.335194 
L 398.075119 -102.871741 
L 399.780475 -101.269064 
L 401.485831 -109.275617 
L 403.191186 -105.422453 
L 404.896542 -107.199446 
L 406.601898 -121.404771 
L 408.307254 -120.44765 
L 410.01261 -127.536737 
L 411.717966 -135.743106 
L 413.423322 -149.124081 
L 415.128678 -152.5275 
L 416.834034 -148.561892 
L 418.53939 -133.400536 
L 420.244746 -140.696692 
L 421.950102 -149.359927 
L 423.655458 -142.536628 
L 425.360814 -148.497125 
L 427.066169 -147.207729 
L 428.771525 -136.908928 
L 430.476881 -122.326536 
L 432.182237 -116.656641 
L 433.887593 -120.420128 
L 435.592949 -115.800966 
L 437.298305 -114.376605 
L 439.003661 -114.354676 
L 440.709017 -107.407558 
L 442.414373 -113.925169 
L 444.119729 -118.28337 
L 445.825085 -130.321728 
L 447.530441 -127.317328 
L 449.235797 -126.536832 
L 450.941153 -120.043022 
L 452.646508 -125.276388 
L 454.351864 -130.921312 
L 456.05722 -124.545148 
L 457.762576 -133.096521 
L 459.467932 -141.723571 
L 461.173288 -138.706004 
L 462.878644 -133.366845 
L 464.584 -127.767015 
L 466.289356 -115.67967 
L 467.994712 -111.071464 
L 469.700068 -109.945206 
L 471.405424 -109.702979 
L 473.11078 -105.383396 
L 474.816136 -96.329257 
L 476.521492 -84.916014 
L 478.226847 -86.38923 
L 479.932203 -89.995771 
L 481.637559 -98.866108 
L 483.342915 -103.847779 
L 485.048271 -110.80588 
L 486.753627 -119.780165 
L 488.458983 -137.086982 
L 490.164339 -128.676465 
L 491.869695 -120.245593 
L 493.575051 -125.564966 
L 495.280407 -124.487405 
L 496.985763 -115.094778 
L 498.691119 -124.897779 
L 500.396475 -129.471363 
L 502.101831 -128.65744 
L 503.807186 -118.122436 
L 505.512542 -122.074605 
L 507.217898 -137.048971 
L 508.923254 -144.52998 
L 510.62861 -134.789071 
L 512.333966 -141.504682 
L 514.039322 -139.637888 
L 515.744678 -124.108087 
L 517.450034 -129.643917 
L 519.15539 -130.840434 
L 520.860746 -129.014673 
L 522.566102 -137.707955 
L 524.271458 -127.262301 
L 525.976814 -121.744275 
L 527.682169 -128.38036 
L 529.387525 -128.283144 
L 531.092881 -130.736355 
L 532.798237 -138.672032 
L 534.503593 -136.998721 
L 536.208949 -126.639872 
L 537.914305 -121.416351 
L 539.619661 -110.571318 
L 541.325017 -111.728268 
L 543.030373 -127.084455 
L 544.735729 -125.961518 
L 546.441085 -127.538652 
L 548.146441 -131.600619 
L 549.851797 -129.959569 
L 551.557153 -126.905183 
L 553.262508 -133.099586 
L 554.967864 -131.426746 
L 556.67322 -135.217596 
L 558.378576 -141.627961 
L 560.083932 -135.07295 
L 561.789288 -134.463113 
L 563.494644 -140.241106 
L 565.2 -140.225792 
L 565.2 -173.995736 
L 565.2 -173.995736 
L 563.494644 -171.5988 
L 561.789288 -167.387708 
L 560.083932 -175.001279 
L 558.378576 -177.075833 
L 556.67322 -164.684247 
L 554.967864 -158.724381 
L 553.262508 -160.244561 
L 551.557153 -157.668401 
L 549.851797 -155.296301 
L 548.146441 -151.601358 
L 546.441085 -145.009254 
L 544.735729 -145.711101 
L 543.030373 -153.691121 
L 541.325017 -135.188106 
L 539.619661 -135.228821 
L 537.914305 -150.444531 
L 536.208949 -158.350557 
L 534.503593 -160.269066 
L 532.798237 -160.799182 
L 531.092881 -157.336548 
L 529.387525 -159.942097 
L 527.682169 -157.795665 
L 525.976814 -154.313323 
L 524.271458 -168.66142 
L 522.566102 -174.018509 
L 520.860746 -165.725147 
L 519.15539 -167.045292 
L 517.450034 -162.537234 
L 515.744678 -154.872432 
L 514.039322 -170.649165 
L 512.333966 -179.251664 
L 510.62861 -169.166662 
L 508.923254 -176.397426 
L 507.217898 -174.925647 
L 505.512542 -160.204946 
L 503.807186 -151.025443 
L 502.101831 -158.406399 
L 500.396475 -157.044132 
L 498.691119 -155.364764 
L 496.985763 -141.439904 
L 495.280407 -157.518383 
L 493.575051 -162.467472 
L 491.869695 -159.538724 
L 490.164339 -160.086089 
L 488.458983 -172.550964 
L 486.753627 -155.674853 
L 485.048271 -148.765549 
L 483.342915 -144.583139 
L 481.637559 -139.06589 
L 479.932203 -134.17559 
L 478.226847 -126.340962 
L 476.521492 -112.849052 
L 474.816136 -115.249508 
L 473.11078 -120.143679 
L 471.405424 -131.507403 
L 469.700068 -138.154974 
L 467.994712 -145.118557 
L 466.289356 -146.027389 
L 464.584 -156.100945 
L 462.878644 -161.827302 
L 461.173288 -177.199213 
L 459.467932 -182.758136 
L 457.762576 -172.483798 
L 456.05722 -157.81047 
L 454.351864 -165.596877 
L 452.646508 -164.219992 
L 450.941153 -150.791813 
L 449.235797 -160.877093 
L 447.530441 -154.186566 
L 445.825085 -161.73655 
L 444.119729 -146.38527 
L 442.414373 -139.873336 
L 440.709017 -135.992755 
L 439.003661 -139.398606 
L 437.298305 -139.390549 
L 435.592949 -146.207433 
L 433.887593 -145.803209 
L 432.182237 -138.900619 
L 430.476881 -149.92621 
L 428.771525 -161.212475 
L 427.066169 -175.752478 
L 425.360814 -169.104792 
L 423.655458 -158.82408 
L 421.950102 -172.767311 
L 420.244746 -177.316908 
L 418.53939 -159.112297 
L 416.834034 -173.314088 
L 415.128678 -180.968271 
L 413.423322 -166.058482 
L 411.717966 -165.735947 
L 410.01261 -155.184128 
L 408.307254 -147.889505 
L 406.601898 -140.154311 
L 404.896542 -129.05712 
L 403.191186 -130.644291 
L 401.485831 -135.352822 
L 399.780475 -120.085546 
L 398.075119 -118.767674 
L 396.369763 -107.702855 
L 394.664407 -109.39147 
L 392.959051 -115.692865 
L 391.253695 -126.663736 
L 389.548339 -139.798585 
L 387.842983 -145.132232 
L 386.137627 -133.29877 
L 384.432271 -136.290038 
L 382.726915 -140.527433 
L 381.021559 -156.285298 
L 379.316203 -167.759999 
L 377.610847 -164.810221 
L 375.905492 -160.504376 
L 374.200136 -144.831528 
L 372.49478 -149.187798 
L 370.789424 -157.014102 
L 369.084068 -159.01247 
L 367.378712 -147.914359 
L 365.673356 -154.074856 
L 363.968 -154.331919 
L 362.262644 -148.46417 
L 360.557288 -158.865718 
L 358.851932 -154.315016 
L 357.146576 -161.295339 
L 355.44122 -176.216392 
L 353.735864 -162.802206 
L 352.030508 -156.651014 
L 350.325153 -164.886864 
L 348.619797 -172.939768 
L 346.914441 -173.581631 
L 345.209085 -143.256795 
L 343.503729 -141.007542 
L 341.798373 -134.139958 
L 340.093017 -144.554477 
L 338.387661 -141.744175 
L 336.682305 -143.055422 
L 334.976949 -148.398093 
L 333.271593 -149.527065 
L 331.566237 -163.512133 
L 329.860881 -170.355592 
L 328.155525 -184.189644 
L 326.450169 -155.274883 
L 324.744814 -168.634863 
L 323.039458 -160.886924 
L 321.334102 -159.424075 
L 319.628746 -158.978511 
L 317.92339 -162.338743 
L 316.218034 -160.025085 
L 314.512678 -155.433207 
L 312.807322 -155.226576 
L 311.101966 -171.029369 
L 309.39661 -165.336091 
L 307.691254 -180.463111 
L 305.985898 -179.920675 
L 304.280542 -166.801123 
L 302.575186 -168.985073 
L 300.869831 -172.418489 
L 299.164475 -158.062447 
L 297.459119 -162.197569 
L 295.753763 -157.03806 
L 294.048407 -154.840103 
L 292.343051 -165.098453 
L 290.637695 -163.473485 
L 288.932339 -153.308652 
L 287.226983 -157.748613 
L 285.521627 -152.512042 
L 283.816271 -152.066985 
L 282.110915 -142.577335 
L 280.405559 -148.884578 
L 278.700203 -138.169343 
L 276.994847 -146.235927 
L 275.289492 -149.256112 
L 273.584136 -148.322371 
L 271.87878 -149.278606 
L 270.173424 -152.09605 
L 268.468068 -152.070576 
L 266.762712 -144.817522 
L 265.057356 -138.590787 
L 263.352 -140.586603 
L 261.646644 -147.098391 
L 259.941288 -148.687019 
L 258.235932 -145.681952 
L 256.530576 -146.044047 
L 254.82522 -147.274704 
L 253.119864 -132.465104 
L 251.414508 -122.865001 
L 249.709153 -128.717458 
L 248.003797 -135.780115 
L 246.298441 -124.340723 
L 244.593085 -128.86294 
L 242.887729 -130.253023 
L 241.182373 -141.794505 
L 239.477017 -144.803864 
L 237.771661 -141.425601 
L 236.066305 -143.518937 
L 234.360949 -149.850334 
L 232.655593 -135.203692 
L 230.950237 -137.375179 
L 229.244881 -142.292667 
L 227.539525 -137.756204 
L 225.834169 -125.773626 
L 224.128814 -130.36058 
L 222.423458 -133.386117 
L 220.718102 -135.473944 
L 219.012746 -138.666101 
L 217.30739 -141.864196 
L 215.602034 -148.889686 
L 213.896678 -148.865983 
L 212.191322 -163.969142 
L 210.485966 -163.970272 
L 208.78061 -170.882008 
L 207.075254 -162.556186 
L 205.369898 -157.354922 
L 203.664542 -161.587421 
L 201.959186 -170.088448 
L 200.253831 -172.294687 
L 198.548475 -159.88645 
L 196.843119 -174.88701 
L 195.137763 -186.540684 
L 193.432407 -194.765086 
L 191.727051 -196.32 
L 190.021695 -190.238531 
L 188.316339 -195.059595 
L 186.610983 -186.022525 
L 184.905627 -164.962677 
L 183.200271 -177.276698 
L 181.494915 -167.278994 
L 179.789559 -165.600061 
L 178.084203 -160.768095 
L 176.378847 -182.031717 
L 174.673492 -163.159462 
L 172.968136 -164.708871 
L 171.26278 -166.682989 
L 169.557424 -170.657661 
L 167.852068 -179.191339 
L 166.146712 -161.603115 
L 164.441356 -168.655504 
L 162.736 -165.022397 
L 161.030644 -174.265039 
L 159.325288 -176.406058 
L 157.619932 -163.926437 
L 155.914576 -156.048384 
L 154.20922 -170.560388 
L 152.503864 -175.191033 
L 150.798508 -169.292175 
L 149.093153 -166.46004 
L 147.387797 -171.79748 
L 145.682441 -169.417995 
L 143.977085 -171.670016 
L 142.271729 -156.15383 
L 140.566373 -148.768615 
L 138.861017 -158.56891 
L 137.155661 -147.084661 
L 135.450305 -161.886905 
L 133.744949 -153.552965 
L 132.039593 -147.096895 
L 130.334237 -148.734234 
L 128.628881 -133.475814 
L 126.923525 -139.322181 
L 125.218169 -150.514578 
L 123.512814 -149.571427 
L 121.807458 -137.90312 
L 120.102102 -141.448227 
L 118.396746 -132.362338 
L 116.69139 -133.612943 
L 114.986034 -158.137595 
L 113.280678 -145.913752 
L 111.575322 -144.834512 
L 109.869966 -142.513915 
L 108.16461 -138.975518 
L 106.459254 -138.306061 
L 104.753898 -146.133479 
L 103.048542 -145.601904 
L 101.343186 -141.863544 
L 99.637831 -139.583738 
L 97.932475 -137.334238 
L 96.227119 -135.554933 
L 94.521763 -144.781551 
L 92.816407 -143.189486 
L 91.111051 -145.766947 
L 89.405695 -135.472259 
L 87.700339 -124.373203 
L 85.994983 -127.05886 
L 84.289627 -128.611035 
L 82.584271 -130.190678 
L 80.878915 -139.191428 
L 79.173559 -142.782728 
L 77.468203 -139.298334 
L 75.762847 -145.954615 
L 74.057492 -152.491396 
L 72.352136 -160.270534 
L 70.64678 -168.631359 
L 68.941424 -168.91362 
L 67.236068 -187.700391 
L 65.530712 -165.667895 
L 63.825356 -168.213 
L 62.12 -170.820657 
z
" id="mea5530b6fd" style="stroke:#0000ff;stroke-opacity:0.3;"/>
    </defs>
    <g clip-path="url(#p4ba9606875)">
     <use style="fill:#0000ff;fill-opacity:0.3;stroke:#0000ff;stroke-opacity:0.3;" x="0" xlink:href="#mea5530b6fd" y="223.2"/>
    </g>
   </g>
   <g id="matplotlib.axis_1">
    <g id="xtick_1">
     <g id="line2d_1">
      <defs>
       <path d="M 0 0 
L 0 3.5 
" id="m3012b220f1" style="stroke:#000000;stroke-width:0.8;"/>
      </defs>
      <g>
       <use style="stroke:#000000;stroke-width:0.8;" x="143.891817" xlink:href="#m3012b220f1" y="174.76"/>
      </g>
     </g>
     <g id="text_1">
      <!-- 0.0 -->
      <defs>
       <path d="M 31.78125 66.40625 
Q 24.171875 66.40625 20.328125 58.90625 
Q 16.5 51.421875 16.5 36.375 
Q 16.5 21.390625 20.328125 13.890625 
Q 24.171875 6.390625 31.78125 6.390625 
Q 39.453125 6.390625 43.28125 13.890625 
Q 47.125 21.390625 47.125 36.375 
Q 47.125 51.421875 43.28125 58.90625 
Q 39.453125 66.40625 31.78125 66.40625 
z
M 31.78125 74.21875 
Q 44.046875 74.21875 50.515625 64.515625 
Q 56.984375 54.828125 56.984375 36.375 
Q 56.984375 17.96875 50.515625 8.265625 
Q 44.046875 -1.421875 31.78125 -1.421875 
Q 19.53125 -1.421875 13.0625 8.265625 
Q 6.59375 17.96875 6.59375 36.375 
Q 6.59375 54.828125 13.0625 64.515625 
Q 19.53125 74.21875 31.78125 74.21875 
z
" id="DejaVuSans-48"/>
       <path d="M 10.6875 12.40625 
L 21 12.40625 
L 21 0 
L 10.6875 0 
z
" id="DejaVuSans-46"/>
      </defs>
      <g transform="translate(134.349942 190.878125)scale(0.12 -0.12)">
       <use xlink:href="#DejaVuSans-48"/>
       <use x="63.623047" xlink:href="#DejaVuSans-46"/>
       <use x="95.410156" xlink:href="#DejaVuSans-48"/>
      </g>
     </g>
    </g>
    <g id="xtick_2">
     <g id="line2d_2">
      <g>
       <use style="stroke:#000000;stroke-width:0.8;" x="229.159614" xlink:href="#m3012b220f1" y="174.76"/>
      </g>
     </g>
     <g id="text_2">
      <!-- 0.5 -->
      <defs>
       <path d="M 10.796875 72.90625 
L 49.515625 72.90625 
L 49.515625 64.59375 
L 19.828125 64.59375 
L 19.828125 46.734375 
Q 21.96875 47.46875 24.109375 47.828125 
Q 26.265625 48.1875 28.421875 48.1875 
Q 40.625 48.1875 47.75 41.5 
Q 54.890625 34.8125 54.890625 23.390625 
Q 54.890625 11.625 47.5625 5.09375 
Q 40.234375 -1.421875 26.90625 -1.421875 
Q 22.3125 -1.421875 17.546875 -0.640625 
Q 12.796875 0.140625 7.71875 1.703125 
L 7.71875 11.625 
Q 12.109375 9.234375 16.796875 8.0625 
Q 21.484375 6.890625 26.703125 6.890625 
Q 35.15625 6.890625 40.078125 11.328125 
Q 45.015625 15.765625 45.015625 23.390625 
Q 45.015625 31 40.078125 35.4375 
Q 35.15625 39.890625 26.703125 39.890625 
Q 22.75 39.890625 18.8125 39.015625 
Q 14.890625 38.140625 10.796875 36.28125 
z
" id="DejaVuSans-53"/>
      </defs>
      <g transform="translate(219.617739 190.878125)scale(0.12 -0.12)">
       <use xlink:href="#DejaVuSans-48"/>
       <use x="63.623047" xlink:href="#DejaVuSans-46"/>
       <use x="95.410156" xlink:href="#DejaVuSans-53"/>
      </g>
     </g>
    </g>
    <g id="xtick_3">
     <g id="line2d_3">
      <g>
       <use style="stroke:#000000;stroke-width:0.8;" x="314.42741" xlink:href="#m3012b220f1" y="174.76"/>
      </g>
     </g>
     <g id="text_3">
      <!-- 1.0 -->
      <defs>
       <path d="M 12.40625 8.296875 
L 28.515625 8.296875 
L 28.515625 63.921875 
L 10.984375 60.40625 
L 10.984375 69.390625 
L 28.421875 72.90625 
L 38.28125 72.90625 
L 38.28125 8.296875 
L 54.390625 8.296875 
L 54.390625 0 
L 12.40625 0 
z
" id="DejaVuSans-49"/>
      </defs>
      <g transform="translate(304.885535 190.878125)scale(0.12 -0.12)">
       <use xlink:href="#DejaVuSans-49"/>
       <use x="63.623047" xlink:href="#DejaVuSans-46"/>
       <use x="95.410156" xlink:href="#DejaVuSans-48"/>
      </g>
     </g>
    </g>
    <g id="xtick_4">
     <g id="line2d_4">
      <g>
       <use style="stroke:#000000;stroke-width:0.8;" x="399.695207" xlink:href="#m3012b220f1" y="174.76"/>
      </g>
     </g>
     <g id="text_4">
      <!-- 1.5 -->
      <g transform="translate(390.153332 190.878125)scale(0.12 -0.12)">
       <use xlink:href="#DejaVuSans-49"/>
       <use x="63.623047" xlink:href="#DejaVuSans-46"/>
       <use x="95.410156" xlink:href="#DejaVuSans-53"/>
      </g>
     </g>
    </g>
    <g id="xtick_5">
     <g id="line2d_5">
      <g>
       <use style="stroke:#000000;stroke-width:0.8;" x="484.963003" xlink:href="#m3012b220f1" y="174.76"/>
      </g>
     </g>
     <g id="text_5">
      <!-- 2.0 -->
      <defs>
       <path d="M 19.1875 8.296875 
L 53.609375 8.296875 
L 53.609375 0 
L 7.328125 0 
L 7.328125 8.296875 
Q 12.9375 14.109375 22.625 23.890625 
Q 32.328125 33.6875 34.8125 36.53125 
Q 39.546875 41.84375 41.421875 45.53125 
Q 43.3125 49.21875 43.3125 52.78125 
Q 43.3125 58.59375 39.234375 62.25 
Q 35.15625 65.921875 28.609375 65.921875 
Q 23.96875 65.921875 18.8125 64.3125 
Q 13.671875 62.703125 7.8125 59.421875 
L 7.8125 69.390625 
Q 13.765625 71.78125 18.9375 73 
Q 24.125 74.21875 28.421875 74.21875 
Q 39.75 74.21875 46.484375 68.546875 
Q 53.21875 62.890625 53.21875 53.421875 
Q 53.21875 48.921875 51.53125 44.890625 
Q 49.859375 40.875 45.40625 35.40625 
Q 44.1875 33.984375 37.640625 27.21875 
Q 31.109375 20.453125 19.1875 8.296875 
z
" id="DejaVuSans-50"/>
      </defs>
      <g transform="translate(475.421128 190.878125)scale(0.12 -0.12)">
       <use xlink:href="#DejaVuSans-50"/>
       <use x="63.623047" xlink:href="#DejaVuSans-46"/>
       <use x="95.410156" xlink:href="#DejaVuSans-48"/>
      </g>
     </g>
    </g>
    <g id="text_6">
     <!-- Time (s) -->
     <defs>
      <path d="M -0.296875 72.90625 
L 61.375 72.90625 
L 61.375 64.59375 
L 35.5 64.59375 
L 35.5 0 
L 25.59375 0 
L 25.59375 64.59375 
L -0.296875 64.59375 
z
" id="DejaVuSans-84"/>
      <path d="M 9.421875 54.6875 
L 18.40625 54.6875 
L 18.40625 0 
L 9.421875 0 
z
M 9.421875 75.984375 
L 18.40625 75.984375 
L 18.40625 64.59375 
L 9.421875 64.59375 
z
" id="DejaVuSans-105"/>
      <path d="M 52 44.1875 
Q 55.375 50.25 60.0625 53.125 
Q 64.75 56 71.09375 56 
Q 79.640625 56 84.28125 50.015625 
Q 88.921875 44.046875 88.921875 33.015625 
L 88.921875 0 
L 79.890625 0 
L 79.890625 32.71875 
Q 79.890625 40.578125 77.09375 44.375 
Q 74.3125 48.1875 68.609375 48.1875 
Q 61.625 48.1875 57.5625 43.546875 
Q 53.515625 38.921875 53.515625 30.90625 
L 53.515625 0 
L 44.484375 0 
L 44.484375 32.71875 
Q 44.484375 40.625 41.703125 44.40625 
Q 38.921875 48.1875 33.109375 48.1875 
Q 26.21875 48.1875 22.15625 43.53125 
Q 18.109375 38.875 18.109375 30.90625 
L 18.109375 0 
L 9.078125 0 
L 9.078125 54.6875 
L 18.109375 54.6875 
L 18.109375 46.1875 
Q 21.1875 51.21875 25.484375 53.609375 
Q 29.78125 56 35.6875 56 
Q 41.65625 56 45.828125 52.96875 
Q 50 49.953125 52 44.1875 
z
" id="DejaVuSans-109"/>
      <path d="M 56.203125 29.59375 
L 56.203125 25.203125 
L 14.890625 25.203125 
Q 15.484375 15.921875 20.484375 11.0625 
Q 25.484375 6.203125 34.421875 6.203125 
Q 39.59375 6.203125 44.453125 7.46875 
Q 49.3125 8.734375 54.109375 11.28125 
L 54.109375 2.78125 
Q 49.265625 0.734375 44.1875 -0.34375 
Q 39.109375 -1.421875 33.890625 -1.421875 
Q 20.796875 -1.421875 13.15625 6.1875 
Q 5.515625 13.8125 5.515625 26.8125 
Q 5.515625 40.234375 12.765625 48.109375 
Q 20.015625 56 32.328125 56 
Q 43.359375 56 49.78125 48.890625 
Q 56.203125 41.796875 56.203125 29.59375 
z
M 47.21875 32.234375 
Q 47.125 39.59375 43.09375 43.984375 
Q 39.0625 48.390625 32.421875 48.390625 
Q 24.90625 48.390625 20.390625 44.140625 
Q 15.875 39.890625 15.1875 32.171875 
z
" id="DejaVuSans-101"/>
      <path id="DejaVuSans-32"/>
      <path d="M 31 75.875 
Q 24.46875 64.65625 21.28125 53.65625 
Q 18.109375 42.671875 18.109375 31.390625 
Q 18.109375 20.125 21.3125 9.0625 
Q 24.515625 -2 31 -13.1875 
L 23.1875 -13.1875 
Q 15.875 -1.703125 12.234375 9.375 
Q 8.59375 20.453125 8.59375 31.390625 
Q 8.59375 42.28125 12.203125 53.3125 
Q 15.828125 64.359375 23.1875 75.875 
z
" id="DejaVuSans-40"/>
      <path d="M 44.28125 53.078125 
L 44.28125 44.578125 
Q 40.484375 46.53125 36.375 47.5 
Q 32.28125 48.484375 27.875 48.484375 
Q 21.1875 48.484375 17.84375 46.4375 
Q 14.5 44.390625 14.5 40.28125 
Q 14.5 37.15625 16.890625 35.375 
Q 19.28125 33.59375 26.515625 31.984375 
L 29.59375 31.296875 
Q 39.15625 29.25 43.1875 25.515625 
Q 47.21875 21.78125 47.21875 15.09375 
Q 47.21875 7.46875 41.1875 3.015625 
Q 35.15625 -1.421875 24.609375 -1.421875 
Q 20.21875 -1.421875 15.453125 -0.5625 
Q 10.6875 0.296875 5.421875 2 
L 5.421875 11.28125 
Q 10.40625 8.6875 15.234375 7.390625 
Q 20.0625 6.109375 24.8125 6.109375 
Q 31.15625 6.109375 34.5625 8.28125 
Q 37.984375 10.453125 37.984375 14.40625 
Q 37.984375 18.0625 35.515625 20.015625 
Q 33.0625 21.96875 24.703125 23.78125 
L 21.578125 24.515625 
Q 13.234375 26.265625 9.515625 29.90625 
Q 5.8125 33.546875 5.8125 39.890625 
Q 5.8125 47.609375 11.28125 51.796875 
Q 16.75 56 26.8125 56 
Q 31.78125 56 36.171875 55.265625 
Q 40.578125 54.546875 44.28125 53.078125 
z
" id="DejaVuSans-115"/>
      <path d="M 8.015625 75.875 
L 15.828125 75.875 
Q 23.140625 64.359375 26.78125 53.3125 
Q 30.421875 42.28125 30.421875 31.390625 
Q 30.421875 20.453125 26.78125 9.375 
Q 23.140625 -1.703125 15.828125 -13.1875 
L 8.015625 -13.1875 
Q 14.5 -2 17.703125 9.0625 
Q 20.90625 20.125 20.90625 31.390625 
Q 20.90625 42.671875 17.703125 53.65625 
Q 14.5 64.65625 8.015625 75.875 
z
" id="DejaVuSans-41"/>
     </defs>
     <g transform="translate(284.16475 208.3155)scale(0.144 -0.144)">
      <use xlink:href="#DejaVuSans-84"/>
      <use x="61.037109" xlink:href="#DejaVuSans-105"/>
      <use x="88.820312" xlink:href="#DejaVuSans-109"/>
      <use x="186.232422" xlink:href="#DejaVuSans-101"/>
      <use x="247.755859" xlink:href="#DejaVuSans-32"/>
      <use x="279.542969" xlink:href="#DejaVuSans-40"/>
      <use x="318.556641" xlink:href="#DejaVuSans-115"/>
      <use x="370.65625" xlink:href="#DejaVuSans-41"/>
     </g>
    </g>
   </g>
   <g id="matplotlib.axis_2">
    <g id="ytick_1">
     <g id="line2d_6">
      <defs>
       <path d="M 0 0 
L -3.5 0 
" id="m4410f977a2" style="stroke:#000000;stroke-width:0.8;"/>
      </defs>
      <g>
       <use style="stroke:#000000;stroke-width:0.8;" x="62.12" xlink:href="#m4410f977a2" y="174.76"/>
      </g>
     </g>
     <g id="text_7">
      <!-- 0.00 -->
      <g transform="translate(28.40125 179.319062)scale(0.12 -0.12)">
       <use xlink:href="#DejaVuSans-48"/>
       <use x="63.623047" xlink:href="#DejaVuSans-46"/>
       <use x="95.410156" xlink:href="#DejaVuSans-48"/>
       <use x="159.033203" xlink:href="#DejaVuSans-48"/>
      </g>
     </g>
    </g>
    <g id="ytick_2">
     <g id="line2d_7">
      <g>
       <use style="stroke:#000000;stroke-width:0.8;" x="62.12" xlink:href="#m4410f977a2" y="153.600554"/>
      </g>
     </g>
     <g id="text_8">
      <!-- 0.25 -->
      <g transform="translate(28.40125 158.159617)scale(0.12 -0.12)">
       <use xlink:href="#DejaVuSans-48"/>
       <use x="63.623047" xlink:href="#DejaVuSans-46"/>
       <use x="95.410156" xlink:href="#DejaVuSans-50"/>
       <use x="159.033203" xlink:href="#DejaVuSans-53"/>
      </g>
     </g>
    </g>
    <g id="ytick_3">
     <g id="line2d_8">
      <g>
       <use style="stroke:#000000;stroke-width:0.8;" x="62.12" xlink:href="#m4410f977a2" y="132.441108"/>
      </g>
     </g>
     <g id="text_9">
      <!-- 0.50 -->
      <g transform="translate(28.40125 137.000171)scale(0.12 -0.12)">
       <use xlink:href="#DejaVuSans-48"/>
       <use x="63.623047" xlink:href="#DejaVuSans-46"/>
       <use x="95.410156" xlink:href="#DejaVuSans-53"/>
       <use x="159.033203" xlink:href="#DejaVuSans-48"/>
      </g>
     </g>
    </g>
    <g id="ytick_4">
     <g id="line2d_9">
      <g>
       <use style="stroke:#000000;stroke-width:0.8;" x="62.12" xlink:href="#m4410f977a2" y="111.281662"/>
      </g>
     </g>
     <g id="text_10">
      <!-- 0.75 -->
      <defs>
       <path d="M 8.203125 72.90625 
L 55.078125 72.90625 
L 55.078125 68.703125 
L 28.609375 0 
L 18.3125 0 
L 43.21875 64.59375 
L 8.203125 64.59375 
z
" id="DejaVuSans-55"/>
      </defs>
      <g transform="translate(28.40125 115.840725)scale(0.12 -0.12)">
       <use xlink:href="#DejaVuSans-48"/>
       <use x="63.623047" xlink:href="#DejaVuSans-46"/>
       <use x="95.410156" xlink:href="#DejaVuSans-55"/>
       <use x="159.033203" xlink:href="#DejaVuSans-53"/>
      </g>
     </g>
    </g>
    <g id="ytick_5">
     <g id="line2d_10">
      <g>
       <use style="stroke:#000000;stroke-width:0.8;" x="62.12" xlink:href="#m4410f977a2" y="90.122217"/>
      </g>
     </g>
     <g id="text_11">
      <!-- 1.00 -->
      <g transform="translate(28.40125 94.681279)scale(0.12 -0.12)">
       <use xlink:href="#DejaVuSans-49"/>
       <use x="63.623047" xlink:href="#DejaVuSans-46"/>
       <use x="95.410156" xlink:href="#DejaVuSans-48"/>
       <use x="159.033203" xlink:href="#DejaVuSans-48"/>
      </g>
     </g>
    </g>
    <g id="ytick_6">
     <g id="line2d_11">
      <g>
       <use style="stroke:#000000;stroke-width:0.8;" x="62.12" xlink:href="#m4410f977a2" y="68.962771"/>
      </g>
     </g>
     <g id="text_12">
      <!-- 1.25 -->
      <g transform="translate(28.40125 73.521833)scale(0.12 -0.12)">
       <use xlink:href="#DejaVuSans-49"/>
       <use x="63.623047" xlink:href="#DejaVuSans-46"/>
       <use x="95.410156" xlink:href="#DejaVuSans-50"/>
       <use x="159.033203" xlink:href="#DejaVuSans-53"/>
      </g>
     </g>
    </g>
    <g id="ytick_7">
     <g id="line2d_12">
      <g>
       <use style="stroke:#000000;stroke-width:0.8;" x="62.12" xlink:href="#m4410f977a2" y="47.803325"/>
      </g>
     </g>
     <g id="text_13">
      <!-- 1.50 -->
      <g transform="translate(28.40125 52.362387)scale(0.12 -0.12)">
       <use xlink:href="#DejaVuSans-49"/>
       <use x="63.623047" xlink:href="#DejaVuSans-46"/>
       <use x="95.410156" xlink:href="#DejaVuSans-53"/>
       <use x="159.033203" xlink:href="#DejaVuSans-48"/>
      </g>
     </g>
    </g>
    <g id="text_14">
     <!-- COMb $\nu$ -->
     <defs>
      <path d="M 64.40625 67.28125 
L 64.40625 56.890625 
Q 59.421875 61.53125 53.78125 63.8125 
Q 48.140625 66.109375 41.796875 66.109375 
Q 29.296875 66.109375 22.65625 58.46875 
Q 16.015625 50.828125 16.015625 36.375 
Q 16.015625 21.96875 22.65625 14.328125 
Q 29.296875 6.6875 41.796875 6.6875 
Q 48.140625 6.6875 53.78125 8.984375 
Q 59.421875 11.28125 64.40625 15.921875 
L 64.40625 5.609375 
Q 59.234375 2.09375 53.4375 0.328125 
Q 47.65625 -1.421875 41.21875 -1.421875 
Q 24.65625 -1.421875 15.125 8.703125 
Q 5.609375 18.84375 5.609375 36.375 
Q 5.609375 53.953125 15.125 64.078125 
Q 24.65625 74.21875 41.21875 74.21875 
Q 47.75 74.21875 53.53125 72.484375 
Q 59.328125 70.75 64.40625 67.28125 
z
" id="DejaVuSans-67"/>
      <path d="M 39.40625 66.21875 
Q 28.65625 66.21875 22.328125 58.203125 
Q 16.015625 50.203125 16.015625 36.375 
Q 16.015625 22.609375 22.328125 14.59375 
Q 28.65625 6.59375 39.40625 6.59375 
Q 50.140625 6.59375 56.421875 14.59375 
Q 62.703125 22.609375 62.703125 36.375 
Q 62.703125 50.203125 56.421875 58.203125 
Q 50.140625 66.21875 39.40625 66.21875 
z
M 39.40625 74.21875 
Q 54.734375 74.21875 63.90625 63.9375 
Q 73.09375 53.65625 73.09375 36.375 
Q 73.09375 19.140625 63.90625 8.859375 
Q 54.734375 -1.421875 39.40625 -1.421875 
Q 24.03125 -1.421875 14.8125 8.828125 
Q 5.609375 19.09375 5.609375 36.375 
Q 5.609375 53.65625 14.8125 63.9375 
Q 24.03125 74.21875 39.40625 74.21875 
z
" id="DejaVuSans-79"/>
      <path d="M 9.8125 72.90625 
L 24.515625 72.90625 
L 43.109375 23.296875 
L 61.8125 72.90625 
L 76.515625 72.90625 
L 76.515625 0 
L 66.890625 0 
L 66.890625 64.015625 
L 48.09375 14.015625 
L 38.1875 14.015625 
L 19.390625 64.015625 
L 19.390625 0 
L 9.8125 0 
z
" id="DejaVuSans-77"/>
      <path d="M 48.6875 27.296875 
Q 48.6875 37.203125 44.609375 42.84375 
Q 40.53125 48.484375 33.40625 48.484375 
Q 26.265625 48.484375 22.1875 42.84375 
Q 18.109375 37.203125 18.109375 27.296875 
Q 18.109375 17.390625 22.1875 11.75 
Q 26.265625 6.109375 33.40625 6.109375 
Q 40.53125 6.109375 44.609375 11.75 
Q 48.6875 17.390625 48.6875 27.296875 
z
M 18.109375 46.390625 
Q 20.953125 51.265625 25.265625 53.625 
Q 29.59375 56 35.59375 56 
Q 45.5625 56 51.78125 48.09375 
Q 58.015625 40.1875 58.015625 27.296875 
Q 58.015625 14.40625 51.78125 6.484375 
Q 45.5625 -1.421875 35.59375 -1.421875 
Q 29.59375 -1.421875 25.265625 0.953125 
Q 20.953125 3.328125 18.109375 8.203125 
L 18.109375 0 
L 9.078125 0 
L 9.078125 75.984375 
L 18.109375 75.984375 
z
" id="DejaVuSans-98"/>
      <path d="M 14.984375 0 
L 8.9375 54.6875 
L 18.609375 54.6875 
L 23.78125 8.796875 
Q 30.8125 14.84375 37.359375 23.25 
Q 42.28125 29.546875 43.5625 35.015625 
Q 44.140625 37.59375 43.890625 42.484375 
Q 43.65625 48.296875 39.75 54.6875 
L 48.828125 54.6875 
L 48.828125 54.6875 
Q 51.375 50.34375 52.390625 44.28125 
Q 53.375 38.71875 52.640625 34.90625 
Q 50.78125 25.34375 42.484375 16.796875 
Q 31.640625 5.671875 24.5625 0 
z
" id="DejaVuSans-Oblique-957"/>
     </defs>
     <g transform="translate(21.4065 128.612)rotate(-90)scale(0.144 -0.144)">
      <use transform="translate(0 0.015625)" xlink:href="#DejaVuSans-67"/>
      <use transform="translate(69.824219 0.015625)" xlink:href="#DejaVuSans-79"/>
      <use transform="translate(148.535156 0.015625)" xlink:href="#DejaVuSans-77"/>
      <use transform="translate(234.814453 0.015625)" xlink:href="#DejaVuSans-98"/>
      <use transform="translate(298.291016 0.015625)" xlink:href="#DejaVuSans-32"/>
      <use transform="translate(330.078125 0.015625)" xlink:href="#DejaVuSans-Oblique-957"/>
     </g>
    </g>
   </g>
   <g id="line2d_13">
    <path clip-path="url(#p4ba9606875)" d="M 62.12 66.377495 
L 63.825356 70.648071 
L 65.530712 73.732604 
L 67.236068 55.628435 
L 68.941424 65.952193 
L 70.64678 63.105149 
L 72.352136 73.397663 
L 74.057492 81.01299 
L 75.762847 86.133605 
L 77.468203 93.819083 
L 79.173559 92.497451 
L 80.878915 95.881581 
L 82.584271 105.179725 
L 84.289627 103.50224 
L 85.994983 105.67681 
L 87.700339 105.868084 
L 89.405695 96.783182 
L 91.111051 87.000968 
L 92.816407 89.762212 
L 94.521763 88.885134 
L 96.227119 94.826695 
L 97.932475 93.74061 
L 99.637831 89.001335 
L 101.343186 89.129928 
L 103.048542 86.554395 
L 104.753898 86.705714 
L 106.459254 91.84594 
L 108.16461 91.81079 
L 109.869966 88.007193 
L 111.575322 85.663202 
L 113.280678 88.182754 
L 114.986034 79.546104 
L 116.69139 98.337025 
L 118.396746 98.914144 
L 120.102102 89.023388 
L 121.807458 91.996814 
L 123.512814 83.710466 
L 125.218169 82.815323 
L 126.923525 93.476765 
L 128.628881 100.62591 
L 130.334237 88.452286 
L 132.039593 88.881458 
L 133.744949 82.309377 
L 135.450305 77.272304 
L 137.155661 87.466581 
L 138.861017 78.663916 
L 140.566373 89.284529 
L 142.271729 85.27664 
L 143.977085 72.604713 
L 145.682441 72.135206 
L 147.387797 67.966924 
L 149.093153 72.979232 
L 150.798508 71.640877 
L 152.503864 62.261151 
L 154.20922 64.424317 
L 155.914576 76.996873 
L 157.619932 70.381212 
L 159.325288 65.983832 
L 161.030644 63.969676 
L 162.736 69.159047 
L 164.441356 66.519281 
L 166.146712 70.414513 
L 167.852068 54.797501 
L 169.557424 62.968234 
L 171.26278 69.215972 
L 172.968136 70.454619 
L 174.673492 74.272871 
L 176.378847 57.123894 
L 178.084203 74.695845 
L 179.789559 71.414555 
L 181.494915 70.190553 
L 183.200271 59.548183 
L 184.905627 75.53354 
L 186.610983 58.469701 
L 188.316339 49.462961 
L 190.021695 51.024937 
L 191.727051 47.738908 
L 193.432407 48.592046 
L 195.137763 54.314904 
L 196.843119 65.277777 
L 198.548475 74.007352 
L 200.253831 63.701826 
L 201.959186 68.074781 
L 203.664542 77.064995 
L 205.369898 82.964637 
L 207.075254 79.204515 
L 208.78061 72.672534 
L 210.485966 81.577233 
L 212.191322 77.53167 
L 213.896678 90.664455 
L 215.602034 88.417266 
L 217.30739 97.820442 
L 219.012746 98.919857 
L 220.718102 101.814927 
L 224.128814 102.91373 
L 225.834169 108.417736 
L 227.539525 99.784005 
L 229.244881 96.780994 
L 230.950237 98.509397 
L 232.655593 99.189844 
L 234.360949 86.879236 
L 236.066305 95.068888 
L 237.771661 95.620323 
L 239.477017 93.571732 
L 241.182373 99.185318 
L 242.887729 108.385155 
L 244.593085 104.761967 
L 246.298441 108.628917 
L 248.003797 100.127091 
L 249.709153 106.901042 
L 251.414508 107.979033 
L 253.119864 101.574384 
L 254.82522 92.587563 
L 256.530576 95.0155 
L 258.235932 93.401914 
L 259.941288 83.851545 
L 261.646644 89.781807 
L 263.352 92.74759 
L 265.057356 92.621292 
L 266.762712 88.724663 
L 268.468068 83.688068 
L 270.173424 83.939158 
L 271.87878 84.804949 
L 273.584136 87.311103 
L 275.289492 87.300824 
L 276.994847 90.632086 
L 278.700203 95.624308 
L 280.405559 84.995047 
L 282.110915 91.16309 
L 283.816271 86.457115 
L 285.521627 86.25356 
L 287.226983 78.615438 
L 288.932339 83.072466 
L 290.637695 73.061319 
L 292.343051 72.727529 
L 294.048407 82.184511 
L 295.753763 80.708623 
L 297.459119 78.159457 
L 299.164475 80.04923 
L 300.869831 66.982513 
L 302.575186 68.270582 
L 304.280542 71.290964 
L 305.985898 57.644725 
L 307.691254 58.297275 
L 309.39661 73.911522 
L 311.101966 69.703408 
L 312.807322 81.218908 
L 314.512678 81.071635 
L 316.218034 78.261764 
L 317.92339 78.609142 
L 319.628746 79.391549 
L 321.334102 77.603186 
L 323.039458 77.821097 
L 324.744814 72.772978 
L 326.450169 80.680497 
L 328.155525 60.946075 
L 329.860881 68.765219 
L 331.566237 74.166826 
L 333.271593 86.899742 
L 334.976949 91.326924 
L 336.682305 96.497907 
L 338.387661 94.590152 
L 340.093017 91.682091 
L 341.798373 99.01218 
L 343.503729 90.266111 
L 345.209085 86.050489 
L 346.914441 62.588287 
L 348.619797 62.657884 
L 350.325153 67.965719 
L 352.030508 74.965426 
L 353.735864 73.169492 
L 355.44122 62.929396 
L 357.146576 80.539497 
L 358.851932 87.15891 
L 360.557288 85.942341 
L 362.262644 91.170468 
L 363.968 85.290759 
L 365.673356 82.734713 
L 367.378712 91.6997 
L 369.084068 79.130586 
L 370.789424 83.92331 
L 372.49478 90.368109 
L 374.200136 90.304067 
L 375.905492 75.455965 
L 377.610847 72.767943 
L 379.316203 72.003134 
L 381.021559 85.989578 
L 382.726915 98.042929 
L 384.432271 98.944139 
L 386.137627 98.374603 
L 387.842983 84.921982 
L 389.548339 87.479016 
L 391.253695 103.121151 
L 392.959051 112.832242 
L 394.664407 119.303278 
L 396.369763 120.680976 
L 398.075119 112.380292 
L 399.780475 112.522695 
L 401.485831 100.885781 
L 403.191186 105.166628 
L 404.896542 105.071717 
L 406.601898 92.420459 
L 408.307254 89.031422 
L 410.01261 81.839568 
L 411.717966 72.460474 
L 413.423322 65.608719 
L 415.128678 56.452114 
L 416.834034 62.26201 
L 418.53939 76.943584 
L 420.244746 64.1932 
L 421.950102 62.136381 
L 423.655458 72.519646 
L 425.360814 64.399042 
L 427.066169 61.719896 
L 430.476881 87.073627 
L 432.182237 95.42137 
L 433.887593 90.088332 
L 435.592949 92.1958 
L 437.298305 96.316423 
L 439.003661 96.323359 
L 440.709017 101.499844 
L 444.119729 90.86568 
L 445.825085 77.170861 
L 447.530441 82.448053 
L 449.235797 79.493038 
L 450.941153 87.782582 
L 452.646508 78.45181 
L 454.351864 74.940906 
L 456.05722 82.022191 
L 457.762576 70.40984 
L 459.467932 60.959147 
L 461.173288 65.247392 
L 462.878644 75.602926 
L 464.584 81.26602 
L 466.289356 92.346471 
L 467.994712 95.104989 
L 469.700068 99.14991 
L 471.405424 102.594809 
L 473.11078 110.436462 
L 476.521492 124.317467 
L 478.226847 116.834904 
L 479.932203 111.11432 
L 481.637559 104.234001 
L 485.048271 93.414286 
L 486.753627 85.472491 
L 488.458983 68.381027 
L 490.164339 78.818723 
L 491.869695 83.307841 
L 493.575051 79.183781 
L 495.280407 82.197106 
L 496.985763 94.932659 
L 498.691119 83.068728 
L 500.396475 79.942252 
L 502.101831 79.66808 
L 503.807186 88.62606 
L 505.512542 82.060225 
L 507.217898 67.212691 
L 508.923254 62.736297 
L 510.62861 71.222134 
L 512.333966 62.821827 
L 514.039322 68.056474 
L 515.744678 83.709741 
L 517.450034 77.109424 
L 519.15539 74.257137 
L 520.860746 75.83009 
L 522.566102 67.336768 
L 524.271458 75.238139 
L 525.976814 85.171201 
L 527.682169 80.111987 
L 529.387525 79.087379 
L 531.092881 79.163549 
L 532.798237 73.464393 
L 534.503593 74.566107 
L 536.208949 80.704785 
L 537.914305 87.269559 
L 539.619661 100.299931 
L 541.325017 99.741813 
L 543.030373 82.812212 
L 544.735729 87.363691 
L 546.441085 86.926047 
L 548.146441 81.599012 
L 549.851797 80.572065 
L 551.557153 80.913208 
L 553.262508 76.527927 
L 554.967864 78.124437 
L 556.67322 73.249079 
L 558.378576 63.848103 
L 561.789288 72.27459 
L 563.494644 67.280047 
L 565.2 66.089236 
L 565.2 66.089236 
" style="fill:none;stroke:#0000ff;stroke-linecap:square;stroke-width:1.5;"/>
   </g>
   <g id="patch_3">
    <path d="M 62.12 174.76 
L 62.12 26.88 
" style="fill:none;stroke:#000000;stroke-linecap:square;stroke-linejoin:miter;stroke-width:0.8;"/>
   </g>
   <g id="patch_4">
    <path d="M 565.2 174.76 
L 565.2 26.88 
" style="fill:none;stroke:#000000;stroke-linecap:square;stroke-linejoin:miter;stroke-width:0.8;"/>
   </g>
   <g id="patch_5">
    <path d="M 62.12 174.76 
L 565.2 174.76 
" style="fill:none;stroke:#000000;stroke-linecap:square;stroke-linejoin:miter;stroke-width:0.8;"/>
   </g>
   <g id="patch_6">
    <path d="M 62.12 26.88 
L 565.2 26.88 
" style="fill:none;stroke:#000000;stroke-linecap:square;stroke-linejoin:miter;stroke-width:0.8;"/>
   </g>
   <g id="text_15">
    <!-- Striatum, Num Trials=10 All unstimulated trials, Num cells = 351 -->
    <defs>
     <path d="M 53.515625 70.515625 
L 53.515625 60.890625 
Q 47.90625 63.578125 42.921875 64.890625 
Q 37.9375 66.21875 33.296875 66.21875 
Q 25.25 66.21875 20.875 63.09375 
Q 16.5 59.96875 16.5 54.203125 
Q 16.5 49.359375 19.40625 46.890625 
Q 22.3125 44.4375 30.421875 42.921875 
L 36.375 41.703125 
Q 47.40625 39.59375 52.65625 34.296875 
Q 57.90625 29 57.90625 20.125 
Q 57.90625 9.515625 50.796875 4.046875 
Q 43.703125 -1.421875 29.984375 -1.421875 
Q 24.8125 -1.421875 18.96875 -0.25 
Q 13.140625 0.921875 6.890625 3.21875 
L 6.890625 13.375 
Q 12.890625 10.015625 18.65625 8.296875 
Q 24.421875 6.59375 29.984375 6.59375 
Q 38.421875 6.59375 43.015625 9.90625 
Q 47.609375 13.234375 47.609375 19.390625 
Q 47.609375 24.75 44.3125 27.78125 
Q 41.015625 30.8125 33.5 32.328125 
L 27.484375 33.5 
Q 16.453125 35.6875 11.515625 40.375 
Q 6.59375 45.0625 6.59375 53.421875 
Q 6.59375 63.09375 13.40625 68.65625 
Q 20.21875 74.21875 32.171875 74.21875 
Q 37.3125 74.21875 42.625 73.28125 
Q 47.953125 72.359375 53.515625 70.515625 
z
" id="DejaVuSans-83"/>
     <path d="M 18.3125 70.21875 
L 18.3125 54.6875 
L 36.8125 54.6875 
L 36.8125 47.703125 
L 18.3125 47.703125 
L 18.3125 18.015625 
Q 18.3125 11.328125 20.140625 9.421875 
Q 21.96875 7.515625 27.59375 7.515625 
L 36.8125 7.515625 
L 36.8125 0 
L 27.59375 0 
Q 17.1875 0 13.234375 3.875 
Q 9.28125 7.765625 9.28125 18.015625 
L 9.28125 47.703125 
L 2.6875 47.703125 
L 2.6875 54.6875 
L 9.28125 54.6875 
L 9.28125 70.21875 
z
" id="DejaVuSans-116"/>
     <path d="M 41.109375 46.296875 
Q 39.59375 47.171875 37.8125 47.578125 
Q 36.03125 48 33.890625 48 
Q 26.265625 48 22.1875 43.046875 
Q 18.109375 38.09375 18.109375 28.8125 
L 18.109375 0 
L 9.078125 0 
L 9.078125 54.6875 
L 18.109375 54.6875 
L 18.109375 46.1875 
Q 20.953125 51.171875 25.484375 53.578125 
Q 30.03125 56 36.53125 56 
Q 37.453125 56 38.578125 55.875 
Q 39.703125 55.765625 41.0625 55.515625 
z
" id="DejaVuSans-114"/>
     <path d="M 34.28125 27.484375 
Q 23.390625 27.484375 19.1875 25 
Q 14.984375 22.515625 14.984375 16.5 
Q 14.984375 11.71875 18.140625 8.90625 
Q 21.296875 6.109375 26.703125 6.109375 
Q 34.1875 6.109375 38.703125 11.40625 
Q 43.21875 16.703125 43.21875 25.484375 
L 43.21875 27.484375 
z
M 52.203125 31.203125 
L 52.203125 0 
L 43.21875 0 
L 43.21875 8.296875 
Q 40.140625 3.328125 35.546875 0.953125 
Q 30.953125 -1.421875 24.3125 -1.421875 
Q 15.921875 -1.421875 10.953125 3.296875 
Q 6 8.015625 6 15.921875 
Q 6 25.140625 12.171875 29.828125 
Q 18.359375 34.515625 30.609375 34.515625 
L 43.21875 34.515625 
L 43.21875 35.40625 
Q 43.21875 41.609375 39.140625 45 
Q 35.0625 48.390625 27.6875 48.390625 
Q 23 48.390625 18.546875 47.265625 
Q 14.109375 46.140625 10.015625 43.890625 
L 10.015625 52.203125 
Q 14.9375 54.109375 19.578125 55.046875 
Q 24.21875 56 28.609375 56 
Q 40.484375 56 46.34375 49.84375 
Q 52.203125 43.703125 52.203125 31.203125 
z
" id="DejaVuSans-97"/>
     <path d="M 8.5 21.578125 
L 8.5 54.6875 
L 17.484375 54.6875 
L 17.484375 21.921875 
Q 17.484375 14.15625 20.5 10.265625 
Q 23.53125 6.390625 29.59375 6.390625 
Q 36.859375 6.390625 41.078125 11.03125 
Q 45.3125 15.671875 45.3125 23.6875 
L 45.3125 54.6875 
L 54.296875 54.6875 
L 54.296875 0 
L 45.3125 0 
L 45.3125 8.40625 
Q 42.046875 3.421875 37.71875 1 
Q 33.40625 -1.421875 27.6875 -1.421875 
Q 18.265625 -1.421875 13.375 4.4375 
Q 8.5 10.296875 8.5 21.578125 
z
M 31.109375 56 
z
" id="DejaVuSans-117"/>
     <path d="M 11.71875 12.40625 
L 22.015625 12.40625 
L 22.015625 4 
L 14.015625 -11.625 
L 7.71875 -11.625 
L 11.71875 4 
z
" id="DejaVuSans-44"/>
     <path d="M 9.8125 72.90625 
L 23.09375 72.90625 
L 55.421875 11.921875 
L 55.421875 72.90625 
L 64.984375 72.90625 
L 64.984375 0 
L 51.703125 0 
L 19.390625 60.984375 
L 19.390625 0 
L 9.8125 0 
z
" id="DejaVuSans-78"/>
     <path d="M 9.421875 75.984375 
L 18.40625 75.984375 
L 18.40625 0 
L 9.421875 0 
z
" id="DejaVuSans-108"/>
     <path d="M 10.59375 45.40625 
L 73.1875 45.40625 
L 73.1875 37.203125 
L 10.59375 37.203125 
z
M 10.59375 25.484375 
L 73.1875 25.484375 
L 73.1875 17.1875 
L 10.59375 17.1875 
z
" id="DejaVuSans-61"/>
     <path d="M 34.1875 63.1875 
L 20.796875 26.90625 
L 47.609375 26.90625 
z
M 28.609375 72.90625 
L 39.796875 72.90625 
L 67.578125 0 
L 57.328125 0 
L 50.6875 18.703125 
L 17.828125 18.703125 
L 11.1875 0 
L 0.78125 0 
z
" id="DejaVuSans-65"/>
     <path d="M 54.890625 33.015625 
L 54.890625 0 
L 45.90625 0 
L 45.90625 32.71875 
Q 45.90625 40.484375 42.875 44.328125 
Q 39.84375 48.1875 33.796875 48.1875 
Q 26.515625 48.1875 22.3125 43.546875 
Q 18.109375 38.921875 18.109375 30.90625 
L 18.109375 0 
L 9.078125 0 
L 9.078125 54.6875 
L 18.109375 54.6875 
L 18.109375 46.1875 
Q 21.34375 51.125 25.703125 53.5625 
Q 30.078125 56 35.796875 56 
Q 45.21875 56 50.046875 50.171875 
Q 54.890625 44.34375 54.890625 33.015625 
z
" id="DejaVuSans-110"/>
     <path d="M 45.40625 46.390625 
L 45.40625 75.984375 
L 54.390625 75.984375 
L 54.390625 0 
L 45.40625 0 
L 45.40625 8.203125 
Q 42.578125 3.328125 38.25 0.953125 
Q 33.9375 -1.421875 27.875 -1.421875 
Q 17.96875 -1.421875 11.734375 6.484375 
Q 5.515625 14.40625 5.515625 27.296875 
Q 5.515625 40.1875 11.734375 48.09375 
Q 17.96875 56 27.875 56 
Q 33.9375 56 38.25 53.625 
Q 42.578125 51.265625 45.40625 46.390625 
z
M 14.796875 27.296875 
Q 14.796875 17.390625 18.875 11.75 
Q 22.953125 6.109375 30.078125 6.109375 
Q 37.203125 6.109375 41.296875 11.75 
Q 45.40625 17.390625 45.40625 27.296875 
Q 45.40625 37.203125 41.296875 42.84375 
Q 37.203125 48.484375 30.078125 48.484375 
Q 22.953125 48.484375 18.875 42.84375 
Q 14.796875 37.203125 14.796875 27.296875 
z
" id="DejaVuSans-100"/>
     <path d="M 48.78125 52.59375 
L 48.78125 44.1875 
Q 44.96875 46.296875 41.140625 47.34375 
Q 37.3125 48.390625 33.40625 48.390625 
Q 24.65625 48.390625 19.8125 42.84375 
Q 14.984375 37.3125 14.984375 27.296875 
Q 14.984375 17.28125 19.8125 11.734375 
Q 24.65625 6.203125 33.40625 6.203125 
Q 37.3125 6.203125 41.140625 7.25 
Q 44.96875 8.296875 48.78125 10.40625 
L 48.78125 2.09375 
Q 45.015625 0.34375 40.984375 -0.53125 
Q 36.96875 -1.421875 32.421875 -1.421875 
Q 20.0625 -1.421875 12.78125 6.34375 
Q 5.515625 14.109375 5.515625 27.296875 
Q 5.515625 40.671875 12.859375 48.328125 
Q 20.21875 56 33.015625 56 
Q 37.15625 56 41.109375 55.140625 
Q 45.0625 54.296875 48.78125 52.59375 
z
" id="DejaVuSans-99"/>
     <path d="M 40.578125 39.3125 
Q 47.65625 37.796875 51.625 33 
Q 55.609375 28.21875 55.609375 21.1875 
Q 55.609375 10.40625 48.1875 4.484375 
Q 40.765625 -1.421875 27.09375 -1.421875 
Q 22.515625 -1.421875 17.65625 -0.515625 
Q 12.796875 0.390625 7.625 2.203125 
L 7.625 11.71875 
Q 11.71875 9.328125 16.59375 8.109375 
Q 21.484375 6.890625 26.8125 6.890625 
Q 36.078125 6.890625 40.9375 10.546875 
Q 45.796875 14.203125 45.796875 21.1875 
Q 45.796875 27.640625 41.28125 31.265625 
Q 36.765625 34.90625 28.71875 34.90625 
L 20.21875 34.90625 
L 20.21875 43.015625 
L 29.109375 43.015625 
Q 36.375 43.015625 40.234375 45.921875 
Q 44.09375 48.828125 44.09375 54.296875 
Q 44.09375 59.90625 40.109375 62.90625 
Q 36.140625 65.921875 28.71875 65.921875 
Q 24.65625 65.921875 20.015625 65.03125 
Q 15.375 64.15625 9.8125 62.3125 
L 9.8125 71.09375 
Q 15.4375 72.65625 20.34375 73.4375 
Q 25.25 74.21875 29.59375 74.21875 
Q 40.828125 74.21875 47.359375 69.109375 
Q 53.90625 64.015625 53.90625 55.328125 
Q 53.90625 49.265625 50.4375 45.09375 
Q 46.96875 40.921875 40.578125 39.3125 
z
" id="DejaVuSans-51"/>
    </defs>
    <g transform="translate(117.608125 20.88)scale(0.12 -0.12)">
     <use xlink:href="#DejaVuSans-83"/>
     <use x="63.476562" xlink:href="#DejaVuSans-116"/>
     <use x="102.685547" xlink:href="#DejaVuSans-114"/>
     <use x="143.798828" xlink:href="#DejaVuSans-105"/>
     <use x="171.582031" xlink:href="#DejaVuSans-97"/>
     <use x="232.861328" xlink:href="#DejaVuSans-116"/>
     <use x="272.070312" xlink:href="#DejaVuSans-117"/>
     <use x="335.449219" xlink:href="#DejaVuSans-109"/>
     <use x="432.861328" xlink:href="#DejaVuSans-44"/>
     <use x="464.648438" xlink:href="#DejaVuSans-32"/>
     <use x="496.435547" xlink:href="#DejaVuSans-78"/>
     <use x="571.240234" xlink:href="#DejaVuSans-117"/>
     <use x="634.619141" xlink:href="#DejaVuSans-109"/>
     <use x="732.03125" xlink:href="#DejaVuSans-32"/>
     <use x="763.818359" xlink:href="#DejaVuSans-84"/>
     <use x="824.683594" xlink:href="#DejaVuSans-114"/>
     <use x="865.796875" xlink:href="#DejaVuSans-105"/>
     <use x="893.580078" xlink:href="#DejaVuSans-97"/>
     <use x="954.859375" xlink:href="#DejaVuSans-108"/>
     <use x="982.642578" xlink:href="#DejaVuSans-115"/>
     <use x="1034.742188" xlink:href="#DejaVuSans-61"/>
     <use x="1118.53125" xlink:href="#DejaVuSans-49"/>
     <use x="1182.154297" xlink:href="#DejaVuSans-48"/>
     <use x="1245.777344" xlink:href="#DejaVuSans-32"/>
     <use x="1277.564453" xlink:href="#DejaVuSans-65"/>
     <use x="1345.972656" xlink:href="#DejaVuSans-108"/>
     <use x="1373.755859" xlink:href="#DejaVuSans-108"/>
     <use x="1401.539062" xlink:href="#DejaVuSans-32"/>
     <use x="1433.326172" xlink:href="#DejaVuSans-117"/>
     <use x="1496.705078" xlink:href="#DejaVuSans-110"/>
     <use x="1560.083984" xlink:href="#DejaVuSans-115"/>
     <use x="1612.183594" xlink:href="#DejaVuSans-116"/>
     <use x="1651.392578" xlink:href="#DejaVuSans-105"/>
     <use x="1679.175781" xlink:href="#DejaVuSans-109"/>
     <use x="1776.587891" xlink:href="#DejaVuSans-117"/>
     <use x="1839.966797" xlink:href="#DejaVuSans-108"/>
     <use x="1867.75" xlink:href="#DejaVuSans-97"/>
     <use x="1929.029297" xlink:href="#DejaVuSans-116"/>
     <use x="1968.238281" xlink:href="#DejaVuSans-101"/>
     <use x="2029.761719" xlink:href="#DejaVuSans-100"/>
     <use x="2093.238281" xlink:href="#DejaVuSans-32"/>
     <use x="2125.025391" xlink:href="#DejaVuSans-116"/>
     <use x="2164.234375" xlink:href="#DejaVuSans-114"/>
     <use x="2205.347656" xlink:href="#DejaVuSans-105"/>
     <use x="2233.130859" xlink:href="#DejaVuSans-97"/>
     <use x="2294.410156" xlink:href="#DejaVuSans-108"/>
     <use x="2322.193359" xlink:href="#DejaVuSans-115"/>
     <use x="2374.292969" xlink:href="#DejaVuSans-44"/>
     <use x="2406.080078" xlink:href="#DejaVuSans-32"/>
     <use x="2437.867188" xlink:href="#DejaVuSans-78"/>
     <use x="2512.671875" xlink:href="#DejaVuSans-117"/>
     <use x="2576.050781" xlink:href="#DejaVuSans-109"/>
     <use x="2673.462891" xlink:href="#DejaVuSans-32"/>
     <use x="2705.25" xlink:href="#DejaVuSans-99"/>
     <use x="2760.230469" xlink:href="#DejaVuSans-101"/>
     <use x="2821.753906" xlink:href="#DejaVuSans-108"/>
     <use x="2849.537109" xlink:href="#DejaVuSans-108"/>
     <use x="2877.320312" xlink:href="#DejaVuSans-115"/>
     <use x="2929.419922" xlink:href="#DejaVuSans-32"/>
     <use x="2961.207031" xlink:href="#DejaVuSans-61"/>
     <use x="3044.996094" xlink:href="#DejaVuSans-32"/>
     <use x="3076.783203" xlink:href="#DejaVuSans-51"/>
     <use x="3140.40625" xlink:href="#DejaVuSans-53"/>
     <use x="3204.029297" xlink:href="#DejaVuSans-49"/>
    </g>
   </g>
   <g id="legend_1">
    <g id="patch_7">
     <path d="M 70.52 168.76 
L 204.2 168.76 
Q 206.6 168.76 206.6 166.36 
L 206.6 132.3325 
Q 206.6 129.9325 204.2 129.9325 
L 70.52 129.9325 
Q 68.12 129.9325 68.12 132.3325 
L 68.12 166.36 
Q 68.12 168.76 70.52 168.76 
z
" style="fill:#ffffff;opacity:0.8;stroke:#cccccc;stroke-linejoin:miter;"/>
    </g>
    <g id="line2d_14">
     <path d="M 72.92 139.650625 
L 96.92 139.650625 
" style="fill:none;stroke:#0000ff;stroke-linecap:square;stroke-width:1.5;"/>
    </g>
    <g id="line2d_15"/>
    <g id="text_16">
     <!-- COM-Binomial $\nu$ -->
     <defs>
      <path d="M 4.890625 31.390625 
L 31.203125 31.390625 
L 31.203125 23.390625 
L 4.890625 23.390625 
z
" id="DejaVuSans-45"/>
      <path d="M 19.671875 34.8125 
L 19.671875 8.109375 
L 35.5 8.109375 
Q 43.453125 8.109375 47.28125 11.40625 
Q 51.125 14.703125 51.125 21.484375 
Q 51.125 28.328125 47.28125 31.5625 
Q 43.453125 34.8125 35.5 34.8125 
z
M 19.671875 64.796875 
L 19.671875 42.828125 
L 34.28125 42.828125 
Q 41.5 42.828125 45.03125 45.53125 
Q 48.578125 48.25 48.578125 53.8125 
Q 48.578125 59.328125 45.03125 62.0625 
Q 41.5 64.796875 34.28125 64.796875 
z
M 9.8125 72.90625 
L 35.015625 72.90625 
Q 46.296875 72.90625 52.390625 68.21875 
Q 58.5 63.53125 58.5 54.890625 
Q 58.5 48.1875 55.375 44.234375 
Q 52.25 40.28125 46.1875 39.3125 
Q 53.46875 37.75 57.5 32.78125 
Q 61.53125 27.828125 61.53125 20.40625 
Q 61.53125 10.640625 54.890625 5.3125 
Q 48.25 0 35.984375 0 
L 9.8125 0 
z
" id="DejaVuSans-66"/>
      <path d="M 30.609375 48.390625 
Q 23.390625 48.390625 19.1875 42.75 
Q 14.984375 37.109375 14.984375 27.296875 
Q 14.984375 17.484375 19.15625 11.84375 
Q 23.34375 6.203125 30.609375 6.203125 
Q 37.796875 6.203125 41.984375 11.859375 
Q 46.1875 17.53125 46.1875 27.296875 
Q 46.1875 37.015625 41.984375 42.703125 
Q 37.796875 48.390625 30.609375 48.390625 
z
M 30.609375 56 
Q 42.328125 56 49.015625 48.375 
Q 55.71875 40.765625 55.71875 27.296875 
Q 55.71875 13.875 49.015625 6.21875 
Q 42.328125 -1.421875 30.609375 -1.421875 
Q 18.84375 -1.421875 12.171875 6.21875 
Q 5.515625 13.875 5.515625 27.296875 
Q 5.515625 40.765625 12.171875 48.375 
Q 18.84375 56 30.609375 56 
z
" id="DejaVuSans-111"/>
     </defs>
     <g transform="translate(106.52 143.850625)scale(0.12 -0.12)">
      <use transform="translate(0 0.015625)" xlink:href="#DejaVuSans-67"/>
      <use transform="translate(69.824219 0.015625)" xlink:href="#DejaVuSans-79"/>
      <use transform="translate(148.535156 0.015625)" xlink:href="#DejaVuSans-77"/>
      <use transform="translate(234.814453 0.015625)" xlink:href="#DejaVuSans-45"/>
      <use transform="translate(270.898438 0.015625)" xlink:href="#DejaVuSans-66"/>
      <use transform="translate(339.501953 0.015625)" xlink:href="#DejaVuSans-105"/>
      <use transform="translate(367.285156 0.015625)" xlink:href="#DejaVuSans-110"/>
      <use transform="translate(430.664062 0.015625)" xlink:href="#DejaVuSans-111"/>
      <use transform="translate(491.845703 0.015625)" xlink:href="#DejaVuSans-109"/>
      <use transform="translate(589.257812 0.015625)" xlink:href="#DejaVuSans-105"/>
      <use transform="translate(617.041016 0.015625)" xlink:href="#DejaVuSans-97"/>
      <use transform="translate(678.320312 0.015625)" xlink:href="#DejaVuSans-108"/>
      <use transform="translate(706.103516 0.015625)" xlink:href="#DejaVuSans-32"/>
      <use transform="translate(737.890625 0.015625)" xlink:href="#DejaVuSans-Oblique-957"/>
     </g>
    </g>
    <g id="patch_8">
     <path d="M 72.92 161.464375 
L 96.92 161.464375 
L 96.92 153.064375 
L 72.92 153.064375 
z
" style="fill:#0000ff;opacity:0.3;stroke:#0000ff;stroke-linejoin:miter;"/>
    </g>
    <g id="text_17">
     <!-- Std. Err. -->
     <defs>
      <path d="M 9.8125 72.90625 
L 55.90625 72.90625 
L 55.90625 64.59375 
L 19.671875 64.59375 
L 19.671875 43.015625 
L 54.390625 43.015625 
L 54.390625 34.71875 
L 19.671875 34.71875 
L 19.671875 8.296875 
L 56.78125 8.296875 
L 56.78125 0 
L 9.8125 0 
z
" id="DejaVuSans-69"/>
     </defs>
     <g transform="translate(106.52 161.464375)scale(0.12 -0.12)">
      <use xlink:href="#DejaVuSans-83"/>
      <use x="63.476562" xlink:href="#DejaVuSans-116"/>
      <use x="102.685547" xlink:href="#DejaVuSans-100"/>
      <use x="166.162109" xlink:href="#DejaVuSans-46"/>
      <use x="197.949219" xlink:href="#DejaVuSans-32"/>
      <use x="229.736328" xlink:href="#DejaVuSans-69"/>
      <use x="292.919922" xlink:href="#DejaVuSans-114"/>
      <use x="334.017578" xlink:href="#DejaVuSans-114"/>
      <use x="374.990234" xlink:href="#DejaVuSans-46"/>
     </g>
    </g>
   </g>
  </g>
 </g>
 <defs>
  <clipPath id="p4ba9606875">
   <rect height="147.88" width="503.08" x="62.12" y="26.88"/>
  </clipPath>
 </defs>
</svg>
