<?xml version="1.0" encoding="utf-8" standalone="no"?>
<!DOCTYPE svg PUBLIC "-//W3C//DTD SVG 1.1//EN"
  "http://www.w3.org/Graphics/SVG/1.1/DTD/svg11.dtd">
<!-- Created with matplotlib (https://matplotlib.org/) -->
<svg height="288pt" version="1.1" viewBox="0 0 720 288" width="720pt" xmlns="http://www.w3.org/2000/svg" xmlns:xlink="http://www.w3.org/1999/xlink">
 <defs>
  <style type="text/css">
*{stroke-linecap:butt;stroke-linejoin:round;white-space:pre;}
  </style>
 </defs>
 <g id="figure_1">
  <g id="patch_1">
   <path d="M 0 288 
L 720 288 
L 720 0 
L 0 0 
z
" style="fill:#ffffff;"/>
  </g>
  <g id="axes_1">
   <g id="patch_2">
    <path d="M 90 256.32 
L 648 256.32 
L 648 34.56 
L 90 34.56 
z
" style="fill:#ffffff;"/>
   </g>
   <g id="PolyCollection_1">
    <defs>
     <path d="M 142.269796 -31.68 
L 142.269796 -264.528 
L 597.78 -264.528 
L 597.78 -31.68 
L 597.78 -31.68 
L 142.269796 -31.68 
z
" id="m6a853c4e6e" style="stroke:#808080;stroke-opacity:0.3;"/>
    </defs>
    <g clip-path="url(#p3095b4d90b)">
     <use style="fill:#808080;fill-opacity:0.3;stroke:#808080;stroke-opacity:0.3;" x="0" xlink:href="#m6a853c4e6e" y="288"/>
    </g>
   </g>
   <g id="matplotlib.axis_1">
    <g id="xtick_1">
     <g id="line2d_1">
      <defs>
       <path d="M 0 0 
L 0 3.5 
" id="m266583c421" style="stroke:#000000;stroke-width:0.8;"/>
      </defs>
      <g>
       <use style="stroke:#000000;stroke-width:0.8;" x="90" xlink:href="#m266583c421" y="256.32"/>
      </g>
     </g>
     <g id="text_1">
      <!-- 0.0 -->
      <defs>
       <path d="M 31.78125 66.40625 
Q 24.171875 66.40625 20.328125 58.90625 
Q 16.5 51.421875 16.5 36.375 
Q 16.5 21.390625 20.328125 13.890625 
Q 24.171875 6.390625 31.78125 6.390625 
Q 39.453125 6.390625 43.28125 13.890625 
Q 47.125 21.390625 47.125 36.375 
Q 47.125 51.421875 43.28125 58.90625 
Q 39.453125 66.40625 31.78125 66.40625 
z
M 31.78125 74.21875 
Q 44.046875 74.21875 50.515625 64.515625 
Q 56.984375 54.828125 56.984375 36.375 
Q 56.984375 17.96875 50.515625 8.265625 
Q 44.046875 -1.421875 31.78125 -1.421875 
Q 19.53125 -1.421875 13.0625 8.265625 
Q 6.59375 17.96875 6.59375 36.375 
Q 6.59375 54.828125 13.0625 64.515625 
Q 19.53125 74.21875 31.78125 74.21875 
z
" id="DejaVuSans-48"/>
       <path d="M 10.6875 12.40625 
L 21 12.40625 
L 21 0 
L 10.6875 0 
z
" id="DejaVuSans-46"/>
      </defs>
      <g transform="translate(82.048438 270.918437)scale(0.1 -0.1)">
       <use xlink:href="#DejaVuSans-48"/>
       <use x="63.623047" xlink:href="#DejaVuSans-46"/>
       <use x="95.410156" xlink:href="#DejaVuSans-48"/>
      </g>
     </g>
    </g>
    <g id="xtick_2">
     <g id="line2d_2">
      <g>
       <use style="stroke:#000000;stroke-width:0.8;" x="203.877551" xlink:href="#m266583c421" y="256.32"/>
      </g>
     </g>
     <g id="text_2">
      <!-- 0.5 -->
      <defs>
       <path d="M 10.796875 72.90625 
L 49.515625 72.90625 
L 49.515625 64.59375 
L 19.828125 64.59375 
L 19.828125 46.734375 
Q 21.96875 47.46875 24.109375 47.828125 
Q 26.265625 48.1875 28.421875 48.1875 
Q 40.625 48.1875 47.75 41.5 
Q 54.890625 34.8125 54.890625 23.390625 
Q 54.890625 11.625 47.5625 5.09375 
Q 40.234375 -1.421875 26.90625 -1.421875 
Q 22.3125 -1.421875 17.546875 -0.640625 
Q 12.796875 0.140625 7.71875 1.703125 
L 7.71875 11.625 
Q 12.109375 9.234375 16.796875 8.0625 
Q 21.484375 6.890625 26.703125 6.890625 
Q 35.15625 6.890625 40.078125 11.328125 
Q 45.015625 15.765625 45.015625 23.390625 
Q 45.015625 31 40.078125 35.4375 
Q 35.15625 39.890625 26.703125 39.890625 
Q 22.75 39.890625 18.8125 39.015625 
Q 14.890625 38.140625 10.796875 36.28125 
z
" id="DejaVuSans-53"/>
      </defs>
      <g transform="translate(195.925989 270.918437)scale(0.1 -0.1)">
       <use xlink:href="#DejaVuSans-48"/>
       <use x="63.623047" xlink:href="#DejaVuSans-46"/>
       <use x="95.410156" xlink:href="#DejaVuSans-53"/>
      </g>
     </g>
    </g>
    <g id="xtick_3">
     <g id="line2d_3">
      <g>
       <use style="stroke:#000000;stroke-width:0.8;" x="317.755102" xlink:href="#m266583c421" y="256.32"/>
      </g>
     </g>
     <g id="text_3">
      <!-- 1.0 -->
      <defs>
       <path d="M 12.40625 8.296875 
L 28.515625 8.296875 
L 28.515625 63.921875 
L 10.984375 60.40625 
L 10.984375 69.390625 
L 28.421875 72.90625 
L 38.28125 72.90625 
L 38.28125 8.296875 
L 54.390625 8.296875 
L 54.390625 0 
L 12.40625 0 
z
" id="DejaVuSans-49"/>
      </defs>
      <g transform="translate(309.80354 270.918437)scale(0.1 -0.1)">
       <use xlink:href="#DejaVuSans-49"/>
       <use x="63.623047" xlink:href="#DejaVuSans-46"/>
       <use x="95.410156" xlink:href="#DejaVuSans-48"/>
      </g>
     </g>
    </g>
    <g id="xtick_4">
     <g id="line2d_4">
      <g>
       <use style="stroke:#000000;stroke-width:0.8;" x="431.632653" xlink:href="#m266583c421" y="256.32"/>
      </g>
     </g>
     <g id="text_4">
      <!-- 1.5 -->
      <g transform="translate(423.681091 270.918437)scale(0.1 -0.1)">
       <use xlink:href="#DejaVuSans-49"/>
       <use x="63.623047" xlink:href="#DejaVuSans-46"/>
       <use x="95.410156" xlink:href="#DejaVuSans-53"/>
      </g>
     </g>
    </g>
    <g id="xtick_5">
     <g id="line2d_5">
      <g>
       <use style="stroke:#000000;stroke-width:0.8;" x="545.510204" xlink:href="#m266583c421" y="256.32"/>
      </g>
     </g>
     <g id="text_5">
      <!-- 2.0 -->
      <defs>
       <path d="M 19.1875 8.296875 
L 53.609375 8.296875 
L 53.609375 0 
L 7.328125 0 
L 7.328125 8.296875 
Q 12.9375 14.109375 22.625 23.890625 
Q 32.328125 33.6875 34.8125 36.53125 
Q 39.546875 41.84375 41.421875 45.53125 
Q 43.3125 49.21875 43.3125 52.78125 
Q 43.3125 58.59375 39.234375 62.25 
Q 35.15625 65.921875 28.609375 65.921875 
Q 23.96875 65.921875 18.8125 64.3125 
Q 13.671875 62.703125 7.8125 59.421875 
L 7.8125 69.390625 
Q 13.765625 71.78125 18.9375 73 
Q 24.125 74.21875 28.421875 74.21875 
Q 39.75 74.21875 46.484375 68.546875 
Q 53.21875 62.890625 53.21875 53.421875 
Q 53.21875 48.921875 51.53125 44.890625 
Q 49.859375 40.875 45.40625 35.40625 
Q 44.1875 33.984375 37.640625 27.21875 
Q 31.109375 20.453125 19.1875 8.296875 
z
" id="DejaVuSans-50"/>
      </defs>
      <g transform="translate(537.558642 270.918437)scale(0.1 -0.1)">
       <use xlink:href="#DejaVuSans-50"/>
       <use x="63.623047" xlink:href="#DejaVuSans-46"/>
       <use x="95.410156" xlink:href="#DejaVuSans-48"/>
      </g>
     </g>
    </g>
    <g id="text_6">
     <!-- Time (s) -->
     <defs>
      <path d="M -0.296875 72.90625 
L 61.375 72.90625 
L 61.375 64.59375 
L 35.5 64.59375 
L 35.5 0 
L 25.59375 0 
L 25.59375 64.59375 
L -0.296875 64.59375 
z
" id="DejaVuSans-84"/>
      <path d="M 9.421875 54.6875 
L 18.40625 54.6875 
L 18.40625 0 
L 9.421875 0 
z
M 9.421875 75.984375 
L 18.40625 75.984375 
L 18.40625 64.59375 
L 9.421875 64.59375 
z
" id="DejaVuSans-105"/>
      <path d="M 52 44.1875 
Q 55.375 50.25 60.0625 53.125 
Q 64.75 56 71.09375 56 
Q 79.640625 56 84.28125 50.015625 
Q 88.921875 44.046875 88.921875 33.015625 
L 88.921875 0 
L 79.890625 0 
L 79.890625 32.71875 
Q 79.890625 40.578125 77.09375 44.375 
Q 74.3125 48.1875 68.609375 48.1875 
Q 61.625 48.1875 57.5625 43.546875 
Q 53.515625 38.921875 53.515625 30.90625 
L 53.515625 0 
L 44.484375 0 
L 44.484375 32.71875 
Q 44.484375 40.625 41.703125 44.40625 
Q 38.921875 48.1875 33.109375 48.1875 
Q 26.21875 48.1875 22.15625 43.53125 
Q 18.109375 38.875 18.109375 30.90625 
L 18.109375 0 
L 9.078125 0 
L 9.078125 54.6875 
L 18.109375 54.6875 
L 18.109375 46.1875 
Q 21.1875 51.21875 25.484375 53.609375 
Q 29.78125 56 35.6875 56 
Q 41.65625 56 45.828125 52.96875 
Q 50 49.953125 52 44.1875 
z
" id="DejaVuSans-109"/>
      <path d="M 56.203125 29.59375 
L 56.203125 25.203125 
L 14.890625 25.203125 
Q 15.484375 15.921875 20.484375 11.0625 
Q 25.484375 6.203125 34.421875 6.203125 
Q 39.59375 6.203125 44.453125 7.46875 
Q 49.3125 8.734375 54.109375 11.28125 
L 54.109375 2.78125 
Q 49.265625 0.734375 44.1875 -0.34375 
Q 39.109375 -1.421875 33.890625 -1.421875 
Q 20.796875 -1.421875 13.15625 6.1875 
Q 5.515625 13.8125 5.515625 26.8125 
Q 5.515625 40.234375 12.765625 48.109375 
Q 20.015625 56 32.328125 56 
Q 43.359375 56 49.78125 48.890625 
Q 56.203125 41.796875 56.203125 29.59375 
z
M 47.21875 32.234375 
Q 47.125 39.59375 43.09375 43.984375 
Q 39.0625 48.390625 32.421875 48.390625 
Q 24.90625 48.390625 20.390625 44.140625 
Q 15.875 39.890625 15.1875 32.171875 
z
" id="DejaVuSans-101"/>
      <path id="DejaVuSans-32"/>
      <path d="M 31 75.875 
Q 24.46875 64.65625 21.28125 53.65625 
Q 18.109375 42.671875 18.109375 31.390625 
Q 18.109375 20.125 21.3125 9.0625 
Q 24.515625 -2 31 -13.1875 
L 23.1875 -13.1875 
Q 15.875 -1.703125 12.234375 9.375 
Q 8.59375 20.453125 8.59375 31.390625 
Q 8.59375 42.28125 12.203125 53.3125 
Q 15.828125 64.359375 23.1875 75.875 
z
" id="DejaVuSans-40"/>
      <path d="M 44.28125 53.078125 
L 44.28125 44.578125 
Q 40.484375 46.53125 36.375 47.5 
Q 32.28125 48.484375 27.875 48.484375 
Q 21.1875 48.484375 17.84375 46.4375 
Q 14.5 44.390625 14.5 40.28125 
Q 14.5 37.15625 16.890625 35.375 
Q 19.28125 33.59375 26.515625 31.984375 
L 29.59375 31.296875 
Q 39.15625 29.25 43.1875 25.515625 
Q 47.21875 21.78125 47.21875 15.09375 
Q 47.21875 7.46875 41.1875 3.015625 
Q 35.15625 -1.421875 24.609375 -1.421875 
Q 20.21875 -1.421875 15.453125 -0.5625 
Q 10.6875 0.296875 5.421875 2 
L 5.421875 11.28125 
Q 10.40625 8.6875 15.234375 7.390625 
Q 20.0625 6.109375 24.8125 6.109375 
Q 31.15625 6.109375 34.5625 8.28125 
Q 37.984375 10.453125 37.984375 14.40625 
Q 37.984375 18.0625 35.515625 20.015625 
Q 33.0625 21.96875 24.703125 23.78125 
L 21.578125 24.515625 
Q 13.234375 26.265625 9.515625 29.90625 
Q 5.8125 33.546875 5.8125 39.890625 
Q 5.8125 47.609375 11.28125 51.796875 
Q 16.75 56 26.8125 56 
Q 31.78125 56 36.171875 55.265625 
Q 40.578125 54.546875 44.28125 53.078125 
z
" id="DejaVuSans-115"/>
      <path d="M 8.015625 75.875 
L 15.828125 75.875 
Q 23.140625 64.359375 26.78125 53.3125 
Q 30.421875 42.28125 30.421875 31.390625 
Q 30.421875 20.453125 26.78125 9.375 
Q 23.140625 -1.703125 15.828125 -13.1875 
L 8.015625 -13.1875 
Q 14.5 -2 17.703125 9.0625 
Q 20.90625 20.125 20.90625 31.390625 
Q 20.90625 42.671875 17.703125 53.65625 
Q 14.5 64.65625 8.015625 75.875 
z
" id="DejaVuSans-41"/>
     </defs>
     <g transform="translate(344.420625 286.11625)scale(0.12 -0.12)">
      <use xlink:href="#DejaVuSans-84"/>
      <use x="61.037109" xlink:href="#DejaVuSans-105"/>
      <use x="88.820312" xlink:href="#DejaVuSans-109"/>
      <use x="186.232422" xlink:href="#DejaVuSans-101"/>
      <use x="247.755859" xlink:href="#DejaVuSans-32"/>
      <use x="279.542969" xlink:href="#DejaVuSans-40"/>
      <use x="318.556641" xlink:href="#DejaVuSans-115"/>
      <use x="370.65625" xlink:href="#DejaVuSans-41"/>
     </g>
    </g>
   </g>
   <g id="matplotlib.axis_2">
    <g id="ytick_1">
     <g id="line2d_6">
      <defs>
       <path d="M 0 0 
L -3.5 0 
" id="m523f053e33" style="stroke:#000000;stroke-width:0.8;"/>
      </defs>
      <g>
       <use style="stroke:#000000;stroke-width:0.8;" x="90" xlink:href="#m523f053e33" y="234.364465"/>
      </g>
     </g>
     <g id="text_7">
      <!-- 0.0 -->
      <g transform="translate(67.096875 238.163684)scale(0.1 -0.1)">
       <use xlink:href="#DejaVuSans-48"/>
       <use x="63.623047" xlink:href="#DejaVuSans-46"/>
       <use x="95.410156" xlink:href="#DejaVuSans-48"/>
      </g>
     </g>
    </g>
    <g id="ytick_2">
     <g id="line2d_7">
      <g>
       <use style="stroke:#000000;stroke-width:0.8;" x="90" xlink:href="#m523f053e33" y="200.916273"/>
      </g>
     </g>
     <g id="text_8">
      <!-- 0.5 -->
      <g transform="translate(67.096875 204.715492)scale(0.1 -0.1)">
       <use xlink:href="#DejaVuSans-48"/>
       <use x="63.623047" xlink:href="#DejaVuSans-46"/>
       <use x="95.410156" xlink:href="#DejaVuSans-53"/>
      </g>
     </g>
    </g>
    <g id="ytick_3">
     <g id="line2d_8">
      <g>
       <use style="stroke:#000000;stroke-width:0.8;" x="90" xlink:href="#m523f053e33" y="167.468081"/>
      </g>
     </g>
     <g id="text_9">
      <!-- 1.0 -->
      <g transform="translate(67.096875 171.2673)scale(0.1 -0.1)">
       <use xlink:href="#DejaVuSans-49"/>
       <use x="63.623047" xlink:href="#DejaVuSans-46"/>
       <use x="95.410156" xlink:href="#DejaVuSans-48"/>
      </g>
     </g>
    </g>
    <g id="ytick_4">
     <g id="line2d_9">
      <g>
       <use style="stroke:#000000;stroke-width:0.8;" x="90" xlink:href="#m523f053e33" y="134.01989"/>
      </g>
     </g>
     <g id="text_10">
      <!-- 1.5 -->
      <g transform="translate(67.096875 137.819108)scale(0.1 -0.1)">
       <use xlink:href="#DejaVuSans-49"/>
       <use x="63.623047" xlink:href="#DejaVuSans-46"/>
       <use x="95.410156" xlink:href="#DejaVuSans-53"/>
      </g>
     </g>
    </g>
    <g id="ytick_5">
     <g id="line2d_10">
      <g>
       <use style="stroke:#000000;stroke-width:0.8;" x="90" xlink:href="#m523f053e33" y="100.571698"/>
      </g>
     </g>
     <g id="text_11">
      <!-- 2.0 -->
      <g transform="translate(67.096875 104.370917)scale(0.1 -0.1)">
       <use xlink:href="#DejaVuSans-50"/>
       <use x="63.623047" xlink:href="#DejaVuSans-46"/>
       <use x="95.410156" xlink:href="#DejaVuSans-48"/>
      </g>
     </g>
    </g>
    <g id="ytick_6">
     <g id="line2d_11">
      <g>
       <use style="stroke:#000000;stroke-width:0.8;" x="90" xlink:href="#m523f053e33" y="67.123506"/>
      </g>
     </g>
     <g id="text_12">
      <!-- 2.5 -->
      <g transform="translate(67.096875 70.922725)scale(0.1 -0.1)">
       <use xlink:href="#DejaVuSans-50"/>
       <use x="63.623047" xlink:href="#DejaVuSans-46"/>
       <use x="95.410156" xlink:href="#DejaVuSans-53"/>
      </g>
     </g>
    </g>
   </g>
   <g id="line2d_12">
    <path clip-path="url(#p3095b4d90b)" d="M 90 177.595877 
L 92.277551 167.468161 
L 94.555102 171.680287 
L 96.832653 182.421546 
L 99.110204 187.927784 
L 101.387755 176.516781 
L 103.665306 167.46806 
L 105.942857 176.581593 
L 108.220408 156.057544 
L 110.497959 151.05108 
L 112.77551 147.29052 
L 115.053061 161.9766 
L 117.330612 167.467904 
L 119.608163 161.9766 
L 124.163265 152.222935 
L 126.440816 146.991974 
L 128.718367 158.045702 
L 130.995918 144.199726 
L 133.273469 133.829026 
L 135.55102 116.307225 
L 137.828571 121.650158 
L 140.106122 136.011969 
L 142.383673 78.346267 
L 144.661224 81.617006 
L 146.938776 87.656723 
L 149.216327 88.320714 
L 151.493878 81.617006 
L 153.771429 90.158298 
L 156.04898 94.792623 
L 158.326531 143.115653 
L 160.604082 144.081393 
L 162.881633 172.850077 
L 165.159184 179.837966 
L 167.436735 161.893699 
L 169.714286 148.976211 
L 171.991837 152.402282 
L 174.269388 153.297738 
L 176.546939 148.93534 
L 178.82449 162.742063 
L 181.102041 153.983667 
L 183.379592 148.703879 
L 185.657143 122.05208 
L 187.934694 150.027768 
L 190.212245 116.256046 
L 192.489796 157.565335 
L 194.767347 146.635887 
L 197.044898 157.538991 
L 199.322449 137.52482 
L 201.6 141.28079 
L 203.877551 149.357822 
L 206.155102 163.002049 
L 208.432653 161.449086 
L 210.710204 167.468081 
L 212.987755 167.468081 
L 215.265306 161.9766 
L 217.542857 171.677559 
L 219.820408 184.977959 
L 222.097959 199.214346 
L 224.37551 217.599813 
L 226.653061 217.599813 
L 228.930612 214.270894 
L 231.208163 216.323736 
L 233.485714 212.078374 
L 235.763265 215.395868 
L 238.040816 206.806196 
L 240.318367 198.765696 
L 242.595918 199.337815 
L 244.873469 199.337815 
L 247.15102 184.543354 
L 249.428571 181.438534 
L 251.706122 181.828463 
L 253.983673 183.847976 
L 256.261224 187.446621 
L 258.538776 175.660834 
L 260.816327 177.311623 
L 263.093878 177.311623 
L 265.371429 169.191295 
L 267.64898 169.191295 
L 269.926531 175.718226 
L 272.204082 167.468216 
L 274.481633 150.28333 
L 276.759184 139.711576 
L 279.036735 149.602729 
L 281.314286 144.605685 
L 283.591837 158.780064 
L 285.869388 159.375429 
L 288.146939 149.900373 
L 290.42449 148.039255 
L 292.702041 128.233825 
L 294.979592 130.910144 
L 297.257143 158.917128 
L 299.534694 162.995485 
L 301.812245 143.115653 
L 304.089796 177.180237 
L 306.367347 183.015606 
L 308.644898 172.949004 
L 310.922449 183.016165 
L 315.477551 192.477471 
L 317.755102 210.341303 
L 320.032653 187.795926 
L 322.310204 192.558496 
L 324.587755 187.795926 
L 326.865306 167.468208 
L 329.142857 173.818535 
L 331.420408 167.46809 
L 333.697959 155.64837 
L 335.97551 179.51598 
L 338.253061 173.818535 
L 340.530612 167.468322 
L 342.808163 175.972077 
L 345.085714 174.610874 
L 347.363265 159.836045 
L 349.640816 152.592818 
L 351.918367 135.947647 
L 354.195918 162.34896 
L 356.473469 155.64837 
L 358.75102 115.026497 
L 361.028571 101.832916 
L 363.306122 156.505756 
L 365.583673 181.247235 
L 367.861224 165.247665 
L 370.138776 183.391494 
L 372.416327 183.391494 
L 374.693878 201.467403 
L 376.971429 192.477471 
L 379.24898 191.631628 
L 381.526531 182.78633 
L 383.804082 190.613827 
L 386.081633 178.220046 
L 388.359184 165.091262 
L 390.636735 170.342891 
L 392.914286 157.824709 
L 395.191837 170.174536 
L 397.469388 164.016672 
L 399.746939 162.562104 
L 404.302041 192.078952 
L 406.579592 191.011663 
L 408.857143 191.011663 
L 411.134694 184.467972 
L 413.412245 184.4689 
L 415.689796 197.821306 
L 417.967347 201.64226 
L 422.522449 214.411792 
L 424.8 197.821306 
L 427.077551 191.011663 
L 429.355102 164.016678 
L 431.632653 164.016678 
L 433.910204 171.570952 
L 436.187755 181.72191 
L 438.465306 157.538115 
L 440.742857 161.751841 
L 443.020408 141.188524 
L 445.297959 165.003454 
L 447.57551 171.635581 
L 449.853061 165.0812 
L 452.130612 163.735705 
L 454.408163 167.468388 
L 456.685714 169.924917 
L 458.963265 166.253023 
L 461.240816 170.193019 
L 463.518367 187.315278 
L 465.795918 197.869749 
L 468.073469 187.642927 
L 470.35102 180.885883 
L 472.628571 190.507393 
L 474.906122 186.9268 
L 477.183673 186.501933 
L 479.461224 191.618042 
L 481.738776 176.712517 
L 484.016327 186.82159 
L 486.293878 139.551164 
L 488.571429 133.71702 
L 490.84898 154.848236 
L 493.126531 139.420144 
L 495.404082 122.05208 
L 497.681633 143.781049 
L 499.959184 122.05208 
L 502.236735 120.22084 
L 504.514286 130.679858 
L 506.791837 128.554375 
L 509.069388 125.865131 
L 511.346939 123.425224 
L 513.62449 110.828386 
L 515.902041 121.650158 
L 518.179592 133.753967 
L 520.457143 133.71702 
L 522.734694 145.690297 
L 525.012245 155.903814 
L 527.289796 154.3476 
L 529.567347 143.115653 
L 531.844898 126.731858 
L 534.122449 143.115653 
L 536.4 143.069907 
L 538.677551 172.949004 
L 540.955102 167.46812 
L 543.232653 179.051235 
L 545.510204 187.221661 
L 547.787755 191.37652 
L 550.065306 193.628411 
L 552.342857 209.996617 
L 554.620408 221.864264 
L 556.897959 209.996617 
L 559.17551 205.957709 
L 561.453061 196.677151 
L 563.730612 178.178751 
L 566.008163 167.468141 
L 568.285714 164.137606 
L 570.563265 164.13772 
L 572.840816 172.663665 
L 575.118367 185.248206 
L 577.395918 173.245547 
L 579.673469 182.78633 
L 581.95102 179.898539 
L 584.228571 181.323034 
L 586.506122 185.299179 
L 588.783673 184.050012 
L 591.061224 173.302727 
L 593.338776 178.327227 
L 595.616327 169.601349 
L 597.893878 151.316941 
L 600.171429 161.449086 
L 602.44898 151.316941 
L 604.726531 154.3476 
L 607.004082 144.005986 
L 609.281633 143.115653 
L 611.559184 148.649995 
L 613.836735 167.468208 
L 616.114286 156.768468 
L 618.391837 167.468174 
L 620.669388 164.291058 
L 622.946939 205.911682 
L 625.22449 217.448907 
L 627.502041 207.035947 
L 629.779592 212.235423 
L 632.057143 247.507872 
L 634.334694 249.444488 
L 636.612245 233.83716 
L 638.889796 234.597147 
L 641.167347 245.77215 
L 643.444898 234.597147 
L 645.722449 204.674828 
L 648 204.67629 
L 648 204.67629 
" style="fill:none;stroke:#0000ff;stroke-linecap:square;stroke-opacity:0.05;stroke-width:1.5;"/>
   </g>
   <g id="line2d_13">
    <path clip-path="url(#p3095b4d90b)" d="M 90 206.74864 
L 92.277551 191.817764 
L 94.555102 199.248186 
L 99.110204 170.004894 
L 101.387755 162.891585 
L 103.665306 162.34896 
L 105.942857 181.898972 
L 108.220408 156.505756 
L 110.497959 165.247665 
L 112.77551 167.46812 
L 115.053061 167.468371 
L 117.330612 159.401102 
L 119.608163 159.401102 
L 124.163265 177.854491 
L 126.440816 177.418269 
L 128.718367 177.418269 
L 130.995918 191.865945 
L 133.273469 184.513128 
L 135.55102 188.441307 
L 140.106122 208.021357 
L 142.383673 208.021357 
L 144.661224 204.674828 
L 146.938776 191.011663 
L 149.216327 204.67629 
L 151.493878 199.248186 
L 153.771429 158.704602 
L 156.04898 155.925979 
L 158.326531 151.280617 
L 160.604082 133.760195 
L 162.881633 158.045702 
L 165.159184 158.045702 
L 167.436735 153.975272 
L 169.714286 153.986819 
L 174.269388 144.909055 
L 176.546939 149.431117 
L 178.82449 175.604937 
L 181.102041 186.107372 
L 183.379592 212.151697 
L 185.657143 200.360779 
L 187.934694 203.982333 
L 190.212245 193.174683 
L 192.489796 195.315758 
L 194.767347 197.213152 
L 199.322449 186.095423 
L 201.6 186.291161 
L 203.877551 174.586712 
L 206.155102 177.41051 
L 208.432653 189.475051 
L 210.710204 184.977959 
L 212.987755 200.083095 
L 215.265306 201.244887 
L 217.542857 182.384684 
L 219.820408 192.084703 
L 222.097959 210.295345 
L 224.37551 200.26758 
L 226.653061 216.045849 
L 228.930612 196.675848 
L 231.208163 202.023243 
L 233.485714 202.023243 
L 235.763265 208.985639 
L 238.040816 211.390511 
L 240.318367 227.953688 
L 242.595918 223.608024 
L 244.873469 223.606511 
L 247.15102 221.888013 
L 249.428571 195.814403 
L 251.706122 212.232336 
L 253.983673 217.413324 
L 256.261224 223.196145 
L 258.538776 199.248186 
L 260.816327 184.467972 
L 263.093878 175.891656 
L 265.371429 175.891656 
L 267.64898 130.327103 
L 269.926531 139.817774 
L 272.204082 221.121939 
L 274.481633 221.121939 
L 276.759184 178.368976 
L 279.036735 182.137894 
L 283.591837 211.111629 
L 285.869388 196.886227 
L 288.146939 201.408754 
L 290.42449 214.567257 
L 292.702041 214.567257 
L 294.979592 175.891656 
L 297.257143 167.46808 
L 299.534694 207.078475 
L 301.812245 190.475985 
L 304.089796 167.468034 
L 306.367347 177.54405 
L 308.644898 184.251757 
L 310.922449 191.817764 
L 313.2 184.467972 
L 315.477551 191.011663 
L 317.755102 182.665308 
L 320.032653 182.664896 
L 322.310204 157.796663 
L 324.587755 151.280668 
L 326.865306 128.414952 
L 329.142857 85.659872 
L 331.420408 101.43996 
L 333.697959 138.711795 
L 335.97551 139.551164 
L 338.253061 139.551164 
L 340.530612 132.270823 
L 342.808163 122.105413 
L 345.085714 133.71702 
L 347.363265 151.280617 
L 349.640816 164.291058 
L 351.918367 170.888938 
L 354.195918 148.993999 
L 356.473469 114.54567 
L 358.75102 91.589036 
L 361.028571 101.294701 
L 363.306122 85.659872 
L 365.583673 90.230213 
L 367.861224 179.919578 
L 370.138776 167.468094 
L 372.416327 171.452968 
L 374.693878 163.054095 
L 376.971429 157.620196 
L 379.24898 173.953828 
L 381.526531 196.748526 
L 383.804082 196.62992 
L 386.081633 196.886871 
L 388.359184 217.451801 
L 390.636735 174.306804 
L 392.914286 186.135296 
L 395.191837 188.958236 
L 397.469388 218.492856 
L 399.746939 233.584139 
L 402.02449 214.411792 
L 404.302041 190.475985 
L 406.579592 191.820314 
L 408.857143 191.011663 
L 411.134694 176.400372 
L 413.412245 170.888938 
L 415.689796 164.291058 
L 417.967347 170.174536 
L 420.244898 167.468174 
L 427.077551 167.468174 
L 429.355102 171.570898 
L 431.632653 176.400372 
L 433.910204 191.011663 
L 436.187755 184.467972 
L 438.465306 170.004793 
L 440.742857 151.160677 
L 443.020408 125.209026 
L 445.297959 93.97104 
L 447.57551 116.602915 
L 449.853061 120.67589 
L 452.130612 111.158453 
L 454.408163 89.430955 
L 456.685714 82.699249 
L 458.963265 81.07555 
L 461.240816 96.262001 
L 463.518367 139.817774 
L 465.795918 149.607398 
L 468.073469 132.988272 
L 470.35102 155.923012 
L 472.628571 173.818535 
L 474.906122 188.604279 
L 477.183673 182.853324 
L 481.738776 159.846298 
L 484.016327 138.873747 
L 486.293878 141.28079 
L 490.84898 152.130936 
L 493.126531 143.115653 
L 495.404082 113.410312 
L 497.681633 101.071806 
L 499.959184 95.600938 
L 502.236735 140.073896 
L 504.514286 94.927733 
L 506.791837 110.828386 
L 509.069388 165.406687 
L 511.346939 161.809343 
L 513.62449 148.036373 
L 515.902041 148.036373 
L 518.179592 151.664434 
L 520.457143 142.909844 
L 522.734694 151.664434 
L 525.012245 174.867441 
L 527.289796 183.522794 
L 529.567347 219.703535 
L 531.844898 202.44168 
L 534.122449 208.41774 
L 536.4 221.101036 
L 538.677551 224.62568 
L 540.955102 217.525331 
L 543.232653 223.260363 
L 545.510204 215.931004 
L 547.787755 210.270739 
L 550.065306 215.725848 
L 552.342857 138.431823 
L 554.620408 121.803113 
L 556.897959 101.320547 
L 559.17551 85.791684 
L 561.453061 85.388097 
L 563.730612 93.45994 
L 566.008163 100.28007 
L 568.285714 100.364055 
L 570.563265 125.209026 
L 572.840816 155.64837 
L 575.118367 149.025593 
L 577.395918 162.34896 
L 579.673469 155.64837 
L 581.95102 162.34896 
L 584.228571 145.550004 
L 586.506122 152.577692 
L 588.783673 138.205276 
L 591.061224 138.205276 
L 593.338776 110.282935 
L 595.616327 83.845664 
L 597.893878 96.360456 
L 600.171429 100.364055 
L 602.44898 104.058816 
L 604.726531 143.785097 
L 607.004082 100.364055 
L 609.281633 93.97104 
L 611.559184 115.026497 
L 613.836735 141.299111 
L 616.114286 136.212223 
L 618.391837 122.011601 
L 620.669388 125.209026 
L 622.946939 137.934773 
L 625.22449 93.97104 
L 627.502041 93.97104 
L 629.779592 120.67589 
L 632.057143 143.785097 
L 634.334694 70.023517 
L 636.612245 150.144767 
L 638.889796 167.468344 
L 641.167347 178.369121 
L 643.444898 197.473172 
L 645.722449 189.759268 
L 648 196.884426 
L 648 196.884426 
" style="fill:none;stroke:#0000ff;stroke-linecap:square;stroke-opacity:0.05;stroke-width:1.5;"/>
   </g>
   <g id="line2d_14">
    <path clip-path="url(#p3095b4d90b)" d="M 90 147.989665 
L 92.277551 182.768007 
L 96.832653 142.496604 
L 99.110204 129.422547 
L 101.387755 117.688567 
L 103.665306 121.678621 
L 105.942857 151.280617 
L 108.220408 182.807881 
L 110.497959 173.756224 
L 112.77551 152.32756 
L 115.053061 125.459736 
L 117.330612 120.22084 
L 119.608163 177.327865 
L 121.885714 185.512508 
L 124.163265 176.060012 
L 126.440816 174.558725 
L 128.718367 163.889475 
L 133.273469 182.764805 
L 135.55102 190.818722 
L 137.828571 200.880705 
L 140.106122 201.962525 
L 142.383673 182.808507 
L 144.661224 173.302727 
L 146.938776 191.37652 
L 149.216327 186.895336 
L 151.493878 177.914183 
L 153.771429 177.180237 
L 156.04898 182.315005 
L 158.326531 192.56559 
L 160.604082 192.56559 
L 165.159184 142.481482 
L 167.436735 135.804549 
L 169.714286 110.710219 
L 171.991837 142.847232 
L 174.269388 159.4704 
L 176.546939 144.005986 
L 178.82449 167.46809 
L 181.102041 161.83171 
L 183.379592 167.468322 
L 185.657143 175.474716 
L 187.934694 181.898972 
L 190.212245 194.867791 
L 192.489796 181.898783 
L 194.767347 141.240937 
L 197.044898 116.602915 
L 199.322449 105.651715 
L 201.6 88.192106 
L 203.877551 85.615267 
L 206.155102 34.56 
L 208.432653 34.56 
L 210.710204 85.615267 
L 212.987755 70.846694 
L 215.265306 150.56219 
L 217.542857 114.54567 
L 219.820408 122.011601 
L 222.097959 142.103882 
L 224.37551 155.923012 
L 226.653061 177.197365 
L 228.930612 170.004894 
L 231.208163 170.004894 
L 233.485714 164.016731 
L 235.763265 177.544023 
L 238.040816 167.468034 
L 240.318367 204.674828 
L 242.595918 197.817063 
L 244.873469 174.353632 
L 247.15102 191.820314 
L 251.706122 206.74864 
L 253.983673 206.74864 
L 256.261224 203.940534 
L 258.538776 191.817764 
L 260.816327 191.011663 
L 263.093878 158.704344 
L 265.371429 174.353632 
L 267.64898 174.353632 
L 272.204082 125.209026 
L 274.481633 116.717058 
L 276.759184 151.160677 
L 279.036735 141.299111 
L 281.314286 100.364055 
L 283.591837 105.942099 
L 285.869388 143.790725 
L 288.146939 143.790725 
L 290.42449 70.023517 
L 292.702041 66.76054 
L 294.979592 96.262001 
L 297.257143 139.817774 
L 299.534694 96.262001 
L 301.812245 151.052654 
L 304.089796 151.052654 
L 306.367347 130.883007 
L 308.644898 105.980906 
L 310.922449 97.430721 
L 313.2 149.855757 
L 315.477551 181.570481 
L 317.755102 149.855757 
L 320.032653 151.052654 
L 329.142857 151.052654 
L 331.420408 130.883007 
L 333.697959 105.980906 
L 335.97551 97.430721 
L 338.253061 70.023517 
L 340.530612 70.023517 
L 342.808163 120.67589 
L 345.085714 100.364055 
L 347.363265 93.97104 
L 349.640816 117.426284 
L 351.918367 101.832916 
L 354.195918 114.54567 
L 356.473469 122.011601 
L 358.75102 101.832916 
L 361.028571 115.026497 
L 363.306122 116.717058 
L 365.583673 88.119719 
L 367.861224 120.67589 
L 370.138776 120.67589 
L 372.416327 96.262001 
L 374.693878 70.023517 
L 376.971429 83.845664 
L 379.24898 83.845664 
L 381.526531 81.07555 
L 383.804082 66.76054 
L 386.081633 143.790725 
L 388.359184 116.602915 
L 390.636735 100.364055 
L 392.914286 105.301461 
L 395.191837 162.891525 
L 397.469388 155.925979 
L 402.02449 170.004894 
L 404.302041 184.4689 
L 406.579592 162.891585 
L 408.857143 148.995343 
L 411.134694 155.925979 
L 413.412245 148.993999 
L 415.689796 148.995343 
L 417.967347 143.651621 
L 420.244898 158.704344 
L 422.522449 184.46922 
L 424.8 191.817764 
L 427.077551 184.4689 
L 429.355102 199.248186 
L 431.632653 199.248186 
L 433.910204 198.720232 
L 438.465306 182.354028 
L 440.742857 207.977522 
L 443.020408 221.17483 
L 445.297959 218.289639 
L 447.57551 218.289639 
L 449.853061 213.162927 
L 452.130612 213.164416 
L 454.408163 225.497674 
L 456.685714 227.779347 
L 458.963265 247.418698 
L 461.240816 254.164271 
L 463.518367 228.723195 
L 465.795918 192.821037 
L 468.073469 181.570481 
L 470.35102 167.468241 
L 472.628571 213.679011 
L 474.906122 203.940534 
L 477.183673 185.046995 
L 479.461224 182.353904 
L 481.738776 167.468034 
L 484.016327 162.891525 
L 486.293878 135.146715 
L 488.571429 157.795528 
L 490.84898 157.824709 
L 493.126531 156.774635 
L 495.404082 186.82159 
L 499.959184 206.375418 
L 504.514286 196.748526 
L 506.791837 196.886871 
L 509.069388 211.152017 
L 511.346939 206.373844 
L 513.62449 196.886871 
L 515.902041 186.14609 
L 518.179592 138.431823 
L 520.457143 138.711795 
L 522.734694 93.762598 
L 525.012245 85.791684 
L 527.289796 120.317435 
L 529.567347 118.73435 
L 531.844898 101.320547 
L 534.122449 135.572444 
L 536.4 135.571114 
L 538.677551 109.229095 
L 540.955102 101.049763 
L 543.232653 96.56449 
L 545.510204 94.927733 
L 547.787755 101.877475 
L 550.065306 83.421905 
L 552.342857 127.636168 
L 554.620408 79.341774 
L 556.897959 149.389 
L 559.17551 156.41394 
L 561.453061 159.898826 
L 563.730612 175.645418 
L 566.008163 175.645418 
L 568.285714 180.89657 
L 570.563265 175.645418 
L 572.840816 201.900557 
L 575.118367 222.60113 
L 577.395918 226.665337 
L 579.673469 194.868169 
L 581.95102 196.884426 
L 584.228571 224.082006 
L 586.506122 224.082102 
L 588.783673 229.953757 
L 591.061224 218.18561 
L 593.338776 229.67746 
L 595.616327 212.275506 
L 597.893878 207.90758 
L 600.171429 188.604279 
L 604.726531 177.115281 
L 607.004082 122.489038 
L 609.281633 128.414952 
L 611.559184 122.011601 
L 613.836735 150.578943 
L 616.114286 101.832916 
L 618.391837 125.209026 
L 620.669388 96.360456 
L 622.946939 83.845664 
L 625.22449 120.730011 
L 632.057143 120.67589 
L 634.334694 141.240937 
L 636.612245 158.217444 
L 638.889796 167.46808 
L 641.167347 158.217444 
L 643.444898 158.22236 
L 645.722449 167.46808 
L 648 130.327103 
L 648 130.327103 
" style="fill:none;stroke:#0000ff;stroke-linecap:square;stroke-opacity:0.05;stroke-width:1.5;"/>
   </g>
   <g id="line2d_15">
    <path clip-path="url(#p3095b4d90b)" d="M 90 164.016731 
L 94.555102 127.676434 
L 96.832653 133.71702 
L 99.110204 157.824709 
L 101.387755 150.567986 
L 103.665306 93.97104 
L 105.942857 152.592818 
L 108.220408 145.913867 
L 110.497959 132.501873 
L 112.77551 141.233098 
L 115.053061 124.662 
L 117.330612 141.233098 
L 119.608163 132.501873 
L 121.885714 152.592818 
L 124.163265 152.592818 
L 126.440816 167.468322 
L 128.718367 141.299111 
L 130.995918 135.146715 
L 133.273469 128.578962 
L 135.55102 144.902384 
L 137.828571 195.814403 
L 140.106122 196.845242 
L 142.383673 201.860378 
L 144.661224 201.295499 
L 146.938776 206.770887 
L 149.216327 210.37372 
L 151.493878 211.684434 
L 153.771429 192.002938 
L 156.04898 179.854422 
L 158.326531 175.474716 
L 160.604082 115.026497 
L 162.881633 36.053512 
L 165.159184 85.615267 
L 167.436735 101.652047 
L 169.714286 101.652047 
L 171.991837 108.787209 
L 174.269388 81.524417 
L 176.546939 93.45994 
L 178.82449 88.192106 
L 181.102041 105.301461 
L 183.379592 116.602915 
L 185.657143 167.46808 
L 187.934694 198.720232 
L 190.212245 213.679011 
L 192.489796 213.679011 
L 194.767347 203.940534 
L 197.044898 250.153044 
L 199.322449 256.32 
L 201.6 246.181269 
L 206.155102 233.584139 
L 208.432653 214.411792 
L 210.710204 197.817063 
L 212.987755 184.251704 
L 215.265306 164.290893 
L 219.820408 151.280617 
L 222.097959 157.796663 
L 224.37551 158.704344 
L 226.653061 100.364055 
L 228.930612 100.239226 
L 231.208163 36.053512 
L 233.485714 66.76054 
L 235.763265 143.790725 
L 238.040816 130.327103 
L 240.318367 175.891656 
L 242.595918 139.817774 
L 244.873469 167.46808 
L 247.15102 167.468034 
L 249.428571 174.353632 
L 251.706122 214.312597 
L 253.983673 218.492856 
L 256.261224 211.569969 
L 258.538776 225.433712 
L 260.816327 221.930947 
L 263.093878 215.54745 
L 265.371429 252.125649 
L 267.64898 251.258839 
L 269.926531 252.772258 
L 272.204082 245.810077 
L 274.481633 228.963215 
L 276.759184 204.295824 
L 279.036735 207.469415 
L 281.314286 187.834319 
L 283.591837 178.216037 
L 285.869388 173.543986 
L 288.146939 125.177048 
L 290.42449 133.699966 
L 292.702041 133.699966 
L 294.979592 119.936136 
L 297.257143 115.143047 
L 299.534694 130.516108 
L 301.812245 125.177048 
L 304.089796 141.145028 
L 306.367347 144.155439 
L 308.644898 133.699966 
L 310.922449 147.671299 
L 313.2 130.989672 
L 315.477551 134.160596 
L 317.755102 138.951225 
L 320.032653 148.704152 
L 322.310204 157.564935 
L 324.587755 143.746491 
L 326.865306 154.3476 
L 331.420408 165.703557 
L 333.697959 142.496604 
L 335.97551 162.34896 
L 338.253061 149.048677 
L 340.530612 188.059264 
L 342.808163 198.841521 
L 345.085714 198.123117 
L 347.363265 192.774718 
L 349.640816 182.78633 
L 354.195918 173.844293 
L 356.473469 190.320496 
L 358.75102 172.063469 
L 361.028571 175.413588 
L 363.306122 182.615284 
L 365.583673 176.749729 
L 367.861224 168.839998 
L 370.138776 182.175311 
L 372.416327 179.7499 
L 374.693878 188.319701 
L 376.971429 204.64855 
L 379.24898 177.180237 
L 381.526531 185.522788 
L 383.804082 185.522788 
L 386.081633 201.925729 
L 388.359184 197.308434 
L 390.636735 207.905193 
L 392.914286 207.952393 
L 395.191837 218.532105 
L 397.469388 218.665765 
L 399.746939 196.331473 
L 402.02449 213.098901 
L 404.302041 201.925532 
L 406.579592 218.665765 
L 408.857143 167.468081 
L 411.134694 153.816748 
L 413.412245 66.76054 
L 415.689796 66.76054 
L 417.967347 105.942099 
L 420.244898 137.934773 
L 422.522449 96.360456 
L 424.8 66.76054 
L 427.077551 96.360456 
L 429.355102 85.615267 
L 431.632653 34.56 
L 433.910204 122.268153 
L 436.187755 85.659872 
L 438.465306 109.258364 
L 440.742857 163.054095 
L 443.020408 143.165497 
L 445.297959 157.620196 
L 447.57551 163.222698 
L 449.853061 151.32373 
L 452.130612 162.546509 
L 454.408163 162.546509 
L 456.685714 152.702376 
L 458.963265 186.173013 
L 461.240816 182.454667 
L 463.518367 154.652374 
L 465.795918 170.395521 
L 468.073469 157.620196 
L 470.35102 167.467632 
L 472.628571 167.468151 
L 474.906122 158.499899 
L 477.183673 161.705275 
L 479.461224 173.355397 
L 481.738776 158.462849 
L 484.016327 166.767272 
L 486.293878 149.143602 
L 488.571429 143.786017 
L 493.126531 156.753382 
L 495.404082 163.187295 
L 497.681633 160.430576 
L 499.959184 161.112105 
L 502.236735 160.887172 
L 504.514286 160.328932 
L 506.791837 165.380277 
L 509.069388 169.208129 
L 511.346939 160.263842 
L 513.62449 160.263878 
L 515.902041 155.633368 
L 518.179592 155.633368 
L 520.457143 175.798451 
L 522.734694 179.929379 
L 525.012245 187.946584 
L 527.289796 182.473212 
L 529.567347 169.241288 
L 531.844898 196.146603 
L 534.122449 203.240927 
L 536.4 196.04665 
L 538.677551 189.48286 
L 540.955102 189.442772 
L 543.232653 172.33699 
L 545.510204 167.468081 
L 547.787755 149.34813 
L 550.065306 141.612016 
L 552.342857 158.045702 
L 554.620408 130.788468 
L 556.897959 112.957956 
L 559.17551 142.748231 
L 561.453061 141.145028 
L 563.730612 138.782814 
L 566.008163 149.320959 
L 568.285714 168.813982 
L 570.563265 173.302727 
L 572.840816 173.505409 
L 577.395918 192.558496 
L 579.673469 231.086432 
L 581.95102 214.726458 
L 584.228571 220.588815 
L 586.506122 211.559199 
L 588.783673 207.869657 
L 591.061224 191.925886 
L 593.338776 179.516225 
L 595.616327 179.51598 
L 597.893878 171.073392 
L 600.171429 171.073392 
L 602.44898 80.680023 
L 604.726531 93.762598 
L 607.004082 114.54567 
L 609.281633 101.832916 
L 611.559184 101.832916 
L 613.836735 116.717058 
L 616.114286 105.301461 
L 618.391837 151.005473 
L 620.669388 151.160677 
L 622.946939 150.578943 
L 625.22449 124.865621 
L 627.502041 101.832916 
L 629.779592 107.144359 
L 632.057143 122.489038 
L 634.334694 128.414952 
L 636.612245 128.414952 
L 638.889796 132.256503 
L 641.167347 145.690297 
L 643.444898 145.690297 
L 645.722449 174.306672 
L 648 167.468174 
L 648 167.468174 
" style="fill:none;stroke:#0000ff;stroke-linecap:square;stroke-opacity:0.05;stroke-width:1.5;"/>
   </g>
   <g id="line2d_16">
    <path clip-path="url(#p3095b4d90b)" d="M 90 194.921611 
L 92.277551 183.505198 
L 94.555102 177.98901 
L 96.832653 188.263774 
L 99.110204 183.406631 
L 101.387755 191.223563 
L 103.665306 201.87208 
L 105.942857 198.532189 
L 108.220408 200.67117 
L 110.497959 200.501898 
L 112.77551 192.860095 
L 115.053061 200.478291 
L 117.330612 206.099508 
L 119.608163 213.158522 
L 121.885714 240.316726 
L 124.163265 236.367753 
L 126.440816 238.935018 
L 128.718367 239.210358 
L 130.995918 233.860658 
L 133.273469 225.776964 
L 135.55102 219.620798 
L 137.828571 223.766493 
L 140.106122 220.490349 
L 142.383673 221.012643 
L 144.661224 185.586649 
L 146.938776 160.263878 
L 149.216327 155.282971 
L 151.493878 154.534432 
L 153.771429 159.461178 
L 156.04898 158.373913 
L 158.326531 167.468184 
L 160.604082 153.729665 
L 162.881633 129.422547 
L 165.159184 119.894776 
L 167.436735 144.902384 
L 169.714286 151.704308 
L 171.991837 156.774635 
L 174.269388 156.774635 
L 176.546939 180.210601 
L 178.82449 195.28603 
L 181.102041 184.4689 
L 183.379592 204.674828 
L 185.657143 191.011663 
L 187.934694 158.22236 
L 190.212245 136.212223 
L 192.489796 141.240937 
L 194.767347 130.327103 
L 197.044898 185.046995 
L 199.322449 158.22236 
L 201.6 141.240937 
L 203.877551 116.717058 
L 206.155102 100.239226 
L 208.432653 75.784812 
L 210.710204 101.43996 
L 212.987755 151.704308 
L 215.265306 133.71702 
L 217.542857 121.414594 
L 219.820408 101.071806 
L 222.097959 101.877475 
L 224.37551 94.927733 
L 226.653061 105.555186 
L 228.930612 110.828386 
L 231.208163 136.309595 
L 233.485714 133.760195 
L 235.763265 109.229095 
L 238.040816 122.489038 
L 240.318367 119.608383 
L 242.595918 122.105413 
L 244.873469 130.861917 
L 247.15102 141.575122 
L 249.428571 149.34813 
L 251.706122 152.32756 
L 253.983673 143.746491 
L 256.261224 166.089336 
L 258.538776 171.092437 
L 260.816327 181.345603 
L 265.371429 190.704381 
L 267.64898 198.038518 
L 269.926531 216.699849 
L 274.481633 227.28354 
L 276.759184 215.587831 
L 279.036735 205.372744 
L 281.314286 188.441327 
L 283.591837 207.687191 
L 285.869388 203.438935 
L 288.146939 212.396679 
L 290.42449 204.701862 
L 292.702041 203.410624 
L 294.979592 192.870969 
L 297.257143 176.283078 
L 299.534694 183.505198 
L 301.812245 171.764439 
L 304.089796 177.221424 
L 306.367347 149.920156 
L 308.644898 168.766657 
L 310.922449 135.871372 
L 313.2 126.304077 
L 315.477551 120.756126 
L 317.755102 119.562647 
L 320.032653 137.887271 
L 322.310204 144.005986 
L 324.587755 167.468322 
L 326.865306 185.91583 
L 329.142857 175.474716 
L 331.420408 190.685577 
L 333.697959 156.505756 
L 335.97551 167.468322 
L 338.253061 177.115281 
L 340.530612 186.09817 
L 342.808163 190.331828 
L 345.085714 190.331828 
L 347.363265 196.585574 
L 349.640816 207.431669 
L 351.918367 221.888013 
L 354.195918 216.776198 
L 356.473469 210.163872 
L 358.75102 196.263662 
L 361.028571 199.12833 
L 363.306122 204.67084 
L 365.583673 195.835773 
L 367.861224 185.148268 
L 370.138776 163.429503 
L 372.416327 139.711576 
L 374.693878 144.545158 
L 376.971429 141.110784 
L 381.526531 163.002164 
L 383.804082 109.229095 
L 386.081633 120.191525 
L 388.359184 132.270823 
L 390.636735 145.658214 
L 392.914286 144.902384 
L 395.191837 157.824709 
L 397.469388 154.848236 
L 399.746939 157.676249 
L 402.02449 152.32756 
L 404.302041 154.848236 
L 406.579592 179.132866 
L 408.857143 160.385299 
L 411.134694 156.774635 
L 413.412245 135.146715 
L 415.689796 157.796663 
L 417.967347 157.796663 
L 422.522449 115.026497 
L 424.8 115.026497 
L 427.077551 101.832916 
L 429.355102 138.458948 
L 431.632653 155.64837 
L 433.910204 129.422547 
L 436.187755 135.804549 
L 438.465306 135.804549 
L 440.742857 118.102893 
L 443.020408 123.203382 
L 445.297959 129.422547 
L 447.57551 131.602993 
L 449.853061 150.174274 
L 452.130612 101.320547 
L 454.408163 109.229095 
L 456.685714 102.672846 
L 458.963265 107.976959 
L 461.240816 157.590253 
L 463.518367 165.156316 
L 465.795918 163.054095 
L 468.073469 161.493358 
L 470.35102 175.645418 
L 472.628571 161.493358 
L 474.906122 172.395874 
L 477.183673 189.442772 
L 479.461224 208.435855 
L 481.738776 210.338957 
L 484.016327 181.713142 
L 486.293878 186.107226 
L 488.571429 196.46991 
L 490.84898 197.855337 
L 493.126531 184.040713 
L 495.404082 179.837966 
L 497.681633 176.534263 
L 499.959184 172.650822 
L 502.236735 140.941367 
L 504.514286 142.439916 
L 506.791837 161.088272 
L 509.069388 163.131331 
L 511.346939 152.659361 
L 513.62449 156.37688 
L 515.902041 167.468112 
L 518.179592 162.529128 
L 520.457143 167.46812 
L 522.734694 194.916888 
L 525.012245 211.779009 
L 527.289796 211.781276 
L 529.567347 202.281273 
L 531.844898 206.941601 
L 534.122449 208.296177 
L 536.4 199.308539 
L 538.677551 209.007405 
L 540.955102 215.046259 
L 543.232653 202.323059 
L 545.510204 192.257525 
L 547.787755 189.453377 
L 550.065306 175.718103 
L 552.342857 172.458837 
L 554.620408 181.137048 
L 559.17551 186.944836 
L 563.730612 179.294372 
L 566.008163 188.165246 
L 568.285714 178.461664 
L 570.563265 192.495312 
L 572.840816 210.27176 
L 575.118367 210.27176 
L 577.395918 205.699283 
L 579.673469 200.076378 
L 581.95102 205.921805 
L 584.228571 210.341527 
L 586.506122 217.309398 
L 588.783673 218.619667 
L 591.061224 225.497674 
L 593.338776 141.240937 
L 595.616327 141.240937 
L 597.893878 158.704602 
L 600.171429 143.651621 
L 602.44898 117.149875 
L 604.726531 107.144359 
L 607.004082 121.803113 
L 609.281633 119.608383 
L 611.559184 125.951634 
L 613.836735 141.28079 
L 616.114286 154.600302 
L 618.391837 141.145028 
L 620.669388 151.316941 
L 622.946939 164.123693 
L 625.22449 168.813982 
L 627.502041 183.016165 
L 629.779592 177.914183 
L 632.057143 177.180237 
L 634.334694 172.949004 
L 636.612245 157.565335 
L 638.889796 165.703557 
L 641.167347 163.002164 
L 643.444898 174.326113 
L 645.722449 178.982922 
L 648 164.965028 
L 648 164.965028 
" style="fill:none;stroke:#0000ff;stroke-linecap:square;stroke-opacity:0.05;stroke-width:1.5;"/>
   </g>
   <g id="line2d_17">
    <path clip-path="url(#p3095b4d90b)" d="M 90 140.384428 
L 92.277551 154.082639 
L 94.555102 154.699503 
L 96.832653 154.699503 
L 99.110204 149.912013 
L 101.387755 192.313846 
L 103.665306 199.18839 
L 105.942857 214.046858 
L 108.220408 202.815421 
L 110.497959 182.911206 
L 115.053061 201.3442 
L 117.330612 205.963164 
L 119.608163 211.735637 
L 121.885714 205.963164 
L 124.163265 150.578943 
L 126.440816 141.299111 
L 128.718367 120.317435 
L 130.995918 88.119719 
L 133.273469 137.934773 
L 135.55102 117.426284 
L 137.828571 122.268153 
L 140.106122 85.182704 
L 142.383673 91.589036 
L 144.661224 85.791684 
L 146.938776 101.652047 
L 149.216327 101.652047 
L 151.493878 75.784812 
L 153.771429 85.659872 
L 156.04898 120.317435 
L 158.326531 101.652047 
L 160.604082 115.026497 
L 162.881633 100.364055 
L 165.159184 93.97104 
L 167.436735 116.154266 
L 169.714286 114.54567 
L 171.991837 150.578943 
L 174.269388 107.144359 
L 176.546939 115.026497 
L 178.82449 115.026497 
L 181.102041 118.73435 
L 183.379592 90.7348 
L 185.657143 107.144359 
L 187.934694 122.011601 
L 190.212245 115.026497 
L 192.489796 105.301461 
L 194.767347 105.301461 
L 197.044898 120.67589 
L 199.322449 130.327103 
L 201.6 120.67589 
L 203.877551 120.67589 
L 206.155102 130.327103 
L 208.432653 135.702968 
L 210.710204 97.430721 
L 212.987755 97.430721 
L 215.265306 135.702968 
L 217.542857 141.187538 
L 219.820408 117.149875 
L 222.097959 101.832916 
L 224.37551 101.832916 
L 226.653061 115.026497 
L 228.930612 75.784812 
L 231.208163 108.787209 
L 233.485714 117.688567 
L 235.763265 110.710219 
L 238.040816 110.710219 
L 240.318367 86.789388 
L 242.595918 110.282935 
L 244.873469 101.232972 
L 247.15102 107.79937 
L 249.428571 123.008753 
L 251.706122 122.587348 
L 253.983673 152.592818 
L 256.261224 93.97104 
L 258.538776 124.865621 
L 260.816327 151.005473 
L 263.093878 158.704344 
L 265.371429 158.704344 
L 267.64898 177.197414 
L 269.926531 162.891585 
L 272.204082 158.704602 
L 274.481633 204.236876 
L 276.759184 201.408754 
L 279.036735 194.868169 
L 281.314286 201.408754 
L 283.591837 188.363592 
L 285.869388 185.916955 
L 288.146939 179.854422 
L 290.42449 162.787782 
L 292.702041 177.115281 
L 294.979592 171.393635 
L 297.257143 135.146715 
L 299.534694 135.146715 
L 301.812245 157.795528 
L 304.089796 148.993999 
L 306.367347 136.212223 
L 308.644898 125.209026 
L 310.922449 136.212223 
L 313.2 177.197414 
L 315.477551 158.22236 
L 317.755102 185.046995 
L 320.032653 199.248186 
L 322.310204 214.312597 
L 324.587755 190.475485 
L 326.865306 190.475985 
L 329.142857 221.933109 
L 331.420408 221.930947 
L 333.697959 215.54745 
L 335.97551 175.891656 
L 342.808163 175.891656 
L 345.085714 149.607398 
L 347.363265 158.704344 
L 349.640816 150.578943 
L 351.918367 120.317435 
L 354.195918 94.419784 
L 356.473469 136.212223 
L 358.75102 151.160677 
L 361.028571 148.995343 
L 363.306122 148.993999 
L 365.583673 182.880441 
L 367.861224 189.853993 
L 370.138776 189.853993 
L 372.416327 203.973236 
L 374.693878 211.111629 
L 376.971429 189.852785 
L 379.24898 159.836045 
L 381.526531 159.836045 
L 383.804082 161.884871 
L 386.081633 153.783894 
L 388.359184 66.76054 
L 390.636735 96.360456 
L 392.914286 83.845664 
L 395.191837 86.232252 
L 397.469388 66.76054 
L 399.746939 70.023517 
L 402.02449 97.430721 
L 404.302041 97.430721 
L 406.579592 160.083677 
L 408.857143 181.570481 
L 411.134694 185.046995 
L 413.412245 149.607398 
L 415.689796 141.240937 
L 417.967347 151.160677 
L 420.244898 149.549146 
L 422.522449 149.549146 
L 424.8 117.149875 
L 427.077551 114.54567 
L 429.355102 101.294701 
L 431.632653 108.887816 
L 433.910204 90.455404 
L 436.187755 101.320547 
L 438.465306 108.887816 
L 440.742857 88.320714 
L 443.020408 101.363793 
L 445.297959 90.158298 
L 447.57551 94.927733 
L 449.853061 148.24305 
L 452.130612 133.67821 
L 454.408163 146.802648 
L 456.685714 115.414083 
L 458.963265 146.274534 
L 463.518367 173.40928 
L 465.795918 163.751983 
L 468.073469 158.917128 
L 472.628571 197.658702 
L 474.906122 201.816588 
L 477.183673 211.829637 
L 479.461224 211.115822 
L 481.738776 206.012867 
L 484.016327 205.829919 
L 486.293878 206.012391 
L 488.571429 211.228534 
L 490.84898 211.36588 
L 493.126531 194.081588 
L 495.404082 182.807881 
L 497.681633 162.562104 
L 499.959184 150.946703 
L 502.236735 133.722038 
L 504.514286 127.676434 
L 506.791837 122.05208 
L 509.069388 150.027702 
L 511.346939 127.676434 
L 513.62449 133.71702 
L 515.902041 132.270823 
L 518.179592 165.703557 
L 520.457143 179.854226 
L 522.734694 173.818262 
L 525.012245 182.853302 
L 527.289796 184.850017 
L 529.567347 177.115281 
L 531.844898 188.604279 
L 534.122449 173.818535 
L 536.4 177.115281 
L 538.677551 179.372655 
L 540.955102 164.016678 
L 543.232653 184.850017 
L 545.510204 195.814379 
L 547.787755 200.137228 
L 552.342857 235.143285 
L 554.620408 231.324299 
L 556.897959 231.324299 
L 559.17551 242.439439 
L 561.453061 239.217751 
L 563.730612 240.120946 
L 566.008163 228.951046 
L 568.285714 229.67746 
L 570.563265 240.551204 
L 572.840816 234.369678 
L 575.118367 221.174395 
L 577.395918 195.467829 
L 579.673469 167.468344 
L 581.95102 174.611065 
L 584.228571 174.611065 
L 586.506122 137.934773 
L 588.783673 88.119719 
L 591.061224 93.97104 
L 593.338776 118.73435 
L 595.616327 100.905633 
L 597.893878 88.320714 
L 600.171429 90.158298 
L 602.44898 121.803113 
L 604.726531 150.174274 
L 607.004082 156.505756 
L 609.281633 179.854226 
L 611.559184 173.818535 
L 613.836735 167.46809 
L 616.114286 167.468322 
L 618.391837 117.688567 
L 620.669388 138.458948 
L 622.946939 131.561 
L 625.22449 104.503554 
L 627.502041 108.227858 
L 629.779592 99.338875 
L 632.057143 102.639863 
L 634.334694 96.593798 
L 636.612245 84.071751 
L 638.889796 141.525457 
L 641.167347 114.431348 
L 643.444898 110.259176 
L 645.722449 96.3941 
L 648 96.3941 
L 648 96.3941 
" style="fill:none;stroke:#0000ff;stroke-linecap:square;stroke-opacity:0.05;stroke-width:1.5;"/>
   </g>
   <g id="line2d_18">
    <path clip-path="url(#p3095b4d90b)" d="M 90 153.732401 
L 92.277551 173.163044 
L 94.555102 169.125596 
L 96.832653 171.506978 
L 99.110204 181.01301 
L 101.387755 200.076378 
L 103.665306 184.050012 
L 105.942857 163.892007 
L 108.220408 154.890258 
L 110.497959 158.332949 
L 112.77551 166.525549 
L 115.053061 149.379763 
L 117.330612 148.649995 
L 119.608163 163.031247 
L 121.885714 144.177442 
L 124.163265 90.158298 
L 126.440816 108.887816 
L 128.718367 122.489038 
L 130.995918 114.54567 
L 133.273469 150.578943 
L 135.55102 122.011601 
L 140.106122 150.578943 
L 142.383673 114.680309 
L 144.661224 144.005986 
L 146.938776 137.977841 
L 149.216327 136.72831 
L 151.493878 167.468072 
L 153.771429 167.468072 
L 156.04898 161.973533 
L 158.326531 169.231689 
L 160.604082 163.421997 
L 162.881633 167.468269 
L 165.159184 169.231689 
L 167.436735 161.75179 
L 169.714286 162.995485 
L 174.269388 119.936136 
L 176.546939 125.859396 
L 178.82449 115.527257 
L 181.102041 102.269731 
L 183.379592 129.538378 
L 185.657143 125.859396 
L 187.934694 136.010345 
L 190.212245 138.873747 
L 192.489796 146.23521 
L 194.767347 151.316941 
L 197.044898 154.848236 
L 199.322449 139.551164 
L 201.6 145.690297 
L 203.877551 139.551164 
L 206.155102 139.551164 
L 208.432653 125.695997 
L 210.710204 109.229095 
L 212.987755 138.711795 
L 215.265306 120.317435 
L 217.542857 114.294007 
L 219.820408 107.144359 
L 222.097959 122.011601 
L 224.37551 115.026497 
L 226.653061 100.364055 
L 228.930612 100.364055 
L 231.208163 137.934773 
L 233.485714 125.209026 
L 235.763265 182.768002 
L 238.040816 193.585407 
L 240.318367 212.815505 
L 242.595918 207.246435 
L 244.873469 214.64717 
L 247.15102 211.92476 
L 249.428571 204.266856 
L 251.706122 200.721769 
L 253.983673 208.344026 
L 256.261224 210.585434 
L 258.538776 210.27176 
L 260.816327 208.090828 
L 263.093878 199.296532 
L 265.371429 205.433599 
L 267.64898 188.99831 
L 269.926531 189.482893 
L 272.204082 199.159273 
L 274.481633 205.990096 
L 276.759184 197.884054 
L 279.036735 198.73546 
L 281.314286 195.016113 
L 283.591837 194.98949 
L 285.869388 189.475051 
L 288.146939 197.344372 
L 290.42449 200.548888 
L 292.702041 196.470555 
L 294.979592 186.780362 
L 297.257143 181.323034 
L 299.534694 201.521261 
L 301.812245 205.088554 
L 304.089796 196.001664 
L 306.367347 212.804101 
L 308.644898 214.299382 
L 310.922449 207.407108 
L 313.2 205.137917 
L 315.477551 210.356475 
L 317.755102 211.267137 
L 320.032653 218.66086 
L 322.310204 205.105849 
L 324.587755 195.355226 
L 326.865306 199.028396 
L 329.142857 181.746343 
L 331.420408 187.506222 
L 333.697959 196.711604 
L 335.97551 206.756397 
L 338.253061 151.697588 
L 340.530612 138.431823 
L 342.808163 173.901562 
L 345.085714 187.44449 
L 347.363265 188.451316 
L 349.640816 187.945371 
L 351.918367 160.328932 
L 354.195918 155.633368 
L 356.473469 155.717904 
L 358.75102 173.829722 
L 361.028571 159.14665 
L 363.306122 179.558319 
L 365.583673 150.825228 
L 367.861224 150.76686 
L 370.138776 142.855867 
L 372.416327 157.907398 
L 374.693878 166.690336 
L 376.971429 162.784728 
L 379.24898 166.555963 
L 381.526531 151.367565 
L 383.804082 185.560363 
L 386.081633 173.440453 
L 388.359184 190.294917 
L 390.636735 182.236568 
L 392.914286 192.107216 
L 395.191837 190.684166 
L 397.469388 197.202593 
L 399.746939 193.564088 
L 402.02449 193.564088 
L 404.302041 188.451253 
L 406.579592 148.649995 
L 408.857143 148.650289 
L 411.134694 143.115653 
L 413.412245 154.329915 
L 415.689796 149.984197 
L 417.967347 144.139151 
L 420.244898 143.115653 
L 422.522449 157.538115 
L 424.8 125.695997 
L 427.077551 234.744265 
L 429.355102 238.910653 
L 433.910204 229.756171 
L 436.187755 221.862202 
L 438.465306 216.186776 
L 440.742857 213.777143 
L 443.020408 212.132832 
L 445.297959 209.423954 
L 447.57551 201.842599 
L 449.853061 180.762231 
L 452.130612 163.306961 
L 454.408163 156.603404 
L 456.685714 157.606261 
L 458.963265 170.035369 
L 461.240816 167.468089 
L 463.518367 169.863916 
L 465.795918 165.657069 
L 468.073469 166.543958 
L 470.35102 147.200189 
L 472.628571 168.827715 
L 474.906122 184.200156 
L 477.183673 187.825493 
L 479.461224 199.432006 
L 481.738776 198.482412 
L 484.016327 210.250087 
L 486.293878 195.689279 
L 488.571429 201.100753 
L 490.84898 194.78461 
L 493.126531 197.115586 
L 495.404082 192.591449 
L 497.681633 177.685116 
L 499.959184 177.075496 
L 502.236735 151.147833 
L 504.514286 147.375673 
L 506.791837 149.14534 
L 509.069388 154.835991 
L 511.346939 174.18116 
L 513.62449 174.181151 
L 515.902041 184.261296 
L 518.179592 198.275601 
L 520.457143 196.5911 
L 522.734694 197.186651 
L 525.012245 197.454225 
L 527.289796 204.551638 
L 529.567347 195.993968 
L 531.844898 209.911781 
L 534.122449 200.023015 
L 536.4 199.827774 
L 538.677551 185.563246 
L 540.955102 165.067343 
L 543.232653 167.467996 
L 545.510204 158.462849 
L 547.787755 163.347445 
L 550.065306 153.983667 
L 552.342857 159.527506 
L 554.620408 149.900373 
L 556.897959 130.989672 
L 559.17551 133.67821 
L 561.453061 137.52482 
L 563.730612 125.778719 
L 566.008163 137.52482 
L 568.285714 119.562647 
L 570.563265 119.562647 
L 572.840816 162.825968 
L 575.118367 165.247665 
L 577.395918 170.567874 
L 579.673469 172.039613 
L 581.95102 167.467998 
L 584.228571 183.759293 
L 586.506122 187.945371 
L 588.783673 193.510115 
L 591.061224 206.991289 
L 593.338776 216.093124 
L 595.616327 219.843448 
L 597.893878 216.060086 
L 600.171429 206.756397 
L 602.44898 209.014967 
L 604.726531 219.102786 
L 607.004082 223.097207 
L 609.281633 221.407241 
L 611.559184 217.55878 
L 613.836735 211.803572 
L 616.114286 206.96123 
L 618.391837 192.511672 
L 620.669388 190.737657 
L 622.946939 190.16664 
L 625.22449 179.64263 
L 627.502041 164.685559 
L 629.779592 152.548212 
L 632.057143 163.808079 
L 634.334694 166.430615 
L 636.612245 166.844019 
L 638.889796 186.949509 
L 641.167347 197.305015 
L 643.444898 204.00181 
L 645.722449 214.530845 
L 648 212.012423 
L 648 212.012423 
" style="fill:none;stroke:#0000ff;stroke-linecap:square;stroke-opacity:0.05;stroke-width:1.5;"/>
   </g>
   <g id="line2d_19">
    <path clip-path="url(#p3095b4d90b)" d="M 90 187.041656 
L 92.277551 191.726103 
L 94.555102 192.110032 
L 96.832653 184.828791 
L 99.110204 176.925205 
L 101.387755 187.946584 
L 103.665306 199.586274 
L 105.942857 195.884974 
L 108.220408 199.80147 
L 110.497959 182.295612 
L 112.77551 175.413558 
L 115.053061 166.569954 
L 117.330612 158.389632 
L 119.608163 169.56281 
L 121.885714 158.973508 
L 124.163265 171.743449 
L 126.440816 169.137134 
L 128.718367 169.571715 
L 130.995918 181.562639 
L 133.273469 182.217438 
L 135.55102 191.607489 
L 137.828571 195.054507 
L 140.106122 202.363953 
L 142.383673 206.654893 
L 144.661224 207.977222 
L 146.938776 190.144881 
L 149.216327 190.714307 
L 151.493878 190.575745 
L 153.771429 177.167695 
L 156.04898 173.163091 
L 158.326531 170.412746 
L 160.604082 171.88198 
L 162.881633 170.343773 
L 165.159184 149.431117 
L 167.436735 180.623697 
L 169.714286 179.711736 
L 171.991837 181.355493 
L 174.269388 158.332949 
L 176.546939 162.529128 
L 178.82449 156.37688 
L 181.102041 171.597487 
L 183.379592 173.901562 
L 185.657143 151.280617 
L 187.934694 148.993999 
L 190.212245 164.291058 
L 192.489796 151.160677 
L 194.767347 151.160677 
L 197.044898 167.468034 
L 199.322449 149.549146 
L 201.6 104.058816 
L 203.877551 100.364055 
L 206.155102 100.364055 
L 208.432653 116.717058 
L 210.710204 151.160677 
L 212.987755 125.209026 
L 215.265306 141.240937 
L 217.542857 167.468034 
L 219.820408 191.817764 
L 222.097959 199.248186 
L 224.37551 214.314111 
L 226.653061 207.078475 
L 228.930612 224.114114 
L 231.208163 232.757157 
L 233.485714 223.600134 
L 235.763265 233.682637 
L 238.040816 203.940534 
L 240.318367 181.570481 
L 247.15102 181.570481 
L 249.428571 192.821037 
L 251.706122 167.468241 
L 253.983673 105.980906 
L 256.261224 135.702968 
L 258.538776 143.785097 
L 260.816327 143.785097 
L 263.093878 105.301461 
L 265.371429 141.20668 
L 267.64898 158.704602 
L 269.926531 143.648433 
L 272.204082 107.144359 
L 274.481633 144.902384 
L 276.759184 151.280668 
L 279.036735 164.291058 
L 281.314286 155.923012 
L 283.591837 170.888938 
L 285.869388 177.544023 
L 288.146939 170.004894 
L 290.42449 167.468034 
L 292.702041 191.817764 
L 294.979592 229.591738 
L 297.257143 185.046995 
L 299.534694 198.720232 
L 301.812245 206.74732 
L 304.089796 206.748159 
L 308.644898 190.475985 
L 310.922449 167.468034 
L 313.2 158.704602 
L 315.477551 158.217444 
L 317.755102 125.209026 
L 320.032653 162.891585 
L 322.310204 136.212223 
L 324.587755 116.717058 
L 326.865306 132.988272 
L 331.420408 101.832916 
L 333.697959 116.717058 
L 335.97551 115.026497 
L 338.253061 147.074764 
L 340.530612 136.212223 
L 342.808163 100.364055 
L 345.085714 104.058816 
L 347.363265 75.784812 
L 349.640816 85.388097 
L 351.918367 85.388097 
L 354.195918 108.787209 
L 356.473469 85.791684 
L 358.75102 94.419784 
L 361.028571 75.784812 
L 363.306122 96.783772 
L 365.583673 82.081716 
L 367.861224 82.081716 
L 370.138776 84.11341 
L 372.416327 84.11341 
L 374.693878 85.659872 
L 376.971429 101.294701 
L 379.24898 101.652047 
L 381.526531 89.037276 
L 383.804082 85.388097 
L 386.081633 93.45994 
L 388.359184 36.053512 
L 390.636735 85.615267 
L 392.914286 143.651621 
L 395.191837 142.103882 
L 397.469388 157.824709 
L 399.746939 182.664896 
L 402.02449 180.210524 
L 404.302041 180.210601 
L 406.579592 174.306804 
L 408.857143 180.210601 
L 411.134694 162.562195 
L 413.412245 165.982036 
L 415.689796 139.551164 
L 417.967347 139.551164 
L 420.244898 165.703557 
L 422.522449 165.703557 
L 424.8 182.868097 
L 427.077551 196.986623 
L 429.355102 193.119964 
L 431.632653 192.477471 
L 433.910204 187.945371 
L 436.187755 169.601349 
L 438.465306 169.583582 
L 440.742857 174.118306 
L 443.020408 158.917128 
L 445.297959 169.338469 
L 447.57551 162.995485 
L 449.853061 138.781366 
L 452.130612 156.37688 
L 454.408163 158.893546 
L 456.685714 177.854491 
L 458.963265 204.671122 
L 461.240816 200.268169 
L 463.518367 199.12833 
L 465.795918 192.743146 
L 468.073469 172.949004 
L 470.35102 161.751841 
L 472.628571 174.118306 
L 474.906122 184.375831 
L 477.183673 197.203293 
L 481.738776 170.43994 
L 484.016327 184.375612 
L 486.293878 189.403533 
L 488.571429 194.132532 
L 490.84898 203.105121 
L 493.126531 203.105121 
L 495.404082 212.914869 
L 497.681633 205.911682 
L 499.959184 184.4689 
L 502.236735 158.217444 
L 504.514286 190.475485 
L 506.791837 190.475485 
L 509.069388 198.720232 
L 511.346939 198.720232 
L 513.62449 149.855757 
L 515.902041 160.083677 
L 518.179592 135.702968 
L 520.457143 70.023517 
L 522.734694 130.327103 
L 525.012245 139.817774 
L 529.567347 160.083677 
L 531.844898 167.468241 
L 534.122449 160.083677 
L 536.4 167.468241 
L 538.677551 203.940534 
L 543.232653 185.046995 
L 545.510204 120.67589 
L 547.787755 139.817774 
L 550.065306 96.262001 
L 554.620408 96.262001 
L 556.897959 97.430721 
L 559.17551 135.702968 
L 561.453061 80.110241 
L 563.730612 41.351459 
L 566.008163 41.351459 
L 568.285714 119.158971 
L 570.563265 127.710781 
L 572.840816 119.158971 
L 575.118367 119.158971 
L 577.395918 127.710781 
L 579.673469 143.65744 
L 581.95102 157.464593 
L 584.228571 192.821037 
L 586.506122 255.863669 
L 588.783673 255.590664 
L 593.338776 253.797642 
L 595.616327 251.099774 
L 597.893878 244.240682 
L 600.171429 247.119725 
L 602.44898 228.951046 
L 604.726531 223.738834 
L 607.004082 239.217143 
L 609.281633 210.373956 
L 611.559184 204.236876 
L 613.836735 204.236041 
L 616.114286 211.684943 
L 618.391837 210.373956 
L 620.669388 216.514807 
L 622.946939 214.567257 
L 625.22449 221.17483 
L 627.502041 198.111737 
L 629.779592 181.898972 
L 632.057143 175.474716 
L 634.334694 114.54567 
L 636.612245 101.320547 
L 638.889796 85.659872 
L 641.167347 91.589036 
L 643.444898 84.480103 
L 645.722449 65.706335 
L 648 76.56016 
L 648 76.56016 
" style="fill:none;stroke:#0000ff;stroke-linecap:square;stroke-opacity:0.05;stroke-width:1.5;"/>
   </g>
   <g id="line2d_20">
    <path clip-path="url(#p3095b4d90b)" d="M 90 137.52482 
L 92.277551 149.379763 
L 94.555102 159.846298 
L 96.832653 157.565335 
L 99.110204 143.115653 
L 101.387755 154.3476 
L 103.665306 135.146715 
L 105.942857 148.995343 
L 108.220408 170.888938 
L 110.497959 162.891585 
L 112.77551 177.197414 
L 115.053061 149.549146 
L 117.330612 158.22236 
L 119.608163 149.607398 
L 121.885714 174.353745 
L 124.163265 162.891585 
L 126.440816 155.925979 
L 128.718367 162.891585 
L 130.995918 136.212223 
L 133.273469 155.925979 
L 135.55102 135.155677 
L 137.828571 142.103882 
L 140.106122 125.695997 
L 142.383673 128.578962 
L 144.661224 114.54567 
L 146.938776 107.018399 
L 149.216327 132.270823 
L 151.493878 127.676434 
L 153.771429 127.934055 
L 156.04898 139.551164 
L 158.326531 132.270823 
L 160.604082 132.270823 
L 162.881633 157.796663 
L 165.159184 151.280668 
L 167.436735 151.280668 
L 169.714286 162.891585 
L 171.991837 141.240937 
L 174.269388 139.817774 
L 176.546939 167.468241 
L 178.82449 160.083677 
L 181.102041 167.468241 
L 183.379592 160.083677 
L 185.657143 97.430721 
L 187.934694 151.052654 
L 190.212245 135.702968 
L 192.489796 130.327103 
L 194.767347 104.058816 
L 197.044898 100.364055 
L 199.322449 36.053512 
L 201.6 36.053512 
L 203.877551 81.07555 
L 206.155102 96.360456 
L 208.432653 122.461272 
L 210.710204 93.97104 
L 212.987755 130.327103 
L 215.265306 135.702968 
L 217.542857 97.430721 
L 219.820408 130.327103 
L 222.097959 149.653669 
L 224.37551 177.197414 
L 226.653061 170.174788 
L 228.930612 151.704308 
L 231.208163 164.291058 
L 233.485714 162.562104 
L 235.763265 145.095489 
L 238.040816 149.240445 
L 240.318367 154.507762 
L 242.595918 175.208395 
L 244.873469 179.132866 
L 247.15102 171.570952 
L 249.428571 157.824709 
L 251.706122 180.210524 
L 253.983673 162.562104 
L 256.261224 138.431823 
L 260.816327 125.951634 
L 263.093878 107.144359 
L 265.371429 101.071806 
L 267.64898 130.516108 
L 269.926531 119.660777 
L 272.204082 125.859396 
L 274.481633 145.628224 
L 279.036735 163.937384 
L 281.314286 172.219447 
L 283.591837 172.219447 
L 285.869388 175.635898 
L 288.146939 190.507393 
L 290.42449 195.602795 
L 292.702041 203.444384 
L 294.979592 210.197635 
L 297.257143 185.544773 
L 299.534694 179.132866 
L 301.812245 163.015812 
L 304.089796 154.848236 
L 306.367347 156.774635 
L 308.644898 150.943762 
L 310.922449 163.015812 
L 313.2 127.032232 
L 315.477551 116.79897 
L 317.755102 135.762258 
L 320.032653 95.600938 
L 322.310204 161.507045 
L 324.587755 134.405781 
L 326.865306 162.181651 
L 329.142857 167.468147 
L 331.420408 173.440453 
L 333.697959 167.468075 
L 335.97551 195.91975 
L 338.253061 202.605038 
L 340.530612 201.595092 
L 342.808163 206.187127 
L 345.085714 208.501952 
L 347.363265 218.540837 
L 349.640816 208.294261 
L 351.918367 191.409264 
L 354.195918 182.419697 
L 356.473469 196.711604 
L 358.75102 154.329915 
L 361.028571 179.050455 
L 363.306122 202.345427 
L 365.583673 192.619985 
L 367.861224 194.308402 
L 370.138776 195.843714 
L 372.416327 186.159586 
L 374.693878 184.044904 
L 376.971429 187.465754 
L 379.24898 186.159678 
L 381.526531 189.027984 
L 383.804082 181.747496 
L 386.081633 164.137606 
L 388.359184 152.659361 
L 390.636735 173.505409 
L 392.914286 159.382779 
L 395.191837 162.995485 
L 397.469388 162.995485 
L 399.746939 163.751983 
L 402.02449 144.294395 
L 404.302041 119.936136 
L 406.579592 126.304077 
L 408.857143 126.304077 
L 411.134694 144.177442 
L 413.412245 113.410312 
L 415.689796 139.461498 
L 417.967347 127.676434 
L 420.244898 155.903855 
L 422.522449 156.505756 
L 424.8 167.468322 
L 427.077551 198.111517 
L 429.355102 210.37372 
L 431.632653 210.37372 
L 433.910204 205.911682 
L 436.187755 198.111517 
L 438.465306 204.324157 
L 440.742857 229.573924 
L 443.020408 182.137788 
L 445.297959 218.185714 
L 447.57551 223.738834 
L 452.130612 190.685577 
L 454.408163 185.095478 
L 456.685714 194.541302 
L 458.963265 206.360098 
L 461.240816 196.884426 
L 463.518367 204.236041 
L 465.795918 205.911682 
L 468.073469 177.544055 
L 470.35102 162.891525 
L 472.628571 170.004894 
L 474.906122 197.821306 
L 477.183673 211.569969 
L 479.461224 197.821306 
L 481.738776 191.011663 
L 484.016327 191.011663 
L 486.293878 177.197365 
L 488.571429 174.353632 
L 490.84898 149.607398 
L 493.126531 141.240937 
L 495.404082 117.149875 
L 497.681633 100.239226 
L 499.959184 87.258638 
L 502.236735 137.934773 
L 504.514286 75.784812 
L 506.791837 101.652047 
L 509.069388 93.45994 
L 511.346939 36.053512 
L 513.62449 88.192106 
L 515.902041 143.790725 
L 518.179592 135.702968 
L 520.457143 139.817774 
L 527.289796 139.817774 
L 529.567347 120.67589 
L 531.844898 117.149875 
L 534.122449 116.717058 
L 536.4 116.717058 
L 538.677551 114.54567 
L 540.955102 151.280617 
L 543.232653 128.414952 
L 545.510204 109.229095 
L 547.787755 128.578962 
L 550.065306 144.902384 
L 552.342857 164.291058 
L 554.620408 177.197365 
L 559.17551 177.197365 
L 561.453061 190.475985 
L 563.730612 130.327103 
L 566.008163 139.817774 
L 568.285714 149.855757 
L 570.563265 149.855757 
L 572.840816 160.083677 
L 575.118367 175.891656 
L 577.395918 190.475485 
L 579.673469 190.475485 
L 581.95102 198.720232 
L 584.228571 194.395713 
L 588.783673 233.682637 
L 591.061224 243.893513 
L 593.338776 233.682637 
L 595.616327 216.394059 
L 597.893878 167.468177 
L 600.171429 144.285285 
L 602.44898 157.464593 
L 604.726531 157.464593 
L 607.004082 231.325054 
L 609.281633 222.178724 
L 611.559184 204.234911 
L 613.836735 221.3745 
L 616.114286 210.633197 
L 618.391837 216.950712 
L 620.669388 218.18561 
L 625.22449 229.953757 
L 627.502041 218.619667 
L 629.779592 188.364255 
L 632.057143 175.474716 
L 634.334694 175.474716 
L 636.612245 170.004894 
L 638.889796 143.651621 
L 641.167347 136.212223 
L 643.444898 115.026497 
L 645.722449 118.73435 
L 648 101.652047 
L 648 101.652047 
" style="fill:none;stroke:#0000ff;stroke-linecap:square;stroke-opacity:0.05;stroke-width:1.5;"/>
   </g>
   <g id="line2d_21">
    <path clip-path="url(#p3095b4d90b)" d="M 90 137.72148 
L 92.277551 148.703879 
L 94.555102 173.302727 
L 96.832653 157.996472 
L 99.110204 159.885015 
L 101.387755 125.778719 
L 103.665306 125.778719 
L 105.942857 155.904006 
L 108.220408 173.818535 
L 110.497959 156.505756 
L 112.77551 177.115281 
L 115.053061 177.115281 
L 117.330612 151.280668 
L 119.608163 162.891585 
L 121.885714 170.004894 
L 124.163265 191.011663 
L 126.440816 184.251704 
L 128.718367 157.796663 
L 130.995918 174.306804 
L 133.273469 171.571067 
L 135.55102 157.824709 
L 137.828571 132.270823 
L 140.106122 109.229095 
L 142.383673 102.672846 
L 144.661224 133.71702 
L 146.938776 125.695997 
L 149.216327 132.270823 
L 151.493878 142.103882 
L 153.771429 118.73435 
L 156.04898 105.301461 
L 158.326531 167.468081 
L 160.604082 196.886357 
L 162.881633 224.082102 
L 165.159184 218.18551 
L 167.436735 200.952818 
L 169.714286 200.952818 
L 171.991837 194.215559 
L 174.269388 174.272312 
L 176.546939 173.133723 
L 178.82449 173.13358 
L 181.102041 167.468275 
L 183.379592 145.550004 
L 185.657143 75.784812 
L 187.934694 101.832916 
L 190.212245 118.73435 
L 192.489796 94.419784 
L 194.767347 101.832916 
L 197.044898 115.026497 
L 199.322449 125.209026 
L 201.6 143.651621 
L 203.877551 157.796663 
L 206.155102 164.291058 
L 208.432653 170.174788 
L 210.710204 202.55554 
L 212.987755 212.281712 
L 215.265306 202.55554 
L 217.542857 197.658702 
L 219.820408 202.55554 
L 222.097959 187.44449 
L 224.37551 182.315005 
L 226.653061 178.982922 
L 228.930612 192.774713 
L 231.208163 202.657419 
L 233.485714 167.468184 
L 235.763265 151.764884 
L 238.040816 165.247665 
L 240.318367 172.949004 
L 242.595918 187.221661 
L 244.873469 194.886729 
L 247.15102 191.631628 
L 249.428571 197.658702 
L 251.706122 180.848267 
L 253.983673 151.316941 
L 256.261224 156.37688 
L 258.538776 166.525549 
L 260.816327 161.449086 
L 263.093878 165.091262 
L 265.371429 145.095489 
L 267.64898 139.551164 
L 269.926531 151.704308 
L 272.204082 173.901457 
L 274.481633 173.901562 
L 276.759184 195.814403 
L 279.036735 213.240921 
L 281.314286 211.060641 
L 283.591837 219.09955 
L 285.869388 210.211077 
L 288.146939 194.812301 
L 290.42449 196.727176 
L 292.702041 197.836367 
L 294.979592 186.768759 
L 297.257143 180.42778 
L 299.534694 177.111933 
L 301.812245 181.19836 
L 304.089796 173.773679 
L 306.367347 173.605324 
L 308.644898 177.249862 
L 310.922449 195.900388 
L 313.2 185.168053 
L 315.477551 188.890625 
L 317.755102 193.719313 
L 320.032653 194.204273 
L 322.310204 198.052038 
L 324.587755 195.858854 
L 326.865306 211.034168 
L 329.142857 211.394516 
L 331.420408 203.212829 
L 333.697959 187.945418 
L 335.97551 179.051235 
L 338.253061 153.007919 
L 340.530612 141.145028 
L 342.808163 147.671299 
L 345.085714 153.517691 
L 347.363265 144.199726 
L 349.640816 138.330669 
L 351.918367 125.459736 
L 354.195918 144.199726 
L 356.473469 158.718112 
L 358.75102 167.468113 
L 361.028571 167.468151 
L 363.306122 172.703689 
L 365.583673 172.703694 
L 367.861224 167.468081 
L 370.138776 173.339152 
L 372.416327 178.216077 
L 374.693878 168.766657 
L 376.971429 168.766657 
L 379.24898 182.78633 
L 381.526531 179.050455 
L 383.804082 174.218147 
L 386.081633 174.218147 
L 388.359184 169.583582 
L 390.636735 169.583582 
L 392.914286 167.468371 
L 395.191837 168.813982 
L 397.469388 187.469803 
L 399.746939 202.023243 
L 402.02449 167.468174 
L 404.302041 177.183498 
L 406.579592 192.078952 
L 408.857143 180.210638 
L 411.134694 180.210524 
L 413.412245 167.468174 
L 415.689796 151.704308 
L 417.967347 157.824709 
L 420.244898 132.270823 
L 422.522449 133.65641 
L 424.8 127.676434 
L 427.077551 113.410312 
L 429.355102 148.650289 
L 431.632653 165.703557 
L 433.910204 155.903855 
L 436.187755 167.468322 
L 438.465306 162.34896 
L 440.742857 179.311884 
L 443.020408 179.311884 
L 445.297959 174.272312 
L 447.57551 191.76583 
L 449.853061 200.446561 
L 452.130612 162.787797 
L 454.408163 135.947647 
L 456.685714 150.275541 
L 458.963265 125.778719 
L 461.240816 152.114978 
L 463.518367 122.105413 
L 465.795918 138.094704 
L 468.073469 136.309595 
L 470.35102 156.37688 
L 472.628571 159.846298 
L 477.183673 191.344679 
L 479.461224 196.845242 
L 481.738776 211.829637 
L 484.016327 223.196145 
L 486.293878 240.222281 
L 488.571429 234.369678 
L 490.84898 221.174395 
L 493.126531 177.198004 
L 495.404082 195.28603 
L 497.681633 184.251704 
L 499.959184 177.544055 
L 502.236735 136.212223 
L 504.514286 142.120211 
L 506.791837 128.414952 
L 509.069388 138.711795 
L 511.346939 128.578962 
L 513.62449 135.146715 
L 515.902041 136.212223 
L 518.179592 93.97104 
L 520.457143 105.301461 
L 522.734694 141.240937 
L 525.012245 174.353632 
L 527.289796 185.046995 
L 529.567347 167.46808 
L 531.844898 174.353632 
L 534.122449 174.353632 
L 536.4 167.46808 
L 538.677551 175.891656 
L 543.232653 141.240937 
L 545.510204 130.327103 
L 547.787755 139.817774 
L 552.342857 194.395713 
L 554.620408 192.821037 
L 556.897959 160.083677 
L 559.17551 143.785097 
L 561.453061 105.301461 
L 563.730612 141.240937 
L 566.008163 149.549146 
L 568.285714 148.993897 
L 570.563265 136.212223 
L 572.840816 101.832916 
L 575.118367 82.609576 
L 577.395918 101.294701 
L 579.673469 135.155677 
L 581.95102 177.197365 
L 584.228571 162.891585 
L 586.506122 158.704344 
L 588.783673 136.212223 
L 591.061224 93.97104 
L 593.338776 124.865621 
L 595.616327 170.004894 
L 597.893878 199.248186 
L 600.171429 184.467972 
L 602.44898 149.549146 
L 607.004082 167.468034 
L 609.281633 167.468034 
L 611.559184 198.720232 
L 613.836735 190.475485 
L 616.114286 167.46808 
L 618.391837 149.855757 
L 620.669388 139.817774 
L 622.946939 160.083677 
L 625.22449 149.855757 
L 627.502041 97.430721 
L 629.779592 97.430721 
L 632.057143 96.262001 
L 634.334694 143.785097 
L 636.612245 149.855757 
L 638.889796 198.717516 
L 641.167347 141.240937 
L 643.444898 125.209026 
L 645.722449 151.160677 
L 648 143.648433 
L 648 143.648433 
" style="fill:none;stroke:#0000ff;stroke-linecap:square;stroke-opacity:0.05;stroke-width:1.5;"/>
   </g>
   <g id="line2d_22">
    <path clip-path="url(#p3095b4d90b)" d="M 90 164.767731 
L 92.277551 168.830486 
L 94.555102 168.802703 
L 96.832653 165.796399 
L 99.110204 163.943746 
L 101.387755 165.935161 
L 103.665306 159.108887 
L 105.942857 173.960938 
L 108.220408 174.417084 
L 110.497959 166.599585 
L 112.77551 168.949734 
L 115.053061 162.400334 
L 117.330612 161.692827 
L 119.608163 170.119464 
L 121.885714 175.770037 
L 124.163265 166.148195 
L 126.440816 166.487405 
L 128.718367 161.292935 
L 130.995918 157.311711 
L 133.273469 165.369109 
L 135.55102 158.41162 
L 137.828571 166.805987 
L 140.106122 163.638213 
L 142.383673 153.62252 
L 144.661224 153.251429 
L 146.938776 149.956884 
L 149.216327 153.918534 
L 151.493878 152.860719 
L 153.771429 145.44713 
L 156.04898 147.156863 
L 158.326531 157.094015 
L 160.604082 151.865099 
L 162.881633 148.389479 
L 165.159184 146.797522 
L 167.436735 150.899119 
L 169.714286 148.81269 
L 171.991837 151.89142 
L 174.269388 139.547977 
L 176.546939 146.005997 
L 178.82449 150.944112 
L 181.102041 151.923119 
L 183.379592 154.941006 
L 185.657143 141.386722 
L 187.934694 155.275318 
L 190.212245 152.681837 
L 192.489796 151.714406 
L 194.767347 143.302842 
L 197.044898 155.937419 
L 199.322449 142.450427 
L 201.6 135.33164 
L 203.877551 136.566202 
L 206.155102 133.968976 
L 208.432653 134.643282 
L 210.710204 139.16654 
L 212.987755 147.831424 
L 215.265306 154.731144 
L 217.542857 146.585817 
L 219.820408 150.042133 
L 222.097959 157.147857 
L 224.37551 161.810843 
L 226.653061 158.8389 
L 228.930612 153.676125 
L 231.208163 160.714259 
L 233.485714 157.51671 
L 235.763265 167.896658 
L 238.040816 166.120515 
L 240.318367 173.552639 
L 242.595918 174.421599 
L 244.873469 176.709817 
L 249.428571 177.578294 
L 251.706122 181.928574 
L 253.983673 175.104608 
L 256.261224 172.731075 
L 258.538776 174.097178 
L 260.816327 174.634993 
L 263.093878 164.90488 
L 265.371429 171.377853 
L 267.64898 171.813699 
L 269.926531 170.194525 
L 272.204082 174.631416 
L 274.481633 181.902823 
L 276.759184 179.039111 
L 279.036735 182.095489 
L 281.314286 175.375778 
L 283.591837 180.729804 
L 285.869388 181.581831 
L 288.146939 176.519696 
L 290.42449 169.416653 
L 292.702041 171.335656 
L 294.979592 170.060303 
L 297.257143 162.51184 
L 299.534694 167.199027 
L 301.812245 169.543135 
L 304.089796 169.443311 
L 306.367347 166.363477 
L 308.644898 162.382631 
L 310.922449 162.581089 
L 313.2 163.265396 
L 315.477551 165.246221 
L 317.755102 165.238097 
L 320.032653 167.871074 
L 322.310204 171.816849 
L 324.587755 163.415647 
L 326.865306 168.290772 
L 329.142857 164.571242 
L 331.420408 164.410356 
L 333.697959 158.373304 
L 335.97551 161.896068 
L 338.253061 153.983414 
L 340.530612 153.719592 
L 342.808163 161.194243 
L 345.085714 160.027724 
L 347.363265 158.012903 
L 349.640816 159.50655 
L 351.918367 149.17882 
L 354.195918 150.19689 
L 356.473469 152.584154 
L 358.75102 141.798379 
L 361.028571 142.314144 
L 363.306122 154.655402 
L 365.583673 151.329373 
L 367.861224 160.431045 
L 370.138776 160.314643 
L 372.416327 158.093765 
L 374.693878 158.368327 
L 376.971429 158.986729 
L 379.24898 157.573235 
L 381.526531 157.745468 
L 383.804082 153.755514 
L 386.081633 160.005494 
L 388.359184 144.407715 
L 390.636735 150.587844 
L 392.914286 154.857189 
L 395.191837 164.921088 
L 397.469388 168.420264 
L 399.746939 172.507328 
L 402.02449 170.999468 
L 404.302041 168.700982 
L 406.579592 174.49457 
L 408.857143 167.581813 
L 411.134694 164.249852 
L 413.412245 145.705693 
L 415.689796 145.760701 
L 417.967347 149.955931 
L 420.244898 155.488391 
L 422.522449 154.068912 
L 424.8 145.975301 
L 427.077551 159.894049 
L 429.355102 165.12593 
L 431.632653 164.164373 
L 433.910204 168.296603 
L 436.187755 163.649373 
L 438.465306 161.629114 
L 440.742857 168.7149 
L 443.020408 158.780469 
L 445.297959 162.568562 
L 447.57551 167.662431 
L 449.853061 167.611813 
L 452.130612 155.876105 
L 454.408163 153.751534 
L 456.685714 153.147041 
L 458.963265 164.201708 
L 461.240816 173.728489 
L 463.518367 174.440792 
L 465.795918 173.990639 
L 468.073469 163.357897 
L 470.35102 165.378937 
L 472.628571 177.742236 
L 474.906122 185.417732 
L 477.183673 190.532337 
L 479.461224 191.621248 
L 481.738776 185.060517 
L 484.016327 185.17307 
L 486.293878 175.975435 
L 488.571429 179.358949 
L 490.84898 179.283933 
L 493.126531 169.284576 
L 495.404082 166.605935 
L 497.681633 160.921605 
L 499.959184 153.508516 
L 502.236735 148.092995 
L 504.514286 140.855758 
L 506.791837 145.447809 
L 509.069388 157.051896 
L 511.346939 146.974191 
L 513.62449 145.348514 
L 515.902041 153.555284 
L 518.179592 147.136885 
L 520.457143 145.019331 
L 525.012245 165.058524 
L 527.289796 171.65645 
L 529.567347 167.441299 
L 531.844898 169.10701 
L 534.122449 172.363886 
L 536.4 172.369368 
L 538.677551 176.46078 
L 543.232653 168.055703 
L 545.510204 157.231532 
L 547.787755 161.402542 
L 550.065306 159.066944 
L 552.342857 165.618871 
L 554.620408 158.243974 
L 556.897959 155.46901 
L 559.17551 161.065948 
L 561.453061 151.887727 
L 563.730612 144.418046 
L 566.008163 147.807408 
L 568.285714 155.992261 
L 570.563265 160.468282 
L 572.840816 169.226097 
L 575.118367 171.406387 
L 577.395918 174.603429 
L 579.673469 177.326224 
L 581.95102 183.524144 
L 586.506122 194.495474 
L 588.783673 188.581373 
L 591.061224 184.059912 
L 593.338776 178.621816 
L 595.616327 174.472724 
L 597.893878 170.070082 
L 600.171429 163.793011 
L 602.44898 150.284184 
L 604.726531 158.533977 
L 607.004082 162.082106 
L 609.281633 158.822512 
L 611.559184 161.204198 
L 613.836735 171.27018 
L 616.114286 161.893114 
L 618.391837 159.421997 
L 620.669388 159.205295 
L 622.946939 166.285543 
L 625.22449 161.096009 
L 627.502041 149.36075 
L 629.779592 145.822678 
L 632.057143 152.529751 
L 634.334694 145.890279 
L 636.612245 150.027662 
L 638.889796 162.399761 
L 641.167347 157.182974 
L 643.444898 154.92857 
L 645.722449 156.171808 
L 648 149.458818 
L 648 149.458818 
" style="fill:none;stroke:#0000ff;stroke-linecap:square;stroke-width:1.5;"/>
   </g>
   <g id="patch_3">
    <path d="M 90 256.32 
L 90 34.56 
" style="fill:none;stroke:#000000;stroke-linecap:square;stroke-linejoin:miter;stroke-width:0.8;"/>
   </g>
   <g id="patch_4">
    <path d="M 648 256.32 
L 648 34.56 
" style="fill:none;stroke:#000000;stroke-linecap:square;stroke-linejoin:miter;stroke-width:0.8;"/>
   </g>
   <g id="patch_5">
    <path d="M 90 256.32 
L 648 256.32 
" style="fill:none;stroke:#000000;stroke-linecap:square;stroke-linejoin:miter;stroke-width:0.8;"/>
   </g>
   <g id="patch_6">
    <path d="M 90 34.56 
L 648 34.56 
" style="fill:none;stroke:#000000;stroke-linecap:square;stroke-linejoin:miter;stroke-width:0.8;"/>
   </g>
   <g id="text_13">
    <!-- Striatum, Num Trials=10 All unstimulated trials -->
    <defs>
     <path d="M 53.515625 70.515625 
L 53.515625 60.890625 
Q 47.90625 63.578125 42.921875 64.890625 
Q 37.9375 66.21875 33.296875 66.21875 
Q 25.25 66.21875 20.875 63.09375 
Q 16.5 59.96875 16.5 54.203125 
Q 16.5 49.359375 19.40625 46.890625 
Q 22.3125 44.4375 30.421875 42.921875 
L 36.375 41.703125 
Q 47.40625 39.59375 52.65625 34.296875 
Q 57.90625 29 57.90625 20.125 
Q 57.90625 9.515625 50.796875 4.046875 
Q 43.703125 -1.421875 29.984375 -1.421875 
Q 24.8125 -1.421875 18.96875 -0.25 
Q 13.140625 0.921875 6.890625 3.21875 
L 6.890625 13.375 
Q 12.890625 10.015625 18.65625 8.296875 
Q 24.421875 6.59375 29.984375 6.59375 
Q 38.421875 6.59375 43.015625 9.90625 
Q 47.609375 13.234375 47.609375 19.390625 
Q 47.609375 24.75 44.3125 27.78125 
Q 41.015625 30.8125 33.5 32.328125 
L 27.484375 33.5 
Q 16.453125 35.6875 11.515625 40.375 
Q 6.59375 45.0625 6.59375 53.421875 
Q 6.59375 63.09375 13.40625 68.65625 
Q 20.21875 74.21875 32.171875 74.21875 
Q 37.3125 74.21875 42.625 73.28125 
Q 47.953125 72.359375 53.515625 70.515625 
z
" id="DejaVuSans-83"/>
     <path d="M 18.3125 70.21875 
L 18.3125 54.6875 
L 36.8125 54.6875 
L 36.8125 47.703125 
L 18.3125 47.703125 
L 18.3125 18.015625 
Q 18.3125 11.328125 20.140625 9.421875 
Q 21.96875 7.515625 27.59375 7.515625 
L 36.8125 7.515625 
L 36.8125 0 
L 27.59375 0 
Q 17.1875 0 13.234375 3.875 
Q 9.28125 7.765625 9.28125 18.015625 
L 9.28125 47.703125 
L 2.6875 47.703125 
L 2.6875 54.6875 
L 9.28125 54.6875 
L 9.28125 70.21875 
z
" id="DejaVuSans-116"/>
     <path d="M 41.109375 46.296875 
Q 39.59375 47.171875 37.8125 47.578125 
Q 36.03125 48 33.890625 48 
Q 26.265625 48 22.1875 43.046875 
Q 18.109375 38.09375 18.109375 28.8125 
L 18.109375 0 
L 9.078125 0 
L 9.078125 54.6875 
L 18.109375 54.6875 
L 18.109375 46.1875 
Q 20.953125 51.171875 25.484375 53.578125 
Q 30.03125 56 36.53125 56 
Q 37.453125 56 38.578125 55.875 
Q 39.703125 55.765625 41.0625 55.515625 
z
" id="DejaVuSans-114"/>
     <path d="M 34.28125 27.484375 
Q 23.390625 27.484375 19.1875 25 
Q 14.984375 22.515625 14.984375 16.5 
Q 14.984375 11.71875 18.140625 8.90625 
Q 21.296875 6.109375 26.703125 6.109375 
Q 34.1875 6.109375 38.703125 11.40625 
Q 43.21875 16.703125 43.21875 25.484375 
L 43.21875 27.484375 
z
M 52.203125 31.203125 
L 52.203125 0 
L 43.21875 0 
L 43.21875 8.296875 
Q 40.140625 3.328125 35.546875 0.953125 
Q 30.953125 -1.421875 24.3125 -1.421875 
Q 15.921875 -1.421875 10.953125 3.296875 
Q 6 8.015625 6 15.921875 
Q 6 25.140625 12.171875 29.828125 
Q 18.359375 34.515625 30.609375 34.515625 
L 43.21875 34.515625 
L 43.21875 35.40625 
Q 43.21875 41.609375 39.140625 45 
Q 35.0625 48.390625 27.6875 48.390625 
Q 23 48.390625 18.546875 47.265625 
Q 14.109375 46.140625 10.015625 43.890625 
L 10.015625 52.203125 
Q 14.9375 54.109375 19.578125 55.046875 
Q 24.21875 56 28.609375 56 
Q 40.484375 56 46.34375 49.84375 
Q 52.203125 43.703125 52.203125 31.203125 
z
" id="DejaVuSans-97"/>
     <path d="M 8.5 21.578125 
L 8.5 54.6875 
L 17.484375 54.6875 
L 17.484375 21.921875 
Q 17.484375 14.15625 20.5 10.265625 
Q 23.53125 6.390625 29.59375 6.390625 
Q 36.859375 6.390625 41.078125 11.03125 
Q 45.3125 15.671875 45.3125 23.6875 
L 45.3125 54.6875 
L 54.296875 54.6875 
L 54.296875 0 
L 45.3125 0 
L 45.3125 8.40625 
Q 42.046875 3.421875 37.71875 1 
Q 33.40625 -1.421875 27.6875 -1.421875 
Q 18.265625 -1.421875 13.375 4.4375 
Q 8.5 10.296875 8.5 21.578125 
z
M 31.109375 56 
z
" id="DejaVuSans-117"/>
     <path d="M 11.71875 12.40625 
L 22.015625 12.40625 
L 22.015625 4 
L 14.015625 -11.625 
L 7.71875 -11.625 
L 11.71875 4 
z
" id="DejaVuSans-44"/>
     <path d="M 9.8125 72.90625 
L 23.09375 72.90625 
L 55.421875 11.921875 
L 55.421875 72.90625 
L 64.984375 72.90625 
L 64.984375 0 
L 51.703125 0 
L 19.390625 60.984375 
L 19.390625 0 
L 9.8125 0 
z
" id="DejaVuSans-78"/>
     <path d="M 9.421875 75.984375 
L 18.40625 75.984375 
L 18.40625 0 
L 9.421875 0 
z
" id="DejaVuSans-108"/>
     <path d="M 10.59375 45.40625 
L 73.1875 45.40625 
L 73.1875 37.203125 
L 10.59375 37.203125 
z
M 10.59375 25.484375 
L 73.1875 25.484375 
L 73.1875 17.1875 
L 10.59375 17.1875 
z
" id="DejaVuSans-61"/>
     <path d="M 34.1875 63.1875 
L 20.796875 26.90625 
L 47.609375 26.90625 
z
M 28.609375 72.90625 
L 39.796875 72.90625 
L 67.578125 0 
L 57.328125 0 
L 50.6875 18.703125 
L 17.828125 18.703125 
L 11.1875 0 
L 0.78125 0 
z
" id="DejaVuSans-65"/>
     <path d="M 54.890625 33.015625 
L 54.890625 0 
L 45.90625 0 
L 45.90625 32.71875 
Q 45.90625 40.484375 42.875 44.328125 
Q 39.84375 48.1875 33.796875 48.1875 
Q 26.515625 48.1875 22.3125 43.546875 
Q 18.109375 38.921875 18.109375 30.90625 
L 18.109375 0 
L 9.078125 0 
L 9.078125 54.6875 
L 18.109375 54.6875 
L 18.109375 46.1875 
Q 21.34375 51.125 25.703125 53.5625 
Q 30.078125 56 35.796875 56 
Q 45.21875 56 50.046875 50.171875 
Q 54.890625 44.34375 54.890625 33.015625 
z
" id="DejaVuSans-110"/>
     <path d="M 45.40625 46.390625 
L 45.40625 75.984375 
L 54.390625 75.984375 
L 54.390625 0 
L 45.40625 0 
L 45.40625 8.203125 
Q 42.578125 3.328125 38.25 0.953125 
Q 33.9375 -1.421875 27.875 -1.421875 
Q 17.96875 -1.421875 11.734375 6.484375 
Q 5.515625 14.40625 5.515625 27.296875 
Q 5.515625 40.1875 11.734375 48.09375 
Q 17.96875 56 27.875 56 
Q 33.9375 56 38.25 53.625 
Q 42.578125 51.265625 45.40625 46.390625 
z
M 14.796875 27.296875 
Q 14.796875 17.390625 18.875 11.75 
Q 22.953125 6.109375 30.078125 6.109375 
Q 37.203125 6.109375 41.296875 11.75 
Q 45.40625 17.390625 45.40625 27.296875 
Q 45.40625 37.203125 41.296875 42.84375 
Q 37.203125 48.484375 30.078125 48.484375 
Q 22.953125 48.484375 18.875 42.84375 
Q 14.796875 37.203125 14.796875 27.296875 
z
" id="DejaVuSans-100"/>
    </defs>
    <g transform="translate(226.54875 28.56)scale(0.12 -0.12)">
     <use xlink:href="#DejaVuSans-83"/>
     <use x="63.476562" xlink:href="#DejaVuSans-116"/>
     <use x="102.685547" xlink:href="#DejaVuSans-114"/>
     <use x="143.798828" xlink:href="#DejaVuSans-105"/>
     <use x="171.582031" xlink:href="#DejaVuSans-97"/>
     <use x="232.861328" xlink:href="#DejaVuSans-116"/>
     <use x="272.070312" xlink:href="#DejaVuSans-117"/>
     <use x="335.449219" xlink:href="#DejaVuSans-109"/>
     <use x="432.861328" xlink:href="#DejaVuSans-44"/>
     <use x="464.648438" xlink:href="#DejaVuSans-32"/>
     <use x="496.435547" xlink:href="#DejaVuSans-78"/>
     <use x="571.240234" xlink:href="#DejaVuSans-117"/>
     <use x="634.619141" xlink:href="#DejaVuSans-109"/>
     <use x="732.03125" xlink:href="#DejaVuSans-32"/>
     <use x="763.818359" xlink:href="#DejaVuSans-84"/>
     <use x="824.683594" xlink:href="#DejaVuSans-114"/>
     <use x="865.796875" xlink:href="#DejaVuSans-105"/>
     <use x="893.580078" xlink:href="#DejaVuSans-97"/>
     <use x="954.859375" xlink:href="#DejaVuSans-108"/>
     <use x="982.642578" xlink:href="#DejaVuSans-115"/>
     <use x="1034.742188" xlink:href="#DejaVuSans-61"/>
     <use x="1118.53125" xlink:href="#DejaVuSans-49"/>
     <use x="1182.154297" xlink:href="#DejaVuSans-48"/>
     <use x="1245.777344" xlink:href="#DejaVuSans-32"/>
     <use x="1277.564453" xlink:href="#DejaVuSans-65"/>
     <use x="1345.972656" xlink:href="#DejaVuSans-108"/>
     <use x="1373.755859" xlink:href="#DejaVuSans-108"/>
     <use x="1401.539062" xlink:href="#DejaVuSans-32"/>
     <use x="1433.326172" xlink:href="#DejaVuSans-117"/>
     <use x="1496.705078" xlink:href="#DejaVuSans-110"/>
     <use x="1560.083984" xlink:href="#DejaVuSans-115"/>
     <use x="1612.183594" xlink:href="#DejaVuSans-116"/>
     <use x="1651.392578" xlink:href="#DejaVuSans-105"/>
     <use x="1679.175781" xlink:href="#DejaVuSans-109"/>
     <use x="1776.587891" xlink:href="#DejaVuSans-117"/>
     <use x="1839.966797" xlink:href="#DejaVuSans-108"/>
     <use x="1867.75" xlink:href="#DejaVuSans-97"/>
     <use x="1929.029297" xlink:href="#DejaVuSans-116"/>
     <use x="1968.238281" xlink:href="#DejaVuSans-101"/>
     <use x="2029.761719" xlink:href="#DejaVuSans-100"/>
     <use x="2093.238281" xlink:href="#DejaVuSans-32"/>
     <use x="2125.025391" xlink:href="#DejaVuSans-116"/>
     <use x="2164.234375" xlink:href="#DejaVuSans-114"/>
     <use x="2205.347656" xlink:href="#DejaVuSans-105"/>
     <use x="2233.130859" xlink:href="#DejaVuSans-97"/>
     <use x="2294.410156" xlink:href="#DejaVuSans-108"/>
     <use x="2322.193359" xlink:href="#DejaVuSans-115"/>
    </g>
   </g>
   <g id="legend_1">
    <g id="patch_7">
     <path d="M 302.16 61.77375 
L 435.84 61.77375 
Q 438.24 61.77375 438.24 59.37375 
L 438.24 42.96 
Q 438.24 40.56 435.84 40.56 
L 302.16 40.56 
Q 299.76 40.56 299.76 42.96 
L 299.76 59.37375 
Q 299.76 61.77375 302.16 61.77375 
z
" style="fill:#ffffff;opacity:0.8;stroke:#cccccc;stroke-linejoin:miter;"/>
    </g>
    <g id="line2d_23">
     <path d="M 304.56 50.278125 
L 328.56 50.278125 
" style="fill:none;stroke:#0000ff;stroke-linecap:square;stroke-width:1.5;"/>
    </g>
    <g id="line2d_24"/>
    <g id="text_14">
     <!-- COM-Binomial $\nu$ -->
     <defs>
      <path d="M 64.40625 67.28125 
L 64.40625 56.890625 
Q 59.421875 61.53125 53.78125 63.8125 
Q 48.140625 66.109375 41.796875 66.109375 
Q 29.296875 66.109375 22.65625 58.46875 
Q 16.015625 50.828125 16.015625 36.375 
Q 16.015625 21.96875 22.65625 14.328125 
Q 29.296875 6.6875 41.796875 6.6875 
Q 48.140625 6.6875 53.78125 8.984375 
Q 59.421875 11.28125 64.40625 15.921875 
L 64.40625 5.609375 
Q 59.234375 2.09375 53.4375 0.328125 
Q 47.65625 -1.421875 41.21875 -1.421875 
Q 24.65625 -1.421875 15.125 8.703125 
Q 5.609375 18.84375 5.609375 36.375 
Q 5.609375 53.953125 15.125 64.078125 
Q 24.65625 74.21875 41.21875 74.21875 
Q 47.75 74.21875 53.53125 72.484375 
Q 59.328125 70.75 64.40625 67.28125 
z
" id="DejaVuSans-67"/>
      <path d="M 39.40625 66.21875 
Q 28.65625 66.21875 22.328125 58.203125 
Q 16.015625 50.203125 16.015625 36.375 
Q 16.015625 22.609375 22.328125 14.59375 
Q 28.65625 6.59375 39.40625 6.59375 
Q 50.140625 6.59375 56.421875 14.59375 
Q 62.703125 22.609375 62.703125 36.375 
Q 62.703125 50.203125 56.421875 58.203125 
Q 50.140625 66.21875 39.40625 66.21875 
z
M 39.40625 74.21875 
Q 54.734375 74.21875 63.90625 63.9375 
Q 73.09375 53.65625 73.09375 36.375 
Q 73.09375 19.140625 63.90625 8.859375 
Q 54.734375 -1.421875 39.40625 -1.421875 
Q 24.03125 -1.421875 14.8125 8.828125 
Q 5.609375 19.09375 5.609375 36.375 
Q 5.609375 53.65625 14.8125 63.9375 
Q 24.03125 74.21875 39.40625 74.21875 
z
" id="DejaVuSans-79"/>
      <path d="M 9.8125 72.90625 
L 24.515625 72.90625 
L 43.109375 23.296875 
L 61.8125 72.90625 
L 76.515625 72.90625 
L 76.515625 0 
L 66.890625 0 
L 66.890625 64.015625 
L 48.09375 14.015625 
L 38.1875 14.015625 
L 19.390625 64.015625 
L 19.390625 0 
L 9.8125 0 
z
" id="DejaVuSans-77"/>
      <path d="M 4.890625 31.390625 
L 31.203125 31.390625 
L 31.203125 23.390625 
L 4.890625 23.390625 
z
" id="DejaVuSans-45"/>
      <path d="M 19.671875 34.8125 
L 19.671875 8.109375 
L 35.5 8.109375 
Q 43.453125 8.109375 47.28125 11.40625 
Q 51.125 14.703125 51.125 21.484375 
Q 51.125 28.328125 47.28125 31.5625 
Q 43.453125 34.8125 35.5 34.8125 
z
M 19.671875 64.796875 
L 19.671875 42.828125 
L 34.28125 42.828125 
Q 41.5 42.828125 45.03125 45.53125 
Q 48.578125 48.25 48.578125 53.8125 
Q 48.578125 59.328125 45.03125 62.0625 
Q 41.5 64.796875 34.28125 64.796875 
z
M 9.8125 72.90625 
L 35.015625 72.90625 
Q 46.296875 72.90625 52.390625 68.21875 
Q 58.5 63.53125 58.5 54.890625 
Q 58.5 48.1875 55.375 44.234375 
Q 52.25 40.28125 46.1875 39.3125 
Q 53.46875 37.75 57.5 32.78125 
Q 61.53125 27.828125 61.53125 20.40625 
Q 61.53125 10.640625 54.890625 5.3125 
Q 48.25 0 35.984375 0 
L 9.8125 0 
z
" id="DejaVuSans-66"/>
      <path d="M 30.609375 48.390625 
Q 23.390625 48.390625 19.1875 42.75 
Q 14.984375 37.109375 14.984375 27.296875 
Q 14.984375 17.484375 19.15625 11.84375 
Q 23.34375 6.203125 30.609375 6.203125 
Q 37.796875 6.203125 41.984375 11.859375 
Q 46.1875 17.53125 46.1875 27.296875 
Q 46.1875 37.015625 41.984375 42.703125 
Q 37.796875 48.390625 30.609375 48.390625 
z
M 30.609375 56 
Q 42.328125 56 49.015625 48.375 
Q 55.71875 40.765625 55.71875 27.296875 
Q 55.71875 13.875 49.015625 6.21875 
Q 42.328125 -1.421875 30.609375 -1.421875 
Q 18.84375 -1.421875 12.171875 6.21875 
Q 5.515625 13.875 5.515625 27.296875 
Q 5.515625 40.765625 12.171875 48.375 
Q 18.84375 56 30.609375 56 
z
" id="DejaVuSans-111"/>
      <path d="M 14.984375 0 
L 8.9375 54.6875 
L 18.609375 54.6875 
L 23.78125 8.796875 
Q 30.8125 14.84375 37.359375 23.25 
Q 42.28125 29.546875 43.5625 35.015625 
Q 44.140625 37.59375 43.890625 42.484375 
Q 43.65625 48.296875 39.75 54.6875 
L 48.828125 54.6875 
L 48.828125 54.6875 
Q 51.375 50.34375 52.390625 44.28125 
Q 53.375 38.71875 52.640625 34.90625 
Q 50.78125 25.34375 42.484375 16.796875 
Q 31.640625 5.671875 24.5625 0 
z
" id="DejaVuSans-Oblique-957"/>
     </defs>
     <g transform="translate(338.16 54.478125)scale(0.12 -0.12)">
      <use transform="translate(0 0.015625)" xlink:href="#DejaVuSans-67"/>
      <use transform="translate(69.824219 0.015625)" xlink:href="#DejaVuSans-79"/>
      <use transform="translate(148.535156 0.015625)" xlink:href="#DejaVuSans-77"/>
      <use transform="translate(234.814453 0.015625)" xlink:href="#DejaVuSans-45"/>
      <use transform="translate(270.898438 0.015625)" xlink:href="#DejaVuSans-66"/>
      <use transform="translate(339.501953 0.015625)" xlink:href="#DejaVuSans-105"/>
      <use transform="translate(367.285156 0.015625)" xlink:href="#DejaVuSans-110"/>
      <use transform="translate(430.664062 0.015625)" xlink:href="#DejaVuSans-111"/>
      <use transform="translate(491.845703 0.015625)" xlink:href="#DejaVuSans-109"/>
      <use transform="translate(589.257812 0.015625)" xlink:href="#DejaVuSans-105"/>
      <use transform="translate(617.041016 0.015625)" xlink:href="#DejaVuSans-97"/>
      <use transform="translate(678.320312 0.015625)" xlink:href="#DejaVuSans-108"/>
      <use transform="translate(706.103516 0.015625)" xlink:href="#DejaVuSans-32"/>
      <use transform="translate(737.890625 0.015625)" xlink:href="#DejaVuSans-Oblique-957"/>
     </g>
    </g>
   </g>
  </g>
 </g>
 <defs>
  <clipPath id="p3095b4d90b">
   <rect height="221.76" width="558" x="90" y="34.56"/>
  </clipPath>
 </defs>
</svg>
