<?xml version="1.0" encoding="utf-8" standalone="no"?>
<!DOCTYPE svg PUBLIC "-//W3C//DTD SVG 1.1//EN"
  "http://www.w3.org/Graphics/SVG/1.1/DTD/svg11.dtd">
<!-- Created with matplotlib (https://matplotlib.org/) -->
<svg height="216pt" version="1.1" viewBox="0 0 648 216" width="648pt" xmlns="http://www.w3.org/2000/svg" xmlns:xlink="http://www.w3.org/1999/xlink">
 <defs>
  <style type="text/css">
*{stroke-linecap:butt;stroke-linejoin:round;}
  </style>
 </defs>
 <g id="figure_1">
  <g id="patch_1">
   <path d="M 0 216 
L 648 216 
L 648 0 
L 0 0 
z
" style="fill:#ffffff;"/>
  </g>
  <g id="axes_1">
   <g id="patch_2">
    <path d="M 81 192.24 
L 583.2 192.24 
L 583.2 25.92 
L 81 25.92 
z
" style="fill:#ffffff;"/>
   </g>
   <g id="PolyCollection_1">
    <defs>
     <path d="M 81 -95.768321 
L 81 -57.202374 
L 83.049796 -73.582526 
L 85.099592 -70.752722 
L 87.149388 -61.247168 
L 89.199184 -49.049552 
L 91.24898 -47.385336 
L 93.298776 -40.592883 
L 95.348571 -47.307282 
L 97.398367 -48.499207 
L 99.448163 -45.654036 
L 101.497959 -53.02971 
L 103.547755 -50.506859 
L 105.597551 -45.185408 
L 107.647347 -39.314376 
L 109.697143 -38.761664 
L 111.746939 -39.480354 
L 113.796735 -40.674995 
L 115.846531 -47.200433 
L 117.896327 -48.028395 
L 119.946122 -53.660624 
L 121.995918 -50.65599 
L 124.045714 -54.182414 
L 126.09551 -56.74988 
L 128.145306 -46.347459 
L 130.195102 -45.097997 
L 132.244898 -47.738086 
L 134.294694 -55.208118 
L 136.34449 -54.14753 
L 138.394286 -58.612959 
L 140.444082 -69.808893 
L 142.493878 -67.801556 
L 144.543673 -61.639427 
L 146.593469 -59.103289 
L 148.643265 -49.42933 
L 150.693061 -50.340828 
L 152.742857 -51.790694 
L 154.792653 -50.217941 
L 156.842449 -55.503986 
L 158.892245 -55.05023 
L 160.942041 -47.806285 
L 162.991837 -53.938874 
L 165.041633 -40.783955 
L 167.091429 -41.779512 
L 169.141224 -48.138751 
L 171.19102 -44.809616 
L 173.240816 -44.457106 
L 175.290612 -37.380302 
L 177.340408 -36.70238 
L 179.390204 -43.940601 
L 181.44 -44.020385 
L 183.489796 -50.584536 
L 185.539592 -51.970434 
L 187.589388 -53.443596 
L 189.639184 -37.180608 
L 191.68898 -42.784354 
L 193.738776 -40.703437 
L 195.788571 -40.497786 
L 197.838367 -36.559728 
L 199.888163 -34.259952 
L 201.937959 -35.466328 
L 203.987755 -34.663227 
L 206.037551 -47.250181 
L 208.087347 -63.043587 
L 210.137143 -91.089703 
L 212.186939 -110.126972 
L 214.236735 -99.379628 
L 216.286531 -99.856275 
L 218.336327 -118.908811 
L 220.386122 -121.701672 
L 222.435918 -115.957474 
L 224.485714 -125.70069 
L 226.53551 -108.387091 
L 228.585306 -103.116758 
L 230.635102 -104.382617 
L 232.684898 -100.411139 
L 234.734694 -81.880309 
L 236.78449 -75.19818 
L 238.834286 -73.265874 
L 240.884082 -48.887813 
L 242.933878 -45.578173 
L 244.983673 -37.829966 
L 247.033469 -25.737957 
L 249.083265 -39.205711 
L 251.133061 -46.769168 
L 253.182857 -45.154751 
L 255.232653 -65.510228 
L 257.282449 -66.081755 
L 259.332245 -73.93664 
L 261.382041 -79.112321 
L 263.431837 -68.495836 
L 265.481633 -80.994725 
L 267.531429 -63.536092 
L 269.581224 -53.476034 
L 271.63102 -46.885171 
L 273.680816 -64.865878 
L 275.730612 -52.906326 
L 277.780408 -44.294608 
L 279.830204 -42.131409 
L 281.88 -26.772699 
L 283.929796 -23.76 
L 285.979592 -27.767224 
L 288.029388 -29.110638 
L 290.079184 -40.964659 
L 292.12898 -36.702951 
L 294.178776 -38.95308 
L 296.228571 -39.166491 
L 298.278367 -35.321264 
L 300.328163 -29.265438 
L 302.377959 -28.817816 
L 304.427755 -36.484379 
L 306.477551 -32.953873 
L 308.527347 -37.216853 
L 310.577143 -44.593055 
L 312.626939 -44.649388 
L 314.676735 -50.834213 
L 316.726531 -60.861947 
L 318.776327 -55.669483 
L 320.826122 -66.839869 
L 322.875918 -61.734609 
L 324.925714 -78.976278 
L 326.97551 -83.28999 
L 329.025306 -101.764064 
L 331.075102 -103.156996 
L 333.124898 -88.824122 
L 335.174694 -69.873498 
L 337.22449 -76.866485 
L 339.274286 -66.320081 
L 341.324082 -75.222879 
L 343.373878 -67.474868 
L 345.423673 -59.711381 
L 347.473469 -39.485789 
L 349.523265 -41.952768 
L 351.573061 -36.352445 
L 353.622857 -36.663489 
L 355.672653 -31.746659 
L 357.722449 -43.221131 
L 359.772245 -53.592109 
L 361.822041 -54.38719 
L 363.871837 -75.756172 
L 365.921633 -77.140851 
L 367.971429 -74.361887 
L 370.021224 -72.658909 
L 372.07102 -61.732596 
L 374.120816 -62.859493 
L 376.170612 -51.304545 
L 378.220408 -68.096246 
L 380.270204 -57.156767 
L 382.32 -60.406958 
L 384.369796 -53.463283 
L 386.419592 -48.02897 
L 388.469388 -53.686103 
L 390.519184 -67.41287 
L 392.56898 -68.339292 
L 394.618776 -62.081647 
L 396.668571 -76.859523 
L 398.718367 -77.331249 
L 400.768163 -73.885369 
L 402.817959 -69.621308 
L 404.867755 -83.13866 
L 406.917551 -102.927923 
L 408.967347 -102.332287 
L 411.017143 -103.799848 
L 413.066939 -85.875581 
L 415.116735 -79.885084 
L 417.166531 -77.594556 
L 419.216327 -87.595322 
L 421.266122 -93.276424 
L 423.315918 -75.165935 
L 425.365714 -66.791668 
L 427.41551 -58.109011 
L 429.465306 -49.094922 
L 431.515102 -39.564005 
L 433.564898 -36.775451 
L 435.614694 -48.04072 
L 437.66449 -53.003922 
L 439.714286 -51.227155 
L 441.764082 -79.26232 
L 443.813878 -72.84383 
L 445.863673 -74.178709 
L 447.913469 -80.632522 
L 449.963265 -69.030092 
L 452.013061 -95.585571 
L 454.062857 -77.56251 
L 456.112653 -78.47429 
L 458.162449 -78.397191 
L 460.212245 -64.360078 
L 462.262041 -58.486506 
L 464.311837 -42.998258 
L 466.361633 -41.010178 
L 468.411429 -39.843237 
L 470.461224 -31.863698 
L 472.51102 -30.238394 
L 474.560816 -32.587408 
L 476.610612 -42.837603 
L 478.660408 -51.022643 
L 480.710204 -63.071612 
L 482.76 -70.946181 
L 484.809796 -84.428291 
L 486.859592 -88.315903 
L 488.909388 -67.258645 
L 490.959184 -66.546997 
L 493.00898 -60.866272 
L 495.058776 -65.434875 
L 497.108571 -57.916017 
L 499.158367 -62.272266 
L 501.208163 -70.436919 
L 503.257959 -84.990963 
L 505.307755 -89.120082 
L 507.357551 -96.144237 
L 509.407347 -113.22188 
L 511.457143 -102.315415 
L 513.506939 -113.051899 
L 515.556735 -84.595168 
L 517.606531 -68.649589 
L 519.656327 -74.268108 
L 521.706122 -60.163608 
L 523.755918 -71.984213 
L 525.805714 -71.24761 
L 527.85551 -98.024126 
L 529.905306 -82.17859 
L 531.955102 -78.262061 
L 534.004898 -84.64958 
L 536.054694 -86.28398 
L 538.10449 -90.327414 
L 540.154286 -94.028847 
L 542.204082 -90.262783 
L 544.253878 -83.117156 
L 546.303673 -81.411448 
L 548.353469 -67.304456 
L 550.403265 -64.757796 
L 552.453061 -70.719349 
L 554.502857 -68.21768 
L 556.552653 -73.238182 
L 558.602449 -65.551487 
L 560.652245 -80.171572 
L 562.702041 -81.087517 
L 564.751837 -77.410915 
L 566.801633 -86.291624 
L 568.851429 -75.024595 
L 570.901224 -85.972326 
L 572.95102 -84.296522 
L 575.000816 -67.91173 
L 577.050612 -66.633581 
L 579.100408 -78.941305 
L 581.150204 -65.586406 
L 583.2 -64.852704 
L 583.2 -107.267889 
L 583.2 -107.267889 
L 581.150204 -104.180892 
L 579.100408 -122.64174 
L 577.050612 -99.763505 
L 575.000816 -106.973782 
L 572.95102 -130.899746 
L 570.901224 -135.824653 
L 568.851429 -124.186668 
L 566.801633 -138.914708 
L 564.751837 -126.750583 
L 562.702041 -132.90301 
L 560.652245 -131.197886 
L 558.602449 -114.701866 
L 556.552653 -120.891549 
L 554.502857 -115.263928 
L 552.453061 -122.892803 
L 550.403265 -110.757985 
L 548.353469 -107.460044 
L 546.303673 -131.3843 
L 544.253878 -133.143337 
L 542.204082 -138.430036 
L 540.154286 -146.304641 
L 538.10449 -136.300376 
L 536.054694 -131.011176 
L 534.004898 -130.392358 
L 531.955102 -123.149334 
L 529.905306 -130.885784 
L 527.85551 -154.036717 
L 525.805714 -113.542415 
L 523.755918 -112.174884 
L 521.706122 -97.408593 
L 519.656327 -120.231662 
L 517.606531 -109.058563 
L 515.556735 -132.472861 
L 513.506939 -166.758713 
L 511.457143 -155.071932 
L 509.407347 -172.919585 
L 507.357551 -147.297628 
L 505.307755 -137.362256 
L 503.257959 -136.682742 
L 501.208163 -111.908298 
L 499.158367 -107.432024 
L 497.108571 -95.631307 
L 495.058776 -105.978975 
L 493.00898 -104.820337 
L 490.959184 -113.233251 
L 488.909388 -112.395926 
L 486.859592 -137.280575 
L 484.809796 -138.977793 
L 482.76 -124.169942 
L 480.710204 -105.587502 
L 478.660408 -91.18507 
L 476.610612 -64.590432 
L 474.560816 -49.991663 
L 472.51102 -52.591048 
L 470.461224 -60.472784 
L 468.411429 -69.154929 
L 466.361633 -70.842029 
L 464.311837 -75.690964 
L 462.262041 -105.922547 
L 460.212245 -108.193704 
L 458.162449 -125.665023 
L 456.112653 -128.883593 
L 454.062857 -132.767401 
L 452.013061 -159.358185 
L 449.963265 -119.321653 
L 447.913469 -136.476737 
L 445.863673 -125.005369 
L 443.813878 -125.180743 
L 441.764082 -134.228425 
L 439.714286 -83.265599 
L 437.66449 -93.413945 
L 435.614694 -84.501886 
L 433.564898 -56.351337 
L 431.515102 -66.382158 
L 429.465306 -75.653272 
L 427.41551 -89.933628 
L 425.365714 -105.99245 
L 423.315918 -118.213516 
L 421.266122 -146.546896 
L 419.216327 -141.059735 
L 417.166531 -123.669055 
L 415.116735 -130.635246 
L 413.066939 -135.715542 
L 411.017143 -163.954088 
L 408.967347 -158.094895 
L 406.917551 -158.887769 
L 404.867755 -131.016421 
L 402.817959 -112.013656 
L 400.768163 -121.436303 
L 398.718367 -123.132632 
L 396.668571 -123.676831 
L 394.618776 -104.538936 
L 392.56898 -110.408457 
L 390.519184 -111.930634 
L 388.469388 -87.657219 
L 386.419592 -81.014545 
L 384.369796 -86.982646 
L 382.32 -100.864233 
L 380.270204 -100.853807 
L 378.220408 -117.752841 
L 376.170612 -91.279587 
L 374.120816 -109.70437 
L 372.07102 -104.371648 
L 370.021224 -120.271724 
L 367.971429 -121.679272 
L 365.921633 -124.042391 
L 363.871837 -124.854527 
L 361.822041 -91.03226 
L 359.772245 -93.190504 
L 357.722449 -77.209182 
L 355.672653 -54.069177 
L 353.622857 -60.697957 
L 351.573061 -65.847363 
L 349.523265 -74.89024 
L 347.473469 -64.388084 
L 345.423673 -94.85492 
L 343.373878 -107.914055 
L 341.324082 -118.758207 
L 339.274286 -102.737487 
L 337.22449 -122.756273 
L 335.174694 -113.715219 
L 333.124898 -145.621129 
L 331.075102 -163.077962 
L 329.025306 -159.339217 
L 326.97551 -130.093439 
L 324.925714 -117.745505 
L 322.875918 -92.028322 
L 320.826122 -107.885279 
L 318.776327 -86.502939 
L 316.726531 -96.4981 
L 314.676735 -86.524673 
L 312.626939 -74.951002 
L 310.577143 -77.125765 
L 308.527347 -55.528004 
L 306.477551 -49.669821 
L 304.427755 -60.974364 
L 302.377959 -44.64175 
L 300.328163 -50.173562 
L 298.278367 -58.200331 
L 296.228571 -69.351907 
L 294.178776 -73.263428 
L 292.12898 -68.92996 
L 290.079184 -75.731237 
L 288.029388 -49.831183 
L 285.979592 -49.626801 
L 283.929796 -45.594768 
L 281.88 -49.1151 
L 279.830204 -79.031359 
L 277.780408 -82.788973 
L 275.730612 -100.172493 
L 273.680816 -115.726941 
L 271.63102 -79.920541 
L 269.581224 -93.612884 
L 267.531429 -107.234643 
L 265.481633 -134.371312 
L 263.431837 -119.118663 
L 261.382041 -136.930111 
L 259.332245 -124.674278 
L 257.282449 -112.046204 
L 255.232653 -110.779964 
L 253.182857 -79.509806 
L 251.133061 -85.052295 
L 249.083265 -70.700706 
L 247.033469 -51.418068 
L 244.983673 -68.461547 
L 242.933878 -77.27514 
L 240.884082 -83.101482 
L 238.834286 -121.103676 
L 236.78449 -121.439863 
L 234.734694 -129.590047 
L 232.684898 -157.211161 
L 230.635102 -164.182934 
L 228.585306 -162.482048 
L 226.53551 -171.339101 
L 224.485714 -190.08 
L 222.435918 -177.170946 
L 220.386122 -185.256761 
L 218.336327 -186.570406 
L 216.286531 -162.943802 
L 214.236735 -160.131537 
L 212.186939 -168.224982 
L 210.137143 -142.8822 
L 208.087347 -105.822417 
L 206.037551 -84.397729 
L 203.987755 -67.532084 
L 201.937959 -62.360368 
L 199.888163 -58.300535 
L 197.838367 -61.177219 
L 195.788571 -65.616921 
L 193.738776 -66.410679 
L 191.68898 -69.937933 
L 189.639184 -69.965086 
L 187.589388 -94.672741 
L 185.539592 -90.978929 
L 183.489796 -88.068815 
L 181.44 -80.119888 
L 179.390204 -81.044015 
L 177.340408 -68.096395 
L 175.290612 -66.075586 
L 173.240816 -80.511474 
L 171.19102 -82.431693 
L 169.141224 -83.345045 
L 167.091429 -66.249968 
L 165.041633 -68.29561 
L 162.991837 -87.564411 
L 160.942041 -75.66815 
L 158.892245 -85.086913 
L 156.842449 -82.251743 
L 154.792653 -75.010865 
L 152.742857 -78.612808 
L 150.693061 -78.377161 
L 148.643265 -82.194511 
L 146.593469 -92.286167 
L 144.543673 -99.720122 
L 142.493878 -102.319216 
L 140.444082 -103.672796 
L 138.394286 -88.463701 
L 136.34449 -76.890187 
L 134.294694 -76.594792 
L 132.244898 -73.593628 
L 130.195102 -73.387346 
L 128.145306 -77.630251 
L 126.09551 -90.224445 
L 124.045714 -88.225323 
L 121.995918 -77.077693 
L 119.946122 -77.24219 
L 117.896327 -80.606238 
L 115.846531 -77.103123 
L 113.796735 -64.225462 
L 111.746939 -59.801454 
L 109.697143 -62.201964 
L 107.647347 -65.107443 
L 105.597551 -81.222717 
L 103.547755 -91.282612 
L 101.497959 -94.302576 
L 99.448163 -82.700987 
L 97.398367 -88.186186 
L 95.348571 -83.081534 
L 93.298776 -69.466579 
L 91.24898 -79.677166 
L 89.199184 -80.207629 
L 87.149388 -97.485105 
L 85.099592 -117.347979 
L 83.049796 -120.352614 
L 81 -95.768321 
z
" id="m56ab1e0eb7" style="stroke:#0000ff;stroke-opacity:0.3;"/>
    </defs>
    <g clip-path="url(#pe87bbe07be)">
     <use style="fill:#0000ff;fill-opacity:0.3;stroke:#0000ff;stroke-opacity:0.3;" x="0" xlink:href="#m56ab1e0eb7" y="216"/>
    </g>
   </g>
   <g id="PolyCollection_2">
    <defs>
     <path d="M 128.042816 -23.76 
L 128.042816 -190.08 
L 435.512204 -190.08 
L 435.512204 -23.76 
L 435.512204 -23.76 
L 128.042816 -23.76 
z
" id="m6c58ea7679" style="stroke:#808080;stroke-opacity:0.3;"/>
    </defs>
    <g clip-path="url(#pe87bbe07be)">
     <use style="fill:#808080;fill-opacity:0.3;stroke:#808080;stroke-opacity:0.3;" x="0" xlink:href="#m6c58ea7679" y="216"/>
    </g>
   </g>
   <g id="matplotlib.axis_1">
    <g id="xtick_1">
     <g id="line2d_1">
      <defs>
       <path d="M 0 0 
L 0 3.5 
" id="mef92134dfa" style="stroke:#000000;stroke-width:0.8;"/>
      </defs>
      <g>
       <use style="stroke:#000000;stroke-width:0.8;" x="81" xlink:href="#mef92134dfa" y="192.24"/>
      </g>
     </g>
     <g id="text_1">
      <!-- 0.0 -->
      <defs>
       <path d="M 31.78125 66.40625 
Q 24.171875 66.40625 20.328125 58.90625 
Q 16.5 51.421875 16.5 36.375 
Q 16.5 21.390625 20.328125 13.890625 
Q 24.171875 6.390625 31.78125 6.390625 
Q 39.453125 6.390625 43.28125 13.890625 
Q 47.125 21.390625 47.125 36.375 
Q 47.125 51.421875 43.28125 58.90625 
Q 39.453125 66.40625 31.78125 66.40625 
z
M 31.78125 74.21875 
Q 44.046875 74.21875 50.515625 64.515625 
Q 56.984375 54.828125 56.984375 36.375 
Q 56.984375 17.96875 50.515625 8.265625 
Q 44.046875 -1.421875 31.78125 -1.421875 
Q 19.53125 -1.421875 13.0625 8.265625 
Q 6.59375 17.96875 6.59375 36.375 
Q 6.59375 54.828125 13.0625 64.515625 
Q 19.53125 74.21875 31.78125 74.21875 
z
" id="DejaVuSans-48"/>
       <path d="M 10.6875 12.40625 
L 21 12.40625 
L 21 0 
L 10.6875 0 
z
" id="DejaVuSans-46"/>
      </defs>
      <g transform="translate(71.458125 208.358125)scale(0.12 -0.12)">
       <use xlink:href="#DejaVuSans-48"/>
       <use x="63.623047" xlink:href="#DejaVuSans-46"/>
       <use x="95.410156" xlink:href="#DejaVuSans-48"/>
      </g>
     </g>
    </g>
    <g id="xtick_2">
     <g id="line2d_2">
      <g>
       <use style="stroke:#000000;stroke-width:0.8;" x="183.489796" xlink:href="#mef92134dfa" y="192.24"/>
      </g>
     </g>
     <g id="text_2">
      <!-- 0.5 -->
      <defs>
       <path d="M 10.796875 72.90625 
L 49.515625 72.90625 
L 49.515625 64.59375 
L 19.828125 64.59375 
L 19.828125 46.734375 
Q 21.96875 47.46875 24.109375 47.828125 
Q 26.265625 48.1875 28.421875 48.1875 
Q 40.625 48.1875 47.75 41.5 
Q 54.890625 34.8125 54.890625 23.390625 
Q 54.890625 11.625 47.5625 5.09375 
Q 40.234375 -1.421875 26.90625 -1.421875 
Q 22.3125 -1.421875 17.546875 -0.640625 
Q 12.796875 0.140625 7.71875 1.703125 
L 7.71875 11.625 
Q 12.109375 9.234375 16.796875 8.0625 
Q 21.484375 6.890625 26.703125 6.890625 
Q 35.15625 6.890625 40.078125 11.328125 
Q 45.015625 15.765625 45.015625 23.390625 
Q 45.015625 31 40.078125 35.4375 
Q 35.15625 39.890625 26.703125 39.890625 
Q 22.75 39.890625 18.8125 39.015625 
Q 14.890625 38.140625 10.796875 36.28125 
z
" id="DejaVuSans-53"/>
      </defs>
      <g transform="translate(173.947921 208.358125)scale(0.12 -0.12)">
       <use xlink:href="#DejaVuSans-48"/>
       <use x="63.623047" xlink:href="#DejaVuSans-46"/>
       <use x="95.410156" xlink:href="#DejaVuSans-53"/>
      </g>
     </g>
    </g>
    <g id="xtick_3">
     <g id="line2d_3">
      <g>
       <use style="stroke:#000000;stroke-width:0.8;" x="285.979592" xlink:href="#mef92134dfa" y="192.24"/>
      </g>
     </g>
     <g id="text_3">
      <!-- 1.0 -->
      <defs>
       <path d="M 12.40625 8.296875 
L 28.515625 8.296875 
L 28.515625 63.921875 
L 10.984375 60.40625 
L 10.984375 69.390625 
L 28.421875 72.90625 
L 38.28125 72.90625 
L 38.28125 8.296875 
L 54.390625 8.296875 
L 54.390625 0 
L 12.40625 0 
z
" id="DejaVuSans-49"/>
      </defs>
      <g transform="translate(276.437717 208.358125)scale(0.12 -0.12)">
       <use xlink:href="#DejaVuSans-49"/>
       <use x="63.623047" xlink:href="#DejaVuSans-46"/>
       <use x="95.410156" xlink:href="#DejaVuSans-48"/>
      </g>
     </g>
    </g>
    <g id="xtick_4">
     <g id="line2d_4">
      <g>
       <use style="stroke:#000000;stroke-width:0.8;" x="388.469388" xlink:href="#mef92134dfa" y="192.24"/>
      </g>
     </g>
     <g id="text_4">
      <!-- 1.5 -->
      <g transform="translate(378.927513 208.358125)scale(0.12 -0.12)">
       <use xlink:href="#DejaVuSans-49"/>
       <use x="63.623047" xlink:href="#DejaVuSans-46"/>
       <use x="95.410156" xlink:href="#DejaVuSans-53"/>
      </g>
     </g>
    </g>
    <g id="xtick_5">
     <g id="line2d_5">
      <g>
       <use style="stroke:#000000;stroke-width:0.8;" x="490.959184" xlink:href="#mef92134dfa" y="192.24"/>
      </g>
     </g>
     <g id="text_5">
      <!-- 2.0 -->
      <defs>
       <path d="M 19.1875 8.296875 
L 53.609375 8.296875 
L 53.609375 0 
L 7.328125 0 
L 7.328125 8.296875 
Q 12.9375 14.109375 22.625 23.890625 
Q 32.328125 33.6875 34.8125 36.53125 
Q 39.546875 41.84375 41.421875 45.53125 
Q 43.3125 49.21875 43.3125 52.78125 
Q 43.3125 58.59375 39.234375 62.25 
Q 35.15625 65.921875 28.609375 65.921875 
Q 23.96875 65.921875 18.8125 64.3125 
Q 13.671875 62.703125 7.8125 59.421875 
L 7.8125 69.390625 
Q 13.765625 71.78125 18.9375 73 
Q 24.125 74.21875 28.421875 74.21875 
Q 39.75 74.21875 46.484375 68.546875 
Q 53.21875 62.890625 53.21875 53.421875 
Q 53.21875 48.921875 51.53125 44.890625 
Q 49.859375 40.875 45.40625 35.40625 
Q 44.1875 33.984375 37.640625 27.21875 
Q 31.109375 20.453125 19.1875 8.296875 
z
" id="DejaVuSans-50"/>
      </defs>
      <g transform="translate(481.417309 208.358125)scale(0.12 -0.12)">
       <use xlink:href="#DejaVuSans-50"/>
       <use x="63.623047" xlink:href="#DejaVuSans-46"/>
       <use x="95.410156" xlink:href="#DejaVuSans-48"/>
      </g>
     </g>
    </g>
    <g id="text_6">
     <!-- Time (s) -->
     <defs>
      <path d="M -0.296875 72.90625 
L 61.375 72.90625 
L 61.375 64.59375 
L 35.5 64.59375 
L 35.5 0 
L 25.59375 0 
L 25.59375 64.59375 
L -0.296875 64.59375 
z
" id="DejaVuSans-84"/>
      <path d="M 9.421875 54.6875 
L 18.40625 54.6875 
L 18.40625 0 
L 9.421875 0 
z
M 9.421875 75.984375 
L 18.40625 75.984375 
L 18.40625 64.59375 
L 9.421875 64.59375 
z
" id="DejaVuSans-105"/>
      <path d="M 52 44.1875 
Q 55.375 50.25 60.0625 53.125 
Q 64.75 56 71.09375 56 
Q 79.640625 56 84.28125 50.015625 
Q 88.921875 44.046875 88.921875 33.015625 
L 88.921875 0 
L 79.890625 0 
L 79.890625 32.71875 
Q 79.890625 40.578125 77.09375 44.375 
Q 74.3125 48.1875 68.609375 48.1875 
Q 61.625 48.1875 57.5625 43.546875 
Q 53.515625 38.921875 53.515625 30.90625 
L 53.515625 0 
L 44.484375 0 
L 44.484375 32.71875 
Q 44.484375 40.625 41.703125 44.40625 
Q 38.921875 48.1875 33.109375 48.1875 
Q 26.21875 48.1875 22.15625 43.53125 
Q 18.109375 38.875 18.109375 30.90625 
L 18.109375 0 
L 9.078125 0 
L 9.078125 54.6875 
L 18.109375 54.6875 
L 18.109375 46.1875 
Q 21.1875 51.21875 25.484375 53.609375 
Q 29.78125 56 35.6875 56 
Q 41.65625 56 45.828125 52.96875 
Q 50 49.953125 52 44.1875 
z
" id="DejaVuSans-109"/>
      <path d="M 56.203125 29.59375 
L 56.203125 25.203125 
L 14.890625 25.203125 
Q 15.484375 15.921875 20.484375 11.0625 
Q 25.484375 6.203125 34.421875 6.203125 
Q 39.59375 6.203125 44.453125 7.46875 
Q 49.3125 8.734375 54.109375 11.28125 
L 54.109375 2.78125 
Q 49.265625 0.734375 44.1875 -0.34375 
Q 39.109375 -1.421875 33.890625 -1.421875 
Q 20.796875 -1.421875 13.15625 6.1875 
Q 5.515625 13.8125 5.515625 26.8125 
Q 5.515625 40.234375 12.765625 48.109375 
Q 20.015625 56 32.328125 56 
Q 43.359375 56 49.78125 48.890625 
Q 56.203125 41.796875 56.203125 29.59375 
z
M 47.21875 32.234375 
Q 47.125 39.59375 43.09375 43.984375 
Q 39.0625 48.390625 32.421875 48.390625 
Q 24.90625 48.390625 20.390625 44.140625 
Q 15.875 39.890625 15.1875 32.171875 
z
" id="DejaVuSans-101"/>
      <path id="DejaVuSans-32"/>
      <path d="M 31 75.875 
Q 24.46875 64.65625 21.28125 53.65625 
Q 18.109375 42.671875 18.109375 31.390625 
Q 18.109375 20.125 21.3125 9.0625 
Q 24.515625 -2 31 -13.1875 
L 23.1875 -13.1875 
Q 15.875 -1.703125 12.234375 9.375 
Q 8.59375 20.453125 8.59375 31.390625 
Q 8.59375 42.28125 12.203125 53.3125 
Q 15.828125 64.359375 23.1875 75.875 
z
" id="DejaVuSans-40"/>
      <path d="M 44.28125 53.078125 
L 44.28125 44.578125 
Q 40.484375 46.53125 36.375 47.5 
Q 32.28125 48.484375 27.875 48.484375 
Q 21.1875 48.484375 17.84375 46.4375 
Q 14.5 44.390625 14.5 40.28125 
Q 14.5 37.15625 16.890625 35.375 
Q 19.28125 33.59375 26.515625 31.984375 
L 29.59375 31.296875 
Q 39.15625 29.25 43.1875 25.515625 
Q 47.21875 21.78125 47.21875 15.09375 
Q 47.21875 7.46875 41.1875 3.015625 
Q 35.15625 -1.421875 24.609375 -1.421875 
Q 20.21875 -1.421875 15.453125 -0.5625 
Q 10.6875 0.296875 5.421875 2 
L 5.421875 11.28125 
Q 10.40625 8.6875 15.234375 7.390625 
Q 20.0625 6.109375 24.8125 6.109375 
Q 31.15625 6.109375 34.5625 8.28125 
Q 37.984375 10.453125 37.984375 14.40625 
Q 37.984375 18.0625 35.515625 20.015625 
Q 33.0625 21.96875 24.703125 23.78125 
L 21.578125 24.515625 
Q 13.234375 26.265625 9.515625 29.90625 
Q 5.8125 33.546875 5.8125 39.890625 
Q 5.8125 47.609375 11.28125 51.796875 
Q 16.75 56 26.8125 56 
Q 31.78125 56 36.171875 55.265625 
Q 40.578125 54.546875 44.28125 53.078125 
z
" id="DejaVuSans-115"/>
      <path d="M 8.015625 75.875 
L 15.828125 75.875 
Q 23.140625 64.359375 26.78125 53.3125 
Q 30.421875 42.28125 30.421875 31.390625 
Q 30.421875 20.453125 26.78125 9.375 
Q 23.140625 -1.703125 15.828125 -13.1875 
L 8.015625 -13.1875 
Q 14.5 -2 17.703125 9.0625 
Q 20.90625 20.125 20.90625 31.390625 
Q 20.90625 42.671875 17.703125 53.65625 
Q 14.5 64.65625 8.015625 75.875 
z
" id="DejaVuSans-41"/>
     </defs>
     <g transform="translate(302.60475 225.7955)scale(0.144 -0.144)">
      <use xlink:href="#DejaVuSans-84"/>
      <use x="61.037109" xlink:href="#DejaVuSans-105"/>
      <use x="88.820312" xlink:href="#DejaVuSans-109"/>
      <use x="186.232422" xlink:href="#DejaVuSans-101"/>
      <use x="247.755859" xlink:href="#DejaVuSans-32"/>
      <use x="279.542969" xlink:href="#DejaVuSans-40"/>
      <use x="318.556641" xlink:href="#DejaVuSans-115"/>
      <use x="370.65625" xlink:href="#DejaVuSans-41"/>
     </g>
    </g>
   </g>
   <g id="matplotlib.axis_2">
    <g id="ytick_1">
     <g id="line2d_6">
      <defs>
       <path d="M 0 0 
L -3.5 0 
" id="m3ba5991cef" style="stroke:#000000;stroke-width:0.8;"/>
      </defs>
      <g>
       <use style="stroke:#000000;stroke-width:0.8;" x="81" xlink:href="#m3ba5991cef" y="178.125374"/>
      </g>
     </g>
     <g id="text_7">
      <!-- 0.01 -->
      <g transform="translate(47.28125 182.684437)scale(0.12 -0.12)">
       <use xlink:href="#DejaVuSans-48"/>
       <use x="63.623047" xlink:href="#DejaVuSans-46"/>
       <use x="95.410156" xlink:href="#DejaVuSans-48"/>
       <use x="159.033203" xlink:href="#DejaVuSans-49"/>
      </g>
     </g>
    </g>
    <g id="ytick_2">
     <g id="line2d_7">
      <g>
       <use style="stroke:#000000;stroke-width:0.8;" x="81" xlink:href="#m3ba5991cef" y="139.598472"/>
      </g>
     </g>
     <g id="text_8">
      <!-- 0.02 -->
      <g transform="translate(47.28125 144.157535)scale(0.12 -0.12)">
       <use xlink:href="#DejaVuSans-48"/>
       <use x="63.623047" xlink:href="#DejaVuSans-46"/>
       <use x="95.410156" xlink:href="#DejaVuSans-48"/>
       <use x="159.033203" xlink:href="#DejaVuSans-50"/>
      </g>
     </g>
    </g>
    <g id="ytick_3">
     <g id="line2d_8">
      <g>
       <use style="stroke:#000000;stroke-width:0.8;" x="81" xlink:href="#m3ba5991cef" y="101.07157"/>
      </g>
     </g>
     <g id="text_9">
      <!-- 0.03 -->
      <defs>
       <path d="M 40.578125 39.3125 
Q 47.65625 37.796875 51.625 33 
Q 55.609375 28.21875 55.609375 21.1875 
Q 55.609375 10.40625 48.1875 4.484375 
Q 40.765625 -1.421875 27.09375 -1.421875 
Q 22.515625 -1.421875 17.65625 -0.515625 
Q 12.796875 0.390625 7.625 2.203125 
L 7.625 11.71875 
Q 11.71875 9.328125 16.59375 8.109375 
Q 21.484375 6.890625 26.8125 6.890625 
Q 36.078125 6.890625 40.9375 10.546875 
Q 45.796875 14.203125 45.796875 21.1875 
Q 45.796875 27.640625 41.28125 31.265625 
Q 36.765625 34.90625 28.71875 34.90625 
L 20.21875 34.90625 
L 20.21875 43.015625 
L 29.109375 43.015625 
Q 36.375 43.015625 40.234375 45.921875 
Q 44.09375 48.828125 44.09375 54.296875 
Q 44.09375 59.90625 40.109375 62.90625 
Q 36.140625 65.921875 28.71875 65.921875 
Q 24.65625 65.921875 20.015625 65.03125 
Q 15.375 64.15625 9.8125 62.3125 
L 9.8125 71.09375 
Q 15.4375 72.65625 20.34375 73.4375 
Q 25.25 74.21875 29.59375 74.21875 
Q 40.828125 74.21875 47.359375 69.109375 
Q 53.90625 64.015625 53.90625 55.328125 
Q 53.90625 49.265625 50.4375 45.09375 
Q 46.96875 40.921875 40.578125 39.3125 
z
" id="DejaVuSans-51"/>
      </defs>
      <g transform="translate(47.28125 105.630633)scale(0.12 -0.12)">
       <use xlink:href="#DejaVuSans-48"/>
       <use x="63.623047" xlink:href="#DejaVuSans-46"/>
       <use x="95.410156" xlink:href="#DejaVuSans-48"/>
       <use x="159.033203" xlink:href="#DejaVuSans-51"/>
      </g>
     </g>
    </g>
    <g id="ytick_4">
     <g id="line2d_9">
      <g>
       <use style="stroke:#000000;stroke-width:0.8;" x="81" xlink:href="#m3ba5991cef" y="62.544669"/>
      </g>
     </g>
     <g id="text_10">
      <!-- 0.04 -->
      <defs>
       <path d="M 37.796875 64.3125 
L 12.890625 25.390625 
L 37.796875 25.390625 
z
M 35.203125 72.90625 
L 47.609375 72.90625 
L 47.609375 25.390625 
L 58.015625 25.390625 
L 58.015625 17.1875 
L 47.609375 17.1875 
L 47.609375 0 
L 37.796875 0 
L 37.796875 17.1875 
L 4.890625 17.1875 
L 4.890625 26.703125 
z
" id="DejaVuSans-52"/>
      </defs>
      <g transform="translate(47.28125 67.103731)scale(0.12 -0.12)">
       <use xlink:href="#DejaVuSans-48"/>
       <use x="63.623047" xlink:href="#DejaVuSans-46"/>
       <use x="95.410156" xlink:href="#DejaVuSans-48"/>
       <use x="159.033203" xlink:href="#DejaVuSans-52"/>
      </g>
     </g>
    </g>
    <g id="text_11">
     <!-- COMb $p$ -->
     <defs>
      <path d="M 64.40625 67.28125 
L 64.40625 56.890625 
Q 59.421875 61.53125 53.78125 63.8125 
Q 48.140625 66.109375 41.796875 66.109375 
Q 29.296875 66.109375 22.65625 58.46875 
Q 16.015625 50.828125 16.015625 36.375 
Q 16.015625 21.96875 22.65625 14.328125 
Q 29.296875 6.6875 41.796875 6.6875 
Q 48.140625 6.6875 53.78125 8.984375 
Q 59.421875 11.28125 64.40625 15.921875 
L 64.40625 5.609375 
Q 59.234375 2.09375 53.4375 0.328125 
Q 47.65625 -1.421875 41.21875 -1.421875 
Q 24.65625 -1.421875 15.125 8.703125 
Q 5.609375 18.84375 5.609375 36.375 
Q 5.609375 53.953125 15.125 64.078125 
Q 24.65625 74.21875 41.21875 74.21875 
Q 47.75 74.21875 53.53125 72.484375 
Q 59.328125 70.75 64.40625 67.28125 
z
" id="DejaVuSans-67"/>
      <path d="M 39.40625 66.21875 
Q 28.65625 66.21875 22.328125 58.203125 
Q 16.015625 50.203125 16.015625 36.375 
Q 16.015625 22.609375 22.328125 14.59375 
Q 28.65625 6.59375 39.40625 6.59375 
Q 50.140625 6.59375 56.421875 14.59375 
Q 62.703125 22.609375 62.703125 36.375 
Q 62.703125 50.203125 56.421875 58.203125 
Q 50.140625 66.21875 39.40625 66.21875 
z
M 39.40625 74.21875 
Q 54.734375 74.21875 63.90625 63.9375 
Q 73.09375 53.65625 73.09375 36.375 
Q 73.09375 19.140625 63.90625 8.859375 
Q 54.734375 -1.421875 39.40625 -1.421875 
Q 24.03125 -1.421875 14.8125 8.828125 
Q 5.609375 19.09375 5.609375 36.375 
Q 5.609375 53.65625 14.8125 63.9375 
Q 24.03125 74.21875 39.40625 74.21875 
z
" id="DejaVuSans-79"/>
      <path d="M 9.8125 72.90625 
L 24.515625 72.90625 
L 43.109375 23.296875 
L 61.8125 72.90625 
L 76.515625 72.90625 
L 76.515625 0 
L 66.890625 0 
L 66.890625 64.015625 
L 48.09375 14.015625 
L 38.1875 14.015625 
L 19.390625 64.015625 
L 19.390625 0 
L 9.8125 0 
z
" id="DejaVuSans-77"/>
      <path d="M 48.6875 27.296875 
Q 48.6875 37.203125 44.609375 42.84375 
Q 40.53125 48.484375 33.40625 48.484375 
Q 26.265625 48.484375 22.1875 42.84375 
Q 18.109375 37.203125 18.109375 27.296875 
Q 18.109375 17.390625 22.1875 11.75 
Q 26.265625 6.109375 33.40625 6.109375 
Q 40.53125 6.109375 44.609375 11.75 
Q 48.6875 17.390625 48.6875 27.296875 
z
M 18.109375 46.390625 
Q 20.953125 51.265625 25.265625 53.625 
Q 29.59375 56 35.59375 56 
Q 45.5625 56 51.78125 48.09375 
Q 58.015625 40.1875 58.015625 27.296875 
Q 58.015625 14.40625 51.78125 6.484375 
Q 45.5625 -1.421875 35.59375 -1.421875 
Q 29.59375 -1.421875 25.265625 0.953125 
Q 20.953125 3.328125 18.109375 8.203125 
L 18.109375 0 
L 9.078125 0 
L 9.078125 75.984375 
L 18.109375 75.984375 
z
" id="DejaVuSans-98"/>
      <path d="M 49.609375 33.6875 
Q 49.609375 40.875 46.484375 44.671875 
Q 43.359375 48.484375 37.5 48.484375 
Q 33.5 48.484375 29.859375 46.4375 
Q 26.21875 44.390625 23.390625 40.484375 
Q 20.609375 36.625 18.9375 31.15625 
Q 17.28125 25.6875 17.28125 20.3125 
Q 17.28125 13.484375 20.40625 9.796875 
Q 23.53125 6.109375 29.296875 6.109375 
Q 33.546875 6.109375 37.1875 8.109375 
Q 40.828125 10.109375 43.40625 13.921875 
Q 46.1875 17.921875 47.890625 23.34375 
Q 49.609375 28.765625 49.609375 33.6875 
z
M 21.78125 46.390625 
Q 25.390625 51.125 30.296875 53.5625 
Q 35.203125 56 41.21875 56 
Q 49.609375 56 54.25 50.5 
Q 58.890625 45.015625 58.890625 35.109375 
Q 58.890625 27 56 19.65625 
Q 53.125 12.3125 47.703125 6.5 
Q 44.09375 2.640625 39.546875 0.609375 
Q 35.015625 -1.421875 29.984375 -1.421875 
Q 24.171875 -1.421875 20.21875 1 
Q 16.265625 3.421875 14.3125 8.203125 
L 8.6875 -20.796875 
L -0.296875 -20.796875 
L 14.40625 54.6875 
L 23.390625 54.6875 
z
" id="DejaVuSans-Oblique-112"/>
     </defs>
     <g transform="translate(40.25725 137.448)rotate(-90)scale(0.144 -0.144)">
      <use transform="translate(0 0.015625)" xlink:href="#DejaVuSans-67"/>
      <use transform="translate(69.824219 0.015625)" xlink:href="#DejaVuSans-79"/>
      <use transform="translate(148.535156 0.015625)" xlink:href="#DejaVuSans-77"/>
      <use transform="translate(234.814453 0.015625)" xlink:href="#DejaVuSans-98"/>
      <use transform="translate(298.291016 0.015625)" xlink:href="#DejaVuSans-32"/>
      <use transform="translate(330.078125 0.015625)" xlink:href="#DejaVuSans-Oblique-112"/>
     </g>
    </g>
   </g>
   <g id="line2d_10">
    <path clip-path="url(#pe87bbe07be)" d="M 81 139.514653 
L 83.049796 119.03243 
L 85.099592 121.949649 
L 89.199184 151.371409 
L 91.24898 152.468749 
L 93.298776 160.970269 
L 95.348571 150.805592 
L 97.398367 147.657303 
L 99.448163 151.822488 
L 101.497959 142.333857 
L 103.547755 145.105265 
L 105.597551 152.795938 
L 107.647347 163.789091 
L 109.697143 165.518186 
L 111.746939 166.359096 
L 113.796735 163.549772 
L 115.846531 153.848222 
L 117.896327 151.682683 
L 119.946122 150.548593 
L 121.995918 152.133159 
L 124.045714 144.796131 
L 126.09551 142.512838 
L 128.145306 154.011145 
L 130.195102 156.757328 
L 132.244898 155.334143 
L 134.294694 150.098545 
L 136.34449 150.481141 
L 138.394286 142.46167 
L 140.444082 129.259155 
L 142.493878 130.939614 
L 144.543673 135.320226 
L 146.593469 140.305272 
L 148.643265 150.188079 
L 150.693061 151.641006 
L 152.742857 150.798249 
L 154.792653 153.385597 
L 156.842449 147.122135 
L 158.892245 145.931428 
L 160.942041 154.262783 
L 162.991837 145.248358 
L 165.041633 161.460218 
L 167.091429 161.98526 
L 169.141224 150.258102 
L 171.19102 152.379345 
L 173.240816 153.51571 
L 175.290612 164.272056 
L 177.340408 163.600612 
L 179.390204 153.507692 
L 181.44 153.929864 
L 183.489796 146.673325 
L 185.539592 144.525318 
L 187.589388 141.941831 
L 189.639184 162.427153 
L 191.68898 159.638857 
L 193.738776 162.442942 
L 195.788571 162.942647 
L 197.838367 167.131527 
L 199.888163 169.719756 
L 201.937959 167.086652 
L 203.987755 164.902344 
L 206.037551 150.176045 
L 208.087347 131.566998 
L 210.137143 99.014048 
L 212.186939 76.824023 
L 214.236735 86.244418 
L 216.286531 84.599962 
L 218.336327 63.260392 
L 220.386122 62.520783 
L 222.435918 69.43579 
L 224.485714 58.109655 
L 226.53551 76.136904 
L 228.585306 83.200597 
L 230.635102 81.717225 
L 232.684898 87.18885 
L 234.734694 110.264822 
L 236.78449 117.680979 
L 238.834286 118.815225 
L 240.884082 150.005353 
L 242.933878 154.573343 
L 244.983673 162.854244 
L 247.033469 177.421988 
L 249.083265 161.046792 
L 251.133061 150.089268 
L 253.182857 153.667722 
L 255.232653 127.854904 
L 257.282449 126.936021 
L 259.332245 116.694541 
L 261.382041 107.978784 
L 263.431837 122.192751 
L 265.481633 108.316981 
L 267.531429 130.614632 
L 269.581224 142.455541 
L 271.63102 152.597144 
L 273.680816 125.70359 
L 275.730612 139.460591 
L 277.780408 152.45821 
L 279.830204 155.418616 
L 281.88 178.0561 
L 283.929796 181.322616 
L 285.979592 177.302987 
L 288.029388 176.52909 
L 290.079184 157.652052 
L 292.12898 163.183545 
L 294.178776 159.891746 
L 296.228571 161.740801 
L 298.278367 169.239203 
L 300.328163 176.2805 
L 302.377959 179.270217 
L 304.427755 167.270628 
L 306.477551 174.688153 
L 308.527347 169.627571 
L 310.577143 155.14059 
L 312.626939 156.199805 
L 314.676735 147.320557 
L 316.726531 137.319977 
L 318.776327 144.913789 
L 320.826122 128.637426 
L 322.875918 139.118534 
L 324.925714 117.639108 
L 326.97551 109.308286 
L 329.025306 85.44836 
L 331.075102 82.882521 
L 333.124898 98.777374 
L 335.174694 124.205641 
L 337.22449 116.188621 
L 339.274286 131.471216 
L 341.324082 119.009457 
L 343.373878 128.305539 
L 345.423673 138.71685 
L 347.473469 164.063063 
L 349.523265 157.578496 
L 351.573061 164.900096 
L 353.622857 167.319277 
L 355.672653 173.092082 
L 357.722449 155.784843 
L 359.772245 142.608694 
L 361.822041 143.290275 
L 363.871837 115.69465 
L 365.921633 115.408379 
L 367.971429 117.979421 
L 370.021224 119.534684 
L 372.07102 132.947878 
L 374.120816 129.718068 
L 376.170612 144.707934 
L 378.220408 123.075456 
L 380.270204 136.994713 
L 382.32 135.364404 
L 384.369796 145.777035 
L 386.419592 151.478242 
L 388.469388 145.328339 
L 390.519184 126.328248 
L 392.56898 126.626125 
L 394.618776 132.689709 
L 396.668571 115.731823 
L 398.718367 115.76806 
L 400.768163 118.339164 
L 402.817959 125.182518 
L 404.867755 108.922459 
L 406.917551 85.092154 
L 408.967347 85.786409 
L 411.017143 82.123032 
L 413.066939 105.204439 
L 415.116735 110.739835 
L 417.166531 115.368194 
L 419.216327 101.672471 
L 421.266122 96.08834 
L 423.315918 119.310274 
L 425.365714 129.607941 
L 427.41551 141.97868 
L 429.465306 153.625903 
L 431.515102 163.026918 
L 433.564898 169.436606 
L 435.614694 149.728697 
L 437.66449 142.791067 
L 439.714286 148.753623 
L 441.764082 109.254628 
L 443.813878 116.987713 
L 445.863673 116.407961 
L 447.913469 107.44537 
L 449.963265 121.824128 
L 452.013061 88.528122 
L 454.062857 110.835044 
L 456.112653 112.321058 
L 458.162449 113.968893 
L 460.212245 129.723109 
L 462.262041 133.795473 
L 464.311837 156.655389 
L 466.361633 160.073897 
L 468.411429 161.500917 
L 470.461224 169.831759 
L 472.51102 174.585279 
L 474.560816 174.710465 
L 476.610612 162.285982 
L 478.660408 144.896144 
L 482.76 118.441939 
L 484.809796 104.296958 
L 486.859592 103.201761 
L 488.909388 126.172714 
L 490.959184 126.109876 
L 493.00898 133.156696 
L 495.058776 130.293075 
L 497.108571 139.226338 
L 499.158367 131.147855 
L 501.208163 124.827392 
L 503.257959 105.163147 
L 505.307755 102.758831 
L 507.357551 94.279067 
L 509.407347 72.929267 
L 511.457143 87.306326 
L 513.506939 76.094694 
L 515.556735 107.465985 
L 517.606531 127.145924 
L 519.656327 118.750115 
L 521.706122 137.213899 
L 523.755918 123.920451 
L 525.805714 123.604987 
L 527.85551 89.969579 
L 529.905306 109.467813 
L 531.955102 115.294302 
L 534.004898 108.479031 
L 536.054694 107.352422 
L 538.10449 102.686105 
L 540.154286 95.833256 
L 542.204082 101.653591 
L 544.253878 107.869753 
L 546.303673 109.602126 
L 548.353469 128.61775 
L 550.403265 128.242109 
L 552.453061 119.193924 
L 554.502857 124.259196 
L 556.552653 118.935134 
L 558.602449 125.873324 
L 560.652245 110.315271 
L 562.702041 109.004737 
L 564.751837 113.919251 
L 566.801633 103.396834 
L 568.851429 116.394369 
L 570.901224 105.10151 
L 572.95102 108.401866 
L 575.000816 128.557244 
L 577.050612 132.801457 
L 579.100408 115.208477 
L 581.150204 131.116351 
L 583.2 129.939704 
L 583.2 129.939704 
" style="fill:none;stroke:#0000ff;stroke-linecap:square;stroke-width:1.5;"/>
   </g>
   <g id="patch_3">
    <path d="M 81 192.24 
L 81 25.92 
" style="fill:none;stroke:#000000;stroke-linecap:square;stroke-linejoin:miter;stroke-width:0.8;"/>
   </g>
   <g id="patch_4">
    <path d="M 583.2 192.24 
L 583.2 25.92 
" style="fill:none;stroke:#000000;stroke-linecap:square;stroke-linejoin:miter;stroke-width:0.8;"/>
   </g>
   <g id="patch_5">
    <path d="M 81 192.24 
L 583.2 192.24 
" style="fill:none;stroke:#000000;stroke-linecap:square;stroke-linejoin:miter;stroke-width:0.8;"/>
   </g>
   <g id="patch_6">
    <path d="M 81 25.92 
L 583.2 25.92 
" style="fill:none;stroke:#000000;stroke-linecap:square;stroke-linejoin:miter;stroke-width:0.8;"/>
   </g>
   <g id="text_12">
    <!-- Striatum, Num Trials=160 All stimulated trials -->
    <defs>
     <path d="M 53.515625 70.515625 
L 53.515625 60.890625 
Q 47.90625 63.578125 42.921875 64.890625 
Q 37.9375 66.21875 33.296875 66.21875 
Q 25.25 66.21875 20.875 63.09375 
Q 16.5 59.96875 16.5 54.203125 
Q 16.5 49.359375 19.40625 46.890625 
Q 22.3125 44.4375 30.421875 42.921875 
L 36.375 41.703125 
Q 47.40625 39.59375 52.65625 34.296875 
Q 57.90625 29 57.90625 20.125 
Q 57.90625 9.515625 50.796875 4.046875 
Q 43.703125 -1.421875 29.984375 -1.421875 
Q 24.8125 -1.421875 18.96875 -0.25 
Q 13.140625 0.921875 6.890625 3.21875 
L 6.890625 13.375 
Q 12.890625 10.015625 18.65625 8.296875 
Q 24.421875 6.59375 29.984375 6.59375 
Q 38.421875 6.59375 43.015625 9.90625 
Q 47.609375 13.234375 47.609375 19.390625 
Q 47.609375 24.75 44.3125 27.78125 
Q 41.015625 30.8125 33.5 32.328125 
L 27.484375 33.5 
Q 16.453125 35.6875 11.515625 40.375 
Q 6.59375 45.0625 6.59375 53.421875 
Q 6.59375 63.09375 13.40625 68.65625 
Q 20.21875 74.21875 32.171875 74.21875 
Q 37.3125 74.21875 42.625 73.28125 
Q 47.953125 72.359375 53.515625 70.515625 
z
" id="DejaVuSans-83"/>
     <path d="M 18.3125 70.21875 
L 18.3125 54.6875 
L 36.8125 54.6875 
L 36.8125 47.703125 
L 18.3125 47.703125 
L 18.3125 18.015625 
Q 18.3125 11.328125 20.140625 9.421875 
Q 21.96875 7.515625 27.59375 7.515625 
L 36.8125 7.515625 
L 36.8125 0 
L 27.59375 0 
Q 17.1875 0 13.234375 3.875 
Q 9.28125 7.765625 9.28125 18.015625 
L 9.28125 47.703125 
L 2.6875 47.703125 
L 2.6875 54.6875 
L 9.28125 54.6875 
L 9.28125 70.21875 
z
" id="DejaVuSans-116"/>
     <path d="M 41.109375 46.296875 
Q 39.59375 47.171875 37.8125 47.578125 
Q 36.03125 48 33.890625 48 
Q 26.265625 48 22.1875 43.046875 
Q 18.109375 38.09375 18.109375 28.8125 
L 18.109375 0 
L 9.078125 0 
L 9.078125 54.6875 
L 18.109375 54.6875 
L 18.109375 46.1875 
Q 20.953125 51.171875 25.484375 53.578125 
Q 30.03125 56 36.53125 56 
Q 37.453125 56 38.578125 55.875 
Q 39.703125 55.765625 41.0625 55.515625 
z
" id="DejaVuSans-114"/>
     <path d="M 34.28125 27.484375 
Q 23.390625 27.484375 19.1875 25 
Q 14.984375 22.515625 14.984375 16.5 
Q 14.984375 11.71875 18.140625 8.90625 
Q 21.296875 6.109375 26.703125 6.109375 
Q 34.1875 6.109375 38.703125 11.40625 
Q 43.21875 16.703125 43.21875 25.484375 
L 43.21875 27.484375 
z
M 52.203125 31.203125 
L 52.203125 0 
L 43.21875 0 
L 43.21875 8.296875 
Q 40.140625 3.328125 35.546875 0.953125 
Q 30.953125 -1.421875 24.3125 -1.421875 
Q 15.921875 -1.421875 10.953125 3.296875 
Q 6 8.015625 6 15.921875 
Q 6 25.140625 12.171875 29.828125 
Q 18.359375 34.515625 30.609375 34.515625 
L 43.21875 34.515625 
L 43.21875 35.40625 
Q 43.21875 41.609375 39.140625 45 
Q 35.0625 48.390625 27.6875 48.390625 
Q 23 48.390625 18.546875 47.265625 
Q 14.109375 46.140625 10.015625 43.890625 
L 10.015625 52.203125 
Q 14.9375 54.109375 19.578125 55.046875 
Q 24.21875 56 28.609375 56 
Q 40.484375 56 46.34375 49.84375 
Q 52.203125 43.703125 52.203125 31.203125 
z
" id="DejaVuSans-97"/>
     <path d="M 8.5 21.578125 
L 8.5 54.6875 
L 17.484375 54.6875 
L 17.484375 21.921875 
Q 17.484375 14.15625 20.5 10.265625 
Q 23.53125 6.390625 29.59375 6.390625 
Q 36.859375 6.390625 41.078125 11.03125 
Q 45.3125 15.671875 45.3125 23.6875 
L 45.3125 54.6875 
L 54.296875 54.6875 
L 54.296875 0 
L 45.3125 0 
L 45.3125 8.40625 
Q 42.046875 3.421875 37.71875 1 
Q 33.40625 -1.421875 27.6875 -1.421875 
Q 18.265625 -1.421875 13.375 4.4375 
Q 8.5 10.296875 8.5 21.578125 
z
M 31.109375 56 
z
" id="DejaVuSans-117"/>
     <path d="M 11.71875 12.40625 
L 22.015625 12.40625 
L 22.015625 4 
L 14.015625 -11.625 
L 7.71875 -11.625 
L 11.71875 4 
z
" id="DejaVuSans-44"/>
     <path d="M 9.8125 72.90625 
L 23.09375 72.90625 
L 55.421875 11.921875 
L 55.421875 72.90625 
L 64.984375 72.90625 
L 64.984375 0 
L 51.703125 0 
L 19.390625 60.984375 
L 19.390625 0 
L 9.8125 0 
z
" id="DejaVuSans-78"/>
     <path d="M 9.421875 75.984375 
L 18.40625 75.984375 
L 18.40625 0 
L 9.421875 0 
z
" id="DejaVuSans-108"/>
     <path d="M 10.59375 45.40625 
L 73.1875 45.40625 
L 73.1875 37.203125 
L 10.59375 37.203125 
z
M 10.59375 25.484375 
L 73.1875 25.484375 
L 73.1875 17.1875 
L 10.59375 17.1875 
z
" id="DejaVuSans-61"/>
     <path d="M 33.015625 40.375 
Q 26.375 40.375 22.484375 35.828125 
Q 18.609375 31.296875 18.609375 23.390625 
Q 18.609375 15.53125 22.484375 10.953125 
Q 26.375 6.390625 33.015625 6.390625 
Q 39.65625 6.390625 43.53125 10.953125 
Q 47.40625 15.53125 47.40625 23.390625 
Q 47.40625 31.296875 43.53125 35.828125 
Q 39.65625 40.375 33.015625 40.375 
z
M 52.59375 71.296875 
L 52.59375 62.3125 
Q 48.875 64.0625 45.09375 64.984375 
Q 41.3125 65.921875 37.59375 65.921875 
Q 27.828125 65.921875 22.671875 59.328125 
Q 17.53125 52.734375 16.796875 39.40625 
Q 19.671875 43.65625 24.015625 45.921875 
Q 28.375 48.1875 33.59375 48.1875 
Q 44.578125 48.1875 50.953125 41.515625 
Q 57.328125 34.859375 57.328125 23.390625 
Q 57.328125 12.15625 50.6875 5.359375 
Q 44.046875 -1.421875 33.015625 -1.421875 
Q 20.359375 -1.421875 13.671875 8.265625 
Q 6.984375 17.96875 6.984375 36.375 
Q 6.984375 53.65625 15.1875 63.9375 
Q 23.390625 74.21875 37.203125 74.21875 
Q 40.921875 74.21875 44.703125 73.484375 
Q 48.484375 72.75 52.59375 71.296875 
z
" id="DejaVuSans-54"/>
     <path d="M 34.1875 63.1875 
L 20.796875 26.90625 
L 47.609375 26.90625 
z
M 28.609375 72.90625 
L 39.796875 72.90625 
L 67.578125 0 
L 57.328125 0 
L 50.6875 18.703125 
L 17.828125 18.703125 
L 11.1875 0 
L 0.78125 0 
z
" id="DejaVuSans-65"/>
     <path d="M 45.40625 46.390625 
L 45.40625 75.984375 
L 54.390625 75.984375 
L 54.390625 0 
L 45.40625 0 
L 45.40625 8.203125 
Q 42.578125 3.328125 38.25 0.953125 
Q 33.9375 -1.421875 27.875 -1.421875 
Q 17.96875 -1.421875 11.734375 6.484375 
Q 5.515625 14.40625 5.515625 27.296875 
Q 5.515625 40.1875 11.734375 48.09375 
Q 17.96875 56 27.875 56 
Q 33.9375 56 38.25 53.625 
Q 42.578125 51.265625 45.40625 46.390625 
z
M 14.796875 27.296875 
Q 14.796875 17.390625 18.875 11.75 
Q 22.953125 6.109375 30.078125 6.109375 
Q 37.203125 6.109375 41.296875 11.75 
Q 45.40625 17.390625 45.40625 27.296875 
Q 45.40625 37.203125 41.296875 42.84375 
Q 37.203125 48.484375 30.078125 48.484375 
Q 22.953125 48.484375 18.875 42.84375 
Q 14.796875 37.203125 14.796875 27.296875 
z
" id="DejaVuSans-100"/>
    </defs>
    <g transform="translate(193.43625 19.92)scale(0.12 -0.12)">
     <use xlink:href="#DejaVuSans-83"/>
     <use x="63.476562" xlink:href="#DejaVuSans-116"/>
     <use x="102.685547" xlink:href="#DejaVuSans-114"/>
     <use x="143.798828" xlink:href="#DejaVuSans-105"/>
     <use x="171.582031" xlink:href="#DejaVuSans-97"/>
     <use x="232.861328" xlink:href="#DejaVuSans-116"/>
     <use x="272.070312" xlink:href="#DejaVuSans-117"/>
     <use x="335.449219" xlink:href="#DejaVuSans-109"/>
     <use x="432.861328" xlink:href="#DejaVuSans-44"/>
     <use x="464.648438" xlink:href="#DejaVuSans-32"/>
     <use x="496.435547" xlink:href="#DejaVuSans-78"/>
     <use x="571.240234" xlink:href="#DejaVuSans-117"/>
     <use x="634.619141" xlink:href="#DejaVuSans-109"/>
     <use x="732.03125" xlink:href="#DejaVuSans-32"/>
     <use x="763.818359" xlink:href="#DejaVuSans-84"/>
     <use x="824.683594" xlink:href="#DejaVuSans-114"/>
     <use x="865.796875" xlink:href="#DejaVuSans-105"/>
     <use x="893.580078" xlink:href="#DejaVuSans-97"/>
     <use x="954.859375" xlink:href="#DejaVuSans-108"/>
     <use x="982.642578" xlink:href="#DejaVuSans-115"/>
     <use x="1034.742188" xlink:href="#DejaVuSans-61"/>
     <use x="1118.53125" xlink:href="#DejaVuSans-49"/>
     <use x="1182.154297" xlink:href="#DejaVuSans-54"/>
     <use x="1245.777344" xlink:href="#DejaVuSans-48"/>
     <use x="1309.400391" xlink:href="#DejaVuSans-32"/>
     <use x="1341.1875" xlink:href="#DejaVuSans-65"/>
     <use x="1409.595703" xlink:href="#DejaVuSans-108"/>
     <use x="1437.378906" xlink:href="#DejaVuSans-108"/>
     <use x="1465.162109" xlink:href="#DejaVuSans-32"/>
     <use x="1496.949219" xlink:href="#DejaVuSans-115"/>
     <use x="1549.048828" xlink:href="#DejaVuSans-116"/>
     <use x="1588.257812" xlink:href="#DejaVuSans-105"/>
     <use x="1616.041016" xlink:href="#DejaVuSans-109"/>
     <use x="1713.453125" xlink:href="#DejaVuSans-117"/>
     <use x="1776.832031" xlink:href="#DejaVuSans-108"/>
     <use x="1804.615234" xlink:href="#DejaVuSans-97"/>
     <use x="1865.894531" xlink:href="#DejaVuSans-116"/>
     <use x="1905.103516" xlink:href="#DejaVuSans-101"/>
     <use x="1966.626953" xlink:href="#DejaVuSans-100"/>
     <use x="2030.103516" xlink:href="#DejaVuSans-32"/>
     <use x="2061.890625" xlink:href="#DejaVuSans-116"/>
     <use x="2101.099609" xlink:href="#DejaVuSans-114"/>
     <use x="2142.212891" xlink:href="#DejaVuSans-105"/>
     <use x="2169.996094" xlink:href="#DejaVuSans-97"/>
     <use x="2231.275391" xlink:href="#DejaVuSans-108"/>
     <use x="2259.058594" xlink:href="#DejaVuSans-115"/>
    </g>
   </g>
   <g id="legend_1">
    <g id="patch_7">
     <path d="M 440.16 70.77375 
L 574.8 70.77375 
Q 577.2 70.77375 577.2 68.37375 
L 577.2 34.32 
Q 577.2 31.92 574.8 31.92 
L 440.16 31.92 
Q 437.76 31.92 437.76 34.32 
L 437.76 68.37375 
Q 437.76 70.77375 440.16 70.77375 
z
" style="fill:#ffffff;opacity:0.8;stroke:#cccccc;stroke-linejoin:miter;"/>
    </g>
    <g id="line2d_11">
     <path d="M 442.56 41.64 
L 466.56 41.64 
" style="fill:none;stroke:#0000ff;stroke-linecap:square;stroke-width:1.5;"/>
    </g>
    <g id="line2d_12"/>
    <g id="text_13">
     <!-- COM-Binomial $p$ -->
     <defs>
      <path d="M 4.890625 31.390625 
L 31.203125 31.390625 
L 31.203125 23.390625 
L 4.890625 23.390625 
z
" id="DejaVuSans-45"/>
      <path d="M 19.671875 34.8125 
L 19.671875 8.109375 
L 35.5 8.109375 
Q 43.453125 8.109375 47.28125 11.40625 
Q 51.125 14.703125 51.125 21.484375 
Q 51.125 28.328125 47.28125 31.5625 
Q 43.453125 34.8125 35.5 34.8125 
z
M 19.671875 64.796875 
L 19.671875 42.828125 
L 34.28125 42.828125 
Q 41.5 42.828125 45.03125 45.53125 
Q 48.578125 48.25 48.578125 53.8125 
Q 48.578125 59.328125 45.03125 62.0625 
Q 41.5 64.796875 34.28125 64.796875 
z
M 9.8125 72.90625 
L 35.015625 72.90625 
Q 46.296875 72.90625 52.390625 68.21875 
Q 58.5 63.53125 58.5 54.890625 
Q 58.5 48.1875 55.375 44.234375 
Q 52.25 40.28125 46.1875 39.3125 
Q 53.46875 37.75 57.5 32.78125 
Q 61.53125 27.828125 61.53125 20.40625 
Q 61.53125 10.640625 54.890625 5.3125 
Q 48.25 0 35.984375 0 
L 9.8125 0 
z
" id="DejaVuSans-66"/>
      <path d="M 54.890625 33.015625 
L 54.890625 0 
L 45.90625 0 
L 45.90625 32.71875 
Q 45.90625 40.484375 42.875 44.328125 
Q 39.84375 48.1875 33.796875 48.1875 
Q 26.515625 48.1875 22.3125 43.546875 
Q 18.109375 38.921875 18.109375 30.90625 
L 18.109375 0 
L 9.078125 0 
L 9.078125 54.6875 
L 18.109375 54.6875 
L 18.109375 46.1875 
Q 21.34375 51.125 25.703125 53.5625 
Q 30.078125 56 35.796875 56 
Q 45.21875 56 50.046875 50.171875 
Q 54.890625 44.34375 54.890625 33.015625 
z
" id="DejaVuSans-110"/>
      <path d="M 30.609375 48.390625 
Q 23.390625 48.390625 19.1875 42.75 
Q 14.984375 37.109375 14.984375 27.296875 
Q 14.984375 17.484375 19.15625 11.84375 
Q 23.34375 6.203125 30.609375 6.203125 
Q 37.796875 6.203125 41.984375 11.859375 
Q 46.1875 17.53125 46.1875 27.296875 
Q 46.1875 37.015625 41.984375 42.703125 
Q 37.796875 48.390625 30.609375 48.390625 
z
M 30.609375 56 
Q 42.328125 56 49.015625 48.375 
Q 55.71875 40.765625 55.71875 27.296875 
Q 55.71875 13.875 49.015625 6.21875 
Q 42.328125 -1.421875 30.609375 -1.421875 
Q 18.84375 -1.421875 12.171875 6.21875 
Q 5.515625 13.875 5.515625 27.296875 
Q 5.515625 40.765625 12.171875 48.375 
Q 18.84375 56 30.609375 56 
z
" id="DejaVuSans-111"/>
     </defs>
     <g transform="translate(476.16 45.84)scale(0.12 -0.12)">
      <use transform="translate(0 0.015625)" xlink:href="#DejaVuSans-67"/>
      <use transform="translate(69.824219 0.015625)" xlink:href="#DejaVuSans-79"/>
      <use transform="translate(148.535156 0.015625)" xlink:href="#DejaVuSans-77"/>
      <use transform="translate(234.814453 0.015625)" xlink:href="#DejaVuSans-45"/>
      <use transform="translate(270.898438 0.015625)" xlink:href="#DejaVuSans-66"/>
      <use transform="translate(339.501953 0.015625)" xlink:href="#DejaVuSans-105"/>
      <use transform="translate(367.285156 0.015625)" xlink:href="#DejaVuSans-110"/>
      <use transform="translate(430.664062 0.015625)" xlink:href="#DejaVuSans-111"/>
      <use transform="translate(491.845703 0.015625)" xlink:href="#DejaVuSans-109"/>
      <use transform="translate(589.257812 0.015625)" xlink:href="#DejaVuSans-105"/>
      <use transform="translate(617.041016 0.015625)" xlink:href="#DejaVuSans-97"/>
      <use transform="translate(678.320312 0.015625)" xlink:href="#DejaVuSans-108"/>
      <use transform="translate(706.103516 0.015625)" xlink:href="#DejaVuSans-32"/>
      <use transform="translate(737.890625 0.015625)" xlink:href="#DejaVuSans-Oblique-112"/>
     </g>
    </g>
    <g id="patch_8">
     <path d="M 442.56 63.478125 
L 466.56 63.478125 
L 466.56 55.078125 
L 442.56 55.078125 
z
" style="fill:#0000ff;opacity:0.3;stroke:#0000ff;stroke-linejoin:miter;"/>
    </g>
    <g id="text_14">
     <!-- Std. Err. -->
     <defs>
      <path d="M 9.8125 72.90625 
L 55.90625 72.90625 
L 55.90625 64.59375 
L 19.671875 64.59375 
L 19.671875 43.015625 
L 54.390625 43.015625 
L 54.390625 34.71875 
L 19.671875 34.71875 
L 19.671875 8.296875 
L 56.78125 8.296875 
L 56.78125 0 
L 9.8125 0 
z
" id="DejaVuSans-69"/>
     </defs>
     <g transform="translate(476.16 63.478125)scale(0.12 -0.12)">
      <use xlink:href="#DejaVuSans-83"/>
      <use x="63.476562" xlink:href="#DejaVuSans-116"/>
      <use x="102.685547" xlink:href="#DejaVuSans-100"/>
      <use x="166.162109" xlink:href="#DejaVuSans-46"/>
      <use x="197.949219" xlink:href="#DejaVuSans-32"/>
      <use x="229.736328" xlink:href="#DejaVuSans-69"/>
      <use x="292.919922" xlink:href="#DejaVuSans-114"/>
      <use x="334.017578" xlink:href="#DejaVuSans-114"/>
      <use x="374.990234" xlink:href="#DejaVuSans-46"/>
     </g>
    </g>
   </g>
  </g>
 </g>
 <defs>
  <clipPath id="pe87bbe07be">
   <rect height="166.32" width="502.2" x="81" y="25.92"/>
  </clipPath>
 </defs>
</svg>
