<?xml version="1.0" encoding="utf-8" standalone="no"?>
<!DOCTYPE svg PUBLIC "-//W3C//DTD SVG 1.1//EN"
  "http://www.w3.org/Graphics/SVG/1.1/DTD/svg11.dtd">
<!-- Created with matplotlib (https://matplotlib.org/) -->
<svg height="216pt" version="1.1" viewBox="0 0 648 216" width="648pt" xmlns="http://www.w3.org/2000/svg" xmlns:xlink="http://www.w3.org/1999/xlink">
 <defs>
  <style type="text/css">
*{stroke-linecap:butt;stroke-linejoin:round;}
  </style>
 </defs>
 <g id="figure_1">
  <g id="patch_1">
   <path d="M 0 216 
L 648 216 
L 648 0 
L 0 0 
z
" style="fill:#ffffff;"/>
  </g>
  <g id="axes_1">
   <g id="patch_2">
    <path d="M 81 192.24 
L 583.2 192.24 
L 583.2 25.92 
L 81 25.92 
z
" style="fill:#ffffff;"/>
   </g>
   <g id="PolyCollection_1">
    <defs>
     <path d="M 162.62878 -23.76 
L 162.62878 -190.08 
L 417.984712 -190.08 
L 417.984712 -23.76 
L 417.984712 -23.76 
L 162.62878 -23.76 
z
" id="m769fdcdd44" style="stroke:#808080;stroke-opacity:0.3;"/>
    </defs>
    <g clip-path="url(#paeba06c4c5)">
     <use style="fill:#808080;fill-opacity:0.3;stroke:#808080;stroke-opacity:0.3;" x="0" xlink:href="#m769fdcdd44" y="216"/>
    </g>
   </g>
   <g id="PolyCollection_2">
    <defs>
     <path d="M 81 -165.646559 
L 81 -120.722671 
L 82.702373 -107.170788 
L 84.404746 -86.352992 
L 86.107119 -81.152222 
L 87.809492 -85.245631 
L 89.511864 -48.598605 
L 91.214237 -95.211079 
L 92.91661 -69.283189 
L 94.618983 -76.412946 
L 96.321356 -49.313995 
L 98.023729 -84.98726 
L 99.726102 -59.511735 
L 101.428475 -98.340142 
L 103.130847 -85.150931 
L 104.83322 -106.228643 
L 106.535593 -46.094128 
L 108.237966 -112.493681 
L 109.940339 -89.06706 
L 111.642712 -65.374903 
L 113.345085 -121.304719 
L 115.047458 -104.106212 
L 116.749831 -105.84362 
L 118.452203 -90.136757 
L 120.154576 -88.249933 
L 121.856949 -81.845092 
L 123.559322 -110.267864 
L 125.261695 -105.589118 
L 126.964068 -102.177944 
L 128.666441 -101.734242 
L 130.368814 -91.778253 
L 132.071186 -69.434666 
L 133.773559 -115.197941 
L 135.475932 -98.991884 
L 137.178305 -86.272634 
L 138.880678 -79.016269 
L 140.583051 -78.204052 
L 142.285424 -83.068241 
L 143.987797 -74.488796 
L 145.690169 -94.784906 
L 147.392542 -81.393109 
L 149.094915 -70.950905 
L 150.797288 -56.524572 
L 152.499661 -78.070841 
L 154.202034 -93.944067 
L 155.904407 -76.224953 
L 157.60678 -80.508251 
L 159.309153 -111.646992 
L 161.011525 -82.367658 
L 162.713898 -106.956907 
L 164.416271 -86.344948 
L 166.118644 -97.916202 
L 167.821017 -93.840564 
L 169.52339 -60.272522 
L 171.225763 -61.99783 
L 172.928136 -71.583108 
L 174.630508 -79.245835 
L 176.332881 -80.615758 
L 178.035254 -73.858265 
L 179.737627 -89.375184 
L 181.44 -66.2904 
L 183.142373 -80.557767 
L 184.844746 -49.383784 
L 186.547119 -51.535154 
L 188.249492 -60.555463 
L 189.951864 -84.794353 
L 191.654237 -115.825144 
L 193.35661 -32.315573 
L 195.058983 -67.415172 
L 196.761356 -63.348676 
L 198.463729 -77.848952 
L 200.166102 -76.164614 
L 201.868475 -98.401048 
L 203.570847 -108.200947 
L 205.27322 -56.365019 
L 206.975593 -76.637138 
L 208.677966 -75.770685 
L 210.380339 -106.115672 
L 212.082712 -86.975246 
L 213.785085 -68.654011 
L 215.487458 -59.054795 
L 217.189831 -91.099332 
L 218.892203 -103.824945 
L 220.594576 -75.911932 
L 222.296949 -85.897563 
L 223.999322 -86.713134 
L 225.701695 -72.895694 
L 227.404068 -50.829 
L 229.106441 -56.07581 
L 230.808814 -94.062935 
L 232.511186 -102.301689 
L 234.213559 -97.908587 
L 235.915932 -90.59665 
L 237.618305 -92.708896 
L 239.320678 -128.954791 
L 241.023051 -79.330702 
L 242.725424 -99.215986 
L 244.427797 -95.804464 
L 246.130169 -102.45535 
L 247.832542 -72.760545 
L 249.534915 -80.605237 
L 251.237288 -82.843447 
L 252.939661 -103.650009 
L 254.642034 -106.549181 
L 256.344407 -55.184466 
L 258.04678 -55.870128 
L 259.749153 -86.252997 
L 261.451525 -67.388066 
L 263.153898 -57.429797 
L 264.856271 -67.091171 
L 266.558644 -85.328347 
L 268.261017 -65.072185 
L 269.96339 -83.049671 
L 271.665763 -80.123123 
L 273.368136 -91.353851 
L 275.070508 -100.973954 
L 276.772881 -88.587057 
L 278.475254 -68.680009 
L 280.177627 -59.89273 
L 281.88 -74.807726 
L 283.582373 -91.323447 
L 285.284746 -105.561336 
L 286.987119 -108.503524 
L 288.689492 -102.118088 
L 290.391864 -87.901344 
L 292.094237 -77.525939 
L 293.79661 -82.97833 
L 295.498983 -63.440666 
L 297.201356 -105.957134 
L 298.903729 -62.73793 
L 300.606102 -135.962082 
L 302.308475 -81.884135 
L 304.010847 -92.524031 
L 305.71322 -86.33334 
L 307.415593 -53.612626 
L 309.117966 -72.247314 
L 310.820339 -90.391435 
L 312.522712 -51.22579 
L 314.225085 -63.257769 
L 315.927458 -87.293251 
L 317.629831 -53.360856 
L 319.332203 -98.471567 
L 321.034576 -100.852452 
L 322.736949 -91.081541 
L 324.439322 -113.002258 
L 326.141695 -58.512722 
L 327.844068 -89.872481 
L 329.546441 -85.828045 
L 331.248814 -89.696044 
L 332.951186 -85.06731 
L 334.653559 -66.940469 
L 336.355932 -91.726675 
L 338.058305 -63.0857 
L 339.760678 -79.693326 
L 341.463051 -59.962468 
L 343.165424 -57.312259 
L 344.867797 -68.01237 
L 346.570169 -48.278376 
L 348.272542 -67.360518 
L 349.974915 -77.948634 
L 351.677288 -68.579954 
L 353.379661 -61.111702 
L 355.082034 -74.331233 
L 356.784407 -65.284824 
L 358.48678 -62.56754 
L 360.189153 -70.329654 
L 361.891525 -79.777945 
L 363.593898 -32.220502 
L 365.296271 -69.125139 
L 366.998644 -61.519725 
L 368.701017 -47.328593 
L 370.40339 -69.76479 
L 372.105763 -80.10604 
L 373.808136 -63.066679 
L 375.510508 -50.4117 
L 377.212881 -51.075545 
L 378.915254 -87.490879 
L 380.617627 -57.868215 
L 382.32 -57.584905 
L 384.022373 -94.022194 
L 385.724746 -68.85742 
L 387.427119 -69.445229 
L 389.129492 -83.225226 
L 390.831864 -106.709667 
L 392.534237 -86.197188 
L 394.23661 -75.685487 
L 395.938983 -77.480698 
L 397.641356 -105.723949 
L 399.343729 -116.498956 
L 401.046102 -88.824391 
L 402.748475 -75.416161 
L 404.450847 -55.383851 
L 406.15322 -23.76 
L 407.855593 -46.911071 
L 409.557966 -49.694237 
L 411.260339 -54.232221 
L 412.962712 -46.783438 
L 414.665085 -47.713091 
L 416.367458 -73.87289 
L 418.069831 -40.91561 
L 419.772203 -48.806925 
L 421.474576 -75.852287 
L 423.176949 -69.239051 
L 424.879322 -64.768323 
L 426.581695 -70.718604 
L 428.284068 -115.298773 
L 429.986441 -82.132577 
L 431.688814 -84.922768 
L 433.391186 -85.943099 
L 435.093559 -74.836542 
L 436.795932 -81.735279 
L 438.498305 -77.74063 
L 440.200678 -45.328513 
L 441.903051 -68.887982 
L 443.605424 -95.929516 
L 445.307797 -71.812885 
L 447.010169 -86.890696 
L 448.712542 -53.384357 
L 450.414915 -71.698051 
L 452.117288 -42.777154 
L 453.819661 -49.877893 
L 455.522034 -54.768188 
L 457.224407 -70.169374 
L 458.92678 -73.39005 
L 460.629153 -70.255653 
L 462.331525 -90.394528 
L 464.033898 -101.704457 
L 465.736271 -91.439317 
L 467.438644 -82.099666 
L 469.141017 -50.751078 
L 470.84339 -97.702132 
L 472.545763 -83.304061 
L 474.248136 -53.976373 
L 475.950508 -94.471519 
L 477.652881 -77.378875 
L 479.355254 -96.845861 
L 481.057627 -100.340767 
L 482.76 -82.921574 
L 484.462373 -101.366652 
L 486.164746 -102.601568 
L 487.867119 -100.879483 
L 489.569492 -81.544812 
L 491.271864 -78.364903 
L 492.974237 -79.452741 
L 494.67661 -72.498127 
L 496.378983 -82.653036 
L 498.081356 -82.80184 
L 499.783729 -55.942662 
L 501.486102 -60.713314 
L 503.188475 -79.768595 
L 504.890847 -96.78034 
L 506.59322 -76.727241 
L 508.295593 -70.887742 
L 509.997966 -78.437142 
L 511.700339 -79.79004 
L 513.402712 -74.846556 
L 515.105085 -82.175681 
L 516.807458 -77.246725 
L 518.509831 -67.872574 
L 520.212203 -53.221279 
L 521.914576 -124.628347 
L 523.616949 -60.764782 
L 525.319322 -86.856953 
L 527.021695 -111.836253 
L 528.724068 -104.263967 
L 530.426441 -88.675184 
L 532.128814 -51.609631 
L 533.831186 -96.184574 
L 535.533559 -42.988051 
L 537.235932 -78.76341 
L 538.938305 -48.497423 
L 540.640678 -73.165597 
L 542.343051 -52.686783 
L 544.045424 -55.848993 
L 545.747797 -70.904012 
L 547.450169 -45.062369 
L 549.152542 -67.645414 
L 550.854915 -56.391317 
L 552.557288 -61.09348 
L 554.259661 -65.170381 
L 555.962034 -45.676368 
L 557.664407 -99.902298 
L 559.36678 -93.254334 
L 561.069153 -125.530768 
L 562.771525 -109.177944 
L 564.473898 -111.075488 
L 566.176271 -140.359796 
L 567.878644 -95.191339 
L 569.581017 -121.771588 
L 571.28339 -102.739185 
L 572.985763 -125.833637 
L 574.688136 -93.197696 
L 576.390508 -89.450853 
L 578.092881 -77.274941 
L 579.795254 -83.240745 
L 581.497627 -98.548241 
L 583.2 -47.004661 
L 583.2 -96.780738 
L 583.2 -96.780738 
L 581.497627 -140.384947 
L 579.795254 -123.488336 
L 578.092881 -141.90753 
L 576.390508 -128.136004 
L 574.688136 -136.790529 
L 572.985763 -190.08 
L 571.28339 -160.806618 
L 569.581017 -177.013898 
L 567.878644 -146.01808 
L 566.176271 -182.663274 
L 564.473898 -150.975785 
L 562.771525 -145.55364 
L 561.069153 -152.036163 
L 559.36678 -134.125103 
L 557.664407 -136.952464 
L 555.962034 -92.233909 
L 554.259661 -122.451922 
L 552.557288 -104.885182 
L 550.854915 -101.489836 
L 549.152542 -92.538442 
L 547.450169 -87.551013 
L 545.747797 -110.543234 
L 544.045424 -106.554389 
L 542.343051 -107.308498 
L 540.640678 -110.987584 
L 538.938305 -107.995505 
L 537.235932 -138.653247 
L 535.533559 -95.284486 
L 533.831186 -140.245666 
L 532.128814 -86.92669 
L 530.426441 -131.807449 
L 528.724068 -150.742572 
L 527.021695 -152.642291 
L 525.319322 -112.803493 
L 523.616949 -108.563689 
L 521.914576 -145.53473 
L 520.212203 -85.873952 
L 518.509831 -117.160852 
L 516.807458 -114.740761 
L 515.105085 -127.93333 
L 513.402712 -115.86448 
L 511.700339 -124.351212 
L 509.997966 -121.939474 
L 508.295593 -107.35547 
L 506.59322 -127.349263 
L 504.890847 -144.451591 
L 503.188475 -125.041759 
L 501.486102 -93.262038 
L 499.783729 -82.471242 
L 498.081356 -134.405142 
L 496.378983 -127.219832 
L 494.67661 -113.858411 
L 492.974237 -126.607269 
L 491.271864 -124.932887 
L 489.569492 -124.174528 
L 487.867119 -142.131023 
L 486.164746 -161.595336 
L 484.462373 -134.057514 
L 482.76 -135.402626 
L 481.057627 -159.644677 
L 479.355254 -149.487139 
L 477.652881 -142.204873 
L 475.950508 -147.473855 
L 474.248136 -93.430756 
L 472.545763 -135.83267 
L 470.84339 -160.684559 
L 469.141017 -90.983091 
L 467.438644 -120.181599 
L 465.736271 -133.355441 
L 464.033898 -129.207175 
L 462.331525 -123.451511 
L 460.629153 -112.689657 
L 458.92678 -112.126763 
L 457.224407 -103.763681 
L 455.522034 -95.978909 
L 453.819661 -91.635307 
L 452.117288 -73.769972 
L 450.414915 -107.911304 
L 448.712542 -96.765658 
L 447.010169 -141.436696 
L 445.307797 -119.482395 
L 443.605424 -138.00845 
L 441.903051 -115.216208 
L 440.200678 -80.348228 
L 438.498305 -131.117801 
L 436.795932 -113.851746 
L 435.093559 -134.620874 
L 433.391186 -130.80458 
L 431.688814 -145.838366 
L 429.986441 -143.560024 
L 428.284068 -171.166407 
L 426.581695 -121.304284 
L 424.879322 -119.245247 
L 423.176949 -134.842769 
L 421.474576 -132.01722 
L 419.772203 -89.734885 
L 418.069831 -79.013945 
L 416.367458 -98.612364 
L 414.665085 -85.727037 
L 412.962712 -59.122883 
L 411.260339 -96.201398 
L 409.557966 -89.931009 
L 407.855593 -86.307553 
L 406.15322 -70.161011 
L 404.450847 -93.558435 
L 402.748475 -111.829499 
L 401.046102 -122.828633 
L 399.343729 -155.772143 
L 397.641356 -139.820042 
L 395.938983 -113.438776 
L 394.23661 -117.262244 
L 392.534237 -115.497336 
L 390.831864 -129.892208 
L 389.129492 -125.950795 
L 387.427119 -127.014261 
L 385.724746 -99.62737 
L 384.022373 -129.305293 
L 382.32 -98.626611 
L 380.617627 -97.285396 
L 378.915254 -111.704698 
L 377.212881 -89.810144 
L 375.510508 -99.591548 
L 373.808136 -99.10657 
L 372.105763 -120.671115 
L 370.40339 -114.379348 
L 368.701017 -84.223939 
L 366.998644 -95.601614 
L 365.296271 -106.009323 
L 363.593898 -59.484933 
L 361.891525 -114.922796 
L 360.189153 -111.640673 
L 358.48678 -103.492202 
L 356.784407 -104.980656 
L 355.082034 -116.265919 
L 353.379661 -89.731153 
L 351.677288 -100.296185 
L 349.974915 -113.9959 
L 348.272542 -108.070749 
L 346.570169 -86.033962 
L 344.867797 -100.907982 
L 343.165424 -119.491354 
L 341.463051 -99.748283 
L 339.760678 -132.169518 
L 338.058305 -119.011185 
L 336.355932 -166.443003 
L 334.653559 -121.616745 
L 332.951186 -126.369546 
L 331.248814 -130.502802 
L 329.546441 -124.70557 
L 327.844068 -120.246475 
L 326.141695 -96.842716 
L 324.439322 -164.923489 
L 322.736949 -133.446512 
L 321.034576 -150.632719 
L 319.332203 -136.617215 
L 317.629831 -83.304894 
L 315.927458 -125.171976 
L 314.225085 -109.973599 
L 312.522712 -88.179793 
L 310.820339 -122.875862 
L 309.117966 -95.661531 
L 307.415593 -86.687148 
L 305.71322 -132.987367 
L 304.010847 -124.803152 
L 302.308475 -131.377188 
L 300.606102 -178.415129 
L 298.903729 -103.22728 
L 297.201356 -147.525391 
L 295.498983 -114.522287 
L 293.79661 -165.208969 
L 292.094237 -143.304653 
L 290.391864 -143.511911 
L 288.689492 -149.905218 
L 286.987119 -159.802432 
L 285.284746 -164.685866 
L 283.582373 -149.063535 
L 281.88 -113.748681 
L 280.177627 -118.755982 
L 278.475254 -124.006238 
L 276.772881 -135.349764 
L 275.070508 -130.167496 
L 273.368136 -136.0083 
L 271.665763 -131.232338 
L 269.96339 -130.13175 
L 268.261017 -103.04146 
L 266.558644 -126.937453 
L 264.856271 -109.692152 
L 263.153898 -97.474538 
L 261.451525 -101.240074 
L 259.749153 -109.840552 
L 258.04678 -79.72566 
L 256.344407 -97.456367 
L 254.642034 -150.741669 
L 252.939661 -125.662146 
L 251.237288 -118.358293 
L 249.534915 -122.465726 
L 247.832542 -132.136301 
L 246.130169 -149.215189 
L 244.427797 -122.038885 
L 242.725424 -152.3361 
L 241.023051 -123.380618 
L 239.320678 -175.860076 
L 237.618305 -143.832134 
L 235.915932 -117.630729 
L 234.213559 -126.210031 
L 232.511186 -141.540393 
L 230.808814 -146.156061 
L 229.106441 -91.812284 
L 227.404068 -84.064683 
L 225.701695 -102.214913 
L 223.999322 -146.523919 
L 222.296949 -121.845599 
L 220.594576 -127.227313 
L 218.892203 -140.135337 
L 217.189831 -142.566195 
L 215.487458 -104.263075 
L 213.785085 -119.093617 
L 212.082712 -138.886104 
L 210.380339 -147.379081 
L 208.677966 -106.441344 
L 206.975593 -109.383045 
L 205.27322 -94.593272 
L 203.570847 -154.482103 
L 201.868475 -144.660183 
L 200.166102 -130.20668 
L 198.463729 -125.491695 
L 196.761356 -103.933582 
L 195.058983 -102.247092 
L 193.35661 -65.194397 
L 191.654237 -144.137616 
L 189.951864 -110.597765 
L 188.249492 -107.810864 
L 186.547119 -90.105366 
L 184.844746 -89.036849 
L 183.142373 -124.392885 
L 181.44 -105.367328 
L 179.737627 -109.42639 
L 178.035254 -118.814675 
L 176.332881 -110.389828 
L 174.630508 -112.642541 
L 172.928136 -120.025381 
L 171.225763 -90.831016 
L 169.52339 -96.419038 
L 167.821017 -141.576462 
L 166.118644 -134.640081 
L 164.416271 -137.511274 
L 162.713898 -126.225914 
L 161.011525 -105.270586 
L 159.309153 -163.466461 
L 157.60678 -113.332777 
L 155.904407 -131.02611 
L 154.202034 -133.944804 
L 152.499661 -115.702569 
L 150.797288 -103.877133 
L 149.094915 -127.061877 
L 147.392542 -114.368989 
L 145.690169 -136.678753 
L 143.987797 -129.834504 
L 142.285424 -131.5592 
L 140.583051 -130.109078 
L 138.880678 -117.715796 
L 137.178305 -126.665533 
L 135.475932 -159.106265 
L 133.773559 -162.221877 
L 132.071186 -128.991417 
L 130.368814 -139.135057 
L 128.666441 -132.513324 
L 126.964068 -158.450148 
L 125.261695 -145.482585 
L 123.559322 -141.671015 
L 121.856949 -139.296769 
L 120.154576 -155.654014 
L 118.452203 -150.618233 
L 116.749831 -170.833407 
L 115.047458 -172.776649 
L 113.345085 -172.818901 
L 111.642712 -119.36449 
L 109.940339 -147.842314 
L 108.237966 -154.893503 
L 106.535593 -96.207586 
L 104.83322 -147.654207 
L 103.130847 -118.205624 
L 101.428475 -150.633941 
L 99.726102 -90.809629 
L 98.023729 -114.510283 
L 96.321356 -87.609717 
L 94.618983 -127.738316 
L 92.91661 -100.877216 
L 91.214237 -129.16433 
L 89.511864 -75.911465 
L 87.809492 -117.895392 
L 86.107119 -109.683233 
L 84.404746 -142.699977 
L 82.702373 -157.192086 
L 81 -165.646559 
z
" id="m80e44279e0" style="stroke:#0000ff;stroke-opacity:0.3;"/>
    </defs>
    <g clip-path="url(#paeba06c4c5)">
     <use style="fill:#0000ff;fill-opacity:0.3;stroke:#0000ff;stroke-opacity:0.3;" x="0" xlink:href="#m80e44279e0" y="216"/>
    </g>
   </g>
   <g id="matplotlib.axis_1">
    <g id="xtick_1">
     <g id="line2d_1">
      <defs>
       <path d="M 0 0 
L 0 3.5 
" id="ma796969b8b" style="stroke:#000000;stroke-width:0.8;"/>
      </defs>
      <g>
       <use style="stroke:#000000;stroke-width:0.8;" x="162.62878" xlink:href="#ma796969b8b" y="192.24"/>
      </g>
     </g>
     <g id="text_1">
      <!-- 0.0 -->
      <defs>
       <path d="M 31.78125 66.40625 
Q 24.171875 66.40625 20.328125 58.90625 
Q 16.5 51.421875 16.5 36.375 
Q 16.5 21.390625 20.328125 13.890625 
Q 24.171875 6.390625 31.78125 6.390625 
Q 39.453125 6.390625 43.28125 13.890625 
Q 47.125 21.390625 47.125 36.375 
Q 47.125 51.421875 43.28125 58.90625 
Q 39.453125 66.40625 31.78125 66.40625 
z
M 31.78125 74.21875 
Q 44.046875 74.21875 50.515625 64.515625 
Q 56.984375 54.828125 56.984375 36.375 
Q 56.984375 17.96875 50.515625 8.265625 
Q 44.046875 -1.421875 31.78125 -1.421875 
Q 19.53125 -1.421875 13.0625 8.265625 
Q 6.59375 17.96875 6.59375 36.375 
Q 6.59375 54.828125 13.0625 64.515625 
Q 19.53125 74.21875 31.78125 74.21875 
z
" id="DejaVuSans-48"/>
       <path d="M 10.6875 12.40625 
L 21 12.40625 
L 21 0 
L 10.6875 0 
z
" id="DejaVuSans-46"/>
      </defs>
      <g transform="translate(153.086905 208.358125)scale(0.12 -0.12)">
       <use xlink:href="#DejaVuSans-48"/>
       <use x="63.623047" xlink:href="#DejaVuSans-46"/>
       <use x="95.410156" xlink:href="#DejaVuSans-48"/>
      </g>
     </g>
    </g>
    <g id="xtick_2">
     <g id="line2d_2">
      <g>
       <use style="stroke:#000000;stroke-width:0.8;" x="247.747424" xlink:href="#ma796969b8b" y="192.24"/>
      </g>
     </g>
     <g id="text_2">
      <!-- 0.5 -->
      <defs>
       <path d="M 10.796875 72.90625 
L 49.515625 72.90625 
L 49.515625 64.59375 
L 19.828125 64.59375 
L 19.828125 46.734375 
Q 21.96875 47.46875 24.109375 47.828125 
Q 26.265625 48.1875 28.421875 48.1875 
Q 40.625 48.1875 47.75 41.5 
Q 54.890625 34.8125 54.890625 23.390625 
Q 54.890625 11.625 47.5625 5.09375 
Q 40.234375 -1.421875 26.90625 -1.421875 
Q 22.3125 -1.421875 17.546875 -0.640625 
Q 12.796875 0.140625 7.71875 1.703125 
L 7.71875 11.625 
Q 12.109375 9.234375 16.796875 8.0625 
Q 21.484375 6.890625 26.703125 6.890625 
Q 35.15625 6.890625 40.078125 11.328125 
Q 45.015625 15.765625 45.015625 23.390625 
Q 45.015625 31 40.078125 35.4375 
Q 35.15625 39.890625 26.703125 39.890625 
Q 22.75 39.890625 18.8125 39.015625 
Q 14.890625 38.140625 10.796875 36.28125 
z
" id="DejaVuSans-53"/>
      </defs>
      <g transform="translate(238.205549 208.358125)scale(0.12 -0.12)">
       <use xlink:href="#DejaVuSans-48"/>
       <use x="63.623047" xlink:href="#DejaVuSans-46"/>
       <use x="95.410156" xlink:href="#DejaVuSans-53"/>
      </g>
     </g>
    </g>
    <g id="xtick_3">
     <g id="line2d_3">
      <g>
       <use style="stroke:#000000;stroke-width:0.8;" x="332.866068" xlink:href="#ma796969b8b" y="192.24"/>
      </g>
     </g>
     <g id="text_3">
      <!-- 1.0 -->
      <defs>
       <path d="M 12.40625 8.296875 
L 28.515625 8.296875 
L 28.515625 63.921875 
L 10.984375 60.40625 
L 10.984375 69.390625 
L 28.421875 72.90625 
L 38.28125 72.90625 
L 38.28125 8.296875 
L 54.390625 8.296875 
L 54.390625 0 
L 12.40625 0 
z
" id="DejaVuSans-49"/>
      </defs>
      <g transform="translate(323.324193 208.358125)scale(0.12 -0.12)">
       <use xlink:href="#DejaVuSans-49"/>
       <use x="63.623047" xlink:href="#DejaVuSans-46"/>
       <use x="95.410156" xlink:href="#DejaVuSans-48"/>
      </g>
     </g>
    </g>
    <g id="xtick_4">
     <g id="line2d_4">
      <g>
       <use style="stroke:#000000;stroke-width:0.8;" x="417.984712" xlink:href="#ma796969b8b" y="192.24"/>
      </g>
     </g>
     <g id="text_4">
      <!-- 1.5 -->
      <g transform="translate(408.442837 208.358125)scale(0.12 -0.12)">
       <use xlink:href="#DejaVuSans-49"/>
       <use x="63.623047" xlink:href="#DejaVuSans-46"/>
       <use x="95.410156" xlink:href="#DejaVuSans-53"/>
      </g>
     </g>
    </g>
    <g id="xtick_5">
     <g id="line2d_5">
      <g>
       <use style="stroke:#000000;stroke-width:0.8;" x="503.103356" xlink:href="#ma796969b8b" y="192.24"/>
      </g>
     </g>
     <g id="text_5">
      <!-- 2.0 -->
      <defs>
       <path d="M 19.1875 8.296875 
L 53.609375 8.296875 
L 53.609375 0 
L 7.328125 0 
L 7.328125 8.296875 
Q 12.9375 14.109375 22.625 23.890625 
Q 32.328125 33.6875 34.8125 36.53125 
Q 39.546875 41.84375 41.421875 45.53125 
Q 43.3125 49.21875 43.3125 52.78125 
Q 43.3125 58.59375 39.234375 62.25 
Q 35.15625 65.921875 28.609375 65.921875 
Q 23.96875 65.921875 18.8125 64.3125 
Q 13.671875 62.703125 7.8125 59.421875 
L 7.8125 69.390625 
Q 13.765625 71.78125 18.9375 73 
Q 24.125 74.21875 28.421875 74.21875 
Q 39.75 74.21875 46.484375 68.546875 
Q 53.21875 62.890625 53.21875 53.421875 
Q 53.21875 48.921875 51.53125 44.890625 
Q 49.859375 40.875 45.40625 35.40625 
Q 44.1875 33.984375 37.640625 27.21875 
Q 31.109375 20.453125 19.1875 8.296875 
z
" id="DejaVuSans-50"/>
      </defs>
      <g transform="translate(493.561481 208.358125)scale(0.12 -0.12)">
       <use xlink:href="#DejaVuSans-50"/>
       <use x="63.623047" xlink:href="#DejaVuSans-46"/>
       <use x="95.410156" xlink:href="#DejaVuSans-48"/>
      </g>
     </g>
    </g>
    <g id="text_6">
     <!-- Time (s) -->
     <defs>
      <path d="M -0.296875 72.90625 
L 61.375 72.90625 
L 61.375 64.59375 
L 35.5 64.59375 
L 35.5 0 
L 25.59375 0 
L 25.59375 64.59375 
L -0.296875 64.59375 
z
" id="DejaVuSans-84"/>
      <path d="M 9.421875 54.6875 
L 18.40625 54.6875 
L 18.40625 0 
L 9.421875 0 
z
M 9.421875 75.984375 
L 18.40625 75.984375 
L 18.40625 64.59375 
L 9.421875 64.59375 
z
" id="DejaVuSans-105"/>
      <path d="M 52 44.1875 
Q 55.375 50.25 60.0625 53.125 
Q 64.75 56 71.09375 56 
Q 79.640625 56 84.28125 50.015625 
Q 88.921875 44.046875 88.921875 33.015625 
L 88.921875 0 
L 79.890625 0 
L 79.890625 32.71875 
Q 79.890625 40.578125 77.09375 44.375 
Q 74.3125 48.1875 68.609375 48.1875 
Q 61.625 48.1875 57.5625 43.546875 
Q 53.515625 38.921875 53.515625 30.90625 
L 53.515625 0 
L 44.484375 0 
L 44.484375 32.71875 
Q 44.484375 40.625 41.703125 44.40625 
Q 38.921875 48.1875 33.109375 48.1875 
Q 26.21875 48.1875 22.15625 43.53125 
Q 18.109375 38.875 18.109375 30.90625 
L 18.109375 0 
L 9.078125 0 
L 9.078125 54.6875 
L 18.109375 54.6875 
L 18.109375 46.1875 
Q 21.1875 51.21875 25.484375 53.609375 
Q 29.78125 56 35.6875 56 
Q 41.65625 56 45.828125 52.96875 
Q 50 49.953125 52 44.1875 
z
" id="DejaVuSans-109"/>
      <path d="M 56.203125 29.59375 
L 56.203125 25.203125 
L 14.890625 25.203125 
Q 15.484375 15.921875 20.484375 11.0625 
Q 25.484375 6.203125 34.421875 6.203125 
Q 39.59375 6.203125 44.453125 7.46875 
Q 49.3125 8.734375 54.109375 11.28125 
L 54.109375 2.78125 
Q 49.265625 0.734375 44.1875 -0.34375 
Q 39.109375 -1.421875 33.890625 -1.421875 
Q 20.796875 -1.421875 13.15625 6.1875 
Q 5.515625 13.8125 5.515625 26.8125 
Q 5.515625 40.234375 12.765625 48.109375 
Q 20.015625 56 32.328125 56 
Q 43.359375 56 49.78125 48.890625 
Q 56.203125 41.796875 56.203125 29.59375 
z
M 47.21875 32.234375 
Q 47.125 39.59375 43.09375 43.984375 
Q 39.0625 48.390625 32.421875 48.390625 
Q 24.90625 48.390625 20.390625 44.140625 
Q 15.875 39.890625 15.1875 32.171875 
z
" id="DejaVuSans-101"/>
      <path id="DejaVuSans-32"/>
      <path d="M 31 75.875 
Q 24.46875 64.65625 21.28125 53.65625 
Q 18.109375 42.671875 18.109375 31.390625 
Q 18.109375 20.125 21.3125 9.0625 
Q 24.515625 -2 31 -13.1875 
L 23.1875 -13.1875 
Q 15.875 -1.703125 12.234375 9.375 
Q 8.59375 20.453125 8.59375 31.390625 
Q 8.59375 42.28125 12.203125 53.3125 
Q 15.828125 64.359375 23.1875 75.875 
z
" id="DejaVuSans-40"/>
      <path d="M 44.28125 53.078125 
L 44.28125 44.578125 
Q 40.484375 46.53125 36.375 47.5 
Q 32.28125 48.484375 27.875 48.484375 
Q 21.1875 48.484375 17.84375 46.4375 
Q 14.5 44.390625 14.5 40.28125 
Q 14.5 37.15625 16.890625 35.375 
Q 19.28125 33.59375 26.515625 31.984375 
L 29.59375 31.296875 
Q 39.15625 29.25 43.1875 25.515625 
Q 47.21875 21.78125 47.21875 15.09375 
Q 47.21875 7.46875 41.1875 3.015625 
Q 35.15625 -1.421875 24.609375 -1.421875 
Q 20.21875 -1.421875 15.453125 -0.5625 
Q 10.6875 0.296875 5.421875 2 
L 5.421875 11.28125 
Q 10.40625 8.6875 15.234375 7.390625 
Q 20.0625 6.109375 24.8125 6.109375 
Q 31.15625 6.109375 34.5625 8.28125 
Q 37.984375 10.453125 37.984375 14.40625 
Q 37.984375 18.0625 35.515625 20.015625 
Q 33.0625 21.96875 24.703125 23.78125 
L 21.578125 24.515625 
Q 13.234375 26.265625 9.515625 29.90625 
Q 5.8125 33.546875 5.8125 39.890625 
Q 5.8125 47.609375 11.28125 51.796875 
Q 16.75 56 26.8125 56 
Q 31.78125 56 36.171875 55.265625 
Q 40.578125 54.546875 44.28125 53.078125 
z
" id="DejaVuSans-115"/>
      <path d="M 8.015625 75.875 
L 15.828125 75.875 
Q 23.140625 64.359375 26.78125 53.3125 
Q 30.421875 42.28125 30.421875 31.390625 
Q 30.421875 20.453125 26.78125 9.375 
Q 23.140625 -1.703125 15.828125 -13.1875 
L 8.015625 -13.1875 
Q 14.5 -2 17.703125 9.0625 
Q 20.90625 20.125 20.90625 31.390625 
Q 20.90625 42.671875 17.703125 53.65625 
Q 14.5 64.65625 8.015625 75.875 
z
" id="DejaVuSans-41"/>
     </defs>
     <g transform="translate(302.60475 225.7955)scale(0.144 -0.144)">
      <use xlink:href="#DejaVuSans-84"/>
      <use x="61.037109" xlink:href="#DejaVuSans-105"/>
      <use x="88.820312" xlink:href="#DejaVuSans-109"/>
      <use x="186.232422" xlink:href="#DejaVuSans-101"/>
      <use x="247.755859" xlink:href="#DejaVuSans-32"/>
      <use x="279.542969" xlink:href="#DejaVuSans-40"/>
      <use x="318.556641" xlink:href="#DejaVuSans-115"/>
      <use x="370.65625" xlink:href="#DejaVuSans-41"/>
     </g>
    </g>
   </g>
   <g id="matplotlib.axis_2">
    <g id="ytick_1">
     <g id="line2d_6">
      <defs>
       <path d="M 0 0 
L -3.5 0 
" id="m0ca25fcd98" style="stroke:#000000;stroke-width:0.8;"/>
      </defs>
      <g>
       <use style="stroke:#000000;stroke-width:0.8;" x="81" xlink:href="#m0ca25fcd98" y="164.08185"/>
      </g>
     </g>
     <g id="text_7">
      <!-- 0.0010 -->
      <g transform="translate(32.01125 168.640913)scale(0.12 -0.12)">
       <use xlink:href="#DejaVuSans-48"/>
       <use x="63.623047" xlink:href="#DejaVuSans-46"/>
       <use x="95.410156" xlink:href="#DejaVuSans-48"/>
       <use x="159.033203" xlink:href="#DejaVuSans-48"/>
       <use x="222.65625" xlink:href="#DejaVuSans-49"/>
       <use x="286.279297" xlink:href="#DejaVuSans-48"/>
      </g>
     </g>
    </g>
    <g id="ytick_2">
     <g id="line2d_7">
      <g>
       <use style="stroke:#000000;stroke-width:0.8;" x="81" xlink:href="#m0ca25fcd98" y="127.704017"/>
      </g>
     </g>
     <g id="text_8">
      <!-- 0.0015 -->
      <g transform="translate(32.01125 132.263079)scale(0.12 -0.12)">
       <use xlink:href="#DejaVuSans-48"/>
       <use x="63.623047" xlink:href="#DejaVuSans-46"/>
       <use x="95.410156" xlink:href="#DejaVuSans-48"/>
       <use x="159.033203" xlink:href="#DejaVuSans-48"/>
       <use x="222.65625" xlink:href="#DejaVuSans-49"/>
       <use x="286.279297" xlink:href="#DejaVuSans-53"/>
      </g>
     </g>
    </g>
    <g id="ytick_3">
     <g id="line2d_8">
      <g>
       <use style="stroke:#000000;stroke-width:0.8;" x="81" xlink:href="#m0ca25fcd98" y="91.326184"/>
      </g>
     </g>
     <g id="text_9">
      <!-- 0.0020 -->
      <g transform="translate(32.01125 95.885246)scale(0.12 -0.12)">
       <use xlink:href="#DejaVuSans-48"/>
       <use x="63.623047" xlink:href="#DejaVuSans-46"/>
       <use x="95.410156" xlink:href="#DejaVuSans-48"/>
       <use x="159.033203" xlink:href="#DejaVuSans-48"/>
       <use x="222.65625" xlink:href="#DejaVuSans-50"/>
       <use x="286.279297" xlink:href="#DejaVuSans-48"/>
      </g>
     </g>
    </g>
    <g id="ytick_4">
     <g id="line2d_9">
      <g>
       <use style="stroke:#000000;stroke-width:0.8;" x="81" xlink:href="#m0ca25fcd98" y="54.948351"/>
      </g>
     </g>
     <g id="text_10">
      <!-- 0.0025 -->
      <g transform="translate(32.01125 59.507413)scale(0.12 -0.12)">
       <use xlink:href="#DejaVuSans-48"/>
       <use x="63.623047" xlink:href="#DejaVuSans-46"/>
       <use x="95.410156" xlink:href="#DejaVuSans-48"/>
       <use x="159.033203" xlink:href="#DejaVuSans-48"/>
       <use x="222.65625" xlink:href="#DejaVuSans-50"/>
       <use x="286.279297" xlink:href="#DejaVuSans-53"/>
      </g>
     </g>
    </g>
    <g id="text_11">
     <!-- Beta-bin $\rho$ -->
     <defs>
      <path d="M 19.671875 34.8125 
L 19.671875 8.109375 
L 35.5 8.109375 
Q 43.453125 8.109375 47.28125 11.40625 
Q 51.125 14.703125 51.125 21.484375 
Q 51.125 28.328125 47.28125 31.5625 
Q 43.453125 34.8125 35.5 34.8125 
z
M 19.671875 64.796875 
L 19.671875 42.828125 
L 34.28125 42.828125 
Q 41.5 42.828125 45.03125 45.53125 
Q 48.578125 48.25 48.578125 53.8125 
Q 48.578125 59.328125 45.03125 62.0625 
Q 41.5 64.796875 34.28125 64.796875 
z
M 9.8125 72.90625 
L 35.015625 72.90625 
Q 46.296875 72.90625 52.390625 68.21875 
Q 58.5 63.53125 58.5 54.890625 
Q 58.5 48.1875 55.375 44.234375 
Q 52.25 40.28125 46.1875 39.3125 
Q 53.46875 37.75 57.5 32.78125 
Q 61.53125 27.828125 61.53125 20.40625 
Q 61.53125 10.640625 54.890625 5.3125 
Q 48.25 0 35.984375 0 
L 9.8125 0 
z
" id="DejaVuSans-66"/>
      <path d="M 18.3125 70.21875 
L 18.3125 54.6875 
L 36.8125 54.6875 
L 36.8125 47.703125 
L 18.3125 47.703125 
L 18.3125 18.015625 
Q 18.3125 11.328125 20.140625 9.421875 
Q 21.96875 7.515625 27.59375 7.515625 
L 36.8125 7.515625 
L 36.8125 0 
L 27.59375 0 
Q 17.1875 0 13.234375 3.875 
Q 9.28125 7.765625 9.28125 18.015625 
L 9.28125 47.703125 
L 2.6875 47.703125 
L 2.6875 54.6875 
L 9.28125 54.6875 
L 9.28125 70.21875 
z
" id="DejaVuSans-116"/>
      <path d="M 34.28125 27.484375 
Q 23.390625 27.484375 19.1875 25 
Q 14.984375 22.515625 14.984375 16.5 
Q 14.984375 11.71875 18.140625 8.90625 
Q 21.296875 6.109375 26.703125 6.109375 
Q 34.1875 6.109375 38.703125 11.40625 
Q 43.21875 16.703125 43.21875 25.484375 
L 43.21875 27.484375 
z
M 52.203125 31.203125 
L 52.203125 0 
L 43.21875 0 
L 43.21875 8.296875 
Q 40.140625 3.328125 35.546875 0.953125 
Q 30.953125 -1.421875 24.3125 -1.421875 
Q 15.921875 -1.421875 10.953125 3.296875 
Q 6 8.015625 6 15.921875 
Q 6 25.140625 12.171875 29.828125 
Q 18.359375 34.515625 30.609375 34.515625 
L 43.21875 34.515625 
L 43.21875 35.40625 
Q 43.21875 41.609375 39.140625 45 
Q 35.0625 48.390625 27.6875 48.390625 
Q 23 48.390625 18.546875 47.265625 
Q 14.109375 46.140625 10.015625 43.890625 
L 10.015625 52.203125 
Q 14.9375 54.109375 19.578125 55.046875 
Q 24.21875 56 28.609375 56 
Q 40.484375 56 46.34375 49.84375 
Q 52.203125 43.703125 52.203125 31.203125 
z
" id="DejaVuSans-97"/>
      <path d="M 4.890625 31.390625 
L 31.203125 31.390625 
L 31.203125 23.390625 
L 4.890625 23.390625 
z
" id="DejaVuSans-45"/>
      <path d="M 48.6875 27.296875 
Q 48.6875 37.203125 44.609375 42.84375 
Q 40.53125 48.484375 33.40625 48.484375 
Q 26.265625 48.484375 22.1875 42.84375 
Q 18.109375 37.203125 18.109375 27.296875 
Q 18.109375 17.390625 22.1875 11.75 
Q 26.265625 6.109375 33.40625 6.109375 
Q 40.53125 6.109375 44.609375 11.75 
Q 48.6875 17.390625 48.6875 27.296875 
z
M 18.109375 46.390625 
Q 20.953125 51.265625 25.265625 53.625 
Q 29.59375 56 35.59375 56 
Q 45.5625 56 51.78125 48.09375 
Q 58.015625 40.1875 58.015625 27.296875 
Q 58.015625 14.40625 51.78125 6.484375 
Q 45.5625 -1.421875 35.59375 -1.421875 
Q 29.59375 -1.421875 25.265625 0.953125 
Q 20.953125 3.328125 18.109375 8.203125 
L 18.109375 0 
L 9.078125 0 
L 9.078125 75.984375 
L 18.109375 75.984375 
z
" id="DejaVuSans-98"/>
      <path d="M 54.890625 33.015625 
L 54.890625 0 
L 45.90625 0 
L 45.90625 32.71875 
Q 45.90625 40.484375 42.875 44.328125 
Q 39.84375 48.1875 33.796875 48.1875 
Q 26.515625 48.1875 22.3125 43.546875 
Q 18.109375 38.921875 18.109375 30.90625 
L 18.109375 0 
L 9.078125 0 
L 9.078125 54.6875 
L 18.109375 54.6875 
L 18.109375 46.1875 
Q 21.34375 51.125 25.703125 53.5625 
Q 30.078125 56 35.796875 56 
Q 45.21875 56 50.046875 50.171875 
Q 54.890625 44.34375 54.890625 33.015625 
z
" id="DejaVuSans-110"/>
      <path d="M 18.796875 44.921875 
Q 22.703125 49.90625 30.953125 54.296875 
Q 34.1875 56 43.0625 56 
Q 53.03125 56 57.71875 48.09375 
Q 62.40625 40.1875 59.90625 27.296875 
Q 57.375 14.40625 49.609375 6.484375 
Q 41.84375 -1.421875 31.890625 -1.421875 
Q 25.875 -1.421875 22.015625 0.984375 
Q 18.171875 3.328125 16.3125 8.203125 
L 10.640625 -20.796875 
L 1.609375 -20.796875 
L 10.890625 26.8125 
Q 13.09375 38.09375 18.796875 44.921875 
z
M 50.59375 27.296875 
Q 52.484375 37.203125 49.515625 42.875 
Q 46.53125 48.484375 39.40625 48.484375 
Q 32.28125 48.484375 27.09375 42.875 
Q 21.921875 37.203125 20.015625 27.296875 
Q 18.0625 17.390625 21.046875 11.71875 
Q 24.03125 6.109375 31.15625 6.109375 
Q 38.28125 6.109375 43.453125 11.71875 
Q 48.640625 17.390625 50.59375 27.296875 
z
" id="DejaVuSans-Oblique-961"/>
     </defs>
     <g transform="translate(24.98725 146.304)rotate(-90)scale(0.144 -0.144)">
      <use transform="translate(0 0.015625)" xlink:href="#DejaVuSans-66"/>
      <use transform="translate(68.603516 0.015625)" xlink:href="#DejaVuSans-101"/>
      <use transform="translate(130.126953 0.015625)" xlink:href="#DejaVuSans-116"/>
      <use transform="translate(169.335938 0.015625)" xlink:href="#DejaVuSans-97"/>
      <use transform="translate(230.615234 0.015625)" xlink:href="#DejaVuSans-45"/>
      <use transform="translate(266.699219 0.015625)" xlink:href="#DejaVuSans-98"/>
      <use transform="translate(330.175781 0.015625)" xlink:href="#DejaVuSans-105"/>
      <use transform="translate(357.958984 0.015625)" xlink:href="#DejaVuSans-110"/>
      <use transform="translate(421.337891 0.015625)" xlink:href="#DejaVuSans-32"/>
      <use transform="translate(453.125 0.015625)" xlink:href="#DejaVuSans-Oblique-961"/>
     </g>
    </g>
   </g>
   <g id="line2d_10">
    <path clip-path="url(#paeba06c4c5)" d="M 81 72.815385 
L 82.702373 83.818563 
L 84.404746 101.473515 
L 86.107119 120.582273 
L 87.809492 114.429488 
L 89.511864 153.744965 
L 91.214237 103.812296 
L 92.91661 130.919798 
L 94.618983 113.924369 
L 96.321356 147.538144 
L 98.023729 116.251229 
L 99.726102 140.839318 
L 101.428475 91.512959 
L 103.130847 114.321723 
L 104.83322 89.058575 
L 106.535593 144.849143 
L 108.237966 82.306408 
L 109.940339 97.545313 
L 111.642712 123.630303 
L 113.345085 68.93819 
L 115.047458 77.55857 
L 116.749831 77.661486 
L 118.452203 95.622505 
L 120.154576 94.048027 
L 121.856949 105.42907 
L 123.559322 90.03056 
L 125.261695 90.464149 
L 126.964068 85.685954 
L 128.666441 98.876217 
L 130.368814 100.543345 
L 132.071186 116.786959 
L 133.773559 77.290091 
L 135.475932 86.950925 
L 137.178305 109.530917 
L 138.880678 117.633968 
L 140.583051 111.843435 
L 142.285424 108.686279 
L 143.987797 113.83835 
L 145.690169 100.268171 
L 147.392542 118.118951 
L 149.094915 116.993609 
L 150.797288 135.799148 
L 154.202034 102.055564 
L 155.904407 112.374469 
L 157.60678 119.079486 
L 159.309153 78.443273 
L 161.011525 122.180878 
L 162.713898 99.408589 
L 164.416271 104.071889 
L 166.118644 99.721859 
L 167.821017 98.291487 
L 169.52339 137.65422 
L 171.225763 139.585577 
L 172.928136 120.195756 
L 174.630508 120.055812 
L 176.332881 120.497207 
L 178.035254 119.66353 
L 179.737627 116.599213 
L 181.44 130.171136 
L 183.142373 113.524674 
L 184.844746 146.789684 
L 186.547119 145.17974 
L 189.951864 118.303941 
L 191.654237 86.01862 
L 193.35661 167.245015 
L 195.058983 131.168868 
L 196.761356 132.358871 
L 198.463729 114.329676 
L 200.166102 112.814353 
L 201.868475 94.469385 
L 203.570847 84.658475 
L 205.27322 140.520854 
L 206.975593 122.989908 
L 208.677966 124.893986 
L 210.380339 89.252624 
L 212.082712 103.069325 
L 213.785085 122.126186 
L 215.487458 134.341065 
L 217.189831 99.167236 
L 218.892203 94.019859 
L 220.594576 114.430377 
L 222.296949 112.128419 
L 223.999322 99.381474 
L 225.701695 128.444696 
L 227.404068 148.553159 
L 229.106441 142.055953 
L 230.808814 95.890502 
L 232.511186 94.078959 
L 234.213559 103.940691 
L 235.915932 111.886311 
L 237.618305 97.729485 
L 239.320678 63.592567 
L 241.023051 114.64434 
L 242.725424 90.223957 
L 244.427797 107.078325 
L 246.130169 90.164731 
L 247.832542 113.551577 
L 251.237288 115.39913 
L 254.642034 87.354575 
L 256.344407 139.679584 
L 258.04678 148.202106 
L 259.749153 117.953225 
L 261.451525 131.68593 
L 263.153898 138.547832 
L 264.856271 127.608338 
L 266.558644 109.8671 
L 268.261017 131.943177 
L 269.96339 109.40929 
L 271.665763 110.32227 
L 273.368136 102.318925 
L 275.070508 100.429275 
L 276.772881 104.031589 
L 278.475254 119.656876 
L 280.177627 126.675644 
L 281.88 121.721796 
L 283.582373 95.806509 
L 285.284746 80.876399 
L 286.987119 81.847022 
L 288.689492 89.988347 
L 290.391864 100.293372 
L 292.094237 105.584704 
L 293.79661 91.906351 
L 295.498983 127.018524 
L 297.201356 89.258738 
L 298.903729 133.017395 
L 300.606102 58.811395 
L 302.308475 109.369339 
L 304.010847 107.336409 
L 305.71322 106.339646 
L 307.415593 145.850113 
L 309.117966 132.045577 
L 310.820339 109.366351 
L 312.522712 146.297209 
L 314.225085 129.384316 
L 315.927458 109.767386 
L 317.629831 147.667125 
L 319.332203 98.455609 
L 321.034576 90.257415 
L 322.736949 103.735973 
L 324.439322 77.037126 
L 326.141695 138.322281 
L 327.844068 110.940522 
L 329.546441 110.733192 
L 331.248814 105.900577 
L 332.951186 110.281572 
L 334.653559 121.721393 
L 336.355932 86.915161 
L 338.058305 124.951558 
L 339.760678 110.068578 
L 341.463051 136.144624 
L 343.165424 127.598194 
L 344.867797 131.539824 
L 346.570169 148.843831 
L 348.272542 128.284366 
L 349.974915 120.027733 
L 351.677288 131.561931 
L 353.379661 140.578573 
L 355.082034 120.701424 
L 356.784407 130.86726 
L 358.48678 132.970129 
L 360.189153 125.014837 
L 361.891525 118.649629 
L 363.593898 170.147283 
L 365.296271 128.432769 
L 366.998644 137.439331 
L 368.701017 150.223734 
L 370.40339 123.927931 
L 372.105763 115.611423 
L 373.808136 134.913375 
L 375.510508 140.998376 
L 377.212881 145.557156 
L 378.915254 116.402212 
L 380.617627 138.423194 
L 382.32 137.894242 
L 384.022373 104.336256 
L 385.724746 131.757605 
L 387.427119 117.770255 
L 389.129492 111.41199 
L 390.831864 97.699063 
L 392.534237 115.152738 
L 394.23661 119.526135 
L 395.938983 120.540263 
L 397.641356 93.228005 
L 399.343729 79.86445 
L 401.046102 110.173488 
L 402.748475 122.37717 
L 404.450847 141.528857 
L 406.15322 169.039495 
L 407.855593 149.390688 
L 409.557966 146.187377 
L 411.260339 140.783191 
L 412.962712 163.04684 
L 414.665085 149.279936 
L 416.367458 129.757373 
L 418.069831 156.035222 
L 419.772203 146.729095 
L 421.474576 112.065247 
L 423.176949 113.95909 
L 424.879322 123.993215 
L 426.581695 119.988556 
L 428.284068 72.76741 
L 429.986441 103.1537 
L 431.688814 100.619433 
L 433.391186 107.626161 
L 435.093559 111.271292 
L 436.795932 118.206487 
L 438.498305 111.570784 
L 440.200678 153.16163 
L 441.903051 123.947905 
L 443.605424 99.031017 
L 445.307797 120.35236 
L 447.010169 101.836304 
L 448.712542 140.924992 
L 450.414915 126.195322 
L 452.117288 157.726437 
L 453.819661 145.2434 
L 455.522034 140.626452 
L 457.224407 129.033472 
L 458.92678 123.241593 
L 460.629153 124.527345 
L 462.331525 109.07698 
L 464.033898 100.544184 
L 465.736271 103.602621 
L 467.438644 114.859368 
L 469.141017 145.132915 
L 470.84339 86.806654 
L 472.545763 106.431634 
L 474.248136 142.296435 
L 475.950508 95.027313 
L 477.652881 106.208126 
L 479.355254 92.8335 
L 481.057627 86.007278 
L 482.76 106.8379 
L 484.462373 98.287917 
L 486.164746 83.901548 
L 487.867119 94.494747 
L 489.569492 113.14033 
L 491.271864 114.351105 
L 492.974237 112.969995 
L 494.67661 122.821731 
L 496.378983 111.063566 
L 498.081356 107.396509 
L 499.783729 146.793048 
L 501.486102 139.012324 
L 503.188475 113.594823 
L 504.890847 95.384035 
L 506.59322 113.961748 
L 508.295593 126.878394 
L 509.997966 115.811692 
L 511.700339 113.929374 
L 513.402712 120.644482 
L 515.105085 110.945494 
L 516.807458 120.006257 
L 518.509831 123.483287 
L 520.212203 146.452384 
L 521.914576 80.918461 
L 523.616949 131.335764 
L 525.319322 116.169777 
L 527.021695 83.760728 
L 528.724068 88.49673 
L 530.426441 105.758683 
L 532.128814 146.731839 
L 533.831186 97.78488 
L 535.533559 146.863732 
L 537.235932 107.291672 
L 538.938305 137.753536 
L 540.640678 123.92341 
L 542.343051 136.00236 
L 544.045424 134.798309 
L 545.747797 125.276377 
L 547.450169 149.693309 
L 549.152542 135.908072 
L 550.854915 137.059424 
L 552.557288 133.010669 
L 554.259661 122.188848 
L 555.962034 147.044861 
L 557.664407 97.572619 
L 559.36678 102.310281 
L 561.069153 77.216535 
L 562.771525 88.634208 
L 564.473898 84.974363 
L 566.176271 54.488465 
L 567.878644 95.395291 
L 569.581017 66.607257 
L 571.28339 84.227099 
L 572.985763 58.043182 
L 574.688136 101.005888 
L 576.390508 107.206571 
L 578.092881 106.408765 
L 579.795254 112.635459 
L 581.497627 96.533406 
L 583.2 144.1073 
L 583.2 144.1073 
" style="fill:none;stroke:#0000ff;stroke-linecap:square;stroke-width:1.5;"/>
   </g>
   <g id="patch_3">
    <path d="M 81 192.24 
L 81 25.92 
" style="fill:none;stroke:#000000;stroke-linecap:square;stroke-linejoin:miter;stroke-width:0.8;"/>
   </g>
   <g id="patch_4">
    <path d="M 583.2 192.24 
L 583.2 25.92 
" style="fill:none;stroke:#000000;stroke-linecap:square;stroke-linejoin:miter;stroke-width:0.8;"/>
   </g>
   <g id="patch_5">
    <path d="M 81 192.24 
L 583.2 192.24 
" style="fill:none;stroke:#000000;stroke-linecap:square;stroke-linejoin:miter;stroke-width:0.8;"/>
   </g>
   <g id="patch_6">
    <path d="M 81 25.92 
L 583.2 25.92 
" style="fill:none;stroke:#000000;stroke-linecap:square;stroke-linejoin:miter;stroke-width:0.8;"/>
   </g>
   <g id="text_12">
    <!-- V1, Num Trials=10 All unstimulated trials -->
    <defs>
     <path d="M 28.609375 0 
L 0.78125 72.90625 
L 11.078125 72.90625 
L 34.1875 11.53125 
L 57.328125 72.90625 
L 67.578125 72.90625 
L 39.796875 0 
z
" id="DejaVuSans-86"/>
     <path d="M 11.71875 12.40625 
L 22.015625 12.40625 
L 22.015625 4 
L 14.015625 -11.625 
L 7.71875 -11.625 
L 11.71875 4 
z
" id="DejaVuSans-44"/>
     <path d="M 9.8125 72.90625 
L 23.09375 72.90625 
L 55.421875 11.921875 
L 55.421875 72.90625 
L 64.984375 72.90625 
L 64.984375 0 
L 51.703125 0 
L 19.390625 60.984375 
L 19.390625 0 
L 9.8125 0 
z
" id="DejaVuSans-78"/>
     <path d="M 8.5 21.578125 
L 8.5 54.6875 
L 17.484375 54.6875 
L 17.484375 21.921875 
Q 17.484375 14.15625 20.5 10.265625 
Q 23.53125 6.390625 29.59375 6.390625 
Q 36.859375 6.390625 41.078125 11.03125 
Q 45.3125 15.671875 45.3125 23.6875 
L 45.3125 54.6875 
L 54.296875 54.6875 
L 54.296875 0 
L 45.3125 0 
L 45.3125 8.40625 
Q 42.046875 3.421875 37.71875 1 
Q 33.40625 -1.421875 27.6875 -1.421875 
Q 18.265625 -1.421875 13.375 4.4375 
Q 8.5 10.296875 8.5 21.578125 
z
M 31.109375 56 
z
" id="DejaVuSans-117"/>
     <path d="M 41.109375 46.296875 
Q 39.59375 47.171875 37.8125 47.578125 
Q 36.03125 48 33.890625 48 
Q 26.265625 48 22.1875 43.046875 
Q 18.109375 38.09375 18.109375 28.8125 
L 18.109375 0 
L 9.078125 0 
L 9.078125 54.6875 
L 18.109375 54.6875 
L 18.109375 46.1875 
Q 20.953125 51.171875 25.484375 53.578125 
Q 30.03125 56 36.53125 56 
Q 37.453125 56 38.578125 55.875 
Q 39.703125 55.765625 41.0625 55.515625 
z
" id="DejaVuSans-114"/>
     <path d="M 9.421875 75.984375 
L 18.40625 75.984375 
L 18.40625 0 
L 9.421875 0 
z
" id="DejaVuSans-108"/>
     <path d="M 10.59375 45.40625 
L 73.1875 45.40625 
L 73.1875 37.203125 
L 10.59375 37.203125 
z
M 10.59375 25.484375 
L 73.1875 25.484375 
L 73.1875 17.1875 
L 10.59375 17.1875 
z
" id="DejaVuSans-61"/>
     <path d="M 34.1875 63.1875 
L 20.796875 26.90625 
L 47.609375 26.90625 
z
M 28.609375 72.90625 
L 39.796875 72.90625 
L 67.578125 0 
L 57.328125 0 
L 50.6875 18.703125 
L 17.828125 18.703125 
L 11.1875 0 
L 0.78125 0 
z
" id="DejaVuSans-65"/>
     <path d="M 45.40625 46.390625 
L 45.40625 75.984375 
L 54.390625 75.984375 
L 54.390625 0 
L 45.40625 0 
L 45.40625 8.203125 
Q 42.578125 3.328125 38.25 0.953125 
Q 33.9375 -1.421875 27.875 -1.421875 
Q 17.96875 -1.421875 11.734375 6.484375 
Q 5.515625 14.40625 5.515625 27.296875 
Q 5.515625 40.1875 11.734375 48.09375 
Q 17.96875 56 27.875 56 
Q 33.9375 56 38.25 53.625 
Q 42.578125 51.265625 45.40625 46.390625 
z
M 14.796875 27.296875 
Q 14.796875 17.390625 18.875 11.75 
Q 22.953125 6.109375 30.078125 6.109375 
Q 37.203125 6.109375 41.296875 11.75 
Q 45.40625 17.390625 45.40625 27.296875 
Q 45.40625 37.203125 41.296875 42.84375 
Q 37.203125 48.484375 30.078125 48.484375 
Q 22.953125 48.484375 18.875 42.84375 
Q 14.796875 37.203125 14.796875 27.296875 
z
" id="DejaVuSans-100"/>
    </defs>
    <g transform="translate(207.6975 19.92)scale(0.12 -0.12)">
     <use xlink:href="#DejaVuSans-86"/>
     <use x="68.408203" xlink:href="#DejaVuSans-49"/>
     <use x="132.03125" xlink:href="#DejaVuSans-44"/>
     <use x="163.818359" xlink:href="#DejaVuSans-32"/>
     <use x="195.605469" xlink:href="#DejaVuSans-78"/>
     <use x="270.410156" xlink:href="#DejaVuSans-117"/>
     <use x="333.789062" xlink:href="#DejaVuSans-109"/>
     <use x="431.201172" xlink:href="#DejaVuSans-32"/>
     <use x="462.988281" xlink:href="#DejaVuSans-84"/>
     <use x="523.853516" xlink:href="#DejaVuSans-114"/>
     <use x="564.966797" xlink:href="#DejaVuSans-105"/>
     <use x="592.75" xlink:href="#DejaVuSans-97"/>
     <use x="654.029297" xlink:href="#DejaVuSans-108"/>
     <use x="681.8125" xlink:href="#DejaVuSans-115"/>
     <use x="733.912109" xlink:href="#DejaVuSans-61"/>
     <use x="817.701172" xlink:href="#DejaVuSans-49"/>
     <use x="881.324219" xlink:href="#DejaVuSans-48"/>
     <use x="944.947266" xlink:href="#DejaVuSans-32"/>
     <use x="976.734375" xlink:href="#DejaVuSans-65"/>
     <use x="1045.142578" xlink:href="#DejaVuSans-108"/>
     <use x="1072.925781" xlink:href="#DejaVuSans-108"/>
     <use x="1100.708984" xlink:href="#DejaVuSans-32"/>
     <use x="1132.496094" xlink:href="#DejaVuSans-117"/>
     <use x="1195.875" xlink:href="#DejaVuSans-110"/>
     <use x="1259.253906" xlink:href="#DejaVuSans-115"/>
     <use x="1311.353516" xlink:href="#DejaVuSans-116"/>
     <use x="1350.5625" xlink:href="#DejaVuSans-105"/>
     <use x="1378.345703" xlink:href="#DejaVuSans-109"/>
     <use x="1475.757812" xlink:href="#DejaVuSans-117"/>
     <use x="1539.136719" xlink:href="#DejaVuSans-108"/>
     <use x="1566.919922" xlink:href="#DejaVuSans-97"/>
     <use x="1628.199219" xlink:href="#DejaVuSans-116"/>
     <use x="1667.408203" xlink:href="#DejaVuSans-101"/>
     <use x="1728.931641" xlink:href="#DejaVuSans-100"/>
     <use x="1792.408203" xlink:href="#DejaVuSans-32"/>
     <use x="1824.195312" xlink:href="#DejaVuSans-116"/>
     <use x="1863.404297" xlink:href="#DejaVuSans-114"/>
     <use x="1904.517578" xlink:href="#DejaVuSans-105"/>
     <use x="1932.300781" xlink:href="#DejaVuSans-97"/>
     <use x="1993.580078" xlink:href="#DejaVuSans-108"/>
     <use x="2021.363281" xlink:href="#DejaVuSans-115"/>
    </g>
   </g>
   <g id="legend_1">
    <g id="patch_7">
     <path d="M 89.4 70.77375 
L 223.56 70.77375 
Q 225.96 70.77375 225.96 68.37375 
L 225.96 34.32 
Q 225.96 31.92 223.56 31.92 
L 89.4 31.92 
Q 87 31.92 87 34.32 
L 87 68.37375 
Q 87 70.77375 89.4 70.77375 
z
" style="fill:#ffffff;opacity:0.8;stroke:#cccccc;stroke-linejoin:miter;"/>
    </g>
    <g id="line2d_11">
     <path d="M 91.8 41.64 
L 115.8 41.64 
" style="fill:none;stroke:#0000ff;stroke-linecap:square;stroke-width:1.5;"/>
    </g>
    <g id="line2d_12"/>
    <g id="text_13">
     <!-- Beta-Binomial $\rho$ -->
     <defs>
      <path d="M 30.609375 48.390625 
Q 23.390625 48.390625 19.1875 42.75 
Q 14.984375 37.109375 14.984375 27.296875 
Q 14.984375 17.484375 19.15625 11.84375 
Q 23.34375 6.203125 30.609375 6.203125 
Q 37.796875 6.203125 41.984375 11.859375 
Q 46.1875 17.53125 46.1875 27.296875 
Q 46.1875 37.015625 41.984375 42.703125 
Q 37.796875 48.390625 30.609375 48.390625 
z
M 30.609375 56 
Q 42.328125 56 49.015625 48.375 
Q 55.71875 40.765625 55.71875 27.296875 
Q 55.71875 13.875 49.015625 6.21875 
Q 42.328125 -1.421875 30.609375 -1.421875 
Q 18.84375 -1.421875 12.171875 6.21875 
Q 5.515625 13.875 5.515625 27.296875 
Q 5.515625 40.765625 12.171875 48.375 
Q 18.84375 56 30.609375 56 
z
" id="DejaVuSans-111"/>
     </defs>
     <g transform="translate(125.4 45.84)scale(0.12 -0.12)">
      <use transform="translate(0 0.015625)" xlink:href="#DejaVuSans-66"/>
      <use transform="translate(68.603516 0.015625)" xlink:href="#DejaVuSans-101"/>
      <use transform="translate(130.126953 0.015625)" xlink:href="#DejaVuSans-116"/>
      <use transform="translate(169.335938 0.015625)" xlink:href="#DejaVuSans-97"/>
      <use transform="translate(230.615234 0.015625)" xlink:href="#DejaVuSans-45"/>
      <use transform="translate(266.699219 0.015625)" xlink:href="#DejaVuSans-66"/>
      <use transform="translate(335.302734 0.015625)" xlink:href="#DejaVuSans-105"/>
      <use transform="translate(363.085938 0.015625)" xlink:href="#DejaVuSans-110"/>
      <use transform="translate(426.464844 0.015625)" xlink:href="#DejaVuSans-111"/>
      <use transform="translate(487.646484 0.015625)" xlink:href="#DejaVuSans-109"/>
      <use transform="translate(585.058594 0.015625)" xlink:href="#DejaVuSans-105"/>
      <use transform="translate(612.841797 0.015625)" xlink:href="#DejaVuSans-97"/>
      <use transform="translate(674.121094 0.015625)" xlink:href="#DejaVuSans-108"/>
      <use transform="translate(701.904297 0.015625)" xlink:href="#DejaVuSans-32"/>
      <use transform="translate(733.691406 0.015625)" xlink:href="#DejaVuSans-Oblique-961"/>
     </g>
    </g>
    <g id="patch_8">
     <path d="M 91.8 63.478125 
L 115.8 63.478125 
L 115.8 55.078125 
L 91.8 55.078125 
z
" style="fill:#0000ff;opacity:0.3;stroke:#0000ff;stroke-linejoin:miter;"/>
    </g>
    <g id="text_14">
     <!-- Std. Err. -->
     <defs>
      <path d="M 53.515625 70.515625 
L 53.515625 60.890625 
Q 47.90625 63.578125 42.921875 64.890625 
Q 37.9375 66.21875 33.296875 66.21875 
Q 25.25 66.21875 20.875 63.09375 
Q 16.5 59.96875 16.5 54.203125 
Q 16.5 49.359375 19.40625 46.890625 
Q 22.3125 44.4375 30.421875 42.921875 
L 36.375 41.703125 
Q 47.40625 39.59375 52.65625 34.296875 
Q 57.90625 29 57.90625 20.125 
Q 57.90625 9.515625 50.796875 4.046875 
Q 43.703125 -1.421875 29.984375 -1.421875 
Q 24.8125 -1.421875 18.96875 -0.25 
Q 13.140625 0.921875 6.890625 3.21875 
L 6.890625 13.375 
Q 12.890625 10.015625 18.65625 8.296875 
Q 24.421875 6.59375 29.984375 6.59375 
Q 38.421875 6.59375 43.015625 9.90625 
Q 47.609375 13.234375 47.609375 19.390625 
Q 47.609375 24.75 44.3125 27.78125 
Q 41.015625 30.8125 33.5 32.328125 
L 27.484375 33.5 
Q 16.453125 35.6875 11.515625 40.375 
Q 6.59375 45.0625 6.59375 53.421875 
Q 6.59375 63.09375 13.40625 68.65625 
Q 20.21875 74.21875 32.171875 74.21875 
Q 37.3125 74.21875 42.625 73.28125 
Q 47.953125 72.359375 53.515625 70.515625 
z
" id="DejaVuSans-83"/>
      <path d="M 9.8125 72.90625 
L 55.90625 72.90625 
L 55.90625 64.59375 
L 19.671875 64.59375 
L 19.671875 43.015625 
L 54.390625 43.015625 
L 54.390625 34.71875 
L 19.671875 34.71875 
L 19.671875 8.296875 
L 56.78125 8.296875 
L 56.78125 0 
L 9.8125 0 
z
" id="DejaVuSans-69"/>
     </defs>
     <g transform="translate(125.4 63.478125)scale(0.12 -0.12)">
      <use xlink:href="#DejaVuSans-83"/>
      <use x="63.476562" xlink:href="#DejaVuSans-116"/>
      <use x="102.685547" xlink:href="#DejaVuSans-100"/>
      <use x="166.162109" xlink:href="#DejaVuSans-46"/>
      <use x="197.949219" xlink:href="#DejaVuSans-32"/>
      <use x="229.736328" xlink:href="#DejaVuSans-69"/>
      <use x="292.919922" xlink:href="#DejaVuSans-114"/>
      <use x="334.017578" xlink:href="#DejaVuSans-114"/>
      <use x="374.990234" xlink:href="#DejaVuSans-46"/>
     </g>
    </g>
   </g>
  </g>
 </g>
 <defs>
  <clipPath id="paeba06c4c5">
   <rect height="166.32" width="502.2" x="81" y="25.92"/>
  </clipPath>
 </defs>
</svg>
