<?xml version="1.0" encoding="utf-8" standalone="no"?>
<!DOCTYPE svg PUBLIC "-//W3C//DTD SVG 1.1//EN"
  "http://www.w3.org/Graphics/SVG/1.1/DTD/svg11.dtd">
<!-- Created with matplotlib (https://matplotlib.org/) -->
<svg height="216pt" version="1.1" viewBox="0 0 648 216" width="648pt" xmlns="http://www.w3.org/2000/svg" xmlns:xlink="http://www.w3.org/1999/xlink">
 <defs>
  <style type="text/css">
*{stroke-linecap:butt;stroke-linejoin:round;}
  </style>
 </defs>
 <g id="figure_1">
  <g id="patch_1">
   <path d="M 0 216 
L 648 216 
L 648 0 
L 0 0 
z
" style="fill:#ffffff;"/>
  </g>
  <g id="axes_1">
   <g id="patch_2">
    <path d="M 81 192.24 
L 583.2 192.24 
L 583.2 25.92 
L 81 25.92 
z
" style="fill:#ffffff;"/>
   </g>
   <g id="PolyCollection_1">
    <defs>
     <path d="M 81 -56.381987 
L 81 -49.116956 
L 83.049796 -50.145413 
L 85.099592 -50.680214 
L 87.149388 -51.041862 
L 89.199184 -52.112183 
L 91.24898 -52.432587 
L 93.298776 -52.202465 
L 95.348571 -52.249756 
L 97.398367 -51.952217 
L 99.448163 -51.627348 
L 101.497959 -51.580376 
L 103.547755 -50.561501 
L 105.597551 -51.924762 
L 107.647347 -52.770125 
L 109.697143 -51.747414 
L 111.746939 -52.837129 
L 113.796735 -51.915121 
L 115.846531 -51.254514 
L 117.896327 -51.914972 
L 119.946122 -52.858404 
L 121.995918 -56.878955 
L 124.045714 -68.535973 
L 126.09551 -87.625517 
L 128.145306 -115.032469 
L 130.195102 -142.392725 
L 132.244898 -161.793169 
L 134.294694 -171.363962 
L 136.34449 -177.475613 
L 138.394286 -181.04573 
L 140.444082 -179.702949 
L 142.493878 -175.623945 
L 144.543673 -158.751342 
L 146.593469 -136.508048 
L 148.643265 -105.902858 
L 150.693061 -74.808233 
L 152.742857 -52.743862 
L 154.792653 -39.308033 
L 156.842449 -29.374113 
L 158.892245 -24.04574 
L 160.942041 -23.869505 
L 162.991837 -23.76 
L 165.041633 -27.41007 
L 167.091429 -34.783854 
L 169.141224 -43.828104 
L 171.19102 -52.922521 
L 173.240816 -65.133402 
L 175.290612 -80.174404 
L 177.340408 -93.687982 
L 179.390204 -103.553145 
L 181.44 -111.263615 
L 183.489796 -117.917195 
L 185.539592 -119.430828 
L 187.589388 -119.148492 
L 189.639184 -116.621328 
L 191.68898 -110.820311 
L 193.738776 -103.609687 
L 195.788571 -93.486911 
L 197.838367 -84.168359 
L 199.888163 -77.818543 
L 201.937959 -72.382417 
L 203.987755 -67.372332 
L 206.037551 -63.892256 
L 208.087347 -62.042675 
L 210.137143 -59.430886 
L 212.186939 -59.917356 
L 214.236735 -58.451605 
L 216.286531 -58.759236 
L 218.336327 -58.644689 
L 220.386122 -58.183159 
L 222.435918 -57.802451 
L 224.485714 -58.058841 
L 226.53551 -56.693341 
L 228.585306 -56.160657 
L 230.635102 -55.794829 
L 232.684898 -53.758677 
L 234.734694 -53.39115 
L 236.78449 -53.188955 
L 238.834286 -53.518014 
L 240.884082 -51.784908 
L 242.933878 -51.369617 
L 244.983673 -50.707602 
L 247.033469 -50.943927 
L 249.083265 -52.147318 
L 251.133061 -53.67473 
L 253.182857 -56.046508 
L 255.232653 -55.788241 
L 257.282449 -57.303567 
L 259.332245 -59.326778 
L 261.382041 -61.765776 
L 263.431837 -61.48253 
L 265.481633 -61.599701 
L 267.531429 -63.478757 
L 269.581224 -62.843421 
L 271.63102 -63.596085 
L 273.680816 -62.985496 
L 275.730612 -64.305994 
L 277.780408 -65.395664 
L 279.830204 -64.20967 
L 281.88 -63.848118 
L 283.929796 -63.82441 
L 285.979592 -65.95135 
L 288.029388 -64.584885 
L 290.079184 -63.919864 
L 292.12898 -63.756053 
L 294.178776 -65.859675 
L 296.228571 -62.973756 
L 298.278367 -60.299797 
L 300.328163 -59.493367 
L 302.377959 -60.262253 
L 304.427755 -60.282622 
L 306.477551 -60.451217 
L 308.527347 -60.194272 
L 310.577143 -60.009742 
L 312.626939 -58.263931 
L 314.676735 -56.948856 
L 316.726531 -57.712158 
L 318.776327 -57.981288 
L 320.826122 -58.01614 
L 322.875918 -57.192077 
L 324.925714 -58.270682 
L 326.97551 -57.714518 
L 329.025306 -56.528743 
L 331.075102 -56.403702 
L 333.124898 -57.192519 
L 335.174694 -57.824993 
L 337.22449 -57.49625 
L 339.274286 -58.828149 
L 341.324082 -59.047981 
L 343.373878 -59.953295 
L 345.423673 -59.333205 
L 347.473469 -58.612251 
L 349.523265 -59.898348 
L 351.573061 -60.6765 
L 353.622857 -59.752771 
L 355.672653 -58.755017 
L 357.722449 -60.422796 
L 359.772245 -59.321172 
L 361.822041 -60.619522 
L 363.871837 -60.589938 
L 365.921633 -60.793661 
L 367.971429 -61.579332 
L 370.021224 -61.035162 
L 372.07102 -62.06912 
L 374.120816 -63.564868 
L 376.170612 -65.245854 
L 378.220408 -65.774364 
L 380.270204 -67.903666 
L 382.32 -68.346467 
L 384.369796 -68.653569 
L 386.419592 -68.970008 
L 388.469388 -70.185994 
L 390.519184 -71.722956 
L 392.56898 -71.949394 
L 394.618776 -72.021645 
L 396.668571 -71.887538 
L 398.718367 -69.981713 
L 400.768163 -67.319288 
L 402.817959 -66.156774 
L 404.867755 -64.092298 
L 406.917551 -63.362597 
L 408.967347 -62.980013 
L 411.017143 -63.621893 
L 413.066939 -63.962935 
L 415.116735 -63.143985 
L 417.166531 -63.021006 
L 419.216327 -62.288222 
L 421.266122 -64.104794 
L 423.315918 -63.977451 
L 425.365714 -63.727451 
L 427.41551 -62.115447 
L 429.465306 -63.153105 
L 431.515102 -65.76116 
L 433.564898 -70.349639 
L 435.614694 -74.568958 
L 437.66449 -79.411885 
L 439.714286 -85.950202 
L 441.764082 -92.398977 
L 443.813878 -96.56768 
L 445.863673 -100.476687 
L 447.913469 -105.291639 
L 449.963265 -106.411808 
L 452.013061 -104.240655 
L 454.062857 -99.473024 
L 456.112653 -92.592662 
L 458.162449 -86.586049 
L 460.212245 -79.612394 
L 462.262041 -71.401326 
L 464.311837 -64.53039 
L 466.361633 -59.700118 
L 468.411429 -54.100116 
L 470.461224 -51.138599 
L 472.51102 -47.852003 
L 474.560816 -49.028582 
L 476.610612 -52.713148 
L 478.660408 -54.752438 
L 480.710204 -57.187704 
L 482.76 -58.685323 
L 484.809796 -63.702609 
L 486.859592 -65.844261 
L 488.909388 -67.182648 
L 490.959184 -68.828828 
L 493.00898 -69.93553 
L 495.058776 -68.544658 
L 497.108571 -66.220426 
L 499.158367 -64.732299 
L 501.208163 -62.21105 
L 503.257959 -61.014406 
L 505.307755 -58.466386 
L 507.357551 -55.755507 
L 509.407347 -55.472705 
L 511.457143 -54.767103 
L 513.506939 -51.727662 
L 515.556735 -52.158829 
L 517.606531 -50.420814 
L 519.656327 -50.860824 
L 521.706122 -51.596989 
L 523.755918 -49.573413 
L 525.805714 -50.366925 
L 527.85551 -52.563493 
L 529.905306 -52.193353 
L 531.955102 -51.464925 
L 534.004898 -52.645018 
L 536.054694 -52.301564 
L 538.10449 -52.191976 
L 540.154286 -52.268045 
L 542.204082 -53.623494 
L 544.253878 -55.271359 
L 546.303673 -54.331452 
L 548.353469 -53.914867 
L 550.403265 -54.938153 
L 552.453061 -54.292687 
L 554.502857 -53.630737 
L 556.552653 -54.581101 
L 558.602449 -56.22346 
L 560.652245 -56.416721 
L 562.702041 -56.138957 
L 564.751837 -54.766565 
L 566.801633 -54.671625 
L 568.851429 -54.676993 
L 570.901224 -52.899313 
L 572.95102 -52.476335 
L 575.000816 -52.823805 
L 577.050612 -51.75729 
L 579.100408 -50.820917 
L 581.150204 -50.558611 
L 583.2 -49.697531 
L 583.2 -57.737933 
L 583.2 -57.737933 
L 581.150204 -58.98006 
L 579.100408 -59.477775 
L 577.050612 -60.520495 
L 575.000816 -61.680439 
L 572.95102 -61.395305 
L 570.901224 -61.572847 
L 568.851429 -63.194757 
L 566.801633 -62.927179 
L 564.751837 -62.814486 
L 562.702041 -64.035159 
L 560.652245 -64.269037 
L 558.602449 -64.031292 
L 556.552653 -62.397307 
L 554.502857 -61.440281 
L 552.453061 -62.109575 
L 550.403265 -62.96108 
L 548.353469 -62.308369 
L 546.303673 -62.855586 
L 544.253878 -64.379853 
L 542.204082 -62.512191 
L 540.154286 -61.252519 
L 538.10449 -61.419769 
L 536.054694 -61.625142 
L 534.004898 -61.863787 
L 531.955102 -60.16534 
L 529.905306 -60.396376 
L 527.85551 -60.420636 
L 525.805714 -57.923413 
L 523.755918 -56.971715 
L 521.706122 -59.051889 
L 519.656327 -58.054608 
L 517.606531 -57.853378 
L 515.556735 -59.816645 
L 513.506939 -59.504123 
L 511.457143 -62.815421 
L 509.407347 -63.512492 
L 507.357551 -64.036079 
L 505.307755 -66.761287 
L 503.257959 -69.48297 
L 501.208163 -70.863922 
L 499.158367 -73.379353 
L 497.108571 -74.941128 
L 495.058776 -77.427989 
L 493.00898 -78.774928 
L 490.959184 -77.377142 
L 488.909388 -75.837669 
L 486.859592 -74.39464 
L 484.809796 -72.281672 
L 482.76 -67.543395 
L 480.710204 -66.489919 
L 478.660408 -64.648018 
L 476.610612 -63.042907 
L 474.560816 -59.760484 
L 472.51102 -58.839525 
L 470.461224 -62.592963 
L 468.411429 -65.963929 
L 466.361633 -71.857549 
L 464.311837 -76.977596 
L 462.262041 -84.030937 
L 460.212245 -92.904245 
L 458.162449 -99.830445 
L 456.112653 -105.69481 
L 454.062857 -112.370672 
L 452.013061 -117.100179 
L 449.963265 -118.64166 
L 447.913469 -116.964488 
L 445.863673 -111.437766 
L 443.813878 -106.882447 
L 441.764082 -102.157785 
L 439.714286 -95.032562 
L 437.66449 -87.961531 
L 435.614694 -82.99401 
L 433.564898 -78.579859 
L 431.515102 -73.891077 
L 429.465306 -71.09946 
L 427.41551 -69.982782 
L 425.365714 -71.867707 
L 423.315918 -71.771255 
L 421.266122 -71.961585 
L 419.216327 -70.004134 
L 417.166531 -70.8707 
L 415.116735 -71.124812 
L 413.066939 -72.008163 
L 411.017143 -71.683337 
L 408.967347 -71.06824 
L 406.917551 -71.244046 
L 404.867755 -71.930828 
L 402.817959 -74.34662 
L 400.768163 -75.586117 
L 398.718367 -78.217169 
L 396.668571 -80.496353 
L 394.618776 -80.841653 
L 392.56898 -81.072447 
L 390.519184 -81.231823 
L 388.469388 -79.506345 
L 386.419592 -78.448105 
L 384.369796 -77.621149 
L 382.32 -77.057695 
L 380.270204 -76.372202 
L 378.220408 -73.857209 
L 376.170612 -73.283097 
L 374.120816 -71.491241 
L 372.07102 -70.100232 
L 370.021224 -68.988504 
L 367.971429 -69.747703 
L 365.921633 -68.881675 
L 363.871837 -68.885914 
L 361.822041 -68.975104 
L 359.772245 -67.815292 
L 357.722449 -69.291871 
L 355.672653 -67.219117 
L 353.622857 -68.229818 
L 351.573061 -69.606656 
L 349.523265 -68.609321 
L 347.473469 -67.332407 
L 345.423673 -68.102734 
L 343.373878 -68.377379 
L 341.324082 -67.527902 
L 339.274286 -67.360225 
L 337.22449 -65.924885 
L 335.174694 -66.036396 
L 333.124898 -65.160436 
L 331.075102 -64.456749 
L 329.025306 -64.255147 
L 326.97551 -65.474958 
L 324.925714 -65.917875 
L 322.875918 -64.900289 
L 320.826122 -65.705411 
L 318.776327 -65.804027 
L 316.726531 -65.688723 
L 314.676735 -64.975394 
L 312.626939 -66.291469 
L 310.577143 -67.808497 
L 308.527347 -68.141838 
L 306.477551 -68.338628 
L 304.427755 -68.106632 
L 302.377959 -68.107908 
L 300.328163 -67.067722 
L 298.278367 -68.061397 
L 296.228571 -70.727678 
L 294.178776 -73.770331 
L 292.12898 -71.997843 
L 290.079184 -72.217198 
L 288.029388 -72.920802 
L 285.979592 -74.057317 
L 283.929796 -72.087206 
L 281.88 -72.20138 
L 279.830204 -72.222774 
L 277.780408 -73.647539 
L 275.730612 -72.446801 
L 273.680816 -71.097524 
L 271.63102 -72.014632 
L 269.581224 -71.373779 
L 267.531429 -72.207344 
L 265.481633 -70.384184 
L 263.431837 -70.289187 
L 261.382041 -70.769007 
L 259.332245 -68.309088 
L 257.282449 -66.135268 
L 255.232653 -64.348084 
L 253.182857 -64.684465 
L 251.133061 -62.056343 
L 249.083265 -60.465036 
L 247.033469 -59.125876 
L 244.983673 -59.101626 
L 242.933878 -59.915231 
L 240.884082 -60.672236 
L 238.834286 -62.44244 
L 236.78449 -62.392326 
L 234.734694 -62.587485 
L 232.684898 -62.800342 
L 230.635102 -64.7614 
L 228.585306 -65.022855 
L 226.53551 -65.639585 
L 224.485714 -67.403495 
L 222.435918 -66.843997 
L 220.386122 -67.260319 
L 218.336327 -67.925555 
L 216.286531 -68.095254 
L 214.236735 -67.787883 
L 212.186939 -69.222273 
L 210.137143 -68.903761 
L 208.087347 -71.748006 
L 206.037551 -73.354801 
L 203.987755 -76.649086 
L 201.937959 -81.436874 
L 199.888163 -87.430554 
L 197.838367 -94.326316 
L 195.788571 -105.42988 
L 193.738776 -117.274942 
L 191.68898 -125.395088 
L 189.639184 -131.941411 
L 187.589388 -134.55143 
L 185.539592 -134.46868 
L 183.489796 -131.903139 
L 181.44 -124.086195 
L 179.390204 -115.416349 
L 177.340408 -104.622264 
L 175.290612 -90.591259 
L 173.240816 -75.610888 
L 171.19102 -63.24364 
L 169.141224 -54.463315 
L 167.091429 -45.445436 
L 165.041633 -38.052385 
L 162.991837 -34.548768 
L 160.942041 -34.451594 
L 158.892245 -34.39161 
L 156.842449 -39.84817 
L 154.792653 -50.20156 
L 152.742857 -63.423824 
L 150.693061 -85.72094 
L 148.643265 -116.719493 
L 146.593469 -147.278998 
L 144.543673 -169.887792 
L 142.493878 -186.16943 
L 140.444082 -189.260858 
L 138.394286 -190.08 
L 136.34449 -185.933966 
L 134.294694 -179.384658 
L 132.244898 -169.53046 
L 130.195102 -150.118636 
L 128.145306 -122.837516 
L 126.09551 -95.772857 
L 124.045714 -77.165048 
L 121.995918 -65.931277 
L 119.946122 -62.041041 
L 117.896327 -61.061141 
L 115.846531 -60.37497 
L 113.796735 -60.942348 
L 111.746939 -61.674562 
L 109.697143 -60.369937 
L 107.647347 -61.14204 
L 105.597551 -59.958807 
L 103.547755 -57.970313 
L 101.497959 -58.814899 
L 99.448163 -58.785381 
L 97.398367 -58.883563 
L 95.348571 -59.125388 
L 93.298776 -59.025668 
L 91.24898 -59.236119 
L 89.199184 -59.223475 
L 87.149388 -58.292451 
L 85.099592 -57.945491 
L 83.049796 -57.352294 
L 81 -56.381987 
z
" id="m4616466fa0" style="stroke:#0000ff;stroke-opacity:0.3;"/>
    </defs>
    <g clip-path="url(#paea13851c9)">
     <use style="fill:#0000ff;fill-opacity:0.3;stroke:#0000ff;stroke-opacity:0.3;" x="0" xlink:href="#m4616466fa0" y="216"/>
    </g>
   </g>
   <g id="PolyCollection_2">
    <defs>
     <path d="M 128.042816 -23.76 
L 128.042816 -190.08 
L 435.512204 -190.08 
L 435.512204 -23.76 
L 435.512204 -23.76 
L 128.042816 -23.76 
z
" id="med3db3e976" style="stroke:#808080;stroke-opacity:0.3;"/>
    </defs>
    <g clip-path="url(#paea13851c9)">
     <use style="fill:#808080;fill-opacity:0.3;stroke:#808080;stroke-opacity:0.3;" x="0" xlink:href="#med3db3e976" y="216"/>
    </g>
   </g>
   <g id="matplotlib.axis_1">
    <g id="xtick_1">
     <g id="line2d_1">
      <defs>
       <path d="M 0 0 
L 0 3.5 
" id="mec98881a21" style="stroke:#000000;stroke-width:0.8;"/>
      </defs>
      <g>
       <use style="stroke:#000000;stroke-width:0.8;" x="81" xlink:href="#mec98881a21" y="192.24"/>
      </g>
     </g>
     <g id="text_1">
      <!-- 0.0 -->
      <defs>
       <path d="M 31.78125 66.40625 
Q 24.171875 66.40625 20.328125 58.90625 
Q 16.5 51.421875 16.5 36.375 
Q 16.5 21.390625 20.328125 13.890625 
Q 24.171875 6.390625 31.78125 6.390625 
Q 39.453125 6.390625 43.28125 13.890625 
Q 47.125 21.390625 47.125 36.375 
Q 47.125 51.421875 43.28125 58.90625 
Q 39.453125 66.40625 31.78125 66.40625 
z
M 31.78125 74.21875 
Q 44.046875 74.21875 50.515625 64.515625 
Q 56.984375 54.828125 56.984375 36.375 
Q 56.984375 17.96875 50.515625 8.265625 
Q 44.046875 -1.421875 31.78125 -1.421875 
Q 19.53125 -1.421875 13.0625 8.265625 
Q 6.59375 17.96875 6.59375 36.375 
Q 6.59375 54.828125 13.0625 64.515625 
Q 19.53125 74.21875 31.78125 74.21875 
z
" id="DejaVuSans-48"/>
       <path d="M 10.6875 12.40625 
L 21 12.40625 
L 21 0 
L 10.6875 0 
z
" id="DejaVuSans-46"/>
      </defs>
      <g transform="translate(71.458125 208.358125)scale(0.12 -0.12)">
       <use xlink:href="#DejaVuSans-48"/>
       <use x="63.623047" xlink:href="#DejaVuSans-46"/>
       <use x="95.410156" xlink:href="#DejaVuSans-48"/>
      </g>
     </g>
    </g>
    <g id="xtick_2">
     <g id="line2d_2">
      <g>
       <use style="stroke:#000000;stroke-width:0.8;" x="183.489796" xlink:href="#mec98881a21" y="192.24"/>
      </g>
     </g>
     <g id="text_2">
      <!-- 0.5 -->
      <defs>
       <path d="M 10.796875 72.90625 
L 49.515625 72.90625 
L 49.515625 64.59375 
L 19.828125 64.59375 
L 19.828125 46.734375 
Q 21.96875 47.46875 24.109375 47.828125 
Q 26.265625 48.1875 28.421875 48.1875 
Q 40.625 48.1875 47.75 41.5 
Q 54.890625 34.8125 54.890625 23.390625 
Q 54.890625 11.625 47.5625 5.09375 
Q 40.234375 -1.421875 26.90625 -1.421875 
Q 22.3125 -1.421875 17.546875 -0.640625 
Q 12.796875 0.140625 7.71875 1.703125 
L 7.71875 11.625 
Q 12.109375 9.234375 16.796875 8.0625 
Q 21.484375 6.890625 26.703125 6.890625 
Q 35.15625 6.890625 40.078125 11.328125 
Q 45.015625 15.765625 45.015625 23.390625 
Q 45.015625 31 40.078125 35.4375 
Q 35.15625 39.890625 26.703125 39.890625 
Q 22.75 39.890625 18.8125 39.015625 
Q 14.890625 38.140625 10.796875 36.28125 
z
" id="DejaVuSans-53"/>
      </defs>
      <g transform="translate(173.947921 208.358125)scale(0.12 -0.12)">
       <use xlink:href="#DejaVuSans-48"/>
       <use x="63.623047" xlink:href="#DejaVuSans-46"/>
       <use x="95.410156" xlink:href="#DejaVuSans-53"/>
      </g>
     </g>
    </g>
    <g id="xtick_3">
     <g id="line2d_3">
      <g>
       <use style="stroke:#000000;stroke-width:0.8;" x="285.979592" xlink:href="#mec98881a21" y="192.24"/>
      </g>
     </g>
     <g id="text_3">
      <!-- 1.0 -->
      <defs>
       <path d="M 12.40625 8.296875 
L 28.515625 8.296875 
L 28.515625 63.921875 
L 10.984375 60.40625 
L 10.984375 69.390625 
L 28.421875 72.90625 
L 38.28125 72.90625 
L 38.28125 8.296875 
L 54.390625 8.296875 
L 54.390625 0 
L 12.40625 0 
z
" id="DejaVuSans-49"/>
      </defs>
      <g transform="translate(276.437717 208.358125)scale(0.12 -0.12)">
       <use xlink:href="#DejaVuSans-49"/>
       <use x="63.623047" xlink:href="#DejaVuSans-46"/>
       <use x="95.410156" xlink:href="#DejaVuSans-48"/>
      </g>
     </g>
    </g>
    <g id="xtick_4">
     <g id="line2d_4">
      <g>
       <use style="stroke:#000000;stroke-width:0.8;" x="388.469388" xlink:href="#mec98881a21" y="192.24"/>
      </g>
     </g>
     <g id="text_4">
      <!-- 1.5 -->
      <g transform="translate(378.927513 208.358125)scale(0.12 -0.12)">
       <use xlink:href="#DejaVuSans-49"/>
       <use x="63.623047" xlink:href="#DejaVuSans-46"/>
       <use x="95.410156" xlink:href="#DejaVuSans-53"/>
      </g>
     </g>
    </g>
    <g id="xtick_5">
     <g id="line2d_5">
      <g>
       <use style="stroke:#000000;stroke-width:0.8;" x="490.959184" xlink:href="#mec98881a21" y="192.24"/>
      </g>
     </g>
     <g id="text_5">
      <!-- 2.0 -->
      <defs>
       <path d="M 19.1875 8.296875 
L 53.609375 8.296875 
L 53.609375 0 
L 7.328125 0 
L 7.328125 8.296875 
Q 12.9375 14.109375 22.625 23.890625 
Q 32.328125 33.6875 34.8125 36.53125 
Q 39.546875 41.84375 41.421875 45.53125 
Q 43.3125 49.21875 43.3125 52.78125 
Q 43.3125 58.59375 39.234375 62.25 
Q 35.15625 65.921875 28.609375 65.921875 
Q 23.96875 65.921875 18.8125 64.3125 
Q 13.671875 62.703125 7.8125 59.421875 
L 7.8125 69.390625 
Q 13.765625 71.78125 18.9375 73 
Q 24.125 74.21875 28.421875 74.21875 
Q 39.75 74.21875 46.484375 68.546875 
Q 53.21875 62.890625 53.21875 53.421875 
Q 53.21875 48.921875 51.53125 44.890625 
Q 49.859375 40.875 45.40625 35.40625 
Q 44.1875 33.984375 37.640625 27.21875 
Q 31.109375 20.453125 19.1875 8.296875 
z
" id="DejaVuSans-50"/>
      </defs>
      <g transform="translate(481.417309 208.358125)scale(0.12 -0.12)">
       <use xlink:href="#DejaVuSans-50"/>
       <use x="63.623047" xlink:href="#DejaVuSans-46"/>
       <use x="95.410156" xlink:href="#DejaVuSans-48"/>
      </g>
     </g>
    </g>
    <g id="text_6">
     <!-- Time (s) -->
     <defs>
      <path d="M -0.296875 72.90625 
L 61.375 72.90625 
L 61.375 64.59375 
L 35.5 64.59375 
L 35.5 0 
L 25.59375 0 
L 25.59375 64.59375 
L -0.296875 64.59375 
z
" id="DejaVuSans-84"/>
      <path d="M 9.421875 54.6875 
L 18.40625 54.6875 
L 18.40625 0 
L 9.421875 0 
z
M 9.421875 75.984375 
L 18.40625 75.984375 
L 18.40625 64.59375 
L 9.421875 64.59375 
z
" id="DejaVuSans-105"/>
      <path d="M 52 44.1875 
Q 55.375 50.25 60.0625 53.125 
Q 64.75 56 71.09375 56 
Q 79.640625 56 84.28125 50.015625 
Q 88.921875 44.046875 88.921875 33.015625 
L 88.921875 0 
L 79.890625 0 
L 79.890625 32.71875 
Q 79.890625 40.578125 77.09375 44.375 
Q 74.3125 48.1875 68.609375 48.1875 
Q 61.625 48.1875 57.5625 43.546875 
Q 53.515625 38.921875 53.515625 30.90625 
L 53.515625 0 
L 44.484375 0 
L 44.484375 32.71875 
Q 44.484375 40.625 41.703125 44.40625 
Q 38.921875 48.1875 33.109375 48.1875 
Q 26.21875 48.1875 22.15625 43.53125 
Q 18.109375 38.875 18.109375 30.90625 
L 18.109375 0 
L 9.078125 0 
L 9.078125 54.6875 
L 18.109375 54.6875 
L 18.109375 46.1875 
Q 21.1875 51.21875 25.484375 53.609375 
Q 29.78125 56 35.6875 56 
Q 41.65625 56 45.828125 52.96875 
Q 50 49.953125 52 44.1875 
z
" id="DejaVuSans-109"/>
      <path d="M 56.203125 29.59375 
L 56.203125 25.203125 
L 14.890625 25.203125 
Q 15.484375 15.921875 20.484375 11.0625 
Q 25.484375 6.203125 34.421875 6.203125 
Q 39.59375 6.203125 44.453125 7.46875 
Q 49.3125 8.734375 54.109375 11.28125 
L 54.109375 2.78125 
Q 49.265625 0.734375 44.1875 -0.34375 
Q 39.109375 -1.421875 33.890625 -1.421875 
Q 20.796875 -1.421875 13.15625 6.1875 
Q 5.515625 13.8125 5.515625 26.8125 
Q 5.515625 40.234375 12.765625 48.109375 
Q 20.015625 56 32.328125 56 
Q 43.359375 56 49.78125 48.890625 
Q 56.203125 41.796875 56.203125 29.59375 
z
M 47.21875 32.234375 
Q 47.125 39.59375 43.09375 43.984375 
Q 39.0625 48.390625 32.421875 48.390625 
Q 24.90625 48.390625 20.390625 44.140625 
Q 15.875 39.890625 15.1875 32.171875 
z
" id="DejaVuSans-101"/>
      <path id="DejaVuSans-32"/>
      <path d="M 31 75.875 
Q 24.46875 64.65625 21.28125 53.65625 
Q 18.109375 42.671875 18.109375 31.390625 
Q 18.109375 20.125 21.3125 9.0625 
Q 24.515625 -2 31 -13.1875 
L 23.1875 -13.1875 
Q 15.875 -1.703125 12.234375 9.375 
Q 8.59375 20.453125 8.59375 31.390625 
Q 8.59375 42.28125 12.203125 53.3125 
Q 15.828125 64.359375 23.1875 75.875 
z
" id="DejaVuSans-40"/>
      <path d="M 44.28125 53.078125 
L 44.28125 44.578125 
Q 40.484375 46.53125 36.375 47.5 
Q 32.28125 48.484375 27.875 48.484375 
Q 21.1875 48.484375 17.84375 46.4375 
Q 14.5 44.390625 14.5 40.28125 
Q 14.5 37.15625 16.890625 35.375 
Q 19.28125 33.59375 26.515625 31.984375 
L 29.59375 31.296875 
Q 39.15625 29.25 43.1875 25.515625 
Q 47.21875 21.78125 47.21875 15.09375 
Q 47.21875 7.46875 41.1875 3.015625 
Q 35.15625 -1.421875 24.609375 -1.421875 
Q 20.21875 -1.421875 15.453125 -0.5625 
Q 10.6875 0.296875 5.421875 2 
L 5.421875 11.28125 
Q 10.40625 8.6875 15.234375 7.390625 
Q 20.0625 6.109375 24.8125 6.109375 
Q 31.15625 6.109375 34.5625 8.28125 
Q 37.984375 10.453125 37.984375 14.40625 
Q 37.984375 18.0625 35.515625 20.015625 
Q 33.0625 21.96875 24.703125 23.78125 
L 21.578125 24.515625 
Q 13.234375 26.265625 9.515625 29.90625 
Q 5.8125 33.546875 5.8125 39.890625 
Q 5.8125 47.609375 11.28125 51.796875 
Q 16.75 56 26.8125 56 
Q 31.78125 56 36.171875 55.265625 
Q 40.578125 54.546875 44.28125 53.078125 
z
" id="DejaVuSans-115"/>
      <path d="M 8.015625 75.875 
L 15.828125 75.875 
Q 23.140625 64.359375 26.78125 53.3125 
Q 30.421875 42.28125 30.421875 31.390625 
Q 30.421875 20.453125 26.78125 9.375 
Q 23.140625 -1.703125 15.828125 -13.1875 
L 8.015625 -13.1875 
Q 14.5 -2 17.703125 9.0625 
Q 20.90625 20.125 20.90625 31.390625 
Q 20.90625 42.671875 17.703125 53.65625 
Q 14.5 64.65625 8.015625 75.875 
z
" id="DejaVuSans-41"/>
     </defs>
     <g transform="translate(302.60475 225.7955)scale(0.144 -0.144)">
      <use xlink:href="#DejaVuSans-84"/>
      <use x="61.037109" xlink:href="#DejaVuSans-105"/>
      <use x="88.820312" xlink:href="#DejaVuSans-109"/>
      <use x="186.232422" xlink:href="#DejaVuSans-101"/>
      <use x="247.755859" xlink:href="#DejaVuSans-32"/>
      <use x="279.542969" xlink:href="#DejaVuSans-40"/>
      <use x="318.556641" xlink:href="#DejaVuSans-115"/>
      <use x="370.65625" xlink:href="#DejaVuSans-41"/>
     </g>
    </g>
   </g>
   <g id="matplotlib.axis_2">
    <g id="ytick_1">
     <g id="line2d_6">
      <defs>
       <path d="M 0 0 
L -3.5 0 
" id="m02adb59370" style="stroke:#000000;stroke-width:0.8;"/>
      </defs>
      <g>
       <use style="stroke:#000000;stroke-width:0.8;" x="81" xlink:href="#m02adb59370" y="171.214063"/>
      </g>
     </g>
     <g id="text_7">
      <!-- 0.0020 -->
      <g transform="translate(32.01125 175.773126)scale(0.12 -0.12)">
       <use xlink:href="#DejaVuSans-48"/>
       <use x="63.623047" xlink:href="#DejaVuSans-46"/>
       <use x="95.410156" xlink:href="#DejaVuSans-48"/>
       <use x="159.033203" xlink:href="#DejaVuSans-48"/>
       <use x="222.65625" xlink:href="#DejaVuSans-50"/>
       <use x="286.279297" xlink:href="#DejaVuSans-48"/>
      </g>
     </g>
    </g>
    <g id="ytick_2">
     <g id="line2d_7">
      <g>
       <use style="stroke:#000000;stroke-width:0.8;" x="81" xlink:href="#m02adb59370" y="146.619806"/>
      </g>
     </g>
     <g id="text_8">
      <!-- 0.0025 -->
      <g transform="translate(32.01125 151.178869)scale(0.12 -0.12)">
       <use xlink:href="#DejaVuSans-48"/>
       <use x="63.623047" xlink:href="#DejaVuSans-46"/>
       <use x="95.410156" xlink:href="#DejaVuSans-48"/>
       <use x="159.033203" xlink:href="#DejaVuSans-48"/>
       <use x="222.65625" xlink:href="#DejaVuSans-50"/>
       <use x="286.279297" xlink:href="#DejaVuSans-53"/>
      </g>
     </g>
    </g>
    <g id="ytick_3">
     <g id="line2d_8">
      <g>
       <use style="stroke:#000000;stroke-width:0.8;" x="81" xlink:href="#m02adb59370" y="122.02555"/>
      </g>
     </g>
     <g id="text_9">
      <!-- 0.0030 -->
      <defs>
       <path d="M 40.578125 39.3125 
Q 47.65625 37.796875 51.625 33 
Q 55.609375 28.21875 55.609375 21.1875 
Q 55.609375 10.40625 48.1875 4.484375 
Q 40.765625 -1.421875 27.09375 -1.421875 
Q 22.515625 -1.421875 17.65625 -0.515625 
Q 12.796875 0.390625 7.625 2.203125 
L 7.625 11.71875 
Q 11.71875 9.328125 16.59375 8.109375 
Q 21.484375 6.890625 26.8125 6.890625 
Q 36.078125 6.890625 40.9375 10.546875 
Q 45.796875 14.203125 45.796875 21.1875 
Q 45.796875 27.640625 41.28125 31.265625 
Q 36.765625 34.90625 28.71875 34.90625 
L 20.21875 34.90625 
L 20.21875 43.015625 
L 29.109375 43.015625 
Q 36.375 43.015625 40.234375 45.921875 
Q 44.09375 48.828125 44.09375 54.296875 
Q 44.09375 59.90625 40.109375 62.90625 
Q 36.140625 65.921875 28.71875 65.921875 
Q 24.65625 65.921875 20.015625 65.03125 
Q 15.375 64.15625 9.8125 62.3125 
L 9.8125 71.09375 
Q 15.4375 72.65625 20.34375 73.4375 
Q 25.25 74.21875 29.59375 74.21875 
Q 40.828125 74.21875 47.359375 69.109375 
Q 53.90625 64.015625 53.90625 55.328125 
Q 53.90625 49.265625 50.4375 45.09375 
Q 46.96875 40.921875 40.578125 39.3125 
z
" id="DejaVuSans-51"/>
      </defs>
      <g transform="translate(32.01125 126.584612)scale(0.12 -0.12)">
       <use xlink:href="#DejaVuSans-48"/>
       <use x="63.623047" xlink:href="#DejaVuSans-46"/>
       <use x="95.410156" xlink:href="#DejaVuSans-48"/>
       <use x="159.033203" xlink:href="#DejaVuSans-48"/>
       <use x="222.65625" xlink:href="#DejaVuSans-51"/>
       <use x="286.279297" xlink:href="#DejaVuSans-48"/>
      </g>
     </g>
    </g>
    <g id="ytick_4">
     <g id="line2d_9">
      <g>
       <use style="stroke:#000000;stroke-width:0.8;" x="81" xlink:href="#m02adb59370" y="97.431293"/>
      </g>
     </g>
     <g id="text_10">
      <!-- 0.0035 -->
      <g transform="translate(32.01125 101.990355)scale(0.12 -0.12)">
       <use xlink:href="#DejaVuSans-48"/>
       <use x="63.623047" xlink:href="#DejaVuSans-46"/>
       <use x="95.410156" xlink:href="#DejaVuSans-48"/>
       <use x="159.033203" xlink:href="#DejaVuSans-48"/>
       <use x="222.65625" xlink:href="#DejaVuSans-51"/>
       <use x="286.279297" xlink:href="#DejaVuSans-53"/>
      </g>
     </g>
    </g>
    <g id="ytick_5">
     <g id="line2d_10">
      <g>
       <use style="stroke:#000000;stroke-width:0.8;" x="81" xlink:href="#m02adb59370" y="72.837036"/>
      </g>
     </g>
     <g id="text_11">
      <!-- 0.0040 -->
      <defs>
       <path d="M 37.796875 64.3125 
L 12.890625 25.390625 
L 37.796875 25.390625 
z
M 35.203125 72.90625 
L 47.609375 72.90625 
L 47.609375 25.390625 
L 58.015625 25.390625 
L 58.015625 17.1875 
L 47.609375 17.1875 
L 47.609375 0 
L 37.796875 0 
L 37.796875 17.1875 
L 4.890625 17.1875 
L 4.890625 26.703125 
z
" id="DejaVuSans-52"/>
      </defs>
      <g transform="translate(32.01125 77.396099)scale(0.12 -0.12)">
       <use xlink:href="#DejaVuSans-48"/>
       <use x="63.623047" xlink:href="#DejaVuSans-46"/>
       <use x="95.410156" xlink:href="#DejaVuSans-48"/>
       <use x="159.033203" xlink:href="#DejaVuSans-48"/>
       <use x="222.65625" xlink:href="#DejaVuSans-52"/>
       <use x="286.279297" xlink:href="#DejaVuSans-48"/>
      </g>
     </g>
    </g>
    <g id="ytick_6">
     <g id="line2d_11">
      <g>
       <use style="stroke:#000000;stroke-width:0.8;" x="81" xlink:href="#m02adb59370" y="48.242779"/>
      </g>
     </g>
     <g id="text_12">
      <!-- 0.0045 -->
      <g transform="translate(32.01125 52.801842)scale(0.12 -0.12)">
       <use xlink:href="#DejaVuSans-48"/>
       <use x="63.623047" xlink:href="#DejaVuSans-46"/>
       <use x="95.410156" xlink:href="#DejaVuSans-48"/>
       <use x="159.033203" xlink:href="#DejaVuSans-48"/>
       <use x="222.65625" xlink:href="#DejaVuSans-52"/>
       <use x="286.279297" xlink:href="#DejaVuSans-53"/>
      </g>
     </g>
    </g>
    <g id="text_13">
     <!-- Beta-bin $\pi$ -->
     <defs>
      <path d="M 19.671875 34.8125 
L 19.671875 8.109375 
L 35.5 8.109375 
Q 43.453125 8.109375 47.28125 11.40625 
Q 51.125 14.703125 51.125 21.484375 
Q 51.125 28.328125 47.28125 31.5625 
Q 43.453125 34.8125 35.5 34.8125 
z
M 19.671875 64.796875 
L 19.671875 42.828125 
L 34.28125 42.828125 
Q 41.5 42.828125 45.03125 45.53125 
Q 48.578125 48.25 48.578125 53.8125 
Q 48.578125 59.328125 45.03125 62.0625 
Q 41.5 64.796875 34.28125 64.796875 
z
M 9.8125 72.90625 
L 35.015625 72.90625 
Q 46.296875 72.90625 52.390625 68.21875 
Q 58.5 63.53125 58.5 54.890625 
Q 58.5 48.1875 55.375 44.234375 
Q 52.25 40.28125 46.1875 39.3125 
Q 53.46875 37.75 57.5 32.78125 
Q 61.53125 27.828125 61.53125 20.40625 
Q 61.53125 10.640625 54.890625 5.3125 
Q 48.25 0 35.984375 0 
L 9.8125 0 
z
" id="DejaVuSans-66"/>
      <path d="M 18.3125 70.21875 
L 18.3125 54.6875 
L 36.8125 54.6875 
L 36.8125 47.703125 
L 18.3125 47.703125 
L 18.3125 18.015625 
Q 18.3125 11.328125 20.140625 9.421875 
Q 21.96875 7.515625 27.59375 7.515625 
L 36.8125 7.515625 
L 36.8125 0 
L 27.59375 0 
Q 17.1875 0 13.234375 3.875 
Q 9.28125 7.765625 9.28125 18.015625 
L 9.28125 47.703125 
L 2.6875 47.703125 
L 2.6875 54.6875 
L 9.28125 54.6875 
L 9.28125 70.21875 
z
" id="DejaVuSans-116"/>
      <path d="M 34.28125 27.484375 
Q 23.390625 27.484375 19.1875 25 
Q 14.984375 22.515625 14.984375 16.5 
Q 14.984375 11.71875 18.140625 8.90625 
Q 21.296875 6.109375 26.703125 6.109375 
Q 34.1875 6.109375 38.703125 11.40625 
Q 43.21875 16.703125 43.21875 25.484375 
L 43.21875 27.484375 
z
M 52.203125 31.203125 
L 52.203125 0 
L 43.21875 0 
L 43.21875 8.296875 
Q 40.140625 3.328125 35.546875 0.953125 
Q 30.953125 -1.421875 24.3125 -1.421875 
Q 15.921875 -1.421875 10.953125 3.296875 
Q 6 8.015625 6 15.921875 
Q 6 25.140625 12.171875 29.828125 
Q 18.359375 34.515625 30.609375 34.515625 
L 43.21875 34.515625 
L 43.21875 35.40625 
Q 43.21875 41.609375 39.140625 45 
Q 35.0625 48.390625 27.6875 48.390625 
Q 23 48.390625 18.546875 47.265625 
Q 14.109375 46.140625 10.015625 43.890625 
L 10.015625 52.203125 
Q 14.9375 54.109375 19.578125 55.046875 
Q 24.21875 56 28.609375 56 
Q 40.484375 56 46.34375 49.84375 
Q 52.203125 43.703125 52.203125 31.203125 
z
" id="DejaVuSans-97"/>
      <path d="M 4.890625 31.390625 
L 31.203125 31.390625 
L 31.203125 23.390625 
L 4.890625 23.390625 
z
" id="DejaVuSans-45"/>
      <path d="M 48.6875 27.296875 
Q 48.6875 37.203125 44.609375 42.84375 
Q 40.53125 48.484375 33.40625 48.484375 
Q 26.265625 48.484375 22.1875 42.84375 
Q 18.109375 37.203125 18.109375 27.296875 
Q 18.109375 17.390625 22.1875 11.75 
Q 26.265625 6.109375 33.40625 6.109375 
Q 40.53125 6.109375 44.609375 11.75 
Q 48.6875 17.390625 48.6875 27.296875 
z
M 18.109375 46.390625 
Q 20.953125 51.265625 25.265625 53.625 
Q 29.59375 56 35.59375 56 
Q 45.5625 56 51.78125 48.09375 
Q 58.015625 40.1875 58.015625 27.296875 
Q 58.015625 14.40625 51.78125 6.484375 
Q 45.5625 -1.421875 35.59375 -1.421875 
Q 29.59375 -1.421875 25.265625 0.953125 
Q 20.953125 3.328125 18.109375 8.203125 
L 18.109375 0 
L 9.078125 0 
L 9.078125 75.984375 
L 18.109375 75.984375 
z
" id="DejaVuSans-98"/>
      <path d="M 54.890625 33.015625 
L 54.890625 0 
L 45.90625 0 
L 45.90625 32.71875 
Q 45.90625 40.484375 42.875 44.328125 
Q 39.84375 48.1875 33.796875 48.1875 
Q 26.515625 48.1875 22.3125 43.546875 
Q 18.109375 38.921875 18.109375 30.90625 
L 18.109375 0 
L 9.078125 0 
L 9.078125 54.6875 
L 18.109375 54.6875 
L 18.109375 46.1875 
Q 21.34375 51.125 25.703125 53.5625 
Q 30.078125 56 35.796875 56 
Q 45.21875 56 50.046875 50.171875 
Q 54.890625 44.34375 54.890625 33.015625 
z
" id="DejaVuSans-110"/>
      <path d="M 9.125 54.6875 
L 61.53125 54.6875 
L 59.765625 45.703125 
L 52.875 45.703125 
L 46.34375 12.109375 
Q 45.65625 8.59375 46.578125 7.03125 
Q 47.46875 5.515625 50.140625 5.515625 
Q 50.875 5.515625 51.953125 5.671875 
Q 53.078125 5.765625 53.421875 5.8125 
L 52.15625 -0.6875 
Q 50.34375 -1.3125 48.484375 -1.609375 
Q 46.578125 -1.90625 44.78125 -1.90625 
Q 38.921875 -1.90625 37.3125 1.265625 
Q 35.6875 4.5 37.359375 13.09375 
L 43.703125 45.703125 
L 23.53125 45.703125 
L 14.65625 0 
L 5.46875 0 
L 14.359375 45.703125 
L 7.375 45.703125 
z
" id="DejaVuSans-Oblique-960"/>
     </defs>
     <g transform="translate(25.0165 146.088)rotate(-90)scale(0.144 -0.144)">
      <use transform="translate(0 0.015625)" xlink:href="#DejaVuSans-66"/>
      <use transform="translate(68.603516 0.015625)" xlink:href="#DejaVuSans-101"/>
      <use transform="translate(130.126953 0.015625)" xlink:href="#DejaVuSans-116"/>
      <use transform="translate(169.335938 0.015625)" xlink:href="#DejaVuSans-97"/>
      <use transform="translate(230.615234 0.015625)" xlink:href="#DejaVuSans-45"/>
      <use transform="translate(266.699219 0.015625)" xlink:href="#DejaVuSans-98"/>
      <use transform="translate(330.175781 0.015625)" xlink:href="#DejaVuSans-105"/>
      <use transform="translate(357.958984 0.015625)" xlink:href="#DejaVuSans-110"/>
      <use transform="translate(421.337891 0.015625)" xlink:href="#DejaVuSans-32"/>
      <use transform="translate(453.125 0.015625)" xlink:href="#DejaVuSans-Oblique-960"/>
     </g>
    </g>
   </g>
   <g id="line2d_12">
    <path clip-path="url(#paea13851c9)" d="M 81 163.250529 
L 83.049796 162.251147 
L 85.099592 161.687147 
L 87.149388 161.332844 
L 89.199184 160.332171 
L 91.24898 160.165647 
L 93.298776 160.385933 
L 95.348571 160.312428 
L 99.448163 160.793635 
L 101.497959 160.802362 
L 103.547755 161.734093 
L 105.597551 160.058216 
L 107.647347 159.043918 
L 109.697143 159.941325 
L 111.746939 158.744154 
L 113.796735 159.571265 
L 115.846531 160.185258 
L 117.896327 159.511944 
L 119.946122 158.550277 
L 121.995918 154.594884 
L 124.045714 143.149489 
L 126.09551 124.300813 
L 130.195102 69.744319 
L 132.244898 50.338186 
L 134.294694 40.62569 
L 136.34449 34.29521 
L 138.394286 30.437135 
L 140.444082 31.518096 
L 142.493878 35.103313 
L 144.543673 51.680433 
L 146.593469 74.106477 
L 150.693061 135.735413 
L 152.742857 157.916157 
L 154.792653 171.245204 
L 156.842449 181.388859 
L 158.892245 186.781325 
L 162.991837 186.845616 
L 165.041633 183.268773 
L 167.091429 175.885355 
L 171.19102 157.916919 
L 173.240816 145.627855 
L 175.290612 130.617169 
L 177.340408 116.844877 
L 179.390204 106.515253 
L 181.44 98.325095 
L 183.489796 91.089833 
L 185.539592 89.050246 
L 187.589388 89.150039 
L 189.639184 91.71863 
L 191.68898 97.892301 
L 193.738776 105.557686 
L 195.788571 116.541605 
L 197.838367 126.752662 
L 199.888163 133.375452 
L 201.937959 139.090355 
L 203.987755 143.989291 
L 206.037551 147.376471 
L 208.087347 149.10466 
L 210.137143 151.832677 
L 212.186939 151.430186 
L 214.236735 152.880256 
L 216.286531 152.572755 
L 218.336327 152.714878 
L 220.386122 153.278261 
L 222.435918 153.676776 
L 224.485714 153.268832 
L 226.53551 154.833537 
L 228.585306 155.408244 
L 230.635102 155.721886 
L 232.684898 157.72049 
L 236.78449 158.209359 
L 238.834286 158.019773 
L 240.884082 159.771428 
L 242.933878 160.357576 
L 244.983673 161.095386 
L 247.033469 160.965098 
L 249.083265 159.693823 
L 251.133061 158.134463 
L 253.182857 155.634513 
L 255.232653 155.931837 
L 257.282449 154.280583 
L 259.332245 152.182067 
L 261.382041 149.732609 
L 263.431837 150.114141 
L 265.481633 150.008057 
L 267.531429 148.156949 
L 269.581224 148.8914 
L 271.63102 148.194641 
L 273.680816 148.95849 
L 275.730612 147.623603 
L 277.780408 146.478398 
L 279.830204 147.783778 
L 281.88 147.975251 
L 283.929796 148.044192 
L 285.979592 145.995667 
L 288.029388 147.247157 
L 290.079184 147.931469 
L 292.12898 148.123052 
L 294.178776 146.184997 
L 296.228571 149.149283 
L 298.278367 151.819403 
L 300.328163 152.719456 
L 302.377959 151.81492 
L 304.427755 151.805373 
L 306.477551 151.605078 
L 310.577143 152.09088 
L 312.626939 153.7223 
L 314.676735 155.037875 
L 316.726531 154.299559 
L 318.776327 154.107343 
L 320.826122 154.139224 
L 322.875918 154.953817 
L 324.925714 153.905721 
L 326.97551 154.405262 
L 329.025306 155.608055 
L 331.075102 155.569775 
L 335.174694 154.069306 
L 337.22449 154.289432 
L 339.274286 152.905813 
L 341.324082 152.712058 
L 343.373878 151.834663 
L 345.423673 152.28203 
L 347.473469 153.027671 
L 349.523265 151.746166 
L 351.573061 150.858422 
L 353.622857 152.008706 
L 355.672653 153.012933 
L 357.722449 151.142667 
L 359.772245 152.431768 
L 361.822041 151.202687 
L 363.871837 151.262074 
L 365.921633 151.162332 
L 367.971429 150.336483 
L 370.021224 150.988167 
L 372.07102 149.915324 
L 374.120816 148.471946 
L 376.170612 146.735524 
L 378.220408 146.184213 
L 380.270204 143.862066 
L 382.32 143.297919 
L 384.369796 142.862641 
L 386.419592 142.290944 
L 388.469388 141.15383 
L 390.519184 139.522611 
L 392.56898 139.48908 
L 394.618776 139.568351 
L 396.668571 139.808055 
L 398.718367 141.900559 
L 400.768163 144.547298 
L 402.817959 145.748303 
L 404.867755 147.988437 
L 406.917551 148.696678 
L 408.967347 148.975873 
L 411.017143 148.347385 
L 413.066939 148.014451 
L 415.116735 148.865601 
L 417.166531 149.054147 
L 419.216327 149.853822 
L 421.266122 147.96681 
L 425.365714 148.202421 
L 427.41551 149.950886 
L 429.465306 148.873718 
L 431.515102 146.173881 
L 433.564898 141.535251 
L 435.614694 137.218516 
L 437.66449 132.313292 
L 441.764082 118.721619 
L 445.863673 110.042774 
L 447.913469 104.871937 
L 449.963265 103.473266 
L 452.013061 105.329583 
L 454.062857 110.078152 
L 456.112653 116.856264 
L 458.162449 122.791753 
L 460.212245 129.74168 
L 462.262041 138.283868 
L 464.311837 145.246007 
L 466.361633 150.221167 
L 468.411429 155.967978 
L 470.461224 159.134219 
L 472.51102 162.654236 
L 474.560816 161.605467 
L 476.610612 158.121973 
L 478.660408 156.299772 
L 480.710204 154.161188 
L 482.76 152.885641 
L 484.809796 148.007859 
L 486.859592 145.880549 
L 488.909388 144.489841 
L 490.959184 142.897015 
L 493.00898 141.644771 
L 495.058776 143.013677 
L 497.108571 145.419223 
L 499.158367 146.944174 
L 501.208163 149.462514 
L 503.257959 150.751312 
L 507.357551 156.104207 
L 509.407347 156.507402 
L 511.457143 157.208738 
L 513.506939 160.384107 
L 515.556735 160.012263 
L 517.606531 161.862904 
L 519.656327 161.542284 
L 521.706122 160.675561 
L 523.755918 162.727436 
L 525.805714 161.854831 
L 527.85551 159.507935 
L 529.905306 159.705135 
L 531.955102 160.184868 
L 534.004898 158.745597 
L 536.054694 159.036647 
L 538.10449 159.194127 
L 540.154286 159.239718 
L 542.204082 157.932158 
L 544.253878 156.174394 
L 546.303673 157.406481 
L 548.353469 157.888382 
L 550.403265 157.050383 
L 554.502857 158.464491 
L 556.552653 157.510796 
L 558.602449 155.872624 
L 560.652245 155.657121 
L 562.702041 155.912942 
L 564.751837 157.209474 
L 566.801633 157.200598 
L 568.851429 157.064125 
L 570.901224 158.76392 
L 572.95102 159.06418 
L 575.000816 158.747878 
L 579.100408 160.850654 
L 581.150204 161.230665 
L 583.2 162.282268 
L 583.2 162.282268 
" style="fill:none;stroke:#0000ff;stroke-linecap:square;stroke-width:1.5;"/>
   </g>
   <g id="patch_3">
    <path d="M 81 192.24 
L 81 25.92 
" style="fill:none;stroke:#000000;stroke-linecap:square;stroke-linejoin:miter;stroke-width:0.8;"/>
   </g>
   <g id="patch_4">
    <path d="M 583.2 192.24 
L 583.2 25.92 
" style="fill:none;stroke:#000000;stroke-linecap:square;stroke-linejoin:miter;stroke-width:0.8;"/>
   </g>
   <g id="patch_5">
    <path d="M 81 192.24 
L 583.2 192.24 
" style="fill:none;stroke:#000000;stroke-linecap:square;stroke-linejoin:miter;stroke-width:0.8;"/>
   </g>
   <g id="patch_6">
    <path d="M 81 25.92 
L 583.2 25.92 
" style="fill:none;stroke:#000000;stroke-linecap:square;stroke-linejoin:miter;stroke-width:0.8;"/>
   </g>
   <g id="text_14">
    <!-- V1, Num Trials=160 All stimulated trials -->
    <defs>
     <path d="M 28.609375 0 
L 0.78125 72.90625 
L 11.078125 72.90625 
L 34.1875 11.53125 
L 57.328125 72.90625 
L 67.578125 72.90625 
L 39.796875 0 
z
" id="DejaVuSans-86"/>
     <path d="M 11.71875 12.40625 
L 22.015625 12.40625 
L 22.015625 4 
L 14.015625 -11.625 
L 7.71875 -11.625 
L 11.71875 4 
z
" id="DejaVuSans-44"/>
     <path d="M 9.8125 72.90625 
L 23.09375 72.90625 
L 55.421875 11.921875 
L 55.421875 72.90625 
L 64.984375 72.90625 
L 64.984375 0 
L 51.703125 0 
L 19.390625 60.984375 
L 19.390625 0 
L 9.8125 0 
z
" id="DejaVuSans-78"/>
     <path d="M 8.5 21.578125 
L 8.5 54.6875 
L 17.484375 54.6875 
L 17.484375 21.921875 
Q 17.484375 14.15625 20.5 10.265625 
Q 23.53125 6.390625 29.59375 6.390625 
Q 36.859375 6.390625 41.078125 11.03125 
Q 45.3125 15.671875 45.3125 23.6875 
L 45.3125 54.6875 
L 54.296875 54.6875 
L 54.296875 0 
L 45.3125 0 
L 45.3125 8.40625 
Q 42.046875 3.421875 37.71875 1 
Q 33.40625 -1.421875 27.6875 -1.421875 
Q 18.265625 -1.421875 13.375 4.4375 
Q 8.5 10.296875 8.5 21.578125 
z
M 31.109375 56 
z
" id="DejaVuSans-117"/>
     <path d="M 41.109375 46.296875 
Q 39.59375 47.171875 37.8125 47.578125 
Q 36.03125 48 33.890625 48 
Q 26.265625 48 22.1875 43.046875 
Q 18.109375 38.09375 18.109375 28.8125 
L 18.109375 0 
L 9.078125 0 
L 9.078125 54.6875 
L 18.109375 54.6875 
L 18.109375 46.1875 
Q 20.953125 51.171875 25.484375 53.578125 
Q 30.03125 56 36.53125 56 
Q 37.453125 56 38.578125 55.875 
Q 39.703125 55.765625 41.0625 55.515625 
z
" id="DejaVuSans-114"/>
     <path d="M 9.421875 75.984375 
L 18.40625 75.984375 
L 18.40625 0 
L 9.421875 0 
z
" id="DejaVuSans-108"/>
     <path d="M 10.59375 45.40625 
L 73.1875 45.40625 
L 73.1875 37.203125 
L 10.59375 37.203125 
z
M 10.59375 25.484375 
L 73.1875 25.484375 
L 73.1875 17.1875 
L 10.59375 17.1875 
z
" id="DejaVuSans-61"/>
     <path d="M 33.015625 40.375 
Q 26.375 40.375 22.484375 35.828125 
Q 18.609375 31.296875 18.609375 23.390625 
Q 18.609375 15.53125 22.484375 10.953125 
Q 26.375 6.390625 33.015625 6.390625 
Q 39.65625 6.390625 43.53125 10.953125 
Q 47.40625 15.53125 47.40625 23.390625 
Q 47.40625 31.296875 43.53125 35.828125 
Q 39.65625 40.375 33.015625 40.375 
z
M 52.59375 71.296875 
L 52.59375 62.3125 
Q 48.875 64.0625 45.09375 64.984375 
Q 41.3125 65.921875 37.59375 65.921875 
Q 27.828125 65.921875 22.671875 59.328125 
Q 17.53125 52.734375 16.796875 39.40625 
Q 19.671875 43.65625 24.015625 45.921875 
Q 28.375 48.1875 33.59375 48.1875 
Q 44.578125 48.1875 50.953125 41.515625 
Q 57.328125 34.859375 57.328125 23.390625 
Q 57.328125 12.15625 50.6875 5.359375 
Q 44.046875 -1.421875 33.015625 -1.421875 
Q 20.359375 -1.421875 13.671875 8.265625 
Q 6.984375 17.96875 6.984375 36.375 
Q 6.984375 53.65625 15.1875 63.9375 
Q 23.390625 74.21875 37.203125 74.21875 
Q 40.921875 74.21875 44.703125 73.484375 
Q 48.484375 72.75 52.59375 71.296875 
z
" id="DejaVuSans-54"/>
     <path d="M 34.1875 63.1875 
L 20.796875 26.90625 
L 47.609375 26.90625 
z
M 28.609375 72.90625 
L 39.796875 72.90625 
L 67.578125 0 
L 57.328125 0 
L 50.6875 18.703125 
L 17.828125 18.703125 
L 11.1875 0 
L 0.78125 0 
z
" id="DejaVuSans-65"/>
     <path d="M 45.40625 46.390625 
L 45.40625 75.984375 
L 54.390625 75.984375 
L 54.390625 0 
L 45.40625 0 
L 45.40625 8.203125 
Q 42.578125 3.328125 38.25 0.953125 
Q 33.9375 -1.421875 27.875 -1.421875 
Q 17.96875 -1.421875 11.734375 6.484375 
Q 5.515625 14.40625 5.515625 27.296875 
Q 5.515625 40.1875 11.734375 48.09375 
Q 17.96875 56 27.875 56 
Q 33.9375 56 38.25 53.625 
Q 42.578125 51.265625 45.40625 46.390625 
z
M 14.796875 27.296875 
Q 14.796875 17.390625 18.875 11.75 
Q 22.953125 6.109375 30.078125 6.109375 
Q 37.203125 6.109375 41.296875 11.75 
Q 45.40625 17.390625 45.40625 27.296875 
Q 45.40625 37.203125 41.296875 42.84375 
Q 37.203125 48.484375 30.078125 48.484375 
Q 22.953125 48.484375 18.875 42.84375 
Q 14.796875 37.203125 14.796875 27.296875 
z
" id="DejaVuSans-100"/>
    </defs>
    <g transform="translate(211.485 19.92)scale(0.12 -0.12)">
     <use xlink:href="#DejaVuSans-86"/>
     <use x="68.408203" xlink:href="#DejaVuSans-49"/>
     <use x="132.03125" xlink:href="#DejaVuSans-44"/>
     <use x="163.818359" xlink:href="#DejaVuSans-32"/>
     <use x="195.605469" xlink:href="#DejaVuSans-78"/>
     <use x="270.410156" xlink:href="#DejaVuSans-117"/>
     <use x="333.789062" xlink:href="#DejaVuSans-109"/>
     <use x="431.201172" xlink:href="#DejaVuSans-32"/>
     <use x="462.988281" xlink:href="#DejaVuSans-84"/>
     <use x="523.853516" xlink:href="#DejaVuSans-114"/>
     <use x="564.966797" xlink:href="#DejaVuSans-105"/>
     <use x="592.75" xlink:href="#DejaVuSans-97"/>
     <use x="654.029297" xlink:href="#DejaVuSans-108"/>
     <use x="681.8125" xlink:href="#DejaVuSans-115"/>
     <use x="733.912109" xlink:href="#DejaVuSans-61"/>
     <use x="817.701172" xlink:href="#DejaVuSans-49"/>
     <use x="881.324219" xlink:href="#DejaVuSans-54"/>
     <use x="944.947266" xlink:href="#DejaVuSans-48"/>
     <use x="1008.570312" xlink:href="#DejaVuSans-32"/>
     <use x="1040.357422" xlink:href="#DejaVuSans-65"/>
     <use x="1108.765625" xlink:href="#DejaVuSans-108"/>
     <use x="1136.548828" xlink:href="#DejaVuSans-108"/>
     <use x="1164.332031" xlink:href="#DejaVuSans-32"/>
     <use x="1196.119141" xlink:href="#DejaVuSans-115"/>
     <use x="1248.21875" xlink:href="#DejaVuSans-116"/>
     <use x="1287.427734" xlink:href="#DejaVuSans-105"/>
     <use x="1315.210938" xlink:href="#DejaVuSans-109"/>
     <use x="1412.623047" xlink:href="#DejaVuSans-117"/>
     <use x="1476.001953" xlink:href="#DejaVuSans-108"/>
     <use x="1503.785156" xlink:href="#DejaVuSans-97"/>
     <use x="1565.064453" xlink:href="#DejaVuSans-116"/>
     <use x="1604.273438" xlink:href="#DejaVuSans-101"/>
     <use x="1665.796875" xlink:href="#DejaVuSans-100"/>
     <use x="1729.273438" xlink:href="#DejaVuSans-32"/>
     <use x="1761.060547" xlink:href="#DejaVuSans-116"/>
     <use x="1800.269531" xlink:href="#DejaVuSans-114"/>
     <use x="1841.382812" xlink:href="#DejaVuSans-105"/>
     <use x="1869.166016" xlink:href="#DejaVuSans-97"/>
     <use x="1930.445312" xlink:href="#DejaVuSans-108"/>
     <use x="1958.228516" xlink:href="#DejaVuSans-115"/>
    </g>
   </g>
   <g id="legend_1">
    <g id="patch_7">
     <path d="M 441.12 70.7475 
L 574.8 70.7475 
Q 577.2 70.7475 577.2 68.3475 
L 577.2 34.32 
Q 577.2 31.92 574.8 31.92 
L 441.12 31.92 
Q 438.72 31.92 438.72 34.32 
L 438.72 68.3475 
Q 438.72 70.7475 441.12 70.7475 
z
" style="fill:#ffffff;opacity:0.8;stroke:#cccccc;stroke-linejoin:miter;"/>
    </g>
    <g id="line2d_13">
     <path d="M 443.52 41.638125 
L 467.52 41.638125 
" style="fill:none;stroke:#0000ff;stroke-linecap:square;stroke-width:1.5;"/>
    </g>
    <g id="line2d_14"/>
    <g id="text_15">
     <!-- Beta-Binomial $\pi$ -->
     <defs>
      <path d="M 30.609375 48.390625 
Q 23.390625 48.390625 19.1875 42.75 
Q 14.984375 37.109375 14.984375 27.296875 
Q 14.984375 17.484375 19.15625 11.84375 
Q 23.34375 6.203125 30.609375 6.203125 
Q 37.796875 6.203125 41.984375 11.859375 
Q 46.1875 17.53125 46.1875 27.296875 
Q 46.1875 37.015625 41.984375 42.703125 
Q 37.796875 48.390625 30.609375 48.390625 
z
M 30.609375 56 
Q 42.328125 56 49.015625 48.375 
Q 55.71875 40.765625 55.71875 27.296875 
Q 55.71875 13.875 49.015625 6.21875 
Q 42.328125 -1.421875 30.609375 -1.421875 
Q 18.84375 -1.421875 12.171875 6.21875 
Q 5.515625 13.875 5.515625 27.296875 
Q 5.515625 40.765625 12.171875 48.375 
Q 18.84375 56 30.609375 56 
z
" id="DejaVuSans-111"/>
     </defs>
     <g transform="translate(477.12 45.838125)scale(0.12 -0.12)">
      <use transform="translate(0 0.015625)" xlink:href="#DejaVuSans-66"/>
      <use transform="translate(68.603516 0.015625)" xlink:href="#DejaVuSans-101"/>
      <use transform="translate(130.126953 0.015625)" xlink:href="#DejaVuSans-116"/>
      <use transform="translate(169.335938 0.015625)" xlink:href="#DejaVuSans-97"/>
      <use transform="translate(230.615234 0.015625)" xlink:href="#DejaVuSans-45"/>
      <use transform="translate(266.699219 0.015625)" xlink:href="#DejaVuSans-66"/>
      <use transform="translate(335.302734 0.015625)" xlink:href="#DejaVuSans-105"/>
      <use transform="translate(363.085938 0.015625)" xlink:href="#DejaVuSans-110"/>
      <use transform="translate(426.464844 0.015625)" xlink:href="#DejaVuSans-111"/>
      <use transform="translate(487.646484 0.015625)" xlink:href="#DejaVuSans-109"/>
      <use transform="translate(585.058594 0.015625)" xlink:href="#DejaVuSans-105"/>
      <use transform="translate(612.841797 0.015625)" xlink:href="#DejaVuSans-97"/>
      <use transform="translate(674.121094 0.015625)" xlink:href="#DejaVuSans-108"/>
      <use transform="translate(701.904297 0.015625)" xlink:href="#DejaVuSans-32"/>
      <use transform="translate(733.691406 0.015625)" xlink:href="#DejaVuSans-Oblique-960"/>
     </g>
    </g>
    <g id="patch_8">
     <path d="M 443.52 63.451875 
L 467.52 63.451875 
L 467.52 55.051875 
L 443.52 55.051875 
z
" style="fill:#0000ff;opacity:0.3;stroke:#0000ff;stroke-linejoin:miter;"/>
    </g>
    <g id="text_16">
     <!-- Std. Err. -->
     <defs>
      <path d="M 53.515625 70.515625 
L 53.515625 60.890625 
Q 47.90625 63.578125 42.921875 64.890625 
Q 37.9375 66.21875 33.296875 66.21875 
Q 25.25 66.21875 20.875 63.09375 
Q 16.5 59.96875 16.5 54.203125 
Q 16.5 49.359375 19.40625 46.890625 
Q 22.3125 44.4375 30.421875 42.921875 
L 36.375 41.703125 
Q 47.40625 39.59375 52.65625 34.296875 
Q 57.90625 29 57.90625 20.125 
Q 57.90625 9.515625 50.796875 4.046875 
Q 43.703125 -1.421875 29.984375 -1.421875 
Q 24.8125 -1.421875 18.96875 -0.25 
Q 13.140625 0.921875 6.890625 3.21875 
L 6.890625 13.375 
Q 12.890625 10.015625 18.65625 8.296875 
Q 24.421875 6.59375 29.984375 6.59375 
Q 38.421875 6.59375 43.015625 9.90625 
Q 47.609375 13.234375 47.609375 19.390625 
Q 47.609375 24.75 44.3125 27.78125 
Q 41.015625 30.8125 33.5 32.328125 
L 27.484375 33.5 
Q 16.453125 35.6875 11.515625 40.375 
Q 6.59375 45.0625 6.59375 53.421875 
Q 6.59375 63.09375 13.40625 68.65625 
Q 20.21875 74.21875 32.171875 74.21875 
Q 37.3125 74.21875 42.625 73.28125 
Q 47.953125 72.359375 53.515625 70.515625 
z
" id="DejaVuSans-83"/>
      <path d="M 9.8125 72.90625 
L 55.90625 72.90625 
L 55.90625 64.59375 
L 19.671875 64.59375 
L 19.671875 43.015625 
L 54.390625 43.015625 
L 54.390625 34.71875 
L 19.671875 34.71875 
L 19.671875 8.296875 
L 56.78125 8.296875 
L 56.78125 0 
L 9.8125 0 
z
" id="DejaVuSans-69"/>
     </defs>
     <g transform="translate(477.12 63.451875)scale(0.12 -0.12)">
      <use xlink:href="#DejaVuSans-83"/>
      <use x="63.476562" xlink:href="#DejaVuSans-116"/>
      <use x="102.685547" xlink:href="#DejaVuSans-100"/>
      <use x="166.162109" xlink:href="#DejaVuSans-46"/>
      <use x="197.949219" xlink:href="#DejaVuSans-32"/>
      <use x="229.736328" xlink:href="#DejaVuSans-69"/>
      <use x="292.919922" xlink:href="#DejaVuSans-114"/>
      <use x="334.017578" xlink:href="#DejaVuSans-114"/>
      <use x="374.990234" xlink:href="#DejaVuSans-46"/>
     </g>
    </g>
   </g>
  </g>
 </g>
 <defs>
  <clipPath id="paea13851c9">
   <rect height="166.32" width="502.2" x="81" y="25.92"/>
  </clipPath>
 </defs>
</svg>
