<?xml version="1.0" encoding="utf-8" standalone="no"?>
<!DOCTYPE svg PUBLIC "-//W3C//DTD SVG 1.1//EN"
  "http://www.w3.org/Graphics/SVG/1.1/DTD/svg11.dtd">
<!-- Created with matplotlib (https://matplotlib.org/) -->
<svg height="223.2pt" version="1.1" viewBox="0 0 576 223.2" width="576pt" xmlns="http://www.w3.org/2000/svg" xmlns:xlink="http://www.w3.org/1999/xlink">
 <defs>
  <style type="text/css">
*{stroke-linecap:butt;stroke-linejoin:round;}
  </style>
 </defs>
 <g id="figure_1">
  <g id="patch_1">
   <path d="M 0 223.2 
L 576 223.2 
L 576 0 
L 0 0 
z
" style="fill:#ffffff;"/>
  </g>
  <g id="axes_1">
   <g id="patch_2">
    <path d="M 80.12 174.76 
L 565.2 174.76 
L 565.2 26.88 
L 80.12 26.88 
z
" style="fill:#ffffff;"/>
   </g>
   <g id="PolyCollection_1">
    <defs>
     <path d="M 158.966054 -48.44 
L 158.966054 -196.32 
L 405.616902 -196.32 
L 405.616902 -48.44 
L 405.616902 -48.44 
L 158.966054 -48.44 
z
" id="mb4f4743d3f" style="stroke:#808080;stroke-opacity:0.3;"/>
    </defs>
    <g clip-path="url(#p34b64cb48b)">
     <use style="fill:#808080;fill-opacity:0.3;stroke:#808080;stroke-opacity:0.3;" x="0" xlink:href="#mb4f4743d3f" y="223.2"/>
    </g>
   </g>
   <g id="PolyCollection_2">
    <defs>
     <path d="M 80.12 -97.290722 
L 80.12 -61.764565 
L 81.764339 -61.768365 
L 83.408678 -61.347787 
L 85.053017 -62.678454 
L 86.697356 -61.535697 
L 88.341695 -61.253657 
L 89.986034 -61.318534 
L 91.630373 -61.386354 
L 93.274712 -62.037041 
L 94.919051 -62.334248 
L 96.56339 -61.734799 
L 98.207729 -61.466713 
L 99.852068 -62.03947 
L 101.496407 -61.892549 
L 103.140746 -62.169904 
L 104.785085 -61.221801 
L 106.429424 -61.269145 
L 108.073763 -61.624445 
L 109.718102 -61.302463 
L 111.362441 -61.360945 
L 113.00678 -62.933684 
L 114.651119 -61.92315 
L 116.295458 -61.810199 
L 117.939797 -61.786267 
L 119.584136 -61.754583 
L 121.228475 -61.819 
L 122.872814 -61.830851 
L 124.517153 -62.275729 
L 126.161492 -61.225098 
L 127.805831 -62.778917 
L 129.450169 -63.343372 
L 131.094508 -62.330125 
L 132.738847 -62.454519 
L 134.383186 -62.89281 
L 136.027525 -61.943076 
L 137.671864 -62.698407 
L 139.316203 -61.487823 
L 140.960542 -61.629275 
L 142.604881 -62.560493 
L 144.24922 -62.166275 
L 145.893559 -62.777892 
L 147.537898 -61.51087 
L 149.182237 -60.973884 
L 150.826576 -62.106893 
L 152.470915 -62.106795 
L 154.115254 -62.256438 
L 155.759593 -62.452427 
L 157.403932 -64.729397 
L 159.048271 -67.903216 
L 160.69261 -69.03701 
L 162.336949 -68.044522 
L 163.981288 -66.377657 
L 165.625627 -65.042004 
L 167.269966 -65.866907 
L 168.914305 -65.331704 
L 170.558644 -66.614181 
L 172.202983 -67.730573 
L 173.847322 -71.252245 
L 175.491661 -71.239539 
L 177.136 -67.905317 
L 178.780339 -66.232702 
L 180.424678 -65.48197 
L 182.069017 -65.357054 
L 183.713356 -76.609824 
L 185.357695 -78.746424 
L 187.002034 -115.018012 
L 188.646373 -118.072711 
L 190.290712 -105.436528 
L 191.935051 -71.132176 
L 193.57939 -84.684384 
L 195.223729 -74.490222 
L 196.868068 -76.585566 
L 198.512407 -76.678544 
L 200.156746 -74.001102 
L 201.801085 -71.75628 
L 203.445424 -70.169078 
L 205.089763 -67.568909 
L 206.734102 -67.169487 
L 208.378441 -65.45616 
L 210.02278 -65.719644 
L 211.667119 -64.175125 
L 213.311458 -63.853805 
L 214.955797 -63.538518 
L 216.600136 -62.244868 
L 218.244475 -61.663035 
L 219.888814 -61.874485 
L 221.533153 -61.298252 
L 223.177492 -63.004521 
L 224.821831 -62.775857 
L 226.466169 -62.376691 
L 228.110508 -62.676148 
L 229.754847 -62.999531 
L 231.399186 -62.043533 
L 233.043525 -62.844958 
L 234.687864 -63.792083 
L 236.332203 -63.751234 
L 237.976542 -63.309446 
L 239.620881 -63.126957 
L 241.26522 -63.402503 
L 242.909559 -63.000443 
L 244.553898 -62.791562 
L 246.198237 -62.535969 
L 247.842576 -62.409841 
L 249.486915 -62.936452 
L 251.131254 -62.833054 
L 252.775593 -61.804501 
L 254.419932 -62.777852 
L 256.064271 -61.385715 
L 257.70861 -61.521072 
L 259.352949 -62.866533 
L 260.997288 -61.147747 
L 262.641627 -62.420463 
L 264.285966 -63.100475 
L 265.930305 -62.829117 
L 267.574644 -61.57576 
L 269.218983 -62.308195 
L 270.863322 -63.339507 
L 272.507661 -62.194989 
L 274.152 -62.344086 
L 275.796339 -63.287694 
L 277.440678 -62.789309 
L 279.085017 -62.316943 
L 280.729356 -62.410255 
L 282.373695 -61.215511 
L 284.018034 -61.843305 
L 285.662373 -63.364747 
L 287.306712 -61.395794 
L 288.951051 -61.453949 
L 290.59539 -61.252091 
L 292.239729 -62.630005 
L 293.884068 -60.51281 
L 295.528407 -61.3419 
L 297.172746 -61.053583 
L 298.817085 -61.913991 
L 300.461424 -61.289173 
L 302.105763 -62.085727 
L 303.750102 -62.510161 
L 305.394441 -62.636917 
L 307.03878 -61.449957 
L 308.683119 -61.856755 
L 310.327458 -61.447265 
L 311.971797 -61.744319 
L 313.616136 -61.089039 
L 315.260475 -62.071341 
L 316.904814 -62.764829 
L 318.549153 -62.496115 
L 320.193492 -62.148028 
L 321.837831 -62.639636 
L 323.482169 -61.725228 
L 325.126508 -62.717792 
L 326.770847 -62.276008 
L 328.415186 -62.060623 
L 330.059525 -61.794207 
L 331.703864 -61.669283 
L 333.348203 -61.522008 
L 334.992542 -61.174074 
L 336.636881 -61.250625 
L 338.28122 -61.12601 
L 339.925559 -61.57175 
L 341.569898 -61.361239 
L 343.214237 -61.715168 
L 344.858576 -59.806725 
L 346.502915 -61.357703 
L 348.147254 -60.914353 
L 349.791593 -61.158052 
L 351.435932 -62.14473 
L 353.080271 -62.517842 
L 354.72461 -61.920518 
L 356.368949 -62.435401 
L 358.013288 -62.934967 
L 359.657627 -62.043316 
L 361.301966 -63.12433 
L 362.946305 -62.60134 
L 364.590644 -62.778129 
L 366.234983 -61.952661 
L 367.879322 -62.15278 
L 369.523661 -60.899824 
L 371.168 -62.152343 
L 372.812339 -61.929716 
L 374.456678 -61.774699 
L 376.101017 -61.755063 
L 377.745356 -61.19317 
L 379.389695 -61.151571 
L 381.034034 -60.337737 
L 382.678373 -61.456051 
L 384.322712 -59.705666 
L 385.967051 -61.077761 
L 387.61139 -61.942848 
L 389.255729 -61.454181 
L 390.900068 -61.623231 
L 392.544407 -60.797603 
L 394.188746 -61.575691 
L 395.833085 -61.485009 
L 397.477424 -61.797705 
L 399.121763 -61.117527 
L 400.766102 -61.090425 
L 402.410441 -61.14652 
L 404.05478 -62.508209 
L 405.699119 -60.862105 
L 407.343458 -61.901804 
L 408.987797 -61.822904 
L 410.632136 -61.947512 
L 412.276475 -61.713407 
L 413.920814 -60.541006 
L 415.565153 -60.708387 
L 417.209492 -62.116693 
L 418.853831 -60.274823 
L 420.498169 -62.182799 
L 422.142508 -61.39682 
L 423.786847 -61.671554 
L 425.431186 -61.747225 
L 427.075525 -62.965789 
L 428.719864 -62.731535 
L 430.364203 -63.583172 
L 432.008542 -62.596979 
L 433.652881 -62.607115 
L 435.29722 -62.765556 
L 436.941559 -61.810414 
L 438.585898 -62.862311 
L 440.230237 -63.976213 
L 441.874576 -63.66268 
L 443.518915 -61.654022 
L 445.163254 -63.827211 
L 446.807593 -63.153847 
L 448.451932 -62.349823 
L 450.096271 -63.173472 
L 451.74061 -63.091562 
L 453.384949 -62.902038 
L 455.029288 -61.921308 
L 456.673627 -62.879066 
L 458.317966 -63.383275 
L 459.962305 -63.148753 
L 461.606644 -64.176384 
L 463.250983 -63.363039 
L 464.895322 -62.140592 
L 466.539661 -63.269993 
L 468.184 -61.623327 
L 469.828339 -63.518154 
L 471.472678 -62.454745 
L 473.117017 -62.04751 
L 474.761356 -62.963455 
L 476.405695 -61.312853 
L 478.050034 -61.65338 
L 479.694373 -62.338936 
L 481.338712 -62.524805 
L 482.983051 -61.526 
L 484.62739 -61.767149 
L 486.271729 -60.908938 
L 487.916068 -62.059349 
L 489.560407 -61.227834 
L 491.204746 -61.057635 
L 492.849085 -61.53825 
L 494.493424 -62.118782 
L 496.137763 -62.115105 
L 497.782102 -62.175513 
L 499.426441 -61.251307 
L 501.07078 -60.581305 
L 502.715119 -61.593186 
L 504.359458 -61.973461 
L 506.003797 -61.447392 
L 507.648136 -62.644365 
L 509.292475 -61.796503 
L 510.936814 -63.577656 
L 512.581153 -62.938909 
L 514.225492 -61.773061 
L 515.869831 -61.723027 
L 517.514169 -61.088849 
L 519.158508 -61.888444 
L 520.802847 -62.505434 
L 522.447186 -63.388056 
L 524.091525 -62.346907 
L 525.735864 -61.527254 
L 527.380203 -60.044496 
L 529.024542 -60.828755 
L 530.668881 -61.963078 
L 532.31322 -62.456355 
L 533.957559 -62.42904 
L 535.601898 -61.080404 
L 537.246237 -61.828273 
L 538.890576 -62.302543 
L 540.534915 -62.22213 
L 542.179254 -60.958729 
L 543.823593 -62.106541 
L 545.467932 -62.268488 
L 547.112271 -61.850977 
L 548.75661 -61.174257 
L 550.400949 -61.726854 
L 552.045288 -63.082773 
L 553.689627 -61.620611 
L 555.333966 -61.33343 
L 556.978305 -61.601093 
L 558.622644 -62.80316 
L 560.266983 -61.142178 
L 561.911322 -60.59104 
L 563.555661 -61.948167 
L 565.2 -62.337586 
L 565.2 -63.721278 
L 565.2 -63.721278 
L 563.555661 -63.34947 
L 561.911322 -61.857919 
L 560.266983 -62.422379 
L 558.622644 -63.996359 
L 556.978305 -62.949233 
L 555.333966 -62.783999 
L 553.689627 -63.003117 
L 552.045288 -64.370225 
L 550.400949 -63.100944 
L 548.75661 -62.553386 
L 547.112271 -63.151687 
L 545.467932 -63.591752 
L 543.823593 -63.250344 
L 542.179254 -62.295255 
L 540.534915 -63.589905 
L 538.890576 -63.689398 
L 537.246237 -63.146487 
L 535.601898 -62.358966 
L 533.957559 -63.811626 
L 532.31322 -63.876208 
L 530.668881 -63.309039 
L 529.024542 -62.124417 
L 527.380203 -61.367022 
L 525.735864 -62.863806 
L 524.091525 -63.718371 
L 522.447186 -64.668128 
L 520.802847 -63.951011 
L 519.158508 -63.255991 
L 517.514169 -62.514174 
L 515.869831 -63.002877 
L 514.225492 -63.422433 
L 512.581153 -98.449931 
L 510.936814 -99.07898 
L 509.292475 -97.323388 
L 507.648136 -64.018439 
L 506.003797 -62.901687 
L 504.359458 -63.233605 
L 502.715119 -62.957264 
L 501.07078 -61.820358 
L 499.426441 -62.365948 
L 497.782102 -63.48632 
L 496.137763 -97.636089 
L 494.493424 -63.537732 
L 492.849085 -62.902162 
L 491.204746 -62.390087 
L 489.560407 -62.488094 
L 487.916068 -63.342676 
L 486.271729 -62.152741 
L 484.62739 -63.155577 
L 482.983051 -62.85555 
L 481.338712 -63.99838 
L 479.694373 -63.733113 
L 478.050034 -63.153413 
L 476.405695 -62.92025 
L 474.761356 -64.816443 
L 473.117017 -63.691506 
L 471.472678 -64.383187 
L 469.828339 -65.205046 
L 468.184 -62.92262 
L 466.539661 -98.784706 
L 464.895322 -63.551905 
L 463.250983 -64.851734 
L 461.606644 -99.678309 
L 459.962305 -64.729253 
L 458.317966 -64.991748 
L 456.673627 -64.28926 
L 455.029288 -63.535629 
L 453.384949 -64.654246 
L 451.74061 -64.71632 
L 450.096271 -64.892616 
L 448.451932 -63.98225 
L 446.807593 -64.90322 
L 445.163254 -65.885367 
L 443.518915 -63.433959 
L 441.874576 -65.489343 
L 440.230237 -65.825828 
L 438.585898 -64.637479 
L 436.941559 -97.342405 
L 435.29722 -98.288015 
L 433.652881 -64.208592 
L 432.008542 -64.483048 
L 430.364203 -65.06136 
L 428.719864 -64.34814 
L 427.075525 -64.482633 
L 425.431186 -63.163274 
L 423.786847 -62.923299 
L 422.142508 -62.74015 
L 420.498169 -63.42902 
L 418.853831 -61.559412 
L 417.209492 -63.416997 
L 415.565153 -62.057748 
L 413.920814 -61.816541 
L 412.276475 -63.198008 
L 410.632136 -63.469594 
L 408.987797 -63.453325 
L 407.343458 -63.946615 
L 405.699119 -63.317406 
L 404.05478 -63.835715 
L 402.410441 -62.421377 
L 400.766102 -62.37098 
L 399.121763 -62.428105 
L 397.477424 -63.05353 
L 395.833085 -62.892368 
L 394.188746 -62.792152 
L 392.544407 -62.089466 
L 390.900068 -62.826676 
L 389.255729 -62.71123 
L 387.61139 -63.242338 
L 385.967051 -62.320143 
L 384.322712 -60.91197 
L 382.678373 -62.749703 
L 381.034034 -61.636336 
L 379.389695 -62.345943 
L 377.745356 -62.531861 
L 376.101017 -63.104239 
L 374.456678 -63.056029 
L 372.812339 -63.266536 
L 371.168 -63.40487 
L 369.523661 -62.160721 
L 367.879322 -63.371726 
L 366.234983 -63.328463 
L 364.590644 -64.202101 
L 362.946305 -63.898963 
L 361.301966 -64.633493 
L 359.657627 -63.715987 
L 358.013288 -64.646134 
L 356.368949 -64.43463 
L 354.72461 -63.341217 
L 353.080271 -63.818368 
L 351.435932 -63.394821 
L 349.791593 -62.437909 
L 348.147254 -62.172602 
L 346.502915 -62.638259 
L 344.858576 -61.065456 
L 343.214237 -63.049149 
L 341.569898 -62.714305 
L 339.925559 -62.84295 
L 338.28122 -62.400278 
L 336.636881 -62.623321 
L 334.992542 -62.524691 
L 333.348203 -62.803199 
L 331.703864 -62.935774 
L 330.059525 -62.978853 
L 328.415186 -63.355137 
L 326.770847 -63.570682 
L 325.126508 -64.041893 
L 323.482169 -63.168453 
L 321.837831 -64.004762 
L 320.193492 -63.419902 
L 318.549153 -63.807613 
L 316.904814 -64.054399 
L 315.260475 -63.355466 
L 313.616136 -62.288373 
L 311.971797 -63.015823 
L 310.327458 -62.606578 
L 308.683119 -63.13712 
L 307.03878 -62.778703 
L 305.394441 -64.042053 
L 303.750102 -63.782427 
L 302.105763 -63.284168 
L 300.461424 -62.52881 
L 298.817085 -63.203933 
L 297.172746 -62.368552 
L 295.528407 -62.687933 
L 293.884068 -61.765519 
L 292.239729 -63.967373 
L 290.59539 -62.500048 
L 288.951051 -62.709584 
L 287.306712 -62.667824 
L 285.662373 -64.651744 
L 284.018034 -63.203716 
L 282.373695 -62.649534 
L 280.729356 -63.909594 
L 279.085017 -63.896651 
L 277.440678 -64.466054 
L 275.796339 -64.824652 
L 274.152 -63.738371 
L 272.507661 -63.582876 
L 270.863322 -64.777513 
L 269.218983 -63.79478 
L 267.574644 -62.951202 
L 265.930305 -64.265224 
L 264.285966 -64.502513 
L 262.641627 -63.966897 
L 260.997288 -62.744019 
L 259.352949 -64.258664 
L 257.70861 -62.920179 
L 256.064271 -62.631181 
L 254.419932 -64.211598 
L 252.775593 -63.09058 
L 251.131254 -64.291489 
L 249.486915 -64.245175 
L 247.842576 -63.889447 
L 246.198237 -63.903335 
L 244.553898 -64.183223 
L 242.909559 -64.505974 
L 241.26522 -65.139034 
L 239.620881 -64.919658 
L 237.976542 -65.224529 
L 236.332203 -66.072121 
L 234.687864 -65.92419 
L 233.043525 -64.309597 
L 231.399186 -63.504588 
L 229.754847 -98.517913 
L 228.110508 -98.195784 
L 226.466169 -63.759626 
L 224.821831 -64.11492 
L 223.177492 -64.609996 
L 221.533153 -62.632259 
L 219.888814 -63.396427 
L 218.244475 -63.655161 
L 216.600136 -64.09852 
L 214.955797 -65.356094 
L 213.311458 -66.139831 
L 211.667119 -66.91004 
L 210.02278 -68.171559 
L 208.378441 -68.089359 
L 206.734102 -70.108877 
L 205.089763 -71.159811 
L 203.445424 -74.643764 
L 201.801085 -77.075615 
L 200.156746 -79.562432 
L 198.512407 -83.533239 
L 196.868068 -83.168523 
L 195.223729 -80.26304 
L 193.57939 -134.779871 
L 191.935051 -106.769398 
L 190.290712 -175.671485 
L 188.646373 -196.32 
L 187.002034 -193.322159 
L 185.357695 -128.80419 
L 183.713356 -126.632253 
L 182.069017 -100.861752 
L 180.424678 -67.363934 
L 178.780339 -67.987876 
L 177.136 -69.790759 
L 175.491661 -73.163195 
L 173.847322 -72.975585 
L 172.202983 -69.265233 
L 170.558644 -68.009313 
L 168.914305 -66.615825 
L 167.269966 -67.355921 
L 165.625627 -66.585952 
L 163.981288 -67.965966 
L 162.336949 -69.81704 
L 160.69261 -71.067219 
L 159.048271 -70.080518 
L 157.403932 -66.593093 
L 155.759593 -63.914272 
L 154.115254 -63.613838 
L 152.470915 -63.578623 
L 150.826576 -63.600938 
L 149.182237 -62.253375 
L 147.537898 -62.954391 
L 145.893559 -64.224282 
L 144.24922 -63.640483 
L 142.604881 -64.009614 
L 140.960542 -62.796055 
L 139.316203 -62.841771 
L 137.671864 -63.994466 
L 136.027525 -63.222055 
L 134.383186 -64.232993 
L 132.738847 -63.854551 
L 131.094508 -63.685738 
L 129.450169 -64.758391 
L 127.805831 -64.170351 
L 126.161492 -62.671234 
L 124.517153 -63.506065 
L 122.872814 -63.18548 
L 121.228475 -63.101375 
L 119.584136 -63.069501 
L 117.939797 -63.270287 
L 116.295458 -63.158825 
L 114.651119 -63.281649 
L 113.00678 -64.263761 
L 111.362441 -62.617908 
L 109.718102 -62.669714 
L 108.073763 -62.859603 
L 106.429424 -62.469166 
L 104.785085 -62.631003 
L 103.140746 -63.482886 
L 101.496407 -63.282816 
L 99.852068 -63.425262 
L 98.207729 -62.926871 
L 96.56339 -63.130208 
L 94.919051 -63.514535 
L 93.274712 -63.36391 
L 91.630373 -62.758754 
L 89.986034 -62.628878 
L 88.341695 -62.532103 
L 86.697356 -62.803327 
L 85.053017 -63.8475 
L 83.408678 -62.639359 
L 81.764339 -97.294591 
L 80.12 -97.290722 
z
" id="m3c03b90977" style="stroke:#0000ff;stroke-opacity:0.3;"/>
    </defs>
    <g clip-path="url(#p34b64cb48b)">
     <use style="fill:#0000ff;fill-opacity:0.3;stroke:#0000ff;stroke-opacity:0.3;" x="0" xlink:href="#m3c03b90977" y="223.2"/>
    </g>
   </g>
   <g id="matplotlib.axis_1">
    <g id="xtick_1">
     <g id="line2d_1">
      <defs>
       <path d="M 0 0 
L 0 3.5 
" id="m3226f64132" style="stroke:#000000;stroke-width:0.8;"/>
      </defs>
      <g>
       <use style="stroke:#000000;stroke-width:0.8;" x="158.966054" xlink:href="#m3226f64132" y="174.76"/>
      </g>
     </g>
     <g id="text_1">
      <!-- 0.0 -->
      <defs>
       <path d="M 31.78125 66.40625 
Q 24.171875 66.40625 20.328125 58.90625 
Q 16.5 51.421875 16.5 36.375 
Q 16.5 21.390625 20.328125 13.890625 
Q 24.171875 6.390625 31.78125 6.390625 
Q 39.453125 6.390625 43.28125 13.890625 
Q 47.125 21.390625 47.125 36.375 
Q 47.125 51.421875 43.28125 58.90625 
Q 39.453125 66.40625 31.78125 66.40625 
z
M 31.78125 74.21875 
Q 44.046875 74.21875 50.515625 64.515625 
Q 56.984375 54.828125 56.984375 36.375 
Q 56.984375 17.96875 50.515625 8.265625 
Q 44.046875 -1.421875 31.78125 -1.421875 
Q 19.53125 -1.421875 13.0625 8.265625 
Q 6.59375 17.96875 6.59375 36.375 
Q 6.59375 54.828125 13.0625 64.515625 
Q 19.53125 74.21875 31.78125 74.21875 
z
" id="DejaVuSans-48"/>
       <path d="M 10.6875 12.40625 
L 21 12.40625 
L 21 0 
L 10.6875 0 
z
" id="DejaVuSans-46"/>
      </defs>
      <g transform="translate(149.424179 190.878125)scale(0.12 -0.12)">
       <use xlink:href="#DejaVuSans-48"/>
       <use x="63.623047" xlink:href="#DejaVuSans-46"/>
       <use x="95.410156" xlink:href="#DejaVuSans-48"/>
      </g>
     </g>
    </g>
    <g id="xtick_2">
     <g id="line2d_2">
      <g>
       <use style="stroke:#000000;stroke-width:0.8;" x="241.183003" xlink:href="#m3226f64132" y="174.76"/>
      </g>
     </g>
     <g id="text_2">
      <!-- 0.5 -->
      <defs>
       <path d="M 10.796875 72.90625 
L 49.515625 72.90625 
L 49.515625 64.59375 
L 19.828125 64.59375 
L 19.828125 46.734375 
Q 21.96875 47.46875 24.109375 47.828125 
Q 26.265625 48.1875 28.421875 48.1875 
Q 40.625 48.1875 47.75 41.5 
Q 54.890625 34.8125 54.890625 23.390625 
Q 54.890625 11.625 47.5625 5.09375 
Q 40.234375 -1.421875 26.90625 -1.421875 
Q 22.3125 -1.421875 17.546875 -0.640625 
Q 12.796875 0.140625 7.71875 1.703125 
L 7.71875 11.625 
Q 12.109375 9.234375 16.796875 8.0625 
Q 21.484375 6.890625 26.703125 6.890625 
Q 35.15625 6.890625 40.078125 11.328125 
Q 45.015625 15.765625 45.015625 23.390625 
Q 45.015625 31 40.078125 35.4375 
Q 35.15625 39.890625 26.703125 39.890625 
Q 22.75 39.890625 18.8125 39.015625 
Q 14.890625 38.140625 10.796875 36.28125 
z
" id="DejaVuSans-53"/>
      </defs>
      <g transform="translate(231.641128 190.878125)scale(0.12 -0.12)">
       <use xlink:href="#DejaVuSans-48"/>
       <use x="63.623047" xlink:href="#DejaVuSans-46"/>
       <use x="95.410156" xlink:href="#DejaVuSans-53"/>
      </g>
     </g>
    </g>
    <g id="xtick_3">
     <g id="line2d_3">
      <g>
       <use style="stroke:#000000;stroke-width:0.8;" x="323.399953" xlink:href="#m3226f64132" y="174.76"/>
      </g>
     </g>
     <g id="text_3">
      <!-- 1.0 -->
      <defs>
       <path d="M 12.40625 8.296875 
L 28.515625 8.296875 
L 28.515625 63.921875 
L 10.984375 60.40625 
L 10.984375 69.390625 
L 28.421875 72.90625 
L 38.28125 72.90625 
L 38.28125 8.296875 
L 54.390625 8.296875 
L 54.390625 0 
L 12.40625 0 
z
" id="DejaVuSans-49"/>
      </defs>
      <g transform="translate(313.858078 190.878125)scale(0.12 -0.12)">
       <use xlink:href="#DejaVuSans-49"/>
       <use x="63.623047" xlink:href="#DejaVuSans-46"/>
       <use x="95.410156" xlink:href="#DejaVuSans-48"/>
      </g>
     </g>
    </g>
    <g id="xtick_4">
     <g id="line2d_4">
      <g>
       <use style="stroke:#000000;stroke-width:0.8;" x="405.616902" xlink:href="#m3226f64132" y="174.76"/>
      </g>
     </g>
     <g id="text_4">
      <!-- 1.5 -->
      <g transform="translate(396.075027 190.878125)scale(0.12 -0.12)">
       <use xlink:href="#DejaVuSans-49"/>
       <use x="63.623047" xlink:href="#DejaVuSans-46"/>
       <use x="95.410156" xlink:href="#DejaVuSans-53"/>
      </g>
     </g>
    </g>
    <g id="xtick_5">
     <g id="line2d_5">
      <g>
       <use style="stroke:#000000;stroke-width:0.8;" x="487.833851" xlink:href="#m3226f64132" y="174.76"/>
      </g>
     </g>
     <g id="text_5">
      <!-- 2.0 -->
      <defs>
       <path d="M 19.1875 8.296875 
L 53.609375 8.296875 
L 53.609375 0 
L 7.328125 0 
L 7.328125 8.296875 
Q 12.9375 14.109375 22.625 23.890625 
Q 32.328125 33.6875 34.8125 36.53125 
Q 39.546875 41.84375 41.421875 45.53125 
Q 43.3125 49.21875 43.3125 52.78125 
Q 43.3125 58.59375 39.234375 62.25 
Q 35.15625 65.921875 28.609375 65.921875 
Q 23.96875 65.921875 18.8125 64.3125 
Q 13.671875 62.703125 7.8125 59.421875 
L 7.8125 69.390625 
Q 13.765625 71.78125 18.9375 73 
Q 24.125 74.21875 28.421875 74.21875 
Q 39.75 74.21875 46.484375 68.546875 
Q 53.21875 62.890625 53.21875 53.421875 
Q 53.21875 48.921875 51.53125 44.890625 
Q 49.859375 40.875 45.40625 35.40625 
Q 44.1875 33.984375 37.640625 27.21875 
Q 31.109375 20.453125 19.1875 8.296875 
z
" id="DejaVuSans-50"/>
      </defs>
      <g transform="translate(478.291976 190.878125)scale(0.12 -0.12)">
       <use xlink:href="#DejaVuSans-50"/>
       <use x="63.623047" xlink:href="#DejaVuSans-46"/>
       <use x="95.410156" xlink:href="#DejaVuSans-48"/>
      </g>
     </g>
    </g>
    <g id="text_6">
     <!-- Time (s) -->
     <defs>
      <path d="M -0.296875 72.90625 
L 61.375 72.90625 
L 61.375 64.59375 
L 35.5 64.59375 
L 35.5 0 
L 25.59375 0 
L 25.59375 64.59375 
L -0.296875 64.59375 
z
" id="DejaVuSans-84"/>
      <path d="M 9.421875 54.6875 
L 18.40625 54.6875 
L 18.40625 0 
L 9.421875 0 
z
M 9.421875 75.984375 
L 18.40625 75.984375 
L 18.40625 64.59375 
L 9.421875 64.59375 
z
" id="DejaVuSans-105"/>
      <path d="M 52 44.1875 
Q 55.375 50.25 60.0625 53.125 
Q 64.75 56 71.09375 56 
Q 79.640625 56 84.28125 50.015625 
Q 88.921875 44.046875 88.921875 33.015625 
L 88.921875 0 
L 79.890625 0 
L 79.890625 32.71875 
Q 79.890625 40.578125 77.09375 44.375 
Q 74.3125 48.1875 68.609375 48.1875 
Q 61.625 48.1875 57.5625 43.546875 
Q 53.515625 38.921875 53.515625 30.90625 
L 53.515625 0 
L 44.484375 0 
L 44.484375 32.71875 
Q 44.484375 40.625 41.703125 44.40625 
Q 38.921875 48.1875 33.109375 48.1875 
Q 26.21875 48.1875 22.15625 43.53125 
Q 18.109375 38.875 18.109375 30.90625 
L 18.109375 0 
L 9.078125 0 
L 9.078125 54.6875 
L 18.109375 54.6875 
L 18.109375 46.1875 
Q 21.1875 51.21875 25.484375 53.609375 
Q 29.78125 56 35.6875 56 
Q 41.65625 56 45.828125 52.96875 
Q 50 49.953125 52 44.1875 
z
" id="DejaVuSans-109"/>
      <path d="M 56.203125 29.59375 
L 56.203125 25.203125 
L 14.890625 25.203125 
Q 15.484375 15.921875 20.484375 11.0625 
Q 25.484375 6.203125 34.421875 6.203125 
Q 39.59375 6.203125 44.453125 7.46875 
Q 49.3125 8.734375 54.109375 11.28125 
L 54.109375 2.78125 
Q 49.265625 0.734375 44.1875 -0.34375 
Q 39.109375 -1.421875 33.890625 -1.421875 
Q 20.796875 -1.421875 13.15625 6.1875 
Q 5.515625 13.8125 5.515625 26.8125 
Q 5.515625 40.234375 12.765625 48.109375 
Q 20.015625 56 32.328125 56 
Q 43.359375 56 49.78125 48.890625 
Q 56.203125 41.796875 56.203125 29.59375 
z
M 47.21875 32.234375 
Q 47.125 39.59375 43.09375 43.984375 
Q 39.0625 48.390625 32.421875 48.390625 
Q 24.90625 48.390625 20.390625 44.140625 
Q 15.875 39.890625 15.1875 32.171875 
z
" id="DejaVuSans-101"/>
      <path id="DejaVuSans-32"/>
      <path d="M 31 75.875 
Q 24.46875 64.65625 21.28125 53.65625 
Q 18.109375 42.671875 18.109375 31.390625 
Q 18.109375 20.125 21.3125 9.0625 
Q 24.515625 -2 31 -13.1875 
L 23.1875 -13.1875 
Q 15.875 -1.703125 12.234375 9.375 
Q 8.59375 20.453125 8.59375 31.390625 
Q 8.59375 42.28125 12.203125 53.3125 
Q 15.828125 64.359375 23.1875 75.875 
z
" id="DejaVuSans-40"/>
      <path d="M 44.28125 53.078125 
L 44.28125 44.578125 
Q 40.484375 46.53125 36.375 47.5 
Q 32.28125 48.484375 27.875 48.484375 
Q 21.1875 48.484375 17.84375 46.4375 
Q 14.5 44.390625 14.5 40.28125 
Q 14.5 37.15625 16.890625 35.375 
Q 19.28125 33.59375 26.515625 31.984375 
L 29.59375 31.296875 
Q 39.15625 29.25 43.1875 25.515625 
Q 47.21875 21.78125 47.21875 15.09375 
Q 47.21875 7.46875 41.1875 3.015625 
Q 35.15625 -1.421875 24.609375 -1.421875 
Q 20.21875 -1.421875 15.453125 -0.5625 
Q 10.6875 0.296875 5.421875 2 
L 5.421875 11.28125 
Q 10.40625 8.6875 15.234375 7.390625 
Q 20.0625 6.109375 24.8125 6.109375 
Q 31.15625 6.109375 34.5625 8.28125 
Q 37.984375 10.453125 37.984375 14.40625 
Q 37.984375 18.0625 35.515625 20.015625 
Q 33.0625 21.96875 24.703125 23.78125 
L 21.578125 24.515625 
Q 13.234375 26.265625 9.515625 29.90625 
Q 5.8125 33.546875 5.8125 39.890625 
Q 5.8125 47.609375 11.28125 51.796875 
Q 16.75 56 26.8125 56 
Q 31.78125 56 36.171875 55.265625 
Q 40.578125 54.546875 44.28125 53.078125 
z
" id="DejaVuSans-115"/>
      <path d="M 8.015625 75.875 
L 15.828125 75.875 
Q 23.140625 64.359375 26.78125 53.3125 
Q 30.421875 42.28125 30.421875 31.390625 
Q 30.421875 20.453125 26.78125 9.375 
Q 23.140625 -1.703125 15.828125 -13.1875 
L 8.015625 -13.1875 
Q 14.5 -2 17.703125 9.0625 
Q 20.90625 20.125 20.90625 31.390625 
Q 20.90625 42.671875 17.703125 53.65625 
Q 14.5 64.65625 8.015625 75.875 
z
" id="DejaVuSans-41"/>
     </defs>
     <g transform="translate(293.16475 208.3155)scale(0.144 -0.144)">
      <use xlink:href="#DejaVuSans-84"/>
      <use x="61.037109" xlink:href="#DejaVuSans-105"/>
      <use x="88.820312" xlink:href="#DejaVuSans-109"/>
      <use x="186.232422" xlink:href="#DejaVuSans-101"/>
      <use x="247.755859" xlink:href="#DejaVuSans-32"/>
      <use x="279.542969" xlink:href="#DejaVuSans-40"/>
      <use x="318.556641" xlink:href="#DejaVuSans-115"/>
      <use x="370.65625" xlink:href="#DejaVuSans-41"/>
     </g>
    </g>
   </g>
   <g id="matplotlib.axis_2">
    <g id="ytick_1">
     <g id="line2d_6">
      <defs>
       <path d="M 0 0 
L -3.5 0 
" id="m03182c3493" style="stroke:#000000;stroke-width:0.8;"/>
      </defs>
      <g>
       <use style="stroke:#000000;stroke-width:0.8;" x="80.12" xlink:href="#m03182c3493" y="174.76"/>
      </g>
     </g>
     <g id="text_7">
      <!-- 0.0000 -->
      <g transform="translate(31.13125 179.319062)scale(0.12 -0.12)">
       <use xlink:href="#DejaVuSans-48"/>
       <use x="63.623047" xlink:href="#DejaVuSans-46"/>
       <use x="95.410156" xlink:href="#DejaVuSans-48"/>
       <use x="159.033203" xlink:href="#DejaVuSans-48"/>
       <use x="222.65625" xlink:href="#DejaVuSans-48"/>
       <use x="286.279297" xlink:href="#DejaVuSans-48"/>
      </g>
     </g>
    </g>
    <g id="ytick_2">
     <g id="line2d_7">
      <g>
       <use style="stroke:#000000;stroke-width:0.8;" x="80.12" xlink:href="#m03182c3493" y="153.015809"/>
      </g>
     </g>
     <g id="text_8">
      <!-- 0.0025 -->
      <g transform="translate(31.13125 157.574872)scale(0.12 -0.12)">
       <use xlink:href="#DejaVuSans-48"/>
       <use x="63.623047" xlink:href="#DejaVuSans-46"/>
       <use x="95.410156" xlink:href="#DejaVuSans-48"/>
       <use x="159.033203" xlink:href="#DejaVuSans-48"/>
       <use x="222.65625" xlink:href="#DejaVuSans-50"/>
       <use x="286.279297" xlink:href="#DejaVuSans-53"/>
      </g>
     </g>
    </g>
    <g id="ytick_3">
     <g id="line2d_8">
      <g>
       <use style="stroke:#000000;stroke-width:0.8;" x="80.12" xlink:href="#m03182c3493" y="131.271618"/>
      </g>
     </g>
     <g id="text_9">
      <!-- 0.0050 -->
      <g transform="translate(31.13125 135.830681)scale(0.12 -0.12)">
       <use xlink:href="#DejaVuSans-48"/>
       <use x="63.623047" xlink:href="#DejaVuSans-46"/>
       <use x="95.410156" xlink:href="#DejaVuSans-48"/>
       <use x="159.033203" xlink:href="#DejaVuSans-48"/>
       <use x="222.65625" xlink:href="#DejaVuSans-53"/>
       <use x="286.279297" xlink:href="#DejaVuSans-48"/>
      </g>
     </g>
    </g>
    <g id="ytick_4">
     <g id="line2d_9">
      <g>
       <use style="stroke:#000000;stroke-width:0.8;" x="80.12" xlink:href="#m03182c3493" y="109.527428"/>
      </g>
     </g>
     <g id="text_10">
      <!-- 0.0075 -->
      <defs>
       <path d="M 8.203125 72.90625 
L 55.078125 72.90625 
L 55.078125 68.703125 
L 28.609375 0 
L 18.3125 0 
L 43.21875 64.59375 
L 8.203125 64.59375 
z
" id="DejaVuSans-55"/>
      </defs>
      <g transform="translate(31.13125 114.08649)scale(0.12 -0.12)">
       <use xlink:href="#DejaVuSans-48"/>
       <use x="63.623047" xlink:href="#DejaVuSans-46"/>
       <use x="95.410156" xlink:href="#DejaVuSans-48"/>
       <use x="159.033203" xlink:href="#DejaVuSans-48"/>
       <use x="222.65625" xlink:href="#DejaVuSans-55"/>
       <use x="286.279297" xlink:href="#DejaVuSans-53"/>
      </g>
     </g>
    </g>
    <g id="ytick_5">
     <g id="line2d_10">
      <g>
       <use style="stroke:#000000;stroke-width:0.8;" x="80.12" xlink:href="#m03182c3493" y="87.783237"/>
      </g>
     </g>
     <g id="text_11">
      <!-- 0.0100 -->
      <g transform="translate(31.13125 92.342299)scale(0.12 -0.12)">
       <use xlink:href="#DejaVuSans-48"/>
       <use x="63.623047" xlink:href="#DejaVuSans-46"/>
       <use x="95.410156" xlink:href="#DejaVuSans-48"/>
       <use x="159.033203" xlink:href="#DejaVuSans-49"/>
       <use x="222.65625" xlink:href="#DejaVuSans-48"/>
       <use x="286.279297" xlink:href="#DejaVuSans-48"/>
      </g>
     </g>
    </g>
    <g id="ytick_6">
     <g id="line2d_11">
      <g>
       <use style="stroke:#000000;stroke-width:0.8;" x="80.12" xlink:href="#m03182c3493" y="66.039046"/>
      </g>
     </g>
     <g id="text_12">
      <!-- 0.0125 -->
      <g transform="translate(31.13125 70.598109)scale(0.12 -0.12)">
       <use xlink:href="#DejaVuSans-48"/>
       <use x="63.623047" xlink:href="#DejaVuSans-46"/>
       <use x="95.410156" xlink:href="#DejaVuSans-48"/>
       <use x="159.033203" xlink:href="#DejaVuSans-49"/>
       <use x="222.65625" xlink:href="#DejaVuSans-50"/>
       <use x="286.279297" xlink:href="#DejaVuSans-53"/>
      </g>
     </g>
    </g>
    <g id="ytick_7">
     <g id="line2d_12">
      <g>
       <use style="stroke:#000000;stroke-width:0.8;" x="80.12" xlink:href="#m03182c3493" y="44.294855"/>
      </g>
     </g>
     <g id="text_13">
      <!-- 0.0150 -->
      <g transform="translate(31.13125 48.853918)scale(0.12 -0.12)">
       <use xlink:href="#DejaVuSans-48"/>
       <use x="63.623047" xlink:href="#DejaVuSans-46"/>
       <use x="95.410156" xlink:href="#DejaVuSans-48"/>
       <use x="159.033203" xlink:href="#DejaVuSans-49"/>
       <use x="222.65625" xlink:href="#DejaVuSans-53"/>
       <use x="286.279297" xlink:href="#DejaVuSans-48"/>
      </g>
     </g>
    </g>
    <g id="text_14">
     <!-- Beta-bin $\rho$ -->
     <defs>
      <path d="M 19.671875 34.8125 
L 19.671875 8.109375 
L 35.5 8.109375 
Q 43.453125 8.109375 47.28125 11.40625 
Q 51.125 14.703125 51.125 21.484375 
Q 51.125 28.328125 47.28125 31.5625 
Q 43.453125 34.8125 35.5 34.8125 
z
M 19.671875 64.796875 
L 19.671875 42.828125 
L 34.28125 42.828125 
Q 41.5 42.828125 45.03125 45.53125 
Q 48.578125 48.25 48.578125 53.8125 
Q 48.578125 59.328125 45.03125 62.0625 
Q 41.5 64.796875 34.28125 64.796875 
z
M 9.8125 72.90625 
L 35.015625 72.90625 
Q 46.296875 72.90625 52.390625 68.21875 
Q 58.5 63.53125 58.5 54.890625 
Q 58.5 48.1875 55.375 44.234375 
Q 52.25 40.28125 46.1875 39.3125 
Q 53.46875 37.75 57.5 32.78125 
Q 61.53125 27.828125 61.53125 20.40625 
Q 61.53125 10.640625 54.890625 5.3125 
Q 48.25 0 35.984375 0 
L 9.8125 0 
z
" id="DejaVuSans-66"/>
      <path d="M 18.3125 70.21875 
L 18.3125 54.6875 
L 36.8125 54.6875 
L 36.8125 47.703125 
L 18.3125 47.703125 
L 18.3125 18.015625 
Q 18.3125 11.328125 20.140625 9.421875 
Q 21.96875 7.515625 27.59375 7.515625 
L 36.8125 7.515625 
L 36.8125 0 
L 27.59375 0 
Q 17.1875 0 13.234375 3.875 
Q 9.28125 7.765625 9.28125 18.015625 
L 9.28125 47.703125 
L 2.6875 47.703125 
L 2.6875 54.6875 
L 9.28125 54.6875 
L 9.28125 70.21875 
z
" id="DejaVuSans-116"/>
      <path d="M 34.28125 27.484375 
Q 23.390625 27.484375 19.1875 25 
Q 14.984375 22.515625 14.984375 16.5 
Q 14.984375 11.71875 18.140625 8.90625 
Q 21.296875 6.109375 26.703125 6.109375 
Q 34.1875 6.109375 38.703125 11.40625 
Q 43.21875 16.703125 43.21875 25.484375 
L 43.21875 27.484375 
z
M 52.203125 31.203125 
L 52.203125 0 
L 43.21875 0 
L 43.21875 8.296875 
Q 40.140625 3.328125 35.546875 0.953125 
Q 30.953125 -1.421875 24.3125 -1.421875 
Q 15.921875 -1.421875 10.953125 3.296875 
Q 6 8.015625 6 15.921875 
Q 6 25.140625 12.171875 29.828125 
Q 18.359375 34.515625 30.609375 34.515625 
L 43.21875 34.515625 
L 43.21875 35.40625 
Q 43.21875 41.609375 39.140625 45 
Q 35.0625 48.390625 27.6875 48.390625 
Q 23 48.390625 18.546875 47.265625 
Q 14.109375 46.140625 10.015625 43.890625 
L 10.015625 52.203125 
Q 14.9375 54.109375 19.578125 55.046875 
Q 24.21875 56 28.609375 56 
Q 40.484375 56 46.34375 49.84375 
Q 52.203125 43.703125 52.203125 31.203125 
z
" id="DejaVuSans-97"/>
      <path d="M 4.890625 31.390625 
L 31.203125 31.390625 
L 31.203125 23.390625 
L 4.890625 23.390625 
z
" id="DejaVuSans-45"/>
      <path d="M 48.6875 27.296875 
Q 48.6875 37.203125 44.609375 42.84375 
Q 40.53125 48.484375 33.40625 48.484375 
Q 26.265625 48.484375 22.1875 42.84375 
Q 18.109375 37.203125 18.109375 27.296875 
Q 18.109375 17.390625 22.1875 11.75 
Q 26.265625 6.109375 33.40625 6.109375 
Q 40.53125 6.109375 44.609375 11.75 
Q 48.6875 17.390625 48.6875 27.296875 
z
M 18.109375 46.390625 
Q 20.953125 51.265625 25.265625 53.625 
Q 29.59375 56 35.59375 56 
Q 45.5625 56 51.78125 48.09375 
Q 58.015625 40.1875 58.015625 27.296875 
Q 58.015625 14.40625 51.78125 6.484375 
Q 45.5625 -1.421875 35.59375 -1.421875 
Q 29.59375 -1.421875 25.265625 0.953125 
Q 20.953125 3.328125 18.109375 8.203125 
L 18.109375 0 
L 9.078125 0 
L 9.078125 75.984375 
L 18.109375 75.984375 
z
" id="DejaVuSans-98"/>
      <path d="M 54.890625 33.015625 
L 54.890625 0 
L 45.90625 0 
L 45.90625 32.71875 
Q 45.90625 40.484375 42.875 44.328125 
Q 39.84375 48.1875 33.796875 48.1875 
Q 26.515625 48.1875 22.3125 43.546875 
Q 18.109375 38.921875 18.109375 30.90625 
L 18.109375 0 
L 9.078125 0 
L 9.078125 54.6875 
L 18.109375 54.6875 
L 18.109375 46.1875 
Q 21.34375 51.125 25.703125 53.5625 
Q 30.078125 56 35.796875 56 
Q 45.21875 56 50.046875 50.171875 
Q 54.890625 44.34375 54.890625 33.015625 
z
" id="DejaVuSans-110"/>
      <path d="M 18.796875 44.921875 
Q 22.703125 49.90625 30.953125 54.296875 
Q 34.1875 56 43.0625 56 
Q 53.03125 56 57.71875 48.09375 
Q 62.40625 40.1875 59.90625 27.296875 
Q 57.375 14.40625 49.609375 6.484375 
Q 41.84375 -1.421875 31.890625 -1.421875 
Q 25.875 -1.421875 22.015625 0.984375 
Q 18.171875 3.328125 16.3125 8.203125 
L 10.640625 -20.796875 
L 1.609375 -20.796875 
L 10.890625 26.8125 
Q 13.09375 38.09375 18.796875 44.921875 
z
M 50.59375 27.296875 
Q 52.484375 37.203125 49.515625 42.875 
Q 46.53125 48.484375 39.40625 48.484375 
Q 32.28125 48.484375 27.09375 42.875 
Q 21.921875 37.203125 20.015625 27.296875 
Q 18.0625 17.390625 21.046875 11.71875 
Q 24.03125 6.109375 31.15625 6.109375 
Q 38.28125 6.109375 43.453125 11.71875 
Q 48.640625 17.390625 50.59375 27.296875 
z
" id="DejaVuSans-Oblique-961"/>
     </defs>
     <g transform="translate(24.10725 138.044)rotate(-90)scale(0.144 -0.144)">
      <use transform="translate(0 0.015625)" xlink:href="#DejaVuSans-66"/>
      <use transform="translate(68.603516 0.015625)" xlink:href="#DejaVuSans-101"/>
      <use transform="translate(130.126953 0.015625)" xlink:href="#DejaVuSans-116"/>
      <use transform="translate(169.335938 0.015625)" xlink:href="#DejaVuSans-97"/>
      <use transform="translate(230.615234 0.015625)" xlink:href="#DejaVuSans-45"/>
      <use transform="translate(266.699219 0.015625)" xlink:href="#DejaVuSans-98"/>
      <use transform="translate(330.175781 0.015625)" xlink:href="#DejaVuSans-105"/>
      <use transform="translate(357.958984 0.015625)" xlink:href="#DejaVuSans-110"/>
      <use transform="translate(421.337891 0.015625)" xlink:href="#DejaVuSans-32"/>
      <use transform="translate(453.125 0.015625)" xlink:href="#DejaVuSans-Oblique-961"/>
     </g>
    </g>
   </g>
   <g id="line2d_13">
    <path clip-path="url(#p34b64cb48b)" d="M 80.12 143.672356 
L 81.764339 143.668522 
L 83.408678 161.206427 
L 85.053017 159.937023 
L 86.697356 161.030488 
L 88.341695 161.30712 
L 91.630373 161.127446 
L 93.274712 160.499524 
L 94.919051 160.275609 
L 96.56339 160.767496 
L 98.207729 161.003208 
L 99.852068 160.467634 
L 101.496407 160.612317 
L 103.140746 160.373605 
L 104.785085 161.273598 
L 106.429424 161.330845 
L 108.073763 160.957976 
L 109.718102 161.213912 
L 111.362441 161.210574 
L 113.00678 159.601277 
L 114.651119 160.597601 
L 116.295458 160.715488 
L 117.939797 160.671723 
L 119.584136 160.787958 
L 122.872814 160.691835 
L 124.517153 160.309103 
L 126.161492 161.251834 
L 127.805831 159.725366 
L 129.450169 159.149119 
L 131.094508 160.192069 
L 132.738847 160.045465 
L 134.383186 159.637099 
L 136.027525 160.617434 
L 137.671864 159.853564 
L 139.316203 161.035203 
L 140.960542 160.987335 
L 142.604881 159.914946 
L 144.24922 160.296621 
L 145.893559 159.698913 
L 147.537898 160.96737 
L 149.182237 161.586371 
L 150.826576 160.346085 
L 154.115254 160.264862 
L 155.759593 160.016651 
L 157.403932 157.538755 
L 159.048271 154.208133 
L 160.69261 153.147885 
L 162.336949 154.269219 
L 163.981288 156.028189 
L 165.625627 157.386022 
L 167.269966 156.588586 
L 168.914305 157.226236 
L 170.558644 155.888253 
L 172.202983 154.702097 
L 173.847322 151.086085 
L 175.491661 150.998633 
L 177.136 154.351962 
L 178.780339 156.089711 
L 180.424678 156.777048 
L 182.069017 140.090597 
L 183.713356 121.578962 
L 185.357695 119.424693 
L 187.002034 69.029915 
L 188.646373 66.003644 
L 190.290712 82.645993 
L 191.935051 134.249213 
L 193.57939 113.467873 
L 195.223729 145.823369 
L 196.868068 143.322955 
L 198.512407 143.094108 
L 200.156746 146.418233 
L 201.801085 148.784053 
L 203.445424 150.793579 
L 205.089763 153.83564 
L 206.734102 154.560818 
L 208.378441 156.42724 
L 210.02278 156.254399 
L 211.667119 157.657418 
L 214.955797 158.752694 
L 216.600136 160.028306 
L 218.244475 160.540902 
L 219.888814 160.564544 
L 221.533153 161.234745 
L 223.177492 159.392741 
L 226.466169 160.131841 
L 228.110508 142.764034 
L 229.754847 142.441278 
L 231.399186 160.425939 
L 233.043525 159.622722 
L 234.687864 158.341864 
L 236.332203 158.288322 
L 237.976542 158.933013 
L 239.620881 159.176692 
L 241.26522 158.929231 
L 242.909559 159.446791 
L 246.198237 159.980348 
L 247.842576 160.050356 
L 249.486915 159.609186 
L 251.131254 159.637729 
L 252.775593 160.752459 
L 254.419932 159.705275 
L 256.064271 161.191552 
L 257.70861 160.979374 
L 259.352949 159.637402 
L 260.997288 161.254117 
L 262.641627 160.00632 
L 264.285966 159.398506 
L 265.930305 159.65283 
L 267.574644 160.936519 
L 269.218983 160.148513 
L 270.863322 159.14149 
L 272.507661 160.311067 
L 274.152 160.158772 
L 275.796339 159.143827 
L 279.085017 160.093203 
L 280.729356 160.040075 
L 282.373695 161.267477 
L 284.018034 160.676489 
L 285.662373 159.191755 
L 287.306712 161.168191 
L 288.951051 161.118234 
L 290.59539 161.323931 
L 292.239729 159.901311 
L 293.884068 162.060835 
L 295.528407 161.185084 
L 297.172746 161.488933 
L 298.817085 160.641038 
L 300.461424 161.291008 
L 302.105763 160.515053 
L 303.750102 160.053706 
L 305.394441 159.860515 
L 307.03878 161.08567 
L 308.683119 160.703062 
L 310.327458 161.173078 
L 311.971797 160.819929 
L 313.616136 161.511294 
L 315.260475 160.486596 
L 316.904814 159.790386 
L 320.193492 160.416035 
L 321.837831 159.877801 
L 323.482169 160.75316 
L 325.126508 159.820158 
L 326.770847 160.276655 
L 334.992542 161.350617 
L 336.636881 161.263027 
L 338.28122 161.436856 
L 339.925559 160.99265 
L 341.569898 161.162228 
L 343.214237 160.817841 
L 344.858576 162.763909 
L 346.502915 161.202019 
L 348.147254 161.656522 
L 349.791593 161.402019 
L 351.435932 160.430224 
L 353.080271 160.031895 
L 354.72461 160.569132 
L 356.368949 159.764985 
L 358.013288 159.40945 
L 359.657627 160.320349 
L 361.301966 159.321088 
L 362.946305 159.949848 
L 364.590644 159.709885 
L 366.234983 160.559438 
L 367.879322 160.437747 
L 369.523661 161.669728 
L 371.168 160.421393 
L 374.456678 160.784636 
L 376.101017 160.770349 
L 377.745356 161.337484 
L 379.389695 161.451243 
L 381.034034 162.212964 
L 382.678373 161.097123 
L 384.322712 162.891182 
L 385.967051 161.501048 
L 387.61139 160.607407 
L 389.255729 161.117295 
L 390.900068 160.975047 
L 392.544407 161.756465 
L 394.188746 161.016078 
L 395.833085 161.011311 
L 397.477424 160.774382 
L 399.121763 161.427184 
L 402.410441 161.416052 
L 404.05478 160.028038 
L 405.699119 161.110245 
L 407.343458 160.275791 
L 408.987797 160.561886 
L 410.632136 160.491447 
L 412.276475 160.744292 
L 413.920814 162.021226 
L 415.565153 161.816932 
L 417.209492 160.433155 
L 418.853831 162.282883 
L 420.498169 160.39409 
L 422.142508 161.131515 
L 425.431186 160.74475 
L 427.075525 159.475789 
L 428.719864 159.660163 
L 430.364203 158.877734 
L 432.008542 159.659986 
L 433.652881 159.792147 
L 435.29722 142.673215 
L 436.941559 143.62359 
L 438.585898 159.450105 
L 440.230237 158.298979 
L 441.874576 158.623989 
L 443.518915 160.65601 
L 445.163254 158.343711 
L 448.451932 160.033964 
L 450.096271 159.166956 
L 453.384949 159.421858 
L 455.029288 160.471531 
L 456.673627 159.615837 
L 458.317966 159.012488 
L 459.962305 159.260997 
L 461.606644 141.272654 
L 463.250983 159.092614 
L 464.895322 160.353752 
L 466.539661 142.172651 
L 468.184 160.927027 
L 469.828339 158.8384 
L 471.472678 159.781034 
L 473.117017 160.330492 
L 474.761356 159.310051 
L 476.405695 161.083449 
L 478.050034 160.796603 
L 479.694373 160.163976 
L 481.338712 159.938408 
L 482.983051 161.009225 
L 484.62739 160.738637 
L 486.271729 161.66916 
L 487.916068 160.498988 
L 489.560407 161.342036 
L 491.204746 161.476139 
L 494.493424 160.371743 
L 496.137763 143.324403 
L 497.782102 160.369084 
L 499.426441 161.391372 
L 501.07078 161.999168 
L 502.715119 160.924775 
L 504.359458 160.596467 
L 506.003797 161.025461 
L 507.648136 159.868598 
L 509.292475 143.640054 
L 510.936814 141.871682 
L 512.581153 142.50558 
L 514.225492 160.602253 
L 515.869831 160.837048 
L 517.514169 161.398489 
L 522.447186 159.171908 
L 524.091525 160.167361 
L 525.735864 161.00447 
L 527.380203 162.494241 
L 529.024542 161.723414 
L 530.668881 160.563941 
L 532.31322 160.033718 
L 533.957559 160.079667 
L 535.601898 161.480315 
L 537.246237 160.71262 
L 538.890576 160.20403 
L 540.534915 160.293983 
L 542.179254 161.573008 
L 543.823593 160.521557 
L 545.467932 160.26988 
L 547.112271 160.698668 
L 548.75661 161.336179 
L 550.400949 160.786101 
L 552.045288 159.473501 
L 553.689627 160.888136 
L 555.333966 161.141286 
L 556.978305 160.924837 
L 558.622644 159.800241 
L 560.266983 161.417722 
L 561.911322 161.975521 
L 563.555661 160.551182 
L 565.2 160.170568 
L 565.2 160.170568 
" style="fill:none;stroke:#0000ff;stroke-linecap:square;stroke-width:1.5;"/>
   </g>
   <g id="patch_3">
    <path d="M 80.12 174.76 
L 80.12 26.88 
" style="fill:none;stroke:#000000;stroke-linecap:square;stroke-linejoin:miter;stroke-width:0.8;"/>
   </g>
   <g id="patch_4">
    <path d="M 565.2 174.76 
L 565.2 26.88 
" style="fill:none;stroke:#000000;stroke-linecap:square;stroke-linejoin:miter;stroke-width:0.8;"/>
   </g>
   <g id="patch_5">
    <path d="M 80.12 174.76 
L 565.2 174.76 
" style="fill:none;stroke:#000000;stroke-linecap:square;stroke-linejoin:miter;stroke-width:0.8;"/>
   </g>
   <g id="patch_6">
    <path d="M 80.12 26.88 
L 565.2 26.88 
" style="fill:none;stroke:#000000;stroke-linecap:square;stroke-linejoin:miter;stroke-width:0.8;"/>
   </g>
   <g id="text_15">
    <!-- V1, Num Trials=160 All stimulated trials, Num cells = 160 -->
    <defs>
     <path d="M 28.609375 0 
L 0.78125 72.90625 
L 11.078125 72.90625 
L 34.1875 11.53125 
L 57.328125 72.90625 
L 67.578125 72.90625 
L 39.796875 0 
z
" id="DejaVuSans-86"/>
     <path d="M 11.71875 12.40625 
L 22.015625 12.40625 
L 22.015625 4 
L 14.015625 -11.625 
L 7.71875 -11.625 
L 11.71875 4 
z
" id="DejaVuSans-44"/>
     <path d="M 9.8125 72.90625 
L 23.09375 72.90625 
L 55.421875 11.921875 
L 55.421875 72.90625 
L 64.984375 72.90625 
L 64.984375 0 
L 51.703125 0 
L 19.390625 60.984375 
L 19.390625 0 
L 9.8125 0 
z
" id="DejaVuSans-78"/>
     <path d="M 8.5 21.578125 
L 8.5 54.6875 
L 17.484375 54.6875 
L 17.484375 21.921875 
Q 17.484375 14.15625 20.5 10.265625 
Q 23.53125 6.390625 29.59375 6.390625 
Q 36.859375 6.390625 41.078125 11.03125 
Q 45.3125 15.671875 45.3125 23.6875 
L 45.3125 54.6875 
L 54.296875 54.6875 
L 54.296875 0 
L 45.3125 0 
L 45.3125 8.40625 
Q 42.046875 3.421875 37.71875 1 
Q 33.40625 -1.421875 27.6875 -1.421875 
Q 18.265625 -1.421875 13.375 4.4375 
Q 8.5 10.296875 8.5 21.578125 
z
M 31.109375 56 
z
" id="DejaVuSans-117"/>
     <path d="M 41.109375 46.296875 
Q 39.59375 47.171875 37.8125 47.578125 
Q 36.03125 48 33.890625 48 
Q 26.265625 48 22.1875 43.046875 
Q 18.109375 38.09375 18.109375 28.8125 
L 18.109375 0 
L 9.078125 0 
L 9.078125 54.6875 
L 18.109375 54.6875 
L 18.109375 46.1875 
Q 20.953125 51.171875 25.484375 53.578125 
Q 30.03125 56 36.53125 56 
Q 37.453125 56 38.578125 55.875 
Q 39.703125 55.765625 41.0625 55.515625 
z
" id="DejaVuSans-114"/>
     <path d="M 9.421875 75.984375 
L 18.40625 75.984375 
L 18.40625 0 
L 9.421875 0 
z
" id="DejaVuSans-108"/>
     <path d="M 10.59375 45.40625 
L 73.1875 45.40625 
L 73.1875 37.203125 
L 10.59375 37.203125 
z
M 10.59375 25.484375 
L 73.1875 25.484375 
L 73.1875 17.1875 
L 10.59375 17.1875 
z
" id="DejaVuSans-61"/>
     <path d="M 33.015625 40.375 
Q 26.375 40.375 22.484375 35.828125 
Q 18.609375 31.296875 18.609375 23.390625 
Q 18.609375 15.53125 22.484375 10.953125 
Q 26.375 6.390625 33.015625 6.390625 
Q 39.65625 6.390625 43.53125 10.953125 
Q 47.40625 15.53125 47.40625 23.390625 
Q 47.40625 31.296875 43.53125 35.828125 
Q 39.65625 40.375 33.015625 40.375 
z
M 52.59375 71.296875 
L 52.59375 62.3125 
Q 48.875 64.0625 45.09375 64.984375 
Q 41.3125 65.921875 37.59375 65.921875 
Q 27.828125 65.921875 22.671875 59.328125 
Q 17.53125 52.734375 16.796875 39.40625 
Q 19.671875 43.65625 24.015625 45.921875 
Q 28.375 48.1875 33.59375 48.1875 
Q 44.578125 48.1875 50.953125 41.515625 
Q 57.328125 34.859375 57.328125 23.390625 
Q 57.328125 12.15625 50.6875 5.359375 
Q 44.046875 -1.421875 33.015625 -1.421875 
Q 20.359375 -1.421875 13.671875 8.265625 
Q 6.984375 17.96875 6.984375 36.375 
Q 6.984375 53.65625 15.1875 63.9375 
Q 23.390625 74.21875 37.203125 74.21875 
Q 40.921875 74.21875 44.703125 73.484375 
Q 48.484375 72.75 52.59375 71.296875 
z
" id="DejaVuSans-54"/>
     <path d="M 34.1875 63.1875 
L 20.796875 26.90625 
L 47.609375 26.90625 
z
M 28.609375 72.90625 
L 39.796875 72.90625 
L 67.578125 0 
L 57.328125 0 
L 50.6875 18.703125 
L 17.828125 18.703125 
L 11.1875 0 
L 0.78125 0 
z
" id="DejaVuSans-65"/>
     <path d="M 45.40625 46.390625 
L 45.40625 75.984375 
L 54.390625 75.984375 
L 54.390625 0 
L 45.40625 0 
L 45.40625 8.203125 
Q 42.578125 3.328125 38.25 0.953125 
Q 33.9375 -1.421875 27.875 -1.421875 
Q 17.96875 -1.421875 11.734375 6.484375 
Q 5.515625 14.40625 5.515625 27.296875 
Q 5.515625 40.1875 11.734375 48.09375 
Q 17.96875 56 27.875 56 
Q 33.9375 56 38.25 53.625 
Q 42.578125 51.265625 45.40625 46.390625 
z
M 14.796875 27.296875 
Q 14.796875 17.390625 18.875 11.75 
Q 22.953125 6.109375 30.078125 6.109375 
Q 37.203125 6.109375 41.296875 11.75 
Q 45.40625 17.390625 45.40625 27.296875 
Q 45.40625 37.203125 41.296875 42.84375 
Q 37.203125 48.484375 30.078125 48.484375 
Q 22.953125 48.484375 18.875 42.84375 
Q 14.796875 37.203125 14.796875 27.296875 
z
" id="DejaVuSans-100"/>
     <path d="M 48.78125 52.59375 
L 48.78125 44.1875 
Q 44.96875 46.296875 41.140625 47.34375 
Q 37.3125 48.390625 33.40625 48.390625 
Q 24.65625 48.390625 19.8125 42.84375 
Q 14.984375 37.3125 14.984375 27.296875 
Q 14.984375 17.28125 19.8125 11.734375 
Q 24.65625 6.203125 33.40625 6.203125 
Q 37.3125 6.203125 41.140625 7.25 
Q 44.96875 8.296875 48.78125 10.40625 
L 48.78125 2.09375 
Q 45.015625 0.34375 40.984375 -0.53125 
Q 36.96875 -1.421875 32.421875 -1.421875 
Q 20.0625 -1.421875 12.78125 6.34375 
Q 5.515625 14.109375 5.515625 27.296875 
Q 5.515625 40.671875 12.859375 48.328125 
Q 20.21875 56 33.015625 56 
Q 37.15625 56 41.109375 55.140625 
Q 45.0625 54.296875 48.78125 52.59375 
z
" id="DejaVuSans-99"/>
    </defs>
    <g transform="translate(148.444375 20.88)scale(0.12 -0.12)">
     <use xlink:href="#DejaVuSans-86"/>
     <use x="68.408203" xlink:href="#DejaVuSans-49"/>
     <use x="132.03125" xlink:href="#DejaVuSans-44"/>
     <use x="163.818359" xlink:href="#DejaVuSans-32"/>
     <use x="195.605469" xlink:href="#DejaVuSans-78"/>
     <use x="270.410156" xlink:href="#DejaVuSans-117"/>
     <use x="333.789062" xlink:href="#DejaVuSans-109"/>
     <use x="431.201172" xlink:href="#DejaVuSans-32"/>
     <use x="462.988281" xlink:href="#DejaVuSans-84"/>
     <use x="523.853516" xlink:href="#DejaVuSans-114"/>
     <use x="564.966797" xlink:href="#DejaVuSans-105"/>
     <use x="592.75" xlink:href="#DejaVuSans-97"/>
     <use x="654.029297" xlink:href="#DejaVuSans-108"/>
     <use x="681.8125" xlink:href="#DejaVuSans-115"/>
     <use x="733.912109" xlink:href="#DejaVuSans-61"/>
     <use x="817.701172" xlink:href="#DejaVuSans-49"/>
     <use x="881.324219" xlink:href="#DejaVuSans-54"/>
     <use x="944.947266" xlink:href="#DejaVuSans-48"/>
     <use x="1008.570312" xlink:href="#DejaVuSans-32"/>
     <use x="1040.357422" xlink:href="#DejaVuSans-65"/>
     <use x="1108.765625" xlink:href="#DejaVuSans-108"/>
     <use x="1136.548828" xlink:href="#DejaVuSans-108"/>
     <use x="1164.332031" xlink:href="#DejaVuSans-32"/>
     <use x="1196.119141" xlink:href="#DejaVuSans-115"/>
     <use x="1248.21875" xlink:href="#DejaVuSans-116"/>
     <use x="1287.427734" xlink:href="#DejaVuSans-105"/>
     <use x="1315.210938" xlink:href="#DejaVuSans-109"/>
     <use x="1412.623047" xlink:href="#DejaVuSans-117"/>
     <use x="1476.001953" xlink:href="#DejaVuSans-108"/>
     <use x="1503.785156" xlink:href="#DejaVuSans-97"/>
     <use x="1565.064453" xlink:href="#DejaVuSans-116"/>
     <use x="1604.273438" xlink:href="#DejaVuSans-101"/>
     <use x="1665.796875" xlink:href="#DejaVuSans-100"/>
     <use x="1729.273438" xlink:href="#DejaVuSans-32"/>
     <use x="1761.060547" xlink:href="#DejaVuSans-116"/>
     <use x="1800.269531" xlink:href="#DejaVuSans-114"/>
     <use x="1841.382812" xlink:href="#DejaVuSans-105"/>
     <use x="1869.166016" xlink:href="#DejaVuSans-97"/>
     <use x="1930.445312" xlink:href="#DejaVuSans-108"/>
     <use x="1958.228516" xlink:href="#DejaVuSans-115"/>
     <use x="2010.328125" xlink:href="#DejaVuSans-44"/>
     <use x="2042.115234" xlink:href="#DejaVuSans-32"/>
     <use x="2073.902344" xlink:href="#DejaVuSans-78"/>
     <use x="2148.707031" xlink:href="#DejaVuSans-117"/>
     <use x="2212.085938" xlink:href="#DejaVuSans-109"/>
     <use x="2309.498047" xlink:href="#DejaVuSans-32"/>
     <use x="2341.285156" xlink:href="#DejaVuSans-99"/>
     <use x="2396.265625" xlink:href="#DejaVuSans-101"/>
     <use x="2457.789062" xlink:href="#DejaVuSans-108"/>
     <use x="2485.572266" xlink:href="#DejaVuSans-108"/>
     <use x="2513.355469" xlink:href="#DejaVuSans-115"/>
     <use x="2565.455078" xlink:href="#DejaVuSans-32"/>
     <use x="2597.242188" xlink:href="#DejaVuSans-61"/>
     <use x="2681.03125" xlink:href="#DejaVuSans-32"/>
     <use x="2712.818359" xlink:href="#DejaVuSans-49"/>
     <use x="2776.441406" xlink:href="#DejaVuSans-54"/>
     <use x="2840.064453" xlink:href="#DejaVuSans-48"/>
    </g>
   </g>
   <g id="legend_1">
    <g id="patch_7">
     <path d="M 422.64 71.73375 
L 556.8 71.73375 
Q 559.2 71.73375 559.2 69.33375 
L 559.2 35.28 
Q 559.2 32.88 556.8 32.88 
L 422.64 32.88 
Q 420.24 32.88 420.24 35.28 
L 420.24 69.33375 
Q 420.24 71.73375 422.64 71.73375 
z
" style="fill:#ffffff;opacity:0.8;stroke:#cccccc;stroke-linejoin:miter;"/>
    </g>
    <g id="line2d_14">
     <path d="M 425.04 42.6 
L 449.04 42.6 
" style="fill:none;stroke:#0000ff;stroke-linecap:square;stroke-width:1.5;"/>
    </g>
    <g id="line2d_15"/>
    <g id="text_16">
     <!-- Beta-Binomial $\rho$ -->
     <defs>
      <path d="M 30.609375 48.390625 
Q 23.390625 48.390625 19.1875 42.75 
Q 14.984375 37.109375 14.984375 27.296875 
Q 14.984375 17.484375 19.15625 11.84375 
Q 23.34375 6.203125 30.609375 6.203125 
Q 37.796875 6.203125 41.984375 11.859375 
Q 46.1875 17.53125 46.1875 27.296875 
Q 46.1875 37.015625 41.984375 42.703125 
Q 37.796875 48.390625 30.609375 48.390625 
z
M 30.609375 56 
Q 42.328125 56 49.015625 48.375 
Q 55.71875 40.765625 55.71875 27.296875 
Q 55.71875 13.875 49.015625 6.21875 
Q 42.328125 -1.421875 30.609375 -1.421875 
Q 18.84375 -1.421875 12.171875 6.21875 
Q 5.515625 13.875 5.515625 27.296875 
Q 5.515625 40.765625 12.171875 48.375 
Q 18.84375 56 30.609375 56 
z
" id="DejaVuSans-111"/>
     </defs>
     <g transform="translate(458.64 46.8)scale(0.12 -0.12)">
      <use transform="translate(0 0.015625)" xlink:href="#DejaVuSans-66"/>
      <use transform="translate(68.603516 0.015625)" xlink:href="#DejaVuSans-101"/>
      <use transform="translate(130.126953 0.015625)" xlink:href="#DejaVuSans-116"/>
      <use transform="translate(169.335938 0.015625)" xlink:href="#DejaVuSans-97"/>
      <use transform="translate(230.615234 0.015625)" xlink:href="#DejaVuSans-45"/>
      <use transform="translate(266.699219 0.015625)" xlink:href="#DejaVuSans-66"/>
      <use transform="translate(335.302734 0.015625)" xlink:href="#DejaVuSans-105"/>
      <use transform="translate(363.085938 0.015625)" xlink:href="#DejaVuSans-110"/>
      <use transform="translate(426.464844 0.015625)" xlink:href="#DejaVuSans-111"/>
      <use transform="translate(487.646484 0.015625)" xlink:href="#DejaVuSans-109"/>
      <use transform="translate(585.058594 0.015625)" xlink:href="#DejaVuSans-105"/>
      <use transform="translate(612.841797 0.015625)" xlink:href="#DejaVuSans-97"/>
      <use transform="translate(674.121094 0.015625)" xlink:href="#DejaVuSans-108"/>
      <use transform="translate(701.904297 0.015625)" xlink:href="#DejaVuSans-32"/>
      <use transform="translate(733.691406 0.015625)" xlink:href="#DejaVuSans-Oblique-961"/>
     </g>
    </g>
    <g id="patch_8">
     <path d="M 425.04 64.438125 
L 449.04 64.438125 
L 449.04 56.038125 
L 425.04 56.038125 
z
" style="fill:#0000ff;opacity:0.3;stroke:#0000ff;stroke-linejoin:miter;"/>
    </g>
    <g id="text_17">
     <!-- Std. Err. -->
     <defs>
      <path d="M 53.515625 70.515625 
L 53.515625 60.890625 
Q 47.90625 63.578125 42.921875 64.890625 
Q 37.9375 66.21875 33.296875 66.21875 
Q 25.25 66.21875 20.875 63.09375 
Q 16.5 59.96875 16.5 54.203125 
Q 16.5 49.359375 19.40625 46.890625 
Q 22.3125 44.4375 30.421875 42.921875 
L 36.375 41.703125 
Q 47.40625 39.59375 52.65625 34.296875 
Q 57.90625 29 57.90625 20.125 
Q 57.90625 9.515625 50.796875 4.046875 
Q 43.703125 -1.421875 29.984375 -1.421875 
Q 24.8125 -1.421875 18.96875 -0.25 
Q 13.140625 0.921875 6.890625 3.21875 
L 6.890625 13.375 
Q 12.890625 10.015625 18.65625 8.296875 
Q 24.421875 6.59375 29.984375 6.59375 
Q 38.421875 6.59375 43.015625 9.90625 
Q 47.609375 13.234375 47.609375 19.390625 
Q 47.609375 24.75 44.3125 27.78125 
Q 41.015625 30.8125 33.5 32.328125 
L 27.484375 33.5 
Q 16.453125 35.6875 11.515625 40.375 
Q 6.59375 45.0625 6.59375 53.421875 
Q 6.59375 63.09375 13.40625 68.65625 
Q 20.21875 74.21875 32.171875 74.21875 
Q 37.3125 74.21875 42.625 73.28125 
Q 47.953125 72.359375 53.515625 70.515625 
z
" id="DejaVuSans-83"/>
      <path d="M 9.8125 72.90625 
L 55.90625 72.90625 
L 55.90625 64.59375 
L 19.671875 64.59375 
L 19.671875 43.015625 
L 54.390625 43.015625 
L 54.390625 34.71875 
L 19.671875 34.71875 
L 19.671875 8.296875 
L 56.78125 8.296875 
L 56.78125 0 
L 9.8125 0 
z
" id="DejaVuSans-69"/>
     </defs>
     <g transform="translate(458.64 64.438125)scale(0.12 -0.12)">
      <use xlink:href="#DejaVuSans-83"/>
      <use x="63.476562" xlink:href="#DejaVuSans-116"/>
      <use x="102.685547" xlink:href="#DejaVuSans-100"/>
      <use x="166.162109" xlink:href="#DejaVuSans-46"/>
      <use x="197.949219" xlink:href="#DejaVuSans-32"/>
      <use x="229.736328" xlink:href="#DejaVuSans-69"/>
      <use x="292.919922" xlink:href="#DejaVuSans-114"/>
      <use x="334.017578" xlink:href="#DejaVuSans-114"/>
      <use x="374.990234" xlink:href="#DejaVuSans-46"/>
     </g>
    </g>
   </g>
  </g>
 </g>
 <defs>
  <clipPath id="p34b64cb48b">
   <rect height="147.88" width="485.08" x="80.12" y="26.88"/>
  </clipPath>
 </defs>
</svg>
