<?xml version="1.0" encoding="utf-8" standalone="no"?>
<!DOCTYPE svg PUBLIC "-//W3C//DTD SVG 1.1//EN"
  "http://www.w3.org/Graphics/SVG/1.1/DTD/svg11.dtd">
<!-- Created with matplotlib (https://matplotlib.org/) -->
<svg height="216pt" version="1.1" viewBox="0 0 648 216" width="648pt" xmlns="http://www.w3.org/2000/svg" xmlns:xlink="http://www.w3.org/1999/xlink">
 <defs>
  <style type="text/css">
*{stroke-linecap:butt;stroke-linejoin:round;}
  </style>
 </defs>
 <g id="figure_1">
  <g id="patch_1">
   <path d="M 0 216 
L 648 216 
L 648 0 
L 0 0 
z
" style="fill:#ffffff;"/>
  </g>
  <g id="axes_1">
   <g id="patch_2">
    <path d="M 81 192.24 
L 583.2 192.24 
L 583.2 25.92 
L 81 25.92 
z
" style="fill:#ffffff;"/>
   </g>
   <g id="PolyCollection_1">
    <defs>
     <path d="M 156.33 -23.76 
L 156.33 -190.08 
L 420.645789 -190.08 
L 420.645789 -23.76 
L 420.645789 -23.76 
L 156.33 -23.76 
z
" id="mbbe4284367" style="stroke:#808080;stroke-opacity:0.3;"/>
    </defs>
    <g clip-path="url(#p1bd60e8e16)">
     <use style="fill:#808080;fill-opacity:0.3;stroke:#808080;stroke-opacity:0.3;" x="0" xlink:href="#mbbe4284367" y="216"/>
    </g>
   </g>
   <g id="PolyCollection_2">
    <defs>
     <path d="M 81 -59.868231 
L 81 -27.303371 
L 82.762105 -26.642761 
L 84.524211 -26.074036 
L 86.286316 -25.963783 
L 88.048421 -26.61145 
L 89.810526 -26.277043 
L 91.572632 -26.67997 
L 93.334737 -26.509013 
L 95.096842 -27.374729 
L 96.858947 -27.974634 
L 98.621053 -27.176798 
L 100.383158 -27.328917 
L 102.145263 -27.770595 
L 103.907368 -27.714078 
L 105.669474 -27.253324 
L 107.431579 -26.444773 
L 109.193684 -26.125356 
L 110.955789 -27.555248 
L 112.717895 -27.001748 
L 114.48 -27.114779 
L 116.242105 -28.410968 
L 118.004211 -28.432272 
L 119.766316 -30.752114 
L 121.528421 -30.302135 
L 123.290526 -30.061482 
L 125.052632 -28.963931 
L 126.814737 -29.538412 
L 128.576842 -28.789436 
L 130.338947 -27.585179 
L 132.101053 -27.100142 
L 133.863158 -25.762205 
L 135.625263 -25.903017 
L 137.387368 -25.126263 
L 139.149474 -26.205278 
L 140.911579 -33.474084 
L 142.673684 -44.589065 
L 144.435789 -48.25764 
L 146.197895 -51.58388 
L 147.96 -54.021843 
L 149.722105 -55.622123 
L 151.484211 -56.774811 
L 153.246316 -58.234825 
L 155.008421 -58.806367 
L 156.770526 -58.742634 
L 158.532632 -59.775161 
L 160.294737 -61.135358 
L 162.056842 -60.66 
L 163.818947 -61.232775 
L 165.581053 -62.204065 
L 167.343158 -62.656846 
L 169.105263 -64.701923 
L 170.867368 -64.099442 
L 172.629474 -65.608336 
L 174.391579 -66.57424 
L 176.153684 -61.256722 
L 177.915789 -52.127256 
L 179.677895 -49.017029 
L 181.44 -47.183979 
L 183.202105 -46.985507 
L 184.964211 -48.113247 
L 186.726316 -50.520781 
L 188.488421 -54.723402 
L 190.250526 -58.122949 
L 192.012632 -62.283766 
L 193.774737 -65.995583 
L 195.536842 -67.406772 
L 197.298947 -68.719974 
L 199.061053 -72.172767 
L 200.823158 -74.099374 
L 202.585263 -75.682805 
L 204.347368 -78.067292 
L 206.109474 -81.935533 
L 207.871579 -84.444047 
L 209.633684 -85.574544 
L 211.395789 -86.11257 
L 213.157895 -87.571808 
L 214.92 -89.023946 
L 216.682105 -89.098099 
L 218.444211 -89.093019 
L 220.206316 -89.725179 
L 221.968421 -88.98071 
L 223.730526 -86.293143 
L 225.492632 -85.154952 
L 227.254737 -84.795133 
L 229.016842 -83.839316 
L 230.778947 -84.793309 
L 232.541053 -85.261733 
L 234.303158 -84.906343 
L 236.065263 -84.847675 
L 237.827368 -85.106378 
L 239.589474 -85.043923 
L 241.351579 -83.375315 
L 243.113684 -82.51413 
L 244.875789 -81.14938 
L 246.637895 -81.443214 
L 248.4 -82.161789 
L 250.162105 -84.076243 
L 251.924211 -85.524112 
L 253.686316 -86.543668 
L 255.448421 -86.94306 
L 257.210526 -87.657602 
L 258.972632 -89.268185 
L 260.734737 -89.965504 
L 262.496842 -89.629767 
L 264.258947 -90.860444 
L 266.021053 -92.35487 
L 267.783158 -94.101877 
L 269.545263 -95.35528 
L 271.307368 -97.11055 
L 273.069474 -99.774616 
L 274.831579 -100.569808 
L 276.593684 -102.808696 
L 278.355789 -103.824438 
L 280.117895 -105.636777 
L 281.88 -107.252098 
L 283.642105 -108.619332 
L 285.404211 -108.706298 
L 287.166316 -110.386313 
L 288.928421 -111.407979 
L 290.690526 -112.207107 
L 292.452632 -113.634402 
L 294.214737 -113.74079 
L 295.976842 -114.550484 
L 297.738947 -115.052588 
L 299.501053 -115.812546 
L 301.263158 -115.188359 
L 303.025263 -114.755324 
L 304.787368 -115.417552 
L 306.549474 -116.308932 
L 308.311579 -116.640939 
L 310.073684 -118.439629 
L 311.835789 -119.205699 
L 313.597895 -121.688569 
L 315.36 -122.729255 
L 317.122105 -122.064019 
L 318.884211 -121.655484 
L 320.646316 -123.25077 
L 322.408421 -122.779141 
L 324.170526 -123.310371 
L 325.932632 -123.878011 
L 327.694737 -122.849722 
L 329.456842 -123.287882 
L 331.218947 -122.530147 
L 332.981053 -123.351061 
L 334.743158 -121.873698 
L 336.505263 -122.832625 
L 338.267368 -123.882989 
L 340.029474 -124.419409 
L 341.791579 -124.647747 
L 343.553684 -125.620134 
L 345.315789 -125.264863 
L 347.077895 -123.713734 
L 348.84 -122.585803 
L 350.602105 -123.70931 
L 352.364211 -125.206911 
L 354.126316 -125.512014 
L 355.888421 -124.31196 
L 357.650526 -124.627381 
L 359.412632 -124.503696 
L 361.174737 -126.692234 
L 362.936842 -128.48404 
L 364.698947 -129.457484 
L 366.461053 -131.395038 
L 368.223158 -132.962531 
L 369.985263 -135.759576 
L 371.747368 -136.967485 
L 373.509474 -138.005511 
L 375.271579 -139.249862 
L 377.033684 -140.65981 
L 378.795789 -140.087976 
L 380.557895 -141.211447 
L 382.32 -144.211127 
L 384.082105 -145.20248 
L 385.844211 -146.329085 
L 387.606316 -148.952275 
L 389.368421 -150.164149 
L 391.130526 -152.56064 
L 392.892632 -153.801601 
L 394.654737 -156.501321 
L 396.416842 -156.281572 
L 398.178947 -157.224738 
L 399.941053 -156.999057 
L 401.703158 -155.769128 
L 403.465263 -153.105445 
L 405.227368 -150.382818 
L 406.989474 -146.79183 
L 408.751579 -143.329898 
L 410.513684 -137.442749 
L 412.275789 -132.468883 
L 414.037895 -128.966041 
L 415.8 -124.550398 
L 417.562105 -119.205268 
L 419.324211 -114.803064 
L 421.086316 -109.406241 
L 422.848421 -103.512996 
L 424.610526 -98.804646 
L 426.372632 -92.821485 
L 428.134737 -87.38684 
L 429.896842 -80.152377 
L 431.658947 -75.227601 
L 433.421053 -69.65991 
L 435.183158 -64.548383 
L 436.945263 -60.916052 
L 438.707368 -59.646347 
L 440.469474 -58.19405 
L 442.231579 -57.493382 
L 443.993684 -57.191972 
L 445.755789 -58.846236 
L 447.517895 -59.677575 
L 449.28 -59.786402 
L 451.042105 -60.822255 
L 452.804211 -61.496444 
L 454.566316 -62.045923 
L 456.328421 -62.701799 
L 458.090526 -62.743584 
L 459.852632 -63.402349 
L 461.614737 -64.02742 
L 463.376842 -64.183122 
L 465.138947 -65.738267 
L 466.901053 -65.395236 
L 468.663158 -64.819999 
L 470.425263 -64.972005 
L 472.187368 -64.131617 
L 473.949474 -62.11644 
L 475.711579 -61.408426 
L 477.473684 -60.788114 
L 479.235789 -59.578975 
L 480.997895 -59.385753 
L 482.76 -58.745656 
L 484.522105 -58.19179 
L 486.284211 -57.262666 
L 488.046316 -55.488634 
L 489.808421 -54.630735 
L 491.570526 -53.94853 
L 493.332632 -54.02161 
L 495.094737 -53.458292 
L 496.856842 -52.857132 
L 498.618947 -54.812052 
L 500.381053 -54.005891 
L 502.143158 -52.801855 
L 503.905263 -52.647865 
L 505.667368 -53.43215 
L 507.429474 -52.691999 
L 509.191579 -52.39635 
L 510.953684 -51.110454 
L 512.715789 -51.041286 
L 514.477895 -49.844666 
L 516.24 -48.098756 
L 518.002105 -44.91689 
L 519.764211 -44.833777 
L 521.526316 -44.296631 
L 523.288421 -44.057818 
L 525.050526 -44.418229 
L 526.812632 -44.105891 
L 528.574737 -42.20525 
L 530.336842 -40.500915 
L 532.098947 -40.150098 
L 533.861053 -37.774258 
L 535.623158 -37.589561 
L 537.385263 -37.439964 
L 539.147368 -36.911164 
L 540.909474 -35.894331 
L 542.671579 -36.647963 
L 544.433684 -36.966817 
L 546.195789 -36.247472 
L 547.957895 -34.09138 
L 549.72 -34.997169 
L 551.482105 -34.393321 
L 553.244211 -35.93915 
L 555.006316 -34.668498 
L 556.768421 -33.447398 
L 558.530526 -32.978775 
L 560.292632 -31.462811 
L 562.054737 -30.062063 
L 563.816842 -30.046835 
L 565.578947 -29.878732 
L 567.341053 -28.576029 
L 569.103158 -27.689528 
L 570.865263 -25.882818 
L 572.627368 -24.8737 
L 574.389474 -24.650464 
L 576.151579 -24.360354 
L 577.913684 -23.76 
L 579.675789 -24.44641 
L 581.437895 -24.964016 
L 583.2 -26.050715 
L 583.2 -58.121411 
L 583.2 -58.121411 
L 581.437895 -57.208459 
L 579.675789 -56.797655 
L 577.913684 -56.287846 
L 576.151579 -56.937274 
L 574.389474 -57.325617 
L 572.627368 -57.745126 
L 570.865263 -58.664242 
L 569.103158 -60.517607 
L 567.341053 -61.487924 
L 565.578947 -62.952596 
L 563.816842 -63.409383 
L 562.054737 -63.536988 
L 560.292632 -65.082153 
L 558.530526 -66.690644 
L 556.768421 -67.06116 
L 555.006316 -68.500309 
L 553.244211 -70.068448 
L 551.482105 -68.918319 
L 549.72 -69.742793 
L 547.957895 -68.934595 
L 546.195789 -71.277718 
L 544.433684 -72.093819 
L 542.671579 -71.769927 
L 540.909474 -70.988114 
L 539.147368 -72.113763 
L 537.385263 -72.834745 
L 535.623158 -73.310039 
L 533.861053 -73.571693 
L 532.098947 -76.070001 
L 530.336842 -76.397637 
L 528.574737 -78.210545 
L 526.812632 -80.32706 
L 525.050526 -80.746737 
L 523.288421 -80.285862 
L 521.526316 -80.529108 
L 519.764211 -80.86681 
L 518.002105 -80.658718 
L 516.24 -83.904302 
L 514.477895 -85.711342 
L 512.715789 -86.889307 
L 510.953684 -87.052241 
L 509.191579 -88.337325 
L 507.429474 -88.791545 
L 505.667368 -89.515424 
L 503.905263 -88.442891 
L 502.143158 -88.538857 
L 500.381053 -89.72726 
L 498.618947 -90.742209 
L 496.856842 -88.679975 
L 495.094737 -89.364304 
L 493.332632 -89.854373 
L 491.570526 -89.873891 
L 489.808421 -90.530738 
L 488.046316 -91.404679 
L 486.284211 -93.558533 
L 484.522105 -94.843308 
L 482.76 -95.324975 
L 480.997895 -95.613288 
L 479.235789 -95.61646 
L 477.473684 -96.79976 
L 475.711579 -97.268543 
L 473.949474 -98.11383 
L 472.187368 -100.205078 
L 470.425263 -101.150092 
L 468.663158 -101.159267 
L 466.901053 -101.887373 
L 465.138947 -102.294211 
L 463.376842 -100.778464 
L 461.614737 -100.809188 
L 459.852632 -100.184477 
L 458.090526 -99.468482 
L 456.328421 -99.403143 
L 454.566316 -99.04134 
L 452.804211 -98.519578 
L 451.042105 -97.890422 
L 449.28 -96.444566 
L 447.517895 -96.285583 
L 445.755789 -95.527914 
L 443.993684 -93.682789 
L 442.231579 -93.792021 
L 440.469474 -94.198303 
L 438.707368 -95.477672 
L 436.945263 -96.457574 
L 435.183158 -99.895437 
L 433.421053 -104.907142 
L 431.658947 -110.248259 
L 429.896842 -115.018219 
L 428.134737 -122.066975 
L 426.372632 -127.255474 
L 424.610526 -132.895283 
L 422.848421 -137.506734 
L 421.086316 -143.307876 
L 419.324211 -148.444926 
L 417.562105 -152.648363 
L 415.8 -157.587151 
L 414.037895 -161.937833 
L 412.275789 -165.433769 
L 410.513684 -170.136785 
L 408.751579 -176.122561 
L 406.989474 -179.695116 
L 405.227368 -183.513547 
L 403.465263 -186.111419 
L 401.703158 -188.803944 
L 399.941053 -190.03787 
L 398.178947 -190.08 
L 396.416842 -188.916391 
L 394.654737 -188.875182 
L 392.892632 -185.950884 
L 391.130526 -184.72799 
L 389.368421 -182.46458 
L 387.606316 -181.248307 
L 385.844211 -178.60456 
L 384.082105 -177.677952 
L 382.32 -176.830341 
L 380.557895 -174.134587 
L 378.795789 -173.204845 
L 377.033684 -173.847085 
L 375.271579 -172.614637 
L 373.509474 -171.288009 
L 371.747368 -170.201405 
L 369.985263 -168.749065 
L 368.223158 -166.047071 
L 366.461053 -164.650796 
L 364.698947 -162.731881 
L 362.936842 -161.759236 
L 361.174737 -160.015945 
L 359.412632 -157.812393 
L 357.650526 -158.063643 
L 355.888421 -157.754172 
L 354.126316 -158.839433 
L 352.364211 -158.483937 
L 350.602105 -156.821376 
L 348.84 -155.141801 
L 347.077895 -155.995667 
L 345.315789 -157.194058 
L 343.553684 -157.374408 
L 341.791579 -156.168603 
L 340.029474 -155.879175 
L 338.267368 -155.308646 
L 336.505263 -154.091548 
L 334.743158 -153.193657 
L 332.981053 -154.287273 
L 331.218947 -153.215661 
L 329.456842 -153.618437 
L 327.694737 -152.878232 
L 325.932632 -153.706761 
L 324.170526 -153.256722 
L 322.408421 -152.681002 
L 320.646316 -153.227053 
L 318.884211 -151.662177 
L 317.122105 -152.074926 
L 315.36 -152.820159 
L 313.597895 -152.28969 
L 311.835789 -149.916266 
L 310.073684 -149.378992 
L 308.311579 -147.696147 
L 306.549474 -147.581803 
L 304.787368 -146.830613 
L 303.025263 -146.33233 
L 301.263158 -147.238346 
L 299.501053 -147.971066 
L 297.738947 -147.266993 
L 295.976842 -146.769272 
L 294.214737 -145.882834 
L 292.452632 -145.971367 
L 290.690526 -144.702705 
L 288.928421 -143.984241 
L 287.166316 -142.809862 
L 285.404211 -140.972635 
L 283.642105 -140.70252 
L 281.88 -139.409504 
L 280.117895 -137.757539 
L 278.355789 -135.731262 
L 276.593684 -134.854478 
L 274.831579 -132.594152 
L 273.069474 -132.103854 
L 271.307368 -129.518837 
L 269.545263 -127.614031 
L 267.783158 -126.135769 
L 266.021053 -124.329825 
L 264.258947 -122.967607 
L 262.496842 -121.770137 
L 260.734737 -122.237831 
L 258.972632 -121.810346 
L 257.210526 -120.153643 
L 255.448421 -119.189907 
L 253.686316 -118.750159 
L 251.924211 -118.180707 
L 250.162105 -116.825494 
L 248.4 -115.008457 
L 246.637895 -114.227294 
L 244.875789 -114.181902 
L 243.113684 -115.691649 
L 241.351579 -116.562305 
L 239.589474 -118.357378 
L 237.827368 -118.027113 
L 236.065263 -117.660924 
L 234.303158 -117.62011 
L 232.541053 -118.068152 
L 230.778947 -117.572458 
L 229.016842 -116.544655 
L 227.254737 -117.338532 
L 225.492632 -117.567896 
L 223.730526 -118.375794 
L 221.968421 -121.02658 
L 220.206316 -121.853265 
L 218.444211 -121.074957 
L 216.682105 -120.802067 
L 214.92 -120.733387 
L 213.157895 -119.043217 
L 211.395789 -117.449417 
L 209.633684 -116.880494 
L 207.871579 -115.832799 
L 206.109474 -113.467165 
L 204.347368 -109.408219 
L 202.585263 -107.347054 
L 200.823158 -105.788176 
L 199.061053 -104.019001 
L 197.298947 -100.437308 
L 195.536842 -99.268801 
L 193.774737 -98.126864 
L 192.012632 -94.875611 
L 190.250526 -90.859285 
L 188.488421 -87.581427 
L 186.726316 -83.464073 
L 184.964211 -81.568787 
L 183.202105 -80.71473 
L 181.44 -80.83763 
L 179.677895 -82.807488 
L 177.915789 -86.410375 
L 176.153684 -95.777677 
L 174.391579 -100.958326 
L 172.629474 -99.763892 
L 170.867368 -98.166186 
L 169.105263 -98.920611 
L 167.343158 -96.680722 
L 165.581053 -96.419343 
L 163.818947 -95.51596 
L 162.056842 -94.821099 
L 160.294737 -95.345567 
L 158.532632 -93.813412 
L 156.770526 -92.399937 
L 155.008421 -92.568307 
L 153.246316 -91.979337 
L 151.484211 -90.600561 
L 149.722105 -89.217978 
L 147.96 -87.408139 
L 146.197895 -84.954099 
L 144.435789 -81.460102 
L 142.673684 -77.826381 
L 140.911579 -66.641685 
L 139.149474 -59.145213 
L 137.387368 -58.206723 
L 135.625263 -58.894 
L 133.863158 -58.767002 
L 132.101053 -60.142876 
L 130.338947 -60.639811 
L 128.576842 -61.738722 
L 126.814737 -62.810857 
L 125.052632 -62.135556 
L 123.290526 -63.162634 
L 121.528421 -63.475456 
L 119.766316 -63.918178 
L 118.004211 -61.131769 
L 116.242105 -61.224489 
L 114.48 -59.967552 
L 112.717895 -59.97346 
L 110.955789 -60.473347 
L 109.193684 -59.028741 
L 107.431579 -59.22709 
L 105.669474 -59.936132 
L 103.907368 -60.528765 
L 102.145263 -60.704351 
L 100.383158 -60.360451 
L 98.621053 -60.084074 
L 96.858947 -60.946662 
L 95.096842 -60.171807 
L 93.334737 -59.198559 
L 91.572632 -59.277558 
L 89.810526 -58.716368 
L 88.048421 -59.078268 
L 86.286316 -58.422591 
L 84.524211 -58.401608 
L 82.762105 -59.207643 
L 81 -59.868231 
z
" id="mc3fe73c27a" style="stroke:#0000ff;stroke-opacity:0.3;"/>
    </defs>
    <g clip-path="url(#p1bd60e8e16)">
     <use style="fill:#0000ff;fill-opacity:0.3;stroke:#0000ff;stroke-opacity:0.3;" x="0" xlink:href="#mc3fe73c27a" y="216"/>
    </g>
   </g>
   <g id="matplotlib.axis_1">
    <g id="xtick_1">
     <g id="line2d_1">
      <defs>
       <path d="M 0 0 
L 0 3.5 
" id="ma6e1573f0c" style="stroke:#000000;stroke-width:0.8;"/>
      </defs>
      <g>
       <use style="stroke:#000000;stroke-width:0.8;" x="156.33" xlink:href="#ma6e1573f0c" y="192.24"/>
      </g>
     </g>
     <g id="text_1">
      <!-- 0.0 -->
      <defs>
       <path d="M 31.78125 66.40625 
Q 24.171875 66.40625 20.328125 58.90625 
Q 16.5 51.421875 16.5 36.375 
Q 16.5 21.390625 20.328125 13.890625 
Q 24.171875 6.390625 31.78125 6.390625 
Q 39.453125 6.390625 43.28125 13.890625 
Q 47.125 21.390625 47.125 36.375 
Q 47.125 51.421875 43.28125 58.90625 
Q 39.453125 66.40625 31.78125 66.40625 
z
M 31.78125 74.21875 
Q 44.046875 74.21875 50.515625 64.515625 
Q 56.984375 54.828125 56.984375 36.375 
Q 56.984375 17.96875 50.515625 8.265625 
Q 44.046875 -1.421875 31.78125 -1.421875 
Q 19.53125 -1.421875 13.0625 8.265625 
Q 6.59375 17.96875 6.59375 36.375 
Q 6.59375 54.828125 13.0625 64.515625 
Q 19.53125 74.21875 31.78125 74.21875 
z
" id="DejaVuSans-48"/>
       <path d="M 10.6875 12.40625 
L 21 12.40625 
L 21 0 
L 10.6875 0 
z
" id="DejaVuSans-46"/>
      </defs>
      <g transform="translate(146.788125 208.358125)scale(0.12 -0.12)">
       <use xlink:href="#DejaVuSans-48"/>
       <use x="63.623047" xlink:href="#DejaVuSans-46"/>
       <use x="95.410156" xlink:href="#DejaVuSans-48"/>
      </g>
     </g>
    </g>
    <g id="xtick_2">
     <g id="line2d_2">
      <g>
       <use style="stroke:#000000;stroke-width:0.8;" x="244.435263" xlink:href="#ma6e1573f0c" y="192.24"/>
      </g>
     </g>
     <g id="text_2">
      <!-- 0.5 -->
      <defs>
       <path d="M 10.796875 72.90625 
L 49.515625 72.90625 
L 49.515625 64.59375 
L 19.828125 64.59375 
L 19.828125 46.734375 
Q 21.96875 47.46875 24.109375 47.828125 
Q 26.265625 48.1875 28.421875 48.1875 
Q 40.625 48.1875 47.75 41.5 
Q 54.890625 34.8125 54.890625 23.390625 
Q 54.890625 11.625 47.5625 5.09375 
Q 40.234375 -1.421875 26.90625 -1.421875 
Q 22.3125 -1.421875 17.546875 -0.640625 
Q 12.796875 0.140625 7.71875 1.703125 
L 7.71875 11.625 
Q 12.109375 9.234375 16.796875 8.0625 
Q 21.484375 6.890625 26.703125 6.890625 
Q 35.15625 6.890625 40.078125 11.328125 
Q 45.015625 15.765625 45.015625 23.390625 
Q 45.015625 31 40.078125 35.4375 
Q 35.15625 39.890625 26.703125 39.890625 
Q 22.75 39.890625 18.8125 39.015625 
Q 14.890625 38.140625 10.796875 36.28125 
z
" id="DejaVuSans-53"/>
      </defs>
      <g transform="translate(234.893388 208.358125)scale(0.12 -0.12)">
       <use xlink:href="#DejaVuSans-48"/>
       <use x="63.623047" xlink:href="#DejaVuSans-46"/>
       <use x="95.410156" xlink:href="#DejaVuSans-53"/>
      </g>
     </g>
    </g>
    <g id="xtick_3">
     <g id="line2d_3">
      <g>
       <use style="stroke:#000000;stroke-width:0.8;" x="332.540526" xlink:href="#ma6e1573f0c" y="192.24"/>
      </g>
     </g>
     <g id="text_3">
      <!-- 1.0 -->
      <defs>
       <path d="M 12.40625 8.296875 
L 28.515625 8.296875 
L 28.515625 63.921875 
L 10.984375 60.40625 
L 10.984375 69.390625 
L 28.421875 72.90625 
L 38.28125 72.90625 
L 38.28125 8.296875 
L 54.390625 8.296875 
L 54.390625 0 
L 12.40625 0 
z
" id="DejaVuSans-49"/>
      </defs>
      <g transform="translate(322.998651 208.358125)scale(0.12 -0.12)">
       <use xlink:href="#DejaVuSans-49"/>
       <use x="63.623047" xlink:href="#DejaVuSans-46"/>
       <use x="95.410156" xlink:href="#DejaVuSans-48"/>
      </g>
     </g>
    </g>
    <g id="xtick_4">
     <g id="line2d_4">
      <g>
       <use style="stroke:#000000;stroke-width:0.8;" x="420.645789" xlink:href="#ma6e1573f0c" y="192.24"/>
      </g>
     </g>
     <g id="text_4">
      <!-- 1.5 -->
      <g transform="translate(411.103914 208.358125)scale(0.12 -0.12)">
       <use xlink:href="#DejaVuSans-49"/>
       <use x="63.623047" xlink:href="#DejaVuSans-46"/>
       <use x="95.410156" xlink:href="#DejaVuSans-53"/>
      </g>
     </g>
    </g>
    <g id="xtick_5">
     <g id="line2d_5">
      <g>
       <use style="stroke:#000000;stroke-width:0.8;" x="508.751053" xlink:href="#ma6e1573f0c" y="192.24"/>
      </g>
     </g>
     <g id="text_5">
      <!-- 2.0 -->
      <defs>
       <path d="M 19.1875 8.296875 
L 53.609375 8.296875 
L 53.609375 0 
L 7.328125 0 
L 7.328125 8.296875 
Q 12.9375 14.109375 22.625 23.890625 
Q 32.328125 33.6875 34.8125 36.53125 
Q 39.546875 41.84375 41.421875 45.53125 
Q 43.3125 49.21875 43.3125 52.78125 
Q 43.3125 58.59375 39.234375 62.25 
Q 35.15625 65.921875 28.609375 65.921875 
Q 23.96875 65.921875 18.8125 64.3125 
Q 13.671875 62.703125 7.8125 59.421875 
L 7.8125 69.390625 
Q 13.765625 71.78125 18.9375 73 
Q 24.125 74.21875 28.421875 74.21875 
Q 39.75 74.21875 46.484375 68.546875 
Q 53.21875 62.890625 53.21875 53.421875 
Q 53.21875 48.921875 51.53125 44.890625 
Q 49.859375 40.875 45.40625 35.40625 
Q 44.1875 33.984375 37.640625 27.21875 
Q 31.109375 20.453125 19.1875 8.296875 
z
" id="DejaVuSans-50"/>
      </defs>
      <g transform="translate(499.209178 208.358125)scale(0.12 -0.12)">
       <use xlink:href="#DejaVuSans-50"/>
       <use x="63.623047" xlink:href="#DejaVuSans-46"/>
       <use x="95.410156" xlink:href="#DejaVuSans-48"/>
      </g>
     </g>
    </g>
    <g id="text_6">
     <!-- Time (s) -->
     <defs>
      <path d="M -0.296875 72.90625 
L 61.375 72.90625 
L 61.375 64.59375 
L 35.5 64.59375 
L 35.5 0 
L 25.59375 0 
L 25.59375 64.59375 
L -0.296875 64.59375 
z
" id="DejaVuSans-84"/>
      <path d="M 9.421875 54.6875 
L 18.40625 54.6875 
L 18.40625 0 
L 9.421875 0 
z
M 9.421875 75.984375 
L 18.40625 75.984375 
L 18.40625 64.59375 
L 9.421875 64.59375 
z
" id="DejaVuSans-105"/>
      <path d="M 52 44.1875 
Q 55.375 50.25 60.0625 53.125 
Q 64.75 56 71.09375 56 
Q 79.640625 56 84.28125 50.015625 
Q 88.921875 44.046875 88.921875 33.015625 
L 88.921875 0 
L 79.890625 0 
L 79.890625 32.71875 
Q 79.890625 40.578125 77.09375 44.375 
Q 74.3125 48.1875 68.609375 48.1875 
Q 61.625 48.1875 57.5625 43.546875 
Q 53.515625 38.921875 53.515625 30.90625 
L 53.515625 0 
L 44.484375 0 
L 44.484375 32.71875 
Q 44.484375 40.625 41.703125 44.40625 
Q 38.921875 48.1875 33.109375 48.1875 
Q 26.21875 48.1875 22.15625 43.53125 
Q 18.109375 38.875 18.109375 30.90625 
L 18.109375 0 
L 9.078125 0 
L 9.078125 54.6875 
L 18.109375 54.6875 
L 18.109375 46.1875 
Q 21.1875 51.21875 25.484375 53.609375 
Q 29.78125 56 35.6875 56 
Q 41.65625 56 45.828125 52.96875 
Q 50 49.953125 52 44.1875 
z
" id="DejaVuSans-109"/>
      <path d="M 56.203125 29.59375 
L 56.203125 25.203125 
L 14.890625 25.203125 
Q 15.484375 15.921875 20.484375 11.0625 
Q 25.484375 6.203125 34.421875 6.203125 
Q 39.59375 6.203125 44.453125 7.46875 
Q 49.3125 8.734375 54.109375 11.28125 
L 54.109375 2.78125 
Q 49.265625 0.734375 44.1875 -0.34375 
Q 39.109375 -1.421875 33.890625 -1.421875 
Q 20.796875 -1.421875 13.15625 6.1875 
Q 5.515625 13.8125 5.515625 26.8125 
Q 5.515625 40.234375 12.765625 48.109375 
Q 20.015625 56 32.328125 56 
Q 43.359375 56 49.78125 48.890625 
Q 56.203125 41.796875 56.203125 29.59375 
z
M 47.21875 32.234375 
Q 47.125 39.59375 43.09375 43.984375 
Q 39.0625 48.390625 32.421875 48.390625 
Q 24.90625 48.390625 20.390625 44.140625 
Q 15.875 39.890625 15.1875 32.171875 
z
" id="DejaVuSans-101"/>
      <path id="DejaVuSans-32"/>
      <path d="M 31 75.875 
Q 24.46875 64.65625 21.28125 53.65625 
Q 18.109375 42.671875 18.109375 31.390625 
Q 18.109375 20.125 21.3125 9.0625 
Q 24.515625 -2 31 -13.1875 
L 23.1875 -13.1875 
Q 15.875 -1.703125 12.234375 9.375 
Q 8.59375 20.453125 8.59375 31.390625 
Q 8.59375 42.28125 12.203125 53.3125 
Q 15.828125 64.359375 23.1875 75.875 
z
" id="DejaVuSans-40"/>
      <path d="M 44.28125 53.078125 
L 44.28125 44.578125 
Q 40.484375 46.53125 36.375 47.5 
Q 32.28125 48.484375 27.875 48.484375 
Q 21.1875 48.484375 17.84375 46.4375 
Q 14.5 44.390625 14.5 40.28125 
Q 14.5 37.15625 16.890625 35.375 
Q 19.28125 33.59375 26.515625 31.984375 
L 29.59375 31.296875 
Q 39.15625 29.25 43.1875 25.515625 
Q 47.21875 21.78125 47.21875 15.09375 
Q 47.21875 7.46875 41.1875 3.015625 
Q 35.15625 -1.421875 24.609375 -1.421875 
Q 20.21875 -1.421875 15.453125 -0.5625 
Q 10.6875 0.296875 5.421875 2 
L 5.421875 11.28125 
Q 10.40625 8.6875 15.234375 7.390625 
Q 20.0625 6.109375 24.8125 6.109375 
Q 31.15625 6.109375 34.5625 8.28125 
Q 37.984375 10.453125 37.984375 14.40625 
Q 37.984375 18.0625 35.515625 20.015625 
Q 33.0625 21.96875 24.703125 23.78125 
L 21.578125 24.515625 
Q 13.234375 26.265625 9.515625 29.90625 
Q 5.8125 33.546875 5.8125 39.890625 
Q 5.8125 47.609375 11.28125 51.796875 
Q 16.75 56 26.8125 56 
Q 31.78125 56 36.171875 55.265625 
Q 40.578125 54.546875 44.28125 53.078125 
z
" id="DejaVuSans-115"/>
      <path d="M 8.015625 75.875 
L 15.828125 75.875 
Q 23.140625 64.359375 26.78125 53.3125 
Q 30.421875 42.28125 30.421875 31.390625 
Q 30.421875 20.453125 26.78125 9.375 
Q 23.140625 -1.703125 15.828125 -13.1875 
L 8.015625 -13.1875 
Q 14.5 -2 17.703125 9.0625 
Q 20.90625 20.125 20.90625 31.390625 
Q 20.90625 42.671875 17.703125 53.65625 
Q 14.5 64.65625 8.015625 75.875 
z
" id="DejaVuSans-41"/>
     </defs>
     <g transform="translate(302.60475 225.7955)scale(0.144 -0.144)">
      <use xlink:href="#DejaVuSans-84"/>
      <use x="61.037109" xlink:href="#DejaVuSans-105"/>
      <use x="88.820312" xlink:href="#DejaVuSans-109"/>
      <use x="186.232422" xlink:href="#DejaVuSans-101"/>
      <use x="247.755859" xlink:href="#DejaVuSans-32"/>
      <use x="279.542969" xlink:href="#DejaVuSans-40"/>
      <use x="318.556641" xlink:href="#DejaVuSans-115"/>
      <use x="370.65625" xlink:href="#DejaVuSans-41"/>
     </g>
    </g>
   </g>
   <g id="matplotlib.axis_2">
    <g id="ytick_1">
     <g id="line2d_6">
      <defs>
       <path d="M 0 0 
L -3.5 0 
" id="m04e90afec8" style="stroke:#000000;stroke-width:0.8;"/>
      </defs>
      <g>
       <use style="stroke:#000000;stroke-width:0.8;" x="81" xlink:href="#m04e90afec8" y="179.716495"/>
      </g>
     </g>
     <g id="text_7">
      <!-- 10.5 -->
      <g transform="translate(47.28125 184.275558)scale(0.12 -0.12)">
       <use xlink:href="#DejaVuSans-49"/>
       <use x="63.623047" xlink:href="#DejaVuSans-48"/>
       <use x="127.246094" xlink:href="#DejaVuSans-46"/>
       <use x="159.033203" xlink:href="#DejaVuSans-53"/>
      </g>
     </g>
    </g>
    <g id="ytick_2">
     <g id="line2d_7">
      <g>
       <use style="stroke:#000000;stroke-width:0.8;" x="81" xlink:href="#m04e90afec8" y="151.150056"/>
      </g>
     </g>
     <g id="text_8">
      <!-- 11.0 -->
      <g transform="translate(47.28125 155.709119)scale(0.12 -0.12)">
       <use xlink:href="#DejaVuSans-49"/>
       <use x="63.623047" xlink:href="#DejaVuSans-49"/>
       <use x="127.246094" xlink:href="#DejaVuSans-46"/>
       <use x="159.033203" xlink:href="#DejaVuSans-48"/>
      </g>
     </g>
    </g>
    <g id="ytick_3">
     <g id="line2d_8">
      <g>
       <use style="stroke:#000000;stroke-width:0.8;" x="81" xlink:href="#m04e90afec8" y="122.583617"/>
      </g>
     </g>
     <g id="text_9">
      <!-- 11.5 -->
      <g transform="translate(47.28125 127.142679)scale(0.12 -0.12)">
       <use xlink:href="#DejaVuSans-49"/>
       <use x="63.623047" xlink:href="#DejaVuSans-49"/>
       <use x="127.246094" xlink:href="#DejaVuSans-46"/>
       <use x="159.033203" xlink:href="#DejaVuSans-53"/>
      </g>
     </g>
    </g>
    <g id="ytick_4">
     <g id="line2d_9">
      <g>
       <use style="stroke:#000000;stroke-width:0.8;" x="81" xlink:href="#m04e90afec8" y="94.017178"/>
      </g>
     </g>
     <g id="text_10">
      <!-- 12.0 -->
      <g transform="translate(47.28125 98.57624)scale(0.12 -0.12)">
       <use xlink:href="#DejaVuSans-49"/>
       <use x="63.623047" xlink:href="#DejaVuSans-50"/>
       <use x="127.246094" xlink:href="#DejaVuSans-46"/>
       <use x="159.033203" xlink:href="#DejaVuSans-48"/>
      </g>
     </g>
    </g>
    <g id="ytick_5">
     <g id="line2d_10">
      <g>
       <use style="stroke:#000000;stroke-width:0.8;" x="81" xlink:href="#m04e90afec8" y="65.450739"/>
      </g>
     </g>
     <g id="text_11">
      <!-- 12.5 -->
      <g transform="translate(47.28125 70.009801)scale(0.12 -0.12)">
       <use xlink:href="#DejaVuSans-49"/>
       <use x="63.623047" xlink:href="#DejaVuSans-50"/>
       <use x="127.246094" xlink:href="#DejaVuSans-46"/>
       <use x="159.033203" xlink:href="#DejaVuSans-53"/>
      </g>
     </g>
    </g>
    <g id="ytick_6">
     <g id="line2d_11">
      <g>
       <use style="stroke:#000000;stroke-width:0.8;" x="81" xlink:href="#m04e90afec8" y="36.8843"/>
      </g>
     </g>
     <g id="text_12">
      <!-- 13.0 -->
      <defs>
       <path d="M 40.578125 39.3125 
Q 47.65625 37.796875 51.625 33 
Q 55.609375 28.21875 55.609375 21.1875 
Q 55.609375 10.40625 48.1875 4.484375 
Q 40.765625 -1.421875 27.09375 -1.421875 
Q 22.515625 -1.421875 17.65625 -0.515625 
Q 12.796875 0.390625 7.625 2.203125 
L 7.625 11.71875 
Q 11.71875 9.328125 16.59375 8.109375 
Q 21.484375 6.890625 26.8125 6.890625 
Q 36.078125 6.890625 40.9375 10.546875 
Q 45.796875 14.203125 45.796875 21.1875 
Q 45.796875 27.640625 41.28125 31.265625 
Q 36.765625 34.90625 28.71875 34.90625 
L 20.21875 34.90625 
L 20.21875 43.015625 
L 29.109375 43.015625 
Q 36.375 43.015625 40.234375 45.921875 
Q 44.09375 48.828125 44.09375 54.296875 
Q 44.09375 59.90625 40.109375 62.90625 
Q 36.140625 65.921875 28.71875 65.921875 
Q 24.65625 65.921875 20.015625 65.03125 
Q 15.375 64.15625 9.8125 62.3125 
L 9.8125 71.09375 
Q 15.4375 72.65625 20.34375 73.4375 
Q 25.25 74.21875 29.59375 74.21875 
Q 40.828125 74.21875 47.359375 69.109375 
Q 53.90625 64.015625 53.90625 55.328125 
Q 53.90625 49.265625 50.4375 45.09375 
Q 46.96875 40.921875 40.578125 39.3125 
z
" id="DejaVuSans-51"/>
      </defs>
      <g transform="translate(47.28125 41.443362)scale(0.12 -0.12)">
       <use xlink:href="#DejaVuSans-49"/>
       <use x="63.623047" xlink:href="#DejaVuSans-51"/>
       <use x="127.246094" xlink:href="#DejaVuSans-46"/>
       <use x="159.033203" xlink:href="#DejaVuSans-48"/>
      </g>
     </g>
    </g>
    <g id="text_13">
     <!-- Act. Cells Moving Avg. -->
     <defs>
      <path d="M 34.1875 63.1875 
L 20.796875 26.90625 
L 47.609375 26.90625 
z
M 28.609375 72.90625 
L 39.796875 72.90625 
L 67.578125 0 
L 57.328125 0 
L 50.6875 18.703125 
L 17.828125 18.703125 
L 11.1875 0 
L 0.78125 0 
z
" id="DejaVuSans-65"/>
      <path d="M 48.78125 52.59375 
L 48.78125 44.1875 
Q 44.96875 46.296875 41.140625 47.34375 
Q 37.3125 48.390625 33.40625 48.390625 
Q 24.65625 48.390625 19.8125 42.84375 
Q 14.984375 37.3125 14.984375 27.296875 
Q 14.984375 17.28125 19.8125 11.734375 
Q 24.65625 6.203125 33.40625 6.203125 
Q 37.3125 6.203125 41.140625 7.25 
Q 44.96875 8.296875 48.78125 10.40625 
L 48.78125 2.09375 
Q 45.015625 0.34375 40.984375 -0.53125 
Q 36.96875 -1.421875 32.421875 -1.421875 
Q 20.0625 -1.421875 12.78125 6.34375 
Q 5.515625 14.109375 5.515625 27.296875 
Q 5.515625 40.671875 12.859375 48.328125 
Q 20.21875 56 33.015625 56 
Q 37.15625 56 41.109375 55.140625 
Q 45.0625 54.296875 48.78125 52.59375 
z
" id="DejaVuSans-99"/>
      <path d="M 18.3125 70.21875 
L 18.3125 54.6875 
L 36.8125 54.6875 
L 36.8125 47.703125 
L 18.3125 47.703125 
L 18.3125 18.015625 
Q 18.3125 11.328125 20.140625 9.421875 
Q 21.96875 7.515625 27.59375 7.515625 
L 36.8125 7.515625 
L 36.8125 0 
L 27.59375 0 
Q 17.1875 0 13.234375 3.875 
Q 9.28125 7.765625 9.28125 18.015625 
L 9.28125 47.703125 
L 2.6875 47.703125 
L 2.6875 54.6875 
L 9.28125 54.6875 
L 9.28125 70.21875 
z
" id="DejaVuSans-116"/>
      <path d="M 64.40625 67.28125 
L 64.40625 56.890625 
Q 59.421875 61.53125 53.78125 63.8125 
Q 48.140625 66.109375 41.796875 66.109375 
Q 29.296875 66.109375 22.65625 58.46875 
Q 16.015625 50.828125 16.015625 36.375 
Q 16.015625 21.96875 22.65625 14.328125 
Q 29.296875 6.6875 41.796875 6.6875 
Q 48.140625 6.6875 53.78125 8.984375 
Q 59.421875 11.28125 64.40625 15.921875 
L 64.40625 5.609375 
Q 59.234375 2.09375 53.4375 0.328125 
Q 47.65625 -1.421875 41.21875 -1.421875 
Q 24.65625 -1.421875 15.125 8.703125 
Q 5.609375 18.84375 5.609375 36.375 
Q 5.609375 53.953125 15.125 64.078125 
Q 24.65625 74.21875 41.21875 74.21875 
Q 47.75 74.21875 53.53125 72.484375 
Q 59.328125 70.75 64.40625 67.28125 
z
" id="DejaVuSans-67"/>
      <path d="M 9.421875 75.984375 
L 18.40625 75.984375 
L 18.40625 0 
L 9.421875 0 
z
" id="DejaVuSans-108"/>
      <path d="M 9.8125 72.90625 
L 24.515625 72.90625 
L 43.109375 23.296875 
L 61.8125 72.90625 
L 76.515625 72.90625 
L 76.515625 0 
L 66.890625 0 
L 66.890625 64.015625 
L 48.09375 14.015625 
L 38.1875 14.015625 
L 19.390625 64.015625 
L 19.390625 0 
L 9.8125 0 
z
" id="DejaVuSans-77"/>
      <path d="M 30.609375 48.390625 
Q 23.390625 48.390625 19.1875 42.75 
Q 14.984375 37.109375 14.984375 27.296875 
Q 14.984375 17.484375 19.15625 11.84375 
Q 23.34375 6.203125 30.609375 6.203125 
Q 37.796875 6.203125 41.984375 11.859375 
Q 46.1875 17.53125 46.1875 27.296875 
Q 46.1875 37.015625 41.984375 42.703125 
Q 37.796875 48.390625 30.609375 48.390625 
z
M 30.609375 56 
Q 42.328125 56 49.015625 48.375 
Q 55.71875 40.765625 55.71875 27.296875 
Q 55.71875 13.875 49.015625 6.21875 
Q 42.328125 -1.421875 30.609375 -1.421875 
Q 18.84375 -1.421875 12.171875 6.21875 
Q 5.515625 13.875 5.515625 27.296875 
Q 5.515625 40.765625 12.171875 48.375 
Q 18.84375 56 30.609375 56 
z
" id="DejaVuSans-111"/>
      <path d="M 2.984375 54.6875 
L 12.5 54.6875 
L 29.59375 8.796875 
L 46.6875 54.6875 
L 56.203125 54.6875 
L 35.6875 0 
L 23.484375 0 
z
" id="DejaVuSans-118"/>
      <path d="M 54.890625 33.015625 
L 54.890625 0 
L 45.90625 0 
L 45.90625 32.71875 
Q 45.90625 40.484375 42.875 44.328125 
Q 39.84375 48.1875 33.796875 48.1875 
Q 26.515625 48.1875 22.3125 43.546875 
Q 18.109375 38.921875 18.109375 30.90625 
L 18.109375 0 
L 9.078125 0 
L 9.078125 54.6875 
L 18.109375 54.6875 
L 18.109375 46.1875 
Q 21.34375 51.125 25.703125 53.5625 
Q 30.078125 56 35.796875 56 
Q 45.21875 56 50.046875 50.171875 
Q 54.890625 44.34375 54.890625 33.015625 
z
" id="DejaVuSans-110"/>
      <path d="M 45.40625 27.984375 
Q 45.40625 37.75 41.375 43.109375 
Q 37.359375 48.484375 30.078125 48.484375 
Q 22.859375 48.484375 18.828125 43.109375 
Q 14.796875 37.75 14.796875 27.984375 
Q 14.796875 18.265625 18.828125 12.890625 
Q 22.859375 7.515625 30.078125 7.515625 
Q 37.359375 7.515625 41.375 12.890625 
Q 45.40625 18.265625 45.40625 27.984375 
z
M 54.390625 6.78125 
Q 54.390625 -7.171875 48.1875 -13.984375 
Q 42 -20.796875 29.203125 -20.796875 
Q 24.46875 -20.796875 20.265625 -20.09375 
Q 16.0625 -19.390625 12.109375 -17.921875 
L 12.109375 -9.1875 
Q 16.0625 -11.328125 19.921875 -12.34375 
Q 23.78125 -13.375 27.78125 -13.375 
Q 36.625 -13.375 41.015625 -8.765625 
Q 45.40625 -4.15625 45.40625 5.171875 
L 45.40625 9.625 
Q 42.625 4.78125 38.28125 2.390625 
Q 33.9375 0 27.875 0 
Q 17.828125 0 11.671875 7.65625 
Q 5.515625 15.328125 5.515625 27.984375 
Q 5.515625 40.671875 11.671875 48.328125 
Q 17.828125 56 27.875 56 
Q 33.9375 56 38.28125 53.609375 
Q 42.625 51.21875 45.40625 46.390625 
L 45.40625 54.6875 
L 54.390625 54.6875 
z
" id="DejaVuSans-103"/>
     </defs>
     <g transform="translate(40.2865 189.201375)rotate(-90)scale(0.144 -0.144)">
      <use xlink:href="#DejaVuSans-65"/>
      <use x="68.392578" xlink:href="#DejaVuSans-99"/>
      <use x="123.373047" xlink:href="#DejaVuSans-116"/>
      <use x="162.582031" xlink:href="#DejaVuSans-46"/>
      <use x="194.369141" xlink:href="#DejaVuSans-32"/>
      <use x="226.15625" xlink:href="#DejaVuSans-67"/>
      <use x="295.980469" xlink:href="#DejaVuSans-101"/>
      <use x="357.503906" xlink:href="#DejaVuSans-108"/>
      <use x="385.287109" xlink:href="#DejaVuSans-108"/>
      <use x="413.070312" xlink:href="#DejaVuSans-115"/>
      <use x="465.169922" xlink:href="#DejaVuSans-32"/>
      <use x="496.957031" xlink:href="#DejaVuSans-77"/>
      <use x="583.236328" xlink:href="#DejaVuSans-111"/>
      <use x="644.417969" xlink:href="#DejaVuSans-118"/>
      <use x="703.597656" xlink:href="#DejaVuSans-105"/>
      <use x="731.380859" xlink:href="#DejaVuSans-110"/>
      <use x="794.759766" xlink:href="#DejaVuSans-103"/>
      <use x="858.236328" xlink:href="#DejaVuSans-32"/>
      <use x="890.023438" xlink:href="#DejaVuSans-65"/>
      <use x="958.353516" xlink:href="#DejaVuSans-118"/>
      <use x="1017.533203" xlink:href="#DejaVuSans-103"/>
      <use x="1081.009766" xlink:href="#DejaVuSans-46"/>
     </g>
    </g>
   </g>
   <g id="line2d_12">
    <path clip-path="url(#p1bd60e8e16)" d="M 81 172.414199 
L 84.524211 173.762178 
L 86.286316 173.806813 
L 88.048421 173.155141 
L 89.810526 173.503295 
L 91.572632 173.021236 
L 93.334737 173.146214 
L 95.096842 172.226732 
L 96.858947 171.539352 
L 98.621053 172.369564 
L 100.383158 172.155316 
L 102.145263 171.762527 
L 103.907368 171.878578 
L 105.669474 172.405272 
L 107.431579 173.164068 
L 109.193684 173.422952 
L 110.955789 171.985703 
L 112.717895 172.512396 
L 114.48 172.458834 
L 116.242105 171.182271 
L 118.004211 171.217979 
L 119.766316 168.664854 
L 121.528421 169.111205 
L 123.290526 169.387942 
L 125.052632 170.450256 
L 126.814737 169.825366 
L 128.576842 170.735921 
L 130.338947 171.887505 
L 132.101053 172.378491 
L 133.863158 173.735397 
L 135.625263 173.601492 
L 137.387368 174.333507 
L 139.149474 173.324754 
L 140.911579 165.942115 
L 142.673684 154.792277 
L 146.197895 147.73101 
L 147.96 145.285009 
L 149.722105 143.57995 
L 151.484211 142.312314 
L 153.246316 140.892919 
L 155.008421 140.312663 
L 156.770526 140.428714 
L 158.532632 139.205714 
L 160.294737 137.759538 
L 162.056842 138.25945 
L 163.818947 137.625633 
L 165.581053 136.688296 
L 167.343158 136.331216 
L 169.105263 134.188733 
L 170.867368 134.867186 
L 172.629474 133.313886 
L 174.391579 132.233717 
L 176.153684 137.4828 
L 177.915789 146.731185 
L 179.677895 150.087742 
L 181.44 151.989195 
L 183.202105 152.149881 
L 184.964211 151.158983 
L 186.726316 149.007573 
L 188.488421 144.847585 
L 190.250526 141.508883 
L 192.012632 137.420311 
L 193.774737 133.938776 
L 197.298947 131.421359 
L 199.061053 127.904116 
L 200.823158 126.056225 
L 202.585263 124.485071 
L 204.347368 122.262244 
L 206.109474 118.298651 
L 207.871579 115.861577 
L 209.633684 114.772481 
L 211.395789 114.219006 
L 214.92 111.121333 
L 218.444211 110.916012 
L 220.206316 110.210778 
L 221.968421 110.996355 
L 223.730526 113.665532 
L 225.492632 114.638576 
L 227.254737 114.933167 
L 229.016842 115.808015 
L 230.778947 114.817116 
L 232.541053 114.335058 
L 234.303158 114.736773 
L 236.065263 114.7457 
L 237.827368 114.433255 
L 239.589474 114.29935 
L 241.351579 116.03119 
L 243.113684 116.89711 
L 244.875789 118.334359 
L 246.637895 118.164746 
L 248.4 117.414877 
L 250.162105 115.549131 
L 251.924211 114.14759 
L 253.686316 113.353086 
L 255.448421 112.933517 
L 257.210526 112.094378 
L 258.972632 110.460734 
L 260.734737 109.898333 
L 262.496842 110.300048 
L 264.258947 109.085974 
L 266.021053 107.657653 
L 267.783158 105.881177 
L 269.545263 104.515344 
L 271.307368 102.685307 
L 273.069474 100.060765 
L 274.831579 99.41802 
L 276.593684 97.168413 
L 278.355789 96.22215 
L 280.117895 94.302842 
L 281.88 92.669199 
L 283.642105 91.339074 
L 285.404211 91.160534 
L 287.166316 89.401913 
L 288.928421 88.30389 
L 290.690526 87.545094 
L 292.452632 86.197115 
L 294.214737 86.188188 
L 295.976842 85.340122 
L 297.738947 84.840209 
L 299.501053 84.108194 
L 303.025263 85.456173 
L 304.787368 84.875917 
L 306.549474 84.054632 
L 308.311579 83.831457 
L 310.073684 82.09069 
L 311.835789 81.439018 
L 313.597895 79.01087 
L 315.36 78.225293 
L 317.122105 78.930527 
L 318.884211 79.34117 
L 320.646316 77.761089 
L 322.408421 78.269928 
L 325.932632 77.207614 
L 327.694737 78.136023 
L 329.456842 77.54684 
L 331.218947 78.127096 
L 332.981053 77.180833 
L 334.743158 78.466323 
L 336.505263 77.537913 
L 338.267368 76.404183 
L 340.029474 75.850708 
L 341.791579 75.591825 
L 343.553684 74.502729 
L 345.315789 74.77054 
L 347.077895 76.145299 
L 348.84 77.136198 
L 350.602105 75.734657 
L 352.364211 74.154576 
L 354.126316 73.824276 
L 355.888421 74.966934 
L 357.650526 74.654488 
L 359.412632 74.841956 
L 361.174737 72.645911 
L 362.936842 70.878362 
L 364.698947 69.905318 
L 366.461053 67.977083 
L 368.223158 66.495199 
L 369.985263 63.745679 
L 371.747368 62.415555 
L 373.509474 61.35324 
L 377.033684 58.746553 
L 378.795789 59.353589 
L 380.557895 58.326983 
L 382.32 55.479266 
L 385.844211 53.533177 
L 387.606316 50.899709 
L 389.368421 49.685635 
L 391.130526 47.355685 
L 392.892632 46.123757 
L 394.654737 43.311748 
L 396.416842 43.401019 
L 398.178947 42.347631 
L 399.941053 42.481536 
L 401.703158 43.713464 
L 405.227368 49.051817 
L 408.751579 56.27377 
L 410.513684 62.210233 
L 412.275789 67.048674 
L 414.037895 70.548063 
L 415.8 74.931226 
L 417.562105 80.073185 
L 419.324211 84.376005 
L 421.086316 89.642942 
L 422.848421 95.490135 
L 424.610526 100.150035 
L 426.372632 105.96152 
L 428.134737 111.273092 
L 429.896842 118.414702 
L 431.658947 123.26207 
L 433.421053 128.716474 
L 435.183158 133.77809 
L 436.945263 137.313187 
L 438.707368 138.437991 
L 440.469474 139.803824 
L 442.231579 140.357298 
L 443.993684 140.56262 
L 445.755789 138.812925 
L 447.517895 138.018421 
L 449.28 137.884516 
L 451.042105 136.643661 
L 454.566316 135.456369 
L 456.328421 134.947529 
L 458.090526 134.893967 
L 461.614737 133.581696 
L 463.376842 133.519207 
L 465.138947 131.983761 
L 466.901053 132.358695 
L 468.663158 133.010367 
L 470.425263 132.938951 
L 472.187368 133.831652 
L 473.949474 135.884865 
L 475.711579 136.661515 
L 477.473684 137.206063 
L 479.235789 138.402283 
L 480.997895 138.50048 
L 484.522105 139.482451 
L 486.284211 140.589401 
L 488.046316 142.553343 
L 489.808421 143.419263 
L 491.570526 144.088789 
L 493.332632 144.062008 
L 495.094737 144.588702 
L 496.856842 145.231447 
L 498.618947 143.222869 
L 500.381053 144.133424 
L 502.143158 145.329644 
L 503.905263 145.454622 
L 505.667368 144.526213 
L 507.429474 145.258228 
L 509.191579 145.633162 
L 510.953684 146.918652 
L 512.715789 147.034703 
L 514.477895 148.221996 
L 516.24 149.998471 
L 518.002105 153.212196 
L 519.764211 153.149707 
L 521.526316 153.58713 
L 523.288421 153.82816 
L 525.050526 153.417517 
L 526.812632 153.783525 
L 528.574737 155.792102 
L 530.336842 157.550724 
L 532.098947 157.88995 
L 533.861053 160.327025 
L 537.385263 160.862645 
L 539.147368 161.487536 
L 540.909474 162.558778 
L 542.671579 161.791055 
L 544.433684 161.469682 
L 546.195789 162.237405 
L 547.957895 164.487012 
L 549.72 163.630019 
L 551.482105 164.34418 
L 553.244211 162.996201 
L 556.768421 165.745721 
L 558.530526 166.165291 
L 562.054737 169.200475 
L 563.816842 169.271891 
L 565.578947 169.584336 
L 567.341053 170.968023 
L 569.103158 171.896432 
L 570.865263 173.72647 
L 572.627368 174.690587 
L 576.151579 175.351186 
L 577.913684 175.976077 
L 579.675789 175.377967 
L 581.437895 174.913763 
L 583.2 173.913937 
L 583.2 173.913937 
" style="fill:none;stroke:#0000ff;stroke-linecap:square;stroke-width:1.5;"/>
   </g>
   <g id="patch_3">
    <path d="M 81 192.24 
L 81 25.92 
" style="fill:none;stroke:#000000;stroke-linecap:square;stroke-linejoin:miter;stroke-width:0.8;"/>
   </g>
   <g id="patch_4">
    <path d="M 583.2 192.24 
L 583.2 25.92 
" style="fill:none;stroke:#000000;stroke-linecap:square;stroke-linejoin:miter;stroke-width:0.8;"/>
   </g>
   <g id="patch_5">
    <path d="M 81 192.24 
L 583.2 192.24 
" style="fill:none;stroke:#000000;stroke-linecap:square;stroke-linejoin:miter;stroke-width:0.8;"/>
   </g>
   <g id="patch_6">
    <path d="M 81 25.92 
L 583.2 25.92 
" style="fill:none;stroke:#000000;stroke-linecap:square;stroke-linejoin:miter;stroke-width:0.8;"/>
   </g>
   <g id="text_14">
    <!-- Thalamus, Num Trials=160 All stimulated trials -->
    <defs>
     <path d="M 54.890625 33.015625 
L 54.890625 0 
L 45.90625 0 
L 45.90625 32.71875 
Q 45.90625 40.484375 42.875 44.328125 
Q 39.84375 48.1875 33.796875 48.1875 
Q 26.515625 48.1875 22.3125 43.546875 
Q 18.109375 38.921875 18.109375 30.90625 
L 18.109375 0 
L 9.078125 0 
L 9.078125 75.984375 
L 18.109375 75.984375 
L 18.109375 46.1875 
Q 21.34375 51.125 25.703125 53.5625 
Q 30.078125 56 35.796875 56 
Q 45.21875 56 50.046875 50.171875 
Q 54.890625 44.34375 54.890625 33.015625 
z
" id="DejaVuSans-104"/>
     <path d="M 34.28125 27.484375 
Q 23.390625 27.484375 19.1875 25 
Q 14.984375 22.515625 14.984375 16.5 
Q 14.984375 11.71875 18.140625 8.90625 
Q 21.296875 6.109375 26.703125 6.109375 
Q 34.1875 6.109375 38.703125 11.40625 
Q 43.21875 16.703125 43.21875 25.484375 
L 43.21875 27.484375 
z
M 52.203125 31.203125 
L 52.203125 0 
L 43.21875 0 
L 43.21875 8.296875 
Q 40.140625 3.328125 35.546875 0.953125 
Q 30.953125 -1.421875 24.3125 -1.421875 
Q 15.921875 -1.421875 10.953125 3.296875 
Q 6 8.015625 6 15.921875 
Q 6 25.140625 12.171875 29.828125 
Q 18.359375 34.515625 30.609375 34.515625 
L 43.21875 34.515625 
L 43.21875 35.40625 
Q 43.21875 41.609375 39.140625 45 
Q 35.0625 48.390625 27.6875 48.390625 
Q 23 48.390625 18.546875 47.265625 
Q 14.109375 46.140625 10.015625 43.890625 
L 10.015625 52.203125 
Q 14.9375 54.109375 19.578125 55.046875 
Q 24.21875 56 28.609375 56 
Q 40.484375 56 46.34375 49.84375 
Q 52.203125 43.703125 52.203125 31.203125 
z
" id="DejaVuSans-97"/>
     <path d="M 8.5 21.578125 
L 8.5 54.6875 
L 17.484375 54.6875 
L 17.484375 21.921875 
Q 17.484375 14.15625 20.5 10.265625 
Q 23.53125 6.390625 29.59375 6.390625 
Q 36.859375 6.390625 41.078125 11.03125 
Q 45.3125 15.671875 45.3125 23.6875 
L 45.3125 54.6875 
L 54.296875 54.6875 
L 54.296875 0 
L 45.3125 0 
L 45.3125 8.40625 
Q 42.046875 3.421875 37.71875 1 
Q 33.40625 -1.421875 27.6875 -1.421875 
Q 18.265625 -1.421875 13.375 4.4375 
Q 8.5 10.296875 8.5 21.578125 
z
M 31.109375 56 
z
" id="DejaVuSans-117"/>
     <path d="M 11.71875 12.40625 
L 22.015625 12.40625 
L 22.015625 4 
L 14.015625 -11.625 
L 7.71875 -11.625 
L 11.71875 4 
z
" id="DejaVuSans-44"/>
     <path d="M 9.8125 72.90625 
L 23.09375 72.90625 
L 55.421875 11.921875 
L 55.421875 72.90625 
L 64.984375 72.90625 
L 64.984375 0 
L 51.703125 0 
L 19.390625 60.984375 
L 19.390625 0 
L 9.8125 0 
z
" id="DejaVuSans-78"/>
     <path d="M 41.109375 46.296875 
Q 39.59375 47.171875 37.8125 47.578125 
Q 36.03125 48 33.890625 48 
Q 26.265625 48 22.1875 43.046875 
Q 18.109375 38.09375 18.109375 28.8125 
L 18.109375 0 
L 9.078125 0 
L 9.078125 54.6875 
L 18.109375 54.6875 
L 18.109375 46.1875 
Q 20.953125 51.171875 25.484375 53.578125 
Q 30.03125 56 36.53125 56 
Q 37.453125 56 38.578125 55.875 
Q 39.703125 55.765625 41.0625 55.515625 
z
" id="DejaVuSans-114"/>
     <path d="M 10.59375 45.40625 
L 73.1875 45.40625 
L 73.1875 37.203125 
L 10.59375 37.203125 
z
M 10.59375 25.484375 
L 73.1875 25.484375 
L 73.1875 17.1875 
L 10.59375 17.1875 
z
" id="DejaVuSans-61"/>
     <path d="M 33.015625 40.375 
Q 26.375 40.375 22.484375 35.828125 
Q 18.609375 31.296875 18.609375 23.390625 
Q 18.609375 15.53125 22.484375 10.953125 
Q 26.375 6.390625 33.015625 6.390625 
Q 39.65625 6.390625 43.53125 10.953125 
Q 47.40625 15.53125 47.40625 23.390625 
Q 47.40625 31.296875 43.53125 35.828125 
Q 39.65625 40.375 33.015625 40.375 
z
M 52.59375 71.296875 
L 52.59375 62.3125 
Q 48.875 64.0625 45.09375 64.984375 
Q 41.3125 65.921875 37.59375 65.921875 
Q 27.828125 65.921875 22.671875 59.328125 
Q 17.53125 52.734375 16.796875 39.40625 
Q 19.671875 43.65625 24.015625 45.921875 
Q 28.375 48.1875 33.59375 48.1875 
Q 44.578125 48.1875 50.953125 41.515625 
Q 57.328125 34.859375 57.328125 23.390625 
Q 57.328125 12.15625 50.6875 5.359375 
Q 44.046875 -1.421875 33.015625 -1.421875 
Q 20.359375 -1.421875 13.671875 8.265625 
Q 6.984375 17.96875 6.984375 36.375 
Q 6.984375 53.65625 15.1875 63.9375 
Q 23.390625 74.21875 37.203125 74.21875 
Q 40.921875 74.21875 44.703125 73.484375 
Q 48.484375 72.75 52.59375 71.296875 
z
" id="DejaVuSans-54"/>
     <path d="M 45.40625 46.390625 
L 45.40625 75.984375 
L 54.390625 75.984375 
L 54.390625 0 
L 45.40625 0 
L 45.40625 8.203125 
Q 42.578125 3.328125 38.25 0.953125 
Q 33.9375 -1.421875 27.875 -1.421875 
Q 17.96875 -1.421875 11.734375 6.484375 
Q 5.515625 14.40625 5.515625 27.296875 
Q 5.515625 40.1875 11.734375 48.09375 
Q 17.96875 56 27.875 56 
Q 33.9375 56 38.25 53.625 
Q 42.578125 51.265625 45.40625 46.390625 
z
M 14.796875 27.296875 
Q 14.796875 17.390625 18.875 11.75 
Q 22.953125 6.109375 30.078125 6.109375 
Q 37.203125 6.109375 41.296875 11.75 
Q 45.40625 17.390625 45.40625 27.296875 
Q 45.40625 37.203125 41.296875 42.84375 
Q 37.203125 48.484375 30.078125 48.484375 
Q 22.953125 48.484375 18.875 42.84375 
Q 14.796875 37.203125 14.796875 27.296875 
z
" id="DejaVuSans-100"/>
    </defs>
    <g transform="translate(190.146563 19.92)scale(0.12 -0.12)">
     <use xlink:href="#DejaVuSans-84"/>
     <use x="61.083984" xlink:href="#DejaVuSans-104"/>
     <use x="124.462891" xlink:href="#DejaVuSans-97"/>
     <use x="185.742188" xlink:href="#DejaVuSans-108"/>
     <use x="213.525391" xlink:href="#DejaVuSans-97"/>
     <use x="274.804688" xlink:href="#DejaVuSans-109"/>
     <use x="372.216797" xlink:href="#DejaVuSans-117"/>
     <use x="435.595703" xlink:href="#DejaVuSans-115"/>
     <use x="487.695312" xlink:href="#DejaVuSans-44"/>
     <use x="519.482422" xlink:href="#DejaVuSans-32"/>
     <use x="551.269531" xlink:href="#DejaVuSans-78"/>
     <use x="626.074219" xlink:href="#DejaVuSans-117"/>
     <use x="689.453125" xlink:href="#DejaVuSans-109"/>
     <use x="786.865234" xlink:href="#DejaVuSans-32"/>
     <use x="818.652344" xlink:href="#DejaVuSans-84"/>
     <use x="879.517578" xlink:href="#DejaVuSans-114"/>
     <use x="920.630859" xlink:href="#DejaVuSans-105"/>
     <use x="948.414062" xlink:href="#DejaVuSans-97"/>
     <use x="1009.693359" xlink:href="#DejaVuSans-108"/>
     <use x="1037.476562" xlink:href="#DejaVuSans-115"/>
     <use x="1089.576172" xlink:href="#DejaVuSans-61"/>
     <use x="1173.365234" xlink:href="#DejaVuSans-49"/>
     <use x="1236.988281" xlink:href="#DejaVuSans-54"/>
     <use x="1300.611328" xlink:href="#DejaVuSans-48"/>
     <use x="1364.234375" xlink:href="#DejaVuSans-32"/>
     <use x="1396.021484" xlink:href="#DejaVuSans-65"/>
     <use x="1464.429688" xlink:href="#DejaVuSans-108"/>
     <use x="1492.212891" xlink:href="#DejaVuSans-108"/>
     <use x="1519.996094" xlink:href="#DejaVuSans-32"/>
     <use x="1551.783203" xlink:href="#DejaVuSans-115"/>
     <use x="1603.882812" xlink:href="#DejaVuSans-116"/>
     <use x="1643.091797" xlink:href="#DejaVuSans-105"/>
     <use x="1670.875" xlink:href="#DejaVuSans-109"/>
     <use x="1768.287109" xlink:href="#DejaVuSans-117"/>
     <use x="1831.666016" xlink:href="#DejaVuSans-108"/>
     <use x="1859.449219" xlink:href="#DejaVuSans-97"/>
     <use x="1920.728516" xlink:href="#DejaVuSans-116"/>
     <use x="1959.9375" xlink:href="#DejaVuSans-101"/>
     <use x="2021.460938" xlink:href="#DejaVuSans-100"/>
     <use x="2084.9375" xlink:href="#DejaVuSans-32"/>
     <use x="2116.724609" xlink:href="#DejaVuSans-116"/>
     <use x="2155.933594" xlink:href="#DejaVuSans-114"/>
     <use x="2197.046875" xlink:href="#DejaVuSans-105"/>
     <use x="2224.830078" xlink:href="#DejaVuSans-97"/>
     <use x="2286.109375" xlink:href="#DejaVuSans-108"/>
     <use x="2313.892578" xlink:href="#DejaVuSans-115"/>
    </g>
   </g>
   <g id="legend_1">
    <g id="patch_7">
     <path d="M 462.496875 70.7475 
L 574.8 70.7475 
Q 577.2 70.7475 577.2 68.3475 
L 577.2 34.32 
Q 577.2 31.92 574.8 31.92 
L 462.496875 31.92 
Q 460.096875 31.92 460.096875 34.32 
L 460.096875 68.3475 
Q 460.096875 70.7475 462.496875 70.7475 
z
" style="fill:#ffffff;opacity:0.8;stroke:#cccccc;stroke-linejoin:miter;"/>
    </g>
    <g id="line2d_13">
     <path d="M 464.896875 41.638125 
L 488.896875 41.638125 
" style="fill:none;stroke:#0000ff;stroke-linecap:square;stroke-width:1.5;"/>
    </g>
    <g id="line2d_14"/>
    <g id="text_15">
     <!-- Moving Avg. -->
     <g transform="translate(498.496875 45.838125)scale(0.12 -0.12)">
      <use xlink:href="#DejaVuSans-77"/>
      <use x="86.279297" xlink:href="#DejaVuSans-111"/>
      <use x="147.460938" xlink:href="#DejaVuSans-118"/>
      <use x="206.640625" xlink:href="#DejaVuSans-105"/>
      <use x="234.423828" xlink:href="#DejaVuSans-110"/>
      <use x="297.802734" xlink:href="#DejaVuSans-103"/>
      <use x="361.279297" xlink:href="#DejaVuSans-32"/>
      <use x="393.066406" xlink:href="#DejaVuSans-65"/>
      <use x="461.396484" xlink:href="#DejaVuSans-118"/>
      <use x="520.576172" xlink:href="#DejaVuSans-103"/>
      <use x="584.052734" xlink:href="#DejaVuSans-46"/>
     </g>
    </g>
    <g id="patch_8">
     <path d="M 464.896875 63.451875 
L 488.896875 63.451875 
L 488.896875 55.051875 
L 464.896875 55.051875 
z
" style="fill:#0000ff;opacity:0.3;stroke:#0000ff;stroke-linejoin:miter;"/>
    </g>
    <g id="text_16">
     <!-- Std. Err. -->
     <defs>
      <path d="M 53.515625 70.515625 
L 53.515625 60.890625 
Q 47.90625 63.578125 42.921875 64.890625 
Q 37.9375 66.21875 33.296875 66.21875 
Q 25.25 66.21875 20.875 63.09375 
Q 16.5 59.96875 16.5 54.203125 
Q 16.5 49.359375 19.40625 46.890625 
Q 22.3125 44.4375 30.421875 42.921875 
L 36.375 41.703125 
Q 47.40625 39.59375 52.65625 34.296875 
Q 57.90625 29 57.90625 20.125 
Q 57.90625 9.515625 50.796875 4.046875 
Q 43.703125 -1.421875 29.984375 -1.421875 
Q 24.8125 -1.421875 18.96875 -0.25 
Q 13.140625 0.921875 6.890625 3.21875 
L 6.890625 13.375 
Q 12.890625 10.015625 18.65625 8.296875 
Q 24.421875 6.59375 29.984375 6.59375 
Q 38.421875 6.59375 43.015625 9.90625 
Q 47.609375 13.234375 47.609375 19.390625 
Q 47.609375 24.75 44.3125 27.78125 
Q 41.015625 30.8125 33.5 32.328125 
L 27.484375 33.5 
Q 16.453125 35.6875 11.515625 40.375 
Q 6.59375 45.0625 6.59375 53.421875 
Q 6.59375 63.09375 13.40625 68.65625 
Q 20.21875 74.21875 32.171875 74.21875 
Q 37.3125 74.21875 42.625 73.28125 
Q 47.953125 72.359375 53.515625 70.515625 
z
" id="DejaVuSans-83"/>
      <path d="M 9.8125 72.90625 
L 55.90625 72.90625 
L 55.90625 64.59375 
L 19.671875 64.59375 
L 19.671875 43.015625 
L 54.390625 43.015625 
L 54.390625 34.71875 
L 19.671875 34.71875 
L 19.671875 8.296875 
L 56.78125 8.296875 
L 56.78125 0 
L 9.8125 0 
z
" id="DejaVuSans-69"/>
     </defs>
     <g transform="translate(498.496875 63.451875)scale(0.12 -0.12)">
      <use xlink:href="#DejaVuSans-83"/>
      <use x="63.476562" xlink:href="#DejaVuSans-116"/>
      <use x="102.685547" xlink:href="#DejaVuSans-100"/>
      <use x="166.162109" xlink:href="#DejaVuSans-46"/>
      <use x="197.949219" xlink:href="#DejaVuSans-32"/>
      <use x="229.736328" xlink:href="#DejaVuSans-69"/>
      <use x="292.919922" xlink:href="#DejaVuSans-114"/>
      <use x="334.017578" xlink:href="#DejaVuSans-114"/>
      <use x="374.990234" xlink:href="#DejaVuSans-46"/>
     </g>
    </g>
   </g>
  </g>
 </g>
 <defs>
  <clipPath id="p1bd60e8e16">
   <rect height="166.32" width="502.2" x="81" y="25.92"/>
  </clipPath>
 </defs>
</svg>
