<?xml version="1.0" encoding="utf-8" standalone="no"?>
<!DOCTYPE svg PUBLIC "-//W3C//DTD SVG 1.1//EN"
  "http://www.w3.org/Graphics/SVG/1.1/DTD/svg11.dtd">
<!-- Created with matplotlib (https://matplotlib.org/) -->
<svg height="223.2pt" version="1.1" viewBox="0 0 576 223.2" width="576pt" xmlns="http://www.w3.org/2000/svg" xmlns:xlink="http://www.w3.org/1999/xlink">
 <defs>
  <style type="text/css">
*{stroke-linecap:butt;stroke-linejoin:round;}
  </style>
 </defs>
 <g id="figure_1">
  <g id="patch_1">
   <path d="M 0 223.2 
L 576 223.2 
L 576 0 
L 0 0 
z
" style="fill:#ffffff;"/>
  </g>
  <g id="axes_1">
   <g id="patch_2">
    <path d="M 54.47 174.76 
L 565.2 174.76 
L 565.2 26.88 
L 54.47 26.88 
z
" style="fill:#ffffff;"/>
   </g>
   <g id="PolyCollection_1">
    <defs>
     <path d="M 117.106698 -48.44 
L 117.106698 -196.32 
L 406.199151 -196.32 
L 406.199151 -48.44 
L 406.199151 -48.44 
L 117.106698 -48.44 
z
" id="mda844743ec" style="stroke:#808080;stroke-opacity:0.3;"/>
    </defs>
    <g clip-path="url(#pc71a36f774)">
     <use style="fill:#808080;fill-opacity:0.3;stroke:#808080;stroke-opacity:0.3;" x="0" xlink:href="#mda844743ec" y="223.2"/>
    </g>
   </g>
   <g id="PolyCollection_2">
    <defs>
     <path d="M 54.47 -128.417815 
L 54.47 -110.206502 
L 56.397283 -107.660189 
L 58.324566 -105.57653 
L 60.251849 -104.670326 
L 62.179132 -102.503012 
L 64.106415 -101.851959 
L 66.033698 -101.010132 
L 67.960981 -100.079318 
L 69.888264 -100.307374 
L 71.815547 -102.23488 
L 73.74283 -102.479699 
L 75.670113 -99.946802 
L 77.597396 -99.567653 
L 79.524679 -99.506337 
L 81.451962 -98.024643 
L 83.379245 -97.738141 
L 85.306528 -98.986273 
L 87.233811 -100.892342 
L 89.161094 -104.894598 
L 91.088377 -103.879225 
L 93.01566 -103.986166 
L 94.942943 -104.25598 
L 96.870226 -105.222556 
L 98.797509 -105.575049 
L 100.724792 -107.857885 
L 102.652075 -107.323733 
L 104.579358 -108.768235 
L 106.506642 -109.079309 
L 108.433925 -110.42425 
L 110.361208 -109.56586 
L 112.288491 -107.063094 
L 114.215774 -106.713736 
L 116.143057 -105.628223 
L 118.07034 -103.792505 
L 119.997623 -103.933636 
L 121.924906 -106.276671 
L 123.852189 -108.007343 
L 125.779472 -110.135873 
L 127.706755 -113.833315 
L 129.634038 -114.750245 
L 131.561321 -116.394785 
L 133.488604 -116.664071 
L 135.415887 -118.863103 
L 137.34317 -121.649614 
L 139.270453 -124.758913 
L 141.197736 -128.689695 
L 143.125019 -136.745068 
L 145.052302 -143.230788 
L 146.979585 -142.247757 
L 148.906868 -142.707056 
L 150.834151 -141.357417 
L 152.761434 -146.214213 
L 154.688717 -147.894892 
L 156.616 -149.819335 
L 158.543283 -149.906219 
L 160.470566 -155.057693 
L 162.397849 -153.829728 
L 164.325132 -155.59137 
L 166.252415 -157.005922 
L 168.179698 -158.342352 
L 170.106981 -159.129991 
L 172.034264 -159.470884 
L 173.961547 -162.353886 
L 175.88883 -154.719181 
L 177.816113 -153.745089 
L 179.743396 -156.210984 
L 181.670679 -153.32606 
L 183.597962 -155.438518 
L 185.525245 -155.637784 
L 187.452528 -156.262389 
L 189.379811 -158.529837 
L 191.307094 -159.278572 
L 193.234377 -154.176451 
L 195.16166 -155.835287 
L 197.088943 -157.823102 
L 199.016226 -158.80729 
L 200.943509 -159.221153 
L 202.870792 -160.694712 
L 204.798075 -163.184244 
L 206.725358 -166.333833 
L 208.652642 -160.561337 
L 210.579925 -159.856839 
L 212.507208 -154.718521 
L 214.434491 -154.762164 
L 216.361774 -155.788339 
L 218.289057 -154.024375 
L 220.21634 -143.458617 
L 222.143623 -141.098636 
L 224.070906 -141.451893 
L 225.998189 -136.640886 
L 227.925472 -138.975993 
L 229.852755 -136.652335 
L 231.780038 -133.546285 
L 233.707321 -134.446953 
L 235.634604 -131.149875 
L 237.561887 -129.731511 
L 239.48917 -132.485428 
L 241.416453 -129.322769 
L 243.343736 -127.77471 
L 245.271019 -130.374597 
L 247.198302 -130.17975 
L 249.125585 -127.760915 
L 251.052868 -126.568734 
L 252.980151 -131.409945 
L 254.907434 -131.400203 
L 256.834717 -132.859076 
L 258.762 -134.486673 
L 260.689283 -131.949318 
L 262.616566 -129.710221 
L 264.543849 -131.113502 
L 266.471132 -131.679826 
L 268.398415 -130.943075 
L 270.325698 -135.914629 
L 272.252981 -136.663918 
L 274.180264 -137.87815 
L 276.107547 -134.878917 
L 278.03483 -134.05417 
L 279.962113 -133.632304 
L 281.889396 -132.465036 
L 283.816679 -130.493198 
L 285.743962 -132.532938 
L 287.671245 -132.672963 
L 289.598528 -134.3958 
L 291.525811 -134.744878 
L 293.453094 -136.361917 
L 295.380377 -136.233681 
L 297.30766 -136.601766 
L 299.234943 -133.783573 
L 301.162226 -135.31516 
L 303.089509 -139.138062 
L 305.016792 -138.992295 
L 306.944075 -139.295664 
L 308.871358 -143.078687 
L 310.798642 -142.633088 
L 312.725925 -144.072612 
L 314.653208 -141.733686 
L 316.580491 -138.886484 
L 318.507774 -141.355043 
L 320.435057 -142.423765 
L 322.36234 -142.415625 
L 324.289623 -142.173007 
L 326.216906 -142.159473 
L 328.144189 -142.687009 
L 330.071472 -140.780881 
L 331.998755 -142.080354 
L 333.926038 -140.421291 
L 335.853321 -141.814818 
L 337.780604 -143.609122 
L 339.707887 -144.256151 
L 341.63517 -146.357975 
L 343.562453 -147.489364 
L 345.489736 -149.573513 
L 347.417019 -146.918551 
L 349.344302 -148.023087 
L 351.271585 -144.510151 
L 353.198868 -145.642119 
L 355.126151 -143.648634 
L 357.053434 -144.422905 
L 358.980717 -146.040599 
L 360.908 -146.455662 
L 362.835283 -149.949543 
L 364.762566 -149.854879 
L 366.689849 -151.953781 
L 368.617132 -154.091696 
L 370.544415 -154.76179 
L 372.471698 -153.875896 
L 374.398981 -156.471054 
L 376.326264 -158.621099 
L 378.253547 -157.97574 
L 380.18083 -158.811401 
L 382.108113 -161.247536 
L 384.035396 -163.137123 
L 385.962679 -158.606419 
L 387.889962 -159.938567 
L 389.817245 -158.305648 
L 391.744528 -159.405866 
L 393.671811 -162.165236 
L 395.599094 -161.776028 
L 397.526377 -162.219775 
L 399.45366 -164.441966 
L 401.380943 -162.683423 
L 403.308226 -163.589976 
L 405.235509 -163.524417 
L 407.162792 -166.390326 
L 409.090075 -161.540143 
L 411.017358 -161.055111 
L 412.944642 -159.319382 
L 414.871925 -158.291756 
L 416.799208 -160.362216 
L 418.726491 -158.194712 
L 420.653774 -158.985254 
L 422.581057 -156.339926 
L 424.50834 -155.073147 
L 426.435623 -152.914375 
L 428.362906 -154.1782 
L 430.290189 -151.754203 
L 432.217472 -152.267605 
L 434.144755 -151.175208 
L 436.072038 -150.877883 
L 437.999321 -149.772713 
L 439.926604 -145.645209 
L 441.853887 -143.658231 
L 443.78117 -142.423836 
L 445.708453 -138.721235 
L 447.635736 -135.059274 
L 449.563019 -134.951426 
L 451.490302 -135.495385 
L 453.417585 -133.181903 
L 455.344868 -133.600927 
L 457.272151 -132.211139 
L 459.199434 -135.291902 
L 461.126717 -135.20683 
L 463.054 -141.231961 
L 464.981283 -139.096511 
L 466.908566 -140.168352 
L 468.835849 -142.675242 
L 470.763132 -144.894374 
L 472.690415 -141.173402 
L 474.617698 -141.036293 
L 476.544981 -137.224649 
L 478.472264 -139.324406 
L 480.399547 -141.241144 
L 482.32683 -139.903945 
L 484.254113 -139.348257 
L 486.181396 -134.707775 
L 488.108679 -135.439319 
L 490.035962 -134.694549 
L 491.963245 -133.533685 
L 493.890528 -136.804415 
L 495.817811 -138.864635 
L 497.745094 -137.338685 
L 499.672377 -136.816658 
L 501.59966 -136.210951 
L 503.526943 -136.84526 
L 505.454226 -137.454243 
L 507.381509 -143.798314 
L 509.308792 -147.060859 
L 511.236075 -150.178408 
L 513.163358 -147.494765 
L 515.090642 -152.121191 
L 517.017925 -153.185612 
L 518.945208 -149.898016 
L 520.872491 -146.566647 
L 522.799774 -144.606039 
L 524.727057 -142.873708 
L 526.65434 -141.787847 
L 528.581623 -140.139909 
L 530.508906 -143.558479 
L 532.436189 -145.744756 
L 534.363472 -144.71628 
L 536.290755 -141.417107 
L 538.218038 -141.956087 
L 540.145321 -141.099684 
L 542.072604 -145.795832 
L 543.999887 -147.579527 
L 545.92717 -144.078777 
L 547.854453 -140.165396 
L 549.781736 -143.102035 
L 551.709019 -140.831136 
L 553.636302 -136.047118 
L 555.563585 -133.992124 
L 557.490868 -130.066791 
L 559.418151 -125.962892 
L 561.345434 -126.358766 
L 563.272717 -125.482328 
L 565.2 -125.949372 
L 565.2 -154.04933 
L 565.2 -154.04933 
L 563.272717 -152.895464 
L 561.345434 -154.630664 
L 559.418151 -154.323949 
L 557.490868 -159.920512 
L 555.563585 -161.996205 
L 553.636302 -164.708431 
L 551.709019 -169.774918 
L 549.781736 -171.136192 
L 547.854453 -166.057465 
L 545.92717 -173.295577 
L 543.999887 -180.353812 
L 542.072604 -176.584068 
L 540.145321 -170.59633 
L 538.218038 -170.756463 
L 536.290755 -167.61839 
L 534.363472 -175.089966 
L 532.436189 -176.55528 
L 530.508906 -174.963901 
L 528.581623 -171.498027 
L 526.65434 -176.421607 
L 524.727057 -177.678951 
L 522.799774 -178.605417 
L 520.872491 -179.580488 
L 518.945208 -181.99878 
L 517.017925 -186.384339 
L 515.090642 -181.611405 
L 513.163358 -174.976757 
L 511.236075 -175.888696 
L 509.308792 -170.066341 
L 507.381509 -164.049371 
L 505.454226 -157.313968 
L 503.526943 -157.307909 
L 501.59966 -158.235039 
L 499.672377 -158.665232 
L 497.745094 -159.241224 
L 495.817811 -159.64175 
L 493.890528 -159.808511 
L 491.963245 -158.289899 
L 490.035962 -159.844972 
L 488.108679 -161.114285 
L 486.181396 -160.866057 
L 484.254113 -168.092398 
L 482.32683 -167.209212 
L 480.399547 -169.168455 
L 478.472264 -166.551744 
L 476.544981 -162.371533 
L 474.617698 -168.01776 
L 472.690415 -169.200728 
L 470.763132 -176.655424 
L 468.835849 -172.649828 
L 466.908566 -169.195911 
L 464.981283 -170.382238 
L 463.054 -177.506758 
L 461.126717 -174.756976 
L 459.199434 -175.476903 
L 457.272151 -172.810375 
L 455.344868 -175.309984 
L 453.417585 -175.257688 
L 451.490302 -180.629319 
L 449.563019 -174.912596 
L 447.635736 -174.155122 
L 445.708453 -175.457388 
L 443.78117 -178.02484 
L 441.853887 -179.492954 
L 439.926604 -182.991328 
L 437.999321 -189.797004 
L 436.072038 -187.212248 
L 434.144755 -186.689819 
L 432.217472 -186.081972 
L 430.290189 -186.502468 
L 428.362906 -186.072996 
L 426.435623 -183.184463 
L 424.50834 -186.951675 
L 422.581057 -187.96785 
L 420.653774 -190.218273 
L 418.726491 -190.630459 
L 416.799208 -190.895182 
L 414.871925 -189.030057 
L 412.944642 -190.215273 
L 411.017358 -190.681103 
L 409.090075 -188.804184 
L 407.162792 -194.527166 
L 405.235509 -189.989368 
L 403.308226 -192.127145 
L 401.380943 -189.092675 
L 399.45366 -190.140301 
L 397.526377 -187.716523 
L 395.599094 -185.501895 
L 393.671811 -186.61832 
L 391.744528 -180.259874 
L 389.817245 -178.181706 
L 387.889962 -179.674044 
L 385.962679 -178.791611 
L 384.035396 -183.490171 
L 382.108113 -180.698916 
L 380.18083 -176.242383 
L 378.253547 -174.214932 
L 376.326264 -173.380195 
L 374.398981 -171.911969 
L 372.471698 -170.787201 
L 370.544415 -169.574372 
L 368.617132 -168.570895 
L 366.689849 -166.569948 
L 364.762566 -164.356208 
L 362.835283 -164.332942 
L 360.908 -162.596507 
L 358.980717 -164.413526 
L 357.053434 -160.534782 
L 355.126151 -160.851526 
L 353.198868 -162.000977 
L 351.271585 -162.261867 
L 349.344302 -164.132144 
L 347.417019 -164.343589 
L 345.489736 -167.255481 
L 343.562453 -164.7617 
L 341.63517 -164.028397 
L 339.707887 -162.541347 
L 337.780604 -163.315146 
L 335.853321 -160.740165 
L 333.926038 -159.436729 
L 331.998755 -161.924429 
L 330.071472 -162.37648 
L 328.144189 -165.123828 
L 326.216906 -163.176238 
L 324.289623 -167.003975 
L 322.36234 -168.349809 
L 320.435057 -168.362142 
L 318.507774 -166.451144 
L 316.580491 -161.715197 
L 314.653208 -163.717301 
L 312.725925 -167.982937 
L 310.798642 -168.294322 
L 308.871358 -168.549734 
L 306.944075 -163.98865 
L 305.016792 -166.781376 
L 303.089509 -167.287089 
L 301.162226 -163.267574 
L 299.234943 -161.18018 
L 297.30766 -166.018634 
L 295.380377 -165.351421 
L 293.453094 -164.062891 
L 291.525811 -160.671558 
L 289.598528 -160.761992 
L 287.671245 -157.40798 
L 285.743962 -157.433323 
L 283.816679 -154.700601 
L 281.889396 -156.704642 
L 279.962113 -158.143699 
L 278.03483 -159.198487 
L 276.107547 -162.345118 
L 274.180264 -162.416073 
L 272.252981 -161.122547 
L 270.325698 -160.036652 
L 268.398415 -156.476663 
L 266.471132 -158.29394 
L 264.543849 -155.468162 
L 262.616566 -155.229097 
L 260.689283 -155.632049 
L 258.762 -158.6443 
L 256.834717 -156.58693 
L 254.907434 -155.292773 
L 252.980151 -161.990178 
L 251.052868 -157.400462 
L 249.125585 -158.061917 
L 247.198302 -159.79582 
L 245.271019 -161.512921 
L 243.343736 -159.666773 
L 241.416453 -163.046029 
L 239.48917 -165.435724 
L 237.561887 -160.320446 
L 235.634604 -161.097122 
L 233.707321 -163.524459 
L 231.780038 -161.255461 
L 229.852755 -163.319903 
L 227.925472 -166.352965 
L 225.998189 -165.724936 
L 224.070906 -172.41135 
L 222.143623 -174.647521 
L 220.21634 -176.857786 
L 218.289057 -185.980237 
L 216.361774 -188.980276 
L 214.434491 -186.764243 
L 212.507208 -185.533121 
L 210.579925 -189.382762 
L 208.652642 -189.484529 
L 206.725358 -196.32 
L 204.798075 -193.752992 
L 202.870792 -190.112465 
L 200.943509 -188.119272 
L 199.016226 -190.759677 
L 197.088943 -188.554079 
L 195.16166 -185.370994 
L 193.234377 -184.719367 
L 191.307094 -189.395266 
L 189.379811 -189.079147 
L 187.452528 -185.718618 
L 185.525245 -182.845893 
L 183.597962 -181.826104 
L 181.670679 -179.884709 
L 179.743396 -184.94942 
L 177.816113 -183.174284 
L 175.88883 -181.907728 
L 173.961547 -189.403081 
L 172.034264 -187.640278 
L 170.106981 -189.717385 
L 168.179698 -191.016278 
L 166.252415 -190.452609 
L 164.325132 -187.470218 
L 162.397849 -185.573452 
L 160.470566 -192.301637 
L 158.543283 -186.753586 
L 156.616 -187.579684 
L 154.688717 -183.203753 
L 152.761434 -182.13632 
L 150.834151 -174.201584 
L 148.906868 -177.120388 
L 146.979585 -177.817201 
L 145.052302 -179.571439 
L 143.125019 -174.995269 
L 141.197736 -167.376313 
L 139.270453 -162.374533 
L 137.34317 -160.037986 
L 135.415887 -154.550468 
L 133.488604 -150.52431 
L 131.561321 -150.989377 
L 129.634038 -149.523968 
L 127.706755 -148.75255 
L 125.779472 -145.338869 
L 123.852189 -144.352125 
L 121.924906 -142.437852 
L 119.997623 -137.875492 
L 118.07034 -136.987321 
L 116.143057 -138.402511 
L 114.215774 -141.42155 
L 112.288491 -141.611563 
L 110.361208 -145.270508 
L 108.433925 -147.147795 
L 106.506642 -143.755138 
L 104.579358 -146.278246 
L 102.652075 -144.952601 
L 100.724792 -146.297635 
L 98.797509 -142.654446 
L 96.870226 -141.148488 
L 94.942943 -138.88359 
L 93.01566 -138.480204 
L 91.088377 -138.467363 
L 89.161094 -140.40927 
L 87.233811 -134.556572 
L 85.306528 -130.742371 
L 83.379245 -129.191078 
L 81.451962 -127.052006 
L 79.524679 -127.476089 
L 77.597396 -127.175705 
L 75.670113 -126.624174 
L 73.74283 -129.710785 
L 71.815547 -128.724869 
L 69.888264 -125.672518 
L 67.960981 -124.808187 
L 66.033698 -123.474746 
L 64.106415 -122.876704 
L 62.179132 -122.503145 
L 60.251849 -123.76356 
L 58.324566 -125.339187 
L 56.397283 -127.284701 
L 54.47 -128.417815 
z
" id="m03d189d6db" style="stroke:#0000ff;stroke-opacity:0.3;"/>
    </defs>
    <g clip-path="url(#pc71a36f774)">
     <use style="fill:#0000ff;fill-opacity:0.3;stroke:#0000ff;stroke-opacity:0.3;" x="0" xlink:href="#m03d189d6db" y="223.2"/>
    </g>
   </g>
   <g id="matplotlib.axis_1">
    <g id="xtick_1">
     <g id="line2d_1">
      <defs>
       <path d="M 0 0 
L 0 3.5 
" id="m68ee06a10e" style="stroke:#000000;stroke-width:0.8;"/>
      </defs>
      <g>
       <use style="stroke:#000000;stroke-width:0.8;" x="117.106698" xlink:href="#m68ee06a10e" y="174.76"/>
      </g>
     </g>
     <g id="text_1">
      <!-- 0.0 -->
      <defs>
       <path d="M 31.78125 66.40625 
Q 24.171875 66.40625 20.328125 58.90625 
Q 16.5 51.421875 16.5 36.375 
Q 16.5 21.390625 20.328125 13.890625 
Q 24.171875 6.390625 31.78125 6.390625 
Q 39.453125 6.390625 43.28125 13.890625 
Q 47.125 21.390625 47.125 36.375 
Q 47.125 51.421875 43.28125 58.90625 
Q 39.453125 66.40625 31.78125 66.40625 
z
M 31.78125 74.21875 
Q 44.046875 74.21875 50.515625 64.515625 
Q 56.984375 54.828125 56.984375 36.375 
Q 56.984375 17.96875 50.515625 8.265625 
Q 44.046875 -1.421875 31.78125 -1.421875 
Q 19.53125 -1.421875 13.0625 8.265625 
Q 6.59375 17.96875 6.59375 36.375 
Q 6.59375 54.828125 13.0625 64.515625 
Q 19.53125 74.21875 31.78125 74.21875 
z
" id="DejaVuSans-48"/>
       <path d="M 10.6875 12.40625 
L 21 12.40625 
L 21 0 
L 10.6875 0 
z
" id="DejaVuSans-46"/>
      </defs>
      <g transform="translate(107.564823 190.878125)scale(0.12 -0.12)">
       <use xlink:href="#DejaVuSans-48"/>
       <use x="63.623047" xlink:href="#DejaVuSans-46"/>
       <use x="95.410156" xlink:href="#DejaVuSans-48"/>
      </g>
     </g>
    </g>
    <g id="xtick_2">
     <g id="line2d_2">
      <g>
       <use style="stroke:#000000;stroke-width:0.8;" x="213.470849" xlink:href="#m68ee06a10e" y="174.76"/>
      </g>
     </g>
     <g id="text_2">
      <!-- 0.5 -->
      <defs>
       <path d="M 10.796875 72.90625 
L 49.515625 72.90625 
L 49.515625 64.59375 
L 19.828125 64.59375 
L 19.828125 46.734375 
Q 21.96875 47.46875 24.109375 47.828125 
Q 26.265625 48.1875 28.421875 48.1875 
Q 40.625 48.1875 47.75 41.5 
Q 54.890625 34.8125 54.890625 23.390625 
Q 54.890625 11.625 47.5625 5.09375 
Q 40.234375 -1.421875 26.90625 -1.421875 
Q 22.3125 -1.421875 17.546875 -0.640625 
Q 12.796875 0.140625 7.71875 1.703125 
L 7.71875 11.625 
Q 12.109375 9.234375 16.796875 8.0625 
Q 21.484375 6.890625 26.703125 6.890625 
Q 35.15625 6.890625 40.078125 11.328125 
Q 45.015625 15.765625 45.015625 23.390625 
Q 45.015625 31 40.078125 35.4375 
Q 35.15625 39.890625 26.703125 39.890625 
Q 22.75 39.890625 18.8125 39.015625 
Q 14.890625 38.140625 10.796875 36.28125 
z
" id="DejaVuSans-53"/>
      </defs>
      <g transform="translate(203.928974 190.878125)scale(0.12 -0.12)">
       <use xlink:href="#DejaVuSans-48"/>
       <use x="63.623047" xlink:href="#DejaVuSans-46"/>
       <use x="95.410156" xlink:href="#DejaVuSans-53"/>
      </g>
     </g>
    </g>
    <g id="xtick_3">
     <g id="line2d_3">
      <g>
       <use style="stroke:#000000;stroke-width:0.8;" x="309.835" xlink:href="#m68ee06a10e" y="174.76"/>
      </g>
     </g>
     <g id="text_3">
      <!-- 1.0 -->
      <defs>
       <path d="M 12.40625 8.296875 
L 28.515625 8.296875 
L 28.515625 63.921875 
L 10.984375 60.40625 
L 10.984375 69.390625 
L 28.421875 72.90625 
L 38.28125 72.90625 
L 38.28125 8.296875 
L 54.390625 8.296875 
L 54.390625 0 
L 12.40625 0 
z
" id="DejaVuSans-49"/>
      </defs>
      <g transform="translate(300.293125 190.878125)scale(0.12 -0.12)">
       <use xlink:href="#DejaVuSans-49"/>
       <use x="63.623047" xlink:href="#DejaVuSans-46"/>
       <use x="95.410156" xlink:href="#DejaVuSans-48"/>
      </g>
     </g>
    </g>
    <g id="xtick_4">
     <g id="line2d_4">
      <g>
       <use style="stroke:#000000;stroke-width:0.8;" x="406.199151" xlink:href="#m68ee06a10e" y="174.76"/>
      </g>
     </g>
     <g id="text_4">
      <!-- 1.5 -->
      <g transform="translate(396.657276 190.878125)scale(0.12 -0.12)">
       <use xlink:href="#DejaVuSans-49"/>
       <use x="63.623047" xlink:href="#DejaVuSans-46"/>
       <use x="95.410156" xlink:href="#DejaVuSans-53"/>
      </g>
     </g>
    </g>
    <g id="xtick_5">
     <g id="line2d_5">
      <g>
       <use style="stroke:#000000;stroke-width:0.8;" x="502.563302" xlink:href="#m68ee06a10e" y="174.76"/>
      </g>
     </g>
     <g id="text_5">
      <!-- 2.0 -->
      <defs>
       <path d="M 19.1875 8.296875 
L 53.609375 8.296875 
L 53.609375 0 
L 7.328125 0 
L 7.328125 8.296875 
Q 12.9375 14.109375 22.625 23.890625 
Q 32.328125 33.6875 34.8125 36.53125 
Q 39.546875 41.84375 41.421875 45.53125 
Q 43.3125 49.21875 43.3125 52.78125 
Q 43.3125 58.59375 39.234375 62.25 
Q 35.15625 65.921875 28.609375 65.921875 
Q 23.96875 65.921875 18.8125 64.3125 
Q 13.671875 62.703125 7.8125 59.421875 
L 7.8125 69.390625 
Q 13.765625 71.78125 18.9375 73 
Q 24.125 74.21875 28.421875 74.21875 
Q 39.75 74.21875 46.484375 68.546875 
Q 53.21875 62.890625 53.21875 53.421875 
Q 53.21875 48.921875 51.53125 44.890625 
Q 49.859375 40.875 45.40625 35.40625 
Q 44.1875 33.984375 37.640625 27.21875 
Q 31.109375 20.453125 19.1875 8.296875 
z
" id="DejaVuSans-50"/>
      </defs>
      <g transform="translate(493.021427 190.878125)scale(0.12 -0.12)">
       <use xlink:href="#DejaVuSans-50"/>
       <use x="63.623047" xlink:href="#DejaVuSans-46"/>
       <use x="95.410156" xlink:href="#DejaVuSans-48"/>
      </g>
     </g>
    </g>
    <g id="text_6">
     <!-- Time (s) -->
     <defs>
      <path d="M -0.296875 72.90625 
L 61.375 72.90625 
L 61.375 64.59375 
L 35.5 64.59375 
L 35.5 0 
L 25.59375 0 
L 25.59375 64.59375 
L -0.296875 64.59375 
z
" id="DejaVuSans-84"/>
      <path d="M 9.421875 54.6875 
L 18.40625 54.6875 
L 18.40625 0 
L 9.421875 0 
z
M 9.421875 75.984375 
L 18.40625 75.984375 
L 18.40625 64.59375 
L 9.421875 64.59375 
z
" id="DejaVuSans-105"/>
      <path d="M 52 44.1875 
Q 55.375 50.25 60.0625 53.125 
Q 64.75 56 71.09375 56 
Q 79.640625 56 84.28125 50.015625 
Q 88.921875 44.046875 88.921875 33.015625 
L 88.921875 0 
L 79.890625 0 
L 79.890625 32.71875 
Q 79.890625 40.578125 77.09375 44.375 
Q 74.3125 48.1875 68.609375 48.1875 
Q 61.625 48.1875 57.5625 43.546875 
Q 53.515625 38.921875 53.515625 30.90625 
L 53.515625 0 
L 44.484375 0 
L 44.484375 32.71875 
Q 44.484375 40.625 41.703125 44.40625 
Q 38.921875 48.1875 33.109375 48.1875 
Q 26.21875 48.1875 22.15625 43.53125 
Q 18.109375 38.875 18.109375 30.90625 
L 18.109375 0 
L 9.078125 0 
L 9.078125 54.6875 
L 18.109375 54.6875 
L 18.109375 46.1875 
Q 21.1875 51.21875 25.484375 53.609375 
Q 29.78125 56 35.6875 56 
Q 41.65625 56 45.828125 52.96875 
Q 50 49.953125 52 44.1875 
z
" id="DejaVuSans-109"/>
      <path d="M 56.203125 29.59375 
L 56.203125 25.203125 
L 14.890625 25.203125 
Q 15.484375 15.921875 20.484375 11.0625 
Q 25.484375 6.203125 34.421875 6.203125 
Q 39.59375 6.203125 44.453125 7.46875 
Q 49.3125 8.734375 54.109375 11.28125 
L 54.109375 2.78125 
Q 49.265625 0.734375 44.1875 -0.34375 
Q 39.109375 -1.421875 33.890625 -1.421875 
Q 20.796875 -1.421875 13.15625 6.1875 
Q 5.515625 13.8125 5.515625 26.8125 
Q 5.515625 40.234375 12.765625 48.109375 
Q 20.015625 56 32.328125 56 
Q 43.359375 56 49.78125 48.890625 
Q 56.203125 41.796875 56.203125 29.59375 
z
M 47.21875 32.234375 
Q 47.125 39.59375 43.09375 43.984375 
Q 39.0625 48.390625 32.421875 48.390625 
Q 24.90625 48.390625 20.390625 44.140625 
Q 15.875 39.890625 15.1875 32.171875 
z
" id="DejaVuSans-101"/>
      <path id="DejaVuSans-32"/>
      <path d="M 31 75.875 
Q 24.46875 64.65625 21.28125 53.65625 
Q 18.109375 42.671875 18.109375 31.390625 
Q 18.109375 20.125 21.3125 9.0625 
Q 24.515625 -2 31 -13.1875 
L 23.1875 -13.1875 
Q 15.875 -1.703125 12.234375 9.375 
Q 8.59375 20.453125 8.59375 31.390625 
Q 8.59375 42.28125 12.203125 53.3125 
Q 15.828125 64.359375 23.1875 75.875 
z
" id="DejaVuSans-40"/>
      <path d="M 44.28125 53.078125 
L 44.28125 44.578125 
Q 40.484375 46.53125 36.375 47.5 
Q 32.28125 48.484375 27.875 48.484375 
Q 21.1875 48.484375 17.84375 46.4375 
Q 14.5 44.390625 14.5 40.28125 
Q 14.5 37.15625 16.890625 35.375 
Q 19.28125 33.59375 26.515625 31.984375 
L 29.59375 31.296875 
Q 39.15625 29.25 43.1875 25.515625 
Q 47.21875 21.78125 47.21875 15.09375 
Q 47.21875 7.46875 41.1875 3.015625 
Q 35.15625 -1.421875 24.609375 -1.421875 
Q 20.21875 -1.421875 15.453125 -0.5625 
Q 10.6875 0.296875 5.421875 2 
L 5.421875 11.28125 
Q 10.40625 8.6875 15.234375 7.390625 
Q 20.0625 6.109375 24.8125 6.109375 
Q 31.15625 6.109375 34.5625 8.28125 
Q 37.984375 10.453125 37.984375 14.40625 
Q 37.984375 18.0625 35.515625 20.015625 
Q 33.0625 21.96875 24.703125 23.78125 
L 21.578125 24.515625 
Q 13.234375 26.265625 9.515625 29.90625 
Q 5.8125 33.546875 5.8125 39.890625 
Q 5.8125 47.609375 11.28125 51.796875 
Q 16.75 56 26.8125 56 
Q 31.78125 56 36.171875 55.265625 
Q 40.578125 54.546875 44.28125 53.078125 
z
" id="DejaVuSans-115"/>
      <path d="M 8.015625 75.875 
L 15.828125 75.875 
Q 23.140625 64.359375 26.78125 53.3125 
Q 30.421875 42.28125 30.421875 31.390625 
Q 30.421875 20.453125 26.78125 9.375 
Q 23.140625 -1.703125 15.828125 -13.1875 
L 8.015625 -13.1875 
Q 14.5 -2 17.703125 9.0625 
Q 20.90625 20.125 20.90625 31.390625 
Q 20.90625 42.671875 17.703125 53.65625 
Q 14.5 64.65625 8.015625 75.875 
z
" id="DejaVuSans-41"/>
     </defs>
     <g transform="translate(280.33975 208.3155)scale(0.144 -0.144)">
      <use xlink:href="#DejaVuSans-84"/>
      <use x="61.037109" xlink:href="#DejaVuSans-105"/>
      <use x="88.820312" xlink:href="#DejaVuSans-109"/>
      <use x="186.232422" xlink:href="#DejaVuSans-101"/>
      <use x="247.755859" xlink:href="#DejaVuSans-32"/>
      <use x="279.542969" xlink:href="#DejaVuSans-40"/>
      <use x="318.556641" xlink:href="#DejaVuSans-115"/>
      <use x="370.65625" xlink:href="#DejaVuSans-41"/>
     </g>
    </g>
   </g>
   <g id="matplotlib.axis_2">
    <g id="ytick_1">
     <g id="line2d_6">
      <defs>
       <path d="M 0 0 
L -3.5 0 
" id="mbbb33fbfcf" style="stroke:#000000;stroke-width:0.8;"/>
      </defs>
      <g>
       <use style="stroke:#000000;stroke-width:0.8;" x="54.47" xlink:href="#mbbb33fbfcf" y="174.76"/>
      </g>
     </g>
     <g id="text_7">
      <!-- 0.0 -->
      <g transform="translate(28.38625 179.319062)scale(0.12 -0.12)">
       <use xlink:href="#DejaVuSans-48"/>
       <use x="63.623047" xlink:href="#DejaVuSans-46"/>
       <use x="95.410156" xlink:href="#DejaVuSans-48"/>
      </g>
     </g>
    </g>
    <g id="ytick_2">
     <g id="line2d_7">
      <g>
       <use style="stroke:#000000;stroke-width:0.8;" x="54.47" xlink:href="#mbbb33fbfcf" y="143.043238"/>
      </g>
     </g>
     <g id="text_8">
      <!-- 0.2 -->
      <g transform="translate(28.38625 147.6023)scale(0.12 -0.12)">
       <use xlink:href="#DejaVuSans-48"/>
       <use x="63.623047" xlink:href="#DejaVuSans-46"/>
       <use x="95.410156" xlink:href="#DejaVuSans-50"/>
      </g>
     </g>
    </g>
    <g id="ytick_3">
     <g id="line2d_8">
      <g>
       <use style="stroke:#000000;stroke-width:0.8;" x="54.47" xlink:href="#mbbb33fbfcf" y="111.326476"/>
      </g>
     </g>
     <g id="text_9">
      <!-- 0.4 -->
      <defs>
       <path d="M 37.796875 64.3125 
L 12.890625 25.390625 
L 37.796875 25.390625 
z
M 35.203125 72.90625 
L 47.609375 72.90625 
L 47.609375 25.390625 
L 58.015625 25.390625 
L 58.015625 17.1875 
L 47.609375 17.1875 
L 47.609375 0 
L 37.796875 0 
L 37.796875 17.1875 
L 4.890625 17.1875 
L 4.890625 26.703125 
z
" id="DejaVuSans-52"/>
      </defs>
      <g transform="translate(28.38625 115.885538)scale(0.12 -0.12)">
       <use xlink:href="#DejaVuSans-48"/>
       <use x="63.623047" xlink:href="#DejaVuSans-46"/>
       <use x="95.410156" xlink:href="#DejaVuSans-52"/>
      </g>
     </g>
    </g>
    <g id="ytick_4">
     <g id="line2d_9">
      <g>
       <use style="stroke:#000000;stroke-width:0.8;" x="54.47" xlink:href="#mbbb33fbfcf" y="79.609713"/>
      </g>
     </g>
     <g id="text_10">
      <!-- 0.6 -->
      <defs>
       <path d="M 33.015625 40.375 
Q 26.375 40.375 22.484375 35.828125 
Q 18.609375 31.296875 18.609375 23.390625 
Q 18.609375 15.53125 22.484375 10.953125 
Q 26.375 6.390625 33.015625 6.390625 
Q 39.65625 6.390625 43.53125 10.953125 
Q 47.40625 15.53125 47.40625 23.390625 
Q 47.40625 31.296875 43.53125 35.828125 
Q 39.65625 40.375 33.015625 40.375 
z
M 52.59375 71.296875 
L 52.59375 62.3125 
Q 48.875 64.0625 45.09375 64.984375 
Q 41.3125 65.921875 37.59375 65.921875 
Q 27.828125 65.921875 22.671875 59.328125 
Q 17.53125 52.734375 16.796875 39.40625 
Q 19.671875 43.65625 24.015625 45.921875 
Q 28.375 48.1875 33.59375 48.1875 
Q 44.578125 48.1875 50.953125 41.515625 
Q 57.328125 34.859375 57.328125 23.390625 
Q 57.328125 12.15625 50.6875 5.359375 
Q 44.046875 -1.421875 33.015625 -1.421875 
Q 20.359375 -1.421875 13.671875 8.265625 
Q 6.984375 17.96875 6.984375 36.375 
Q 6.984375 53.65625 15.1875 63.9375 
Q 23.390625 74.21875 37.203125 74.21875 
Q 40.921875 74.21875 44.703125 73.484375 
Q 48.484375 72.75 52.59375 71.296875 
z
" id="DejaVuSans-54"/>
      </defs>
      <g transform="translate(28.38625 84.168776)scale(0.12 -0.12)">
       <use xlink:href="#DejaVuSans-48"/>
       <use x="63.623047" xlink:href="#DejaVuSans-46"/>
       <use x="95.410156" xlink:href="#DejaVuSans-54"/>
      </g>
     </g>
    </g>
    <g id="ytick_5">
     <g id="line2d_10">
      <g>
       <use style="stroke:#000000;stroke-width:0.8;" x="54.47" xlink:href="#mbbb33fbfcf" y="47.892951"/>
      </g>
     </g>
     <g id="text_11">
      <!-- 0.8 -->
      <defs>
       <path d="M 31.78125 34.625 
Q 24.75 34.625 20.71875 30.859375 
Q 16.703125 27.09375 16.703125 20.515625 
Q 16.703125 13.921875 20.71875 10.15625 
Q 24.75 6.390625 31.78125 6.390625 
Q 38.8125 6.390625 42.859375 10.171875 
Q 46.921875 13.96875 46.921875 20.515625 
Q 46.921875 27.09375 42.890625 30.859375 
Q 38.875 34.625 31.78125 34.625 
z
M 21.921875 38.8125 
Q 15.578125 40.375 12.03125 44.71875 
Q 8.5 49.078125 8.5 55.328125 
Q 8.5 64.0625 14.71875 69.140625 
Q 20.953125 74.21875 31.78125 74.21875 
Q 42.671875 74.21875 48.875 69.140625 
Q 55.078125 64.0625 55.078125 55.328125 
Q 55.078125 49.078125 51.53125 44.71875 
Q 48 40.375 41.703125 38.8125 
Q 48.828125 37.15625 52.796875 32.3125 
Q 56.78125 27.484375 56.78125 20.515625 
Q 56.78125 9.90625 50.3125 4.234375 
Q 43.84375 -1.421875 31.78125 -1.421875 
Q 19.734375 -1.421875 13.25 4.234375 
Q 6.78125 9.90625 6.78125 20.515625 
Q 6.78125 27.484375 10.78125 32.3125 
Q 14.796875 37.15625 21.921875 38.8125 
z
M 18.3125 54.390625 
Q 18.3125 48.734375 21.84375 45.5625 
Q 25.390625 42.390625 31.78125 42.390625 
Q 38.140625 42.390625 41.71875 45.5625 
Q 45.3125 48.734375 45.3125 54.390625 
Q 45.3125 60.0625 41.71875 63.234375 
Q 38.140625 66.40625 31.78125 66.40625 
Q 25.390625 66.40625 21.84375 63.234375 
Q 18.3125 60.0625 18.3125 54.390625 
z
" id="DejaVuSans-56"/>
      </defs>
      <g transform="translate(28.38625 52.452014)scale(0.12 -0.12)">
       <use xlink:href="#DejaVuSans-48"/>
       <use x="63.623047" xlink:href="#DejaVuSans-46"/>
       <use x="95.410156" xlink:href="#DejaVuSans-56"/>
      </g>
     </g>
    </g>
    <g id="text_12">
     <!-- COMb $\nu$ -->
     <defs>
      <path d="M 64.40625 67.28125 
L 64.40625 56.890625 
Q 59.421875 61.53125 53.78125 63.8125 
Q 48.140625 66.109375 41.796875 66.109375 
Q 29.296875 66.109375 22.65625 58.46875 
Q 16.015625 50.828125 16.015625 36.375 
Q 16.015625 21.96875 22.65625 14.328125 
Q 29.296875 6.6875 41.796875 6.6875 
Q 48.140625 6.6875 53.78125 8.984375 
Q 59.421875 11.28125 64.40625 15.921875 
L 64.40625 5.609375 
Q 59.234375 2.09375 53.4375 0.328125 
Q 47.65625 -1.421875 41.21875 -1.421875 
Q 24.65625 -1.421875 15.125 8.703125 
Q 5.609375 18.84375 5.609375 36.375 
Q 5.609375 53.953125 15.125 64.078125 
Q 24.65625 74.21875 41.21875 74.21875 
Q 47.75 74.21875 53.53125 72.484375 
Q 59.328125 70.75 64.40625 67.28125 
z
" id="DejaVuSans-67"/>
      <path d="M 39.40625 66.21875 
Q 28.65625 66.21875 22.328125 58.203125 
Q 16.015625 50.203125 16.015625 36.375 
Q 16.015625 22.609375 22.328125 14.59375 
Q 28.65625 6.59375 39.40625 6.59375 
Q 50.140625 6.59375 56.421875 14.59375 
Q 62.703125 22.609375 62.703125 36.375 
Q 62.703125 50.203125 56.421875 58.203125 
Q 50.140625 66.21875 39.40625 66.21875 
z
M 39.40625 74.21875 
Q 54.734375 74.21875 63.90625 63.9375 
Q 73.09375 53.65625 73.09375 36.375 
Q 73.09375 19.140625 63.90625 8.859375 
Q 54.734375 -1.421875 39.40625 -1.421875 
Q 24.03125 -1.421875 14.8125 8.828125 
Q 5.609375 19.09375 5.609375 36.375 
Q 5.609375 53.65625 14.8125 63.9375 
Q 24.03125 74.21875 39.40625 74.21875 
z
" id="DejaVuSans-79"/>
      <path d="M 9.8125 72.90625 
L 24.515625 72.90625 
L 43.109375 23.296875 
L 61.8125 72.90625 
L 76.515625 72.90625 
L 76.515625 0 
L 66.890625 0 
L 66.890625 64.015625 
L 48.09375 14.015625 
L 38.1875 14.015625 
L 19.390625 64.015625 
L 19.390625 0 
L 9.8125 0 
z
" id="DejaVuSans-77"/>
      <path d="M 48.6875 27.296875 
Q 48.6875 37.203125 44.609375 42.84375 
Q 40.53125 48.484375 33.40625 48.484375 
Q 26.265625 48.484375 22.1875 42.84375 
Q 18.109375 37.203125 18.109375 27.296875 
Q 18.109375 17.390625 22.1875 11.75 
Q 26.265625 6.109375 33.40625 6.109375 
Q 40.53125 6.109375 44.609375 11.75 
Q 48.6875 17.390625 48.6875 27.296875 
z
M 18.109375 46.390625 
Q 20.953125 51.265625 25.265625 53.625 
Q 29.59375 56 35.59375 56 
Q 45.5625 56 51.78125 48.09375 
Q 58.015625 40.1875 58.015625 27.296875 
Q 58.015625 14.40625 51.78125 6.484375 
Q 45.5625 -1.421875 35.59375 -1.421875 
Q 29.59375 -1.421875 25.265625 0.953125 
Q 20.953125 3.328125 18.109375 8.203125 
L 18.109375 0 
L 9.078125 0 
L 9.078125 75.984375 
L 18.109375 75.984375 
z
" id="DejaVuSans-98"/>
      <path d="M 14.984375 0 
L 8.9375 54.6875 
L 18.609375 54.6875 
L 23.78125 8.796875 
Q 30.8125 14.84375 37.359375 23.25 
Q 42.28125 29.546875 43.5625 35.015625 
Q 44.140625 37.59375 43.890625 42.484375 
Q 43.65625 48.296875 39.75 54.6875 
L 48.828125 54.6875 
L 48.828125 54.6875 
Q 51.375 50.34375 52.390625 44.28125 
Q 53.375 38.71875 52.640625 34.90625 
Q 50.78125 25.34375 42.484375 16.796875 
Q 31.640625 5.671875 24.5625 0 
z
" id="DejaVuSans-Oblique-957"/>
     </defs>
     <g transform="translate(21.3915 128.612)rotate(-90)scale(0.144 -0.144)">
      <use transform="translate(0 0.015625)" xlink:href="#DejaVuSans-67"/>
      <use transform="translate(69.824219 0.015625)" xlink:href="#DejaVuSans-79"/>
      <use transform="translate(148.535156 0.015625)" xlink:href="#DejaVuSans-77"/>
      <use transform="translate(234.814453 0.015625)" xlink:href="#DejaVuSans-98"/>
      <use transform="translate(298.291016 0.015625)" xlink:href="#DejaVuSans-32"/>
      <use transform="translate(330.078125 0.015625)" xlink:href="#DejaVuSans-Oblique-957"/>
     </g>
    </g>
   </g>
   <g id="line2d_11">
    <path clip-path="url(#pc71a36f774)" d="M 54.47 103.887841 
L 56.397283 105.727555 
L 58.324566 107.742141 
L 60.251849 108.983057 
L 62.179132 110.696922 
L 66.033698 110.957561 
L 67.960981 110.756248 
L 69.888264 110.210054 
L 71.815547 107.720126 
L 73.74283 107.104758 
L 75.670113 109.914512 
L 79.524679 109.708787 
L 81.451962 110.661675 
L 83.379245 109.735391 
L 85.306528 108.335678 
L 87.233811 105.475543 
L 89.161094 100.548066 
L 91.088377 102.026706 
L 93.01566 101.966815 
L 94.942943 101.630215 
L 96.870226 100.014478 
L 98.797509 99.085253 
L 100.724792 96.12224 
L 102.652075 97.061833 
L 104.579358 95.67676 
L 106.506642 96.782777 
L 108.433925 94.413978 
L 110.361208 95.781816 
L 112.288491 98.862671 
L 114.215774 99.132357 
L 116.143057 101.184633 
L 118.07034 102.810087 
L 119.997623 102.295436 
L 121.924906 98.842738 
L 123.852189 97.020266 
L 125.779472 95.462629 
L 127.706755 91.907068 
L 129.634038 91.062894 
L 131.561321 89.507919 
L 133.488604 89.60581 
L 135.415887 86.493215 
L 137.34317 82.3562 
L 139.270453 79.633277 
L 141.197736 75.166996 
L 143.125019 67.329831 
L 145.052302 61.798887 
L 146.979585 63.167521 
L 148.906868 63.286278 
L 150.834151 65.420499 
L 152.761434 59.024733 
L 154.688717 57.650678 
L 156.616 54.50049 
L 158.543283 54.870097 
L 160.470566 49.520335 
L 162.397849 53.49841 
L 164.325132 51.669206 
L 166.252415 49.470735 
L 168.179698 48.520685 
L 170.106981 48.776312 
L 172.034264 49.644419 
L 173.961547 47.321517 
L 175.88883 54.886546 
L 177.816113 54.740313 
L 179.743396 52.619798 
L 181.670679 56.594615 
L 183.597962 54.567689 
L 185.525245 53.958161 
L 187.452528 52.209496 
L 189.379811 49.395508 
L 191.307094 48.863081 
L 193.234377 53.752091 
L 195.16166 52.59686 
L 197.088943 50.011409 
L 199.016226 48.416516 
L 200.943509 49.529787 
L 202.870792 47.796412 
L 206.725358 41.873084 
L 208.652642 48.177067 
L 210.579925 48.580199 
L 212.507208 53.074179 
L 214.434491 52.436796 
L 216.361774 50.815693 
L 218.289057 53.197694 
L 220.21634 63.041798 
L 222.143623 65.326922 
L 224.070906 66.268378 
L 225.998189 72.017089 
L 227.925472 70.535521 
L 231.780038 75.799127 
L 233.707321 74.214294 
L 235.634604 77.076501 
L 237.561887 78.174022 
L 239.48917 74.239424 
L 241.416453 77.015601 
L 243.343736 79.479258 
L 245.271019 77.256241 
L 247.198302 78.212215 
L 249.125585 80.288584 
L 251.052868 81.215402 
L 252.980151 76.499939 
L 254.907434 79.853512 
L 256.834717 78.476997 
L 258.762 76.634513 
L 260.689283 79.409316 
L 262.616566 80.730341 
L 264.543849 79.909168 
L 266.471132 78.213117 
L 268.398415 79.490131 
L 270.325698 75.22436 
L 272.252981 74.306767 
L 274.180264 73.052889 
L 276.107547 74.587982 
L 278.03483 76.573671 
L 279.962113 77.311998 
L 281.889396 78.615161 
L 283.816679 80.6031 
L 285.743962 78.21687 
L 287.671245 78.159528 
L 289.598528 75.621104 
L 291.525811 75.491782 
L 293.453094 72.987596 
L 297.30766 71.8898 
L 299.234943 75.718123 
L 301.162226 73.908633 
L 303.089509 69.987424 
L 305.016792 70.313164 
L 306.944075 71.557843 
L 308.871358 67.385789 
L 310.798642 67.736295 
L 312.725925 67.172226 
L 314.653208 70.474507 
L 316.580491 72.89916 
L 318.507774 69.296907 
L 320.435057 67.807047 
L 322.36234 67.817283 
L 324.289623 68.611509 
L 326.216906 70.532144 
L 328.144189 69.294582 
L 330.071472 71.62132 
L 331.998755 71.197609 
L 333.926038 73.27099 
L 335.853321 71.922509 
L 337.780604 69.737866 
L 339.707887 69.801251 
L 341.63517 68.006814 
L 343.562453 67.074468 
L 345.489736 64.785503 
L 347.417019 67.56893 
L 349.344302 67.122384 
L 351.271585 69.813991 
L 353.198868 69.378452 
L 355.126151 70.94992 
L 357.053434 70.721156 
L 358.980717 67.972937 
L 360.908 68.673915 
L 362.835283 66.058757 
L 364.762566 66.094457 
L 368.617132 61.868705 
L 370.544415 61.031919 
L 372.471698 60.868452 
L 376.326264 57.199353 
L 378.253547 57.104664 
L 380.18083 55.673108 
L 382.108113 52.226774 
L 384.035396 49.886353 
L 385.962679 54.500985 
L 387.889962 53.393695 
L 389.817245 54.956323 
L 391.744528 53.36713 
L 393.671811 48.808222 
L 395.599094 49.561039 
L 397.526377 48.231851 
L 399.45366 45.908867 
L 401.380943 47.311951 
L 403.308226 45.34144 
L 405.235509 46.443108 
L 407.162792 42.741254 
L 409.090075 48.027836 
L 411.017358 47.331893 
L 414.871925 49.539094 
L 416.799208 47.571301 
L 418.726491 48.787415 
L 420.653774 48.598236 
L 422.581057 51.046112 
L 424.50834 52.187589 
L 426.435623 55.150581 
L 428.362906 53.074402 
L 430.290189 54.071665 
L 432.217472 54.025211 
L 434.144755 54.267487 
L 436.072038 54.154935 
L 437.999321 53.415141 
L 439.926604 58.881731 
L 441.853887 61.624407 
L 443.78117 62.975662 
L 445.708453 66.110689 
L 447.635736 68.592802 
L 449.563019 68.267989 
L 451.490302 65.137648 
L 453.417585 68.980205 
L 455.344868 68.744545 
L 457.272151 70.689243 
L 459.199434 67.815597 
L 461.126717 68.218097 
L 463.054 63.83064 
L 464.981283 68.460625 
L 466.908566 68.517868 
L 470.763132 62.425101 
L 472.690415 68.012935 
L 474.617698 68.672974 
L 476.544981 73.401909 
L 478.472264 70.261925 
L 480.399547 67.995201 
L 482.32683 69.643422 
L 484.254113 69.479672 
L 486.181396 75.413084 
L 488.108679 74.923198 
L 490.035962 75.930239 
L 491.963245 77.288208 
L 493.890528 74.893537 
L 495.817811 73.946807 
L 497.745094 74.910045 
L 501.59966 75.977005 
L 503.526943 76.123416 
L 505.454226 75.815894 
L 507.381509 69.276158 
L 511.236075 60.166448 
L 513.163358 61.964239 
L 515.090642 56.333702 
L 517.017925 53.415024 
L 518.945208 57.251602 
L 520.872491 60.126432 
L 524.727057 62.92367 
L 526.65434 64.095273 
L 528.581623 67.381032 
L 530.508906 63.93881 
L 532.436189 62.049982 
L 534.363472 63.296877 
L 536.290755 68.682252 
L 538.218038 66.843725 
L 540.145321 67.351993 
L 542.072604 62.01005 
L 543.999887 59.233331 
L 547.854453 70.08857 
L 549.781736 66.080887 
L 551.709019 67.896973 
L 553.636302 72.822225 
L 555.563585 75.205835 
L 557.490868 78.206348 
L 559.418151 83.056579 
L 561.345434 82.705285 
L 563.272717 84.011104 
L 565.2 83.200649 
L 565.2 83.200649 
" style="fill:none;stroke:#0000ff;stroke-linecap:square;stroke-width:1.5;"/>
   </g>
   <g id="patch_3">
    <path d="M 54.47 174.76 
L 54.47 26.88 
" style="fill:none;stroke:#000000;stroke-linecap:square;stroke-linejoin:miter;stroke-width:0.8;"/>
   </g>
   <g id="patch_4">
    <path d="M 565.2 174.76 
L 565.2 26.88 
" style="fill:none;stroke:#000000;stroke-linecap:square;stroke-linejoin:miter;stroke-width:0.8;"/>
   </g>
   <g id="patch_5">
    <path d="M 54.47 174.76 
L 565.2 174.76 
" style="fill:none;stroke:#000000;stroke-linecap:square;stroke-linejoin:miter;stroke-width:0.8;"/>
   </g>
   <g id="patch_6">
    <path d="M 54.47 26.88 
L 565.2 26.88 
" style="fill:none;stroke:#000000;stroke-linecap:square;stroke-linejoin:miter;stroke-width:0.8;"/>
   </g>
   <g id="text_13">
    <!-- V1, Num Trials=10 All unstimulated trials, Num cells = 160 -->
    <defs>
     <path d="M 28.609375 0 
L 0.78125 72.90625 
L 11.078125 72.90625 
L 34.1875 11.53125 
L 57.328125 72.90625 
L 67.578125 72.90625 
L 39.796875 0 
z
" id="DejaVuSans-86"/>
     <path d="M 11.71875 12.40625 
L 22.015625 12.40625 
L 22.015625 4 
L 14.015625 -11.625 
L 7.71875 -11.625 
L 11.71875 4 
z
" id="DejaVuSans-44"/>
     <path d="M 9.8125 72.90625 
L 23.09375 72.90625 
L 55.421875 11.921875 
L 55.421875 72.90625 
L 64.984375 72.90625 
L 64.984375 0 
L 51.703125 0 
L 19.390625 60.984375 
L 19.390625 0 
L 9.8125 0 
z
" id="DejaVuSans-78"/>
     <path d="M 8.5 21.578125 
L 8.5 54.6875 
L 17.484375 54.6875 
L 17.484375 21.921875 
Q 17.484375 14.15625 20.5 10.265625 
Q 23.53125 6.390625 29.59375 6.390625 
Q 36.859375 6.390625 41.078125 11.03125 
Q 45.3125 15.671875 45.3125 23.6875 
L 45.3125 54.6875 
L 54.296875 54.6875 
L 54.296875 0 
L 45.3125 0 
L 45.3125 8.40625 
Q 42.046875 3.421875 37.71875 1 
Q 33.40625 -1.421875 27.6875 -1.421875 
Q 18.265625 -1.421875 13.375 4.4375 
Q 8.5 10.296875 8.5 21.578125 
z
M 31.109375 56 
z
" id="DejaVuSans-117"/>
     <path d="M 41.109375 46.296875 
Q 39.59375 47.171875 37.8125 47.578125 
Q 36.03125 48 33.890625 48 
Q 26.265625 48 22.1875 43.046875 
Q 18.109375 38.09375 18.109375 28.8125 
L 18.109375 0 
L 9.078125 0 
L 9.078125 54.6875 
L 18.109375 54.6875 
L 18.109375 46.1875 
Q 20.953125 51.171875 25.484375 53.578125 
Q 30.03125 56 36.53125 56 
Q 37.453125 56 38.578125 55.875 
Q 39.703125 55.765625 41.0625 55.515625 
z
" id="DejaVuSans-114"/>
     <path d="M 34.28125 27.484375 
Q 23.390625 27.484375 19.1875 25 
Q 14.984375 22.515625 14.984375 16.5 
Q 14.984375 11.71875 18.140625 8.90625 
Q 21.296875 6.109375 26.703125 6.109375 
Q 34.1875 6.109375 38.703125 11.40625 
Q 43.21875 16.703125 43.21875 25.484375 
L 43.21875 27.484375 
z
M 52.203125 31.203125 
L 52.203125 0 
L 43.21875 0 
L 43.21875 8.296875 
Q 40.140625 3.328125 35.546875 0.953125 
Q 30.953125 -1.421875 24.3125 -1.421875 
Q 15.921875 -1.421875 10.953125 3.296875 
Q 6 8.015625 6 15.921875 
Q 6 25.140625 12.171875 29.828125 
Q 18.359375 34.515625 30.609375 34.515625 
L 43.21875 34.515625 
L 43.21875 35.40625 
Q 43.21875 41.609375 39.140625 45 
Q 35.0625 48.390625 27.6875 48.390625 
Q 23 48.390625 18.546875 47.265625 
Q 14.109375 46.140625 10.015625 43.890625 
L 10.015625 52.203125 
Q 14.9375 54.109375 19.578125 55.046875 
Q 24.21875 56 28.609375 56 
Q 40.484375 56 46.34375 49.84375 
Q 52.203125 43.703125 52.203125 31.203125 
z
" id="DejaVuSans-97"/>
     <path d="M 9.421875 75.984375 
L 18.40625 75.984375 
L 18.40625 0 
L 9.421875 0 
z
" id="DejaVuSans-108"/>
     <path d="M 10.59375 45.40625 
L 73.1875 45.40625 
L 73.1875 37.203125 
L 10.59375 37.203125 
z
M 10.59375 25.484375 
L 73.1875 25.484375 
L 73.1875 17.1875 
L 10.59375 17.1875 
z
" id="DejaVuSans-61"/>
     <path d="M 34.1875 63.1875 
L 20.796875 26.90625 
L 47.609375 26.90625 
z
M 28.609375 72.90625 
L 39.796875 72.90625 
L 67.578125 0 
L 57.328125 0 
L 50.6875 18.703125 
L 17.828125 18.703125 
L 11.1875 0 
L 0.78125 0 
z
" id="DejaVuSans-65"/>
     <path d="M 54.890625 33.015625 
L 54.890625 0 
L 45.90625 0 
L 45.90625 32.71875 
Q 45.90625 40.484375 42.875 44.328125 
Q 39.84375 48.1875 33.796875 48.1875 
Q 26.515625 48.1875 22.3125 43.546875 
Q 18.109375 38.921875 18.109375 30.90625 
L 18.109375 0 
L 9.078125 0 
L 9.078125 54.6875 
L 18.109375 54.6875 
L 18.109375 46.1875 
Q 21.34375 51.125 25.703125 53.5625 
Q 30.078125 56 35.796875 56 
Q 45.21875 56 50.046875 50.171875 
Q 54.890625 44.34375 54.890625 33.015625 
z
" id="DejaVuSans-110"/>
     <path d="M 18.3125 70.21875 
L 18.3125 54.6875 
L 36.8125 54.6875 
L 36.8125 47.703125 
L 18.3125 47.703125 
L 18.3125 18.015625 
Q 18.3125 11.328125 20.140625 9.421875 
Q 21.96875 7.515625 27.59375 7.515625 
L 36.8125 7.515625 
L 36.8125 0 
L 27.59375 0 
Q 17.1875 0 13.234375 3.875 
Q 9.28125 7.765625 9.28125 18.015625 
L 9.28125 47.703125 
L 2.6875 47.703125 
L 2.6875 54.6875 
L 9.28125 54.6875 
L 9.28125 70.21875 
z
" id="DejaVuSans-116"/>
     <path d="M 45.40625 46.390625 
L 45.40625 75.984375 
L 54.390625 75.984375 
L 54.390625 0 
L 45.40625 0 
L 45.40625 8.203125 
Q 42.578125 3.328125 38.25 0.953125 
Q 33.9375 -1.421875 27.875 -1.421875 
Q 17.96875 -1.421875 11.734375 6.484375 
Q 5.515625 14.40625 5.515625 27.296875 
Q 5.515625 40.1875 11.734375 48.09375 
Q 17.96875 56 27.875 56 
Q 33.9375 56 38.25 53.625 
Q 42.578125 51.265625 45.40625 46.390625 
z
M 14.796875 27.296875 
Q 14.796875 17.390625 18.875 11.75 
Q 22.953125 6.109375 30.078125 6.109375 
Q 37.203125 6.109375 41.296875 11.75 
Q 45.40625 17.390625 45.40625 27.296875 
Q 45.40625 37.203125 41.296875 42.84375 
Q 37.203125 48.484375 30.078125 48.484375 
Q 22.953125 48.484375 18.875 42.84375 
Q 14.796875 37.203125 14.796875 27.296875 
z
" id="DejaVuSans-100"/>
     <path d="M 48.78125 52.59375 
L 48.78125 44.1875 
Q 44.96875 46.296875 41.140625 47.34375 
Q 37.3125 48.390625 33.40625 48.390625 
Q 24.65625 48.390625 19.8125 42.84375 
Q 14.984375 37.3125 14.984375 27.296875 
Q 14.984375 17.28125 19.8125 11.734375 
Q 24.65625 6.203125 33.40625 6.203125 
Q 37.3125 6.203125 41.140625 7.25 
Q 44.96875 8.296875 48.78125 10.40625 
L 48.78125 2.09375 
Q 45.015625 0.34375 40.984375 -0.53125 
Q 36.96875 -1.421875 32.421875 -1.421875 
Q 20.0625 -1.421875 12.78125 6.34375 
Q 5.515625 14.109375 5.515625 27.296875 
Q 5.515625 40.671875 12.859375 48.328125 
Q 20.21875 56 33.015625 56 
Q 37.15625 56 41.109375 55.140625 
Q 45.0625 54.296875 48.78125 52.59375 
z
" id="DejaVuSans-99"/>
    </defs>
    <g transform="translate(131.831875 20.88)scale(0.12 -0.12)">
     <use xlink:href="#DejaVuSans-86"/>
     <use x="68.408203" xlink:href="#DejaVuSans-49"/>
     <use x="132.03125" xlink:href="#DejaVuSans-44"/>
     <use x="163.818359" xlink:href="#DejaVuSans-32"/>
     <use x="195.605469" xlink:href="#DejaVuSans-78"/>
     <use x="270.410156" xlink:href="#DejaVuSans-117"/>
     <use x="333.789062" xlink:href="#DejaVuSans-109"/>
     <use x="431.201172" xlink:href="#DejaVuSans-32"/>
     <use x="462.988281" xlink:href="#DejaVuSans-84"/>
     <use x="523.853516" xlink:href="#DejaVuSans-114"/>
     <use x="564.966797" xlink:href="#DejaVuSans-105"/>
     <use x="592.75" xlink:href="#DejaVuSans-97"/>
     <use x="654.029297" xlink:href="#DejaVuSans-108"/>
     <use x="681.8125" xlink:href="#DejaVuSans-115"/>
     <use x="733.912109" xlink:href="#DejaVuSans-61"/>
     <use x="817.701172" xlink:href="#DejaVuSans-49"/>
     <use x="881.324219" xlink:href="#DejaVuSans-48"/>
     <use x="944.947266" xlink:href="#DejaVuSans-32"/>
     <use x="976.734375" xlink:href="#DejaVuSans-65"/>
     <use x="1045.142578" xlink:href="#DejaVuSans-108"/>
     <use x="1072.925781" xlink:href="#DejaVuSans-108"/>
     <use x="1100.708984" xlink:href="#DejaVuSans-32"/>
     <use x="1132.496094" xlink:href="#DejaVuSans-117"/>
     <use x="1195.875" xlink:href="#DejaVuSans-110"/>
     <use x="1259.253906" xlink:href="#DejaVuSans-115"/>
     <use x="1311.353516" xlink:href="#DejaVuSans-116"/>
     <use x="1350.5625" xlink:href="#DejaVuSans-105"/>
     <use x="1378.345703" xlink:href="#DejaVuSans-109"/>
     <use x="1475.757812" xlink:href="#DejaVuSans-117"/>
     <use x="1539.136719" xlink:href="#DejaVuSans-108"/>
     <use x="1566.919922" xlink:href="#DejaVuSans-97"/>
     <use x="1628.199219" xlink:href="#DejaVuSans-116"/>
     <use x="1667.408203" xlink:href="#DejaVuSans-101"/>
     <use x="1728.931641" xlink:href="#DejaVuSans-100"/>
     <use x="1792.408203" xlink:href="#DejaVuSans-32"/>
     <use x="1824.195312" xlink:href="#DejaVuSans-116"/>
     <use x="1863.404297" xlink:href="#DejaVuSans-114"/>
     <use x="1904.517578" xlink:href="#DejaVuSans-105"/>
     <use x="1932.300781" xlink:href="#DejaVuSans-97"/>
     <use x="1993.580078" xlink:href="#DejaVuSans-108"/>
     <use x="2021.363281" xlink:href="#DejaVuSans-115"/>
     <use x="2073.462891" xlink:href="#DejaVuSans-44"/>
     <use x="2105.25" xlink:href="#DejaVuSans-32"/>
     <use x="2137.037109" xlink:href="#DejaVuSans-78"/>
     <use x="2211.841797" xlink:href="#DejaVuSans-117"/>
     <use x="2275.220703" xlink:href="#DejaVuSans-109"/>
     <use x="2372.632812" xlink:href="#DejaVuSans-32"/>
     <use x="2404.419922" xlink:href="#DejaVuSans-99"/>
     <use x="2459.400391" xlink:href="#DejaVuSans-101"/>
     <use x="2520.923828" xlink:href="#DejaVuSans-108"/>
     <use x="2548.707031" xlink:href="#DejaVuSans-108"/>
     <use x="2576.490234" xlink:href="#DejaVuSans-115"/>
     <use x="2628.589844" xlink:href="#DejaVuSans-32"/>
     <use x="2660.376953" xlink:href="#DejaVuSans-61"/>
     <use x="2744.166016" xlink:href="#DejaVuSans-32"/>
     <use x="2775.953125" xlink:href="#DejaVuSans-49"/>
     <use x="2839.576172" xlink:href="#DejaVuSans-54"/>
     <use x="2903.199219" xlink:href="#DejaVuSans-48"/>
    </g>
   </g>
   <g id="legend_1">
    <g id="patch_7">
     <path d="M 62.87 168.76 
L 196.55 168.76 
Q 198.95 168.76 198.95 166.36 
L 198.95 132.3325 
Q 198.95 129.9325 196.55 129.9325 
L 62.87 129.9325 
Q 60.47 129.9325 60.47 132.3325 
L 60.47 166.36 
Q 60.47 168.76 62.87 168.76 
z
" style="fill:#ffffff;opacity:0.8;stroke:#cccccc;stroke-linejoin:miter;"/>
    </g>
    <g id="line2d_12">
     <path d="M 65.27 139.650625 
L 89.27 139.650625 
" style="fill:none;stroke:#0000ff;stroke-linecap:square;stroke-width:1.5;"/>
    </g>
    <g id="line2d_13"/>
    <g id="text_14">
     <!-- COM-Binomial $\nu$ -->
     <defs>
      <path d="M 4.890625 31.390625 
L 31.203125 31.390625 
L 31.203125 23.390625 
L 4.890625 23.390625 
z
" id="DejaVuSans-45"/>
      <path d="M 19.671875 34.8125 
L 19.671875 8.109375 
L 35.5 8.109375 
Q 43.453125 8.109375 47.28125 11.40625 
Q 51.125 14.703125 51.125 21.484375 
Q 51.125 28.328125 47.28125 31.5625 
Q 43.453125 34.8125 35.5 34.8125 
z
M 19.671875 64.796875 
L 19.671875 42.828125 
L 34.28125 42.828125 
Q 41.5 42.828125 45.03125 45.53125 
Q 48.578125 48.25 48.578125 53.8125 
Q 48.578125 59.328125 45.03125 62.0625 
Q 41.5 64.796875 34.28125 64.796875 
z
M 9.8125 72.90625 
L 35.015625 72.90625 
Q 46.296875 72.90625 52.390625 68.21875 
Q 58.5 63.53125 58.5 54.890625 
Q 58.5 48.1875 55.375 44.234375 
Q 52.25 40.28125 46.1875 39.3125 
Q 53.46875 37.75 57.5 32.78125 
Q 61.53125 27.828125 61.53125 20.40625 
Q 61.53125 10.640625 54.890625 5.3125 
Q 48.25 0 35.984375 0 
L 9.8125 0 
z
" id="DejaVuSans-66"/>
      <path d="M 30.609375 48.390625 
Q 23.390625 48.390625 19.1875 42.75 
Q 14.984375 37.109375 14.984375 27.296875 
Q 14.984375 17.484375 19.15625 11.84375 
Q 23.34375 6.203125 30.609375 6.203125 
Q 37.796875 6.203125 41.984375 11.859375 
Q 46.1875 17.53125 46.1875 27.296875 
Q 46.1875 37.015625 41.984375 42.703125 
Q 37.796875 48.390625 30.609375 48.390625 
z
M 30.609375 56 
Q 42.328125 56 49.015625 48.375 
Q 55.71875 40.765625 55.71875 27.296875 
Q 55.71875 13.875 49.015625 6.21875 
Q 42.328125 -1.421875 30.609375 -1.421875 
Q 18.84375 -1.421875 12.171875 6.21875 
Q 5.515625 13.875 5.515625 27.296875 
Q 5.515625 40.765625 12.171875 48.375 
Q 18.84375 56 30.609375 56 
z
" id="DejaVuSans-111"/>
     </defs>
     <g transform="translate(98.87 143.850625)scale(0.12 -0.12)">
      <use transform="translate(0 0.015625)" xlink:href="#DejaVuSans-67"/>
      <use transform="translate(69.824219 0.015625)" xlink:href="#DejaVuSans-79"/>
      <use transform="translate(148.535156 0.015625)" xlink:href="#DejaVuSans-77"/>
      <use transform="translate(234.814453 0.015625)" xlink:href="#DejaVuSans-45"/>
      <use transform="translate(270.898438 0.015625)" xlink:href="#DejaVuSans-66"/>
      <use transform="translate(339.501953 0.015625)" xlink:href="#DejaVuSans-105"/>
      <use transform="translate(367.285156 0.015625)" xlink:href="#DejaVuSans-110"/>
      <use transform="translate(430.664062 0.015625)" xlink:href="#DejaVuSans-111"/>
      <use transform="translate(491.845703 0.015625)" xlink:href="#DejaVuSans-109"/>
      <use transform="translate(589.257812 0.015625)" xlink:href="#DejaVuSans-105"/>
      <use transform="translate(617.041016 0.015625)" xlink:href="#DejaVuSans-97"/>
      <use transform="translate(678.320312 0.015625)" xlink:href="#DejaVuSans-108"/>
      <use transform="translate(706.103516 0.015625)" xlink:href="#DejaVuSans-32"/>
      <use transform="translate(737.890625 0.015625)" xlink:href="#DejaVuSans-Oblique-957"/>
     </g>
    </g>
    <g id="patch_8">
     <path d="M 65.27 161.464375 
L 89.27 161.464375 
L 89.27 153.064375 
L 65.27 153.064375 
z
" style="fill:#0000ff;opacity:0.3;stroke:#0000ff;stroke-linejoin:miter;"/>
    </g>
    <g id="text_15">
     <!-- Std. Err. -->
     <defs>
      <path d="M 53.515625 70.515625 
L 53.515625 60.890625 
Q 47.90625 63.578125 42.921875 64.890625 
Q 37.9375 66.21875 33.296875 66.21875 
Q 25.25 66.21875 20.875 63.09375 
Q 16.5 59.96875 16.5 54.203125 
Q 16.5 49.359375 19.40625 46.890625 
Q 22.3125 44.4375 30.421875 42.921875 
L 36.375 41.703125 
Q 47.40625 39.59375 52.65625 34.296875 
Q 57.90625 29 57.90625 20.125 
Q 57.90625 9.515625 50.796875 4.046875 
Q 43.703125 -1.421875 29.984375 -1.421875 
Q 24.8125 -1.421875 18.96875 -0.25 
Q 13.140625 0.921875 6.890625 3.21875 
L 6.890625 13.375 
Q 12.890625 10.015625 18.65625 8.296875 
Q 24.421875 6.59375 29.984375 6.59375 
Q 38.421875 6.59375 43.015625 9.90625 
Q 47.609375 13.234375 47.609375 19.390625 
Q 47.609375 24.75 44.3125 27.78125 
Q 41.015625 30.8125 33.5 32.328125 
L 27.484375 33.5 
Q 16.453125 35.6875 11.515625 40.375 
Q 6.59375 45.0625 6.59375 53.421875 
Q 6.59375 63.09375 13.40625 68.65625 
Q 20.21875 74.21875 32.171875 74.21875 
Q 37.3125 74.21875 42.625 73.28125 
Q 47.953125 72.359375 53.515625 70.515625 
z
" id="DejaVuSans-83"/>
      <path d="M 9.8125 72.90625 
L 55.90625 72.90625 
L 55.90625 64.59375 
L 19.671875 64.59375 
L 19.671875 43.015625 
L 54.390625 43.015625 
L 54.390625 34.71875 
L 19.671875 34.71875 
L 19.671875 8.296875 
L 56.78125 8.296875 
L 56.78125 0 
L 9.8125 0 
z
" id="DejaVuSans-69"/>
     </defs>
     <g transform="translate(98.87 161.464375)scale(0.12 -0.12)">
      <use xlink:href="#DejaVuSans-83"/>
      <use x="63.476562" xlink:href="#DejaVuSans-116"/>
      <use x="102.685547" xlink:href="#DejaVuSans-100"/>
      <use x="166.162109" xlink:href="#DejaVuSans-46"/>
      <use x="197.949219" xlink:href="#DejaVuSans-32"/>
      <use x="229.736328" xlink:href="#DejaVuSans-69"/>
      <use x="292.919922" xlink:href="#DejaVuSans-114"/>
      <use x="334.017578" xlink:href="#DejaVuSans-114"/>
      <use x="374.990234" xlink:href="#DejaVuSans-46"/>
     </g>
    </g>
   </g>
  </g>
 </g>
 <defs>
  <clipPath id="pc71a36f774">
   <rect height="147.88" width="510.73" x="54.47" y="26.88"/>
  </clipPath>
 </defs>
</svg>
