<?xml version="1.0" encoding="utf-8" standalone="no"?>
<!DOCTYPE svg PUBLIC "-//W3C//DTD SVG 1.1//EN"
  "http://www.w3.org/Graphics/SVG/1.1/DTD/svg11.dtd">
<!-- Created with matplotlib (https://matplotlib.org/) -->
<svg height="216pt" version="1.1" viewBox="0 0 648 216" width="648pt" xmlns="http://www.w3.org/2000/svg" xmlns:xlink="http://www.w3.org/1999/xlink">
 <defs>
  <style type="text/css">
*{stroke-linecap:butt;stroke-linejoin:round;}
  </style>
 </defs>
 <g id="figure_1">
  <g id="patch_1">
   <path d="M 0 216 
L 648 216 
L 648 0 
L 0 0 
z
" style="fill:#ffffff;"/>
  </g>
  <g id="axes_1">
   <g id="patch_2">
    <path d="M 81 192.24 
L 583.2 192.24 
L 583.2 25.92 
L 81 25.92 
z
" style="fill:#ffffff;"/>
   </g>
   <g id="PolyCollection_1">
    <defs>
     <path d="M 162.62878 -23.76 
L 162.62878 -190.08 
L 417.984712 -190.08 
L 417.984712 -23.76 
L 417.984712 -23.76 
L 162.62878 -23.76 
z
" id="md4ba98b704" style="stroke:#808080;stroke-opacity:0.3;"/>
    </defs>
    <g clip-path="url(#p990602d575)">
     <use style="fill:#808080;fill-opacity:0.3;stroke:#808080;stroke-opacity:0.3;" x="0" xlink:href="#md4ba98b704" y="216"/>
    </g>
   </g>
   <g id="PolyCollection_2">
    <defs>
     <path d="M 81 -118.398328 
L 81 -87.030887 
L 82.702373 -104.717472 
L 84.404746 -88.998786 
L 86.107119 -51.050113 
L 87.809492 -46.063496 
L 89.511864 -92.156141 
L 91.214237 -65.396423 
L 92.91661 -92.662602 
L 94.618983 -36.890035 
L 96.321356 -82.824666 
L 98.023729 -120.100077 
L 99.726102 -59.05291 
L 101.428475 -86.546386 
L 103.130847 -65.939916 
L 104.83322 -107.28807 
L 106.535593 -72.006892 
L 108.237966 -95.842979 
L 109.940339 -103.914021 
L 111.642712 -98.566429 
L 113.345085 -82.772411 
L 115.047458 -123.422107 
L 116.749831 -85.782763 
L 118.452203 -61.089598 
L 120.154576 -117.674393 
L 121.856949 -55.481824 
L 123.559322 -62.024783 
L 125.261695 -66.729562 
L 126.964068 -97.545685 
L 128.666441 -84.612396 
L 130.368814 -40.827726 
L 132.071186 -58.010962 
L 133.773559 -80.510646 
L 135.475932 -102.949686 
L 137.178305 -84.064531 
L 138.880678 -55.004721 
L 140.583051 -90.992791 
L 142.285424 -83.366199 
L 143.987797 -72.713636 
L 145.690169 -63.714023 
L 147.392542 -54.606465 
L 149.094915 -79.372175 
L 150.797288 -82.153352 
L 152.499661 -103.134067 
L 154.202034 -112.750268 
L 155.904407 -83.086403 
L 157.60678 -86.248551 
L 159.309153 -69.098623 
L 161.011525 -81.939296 
L 162.713898 -60.425553 
L 164.416271 -85.02042 
L 166.118644 -88.880835 
L 167.821017 -78.103662 
L 169.52339 -77.399495 
L 171.225763 -69.349921 
L 172.928136 -38.776343 
L 174.630508 -52.31468 
L 176.332881 -89.862749 
L 178.035254 -52.857335 
L 179.737627 -76.371356 
L 181.44 -48.906986 
L 183.142373 -71.642539 
L 184.844746 -75.063652 
L 186.547119 -96.842263 
L 188.249492 -83.290578 
L 189.951864 -64.103473 
L 191.654237 -100.125688 
L 193.35661 -103.470323 
L 195.058983 -71.884815 
L 196.761356 -80.505615 
L 198.463729 -83.175657 
L 200.166102 -82.155101 
L 201.868475 -56.608834 
L 203.570847 -80.210285 
L 205.27322 -95.788457 
L 206.975593 -104.043393 
L 208.677966 -66.018516 
L 210.380339 -105.662472 
L 212.082712 -94.417875 
L 213.785085 -82.882225 
L 215.487458 -77.554356 
L 217.189831 -108.028674 
L 218.892203 -68.036972 
L 220.594576 -48.661178 
L 222.296949 -85.615214 
L 223.999322 -93.787709 
L 225.701695 -112.033452 
L 227.404068 -91.578103 
L 229.106441 -66.400164 
L 230.808814 -61.94815 
L 232.511186 -87.444517 
L 234.213559 -50.810153 
L 235.915932 -99.805659 
L 237.618305 -111.756324 
L 239.320678 -69.715749 
L 241.023051 -138.306011 
L 242.725424 -111.15685 
L 244.427797 -81.865178 
L 246.130169 -134.599128 
L 247.832542 -89.724187 
L 249.534915 -116.124202 
L 251.237288 -77.163534 
L 252.939661 -85.977135 
L 254.642034 -50.551408 
L 256.344407 -90.104115 
L 258.04678 -114.857904 
L 259.749153 -101.623878 
L 261.451525 -110.553933 
L 263.153898 -77.56419 
L 264.856271 -66.89688 
L 266.558644 -119.964832 
L 268.261017 -77.301296 
L 269.96339 -107.721238 
L 271.665763 -89.356672 
L 273.368136 -86.482953 
L 275.070508 -113.703169 
L 276.772881 -61.626563 
L 278.475254 -62.878948 
L 280.177627 -78.526169 
L 281.88 -55.884878 
L 283.582373 -113.951589 
L 285.284746 -98.058891 
L 286.987119 -116.401167 
L 288.689492 -114.790631 
L 290.391864 -112.736597 
L 292.094237 -78.718817 
L 293.79661 -81.704782 
L 295.498983 -58.730974 
L 297.201356 -94.814101 
L 298.903729 -70.419796 
L 300.606102 -52.58621 
L 302.308475 -91.490139 
L 304.010847 -75.938609 
L 305.71322 -112.364059 
L 307.415593 -157.432552 
L 309.117966 -38.255545 
L 310.820339 -99.225029 
L 312.522712 -86.144061 
L 314.225085 -73.658095 
L 315.927458 -91.682505 
L 317.629831 -71.960855 
L 319.332203 -110.431869 
L 321.034576 -88.239163 
L 322.736949 -58.054669 
L 324.439322 -67.800578 
L 326.141695 -78.42774 
L 327.844068 -70.205679 
L 329.546441 -96.783683 
L 331.248814 -77.824072 
L 332.951186 -56.927527 
L 334.653559 -85.412892 
L 336.355932 -92.230214 
L 338.058305 -80.362301 
L 339.760678 -77.385552 
L 341.463051 -92.796281 
L 343.165424 -94.096435 
L 344.867797 -76.588814 
L 346.570169 -23.76 
L 348.272542 -89.796755 
L 349.974915 -95.082136 
L 351.677288 -129.409363 
L 353.379661 -94.042637 
L 355.082034 -116.86569 
L 356.784407 -55.780861 
L 358.48678 -84.662019 
L 360.189153 -49.453296 
L 361.891525 -55.421651 
L 363.593898 -66.728911 
L 365.296271 -136.75132 
L 366.998644 -118.672895 
L 368.701017 -75.072942 
L 370.40339 -64.69681 
L 372.105763 -103.151307 
L 373.808136 -90.227768 
L 375.510508 -96.795945 
L 377.212881 -86.676737 
L 378.915254 -66.899979 
L 380.617627 -95.282722 
L 382.32 -117.65354 
L 384.022373 -66.885963 
L 385.724746 -82.073495 
L 387.427119 -44.094259 
L 389.129492 -51.435785 
L 390.831864 -102.670511 
L 392.534237 -106.63805 
L 394.23661 -59.102165 
L 395.938983 -87.172224 
L 397.641356 -100.249145 
L 399.343729 -94.004069 
L 401.046102 -73.972302 
L 402.748475 -87.448517 
L 404.450847 -79.452525 
L 406.15322 -95.157825 
L 407.855593 -68.997817 
L 409.557966 -88.861353 
L 411.260339 -66.669124 
L 412.962712 -114.569139 
L 414.665085 -61.774258 
L 416.367458 -64.393354 
L 418.069831 -65.452826 
L 419.772203 -67.151575 
L 421.474576 -62.442929 
L 423.176949 -88.143865 
L 424.879322 -60.823263 
L 426.581695 -71.873022 
L 428.284068 -76.587214 
L 429.986441 -41.786828 
L 431.688814 -59.810877 
L 433.391186 -29.207343 
L 435.093559 -80.626879 
L 436.795932 -95.395503 
L 438.498305 -70.615971 
L 440.200678 -81.471861 
L 441.903051 -49.857065 
L 443.605424 -72.909144 
L 445.307797 -58.007039 
L 447.010169 -122.126265 
L 448.712542 -121.59682 
L 450.414915 -62.264689 
L 452.117288 -77.227079 
L 453.819661 -93.206562 
L 455.522034 -75.643746 
L 457.224407 -140.003635 
L 458.92678 -106.957522 
L 460.629153 -109.755868 
L 462.331525 -92.014525 
L 464.033898 -104.739955 
L 465.736271 -74.208214 
L 467.438644 -89.15395 
L 469.141017 -42.878942 
L 470.84339 -70.357786 
L 472.545763 -101.295288 
L 474.248136 -28.41639 
L 475.950508 -53.757991 
L 477.652881 -43.059983 
L 479.355254 -67.382332 
L 481.057627 -45.216213 
L 482.76 -68.073431 
L 484.462373 -84.489111 
L 486.164746 -101.492745 
L 487.867119 -90.705449 
L 489.569492 -55.095897 
L 491.271864 -65.153597 
L 492.974237 -83.807744 
L 494.67661 -68.581661 
L 496.378983 -136.440276 
L 498.081356 -74.855694 
L 499.783729 -108.338649 
L 501.486102 -99.406569 
L 503.188475 -120.033793 
L 504.890847 -61.292721 
L 506.59322 -84.918475 
L 508.295593 -93.457799 
L 509.997966 -52.448255 
L 511.700339 -48.120421 
L 513.402712 -64.101574 
L 515.105085 -80.894065 
L 516.807458 -105.440087 
L 518.509831 -113.872775 
L 520.212203 -60.665718 
L 521.914576 -75.81848 
L 523.616949 -78.183244 
L 525.319322 -60.520024 
L 527.021695 -45.632375 
L 528.724068 -68.424845 
L 530.426441 -66.442641 
L 532.128814 -42.871351 
L 533.831186 -60.677962 
L 535.533559 -73.152935 
L 537.235932 -99.686229 
L 538.938305 -45.90305 
L 540.640678 -76.67475 
L 542.343051 -66.625322 
L 544.045424 -79.605927 
L 545.747797 -63.608712 
L 547.450169 -85.817721 
L 549.152542 -70.704052 
L 550.854915 -46.131725 
L 552.557288 -79.341091 
L 554.259661 -101.204338 
L 555.962034 -47.711304 
L 557.664407 -81.545643 
L 559.36678 -93.36832 
L 561.069153 -137.450496 
L 562.771525 -76.066782 
L 564.473898 -73.561881 
L 566.176271 -69.663269 
L 567.878644 -39.732594 
L 569.581017 -63.887538 
L 571.28339 -88.986102 
L 572.985763 -82.310868 
L 574.688136 -51.25738 
L 576.390508 -69.267458 
L 578.092881 -90.831354 
L 579.795254 -88.415548 
L 581.497627 -36.732222 
L 583.2 -52.501672 
L 583.2 -102.867731 
L 583.2 -102.867731 
L 581.497627 -101.621922 
L 579.795254 -131.242985 
L 578.092881 -129.606436 
L 576.390508 -113.444916 
L 574.688136 -89.830528 
L 572.985763 -113.483645 
L 571.28339 -128.215192 
L 569.581017 -95.605433 
L 567.878644 -81.881756 
L 566.176271 -118.104413 
L 564.473898 -105.21657 
L 562.771525 -131.525294 
L 561.069153 -170.093588 
L 559.36678 -136.982257 
L 557.664407 -114.027187 
L 555.962034 -87.117128 
L 554.259661 -135.394044 
L 552.557288 -133.631719 
L 550.854915 -83.074209 
L 549.152542 -100.691065 
L 547.450169 -127.093779 
L 545.747797 -109.775823 
L 544.045424 -120.042968 
L 542.343051 -107.238371 
L 540.640678 -135.113834 
L 538.938305 -93.794155 
L 537.235932 -161.750097 
L 535.533559 -122.974797 
L 533.831186 -102.818162 
L 532.128814 -78.183996 
L 530.426441 -117.022194 
L 528.724068 -121.597527 
L 527.021695 -84.762084 
L 525.319322 -108.979533 
L 523.616949 -128.579535 
L 521.914576 -112.028822 
L 520.212203 -109.388896 
L 518.509831 -153.711101 
L 516.807458 -144.428754 
L 515.105085 -110.350769 
L 513.402712 -105.084505 
L 511.700339 -93.029621 
L 509.997966 -97.362599 
L 508.295593 -140.677523 
L 506.59322 -123.932641 
L 504.890847 -127.289897 
L 503.188475 -170.921668 
L 501.486102 -145.895084 
L 499.783729 -149.096232 
L 498.081356 -121.605164 
L 496.378983 -186.23685 
L 494.67661 -103.624605 
L 492.974237 -129.577146 
L 491.271864 -115.585077 
L 489.569492 -84.667639 
L 487.867119 -133.529908 
L 486.164746 -140.774566 
L 484.462373 -132.242908 
L 482.76 -105.468407 
L 481.057627 -93.370241 
L 479.355254 -108.207454 
L 477.652881 -88.659383 
L 475.950508 -89.855216 
L 474.248136 -76.223862 
L 472.545763 -146.839836 
L 470.84339 -117.016578 
L 469.141017 -95.505786 
L 467.438644 -139.503366 
L 465.736271 -111.970164 
L 464.033898 -167.069987 
L 462.331525 -131.606172 
L 460.629153 -156.471313 
L 458.92678 -140.934865 
L 457.224407 -171.426447 
L 455.522034 -105.769753 
L 453.819661 -149.804329 
L 452.117288 -115.372301 
L 450.414915 -95.743915 
L 448.712542 -157.529677 
L 447.010169 -172.662369 
L 445.307797 -101.787851 
L 443.605424 -116.027469 
L 441.903051 -85.176905 
L 440.200678 -114.915046 
L 438.498305 -114.535789 
L 436.795932 -135.028636 
L 435.093559 -131.594505 
L 433.391186 -65.092999 
L 431.688814 -99.58084 
L 429.986441 -74.304725 
L 428.284068 -116.85122 
L 426.581695 -116.580976 
L 424.879322 -98.327511 
L 423.176949 -131.280939 
L 421.474576 -105.79392 
L 419.772203 -126.084879 
L 418.069831 -109.882204 
L 416.367458 -107.802908 
L 414.665085 -105.509411 
L 412.962712 -145.76507 
L 411.260339 -113.605393 
L 409.557966 -127.297784 
L 407.855593 -104.797854 
L 406.15322 -150.676598 
L 404.450847 -120.32299 
L 402.748475 -118.641696 
L 401.046102 -142.298347 
L 399.343729 -135.893007 
L 397.641356 -154.972992 
L 395.938983 -123.21756 
L 394.23661 -93.680091 
L 392.534237 -156.629339 
L 390.831864 -142.118057 
L 389.129492 -82.403107 
L 387.427119 -84.51246 
L 385.724746 -120.402137 
L 384.022373 -117.634489 
L 382.32 -167.348083 
L 380.617627 -147.768255 
L 378.915254 -119.105352 
L 377.212881 -137.016175 
L 375.510508 -145.034276 
L 373.808136 -145.22252 
L 372.105763 -144.235191 
L 370.40339 -109.914902 
L 368.701017 -125.630141 
L 366.998644 -145.172357 
L 365.296271 -166.209635 
L 363.593898 -104.814937 
L 361.891525 -90.989717 
L 360.189153 -92.171851 
L 358.48678 -132.656185 
L 356.784407 -104.23013 
L 355.082034 -167.104182 
L 353.379661 -146.748659 
L 351.677288 -146.945662 
L 349.974915 -132.709862 
L 348.272542 -137.085118 
L 346.570169 -70.243816 
L 344.867797 -107.443043 
L 343.165424 -120.143064 
L 341.463051 -124.351756 
L 339.760678 -115.229322 
L 338.058305 -122.062822 
L 336.355932 -146.234551 
L 334.653559 -132.687412 
L 332.951186 -113.786576 
L 331.248814 -100.822283 
L 329.546441 -135.909421 
L 327.844068 -99.043756 
L 326.141695 -116.988991 
L 324.439322 -103.317285 
L 322.736949 -100.23046 
L 321.034576 -131.963894 
L 319.332203 -143.29841 
L 317.629831 -120.903289 
L 315.927458 -128.29206 
L 314.225085 -120.765726 
L 312.522712 -124.203597 
L 310.820339 -129.225014 
L 309.117966 -84.675927 
L 307.415593 -180.71552 
L 305.71322 -152.769748 
L 304.010847 -123.551917 
L 302.308475 -138.194963 
L 300.606102 -87.581667 
L 298.903729 -108.521505 
L 297.201356 -133.964218 
L 295.498983 -88.963382 
L 293.79661 -116.943553 
L 292.094237 -120.854725 
L 290.391864 -164.824321 
L 288.689492 -152.041094 
L 286.987119 -161.86257 
L 285.284746 -159.690667 
L 283.582373 -159.018027 
L 281.88 -90.568639 
L 280.177627 -128.767716 
L 278.475254 -109.410876 
L 276.772881 -108.342576 
L 275.070508 -151.584397 
L 273.368136 -126.603456 
L 271.665763 -149.625766 
L 269.96339 -140.491542 
L 268.261017 -119.415419 
L 266.558644 -154.436211 
L 264.856271 -103.913055 
L 263.153898 -119.548606 
L 261.451525 -166.676501 
L 259.749153 -140.260485 
L 258.04678 -139.931931 
L 256.344407 -136.949446 
L 254.642034 -91.724803 
L 252.939661 -148.449237 
L 251.237288 -138.296842 
L 249.534915 -160.658604 
L 247.832542 -132.142403 
L 246.130169 -190.08 
L 244.427797 -121.32866 
L 242.725424 -155.28065 
L 241.023051 -187.12779 
L 239.320678 -132.081702 
L 237.618305 -153.900064 
L 235.915932 -156.865775 
L 234.213559 -98.768468 
L 232.511186 -126.400713 
L 230.808814 -106.228824 
L 229.106441 -120.667165 
L 227.404068 -128.35296 
L 225.701695 -163.23031 
L 223.999322 -129.438442 
L 222.296949 -131.811291 
L 220.594576 -75.710075 
L 218.892203 -107.627027 
L 217.189831 -156.430608 
L 215.487458 -120.254497 
L 213.785085 -122.8216 
L 212.082712 -137.594645 
L 210.380339 -135.406278 
L 208.677966 -126.752792 
L 206.975593 -153.008074 
L 205.27322 -155.343769 
L 203.570847 -130.031508 
L 201.868475 -92.210454 
L 200.166102 -129.625802 
L 198.463729 -127.847549 
L 196.761356 -140.238593 
L 195.058983 -123.853948 
L 193.35661 -138.692352 
L 191.654237 -150.033888 
L 189.951864 -111.099021 
L 188.249492 -121.946709 
L 186.547119 -130.71486 
L 184.844746 -118.118135 
L 183.142373 -122.845037 
L 181.44 -84.035451 
L 179.737627 -125.131319 
L 178.035254 -109.788355 
L 176.332881 -137.442388 
L 174.630508 -85.313394 
L 172.928136 -76.240394 
L 171.225763 -115.041965 
L 169.52339 -124.655658 
L 167.821017 -128.190599 
L 166.118644 -127.499326 
L 164.416271 -111.615261 
L 162.713898 -114.0579 
L 161.011525 -132.141897 
L 159.309153 -116.722966 
L 157.60678 -132.598302 
L 155.904407 -133.135065 
L 154.202034 -166.111675 
L 152.499661 -150.704383 
L 150.797288 -132.030741 
L 149.094915 -142.981488 
L 147.392542 -114.819674 
L 145.690169 -110.884044 
L 143.987797 -113.437565 
L 142.285424 -132.059659 
L 140.583051 -135.96819 
L 138.880678 -78.703101 
L 137.178305 -126.899353 
L 135.475932 -133.362855 
L 133.773559 -111.843501 
L 132.071186 -102.02217 
L 130.368814 -83.848206 
L 128.666441 -132.27323 
L 126.964068 -153.046096 
L 125.261695 -104.52906 
L 123.559322 -95.477054 
L 121.856949 -69.706609 
L 120.154576 -153.855927 
L 118.452203 -104.884507 
L 116.749831 -124.735334 
L 115.047458 -153.846298 
L 113.345085 -116.176706 
L 111.642712 -140.908157 
L 109.940339 -153.262086 
L 108.237966 -134.75715 
L 106.535593 -118.100763 
L 104.83322 -141.103588 
L 103.130847 -97.651171 
L 101.428475 -119.702004 
L 99.726102 -99.74071 
L 98.023729 -170.821225 
L 96.321356 -136.840024 
L 94.618983 -95.790785 
L 92.91661 -122.892732 
L 91.214237 -123.800145 
L 89.511864 -122.272408 
L 87.809492 -108.401445 
L 86.107119 -87.168517 
L 84.404746 -132.37458 
L 82.702373 -134.238894 
L 81 -118.398328 
z
" id="m0bd49882af" style="stroke:#0000ff;stroke-opacity:0.3;"/>
    </defs>
    <g clip-path="url(#p990602d575)">
     <use style="fill:#0000ff;fill-opacity:0.3;stroke:#0000ff;stroke-opacity:0.3;" x="0" xlink:href="#m0bd49882af" y="216"/>
    </g>
   </g>
   <g id="matplotlib.axis_1">
    <g id="xtick_1">
     <g id="line2d_1">
      <defs>
       <path d="M 0 0 
L 0 3.5 
" id="mfa6ca2f1dd" style="stroke:#000000;stroke-width:0.8;"/>
      </defs>
      <g>
       <use style="stroke:#000000;stroke-width:0.8;" x="162.62878" xlink:href="#mfa6ca2f1dd" y="192.24"/>
      </g>
     </g>
     <g id="text_1">
      <!-- 0.0 -->
      <defs>
       <path d="M 31.78125 66.40625 
Q 24.171875 66.40625 20.328125 58.90625 
Q 16.5 51.421875 16.5 36.375 
Q 16.5 21.390625 20.328125 13.890625 
Q 24.171875 6.390625 31.78125 6.390625 
Q 39.453125 6.390625 43.28125 13.890625 
Q 47.125 21.390625 47.125 36.375 
Q 47.125 51.421875 43.28125 58.90625 
Q 39.453125 66.40625 31.78125 66.40625 
z
M 31.78125 74.21875 
Q 44.046875 74.21875 50.515625 64.515625 
Q 56.984375 54.828125 56.984375 36.375 
Q 56.984375 17.96875 50.515625 8.265625 
Q 44.046875 -1.421875 31.78125 -1.421875 
Q 19.53125 -1.421875 13.0625 8.265625 
Q 6.59375 17.96875 6.59375 36.375 
Q 6.59375 54.828125 13.0625 64.515625 
Q 19.53125 74.21875 31.78125 74.21875 
z
" id="DejaVuSans-48"/>
       <path d="M 10.6875 12.40625 
L 21 12.40625 
L 21 0 
L 10.6875 0 
z
" id="DejaVuSans-46"/>
      </defs>
      <g transform="translate(153.086905 208.358125)scale(0.12 -0.12)">
       <use xlink:href="#DejaVuSans-48"/>
       <use x="63.623047" xlink:href="#DejaVuSans-46"/>
       <use x="95.410156" xlink:href="#DejaVuSans-48"/>
      </g>
     </g>
    </g>
    <g id="xtick_2">
     <g id="line2d_2">
      <g>
       <use style="stroke:#000000;stroke-width:0.8;" x="247.747424" xlink:href="#mfa6ca2f1dd" y="192.24"/>
      </g>
     </g>
     <g id="text_2">
      <!-- 0.5 -->
      <defs>
       <path d="M 10.796875 72.90625 
L 49.515625 72.90625 
L 49.515625 64.59375 
L 19.828125 64.59375 
L 19.828125 46.734375 
Q 21.96875 47.46875 24.109375 47.828125 
Q 26.265625 48.1875 28.421875 48.1875 
Q 40.625 48.1875 47.75 41.5 
Q 54.890625 34.8125 54.890625 23.390625 
Q 54.890625 11.625 47.5625 5.09375 
Q 40.234375 -1.421875 26.90625 -1.421875 
Q 22.3125 -1.421875 17.546875 -0.640625 
Q 12.796875 0.140625 7.71875 1.703125 
L 7.71875 11.625 
Q 12.109375 9.234375 16.796875 8.0625 
Q 21.484375 6.890625 26.703125 6.890625 
Q 35.15625 6.890625 40.078125 11.328125 
Q 45.015625 15.765625 45.015625 23.390625 
Q 45.015625 31 40.078125 35.4375 
Q 35.15625 39.890625 26.703125 39.890625 
Q 22.75 39.890625 18.8125 39.015625 
Q 14.890625 38.140625 10.796875 36.28125 
z
" id="DejaVuSans-53"/>
      </defs>
      <g transform="translate(238.205549 208.358125)scale(0.12 -0.12)">
       <use xlink:href="#DejaVuSans-48"/>
       <use x="63.623047" xlink:href="#DejaVuSans-46"/>
       <use x="95.410156" xlink:href="#DejaVuSans-53"/>
      </g>
     </g>
    </g>
    <g id="xtick_3">
     <g id="line2d_3">
      <g>
       <use style="stroke:#000000;stroke-width:0.8;" x="332.866068" xlink:href="#mfa6ca2f1dd" y="192.24"/>
      </g>
     </g>
     <g id="text_3">
      <!-- 1.0 -->
      <defs>
       <path d="M 12.40625 8.296875 
L 28.515625 8.296875 
L 28.515625 63.921875 
L 10.984375 60.40625 
L 10.984375 69.390625 
L 28.421875 72.90625 
L 38.28125 72.90625 
L 38.28125 8.296875 
L 54.390625 8.296875 
L 54.390625 0 
L 12.40625 0 
z
" id="DejaVuSans-49"/>
      </defs>
      <g transform="translate(323.324193 208.358125)scale(0.12 -0.12)">
       <use xlink:href="#DejaVuSans-49"/>
       <use x="63.623047" xlink:href="#DejaVuSans-46"/>
       <use x="95.410156" xlink:href="#DejaVuSans-48"/>
      </g>
     </g>
    </g>
    <g id="xtick_4">
     <g id="line2d_4">
      <g>
       <use style="stroke:#000000;stroke-width:0.8;" x="417.984712" xlink:href="#mfa6ca2f1dd" y="192.24"/>
      </g>
     </g>
     <g id="text_4">
      <!-- 1.5 -->
      <g transform="translate(408.442837 208.358125)scale(0.12 -0.12)">
       <use xlink:href="#DejaVuSans-49"/>
       <use x="63.623047" xlink:href="#DejaVuSans-46"/>
       <use x="95.410156" xlink:href="#DejaVuSans-53"/>
      </g>
     </g>
    </g>
    <g id="xtick_5">
     <g id="line2d_5">
      <g>
       <use style="stroke:#000000;stroke-width:0.8;" x="503.103356" xlink:href="#mfa6ca2f1dd" y="192.24"/>
      </g>
     </g>
     <g id="text_5">
      <!-- 2.0 -->
      <defs>
       <path d="M 19.1875 8.296875 
L 53.609375 8.296875 
L 53.609375 0 
L 7.328125 0 
L 7.328125 8.296875 
Q 12.9375 14.109375 22.625 23.890625 
Q 32.328125 33.6875 34.8125 36.53125 
Q 39.546875 41.84375 41.421875 45.53125 
Q 43.3125 49.21875 43.3125 52.78125 
Q 43.3125 58.59375 39.234375 62.25 
Q 35.15625 65.921875 28.609375 65.921875 
Q 23.96875 65.921875 18.8125 64.3125 
Q 13.671875 62.703125 7.8125 59.421875 
L 7.8125 69.390625 
Q 13.765625 71.78125 18.9375 73 
Q 24.125 74.21875 28.421875 74.21875 
Q 39.75 74.21875 46.484375 68.546875 
Q 53.21875 62.890625 53.21875 53.421875 
Q 53.21875 48.921875 51.53125 44.890625 
Q 49.859375 40.875 45.40625 35.40625 
Q 44.1875 33.984375 37.640625 27.21875 
Q 31.109375 20.453125 19.1875 8.296875 
z
" id="DejaVuSans-50"/>
      </defs>
      <g transform="translate(493.561481 208.358125)scale(0.12 -0.12)">
       <use xlink:href="#DejaVuSans-50"/>
       <use x="63.623047" xlink:href="#DejaVuSans-46"/>
       <use x="95.410156" xlink:href="#DejaVuSans-48"/>
      </g>
     </g>
    </g>
    <g id="text_6">
     <!-- Time (s) -->
     <defs>
      <path d="M -0.296875 72.90625 
L 61.375 72.90625 
L 61.375 64.59375 
L 35.5 64.59375 
L 35.5 0 
L 25.59375 0 
L 25.59375 64.59375 
L -0.296875 64.59375 
z
" id="DejaVuSans-84"/>
      <path d="M 9.421875 54.6875 
L 18.40625 54.6875 
L 18.40625 0 
L 9.421875 0 
z
M 9.421875 75.984375 
L 18.40625 75.984375 
L 18.40625 64.59375 
L 9.421875 64.59375 
z
" id="DejaVuSans-105"/>
      <path d="M 52 44.1875 
Q 55.375 50.25 60.0625 53.125 
Q 64.75 56 71.09375 56 
Q 79.640625 56 84.28125 50.015625 
Q 88.921875 44.046875 88.921875 33.015625 
L 88.921875 0 
L 79.890625 0 
L 79.890625 32.71875 
Q 79.890625 40.578125 77.09375 44.375 
Q 74.3125 48.1875 68.609375 48.1875 
Q 61.625 48.1875 57.5625 43.546875 
Q 53.515625 38.921875 53.515625 30.90625 
L 53.515625 0 
L 44.484375 0 
L 44.484375 32.71875 
Q 44.484375 40.625 41.703125 44.40625 
Q 38.921875 48.1875 33.109375 48.1875 
Q 26.21875 48.1875 22.15625 43.53125 
Q 18.109375 38.875 18.109375 30.90625 
L 18.109375 0 
L 9.078125 0 
L 9.078125 54.6875 
L 18.109375 54.6875 
L 18.109375 46.1875 
Q 21.1875 51.21875 25.484375 53.609375 
Q 29.78125 56 35.6875 56 
Q 41.65625 56 45.828125 52.96875 
Q 50 49.953125 52 44.1875 
z
" id="DejaVuSans-109"/>
      <path d="M 56.203125 29.59375 
L 56.203125 25.203125 
L 14.890625 25.203125 
Q 15.484375 15.921875 20.484375 11.0625 
Q 25.484375 6.203125 34.421875 6.203125 
Q 39.59375 6.203125 44.453125 7.46875 
Q 49.3125 8.734375 54.109375 11.28125 
L 54.109375 2.78125 
Q 49.265625 0.734375 44.1875 -0.34375 
Q 39.109375 -1.421875 33.890625 -1.421875 
Q 20.796875 -1.421875 13.15625 6.1875 
Q 5.515625 13.8125 5.515625 26.8125 
Q 5.515625 40.234375 12.765625 48.109375 
Q 20.015625 56 32.328125 56 
Q 43.359375 56 49.78125 48.890625 
Q 56.203125 41.796875 56.203125 29.59375 
z
M 47.21875 32.234375 
Q 47.125 39.59375 43.09375 43.984375 
Q 39.0625 48.390625 32.421875 48.390625 
Q 24.90625 48.390625 20.390625 44.140625 
Q 15.875 39.890625 15.1875 32.171875 
z
" id="DejaVuSans-101"/>
      <path id="DejaVuSans-32"/>
      <path d="M 31 75.875 
Q 24.46875 64.65625 21.28125 53.65625 
Q 18.109375 42.671875 18.109375 31.390625 
Q 18.109375 20.125 21.3125 9.0625 
Q 24.515625 -2 31 -13.1875 
L 23.1875 -13.1875 
Q 15.875 -1.703125 12.234375 9.375 
Q 8.59375 20.453125 8.59375 31.390625 
Q 8.59375 42.28125 12.203125 53.3125 
Q 15.828125 64.359375 23.1875 75.875 
z
" id="DejaVuSans-40"/>
      <path d="M 44.28125 53.078125 
L 44.28125 44.578125 
Q 40.484375 46.53125 36.375 47.5 
Q 32.28125 48.484375 27.875 48.484375 
Q 21.1875 48.484375 17.84375 46.4375 
Q 14.5 44.390625 14.5 40.28125 
Q 14.5 37.15625 16.890625 35.375 
Q 19.28125 33.59375 26.515625 31.984375 
L 29.59375 31.296875 
Q 39.15625 29.25 43.1875 25.515625 
Q 47.21875 21.78125 47.21875 15.09375 
Q 47.21875 7.46875 41.1875 3.015625 
Q 35.15625 -1.421875 24.609375 -1.421875 
Q 20.21875 -1.421875 15.453125 -0.5625 
Q 10.6875 0.296875 5.421875 2 
L 5.421875 11.28125 
Q 10.40625 8.6875 15.234375 7.390625 
Q 20.0625 6.109375 24.8125 6.109375 
Q 31.15625 6.109375 34.5625 8.28125 
Q 37.984375 10.453125 37.984375 14.40625 
Q 37.984375 18.0625 35.515625 20.015625 
Q 33.0625 21.96875 24.703125 23.78125 
L 21.578125 24.515625 
Q 13.234375 26.265625 9.515625 29.90625 
Q 5.8125 33.546875 5.8125 39.890625 
Q 5.8125 47.609375 11.28125 51.796875 
Q 16.75 56 26.8125 56 
Q 31.78125 56 36.171875 55.265625 
Q 40.578125 54.546875 44.28125 53.078125 
z
" id="DejaVuSans-115"/>
      <path d="M 8.015625 75.875 
L 15.828125 75.875 
Q 23.140625 64.359375 26.78125 53.3125 
Q 30.421875 42.28125 30.421875 31.390625 
Q 30.421875 20.453125 26.78125 9.375 
Q 23.140625 -1.703125 15.828125 -13.1875 
L 8.015625 -13.1875 
Q 14.5 -2 17.703125 9.0625 
Q 20.90625 20.125 20.90625 31.390625 
Q 20.90625 42.671875 17.703125 53.65625 
Q 14.5 64.65625 8.015625 75.875 
z
" id="DejaVuSans-41"/>
     </defs>
     <g transform="translate(302.60475 225.7955)scale(0.144 -0.144)">
      <use xlink:href="#DejaVuSans-84"/>
      <use x="61.037109" xlink:href="#DejaVuSans-105"/>
      <use x="88.820312" xlink:href="#DejaVuSans-109"/>
      <use x="186.232422" xlink:href="#DejaVuSans-101"/>
      <use x="247.755859" xlink:href="#DejaVuSans-32"/>
      <use x="279.542969" xlink:href="#DejaVuSans-40"/>
      <use x="318.556641" xlink:href="#DejaVuSans-115"/>
      <use x="370.65625" xlink:href="#DejaVuSans-41"/>
     </g>
    </g>
   </g>
   <g id="matplotlib.axis_2">
    <g id="ytick_1">
     <g id="line2d_6">
      <defs>
       <path d="M 0 0 
L -3.5 0 
" id="m160ceb0067" style="stroke:#000000;stroke-width:0.8;"/>
      </defs>
      <g>
       <use style="stroke:#000000;stroke-width:0.8;" x="81" xlink:href="#m160ceb0067" y="189.472457"/>
      </g>
     </g>
     <g id="text_7">
      <!-- 0.0004 -->
      <defs>
       <path d="M 37.796875 64.3125 
L 12.890625 25.390625 
L 37.796875 25.390625 
z
M 35.203125 72.90625 
L 47.609375 72.90625 
L 47.609375 25.390625 
L 58.015625 25.390625 
L 58.015625 17.1875 
L 47.609375 17.1875 
L 47.609375 0 
L 37.796875 0 
L 37.796875 17.1875 
L 4.890625 17.1875 
L 4.890625 26.703125 
z
" id="DejaVuSans-52"/>
      </defs>
      <g transform="translate(32.01125 194.03152)scale(0.12 -0.12)">
       <use xlink:href="#DejaVuSans-48"/>
       <use x="63.623047" xlink:href="#DejaVuSans-46"/>
       <use x="95.410156" xlink:href="#DejaVuSans-48"/>
       <use x="159.033203" xlink:href="#DejaVuSans-48"/>
       <use x="222.65625" xlink:href="#DejaVuSans-48"/>
       <use x="286.279297" xlink:href="#DejaVuSans-52"/>
      </g>
     </g>
    </g>
    <g id="ytick_2">
     <g id="line2d_7">
      <g>
       <use style="stroke:#000000;stroke-width:0.8;" x="81" xlink:href="#m160ceb0067" y="167.526469"/>
      </g>
     </g>
     <g id="text_8">
      <!-- 0.0006 -->
      <defs>
       <path d="M 33.015625 40.375 
Q 26.375 40.375 22.484375 35.828125 
Q 18.609375 31.296875 18.609375 23.390625 
Q 18.609375 15.53125 22.484375 10.953125 
Q 26.375 6.390625 33.015625 6.390625 
Q 39.65625 6.390625 43.53125 10.953125 
Q 47.40625 15.53125 47.40625 23.390625 
Q 47.40625 31.296875 43.53125 35.828125 
Q 39.65625 40.375 33.015625 40.375 
z
M 52.59375 71.296875 
L 52.59375 62.3125 
Q 48.875 64.0625 45.09375 64.984375 
Q 41.3125 65.921875 37.59375 65.921875 
Q 27.828125 65.921875 22.671875 59.328125 
Q 17.53125 52.734375 16.796875 39.40625 
Q 19.671875 43.65625 24.015625 45.921875 
Q 28.375 48.1875 33.59375 48.1875 
Q 44.578125 48.1875 50.953125 41.515625 
Q 57.328125 34.859375 57.328125 23.390625 
Q 57.328125 12.15625 50.6875 5.359375 
Q 44.046875 -1.421875 33.015625 -1.421875 
Q 20.359375 -1.421875 13.671875 8.265625 
Q 6.984375 17.96875 6.984375 36.375 
Q 6.984375 53.65625 15.1875 63.9375 
Q 23.390625 74.21875 37.203125 74.21875 
Q 40.921875 74.21875 44.703125 73.484375 
Q 48.484375 72.75 52.59375 71.296875 
z
" id="DejaVuSans-54"/>
      </defs>
      <g transform="translate(32.01125 172.085532)scale(0.12 -0.12)">
       <use xlink:href="#DejaVuSans-48"/>
       <use x="63.623047" xlink:href="#DejaVuSans-46"/>
       <use x="95.410156" xlink:href="#DejaVuSans-48"/>
       <use x="159.033203" xlink:href="#DejaVuSans-48"/>
       <use x="222.65625" xlink:href="#DejaVuSans-48"/>
       <use x="286.279297" xlink:href="#DejaVuSans-54"/>
      </g>
     </g>
    </g>
    <g id="ytick_3">
     <g id="line2d_8">
      <g>
       <use style="stroke:#000000;stroke-width:0.8;" x="81" xlink:href="#m160ceb0067" y="145.580481"/>
      </g>
     </g>
     <g id="text_9">
      <!-- 0.0008 -->
      <defs>
       <path d="M 31.78125 34.625 
Q 24.75 34.625 20.71875 30.859375 
Q 16.703125 27.09375 16.703125 20.515625 
Q 16.703125 13.921875 20.71875 10.15625 
Q 24.75 6.390625 31.78125 6.390625 
Q 38.8125 6.390625 42.859375 10.171875 
Q 46.921875 13.96875 46.921875 20.515625 
Q 46.921875 27.09375 42.890625 30.859375 
Q 38.875 34.625 31.78125 34.625 
z
M 21.921875 38.8125 
Q 15.578125 40.375 12.03125 44.71875 
Q 8.5 49.078125 8.5 55.328125 
Q 8.5 64.0625 14.71875 69.140625 
Q 20.953125 74.21875 31.78125 74.21875 
Q 42.671875 74.21875 48.875 69.140625 
Q 55.078125 64.0625 55.078125 55.328125 
Q 55.078125 49.078125 51.53125 44.71875 
Q 48 40.375 41.703125 38.8125 
Q 48.828125 37.15625 52.796875 32.3125 
Q 56.78125 27.484375 56.78125 20.515625 
Q 56.78125 9.90625 50.3125 4.234375 
Q 43.84375 -1.421875 31.78125 -1.421875 
Q 19.734375 -1.421875 13.25 4.234375 
Q 6.78125 9.90625 6.78125 20.515625 
Q 6.78125 27.484375 10.78125 32.3125 
Q 14.796875 37.15625 21.921875 38.8125 
z
M 18.3125 54.390625 
Q 18.3125 48.734375 21.84375 45.5625 
Q 25.390625 42.390625 31.78125 42.390625 
Q 38.140625 42.390625 41.71875 45.5625 
Q 45.3125 48.734375 45.3125 54.390625 
Q 45.3125 60.0625 41.71875 63.234375 
Q 38.140625 66.40625 31.78125 66.40625 
Q 25.390625 66.40625 21.84375 63.234375 
Q 18.3125 60.0625 18.3125 54.390625 
z
" id="DejaVuSans-56"/>
      </defs>
      <g transform="translate(32.01125 150.139544)scale(0.12 -0.12)">
       <use xlink:href="#DejaVuSans-48"/>
       <use x="63.623047" xlink:href="#DejaVuSans-46"/>
       <use x="95.410156" xlink:href="#DejaVuSans-48"/>
       <use x="159.033203" xlink:href="#DejaVuSans-48"/>
       <use x="222.65625" xlink:href="#DejaVuSans-48"/>
       <use x="286.279297" xlink:href="#DejaVuSans-56"/>
      </g>
     </g>
    </g>
    <g id="ytick_4">
     <g id="line2d_9">
      <g>
       <use style="stroke:#000000;stroke-width:0.8;" x="81" xlink:href="#m160ceb0067" y="123.634493"/>
      </g>
     </g>
     <g id="text_10">
      <!-- 0.0010 -->
      <g transform="translate(32.01125 128.193556)scale(0.12 -0.12)">
       <use xlink:href="#DejaVuSans-48"/>
       <use x="63.623047" xlink:href="#DejaVuSans-46"/>
       <use x="95.410156" xlink:href="#DejaVuSans-48"/>
       <use x="159.033203" xlink:href="#DejaVuSans-48"/>
       <use x="222.65625" xlink:href="#DejaVuSans-49"/>
       <use x="286.279297" xlink:href="#DejaVuSans-48"/>
      </g>
     </g>
    </g>
    <g id="ytick_5">
     <g id="line2d_10">
      <g>
       <use style="stroke:#000000;stroke-width:0.8;" x="81" xlink:href="#m160ceb0067" y="101.688506"/>
      </g>
     </g>
     <g id="text_11">
      <!-- 0.0012 -->
      <g transform="translate(32.01125 106.247568)scale(0.12 -0.12)">
       <use xlink:href="#DejaVuSans-48"/>
       <use x="63.623047" xlink:href="#DejaVuSans-46"/>
       <use x="95.410156" xlink:href="#DejaVuSans-48"/>
       <use x="159.033203" xlink:href="#DejaVuSans-48"/>
       <use x="222.65625" xlink:href="#DejaVuSans-49"/>
       <use x="286.279297" xlink:href="#DejaVuSans-50"/>
      </g>
     </g>
    </g>
    <g id="ytick_6">
     <g id="line2d_11">
      <g>
       <use style="stroke:#000000;stroke-width:0.8;" x="81" xlink:href="#m160ceb0067" y="79.742518"/>
      </g>
     </g>
     <g id="text_12">
      <!-- 0.0014 -->
      <g transform="translate(32.01125 84.30158)scale(0.12 -0.12)">
       <use xlink:href="#DejaVuSans-48"/>
       <use x="63.623047" xlink:href="#DejaVuSans-46"/>
       <use x="95.410156" xlink:href="#DejaVuSans-48"/>
       <use x="159.033203" xlink:href="#DejaVuSans-48"/>
       <use x="222.65625" xlink:href="#DejaVuSans-49"/>
       <use x="286.279297" xlink:href="#DejaVuSans-52"/>
      </g>
     </g>
    </g>
    <g id="ytick_7">
     <g id="line2d_12">
      <g>
       <use style="stroke:#000000;stroke-width:0.8;" x="81" xlink:href="#m160ceb0067" y="57.79653"/>
      </g>
     </g>
     <g id="text_13">
      <!-- 0.0016 -->
      <g transform="translate(32.01125 62.355592)scale(0.12 -0.12)">
       <use xlink:href="#DejaVuSans-48"/>
       <use x="63.623047" xlink:href="#DejaVuSans-46"/>
       <use x="95.410156" xlink:href="#DejaVuSans-48"/>
       <use x="159.033203" xlink:href="#DejaVuSans-48"/>
       <use x="222.65625" xlink:href="#DejaVuSans-49"/>
       <use x="286.279297" xlink:href="#DejaVuSans-54"/>
      </g>
     </g>
    </g>
    <g id="ytick_8">
     <g id="line2d_13">
      <g>
       <use style="stroke:#000000;stroke-width:0.8;" x="81" xlink:href="#m160ceb0067" y="35.850542"/>
      </g>
     </g>
     <g id="text_14">
      <!-- 0.0018 -->
      <g transform="translate(32.01125 40.409604)scale(0.12 -0.12)">
       <use xlink:href="#DejaVuSans-48"/>
       <use x="63.623047" xlink:href="#DejaVuSans-46"/>
       <use x="95.410156" xlink:href="#DejaVuSans-48"/>
       <use x="159.033203" xlink:href="#DejaVuSans-48"/>
       <use x="222.65625" xlink:href="#DejaVuSans-49"/>
       <use x="286.279297" xlink:href="#DejaVuSans-56"/>
      </g>
     </g>
    </g>
    <g id="text_15">
     <!-- Beta-bin $\rho$ -->
     <defs>
      <path d="M 19.671875 34.8125 
L 19.671875 8.109375 
L 35.5 8.109375 
Q 43.453125 8.109375 47.28125 11.40625 
Q 51.125 14.703125 51.125 21.484375 
Q 51.125 28.328125 47.28125 31.5625 
Q 43.453125 34.8125 35.5 34.8125 
z
M 19.671875 64.796875 
L 19.671875 42.828125 
L 34.28125 42.828125 
Q 41.5 42.828125 45.03125 45.53125 
Q 48.578125 48.25 48.578125 53.8125 
Q 48.578125 59.328125 45.03125 62.0625 
Q 41.5 64.796875 34.28125 64.796875 
z
M 9.8125 72.90625 
L 35.015625 72.90625 
Q 46.296875 72.90625 52.390625 68.21875 
Q 58.5 63.53125 58.5 54.890625 
Q 58.5 48.1875 55.375 44.234375 
Q 52.25 40.28125 46.1875 39.3125 
Q 53.46875 37.75 57.5 32.78125 
Q 61.53125 27.828125 61.53125 20.40625 
Q 61.53125 10.640625 54.890625 5.3125 
Q 48.25 0 35.984375 0 
L 9.8125 0 
z
" id="DejaVuSans-66"/>
      <path d="M 18.3125 70.21875 
L 18.3125 54.6875 
L 36.8125 54.6875 
L 36.8125 47.703125 
L 18.3125 47.703125 
L 18.3125 18.015625 
Q 18.3125 11.328125 20.140625 9.421875 
Q 21.96875 7.515625 27.59375 7.515625 
L 36.8125 7.515625 
L 36.8125 0 
L 27.59375 0 
Q 17.1875 0 13.234375 3.875 
Q 9.28125 7.765625 9.28125 18.015625 
L 9.28125 47.703125 
L 2.6875 47.703125 
L 2.6875 54.6875 
L 9.28125 54.6875 
L 9.28125 70.21875 
z
" id="DejaVuSans-116"/>
      <path d="M 34.28125 27.484375 
Q 23.390625 27.484375 19.1875 25 
Q 14.984375 22.515625 14.984375 16.5 
Q 14.984375 11.71875 18.140625 8.90625 
Q 21.296875 6.109375 26.703125 6.109375 
Q 34.1875 6.109375 38.703125 11.40625 
Q 43.21875 16.703125 43.21875 25.484375 
L 43.21875 27.484375 
z
M 52.203125 31.203125 
L 52.203125 0 
L 43.21875 0 
L 43.21875 8.296875 
Q 40.140625 3.328125 35.546875 0.953125 
Q 30.953125 -1.421875 24.3125 -1.421875 
Q 15.921875 -1.421875 10.953125 3.296875 
Q 6 8.015625 6 15.921875 
Q 6 25.140625 12.171875 29.828125 
Q 18.359375 34.515625 30.609375 34.515625 
L 43.21875 34.515625 
L 43.21875 35.40625 
Q 43.21875 41.609375 39.140625 45 
Q 35.0625 48.390625 27.6875 48.390625 
Q 23 48.390625 18.546875 47.265625 
Q 14.109375 46.140625 10.015625 43.890625 
L 10.015625 52.203125 
Q 14.9375 54.109375 19.578125 55.046875 
Q 24.21875 56 28.609375 56 
Q 40.484375 56 46.34375 49.84375 
Q 52.203125 43.703125 52.203125 31.203125 
z
" id="DejaVuSans-97"/>
      <path d="M 4.890625 31.390625 
L 31.203125 31.390625 
L 31.203125 23.390625 
L 4.890625 23.390625 
z
" id="DejaVuSans-45"/>
      <path d="M 48.6875 27.296875 
Q 48.6875 37.203125 44.609375 42.84375 
Q 40.53125 48.484375 33.40625 48.484375 
Q 26.265625 48.484375 22.1875 42.84375 
Q 18.109375 37.203125 18.109375 27.296875 
Q 18.109375 17.390625 22.1875 11.75 
Q 26.265625 6.109375 33.40625 6.109375 
Q 40.53125 6.109375 44.609375 11.75 
Q 48.6875 17.390625 48.6875 27.296875 
z
M 18.109375 46.390625 
Q 20.953125 51.265625 25.265625 53.625 
Q 29.59375 56 35.59375 56 
Q 45.5625 56 51.78125 48.09375 
Q 58.015625 40.1875 58.015625 27.296875 
Q 58.015625 14.40625 51.78125 6.484375 
Q 45.5625 -1.421875 35.59375 -1.421875 
Q 29.59375 -1.421875 25.265625 0.953125 
Q 20.953125 3.328125 18.109375 8.203125 
L 18.109375 0 
L 9.078125 0 
L 9.078125 75.984375 
L 18.109375 75.984375 
z
" id="DejaVuSans-98"/>
      <path d="M 54.890625 33.015625 
L 54.890625 0 
L 45.90625 0 
L 45.90625 32.71875 
Q 45.90625 40.484375 42.875 44.328125 
Q 39.84375 48.1875 33.796875 48.1875 
Q 26.515625 48.1875 22.3125 43.546875 
Q 18.109375 38.921875 18.109375 30.90625 
L 18.109375 0 
L 9.078125 0 
L 9.078125 54.6875 
L 18.109375 54.6875 
L 18.109375 46.1875 
Q 21.34375 51.125 25.703125 53.5625 
Q 30.078125 56 35.796875 56 
Q 45.21875 56 50.046875 50.171875 
Q 54.890625 44.34375 54.890625 33.015625 
z
" id="DejaVuSans-110"/>
      <path d="M 18.796875 44.921875 
Q 22.703125 49.90625 30.953125 54.296875 
Q 34.1875 56 43.0625 56 
Q 53.03125 56 57.71875 48.09375 
Q 62.40625 40.1875 59.90625 27.296875 
Q 57.375 14.40625 49.609375 6.484375 
Q 41.84375 -1.421875 31.890625 -1.421875 
Q 25.875 -1.421875 22.015625 0.984375 
Q 18.171875 3.328125 16.3125 8.203125 
L 10.640625 -20.796875 
L 1.609375 -20.796875 
L 10.890625 26.8125 
Q 13.09375 38.09375 18.796875 44.921875 
z
M 50.59375 27.296875 
Q 52.484375 37.203125 49.515625 42.875 
Q 46.53125 48.484375 39.40625 48.484375 
Q 32.28125 48.484375 27.09375 42.875 
Q 21.921875 37.203125 20.015625 27.296875 
Q 18.0625 17.390625 21.046875 11.71875 
Q 24.03125 6.109375 31.15625 6.109375 
Q 38.28125 6.109375 43.453125 11.71875 
Q 48.640625 17.390625 50.59375 27.296875 
z
" id="DejaVuSans-Oblique-961"/>
     </defs>
     <g transform="translate(24.98725 146.304)rotate(-90)scale(0.144 -0.144)">
      <use transform="translate(0 0.015625)" xlink:href="#DejaVuSans-66"/>
      <use transform="translate(68.603516 0.015625)" xlink:href="#DejaVuSans-101"/>
      <use transform="translate(130.126953 0.015625)" xlink:href="#DejaVuSans-116"/>
      <use transform="translate(169.335938 0.015625)" xlink:href="#DejaVuSans-97"/>
      <use transform="translate(230.615234 0.015625)" xlink:href="#DejaVuSans-45"/>
      <use transform="translate(266.699219 0.015625)" xlink:href="#DejaVuSans-98"/>
      <use transform="translate(330.175781 0.015625)" xlink:href="#DejaVuSans-105"/>
      <use transform="translate(357.958984 0.015625)" xlink:href="#DejaVuSans-110"/>
      <use transform="translate(421.337891 0.015625)" xlink:href="#DejaVuSans-32"/>
      <use transform="translate(453.125 0.015625)" xlink:href="#DejaVuSans-Oblique-961"/>
     </g>
    </g>
   </g>
   <g id="line2d_14">
    <path clip-path="url(#p990602d575)" d="M 81 113.285392 
L 82.702373 96.521817 
L 84.404746 105.313317 
L 86.107119 146.890685 
L 87.809492 138.76753 
L 89.511864 108.785726 
L 91.214237 121.401716 
L 92.91661 108.222333 
L 94.618983 149.65959 
L 96.321356 106.167655 
L 98.023729 70.539349 
L 99.726102 136.60319 
L 101.428475 112.875805 
L 103.130847 134.204457 
L 104.83322 91.804171 
L 106.535593 120.946173 
L 108.237966 100.699936 
L 109.940339 87.411946 
L 111.642712 96.262707 
L 113.345085 116.525442 
L 115.047458 77.365798 
L 116.749831 110.740952 
L 118.452203 133.012948 
L 120.154576 80.23484 
L 121.856949 153.405784 
L 123.559322 137.249082 
L 125.261695 130.370689 
L 126.964068 90.70411 
L 128.666441 107.557187 
L 130.368814 153.662034 
L 132.071186 135.983434 
L 133.773559 119.822927 
L 135.475932 97.84373 
L 137.178305 110.518058 
L 138.880678 149.146089 
L 140.583051 102.51951 
L 142.285424 108.287071 
L 143.987797 122.924399 
L 145.690169 128.700966 
L 147.392542 131.286931 
L 149.094915 104.823169 
L 150.797288 108.907953 
L 152.499661 89.080775 
L 154.202034 76.569028 
L 155.904407 107.889266 
L 157.60678 106.576573 
L 159.309153 123.089206 
L 161.011525 108.959403 
L 162.713898 128.758274 
L 164.416271 117.68216 
L 166.118644 107.809919 
L 167.821017 112.852869 
L 169.52339 114.972424 
L 171.225763 123.804057 
L 172.928136 158.491632 
L 174.630508 147.185963 
L 176.332881 102.347431 
L 178.035254 134.677155 
L 179.737627 115.248662 
L 181.44 149.528782 
L 183.142373 118.756212 
L 184.844746 119.409106 
L 186.547119 102.221439 
L 188.249492 113.381357 
L 189.951864 128.398753 
L 191.654237 90.920212 
L 193.35661 94.918662 
L 195.058983 118.130619 
L 196.761356 105.627896 
L 198.463729 110.488397 
L 200.166102 110.109548 
L 201.868475 141.590356 
L 203.570847 110.879104 
L 205.27322 90.433887 
L 206.975593 87.474267 
L 208.677966 119.614346 
L 210.380339 95.465625 
L 212.082712 99.99374 
L 213.785085 113.148087 
L 215.487458 117.095574 
L 217.189831 83.770359 
L 218.892203 128.168001 
L 220.594576 153.814373 
L 222.296949 107.286747 
L 223.999322 104.386924 
L 225.701695 78.368119 
L 227.404068 106.034469 
L 229.106441 122.466336 
L 230.808814 131.911513 
L 232.511186 109.077385 
L 234.213559 141.210689 
L 235.915932 87.664283 
L 237.618305 83.171806 
L 239.320678 115.101275 
L 241.023051 53.2831 
L 242.725424 82.78125 
L 244.427797 114.403081 
L 246.130169 53.660436 
L 247.832542 105.066705 
L 249.534915 77.608597 
L 251.237288 108.269812 
L 252.939661 98.786814 
L 254.642034 144.861895 
L 256.344407 102.473219 
L 258.04678 88.605083 
L 259.749153 95.057819 
L 261.451525 77.384783 
L 263.153898 117.443602 
L 264.856271 130.595033 
L 266.558644 78.799479 
L 268.261017 117.641642 
L 269.96339 91.89361 
L 271.665763 96.508781 
L 273.368136 109.456796 
L 275.070508 83.356217 
L 276.772881 131.015431 
L 278.475254 129.855088 
L 280.177627 112.353057 
L 281.88 142.773241 
L 283.582373 79.515192 
L 285.284746 87.125221 
L 286.987119 76.868132 
L 288.689492 82.584137 
L 290.391864 77.219541 
L 292.094237 116.213229 
L 293.79661 116.675833 
L 295.498983 142.152822 
L 297.201356 101.61084 
L 298.903729 126.52935 
L 300.606102 145.916061 
L 302.308475 101.157449 
L 304.010847 116.254737 
L 305.71322 83.433096 
L 307.415593 46.925964 
L 309.117966 154.534264 
L 310.820339 101.774978 
L 312.522712 110.826171 
L 314.225085 118.788089 
L 315.927458 106.012718 
L 317.629831 119.567928 
L 319.332203 89.13486 
L 321.034576 105.898472 
L 322.736949 136.857436 
L 324.439322 130.441068 
L 326.141695 118.291634 
L 327.844068 131.375283 
L 329.546441 99.653448 
L 331.248814 126.676823 
L 332.951186 130.642949 
L 334.653559 106.949848 
L 336.355932 96.767618 
L 338.058305 114.787438 
L 339.760678 119.692563 
L 341.463051 107.425982 
L 343.165424 108.880251 
L 344.867797 123.984071 
L 346.570169 168.998092 
L 348.272542 102.559064 
L 349.974915 102.104001 
L 351.677288 77.822488 
L 353.379661 95.604352 
L 355.082034 74.015064 
L 356.784407 135.994505 
L 358.48678 107.340898 
L 360.189153 145.187426 
L 361.891525 142.794316 
L 363.593898 130.228076 
L 365.296271 64.519523 
L 366.998644 84.077374 
L 368.701017 115.648459 
L 370.40339 128.694144 
L 372.105763 92.306751 
L 373.808136 98.274856 
L 375.510508 95.08489 
L 377.212881 104.153544 
L 378.915254 122.997334 
L 380.617627 94.474511 
L 382.32 73.499188 
L 384.022373 123.739774 
L 385.724746 114.762184 
L 387.427119 151.69664 
L 389.129492 149.080554 
L 390.831864 93.605716 
L 392.534237 84.366306 
L 394.23661 139.608872 
L 395.938983 110.805108 
L 397.641356 88.388931 
L 399.343729 101.051462 
L 401.046102 107.864676 
L 402.748475 112.954893 
L 404.450847 116.112243 
L 406.15322 93.082788 
L 407.855593 129.102164 
L 409.557966 107.920431 
L 411.260339 125.862741 
L 412.962712 85.832896 
L 414.665085 132.358166 
L 416.367458 129.901869 
L 418.069831 128.332485 
L 419.772203 119.381773 
L 421.474576 131.881576 
L 423.176949 106.287598 
L 424.879322 136.424613 
L 426.581695 121.773001 
L 428.284068 119.280783 
L 429.986441 157.954224 
L 431.688814 136.304141 
L 433.391186 168.849829 
L 435.093559 109.889308 
L 436.795932 100.787931 
L 438.498305 123.42412 
L 440.200678 117.806546 
L 441.903051 148.483015 
L 443.605424 121.531693 
L 445.307797 136.102555 
L 447.010169 68.605683 
L 448.712542 76.436752 
L 450.414915 136.995698 
L 452.117288 119.70031 
L 453.819661 94.494554 
L 455.522034 125.29325 
L 457.224407 60.284959 
L 458.92678 92.053807 
L 460.629153 82.88641 
L 462.331525 104.189651 
L 464.033898 80.095029 
L 465.736271 122.910811 
L 467.438644 101.671342 
L 469.141017 146.807636 
L 470.84339 122.312818 
L 472.545763 91.932438 
L 474.248136 163.679874 
L 475.950508 144.193396 
L 477.652881 150.140317 
L 479.355254 128.205107 
L 481.057627 146.706773 
L 482.76 129.229081 
L 484.462373 107.633991 
L 486.164746 94.866345 
L 487.867119 103.882321 
L 489.569492 146.118232 
L 491.271864 125.630663 
L 492.974237 109.307555 
L 494.67661 129.896867 
L 496.378983 54.661437 
L 498.081356 117.769571 
L 499.783729 87.282559 
L 501.486102 93.349174 
L 503.188475 70.522269 
L 504.890847 121.708691 
L 506.59322 111.574442 
L 508.295593 98.932339 
L 509.997966 141.094573 
L 511.700339 145.424979 
L 513.402712 131.406961 
L 515.105085 120.377583 
L 516.807458 91.065579 
L 518.509831 82.208062 
L 520.212203 130.972693 
L 523.616949 112.61861 
L 527.021695 150.80277 
L 528.724068 120.988814 
L 530.426441 124.267582 
L 532.128814 155.472326 
L 533.831186 134.251938 
L 535.533559 117.936134 
L 537.235932 85.281837 
L 538.938305 146.151397 
L 540.640678 110.105708 
L 542.343051 129.068153 
L 544.045424 116.175553 
L 545.747797 129.307732 
L 547.450169 109.54425 
L 550.854915 151.397033 
L 552.557288 109.513595 
L 554.259661 97.700809 
L 555.962034 148.585784 
L 557.664407 118.213585 
L 559.36678 100.824711 
L 561.069153 62.227958 
L 562.771525 112.203962 
L 564.473898 126.610774 
L 566.176271 122.116159 
L 567.878644 155.192825 
L 569.581017 136.253514 
L 571.28339 107.399353 
L 572.985763 118.102744 
L 574.688136 145.456046 
L 576.390508 124.643813 
L 578.092881 105.781105 
L 579.795254 106.170733 
L 581.497627 146.822928 
L 583.2 138.315298 
L 583.2 138.315298 
" style="fill:none;stroke:#0000ff;stroke-linecap:square;stroke-width:1.5;"/>
   </g>
   <g id="patch_3">
    <path d="M 81 192.24 
L 81 25.92 
" style="fill:none;stroke:#000000;stroke-linecap:square;stroke-linejoin:miter;stroke-width:0.8;"/>
   </g>
   <g id="patch_4">
    <path d="M 583.2 192.24 
L 583.2 25.92 
" style="fill:none;stroke:#000000;stroke-linecap:square;stroke-linejoin:miter;stroke-width:0.8;"/>
   </g>
   <g id="patch_5">
    <path d="M 81 192.24 
L 583.2 192.24 
" style="fill:none;stroke:#000000;stroke-linecap:square;stroke-linejoin:miter;stroke-width:0.8;"/>
   </g>
   <g id="patch_6">
    <path d="M 81 25.92 
L 583.2 25.92 
" style="fill:none;stroke:#000000;stroke-linecap:square;stroke-linejoin:miter;stroke-width:0.8;"/>
   </g>
   <g id="text_16">
    <!-- Striatum, Num Trials=10 All unstimulated trials -->
    <defs>
     <path d="M 53.515625 70.515625 
L 53.515625 60.890625 
Q 47.90625 63.578125 42.921875 64.890625 
Q 37.9375 66.21875 33.296875 66.21875 
Q 25.25 66.21875 20.875 63.09375 
Q 16.5 59.96875 16.5 54.203125 
Q 16.5 49.359375 19.40625 46.890625 
Q 22.3125 44.4375 30.421875 42.921875 
L 36.375 41.703125 
Q 47.40625 39.59375 52.65625 34.296875 
Q 57.90625 29 57.90625 20.125 
Q 57.90625 9.515625 50.796875 4.046875 
Q 43.703125 -1.421875 29.984375 -1.421875 
Q 24.8125 -1.421875 18.96875 -0.25 
Q 13.140625 0.921875 6.890625 3.21875 
L 6.890625 13.375 
Q 12.890625 10.015625 18.65625 8.296875 
Q 24.421875 6.59375 29.984375 6.59375 
Q 38.421875 6.59375 43.015625 9.90625 
Q 47.609375 13.234375 47.609375 19.390625 
Q 47.609375 24.75 44.3125 27.78125 
Q 41.015625 30.8125 33.5 32.328125 
L 27.484375 33.5 
Q 16.453125 35.6875 11.515625 40.375 
Q 6.59375 45.0625 6.59375 53.421875 
Q 6.59375 63.09375 13.40625 68.65625 
Q 20.21875 74.21875 32.171875 74.21875 
Q 37.3125 74.21875 42.625 73.28125 
Q 47.953125 72.359375 53.515625 70.515625 
z
" id="DejaVuSans-83"/>
     <path d="M 41.109375 46.296875 
Q 39.59375 47.171875 37.8125 47.578125 
Q 36.03125 48 33.890625 48 
Q 26.265625 48 22.1875 43.046875 
Q 18.109375 38.09375 18.109375 28.8125 
L 18.109375 0 
L 9.078125 0 
L 9.078125 54.6875 
L 18.109375 54.6875 
L 18.109375 46.1875 
Q 20.953125 51.171875 25.484375 53.578125 
Q 30.03125 56 36.53125 56 
Q 37.453125 56 38.578125 55.875 
Q 39.703125 55.765625 41.0625 55.515625 
z
" id="DejaVuSans-114"/>
     <path d="M 8.5 21.578125 
L 8.5 54.6875 
L 17.484375 54.6875 
L 17.484375 21.921875 
Q 17.484375 14.15625 20.5 10.265625 
Q 23.53125 6.390625 29.59375 6.390625 
Q 36.859375 6.390625 41.078125 11.03125 
Q 45.3125 15.671875 45.3125 23.6875 
L 45.3125 54.6875 
L 54.296875 54.6875 
L 54.296875 0 
L 45.3125 0 
L 45.3125 8.40625 
Q 42.046875 3.421875 37.71875 1 
Q 33.40625 -1.421875 27.6875 -1.421875 
Q 18.265625 -1.421875 13.375 4.4375 
Q 8.5 10.296875 8.5 21.578125 
z
M 31.109375 56 
z
" id="DejaVuSans-117"/>
     <path d="M 11.71875 12.40625 
L 22.015625 12.40625 
L 22.015625 4 
L 14.015625 -11.625 
L 7.71875 -11.625 
L 11.71875 4 
z
" id="DejaVuSans-44"/>
     <path d="M 9.8125 72.90625 
L 23.09375 72.90625 
L 55.421875 11.921875 
L 55.421875 72.90625 
L 64.984375 72.90625 
L 64.984375 0 
L 51.703125 0 
L 19.390625 60.984375 
L 19.390625 0 
L 9.8125 0 
z
" id="DejaVuSans-78"/>
     <path d="M 9.421875 75.984375 
L 18.40625 75.984375 
L 18.40625 0 
L 9.421875 0 
z
" id="DejaVuSans-108"/>
     <path d="M 10.59375 45.40625 
L 73.1875 45.40625 
L 73.1875 37.203125 
L 10.59375 37.203125 
z
M 10.59375 25.484375 
L 73.1875 25.484375 
L 73.1875 17.1875 
L 10.59375 17.1875 
z
" id="DejaVuSans-61"/>
     <path d="M 34.1875 63.1875 
L 20.796875 26.90625 
L 47.609375 26.90625 
z
M 28.609375 72.90625 
L 39.796875 72.90625 
L 67.578125 0 
L 57.328125 0 
L 50.6875 18.703125 
L 17.828125 18.703125 
L 11.1875 0 
L 0.78125 0 
z
" id="DejaVuSans-65"/>
     <path d="M 45.40625 46.390625 
L 45.40625 75.984375 
L 54.390625 75.984375 
L 54.390625 0 
L 45.40625 0 
L 45.40625 8.203125 
Q 42.578125 3.328125 38.25 0.953125 
Q 33.9375 -1.421875 27.875 -1.421875 
Q 17.96875 -1.421875 11.734375 6.484375 
Q 5.515625 14.40625 5.515625 27.296875 
Q 5.515625 40.1875 11.734375 48.09375 
Q 17.96875 56 27.875 56 
Q 33.9375 56 38.25 53.625 
Q 42.578125 51.265625 45.40625 46.390625 
z
M 14.796875 27.296875 
Q 14.796875 17.390625 18.875 11.75 
Q 22.953125 6.109375 30.078125 6.109375 
Q 37.203125 6.109375 41.296875 11.75 
Q 45.40625 17.390625 45.40625 27.296875 
Q 45.40625 37.203125 41.296875 42.84375 
Q 37.203125 48.484375 30.078125 48.484375 
Q 22.953125 48.484375 18.875 42.84375 
Q 14.796875 37.203125 14.796875 27.296875 
z
" id="DejaVuSans-100"/>
    </defs>
    <g transform="translate(189.64875 19.92)scale(0.12 -0.12)">
     <use xlink:href="#DejaVuSans-83"/>
     <use x="63.476562" xlink:href="#DejaVuSans-116"/>
     <use x="102.685547" xlink:href="#DejaVuSans-114"/>
     <use x="143.798828" xlink:href="#DejaVuSans-105"/>
     <use x="171.582031" xlink:href="#DejaVuSans-97"/>
     <use x="232.861328" xlink:href="#DejaVuSans-116"/>
     <use x="272.070312" xlink:href="#DejaVuSans-117"/>
     <use x="335.449219" xlink:href="#DejaVuSans-109"/>
     <use x="432.861328" xlink:href="#DejaVuSans-44"/>
     <use x="464.648438" xlink:href="#DejaVuSans-32"/>
     <use x="496.435547" xlink:href="#DejaVuSans-78"/>
     <use x="571.240234" xlink:href="#DejaVuSans-117"/>
     <use x="634.619141" xlink:href="#DejaVuSans-109"/>
     <use x="732.03125" xlink:href="#DejaVuSans-32"/>
     <use x="763.818359" xlink:href="#DejaVuSans-84"/>
     <use x="824.683594" xlink:href="#DejaVuSans-114"/>
     <use x="865.796875" xlink:href="#DejaVuSans-105"/>
     <use x="893.580078" xlink:href="#DejaVuSans-97"/>
     <use x="954.859375" xlink:href="#DejaVuSans-108"/>
     <use x="982.642578" xlink:href="#DejaVuSans-115"/>
     <use x="1034.742188" xlink:href="#DejaVuSans-61"/>
     <use x="1118.53125" xlink:href="#DejaVuSans-49"/>
     <use x="1182.154297" xlink:href="#DejaVuSans-48"/>
     <use x="1245.777344" xlink:href="#DejaVuSans-32"/>
     <use x="1277.564453" xlink:href="#DejaVuSans-65"/>
     <use x="1345.972656" xlink:href="#DejaVuSans-108"/>
     <use x="1373.755859" xlink:href="#DejaVuSans-108"/>
     <use x="1401.539062" xlink:href="#DejaVuSans-32"/>
     <use x="1433.326172" xlink:href="#DejaVuSans-117"/>
     <use x="1496.705078" xlink:href="#DejaVuSans-110"/>
     <use x="1560.083984" xlink:href="#DejaVuSans-115"/>
     <use x="1612.183594" xlink:href="#DejaVuSans-116"/>
     <use x="1651.392578" xlink:href="#DejaVuSans-105"/>
     <use x="1679.175781" xlink:href="#DejaVuSans-109"/>
     <use x="1776.587891" xlink:href="#DejaVuSans-117"/>
     <use x="1839.966797" xlink:href="#DejaVuSans-108"/>
     <use x="1867.75" xlink:href="#DejaVuSans-97"/>
     <use x="1929.029297" xlink:href="#DejaVuSans-116"/>
     <use x="1968.238281" xlink:href="#DejaVuSans-101"/>
     <use x="2029.761719" xlink:href="#DejaVuSans-100"/>
     <use x="2093.238281" xlink:href="#DejaVuSans-32"/>
     <use x="2125.025391" xlink:href="#DejaVuSans-116"/>
     <use x="2164.234375" xlink:href="#DejaVuSans-114"/>
     <use x="2205.347656" xlink:href="#DejaVuSans-105"/>
     <use x="2233.130859" xlink:href="#DejaVuSans-97"/>
     <use x="2294.410156" xlink:href="#DejaVuSans-108"/>
     <use x="2322.193359" xlink:href="#DejaVuSans-115"/>
    </g>
   </g>
   <g id="legend_1">
    <g id="patch_7">
     <path d="M 89.4 70.77375 
L 223.56 70.77375 
Q 225.96 70.77375 225.96 68.37375 
L 225.96 34.32 
Q 225.96 31.92 223.56 31.92 
L 89.4 31.92 
Q 87 31.92 87 34.32 
L 87 68.37375 
Q 87 70.77375 89.4 70.77375 
z
" style="fill:#ffffff;opacity:0.8;stroke:#cccccc;stroke-linejoin:miter;"/>
    </g>
    <g id="line2d_15">
     <path d="M 91.8 41.64 
L 115.8 41.64 
" style="fill:none;stroke:#0000ff;stroke-linecap:square;stroke-width:1.5;"/>
    </g>
    <g id="line2d_16"/>
    <g id="text_17">
     <!-- Beta-Binomial $\rho$ -->
     <defs>
      <path d="M 30.609375 48.390625 
Q 23.390625 48.390625 19.1875 42.75 
Q 14.984375 37.109375 14.984375 27.296875 
Q 14.984375 17.484375 19.15625 11.84375 
Q 23.34375 6.203125 30.609375 6.203125 
Q 37.796875 6.203125 41.984375 11.859375 
Q 46.1875 17.53125 46.1875 27.296875 
Q 46.1875 37.015625 41.984375 42.703125 
Q 37.796875 48.390625 30.609375 48.390625 
z
M 30.609375 56 
Q 42.328125 56 49.015625 48.375 
Q 55.71875 40.765625 55.71875 27.296875 
Q 55.71875 13.875 49.015625 6.21875 
Q 42.328125 -1.421875 30.609375 -1.421875 
Q 18.84375 -1.421875 12.171875 6.21875 
Q 5.515625 13.875 5.515625 27.296875 
Q 5.515625 40.765625 12.171875 48.375 
Q 18.84375 56 30.609375 56 
z
" id="DejaVuSans-111"/>
     </defs>
     <g transform="translate(125.4 45.84)scale(0.12 -0.12)">
      <use transform="translate(0 0.015625)" xlink:href="#DejaVuSans-66"/>
      <use transform="translate(68.603516 0.015625)" xlink:href="#DejaVuSans-101"/>
      <use transform="translate(130.126953 0.015625)" xlink:href="#DejaVuSans-116"/>
      <use transform="translate(169.335938 0.015625)" xlink:href="#DejaVuSans-97"/>
      <use transform="translate(230.615234 0.015625)" xlink:href="#DejaVuSans-45"/>
      <use transform="translate(266.699219 0.015625)" xlink:href="#DejaVuSans-66"/>
      <use transform="translate(335.302734 0.015625)" xlink:href="#DejaVuSans-105"/>
      <use transform="translate(363.085938 0.015625)" xlink:href="#DejaVuSans-110"/>
      <use transform="translate(426.464844 0.015625)" xlink:href="#DejaVuSans-111"/>
      <use transform="translate(487.646484 0.015625)" xlink:href="#DejaVuSans-109"/>
      <use transform="translate(585.058594 0.015625)" xlink:href="#DejaVuSans-105"/>
      <use transform="translate(612.841797 0.015625)" xlink:href="#DejaVuSans-97"/>
      <use transform="translate(674.121094 0.015625)" xlink:href="#DejaVuSans-108"/>
      <use transform="translate(701.904297 0.015625)" xlink:href="#DejaVuSans-32"/>
      <use transform="translate(733.691406 0.015625)" xlink:href="#DejaVuSans-Oblique-961"/>
     </g>
    </g>
    <g id="patch_8">
     <path d="M 91.8 63.478125 
L 115.8 63.478125 
L 115.8 55.078125 
L 91.8 55.078125 
z
" style="fill:#0000ff;opacity:0.3;stroke:#0000ff;stroke-linejoin:miter;"/>
    </g>
    <g id="text_18">
     <!-- Std. Err. -->
     <defs>
      <path d="M 9.8125 72.90625 
L 55.90625 72.90625 
L 55.90625 64.59375 
L 19.671875 64.59375 
L 19.671875 43.015625 
L 54.390625 43.015625 
L 54.390625 34.71875 
L 19.671875 34.71875 
L 19.671875 8.296875 
L 56.78125 8.296875 
L 56.78125 0 
L 9.8125 0 
z
" id="DejaVuSans-69"/>
     </defs>
     <g transform="translate(125.4 63.478125)scale(0.12 -0.12)">
      <use xlink:href="#DejaVuSans-83"/>
      <use x="63.476562" xlink:href="#DejaVuSans-116"/>
      <use x="102.685547" xlink:href="#DejaVuSans-100"/>
      <use x="166.162109" xlink:href="#DejaVuSans-46"/>
      <use x="197.949219" xlink:href="#DejaVuSans-32"/>
      <use x="229.736328" xlink:href="#DejaVuSans-69"/>
      <use x="292.919922" xlink:href="#DejaVuSans-114"/>
      <use x="334.017578" xlink:href="#DejaVuSans-114"/>
      <use x="374.990234" xlink:href="#DejaVuSans-46"/>
     </g>
    </g>
   </g>
  </g>
 </g>
 <defs>
  <clipPath id="p990602d575">
   <rect height="166.32" width="502.2" x="81" y="25.92"/>
  </clipPath>
 </defs>
</svg>
