<?xml version="1.0" encoding="utf-8" standalone="no"?>
<!DOCTYPE svg PUBLIC "-//W3C//DTD SVG 1.1//EN"
  "http://www.w3.org/Graphics/SVG/1.1/DTD/svg11.dtd">
<!-- Created with matplotlib (https://matplotlib.org/) -->
<svg height="223.2pt" version="1.1" viewBox="0 0 576 223.2" width="576pt" xmlns="http://www.w3.org/2000/svg" xmlns:xlink="http://www.w3.org/1999/xlink">
 <defs>
  <style type="text/css">
*{stroke-linecap:butt;stroke-linejoin:round;}
  </style>
 </defs>
 <g id="figure_1">
  <g id="patch_1">
   <path d="M 0 223.2 
L 576 223.2 
L 576 0 
L 0 0 
z
" style="fill:#ffffff;"/>
  </g>
  <g id="axes_1">
   <g id="patch_2">
    <path d="M 80.12 174.76 
L 565.2 174.76 
L 565.2 26.88 
L 80.12 26.88 
z
" style="fill:#ffffff;"/>
   </g>
   <g id="PolyCollection_1">
    <defs>
     <path d="M 158.966054 -48.44 
L 158.966054 -196.32 
L 405.616902 -196.32 
L 405.616902 -48.44 
L 405.616902 -48.44 
L 158.966054 -48.44 
z
" id="md4ae81fedd" style="stroke:#808080;stroke-opacity:0.3;"/>
    </defs>
    <g clip-path="url(#pb2ea4df1f2)">
     <use style="fill:#808080;fill-opacity:0.3;stroke:#808080;stroke-opacity:0.3;" x="0" xlink:href="#md4ae81fedd" y="223.2"/>
    </g>
   </g>
   <g id="PolyCollection_2">
    <defs>
     <path d="M 80.12 -164.848569 
L 80.12 -153.051597 
L 81.764339 -160.434051 
L 83.408678 -168.513705 
L 85.053017 -161.873503 
L 86.697356 -154.676705 
L 88.341695 -153.348397 
L 89.986034 -162.967071 
L 91.630373 -161.992324 
L 93.274712 -169.104972 
L 94.919051 -166.000222 
L 96.56339 -163.160381 
L 98.207729 -161.708452 
L 99.852068 -171.288721 
L 101.496407 -163.305922 
L 103.140746 -164.998494 
L 104.785085 -163.349572 
L 106.429424 -158.434863 
L 108.073763 -164.458145 
L 109.718102 -150.116761 
L 111.362441 -163.286764 
L 113.00678 -144.071633 
L 114.651119 -160.889909 
L 116.295458 -156.450202 
L 117.939797 -152.33107 
L 119.584136 -159.381953 
L 121.228475 -161.73152 
L 122.872814 -156.682575 
L 124.517153 -158.379178 
L 126.161492 -164.896361 
L 127.805831 -165.752054 
L 129.450169 -149.37449 
L 131.094508 -162.98045 
L 132.738847 -155.8321 
L 134.383186 -152.833944 
L 136.027525 -162.552382 
L 137.671864 -154.54089 
L 139.316203 -162.82108 
L 140.960542 -161.773916 
L 142.604881 -147.528517 
L 144.24922 -155.029302 
L 145.893559 -166.983121 
L 147.537898 -158.939512 
L 149.182237 -156.661159 
L 150.826576 -154.363027 
L 152.470915 -160.50427 
L 154.115254 -164.376876 
L 155.759593 -158.574214 
L 157.403932 -163.91973 
L 159.048271 -167.817333 
L 160.69261 -146.464254 
L 162.336949 -158.714411 
L 163.981288 -161.305673 
L 165.625627 -161.296876 
L 167.269966 -164.490005 
L 168.914305 -163.206831 
L 170.558644 -162.210647 
L 172.202983 -155.290151 
L 173.847322 -154.560297 
L 175.491661 -163.467418 
L 177.136 -151.623988 
L 178.780339 -164.629437 
L 180.424678 -167.819956 
L 182.069017 -158.647859 
L 183.713356 -161.684463 
L 185.357695 -156.619028 
L 187.002034 -162.542622 
L 188.646373 -158.88499 
L 190.290712 -152.991649 
L 191.935051 -158.105543 
L 193.57939 -157.456522 
L 195.223729 -147.78477 
L 196.868068 -160.542774 
L 198.512407 -162.216563 
L 200.156746 -159.297384 
L 201.801085 -156.157463 
L 203.445424 -158.144105 
L 205.089763 -153.676299 
L 206.734102 -160.093683 
L 208.378441 -166.345145 
L 210.02278 -160.61123 
L 211.667119 -163.846922 
L 213.311458 -159.263842 
L 214.955797 -153.324457 
L 216.600136 -154.888259 
L 218.244475 -156.01499 
L 219.888814 -158.743434 
L 221.533153 -161.727393 
L 223.177492 -159.754808 
L 224.821831 -160.95481 
L 226.466169 -162.563309 
L 228.110508 -161.614584 
L 229.754847 -159.315415 
L 231.399186 -164.646241 
L 233.043525 -175.259046 
L 234.687864 -177.152129 
L 236.332203 -177.369376 
L 237.976542 -176.795733 
L 239.620881 -166.597257 
L 241.26522 -165.338 
L 242.909559 -162.82805 
L 244.553898 -166.667981 
L 246.198237 -165.864443 
L 247.842576 -166.265807 
L 249.486915 -158.779748 
L 251.131254 -160.506904 
L 252.775593 -152.452261 
L 254.419932 -156.372909 
L 256.064271 -148.520086 
L 257.70861 -153.167826 
L 259.352949 -162.465867 
L 260.997288 -158.210778 
L 262.641627 -155.071374 
L 264.285966 -151.93926 
L 265.930305 -166.230237 
L 267.574644 -157.821775 
L 269.218983 -157.797542 
L 270.863322 -155.056317 
L 272.507661 -163.565648 
L 274.152 -168.231331 
L 275.796339 -160.790727 
L 277.440678 -160.344769 
L 279.085017 -164.861136 
L 280.729356 -160.761676 
L 282.373695 -151.951511 
L 284.018034 -154.95045 
L 285.662373 -146.376908 
L 287.306712 -156.945212 
L 288.951051 -150.120621 
L 290.59539 -155.953802 
L 292.239729 -147.755035 
L 293.884068 -162.969255 
L 295.528407 -160.141879 
L 297.172746 -158.606676 
L 298.817085 -150.833196 
L 300.461424 -154.713984 
L 302.105763 -157.799578 
L 303.750102 -159.884282 
L 305.394441 -147.186894 
L 307.03878 -156.570571 
L 308.683119 -158.390292 
L 310.327458 -166.637011 
L 311.971797 -155.734357 
L 313.616136 -160.494464 
L 315.260475 -157.304245 
L 316.904814 -164.17075 
L 318.549153 -165.700208 
L 320.193492 -160.738496 
L 321.837831 -159.197072 
L 323.482169 -164.606806 
L 325.126508 -159.83042 
L 326.770847 -151.403862 
L 328.415186 -162.656176 
L 330.059525 -158.951909 
L 331.703864 -167.424366 
L 333.348203 -165.933594 
L 334.992542 -156.380975 
L 336.636881 -157.46516 
L 338.28122 -163.118924 
L 339.925559 -153.157429 
L 341.569898 -156.310127 
L 343.214237 -169.327656 
L 344.858576 -169.440531 
L 346.502915 -159.326639 
L 348.147254 -162.483413 
L 349.791593 -155.397089 
L 351.435932 -169.426115 
L 353.080271 -154.583716 
L 354.72461 -169.905762 
L 356.368949 -153.231745 
L 358.013288 -163.715551 
L 359.657627 -160.600375 
L 361.301966 -157.141393 
L 362.946305 -157.148665 
L 364.590644 -150.423988 
L 366.234983 -148.757676 
L 367.879322 -161.685122 
L 369.523661 -153.257513 
L 371.168 -161.842704 
L 372.812339 -162.401219 
L 374.456678 -151.644707 
L 376.101017 -161.374205 
L 377.745356 -158.90492 
L 379.389695 -167.042099 
L 381.034034 -153.263891 
L 382.678373 -163.52998 
L 384.322712 -158.818491 
L 385.967051 -157.016402 
L 387.61139 -157.385905 
L 389.255729 -173.627271 
L 390.900068 -163.502366 
L 392.544407 -151.891416 
L 394.188746 -152.105778 
L 395.833085 -162.094281 
L 397.477424 -160.388238 
L 399.121763 -154.606022 
L 400.766102 -157.54133 
L 402.410441 -157.084652 
L 404.05478 -160.244525 
L 405.699119 -161.455123 
L 407.343458 -155.730849 
L 408.987797 -157.367565 
L 410.632136 -172.759107 
L 412.276475 -164.136883 
L 413.920814 -170.946055 
L 415.565153 -165.462744 
L 417.209492 -165.588645 
L 418.853831 -166.527668 
L 420.498169 -167.552811 
L 422.142508 -166.36964 
L 423.786847 -151.821393 
L 425.431186 -164.569448 
L 427.075525 -145.972181 
L 428.719864 -157.405837 
L 430.364203 -155.120951 
L 432.008542 -154.491323 
L 433.652881 -157.819466 
L 435.29722 -151.330544 
L 436.941559 -158.837091 
L 438.585898 -161.416382 
L 440.230237 -158.885465 
L 441.874576 -158.053026 
L 443.518915 -158.605087 
L 445.163254 -160.890014 
L 446.807593 -162.317794 
L 448.451932 -153.388165 
L 450.096271 -164.397088 
L 451.74061 -155.663747 
L 453.384949 -163.151718 
L 455.029288 -169.185716 
L 456.673627 -164.298464 
L 458.317966 -158.939468 
L 459.962305 -160.248101 
L 461.606644 -167.371666 
L 463.250983 -164.437755 
L 464.895322 -175.549155 
L 466.539661 -160.852829 
L 468.184 -164.376025 
L 469.828339 -171.507247 
L 471.472678 -167.193399 
L 473.117017 -163.952235 
L 474.761356 -165.588979 
L 476.405695 -162.589661 
L 478.050034 -158.062352 
L 479.694373 -167.508641 
L 481.338712 -160.49696 
L 482.983051 -159.061003 
L 484.62739 -160.150938 
L 486.271729 -159.379763 
L 487.916068 -160.400624 
L 489.560407 -171.687414 
L 491.204746 -161.633649 
L 492.849085 -158.198799 
L 494.493424 -164.438281 
L 496.137763 -156.053711 
L 497.782102 -162.050431 
L 499.426441 -154.449282 
L 501.07078 -148.084811 
L 502.715119 -163.177088 
L 504.359458 -157.830311 
L 506.003797 -175.517792 
L 507.648136 -169.978097 
L 509.292475 -167.976962 
L 510.936814 -154.972336 
L 512.581153 -161.792367 
L 514.225492 -166.976092 
L 515.869831 -163.468471 
L 517.514169 -169.222091 
L 519.158508 -157.104978 
L 520.802847 -159.984185 
L 522.447186 -152.195704 
L 524.091525 -168.601462 
L 525.735864 -154.993252 
L 527.380203 -162.610715 
L 529.024542 -171.577318 
L 530.668881 -171.728036 
L 532.31322 -171.543471 
L 533.957559 -168.448193 
L 535.601898 -165.047644 
L 537.246237 -169.734271 
L 538.890576 -154.184894 
L 540.534915 -161.188868 
L 542.179254 -164.053884 
L 543.823593 -158.964836 
L 545.467932 -159.209686 
L 547.112271 -159.243931 
L 548.75661 -158.195645 
L 550.400949 -164.5935 
L 552.045288 -161.907781 
L 553.689627 -156.015941 
L 555.333966 -159.183031 
L 556.978305 -149.244406 
L 558.622644 -156.66568 
L 560.266983 -169.671798 
L 561.911322 -151.279382 
L 563.555661 -159.344504 
L 565.2 -158.533887 
L 565.2 -169.320137 
L 565.2 -169.320137 
L 563.555661 -170.974955 
L 561.911322 -163.579986 
L 560.266983 -182.672867 
L 558.622644 -169.146049 
L 556.978305 -160.865806 
L 555.333966 -172.125252 
L 553.689627 -169.440697 
L 552.045288 -175.828419 
L 550.400949 -178.533278 
L 548.75661 -172.579952 
L 547.112271 -172.033241 
L 545.467932 -171.248802 
L 543.823593 -173.555444 
L 542.179254 -178.73977 
L 540.534915 -176.635873 
L 538.890576 -169.148476 
L 537.246237 -185.005462 
L 535.601898 -180.696967 
L 533.957559 -184.172282 
L 532.31322 -187.67638 
L 530.668881 -188.557647 
L 529.024542 -189.902062 
L 527.380203 -175.067495 
L 525.735864 -167.024219 
L 524.091525 -180.515925 
L 522.447186 -164.016604 
L 520.802847 -171.519237 
L 519.158508 -169.841905 
L 517.514169 -181.077972 
L 515.869831 -176.243695 
L 514.225492 -178.819649 
L 512.581153 -174.792174 
L 510.936814 -166.156219 
L 509.292475 -180.220872 
L 507.648136 -182.757262 
L 506.003797 -188.069864 
L 504.359458 -169.468144 
L 502.715119 -174.996278 
L 501.07078 -159.437128 
L 499.426441 -166.02092 
L 497.782102 -173.402628 
L 496.137763 -167.023161 
L 494.493424 -177.081343 
L 492.849085 -169.707016 
L 491.204746 -174.494559 
L 489.560407 -184.242706 
L 487.916068 -172.294463 
L 486.271729 -171.308315 
L 484.62739 -171.084734 
L 482.983051 -170.693258 
L 481.338712 -171.233624 
L 479.694373 -179.376052 
L 478.050034 -169.50591 
L 476.405695 -174.170458 
L 474.761356 -177.618932 
L 473.117017 -176.608818 
L 471.472678 -179.881967 
L 469.828339 -183.835737 
L 468.184 -176.140295 
L 466.539661 -172.131392 
L 464.895322 -187.318212 
L 463.250983 -175.911279 
L 461.606644 -178.816322 
L 459.962305 -171.859306 
L 458.317966 -170.680978 
L 456.673627 -176.012019 
L 455.029288 -180.139077 
L 453.384949 -176.105535 
L 451.74061 -167.739846 
L 450.096271 -176.629544 
L 448.451932 -164.261311 
L 446.807593 -174.581106 
L 445.163254 -172.684279 
L 443.518915 -170.098327 
L 441.874576 -169.698628 
L 440.230237 -170.078856 
L 438.585898 -172.978416 
L 436.941559 -170.518015 
L 435.29722 -162.259187 
L 433.652881 -169.820613 
L 432.008542 -165.561144 
L 430.364203 -166.893412 
L 428.719864 -169.119455 
L 427.075525 -157.437854 
L 425.431186 -176.299943 
L 423.786847 -164.231937 
L 422.142508 -179.596731 
L 420.498169 -181.368674 
L 418.853831 -180.361456 
L 417.209492 -179.307159 
L 415.565153 -180.649808 
L 413.920814 -187.199955 
L 412.276475 -181.771731 
L 410.632136 -190.416939 
L 408.987797 -177.415779 
L 407.343458 -179.639721 
L 405.699119 -179.177139 
L 404.05478 -171.145045 
L 402.410441 -167.644346 
L 400.766102 -168.475814 
L 399.121763 -165.138764 
L 397.477424 -172.438585 
L 395.833085 -173.184431 
L 394.188746 -163.548238 
L 392.544407 -163.430357 
L 390.900068 -174.457243 
L 389.255729 -185.657232 
L 387.61139 -169.284753 
L 385.967051 -169.488934 
L 384.322712 -169.586924 
L 382.678373 -174.535618 
L 381.034034 -164.422878 
L 379.389695 -178.938439 
L 377.745356 -170.695264 
L 376.101017 -171.84508 
L 374.456678 -163.35352 
L 372.812339 -173.327423 
L 371.168 -174.299081 
L 369.523661 -165.003628 
L 367.879322 -173.075943 
L 366.234983 -159.506655 
L 364.590644 -160.959825 
L 362.946305 -168.385022 
L 361.301966 -168.804436 
L 359.657627 -171.410721 
L 358.013288 -175.450272 
L 356.368949 -165.174591 
L 354.72461 -181.413398 
L 353.080271 -166.031888 
L 351.435932 -181.680223 
L 349.791593 -167.454814 
L 348.147254 -174.207949 
L 346.502915 -170.51422 
L 344.858576 -181.046223 
L 343.214237 -179.675654 
L 341.569898 -167.701074 
L 339.925559 -164.214024 
L 338.28122 -174.405494 
L 336.636881 -169.088184 
L 334.992542 -167.5159 
L 333.348203 -177.345465 
L 331.703864 -179.544366 
L 330.059525 -169.705912 
L 328.415186 -174.421383 
L 326.770847 -162.664529 
L 325.126508 -171.691833 
L 323.482169 -177.184228 
L 321.837831 -171.067838 
L 320.193492 -171.659236 
L 318.549153 -176.411387 
L 316.904814 -175.302116 
L 315.260475 -168.234113 
L 313.616136 -172.800619 
L 311.971797 -166.214445 
L 310.327458 -178.813817 
L 308.683119 -169.664605 
L 307.03878 -168.103398 
L 305.394441 -158.11571 
L 303.750102 -170.842484 
L 302.105763 -169.524619 
L 300.461424 -165.396612 
L 298.817085 -162.092878 
L 297.172746 -170.380303 
L 295.528407 -171.573184 
L 293.884068 -174.000295 
L 292.239729 -158.745169 
L 290.59539 -166.901782 
L 288.951051 -162.3325 
L 287.306712 -168.516468 
L 285.662373 -157.045241 
L 284.018034 -166.389932 
L 282.373695 -163.050209 
L 280.729356 -173.393231 
L 279.085017 -178.311834 
L 277.440678 -174.093455 
L 275.796339 -176.296543 
L 274.152 -182.708903 
L 272.507661 -178.388844 
L 270.863322 -170.608781 
L 269.218983 -174.94731 
L 267.574644 -175.265196 
L 265.930305 -185.81265 
L 264.285966 -163.302413 
L 262.641627 -167.133545 
L 260.997288 -168.52942 
L 259.352949 -174.618175 
L 257.70861 -164.837362 
L 256.064271 -160.177432 
L 254.419932 -167.911553 
L 252.775593 -163.905748 
L 251.131254 -170.884537 
L 249.486915 -168.849545 
L 247.842576 -177.867797 
L 246.198237 -180.029111 
L 244.553898 -180.840049 
L 242.909559 -177.679949 
L 241.26522 -182.970385 
L 239.620881 -184.365055 
L 237.976542 -194.700085 
L 236.332203 -195.940726 
L 234.687864 -196.32 
L 233.043525 -195.646419 
L 231.399186 -182.474921 
L 229.754847 -174.903271 
L 228.110508 -176.121515 
L 226.466169 -176.069691 
L 224.821831 -172.532251 
L 223.177492 -171.361011 
L 221.533153 -173.076601 
L 219.888814 -169.000428 
L 218.244475 -166.303081 
L 216.600136 -165.566027 
L 214.955797 -163.666189 
L 213.311458 -169.844968 
L 211.667119 -174.973938 
L 210.02278 -170.994438 
L 208.378441 -177.573064 
L 206.734102 -171.953522 
L 205.089763 -165.033855 
L 203.445424 -169.22354 
L 201.801085 -166.590226 
L 200.156746 -170.343755 
L 198.512407 -172.846821 
L 196.868068 -171.343503 
L 195.223729 -158.604108 
L 193.57939 -167.865027 
L 191.935051 -168.311944 
L 190.290712 -163.324877 
L 188.646373 -170.973214 
L 187.002034 -174.143059 
L 185.357695 -167.58153 
L 183.713356 -171.713163 
L 182.069017 -169.205764 
L 180.424678 -178.571985 
L 178.780339 -175.208506 
L 177.136 -162.75765 
L 175.491661 -174.445357 
L 173.847322 -165.32728 
L 172.202983 -166.241886 
L 170.558644 -174.107984 
L 168.914305 -173.854114 
L 167.269966 -175.873841 
L 165.625627 -173.038236 
L 163.981288 -172.522841 
L 162.336949 -168.987967 
L 160.69261 -157.39298 
L 159.048271 -178.699466 
L 157.403932 -175.978294 
L 155.759593 -169.987062 
L 154.115254 -176.170171 
L 152.470915 -171.563746 
L 150.826576 -165.526455 
L 149.182237 -167.213115 
L 147.537898 -169.612208 
L 145.893559 -178.075407 
L 144.24922 -165.943524 
L 142.604881 -158.837548 
L 140.960542 -172.420492 
L 139.316203 -175.300099 
L 137.671864 -167.561431 
L 136.027525 -175.106136 
L 134.383186 -163.625171 
L 132.738847 -166.78009 
L 131.094508 -174.493466 
L 129.450169 -160.236892 
L 127.805831 -177.062871 
L 126.161492 -177.057969 
L 124.517153 -170.303994 
L 122.872814 -168.007352 
L 121.228475 -173.795135 
L 119.584136 -171.052485 
L 117.939797 -164.180978 
L 116.295458 -167.148778 
L 114.651119 -172.424774 
L 113.00678 -154.678377 
L 111.362441 -173.825038 
L 109.718102 -161.405744 
L 108.073763 -175.872364 
L 106.429424 -169.973809 
L 104.785085 -174.323076 
L 103.140746 -176.417794 
L 101.496407 -174.603182 
L 99.852068 -182.871634 
L 98.207729 -174.576044 
L 96.56339 -177.052597 
L 94.919051 -179.273525 
L 93.274712 -183.093672 
L 91.630373 -176.10653 
L 89.986034 -177.927109 
L 88.341695 -167.206318 
L 86.697356 -167.914892 
L 85.053017 -176.280689 
L 83.408678 -184.006723 
L 81.764339 -172.273635 
L 80.12 -164.848569 
z
" id="m3e83ccbe62" style="stroke:#0000ff;stroke-opacity:0.3;"/>
    </defs>
    <g clip-path="url(#pb2ea4df1f2)">
     <use style="fill:#0000ff;fill-opacity:0.3;stroke:#0000ff;stroke-opacity:0.3;" x="0" xlink:href="#m3e83ccbe62" y="223.2"/>
    </g>
   </g>
   <g id="matplotlib.axis_1">
    <g id="xtick_1">
     <g id="line2d_1">
      <defs>
       <path d="M 0 0 
L 0 3.5 
" id="m305b33cec9" style="stroke:#000000;stroke-width:0.8;"/>
      </defs>
      <g>
       <use style="stroke:#000000;stroke-width:0.8;" x="158.966054" xlink:href="#m305b33cec9" y="174.76"/>
      </g>
     </g>
     <g id="text_1">
      <!-- 0.0 -->
      <defs>
       <path d="M 31.78125 66.40625 
Q 24.171875 66.40625 20.328125 58.90625 
Q 16.5 51.421875 16.5 36.375 
Q 16.5 21.390625 20.328125 13.890625 
Q 24.171875 6.390625 31.78125 6.390625 
Q 39.453125 6.390625 43.28125 13.890625 
Q 47.125 21.390625 47.125 36.375 
Q 47.125 51.421875 43.28125 58.90625 
Q 39.453125 66.40625 31.78125 66.40625 
z
M 31.78125 74.21875 
Q 44.046875 74.21875 50.515625 64.515625 
Q 56.984375 54.828125 56.984375 36.375 
Q 56.984375 17.96875 50.515625 8.265625 
Q 44.046875 -1.421875 31.78125 -1.421875 
Q 19.53125 -1.421875 13.0625 8.265625 
Q 6.59375 17.96875 6.59375 36.375 
Q 6.59375 54.828125 13.0625 64.515625 
Q 19.53125 74.21875 31.78125 74.21875 
z
" id="DejaVuSans-48"/>
       <path d="M 10.6875 12.40625 
L 21 12.40625 
L 21 0 
L 10.6875 0 
z
" id="DejaVuSans-46"/>
      </defs>
      <g transform="translate(149.424179 190.878125)scale(0.12 -0.12)">
       <use xlink:href="#DejaVuSans-48"/>
       <use x="63.623047" xlink:href="#DejaVuSans-46"/>
       <use x="95.410156" xlink:href="#DejaVuSans-48"/>
      </g>
     </g>
    </g>
    <g id="xtick_2">
     <g id="line2d_2">
      <g>
       <use style="stroke:#000000;stroke-width:0.8;" x="241.183003" xlink:href="#m305b33cec9" y="174.76"/>
      </g>
     </g>
     <g id="text_2">
      <!-- 0.5 -->
      <defs>
       <path d="M 10.796875 72.90625 
L 49.515625 72.90625 
L 49.515625 64.59375 
L 19.828125 64.59375 
L 19.828125 46.734375 
Q 21.96875 47.46875 24.109375 47.828125 
Q 26.265625 48.1875 28.421875 48.1875 
Q 40.625 48.1875 47.75 41.5 
Q 54.890625 34.8125 54.890625 23.390625 
Q 54.890625 11.625 47.5625 5.09375 
Q 40.234375 -1.421875 26.90625 -1.421875 
Q 22.3125 -1.421875 17.546875 -0.640625 
Q 12.796875 0.140625 7.71875 1.703125 
L 7.71875 11.625 
Q 12.109375 9.234375 16.796875 8.0625 
Q 21.484375 6.890625 26.703125 6.890625 
Q 35.15625 6.890625 40.078125 11.328125 
Q 45.015625 15.765625 45.015625 23.390625 
Q 45.015625 31 40.078125 35.4375 
Q 35.15625 39.890625 26.703125 39.890625 
Q 22.75 39.890625 18.8125 39.015625 
Q 14.890625 38.140625 10.796875 36.28125 
z
" id="DejaVuSans-53"/>
      </defs>
      <g transform="translate(231.641128 190.878125)scale(0.12 -0.12)">
       <use xlink:href="#DejaVuSans-48"/>
       <use x="63.623047" xlink:href="#DejaVuSans-46"/>
       <use x="95.410156" xlink:href="#DejaVuSans-53"/>
      </g>
     </g>
    </g>
    <g id="xtick_3">
     <g id="line2d_3">
      <g>
       <use style="stroke:#000000;stroke-width:0.8;" x="323.399953" xlink:href="#m305b33cec9" y="174.76"/>
      </g>
     </g>
     <g id="text_3">
      <!-- 1.0 -->
      <defs>
       <path d="M 12.40625 8.296875 
L 28.515625 8.296875 
L 28.515625 63.921875 
L 10.984375 60.40625 
L 10.984375 69.390625 
L 28.421875 72.90625 
L 38.28125 72.90625 
L 38.28125 8.296875 
L 54.390625 8.296875 
L 54.390625 0 
L 12.40625 0 
z
" id="DejaVuSans-49"/>
      </defs>
      <g transform="translate(313.858078 190.878125)scale(0.12 -0.12)">
       <use xlink:href="#DejaVuSans-49"/>
       <use x="63.623047" xlink:href="#DejaVuSans-46"/>
       <use x="95.410156" xlink:href="#DejaVuSans-48"/>
      </g>
     </g>
    </g>
    <g id="xtick_4">
     <g id="line2d_4">
      <g>
       <use style="stroke:#000000;stroke-width:0.8;" x="405.616902" xlink:href="#m305b33cec9" y="174.76"/>
      </g>
     </g>
     <g id="text_4">
      <!-- 1.5 -->
      <g transform="translate(396.075027 190.878125)scale(0.12 -0.12)">
       <use xlink:href="#DejaVuSans-49"/>
       <use x="63.623047" xlink:href="#DejaVuSans-46"/>
       <use x="95.410156" xlink:href="#DejaVuSans-53"/>
      </g>
     </g>
    </g>
    <g id="xtick_5">
     <g id="line2d_5">
      <g>
       <use style="stroke:#000000;stroke-width:0.8;" x="487.833851" xlink:href="#m305b33cec9" y="174.76"/>
      </g>
     </g>
     <g id="text_5">
      <!-- 2.0 -->
      <defs>
       <path d="M 19.1875 8.296875 
L 53.609375 8.296875 
L 53.609375 0 
L 7.328125 0 
L 7.328125 8.296875 
Q 12.9375 14.109375 22.625 23.890625 
Q 32.328125 33.6875 34.8125 36.53125 
Q 39.546875 41.84375 41.421875 45.53125 
Q 43.3125 49.21875 43.3125 52.78125 
Q 43.3125 58.59375 39.234375 62.25 
Q 35.15625 65.921875 28.609375 65.921875 
Q 23.96875 65.921875 18.8125 64.3125 
Q 13.671875 62.703125 7.8125 59.421875 
L 7.8125 69.390625 
Q 13.765625 71.78125 18.9375 73 
Q 24.125 74.21875 28.421875 74.21875 
Q 39.75 74.21875 46.484375 68.546875 
Q 53.21875 62.890625 53.21875 53.421875 
Q 53.21875 48.921875 51.53125 44.890625 
Q 49.859375 40.875 45.40625 35.40625 
Q 44.1875 33.984375 37.640625 27.21875 
Q 31.109375 20.453125 19.1875 8.296875 
z
" id="DejaVuSans-50"/>
      </defs>
      <g transform="translate(478.291976 190.878125)scale(0.12 -0.12)">
       <use xlink:href="#DejaVuSans-50"/>
       <use x="63.623047" xlink:href="#DejaVuSans-46"/>
       <use x="95.410156" xlink:href="#DejaVuSans-48"/>
      </g>
     </g>
    </g>
    <g id="text_6">
     <!-- Time (s) -->
     <defs>
      <path d="M -0.296875 72.90625 
L 61.375 72.90625 
L 61.375 64.59375 
L 35.5 64.59375 
L 35.5 0 
L 25.59375 0 
L 25.59375 64.59375 
L -0.296875 64.59375 
z
" id="DejaVuSans-84"/>
      <path d="M 9.421875 54.6875 
L 18.40625 54.6875 
L 18.40625 0 
L 9.421875 0 
z
M 9.421875 75.984375 
L 18.40625 75.984375 
L 18.40625 64.59375 
L 9.421875 64.59375 
z
" id="DejaVuSans-105"/>
      <path d="M 52 44.1875 
Q 55.375 50.25 60.0625 53.125 
Q 64.75 56 71.09375 56 
Q 79.640625 56 84.28125 50.015625 
Q 88.921875 44.046875 88.921875 33.015625 
L 88.921875 0 
L 79.890625 0 
L 79.890625 32.71875 
Q 79.890625 40.578125 77.09375 44.375 
Q 74.3125 48.1875 68.609375 48.1875 
Q 61.625 48.1875 57.5625 43.546875 
Q 53.515625 38.921875 53.515625 30.90625 
L 53.515625 0 
L 44.484375 0 
L 44.484375 32.71875 
Q 44.484375 40.625 41.703125 44.40625 
Q 38.921875 48.1875 33.109375 48.1875 
Q 26.21875 48.1875 22.15625 43.53125 
Q 18.109375 38.875 18.109375 30.90625 
L 18.109375 0 
L 9.078125 0 
L 9.078125 54.6875 
L 18.109375 54.6875 
L 18.109375 46.1875 
Q 21.1875 51.21875 25.484375 53.609375 
Q 29.78125 56 35.6875 56 
Q 41.65625 56 45.828125 52.96875 
Q 50 49.953125 52 44.1875 
z
" id="DejaVuSans-109"/>
      <path d="M 56.203125 29.59375 
L 56.203125 25.203125 
L 14.890625 25.203125 
Q 15.484375 15.921875 20.484375 11.0625 
Q 25.484375 6.203125 34.421875 6.203125 
Q 39.59375 6.203125 44.453125 7.46875 
Q 49.3125 8.734375 54.109375 11.28125 
L 54.109375 2.78125 
Q 49.265625 0.734375 44.1875 -0.34375 
Q 39.109375 -1.421875 33.890625 -1.421875 
Q 20.796875 -1.421875 13.15625 6.1875 
Q 5.515625 13.8125 5.515625 26.8125 
Q 5.515625 40.234375 12.765625 48.109375 
Q 20.015625 56 32.328125 56 
Q 43.359375 56 49.78125 48.890625 
Q 56.203125 41.796875 56.203125 29.59375 
z
M 47.21875 32.234375 
Q 47.125 39.59375 43.09375 43.984375 
Q 39.0625 48.390625 32.421875 48.390625 
Q 24.90625 48.390625 20.390625 44.140625 
Q 15.875 39.890625 15.1875 32.171875 
z
" id="DejaVuSans-101"/>
      <path id="DejaVuSans-32"/>
      <path d="M 31 75.875 
Q 24.46875 64.65625 21.28125 53.65625 
Q 18.109375 42.671875 18.109375 31.390625 
Q 18.109375 20.125 21.3125 9.0625 
Q 24.515625 -2 31 -13.1875 
L 23.1875 -13.1875 
Q 15.875 -1.703125 12.234375 9.375 
Q 8.59375 20.453125 8.59375 31.390625 
Q 8.59375 42.28125 12.203125 53.3125 
Q 15.828125 64.359375 23.1875 75.875 
z
" id="DejaVuSans-40"/>
      <path d="M 44.28125 53.078125 
L 44.28125 44.578125 
Q 40.484375 46.53125 36.375 47.5 
Q 32.28125 48.484375 27.875 48.484375 
Q 21.1875 48.484375 17.84375 46.4375 
Q 14.5 44.390625 14.5 40.28125 
Q 14.5 37.15625 16.890625 35.375 
Q 19.28125 33.59375 26.515625 31.984375 
L 29.59375 31.296875 
Q 39.15625 29.25 43.1875 25.515625 
Q 47.21875 21.78125 47.21875 15.09375 
Q 47.21875 7.46875 41.1875 3.015625 
Q 35.15625 -1.421875 24.609375 -1.421875 
Q 20.21875 -1.421875 15.453125 -0.5625 
Q 10.6875 0.296875 5.421875 2 
L 5.421875 11.28125 
Q 10.40625 8.6875 15.234375 7.390625 
Q 20.0625 6.109375 24.8125 6.109375 
Q 31.15625 6.109375 34.5625 8.28125 
Q 37.984375 10.453125 37.984375 14.40625 
Q 37.984375 18.0625 35.515625 20.015625 
Q 33.0625 21.96875 24.703125 23.78125 
L 21.578125 24.515625 
Q 13.234375 26.265625 9.515625 29.90625 
Q 5.8125 33.546875 5.8125 39.890625 
Q 5.8125 47.609375 11.28125 51.796875 
Q 16.75 56 26.8125 56 
Q 31.78125 56 36.171875 55.265625 
Q 40.578125 54.546875 44.28125 53.078125 
z
" id="DejaVuSans-115"/>
      <path d="M 8.015625 75.875 
L 15.828125 75.875 
Q 23.140625 64.359375 26.78125 53.3125 
Q 30.421875 42.28125 30.421875 31.390625 
Q 30.421875 20.453125 26.78125 9.375 
Q 23.140625 -1.703125 15.828125 -13.1875 
L 8.015625 -13.1875 
Q 14.5 -2 17.703125 9.0625 
Q 20.90625 20.125 20.90625 31.390625 
Q 20.90625 42.671875 17.703125 53.65625 
Q 14.5 64.65625 8.015625 75.875 
z
" id="DejaVuSans-41"/>
     </defs>
     <g transform="translate(293.16475 208.3155)scale(0.144 -0.144)">
      <use xlink:href="#DejaVuSans-84"/>
      <use x="61.037109" xlink:href="#DejaVuSans-105"/>
      <use x="88.820312" xlink:href="#DejaVuSans-109"/>
      <use x="186.232422" xlink:href="#DejaVuSans-101"/>
      <use x="247.755859" xlink:href="#DejaVuSans-32"/>
      <use x="279.542969" xlink:href="#DejaVuSans-40"/>
      <use x="318.556641" xlink:href="#DejaVuSans-115"/>
      <use x="370.65625" xlink:href="#DejaVuSans-41"/>
     </g>
    </g>
   </g>
   <g id="matplotlib.axis_2">
    <g id="ytick_1">
     <g id="line2d_6">
      <defs>
       <path d="M 0 0 
L -3.5 0 
" id="mee9750982b" style="stroke:#000000;stroke-width:0.8;"/>
      </defs>
      <g>
       <use style="stroke:#000000;stroke-width:0.8;" x="80.12" xlink:href="#mee9750982b" y="174.76"/>
      </g>
     </g>
     <g id="text_7">
      <!-- 0.00000 -->
      <g transform="translate(23.49625 179.319062)scale(0.12 -0.12)">
       <use xlink:href="#DejaVuSans-48"/>
       <use x="63.623047" xlink:href="#DejaVuSans-46"/>
       <use x="95.410156" xlink:href="#DejaVuSans-48"/>
       <use x="159.033203" xlink:href="#DejaVuSans-48"/>
       <use x="222.65625" xlink:href="#DejaVuSans-48"/>
       <use x="286.279297" xlink:href="#DejaVuSans-48"/>
       <use x="349.902344" xlink:href="#DejaVuSans-48"/>
      </g>
     </g>
    </g>
    <g id="ytick_2">
     <g id="line2d_7">
      <g>
       <use style="stroke:#000000;stroke-width:0.8;" x="80.12" xlink:href="#mee9750982b" y="148.919034"/>
      </g>
     </g>
     <g id="text_8">
      <!-- 0.00025 -->
      <g transform="translate(23.49625 153.478097)scale(0.12 -0.12)">
       <use xlink:href="#DejaVuSans-48"/>
       <use x="63.623047" xlink:href="#DejaVuSans-46"/>
       <use x="95.410156" xlink:href="#DejaVuSans-48"/>
       <use x="159.033203" xlink:href="#DejaVuSans-48"/>
       <use x="222.65625" xlink:href="#DejaVuSans-48"/>
       <use x="286.279297" xlink:href="#DejaVuSans-50"/>
       <use x="349.902344" xlink:href="#DejaVuSans-53"/>
      </g>
     </g>
    </g>
    <g id="ytick_3">
     <g id="line2d_8">
      <g>
       <use style="stroke:#000000;stroke-width:0.8;" x="80.12" xlink:href="#mee9750982b" y="123.078069"/>
      </g>
     </g>
     <g id="text_9">
      <!-- 0.00050 -->
      <g transform="translate(23.49625 127.637131)scale(0.12 -0.12)">
       <use xlink:href="#DejaVuSans-48"/>
       <use x="63.623047" xlink:href="#DejaVuSans-46"/>
       <use x="95.410156" xlink:href="#DejaVuSans-48"/>
       <use x="159.033203" xlink:href="#DejaVuSans-48"/>
       <use x="222.65625" xlink:href="#DejaVuSans-48"/>
       <use x="286.279297" xlink:href="#DejaVuSans-53"/>
       <use x="349.902344" xlink:href="#DejaVuSans-48"/>
      </g>
     </g>
    </g>
    <g id="ytick_4">
     <g id="line2d_9">
      <g>
       <use style="stroke:#000000;stroke-width:0.8;" x="80.12" xlink:href="#mee9750982b" y="97.237103"/>
      </g>
     </g>
     <g id="text_10">
      <!-- 0.00075 -->
      <defs>
       <path d="M 8.203125 72.90625 
L 55.078125 72.90625 
L 55.078125 68.703125 
L 28.609375 0 
L 18.3125 0 
L 43.21875 64.59375 
L 8.203125 64.59375 
z
" id="DejaVuSans-55"/>
      </defs>
      <g transform="translate(23.49625 101.796165)scale(0.12 -0.12)">
       <use xlink:href="#DejaVuSans-48"/>
       <use x="63.623047" xlink:href="#DejaVuSans-46"/>
       <use x="95.410156" xlink:href="#DejaVuSans-48"/>
       <use x="159.033203" xlink:href="#DejaVuSans-48"/>
       <use x="222.65625" xlink:href="#DejaVuSans-48"/>
       <use x="286.279297" xlink:href="#DejaVuSans-55"/>
       <use x="349.902344" xlink:href="#DejaVuSans-53"/>
      </g>
     </g>
    </g>
    <g id="ytick_5">
     <g id="line2d_10">
      <g>
       <use style="stroke:#000000;stroke-width:0.8;" x="80.12" xlink:href="#mee9750982b" y="71.396137"/>
      </g>
     </g>
     <g id="text_11">
      <!-- 0.00100 -->
      <g transform="translate(23.49625 75.9552)scale(0.12 -0.12)">
       <use xlink:href="#DejaVuSans-48"/>
       <use x="63.623047" xlink:href="#DejaVuSans-46"/>
       <use x="95.410156" xlink:href="#DejaVuSans-48"/>
       <use x="159.033203" xlink:href="#DejaVuSans-48"/>
       <use x="222.65625" xlink:href="#DejaVuSans-49"/>
       <use x="286.279297" xlink:href="#DejaVuSans-48"/>
       <use x="349.902344" xlink:href="#DejaVuSans-48"/>
      </g>
     </g>
    </g>
    <g id="ytick_6">
     <g id="line2d_11">
      <g>
       <use style="stroke:#000000;stroke-width:0.8;" x="80.12" xlink:href="#mee9750982b" y="45.555171"/>
      </g>
     </g>
     <g id="text_12">
      <!-- 0.00125 -->
      <g transform="translate(23.49625 50.114234)scale(0.12 -0.12)">
       <use xlink:href="#DejaVuSans-48"/>
       <use x="63.623047" xlink:href="#DejaVuSans-46"/>
       <use x="95.410156" xlink:href="#DejaVuSans-48"/>
       <use x="159.033203" xlink:href="#DejaVuSans-48"/>
       <use x="222.65625" xlink:href="#DejaVuSans-49"/>
       <use x="286.279297" xlink:href="#DejaVuSans-50"/>
       <use x="349.902344" xlink:href="#DejaVuSans-53"/>
      </g>
     </g>
    </g>
    <g id="text_13">
     <!-- Beta-bin $\rho$ -->
     <defs>
      <path d="M 19.671875 34.8125 
L 19.671875 8.109375 
L 35.5 8.109375 
Q 43.453125 8.109375 47.28125 11.40625 
Q 51.125 14.703125 51.125 21.484375 
Q 51.125 28.328125 47.28125 31.5625 
Q 43.453125 34.8125 35.5 34.8125 
z
M 19.671875 64.796875 
L 19.671875 42.828125 
L 34.28125 42.828125 
Q 41.5 42.828125 45.03125 45.53125 
Q 48.578125 48.25 48.578125 53.8125 
Q 48.578125 59.328125 45.03125 62.0625 
Q 41.5 64.796875 34.28125 64.796875 
z
M 9.8125 72.90625 
L 35.015625 72.90625 
Q 46.296875 72.90625 52.390625 68.21875 
Q 58.5 63.53125 58.5 54.890625 
Q 58.5 48.1875 55.375 44.234375 
Q 52.25 40.28125 46.1875 39.3125 
Q 53.46875 37.75 57.5 32.78125 
Q 61.53125 27.828125 61.53125 20.40625 
Q 61.53125 10.640625 54.890625 5.3125 
Q 48.25 0 35.984375 0 
L 9.8125 0 
z
" id="DejaVuSans-66"/>
      <path d="M 18.3125 70.21875 
L 18.3125 54.6875 
L 36.8125 54.6875 
L 36.8125 47.703125 
L 18.3125 47.703125 
L 18.3125 18.015625 
Q 18.3125 11.328125 20.140625 9.421875 
Q 21.96875 7.515625 27.59375 7.515625 
L 36.8125 7.515625 
L 36.8125 0 
L 27.59375 0 
Q 17.1875 0 13.234375 3.875 
Q 9.28125 7.765625 9.28125 18.015625 
L 9.28125 47.703125 
L 2.6875 47.703125 
L 2.6875 54.6875 
L 9.28125 54.6875 
L 9.28125 70.21875 
z
" id="DejaVuSans-116"/>
      <path d="M 34.28125 27.484375 
Q 23.390625 27.484375 19.1875 25 
Q 14.984375 22.515625 14.984375 16.5 
Q 14.984375 11.71875 18.140625 8.90625 
Q 21.296875 6.109375 26.703125 6.109375 
Q 34.1875 6.109375 38.703125 11.40625 
Q 43.21875 16.703125 43.21875 25.484375 
L 43.21875 27.484375 
z
M 52.203125 31.203125 
L 52.203125 0 
L 43.21875 0 
L 43.21875 8.296875 
Q 40.140625 3.328125 35.546875 0.953125 
Q 30.953125 -1.421875 24.3125 -1.421875 
Q 15.921875 -1.421875 10.953125 3.296875 
Q 6 8.015625 6 15.921875 
Q 6 25.140625 12.171875 29.828125 
Q 18.359375 34.515625 30.609375 34.515625 
L 43.21875 34.515625 
L 43.21875 35.40625 
Q 43.21875 41.609375 39.140625 45 
Q 35.0625 48.390625 27.6875 48.390625 
Q 23 48.390625 18.546875 47.265625 
Q 14.109375 46.140625 10.015625 43.890625 
L 10.015625 52.203125 
Q 14.9375 54.109375 19.578125 55.046875 
Q 24.21875 56 28.609375 56 
Q 40.484375 56 46.34375 49.84375 
Q 52.203125 43.703125 52.203125 31.203125 
z
" id="DejaVuSans-97"/>
      <path d="M 4.890625 31.390625 
L 31.203125 31.390625 
L 31.203125 23.390625 
L 4.890625 23.390625 
z
" id="DejaVuSans-45"/>
      <path d="M 48.6875 27.296875 
Q 48.6875 37.203125 44.609375 42.84375 
Q 40.53125 48.484375 33.40625 48.484375 
Q 26.265625 48.484375 22.1875 42.84375 
Q 18.109375 37.203125 18.109375 27.296875 
Q 18.109375 17.390625 22.1875 11.75 
Q 26.265625 6.109375 33.40625 6.109375 
Q 40.53125 6.109375 44.609375 11.75 
Q 48.6875 17.390625 48.6875 27.296875 
z
M 18.109375 46.390625 
Q 20.953125 51.265625 25.265625 53.625 
Q 29.59375 56 35.59375 56 
Q 45.5625 56 51.78125 48.09375 
Q 58.015625 40.1875 58.015625 27.296875 
Q 58.015625 14.40625 51.78125 6.484375 
Q 45.5625 -1.421875 35.59375 -1.421875 
Q 29.59375 -1.421875 25.265625 0.953125 
Q 20.953125 3.328125 18.109375 8.203125 
L 18.109375 0 
L 9.078125 0 
L 9.078125 75.984375 
L 18.109375 75.984375 
z
" id="DejaVuSans-98"/>
      <path d="M 54.890625 33.015625 
L 54.890625 0 
L 45.90625 0 
L 45.90625 32.71875 
Q 45.90625 40.484375 42.875 44.328125 
Q 39.84375 48.1875 33.796875 48.1875 
Q 26.515625 48.1875 22.3125 43.546875 
Q 18.109375 38.921875 18.109375 30.90625 
L 18.109375 0 
L 9.078125 0 
L 9.078125 54.6875 
L 18.109375 54.6875 
L 18.109375 46.1875 
Q 21.34375 51.125 25.703125 53.5625 
Q 30.078125 56 35.796875 56 
Q 45.21875 56 50.046875 50.171875 
Q 54.890625 44.34375 54.890625 33.015625 
z
" id="DejaVuSans-110"/>
      <path d="M 18.796875 44.921875 
Q 22.703125 49.90625 30.953125 54.296875 
Q 34.1875 56 43.0625 56 
Q 53.03125 56 57.71875 48.09375 
Q 62.40625 40.1875 59.90625 27.296875 
Q 57.375 14.40625 49.609375 6.484375 
Q 41.84375 -1.421875 31.890625 -1.421875 
Q 25.875 -1.421875 22.015625 0.984375 
Q 18.171875 3.328125 16.3125 8.203125 
L 10.640625 -20.796875 
L 1.609375 -20.796875 
L 10.890625 26.8125 
Q 13.09375 38.09375 18.796875 44.921875 
z
M 50.59375 27.296875 
Q 52.484375 37.203125 49.515625 42.875 
Q 46.53125 48.484375 39.40625 48.484375 
Q 32.28125 48.484375 27.09375 42.875 
Q 21.921875 37.203125 20.015625 27.296875 
Q 18.0625 17.390625 21.046875 11.71875 
Q 24.03125 6.109375 31.15625 6.109375 
Q 38.28125 6.109375 43.453125 11.71875 
Q 48.640625 17.390625 50.59375 27.296875 
z
" id="DejaVuSans-Oblique-961"/>
     </defs>
     <g transform="translate(16.47225 138.044)rotate(-90)scale(0.144 -0.144)">
      <use transform="translate(0 0.015625)" xlink:href="#DejaVuSans-66"/>
      <use transform="translate(68.603516 0.015625)" xlink:href="#DejaVuSans-101"/>
      <use transform="translate(130.126953 0.015625)" xlink:href="#DejaVuSans-116"/>
      <use transform="translate(169.335938 0.015625)" xlink:href="#DejaVuSans-97"/>
      <use transform="translate(230.615234 0.015625)" xlink:href="#DejaVuSans-45"/>
      <use transform="translate(266.699219 0.015625)" xlink:href="#DejaVuSans-98"/>
      <use transform="translate(330.175781 0.015625)" xlink:href="#DejaVuSans-105"/>
      <use transform="translate(357.958984 0.015625)" xlink:href="#DejaVuSans-110"/>
      <use transform="translate(421.337891 0.015625)" xlink:href="#DejaVuSans-32"/>
      <use transform="translate(453.125 0.015625)" xlink:href="#DejaVuSans-Oblique-961"/>
     </g>
    </g>
   </g>
   <g id="line2d_12">
    <path clip-path="url(#pb2ea4df1f2)" d="M 80.12 64.249917 
L 81.764339 56.846157 
L 83.408678 46.939786 
L 85.053017 54.122904 
L 86.697356 61.904201 
L 88.341695 62.922643 
L 89.986034 52.75291 
L 91.630373 54.150573 
L 93.274712 47.100678 
L 94.919051 50.563127 
L 96.56339 53.093511 
L 98.207729 55.057752 
L 99.852068 46.119823 
L 101.496407 54.245448 
L 103.140746 52.491856 
L 104.785085 54.363676 
L 106.429424 58.995664 
L 108.073763 53.034745 
L 109.718102 67.438748 
L 111.362441 54.644099 
L 113.00678 73.824995 
L 114.651119 56.542659 
L 116.295458 61.40051 
L 117.939797 64.943976 
L 119.584136 57.982781 
L 121.228475 55.436672 
L 122.872814 60.855036 
L 124.517153 58.858414 
L 126.161492 52.222835 
L 127.805831 51.792538 
L 129.450169 68.394309 
L 131.094508 54.463042 
L 132.738847 61.893905 
L 134.383186 64.970443 
L 136.027525 54.370741 
L 137.671864 62.148839 
L 139.316203 54.13941 
L 140.960542 56.102796 
L 142.604881 70.016968 
L 144.24922 62.713587 
L 145.893559 50.670736 
L 147.537898 58.92414 
L 149.182237 61.262863 
L 150.826576 63.255259 
L 152.470915 57.165992 
L 154.115254 52.926476 
L 155.759593 58.919362 
L 157.403932 53.250988 
L 159.048271 49.941601 
L 160.69261 71.271383 
L 162.336949 59.348811 
L 163.981288 56.285743 
L 165.625627 56.032444 
L 167.269966 53.018077 
L 168.914305 54.669527 
L 170.558644 55.040685 
L 172.202983 62.433982 
L 173.847322 63.256211 
L 175.491661 54.243613 
L 177.136 66.009181 
L 178.780339 53.281029 
L 180.424678 50.004029 
L 182.069017 59.273189 
L 183.713356 56.501187 
L 185.357695 61.099721 
L 187.002034 54.857159 
L 188.646373 58.270898 
L 190.290712 65.041737 
L 191.935051 59.991257 
L 193.57939 60.539226 
L 195.223729 70.005561 
L 196.868068 57.256861 
L 198.512407 55.668308 
L 200.156746 58.37943 
L 201.801085 61.826155 
L 203.445424 59.516178 
L 205.089763 63.844923 
L 206.734102 57.176398 
L 208.378441 51.240895 
L 210.02278 57.397166 
L 211.667119 53.78957 
L 213.311458 58.645595 
L 214.955797 64.704677 
L 216.600136 62.972857 
L 218.244475 62.040964 
L 219.888814 59.328069 
L 221.533153 55.798003 
L 223.177492 57.64209 
L 224.821831 56.456469 
L 226.466169 53.8835 
L 228.110508 54.331951 
L 229.754847 56.090657 
L 231.399186 49.639419 
L 233.043525 37.747267 
L 234.687864 36.463936 
L 236.332203 36.544949 
L 237.976542 37.452091 
L 239.620881 47.718844 
L 241.26522 49.045808 
L 242.909559 52.946001 
L 244.553898 49.445985 
L 247.842576 51.133198 
L 249.486915 59.385353 
L 251.131254 57.504279 
L 252.775593 65.020995 
L 254.419932 61.057769 
L 256.064271 68.851241 
L 257.70861 64.197406 
L 259.352949 54.657979 
L 260.997288 59.829901 
L 262.641627 62.09754 
L 264.285966 65.579163 
L 265.930305 47.178557 
L 267.574644 56.656514 
L 269.218983 56.827574 
L 270.863322 60.367451 
L 272.507661 52.222754 
L 274.152 47.729883 
L 275.796339 54.656365 
L 277.440678 55.980888 
L 279.085017 51.613515 
L 280.729356 56.122546 
L 282.373695 65.69914 
L 284.018034 62.529809 
L 285.662373 71.488926 
L 287.306712 60.46916 
L 288.951051 66.97344 
L 290.59539 61.772208 
L 292.239729 69.949898 
L 293.884068 54.715225 
L 295.528407 57.342469 
L 297.172746 58.70651 
L 298.817085 66.736963 
L 302.105763 59.537901 
L 303.750102 57.836617 
L 305.394441 70.548698 
L 307.03878 60.863015 
L 308.683119 59.172551 
L 310.327458 50.474586 
L 311.971797 62.225599 
L 313.616136 56.552459 
L 315.260475 60.430821 
L 316.904814 53.463567 
L 318.549153 52.144202 
L 320.193492 57.001134 
L 321.837831 58.067545 
L 323.482169 52.304483 
L 325.126508 57.438873 
L 326.770847 66.165805 
L 328.415186 54.661221 
L 330.059525 58.87109 
L 331.703864 49.715634 
L 333.348203 51.560471 
L 334.992542 61.251562 
L 336.636881 59.923328 
L 338.28122 54.437791 
L 339.925559 64.514274 
L 341.569898 61.1944 
L 343.214237 48.698345 
L 344.858576 47.956623 
L 346.502915 58.27957 
L 348.147254 54.854319 
L 349.791593 61.774049 
L 351.435932 47.646831 
L 353.080271 62.892198 
L 354.72461 47.54042 
L 356.368949 63.996832 
L 358.013288 53.617089 
L 359.657627 57.194452 
L 361.301966 60.227085 
L 362.946305 60.433156 
L 364.590644 67.508094 
L 366.234983 69.067835 
L 367.879322 55.819467 
L 369.523661 64.06943 
L 371.168 55.129108 
L 372.812339 55.335679 
L 374.456678 65.700887 
L 376.101017 56.590358 
L 377.745356 58.399908 
L 379.389695 50.209731 
L 381.034034 64.356615 
L 382.678373 54.167201 
L 384.322712 58.997293 
L 385.967051 59.947332 
L 387.61139 59.864671 
L 389.255729 43.557748 
L 392.544407 65.539113 
L 394.188746 65.372992 
L 395.833085 55.560644 
L 397.477424 56.786588 
L 399.121763 63.327607 
L 400.766102 60.191428 
L 402.410441 60.835501 
L 404.05478 57.505215 
L 405.699119 52.883869 
L 407.343458 55.514715 
L 408.987797 55.808328 
L 410.632136 41.611977 
L 412.276475 50.245693 
L 413.920814 44.126995 
L 415.565153 50.143724 
L 417.209492 50.752098 
L 420.498169 48.739257 
L 422.142508 50.216814 
L 423.786847 65.173335 
L 425.431186 52.765304 
L 427.075525 71.494982 
L 428.719864 59.937354 
L 430.364203 62.192818 
L 432.008542 63.173767 
L 433.652881 59.379961 
L 435.29722 66.405134 
L 436.941559 58.522447 
L 438.585898 56.002601 
L 440.230237 58.71784 
L 441.874576 59.324173 
L 443.518915 58.848293 
L 445.163254 56.412853 
L 446.807593 54.75055 
L 448.451932 64.375262 
L 450.096271 52.686684 
L 451.74061 61.498204 
L 453.384949 53.571373 
L 455.029288 48.537604 
L 456.673627 53.044759 
L 458.317966 58.389777 
L 459.962305 57.146296 
L 461.606644 50.106006 
L 463.250983 53.025483 
L 464.895322 41.766317 
L 466.539661 56.70789 
L 468.184 52.94184 
L 469.828339 45.528508 
L 471.472678 49.662317 
L 473.117017 52.919473 
L 474.761356 51.596044 
L 476.405695 54.819941 
L 478.050034 59.415869 
L 479.694373 49.757654 
L 481.338712 57.334708 
L 482.983051 58.32287 
L 484.62739 57.582164 
L 486.271729 57.855961 
L 487.916068 56.852456 
L 489.560407 45.23494 
L 491.204746 55.135896 
L 492.849085 59.247093 
L 494.493424 52.440188 
L 496.137763 61.661564 
L 497.782102 55.47347 
L 499.426441 62.964899 
L 501.07078 69.439031 
L 502.715119 54.113317 
L 504.359458 59.550773 
L 506.003797 41.406172 
L 507.648136 46.83232 
L 509.292475 49.101083 
L 510.936814 62.635722 
L 512.581153 54.907729 
L 514.225492 50.302129 
L 515.869831 53.343917 
L 517.514169 48.049969 
L 519.158508 59.726559 
L 520.802847 57.448289 
L 522.447186 65.093846 
L 524.091525 48.641307 
L 525.735864 62.191264 
L 527.380203 54.360895 
L 529.024542 42.46031 
L 532.31322 43.590075 
L 535.601898 50.327695 
L 537.246237 45.830133 
L 538.890576 61.533315 
L 540.534915 54.287629 
L 542.179254 51.803173 
L 543.823593 56.93986 
L 545.467932 57.970756 
L 547.112271 57.561414 
L 548.75661 57.812202 
L 550.400949 51.636611 
L 552.045288 54.3319 
L 553.689627 60.471681 
L 555.333966 57.545859 
L 556.978305 68.144894 
L 558.622644 60.294136 
L 560.266983 47.027667 
L 561.911322 65.770316 
L 563.555661 58.04027 
L 565.2 59.272988 
L 565.2 59.272988 
" style="fill:none;stroke:#0000ff;stroke-linecap:square;stroke-width:1.5;"/>
   </g>
   <g id="patch_3">
    <path d="M 80.12 174.76 
L 80.12 26.88 
" style="fill:none;stroke:#000000;stroke-linecap:square;stroke-linejoin:miter;stroke-width:0.8;"/>
   </g>
   <g id="patch_4">
    <path d="M 565.2 174.76 
L 565.2 26.88 
" style="fill:none;stroke:#000000;stroke-linecap:square;stroke-linejoin:miter;stroke-width:0.8;"/>
   </g>
   <g id="patch_5">
    <path d="M 80.12 174.76 
L 565.2 174.76 
" style="fill:none;stroke:#000000;stroke-linecap:square;stroke-linejoin:miter;stroke-width:0.8;"/>
   </g>
   <g id="patch_6">
    <path d="M 80.12 26.88 
L 565.2 26.88 
" style="fill:none;stroke:#000000;stroke-linecap:square;stroke-linejoin:miter;stroke-width:0.8;"/>
   </g>
   <g id="text_14">
    <!-- Striatum, Num Trials=160 All stimulated trials, Num cells = 351 -->
    <defs>
     <path d="M 53.515625 70.515625 
L 53.515625 60.890625 
Q 47.90625 63.578125 42.921875 64.890625 
Q 37.9375 66.21875 33.296875 66.21875 
Q 25.25 66.21875 20.875 63.09375 
Q 16.5 59.96875 16.5 54.203125 
Q 16.5 49.359375 19.40625 46.890625 
Q 22.3125 44.4375 30.421875 42.921875 
L 36.375 41.703125 
Q 47.40625 39.59375 52.65625 34.296875 
Q 57.90625 29 57.90625 20.125 
Q 57.90625 9.515625 50.796875 4.046875 
Q 43.703125 -1.421875 29.984375 -1.421875 
Q 24.8125 -1.421875 18.96875 -0.25 
Q 13.140625 0.921875 6.890625 3.21875 
L 6.890625 13.375 
Q 12.890625 10.015625 18.65625 8.296875 
Q 24.421875 6.59375 29.984375 6.59375 
Q 38.421875 6.59375 43.015625 9.90625 
Q 47.609375 13.234375 47.609375 19.390625 
Q 47.609375 24.75 44.3125 27.78125 
Q 41.015625 30.8125 33.5 32.328125 
L 27.484375 33.5 
Q 16.453125 35.6875 11.515625 40.375 
Q 6.59375 45.0625 6.59375 53.421875 
Q 6.59375 63.09375 13.40625 68.65625 
Q 20.21875 74.21875 32.171875 74.21875 
Q 37.3125 74.21875 42.625 73.28125 
Q 47.953125 72.359375 53.515625 70.515625 
z
" id="DejaVuSans-83"/>
     <path d="M 41.109375 46.296875 
Q 39.59375 47.171875 37.8125 47.578125 
Q 36.03125 48 33.890625 48 
Q 26.265625 48 22.1875 43.046875 
Q 18.109375 38.09375 18.109375 28.8125 
L 18.109375 0 
L 9.078125 0 
L 9.078125 54.6875 
L 18.109375 54.6875 
L 18.109375 46.1875 
Q 20.953125 51.171875 25.484375 53.578125 
Q 30.03125 56 36.53125 56 
Q 37.453125 56 38.578125 55.875 
Q 39.703125 55.765625 41.0625 55.515625 
z
" id="DejaVuSans-114"/>
     <path d="M 8.5 21.578125 
L 8.5 54.6875 
L 17.484375 54.6875 
L 17.484375 21.921875 
Q 17.484375 14.15625 20.5 10.265625 
Q 23.53125 6.390625 29.59375 6.390625 
Q 36.859375 6.390625 41.078125 11.03125 
Q 45.3125 15.671875 45.3125 23.6875 
L 45.3125 54.6875 
L 54.296875 54.6875 
L 54.296875 0 
L 45.3125 0 
L 45.3125 8.40625 
Q 42.046875 3.421875 37.71875 1 
Q 33.40625 -1.421875 27.6875 -1.421875 
Q 18.265625 -1.421875 13.375 4.4375 
Q 8.5 10.296875 8.5 21.578125 
z
M 31.109375 56 
z
" id="DejaVuSans-117"/>
     <path d="M 11.71875 12.40625 
L 22.015625 12.40625 
L 22.015625 4 
L 14.015625 -11.625 
L 7.71875 -11.625 
L 11.71875 4 
z
" id="DejaVuSans-44"/>
     <path d="M 9.8125 72.90625 
L 23.09375 72.90625 
L 55.421875 11.921875 
L 55.421875 72.90625 
L 64.984375 72.90625 
L 64.984375 0 
L 51.703125 0 
L 19.390625 60.984375 
L 19.390625 0 
L 9.8125 0 
z
" id="DejaVuSans-78"/>
     <path d="M 9.421875 75.984375 
L 18.40625 75.984375 
L 18.40625 0 
L 9.421875 0 
z
" id="DejaVuSans-108"/>
     <path d="M 10.59375 45.40625 
L 73.1875 45.40625 
L 73.1875 37.203125 
L 10.59375 37.203125 
z
M 10.59375 25.484375 
L 73.1875 25.484375 
L 73.1875 17.1875 
L 10.59375 17.1875 
z
" id="DejaVuSans-61"/>
     <path d="M 33.015625 40.375 
Q 26.375 40.375 22.484375 35.828125 
Q 18.609375 31.296875 18.609375 23.390625 
Q 18.609375 15.53125 22.484375 10.953125 
Q 26.375 6.390625 33.015625 6.390625 
Q 39.65625 6.390625 43.53125 10.953125 
Q 47.40625 15.53125 47.40625 23.390625 
Q 47.40625 31.296875 43.53125 35.828125 
Q 39.65625 40.375 33.015625 40.375 
z
M 52.59375 71.296875 
L 52.59375 62.3125 
Q 48.875 64.0625 45.09375 64.984375 
Q 41.3125 65.921875 37.59375 65.921875 
Q 27.828125 65.921875 22.671875 59.328125 
Q 17.53125 52.734375 16.796875 39.40625 
Q 19.671875 43.65625 24.015625 45.921875 
Q 28.375 48.1875 33.59375 48.1875 
Q 44.578125 48.1875 50.953125 41.515625 
Q 57.328125 34.859375 57.328125 23.390625 
Q 57.328125 12.15625 50.6875 5.359375 
Q 44.046875 -1.421875 33.015625 -1.421875 
Q 20.359375 -1.421875 13.671875 8.265625 
Q 6.984375 17.96875 6.984375 36.375 
Q 6.984375 53.65625 15.1875 63.9375 
Q 23.390625 74.21875 37.203125 74.21875 
Q 40.921875 74.21875 44.703125 73.484375 
Q 48.484375 72.75 52.59375 71.296875 
z
" id="DejaVuSans-54"/>
     <path d="M 34.1875 63.1875 
L 20.796875 26.90625 
L 47.609375 26.90625 
z
M 28.609375 72.90625 
L 39.796875 72.90625 
L 67.578125 0 
L 57.328125 0 
L 50.6875 18.703125 
L 17.828125 18.703125 
L 11.1875 0 
L 0.78125 0 
z
" id="DejaVuSans-65"/>
     <path d="M 45.40625 46.390625 
L 45.40625 75.984375 
L 54.390625 75.984375 
L 54.390625 0 
L 45.40625 0 
L 45.40625 8.203125 
Q 42.578125 3.328125 38.25 0.953125 
Q 33.9375 -1.421875 27.875 -1.421875 
Q 17.96875 -1.421875 11.734375 6.484375 
Q 5.515625 14.40625 5.515625 27.296875 
Q 5.515625 40.1875 11.734375 48.09375 
Q 17.96875 56 27.875 56 
Q 33.9375 56 38.25 53.625 
Q 42.578125 51.265625 45.40625 46.390625 
z
M 14.796875 27.296875 
Q 14.796875 17.390625 18.875 11.75 
Q 22.953125 6.109375 30.078125 6.109375 
Q 37.203125 6.109375 41.296875 11.75 
Q 45.40625 17.390625 45.40625 27.296875 
Q 45.40625 37.203125 41.296875 42.84375 
Q 37.203125 48.484375 30.078125 48.484375 
Q 22.953125 48.484375 18.875 42.84375 
Q 14.796875 37.203125 14.796875 27.296875 
z
" id="DejaVuSans-100"/>
     <path d="M 48.78125 52.59375 
L 48.78125 44.1875 
Q 44.96875 46.296875 41.140625 47.34375 
Q 37.3125 48.390625 33.40625 48.390625 
Q 24.65625 48.390625 19.8125 42.84375 
Q 14.984375 37.3125 14.984375 27.296875 
Q 14.984375 17.28125 19.8125 11.734375 
Q 24.65625 6.203125 33.40625 6.203125 
Q 37.3125 6.203125 41.140625 7.25 
Q 44.96875 8.296875 48.78125 10.40625 
L 48.78125 2.09375 
Q 45.015625 0.34375 40.984375 -0.53125 
Q 36.96875 -1.421875 32.421875 -1.421875 
Q 20.0625 -1.421875 12.78125 6.34375 
Q 5.515625 14.109375 5.515625 27.296875 
Q 5.515625 40.671875 12.859375 48.328125 
Q 20.21875 56 33.015625 56 
Q 37.15625 56 41.109375 55.140625 
Q 45.0625 54.296875 48.78125 52.59375 
z
" id="DejaVuSans-99"/>
     <path d="M 40.578125 39.3125 
Q 47.65625 37.796875 51.625 33 
Q 55.609375 28.21875 55.609375 21.1875 
Q 55.609375 10.40625 48.1875 4.484375 
Q 40.765625 -1.421875 27.09375 -1.421875 
Q 22.515625 -1.421875 17.65625 -0.515625 
Q 12.796875 0.390625 7.625 2.203125 
L 7.625 11.71875 
Q 11.71875 9.328125 16.59375 8.109375 
Q 21.484375 6.890625 26.8125 6.890625 
Q 36.078125 6.890625 40.9375 10.546875 
Q 45.796875 14.203125 45.796875 21.1875 
Q 45.796875 27.640625 41.28125 31.265625 
Q 36.765625 34.90625 28.71875 34.90625 
L 20.21875 34.90625 
L 20.21875 43.015625 
L 29.109375 43.015625 
Q 36.375 43.015625 40.234375 45.921875 
Q 44.09375 48.828125 44.09375 54.296875 
Q 44.09375 59.90625 40.109375 62.90625 
Q 36.140625 65.921875 28.71875 65.921875 
Q 24.65625 65.921875 20.015625 65.03125 
Q 15.375 64.15625 9.8125 62.3125 
L 9.8125 71.09375 
Q 15.4375 72.65625 20.34375 73.4375 
Q 25.25 74.21875 29.59375 74.21875 
Q 40.828125 74.21875 47.359375 69.109375 
Q 53.90625 64.015625 53.90625 55.328125 
Q 53.90625 49.265625 50.4375 45.09375 
Q 46.96875 40.921875 40.578125 39.3125 
z
" id="DejaVuSans-51"/>
    </defs>
    <g transform="translate(130.395625 20.88)scale(0.12 -0.12)">
     <use xlink:href="#DejaVuSans-83"/>
     <use x="63.476562" xlink:href="#DejaVuSans-116"/>
     <use x="102.685547" xlink:href="#DejaVuSans-114"/>
     <use x="143.798828" xlink:href="#DejaVuSans-105"/>
     <use x="171.582031" xlink:href="#DejaVuSans-97"/>
     <use x="232.861328" xlink:href="#DejaVuSans-116"/>
     <use x="272.070312" xlink:href="#DejaVuSans-117"/>
     <use x="335.449219" xlink:href="#DejaVuSans-109"/>
     <use x="432.861328" xlink:href="#DejaVuSans-44"/>
     <use x="464.648438" xlink:href="#DejaVuSans-32"/>
     <use x="496.435547" xlink:href="#DejaVuSans-78"/>
     <use x="571.240234" xlink:href="#DejaVuSans-117"/>
     <use x="634.619141" xlink:href="#DejaVuSans-109"/>
     <use x="732.03125" xlink:href="#DejaVuSans-32"/>
     <use x="763.818359" xlink:href="#DejaVuSans-84"/>
     <use x="824.683594" xlink:href="#DejaVuSans-114"/>
     <use x="865.796875" xlink:href="#DejaVuSans-105"/>
     <use x="893.580078" xlink:href="#DejaVuSans-97"/>
     <use x="954.859375" xlink:href="#DejaVuSans-108"/>
     <use x="982.642578" xlink:href="#DejaVuSans-115"/>
     <use x="1034.742188" xlink:href="#DejaVuSans-61"/>
     <use x="1118.53125" xlink:href="#DejaVuSans-49"/>
     <use x="1182.154297" xlink:href="#DejaVuSans-54"/>
     <use x="1245.777344" xlink:href="#DejaVuSans-48"/>
     <use x="1309.400391" xlink:href="#DejaVuSans-32"/>
     <use x="1341.1875" xlink:href="#DejaVuSans-65"/>
     <use x="1409.595703" xlink:href="#DejaVuSans-108"/>
     <use x="1437.378906" xlink:href="#DejaVuSans-108"/>
     <use x="1465.162109" xlink:href="#DejaVuSans-32"/>
     <use x="1496.949219" xlink:href="#DejaVuSans-115"/>
     <use x="1549.048828" xlink:href="#DejaVuSans-116"/>
     <use x="1588.257812" xlink:href="#DejaVuSans-105"/>
     <use x="1616.041016" xlink:href="#DejaVuSans-109"/>
     <use x="1713.453125" xlink:href="#DejaVuSans-117"/>
     <use x="1776.832031" xlink:href="#DejaVuSans-108"/>
     <use x="1804.615234" xlink:href="#DejaVuSans-97"/>
     <use x="1865.894531" xlink:href="#DejaVuSans-116"/>
     <use x="1905.103516" xlink:href="#DejaVuSans-101"/>
     <use x="1966.626953" xlink:href="#DejaVuSans-100"/>
     <use x="2030.103516" xlink:href="#DejaVuSans-32"/>
     <use x="2061.890625" xlink:href="#DejaVuSans-116"/>
     <use x="2101.099609" xlink:href="#DejaVuSans-114"/>
     <use x="2142.212891" xlink:href="#DejaVuSans-105"/>
     <use x="2169.996094" xlink:href="#DejaVuSans-97"/>
     <use x="2231.275391" xlink:href="#DejaVuSans-108"/>
     <use x="2259.058594" xlink:href="#DejaVuSans-115"/>
     <use x="2311.158203" xlink:href="#DejaVuSans-44"/>
     <use x="2342.945312" xlink:href="#DejaVuSans-32"/>
     <use x="2374.732422" xlink:href="#DejaVuSans-78"/>
     <use x="2449.537109" xlink:href="#DejaVuSans-117"/>
     <use x="2512.916016" xlink:href="#DejaVuSans-109"/>
     <use x="2610.328125" xlink:href="#DejaVuSans-32"/>
     <use x="2642.115234" xlink:href="#DejaVuSans-99"/>
     <use x="2697.095703" xlink:href="#DejaVuSans-101"/>
     <use x="2758.619141" xlink:href="#DejaVuSans-108"/>
     <use x="2786.402344" xlink:href="#DejaVuSans-108"/>
     <use x="2814.185547" xlink:href="#DejaVuSans-115"/>
     <use x="2866.285156" xlink:href="#DejaVuSans-32"/>
     <use x="2898.072266" xlink:href="#DejaVuSans-61"/>
     <use x="2981.861328" xlink:href="#DejaVuSans-32"/>
     <use x="3013.648438" xlink:href="#DejaVuSans-51"/>
     <use x="3077.271484" xlink:href="#DejaVuSans-53"/>
     <use x="3140.894531" xlink:href="#DejaVuSans-49"/>
    </g>
   </g>
   <g id="legend_1">
    <g id="patch_7">
     <path d="M 88.52 168.76 
L 222.68 168.76 
Q 225.08 168.76 225.08 166.36 
L 225.08 132.30625 
Q 225.08 129.90625 222.68 129.90625 
L 88.52 129.90625 
Q 86.12 129.90625 86.12 132.30625 
L 86.12 166.36 
Q 86.12 168.76 88.52 168.76 
z
" style="fill:#ffffff;opacity:0.8;stroke:#cccccc;stroke-linejoin:miter;"/>
    </g>
    <g id="line2d_13">
     <path d="M 90.92 139.62625 
L 114.92 139.62625 
" style="fill:none;stroke:#0000ff;stroke-linecap:square;stroke-width:1.5;"/>
    </g>
    <g id="line2d_14"/>
    <g id="text_15">
     <!-- Beta-Binomial $\rho$ -->
     <defs>
      <path d="M 30.609375 48.390625 
Q 23.390625 48.390625 19.1875 42.75 
Q 14.984375 37.109375 14.984375 27.296875 
Q 14.984375 17.484375 19.15625 11.84375 
Q 23.34375 6.203125 30.609375 6.203125 
Q 37.796875 6.203125 41.984375 11.859375 
Q 46.1875 17.53125 46.1875 27.296875 
Q 46.1875 37.015625 41.984375 42.703125 
Q 37.796875 48.390625 30.609375 48.390625 
z
M 30.609375 56 
Q 42.328125 56 49.015625 48.375 
Q 55.71875 40.765625 55.71875 27.296875 
Q 55.71875 13.875 49.015625 6.21875 
Q 42.328125 -1.421875 30.609375 -1.421875 
Q 18.84375 -1.421875 12.171875 6.21875 
Q 5.515625 13.875 5.515625 27.296875 
Q 5.515625 40.765625 12.171875 48.375 
Q 18.84375 56 30.609375 56 
z
" id="DejaVuSans-111"/>
     </defs>
     <g transform="translate(124.52 143.82625)scale(0.12 -0.12)">
      <use transform="translate(0 0.015625)" xlink:href="#DejaVuSans-66"/>
      <use transform="translate(68.603516 0.015625)" xlink:href="#DejaVuSans-101"/>
      <use transform="translate(130.126953 0.015625)" xlink:href="#DejaVuSans-116"/>
      <use transform="translate(169.335938 0.015625)" xlink:href="#DejaVuSans-97"/>
      <use transform="translate(230.615234 0.015625)" xlink:href="#DejaVuSans-45"/>
      <use transform="translate(266.699219 0.015625)" xlink:href="#DejaVuSans-66"/>
      <use transform="translate(335.302734 0.015625)" xlink:href="#DejaVuSans-105"/>
      <use transform="translate(363.085938 0.015625)" xlink:href="#DejaVuSans-110"/>
      <use transform="translate(426.464844 0.015625)" xlink:href="#DejaVuSans-111"/>
      <use transform="translate(487.646484 0.015625)" xlink:href="#DejaVuSans-109"/>
      <use transform="translate(585.058594 0.015625)" xlink:href="#DejaVuSans-105"/>
      <use transform="translate(612.841797 0.015625)" xlink:href="#DejaVuSans-97"/>
      <use transform="translate(674.121094 0.015625)" xlink:href="#DejaVuSans-108"/>
      <use transform="translate(701.904297 0.015625)" xlink:href="#DejaVuSans-32"/>
      <use transform="translate(733.691406 0.015625)" xlink:href="#DejaVuSans-Oblique-961"/>
     </g>
    </g>
    <g id="patch_8">
     <path d="M 90.92 161.464375 
L 114.92 161.464375 
L 114.92 153.064375 
L 90.92 153.064375 
z
" style="fill:#0000ff;opacity:0.3;stroke:#0000ff;stroke-linejoin:miter;"/>
    </g>
    <g id="text_16">
     <!-- Std. Err. -->
     <defs>
      <path d="M 9.8125 72.90625 
L 55.90625 72.90625 
L 55.90625 64.59375 
L 19.671875 64.59375 
L 19.671875 43.015625 
L 54.390625 43.015625 
L 54.390625 34.71875 
L 19.671875 34.71875 
L 19.671875 8.296875 
L 56.78125 8.296875 
L 56.78125 0 
L 9.8125 0 
z
" id="DejaVuSans-69"/>
     </defs>
     <g transform="translate(124.52 161.464375)scale(0.12 -0.12)">
      <use xlink:href="#DejaVuSans-83"/>
      <use x="63.476562" xlink:href="#DejaVuSans-116"/>
      <use x="102.685547" xlink:href="#DejaVuSans-100"/>
      <use x="166.162109" xlink:href="#DejaVuSans-46"/>
      <use x="197.949219" xlink:href="#DejaVuSans-32"/>
      <use x="229.736328" xlink:href="#DejaVuSans-69"/>
      <use x="292.919922" xlink:href="#DejaVuSans-114"/>
      <use x="334.017578" xlink:href="#DejaVuSans-114"/>
      <use x="374.990234" xlink:href="#DejaVuSans-46"/>
     </g>
    </g>
   </g>
  </g>
 </g>
 <defs>
  <clipPath id="pb2ea4df1f2">
   <rect height="147.88" width="485.08" x="80.12" y="26.88"/>
  </clipPath>
 </defs>
</svg>
