<?xml version="1.0" encoding="utf-8" standalone="no"?>
<!DOCTYPE svg PUBLIC "-//W3C//DTD SVG 1.1//EN"
  "http://www.w3.org/Graphics/SVG/1.1/DTD/svg11.dtd">
<!-- Created with matplotlib (https://matplotlib.org/) -->
<svg height="223.2pt" version="1.1" viewBox="0 0 576 223.2" width="576pt" xmlns="http://www.w3.org/2000/svg" xmlns:xlink="http://www.w3.org/1999/xlink">
 <defs>
  <style type="text/css">
*{stroke-linecap:butt;stroke-linejoin:round;}
  </style>
 </defs>
 <g id="figure_1">
  <g id="patch_1">
   <path d="M 0 223.2 
L 576 223.2 
L 576 0 
L 0 0 
z
" style="fill:#ffffff;"/>
  </g>
  <g id="axes_1">
   <g id="patch_2">
    <path d="M 54.47 174.76 
L 565.2 174.76 
L 565.2 26.88 
L 54.47 26.88 
z
" style="fill:#ffffff;"/>
   </g>
   <g id="PolyCollection_1">
    <defs>
     <path d="M 117.106698 -48.44 
L 117.106698 -196.32 
L 406.199151 -196.32 
L 406.199151 -48.44 
L 406.199151 -48.44 
L 117.106698 -48.44 
z
" id="mba319d0491" style="stroke:#808080;stroke-opacity:0.3;"/>
    </defs>
    <g clip-path="url(#p3c05fff64a)">
     <use style="fill:#808080;fill-opacity:0.3;stroke:#808080;stroke-opacity:0.3;" x="0" xlink:href="#mba319d0491" y="223.2"/>
    </g>
   </g>
   <g id="PolyCollection_2">
    <defs>
     <path d="M 54.47 -172.898961 
L 54.47 -131.169794 
L 56.397283 -131.854963 
L 58.324566 -130.06029 
L 60.251849 -129.112637 
L 62.179132 -129.777214 
L 64.106415 -128.796508 
L 66.033698 -129.59873 
L 67.960981 -130.17672 
L 69.888264 -131.812685 
L 71.815547 -136.007073 
L 73.74283 -134.775309 
L 75.670113 -138.603165 
L 77.597396 -137.265395 
L 79.524679 -132.605108 
L 81.451962 -132.02575 
L 83.379245 -132.066854 
L 85.306528 -134.5583 
L 87.233811 -134.083965 
L 89.161094 -135.819968 
L 91.088377 -133.396727 
L 93.01566 -132.291928 
L 94.942943 -131.051075 
L 96.870226 -132.062762 
L 98.797509 -132.670088 
L 100.724792 -134.562577 
L 102.652075 -136.451507 
L 104.579358 -138.423182 
L 106.506642 -138.834202 
L 108.433925 -138.389907 
L 110.361208 -136.495402 
L 112.288491 -134.90716 
L 114.215774 -131.537461 
L 116.143057 -134.050213 
L 118.07034 -135.811505 
L 119.997623 -133.912268 
L 121.924906 -132.16952 
L 123.852189 -134.178247 
L 125.779472 -134.359482 
L 127.706755 -135.627357 
L 129.634038 -136.63169 
L 131.561321 -136.095315 
L 133.488604 -135.154919 
L 135.415887 -135.692889 
L 137.34317 -137.516704 
L 139.270453 -137.658738 
L 141.197736 -136.545589 
L 143.125019 -133.897685 
L 145.052302 -132.750245 
L 146.979585 -130.097082 
L 148.906868 -130.191762 
L 150.834151 -129.818173 
L 152.761434 -125.380098 
L 154.688717 -125.044136 
L 156.616 -128.049415 
L 158.543283 -126.59993 
L 160.470566 -127.211834 
L 162.397849 -126.474019 
L 164.325132 -127.970224 
L 166.252415 -127.520181 
L 168.179698 -127.514355 
L 170.106981 -130.766412 
L 172.034264 -130.789196 
L 173.961547 -130.652966 
L 175.88883 -127.715808 
L 177.816113 -126.331933 
L 179.743396 -126.380937 
L 181.670679 -124.215802 
L 183.597962 -127.160331 
L 185.525245 -127.719899 
L 187.452528 -128.248546 
L 189.379811 -128.231538 
L 191.307094 -126.969307 
L 193.234377 -128.467433 
L 195.16166 -128.491472 
L 197.088943 -129.907115 
L 199.016226 -131.642249 
L 200.943509 -132.295325 
L 202.870792 -133.987728 
L 204.798075 -135.204608 
L 206.725358 -135.463448 
L 208.652642 -135.828315 
L 210.579925 -135.915102 
L 212.507208 -137.110435 
L 214.434491 -136.507507 
L 216.361774 -134.653352 
L 218.289057 -131.791759 
L 220.21634 -133.448173 
L 222.143623 -133.608474 
L 224.070906 -137.148552 
L 225.998189 -136.332378 
L 227.925472 -136.535134 
L 229.852755 -139.36722 
L 231.780038 -139.611488 
L 233.707321 -140.430435 
L 235.634604 -142.39507 
L 237.561887 -142.555927 
L 239.48917 -136.903419 
L 241.416453 -134.011461 
L 243.343736 -133.715388 
L 245.271019 -131.683763 
L 247.198302 -131.37833 
L 249.125585 -132.419003 
L 251.052868 -132.373431 
L 252.980151 -133.592024 
L 254.907434 -134.758456 
L 256.834717 -134.265642 
L 258.762 -136.971286 
L 260.689283 -137.542094 
L 262.616566 -140.409613 
L 264.543849 -142.946336 
L 266.471132 -143.491999 
L 268.398415 -143.891758 
L 270.325698 -141.866156 
L 272.252981 -142.342075 
L 274.180264 -141.567258 
L 276.107547 -141.971119 
L 278.03483 -143.148739 
L 279.962113 -143.118769 
L 281.889396 -144.332288 
L 283.816679 -144.842324 
L 285.743962 -147.252037 
L 287.671245 -151.599777 
L 289.598528 -148.266263 
L 291.525811 -145.502681 
L 293.453094 -147.111596 
L 295.380377 -148.817378 
L 297.30766 -148.603261 
L 299.234943 -150.198164 
L 301.162226 -153.27585 
L 303.089509 -153.906023 
L 305.016792 -156.458787 
L 306.944075 -156.995359 
L 308.871358 -158.090379 
L 310.798642 -156.353199 
L 312.725925 -152.395784 
L 314.653208 -155.518733 
L 316.580491 -158.75856 
L 318.507774 -159.96926 
L 320.435057 -161.270526 
L 322.36234 -165.185758 
L 324.289623 -166.309567 
L 326.216906 -164.352702 
L 328.144189 -164.832375 
L 330.071472 -168.081818 
L 331.998755 -168.158261 
L 333.926038 -167.265819 
L 335.853321 -166.861665 
L 337.780604 -166.505107 
L 339.707887 -164.676148 
L 341.63517 -163.911135 
L 343.562453 -165.89079 
L 345.489736 -165.976988 
L 347.417019 -166.96244 
L 349.344302 -165.981257 
L 351.271585 -169.612182 
L 353.198868 -168.725402 
L 355.126151 -169.147056 
L 357.053434 -168.590393 
L 358.980717 -171.667239 
L 360.908 -170.993484 
L 362.835283 -170.155884 
L 364.762566 -170.22507 
L 366.689849 -170.433573 
L 368.617132 -172.544295 
L 370.544415 -172.394202 
L 372.471698 -169.070304 
L 374.398981 -165.436913 
L 376.326264 -157.863531 
L 378.253547 -155.001978 
L 380.18083 -151.982706 
L 382.108113 -148.235503 
L 384.035396 -148.928989 
L 385.962679 -145.53324 
L 387.889962 -143.702313 
L 389.817245 -147.490308 
L 391.744528 -146.838504 
L 393.671811 -145.748396 
L 395.599094 -145.112166 
L 397.526377 -143.213102 
L 399.45366 -141.95035 
L 401.380943 -142.899846 
L 403.308226 -141.999602 
L 405.235509 -141.376873 
L 407.162792 -141.306863 
L 409.090075 -140.217421 
L 411.017358 -138.438418 
L 412.944642 -140.796789 
L 414.871925 -142.193465 
L 416.799208 -144.9865 
L 418.726491 -145.185108 
L 420.653774 -143.341183 
L 422.581057 -144.533553 
L 424.50834 -143.157173 
L 426.435623 -142.337065 
L 428.362906 -140.63011 
L 430.290189 -135.782338 
L 432.217472 -133.922224 
L 434.144755 -137.345799 
L 436.072038 -135.005223 
L 437.999321 -134.341952 
L 439.926604 -134.949249 
L 441.853887 -132.354243 
L 443.78117 -133.432674 
L 445.708453 -133.552556 
L 447.635736 -134.990919 
L 449.563019 -138.290152 
L 451.490302 -139.266725 
L 453.417585 -146.260919 
L 455.344868 -148.138963 
L 457.272151 -147.998836 
L 459.199434 -149.573437 
L 461.126717 -147.257212 
L 463.054 -143.963906 
L 464.981283 -143.555874 
L 466.908566 -144.01501 
L 468.835849 -142.559977 
L 470.763132 -143.476798 
L 472.690415 -142.676122 
L 474.617698 -144.762269 
L 476.544981 -146.610806 
L 478.472264 -146.471215 
L 480.399547 -146.767788 
L 482.32683 -146.772634 
L 484.254113 -147.761221 
L 486.181396 -150.475757 
L 488.108679 -148.967303 
L 490.035962 -149.120075 
L 491.963245 -152.904312 
L 493.890528 -150.271167 
L 495.817811 -151.142554 
L 497.745094 -151.329578 
L 499.672377 -147.433544 
L 501.59966 -145.357016 
L 503.526943 -148.451957 
L 505.454226 -148.039164 
L 507.381509 -147.868181 
L 509.308792 -148.873679 
L 511.236075 -148.799358 
L 513.163358 -148.820022 
L 515.090642 -147.522812 
L 517.017925 -147.71864 
L 518.945208 -149.233892 
L 520.872491 -150.193201 
L 522.799774 -146.526819 
L 524.727057 -146.186017 
L 526.65434 -142.832159 
L 528.581623 -140.007709 
L 530.508906 -137.336441 
L 532.436189 -135.907097 
L 534.363472 -136.378047 
L 536.290755 -132.693902 
L 538.218038 -129.844003 
L 540.145321 -129.795284 
L 542.072604 -131.224729 
L 543.999887 -132.982423 
L 545.92717 -132.167966 
L 547.854453 -129.716415 
L 549.781736 -130.113873 
L 551.709019 -130.464529 
L 553.636302 -128.016584 
L 555.563585 -128.709694 
L 557.490868 -130.077244 
L 559.418151 -131.574297 
L 561.345434 -131.344705 
L 563.272717 -131.730483 
L 565.2 -134.894735 
L 565.2 -172.413302 
L 565.2 -172.413302 
L 563.272717 -161.464077 
L 561.345434 -160.104903 
L 559.418151 -161.741102 
L 557.490868 -159.947144 
L 555.563585 -157.514255 
L 553.636302 -155.402944 
L 551.709019 -157.891563 
L 549.781736 -157.265552 
L 547.854453 -155.791878 
L 545.92717 -157.938481 
L 543.999887 -159.066644 
L 542.072604 -157.829472 
L 540.145321 -153.746742 
L 538.218038 -150.522684 
L 536.290755 -153.810067 
L 534.363472 -158.907986 
L 532.436189 -157.754452 
L 530.508906 -158.294977 
L 528.581623 -159.954052 
L 526.65434 -162.510005 
L 524.727057 -165.543241 
L 522.799774 -166.339806 
L 520.872491 -171.182225 
L 518.945208 -170.804473 
L 517.017925 -171.02323 
L 515.090642 -170.514561 
L 513.163358 -170.791175 
L 511.236075 -169.466338 
L 509.308792 -170.420882 
L 507.381509 -169.530573 
L 505.454226 -169.075317 
L 503.526943 -169.181075 
L 501.59966 -165.728921 
L 499.672377 -165.806563 
L 497.745094 -172.861953 
L 495.817811 -170.244551 
L 493.890528 -168.621157 
L 491.963245 -172.570565 
L 490.035962 -167.713565 
L 488.108679 -170.709494 
L 486.181396 -175.042887 
L 484.254113 -173.001158 
L 482.32683 -172.99681 
L 480.399547 -175.161757 
L 478.472264 -175.677633 
L 476.544981 -175.7198 
L 474.617698 -175.181461 
L 472.690415 -172.073286 
L 470.763132 -175.246864 
L 468.835849 -174.933898 
L 466.908566 -177.740858 
L 464.981283 -177.659269 
L 463.054 -182.169528 
L 461.126717 -189.08725 
L 459.199434 -191.202848 
L 457.272151 -190.695497 
L 455.344868 -193.641962 
L 453.417585 -195.316283 
L 451.490302 -184.485051 
L 449.563019 -185.583952 
L 447.635736 -181.89036 
L 445.708453 -176.670429 
L 443.78117 -177.656209 
L 441.853887 -177.184646 
L 439.926604 -180.793444 
L 437.999321 -179.489657 
L 436.072038 -181.724249 
L 434.144755 -188.148101 
L 432.217472 -179.510217 
L 430.290189 -182.754767 
L 428.362906 -194.906585 
L 426.435623 -196.32 
L 424.50834 -196.301174 
L 422.581057 -196.053925 
L 420.653774 -194.939564 
L 418.726491 -192.656495 
L 416.799208 -191.563102 
L 414.871925 -188.328229 
L 412.944642 -182.663295 
L 411.017358 -178.96957 
L 409.090075 -181.064437 
L 407.162792 -180.887723 
L 405.235509 -180.85459 
L 403.308226 -180.700286 
L 401.380943 -181.165328 
L 399.45366 -179.654108 
L 397.526377 -178.767329 
L 395.599094 -179.174533 
L 393.671811 -176.629479 
L 391.744528 -177.159515 
L 389.817245 -177.872454 
L 387.889962 -170.328622 
L 385.962679 -171.727041 
L 384.035396 -174.625943 
L 382.108113 -172.894082 
L 380.18083 -175.881593 
L 378.253547 -176.723459 
L 376.326264 -175.543636 
L 374.398981 -184.5131 
L 372.471698 -187.776036 
L 370.544415 -190.915451 
L 368.617132 -194.02453 
L 366.689849 -192.057472 
L 364.762566 -193.138417 
L 362.835283 -190.266712 
L 360.908 -190.840264 
L 358.980717 -191.344344 
L 357.053434 -187.774839 
L 355.126151 -189.631934 
L 353.198868 -189.509532 
L 351.271585 -190.104402 
L 349.344302 -186.781966 
L 347.417019 -189.127539 
L 345.489736 -189.179054 
L 343.562453 -186.292737 
L 341.63517 -186.250987 
L 339.707887 -186.288177 
L 337.780604 -185.901729 
L 335.853321 -187.545818 
L 333.926038 -185.3674 
L 331.998755 -186.552533 
L 330.071472 -186.624543 
L 328.144189 -181.667401 
L 326.216906 -179.305895 
L 324.289623 -183.201477 
L 322.36234 -189.009623 
L 320.435057 -185.759846 
L 318.507774 -186.259217 
L 316.580491 -181.340174 
L 314.653208 -178.346985 
L 312.725925 -174.549831 
L 310.798642 -179.359703 
L 308.871358 -182.871047 
L 306.944075 -181.085264 
L 305.016792 -179.247794 
L 303.089509 -175.803943 
L 301.162226 -175.489909 
L 299.234943 -173.23195 
L 297.30766 -171.324417 
L 295.380377 -171.729386 
L 293.453094 -169.428528 
L 291.525811 -167.498439 
L 289.598528 -168.291757 
L 287.671245 -169.489254 
L 285.743962 -165.301924 
L 283.816679 -163.289721 
L 281.889396 -162.410046 
L 279.962113 -159.990273 
L 278.03483 -161.079602 
L 276.107547 -158.071522 
L 274.180264 -157.935068 
L 272.252981 -156.670091 
L 270.325698 -155.517458 
L 268.398415 -158.473317 
L 266.471132 -156.667808 
L 264.543849 -157.448845 
L 262.616566 -155.520227 
L 260.689283 -155.005897 
L 258.762 -156.023732 
L 256.834717 -154.934079 
L 254.907434 -156.158528 
L 252.980151 -155.201312 
L 251.052868 -151.642065 
L 249.125585 -153.318387 
L 247.198302 -151.970096 
L 245.271019 -151.336861 
L 243.343736 -154.202595 
L 241.416453 -153.591155 
L 239.48917 -158.778324 
L 237.561887 -163.352716 
L 235.634604 -166.171972 
L 233.707321 -165.731234 
L 231.780038 -165.953228 
L 229.852755 -166.27775 
L 227.925472 -161.988028 
L 225.998189 -163.825481 
L 224.070906 -164.721206 
L 222.143623 -160.85402 
L 220.21634 -159.343439 
L 218.289057 -159.287954 
L 216.361774 -167.199031 
L 214.434491 -169.620616 
L 212.507208 -171.354277 
L 210.579925 -170.722441 
L 208.652642 -173.650653 
L 206.725358 -172.783817 
L 204.798075 -176.01263 
L 202.870792 -172.603475 
L 200.943509 -171.713914 
L 199.016226 -172.921586 
L 197.088943 -170.494274 
L 195.16166 -165.530961 
L 193.234377 -165.491323 
L 191.307094 -161.65308 
L 189.379811 -169.677476 
L 187.452528 -168.675182 
L 185.525245 -168.551893 
L 183.597962 -165.265278 
L 181.670679 -161.532425 
L 179.743396 -162.056329 
L 177.816113 -161.853754 
L 175.88883 -163.505606 
L 173.961547 -170.41918 
L 172.034264 -171.789315 
L 170.106981 -169.136187 
L 168.179698 -158.135968 
L 166.252415 -160.018433 
L 164.325132 -161.328221 
L 162.397849 -157.392678 
L 160.470566 -160.794262 
L 158.543283 -156.145343 
L 156.616 -157.880425 
L 154.688717 -153.117502 
L 152.761434 -153.862572 
L 150.834151 -160.637315 
L 148.906868 -161.416756 
L 146.979585 -163.97137 
L 145.052302 -165.702916 
L 143.125019 -162.858136 
L 141.197736 -167.239848 
L 139.270453 -170.463318 
L 137.34317 -165.857051 
L 135.415887 -165.772654 
L 133.488604 -165.479768 
L 131.561321 -166.248913 
L 129.634038 -167.773294 
L 127.706755 -165.055843 
L 125.779472 -163.543568 
L 123.852189 -163.391442 
L 121.924906 -162.229965 
L 119.997623 -168.414632 
L 118.07034 -172.160619 
L 116.143057 -167.492384 
L 114.215774 -162.614418 
L 112.288491 -166.885453 
L 110.361208 -168.090775 
L 108.433925 -169.821952 
L 106.506642 -167.935347 
L 104.579358 -165.355006 
L 102.652075 -162.600847 
L 100.724792 -161.341575 
L 98.797509 -157.837114 
L 96.870226 -156.712538 
L 94.942943 -153.377349 
L 93.01566 -158.872778 
L 91.088377 -160.428965 
L 89.161094 -163.917486 
L 87.233811 -162.869368 
L 85.306528 -162.491722 
L 83.379245 -160.327554 
L 81.451962 -161.682241 
L 79.524679 -163.502905 
L 77.597396 -170.979814 
L 75.670113 -173.240804 
L 73.74283 -164.859398 
L 71.815547 -168.107988 
L 69.888264 -164.400094 
L 67.960981 -161.442716 
L 66.033698 -162.389604 
L 64.106415 -160.973509 
L 62.179132 -165.115747 
L 60.251849 -166.937101 
L 58.324566 -172.044578 
L 56.397283 -174.44651 
L 54.47 -172.898961 
z
" id="mdafb222466" style="stroke:#0000ff;stroke-opacity:0.3;"/>
    </defs>
    <g clip-path="url(#p3c05fff64a)">
     <use style="fill:#0000ff;fill-opacity:0.3;stroke:#0000ff;stroke-opacity:0.3;" x="0" xlink:href="#mdafb222466" y="223.2"/>
    </g>
   </g>
   <g id="matplotlib.axis_1">
    <g id="xtick_1">
     <g id="line2d_1">
      <defs>
       <path d="M 0 0 
L 0 3.5 
" id="m2cf4602b49" style="stroke:#000000;stroke-width:0.8;"/>
      </defs>
      <g>
       <use style="stroke:#000000;stroke-width:0.8;" x="117.106698" xlink:href="#m2cf4602b49" y="174.76"/>
      </g>
     </g>
     <g id="text_1">
      <!-- 0.0 -->
      <defs>
       <path d="M 31.78125 66.40625 
Q 24.171875 66.40625 20.328125 58.90625 
Q 16.5 51.421875 16.5 36.375 
Q 16.5 21.390625 20.328125 13.890625 
Q 24.171875 6.390625 31.78125 6.390625 
Q 39.453125 6.390625 43.28125 13.890625 
Q 47.125 21.390625 47.125 36.375 
Q 47.125 51.421875 43.28125 58.90625 
Q 39.453125 66.40625 31.78125 66.40625 
z
M 31.78125 74.21875 
Q 44.046875 74.21875 50.515625 64.515625 
Q 56.984375 54.828125 56.984375 36.375 
Q 56.984375 17.96875 50.515625 8.265625 
Q 44.046875 -1.421875 31.78125 -1.421875 
Q 19.53125 -1.421875 13.0625 8.265625 
Q 6.59375 17.96875 6.59375 36.375 
Q 6.59375 54.828125 13.0625 64.515625 
Q 19.53125 74.21875 31.78125 74.21875 
z
" id="DejaVuSans-48"/>
       <path d="M 10.6875 12.40625 
L 21 12.40625 
L 21 0 
L 10.6875 0 
z
" id="DejaVuSans-46"/>
      </defs>
      <g transform="translate(107.564823 190.878125)scale(0.12 -0.12)">
       <use xlink:href="#DejaVuSans-48"/>
       <use x="63.623047" xlink:href="#DejaVuSans-46"/>
       <use x="95.410156" xlink:href="#DejaVuSans-48"/>
      </g>
     </g>
    </g>
    <g id="xtick_2">
     <g id="line2d_2">
      <g>
       <use style="stroke:#000000;stroke-width:0.8;" x="213.470849" xlink:href="#m2cf4602b49" y="174.76"/>
      </g>
     </g>
     <g id="text_2">
      <!-- 0.5 -->
      <defs>
       <path d="M 10.796875 72.90625 
L 49.515625 72.90625 
L 49.515625 64.59375 
L 19.828125 64.59375 
L 19.828125 46.734375 
Q 21.96875 47.46875 24.109375 47.828125 
Q 26.265625 48.1875 28.421875 48.1875 
Q 40.625 48.1875 47.75 41.5 
Q 54.890625 34.8125 54.890625 23.390625 
Q 54.890625 11.625 47.5625 5.09375 
Q 40.234375 -1.421875 26.90625 -1.421875 
Q 22.3125 -1.421875 17.546875 -0.640625 
Q 12.796875 0.140625 7.71875 1.703125 
L 7.71875 11.625 
Q 12.109375 9.234375 16.796875 8.0625 
Q 21.484375 6.890625 26.703125 6.890625 
Q 35.15625 6.890625 40.078125 11.328125 
Q 45.015625 15.765625 45.015625 23.390625 
Q 45.015625 31 40.078125 35.4375 
Q 35.15625 39.890625 26.703125 39.890625 
Q 22.75 39.890625 18.8125 39.015625 
Q 14.890625 38.140625 10.796875 36.28125 
z
" id="DejaVuSans-53"/>
      </defs>
      <g transform="translate(203.928974 190.878125)scale(0.12 -0.12)">
       <use xlink:href="#DejaVuSans-48"/>
       <use x="63.623047" xlink:href="#DejaVuSans-46"/>
       <use x="95.410156" xlink:href="#DejaVuSans-53"/>
      </g>
     </g>
    </g>
    <g id="xtick_3">
     <g id="line2d_3">
      <g>
       <use style="stroke:#000000;stroke-width:0.8;" x="309.835" xlink:href="#m2cf4602b49" y="174.76"/>
      </g>
     </g>
     <g id="text_3">
      <!-- 1.0 -->
      <defs>
       <path d="M 12.40625 8.296875 
L 28.515625 8.296875 
L 28.515625 63.921875 
L 10.984375 60.40625 
L 10.984375 69.390625 
L 28.421875 72.90625 
L 38.28125 72.90625 
L 38.28125 8.296875 
L 54.390625 8.296875 
L 54.390625 0 
L 12.40625 0 
z
" id="DejaVuSans-49"/>
      </defs>
      <g transform="translate(300.293125 190.878125)scale(0.12 -0.12)">
       <use xlink:href="#DejaVuSans-49"/>
       <use x="63.623047" xlink:href="#DejaVuSans-46"/>
       <use x="95.410156" xlink:href="#DejaVuSans-48"/>
      </g>
     </g>
    </g>
    <g id="xtick_4">
     <g id="line2d_4">
      <g>
       <use style="stroke:#000000;stroke-width:0.8;" x="406.199151" xlink:href="#m2cf4602b49" y="174.76"/>
      </g>
     </g>
     <g id="text_4">
      <!-- 1.5 -->
      <g transform="translate(396.657276 190.878125)scale(0.12 -0.12)">
       <use xlink:href="#DejaVuSans-49"/>
       <use x="63.623047" xlink:href="#DejaVuSans-46"/>
       <use x="95.410156" xlink:href="#DejaVuSans-53"/>
      </g>
     </g>
    </g>
    <g id="xtick_5">
     <g id="line2d_5">
      <g>
       <use style="stroke:#000000;stroke-width:0.8;" x="502.563302" xlink:href="#m2cf4602b49" y="174.76"/>
      </g>
     </g>
     <g id="text_5">
      <!-- 2.0 -->
      <defs>
       <path d="M 19.1875 8.296875 
L 53.609375 8.296875 
L 53.609375 0 
L 7.328125 0 
L 7.328125 8.296875 
Q 12.9375 14.109375 22.625 23.890625 
Q 32.328125 33.6875 34.8125 36.53125 
Q 39.546875 41.84375 41.421875 45.53125 
Q 43.3125 49.21875 43.3125 52.78125 
Q 43.3125 58.59375 39.234375 62.25 
Q 35.15625 65.921875 28.609375 65.921875 
Q 23.96875 65.921875 18.8125 64.3125 
Q 13.671875 62.703125 7.8125 59.421875 
L 7.8125 69.390625 
Q 13.765625 71.78125 18.9375 73 
Q 24.125 74.21875 28.421875 74.21875 
Q 39.75 74.21875 46.484375 68.546875 
Q 53.21875 62.890625 53.21875 53.421875 
Q 53.21875 48.921875 51.53125 44.890625 
Q 49.859375 40.875 45.40625 35.40625 
Q 44.1875 33.984375 37.640625 27.21875 
Q 31.109375 20.453125 19.1875 8.296875 
z
" id="DejaVuSans-50"/>
      </defs>
      <g transform="translate(493.021427 190.878125)scale(0.12 -0.12)">
       <use xlink:href="#DejaVuSans-50"/>
       <use x="63.623047" xlink:href="#DejaVuSans-46"/>
       <use x="95.410156" xlink:href="#DejaVuSans-48"/>
      </g>
     </g>
    </g>
    <g id="text_6">
     <!-- Time (s) -->
     <defs>
      <path d="M -0.296875 72.90625 
L 61.375 72.90625 
L 61.375 64.59375 
L 35.5 64.59375 
L 35.5 0 
L 25.59375 0 
L 25.59375 64.59375 
L -0.296875 64.59375 
z
" id="DejaVuSans-84"/>
      <path d="M 9.421875 54.6875 
L 18.40625 54.6875 
L 18.40625 0 
L 9.421875 0 
z
M 9.421875 75.984375 
L 18.40625 75.984375 
L 18.40625 64.59375 
L 9.421875 64.59375 
z
" id="DejaVuSans-105"/>
      <path d="M 52 44.1875 
Q 55.375 50.25 60.0625 53.125 
Q 64.75 56 71.09375 56 
Q 79.640625 56 84.28125 50.015625 
Q 88.921875 44.046875 88.921875 33.015625 
L 88.921875 0 
L 79.890625 0 
L 79.890625 32.71875 
Q 79.890625 40.578125 77.09375 44.375 
Q 74.3125 48.1875 68.609375 48.1875 
Q 61.625 48.1875 57.5625 43.546875 
Q 53.515625 38.921875 53.515625 30.90625 
L 53.515625 0 
L 44.484375 0 
L 44.484375 32.71875 
Q 44.484375 40.625 41.703125 44.40625 
Q 38.921875 48.1875 33.109375 48.1875 
Q 26.21875 48.1875 22.15625 43.53125 
Q 18.109375 38.875 18.109375 30.90625 
L 18.109375 0 
L 9.078125 0 
L 9.078125 54.6875 
L 18.109375 54.6875 
L 18.109375 46.1875 
Q 21.1875 51.21875 25.484375 53.609375 
Q 29.78125 56 35.6875 56 
Q 41.65625 56 45.828125 52.96875 
Q 50 49.953125 52 44.1875 
z
" id="DejaVuSans-109"/>
      <path d="M 56.203125 29.59375 
L 56.203125 25.203125 
L 14.890625 25.203125 
Q 15.484375 15.921875 20.484375 11.0625 
Q 25.484375 6.203125 34.421875 6.203125 
Q 39.59375 6.203125 44.453125 7.46875 
Q 49.3125 8.734375 54.109375 11.28125 
L 54.109375 2.78125 
Q 49.265625 0.734375 44.1875 -0.34375 
Q 39.109375 -1.421875 33.890625 -1.421875 
Q 20.796875 -1.421875 13.15625 6.1875 
Q 5.515625 13.8125 5.515625 26.8125 
Q 5.515625 40.234375 12.765625 48.109375 
Q 20.015625 56 32.328125 56 
Q 43.359375 56 49.78125 48.890625 
Q 56.203125 41.796875 56.203125 29.59375 
z
M 47.21875 32.234375 
Q 47.125 39.59375 43.09375 43.984375 
Q 39.0625 48.390625 32.421875 48.390625 
Q 24.90625 48.390625 20.390625 44.140625 
Q 15.875 39.890625 15.1875 32.171875 
z
" id="DejaVuSans-101"/>
      <path id="DejaVuSans-32"/>
      <path d="M 31 75.875 
Q 24.46875 64.65625 21.28125 53.65625 
Q 18.109375 42.671875 18.109375 31.390625 
Q 18.109375 20.125 21.3125 9.0625 
Q 24.515625 -2 31 -13.1875 
L 23.1875 -13.1875 
Q 15.875 -1.703125 12.234375 9.375 
Q 8.59375 20.453125 8.59375 31.390625 
Q 8.59375 42.28125 12.203125 53.3125 
Q 15.828125 64.359375 23.1875 75.875 
z
" id="DejaVuSans-40"/>
      <path d="M 44.28125 53.078125 
L 44.28125 44.578125 
Q 40.484375 46.53125 36.375 47.5 
Q 32.28125 48.484375 27.875 48.484375 
Q 21.1875 48.484375 17.84375 46.4375 
Q 14.5 44.390625 14.5 40.28125 
Q 14.5 37.15625 16.890625 35.375 
Q 19.28125 33.59375 26.515625 31.984375 
L 29.59375 31.296875 
Q 39.15625 29.25 43.1875 25.515625 
Q 47.21875 21.78125 47.21875 15.09375 
Q 47.21875 7.46875 41.1875 3.015625 
Q 35.15625 -1.421875 24.609375 -1.421875 
Q 20.21875 -1.421875 15.453125 -0.5625 
Q 10.6875 0.296875 5.421875 2 
L 5.421875 11.28125 
Q 10.40625 8.6875 15.234375 7.390625 
Q 20.0625 6.109375 24.8125 6.109375 
Q 31.15625 6.109375 34.5625 8.28125 
Q 37.984375 10.453125 37.984375 14.40625 
Q 37.984375 18.0625 35.515625 20.015625 
Q 33.0625 21.96875 24.703125 23.78125 
L 21.578125 24.515625 
Q 13.234375 26.265625 9.515625 29.90625 
Q 5.8125 33.546875 5.8125 39.890625 
Q 5.8125 47.609375 11.28125 51.796875 
Q 16.75 56 26.8125 56 
Q 31.78125 56 36.171875 55.265625 
Q 40.578125 54.546875 44.28125 53.078125 
z
" id="DejaVuSans-115"/>
      <path d="M 8.015625 75.875 
L 15.828125 75.875 
Q 23.140625 64.359375 26.78125 53.3125 
Q 30.421875 42.28125 30.421875 31.390625 
Q 30.421875 20.453125 26.78125 9.375 
Q 23.140625 -1.703125 15.828125 -13.1875 
L 8.015625 -13.1875 
Q 14.5 -2 17.703125 9.0625 
Q 20.90625 20.125 20.90625 31.390625 
Q 20.90625 42.671875 17.703125 53.65625 
Q 14.5 64.65625 8.015625 75.875 
z
" id="DejaVuSans-41"/>
     </defs>
     <g transform="translate(280.33975 208.3155)scale(0.144 -0.144)">
      <use xlink:href="#DejaVuSans-84"/>
      <use x="61.037109" xlink:href="#DejaVuSans-105"/>
      <use x="88.820312" xlink:href="#DejaVuSans-109"/>
      <use x="186.232422" xlink:href="#DejaVuSans-101"/>
      <use x="247.755859" xlink:href="#DejaVuSans-32"/>
      <use x="279.542969" xlink:href="#DejaVuSans-40"/>
      <use x="318.556641" xlink:href="#DejaVuSans-115"/>
      <use x="370.65625" xlink:href="#DejaVuSans-41"/>
     </g>
    </g>
   </g>
   <g id="matplotlib.axis_2">
    <g id="ytick_1">
     <g id="line2d_6">
      <defs>
       <path d="M 0 0 
L -3.5 0 
" id="mcd2cde5e2b" style="stroke:#000000;stroke-width:0.8;"/>
      </defs>
      <g>
       <use style="stroke:#000000;stroke-width:0.8;" x="54.47" xlink:href="#mcd2cde5e2b" y="174.76"/>
      </g>
     </g>
     <g id="text_7">
      <!-- 0.0 -->
      <g transform="translate(28.38625 179.319062)scale(0.12 -0.12)">
       <use xlink:href="#DejaVuSans-48"/>
       <use x="63.623047" xlink:href="#DejaVuSans-46"/>
       <use x="95.410156" xlink:href="#DejaVuSans-48"/>
      </g>
     </g>
    </g>
    <g id="ytick_2">
     <g id="line2d_7">
      <g>
       <use style="stroke:#000000;stroke-width:0.8;" x="54.47" xlink:href="#mcd2cde5e2b" y="146.512798"/>
      </g>
     </g>
     <g id="text_8">
      <!-- 0.2 -->
      <g transform="translate(28.38625 151.07186)scale(0.12 -0.12)">
       <use xlink:href="#DejaVuSans-48"/>
       <use x="63.623047" xlink:href="#DejaVuSans-46"/>
       <use x="95.410156" xlink:href="#DejaVuSans-50"/>
      </g>
     </g>
    </g>
    <g id="ytick_3">
     <g id="line2d_8">
      <g>
       <use style="stroke:#000000;stroke-width:0.8;" x="54.47" xlink:href="#mcd2cde5e2b" y="118.265595"/>
      </g>
     </g>
     <g id="text_9">
      <!-- 0.4 -->
      <defs>
       <path d="M 37.796875 64.3125 
L 12.890625 25.390625 
L 37.796875 25.390625 
z
M 35.203125 72.90625 
L 47.609375 72.90625 
L 47.609375 25.390625 
L 58.015625 25.390625 
L 58.015625 17.1875 
L 47.609375 17.1875 
L 47.609375 0 
L 37.796875 0 
L 37.796875 17.1875 
L 4.890625 17.1875 
L 4.890625 26.703125 
z
" id="DejaVuSans-52"/>
      </defs>
      <g transform="translate(28.38625 122.824658)scale(0.12 -0.12)">
       <use xlink:href="#DejaVuSans-48"/>
       <use x="63.623047" xlink:href="#DejaVuSans-46"/>
       <use x="95.410156" xlink:href="#DejaVuSans-52"/>
      </g>
     </g>
    </g>
    <g id="ytick_4">
     <g id="line2d_9">
      <g>
       <use style="stroke:#000000;stroke-width:0.8;" x="54.47" xlink:href="#mcd2cde5e2b" y="90.018393"/>
      </g>
     </g>
     <g id="text_10">
      <!-- 0.6 -->
      <defs>
       <path d="M 33.015625 40.375 
Q 26.375 40.375 22.484375 35.828125 
Q 18.609375 31.296875 18.609375 23.390625 
Q 18.609375 15.53125 22.484375 10.953125 
Q 26.375 6.390625 33.015625 6.390625 
Q 39.65625 6.390625 43.53125 10.953125 
Q 47.40625 15.53125 47.40625 23.390625 
Q 47.40625 31.296875 43.53125 35.828125 
Q 39.65625 40.375 33.015625 40.375 
z
M 52.59375 71.296875 
L 52.59375 62.3125 
Q 48.875 64.0625 45.09375 64.984375 
Q 41.3125 65.921875 37.59375 65.921875 
Q 27.828125 65.921875 22.671875 59.328125 
Q 17.53125 52.734375 16.796875 39.40625 
Q 19.671875 43.65625 24.015625 45.921875 
Q 28.375 48.1875 33.59375 48.1875 
Q 44.578125 48.1875 50.953125 41.515625 
Q 57.328125 34.859375 57.328125 23.390625 
Q 57.328125 12.15625 50.6875 5.359375 
Q 44.046875 -1.421875 33.015625 -1.421875 
Q 20.359375 -1.421875 13.671875 8.265625 
Q 6.984375 17.96875 6.984375 36.375 
Q 6.984375 53.65625 15.1875 63.9375 
Q 23.390625 74.21875 37.203125 74.21875 
Q 40.921875 74.21875 44.703125 73.484375 
Q 48.484375 72.75 52.59375 71.296875 
z
" id="DejaVuSans-54"/>
      </defs>
      <g transform="translate(28.38625 94.577455)scale(0.12 -0.12)">
       <use xlink:href="#DejaVuSans-48"/>
       <use x="63.623047" xlink:href="#DejaVuSans-46"/>
       <use x="95.410156" xlink:href="#DejaVuSans-54"/>
      </g>
     </g>
    </g>
    <g id="ytick_5">
     <g id="line2d_10">
      <g>
       <use style="stroke:#000000;stroke-width:0.8;" x="54.47" xlink:href="#mcd2cde5e2b" y="61.771191"/>
      </g>
     </g>
     <g id="text_11">
      <!-- 0.8 -->
      <defs>
       <path d="M 31.78125 34.625 
Q 24.75 34.625 20.71875 30.859375 
Q 16.703125 27.09375 16.703125 20.515625 
Q 16.703125 13.921875 20.71875 10.15625 
Q 24.75 6.390625 31.78125 6.390625 
Q 38.8125 6.390625 42.859375 10.171875 
Q 46.921875 13.96875 46.921875 20.515625 
Q 46.921875 27.09375 42.890625 30.859375 
Q 38.875 34.625 31.78125 34.625 
z
M 21.921875 38.8125 
Q 15.578125 40.375 12.03125 44.71875 
Q 8.5 49.078125 8.5 55.328125 
Q 8.5 64.0625 14.71875 69.140625 
Q 20.953125 74.21875 31.78125 74.21875 
Q 42.671875 74.21875 48.875 69.140625 
Q 55.078125 64.0625 55.078125 55.328125 
Q 55.078125 49.078125 51.53125 44.71875 
Q 48 40.375 41.703125 38.8125 
Q 48.828125 37.15625 52.796875 32.3125 
Q 56.78125 27.484375 56.78125 20.515625 
Q 56.78125 9.90625 50.3125 4.234375 
Q 43.84375 -1.421875 31.78125 -1.421875 
Q 19.734375 -1.421875 13.25 4.234375 
Q 6.78125 9.90625 6.78125 20.515625 
Q 6.78125 27.484375 10.78125 32.3125 
Q 14.796875 37.15625 21.921875 38.8125 
z
M 18.3125 54.390625 
Q 18.3125 48.734375 21.84375 45.5625 
Q 25.390625 42.390625 31.78125 42.390625 
Q 38.140625 42.390625 41.71875 45.5625 
Q 45.3125 48.734375 45.3125 54.390625 
Q 45.3125 60.0625 41.71875 63.234375 
Q 38.140625 66.40625 31.78125 66.40625 
Q 25.390625 66.40625 21.84375 63.234375 
Q 18.3125 60.0625 18.3125 54.390625 
z
" id="DejaVuSans-56"/>
      </defs>
      <g transform="translate(28.38625 66.330253)scale(0.12 -0.12)">
       <use xlink:href="#DejaVuSans-48"/>
       <use x="63.623047" xlink:href="#DejaVuSans-46"/>
       <use x="95.410156" xlink:href="#DejaVuSans-56"/>
      </g>
     </g>
    </g>
    <g id="ytick_6">
     <g id="line2d_11">
      <g>
       <use style="stroke:#000000;stroke-width:0.8;" x="54.47" xlink:href="#mcd2cde5e2b" y="33.523988"/>
      </g>
     </g>
     <g id="text_12">
      <!-- 1.0 -->
      <g transform="translate(28.38625 38.083051)scale(0.12 -0.12)">
       <use xlink:href="#DejaVuSans-49"/>
       <use x="63.623047" xlink:href="#DejaVuSans-46"/>
       <use x="95.410156" xlink:href="#DejaVuSans-48"/>
      </g>
     </g>
    </g>
    <g id="text_13">
     <!-- COMb $\nu$ -->
     <defs>
      <path d="M 64.40625 67.28125 
L 64.40625 56.890625 
Q 59.421875 61.53125 53.78125 63.8125 
Q 48.140625 66.109375 41.796875 66.109375 
Q 29.296875 66.109375 22.65625 58.46875 
Q 16.015625 50.828125 16.015625 36.375 
Q 16.015625 21.96875 22.65625 14.328125 
Q 29.296875 6.6875 41.796875 6.6875 
Q 48.140625 6.6875 53.78125 8.984375 
Q 59.421875 11.28125 64.40625 15.921875 
L 64.40625 5.609375 
Q 59.234375 2.09375 53.4375 0.328125 
Q 47.65625 -1.421875 41.21875 -1.421875 
Q 24.65625 -1.421875 15.125 8.703125 
Q 5.609375 18.84375 5.609375 36.375 
Q 5.609375 53.953125 15.125 64.078125 
Q 24.65625 74.21875 41.21875 74.21875 
Q 47.75 74.21875 53.53125 72.484375 
Q 59.328125 70.75 64.40625 67.28125 
z
" id="DejaVuSans-67"/>
      <path d="M 39.40625 66.21875 
Q 28.65625 66.21875 22.328125 58.203125 
Q 16.015625 50.203125 16.015625 36.375 
Q 16.015625 22.609375 22.328125 14.59375 
Q 28.65625 6.59375 39.40625 6.59375 
Q 50.140625 6.59375 56.421875 14.59375 
Q 62.703125 22.609375 62.703125 36.375 
Q 62.703125 50.203125 56.421875 58.203125 
Q 50.140625 66.21875 39.40625 66.21875 
z
M 39.40625 74.21875 
Q 54.734375 74.21875 63.90625 63.9375 
Q 73.09375 53.65625 73.09375 36.375 
Q 73.09375 19.140625 63.90625 8.859375 
Q 54.734375 -1.421875 39.40625 -1.421875 
Q 24.03125 -1.421875 14.8125 8.828125 
Q 5.609375 19.09375 5.609375 36.375 
Q 5.609375 53.65625 14.8125 63.9375 
Q 24.03125 74.21875 39.40625 74.21875 
z
" id="DejaVuSans-79"/>
      <path d="M 9.8125 72.90625 
L 24.515625 72.90625 
L 43.109375 23.296875 
L 61.8125 72.90625 
L 76.515625 72.90625 
L 76.515625 0 
L 66.890625 0 
L 66.890625 64.015625 
L 48.09375 14.015625 
L 38.1875 14.015625 
L 19.390625 64.015625 
L 19.390625 0 
L 9.8125 0 
z
" id="DejaVuSans-77"/>
      <path d="M 48.6875 27.296875 
Q 48.6875 37.203125 44.609375 42.84375 
Q 40.53125 48.484375 33.40625 48.484375 
Q 26.265625 48.484375 22.1875 42.84375 
Q 18.109375 37.203125 18.109375 27.296875 
Q 18.109375 17.390625 22.1875 11.75 
Q 26.265625 6.109375 33.40625 6.109375 
Q 40.53125 6.109375 44.609375 11.75 
Q 48.6875 17.390625 48.6875 27.296875 
z
M 18.109375 46.390625 
Q 20.953125 51.265625 25.265625 53.625 
Q 29.59375 56 35.59375 56 
Q 45.5625 56 51.78125 48.09375 
Q 58.015625 40.1875 58.015625 27.296875 
Q 58.015625 14.40625 51.78125 6.484375 
Q 45.5625 -1.421875 35.59375 -1.421875 
Q 29.59375 -1.421875 25.265625 0.953125 
Q 20.953125 3.328125 18.109375 8.203125 
L 18.109375 0 
L 9.078125 0 
L 9.078125 75.984375 
L 18.109375 75.984375 
z
" id="DejaVuSans-98"/>
      <path d="M 14.984375 0 
L 8.9375 54.6875 
L 18.609375 54.6875 
L 23.78125 8.796875 
Q 30.8125 14.84375 37.359375 23.25 
Q 42.28125 29.546875 43.5625 35.015625 
Q 44.140625 37.59375 43.890625 42.484375 
Q 43.65625 48.296875 39.75 54.6875 
L 48.828125 54.6875 
L 48.828125 54.6875 
Q 51.375 50.34375 52.390625 44.28125 
Q 53.375 38.71875 52.640625 34.90625 
Q 50.78125 25.34375 42.484375 16.796875 
Q 31.640625 5.671875 24.5625 0 
z
" id="DejaVuSans-Oblique-957"/>
     </defs>
     <g transform="translate(21.3915 128.612)rotate(-90)scale(0.144 -0.144)">
      <use transform="translate(0 0.015625)" xlink:href="#DejaVuSans-67"/>
      <use transform="translate(69.824219 0.015625)" xlink:href="#DejaVuSans-79"/>
      <use transform="translate(148.535156 0.015625)" xlink:href="#DejaVuSans-77"/>
      <use transform="translate(234.814453 0.015625)" xlink:href="#DejaVuSans-98"/>
      <use transform="translate(298.291016 0.015625)" xlink:href="#DejaVuSans-32"/>
      <use transform="translate(330.078125 0.015625)" xlink:href="#DejaVuSans-Oblique-957"/>
     </g>
    </g>
   </g>
   <g id="line2d_12">
    <path clip-path="url(#p3c05fff64a)" d="M 54.47 71.165622 
L 56.397283 70.049263 
L 58.324566 72.147566 
L 60.251849 75.175131 
L 62.179132 75.753519 
L 64.106415 78.314992 
L 66.033698 77.205833 
L 67.960981 77.390282 
L 69.888264 75.09361 
L 71.815547 71.142469 
L 73.74283 73.382646 
L 75.670113 67.278016 
L 77.597396 69.077395 
L 79.524679 75.145994 
L 81.451962 76.346005 
L 83.379245 77.002796 
L 85.306528 74.674989 
L 87.233811 74.723334 
L 89.161094 73.331273 
L 91.088377 76.287154 
L 93.01566 77.617647 
L 94.942943 80.985788 
L 96.870226 78.81235 
L 98.797509 77.946399 
L 100.724792 75.247924 
L 102.652075 73.673823 
L 104.579358 71.310906 
L 106.506642 69.815226 
L 108.433925 69.09407 
L 110.361208 70.906912 
L 112.288491 72.303694 
L 114.215774 76.124061 
L 116.143057 72.428702 
L 118.07034 69.213938 
L 119.997623 72.03655 
L 121.924906 76.000257 
L 123.852189 74.415156 
L 125.779472 74.248475 
L 127.706755 72.8584 
L 129.634038 70.997508 
L 131.561321 72.027886 
L 133.488604 72.882656 
L 135.415887 72.467228 
L 137.34317 71.513122 
L 139.270453 69.138972 
L 141.197736 71.307281 
L 143.125019 74.82209 
L 145.052302 73.973419 
L 146.979585 76.165774 
L 148.906868 77.395741 
L 150.834151 77.972256 
L 152.761434 83.578665 
L 154.688717 84.119181 
L 156.616 80.23508 
L 158.543283 81.827364 
L 160.470566 79.196952 
L 162.397849 81.266651 
L 164.325132 78.550778 
L 168.179698 80.374838 
L 170.106981 73.2487 
L 172.034264 71.910744 
L 173.961547 72.663927 
L 175.88883 77.589293 
L 177.816113 79.107156 
L 179.743396 78.981367 
L 181.670679 80.325886 
L 183.597962 76.987196 
L 185.525245 75.064104 
L 187.452528 74.738136 
L 189.379811 74.245493 
L 191.307094 78.888806 
L 193.234377 76.220622 
L 195.16166 76.188783 
L 197.088943 72.999306 
L 199.016226 70.918083 
L 200.943509 71.195381 
L 202.870792 69.904398 
L 204.798075 67.591381 
L 206.725358 69.076367 
L 208.652642 68.460516 
L 210.579925 69.881229 
L 212.507208 68.967644 
L 214.434491 70.135938 
L 216.361774 72.273808 
L 218.289057 77.660143 
L 222.143623 75.968753 
L 224.070906 72.265121 
L 227.925472 73.938419 
L 229.852755 70.377515 
L 231.780038 70.417642 
L 233.707321 70.119165 
L 235.634604 68.916479 
L 237.561887 70.245678 
L 239.48917 75.359129 
L 241.416453 79.398692 
L 243.343736 79.241008 
L 245.271019 81.689688 
L 247.198302 81.525787 
L 249.125585 80.331305 
L 251.052868 81.192252 
L 252.980151 78.803332 
L 254.907434 77.741508 
L 256.834717 78.600139 
L 258.762 76.702491 
L 260.689283 76.926004 
L 262.616566 75.23508 
L 264.543849 73.002409 
L 266.471132 73.120097 
L 268.398415 72.017463 
L 270.325698 74.508193 
L 272.252981 73.693917 
L 276.107547 73.178679 
L 278.03483 71.085829 
L 279.962113 71.645479 
L 281.889396 69.828833 
L 283.816679 69.133978 
L 285.743962 66.923019 
L 287.671245 62.655484 
L 289.598528 64.92099 
L 291.525811 66.69944 
L 293.453094 64.929938 
L 295.380377 62.926618 
L 297.30766 63.236161 
L 299.234943 61.484943 
L 301.162226 58.817121 
L 303.089509 58.345017 
L 305.016792 55.346709 
L 306.944075 54.159689 
L 308.871358 52.719287 
L 310.798642 55.343549 
L 312.725925 59.727193 
L 314.653208 56.267141 
L 318.507774 50.085761 
L 320.435057 49.684814 
L 322.36234 46.10231 
L 324.289623 48.444478 
L 326.216906 51.370701 
L 328.144189 49.950112 
L 330.071472 45.84682 
L 331.998755 45.844603 
L 333.926038 46.883391 
L 335.853321 45.996258 
L 337.780604 46.996582 
L 339.707887 47.717838 
L 341.63517 48.118939 
L 343.562453 47.108237 
L 345.489736 45.621979 
L 347.417019 45.155011 
L 349.344302 46.818389 
L 351.271585 43.341708 
L 353.198868 44.082533 
L 355.126151 43.810505 
L 357.053434 45.017384 
L 358.980717 41.694208 
L 360.908 42.283126 
L 362.835283 42.988702 
L 364.762566 41.518257 
L 366.689849 41.954477 
L 368.617132 39.915588 
L 370.544415 41.545173 
L 374.398981 48.224994 
L 376.326264 56.496417 
L 378.253547 57.337282 
L 380.18083 59.267851 
L 382.108113 62.635207 
L 384.035396 61.422534 
L 385.962679 64.569859 
L 387.889962 66.184533 
L 389.817245 60.518619 
L 391.744528 61.20099 
L 393.671811 62.011062 
L 395.599094 61.05665 
L 397.526377 62.209784 
L 399.45366 62.397771 
L 401.380943 61.167413 
L 403.308226 61.850056 
L 405.235509 62.084269 
L 407.162792 62.102707 
L 409.090075 62.559071 
L 411.017358 64.496006 
L 412.944642 61.469958 
L 414.871925 57.939153 
L 416.799208 54.925199 
L 418.726491 54.279198 
L 420.653774 54.059626 
L 422.581057 52.906261 
L 424.50834 53.470826 
L 426.435623 53.871468 
L 428.362906 55.431653 
L 430.290189 63.931448 
L 432.217472 66.48378 
L 434.144755 60.45305 
L 436.072038 64.835264 
L 437.999321 66.284196 
L 439.926604 65.328653 
L 441.853887 68.430556 
L 443.78117 67.655558 
L 445.708453 68.088507 
L 449.563019 61.262948 
L 451.490302 61.324112 
L 453.417585 52.411399 
L 455.344868 52.309537 
L 457.272151 53.852834 
L 459.199434 52.811858 
L 461.126717 55.027769 
L 463.054 60.133283 
L 464.981283 62.592429 
L 466.908566 62.322066 
L 468.835849 64.453063 
L 470.763132 63.838169 
L 472.690415 65.825296 
L 474.617698 63.228135 
L 476.544981 62.034697 
L 480.399547 62.235227 
L 482.32683 63.315278 
L 484.254113 62.81881 
L 486.181396 60.440678 
L 488.108679 63.361602 
L 490.035962 64.78318 
L 491.963245 60.462562 
L 493.890528 63.753838 
L 495.817811 62.506447 
L 497.745094 61.104235 
L 499.672377 66.579947 
L 501.59966 67.657031 
L 503.526943 64.383484 
L 505.454226 64.642759 
L 507.381509 64.500623 
L 509.308792 63.55272 
L 511.236075 64.067152 
L 513.163358 63.394401 
L 515.090642 64.181313 
L 517.017925 63.829065 
L 520.872491 62.512287 
L 522.799774 66.766687 
L 524.727057 67.335371 
L 526.65434 70.528918 
L 528.581623 73.21912 
L 530.508906 75.384291 
L 532.436189 76.369226 
L 534.363472 75.556984 
L 536.290755 79.948016 
L 538.218038 83.016656 
L 540.145321 81.428987 
L 542.072604 78.672899 
L 543.999887 77.175467 
L 545.92717 78.146776 
L 547.854453 80.445854 
L 549.781736 79.510287 
L 551.709019 79.021954 
L 553.636302 81.490236 
L 555.563585 80.088026 
L 557.490868 78.187806 
L 559.418151 76.5423 
L 561.345434 77.475196 
L 563.272717 76.60272 
L 565.2 69.545982 
L 565.2 69.545982 
" style="fill:none;stroke:#0000ff;stroke-linecap:square;stroke-width:1.5;"/>
   </g>
   <g id="patch_3">
    <path d="M 54.47 174.76 
L 54.47 26.88 
" style="fill:none;stroke:#000000;stroke-linecap:square;stroke-linejoin:miter;stroke-width:0.8;"/>
   </g>
   <g id="patch_4">
    <path d="M 565.2 174.76 
L 565.2 26.88 
" style="fill:none;stroke:#000000;stroke-linecap:square;stroke-linejoin:miter;stroke-width:0.8;"/>
   </g>
   <g id="patch_5">
    <path d="M 54.47 174.76 
L 565.2 174.76 
" style="fill:none;stroke:#000000;stroke-linecap:square;stroke-linejoin:miter;stroke-width:0.8;"/>
   </g>
   <g id="patch_6">
    <path d="M 54.47 26.88 
L 565.2 26.88 
" style="fill:none;stroke:#000000;stroke-linecap:square;stroke-linejoin:miter;stroke-width:0.8;"/>
   </g>
   <g id="text_14">
    <!-- Motor cortex, Num Trials=10 All unstimulated trials, Num cells = 471 -->
    <defs>
     <path d="M 30.609375 48.390625 
Q 23.390625 48.390625 19.1875 42.75 
Q 14.984375 37.109375 14.984375 27.296875 
Q 14.984375 17.484375 19.15625 11.84375 
Q 23.34375 6.203125 30.609375 6.203125 
Q 37.796875 6.203125 41.984375 11.859375 
Q 46.1875 17.53125 46.1875 27.296875 
Q 46.1875 37.015625 41.984375 42.703125 
Q 37.796875 48.390625 30.609375 48.390625 
z
M 30.609375 56 
Q 42.328125 56 49.015625 48.375 
Q 55.71875 40.765625 55.71875 27.296875 
Q 55.71875 13.875 49.015625 6.21875 
Q 42.328125 -1.421875 30.609375 -1.421875 
Q 18.84375 -1.421875 12.171875 6.21875 
Q 5.515625 13.875 5.515625 27.296875 
Q 5.515625 40.765625 12.171875 48.375 
Q 18.84375 56 30.609375 56 
z
" id="DejaVuSans-111"/>
     <path d="M 18.3125 70.21875 
L 18.3125 54.6875 
L 36.8125 54.6875 
L 36.8125 47.703125 
L 18.3125 47.703125 
L 18.3125 18.015625 
Q 18.3125 11.328125 20.140625 9.421875 
Q 21.96875 7.515625 27.59375 7.515625 
L 36.8125 7.515625 
L 36.8125 0 
L 27.59375 0 
Q 17.1875 0 13.234375 3.875 
Q 9.28125 7.765625 9.28125 18.015625 
L 9.28125 47.703125 
L 2.6875 47.703125 
L 2.6875 54.6875 
L 9.28125 54.6875 
L 9.28125 70.21875 
z
" id="DejaVuSans-116"/>
     <path d="M 41.109375 46.296875 
Q 39.59375 47.171875 37.8125 47.578125 
Q 36.03125 48 33.890625 48 
Q 26.265625 48 22.1875 43.046875 
Q 18.109375 38.09375 18.109375 28.8125 
L 18.109375 0 
L 9.078125 0 
L 9.078125 54.6875 
L 18.109375 54.6875 
L 18.109375 46.1875 
Q 20.953125 51.171875 25.484375 53.578125 
Q 30.03125 56 36.53125 56 
Q 37.453125 56 38.578125 55.875 
Q 39.703125 55.765625 41.0625 55.515625 
z
" id="DejaVuSans-114"/>
     <path d="M 48.78125 52.59375 
L 48.78125 44.1875 
Q 44.96875 46.296875 41.140625 47.34375 
Q 37.3125 48.390625 33.40625 48.390625 
Q 24.65625 48.390625 19.8125 42.84375 
Q 14.984375 37.3125 14.984375 27.296875 
Q 14.984375 17.28125 19.8125 11.734375 
Q 24.65625 6.203125 33.40625 6.203125 
Q 37.3125 6.203125 41.140625 7.25 
Q 44.96875 8.296875 48.78125 10.40625 
L 48.78125 2.09375 
Q 45.015625 0.34375 40.984375 -0.53125 
Q 36.96875 -1.421875 32.421875 -1.421875 
Q 20.0625 -1.421875 12.78125 6.34375 
Q 5.515625 14.109375 5.515625 27.296875 
Q 5.515625 40.671875 12.859375 48.328125 
Q 20.21875 56 33.015625 56 
Q 37.15625 56 41.109375 55.140625 
Q 45.0625 54.296875 48.78125 52.59375 
z
" id="DejaVuSans-99"/>
     <path d="M 54.890625 54.6875 
L 35.109375 28.078125 
L 55.90625 0 
L 45.3125 0 
L 29.390625 21.484375 
L 13.484375 0 
L 2.875 0 
L 24.125 28.609375 
L 4.6875 54.6875 
L 15.28125 54.6875 
L 29.78125 35.203125 
L 44.28125 54.6875 
z
" id="DejaVuSans-120"/>
     <path d="M 11.71875 12.40625 
L 22.015625 12.40625 
L 22.015625 4 
L 14.015625 -11.625 
L 7.71875 -11.625 
L 11.71875 4 
z
" id="DejaVuSans-44"/>
     <path d="M 9.8125 72.90625 
L 23.09375 72.90625 
L 55.421875 11.921875 
L 55.421875 72.90625 
L 64.984375 72.90625 
L 64.984375 0 
L 51.703125 0 
L 19.390625 60.984375 
L 19.390625 0 
L 9.8125 0 
z
" id="DejaVuSans-78"/>
     <path d="M 8.5 21.578125 
L 8.5 54.6875 
L 17.484375 54.6875 
L 17.484375 21.921875 
Q 17.484375 14.15625 20.5 10.265625 
Q 23.53125 6.390625 29.59375 6.390625 
Q 36.859375 6.390625 41.078125 11.03125 
Q 45.3125 15.671875 45.3125 23.6875 
L 45.3125 54.6875 
L 54.296875 54.6875 
L 54.296875 0 
L 45.3125 0 
L 45.3125 8.40625 
Q 42.046875 3.421875 37.71875 1 
Q 33.40625 -1.421875 27.6875 -1.421875 
Q 18.265625 -1.421875 13.375 4.4375 
Q 8.5 10.296875 8.5 21.578125 
z
M 31.109375 56 
z
" id="DejaVuSans-117"/>
     <path d="M 34.28125 27.484375 
Q 23.390625 27.484375 19.1875 25 
Q 14.984375 22.515625 14.984375 16.5 
Q 14.984375 11.71875 18.140625 8.90625 
Q 21.296875 6.109375 26.703125 6.109375 
Q 34.1875 6.109375 38.703125 11.40625 
Q 43.21875 16.703125 43.21875 25.484375 
L 43.21875 27.484375 
z
M 52.203125 31.203125 
L 52.203125 0 
L 43.21875 0 
L 43.21875 8.296875 
Q 40.140625 3.328125 35.546875 0.953125 
Q 30.953125 -1.421875 24.3125 -1.421875 
Q 15.921875 -1.421875 10.953125 3.296875 
Q 6 8.015625 6 15.921875 
Q 6 25.140625 12.171875 29.828125 
Q 18.359375 34.515625 30.609375 34.515625 
L 43.21875 34.515625 
L 43.21875 35.40625 
Q 43.21875 41.609375 39.140625 45 
Q 35.0625 48.390625 27.6875 48.390625 
Q 23 48.390625 18.546875 47.265625 
Q 14.109375 46.140625 10.015625 43.890625 
L 10.015625 52.203125 
Q 14.9375 54.109375 19.578125 55.046875 
Q 24.21875 56 28.609375 56 
Q 40.484375 56 46.34375 49.84375 
Q 52.203125 43.703125 52.203125 31.203125 
z
" id="DejaVuSans-97"/>
     <path d="M 9.421875 75.984375 
L 18.40625 75.984375 
L 18.40625 0 
L 9.421875 0 
z
" id="DejaVuSans-108"/>
     <path d="M 10.59375 45.40625 
L 73.1875 45.40625 
L 73.1875 37.203125 
L 10.59375 37.203125 
z
M 10.59375 25.484375 
L 73.1875 25.484375 
L 73.1875 17.1875 
L 10.59375 17.1875 
z
" id="DejaVuSans-61"/>
     <path d="M 34.1875 63.1875 
L 20.796875 26.90625 
L 47.609375 26.90625 
z
M 28.609375 72.90625 
L 39.796875 72.90625 
L 67.578125 0 
L 57.328125 0 
L 50.6875 18.703125 
L 17.828125 18.703125 
L 11.1875 0 
L 0.78125 0 
z
" id="DejaVuSans-65"/>
     <path d="M 54.890625 33.015625 
L 54.890625 0 
L 45.90625 0 
L 45.90625 32.71875 
Q 45.90625 40.484375 42.875 44.328125 
Q 39.84375 48.1875 33.796875 48.1875 
Q 26.515625 48.1875 22.3125 43.546875 
Q 18.109375 38.921875 18.109375 30.90625 
L 18.109375 0 
L 9.078125 0 
L 9.078125 54.6875 
L 18.109375 54.6875 
L 18.109375 46.1875 
Q 21.34375 51.125 25.703125 53.5625 
Q 30.078125 56 35.796875 56 
Q 45.21875 56 50.046875 50.171875 
Q 54.890625 44.34375 54.890625 33.015625 
z
" id="DejaVuSans-110"/>
     <path d="M 45.40625 46.390625 
L 45.40625 75.984375 
L 54.390625 75.984375 
L 54.390625 0 
L 45.40625 0 
L 45.40625 8.203125 
Q 42.578125 3.328125 38.25 0.953125 
Q 33.9375 -1.421875 27.875 -1.421875 
Q 17.96875 -1.421875 11.734375 6.484375 
Q 5.515625 14.40625 5.515625 27.296875 
Q 5.515625 40.1875 11.734375 48.09375 
Q 17.96875 56 27.875 56 
Q 33.9375 56 38.25 53.625 
Q 42.578125 51.265625 45.40625 46.390625 
z
M 14.796875 27.296875 
Q 14.796875 17.390625 18.875 11.75 
Q 22.953125 6.109375 30.078125 6.109375 
Q 37.203125 6.109375 41.296875 11.75 
Q 45.40625 17.390625 45.40625 27.296875 
Q 45.40625 37.203125 41.296875 42.84375 
Q 37.203125 48.484375 30.078125 48.484375 
Q 22.953125 48.484375 18.875 42.84375 
Q 14.796875 37.203125 14.796875 27.296875 
z
" id="DejaVuSans-100"/>
     <path d="M 8.203125 72.90625 
L 55.078125 72.90625 
L 55.078125 68.703125 
L 28.609375 0 
L 18.3125 0 
L 43.21875 64.59375 
L 8.203125 64.59375 
z
" id="DejaVuSans-55"/>
    </defs>
    <g transform="translate(101.4775 20.88)scale(0.12 -0.12)">
     <use xlink:href="#DejaVuSans-77"/>
     <use x="86.279297" xlink:href="#DejaVuSans-111"/>
     <use x="147.460938" xlink:href="#DejaVuSans-116"/>
     <use x="186.669922" xlink:href="#DejaVuSans-111"/>
     <use x="247.851562" xlink:href="#DejaVuSans-114"/>
     <use x="288.964844" xlink:href="#DejaVuSans-32"/>
     <use x="320.751953" xlink:href="#DejaVuSans-99"/>
     <use x="375.732422" xlink:href="#DejaVuSans-111"/>
     <use x="436.914062" xlink:href="#DejaVuSans-114"/>
     <use x="478.027344" xlink:href="#DejaVuSans-116"/>
     <use x="517.236328" xlink:href="#DejaVuSans-101"/>
     <use x="578.744141" xlink:href="#DejaVuSans-120"/>
     <use x="637.923828" xlink:href="#DejaVuSans-44"/>
     <use x="669.710938" xlink:href="#DejaVuSans-32"/>
     <use x="701.498047" xlink:href="#DejaVuSans-78"/>
     <use x="776.302734" xlink:href="#DejaVuSans-117"/>
     <use x="839.681641" xlink:href="#DejaVuSans-109"/>
     <use x="937.09375" xlink:href="#DejaVuSans-32"/>
     <use x="968.880859" xlink:href="#DejaVuSans-84"/>
     <use x="1029.746094" xlink:href="#DejaVuSans-114"/>
     <use x="1070.859375" xlink:href="#DejaVuSans-105"/>
     <use x="1098.642578" xlink:href="#DejaVuSans-97"/>
     <use x="1159.921875" xlink:href="#DejaVuSans-108"/>
     <use x="1187.705078" xlink:href="#DejaVuSans-115"/>
     <use x="1239.804688" xlink:href="#DejaVuSans-61"/>
     <use x="1323.59375" xlink:href="#DejaVuSans-49"/>
     <use x="1387.216797" xlink:href="#DejaVuSans-48"/>
     <use x="1450.839844" xlink:href="#DejaVuSans-32"/>
     <use x="1482.626953" xlink:href="#DejaVuSans-65"/>
     <use x="1551.035156" xlink:href="#DejaVuSans-108"/>
     <use x="1578.818359" xlink:href="#DejaVuSans-108"/>
     <use x="1606.601562" xlink:href="#DejaVuSans-32"/>
     <use x="1638.388672" xlink:href="#DejaVuSans-117"/>
     <use x="1701.767578" xlink:href="#DejaVuSans-110"/>
     <use x="1765.146484" xlink:href="#DejaVuSans-115"/>
     <use x="1817.246094" xlink:href="#DejaVuSans-116"/>
     <use x="1856.455078" xlink:href="#DejaVuSans-105"/>
     <use x="1884.238281" xlink:href="#DejaVuSans-109"/>
     <use x="1981.650391" xlink:href="#DejaVuSans-117"/>
     <use x="2045.029297" xlink:href="#DejaVuSans-108"/>
     <use x="2072.8125" xlink:href="#DejaVuSans-97"/>
     <use x="2134.091797" xlink:href="#DejaVuSans-116"/>
     <use x="2173.300781" xlink:href="#DejaVuSans-101"/>
     <use x="2234.824219" xlink:href="#DejaVuSans-100"/>
     <use x="2298.300781" xlink:href="#DejaVuSans-32"/>
     <use x="2330.087891" xlink:href="#DejaVuSans-116"/>
     <use x="2369.296875" xlink:href="#DejaVuSans-114"/>
     <use x="2410.410156" xlink:href="#DejaVuSans-105"/>
     <use x="2438.193359" xlink:href="#DejaVuSans-97"/>
     <use x="2499.472656" xlink:href="#DejaVuSans-108"/>
     <use x="2527.255859" xlink:href="#DejaVuSans-115"/>
     <use x="2579.355469" xlink:href="#DejaVuSans-44"/>
     <use x="2611.142578" xlink:href="#DejaVuSans-32"/>
     <use x="2642.929688" xlink:href="#DejaVuSans-78"/>
     <use x="2717.734375" xlink:href="#DejaVuSans-117"/>
     <use x="2781.113281" xlink:href="#DejaVuSans-109"/>
     <use x="2878.525391" xlink:href="#DejaVuSans-32"/>
     <use x="2910.3125" xlink:href="#DejaVuSans-99"/>
     <use x="2965.292969" xlink:href="#DejaVuSans-101"/>
     <use x="3026.816406" xlink:href="#DejaVuSans-108"/>
     <use x="3054.599609" xlink:href="#DejaVuSans-108"/>
     <use x="3082.382812" xlink:href="#DejaVuSans-115"/>
     <use x="3134.482422" xlink:href="#DejaVuSans-32"/>
     <use x="3166.269531" xlink:href="#DejaVuSans-61"/>
     <use x="3250.058594" xlink:href="#DejaVuSans-32"/>
     <use x="3281.845703" xlink:href="#DejaVuSans-52"/>
     <use x="3345.46875" xlink:href="#DejaVuSans-55"/>
     <use x="3409.091797" xlink:href="#DejaVuSans-49"/>
    </g>
   </g>
   <g id="legend_1">
    <g id="patch_7">
     <path d="M 62.87 168.76 
L 196.55 168.76 
Q 198.95 168.76 198.95 166.36 
L 198.95 132.3325 
Q 198.95 129.9325 196.55 129.9325 
L 62.87 129.9325 
Q 60.47 129.9325 60.47 132.3325 
L 60.47 166.36 
Q 60.47 168.76 62.87 168.76 
z
" style="fill:#ffffff;opacity:0.8;stroke:#cccccc;stroke-linejoin:miter;"/>
    </g>
    <g id="line2d_13">
     <path d="M 65.27 139.650625 
L 89.27 139.650625 
" style="fill:none;stroke:#0000ff;stroke-linecap:square;stroke-width:1.5;"/>
    </g>
    <g id="line2d_14"/>
    <g id="text_15">
     <!-- COM-Binomial $\nu$ -->
     <defs>
      <path d="M 4.890625 31.390625 
L 31.203125 31.390625 
L 31.203125 23.390625 
L 4.890625 23.390625 
z
" id="DejaVuSans-45"/>
      <path d="M 19.671875 34.8125 
L 19.671875 8.109375 
L 35.5 8.109375 
Q 43.453125 8.109375 47.28125 11.40625 
Q 51.125 14.703125 51.125 21.484375 
Q 51.125 28.328125 47.28125 31.5625 
Q 43.453125 34.8125 35.5 34.8125 
z
M 19.671875 64.796875 
L 19.671875 42.828125 
L 34.28125 42.828125 
Q 41.5 42.828125 45.03125 45.53125 
Q 48.578125 48.25 48.578125 53.8125 
Q 48.578125 59.328125 45.03125 62.0625 
Q 41.5 64.796875 34.28125 64.796875 
z
M 9.8125 72.90625 
L 35.015625 72.90625 
Q 46.296875 72.90625 52.390625 68.21875 
Q 58.5 63.53125 58.5 54.890625 
Q 58.5 48.1875 55.375 44.234375 
Q 52.25 40.28125 46.1875 39.3125 
Q 53.46875 37.75 57.5 32.78125 
Q 61.53125 27.828125 61.53125 20.40625 
Q 61.53125 10.640625 54.890625 5.3125 
Q 48.25 0 35.984375 0 
L 9.8125 0 
z
" id="DejaVuSans-66"/>
     </defs>
     <g transform="translate(98.87 143.850625)scale(0.12 -0.12)">
      <use transform="translate(0 0.015625)" xlink:href="#DejaVuSans-67"/>
      <use transform="translate(69.824219 0.015625)" xlink:href="#DejaVuSans-79"/>
      <use transform="translate(148.535156 0.015625)" xlink:href="#DejaVuSans-77"/>
      <use transform="translate(234.814453 0.015625)" xlink:href="#DejaVuSans-45"/>
      <use transform="translate(270.898438 0.015625)" xlink:href="#DejaVuSans-66"/>
      <use transform="translate(339.501953 0.015625)" xlink:href="#DejaVuSans-105"/>
      <use transform="translate(367.285156 0.015625)" xlink:href="#DejaVuSans-110"/>
      <use transform="translate(430.664062 0.015625)" xlink:href="#DejaVuSans-111"/>
      <use transform="translate(491.845703 0.015625)" xlink:href="#DejaVuSans-109"/>
      <use transform="translate(589.257812 0.015625)" xlink:href="#DejaVuSans-105"/>
      <use transform="translate(617.041016 0.015625)" xlink:href="#DejaVuSans-97"/>
      <use transform="translate(678.320312 0.015625)" xlink:href="#DejaVuSans-108"/>
      <use transform="translate(706.103516 0.015625)" xlink:href="#DejaVuSans-32"/>
      <use transform="translate(737.890625 0.015625)" xlink:href="#DejaVuSans-Oblique-957"/>
     </g>
    </g>
    <g id="patch_8">
     <path d="M 65.27 161.464375 
L 89.27 161.464375 
L 89.27 153.064375 
L 65.27 153.064375 
z
" style="fill:#0000ff;opacity:0.3;stroke:#0000ff;stroke-linejoin:miter;"/>
    </g>
    <g id="text_16">
     <!-- Std. Err. -->
     <defs>
      <path d="M 53.515625 70.515625 
L 53.515625 60.890625 
Q 47.90625 63.578125 42.921875 64.890625 
Q 37.9375 66.21875 33.296875 66.21875 
Q 25.25 66.21875 20.875 63.09375 
Q 16.5 59.96875 16.5 54.203125 
Q 16.5 49.359375 19.40625 46.890625 
Q 22.3125 44.4375 30.421875 42.921875 
L 36.375 41.703125 
Q 47.40625 39.59375 52.65625 34.296875 
Q 57.90625 29 57.90625 20.125 
Q 57.90625 9.515625 50.796875 4.046875 
Q 43.703125 -1.421875 29.984375 -1.421875 
Q 24.8125 -1.421875 18.96875 -0.25 
Q 13.140625 0.921875 6.890625 3.21875 
L 6.890625 13.375 
Q 12.890625 10.015625 18.65625 8.296875 
Q 24.421875 6.59375 29.984375 6.59375 
Q 38.421875 6.59375 43.015625 9.90625 
Q 47.609375 13.234375 47.609375 19.390625 
Q 47.609375 24.75 44.3125 27.78125 
Q 41.015625 30.8125 33.5 32.328125 
L 27.484375 33.5 
Q 16.453125 35.6875 11.515625 40.375 
Q 6.59375 45.0625 6.59375 53.421875 
Q 6.59375 63.09375 13.40625 68.65625 
Q 20.21875 74.21875 32.171875 74.21875 
Q 37.3125 74.21875 42.625 73.28125 
Q 47.953125 72.359375 53.515625 70.515625 
z
" id="DejaVuSans-83"/>
      <path d="M 9.8125 72.90625 
L 55.90625 72.90625 
L 55.90625 64.59375 
L 19.671875 64.59375 
L 19.671875 43.015625 
L 54.390625 43.015625 
L 54.390625 34.71875 
L 19.671875 34.71875 
L 19.671875 8.296875 
L 56.78125 8.296875 
L 56.78125 0 
L 9.8125 0 
z
" id="DejaVuSans-69"/>
     </defs>
     <g transform="translate(98.87 161.464375)scale(0.12 -0.12)">
      <use xlink:href="#DejaVuSans-83"/>
      <use x="63.476562" xlink:href="#DejaVuSans-116"/>
      <use x="102.685547" xlink:href="#DejaVuSans-100"/>
      <use x="166.162109" xlink:href="#DejaVuSans-46"/>
      <use x="197.949219" xlink:href="#DejaVuSans-32"/>
      <use x="229.736328" xlink:href="#DejaVuSans-69"/>
      <use x="292.919922" xlink:href="#DejaVuSans-114"/>
      <use x="334.017578" xlink:href="#DejaVuSans-114"/>
      <use x="374.990234" xlink:href="#DejaVuSans-46"/>
     </g>
    </g>
   </g>
  </g>
 </g>
 <defs>
  <clipPath id="p3c05fff64a">
   <rect height="147.88" width="510.73" x="54.47" y="26.88"/>
  </clipPath>
 </defs>
</svg>
