<?xml version="1.0" encoding="utf-8" standalone="no"?>
<!DOCTYPE svg PUBLIC "-//W3C//DTD SVG 1.1//EN"
  "http://www.w3.org/Graphics/SVG/1.1/DTD/svg11.dtd">
<!-- Created with matplotlib (https://matplotlib.org/) -->
<svg height="216pt" version="1.1" viewBox="0 0 648 216" width="648pt" xmlns="http://www.w3.org/2000/svg" xmlns:xlink="http://www.w3.org/1999/xlink">
 <defs>
  <style type="text/css">
*{stroke-linecap:butt;stroke-linejoin:round;}
  </style>
 </defs>
 <g id="figure_1">
  <g id="patch_1">
   <path d="M 0 216 
L 648 216 
L 648 0 
L 0 0 
z
" style="fill:#ffffff;"/>
  </g>
  <g id="axes_1">
   <g id="patch_2">
    <path d="M 81 192.24 
L 583.2 192.24 
L 583.2 25.92 
L 81 25.92 
z
" style="fill:#ffffff;"/>
   </g>
   <g id="PolyCollection_1">
    <defs>
     <path d="M 142.590566 -23.76 
L 142.590566 -190.08 
L 426.854717 -190.08 
L 426.854717 -23.76 
L 426.854717 -23.76 
L 142.590566 -23.76 
z
" id="m2565c98d52" style="stroke:#808080;stroke-opacity:0.3;"/>
    </defs>
    <g clip-path="url(#p3b72161e2b)">
     <use style="fill:#808080;fill-opacity:0.3;stroke:#808080;stroke-opacity:0.3;" x="0" xlink:href="#m2565c98d52" y="216"/>
    </g>
   </g>
   <g id="PolyCollection_2">
    <defs>
     <path d="M 81 -163.997577 
L 81 -94.490462 
L 82.895094 -94.980521 
L 84.790189 -98.792104 
L 86.685283 -99.168019 
L 88.580377 -95.396484 
L 90.475472 -94.242159 
L 92.370566 -93.649304 
L 94.26566 -91.402477 
L 96.160755 -88.777626 
L 98.055849 -79.87338 
L 99.950943 -80.408895 
L 101.846038 -77.266166 
L 103.741132 -78.868262 
L 105.636226 -84.294745 
L 107.531321 -83.466683 
L 109.426415 -81.146713 
L 111.321509 -75.840841 
L 113.216604 -76.902336 
L 115.111698 -72.707908 
L 117.006792 -76.646632 
L 118.901887 -78.6491 
L 120.796981 -79.342218 
L 122.692075 -77.75096 
L 124.58717 -76.089416 
L 126.482264 -73.495053 
L 128.377358 -70.247707 
L 130.272453 -67.523435 
L 132.167547 -67.868776 
L 134.062642 -69.685207 
L 135.957736 -73.967847 
L 137.85283 -77.73359 
L 139.747925 -83.805703 
L 141.643019 -79.941222 
L 143.538113 -77.564759 
L 145.433208 -80.038204 
L 147.328302 -79.495473 
L 149.223396 -73.628497 
L 151.118491 -73.172805 
L 153.013585 -70.734172 
L 154.908679 -68.973739 
L 156.803774 -68.200888 
L 158.698868 -69.826183 
L 160.593962 -68.055852 
L 162.489057 -62.473921 
L 164.384151 -62.391385 
L 166.279245 -61.687766 
L 168.17434 -64.632791 
L 170.069434 -67.214282 
L 171.964528 -72.606532 
L 173.859623 -72.054211 
L 175.754717 -73.131369 
L 177.649811 -82.64874 
L 179.544906 -83.872571 
L 181.44 -80.989469 
L 183.335094 -86.133344 
L 185.230189 -90.054325 
L 187.125283 -89.262133 
L 189.020377 -87.182401 
L 190.915472 -87.040993 
L 192.810566 -85.556572 
L 194.70566 -83.930103 
L 196.600755 -84.605656 
L 198.495849 -84.017283 
L 200.390943 -87.069991 
L 202.286038 -89.713602 
L 204.181132 -89.690064 
L 206.076226 -95.171011 
L 207.971321 -91.097974 
L 209.866415 -92.727153 
L 211.761509 -90.832059 
L 213.656604 -91.943478 
L 215.551698 -91.279212 
L 217.446792 -89.426251 
L 219.341887 -90.214053 
L 221.236981 -88.54376 
L 223.132075 -85.915638 
L 225.02717 -84.843301 
L 226.922264 -82.549089 
L 228.817358 -81.605164 
L 230.712453 -80.375067 
L 232.607547 -79.225143 
L 234.502642 -78.867607 
L 236.397736 -77.004621 
L 238.29283 -76.57779 
L 240.187925 -78.476304 
L 242.083019 -80.004582 
L 243.978113 -75.157286 
L 245.873208 -75.40104 
L 247.768302 -68.855022 
L 249.663396 -70.437332 
L 251.558491 -68.177095 
L 253.453585 -63.866198 
L 255.348679 -63.352451 
L 257.243774 -61.649771 
L 259.138868 -57.270878 
L 261.033962 -55.971213 
L 262.929057 -65.924971 
L 264.824151 -71.338116 
L 266.719245 -72.816827 
L 268.61434 -76.51708 
L 270.509434 -77.531654 
L 272.404528 -75.560682 
L 274.299623 -74.718802 
L 276.194717 -73.066166 
L 278.089811 -70.418091 
L 279.984906 -70.927664 
L 281.88 -66.120464 
L 283.775094 -64.725296 
L 285.670189 -61.708535 
L 287.565283 -57.795491 
L 289.460377 -56.873668 
L 291.355472 -55.499875 
L 293.250566 -58.963299 
L 295.14566 -58.363731 
L 297.040755 -59.734782 
L 298.935849 -59.335794 
L 300.830943 -57.128498 
L 302.726038 -57.447379 
L 304.621132 -55.297375 
L 306.516226 -54.795614 
L 308.411321 -51.298095 
L 310.306415 -44.470629 
L 312.201509 -49.233126 
L 314.096604 -54.062217 
L 315.991698 -51.047298 
L 317.886792 -48.854635 
L 319.781887 -49.341728 
L 321.676981 -47.413946 
L 323.572075 -42.66973 
L 325.46717 -42.309605 
L 327.362264 -39.541288 
L 329.257358 -39.082965 
L 331.152453 -37.985542 
L 333.047547 -39.13348 
L 334.942642 -43.537763 
L 336.837736 -40.124744 
L 338.73283 -36.678188 
L 340.627925 -36.468967 
L 342.523019 -34.894591 
L 344.418113 -30.809987 
L 346.313208 -29.76834 
L 348.208302 -31.614963 
L 350.103396 -31.217946 
L 351.998491 -28.21874 
L 353.893585 -28.148964 
L 355.788679 -29.04549 
L 357.683774 -29.218072 
L 359.578868 -29.932787 
L 361.473962 -31.433485 
L 363.369057 -32.231606 
L 365.264151 -30.013569 
L 367.159245 -30.37977 
L 369.05434 -29.075221 
L 370.949434 -29.484181 
L 372.844528 -25.828421 
L 374.739623 -26.488074 
L 376.634717 -26.258891 
L 378.529811 -26.768719 
L 380.424906 -24.362649 
L 382.32 -25.106909 
L 384.215094 -25.599516 
L 386.110189 -26.122721 
L 388.005283 -26.199404 
L 389.900377 -24.265861 
L 391.795472 -23.76 
L 393.690566 -26.438172 
L 395.58566 -29.58376 
L 397.480755 -37.527918 
L 399.375849 -40.678889 
L 401.270943 -44.597186 
L 403.166038 -49.434205 
L 405.061132 -48.658965 
L 406.956226 -53.15512 
L 408.851321 -55.977171 
L 410.746415 -52.03936 
L 412.641509 -52.901412 
L 414.536604 -55.323744 
L 416.431698 -56.614674 
L 418.326792 -60.547816 
L 420.221887 -63.393367 
L 422.116981 -62.762158 
L 424.012075 -65.399114 
L 425.90717 -67.139725 
L 427.802264 -67.790446 
L 429.697358 -71.521162 
L 431.592453 -74.262661 
L 433.487547 -71.725848 
L 435.382642 -73.639278 
L 437.277736 -70.042287 
L 439.17283 -70.812143 
L 441.067925 -79.774703 
L 442.963019 -77.421508 
L 444.858113 -79.819545 
L 446.753208 -83.702782 
L 448.648302 -86.361456 
L 450.543396 -88.823519 
L 452.438491 -90.428959 
L 454.333585 -89.030801 
L 456.228679 -89.062188 
L 458.123774 -87.865133 
L 460.018868 -87.314914 
L 461.913962 -90.833886 
L 463.809057 -87.726877 
L 465.704151 -86.746371 
L 467.599245 -87.513557 
L 469.49434 -80.207706 
L 471.389434 -77.846261 
L 473.284528 -67.751546 
L 475.179623 -64.193822 
L 477.074717 -63.058573 
L 478.969811 -60.040611 
L 480.864906 -63.371511 
L 482.76 -64.676769 
L 484.655094 -62.354982 
L 486.550189 -61.714787 
L 488.445283 -63.546132 
L 490.340377 -62.10656 
L 492.235472 -61.157194 
L 494.130566 -59.20321 
L 496.02566 -55.909691 
L 497.920755 -55.848027 
L 499.815849 -55.158313 
L 501.710943 -54.261482 
L 503.606038 -52.406857 
L 505.501132 -48.385224 
L 507.396226 -49.332506 
L 509.291321 -49.008467 
L 511.186415 -44.018609 
L 513.081509 -47.812763 
L 514.976604 -46.085507 
L 516.871698 -47.199183 
L 518.766792 -52.38642 
L 520.661887 -56.203829 
L 522.556981 -51.787106 
L 524.452075 -52.377575 
L 526.34717 -52.73406 
L 528.242264 -50.56229 
L 530.137358 -50.775029 
L 532.032453 -51.620912 
L 533.927547 -54.208232 
L 535.822642 -54.164168 
L 537.717736 -51.021654 
L 539.61283 -49.510765 
L 541.507925 -54.092495 
L 543.403019 -54.363391 
L 545.298113 -60.548164 
L 547.193208 -65.715323 
L 549.088302 -70.867233 
L 550.983396 -73.724966 
L 552.878491 -72.772886 
L 554.773585 -79.589783 
L 556.668679 -84.834027 
L 558.563774 -86.631542 
L 560.458868 -85.005675 
L 562.353962 -80.837133 
L 564.249057 -81.830981 
L 566.144151 -87.40394 
L 568.039245 -88.179831 
L 569.93434 -87.655247 
L 571.829434 -92.642149 
L 573.724528 -92.219221 
L 575.619623 -90.199421 
L 577.514717 -87.725062 
L 579.409811 -87.551537 
L 581.304906 -87.664682 
L 583.2 -85.120694 
L 583.2 -150.347034 
L 583.2 -150.347034 
L 581.304906 -152.949423 
L 579.409811 -154.405232 
L 577.514717 -155.85292 
L 575.619623 -156.588789 
L 573.724528 -161.516394 
L 571.829434 -158.824303 
L 569.93434 -148.152326 
L 568.039245 -149.480452 
L 566.144151 -150.723224 
L 564.249057 -143.299081 
L 562.353962 -139.790363 
L 560.458868 -145.162919 
L 558.563774 -145.26573 
L 556.668679 -136.279859 
L 554.773585 -128.176061 
L 552.878491 -118.193162 
L 550.983396 -118.846112 
L 549.088302 -112.032366 
L 547.193208 -101.764997 
L 545.298113 -96.157198 
L 543.403019 -92.900644 
L 541.507925 -93.660678 
L 539.61283 -89.006835 
L 537.717736 -92.603566 
L 535.822642 -99.628319 
L 533.927547 -98.683226 
L 532.032453 -91.952277 
L 530.137358 -89.241975 
L 528.242264 -88.559508 
L 526.34717 -88.627174 
L 524.452075 -85.701802 
L 522.556981 -85.213309 
L 520.661887 -90.157714 
L 518.766792 -83.776625 
L 516.871698 -79.625556 
L 514.976604 -75.088713 
L 513.081509 -74.964993 
L 511.186415 -71.707171 
L 509.291321 -76.119455 
L 507.396226 -76.607736 
L 505.501132 -77.583376 
L 503.606038 -86.573893 
L 501.710943 -89.651733 
L 499.815849 -95.771887 
L 497.920755 -99.246572 
L 496.02566 -103.346473 
L 494.130566 -117.986754 
L 492.235472 -125.651811 
L 490.340377 -131.00218 
L 488.445283 -134.687679 
L 486.550189 -134.062323 
L 484.655094 -137.227113 
L 482.76 -142.300858 
L 480.864906 -148.013076 
L 478.969811 -147.171711 
L 477.074717 -154.274641 
L 475.179623 -159.09574 
L 473.284528 -165.419826 
L 471.389434 -176.106923 
L 469.49434 -178.338171 
L 467.599245 -186.303332 
L 465.704151 -184.467862 
L 463.809057 -186.732105 
L 461.913962 -189.872014 
L 460.018868 -187.695834 
L 458.123774 -188.043178 
L 456.228679 -189.341381 
L 454.333585 -189.498034 
L 452.438491 -190.08 
L 450.543396 -188.238948 
L 448.648302 -184.568535 
L 446.753208 -180.592785 
L 444.858113 -173.820004 
L 442.963019 -170.935192 
L 441.067925 -173.13407 
L 439.17283 -163.701071 
L 437.277736 -161.24945 
L 435.382642 -165.664101 
L 433.487547 -163.124819 
L 431.592453 -164.574057 
L 429.697358 -161.876581 
L 427.802264 -158.748689 
L 425.90717 -157.889798 
L 424.012075 -155.285908 
L 422.116981 -150.827483 
L 420.221887 -147.116158 
L 418.326792 -132.932956 
L 416.431698 -118.943533 
L 414.536604 -104.00874 
L 412.641509 -93.176575 
L 410.746415 -91.183056 
L 408.851321 -93.264704 
L 406.956226 -90.198715 
L 405.061132 -80.194619 
L 403.166038 -80.329661 
L 401.270943 -72.511949 
L 399.375849 -63.439828 
L 397.480755 -56.36271 
L 395.58566 -46.52961 
L 393.690566 -43.662491 
L 391.795472 -42.658257 
L 389.900377 -44.479319 
L 388.005283 -44.848645 
L 386.110189 -46.959386 
L 384.215094 -46.641149 
L 382.32 -44.438688 
L 380.424906 -44.296912 
L 378.529811 -45.246359 
L 376.634717 -45.390212 
L 374.739623 -46.860525 
L 372.844528 -46.428305 
L 370.949434 -50.858978 
L 369.05434 -50.304673 
L 367.159245 -52.752144 
L 365.264151 -50.90492 
L 363.369057 -54.39399 
L 361.473962 -52.550849 
L 359.578868 -46.691754 
L 357.683774 -45.929652 
L 355.788679 -43.53848 
L 353.893585 -43.023108 
L 351.998491 -42.473091 
L 350.103396 -45.378192 
L 348.208302 -45.55133 
L 346.313208 -43.311943 
L 344.418113 -47.359977 
L 342.523019 -52.624013 
L 340.627925 -55.954383 
L 338.73283 -60.187207 
L 336.837736 -66.518791 
L 334.942642 -74.480077 
L 333.047547 -70.734288 
L 331.152453 -70.335601 
L 329.257358 -71.113556 
L 327.362264 -70.15802 
L 325.46717 -73.960016 
L 323.572075 -75.37554 
L 321.676981 -78.56204 
L 319.781887 -82.042206 
L 317.886792 -82.040155 
L 315.991698 -84.350374 
L 314.096604 -83.47706 
L 312.201509 -74.7453 
L 310.306415 -66.824685 
L 308.411321 -72.19663 
L 306.516226 -77.02112 
L 304.621132 -78.745264 
L 302.726038 -79.724917 
L 300.830943 -80.591256 
L 298.935849 -81.871982 
L 297.040755 -82.952347 
L 295.14566 -80.226766 
L 293.250566 -81.04553 
L 291.355472 -77.841432 
L 289.460377 -77.342269 
L 287.565283 -78.842706 
L 285.670189 -85.808228 
L 283.775094 -101.010623 
L 281.88 -105.647072 
L 279.984906 -119.084783 
L 278.089811 -119.200891 
L 276.194717 -123.168397 
L 274.299623 -122.782404 
L 272.404528 -123.110173 
L 270.509434 -125.426476 
L 268.61434 -123.624374 
L 266.719245 -121.302784 
L 264.824151 -119.070233 
L 262.929057 -113.076755 
L 261.033962 -101.779223 
L 259.138868 -108.530909 
L 257.243774 -115.774673 
L 255.348679 -122.815801 
L 253.453585 -125.171202 
L 251.558491 -129.962376 
L 249.663396 -130.949638 
L 247.768302 -129.100148 
L 245.873208 -133.121673 
L 243.978113 -133.70807 
L 242.083019 -141.251512 
L 240.187925 -145.474671 
L 238.29283 -146.869722 
L 236.397736 -149.022896 
L 234.502642 -150.985054 
L 232.607547 -151.132897 
L 230.712453 -155.290252 
L 228.817358 -158.126864 
L 226.922264 -158.352747 
L 225.02717 -162.741808 
L 223.132075 -166.485658 
L 221.236981 -169.29879 
L 219.341887 -170.803058 
L 217.446792 -171.455202 
L 215.551698 -176.366872 
L 213.656604 -182.470592 
L 211.761509 -184.391993 
L 209.866415 -188.386702 
L 207.971321 -184.044724 
L 206.076226 -185.409919 
L 204.181132 -180.301028 
L 202.286038 -179.82067 
L 200.390943 -178.110846 
L 198.495849 -175.124028 
L 196.600755 -175.101116 
L 194.70566 -173.624711 
L 192.810566 -174.148393 
L 190.915472 -176.492812 
L 189.020377 -177.115655 
L 187.125283 -180.015032 
L 185.230189 -182.565946 
L 183.335094 -175.675087 
L 181.44 -170.080658 
L 179.544906 -169.111486 
L 177.649811 -167.578198 
L 175.754717 -159.193056 
L 173.859623 -156.975521 
L 171.964528 -156.973547 
L 170.069434 -150.835735 
L 168.17434 -146.721468 
L 166.279245 -142.258005 
L 164.384151 -136.290763 
L 162.489057 -127.610649 
L 160.593962 -127.978244 
L 158.698868 -130.186054 
L 156.803774 -128.633741 
L 154.908679 -126.407842 
L 153.013585 -125.974705 
L 151.118491 -130.445524 
L 149.223396 -130.131402 
L 147.328302 -135.25431 
L 145.433208 -136.66836 
L 143.538113 -134.009927 
L 141.643019 -138.488107 
L 139.747925 -143.786774 
L 137.85283 -134.348937 
L 135.957736 -130.461505 
L 134.062642 -124.451571 
L 132.167547 -121.513801 
L 130.272453 -116.034498 
L 128.377358 -117.908376 
L 126.482264 -124.461714 
L 124.58717 -126.93095 
L 122.692075 -127.461057 
L 120.796981 -127.970578 
L 118.901887 -130.604762 
L 117.006792 -128.891875 
L 115.111698 -126.513529 
L 113.216604 -131.517598 
L 111.321509 -128.92889 
L 109.426415 -133.01032 
L 107.531321 -139.246433 
L 105.636226 -140.411195 
L 103.741132 -134.847284 
L 101.846038 -132.752882 
L 99.950943 -135.746987 
L 98.055849 -134.602869 
L 96.160755 -147.669878 
L 94.26566 -148.864977 
L 92.370566 -155.290623 
L 90.475472 -157.772521 
L 88.580377 -161.28022 
L 86.685283 -168.606318 
L 84.790189 -169.234593 
L 82.895094 -164.369178 
L 81 -163.997577 
z
" id="m9e02495af6" style="stroke:#0000ff;stroke-opacity:0.3;"/>
    </defs>
    <g clip-path="url(#p3b72161e2b)">
     <use style="fill:#0000ff;fill-opacity:0.3;stroke:#0000ff;stroke-opacity:0.3;" x="0" xlink:href="#m9e02495af6" y="216"/>
    </g>
   </g>
   <g id="matplotlib.axis_1">
    <g id="xtick_1">
     <g id="line2d_1">
      <defs>
       <path d="M 0 0 
L 0 3.5 
" id="mbc870ebb6a" style="stroke:#000000;stroke-width:0.8;"/>
      </defs>
      <g>
       <use style="stroke:#000000;stroke-width:0.8;" x="142.590566" xlink:href="#mbc870ebb6a" y="192.24"/>
      </g>
     </g>
     <g id="text_1">
      <!-- 0.0 -->
      <defs>
       <path d="M 31.78125 66.40625 
Q 24.171875 66.40625 20.328125 58.90625 
Q 16.5 51.421875 16.5 36.375 
Q 16.5 21.390625 20.328125 13.890625 
Q 24.171875 6.390625 31.78125 6.390625 
Q 39.453125 6.390625 43.28125 13.890625 
Q 47.125 21.390625 47.125 36.375 
Q 47.125 51.421875 43.28125 58.90625 
Q 39.453125 66.40625 31.78125 66.40625 
z
M 31.78125 74.21875 
Q 44.046875 74.21875 50.515625 64.515625 
Q 56.984375 54.828125 56.984375 36.375 
Q 56.984375 17.96875 50.515625 8.265625 
Q 44.046875 -1.421875 31.78125 -1.421875 
Q 19.53125 -1.421875 13.0625 8.265625 
Q 6.59375 17.96875 6.59375 36.375 
Q 6.59375 54.828125 13.0625 64.515625 
Q 19.53125 74.21875 31.78125 74.21875 
z
" id="DejaVuSans-48"/>
       <path d="M 10.6875 12.40625 
L 21 12.40625 
L 21 0 
L 10.6875 0 
z
" id="DejaVuSans-46"/>
      </defs>
      <g transform="translate(133.048691 208.358125)scale(0.12 -0.12)">
       <use xlink:href="#DejaVuSans-48"/>
       <use x="63.623047" xlink:href="#DejaVuSans-46"/>
       <use x="95.410156" xlink:href="#DejaVuSans-48"/>
      </g>
     </g>
    </g>
    <g id="xtick_2">
     <g id="line2d_2">
      <g>
       <use style="stroke:#000000;stroke-width:0.8;" x="237.345283" xlink:href="#mbc870ebb6a" y="192.24"/>
      </g>
     </g>
     <g id="text_2">
      <!-- 0.5 -->
      <defs>
       <path d="M 10.796875 72.90625 
L 49.515625 72.90625 
L 49.515625 64.59375 
L 19.828125 64.59375 
L 19.828125 46.734375 
Q 21.96875 47.46875 24.109375 47.828125 
Q 26.265625 48.1875 28.421875 48.1875 
Q 40.625 48.1875 47.75 41.5 
Q 54.890625 34.8125 54.890625 23.390625 
Q 54.890625 11.625 47.5625 5.09375 
Q 40.234375 -1.421875 26.90625 -1.421875 
Q 22.3125 -1.421875 17.546875 -0.640625 
Q 12.796875 0.140625 7.71875 1.703125 
L 7.71875 11.625 
Q 12.109375 9.234375 16.796875 8.0625 
Q 21.484375 6.890625 26.703125 6.890625 
Q 35.15625 6.890625 40.078125 11.328125 
Q 45.015625 15.765625 45.015625 23.390625 
Q 45.015625 31 40.078125 35.4375 
Q 35.15625 39.890625 26.703125 39.890625 
Q 22.75 39.890625 18.8125 39.015625 
Q 14.890625 38.140625 10.796875 36.28125 
z
" id="DejaVuSans-53"/>
      </defs>
      <g transform="translate(227.803408 208.358125)scale(0.12 -0.12)">
       <use xlink:href="#DejaVuSans-48"/>
       <use x="63.623047" xlink:href="#DejaVuSans-46"/>
       <use x="95.410156" xlink:href="#DejaVuSans-53"/>
      </g>
     </g>
    </g>
    <g id="xtick_3">
     <g id="line2d_3">
      <g>
       <use style="stroke:#000000;stroke-width:0.8;" x="332.1" xlink:href="#mbc870ebb6a" y="192.24"/>
      </g>
     </g>
     <g id="text_3">
      <!-- 1.0 -->
      <defs>
       <path d="M 12.40625 8.296875 
L 28.515625 8.296875 
L 28.515625 63.921875 
L 10.984375 60.40625 
L 10.984375 69.390625 
L 28.421875 72.90625 
L 38.28125 72.90625 
L 38.28125 8.296875 
L 54.390625 8.296875 
L 54.390625 0 
L 12.40625 0 
z
" id="DejaVuSans-49"/>
      </defs>
      <g transform="translate(322.558125 208.358125)scale(0.12 -0.12)">
       <use xlink:href="#DejaVuSans-49"/>
       <use x="63.623047" xlink:href="#DejaVuSans-46"/>
       <use x="95.410156" xlink:href="#DejaVuSans-48"/>
      </g>
     </g>
    </g>
    <g id="xtick_4">
     <g id="line2d_4">
      <g>
       <use style="stroke:#000000;stroke-width:0.8;" x="426.854717" xlink:href="#mbc870ebb6a" y="192.24"/>
      </g>
     </g>
     <g id="text_4">
      <!-- 1.5 -->
      <g transform="translate(417.312842 208.358125)scale(0.12 -0.12)">
       <use xlink:href="#DejaVuSans-49"/>
       <use x="63.623047" xlink:href="#DejaVuSans-46"/>
       <use x="95.410156" xlink:href="#DejaVuSans-53"/>
      </g>
     </g>
    </g>
    <g id="xtick_5">
     <g id="line2d_5">
      <g>
       <use style="stroke:#000000;stroke-width:0.8;" x="521.609434" xlink:href="#mbc870ebb6a" y="192.24"/>
      </g>
     </g>
     <g id="text_5">
      <!-- 2.0 -->
      <defs>
       <path d="M 19.1875 8.296875 
L 53.609375 8.296875 
L 53.609375 0 
L 7.328125 0 
L 7.328125 8.296875 
Q 12.9375 14.109375 22.625 23.890625 
Q 32.328125 33.6875 34.8125 36.53125 
Q 39.546875 41.84375 41.421875 45.53125 
Q 43.3125 49.21875 43.3125 52.78125 
Q 43.3125 58.59375 39.234375 62.25 
Q 35.15625 65.921875 28.609375 65.921875 
Q 23.96875 65.921875 18.8125 64.3125 
Q 13.671875 62.703125 7.8125 59.421875 
L 7.8125 69.390625 
Q 13.765625 71.78125 18.9375 73 
Q 24.125 74.21875 28.421875 74.21875 
Q 39.75 74.21875 46.484375 68.546875 
Q 53.21875 62.890625 53.21875 53.421875 
Q 53.21875 48.921875 51.53125 44.890625 
Q 49.859375 40.875 45.40625 35.40625 
Q 44.1875 33.984375 37.640625 27.21875 
Q 31.109375 20.453125 19.1875 8.296875 
z
" id="DejaVuSans-50"/>
      </defs>
      <g transform="translate(512.067559 208.358125)scale(0.12 -0.12)">
       <use xlink:href="#DejaVuSans-50"/>
       <use x="63.623047" xlink:href="#DejaVuSans-46"/>
       <use x="95.410156" xlink:href="#DejaVuSans-48"/>
      </g>
     </g>
    </g>
    <g id="text_6">
     <!-- Time (s) -->
     <defs>
      <path d="M -0.296875 72.90625 
L 61.375 72.90625 
L 61.375 64.59375 
L 35.5 64.59375 
L 35.5 0 
L 25.59375 0 
L 25.59375 64.59375 
L -0.296875 64.59375 
z
" id="DejaVuSans-84"/>
      <path d="M 9.421875 54.6875 
L 18.40625 54.6875 
L 18.40625 0 
L 9.421875 0 
z
M 9.421875 75.984375 
L 18.40625 75.984375 
L 18.40625 64.59375 
L 9.421875 64.59375 
z
" id="DejaVuSans-105"/>
      <path d="M 52 44.1875 
Q 55.375 50.25 60.0625 53.125 
Q 64.75 56 71.09375 56 
Q 79.640625 56 84.28125 50.015625 
Q 88.921875 44.046875 88.921875 33.015625 
L 88.921875 0 
L 79.890625 0 
L 79.890625 32.71875 
Q 79.890625 40.578125 77.09375 44.375 
Q 74.3125 48.1875 68.609375 48.1875 
Q 61.625 48.1875 57.5625 43.546875 
Q 53.515625 38.921875 53.515625 30.90625 
L 53.515625 0 
L 44.484375 0 
L 44.484375 32.71875 
Q 44.484375 40.625 41.703125 44.40625 
Q 38.921875 48.1875 33.109375 48.1875 
Q 26.21875 48.1875 22.15625 43.53125 
Q 18.109375 38.875 18.109375 30.90625 
L 18.109375 0 
L 9.078125 0 
L 9.078125 54.6875 
L 18.109375 54.6875 
L 18.109375 46.1875 
Q 21.1875 51.21875 25.484375 53.609375 
Q 29.78125 56 35.6875 56 
Q 41.65625 56 45.828125 52.96875 
Q 50 49.953125 52 44.1875 
z
" id="DejaVuSans-109"/>
      <path d="M 56.203125 29.59375 
L 56.203125 25.203125 
L 14.890625 25.203125 
Q 15.484375 15.921875 20.484375 11.0625 
Q 25.484375 6.203125 34.421875 6.203125 
Q 39.59375 6.203125 44.453125 7.46875 
Q 49.3125 8.734375 54.109375 11.28125 
L 54.109375 2.78125 
Q 49.265625 0.734375 44.1875 -0.34375 
Q 39.109375 -1.421875 33.890625 -1.421875 
Q 20.796875 -1.421875 13.15625 6.1875 
Q 5.515625 13.8125 5.515625 26.8125 
Q 5.515625 40.234375 12.765625 48.109375 
Q 20.015625 56 32.328125 56 
Q 43.359375 56 49.78125 48.890625 
Q 56.203125 41.796875 56.203125 29.59375 
z
M 47.21875 32.234375 
Q 47.125 39.59375 43.09375 43.984375 
Q 39.0625 48.390625 32.421875 48.390625 
Q 24.90625 48.390625 20.390625 44.140625 
Q 15.875 39.890625 15.1875 32.171875 
z
" id="DejaVuSans-101"/>
      <path id="DejaVuSans-32"/>
      <path d="M 31 75.875 
Q 24.46875 64.65625 21.28125 53.65625 
Q 18.109375 42.671875 18.109375 31.390625 
Q 18.109375 20.125 21.3125 9.0625 
Q 24.515625 -2 31 -13.1875 
L 23.1875 -13.1875 
Q 15.875 -1.703125 12.234375 9.375 
Q 8.59375 20.453125 8.59375 31.390625 
Q 8.59375 42.28125 12.203125 53.3125 
Q 15.828125 64.359375 23.1875 75.875 
z
" id="DejaVuSans-40"/>
      <path d="M 44.28125 53.078125 
L 44.28125 44.578125 
Q 40.484375 46.53125 36.375 47.5 
Q 32.28125 48.484375 27.875 48.484375 
Q 21.1875 48.484375 17.84375 46.4375 
Q 14.5 44.390625 14.5 40.28125 
Q 14.5 37.15625 16.890625 35.375 
Q 19.28125 33.59375 26.515625 31.984375 
L 29.59375 31.296875 
Q 39.15625 29.25 43.1875 25.515625 
Q 47.21875 21.78125 47.21875 15.09375 
Q 47.21875 7.46875 41.1875 3.015625 
Q 35.15625 -1.421875 24.609375 -1.421875 
Q 20.21875 -1.421875 15.453125 -0.5625 
Q 10.6875 0.296875 5.421875 2 
L 5.421875 11.28125 
Q 10.40625 8.6875 15.234375 7.390625 
Q 20.0625 6.109375 24.8125 6.109375 
Q 31.15625 6.109375 34.5625 8.28125 
Q 37.984375 10.453125 37.984375 14.40625 
Q 37.984375 18.0625 35.515625 20.015625 
Q 33.0625 21.96875 24.703125 23.78125 
L 21.578125 24.515625 
Q 13.234375 26.265625 9.515625 29.90625 
Q 5.8125 33.546875 5.8125 39.890625 
Q 5.8125 47.609375 11.28125 51.796875 
Q 16.75 56 26.8125 56 
Q 31.78125 56 36.171875 55.265625 
Q 40.578125 54.546875 44.28125 53.078125 
z
" id="DejaVuSans-115"/>
      <path d="M 8.015625 75.875 
L 15.828125 75.875 
Q 23.140625 64.359375 26.78125 53.3125 
Q 30.421875 42.28125 30.421875 31.390625 
Q 30.421875 20.453125 26.78125 9.375 
Q 23.140625 -1.703125 15.828125 -13.1875 
L 8.015625 -13.1875 
Q 14.5 -2 17.703125 9.0625 
Q 20.90625 20.125 20.90625 31.390625 
Q 20.90625 42.671875 17.703125 53.65625 
Q 14.5 64.65625 8.015625 75.875 
z
" id="DejaVuSans-41"/>
     </defs>
     <g transform="translate(302.60475 225.7955)scale(0.144 -0.144)">
      <use xlink:href="#DejaVuSans-84"/>
      <use x="61.037109" xlink:href="#DejaVuSans-105"/>
      <use x="88.820312" xlink:href="#DejaVuSans-109"/>
      <use x="186.232422" xlink:href="#DejaVuSans-101"/>
      <use x="247.755859" xlink:href="#DejaVuSans-32"/>
      <use x="279.542969" xlink:href="#DejaVuSans-40"/>
      <use x="318.556641" xlink:href="#DejaVuSans-115"/>
      <use x="370.65625" xlink:href="#DejaVuSans-41"/>
     </g>
    </g>
   </g>
   <g id="matplotlib.axis_2">
    <g id="ytick_1">
     <g id="line2d_6">
      <defs>
       <path d="M 0 0 
L -3.5 0 
" id="m5930450f20" style="stroke:#000000;stroke-width:0.8;"/>
      </defs>
      <g>
       <use style="stroke:#000000;stroke-width:0.8;" x="81" xlink:href="#m5930450f20" y="173.448311"/>
      </g>
     </g>
     <g id="text_7">
      <!-- 0.04 -->
      <defs>
       <path d="M 37.796875 64.3125 
L 12.890625 25.390625 
L 37.796875 25.390625 
z
M 35.203125 72.90625 
L 47.609375 72.90625 
L 47.609375 25.390625 
L 58.015625 25.390625 
L 58.015625 17.1875 
L 47.609375 17.1875 
L 47.609375 0 
L 37.796875 0 
L 37.796875 17.1875 
L 4.890625 17.1875 
L 4.890625 26.703125 
z
" id="DejaVuSans-52"/>
      </defs>
      <g transform="translate(47.28125 178.007373)scale(0.12 -0.12)">
       <use xlink:href="#DejaVuSans-48"/>
       <use x="63.623047" xlink:href="#DejaVuSans-46"/>
       <use x="95.410156" xlink:href="#DejaVuSans-48"/>
       <use x="159.033203" xlink:href="#DejaVuSans-52"/>
      </g>
     </g>
    </g>
    <g id="ytick_2">
     <g id="line2d_7">
      <g>
       <use style="stroke:#000000;stroke-width:0.8;" x="81" xlink:href="#m5930450f20" y="149.510861"/>
      </g>
     </g>
     <g id="text_8">
      <!-- 0.06 -->
      <defs>
       <path d="M 33.015625 40.375 
Q 26.375 40.375 22.484375 35.828125 
Q 18.609375 31.296875 18.609375 23.390625 
Q 18.609375 15.53125 22.484375 10.953125 
Q 26.375 6.390625 33.015625 6.390625 
Q 39.65625 6.390625 43.53125 10.953125 
Q 47.40625 15.53125 47.40625 23.390625 
Q 47.40625 31.296875 43.53125 35.828125 
Q 39.65625 40.375 33.015625 40.375 
z
M 52.59375 71.296875 
L 52.59375 62.3125 
Q 48.875 64.0625 45.09375 64.984375 
Q 41.3125 65.921875 37.59375 65.921875 
Q 27.828125 65.921875 22.671875 59.328125 
Q 17.53125 52.734375 16.796875 39.40625 
Q 19.671875 43.65625 24.015625 45.921875 
Q 28.375 48.1875 33.59375 48.1875 
Q 44.578125 48.1875 50.953125 41.515625 
Q 57.328125 34.859375 57.328125 23.390625 
Q 57.328125 12.15625 50.6875 5.359375 
Q 44.046875 -1.421875 33.015625 -1.421875 
Q 20.359375 -1.421875 13.671875 8.265625 
Q 6.984375 17.96875 6.984375 36.375 
Q 6.984375 53.65625 15.1875 63.9375 
Q 23.390625 74.21875 37.203125 74.21875 
Q 40.921875 74.21875 44.703125 73.484375 
Q 48.484375 72.75 52.59375 71.296875 
z
" id="DejaVuSans-54"/>
      </defs>
      <g transform="translate(47.28125 154.069924)scale(0.12 -0.12)">
       <use xlink:href="#DejaVuSans-48"/>
       <use x="63.623047" xlink:href="#DejaVuSans-46"/>
       <use x="95.410156" xlink:href="#DejaVuSans-48"/>
       <use x="159.033203" xlink:href="#DejaVuSans-54"/>
      </g>
     </g>
    </g>
    <g id="ytick_3">
     <g id="line2d_8">
      <g>
       <use style="stroke:#000000;stroke-width:0.8;" x="81" xlink:href="#m5930450f20" y="125.573412"/>
      </g>
     </g>
     <g id="text_9">
      <!-- 0.08 -->
      <defs>
       <path d="M 31.78125 34.625 
Q 24.75 34.625 20.71875 30.859375 
Q 16.703125 27.09375 16.703125 20.515625 
Q 16.703125 13.921875 20.71875 10.15625 
Q 24.75 6.390625 31.78125 6.390625 
Q 38.8125 6.390625 42.859375 10.171875 
Q 46.921875 13.96875 46.921875 20.515625 
Q 46.921875 27.09375 42.890625 30.859375 
Q 38.875 34.625 31.78125 34.625 
z
M 21.921875 38.8125 
Q 15.578125 40.375 12.03125 44.71875 
Q 8.5 49.078125 8.5 55.328125 
Q 8.5 64.0625 14.71875 69.140625 
Q 20.953125 74.21875 31.78125 74.21875 
Q 42.671875 74.21875 48.875 69.140625 
Q 55.078125 64.0625 55.078125 55.328125 
Q 55.078125 49.078125 51.53125 44.71875 
Q 48 40.375 41.703125 38.8125 
Q 48.828125 37.15625 52.796875 32.3125 
Q 56.78125 27.484375 56.78125 20.515625 
Q 56.78125 9.90625 50.3125 4.234375 
Q 43.84375 -1.421875 31.78125 -1.421875 
Q 19.734375 -1.421875 13.25 4.234375 
Q 6.78125 9.90625 6.78125 20.515625 
Q 6.78125 27.484375 10.78125 32.3125 
Q 14.796875 37.15625 21.921875 38.8125 
z
M 18.3125 54.390625 
Q 18.3125 48.734375 21.84375 45.5625 
Q 25.390625 42.390625 31.78125 42.390625 
Q 38.140625 42.390625 41.71875 45.5625 
Q 45.3125 48.734375 45.3125 54.390625 
Q 45.3125 60.0625 41.71875 63.234375 
Q 38.140625 66.40625 31.78125 66.40625 
Q 25.390625 66.40625 21.84375 63.234375 
Q 18.3125 60.0625 18.3125 54.390625 
z
" id="DejaVuSans-56"/>
      </defs>
      <g transform="translate(47.28125 130.132474)scale(0.12 -0.12)">
       <use xlink:href="#DejaVuSans-48"/>
       <use x="63.623047" xlink:href="#DejaVuSans-46"/>
       <use x="95.410156" xlink:href="#DejaVuSans-48"/>
       <use x="159.033203" xlink:href="#DejaVuSans-56"/>
      </g>
     </g>
    </g>
    <g id="ytick_4">
     <g id="line2d_9">
      <g>
       <use style="stroke:#000000;stroke-width:0.8;" x="81" xlink:href="#m5930450f20" y="101.635962"/>
      </g>
     </g>
     <g id="text_10">
      <!-- 0.10 -->
      <g transform="translate(47.28125 106.195025)scale(0.12 -0.12)">
       <use xlink:href="#DejaVuSans-48"/>
       <use x="63.623047" xlink:href="#DejaVuSans-46"/>
       <use x="95.410156" xlink:href="#DejaVuSans-49"/>
       <use x="159.033203" xlink:href="#DejaVuSans-48"/>
      </g>
     </g>
    </g>
    <g id="ytick_5">
     <g id="line2d_10">
      <g>
       <use style="stroke:#000000;stroke-width:0.8;" x="81" xlink:href="#m5930450f20" y="77.698513"/>
      </g>
     </g>
     <g id="text_11">
      <!-- 0.12 -->
      <g transform="translate(47.28125 82.257575)scale(0.12 -0.12)">
       <use xlink:href="#DejaVuSans-48"/>
       <use x="63.623047" xlink:href="#DejaVuSans-46"/>
       <use x="95.410156" xlink:href="#DejaVuSans-49"/>
       <use x="159.033203" xlink:href="#DejaVuSans-50"/>
      </g>
     </g>
    </g>
    <g id="ytick_6">
     <g id="line2d_11">
      <g>
       <use style="stroke:#000000;stroke-width:0.8;" x="81" xlink:href="#m5930450f20" y="53.761063"/>
      </g>
     </g>
     <g id="text_12">
      <!-- 0.14 -->
      <g transform="translate(47.28125 58.320126)scale(0.12 -0.12)">
       <use xlink:href="#DejaVuSans-48"/>
       <use x="63.623047" xlink:href="#DejaVuSans-46"/>
       <use x="95.410156" xlink:href="#DejaVuSans-49"/>
       <use x="159.033203" xlink:href="#DejaVuSans-52"/>
      </g>
     </g>
    </g>
    <g id="ytick_7">
     <g id="line2d_12">
      <g>
       <use style="stroke:#000000;stroke-width:0.8;" x="81" xlink:href="#m5930450f20" y="29.823614"/>
      </g>
     </g>
     <g id="text_13">
      <!-- 0.16 -->
      <g transform="translate(47.28125 34.382676)scale(0.12 -0.12)">
       <use xlink:href="#DejaVuSans-48"/>
       <use x="63.623047" xlink:href="#DejaVuSans-46"/>
       <use x="95.410156" xlink:href="#DejaVuSans-49"/>
       <use x="159.033203" xlink:href="#DejaVuSans-54"/>
      </g>
     </g>
    </g>
    <g id="text_14">
     <!-- COMb $p$ -->
     <defs>
      <path d="M 64.40625 67.28125 
L 64.40625 56.890625 
Q 59.421875 61.53125 53.78125 63.8125 
Q 48.140625 66.109375 41.796875 66.109375 
Q 29.296875 66.109375 22.65625 58.46875 
Q 16.015625 50.828125 16.015625 36.375 
Q 16.015625 21.96875 22.65625 14.328125 
Q 29.296875 6.6875 41.796875 6.6875 
Q 48.140625 6.6875 53.78125 8.984375 
Q 59.421875 11.28125 64.40625 15.921875 
L 64.40625 5.609375 
Q 59.234375 2.09375 53.4375 0.328125 
Q 47.65625 -1.421875 41.21875 -1.421875 
Q 24.65625 -1.421875 15.125 8.703125 
Q 5.609375 18.84375 5.609375 36.375 
Q 5.609375 53.953125 15.125 64.078125 
Q 24.65625 74.21875 41.21875 74.21875 
Q 47.75 74.21875 53.53125 72.484375 
Q 59.328125 70.75 64.40625 67.28125 
z
" id="DejaVuSans-67"/>
      <path d="M 39.40625 66.21875 
Q 28.65625 66.21875 22.328125 58.203125 
Q 16.015625 50.203125 16.015625 36.375 
Q 16.015625 22.609375 22.328125 14.59375 
Q 28.65625 6.59375 39.40625 6.59375 
Q 50.140625 6.59375 56.421875 14.59375 
Q 62.703125 22.609375 62.703125 36.375 
Q 62.703125 50.203125 56.421875 58.203125 
Q 50.140625 66.21875 39.40625 66.21875 
z
M 39.40625 74.21875 
Q 54.734375 74.21875 63.90625 63.9375 
Q 73.09375 53.65625 73.09375 36.375 
Q 73.09375 19.140625 63.90625 8.859375 
Q 54.734375 -1.421875 39.40625 -1.421875 
Q 24.03125 -1.421875 14.8125 8.828125 
Q 5.609375 19.09375 5.609375 36.375 
Q 5.609375 53.65625 14.8125 63.9375 
Q 24.03125 74.21875 39.40625 74.21875 
z
" id="DejaVuSans-79"/>
      <path d="M 9.8125 72.90625 
L 24.515625 72.90625 
L 43.109375 23.296875 
L 61.8125 72.90625 
L 76.515625 72.90625 
L 76.515625 0 
L 66.890625 0 
L 66.890625 64.015625 
L 48.09375 14.015625 
L 38.1875 14.015625 
L 19.390625 64.015625 
L 19.390625 0 
L 9.8125 0 
z
" id="DejaVuSans-77"/>
      <path d="M 48.6875 27.296875 
Q 48.6875 37.203125 44.609375 42.84375 
Q 40.53125 48.484375 33.40625 48.484375 
Q 26.265625 48.484375 22.1875 42.84375 
Q 18.109375 37.203125 18.109375 27.296875 
Q 18.109375 17.390625 22.1875 11.75 
Q 26.265625 6.109375 33.40625 6.109375 
Q 40.53125 6.109375 44.609375 11.75 
Q 48.6875 17.390625 48.6875 27.296875 
z
M 18.109375 46.390625 
Q 20.953125 51.265625 25.265625 53.625 
Q 29.59375 56 35.59375 56 
Q 45.5625 56 51.78125 48.09375 
Q 58.015625 40.1875 58.015625 27.296875 
Q 58.015625 14.40625 51.78125 6.484375 
Q 45.5625 -1.421875 35.59375 -1.421875 
Q 29.59375 -1.421875 25.265625 0.953125 
Q 20.953125 3.328125 18.109375 8.203125 
L 18.109375 0 
L 9.078125 0 
L 9.078125 75.984375 
L 18.109375 75.984375 
z
" id="DejaVuSans-98"/>
      <path d="M 49.609375 33.6875 
Q 49.609375 40.875 46.484375 44.671875 
Q 43.359375 48.484375 37.5 48.484375 
Q 33.5 48.484375 29.859375 46.4375 
Q 26.21875 44.390625 23.390625 40.484375 
Q 20.609375 36.625 18.9375 31.15625 
Q 17.28125 25.6875 17.28125 20.3125 
Q 17.28125 13.484375 20.40625 9.796875 
Q 23.53125 6.109375 29.296875 6.109375 
Q 33.546875 6.109375 37.1875 8.109375 
Q 40.828125 10.109375 43.40625 13.921875 
Q 46.1875 17.921875 47.890625 23.34375 
Q 49.609375 28.765625 49.609375 33.6875 
z
M 21.78125 46.390625 
Q 25.390625 51.125 30.296875 53.5625 
Q 35.203125 56 41.21875 56 
Q 49.609375 56 54.25 50.5 
Q 58.890625 45.015625 58.890625 35.109375 
Q 58.890625 27 56 19.65625 
Q 53.125 12.3125 47.703125 6.5 
Q 44.09375 2.640625 39.546875 0.609375 
Q 35.015625 -1.421875 29.984375 -1.421875 
Q 24.171875 -1.421875 20.21875 1 
Q 16.265625 3.421875 14.3125 8.203125 
L 8.6875 -20.796875 
L -0.296875 -20.796875 
L 14.40625 54.6875 
L 23.390625 54.6875 
z
" id="DejaVuSans-Oblique-112"/>
     </defs>
     <g transform="translate(40.25725 137.448)rotate(-90)scale(0.144 -0.144)">
      <use transform="translate(0 0.015625)" xlink:href="#DejaVuSans-67"/>
      <use transform="translate(69.824219 0.015625)" xlink:href="#DejaVuSans-79"/>
      <use transform="translate(148.535156 0.015625)" xlink:href="#DejaVuSans-77"/>
      <use transform="translate(234.814453 0.015625)" xlink:href="#DejaVuSans-98"/>
      <use transform="translate(298.291016 0.015625)" xlink:href="#DejaVuSans-32"/>
      <use transform="translate(330.078125 0.015625)" xlink:href="#DejaVuSans-Oblique-112"/>
     </g>
    </g>
   </g>
   <g id="line2d_13">
    <path clip-path="url(#p3b72161e2b)" d="M 81 86.755981 
L 82.895094 86.32515 
L 84.790189 81.986652 
L 86.685283 82.112831 
L 88.580377 87.661648 
L 90.475472 89.99266 
L 92.370566 91.530036 
L 94.26566 95.866273 
L 96.160755 97.776248 
L 98.055849 108.761876 
L 99.950943 107.922059 
L 101.846038 110.990476 
L 103.741132 109.142227 
L 105.636226 103.64703 
L 107.531321 104.643442 
L 109.426415 108.921483 
L 111.321509 113.615134 
L 113.216604 111.790033 
L 115.111698 116.389282 
L 117.006792 113.230747 
L 118.901887 111.373069 
L 122.692075 113.393991 
L 124.58717 114.489817 
L 126.482264 117.021617 
L 128.377358 121.921958 
L 130.272453 124.221034 
L 132.167547 121.308711 
L 134.062642 118.931611 
L 135.957736 113.785324 
L 137.85283 109.958736 
L 139.747925 102.203761 
L 141.643019 106.785336 
L 143.538113 110.212657 
L 145.433208 107.646718 
L 147.328302 108.625108 
L 149.223396 114.12005 
L 151.118491 114.190835 
L 153.013585 117.645561 
L 154.908679 118.30921 
L 156.803774 117.582686 
L 158.698868 115.993881 
L 160.593962 117.982952 
L 162.489057 120.957715 
L 164.384151 116.658926 
L 166.279245 114.027114 
L 168.17434 110.322871 
L 170.069434 106.974991 
L 171.964528 101.20996 
L 173.859623 101.485134 
L 175.754717 99.837788 
L 177.649811 90.886531 
L 179.544906 89.507972 
L 181.44 90.464936 
L 185.230189 79.689864 
L 187.125283 81.361417 
L 189.020377 83.850972 
L 190.915472 84.233097 
L 192.810566 86.147518 
L 194.70566 87.222593 
L 196.600755 86.146614 
L 198.495849 86.429345 
L 200.390943 83.409581 
L 202.286038 81.232864 
L 204.181132 81.004454 
L 206.076226 75.709535 
L 207.971321 78.428651 
L 209.866415 75.443072 
L 211.761509 78.387974 
L 213.656604 78.792965 
L 217.446792 85.559273 
L 219.341887 85.491445 
L 221.236981 87.078725 
L 223.132075 89.799352 
L 225.02717 92.207445 
L 226.922264 95.549082 
L 228.817358 96.133986 
L 230.712453 98.16734 
L 232.607547 100.82098 
L 234.502642 101.07367 
L 236.397736 102.986242 
L 238.29283 104.276244 
L 240.187925 104.024512 
L 242.083019 105.371953 
L 243.978113 111.567322 
L 245.873208 111.738643 
L 247.768302 117.022415 
L 249.663396 115.306515 
L 251.558491 116.930265 
L 253.453585 121.4813 
L 255.348679 122.915874 
L 257.243774 127.287778 
L 259.138868 133.099107 
L 261.033962 137.124782 
L 262.929057 126.499137 
L 264.824151 120.795826 
L 266.719245 118.940194 
L 268.61434 115.929273 
L 270.509434 114.520935 
L 272.404528 116.664572 
L 276.194717 117.882719 
L 278.089811 121.190509 
L 279.984906 120.993777 
L 281.88 130.116232 
L 283.775094 133.13204 
L 285.670189 142.241618 
L 287.565283 147.680902 
L 289.460377 148.892032 
L 291.355472 149.329346 
L 293.250566 145.995586 
L 295.14566 146.704751 
L 297.040755 144.656436 
L 298.935849 145.396112 
L 300.830943 147.140123 
L 302.726038 147.413852 
L 304.621132 148.978681 
L 306.516226 150.091633 
L 308.411321 154.252638 
L 310.306415 160.352343 
L 312.201509 154.010787 
L 314.096604 147.230361 
L 315.991698 148.301164 
L 317.886792 150.552605 
L 319.781887 150.308033 
L 321.676981 153.012007 
L 323.572075 156.977365 
L 325.46717 157.865189 
L 327.362264 161.150346 
L 329.257358 160.90174 
L 331.152453 161.839429 
L 333.047547 161.066116 
L 334.942642 156.99108 
L 336.837736 162.678233 
L 338.73283 167.567303 
L 340.627925 169.788325 
L 342.523019 172.240698 
L 344.418113 176.915018 
L 346.313208 179.459859 
L 348.208302 177.416854 
L 350.103396 177.701931 
L 351.998491 180.654085 
L 353.893585 180.413964 
L 355.788679 179.708015 
L 357.683774 178.426138 
L 359.578868 177.687729 
L 361.473962 174.007833 
L 363.369057 172.687202 
L 365.264151 175.540756 
L 367.159245 174.434043 
L 369.05434 176.310053 
L 370.949434 175.828421 
L 372.844528 179.871637 
L 374.739623 179.325701 
L 376.634717 180.175448 
L 378.529811 179.992461 
L 380.424906 181.670219 
L 382.32 181.227201 
L 384.215094 179.879667 
L 386.110189 179.458946 
L 388.005283 180.475975 
L 391.795472 182.790871 
L 393.690566 180.949669 
L 395.58566 177.943315 
L 397.480755 169.054686 
L 399.375849 163.940642 
L 403.166038 151.118067 
L 405.061132 151.573208 
L 406.956226 144.323082 
L 408.851321 141.379063 
L 410.746415 144.388792 
L 412.641509 142.961007 
L 414.536604 136.333758 
L 416.431698 128.220897 
L 420.221887 110.745237 
L 422.116981 109.20518 
L 424.012075 105.657489 
L 425.90717 103.485239 
L 427.802264 102.730432 
L 429.697358 99.301129 
L 431.592453 96.581641 
L 433.487547 98.574666 
L 435.382642 96.348311 
L 437.277736 100.354131 
L 439.17283 98.743393 
L 441.067925 89.545614 
L 442.963019 91.82165 
L 444.858113 89.180226 
L 446.753208 83.852216 
L 448.648302 80.535005 
L 450.543396 77.468766 
L 452.438491 75.74552 
L 454.333585 76.735582 
L 456.228679 76.798215 
L 458.123774 78.045845 
L 460.018868 78.494626 
L 461.913962 75.64705 
L 463.809057 78.770509 
L 465.704151 80.392883 
L 467.599245 79.091556 
L 469.49434 86.727061 
L 471.389434 89.023408 
L 473.284528 99.414314 
L 475.179623 104.355219 
L 477.074717 107.333393 
L 478.969811 112.393839 
L 480.864906 110.307707 
L 482.76 112.511187 
L 484.655094 116.208952 
L 486.550189 118.111445 
L 488.445283 116.883094 
L 490.340377 119.44563 
L 492.235472 122.595497 
L 494.130566 127.405018 
L 496.02566 136.371918 
L 499.815849 140.5349 
L 501.710943 144.043392 
L 503.606038 146.509625 
L 505.501132 153.0157 
L 507.396226 153.029879 
L 509.291321 153.436039 
L 511.186415 158.13711 
L 513.081509 154.611122 
L 514.976604 155.41289 
L 516.871698 152.587631 
L 518.766792 147.918478 
L 520.661887 142.819228 
L 522.556981 147.499793 
L 524.452075 146.960311 
L 526.34717 145.319383 
L 528.242264 146.439101 
L 530.137358 145.991498 
L 532.032453 144.213405 
L 533.927547 139.554271 
L 535.822642 139.103757 
L 537.717736 144.18739 
L 539.61283 146.7412 
L 541.507925 142.123414 
L 543.403019 142.367983 
L 545.298113 137.647319 
L 547.193208 132.25984 
L 549.088302 124.550201 
L 550.983396 119.714461 
L 552.878491 120.516976 
L 554.773585 112.117078 
L 556.668679 105.443057 
L 558.563774 100.051364 
L 560.458868 100.915703 
L 562.353962 105.686252 
L 564.249057 103.434969 
L 566.144151 96.936418 
L 568.039245 97.169858 
L 569.93434 98.096214 
L 571.829434 90.266774 
L 573.724528 89.132193 
L 575.619623 92.605895 
L 577.514717 94.211009 
L 579.409811 95.021616 
L 581.304906 95.692947 
L 583.2 98.266136 
L 583.2 98.266136 
" style="fill:none;stroke:#0000ff;stroke-linecap:square;stroke-width:1.5;"/>
   </g>
   <g id="patch_3">
    <path d="M 81 192.24 
L 81 25.92 
" style="fill:none;stroke:#000000;stroke-linecap:square;stroke-linejoin:miter;stroke-width:0.8;"/>
   </g>
   <g id="patch_4">
    <path d="M 583.2 192.24 
L 583.2 25.92 
" style="fill:none;stroke:#000000;stroke-linecap:square;stroke-linejoin:miter;stroke-width:0.8;"/>
   </g>
   <g id="patch_5">
    <path d="M 81 192.24 
L 583.2 192.24 
" style="fill:none;stroke:#000000;stroke-linecap:square;stroke-linejoin:miter;stroke-width:0.8;"/>
   </g>
   <g id="patch_6">
    <path d="M 81 25.92 
L 583.2 25.92 
" style="fill:none;stroke:#000000;stroke-linecap:square;stroke-linejoin:miter;stroke-width:0.8;"/>
   </g>
   <g id="text_15">
    <!-- Motor cortex, Num Trials=10 All unstimulated trials -->
    <defs>
     <path d="M 30.609375 48.390625 
Q 23.390625 48.390625 19.1875 42.75 
Q 14.984375 37.109375 14.984375 27.296875 
Q 14.984375 17.484375 19.15625 11.84375 
Q 23.34375 6.203125 30.609375 6.203125 
Q 37.796875 6.203125 41.984375 11.859375 
Q 46.1875 17.53125 46.1875 27.296875 
Q 46.1875 37.015625 41.984375 42.703125 
Q 37.796875 48.390625 30.609375 48.390625 
z
M 30.609375 56 
Q 42.328125 56 49.015625 48.375 
Q 55.71875 40.765625 55.71875 27.296875 
Q 55.71875 13.875 49.015625 6.21875 
Q 42.328125 -1.421875 30.609375 -1.421875 
Q 18.84375 -1.421875 12.171875 6.21875 
Q 5.515625 13.875 5.515625 27.296875 
Q 5.515625 40.765625 12.171875 48.375 
Q 18.84375 56 30.609375 56 
z
" id="DejaVuSans-111"/>
     <path d="M 18.3125 70.21875 
L 18.3125 54.6875 
L 36.8125 54.6875 
L 36.8125 47.703125 
L 18.3125 47.703125 
L 18.3125 18.015625 
Q 18.3125 11.328125 20.140625 9.421875 
Q 21.96875 7.515625 27.59375 7.515625 
L 36.8125 7.515625 
L 36.8125 0 
L 27.59375 0 
Q 17.1875 0 13.234375 3.875 
Q 9.28125 7.765625 9.28125 18.015625 
L 9.28125 47.703125 
L 2.6875 47.703125 
L 2.6875 54.6875 
L 9.28125 54.6875 
L 9.28125 70.21875 
z
" id="DejaVuSans-116"/>
     <path d="M 41.109375 46.296875 
Q 39.59375 47.171875 37.8125 47.578125 
Q 36.03125 48 33.890625 48 
Q 26.265625 48 22.1875 43.046875 
Q 18.109375 38.09375 18.109375 28.8125 
L 18.109375 0 
L 9.078125 0 
L 9.078125 54.6875 
L 18.109375 54.6875 
L 18.109375 46.1875 
Q 20.953125 51.171875 25.484375 53.578125 
Q 30.03125 56 36.53125 56 
Q 37.453125 56 38.578125 55.875 
Q 39.703125 55.765625 41.0625 55.515625 
z
" id="DejaVuSans-114"/>
     <path d="M 48.78125 52.59375 
L 48.78125 44.1875 
Q 44.96875 46.296875 41.140625 47.34375 
Q 37.3125 48.390625 33.40625 48.390625 
Q 24.65625 48.390625 19.8125 42.84375 
Q 14.984375 37.3125 14.984375 27.296875 
Q 14.984375 17.28125 19.8125 11.734375 
Q 24.65625 6.203125 33.40625 6.203125 
Q 37.3125 6.203125 41.140625 7.25 
Q 44.96875 8.296875 48.78125 10.40625 
L 48.78125 2.09375 
Q 45.015625 0.34375 40.984375 -0.53125 
Q 36.96875 -1.421875 32.421875 -1.421875 
Q 20.0625 -1.421875 12.78125 6.34375 
Q 5.515625 14.109375 5.515625 27.296875 
Q 5.515625 40.671875 12.859375 48.328125 
Q 20.21875 56 33.015625 56 
Q 37.15625 56 41.109375 55.140625 
Q 45.0625 54.296875 48.78125 52.59375 
z
" id="DejaVuSans-99"/>
     <path d="M 54.890625 54.6875 
L 35.109375 28.078125 
L 55.90625 0 
L 45.3125 0 
L 29.390625 21.484375 
L 13.484375 0 
L 2.875 0 
L 24.125 28.609375 
L 4.6875 54.6875 
L 15.28125 54.6875 
L 29.78125 35.203125 
L 44.28125 54.6875 
z
" id="DejaVuSans-120"/>
     <path d="M 11.71875 12.40625 
L 22.015625 12.40625 
L 22.015625 4 
L 14.015625 -11.625 
L 7.71875 -11.625 
L 11.71875 4 
z
" id="DejaVuSans-44"/>
     <path d="M 9.8125 72.90625 
L 23.09375 72.90625 
L 55.421875 11.921875 
L 55.421875 72.90625 
L 64.984375 72.90625 
L 64.984375 0 
L 51.703125 0 
L 19.390625 60.984375 
L 19.390625 0 
L 9.8125 0 
z
" id="DejaVuSans-78"/>
     <path d="M 8.5 21.578125 
L 8.5 54.6875 
L 17.484375 54.6875 
L 17.484375 21.921875 
Q 17.484375 14.15625 20.5 10.265625 
Q 23.53125 6.390625 29.59375 6.390625 
Q 36.859375 6.390625 41.078125 11.03125 
Q 45.3125 15.671875 45.3125 23.6875 
L 45.3125 54.6875 
L 54.296875 54.6875 
L 54.296875 0 
L 45.3125 0 
L 45.3125 8.40625 
Q 42.046875 3.421875 37.71875 1 
Q 33.40625 -1.421875 27.6875 -1.421875 
Q 18.265625 -1.421875 13.375 4.4375 
Q 8.5 10.296875 8.5 21.578125 
z
M 31.109375 56 
z
" id="DejaVuSans-117"/>
     <path d="M 34.28125 27.484375 
Q 23.390625 27.484375 19.1875 25 
Q 14.984375 22.515625 14.984375 16.5 
Q 14.984375 11.71875 18.140625 8.90625 
Q 21.296875 6.109375 26.703125 6.109375 
Q 34.1875 6.109375 38.703125 11.40625 
Q 43.21875 16.703125 43.21875 25.484375 
L 43.21875 27.484375 
z
M 52.203125 31.203125 
L 52.203125 0 
L 43.21875 0 
L 43.21875 8.296875 
Q 40.140625 3.328125 35.546875 0.953125 
Q 30.953125 -1.421875 24.3125 -1.421875 
Q 15.921875 -1.421875 10.953125 3.296875 
Q 6 8.015625 6 15.921875 
Q 6 25.140625 12.171875 29.828125 
Q 18.359375 34.515625 30.609375 34.515625 
L 43.21875 34.515625 
L 43.21875 35.40625 
Q 43.21875 41.609375 39.140625 45 
Q 35.0625 48.390625 27.6875 48.390625 
Q 23 48.390625 18.546875 47.265625 
Q 14.109375 46.140625 10.015625 43.890625 
L 10.015625 52.203125 
Q 14.9375 54.109375 19.578125 55.046875 
Q 24.21875 56 28.609375 56 
Q 40.484375 56 46.34375 49.84375 
Q 52.203125 43.703125 52.203125 31.203125 
z
" id="DejaVuSans-97"/>
     <path d="M 9.421875 75.984375 
L 18.40625 75.984375 
L 18.40625 0 
L 9.421875 0 
z
" id="DejaVuSans-108"/>
     <path d="M 10.59375 45.40625 
L 73.1875 45.40625 
L 73.1875 37.203125 
L 10.59375 37.203125 
z
M 10.59375 25.484375 
L 73.1875 25.484375 
L 73.1875 17.1875 
L 10.59375 17.1875 
z
" id="DejaVuSans-61"/>
     <path d="M 34.1875 63.1875 
L 20.796875 26.90625 
L 47.609375 26.90625 
z
M 28.609375 72.90625 
L 39.796875 72.90625 
L 67.578125 0 
L 57.328125 0 
L 50.6875 18.703125 
L 17.828125 18.703125 
L 11.1875 0 
L 0.78125 0 
z
" id="DejaVuSans-65"/>
     <path d="M 54.890625 33.015625 
L 54.890625 0 
L 45.90625 0 
L 45.90625 32.71875 
Q 45.90625 40.484375 42.875 44.328125 
Q 39.84375 48.1875 33.796875 48.1875 
Q 26.515625 48.1875 22.3125 43.546875 
Q 18.109375 38.921875 18.109375 30.90625 
L 18.109375 0 
L 9.078125 0 
L 9.078125 54.6875 
L 18.109375 54.6875 
L 18.109375 46.1875 
Q 21.34375 51.125 25.703125 53.5625 
Q 30.078125 56 35.796875 56 
Q 45.21875 56 50.046875 50.171875 
Q 54.890625 44.34375 54.890625 33.015625 
z
" id="DejaVuSans-110"/>
     <path d="M 45.40625 46.390625 
L 45.40625 75.984375 
L 54.390625 75.984375 
L 54.390625 0 
L 45.40625 0 
L 45.40625 8.203125 
Q 42.578125 3.328125 38.25 0.953125 
Q 33.9375 -1.421875 27.875 -1.421875 
Q 17.96875 -1.421875 11.734375 6.484375 
Q 5.515625 14.40625 5.515625 27.296875 
Q 5.515625 40.1875 11.734375 48.09375 
Q 17.96875 56 27.875 56 
Q 33.9375 56 38.25 53.625 
Q 42.578125 51.265625 45.40625 46.390625 
z
M 14.796875 27.296875 
Q 14.796875 17.390625 18.875 11.75 
Q 22.953125 6.109375 30.078125 6.109375 
Q 37.203125 6.109375 41.296875 11.75 
Q 45.40625 17.390625 45.40625 27.296875 
Q 45.40625 37.203125 41.296875 42.84375 
Q 37.203125 48.484375 30.078125 48.484375 
Q 22.953125 48.484375 18.875 42.84375 
Q 14.796875 37.203125 14.796875 27.296875 
z
" id="DejaVuSans-100"/>
    </defs>
    <g transform="translate(177.343125 19.92)scale(0.12 -0.12)">
     <use xlink:href="#DejaVuSans-77"/>
     <use x="86.279297" xlink:href="#DejaVuSans-111"/>
     <use x="147.460938" xlink:href="#DejaVuSans-116"/>
     <use x="186.669922" xlink:href="#DejaVuSans-111"/>
     <use x="247.851562" xlink:href="#DejaVuSans-114"/>
     <use x="288.964844" xlink:href="#DejaVuSans-32"/>
     <use x="320.751953" xlink:href="#DejaVuSans-99"/>
     <use x="375.732422" xlink:href="#DejaVuSans-111"/>
     <use x="436.914062" xlink:href="#DejaVuSans-114"/>
     <use x="478.027344" xlink:href="#DejaVuSans-116"/>
     <use x="517.236328" xlink:href="#DejaVuSans-101"/>
     <use x="578.744141" xlink:href="#DejaVuSans-120"/>
     <use x="637.923828" xlink:href="#DejaVuSans-44"/>
     <use x="669.710938" xlink:href="#DejaVuSans-32"/>
     <use x="701.498047" xlink:href="#DejaVuSans-78"/>
     <use x="776.302734" xlink:href="#DejaVuSans-117"/>
     <use x="839.681641" xlink:href="#DejaVuSans-109"/>
     <use x="937.09375" xlink:href="#DejaVuSans-32"/>
     <use x="968.880859" xlink:href="#DejaVuSans-84"/>
     <use x="1029.746094" xlink:href="#DejaVuSans-114"/>
     <use x="1070.859375" xlink:href="#DejaVuSans-105"/>
     <use x="1098.642578" xlink:href="#DejaVuSans-97"/>
     <use x="1159.921875" xlink:href="#DejaVuSans-108"/>
     <use x="1187.705078" xlink:href="#DejaVuSans-115"/>
     <use x="1239.804688" xlink:href="#DejaVuSans-61"/>
     <use x="1323.59375" xlink:href="#DejaVuSans-49"/>
     <use x="1387.216797" xlink:href="#DejaVuSans-48"/>
     <use x="1450.839844" xlink:href="#DejaVuSans-32"/>
     <use x="1482.626953" xlink:href="#DejaVuSans-65"/>
     <use x="1551.035156" xlink:href="#DejaVuSans-108"/>
     <use x="1578.818359" xlink:href="#DejaVuSans-108"/>
     <use x="1606.601562" xlink:href="#DejaVuSans-32"/>
     <use x="1638.388672" xlink:href="#DejaVuSans-117"/>
     <use x="1701.767578" xlink:href="#DejaVuSans-110"/>
     <use x="1765.146484" xlink:href="#DejaVuSans-115"/>
     <use x="1817.246094" xlink:href="#DejaVuSans-116"/>
     <use x="1856.455078" xlink:href="#DejaVuSans-105"/>
     <use x="1884.238281" xlink:href="#DejaVuSans-109"/>
     <use x="1981.650391" xlink:href="#DejaVuSans-117"/>
     <use x="2045.029297" xlink:href="#DejaVuSans-108"/>
     <use x="2072.8125" xlink:href="#DejaVuSans-97"/>
     <use x="2134.091797" xlink:href="#DejaVuSans-116"/>
     <use x="2173.300781" xlink:href="#DejaVuSans-101"/>
     <use x="2234.824219" xlink:href="#DejaVuSans-100"/>
     <use x="2298.300781" xlink:href="#DejaVuSans-32"/>
     <use x="2330.087891" xlink:href="#DejaVuSans-116"/>
     <use x="2369.296875" xlink:href="#DejaVuSans-114"/>
     <use x="2410.410156" xlink:href="#DejaVuSans-105"/>
     <use x="2438.193359" xlink:href="#DejaVuSans-97"/>
     <use x="2499.472656" xlink:href="#DejaVuSans-108"/>
     <use x="2527.255859" xlink:href="#DejaVuSans-115"/>
    </g>
   </g>
   <g id="legend_1">
    <g id="patch_7">
     <path d="M 440.16 70.77375 
L 574.8 70.77375 
Q 577.2 70.77375 577.2 68.37375 
L 577.2 34.32 
Q 577.2 31.92 574.8 31.92 
L 440.16 31.92 
Q 437.76 31.92 437.76 34.32 
L 437.76 68.37375 
Q 437.76 70.77375 440.16 70.77375 
z
" style="fill:#ffffff;opacity:0.8;stroke:#cccccc;stroke-linejoin:miter;"/>
    </g>
    <g id="line2d_14">
     <path d="M 442.56 41.64 
L 466.56 41.64 
" style="fill:none;stroke:#0000ff;stroke-linecap:square;stroke-width:1.5;"/>
    </g>
    <g id="line2d_15"/>
    <g id="text_16">
     <!-- COM-Binomial $p$ -->
     <defs>
      <path d="M 4.890625 31.390625 
L 31.203125 31.390625 
L 31.203125 23.390625 
L 4.890625 23.390625 
z
" id="DejaVuSans-45"/>
      <path d="M 19.671875 34.8125 
L 19.671875 8.109375 
L 35.5 8.109375 
Q 43.453125 8.109375 47.28125 11.40625 
Q 51.125 14.703125 51.125 21.484375 
Q 51.125 28.328125 47.28125 31.5625 
Q 43.453125 34.8125 35.5 34.8125 
z
M 19.671875 64.796875 
L 19.671875 42.828125 
L 34.28125 42.828125 
Q 41.5 42.828125 45.03125 45.53125 
Q 48.578125 48.25 48.578125 53.8125 
Q 48.578125 59.328125 45.03125 62.0625 
Q 41.5 64.796875 34.28125 64.796875 
z
M 9.8125 72.90625 
L 35.015625 72.90625 
Q 46.296875 72.90625 52.390625 68.21875 
Q 58.5 63.53125 58.5 54.890625 
Q 58.5 48.1875 55.375 44.234375 
Q 52.25 40.28125 46.1875 39.3125 
Q 53.46875 37.75 57.5 32.78125 
Q 61.53125 27.828125 61.53125 20.40625 
Q 61.53125 10.640625 54.890625 5.3125 
Q 48.25 0 35.984375 0 
L 9.8125 0 
z
" id="DejaVuSans-66"/>
     </defs>
     <g transform="translate(476.16 45.84)scale(0.12 -0.12)">
      <use transform="translate(0 0.015625)" xlink:href="#DejaVuSans-67"/>
      <use transform="translate(69.824219 0.015625)" xlink:href="#DejaVuSans-79"/>
      <use transform="translate(148.535156 0.015625)" xlink:href="#DejaVuSans-77"/>
      <use transform="translate(234.814453 0.015625)" xlink:href="#DejaVuSans-45"/>
      <use transform="translate(270.898438 0.015625)" xlink:href="#DejaVuSans-66"/>
      <use transform="translate(339.501953 0.015625)" xlink:href="#DejaVuSans-105"/>
      <use transform="translate(367.285156 0.015625)" xlink:href="#DejaVuSans-110"/>
      <use transform="translate(430.664062 0.015625)" xlink:href="#DejaVuSans-111"/>
      <use transform="translate(491.845703 0.015625)" xlink:href="#DejaVuSans-109"/>
      <use transform="translate(589.257812 0.015625)" xlink:href="#DejaVuSans-105"/>
      <use transform="translate(617.041016 0.015625)" xlink:href="#DejaVuSans-97"/>
      <use transform="translate(678.320312 0.015625)" xlink:href="#DejaVuSans-108"/>
      <use transform="translate(706.103516 0.015625)" xlink:href="#DejaVuSans-32"/>
      <use transform="translate(737.890625 0.015625)" xlink:href="#DejaVuSans-Oblique-112"/>
     </g>
    </g>
    <g id="patch_8">
     <path d="M 442.56 63.478125 
L 466.56 63.478125 
L 466.56 55.078125 
L 442.56 55.078125 
z
" style="fill:#0000ff;opacity:0.3;stroke:#0000ff;stroke-linejoin:miter;"/>
    </g>
    <g id="text_17">
     <!-- Std. Err. -->
     <defs>
      <path d="M 53.515625 70.515625 
L 53.515625 60.890625 
Q 47.90625 63.578125 42.921875 64.890625 
Q 37.9375 66.21875 33.296875 66.21875 
Q 25.25 66.21875 20.875 63.09375 
Q 16.5 59.96875 16.5 54.203125 
Q 16.5 49.359375 19.40625 46.890625 
Q 22.3125 44.4375 30.421875 42.921875 
L 36.375 41.703125 
Q 47.40625 39.59375 52.65625 34.296875 
Q 57.90625 29 57.90625 20.125 
Q 57.90625 9.515625 50.796875 4.046875 
Q 43.703125 -1.421875 29.984375 -1.421875 
Q 24.8125 -1.421875 18.96875 -0.25 
Q 13.140625 0.921875 6.890625 3.21875 
L 6.890625 13.375 
Q 12.890625 10.015625 18.65625 8.296875 
Q 24.421875 6.59375 29.984375 6.59375 
Q 38.421875 6.59375 43.015625 9.90625 
Q 47.609375 13.234375 47.609375 19.390625 
Q 47.609375 24.75 44.3125 27.78125 
Q 41.015625 30.8125 33.5 32.328125 
L 27.484375 33.5 
Q 16.453125 35.6875 11.515625 40.375 
Q 6.59375 45.0625 6.59375 53.421875 
Q 6.59375 63.09375 13.40625 68.65625 
Q 20.21875 74.21875 32.171875 74.21875 
Q 37.3125 74.21875 42.625 73.28125 
Q 47.953125 72.359375 53.515625 70.515625 
z
" id="DejaVuSans-83"/>
      <path d="M 9.8125 72.90625 
L 55.90625 72.90625 
L 55.90625 64.59375 
L 19.671875 64.59375 
L 19.671875 43.015625 
L 54.390625 43.015625 
L 54.390625 34.71875 
L 19.671875 34.71875 
L 19.671875 8.296875 
L 56.78125 8.296875 
L 56.78125 0 
L 9.8125 0 
z
" id="DejaVuSans-69"/>
     </defs>
     <g transform="translate(476.16 63.478125)scale(0.12 -0.12)">
      <use xlink:href="#DejaVuSans-83"/>
      <use x="63.476562" xlink:href="#DejaVuSans-116"/>
      <use x="102.685547" xlink:href="#DejaVuSans-100"/>
      <use x="166.162109" xlink:href="#DejaVuSans-46"/>
      <use x="197.949219" xlink:href="#DejaVuSans-32"/>
      <use x="229.736328" xlink:href="#DejaVuSans-69"/>
      <use x="292.919922" xlink:href="#DejaVuSans-114"/>
      <use x="334.017578" xlink:href="#DejaVuSans-114"/>
      <use x="374.990234" xlink:href="#DejaVuSans-46"/>
     </g>
    </g>
   </g>
  </g>
 </g>
 <defs>
  <clipPath id="p3b72161e2b">
   <rect height="166.32" width="502.2" x="81" y="25.92"/>
  </clipPath>
 </defs>
</svg>
