<?xml version="1.0" encoding="utf-8" standalone="no"?>
<!DOCTYPE svg PUBLIC "-//W3C//DTD SVG 1.1//EN"
  "http://www.w3.org/Graphics/SVG/1.1/DTD/svg11.dtd">
<!-- Created with matplotlib (https://matplotlib.org/) -->
<svg height="216pt" version="1.1" viewBox="0 0 648 216" width="648pt" xmlns="http://www.w3.org/2000/svg" xmlns:xlink="http://www.w3.org/1999/xlink">
 <defs>
  <style type="text/css">
*{stroke-linecap:butt;stroke-linejoin:round;}
  </style>
 </defs>
 <g id="figure_1">
  <g id="patch_1">
   <path d="M 0 216 
L 648 216 
L 648 0 
L 0 0 
z
" style="fill:#ffffff;"/>
  </g>
  <g id="axes_1">
   <g id="patch_2">
    <path d="M 81 192.24 
L 583.2 192.24 
L 583.2 25.92 
L 81 25.92 
z
" style="fill:#ffffff;"/>
   </g>
   <g id="PolyCollection_1">
    <defs>
     <path d="M 142.590566 -23.76 
L 142.590566 -190.08 
L 426.854717 -190.08 
L 426.854717 -23.76 
L 426.854717 -23.76 
L 142.590566 -23.76 
z
" id="mc472260085" style="stroke:#808080;stroke-opacity:0.3;"/>
    </defs>
    <g clip-path="url(#pffc043869d)">
     <use style="fill:#808080;fill-opacity:0.3;stroke:#808080;stroke-opacity:0.3;" x="0" xlink:href="#mc472260085" y="216"/>
    </g>
   </g>
   <g id="PolyCollection_2">
    <defs>
     <path d="M 81 -103.768766 
L 81 -67.249097 
L 82.895094 -65.854061 
L 84.790189 -68.76932 
L 86.685283 -67.69667 
L 88.580377 -65.973782 
L 90.475472 -67.454571 
L 92.370566 -75.759914 
L 94.26566 -76.687367 
L 96.160755 -77.230986 
L 98.055849 -76.615317 
L 99.950943 -76.144493 
L 101.846038 -77.206997 
L 103.741132 -74.71272 
L 105.636226 -77.062455 
L 107.531321 -74.186131 
L 109.426415 -73.844777 
L 111.321509 -74.573324 
L 113.216604 -77.052338 
L 115.111698 -75.505177 
L 117.006792 -72.823297 
L 118.901887 -69.602418 
L 120.796981 -68.10283 
L 122.692075 -71.278965 
L 124.58717 -68.093734 
L 126.482264 -63.38359 
L 128.377358 -64.815406 
L 130.272453 -67.17236 
L 132.167547 -71.718407 
L 134.062642 -73.824553 
L 135.957736 -78.302911 
L 137.85283 -81.556922 
L 139.747925 -84.063448 
L 141.643019 -90.001911 
L 143.538113 -90.534366 
L 145.433208 -94.908411 
L 147.328302 -96.251429 
L 149.223396 -98.506887 
L 151.118491 -98.299905 
L 153.013585 -101.296694 
L 154.908679 -104.515589 
L 156.803774 -100.079869 
L 158.698868 -98.336108 
L 160.593962 -99.325273 
L 162.489057 -102.036251 
L 164.384151 -98.881409 
L 166.279245 -96.767521 
L 168.17434 -93.747505 
L 170.069434 -91.338816 
L 171.964528 -90.246786 
L 173.859623 -95.323067 
L 175.754717 -89.60766 
L 177.649811 -95.396098 
L 179.544906 -87.472747 
L 181.44 -83.262938 
L 183.335094 -90.918091 
L 185.230189 -96.164394 
L 187.125283 -93.901393 
L 189.020377 -95.4284 
L 190.915472 -96.363383 
L 192.810566 -99.837896 
L 194.70566 -105.008143 
L 196.600755 -103.089127 
L 198.495849 -100.043333 
L 200.390943 -105.084903 
L 202.286038 -104.807224 
L 204.181132 -105.543102 
L 206.076226 -104.895093 
L 207.971321 -106.39453 
L 209.866415 -107.248645 
L 211.761509 -105.508884 
L 213.656604 -106.793863 
L 215.551698 -111.490219 
L 217.446792 -112.690511 
L 219.341887 -113.09335 
L 221.236981 -114.959375 
L 223.132075 -115.127264 
L 225.02717 -110.405874 
L 226.922264 -114.857032 
L 228.817358 -115.547908 
L 230.712453 -114.306426 
L 232.607547 -111.025825 
L 234.502642 -115.91903 
L 236.397736 -121.786787 
L 238.29283 -125.783738 
L 240.187925 -128.354663 
L 242.083019 -127.831506 
L 243.978113 -131.208352 
L 245.873208 -128.483067 
L 247.768302 -130.646287 
L 249.663396 -133.085095 
L 251.558491 -137.901832 
L 253.453585 -137.800711 
L 255.348679 -142.914378 
L 257.243774 -144.591037 
L 259.138868 -142.986555 
L 261.033962 -143.926754 
L 262.929057 -144.624557 
L 264.824151 -141.870203 
L 266.719245 -141.080701 
L 268.61434 -139.703803 
L 270.509434 -135.336081 
L 272.404528 -136.973736 
L 274.299623 -136.265494 
L 276.194717 -133.060824 
L 278.089811 -128.515233 
L 279.984906 -131.292894 
L 281.88 -124.0343 
L 283.775094 -116.383005 
L 285.670189 -112.43757 
L 287.565283 -114.13107 
L 289.460377 -110.044536 
L 291.355472 -105.634073 
L 293.250566 -100.085715 
L 295.14566 -103.607758 
L 297.040755 -101.415276 
L 298.935849 -99.640907 
L 300.830943 -97.301823 
L 302.726038 -93.415592 
L 304.621132 -91.630962 
L 306.516226 -89.529457 
L 308.411321 -94.865061 
L 310.306415 -98.307085 
L 312.201509 -99.223235 
L 314.096604 -97.814434 
L 315.991698 -102.509156 
L 317.886792 -102.744881 
L 319.781887 -106.842192 
L 321.676981 -111.805935 
L 323.572075 -107.61045 
L 325.46717 -103.94406 
L 327.362264 -100.999197 
L 329.257358 -97.698451 
L 331.152453 -98.258721 
L 333.047547 -100.114177 
L 334.942642 -98.850852 
L 336.837736 -96.461608 
L 338.73283 -95.927151 
L 340.627925 -93.875548 
L 342.523019 -93.203891 
L 344.418113 -94.011854 
L 346.313208 -96.462759 
L 348.208302 -99.755962 
L 350.103396 -98.881329 
L 351.998491 -96.706186 
L 353.893585 -94.734836 
L 355.788679 -91.189838 
L 357.683774 -92.52518 
L 359.578868 -99.314584 
L 361.473962 -102.286967 
L 363.369057 -101.610372 
L 365.264151 -103.491707 
L 367.159245 -104.940365 
L 369.05434 -105.203369 
L 370.949434 -107.141898 
L 372.844528 -109.274401 
L 374.739623 -105.140588 
L 376.634717 -100.614846 
L 378.529811 -99.89841 
L 380.424906 -95.568717 
L 382.32 -97.454415 
L 384.215094 -92.414873 
L 386.110189 -89.841667 
L 388.005283 -90.655358 
L 389.900377 -88.653652 
L 391.795472 -82.274171 
L 393.690566 -82.402302 
L 395.58566 -79.867745 
L 397.480755 -82.832389 
L 399.375849 -80.646438 
L 401.270943 -77.680956 
L 403.166038 -80.728103 
L 405.061132 -81.456654 
L 406.956226 -77.602407 
L 408.851321 -77.29919 
L 410.746415 -77.360576 
L 412.641509 -76.988262 
L 414.536604 -79.100691 
L 416.431698 -80.317767 
L 418.326792 -83.508679 
L 420.221887 -80.733969 
L 422.116981 -78.434758 
L 424.012075 -75.450327 
L 425.90717 -73.792627 
L 427.802264 -74.447124 
L 429.697358 -76.326253 
L 431.592453 -79.995323 
L 433.487547 -85.225794 
L 435.382642 -82.793397 
L 437.277736 -80.347844 
L 439.17283 -79.141216 
L 441.067925 -76.470495 
L 442.963019 -78.683505 
L 444.858113 -80.755449 
L 446.753208 -70.813447 
L 448.648302 -74.458999 
L 450.543396 -68.555891 
L 452.438491 -73.628772 
L 454.333585 -70.163047 
L 456.228679 -68.504135 
L 458.123774 -69.772082 
L 460.018868 -71.291437 
L 461.913962 -68.582653 
L 463.809057 -69.668162 
L 465.704151 -65.640967 
L 467.599245 -65.831649 
L 469.49434 -65.713826 
L 471.389434 -61.667036 
L 473.284528 -58.536609 
L 475.179623 -59.214467 
L 477.074717 -59.354895 
L 478.969811 -58.483437 
L 480.864906 -63.013545 
L 482.76 -66.907128 
L 484.655094 -67.172656 
L 486.550189 -69.326502 
L 488.445283 -70.887171 
L 490.340377 -71.40813 
L 492.235472 -68.257026 
L 494.130566 -64.302613 
L 496.02566 -60.026294 
L 497.920755 -61.686603 
L 499.815849 -61.430131 
L 501.710943 -64.744297 
L 503.606038 -64.729887 
L 505.501132 -65.214771 
L 507.396226 -62.600912 
L 509.291321 -60.714292 
L 511.186415 -64.597123 
L 513.081509 -64.363039 
L 514.976604 -62.816831 
L 516.871698 -62.47103 
L 518.766792 -55.688803 
L 520.661887 -56.639406 
L 522.556981 -59.295247 
L 524.452075 -58.765463 
L 526.34717 -62.602765 
L 528.242264 -63.728597 
L 530.137358 -65.78655 
L 532.032453 -67.645354 
L 533.927547 -63.504888 
L 535.822642 -59.853592 
L 537.717736 -60.242006 
L 539.61283 -55.45956 
L 541.507925 -48.745694 
L 543.403019 -44.71776 
L 545.298113 -37.262345 
L 547.193208 -36.583499 
L 549.088302 -36.564906 
L 550.983396 -33.44137 
L 552.878491 -36.183848 
L 554.773585 -34.064963 
L 556.668679 -33.823029 
L 558.563774 -32.155691 
L 560.458868 -28.857494 
L 562.353962 -28.152811 
L 564.249057 -27.636053 
L 566.144151 -24.311888 
L 568.039245 -25.575838 
L 569.93434 -24.136927 
L 571.829434 -26.807118 
L 573.724528 -25.941086 
L 575.619623 -25.395906 
L 577.514717 -23.76 
L 579.409811 -25.208144 
L 581.304906 -25.330622 
L 583.2 -26.090059 
L 583.2 -62.616191 
L 583.2 -62.616191 
L 581.304906 -61.799114 
L 579.409811 -62.184158 
L 577.514717 -59.723695 
L 575.619623 -61.33248 
L 573.724528 -62.919488 
L 571.829434 -64.384327 
L 569.93434 -61.064981 
L 568.039245 -62.389112 
L 566.144151 -61.764701 
L 564.249057 -65.817155 
L 562.353962 -66.583046 
L 560.458868 -66.063116 
L 558.563774 -70.082578 
L 556.668679 -71.451161 
L 554.773585 -72.112587 
L 552.878491 -73.851672 
L 550.983396 -70.41303 
L 549.088302 -74.960554 
L 547.193208 -75.236 
L 545.298113 -75.065558 
L 543.403019 -83.067162 
L 541.507925 -87.444256 
L 539.61283 -94.117077 
L 537.717736 -99.090095 
L 535.822642 -99.239479 
L 533.927547 -103.547028 
L 532.032453 -108.77529 
L 530.137358 -106.92215 
L 528.242264 -105.241503 
L 526.34717 -103.438375 
L 524.452075 -99.242458 
L 522.556981 -99.728581 
L 520.661887 -96.756929 
L 518.766792 -94.963729 
L 516.871698 -102.634569 
L 514.976604 -102.368116 
L 513.081509 -102.60414 
L 511.186415 -102.162663 
L 509.291321 -96.888531 
L 507.396226 -98.722309 
L 505.501132 -102.111322 
L 503.606038 -101.989825 
L 501.710943 -101.879486 
L 499.815849 -98.207031 
L 497.920755 -99.141102 
L 496.02566 -97.454177 
L 494.130566 -102.799087 
L 492.235472 -106.930879 
L 490.340377 -110.379387 
L 488.445283 -110.104533 
L 486.550189 -108.231645 
L 484.655094 -106.455906 
L 482.76 -106.288919 
L 480.864906 -102.664236 
L 478.969811 -97.884542 
L 477.074717 -97.877227 
L 475.179623 -97.987667 
L 473.284528 -97.398461 
L 471.389434 -101.290873 
L 469.49434 -106.606526 
L 467.599245 -106.233707 
L 465.704151 -105.047821 
L 463.809057 -110.382282 
L 461.913962 -108.644169 
L 460.018868 -112.060935 
L 458.123774 -108.694316 
L 456.228679 -107.463892 
L 454.333585 -109.208885 
L 452.438491 -112.622331 
L 450.543396 -107.116251 
L 448.648302 -113.795905 
L 446.753208 -108.318622 
L 444.858113 -119.856592 
L 442.963019 -117.448115 
L 441.067925 -115.251726 
L 439.17283 -118.611697 
L 437.277736 -120.208669 
L 435.382642 -122.91724 
L 433.487547 -124.957943 
L 431.592453 -119.009043 
L 429.697358 -114.805157 
L 427.802264 -112.968543 
L 425.90717 -112.538688 
L 424.012075 -115.417228 
L 422.116981 -118.033021 
L 420.221887 -120.564362 
L 418.326792 -124.262069 
L 416.431698 -120.592019 
L 414.536604 -119.634767 
L 412.641509 -117.314733 
L 410.746415 -118.265508 
L 408.851321 -119.019505 
L 406.956226 -119.46165 
L 405.061132 -123.7568 
L 403.166038 -122.819753 
L 401.270943 -118.684707 
L 399.375849 -122.300391 
L 397.480755 -124.560158 
L 395.58566 -121.646112 
L 393.690566 -125.960243 
L 391.795472 -124.311944 
L 389.900377 -132.071659 
L 388.005283 -133.642814 
L 386.110189 -132.235352 
L 384.215094 -134.298749 
L 382.32 -140.80347 
L 380.424906 -137.995023 
L 378.529811 -142.910752 
L 376.634717 -143.8601 
L 374.739623 -147.539207 
L 372.844528 -152.423128 
L 370.949434 -149.277087 
L 369.05434 -147.678388 
L 367.159245 -147.052776 
L 365.264151 -145.619418 
L 363.369057 -143.012412 
L 361.473962 -145.227861 
L 359.578868 -139.624253 
L 357.683774 -132.013167 
L 355.788679 -129.642462 
L 353.893585 -133.411449 
L 351.998491 -135.41698 
L 350.103396 -138.247014 
L 348.208302 -139.139591 
L 346.313208 -136.068352 
L 344.418113 -133.967297 
L 342.523019 -134.101269 
L 340.627925 -134.863811 
L 338.73283 -138.054426 
L 336.837736 -139.14551 
L 334.942642 -141.994181 
L 333.047547 -142.872924 
L 331.152453 -141.730666 
L 329.257358 -141.342536 
L 327.362264 -144.310236 
L 325.46717 -147.355722 
L 323.572075 -150.972502 
L 321.676981 -155.492257 
L 319.781887 -150.662222 
L 317.886792 -145.520618 
L 315.991698 -145.780379 
L 314.096604 -139.589155 
L 312.201509 -141.413094 
L 310.306415 -140.195069 
L 308.411321 -136.365866 
L 306.516226 -130.157216 
L 304.621132 -131.874643 
L 302.726038 -133.005145 
L 300.830943 -136.717149 
L 298.935849 -139.823654 
L 297.040755 -142.05329 
L 295.14566 -144.257166 
L 293.250566 -139.638026 
L 291.355472 -145.491523 
L 289.460377 -150.024764 
L 287.565283 -154.882779 
L 285.670189 -152.48009 
L 283.775094 -157.292305 
L 281.88 -165.53543 
L 279.984906 -173.837029 
L 278.089811 -170.362333 
L 276.194717 -176.048058 
L 274.299623 -179.4765 
L 272.404528 -181.299404 
L 270.509434 -179.599824 
L 268.61434 -185.635128 
L 266.719245 -186.686493 
L 264.824151 -187.837042 
L 262.929057 -190.08 
L 261.033962 -188.099956 
L 259.138868 -186.387917 
L 257.243774 -188.186756 
L 255.348679 -187.314082 
L 253.453585 -179.696698 
L 251.558491 -178.711526 
L 249.663396 -173.68313 
L 247.768302 -170.9105 
L 245.873208 -168.278843 
L 243.978113 -170.824456 
L 242.083019 -169.399746 
L 240.187925 -169.646092 
L 238.29283 -167.590867 
L 236.397736 -162.997258 
L 234.502642 -156.918209 
L 232.607547 -150.245312 
L 230.712453 -154.40029 
L 228.817358 -155.586815 
L 226.922264 -154.889273 
L 225.02717 -150.463077 
L 223.132075 -156.068159 
L 221.236981 -155.064584 
L 219.341887 -154.31064 
L 217.446792 -154.340827 
L 215.551698 -152.036539 
L 213.656604 -147.753427 
L 211.761509 -146.075292 
L 209.866415 -149.275647 
L 207.971321 -148.773871 
L 206.076226 -146.654888 
L 204.181132 -147.869715 
L 202.286038 -146.25791 
L 200.390943 -147.205511 
L 198.495849 -141.037058 
L 196.600755 -144.084381 
L 194.70566 -147.264586 
L 192.810566 -141.360989 
L 190.915472 -136.959419 
L 189.020377 -136.031802 
L 187.125283 -134.743761 
L 185.230189 -137.700173 
L 183.335094 -131.562903 
L 181.44 -122.869517 
L 179.544906 -126.608772 
L 177.649811 -136.484105 
L 175.754717 -130.370379 
L 173.859623 -138.420544 
L 171.964528 -132.507539 
L 170.069434 -134.092294 
L 168.17434 -136.575382 
L 166.279245 -139.369315 
L 164.384151 -141.692223 
L 162.489057 -145.154177 
L 160.593962 -142.7801 
L 158.698868 -141.262939 
L 156.803774 -143.297559 
L 154.908679 -148.570888 
L 153.013585 -144.729854 
L 151.118491 -140.507846 
L 149.223396 -140.377602 
L 147.328302 -137.290095 
L 145.433208 -136.463124 
L 143.538113 -132.354429 
L 141.643019 -131.620005 
L 139.747925 -126.162909 
L 137.85283 -123.194904 
L 135.957736 -119.682951 
L 134.062642 -114.148971 
L 132.167547 -112.018907 
L 130.272453 -106.268962 
L 128.377358 -104.667298 
L 126.482264 -102.751441 
L 124.58717 -107.074501 
L 122.692075 -110.265361 
L 120.796981 -106.328297 
L 118.901887 -108.757396 
L 117.006792 -110.983094 
L 115.111698 -113.092479 
L 113.216604 -115.517201 
L 111.321509 -112.457634 
L 109.426415 -112.144552 
L 107.531321 -112.637505 
L 105.636226 -115.55474 
L 103.741132 -113.154532 
L 101.846038 -117.119671 
L 99.950943 -115.851442 
L 98.055849 -116.65724 
L 96.160755 -116.423404 
L 94.26566 -115.893913 
L 92.370566 -115.028501 
L 90.475472 -105.742251 
L 88.580377 -104.57577 
L 86.685283 -107.513547 
L 84.790189 -107.42218 
L 82.895094 -103.215974 
L 81 -103.768766 
z
" id="meecd1bdd31" style="stroke:#0000ff;stroke-opacity:0.3;"/>
    </defs>
    <g clip-path="url(#pffc043869d)">
     <use style="fill:#0000ff;fill-opacity:0.3;stroke:#0000ff;stroke-opacity:0.3;" x="0" xlink:href="#meecd1bdd31" y="216"/>
    </g>
   </g>
   <g id="matplotlib.axis_1">
    <g id="xtick_1">
     <g id="line2d_1">
      <defs>
       <path d="M 0 0 
L 0 3.5 
" id="m6624de8033" style="stroke:#000000;stroke-width:0.8;"/>
      </defs>
      <g>
       <use style="stroke:#000000;stroke-width:0.8;" x="142.590566" xlink:href="#m6624de8033" y="192.24"/>
      </g>
     </g>
     <g id="text_1">
      <!-- 0.0 -->
      <defs>
       <path d="M 31.78125 66.40625 
Q 24.171875 66.40625 20.328125 58.90625 
Q 16.5 51.421875 16.5 36.375 
Q 16.5 21.390625 20.328125 13.890625 
Q 24.171875 6.390625 31.78125 6.390625 
Q 39.453125 6.390625 43.28125 13.890625 
Q 47.125 21.390625 47.125 36.375 
Q 47.125 51.421875 43.28125 58.90625 
Q 39.453125 66.40625 31.78125 66.40625 
z
M 31.78125 74.21875 
Q 44.046875 74.21875 50.515625 64.515625 
Q 56.984375 54.828125 56.984375 36.375 
Q 56.984375 17.96875 50.515625 8.265625 
Q 44.046875 -1.421875 31.78125 -1.421875 
Q 19.53125 -1.421875 13.0625 8.265625 
Q 6.59375 17.96875 6.59375 36.375 
Q 6.59375 54.828125 13.0625 64.515625 
Q 19.53125 74.21875 31.78125 74.21875 
z
" id="DejaVuSans-48"/>
       <path d="M 10.6875 12.40625 
L 21 12.40625 
L 21 0 
L 10.6875 0 
z
" id="DejaVuSans-46"/>
      </defs>
      <g transform="translate(133.048691 208.358125)scale(0.12 -0.12)">
       <use xlink:href="#DejaVuSans-48"/>
       <use x="63.623047" xlink:href="#DejaVuSans-46"/>
       <use x="95.410156" xlink:href="#DejaVuSans-48"/>
      </g>
     </g>
    </g>
    <g id="xtick_2">
     <g id="line2d_2">
      <g>
       <use style="stroke:#000000;stroke-width:0.8;" x="237.345283" xlink:href="#m6624de8033" y="192.24"/>
      </g>
     </g>
     <g id="text_2">
      <!-- 0.5 -->
      <defs>
       <path d="M 10.796875 72.90625 
L 49.515625 72.90625 
L 49.515625 64.59375 
L 19.828125 64.59375 
L 19.828125 46.734375 
Q 21.96875 47.46875 24.109375 47.828125 
Q 26.265625 48.1875 28.421875 48.1875 
Q 40.625 48.1875 47.75 41.5 
Q 54.890625 34.8125 54.890625 23.390625 
Q 54.890625 11.625 47.5625 5.09375 
Q 40.234375 -1.421875 26.90625 -1.421875 
Q 22.3125 -1.421875 17.546875 -0.640625 
Q 12.796875 0.140625 7.71875 1.703125 
L 7.71875 11.625 
Q 12.109375 9.234375 16.796875 8.0625 
Q 21.484375 6.890625 26.703125 6.890625 
Q 35.15625 6.890625 40.078125 11.328125 
Q 45.015625 15.765625 45.015625 23.390625 
Q 45.015625 31 40.078125 35.4375 
Q 35.15625 39.890625 26.703125 39.890625 
Q 22.75 39.890625 18.8125 39.015625 
Q 14.890625 38.140625 10.796875 36.28125 
z
" id="DejaVuSans-53"/>
      </defs>
      <g transform="translate(227.803408 208.358125)scale(0.12 -0.12)">
       <use xlink:href="#DejaVuSans-48"/>
       <use x="63.623047" xlink:href="#DejaVuSans-46"/>
       <use x="95.410156" xlink:href="#DejaVuSans-53"/>
      </g>
     </g>
    </g>
    <g id="xtick_3">
     <g id="line2d_3">
      <g>
       <use style="stroke:#000000;stroke-width:0.8;" x="332.1" xlink:href="#m6624de8033" y="192.24"/>
      </g>
     </g>
     <g id="text_3">
      <!-- 1.0 -->
      <defs>
       <path d="M 12.40625 8.296875 
L 28.515625 8.296875 
L 28.515625 63.921875 
L 10.984375 60.40625 
L 10.984375 69.390625 
L 28.421875 72.90625 
L 38.28125 72.90625 
L 38.28125 8.296875 
L 54.390625 8.296875 
L 54.390625 0 
L 12.40625 0 
z
" id="DejaVuSans-49"/>
      </defs>
      <g transform="translate(322.558125 208.358125)scale(0.12 -0.12)">
       <use xlink:href="#DejaVuSans-49"/>
       <use x="63.623047" xlink:href="#DejaVuSans-46"/>
       <use x="95.410156" xlink:href="#DejaVuSans-48"/>
      </g>
     </g>
    </g>
    <g id="xtick_4">
     <g id="line2d_4">
      <g>
       <use style="stroke:#000000;stroke-width:0.8;" x="426.854717" xlink:href="#m6624de8033" y="192.24"/>
      </g>
     </g>
     <g id="text_4">
      <!-- 1.5 -->
      <g transform="translate(417.312842 208.358125)scale(0.12 -0.12)">
       <use xlink:href="#DejaVuSans-49"/>
       <use x="63.623047" xlink:href="#DejaVuSans-46"/>
       <use x="95.410156" xlink:href="#DejaVuSans-53"/>
      </g>
     </g>
    </g>
    <g id="xtick_5">
     <g id="line2d_5">
      <g>
       <use style="stroke:#000000;stroke-width:0.8;" x="521.609434" xlink:href="#m6624de8033" y="192.24"/>
      </g>
     </g>
     <g id="text_5">
      <!-- 2.0 -->
      <defs>
       <path d="M 19.1875 8.296875 
L 53.609375 8.296875 
L 53.609375 0 
L 7.328125 0 
L 7.328125 8.296875 
Q 12.9375 14.109375 22.625 23.890625 
Q 32.328125 33.6875 34.8125 36.53125 
Q 39.546875 41.84375 41.421875 45.53125 
Q 43.3125 49.21875 43.3125 52.78125 
Q 43.3125 58.59375 39.234375 62.25 
Q 35.15625 65.921875 28.609375 65.921875 
Q 23.96875 65.921875 18.8125 64.3125 
Q 13.671875 62.703125 7.8125 59.421875 
L 7.8125 69.390625 
Q 13.765625 71.78125 18.9375 73 
Q 24.125 74.21875 28.421875 74.21875 
Q 39.75 74.21875 46.484375 68.546875 
Q 53.21875 62.890625 53.21875 53.421875 
Q 53.21875 48.921875 51.53125 44.890625 
Q 49.859375 40.875 45.40625 35.40625 
Q 44.1875 33.984375 37.640625 27.21875 
Q 31.109375 20.453125 19.1875 8.296875 
z
" id="DejaVuSans-50"/>
      </defs>
      <g transform="translate(512.067559 208.358125)scale(0.12 -0.12)">
       <use xlink:href="#DejaVuSans-50"/>
       <use x="63.623047" xlink:href="#DejaVuSans-46"/>
       <use x="95.410156" xlink:href="#DejaVuSans-48"/>
      </g>
     </g>
    </g>
    <g id="text_6">
     <!-- Time (s) -->
     <defs>
      <path d="M -0.296875 72.90625 
L 61.375 72.90625 
L 61.375 64.59375 
L 35.5 64.59375 
L 35.5 0 
L 25.59375 0 
L 25.59375 64.59375 
L -0.296875 64.59375 
z
" id="DejaVuSans-84"/>
      <path d="M 9.421875 54.6875 
L 18.40625 54.6875 
L 18.40625 0 
L 9.421875 0 
z
M 9.421875 75.984375 
L 18.40625 75.984375 
L 18.40625 64.59375 
L 9.421875 64.59375 
z
" id="DejaVuSans-105"/>
      <path d="M 52 44.1875 
Q 55.375 50.25 60.0625 53.125 
Q 64.75 56 71.09375 56 
Q 79.640625 56 84.28125 50.015625 
Q 88.921875 44.046875 88.921875 33.015625 
L 88.921875 0 
L 79.890625 0 
L 79.890625 32.71875 
Q 79.890625 40.578125 77.09375 44.375 
Q 74.3125 48.1875 68.609375 48.1875 
Q 61.625 48.1875 57.5625 43.546875 
Q 53.515625 38.921875 53.515625 30.90625 
L 53.515625 0 
L 44.484375 0 
L 44.484375 32.71875 
Q 44.484375 40.625 41.703125 44.40625 
Q 38.921875 48.1875 33.109375 48.1875 
Q 26.21875 48.1875 22.15625 43.53125 
Q 18.109375 38.875 18.109375 30.90625 
L 18.109375 0 
L 9.078125 0 
L 9.078125 54.6875 
L 18.109375 54.6875 
L 18.109375 46.1875 
Q 21.1875 51.21875 25.484375 53.609375 
Q 29.78125 56 35.6875 56 
Q 41.65625 56 45.828125 52.96875 
Q 50 49.953125 52 44.1875 
z
" id="DejaVuSans-109"/>
      <path d="M 56.203125 29.59375 
L 56.203125 25.203125 
L 14.890625 25.203125 
Q 15.484375 15.921875 20.484375 11.0625 
Q 25.484375 6.203125 34.421875 6.203125 
Q 39.59375 6.203125 44.453125 7.46875 
Q 49.3125 8.734375 54.109375 11.28125 
L 54.109375 2.78125 
Q 49.265625 0.734375 44.1875 -0.34375 
Q 39.109375 -1.421875 33.890625 -1.421875 
Q 20.796875 -1.421875 13.15625 6.1875 
Q 5.515625 13.8125 5.515625 26.8125 
Q 5.515625 40.234375 12.765625 48.109375 
Q 20.015625 56 32.328125 56 
Q 43.359375 56 49.78125 48.890625 
Q 56.203125 41.796875 56.203125 29.59375 
z
M 47.21875 32.234375 
Q 47.125 39.59375 43.09375 43.984375 
Q 39.0625 48.390625 32.421875 48.390625 
Q 24.90625 48.390625 20.390625 44.140625 
Q 15.875 39.890625 15.1875 32.171875 
z
" id="DejaVuSans-101"/>
      <path id="DejaVuSans-32"/>
      <path d="M 31 75.875 
Q 24.46875 64.65625 21.28125 53.65625 
Q 18.109375 42.671875 18.109375 31.390625 
Q 18.109375 20.125 21.3125 9.0625 
Q 24.515625 -2 31 -13.1875 
L 23.1875 -13.1875 
Q 15.875 -1.703125 12.234375 9.375 
Q 8.59375 20.453125 8.59375 31.390625 
Q 8.59375 42.28125 12.203125 53.3125 
Q 15.828125 64.359375 23.1875 75.875 
z
" id="DejaVuSans-40"/>
      <path d="M 44.28125 53.078125 
L 44.28125 44.578125 
Q 40.484375 46.53125 36.375 47.5 
Q 32.28125 48.484375 27.875 48.484375 
Q 21.1875 48.484375 17.84375 46.4375 
Q 14.5 44.390625 14.5 40.28125 
Q 14.5 37.15625 16.890625 35.375 
Q 19.28125 33.59375 26.515625 31.984375 
L 29.59375 31.296875 
Q 39.15625 29.25 43.1875 25.515625 
Q 47.21875 21.78125 47.21875 15.09375 
Q 47.21875 7.46875 41.1875 3.015625 
Q 35.15625 -1.421875 24.609375 -1.421875 
Q 20.21875 -1.421875 15.453125 -0.5625 
Q 10.6875 0.296875 5.421875 2 
L 5.421875 11.28125 
Q 10.40625 8.6875 15.234375 7.390625 
Q 20.0625 6.109375 24.8125 6.109375 
Q 31.15625 6.109375 34.5625 8.28125 
Q 37.984375 10.453125 37.984375 14.40625 
Q 37.984375 18.0625 35.515625 20.015625 
Q 33.0625 21.96875 24.703125 23.78125 
L 21.578125 24.515625 
Q 13.234375 26.265625 9.515625 29.90625 
Q 5.8125 33.546875 5.8125 39.890625 
Q 5.8125 47.609375 11.28125 51.796875 
Q 16.75 56 26.8125 56 
Q 31.78125 56 36.171875 55.265625 
Q 40.578125 54.546875 44.28125 53.078125 
z
" id="DejaVuSans-115"/>
      <path d="M 8.015625 75.875 
L 15.828125 75.875 
Q 23.140625 64.359375 26.78125 53.3125 
Q 30.421875 42.28125 30.421875 31.390625 
Q 30.421875 20.453125 26.78125 9.375 
Q 23.140625 -1.703125 15.828125 -13.1875 
L 8.015625 -13.1875 
Q 14.5 -2 17.703125 9.0625 
Q 20.90625 20.125 20.90625 31.390625 
Q 20.90625 42.671875 17.703125 53.65625 
Q 14.5 64.65625 8.015625 75.875 
z
" id="DejaVuSans-41"/>
     </defs>
     <g transform="translate(302.60475 225.7955)scale(0.144 -0.144)">
      <use xlink:href="#DejaVuSans-84"/>
      <use x="61.037109" xlink:href="#DejaVuSans-105"/>
      <use x="88.820312" xlink:href="#DejaVuSans-109"/>
      <use x="186.232422" xlink:href="#DejaVuSans-101"/>
      <use x="247.755859" xlink:href="#DejaVuSans-32"/>
      <use x="279.542969" xlink:href="#DejaVuSans-40"/>
      <use x="318.556641" xlink:href="#DejaVuSans-115"/>
      <use x="370.65625" xlink:href="#DejaVuSans-41"/>
     </g>
    </g>
   </g>
   <g id="matplotlib.axis_2">
    <g id="ytick_1">
     <g id="line2d_6">
      <defs>
       <path d="M 0 0 
L -3.5 0 
" id="mb08541047e" style="stroke:#000000;stroke-width:0.8;"/>
      </defs>
      <g>
       <use style="stroke:#000000;stroke-width:0.8;" x="81" xlink:href="#mb08541047e" y="171.302087"/>
      </g>
     </g>
     <g id="text_7">
      <!-- 0.625 -->
      <defs>
       <path d="M 33.015625 40.375 
Q 26.375 40.375 22.484375 35.828125 
Q 18.609375 31.296875 18.609375 23.390625 
Q 18.609375 15.53125 22.484375 10.953125 
Q 26.375 6.390625 33.015625 6.390625 
Q 39.65625 6.390625 43.53125 10.953125 
Q 47.40625 15.53125 47.40625 23.390625 
Q 47.40625 31.296875 43.53125 35.828125 
Q 39.65625 40.375 33.015625 40.375 
z
M 52.59375 71.296875 
L 52.59375 62.3125 
Q 48.875 64.0625 45.09375 64.984375 
Q 41.3125 65.921875 37.59375 65.921875 
Q 27.828125 65.921875 22.671875 59.328125 
Q 17.53125 52.734375 16.796875 39.40625 
Q 19.671875 43.65625 24.015625 45.921875 
Q 28.375 48.1875 33.59375 48.1875 
Q 44.578125 48.1875 50.953125 41.515625 
Q 57.328125 34.859375 57.328125 23.390625 
Q 57.328125 12.15625 50.6875 5.359375 
Q 44.046875 -1.421875 33.015625 -1.421875 
Q 20.359375 -1.421875 13.671875 8.265625 
Q 6.984375 17.96875 6.984375 36.375 
Q 6.984375 53.65625 15.1875 63.9375 
Q 23.390625 74.21875 37.203125 74.21875 
Q 40.921875 74.21875 44.703125 73.484375 
Q 48.484375 72.75 52.59375 71.296875 
z
" id="DejaVuSans-54"/>
      </defs>
      <g transform="translate(39.64625 175.861149)scale(0.12 -0.12)">
       <use xlink:href="#DejaVuSans-48"/>
       <use x="63.623047" xlink:href="#DejaVuSans-46"/>
       <use x="95.410156" xlink:href="#DejaVuSans-54"/>
       <use x="159.033203" xlink:href="#DejaVuSans-50"/>
       <use x="222.65625" xlink:href="#DejaVuSans-53"/>
      </g>
     </g>
    </g>
    <g id="ytick_2">
     <g id="line2d_7">
      <g>
       <use style="stroke:#000000;stroke-width:0.8;" x="81" xlink:href="#mb08541047e" y="149.856018"/>
      </g>
     </g>
     <g id="text_8">
      <!-- 0.650 -->
      <g transform="translate(39.64625 154.41508)scale(0.12 -0.12)">
       <use xlink:href="#DejaVuSans-48"/>
       <use x="63.623047" xlink:href="#DejaVuSans-46"/>
       <use x="95.410156" xlink:href="#DejaVuSans-54"/>
       <use x="159.033203" xlink:href="#DejaVuSans-53"/>
       <use x="222.65625" xlink:href="#DejaVuSans-48"/>
      </g>
     </g>
    </g>
    <g id="ytick_3">
     <g id="line2d_8">
      <g>
       <use style="stroke:#000000;stroke-width:0.8;" x="81" xlink:href="#mb08541047e" y="128.409948"/>
      </g>
     </g>
     <g id="text_9">
      <!-- 0.675 -->
      <defs>
       <path d="M 8.203125 72.90625 
L 55.078125 72.90625 
L 55.078125 68.703125 
L 28.609375 0 
L 18.3125 0 
L 43.21875 64.59375 
L 8.203125 64.59375 
z
" id="DejaVuSans-55"/>
      </defs>
      <g transform="translate(39.64625 132.969011)scale(0.12 -0.12)">
       <use xlink:href="#DejaVuSans-48"/>
       <use x="63.623047" xlink:href="#DejaVuSans-46"/>
       <use x="95.410156" xlink:href="#DejaVuSans-54"/>
       <use x="159.033203" xlink:href="#DejaVuSans-55"/>
       <use x="222.65625" xlink:href="#DejaVuSans-53"/>
      </g>
     </g>
    </g>
    <g id="ytick_4">
     <g id="line2d_9">
      <g>
       <use style="stroke:#000000;stroke-width:0.8;" x="81" xlink:href="#mb08541047e" y="106.963879"/>
      </g>
     </g>
     <g id="text_10">
      <!-- 0.700 -->
      <g transform="translate(39.64625 111.522942)scale(0.12 -0.12)">
       <use xlink:href="#DejaVuSans-48"/>
       <use x="63.623047" xlink:href="#DejaVuSans-46"/>
       <use x="95.410156" xlink:href="#DejaVuSans-55"/>
       <use x="159.033203" xlink:href="#DejaVuSans-48"/>
       <use x="222.65625" xlink:href="#DejaVuSans-48"/>
      </g>
     </g>
    </g>
    <g id="ytick_5">
     <g id="line2d_10">
      <g>
       <use style="stroke:#000000;stroke-width:0.8;" x="81" xlink:href="#mb08541047e" y="85.51781"/>
      </g>
     </g>
     <g id="text_11">
      <!-- 0.725 -->
      <g transform="translate(39.64625 90.076872)scale(0.12 -0.12)">
       <use xlink:href="#DejaVuSans-48"/>
       <use x="63.623047" xlink:href="#DejaVuSans-46"/>
       <use x="95.410156" xlink:href="#DejaVuSans-55"/>
       <use x="159.033203" xlink:href="#DejaVuSans-50"/>
       <use x="222.65625" xlink:href="#DejaVuSans-53"/>
      </g>
     </g>
    </g>
    <g id="ytick_6">
     <g id="line2d_11">
      <g>
       <use style="stroke:#000000;stroke-width:0.8;" x="81" xlink:href="#mb08541047e" y="64.07174"/>
      </g>
     </g>
     <g id="text_12">
      <!-- 0.750 -->
      <g transform="translate(39.64625 68.630803)scale(0.12 -0.12)">
       <use xlink:href="#DejaVuSans-48"/>
       <use x="63.623047" xlink:href="#DejaVuSans-46"/>
       <use x="95.410156" xlink:href="#DejaVuSans-55"/>
       <use x="159.033203" xlink:href="#DejaVuSans-53"/>
       <use x="222.65625" xlink:href="#DejaVuSans-48"/>
      </g>
     </g>
    </g>
    <g id="ytick_7">
     <g id="line2d_12">
      <g>
       <use style="stroke:#000000;stroke-width:0.8;" x="81" xlink:href="#mb08541047e" y="42.625671"/>
      </g>
     </g>
     <g id="text_13">
      <!-- 0.775 -->
      <g transform="translate(39.64625 47.184734)scale(0.12 -0.12)">
       <use xlink:href="#DejaVuSans-48"/>
       <use x="63.623047" xlink:href="#DejaVuSans-46"/>
       <use x="95.410156" xlink:href="#DejaVuSans-55"/>
       <use x="159.033203" xlink:href="#DejaVuSans-55"/>
       <use x="222.65625" xlink:href="#DejaVuSans-53"/>
      </g>
     </g>
    </g>
    <g id="text_14">
     <!-- COMb $\nu$ -->
     <defs>
      <path d="M 64.40625 67.28125 
L 64.40625 56.890625 
Q 59.421875 61.53125 53.78125 63.8125 
Q 48.140625 66.109375 41.796875 66.109375 
Q 29.296875 66.109375 22.65625 58.46875 
Q 16.015625 50.828125 16.015625 36.375 
Q 16.015625 21.96875 22.65625 14.328125 
Q 29.296875 6.6875 41.796875 6.6875 
Q 48.140625 6.6875 53.78125 8.984375 
Q 59.421875 11.28125 64.40625 15.921875 
L 64.40625 5.609375 
Q 59.234375 2.09375 53.4375 0.328125 
Q 47.65625 -1.421875 41.21875 -1.421875 
Q 24.65625 -1.421875 15.125 8.703125 
Q 5.609375 18.84375 5.609375 36.375 
Q 5.609375 53.953125 15.125 64.078125 
Q 24.65625 74.21875 41.21875 74.21875 
Q 47.75 74.21875 53.53125 72.484375 
Q 59.328125 70.75 64.40625 67.28125 
z
" id="DejaVuSans-67"/>
      <path d="M 39.40625 66.21875 
Q 28.65625 66.21875 22.328125 58.203125 
Q 16.015625 50.203125 16.015625 36.375 
Q 16.015625 22.609375 22.328125 14.59375 
Q 28.65625 6.59375 39.40625 6.59375 
Q 50.140625 6.59375 56.421875 14.59375 
Q 62.703125 22.609375 62.703125 36.375 
Q 62.703125 50.203125 56.421875 58.203125 
Q 50.140625 66.21875 39.40625 66.21875 
z
M 39.40625 74.21875 
Q 54.734375 74.21875 63.90625 63.9375 
Q 73.09375 53.65625 73.09375 36.375 
Q 73.09375 19.140625 63.90625 8.859375 
Q 54.734375 -1.421875 39.40625 -1.421875 
Q 24.03125 -1.421875 14.8125 8.828125 
Q 5.609375 19.09375 5.609375 36.375 
Q 5.609375 53.65625 14.8125 63.9375 
Q 24.03125 74.21875 39.40625 74.21875 
z
" id="DejaVuSans-79"/>
      <path d="M 9.8125 72.90625 
L 24.515625 72.90625 
L 43.109375 23.296875 
L 61.8125 72.90625 
L 76.515625 72.90625 
L 76.515625 0 
L 66.890625 0 
L 66.890625 64.015625 
L 48.09375 14.015625 
L 38.1875 14.015625 
L 19.390625 64.015625 
L 19.390625 0 
L 9.8125 0 
z
" id="DejaVuSans-77"/>
      <path d="M 48.6875 27.296875 
Q 48.6875 37.203125 44.609375 42.84375 
Q 40.53125 48.484375 33.40625 48.484375 
Q 26.265625 48.484375 22.1875 42.84375 
Q 18.109375 37.203125 18.109375 27.296875 
Q 18.109375 17.390625 22.1875 11.75 
Q 26.265625 6.109375 33.40625 6.109375 
Q 40.53125 6.109375 44.609375 11.75 
Q 48.6875 17.390625 48.6875 27.296875 
z
M 18.109375 46.390625 
Q 20.953125 51.265625 25.265625 53.625 
Q 29.59375 56 35.59375 56 
Q 45.5625 56 51.78125 48.09375 
Q 58.015625 40.1875 58.015625 27.296875 
Q 58.015625 14.40625 51.78125 6.484375 
Q 45.5625 -1.421875 35.59375 -1.421875 
Q 29.59375 -1.421875 25.265625 0.953125 
Q 20.953125 3.328125 18.109375 8.203125 
L 18.109375 0 
L 9.078125 0 
L 9.078125 75.984375 
L 18.109375 75.984375 
z
" id="DejaVuSans-98"/>
      <path d="M 14.984375 0 
L 8.9375 54.6875 
L 18.609375 54.6875 
L 23.78125 8.796875 
Q 30.8125 14.84375 37.359375 23.25 
Q 42.28125 29.546875 43.5625 35.015625 
Q 44.140625 37.59375 43.890625 42.484375 
Q 43.65625 48.296875 39.75 54.6875 
L 48.828125 54.6875 
L 48.828125 54.6875 
Q 51.375 50.34375 52.390625 44.28125 
Q 53.375 38.71875 52.640625 34.90625 
Q 50.78125 25.34375 42.484375 16.796875 
Q 31.640625 5.671875 24.5625 0 
z
" id="DejaVuSans-Oblique-957"/>
     </defs>
     <g transform="translate(32.6515 136.872)rotate(-90)scale(0.144 -0.144)">
      <use transform="translate(0 0.015625)" xlink:href="#DejaVuSans-67"/>
      <use transform="translate(69.824219 0.015625)" xlink:href="#DejaVuSans-79"/>
      <use transform="translate(148.535156 0.015625)" xlink:href="#DejaVuSans-77"/>
      <use transform="translate(234.814453 0.015625)" xlink:href="#DejaVuSans-98"/>
      <use transform="translate(298.291016 0.015625)" xlink:href="#DejaVuSans-32"/>
      <use transform="translate(330.078125 0.015625)" xlink:href="#DejaVuSans-Oblique-957"/>
     </g>
    </g>
   </g>
   <g id="line2d_13">
    <path clip-path="url(#pffc043869d)" d="M 81 130.491069 
L 82.895094 131.464982 
L 84.790189 127.90425 
L 86.685283 128.394892 
L 88.580377 130.725224 
L 90.475472 129.401589 
L 92.370566 120.605793 
L 94.26566 119.70936 
L 96.160755 119.172805 
L 98.055849 119.363721 
L 99.950943 120.002032 
L 101.846038 118.836666 
L 103.741132 122.066374 
L 105.636226 119.691402 
L 107.531321 122.588182 
L 109.426415 123.005335 
L 111.321509 122.484521 
L 113.216604 119.715231 
L 115.111698 121.701172 
L 117.006792 124.096804 
L 118.901887 126.820093 
L 120.796981 128.784437 
L 122.692075 125.227837 
L 124.58717 128.415883 
L 126.482264 132.932484 
L 128.377358 131.258648 
L 130.272453 129.279339 
L 132.167547 124.131343 
L 134.062642 122.013238 
L 135.957736 117.007069 
L 137.85283 113.624087 
L 139.747925 110.886822 
L 141.643019 105.189042 
L 143.538113 104.555602 
L 145.433208 100.314232 
L 147.328302 99.229238 
L 149.223396 96.557755 
L 151.118491 96.596124 
L 154.908679 89.456762 
L 156.803774 94.311286 
L 158.698868 96.200476 
L 160.593962 94.947313 
L 162.489057 92.404786 
L 164.384151 95.713184 
L 166.279245 97.931582 
L 168.17434 100.838556 
L 170.069434 103.284445 
L 171.964528 104.622838 
L 173.859623 99.128195 
L 175.754717 106.01098 
L 177.649811 100.059898 
L 179.544906 108.959241 
L 181.44 112.933772 
L 183.335094 104.759503 
L 185.230189 99.067716 
L 187.125283 101.677423 
L 189.020377 100.269899 
L 190.915472 99.338599 
L 192.810566 95.400557 
L 194.70566 89.863636 
L 196.600755 92.413246 
L 198.495849 95.459804 
L 200.390943 89.854793 
L 202.286038 90.467433 
L 204.181132 89.293592 
L 206.076226 90.225009 
L 207.971321 88.415799 
L 209.866415 87.737854 
L 211.761509 90.207912 
L 213.656604 88.726355 
L 215.551698 84.236621 
L 217.446792 82.484331 
L 219.341887 82.298005 
L 221.236981 80.98802 
L 223.132075 80.402289 
L 225.02717 85.565525 
L 226.922264 81.126847 
L 228.817358 80.432638 
L 230.712453 81.646642 
L 232.607547 85.364432 
L 236.397736 73.607978 
L 238.29283 69.312697 
L 240.187925 66.999623 
L 242.083019 67.384374 
L 243.978113 64.983596 
L 245.873208 67.619045 
L 247.768302 65.221607 
L 249.663396 62.615888 
L 251.558491 57.693321 
L 253.453585 57.251295 
L 255.348679 50.88577 
L 257.243774 49.611104 
L 259.138868 51.312764 
L 262.929057 48.647721 
L 264.824151 51.146377 
L 266.719245 52.116403 
L 268.61434 53.330534 
L 270.509434 58.532047 
L 272.404528 56.86343 
L 274.299623 58.129003 
L 276.194717 61.445559 
L 278.089811 66.561217 
L 279.984906 63.435039 
L 283.775094 79.162345 
L 285.670189 83.54117 
L 287.565283 81.493076 
L 291.355472 90.437202 
L 293.250566 96.138129 
L 295.14566 92.067538 
L 297.040755 94.265717 
L 298.935849 96.267719 
L 300.830943 98.990514 
L 302.726038 102.789632 
L 304.621132 104.247197 
L 306.516226 106.156664 
L 308.411321 100.384536 
L 310.306415 96.748923 
L 312.201509 95.681835 
L 314.096604 97.298205 
L 315.991698 91.855232 
L 317.886792 91.867251 
L 321.676981 82.350904 
L 323.572075 86.708524 
L 325.46717 90.350109 
L 329.257358 96.479506 
L 331.152453 96.005307 
L 333.047547 94.506449 
L 334.942642 95.577484 
L 336.837736 98.196441 
L 338.73283 99.009211 
L 340.627925 101.63032 
L 342.523019 102.34742 
L 344.418113 102.010424 
L 346.313208 99.734445 
L 348.208302 96.552224 
L 350.103396 97.435828 
L 351.998491 99.938417 
L 353.893585 101.926858 
L 355.788679 105.58385 
L 357.683774 103.730827 
L 359.578868 96.530582 
L 361.473962 92.242586 
L 363.369057 93.688608 
L 365.264151 91.444437 
L 367.159245 90.003429 
L 369.05434 89.559121 
L 370.949434 87.790507 
L 372.844528 85.151236 
L 374.739623 89.660103 
L 376.634717 93.762527 
L 378.529811 94.595419 
L 380.424906 99.21813 
L 382.32 96.871058 
L 384.215094 102.643189 
L 386.110189 104.961491 
L 388.005283 103.850914 
L 389.900377 105.637345 
L 391.795472 112.706942 
L 393.690566 111.818728 
L 395.58566 115.243072 
L 397.480755 112.303727 
L 399.375849 114.526585 
L 401.270943 117.817168 
L 403.166038 114.226072 
L 405.061132 113.393273 
L 406.956226 117.467971 
L 410.746415 118.186958 
L 412.641509 118.848502 
L 414.536604 116.632271 
L 416.431698 115.545107 
L 418.326792 112.114626 
L 420.221887 115.350834 
L 422.116981 117.766111 
L 424.012075 120.566222 
L 425.90717 122.834342 
L 427.802264 122.292166 
L 429.697358 120.434295 
L 431.592453 116.497817 
L 433.487547 110.908131 
L 435.382642 113.144681 
L 437.277736 115.721744 
L 439.17283 117.123543 
L 441.067925 120.138889 
L 444.858113 115.69398 
L 446.753208 126.433965 
L 448.648302 121.872548 
L 450.543396 128.163929 
L 452.438491 122.874448 
L 454.333585 126.314034 
L 456.228679 128.015987 
L 458.123774 126.766801 
L 460.018868 124.323814 
L 461.913962 127.386589 
L 463.809057 125.974778 
L 465.704151 130.655606 
L 467.599245 129.967322 
L 469.49434 129.839824 
L 471.389434 134.521045 
L 473.284528 138.032465 
L 475.179623 137.398933 
L 477.074717 137.383939 
L 478.969811 137.816011 
L 480.864906 133.161109 
L 482.76 129.401977 
L 484.655094 129.185719 
L 486.550189 127.220926 
L 488.445283 125.504148 
L 490.340377 125.106242 
L 492.235472 128.406047 
L 494.130566 132.44915 
L 496.02566 137.259765 
L 497.920755 135.586147 
L 499.815849 136.181419 
L 501.710943 132.688109 
L 503.606038 132.640144 
L 505.501132 132.336954 
L 507.396226 135.33839 
L 509.291321 137.198589 
L 511.186415 132.620107 
L 513.081509 132.51641 
L 514.976604 133.407527 
L 516.871698 133.4472 
L 518.766792 140.673734 
L 520.661887 139.301833 
L 522.556981 136.488086 
L 524.452075 136.996039 
L 526.34717 132.97943 
L 528.242264 131.51495 
L 532.032453 127.789678 
L 533.927547 132.474042 
L 535.822642 136.453465 
L 537.717736 136.333949 
L 539.61283 141.211682 
L 541.507925 147.905025 
L 543.403019 152.107539 
L 545.298113 159.836049 
L 549.088302 160.23727 
L 550.983396 164.0728 
L 552.878491 160.98224 
L 554.773585 162.911225 
L 556.668679 163.362905 
L 558.563774 164.880865 
L 560.458868 168.539695 
L 562.353962 168.632071 
L 564.249057 169.273396 
L 566.144151 172.961705 
L 568.039245 172.017525 
L 569.93434 173.399046 
L 571.829434 170.404278 
L 575.619623 172.635807 
L 577.514717 174.258153 
L 579.409811 172.303849 
L 581.304906 172.435132 
L 583.2 171.646875 
L 583.2 171.646875 
" style="fill:none;stroke:#0000ff;stroke-linecap:square;stroke-width:1.5;"/>
   </g>
   <g id="patch_3">
    <path d="M 81 192.24 
L 81 25.92 
" style="fill:none;stroke:#000000;stroke-linecap:square;stroke-linejoin:miter;stroke-width:0.8;"/>
   </g>
   <g id="patch_4">
    <path d="M 583.2 192.24 
L 583.2 25.92 
" style="fill:none;stroke:#000000;stroke-linecap:square;stroke-linejoin:miter;stroke-width:0.8;"/>
   </g>
   <g id="patch_5">
    <path d="M 81 192.24 
L 583.2 192.24 
" style="fill:none;stroke:#000000;stroke-linecap:square;stroke-linejoin:miter;stroke-width:0.8;"/>
   </g>
   <g id="patch_6">
    <path d="M 81 25.92 
L 583.2 25.92 
" style="fill:none;stroke:#000000;stroke-linecap:square;stroke-linejoin:miter;stroke-width:0.8;"/>
   </g>
   <g id="text_15">
    <!-- Motor cortex, Num Trials=160 All stimulated trials -->
    <defs>
     <path d="M 30.609375 48.390625 
Q 23.390625 48.390625 19.1875 42.75 
Q 14.984375 37.109375 14.984375 27.296875 
Q 14.984375 17.484375 19.15625 11.84375 
Q 23.34375 6.203125 30.609375 6.203125 
Q 37.796875 6.203125 41.984375 11.859375 
Q 46.1875 17.53125 46.1875 27.296875 
Q 46.1875 37.015625 41.984375 42.703125 
Q 37.796875 48.390625 30.609375 48.390625 
z
M 30.609375 56 
Q 42.328125 56 49.015625 48.375 
Q 55.71875 40.765625 55.71875 27.296875 
Q 55.71875 13.875 49.015625 6.21875 
Q 42.328125 -1.421875 30.609375 -1.421875 
Q 18.84375 -1.421875 12.171875 6.21875 
Q 5.515625 13.875 5.515625 27.296875 
Q 5.515625 40.765625 12.171875 48.375 
Q 18.84375 56 30.609375 56 
z
" id="DejaVuSans-111"/>
     <path d="M 18.3125 70.21875 
L 18.3125 54.6875 
L 36.8125 54.6875 
L 36.8125 47.703125 
L 18.3125 47.703125 
L 18.3125 18.015625 
Q 18.3125 11.328125 20.140625 9.421875 
Q 21.96875 7.515625 27.59375 7.515625 
L 36.8125 7.515625 
L 36.8125 0 
L 27.59375 0 
Q 17.1875 0 13.234375 3.875 
Q 9.28125 7.765625 9.28125 18.015625 
L 9.28125 47.703125 
L 2.6875 47.703125 
L 2.6875 54.6875 
L 9.28125 54.6875 
L 9.28125 70.21875 
z
" id="DejaVuSans-116"/>
     <path d="M 41.109375 46.296875 
Q 39.59375 47.171875 37.8125 47.578125 
Q 36.03125 48 33.890625 48 
Q 26.265625 48 22.1875 43.046875 
Q 18.109375 38.09375 18.109375 28.8125 
L 18.109375 0 
L 9.078125 0 
L 9.078125 54.6875 
L 18.109375 54.6875 
L 18.109375 46.1875 
Q 20.953125 51.171875 25.484375 53.578125 
Q 30.03125 56 36.53125 56 
Q 37.453125 56 38.578125 55.875 
Q 39.703125 55.765625 41.0625 55.515625 
z
" id="DejaVuSans-114"/>
     <path d="M 48.78125 52.59375 
L 48.78125 44.1875 
Q 44.96875 46.296875 41.140625 47.34375 
Q 37.3125 48.390625 33.40625 48.390625 
Q 24.65625 48.390625 19.8125 42.84375 
Q 14.984375 37.3125 14.984375 27.296875 
Q 14.984375 17.28125 19.8125 11.734375 
Q 24.65625 6.203125 33.40625 6.203125 
Q 37.3125 6.203125 41.140625 7.25 
Q 44.96875 8.296875 48.78125 10.40625 
L 48.78125 2.09375 
Q 45.015625 0.34375 40.984375 -0.53125 
Q 36.96875 -1.421875 32.421875 -1.421875 
Q 20.0625 -1.421875 12.78125 6.34375 
Q 5.515625 14.109375 5.515625 27.296875 
Q 5.515625 40.671875 12.859375 48.328125 
Q 20.21875 56 33.015625 56 
Q 37.15625 56 41.109375 55.140625 
Q 45.0625 54.296875 48.78125 52.59375 
z
" id="DejaVuSans-99"/>
     <path d="M 54.890625 54.6875 
L 35.109375 28.078125 
L 55.90625 0 
L 45.3125 0 
L 29.390625 21.484375 
L 13.484375 0 
L 2.875 0 
L 24.125 28.609375 
L 4.6875 54.6875 
L 15.28125 54.6875 
L 29.78125 35.203125 
L 44.28125 54.6875 
z
" id="DejaVuSans-120"/>
     <path d="M 11.71875 12.40625 
L 22.015625 12.40625 
L 22.015625 4 
L 14.015625 -11.625 
L 7.71875 -11.625 
L 11.71875 4 
z
" id="DejaVuSans-44"/>
     <path d="M 9.8125 72.90625 
L 23.09375 72.90625 
L 55.421875 11.921875 
L 55.421875 72.90625 
L 64.984375 72.90625 
L 64.984375 0 
L 51.703125 0 
L 19.390625 60.984375 
L 19.390625 0 
L 9.8125 0 
z
" id="DejaVuSans-78"/>
     <path d="M 8.5 21.578125 
L 8.5 54.6875 
L 17.484375 54.6875 
L 17.484375 21.921875 
Q 17.484375 14.15625 20.5 10.265625 
Q 23.53125 6.390625 29.59375 6.390625 
Q 36.859375 6.390625 41.078125 11.03125 
Q 45.3125 15.671875 45.3125 23.6875 
L 45.3125 54.6875 
L 54.296875 54.6875 
L 54.296875 0 
L 45.3125 0 
L 45.3125 8.40625 
Q 42.046875 3.421875 37.71875 1 
Q 33.40625 -1.421875 27.6875 -1.421875 
Q 18.265625 -1.421875 13.375 4.4375 
Q 8.5 10.296875 8.5 21.578125 
z
M 31.109375 56 
z
" id="DejaVuSans-117"/>
     <path d="M 34.28125 27.484375 
Q 23.390625 27.484375 19.1875 25 
Q 14.984375 22.515625 14.984375 16.5 
Q 14.984375 11.71875 18.140625 8.90625 
Q 21.296875 6.109375 26.703125 6.109375 
Q 34.1875 6.109375 38.703125 11.40625 
Q 43.21875 16.703125 43.21875 25.484375 
L 43.21875 27.484375 
z
M 52.203125 31.203125 
L 52.203125 0 
L 43.21875 0 
L 43.21875 8.296875 
Q 40.140625 3.328125 35.546875 0.953125 
Q 30.953125 -1.421875 24.3125 -1.421875 
Q 15.921875 -1.421875 10.953125 3.296875 
Q 6 8.015625 6 15.921875 
Q 6 25.140625 12.171875 29.828125 
Q 18.359375 34.515625 30.609375 34.515625 
L 43.21875 34.515625 
L 43.21875 35.40625 
Q 43.21875 41.609375 39.140625 45 
Q 35.0625 48.390625 27.6875 48.390625 
Q 23 48.390625 18.546875 47.265625 
Q 14.109375 46.140625 10.015625 43.890625 
L 10.015625 52.203125 
Q 14.9375 54.109375 19.578125 55.046875 
Q 24.21875 56 28.609375 56 
Q 40.484375 56 46.34375 49.84375 
Q 52.203125 43.703125 52.203125 31.203125 
z
" id="DejaVuSans-97"/>
     <path d="M 9.421875 75.984375 
L 18.40625 75.984375 
L 18.40625 0 
L 9.421875 0 
z
" id="DejaVuSans-108"/>
     <path d="M 10.59375 45.40625 
L 73.1875 45.40625 
L 73.1875 37.203125 
L 10.59375 37.203125 
z
M 10.59375 25.484375 
L 73.1875 25.484375 
L 73.1875 17.1875 
L 10.59375 17.1875 
z
" id="DejaVuSans-61"/>
     <path d="M 34.1875 63.1875 
L 20.796875 26.90625 
L 47.609375 26.90625 
z
M 28.609375 72.90625 
L 39.796875 72.90625 
L 67.578125 0 
L 57.328125 0 
L 50.6875 18.703125 
L 17.828125 18.703125 
L 11.1875 0 
L 0.78125 0 
z
" id="DejaVuSans-65"/>
     <path d="M 45.40625 46.390625 
L 45.40625 75.984375 
L 54.390625 75.984375 
L 54.390625 0 
L 45.40625 0 
L 45.40625 8.203125 
Q 42.578125 3.328125 38.25 0.953125 
Q 33.9375 -1.421875 27.875 -1.421875 
Q 17.96875 -1.421875 11.734375 6.484375 
Q 5.515625 14.40625 5.515625 27.296875 
Q 5.515625 40.1875 11.734375 48.09375 
Q 17.96875 56 27.875 56 
Q 33.9375 56 38.25 53.625 
Q 42.578125 51.265625 45.40625 46.390625 
z
M 14.796875 27.296875 
Q 14.796875 17.390625 18.875 11.75 
Q 22.953125 6.109375 30.078125 6.109375 
Q 37.203125 6.109375 41.296875 11.75 
Q 45.40625 17.390625 45.40625 27.296875 
Q 45.40625 37.203125 41.296875 42.84375 
Q 37.203125 48.484375 30.078125 48.484375 
Q 22.953125 48.484375 18.875 42.84375 
Q 14.796875 37.203125 14.796875 27.296875 
z
" id="DejaVuSans-100"/>
    </defs>
    <g transform="translate(181.130625 19.92)scale(0.12 -0.12)">
     <use xlink:href="#DejaVuSans-77"/>
     <use x="86.279297" xlink:href="#DejaVuSans-111"/>
     <use x="147.460938" xlink:href="#DejaVuSans-116"/>
     <use x="186.669922" xlink:href="#DejaVuSans-111"/>
     <use x="247.851562" xlink:href="#DejaVuSans-114"/>
     <use x="288.964844" xlink:href="#DejaVuSans-32"/>
     <use x="320.751953" xlink:href="#DejaVuSans-99"/>
     <use x="375.732422" xlink:href="#DejaVuSans-111"/>
     <use x="436.914062" xlink:href="#DejaVuSans-114"/>
     <use x="478.027344" xlink:href="#DejaVuSans-116"/>
     <use x="517.236328" xlink:href="#DejaVuSans-101"/>
     <use x="578.744141" xlink:href="#DejaVuSans-120"/>
     <use x="637.923828" xlink:href="#DejaVuSans-44"/>
     <use x="669.710938" xlink:href="#DejaVuSans-32"/>
     <use x="701.498047" xlink:href="#DejaVuSans-78"/>
     <use x="776.302734" xlink:href="#DejaVuSans-117"/>
     <use x="839.681641" xlink:href="#DejaVuSans-109"/>
     <use x="937.09375" xlink:href="#DejaVuSans-32"/>
     <use x="968.880859" xlink:href="#DejaVuSans-84"/>
     <use x="1029.746094" xlink:href="#DejaVuSans-114"/>
     <use x="1070.859375" xlink:href="#DejaVuSans-105"/>
     <use x="1098.642578" xlink:href="#DejaVuSans-97"/>
     <use x="1159.921875" xlink:href="#DejaVuSans-108"/>
     <use x="1187.705078" xlink:href="#DejaVuSans-115"/>
     <use x="1239.804688" xlink:href="#DejaVuSans-61"/>
     <use x="1323.59375" xlink:href="#DejaVuSans-49"/>
     <use x="1387.216797" xlink:href="#DejaVuSans-54"/>
     <use x="1450.839844" xlink:href="#DejaVuSans-48"/>
     <use x="1514.462891" xlink:href="#DejaVuSans-32"/>
     <use x="1546.25" xlink:href="#DejaVuSans-65"/>
     <use x="1614.658203" xlink:href="#DejaVuSans-108"/>
     <use x="1642.441406" xlink:href="#DejaVuSans-108"/>
     <use x="1670.224609" xlink:href="#DejaVuSans-32"/>
     <use x="1702.011719" xlink:href="#DejaVuSans-115"/>
     <use x="1754.111328" xlink:href="#DejaVuSans-116"/>
     <use x="1793.320312" xlink:href="#DejaVuSans-105"/>
     <use x="1821.103516" xlink:href="#DejaVuSans-109"/>
     <use x="1918.515625" xlink:href="#DejaVuSans-117"/>
     <use x="1981.894531" xlink:href="#DejaVuSans-108"/>
     <use x="2009.677734" xlink:href="#DejaVuSans-97"/>
     <use x="2070.957031" xlink:href="#DejaVuSans-116"/>
     <use x="2110.166016" xlink:href="#DejaVuSans-101"/>
     <use x="2171.689453" xlink:href="#DejaVuSans-100"/>
     <use x="2235.166016" xlink:href="#DejaVuSans-32"/>
     <use x="2266.953125" xlink:href="#DejaVuSans-116"/>
     <use x="2306.162109" xlink:href="#DejaVuSans-114"/>
     <use x="2347.275391" xlink:href="#DejaVuSans-105"/>
     <use x="2375.058594" xlink:href="#DejaVuSans-97"/>
     <use x="2436.337891" xlink:href="#DejaVuSans-108"/>
     <use x="2464.121094" xlink:href="#DejaVuSans-115"/>
    </g>
   </g>
   <g id="legend_1">
    <g id="patch_7">
     <path d="M 441.12 70.7475 
L 574.8 70.7475 
Q 577.2 70.7475 577.2 68.3475 
L 577.2 34.32 
Q 577.2 31.92 574.8 31.92 
L 441.12 31.92 
Q 438.72 31.92 438.72 34.32 
L 438.72 68.3475 
Q 438.72 70.7475 441.12 70.7475 
z
" style="fill:#ffffff;opacity:0.8;stroke:#cccccc;stroke-linejoin:miter;"/>
    </g>
    <g id="line2d_14">
     <path d="M 443.52 41.638125 
L 467.52 41.638125 
" style="fill:none;stroke:#0000ff;stroke-linecap:square;stroke-width:1.5;"/>
    </g>
    <g id="line2d_15"/>
    <g id="text_16">
     <!-- COM-Binomial $\nu$ -->
     <defs>
      <path d="M 4.890625 31.390625 
L 31.203125 31.390625 
L 31.203125 23.390625 
L 4.890625 23.390625 
z
" id="DejaVuSans-45"/>
      <path d="M 19.671875 34.8125 
L 19.671875 8.109375 
L 35.5 8.109375 
Q 43.453125 8.109375 47.28125 11.40625 
Q 51.125 14.703125 51.125 21.484375 
Q 51.125 28.328125 47.28125 31.5625 
Q 43.453125 34.8125 35.5 34.8125 
z
M 19.671875 64.796875 
L 19.671875 42.828125 
L 34.28125 42.828125 
Q 41.5 42.828125 45.03125 45.53125 
Q 48.578125 48.25 48.578125 53.8125 
Q 48.578125 59.328125 45.03125 62.0625 
Q 41.5 64.796875 34.28125 64.796875 
z
M 9.8125 72.90625 
L 35.015625 72.90625 
Q 46.296875 72.90625 52.390625 68.21875 
Q 58.5 63.53125 58.5 54.890625 
Q 58.5 48.1875 55.375 44.234375 
Q 52.25 40.28125 46.1875 39.3125 
Q 53.46875 37.75 57.5 32.78125 
Q 61.53125 27.828125 61.53125 20.40625 
Q 61.53125 10.640625 54.890625 5.3125 
Q 48.25 0 35.984375 0 
L 9.8125 0 
z
" id="DejaVuSans-66"/>
      <path d="M 54.890625 33.015625 
L 54.890625 0 
L 45.90625 0 
L 45.90625 32.71875 
Q 45.90625 40.484375 42.875 44.328125 
Q 39.84375 48.1875 33.796875 48.1875 
Q 26.515625 48.1875 22.3125 43.546875 
Q 18.109375 38.921875 18.109375 30.90625 
L 18.109375 0 
L 9.078125 0 
L 9.078125 54.6875 
L 18.109375 54.6875 
L 18.109375 46.1875 
Q 21.34375 51.125 25.703125 53.5625 
Q 30.078125 56 35.796875 56 
Q 45.21875 56 50.046875 50.171875 
Q 54.890625 44.34375 54.890625 33.015625 
z
" id="DejaVuSans-110"/>
     </defs>
     <g transform="translate(477.12 45.838125)scale(0.12 -0.12)">
      <use transform="translate(0 0.015625)" xlink:href="#DejaVuSans-67"/>
      <use transform="translate(69.824219 0.015625)" xlink:href="#DejaVuSans-79"/>
      <use transform="translate(148.535156 0.015625)" xlink:href="#DejaVuSans-77"/>
      <use transform="translate(234.814453 0.015625)" xlink:href="#DejaVuSans-45"/>
      <use transform="translate(270.898438 0.015625)" xlink:href="#DejaVuSans-66"/>
      <use transform="translate(339.501953 0.015625)" xlink:href="#DejaVuSans-105"/>
      <use transform="translate(367.285156 0.015625)" xlink:href="#DejaVuSans-110"/>
      <use transform="translate(430.664062 0.015625)" xlink:href="#DejaVuSans-111"/>
      <use transform="translate(491.845703 0.015625)" xlink:href="#DejaVuSans-109"/>
      <use transform="translate(589.257812 0.015625)" xlink:href="#DejaVuSans-105"/>
      <use transform="translate(617.041016 0.015625)" xlink:href="#DejaVuSans-97"/>
      <use transform="translate(678.320312 0.015625)" xlink:href="#DejaVuSans-108"/>
      <use transform="translate(706.103516 0.015625)" xlink:href="#DejaVuSans-32"/>
      <use transform="translate(737.890625 0.015625)" xlink:href="#DejaVuSans-Oblique-957"/>
     </g>
    </g>
    <g id="patch_8">
     <path d="M 443.52 63.451875 
L 467.52 63.451875 
L 467.52 55.051875 
L 443.52 55.051875 
z
" style="fill:#0000ff;opacity:0.3;stroke:#0000ff;stroke-linejoin:miter;"/>
    </g>
    <g id="text_17">
     <!-- Std. Err. -->
     <defs>
      <path d="M 53.515625 70.515625 
L 53.515625 60.890625 
Q 47.90625 63.578125 42.921875 64.890625 
Q 37.9375 66.21875 33.296875 66.21875 
Q 25.25 66.21875 20.875 63.09375 
Q 16.5 59.96875 16.5 54.203125 
Q 16.5 49.359375 19.40625 46.890625 
Q 22.3125 44.4375 30.421875 42.921875 
L 36.375 41.703125 
Q 47.40625 39.59375 52.65625 34.296875 
Q 57.90625 29 57.90625 20.125 
Q 57.90625 9.515625 50.796875 4.046875 
Q 43.703125 -1.421875 29.984375 -1.421875 
Q 24.8125 -1.421875 18.96875 -0.25 
Q 13.140625 0.921875 6.890625 3.21875 
L 6.890625 13.375 
Q 12.890625 10.015625 18.65625 8.296875 
Q 24.421875 6.59375 29.984375 6.59375 
Q 38.421875 6.59375 43.015625 9.90625 
Q 47.609375 13.234375 47.609375 19.390625 
Q 47.609375 24.75 44.3125 27.78125 
Q 41.015625 30.8125 33.5 32.328125 
L 27.484375 33.5 
Q 16.453125 35.6875 11.515625 40.375 
Q 6.59375 45.0625 6.59375 53.421875 
Q 6.59375 63.09375 13.40625 68.65625 
Q 20.21875 74.21875 32.171875 74.21875 
Q 37.3125 74.21875 42.625 73.28125 
Q 47.953125 72.359375 53.515625 70.515625 
z
" id="DejaVuSans-83"/>
      <path d="M 9.8125 72.90625 
L 55.90625 72.90625 
L 55.90625 64.59375 
L 19.671875 64.59375 
L 19.671875 43.015625 
L 54.390625 43.015625 
L 54.390625 34.71875 
L 19.671875 34.71875 
L 19.671875 8.296875 
L 56.78125 8.296875 
L 56.78125 0 
L 9.8125 0 
z
" id="DejaVuSans-69"/>
     </defs>
     <g transform="translate(477.12 63.451875)scale(0.12 -0.12)">
      <use xlink:href="#DejaVuSans-83"/>
      <use x="63.476562" xlink:href="#DejaVuSans-116"/>
      <use x="102.685547" xlink:href="#DejaVuSans-100"/>
      <use x="166.162109" xlink:href="#DejaVuSans-46"/>
      <use x="197.949219" xlink:href="#DejaVuSans-32"/>
      <use x="229.736328" xlink:href="#DejaVuSans-69"/>
      <use x="292.919922" xlink:href="#DejaVuSans-114"/>
      <use x="334.017578" xlink:href="#DejaVuSans-114"/>
      <use x="374.990234" xlink:href="#DejaVuSans-46"/>
     </g>
    </g>
   </g>
  </g>
 </g>
 <defs>
  <clipPath id="pffc043869d">
   <rect height="166.32" width="502.2" x="81" y="25.92"/>
  </clipPath>
 </defs>
</svg>
