<?xml version="1.0" encoding="utf-8" standalone="no"?>
<!DOCTYPE svg PUBLIC "-//W3C//DTD SVG 1.1//EN"
  "http://www.w3.org/Graphics/SVG/1.1/DTD/svg11.dtd">
<!-- Created with matplotlib (https://matplotlib.org/) -->
<svg height="223.2pt" version="1.1" viewBox="0 0 576 223.2" width="576pt" xmlns="http://www.w3.org/2000/svg" xmlns:xlink="http://www.w3.org/1999/xlink">
 <defs>
  <style type="text/css">
*{stroke-linecap:butt;stroke-linejoin:round;}
  </style>
 </defs>
 <g id="figure_1">
  <g id="patch_1">
   <path d="M 0 223.2 
L 576 223.2 
L 576 0 
L 0 0 
z
" style="fill:#ffffff;"/>
  </g>
  <g id="axes_1">
   <g id="patch_2">
    <path d="M 54.47 174.76 
L 565.2 174.76 
L 565.2 26.88 
L 54.47 26.88 
z
" style="fill:#ffffff;"/>
   </g>
   <g id="PolyCollection_1">
    <defs>
     <path d="M 137.485266 -48.44 
L 137.485266 -196.32 
L 397.178486 -196.32 
L 397.178486 -48.44 
L 397.178486 -48.44 
L 137.485266 -48.44 
z
" id="m0850bc33aa" style="stroke:#808080;stroke-opacity:0.3;"/>
    </defs>
    <g clip-path="url(#p41e0bced6d)">
     <use style="fill:#808080;fill-opacity:0.3;stroke:#808080;stroke-opacity:0.3;" x="0" xlink:href="#m0850bc33aa" y="223.2"/>
    </g>
   </g>
   <g id="PolyCollection_2">
    <defs>
     <path d="M 54.47 -186.500895 
L 54.47 -181.77219 
L 56.201288 -181.849182 
L 57.932576 -182.647211 
L 59.663864 -182.318765 
L 61.395153 -183.720594 
L 63.126441 -182.564169 
L 64.857729 -185.111541 
L 66.589017 -185.250078 
L 68.320305 -185.601562 
L 70.051593 -186.69453 
L 71.782881 -187.045841 
L 73.514169 -184.701346 
L 75.245458 -186.272746 
L 76.976746 -185.772937 
L 78.708034 -186.007467 
L 80.439322 -185.902065 
L 82.17061 -185.398018 
L 83.901898 -187.808949 
L 85.633186 -187.211133 
L 87.364475 -185.353157 
L 89.095763 -185.673294 
L 90.827051 -184.26816 
L 92.558339 -183.216022 
L 94.289627 -182.353494 
L 96.020915 -184.139562 
L 97.752203 -184.89007 
L 99.483492 -184.049942 
L 101.21478 -184.614947 
L 102.946068 -184.983542 
L 104.677356 -185.855105 
L 106.408644 -185.718514 
L 108.139932 -187.622311 
L 109.87122 -185.604576 
L 111.602508 -187.471928 
L 113.333797 -186.844221 
L 115.065085 -186.52713 
L 116.796373 -184.1209 
L 118.527661 -182.663439 
L 120.258949 -183.652937 
L 121.990237 -183.492648 
L 123.721525 -183.551777 
L 125.452814 -182.700165 
L 127.184102 -183.619724 
L 128.91539 -182.353509 
L 130.646678 -180.71432 
L 132.377966 -176.035087 
L 134.109254 -178.645647 
L 135.840542 -178.429001 
L 137.571831 -179.415453 
L 139.303119 -180.269085 
L 141.034407 -181.122676 
L 142.765695 -180.882893 
L 144.496983 -181.121437 
L 146.228271 -181.249688 
L 147.959559 -180.459552 
L 149.690847 -184.916048 
L 151.422136 -184.347338 
L 153.153424 -186.292469 
L 154.884712 -186.690752 
L 156.616 -186.201353 
L 158.347288 -185.658446 
L 160.078576 -185.19277 
L 161.809864 -186.493983 
L 163.541153 -185.07552 
L 165.272441 -186.994068 
L 167.003729 -185.711156 
L 168.735017 -186.45961 
L 170.466305 -186.295484 
L 172.197593 -185.685252 
L 173.928881 -186.479524 
L 175.660169 -185.584534 
L 177.391458 -184.187539 
L 179.122746 -184.036536 
L 180.854034 -183.956334 
L 182.585322 -183.439395 
L 184.31661 -185.214575 
L 186.047898 -186.338696 
L 187.779186 -187.842822 
L 189.510475 -188.336441 
L 191.241763 -188.087706 
L 192.973051 -190.465259 
L 194.704339 -189.897457 
L 196.435627 -188.704743 
L 198.166915 -189.261971 
L 199.898203 -189.756728 
L 201.629492 -189.443239 
L 203.36078 -190.064928 
L 205.092068 -188.756434 
L 206.823356 -188.814361 
L 208.554644 -188.748973 
L 210.285932 -186.109347 
L 212.01722 -187.880532 
L 213.748508 -186.656605 
L 215.479797 -186.759206 
L 217.211085 -186.828147 
L 218.942373 -186.547548 
L 220.673661 -185.803667 
L 222.404949 -187.775153 
L 224.136237 -186.99124 
L 225.867525 -186.598787 
L 227.598814 -188.400903 
L 229.330102 -187.53354 
L 231.06139 -189.638844 
L 232.792678 -189.57358 
L 234.523966 -191.192393 
L 236.255254 -191.029101 
L 237.986542 -190.118955 
L 239.717831 -187.729868 
L 241.449119 -186.338771 
L 243.180407 -184.951063 
L 244.911695 -184.086502 
L 246.642983 -183.266703 
L 248.374271 -182.819664 
L 250.105559 -183.782904 
L 251.836847 -182.762262 
L 253.568136 -183.833031 
L 255.299424 -184.691267 
L 257.030712 -186.155488 
L 258.762 -187.614017 
L 260.493288 -187.534883 
L 262.224576 -187.877202 
L 263.955864 -188.008863 
L 265.687153 -187.0954 
L 267.418441 -185.048755 
L 269.149729 -185.200001 
L 270.881017 -184.621408 
L 272.612305 -184.282926 
L 274.343593 -184.651251 
L 276.074881 -185.478524 
L 277.806169 -185.416525 
L 279.537458 -186.266704 
L 281.268746 -187.382128 
L 283.000034 -188.234576 
L 284.731322 -189.649384 
L 286.46261 -190.2664 
L 288.193898 -190.075342 
L 289.925186 -187.531757 
L 291.656475 -186.653889 
L 293.387763 -186.437503 
L 295.119051 -186.881302 
L 296.850339 -185.615687 
L 298.581627 -185.991513 
L 300.312915 -186.750264 
L 302.044203 -185.654064 
L 303.775492 -186.20673 
L 305.50678 -187.223284 
L 307.238068 -189.744041 
L 308.969356 -189.600573 
L 310.700644 -189.417514 
L 312.431932 -190.466702 
L 314.16322 -190.464075 
L 315.894508 -189.673879 
L 317.625797 -189.973291 
L 319.357085 -189.19212 
L 321.088373 -187.359458 
L 322.819661 -185.85598 
L 324.550949 -184.931682 
L 326.282237 -185.092322 
L 328.013525 -185.203642 
L 329.744814 -185.539696 
L 331.476102 -187.163888 
L 333.20739 -187.491924 
L 334.938678 -188.799578 
L 336.669966 -189.526791 
L 338.401254 -190.944879 
L 340.132542 -191.460185 
L 341.863831 -190.117912 
L 343.595119 -191.183961 
L 345.326407 -190.377421 
L 347.057695 -189.465276 
L 348.788983 -188.093243 
L 350.520271 -188.760038 
L 352.251559 -187.856368 
L 353.982847 -187.54613 
L 355.714136 -187.81982 
L 357.445424 -187.888244 
L 359.176712 -188.504798 
L 360.908 -188.637131 
L 362.639288 -188.389533 
L 364.370576 -186.027035 
L 366.101864 -185.325215 
L 367.833153 -186.317942 
L 369.564441 -185.548364 
L 371.295729 -185.359203 
L 373.027017 -184.168913 
L 374.758305 -183.739291 
L 376.489593 -184.7272 
L 378.220881 -183.844552 
L 379.952169 -182.381178 
L 381.683458 -184.371713 
L 383.414746 -185.891752 
L 385.146034 -185.849376 
L 386.877322 -187.114964 
L 388.60861 -187.115695 
L 390.339898 -188.430119 
L 392.071186 -188.949012 
L 393.802475 -187.665649 
L 395.533763 -187.46792 
L 397.265051 -189.127384 
L 398.996339 -188.664099 
L 400.727627 -188.796902 
L 402.458915 -188.986716 
L 404.190203 -188.652735 
L 405.921492 -189.339427 
L 407.65278 -189.043859 
L 409.384068 -187.960191 
L 411.115356 -187.368968 
L 412.846644 -186.267026 
L 414.577932 -186.834918 
L 416.30922 -186.361786 
L 418.040508 -184.466649 
L 419.771797 -184.376765 
L 421.503085 -185.327536 
L 423.234373 -184.291744 
L 424.965661 -183.876707 
L 426.696949 -182.741016 
L 428.428237 -182.294117 
L 430.159525 -181.822189 
L 431.890814 -179.443922 
L 433.622102 -179.697733 
L 435.35339 -181.271585 
L 437.084678 -181.615233 
L 438.815966 -181.571302 
L 440.547254 -181.645974 
L 442.278542 -181.55871 
L 444.009831 -182.036417 
L 445.741119 -181.902598 
L 447.472407 -183.732172 
L 449.203695 -185.454442 
L 450.934983 -186.815267 
L 452.666271 -184.236461 
L 454.397559 -181.790079 
L 456.128847 -181.874678 
L 457.860136 -181.45611 
L 459.591424 -178.968644 
L 461.322712 -178.577771 
L 463.054 -178.59104 
L 464.785288 -178.367084 
L 466.516576 -180.176648 
L 468.247864 -180.237369 
L 469.979153 -182.344368 
L 471.710441 -183.334919 
L 473.441729 -185.029878 
L 475.173017 -186.283352 
L 476.904305 -187.501319 
L 478.635593 -187.553386 
L 480.366881 -188.367666 
L 482.098169 -187.401727 
L 483.829458 -186.896136 
L 485.560746 -185.15958 
L 487.292034 -184.937819 
L 489.023322 -184.2586 
L 490.75461 -183.092238 
L 492.485898 -181.472999 
L 494.217186 -181.400199 
L 495.948475 -182.773444 
L 497.679763 -183.256997 
L 499.411051 -184.534781 
L 501.142339 -185.277203 
L 502.873627 -186.344224 
L 504.604915 -185.409976 
L 506.336203 -183.361403 
L 508.067492 -183.054449 
L 509.79878 -183.811287 
L 511.530068 -182.074556 
L 513.261356 -181.628487 
L 514.992644 -182.296421 
L 516.723932 -182.185151 
L 518.45522 -183.402769 
L 520.186508 -183.286543 
L 521.917797 -183.096689 
L 523.649085 -183.322244 
L 525.380373 -182.640244 
L 527.111661 -184.131881 
L 528.842949 -184.24628 
L 530.574237 -183.294576 
L 532.305525 -182.533023 
L 534.036814 -183.264721 
L 535.768102 -182.762078 
L 537.49939 -181.44008 
L 539.230678 -182.475426 
L 540.961966 -183.740709 
L 542.693254 -183.532078 
L 544.424542 -183.151178 
L 546.155831 -183.016767 
L 547.887119 -184.395771 
L 549.618407 -184.877173 
L 551.349695 -185.212428 
L 553.080983 -184.401358 
L 554.812271 -184.736331 
L 556.543559 -184.839588 
L 558.274847 -183.39819 
L 560.006136 -184.790799 
L 561.737424 -185.179846 
L 563.468712 -185.94028 
L 565.2 -183.381498 
L 565.2 -188.302761 
L 565.2 -188.302761 
L 563.468712 -190.957579 
L 561.737424 -190.125262 
L 560.006136 -189.712862 
L 558.274847 -188.43657 
L 556.543559 -189.703813 
L 554.812271 -189.272634 
L 553.080983 -188.990303 
L 551.349695 -189.853582 
L 549.618407 -189.537911 
L 547.887119 -189.002883 
L 546.155831 -187.587717 
L 544.424542 -187.619574 
L 542.693254 -187.984222 
L 540.961966 -188.520813 
L 539.230678 -187.440988 
L 537.49939 -186.288095 
L 535.768102 -187.362553 
L 534.036814 -188.02516 
L 532.305525 -186.783037 
L 530.574237 -187.404454 
L 528.842949 -188.860778 
L 527.111661 -188.879999 
L 525.380373 -187.459291 
L 523.649085 -188.109764 
L 521.917797 -187.681023 
L 520.186508 -188.178038 
L 518.45522 -188.12316 
L 516.723932 -186.903541 
L 514.992644 -187.249469 
L 513.261356 -186.726599 
L 511.530068 -187.151764 
L 509.79878 -189.162045 
L 508.067492 -188.110399 
L 506.336203 -188.424755 
L 504.604915 -190.178142 
L 502.873627 -191.065382 
L 501.142339 -189.70246 
L 499.411051 -189.15627 
L 497.679763 -188.190968 
L 495.948475 -187.319349 
L 494.217186 -185.993562 
L 492.485898 -185.953598 
L 490.75461 -187.368332 
L 489.023322 -189.065602 
L 487.292034 -189.842945 
L 485.560746 -190.455572 
L 483.829458 -192.127362 
L 482.098169 -192.660144 
L 480.366881 -193.470265 
L 478.635593 -192.643988 
L 476.904305 -192.785558 
L 475.173017 -191.555268 
L 473.441729 -190.03816 
L 471.710441 -188.356472 
L 469.979153 -187.316976 
L 468.247864 -184.851095 
L 466.516576 -184.821465 
L 464.785288 -183.143207 
L 463.054 -183.458935 
L 461.322712 -183.260321 
L 459.591424 -183.443746 
L 457.860136 -185.845076 
L 456.128847 -186.315734 
L 454.397559 -186.091449 
L 452.666271 -188.783652 
L 450.934983 -191.145195 
L 449.203695 -190.04304 
L 447.472407 -188.339955 
L 445.741119 -186.464842 
L 444.009831 -186.646335 
L 442.278542 -186.112747 
L 440.547254 -186.061076 
L 438.815966 -186.173447 
L 437.084678 -186.445076 
L 435.35339 -186.338439 
L 433.622102 -184.390018 
L 431.890814 -183.980802 
L 430.159525 -186.455341 
L 428.428237 -186.973632 
L 426.696949 -187.747533 
L 424.965661 -188.791051 
L 423.234373 -189.287128 
L 421.503085 -190.026655 
L 419.771797 -188.824961 
L 418.040508 -188.963356 
L 416.30922 -191.183987 
L 414.577932 -191.258682 
L 412.846644 -191.007479 
L 411.115356 -191.94652 
L 409.384068 -192.100461 
L 407.65278 -193.43571 
L 405.921492 -193.436872 
L 404.190203 -192.687861 
L 402.458915 -192.886236 
L 400.727627 -192.951147 
L 398.996339 -192.981339 
L 397.265051 -193.753901 
L 395.533763 -191.728441 
L 393.802475 -191.943709 
L 392.071186 -193.436737 
L 390.339898 -192.807831 
L 388.60861 -191.676362 
L 386.877322 -191.871263 
L 385.146034 -190.56068 
L 383.414746 -190.316287 
L 381.683458 -188.834138 
L 379.952169 -186.752686 
L 378.220881 -188.145519 
L 376.489593 -189.223097 
L 374.758305 -188.351484 
L 373.027017 -188.988987 
L 371.295729 -190.225713 
L 369.564441 -190.356518 
L 367.833153 -191.148547 
L 366.101864 -189.962657 
L 364.370576 -190.551644 
L 362.639288 -192.793626 
L 360.908 -193.001996 
L 359.176712 -192.930719 
L 357.445424 -192.097636 
L 355.714136 -192.068183 
L 353.982847 -191.750823 
L 352.251559 -192.340082 
L 350.520271 -193.308129 
L 348.788983 -192.560968 
L 347.057695 -194.159587 
L 345.326407 -195.168422 
L 343.595119 -196.051856 
L 341.863831 -194.923547 
L 340.132542 -196.32 
L 338.401254 -195.947277 
L 336.669966 -194.667377 
L 334.938678 -193.945212 
L 333.20739 -192.426573 
L 331.476102 -192.133648 
L 329.744814 -190.2214 
L 328.013525 -189.68929 
L 326.282237 -189.627374 
L 324.550949 -189.423517 
L 322.819661 -190.625916 
L 321.088373 -192.229539 
L 319.357085 -194.295641 
L 317.625797 -195.077714 
L 315.894508 -194.833691 
L 314.16322 -195.325221 
L 312.431932 -195.395792 
L 310.700644 -194.338724 
L 308.969356 -194.262143 
L 307.238068 -194.358967 
L 305.50678 -191.562587 
L 303.775492 -190.334438 
L 302.044203 -189.66237 
L 300.312915 -191.055973 
L 298.581627 -190.07315 
L 296.850339 -189.457808 
L 295.119051 -191.118579 
L 293.387763 -190.816567 
L 291.656475 -191.205706 
L 289.925186 -191.946606 
L 288.193898 -194.530495 
L 286.46261 -194.703997 
L 284.731322 -194.140927 
L 283.000034 -192.63208 
L 281.268746 -191.637665 
L 279.537458 -190.450361 
L 277.806169 -189.747846 
L 276.074881 -189.632864 
L 274.343593 -188.912067 
L 272.612305 -188.663565 
L 270.881017 -189.082343 
L 269.149729 -189.728615 
L 267.418441 -189.558223 
L 265.687153 -191.606816 
L 263.955864 -192.539084 
L 262.224576 -192.628698 
L 260.493288 -192.241968 
L 258.762 -192.244836 
L 257.030712 -190.366304 
L 255.299424 -188.843901 
L 253.568136 -187.986792 
L 251.836847 -186.942751 
L 250.105559 -188.035225 
L 248.374271 -187.352067 
L 246.642983 -187.749643 
L 244.911695 -188.914745 
L 243.180407 -189.980037 
L 241.449119 -191.255177 
L 239.717831 -192.794595 
L 237.986542 -195.025213 
L 236.255254 -195.88301 
L 234.523966 -195.777417 
L 232.792678 -194.133744 
L 231.06139 -194.536661 
L 229.330102 -192.393391 
L 227.598814 -193.380302 
L 225.867525 -191.425537 
L 224.136237 -192.019882 
L 222.404949 -193.182249 
L 220.673661 -191.284215 
L 218.942373 -191.848496 
L 217.211085 -192.076184 
L 215.479797 -192.009238 
L 213.748508 -191.566799 
L 212.01722 -192.680968 
L 210.285932 -190.38339 
L 208.554644 -193.090105 
L 206.823356 -193.322723 
L 205.092068 -193.621297 
L 203.36078 -194.73818 
L 201.629492 -193.952906 
L 199.898203 -194.174902 
L 198.166915 -193.730407 
L 196.435627 -193.1063 
L 194.704339 -194.269831 
L 192.973051 -195.13147 
L 191.241763 -192.631157 
L 189.510475 -192.958262 
L 187.779186 -192.586963 
L 186.047898 -190.995332 
L 184.31661 -190.136246 
L 182.585322 -188.335528 
L 180.854034 -189.053725 
L 179.122746 -189.195527 
L 177.391458 -189.462715 
L 175.660169 -190.65152 
L 173.928881 -191.429477 
L 172.197593 -190.519656 
L 170.466305 -190.908962 
L 168.735017 -190.88591 
L 167.003729 -190.281854 
L 165.272441 -191.391842 
L 163.541153 -189.427302 
L 161.809864 -191.077193 
L 160.078576 -189.708551 
L 158.347288 -190.046929 
L 156.616 -190.734205 
L 154.884712 -191.297065 
L 153.153424 -190.988841 
L 151.422136 -188.93758 
L 149.690847 -189.594763 
L 147.959559 -184.907723 
L 146.228271 -185.74422 
L 144.496983 -185.65278 
L 142.765695 -185.279632 
L 141.034407 -185.571948 
L 139.303119 -184.590463 
L 137.571831 -183.705766 
L 135.840542 -182.671886 
L 134.109254 -183.209728 
L 132.377966 -180.325054 
L 130.646678 -185.256901 
L 128.91539 -187.027641 
L 127.184102 -188.302312 
L 125.452814 -187.338898 
L 123.721525 -188.33985 
L 121.990237 -188.213537 
L 120.258949 -188.284299 
L 118.527661 -187.060478 
L 116.796373 -188.489896 
L 115.065085 -191.127133 
L 113.333797 -191.329028 
L 111.602508 -191.852805 
L 109.87122 -190.166849 
L 108.139932 -192.179159 
L 106.408644 -190.173476 
L 104.677356 -190.392505 
L 102.946068 -189.529864 
L 101.21478 -189.410263 
L 99.483492 -188.822649 
L 97.752203 -189.693948 
L 96.020915 -188.91288 
L 94.289627 -186.949345 
L 92.558339 -187.781693 
L 90.827051 -188.99725 
L 89.095763 -190.595533 
L 87.364475 -190.555862 
L 85.633186 -192.641527 
L 83.901898 -193.461183 
L 82.17061 -190.709469 
L 80.439322 -191.181676 
L 78.708034 -191.282542 
L 76.976746 -190.897942 
L 75.245458 -191.137055 
L 73.514169 -189.464257 
L 71.782881 -191.827757 
L 70.051593 -191.386616 
L 68.320305 -190.420485 
L 66.589017 -190.027963 
L 64.857729 -189.700682 
L 63.126441 -187.307577 
L 61.395153 -188.781568 
L 59.663864 -187.202668 
L 57.932576 -187.632322 
L 56.201288 -186.488238 
L 54.47 -186.500895 
z
" id="m3343294766" style="stroke:#0000ff;stroke-opacity:0.3;"/>
    </defs>
    <g clip-path="url(#p41e0bced6d)">
     <use style="fill:#0000ff;fill-opacity:0.3;stroke:#0000ff;stroke-opacity:0.3;" x="0" xlink:href="#m3343294766" y="223.2"/>
    </g>
   </g>
   <g id="matplotlib.axis_1">
    <g id="xtick_1">
     <g id="line2d_1">
      <defs>
       <path d="M 0 0 
L 0 3.5 
" id="mfd0209859f" style="stroke:#000000;stroke-width:0.8;"/>
      </defs>
      <g>
       <use style="stroke:#000000;stroke-width:0.8;" x="137.485266" xlink:href="#mfd0209859f" y="174.76"/>
      </g>
     </g>
     <g id="text_1">
      <!-- 0.0 -->
      <defs>
       <path d="M 31.78125 66.40625 
Q 24.171875 66.40625 20.328125 58.90625 
Q 16.5 51.421875 16.5 36.375 
Q 16.5 21.390625 20.328125 13.890625 
Q 24.171875 6.390625 31.78125 6.390625 
Q 39.453125 6.390625 43.28125 13.890625 
Q 47.125 21.390625 47.125 36.375 
Q 47.125 51.421875 43.28125 58.90625 
Q 39.453125 66.40625 31.78125 66.40625 
z
M 31.78125 74.21875 
Q 44.046875 74.21875 50.515625 64.515625 
Q 56.984375 54.828125 56.984375 36.375 
Q 56.984375 17.96875 50.515625 8.265625 
Q 44.046875 -1.421875 31.78125 -1.421875 
Q 19.53125 -1.421875 13.0625 8.265625 
Q 6.59375 17.96875 6.59375 36.375 
Q 6.59375 54.828125 13.0625 64.515625 
Q 19.53125 74.21875 31.78125 74.21875 
z
" id="DejaVuSans-48"/>
       <path d="M 10.6875 12.40625 
L 21 12.40625 
L 21 0 
L 10.6875 0 
z
" id="DejaVuSans-46"/>
      </defs>
      <g transform="translate(127.943391 190.878125)scale(0.12 -0.12)">
       <use xlink:href="#DejaVuSans-48"/>
       <use x="63.623047" xlink:href="#DejaVuSans-46"/>
       <use x="95.410156" xlink:href="#DejaVuSans-48"/>
      </g>
     </g>
    </g>
    <g id="xtick_2">
     <g id="line2d_2">
      <g>
       <use style="stroke:#000000;stroke-width:0.8;" x="224.049673" xlink:href="#mfd0209859f" y="174.76"/>
      </g>
     </g>
     <g id="text_2">
      <!-- 0.5 -->
      <defs>
       <path d="M 10.796875 72.90625 
L 49.515625 72.90625 
L 49.515625 64.59375 
L 19.828125 64.59375 
L 19.828125 46.734375 
Q 21.96875 47.46875 24.109375 47.828125 
Q 26.265625 48.1875 28.421875 48.1875 
Q 40.625 48.1875 47.75 41.5 
Q 54.890625 34.8125 54.890625 23.390625 
Q 54.890625 11.625 47.5625 5.09375 
Q 40.234375 -1.421875 26.90625 -1.421875 
Q 22.3125 -1.421875 17.546875 -0.640625 
Q 12.796875 0.140625 7.71875 1.703125 
L 7.71875 11.625 
Q 12.109375 9.234375 16.796875 8.0625 
Q 21.484375 6.890625 26.703125 6.890625 
Q 35.15625 6.890625 40.078125 11.328125 
Q 45.015625 15.765625 45.015625 23.390625 
Q 45.015625 31 40.078125 35.4375 
Q 35.15625 39.890625 26.703125 39.890625 
Q 22.75 39.890625 18.8125 39.015625 
Q 14.890625 38.140625 10.796875 36.28125 
z
" id="DejaVuSans-53"/>
      </defs>
      <g transform="translate(214.507798 190.878125)scale(0.12 -0.12)">
       <use xlink:href="#DejaVuSans-48"/>
       <use x="63.623047" xlink:href="#DejaVuSans-46"/>
       <use x="95.410156" xlink:href="#DejaVuSans-53"/>
      </g>
     </g>
    </g>
    <g id="xtick_3">
     <g id="line2d_3">
      <g>
       <use style="stroke:#000000;stroke-width:0.8;" x="310.61408" xlink:href="#mfd0209859f" y="174.76"/>
      </g>
     </g>
     <g id="text_3">
      <!-- 1.0 -->
      <defs>
       <path d="M 12.40625 8.296875 
L 28.515625 8.296875 
L 28.515625 63.921875 
L 10.984375 60.40625 
L 10.984375 69.390625 
L 28.421875 72.90625 
L 38.28125 72.90625 
L 38.28125 8.296875 
L 54.390625 8.296875 
L 54.390625 0 
L 12.40625 0 
z
" id="DejaVuSans-49"/>
      </defs>
      <g transform="translate(301.072205 190.878125)scale(0.12 -0.12)">
       <use xlink:href="#DejaVuSans-49"/>
       <use x="63.623047" xlink:href="#DejaVuSans-46"/>
       <use x="95.410156" xlink:href="#DejaVuSans-48"/>
      </g>
     </g>
    </g>
    <g id="xtick_4">
     <g id="line2d_4">
      <g>
       <use style="stroke:#000000;stroke-width:0.8;" x="397.178486" xlink:href="#mfd0209859f" y="174.76"/>
      </g>
     </g>
     <g id="text_4">
      <!-- 1.5 -->
      <g transform="translate(387.636611 190.878125)scale(0.12 -0.12)">
       <use xlink:href="#DejaVuSans-49"/>
       <use x="63.623047" xlink:href="#DejaVuSans-46"/>
       <use x="95.410156" xlink:href="#DejaVuSans-53"/>
      </g>
     </g>
    </g>
    <g id="xtick_5">
     <g id="line2d_5">
      <g>
       <use style="stroke:#000000;stroke-width:0.8;" x="483.742893" xlink:href="#mfd0209859f" y="174.76"/>
      </g>
     </g>
     <g id="text_5">
      <!-- 2.0 -->
      <defs>
       <path d="M 19.1875 8.296875 
L 53.609375 8.296875 
L 53.609375 0 
L 7.328125 0 
L 7.328125 8.296875 
Q 12.9375 14.109375 22.625 23.890625 
Q 32.328125 33.6875 34.8125 36.53125 
Q 39.546875 41.84375 41.421875 45.53125 
Q 43.3125 49.21875 43.3125 52.78125 
Q 43.3125 58.59375 39.234375 62.25 
Q 35.15625 65.921875 28.609375 65.921875 
Q 23.96875 65.921875 18.8125 64.3125 
Q 13.671875 62.703125 7.8125 59.421875 
L 7.8125 69.390625 
Q 13.765625 71.78125 18.9375 73 
Q 24.125 74.21875 28.421875 74.21875 
Q 39.75 74.21875 46.484375 68.546875 
Q 53.21875 62.890625 53.21875 53.421875 
Q 53.21875 48.921875 51.53125 44.890625 
Q 49.859375 40.875 45.40625 35.40625 
Q 44.1875 33.984375 37.640625 27.21875 
Q 31.109375 20.453125 19.1875 8.296875 
z
" id="DejaVuSans-50"/>
      </defs>
      <g transform="translate(474.201018 190.878125)scale(0.12 -0.12)">
       <use xlink:href="#DejaVuSans-50"/>
       <use x="63.623047" xlink:href="#DejaVuSans-46"/>
       <use x="95.410156" xlink:href="#DejaVuSans-48"/>
      </g>
     </g>
    </g>
    <g id="text_6">
     <!-- Time (s) -->
     <defs>
      <path d="M -0.296875 72.90625 
L 61.375 72.90625 
L 61.375 64.59375 
L 35.5 64.59375 
L 35.5 0 
L 25.59375 0 
L 25.59375 64.59375 
L -0.296875 64.59375 
z
" id="DejaVuSans-84"/>
      <path d="M 9.421875 54.6875 
L 18.40625 54.6875 
L 18.40625 0 
L 9.421875 0 
z
M 9.421875 75.984375 
L 18.40625 75.984375 
L 18.40625 64.59375 
L 9.421875 64.59375 
z
" id="DejaVuSans-105"/>
      <path d="M 52 44.1875 
Q 55.375 50.25 60.0625 53.125 
Q 64.75 56 71.09375 56 
Q 79.640625 56 84.28125 50.015625 
Q 88.921875 44.046875 88.921875 33.015625 
L 88.921875 0 
L 79.890625 0 
L 79.890625 32.71875 
Q 79.890625 40.578125 77.09375 44.375 
Q 74.3125 48.1875 68.609375 48.1875 
Q 61.625 48.1875 57.5625 43.546875 
Q 53.515625 38.921875 53.515625 30.90625 
L 53.515625 0 
L 44.484375 0 
L 44.484375 32.71875 
Q 44.484375 40.625 41.703125 44.40625 
Q 38.921875 48.1875 33.109375 48.1875 
Q 26.21875 48.1875 22.15625 43.53125 
Q 18.109375 38.875 18.109375 30.90625 
L 18.109375 0 
L 9.078125 0 
L 9.078125 54.6875 
L 18.109375 54.6875 
L 18.109375 46.1875 
Q 21.1875 51.21875 25.484375 53.609375 
Q 29.78125 56 35.6875 56 
Q 41.65625 56 45.828125 52.96875 
Q 50 49.953125 52 44.1875 
z
" id="DejaVuSans-109"/>
      <path d="M 56.203125 29.59375 
L 56.203125 25.203125 
L 14.890625 25.203125 
Q 15.484375 15.921875 20.484375 11.0625 
Q 25.484375 6.203125 34.421875 6.203125 
Q 39.59375 6.203125 44.453125 7.46875 
Q 49.3125 8.734375 54.109375 11.28125 
L 54.109375 2.78125 
Q 49.265625 0.734375 44.1875 -0.34375 
Q 39.109375 -1.421875 33.890625 -1.421875 
Q 20.796875 -1.421875 13.15625 6.1875 
Q 5.515625 13.8125 5.515625 26.8125 
Q 5.515625 40.234375 12.765625 48.109375 
Q 20.015625 56 32.328125 56 
Q 43.359375 56 49.78125 48.890625 
Q 56.203125 41.796875 56.203125 29.59375 
z
M 47.21875 32.234375 
Q 47.125 39.59375 43.09375 43.984375 
Q 39.0625 48.390625 32.421875 48.390625 
Q 24.90625 48.390625 20.390625 44.140625 
Q 15.875 39.890625 15.1875 32.171875 
z
" id="DejaVuSans-101"/>
      <path id="DejaVuSans-32"/>
      <path d="M 31 75.875 
Q 24.46875 64.65625 21.28125 53.65625 
Q 18.109375 42.671875 18.109375 31.390625 
Q 18.109375 20.125 21.3125 9.0625 
Q 24.515625 -2 31 -13.1875 
L 23.1875 -13.1875 
Q 15.875 -1.703125 12.234375 9.375 
Q 8.59375 20.453125 8.59375 31.390625 
Q 8.59375 42.28125 12.203125 53.3125 
Q 15.828125 64.359375 23.1875 75.875 
z
" id="DejaVuSans-40"/>
      <path d="M 44.28125 53.078125 
L 44.28125 44.578125 
Q 40.484375 46.53125 36.375 47.5 
Q 32.28125 48.484375 27.875 48.484375 
Q 21.1875 48.484375 17.84375 46.4375 
Q 14.5 44.390625 14.5 40.28125 
Q 14.5 37.15625 16.890625 35.375 
Q 19.28125 33.59375 26.515625 31.984375 
L 29.59375 31.296875 
Q 39.15625 29.25 43.1875 25.515625 
Q 47.21875 21.78125 47.21875 15.09375 
Q 47.21875 7.46875 41.1875 3.015625 
Q 35.15625 -1.421875 24.609375 -1.421875 
Q 20.21875 -1.421875 15.453125 -0.5625 
Q 10.6875 0.296875 5.421875 2 
L 5.421875 11.28125 
Q 10.40625 8.6875 15.234375 7.390625 
Q 20.0625 6.109375 24.8125 6.109375 
Q 31.15625 6.109375 34.5625 8.28125 
Q 37.984375 10.453125 37.984375 14.40625 
Q 37.984375 18.0625 35.515625 20.015625 
Q 33.0625 21.96875 24.703125 23.78125 
L 21.578125 24.515625 
Q 13.234375 26.265625 9.515625 29.90625 
Q 5.8125 33.546875 5.8125 39.890625 
Q 5.8125 47.609375 11.28125 51.796875 
Q 16.75 56 26.8125 56 
Q 31.78125 56 36.171875 55.265625 
Q 40.578125 54.546875 44.28125 53.078125 
z
" id="DejaVuSans-115"/>
      <path d="M 8.015625 75.875 
L 15.828125 75.875 
Q 23.140625 64.359375 26.78125 53.3125 
Q 30.421875 42.28125 30.421875 31.390625 
Q 30.421875 20.453125 26.78125 9.375 
Q 23.140625 -1.703125 15.828125 -13.1875 
L 8.015625 -13.1875 
Q 14.5 -2 17.703125 9.0625 
Q 20.90625 20.125 20.90625 31.390625 
Q 20.90625 42.671875 17.703125 53.65625 
Q 14.5 64.65625 8.015625 75.875 
z
" id="DejaVuSans-41"/>
     </defs>
     <g transform="translate(280.33975 208.3155)scale(0.144 -0.144)">
      <use xlink:href="#DejaVuSans-84"/>
      <use x="61.037109" xlink:href="#DejaVuSans-105"/>
      <use x="88.820312" xlink:href="#DejaVuSans-109"/>
      <use x="186.232422" xlink:href="#DejaVuSans-101"/>
      <use x="247.755859" xlink:href="#DejaVuSans-32"/>
      <use x="279.542969" xlink:href="#DejaVuSans-40"/>
      <use x="318.556641" xlink:href="#DejaVuSans-115"/>
      <use x="370.65625" xlink:href="#DejaVuSans-41"/>
     </g>
    </g>
   </g>
   <g id="matplotlib.axis_2">
    <g id="ytick_1">
     <g id="line2d_6">
      <defs>
       <path d="M 0 0 
L -3.5 0 
" id="m8a2b10d981" style="stroke:#000000;stroke-width:0.8;"/>
      </defs>
      <g>
       <use style="stroke:#000000;stroke-width:0.8;" x="54.47" xlink:href="#m8a2b10d981" y="174.76"/>
      </g>
     </g>
     <g id="text_7">
      <!-- 0.0 -->
      <g transform="translate(28.38625 179.319062)scale(0.12 -0.12)">
       <use xlink:href="#DejaVuSans-48"/>
       <use x="63.623047" xlink:href="#DejaVuSans-46"/>
       <use x="95.410156" xlink:href="#DejaVuSans-48"/>
      </g>
     </g>
    </g>
    <g id="ytick_2">
     <g id="line2d_7">
      <g>
       <use style="stroke:#000000;stroke-width:0.8;" x="54.47" xlink:href="#m8a2b10d981" y="146.093618"/>
      </g>
     </g>
     <g id="text_8">
      <!-- 0.2 -->
      <g transform="translate(28.38625 150.65268)scale(0.12 -0.12)">
       <use xlink:href="#DejaVuSans-48"/>
       <use x="63.623047" xlink:href="#DejaVuSans-46"/>
       <use x="95.410156" xlink:href="#DejaVuSans-50"/>
      </g>
     </g>
    </g>
    <g id="ytick_3">
     <g id="line2d_8">
      <g>
       <use style="stroke:#000000;stroke-width:0.8;" x="54.47" xlink:href="#m8a2b10d981" y="117.427236"/>
      </g>
     </g>
     <g id="text_9">
      <!-- 0.4 -->
      <defs>
       <path d="M 37.796875 64.3125 
L 12.890625 25.390625 
L 37.796875 25.390625 
z
M 35.203125 72.90625 
L 47.609375 72.90625 
L 47.609375 25.390625 
L 58.015625 25.390625 
L 58.015625 17.1875 
L 47.609375 17.1875 
L 47.609375 0 
L 37.796875 0 
L 37.796875 17.1875 
L 4.890625 17.1875 
L 4.890625 26.703125 
z
" id="DejaVuSans-52"/>
      </defs>
      <g transform="translate(28.38625 121.986298)scale(0.12 -0.12)">
       <use xlink:href="#DejaVuSans-48"/>
       <use x="63.623047" xlink:href="#DejaVuSans-46"/>
       <use x="95.410156" xlink:href="#DejaVuSans-52"/>
      </g>
     </g>
    </g>
    <g id="ytick_4">
     <g id="line2d_9">
      <g>
       <use style="stroke:#000000;stroke-width:0.8;" x="54.47" xlink:href="#m8a2b10d981" y="88.760854"/>
      </g>
     </g>
     <g id="text_10">
      <!-- 0.6 -->
      <defs>
       <path d="M 33.015625 40.375 
Q 26.375 40.375 22.484375 35.828125 
Q 18.609375 31.296875 18.609375 23.390625 
Q 18.609375 15.53125 22.484375 10.953125 
Q 26.375 6.390625 33.015625 6.390625 
Q 39.65625 6.390625 43.53125 10.953125 
Q 47.40625 15.53125 47.40625 23.390625 
Q 47.40625 31.296875 43.53125 35.828125 
Q 39.65625 40.375 33.015625 40.375 
z
M 52.59375 71.296875 
L 52.59375 62.3125 
Q 48.875 64.0625 45.09375 64.984375 
Q 41.3125 65.921875 37.59375 65.921875 
Q 27.828125 65.921875 22.671875 59.328125 
Q 17.53125 52.734375 16.796875 39.40625 
Q 19.671875 43.65625 24.015625 45.921875 
Q 28.375 48.1875 33.59375 48.1875 
Q 44.578125 48.1875 50.953125 41.515625 
Q 57.328125 34.859375 57.328125 23.390625 
Q 57.328125 12.15625 50.6875 5.359375 
Q 44.046875 -1.421875 33.015625 -1.421875 
Q 20.359375 -1.421875 13.671875 8.265625 
Q 6.984375 17.96875 6.984375 36.375 
Q 6.984375 53.65625 15.1875 63.9375 
Q 23.390625 74.21875 37.203125 74.21875 
Q 40.921875 74.21875 44.703125 73.484375 
Q 48.484375 72.75 52.59375 71.296875 
z
" id="DejaVuSans-54"/>
      </defs>
      <g transform="translate(28.38625 93.319916)scale(0.12 -0.12)">
       <use xlink:href="#DejaVuSans-48"/>
       <use x="63.623047" xlink:href="#DejaVuSans-46"/>
       <use x="95.410156" xlink:href="#DejaVuSans-54"/>
      </g>
     </g>
    </g>
    <g id="ytick_5">
     <g id="line2d_10">
      <g>
       <use style="stroke:#000000;stroke-width:0.8;" x="54.47" xlink:href="#m8a2b10d981" y="60.094472"/>
      </g>
     </g>
     <g id="text_11">
      <!-- 0.8 -->
      <defs>
       <path d="M 31.78125 34.625 
Q 24.75 34.625 20.71875 30.859375 
Q 16.703125 27.09375 16.703125 20.515625 
Q 16.703125 13.921875 20.71875 10.15625 
Q 24.75 6.390625 31.78125 6.390625 
Q 38.8125 6.390625 42.859375 10.171875 
Q 46.921875 13.96875 46.921875 20.515625 
Q 46.921875 27.09375 42.890625 30.859375 
Q 38.875 34.625 31.78125 34.625 
z
M 21.921875 38.8125 
Q 15.578125 40.375 12.03125 44.71875 
Q 8.5 49.078125 8.5 55.328125 
Q 8.5 64.0625 14.71875 69.140625 
Q 20.953125 74.21875 31.78125 74.21875 
Q 42.671875 74.21875 48.875 69.140625 
Q 55.078125 64.0625 55.078125 55.328125 
Q 55.078125 49.078125 51.53125 44.71875 
Q 48 40.375 41.703125 38.8125 
Q 48.828125 37.15625 52.796875 32.3125 
Q 56.78125 27.484375 56.78125 20.515625 
Q 56.78125 9.90625 50.3125 4.234375 
Q 43.84375 -1.421875 31.78125 -1.421875 
Q 19.734375 -1.421875 13.25 4.234375 
Q 6.78125 9.90625 6.78125 20.515625 
Q 6.78125 27.484375 10.78125 32.3125 
Q 14.796875 37.15625 21.921875 38.8125 
z
M 18.3125 54.390625 
Q 18.3125 48.734375 21.84375 45.5625 
Q 25.390625 42.390625 31.78125 42.390625 
Q 38.140625 42.390625 41.71875 45.5625 
Q 45.3125 48.734375 45.3125 54.390625 
Q 45.3125 60.0625 41.71875 63.234375 
Q 38.140625 66.40625 31.78125 66.40625 
Q 25.390625 66.40625 21.84375 63.234375 
Q 18.3125 60.0625 18.3125 54.390625 
z
" id="DejaVuSans-56"/>
      </defs>
      <g transform="translate(28.38625 64.653534)scale(0.12 -0.12)">
       <use xlink:href="#DejaVuSans-48"/>
       <use x="63.623047" xlink:href="#DejaVuSans-46"/>
       <use x="95.410156" xlink:href="#DejaVuSans-56"/>
      </g>
     </g>
    </g>
    <g id="ytick_6">
     <g id="line2d_11">
      <g>
       <use style="stroke:#000000;stroke-width:0.8;" x="54.47" xlink:href="#m8a2b10d981" y="31.42809"/>
      </g>
     </g>
     <g id="text_12">
      <!-- 1.0 -->
      <g transform="translate(28.38625 35.987152)scale(0.12 -0.12)">
       <use xlink:href="#DejaVuSans-49"/>
       <use x="63.623047" xlink:href="#DejaVuSans-46"/>
       <use x="95.410156" xlink:href="#DejaVuSans-48"/>
      </g>
     </g>
    </g>
    <g id="text_13">
     <!-- COMb $\nu$ -->
     <defs>
      <path d="M 64.40625 67.28125 
L 64.40625 56.890625 
Q 59.421875 61.53125 53.78125 63.8125 
Q 48.140625 66.109375 41.796875 66.109375 
Q 29.296875 66.109375 22.65625 58.46875 
Q 16.015625 50.828125 16.015625 36.375 
Q 16.015625 21.96875 22.65625 14.328125 
Q 29.296875 6.6875 41.796875 6.6875 
Q 48.140625 6.6875 53.78125 8.984375 
Q 59.421875 11.28125 64.40625 15.921875 
L 64.40625 5.609375 
Q 59.234375 2.09375 53.4375 0.328125 
Q 47.65625 -1.421875 41.21875 -1.421875 
Q 24.65625 -1.421875 15.125 8.703125 
Q 5.609375 18.84375 5.609375 36.375 
Q 5.609375 53.953125 15.125 64.078125 
Q 24.65625 74.21875 41.21875 74.21875 
Q 47.75 74.21875 53.53125 72.484375 
Q 59.328125 70.75 64.40625 67.28125 
z
" id="DejaVuSans-67"/>
      <path d="M 39.40625 66.21875 
Q 28.65625 66.21875 22.328125 58.203125 
Q 16.015625 50.203125 16.015625 36.375 
Q 16.015625 22.609375 22.328125 14.59375 
Q 28.65625 6.59375 39.40625 6.59375 
Q 50.140625 6.59375 56.421875 14.59375 
Q 62.703125 22.609375 62.703125 36.375 
Q 62.703125 50.203125 56.421875 58.203125 
Q 50.140625 66.21875 39.40625 66.21875 
z
M 39.40625 74.21875 
Q 54.734375 74.21875 63.90625 63.9375 
Q 73.09375 53.65625 73.09375 36.375 
Q 73.09375 19.140625 63.90625 8.859375 
Q 54.734375 -1.421875 39.40625 -1.421875 
Q 24.03125 -1.421875 14.8125 8.828125 
Q 5.609375 19.09375 5.609375 36.375 
Q 5.609375 53.65625 14.8125 63.9375 
Q 24.03125 74.21875 39.40625 74.21875 
z
" id="DejaVuSans-79"/>
      <path d="M 9.8125 72.90625 
L 24.515625 72.90625 
L 43.109375 23.296875 
L 61.8125 72.90625 
L 76.515625 72.90625 
L 76.515625 0 
L 66.890625 0 
L 66.890625 64.015625 
L 48.09375 14.015625 
L 38.1875 14.015625 
L 19.390625 64.015625 
L 19.390625 0 
L 9.8125 0 
z
" id="DejaVuSans-77"/>
      <path d="M 48.6875 27.296875 
Q 48.6875 37.203125 44.609375 42.84375 
Q 40.53125 48.484375 33.40625 48.484375 
Q 26.265625 48.484375 22.1875 42.84375 
Q 18.109375 37.203125 18.109375 27.296875 
Q 18.109375 17.390625 22.1875 11.75 
Q 26.265625 6.109375 33.40625 6.109375 
Q 40.53125 6.109375 44.609375 11.75 
Q 48.6875 17.390625 48.6875 27.296875 
z
M 18.109375 46.390625 
Q 20.953125 51.265625 25.265625 53.625 
Q 29.59375 56 35.59375 56 
Q 45.5625 56 51.78125 48.09375 
Q 58.015625 40.1875 58.015625 27.296875 
Q 58.015625 14.40625 51.78125 6.484375 
Q 45.5625 -1.421875 35.59375 -1.421875 
Q 29.59375 -1.421875 25.265625 0.953125 
Q 20.953125 3.328125 18.109375 8.203125 
L 18.109375 0 
L 9.078125 0 
L 9.078125 75.984375 
L 18.109375 75.984375 
z
" id="DejaVuSans-98"/>
      <path d="M 14.984375 0 
L 8.9375 54.6875 
L 18.609375 54.6875 
L 23.78125 8.796875 
Q 30.8125 14.84375 37.359375 23.25 
Q 42.28125 29.546875 43.5625 35.015625 
Q 44.140625 37.59375 43.890625 42.484375 
Q 43.65625 48.296875 39.75 54.6875 
L 48.828125 54.6875 
L 48.828125 54.6875 
Q 51.375 50.34375 52.390625 44.28125 
Q 53.375 38.71875 52.640625 34.90625 
Q 50.78125 25.34375 42.484375 16.796875 
Q 31.640625 5.671875 24.5625 0 
z
" id="DejaVuSans-Oblique-957"/>
     </defs>
     <g transform="translate(21.3915 128.612)rotate(-90)scale(0.144 -0.144)">
      <use transform="translate(0 0.015625)" xlink:href="#DejaVuSans-67"/>
      <use transform="translate(69.824219 0.015625)" xlink:href="#DejaVuSans-79"/>
      <use transform="translate(148.535156 0.015625)" xlink:href="#DejaVuSans-77"/>
      <use transform="translate(234.814453 0.015625)" xlink:href="#DejaVuSans-98"/>
      <use transform="translate(298.291016 0.015625)" xlink:href="#DejaVuSans-32"/>
      <use transform="translate(330.078125 0.015625)" xlink:href="#DejaVuSans-Oblique-957"/>
     </g>
    </g>
   </g>
   <g id="line2d_12">
    <path clip-path="url(#p41e0bced6d)" d="M 54.47 39.063457 
L 56.201288 39.03129 
L 57.932576 38.060234 
L 59.663864 38.439283 
L 61.395153 36.948919 
L 63.126441 38.264127 
L 64.857729 35.793889 
L 66.589017 35.56098 
L 68.320305 35.188976 
L 70.051593 34.159427 
L 71.782881 33.763201 
L 73.514169 36.117198 
L 75.245458 34.495099 
L 76.976746 34.864561 
L 78.708034 34.554995 
L 80.439322 34.658129 
L 82.17061 35.146256 
L 83.901898 32.564934 
L 85.633186 33.27367 
L 87.364475 35.245491 
L 89.095763 35.065587 
L 90.827051 36.567295 
L 92.558339 37.701143 
L 94.289627 38.54858 
L 96.020915 36.673779 
L 97.752203 35.907991 
L 99.483492 36.763705 
L 101.21478 36.187395 
L 102.946068 35.943297 
L 104.677356 35.076195 
L 106.408644 35.254005 
L 108.139932 33.299265 
L 109.87122 35.314287 
L 111.602508 33.537634 
L 113.333797 34.113376 
L 115.065085 34.372869 
L 116.796373 36.894602 
L 118.527661 38.338042 
L 120.258949 37.231382 
L 121.990237 37.346907 
L 123.721525 37.254187 
L 125.452814 38.180468 
L 127.184102 37.238982 
L 128.91539 38.509425 
L 130.646678 40.214389 
L 132.377966 45.01993 
L 134.109254 42.272312 
L 135.840542 42.649556 
L 137.571831 41.63939 
L 141.034407 39.852688 
L 142.765695 40.118738 
L 144.496983 39.812892 
L 146.228271 39.703046 
L 147.959559 40.516362 
L 149.690847 35.944594 
L 151.422136 36.557541 
L 153.153424 34.559345 
L 154.884712 34.206091 
L 160.078576 35.749339 
L 161.809864 34.414412 
L 163.541153 35.948589 
L 165.272441 34.007045 
L 167.003729 35.203495 
L 168.735017 34.52724 
L 170.466305 34.597777 
L 172.197593 35.097546 
L 173.928881 34.2455 
L 175.660169 35.081973 
L 177.391458 36.374873 
L 180.854034 36.69497 
L 182.585322 37.312538 
L 184.31661 35.524589 
L 186.047898 34.532986 
L 187.779186 32.985108 
L 189.510475 32.552649 
L 191.241763 32.840568 
L 192.973051 30.401636 
L 194.704339 31.116356 
L 196.435627 32.294478 
L 198.166915 31.703811 
L 199.898203 31.234185 
L 201.629492 31.501928 
L 203.36078 30.798446 
L 205.092068 32.011134 
L 208.554644 32.280461 
L 210.285932 34.953631 
L 212.01722 32.91925 
L 213.748508 34.088298 
L 215.479797 33.815778 
L 217.211085 33.747834 
L 218.942373 34.001978 
L 220.673661 34.656059 
L 222.404949 32.721299 
L 224.136237 33.694439 
L 225.867525 34.187838 
L 227.598814 32.309397 
L 229.330102 33.236534 
L 231.06139 31.112247 
L 232.792678 31.346338 
L 234.523966 29.715095 
L 236.255254 29.743944 
L 237.986542 30.627916 
L 239.717831 32.937768 
L 243.180407 35.73445 
L 246.642983 37.691827 
L 248.374271 38.114135 
L 250.105559 37.290936 
L 251.836847 38.347494 
L 253.568136 37.290088 
L 255.299424 36.432416 
L 257.030712 34.939104 
L 258.762 33.270574 
L 260.493288 33.311575 
L 262.224576 32.94705 
L 263.955864 32.926027 
L 265.687153 33.848892 
L 267.418441 35.896511 
L 269.149729 35.735692 
L 270.881017 36.348124 
L 272.612305 36.726755 
L 274.343593 36.418341 
L 276.074881 35.644306 
L 277.806169 35.617815 
L 279.537458 34.841468 
L 281.268746 33.690103 
L 283.000034 32.766672 
L 284.731322 31.304845 
L 286.46261 30.714802 
L 288.193898 30.897082 
L 289.925186 33.460819 
L 291.656475 34.270203 
L 293.387763 34.572965 
L 295.119051 34.200059 
L 296.850339 35.663252 
L 298.581627 35.167669 
L 300.312915 34.296881 
L 302.044203 35.541783 
L 303.775492 34.929416 
L 305.50678 33.807065 
L 307.238068 31.148496 
L 310.700644 31.321881 
L 312.431932 30.268753 
L 314.16322 30.305352 
L 315.894508 30.946215 
L 317.625797 30.674498 
L 319.357085 31.45612 
L 321.088373 33.405502 
L 322.819661 34.959052 
L 324.550949 36.022401 
L 328.013525 35.753534 
L 329.744814 35.319452 
L 331.476102 33.551232 
L 333.20739 33.240751 
L 334.938678 31.827605 
L 336.669966 31.102916 
L 338.401254 29.753922 
L 340.132542 29.309907 
L 341.863831 30.679271 
L 343.595119 29.582091 
L 347.057695 31.387568 
L 348.788983 32.872895 
L 350.520271 32.165917 
L 352.251559 33.101775 
L 353.982847 33.551523 
L 355.714136 33.255998 
L 357.445424 33.20706 
L 359.176712 32.482241 
L 360.908 32.380436 
L 362.639288 32.60842 
L 364.370576 34.910661 
L 366.101864 35.556064 
L 367.833153 34.466756 
L 369.564441 35.247559 
L 371.295729 35.407542 
L 373.027017 36.62105 
L 374.758305 37.154612 
L 376.489593 36.224851 
L 378.220881 37.204964 
L 379.952169 38.633068 
L 381.683458 36.597075 
L 383.414746 35.095981 
L 385.146034 34.994972 
L 386.877322 33.706887 
L 388.60861 33.803971 
L 390.339898 32.581025 
L 392.071186 32.007125 
L 393.802475 33.395321 
L 395.533763 33.60182 
L 397.265051 31.759357 
L 398.996339 32.377281 
L 402.458915 32.263524 
L 404.190203 32.529702 
L 405.921492 31.81185 
L 407.65278 31.960216 
L 409.384068 33.169674 
L 411.115356 33.542256 
L 412.846644 34.562748 
L 414.577932 34.1532 
L 416.30922 34.427113 
L 418.040508 36.484998 
L 419.771797 36.599137 
L 421.503085 35.522905 
L 423.234373 36.410564 
L 424.965661 36.866121 
L 426.696949 37.955726 
L 430.159525 39.061235 
L 431.890814 41.487638 
L 433.622102 41.156124 
L 435.35339 39.394988 
L 437.084678 39.169846 
L 438.815966 39.327625 
L 442.278542 39.364272 
L 444.009831 38.858624 
L 445.741119 39.01628 
L 449.203695 35.451259 
L 450.934983 34.219769 
L 454.397559 39.259236 
L 456.128847 39.104794 
L 457.860136 39.549407 
L 459.591424 41.993805 
L 461.322712 42.280954 
L 463.054 42.175012 
L 464.785288 42.444854 
L 466.516576 40.700943 
L 468.247864 40.655768 
L 469.979153 38.369328 
L 471.710441 37.354305 
L 473.441729 35.665981 
L 475.173017 34.28069 
L 476.904305 33.056561 
L 478.635593 33.101313 
L 480.366881 32.281035 
L 482.098169 33.169064 
L 483.829458 33.688251 
L 485.560746 35.392424 
L 487.292034 35.809618 
L 489.023322 36.537899 
L 492.485898 39.486701 
L 494.217186 39.503119 
L 495.948475 38.153604 
L 497.679763 37.476017 
L 499.411051 36.354474 
L 501.142339 35.710168 
L 502.873627 34.495197 
L 504.604915 35.405941 
L 506.336203 37.306921 
L 508.067492 37.617576 
L 509.79878 36.713334 
L 511.530068 38.58684 
L 513.261356 39.022457 
L 514.992644 38.427055 
L 516.723932 38.655654 
L 518.45522 37.437035 
L 520.186508 37.46771 
L 521.917797 37.811144 
L 523.649085 37.483996 
L 525.380373 38.150232 
L 527.111661 36.69406 
L 528.842949 36.646471 
L 530.574237 37.850485 
L 532.305525 38.54197 
L 534.036814 37.555059 
L 535.768102 38.137684 
L 537.49939 39.335913 
L 540.961966 37.069239 
L 544.424542 37.814624 
L 546.155831 37.897758 
L 547.887119 36.500673 
L 549.618407 35.992458 
L 551.349695 35.666995 
L 553.080983 36.50417 
L 556.543559 35.9283 
L 558.274847 37.28262 
L 560.006136 35.94817 
L 561.737424 35.547446 
L 563.468712 34.75107 
L 565.2 37.35787 
L 565.2 37.35787 
" style="fill:none;stroke:#0000ff;stroke-linecap:square;stroke-width:1.5;"/>
   </g>
   <g id="patch_3">
    <path d="M 54.47 174.76 
L 54.47 26.88 
" style="fill:none;stroke:#000000;stroke-linecap:square;stroke-linejoin:miter;stroke-width:0.8;"/>
   </g>
   <g id="patch_4">
    <path d="M 565.2 174.76 
L 565.2 26.88 
" style="fill:none;stroke:#000000;stroke-linecap:square;stroke-linejoin:miter;stroke-width:0.8;"/>
   </g>
   <g id="patch_5">
    <path d="M 54.47 174.76 
L 565.2 174.76 
" style="fill:none;stroke:#000000;stroke-linecap:square;stroke-linejoin:miter;stroke-width:0.8;"/>
   </g>
   <g id="patch_6">
    <path d="M 54.47 26.88 
L 565.2 26.88 
" style="fill:none;stroke:#000000;stroke-linecap:square;stroke-linejoin:miter;stroke-width:0.8;"/>
   </g>
   <g id="text_14">
    <!-- Thalamus, Num Trials=160 All stimulated trials, Num cells = 610 -->
    <defs>
     <path d="M 54.890625 33.015625 
L 54.890625 0 
L 45.90625 0 
L 45.90625 32.71875 
Q 45.90625 40.484375 42.875 44.328125 
Q 39.84375 48.1875 33.796875 48.1875 
Q 26.515625 48.1875 22.3125 43.546875 
Q 18.109375 38.921875 18.109375 30.90625 
L 18.109375 0 
L 9.078125 0 
L 9.078125 75.984375 
L 18.109375 75.984375 
L 18.109375 46.1875 
Q 21.34375 51.125 25.703125 53.5625 
Q 30.078125 56 35.796875 56 
Q 45.21875 56 50.046875 50.171875 
Q 54.890625 44.34375 54.890625 33.015625 
z
" id="DejaVuSans-104"/>
     <path d="M 34.28125 27.484375 
Q 23.390625 27.484375 19.1875 25 
Q 14.984375 22.515625 14.984375 16.5 
Q 14.984375 11.71875 18.140625 8.90625 
Q 21.296875 6.109375 26.703125 6.109375 
Q 34.1875 6.109375 38.703125 11.40625 
Q 43.21875 16.703125 43.21875 25.484375 
L 43.21875 27.484375 
z
M 52.203125 31.203125 
L 52.203125 0 
L 43.21875 0 
L 43.21875 8.296875 
Q 40.140625 3.328125 35.546875 0.953125 
Q 30.953125 -1.421875 24.3125 -1.421875 
Q 15.921875 -1.421875 10.953125 3.296875 
Q 6 8.015625 6 15.921875 
Q 6 25.140625 12.171875 29.828125 
Q 18.359375 34.515625 30.609375 34.515625 
L 43.21875 34.515625 
L 43.21875 35.40625 
Q 43.21875 41.609375 39.140625 45 
Q 35.0625 48.390625 27.6875 48.390625 
Q 23 48.390625 18.546875 47.265625 
Q 14.109375 46.140625 10.015625 43.890625 
L 10.015625 52.203125 
Q 14.9375 54.109375 19.578125 55.046875 
Q 24.21875 56 28.609375 56 
Q 40.484375 56 46.34375 49.84375 
Q 52.203125 43.703125 52.203125 31.203125 
z
" id="DejaVuSans-97"/>
     <path d="M 9.421875 75.984375 
L 18.40625 75.984375 
L 18.40625 0 
L 9.421875 0 
z
" id="DejaVuSans-108"/>
     <path d="M 8.5 21.578125 
L 8.5 54.6875 
L 17.484375 54.6875 
L 17.484375 21.921875 
Q 17.484375 14.15625 20.5 10.265625 
Q 23.53125 6.390625 29.59375 6.390625 
Q 36.859375 6.390625 41.078125 11.03125 
Q 45.3125 15.671875 45.3125 23.6875 
L 45.3125 54.6875 
L 54.296875 54.6875 
L 54.296875 0 
L 45.3125 0 
L 45.3125 8.40625 
Q 42.046875 3.421875 37.71875 1 
Q 33.40625 -1.421875 27.6875 -1.421875 
Q 18.265625 -1.421875 13.375 4.4375 
Q 8.5 10.296875 8.5 21.578125 
z
M 31.109375 56 
z
" id="DejaVuSans-117"/>
     <path d="M 11.71875 12.40625 
L 22.015625 12.40625 
L 22.015625 4 
L 14.015625 -11.625 
L 7.71875 -11.625 
L 11.71875 4 
z
" id="DejaVuSans-44"/>
     <path d="M 9.8125 72.90625 
L 23.09375 72.90625 
L 55.421875 11.921875 
L 55.421875 72.90625 
L 64.984375 72.90625 
L 64.984375 0 
L 51.703125 0 
L 19.390625 60.984375 
L 19.390625 0 
L 9.8125 0 
z
" id="DejaVuSans-78"/>
     <path d="M 41.109375 46.296875 
Q 39.59375 47.171875 37.8125 47.578125 
Q 36.03125 48 33.890625 48 
Q 26.265625 48 22.1875 43.046875 
Q 18.109375 38.09375 18.109375 28.8125 
L 18.109375 0 
L 9.078125 0 
L 9.078125 54.6875 
L 18.109375 54.6875 
L 18.109375 46.1875 
Q 20.953125 51.171875 25.484375 53.578125 
Q 30.03125 56 36.53125 56 
Q 37.453125 56 38.578125 55.875 
Q 39.703125 55.765625 41.0625 55.515625 
z
" id="DejaVuSans-114"/>
     <path d="M 10.59375 45.40625 
L 73.1875 45.40625 
L 73.1875 37.203125 
L 10.59375 37.203125 
z
M 10.59375 25.484375 
L 73.1875 25.484375 
L 73.1875 17.1875 
L 10.59375 17.1875 
z
" id="DejaVuSans-61"/>
     <path d="M 34.1875 63.1875 
L 20.796875 26.90625 
L 47.609375 26.90625 
z
M 28.609375 72.90625 
L 39.796875 72.90625 
L 67.578125 0 
L 57.328125 0 
L 50.6875 18.703125 
L 17.828125 18.703125 
L 11.1875 0 
L 0.78125 0 
z
" id="DejaVuSans-65"/>
     <path d="M 18.3125 70.21875 
L 18.3125 54.6875 
L 36.8125 54.6875 
L 36.8125 47.703125 
L 18.3125 47.703125 
L 18.3125 18.015625 
Q 18.3125 11.328125 20.140625 9.421875 
Q 21.96875 7.515625 27.59375 7.515625 
L 36.8125 7.515625 
L 36.8125 0 
L 27.59375 0 
Q 17.1875 0 13.234375 3.875 
Q 9.28125 7.765625 9.28125 18.015625 
L 9.28125 47.703125 
L 2.6875 47.703125 
L 2.6875 54.6875 
L 9.28125 54.6875 
L 9.28125 70.21875 
z
" id="DejaVuSans-116"/>
     <path d="M 45.40625 46.390625 
L 45.40625 75.984375 
L 54.390625 75.984375 
L 54.390625 0 
L 45.40625 0 
L 45.40625 8.203125 
Q 42.578125 3.328125 38.25 0.953125 
Q 33.9375 -1.421875 27.875 -1.421875 
Q 17.96875 -1.421875 11.734375 6.484375 
Q 5.515625 14.40625 5.515625 27.296875 
Q 5.515625 40.1875 11.734375 48.09375 
Q 17.96875 56 27.875 56 
Q 33.9375 56 38.25 53.625 
Q 42.578125 51.265625 45.40625 46.390625 
z
M 14.796875 27.296875 
Q 14.796875 17.390625 18.875 11.75 
Q 22.953125 6.109375 30.078125 6.109375 
Q 37.203125 6.109375 41.296875 11.75 
Q 45.40625 17.390625 45.40625 27.296875 
Q 45.40625 37.203125 41.296875 42.84375 
Q 37.203125 48.484375 30.078125 48.484375 
Q 22.953125 48.484375 18.875 42.84375 
Q 14.796875 37.203125 14.796875 27.296875 
z
" id="DejaVuSans-100"/>
     <path d="M 48.78125 52.59375 
L 48.78125 44.1875 
Q 44.96875 46.296875 41.140625 47.34375 
Q 37.3125 48.390625 33.40625 48.390625 
Q 24.65625 48.390625 19.8125 42.84375 
Q 14.984375 37.3125 14.984375 27.296875 
Q 14.984375 17.28125 19.8125 11.734375 
Q 24.65625 6.203125 33.40625 6.203125 
Q 37.3125 6.203125 41.140625 7.25 
Q 44.96875 8.296875 48.78125 10.40625 
L 48.78125 2.09375 
Q 45.015625 0.34375 40.984375 -0.53125 
Q 36.96875 -1.421875 32.421875 -1.421875 
Q 20.0625 -1.421875 12.78125 6.34375 
Q 5.515625 14.109375 5.515625 27.296875 
Q 5.515625 40.671875 12.859375 48.328125 
Q 20.21875 56 33.015625 56 
Q 37.15625 56 41.109375 55.140625 
Q 45.0625 54.296875 48.78125 52.59375 
z
" id="DejaVuSans-99"/>
    </defs>
    <g transform="translate(114.280937 20.88)scale(0.12 -0.12)">
     <use xlink:href="#DejaVuSans-84"/>
     <use x="61.083984" xlink:href="#DejaVuSans-104"/>
     <use x="124.462891" xlink:href="#DejaVuSans-97"/>
     <use x="185.742188" xlink:href="#DejaVuSans-108"/>
     <use x="213.525391" xlink:href="#DejaVuSans-97"/>
     <use x="274.804688" xlink:href="#DejaVuSans-109"/>
     <use x="372.216797" xlink:href="#DejaVuSans-117"/>
     <use x="435.595703" xlink:href="#DejaVuSans-115"/>
     <use x="487.695312" xlink:href="#DejaVuSans-44"/>
     <use x="519.482422" xlink:href="#DejaVuSans-32"/>
     <use x="551.269531" xlink:href="#DejaVuSans-78"/>
     <use x="626.074219" xlink:href="#DejaVuSans-117"/>
     <use x="689.453125" xlink:href="#DejaVuSans-109"/>
     <use x="786.865234" xlink:href="#DejaVuSans-32"/>
     <use x="818.652344" xlink:href="#DejaVuSans-84"/>
     <use x="879.517578" xlink:href="#DejaVuSans-114"/>
     <use x="920.630859" xlink:href="#DejaVuSans-105"/>
     <use x="948.414062" xlink:href="#DejaVuSans-97"/>
     <use x="1009.693359" xlink:href="#DejaVuSans-108"/>
     <use x="1037.476562" xlink:href="#DejaVuSans-115"/>
     <use x="1089.576172" xlink:href="#DejaVuSans-61"/>
     <use x="1173.365234" xlink:href="#DejaVuSans-49"/>
     <use x="1236.988281" xlink:href="#DejaVuSans-54"/>
     <use x="1300.611328" xlink:href="#DejaVuSans-48"/>
     <use x="1364.234375" xlink:href="#DejaVuSans-32"/>
     <use x="1396.021484" xlink:href="#DejaVuSans-65"/>
     <use x="1464.429688" xlink:href="#DejaVuSans-108"/>
     <use x="1492.212891" xlink:href="#DejaVuSans-108"/>
     <use x="1519.996094" xlink:href="#DejaVuSans-32"/>
     <use x="1551.783203" xlink:href="#DejaVuSans-115"/>
     <use x="1603.882812" xlink:href="#DejaVuSans-116"/>
     <use x="1643.091797" xlink:href="#DejaVuSans-105"/>
     <use x="1670.875" xlink:href="#DejaVuSans-109"/>
     <use x="1768.287109" xlink:href="#DejaVuSans-117"/>
     <use x="1831.666016" xlink:href="#DejaVuSans-108"/>
     <use x="1859.449219" xlink:href="#DejaVuSans-97"/>
     <use x="1920.728516" xlink:href="#DejaVuSans-116"/>
     <use x="1959.9375" xlink:href="#DejaVuSans-101"/>
     <use x="2021.460938" xlink:href="#DejaVuSans-100"/>
     <use x="2084.9375" xlink:href="#DejaVuSans-32"/>
     <use x="2116.724609" xlink:href="#DejaVuSans-116"/>
     <use x="2155.933594" xlink:href="#DejaVuSans-114"/>
     <use x="2197.046875" xlink:href="#DejaVuSans-105"/>
     <use x="2224.830078" xlink:href="#DejaVuSans-97"/>
     <use x="2286.109375" xlink:href="#DejaVuSans-108"/>
     <use x="2313.892578" xlink:href="#DejaVuSans-115"/>
     <use x="2365.992188" xlink:href="#DejaVuSans-44"/>
     <use x="2397.779297" xlink:href="#DejaVuSans-32"/>
     <use x="2429.566406" xlink:href="#DejaVuSans-78"/>
     <use x="2504.371094" xlink:href="#DejaVuSans-117"/>
     <use x="2567.75" xlink:href="#DejaVuSans-109"/>
     <use x="2665.162109" xlink:href="#DejaVuSans-32"/>
     <use x="2696.949219" xlink:href="#DejaVuSans-99"/>
     <use x="2751.929688" xlink:href="#DejaVuSans-101"/>
     <use x="2813.453125" xlink:href="#DejaVuSans-108"/>
     <use x="2841.236328" xlink:href="#DejaVuSans-108"/>
     <use x="2869.019531" xlink:href="#DejaVuSans-115"/>
     <use x="2921.119141" xlink:href="#DejaVuSans-32"/>
     <use x="2952.90625" xlink:href="#DejaVuSans-61"/>
     <use x="3036.695312" xlink:href="#DejaVuSans-32"/>
     <use x="3068.482422" xlink:href="#DejaVuSans-54"/>
     <use x="3132.105469" xlink:href="#DejaVuSans-49"/>
     <use x="3195.728516" xlink:href="#DejaVuSans-48"/>
    </g>
   </g>
   <g id="legend_1">
    <g id="patch_7">
     <path d="M 62.87 168.76 
L 196.55 168.76 
Q 198.95 168.76 198.95 166.36 
L 198.95 132.3325 
Q 198.95 129.9325 196.55 129.9325 
L 62.87 129.9325 
Q 60.47 129.9325 60.47 132.3325 
L 60.47 166.36 
Q 60.47 168.76 62.87 168.76 
z
" style="fill:#ffffff;opacity:0.8;stroke:#cccccc;stroke-linejoin:miter;"/>
    </g>
    <g id="line2d_13">
     <path d="M 65.27 139.650625 
L 89.27 139.650625 
" style="fill:none;stroke:#0000ff;stroke-linecap:square;stroke-width:1.5;"/>
    </g>
    <g id="line2d_14"/>
    <g id="text_15">
     <!-- COM-Binomial $\nu$ -->
     <defs>
      <path d="M 4.890625 31.390625 
L 31.203125 31.390625 
L 31.203125 23.390625 
L 4.890625 23.390625 
z
" id="DejaVuSans-45"/>
      <path d="M 19.671875 34.8125 
L 19.671875 8.109375 
L 35.5 8.109375 
Q 43.453125 8.109375 47.28125 11.40625 
Q 51.125 14.703125 51.125 21.484375 
Q 51.125 28.328125 47.28125 31.5625 
Q 43.453125 34.8125 35.5 34.8125 
z
M 19.671875 64.796875 
L 19.671875 42.828125 
L 34.28125 42.828125 
Q 41.5 42.828125 45.03125 45.53125 
Q 48.578125 48.25 48.578125 53.8125 
Q 48.578125 59.328125 45.03125 62.0625 
Q 41.5 64.796875 34.28125 64.796875 
z
M 9.8125 72.90625 
L 35.015625 72.90625 
Q 46.296875 72.90625 52.390625 68.21875 
Q 58.5 63.53125 58.5 54.890625 
Q 58.5 48.1875 55.375 44.234375 
Q 52.25 40.28125 46.1875 39.3125 
Q 53.46875 37.75 57.5 32.78125 
Q 61.53125 27.828125 61.53125 20.40625 
Q 61.53125 10.640625 54.890625 5.3125 
Q 48.25 0 35.984375 0 
L 9.8125 0 
z
" id="DejaVuSans-66"/>
      <path d="M 54.890625 33.015625 
L 54.890625 0 
L 45.90625 0 
L 45.90625 32.71875 
Q 45.90625 40.484375 42.875 44.328125 
Q 39.84375 48.1875 33.796875 48.1875 
Q 26.515625 48.1875 22.3125 43.546875 
Q 18.109375 38.921875 18.109375 30.90625 
L 18.109375 0 
L 9.078125 0 
L 9.078125 54.6875 
L 18.109375 54.6875 
L 18.109375 46.1875 
Q 21.34375 51.125 25.703125 53.5625 
Q 30.078125 56 35.796875 56 
Q 45.21875 56 50.046875 50.171875 
Q 54.890625 44.34375 54.890625 33.015625 
z
" id="DejaVuSans-110"/>
      <path d="M 30.609375 48.390625 
Q 23.390625 48.390625 19.1875 42.75 
Q 14.984375 37.109375 14.984375 27.296875 
Q 14.984375 17.484375 19.15625 11.84375 
Q 23.34375 6.203125 30.609375 6.203125 
Q 37.796875 6.203125 41.984375 11.859375 
Q 46.1875 17.53125 46.1875 27.296875 
Q 46.1875 37.015625 41.984375 42.703125 
Q 37.796875 48.390625 30.609375 48.390625 
z
M 30.609375 56 
Q 42.328125 56 49.015625 48.375 
Q 55.71875 40.765625 55.71875 27.296875 
Q 55.71875 13.875 49.015625 6.21875 
Q 42.328125 -1.421875 30.609375 -1.421875 
Q 18.84375 -1.421875 12.171875 6.21875 
Q 5.515625 13.875 5.515625 27.296875 
Q 5.515625 40.765625 12.171875 48.375 
Q 18.84375 56 30.609375 56 
z
" id="DejaVuSans-111"/>
     </defs>
     <g transform="translate(98.87 143.850625)scale(0.12 -0.12)">
      <use transform="translate(0 0.015625)" xlink:href="#DejaVuSans-67"/>
      <use transform="translate(69.824219 0.015625)" xlink:href="#DejaVuSans-79"/>
      <use transform="translate(148.535156 0.015625)" xlink:href="#DejaVuSans-77"/>
      <use transform="translate(234.814453 0.015625)" xlink:href="#DejaVuSans-45"/>
      <use transform="translate(270.898438 0.015625)" xlink:href="#DejaVuSans-66"/>
      <use transform="translate(339.501953 0.015625)" xlink:href="#DejaVuSans-105"/>
      <use transform="translate(367.285156 0.015625)" xlink:href="#DejaVuSans-110"/>
      <use transform="translate(430.664062 0.015625)" xlink:href="#DejaVuSans-111"/>
      <use transform="translate(491.845703 0.015625)" xlink:href="#DejaVuSans-109"/>
      <use transform="translate(589.257812 0.015625)" xlink:href="#DejaVuSans-105"/>
      <use transform="translate(617.041016 0.015625)" xlink:href="#DejaVuSans-97"/>
      <use transform="translate(678.320312 0.015625)" xlink:href="#DejaVuSans-108"/>
      <use transform="translate(706.103516 0.015625)" xlink:href="#DejaVuSans-32"/>
      <use transform="translate(737.890625 0.015625)" xlink:href="#DejaVuSans-Oblique-957"/>
     </g>
    </g>
    <g id="patch_8">
     <path d="M 65.27 161.464375 
L 89.27 161.464375 
L 89.27 153.064375 
L 65.27 153.064375 
z
" style="fill:#0000ff;opacity:0.3;stroke:#0000ff;stroke-linejoin:miter;"/>
    </g>
    <g id="text_16">
     <!-- Std. Err. -->
     <defs>
      <path d="M 53.515625 70.515625 
L 53.515625 60.890625 
Q 47.90625 63.578125 42.921875 64.890625 
Q 37.9375 66.21875 33.296875 66.21875 
Q 25.25 66.21875 20.875 63.09375 
Q 16.5 59.96875 16.5 54.203125 
Q 16.5 49.359375 19.40625 46.890625 
Q 22.3125 44.4375 30.421875 42.921875 
L 36.375 41.703125 
Q 47.40625 39.59375 52.65625 34.296875 
Q 57.90625 29 57.90625 20.125 
Q 57.90625 9.515625 50.796875 4.046875 
Q 43.703125 -1.421875 29.984375 -1.421875 
Q 24.8125 -1.421875 18.96875 -0.25 
Q 13.140625 0.921875 6.890625 3.21875 
L 6.890625 13.375 
Q 12.890625 10.015625 18.65625 8.296875 
Q 24.421875 6.59375 29.984375 6.59375 
Q 38.421875 6.59375 43.015625 9.90625 
Q 47.609375 13.234375 47.609375 19.390625 
Q 47.609375 24.75 44.3125 27.78125 
Q 41.015625 30.8125 33.5 32.328125 
L 27.484375 33.5 
Q 16.453125 35.6875 11.515625 40.375 
Q 6.59375 45.0625 6.59375 53.421875 
Q 6.59375 63.09375 13.40625 68.65625 
Q 20.21875 74.21875 32.171875 74.21875 
Q 37.3125 74.21875 42.625 73.28125 
Q 47.953125 72.359375 53.515625 70.515625 
z
" id="DejaVuSans-83"/>
      <path d="M 9.8125 72.90625 
L 55.90625 72.90625 
L 55.90625 64.59375 
L 19.671875 64.59375 
L 19.671875 43.015625 
L 54.390625 43.015625 
L 54.390625 34.71875 
L 19.671875 34.71875 
L 19.671875 8.296875 
L 56.78125 8.296875 
L 56.78125 0 
L 9.8125 0 
z
" id="DejaVuSans-69"/>
     </defs>
     <g transform="translate(98.87 161.464375)scale(0.12 -0.12)">
      <use xlink:href="#DejaVuSans-83"/>
      <use x="63.476562" xlink:href="#DejaVuSans-116"/>
      <use x="102.685547" xlink:href="#DejaVuSans-100"/>
      <use x="166.162109" xlink:href="#DejaVuSans-46"/>
      <use x="197.949219" xlink:href="#DejaVuSans-32"/>
      <use x="229.736328" xlink:href="#DejaVuSans-69"/>
      <use x="292.919922" xlink:href="#DejaVuSans-114"/>
      <use x="334.017578" xlink:href="#DejaVuSans-114"/>
      <use x="374.990234" xlink:href="#DejaVuSans-46"/>
     </g>
    </g>
   </g>
  </g>
 </g>
 <defs>
  <clipPath id="p41e0bced6d">
   <rect height="147.88" width="510.73" x="54.47" y="26.88"/>
  </clipPath>
 </defs>
</svg>
