<?xml version="1.0" encoding="utf-8" standalone="no"?>
<!DOCTYPE svg PUBLIC "-//W3C//DTD SVG 1.1//EN"
  "http://www.w3.org/Graphics/SVG/1.1/DTD/svg11.dtd">
<!-- Created with matplotlib (https://matplotlib.org/) -->
<svg height="223.2pt" version="1.1" viewBox="0 0 576 223.2" width="576pt" xmlns="http://www.w3.org/2000/svg" xmlns:xlink="http://www.w3.org/1999/xlink">
 <defs>
  <style type="text/css">
*{stroke-linecap:butt;stroke-linejoin:round;}
  </style>
 </defs>
 <g id="figure_1">
  <g id="patch_1">
   <path d="M 0 223.2 
L 576 223.2 
L 576 0 
L 0 0 
z
" style="fill:#ffffff;"/>
  </g>
  <g id="axes_1">
   <g id="patch_2">
    <path d="M 80.12 174.76 
L 565.2 174.76 
L 565.2 26.88 
L 80.12 26.88 
z
" style="fill:#ffffff;"/>
   </g>
   <g id="PolyCollection_1">
    <defs>
     <path d="M 158.966054 -48.44 
L 158.966054 -196.32 
L 405.616902 -196.32 
L 405.616902 -48.44 
L 405.616902 -48.44 
L 158.966054 -48.44 
z
" id="m40df5d79a9" style="stroke:#808080;stroke-opacity:0.3;"/>
    </defs>
    <g clip-path="url(#pe955aaf4d3)">
     <use style="fill:#808080;fill-opacity:0.3;stroke:#808080;stroke-opacity:0.3;" x="0" xlink:href="#m40df5d79a9" y="223.2"/>
    </g>
   </g>
   <g id="PolyCollection_2">
    <defs>
     <path d="M 80.12 -140.244347 
L 80.12 -102.366416 
L 81.764339 -112.603507 
L 83.408678 -113.940026 
L 85.053017 -117.184776 
L 86.697356 -109.459437 
L 88.341695 -116.262775 
L 89.986034 -113.186467 
L 91.630373 -106.827554 
L 93.274712 -101.75108 
L 94.919051 -96.070184 
L 96.56339 -84.553518 
L 98.207729 -83.896847 
L 99.852068 -88.539208 
L 101.496407 -81.459915 
L 103.140746 -87.541425 
L 104.785085 -86.541964 
L 106.429424 -86.0182 
L 108.073763 -81.171074 
L 109.718102 -81.65994 
L 111.362441 -82.244526 
L 113.00678 -94.828362 
L 114.651119 -93.669764 
L 116.295458 -86.949997 
L 117.939797 -92.833582 
L 119.584136 -90.390542 
L 121.228475 -98.078584 
L 122.872814 -97.152419 
L 124.517153 -93.446371 
L 126.161492 -93.639862 
L 127.805831 -99.271671 
L 129.450169 -91.309062 
L 131.094508 -102.398874 
L 132.738847 -106.10881 
L 134.383186 -101.459771 
L 136.027525 -89.684541 
L 137.671864 -83.881513 
L 139.316203 -84.708298 
L 140.960542 -88.179716 
L 142.604881 -83.769798 
L 144.24922 -84.19828 
L 145.893559 -79.666411 
L 147.537898 -78.548887 
L 149.182237 -71.79837 
L 150.826576 -68.620295 
L 152.470915 -68.909826 
L 154.115254 -67.7772 
L 155.759593 -74.331019 
L 157.403932 -74.001211 
L 159.048271 -80.037644 
L 160.69261 -80.150793 
L 162.336949 -81.605526 
L 163.981288 -81.851681 
L 165.625627 -80.748853 
L 167.269966 -82.222832 
L 168.914305 -90.619361 
L 170.558644 -90.592958 
L 172.202983 -86.054492 
L 173.847322 -94.258989 
L 175.491661 -85.254987 
L 177.136 -94.491087 
L 178.780339 -84.761085 
L 180.424678 -87.835466 
L 182.069017 -101.281785 
L 183.713356 -102.347641 
L 185.357695 -97.832089 
L 187.002034 -89.953038 
L 188.646373 -90.411673 
L 190.290712 -85.650718 
L 191.935051 -83.561542 
L 193.57939 -82.223452 
L 195.223729 -93.165261 
L 196.868068 -88.821716 
L 198.512407 -85.618164 
L 200.156746 -89.930829 
L 201.801085 -98.88773 
L 203.445424 -102.72907 
L 205.089763 -97.966043 
L 206.734102 -89.382654 
L 208.378441 -91.33242 
L 210.02278 -76.586881 
L 211.667119 -75.225356 
L 213.311458 -81.657667 
L 214.955797 -82.041669 
L 216.600136 -72.934927 
L 218.244475 -71.381112 
L 219.888814 -84.921333 
L 221.533153 -94.75383 
L 223.177492 -100.537739 
L 224.821831 -109.900011 
L 226.466169 -137.982731 
L 228.110508 -129.046875 
L 229.754847 -118.291238 
L 231.399186 -115.881424 
L 233.043525 -114.116349 
L 234.687864 -106.581165 
L 236.332203 -95.192662 
L 237.976542 -95.624019 
L 239.620881 -90.830565 
L 241.26522 -84.903486 
L 242.909559 -76.048148 
L 244.553898 -77.372078 
L 246.198237 -76.400521 
L 247.842576 -79.724965 
L 249.486915 -79.786954 
L 251.131254 -80.511846 
L 252.775593 -78.98241 
L 254.419932 -81.392844 
L 256.064271 -80.83803 
L 257.70861 -97.045841 
L 259.352949 -102.329195 
L 260.997288 -95.387925 
L 262.641627 -88.677143 
L 264.285966 -89.629291 
L 265.930305 -88.541901 
L 267.574644 -89.767037 
L 269.218983 -98.460362 
L 270.863322 -99.716516 
L 272.507661 -101.617323 
L 274.152 -102.788705 
L 275.796339 -79.391093 
L 277.440678 -90.421093 
L 279.085017 -93.101745 
L 280.729356 -93.445901 
L 282.373695 -90.64429 
L 284.018034 -88.16902 
L 285.662373 -78.504458 
L 287.306712 -77.054676 
L 288.951051 -75.826976 
L 290.59539 -71.435357 
L 292.239729 -77.875977 
L 293.884068 -73.63207 
L 295.528407 -77.461314 
L 297.172746 -74.620182 
L 298.817085 -74.5282 
L 300.461424 -87.529359 
L 302.105763 -86.031578 
L 303.750102 -91.502279 
L 305.394441 -90.068591 
L 307.03878 -80.690879 
L 308.683119 -80.671735 
L 310.327458 -77.713645 
L 311.971797 -83.448092 
L 313.616136 -88.903269 
L 315.260475 -87.396402 
L 316.904814 -76.696132 
L 318.549153 -78.864278 
L 320.193492 -76.480153 
L 321.837831 -79.093587 
L 323.482169 -92.762465 
L 325.126508 -97.997046 
L 326.770847 -106.328044 
L 328.415186 -94.145437 
L 330.059525 -81.5735 
L 331.703864 -80.304119 
L 333.348203 -88.312918 
L 334.992542 -94.561998 
L 336.636881 -100.904963 
L 338.28122 -112.864087 
L 339.925559 -99.821111 
L 341.569898 -85.282829 
L 343.214237 -74.691059 
L 344.858576 -79.092195 
L 346.502915 -76.31147 
L 348.147254 -80.209764 
L 349.791593 -80.013409 
L 351.435932 -79.618297 
L 353.080271 -77.381528 
L 354.72461 -67.03512 
L 356.368949 -66.058474 
L 358.013288 -69.803279 
L 359.657627 -75.950616 
L 361.301966 -71.617699 
L 362.946305 -74.749096 
L 364.590644 -69.272874 
L 366.234983 -68.562401 
L 367.879322 -69.763864 
L 369.523661 -68.722506 
L 371.168 -70.700945 
L 372.812339 -72.88847 
L 374.456678 -70.589094 
L 376.101017 -77.015649 
L 377.745356 -83.760829 
L 379.389695 -80.995498 
L 381.034034 -81.497186 
L 382.678373 -80.426813 
L 384.322712 -86.470368 
L 385.967051 -85.23137 
L 387.61139 -83.554183 
L 389.255729 -86.342573 
L 390.900068 -89.769695 
L 392.544407 -80.982564 
L 394.188746 -90.622888 
L 395.833085 -79.015169 
L 397.477424 -84.21097 
L 399.121763 -88.282918 
L 400.766102 -83.570669 
L 402.410441 -96.96636 
L 404.05478 -91.570441 
L 405.699119 -91.743656 
L 407.343458 -92.128839 
L 408.987797 -98.764296 
L 410.632136 -89.734284 
L 412.276475 -92.191329 
L 413.920814 -82.533316 
L 415.565153 -76.886254 
L 417.209492 -72.577033 
L 418.853831 -68.773735 
L 420.498169 -69.569089 
L 422.142508 -70.066919 
L 423.786847 -69.342107 
L 425.431186 -63.811327 
L 427.075525 -64.328991 
L 428.719864 -67.491793 
L 430.364203 -74.151324 
L 432.008542 -78.472533 
L 433.652881 -81.490711 
L 435.29722 -82.648918 
L 436.941559 -89.179325 
L 438.585898 -91.935915 
L 440.230237 -98.44498 
L 441.874576 -106.379326 
L 443.518915 -111.60984 
L 445.163254 -112.628182 
L 446.807593 -107.104649 
L 448.451932 -103.080677 
L 450.096271 -104.685533 
L 451.74061 -100.274167 
L 453.384949 -96.383466 
L 455.029288 -91.138305 
L 456.673627 -91.920685 
L 458.317966 -92.964523 
L 459.962305 -82.917299 
L 461.606644 -82.380999 
L 463.250983 -77.33099 
L 464.895322 -79.725885 
L 466.539661 -84.057862 
L 468.184 -87.636597 
L 469.828339 -84.579681 
L 471.472678 -80.11762 
L 473.117017 -82.076545 
L 474.761356 -85.193237 
L 476.405695 -96.740167 
L 478.050034 -91.302946 
L 479.694373 -92.754134 
L 481.338712 -92.908998 
L 482.983051 -89.093502 
L 484.62739 -83.615584 
L 486.271729 -77.560502 
L 487.916068 -81.464821 
L 489.560407 -80.554865 
L 491.204746 -79.706579 
L 492.849085 -79.491486 
L 494.493424 -82.377434 
L 496.137763 -77.818092 
L 497.782102 -81.17991 
L 499.426441 -84.305133 
L 501.07078 -90.083774 
L 502.715119 -92.23212 
L 504.359458 -90.012616 
L 506.003797 -89.892127 
L 507.648136 -81.022585 
L 509.292475 -83.13645 
L 510.936814 -82.929966 
L 512.581153 -83.086859 
L 514.225492 -86.217266 
L 515.869831 -93.428407 
L 517.514169 -94.556777 
L 519.158508 -102.769317 
L 520.802847 -89.096248 
L 522.447186 -92.027421 
L 524.091525 -90.185333 
L 525.735864 -93.217262 
L 527.380203 -93.350253 
L 529.024542 -96.73124 
L 530.668881 -92.288482 
L 532.31322 -82.588543 
L 533.957559 -86.823515 
L 535.601898 -86.396568 
L 537.246237 -102.833457 
L 538.890576 -100.387869 
L 540.534915 -97.635543 
L 542.179254 -96.327285 
L 543.823593 -94.5373 
L 545.467932 -103.226579 
L 547.112271 -100.817635 
L 548.75661 -108.600497 
L 550.400949 -108.458455 
L 552.045288 -97.578943 
L 553.689627 -84.039768 
L 555.333966 -88.437671 
L 556.978305 -96.207985 
L 558.622644 -99.940033 
L 560.266983 -92.453564 
L 561.911322 -86.719497 
L 563.555661 -81.13956 
L 565.2 -84.884362 
L 565.2 -107.658827 
L 565.2 -107.658827 
L 563.555661 -105.688604 
L 561.911322 -116.126886 
L 560.266983 -127.956565 
L 558.622644 -137.575868 
L 556.978305 -138.41025 
L 555.333966 -131.413293 
L 553.689627 -131.518347 
L 552.045288 -146.776582 
L 550.400949 -167.636553 
L 548.75661 -158.116332 
L 547.112271 -157.787558 
L 545.467932 -158.604594 
L 543.823593 -145.066082 
L 542.179254 -131.485937 
L 540.534915 -144.673158 
L 538.890576 -140.406999 
L 537.246237 -148.914797 
L 535.601898 -116.748657 
L 533.957559 -112.035011 
L 532.31322 -110.938772 
L 530.668881 -140.993558 
L 529.024542 -147.754239 
L 527.380203 -128.850838 
L 525.735864 -118.064557 
L 524.091525 -117.151489 
L 522.447186 -121.363421 
L 520.802847 -119.231913 
L 519.158508 -127.761327 
L 517.514169 -117.387973 
L 515.869831 -117.394817 
L 514.225492 -117.610718 
L 512.581153 -119.524431 
L 510.936814 -116.396917 
L 509.292475 -113.020211 
L 507.648136 -109.367085 
L 506.003797 -128.671597 
L 504.359458 -125.547219 
L 502.715119 -138.524288 
L 501.07078 -127.165709 
L 499.426441 -115.163957 
L 497.782102 -105.148055 
L 496.137763 -94.368666 
L 494.493424 -104.560051 
L 492.849085 -104.4277 
L 491.204746 -107.124942 
L 489.560407 -100.86351 
L 487.916068 -104.679001 
L 486.271729 -91.155155 
L 484.62739 -96.674164 
L 482.983051 -108.495322 
L 481.338712 -123.187735 
L 479.694373 -127.23176 
L 478.050034 -127.706926 
L 476.405695 -134.689955 
L 474.761356 -115.151895 
L 473.117017 -106.162626 
L 471.472678 -124.010343 
L 469.828339 -134.830757 
L 468.184 -130.746879 
L 466.539661 -123.998153 
L 464.895322 -114.552956 
L 463.250983 -111.732244 
L 461.606644 -117.995019 
L 459.962305 -115.321709 
L 458.317966 -131.300593 
L 456.673627 -134.745583 
L 455.029288 -143.739897 
L 453.384949 -151.994753 
L 451.74061 -156.674165 
L 450.096271 -160.334774 
L 448.451932 -130.411457 
L 446.807593 -156.927676 
L 445.163254 -159.228579 
L 443.518915 -157.702868 
L 441.874576 -148.379098 
L 440.230237 -123.758327 
L 438.585898 -112.884031 
L 436.941559 -119.814079 
L 435.29722 -101.267365 
L 433.652881 -104.973188 
L 432.008542 -111.650998 
L 430.364203 -107.694312 
L 428.719864 -87.178824 
L 427.075525 -79.178992 
L 425.431186 -79.54471 
L 423.786847 -91.952257 
L 422.142508 -104.396249 
L 420.498169 -106.789493 
L 418.853831 -95.90112 
L 417.209492 -99.763426 
L 415.565153 -98.394958 
L 413.920814 -113.030949 
L 412.276475 -119.635715 
L 410.632136 -124.407743 
L 408.987797 -130.514962 
L 407.343458 -129.419225 
L 405.699119 -123.703724 
L 404.05478 -119.748618 
L 402.410441 -126.262789 
L 400.766102 -108.559555 
L 399.121763 -124.80994 
L 397.477424 -118.454072 
L 395.833085 -114.230989 
L 394.188746 -142.349598 
L 392.544407 -121.047289 
L 390.900068 -119.924673 
L 389.255729 -112.257903 
L 387.61139 -97.823147 
L 385.967051 -102.184511 
L 384.322712 -101.570957 
L 382.678373 -93.764929 
L 381.034034 -97.936666 
L 379.389695 -95.808448 
L 377.745356 -107.090613 
L 376.101017 -97.157312 
L 374.456678 -93.413088 
L 372.812339 -94.024028 
L 371.168 -89.434793 
L 369.523661 -99.756938 
L 367.879322 -94.877492 
L 366.234983 -84.870378 
L 364.590644 -83.504411 
L 362.946305 -93.068699 
L 361.301966 -89.970238 
L 359.657627 -95.090094 
L 358.013288 -90.502179 
L 356.368949 -81.215607 
L 354.72461 -88.462509 
L 353.080271 -108.407308 
L 351.435932 -108.90557 
L 349.791593 -99.940417 
L 348.147254 -94.584857 
L 346.502915 -92.110862 
L 344.858576 -99.465479 
L 343.214237 -92.775268 
L 341.569898 -103.721168 
L 339.925559 -132.837039 
L 338.28122 -161.353591 
L 336.636881 -144.093219 
L 334.992542 -140.523132 
L 333.348203 -121.223415 
L 331.703864 -97.913776 
L 330.059525 -107.324406 
L 328.415186 -125.073112 
L 326.770847 -130.326766 
L 325.126508 -121.066008 
L 323.482169 -120.596695 
L 321.837831 -100.91338 
L 320.193492 -93.371633 
L 318.549153 -92.943086 
L 316.904814 -92.672389 
L 315.260475 -130.389617 
L 313.616136 -124.204524 
L 311.971797 -123.28058 
L 310.327458 -106.776621 
L 308.683119 -105.229754 
L 307.03878 -104.654169 
L 305.394441 -114.434891 
L 303.750102 -116.409018 
L 302.105763 -102.642893 
L 300.461424 -105.864912 
L 298.817085 -86.996891 
L 297.172746 -88.139148 
L 295.528407 -91.689356 
L 293.884068 -92.276173 
L 292.239729 -102.449971 
L 290.59539 -89.92965 
L 288.951051 -94.289605 
L 287.306712 -94.470142 
L 285.662373 -97.589991 
L 284.018034 -107.808667 
L 282.373695 -115.603104 
L 280.729356 -122.421868 
L 279.085017 -124.121564 
L 277.440678 -123.86035 
L 275.796339 -94.496858 
L 274.152 -126.593458 
L 272.507661 -121.339055 
L 270.863322 -116.035814 
L 269.218983 -123.182292 
L 267.574644 -108.694823 
L 265.930305 -118.92115 
L 264.285966 -118.103906 
L 262.641627 -122.218755 
L 260.997288 -130.906214 
L 259.352949 -144.642369 
L 257.70861 -132.59005 
L 256.064271 -100.438805 
L 254.419932 -94.897242 
L 252.775593 -96.161063 
L 251.131254 -99.888428 
L 249.486915 -102.037356 
L 247.842576 -101.489598 
L 246.198237 -97.819275 
L 244.553898 -93.938159 
L 242.909559 -94.239805 
L 241.26522 -103.542324 
L 239.620881 -117.588713 
L 237.976542 -124.789662 
L 236.332203 -118.196386 
L 234.687864 -122.460537 
L 233.043525 -133.104294 
L 231.399186 -136.863002 
L 229.754847 -140.705211 
L 228.110508 -165.112309 
L 226.466169 -196.32 
L 224.821831 -145.392676 
L 223.177492 -124.577922 
L 221.533153 -128.092119 
L 219.888814 -131.867923 
L 218.244475 -121.509508 
L 216.600136 -125.163445 
L 214.955797 -143.530585 
L 213.311458 -130.472197 
L 211.667119 -100.859061 
L 210.02278 -102.286461 
L 208.378441 -139.389649 
L 206.734102 -122.841165 
L 205.089763 -150.449295 
L 203.445424 -164.858299 
L 201.801085 -146.163115 
L 200.156746 -122.326487 
L 198.512407 -115.322469 
L 196.868068 -119.109602 
L 195.223729 -126.741386 
L 193.57939 -106.737651 
L 191.935051 -104.316005 
L 190.290712 -109.276023 
L 188.646373 -108.33524 
L 187.002034 -110.630752 
L 185.357695 -117.995577 
L 183.713356 -125.37649 
L 182.069017 -130.046826 
L 180.424678 -126.390646 
L 178.780339 -128.999582 
L 177.136 -143.804413 
L 175.491661 -116.468162 
L 173.847322 -122.409984 
L 172.202983 -106.656288 
L 170.558644 -116.077747 
L 168.914305 -113.293844 
L 167.269966 -106.177492 
L 165.625627 -96.474324 
L 163.981288 -95.2305 
L 162.336949 -97.136156 
L 160.69261 -97.491515 
L 159.048271 -95.23663 
L 157.403932 -94.096752 
L 155.759593 -101.104471 
L 154.115254 -83.882843 
L 152.470915 -94.23497 
L 150.826576 -89.829528 
L 149.182237 -101.706779 
L 147.537898 -107.055608 
L 145.893559 -101.846848 
L 144.24922 -109.742011 
L 142.604881 -107.697246 
L 140.960542 -108.876043 
L 139.316203 -108.921382 
L 137.671864 -109.362365 
L 136.027525 -138.051476 
L 134.383186 -169.821188 
L 132.738847 -193.697754 
L 131.094508 -165.367279 
L 129.450169 -129.585602 
L 127.805831 -139.034065 
L 126.161492 -133.463962 
L 124.517153 -130.741921 
L 122.872814 -135.015221 
L 121.228475 -133.30703 
L 119.584136 -117.540187 
L 117.939797 -128.61287 
L 116.295458 -128.679019 
L 114.651119 -128.668626 
L 113.00678 -127.69459 
L 111.362441 -104.030754 
L 109.718102 -108.856739 
L 108.073763 -100.725563 
L 106.429424 -112.682279 
L 104.785085 -111.764988 
L 103.140746 -112.882285 
L 101.496407 -107.225527 
L 99.852068 -119.457152 
L 98.207729 -111.947559 
L 96.56339 -108.39197 
L 94.919051 -124.90681 
L 93.274712 -129.649873 
L 91.630373 -155.72915 
L 89.986034 -161.009819 
L 88.341695 -154.612896 
L 86.697356 -156.524384 
L 85.053017 -151.469092 
L 83.408678 -151.67799 
L 81.764339 -151.60074 
L 80.12 -140.244347 
z
" id="m23375d89de" style="stroke:#0000ff;stroke-opacity:0.3;"/>
    </defs>
    <g clip-path="url(#pe955aaf4d3)">
     <use style="fill:#0000ff;fill-opacity:0.3;stroke:#0000ff;stroke-opacity:0.3;" x="0" xlink:href="#m23375d89de" y="223.2"/>
    </g>
   </g>
   <g id="matplotlib.axis_1">
    <g id="xtick_1">
     <g id="line2d_1">
      <defs>
       <path d="M 0 0 
L 0 3.5 
" id="m35feaff798" style="stroke:#000000;stroke-width:0.8;"/>
      </defs>
      <g>
       <use style="stroke:#000000;stroke-width:0.8;" x="158.966054" xlink:href="#m35feaff798" y="174.76"/>
      </g>
     </g>
     <g id="text_1">
      <!-- 0.0 -->
      <defs>
       <path d="M 31.78125 66.40625 
Q 24.171875 66.40625 20.328125 58.90625 
Q 16.5 51.421875 16.5 36.375 
Q 16.5 21.390625 20.328125 13.890625 
Q 24.171875 6.390625 31.78125 6.390625 
Q 39.453125 6.390625 43.28125 13.890625 
Q 47.125 21.390625 47.125 36.375 
Q 47.125 51.421875 43.28125 58.90625 
Q 39.453125 66.40625 31.78125 66.40625 
z
M 31.78125 74.21875 
Q 44.046875 74.21875 50.515625 64.515625 
Q 56.984375 54.828125 56.984375 36.375 
Q 56.984375 17.96875 50.515625 8.265625 
Q 44.046875 -1.421875 31.78125 -1.421875 
Q 19.53125 -1.421875 13.0625 8.265625 
Q 6.59375 17.96875 6.59375 36.375 
Q 6.59375 54.828125 13.0625 64.515625 
Q 19.53125 74.21875 31.78125 74.21875 
z
" id="DejaVuSans-48"/>
       <path d="M 10.6875 12.40625 
L 21 12.40625 
L 21 0 
L 10.6875 0 
z
" id="DejaVuSans-46"/>
      </defs>
      <g transform="translate(149.424179 190.878125)scale(0.12 -0.12)">
       <use xlink:href="#DejaVuSans-48"/>
       <use x="63.623047" xlink:href="#DejaVuSans-46"/>
       <use x="95.410156" xlink:href="#DejaVuSans-48"/>
      </g>
     </g>
    </g>
    <g id="xtick_2">
     <g id="line2d_2">
      <g>
       <use style="stroke:#000000;stroke-width:0.8;" x="241.183003" xlink:href="#m35feaff798" y="174.76"/>
      </g>
     </g>
     <g id="text_2">
      <!-- 0.5 -->
      <defs>
       <path d="M 10.796875 72.90625 
L 49.515625 72.90625 
L 49.515625 64.59375 
L 19.828125 64.59375 
L 19.828125 46.734375 
Q 21.96875 47.46875 24.109375 47.828125 
Q 26.265625 48.1875 28.421875 48.1875 
Q 40.625 48.1875 47.75 41.5 
Q 54.890625 34.8125 54.890625 23.390625 
Q 54.890625 11.625 47.5625 5.09375 
Q 40.234375 -1.421875 26.90625 -1.421875 
Q 22.3125 -1.421875 17.546875 -0.640625 
Q 12.796875 0.140625 7.71875 1.703125 
L 7.71875 11.625 
Q 12.109375 9.234375 16.796875 8.0625 
Q 21.484375 6.890625 26.703125 6.890625 
Q 35.15625 6.890625 40.078125 11.328125 
Q 45.015625 15.765625 45.015625 23.390625 
Q 45.015625 31 40.078125 35.4375 
Q 35.15625 39.890625 26.703125 39.890625 
Q 22.75 39.890625 18.8125 39.015625 
Q 14.890625 38.140625 10.796875 36.28125 
z
" id="DejaVuSans-53"/>
      </defs>
      <g transform="translate(231.641128 190.878125)scale(0.12 -0.12)">
       <use xlink:href="#DejaVuSans-48"/>
       <use x="63.623047" xlink:href="#DejaVuSans-46"/>
       <use x="95.410156" xlink:href="#DejaVuSans-53"/>
      </g>
     </g>
    </g>
    <g id="xtick_3">
     <g id="line2d_3">
      <g>
       <use style="stroke:#000000;stroke-width:0.8;" x="323.399953" xlink:href="#m35feaff798" y="174.76"/>
      </g>
     </g>
     <g id="text_3">
      <!-- 1.0 -->
      <defs>
       <path d="M 12.40625 8.296875 
L 28.515625 8.296875 
L 28.515625 63.921875 
L 10.984375 60.40625 
L 10.984375 69.390625 
L 28.421875 72.90625 
L 38.28125 72.90625 
L 38.28125 8.296875 
L 54.390625 8.296875 
L 54.390625 0 
L 12.40625 0 
z
" id="DejaVuSans-49"/>
      </defs>
      <g transform="translate(313.858078 190.878125)scale(0.12 -0.12)">
       <use xlink:href="#DejaVuSans-49"/>
       <use x="63.623047" xlink:href="#DejaVuSans-46"/>
       <use x="95.410156" xlink:href="#DejaVuSans-48"/>
      </g>
     </g>
    </g>
    <g id="xtick_4">
     <g id="line2d_4">
      <g>
       <use style="stroke:#000000;stroke-width:0.8;" x="405.616902" xlink:href="#m35feaff798" y="174.76"/>
      </g>
     </g>
     <g id="text_4">
      <!-- 1.5 -->
      <g transform="translate(396.075027 190.878125)scale(0.12 -0.12)">
       <use xlink:href="#DejaVuSans-49"/>
       <use x="63.623047" xlink:href="#DejaVuSans-46"/>
       <use x="95.410156" xlink:href="#DejaVuSans-53"/>
      </g>
     </g>
    </g>
    <g id="xtick_5">
     <g id="line2d_5">
      <g>
       <use style="stroke:#000000;stroke-width:0.8;" x="487.833851" xlink:href="#m35feaff798" y="174.76"/>
      </g>
     </g>
     <g id="text_5">
      <!-- 2.0 -->
      <defs>
       <path d="M 19.1875 8.296875 
L 53.609375 8.296875 
L 53.609375 0 
L 7.328125 0 
L 7.328125 8.296875 
Q 12.9375 14.109375 22.625 23.890625 
Q 32.328125 33.6875 34.8125 36.53125 
Q 39.546875 41.84375 41.421875 45.53125 
Q 43.3125 49.21875 43.3125 52.78125 
Q 43.3125 58.59375 39.234375 62.25 
Q 35.15625 65.921875 28.609375 65.921875 
Q 23.96875 65.921875 18.8125 64.3125 
Q 13.671875 62.703125 7.8125 59.421875 
L 7.8125 69.390625 
Q 13.765625 71.78125 18.9375 73 
Q 24.125 74.21875 28.421875 74.21875 
Q 39.75 74.21875 46.484375 68.546875 
Q 53.21875 62.890625 53.21875 53.421875 
Q 53.21875 48.921875 51.53125 44.890625 
Q 49.859375 40.875 45.40625 35.40625 
Q 44.1875 33.984375 37.640625 27.21875 
Q 31.109375 20.453125 19.1875 8.296875 
z
" id="DejaVuSans-50"/>
      </defs>
      <g transform="translate(478.291976 190.878125)scale(0.12 -0.12)">
       <use xlink:href="#DejaVuSans-50"/>
       <use x="63.623047" xlink:href="#DejaVuSans-46"/>
       <use x="95.410156" xlink:href="#DejaVuSans-48"/>
      </g>
     </g>
    </g>
    <g id="text_6">
     <!-- Time (s) -->
     <defs>
      <path d="M -0.296875 72.90625 
L 61.375 72.90625 
L 61.375 64.59375 
L 35.5 64.59375 
L 35.5 0 
L 25.59375 0 
L 25.59375 64.59375 
L -0.296875 64.59375 
z
" id="DejaVuSans-84"/>
      <path d="M 9.421875 54.6875 
L 18.40625 54.6875 
L 18.40625 0 
L 9.421875 0 
z
M 9.421875 75.984375 
L 18.40625 75.984375 
L 18.40625 64.59375 
L 9.421875 64.59375 
z
" id="DejaVuSans-105"/>
      <path d="M 52 44.1875 
Q 55.375 50.25 60.0625 53.125 
Q 64.75 56 71.09375 56 
Q 79.640625 56 84.28125 50.015625 
Q 88.921875 44.046875 88.921875 33.015625 
L 88.921875 0 
L 79.890625 0 
L 79.890625 32.71875 
Q 79.890625 40.578125 77.09375 44.375 
Q 74.3125 48.1875 68.609375 48.1875 
Q 61.625 48.1875 57.5625 43.546875 
Q 53.515625 38.921875 53.515625 30.90625 
L 53.515625 0 
L 44.484375 0 
L 44.484375 32.71875 
Q 44.484375 40.625 41.703125 44.40625 
Q 38.921875 48.1875 33.109375 48.1875 
Q 26.21875 48.1875 22.15625 43.53125 
Q 18.109375 38.875 18.109375 30.90625 
L 18.109375 0 
L 9.078125 0 
L 9.078125 54.6875 
L 18.109375 54.6875 
L 18.109375 46.1875 
Q 21.1875 51.21875 25.484375 53.609375 
Q 29.78125 56 35.6875 56 
Q 41.65625 56 45.828125 52.96875 
Q 50 49.953125 52 44.1875 
z
" id="DejaVuSans-109"/>
      <path d="M 56.203125 29.59375 
L 56.203125 25.203125 
L 14.890625 25.203125 
Q 15.484375 15.921875 20.484375 11.0625 
Q 25.484375 6.203125 34.421875 6.203125 
Q 39.59375 6.203125 44.453125 7.46875 
Q 49.3125 8.734375 54.109375 11.28125 
L 54.109375 2.78125 
Q 49.265625 0.734375 44.1875 -0.34375 
Q 39.109375 -1.421875 33.890625 -1.421875 
Q 20.796875 -1.421875 13.15625 6.1875 
Q 5.515625 13.8125 5.515625 26.8125 
Q 5.515625 40.234375 12.765625 48.109375 
Q 20.015625 56 32.328125 56 
Q 43.359375 56 49.78125 48.890625 
Q 56.203125 41.796875 56.203125 29.59375 
z
M 47.21875 32.234375 
Q 47.125 39.59375 43.09375 43.984375 
Q 39.0625 48.390625 32.421875 48.390625 
Q 24.90625 48.390625 20.390625 44.140625 
Q 15.875 39.890625 15.1875 32.171875 
z
" id="DejaVuSans-101"/>
      <path id="DejaVuSans-32"/>
      <path d="M 31 75.875 
Q 24.46875 64.65625 21.28125 53.65625 
Q 18.109375 42.671875 18.109375 31.390625 
Q 18.109375 20.125 21.3125 9.0625 
Q 24.515625 -2 31 -13.1875 
L 23.1875 -13.1875 
Q 15.875 -1.703125 12.234375 9.375 
Q 8.59375 20.453125 8.59375 31.390625 
Q 8.59375 42.28125 12.203125 53.3125 
Q 15.828125 64.359375 23.1875 75.875 
z
" id="DejaVuSans-40"/>
      <path d="M 44.28125 53.078125 
L 44.28125 44.578125 
Q 40.484375 46.53125 36.375 47.5 
Q 32.28125 48.484375 27.875 48.484375 
Q 21.1875 48.484375 17.84375 46.4375 
Q 14.5 44.390625 14.5 40.28125 
Q 14.5 37.15625 16.890625 35.375 
Q 19.28125 33.59375 26.515625 31.984375 
L 29.59375 31.296875 
Q 39.15625 29.25 43.1875 25.515625 
Q 47.21875 21.78125 47.21875 15.09375 
Q 47.21875 7.46875 41.1875 3.015625 
Q 35.15625 -1.421875 24.609375 -1.421875 
Q 20.21875 -1.421875 15.453125 -0.5625 
Q 10.6875 0.296875 5.421875 2 
L 5.421875 11.28125 
Q 10.40625 8.6875 15.234375 7.390625 
Q 20.0625 6.109375 24.8125 6.109375 
Q 31.15625 6.109375 34.5625 8.28125 
Q 37.984375 10.453125 37.984375 14.40625 
Q 37.984375 18.0625 35.515625 20.015625 
Q 33.0625 21.96875 24.703125 23.78125 
L 21.578125 24.515625 
Q 13.234375 26.265625 9.515625 29.90625 
Q 5.8125 33.546875 5.8125 39.890625 
Q 5.8125 47.609375 11.28125 51.796875 
Q 16.75 56 26.8125 56 
Q 31.78125 56 36.171875 55.265625 
Q 40.578125 54.546875 44.28125 53.078125 
z
" id="DejaVuSans-115"/>
      <path d="M 8.015625 75.875 
L 15.828125 75.875 
Q 23.140625 64.359375 26.78125 53.3125 
Q 30.421875 42.28125 30.421875 31.390625 
Q 30.421875 20.453125 26.78125 9.375 
Q 23.140625 -1.703125 15.828125 -13.1875 
L 8.015625 -13.1875 
Q 14.5 -2 17.703125 9.0625 
Q 20.90625 20.125 20.90625 31.390625 
Q 20.90625 42.671875 17.703125 53.65625 
Q 14.5 64.65625 8.015625 75.875 
z
" id="DejaVuSans-41"/>
     </defs>
     <g transform="translate(293.16475 208.3155)scale(0.144 -0.144)">
      <use xlink:href="#DejaVuSans-84"/>
      <use x="61.037109" xlink:href="#DejaVuSans-105"/>
      <use x="88.820312" xlink:href="#DejaVuSans-109"/>
      <use x="186.232422" xlink:href="#DejaVuSans-101"/>
      <use x="247.755859" xlink:href="#DejaVuSans-32"/>
      <use x="279.542969" xlink:href="#DejaVuSans-40"/>
      <use x="318.556641" xlink:href="#DejaVuSans-115"/>
      <use x="370.65625" xlink:href="#DejaVuSans-41"/>
     </g>
    </g>
   </g>
   <g id="matplotlib.axis_2">
    <g id="ytick_1">
     <g id="line2d_6">
      <defs>
       <path d="M 0 0 
L -3.5 0 
" id="m722968b70e" style="stroke:#000000;stroke-width:0.8;"/>
      </defs>
      <g>
       <use style="stroke:#000000;stroke-width:0.8;" x="80.12" xlink:href="#m722968b70e" y="174.76"/>
      </g>
     </g>
     <g id="text_7">
      <!-- 0.000 -->
      <g transform="translate(38.76625 179.319062)scale(0.12 -0.12)">
       <use xlink:href="#DejaVuSans-48"/>
       <use x="63.623047" xlink:href="#DejaVuSans-46"/>
       <use x="95.410156" xlink:href="#DejaVuSans-48"/>
       <use x="159.033203" xlink:href="#DejaVuSans-48"/>
       <use x="222.65625" xlink:href="#DejaVuSans-48"/>
      </g>
     </g>
    </g>
    <g id="ytick_2">
     <g id="line2d_7">
      <g>
       <use style="stroke:#000000;stroke-width:0.8;" x="80.12" xlink:href="#m722968b70e" y="134.6097"/>
      </g>
     </g>
     <g id="text_8">
      <!-- 0.005 -->
      <g transform="translate(38.76625 139.168762)scale(0.12 -0.12)">
       <use xlink:href="#DejaVuSans-48"/>
       <use x="63.623047" xlink:href="#DejaVuSans-46"/>
       <use x="95.410156" xlink:href="#DejaVuSans-48"/>
       <use x="159.033203" xlink:href="#DejaVuSans-48"/>
       <use x="222.65625" xlink:href="#DejaVuSans-53"/>
      </g>
     </g>
    </g>
    <g id="ytick_3">
     <g id="line2d_8">
      <g>
       <use style="stroke:#000000;stroke-width:0.8;" x="80.12" xlink:href="#m722968b70e" y="94.459399"/>
      </g>
     </g>
     <g id="text_9">
      <!-- 0.010 -->
      <g transform="translate(38.76625 99.018462)scale(0.12 -0.12)">
       <use xlink:href="#DejaVuSans-48"/>
       <use x="63.623047" xlink:href="#DejaVuSans-46"/>
       <use x="95.410156" xlink:href="#DejaVuSans-48"/>
       <use x="159.033203" xlink:href="#DejaVuSans-49"/>
       <use x="222.65625" xlink:href="#DejaVuSans-48"/>
      </g>
     </g>
    </g>
    <g id="ytick_4">
     <g id="line2d_9">
      <g>
       <use style="stroke:#000000;stroke-width:0.8;" x="80.12" xlink:href="#m722968b70e" y="54.309099"/>
      </g>
     </g>
     <g id="text_10">
      <!-- 0.015 -->
      <g transform="translate(38.76625 58.868161)scale(0.12 -0.12)">
       <use xlink:href="#DejaVuSans-48"/>
       <use x="63.623047" xlink:href="#DejaVuSans-46"/>
       <use x="95.410156" xlink:href="#DejaVuSans-48"/>
       <use x="159.033203" xlink:href="#DejaVuSans-49"/>
       <use x="222.65625" xlink:href="#DejaVuSans-53"/>
      </g>
     </g>
    </g>
    <g id="text_11">
     <!-- COMb $p$ -->
     <defs>
      <path d="M 64.40625 67.28125 
L 64.40625 56.890625 
Q 59.421875 61.53125 53.78125 63.8125 
Q 48.140625 66.109375 41.796875 66.109375 
Q 29.296875 66.109375 22.65625 58.46875 
Q 16.015625 50.828125 16.015625 36.375 
Q 16.015625 21.96875 22.65625 14.328125 
Q 29.296875 6.6875 41.796875 6.6875 
Q 48.140625 6.6875 53.78125 8.984375 
Q 59.421875 11.28125 64.40625 15.921875 
L 64.40625 5.609375 
Q 59.234375 2.09375 53.4375 0.328125 
Q 47.65625 -1.421875 41.21875 -1.421875 
Q 24.65625 -1.421875 15.125 8.703125 
Q 5.609375 18.84375 5.609375 36.375 
Q 5.609375 53.953125 15.125 64.078125 
Q 24.65625 74.21875 41.21875 74.21875 
Q 47.75 74.21875 53.53125 72.484375 
Q 59.328125 70.75 64.40625 67.28125 
z
" id="DejaVuSans-67"/>
      <path d="M 39.40625 66.21875 
Q 28.65625 66.21875 22.328125 58.203125 
Q 16.015625 50.203125 16.015625 36.375 
Q 16.015625 22.609375 22.328125 14.59375 
Q 28.65625 6.59375 39.40625 6.59375 
Q 50.140625 6.59375 56.421875 14.59375 
Q 62.703125 22.609375 62.703125 36.375 
Q 62.703125 50.203125 56.421875 58.203125 
Q 50.140625 66.21875 39.40625 66.21875 
z
M 39.40625 74.21875 
Q 54.734375 74.21875 63.90625 63.9375 
Q 73.09375 53.65625 73.09375 36.375 
Q 73.09375 19.140625 63.90625 8.859375 
Q 54.734375 -1.421875 39.40625 -1.421875 
Q 24.03125 -1.421875 14.8125 8.828125 
Q 5.609375 19.09375 5.609375 36.375 
Q 5.609375 53.65625 14.8125 63.9375 
Q 24.03125 74.21875 39.40625 74.21875 
z
" id="DejaVuSans-79"/>
      <path d="M 9.8125 72.90625 
L 24.515625 72.90625 
L 43.109375 23.296875 
L 61.8125 72.90625 
L 76.515625 72.90625 
L 76.515625 0 
L 66.890625 0 
L 66.890625 64.015625 
L 48.09375 14.015625 
L 38.1875 14.015625 
L 19.390625 64.015625 
L 19.390625 0 
L 9.8125 0 
z
" id="DejaVuSans-77"/>
      <path d="M 48.6875 27.296875 
Q 48.6875 37.203125 44.609375 42.84375 
Q 40.53125 48.484375 33.40625 48.484375 
Q 26.265625 48.484375 22.1875 42.84375 
Q 18.109375 37.203125 18.109375 27.296875 
Q 18.109375 17.390625 22.1875 11.75 
Q 26.265625 6.109375 33.40625 6.109375 
Q 40.53125 6.109375 44.609375 11.75 
Q 48.6875 17.390625 48.6875 27.296875 
z
M 18.109375 46.390625 
Q 20.953125 51.265625 25.265625 53.625 
Q 29.59375 56 35.59375 56 
Q 45.5625 56 51.78125 48.09375 
Q 58.015625 40.1875 58.015625 27.296875 
Q 58.015625 14.40625 51.78125 6.484375 
Q 45.5625 -1.421875 35.59375 -1.421875 
Q 29.59375 -1.421875 25.265625 0.953125 
Q 20.953125 3.328125 18.109375 8.203125 
L 18.109375 0 
L 9.078125 0 
L 9.078125 75.984375 
L 18.109375 75.984375 
z
" id="DejaVuSans-98"/>
      <path d="M 49.609375 33.6875 
Q 49.609375 40.875 46.484375 44.671875 
Q 43.359375 48.484375 37.5 48.484375 
Q 33.5 48.484375 29.859375 46.4375 
Q 26.21875 44.390625 23.390625 40.484375 
Q 20.609375 36.625 18.9375 31.15625 
Q 17.28125 25.6875 17.28125 20.3125 
Q 17.28125 13.484375 20.40625 9.796875 
Q 23.53125 6.109375 29.296875 6.109375 
Q 33.546875 6.109375 37.1875 8.109375 
Q 40.828125 10.109375 43.40625 13.921875 
Q 46.1875 17.921875 47.890625 23.34375 
Q 49.609375 28.765625 49.609375 33.6875 
z
M 21.78125 46.390625 
Q 25.390625 51.125 30.296875 53.5625 
Q 35.203125 56 41.21875 56 
Q 49.609375 56 54.25 50.5 
Q 58.890625 45.015625 58.890625 35.109375 
Q 58.890625 27 56 19.65625 
Q 53.125 12.3125 47.703125 6.5 
Q 44.09375 2.640625 39.546875 0.609375 
Q 35.015625 -1.421875 29.984375 -1.421875 
Q 24.171875 -1.421875 20.21875 1 
Q 16.265625 3.421875 14.3125 8.203125 
L 8.6875 -20.796875 
L -0.296875 -20.796875 
L 14.40625 54.6875 
L 23.390625 54.6875 
z
" id="DejaVuSans-Oblique-112"/>
     </defs>
     <g transform="translate(31.74225 129.188)rotate(-90)scale(0.144 -0.144)">
      <use transform="translate(0 0.015625)" xlink:href="#DejaVuSans-67"/>
      <use transform="translate(69.824219 0.015625)" xlink:href="#DejaVuSans-79"/>
      <use transform="translate(148.535156 0.015625)" xlink:href="#DejaVuSans-77"/>
      <use transform="translate(234.814453 0.015625)" xlink:href="#DejaVuSans-98"/>
      <use transform="translate(298.291016 0.015625)" xlink:href="#DejaVuSans-32"/>
      <use transform="translate(330.078125 0.015625)" xlink:href="#DejaVuSans-Oblique-112"/>
     </g>
    </g>
   </g>
   <g id="line2d_10">
    <path clip-path="url(#pe955aaf4d3)" d="M 80.12 101.894618 
L 81.764339 91.097877 
L 83.408678 90.390992 
L 85.053017 88.873066 
L 86.697356 90.208089 
L 88.341695 87.762165 
L 89.986034 86.101857 
L 91.630373 91.921648 
L 93.274712 107.499524 
L 94.919051 112.711503 
L 96.56339 126.727256 
L 98.207729 125.277797 
L 99.852068 119.20182 
L 101.496407 128.857279 
L 103.140746 122.988145 
L 104.785085 124.046524 
L 106.429424 123.84976 
L 108.073763 132.251682 
L 109.718102 127.94166 
L 111.362441 130.06236 
L 113.00678 111.938524 
L 114.651119 112.030805 
L 116.295458 115.385492 
L 117.939797 112.476774 
L 119.584136 119.234636 
L 121.228475 107.507193 
L 122.872814 107.11618 
L 124.517153 111.105854 
L 126.161492 109.648088 
L 127.805831 104.047132 
L 129.450169 112.752668 
L 131.094508 89.316923 
L 132.738847 73.296718 
L 134.383186 87.559521 
L 136.027525 109.331991 
L 137.671864 126.578061 
L 139.316203 126.38516 
L 140.960542 124.67212 
L 142.604881 127.466478 
L 144.24922 126.229854 
L 145.893559 132.443371 
L 147.537898 130.397752 
L 149.182237 136.447425 
L 150.826576 143.975088 
L 152.470915 141.627602 
L 154.115254 147.369979 
L 155.759593 135.482255 
L 157.403932 139.151019 
L 159.048271 135.562863 
L 160.69261 134.378846 
L 162.336949 133.829159 
L 163.981288 134.658909 
L 165.625627 134.588412 
L 167.269966 128.999838 
L 168.914305 121.243397 
L 170.558644 119.864648 
L 172.202983 126.84461 
L 173.847322 114.865514 
L 175.491661 122.338425 
L 177.136 104.05225 
L 178.780339 116.319666 
L 180.424678 116.086944 
L 182.069017 107.535695 
L 183.713356 109.337934 
L 185.357695 115.286167 
L 187.002034 122.908105 
L 188.646373 123.826543 
L 190.290712 125.73663 
L 191.935051 129.261226 
L 193.57939 128.719448 
L 195.223729 113.246677 
L 196.868068 119.234341 
L 198.512407 122.729683 
L 200.156746 117.071342 
L 201.801085 100.674578 
L 203.445424 89.406315 
L 205.089763 98.992331 
L 206.734102 117.08809 
L 208.378441 107.838966 
L 210.02278 133.763329 
L 211.667119 135.157792 
L 213.311458 117.135068 
L 214.955797 110.413873 
L 216.600136 124.150814 
L 218.244475 126.75469 
L 219.888814 114.805372 
L 221.533153 111.777025 
L 223.177492 110.64217 
L 224.821831 95.553657 
L 226.466169 56.048635 
L 228.110508 76.120408 
L 229.754847 93.701775 
L 231.399186 96.827787 
L 233.043525 99.589679 
L 234.687864 108.679149 
L 236.332203 116.505476 
L 237.976542 112.993159 
L 239.620881 118.990361 
L 241.26522 128.977095 
L 242.909559 138.056023 
L 244.553898 137.544882 
L 246.198237 136.090102 
L 247.842576 132.592719 
L 249.486915 132.287845 
L 251.131254 132.999863 
L 252.775593 135.628263 
L 254.419932 135.054957 
L 256.064271 132.561582 
L 257.70861 108.382054 
L 259.352949 99.714218 
L 260.997288 110.052931 
L 262.641627 117.752051 
L 264.285966 119.333402 
L 265.930305 119.468475 
L 267.574644 123.96907 
L 269.218983 112.378673 
L 270.863322 115.323835 
L 272.507661 111.721811 
L 274.152 108.508918 
L 275.796339 136.256024 
L 277.440678 116.059279 
L 279.085017 114.588345 
L 280.729356 115.266116 
L 284.018034 125.211157 
L 285.662373 135.152775 
L 287.306712 137.437591 
L 288.951051 138.141709 
L 290.59539 142.517496 
L 292.239729 133.037026 
L 293.884068 140.245878 
L 295.528407 138.624665 
L 297.172746 141.820335 
L 298.817085 142.437455 
L 300.461424 126.502864 
L 302.105763 128.862765 
L 303.750102 119.244351 
L 305.394441 120.948259 
L 307.03878 130.527476 
L 308.683119 130.249255 
L 310.327458 130.954867 
L 311.971797 119.835664 
L 313.616136 116.646103 
L 315.260475 114.306991 
L 316.904814 138.51574 
L 318.549153 137.296318 
L 320.193492 138.274107 
L 321.837831 133.196516 
L 323.482169 116.52042 
L 325.126508 113.668473 
L 326.770847 104.872595 
L 328.415186 113.590726 
L 330.059525 128.751047 
L 331.703864 134.091052 
L 333.348203 118.431833 
L 334.992542 105.657435 
L 336.636881 100.700909 
L 338.28122 86.091161 
L 341.569898 128.698002 
L 343.214237 139.466837 
L 344.858576 133.921163 
L 346.502915 138.988834 
L 348.147254 135.802689 
L 349.791593 133.223087 
L 351.435932 128.938066 
L 353.080271 130.305582 
L 354.72461 145.451185 
L 356.368949 149.562959 
L 358.013288 143.047271 
L 359.657627 137.679645 
L 361.301966 142.406031 
L 362.946305 139.291103 
L 364.590644 146.811357 
L 366.234983 146.483611 
L 367.879322 140.879322 
L 369.523661 138.960278 
L 371.168 143.132131 
L 372.812339 139.743751 
L 374.456678 141.198909 
L 376.101017 136.113519 
L 377.745356 127.774279 
L 379.389695 134.798027 
L 381.034034 133.483074 
L 382.678373 136.104129 
L 384.322712 129.179337 
L 385.967051 129.49206 
L 387.61139 132.511335 
L 389.255729 123.899762 
L 390.900068 118.352816 
L 392.544407 122.185074 
L 394.188746 106.713757 
L 395.833085 126.576921 
L 397.477424 121.867479 
L 399.121763 116.653571 
L 400.766102 127.134888 
L 402.410441 111.585426 
L 404.05478 117.54047 
L 405.699119 115.47631 
L 407.343458 112.425968 
L 408.987797 108.560371 
L 410.632136 116.128987 
L 412.276475 117.286478 
L 413.920814 125.417868 
L 415.565153 135.559394 
L 417.209492 137.029771 
L 418.853831 140.862572 
L 420.498169 135.020709 
L 422.142508 135.968416 
L 423.786847 142.552818 
L 425.431186 151.521982 
L 427.075525 151.446009 
L 428.719864 145.864692 
L 430.364203 132.277182 
L 432.008542 128.138235 
L 433.652881 129.968051 
L 435.29722 131.241858 
L 436.941559 118.703298 
L 438.585898 120.790027 
L 440.230237 112.098346 
L 441.874576 95.820788 
L 443.518915 88.543646 
L 445.163254 87.27162 
L 446.807593 91.183838 
L 448.451932 106.453933 
L 450.096271 90.689846 
L 453.384949 99.01089 
L 455.029288 105.760899 
L 456.673627 109.866866 
L 458.317966 111.067442 
L 459.962305 124.080496 
L 461.606644 123.011991 
L 463.250983 128.668383 
L 464.895322 126.06058 
L 466.539661 119.171993 
L 468.184 114.008262 
L 469.828339 113.494781 
L 473.117017 129.080414 
L 474.761356 123.027434 
L 476.405695 107.484939 
L 478.050034 113.695064 
L 479.694373 113.207053 
L 481.338712 115.151633 
L 484.62739 133.055126 
L 486.271729 138.842172 
L 487.916068 130.128089 
L 489.560407 132.490812 
L 491.204746 129.78424 
L 492.849085 131.240407 
L 494.493424 129.731257 
L 496.137763 137.106621 
L 497.782102 130.036018 
L 499.426441 123.465455 
L 501.07078 114.575258 
L 502.715119 107.821796 
L 504.359458 115.420082 
L 506.003797 113.918138 
L 507.648136 128.005165 
L 509.292475 125.12167 
L 512.581153 121.894355 
L 514.225492 121.286008 
L 515.869831 117.788388 
L 517.514169 117.227625 
L 519.158508 107.934678 
L 520.802847 119.03592 
L 522.447186 116.504579 
L 524.091525 119.531589 
L 525.735864 117.559091 
L 527.380203 112.099454 
L 529.024542 100.95726 
L 530.668881 106.55898 
L 532.31322 126.436343 
L 533.957559 123.770737 
L 535.601898 121.627387 
L 537.246237 97.325873 
L 538.890576 102.802566 
L 540.534915 102.045649 
L 542.179254 109.293389 
L 543.823593 103.398309 
L 545.467932 92.284414 
L 547.112271 93.897403 
L 548.75661 89.841586 
L 550.400949 85.152496 
L 552.045288 101.022237 
L 553.689627 115.420942 
L 555.333966 113.274518 
L 556.978305 105.890883 
L 558.622644 104.44205 
L 563.555661 129.785918 
L 565.2 126.928406 
L 565.2 126.928406 
" style="fill:none;stroke:#0000ff;stroke-linecap:square;stroke-width:1.5;"/>
   </g>
   <g id="patch_3">
    <path d="M 80.12 174.76 
L 80.12 26.88 
" style="fill:none;stroke:#000000;stroke-linecap:square;stroke-linejoin:miter;stroke-width:0.8;"/>
   </g>
   <g id="patch_4">
    <path d="M 565.2 174.76 
L 565.2 26.88 
" style="fill:none;stroke:#000000;stroke-linecap:square;stroke-linejoin:miter;stroke-width:0.8;"/>
   </g>
   <g id="patch_5">
    <path d="M 80.12 174.76 
L 565.2 174.76 
" style="fill:none;stroke:#000000;stroke-linecap:square;stroke-linejoin:miter;stroke-width:0.8;"/>
   </g>
   <g id="patch_6">
    <path d="M 80.12 26.88 
L 565.2 26.88 
" style="fill:none;stroke:#000000;stroke-linecap:square;stroke-linejoin:miter;stroke-width:0.8;"/>
   </g>
   <g id="text_12">
    <!-- Thalamus, Num Trials=10 All unstimulated trials, Num cells = 610 -->
    <defs>
     <path d="M 54.890625 33.015625 
L 54.890625 0 
L 45.90625 0 
L 45.90625 32.71875 
Q 45.90625 40.484375 42.875 44.328125 
Q 39.84375 48.1875 33.796875 48.1875 
Q 26.515625 48.1875 22.3125 43.546875 
Q 18.109375 38.921875 18.109375 30.90625 
L 18.109375 0 
L 9.078125 0 
L 9.078125 75.984375 
L 18.109375 75.984375 
L 18.109375 46.1875 
Q 21.34375 51.125 25.703125 53.5625 
Q 30.078125 56 35.796875 56 
Q 45.21875 56 50.046875 50.171875 
Q 54.890625 44.34375 54.890625 33.015625 
z
" id="DejaVuSans-104"/>
     <path d="M 34.28125 27.484375 
Q 23.390625 27.484375 19.1875 25 
Q 14.984375 22.515625 14.984375 16.5 
Q 14.984375 11.71875 18.140625 8.90625 
Q 21.296875 6.109375 26.703125 6.109375 
Q 34.1875 6.109375 38.703125 11.40625 
Q 43.21875 16.703125 43.21875 25.484375 
L 43.21875 27.484375 
z
M 52.203125 31.203125 
L 52.203125 0 
L 43.21875 0 
L 43.21875 8.296875 
Q 40.140625 3.328125 35.546875 0.953125 
Q 30.953125 -1.421875 24.3125 -1.421875 
Q 15.921875 -1.421875 10.953125 3.296875 
Q 6 8.015625 6 15.921875 
Q 6 25.140625 12.171875 29.828125 
Q 18.359375 34.515625 30.609375 34.515625 
L 43.21875 34.515625 
L 43.21875 35.40625 
Q 43.21875 41.609375 39.140625 45 
Q 35.0625 48.390625 27.6875 48.390625 
Q 23 48.390625 18.546875 47.265625 
Q 14.109375 46.140625 10.015625 43.890625 
L 10.015625 52.203125 
Q 14.9375 54.109375 19.578125 55.046875 
Q 24.21875 56 28.609375 56 
Q 40.484375 56 46.34375 49.84375 
Q 52.203125 43.703125 52.203125 31.203125 
z
" id="DejaVuSans-97"/>
     <path d="M 9.421875 75.984375 
L 18.40625 75.984375 
L 18.40625 0 
L 9.421875 0 
z
" id="DejaVuSans-108"/>
     <path d="M 8.5 21.578125 
L 8.5 54.6875 
L 17.484375 54.6875 
L 17.484375 21.921875 
Q 17.484375 14.15625 20.5 10.265625 
Q 23.53125 6.390625 29.59375 6.390625 
Q 36.859375 6.390625 41.078125 11.03125 
Q 45.3125 15.671875 45.3125 23.6875 
L 45.3125 54.6875 
L 54.296875 54.6875 
L 54.296875 0 
L 45.3125 0 
L 45.3125 8.40625 
Q 42.046875 3.421875 37.71875 1 
Q 33.40625 -1.421875 27.6875 -1.421875 
Q 18.265625 -1.421875 13.375 4.4375 
Q 8.5 10.296875 8.5 21.578125 
z
M 31.109375 56 
z
" id="DejaVuSans-117"/>
     <path d="M 11.71875 12.40625 
L 22.015625 12.40625 
L 22.015625 4 
L 14.015625 -11.625 
L 7.71875 -11.625 
L 11.71875 4 
z
" id="DejaVuSans-44"/>
     <path d="M 9.8125 72.90625 
L 23.09375 72.90625 
L 55.421875 11.921875 
L 55.421875 72.90625 
L 64.984375 72.90625 
L 64.984375 0 
L 51.703125 0 
L 19.390625 60.984375 
L 19.390625 0 
L 9.8125 0 
z
" id="DejaVuSans-78"/>
     <path d="M 41.109375 46.296875 
Q 39.59375 47.171875 37.8125 47.578125 
Q 36.03125 48 33.890625 48 
Q 26.265625 48 22.1875 43.046875 
Q 18.109375 38.09375 18.109375 28.8125 
L 18.109375 0 
L 9.078125 0 
L 9.078125 54.6875 
L 18.109375 54.6875 
L 18.109375 46.1875 
Q 20.953125 51.171875 25.484375 53.578125 
Q 30.03125 56 36.53125 56 
Q 37.453125 56 38.578125 55.875 
Q 39.703125 55.765625 41.0625 55.515625 
z
" id="DejaVuSans-114"/>
     <path d="M 10.59375 45.40625 
L 73.1875 45.40625 
L 73.1875 37.203125 
L 10.59375 37.203125 
z
M 10.59375 25.484375 
L 73.1875 25.484375 
L 73.1875 17.1875 
L 10.59375 17.1875 
z
" id="DejaVuSans-61"/>
     <path d="M 34.1875 63.1875 
L 20.796875 26.90625 
L 47.609375 26.90625 
z
M 28.609375 72.90625 
L 39.796875 72.90625 
L 67.578125 0 
L 57.328125 0 
L 50.6875 18.703125 
L 17.828125 18.703125 
L 11.1875 0 
L 0.78125 0 
z
" id="DejaVuSans-65"/>
     <path d="M 54.890625 33.015625 
L 54.890625 0 
L 45.90625 0 
L 45.90625 32.71875 
Q 45.90625 40.484375 42.875 44.328125 
Q 39.84375 48.1875 33.796875 48.1875 
Q 26.515625 48.1875 22.3125 43.546875 
Q 18.109375 38.921875 18.109375 30.90625 
L 18.109375 0 
L 9.078125 0 
L 9.078125 54.6875 
L 18.109375 54.6875 
L 18.109375 46.1875 
Q 21.34375 51.125 25.703125 53.5625 
Q 30.078125 56 35.796875 56 
Q 45.21875 56 50.046875 50.171875 
Q 54.890625 44.34375 54.890625 33.015625 
z
" id="DejaVuSans-110"/>
     <path d="M 18.3125 70.21875 
L 18.3125 54.6875 
L 36.8125 54.6875 
L 36.8125 47.703125 
L 18.3125 47.703125 
L 18.3125 18.015625 
Q 18.3125 11.328125 20.140625 9.421875 
Q 21.96875 7.515625 27.59375 7.515625 
L 36.8125 7.515625 
L 36.8125 0 
L 27.59375 0 
Q 17.1875 0 13.234375 3.875 
Q 9.28125 7.765625 9.28125 18.015625 
L 9.28125 47.703125 
L 2.6875 47.703125 
L 2.6875 54.6875 
L 9.28125 54.6875 
L 9.28125 70.21875 
z
" id="DejaVuSans-116"/>
     <path d="M 45.40625 46.390625 
L 45.40625 75.984375 
L 54.390625 75.984375 
L 54.390625 0 
L 45.40625 0 
L 45.40625 8.203125 
Q 42.578125 3.328125 38.25 0.953125 
Q 33.9375 -1.421875 27.875 -1.421875 
Q 17.96875 -1.421875 11.734375 6.484375 
Q 5.515625 14.40625 5.515625 27.296875 
Q 5.515625 40.1875 11.734375 48.09375 
Q 17.96875 56 27.875 56 
Q 33.9375 56 38.25 53.625 
Q 42.578125 51.265625 45.40625 46.390625 
z
M 14.796875 27.296875 
Q 14.796875 17.390625 18.875 11.75 
Q 22.953125 6.109375 30.078125 6.109375 
Q 37.203125 6.109375 41.296875 11.75 
Q 45.40625 17.390625 45.40625 27.296875 
Q 45.40625 37.203125 41.296875 42.84375 
Q 37.203125 48.484375 30.078125 48.484375 
Q 22.953125 48.484375 18.875 42.84375 
Q 14.796875 37.203125 14.796875 27.296875 
z
" id="DejaVuSans-100"/>
     <path d="M 48.78125 52.59375 
L 48.78125 44.1875 
Q 44.96875 46.296875 41.140625 47.34375 
Q 37.3125 48.390625 33.40625 48.390625 
Q 24.65625 48.390625 19.8125 42.84375 
Q 14.984375 37.3125 14.984375 27.296875 
Q 14.984375 17.28125 19.8125 11.734375 
Q 24.65625 6.203125 33.40625 6.203125 
Q 37.3125 6.203125 41.140625 7.25 
Q 44.96875 8.296875 48.78125 10.40625 
L 48.78125 2.09375 
Q 45.015625 0.34375 40.984375 -0.53125 
Q 36.96875 -1.421875 32.421875 -1.421875 
Q 20.0625 -1.421875 12.78125 6.34375 
Q 5.515625 14.109375 5.515625 27.296875 
Q 5.515625 40.671875 12.859375 48.328125 
Q 20.21875 56 33.015625 56 
Q 37.15625 56 41.109375 55.140625 
Q 45.0625 54.296875 48.78125 52.59375 
z
" id="DejaVuSans-99"/>
     <path d="M 33.015625 40.375 
Q 26.375 40.375 22.484375 35.828125 
Q 18.609375 31.296875 18.609375 23.390625 
Q 18.609375 15.53125 22.484375 10.953125 
Q 26.375 6.390625 33.015625 6.390625 
Q 39.65625 6.390625 43.53125 10.953125 
Q 47.40625 15.53125 47.40625 23.390625 
Q 47.40625 31.296875 43.53125 35.828125 
Q 39.65625 40.375 33.015625 40.375 
z
M 52.59375 71.296875 
L 52.59375 62.3125 
Q 48.875 64.0625 45.09375 64.984375 
Q 41.3125 65.921875 37.59375 65.921875 
Q 27.828125 65.921875 22.671875 59.328125 
Q 17.53125 52.734375 16.796875 39.40625 
Q 19.671875 43.65625 24.015625 45.921875 
Q 28.375 48.1875 33.59375 48.1875 
Q 44.578125 48.1875 50.953125 41.515625 
Q 57.328125 34.859375 57.328125 23.390625 
Q 57.328125 12.15625 50.6875 5.359375 
Q 44.046875 -1.421875 33.015625 -1.421875 
Q 20.359375 -1.421875 13.671875 8.265625 
Q 6.984375 17.96875 6.984375 36.375 
Q 6.984375 53.65625 15.1875 63.9375 
Q 23.390625 74.21875 37.203125 74.21875 
Q 40.921875 74.21875 44.703125 73.484375 
Q 48.484375 72.75 52.59375 71.296875 
z
" id="DejaVuSans-54"/>
    </defs>
    <g transform="translate(123.318437 20.88)scale(0.12 -0.12)">
     <use xlink:href="#DejaVuSans-84"/>
     <use x="61.083984" xlink:href="#DejaVuSans-104"/>
     <use x="124.462891" xlink:href="#DejaVuSans-97"/>
     <use x="185.742188" xlink:href="#DejaVuSans-108"/>
     <use x="213.525391" xlink:href="#DejaVuSans-97"/>
     <use x="274.804688" xlink:href="#DejaVuSans-109"/>
     <use x="372.216797" xlink:href="#DejaVuSans-117"/>
     <use x="435.595703" xlink:href="#DejaVuSans-115"/>
     <use x="487.695312" xlink:href="#DejaVuSans-44"/>
     <use x="519.482422" xlink:href="#DejaVuSans-32"/>
     <use x="551.269531" xlink:href="#DejaVuSans-78"/>
     <use x="626.074219" xlink:href="#DejaVuSans-117"/>
     <use x="689.453125" xlink:href="#DejaVuSans-109"/>
     <use x="786.865234" xlink:href="#DejaVuSans-32"/>
     <use x="818.652344" xlink:href="#DejaVuSans-84"/>
     <use x="879.517578" xlink:href="#DejaVuSans-114"/>
     <use x="920.630859" xlink:href="#DejaVuSans-105"/>
     <use x="948.414062" xlink:href="#DejaVuSans-97"/>
     <use x="1009.693359" xlink:href="#DejaVuSans-108"/>
     <use x="1037.476562" xlink:href="#DejaVuSans-115"/>
     <use x="1089.576172" xlink:href="#DejaVuSans-61"/>
     <use x="1173.365234" xlink:href="#DejaVuSans-49"/>
     <use x="1236.988281" xlink:href="#DejaVuSans-48"/>
     <use x="1300.611328" xlink:href="#DejaVuSans-32"/>
     <use x="1332.398438" xlink:href="#DejaVuSans-65"/>
     <use x="1400.806641" xlink:href="#DejaVuSans-108"/>
     <use x="1428.589844" xlink:href="#DejaVuSans-108"/>
     <use x="1456.373047" xlink:href="#DejaVuSans-32"/>
     <use x="1488.160156" xlink:href="#DejaVuSans-117"/>
     <use x="1551.539062" xlink:href="#DejaVuSans-110"/>
     <use x="1614.917969" xlink:href="#DejaVuSans-115"/>
     <use x="1667.017578" xlink:href="#DejaVuSans-116"/>
     <use x="1706.226562" xlink:href="#DejaVuSans-105"/>
     <use x="1734.009766" xlink:href="#DejaVuSans-109"/>
     <use x="1831.421875" xlink:href="#DejaVuSans-117"/>
     <use x="1894.800781" xlink:href="#DejaVuSans-108"/>
     <use x="1922.583984" xlink:href="#DejaVuSans-97"/>
     <use x="1983.863281" xlink:href="#DejaVuSans-116"/>
     <use x="2023.072266" xlink:href="#DejaVuSans-101"/>
     <use x="2084.595703" xlink:href="#DejaVuSans-100"/>
     <use x="2148.072266" xlink:href="#DejaVuSans-32"/>
     <use x="2179.859375" xlink:href="#DejaVuSans-116"/>
     <use x="2219.068359" xlink:href="#DejaVuSans-114"/>
     <use x="2260.181641" xlink:href="#DejaVuSans-105"/>
     <use x="2287.964844" xlink:href="#DejaVuSans-97"/>
     <use x="2349.244141" xlink:href="#DejaVuSans-108"/>
     <use x="2377.027344" xlink:href="#DejaVuSans-115"/>
     <use x="2429.126953" xlink:href="#DejaVuSans-44"/>
     <use x="2460.914062" xlink:href="#DejaVuSans-32"/>
     <use x="2492.701172" xlink:href="#DejaVuSans-78"/>
     <use x="2567.505859" xlink:href="#DejaVuSans-117"/>
     <use x="2630.884766" xlink:href="#DejaVuSans-109"/>
     <use x="2728.296875" xlink:href="#DejaVuSans-32"/>
     <use x="2760.083984" xlink:href="#DejaVuSans-99"/>
     <use x="2815.064453" xlink:href="#DejaVuSans-101"/>
     <use x="2876.587891" xlink:href="#DejaVuSans-108"/>
     <use x="2904.371094" xlink:href="#DejaVuSans-108"/>
     <use x="2932.154297" xlink:href="#DejaVuSans-115"/>
     <use x="2984.253906" xlink:href="#DejaVuSans-32"/>
     <use x="3016.041016" xlink:href="#DejaVuSans-61"/>
     <use x="3099.830078" xlink:href="#DejaVuSans-32"/>
     <use x="3131.617188" xlink:href="#DejaVuSans-54"/>
     <use x="3195.240234" xlink:href="#DejaVuSans-49"/>
     <use x="3258.863281" xlink:href="#DejaVuSans-48"/>
    </g>
   </g>
   <g id="legend_1">
    <g id="patch_7">
     <path d="M 422.16 71.73375 
L 556.8 71.73375 
Q 559.2 71.73375 559.2 69.33375 
L 559.2 35.28 
Q 559.2 32.88 556.8 32.88 
L 422.16 32.88 
Q 419.76 32.88 419.76 35.28 
L 419.76 69.33375 
Q 419.76 71.73375 422.16 71.73375 
z
" style="fill:#ffffff;opacity:0.8;stroke:#cccccc;stroke-linejoin:miter;"/>
    </g>
    <g id="line2d_11">
     <path d="M 424.56 42.6 
L 448.56 42.6 
" style="fill:none;stroke:#0000ff;stroke-linecap:square;stroke-width:1.5;"/>
    </g>
    <g id="line2d_12"/>
    <g id="text_13">
     <!-- COM-Binomial $p$ -->
     <defs>
      <path d="M 4.890625 31.390625 
L 31.203125 31.390625 
L 31.203125 23.390625 
L 4.890625 23.390625 
z
" id="DejaVuSans-45"/>
      <path d="M 19.671875 34.8125 
L 19.671875 8.109375 
L 35.5 8.109375 
Q 43.453125 8.109375 47.28125 11.40625 
Q 51.125 14.703125 51.125 21.484375 
Q 51.125 28.328125 47.28125 31.5625 
Q 43.453125 34.8125 35.5 34.8125 
z
M 19.671875 64.796875 
L 19.671875 42.828125 
L 34.28125 42.828125 
Q 41.5 42.828125 45.03125 45.53125 
Q 48.578125 48.25 48.578125 53.8125 
Q 48.578125 59.328125 45.03125 62.0625 
Q 41.5 64.796875 34.28125 64.796875 
z
M 9.8125 72.90625 
L 35.015625 72.90625 
Q 46.296875 72.90625 52.390625 68.21875 
Q 58.5 63.53125 58.5 54.890625 
Q 58.5 48.1875 55.375 44.234375 
Q 52.25 40.28125 46.1875 39.3125 
Q 53.46875 37.75 57.5 32.78125 
Q 61.53125 27.828125 61.53125 20.40625 
Q 61.53125 10.640625 54.890625 5.3125 
Q 48.25 0 35.984375 0 
L 9.8125 0 
z
" id="DejaVuSans-66"/>
      <path d="M 30.609375 48.390625 
Q 23.390625 48.390625 19.1875 42.75 
Q 14.984375 37.109375 14.984375 27.296875 
Q 14.984375 17.484375 19.15625 11.84375 
Q 23.34375 6.203125 30.609375 6.203125 
Q 37.796875 6.203125 41.984375 11.859375 
Q 46.1875 17.53125 46.1875 27.296875 
Q 46.1875 37.015625 41.984375 42.703125 
Q 37.796875 48.390625 30.609375 48.390625 
z
M 30.609375 56 
Q 42.328125 56 49.015625 48.375 
Q 55.71875 40.765625 55.71875 27.296875 
Q 55.71875 13.875 49.015625 6.21875 
Q 42.328125 -1.421875 30.609375 -1.421875 
Q 18.84375 -1.421875 12.171875 6.21875 
Q 5.515625 13.875 5.515625 27.296875 
Q 5.515625 40.765625 12.171875 48.375 
Q 18.84375 56 30.609375 56 
z
" id="DejaVuSans-111"/>
     </defs>
     <g transform="translate(458.16 46.8)scale(0.12 -0.12)">
      <use transform="translate(0 0.015625)" xlink:href="#DejaVuSans-67"/>
      <use transform="translate(69.824219 0.015625)" xlink:href="#DejaVuSans-79"/>
      <use transform="translate(148.535156 0.015625)" xlink:href="#DejaVuSans-77"/>
      <use transform="translate(234.814453 0.015625)" xlink:href="#DejaVuSans-45"/>
      <use transform="translate(270.898438 0.015625)" xlink:href="#DejaVuSans-66"/>
      <use transform="translate(339.501953 0.015625)" xlink:href="#DejaVuSans-105"/>
      <use transform="translate(367.285156 0.015625)" xlink:href="#DejaVuSans-110"/>
      <use transform="translate(430.664062 0.015625)" xlink:href="#DejaVuSans-111"/>
      <use transform="translate(491.845703 0.015625)" xlink:href="#DejaVuSans-109"/>
      <use transform="translate(589.257812 0.015625)" xlink:href="#DejaVuSans-105"/>
      <use transform="translate(617.041016 0.015625)" xlink:href="#DejaVuSans-97"/>
      <use transform="translate(678.320312 0.015625)" xlink:href="#DejaVuSans-108"/>
      <use transform="translate(706.103516 0.015625)" xlink:href="#DejaVuSans-32"/>
      <use transform="translate(737.890625 0.015625)" xlink:href="#DejaVuSans-Oblique-112"/>
     </g>
    </g>
    <g id="patch_8">
     <path d="M 424.56 64.438125 
L 448.56 64.438125 
L 448.56 56.038125 
L 424.56 56.038125 
z
" style="fill:#0000ff;opacity:0.3;stroke:#0000ff;stroke-linejoin:miter;"/>
    </g>
    <g id="text_14">
     <!-- Std. Err. -->
     <defs>
      <path d="M 53.515625 70.515625 
L 53.515625 60.890625 
Q 47.90625 63.578125 42.921875 64.890625 
Q 37.9375 66.21875 33.296875 66.21875 
Q 25.25 66.21875 20.875 63.09375 
Q 16.5 59.96875 16.5 54.203125 
Q 16.5 49.359375 19.40625 46.890625 
Q 22.3125 44.4375 30.421875 42.921875 
L 36.375 41.703125 
Q 47.40625 39.59375 52.65625 34.296875 
Q 57.90625 29 57.90625 20.125 
Q 57.90625 9.515625 50.796875 4.046875 
Q 43.703125 -1.421875 29.984375 -1.421875 
Q 24.8125 -1.421875 18.96875 -0.25 
Q 13.140625 0.921875 6.890625 3.21875 
L 6.890625 13.375 
Q 12.890625 10.015625 18.65625 8.296875 
Q 24.421875 6.59375 29.984375 6.59375 
Q 38.421875 6.59375 43.015625 9.90625 
Q 47.609375 13.234375 47.609375 19.390625 
Q 47.609375 24.75 44.3125 27.78125 
Q 41.015625 30.8125 33.5 32.328125 
L 27.484375 33.5 
Q 16.453125 35.6875 11.515625 40.375 
Q 6.59375 45.0625 6.59375 53.421875 
Q 6.59375 63.09375 13.40625 68.65625 
Q 20.21875 74.21875 32.171875 74.21875 
Q 37.3125 74.21875 42.625 73.28125 
Q 47.953125 72.359375 53.515625 70.515625 
z
" id="DejaVuSans-83"/>
      <path d="M 9.8125 72.90625 
L 55.90625 72.90625 
L 55.90625 64.59375 
L 19.671875 64.59375 
L 19.671875 43.015625 
L 54.390625 43.015625 
L 54.390625 34.71875 
L 19.671875 34.71875 
L 19.671875 8.296875 
L 56.78125 8.296875 
L 56.78125 0 
L 9.8125 0 
z
" id="DejaVuSans-69"/>
     </defs>
     <g transform="translate(458.16 64.438125)scale(0.12 -0.12)">
      <use xlink:href="#DejaVuSans-83"/>
      <use x="63.476562" xlink:href="#DejaVuSans-116"/>
      <use x="102.685547" xlink:href="#DejaVuSans-100"/>
      <use x="166.162109" xlink:href="#DejaVuSans-46"/>
      <use x="197.949219" xlink:href="#DejaVuSans-32"/>
      <use x="229.736328" xlink:href="#DejaVuSans-69"/>
      <use x="292.919922" xlink:href="#DejaVuSans-114"/>
      <use x="334.017578" xlink:href="#DejaVuSans-114"/>
      <use x="374.990234" xlink:href="#DejaVuSans-46"/>
     </g>
    </g>
   </g>
  </g>
 </g>
 <defs>
  <clipPath id="pe955aaf4d3">
   <rect height="147.88" width="485.08" x="80.12" y="26.88"/>
  </clipPath>
 </defs>
</svg>
