<?xml version="1.0" encoding="utf-8" standalone="no"?>
<!DOCTYPE svg PUBLIC "-//W3C//DTD SVG 1.1//EN"
  "http://www.w3.org/Graphics/SVG/1.1/DTD/svg11.dtd">
<!-- Created with matplotlib (https://matplotlib.org/) -->
<svg height="288pt" version="1.1" viewBox="0 0 720 288" width="720pt" xmlns="http://www.w3.org/2000/svg" xmlns:xlink="http://www.w3.org/1999/xlink">
 <defs>
  <style type="text/css">
*{stroke-linecap:butt;stroke-linejoin:round;white-space:pre;}
  </style>
 </defs>
 <g id="figure_1">
  <g id="patch_1">
   <path d="M 0 288 
L 720 288 
L 720 0 
L 0 0 
z
" style="fill:#ffffff;"/>
  </g>
  <g id="axes_1">
   <g id="patch_2">
    <path d="M 90 256.32 
L 648 256.32 
L 648 34.56 
L 90 34.56 
z
" style="fill:#ffffff;"/>
   </g>
   <g id="PolyCollection_1">
    <defs>
     <path d="M 142.269796 -31.68 
L 142.269796 -264.528 
L 597.78 -264.528 
L 597.78 -31.68 
L 597.78 -31.68 
L 142.269796 -31.68 
z
" id="m56a1939a77" style="stroke:#808080;stroke-opacity:0.3;"/>
    </defs>
    <g clip-path="url(#p7f4db9b488)">
     <use style="fill:#808080;fill-opacity:0.3;stroke:#808080;stroke-opacity:0.3;" x="0" xlink:href="#m56a1939a77" y="288"/>
    </g>
   </g>
   <g id="matplotlib.axis_1">
    <g id="xtick_1">
     <g id="line2d_1">
      <defs>
       <path d="M 0 0 
L 0 3.5 
" id="mad37d928e4" style="stroke:#000000;stroke-width:0.8;"/>
      </defs>
      <g>
       <use style="stroke:#000000;stroke-width:0.8;" x="90" xlink:href="#mad37d928e4" y="256.32"/>
      </g>
     </g>
     <g id="text_1">
      <!-- 0.0 -->
      <defs>
       <path d="M 31.78125 66.40625 
Q 24.171875 66.40625 20.328125 58.90625 
Q 16.5 51.421875 16.5 36.375 
Q 16.5 21.390625 20.328125 13.890625 
Q 24.171875 6.390625 31.78125 6.390625 
Q 39.453125 6.390625 43.28125 13.890625 
Q 47.125 21.390625 47.125 36.375 
Q 47.125 51.421875 43.28125 58.90625 
Q 39.453125 66.40625 31.78125 66.40625 
z
M 31.78125 74.21875 
Q 44.046875 74.21875 50.515625 64.515625 
Q 56.984375 54.828125 56.984375 36.375 
Q 56.984375 17.96875 50.515625 8.265625 
Q 44.046875 -1.421875 31.78125 -1.421875 
Q 19.53125 -1.421875 13.0625 8.265625 
Q 6.59375 17.96875 6.59375 36.375 
Q 6.59375 54.828125 13.0625 64.515625 
Q 19.53125 74.21875 31.78125 74.21875 
z
" id="DejaVuSans-48"/>
       <path d="M 10.6875 12.40625 
L 21 12.40625 
L 21 0 
L 10.6875 0 
z
" id="DejaVuSans-46"/>
      </defs>
      <g transform="translate(82.048438 270.918437)scale(0.1 -0.1)">
       <use xlink:href="#DejaVuSans-48"/>
       <use x="63.623047" xlink:href="#DejaVuSans-46"/>
       <use x="95.410156" xlink:href="#DejaVuSans-48"/>
      </g>
     </g>
    </g>
    <g id="xtick_2">
     <g id="line2d_2">
      <g>
       <use style="stroke:#000000;stroke-width:0.8;" x="203.877551" xlink:href="#mad37d928e4" y="256.32"/>
      </g>
     </g>
     <g id="text_2">
      <!-- 0.5 -->
      <defs>
       <path d="M 10.796875 72.90625 
L 49.515625 72.90625 
L 49.515625 64.59375 
L 19.828125 64.59375 
L 19.828125 46.734375 
Q 21.96875 47.46875 24.109375 47.828125 
Q 26.265625 48.1875 28.421875 48.1875 
Q 40.625 48.1875 47.75 41.5 
Q 54.890625 34.8125 54.890625 23.390625 
Q 54.890625 11.625 47.5625 5.09375 
Q 40.234375 -1.421875 26.90625 -1.421875 
Q 22.3125 -1.421875 17.546875 -0.640625 
Q 12.796875 0.140625 7.71875 1.703125 
L 7.71875 11.625 
Q 12.109375 9.234375 16.796875 8.0625 
Q 21.484375 6.890625 26.703125 6.890625 
Q 35.15625 6.890625 40.078125 11.328125 
Q 45.015625 15.765625 45.015625 23.390625 
Q 45.015625 31 40.078125 35.4375 
Q 35.15625 39.890625 26.703125 39.890625 
Q 22.75 39.890625 18.8125 39.015625 
Q 14.890625 38.140625 10.796875 36.28125 
z
" id="DejaVuSans-53"/>
      </defs>
      <g transform="translate(195.925989 270.918437)scale(0.1 -0.1)">
       <use xlink:href="#DejaVuSans-48"/>
       <use x="63.623047" xlink:href="#DejaVuSans-46"/>
       <use x="95.410156" xlink:href="#DejaVuSans-53"/>
      </g>
     </g>
    </g>
    <g id="xtick_3">
     <g id="line2d_3">
      <g>
       <use style="stroke:#000000;stroke-width:0.8;" x="317.755102" xlink:href="#mad37d928e4" y="256.32"/>
      </g>
     </g>
     <g id="text_3">
      <!-- 1.0 -->
      <defs>
       <path d="M 12.40625 8.296875 
L 28.515625 8.296875 
L 28.515625 63.921875 
L 10.984375 60.40625 
L 10.984375 69.390625 
L 28.421875 72.90625 
L 38.28125 72.90625 
L 38.28125 8.296875 
L 54.390625 8.296875 
L 54.390625 0 
L 12.40625 0 
z
" id="DejaVuSans-49"/>
      </defs>
      <g transform="translate(309.80354 270.918437)scale(0.1 -0.1)">
       <use xlink:href="#DejaVuSans-49"/>
       <use x="63.623047" xlink:href="#DejaVuSans-46"/>
       <use x="95.410156" xlink:href="#DejaVuSans-48"/>
      </g>
     </g>
    </g>
    <g id="xtick_4">
     <g id="line2d_4">
      <g>
       <use style="stroke:#000000;stroke-width:0.8;" x="431.632653" xlink:href="#mad37d928e4" y="256.32"/>
      </g>
     </g>
     <g id="text_4">
      <!-- 1.5 -->
      <g transform="translate(423.681091 270.918437)scale(0.1 -0.1)">
       <use xlink:href="#DejaVuSans-49"/>
       <use x="63.623047" xlink:href="#DejaVuSans-46"/>
       <use x="95.410156" xlink:href="#DejaVuSans-53"/>
      </g>
     </g>
    </g>
    <g id="xtick_5">
     <g id="line2d_5">
      <g>
       <use style="stroke:#000000;stroke-width:0.8;" x="545.510204" xlink:href="#mad37d928e4" y="256.32"/>
      </g>
     </g>
     <g id="text_5">
      <!-- 2.0 -->
      <defs>
       <path d="M 19.1875 8.296875 
L 53.609375 8.296875 
L 53.609375 0 
L 7.328125 0 
L 7.328125 8.296875 
Q 12.9375 14.109375 22.625 23.890625 
Q 32.328125 33.6875 34.8125 36.53125 
Q 39.546875 41.84375 41.421875 45.53125 
Q 43.3125 49.21875 43.3125 52.78125 
Q 43.3125 58.59375 39.234375 62.25 
Q 35.15625 65.921875 28.609375 65.921875 
Q 23.96875 65.921875 18.8125 64.3125 
Q 13.671875 62.703125 7.8125 59.421875 
L 7.8125 69.390625 
Q 13.765625 71.78125 18.9375 73 
Q 24.125 74.21875 28.421875 74.21875 
Q 39.75 74.21875 46.484375 68.546875 
Q 53.21875 62.890625 53.21875 53.421875 
Q 53.21875 48.921875 51.53125 44.890625 
Q 49.859375 40.875 45.40625 35.40625 
Q 44.1875 33.984375 37.640625 27.21875 
Q 31.109375 20.453125 19.1875 8.296875 
z
" id="DejaVuSans-50"/>
      </defs>
      <g transform="translate(537.558642 270.918437)scale(0.1 -0.1)">
       <use xlink:href="#DejaVuSans-50"/>
       <use x="63.623047" xlink:href="#DejaVuSans-46"/>
       <use x="95.410156" xlink:href="#DejaVuSans-48"/>
      </g>
     </g>
    </g>
    <g id="text_6">
     <!-- Time (s) -->
     <defs>
      <path d="M -0.296875 72.90625 
L 61.375 72.90625 
L 61.375 64.59375 
L 35.5 64.59375 
L 35.5 0 
L 25.59375 0 
L 25.59375 64.59375 
L -0.296875 64.59375 
z
" id="DejaVuSans-84"/>
      <path d="M 9.421875 54.6875 
L 18.40625 54.6875 
L 18.40625 0 
L 9.421875 0 
z
M 9.421875 75.984375 
L 18.40625 75.984375 
L 18.40625 64.59375 
L 9.421875 64.59375 
z
" id="DejaVuSans-105"/>
      <path d="M 52 44.1875 
Q 55.375 50.25 60.0625 53.125 
Q 64.75 56 71.09375 56 
Q 79.640625 56 84.28125 50.015625 
Q 88.921875 44.046875 88.921875 33.015625 
L 88.921875 0 
L 79.890625 0 
L 79.890625 32.71875 
Q 79.890625 40.578125 77.09375 44.375 
Q 74.3125 48.1875 68.609375 48.1875 
Q 61.625 48.1875 57.5625 43.546875 
Q 53.515625 38.921875 53.515625 30.90625 
L 53.515625 0 
L 44.484375 0 
L 44.484375 32.71875 
Q 44.484375 40.625 41.703125 44.40625 
Q 38.921875 48.1875 33.109375 48.1875 
Q 26.21875 48.1875 22.15625 43.53125 
Q 18.109375 38.875 18.109375 30.90625 
L 18.109375 0 
L 9.078125 0 
L 9.078125 54.6875 
L 18.109375 54.6875 
L 18.109375 46.1875 
Q 21.1875 51.21875 25.484375 53.609375 
Q 29.78125 56 35.6875 56 
Q 41.65625 56 45.828125 52.96875 
Q 50 49.953125 52 44.1875 
z
" id="DejaVuSans-109"/>
      <path d="M 56.203125 29.59375 
L 56.203125 25.203125 
L 14.890625 25.203125 
Q 15.484375 15.921875 20.484375 11.0625 
Q 25.484375 6.203125 34.421875 6.203125 
Q 39.59375 6.203125 44.453125 7.46875 
Q 49.3125 8.734375 54.109375 11.28125 
L 54.109375 2.78125 
Q 49.265625 0.734375 44.1875 -0.34375 
Q 39.109375 -1.421875 33.890625 -1.421875 
Q 20.796875 -1.421875 13.15625 6.1875 
Q 5.515625 13.8125 5.515625 26.8125 
Q 5.515625 40.234375 12.765625 48.109375 
Q 20.015625 56 32.328125 56 
Q 43.359375 56 49.78125 48.890625 
Q 56.203125 41.796875 56.203125 29.59375 
z
M 47.21875 32.234375 
Q 47.125 39.59375 43.09375 43.984375 
Q 39.0625 48.390625 32.421875 48.390625 
Q 24.90625 48.390625 20.390625 44.140625 
Q 15.875 39.890625 15.1875 32.171875 
z
" id="DejaVuSans-101"/>
      <path id="DejaVuSans-32"/>
      <path d="M 31 75.875 
Q 24.46875 64.65625 21.28125 53.65625 
Q 18.109375 42.671875 18.109375 31.390625 
Q 18.109375 20.125 21.3125 9.0625 
Q 24.515625 -2 31 -13.1875 
L 23.1875 -13.1875 
Q 15.875 -1.703125 12.234375 9.375 
Q 8.59375 20.453125 8.59375 31.390625 
Q 8.59375 42.28125 12.203125 53.3125 
Q 15.828125 64.359375 23.1875 75.875 
z
" id="DejaVuSans-40"/>
      <path d="M 44.28125 53.078125 
L 44.28125 44.578125 
Q 40.484375 46.53125 36.375 47.5 
Q 32.28125 48.484375 27.875 48.484375 
Q 21.1875 48.484375 17.84375 46.4375 
Q 14.5 44.390625 14.5 40.28125 
Q 14.5 37.15625 16.890625 35.375 
Q 19.28125 33.59375 26.515625 31.984375 
L 29.59375 31.296875 
Q 39.15625 29.25 43.1875 25.515625 
Q 47.21875 21.78125 47.21875 15.09375 
Q 47.21875 7.46875 41.1875 3.015625 
Q 35.15625 -1.421875 24.609375 -1.421875 
Q 20.21875 -1.421875 15.453125 -0.5625 
Q 10.6875 0.296875 5.421875 2 
L 5.421875 11.28125 
Q 10.40625 8.6875 15.234375 7.390625 
Q 20.0625 6.109375 24.8125 6.109375 
Q 31.15625 6.109375 34.5625 8.28125 
Q 37.984375 10.453125 37.984375 14.40625 
Q 37.984375 18.0625 35.515625 20.015625 
Q 33.0625 21.96875 24.703125 23.78125 
L 21.578125 24.515625 
Q 13.234375 26.265625 9.515625 29.90625 
Q 5.8125 33.546875 5.8125 39.890625 
Q 5.8125 47.609375 11.28125 51.796875 
Q 16.75 56 26.8125 56 
Q 31.78125 56 36.171875 55.265625 
Q 40.578125 54.546875 44.28125 53.078125 
z
" id="DejaVuSans-115"/>
      <path d="M 8.015625 75.875 
L 15.828125 75.875 
Q 23.140625 64.359375 26.78125 53.3125 
Q 30.421875 42.28125 30.421875 31.390625 
Q 30.421875 20.453125 26.78125 9.375 
Q 23.140625 -1.703125 15.828125 -13.1875 
L 8.015625 -13.1875 
Q 14.5 -2 17.703125 9.0625 
Q 20.90625 20.125 20.90625 31.390625 
Q 20.90625 42.671875 17.703125 53.65625 
Q 14.5 64.65625 8.015625 75.875 
z
" id="DejaVuSans-41"/>
     </defs>
     <g transform="translate(344.420625 286.11625)scale(0.12 -0.12)">
      <use xlink:href="#DejaVuSans-84"/>
      <use x="61.037109" xlink:href="#DejaVuSans-105"/>
      <use x="88.820312" xlink:href="#DejaVuSans-109"/>
      <use x="186.232422" xlink:href="#DejaVuSans-101"/>
      <use x="247.755859" xlink:href="#DejaVuSans-32"/>
      <use x="279.542969" xlink:href="#DejaVuSans-40"/>
      <use x="318.556641" xlink:href="#DejaVuSans-115"/>
      <use x="370.65625" xlink:href="#DejaVuSans-41"/>
     </g>
    </g>
   </g>
   <g id="matplotlib.axis_2">
    <g id="ytick_1">
     <g id="line2d_6">
      <defs>
       <path d="M 0 0 
L -3.5 0 
" id="m39921b7a78" style="stroke:#000000;stroke-width:0.8;"/>
      </defs>
      <g>
       <use style="stroke:#000000;stroke-width:0.8;" x="90" xlink:href="#m39921b7a78" y="212.021056"/>
      </g>
     </g>
     <g id="text_7">
      <!-- 0.01 -->
      <g transform="translate(60.734375 215.820275)scale(0.1 -0.1)">
       <use xlink:href="#DejaVuSans-48"/>
       <use x="63.623047" xlink:href="#DejaVuSans-46"/>
       <use x="95.410156" xlink:href="#DejaVuSans-48"/>
       <use x="159.033203" xlink:href="#DejaVuSans-49"/>
      </g>
     </g>
    </g>
    <g id="ytick_2">
     <g id="line2d_7">
      <g>
       <use style="stroke:#000000;stroke-width:0.8;" x="90" xlink:href="#m39921b7a78" y="167.654432"/>
      </g>
     </g>
     <g id="text_8">
      <!-- 0.02 -->
      <g transform="translate(60.734375 171.45365)scale(0.1 -0.1)">
       <use xlink:href="#DejaVuSans-48"/>
       <use x="63.623047" xlink:href="#DejaVuSans-46"/>
       <use x="95.410156" xlink:href="#DejaVuSans-48"/>
       <use x="159.033203" xlink:href="#DejaVuSans-50"/>
      </g>
     </g>
    </g>
    <g id="ytick_3">
     <g id="line2d_8">
      <g>
       <use style="stroke:#000000;stroke-width:0.8;" x="90" xlink:href="#m39921b7a78" y="123.287807"/>
      </g>
     </g>
     <g id="text_9">
      <!-- 0.03 -->
      <defs>
       <path d="M 40.578125 39.3125 
Q 47.65625 37.796875 51.625 33 
Q 55.609375 28.21875 55.609375 21.1875 
Q 55.609375 10.40625 48.1875 4.484375 
Q 40.765625 -1.421875 27.09375 -1.421875 
Q 22.515625 -1.421875 17.65625 -0.515625 
Q 12.796875 0.390625 7.625 2.203125 
L 7.625 11.71875 
Q 11.71875 9.328125 16.59375 8.109375 
Q 21.484375 6.890625 26.8125 6.890625 
Q 36.078125 6.890625 40.9375 10.546875 
Q 45.796875 14.203125 45.796875 21.1875 
Q 45.796875 27.640625 41.28125 31.265625 
Q 36.765625 34.90625 28.71875 34.90625 
L 20.21875 34.90625 
L 20.21875 43.015625 
L 29.109375 43.015625 
Q 36.375 43.015625 40.234375 45.921875 
Q 44.09375 48.828125 44.09375 54.296875 
Q 44.09375 59.90625 40.109375 62.90625 
Q 36.140625 65.921875 28.71875 65.921875 
Q 24.65625 65.921875 20.015625 65.03125 
Q 15.375 64.15625 9.8125 62.3125 
L 9.8125 71.09375 
Q 15.4375 72.65625 20.34375 73.4375 
Q 25.25 74.21875 29.59375 74.21875 
Q 40.828125 74.21875 47.359375 69.109375 
Q 53.90625 64.015625 53.90625 55.328125 
Q 53.90625 49.265625 50.4375 45.09375 
Q 46.96875 40.921875 40.578125 39.3125 
z
" id="DejaVuSans-51"/>
      </defs>
      <g transform="translate(60.734375 127.087026)scale(0.1 -0.1)">
       <use xlink:href="#DejaVuSans-48"/>
       <use x="63.623047" xlink:href="#DejaVuSans-46"/>
       <use x="95.410156" xlink:href="#DejaVuSans-48"/>
       <use x="159.033203" xlink:href="#DejaVuSans-51"/>
      </g>
     </g>
    </g>
    <g id="ytick_4">
     <g id="line2d_9">
      <g>
       <use style="stroke:#000000;stroke-width:0.8;" x="90" xlink:href="#m39921b7a78" y="78.921183"/>
      </g>
     </g>
     <g id="text_10">
      <!-- 0.04 -->
      <defs>
       <path d="M 37.796875 64.3125 
L 12.890625 25.390625 
L 37.796875 25.390625 
z
M 35.203125 72.90625 
L 47.609375 72.90625 
L 47.609375 25.390625 
L 58.015625 25.390625 
L 58.015625 17.1875 
L 47.609375 17.1875 
L 47.609375 0 
L 37.796875 0 
L 37.796875 17.1875 
L 4.890625 17.1875 
L 4.890625 26.703125 
z
" id="DejaVuSans-52"/>
      </defs>
      <g transform="translate(60.734375 82.720401)scale(0.1 -0.1)">
       <use xlink:href="#DejaVuSans-48"/>
       <use x="63.623047" xlink:href="#DejaVuSans-46"/>
       <use x="95.410156" xlink:href="#DejaVuSans-48"/>
       <use x="159.033203" xlink:href="#DejaVuSans-52"/>
      </g>
     </g>
    </g>
   </g>
   <g id="line2d_10">
    <path clip-path="url(#p7f4db9b488)" d="M 90 210.000421 
L 92.277551 214.776169 
L 94.555102 231.187464 
L 96.832653 243.98685 
L 99.110204 236.697828 
L 101.387755 243.704602 
L 103.665306 248.088747 
L 105.942857 248.249366 
L 108.220408 246.905596 
L 110.497959 248.908792 
L 112.77551 252.543968 
L 115.053061 253.430959 
L 117.330612 251.607641 
L 119.608163 254.501122 
L 121.885714 254.851611 
L 124.163265 255.773278 
L 126.440816 253.970521 
L 128.718367 250.802237 
L 130.995918 244.281151 
L 133.273469 244.68877 
L 135.55102 235.604551 
L 137.828571 207.86626 
L 140.106122 210.244088 
L 142.383673 208.605962 
L 144.661224 201.868896 
L 146.938776 204.536912 
L 149.216327 227.796671 
L 151.493878 239.922173 
L 153.771429 249.432404 
L 156.04898 249.39187 
L 160.604082 254.731521 
L 162.881633 254.212162 
L 165.159184 251.235465 
L 167.436735 251.706553 
L 169.714286 250.337488 
L 171.991837 243.529061 
L 174.269388 228.479512 
L 176.546939 220.820783 
L 178.82449 204.967989 
L 181.102041 201.759596 
L 183.379592 200.626964 
L 185.657143 174.59424 
L 187.934694 189.908473 
L 190.212245 185.073136 
L 192.489796 177.181471 
L 194.767347 188.237354 
L 197.044898 194.317921 
L 199.322449 203.113735 
L 201.6 224.376088 
L 203.877551 233.188334 
L 206.155102 235.854972 
L 208.432653 243.168363 
L 210.710204 251.002749 
L 212.987755 250.363094 
L 215.265306 250.088553 
L 217.542857 248.555136 
L 219.820408 245.90677 
L 222.097959 253.278351 
L 224.37551 249.084492 
L 226.653061 236.201365 
L 228.930612 238.061678 
L 231.208163 222.707789 
L 233.485714 203.576195 
L 235.763265 127.801954 
L 238.040816 180.392448 
L 240.318367 190.218369 
L 242.595918 197.420133 
L 244.873469 195.308302 
L 247.15102 205.535618 
L 249.428571 231.240676 
L 251.706122 222.460212 
L 253.983673 243.930095 
L 256.261224 236.315215 
L 258.538776 254.081045 
L 260.816327 253.133881 
L 263.093878 252.793323 
L 265.371429 250.225508 
L 267.64898 251.016016 
L 269.926531 252.180007 
L 272.204082 253.652177 
L 274.481633 254.762549 
L 276.759184 254.53596 
L 279.036735 255.305803 
L 281.314286 252.001508 
L 283.591837 251.559931 
L 285.869388 252.626199 
L 288.146939 253.900362 
L 290.42449 249.574142 
L 292.702041 249.843767 
L 294.979592 239.426039 
L 297.257143 223.281216 
L 299.534694 220.578468 
L 301.812245 180.525098 
L 304.089796 214.194033 
L 306.367347 193.438886 
L 308.644898 195.441302 
L 310.922449 195.442909 
L 313.2 219.029709 
L 315.477551 207.651918 
L 317.755102 237.420184 
L 320.032653 246.933764 
L 322.310204 245.727676 
L 324.587755 249.06762 
L 326.865306 241.448197 
L 329.142857 245.606803 
L 331.420408 241.477838 
L 333.697959 239.011186 
L 335.97551 239.561326 
L 338.253061 231.162787 
L 340.530612 228.564095 
L 342.808163 212.103653 
L 345.085714 216.622755 
L 347.363265 234.438815 
L 349.640816 247.527897 
L 351.918367 253.049085 
L 354.195918 252.892938 
L 356.473469 253.438805 
L 358.75102 237.303897 
L 361.028571 250.562181 
L 363.306122 241.255516 
L 365.583673 242.427421 
L 367.861224 241.425288 
L 370.138776 241.260789 
L 372.416327 230.060893 
L 374.693878 184.847698 
L 376.971429 164.757037 
L 379.24898 178.037029 
L 381.526531 210.653448 
L 383.804082 168.49409 
L 386.081633 133.721796 
L 388.359184 153.430314 
L 390.636735 140.407241 
L 392.914286 176.869157 
L 395.191837 220.013322 
L 397.469388 248.347706 
L 399.746939 252.154551 
L 402.02449 248.569049 
L 404.302041 243.36867 
L 406.579592 252.340771 
L 408.857143 254.307906 
L 411.134694 255.107537 
L 413.412245 251.36438 
L 415.689796 248.909869 
L 417.967347 244.484731 
L 420.244898 217.446172 
L 422.522449 202.982037 
L 424.8 210.557929 
L 427.077551 221.522348 
L 429.355102 214.907987 
L 431.632653 180.379797 
L 433.910204 161.294693 
L 436.187755 210.651841 
L 438.465306 205.253489 
L 440.742857 195.791189 
L 443.020408 210.400847 
L 445.297959 213.230527 
L 447.57551 233.717035 
L 449.853061 237.762759 
L 452.130612 246.637382 
L 454.408163 252.76725 
L 456.685714 253.435153 
L 461.240816 253.445277 
L 463.518367 255.444547 
L 465.795918 255.90826 
L 470.35102 255.075047 
L 472.628571 251.850314 
L 474.906122 224.960221 
L 477.183673 229.844 
L 479.461224 209.912346 
L 481.738776 228.793532 
L 484.016327 235.704488 
L 486.293878 233.036775 
L 488.571429 227.472288 
L 490.84898 231.927506 
L 493.126531 232.217911 
L 495.404082 244.678011 
L 497.681633 254.042178 
L 499.959184 253.336749 
L 502.236735 255.179207 
L 504.514286 253.606926 
L 506.791837 251.559321 
L 509.069388 252.054822 
L 511.346939 245.241687 
L 513.62449 246.039098 
L 515.902041 239.244479 
L 518.179592 242.350378 
L 520.457143 246.875276 
L 522.734694 242.71409 
L 525.012245 224.392233 
L 527.289796 203.835295 
L 529.567347 211.61443 
L 531.844898 190.466182 
L 534.122449 227.854772 
L 536.4 210.054455 
L 538.677551 211.027845 
L 540.955102 187.270988 
L 543.232653 191.489426 
L 545.510204 190.272056 
L 547.787755 202.333896 
L 550.065306 198.501537 
L 552.342857 224.011767 
L 554.620408 229.11175 
L 556.897959 213.700607 
L 559.17551 239.024335 
L 563.730612 249.928557 
L 566.008163 247.234657 
L 568.285714 240.584356 
L 572.840816 246.328372 
L 575.118367 236.754715 
L 577.395918 233.218301 
L 579.673469 238.599517 
L 581.95102 231.395357 
L 584.228571 226.919563 
L 586.506122 227.801773 
L 588.783673 224.377629 
L 591.061224 222.880304 
L 593.338776 235.304386 
L 595.616327 246.875749 
L 597.893878 246.613566 
L 600.171429 240.771191 
L 602.44898 244.398595 
L 604.726531 244.447953 
L 607.004082 227.127298 
L 609.281633 222.879645 
L 611.559184 230.107969 
L 613.836735 234.403411 
L 616.114286 225.286546 
L 618.391837 220.679351 
L 620.669388 211.732254 
L 622.946939 232.667434 
L 625.22449 226.606474 
L 627.502041 214.903182 
L 629.779592 238.201279 
L 632.057143 245.719943 
L 634.334694 230.050201 
L 636.612245 227.214392 
L 638.889796 226.368617 
L 641.167347 232.147398 
L 643.444898 241.754236 
L 645.722449 224.48943 
L 648 230.503705 
L 648 230.503705 
" style="fill:none;stroke:#0000ff;stroke-linecap:square;stroke-opacity:0.05;stroke-width:1.5;"/>
   </g>
   <g id="line2d_11">
    <path clip-path="url(#p7f4db9b488)" d="M 90 248.036613 
L 92.277551 250.537996 
L 94.555102 249.712008 
L 96.832653 252.178053 
L 101.387755 252.942727 
L 103.665306 254.110624 
L 105.942857 252.843794 
L 108.220408 251.385903 
L 110.497959 251.677169 
L 112.77551 247.763946 
L 115.053061 248.707053 
L 117.330612 248.389469 
L 119.608163 250.642167 
L 121.885714 250.934089 
L 124.163265 252.057328 
L 126.440816 248.242142 
L 128.718367 251.224324 
L 133.273469 253.423888 
L 135.55102 252.756694 
L 137.828571 251.259318 
L 140.106122 251.669289 
L 142.383673 247.462124 
L 144.661224 250.133909 
L 146.938776 247.600479 
L 149.216327 244.636057 
L 151.493878 237.551803 
L 153.771429 238.649057 
L 156.04898 238.756865 
L 158.326531 242.996653 
L 160.604082 238.352825 
L 162.881633 222.873145 
L 165.159184 226.403647 
L 167.436735 224.335383 
L 169.714286 235.524923 
L 171.991837 234.642705 
L 174.269388 228.109463 
L 176.546939 226.59987 
L 178.82449 225.665251 
L 181.102041 223.099842 
L 183.379592 217.124526 
L 185.657143 234.999759 
L 187.934694 232.167872 
L 190.212245 196.763738 
L 192.489796 167.336144 
L 194.767347 173.231509 
L 197.044898 180.830512 
L 199.322449 175.382658 
L 201.6 165.478655 
L 203.877551 179.553374 
L 206.155102 203.728088 
L 208.432653 212.704372 
L 210.710204 230.442143 
L 212.987755 241.747977 
L 215.265306 239.74193 
L 217.542857 245.447653 
L 219.820408 253.559176 
L 222.097959 254.590973 
L 224.37551 250.982363 
L 226.653061 242.722404 
L 228.930612 219.143015 
L 231.208163 224.328772 
L 233.485714 219.543407 
L 235.763265 217.56749 
L 238.040816 237.293614 
L 240.318367 232.799336 
L 242.595918 227.941206 
L 244.873469 223.676402 
L 247.15102 241.261542 
L 249.428571 250.030475 
L 251.706122 253.885562 
L 253.983673 252.024996 
L 256.261224 253.141618 
L 258.538776 248.448193 
L 260.816327 246.525401 
L 263.093878 243.791733 
L 265.371429 243.238288 
L 267.64898 239.018278 
L 269.926531 238.800735 
L 272.204082 238.857058 
L 274.481633 230.871385 
L 276.759184 220.908485 
L 279.036735 214.576069 
L 281.314286 218.303292 
L 283.591837 221.493434 
L 285.869388 234.541785 
L 288.146939 227.554596 
L 290.42449 230.57601 
L 292.702041 226.79849 
L 294.979592 209.005126 
L 297.257143 215.287479 
L 299.534694 218.056797 
L 301.812245 214.725414 
L 304.089796 231.079527 
L 306.367347 205.695189 
L 308.644898 197.996093 
L 310.922449 202.85378 
L 313.2 203.050053 
L 315.477551 213.144572 
L 317.755102 234.105781 
L 320.032653 240.662962 
L 322.310204 243.692155 
L 324.587755 244.794853 
L 326.865306 244.086412 
L 329.142857 249.833998 
L 331.420408 243.257963 
L 333.697959 241.259635 
L 335.97551 247.263181 
L 338.253061 239.330674 
L 340.530612 232.446906 
L 342.808163 210.255329 
L 347.363265 232.732915 
L 349.640816 224.988703 
L 351.918367 235.729173 
L 354.195918 245.663458 
L 356.473469 250.71199 
L 358.75102 250.603089 
L 361.028571 253.071385 
L 363.306122 251.43852 
L 365.583673 253.31369 
L 367.861224 249.467844 
L 370.138776 250.225349 
L 372.416327 251.389089 
L 374.693878 248.814773 
L 376.971429 245.755012 
L 379.24898 233.584779 
L 381.526531 226.347707 
L 383.804082 230.43778 
L 386.081633 235.90006 
L 388.359184 238.233185 
L 390.636735 209.231819 
L 392.914286 184.059698 
L 395.191837 194.753126 
L 397.469388 199.599361 
L 399.746939 198.608063 
L 402.02449 221.458146 
L 404.302041 228.587249 
L 406.579592 222.088926 
L 408.857143 220.908634 
L 411.134694 214.263444 
L 413.412245 241.23435 
L 415.689796 237.899549 
L 417.967347 217.80301 
L 420.244898 212.822322 
L 422.522449 222.611124 
L 424.8 214.221323 
L 427.077551 217.709407 
L 429.355102 214.864738 
L 431.632653 222.915586 
L 433.910204 233.827191 
L 436.187755 238.655735 
L 438.465306 244.618259 
L 440.742857 248.61074 
L 443.020408 240.816376 
L 445.297959 228.314539 
L 447.57551 227.810587 
L 449.853061 225.87929 
L 452.130612 222.60058 
L 454.408163 208.763645 
L 456.685714 209.646491 
L 458.963265 207.312473 
L 461.240816 182.938491 
L 463.518367 183.625216 
L 465.795918 213.890658 
L 468.073469 215.309417 
L 470.35102 226.746 
L 472.628571 234.675639 
L 474.906122 240.281351 
L 477.183673 251.294089 
L 479.461224 253.681966 
L 481.738776 252.519553 
L 484.016327 251.036782 
L 486.293878 245.09758 
L 488.571429 233.407409 
L 490.84898 233.477363 
L 493.126531 238.441006 
L 495.404082 224.295857 
L 497.681633 223.852785 
L 499.959184 219.903218 
L 502.236735 198.85593 
L 504.514286 196.456076 
L 506.791837 201.464572 
L 509.069388 202.60072 
L 511.346939 223.326554 
L 513.62449 223.159453 
L 515.902041 200.905335 
L 518.179592 210.531968 
L 520.457143 226.724503 
L 522.734694 224.65912 
L 525.012245 234.84063 
L 527.289796 235.368918 
L 529.567347 226.889556 
L 531.844898 225.140704 
L 534.122449 217.564786 
L 536.4 231.286441 
L 538.677551 224.029996 
L 540.955102 226.961534 
L 543.232653 211.932353 
L 547.787755 191.112753 
L 552.342857 118.081 
L 554.620408 162.828501 
L 556.897959 159.362055 
L 559.17551 160.658072 
L 561.453061 154.822792 
L 563.730612 161.385396 
L 566.008163 175.749416 
L 568.285714 188.003759 
L 570.563265 175.807007 
L 572.840816 204.854047 
L 575.118367 239.373624 
L 577.395918 231.044899 
L 579.673469 206.11925 
L 581.95102 200.700914 
L 584.228571 229.231097 
L 586.506122 226.931642 
L 588.783673 206.540428 
L 591.061224 202.373745 
L 593.338776 218.846283 
L 595.616327 215.921881 
L 597.893878 210.730002 
L 600.171429 220.613442 
L 602.44898 242.256658 
L 604.726531 233.682642 
L 607.004082 223.213638 
L 609.281633 232.168076 
L 611.559184 243.281555 
L 613.836735 250.82043 
L 616.114286 244.266259 
L 618.391837 243.474107 
L 620.669388 245.087886 
L 622.946939 246.867774 
L 625.22449 248.050005 
L 627.502041 253.312479 
L 629.779592 248.836611 
L 632.057143 251.960703 
L 634.334694 253.590345 
L 636.612245 250.792907 
L 638.889796 254.532995 
L 641.167347 255.356748 
L 643.444898 255.503162 
L 645.722449 254.453327 
L 648 253.657936 
L 648 253.657936 
" style="fill:none;stroke:#0000ff;stroke-linecap:square;stroke-opacity:0.05;stroke-width:1.5;"/>
   </g>
   <g id="line2d_12">
    <path clip-path="url(#p7f4db9b488)" d="M 90 250.468897 
L 92.277551 251.488368 
L 94.555102 250.153937 
L 96.832653 245.501692 
L 99.110204 230.620233 
L 101.387755 244.431883 
L 103.665306 228.893608 
L 105.942857 237.507965 
L 108.220408 238.324229 
L 110.497959 235.869896 
L 112.77551 248.04683 
L 115.053061 242.745721 
L 117.330612 246.224938 
L 119.608163 254.540374 
L 121.885714 255.831294 
L 124.163265 256.132925 
L 126.440816 256.187784 
L 128.718367 255.944692 
L 130.995918 256.201438 
L 133.273469 255.56992 
L 135.55102 254.512529 
L 137.828571 245.810218 
L 140.106122 250.384529 
L 142.383673 241.322133 
L 144.661224 235.376784 
L 146.938776 224.968909 
L 149.216327 212.727517 
L 151.493878 215.110562 
L 153.771429 181.565684 
L 156.04898 213.896012 
L 158.326531 187.609205 
L 160.604082 236.31015 
L 162.881633 223.846444 
L 165.159184 233.069532 
L 167.436735 231.462497 
L 169.714286 240.661611 
L 171.991837 248.725155 
L 174.269388 245.548519 
L 176.546939 249.92722 
L 178.82449 241.926652 
L 181.102041 250.721924 
L 183.379592 250.095005 
L 185.657143 252.766135 
L 187.934694 254.532661 
L 190.212245 254.491593 
L 192.489796 254.213931 
L 194.767347 254.348021 
L 197.044898 255.229924 
L 199.322449 254.502454 
L 201.6 253.314467 
L 203.877551 251.154353 
L 206.155102 251.94609 
L 208.432653 248.845256 
L 210.710204 245.29068 
L 212.987755 250.223482 
L 215.265306 234.245024 
L 217.542857 210.536839 
L 219.820408 201.538581 
L 224.37551 230.834184 
L 226.653061 195.507273 
L 228.930612 205.650311 
L 231.208163 192.191131 
L 233.485714 146.647993 
L 235.763265 83.136002 
L 240.318367 215.420281 
L 242.595918 224.419594 
L 244.873469 228.668164 
L 247.15102 237.258466 
L 249.428571 250.246585 
L 251.706122 245.369072 
L 253.983673 252.471122 
L 256.261224 254.462714 
L 258.538776 251.465061 
L 260.816327 245.755554 
L 263.093878 234.186827 
L 265.371429 223.355896 
L 267.64898 215.696569 
L 269.926531 211.25818 
L 272.204082 205.130676 
L 274.481633 217.914727 
L 276.759184 200.673467 
L 279.036735 169.009218 
L 281.314286 220.459897 
L 283.591837 240.452695 
L 285.869388 250.384837 
L 288.146939 249.395504 
L 290.42449 252.52947 
L 292.702041 248.866889 
L 294.979592 249.851646 
L 297.257143 248.402278 
L 299.534694 239.510282 
L 301.812245 248.267931 
L 304.089796 252.717038 
L 306.367347 254.967579 
L 308.644898 255.975798 
L 310.922449 256.106359 
L 313.2 254.342156 
L 315.477551 255.969286 
L 317.755102 255.513012 
L 320.032653 254.881413 
L 322.310204 255.570716 
L 324.587755 251.763452 
L 326.865306 248.991447 
L 329.142857 237.468422 
L 331.420408 210.678912 
L 333.697959 220.399383 
L 335.97551 224.990959 
L 338.253061 217.199478 
L 340.530612 230.635944 
L 342.808163 232.929991 
L 345.085714 236.606014 
L 347.363265 249.602993 
L 349.640816 252.015076 
L 351.918367 255.066389 
L 354.195918 255.933607 
L 356.473469 254.937398 
L 358.75102 255.392864 
L 361.028571 254.870123 
L 363.306122 245.574421 
L 365.583673 242.423104 
L 367.861224 246.612706 
L 370.138776 247.162837 
L 372.416327 246.508184 
L 374.693878 241.13217 
L 376.971429 240.645394 
L 379.24898 244.240538 
L 381.526531 248.389405 
L 383.804082 249.950583 
L 386.081633 254.030079 
L 388.359184 252.708837 
L 392.914286 252.30242 
L 395.191837 247.082458 
L 397.469388 249.56858 
L 399.746939 244.809074 
L 402.02449 244.679125 
L 404.302041 228.99847 
L 408.857143 208.91918 
L 411.134694 217.199373 
L 413.412245 214.299396 
L 415.689796 216.628225 
L 417.967347 223.407483 
L 420.244898 221.397063 
L 422.522449 234.495887 
L 424.8 237.774012 
L 427.077551 247.897452 
L 429.355102 252.416283 
L 431.632653 253.597602 
L 433.910204 255.140626 
L 436.187755 252.801218 
L 438.465306 254.066204 
L 440.742857 254.086483 
L 443.020408 250.514104 
L 445.297959 244.678023 
L 447.57551 243.388629 
L 449.853061 241.449236 
L 452.130612 231.698035 
L 454.408163 229.120384 
L 456.685714 216.321951 
L 458.963265 240.420417 
L 461.240816 238.639213 
L 463.518367 235.286806 
L 465.795918 252.189483 
L 468.073469 254.481348 
L 470.35102 253.123427 
L 472.628571 252.430948 
L 474.906122 254.705996 
L 477.183673 255.300361 
L 479.461224 255.308424 
L 481.738776 254.650075 
L 484.016327 251.196041 
L 486.293878 251.889459 
L 488.571429 246.108249 
L 490.84898 245.277471 
L 493.126531 246.845037 
L 495.404082 253.485758 
L 497.681633 250.604726 
L 499.959184 252.739784 
L 502.236735 253.578227 
L 504.514286 251.742617 
L 506.791837 254.385131 
L 509.069388 253.698989 
L 511.346939 254.776771 
L 513.62449 254.569168 
L 515.902041 253.543264 
L 518.179592 251.127823 
L 520.457143 232.618642 
L 522.734694 236.464164 
L 525.012245 230.740881 
L 527.289796 232.077936 
L 529.567347 189.202359 
L 531.844898 185.510883 
L 534.122449 121.985812 
L 536.4 124.435928 
L 538.677551 127.932949 
L 540.955102 98.354144 
L 543.232653 179.626878 
L 545.510204 82.210466 
L 547.787755 78.162797 
L 550.065306 96.576669 
L 552.342857 140.271441 
L 554.620408 167.612784 
L 556.897959 166.990398 
L 559.17551 203.019301 
L 561.453061 222.830692 
L 563.730612 231.701091 
L 566.008163 232.224919 
L 568.285714 228.291172 
L 570.563265 223.166464 
L 572.840816 213.376015 
L 575.118367 227.946652 
L 577.395918 223.67798 
L 579.673469 226.76386 
L 581.95102 175.485892 
L 584.228571 154.671553 
L 586.506122 152.718136 
L 588.783673 174.406532 
L 591.061224 214.805678 
L 593.338776 236.331931 
L 595.616327 238.829688 
L 597.893878 206.915878 
L 600.171429 221.244181 
L 602.44898 237.531191 
L 604.726531 246.922333 
L 607.004082 247.112136 
L 609.281633 235.39111 
L 611.559184 213.638978 
L 613.836735 198.429717 
L 616.114286 189.865297 
L 618.391837 208.165842 
L 620.669388 245.5956 
L 622.946939 240.64217 
L 625.22449 229.434149 
L 627.502041 228.735641 
L 629.779592 236.407243 
L 632.057143 240.029215 
L 634.334694 248.021546 
L 636.612245 242.072025 
L 638.889796 228.071151 
L 641.167347 217.226592 
L 643.444898 176.817775 
L 645.722449 177.481595 
L 648 179.918098 
L 648 179.918098 
" style="fill:none;stroke:#0000ff;stroke-linecap:square;stroke-opacity:0.05;stroke-width:1.5;"/>
   </g>
   <g id="line2d_13">
    <path clip-path="url(#p7f4db9b488)" d="M 90 197.163875 
L 92.277551 194.637821 
L 94.555102 171.386001 
L 96.832653 182.205721 
L 99.110204 210.32398 
L 101.387755 225.358193 
L 103.665306 222.627673 
L 105.942857 226.718549 
L 108.220408 232.576916 
L 110.497959 244.753115 
L 112.77551 222.156958 
L 115.053061 208.991674 
L 117.330612 206.031933 
L 119.608163 193.568881 
L 121.885714 208.259057 
L 124.163265 200.244854 
L 126.440816 227.089296 
L 128.718367 249.488204 
L 130.995918 254.299739 
L 133.273469 255.127776 
L 135.55102 250.65819 
L 137.828571 253.904346 
L 140.106122 250.412065 
L 142.383673 245.735141 
L 144.661224 242.713544 
L 146.938776 245.040744 
L 149.216327 246.653176 
L 151.493878 246.423383 
L 153.771429 237.101583 
L 156.04898 214.963127 
L 158.326531 236.143148 
L 160.604082 224.448731 
L 162.881633 243.427839 
L 165.159184 245.101792 
L 167.436735 219.701899 
L 169.714286 224.607286 
L 171.991837 198.939797 
L 174.269388 186.344296 
L 176.546939 216.131983 
L 178.82449 230.655927 
L 181.102041 235.555981 
L 183.379592 235.371685 
L 185.657143 228.235659 
L 187.934694 219.949022 
L 190.212245 241.292649 
L 192.489796 246.716062 
L 194.767347 253.884417 
L 197.044898 255.698426 
L 199.322449 255.698426 
L 201.6 256.203758 
L 203.877551 255.931869 
L 206.155102 255.991441 
L 208.432653 254.50534 
L 210.710204 256.048029 
L 212.987755 256.289 
L 215.265306 256.32 
L 217.542857 256.018985 
L 219.820408 256.024183 
L 222.097959 255.22516 
L 226.653061 254.59012 
L 228.930612 253.267917 
L 231.208163 253.240487 
L 233.485714 253.611052 
L 235.763265 250.961279 
L 238.040816 238.233856 
L 242.595918 183.735817 
L 244.873469 188.453936 
L 247.15102 204.472311 
L 249.428571 221.410246 
L 251.706122 222.137976 
L 253.983673 219.143606 
L 256.261224 234.400541 
L 260.816327 243.441536 
L 263.093878 252.496211 
L 265.371429 248.277912 
L 267.64898 246.898419 
L 269.926531 232.23778 
L 272.204082 227.174906 
L 274.481633 224.177706 
L 276.759184 210.329415 
L 279.036735 157.906745 
L 281.314286 118.65451 
L 283.591837 150.499706 
L 285.869388 161.503016 
L 288.146939 169.342989 
L 290.42449 158.879409 
L 292.702041 215.074466 
L 294.979592 182.669081 
L 297.257143 197.708464 
L 299.534694 223.645504 
L 301.812245 210.914231 
L 304.089796 235.21898 
L 306.367347 220.513727 
L 308.644898 240.039322 
L 310.922449 244.895043 
L 313.2 246.728866 
L 315.477551 245.042033 
L 317.755102 249.587744 
L 320.032653 212.853942 
L 322.310204 214.396924 
L 324.587755 239.404217 
L 326.865306 241.473968 
L 329.142857 234.781191 
L 331.420408 231.990662 
L 335.97551 218.24989 
L 338.253061 213.098181 
L 340.530612 219.012717 
L 342.808163 244.170211 
L 345.085714 246.565058 
L 347.363265 245.476976 
L 349.640816 242.610374 
L 351.918367 247.890945 
L 354.195918 239.150661 
L 356.473469 233.677266 
L 358.75102 222.481321 
L 361.028571 222.1846 
L 363.306122 213.208484 
L 365.583673 206.703444 
L 367.861224 191.033645 
L 370.138776 177.312615 
L 372.416327 202.132626 
L 374.693878 209.131385 
L 376.971429 241.252648 
L 379.24898 245.989449 
L 381.526531 238.273477 
L 383.804082 242.595808 
L 386.081633 247.686802 
L 388.359184 238.182783 
L 390.636735 243.299844 
L 392.914286 243.035326 
L 395.191837 237.570012 
L 397.469388 246.217207 
L 399.746939 241.374636 
L 402.02449 242.827037 
L 404.302041 240.391285 
L 406.579592 235.697518 
L 408.857143 240.399092 
L 411.134694 250.6344 
L 413.412245 250.630675 
L 415.689796 251.025679 
L 417.967347 246.466972 
L 420.244898 244.169662 
L 422.522449 242.620004 
L 424.8 241.483019 
L 427.077551 243.805232 
L 429.355102 248.879419 
L 431.632653 248.18634 
L 433.910204 249.070446 
L 436.187755 246.934563 
L 438.465306 241.494557 
L 440.742857 245.254533 
L 443.020408 237.87299 
L 445.297959 237.541995 
L 447.57551 229.14226 
L 449.853061 228.339423 
L 452.130612 231.463595 
L 454.408163 212.745837 
L 456.685714 216.620104 
L 458.963265 227.407589 
L 461.240816 229.791719 
L 463.518367 231.206499 
L 465.795918 233.754035 
L 468.073469 234.787919 
L 470.35102 245.900328 
L 472.628571 249.042721 
L 474.906122 247.577506 
L 477.183673 245.43846 
L 479.461224 243.659857 
L 481.738776 233.517286 
L 484.016327 231.130193 
L 486.293878 236.828079 
L 488.571429 242.066243 
L 490.84898 239.806184 
L 493.126531 216.139761 
L 495.404082 230.562773 
L 497.681633 219.260685 
L 499.959184 242.299233 
L 502.236735 234.350188 
L 504.514286 240.166259 
L 506.791837 228.386358 
L 509.069388 225.925089 
L 511.346939 234.563982 
L 513.62449 236.390289 
L 515.902041 238.66848 
L 518.179592 152.48544 
L 520.457143 148.381569 
L 522.734694 174.148099 
L 525.012245 189.294207 
L 527.289796 154.840172 
L 529.567347 222.207937 
L 531.844898 208.253229 
L 536.4 150.486041 
L 538.677551 140.580911 
L 540.955102 197.641229 
L 543.232653 213.351243 
L 545.510204 192.213509 
L 547.787755 211.296827 
L 550.065306 236.042751 
L 552.342857 222.993122 
L 554.620408 163.318076 
L 556.897959 200.315419 
L 559.17551 205.518635 
L 561.453061 184.431266 
L 563.730612 185.140582 
L 566.008163 164.288251 
L 568.285714 135.823689 
L 570.563265 132.914406 
L 572.840816 103.076501 
L 575.118367 115.317951 
L 577.395918 175.526645 
L 579.673469 161.108323 
L 581.95102 147.445025 
L 584.228571 167.257247 
L 586.506122 180.866934 
L 588.783673 186.067436 
L 591.061224 214.612893 
L 593.338776 220.352208 
L 595.616327 235.029179 
L 597.893878 241.896685 
L 600.171429 239.151528 
L 602.44898 241.182158 
L 604.726531 244.887618 
L 607.004082 235.058738 
L 609.281633 232.731026 
L 611.559184 236.198007 
L 613.836735 234.03153 
L 616.114286 232.589445 
L 618.391837 230.496832 
L 620.669388 203.830665 
L 622.946939 193.198661 
L 625.22449 205.545927 
L 627.502041 222.051367 
L 629.779592 236.402911 
L 632.057143 228.359831 
L 634.334694 221.333399 
L 636.612245 210.128314 
L 638.889796 211.005132 
L 641.167347 207.13776 
L 643.444898 242.372021 
L 645.722449 247.270364 
L 648 234.138715 
L 648 234.138715 
" style="fill:none;stroke:#0000ff;stroke-linecap:square;stroke-opacity:0.05;stroke-width:1.5;"/>
   </g>
   <g id="line2d_14">
    <path clip-path="url(#p7f4db9b488)" d="M 90 178.873159 
L 92.277551 178.764524 
L 94.555102 171.230768 
L 96.832653 135.309052 
L 99.110204 125.156371 
L 101.387755 134.987546 
L 105.942857 64.931512 
L 108.220408 78.806257 
L 110.497959 119.466854 
L 112.77551 192.10687 
L 115.053061 204.418142 
L 117.330612 193.313988 
L 119.608163 226.523066 
L 121.885714 223.405335 
L 124.163265 221.130155 
L 126.440816 237.558719 
L 128.718367 241.876552 
L 130.995918 247.529786 
L 133.273469 252.039264 
L 135.55102 252.340933 
L 137.828571 249.060405 
L 140.106122 249.668933 
L 142.383673 230.601417 
L 144.661224 216.935484 
L 146.938776 228.61687 
L 149.216327 219.141699 
L 151.493878 216.062136 
L 153.771429 205.296014 
L 158.326531 193.618037 
L 160.604082 189.964613 
L 162.881633 191.433286 
L 165.159184 218.336885 
L 167.436735 227.256135 
L 169.714286 221.783599 
L 171.991837 208.995203 
L 174.269388 202.973261 
L 176.546939 203.197115 
L 178.82449 204.214826 
L 181.102041 208.257396 
L 183.379592 218.980327 
L 185.657143 220.951119 
L 187.934694 235.340377 
L 190.212245 227.275929 
L 192.489796 200.304579 
L 197.044898 227.999765 
L 199.322449 234.588761 
L 201.6 228.03412 
L 203.877551 229.234851 
L 206.155102 222.783864 
L 208.432653 221.189411 
L 210.710204 201.074271 
L 212.987755 226.046678 
L 215.265306 237.614671 
L 217.542857 239.363857 
L 219.820408 222.03571 
L 222.097959 217.934665 
L 224.37551 226.020575 
L 226.653061 224.733389 
L 228.930612 228.594864 
L 231.208163 219.718079 
L 233.485714 213.099278 
L 235.763265 211.343961 
L 238.040816 183.677243 
L 240.318367 192.738725 
L 242.595918 211.110016 
L 244.873469 214.770283 
L 247.15102 201.077831 
L 249.428571 186.397825 
L 251.706122 164.937745 
L 253.983673 176.067487 
L 256.261224 209.478187 
L 258.538776 200.267 
L 260.816327 207.438789 
L 263.093878 195.57056 
L 265.371429 195.632024 
L 267.64898 196.484823 
L 269.926531 216.674706 
L 272.204082 225.171214 
L 274.481633 224.843103 
L 276.759184 240.298949 
L 279.036735 232.665178 
L 281.314286 216.733773 
L 283.591837 243.347711 
L 285.869388 240.82773 
L 288.146939 237.507259 
L 290.42449 238.730397 
L 292.702041 205.477803 
L 297.257143 223.162109 
L 299.534694 227.737261 
L 301.812245 227.11012 
L 304.089796 241.252507 
L 306.367347 238.995165 
L 310.922449 190.544417 
L 313.2 190.074022 
L 315.477551 210.410147 
L 317.755102 206.948413 
L 320.032653 221.719834 
L 322.310204 209.82035 
L 324.587755 200.013867 
L 326.865306 182.867614 
L 329.142857 197.276307 
L 331.420408 232.561354 
L 333.697959 244.621533 
L 335.97551 246.690091 
L 338.253061 197.869782 
L 340.530612 196.327875 
L 342.808163 174.339463 
L 345.085714 170.013935 
L 347.363265 172.335737 
L 349.640816 171.143752 
L 351.918367 165.12001 
L 354.195918 140.171765 
L 356.473469 156.542495 
L 358.75102 115.662199 
L 361.028571 218.494714 
L 363.306122 224.6677 
L 365.583673 232.760106 
L 367.861224 240.193707 
L 370.138776 240.311536 
L 372.416327 244.27748 
L 374.693878 244.585855 
L 376.971429 246.504593 
L 379.24898 242.412632 
L 381.526531 251.843413 
L 383.804082 252.878311 
L 386.081633 249.249294 
L 388.359184 244.143032 
L 390.636735 232.098128 
L 392.914286 236.097552 
L 395.191837 233.727933 
L 397.469388 224.497593 
L 399.746939 231.027727 
L 402.02449 232.078301 
L 404.302041 231.83896 
L 406.579592 230.268068 
L 408.857143 233.849042 
L 411.134694 243.062388 
L 413.412245 250.323761 
L 415.689796 250.272431 
L 417.967347 253.475044 
L 420.244898 254.888901 
L 422.522449 252.991932 
L 424.8 253.274363 
L 427.077551 251.327696 
L 429.355102 249.167889 
L 431.632653 252.889377 
L 433.910204 250.894577 
L 436.187755 247.267213 
L 438.465306 250.269316 
L 443.020408 237.547904 
L 445.297959 234.880947 
L 447.57551 237.01128 
L 449.853061 243.122241 
L 452.130612 239.295892 
L 454.408163 228.458537 
L 456.685714 236.640911 
L 458.963265 236.235285 
L 461.240816 222.535061 
L 463.518367 223.500848 
L 465.795918 226.249091 
L 468.073469 204.927507 
L 470.35102 207.93561 
L 472.628571 190.405858 
L 474.906122 205.396235 
L 477.183673 200.895983 
L 479.461224 171.917191 
L 481.738776 182.242755 
L 484.016327 193.716621 
L 486.293878 209.395384 
L 488.571429 192.187826 
L 490.84898 230.432997 
L 493.126531 229.766764 
L 495.404082 238.437861 
L 497.681633 233.029747 
L 499.959184 241.222027 
L 502.236735 248.472575 
L 504.514286 250.06658 
L 506.791837 248.654125 
L 509.069388 247.613189 
L 511.346939 254.148779 
L 513.62449 251.556864 
L 515.902041 246.984315 
L 518.179592 239.216087 
L 520.457143 244.051668 
L 522.734694 236.98367 
L 525.012245 235.664252 
L 527.289796 235.390365 
L 529.567347 240.453675 
L 531.844898 228.822504 
L 534.122449 222.253133 
L 536.4 228.205352 
L 538.677551 241.591822 
L 540.955102 240.733523 
L 543.232653 225.164616 
L 545.510204 238.631948 
L 547.787755 238.169691 
L 550.065306 235.881789 
L 552.342857 238.830736 
L 554.620408 246.991194 
L 556.897959 243.78542 
L 559.17551 244.294615 
L 561.453061 240.179794 
L 563.730612 246.642223 
L 566.008163 248.353924 
L 568.285714 244.670019 
L 570.563265 239.055548 
L 572.840816 242.492263 
L 575.118367 237.737959 
L 577.395918 241.83297 
L 579.673469 230.9699 
L 581.95102 231.237079 
L 584.228571 234.896967 
L 586.506122 222.145983 
L 588.783673 229.461094 
L 591.061224 231.724183 
L 593.338776 231.901231 
L 595.616327 235.334789 
L 597.893878 238.231129 
L 600.171429 230.045695 
L 602.44898 243.008433 
L 604.726531 242.967011 
L 609.281633 248.988495 
L 611.559184 246.492916 
L 613.836735 248.361702 
L 616.114286 251.139303 
L 618.391837 246.02228 
L 620.669388 241.977575 
L 622.946939 238.416131 
L 625.22449 232.24355 
L 627.502041 227.068547 
L 629.779592 230.695109 
L 632.057143 235.205776 
L 634.334694 235.127328 
L 636.612245 221.335313 
L 638.889796 222.224815 
L 641.167347 226.597614 
L 643.444898 240.015986 
L 645.722449 245.282718 
L 648 244.081706 
L 648 244.081706 
" style="fill:none;stroke:#0000ff;stroke-linecap:square;stroke-opacity:0.05;stroke-width:1.5;"/>
   </g>
   <g id="line2d_15">
    <path clip-path="url(#p7f4db9b488)" d="M 90 245.438808 
L 92.277551 249.45245 
L 94.555102 240.595139 
L 96.832653 233.309679 
L 99.110204 199.479335 
L 101.387755 192.195164 
L 103.665306 103.811365 
L 105.942857 34.56 
L 108.220408 107.260507 
L 110.497959 168.662089 
L 112.77551 187.749842 
L 115.053061 191.831299 
L 117.330612 220.908785 
L 119.608163 229.659024 
L 121.885714 245.097336 
L 124.163265 240.852029 
L 128.718367 251.126496 
L 133.273469 237.851151 
L 135.55102 237.625817 
L 137.828571 239.217564 
L 140.106122 235.477106 
L 142.383673 240.271187 
L 144.661224 244.330447 
L 146.938776 234.071721 
L 149.216327 230.772578 
L 151.493878 211.006354 
L 153.771429 222.583947 
L 156.04898 189.48463 
L 158.326531 198.033065 
L 160.604082 205.890632 
L 162.881633 188.502721 
L 165.159184 183.90476 
L 167.436735 151.590823 
L 169.714286 190.798235 
L 171.991837 213.420244 
L 174.269388 222.337306 
L 176.546939 210.65702 
L 178.82449 234.037774 
L 181.102041 235.040751 
L 183.379592 238.741322 
L 185.657143 246.693654 
L 187.934694 247.702747 
L 190.212245 240.030346 
L 192.489796 239.610729 
L 194.767347 237.853953 
L 197.044898 237.748913 
L 199.322449 227.806853 
L 201.6 228.455596 
L 203.877551 218.331943 
L 206.155102 200.42708 
L 208.432653 188.511486 
L 210.710204 188.71679 
L 212.987755 208.926274 
L 215.265306 174.36561 
L 217.542857 103.667607 
L 219.820408 68.479026 
L 222.097959 98.164741 
L 224.37551 101.139368 
L 226.653061 109.181865 
L 228.930612 144.079782 
L 231.208163 176.847443 
L 233.485714 168.741346 
L 235.763265 153.065561 
L 238.040816 171.886184 
L 240.318367 210.843755 
L 242.595918 237.404632 
L 244.873469 238.591497 
L 247.15102 234.158336 
L 249.428571 212.099434 
L 251.706122 202.981651 
L 253.983673 205.674241 
L 256.261224 204.018294 
L 258.538776 218.564053 
L 260.816327 225.714662 
L 263.093878 215.24259 
L 267.64898 211.836674 
L 269.926531 218.799237 
L 272.204082 236.062592 
L 274.481633 237.730663 
L 276.759184 237.11559 
L 279.036735 234.083353 
L 281.314286 228.748739 
L 283.591837 233.486868 
L 285.869388 230.580658 
L 288.146939 218.443925 
L 290.42449 216.861688 
L 292.702041 205.776927 
L 294.979592 195.405159 
L 297.257143 206.662959 
L 299.534694 173.323355 
L 301.812245 188.048588 
L 304.089796 210.977265 
L 306.367347 156.419378 
L 308.644898 170.457608 
L 310.922449 192.692027 
L 313.2 204.999719 
L 315.477551 218.627813 
L 317.755102 226.665613 
L 320.032653 219.454567 
L 322.310204 235.195486 
L 324.587755 238.228644 
L 326.865306 231.88146 
L 329.142857 241.670839 
L 331.420408 245.046167 
L 333.697959 241.623519 
L 335.97551 239.838492 
L 338.253061 233.642497 
L 340.530612 228.498089 
L 342.808163 234.731395 
L 345.085714 236.420138 
L 347.363265 236.690584 
L 349.640816 235.195196 
L 351.918367 241.234423 
L 354.195918 243.576395 
L 356.473469 237.602429 
L 358.75102 237.512478 
L 361.028571 241.666968 
L 363.306122 245.278963 
L 365.583673 247.098252 
L 367.861224 242.142844 
L 370.138776 223.51083 
L 372.416327 226.624967 
L 374.693878 217.329864 
L 376.971429 211.799787 
L 379.24898 233.550491 
L 381.526531 220.181261 
L 383.804082 200.002278 
L 386.081633 180.830459 
L 388.359184 176.57238 
L 390.636735 171.988061 
L 392.914286 216.690803 
L 395.191837 217.027927 
L 397.469388 235.047137 
L 402.02449 232.270375 
L 404.302041 238.632265 
L 406.579592 244.316043 
L 408.857143 248.448494 
L 411.134694 240.017353 
L 413.412245 249.346135 
L 415.689796 252.64427 
L 417.967347 253.650251 
L 420.244898 251.433699 
L 422.522449 252.900025 
L 424.8 250.867378 
L 427.077551 252.357735 
L 429.355102 250.936579 
L 431.632653 252.340003 
L 433.910204 253.962179 
L 438.465306 248.146853 
L 440.742857 249.733851 
L 443.020408 249.737756 
L 445.297959 249.576848 
L 447.57551 248.350305 
L 449.853061 244.18118 
L 452.130612 245.86278 
L 454.408163 234.735225 
L 456.685714 228.66202 
L 458.963265 230.393863 
L 461.240816 226.623501 
L 463.518367 209.421129 
L 465.795918 215.812039 
L 468.073469 105.976184 
L 470.35102 147.440668 
L 472.628571 160.647626 
L 474.906122 138.307448 
L 477.183673 185.076379 
L 479.461224 188.867012 
L 481.738776 206.906023 
L 484.016327 220.5166 
L 486.293878 233.169981 
L 488.571429 230.568506 
L 490.84898 247.763342 
L 493.126531 235.117312 
L 495.404082 242.909757 
L 497.681633 245.119322 
L 499.959184 247.973452 
L 502.236735 249.549149 
L 504.514286 248.036203 
L 506.791837 250.96545 
L 509.069388 249.539485 
L 511.346939 252.350794 
L 513.62449 250.108225 
L 515.902041 250.833583 
L 518.179592 247.886449 
L 520.457143 247.374707 
L 522.734694 238.434464 
L 525.012245 240.770008 
L 527.289796 223.521862 
L 529.567347 216.319182 
L 531.844898 215.147876 
L 534.122449 212.654221 
L 536.4 195.751442 
L 538.677551 206.439826 
L 540.955102 190.796922 
L 543.232653 195.972027 
L 545.510204 206.270609 
L 547.787755 211.334979 
L 550.065306 236.426434 
L 552.342857 238.135957 
L 554.620408 237.169173 
L 556.897959 226.532527 
L 559.17551 232.783693 
L 561.453061 231.748182 
L 563.730612 245.198706 
L 566.008163 250.055149 
L 568.285714 252.047141 
L 570.563265 251.252899 
L 572.840816 252.310969 
L 575.118367 249.394038 
L 577.395918 249.375495 
L 579.673469 251.48237 
L 581.95102 248.079668 
L 584.228571 242.474217 
L 586.506122 231.004824 
L 588.783673 215.468196 
L 591.061224 212.125475 
L 593.338776 219.37331 
L 595.616327 223.483863 
L 597.893878 190.994965 
L 600.171429 190.404621 
L 602.44898 168.94953 
L 604.726531 176.489936 
L 607.004082 182.737367 
L 609.281633 220.696036 
L 611.559184 200.764592 
L 616.114286 154.74369 
L 618.391837 120.887999 
L 620.669388 164.050822 
L 622.946939 152.27811 
L 625.22449 168.784252 
L 627.502041 160.168153 
L 629.779592 143.860145 
L 632.057143 140.23203 
L 636.612245 203.559584 
L 638.889796 209.330234 
L 641.167347 221.084042 
L 643.444898 234.958711 
L 645.722449 227.839578 
L 648 239.873538 
L 648 239.873538 
" style="fill:none;stroke:#0000ff;stroke-linecap:square;stroke-opacity:0.05;stroke-width:1.5;"/>
   </g>
   <g id="line2d_16">
    <path clip-path="url(#p7f4db9b488)" d="M 90 248.902783 
L 92.277551 252.510382 
L 94.555102 247.301922 
L 96.832653 231.688403 
L 99.110204 231.485277 
L 101.387755 233.671969 
L 103.665306 236.335682 
L 105.942857 241.259606 
L 108.220408 250.12979 
L 110.497959 247.512969 
L 112.77551 225.974315 
L 115.053061 215.458626 
L 117.330612 232.214952 
L 119.608163 241.745004 
L 121.885714 239.736489 
L 124.163265 248.401579 
L 126.440816 247.104239 
L 128.718367 250.191481 
L 130.995918 248.353035 
L 133.273469 251.328054 
L 135.55102 254.769928 
L 137.828571 249.078785 
L 140.106122 242.063328 
L 142.383673 241.7794 
L 144.661224 235.848788 
L 146.938776 220.014289 
L 149.216327 227.555403 
L 151.493878 236.327471 
L 153.771429 237.528175 
L 156.04898 236.600241 
L 158.326531 233.764909 
L 160.604082 240.910178 
L 162.881633 249.146887 
L 165.159184 248.142737 
L 167.436735 248.72743 
L 169.714286 253.609801 
L 171.991837 251.294531 
L 174.269388 246.459821 
L 176.546939 239.435698 
L 178.82449 240.754059 
L 181.102041 246.98197 
L 183.379592 247.970655 
L 185.657143 242.668406 
L 187.934694 248.323957 
L 190.212245 235.680103 
L 192.489796 216.922037 
L 194.767347 214.421668 
L 197.044898 215.097077 
L 199.322449 187.986027 
L 201.6 135.693374 
L 203.877551 80.718061 
L 206.155102 110.543398 
L 208.432653 172.75681 
L 210.710204 118.542656 
L 212.987755 209.321481 
L 215.265306 231.162817 
L 217.542857 224.219405 
L 219.820408 215.868777 
L 222.097959 239.973704 
L 224.37551 241.852387 
L 226.653061 237.593114 
L 228.930612 230.927369 
L 231.208163 235.35169 
L 233.485714 237.921096 
L 235.763265 239.803488 
L 238.040816 245.004044 
L 240.318367 238.234548 
L 242.595918 232.803413 
L 244.873469 237.590997 
L 247.15102 229.132755 
L 249.428571 242.960826 
L 251.706122 245.372735 
L 253.983673 236.284399 
L 256.261224 235.40571 
L 258.538776 233.201307 
L 260.816327 219.564692 
L 263.093878 250.386011 
L 265.371429 252.500391 
L 267.64898 246.516814 
L 269.926531 251.59889 
L 272.204082 249.6755 
L 274.481633 228.801088 
L 276.759184 237.978606 
L 279.036735 217.945291 
L 281.314286 184.858988 
L 283.591837 182.591156 
L 285.869388 181.394955 
L 288.146939 202.193012 
L 290.42449 228.927796 
L 292.702041 235.165728 
L 294.979592 232.842935 
L 297.257143 241.886228 
L 299.534694 233.82455 
L 301.812245 244.327093 
L 304.089796 251.369726 
L 306.367347 247.001482 
L 308.644898 244.779194 
L 310.922449 245.1488 
L 313.2 239.903614 
L 315.477551 239.769014 
L 317.755102 245.228577 
L 320.032653 250.301121 
L 322.310204 251.280265 
L 324.587755 252.84695 
L 326.865306 252.315211 
L 329.142857 253.849618 
L 331.420408 253.768453 
L 333.697959 254.518352 
L 335.97551 251.317211 
L 338.253061 249.89138 
L 340.530612 245.36725 
L 342.808163 241.519522 
L 345.085714 236.989549 
L 347.363265 239.872151 
L 349.640816 239.642632 
L 351.918367 241.439971 
L 354.195918 218.389089 
L 356.473469 198.207149 
L 358.75102 224.270663 
L 361.028571 218.035815 
L 363.306122 218.485508 
L 365.583673 212.208899 
L 367.861224 216.831152 
L 370.138776 203.66249 
L 372.416327 217.730312 
L 374.693878 223.474476 
L 376.971429 245.333484 
L 379.24898 252.447381 
L 381.526531 252.913827 
L 386.081633 253.234936 
L 388.359184 253.755679 
L 390.636735 252.694896 
L 392.914286 253.692671 
L 395.191837 252.518182 
L 397.469388 253.718133 
L 399.746939 255.258798 
L 402.02449 253.667531 
L 404.302041 255.354817 
L 406.579592 255.742014 
L 408.857143 255.221576 
L 411.134694 255.522259 
L 413.412245 255.46409 
L 415.689796 255.728956 
L 417.967347 255.399152 
L 420.244898 254.379248 
L 422.522449 253.604617 
L 424.8 254.417466 
L 427.077551 253.484976 
L 429.355102 252.964782 
L 431.632653 254.379047 
L 433.910204 251.054718 
L 436.187755 253.777081 
L 438.465306 249.266439 
L 440.742857 252.969141 
L 443.020408 248.689693 
L 445.297959 250.925686 
L 447.57551 251.997966 
L 449.853061 251.117742 
L 452.130612 249.32372 
L 456.685714 248.574309 
L 458.963265 237.215382 
L 461.240816 250.415123 
L 463.518367 248.282499 
L 465.795918 252.560214 
L 468.073469 246.2578 
L 470.35102 234.914888 
L 472.628571 233.27886 
L 474.906122 216.166417 
L 477.183673 215.659386 
L 479.461224 221.994602 
L 481.738776 229.237234 
L 484.016327 217.094637 
L 486.293878 218.283962 
L 488.571429 218.284265 
L 490.84898 217.974057 
L 493.126531 232.359596 
L 495.404082 237.047931 
L 497.681633 253.287127 
L 499.959184 253.606783 
L 502.236735 249.146405 
L 504.514286 248.337734 
L 506.791837 248.902968 
L 509.069388 245.768866 
L 511.346939 246.906034 
L 513.62449 249.800121 
L 515.902041 249.043877 
L 518.179592 248.447301 
L 520.457143 223.657356 
L 522.734694 235.060555 
L 525.012245 238.565334 
L 527.289796 243.95153 
L 529.567347 247.83572 
L 531.844898 252.365985 
L 534.122449 253.324544 
L 536.4 253.509068 
L 538.677551 253.435153 
L 540.955102 251.478647 
L 543.232653 254.538147 
L 545.510204 255.14865 
L 550.065306 255.614619 
L 552.342857 254.11509 
L 554.620408 255.261997 
L 556.897959 252.901529 
L 559.17551 253.022777 
L 561.453061 253.795519 
L 563.730612 251.649111 
L 568.285714 250.659223 
L 570.563265 253.756031 
L 572.840816 253.927631 
L 575.118367 249.682652 
L 577.395918 251.169749 
L 579.673469 250.211776 
L 581.95102 248.918782 
L 584.228571 235.10167 
L 586.506122 236.240025 
L 588.783673 243.433981 
L 591.061224 238.250118 
L 593.338776 229.7464 
L 595.616327 224.285088 
L 597.893878 238.397095 
L 600.171429 239.246536 
L 602.44898 236.183324 
L 604.726531 229.661643 
L 607.004082 242.56336 
L 609.281633 251.830685 
L 611.559184 249.385024 
L 613.836735 249.069214 
L 616.114286 244.791862 
L 618.391837 250.575358 
L 620.669388 251.917392 
L 622.946939 249.147761 
L 625.22449 249.609145 
L 627.502041 240.750473 
L 629.779592 237.876021 
L 632.057143 225.193496 
L 634.334694 221.952759 
L 636.612245 213.369157 
L 638.889796 224.85212 
L 641.167347 192.329684 
L 643.444898 186.422286 
L 645.722449 182.521161 
L 648 187.123352 
L 648 187.123352 
" style="fill:none;stroke:#0000ff;stroke-linecap:square;stroke-opacity:0.05;stroke-width:1.5;"/>
   </g>
   <g id="line2d_17">
    <path clip-path="url(#p7f4db9b488)" d="M 90 247.606812 
L 92.277551 233.422892 
L 94.555102 239.994107 
L 96.832653 228.875092 
L 99.110204 234.912157 
L 101.387755 216.383678 
L 103.665306 211.538146 
L 105.942857 226.783029 
L 108.220408 216.213275 
L 110.497959 234.720834 
L 112.77551 237.90777 
L 115.053061 245.308099 
L 117.330612 218.647251 
L 119.608163 196.714127 
L 121.885714 191.421629 
L 124.163265 210.207925 
L 126.440816 191.729301 
L 128.718367 178.007955 
L 130.995918 194.991652 
L 133.273469 192.672127 
L 135.55102 208.216418 
L 137.828571 175.397903 
L 140.106122 197.81778 
L 142.383673 210.928534 
L 144.661224 220.280917 
L 146.938776 239.463744 
L 149.216327 243.278814 
L 151.493878 244.968818 
L 153.771429 245.210364 
L 156.04898 238.660671 
L 158.326531 234.799587 
L 160.604082 242.784002 
L 162.881633 239.947818 
L 165.159184 246.109566 
L 167.436735 246.987787 
L 169.714286 248.140687 
L 171.991837 248.867579 
L 174.269388 241.107659 
L 176.546939 245.841876 
L 181.102041 252.076376 
L 183.379592 241.045894 
L 185.657143 239.763954 
L 187.934694 241.088026 
L 190.212245 249.353863 
L 192.489796 243.062267 
L 194.767347 246.231268 
L 197.044898 251.31061 
L 201.6 247.016933 
L 203.877551 244.346398 
L 206.155102 253.957716 
L 208.432653 255.925321 
L 210.710204 255.482467 
L 212.987755 255.472262 
L 215.265306 255.828272 
L 217.542857 254.938952 
L 219.820408 252.921633 
L 222.097959 251.18574 
L 224.37551 244.896416 
L 226.653061 245.91212 
L 231.208163 239.128713 
L 233.485714 239.160129 
L 235.763265 211.132717 
L 238.040816 210.037003 
L 240.318367 218.719745 
L 242.595918 218.594898 
L 244.873469 211.447576 
L 247.15102 212.054169 
L 249.428571 197.69635 
L 251.706122 216.583726 
L 253.983673 210.458377 
L 256.261224 218.173914 
L 258.538776 228.043065 
L 260.816327 235.962468 
L 263.093878 234.638502 
L 265.371429 238.647364 
L 267.64898 251.44141 
L 269.926531 247.00254 
L 272.204082 239.386594 
L 274.481633 240.920025 
L 276.759184 245.901027 
L 279.036735 235.500746 
L 281.314286 228.038588 
L 283.591837 224.257315 
L 285.869388 230.031798 
L 288.146939 226.738109 
L 290.42449 219.511486 
L 292.702041 230.705063 
L 294.979592 238.533186 
L 297.257143 227.405344 
L 299.534694 220.803842 
L 301.812245 228.360295 
L 304.089796 239.85378 
L 306.367347 233.113682 
L 308.644898 217.282694 
L 310.922449 214.688653 
L 313.2 213.741597 
L 315.477551 220.490669 
L 317.755102 209.053819 
L 320.032653 222.79014 
L 322.310204 221.256938 
L 324.587755 225.311282 
L 326.865306 208.251614 
L 329.142857 225.56913 
L 331.420408 230.279362 
L 333.697959 239.498992 
L 335.97551 235.181714 
L 338.253061 227.205985 
L 340.530612 235.933447 
L 342.808163 214.95226 
L 347.363265 224.961581 
L 349.640816 235.877214 
L 351.918367 228.618903 
L 354.195918 233.341831 
L 356.473469 201.027591 
L 358.75102 222.830375 
L 361.028571 233.91721 
L 363.306122 236.590787 
L 365.583673 244.307246 
L 367.861224 244.927789 
L 370.138776 223.841399 
L 372.416327 197.061947 
L 374.693878 201.867829 
L 376.971429 195.93159 
L 379.24898 236.14604 
L 381.526531 231.212576 
L 383.804082 221.705862 
L 386.081633 208.896966 
L 388.359184 184.918859 
L 390.636735 186.500026 
L 392.914286 218.26265 
L 395.191837 244.323381 
L 397.469388 247.178164 
L 399.746939 250.233976 
L 402.02449 250.930425 
L 404.302041 246.394892 
L 406.579592 247.976374 
L 408.857143 250.751425 
L 411.134694 250.204159 
L 413.412245 249.377726 
L 415.689796 249.741941 
L 417.967347 248.610611 
L 420.244898 239.439212 
L 422.522449 241.162365 
L 424.8 236.617962 
L 427.077551 241.866326 
L 429.355102 243.331982 
L 431.632653 245.08093 
L 433.910204 253.984413 
L 436.187755 253.47825 
L 438.465306 253.998397 
L 440.742857 254.258832 
L 443.020408 254.728577 
L 445.297959 252.053049 
L 447.57551 241.462971 
L 449.853061 246.256264 
L 452.130612 239.555168 
L 454.408163 229.771486 
L 456.685714 217.952929 
L 458.963265 224.870169 
L 461.240816 193.801057 
L 463.518367 174.89218 
L 465.795918 131.812216 
L 468.073469 173.452207 
L 470.35102 229.753987 
L 472.628571 204.373095 
L 474.906122 234.931201 
L 477.183673 230.601083 
L 479.461224 233.263344 
L 481.738776 230.78057 
L 484.016327 236.803566 
L 486.293878 245.39491 
L 488.571429 252.243713 
L 490.84898 253.698505 
L 493.126531 248.115622 
L 495.404082 253.310136 
L 497.681633 252.766285 
L 499.959184 254.073403 
L 502.236735 252.977665 
L 504.514286 252.538498 
L 506.791837 253.03422 
L 509.069388 252.846627 
L 511.346939 254.887433 
L 513.62449 253.893435 
L 515.902041 255.490472 
L 518.179592 255.98705 
L 520.457143 255.743771 
L 522.734694 255.715606 
L 525.012245 255.994666 
L 527.289796 256.029827 
L 529.567347 255.659764 
L 531.844898 255.710379 
L 534.122449 254.997425 
L 536.4 255.355776 
L 538.677551 253.663401 
L 540.955102 252.449058 
L 543.232653 253.872363 
L 545.510204 253.520255 
L 547.787755 251.484553 
L 550.065306 248.968771 
L 552.342857 253.593433 
L 554.620408 253.84509 
L 556.897959 252.587772 
L 559.17551 252.880489 
L 561.453061 251.532134 
L 563.730612 253.073066 
L 566.008163 246.7459 
L 568.285714 250.337705 
L 570.563265 250.532141 
L 572.840816 251.52687 
L 575.118367 245.645583 
L 577.395918 234.860322 
L 579.673469 242.234297 
L 581.95102 236.955677 
L 584.228571 240.194631 
L 586.506122 240.819156 
L 588.783673 251.589766 
L 591.061224 244.294716 
L 593.338776 239.202993 
L 595.616327 240.139634 
L 597.893878 236.146525 
L 600.171429 242.956456 
L 602.44898 205.70699 
L 604.726531 209.786952 
L 607.004082 218.742041 
L 609.281633 208.639921 
L 611.559184 192.223555 
L 616.114286 186.411717 
L 618.391837 172.677862 
L 620.669388 175.953354 
L 622.946939 175.293394 
L 625.22449 243.304181 
L 627.502041 243.21344 
L 629.779592 231.270703 
L 632.057143 246.431416 
L 634.334694 253.189183 
L 636.612245 243.432311 
L 638.889796 244.719875 
L 641.167347 236.1175 
L 643.444898 232.794673 
L 645.722449 220.50669 
L 648 219.002971 
L 648 219.002971 
" style="fill:none;stroke:#0000ff;stroke-linecap:square;stroke-opacity:0.05;stroke-width:1.5;"/>
   </g>
   <g id="line2d_18">
    <path clip-path="url(#p7f4db9b488)" d="M 90 197.954186 
L 92.277551 211.467214 
L 94.555102 236.697578 
L 96.832653 245.401126 
L 99.110204 245.328387 
L 101.387755 243.608691 
L 103.665306 251.426675 
L 105.942857 255.14362 
L 110.497959 251.628381 
L 112.77551 250.945962 
L 115.053061 249.374299 
L 117.330612 230.877604 
L 119.608163 218.920466 
L 121.885714 199.686375 
L 124.163265 215.903563 
L 126.440816 179.410117 
L 128.718367 191.770094 
L 130.995918 215.232355 
L 133.273469 198.285303 
L 135.55102 231.356321 
L 137.828571 240.517037 
L 140.106122 244.910593 
L 142.383673 244.028787 
L 144.661224 249.403756 
L 146.938776 248.618383 
L 149.216327 246.731919 
L 151.493878 247.22842 
L 153.771429 243.514092 
L 156.04898 247.687009 
L 158.326531 242.627721 
L 160.604082 234.297265 
L 162.881633 233.758919 
L 165.159184 251.134343 
L 167.436735 252.199533 
L 169.714286 253.482312 
L 171.991837 251.778327 
L 174.269388 225.217704 
L 176.546939 209.358733 
L 178.82449 198.762736 
L 181.102041 205.501077 
L 183.379592 215.731248 
L 185.657143 227.314961 
L 187.934694 226.785684 
L 190.212245 235.351651 
L 192.489796 246.702104 
L 194.767347 245.593672 
L 197.044898 252.103804 
L 199.322449 252.783091 
L 201.6 250.34688 
L 203.877551 253.113347 
L 208.432653 252.016771 
L 210.710204 252.93449 
L 212.987755 249.238714 
L 215.265306 242.089816 
L 217.542857 239.63966 
L 219.820408 248.040127 
L 222.097959 254.579193 
L 224.37551 251.728805 
L 226.653061 243.70916 
L 228.930612 214.362 
L 231.208163 218.991745 
L 233.485714 220.2154 
L 235.763265 227.997411 
L 238.040816 223.101868 
L 240.318367 231.615289 
L 242.595918 216.422954 
L 244.873469 212.723268 
L 247.15102 217.173722 
L 249.428571 226.452252 
L 251.706122 243.467496 
L 253.983673 244.614228 
L 256.261224 242.495994 
L 258.538776 246.775191 
L 260.816327 252.813276 
L 263.093878 253.135628 
L 265.371429 251.446867 
L 267.64898 252.640793 
L 269.926531 254.438231 
L 272.204082 253.613183 
L 276.759184 254.860478 
L 279.036735 255.914362 
L 281.314286 254.463109 
L 283.591837 252.423619 
L 285.869388 252.24625 
L 288.146939 254.74576 
L 290.42449 252.649955 
L 292.702041 249.336361 
L 294.979592 246.278188 
L 297.257143 229.829244 
L 299.534694 228.689723 
L 301.812245 226.519132 
L 304.089796 242.788425 
L 306.367347 248.702475 
L 308.644898 253.028921 
L 310.922449 251.032712 
L 313.2 253.699782 
L 315.477551 253.461208 
L 317.755102 255.302985 
L 320.032653 256.197208 
L 322.310204 256.12267 
L 326.865306 256.171858 
L 329.142857 255.99993 
L 331.420408 250.993314 
L 333.697959 254.87811 
L 335.97551 252.464677 
L 338.253061 253.712228 
L 340.530612 249.795887 
L 342.808163 247.072534 
L 345.085714 245.568428 
L 347.363265 242.979061 
L 349.640816 234.196191 
L 351.918367 211.149122 
L 354.195918 184.599015 
L 356.473469 206.944098 
L 358.75102 221.957712 
L 361.028571 224.629495 
L 363.306122 233.878886 
L 365.583673 232.531881 
L 367.861224 210.827358 
L 370.138776 190.53444 
L 372.416327 190.713339 
L 374.693878 215.581206 
L 376.971429 236.520169 
L 379.24898 244.547228 
L 381.526531 247.366832 
L 386.081633 245.897315 
L 388.359184 245.523488 
L 390.636735 244.26427 
L 392.914286 232.851442 
L 395.191837 233.915852 
L 397.469388 224.015011 
L 399.746939 213.289462 
L 402.02449 206.967837 
L 404.302041 206.962873 
L 406.579592 194.903159 
L 408.857143 167.475937 
L 411.134694 162.314811 
L 413.412245 194.700828 
L 415.689796 218.8771 
L 417.967347 198.458049 
L 420.244898 213.494968 
L 422.522449 227.467424 
L 424.8 217.79215 
L 427.077551 230.443457 
L 429.355102 231.194973 
L 431.632653 225.314511 
L 433.910204 225.120464 
L 436.187755 212.82924 
L 438.465306 209.827921 
L 440.742857 227.570603 
L 443.020408 218.96762 
L 445.297959 200.309376 
L 447.57551 225.504639 
L 449.853061 207.856781 
L 452.130612 234.992902 
L 454.408163 239.751307 
L 456.685714 245.297473 
L 458.963265 248.060545 
L 461.240816 252.751152 
L 463.518367 249.552252 
L 465.795918 249.554663 
L 468.073469 251.89807 
L 470.35102 252.560187 
L 472.628571 249.571228 
L 474.906122 243.394372 
L 477.183673 245.284772 
L 479.461224 212.586265 
L 484.016327 155.958054 
L 486.293878 132.977057 
L 488.571429 157.698804 
L 490.84898 148.366425 
L 493.126531 163.291572 
L 495.404082 206.788925 
L 497.681633 219.959042 
L 499.959184 212.666526 
L 502.236735 249.492452 
L 504.514286 253.325928 
L 506.791837 253.770824 
L 509.069388 253.953648 
L 511.346939 254.417477 
L 513.62449 253.228517 
L 515.902041 253.500382 
L 518.179592 245.118848 
L 520.457143 243.676477 
L 522.734694 237.182047 
L 525.012245 238.011919 
L 527.289796 231.367747 
L 529.567347 220.313376 
L 531.844898 219.790059 
L 534.122449 208.876143 
L 536.4 207.852254 
L 538.677551 205.728921 
L 540.955102 231.648943 
L 543.232653 232.681758 
L 545.510204 240.173334 
L 547.787755 240.682318 
L 550.065306 241.44088 
L 552.342857 243.419873 
L 554.620408 238.784906 
L 556.897959 246.090249 
L 559.17551 249.745542 
L 561.453061 243.853975 
L 563.730612 234.813183 
L 566.008163 234.548444 
L 568.285714 228.086106 
L 570.563265 211.999176 
L 572.840816 208.12853 
L 575.118367 218.153265 
L 577.395918 221.674535 
L 579.673469 220.78054 
L 581.95102 217.27433 
L 584.228571 241.361053 
L 586.506122 250.560612 
L 588.783673 247.612472 
L 591.061224 248.951655 
L 593.338776 247.483658 
L 595.616327 250.589208 
L 597.893878 252.676347 
L 600.171429 252.524715 
L 602.44898 243.457511 
L 604.726531 243.2971 
L 607.004082 239.147822 
L 609.281633 247.607201 
L 611.559184 251.342112 
L 613.836735 249.080469 
L 616.114286 251.122052 
L 618.391837 247.582353 
L 620.669388 244.874339 
L 622.946939 249.248248 
L 625.22449 249.599559 
L 627.502041 245.363828 
L 629.779592 223.722596 
L 632.057143 206.968716 
L 634.334694 182.695151 
L 636.612245 185.655556 
L 638.889796 181.280278 
L 641.167347 175.287696 
L 643.444898 198.027685 
L 645.722449 213.274686 
L 648 222.472312 
L 648 222.472312 
" style="fill:none;stroke:#0000ff;stroke-linecap:square;stroke-opacity:0.05;stroke-width:1.5;"/>
   </g>
   <g id="line2d_19">
    <path clip-path="url(#p7f4db9b488)" d="M 90 167.854949 
L 92.277551 153.082311 
L 94.555102 173.924422 
L 96.832653 205.673425 
L 99.110204 206.60691 
L 101.387755 233.997655 
L 103.665306 234.749605 
L 105.942857 215.287876 
L 110.497959 199.182538 
L 112.77551 232.471876 
L 115.053061 236.336673 
L 117.330612 238.921323 
L 119.608163 235.762667 
L 121.885714 226.521257 
L 124.163265 229.370931 
L 126.440816 231.36314 
L 128.718367 231.765207 
L 130.995918 236.122106 
L 133.273469 239.831814 
L 135.55102 234.703704 
L 137.828571 234.752773 
L 140.106122 234.487069 
L 142.383673 236.575292 
L 144.661224 243.875674 
L 146.938776 244.799094 
L 149.216327 243.021735 
L 151.493878 247.324944 
L 153.771429 250.167497 
L 156.04898 239.226635 
L 158.326531 238.930258 
L 160.604082 231.451119 
L 162.881633 185.806501 
L 165.159184 170.805335 
L 167.436735 119.243668 
L 169.714286 122.044071 
L 171.991837 139.511604 
L 174.269388 165.880436 
L 176.546939 180.445174 
L 178.82449 205.41394 
L 181.102041 218.396667 
L 183.379592 216.77839 
L 185.657143 225.031485 
L 187.934694 216.694186 
L 190.212245 244.186638 
L 192.489796 231.962213 
L 194.767347 228.869005 
L 197.044898 206.068836 
L 199.322449 204.160143 
L 201.6 165.629971 
L 203.877551 146.719399 
L 206.155102 157.499638 
L 208.432653 195.612476 
L 210.710204 194.599294 
L 212.987755 189.738465 
L 215.265306 223.615236 
L 217.542857 223.107068 
L 219.820408 243.986122 
L 222.097959 243.459109 
L 224.37551 247.164265 
L 226.653061 242.472623 
L 228.930612 239.331379 
L 231.208163 227.115611 
L 233.485714 223.740511 
L 235.763265 185.178628 
L 238.040816 180.542614 
L 240.318367 174.241744 
L 242.595918 183.443399 
L 244.873469 197.325277 
L 247.15102 216.650887 
L 249.428571 223.481953 
L 251.706122 205.414661 
L 253.983673 215.07723 
L 256.261224 223.030975 
L 258.538776 241.256092 
L 260.816327 227.910502 
L 263.093878 217.981622 
L 265.371429 214.074151 
L 267.64898 217.665483 
L 269.926531 210.158922 
L 272.204082 218.947416 
L 274.481633 230.216515 
L 276.759184 228.125719 
L 279.036735 224.227404 
L 281.314286 226.981386 
L 283.591837 206.25344 
L 285.869388 214.766809 
L 288.146939 217.819588 
L 290.42449 210.147037 
L 292.702041 216.207991 
L 294.979592 211.044414 
L 297.257143 221.862658 
L 299.534694 229.416768 
L 301.812245 229.037202 
L 304.089796 231.688457 
L 306.367347 240.70379 
L 308.644898 241.578492 
L 310.922449 241.764375 
L 313.2 236.176163 
L 315.477551 225.549435 
L 317.755102 225.218084 
L 320.032653 231.873024 
L 322.310204 228.495096 
L 324.587755 228.105387 
L 326.865306 225.866772 
L 329.142857 231.127712 
L 331.420408 224.172614 
L 333.697959 220.925461 
L 335.97551 229.735016 
L 338.253061 234.139877 
L 340.530612 243.709267 
L 342.808163 245.074737 
L 345.085714 236.375148 
L 347.363265 240.398309 
L 349.640816 234.7549 
L 351.918367 242.552465 
L 354.195918 246.697379 
L 356.473469 249.704379 
L 358.75102 241.855244 
L 361.028571 246.192327 
L 363.306122 246.508644 
L 365.583673 248.515738 
L 367.861224 250.773417 
L 370.138776 244.276904 
L 372.416327 219.843153 
L 374.693878 190.978916 
L 376.971429 197.412718 
L 379.24898 198.718664 
L 381.526531 211.996174 
L 383.804082 186.966569 
L 386.081633 172.632756 
L 388.359184 167.226767 
L 390.636735 140.955744 
L 392.914286 174.923359 
L 395.191837 228.448958 
L 397.469388 240.690801 
L 399.746939 217.838412 
L 402.02449 232.79087 
L 404.302041 228.105549 
L 406.579592 232.299445 
L 408.857143 230.426238 
L 411.134694 229.937419 
L 413.412245 245.202282 
L 415.689796 242.933433 
L 417.967347 246.906529 
L 420.244898 249.53409 
L 422.522449 254.283528 
L 424.8 250.903148 
L 427.077551 249.044036 
L 429.355102 248.983211 
L 431.632653 241.600578 
L 436.187755 221.770263 
L 438.465306 213.468227 
L 440.742857 206.353955 
L 443.020408 201.076522 
L 445.297959 192.766534 
L 447.57551 204.69853 
L 449.853061 209.854081 
L 452.130612 208.870451 
L 454.408163 227.006006 
L 456.685714 240.617035 
L 458.963265 225.104661 
L 461.240816 231.929959 
L 463.518367 241.011324 
L 465.795918 241.666124 
L 468.073469 245.301353 
L 470.35102 244.211896 
L 472.628571 245.365764 
L 474.906122 237.114113 
L 477.183673 241.350327 
L 479.461224 223.642008 
L 481.738776 245.455854 
L 484.016327 243.17343 
L 486.293878 213.403879 
L 488.571429 198.082079 
L 490.84898 191.212644 
L 493.126531 204.03713 
L 495.404082 159.741182 
L 497.681633 195.368912 
L 499.959184 177.593564 
L 502.236735 184.989428 
L 504.514286 150.037719 
L 506.791837 158.427714 
L 509.069388 201.928511 
L 511.346939 214.865672 
L 513.62449 216.320258 
L 515.902041 216.014086 
L 518.179592 236.00502 
L 520.457143 237.184433 
L 522.734694 235.036444 
L 525.012245 235.162003 
L 527.289796 237.776088 
L 529.567347 235.193057 
L 531.844898 236.459133 
L 534.122449 229.475853 
L 536.4 230.588866 
L 538.677551 216.066768 
L 540.955102 224.777874 
L 543.232653 227.852357 
L 545.510204 239.210218 
L 547.787755 241.685321 
L 550.065306 242.030051 
L 552.342857 249.199692 
L 554.620408 250.414384 
L 556.897959 249.70514 
L 559.17551 242.921662 
L 561.453061 250.181217 
L 563.730612 249.685593 
L 566.008163 244.493231 
L 568.285714 238.246138 
L 570.563265 246.209999 
L 572.840816 249.361133 
L 575.118367 247.594245 
L 577.395918 249.113112 
L 579.673469 249.78105 
L 581.95102 254.684824 
L 584.228571 254.380911 
L 586.506122 254.703528 
L 588.783673 255.579017 
L 591.061224 255.646509 
L 593.338776 254.91216 
L 595.616327 254.939299 
L 597.893878 254.680289 
L 600.171429 253.378322 
L 602.44898 252.7083 
L 604.726531 251.284924 
L 607.004082 253.408976 
L 609.281633 254.907145 
L 611.559184 253.33907 
L 613.836735 249.358552 
L 616.114286 251.135868 
L 618.391837 253.476722 
L 620.669388 250.999863 
L 622.946939 249.961725 
L 625.22449 252.375941 
L 627.502041 254.054568 
L 629.779592 253.591212 
L 632.057143 251.689418 
L 634.334694 250.565261 
L 636.612245 251.545241 
L 638.889796 243.62133 
L 641.167347 231.377351 
L 643.444898 247.330959 
L 645.722449 248.892122 
L 648 247.963769 
L 648 247.963769 
" style="fill:none;stroke:#0000ff;stroke-linecap:square;stroke-opacity:0.05;stroke-width:1.5;"/>
   </g>
   <g id="line2d_20">
    <path clip-path="url(#p7f4db9b488)" d="M 90 219.23005 
L 92.277551 219.014013 
L 94.555102 221.218335 
L 96.832653 220.412909 
L 99.110204 217.318343 
L 101.387755 222.128211 
L 103.665306 209.179803 
L 105.942857 200.328532 
L 108.220408 208.208827 
L 110.497959 220.238264 
L 112.77551 229.766834 
L 115.053061 229.660254 
L 117.330612 228.713788 
L 119.608163 230.25769 
L 121.885714 229.574447 
L 124.163265 233.007457 
L 126.440816 231.877239 
L 128.718367 235.219724 
L 130.995918 239.378809 
L 133.273469 238.081807 
L 135.55102 241.254509 
L 137.828571 234.686461 
L 140.106122 236.713478 
L 142.383673 234.730998 
L 144.661224 234.07682 
L 146.938776 233.773114 
L 149.216327 234.231557 
L 151.493878 234.192606 
L 153.771429 231.104882 
L 156.04898 226.819396 
L 158.326531 226.057627 
L 160.604082 229.914104 
L 162.881633 223.295572 
L 165.159184 227.424406 
L 167.436735 217.321171 
L 169.714286 224.099001 
L 171.991837 223.97042 
L 174.269388 219.245798 
L 176.546939 220.241547 
L 178.82449 223.527986 
L 181.102041 227.739158 
L 183.379592 228.246602 
L 185.657143 229.301937 
L 187.934694 231.2493 
L 190.212245 230.949965 
L 192.489796 222.401154 
L 194.767347 225.709379 
L 197.044898 227.640579 
L 199.322449 224.514307 
L 201.6 215.454984 
L 203.877551 209.229193 
L 206.155102 214.525531 
L 208.432653 224.523561 
L 210.710204 219.413357 
L 212.987755 233.736743 
L 215.265306 234.507193 
L 217.542857 224.549516 
L 219.820408 220.836011 
L 222.097959 228.425763 
L 224.37551 229.864422 
L 226.653061 223.262343 
L 228.930612 221.589161 
L 231.208163 220.962146 
L 233.485714 212.625641 
L 235.763265 190.798849 
L 238.040816 201.88864 
L 240.318367 211.602464 
L 242.595918 213.329606 
L 244.873469 214.85557 
L 247.15102 219.877564 
L 249.428571 224.201662 
L 251.706122 222.261084 
L 253.983673 225.574578 
L 256.261224 231.092316 
L 258.538776 236.108485 
L 260.816327 235.826076 
L 263.093878 235.022301 
L 265.371429 233.089973 
L 267.64898 232.921528 
L 269.926531 233.314923 
L 272.204082 234.767132 
L 274.481633 234.450376 
L 276.759184 233.07277 
L 279.036735 219.713417 
L 281.314286 214.924379 
L 283.591837 220.636587 
L 285.869388 224.890404 
L 288.146939 225.76411 
L 290.42449 225.838739 
L 292.702041 228.325348 
L 294.979592 221.921576 
L 297.257143 223.548798 
L 299.534694 221.558655 
L 301.812245 219.78351 
L 304.089796 235.113974 
L 306.367347 223.955135 
L 308.644898 223.142435 
L 310.922449 223.516907 
L 313.2 226.174568 
L 315.477551 229.01161 
L 317.755102 234.504421 
L 320.032653 235.766797 
L 322.310204 236.155828 
L 324.587755 238.573479 
L 326.865306 233.335455 
L 329.142857 237.318395 
L 331.420408 236.422664 
L 333.697959 238.188293 
L 335.97551 238.529256 
L 338.253061 229.725287 
L 340.530612 231.029148 
L 342.808163 225.714909 
L 345.085714 226.65633 
L 347.363265 231.948912 
L 349.640816 231.795193 
L 351.918367 232.185048 
L 354.195918 226.041614 
L 356.473469 224.27936 
L 358.75102 222.986984 
L 361.028571 236.362482 
L 363.306122 235.688743 
L 365.583673 236.228978 
L 367.861224 233.423575 
L 370.138776 224.209919 
L 372.416327 222.634199 
L 374.693878 217.774417 
L 376.971429 222.591243 
L 379.24898 230.967423 
L 381.526531 233.917812 
L 383.804082 225.265988 
L 386.081633 218.208046 
L 388.359184 215.469532 
L 390.636735 207.397548 
L 392.914286 218.878508 
L 395.191837 230.938115 
L 397.469388 236.887969 
L 399.746939 233.823947 
L 402.02449 236.62387 
L 404.302041 234.863503 
L 406.579592 233.438256 
L 408.857143 231.070752 
L 411.134694 231.826314 
L 413.412245 240.194362 
L 415.689796 242.466145 
L 417.967347 238.866183 
L 420.244898 235.900534 
L 422.522449 238.511894 
L 424.8 236.790875 
L 427.077551 240.945866 
L 429.355102 240.764784 
L 431.632653 237.668377 
L 433.910204 236.608092 
L 436.187755 238.913069 
L 438.465306 237.040966 
L 440.742857 237.844951 
L 443.020408 235.035239 
L 445.297959 230.427752 
L 447.57551 234.30842 
L 449.853061 233.5819 
L 452.130612 235.030051 
L 454.408163 231.204056 
L 456.685714 231.376838 
L 458.963265 233.045007 
L 461.240816 228.287055 
L 463.518367 225.22233 
L 465.795918 227.339678 
L 468.073469 218.791671 
L 470.35102 229.766204 
L 472.628571 227.164205 
L 474.906122 224.283486 
L 477.183673 230.074484 
L 479.461224 221.483301 
L 481.738776 224.773504 
L 484.016327 223.633041 
L 486.293878 221.947707 
L 488.571429 219.811938 
L 490.84898 223.993649 
L 493.126531 224.633171 
L 495.404082 229.125819 
L 497.681633 234.729081 
L 499.959184 235.541474 
L 502.236735 237.659123 
L 504.514286 234.431454 
L 506.791837 234.955068 
L 509.069388 238.592995 
L 511.346939 243.548518 
L 513.62449 243.506543 
L 515.902041 240.422827 
L 518.179592 232.915636 
L 520.457143 230.62884 
L 522.734694 231.639826 
L 525.012245 232.343613 
L 527.289796 225.415974 
L 529.567347 226.568906 
L 531.844898 221.766694 
L 534.122449 212.773232 
L 536.4 208.752562 
L 538.677551 208.049759 
L 540.955102 210.211286 
L 543.232653 218.648117 
L 545.510204 209.938352 
L 550.065306 214.535786 
L 552.342857 218.265211 
L 554.620408 220.533785 
L 556.897959 221.197112 
L 559.17551 228.386912 
L 561.453061 227.796556 
L 563.730612 230.921751 
L 566.008163 229.480922 
L 568.285714 225.674931 
L 570.563265 222.821935 
L 572.840816 222.538233 
L 577.395918 231.149401 
L 579.673469 227.805088 
L 581.95102 219.217755 
L 584.228571 222.648891 
L 586.506122 222.379261 
L 588.783673 223.453655 
L 591.061224 228.566528 
L 593.338776 233.345456 
L 595.616327 236.542838 
L 597.893878 231.728248 
L 600.171429 233.033669 
L 602.44898 231.538269 
L 604.726531 232.342811 
L 607.004082 231.508996 
L 609.281633 235.583934 
L 611.559184 231.677378 
L 613.836735 228.047098 
L 616.114286 223.135204 
L 618.391837 219.40387 
L 620.669388 223.601975 
L 622.946939 222.772141 
L 625.22449 230.555318 
L 627.502041 228.962168 
L 632.057143 227.179054 
L 634.334694 226.842939 
L 636.612245 224.91048 
L 638.889796 224.600655 
L 641.167347 219.466239 
L 643.444898 225.59975 
L 645.722449 224.201167 
L 648 225.87361 
L 648 225.87361 
" style="fill:none;stroke:#0000ff;stroke-linecap:square;stroke-width:1.5;"/>
   </g>
   <g id="patch_3">
    <path d="M 90 256.32 
L 90 34.56 
" style="fill:none;stroke:#000000;stroke-linecap:square;stroke-linejoin:miter;stroke-width:0.8;"/>
   </g>
   <g id="patch_4">
    <path d="M 648 256.32 
L 648 34.56 
" style="fill:none;stroke:#000000;stroke-linecap:square;stroke-linejoin:miter;stroke-width:0.8;"/>
   </g>
   <g id="patch_5">
    <path d="M 90 256.32 
L 648 256.32 
" style="fill:none;stroke:#000000;stroke-linecap:square;stroke-linejoin:miter;stroke-width:0.8;"/>
   </g>
   <g id="patch_6">
    <path d="M 90 34.56 
L 648 34.56 
" style="fill:none;stroke:#000000;stroke-linecap:square;stroke-linejoin:miter;stroke-width:0.8;"/>
   </g>
   <g id="text_11">
    <!-- Thalamus, Num Trials=10 All unstimulated trials -->
    <defs>
     <path d="M 54.890625 33.015625 
L 54.890625 0 
L 45.90625 0 
L 45.90625 32.71875 
Q 45.90625 40.484375 42.875 44.328125 
Q 39.84375 48.1875 33.796875 48.1875 
Q 26.515625 48.1875 22.3125 43.546875 
Q 18.109375 38.921875 18.109375 30.90625 
L 18.109375 0 
L 9.078125 0 
L 9.078125 75.984375 
L 18.109375 75.984375 
L 18.109375 46.1875 
Q 21.34375 51.125 25.703125 53.5625 
Q 30.078125 56 35.796875 56 
Q 45.21875 56 50.046875 50.171875 
Q 54.890625 44.34375 54.890625 33.015625 
z
" id="DejaVuSans-104"/>
     <path d="M 34.28125 27.484375 
Q 23.390625 27.484375 19.1875 25 
Q 14.984375 22.515625 14.984375 16.5 
Q 14.984375 11.71875 18.140625 8.90625 
Q 21.296875 6.109375 26.703125 6.109375 
Q 34.1875 6.109375 38.703125 11.40625 
Q 43.21875 16.703125 43.21875 25.484375 
L 43.21875 27.484375 
z
M 52.203125 31.203125 
L 52.203125 0 
L 43.21875 0 
L 43.21875 8.296875 
Q 40.140625 3.328125 35.546875 0.953125 
Q 30.953125 -1.421875 24.3125 -1.421875 
Q 15.921875 -1.421875 10.953125 3.296875 
Q 6 8.015625 6 15.921875 
Q 6 25.140625 12.171875 29.828125 
Q 18.359375 34.515625 30.609375 34.515625 
L 43.21875 34.515625 
L 43.21875 35.40625 
Q 43.21875 41.609375 39.140625 45 
Q 35.0625 48.390625 27.6875 48.390625 
Q 23 48.390625 18.546875 47.265625 
Q 14.109375 46.140625 10.015625 43.890625 
L 10.015625 52.203125 
Q 14.9375 54.109375 19.578125 55.046875 
Q 24.21875 56 28.609375 56 
Q 40.484375 56 46.34375 49.84375 
Q 52.203125 43.703125 52.203125 31.203125 
z
" id="DejaVuSans-97"/>
     <path d="M 9.421875 75.984375 
L 18.40625 75.984375 
L 18.40625 0 
L 9.421875 0 
z
" id="DejaVuSans-108"/>
     <path d="M 8.5 21.578125 
L 8.5 54.6875 
L 17.484375 54.6875 
L 17.484375 21.921875 
Q 17.484375 14.15625 20.5 10.265625 
Q 23.53125 6.390625 29.59375 6.390625 
Q 36.859375 6.390625 41.078125 11.03125 
Q 45.3125 15.671875 45.3125 23.6875 
L 45.3125 54.6875 
L 54.296875 54.6875 
L 54.296875 0 
L 45.3125 0 
L 45.3125 8.40625 
Q 42.046875 3.421875 37.71875 1 
Q 33.40625 -1.421875 27.6875 -1.421875 
Q 18.265625 -1.421875 13.375 4.4375 
Q 8.5 10.296875 8.5 21.578125 
z
M 31.109375 56 
z
" id="DejaVuSans-117"/>
     <path d="M 11.71875 12.40625 
L 22.015625 12.40625 
L 22.015625 4 
L 14.015625 -11.625 
L 7.71875 -11.625 
L 11.71875 4 
z
" id="DejaVuSans-44"/>
     <path d="M 9.8125 72.90625 
L 23.09375 72.90625 
L 55.421875 11.921875 
L 55.421875 72.90625 
L 64.984375 72.90625 
L 64.984375 0 
L 51.703125 0 
L 19.390625 60.984375 
L 19.390625 0 
L 9.8125 0 
z
" id="DejaVuSans-78"/>
     <path d="M 41.109375 46.296875 
Q 39.59375 47.171875 37.8125 47.578125 
Q 36.03125 48 33.890625 48 
Q 26.265625 48 22.1875 43.046875 
Q 18.109375 38.09375 18.109375 28.8125 
L 18.109375 0 
L 9.078125 0 
L 9.078125 54.6875 
L 18.109375 54.6875 
L 18.109375 46.1875 
Q 20.953125 51.171875 25.484375 53.578125 
Q 30.03125 56 36.53125 56 
Q 37.453125 56 38.578125 55.875 
Q 39.703125 55.765625 41.0625 55.515625 
z
" id="DejaVuSans-114"/>
     <path d="M 10.59375 45.40625 
L 73.1875 45.40625 
L 73.1875 37.203125 
L 10.59375 37.203125 
z
M 10.59375 25.484375 
L 73.1875 25.484375 
L 73.1875 17.1875 
L 10.59375 17.1875 
z
" id="DejaVuSans-61"/>
     <path d="M 34.1875 63.1875 
L 20.796875 26.90625 
L 47.609375 26.90625 
z
M 28.609375 72.90625 
L 39.796875 72.90625 
L 67.578125 0 
L 57.328125 0 
L 50.6875 18.703125 
L 17.828125 18.703125 
L 11.1875 0 
L 0.78125 0 
z
" id="DejaVuSans-65"/>
     <path d="M 54.890625 33.015625 
L 54.890625 0 
L 45.90625 0 
L 45.90625 32.71875 
Q 45.90625 40.484375 42.875 44.328125 
Q 39.84375 48.1875 33.796875 48.1875 
Q 26.515625 48.1875 22.3125 43.546875 
Q 18.109375 38.921875 18.109375 30.90625 
L 18.109375 0 
L 9.078125 0 
L 9.078125 54.6875 
L 18.109375 54.6875 
L 18.109375 46.1875 
Q 21.34375 51.125 25.703125 53.5625 
Q 30.078125 56 35.796875 56 
Q 45.21875 56 50.046875 50.171875 
Q 54.890625 44.34375 54.890625 33.015625 
z
" id="DejaVuSans-110"/>
     <path d="M 18.3125 70.21875 
L 18.3125 54.6875 
L 36.8125 54.6875 
L 36.8125 47.703125 
L 18.3125 47.703125 
L 18.3125 18.015625 
Q 18.3125 11.328125 20.140625 9.421875 
Q 21.96875 7.515625 27.59375 7.515625 
L 36.8125 7.515625 
L 36.8125 0 
L 27.59375 0 
Q 17.1875 0 13.234375 3.875 
Q 9.28125 7.765625 9.28125 18.015625 
L 9.28125 47.703125 
L 2.6875 47.703125 
L 2.6875 54.6875 
L 9.28125 54.6875 
L 9.28125 70.21875 
z
" id="DejaVuSans-116"/>
     <path d="M 45.40625 46.390625 
L 45.40625 75.984375 
L 54.390625 75.984375 
L 54.390625 0 
L 45.40625 0 
L 45.40625 8.203125 
Q 42.578125 3.328125 38.25 0.953125 
Q 33.9375 -1.421875 27.875 -1.421875 
Q 17.96875 -1.421875 11.734375 6.484375 
Q 5.515625 14.40625 5.515625 27.296875 
Q 5.515625 40.1875 11.734375 48.09375 
Q 17.96875 56 27.875 56 
Q 33.9375 56 38.25 53.625 
Q 42.578125 51.265625 45.40625 46.390625 
z
M 14.796875 27.296875 
Q 14.796875 17.390625 18.875 11.75 
Q 22.953125 6.109375 30.078125 6.109375 
Q 37.203125 6.109375 41.296875 11.75 
Q 45.40625 17.390625 45.40625 27.296875 
Q 45.40625 37.203125 41.296875 42.84375 
Q 37.203125 48.484375 30.078125 48.484375 
Q 22.953125 48.484375 18.875 42.84375 
Q 14.796875 37.203125 14.796875 27.296875 
z
" id="DejaVuSans-100"/>
    </defs>
    <g transform="translate(223.259062 28.56)scale(0.12 -0.12)">
     <use xlink:href="#DejaVuSans-84"/>
     <use x="61.083984" xlink:href="#DejaVuSans-104"/>
     <use x="124.462891" xlink:href="#DejaVuSans-97"/>
     <use x="185.742188" xlink:href="#DejaVuSans-108"/>
     <use x="213.525391" xlink:href="#DejaVuSans-97"/>
     <use x="274.804688" xlink:href="#DejaVuSans-109"/>
     <use x="372.216797" xlink:href="#DejaVuSans-117"/>
     <use x="435.595703" xlink:href="#DejaVuSans-115"/>
     <use x="487.695312" xlink:href="#DejaVuSans-44"/>
     <use x="519.482422" xlink:href="#DejaVuSans-32"/>
     <use x="551.269531" xlink:href="#DejaVuSans-78"/>
     <use x="626.074219" xlink:href="#DejaVuSans-117"/>
     <use x="689.453125" xlink:href="#DejaVuSans-109"/>
     <use x="786.865234" xlink:href="#DejaVuSans-32"/>
     <use x="818.652344" xlink:href="#DejaVuSans-84"/>
     <use x="879.517578" xlink:href="#DejaVuSans-114"/>
     <use x="920.630859" xlink:href="#DejaVuSans-105"/>
     <use x="948.414062" xlink:href="#DejaVuSans-97"/>
     <use x="1009.693359" xlink:href="#DejaVuSans-108"/>
     <use x="1037.476562" xlink:href="#DejaVuSans-115"/>
     <use x="1089.576172" xlink:href="#DejaVuSans-61"/>
     <use x="1173.365234" xlink:href="#DejaVuSans-49"/>
     <use x="1236.988281" xlink:href="#DejaVuSans-48"/>
     <use x="1300.611328" xlink:href="#DejaVuSans-32"/>
     <use x="1332.398438" xlink:href="#DejaVuSans-65"/>
     <use x="1400.806641" xlink:href="#DejaVuSans-108"/>
     <use x="1428.589844" xlink:href="#DejaVuSans-108"/>
     <use x="1456.373047" xlink:href="#DejaVuSans-32"/>
     <use x="1488.160156" xlink:href="#DejaVuSans-117"/>
     <use x="1551.539062" xlink:href="#DejaVuSans-110"/>
     <use x="1614.917969" xlink:href="#DejaVuSans-115"/>
     <use x="1667.017578" xlink:href="#DejaVuSans-116"/>
     <use x="1706.226562" xlink:href="#DejaVuSans-105"/>
     <use x="1734.009766" xlink:href="#DejaVuSans-109"/>
     <use x="1831.421875" xlink:href="#DejaVuSans-117"/>
     <use x="1894.800781" xlink:href="#DejaVuSans-108"/>
     <use x="1922.583984" xlink:href="#DejaVuSans-97"/>
     <use x="1983.863281" xlink:href="#DejaVuSans-116"/>
     <use x="2023.072266" xlink:href="#DejaVuSans-101"/>
     <use x="2084.595703" xlink:href="#DejaVuSans-100"/>
     <use x="2148.072266" xlink:href="#DejaVuSans-32"/>
     <use x="2179.859375" xlink:href="#DejaVuSans-116"/>
     <use x="2219.068359" xlink:href="#DejaVuSans-114"/>
     <use x="2260.181641" xlink:href="#DejaVuSans-105"/>
     <use x="2287.964844" xlink:href="#DejaVuSans-97"/>
     <use x="2349.244141" xlink:href="#DejaVuSans-108"/>
     <use x="2377.027344" xlink:href="#DejaVuSans-115"/>
    </g>
   </g>
   <g id="legend_1">
    <g id="patch_7">
     <path d="M 504.96 61.8 
L 639.6 61.8 
Q 642 61.8 642 59.4 
L 642 42.96 
Q 642 40.56 639.6 40.56 
L 504.96 40.56 
Q 502.56 40.56 502.56 42.96 
L 502.56 59.4 
Q 502.56 61.8 504.96 61.8 
z
" style="fill:#ffffff;opacity:0.8;stroke:#cccccc;stroke-linejoin:miter;"/>
    </g>
    <g id="line2d_21">
     <path d="M 507.36 50.28 
L 531.36 50.28 
" style="fill:none;stroke:#0000ff;stroke-linecap:square;stroke-width:1.5;"/>
    </g>
    <g id="line2d_22"/>
    <g id="text_12">
     <!-- COM-Binomial $p$ -->
     <defs>
      <path d="M 64.40625 67.28125 
L 64.40625 56.890625 
Q 59.421875 61.53125 53.78125 63.8125 
Q 48.140625 66.109375 41.796875 66.109375 
Q 29.296875 66.109375 22.65625 58.46875 
Q 16.015625 50.828125 16.015625 36.375 
Q 16.015625 21.96875 22.65625 14.328125 
Q 29.296875 6.6875 41.796875 6.6875 
Q 48.140625 6.6875 53.78125 8.984375 
Q 59.421875 11.28125 64.40625 15.921875 
L 64.40625 5.609375 
Q 59.234375 2.09375 53.4375 0.328125 
Q 47.65625 -1.421875 41.21875 -1.421875 
Q 24.65625 -1.421875 15.125 8.703125 
Q 5.609375 18.84375 5.609375 36.375 
Q 5.609375 53.953125 15.125 64.078125 
Q 24.65625 74.21875 41.21875 74.21875 
Q 47.75 74.21875 53.53125 72.484375 
Q 59.328125 70.75 64.40625 67.28125 
z
" id="DejaVuSans-67"/>
      <path d="M 39.40625 66.21875 
Q 28.65625 66.21875 22.328125 58.203125 
Q 16.015625 50.203125 16.015625 36.375 
Q 16.015625 22.609375 22.328125 14.59375 
Q 28.65625 6.59375 39.40625 6.59375 
Q 50.140625 6.59375 56.421875 14.59375 
Q 62.703125 22.609375 62.703125 36.375 
Q 62.703125 50.203125 56.421875 58.203125 
Q 50.140625 66.21875 39.40625 66.21875 
z
M 39.40625 74.21875 
Q 54.734375 74.21875 63.90625 63.9375 
Q 73.09375 53.65625 73.09375 36.375 
Q 73.09375 19.140625 63.90625 8.859375 
Q 54.734375 -1.421875 39.40625 -1.421875 
Q 24.03125 -1.421875 14.8125 8.828125 
Q 5.609375 19.09375 5.609375 36.375 
Q 5.609375 53.65625 14.8125 63.9375 
Q 24.03125 74.21875 39.40625 74.21875 
z
" id="DejaVuSans-79"/>
      <path d="M 9.8125 72.90625 
L 24.515625 72.90625 
L 43.109375 23.296875 
L 61.8125 72.90625 
L 76.515625 72.90625 
L 76.515625 0 
L 66.890625 0 
L 66.890625 64.015625 
L 48.09375 14.015625 
L 38.1875 14.015625 
L 19.390625 64.015625 
L 19.390625 0 
L 9.8125 0 
z
" id="DejaVuSans-77"/>
      <path d="M 4.890625 31.390625 
L 31.203125 31.390625 
L 31.203125 23.390625 
L 4.890625 23.390625 
z
" id="DejaVuSans-45"/>
      <path d="M 19.671875 34.8125 
L 19.671875 8.109375 
L 35.5 8.109375 
Q 43.453125 8.109375 47.28125 11.40625 
Q 51.125 14.703125 51.125 21.484375 
Q 51.125 28.328125 47.28125 31.5625 
Q 43.453125 34.8125 35.5 34.8125 
z
M 19.671875 64.796875 
L 19.671875 42.828125 
L 34.28125 42.828125 
Q 41.5 42.828125 45.03125 45.53125 
Q 48.578125 48.25 48.578125 53.8125 
Q 48.578125 59.328125 45.03125 62.0625 
Q 41.5 64.796875 34.28125 64.796875 
z
M 9.8125 72.90625 
L 35.015625 72.90625 
Q 46.296875 72.90625 52.390625 68.21875 
Q 58.5 63.53125 58.5 54.890625 
Q 58.5 48.1875 55.375 44.234375 
Q 52.25 40.28125 46.1875 39.3125 
Q 53.46875 37.75 57.5 32.78125 
Q 61.53125 27.828125 61.53125 20.40625 
Q 61.53125 10.640625 54.890625 5.3125 
Q 48.25 0 35.984375 0 
L 9.8125 0 
z
" id="DejaVuSans-66"/>
      <path d="M 30.609375 48.390625 
Q 23.390625 48.390625 19.1875 42.75 
Q 14.984375 37.109375 14.984375 27.296875 
Q 14.984375 17.484375 19.15625 11.84375 
Q 23.34375 6.203125 30.609375 6.203125 
Q 37.796875 6.203125 41.984375 11.859375 
Q 46.1875 17.53125 46.1875 27.296875 
Q 46.1875 37.015625 41.984375 42.703125 
Q 37.796875 48.390625 30.609375 48.390625 
z
M 30.609375 56 
Q 42.328125 56 49.015625 48.375 
Q 55.71875 40.765625 55.71875 27.296875 
Q 55.71875 13.875 49.015625 6.21875 
Q 42.328125 -1.421875 30.609375 -1.421875 
Q 18.84375 -1.421875 12.171875 6.21875 
Q 5.515625 13.875 5.515625 27.296875 
Q 5.515625 40.765625 12.171875 48.375 
Q 18.84375 56 30.609375 56 
z
" id="DejaVuSans-111"/>
      <path d="M 49.609375 33.6875 
Q 49.609375 40.875 46.484375 44.671875 
Q 43.359375 48.484375 37.5 48.484375 
Q 33.5 48.484375 29.859375 46.4375 
Q 26.21875 44.390625 23.390625 40.484375 
Q 20.609375 36.625 18.9375 31.15625 
Q 17.28125 25.6875 17.28125 20.3125 
Q 17.28125 13.484375 20.40625 9.796875 
Q 23.53125 6.109375 29.296875 6.109375 
Q 33.546875 6.109375 37.1875 8.109375 
Q 40.828125 10.109375 43.40625 13.921875 
Q 46.1875 17.921875 47.890625 23.34375 
Q 49.609375 28.765625 49.609375 33.6875 
z
M 21.78125 46.390625 
Q 25.390625 51.125 30.296875 53.5625 
Q 35.203125 56 41.21875 56 
Q 49.609375 56 54.25 50.5 
Q 58.890625 45.015625 58.890625 35.109375 
Q 58.890625 27 56 19.65625 
Q 53.125 12.3125 47.703125 6.5 
Q 44.09375 2.640625 39.546875 0.609375 
Q 35.015625 -1.421875 29.984375 -1.421875 
Q 24.171875 -1.421875 20.21875 1 
Q 16.265625 3.421875 14.3125 8.203125 
L 8.6875 -20.796875 
L -0.296875 -20.796875 
L 14.40625 54.6875 
L 23.390625 54.6875 
z
" id="DejaVuSans-Oblique-112"/>
     </defs>
     <g transform="translate(540.96 54.48)scale(0.12 -0.12)">
      <use transform="translate(0 0.015625)" xlink:href="#DejaVuSans-67"/>
      <use transform="translate(69.824219 0.015625)" xlink:href="#DejaVuSans-79"/>
      <use transform="translate(148.535156 0.015625)" xlink:href="#DejaVuSans-77"/>
      <use transform="translate(234.814453 0.015625)" xlink:href="#DejaVuSans-45"/>
      <use transform="translate(270.898438 0.015625)" xlink:href="#DejaVuSans-66"/>
      <use transform="translate(339.501953 0.015625)" xlink:href="#DejaVuSans-105"/>
      <use transform="translate(367.285156 0.015625)" xlink:href="#DejaVuSans-110"/>
      <use transform="translate(430.664062 0.015625)" xlink:href="#DejaVuSans-111"/>
      <use transform="translate(491.845703 0.015625)" xlink:href="#DejaVuSans-109"/>
      <use transform="translate(589.257812 0.015625)" xlink:href="#DejaVuSans-105"/>
      <use transform="translate(617.041016 0.015625)" xlink:href="#DejaVuSans-97"/>
      <use transform="translate(678.320312 0.015625)" xlink:href="#DejaVuSans-108"/>
      <use transform="translate(706.103516 0.015625)" xlink:href="#DejaVuSans-32"/>
      <use transform="translate(737.890625 0.015625)" xlink:href="#DejaVuSans-Oblique-112"/>
     </g>
    </g>
   </g>
  </g>
 </g>
 <defs>
  <clipPath id="p7f4db9b488">
   <rect height="221.76" width="558" x="90" y="34.56"/>
  </clipPath>
 </defs>
</svg>
