<?xml version="1.0" encoding="utf-8" standalone="no"?>
<!DOCTYPE svg PUBLIC "-//W3C//DTD SVG 1.1//EN"
  "http://www.w3.org/Graphics/SVG/1.1/DTD/svg11.dtd">
<!-- Created with matplotlib (https://matplotlib.org/) -->
<svg height="216pt" version="1.1" viewBox="0 0 648 216" width="648pt" xmlns="http://www.w3.org/2000/svg" xmlns:xlink="http://www.w3.org/1999/xlink">
 <defs>
  <style type="text/css">
*{stroke-linecap:butt;stroke-linejoin:round;}
  </style>
 </defs>
 <g id="figure_1">
  <g id="patch_1">
   <path d="M 0 216 
L 648 216 
L 648 0 
L 0 0 
z
" style="fill:#ffffff;"/>
  </g>
  <g id="axes_1">
   <g id="patch_2">
    <path d="M 81 192.24 
L 583.2 192.24 
L 583.2 25.92 
L 81 25.92 
z
" style="fill:#ffffff;"/>
   </g>
   <g id="PolyCollection_1">
    <defs>
     <path d="M 81 -64.577688 
L 81 -45.558682 
L 83.049796 -42.017523 
L 85.099592 -45.163168 
L 87.149388 -45.228358 
L 89.199184 -46.098216 
L 91.24898 -41.787903 
L 93.298776 -47.819286 
L 95.348571 -41.22638 
L 97.398367 -38.145751 
L 99.448163 -41.478505 
L 101.497959 -45.028871 
L 103.547755 -43.904006 
L 105.597551 -38.863326 
L 107.647347 -40.980222 
L 109.697143 -41.05008 
L 111.746939 -44.104183 
L 113.796735 -41.261411 
L 115.846531 -42.327154 
L 117.896327 -47.155087 
L 119.946122 -45.189583 
L 121.995918 -35.911891 
L 124.045714 -57.498588 
L 126.09551 -86.500434 
L 128.145306 -101.448157 
L 130.195102 -103.926753 
L 132.244898 -88.430441 
L 134.294694 -69.873469 
L 136.34449 -61.065908 
L 138.394286 -56.303303 
L 140.444082 -58.890008 
L 142.493878 -68.567535 
L 144.543673 -95.071805 
L 146.593469 -142.816151 
L 148.643265 -161.96236 
L 150.693061 -138.063604 
L 152.742857 -106.87195 
L 154.792653 -87.453334 
L 156.842449 -71.907439 
L 158.892245 -67.399233 
L 160.942041 -68.725539 
L 162.991837 -60.65693 
L 165.041633 -58.415256 
L 167.091429 -74.864415 
L 169.141224 -89.403512 
L 171.19102 -119.645621 
L 173.240816 -136.874456 
L 175.290612 -136.568016 
L 177.340408 -128.710575 
L 179.390204 -117.544421 
L 181.44 -104.533576 
L 183.489796 -89.370354 
L 185.539592 -74.490756 
L 187.589388 -63.381273 
L 189.639184 -58.873813 
L 191.68898 -53.701618 
L 193.738776 -53.5967 
L 195.788571 -61.621899 
L 197.838367 -49.322738 
L 199.888163 -52.843839 
L 201.937959 -48.98278 
L 203.987755 -49.991476 
L 206.037551 -43.886293 
L 208.087347 -41.05795 
L 210.137143 -46.782395 
L 212.186939 -39.403468 
L 214.236735 -41.699651 
L 216.286531 -46.863282 
L 218.336327 -46.40206 
L 220.386122 -61.767804 
L 222.435918 -60.738842 
L 224.485714 -54.829234 
L 226.53551 -58.571985 
L 228.585306 -52.553659 
L 230.635102 -49.653333 
L 232.684898 -48.197786 
L 234.734694 -48.121144 
L 236.78449 -45.276438 
L 238.834286 -47.862261 
L 240.884082 -53.77004 
L 242.933878 -55.374931 
L 244.983673 -49.54275 
L 247.033469 -41.613966 
L 249.083265 -40.471238 
L 251.133061 -42.278964 
L 253.182857 -47.339118 
L 255.232653 -48.341557 
L 257.282449 -48.96671 
L 259.332245 -45.272326 
L 261.382041 -39.228123 
L 263.431837 -38.76883 
L 265.481633 -40.031781 
L 267.531429 -40.99938 
L 269.581224 -39.90068 
L 271.63102 -43.739778 
L 273.680816 -44.931496 
L 275.730612 -40.509606 
L 277.780408 -31.485799 
L 279.830204 -40.463214 
L 281.88 -40.552597 
L 283.929796 -40.373004 
L 285.979592 -38.855147 
L 288.029388 -34.736262 
L 290.079184 -33.105721 
L 292.12898 -33.821818 
L 294.178776 -34.398253 
L 296.228571 -34.386095 
L 298.278367 -32.97802 
L 300.328163 -33.46412 
L 302.377959 -32.304408 
L 304.427755 -30.641425 
L 306.477551 -37.931988 
L 308.527347 -41.844495 
L 310.577143 -40.981444 
L 312.626939 -44.029084 
L 314.676735 -41.828118 
L 316.726531 -37.649932 
L 318.776327 -37.681044 
L 320.826122 -33.889674 
L 322.875918 -39.99398 
L 324.925714 -42.693682 
L 326.97551 -45.523636 
L 329.025306 -44.128395 
L 331.075102 -48.92065 
L 333.124898 -56.129033 
L 335.174694 -52.023773 
L 337.22449 -52.585176 
L 339.274286 -50.16426 
L 341.324082 -42.956627 
L 343.373878 -40.874749 
L 345.423673 -37.031142 
L 347.473469 -35.841805 
L 349.523265 -36.325983 
L 351.573061 -39.961397 
L 353.622857 -37.019587 
L 355.672653 -42.143775 
L 357.722449 -40.806379 
L 359.772245 -43.649367 
L 361.822041 -41.436717 
L 363.871837 -36.803895 
L 365.921633 -39.513828 
L 367.971429 -37.2037 
L 370.021224 -44.90154 
L 372.07102 -49.315141 
L 374.120816 -48.362084 
L 376.170612 -45.851822 
L 378.220408 -44.181853 
L 380.270204 -47.33494 
L 382.32 -46.017036 
L 384.369796 -44.540771 
L 386.419592 -44.494145 
L 388.469388 -37.070612 
L 390.519184 -36.860649 
L 392.56898 -36.941817 
L 394.618776 -40.75144 
L 396.668571 -39.411495 
L 398.718367 -39.694511 
L 400.768163 -35.335115 
L 402.817959 -34.765199 
L 404.867755 -33.718027 
L 406.917551 -33.930734 
L 408.967347 -27.756599 
L 411.017143 -26.746567 
L 413.066939 -28.796287 
L 415.116735 -28.218211 
L 417.166531 -23.76 
L 419.216327 -29.551884 
L 421.266122 -29.813154 
L 423.315918 -33.115168 
L 425.365714 -32.085368 
L 427.41551 -30.675474 
L 429.465306 -32.197635 
L 431.515102 -28.470911 
L 433.564898 -32.889849 
L 435.614694 -34.960111 
L 437.66449 -33.535625 
L 439.714286 -38.787665 
L 441.764082 -33.691334 
L 443.813878 -36.166376 
L 445.863673 -31.767517 
L 447.913469 -30.124655 
L 449.963265 -28.791341 
L 452.013061 -26.702269 
L 454.062857 -34.68821 
L 456.112653 -30.578153 
L 458.162449 -36.34451 
L 460.212245 -33.786574 
L 462.262041 -42.699248 
L 464.311837 -35.134124 
L 466.361633 -36.549804 
L 468.411429 -26.80628 
L 470.461224 -28.184663 
L 472.51102 -25.634228 
L 474.560816 -36.008393 
L 476.610612 -36.527906 
L 478.660408 -45.583365 
L 480.710204 -50.176784 
L 482.76 -55.008544 
L 484.809796 -52.742493 
L 486.859592 -50.161474 
L 488.909388 -44.869646 
L 490.959184 -46.396048 
L 493.00898 -49.684996 
L 495.058776 -50.482359 
L 497.108571 -44.182252 
L 499.158367 -50.704888 
L 501.208163 -55.122181 
L 503.257959 -51.586108 
L 505.307755 -50.532017 
L 507.357551 -49.065159 
L 509.407347 -39.174037 
L 511.457143 -42.638878 
L 513.506939 -44.557642 
L 515.556735 -50.783153 
L 517.606531 -39.544128 
L 519.656327 -29.845458 
L 521.706122 -35.61835 
L 523.755918 -35.868436 
L 525.805714 -34.315437 
L 527.85551 -35.499915 
L 529.905306 -38.972052 
L 531.955102 -37.850591 
L 534.004898 -39.706664 
L 536.054694 -33.314806 
L 538.10449 -38.079163 
L 540.154286 -39.840882 
L 542.204082 -40.636489 
L 544.253878 -33.706844 
L 546.303673 -43.36656 
L 548.353469 -34.55725 
L 550.403265 -26.430121 
L 552.453061 -30.376049 
L 554.502857 -36.768939 
L 556.552653 -34.481654 
L 558.602449 -35.947694 
L 560.652245 -36.932757 
L 562.702041 -35.02957 
L 564.751837 -37.395058 
L 566.801633 -36.951641 
L 568.851429 -36.95653 
L 570.901224 -33.570343 
L 572.95102 -37.765922 
L 575.000816 -37.762957 
L 577.050612 -45.51572 
L 579.100408 -43.828596 
L 581.150204 -49.223002 
L 583.2 -41.480691 
L 583.2 -58.873799 
L 583.2 -58.873799 
L 581.150204 -68.91478 
L 579.100408 -62.561276 
L 577.050612 -65.558978 
L 575.000816 -55.734001 
L 572.95102 -55.393285 
L 570.901224 -49.387402 
L 568.851429 -53.244001 
L 566.801633 -53.532174 
L 564.751837 -53.303975 
L 562.702041 -50.741275 
L 560.652245 -53.69268 
L 558.602449 -51.248245 
L 556.552653 -49.972574 
L 554.502857 -53.190836 
L 552.453061 -43.235487 
L 550.403265 -37.424782 
L 548.353469 -48.237279 
L 546.303673 -61.054245 
L 544.253878 -47.516039 
L 542.204082 -57.045576 
L 540.154286 -55.682293 
L 538.10449 -53.252836 
L 536.054694 -44.349439 
L 534.004898 -55.438018 
L 531.955102 -53.66282 
L 529.905306 -53.97791 
L 527.85551 -51.115076 
L 525.805714 -49.987368 
L 523.755918 -51.737916 
L 521.706122 -52.298136 
L 519.656327 -44.446799 
L 517.606531 -56.853956 
L 515.556735 -71.615882 
L 513.506939 -63.488448 
L 511.457143 -59.889378 
L 509.407347 -54.852647 
L 507.357551 -68.220885 
L 505.307755 -69.026723 
L 503.257959 -70.192475 
L 501.208163 -74.575071 
L 499.158367 -69.57231 
L 497.108571 -62.308187 
L 495.058776 -70.263195 
L 493.00898 -69.121168 
L 490.959184 -64.390527 
L 488.909388 -63.109638 
L 486.859592 -70.524784 
L 484.809796 -74.608708 
L 482.76 -77.720587 
L 480.710204 -72.16734 
L 478.660408 -66.174917 
L 476.610612 -54.082554 
L 474.560816 -54.680412 
L 472.51102 -37.899528 
L 470.461224 -43.931027 
L 468.411429 -40.770312 
L 466.361633 -52.660857 
L 464.311837 -51.987857 
L 462.262041 -61.361743 
L 460.212245 -48.19385 
L 458.162449 -51.931613 
L 456.112653 -42.676942 
L 454.062857 -48.360567 
L 452.013061 -36.859351 
L 449.963265 -42.247965 
L 447.913469 -42.596088 
L 445.863673 -45.227291 
L 443.813878 -52.702339 
L 441.764082 -48.909217 
L 439.714286 -55.698547 
L 437.66449 -48.709128 
L 435.614694 -50.736098 
L 433.564898 -48.62803 
L 431.515102 -41.74079 
L 429.465306 -45.153175 
L 427.41551 -43.275085 
L 425.365714 -46.456557 
L 423.315918 -47.897687 
L 421.266122 -43.455205 
L 419.216327 -43.81883 
L 417.166531 -36.361632 
L 415.116735 -41.031772 
L 413.066939 -40.97602 
L 411.017143 -38.438753 
L 408.967347 -38.932757 
L 406.917551 -46.971762 
L 404.867755 -47.544788 
L 402.817959 -48.31512 
L 400.768163 -48.942582 
L 398.718367 -54.927506 
L 396.668571 -52.678767 
L 394.618776 -55.094975 
L 392.56898 -49.861058 
L 390.519184 -49.056034 
L 388.469388 -50.02819 
L 386.419592 -60.648682 
L 384.369796 -61.153623 
L 382.32 -61.515107 
L 380.270204 -64.317429 
L 378.220408 -60.800887 
L 376.170612 -63.355024 
L 374.120816 -67.003382 
L 372.07102 -68.346813 
L 370.021224 -61.95392 
L 367.971429 -53.532648 
L 365.921633 -54.771698 
L 363.871837 -52.670834 
L 361.822041 -59.073448 
L 359.772245 -60.73672 
L 357.722449 -57.408954 
L 355.672653 -60.882741 
L 353.622857 -54.122544 
L 351.573061 -57.216069 
L 349.523265 -52.29597 
L 347.473469 -51.575318 
L 345.423673 -52.231377 
L 343.373878 -56.986731 
L 341.324082 -59.100112 
L 339.274286 -68.551488 
L 337.22449 -71.917161 
L 335.174694 -70.872915 
L 333.124898 -76.257815 
L 331.075102 -66.213689 
L 329.025306 -59.295213 
L 326.97551 -60.091983 
L 324.925714 -57.362365 
L 322.875918 -56.24854 
L 320.826122 -48.139528 
L 318.776327 -53.446624 
L 316.726531 -53.230719 
L 314.676735 -59.163484 
L 312.626939 -61.390294 
L 310.577143 -58.939671 
L 308.527347 -59.656952 
L 306.477551 -53.609349 
L 304.427755 -43.167447 
L 302.377959 -46.306625 
L 300.328163 -46.612001 
L 298.278367 -46.211324 
L 296.228571 -47.838283 
L 294.178776 -48.485605 
L 292.12898 -47.253186 
L 290.079184 -45.891471 
L 288.029388 -47.482224 
L 285.979592 -54.142565 
L 283.929796 -54.915663 
L 281.88 -56.20235 
L 279.830204 -55.810212 
L 277.780408 -44.439523 
L 275.730612 -57.008436 
L 273.680816 -62.185889 
L 271.63102 -61.220302 
L 269.581224 -56.710045 
L 267.531429 -57.693327 
L 265.481633 -56.271328 
L 263.431837 -55.308931 
L 261.382041 -55.22753 
L 259.332245 -62.286953 
L 257.282449 -65.909652 
L 255.232653 -65.545488 
L 253.182857 -64.567624 
L 251.133061 -57.624919 
L 249.083265 -54.91191 
L 247.033469 -56.770056 
L 244.983673 -68.040402 
L 242.933878 -75.5015 
L 240.884082 -73.280257 
L 238.834286 -64.936175 
L 236.78449 -62.318405 
L 234.734694 -65.923398 
L 232.684898 -64.53824 
L 230.635102 -68.419967 
L 228.585306 -71.591411 
L 226.53551 -78.058756 
L 224.485714 -75.341023 
L 222.435918 -82.746265 
L 220.386122 -84.902149 
L 218.336327 -64.966217 
L 216.286531 -66.868167 
L 214.236735 -58.825021 
L 212.186939 -55.311595 
L 210.137143 -65.4506 
L 208.087347 -55.490169 
L 206.037551 -61.464659 
L 203.987755 -69.756393 
L 201.937959 -68.286777 
L 199.888163 -72.718887 
L 197.838367 -68.470342 
L 195.788571 -82.723224 
L 193.738776 -71.289026 
L 191.68898 -71.445311 
L 189.639184 -77.621826 
L 187.589388 -83.898305 
L 185.539592 -96.165706 
L 183.489796 -114.43701 
L 181.44 -132.127328 
L 179.390204 -147.830458 
L 177.340408 -161.556093 
L 175.290612 -170.642969 
L 173.240816 -171.549658 
L 171.19102 -153.564057 
L 169.141224 -118.745429 
L 167.091429 -100.368211 
L 165.041633 -80.904319 
L 162.991837 -84.356596 
L 160.942041 -95.012127 
L 158.892245 -92.622678 
L 156.842449 -97.885146 
L 154.792653 -114.61733 
L 152.742857 -135.105142 
L 150.693061 -167.770865 
L 148.643265 -190.08 
L 146.593469 -167.361387 
L 144.543673 -112.797423 
L 142.493878 -82.041162 
L 140.444082 -71.282953 
L 138.394286 -68.780022 
L 136.34449 -74.19622 
L 134.294694 -84.333119 
L 132.244898 -107.57411 
L 130.195102 -125.524953 
L 128.145306 -124.888088 
L 126.09551 -110.082031 
L 124.045714 -76.938938 
L 121.995918 -50.517188 
L 119.946122 -65.681411 
L 117.896327 -66.863196 
L 115.846531 -58.800534 
L 113.796735 -57.692527 
L 111.746939 -61.208623 
L 109.697143 -58.254126 
L 107.647347 -57.135634 
L 105.597551 -55.971607 
L 103.547755 -61.217722 
L 101.497959 -62.682339 
L 99.448163 -58.888228 
L 97.398367 -53.460139 
L 95.348571 -57.993609 
L 93.298776 -66.923329 
L 91.24898 -59.52373 
L 89.199184 -64.364236 
L 87.149388 -64.769771 
L 85.099592 -64.514188 
L 83.049796 -60.735099 
L 81 -64.577688 
z
" id="m5be7a1c6f9" style="stroke:#0000ff;stroke-opacity:0.3;"/>
    </defs>
    <g clip-path="url(#p67694abb58)">
     <use style="fill:#0000ff;fill-opacity:0.3;stroke:#0000ff;stroke-opacity:0.3;" x="0" xlink:href="#m5be7a1c6f9" y="216"/>
    </g>
   </g>
   <g id="PolyCollection_2">
    <defs>
     <path d="M 128.042816 -23.76 
L 128.042816 -190.08 
L 435.512204 -190.08 
L 435.512204 -23.76 
L 435.512204 -23.76 
L 128.042816 -23.76 
z
" id="m8e9b6b76c6" style="stroke:#808080;stroke-opacity:0.3;"/>
    </defs>
    <g clip-path="url(#p67694abb58)">
     <use style="fill:#808080;fill-opacity:0.3;stroke:#808080;stroke-opacity:0.3;" x="0" xlink:href="#m8e9b6b76c6" y="216"/>
    </g>
   </g>
   <g id="matplotlib.axis_1">
    <g id="xtick_1">
     <g id="line2d_1">
      <defs>
       <path d="M 0 0 
L 0 3.5 
" id="m00535e92df" style="stroke:#000000;stroke-width:0.8;"/>
      </defs>
      <g>
       <use style="stroke:#000000;stroke-width:0.8;" x="81" xlink:href="#m00535e92df" y="192.24"/>
      </g>
     </g>
     <g id="text_1">
      <!-- 0.0 -->
      <defs>
       <path d="M 31.78125 66.40625 
Q 24.171875 66.40625 20.328125 58.90625 
Q 16.5 51.421875 16.5 36.375 
Q 16.5 21.390625 20.328125 13.890625 
Q 24.171875 6.390625 31.78125 6.390625 
Q 39.453125 6.390625 43.28125 13.890625 
Q 47.125 21.390625 47.125 36.375 
Q 47.125 51.421875 43.28125 58.90625 
Q 39.453125 66.40625 31.78125 66.40625 
z
M 31.78125 74.21875 
Q 44.046875 74.21875 50.515625 64.515625 
Q 56.984375 54.828125 56.984375 36.375 
Q 56.984375 17.96875 50.515625 8.265625 
Q 44.046875 -1.421875 31.78125 -1.421875 
Q 19.53125 -1.421875 13.0625 8.265625 
Q 6.59375 17.96875 6.59375 36.375 
Q 6.59375 54.828125 13.0625 64.515625 
Q 19.53125 74.21875 31.78125 74.21875 
z
" id="DejaVuSans-48"/>
       <path d="M 10.6875 12.40625 
L 21 12.40625 
L 21 0 
L 10.6875 0 
z
" id="DejaVuSans-46"/>
      </defs>
      <g transform="translate(71.458125 208.358125)scale(0.12 -0.12)">
       <use xlink:href="#DejaVuSans-48"/>
       <use x="63.623047" xlink:href="#DejaVuSans-46"/>
       <use x="95.410156" xlink:href="#DejaVuSans-48"/>
      </g>
     </g>
    </g>
    <g id="xtick_2">
     <g id="line2d_2">
      <g>
       <use style="stroke:#000000;stroke-width:0.8;" x="183.489796" xlink:href="#m00535e92df" y="192.24"/>
      </g>
     </g>
     <g id="text_2">
      <!-- 0.5 -->
      <defs>
       <path d="M 10.796875 72.90625 
L 49.515625 72.90625 
L 49.515625 64.59375 
L 19.828125 64.59375 
L 19.828125 46.734375 
Q 21.96875 47.46875 24.109375 47.828125 
Q 26.265625 48.1875 28.421875 48.1875 
Q 40.625 48.1875 47.75 41.5 
Q 54.890625 34.8125 54.890625 23.390625 
Q 54.890625 11.625 47.5625 5.09375 
Q 40.234375 -1.421875 26.90625 -1.421875 
Q 22.3125 -1.421875 17.546875 -0.640625 
Q 12.796875 0.140625 7.71875 1.703125 
L 7.71875 11.625 
Q 12.109375 9.234375 16.796875 8.0625 
Q 21.484375 6.890625 26.703125 6.890625 
Q 35.15625 6.890625 40.078125 11.328125 
Q 45.015625 15.765625 45.015625 23.390625 
Q 45.015625 31 40.078125 35.4375 
Q 35.15625 39.890625 26.703125 39.890625 
Q 22.75 39.890625 18.8125 39.015625 
Q 14.890625 38.140625 10.796875 36.28125 
z
" id="DejaVuSans-53"/>
      </defs>
      <g transform="translate(173.947921 208.358125)scale(0.12 -0.12)">
       <use xlink:href="#DejaVuSans-48"/>
       <use x="63.623047" xlink:href="#DejaVuSans-46"/>
       <use x="95.410156" xlink:href="#DejaVuSans-53"/>
      </g>
     </g>
    </g>
    <g id="xtick_3">
     <g id="line2d_3">
      <g>
       <use style="stroke:#000000;stroke-width:0.8;" x="285.979592" xlink:href="#m00535e92df" y="192.24"/>
      </g>
     </g>
     <g id="text_3">
      <!-- 1.0 -->
      <defs>
       <path d="M 12.40625 8.296875 
L 28.515625 8.296875 
L 28.515625 63.921875 
L 10.984375 60.40625 
L 10.984375 69.390625 
L 28.421875 72.90625 
L 38.28125 72.90625 
L 38.28125 8.296875 
L 54.390625 8.296875 
L 54.390625 0 
L 12.40625 0 
z
" id="DejaVuSans-49"/>
      </defs>
      <g transform="translate(276.437717 208.358125)scale(0.12 -0.12)">
       <use xlink:href="#DejaVuSans-49"/>
       <use x="63.623047" xlink:href="#DejaVuSans-46"/>
       <use x="95.410156" xlink:href="#DejaVuSans-48"/>
      </g>
     </g>
    </g>
    <g id="xtick_4">
     <g id="line2d_4">
      <g>
       <use style="stroke:#000000;stroke-width:0.8;" x="388.469388" xlink:href="#m00535e92df" y="192.24"/>
      </g>
     </g>
     <g id="text_4">
      <!-- 1.5 -->
      <g transform="translate(378.927513 208.358125)scale(0.12 -0.12)">
       <use xlink:href="#DejaVuSans-49"/>
       <use x="63.623047" xlink:href="#DejaVuSans-46"/>
       <use x="95.410156" xlink:href="#DejaVuSans-53"/>
      </g>
     </g>
    </g>
    <g id="xtick_5">
     <g id="line2d_5">
      <g>
       <use style="stroke:#000000;stroke-width:0.8;" x="490.959184" xlink:href="#m00535e92df" y="192.24"/>
      </g>
     </g>
     <g id="text_5">
      <!-- 2.0 -->
      <defs>
       <path d="M 19.1875 8.296875 
L 53.609375 8.296875 
L 53.609375 0 
L 7.328125 0 
L 7.328125 8.296875 
Q 12.9375 14.109375 22.625 23.890625 
Q 32.328125 33.6875 34.8125 36.53125 
Q 39.546875 41.84375 41.421875 45.53125 
Q 43.3125 49.21875 43.3125 52.78125 
Q 43.3125 58.59375 39.234375 62.25 
Q 35.15625 65.921875 28.609375 65.921875 
Q 23.96875 65.921875 18.8125 64.3125 
Q 13.671875 62.703125 7.8125 59.421875 
L 7.8125 69.390625 
Q 13.765625 71.78125 18.9375 73 
Q 24.125 74.21875 28.421875 74.21875 
Q 39.75 74.21875 46.484375 68.546875 
Q 53.21875 62.890625 53.21875 53.421875 
Q 53.21875 48.921875 51.53125 44.890625 
Q 49.859375 40.875 45.40625 35.40625 
Q 44.1875 33.984375 37.640625 27.21875 
Q 31.109375 20.453125 19.1875 8.296875 
z
" id="DejaVuSans-50"/>
      </defs>
      <g transform="translate(481.417309 208.358125)scale(0.12 -0.12)">
       <use xlink:href="#DejaVuSans-50"/>
       <use x="63.623047" xlink:href="#DejaVuSans-46"/>
       <use x="95.410156" xlink:href="#DejaVuSans-48"/>
      </g>
     </g>
    </g>
    <g id="text_6">
     <!-- Time (s) -->
     <defs>
      <path d="M -0.296875 72.90625 
L 61.375 72.90625 
L 61.375 64.59375 
L 35.5 64.59375 
L 35.5 0 
L 25.59375 0 
L 25.59375 64.59375 
L -0.296875 64.59375 
z
" id="DejaVuSans-84"/>
      <path d="M 9.421875 54.6875 
L 18.40625 54.6875 
L 18.40625 0 
L 9.421875 0 
z
M 9.421875 75.984375 
L 18.40625 75.984375 
L 18.40625 64.59375 
L 9.421875 64.59375 
z
" id="DejaVuSans-105"/>
      <path d="M 52 44.1875 
Q 55.375 50.25 60.0625 53.125 
Q 64.75 56 71.09375 56 
Q 79.640625 56 84.28125 50.015625 
Q 88.921875 44.046875 88.921875 33.015625 
L 88.921875 0 
L 79.890625 0 
L 79.890625 32.71875 
Q 79.890625 40.578125 77.09375 44.375 
Q 74.3125 48.1875 68.609375 48.1875 
Q 61.625 48.1875 57.5625 43.546875 
Q 53.515625 38.921875 53.515625 30.90625 
L 53.515625 0 
L 44.484375 0 
L 44.484375 32.71875 
Q 44.484375 40.625 41.703125 44.40625 
Q 38.921875 48.1875 33.109375 48.1875 
Q 26.21875 48.1875 22.15625 43.53125 
Q 18.109375 38.875 18.109375 30.90625 
L 18.109375 0 
L 9.078125 0 
L 9.078125 54.6875 
L 18.109375 54.6875 
L 18.109375 46.1875 
Q 21.1875 51.21875 25.484375 53.609375 
Q 29.78125 56 35.6875 56 
Q 41.65625 56 45.828125 52.96875 
Q 50 49.953125 52 44.1875 
z
" id="DejaVuSans-109"/>
      <path d="M 56.203125 29.59375 
L 56.203125 25.203125 
L 14.890625 25.203125 
Q 15.484375 15.921875 20.484375 11.0625 
Q 25.484375 6.203125 34.421875 6.203125 
Q 39.59375 6.203125 44.453125 7.46875 
Q 49.3125 8.734375 54.109375 11.28125 
L 54.109375 2.78125 
Q 49.265625 0.734375 44.1875 -0.34375 
Q 39.109375 -1.421875 33.890625 -1.421875 
Q 20.796875 -1.421875 13.15625 6.1875 
Q 5.515625 13.8125 5.515625 26.8125 
Q 5.515625 40.234375 12.765625 48.109375 
Q 20.015625 56 32.328125 56 
Q 43.359375 56 49.78125 48.890625 
Q 56.203125 41.796875 56.203125 29.59375 
z
M 47.21875 32.234375 
Q 47.125 39.59375 43.09375 43.984375 
Q 39.0625 48.390625 32.421875 48.390625 
Q 24.90625 48.390625 20.390625 44.140625 
Q 15.875 39.890625 15.1875 32.171875 
z
" id="DejaVuSans-101"/>
      <path id="DejaVuSans-32"/>
      <path d="M 31 75.875 
Q 24.46875 64.65625 21.28125 53.65625 
Q 18.109375 42.671875 18.109375 31.390625 
Q 18.109375 20.125 21.3125 9.0625 
Q 24.515625 -2 31 -13.1875 
L 23.1875 -13.1875 
Q 15.875 -1.703125 12.234375 9.375 
Q 8.59375 20.453125 8.59375 31.390625 
Q 8.59375 42.28125 12.203125 53.3125 
Q 15.828125 64.359375 23.1875 75.875 
z
" id="DejaVuSans-40"/>
      <path d="M 44.28125 53.078125 
L 44.28125 44.578125 
Q 40.484375 46.53125 36.375 47.5 
Q 32.28125 48.484375 27.875 48.484375 
Q 21.1875 48.484375 17.84375 46.4375 
Q 14.5 44.390625 14.5 40.28125 
Q 14.5 37.15625 16.890625 35.375 
Q 19.28125 33.59375 26.515625 31.984375 
L 29.59375 31.296875 
Q 39.15625 29.25 43.1875 25.515625 
Q 47.21875 21.78125 47.21875 15.09375 
Q 47.21875 7.46875 41.1875 3.015625 
Q 35.15625 -1.421875 24.609375 -1.421875 
Q 20.21875 -1.421875 15.453125 -0.5625 
Q 10.6875 0.296875 5.421875 2 
L 5.421875 11.28125 
Q 10.40625 8.6875 15.234375 7.390625 
Q 20.0625 6.109375 24.8125 6.109375 
Q 31.15625 6.109375 34.5625 8.28125 
Q 37.984375 10.453125 37.984375 14.40625 
Q 37.984375 18.0625 35.515625 20.015625 
Q 33.0625 21.96875 24.703125 23.78125 
L 21.578125 24.515625 
Q 13.234375 26.265625 9.515625 29.90625 
Q 5.8125 33.546875 5.8125 39.890625 
Q 5.8125 47.609375 11.28125 51.796875 
Q 16.75 56 26.8125 56 
Q 31.78125 56 36.171875 55.265625 
Q 40.578125 54.546875 44.28125 53.078125 
z
" id="DejaVuSans-115"/>
      <path d="M 8.015625 75.875 
L 15.828125 75.875 
Q 23.140625 64.359375 26.78125 53.3125 
Q 30.421875 42.28125 30.421875 31.390625 
Q 30.421875 20.453125 26.78125 9.375 
Q 23.140625 -1.703125 15.828125 -13.1875 
L 8.015625 -13.1875 
Q 14.5 -2 17.703125 9.0625 
Q 20.90625 20.125 20.90625 31.390625 
Q 20.90625 42.671875 17.703125 53.65625 
Q 14.5 64.65625 8.015625 75.875 
z
" id="DejaVuSans-41"/>
     </defs>
     <g transform="translate(302.60475 225.7955)scale(0.144 -0.144)">
      <use xlink:href="#DejaVuSans-84"/>
      <use x="61.037109" xlink:href="#DejaVuSans-105"/>
      <use x="88.820312" xlink:href="#DejaVuSans-109"/>
      <use x="186.232422" xlink:href="#DejaVuSans-101"/>
      <use x="247.755859" xlink:href="#DejaVuSans-32"/>
      <use x="279.542969" xlink:href="#DejaVuSans-40"/>
      <use x="318.556641" xlink:href="#DejaVuSans-115"/>
      <use x="370.65625" xlink:href="#DejaVuSans-41"/>
     </g>
    </g>
   </g>
   <g id="matplotlib.axis_2">
    <g id="ytick_1">
     <g id="line2d_6">
      <defs>
       <path d="M 0 0 
L -3.5 0 
" id="m43e23dec40" style="stroke:#000000;stroke-width:0.8;"/>
      </defs>
      <g>
       <use style="stroke:#000000;stroke-width:0.8;" x="81" xlink:href="#m43e23dec40" y="187.963129"/>
      </g>
     </g>
     <g id="text_7">
      <!-- 0.02 -->
      <g transform="translate(47.28125 192.522192)scale(0.12 -0.12)">
       <use xlink:href="#DejaVuSans-48"/>
       <use x="63.623047" xlink:href="#DejaVuSans-46"/>
       <use x="95.410156" xlink:href="#DejaVuSans-48"/>
       <use x="159.033203" xlink:href="#DejaVuSans-50"/>
      </g>
     </g>
    </g>
    <g id="ytick_2">
     <g id="line2d_7">
      <g>
       <use style="stroke:#000000;stroke-width:0.8;" x="81" xlink:href="#m43e23dec40" y="165.067386"/>
      </g>
     </g>
     <g id="text_8">
      <!-- 0.04 -->
      <defs>
       <path d="M 37.796875 64.3125 
L 12.890625 25.390625 
L 37.796875 25.390625 
z
M 35.203125 72.90625 
L 47.609375 72.90625 
L 47.609375 25.390625 
L 58.015625 25.390625 
L 58.015625 17.1875 
L 47.609375 17.1875 
L 47.609375 0 
L 37.796875 0 
L 37.796875 17.1875 
L 4.890625 17.1875 
L 4.890625 26.703125 
z
" id="DejaVuSans-52"/>
      </defs>
      <g transform="translate(47.28125 169.626449)scale(0.12 -0.12)">
       <use xlink:href="#DejaVuSans-48"/>
       <use x="63.623047" xlink:href="#DejaVuSans-46"/>
       <use x="95.410156" xlink:href="#DejaVuSans-48"/>
       <use x="159.033203" xlink:href="#DejaVuSans-52"/>
      </g>
     </g>
    </g>
    <g id="ytick_3">
     <g id="line2d_8">
      <g>
       <use style="stroke:#000000;stroke-width:0.8;" x="81" xlink:href="#m43e23dec40" y="142.171643"/>
      </g>
     </g>
     <g id="text_9">
      <!-- 0.06 -->
      <defs>
       <path d="M 33.015625 40.375 
Q 26.375 40.375 22.484375 35.828125 
Q 18.609375 31.296875 18.609375 23.390625 
Q 18.609375 15.53125 22.484375 10.953125 
Q 26.375 6.390625 33.015625 6.390625 
Q 39.65625 6.390625 43.53125 10.953125 
Q 47.40625 15.53125 47.40625 23.390625 
Q 47.40625 31.296875 43.53125 35.828125 
Q 39.65625 40.375 33.015625 40.375 
z
M 52.59375 71.296875 
L 52.59375 62.3125 
Q 48.875 64.0625 45.09375 64.984375 
Q 41.3125 65.921875 37.59375 65.921875 
Q 27.828125 65.921875 22.671875 59.328125 
Q 17.53125 52.734375 16.796875 39.40625 
Q 19.671875 43.65625 24.015625 45.921875 
Q 28.375 48.1875 33.59375 48.1875 
Q 44.578125 48.1875 50.953125 41.515625 
Q 57.328125 34.859375 57.328125 23.390625 
Q 57.328125 12.15625 50.6875 5.359375 
Q 44.046875 -1.421875 33.015625 -1.421875 
Q 20.359375 -1.421875 13.671875 8.265625 
Q 6.984375 17.96875 6.984375 36.375 
Q 6.984375 53.65625 15.1875 63.9375 
Q 23.390625 74.21875 37.203125 74.21875 
Q 40.921875 74.21875 44.703125 73.484375 
Q 48.484375 72.75 52.59375 71.296875 
z
" id="DejaVuSans-54"/>
      </defs>
      <g transform="translate(47.28125 146.730705)scale(0.12 -0.12)">
       <use xlink:href="#DejaVuSans-48"/>
       <use x="63.623047" xlink:href="#DejaVuSans-46"/>
       <use x="95.410156" xlink:href="#DejaVuSans-48"/>
       <use x="159.033203" xlink:href="#DejaVuSans-54"/>
      </g>
     </g>
    </g>
    <g id="ytick_4">
     <g id="line2d_9">
      <g>
       <use style="stroke:#000000;stroke-width:0.8;" x="81" xlink:href="#m43e23dec40" y="119.2759"/>
      </g>
     </g>
     <g id="text_10">
      <!-- 0.08 -->
      <defs>
       <path d="M 31.78125 34.625 
Q 24.75 34.625 20.71875 30.859375 
Q 16.703125 27.09375 16.703125 20.515625 
Q 16.703125 13.921875 20.71875 10.15625 
Q 24.75 6.390625 31.78125 6.390625 
Q 38.8125 6.390625 42.859375 10.171875 
Q 46.921875 13.96875 46.921875 20.515625 
Q 46.921875 27.09375 42.890625 30.859375 
Q 38.875 34.625 31.78125 34.625 
z
M 21.921875 38.8125 
Q 15.578125 40.375 12.03125 44.71875 
Q 8.5 49.078125 8.5 55.328125 
Q 8.5 64.0625 14.71875 69.140625 
Q 20.953125 74.21875 31.78125 74.21875 
Q 42.671875 74.21875 48.875 69.140625 
Q 55.078125 64.0625 55.078125 55.328125 
Q 55.078125 49.078125 51.53125 44.71875 
Q 48 40.375 41.703125 38.8125 
Q 48.828125 37.15625 52.796875 32.3125 
Q 56.78125 27.484375 56.78125 20.515625 
Q 56.78125 9.90625 50.3125 4.234375 
Q 43.84375 -1.421875 31.78125 -1.421875 
Q 19.734375 -1.421875 13.25 4.234375 
Q 6.78125 9.90625 6.78125 20.515625 
Q 6.78125 27.484375 10.78125 32.3125 
Q 14.796875 37.15625 21.921875 38.8125 
z
M 18.3125 54.390625 
Q 18.3125 48.734375 21.84375 45.5625 
Q 25.390625 42.390625 31.78125 42.390625 
Q 38.140625 42.390625 41.71875 45.5625 
Q 45.3125 48.734375 45.3125 54.390625 
Q 45.3125 60.0625 41.71875 63.234375 
Q 38.140625 66.40625 31.78125 66.40625 
Q 25.390625 66.40625 21.84375 63.234375 
Q 18.3125 60.0625 18.3125 54.390625 
z
" id="DejaVuSans-56"/>
      </defs>
      <g transform="translate(47.28125 123.834962)scale(0.12 -0.12)">
       <use xlink:href="#DejaVuSans-48"/>
       <use x="63.623047" xlink:href="#DejaVuSans-46"/>
       <use x="95.410156" xlink:href="#DejaVuSans-48"/>
       <use x="159.033203" xlink:href="#DejaVuSans-56"/>
      </g>
     </g>
    </g>
    <g id="ytick_5">
     <g id="line2d_10">
      <g>
       <use style="stroke:#000000;stroke-width:0.8;" x="81" xlink:href="#m43e23dec40" y="96.380156"/>
      </g>
     </g>
     <g id="text_11">
      <!-- 0.10 -->
      <g transform="translate(47.28125 100.939219)scale(0.12 -0.12)">
       <use xlink:href="#DejaVuSans-48"/>
       <use x="63.623047" xlink:href="#DejaVuSans-46"/>
       <use x="95.410156" xlink:href="#DejaVuSans-49"/>
       <use x="159.033203" xlink:href="#DejaVuSans-48"/>
      </g>
     </g>
    </g>
    <g id="ytick_6">
     <g id="line2d_11">
      <g>
       <use style="stroke:#000000;stroke-width:0.8;" x="81" xlink:href="#m43e23dec40" y="73.484413"/>
      </g>
     </g>
     <g id="text_12">
      <!-- 0.12 -->
      <g transform="translate(47.28125 78.043476)scale(0.12 -0.12)">
       <use xlink:href="#DejaVuSans-48"/>
       <use x="63.623047" xlink:href="#DejaVuSans-46"/>
       <use x="95.410156" xlink:href="#DejaVuSans-49"/>
       <use x="159.033203" xlink:href="#DejaVuSans-50"/>
      </g>
     </g>
    </g>
    <g id="ytick_7">
     <g id="line2d_12">
      <g>
       <use style="stroke:#000000;stroke-width:0.8;" x="81" xlink:href="#m43e23dec40" y="50.58867"/>
      </g>
     </g>
     <g id="text_13">
      <!-- 0.14 -->
      <g transform="translate(47.28125 55.147732)scale(0.12 -0.12)">
       <use xlink:href="#DejaVuSans-48"/>
       <use x="63.623047" xlink:href="#DejaVuSans-46"/>
       <use x="95.410156" xlink:href="#DejaVuSans-49"/>
       <use x="159.033203" xlink:href="#DejaVuSans-52"/>
      </g>
     </g>
    </g>
    <g id="ytick_8">
     <g id="line2d_13">
      <g>
       <use style="stroke:#000000;stroke-width:0.8;" x="81" xlink:href="#m43e23dec40" y="27.692927"/>
      </g>
     </g>
     <g id="text_14">
      <!-- 0.16 -->
      <g transform="translate(47.28125 32.251989)scale(0.12 -0.12)">
       <use xlink:href="#DejaVuSans-48"/>
       <use x="63.623047" xlink:href="#DejaVuSans-46"/>
       <use x="95.410156" xlink:href="#DejaVuSans-49"/>
       <use x="159.033203" xlink:href="#DejaVuSans-54"/>
      </g>
     </g>
    </g>
    <g id="text_15">
     <!-- COMb $p$ -->
     <defs>
      <path d="M 64.40625 67.28125 
L 64.40625 56.890625 
Q 59.421875 61.53125 53.78125 63.8125 
Q 48.140625 66.109375 41.796875 66.109375 
Q 29.296875 66.109375 22.65625 58.46875 
Q 16.015625 50.828125 16.015625 36.375 
Q 16.015625 21.96875 22.65625 14.328125 
Q 29.296875 6.6875 41.796875 6.6875 
Q 48.140625 6.6875 53.78125 8.984375 
Q 59.421875 11.28125 64.40625 15.921875 
L 64.40625 5.609375 
Q 59.234375 2.09375 53.4375 0.328125 
Q 47.65625 -1.421875 41.21875 -1.421875 
Q 24.65625 -1.421875 15.125 8.703125 
Q 5.609375 18.84375 5.609375 36.375 
Q 5.609375 53.953125 15.125 64.078125 
Q 24.65625 74.21875 41.21875 74.21875 
Q 47.75 74.21875 53.53125 72.484375 
Q 59.328125 70.75 64.40625 67.28125 
z
" id="DejaVuSans-67"/>
      <path d="M 39.40625 66.21875 
Q 28.65625 66.21875 22.328125 58.203125 
Q 16.015625 50.203125 16.015625 36.375 
Q 16.015625 22.609375 22.328125 14.59375 
Q 28.65625 6.59375 39.40625 6.59375 
Q 50.140625 6.59375 56.421875 14.59375 
Q 62.703125 22.609375 62.703125 36.375 
Q 62.703125 50.203125 56.421875 58.203125 
Q 50.140625 66.21875 39.40625 66.21875 
z
M 39.40625 74.21875 
Q 54.734375 74.21875 63.90625 63.9375 
Q 73.09375 53.65625 73.09375 36.375 
Q 73.09375 19.140625 63.90625 8.859375 
Q 54.734375 -1.421875 39.40625 -1.421875 
Q 24.03125 -1.421875 14.8125 8.828125 
Q 5.609375 19.09375 5.609375 36.375 
Q 5.609375 53.65625 14.8125 63.9375 
Q 24.03125 74.21875 39.40625 74.21875 
z
" id="DejaVuSans-79"/>
      <path d="M 9.8125 72.90625 
L 24.515625 72.90625 
L 43.109375 23.296875 
L 61.8125 72.90625 
L 76.515625 72.90625 
L 76.515625 0 
L 66.890625 0 
L 66.890625 64.015625 
L 48.09375 14.015625 
L 38.1875 14.015625 
L 19.390625 64.015625 
L 19.390625 0 
L 9.8125 0 
z
" id="DejaVuSans-77"/>
      <path d="M 48.6875 27.296875 
Q 48.6875 37.203125 44.609375 42.84375 
Q 40.53125 48.484375 33.40625 48.484375 
Q 26.265625 48.484375 22.1875 42.84375 
Q 18.109375 37.203125 18.109375 27.296875 
Q 18.109375 17.390625 22.1875 11.75 
Q 26.265625 6.109375 33.40625 6.109375 
Q 40.53125 6.109375 44.609375 11.75 
Q 48.6875 17.390625 48.6875 27.296875 
z
M 18.109375 46.390625 
Q 20.953125 51.265625 25.265625 53.625 
Q 29.59375 56 35.59375 56 
Q 45.5625 56 51.78125 48.09375 
Q 58.015625 40.1875 58.015625 27.296875 
Q 58.015625 14.40625 51.78125 6.484375 
Q 45.5625 -1.421875 35.59375 -1.421875 
Q 29.59375 -1.421875 25.265625 0.953125 
Q 20.953125 3.328125 18.109375 8.203125 
L 18.109375 0 
L 9.078125 0 
L 9.078125 75.984375 
L 18.109375 75.984375 
z
" id="DejaVuSans-98"/>
      <path d="M 49.609375 33.6875 
Q 49.609375 40.875 46.484375 44.671875 
Q 43.359375 48.484375 37.5 48.484375 
Q 33.5 48.484375 29.859375 46.4375 
Q 26.21875 44.390625 23.390625 40.484375 
Q 20.609375 36.625 18.9375 31.15625 
Q 17.28125 25.6875 17.28125 20.3125 
Q 17.28125 13.484375 20.40625 9.796875 
Q 23.53125 6.109375 29.296875 6.109375 
Q 33.546875 6.109375 37.1875 8.109375 
Q 40.828125 10.109375 43.40625 13.921875 
Q 46.1875 17.921875 47.890625 23.34375 
Q 49.609375 28.765625 49.609375 33.6875 
z
M 21.78125 46.390625 
Q 25.390625 51.125 30.296875 53.5625 
Q 35.203125 56 41.21875 56 
Q 49.609375 56 54.25 50.5 
Q 58.890625 45.015625 58.890625 35.109375 
Q 58.890625 27 56 19.65625 
Q 53.125 12.3125 47.703125 6.5 
Q 44.09375 2.640625 39.546875 0.609375 
Q 35.015625 -1.421875 29.984375 -1.421875 
Q 24.171875 -1.421875 20.21875 1 
Q 16.265625 3.421875 14.3125 8.203125 
L 8.6875 -20.796875 
L -0.296875 -20.796875 
L 14.40625 54.6875 
L 23.390625 54.6875 
z
" id="DejaVuSans-Oblique-112"/>
     </defs>
     <g transform="translate(40.25725 137.448)rotate(-90)scale(0.144 -0.144)">
      <use transform="translate(0 0.015625)" xlink:href="#DejaVuSans-67"/>
      <use transform="translate(69.824219 0.015625)" xlink:href="#DejaVuSans-79"/>
      <use transform="translate(148.535156 0.015625)" xlink:href="#DejaVuSans-77"/>
      <use transform="translate(234.814453 0.015625)" xlink:href="#DejaVuSans-98"/>
      <use transform="translate(298.291016 0.015625)" xlink:href="#DejaVuSans-32"/>
      <use transform="translate(330.078125 0.015625)" xlink:href="#DejaVuSans-Oblique-112"/>
     </g>
    </g>
   </g>
   <g id="line2d_14">
    <path clip-path="url(#p67694abb58)" d="M 81 160.931815 
L 83.049796 164.623689 
L 85.099592 161.161322 
L 89.199184 160.768774 
L 91.24898 165.344183 
L 93.298776 158.628692 
L 95.348571 166.390005 
L 97.398367 170.197055 
L 99.448163 165.816633 
L 101.497959 162.144395 
L 103.547755 163.439136 
L 105.597551 168.582533 
L 107.647347 166.942072 
L 109.697143 166.347897 
L 111.746939 163.343597 
L 113.796735 166.523031 
L 115.846531 165.436156 
L 117.896327 158.990858 
L 119.946122 160.564503 
L 121.995918 172.78546 
L 124.045714 148.781237 
L 126.09551 117.708768 
L 128.145306 102.831878 
L 130.195102 101.274147 
L 132.244898 117.997724 
L 134.294694 138.896706 
L 136.34449 148.368936 
L 138.394286 153.458338 
L 140.444082 150.91352 
L 142.493878 140.695652 
L 144.543673 112.065386 
L 146.593469 60.911231 
L 148.643265 39.97882 
L 150.693061 63.082766 
L 152.742857 95.011454 
L 154.792653 114.964668 
L 156.842449 131.103707 
L 158.892245 135.989044 
L 160.942041 134.131167 
L 162.991837 143.493237 
L 165.041633 146.340212 
L 167.091429 128.383687 
L 169.141224 111.925529 
L 171.19102 79.395161 
L 173.240816 61.787943 
L 175.290612 62.394507 
L 177.340408 70.866666 
L 179.390204 83.31256 
L 181.44 97.669548 
L 185.539592 130.671769 
L 187.589388 142.360211 
L 191.68898 153.426536 
L 193.738776 153.557137 
L 195.788571 143.827439 
L 197.838367 157.10346 
L 199.888163 153.218637 
L 201.937959 157.365222 
L 203.987755 156.126065 
L 206.037551 163.324524 
L 208.087347 167.72594 
L 210.137143 159.883502 
L 212.186939 168.642469 
L 214.236735 165.737664 
L 216.286531 159.134276 
L 218.336327 160.315861 
L 220.386122 142.665024 
L 222.435918 144.257447 
L 224.485714 150.914871 
L 226.53551 147.684629 
L 228.585306 153.927465 
L 230.635102 156.96335 
L 232.684898 159.631987 
L 234.734694 158.977729 
L 236.78449 162.202578 
L 238.834286 159.600782 
L 240.884082 152.474851 
L 242.933878 150.561785 
L 244.983673 157.208424 
L 247.033469 166.807989 
L 249.083265 168.308426 
L 251.133061 166.048058 
L 253.182857 160.046629 
L 255.232653 159.056477 
L 257.282449 158.561819 
L 259.332245 162.220361 
L 261.382041 168.772174 
L 263.431837 168.961119 
L 267.531429 166.653646 
L 269.581224 167.694637 
L 271.63102 163.51996 
L 273.680816 162.441308 
L 275.730612 167.240979 
L 277.780408 178.037339 
L 279.830204 167.863287 
L 281.88 167.622526 
L 283.929796 168.355667 
L 285.979592 169.501144 
L 288.029388 174.890757 
L 290.079184 176.501404 
L 292.12898 175.462498 
L 294.178776 174.558071 
L 296.228571 174.887811 
L 298.278367 176.405328 
L 300.328163 175.96194 
L 302.377959 176.694484 
L 304.427755 179.095564 
L 306.477551 170.229331 
L 308.527347 165.249277 
L 310.577143 166.039442 
L 312.626939 163.290311 
L 314.676735 165.504199 
L 316.726531 170.559674 
L 318.776327 170.436166 
L 320.826122 174.985399 
L 322.875918 167.87874 
L 324.925714 165.971977 
L 326.97551 163.19219 
L 329.025306 164.288196 
L 331.075102 158.432831 
L 333.124898 149.806576 
L 335.174694 154.551656 
L 337.22449 153.748832 
L 339.274286 156.642126 
L 341.324082 164.971631 
L 343.373878 167.06926 
L 345.423673 171.368741 
L 347.473469 172.291439 
L 349.523265 171.689024 
L 351.573061 167.411267 
L 353.622857 170.428935 
L 355.672653 164.486742 
L 357.722449 166.892334 
L 359.772245 163.806957 
L 361.822041 165.744917 
L 363.871837 171.262636 
L 365.921633 168.857237 
L 367.971429 170.631826 
L 370.021224 162.57227 
L 372.07102 157.169023 
L 374.120816 158.317267 
L 376.170612 161.396577 
L 378.220408 163.50863 
L 380.270204 160.173816 
L 382.32 162.233929 
L 384.369796 163.152803 
L 386.419592 163.428586 
L 388.469388 172.450599 
L 390.519184 173.041658 
L 392.56898 172.598562 
L 394.618776 168.076792 
L 396.668571 169.954869 
L 398.718367 168.688991 
L 400.768163 173.861152 
L 402.817959 174.459841 
L 404.867755 175.368593 
L 406.917551 175.548752 
L 408.967347 182.655322 
L 411.017143 183.40734 
L 413.066939 181.113846 
L 415.116735 181.375009 
L 417.166531 185.939184 
L 419.216327 179.314643 
L 421.266122 179.36582 
L 423.315918 175.493572 
L 425.365714 176.729038 
L 427.41551 179.02472 
L 429.465306 177.324595 
L 431.515102 180.894149 
L 433.564898 175.241061 
L 435.614694 173.151895 
L 437.66449 174.877624 
L 439.714286 168.756894 
L 441.764082 174.699725 
L 443.813878 171.565642 
L 445.863673 177.502596 
L 447.913469 179.639628 
L 449.963265 180.480347 
L 452.013061 184.21919 
L 454.062857 174.475612 
L 456.112653 179.372452 
L 458.162449 171.861939 
L 460.212245 175.009788 
L 462.262041 163.969505 
L 464.311837 172.43901 
L 466.361633 171.39467 
L 468.411429 182.211704 
L 470.461224 179.942155 
L 472.51102 184.233122 
L 474.560816 170.655598 
L 476.610612 170.69477 
L 478.660408 160.120859 
L 482.76 149.635435 
L 484.809796 152.324399 
L 486.859592 155.656871 
L 488.909388 162.010358 
L 490.959184 160.606713 
L 493.00898 156.596918 
L 495.058776 155.627223 
L 497.108571 162.75478 
L 499.158367 155.861401 
L 501.208163 151.151374 
L 503.257959 155.110708 
L 507.357551 157.356978 
L 509.407347 168.986658 
L 511.457143 164.735872 
L 513.506939 161.976955 
L 515.556735 154.800483 
L 517.606531 167.800958 
L 519.656327 178.853872 
L 521.706122 172.041757 
L 523.755918 172.196824 
L 525.805714 173.848598 
L 527.85551 172.692504 
L 529.905306 169.525019 
L 531.955102 170.243294 
L 534.004898 168.427659 
L 536.054694 177.167878 
L 538.10449 170.334001 
L 540.154286 168.238413 
L 542.204082 167.158967 
L 544.253878 175.388558 
L 546.303673 163.789598 
L 548.353469 174.602736 
L 550.403265 184.072548 
L 552.453061 179.194232 
L 554.502857 171.020112 
L 556.552653 173.772886 
L 558.602449 172.402031 
L 560.652245 170.687281 
L 562.702041 173.114577 
L 564.751837 170.650483 
L 568.851429 170.899735 
L 570.901224 174.521128 
L 572.95102 169.420396 
L 575.000816 169.251521 
L 577.050612 160.462651 
L 579.100408 162.805064 
L 581.150204 156.931109 
L 583.2 165.822755 
L 583.2 165.822755 
" style="fill:none;stroke:#0000ff;stroke-linecap:square;stroke-width:1.5;"/>
   </g>
   <g id="patch_3">
    <path d="M 81 192.24 
L 81 25.92 
" style="fill:none;stroke:#000000;stroke-linecap:square;stroke-linejoin:miter;stroke-width:0.8;"/>
   </g>
   <g id="patch_4">
    <path d="M 583.2 192.24 
L 583.2 25.92 
" style="fill:none;stroke:#000000;stroke-linecap:square;stroke-linejoin:miter;stroke-width:0.8;"/>
   </g>
   <g id="patch_5">
    <path d="M 81 192.24 
L 583.2 192.24 
" style="fill:none;stroke:#000000;stroke-linecap:square;stroke-linejoin:miter;stroke-width:0.8;"/>
   </g>
   <g id="patch_6">
    <path d="M 81 25.92 
L 583.2 25.92 
" style="fill:none;stroke:#000000;stroke-linecap:square;stroke-linejoin:miter;stroke-width:0.8;"/>
   </g>
   <g id="text_16">
    <!-- V1, Num Trials=160 All stimulated trials -->
    <defs>
     <path d="M 28.609375 0 
L 0.78125 72.90625 
L 11.078125 72.90625 
L 34.1875 11.53125 
L 57.328125 72.90625 
L 67.578125 72.90625 
L 39.796875 0 
z
" id="DejaVuSans-86"/>
     <path d="M 11.71875 12.40625 
L 22.015625 12.40625 
L 22.015625 4 
L 14.015625 -11.625 
L 7.71875 -11.625 
L 11.71875 4 
z
" id="DejaVuSans-44"/>
     <path d="M 9.8125 72.90625 
L 23.09375 72.90625 
L 55.421875 11.921875 
L 55.421875 72.90625 
L 64.984375 72.90625 
L 64.984375 0 
L 51.703125 0 
L 19.390625 60.984375 
L 19.390625 0 
L 9.8125 0 
z
" id="DejaVuSans-78"/>
     <path d="M 8.5 21.578125 
L 8.5 54.6875 
L 17.484375 54.6875 
L 17.484375 21.921875 
Q 17.484375 14.15625 20.5 10.265625 
Q 23.53125 6.390625 29.59375 6.390625 
Q 36.859375 6.390625 41.078125 11.03125 
Q 45.3125 15.671875 45.3125 23.6875 
L 45.3125 54.6875 
L 54.296875 54.6875 
L 54.296875 0 
L 45.3125 0 
L 45.3125 8.40625 
Q 42.046875 3.421875 37.71875 1 
Q 33.40625 -1.421875 27.6875 -1.421875 
Q 18.265625 -1.421875 13.375 4.4375 
Q 8.5 10.296875 8.5 21.578125 
z
M 31.109375 56 
z
" id="DejaVuSans-117"/>
     <path d="M 41.109375 46.296875 
Q 39.59375 47.171875 37.8125 47.578125 
Q 36.03125 48 33.890625 48 
Q 26.265625 48 22.1875 43.046875 
Q 18.109375 38.09375 18.109375 28.8125 
L 18.109375 0 
L 9.078125 0 
L 9.078125 54.6875 
L 18.109375 54.6875 
L 18.109375 46.1875 
Q 20.953125 51.171875 25.484375 53.578125 
Q 30.03125 56 36.53125 56 
Q 37.453125 56 38.578125 55.875 
Q 39.703125 55.765625 41.0625 55.515625 
z
" id="DejaVuSans-114"/>
     <path d="M 34.28125 27.484375 
Q 23.390625 27.484375 19.1875 25 
Q 14.984375 22.515625 14.984375 16.5 
Q 14.984375 11.71875 18.140625 8.90625 
Q 21.296875 6.109375 26.703125 6.109375 
Q 34.1875 6.109375 38.703125 11.40625 
Q 43.21875 16.703125 43.21875 25.484375 
L 43.21875 27.484375 
z
M 52.203125 31.203125 
L 52.203125 0 
L 43.21875 0 
L 43.21875 8.296875 
Q 40.140625 3.328125 35.546875 0.953125 
Q 30.953125 -1.421875 24.3125 -1.421875 
Q 15.921875 -1.421875 10.953125 3.296875 
Q 6 8.015625 6 15.921875 
Q 6 25.140625 12.171875 29.828125 
Q 18.359375 34.515625 30.609375 34.515625 
L 43.21875 34.515625 
L 43.21875 35.40625 
Q 43.21875 41.609375 39.140625 45 
Q 35.0625 48.390625 27.6875 48.390625 
Q 23 48.390625 18.546875 47.265625 
Q 14.109375 46.140625 10.015625 43.890625 
L 10.015625 52.203125 
Q 14.9375 54.109375 19.578125 55.046875 
Q 24.21875 56 28.609375 56 
Q 40.484375 56 46.34375 49.84375 
Q 52.203125 43.703125 52.203125 31.203125 
z
" id="DejaVuSans-97"/>
     <path d="M 9.421875 75.984375 
L 18.40625 75.984375 
L 18.40625 0 
L 9.421875 0 
z
" id="DejaVuSans-108"/>
     <path d="M 10.59375 45.40625 
L 73.1875 45.40625 
L 73.1875 37.203125 
L 10.59375 37.203125 
z
M 10.59375 25.484375 
L 73.1875 25.484375 
L 73.1875 17.1875 
L 10.59375 17.1875 
z
" id="DejaVuSans-61"/>
     <path d="M 34.1875 63.1875 
L 20.796875 26.90625 
L 47.609375 26.90625 
z
M 28.609375 72.90625 
L 39.796875 72.90625 
L 67.578125 0 
L 57.328125 0 
L 50.6875 18.703125 
L 17.828125 18.703125 
L 11.1875 0 
L 0.78125 0 
z
" id="DejaVuSans-65"/>
     <path d="M 18.3125 70.21875 
L 18.3125 54.6875 
L 36.8125 54.6875 
L 36.8125 47.703125 
L 18.3125 47.703125 
L 18.3125 18.015625 
Q 18.3125 11.328125 20.140625 9.421875 
Q 21.96875 7.515625 27.59375 7.515625 
L 36.8125 7.515625 
L 36.8125 0 
L 27.59375 0 
Q 17.1875 0 13.234375 3.875 
Q 9.28125 7.765625 9.28125 18.015625 
L 9.28125 47.703125 
L 2.6875 47.703125 
L 2.6875 54.6875 
L 9.28125 54.6875 
L 9.28125 70.21875 
z
" id="DejaVuSans-116"/>
     <path d="M 45.40625 46.390625 
L 45.40625 75.984375 
L 54.390625 75.984375 
L 54.390625 0 
L 45.40625 0 
L 45.40625 8.203125 
Q 42.578125 3.328125 38.25 0.953125 
Q 33.9375 -1.421875 27.875 -1.421875 
Q 17.96875 -1.421875 11.734375 6.484375 
Q 5.515625 14.40625 5.515625 27.296875 
Q 5.515625 40.1875 11.734375 48.09375 
Q 17.96875 56 27.875 56 
Q 33.9375 56 38.25 53.625 
Q 42.578125 51.265625 45.40625 46.390625 
z
M 14.796875 27.296875 
Q 14.796875 17.390625 18.875 11.75 
Q 22.953125 6.109375 30.078125 6.109375 
Q 37.203125 6.109375 41.296875 11.75 
Q 45.40625 17.390625 45.40625 27.296875 
Q 45.40625 37.203125 41.296875 42.84375 
Q 37.203125 48.484375 30.078125 48.484375 
Q 22.953125 48.484375 18.875 42.84375 
Q 14.796875 37.203125 14.796875 27.296875 
z
" id="DejaVuSans-100"/>
    </defs>
    <g transform="translate(211.485 19.92)scale(0.12 -0.12)">
     <use xlink:href="#DejaVuSans-86"/>
     <use x="68.408203" xlink:href="#DejaVuSans-49"/>
     <use x="132.03125" xlink:href="#DejaVuSans-44"/>
     <use x="163.818359" xlink:href="#DejaVuSans-32"/>
     <use x="195.605469" xlink:href="#DejaVuSans-78"/>
     <use x="270.410156" xlink:href="#DejaVuSans-117"/>
     <use x="333.789062" xlink:href="#DejaVuSans-109"/>
     <use x="431.201172" xlink:href="#DejaVuSans-32"/>
     <use x="462.988281" xlink:href="#DejaVuSans-84"/>
     <use x="523.853516" xlink:href="#DejaVuSans-114"/>
     <use x="564.966797" xlink:href="#DejaVuSans-105"/>
     <use x="592.75" xlink:href="#DejaVuSans-97"/>
     <use x="654.029297" xlink:href="#DejaVuSans-108"/>
     <use x="681.8125" xlink:href="#DejaVuSans-115"/>
     <use x="733.912109" xlink:href="#DejaVuSans-61"/>
     <use x="817.701172" xlink:href="#DejaVuSans-49"/>
     <use x="881.324219" xlink:href="#DejaVuSans-54"/>
     <use x="944.947266" xlink:href="#DejaVuSans-48"/>
     <use x="1008.570312" xlink:href="#DejaVuSans-32"/>
     <use x="1040.357422" xlink:href="#DejaVuSans-65"/>
     <use x="1108.765625" xlink:href="#DejaVuSans-108"/>
     <use x="1136.548828" xlink:href="#DejaVuSans-108"/>
     <use x="1164.332031" xlink:href="#DejaVuSans-32"/>
     <use x="1196.119141" xlink:href="#DejaVuSans-115"/>
     <use x="1248.21875" xlink:href="#DejaVuSans-116"/>
     <use x="1287.427734" xlink:href="#DejaVuSans-105"/>
     <use x="1315.210938" xlink:href="#DejaVuSans-109"/>
     <use x="1412.623047" xlink:href="#DejaVuSans-117"/>
     <use x="1476.001953" xlink:href="#DejaVuSans-108"/>
     <use x="1503.785156" xlink:href="#DejaVuSans-97"/>
     <use x="1565.064453" xlink:href="#DejaVuSans-116"/>
     <use x="1604.273438" xlink:href="#DejaVuSans-101"/>
     <use x="1665.796875" xlink:href="#DejaVuSans-100"/>
     <use x="1729.273438" xlink:href="#DejaVuSans-32"/>
     <use x="1761.060547" xlink:href="#DejaVuSans-116"/>
     <use x="1800.269531" xlink:href="#DejaVuSans-114"/>
     <use x="1841.382812" xlink:href="#DejaVuSans-105"/>
     <use x="1869.166016" xlink:href="#DejaVuSans-97"/>
     <use x="1930.445312" xlink:href="#DejaVuSans-108"/>
     <use x="1958.228516" xlink:href="#DejaVuSans-115"/>
    </g>
   </g>
   <g id="legend_1">
    <g id="patch_7">
     <path d="M 440.16 70.77375 
L 574.8 70.77375 
Q 577.2 70.77375 577.2 68.37375 
L 577.2 34.32 
Q 577.2 31.92 574.8 31.92 
L 440.16 31.92 
Q 437.76 31.92 437.76 34.32 
L 437.76 68.37375 
Q 437.76 70.77375 440.16 70.77375 
z
" style="fill:#ffffff;opacity:0.8;stroke:#cccccc;stroke-linejoin:miter;"/>
    </g>
    <g id="line2d_15">
     <path d="M 442.56 41.64 
L 466.56 41.64 
" style="fill:none;stroke:#0000ff;stroke-linecap:square;stroke-width:1.5;"/>
    </g>
    <g id="line2d_16"/>
    <g id="text_17">
     <!-- COM-Binomial $p$ -->
     <defs>
      <path d="M 4.890625 31.390625 
L 31.203125 31.390625 
L 31.203125 23.390625 
L 4.890625 23.390625 
z
" id="DejaVuSans-45"/>
      <path d="M 19.671875 34.8125 
L 19.671875 8.109375 
L 35.5 8.109375 
Q 43.453125 8.109375 47.28125 11.40625 
Q 51.125 14.703125 51.125 21.484375 
Q 51.125 28.328125 47.28125 31.5625 
Q 43.453125 34.8125 35.5 34.8125 
z
M 19.671875 64.796875 
L 19.671875 42.828125 
L 34.28125 42.828125 
Q 41.5 42.828125 45.03125 45.53125 
Q 48.578125 48.25 48.578125 53.8125 
Q 48.578125 59.328125 45.03125 62.0625 
Q 41.5 64.796875 34.28125 64.796875 
z
M 9.8125 72.90625 
L 35.015625 72.90625 
Q 46.296875 72.90625 52.390625 68.21875 
Q 58.5 63.53125 58.5 54.890625 
Q 58.5 48.1875 55.375 44.234375 
Q 52.25 40.28125 46.1875 39.3125 
Q 53.46875 37.75 57.5 32.78125 
Q 61.53125 27.828125 61.53125 20.40625 
Q 61.53125 10.640625 54.890625 5.3125 
Q 48.25 0 35.984375 0 
L 9.8125 0 
z
" id="DejaVuSans-66"/>
      <path d="M 54.890625 33.015625 
L 54.890625 0 
L 45.90625 0 
L 45.90625 32.71875 
Q 45.90625 40.484375 42.875 44.328125 
Q 39.84375 48.1875 33.796875 48.1875 
Q 26.515625 48.1875 22.3125 43.546875 
Q 18.109375 38.921875 18.109375 30.90625 
L 18.109375 0 
L 9.078125 0 
L 9.078125 54.6875 
L 18.109375 54.6875 
L 18.109375 46.1875 
Q 21.34375 51.125 25.703125 53.5625 
Q 30.078125 56 35.796875 56 
Q 45.21875 56 50.046875 50.171875 
Q 54.890625 44.34375 54.890625 33.015625 
z
" id="DejaVuSans-110"/>
      <path d="M 30.609375 48.390625 
Q 23.390625 48.390625 19.1875 42.75 
Q 14.984375 37.109375 14.984375 27.296875 
Q 14.984375 17.484375 19.15625 11.84375 
Q 23.34375 6.203125 30.609375 6.203125 
Q 37.796875 6.203125 41.984375 11.859375 
Q 46.1875 17.53125 46.1875 27.296875 
Q 46.1875 37.015625 41.984375 42.703125 
Q 37.796875 48.390625 30.609375 48.390625 
z
M 30.609375 56 
Q 42.328125 56 49.015625 48.375 
Q 55.71875 40.765625 55.71875 27.296875 
Q 55.71875 13.875 49.015625 6.21875 
Q 42.328125 -1.421875 30.609375 -1.421875 
Q 18.84375 -1.421875 12.171875 6.21875 
Q 5.515625 13.875 5.515625 27.296875 
Q 5.515625 40.765625 12.171875 48.375 
Q 18.84375 56 30.609375 56 
z
" id="DejaVuSans-111"/>
     </defs>
     <g transform="translate(476.16 45.84)scale(0.12 -0.12)">
      <use transform="translate(0 0.015625)" xlink:href="#DejaVuSans-67"/>
      <use transform="translate(69.824219 0.015625)" xlink:href="#DejaVuSans-79"/>
      <use transform="translate(148.535156 0.015625)" xlink:href="#DejaVuSans-77"/>
      <use transform="translate(234.814453 0.015625)" xlink:href="#DejaVuSans-45"/>
      <use transform="translate(270.898438 0.015625)" xlink:href="#DejaVuSans-66"/>
      <use transform="translate(339.501953 0.015625)" xlink:href="#DejaVuSans-105"/>
      <use transform="translate(367.285156 0.015625)" xlink:href="#DejaVuSans-110"/>
      <use transform="translate(430.664062 0.015625)" xlink:href="#DejaVuSans-111"/>
      <use transform="translate(491.845703 0.015625)" xlink:href="#DejaVuSans-109"/>
      <use transform="translate(589.257812 0.015625)" xlink:href="#DejaVuSans-105"/>
      <use transform="translate(617.041016 0.015625)" xlink:href="#DejaVuSans-97"/>
      <use transform="translate(678.320312 0.015625)" xlink:href="#DejaVuSans-108"/>
      <use transform="translate(706.103516 0.015625)" xlink:href="#DejaVuSans-32"/>
      <use transform="translate(737.890625 0.015625)" xlink:href="#DejaVuSans-Oblique-112"/>
     </g>
    </g>
    <g id="patch_8">
     <path d="M 442.56 63.478125 
L 466.56 63.478125 
L 466.56 55.078125 
L 442.56 55.078125 
z
" style="fill:#0000ff;opacity:0.3;stroke:#0000ff;stroke-linejoin:miter;"/>
    </g>
    <g id="text_18">
     <!-- Std. Err. -->
     <defs>
      <path d="M 53.515625 70.515625 
L 53.515625 60.890625 
Q 47.90625 63.578125 42.921875 64.890625 
Q 37.9375 66.21875 33.296875 66.21875 
Q 25.25 66.21875 20.875 63.09375 
Q 16.5 59.96875 16.5 54.203125 
Q 16.5 49.359375 19.40625 46.890625 
Q 22.3125 44.4375 30.421875 42.921875 
L 36.375 41.703125 
Q 47.40625 39.59375 52.65625 34.296875 
Q 57.90625 29 57.90625 20.125 
Q 57.90625 9.515625 50.796875 4.046875 
Q 43.703125 -1.421875 29.984375 -1.421875 
Q 24.8125 -1.421875 18.96875 -0.25 
Q 13.140625 0.921875 6.890625 3.21875 
L 6.890625 13.375 
Q 12.890625 10.015625 18.65625 8.296875 
Q 24.421875 6.59375 29.984375 6.59375 
Q 38.421875 6.59375 43.015625 9.90625 
Q 47.609375 13.234375 47.609375 19.390625 
Q 47.609375 24.75 44.3125 27.78125 
Q 41.015625 30.8125 33.5 32.328125 
L 27.484375 33.5 
Q 16.453125 35.6875 11.515625 40.375 
Q 6.59375 45.0625 6.59375 53.421875 
Q 6.59375 63.09375 13.40625 68.65625 
Q 20.21875 74.21875 32.171875 74.21875 
Q 37.3125 74.21875 42.625 73.28125 
Q 47.953125 72.359375 53.515625 70.515625 
z
" id="DejaVuSans-83"/>
      <path d="M 9.8125 72.90625 
L 55.90625 72.90625 
L 55.90625 64.59375 
L 19.671875 64.59375 
L 19.671875 43.015625 
L 54.390625 43.015625 
L 54.390625 34.71875 
L 19.671875 34.71875 
L 19.671875 8.296875 
L 56.78125 8.296875 
L 56.78125 0 
L 9.8125 0 
z
" id="DejaVuSans-69"/>
     </defs>
     <g transform="translate(476.16 63.478125)scale(0.12 -0.12)">
      <use xlink:href="#DejaVuSans-83"/>
      <use x="63.476562" xlink:href="#DejaVuSans-116"/>
      <use x="102.685547" xlink:href="#DejaVuSans-100"/>
      <use x="166.162109" xlink:href="#DejaVuSans-46"/>
      <use x="197.949219" xlink:href="#DejaVuSans-32"/>
      <use x="229.736328" xlink:href="#DejaVuSans-69"/>
      <use x="292.919922" xlink:href="#DejaVuSans-114"/>
      <use x="334.017578" xlink:href="#DejaVuSans-114"/>
      <use x="374.990234" xlink:href="#DejaVuSans-46"/>
     </g>
    </g>
   </g>
  </g>
 </g>
 <defs>
  <clipPath id="p67694abb58">
   <rect height="166.32" width="502.2" x="81" y="25.92"/>
  </clipPath>
 </defs>
</svg>
