<?xml version="1.0" encoding="utf-8" standalone="no"?>
<!DOCTYPE svg PUBLIC "-//W3C//DTD SVG 1.1//EN"
  "http://www.w3.org/Graphics/SVG/1.1/DTD/svg11.dtd">
<!-- Created with matplotlib (https://matplotlib.org/) -->
<svg height="223.2pt" version="1.1" viewBox="0 0 576 223.2" width="576pt" xmlns="http://www.w3.org/2000/svg" xmlns:xlink="http://www.w3.org/1999/xlink">
 <defs>
  <style type="text/css">
*{stroke-linecap:butt;stroke-linejoin:round;}
  </style>
 </defs>
 <g id="figure_1">
  <g id="patch_1">
   <path d="M 0 223.2 
L 576 223.2 
L 576 0 
L 0 0 
z
" style="fill:#ffffff;"/>
  </g>
  <g id="axes_1">
   <g id="patch_2">
    <path d="M 72.56 174.76 
L 565.2 174.76 
L 565.2 26.88 
L 72.56 26.88 
z
" style="fill:#ffffff;"/>
   </g>
   <g id="PolyCollection_1">
    <defs>
     <path d="M 152.634875 -48.44 
L 152.634875 -196.32 
L 403.12979 -196.32 
L 403.12979 -48.44 
L 403.12979 -48.44 
L 152.634875 -48.44 
z
" id="mb978379aed" style="stroke:#808080;stroke-opacity:0.3;"/>
    </defs>
    <g clip-path="url(#p5a1e223923)">
     <use style="fill:#808080;fill-opacity:0.3;stroke:#808080;stroke-opacity:0.3;" x="0" xlink:href="#mb978379aed" y="223.2"/>
    </g>
   </g>
   <g id="PolyCollection_2">
    <defs>
     <path d="M 72.56 -129.722361 
L 72.56 -79.680777 
L 74.229966 -81.689737 
L 75.899932 -69.578921 
L 77.569898 -58.716126 
L 79.239864 -52.642438 
L 80.909831 -57.450453 
L 82.579797 -54.698027 
L 84.249763 -57.589818 
L 85.919729 -59.913956 
L 87.589695 -52.093962 
L 89.259661 -51.28698 
L 90.929627 -52.795209 
L 92.599593 -55.510078 
L 94.269559 -57.514806 
L 95.939525 -62.30821 
L 97.609492 -59.969693 
L 99.279458 -91.812324 
L 100.949424 -83.300581 
L 102.61939 -96.378143 
L 104.289356 -85.479653 
L 105.959322 -97.310061 
L 107.629288 -103.279396 
L 109.299254 -93.500918 
L 110.96922 -101.47495 
L 112.639186 -87.608122 
L 114.309153 -83.50287 
L 115.979119 -69.107512 
L 117.649085 -68.267851 
L 119.319051 -71.141774 
L 120.989017 -75.416902 
L 122.658983 -74.392065 
L 124.328949 -83.926229 
L 125.998915 -74.749078 
L 127.668881 -89.366246 
L 129.338847 -59.642766 
L 131.008814 -58.19962 
L 132.67878 -65.35725 
L 134.348746 -75.777837 
L 136.018712 -70.980436 
L 137.688678 -56.118106 
L 139.358644 -55.293379 
L 141.02861 -49.895012 
L 142.698576 -51.000052 
L 144.368542 -53.409784 
L 146.038508 -56.596056 
L 147.708475 -55.299718 
L 149.378441 -65.168727 
L 151.048407 -59.828244 
L 152.718373 -71.240548 
L 154.388339 -70.866694 
L 156.058305 -68.217967 
L 157.728271 -61.389779 
L 159.398237 -61.343773 
L 161.068203 -52.467901 
L 162.738169 -52.72083 
L 164.408136 -50.96691 
L 166.078102 -53.203492 
L 167.748068 -56.389258 
L 169.418034 -53.137071 
L 171.088 -53.118812 
L 172.757966 -50.600353 
L 174.427932 -50.337808 
L 176.097898 -49.760048 
L 177.767864 -57.657063 
L 179.437831 -60.089833 
L 181.107797 -61.146659 
L 182.777763 -56.04764 
L 184.447729 -54.537684 
L 186.117695 -54.524541 
L 187.787661 -53.362647 
L 189.457627 -55.244661 
L 191.127593 -58.556483 
L 192.797559 -62.830778 
L 194.467525 -60.669818 
L 196.137492 -64.274345 
L 197.807458 -60.702505 
L 199.477424 -60.720972 
L 201.14739 -58.375683 
L 202.817356 -57.667516 
L 204.487322 -52.682299 
L 206.157288 -64.077091 
L 207.827254 -58.385086 
L 209.49722 -55.511602 
L 211.167186 -54.945146 
L 212.837153 -52.669566 
L 214.507119 -52.796474 
L 216.177085 -63.890745 
L 217.847051 -70.389378 
L 219.517017 -74.458914 
L 221.186983 -74.55245 
L 222.856949 -55.640941 
L 224.526915 -68.429677 
L 226.196881 -67.780974 
L 227.866847 -84.606603 
L 229.536814 -83.699003 
L 231.20678 -75.330868 
L 232.876746 -55.781995 
L 234.546712 -68.36271 
L 236.216678 -67.507145 
L 237.886644 -59.353142 
L 239.55661 -67.770948 
L 241.226576 -53.11107 
L 242.896542 -76.547436 
L 244.566508 -64.143378 
L 246.236475 -54.469484 
L 247.906441 -54.292799 
L 249.576407 -56.494158 
L 251.246373 -55.447388 
L 252.916339 -61.801011 
L 254.586305 -53.644754 
L 256.256271 -55.304838 
L 257.926237 -59.726472 
L 259.596203 -84.471426 
L 261.266169 -80.644351 
L 262.936136 -63.798734 
L 264.606102 -67.10381 
L 266.276068 -72.883172 
L 267.946034 -73.673767 
L 269.616 -71.277057 
L 271.285966 -77.295709 
L 272.955932 -77.439437 
L 274.625898 -76.431087 
L 276.295864 -56.70288 
L 277.965831 -58.36291 
L 279.635797 -61.774869 
L 281.305763 -61.684154 
L 282.975729 -56.764126 
L 284.645695 -57.724396 
L 286.315661 -60.708271 
L 287.985627 -55.293556 
L 289.655593 -53.603885 
L 291.325559 -54.06246 
L 292.995525 -54.064144 
L 294.665492 -50.997624 
L 296.335458 -52.267722 
L 298.005424 -53.072541 
L 299.67539 -59.447303 
L 301.345356 -56.63639 
L 303.015322 -56.953166 
L 304.685288 -56.646761 
L 306.355254 -63.959031 
L 308.02522 -69.818256 
L 309.695186 -69.940499 
L 311.365153 -77.916321 
L 313.035119 -70.146059 
L 314.705085 -68.152534 
L 316.375051 -68.866617 
L 318.045017 -62.932977 
L 319.714983 -59.329052 
L 321.384949 -62.064818 
L 323.054915 -63.971947 
L 324.724881 -53.782228 
L 326.394847 -52.929487 
L 328.064814 -51.025962 
L 329.73478 -56.118536 
L 331.404746 -65.826387 
L 333.074712 -61.504157 
L 334.744678 -67.527066 
L 336.414644 -67.358402 
L 338.08461 -62.795308 
L 339.754576 -63.619726 
L 341.424542 -72.147723 
L 343.094508 -82.46013 
L 344.764475 -66.739148 
L 346.434441 -76.546436 
L 348.104407 -62.296154 
L 349.774373 -57.592177 
L 351.444339 -51.777795 
L 353.114305 -53.923584 
L 354.784271 -51.911527 
L 356.454237 -60.761264 
L 358.124203 -59.717101 
L 359.794169 -54.782379 
L 361.464136 -51.660413 
L 363.134102 -52.040982 
L 364.804068 -54.818069 
L 366.474034 -56.382699 
L 368.144 -53.3378 
L 369.813966 -58.257376 
L 371.483932 -54.295988 
L 373.153898 -51.365603 
L 374.823864 -52.015745 
L 376.493831 -64.125581 
L 378.163797 -55.863729 
L 379.833763 -68.093358 
L 381.503729 -62.166837 
L 383.173695 -60.839607 
L 384.843661 -55.791395 
L 386.513627 -56.393692 
L 388.183593 -53.993083 
L 389.853559 -51.543125 
L 391.523525 -51.710926 
L 393.193492 -51.50371 
L 394.863458 -53.13661 
L 396.533424 -50.268483 
L 398.20339 -49.346766 
L 399.873356 -49.63623 
L 401.543322 -50.976728 
L 403.213288 -52.261965 
L 404.883254 -56.786547 
L 406.55322 -65.65298 
L 408.223186 -64.919777 
L 409.893153 -69.620643 
L 411.563119 -81.307131 
L 413.233085 -87.417315 
L 414.903051 -89.321258 
L 416.573017 -85.645977 
L 418.242983 -76.718851 
L 419.912949 -77.652949 
L 421.582915 -75.141366 
L 423.252881 -66.919809 
L 424.922847 -65.872941 
L 426.592814 -59.552431 
L 428.26278 -57.387654 
L 429.932746 -57.324695 
L 431.602712 -55.878213 
L 433.272678 -52.334259 
L 434.942644 -51.92942 
L 436.61261 -49.849635 
L 438.282576 -49.774609 
L 439.952542 -51.620862 
L 441.622508 -51.097677 
L 443.292475 -51.108456 
L 444.962441 -53.133889 
L 446.632407 -55.521176 
L 448.302373 -59.900202 
L 449.972339 -66.40655 
L 451.642305 -72.635575 
L 453.312271 -57.14838 
L 454.982237 -56.820966 
L 456.652203 -57.803053 
L 458.322169 -57.529891 
L 459.992136 -77.321409 
L 461.662102 -84.595254 
L 463.332068 -81.614877 
L 465.002034 -88.429651 
L 466.672 -95.460944 
L 468.341966 -88.773604 
L 470.011932 -99.207967 
L 471.681898 -108.516778 
L 473.351864 -101.968296 
L 475.021831 -68.768283 
L 476.691797 -56.10299 
L 478.361763 -52.36668 
L 480.031729 -51.638322 
L 481.701695 -51.760158 
L 483.371661 -51.702031 
L 485.041627 -64.276186 
L 486.711593 -64.942254 
L 488.381559 -69.73368 
L 490.051525 -78.182524 
L 491.721492 -76.433303 
L 493.391458 -95.162087 
L 495.061424 -90.200818 
L 496.73139 -68.276501 
L 498.401356 -66.792792 
L 500.071322 -56.612553 
L 501.741288 -59.196945 
L 503.411254 -59.834354 
L 505.08122 -64.126517 
L 506.751186 -70.216226 
L 508.421153 -68.587083 
L 510.091119 -65.048999 
L 511.761085 -69.180043 
L 513.431051 -77.048789 
L 515.101017 -65.839344 
L 516.770983 -75.403863 
L 518.440949 -63.599398 
L 520.110915 -56.043611 
L 521.780881 -56.663173 
L 523.450847 -56.88135 
L 525.120814 -55.343097 
L 526.79078 -54.05319 
L 528.460746 -53.674318 
L 530.130712 -51.201301 
L 531.800678 -51.279895 
L 533.470644 -59.838671 
L 535.14061 -51.402277 
L 536.810576 -53.542003 
L 538.480542 -55.060957 
L 540.150508 -61.170788 
L 541.820475 -78.283846 
L 543.490441 -88.643785 
L 545.160407 -99.802659 
L 546.830373 -110.678627 
L 548.500339 -103.53072 
L 550.170305 -93.225817 
L 551.840271 -94.660739 
L 553.510237 -82.411207 
L 555.180203 -80.112817 
L 556.850169 -71.663149 
L 558.520136 -66.784733 
L 560.190102 -65.427415 
L 561.860068 -57.031121 
L 563.530034 -57.813707 
L 565.2 -58.392229 
L 565.2 -88.980417 
L 565.2 -88.980417 
L 563.530034 -125.028346 
L 561.860068 -116.172827 
L 560.190102 -132.009186 
L 558.520136 -132.902433 
L 556.850169 -138.116398 
L 555.180203 -147.312938 
L 553.510237 -149.083183 
L 551.840271 -159.382702 
L 550.170305 -149.548354 
L 548.500339 -168.516502 
L 546.830373 -171.843027 
L 545.160407 -163.261195 
L 543.490441 -144.928715 
L 541.820475 -147.783758 
L 540.150508 -123.812038 
L 538.480542 -100.242748 
L 536.810576 -100.666843 
L 535.14061 -78.130204 
L 533.470644 -77.85734 
L 531.800678 -62.526553 
L 530.130712 -62.633465 
L 528.460746 -78.361127 
L 526.79078 -115.049629 
L 525.120814 -123.364982 
L 523.450847 -124.859414 
L 521.780881 -124.463902 
L 520.110915 -123.900181 
L 518.440949 -131.316862 
L 516.770983 -122.213644 
L 515.101017 -91.197389 
L 513.431051 -115.450326 
L 511.761085 -101.983114 
L 510.091119 -89.803245 
L 508.421153 -92.591216 
L 506.751186 -136.471953 
L 505.08122 -85.417051 
L 503.411254 -76.557492 
L 501.741288 -85.404112 
L 500.071322 -64.875145 
L 498.401356 -83.473909 
L 496.73139 -82.589712 
L 495.061424 -153.209365 
L 493.391458 -169.438619 
L 491.721492 -125.053217 
L 490.051525 -117.851787 
L 488.381559 -111.497263 
L 486.711593 -121.198575 
L 485.041627 -114.314091 
L 483.371661 -90.680654 
L 481.701695 -68.569736 
L 480.031729 -60.290188 
L 478.361763 -78.797635 
L 476.691797 -100.103853 
L 475.021831 -114.688276 
L 473.351864 -178.43467 
L 471.681898 -183.140167 
L 470.011932 -171.99745 
L 468.341966 -141.681749 
L 466.672 -163.080524 
L 465.002034 -176.585577 
L 463.332068 -171.388252 
L 461.662102 -174.435814 
L 459.992136 -168.561656 
L 458.322169 -123.977222 
L 456.652203 -126.076324 
L 454.982237 -125.300402 
L 453.312271 -125.362515 
L 451.642305 -153.504255 
L 449.972339 -116.851744 
L 448.302373 -77.794306 
L 446.632407 -69.856942 
L 444.962441 -60.125651 
L 443.292475 -56.427009 
L 441.622508 -56.700404 
L 439.952542 -60.061355 
L 438.282576 -55.458606 
L 436.61261 -52.124086 
L 434.942644 -60.685674 
L 433.272678 -73.668179 
L 431.602712 -118.492356 
L 429.932746 -106.162326 
L 428.26278 -78.070004 
L 426.592814 -80.12841 
L 424.922847 -109.360101 
L 423.252881 -119.199127 
L 421.582915 -135.026676 
L 419.912949 -129.24289 
L 418.242983 -128.232141 
L 416.573017 -165.626448 
L 414.903051 -165.949388 
L 413.233085 -156.890644 
L 411.563119 -125.303083 
L 409.893153 -110.664005 
L 408.223186 -104.857413 
L 406.55322 -105.639255 
L 404.883254 -75.615698 
L 403.213288 -61.046705 
L 401.543322 -55.131158 
L 399.873356 -51.908526 
L 398.20339 -50.888808 
L 396.533424 -53.365491 
L 394.863458 -59.34376 
L 393.193492 -55.241322 
L 391.523525 -56.668784 
L 389.853559 -56.134539 
L 388.183593 -62.52267 
L 386.513627 -66.874241 
L 384.843661 -72.051237 
L 383.173695 -86.301945 
L 381.503729 -99.667984 
L 379.833763 -112.031243 
L 378.163797 -75.802874 
L 376.493831 -108.069847 
L 374.823864 -108.109109 
L 373.153898 -107.55562 
L 371.483932 -105.819828 
L 369.813966 -111.89742 
L 368.144 -68.645472 
L 366.474034 -67.066387 
L 364.804068 -74.235424 
L 363.134102 -71.270438 
L 361.464136 -79.159701 
L 359.794169 -90.294923 
L 358.124203 -127.213544 
L 356.454237 -99.042549 
L 354.784271 -58.578932 
L 353.114305 -66.020897 
L 351.444339 -61.240817 
L 349.774373 -74.986633 
L 348.104407 -121.393092 
L 346.434441 -136.523087 
L 344.764475 -84.444833 
L 343.094508 -124.240402 
L 341.424542 -115.022862 
L 339.754576 -94.20402 
L 338.08461 -84.50652 
L 336.414644 -93.076187 
L 334.744678 -96.790844 
L 333.074712 -97.875735 
L 331.404746 -124.595819 
L 329.73478 -103.165095 
L 328.064814 -107.394499 
L 326.394847 -116.433263 
L 324.724881 -117.23078 
L 323.054915 -121.830549 
L 321.384949 -130.186324 
L 319.714983 -122.361117 
L 318.045017 -121.995351 
L 316.375051 -124.839793 
L 314.705085 -117.778117 
L 313.035119 -104.662549 
L 311.365153 -146.879998 
L 309.695186 -138.848714 
L 308.02522 -125.013483 
L 306.355254 -92.362388 
L 304.685288 -72.504146 
L 303.015322 -84.298512 
L 301.345356 -76.516085 
L 299.67539 -69.848573 
L 298.005424 -63.365704 
L 296.335458 -62.294521 
L 294.665492 -53.317409 
L 292.995525 -67.985826 
L 291.325559 -62.696909 
L 289.655593 -58.245638 
L 287.985627 -59.285135 
L 286.315661 -102.774954 
L 284.645695 -124.976886 
L 282.975729 -123.987461 
L 281.305763 -129.141535 
L 279.635797 -129.335799 
L 277.965831 -126.396849 
L 276.295864 -124.750987 
L 274.625898 -163.923863 
L 272.955932 -168.719158 
L 271.285966 -165.433585 
L 269.616 -144.879576 
L 267.946034 -152.35931 
L 266.276068 -148.502957 
L 264.606102 -125.08496 
L 262.936136 -127.71552 
L 261.266169 -158.493144 
L 259.596203 -169.919079 
L 257.926237 -126.788347 
L 256.256271 -114.764403 
L 254.586305 -72.55868 
L 252.916339 -99.888763 
L 251.246373 -68.806451 
L 249.576407 -70.620439 
L 247.906441 -71.926186 
L 246.236475 -85.809064 
L 244.566508 -134.44216 
L 242.896542 -132.997355 
L 241.226576 -64.590819 
L 239.55661 -127.778804 
L 237.886644 -85.437544 
L 236.216678 -108.91216 
L 234.546712 -109.587739 
L 232.876746 -80.886214 
L 231.20678 -147.863316 
L 229.536814 -149.209862 
L 227.866847 -152.833382 
L 226.196881 -134.866317 
L 224.526915 -128.866081 
L 222.856949 -102.636578 
L 221.186983 -145.131393 
L 219.517017 -122.660584 
L 217.847051 -121.376474 
L 216.177085 -104.192057 
L 214.507119 -89.910433 
L 212.837153 -89.759639 
L 211.167186 -122.641528 
L 209.49722 -106.590771 
L 207.827254 -93.412569 
L 206.157288 -110.124771 
L 204.487322 -96.125491 
L 202.817356 -96.601782 
L 201.14739 -114.13961 
L 199.477424 -77.23043 
L 197.807458 -86.90397 
L 196.137492 -104.260326 
L 194.467525 -82.686463 
L 192.797559 -88.58311 
L 191.127593 -79.775176 
L 189.457627 -70.746723 
L 187.787661 -63.542604 
L 186.117695 -70.193526 
L 184.447729 -70.309104 
L 182.777763 -99.21318 
L 181.107797 -116.990431 
L 179.437831 -119.834556 
L 177.767864 -117.772886 
L 176.097898 -56.293946 
L 174.427932 -76.730972 
L 172.757966 -53.794455 
L 171.088 -59.432841 
L 169.418034 -60.502216 
L 167.748068 -63.931035 
L 166.078102 -57.864967 
L 164.408136 -52.61654 
L 162.738169 -65.770957 
L 161.068203 -62.40486 
L 159.398237 -80.844293 
L 157.728271 -78.554617 
L 156.058305 -113.001865 
L 154.388339 -105.8679 
L 152.718373 -100.299019 
L 151.048407 -91.685401 
L 149.378441 -122.016287 
L 147.708475 -76.480537 
L 146.038508 -78.003824 
L 144.368542 -66.802064 
L 142.698576 -57.665612 
L 141.02861 -58.414753 
L 139.358644 -91.980096 
L 137.688678 -82.11616 
L 136.018712 -141.9955 
L 134.348746 -154.952773 
L 132.67878 -134.196626 
L 131.008814 -118.25607 
L 129.338847 -127.471491 
L 127.668881 -163.384796 
L 125.998915 -132.246399 
L 124.328949 -144.612823 
L 122.658983 -117.178456 
L 120.989017 -119.292554 
L 119.319051 -109.724747 
L 117.649085 -95.627773 
L 115.979119 -119.852994 
L 114.309153 -153.738718 
L 112.639186 -176.224829 
L 110.96922 -195.356679 
L 109.299254 -183.743913 
L 107.629288 -196.32 
L 105.959322 -183.506095 
L 104.289356 -175.26117 
L 102.61939 -187.950369 
L 100.949424 -167.186619 
L 99.279458 -172.649301 
L 97.609492 -127.11196 
L 95.939525 -76.980987 
L 94.269559 -68.956329 
L 92.599593 -64.489692 
L 90.929627 -58.049475 
L 89.259661 -56.660689 
L 87.589695 -58.293903 
L 85.919729 -83.186879 
L 84.249763 -68.535674 
L 82.579797 -64.952959 
L 80.909831 -81.907077 
L 79.239864 -68.946337 
L 77.569898 -101.366538 
L 75.899932 -136.86089 
L 74.229966 -150.507584 
L 72.56 -129.722361 
z
" id="m020f8a9fbd" style="stroke:#0000ff;stroke-opacity:0.3;"/>
    </defs>
    <g clip-path="url(#p5a1e223923)">
     <use style="fill:#0000ff;fill-opacity:0.3;stroke:#0000ff;stroke-opacity:0.3;" x="0" xlink:href="#m020f8a9fbd" y="223.2"/>
    </g>
   </g>
   <g id="matplotlib.axis_1">
    <g id="xtick_1">
     <g id="line2d_1">
      <defs>
       <path d="M 0 0 
L 0 3.5 
" id="m27c61172a4" style="stroke:#000000;stroke-width:0.8;"/>
      </defs>
      <g>
       <use style="stroke:#000000;stroke-width:0.8;" x="152.634875" xlink:href="#m27c61172a4" y="174.76"/>
      </g>
     </g>
     <g id="text_1">
      <!-- 0.0 -->
      <defs>
       <path d="M 31.78125 66.40625 
Q 24.171875 66.40625 20.328125 58.90625 
Q 16.5 51.421875 16.5 36.375 
Q 16.5 21.390625 20.328125 13.890625 
Q 24.171875 6.390625 31.78125 6.390625 
Q 39.453125 6.390625 43.28125 13.890625 
Q 47.125 21.390625 47.125 36.375 
Q 47.125 51.421875 43.28125 58.90625 
Q 39.453125 66.40625 31.78125 66.40625 
z
M 31.78125 74.21875 
Q 44.046875 74.21875 50.515625 64.515625 
Q 56.984375 54.828125 56.984375 36.375 
Q 56.984375 17.96875 50.515625 8.265625 
Q 44.046875 -1.421875 31.78125 -1.421875 
Q 19.53125 -1.421875 13.0625 8.265625 
Q 6.59375 17.96875 6.59375 36.375 
Q 6.59375 54.828125 13.0625 64.515625 
Q 19.53125 74.21875 31.78125 74.21875 
z
" id="DejaVuSans-48"/>
       <path d="M 10.6875 12.40625 
L 21 12.40625 
L 21 0 
L 10.6875 0 
z
" id="DejaVuSans-46"/>
      </defs>
      <g transform="translate(143.093 190.878125)scale(0.12 -0.12)">
       <use xlink:href="#DejaVuSans-48"/>
       <use x="63.623047" xlink:href="#DejaVuSans-46"/>
       <use x="95.410156" xlink:href="#DejaVuSans-48"/>
      </g>
     </g>
    </g>
    <g id="xtick_2">
     <g id="line2d_2">
      <g>
       <use style="stroke:#000000;stroke-width:0.8;" x="236.13318" xlink:href="#m27c61172a4" y="174.76"/>
      </g>
     </g>
     <g id="text_2">
      <!-- 0.5 -->
      <defs>
       <path d="M 10.796875 72.90625 
L 49.515625 72.90625 
L 49.515625 64.59375 
L 19.828125 64.59375 
L 19.828125 46.734375 
Q 21.96875 47.46875 24.109375 47.828125 
Q 26.265625 48.1875 28.421875 48.1875 
Q 40.625 48.1875 47.75 41.5 
Q 54.890625 34.8125 54.890625 23.390625 
Q 54.890625 11.625 47.5625 5.09375 
Q 40.234375 -1.421875 26.90625 -1.421875 
Q 22.3125 -1.421875 17.546875 -0.640625 
Q 12.796875 0.140625 7.71875 1.703125 
L 7.71875 11.625 
Q 12.109375 9.234375 16.796875 8.0625 
Q 21.484375 6.890625 26.703125 6.890625 
Q 35.15625 6.890625 40.078125 11.328125 
Q 45.015625 15.765625 45.015625 23.390625 
Q 45.015625 31 40.078125 35.4375 
Q 35.15625 39.890625 26.703125 39.890625 
Q 22.75 39.890625 18.8125 39.015625 
Q 14.890625 38.140625 10.796875 36.28125 
z
" id="DejaVuSans-53"/>
      </defs>
      <g transform="translate(226.591305 190.878125)scale(0.12 -0.12)">
       <use xlink:href="#DejaVuSans-48"/>
       <use x="63.623047" xlink:href="#DejaVuSans-46"/>
       <use x="95.410156" xlink:href="#DejaVuSans-53"/>
      </g>
     </g>
    </g>
    <g id="xtick_3">
     <g id="line2d_3">
      <g>
       <use style="stroke:#000000;stroke-width:0.8;" x="319.631485" xlink:href="#m27c61172a4" y="174.76"/>
      </g>
     </g>
     <g id="text_3">
      <!-- 1.0 -->
      <defs>
       <path d="M 12.40625 8.296875 
L 28.515625 8.296875 
L 28.515625 63.921875 
L 10.984375 60.40625 
L 10.984375 69.390625 
L 28.421875 72.90625 
L 38.28125 72.90625 
L 38.28125 8.296875 
L 54.390625 8.296875 
L 54.390625 0 
L 12.40625 0 
z
" id="DejaVuSans-49"/>
      </defs>
      <g transform="translate(310.08961 190.878125)scale(0.12 -0.12)">
       <use xlink:href="#DejaVuSans-49"/>
       <use x="63.623047" xlink:href="#DejaVuSans-46"/>
       <use x="95.410156" xlink:href="#DejaVuSans-48"/>
      </g>
     </g>
    </g>
    <g id="xtick_4">
     <g id="line2d_4">
      <g>
       <use style="stroke:#000000;stroke-width:0.8;" x="403.12979" xlink:href="#m27c61172a4" y="174.76"/>
      </g>
     </g>
     <g id="text_4">
      <!-- 1.5 -->
      <g transform="translate(393.587915 190.878125)scale(0.12 -0.12)">
       <use xlink:href="#DejaVuSans-49"/>
       <use x="63.623047" xlink:href="#DejaVuSans-46"/>
       <use x="95.410156" xlink:href="#DejaVuSans-53"/>
      </g>
     </g>
    </g>
    <g id="xtick_5">
     <g id="line2d_5">
      <g>
       <use style="stroke:#000000;stroke-width:0.8;" x="486.628095" xlink:href="#m27c61172a4" y="174.76"/>
      </g>
     </g>
     <g id="text_5">
      <!-- 2.0 -->
      <defs>
       <path d="M 19.1875 8.296875 
L 53.609375 8.296875 
L 53.609375 0 
L 7.328125 0 
L 7.328125 8.296875 
Q 12.9375 14.109375 22.625 23.890625 
Q 32.328125 33.6875 34.8125 36.53125 
Q 39.546875 41.84375 41.421875 45.53125 
Q 43.3125 49.21875 43.3125 52.78125 
Q 43.3125 58.59375 39.234375 62.25 
Q 35.15625 65.921875 28.609375 65.921875 
Q 23.96875 65.921875 18.8125 64.3125 
Q 13.671875 62.703125 7.8125 59.421875 
L 7.8125 69.390625 
Q 13.765625 71.78125 18.9375 73 
Q 24.125 74.21875 28.421875 74.21875 
Q 39.75 74.21875 46.484375 68.546875 
Q 53.21875 62.890625 53.21875 53.421875 
Q 53.21875 48.921875 51.53125 44.890625 
Q 49.859375 40.875 45.40625 35.40625 
Q 44.1875 33.984375 37.640625 27.21875 
Q 31.109375 20.453125 19.1875 8.296875 
z
" id="DejaVuSans-50"/>
      </defs>
      <g transform="translate(477.08622 190.878125)scale(0.12 -0.12)">
       <use xlink:href="#DejaVuSans-50"/>
       <use x="63.623047" xlink:href="#DejaVuSans-46"/>
       <use x="95.410156" xlink:href="#DejaVuSans-48"/>
      </g>
     </g>
    </g>
    <g id="text_6">
     <!-- Time (s) -->
     <defs>
      <path d="M -0.296875 72.90625 
L 61.375 72.90625 
L 61.375 64.59375 
L 35.5 64.59375 
L 35.5 0 
L 25.59375 0 
L 25.59375 64.59375 
L -0.296875 64.59375 
z
" id="DejaVuSans-84"/>
      <path d="M 9.421875 54.6875 
L 18.40625 54.6875 
L 18.40625 0 
L 9.421875 0 
z
M 9.421875 75.984375 
L 18.40625 75.984375 
L 18.40625 64.59375 
L 9.421875 64.59375 
z
" id="DejaVuSans-105"/>
      <path d="M 52 44.1875 
Q 55.375 50.25 60.0625 53.125 
Q 64.75 56 71.09375 56 
Q 79.640625 56 84.28125 50.015625 
Q 88.921875 44.046875 88.921875 33.015625 
L 88.921875 0 
L 79.890625 0 
L 79.890625 32.71875 
Q 79.890625 40.578125 77.09375 44.375 
Q 74.3125 48.1875 68.609375 48.1875 
Q 61.625 48.1875 57.5625 43.546875 
Q 53.515625 38.921875 53.515625 30.90625 
L 53.515625 0 
L 44.484375 0 
L 44.484375 32.71875 
Q 44.484375 40.625 41.703125 44.40625 
Q 38.921875 48.1875 33.109375 48.1875 
Q 26.21875 48.1875 22.15625 43.53125 
Q 18.109375 38.875 18.109375 30.90625 
L 18.109375 0 
L 9.078125 0 
L 9.078125 54.6875 
L 18.109375 54.6875 
L 18.109375 46.1875 
Q 21.1875 51.21875 25.484375 53.609375 
Q 29.78125 56 35.6875 56 
Q 41.65625 56 45.828125 52.96875 
Q 50 49.953125 52 44.1875 
z
" id="DejaVuSans-109"/>
      <path d="M 56.203125 29.59375 
L 56.203125 25.203125 
L 14.890625 25.203125 
Q 15.484375 15.921875 20.484375 11.0625 
Q 25.484375 6.203125 34.421875 6.203125 
Q 39.59375 6.203125 44.453125 7.46875 
Q 49.3125 8.734375 54.109375 11.28125 
L 54.109375 2.78125 
Q 49.265625 0.734375 44.1875 -0.34375 
Q 39.109375 -1.421875 33.890625 -1.421875 
Q 20.796875 -1.421875 13.15625 6.1875 
Q 5.515625 13.8125 5.515625 26.8125 
Q 5.515625 40.234375 12.765625 48.109375 
Q 20.015625 56 32.328125 56 
Q 43.359375 56 49.78125 48.890625 
Q 56.203125 41.796875 56.203125 29.59375 
z
M 47.21875 32.234375 
Q 47.125 39.59375 43.09375 43.984375 
Q 39.0625 48.390625 32.421875 48.390625 
Q 24.90625 48.390625 20.390625 44.140625 
Q 15.875 39.890625 15.1875 32.171875 
z
" id="DejaVuSans-101"/>
      <path id="DejaVuSans-32"/>
      <path d="M 31 75.875 
Q 24.46875 64.65625 21.28125 53.65625 
Q 18.109375 42.671875 18.109375 31.390625 
Q 18.109375 20.125 21.3125 9.0625 
Q 24.515625 -2 31 -13.1875 
L 23.1875 -13.1875 
Q 15.875 -1.703125 12.234375 9.375 
Q 8.59375 20.453125 8.59375 31.390625 
Q 8.59375 42.28125 12.203125 53.3125 
Q 15.828125 64.359375 23.1875 75.875 
z
" id="DejaVuSans-40"/>
      <path d="M 44.28125 53.078125 
L 44.28125 44.578125 
Q 40.484375 46.53125 36.375 47.5 
Q 32.28125 48.484375 27.875 48.484375 
Q 21.1875 48.484375 17.84375 46.4375 
Q 14.5 44.390625 14.5 40.28125 
Q 14.5 37.15625 16.890625 35.375 
Q 19.28125 33.59375 26.515625 31.984375 
L 29.59375 31.296875 
Q 39.15625 29.25 43.1875 25.515625 
Q 47.21875 21.78125 47.21875 15.09375 
Q 47.21875 7.46875 41.1875 3.015625 
Q 35.15625 -1.421875 24.609375 -1.421875 
Q 20.21875 -1.421875 15.453125 -0.5625 
Q 10.6875 0.296875 5.421875 2 
L 5.421875 11.28125 
Q 10.40625 8.6875 15.234375 7.390625 
Q 20.0625 6.109375 24.8125 6.109375 
Q 31.15625 6.109375 34.5625 8.28125 
Q 37.984375 10.453125 37.984375 14.40625 
Q 37.984375 18.0625 35.515625 20.015625 
Q 33.0625 21.96875 24.703125 23.78125 
L 21.578125 24.515625 
Q 13.234375 26.265625 9.515625 29.90625 
Q 5.8125 33.546875 5.8125 39.890625 
Q 5.8125 47.609375 11.28125 51.796875 
Q 16.75 56 26.8125 56 
Q 31.78125 56 36.171875 55.265625 
Q 40.578125 54.546875 44.28125 53.078125 
z
" id="DejaVuSans-115"/>
      <path d="M 8.015625 75.875 
L 15.828125 75.875 
Q 23.140625 64.359375 26.78125 53.3125 
Q 30.421875 42.28125 30.421875 31.390625 
Q 30.421875 20.453125 26.78125 9.375 
Q 23.140625 -1.703125 15.828125 -13.1875 
L 8.015625 -13.1875 
Q 14.5 -2 17.703125 9.0625 
Q 20.90625 20.125 20.90625 31.390625 
Q 20.90625 42.671875 17.703125 53.65625 
Q 14.5 64.65625 8.015625 75.875 
z
" id="DejaVuSans-41"/>
     </defs>
     <g transform="translate(289.38475 208.3155)scale(0.144 -0.144)">
      <use xlink:href="#DejaVuSans-84"/>
      <use x="61.037109" xlink:href="#DejaVuSans-105"/>
      <use x="88.820312" xlink:href="#DejaVuSans-109"/>
      <use x="186.232422" xlink:href="#DejaVuSans-101"/>
      <use x="247.755859" xlink:href="#DejaVuSans-32"/>
      <use x="279.542969" xlink:href="#DejaVuSans-40"/>
      <use x="318.556641" xlink:href="#DejaVuSans-115"/>
      <use x="370.65625" xlink:href="#DejaVuSans-41"/>
     </g>
    </g>
   </g>
   <g id="matplotlib.axis_2">
    <g id="ytick_1">
     <g id="line2d_6">
      <defs>
       <path d="M 0 0 
L -3.5 0 
" id="mf08d089014" style="stroke:#000000;stroke-width:0.8;"/>
      </defs>
      <g>
       <use style="stroke:#000000;stroke-width:0.8;" x="72.56" xlink:href="#mf08d089014" y="174.76"/>
      </g>
     </g>
     <g id="text_7">
      <!-- 0.00 -->
      <g transform="translate(38.84125 179.319062)scale(0.12 -0.12)">
       <use xlink:href="#DejaVuSans-48"/>
       <use x="63.623047" xlink:href="#DejaVuSans-46"/>
       <use x="95.410156" xlink:href="#DejaVuSans-48"/>
       <use x="159.033203" xlink:href="#DejaVuSans-48"/>
      </g>
     </g>
    </g>
    <g id="ytick_2">
     <g id="line2d_7">
      <g>
       <use style="stroke:#000000;stroke-width:0.8;" x="72.56" xlink:href="#mf08d089014" y="137.146282"/>
      </g>
     </g>
     <g id="text_8">
      <!-- 0.05 -->
      <g transform="translate(38.84125 141.705345)scale(0.12 -0.12)">
       <use xlink:href="#DejaVuSans-48"/>
       <use x="63.623047" xlink:href="#DejaVuSans-46"/>
       <use x="95.410156" xlink:href="#DejaVuSans-48"/>
       <use x="159.033203" xlink:href="#DejaVuSans-53"/>
      </g>
     </g>
    </g>
    <g id="ytick_3">
     <g id="line2d_8">
      <g>
       <use style="stroke:#000000;stroke-width:0.8;" x="72.56" xlink:href="#mf08d089014" y="99.532565"/>
      </g>
     </g>
     <g id="text_9">
      <!-- 0.10 -->
      <g transform="translate(38.84125 104.091627)scale(0.12 -0.12)">
       <use xlink:href="#DejaVuSans-48"/>
       <use x="63.623047" xlink:href="#DejaVuSans-46"/>
       <use x="95.410156" xlink:href="#DejaVuSans-49"/>
       <use x="159.033203" xlink:href="#DejaVuSans-48"/>
      </g>
     </g>
    </g>
    <g id="ytick_4">
     <g id="line2d_9">
      <g>
       <use style="stroke:#000000;stroke-width:0.8;" x="72.56" xlink:href="#mf08d089014" y="61.918847"/>
      </g>
     </g>
     <g id="text_10">
      <!-- 0.15 -->
      <g transform="translate(38.84125 66.47791)scale(0.12 -0.12)">
       <use xlink:href="#DejaVuSans-48"/>
       <use x="63.623047" xlink:href="#DejaVuSans-46"/>
       <use x="95.410156" xlink:href="#DejaVuSans-49"/>
       <use x="159.033203" xlink:href="#DejaVuSans-53"/>
      </g>
     </g>
    </g>
    <g id="text_11">
     <!-- COMb $p$ -->
     <defs>
      <path d="M 64.40625 67.28125 
L 64.40625 56.890625 
Q 59.421875 61.53125 53.78125 63.8125 
Q 48.140625 66.109375 41.796875 66.109375 
Q 29.296875 66.109375 22.65625 58.46875 
Q 16.015625 50.828125 16.015625 36.375 
Q 16.015625 21.96875 22.65625 14.328125 
Q 29.296875 6.6875 41.796875 6.6875 
Q 48.140625 6.6875 53.78125 8.984375 
Q 59.421875 11.28125 64.40625 15.921875 
L 64.40625 5.609375 
Q 59.234375 2.09375 53.4375 0.328125 
Q 47.65625 -1.421875 41.21875 -1.421875 
Q 24.65625 -1.421875 15.125 8.703125 
Q 5.609375 18.84375 5.609375 36.375 
Q 5.609375 53.953125 15.125 64.078125 
Q 24.65625 74.21875 41.21875 74.21875 
Q 47.75 74.21875 53.53125 72.484375 
Q 59.328125 70.75 64.40625 67.28125 
z
" id="DejaVuSans-67"/>
      <path d="M 39.40625 66.21875 
Q 28.65625 66.21875 22.328125 58.203125 
Q 16.015625 50.203125 16.015625 36.375 
Q 16.015625 22.609375 22.328125 14.59375 
Q 28.65625 6.59375 39.40625 6.59375 
Q 50.140625 6.59375 56.421875 14.59375 
Q 62.703125 22.609375 62.703125 36.375 
Q 62.703125 50.203125 56.421875 58.203125 
Q 50.140625 66.21875 39.40625 66.21875 
z
M 39.40625 74.21875 
Q 54.734375 74.21875 63.90625 63.9375 
Q 73.09375 53.65625 73.09375 36.375 
Q 73.09375 19.140625 63.90625 8.859375 
Q 54.734375 -1.421875 39.40625 -1.421875 
Q 24.03125 -1.421875 14.8125 8.828125 
Q 5.609375 19.09375 5.609375 36.375 
Q 5.609375 53.65625 14.8125 63.9375 
Q 24.03125 74.21875 39.40625 74.21875 
z
" id="DejaVuSans-79"/>
      <path d="M 9.8125 72.90625 
L 24.515625 72.90625 
L 43.109375 23.296875 
L 61.8125 72.90625 
L 76.515625 72.90625 
L 76.515625 0 
L 66.890625 0 
L 66.890625 64.015625 
L 48.09375 14.015625 
L 38.1875 14.015625 
L 19.390625 64.015625 
L 19.390625 0 
L 9.8125 0 
z
" id="DejaVuSans-77"/>
      <path d="M 48.6875 27.296875 
Q 48.6875 37.203125 44.609375 42.84375 
Q 40.53125 48.484375 33.40625 48.484375 
Q 26.265625 48.484375 22.1875 42.84375 
Q 18.109375 37.203125 18.109375 27.296875 
Q 18.109375 17.390625 22.1875 11.75 
Q 26.265625 6.109375 33.40625 6.109375 
Q 40.53125 6.109375 44.609375 11.75 
Q 48.6875 17.390625 48.6875 27.296875 
z
M 18.109375 46.390625 
Q 20.953125 51.265625 25.265625 53.625 
Q 29.59375 56 35.59375 56 
Q 45.5625 56 51.78125 48.09375 
Q 58.015625 40.1875 58.015625 27.296875 
Q 58.015625 14.40625 51.78125 6.484375 
Q 45.5625 -1.421875 35.59375 -1.421875 
Q 29.59375 -1.421875 25.265625 0.953125 
Q 20.953125 3.328125 18.109375 8.203125 
L 18.109375 0 
L 9.078125 0 
L 9.078125 75.984375 
L 18.109375 75.984375 
z
" id="DejaVuSans-98"/>
      <path d="M 49.609375 33.6875 
Q 49.609375 40.875 46.484375 44.671875 
Q 43.359375 48.484375 37.5 48.484375 
Q 33.5 48.484375 29.859375 46.4375 
Q 26.21875 44.390625 23.390625 40.484375 
Q 20.609375 36.625 18.9375 31.15625 
Q 17.28125 25.6875 17.28125 20.3125 
Q 17.28125 13.484375 20.40625 9.796875 
Q 23.53125 6.109375 29.296875 6.109375 
Q 33.546875 6.109375 37.1875 8.109375 
Q 40.828125 10.109375 43.40625 13.921875 
Q 46.1875 17.921875 47.890625 23.34375 
Q 49.609375 28.765625 49.609375 33.6875 
z
M 21.78125 46.390625 
Q 25.390625 51.125 30.296875 53.5625 
Q 35.203125 56 41.21875 56 
Q 49.609375 56 54.25 50.5 
Q 58.890625 45.015625 58.890625 35.109375 
Q 58.890625 27 56 19.65625 
Q 53.125 12.3125 47.703125 6.5 
Q 44.09375 2.640625 39.546875 0.609375 
Q 35.015625 -1.421875 29.984375 -1.421875 
Q 24.171875 -1.421875 20.21875 1 
Q 16.265625 3.421875 14.3125 8.203125 
L 8.6875 -20.796875 
L -0.296875 -20.796875 
L 14.40625 54.6875 
L 23.390625 54.6875 
z
" id="DejaVuSans-Oblique-112"/>
     </defs>
     <g transform="translate(31.81725 129.188)rotate(-90)scale(0.144 -0.144)">
      <use transform="translate(0 0.015625)" xlink:href="#DejaVuSans-67"/>
      <use transform="translate(69.824219 0.015625)" xlink:href="#DejaVuSans-79"/>
      <use transform="translate(148.535156 0.015625)" xlink:href="#DejaVuSans-77"/>
      <use transform="translate(234.814453 0.015625)" xlink:href="#DejaVuSans-98"/>
      <use transform="translate(298.291016 0.015625)" xlink:href="#DejaVuSans-32"/>
      <use transform="translate(330.078125 0.015625)" xlink:href="#DejaVuSans-Oblique-112"/>
     </g>
    </g>
   </g>
   <g id="line2d_10">
    <path clip-path="url(#p5a1e223923)" d="M 72.56 118.498431 
L 74.229966 107.101339 
L 75.899932 119.980094 
L 77.569898 143.158668 
L 79.239864 162.405612 
L 80.909831 153.521235 
L 82.579797 163.374507 
L 84.249763 160.137254 
L 85.919729 151.649582 
L 87.589695 168.006068 
L 89.259661 169.226165 
L 90.929627 167.777658 
L 92.599593 163.200115 
L 94.269559 159.964432 
L 95.939525 153.555401 
L 97.609492 129.659174 
L 99.279458 90.969187 
L 100.949424 97.9564 
L 102.61939 81.035744 
L 104.289356 92.829588 
L 107.629288 73.400302 
L 109.299254 84.577585 
L 110.96922 74.784186 
L 112.639186 91.283524 
L 114.309153 104.579206 
L 115.979119 128.719747 
L 117.649085 141.252188 
L 119.319051 132.766739 
L 120.989017 125.845272 
L 122.658983 127.414739 
L 124.328949 108.930474 
L 125.998915 119.702261 
L 127.668881 96.824479 
L 129.338847 129.642872 
L 131.008814 134.972155 
L 132.67878 123.423062 
L 134.348746 107.834695 
L 136.018712 116.712032 
L 137.688678 154.082867 
L 139.358644 149.563262 
L 141.02861 169.045117 
L 142.698576 168.867168 
L 144.368542 163.094076 
L 146.038508 155.90006 
L 147.708475 157.309872 
L 149.378441 129.607493 
L 151.048407 147.443178 
L 152.718373 137.430216 
L 154.388339 134.832703 
L 156.058305 132.590084 
L 157.728271 153.227802 
L 159.398237 152.105967 
L 161.068203 165.76362 
L 162.738169 163.954107 
L 164.408136 171.408275 
L 166.078102 167.66577 
L 167.748068 163.039853 
L 169.418034 166.380357 
L 171.088 166.924174 
L 172.757966 171.002596 
L 174.427932 159.66561 
L 176.097898 170.173003 
L 177.767864 135.485026 
L 179.437831 133.237805 
L 181.107797 134.131455 
L 182.777763 145.56959 
L 184.447729 160.776606 
L 186.117695 160.840967 
L 187.787661 164.747375 
L 189.457627 160.204308 
L 192.797559 147.493056 
L 194.467525 151.52186 
L 196.137492 138.932664 
L 197.807458 149.396763 
L 199.477424 154.224299 
L 201.14739 136.942353 
L 202.817356 146.065351 
L 204.487322 148.796105 
L 206.157288 136.099069 
L 207.827254 147.301172 
L 209.49722 142.148813 
L 211.167186 134.406663 
L 212.837153 151.985398 
L 214.507119 151.846547 
L 217.847051 127.317074 
L 219.517017 124.640251 
L 221.186983 113.358079 
L 222.856949 144.061241 
L 224.526915 124.552121 
L 226.196881 121.876354 
L 227.866847 104.480008 
L 229.536814 106.745568 
L 231.20678 111.602908 
L 232.876746 154.865895 
L 234.546712 134.224776 
L 236.216678 134.990347 
L 237.886644 150.804657 
L 239.55661 125.425124 
L 241.226576 164.349056 
L 242.896542 118.427604 
L 244.566508 123.907231 
L 246.236475 153.060726 
L 247.906441 160.090508 
L 249.576407 159.642701 
L 251.246373 161.073081 
L 252.916339 142.355113 
L 254.586305 160.098283 
L 256.256271 138.16538 
L 257.926237 129.94259 
L 259.596203 96.004748 
L 261.266169 103.631252 
L 262.936136 127.442873 
L 264.606102 127.105615 
L 266.276068 112.506936 
L 267.946034 110.183461 
L 269.616 115.121683 
L 271.285966 101.835353 
L 272.955932 100.120702 
L 274.625898 103.022525 
L 276.295864 132.473066 
L 277.965831 130.820121 
L 279.635797 127.644666 
L 281.305763 127.787155 
L 282.975729 132.824207 
L 284.645695 131.849359 
L 286.315661 141.458387 
L 287.985627 165.910654 
L 289.655593 167.275239 
L 292.995525 162.175015 
L 294.665492 171.042483 
L 296.335458 165.918879 
L 298.005424 164.980877 
L 299.67539 158.552062 
L 301.345356 156.623762 
L 303.015322 152.574161 
L 304.685288 158.624547 
L 306.355254 145.039291 
L 308.02522 125.78413 
L 309.695186 118.805394 
L 311.365153 110.801841 
L 313.035119 135.795696 
L 314.705085 130.234675 
L 316.375051 126.346795 
L 318.045017 130.735836 
L 319.714983 132.354916 
L 321.384949 127.074429 
L 323.054915 130.298752 
L 324.724881 137.693496 
L 326.394847 138.518625 
L 328.064814 143.989769 
L 329.73478 143.558184 
L 331.404746 127.988897 
L 333.074712 143.510054 
L 334.744678 141.041045 
L 336.414644 142.982705 
L 338.08461 149.549086 
L 339.754576 144.288127 
L 341.424542 129.614708 
L 343.094508 119.849734 
L 344.764475 147.608009 
L 346.434441 116.665238 
L 348.104407 131.355377 
L 349.774373 156.910595 
L 351.444339 166.690694 
L 353.114305 163.22776 
L 354.784271 167.95477 
L 356.454237 143.298094 
L 358.124203 129.734677 
L 359.794169 150.661349 
L 361.464136 157.789943 
L 363.134102 161.54429 
L 364.804068 158.673254 
L 366.474034 161.475457 
L 368.144 162.208364 
L 369.813966 138.122602 
L 371.483932 143.142092 
L 373.153898 143.739389 
L 374.823864 143.137573 
L 376.493831 137.102286 
L 378.163797 157.366699 
L 379.833763 133.137699 
L 381.503729 142.28259 
L 383.173695 149.629224 
L 384.843661 159.278684 
L 386.513627 161.566033 
L 388.183593 164.942123 
L 389.853559 169.361168 
L 391.523525 169.010145 
L 393.193492 169.827484 
L 394.863458 166.959815 
L 396.533424 171.383013 
L 398.20339 173.082213 
L 399.873356 172.427622 
L 401.543322 170.146057 
L 403.213288 166.545665 
L 404.883254 156.998877 
L 406.55322 137.553882 
L 408.223186 138.311405 
L 409.893153 133.057676 
L 411.563119 119.894893 
L 413.233085 101.04602 
L 414.903051 95.564677 
L 416.573017 97.563787 
L 418.242983 120.724504 
L 419.912949 119.75208 
L 421.582915 118.115979 
L 423.252881 130.140532 
L 424.922847 135.583479 
L 426.592814 153.35958 
L 428.26278 155.471171 
L 429.932746 141.45649 
L 431.602712 136.014715 
L 433.272678 160.198781 
L 434.942644 166.892453 
L 436.61261 172.213139 
L 438.282576 170.583393 
L 439.952542 167.358891 
L 441.622508 169.300959 
L 443.292475 169.432268 
L 444.962441 166.57023 
L 448.302373 154.352746 
L 451.642305 110.130085 
L 453.312271 131.944552 
L 454.982237 132.139316 
L 456.652203 131.260311 
L 458.322169 132.446444 
L 459.992136 100.258468 
L 461.662102 93.684466 
L 463.332068 96.698436 
L 465.002034 90.692386 
L 466.672 93.929266 
L 468.341966 107.972324 
L 470.011932 87.597292 
L 471.681898 77.371527 
L 473.351864 82.998517 
L 475.021831 131.47172 
L 476.691797 145.096578 
L 478.361763 157.617843 
L 480.031729 167.235745 
L 481.701695 163.035053 
L 483.371661 152.008658 
L 485.041627 133.904861 
L 486.711593 130.129586 
L 488.381559 132.584529 
L 490.051525 125.182844 
L 491.721492 122.45674 
L 493.391458 90.899647 
L 495.061424 101.494909 
L 496.73139 147.766894 
L 498.401356 148.066649 
L 500.071322 162.456151 
L 501.741288 150.899471 
L 503.411254 155.004077 
L 505.08122 148.428216 
L 506.751186 119.85591 
L 508.421153 142.61085 
L 510.091119 145.773878 
L 511.761085 137.618421 
L 513.431051 126.950443 
L 515.101017 144.681634 
L 516.770983 124.391246 
L 518.440949 125.74187 
L 520.110915 133.228104 
L 521.780881 132.636462 
L 523.450847 132.329618 
L 525.120814 133.84596 
L 526.79078 138.648591 
L 528.460746 157.182277 
L 530.130712 166.282617 
L 531.800678 166.296776 
L 533.470644 154.351995 
L 535.14061 158.433759 
L 536.810576 146.095577 
L 538.480542 145.548147 
L 540.150508 130.708587 
L 541.820475 110.166198 
L 543.490441 106.41375 
L 545.160407 91.668073 
L 546.830373 81.939173 
L 548.500339 87.176389 
L 550.170305 101.812915 
L 551.840271 96.178279 
L 553.510237 107.452805 
L 555.180203 109.487123 
L 556.850169 118.310227 
L 558.520136 123.356417 
L 560.190102 124.4817 
L 561.860068 136.598026 
L 563.530034 131.778973 
L 565.2 149.513677 
L 565.2 149.513677 
" style="fill:none;stroke:#0000ff;stroke-linecap:square;stroke-width:1.5;"/>
   </g>
   <g id="patch_3">
    <path d="M 72.56 174.76 
L 72.56 26.88 
" style="fill:none;stroke:#000000;stroke-linecap:square;stroke-linejoin:miter;stroke-width:0.8;"/>
   </g>
   <g id="patch_4">
    <path d="M 565.2 174.76 
L 565.2 26.88 
" style="fill:none;stroke:#000000;stroke-linecap:square;stroke-linejoin:miter;stroke-width:0.8;"/>
   </g>
   <g id="patch_5">
    <path d="M 72.56 174.76 
L 565.2 174.76 
" style="fill:none;stroke:#000000;stroke-linecap:square;stroke-linejoin:miter;stroke-width:0.8;"/>
   </g>
   <g id="patch_6">
    <path d="M 72.56 26.88 
L 565.2 26.88 
" style="fill:none;stroke:#000000;stroke-linecap:square;stroke-linejoin:miter;stroke-width:0.8;"/>
   </g>
   <g id="text_12">
    <!-- V1, Num Trials=10 All unstimulated trials, Num cells = 160 -->
    <defs>
     <path d="M 28.609375 0 
L 0.78125 72.90625 
L 11.078125 72.90625 
L 34.1875 11.53125 
L 57.328125 72.90625 
L 67.578125 72.90625 
L 39.796875 0 
z
" id="DejaVuSans-86"/>
     <path d="M 11.71875 12.40625 
L 22.015625 12.40625 
L 22.015625 4 
L 14.015625 -11.625 
L 7.71875 -11.625 
L 11.71875 4 
z
" id="DejaVuSans-44"/>
     <path d="M 9.8125 72.90625 
L 23.09375 72.90625 
L 55.421875 11.921875 
L 55.421875 72.90625 
L 64.984375 72.90625 
L 64.984375 0 
L 51.703125 0 
L 19.390625 60.984375 
L 19.390625 0 
L 9.8125 0 
z
" id="DejaVuSans-78"/>
     <path d="M 8.5 21.578125 
L 8.5 54.6875 
L 17.484375 54.6875 
L 17.484375 21.921875 
Q 17.484375 14.15625 20.5 10.265625 
Q 23.53125 6.390625 29.59375 6.390625 
Q 36.859375 6.390625 41.078125 11.03125 
Q 45.3125 15.671875 45.3125 23.6875 
L 45.3125 54.6875 
L 54.296875 54.6875 
L 54.296875 0 
L 45.3125 0 
L 45.3125 8.40625 
Q 42.046875 3.421875 37.71875 1 
Q 33.40625 -1.421875 27.6875 -1.421875 
Q 18.265625 -1.421875 13.375 4.4375 
Q 8.5 10.296875 8.5 21.578125 
z
M 31.109375 56 
z
" id="DejaVuSans-117"/>
     <path d="M 41.109375 46.296875 
Q 39.59375 47.171875 37.8125 47.578125 
Q 36.03125 48 33.890625 48 
Q 26.265625 48 22.1875 43.046875 
Q 18.109375 38.09375 18.109375 28.8125 
L 18.109375 0 
L 9.078125 0 
L 9.078125 54.6875 
L 18.109375 54.6875 
L 18.109375 46.1875 
Q 20.953125 51.171875 25.484375 53.578125 
Q 30.03125 56 36.53125 56 
Q 37.453125 56 38.578125 55.875 
Q 39.703125 55.765625 41.0625 55.515625 
z
" id="DejaVuSans-114"/>
     <path d="M 34.28125 27.484375 
Q 23.390625 27.484375 19.1875 25 
Q 14.984375 22.515625 14.984375 16.5 
Q 14.984375 11.71875 18.140625 8.90625 
Q 21.296875 6.109375 26.703125 6.109375 
Q 34.1875 6.109375 38.703125 11.40625 
Q 43.21875 16.703125 43.21875 25.484375 
L 43.21875 27.484375 
z
M 52.203125 31.203125 
L 52.203125 0 
L 43.21875 0 
L 43.21875 8.296875 
Q 40.140625 3.328125 35.546875 0.953125 
Q 30.953125 -1.421875 24.3125 -1.421875 
Q 15.921875 -1.421875 10.953125 3.296875 
Q 6 8.015625 6 15.921875 
Q 6 25.140625 12.171875 29.828125 
Q 18.359375 34.515625 30.609375 34.515625 
L 43.21875 34.515625 
L 43.21875 35.40625 
Q 43.21875 41.609375 39.140625 45 
Q 35.0625 48.390625 27.6875 48.390625 
Q 23 48.390625 18.546875 47.265625 
Q 14.109375 46.140625 10.015625 43.890625 
L 10.015625 52.203125 
Q 14.9375 54.109375 19.578125 55.046875 
Q 24.21875 56 28.609375 56 
Q 40.484375 56 46.34375 49.84375 
Q 52.203125 43.703125 52.203125 31.203125 
z
" id="DejaVuSans-97"/>
     <path d="M 9.421875 75.984375 
L 18.40625 75.984375 
L 18.40625 0 
L 9.421875 0 
z
" id="DejaVuSans-108"/>
     <path d="M 10.59375 45.40625 
L 73.1875 45.40625 
L 73.1875 37.203125 
L 10.59375 37.203125 
z
M 10.59375 25.484375 
L 73.1875 25.484375 
L 73.1875 17.1875 
L 10.59375 17.1875 
z
" id="DejaVuSans-61"/>
     <path d="M 34.1875 63.1875 
L 20.796875 26.90625 
L 47.609375 26.90625 
z
M 28.609375 72.90625 
L 39.796875 72.90625 
L 67.578125 0 
L 57.328125 0 
L 50.6875 18.703125 
L 17.828125 18.703125 
L 11.1875 0 
L 0.78125 0 
z
" id="DejaVuSans-65"/>
     <path d="M 54.890625 33.015625 
L 54.890625 0 
L 45.90625 0 
L 45.90625 32.71875 
Q 45.90625 40.484375 42.875 44.328125 
Q 39.84375 48.1875 33.796875 48.1875 
Q 26.515625 48.1875 22.3125 43.546875 
Q 18.109375 38.921875 18.109375 30.90625 
L 18.109375 0 
L 9.078125 0 
L 9.078125 54.6875 
L 18.109375 54.6875 
L 18.109375 46.1875 
Q 21.34375 51.125 25.703125 53.5625 
Q 30.078125 56 35.796875 56 
Q 45.21875 56 50.046875 50.171875 
Q 54.890625 44.34375 54.890625 33.015625 
z
" id="DejaVuSans-110"/>
     <path d="M 18.3125 70.21875 
L 18.3125 54.6875 
L 36.8125 54.6875 
L 36.8125 47.703125 
L 18.3125 47.703125 
L 18.3125 18.015625 
Q 18.3125 11.328125 20.140625 9.421875 
Q 21.96875 7.515625 27.59375 7.515625 
L 36.8125 7.515625 
L 36.8125 0 
L 27.59375 0 
Q 17.1875 0 13.234375 3.875 
Q 9.28125 7.765625 9.28125 18.015625 
L 9.28125 47.703125 
L 2.6875 47.703125 
L 2.6875 54.6875 
L 9.28125 54.6875 
L 9.28125 70.21875 
z
" id="DejaVuSans-116"/>
     <path d="M 45.40625 46.390625 
L 45.40625 75.984375 
L 54.390625 75.984375 
L 54.390625 0 
L 45.40625 0 
L 45.40625 8.203125 
Q 42.578125 3.328125 38.25 0.953125 
Q 33.9375 -1.421875 27.875 -1.421875 
Q 17.96875 -1.421875 11.734375 6.484375 
Q 5.515625 14.40625 5.515625 27.296875 
Q 5.515625 40.1875 11.734375 48.09375 
Q 17.96875 56 27.875 56 
Q 33.9375 56 38.25 53.625 
Q 42.578125 51.265625 45.40625 46.390625 
z
M 14.796875 27.296875 
Q 14.796875 17.390625 18.875 11.75 
Q 22.953125 6.109375 30.078125 6.109375 
Q 37.203125 6.109375 41.296875 11.75 
Q 45.40625 17.390625 45.40625 27.296875 
Q 45.40625 37.203125 41.296875 42.84375 
Q 37.203125 48.484375 30.078125 48.484375 
Q 22.953125 48.484375 18.875 42.84375 
Q 14.796875 37.203125 14.796875 27.296875 
z
" id="DejaVuSans-100"/>
     <path d="M 48.78125 52.59375 
L 48.78125 44.1875 
Q 44.96875 46.296875 41.140625 47.34375 
Q 37.3125 48.390625 33.40625 48.390625 
Q 24.65625 48.390625 19.8125 42.84375 
Q 14.984375 37.3125 14.984375 27.296875 
Q 14.984375 17.28125 19.8125 11.734375 
Q 24.65625 6.203125 33.40625 6.203125 
Q 37.3125 6.203125 41.140625 7.25 
Q 44.96875 8.296875 48.78125 10.40625 
L 48.78125 2.09375 
Q 45.015625 0.34375 40.984375 -0.53125 
Q 36.96875 -1.421875 32.421875 -1.421875 
Q 20.0625 -1.421875 12.78125 6.34375 
Q 5.515625 14.109375 5.515625 27.296875 
Q 5.515625 40.671875 12.859375 48.328125 
Q 20.21875 56 33.015625 56 
Q 37.15625 56 41.109375 55.140625 
Q 45.0625 54.296875 48.78125 52.59375 
z
" id="DejaVuSans-99"/>
     <path d="M 33.015625 40.375 
Q 26.375 40.375 22.484375 35.828125 
Q 18.609375 31.296875 18.609375 23.390625 
Q 18.609375 15.53125 22.484375 10.953125 
Q 26.375 6.390625 33.015625 6.390625 
Q 39.65625 6.390625 43.53125 10.953125 
Q 47.40625 15.53125 47.40625 23.390625 
Q 47.40625 31.296875 43.53125 35.828125 
Q 39.65625 40.375 33.015625 40.375 
z
M 52.59375 71.296875 
L 52.59375 62.3125 
Q 48.875 64.0625 45.09375 64.984375 
Q 41.3125 65.921875 37.59375 65.921875 
Q 27.828125 65.921875 22.671875 59.328125 
Q 17.53125 52.734375 16.796875 39.40625 
Q 19.671875 43.65625 24.015625 45.921875 
Q 28.375 48.1875 33.59375 48.1875 
Q 44.578125 48.1875 50.953125 41.515625 
Q 57.328125 34.859375 57.328125 23.390625 
Q 57.328125 12.15625 50.6875 5.359375 
Q 44.046875 -1.421875 33.015625 -1.421875 
Q 20.359375 -1.421875 13.671875 8.265625 
Q 6.984375 17.96875 6.984375 36.375 
Q 6.984375 53.65625 15.1875 63.9375 
Q 23.390625 74.21875 37.203125 74.21875 
Q 40.921875 74.21875 44.703125 73.484375 
Q 48.484375 72.75 52.59375 71.296875 
z
" id="DejaVuSans-54"/>
    </defs>
    <g transform="translate(140.876875 20.88)scale(0.12 -0.12)">
     <use xlink:href="#DejaVuSans-86"/>
     <use x="68.408203" xlink:href="#DejaVuSans-49"/>
     <use x="132.03125" xlink:href="#DejaVuSans-44"/>
     <use x="163.818359" xlink:href="#DejaVuSans-32"/>
     <use x="195.605469" xlink:href="#DejaVuSans-78"/>
     <use x="270.410156" xlink:href="#DejaVuSans-117"/>
     <use x="333.789062" xlink:href="#DejaVuSans-109"/>
     <use x="431.201172" xlink:href="#DejaVuSans-32"/>
     <use x="462.988281" xlink:href="#DejaVuSans-84"/>
     <use x="523.853516" xlink:href="#DejaVuSans-114"/>
     <use x="564.966797" xlink:href="#DejaVuSans-105"/>
     <use x="592.75" xlink:href="#DejaVuSans-97"/>
     <use x="654.029297" xlink:href="#DejaVuSans-108"/>
     <use x="681.8125" xlink:href="#DejaVuSans-115"/>
     <use x="733.912109" xlink:href="#DejaVuSans-61"/>
     <use x="817.701172" xlink:href="#DejaVuSans-49"/>
     <use x="881.324219" xlink:href="#DejaVuSans-48"/>
     <use x="944.947266" xlink:href="#DejaVuSans-32"/>
     <use x="976.734375" xlink:href="#DejaVuSans-65"/>
     <use x="1045.142578" xlink:href="#DejaVuSans-108"/>
     <use x="1072.925781" xlink:href="#DejaVuSans-108"/>
     <use x="1100.708984" xlink:href="#DejaVuSans-32"/>
     <use x="1132.496094" xlink:href="#DejaVuSans-117"/>
     <use x="1195.875" xlink:href="#DejaVuSans-110"/>
     <use x="1259.253906" xlink:href="#DejaVuSans-115"/>
     <use x="1311.353516" xlink:href="#DejaVuSans-116"/>
     <use x="1350.5625" xlink:href="#DejaVuSans-105"/>
     <use x="1378.345703" xlink:href="#DejaVuSans-109"/>
     <use x="1475.757812" xlink:href="#DejaVuSans-117"/>
     <use x="1539.136719" xlink:href="#DejaVuSans-108"/>
     <use x="1566.919922" xlink:href="#DejaVuSans-97"/>
     <use x="1628.199219" xlink:href="#DejaVuSans-116"/>
     <use x="1667.408203" xlink:href="#DejaVuSans-101"/>
     <use x="1728.931641" xlink:href="#DejaVuSans-100"/>
     <use x="1792.408203" xlink:href="#DejaVuSans-32"/>
     <use x="1824.195312" xlink:href="#DejaVuSans-116"/>
     <use x="1863.404297" xlink:href="#DejaVuSans-114"/>
     <use x="1904.517578" xlink:href="#DejaVuSans-105"/>
     <use x="1932.300781" xlink:href="#DejaVuSans-97"/>
     <use x="1993.580078" xlink:href="#DejaVuSans-108"/>
     <use x="2021.363281" xlink:href="#DejaVuSans-115"/>
     <use x="2073.462891" xlink:href="#DejaVuSans-44"/>
     <use x="2105.25" xlink:href="#DejaVuSans-32"/>
     <use x="2137.037109" xlink:href="#DejaVuSans-78"/>
     <use x="2211.841797" xlink:href="#DejaVuSans-117"/>
     <use x="2275.220703" xlink:href="#DejaVuSans-109"/>
     <use x="2372.632812" xlink:href="#DejaVuSans-32"/>
     <use x="2404.419922" xlink:href="#DejaVuSans-99"/>
     <use x="2459.400391" xlink:href="#DejaVuSans-101"/>
     <use x="2520.923828" xlink:href="#DejaVuSans-108"/>
     <use x="2548.707031" xlink:href="#DejaVuSans-108"/>
     <use x="2576.490234" xlink:href="#DejaVuSans-115"/>
     <use x="2628.589844" xlink:href="#DejaVuSans-32"/>
     <use x="2660.376953" xlink:href="#DejaVuSans-61"/>
     <use x="2744.166016" xlink:href="#DejaVuSans-32"/>
     <use x="2775.953125" xlink:href="#DejaVuSans-49"/>
     <use x="2839.576172" xlink:href="#DejaVuSans-54"/>
     <use x="2903.199219" xlink:href="#DejaVuSans-48"/>
    </g>
   </g>
   <g id="legend_1">
    <g id="patch_7">
     <path d="M 422.16 71.73375 
L 556.8 71.73375 
Q 559.2 71.73375 559.2 69.33375 
L 559.2 35.28 
Q 559.2 32.88 556.8 32.88 
L 422.16 32.88 
Q 419.76 32.88 419.76 35.28 
L 419.76 69.33375 
Q 419.76 71.73375 422.16 71.73375 
z
" style="fill:#ffffff;opacity:0.8;stroke:#cccccc;stroke-linejoin:miter;"/>
    </g>
    <g id="line2d_11">
     <path d="M 424.56 42.6 
L 448.56 42.6 
" style="fill:none;stroke:#0000ff;stroke-linecap:square;stroke-width:1.5;"/>
    </g>
    <g id="line2d_12"/>
    <g id="text_13">
     <!-- COM-Binomial $p$ -->
     <defs>
      <path d="M 4.890625 31.390625 
L 31.203125 31.390625 
L 31.203125 23.390625 
L 4.890625 23.390625 
z
" id="DejaVuSans-45"/>
      <path d="M 19.671875 34.8125 
L 19.671875 8.109375 
L 35.5 8.109375 
Q 43.453125 8.109375 47.28125 11.40625 
Q 51.125 14.703125 51.125 21.484375 
Q 51.125 28.328125 47.28125 31.5625 
Q 43.453125 34.8125 35.5 34.8125 
z
M 19.671875 64.796875 
L 19.671875 42.828125 
L 34.28125 42.828125 
Q 41.5 42.828125 45.03125 45.53125 
Q 48.578125 48.25 48.578125 53.8125 
Q 48.578125 59.328125 45.03125 62.0625 
Q 41.5 64.796875 34.28125 64.796875 
z
M 9.8125 72.90625 
L 35.015625 72.90625 
Q 46.296875 72.90625 52.390625 68.21875 
Q 58.5 63.53125 58.5 54.890625 
Q 58.5 48.1875 55.375 44.234375 
Q 52.25 40.28125 46.1875 39.3125 
Q 53.46875 37.75 57.5 32.78125 
Q 61.53125 27.828125 61.53125 20.40625 
Q 61.53125 10.640625 54.890625 5.3125 
Q 48.25 0 35.984375 0 
L 9.8125 0 
z
" id="DejaVuSans-66"/>
      <path d="M 30.609375 48.390625 
Q 23.390625 48.390625 19.1875 42.75 
Q 14.984375 37.109375 14.984375 27.296875 
Q 14.984375 17.484375 19.15625 11.84375 
Q 23.34375 6.203125 30.609375 6.203125 
Q 37.796875 6.203125 41.984375 11.859375 
Q 46.1875 17.53125 46.1875 27.296875 
Q 46.1875 37.015625 41.984375 42.703125 
Q 37.796875 48.390625 30.609375 48.390625 
z
M 30.609375 56 
Q 42.328125 56 49.015625 48.375 
Q 55.71875 40.765625 55.71875 27.296875 
Q 55.71875 13.875 49.015625 6.21875 
Q 42.328125 -1.421875 30.609375 -1.421875 
Q 18.84375 -1.421875 12.171875 6.21875 
Q 5.515625 13.875 5.515625 27.296875 
Q 5.515625 40.765625 12.171875 48.375 
Q 18.84375 56 30.609375 56 
z
" id="DejaVuSans-111"/>
     </defs>
     <g transform="translate(458.16 46.8)scale(0.12 -0.12)">
      <use transform="translate(0 0.015625)" xlink:href="#DejaVuSans-67"/>
      <use transform="translate(69.824219 0.015625)" xlink:href="#DejaVuSans-79"/>
      <use transform="translate(148.535156 0.015625)" xlink:href="#DejaVuSans-77"/>
      <use transform="translate(234.814453 0.015625)" xlink:href="#DejaVuSans-45"/>
      <use transform="translate(270.898438 0.015625)" xlink:href="#DejaVuSans-66"/>
      <use transform="translate(339.501953 0.015625)" xlink:href="#DejaVuSans-105"/>
      <use transform="translate(367.285156 0.015625)" xlink:href="#DejaVuSans-110"/>
      <use transform="translate(430.664062 0.015625)" xlink:href="#DejaVuSans-111"/>
      <use transform="translate(491.845703 0.015625)" xlink:href="#DejaVuSans-109"/>
      <use transform="translate(589.257812 0.015625)" xlink:href="#DejaVuSans-105"/>
      <use transform="translate(617.041016 0.015625)" xlink:href="#DejaVuSans-97"/>
      <use transform="translate(678.320312 0.015625)" xlink:href="#DejaVuSans-108"/>
      <use transform="translate(706.103516 0.015625)" xlink:href="#DejaVuSans-32"/>
      <use transform="translate(737.890625 0.015625)" xlink:href="#DejaVuSans-Oblique-112"/>
     </g>
    </g>
    <g id="patch_8">
     <path d="M 424.56 64.438125 
L 448.56 64.438125 
L 448.56 56.038125 
L 424.56 56.038125 
z
" style="fill:#0000ff;opacity:0.3;stroke:#0000ff;stroke-linejoin:miter;"/>
    </g>
    <g id="text_14">
     <!-- Std. Err. -->
     <defs>
      <path d="M 53.515625 70.515625 
L 53.515625 60.890625 
Q 47.90625 63.578125 42.921875 64.890625 
Q 37.9375 66.21875 33.296875 66.21875 
Q 25.25 66.21875 20.875 63.09375 
Q 16.5 59.96875 16.5 54.203125 
Q 16.5 49.359375 19.40625 46.890625 
Q 22.3125 44.4375 30.421875 42.921875 
L 36.375 41.703125 
Q 47.40625 39.59375 52.65625 34.296875 
Q 57.90625 29 57.90625 20.125 
Q 57.90625 9.515625 50.796875 4.046875 
Q 43.703125 -1.421875 29.984375 -1.421875 
Q 24.8125 -1.421875 18.96875 -0.25 
Q 13.140625 0.921875 6.890625 3.21875 
L 6.890625 13.375 
Q 12.890625 10.015625 18.65625 8.296875 
Q 24.421875 6.59375 29.984375 6.59375 
Q 38.421875 6.59375 43.015625 9.90625 
Q 47.609375 13.234375 47.609375 19.390625 
Q 47.609375 24.75 44.3125 27.78125 
Q 41.015625 30.8125 33.5 32.328125 
L 27.484375 33.5 
Q 16.453125 35.6875 11.515625 40.375 
Q 6.59375 45.0625 6.59375 53.421875 
Q 6.59375 63.09375 13.40625 68.65625 
Q 20.21875 74.21875 32.171875 74.21875 
Q 37.3125 74.21875 42.625 73.28125 
Q 47.953125 72.359375 53.515625 70.515625 
z
" id="DejaVuSans-83"/>
      <path d="M 9.8125 72.90625 
L 55.90625 72.90625 
L 55.90625 64.59375 
L 19.671875 64.59375 
L 19.671875 43.015625 
L 54.390625 43.015625 
L 54.390625 34.71875 
L 19.671875 34.71875 
L 19.671875 8.296875 
L 56.78125 8.296875 
L 56.78125 0 
L 9.8125 0 
z
" id="DejaVuSans-69"/>
     </defs>
     <g transform="translate(458.16 64.438125)scale(0.12 -0.12)">
      <use xlink:href="#DejaVuSans-83"/>
      <use x="63.476562" xlink:href="#DejaVuSans-116"/>
      <use x="102.685547" xlink:href="#DejaVuSans-100"/>
      <use x="166.162109" xlink:href="#DejaVuSans-46"/>
      <use x="197.949219" xlink:href="#DejaVuSans-32"/>
      <use x="229.736328" xlink:href="#DejaVuSans-69"/>
      <use x="292.919922" xlink:href="#DejaVuSans-114"/>
      <use x="334.017578" xlink:href="#DejaVuSans-114"/>
      <use x="374.990234" xlink:href="#DejaVuSans-46"/>
     </g>
    </g>
   </g>
  </g>
 </g>
 <defs>
  <clipPath id="p5a1e223923">
   <rect height="147.88" width="492.64" x="72.56" y="26.88"/>
  </clipPath>
 </defs>
</svg>
