<?xml version="1.0" encoding="utf-8" standalone="no"?>
<!DOCTYPE svg PUBLIC "-//W3C//DTD SVG 1.1//EN"
  "http://www.w3.org/Graphics/SVG/1.1/DTD/svg11.dtd">
<!-- Created with matplotlib (https://matplotlib.org/) -->
<svg height="216pt" version="1.1" viewBox="0 0 648 216" width="648pt" xmlns="http://www.w3.org/2000/svg" xmlns:xlink="http://www.w3.org/1999/xlink">
 <defs>
  <style type="text/css">
*{stroke-linecap:butt;stroke-linejoin:round;}
  </style>
 </defs>
 <g id="figure_1">
  <g id="patch_1">
   <path d="M 0 216 
L 648 216 
L 648 0 
L 0 0 
z
" style="fill:#ffffff;"/>
  </g>
  <g id="axes_1">
   <g id="patch_2">
    <path d="M 81 192.24 
L 583.2 192.24 
L 583.2 25.92 
L 81 25.92 
z
" style="fill:#ffffff;"/>
   </g>
   <g id="PolyCollection_1">
    <defs>
     <path d="M 128.042816 -23.76 
L 128.042816 -198.396 
L 538.002 -198.396 
L 538.002 -23.76 
L 538.002 -23.76 
L 128.042816 -23.76 
z
" id="mee5fbd3bd6" style="stroke:#808080;stroke-opacity:0.3;"/>
    </defs>
    <g clip-path="url(#p26f481f32f)">
     <use style="fill:#808080;fill-opacity:0.3;stroke:#808080;stroke-opacity:0.3;" x="0" xlink:href="#mee5fbd3bd6" y="216"/>
    </g>
   </g>
   <g id="matplotlib.axis_1">
    <g id="xtick_1">
     <g id="line2d_1">
      <defs>
       <path d="M 0 0 
L 0 3.5 
" id="mf6e9d8ba84" style="stroke:#000000;stroke-width:0.8;"/>
      </defs>
      <g>
       <use style="stroke:#000000;stroke-width:0.8;" x="81" xlink:href="#mf6e9d8ba84" y="192.24"/>
      </g>
     </g>
     <g id="text_1">
      <!-- 0.0 -->
      <defs>
       <path d="M 31.78125 66.40625 
Q 24.171875 66.40625 20.328125 58.90625 
Q 16.5 51.421875 16.5 36.375 
Q 16.5 21.390625 20.328125 13.890625 
Q 24.171875 6.390625 31.78125 6.390625 
Q 39.453125 6.390625 43.28125 13.890625 
Q 47.125 21.390625 47.125 36.375 
Q 47.125 51.421875 43.28125 58.90625 
Q 39.453125 66.40625 31.78125 66.40625 
z
M 31.78125 74.21875 
Q 44.046875 74.21875 50.515625 64.515625 
Q 56.984375 54.828125 56.984375 36.375 
Q 56.984375 17.96875 50.515625 8.265625 
Q 44.046875 -1.421875 31.78125 -1.421875 
Q 19.53125 -1.421875 13.0625 8.265625 
Q 6.59375 17.96875 6.59375 36.375 
Q 6.59375 54.828125 13.0625 64.515625 
Q 19.53125 74.21875 31.78125 74.21875 
z
" id="DejaVuSans-48"/>
       <path d="M 10.6875 12.40625 
L 21 12.40625 
L 21 0 
L 10.6875 0 
z
" id="DejaVuSans-46"/>
      </defs>
      <g transform="translate(71.458125 208.358125)scale(0.12 -0.12)">
       <use xlink:href="#DejaVuSans-48"/>
       <use x="63.623047" xlink:href="#DejaVuSans-46"/>
       <use x="95.410156" xlink:href="#DejaVuSans-48"/>
      </g>
     </g>
    </g>
    <g id="xtick_2">
     <g id="line2d_2">
      <g>
       <use style="stroke:#000000;stroke-width:0.8;" x="183.489796" xlink:href="#mf6e9d8ba84" y="192.24"/>
      </g>
     </g>
     <g id="text_2">
      <!-- 0.5 -->
      <defs>
       <path d="M 10.796875 72.90625 
L 49.515625 72.90625 
L 49.515625 64.59375 
L 19.828125 64.59375 
L 19.828125 46.734375 
Q 21.96875 47.46875 24.109375 47.828125 
Q 26.265625 48.1875 28.421875 48.1875 
Q 40.625 48.1875 47.75 41.5 
Q 54.890625 34.8125 54.890625 23.390625 
Q 54.890625 11.625 47.5625 5.09375 
Q 40.234375 -1.421875 26.90625 -1.421875 
Q 22.3125 -1.421875 17.546875 -0.640625 
Q 12.796875 0.140625 7.71875 1.703125 
L 7.71875 11.625 
Q 12.109375 9.234375 16.796875 8.0625 
Q 21.484375 6.890625 26.703125 6.890625 
Q 35.15625 6.890625 40.078125 11.328125 
Q 45.015625 15.765625 45.015625 23.390625 
Q 45.015625 31 40.078125 35.4375 
Q 35.15625 39.890625 26.703125 39.890625 
Q 22.75 39.890625 18.8125 39.015625 
Q 14.890625 38.140625 10.796875 36.28125 
z
" id="DejaVuSans-53"/>
      </defs>
      <g transform="translate(173.947921 208.358125)scale(0.12 -0.12)">
       <use xlink:href="#DejaVuSans-48"/>
       <use x="63.623047" xlink:href="#DejaVuSans-46"/>
       <use x="95.410156" xlink:href="#DejaVuSans-53"/>
      </g>
     </g>
    </g>
    <g id="xtick_3">
     <g id="line2d_3">
      <g>
       <use style="stroke:#000000;stroke-width:0.8;" x="285.979592" xlink:href="#mf6e9d8ba84" y="192.24"/>
      </g>
     </g>
     <g id="text_3">
      <!-- 1.0 -->
      <defs>
       <path d="M 12.40625 8.296875 
L 28.515625 8.296875 
L 28.515625 63.921875 
L 10.984375 60.40625 
L 10.984375 69.390625 
L 28.421875 72.90625 
L 38.28125 72.90625 
L 38.28125 8.296875 
L 54.390625 8.296875 
L 54.390625 0 
L 12.40625 0 
z
" id="DejaVuSans-49"/>
      </defs>
      <g transform="translate(276.437717 208.358125)scale(0.12 -0.12)">
       <use xlink:href="#DejaVuSans-49"/>
       <use x="63.623047" xlink:href="#DejaVuSans-46"/>
       <use x="95.410156" xlink:href="#DejaVuSans-48"/>
      </g>
     </g>
    </g>
    <g id="xtick_4">
     <g id="line2d_4">
      <g>
       <use style="stroke:#000000;stroke-width:0.8;" x="388.469388" xlink:href="#mf6e9d8ba84" y="192.24"/>
      </g>
     </g>
     <g id="text_4">
      <!-- 1.5 -->
      <g transform="translate(378.927513 208.358125)scale(0.12 -0.12)">
       <use xlink:href="#DejaVuSans-49"/>
       <use x="63.623047" xlink:href="#DejaVuSans-46"/>
       <use x="95.410156" xlink:href="#DejaVuSans-53"/>
      </g>
     </g>
    </g>
    <g id="xtick_5">
     <g id="line2d_5">
      <g>
       <use style="stroke:#000000;stroke-width:0.8;" x="490.959184" xlink:href="#mf6e9d8ba84" y="192.24"/>
      </g>
     </g>
     <g id="text_5">
      <!-- 2.0 -->
      <defs>
       <path d="M 19.1875 8.296875 
L 53.609375 8.296875 
L 53.609375 0 
L 7.328125 0 
L 7.328125 8.296875 
Q 12.9375 14.109375 22.625 23.890625 
Q 32.328125 33.6875 34.8125 36.53125 
Q 39.546875 41.84375 41.421875 45.53125 
Q 43.3125 49.21875 43.3125 52.78125 
Q 43.3125 58.59375 39.234375 62.25 
Q 35.15625 65.921875 28.609375 65.921875 
Q 23.96875 65.921875 18.8125 64.3125 
Q 13.671875 62.703125 7.8125 59.421875 
L 7.8125 69.390625 
Q 13.765625 71.78125 18.9375 73 
Q 24.125 74.21875 28.421875 74.21875 
Q 39.75 74.21875 46.484375 68.546875 
Q 53.21875 62.890625 53.21875 53.421875 
Q 53.21875 48.921875 51.53125 44.890625 
Q 49.859375 40.875 45.40625 35.40625 
Q 44.1875 33.984375 37.640625 27.21875 
Q 31.109375 20.453125 19.1875 8.296875 
z
" id="DejaVuSans-50"/>
      </defs>
      <g transform="translate(481.417309 208.358125)scale(0.12 -0.12)">
       <use xlink:href="#DejaVuSans-50"/>
       <use x="63.623047" xlink:href="#DejaVuSans-46"/>
       <use x="95.410156" xlink:href="#DejaVuSans-48"/>
      </g>
     </g>
    </g>
    <g id="text_6">
     <!-- Time (s) -->
     <defs>
      <path d="M -0.296875 72.90625 
L 61.375 72.90625 
L 61.375 64.59375 
L 35.5 64.59375 
L 35.5 0 
L 25.59375 0 
L 25.59375 64.59375 
L -0.296875 64.59375 
z
" id="DejaVuSans-84"/>
      <path d="M 9.421875 54.6875 
L 18.40625 54.6875 
L 18.40625 0 
L 9.421875 0 
z
M 9.421875 75.984375 
L 18.40625 75.984375 
L 18.40625 64.59375 
L 9.421875 64.59375 
z
" id="DejaVuSans-105"/>
      <path d="M 52 44.1875 
Q 55.375 50.25 60.0625 53.125 
Q 64.75 56 71.09375 56 
Q 79.640625 56 84.28125 50.015625 
Q 88.921875 44.046875 88.921875 33.015625 
L 88.921875 0 
L 79.890625 0 
L 79.890625 32.71875 
Q 79.890625 40.578125 77.09375 44.375 
Q 74.3125 48.1875 68.609375 48.1875 
Q 61.625 48.1875 57.5625 43.546875 
Q 53.515625 38.921875 53.515625 30.90625 
L 53.515625 0 
L 44.484375 0 
L 44.484375 32.71875 
Q 44.484375 40.625 41.703125 44.40625 
Q 38.921875 48.1875 33.109375 48.1875 
Q 26.21875 48.1875 22.15625 43.53125 
Q 18.109375 38.875 18.109375 30.90625 
L 18.109375 0 
L 9.078125 0 
L 9.078125 54.6875 
L 18.109375 54.6875 
L 18.109375 46.1875 
Q 21.1875 51.21875 25.484375 53.609375 
Q 29.78125 56 35.6875 56 
Q 41.65625 56 45.828125 52.96875 
Q 50 49.953125 52 44.1875 
z
" id="DejaVuSans-109"/>
      <path d="M 56.203125 29.59375 
L 56.203125 25.203125 
L 14.890625 25.203125 
Q 15.484375 15.921875 20.484375 11.0625 
Q 25.484375 6.203125 34.421875 6.203125 
Q 39.59375 6.203125 44.453125 7.46875 
Q 49.3125 8.734375 54.109375 11.28125 
L 54.109375 2.78125 
Q 49.265625 0.734375 44.1875 -0.34375 
Q 39.109375 -1.421875 33.890625 -1.421875 
Q 20.796875 -1.421875 13.15625 6.1875 
Q 5.515625 13.8125 5.515625 26.8125 
Q 5.515625 40.234375 12.765625 48.109375 
Q 20.015625 56 32.328125 56 
Q 43.359375 56 49.78125 48.890625 
Q 56.203125 41.796875 56.203125 29.59375 
z
M 47.21875 32.234375 
Q 47.125 39.59375 43.09375 43.984375 
Q 39.0625 48.390625 32.421875 48.390625 
Q 24.90625 48.390625 20.390625 44.140625 
Q 15.875 39.890625 15.1875 32.171875 
z
" id="DejaVuSans-101"/>
      <path id="DejaVuSans-32"/>
      <path d="M 31 75.875 
Q 24.46875 64.65625 21.28125 53.65625 
Q 18.109375 42.671875 18.109375 31.390625 
Q 18.109375 20.125 21.3125 9.0625 
Q 24.515625 -2 31 -13.1875 
L 23.1875 -13.1875 
Q 15.875 -1.703125 12.234375 9.375 
Q 8.59375 20.453125 8.59375 31.390625 
Q 8.59375 42.28125 12.203125 53.3125 
Q 15.828125 64.359375 23.1875 75.875 
z
" id="DejaVuSans-40"/>
      <path d="M 44.28125 53.078125 
L 44.28125 44.578125 
Q 40.484375 46.53125 36.375 47.5 
Q 32.28125 48.484375 27.875 48.484375 
Q 21.1875 48.484375 17.84375 46.4375 
Q 14.5 44.390625 14.5 40.28125 
Q 14.5 37.15625 16.890625 35.375 
Q 19.28125 33.59375 26.515625 31.984375 
L 29.59375 31.296875 
Q 39.15625 29.25 43.1875 25.515625 
Q 47.21875 21.78125 47.21875 15.09375 
Q 47.21875 7.46875 41.1875 3.015625 
Q 35.15625 -1.421875 24.609375 -1.421875 
Q 20.21875 -1.421875 15.453125 -0.5625 
Q 10.6875 0.296875 5.421875 2 
L 5.421875 11.28125 
Q 10.40625 8.6875 15.234375 7.390625 
Q 20.0625 6.109375 24.8125 6.109375 
Q 31.15625 6.109375 34.5625 8.28125 
Q 37.984375 10.453125 37.984375 14.40625 
Q 37.984375 18.0625 35.515625 20.015625 
Q 33.0625 21.96875 24.703125 23.78125 
L 21.578125 24.515625 
Q 13.234375 26.265625 9.515625 29.90625 
Q 5.8125 33.546875 5.8125 39.890625 
Q 5.8125 47.609375 11.28125 51.796875 
Q 16.75 56 26.8125 56 
Q 31.78125 56 36.171875 55.265625 
Q 40.578125 54.546875 44.28125 53.078125 
z
" id="DejaVuSans-115"/>
      <path d="M 8.015625 75.875 
L 15.828125 75.875 
Q 23.140625 64.359375 26.78125 53.3125 
Q 30.421875 42.28125 30.421875 31.390625 
Q 30.421875 20.453125 26.78125 9.375 
Q 23.140625 -1.703125 15.828125 -13.1875 
L 8.015625 -13.1875 
Q 14.5 -2 17.703125 9.0625 
Q 20.90625 20.125 20.90625 31.390625 
Q 20.90625 42.671875 17.703125 53.65625 
Q 14.5 64.65625 8.015625 75.875 
z
" id="DejaVuSans-41"/>
     </defs>
     <g transform="translate(302.60475 225.7955)scale(0.144 -0.144)">
      <use xlink:href="#DejaVuSans-84"/>
      <use x="61.037109" xlink:href="#DejaVuSans-105"/>
      <use x="88.820312" xlink:href="#DejaVuSans-109"/>
      <use x="186.232422" xlink:href="#DejaVuSans-101"/>
      <use x="247.755859" xlink:href="#DejaVuSans-32"/>
      <use x="279.542969" xlink:href="#DejaVuSans-40"/>
      <use x="318.556641" xlink:href="#DejaVuSans-115"/>
      <use x="370.65625" xlink:href="#DejaVuSans-41"/>
     </g>
    </g>
   </g>
   <g id="matplotlib.axis_2">
    <g id="ytick_1">
     <g id="line2d_6">
      <defs>
       <path d="M 0 0 
L -3.5 0 
" id="m39fd45ee87" style="stroke:#000000;stroke-width:0.8;"/>
      </defs>
      <g>
       <use style="stroke:#000000;stroke-width:0.8;" x="81" xlink:href="#m39fd45ee87" y="157.871897"/>
      </g>
     </g>
     <g id="text_7">
      <!-- 0.1 -->
      <g transform="translate(54.91625 162.43096)scale(0.12 -0.12)">
       <use xlink:href="#DejaVuSans-48"/>
       <use x="63.623047" xlink:href="#DejaVuSans-46"/>
       <use x="95.410156" xlink:href="#DejaVuSans-49"/>
      </g>
     </g>
    </g>
    <g id="ytick_2">
     <g id="line2d_7">
      <g>
       <use style="stroke:#000000;stroke-width:0.8;" x="81" xlink:href="#m39fd45ee87" y="123.503792"/>
      </g>
     </g>
     <g id="text_8">
      <!-- 0.2 -->
      <g transform="translate(54.91625 128.062854)scale(0.12 -0.12)">
       <use xlink:href="#DejaVuSans-48"/>
       <use x="63.623047" xlink:href="#DejaVuSans-46"/>
       <use x="95.410156" xlink:href="#DejaVuSans-50"/>
      </g>
     </g>
    </g>
    <g id="ytick_3">
     <g id="line2d_8">
      <g>
       <use style="stroke:#000000;stroke-width:0.8;" x="81" xlink:href="#m39fd45ee87" y="89.135686"/>
      </g>
     </g>
     <g id="text_9">
      <!-- 0.3 -->
      <defs>
       <path d="M 40.578125 39.3125 
Q 47.65625 37.796875 51.625 33 
Q 55.609375 28.21875 55.609375 21.1875 
Q 55.609375 10.40625 48.1875 4.484375 
Q 40.765625 -1.421875 27.09375 -1.421875 
Q 22.515625 -1.421875 17.65625 -0.515625 
Q 12.796875 0.390625 7.625 2.203125 
L 7.625 11.71875 
Q 11.71875 9.328125 16.59375 8.109375 
Q 21.484375 6.890625 26.8125 6.890625 
Q 36.078125 6.890625 40.9375 10.546875 
Q 45.796875 14.203125 45.796875 21.1875 
Q 45.796875 27.640625 41.28125 31.265625 
Q 36.765625 34.90625 28.71875 34.90625 
L 20.21875 34.90625 
L 20.21875 43.015625 
L 29.109375 43.015625 
Q 36.375 43.015625 40.234375 45.921875 
Q 44.09375 48.828125 44.09375 54.296875 
Q 44.09375 59.90625 40.109375 62.90625 
Q 36.140625 65.921875 28.71875 65.921875 
Q 24.65625 65.921875 20.015625 65.03125 
Q 15.375 64.15625 9.8125 62.3125 
L 9.8125 71.09375 
Q 15.4375 72.65625 20.34375 73.4375 
Q 25.25 74.21875 29.59375 74.21875 
Q 40.828125 74.21875 47.359375 69.109375 
Q 53.90625 64.015625 53.90625 55.328125 
Q 53.90625 49.265625 50.4375 45.09375 
Q 46.96875 40.921875 40.578125 39.3125 
z
" id="DejaVuSans-51"/>
      </defs>
      <g transform="translate(54.91625 93.694748)scale(0.12 -0.12)">
       <use xlink:href="#DejaVuSans-48"/>
       <use x="63.623047" xlink:href="#DejaVuSans-46"/>
       <use x="95.410156" xlink:href="#DejaVuSans-51"/>
      </g>
     </g>
    </g>
    <g id="ytick_4">
     <g id="line2d_9">
      <g>
       <use style="stroke:#000000;stroke-width:0.8;" x="81" xlink:href="#m39fd45ee87" y="54.76758"/>
      </g>
     </g>
     <g id="text_10">
      <!-- 0.4 -->
      <defs>
       <path d="M 37.796875 64.3125 
L 12.890625 25.390625 
L 37.796875 25.390625 
z
M 35.203125 72.90625 
L 47.609375 72.90625 
L 47.609375 25.390625 
L 58.015625 25.390625 
L 58.015625 17.1875 
L 47.609375 17.1875 
L 47.609375 0 
L 37.796875 0 
L 37.796875 17.1875 
L 4.890625 17.1875 
L 4.890625 26.703125 
z
" id="DejaVuSans-52"/>
      </defs>
      <g transform="translate(54.91625 59.326642)scale(0.12 -0.12)">
       <use xlink:href="#DejaVuSans-48"/>
       <use x="63.623047" xlink:href="#DejaVuSans-46"/>
       <use x="95.410156" xlink:href="#DejaVuSans-52"/>
      </g>
     </g>
    </g>
    <g id="text_11">
     <!-- COMb $p$ -->
     <defs>
      <path d="M 64.40625 67.28125 
L 64.40625 56.890625 
Q 59.421875 61.53125 53.78125 63.8125 
Q 48.140625 66.109375 41.796875 66.109375 
Q 29.296875 66.109375 22.65625 58.46875 
Q 16.015625 50.828125 16.015625 36.375 
Q 16.015625 21.96875 22.65625 14.328125 
Q 29.296875 6.6875 41.796875 6.6875 
Q 48.140625 6.6875 53.78125 8.984375 
Q 59.421875 11.28125 64.40625 15.921875 
L 64.40625 5.609375 
Q 59.234375 2.09375 53.4375 0.328125 
Q 47.65625 -1.421875 41.21875 -1.421875 
Q 24.65625 -1.421875 15.125 8.703125 
Q 5.609375 18.84375 5.609375 36.375 
Q 5.609375 53.953125 15.125 64.078125 
Q 24.65625 74.21875 41.21875 74.21875 
Q 47.75 74.21875 53.53125 72.484375 
Q 59.328125 70.75 64.40625 67.28125 
z
" id="DejaVuSans-67"/>
      <path d="M 39.40625 66.21875 
Q 28.65625 66.21875 22.328125 58.203125 
Q 16.015625 50.203125 16.015625 36.375 
Q 16.015625 22.609375 22.328125 14.59375 
Q 28.65625 6.59375 39.40625 6.59375 
Q 50.140625 6.59375 56.421875 14.59375 
Q 62.703125 22.609375 62.703125 36.375 
Q 62.703125 50.203125 56.421875 58.203125 
Q 50.140625 66.21875 39.40625 66.21875 
z
M 39.40625 74.21875 
Q 54.734375 74.21875 63.90625 63.9375 
Q 73.09375 53.65625 73.09375 36.375 
Q 73.09375 19.140625 63.90625 8.859375 
Q 54.734375 -1.421875 39.40625 -1.421875 
Q 24.03125 -1.421875 14.8125 8.828125 
Q 5.609375 19.09375 5.609375 36.375 
Q 5.609375 53.65625 14.8125 63.9375 
Q 24.03125 74.21875 39.40625 74.21875 
z
" id="DejaVuSans-79"/>
      <path d="M 9.8125 72.90625 
L 24.515625 72.90625 
L 43.109375 23.296875 
L 61.8125 72.90625 
L 76.515625 72.90625 
L 76.515625 0 
L 66.890625 0 
L 66.890625 64.015625 
L 48.09375 14.015625 
L 38.1875 14.015625 
L 19.390625 64.015625 
L 19.390625 0 
L 9.8125 0 
z
" id="DejaVuSans-77"/>
      <path d="M 48.6875 27.296875 
Q 48.6875 37.203125 44.609375 42.84375 
Q 40.53125 48.484375 33.40625 48.484375 
Q 26.265625 48.484375 22.1875 42.84375 
Q 18.109375 37.203125 18.109375 27.296875 
Q 18.109375 17.390625 22.1875 11.75 
Q 26.265625 6.109375 33.40625 6.109375 
Q 40.53125 6.109375 44.609375 11.75 
Q 48.6875 17.390625 48.6875 27.296875 
z
M 18.109375 46.390625 
Q 20.953125 51.265625 25.265625 53.625 
Q 29.59375 56 35.59375 56 
Q 45.5625 56 51.78125 48.09375 
Q 58.015625 40.1875 58.015625 27.296875 
Q 58.015625 14.40625 51.78125 6.484375 
Q 45.5625 -1.421875 35.59375 -1.421875 
Q 29.59375 -1.421875 25.265625 0.953125 
Q 20.953125 3.328125 18.109375 8.203125 
L 18.109375 0 
L 9.078125 0 
L 9.078125 75.984375 
L 18.109375 75.984375 
z
" id="DejaVuSans-98"/>
      <path d="M 49.609375 33.6875 
Q 49.609375 40.875 46.484375 44.671875 
Q 43.359375 48.484375 37.5 48.484375 
Q 33.5 48.484375 29.859375 46.4375 
Q 26.21875 44.390625 23.390625 40.484375 
Q 20.609375 36.625 18.9375 31.15625 
Q 17.28125 25.6875 17.28125 20.3125 
Q 17.28125 13.484375 20.40625 9.796875 
Q 23.53125 6.109375 29.296875 6.109375 
Q 33.546875 6.109375 37.1875 8.109375 
Q 40.828125 10.109375 43.40625 13.921875 
Q 46.1875 17.921875 47.890625 23.34375 
Q 49.609375 28.765625 49.609375 33.6875 
z
M 21.78125 46.390625 
Q 25.390625 51.125 30.296875 53.5625 
Q 35.203125 56 41.21875 56 
Q 49.609375 56 54.25 50.5 
Q 58.890625 45.015625 58.890625 35.109375 
Q 58.890625 27 56 19.65625 
Q 53.125 12.3125 47.703125 6.5 
Q 44.09375 2.640625 39.546875 0.609375 
Q 35.015625 -1.421875 29.984375 -1.421875 
Q 24.171875 -1.421875 20.21875 1 
Q 16.265625 3.421875 14.3125 8.203125 
L 8.6875 -20.796875 
L -0.296875 -20.796875 
L 14.40625 54.6875 
L 23.390625 54.6875 
z
" id="DejaVuSans-Oblique-112"/>
     </defs>
     <g transform="translate(47.89225 137.448)rotate(-90)scale(0.144 -0.144)">
      <use transform="translate(0 0.015625)" xlink:href="#DejaVuSans-67"/>
      <use transform="translate(69.824219 0.015625)" xlink:href="#DejaVuSans-79"/>
      <use transform="translate(148.535156 0.015625)" xlink:href="#DejaVuSans-77"/>
      <use transform="translate(234.814453 0.015625)" xlink:href="#DejaVuSans-98"/>
      <use transform="translate(298.291016 0.015625)" xlink:href="#DejaVuSans-32"/>
      <use transform="translate(330.078125 0.015625)" xlink:href="#DejaVuSans-Oblique-112"/>
     </g>
    </g>
   </g>
   <g id="line2d_10">
    <path clip-path="url(#p26f481f32f)" d="M 81 189.215722 
L 83.049796 186.983749 
L 85.099592 186.983957 
L 87.149388 185.727178 
L 91.24898 185.727169 
L 93.298776 188.809151 
L 95.348571 188.809151 
L 97.398367 192.19875 
L 111.746939 192.222681 
L 113.796735 190.099416 
L 115.846531 190.39048 
L 117.896327 177.726092 
L 119.946122 189.150726 
L 121.995918 190.39048 
L 124.045714 188.053114 
L 126.09551 188.05315 
L 130.195102 115.658967 
L 132.244898 83.955102 
L 134.294694 186.983957 
L 136.34449 191.223443 
L 138.394286 191.617089 
L 140.444082 189.216269 
L 142.493878 190.491945 
L 144.543673 190.492167 
L 146.593469 191.223443 
L 148.643265 192.210021 
L 150.693061 192.144946 
L 154.792653 192.230594 
L 162.991837 192.205142 
L 177.340408 192.238212 
L 179.390204 192.118975 
L 185.539592 192.230594 
L 195.788571 191.888823 
L 199.888163 192.078351 
L 201.937959 191.94843 
L 203.987755 189.216269 
L 206.037551 188.809088 
L 208.087347 191.969594 
L 210.137143 191.810431 
L 212.186939 189.703937 
L 214.236735 186.673776 
L 216.286531 168.760211 
L 220.386122 168.760211 
L 222.435918 179.837778 
L 224.485714 185.727178 
L 226.53551 179.837778 
L 228.585306 115.432684 
L 230.635102 179.837778 
L 232.684898 191.810431 
L 234.734694 192.172565 
L 238.834286 192.239161 
L 255.232653 192.172565 
L 257.282449 192.106622 
L 259.332245 191.703002 
L 261.382041 190.4177 
L 263.431837 188.808752 
L 265.481633 191.062471 
L 267.531429 192.106624 
L 269.581224 192.238094 
L 271.63102 192.238094 
L 273.680816 192.05905 
L 275.730612 192.05905 
L 277.780408 192.235186 
L 288.029388 192.235186 
L 290.079184 192.05905 
L 292.12898 192.19875 
L 296.228571 192.119236 
L 298.278367 191.810431 
L 300.328163 189.703915 
L 302.377959 191.810431 
L 304.427755 189.703915 
L 306.477551 192.082575 
L 308.527347 179.879311 
L 310.577143 179.836786 
L 312.626939 188.809088 
L 314.676735 185.727178 
L 316.726531 185.727178 
L 318.776327 186.983749 
L 320.826122 186.197318 
L 322.875918 157.450382 
L 324.925714 151.276566 
L 326.97551 82.039618 
L 329.025306 103.781546 
L 331.075102 49.862263 
L 333.124898 38.218823 
L 335.174694 27.861732 
L 337.22449 57.51457 
L 339.274286 38.221376 
L 341.324082 38.221376 
L 343.373878 56.053719 
L 345.423673 78.090443 
L 347.473469 103.781546 
L 349.523265 126.055312 
L 351.573061 125.728621 
L 353.622857 132.02785 
L 355.672653 140.361924 
L 357.722449 115.66043 
L 359.772245 83.950192 
L 361.822041 130.164996 
L 363.871837 153.020359 
L 365.921633 58.301925 
L 367.971429 164.910087 
L 370.021224 191.021104 
L 372.07102 192.082481 
L 374.120816 164.910087 
L 376.170612 179.881292 
L 378.220408 191.939298 
L 380.270204 191.021104 
L 382.32 179.879311 
L 384.369796 186.673707 
L 386.419592 189.703937 
L 388.469388 177.726092 
L 392.56898 177.726092 
L 394.618776 184.993146 
L 396.668571 189.984326 
L 398.718367 189.984326 
L 400.768163 190.39048 
L 402.817959 189.150726 
L 404.867755 187.063777 
L 406.917551 190.390495 
L 408.967347 192.172565 
L 413.066939 192.222138 
L 417.166531 192.148883 
L 419.216327 192.188328 
L 421.266122 192.078351 
L 423.315918 192.234864 
L 425.365714 192.144946 
L 429.465306 192.222648 
L 431.515102 192.148883 
L 433.564898 191.703002 
L 435.614694 192.205683 
L 437.66449 191.703002 
L 439.714286 189.216269 
L 441.764082 190.492167 
L 443.813878 183.087645 
L 445.863673 117.928875 
L 447.913469 26.363573 
L 449.963265 26.410279 
L 452.013061 26.793969 
L 454.062857 107.501269 
L 458.162449 46.981311 
L 460.212245 83.955102 
L 462.262041 98.271596 
L 464.311837 153.020359 
L 466.361633 168.177572 
L 468.411429 190.417777 
L 470.461224 192.078351 
L 476.610612 192.189222 
L 480.710204 192.211864 
L 493.00898 192.239591 
L 499.158367 192.227284 
L 503.257959 192.05905 
L 505.307755 192.05905 
L 507.357551 191.810431 
L 509.407347 186.673776 
L 511.457143 179.836786 
L 513.506939 115.432684 
L 515.556735 148.750799 
L 519.656327 188.809088 
L 521.706122 191.810431 
L 523.755918 192.172565 
L 525.805714 191.969594 
L 527.85551 192.229919 
L 529.905306 192.118975 
L 531.955102 192.239161 
L 534.004898 192.181648 
L 536.054694 192.239875 
L 538.10449 192.136439 
L 540.154286 192.239742 
L 542.204082 192.001087 
L 544.253878 191.518876 
L 548.353469 192.100385 
L 550.403265 191.826186 
L 552.453061 192.213991 
L 554.502857 192.086641 
L 556.552653 188.824355 
L 558.602449 164.296429 
L 560.652245 145.990174 
L 562.702041 176.068408 
L 564.751837 176.068677 
L 566.801633 186.197383 
L 568.851429 182.333733 
L 570.901224 186.197383 
L 572.95102 176.068677 
L 575.000816 168.758901 
L 577.050612 153.015536 
L 579.100408 187.063819 
L 581.150204 191.518876 
L 583.2 191.826186 
L 583.2 191.826186 
" style="fill:none;stroke:#0000ff;stroke-linecap:square;stroke-opacity:0.05;stroke-width:1.5;"/>
   </g>
   <g id="line2d_11">
    <path clip-path="url(#p26f481f32f)" d="M 81 188.382388 
L 85.099592 190.969133 
L 89.199184 191.60948 
L 91.24898 191.344618 
L 95.348571 191.27346 
L 97.398367 191.359366 
L 99.448163 192.111031 
L 101.497959 192.189222 
L 103.547755 191.910232 
L 105.597551 192.144946 
L 119.946122 192.225344 
L 121.995918 192.155461 
L 124.045714 192.225344 
L 126.09551 191.574122 
L 128.145306 139.832856 
L 130.195102 139.831595 
L 132.244898 153.488417 
L 134.294694 163.766332 
L 138.394286 189.581972 
L 140.444082 189.581972 
L 142.493878 190.426313 
L 144.543673 182.850481 
L 146.593469 181.987646 
L 148.643265 192.148883 
L 150.693061 192.078351 
L 152.742857 192.222138 
L 154.792653 192.235186 
L 156.842449 192.05905 
L 158.892245 192.05905 
L 162.991837 192.238094 
L 179.390204 192.172565 
L 181.44 191.223443 
L 183.489796 191.617089 
L 185.539592 192.188328 
L 193.738776 192.231354 
L 201.937959 192.239587 
L 203.987755 192.118975 
L 206.037551 139.882609 
L 208.087347 83.231386 
L 210.137143 115.044262 
L 212.186939 27.40539 
L 214.236735 76.906076 
L 216.286531 43.198234 
L 218.336327 26.788057 
L 220.386122 27.335108 
L 222.435918 43.198234 
L 224.485714 27.40539 
L 226.53551 192.05905 
L 228.585306 192.238094 
L 232.684898 192.205239 
L 236.78449 192.24 
L 238.834286 192.074176 
L 240.884082 192.074176 
L 242.933878 192.239531 
L 251.133061 192.222681 
L 253.182857 191.888821 
L 257.282449 182.333733 
L 259.332245 166.101265 
L 261.382041 166.101265 
L 263.431837 183.087645 
L 265.481633 189.215722 
L 267.531429 192.17297 
L 269.581224 191.810431 
L 271.63102 188.809088 
L 273.680816 192.106624 
L 275.730612 191.262771 
L 277.780408 191.969594 
L 281.88 192.172565 
L 283.929796 191.969594 
L 285.979592 191.969594 
L 288.029388 191.810431 
L 292.12898 192.05905 
L 294.178776 186.673909 
L 296.228571 192.179144 
L 298.278367 190.4177 
L 300.328163 158.195268 
L 302.377959 186.78459 
L 304.427755 166.835525 
L 306.477551 166.835525 
L 308.527347 174.656205 
L 310.577143 180.177409 
L 312.626939 188.453111 
L 314.676735 189.349042 
L 316.726531 186.651891 
L 318.776327 187.438896 
L 320.826122 191.826186 
L 322.875918 189.984257 
L 324.925714 192.239688 
L 349.523265 192.19401 
L 351.573061 169.055127 
L 353.622857 162.026988 
L 355.672653 174.593036 
L 357.722449 182.54765 
L 359.772245 175.465662 
L 361.822041 169.055127 
L 363.871837 178.900396 
L 365.921633 174.593036 
L 367.971429 180.116448 
L 370.021224 162.028456 
L 372.07102 192.164699 
L 374.120816 191.915306 
L 376.170612 192.11256 
L 378.220408 191.915297 
L 382.32 191.915297 
L 384.369796 191.716519 
L 386.419592 191.3929 
L 388.469388 192.148883 
L 392.56898 192.078351 
L 394.618776 192.205142 
L 398.718367 191.810431 
L 400.768163 192.106624 
L 402.817959 131.028338 
L 404.867755 180.578758 
L 406.917551 92.235095 
L 408.967347 100.662312 
L 411.017143 130.14365 
L 413.066939 155.621785 
L 415.116735 174.494923 
L 417.166531 178.495631 
L 419.216327 187.342264 
L 421.266122 186.043621 
L 423.315918 187.883988 
L 425.365714 180.925943 
L 427.41551 192.219602 
L 429.465306 192.065178 
L 431.515102 192.219513 
L 433.564898 192.219602 
L 435.614694 192.070817 
L 437.66449 191.796919 
L 439.714286 191.941783 
L 441.764082 190.034379 
L 443.813878 177.034122 
L 445.863673 174.486731 
L 447.913469 172.843705 
L 449.963265 178.264031 
L 452.013061 164.774352 
L 454.062857 161.552377 
L 456.112653 159.839123 
L 458.162449 155.983689 
L 460.212245 111.008807 
L 462.262041 130.020303 
L 464.311837 155.286275 
L 466.361633 143.777636 
L 468.411429 72.048669 
L 470.461224 39.486937 
L 472.51102 140.361924 
L 474.560816 170.37792 
L 476.610612 191.223443 
L 478.660408 190.492167 
L 480.710204 182.333733 
L 482.76 188.557149 
L 484.809796 191.888821 
L 486.859592 192.188328 
L 493.00898 192.239601 
L 495.058776 192.023578 
L 497.108571 191.392939 
L 499.158367 191.321667 
L 501.208163 189.077684 
L 503.257959 190.179503 
L 505.307755 189.346366 
L 507.357551 189.111735 
L 509.407347 180.984993 
L 511.457143 166.588013 
L 513.506939 166.587892 
L 515.556735 177.788801 
L 517.606531 172.50546 
L 519.656327 165.427953 
L 521.706122 179.746198 
L 523.755918 128.187499 
L 525.805714 86.452524 
L 527.85551 128.187499 
L 529.905306 176.346517 
L 531.955102 188.808752 
L 534.004898 190.417777 
L 536.054694 189.703915 
L 538.10449 192.05905 
L 540.154286 115.044262 
L 542.204082 139.882609 
L 544.253878 131.579428 
L 546.303673 157.845098 
L 548.353469 139.881792 
L 550.403265 157.845098 
L 552.453061 170.13342 
L 554.502857 178.226071 
L 556.552653 190.070612 
L 558.602449 191.895181 
L 560.652245 192.23911 
L 562.702041 192.170355 
L 566.801633 192.239942 
L 568.851429 192.136439 
L 572.95102 192.239875 
L 583.2 192.239894 
L 583.2 192.239894 
" style="fill:none;stroke:#0000ff;stroke-linecap:square;stroke-opacity:0.05;stroke-width:1.5;"/>
   </g>
   <g id="line2d_12">
    <path clip-path="url(#p26f481f32f)" d="M 81 110.277349 
L 83.049796 151.276566 
L 87.149388 151.276566 
L 89.199184 110.277349 
L 91.24898 116.514776 
L 93.298776 86.461455 
L 95.348571 97.475787 
L 97.398367 148.750799 
L 99.448163 192.239558 
L 111.746939 192.236112 
L 113.796735 192.05905 
L 115.846531 192.19875 
L 117.896327 192.106622 
L 119.946122 192.188328 
L 121.995918 191.640739 
L 124.045714 190.432903 
L 126.09551 191.321411 
L 128.145306 191.150451 
L 130.195102 191.19978 
L 134.294694 190.517771 
L 136.34449 190.67051 
L 138.394286 190.031809 
L 142.493878 188.289139 
L 144.543673 186.484294 
L 146.593469 180.810842 
L 148.643265 180.991484 
L 150.693061 182.919432 
L 152.742857 191.253728 
L 154.792653 189.990855 
L 156.842449 188.55713 
L 158.892245 189.990875 
L 160.942041 176.068677 
L 162.991837 166.101265 
L 165.041633 176.068677 
L 167.091429 176.068408 
L 169.141224 183.087645 
L 171.19102 185.727006 
L 173.240816 186.673776 
L 175.290612 179.881292 
L 177.340408 179.879311 
L 179.390204 164.910087 
L 181.44 98.271596 
L 183.489796 130.160764 
L 185.539592 179.222136 
L 187.589388 184.993146 
L 189.639184 179.222136 
L 191.68898 184.993146 
L 193.738776 179.222136 
L 195.788571 189.984326 
L 197.838367 192.082888 
L 199.888163 192.100413 
L 201.937959 192.237254 
L 212.186939 192.239896 
L 214.236735 192.126372 
L 216.286531 192.224403 
L 220.386122 192.101116 
L 222.435918 192.144649 
L 224.485714 191.574122 
L 226.53551 189.150726 
L 228.585306 187.063777 
L 230.635102 153.020359 
L 232.684898 153.020359 
L 234.734694 47.002005 
L 236.78449 189.703915 
L 238.834286 107.501269 
L 240.884082 127.453656 
L 242.933878 182.079984 
L 244.983673 185.426444 
L 247.033469 180.285797 
L 249.083265 186.598722 
L 251.133061 186.598712 
L 255.232653 191.501438 
L 257.282449 190.707826 
L 259.332245 192.211788 
L 261.382041 192.222681 
L 263.431837 192.030798 
L 265.481633 191.617089 
L 267.531429 191.94843 
L 269.581224 190.491945 
L 271.63102 189.215722 
L 273.680816 191.262771 
L 275.730612 191.062471 
L 277.780408 191.969594 
L 279.830204 177.726092 
L 281.88 183.560183 
L 283.929796 168.176886 
L 285.979592 170.37792 
L 290.079184 190.099416 
L 292.12898 190.099416 
L 296.228571 183.532431 
L 298.278367 170.37792 
L 300.328163 190.417777 
L 302.377959 188.809151 
L 304.427755 192.106624 
L 322.875918 192.239161 
L 324.925714 192.118975 
L 326.97551 192.239675 
L 343.373878 192.238094 
L 345.423673 169.012004 
L 347.473469 70.7621 
L 349.523265 125.074021 
L 351.573061 159.374941 
L 353.622857 169.908128 
L 357.722449 169.908128 
L 359.772245 159.374941 
L 361.822041 177.24642 
L 363.871837 177.247142 
L 365.921633 190.828722 
L 367.971429 192.115162 
L 370.021224 191.915306 
L 374.120816 191.977991 
L 376.170612 191.570086 
L 378.220408 191.570086 
L 380.270204 191.947258 
L 382.32 191.570086 
L 384.369796 192.045389 
L 392.56898 192.222138 
L 398.718367 192.222138 
L 400.768163 191.94843 
L 402.817959 192.030798 
L 404.867755 184.310942 
L 406.917551 187.086408 
L 408.967347 190.068211 
L 411.017143 188.824355 
L 413.066939 188.824355 
L 417.166531 191.321565 
L 419.216327 191.900151 
L 421.266122 192.180541 
L 425.365714 192.168337 
L 427.41551 191.910232 
L 429.465306 192.1648 
L 431.515102 192.130023 
L 435.614694 192.219713 
L 449.963265 192.159609 
L 452.013061 191.910232 
L 454.062857 192.188328 
L 458.162449 192.078348 
L 460.212245 192.078351 
L 462.262041 191.262799 
L 464.311837 192.172565 
L 466.361633 191.262799 
L 468.411429 192.148883 
L 470.461224 192.188328 
L 472.51102 191.617089 
L 474.560816 187.086408 
L 476.610612 186.598712 
L 478.660408 178.177794 
L 480.710204 172.739701 
L 482.76 178.177794 
L 484.809796 178.990568 
L 486.859592 174.975073 
L 488.909388 157.252283 
L 490.959184 185.426444 
L 493.00898 185.426444 
L 495.058776 191.253739 
L 497.108571 191.3929 
L 499.158367 192.222681 
L 501.208163 192.222681 
L 503.257959 191.910214 
L 505.307755 192.19401 
L 507.357551 192.037369 
L 509.407347 191.253739 
L 511.457143 190.695904 
L 513.506939 191.834234 
L 515.556735 191.716519 
L 517.606531 192.164699 
L 519.656327 192.030797 
L 521.706122 192.11492 
L 523.755918 191.39289 
L 525.805714 191.617089 
L 527.85551 192.078351 
L 529.905306 192.222138 
L 531.955102 190.4177 
L 534.004898 191.810431 
L 536.054694 132.02785 
L 538.10449 103.777031 
L 540.154286 155.96692 
L 542.204082 155.78158 
L 544.253878 166.034564 
L 546.303673 185.058042 
L 548.353469 188.627157 
L 550.403265 186.157287 
L 552.453061 182.396585 
L 554.502857 185.623744 
L 556.552653 190.367884 
L 558.602449 188.89332 
L 560.652245 178.597001 
L 562.702041 169.438361 
L 564.751837 171.154152 
L 568.851429 121.561962 
L 570.901224 112.790989 
L 572.95102 143.504126 
L 575.000816 104.029355 
L 577.050612 27.257608 
L 579.100408 26.517408 
L 581.150204 26.794979 
L 583.2 26.532363 
L 583.2 26.532363 
" style="fill:none;stroke:#0000ff;stroke-linecap:square;stroke-opacity:0.05;stroke-width:1.5;"/>
   </g>
   <g id="line2d_13">
    <path clip-path="url(#p26f481f32f)" d="M 81 186.437003 
L 83.049796 184.460509 
L 85.099592 186.95168 
L 87.149388 185.280623 
L 91.24898 173.458892 
L 93.298776 179.836786 
L 95.348571 191.021104 
L 97.398367 87.827772 
L 99.448163 188.566955 
L 101.497959 192.226604 
L 103.547755 192.118975 
L 105.597551 72.961413 
L 107.647347 118.076045 
L 109.697143 145.775154 
L 111.746939 164.630202 
L 113.796735 171.277517 
L 115.846531 176.448838 
L 117.896327 160.779587 
L 119.946122 142.163128 
L 121.995918 142.163128 
L 124.045714 54.538201 
L 126.09551 189.984257 
L 128.145306 190.969741 
L 132.244898 179.222136 
L 134.294694 184.993146 
L 136.34449 179.222136 
L 138.394286 192.118975 
L 140.444082 192.239675 
L 142.493878 189.150726 
L 144.543673 190.39048 
L 146.593469 190.099416 
L 148.643265 191.704227 
L 150.693061 192.101116 
L 156.842449 191.900151 
L 158.892245 191.392934 
L 160.942041 191.392939 
L 162.991837 192.222138 
L 173.240816 192.238014 
L 177.340408 192.19875 
L 179.390204 191.969594 
L 181.44 191.969594 
L 183.489796 189.215722 
L 185.539592 186.256017 
L 187.589388 189.817146 
L 189.639184 191.607755 
L 191.68898 191.977991 
L 193.738776 191.607755 
L 195.788571 184.011472 
L 199.888163 191.321667 
L 201.937959 190.828722 
L 203.987755 191.990379 
L 206.037551 192.23195 
L 208.087347 192.23195 
L 210.137143 186.651891 
L 212.186939 180.482991 
L 214.236735 190.275465 
L 216.286531 191.574252 
L 218.336327 191.52557 
L 220.386122 191.262541 
L 222.435918 190.420839 
L 224.485714 188.880507 
L 226.53551 187.691572 
L 228.585306 184.462989 
L 230.635102 184.629445 
L 232.684898 191.60776 
L 234.734694 191.888823 
L 236.78449 190.492167 
L 238.834286 192.148694 
L 242.933878 192.211864 
L 263.431837 192.118975 
L 265.481633 191.94843 
L 269.581224 192.188328 
L 271.63102 192.222681 
L 273.680816 192.078351 
L 277.780408 192.210021 
L 279.830204 192.148883 
L 281.88 191.223443 
L 283.929796 189.215722 
L 285.979592 192.172565 
L 290.079184 191.810431 
L 292.12898 192.221766 
L 294.178776 192.222681 
L 296.228571 191.915306 
L 298.278367 190.209732 
L 300.328163 191.403347 
L 302.377959 191.659578 
L 304.427755 192.183707 
L 310.577143 192.156722 
L 312.626939 191.380818 
L 314.676735 190.828722 
L 318.776327 192.210021 
L 320.826122 191.910232 
L 322.875918 192.222681 
L 329.025306 191.83423 
L 331.075102 191.915297 
L 333.124898 192.11256 
L 337.22449 192.130023 
L 341.324082 192.164699 
L 349.523265 192.237938 
L 353.622857 192.074176 
L 361.822041 192.220256 
L 376.170612 192.188328 
L 378.220408 100.214428 
L 380.270204 27.213902 
L 382.32 105.14141 
L 386.419592 144.697347 
L 388.469388 144.697347 
L 390.519184 169.908128 
L 392.56898 155.991064 
L 394.618776 174.656205 
L 396.668571 184.014402 
L 398.718367 192.210021 
L 400.768163 191.915297 
L 402.817959 189.990855 
L 404.867755 190.492167 
L 406.917551 164.296379 
L 408.967347 178.388635 
L 411.017143 170.37792 
L 413.066939 188.824355 
L 415.116735 187.684295 
L 419.216327 189.111735 
L 421.266122 187.452816 
L 423.315918 189.653436 
L 425.365714 189.604014 
L 427.41551 190.973726 
L 429.465306 190.865705 
L 431.515102 186.803317 
L 433.564898 184.713907 
L 435.614694 183.930488 
L 439.714286 171.5056 
L 441.764082 180.285962 
L 443.813878 180.285962 
L 445.863673 182.079984 
L 447.913469 173.712252 
L 449.963265 177.726092 
L 452.013061 192.118975 
L 454.062857 192.238094 
L 462.262041 192.05905 
L 464.311837 188.808752 
L 466.361633 188.557149 
L 468.411429 184.011472 
L 470.461224 187.139467 
L 472.51102 190.557712 
L 474.560816 188.911997 
L 476.610612 190.377782 
L 478.660408 190.377769 
L 480.710204 189.734262 
L 482.76 190.382284 
L 484.809796 187.751828 
L 486.859592 186.565645 
L 488.909388 190.209732 
L 490.959184 180.081119 
L 493.00898 188.206755 
L 495.058776 192.119236 
L 497.108571 192.239675 
L 499.158367 192.238905 
L 501.208163 191.704227 
L 503.257959 191.640739 
L 505.307755 190.057117 
L 507.357551 190.179503 
L 509.407347 189.983728 
L 511.457143 191.5014 
L 513.506939 191.401462 
L 515.556735 191.52557 
L 517.606531 184.428161 
L 519.656327 176.299993 
L 521.706122 184.681349 
L 523.755918 187.834182 
L 525.805714 191.202031 
L 529.905306 190.410052 
L 531.955102 189.750659 
L 534.004898 187.666912 
L 536.054694 183.977168 
L 538.10449 192.070817 
L 540.154286 192.037374 
L 542.204082 191.253739 
L 544.253878 183.982333 
L 546.303673 177.564509 
L 548.353469 166.101265 
L 550.403265 166.101265 
L 552.453061 157.450382 
L 554.502857 177.564509 
L 556.552653 155.78158 
L 558.602449 165.427953 
L 560.652245 165.427953 
L 562.702041 155.96692 
L 564.751837 170.046769 
L 566.801633 143.502608 
L 568.851429 143.504126 
L 570.901224 157.25102 
L 572.95102 143.504126 
L 575.000816 103.781546 
L 577.050612 186.983749 
L 579.100408 183.087645 
L 581.150204 183.087813 
L 583.2 182.333733 
L 583.2 182.333733 
" style="fill:none;stroke:#0000ff;stroke-linecap:square;stroke-opacity:0.05;stroke-width:1.5;"/>
   </g>
   <g id="line2d_14">
    <path clip-path="url(#p26f481f32f)" d="M 81 190.209732 
L 83.049796 185.426444 
L 85.099592 188.894536 
L 87.149388 190.89553 
L 89.199184 191.990379 
L 95.348571 192.231026 
L 97.398367 192.084384 
L 99.448163 192.227264 
L 111.746939 192.144649 
L 113.796735 191.518876 
L 115.846531 189.984257 
L 117.896327 192.222138 
L 126.09551 192.222138 
L 128.145306 191.94843 
L 130.195102 191.94843 
L 132.244898 190.492167 
L 134.294694 191.617089 
L 136.34449 190.862444 
L 138.394286 192.188328 
L 140.444082 192.078351 
L 142.493878 191.262771 
L 144.543673 183.087813 
L 146.593469 176.346738 
L 148.643265 176.346517 
L 150.693061 183.087645 
L 152.742857 185.727169 
L 154.792653 128.187499 
L 156.842449 176.346517 
L 158.892245 164.92267 
L 160.942041 183.087645 
L 162.991837 189.215722 
L 165.041633 191.617089 
L 167.091429 191.223443 
L 169.141224 191.94843 
L 173.240816 190.492167 
L 175.290612 191.703002 
L 177.340408 191.948432 
L 179.390204 191.223443 
L 181.44 191.223443 
L 183.489796 191.617089 
L 185.539592 191.617089 
L 187.589388 192.19401 
L 189.639184 192.065178 
L 191.68898 192.235781 
L 206.037551 192.217593 
L 210.137143 192.148883 
L 212.186939 192.188328 
L 214.236735 191.703002 
L 216.286531 192.106622 
L 220.386122 192.222138 
L 222.435918 192.118975 
L 230.635102 192.235186 
L 238.834286 192.239161 
L 240.884082 192.118975 
L 244.983673 192.239161 
L 255.232653 192.172565 
L 257.282449 191.969594 
L 259.332245 191.062471 
L 261.382041 189.703937 
L 263.431837 191.939298 
L 265.481633 192.179144 
L 267.531429 179.836786 
L 269.581224 188.557149 
L 271.63102 191.39289 
L 273.680816 191.223745 
L 275.730612 191.223738 
L 277.780408 191.796918 
L 279.830204 192.045343 
L 283.929796 192.19676 
L 285.979592 192.105845 
L 288.029388 192.220331 
L 290.079184 186.992252 
L 292.12898 185.182143 
L 294.178776 184.55436 
L 296.228571 188.512357 
L 298.278367 184.564366 
L 300.328163 188.063945 
L 302.377959 190.395917 
L 304.427755 188.896518 
L 306.477551 188.842822 
L 308.527347 182.102371 
L 310.577143 188.193014 
L 312.626939 186.188766 
L 314.676735 186.562913 
L 316.726531 184.840815 
L 318.776327 179.930692 
L 320.826122 183.775303 
L 322.875918 175.664474 
L 324.925714 181.789513 
L 326.97551 166.928698 
L 329.025306 176.296114 
L 331.075102 176.296032 
L 333.124898 171.787456 
L 335.174694 149.086649 
L 337.22449 134.498605 
L 339.274286 189.068252 
L 341.324082 187.684295 
L 343.373878 190.828722 
L 345.423673 190.099416 
L 347.473469 190.068211 
L 349.523265 185.426444 
L 351.573061 164.029433 
L 353.622857 170.658142 
L 355.672653 176.1559 
L 357.722449 180.52133 
L 359.772245 175.350917 
L 361.822041 175.888943 
L 363.871837 171.942625 
L 365.921633 177.179431 
L 367.971429 179.542133 
L 370.021224 179.542133 
L 372.07102 181.489489 
L 374.120816 177.492166 
L 376.170612 179.327235 
L 378.220408 169.954641 
L 382.32 185.204761 
L 384.369796 191.251978 
L 386.419592 191.251978 
L 388.469388 189.558551 
L 390.519184 189.558448 
L 392.56898 187.139467 
L 394.618776 190.437519 
L 396.668571 190.034383 
L 398.718367 191.403347 
L 400.768163 191.634771 
L 402.817959 186.598722 
L 404.867755 190.442582 
L 406.917551 190.884889 
L 408.967347 180.33403 
L 411.017143 180.418955 
L 413.066939 189.664056 
L 415.116735 184.327938 
L 417.166531 189.346365 
L 419.216327 186.565676 
L 421.266122 181.251902 
L 423.315918 187.030258 
L 425.365714 187.030258 
L 427.41551 186.565672 
L 429.465306 191.344618 
L 431.515102 189.734273 
L 433.564898 187.691572 
L 435.614694 172.076087 
L 437.66449 149.61793 
L 439.714286 103.706044 
L 443.813878 136.052925 
L 445.863673 128.390797 
L 447.913469 113.8306 
L 449.963265 73.510402 
L 452.013061 61.285864 
L 454.062857 84.888478 
L 456.112653 116.807551 
L 458.162449 139.732001 
L 460.212245 191.900151 
L 462.262041 192.229636 
L 464.311837 192.023585 
L 466.361633 191.704227 
L 468.411429 192.19401 
L 474.560816 192.078351 
L 476.610612 191.94843 
L 478.660408 191.94843 
L 480.710204 192.078351 
L 482.76 189.215722 
L 484.809796 190.4177 
L 486.859592 189.215722 
L 488.909388 191.948432 
L 493.00898 192.168698 
L 499.158367 191.955884 
L 501.208163 192.105398 
L 503.257959 192.04462 
L 505.307755 192.10286 
L 507.357551 192.045343 
L 509.407347 191.223738 
L 511.457143 186.255959 
L 513.506939 157.450382 
L 515.556735 146.304762 
L 517.606531 146.304762 
L 519.656327 148.750799 
L 521.706122 115.432684 
L 523.755918 189.703915 
L 525.805714 191.969594 
L 529.905306 191.969594 
L 534.004898 192.239853 
L 562.702041 192.222138 
L 564.751837 191.262799 
L 566.801633 191.94843 
L 568.851429 191.223448 
L 570.901224 191.617089 
L 572.95102 190.492167 
L 575.000816 192.078351 
L 579.100408 192.238905 
L 583.2 192.2389 
L 583.2 192.2389 
" style="fill:none;stroke:#0000ff;stroke-linecap:square;stroke-opacity:0.05;stroke-width:1.5;"/>
   </g>
   <g id="line2d_15">
    <path clip-path="url(#p26f481f32f)" d="M 81 191.703002 
L 83.049796 190.492167 
L 85.099592 189.817146 
L 87.149388 190.695904 
L 89.199184 189.080142 
L 91.24898 191.798565 
L 93.298776 192.182292 
L 99.448163 192.044618 
L 101.497959 192.147089 
L 105.597551 192.045389 
L 109.697143 192.207642 
L 111.746939 192.11256 
L 113.796735 191.640749 
L 115.846531 192.144649 
L 117.896327 191.06709 
L 119.946122 190.734389 
L 121.995918 191.52398 
L 124.045714 192.071838 
L 126.09551 192.1865 
L 130.195102 192.076965 
L 132.244898 191.618727 
L 134.294694 191.849852 
L 136.34449 191.27346 
L 138.394286 192.193226 
L 140.444082 192.193226 
L 142.493878 191.796918 
L 144.543673 191.570086 
L 148.643265 190.034383 
L 150.693061 189.068252 
L 152.742857 189.60595 
L 154.792653 190.884889 
L 156.842449 191.704227 
L 158.892245 190.099416 
L 160.942041 191.831169 
L 162.991837 192.144649 
L 165.041633 191.704227 
L 167.091429 192.086243 
L 169.141224 192.238905 
L 171.19102 191.910232 
L 173.240816 192.233838 
L 185.539592 192.11256 
L 187.589388 191.253728 
L 189.639184 191.83423 
L 191.68898 191.253739 
L 193.738776 139.167796 
L 195.788571 107.665631 
L 199.888163 27.76559 
L 201.937959 101.678173 
L 206.037551 101.678173 
L 208.087347 116.309501 
L 210.137143 96.043551 
L 212.186939 113.153976 
L 214.236735 192.030798 
L 216.286531 192.148883 
L 218.336327 192.078351 
L 220.386122 191.223443 
L 222.435918 190.491945 
L 224.485714 191.94843 
L 226.53551 192.188328 
L 228.585306 190.099416 
L 232.684898 191.704227 
L 234.734694 190.89553 
L 238.834286 191.990379 
L 240.884082 192.157942 
L 242.933878 192.191299 
L 244.983673 192.100413 
L 247.033469 191.518876 
L 249.083265 192.222138 
L 255.232653 192.181648 
L 257.282449 190.969741 
L 259.332245 40.897864 
L 261.382041 73.631902 
L 263.431837 37.334699 
L 265.481633 89.562378 
L 267.531429 89.562378 
L 269.581224 59.770791 
L 271.63102 101.793325 
L 273.680816 37.334699 
L 275.730612 26.196044 
L 277.780408 40.290386 
L 279.830204 189.216269 
L 281.88 191.262775 
L 283.929796 188.809088 
L 285.979592 191.062528 
L 288.029388 191.969594 
L 290.079184 192.172565 
L 292.12898 190.418323 
L 296.228571 192.148883 
L 298.278367 191.888823 
L 300.328163 192.164319 
L 302.377959 192.211788 
L 304.427755 189.291897 
L 306.477551 183.475491 
L 308.527347 170.658142 
L 310.577143 143.031585 
L 312.626939 125.308329 
L 314.676735 152.831536 
L 316.726531 125.308329 
L 318.776327 55.94694 
L 320.826122 26.813428 
L 322.875918 26.062614 
L 324.925714 134.01107 
L 326.97551 192.239877 
L 333.124898 192.078351 
L 335.174694 190.89553 
L 337.22449 181.821061 
L 339.274286 180.334321 
L 341.324082 185.815966 
L 343.373878 189.604014 
L 345.423673 189.604014 
L 347.473469 191.181642 
L 351.573061 190.440942 
L 353.622857 187.755215 
L 355.672653 187.664954 
L 357.722449 192.203044 
L 365.921633 192.239917 
L 370.021224 192.234864 
L 372.07102 191.617089 
L 374.120816 191.617089 
L 376.170612 190.492167 
L 378.220408 164.922461 
L 380.270204 168.760211 
L 382.32 190.4177 
L 384.369796 191.617089 
L 386.419592 189.990855 
L 388.469388 190.492167 
L 390.519184 186.197318 
L 392.56898 191.617089 
L 394.618776 192.164319 
L 396.668571 192.19401 
L 398.718367 192.045343 
L 402.817959 192.153719 
L 404.867755 191.827747 
L 406.917551 192.03815 
L 408.967347 192.038149 
L 413.066939 191.607755 
L 415.116735 188.432876 
L 417.166531 188.432876 
L 419.216327 191.94843 
L 421.266122 192.188328 
L 423.315918 192.148883 
L 427.41551 192.220336 
L 429.465306 192.239626 
L 431.515102 191.518869 
L 433.564898 184.746607 
L 435.614694 184.013451 
L 437.66449 170.265505 
L 439.714286 137.922697 
L 441.764082 116.474692 
L 443.813878 98.498601 
L 445.863673 112.581346 
L 447.913469 146.721456 
L 449.963265 151.173561 
L 452.013061 169.561163 
L 454.062857 177.106969 
L 456.112653 180.33403 
L 458.162449 180.991344 
L 460.212245 189.60595 
L 462.262041 191.380818 
L 464.311837 192.22266 
L 468.411429 192.233318 
L 470.461224 192.013512 
L 472.51102 192.238279 
L 474.560816 192.023578 
L 476.610612 191.380818 
L 478.660408 192.070925 
L 480.710204 192.191197 
L 482.76 191.98302 
L 484.809796 191.640747 
L 486.859592 190.884889 
L 488.909388 185.426444 
L 490.959184 177.165389 
L 493.00898 184.012043 
L 495.058776 188.382531 
L 497.108571 191.321667 
L 499.158367 192.023578 
L 501.208163 190.89553 
L 503.257959 188.894536 
L 505.307755 190.209732 
L 507.357551 187.087214 
L 509.407347 187.087214 
L 511.457143 184.310942 
L 513.506939 170.37792 
L 515.556735 185.727169 
L 517.606531 168.760211 
L 519.656327 79.459462 
L 521.706122 79.445659 
L 523.755918 191.021104 
L 525.805714 192.239877 
L 542.204082 192.226604 
L 544.253878 191.021104 
L 546.303673 79.445659 
L 548.353469 79.445659 
L 550.403265 179.881292 
L 554.502857 179.881292 
L 556.552653 134.002672 
L 558.602449 164.910087 
L 560.652245 164.908247 
L 562.702041 27.831331 
L 564.751837 134.01107 
L 566.801633 188.566955 
L 568.851429 186.673776 
L 570.901224 134.01107 
L 572.95102 179.879311 
L 575.000816 168.760211 
L 577.050612 179.836786 
L 579.100408 185.727178 
L 581.150204 190.418323 
L 583.2 192.106622 
L 583.2 192.106622 
" style="fill:none;stroke:#0000ff;stroke-linecap:square;stroke-opacity:0.05;stroke-width:1.5;"/>
   </g>
   <g id="line2d_16">
    <path clip-path="url(#p26f481f32f)" d="M 81 27.073402 
L 83.049796 67.186754 
L 85.099592 140.138204 
L 87.149388 105.684357 
L 89.199184 109.00831 
L 91.24898 105.684357 
L 93.298776 78.090443 
L 95.348571 76.186334 
L 97.398367 27.425809 
L 99.448163 26.794996 
L 101.497959 45.414011 
L 103.547755 26.794996 
L 105.597551 26.36226 
L 107.647347 27.310115 
L 109.697143 192.239838 
L 121.995918 192.237685 
L 124.045714 188.566955 
L 126.09551 180.667772 
L 128.145306 191.939298 
L 130.195102 192.179451 
L 140.444082 192.239161 
L 142.493878 192.118975 
L 146.593469 192.239764 
L 156.842449 192.227284 
L 158.892245 46.227447 
L 160.942041 44.871623 
L 162.991837 55.290793 
L 165.041633 86.483722 
L 167.091429 155.112549 
L 169.141224 155.621785 
L 171.19102 169.474158 
L 173.240816 169.474158 
L 175.290612 145.523039 
L 177.340408 154.353771 
L 179.390204 180.482907 
L 181.44 176.1559 
L 183.489796 177.063518 
L 185.539592 154.150921 
L 187.589388 55.680152 
L 189.639184 97.475787 
L 191.68898 86.461455 
L 193.738776 86.461455 
L 195.788571 164.92267 
L 197.838367 176.346517 
L 199.888163 176.346517 
L 201.937959 188.808752 
L 203.987755 191.810431 
L 206.037551 192.118975 
L 208.087347 192.239161 
L 210.137143 192.181648 
L 214.236735 192.23759 
L 216.286531 192.181648 
L 220.386122 192.230594 
L 224.485714 192.172565 
L 226.53551 191.810431 
L 228.585306 191.969594 
L 230.635102 191.969594 
L 232.684898 189.703915 
L 234.734694 168.758901 
L 236.78449 186.673776 
L 238.834286 79.445659 
L 240.884082 27.972882 
L 242.933878 115.432684 
L 244.983673 148.75398 
L 247.033469 164.92267 
L 249.083265 164.92267 
L 251.133061 117.928875 
L 253.182857 186.983957 
L 255.232653 182.848934 
L 257.282449 185.306447 
L 259.332245 190.692842 
L 261.382041 191.640671 
L 263.431837 191.359366 
L 265.481633 191.798565 
L 267.531429 191.796918 
L 269.581224 191.570086 
L 271.63102 191.947258 
L 273.680816 191.223745 
L 275.730612 192.030797 
L 277.780408 192.230594 
L 279.830204 191.262771 
L 281.88 191.262771 
L 283.929796 189.216269 
L 285.979592 186.983749 
L 288.029388 188.55713 
L 290.079184 186.197318 
L 292.12898 173.458892 
L 294.178776 183.982309 
L 296.228571 191.223745 
L 298.278367 191.359366 
L 300.328163 192.070803 
L 302.377959 192.193226 
L 306.477551 192.181279 
L 312.626939 192.234437 
L 345.423673 192.11256 
L 347.473469 191.977991 
L 349.523265 191.253739 
L 351.573061 191.253728 
L 353.622857 186.256017 
L 355.672653 189.990875 
L 357.722449 188.557149 
L 359.772245 176.068408 
L 361.822041 97.475787 
L 363.871837 164.922461 
L 365.921633 179.836786 
L 367.971429 191.810431 
L 370.021224 189.216269 
L 372.07102 189.215722 
L 374.120816 191.617089 
L 376.170612 191.223443 
L 378.220408 191.617089 
L 380.270204 192.19401 
L 384.369796 192.222681 
L 386.419592 190.189321 
L 388.469388 187.639816 
L 390.519184 191.824446 
L 392.56898 191.574125 
L 394.618776 183.43101 
L 398.718367 190.360621 
L 400.768163 186.984187 
L 402.817959 188.77917 
L 404.867755 191.381124 
L 406.917551 192.239875 
L 408.967347 192.23911 
L 411.017143 191.910232 
L 413.066939 192.231354 
L 421.266122 192.168698 
L 423.315918 190.210063 
L 425.365714 189.198338 
L 427.41551 190.209732 
L 429.465306 190.828722 
L 431.515102 190.89553 
L 435.614694 191.990377 
L 439.714286 190.89553 
L 441.764082 191.990362 
L 443.813878 192.22266 
L 447.913469 191.640747 
L 449.963265 191.013984 
L 452.013061 191.668891 
L 454.062857 191.344618 
L 456.112653 187.716002 
L 458.162449 189.765038 
L 460.212245 190.334959 
L 462.262041 191.161422 
L 464.311837 190.779484 
L 466.361633 191.52557 
L 468.411429 191.963428 
L 470.461224 192.019304 
L 472.51102 191.574257 
L 474.560816 190.775385 
L 476.610612 192.191197 
L 482.76 192.222681 
L 484.809796 191.900151 
L 486.859592 192.086243 
L 490.959184 191.831178 
L 493.00898 192.191299 
L 497.108571 192.180541 
L 513.506939 192.205142 
L 515.556735 191.969594 
L 517.606531 192.19875 
L 529.905306 192.227284 
L 531.955102 188.053114 
L 534.004898 191.745975 
L 536.054694 190.128385 
L 538.10449 191.161523 
L 540.154286 188.206188 
L 542.204082 131.028338 
L 544.253878 164.611252 
L 546.303673 144.697347 
L 548.353469 182.252201 
L 550.403265 177.247142 
L 552.453061 191.831178 
L 554.502857 191.831169 
L 556.552653 191.321667 
L 558.602449 191.834311 
L 562.702041 192.219263 
L 564.751837 192.219263 
L 568.851429 191.847715 
L 570.901224 191.982946 
L 575.000816 191.983017 
L 577.050612 192.203217 
L 583.2 192.235179 
L 583.2 192.235179 
" style="fill:none;stroke:#0000ff;stroke-linecap:square;stroke-opacity:0.05;stroke-width:1.5;"/>
   </g>
   <g id="line2d_17">
    <path clip-path="url(#p26f481f32f)" d="M 81 151.582714 
L 83.049796 192.118975 
L 85.099592 192.239853 
L 89.199184 191.94843 
L 91.24898 190.4177 
L 95.348571 192.078351 
L 97.398367 189.990855 
L 99.448163 190.862444 
L 101.497959 190.862444 
L 103.547755 186.197383 
L 105.597551 189.817146 
L 107.647347 192.078351 
L 111.746939 192.222681 
L 113.796735 190.828722 
L 115.846531 185.426444 
L 117.896327 188.824355 
L 119.946122 184.310698 
L 121.995918 171.419576 
L 124.045714 177.063573 
L 126.09551 164.029433 
L 130.195102 163.920693 
L 132.244898 164.416528 
L 134.294694 173.525362 
L 136.34449 167.517216 
L 138.394286 180.285797 
L 140.444082 159.939613 
L 142.493878 191.262799 
L 144.543673 190.417777 
L 146.593469 183.087813 
L 148.643265 185.727178 
L 150.693061 179.837778 
L 152.742857 186.673776 
L 154.792653 192.05905 
L 156.842449 192.239161 
L 160.942041 192.205142 
L 162.991837 192.078351 
L 165.041633 192.078351 
L 167.091429 192.230594 
L 169.141224 192.148883 
L 173.240816 192.148883 
L 175.290612 191.703002 
L 177.340408 191.703002 
L 179.390204 192.188328 
L 187.589388 192.230594 
L 199.888163 192.222131 
L 206.037551 191.94843 
L 208.087347 192.234864 
L 216.286531 192.115162 
L 218.336327 191.60776 
L 220.386122 121.418614 
L 222.435918 107.670231 
L 224.485714 101.712908 
L 226.53551 129.826726 
L 228.585306 113.800934 
L 230.635102 91.528636 
L 232.684898 136.13065 
L 234.734694 145.475901 
L 236.78449 163.602386 
L 238.834286 134.392498 
L 240.884082 191.570086 
L 242.933878 191.223745 
L 244.983673 191.359366 
L 247.033469 192.130262 
L 253.182857 192.164699 
L 255.232653 191.617089 
L 257.282449 173.712252 
L 259.332245 186.78459 
L 261.382041 184.310942 
L 263.431837 190.099416 
L 265.481633 192.100385 
L 267.531429 189.984326 
L 269.581224 190.390495 
L 271.63102 183.532431 
L 273.680816 183.532431 
L 275.730612 186.78459 
L 277.780408 192.078351 
L 279.830204 192.078351 
L 281.88 191.703002 
L 283.929796 190.4177 
L 285.979592 179.836786 
L 288.029388 183.087645 
L 290.079184 179.837778 
L 292.12898 189.703915 
L 294.178776 189.703915 
L 296.228571 185.727178 
L 298.278367 185.727178 
L 300.328163 179.837778 
L 302.377959 191.062471 
L 304.427755 191.262799 
L 306.477551 191.262799 
L 308.527347 191.969594 
L 310.577143 191.969594 
L 312.626939 192.106622 
L 314.676735 190.418323 
L 316.726531 191.810431 
L 318.776327 191.810431 
L 320.826122 192.172565 
L 322.875918 191.94843 
L 324.925714 192.106622 
L 326.97551 191.703002 
L 329.025306 191.888821 
L 331.075102 192.189088 
L 333.124898 192.03815 
L 335.174694 192.214061 
L 339.274286 192.127601 
L 341.324082 191.904901 
L 345.423673 192.165734 
L 347.473469 192.084527 
L 349.523265 192.181339 
L 351.573061 192.049428 
L 353.622857 192.147089 
L 359.772245 191.947258 
L 361.822041 192.211864 
L 386.419592 192.239972 
L 404.867755 192.211505 
L 408.967347 192.189222 
L 411.017143 192.11256 
L 413.066939 190.695904 
L 415.116735 169.490263 
L 417.166531 173.458892 
L 419.216327 182.009708 
L 421.266122 188.345007 
L 425.365714 179.746198 
L 427.41551 186.256017 
L 429.465306 188.557149 
L 431.515102 191.915297 
L 433.564898 192.211788 
L 443.813878 192.239742 
L 445.863673 192.074176 
L 447.913469 192.239875 
L 449.963265 192.136439 
L 454.062857 192.24 
L 456.112653 192.205142 
L 458.162449 191.703002 
L 460.212245 192.17297 
L 462.262041 191.703002 
L 464.311837 191.617089 
L 466.361633 190.492167 
L 468.411429 178.991103 
L 470.461224 177.504861 
L 472.51102 181.18204 
L 474.560816 188.868518 
L 476.610612 190.402214 
L 478.660408 191.468983 
L 480.710204 191.207568 
L 482.76 191.207719 
L 484.809796 189.734262 
L 486.859592 188.868515 
L 488.909388 184.025994 
L 490.959184 177.165389 
L 493.00898 127.453656 
L 495.058776 27.352493 
L 499.158367 26.370905 
L 501.208163 26.371488 
L 503.257959 30.355265 
L 505.307755 26.672873 
L 507.357551 26.542535 
L 509.407347 192.236112 
L 531.955102 192.231354 
L 534.004898 190.442801 
L 536.054694 192.057332 
L 538.10449 191.668891 
L 540.154286 191.668891 
L 542.204082 191.403347 
L 544.253878 191.403347 
L 546.303673 190.884889 
L 548.353469 187.684295 
L 550.403265 180.081119 
L 552.453061 164.296429 
L 554.502857 192.239161 
L 556.552653 191.810431 
L 558.602449 192.172565 
L 560.652245 190.4177 
L 562.702041 188.809151 
L 564.751837 168.758901 
L 568.851429 190.4177 
L 570.901224 192.172565 
L 572.95102 183.560339 
L 575.000816 190.39048 
L 577.050612 190.390495 
L 579.100408 189.198331 
L 581.150204 177.063573 
L 583.2 174.564013 
L 583.2 174.564013 
" style="fill:none;stroke:#0000ff;stroke-linecap:square;stroke-opacity:0.05;stroke-width:1.5;"/>
   </g>
   <g id="line2d_18">
    <path clip-path="url(#p26f481f32f)" d="M 81 192.189222 
L 83.049796 192.201757 
L 85.099592 192.025843 
L 89.199184 191.932532 
L 91.24898 191.415065 
L 93.298776 191.503822 
L 95.348571 190.793704 
L 99.448163 185.713626 
L 101.497959 173.527194 
L 103.547755 182.079984 
L 105.597551 192.030798 
L 107.647347 192.078351 
L 109.697143 191.910232 
L 111.746939 192.189222 
L 128.145306 192.130023 
L 130.195102 191.834234 
L 138.394286 191.796918 
L 140.444082 192.111031 
L 146.593469 191.915297 
L 148.643265 192.188328 
L 152.742857 192.181648 
L 156.842449 192.239856 
L 158.892245 192.210021 
L 160.942041 180.081119 
L 162.991837 189.198338 
L 165.041633 188.573153 
L 167.091429 190.775385 
L 169.141224 190.973741 
L 171.19102 190.779484 
L 173.240816 189.643992 
L 175.290612 187.529075 
L 177.340408 174.616407 
L 179.390204 177.106969 
L 181.44 184.32791 
L 183.489796 164.029433 
L 185.539592 174.97571 
L 187.589388 170.045274 
L 189.639184 170.37792 
L 191.68898 188.808752 
L 193.738776 189.703915 
L 195.788571 191.062471 
L 197.838367 192.05905 
L 199.888163 192.05905 
L 201.937959 185.727169 
L 203.987755 190.4177 
L 208.087347 168.760211 
L 210.137143 146.304762 
L 212.186939 176.346517 
L 214.236735 186.983664 
L 216.286531 164.296379 
L 218.336327 159.939147 
L 220.386122 167.51688 
L 222.435918 180.081611 
L 224.485714 173.712252 
L 226.53551 186.78459 
L 228.585306 180.081119 
L 230.635102 190.89553 
L 232.684898 188.824355 
L 234.734694 189.198338 
L 236.78449 191.253739 
L 238.834286 191.607755 
L 240.884082 190.862439 
L 242.933878 182.079735 
L 244.983673 182.079735 
L 247.033469 167.517216 
L 249.083265 170.046769 
L 251.133061 127.453656 
L 253.182857 145.990174 
L 255.232653 47.002005 
L 257.282449 27.425747 
L 259.332245 26.846706 
L 261.382041 26.846258 
L 263.431837 148.75398 
L 265.481633 83.950192 
L 267.531429 27.24361 
L 269.581224 39.137468 
L 271.63102 26.672391 
L 273.680816 26.229654 
L 275.730612 26.409799 
L 277.780408 26.349994 
L 279.830204 26.076152 
L 281.88 26.076152 
L 283.929796 25.92 
L 285.979592 25.996344 
L 288.029388 27.913678 
L 290.079184 27.310115 
L 292.12898 87.827772 
L 294.178776 188.566955 
L 296.228571 186.673776 
L 298.278367 190.418323 
L 300.328163 191.703002 
L 302.377959 189.215722 
L 304.427755 188.557149 
L 306.477551 188.557149 
L 308.527347 188.432858 
L 310.577143 189.891185 
L 312.626939 172.605151 
L 314.676735 177.671344 
L 316.726531 156.233031 
L 318.776327 155.581443 
L 320.826122 177.700622 
L 322.875918 185.008281 
L 324.925714 189.042229 
L 326.97551 189.863801 
L 329.025306 191.08013 
L 331.075102 191.544931 
L 333.124898 192.165085 
L 345.423673 192.229125 
L 355.672653 192.101946 
L 357.722449 191.799671 
L 359.772245 191.790132 
L 361.822041 192.015689 
L 365.921633 192.052414 
L 367.971429 191.932638 
L 370.021224 192.238342 
L 382.32 192.001003 
L 384.369796 190.969741 
L 386.419592 188.206188 
L 388.469388 189.984326 
L 390.519184 177.726092 
L 392.56898 192.230594 
L 394.618776 60.43569 
L 396.668571 66.409918 
L 398.718367 56.322547 
L 400.768163 56.322547 
L 402.817959 96.162676 
L 404.867755 142.510116 
L 406.917551 138.615484 
L 408.967347 163.694707 
L 411.017143 177.560748 
L 413.066939 169.742916 
L 415.116735 190.972601 
L 417.166531 191.484506 
L 419.216327 192.20935 
L 423.315918 192.182292 
L 425.365714 191.484506 
L 427.41551 192.147252 
L 431.515102 192.168698 
L 435.614694 192.219713 
L 437.66449 191.973242 
L 439.714286 190.615684 
L 441.764082 189.846297 
L 443.813878 188.074281 
L 445.863673 187.771456 
L 447.913469 183.816218 
L 449.963265 185.961859 
L 452.013061 187.144025 
L 454.062857 184.235637 
L 456.112653 180.148161 
L 458.162449 181.996191 
L 460.212245 183.198122 
L 462.262041 173.091265 
L 464.311837 176.52719 
L 466.361633 184.327938 
L 468.411429 184.012043 
L 470.461224 188.557149 
L 472.51102 191.94843 
L 474.560816 191.948432 
L 476.610612 192.222138 
L 478.660408 192.222138 
L 482.76 191.262799 
L 484.809796 191.262799 
L 486.859592 185.727178 
L 488.909388 179.837778 
L 490.959184 148.75398 
L 493.00898 78.909896 
L 495.058776 67.186754 
L 497.108571 164.908247 
L 501.208163 164.910087 
L 503.257959 168.760211 
L 505.307755 26.132451 
L 507.357551 26.132422 
L 509.407347 26.260411 
L 511.457143 26.838135 
L 513.506939 26.838257 
L 515.556735 73.324731 
L 517.606531 27.934517 
L 519.656327 26.838135 
L 521.706122 26.838135 
L 523.755918 91.087612 
L 525.805714 192.148883 
L 527.85551 192.210021 
L 529.905306 191.910232 
L 531.955102 192.237168 
L 544.253878 192.148883 
L 546.303673 191.888823 
L 548.353469 192.164699 
L 550.403265 187.030258 
L 552.453061 177.768792 
L 554.502857 184.256696 
L 556.552653 186.732696 
L 558.602449 188.272813 
L 560.652245 188.003681 
L 562.702041 184.601597 
L 564.751837 187.527128 
L 566.801633 177.573858 
L 568.851429 160.779587 
L 570.901224 153.489714 
L 572.95102 191.574122 
L 575.000816 188.206755 
L 577.050612 192.082577 
L 579.100408 192.238014 
L 583.2 192.238232 
L 583.2 192.238232 
" style="fill:none;stroke:#0000ff;stroke-linecap:square;stroke-opacity:0.05;stroke-width:1.5;"/>
   </g>
   <g id="line2d_19">
    <path clip-path="url(#p26f481f32f)" d="M 81 174.704326 
L 83.049796 172.22913 
L 85.099592 150.020665 
L 87.149388 145.523348 
L 89.199184 157.95362 
L 91.24898 167.65258 
L 93.298776 129.994559 
L 95.348571 158.891565 
L 97.398367 156.3691 
L 99.448163 163.520479 
L 101.497959 177.606964 
L 103.547755 140.126561 
L 105.597551 174.656205 
L 107.647347 166.835525 
L 109.697143 144.699923 
L 111.746939 105.144334 
L 113.796735 192.19875 
L 115.846531 192.179144 
L 117.896327 189.703937 
L 119.946122 168.758901 
L 121.995918 186.673776 
L 124.045714 148.750799 
L 126.09551 115.432684 
L 130.195102 176.346517 
L 132.244898 191.617089 
L 134.294694 156.740375 
L 136.34449 147.128865 
L 138.394286 169.246257 
L 140.444082 184.290145 
L 142.493878 190.242503 
L 144.543673 190.491247 
L 146.593469 190.33964 
L 148.643265 190.538826 
L 150.693061 190.975331 
L 152.742857 191.08235 
L 156.842449 191.965545 
L 158.892245 191.624306 
L 160.942041 188.761187 
L 162.991837 176.091594 
L 165.041633 185.854208 
L 167.091429 184.312654 
L 169.141224 176.143438 
L 171.19102 178.59871 
L 173.240816 158.519399 
L 175.290612 162.442858 
L 177.340408 136.444765 
L 179.390204 141.830579 
L 181.44 149.014764 
L 183.489796 186.330855 
L 185.539592 173.588178 
L 187.589388 189.042229 
L 189.639184 192.11256 
L 195.788571 190.707822 
L 197.838367 188.958374 
L 201.937959 190.497646 
L 203.987755 183.930458 
L 206.037551 188.789701 
L 208.087347 184.292891 
L 210.137143 188.78969 
L 212.186939 185.971854 
L 214.236735 180.991484 
L 216.286531 164.416528 
L 218.336327 173.525362 
L 220.386122 157.25102 
L 222.435918 143.502608 
L 224.485714 188.557149 
L 226.53551 189.990855 
L 228.585306 189.891254 
L 230.635102 173.525362 
L 232.684898 185.713579 
L 234.734694 187.139467 
L 236.78449 185.05728 
L 238.834286 191.403347 
L 242.933878 191.344618 
L 244.983673 186.753022 
L 247.033469 188.075248 
L 249.083265 185.05728 
L 251.133061 189.080142 
L 253.182857 180.473523 
L 255.232653 186.590167 
L 257.282449 190.972097 
L 259.332245 184.070808 
L 261.382041 190.395749 
L 263.431837 190.695968 
L 265.481633 191.253739 
L 269.581224 191.223448 
L 271.63102 192.11492 
L 275.730612 192.188328 
L 277.780408 183.532431 
L 279.830204 184.310942 
L 281.88 170.046769 
L 283.929796 178.990568 
L 288.029388 190.969133 
L 290.079184 187.911673 
L 292.12898 177.089588 
L 294.178776 186.100802 
L 296.228571 184.173398 
L 298.278367 190.216149 
L 300.328163 191.344618 
L 302.377959 191.27346 
L 304.427755 191.013984 
L 306.477551 190.209732 
L 308.527347 184.011472 
L 310.577143 189.817146 
L 312.626939 191.716519 
L 314.676735 190.862439 
L 316.726531 180.081119 
L 318.776327 164.296379 
L 320.826122 132.02785 
L 322.875918 127.456786 
L 326.97551 127.453656 
L 329.025306 77.527219 
L 331.075102 150.754824 
L 333.124898 173.712252 
L 335.174694 183.532431 
L 337.22449 192.234864 
L 343.373878 192.144946 
L 345.423673 192.074176 
L 349.523265 192.168337 
L 355.672653 192.205142 
L 357.722449 177.726092 
L 359.772245 177.726092 
L 361.822041 153.020359 
L 363.871837 183.560339 
L 365.921633 107.501269 
L 367.971429 46.981311 
L 370.021224 158.195268 
L 372.07102 170.37792 
L 374.120816 183.532431 
L 376.170612 190.099416 
L 378.220408 192.078351 
L 380.270204 191.703002 
L 382.32 191.703002 
L 384.369796 191.062471 
L 386.419592 192.238212 
L 394.618776 192.226604 
L 396.668571 191.939298 
L 400.768163 192.235186 
L 402.817959 192.235186 
L 404.867755 192.118975 
L 406.917551 192.239675 
L 433.564898 192.222681 
L 435.614694 191.910232 
L 437.66449 192.210021 
L 441.764082 192.148883 
L 445.863673 192.239675 
L 499.158367 192.235186 
L 501.208163 192.082481 
L 503.257959 191.021104 
L 505.307755 191.021104 
L 507.357551 164.910087 
L 509.407347 27.830207 
L 511.457143 27.830207 
L 513.506939 148.75398 
L 515.556735 117.928875 
L 517.606531 78.909896 
L 519.656327 115.432684 
L 521.706122 148.75398 
L 523.755918 168.760211 
L 525.805714 164.92267 
L 527.85551 179.837778 
L 529.905306 176.346517 
L 531.955102 150.737149 
L 534.004898 97.475787 
L 536.054694 78.909896 
L 538.10449 78.909896 
L 540.154286 117.928875 
L 542.204082 117.928875 
L 544.253878 78.909896 
L 546.303673 27.830207 
L 548.353469 67.186754 
L 550.403265 180.670922 
L 552.453061 192.239877 
L 572.95102 192.179451 
L 575.000816 192.05905 
L 577.050612 192.238094 
L 579.100408 192.118975 
L 581.150204 192.118975 
L 583.2 192.239161 
L 583.2 192.239161 
" style="fill:none;stroke:#0000ff;stroke-linecap:square;stroke-opacity:0.05;stroke-width:1.5;"/>
   </g>
   <g id="line2d_20">
    <path clip-path="url(#p26f481f32f)" d="M 81 160.177486 
L 83.049796 171.206237 
L 85.099592 176.931758 
L 87.149388 173.05513 
L 89.199184 169.893016 
L 91.24898 170.610036 
L 93.298776 162.165389 
L 95.348571 167.086545 
L 97.398367 156.634692 
L 99.448163 171.627972 
L 101.497959 174.062687 
L 103.547755 168.786415 
L 105.597551 161.664776 
L 107.647347 165.72044 
L 109.697143 182.793531 
L 111.746939 180.728722 
L 113.796735 189.629125 
L 115.846531 189.547828 
L 117.896327 186.910356 
L 119.946122 183.623727 
L 121.995918 184.267808 
L 124.045714 171.611809 
L 126.09551 179.760149 
L 128.145306 175.185667 
L 130.195102 173.998978 
L 132.244898 172.974424 
L 134.294694 182.402889 
L 136.34449 181.890372 
L 138.394286 188.129953 
L 140.444082 187.303266 
L 142.493878 190.708748 
L 144.543673 188.998962 
L 146.593469 186.885584 
L 148.643265 188.411713 
L 150.693061 188.660159 
L 152.742857 190.523411 
L 154.792653 185.344041 
L 156.842449 190.144406 
L 158.892245 174.296995 
L 160.942041 173.270339 
L 162.991837 173.678608 
L 165.041633 178.904189 
L 167.091429 185.851606 
L 169.141224 185.88101 
L 171.19102 187.665675 
L 173.240816 185.590148 
L 177.340408 179.782936 
L 179.390204 181.623519 
L 181.44 175.87207 
L 183.489796 180.652656 
L 185.539592 182.858145 
L 187.589388 174.962784 
L 189.639184 179.13068 
L 191.68898 180.378242 
L 193.738776 174.577525 
L 195.788571 179.695273 
L 197.838367 177.341387 
L 199.888163 173.804339 
L 201.937959 181.835289 
L 203.987755 181.771855 
L 206.037551 175.975289 
L 208.087347 170.565418 
L 210.137143 169.342495 
L 212.186939 164.188167 
L 214.236735 178.215091 
L 216.286531 169.302232 
L 218.336327 168.079792 
L 220.386122 160.132167 
L 222.435918 161.167201 
L 224.485714 163.386306 
L 226.53551 183.151262 
L 228.585306 173.721243 
L 230.635102 174.070999 
L 232.684898 181.295861 
L 234.734694 169.701069 
L 236.78449 187.483701 
L 238.834286 166.50421 
L 240.884082 169.00761 
L 242.933878 182.32656 
L 244.983673 185.538158 
L 247.033469 185.333575 
L 249.083265 185.987052 
L 251.133061 177.435636 
L 253.182857 185.54171 
L 255.232653 175.521531 
L 257.282449 171.7649 
L 259.332245 156.260193 
L 261.382041 159.744408 
L 263.431837 170.62289 
L 265.481633 170.468811 
L 267.531429 163.799317 
L 269.581224 162.737824 
L 271.63102 164.99388 
L 273.680816 158.92394 
L 275.730612 158.140592 
L 277.780408 159.466307 
L 279.830204 172.920964 
L 281.88 172.165805 
L 283.929796 170.71508 
L 285.979592 170.780177 
L 288.029388 173.081384 
L 290.079184 172.636019 
L 292.12898 177.025962 
L 294.178776 188.197127 
L 296.228571 188.820545 
L 300.328163 186.490477 
L 302.377959 190.541634 
L 304.427755 188.200884 
L 306.477551 187.772352 
L 308.527347 184.83531 
L 310.577143 183.954354 
L 312.626939 182.10427 
L 314.676735 184.868425 
L 316.726531 178.661919 
L 318.776327 169.865083 
L 320.826122 166.676805 
L 322.875918 163.020334 
L 324.925714 174.438927 
L 326.97551 171.898341 
L 329.025306 170.12214 
L 331.075102 172.127299 
L 333.124898 172.866986 
L 335.174694 170.454564 
L 337.22449 171.927615 
L 339.274286 175.305948 
L 341.324082 175.682914 
L 343.373878 178.182439 
L 345.423673 177.985266 
L 347.473469 170.872344 
L 349.523265 177.963278 
L 351.573061 176.835296 
L 353.622857 177.722355 
L 355.672653 180.722246 
L 357.722449 178.318745 
L 359.772245 171.615105 
L 361.822041 167.153918 
L 363.871837 179.835453 
L 365.921633 165.699062 
L 367.971429 172.41034 
L 370.021224 184.085395 
L 372.07102 188.553492 
L 374.120816 186.97143 
L 376.170612 189.130993 
L 378.220408 177.866442 
L 380.270204 171.669914 
L 382.32 181.23039 
L 384.369796 184.487131 
L 386.419592 186.202327 
L 388.469388 184.890677 
L 390.519184 186.17088 
L 392.56898 186.505713 
L 394.618776 175.501988 
L 396.668571 177.795172 
L 398.718367 178.068051 
L 400.768163 177.793108 
L 402.817959 175.03585 
L 404.867755 184.293769 
L 406.917551 173.224605 
L 408.967347 177.402503 
L 411.017143 180.758857 
L 413.066939 185.167271 
L 415.116735 186.212261 
L 417.166531 187.754647 
L 419.216327 189.773515 
L 421.266122 189.613148 
L 423.315918 189.986554 
L 425.365714 188.676442 
L 427.41551 190.697207 
L 429.465306 191.473496 
L 431.515102 191.174443 
L 433.564898 190.132096 
L 435.614694 188.487235 
L 437.66449 184.125728 
L 439.714286 175.242165 
L 441.764082 175.588244 
L 443.813878 173.188046 
L 445.863673 167.17455 
L 447.913469 158.563329 
L 449.963265 156.059144 
L 452.013061 156.97245 
L 454.062857 167.553562 
L 456.112653 167.109305 
L 458.162449 166.361842 
L 460.212245 171.855331 
L 462.262041 174.341974 
L 464.311837 182.463093 
L 466.361633 183.427786 
L 468.411429 177.025095 
L 470.461224 174.538987 
L 472.51102 185.587623 
L 474.560816 188.645667 
L 476.610612 191.076455 
L 478.660408 190.331895 
L 480.710204 188.858762 
L 482.76 189.746008 
L 484.809796 189.805997 
L 486.859592 188.498458 
L 490.959184 182.916827 
L 493.00898 172.508782 
L 495.058776 162.713438 
L 497.108571 172.679509 
L 499.158367 172.768488 
L 501.208163 172.366909 
L 503.257959 172.908801 
L 505.307755 158.203531 
L 507.357551 155.200158 
L 509.407347 156.577109 
L 511.457143 153.833209 
L 513.506939 155.311997 
L 515.556735 161.727652 
L 517.606531 152.419196 
L 519.656327 147.747494 
L 521.706122 150.318218 
L 523.755918 172.463493 
L 525.805714 178.688091 
L 527.85551 184.408506 
L 529.905306 188.802502 
L 531.955102 186.883391 
L 534.004898 181.845916 
L 536.054694 173.575088 
L 538.10449 171.85033 
L 540.154286 172.971886 
L 542.204082 169.590382 
L 544.253878 168.344945 
L 546.303673 153.927897 
L 548.353469 158.768406 
L 550.403265 179.908041 
L 552.453061 180.044986 
L 554.502857 186.618916 
L 556.552653 181.339177 
L 558.602449 183.214391 
L 560.652245 180.21017 
L 562.702041 167.15674 
L 564.751837 177.552471 
L 566.801633 178.997519 
L 568.851429 175.27165 
L 570.901224 170.39792 
L 572.95102 178.498521 
L 575.000816 169.228735 
L 577.050612 169.845776 
L 579.100408 173.265907 
L 581.150204 172.995612 
L 583.2 172.855428 
L 583.2 172.855428 
" style="fill:none;stroke:#0000ff;stroke-linecap:square;stroke-width:1.5;"/>
   </g>
   <g id="patch_3">
    <path d="M 81 192.24 
L 81 25.92 
" style="fill:none;stroke:#000000;stroke-linecap:square;stroke-linejoin:miter;stroke-width:0.8;"/>
   </g>
   <g id="patch_4">
    <path d="M 583.2 192.24 
L 583.2 25.92 
" style="fill:none;stroke:#000000;stroke-linecap:square;stroke-linejoin:miter;stroke-width:0.8;"/>
   </g>
   <g id="patch_5">
    <path d="M 81 192.24 
L 583.2 192.24 
" style="fill:none;stroke:#000000;stroke-linecap:square;stroke-linejoin:miter;stroke-width:0.8;"/>
   </g>
   <g id="patch_6">
    <path d="M 81 25.92 
L 583.2 25.92 
" style="fill:none;stroke:#000000;stroke-linecap:square;stroke-linejoin:miter;stroke-width:0.8;"/>
   </g>
   <g id="text_12">
    <!-- V1, Num Trials=10 All unstimulated trials -->
    <defs>
     <path d="M 28.609375 0 
L 0.78125 72.90625 
L 11.078125 72.90625 
L 34.1875 11.53125 
L 57.328125 72.90625 
L 67.578125 72.90625 
L 39.796875 0 
z
" id="DejaVuSans-86"/>
     <path d="M 11.71875 12.40625 
L 22.015625 12.40625 
L 22.015625 4 
L 14.015625 -11.625 
L 7.71875 -11.625 
L 11.71875 4 
z
" id="DejaVuSans-44"/>
     <path d="M 9.8125 72.90625 
L 23.09375 72.90625 
L 55.421875 11.921875 
L 55.421875 72.90625 
L 64.984375 72.90625 
L 64.984375 0 
L 51.703125 0 
L 19.390625 60.984375 
L 19.390625 0 
L 9.8125 0 
z
" id="DejaVuSans-78"/>
     <path d="M 8.5 21.578125 
L 8.5 54.6875 
L 17.484375 54.6875 
L 17.484375 21.921875 
Q 17.484375 14.15625 20.5 10.265625 
Q 23.53125 6.390625 29.59375 6.390625 
Q 36.859375 6.390625 41.078125 11.03125 
Q 45.3125 15.671875 45.3125 23.6875 
L 45.3125 54.6875 
L 54.296875 54.6875 
L 54.296875 0 
L 45.3125 0 
L 45.3125 8.40625 
Q 42.046875 3.421875 37.71875 1 
Q 33.40625 -1.421875 27.6875 -1.421875 
Q 18.265625 -1.421875 13.375 4.4375 
Q 8.5 10.296875 8.5 21.578125 
z
M 31.109375 56 
z
" id="DejaVuSans-117"/>
     <path d="M 41.109375 46.296875 
Q 39.59375 47.171875 37.8125 47.578125 
Q 36.03125 48 33.890625 48 
Q 26.265625 48 22.1875 43.046875 
Q 18.109375 38.09375 18.109375 28.8125 
L 18.109375 0 
L 9.078125 0 
L 9.078125 54.6875 
L 18.109375 54.6875 
L 18.109375 46.1875 
Q 20.953125 51.171875 25.484375 53.578125 
Q 30.03125 56 36.53125 56 
Q 37.453125 56 38.578125 55.875 
Q 39.703125 55.765625 41.0625 55.515625 
z
" id="DejaVuSans-114"/>
     <path d="M 34.28125 27.484375 
Q 23.390625 27.484375 19.1875 25 
Q 14.984375 22.515625 14.984375 16.5 
Q 14.984375 11.71875 18.140625 8.90625 
Q 21.296875 6.109375 26.703125 6.109375 
Q 34.1875 6.109375 38.703125 11.40625 
Q 43.21875 16.703125 43.21875 25.484375 
L 43.21875 27.484375 
z
M 52.203125 31.203125 
L 52.203125 0 
L 43.21875 0 
L 43.21875 8.296875 
Q 40.140625 3.328125 35.546875 0.953125 
Q 30.953125 -1.421875 24.3125 -1.421875 
Q 15.921875 -1.421875 10.953125 3.296875 
Q 6 8.015625 6 15.921875 
Q 6 25.140625 12.171875 29.828125 
Q 18.359375 34.515625 30.609375 34.515625 
L 43.21875 34.515625 
L 43.21875 35.40625 
Q 43.21875 41.609375 39.140625 45 
Q 35.0625 48.390625 27.6875 48.390625 
Q 23 48.390625 18.546875 47.265625 
Q 14.109375 46.140625 10.015625 43.890625 
L 10.015625 52.203125 
Q 14.9375 54.109375 19.578125 55.046875 
Q 24.21875 56 28.609375 56 
Q 40.484375 56 46.34375 49.84375 
Q 52.203125 43.703125 52.203125 31.203125 
z
" id="DejaVuSans-97"/>
     <path d="M 9.421875 75.984375 
L 18.40625 75.984375 
L 18.40625 0 
L 9.421875 0 
z
" id="DejaVuSans-108"/>
     <path d="M 10.59375 45.40625 
L 73.1875 45.40625 
L 73.1875 37.203125 
L 10.59375 37.203125 
z
M 10.59375 25.484375 
L 73.1875 25.484375 
L 73.1875 17.1875 
L 10.59375 17.1875 
z
" id="DejaVuSans-61"/>
     <path d="M 34.1875 63.1875 
L 20.796875 26.90625 
L 47.609375 26.90625 
z
M 28.609375 72.90625 
L 39.796875 72.90625 
L 67.578125 0 
L 57.328125 0 
L 50.6875 18.703125 
L 17.828125 18.703125 
L 11.1875 0 
L 0.78125 0 
z
" id="DejaVuSans-65"/>
     <path d="M 54.890625 33.015625 
L 54.890625 0 
L 45.90625 0 
L 45.90625 32.71875 
Q 45.90625 40.484375 42.875 44.328125 
Q 39.84375 48.1875 33.796875 48.1875 
Q 26.515625 48.1875 22.3125 43.546875 
Q 18.109375 38.921875 18.109375 30.90625 
L 18.109375 0 
L 9.078125 0 
L 9.078125 54.6875 
L 18.109375 54.6875 
L 18.109375 46.1875 
Q 21.34375 51.125 25.703125 53.5625 
Q 30.078125 56 35.796875 56 
Q 45.21875 56 50.046875 50.171875 
Q 54.890625 44.34375 54.890625 33.015625 
z
" id="DejaVuSans-110"/>
     <path d="M 18.3125 70.21875 
L 18.3125 54.6875 
L 36.8125 54.6875 
L 36.8125 47.703125 
L 18.3125 47.703125 
L 18.3125 18.015625 
Q 18.3125 11.328125 20.140625 9.421875 
Q 21.96875 7.515625 27.59375 7.515625 
L 36.8125 7.515625 
L 36.8125 0 
L 27.59375 0 
Q 17.1875 0 13.234375 3.875 
Q 9.28125 7.765625 9.28125 18.015625 
L 9.28125 47.703125 
L 2.6875 47.703125 
L 2.6875 54.6875 
L 9.28125 54.6875 
L 9.28125 70.21875 
z
" id="DejaVuSans-116"/>
     <path d="M 45.40625 46.390625 
L 45.40625 75.984375 
L 54.390625 75.984375 
L 54.390625 0 
L 45.40625 0 
L 45.40625 8.203125 
Q 42.578125 3.328125 38.25 0.953125 
Q 33.9375 -1.421875 27.875 -1.421875 
Q 17.96875 -1.421875 11.734375 6.484375 
Q 5.515625 14.40625 5.515625 27.296875 
Q 5.515625 40.1875 11.734375 48.09375 
Q 17.96875 56 27.875 56 
Q 33.9375 56 38.25 53.625 
Q 42.578125 51.265625 45.40625 46.390625 
z
M 14.796875 27.296875 
Q 14.796875 17.390625 18.875 11.75 
Q 22.953125 6.109375 30.078125 6.109375 
Q 37.203125 6.109375 41.296875 11.75 
Q 45.40625 17.390625 45.40625 27.296875 
Q 45.40625 37.203125 41.296875 42.84375 
Q 37.203125 48.484375 30.078125 48.484375 
Q 22.953125 48.484375 18.875 42.84375 
Q 14.796875 37.203125 14.796875 27.296875 
z
" id="DejaVuSans-100"/>
    </defs>
    <g transform="translate(207.6975 19.92)scale(0.12 -0.12)">
     <use xlink:href="#DejaVuSans-86"/>
     <use x="68.408203" xlink:href="#DejaVuSans-49"/>
     <use x="132.03125" xlink:href="#DejaVuSans-44"/>
     <use x="163.818359" xlink:href="#DejaVuSans-32"/>
     <use x="195.605469" xlink:href="#DejaVuSans-78"/>
     <use x="270.410156" xlink:href="#DejaVuSans-117"/>
     <use x="333.789062" xlink:href="#DejaVuSans-109"/>
     <use x="431.201172" xlink:href="#DejaVuSans-32"/>
     <use x="462.988281" xlink:href="#DejaVuSans-84"/>
     <use x="523.853516" xlink:href="#DejaVuSans-114"/>
     <use x="564.966797" xlink:href="#DejaVuSans-105"/>
     <use x="592.75" xlink:href="#DejaVuSans-97"/>
     <use x="654.029297" xlink:href="#DejaVuSans-108"/>
     <use x="681.8125" xlink:href="#DejaVuSans-115"/>
     <use x="733.912109" xlink:href="#DejaVuSans-61"/>
     <use x="817.701172" xlink:href="#DejaVuSans-49"/>
     <use x="881.324219" xlink:href="#DejaVuSans-48"/>
     <use x="944.947266" xlink:href="#DejaVuSans-32"/>
     <use x="976.734375" xlink:href="#DejaVuSans-65"/>
     <use x="1045.142578" xlink:href="#DejaVuSans-108"/>
     <use x="1072.925781" xlink:href="#DejaVuSans-108"/>
     <use x="1100.708984" xlink:href="#DejaVuSans-32"/>
     <use x="1132.496094" xlink:href="#DejaVuSans-117"/>
     <use x="1195.875" xlink:href="#DejaVuSans-110"/>
     <use x="1259.253906" xlink:href="#DejaVuSans-115"/>
     <use x="1311.353516" xlink:href="#DejaVuSans-116"/>
     <use x="1350.5625" xlink:href="#DejaVuSans-105"/>
     <use x="1378.345703" xlink:href="#DejaVuSans-109"/>
     <use x="1475.757812" xlink:href="#DejaVuSans-117"/>
     <use x="1539.136719" xlink:href="#DejaVuSans-108"/>
     <use x="1566.919922" xlink:href="#DejaVuSans-97"/>
     <use x="1628.199219" xlink:href="#DejaVuSans-116"/>
     <use x="1667.408203" xlink:href="#DejaVuSans-101"/>
     <use x="1728.931641" xlink:href="#DejaVuSans-100"/>
     <use x="1792.408203" xlink:href="#DejaVuSans-32"/>
     <use x="1824.195312" xlink:href="#DejaVuSans-116"/>
     <use x="1863.404297" xlink:href="#DejaVuSans-114"/>
     <use x="1904.517578" xlink:href="#DejaVuSans-105"/>
     <use x="1932.300781" xlink:href="#DejaVuSans-97"/>
     <use x="1993.580078" xlink:href="#DejaVuSans-108"/>
     <use x="2021.363281" xlink:href="#DejaVuSans-115"/>
    </g>
   </g>
   <g id="legend_1">
    <g id="patch_7">
     <path d="M 89.4 53.16 
L 224.04 53.16 
Q 226.44 53.16 226.44 50.76 
L 226.44 34.32 
Q 226.44 31.92 224.04 31.92 
L 89.4 31.92 
Q 87 31.92 87 34.32 
L 87 50.76 
Q 87 53.16 89.4 53.16 
z
" style="fill:#ffffff;opacity:0.8;stroke:#cccccc;stroke-linejoin:miter;"/>
    </g>
    <g id="line2d_21">
     <path d="M 91.8 41.64 
L 115.8 41.64 
" style="fill:none;stroke:#0000ff;stroke-linecap:square;stroke-width:1.5;"/>
    </g>
    <g id="line2d_22"/>
    <g id="text_13">
     <!-- COM-Binomial $p$ -->
     <defs>
      <path d="M 4.890625 31.390625 
L 31.203125 31.390625 
L 31.203125 23.390625 
L 4.890625 23.390625 
z
" id="DejaVuSans-45"/>
      <path d="M 19.671875 34.8125 
L 19.671875 8.109375 
L 35.5 8.109375 
Q 43.453125 8.109375 47.28125 11.40625 
Q 51.125 14.703125 51.125 21.484375 
Q 51.125 28.328125 47.28125 31.5625 
Q 43.453125 34.8125 35.5 34.8125 
z
M 19.671875 64.796875 
L 19.671875 42.828125 
L 34.28125 42.828125 
Q 41.5 42.828125 45.03125 45.53125 
Q 48.578125 48.25 48.578125 53.8125 
Q 48.578125 59.328125 45.03125 62.0625 
Q 41.5 64.796875 34.28125 64.796875 
z
M 9.8125 72.90625 
L 35.015625 72.90625 
Q 46.296875 72.90625 52.390625 68.21875 
Q 58.5 63.53125 58.5 54.890625 
Q 58.5 48.1875 55.375 44.234375 
Q 52.25 40.28125 46.1875 39.3125 
Q 53.46875 37.75 57.5 32.78125 
Q 61.53125 27.828125 61.53125 20.40625 
Q 61.53125 10.640625 54.890625 5.3125 
Q 48.25 0 35.984375 0 
L 9.8125 0 
z
" id="DejaVuSans-66"/>
      <path d="M 30.609375 48.390625 
Q 23.390625 48.390625 19.1875 42.75 
Q 14.984375 37.109375 14.984375 27.296875 
Q 14.984375 17.484375 19.15625 11.84375 
Q 23.34375 6.203125 30.609375 6.203125 
Q 37.796875 6.203125 41.984375 11.859375 
Q 46.1875 17.53125 46.1875 27.296875 
Q 46.1875 37.015625 41.984375 42.703125 
Q 37.796875 48.390625 30.609375 48.390625 
z
M 30.609375 56 
Q 42.328125 56 49.015625 48.375 
Q 55.71875 40.765625 55.71875 27.296875 
Q 55.71875 13.875 49.015625 6.21875 
Q 42.328125 -1.421875 30.609375 -1.421875 
Q 18.84375 -1.421875 12.171875 6.21875 
Q 5.515625 13.875 5.515625 27.296875 
Q 5.515625 40.765625 12.171875 48.375 
Q 18.84375 56 30.609375 56 
z
" id="DejaVuSans-111"/>
     </defs>
     <g transform="translate(125.4 45.84)scale(0.12 -0.12)">
      <use transform="translate(0 0.015625)" xlink:href="#DejaVuSans-67"/>
      <use transform="translate(69.824219 0.015625)" xlink:href="#DejaVuSans-79"/>
      <use transform="translate(148.535156 0.015625)" xlink:href="#DejaVuSans-77"/>
      <use transform="translate(234.814453 0.015625)" xlink:href="#DejaVuSans-45"/>
      <use transform="translate(270.898438 0.015625)" xlink:href="#DejaVuSans-66"/>
      <use transform="translate(339.501953 0.015625)" xlink:href="#DejaVuSans-105"/>
      <use transform="translate(367.285156 0.015625)" xlink:href="#DejaVuSans-110"/>
      <use transform="translate(430.664062 0.015625)" xlink:href="#DejaVuSans-111"/>
      <use transform="translate(491.845703 0.015625)" xlink:href="#DejaVuSans-109"/>
      <use transform="translate(589.257812 0.015625)" xlink:href="#DejaVuSans-105"/>
      <use transform="translate(617.041016 0.015625)" xlink:href="#DejaVuSans-97"/>
      <use transform="translate(678.320312 0.015625)" xlink:href="#DejaVuSans-108"/>
      <use transform="translate(706.103516 0.015625)" xlink:href="#DejaVuSans-32"/>
      <use transform="translate(737.890625 0.015625)" xlink:href="#DejaVuSans-Oblique-112"/>
     </g>
    </g>
   </g>
  </g>
 </g>
 <defs>
  <clipPath id="p26f481f32f">
   <rect height="166.32" width="502.2" x="81" y="25.92"/>
  </clipPath>
 </defs>
</svg>
