<?xml version="1.0" encoding="utf-8" standalone="no"?>
<!DOCTYPE svg PUBLIC "-//W3C//DTD SVG 1.1//EN"
  "http://www.w3.org/Graphics/SVG/1.1/DTD/svg11.dtd">
<!-- Created with matplotlib (https://matplotlib.org/) -->
<svg height="216pt" version="1.1" viewBox="0 0 648 216" width="648pt" xmlns="http://www.w3.org/2000/svg" xmlns:xlink="http://www.w3.org/1999/xlink">
 <defs>
  <style type="text/css">
*{stroke-linecap:butt;stroke-linejoin:round;}
  </style>
 </defs>
 <g id="figure_1">
  <g id="patch_1">
   <path d="M 0 216 
L 648 216 
L 648 0 
L 0 0 
z
" style="fill:#ffffff;"/>
  </g>
  <g id="axes_1">
   <g id="patch_2">
    <path d="M 81 192.24 
L 583.2 192.24 
L 583.2 25.92 
L 81 25.92 
z
" style="fill:#ffffff;"/>
   </g>
   <g id="PolyCollection_1">
    <defs>
     <path d="M 156.33 -23.76 
L 156.33 -190.08 
L 420.645789 -190.08 
L 420.645789 -23.76 
L 420.645789 -23.76 
L 156.33 -23.76 
z
" id="ma9a64e87ee" style="stroke:#808080;stroke-opacity:0.3;"/>
    </defs>
    <g clip-path="url(#p5bd9b7e543)">
     <use style="fill:#808080;fill-opacity:0.3;stroke:#808080;stroke-opacity:0.3;" x="0" xlink:href="#ma9a64e87ee" y="216"/>
    </g>
   </g>
   <g id="PolyCollection_2">
    <defs>
     <path d="M 81 -58.709971 
L 81 -26.404322 
L 82.762105 -25.460451 
L 84.524211 -24.823355 
L 86.286316 -27.569586 
L 88.048421 -26.808038 
L 89.810526 -26.518394 
L 91.572632 -27.204198 
L 93.334737 -26.719611 
L 95.096842 -27.190016 
L 96.858947 -27.602599 
L 98.621053 -26.518201 
L 100.383158 -27.67265 
L 102.145263 -27.951178 
L 103.907368 -27.267436 
L 105.669474 -26.022165 
L 107.431579 -25.967538 
L 109.193684 -28.111533 
L 110.955789 -27.242427 
L 112.717895 -27.125567 
L 114.48 -27.407652 
L 116.242105 -27.40869 
L 118.004211 -27.620153 
L 119.766316 -30.334859 
L 121.528421 -30.03481 
L 123.290526 -30.247434 
L 125.052632 -29.643973 
L 126.814737 -30.101289 
L 128.576842 -29.214891 
L 130.338947 -26.472395 
L 132.101053 -26.472002 
L 133.863158 -26.136101 
L 135.625263 -25.793825 
L 137.387368 -25.801366 
L 139.149474 -26.543863 
L 140.911579 -34.06313 
L 142.673684 -43.872123 
L 144.435789 -47.855574 
L 146.197895 -51.218912 
L 147.96 -54.356452 
L 149.722105 -56.391437 
L 151.484211 -56.936511 
L 153.246316 -57.491207 
L 155.008421 -58.89484 
L 156.770526 -57.834838 
L 158.532632 -59.223988 
L 160.294737 -62.692628 
L 162.056842 -61.244986 
L 163.818947 -60.7836 
L 165.581053 -62.032183 
L 167.343158 -61.119869 
L 169.105263 -63.510755 
L 170.867368 -64.04981 
L 172.629474 -65.184874 
L 174.391579 -65.434518 
L 176.153684 -60.944055 
L 177.915789 -52.685718 
L 179.677895 -49.186693 
L 181.44 -46.726724 
L 183.202105 -44.738433 
L 184.964211 -47.8373 
L 186.726316 -49.946475 
L 188.488421 -53.979552 
L 190.250526 -59.583623 
L 192.012632 -62.727423 
L 193.774737 -65.323125 
L 195.536842 -67.685667 
L 197.298947 -67.914325 
L 199.061053 -72.096164 
L 200.823158 -74.180505 
L 202.585263 -75.60502 
L 204.347368 -78.71529 
L 206.109474 -82.606105 
L 207.871579 -83.352024 
L 209.633684 -86.179497 
L 211.395789 -85.714688 
L 213.157895 -87.624872 
L 214.92 -89.808168 
L 216.682105 -90.79054 
L 218.444211 -89.296804 
L 220.206316 -88.439455 
L 221.968421 -89.04077 
L 223.730526 -86.290581 
L 225.492632 -86.495269 
L 227.254737 -85.181548 
L 229.016842 -83.25899 
L 230.778947 -85.626489 
L 232.541053 -84.941806 
L 234.303158 -84.61336 
L 236.065263 -84.643174 
L 237.827368 -85.286447 
L 239.589474 -85.601997 
L 241.351579 -84.37698 
L 243.113684 -83.22324 
L 244.875789 -79.756848 
L 246.637895 -81.264531 
L 248.4 -83.374617 
L 250.162105 -82.752219 
L 251.924211 -85.09722 
L 253.686316 -86.430536 
L 255.448421 -87.67401 
L 257.210526 -87.95768 
L 258.972632 -89.077214 
L 260.734737 -89.286161 
L 262.496842 -89.504611 
L 264.258947 -90.053463 
L 266.021053 -90.781191 
L 267.783158 -94.516493 
L 269.545263 -95.519705 
L 271.307368 -97.508509 
L 273.069474 -100.170912 
L 274.831579 -100.715833 
L 276.593684 -101.849349 
L 278.355789 -102.501521 
L 280.117895 -106.972023 
L 281.88 -108.586107 
L 283.642105 -107.657451 
L 285.404211 -107.309199 
L 287.166316 -109.778108 
L 288.928421 -112.342043 
L 290.690526 -112.32818 
L 292.452632 -114.080368 
L 294.214737 -113.688391 
L 295.976842 -114.798229 
L 297.738947 -115.322856 
L 299.501053 -114.99442 
L 301.263158 -115.673486 
L 303.025263 -114.740693 
L 304.787368 -115.207053 
L 306.549474 -115.565842 
L 308.311579 -115.744008 
L 310.073684 -118.801637 
L 311.835789 -118.66225 
L 313.597895 -121.271137 
L 315.36 -122.268692 
L 317.122105 -123.034244 
L 318.884211 -122.041207 
L 320.646316 -122.722027 
L 322.408421 -123.454315 
L 324.170526 -123.648209 
L 325.932632 -122.082629 
L 327.694737 -121.523423 
L 329.456842 -123.129128 
L 331.218947 -122.081139 
L 332.981053 -123.69573 
L 334.743158 -122.748482 
L 336.505263 -122.749356 
L 338.267368 -124.363233 
L 340.029474 -122.413243 
L 341.791579 -124.338417 
L 343.553684 -125.654283 
L 345.315789 -124.617104 
L 347.077895 -123.673646 
L 348.84 -122.681337 
L 350.602105 -123.826986 
L 352.364211 -125.659656 
L 354.126316 -125.80557 
L 355.888421 -123.932967 
L 357.650526 -124.760455 
L 359.412632 -125.396404 
L 361.174737 -127.546584 
L 362.936842 -129.453088 
L 364.698947 -128.904165 
L 366.461053 -131.177585 
L 368.223158 -132.405078 
L 369.985263 -136.564018 
L 371.747368 -136.143224 
L 373.509474 -137.641704 
L 375.271579 -139.429979 
L 377.033684 -140.585329 
L 378.795789 -141.141009 
L 380.557895 -140.960468 
L 382.32 -143.460502 
L 384.082105 -145.209615 
L 385.844211 -146.096918 
L 387.606316 -148.677572 
L 389.368421 -150.883899 
L 391.130526 -151.910652 
L 392.892632 -153.791948 
L 394.654737 -156.392516 
L 396.416842 -155.550691 
L 398.178947 -157.02234 
L 399.941053 -156.826469 
L 401.703158 -156.026866 
L 403.465263 -153.949057 
L 405.227368 -151.121145 
L 406.989474 -147.715769 
L 408.751579 -142.389024 
L 410.513684 -136.853974 
L 412.275789 -131.219771 
L 414.037895 -129.619906 
L 415.8 -123.551736 
L 417.562105 -119.163614 
L 419.324211 -113.653525 
L 421.086316 -107.742643 
L 422.848421 -104.138489 
L 424.610526 -98.609613 
L 426.372632 -92.142246 
L 428.134737 -86.905955 
L 429.896842 -79.724743 
L 431.658947 -74.651306 
L 433.421053 -69.934032 
L 435.183158 -63.728475 
L 436.945263 -59.836022 
L 438.707368 -59.509018 
L 440.469474 -56.748011 
L 442.231579 -57.60124 
L 443.993684 -56.640091 
L 445.755789 -58.068557 
L 447.517895 -59.093095 
L 449.28 -57.758377 
L 451.042105 -60.241437 
L 452.804211 -61.569809 
L 454.566316 -60.074798 
L 456.328421 -61.944202 
L 458.090526 -63.417018 
L 459.852632 -62.870475 
L 461.614737 -62.502014 
L 463.376842 -62.81148 
L 465.138947 -65.463879 
L 466.901053 -64.541495 
L 468.663158 -63.993313 
L 470.425263 -64.489767 
L 472.187368 -63.536212 
L 473.949474 -62.011441 
L 475.711579 -62.311241 
L 477.473684 -60.540685 
L 479.235789 -58.919236 
L 480.997895 -60.17962 
L 482.76 -58.154358 
L 484.522105 -58.298791 
L 486.284211 -57.384713 
L 488.046316 -53.658159 
L 489.808421 -54.078872 
L 491.570526 -53.832635 
L 493.332632 -53.027738 
L 495.094737 -52.891637 
L 496.856842 -51.669223 
L 498.618947 -54.550782 
L 500.381053 -54.059764 
L 502.143158 -53.514457 
L 503.905263 -53.349296 
L 505.667368 -53.34496 
L 507.429474 -53.131 
L 509.191579 -52.671158 
L 510.953684 -50.107303 
L 512.715789 -51.343725 
L 514.477895 -49.214909 
L 516.24 -46.834222 
L 518.002105 -47.273434 
L 519.764211 -43.766132 
L 521.526316 -44.261551 
L 523.288421 -43.40848 
L 525.050526 -44.654441 
L 526.812632 -44.533052 
L 528.574737 -41.230326 
L 530.336842 -40.033695 
L 532.098947 -40.805541 
L 533.861053 -38.286672 
L 535.623158 -37.394252 
L 537.385263 -36.773142 
L 539.147368 -35.560081 
L 540.909474 -34.919083 
L 542.671579 -36.297562 
L 544.433684 -35.333224 
L 546.195789 -35.553473 
L 547.957895 -34.331542 
L 549.72 -34.830818 
L 551.482105 -33.50832 
L 553.244211 -36.095716 
L 555.006316 -34.431218 
L 556.768421 -33.628163 
L 558.530526 -32.256665 
L 560.292632 -30.862965 
L 562.054737 -31.159403 
L 563.816842 -30.993476 
L 565.578947 -29.201981 
L 567.341053 -27.408622 
L 569.103158 -27.239531 
L 570.865263 -24.420816 
L 572.627368 -25.306835 
L 574.389474 -24.14681 
L 576.151579 -25.501638 
L 577.913684 -23.76 
L 579.675789 -24.847597 
L 581.437895 -25.029896 
L 583.2 -24.921166 
L 583.2 -57.016904 
L 583.2 -57.016904 
L 581.437895 -57.180204 
L 579.675789 -57.285383 
L 577.913684 -56.07392 
L 576.151579 -57.793668 
L 574.389474 -56.597314 
L 572.627368 -58.012023 
L 570.865263 -56.958347 
L 569.103158 -59.835182 
L 567.341053 -59.969412 
L 565.578947 -61.916316 
L 563.816842 -64.209494 
L 562.054737 -64.703046 
L 560.292632 -64.348655 
L 558.530526 -65.804534 
L 556.768421 -67.25299 
L 555.006316 -68.011212 
L 553.244211 -70.20081 
L 551.482105 -67.837619 
L 549.72 -69.340561 
L 547.957895 -69.009709 
L 546.195789 -70.441671 
L 544.433684 -70.360716 
L 542.671579 -71.135188 
L 540.909474 -69.817259 
L 539.147368 -70.78095 
L 537.385263 -72.16122 
L 535.623158 -72.92271 
L 533.861053 -74.173338 
L 532.098947 -76.852774 
L 530.336842 -75.849601 
L 528.574737 -77.041656 
L 526.812632 -80.67222 
L 525.050526 -80.883437 
L 523.288421 -79.641586 
L 521.526316 -80.480188 
L 519.764211 -79.681949 
L 518.002105 -83.115424 
L 516.24 -82.57958 
L 514.477895 -84.949542 
L 512.715789 -87.015728 
L 510.953684 -85.944758 
L 509.191579 -88.425145 
L 507.429474 -89.191462 
L 505.667368 -89.356721 
L 503.905263 -89.056652 
L 502.143158 -89.198671 
L 500.381053 -89.714925 
L 498.618947 -90.205501 
L 496.856842 -87.474777 
L 495.094737 -88.651787 
L 493.332632 -88.688602 
L 491.570526 -89.730526 
L 489.808421 -89.711706 
L 488.046316 -89.174592 
L 486.284211 -93.463625 
L 484.522105 -94.961828 
L 482.76 -94.605538 
L 480.997895 -96.330283 
L 479.235789 -94.863706 
L 477.473684 -96.537231 
L 475.711579 -98.099109 
L 473.949474 -97.886986 
L 472.187368 -99.538085 
L 470.425263 -100.559229 
L 468.663158 -100.202386 
L 466.901053 -100.833815 
L 465.138947 -101.990449 
L 463.376842 -99.334969 
L 461.614737 -98.969408 
L 459.852632 -99.709066 
L 458.090526 -100.009233 
L 456.328421 -98.584133 
L 454.566316 -97.072146 
L 452.804211 -98.63769 
L 451.042105 -97.165164 
L 449.28 -94.247262 
L 447.517895 -95.621551 
L 445.755789 -94.575874 
L 443.993684 -92.850828 
L 442.231579 -93.788086 
L 440.469474 -92.538271 
L 438.707368 -95.231353 
L 436.945263 -95.209695 
L 435.183158 -98.997942 
L 433.421053 -104.973746 
L 431.658947 -109.515923 
L 429.896842 -114.495964 
L 428.134737 -121.311784 
L 426.372632 -126.378811 
L 424.610526 -132.522218 
L 422.848421 -138.267111 
L 421.086316 -141.465119 
L 419.324211 -147.219709 
L 417.562105 -152.673776 
L 415.8 -156.466628 
L 414.037895 -162.789687 
L 412.275789 -164.176372 
L 410.513684 -169.596687 
L 408.751579 -175.042657 
L 406.989474 -180.568319 
L 405.227368 -184.387852 
L 403.465263 -187.085131 
L 401.703158 -188.865128 
L 399.941053 -190.08 
L 398.178947 -189.893806 
L 396.416842 -188.086963 
L 394.654737 -188.726243 
L 392.892632 -185.49302 
L 391.130526 -184.026981 
L 389.368421 -182.831057 
L 387.606316 -180.82461 
L 385.844211 -178.238591 
L 384.082105 -177.312352 
L 382.32 -175.83419 
L 380.557895 -173.905033 
L 378.795789 -174.159435 
L 377.033684 -173.669334 
L 375.271579 -172.525404 
L 373.509474 -170.715167 
L 371.747368 -168.989782 
L 369.985263 -169.453277 
L 368.223158 -165.412461 
L 366.461053 -164.435573 
L 364.698947 -161.972319 
L 362.936842 -162.779432 
L 361.174737 -160.752483 
L 359.412632 -158.758682 
L 357.650526 -157.949244 
L 355.888421 -157.344115 
L 354.126316 -159.05181 
L 352.364211 -158.861308 
L 350.602105 -156.682664 
L 348.84 -155.178305 
L 347.077895 -155.674358 
L 345.315789 -156.459457 
L 343.553684 -157.126191 
L 341.791579 -155.566415 
L 340.029474 -153.665246 
L 338.267368 -155.625381 
L 336.505263 -153.58089 
L 334.743158 -154.065206 
L 332.981053 -154.536975 
L 331.218947 -152.493243 
L 329.456842 -153.6803 
L 327.694737 -151.27493 
L 325.932632 -151.65446 
L 324.170526 -153.504473 
L 322.408421 -153.290269 
L 320.646316 -152.55438 
L 318.884211 -152.253754 
L 317.122105 -152.964271 
L 315.36 -152.225764 
L 313.597895 -151.804283 
L 311.835789 -149.082207 
L 310.073684 -149.6938 
L 308.311579 -146.477629 
L 306.549474 -146.697809 
L 304.787368 -146.768599 
L 303.025263 -146.259531 
L 301.263158 -147.735286 
L 299.501053 -147.082231 
L 297.738947 -147.422733 
L 295.976842 -146.786557 
L 294.214737 -145.937222 
L 292.452632 -146.184091 
L 290.690526 -144.540632 
L 288.928421 -144.931372 
L 287.166316 -141.938467 
L 285.404211 -139.30833 
L 283.642105 -139.5985 
L 281.88 -140.237257 
L 280.117895 -139.146647 
L 278.355789 -134.097442 
L 276.593684 -133.787085 
L 274.831579 -132.92782 
L 273.069474 -132.38223 
L 271.307368 -129.885669 
L 269.545263 -127.920044 
L 267.783158 -126.641139 
L 266.021053 -122.582177 
L 264.258947 -122.147375 
L 262.496842 -121.712515 
L 260.734737 -121.356056 
L 258.972632 -121.823023 
L 257.210526 -120.20998 
L 255.448421 -119.92994 
L 253.686316 -118.548683 
L 251.924211 -117.483979 
L 250.162105 -115.42942 
L 248.4 -116.003618 
L 246.637895 -113.915889 
L 244.875789 -112.58522 
L 243.113684 -116.397583 
L 241.351579 -117.604627 
L 239.589474 -118.932599 
L 237.827368 -118.037149 
L 236.065263 -117.331579 
L 234.303158 -117.246277 
L 232.541053 -117.638594 
L 230.778947 -118.372391 
L 229.016842 -116.019756 
L 227.254737 -117.304653 
L 225.492632 -118.834945 
L 223.730526 -118.167643 
L 221.968421 -121.026911 
L 220.206316 -120.412224 
L 218.444211 -121.172074 
L 216.682105 -122.726974 
L 214.92 -121.574781 
L 213.157895 -119.055919 
L 211.395789 -116.678668 
L 209.633684 -117.324857 
L 207.871579 -114.491849 
L 206.109474 -114.108851 
L 204.347368 -109.802171 
L 202.585263 -107.109777 
L 200.823158 -105.928419 
L 199.061053 -103.86916 
L 197.298947 -99.759747 
L 195.536842 -99.399765 
L 193.774737 -97.338012 
L 192.012632 -95.075538 
L 190.250526 -92.4056 
L 188.488421 -86.819851 
L 186.726316 -82.809133 
L 184.964211 -81.273995 
L 183.202105 -78.424849 
L 181.44 -80.056944 
L 179.677895 -83.023156 
L 177.915789 -86.508406 
L 176.153684 -95.388918 
L 174.391579 -99.525914 
L 172.629474 -99.40937 
L 170.867368 -97.961309 
L 169.105263 -97.443085 
L 167.343158 -94.93571 
L 165.581053 -96.112334 
L 163.818947 -94.919213 
L 162.056842 -95.341942 
L 160.294737 -97.054347 
L 158.532632 -92.991597 
L 156.770526 -91.450435 
L 155.008421 -92.511832 
L 153.246316 -90.928527 
L 151.484211 -90.506289 
L 149.722105 -90.105362 
L 147.96 -87.507549 
L 146.197895 -84.468849 
L 144.435789 -80.8535 
L 142.673684 -76.912982 
L 140.911579 -67.173852 
L 139.149474 -59.692803 
L 137.387368 -58.910112 
L 135.625263 -58.593186 
L 133.863158 -58.899945 
L 132.101053 -59.300171 
L 130.338947 -59.310776 
L 128.576842 -62.252301 
L 126.814737 -63.219733 
L 125.052632 -62.792099 
L 123.290526 -63.229067 
L 121.528421 -63.345392 
L 119.766316 -63.583984 
L 118.004211 -60.181435 
L 116.242105 -60.095888 
L 114.48 -60.167938 
L 112.717895 -60.080052 
L 110.955789 -59.981229 
L 109.193684 -60.927106 
L 107.431579 -58.419144 
L 105.669474 -58.498487 
L 103.907368 -60.064722 
L 102.145263 -60.802708 
L 100.383158 -60.49203 
L 98.621053 -59.281779 
L 96.858947 -60.157717 
L 95.096842 -59.909758 
L 93.334737 -59.450199 
L 91.572632 -59.475115 
L 89.810526 -58.957547 
L 88.048421 -59.032961 
L 86.286316 -59.92739 
L 84.524211 -56.854041 
L 82.762105 -57.868397 
L 81 -58.709971 
z
" id="meb0e010288" style="stroke:#0000ff;stroke-opacity:0.3;"/>
    </defs>
    <g clip-path="url(#p5bd9b7e543)">
     <use style="fill:#0000ff;fill-opacity:0.3;stroke:#0000ff;stroke-opacity:0.3;" x="0" xlink:href="#meb0e010288" y="216"/>
    </g>
   </g>
   <g id="matplotlib.axis_1">
    <g id="xtick_1">
     <g id="line2d_1">
      <defs>
       <path d="M 0 0 
L 0 3.5 
" id="mb131889fa0" style="stroke:#000000;stroke-width:0.8;"/>
      </defs>
      <g>
       <use style="stroke:#000000;stroke-width:0.8;" x="156.33" xlink:href="#mb131889fa0" y="192.24"/>
      </g>
     </g>
     <g id="text_1">
      <!-- 0.0 -->
      <defs>
       <path d="M 31.78125 66.40625 
Q 24.171875 66.40625 20.328125 58.90625 
Q 16.5 51.421875 16.5 36.375 
Q 16.5 21.390625 20.328125 13.890625 
Q 24.171875 6.390625 31.78125 6.390625 
Q 39.453125 6.390625 43.28125 13.890625 
Q 47.125 21.390625 47.125 36.375 
Q 47.125 51.421875 43.28125 58.90625 
Q 39.453125 66.40625 31.78125 66.40625 
z
M 31.78125 74.21875 
Q 44.046875 74.21875 50.515625 64.515625 
Q 56.984375 54.828125 56.984375 36.375 
Q 56.984375 17.96875 50.515625 8.265625 
Q 44.046875 -1.421875 31.78125 -1.421875 
Q 19.53125 -1.421875 13.0625 8.265625 
Q 6.59375 17.96875 6.59375 36.375 
Q 6.59375 54.828125 13.0625 64.515625 
Q 19.53125 74.21875 31.78125 74.21875 
z
" id="DejaVuSans-48"/>
       <path d="M 10.6875 12.40625 
L 21 12.40625 
L 21 0 
L 10.6875 0 
z
" id="DejaVuSans-46"/>
      </defs>
      <g transform="translate(146.788125 208.358125)scale(0.12 -0.12)">
       <use xlink:href="#DejaVuSans-48"/>
       <use x="63.623047" xlink:href="#DejaVuSans-46"/>
       <use x="95.410156" xlink:href="#DejaVuSans-48"/>
      </g>
     </g>
    </g>
    <g id="xtick_2">
     <g id="line2d_2">
      <g>
       <use style="stroke:#000000;stroke-width:0.8;" x="244.435263" xlink:href="#mb131889fa0" y="192.24"/>
      </g>
     </g>
     <g id="text_2">
      <!-- 0.5 -->
      <defs>
       <path d="M 10.796875 72.90625 
L 49.515625 72.90625 
L 49.515625 64.59375 
L 19.828125 64.59375 
L 19.828125 46.734375 
Q 21.96875 47.46875 24.109375 47.828125 
Q 26.265625 48.1875 28.421875 48.1875 
Q 40.625 48.1875 47.75 41.5 
Q 54.890625 34.8125 54.890625 23.390625 
Q 54.890625 11.625 47.5625 5.09375 
Q 40.234375 -1.421875 26.90625 -1.421875 
Q 22.3125 -1.421875 17.546875 -0.640625 
Q 12.796875 0.140625 7.71875 1.703125 
L 7.71875 11.625 
Q 12.109375 9.234375 16.796875 8.0625 
Q 21.484375 6.890625 26.703125 6.890625 
Q 35.15625 6.890625 40.078125 11.328125 
Q 45.015625 15.765625 45.015625 23.390625 
Q 45.015625 31 40.078125 35.4375 
Q 35.15625 39.890625 26.703125 39.890625 
Q 22.75 39.890625 18.8125 39.015625 
Q 14.890625 38.140625 10.796875 36.28125 
z
" id="DejaVuSans-53"/>
      </defs>
      <g transform="translate(234.893388 208.358125)scale(0.12 -0.12)">
       <use xlink:href="#DejaVuSans-48"/>
       <use x="63.623047" xlink:href="#DejaVuSans-46"/>
       <use x="95.410156" xlink:href="#DejaVuSans-53"/>
      </g>
     </g>
    </g>
    <g id="xtick_3">
     <g id="line2d_3">
      <g>
       <use style="stroke:#000000;stroke-width:0.8;" x="332.540526" xlink:href="#mb131889fa0" y="192.24"/>
      </g>
     </g>
     <g id="text_3">
      <!-- 1.0 -->
      <defs>
       <path d="M 12.40625 8.296875 
L 28.515625 8.296875 
L 28.515625 63.921875 
L 10.984375 60.40625 
L 10.984375 69.390625 
L 28.421875 72.90625 
L 38.28125 72.90625 
L 38.28125 8.296875 
L 54.390625 8.296875 
L 54.390625 0 
L 12.40625 0 
z
" id="DejaVuSans-49"/>
      </defs>
      <g transform="translate(322.998651 208.358125)scale(0.12 -0.12)">
       <use xlink:href="#DejaVuSans-49"/>
       <use x="63.623047" xlink:href="#DejaVuSans-46"/>
       <use x="95.410156" xlink:href="#DejaVuSans-48"/>
      </g>
     </g>
    </g>
    <g id="xtick_4">
     <g id="line2d_4">
      <g>
       <use style="stroke:#000000;stroke-width:0.8;" x="420.645789" xlink:href="#mb131889fa0" y="192.24"/>
      </g>
     </g>
     <g id="text_4">
      <!-- 1.5 -->
      <g transform="translate(411.103914 208.358125)scale(0.12 -0.12)">
       <use xlink:href="#DejaVuSans-49"/>
       <use x="63.623047" xlink:href="#DejaVuSans-46"/>
       <use x="95.410156" xlink:href="#DejaVuSans-53"/>
      </g>
     </g>
    </g>
    <g id="xtick_5">
     <g id="line2d_5">
      <g>
       <use style="stroke:#000000;stroke-width:0.8;" x="508.751053" xlink:href="#mb131889fa0" y="192.24"/>
      </g>
     </g>
     <g id="text_5">
      <!-- 2.0 -->
      <defs>
       <path d="M 19.1875 8.296875 
L 53.609375 8.296875 
L 53.609375 0 
L 7.328125 0 
L 7.328125 8.296875 
Q 12.9375 14.109375 22.625 23.890625 
Q 32.328125 33.6875 34.8125 36.53125 
Q 39.546875 41.84375 41.421875 45.53125 
Q 43.3125 49.21875 43.3125 52.78125 
Q 43.3125 58.59375 39.234375 62.25 
Q 35.15625 65.921875 28.609375 65.921875 
Q 23.96875 65.921875 18.8125 64.3125 
Q 13.671875 62.703125 7.8125 59.421875 
L 7.8125 69.390625 
Q 13.765625 71.78125 18.9375 73 
Q 24.125 74.21875 28.421875 74.21875 
Q 39.75 74.21875 46.484375 68.546875 
Q 53.21875 62.890625 53.21875 53.421875 
Q 53.21875 48.921875 51.53125 44.890625 
Q 49.859375 40.875 45.40625 35.40625 
Q 44.1875 33.984375 37.640625 27.21875 
Q 31.109375 20.453125 19.1875 8.296875 
z
" id="DejaVuSans-50"/>
      </defs>
      <g transform="translate(499.209178 208.358125)scale(0.12 -0.12)">
       <use xlink:href="#DejaVuSans-50"/>
       <use x="63.623047" xlink:href="#DejaVuSans-46"/>
       <use x="95.410156" xlink:href="#DejaVuSans-48"/>
      </g>
     </g>
    </g>
    <g id="text_6">
     <!-- Time (s) -->
     <defs>
      <path d="M -0.296875 72.90625 
L 61.375 72.90625 
L 61.375 64.59375 
L 35.5 64.59375 
L 35.5 0 
L 25.59375 0 
L 25.59375 64.59375 
L -0.296875 64.59375 
z
" id="DejaVuSans-84"/>
      <path d="M 9.421875 54.6875 
L 18.40625 54.6875 
L 18.40625 0 
L 9.421875 0 
z
M 9.421875 75.984375 
L 18.40625 75.984375 
L 18.40625 64.59375 
L 9.421875 64.59375 
z
" id="DejaVuSans-105"/>
      <path d="M 52 44.1875 
Q 55.375 50.25 60.0625 53.125 
Q 64.75 56 71.09375 56 
Q 79.640625 56 84.28125 50.015625 
Q 88.921875 44.046875 88.921875 33.015625 
L 88.921875 0 
L 79.890625 0 
L 79.890625 32.71875 
Q 79.890625 40.578125 77.09375 44.375 
Q 74.3125 48.1875 68.609375 48.1875 
Q 61.625 48.1875 57.5625 43.546875 
Q 53.515625 38.921875 53.515625 30.90625 
L 53.515625 0 
L 44.484375 0 
L 44.484375 32.71875 
Q 44.484375 40.625 41.703125 44.40625 
Q 38.921875 48.1875 33.109375 48.1875 
Q 26.21875 48.1875 22.15625 43.53125 
Q 18.109375 38.875 18.109375 30.90625 
L 18.109375 0 
L 9.078125 0 
L 9.078125 54.6875 
L 18.109375 54.6875 
L 18.109375 46.1875 
Q 21.1875 51.21875 25.484375 53.609375 
Q 29.78125 56 35.6875 56 
Q 41.65625 56 45.828125 52.96875 
Q 50 49.953125 52 44.1875 
z
" id="DejaVuSans-109"/>
      <path d="M 56.203125 29.59375 
L 56.203125 25.203125 
L 14.890625 25.203125 
Q 15.484375 15.921875 20.484375 11.0625 
Q 25.484375 6.203125 34.421875 6.203125 
Q 39.59375 6.203125 44.453125 7.46875 
Q 49.3125 8.734375 54.109375 11.28125 
L 54.109375 2.78125 
Q 49.265625 0.734375 44.1875 -0.34375 
Q 39.109375 -1.421875 33.890625 -1.421875 
Q 20.796875 -1.421875 13.15625 6.1875 
Q 5.515625 13.8125 5.515625 26.8125 
Q 5.515625 40.234375 12.765625 48.109375 
Q 20.015625 56 32.328125 56 
Q 43.359375 56 49.78125 48.890625 
Q 56.203125 41.796875 56.203125 29.59375 
z
M 47.21875 32.234375 
Q 47.125 39.59375 43.09375 43.984375 
Q 39.0625 48.390625 32.421875 48.390625 
Q 24.90625 48.390625 20.390625 44.140625 
Q 15.875 39.890625 15.1875 32.171875 
z
" id="DejaVuSans-101"/>
      <path id="DejaVuSans-32"/>
      <path d="M 31 75.875 
Q 24.46875 64.65625 21.28125 53.65625 
Q 18.109375 42.671875 18.109375 31.390625 
Q 18.109375 20.125 21.3125 9.0625 
Q 24.515625 -2 31 -13.1875 
L 23.1875 -13.1875 
Q 15.875 -1.703125 12.234375 9.375 
Q 8.59375 20.453125 8.59375 31.390625 
Q 8.59375 42.28125 12.203125 53.3125 
Q 15.828125 64.359375 23.1875 75.875 
z
" id="DejaVuSans-40"/>
      <path d="M 44.28125 53.078125 
L 44.28125 44.578125 
Q 40.484375 46.53125 36.375 47.5 
Q 32.28125 48.484375 27.875 48.484375 
Q 21.1875 48.484375 17.84375 46.4375 
Q 14.5 44.390625 14.5 40.28125 
Q 14.5 37.15625 16.890625 35.375 
Q 19.28125 33.59375 26.515625 31.984375 
L 29.59375 31.296875 
Q 39.15625 29.25 43.1875 25.515625 
Q 47.21875 21.78125 47.21875 15.09375 
Q 47.21875 7.46875 41.1875 3.015625 
Q 35.15625 -1.421875 24.609375 -1.421875 
Q 20.21875 -1.421875 15.453125 -0.5625 
Q 10.6875 0.296875 5.421875 2 
L 5.421875 11.28125 
Q 10.40625 8.6875 15.234375 7.390625 
Q 20.0625 6.109375 24.8125 6.109375 
Q 31.15625 6.109375 34.5625 8.28125 
Q 37.984375 10.453125 37.984375 14.40625 
Q 37.984375 18.0625 35.515625 20.015625 
Q 33.0625 21.96875 24.703125 23.78125 
L 21.578125 24.515625 
Q 13.234375 26.265625 9.515625 29.90625 
Q 5.8125 33.546875 5.8125 39.890625 
Q 5.8125 47.609375 11.28125 51.796875 
Q 16.75 56 26.8125 56 
Q 31.78125 56 36.171875 55.265625 
Q 40.578125 54.546875 44.28125 53.078125 
z
" id="DejaVuSans-115"/>
      <path d="M 8.015625 75.875 
L 15.828125 75.875 
Q 23.140625 64.359375 26.78125 53.3125 
Q 30.421875 42.28125 30.421875 31.390625 
Q 30.421875 20.453125 26.78125 9.375 
Q 23.140625 -1.703125 15.828125 -13.1875 
L 8.015625 -13.1875 
Q 14.5 -2 17.703125 9.0625 
Q 20.90625 20.125 20.90625 31.390625 
Q 20.90625 42.671875 17.703125 53.65625 
Q 14.5 64.65625 8.015625 75.875 
z
" id="DejaVuSans-41"/>
     </defs>
     <g transform="translate(302.60475 225.7955)scale(0.144 -0.144)">
      <use xlink:href="#DejaVuSans-84"/>
      <use x="61.037109" xlink:href="#DejaVuSans-105"/>
      <use x="88.820312" xlink:href="#DejaVuSans-109"/>
      <use x="186.232422" xlink:href="#DejaVuSans-101"/>
      <use x="247.755859" xlink:href="#DejaVuSans-32"/>
      <use x="279.542969" xlink:href="#DejaVuSans-40"/>
      <use x="318.556641" xlink:href="#DejaVuSans-115"/>
      <use x="370.65625" xlink:href="#DejaVuSans-41"/>
     </g>
    </g>
   </g>
   <g id="matplotlib.axis_2">
    <g id="ytick_1">
     <g id="line2d_6">
      <defs>
       <path d="M 0 0 
L -3.5 0 
" id="meadeae692c" style="stroke:#000000;stroke-width:0.8;"/>
      </defs>
      <g>
       <use style="stroke:#000000;stroke-width:0.8;" x="81" xlink:href="#meadeae692c" y="190.005139"/>
      </g>
     </g>
     <g id="text_7">
      <!-- 0.017 -->
      <defs>
       <path d="M 8.203125 72.90625 
L 55.078125 72.90625 
L 55.078125 68.703125 
L 28.609375 0 
L 18.3125 0 
L 43.21875 64.59375 
L 8.203125 64.59375 
z
" id="DejaVuSans-55"/>
      </defs>
      <g transform="translate(39.64625 194.564202)scale(0.12 -0.12)">
       <use xlink:href="#DejaVuSans-48"/>
       <use x="63.623047" xlink:href="#DejaVuSans-46"/>
       <use x="95.410156" xlink:href="#DejaVuSans-48"/>
       <use x="159.033203" xlink:href="#DejaVuSans-49"/>
       <use x="222.65625" xlink:href="#DejaVuSans-55"/>
      </g>
     </g>
    </g>
    <g id="ytick_2">
     <g id="line2d_7">
      <g>
       <use style="stroke:#000000;stroke-width:0.8;" x="81" xlink:href="#meadeae692c" y="155.291616"/>
      </g>
     </g>
     <g id="text_8">
      <!-- 0.018 -->
      <defs>
       <path d="M 31.78125 34.625 
Q 24.75 34.625 20.71875 30.859375 
Q 16.703125 27.09375 16.703125 20.515625 
Q 16.703125 13.921875 20.71875 10.15625 
Q 24.75 6.390625 31.78125 6.390625 
Q 38.8125 6.390625 42.859375 10.171875 
Q 46.921875 13.96875 46.921875 20.515625 
Q 46.921875 27.09375 42.890625 30.859375 
Q 38.875 34.625 31.78125 34.625 
z
M 21.921875 38.8125 
Q 15.578125 40.375 12.03125 44.71875 
Q 8.5 49.078125 8.5 55.328125 
Q 8.5 64.0625 14.71875 69.140625 
Q 20.953125 74.21875 31.78125 74.21875 
Q 42.671875 74.21875 48.875 69.140625 
Q 55.078125 64.0625 55.078125 55.328125 
Q 55.078125 49.078125 51.53125 44.71875 
Q 48 40.375 41.703125 38.8125 
Q 48.828125 37.15625 52.796875 32.3125 
Q 56.78125 27.484375 56.78125 20.515625 
Q 56.78125 9.90625 50.3125 4.234375 
Q 43.84375 -1.421875 31.78125 -1.421875 
Q 19.734375 -1.421875 13.25 4.234375 
Q 6.78125 9.90625 6.78125 20.515625 
Q 6.78125 27.484375 10.78125 32.3125 
Q 14.796875 37.15625 21.921875 38.8125 
z
M 18.3125 54.390625 
Q 18.3125 48.734375 21.84375 45.5625 
Q 25.390625 42.390625 31.78125 42.390625 
Q 38.140625 42.390625 41.71875 45.5625 
Q 45.3125 48.734375 45.3125 54.390625 
Q 45.3125 60.0625 41.71875 63.234375 
Q 38.140625 66.40625 31.78125 66.40625 
Q 25.390625 66.40625 21.84375 63.234375 
Q 18.3125 60.0625 18.3125 54.390625 
z
" id="DejaVuSans-56"/>
      </defs>
      <g transform="translate(39.64625 159.850679)scale(0.12 -0.12)">
       <use xlink:href="#DejaVuSans-48"/>
       <use x="63.623047" xlink:href="#DejaVuSans-46"/>
       <use x="95.410156" xlink:href="#DejaVuSans-48"/>
       <use x="159.033203" xlink:href="#DejaVuSans-49"/>
       <use x="222.65625" xlink:href="#DejaVuSans-56"/>
      </g>
     </g>
    </g>
    <g id="ytick_3">
     <g id="line2d_8">
      <g>
       <use style="stroke:#000000;stroke-width:0.8;" x="81" xlink:href="#meadeae692c" y="120.578094"/>
      </g>
     </g>
     <g id="text_9">
      <!-- 0.019 -->
      <defs>
       <path d="M 10.984375 1.515625 
L 10.984375 10.5 
Q 14.703125 8.734375 18.5 7.8125 
Q 22.3125 6.890625 25.984375 6.890625 
Q 35.75 6.890625 40.890625 13.453125 
Q 46.046875 20.015625 46.78125 33.40625 
Q 43.953125 29.203125 39.59375 26.953125 
Q 35.25 24.703125 29.984375 24.703125 
Q 19.046875 24.703125 12.671875 31.3125 
Q 6.296875 37.9375 6.296875 49.421875 
Q 6.296875 60.640625 12.9375 67.421875 
Q 19.578125 74.21875 30.609375 74.21875 
Q 43.265625 74.21875 49.921875 64.515625 
Q 56.59375 54.828125 56.59375 36.375 
Q 56.59375 19.140625 48.40625 8.859375 
Q 40.234375 -1.421875 26.421875 -1.421875 
Q 22.703125 -1.421875 18.890625 -0.6875 
Q 15.09375 0.046875 10.984375 1.515625 
z
M 30.609375 32.421875 
Q 37.25 32.421875 41.125 36.953125 
Q 45.015625 41.5 45.015625 49.421875 
Q 45.015625 57.28125 41.125 61.84375 
Q 37.25 66.40625 30.609375 66.40625 
Q 23.96875 66.40625 20.09375 61.84375 
Q 16.21875 57.28125 16.21875 49.421875 
Q 16.21875 41.5 20.09375 36.953125 
Q 23.96875 32.421875 30.609375 32.421875 
z
" id="DejaVuSans-57"/>
      </defs>
      <g transform="translate(39.64625 125.137156)scale(0.12 -0.12)">
       <use xlink:href="#DejaVuSans-48"/>
       <use x="63.623047" xlink:href="#DejaVuSans-46"/>
       <use x="95.410156" xlink:href="#DejaVuSans-48"/>
       <use x="159.033203" xlink:href="#DejaVuSans-49"/>
       <use x="222.65625" xlink:href="#DejaVuSans-57"/>
      </g>
     </g>
    </g>
    <g id="ytick_4">
     <g id="line2d_9">
      <g>
       <use style="stroke:#000000;stroke-width:0.8;" x="81" xlink:href="#meadeae692c" y="85.864571"/>
      </g>
     </g>
     <g id="text_10">
      <!-- 0.020 -->
      <g transform="translate(39.64625 90.423633)scale(0.12 -0.12)">
       <use xlink:href="#DejaVuSans-48"/>
       <use x="63.623047" xlink:href="#DejaVuSans-46"/>
       <use x="95.410156" xlink:href="#DejaVuSans-48"/>
       <use x="159.033203" xlink:href="#DejaVuSans-50"/>
       <use x="222.65625" xlink:href="#DejaVuSans-48"/>
      </g>
     </g>
    </g>
    <g id="ytick_5">
     <g id="line2d_10">
      <g>
       <use style="stroke:#000000;stroke-width:0.8;" x="81" xlink:href="#meadeae692c" y="51.151048"/>
      </g>
     </g>
     <g id="text_11">
      <!-- 0.021 -->
      <g transform="translate(39.64625 55.71011)scale(0.12 -0.12)">
       <use xlink:href="#DejaVuSans-48"/>
       <use x="63.623047" xlink:href="#DejaVuSans-46"/>
       <use x="95.410156" xlink:href="#DejaVuSans-48"/>
       <use x="159.033203" xlink:href="#DejaVuSans-50"/>
       <use x="222.65625" xlink:href="#DejaVuSans-49"/>
      </g>
     </g>
    </g>
    <g id="text_12">
     <!-- Beta-bin $\pi$ -->
     <defs>
      <path d="M 19.671875 34.8125 
L 19.671875 8.109375 
L 35.5 8.109375 
Q 43.453125 8.109375 47.28125 11.40625 
Q 51.125 14.703125 51.125 21.484375 
Q 51.125 28.328125 47.28125 31.5625 
Q 43.453125 34.8125 35.5 34.8125 
z
M 19.671875 64.796875 
L 19.671875 42.828125 
L 34.28125 42.828125 
Q 41.5 42.828125 45.03125 45.53125 
Q 48.578125 48.25 48.578125 53.8125 
Q 48.578125 59.328125 45.03125 62.0625 
Q 41.5 64.796875 34.28125 64.796875 
z
M 9.8125 72.90625 
L 35.015625 72.90625 
Q 46.296875 72.90625 52.390625 68.21875 
Q 58.5 63.53125 58.5 54.890625 
Q 58.5 48.1875 55.375 44.234375 
Q 52.25 40.28125 46.1875 39.3125 
Q 53.46875 37.75 57.5 32.78125 
Q 61.53125 27.828125 61.53125 20.40625 
Q 61.53125 10.640625 54.890625 5.3125 
Q 48.25 0 35.984375 0 
L 9.8125 0 
z
" id="DejaVuSans-66"/>
      <path d="M 18.3125 70.21875 
L 18.3125 54.6875 
L 36.8125 54.6875 
L 36.8125 47.703125 
L 18.3125 47.703125 
L 18.3125 18.015625 
Q 18.3125 11.328125 20.140625 9.421875 
Q 21.96875 7.515625 27.59375 7.515625 
L 36.8125 7.515625 
L 36.8125 0 
L 27.59375 0 
Q 17.1875 0 13.234375 3.875 
Q 9.28125 7.765625 9.28125 18.015625 
L 9.28125 47.703125 
L 2.6875 47.703125 
L 2.6875 54.6875 
L 9.28125 54.6875 
L 9.28125 70.21875 
z
" id="DejaVuSans-116"/>
      <path d="M 34.28125 27.484375 
Q 23.390625 27.484375 19.1875 25 
Q 14.984375 22.515625 14.984375 16.5 
Q 14.984375 11.71875 18.140625 8.90625 
Q 21.296875 6.109375 26.703125 6.109375 
Q 34.1875 6.109375 38.703125 11.40625 
Q 43.21875 16.703125 43.21875 25.484375 
L 43.21875 27.484375 
z
M 52.203125 31.203125 
L 52.203125 0 
L 43.21875 0 
L 43.21875 8.296875 
Q 40.140625 3.328125 35.546875 0.953125 
Q 30.953125 -1.421875 24.3125 -1.421875 
Q 15.921875 -1.421875 10.953125 3.296875 
Q 6 8.015625 6 15.921875 
Q 6 25.140625 12.171875 29.828125 
Q 18.359375 34.515625 30.609375 34.515625 
L 43.21875 34.515625 
L 43.21875 35.40625 
Q 43.21875 41.609375 39.140625 45 
Q 35.0625 48.390625 27.6875 48.390625 
Q 23 48.390625 18.546875 47.265625 
Q 14.109375 46.140625 10.015625 43.890625 
L 10.015625 52.203125 
Q 14.9375 54.109375 19.578125 55.046875 
Q 24.21875 56 28.609375 56 
Q 40.484375 56 46.34375 49.84375 
Q 52.203125 43.703125 52.203125 31.203125 
z
" id="DejaVuSans-97"/>
      <path d="M 4.890625 31.390625 
L 31.203125 31.390625 
L 31.203125 23.390625 
L 4.890625 23.390625 
z
" id="DejaVuSans-45"/>
      <path d="M 48.6875 27.296875 
Q 48.6875 37.203125 44.609375 42.84375 
Q 40.53125 48.484375 33.40625 48.484375 
Q 26.265625 48.484375 22.1875 42.84375 
Q 18.109375 37.203125 18.109375 27.296875 
Q 18.109375 17.390625 22.1875 11.75 
Q 26.265625 6.109375 33.40625 6.109375 
Q 40.53125 6.109375 44.609375 11.75 
Q 48.6875 17.390625 48.6875 27.296875 
z
M 18.109375 46.390625 
Q 20.953125 51.265625 25.265625 53.625 
Q 29.59375 56 35.59375 56 
Q 45.5625 56 51.78125 48.09375 
Q 58.015625 40.1875 58.015625 27.296875 
Q 58.015625 14.40625 51.78125 6.484375 
Q 45.5625 -1.421875 35.59375 -1.421875 
Q 29.59375 -1.421875 25.265625 0.953125 
Q 20.953125 3.328125 18.109375 8.203125 
L 18.109375 0 
L 9.078125 0 
L 9.078125 75.984375 
L 18.109375 75.984375 
z
" id="DejaVuSans-98"/>
      <path d="M 54.890625 33.015625 
L 54.890625 0 
L 45.90625 0 
L 45.90625 32.71875 
Q 45.90625 40.484375 42.875 44.328125 
Q 39.84375 48.1875 33.796875 48.1875 
Q 26.515625 48.1875 22.3125 43.546875 
Q 18.109375 38.921875 18.109375 30.90625 
L 18.109375 0 
L 9.078125 0 
L 9.078125 54.6875 
L 18.109375 54.6875 
L 18.109375 46.1875 
Q 21.34375 51.125 25.703125 53.5625 
Q 30.078125 56 35.796875 56 
Q 45.21875 56 50.046875 50.171875 
Q 54.890625 44.34375 54.890625 33.015625 
z
" id="DejaVuSans-110"/>
      <path d="M 9.125 54.6875 
L 61.53125 54.6875 
L 59.765625 45.703125 
L 52.875 45.703125 
L 46.34375 12.109375 
Q 45.65625 8.59375 46.578125 7.03125 
Q 47.46875 5.515625 50.140625 5.515625 
Q 50.875 5.515625 51.953125 5.671875 
Q 53.078125 5.765625 53.421875 5.8125 
L 52.15625 -0.6875 
Q 50.34375 -1.3125 48.484375 -1.609375 
Q 46.578125 -1.90625 44.78125 -1.90625 
Q 38.921875 -1.90625 37.3125 1.265625 
Q 35.6875 4.5 37.359375 13.09375 
L 43.703125 45.703125 
L 23.53125 45.703125 
L 14.65625 0 
L 5.46875 0 
L 14.359375 45.703125 
L 7.375 45.703125 
z
" id="DejaVuSans-Oblique-960"/>
     </defs>
     <g transform="translate(32.6515 146.088)rotate(-90)scale(0.144 -0.144)">
      <use transform="translate(0 0.015625)" xlink:href="#DejaVuSans-66"/>
      <use transform="translate(68.603516 0.015625)" xlink:href="#DejaVuSans-101"/>
      <use transform="translate(130.126953 0.015625)" xlink:href="#DejaVuSans-116"/>
      <use transform="translate(169.335938 0.015625)" xlink:href="#DejaVuSans-97"/>
      <use transform="translate(230.615234 0.015625)" xlink:href="#DejaVuSans-45"/>
      <use transform="translate(266.699219 0.015625)" xlink:href="#DejaVuSans-98"/>
      <use transform="translate(330.175781 0.015625)" xlink:href="#DejaVuSans-105"/>
      <use transform="translate(357.958984 0.015625)" xlink:href="#DejaVuSans-110"/>
      <use transform="translate(421.337891 0.015625)" xlink:href="#DejaVuSans-32"/>
      <use transform="translate(453.125 0.015625)" xlink:href="#DejaVuSans-Oblique-960"/>
     </g>
    </g>
   </g>
   <g id="line2d_11">
    <path clip-path="url(#p5bd9b7e543)" d="M 81 173.442854 
L 84.524211 175.161302 
L 86.286316 172.251512 
L 88.048421 173.0795 
L 89.810526 173.26203 
L 91.572632 172.660343 
L 93.334737 172.915095 
L 95.096842 172.450113 
L 96.858947 172.119842 
L 98.621053 173.10001 
L 100.383158 171.91766 
L 102.145263 171.623057 
L 103.907368 172.333921 
L 105.669474 173.739674 
L 107.431579 173.806659 
L 109.193684 171.480681 
L 110.955789 172.388172 
L 112.717895 172.39719 
L 114.48 172.212205 
L 116.242105 172.247711 
L 118.004211 172.099206 
L 119.766316 169.040578 
L 121.528421 169.309899 
L 123.290526 169.26175 
L 125.052632 169.781964 
L 126.814737 169.339489 
L 128.576842 170.266404 
L 130.338947 173.108414 
L 132.101053 173.113914 
L 135.625263 173.806495 
L 137.387368 173.644261 
L 139.149474 172.881667 
L 140.911579 165.381509 
L 142.673684 155.607448 
L 144.435789 151.645463 
L 146.197895 148.15612 
L 147.96 145.068 
L 149.722105 142.751601 
L 153.246316 141.790133 
L 155.008421 140.296664 
L 156.770526 141.357364 
L 158.532632 139.892207 
L 160.294737 136.126512 
L 162.056842 137.706536 
L 163.818947 138.148593 
L 165.581053 136.927741 
L 167.343158 137.972211 
L 169.105263 135.52308 
L 170.867368 134.99444 
L 172.629474 133.702878 
L 174.391579 133.519784 
L 176.153684 137.833514 
L 177.915789 146.402938 
L 179.677895 149.895076 
L 181.44 152.608166 
L 183.202105 154.418359 
L 184.964211 151.444353 
L 186.726316 149.622196 
L 188.488421 145.600299 
L 190.250526 140.005389 
L 192.012632 137.098519 
L 193.774737 134.669432 
L 195.536842 132.457284 
L 197.298947 132.162964 
L 199.061053 128.017338 
L 200.823158 125.945538 
L 202.585263 124.642602 
L 204.347368 121.741269 
L 206.109474 117.642522 
L 207.871579 117.078064 
L 209.633684 114.247823 
L 211.395789 114.803322 
L 213.157895 112.659604 
L 214.92 110.308525 
L 216.682105 109.241243 
L 218.444211 110.765561 
L 220.206316 111.57416 
L 221.968421 110.96616 
L 223.730526 113.770888 
L 225.492632 113.334893 
L 227.254737 114.7569 
L 229.016842 116.360627 
L 230.778947 114.00056 
L 232.541053 114.7098 
L 234.303158 115.070181 
L 236.065263 115.012623 
L 239.589474 113.732702 
L 243.113684 116.189588 
L 244.875789 119.828966 
L 246.637895 118.40979 
L 248.4 116.310883 
L 250.162105 116.909181 
L 251.924211 114.7094 
L 255.448421 112.198025 
L 257.210526 111.91617 
L 258.972632 110.549882 
L 260.734737 110.678892 
L 262.496842 110.391437 
L 266.021053 109.318316 
L 267.783158 105.421184 
L 269.545263 104.280125 
L 271.307368 102.302911 
L 273.069474 99.723429 
L 274.831579 99.178173 
L 276.593684 98.181783 
L 278.355789 97.700519 
L 280.117895 92.940665 
L 281.88 91.588318 
L 283.642105 92.372025 
L 285.404211 92.691235 
L 287.166316 90.141712 
L 288.928421 87.363293 
L 290.690526 87.565594 
L 292.452632 85.867771 
L 294.214737 86.187194 
L 295.976842 85.207607 
L 297.738947 84.627206 
L 299.501053 84.961675 
L 301.263158 84.295614 
L 303.025263 85.499888 
L 304.787368 85.012174 
L 306.549474 84.868174 
L 308.311579 84.889181 
L 310.073684 81.752281 
L 311.835789 82.127771 
L 313.597895 79.46229 
L 317.122105 78.000742 
L 318.884211 78.85252 
L 320.646316 78.361797 
L 322.408421 77.627708 
L 324.170526 77.423659 
L 325.932632 79.131455 
L 327.694737 79.600823 
L 329.456842 77.595286 
L 331.218947 78.712809 
L 332.981053 76.883647 
L 334.743158 77.593156 
L 336.505263 77.834877 
L 338.267368 76.005693 
L 340.029474 77.960756 
L 341.791579 76.047584 
L 343.553684 74.609763 
L 348.84 77.070179 
L 350.602105 75.745175 
L 352.364211 73.739518 
L 354.126316 73.57131 
L 355.888421 75.361459 
L 359.412632 73.922457 
L 362.936842 69.88374 
L 364.698947 70.561758 
L 366.461053 68.193421 
L 368.223158 67.091231 
L 369.985263 62.991352 
L 371.747368 63.433497 
L 373.509474 61.821565 
L 375.271579 60.022308 
L 377.033684 58.872668 
L 378.795789 58.349778 
L 380.557895 58.567249 
L 382.32 56.352654 
L 384.082105 54.739017 
L 385.844211 53.832246 
L 387.606316 51.248909 
L 389.368421 49.142522 
L 391.130526 48.031184 
L 392.892632 46.357516 
L 394.654737 43.44062 
L 396.416842 44.181173 
L 398.178947 42.541927 
L 399.941053 42.546765 
L 401.703158 43.554003 
L 403.465263 45.482906 
L 405.227368 48.245501 
L 406.989474 51.857956 
L 412.275789 68.301928 
L 414.037895 69.795203 
L 415.8 75.990818 
L 417.562105 80.081305 
L 421.086316 91.396119 
L 422.848421 94.7972 
L 424.610526 100.434084 
L 426.372632 106.739471 
L 428.134737 111.891131 
L 429.896842 118.889647 
L 431.658947 123.916386 
L 433.421053 128.546111 
L 435.183158 134.636791 
L 436.945263 138.477142 
L 438.707368 138.629815 
L 440.469474 141.356859 
L 442.231579 140.305337 
L 443.993684 141.25454 
L 445.755789 139.677785 
L 447.517895 138.642677 
L 449.28 139.997181 
L 451.042105 137.296699 
L 452.804211 135.89625 
L 454.566316 137.426528 
L 456.328421 135.735832 
L 458.090526 134.286875 
L 459.852632 134.710229 
L 461.614737 135.264289 
L 463.376842 134.926776 
L 465.138947 132.272836 
L 466.901053 133.312345 
L 468.663158 133.902151 
L 470.425263 133.475502 
L 472.187368 134.462852 
L 473.949474 136.050787 
L 475.711579 135.794825 
L 479.235789 139.108529 
L 480.997895 137.745048 
L 482.76 139.620052 
L 484.522105 139.369691 
L 486.284211 140.575831 
L 488.046316 144.583625 
L 489.808421 144.104711 
L 491.570526 144.218419 
L 493.332632 145.14183 
L 495.094737 145.228288 
L 496.856842 146.428 
L 498.618947 143.621859 
L 502.143158 144.643436 
L 503.905263 144.797026 
L 505.667368 144.64916 
L 507.429474 144.838769 
L 509.191579 145.451849 
L 510.953684 147.973969 
L 512.715789 146.820273 
L 514.477895 148.917775 
L 516.24 151.293099 
L 518.002105 150.805571 
L 519.764211 154.27596 
L 521.526316 153.629131 
L 523.288421 154.474967 
L 525.050526 153.231061 
L 526.812632 153.397364 
L 528.574737 156.864009 
L 530.336842 158.058352 
L 532.098947 157.170843 
L 533.861053 159.769995 
L 535.623158 160.841519 
L 537.385263 161.532819 
L 539.147368 162.829485 
L 540.909474 163.631829 
L 542.671579 162.283625 
L 544.433684 163.15303 
L 546.195789 163.002428 
L 547.957895 164.329375 
L 549.72 163.914311 
L 551.482105 165.32703 
L 553.244211 162.851737 
L 555.006316 164.778785 
L 556.768421 165.559423 
L 560.292632 168.39419 
L 562.054737 168.068775 
L 563.816842 168.398515 
L 565.578947 170.440852 
L 567.341053 172.310983 
L 569.103158 172.462643 
L 570.865263 175.310418 
L 572.627368 174.340571 
L 574.389474 175.627938 
L 576.151579 174.352347 
L 577.913684 176.08304 
L 579.675789 174.93351 
L 581.437895 174.89495 
L 583.2 175.030965 
L 583.2 175.030965 
" style="fill:none;stroke:#0000ff;stroke-linecap:square;stroke-width:1.5;"/>
   </g>
   <g id="patch_3">
    <path d="M 81 192.24 
L 81 25.92 
" style="fill:none;stroke:#000000;stroke-linecap:square;stroke-linejoin:miter;stroke-width:0.8;"/>
   </g>
   <g id="patch_4">
    <path d="M 583.2 192.24 
L 583.2 25.92 
" style="fill:none;stroke:#000000;stroke-linecap:square;stroke-linejoin:miter;stroke-width:0.8;"/>
   </g>
   <g id="patch_5">
    <path d="M 81 192.24 
L 583.2 192.24 
" style="fill:none;stroke:#000000;stroke-linecap:square;stroke-linejoin:miter;stroke-width:0.8;"/>
   </g>
   <g id="patch_6">
    <path d="M 81 25.92 
L 583.2 25.92 
" style="fill:none;stroke:#000000;stroke-linecap:square;stroke-linejoin:miter;stroke-width:0.8;"/>
   </g>
   <g id="text_13">
    <!-- Thalamus, Num Trials=160 All stimulated trials -->
    <defs>
     <path d="M 54.890625 33.015625 
L 54.890625 0 
L 45.90625 0 
L 45.90625 32.71875 
Q 45.90625 40.484375 42.875 44.328125 
Q 39.84375 48.1875 33.796875 48.1875 
Q 26.515625 48.1875 22.3125 43.546875 
Q 18.109375 38.921875 18.109375 30.90625 
L 18.109375 0 
L 9.078125 0 
L 9.078125 75.984375 
L 18.109375 75.984375 
L 18.109375 46.1875 
Q 21.34375 51.125 25.703125 53.5625 
Q 30.078125 56 35.796875 56 
Q 45.21875 56 50.046875 50.171875 
Q 54.890625 44.34375 54.890625 33.015625 
z
" id="DejaVuSans-104"/>
     <path d="M 9.421875 75.984375 
L 18.40625 75.984375 
L 18.40625 0 
L 9.421875 0 
z
" id="DejaVuSans-108"/>
     <path d="M 8.5 21.578125 
L 8.5 54.6875 
L 17.484375 54.6875 
L 17.484375 21.921875 
Q 17.484375 14.15625 20.5 10.265625 
Q 23.53125 6.390625 29.59375 6.390625 
Q 36.859375 6.390625 41.078125 11.03125 
Q 45.3125 15.671875 45.3125 23.6875 
L 45.3125 54.6875 
L 54.296875 54.6875 
L 54.296875 0 
L 45.3125 0 
L 45.3125 8.40625 
Q 42.046875 3.421875 37.71875 1 
Q 33.40625 -1.421875 27.6875 -1.421875 
Q 18.265625 -1.421875 13.375 4.4375 
Q 8.5 10.296875 8.5 21.578125 
z
M 31.109375 56 
z
" id="DejaVuSans-117"/>
     <path d="M 11.71875 12.40625 
L 22.015625 12.40625 
L 22.015625 4 
L 14.015625 -11.625 
L 7.71875 -11.625 
L 11.71875 4 
z
" id="DejaVuSans-44"/>
     <path d="M 9.8125 72.90625 
L 23.09375 72.90625 
L 55.421875 11.921875 
L 55.421875 72.90625 
L 64.984375 72.90625 
L 64.984375 0 
L 51.703125 0 
L 19.390625 60.984375 
L 19.390625 0 
L 9.8125 0 
z
" id="DejaVuSans-78"/>
     <path d="M 41.109375 46.296875 
Q 39.59375 47.171875 37.8125 47.578125 
Q 36.03125 48 33.890625 48 
Q 26.265625 48 22.1875 43.046875 
Q 18.109375 38.09375 18.109375 28.8125 
L 18.109375 0 
L 9.078125 0 
L 9.078125 54.6875 
L 18.109375 54.6875 
L 18.109375 46.1875 
Q 20.953125 51.171875 25.484375 53.578125 
Q 30.03125 56 36.53125 56 
Q 37.453125 56 38.578125 55.875 
Q 39.703125 55.765625 41.0625 55.515625 
z
" id="DejaVuSans-114"/>
     <path d="M 10.59375 45.40625 
L 73.1875 45.40625 
L 73.1875 37.203125 
L 10.59375 37.203125 
z
M 10.59375 25.484375 
L 73.1875 25.484375 
L 73.1875 17.1875 
L 10.59375 17.1875 
z
" id="DejaVuSans-61"/>
     <path d="M 33.015625 40.375 
Q 26.375 40.375 22.484375 35.828125 
Q 18.609375 31.296875 18.609375 23.390625 
Q 18.609375 15.53125 22.484375 10.953125 
Q 26.375 6.390625 33.015625 6.390625 
Q 39.65625 6.390625 43.53125 10.953125 
Q 47.40625 15.53125 47.40625 23.390625 
Q 47.40625 31.296875 43.53125 35.828125 
Q 39.65625 40.375 33.015625 40.375 
z
M 52.59375 71.296875 
L 52.59375 62.3125 
Q 48.875 64.0625 45.09375 64.984375 
Q 41.3125 65.921875 37.59375 65.921875 
Q 27.828125 65.921875 22.671875 59.328125 
Q 17.53125 52.734375 16.796875 39.40625 
Q 19.671875 43.65625 24.015625 45.921875 
Q 28.375 48.1875 33.59375 48.1875 
Q 44.578125 48.1875 50.953125 41.515625 
Q 57.328125 34.859375 57.328125 23.390625 
Q 57.328125 12.15625 50.6875 5.359375 
Q 44.046875 -1.421875 33.015625 -1.421875 
Q 20.359375 -1.421875 13.671875 8.265625 
Q 6.984375 17.96875 6.984375 36.375 
Q 6.984375 53.65625 15.1875 63.9375 
Q 23.390625 74.21875 37.203125 74.21875 
Q 40.921875 74.21875 44.703125 73.484375 
Q 48.484375 72.75 52.59375 71.296875 
z
" id="DejaVuSans-54"/>
     <path d="M 34.1875 63.1875 
L 20.796875 26.90625 
L 47.609375 26.90625 
z
M 28.609375 72.90625 
L 39.796875 72.90625 
L 67.578125 0 
L 57.328125 0 
L 50.6875 18.703125 
L 17.828125 18.703125 
L 11.1875 0 
L 0.78125 0 
z
" id="DejaVuSans-65"/>
     <path d="M 45.40625 46.390625 
L 45.40625 75.984375 
L 54.390625 75.984375 
L 54.390625 0 
L 45.40625 0 
L 45.40625 8.203125 
Q 42.578125 3.328125 38.25 0.953125 
Q 33.9375 -1.421875 27.875 -1.421875 
Q 17.96875 -1.421875 11.734375 6.484375 
Q 5.515625 14.40625 5.515625 27.296875 
Q 5.515625 40.1875 11.734375 48.09375 
Q 17.96875 56 27.875 56 
Q 33.9375 56 38.25 53.625 
Q 42.578125 51.265625 45.40625 46.390625 
z
M 14.796875 27.296875 
Q 14.796875 17.390625 18.875 11.75 
Q 22.953125 6.109375 30.078125 6.109375 
Q 37.203125 6.109375 41.296875 11.75 
Q 45.40625 17.390625 45.40625 27.296875 
Q 45.40625 37.203125 41.296875 42.84375 
Q 37.203125 48.484375 30.078125 48.484375 
Q 22.953125 48.484375 18.875 42.84375 
Q 14.796875 37.203125 14.796875 27.296875 
z
" id="DejaVuSans-100"/>
    </defs>
    <g transform="translate(190.146563 19.92)scale(0.12 -0.12)">
     <use xlink:href="#DejaVuSans-84"/>
     <use x="61.083984" xlink:href="#DejaVuSans-104"/>
     <use x="124.462891" xlink:href="#DejaVuSans-97"/>
     <use x="185.742188" xlink:href="#DejaVuSans-108"/>
     <use x="213.525391" xlink:href="#DejaVuSans-97"/>
     <use x="274.804688" xlink:href="#DejaVuSans-109"/>
     <use x="372.216797" xlink:href="#DejaVuSans-117"/>
     <use x="435.595703" xlink:href="#DejaVuSans-115"/>
     <use x="487.695312" xlink:href="#DejaVuSans-44"/>
     <use x="519.482422" xlink:href="#DejaVuSans-32"/>
     <use x="551.269531" xlink:href="#DejaVuSans-78"/>
     <use x="626.074219" xlink:href="#DejaVuSans-117"/>
     <use x="689.453125" xlink:href="#DejaVuSans-109"/>
     <use x="786.865234" xlink:href="#DejaVuSans-32"/>
     <use x="818.652344" xlink:href="#DejaVuSans-84"/>
     <use x="879.517578" xlink:href="#DejaVuSans-114"/>
     <use x="920.630859" xlink:href="#DejaVuSans-105"/>
     <use x="948.414062" xlink:href="#DejaVuSans-97"/>
     <use x="1009.693359" xlink:href="#DejaVuSans-108"/>
     <use x="1037.476562" xlink:href="#DejaVuSans-115"/>
     <use x="1089.576172" xlink:href="#DejaVuSans-61"/>
     <use x="1173.365234" xlink:href="#DejaVuSans-49"/>
     <use x="1236.988281" xlink:href="#DejaVuSans-54"/>
     <use x="1300.611328" xlink:href="#DejaVuSans-48"/>
     <use x="1364.234375" xlink:href="#DejaVuSans-32"/>
     <use x="1396.021484" xlink:href="#DejaVuSans-65"/>
     <use x="1464.429688" xlink:href="#DejaVuSans-108"/>
     <use x="1492.212891" xlink:href="#DejaVuSans-108"/>
     <use x="1519.996094" xlink:href="#DejaVuSans-32"/>
     <use x="1551.783203" xlink:href="#DejaVuSans-115"/>
     <use x="1603.882812" xlink:href="#DejaVuSans-116"/>
     <use x="1643.091797" xlink:href="#DejaVuSans-105"/>
     <use x="1670.875" xlink:href="#DejaVuSans-109"/>
     <use x="1768.287109" xlink:href="#DejaVuSans-117"/>
     <use x="1831.666016" xlink:href="#DejaVuSans-108"/>
     <use x="1859.449219" xlink:href="#DejaVuSans-97"/>
     <use x="1920.728516" xlink:href="#DejaVuSans-116"/>
     <use x="1959.9375" xlink:href="#DejaVuSans-101"/>
     <use x="2021.460938" xlink:href="#DejaVuSans-100"/>
     <use x="2084.9375" xlink:href="#DejaVuSans-32"/>
     <use x="2116.724609" xlink:href="#DejaVuSans-116"/>
     <use x="2155.933594" xlink:href="#DejaVuSans-114"/>
     <use x="2197.046875" xlink:href="#DejaVuSans-105"/>
     <use x="2224.830078" xlink:href="#DejaVuSans-97"/>
     <use x="2286.109375" xlink:href="#DejaVuSans-108"/>
     <use x="2313.892578" xlink:href="#DejaVuSans-115"/>
    </g>
   </g>
   <g id="legend_1">
    <g id="patch_7">
     <path d="M 441.12 70.7475 
L 574.8 70.7475 
Q 577.2 70.7475 577.2 68.3475 
L 577.2 34.32 
Q 577.2 31.92 574.8 31.92 
L 441.12 31.92 
Q 438.72 31.92 438.72 34.32 
L 438.72 68.3475 
Q 438.72 70.7475 441.12 70.7475 
z
" style="fill:#ffffff;opacity:0.8;stroke:#cccccc;stroke-linejoin:miter;"/>
    </g>
    <g id="line2d_12">
     <path d="M 443.52 41.638125 
L 467.52 41.638125 
" style="fill:none;stroke:#0000ff;stroke-linecap:square;stroke-width:1.5;"/>
    </g>
    <g id="line2d_13"/>
    <g id="text_14">
     <!-- Beta-Binomial $\pi$ -->
     <defs>
      <path d="M 30.609375 48.390625 
Q 23.390625 48.390625 19.1875 42.75 
Q 14.984375 37.109375 14.984375 27.296875 
Q 14.984375 17.484375 19.15625 11.84375 
Q 23.34375 6.203125 30.609375 6.203125 
Q 37.796875 6.203125 41.984375 11.859375 
Q 46.1875 17.53125 46.1875 27.296875 
Q 46.1875 37.015625 41.984375 42.703125 
Q 37.796875 48.390625 30.609375 48.390625 
z
M 30.609375 56 
Q 42.328125 56 49.015625 48.375 
Q 55.71875 40.765625 55.71875 27.296875 
Q 55.71875 13.875 49.015625 6.21875 
Q 42.328125 -1.421875 30.609375 -1.421875 
Q 18.84375 -1.421875 12.171875 6.21875 
Q 5.515625 13.875 5.515625 27.296875 
Q 5.515625 40.765625 12.171875 48.375 
Q 18.84375 56 30.609375 56 
z
" id="DejaVuSans-111"/>
     </defs>
     <g transform="translate(477.12 45.838125)scale(0.12 -0.12)">
      <use transform="translate(0 0.015625)" xlink:href="#DejaVuSans-66"/>
      <use transform="translate(68.603516 0.015625)" xlink:href="#DejaVuSans-101"/>
      <use transform="translate(130.126953 0.015625)" xlink:href="#DejaVuSans-116"/>
      <use transform="translate(169.335938 0.015625)" xlink:href="#DejaVuSans-97"/>
      <use transform="translate(230.615234 0.015625)" xlink:href="#DejaVuSans-45"/>
      <use transform="translate(266.699219 0.015625)" xlink:href="#DejaVuSans-66"/>
      <use transform="translate(335.302734 0.015625)" xlink:href="#DejaVuSans-105"/>
      <use transform="translate(363.085938 0.015625)" xlink:href="#DejaVuSans-110"/>
      <use transform="translate(426.464844 0.015625)" xlink:href="#DejaVuSans-111"/>
      <use transform="translate(487.646484 0.015625)" xlink:href="#DejaVuSans-109"/>
      <use transform="translate(585.058594 0.015625)" xlink:href="#DejaVuSans-105"/>
      <use transform="translate(612.841797 0.015625)" xlink:href="#DejaVuSans-97"/>
      <use transform="translate(674.121094 0.015625)" xlink:href="#DejaVuSans-108"/>
      <use transform="translate(701.904297 0.015625)" xlink:href="#DejaVuSans-32"/>
      <use transform="translate(733.691406 0.015625)" xlink:href="#DejaVuSans-Oblique-960"/>
     </g>
    </g>
    <g id="patch_8">
     <path d="M 443.52 63.451875 
L 467.52 63.451875 
L 467.52 55.051875 
L 443.52 55.051875 
z
" style="fill:#0000ff;opacity:0.3;stroke:#0000ff;stroke-linejoin:miter;"/>
    </g>
    <g id="text_15">
     <!-- Std. Err. -->
     <defs>
      <path d="M 53.515625 70.515625 
L 53.515625 60.890625 
Q 47.90625 63.578125 42.921875 64.890625 
Q 37.9375 66.21875 33.296875 66.21875 
Q 25.25 66.21875 20.875 63.09375 
Q 16.5 59.96875 16.5 54.203125 
Q 16.5 49.359375 19.40625 46.890625 
Q 22.3125 44.4375 30.421875 42.921875 
L 36.375 41.703125 
Q 47.40625 39.59375 52.65625 34.296875 
Q 57.90625 29 57.90625 20.125 
Q 57.90625 9.515625 50.796875 4.046875 
Q 43.703125 -1.421875 29.984375 -1.421875 
Q 24.8125 -1.421875 18.96875 -0.25 
Q 13.140625 0.921875 6.890625 3.21875 
L 6.890625 13.375 
Q 12.890625 10.015625 18.65625 8.296875 
Q 24.421875 6.59375 29.984375 6.59375 
Q 38.421875 6.59375 43.015625 9.90625 
Q 47.609375 13.234375 47.609375 19.390625 
Q 47.609375 24.75 44.3125 27.78125 
Q 41.015625 30.8125 33.5 32.328125 
L 27.484375 33.5 
Q 16.453125 35.6875 11.515625 40.375 
Q 6.59375 45.0625 6.59375 53.421875 
Q 6.59375 63.09375 13.40625 68.65625 
Q 20.21875 74.21875 32.171875 74.21875 
Q 37.3125 74.21875 42.625 73.28125 
Q 47.953125 72.359375 53.515625 70.515625 
z
" id="DejaVuSans-83"/>
      <path d="M 9.8125 72.90625 
L 55.90625 72.90625 
L 55.90625 64.59375 
L 19.671875 64.59375 
L 19.671875 43.015625 
L 54.390625 43.015625 
L 54.390625 34.71875 
L 19.671875 34.71875 
L 19.671875 8.296875 
L 56.78125 8.296875 
L 56.78125 0 
L 9.8125 0 
z
" id="DejaVuSans-69"/>
     </defs>
     <g transform="translate(477.12 63.451875)scale(0.12 -0.12)">
      <use xlink:href="#DejaVuSans-83"/>
      <use x="63.476562" xlink:href="#DejaVuSans-116"/>
      <use x="102.685547" xlink:href="#DejaVuSans-100"/>
      <use x="166.162109" xlink:href="#DejaVuSans-46"/>
      <use x="197.949219" xlink:href="#DejaVuSans-32"/>
      <use x="229.736328" xlink:href="#DejaVuSans-69"/>
      <use x="292.919922" xlink:href="#DejaVuSans-114"/>
      <use x="334.017578" xlink:href="#DejaVuSans-114"/>
      <use x="374.990234" xlink:href="#DejaVuSans-46"/>
     </g>
    </g>
   </g>
  </g>
 </g>
 <defs>
  <clipPath id="p5bd9b7e543">
   <rect height="166.32" width="502.2" x="81" y="25.92"/>
  </clipPath>
 </defs>
</svg>
