<?xml version="1.0" encoding="utf-8" standalone="no"?>
<!DOCTYPE svg PUBLIC "-//W3C//DTD SVG 1.1//EN"
  "http://www.w3.org/Graphics/SVG/1.1/DTD/svg11.dtd">
<!-- Created with matplotlib (https://matplotlib.org/) -->
<svg height="223.2pt" version="1.1" viewBox="0 0 576 223.2" width="576pt" xmlns="http://www.w3.org/2000/svg" xmlns:xlink="http://www.w3.org/1999/xlink">
 <defs>
  <style type="text/css">
*{stroke-linecap:butt;stroke-linejoin:round;}
  </style>
 </defs>
 <g id="figure_1">
  <g id="patch_1">
   <path d="M 0 223.2 
L 576 223.2 
L 576 0 
L 0 0 
z
" style="fill:#ffffff;"/>
  </g>
  <g id="axes_1">
   <g id="patch_2">
    <path d="M 77.15 174.76 
L 565.2 174.76 
L 565.2 26.88 
L 77.15 26.88 
z
" style="fill:#ffffff;"/>
   </g>
   <g id="PolyCollection_1">
    <path clip-path="url(#p929510ad00)" d="M 156.478805 6164.327571 
L 156.478805 26.88 
L 404.639822 26.88 
L 404.639822 6164.327571 
L 404.639822 6164.327571 
L 156.478805 6164.327571 
z
" style="fill:#808080;fill-opacity:0.3;stroke:#808080;stroke-opacity:0.3;"/>
   </g>
   <g id="PolyCollection_2">
    <path clip-path="url(#p929510ad00)" d="M 77.15 3337.801703 
L 77.15 3337.801703 
L 78.804407 562.973799 
L 80.458814 1229.212313 
L 82.11322 2625.621919 
L 83.767627 3337.801703 
L 85.422034 3337.801703 
L 87.076441 1921.411631 
L 88.730847 3337.801703 
L 90.385254 3337.801703 
L 92.039661 746.420426 
L 93.694068 1448.689355 
L 95.348475 827.026222 
L 97.002881 986.693093 
L 98.657288 3023.579888 
L 100.311695 2257.426581 
L 101.966102 3066.803429 
L 103.620508 3399.352795 
L 105.274915 2417.237258 
L 106.929322 1607.780945 
L 108.583729 2857.783202 
L 110.238136 2097.456941 
L 111.892542 1718.282624 
L 113.546949 1875.460591 
L 115.201356 1359.404921 
L 116.855763 2434.034072 
L 118.510169 1480.404329 
L 120.164576 1758.41329 
L 121.818983 3041.413853 
L 123.47339 1451.935698 
L 125.127797 3080.832522 
L 126.782203 4237.488059 
L 128.43661 4080.376637 
L 130.091017 3633.188808 
L 131.745424 3337.801703 
L 133.399831 2848.857822 
L 135.054237 3228.582431 
L 136.708644 2364.8841 
L 138.363051 2637.333547 
L 140.017458 4509.288418 
L 141.671864 3193.158354 
L 143.326271 694.007423 
L 144.980678 3366.150137 
L 146.635085 1993.51645 
L 148.289492 3076.722356 
L 149.943898 2628.800295 
L 151.598305 548.651751 
L 153.252712 1046.981053 
L 154.907119 1378.048997 
L 156.561525 2404.502779 
L 158.215932 2404.988041 
L 159.870339 2075.753329 
L 161.524746 3293.008056 
L 163.179153 2985.722998 
L 164.833559 3337.801703 
L 166.487966 1676.787423 
L 168.142373 1282.806259 
L 169.79678 1801.389822 
L 171.451186 913.701206 
L 173.105593 1595.85778 
L 174.76 1107.983989 
L 176.414407 3282.110729 
L 178.068814 1463.538025 
L 179.72322 1532.017143 
L 181.377627 2626.691217 
L 183.032034 2868.73532 
L 184.686441 2894.128171 
L 186.340847 2003.30399 
L 187.995254 1338.826043 
L 189.649661 2384.212343 
L 191.304068 2805.151481 
L 192.958475 1813.233281 
L 194.612881 2928.740205 
L 196.267288 1907.625011 
L 197.921695 1241.861647 
L 199.576102 2002.870548 
L 201.230508 2598.239001 
L 202.884915 3224.924742 
L 204.539322 552.605412 
L 206.193729 1166.866382 
L 207.848136 926.470362 
L 209.502542 1621.867027 
L 211.156949 1726.578545 
L 212.811356 1484.056509 
L 214.465763 2575.983606 
L 216.120169 2588.035241 
L 217.774576 2616.976545 
L 219.428983 1484.338433 
L 221.08339 1570.952068 
L 222.737797 656.67282 
L 224.392203 1064.34391 
L 226.04661 997.678793 
L 227.701017 2802.120557 
L 229.355424 2191.957539 
L 231.009831 4591.922332 
L 232.664237 2298.210854 
L 234.318644 1383.024972 
L 235.973051 1052.527938 
L 237.627458 2519.9146 
L 239.281864 1913.693459 
L 240.936271 2976.638096 
L 242.590678 3358.127726 
L 244.245085 1484.0843 
L 245.899492 1468.82065 
L 247.553898 2003.144647 
L 249.208305 2265.858103 
L 250.862712 2703.800787 
L 252.517119 1810.784766 
L 254.171525 3291.609824 
L 255.825932 1834.720284 
L 257.480339 3385.891443 
L 259.134746 2994.877357 
L 260.789153 854.533486 
L 262.443559 1764.137364 
L 264.097966 1653.804468 
L 265.752373 2023.439692 
L 267.40678 3456.515589 
L 269.061186 2205.036299 
L 270.715593 1050.407422 
L 272.37 1994.94346 
L 274.024407 3034.840293 
L 275.678814 2969.659956 
L 277.33322 754.330278 
L 278.987627 3445.391039 
L 280.642034 2519.131488 
L 282.296441 533.289907 
L 283.950847 2354.366251 
L 285.605254 1752.159727 
L 287.259661 1887.870645 
L 288.914068 2408.946847 
L 290.568475 3452.592723 
L 292.222881 3414.027797 
L 293.877288 3346.667179 
L 295.531695 1346.983099 
L 297.186102 2042.808521 
L 298.840508 1796.171893 
L 300.494915 614.70914 
L 302.149322 3331.092007 
L 303.803729 2287.846657 
L 305.458136 1896.623031 
L 307.112542 2895.477607 
L 308.766949 1480.522081 
L 310.421356 2197.704071 
L 312.075763 1337.693096 
L 313.730169 1585.943268 
L 315.384576 2234.485897 
L 317.038983 2885.147691 
L 318.69339 1408.343192 
L 320.347797 606.081996 
L 322.002203 1466.679709 
L 323.65661 2341.666099 
L 325.311017 1944.381551 
L 326.965424 1254.592394 
L 328.619831 2124.366699 
L 330.274237 2219.810409 
L 331.928644 2134.833053 
L 333.583051 1783.292471 
L 335.237458 3063.648048 
L 336.891864 1302.016168 
L 338.546271 3380.705691 
L 340.200678 2546.85336 
L 341.855085 1172.608775 
L 343.509492 2260.782165 
L 345.163898 2175.462254 
L 346.818305 3095.757878 
L 348.472712 2106.173222 
L 350.127119 1299.039804 
L 351.781525 2552.169734 
L 353.435932 1073.294085 
L 355.090339 1573.693532 
L 356.744746 2269.197302 
L 358.399153 1803.623831 
L 360.053559 2501.088729 
L 361.707966 2203.93647 
L 363.362373 2815.547728 
L 365.01678 3105.141463 
L 366.671186 2725.752688 
L 368.325593 3376.313622 
L 369.98 3258.775623 
L 371.634407 2381.708054 
L 373.288814 1790.022048 
L 374.94322 1654.766785 
L 376.597627 1639.773654 
L 378.252034 1627.040174 
L 379.906441 784.773779 
L 381.560847 520.260638 
L 383.215254 1268.102448 
L 384.869661 980.814716 
L 386.524068 1594.575143 
L 388.178475 2371.582452 
L 389.832881 2378.757257 
L 391.487288 2139.07222 
L 393.141695 1518.05074 
L 394.796102 3109.060647 
L 396.450508 3325.71087 
L 398.104915 2059.652804 
L 399.759322 1813.66381 
L 401.413729 2033.777731 
L 403.068136 1740.787975 
L 404.722542 2095.438824 
L 406.376949 1904.848065 
L 408.031356 2810.358697 
L 409.685763 1712.618244 
L 411.340169 1981.705108 
L 412.994576 3337.801703 
L 414.648983 3171.27883 
L 416.30339 2585.434584 
L 417.957797 2951.356832 
L 419.612203 1759.981527 
L 421.26661 3204.856547 
L 422.921017 3560.393691 
L 424.575424 2500.978884 
L 426.229831 1511.400664 
L 427.884237 1073.183056 
L 429.538644 1356.630556 
L 431.193051 503.129387 
L 432.847458 511.89178 
L 434.501864 2424.763134 
L 436.156271 2858.072533 
L 437.810678 1128.356842 
L 439.465085 3389.772135 
L 441.119492 3337.801703 
L 442.773898 528.096196 
L 444.428305 331.632674 
L 446.082712 318.01874 
L 447.737119 254.766074 
L 449.391525 236.670996 
L 451.045932 272.420655 
L 452.700339 393.708014 
L 454.354746 269.71749 
L 456.009153 230.904746 
L 457.663559 310.242336 
L 459.317966 295.147785 
L 460.972373 1078.117175 
L 462.62678 430.965039 
L 464.281186 345.568164 
L 465.935593 368.147371 
L 467.59 324.586601 
L 469.244407 267.485938 
L 470.898814 277.322135 
L 472.55322 193.537159 
L 474.207627 286.74366 
L 475.862034 440.666079 
L 477.516441 551.487777 
L 479.170847 412.167243 
L 480.825254 705.43362 
L 482.479661 251.849846 
L 484.134068 439.189565 
L 485.788475 834.509202 
L 487.442881 321.661927 
L 489.097288 1108.573667 
L 490.751695 527.053578 
L 492.406102 315.937092 
L 494.060508 379.745089 
L 495.714915 596.686077 
L 497.369322 669.206711 
L 499.023729 458.278429 
L 500.678136 259.732885 
L 502.332542 639.405389 
L 503.986949 899.010285 
L 505.641356 371.935399 
L 507.295763 335.227019 
L 508.950169 855.228161 
L 510.604576 1249.409681 
L 512.258983 828.561288 
L 513.91339 1034.509589 
L 515.567797 914.694078 
L 517.222203 2571.670388 
L 518.87661 1340.294001 
L 520.531017 662.383828 
L 522.185424 1578.647323 
L 523.839831 1089.219233 
L 525.494237 951.271063 
L 527.148644 1284.349414 
L 528.803051 836.207949 
L 530.457458 2023.587148 
L 532.111864 902.680231 
L 533.766271 1542.94269 
L 535.420678 1311.80777 
L 537.075085 1313.084664 
L 538.729492 1854.75233 
L 540.383898 1553.567974 
L 542.038305 2291.467871 
L 543.692712 2516.582563 
L 545.347119 2861.370583 
L 547.001525 2018.971783 
L 548.655932 2331.175381 
L 550.310339 2624.113737 
L 551.964746 2899.662405 
L 553.619153 4309.752349 
L 555.273559 3606.87238 
L 556.927966 3357.820376 
L 558.582373 2717.820262 
L 560.23678 2579.46884 
L 561.891186 3094.341453 
L 563.545593 3307.836228 
L 565.2 6164.327571 
L 565.2 4050.182904 
L 565.2 4050.182904 
L 563.545593 1698.240271 
L 561.891186 2374.420203 
L 560.23678 1595.504609 
L 558.582373 1550.12648 
L 556.927966 2564.39192 
L 555.273559 2460.310631 
L 553.619153 3813.217722 
L 551.964746 2111.187166 
L 550.310339 2000.066996 
L 548.655932 1752.661527 
L 547.001525 1333.340889 
L 545.347119 2299.666881 
L 543.692712 1650.80187 
L 542.038305 1507.743182 
L 540.383898 731.839259 
L 538.729492 1385.349472 
L 537.075085 654.645689 
L 535.420678 870.703668 
L 533.766271 1060.280275 
L 532.111864 333.763339 
L 530.457458 1248.000382 
L 528.803051 450.726512 
L 527.148644 596.468676 
L 525.494237 635.168152 
L 523.839831 678.306396 
L 522.185424 1084.161529 
L 520.531017 520.07716 
L 518.87661 953.159751 
L 517.222203 107.592075 
L 515.567797 631.053097 
L 513.91339 624.921776 
L 512.258983 566.566433 
L 510.604576 805.888592 
L 508.950169 398.427677 
L 507.295763 246.675696 
L 505.641356 203.585564 
L 503.986949 632.518 
L 502.332542 407.200823 
L 500.678136 133.198089 
L 499.023729 332.35195 
L 497.369322 444.050568 
L 495.714915 361.40018 
L 494.060508 256.191125 
L 492.406102 198.354757 
L 490.751695 336.722399 
L 489.097288 854.409327 
L 487.442881 145.648962 
L 485.788475 592.63404 
L 484.134068 224.457726 
L 482.479661 181.089721 
L 480.825254 533.899754 
L 479.170847 212.802681 
L 477.516441 373.231611 
L 475.862034 304.128283 
L 474.207627 219.201273 
L 472.55322 26.88 
L 470.898814 188.788931 
L 469.244407 187.885842 
L 467.59 253.009685 
L 465.935593 249.757026 
L 464.281186 259.961512 
L 462.62678 250.907625 
L 460.972373 668.544231 
L 459.317966 120.798044 
L 457.663559 206.993507 
L 456.009153 154.590732 
L 454.354746 211.48507 
L 452.700339 304.413761 
L 451.045932 208.605507 
L 449.391525 172.37138 
L 447.737119 194.218684 
L 446.082712 250.949547 
L 444.428305 147.921473 
L 442.773898 123.552017 
L 441.119492 3337.801703 
L 439.465085 3245.035621 
L 437.810678 482.48917 
L 436.156271 2444.723044 
L 434.501864 1935.388002 
L 432.847458 275.103107 
L 431.193051 168.54871 
L 429.538644 904.388185 
L 427.884237 653.870062 
L 426.229831 640.396773 
L 424.575424 1777.040562 
L 422.921017 2041.15583 
L 421.26661 2856.134827 
L 419.612203 1035.213568 
L 417.957797 2479.375883 
L 416.30339 1990.669209 
L 414.648983 2758.355188 
L 412.994576 3337.801703 
L 411.340169 1425.428914 
L 409.685763 1290.03081 
L 408.031356 2181.620696 
L 406.376949 1456.248384 
L 404.722542 1277.586547 
L 403.068136 961.275416 
L 401.413729 1463.434738 
L 399.759322 1247.634867 
L 398.104915 1212.172244 
L 396.450508 1766.086449 
L 394.796102 2577.176397 
L 393.141695 875.67394 
L 391.487288 1514.666103 
L 389.832881 1732.790914 
L 388.178475 1827.718161 
L 386.524068 1012.454448 
L 384.869661 158.771863 
L 383.215254 773.931814 
L 381.560847 277.504096 
L 379.906441 321.5521 
L 378.252034 1087.59767 
L 376.597627 1289.971013 
L 374.94322 1118.326139 
L 373.288814 1214.570693 
L 371.634407 1521.939633 
L 369.98 2664.29968 
L 368.325593 2839.3215 
L 366.671186 1989.263454 
L 365.01678 2431.323185 
L 363.362373 2081.21222 
L 361.707966 1644.543285 
L 360.053559 1828.978059 
L 358.399153 1230.864205 
L 356.744746 1622.559858 
L 355.090339 1031.241866 
L 353.435932 688.656662 
L 351.781525 1880.020513 
L 350.127119 656.551536 
L 348.472712 1107.951518 
L 346.818305 2011.751699 
L 345.163898 1475.278054 
L 343.509492 1624.523068 
L 341.855085 511.596061 
L 340.200678 1815.713095 
L 338.546271 2789.266341 
L 336.891864 903.105092 
L 335.237458 2509.294205 
L 333.583051 857.605452 
L 331.928644 1389.93282 
L 330.274237 1824.03 
L 328.619831 1327.14277 
L 326.965424 773.15762 
L 325.311017 1184.068271 
L 323.65661 1833.005412 
L 322.002203 910.682022 
L 320.347797 286.238403 
L 318.69339 979.285095 
L 317.038983 2062.939545 
L 315.384576 1714.330768 
L 313.730169 1007.263219 
L 312.075763 847.499772 
L 310.421356 1778.547323 
L 308.766949 892.129073 
L 307.112542 2017.073113 
L 305.458136 1190.777935 
L 303.803729 1604.495953 
L 302.149322 2841.374883 
L 300.494915 378.939281 
L 298.840508 701.230799 
L 297.186102 1257.36347 
L 295.531695 814.810499 
L 293.877288 2650.863888 
L 292.222881 2846.407705 
L 290.568475 3320.00375 
L 288.914068 1844.689557 
L 287.259661 1254.140129 
L 285.605254 1160.696757 
L 283.950847 1529.999026 
L 282.296441 356.872578 
L 280.642034 1959.911179 
L 278.987627 2911.7144 
L 277.33322 286.712226 
L 275.678814 2325.761351 
L 274.024407 1574.129674 
L 272.37 1154.758788 
L 270.715593 713.15863 
L 269.061186 1525.178556 
L 267.40678 2616.867081 
L 265.752373 1355.037549 
L 264.097966 1133.459725 
L 262.443559 876.107344 
L 260.789153 475.730719 
L 259.134746 1140.582099 
L 257.480339 3321.595087 
L 255.825932 1131.217658 
L 254.171525 2864.173582 
L 252.517119 1272.249934 
L 250.862712 1747.676284 
L 249.208305 1390.352042 
L 247.553898 1462.448935 
L 245.899492 1030.561935 
L 244.245085 748.612241 
L 242.590678 2340.960932 
L 240.936271 2584.378104 
L 239.281864 1057.46606 
L 237.627458 1661.265849 
L 235.973051 419.855617 
L 234.318644 933.954017 
L 232.664237 1730.563914 
L 231.009831 3868.416402 
L 229.355424 1392.933156 
L 227.701017 2265.097686 
L 226.04661 639.514074 
L 224.392203 413.668843 
L 222.737797 449.310862 
L 221.08339 1062.256186 
L 219.428983 897.823583 
L 217.774576 1801.533445 
L 216.120169 1911.426563 
L 214.465763 1839.787851 
L 212.811356 1191.274873 
L 211.156949 672.093136 
L 209.502542 1228.854301 
L 207.848136 446.362268 
L 206.193729 711.662868 
L 204.539322 114.151027 
L 202.884915 2692.232626 
L 201.230508 1938.020152 
L 199.576102 1381.784308 
L 197.921695 914.957164 
L 196.267288 1160.270196 
L 194.612881 2404.274095 
L 192.958475 1170.006326 
L 191.304068 1863.836972 
L 189.649661 1620.563277 
L 187.995254 549.819377 
L 186.340847 953.245547 
L 184.686441 2095.512041 
L 183.032034 2296.461385 
L 181.377627 1947.382853 
L 179.72322 1004.049421 
L 178.068814 967.731306 
L 176.414407 2474.615381 
L 174.76 867.996336 
L 173.105593 1028.513824 
L 171.451186 562.65944 
L 169.79678 1047.957177 
L 168.142373 710.418442 
L 166.487966 1074.192379 
L 164.833559 3337.801703 
L 163.179153 2026.455053 
L 161.524746 2467.829408 
L 159.870339 1499.990283 
L 158.215932 1499.787278 
L 156.561525 1791.445059 
L 154.907119 716.234066 
L 153.252712 499.777195 
L 151.598305 366.589601 
L 149.943898 1621.781967 
L 148.289492 2690.914062 
L 146.635085 1313.186523 
L 144.980678 2689.795684 
L 143.326271 155.716159 
L 141.671864 2583.433501 
L 140.017458 3970.071617 
L 138.363051 2079.096411 
L 136.708644 1689.246761 
L 135.054237 2864.871258 
L 133.399831 1638.555387 
L 131.745424 3337.801703 
L 130.091017 3342.278293 
L 128.43661 3379.679381 
L 126.782203 2877.198824 
L 125.127797 2700.001716 
L 123.47339 926.34296 
L 121.818983 2469.833284 
L 120.164576 1293.209278 
L 118.510169 1029.225702 
L 116.855763 1026.328075 
L 115.201356 848.405978 
L 113.546949 1079.942534 
L 111.892542 1218.090953 
L 110.238136 971.971127 
L 108.583729 2168.335824 
L 106.929322 446.649989 
L 105.274915 1906.513247 
L 103.620508 3338.191282 
L 101.966102 2427.77091 
L 100.311695 1718.204324 
L 98.657288 2375.798619 
L 97.002881 468.375379 
L 95.348475 591.457953 
L 93.694068 792.502904 
L 92.039661 446.976997 
L 90.385254 3337.801703 
L 88.730847 3337.801703 
L 87.076441 1417.548669 
L 85.422034 3337.801703 
L 83.767627 3337.801703 
L 82.11322 1873.494383 
L 80.458814 584.752056 
L 78.804407 285.166176 
L 77.15 3337.801703 
z
" style="fill:#0000ff;fill-opacity:0.3;stroke:#0000ff;stroke-opacity:0.3;"/>
   </g>
   <g id="matplotlib.axis_1">
    <g id="xtick_1">
     <g id="line2d_1">
      <defs>
       <path d="M 0 0 
L 0 3.5 
" id="ma66ef0329a" style="stroke:#000000;stroke-width:0.8;"/>
      </defs>
      <g>
       <use style="stroke:#000000;stroke-width:0.8;" x="156.478805" xlink:href="#ma66ef0329a" y="174.76"/>
      </g>
     </g>
     <g id="text_1">
      <!-- 0.0 -->
      <defs>
       <path d="M 31.78125 66.40625 
Q 24.171875 66.40625 20.328125 58.90625 
Q 16.5 51.421875 16.5 36.375 
Q 16.5 21.390625 20.328125 13.890625 
Q 24.171875 6.390625 31.78125 6.390625 
Q 39.453125 6.390625 43.28125 13.890625 
Q 47.125 21.390625 47.125 36.375 
Q 47.125 51.421875 43.28125 58.90625 
Q 39.453125 66.40625 31.78125 66.40625 
z
M 31.78125 74.21875 
Q 44.046875 74.21875 50.515625 64.515625 
Q 56.984375 54.828125 56.984375 36.375 
Q 56.984375 17.96875 50.515625 8.265625 
Q 44.046875 -1.421875 31.78125 -1.421875 
Q 19.53125 -1.421875 13.0625 8.265625 
Q 6.59375 17.96875 6.59375 36.375 
Q 6.59375 54.828125 13.0625 64.515625 
Q 19.53125 74.21875 31.78125 74.21875 
z
" id="DejaVuSans-48"/>
       <path d="M 10.6875 12.40625 
L 21 12.40625 
L 21 0 
L 10.6875 0 
z
" id="DejaVuSans-46"/>
      </defs>
      <g transform="translate(146.93693 190.878125)scale(0.12 -0.12)">
       <use xlink:href="#DejaVuSans-48"/>
       <use x="63.623047" xlink:href="#DejaVuSans-46"/>
       <use x="95.410156" xlink:href="#DejaVuSans-48"/>
      </g>
     </g>
    </g>
    <g id="xtick_2">
     <g id="line2d_2">
      <g>
       <use style="stroke:#000000;stroke-width:0.8;" x="239.199144" xlink:href="#ma66ef0329a" y="174.76"/>
      </g>
     </g>
     <g id="text_2">
      <!-- 0.5 -->
      <defs>
       <path d="M 10.796875 72.90625 
L 49.515625 72.90625 
L 49.515625 64.59375 
L 19.828125 64.59375 
L 19.828125 46.734375 
Q 21.96875 47.46875 24.109375 47.828125 
Q 26.265625 48.1875 28.421875 48.1875 
Q 40.625 48.1875 47.75 41.5 
Q 54.890625 34.8125 54.890625 23.390625 
Q 54.890625 11.625 47.5625 5.09375 
Q 40.234375 -1.421875 26.90625 -1.421875 
Q 22.3125 -1.421875 17.546875 -0.640625 
Q 12.796875 0.140625 7.71875 1.703125 
L 7.71875 11.625 
Q 12.109375 9.234375 16.796875 8.0625 
Q 21.484375 6.890625 26.703125 6.890625 
Q 35.15625 6.890625 40.078125 11.328125 
Q 45.015625 15.765625 45.015625 23.390625 
Q 45.015625 31 40.078125 35.4375 
Q 35.15625 39.890625 26.703125 39.890625 
Q 22.75 39.890625 18.8125 39.015625 
Q 14.890625 38.140625 10.796875 36.28125 
z
" id="DejaVuSans-53"/>
      </defs>
      <g transform="translate(229.657269 190.878125)scale(0.12 -0.12)">
       <use xlink:href="#DejaVuSans-48"/>
       <use x="63.623047" xlink:href="#DejaVuSans-46"/>
       <use x="95.410156" xlink:href="#DejaVuSans-53"/>
      </g>
     </g>
    </g>
    <g id="xtick_3">
     <g id="line2d_3">
      <g>
       <use style="stroke:#000000;stroke-width:0.8;" x="321.919483" xlink:href="#ma66ef0329a" y="174.76"/>
      </g>
     </g>
     <g id="text_3">
      <!-- 1.0 -->
      <defs>
       <path d="M 12.40625 8.296875 
L 28.515625 8.296875 
L 28.515625 63.921875 
L 10.984375 60.40625 
L 10.984375 69.390625 
L 28.421875 72.90625 
L 38.28125 72.90625 
L 38.28125 8.296875 
L 54.390625 8.296875 
L 54.390625 0 
L 12.40625 0 
z
" id="DejaVuSans-49"/>
      </defs>
      <g transform="translate(312.377608 190.878125)scale(0.12 -0.12)">
       <use xlink:href="#DejaVuSans-49"/>
       <use x="63.623047" xlink:href="#DejaVuSans-46"/>
       <use x="95.410156" xlink:href="#DejaVuSans-48"/>
      </g>
     </g>
    </g>
    <g id="xtick_4">
     <g id="line2d_4">
      <g>
       <use style="stroke:#000000;stroke-width:0.8;" x="404.639822" xlink:href="#ma66ef0329a" y="174.76"/>
      </g>
     </g>
     <g id="text_4">
      <!-- 1.5 -->
      <g transform="translate(395.097947 190.878125)scale(0.12 -0.12)">
       <use xlink:href="#DejaVuSans-49"/>
       <use x="63.623047" xlink:href="#DejaVuSans-46"/>
       <use x="95.410156" xlink:href="#DejaVuSans-53"/>
      </g>
     </g>
    </g>
    <g id="xtick_5">
     <g id="line2d_5">
      <g>
       <use style="stroke:#000000;stroke-width:0.8;" x="487.360161" xlink:href="#ma66ef0329a" y="174.76"/>
      </g>
     </g>
     <g id="text_5">
      <!-- 2.0 -->
      <defs>
       <path d="M 19.1875 8.296875 
L 53.609375 8.296875 
L 53.609375 0 
L 7.328125 0 
L 7.328125 8.296875 
Q 12.9375 14.109375 22.625 23.890625 
Q 32.328125 33.6875 34.8125 36.53125 
Q 39.546875 41.84375 41.421875 45.53125 
Q 43.3125 49.21875 43.3125 52.78125 
Q 43.3125 58.59375 39.234375 62.25 
Q 35.15625 65.921875 28.609375 65.921875 
Q 23.96875 65.921875 18.8125 64.3125 
Q 13.671875 62.703125 7.8125 59.421875 
L 7.8125 69.390625 
Q 13.765625 71.78125 18.9375 73 
Q 24.125 74.21875 28.421875 74.21875 
Q 39.75 74.21875 46.484375 68.546875 
Q 53.21875 62.890625 53.21875 53.421875 
Q 53.21875 48.921875 51.53125 44.890625 
Q 49.859375 40.875 45.40625 35.40625 
Q 44.1875 33.984375 37.640625 27.21875 
Q 31.109375 20.453125 19.1875 8.296875 
z
" id="DejaVuSans-50"/>
      </defs>
      <g transform="translate(477.818286 190.878125)scale(0.12 -0.12)">
       <use xlink:href="#DejaVuSans-50"/>
       <use x="63.623047" xlink:href="#DejaVuSans-46"/>
       <use x="95.410156" xlink:href="#DejaVuSans-48"/>
      </g>
     </g>
    </g>
    <g id="text_6">
     <!-- Time (s) -->
     <defs>
      <path d="M -0.296875 72.90625 
L 61.375 72.90625 
L 61.375 64.59375 
L 35.5 64.59375 
L 35.5 0 
L 25.59375 0 
L 25.59375 64.59375 
L -0.296875 64.59375 
z
" id="DejaVuSans-84"/>
      <path d="M 9.421875 54.6875 
L 18.40625 54.6875 
L 18.40625 0 
L 9.421875 0 
z
M 9.421875 75.984375 
L 18.40625 75.984375 
L 18.40625 64.59375 
L 9.421875 64.59375 
z
" id="DejaVuSans-105"/>
      <path d="M 52 44.1875 
Q 55.375 50.25 60.0625 53.125 
Q 64.75 56 71.09375 56 
Q 79.640625 56 84.28125 50.015625 
Q 88.921875 44.046875 88.921875 33.015625 
L 88.921875 0 
L 79.890625 0 
L 79.890625 32.71875 
Q 79.890625 40.578125 77.09375 44.375 
Q 74.3125 48.1875 68.609375 48.1875 
Q 61.625 48.1875 57.5625 43.546875 
Q 53.515625 38.921875 53.515625 30.90625 
L 53.515625 0 
L 44.484375 0 
L 44.484375 32.71875 
Q 44.484375 40.625 41.703125 44.40625 
Q 38.921875 48.1875 33.109375 48.1875 
Q 26.21875 48.1875 22.15625 43.53125 
Q 18.109375 38.875 18.109375 30.90625 
L 18.109375 0 
L 9.078125 0 
L 9.078125 54.6875 
L 18.109375 54.6875 
L 18.109375 46.1875 
Q 21.1875 51.21875 25.484375 53.609375 
Q 29.78125 56 35.6875 56 
Q 41.65625 56 45.828125 52.96875 
Q 50 49.953125 52 44.1875 
z
" id="DejaVuSans-109"/>
      <path d="M 56.203125 29.59375 
L 56.203125 25.203125 
L 14.890625 25.203125 
Q 15.484375 15.921875 20.484375 11.0625 
Q 25.484375 6.203125 34.421875 6.203125 
Q 39.59375 6.203125 44.453125 7.46875 
Q 49.3125 8.734375 54.109375 11.28125 
L 54.109375 2.78125 
Q 49.265625 0.734375 44.1875 -0.34375 
Q 39.109375 -1.421875 33.890625 -1.421875 
Q 20.796875 -1.421875 13.15625 6.1875 
Q 5.515625 13.8125 5.515625 26.8125 
Q 5.515625 40.234375 12.765625 48.109375 
Q 20.015625 56 32.328125 56 
Q 43.359375 56 49.78125 48.890625 
Q 56.203125 41.796875 56.203125 29.59375 
z
M 47.21875 32.234375 
Q 47.125 39.59375 43.09375 43.984375 
Q 39.0625 48.390625 32.421875 48.390625 
Q 24.90625 48.390625 20.390625 44.140625 
Q 15.875 39.890625 15.1875 32.171875 
z
" id="DejaVuSans-101"/>
      <path id="DejaVuSans-32"/>
      <path d="M 31 75.875 
Q 24.46875 64.65625 21.28125 53.65625 
Q 18.109375 42.671875 18.109375 31.390625 
Q 18.109375 20.125 21.3125 9.0625 
Q 24.515625 -2 31 -13.1875 
L 23.1875 -13.1875 
Q 15.875 -1.703125 12.234375 9.375 
Q 8.59375 20.453125 8.59375 31.390625 
Q 8.59375 42.28125 12.203125 53.3125 
Q 15.828125 64.359375 23.1875 75.875 
z
" id="DejaVuSans-40"/>
      <path d="M 44.28125 53.078125 
L 44.28125 44.578125 
Q 40.484375 46.53125 36.375 47.5 
Q 32.28125 48.484375 27.875 48.484375 
Q 21.1875 48.484375 17.84375 46.4375 
Q 14.5 44.390625 14.5 40.28125 
Q 14.5 37.15625 16.890625 35.375 
Q 19.28125 33.59375 26.515625 31.984375 
L 29.59375 31.296875 
Q 39.15625 29.25 43.1875 25.515625 
Q 47.21875 21.78125 47.21875 15.09375 
Q 47.21875 7.46875 41.1875 3.015625 
Q 35.15625 -1.421875 24.609375 -1.421875 
Q 20.21875 -1.421875 15.453125 -0.5625 
Q 10.6875 0.296875 5.421875 2 
L 5.421875 11.28125 
Q 10.40625 8.6875 15.234375 7.390625 
Q 20.0625 6.109375 24.8125 6.109375 
Q 31.15625 6.109375 34.5625 8.28125 
Q 37.984375 10.453125 37.984375 14.40625 
Q 37.984375 18.0625 35.515625 20.015625 
Q 33.0625 21.96875 24.703125 23.78125 
L 21.578125 24.515625 
Q 13.234375 26.265625 9.515625 29.90625 
Q 5.8125 33.546875 5.8125 39.890625 
Q 5.8125 47.609375 11.28125 51.796875 
Q 16.75 56 26.8125 56 
Q 31.78125 56 36.171875 55.265625 
Q 40.578125 54.546875 44.28125 53.078125 
z
" id="DejaVuSans-115"/>
      <path d="M 8.015625 75.875 
L 15.828125 75.875 
Q 23.140625 64.359375 26.78125 53.3125 
Q 30.421875 42.28125 30.421875 31.390625 
Q 30.421875 20.453125 26.78125 9.375 
Q 23.140625 -1.703125 15.828125 -13.1875 
L 8.015625 -13.1875 
Q 14.5 -2 17.703125 9.0625 
Q 20.90625 20.125 20.90625 31.390625 
Q 20.90625 42.671875 17.703125 53.65625 
Q 14.5 64.65625 8.015625 75.875 
z
" id="DejaVuSans-41"/>
     </defs>
     <g transform="translate(291.67975 208.3155)scale(0.144 -0.144)">
      <use xlink:href="#DejaVuSans-84"/>
      <use x="61.037109" xlink:href="#DejaVuSans-105"/>
      <use x="88.820312" xlink:href="#DejaVuSans-109"/>
      <use x="186.232422" xlink:href="#DejaVuSans-101"/>
      <use x="247.755859" xlink:href="#DejaVuSans-32"/>
      <use x="279.542969" xlink:href="#DejaVuSans-40"/>
      <use x="318.556641" xlink:href="#DejaVuSans-115"/>
      <use x="370.65625" xlink:href="#DejaVuSans-41"/>
     </g>
    </g>
   </g>
   <g id="matplotlib.axis_2">
    <g id="ytick_1">
     <g id="line2d_6">
      <defs>
       <path d="M 0 0 
L -3.5 0 
" id="m3c61bc4f20" style="stroke:#000000;stroke-width:0.8;"/>
      </defs>
      <g>
       <use style="stroke:#000000;stroke-width:0.8;" x="77.15" xlink:href="#m3c61bc4f20" y="174.76"/>
      </g>
     </g>
     <g id="text_7">
      <!-- 0.0000 -->
      <g transform="translate(28.16125 179.319062)scale(0.12 -0.12)">
       <use xlink:href="#DejaVuSans-48"/>
       <use x="63.623047" xlink:href="#DejaVuSans-46"/>
       <use x="95.410156" xlink:href="#DejaVuSans-48"/>
       <use x="159.033203" xlink:href="#DejaVuSans-48"/>
       <use x="222.65625" xlink:href="#DejaVuSans-48"/>
       <use x="286.279297" xlink:href="#DejaVuSans-48"/>
      </g>
     </g>
    </g>
    <g id="ytick_2">
     <g id="line2d_7">
      <g>
       <use style="stroke:#000000;stroke-width:0.8;" x="77.15" xlink:href="#m3c61bc4f20" y="143.445887"/>
      </g>
     </g>
     <g id="text_8">
      <!-- 0.0001 -->
      <g transform="translate(28.16125 148.00495)scale(0.12 -0.12)">
       <use xlink:href="#DejaVuSans-48"/>
       <use x="63.623047" xlink:href="#DejaVuSans-46"/>
       <use x="95.410156" xlink:href="#DejaVuSans-48"/>
       <use x="159.033203" xlink:href="#DejaVuSans-48"/>
       <use x="222.65625" xlink:href="#DejaVuSans-48"/>
       <use x="286.279297" xlink:href="#DejaVuSans-49"/>
      </g>
     </g>
    </g>
    <g id="ytick_3">
     <g id="line2d_8">
      <g>
       <use style="stroke:#000000;stroke-width:0.8;" x="77.15" xlink:href="#m3c61bc4f20" y="112.131774"/>
      </g>
     </g>
     <g id="text_9">
      <!-- 0.0002 -->
      <g transform="translate(28.16125 116.690837)scale(0.12 -0.12)">
       <use xlink:href="#DejaVuSans-48"/>
       <use x="63.623047" xlink:href="#DejaVuSans-46"/>
       <use x="95.410156" xlink:href="#DejaVuSans-48"/>
       <use x="159.033203" xlink:href="#DejaVuSans-48"/>
       <use x="222.65625" xlink:href="#DejaVuSans-48"/>
       <use x="286.279297" xlink:href="#DejaVuSans-50"/>
      </g>
     </g>
    </g>
    <g id="ytick_4">
     <g id="line2d_9">
      <g>
       <use style="stroke:#000000;stroke-width:0.8;" x="77.15" xlink:href="#m3c61bc4f20" y="80.817661"/>
      </g>
     </g>
     <g id="text_10">
      <!-- 0.0003 -->
      <defs>
       <path d="M 40.578125 39.3125 
Q 47.65625 37.796875 51.625 33 
Q 55.609375 28.21875 55.609375 21.1875 
Q 55.609375 10.40625 48.1875 4.484375 
Q 40.765625 -1.421875 27.09375 -1.421875 
Q 22.515625 -1.421875 17.65625 -0.515625 
Q 12.796875 0.390625 7.625 2.203125 
L 7.625 11.71875 
Q 11.71875 9.328125 16.59375 8.109375 
Q 21.484375 6.890625 26.8125 6.890625 
Q 36.078125 6.890625 40.9375 10.546875 
Q 45.796875 14.203125 45.796875 21.1875 
Q 45.796875 27.640625 41.28125 31.265625 
Q 36.765625 34.90625 28.71875 34.90625 
L 20.21875 34.90625 
L 20.21875 43.015625 
L 29.109375 43.015625 
Q 36.375 43.015625 40.234375 45.921875 
Q 44.09375 48.828125 44.09375 54.296875 
Q 44.09375 59.90625 40.109375 62.90625 
Q 36.140625 65.921875 28.71875 65.921875 
Q 24.65625 65.921875 20.015625 65.03125 
Q 15.375 64.15625 9.8125 62.3125 
L 9.8125 71.09375 
Q 15.4375 72.65625 20.34375 73.4375 
Q 25.25 74.21875 29.59375 74.21875 
Q 40.828125 74.21875 47.359375 69.109375 
Q 53.90625 64.015625 53.90625 55.328125 
Q 53.90625 49.265625 50.4375 45.09375 
Q 46.96875 40.921875 40.578125 39.3125 
z
" id="DejaVuSans-51"/>
      </defs>
      <g transform="translate(28.16125 85.376724)scale(0.12 -0.12)">
       <use xlink:href="#DejaVuSans-48"/>
       <use x="63.623047" xlink:href="#DejaVuSans-46"/>
       <use x="95.410156" xlink:href="#DejaVuSans-48"/>
       <use x="159.033203" xlink:href="#DejaVuSans-48"/>
       <use x="222.65625" xlink:href="#DejaVuSans-48"/>
       <use x="286.279297" xlink:href="#DejaVuSans-51"/>
      </g>
     </g>
    </g>
    <g id="ytick_5">
     <g id="line2d_10">
      <g>
       <use style="stroke:#000000;stroke-width:0.8;" x="77.15" xlink:href="#m3c61bc4f20" y="49.503549"/>
      </g>
     </g>
     <g id="text_11">
      <!-- 0.0004 -->
      <defs>
       <path d="M 37.796875 64.3125 
L 12.890625 25.390625 
L 37.796875 25.390625 
z
M 35.203125 72.90625 
L 47.609375 72.90625 
L 47.609375 25.390625 
L 58.015625 25.390625 
L 58.015625 17.1875 
L 47.609375 17.1875 
L 47.609375 0 
L 37.796875 0 
L 37.796875 17.1875 
L 4.890625 17.1875 
L 4.890625 26.703125 
z
" id="DejaVuSans-52"/>
      </defs>
      <g transform="translate(28.16125 54.062611)scale(0.12 -0.12)">
       <use xlink:href="#DejaVuSans-48"/>
       <use x="63.623047" xlink:href="#DejaVuSans-46"/>
       <use x="95.410156" xlink:href="#DejaVuSans-48"/>
       <use x="159.033203" xlink:href="#DejaVuSans-48"/>
       <use x="222.65625" xlink:href="#DejaVuSans-48"/>
       <use x="286.279297" xlink:href="#DejaVuSans-52"/>
      </g>
     </g>
    </g>
    <g id="text_12">
     <!-- Avg. Corr. Coef. -->
     <defs>
      <path d="M 34.1875 63.1875 
L 20.796875 26.90625 
L 47.609375 26.90625 
z
M 28.609375 72.90625 
L 39.796875 72.90625 
L 67.578125 0 
L 57.328125 0 
L 50.6875 18.703125 
L 17.828125 18.703125 
L 11.1875 0 
L 0.78125 0 
z
" id="DejaVuSans-65"/>
      <path d="M 2.984375 54.6875 
L 12.5 54.6875 
L 29.59375 8.796875 
L 46.6875 54.6875 
L 56.203125 54.6875 
L 35.6875 0 
L 23.484375 0 
z
" id="DejaVuSans-118"/>
      <path d="M 45.40625 27.984375 
Q 45.40625 37.75 41.375 43.109375 
Q 37.359375 48.484375 30.078125 48.484375 
Q 22.859375 48.484375 18.828125 43.109375 
Q 14.796875 37.75 14.796875 27.984375 
Q 14.796875 18.265625 18.828125 12.890625 
Q 22.859375 7.515625 30.078125 7.515625 
Q 37.359375 7.515625 41.375 12.890625 
Q 45.40625 18.265625 45.40625 27.984375 
z
M 54.390625 6.78125 
Q 54.390625 -7.171875 48.1875 -13.984375 
Q 42 -20.796875 29.203125 -20.796875 
Q 24.46875 -20.796875 20.265625 -20.09375 
Q 16.0625 -19.390625 12.109375 -17.921875 
L 12.109375 -9.1875 
Q 16.0625 -11.328125 19.921875 -12.34375 
Q 23.78125 -13.375 27.78125 -13.375 
Q 36.625 -13.375 41.015625 -8.765625 
Q 45.40625 -4.15625 45.40625 5.171875 
L 45.40625 9.625 
Q 42.625 4.78125 38.28125 2.390625 
Q 33.9375 0 27.875 0 
Q 17.828125 0 11.671875 7.65625 
Q 5.515625 15.328125 5.515625 27.984375 
Q 5.515625 40.671875 11.671875 48.328125 
Q 17.828125 56 27.875 56 
Q 33.9375 56 38.28125 53.609375 
Q 42.625 51.21875 45.40625 46.390625 
L 45.40625 54.6875 
L 54.390625 54.6875 
z
" id="DejaVuSans-103"/>
      <path d="M 64.40625 67.28125 
L 64.40625 56.890625 
Q 59.421875 61.53125 53.78125 63.8125 
Q 48.140625 66.109375 41.796875 66.109375 
Q 29.296875 66.109375 22.65625 58.46875 
Q 16.015625 50.828125 16.015625 36.375 
Q 16.015625 21.96875 22.65625 14.328125 
Q 29.296875 6.6875 41.796875 6.6875 
Q 48.140625 6.6875 53.78125 8.984375 
Q 59.421875 11.28125 64.40625 15.921875 
L 64.40625 5.609375 
Q 59.234375 2.09375 53.4375 0.328125 
Q 47.65625 -1.421875 41.21875 -1.421875 
Q 24.65625 -1.421875 15.125 8.703125 
Q 5.609375 18.84375 5.609375 36.375 
Q 5.609375 53.953125 15.125 64.078125 
Q 24.65625 74.21875 41.21875 74.21875 
Q 47.75 74.21875 53.53125 72.484375 
Q 59.328125 70.75 64.40625 67.28125 
z
" id="DejaVuSans-67"/>
      <path d="M 30.609375 48.390625 
Q 23.390625 48.390625 19.1875 42.75 
Q 14.984375 37.109375 14.984375 27.296875 
Q 14.984375 17.484375 19.15625 11.84375 
Q 23.34375 6.203125 30.609375 6.203125 
Q 37.796875 6.203125 41.984375 11.859375 
Q 46.1875 17.53125 46.1875 27.296875 
Q 46.1875 37.015625 41.984375 42.703125 
Q 37.796875 48.390625 30.609375 48.390625 
z
M 30.609375 56 
Q 42.328125 56 49.015625 48.375 
Q 55.71875 40.765625 55.71875 27.296875 
Q 55.71875 13.875 49.015625 6.21875 
Q 42.328125 -1.421875 30.609375 -1.421875 
Q 18.84375 -1.421875 12.171875 6.21875 
Q 5.515625 13.875 5.515625 27.296875 
Q 5.515625 40.765625 12.171875 48.375 
Q 18.84375 56 30.609375 56 
z
" id="DejaVuSans-111"/>
      <path d="M 41.109375 46.296875 
Q 39.59375 47.171875 37.8125 47.578125 
Q 36.03125 48 33.890625 48 
Q 26.265625 48 22.1875 43.046875 
Q 18.109375 38.09375 18.109375 28.8125 
L 18.109375 0 
L 9.078125 0 
L 9.078125 54.6875 
L 18.109375 54.6875 
L 18.109375 46.1875 
Q 20.953125 51.171875 25.484375 53.578125 
Q 30.03125 56 36.53125 56 
Q 37.453125 56 38.578125 55.875 
Q 39.703125 55.765625 41.0625 55.515625 
z
" id="DejaVuSans-114"/>
      <path d="M 37.109375 75.984375 
L 37.109375 68.5 
L 28.515625 68.5 
Q 23.6875 68.5 21.796875 66.546875 
Q 19.921875 64.59375 19.921875 59.515625 
L 19.921875 54.6875 
L 34.71875 54.6875 
L 34.71875 47.703125 
L 19.921875 47.703125 
L 19.921875 0 
L 10.890625 0 
L 10.890625 47.703125 
L 2.296875 47.703125 
L 2.296875 54.6875 
L 10.890625 54.6875 
L 10.890625 58.5 
Q 10.890625 67.625 15.140625 71.796875 
Q 19.390625 75.984375 28.609375 75.984375 
z
" id="DejaVuSans-102"/>
     </defs>
     <g transform="translate(21.1665 157.745)rotate(-90)scale(0.144 -0.144)">
      <use xlink:href="#DejaVuSans-65"/>
      <use x="68.330078" xlink:href="#DejaVuSans-118"/>
      <use x="127.509766" xlink:href="#DejaVuSans-103"/>
      <use x="190.986328" xlink:href="#DejaVuSans-46"/>
      <use x="222.773438" xlink:href="#DejaVuSans-32"/>
      <use x="254.560547" xlink:href="#DejaVuSans-67"/>
      <use x="324.384766" xlink:href="#DejaVuSans-111"/>
      <use x="385.566406" xlink:href="#DejaVuSans-114"/>
      <use x="426.664062" xlink:href="#DejaVuSans-114"/>
      <use x="467.636719" xlink:href="#DejaVuSans-46"/>
      <use x="499.423828" xlink:href="#DejaVuSans-32"/>
      <use x="531.210938" xlink:href="#DejaVuSans-67"/>
      <use x="601.035156" xlink:href="#DejaVuSans-111"/>
      <use x="662.216797" xlink:href="#DejaVuSans-101"/>
      <use x="723.740234" xlink:href="#DejaVuSans-102"/>
      <use x="758.835938" xlink:href="#DejaVuSans-46"/>
     </g>
    </g>
   </g>
   <g id="line2d_11">
    <path clip-path="url(#p929510ad00)" d="M 447.761339 224.2 
L 449.391525 204.521188 
L 450.296084 224.2 
M 454.921776 224.2 
L 456.009153 192.747739 
L 456.799113 224.2 
M 458.78788 224.2 
L 459.317966 207.972915 
L 459.358315 224.2 
M 471.018073 224.2 
L 472.55322 110.208579 
L 473.8742 224.2 
M 482.447942 224.2 
L 482.479661 216.469783 
L 482.590528 224.2 
M 500.447388 224.2 
L 500.678136 196.465487 
L 500.818524 224.2 
L 500.818524 224.2 
" style="fill:none;stroke:#0000ff;stroke-linecap:square;stroke-width:1.5;"/>
   </g>
   <g id="patch_3">
    <path d="M 77.15 174.76 
L 77.15 26.88 
" style="fill:none;stroke:#000000;stroke-linecap:square;stroke-linejoin:miter;stroke-width:0.8;"/>
   </g>
   <g id="patch_4">
    <path d="M 565.2 174.76 
L 565.2 26.88 
" style="fill:none;stroke:#000000;stroke-linecap:square;stroke-linejoin:miter;stroke-width:0.8;"/>
   </g>
   <g id="patch_5">
    <path d="M 77.15 174.76 
L 565.2 174.76 
" style="fill:none;stroke:#000000;stroke-linecap:square;stroke-linejoin:miter;stroke-width:0.8;"/>
   </g>
   <g id="patch_6">
    <path d="M 77.15 26.88 
L 565.2 26.88 
" style="fill:none;stroke:#000000;stroke-linecap:square;stroke-linejoin:miter;stroke-width:0.8;"/>
   </g>
   <g id="text_13">
    <!-- Motor cortex, Num Trials=160 All stimulated trials, Num cells = 471 -->
    <defs>
     <path d="M 9.8125 72.90625 
L 24.515625 72.90625 
L 43.109375 23.296875 
L 61.8125 72.90625 
L 76.515625 72.90625 
L 76.515625 0 
L 66.890625 0 
L 66.890625 64.015625 
L 48.09375 14.015625 
L 38.1875 14.015625 
L 19.390625 64.015625 
L 19.390625 0 
L 9.8125 0 
z
" id="DejaVuSans-77"/>
     <path d="M 18.3125 70.21875 
L 18.3125 54.6875 
L 36.8125 54.6875 
L 36.8125 47.703125 
L 18.3125 47.703125 
L 18.3125 18.015625 
Q 18.3125 11.328125 20.140625 9.421875 
Q 21.96875 7.515625 27.59375 7.515625 
L 36.8125 7.515625 
L 36.8125 0 
L 27.59375 0 
Q 17.1875 0 13.234375 3.875 
Q 9.28125 7.765625 9.28125 18.015625 
L 9.28125 47.703125 
L 2.6875 47.703125 
L 2.6875 54.6875 
L 9.28125 54.6875 
L 9.28125 70.21875 
z
" id="DejaVuSans-116"/>
     <path d="M 48.78125 52.59375 
L 48.78125 44.1875 
Q 44.96875 46.296875 41.140625 47.34375 
Q 37.3125 48.390625 33.40625 48.390625 
Q 24.65625 48.390625 19.8125 42.84375 
Q 14.984375 37.3125 14.984375 27.296875 
Q 14.984375 17.28125 19.8125 11.734375 
Q 24.65625 6.203125 33.40625 6.203125 
Q 37.3125 6.203125 41.140625 7.25 
Q 44.96875 8.296875 48.78125 10.40625 
L 48.78125 2.09375 
Q 45.015625 0.34375 40.984375 -0.53125 
Q 36.96875 -1.421875 32.421875 -1.421875 
Q 20.0625 -1.421875 12.78125 6.34375 
Q 5.515625 14.109375 5.515625 27.296875 
Q 5.515625 40.671875 12.859375 48.328125 
Q 20.21875 56 33.015625 56 
Q 37.15625 56 41.109375 55.140625 
Q 45.0625 54.296875 48.78125 52.59375 
z
" id="DejaVuSans-99"/>
     <path d="M 54.890625 54.6875 
L 35.109375 28.078125 
L 55.90625 0 
L 45.3125 0 
L 29.390625 21.484375 
L 13.484375 0 
L 2.875 0 
L 24.125 28.609375 
L 4.6875 54.6875 
L 15.28125 54.6875 
L 29.78125 35.203125 
L 44.28125 54.6875 
z
" id="DejaVuSans-120"/>
     <path d="M 11.71875 12.40625 
L 22.015625 12.40625 
L 22.015625 4 
L 14.015625 -11.625 
L 7.71875 -11.625 
L 11.71875 4 
z
" id="DejaVuSans-44"/>
     <path d="M 9.8125 72.90625 
L 23.09375 72.90625 
L 55.421875 11.921875 
L 55.421875 72.90625 
L 64.984375 72.90625 
L 64.984375 0 
L 51.703125 0 
L 19.390625 60.984375 
L 19.390625 0 
L 9.8125 0 
z
" id="DejaVuSans-78"/>
     <path d="M 8.5 21.578125 
L 8.5 54.6875 
L 17.484375 54.6875 
L 17.484375 21.921875 
Q 17.484375 14.15625 20.5 10.265625 
Q 23.53125 6.390625 29.59375 6.390625 
Q 36.859375 6.390625 41.078125 11.03125 
Q 45.3125 15.671875 45.3125 23.6875 
L 45.3125 54.6875 
L 54.296875 54.6875 
L 54.296875 0 
L 45.3125 0 
L 45.3125 8.40625 
Q 42.046875 3.421875 37.71875 1 
Q 33.40625 -1.421875 27.6875 -1.421875 
Q 18.265625 -1.421875 13.375 4.4375 
Q 8.5 10.296875 8.5 21.578125 
z
M 31.109375 56 
z
" id="DejaVuSans-117"/>
     <path d="M 34.28125 27.484375 
Q 23.390625 27.484375 19.1875 25 
Q 14.984375 22.515625 14.984375 16.5 
Q 14.984375 11.71875 18.140625 8.90625 
Q 21.296875 6.109375 26.703125 6.109375 
Q 34.1875 6.109375 38.703125 11.40625 
Q 43.21875 16.703125 43.21875 25.484375 
L 43.21875 27.484375 
z
M 52.203125 31.203125 
L 52.203125 0 
L 43.21875 0 
L 43.21875 8.296875 
Q 40.140625 3.328125 35.546875 0.953125 
Q 30.953125 -1.421875 24.3125 -1.421875 
Q 15.921875 -1.421875 10.953125 3.296875 
Q 6 8.015625 6 15.921875 
Q 6 25.140625 12.171875 29.828125 
Q 18.359375 34.515625 30.609375 34.515625 
L 43.21875 34.515625 
L 43.21875 35.40625 
Q 43.21875 41.609375 39.140625 45 
Q 35.0625 48.390625 27.6875 48.390625 
Q 23 48.390625 18.546875 47.265625 
Q 14.109375 46.140625 10.015625 43.890625 
L 10.015625 52.203125 
Q 14.9375 54.109375 19.578125 55.046875 
Q 24.21875 56 28.609375 56 
Q 40.484375 56 46.34375 49.84375 
Q 52.203125 43.703125 52.203125 31.203125 
z
" id="DejaVuSans-97"/>
     <path d="M 9.421875 75.984375 
L 18.40625 75.984375 
L 18.40625 0 
L 9.421875 0 
z
" id="DejaVuSans-108"/>
     <path d="M 10.59375 45.40625 
L 73.1875 45.40625 
L 73.1875 37.203125 
L 10.59375 37.203125 
z
M 10.59375 25.484375 
L 73.1875 25.484375 
L 73.1875 17.1875 
L 10.59375 17.1875 
z
" id="DejaVuSans-61"/>
     <path d="M 33.015625 40.375 
Q 26.375 40.375 22.484375 35.828125 
Q 18.609375 31.296875 18.609375 23.390625 
Q 18.609375 15.53125 22.484375 10.953125 
Q 26.375 6.390625 33.015625 6.390625 
Q 39.65625 6.390625 43.53125 10.953125 
Q 47.40625 15.53125 47.40625 23.390625 
Q 47.40625 31.296875 43.53125 35.828125 
Q 39.65625 40.375 33.015625 40.375 
z
M 52.59375 71.296875 
L 52.59375 62.3125 
Q 48.875 64.0625 45.09375 64.984375 
Q 41.3125 65.921875 37.59375 65.921875 
Q 27.828125 65.921875 22.671875 59.328125 
Q 17.53125 52.734375 16.796875 39.40625 
Q 19.671875 43.65625 24.015625 45.921875 
Q 28.375 48.1875 33.59375 48.1875 
Q 44.578125 48.1875 50.953125 41.515625 
Q 57.328125 34.859375 57.328125 23.390625 
Q 57.328125 12.15625 50.6875 5.359375 
Q 44.046875 -1.421875 33.015625 -1.421875 
Q 20.359375 -1.421875 13.671875 8.265625 
Q 6.984375 17.96875 6.984375 36.375 
Q 6.984375 53.65625 15.1875 63.9375 
Q 23.390625 74.21875 37.203125 74.21875 
Q 40.921875 74.21875 44.703125 73.484375 
Q 48.484375 72.75 52.59375 71.296875 
z
" id="DejaVuSans-54"/>
     <path d="M 45.40625 46.390625 
L 45.40625 75.984375 
L 54.390625 75.984375 
L 54.390625 0 
L 45.40625 0 
L 45.40625 8.203125 
Q 42.578125 3.328125 38.25 0.953125 
Q 33.9375 -1.421875 27.875 -1.421875 
Q 17.96875 -1.421875 11.734375 6.484375 
Q 5.515625 14.40625 5.515625 27.296875 
Q 5.515625 40.1875 11.734375 48.09375 
Q 17.96875 56 27.875 56 
Q 33.9375 56 38.25 53.625 
Q 42.578125 51.265625 45.40625 46.390625 
z
M 14.796875 27.296875 
Q 14.796875 17.390625 18.875 11.75 
Q 22.953125 6.109375 30.078125 6.109375 
Q 37.203125 6.109375 41.296875 11.75 
Q 45.40625 17.390625 45.40625 27.296875 
Q 45.40625 37.203125 41.296875 42.84375 
Q 37.203125 48.484375 30.078125 48.484375 
Q 22.953125 48.484375 18.875 42.84375 
Q 14.796875 37.203125 14.796875 27.296875 
z
" id="DejaVuSans-100"/>
     <path d="M 8.203125 72.90625 
L 55.078125 72.90625 
L 55.078125 68.703125 
L 28.609375 0 
L 18.3125 0 
L 43.21875 64.59375 
L 8.203125 64.59375 
z
" id="DejaVuSans-55"/>
    </defs>
    <g transform="translate(116.605 20.88)scale(0.12 -0.12)">
     <use xlink:href="#DejaVuSans-77"/>
     <use x="86.279297" xlink:href="#DejaVuSans-111"/>
     <use x="147.460938" xlink:href="#DejaVuSans-116"/>
     <use x="186.669922" xlink:href="#DejaVuSans-111"/>
     <use x="247.851562" xlink:href="#DejaVuSans-114"/>
     <use x="288.964844" xlink:href="#DejaVuSans-32"/>
     <use x="320.751953" xlink:href="#DejaVuSans-99"/>
     <use x="375.732422" xlink:href="#DejaVuSans-111"/>
     <use x="436.914062" xlink:href="#DejaVuSans-114"/>
     <use x="478.027344" xlink:href="#DejaVuSans-116"/>
     <use x="517.236328" xlink:href="#DejaVuSans-101"/>
     <use x="578.744141" xlink:href="#DejaVuSans-120"/>
     <use x="637.923828" xlink:href="#DejaVuSans-44"/>
     <use x="669.710938" xlink:href="#DejaVuSans-32"/>
     <use x="701.498047" xlink:href="#DejaVuSans-78"/>
     <use x="776.302734" xlink:href="#DejaVuSans-117"/>
     <use x="839.681641" xlink:href="#DejaVuSans-109"/>
     <use x="937.09375" xlink:href="#DejaVuSans-32"/>
     <use x="968.880859" xlink:href="#DejaVuSans-84"/>
     <use x="1029.746094" xlink:href="#DejaVuSans-114"/>
     <use x="1070.859375" xlink:href="#DejaVuSans-105"/>
     <use x="1098.642578" xlink:href="#DejaVuSans-97"/>
     <use x="1159.921875" xlink:href="#DejaVuSans-108"/>
     <use x="1187.705078" xlink:href="#DejaVuSans-115"/>
     <use x="1239.804688" xlink:href="#DejaVuSans-61"/>
     <use x="1323.59375" xlink:href="#DejaVuSans-49"/>
     <use x="1387.216797" xlink:href="#DejaVuSans-54"/>
     <use x="1450.839844" xlink:href="#DejaVuSans-48"/>
     <use x="1514.462891" xlink:href="#DejaVuSans-32"/>
     <use x="1546.25" xlink:href="#DejaVuSans-65"/>
     <use x="1614.658203" xlink:href="#DejaVuSans-108"/>
     <use x="1642.441406" xlink:href="#DejaVuSans-108"/>
     <use x="1670.224609" xlink:href="#DejaVuSans-32"/>
     <use x="1702.011719" xlink:href="#DejaVuSans-115"/>
     <use x="1754.111328" xlink:href="#DejaVuSans-116"/>
     <use x="1793.320312" xlink:href="#DejaVuSans-105"/>
     <use x="1821.103516" xlink:href="#DejaVuSans-109"/>
     <use x="1918.515625" xlink:href="#DejaVuSans-117"/>
     <use x="1981.894531" xlink:href="#DejaVuSans-108"/>
     <use x="2009.677734" xlink:href="#DejaVuSans-97"/>
     <use x="2070.957031" xlink:href="#DejaVuSans-116"/>
     <use x="2110.166016" xlink:href="#DejaVuSans-101"/>
     <use x="2171.689453" xlink:href="#DejaVuSans-100"/>
     <use x="2235.166016" xlink:href="#DejaVuSans-32"/>
     <use x="2266.953125" xlink:href="#DejaVuSans-116"/>
     <use x="2306.162109" xlink:href="#DejaVuSans-114"/>
     <use x="2347.275391" xlink:href="#DejaVuSans-105"/>
     <use x="2375.058594" xlink:href="#DejaVuSans-97"/>
     <use x="2436.337891" xlink:href="#DejaVuSans-108"/>
     <use x="2464.121094" xlink:href="#DejaVuSans-115"/>
     <use x="2516.220703" xlink:href="#DejaVuSans-44"/>
     <use x="2548.007812" xlink:href="#DejaVuSans-32"/>
     <use x="2579.794922" xlink:href="#DejaVuSans-78"/>
     <use x="2654.599609" xlink:href="#DejaVuSans-117"/>
     <use x="2717.978516" xlink:href="#DejaVuSans-109"/>
     <use x="2815.390625" xlink:href="#DejaVuSans-32"/>
     <use x="2847.177734" xlink:href="#DejaVuSans-99"/>
     <use x="2902.158203" xlink:href="#DejaVuSans-101"/>
     <use x="2963.681641" xlink:href="#DejaVuSans-108"/>
     <use x="2991.464844" xlink:href="#DejaVuSans-108"/>
     <use x="3019.248047" xlink:href="#DejaVuSans-115"/>
     <use x="3071.347656" xlink:href="#DejaVuSans-32"/>
     <use x="3103.134766" xlink:href="#DejaVuSans-61"/>
     <use x="3186.923828" xlink:href="#DejaVuSans-32"/>
     <use x="3218.710938" xlink:href="#DejaVuSans-52"/>
     <use x="3282.333984" xlink:href="#DejaVuSans-55"/>
     <use x="3345.957031" xlink:href="#DejaVuSans-49"/>
    </g>
   </g>
   <g id="legend_1">
    <g id="patch_7">
     <path d="M 458.469375 71.7075 
L 556.8 71.7075 
Q 559.2 71.7075 559.2 69.3075 
L 559.2 35.28 
Q 559.2 32.88 556.8 32.88 
L 458.469375 32.88 
Q 456.069375 32.88 456.069375 35.28 
L 456.069375 69.3075 
Q 456.069375 71.7075 458.469375 71.7075 
z
" style="fill:#ffffff;opacity:0.8;stroke:#cccccc;stroke-linejoin:miter;"/>
    </g>
    <g id="line2d_12">
     <path d="M 460.869375 42.598125 
L 484.869375 42.598125 
" style="fill:none;stroke:#0000ff;stroke-linecap:square;stroke-width:1.5;"/>
    </g>
    <g id="line2d_13"/>
    <g id="text_14">
     <!-- Avg. Corr. -->
     <g transform="translate(494.469375 46.798125)scale(0.12 -0.12)">
      <use xlink:href="#DejaVuSans-65"/>
      <use x="68.330078" xlink:href="#DejaVuSans-118"/>
      <use x="127.509766" xlink:href="#DejaVuSans-103"/>
      <use x="190.986328" xlink:href="#DejaVuSans-46"/>
      <use x="222.773438" xlink:href="#DejaVuSans-32"/>
      <use x="254.560547" xlink:href="#DejaVuSans-67"/>
      <use x="324.384766" xlink:href="#DejaVuSans-111"/>
      <use x="385.566406" xlink:href="#DejaVuSans-114"/>
      <use x="426.664062" xlink:href="#DejaVuSans-114"/>
      <use x="467.636719" xlink:href="#DejaVuSans-46"/>
     </g>
    </g>
    <g id="patch_8">
     <path d="M 460.869375 64.411875 
L 484.869375 64.411875 
L 484.869375 56.011875 
L 460.869375 56.011875 
z
" style="fill:#0000ff;opacity:0.3;stroke:#0000ff;stroke-linejoin:miter;"/>
    </g>
    <g id="text_15">
     <!-- Std. Err. -->
     <defs>
      <path d="M 53.515625 70.515625 
L 53.515625 60.890625 
Q 47.90625 63.578125 42.921875 64.890625 
Q 37.9375 66.21875 33.296875 66.21875 
Q 25.25 66.21875 20.875 63.09375 
Q 16.5 59.96875 16.5 54.203125 
Q 16.5 49.359375 19.40625 46.890625 
Q 22.3125 44.4375 30.421875 42.921875 
L 36.375 41.703125 
Q 47.40625 39.59375 52.65625 34.296875 
Q 57.90625 29 57.90625 20.125 
Q 57.90625 9.515625 50.796875 4.046875 
Q 43.703125 -1.421875 29.984375 -1.421875 
Q 24.8125 -1.421875 18.96875 -0.25 
Q 13.140625 0.921875 6.890625 3.21875 
L 6.890625 13.375 
Q 12.890625 10.015625 18.65625 8.296875 
Q 24.421875 6.59375 29.984375 6.59375 
Q 38.421875 6.59375 43.015625 9.90625 
Q 47.609375 13.234375 47.609375 19.390625 
Q 47.609375 24.75 44.3125 27.78125 
Q 41.015625 30.8125 33.5 32.328125 
L 27.484375 33.5 
Q 16.453125 35.6875 11.515625 40.375 
Q 6.59375 45.0625 6.59375 53.421875 
Q 6.59375 63.09375 13.40625 68.65625 
Q 20.21875 74.21875 32.171875 74.21875 
Q 37.3125 74.21875 42.625 73.28125 
Q 47.953125 72.359375 53.515625 70.515625 
z
" id="DejaVuSans-83"/>
      <path d="M 9.8125 72.90625 
L 55.90625 72.90625 
L 55.90625 64.59375 
L 19.671875 64.59375 
L 19.671875 43.015625 
L 54.390625 43.015625 
L 54.390625 34.71875 
L 19.671875 34.71875 
L 19.671875 8.296875 
L 56.78125 8.296875 
L 56.78125 0 
L 9.8125 0 
z
" id="DejaVuSans-69"/>
     </defs>
     <g transform="translate(494.469375 64.411875)scale(0.12 -0.12)">
      <use xlink:href="#DejaVuSans-83"/>
      <use x="63.476562" xlink:href="#DejaVuSans-116"/>
      <use x="102.685547" xlink:href="#DejaVuSans-100"/>
      <use x="166.162109" xlink:href="#DejaVuSans-46"/>
      <use x="197.949219" xlink:href="#DejaVuSans-32"/>
      <use x="229.736328" xlink:href="#DejaVuSans-69"/>
      <use x="292.919922" xlink:href="#DejaVuSans-114"/>
      <use x="334.017578" xlink:href="#DejaVuSans-114"/>
      <use x="374.990234" xlink:href="#DejaVuSans-46"/>
     </g>
    </g>
   </g>
  </g>
 </g>
 <defs>
  <clipPath id="p929510ad00">
   <rect height="147.88" width="488.05" x="77.15" y="26.88"/>
  </clipPath>
 </defs>
</svg>
