<?xml version="1.0" encoding="utf-8" standalone="no"?>
<!DOCTYPE svg PUBLIC "-//W3C//DTD SVG 1.1//EN"
  "http://www.w3.org/Graphics/SVG/1.1/DTD/svg11.dtd">
<!-- Created with matplotlib (https://matplotlib.org/) -->
<svg height="223.2pt" version="1.1" viewBox="0 0 576 223.2" width="576pt" xmlns="http://www.w3.org/2000/svg" xmlns:xlink="http://www.w3.org/1999/xlink">
 <defs>
  <style type="text/css">
*{stroke-linecap:butt;stroke-linejoin:round;}
  </style>
 </defs>
 <g id="figure_1">
  <g id="patch_1">
   <path d="M 0 223.2 
L 576 223.2 
L 576 0 
L 0 0 
z
" style="fill:#ffffff;"/>
  </g>
  <g id="axes_1">
   <g id="patch_2">
    <path d="M 69.59 174.76 
L 565.2 174.76 
L 565.2 26.88 
L 69.59 26.88 
z
" style="fill:#ffffff;"/>
   </g>
   <g id="PolyCollection_1">
    <path clip-path="url(#pbe2cba3801)" d="M 150.147625 294.891242 
L 150.147625 26.88 
L 402.15271 26.88 
L 402.15271 294.891242 
L 402.15271 294.891242 
L 150.147625 294.891242 
z
" style="fill:#808080;fill-opacity:0.3;stroke:#808080;stroke-opacity:0.3;"/>
   </g>
   <g id="PolyCollection_2">
    <path clip-path="url(#pbe2cba3801)" d="M 71.270034 169.121789 
L 71.270034 183.90558 
L 72.950068 222.661444 
L 74.630102 234.777669 
L 74.630102 228.498977 
L 74.630102 228.498977 
L 72.950068 196.279234 
L 71.270034 169.121789 
z
" style="fill:#0000ff;fill-opacity:0.3;stroke:#0000ff;stroke-opacity:0.3;"/>
    <path clip-path="url(#pbe2cba3801)" d="M 77.990169 228.28222 
L 77.990169 228.28222 
L 79.670203 211.768808 
L 79.670203 172.764207 
L 79.670203 172.764207 
L 77.990169 228.28222 
z
" style="fill:#0000ff;fill-opacity:0.3;stroke:#0000ff;stroke-opacity:0.3;"/>
    <path clip-path="url(#pbe2cba3801)" d="M 84.710305 172.949622 
L 84.710305 191.622905 
L 86.390339 219.29506 
L 88.070373 199.63582 
L 89.750407 201.011796 
L 91.430441 227.174805 
L 93.110475 200.673277 
L 94.790508 261.351244 
L 96.470542 228.28222 
L 98.150576 225.079305 
L 99.83061 205.333295 
L 101.510644 228.28222 
L 103.190678 267.865678 
L 104.870712 184.424368 
L 106.550746 233.72833 
L 108.23078 194.16051 
L 109.910814 222.407542 
L 111.590847 195.521696 
L 113.270881 227.803757 
L 114.950915 286.95199 
L 116.630949 208.008621 
L 118.310983 227.647752 
L 119.991017 294.891242 
L 121.671051 268.843091 
L 121.671051 237.696927 
L 121.671051 237.696927 
L 119.991017 239.710522 
L 118.310983 214.352819 
L 116.630949 192.823733 
L 114.950915 248.136664 
L 113.270881 211.067456 
L 111.590847 155.220047 
L 109.910814 146.458504 
L 108.23078 163.683897 
L 106.550746 128.371563 
L 104.870712 97.197444 
L 103.190678 218.50934 
L 101.510644 228.28222 
L 99.83061 162.259636 
L 98.150576 196.576629 
L 96.470542 228.28222 
L 94.790508 231.62287 
L 93.110475 141.331556 
L 91.430441 180.565115 
L 89.750407 178.219896 
L 88.070373 185.78216 
L 86.390339 168.21342 
L 84.710305 172.949622 
z
" style="fill:#0000ff;fill-opacity:0.3;stroke:#0000ff;stroke-opacity:0.3;"/>
    <path clip-path="url(#pbe2cba3801)" d="M 125.031119 228.28222 
L 125.031119 228.28222 
L 126.711153 222.334335 
L 128.391186 228.28222 
L 130.07122 226.829977 
L 131.751254 228.28222 
L 133.431288 228.28222 
L 135.111322 232.029107 
L 136.791356 205.083322 
L 138.47139 228.28222 
L 140.151424 232.474953 
L 141.831458 215.69054 
L 143.511492 232.91072 
L 145.191525 180.138662 
L 146.871559 220.950117 
L 148.551593 219.168907 
L 150.231627 182.700877 
L 151.911661 225.557618 
L 153.591695 223.055289 
L 155.271729 248.933043 
L 156.951763 237.934949 
L 156.951763 229.257344 
L 156.951763 229.257344 
L 155.271729 230.368377 
L 153.591695 196.889116 
L 151.911661 190.333408 
L 150.231627 135.026664 
L 148.551593 204.561662 
L 146.871559 175.358227 
L 145.191525 174.674607 
L 143.511492 228.493043 
L 141.831458 103.637438 
L 140.151424 204.14627 
L 138.47139 228.28222 
L 136.791356 180.709169 
L 135.111322 228.452887 
L 133.431288 228.28222 
L 131.751254 228.28222 
L 130.07122 190.579822 
L 128.391186 228.28222 
L 126.711153 121.551747 
L 125.031119 228.28222 
z
" style="fill:#0000ff;fill-opacity:0.3;stroke:#0000ff;stroke-opacity:0.3;"/>
    <path clip-path="url(#pbe2cba3801)" d="M 160.311831 169.752836 
L 160.311831 212.763651 
L 161.991864 203.55076 
L 163.671898 218.987306 
L 165.351932 202.710873 
L 167.031966 200.290373 
L 168.712 166.195572 
L 170.392034 228.28222 
L 172.072068 195.319768 
L 173.752102 213.004976 
L 175.432136 253.927567 
L 177.112169 227.9049 
L 178.792203 238.454846 
L 180.472237 239.155447 
L 182.152271 219.804824 
L 183.832305 237.066663 
L 185.512339 225.607296 
L 187.192373 209.937525 
L 188.872407 207.234871 
L 190.552441 208.747984 
L 192.232475 191.920425 
L 193.912508 202.693745 
L 195.592542 229.777698 
L 197.272576 228.28222 
L 198.95261 213.456009 
L 200.632644 208.306866 
L 202.312678 206.093223 
L 203.992712 167.524341 
L 205.672746 222.559545 
L 207.35278 212.378175 
L 209.032814 230.863823 
L 210.712847 236.296019 
L 212.392881 228.28222 
L 214.072915 226.656743 
L 215.752949 204.652097 
L 217.432983 183.812006 
L 219.113017 203.366419 
L 220.793051 204.735587 
L 222.473085 212.67984 
L 224.153119 246.013983 
L 225.833153 228.28222 
L 227.513186 217.893275 
L 229.19322 207.569701 
L 230.873254 198.581202 
L 232.553288 228.28222 
L 234.233322 231.478222 
L 235.913356 208.046118 
L 237.59339 228.28222 
L 239.273424 257.45814 
L 240.953458 215.028984 
L 242.633492 219.063736 
L 244.313525 204.42552 
L 245.993559 228.28222 
L 247.673593 234.391205 
L 249.353627 228.28222 
L 251.033661 220.506758 
L 252.713695 222.334335 
L 254.393729 223.873538 
L 256.073763 193.415211 
L 257.753797 233.905908 
L 259.433831 207.079225 
L 261.113864 225.890928 
L 262.793898 243.302213 
L 264.473932 227.329754 
L 266.153966 188.819789 
L 267.834 212.54247 
L 269.514034 228.28222 
L 271.194068 228.28222 
L 272.874102 206.989354 
L 274.554136 228.28222 
L 276.234169 226.160688 
L 277.914203 189.692728 
L 279.594237 223.66914 
L 281.274271 214.537739 
L 282.954305 227.974916 
L 284.634339 227.863828 
L 286.314373 228.28222 
L 287.994407 197.301399 
L 289.674441 187.763313 
L 291.354475 196.01803 
L 293.034508 216.823235 
L 294.714542 228.28222 
L 296.394576 196.370714 
L 298.07461 193.727062 
L 299.754644 218.393278 
L 301.434678 229.105518 
L 303.114712 241.266562 
L 304.794746 202.94201 
L 306.47478 231.917228 
L 308.154814 181.410279 
L 309.834847 186.668364 
L 311.514881 220.703793 
L 313.194915 289.058295 
L 314.874949 203.731686 
L 316.554983 211.181882 
L 318.235017 217.68853 
L 319.915051 215.695791 
L 321.595085 215.385815 
L 323.275119 210.561919 
L 324.955153 228.28222 
L 326.635186 211.852932 
L 328.31522 213.190925 
L 329.995254 214.038316 
L 331.675288 248.363869 
L 333.355322 202.495495 
L 335.035356 228.28222 
L 336.71539 220.326626 
L 338.395424 202.088917 
L 340.075458 229.571634 
L 341.755492 229.790954 
L 343.435525 228.28222 
L 345.115559 228.28222 
L 346.795593 168.533284 
L 348.475627 226.956049 
L 350.155661 196.81509 
L 351.835695 229.64295 
L 353.515729 227.385182 
L 355.195763 215.474103 
L 356.875797 235.752133 
L 358.555831 212.871063 
L 360.235864 228.28222 
L 361.915898 228.28222 
L 363.595932 228.28222 
L 365.275966 229.127854 
L 366.956 228.28222 
L 368.636034 225.297053 
L 370.316068 216.583792 
L 371.996102 214.773074 
L 373.676136 205.177825 
L 375.356169 225.244057 
L 377.036203 190.298031 
L 378.716237 199.353976 
L 380.396271 216.726401 
L 382.076305 218.154566 
L 383.756339 219.017983 
L 385.436373 213.07533 
L 387.116407 228.28222 
L 388.796441 213.043795 
L 390.476475 205.033419 
L 392.156508 225.297053 
L 393.836542 246.121014 
L 395.516576 230.927362 
L 397.19661 180.756658 
L 398.876644 236.724308 
L 400.556678 206.329605 
L 402.236712 193.407456 
L 403.916746 228.475555 
L 405.59678 197.936534 
L 407.276814 215.247713 
L 408.956847 221.622466 
L 410.636881 228.28222 
L 412.316915 228.28222 
L 413.996949 220.311675 
L 415.676983 232.259007 
L 417.357017 229.831377 
L 419.037051 228.28222 
L 420.717085 119.355401 
L 422.397119 241.426311 
L 424.077153 244.073123 
L 425.757186 193.683631 
L 427.43722 191.331766 
L 429.117254 211.255476 
L 430.797288 187.457413 
L 432.477322 243.948778 
L 434.157356 221.752976 
L 435.83739 185.795259 
L 437.517424 226.978354 
L 439.197458 228.28222 
L 440.877492 185.463395 
L 442.557525 176.087443 
L 444.237559 178.633987 
L 445.917593 177.835755 
L 447.597627 177.426333 
L 449.277661 177.535384 
L 450.957695 179.766546 
L 452.637729 174.485345 
L 454.317763 182.194883 
L 455.997797 179.269153 
L 457.677831 180.095431 
L 459.357864 205.266064 
L 461.037898 175.763273 
L 462.717932 176.495162 
L 464.397966 182.91097 
L 466.078 181.07775 
L 467.758034 179.167998 
L 469.438068 177.247623 
L 471.118102 174.544391 
L 472.798136 178.672822 
L 474.478169 195.984852 
L 476.158203 183.073497 
L 477.838237 187.044458 
L 479.518271 186.780453 
L 481.198305 175.901425 
L 482.878339 170.820365 
L 484.558373 194.732089 
L 486.238407 182.022254 
L 487.918441 193.884603 
L 489.598475 187.282839 
L 491.278508 179.341954 
L 492.958542 181.217735 
L 494.638576 185.661805 
L 496.31861 180.756064 
L 497.998644 181.19458 
L 499.678678 179.406205 
L 501.358712 195.244771 
L 503.038746 193.368945 
L 504.71878 185.00948 
L 506.398814 179.787997 
L 508.078847 206.627226 
L 509.758881 207.424595 
L 511.438915 183.610234 
L 513.118949 208.69275 
L 514.798983 198.675265 
L 516.479017 255.553613 
L 518.159051 205.519931 
L 519.839085 171.928034 
L 521.519119 213.267006 
L 523.199153 196.813593 
L 524.879186 197.98292 
L 526.55922 220.40744 
L 528.239254 213.252713 
L 529.919288 195.163192 
L 531.599322 202.714773 
L 533.279356 219.585513 
L 534.95939 164.256288 
L 536.639424 206.548545 
L 538.319458 200.475571 
L 539.999492 222.606255 
L 541.679525 230.485448 
L 543.359559 182.022012 
L 545.039593 244.805871 
L 546.719627 243.148937 
L 548.399661 219.29092 
L 550.079695 225.485918 
L 551.759729 234.958566 
L 553.439763 171.993805 
L 555.119797 230.178271 
L 556.799831 226.933199 
L 558.479864 221.883733 
L 560.159898 220.756159 
L 561.839932 228.28222 
L 563.519966 281.355159 
L 565.2 228.28222 
L 565.2 228.28222 
L 565.2 228.28222 
L 563.519966 243.761675 
L 561.839932 228.28222 
L 560.159898 153.781891 
L 558.479864 190.9891 
L 556.799831 209.492775 
L 555.119797 119.157107 
L 553.439763 124.200121 
L 551.759729 212.133516 
L 550.079695 194.317096 
L 548.399661 192.703666 
L 546.719627 209.714514 
L 545.039593 220.566297 
L 543.359559 109.717961 
L 541.679525 214.571044 
L 539.999492 206.465791 
L 538.319458 180.516887 
L 536.639424 188.927473 
L 534.95939 133.109144 
L 533.279356 195.264367 
L 531.599322 178.553493 
L 529.919288 93.900445 
L 528.239254 180.902374 
L 526.55922 192.911323 
L 524.879186 175.691112 
L 523.199153 177.617767 
L 521.519119 194.02239 
L 519.839085 164.37186 
L 518.159051 195.448762 
L 516.479017 224.204283 
L 514.798983 184.361799 
L 513.118949 183.301815 
L 511.438915 162.883937 
L 509.758881 183.717702 
L 508.078847 187.384534 
L 506.398814 176.312258 
L 504.71878 181.058239 
L 503.038746 169.684394 
L 501.358712 185.406772 
L 499.678678 169.923601 
L 497.998644 173.724931 
L 496.31861 173.370849 
L 494.638576 174.970046 
L 492.958542 176.573781 
L 491.278508 167.888413 
L 489.598475 174.933575 
L 487.918441 182.853283 
L 486.238407 174.283765 
L 484.558373 177.348784 
L 482.878339 147.528459 
L 481.198305 173.631603 
L 479.518271 175.426022 
L 477.838237 179.73231 
L 476.158203 175.091434 
L 474.478169 187.334157 
L 472.798136 173.365578 
L 471.118102 166.086499 
L 469.438068 173.179176 
L 467.758034 173.824232 
L 466.078 176.892452 
L 464.397966 174.977255 
L 462.717932 171.865142 
L 461.037898 167.462232 
L 459.357864 189.193393 
L 457.677831 177.431633 
L 455.997797 175.113918 
L 454.317763 176.571165 
L 452.637729 171.342955 
L 450.957695 176.925885 
L 449.277661 173.519167 
L 447.597627 175.173168 
L 445.917593 174.315723 
L 444.237559 172.839382 
L 442.557525 171.417811 
L 440.877492 162.093176 
L 439.197458 228.28222 
L 437.517424 194.431919 
L 435.83739 155.318088 
L 434.157356 195.349472 
L 432.477322 235.226425 
L 430.797288 175.286369 
L 429.117254 195.726294 
L 427.43722 165.129617 
L 425.757186 167.646415 
L 424.077153 225.684717 
L 422.397119 203.458645 
L 420.717085 119.355401 
L 419.037051 228.28222 
L 417.357017 209.658718 
L 415.676983 222.425582 
L 413.996949 198.805612 
L 412.316915 228.28222 
L 410.636881 228.28222 
L 408.956847 195.435224 
L 407.276814 178.72374 
L 405.59678 150.869621 
L 403.916746 220.767079 
L 402.236712 131.000179 
L 400.556678 146.354571 
L 398.876644 230.784043 
L 397.19661 141.877793 
L 395.516576 182.662475 
L 393.836542 231.342874 
L 392.156508 150.782846 
L 390.476475 184.868688 
L 388.796441 191.971369 
L 387.116407 228.28222 
L 385.436373 143.65697 
L 383.756339 187.949663 
L 382.076305 183.807863 
L 380.396271 203.37704 
L 378.716237 186.178055 
L 377.036203 157.522712 
L 375.356169 201.367348 
L 373.676136 175.218032 
L 371.996102 179.80901 
L 370.316068 150.12613 
L 368.636034 150.782846 
L 366.956 228.28222 
L 365.275966 183.958425 
L 363.595932 228.28222 
L 361.915898 228.28222 
L 360.235864 228.28222 
L 358.555831 189.390354 
L 356.875797 209.147404 
L 355.195763 146.012228 
L 353.515729 168.161376 
L 351.835695 223.394137 
L 350.155661 180.249599 
L 348.475627 199.166852 
L 346.795593 89.952492 
L 345.115559 228.28222 
L 343.435525 228.28222 
L 341.755492 203.75175 
L 340.075458 204.288157 
L 338.395424 170.14942 
L 336.71539 181.91362 
L 335.035356 228.28222 
L 333.355322 186.221102 
L 331.675288 235.479711 
L 329.995254 170.366697 
L 328.31522 144.676333 
L 326.635186 191.136529 
L 324.955153 228.28222 
L 323.275119 187.941339 
L 321.595085 186.269024 
L 319.915051 189.636125 
L 318.235017 193.45893 
L 316.554983 190.418574 
L 314.874949 173.224625 
L 313.194915 223.160722 
L 311.514881 161.174177 
L 309.834847 131.962459 
L 308.154814 139.436712 
L 306.47478 195.401656 
L 304.794746 169.42404 
L 303.114712 216.047112 
L 301.434678 226.479569 
L 299.754644 177.833755 
L 298.07461 26.88 
L 296.394576 176.066303 
L 294.714542 228.28222 
L 293.034508 168.252218 
L 291.354475 174.327579 
L 289.674441 62.358188 
L 287.994407 47.712763 
L 286.314373 228.28222 
L 284.634339 217.420125 
L 282.954305 213.042111 
L 281.274271 148.75241 
L 279.594237 187.40172 
L 277.914203 181.937941 
L 276.234169 204.814343 
L 274.554136 228.28222 
L 272.874102 192.537473 
L 271.194068 228.28222 
L 269.514034 228.28222 
L 267.834 174.018769 
L 266.153966 162.313181 
L 264.473932 203.653503 
L 262.793898 229.799548 
L 261.113864 193.184962 
L 259.433831 171.573366 
L 257.753797 229.566598 
L 256.073763 165.346225 
L 254.393729 202.586538 
L 252.713695 121.551747 
L 251.033661 193.428412 
L 249.353627 228.28222 
L 247.673593 201.936643 
L 245.993559 228.28222 
L 244.313525 156.10834 
L 242.633492 181.923639 
L 240.953458 197.266196 
L 239.273424 234.403333 
L 237.59339 228.28222 
L 235.913356 179.374322 
L 234.233322 228.405326 
L 232.553288 228.28222 
L 230.873254 184.162171 
L 229.19322 193.587819 
L 227.513186 176.490662 
L 225.833153 228.28222 
L 224.153119 223.726893 
L 222.473085 138.433426 
L 220.793051 183.857632 
L 219.113017 173.951313 
L 217.432983 172.996116 
L 215.752949 190.537952 
L 214.072915 218.312018 
L 212.392881 228.28222 
L 210.712847 230.136838 
L 209.032814 191.653905 
L 207.35278 195.477269 
L 205.672746 200.470755 
L 203.992712 134.359167 
L 202.312678 187.736342 
L 200.632644 180.958291 
L 198.95261 195.001421 
L 197.272576 228.28222 
L 195.592542 211.995943 
L 193.912508 166.58022 
L 192.232475 182.614128 
L 190.552441 165.353611 
L 188.872407 169.605674 
L 187.192373 179.657734 
L 185.512339 170.109737 
L 183.832305 228.771761 
L 182.152271 160.938754 
L 180.472237 228.777483 
L 178.792203 228.849121 
L 177.112169 202.033437 
L 175.432136 220.793274 
L 173.752102 180.730323 
L 172.072068 141.416711 
L 170.392034 228.28222 
L 168.712 157.100982 
L 167.031966 160.763501 
L 165.351932 180.611671 
L 163.671898 193.330689 
L 161.991864 184.947778 
L 160.311831 169.752836 
z
" style="fill:#0000ff;fill-opacity:0.3;stroke:#0000ff;stroke-opacity:0.3;"/>
   </g>
   <g id="matplotlib.axis_1">
    <g id="xtick_1">
     <g id="line2d_1">
      <defs>
       <path d="M 0 0 
L 0 3.5 
" id="maad525d0da" style="stroke:#000000;stroke-width:0.8;"/>
      </defs>
      <g>
       <use style="stroke:#000000;stroke-width:0.8;" x="150.147625" xlink:href="#maad525d0da" y="174.76"/>
      </g>
     </g>
     <g id="text_1">
      <!-- 0.0 -->
      <defs>
       <path d="M 31.78125 66.40625 
Q 24.171875 66.40625 20.328125 58.90625 
Q 16.5 51.421875 16.5 36.375 
Q 16.5 21.390625 20.328125 13.890625 
Q 24.171875 6.390625 31.78125 6.390625 
Q 39.453125 6.390625 43.28125 13.890625 
Q 47.125 21.390625 47.125 36.375 
Q 47.125 51.421875 43.28125 58.90625 
Q 39.453125 66.40625 31.78125 66.40625 
z
M 31.78125 74.21875 
Q 44.046875 74.21875 50.515625 64.515625 
Q 56.984375 54.828125 56.984375 36.375 
Q 56.984375 17.96875 50.515625 8.265625 
Q 44.046875 -1.421875 31.78125 -1.421875 
Q 19.53125 -1.421875 13.0625 8.265625 
Q 6.59375 17.96875 6.59375 36.375 
Q 6.59375 54.828125 13.0625 64.515625 
Q 19.53125 74.21875 31.78125 74.21875 
z
" id="DejaVuSans-48"/>
       <path d="M 10.6875 12.40625 
L 21 12.40625 
L 21 0 
L 10.6875 0 
z
" id="DejaVuSans-46"/>
      </defs>
      <g transform="translate(140.60575 190.878125)scale(0.12 -0.12)">
       <use xlink:href="#DejaVuSans-48"/>
       <use x="63.623047" xlink:href="#DejaVuSans-46"/>
       <use x="95.410156" xlink:href="#DejaVuSans-48"/>
      </g>
     </g>
    </g>
    <g id="xtick_2">
     <g id="line2d_2">
      <g>
       <use style="stroke:#000000;stroke-width:0.8;" x="234.14932" xlink:href="#maad525d0da" y="174.76"/>
      </g>
     </g>
     <g id="text_2">
      <!-- 0.5 -->
      <defs>
       <path d="M 10.796875 72.90625 
L 49.515625 72.90625 
L 49.515625 64.59375 
L 19.828125 64.59375 
L 19.828125 46.734375 
Q 21.96875 47.46875 24.109375 47.828125 
Q 26.265625 48.1875 28.421875 48.1875 
Q 40.625 48.1875 47.75 41.5 
Q 54.890625 34.8125 54.890625 23.390625 
Q 54.890625 11.625 47.5625 5.09375 
Q 40.234375 -1.421875 26.90625 -1.421875 
Q 22.3125 -1.421875 17.546875 -0.640625 
Q 12.796875 0.140625 7.71875 1.703125 
L 7.71875 11.625 
Q 12.109375 9.234375 16.796875 8.0625 
Q 21.484375 6.890625 26.703125 6.890625 
Q 35.15625 6.890625 40.078125 11.328125 
Q 45.015625 15.765625 45.015625 23.390625 
Q 45.015625 31 40.078125 35.4375 
Q 35.15625 39.890625 26.703125 39.890625 
Q 22.75 39.890625 18.8125 39.015625 
Q 14.890625 38.140625 10.796875 36.28125 
z
" id="DejaVuSans-53"/>
      </defs>
      <g transform="translate(224.607445 190.878125)scale(0.12 -0.12)">
       <use xlink:href="#DejaVuSans-48"/>
       <use x="63.623047" xlink:href="#DejaVuSans-46"/>
       <use x="95.410156" xlink:href="#DejaVuSans-53"/>
      </g>
     </g>
    </g>
    <g id="xtick_3">
     <g id="line2d_3">
      <g>
       <use style="stroke:#000000;stroke-width:0.8;" x="318.151015" xlink:href="#maad525d0da" y="174.76"/>
      </g>
     </g>
     <g id="text_3">
      <!-- 1.0 -->
      <defs>
       <path d="M 12.40625 8.296875 
L 28.515625 8.296875 
L 28.515625 63.921875 
L 10.984375 60.40625 
L 10.984375 69.390625 
L 28.421875 72.90625 
L 38.28125 72.90625 
L 38.28125 8.296875 
L 54.390625 8.296875 
L 54.390625 0 
L 12.40625 0 
z
" id="DejaVuSans-49"/>
      </defs>
      <g transform="translate(308.60914 190.878125)scale(0.12 -0.12)">
       <use xlink:href="#DejaVuSans-49"/>
       <use x="63.623047" xlink:href="#DejaVuSans-46"/>
       <use x="95.410156" xlink:href="#DejaVuSans-48"/>
      </g>
     </g>
    </g>
    <g id="xtick_4">
     <g id="line2d_4">
      <g>
       <use style="stroke:#000000;stroke-width:0.8;" x="402.15271" xlink:href="#maad525d0da" y="174.76"/>
      </g>
     </g>
     <g id="text_4">
      <!-- 1.5 -->
      <g transform="translate(392.610835 190.878125)scale(0.12 -0.12)">
       <use xlink:href="#DejaVuSans-49"/>
       <use x="63.623047" xlink:href="#DejaVuSans-46"/>
       <use x="95.410156" xlink:href="#DejaVuSans-53"/>
      </g>
     </g>
    </g>
    <g id="xtick_5">
     <g id="line2d_5">
      <g>
       <use style="stroke:#000000;stroke-width:0.8;" x="486.154405" xlink:href="#maad525d0da" y="174.76"/>
      </g>
     </g>
     <g id="text_5">
      <!-- 2.0 -->
      <defs>
       <path d="M 19.1875 8.296875 
L 53.609375 8.296875 
L 53.609375 0 
L 7.328125 0 
L 7.328125 8.296875 
Q 12.9375 14.109375 22.625 23.890625 
Q 32.328125 33.6875 34.8125 36.53125 
Q 39.546875 41.84375 41.421875 45.53125 
Q 43.3125 49.21875 43.3125 52.78125 
Q 43.3125 58.59375 39.234375 62.25 
Q 35.15625 65.921875 28.609375 65.921875 
Q 23.96875 65.921875 18.8125 64.3125 
Q 13.671875 62.703125 7.8125 59.421875 
L 7.8125 69.390625 
Q 13.765625 71.78125 18.9375 73 
Q 24.125 74.21875 28.421875 74.21875 
Q 39.75 74.21875 46.484375 68.546875 
Q 53.21875 62.890625 53.21875 53.421875 
Q 53.21875 48.921875 51.53125 44.890625 
Q 49.859375 40.875 45.40625 35.40625 
Q 44.1875 33.984375 37.640625 27.21875 
Q 31.109375 20.453125 19.1875 8.296875 
z
" id="DejaVuSans-50"/>
      </defs>
      <g transform="translate(476.61253 190.878125)scale(0.12 -0.12)">
       <use xlink:href="#DejaVuSans-50"/>
       <use x="63.623047" xlink:href="#DejaVuSans-46"/>
       <use x="95.410156" xlink:href="#DejaVuSans-48"/>
      </g>
     </g>
    </g>
    <g id="text_6">
     <!-- Time (s) -->
     <defs>
      <path d="M -0.296875 72.90625 
L 61.375 72.90625 
L 61.375 64.59375 
L 35.5 64.59375 
L 35.5 0 
L 25.59375 0 
L 25.59375 64.59375 
L -0.296875 64.59375 
z
" id="DejaVuSans-84"/>
      <path d="M 9.421875 54.6875 
L 18.40625 54.6875 
L 18.40625 0 
L 9.421875 0 
z
M 9.421875 75.984375 
L 18.40625 75.984375 
L 18.40625 64.59375 
L 9.421875 64.59375 
z
" id="DejaVuSans-105"/>
      <path d="M 52 44.1875 
Q 55.375 50.25 60.0625 53.125 
Q 64.75 56 71.09375 56 
Q 79.640625 56 84.28125 50.015625 
Q 88.921875 44.046875 88.921875 33.015625 
L 88.921875 0 
L 79.890625 0 
L 79.890625 32.71875 
Q 79.890625 40.578125 77.09375 44.375 
Q 74.3125 48.1875 68.609375 48.1875 
Q 61.625 48.1875 57.5625 43.546875 
Q 53.515625 38.921875 53.515625 30.90625 
L 53.515625 0 
L 44.484375 0 
L 44.484375 32.71875 
Q 44.484375 40.625 41.703125 44.40625 
Q 38.921875 48.1875 33.109375 48.1875 
Q 26.21875 48.1875 22.15625 43.53125 
Q 18.109375 38.875 18.109375 30.90625 
L 18.109375 0 
L 9.078125 0 
L 9.078125 54.6875 
L 18.109375 54.6875 
L 18.109375 46.1875 
Q 21.1875 51.21875 25.484375 53.609375 
Q 29.78125 56 35.6875 56 
Q 41.65625 56 45.828125 52.96875 
Q 50 49.953125 52 44.1875 
z
" id="DejaVuSans-109"/>
      <path d="M 56.203125 29.59375 
L 56.203125 25.203125 
L 14.890625 25.203125 
Q 15.484375 15.921875 20.484375 11.0625 
Q 25.484375 6.203125 34.421875 6.203125 
Q 39.59375 6.203125 44.453125 7.46875 
Q 49.3125 8.734375 54.109375 11.28125 
L 54.109375 2.78125 
Q 49.265625 0.734375 44.1875 -0.34375 
Q 39.109375 -1.421875 33.890625 -1.421875 
Q 20.796875 -1.421875 13.15625 6.1875 
Q 5.515625 13.8125 5.515625 26.8125 
Q 5.515625 40.234375 12.765625 48.109375 
Q 20.015625 56 32.328125 56 
Q 43.359375 56 49.78125 48.890625 
Q 56.203125 41.796875 56.203125 29.59375 
z
M 47.21875 32.234375 
Q 47.125 39.59375 43.09375 43.984375 
Q 39.0625 48.390625 32.421875 48.390625 
Q 24.90625 48.390625 20.390625 44.140625 
Q 15.875 39.890625 15.1875 32.171875 
z
" id="DejaVuSans-101"/>
      <path id="DejaVuSans-32"/>
      <path d="M 31 75.875 
Q 24.46875 64.65625 21.28125 53.65625 
Q 18.109375 42.671875 18.109375 31.390625 
Q 18.109375 20.125 21.3125 9.0625 
Q 24.515625 -2 31 -13.1875 
L 23.1875 -13.1875 
Q 15.875 -1.703125 12.234375 9.375 
Q 8.59375 20.453125 8.59375 31.390625 
Q 8.59375 42.28125 12.203125 53.3125 
Q 15.828125 64.359375 23.1875 75.875 
z
" id="DejaVuSans-40"/>
      <path d="M 44.28125 53.078125 
L 44.28125 44.578125 
Q 40.484375 46.53125 36.375 47.5 
Q 32.28125 48.484375 27.875 48.484375 
Q 21.1875 48.484375 17.84375 46.4375 
Q 14.5 44.390625 14.5 40.28125 
Q 14.5 37.15625 16.890625 35.375 
Q 19.28125 33.59375 26.515625 31.984375 
L 29.59375 31.296875 
Q 39.15625 29.25 43.1875 25.515625 
Q 47.21875 21.78125 47.21875 15.09375 
Q 47.21875 7.46875 41.1875 3.015625 
Q 35.15625 -1.421875 24.609375 -1.421875 
Q 20.21875 -1.421875 15.453125 -0.5625 
Q 10.6875 0.296875 5.421875 2 
L 5.421875 11.28125 
Q 10.40625 8.6875 15.234375 7.390625 
Q 20.0625 6.109375 24.8125 6.109375 
Q 31.15625 6.109375 34.5625 8.28125 
Q 37.984375 10.453125 37.984375 14.40625 
Q 37.984375 18.0625 35.515625 20.015625 
Q 33.0625 21.96875 24.703125 23.78125 
L 21.578125 24.515625 
Q 13.234375 26.265625 9.515625 29.90625 
Q 5.8125 33.546875 5.8125 39.890625 
Q 5.8125 47.609375 11.28125 51.796875 
Q 16.75 56 26.8125 56 
Q 31.78125 56 36.171875 55.265625 
Q 40.578125 54.546875 44.28125 53.078125 
z
" id="DejaVuSans-115"/>
      <path d="M 8.015625 75.875 
L 15.828125 75.875 
Q 23.140625 64.359375 26.78125 53.3125 
Q 30.421875 42.28125 30.421875 31.390625 
Q 30.421875 20.453125 26.78125 9.375 
Q 23.140625 -1.703125 15.828125 -13.1875 
L 8.015625 -13.1875 
Q 14.5 -2 17.703125 9.0625 
Q 20.90625 20.125 20.90625 31.390625 
Q 20.90625 42.671875 17.703125 53.65625 
Q 14.5 64.65625 8.015625 75.875 
z
" id="DejaVuSans-41"/>
     </defs>
     <g transform="translate(287.89975 208.3155)scale(0.144 -0.144)">
      <use xlink:href="#DejaVuSans-84"/>
      <use x="61.037109" xlink:href="#DejaVuSans-105"/>
      <use x="88.820312" xlink:href="#DejaVuSans-109"/>
      <use x="186.232422" xlink:href="#DejaVuSans-101"/>
      <use x="247.755859" xlink:href="#DejaVuSans-32"/>
      <use x="279.542969" xlink:href="#DejaVuSans-40"/>
      <use x="318.556641" xlink:href="#DejaVuSans-115"/>
      <use x="370.65625" xlink:href="#DejaVuSans-41"/>
     </g>
    </g>
   </g>
   <g id="matplotlib.axis_2">
    <g id="ytick_1">
     <g id="line2d_6">
      <defs>
       <path d="M 0 0 
L -3.5 0 
" id="mbad908d680" style="stroke:#000000;stroke-width:0.8;"/>
      </defs>
      <g>
       <use style="stroke:#000000;stroke-width:0.8;" x="69.59" xlink:href="#mbad908d680" y="174.76"/>
      </g>
     </g>
     <g id="text_7">
      <!-- 0.000 -->
      <g transform="translate(28.23625 179.319062)scale(0.12 -0.12)">
       <use xlink:href="#DejaVuSans-48"/>
       <use x="63.623047" xlink:href="#DejaVuSans-46"/>
       <use x="95.410156" xlink:href="#DejaVuSans-48"/>
       <use x="159.033203" xlink:href="#DejaVuSans-48"/>
       <use x="222.65625" xlink:href="#DejaVuSans-48"/>
      </g>
     </g>
    </g>
    <g id="ytick_2">
     <g id="line2d_7">
      <g>
       <use style="stroke:#000000;stroke-width:0.8;" x="69.59" xlink:href="#mbad908d680" y="148.266501"/>
      </g>
     </g>
     <g id="text_8">
      <!-- 0.005 -->
      <g transform="translate(28.23625 152.825563)scale(0.12 -0.12)">
       <use xlink:href="#DejaVuSans-48"/>
       <use x="63.623047" xlink:href="#DejaVuSans-46"/>
       <use x="95.410156" xlink:href="#DejaVuSans-48"/>
       <use x="159.033203" xlink:href="#DejaVuSans-48"/>
       <use x="222.65625" xlink:href="#DejaVuSans-53"/>
      </g>
     </g>
    </g>
    <g id="ytick_3">
     <g id="line2d_8">
      <g>
       <use style="stroke:#000000;stroke-width:0.8;" x="69.59" xlink:href="#mbad908d680" y="121.773002"/>
      </g>
     </g>
     <g id="text_9">
      <!-- 0.010 -->
      <g transform="translate(28.23625 126.332064)scale(0.12 -0.12)">
       <use xlink:href="#DejaVuSans-48"/>
       <use x="63.623047" xlink:href="#DejaVuSans-46"/>
       <use x="95.410156" xlink:href="#DejaVuSans-48"/>
       <use x="159.033203" xlink:href="#DejaVuSans-49"/>
       <use x="222.65625" xlink:href="#DejaVuSans-48"/>
      </g>
     </g>
    </g>
    <g id="ytick_4">
     <g id="line2d_9">
      <g>
       <use style="stroke:#000000;stroke-width:0.8;" x="69.59" xlink:href="#mbad908d680" y="95.279503"/>
      </g>
     </g>
     <g id="text_10">
      <!-- 0.015 -->
      <g transform="translate(28.23625 99.838565)scale(0.12 -0.12)">
       <use xlink:href="#DejaVuSans-48"/>
       <use x="63.623047" xlink:href="#DejaVuSans-46"/>
       <use x="95.410156" xlink:href="#DejaVuSans-48"/>
       <use x="159.033203" xlink:href="#DejaVuSans-49"/>
       <use x="222.65625" xlink:href="#DejaVuSans-53"/>
      </g>
     </g>
    </g>
    <g id="ytick_5">
     <g id="line2d_10">
      <g>
       <use style="stroke:#000000;stroke-width:0.8;" x="69.59" xlink:href="#mbad908d680" y="68.786003"/>
      </g>
     </g>
     <g id="text_11">
      <!-- 0.020 -->
      <g transform="translate(28.23625 73.345066)scale(0.12 -0.12)">
       <use xlink:href="#DejaVuSans-48"/>
       <use x="63.623047" xlink:href="#DejaVuSans-46"/>
       <use x="95.410156" xlink:href="#DejaVuSans-48"/>
       <use x="159.033203" xlink:href="#DejaVuSans-50"/>
       <use x="222.65625" xlink:href="#DejaVuSans-48"/>
      </g>
     </g>
    </g>
    <g id="ytick_6">
     <g id="line2d_11">
      <g>
       <use style="stroke:#000000;stroke-width:0.8;" x="69.59" xlink:href="#mbad908d680" y="42.292504"/>
      </g>
     </g>
     <g id="text_12">
      <!-- 0.025 -->
      <g transform="translate(28.23625 46.851567)scale(0.12 -0.12)">
       <use xlink:href="#DejaVuSans-48"/>
       <use x="63.623047" xlink:href="#DejaVuSans-46"/>
       <use x="95.410156" xlink:href="#DejaVuSans-48"/>
       <use x="159.033203" xlink:href="#DejaVuSans-50"/>
       <use x="222.65625" xlink:href="#DejaVuSans-53"/>
      </g>
     </g>
    </g>
    <g id="text_13">
     <!-- Avg. Corr. Coef. -->
     <defs>
      <path d="M 34.1875 63.1875 
L 20.796875 26.90625 
L 47.609375 26.90625 
z
M 28.609375 72.90625 
L 39.796875 72.90625 
L 67.578125 0 
L 57.328125 0 
L 50.6875 18.703125 
L 17.828125 18.703125 
L 11.1875 0 
L 0.78125 0 
z
" id="DejaVuSans-65"/>
      <path d="M 2.984375 54.6875 
L 12.5 54.6875 
L 29.59375 8.796875 
L 46.6875 54.6875 
L 56.203125 54.6875 
L 35.6875 0 
L 23.484375 0 
z
" id="DejaVuSans-118"/>
      <path d="M 45.40625 27.984375 
Q 45.40625 37.75 41.375 43.109375 
Q 37.359375 48.484375 30.078125 48.484375 
Q 22.859375 48.484375 18.828125 43.109375 
Q 14.796875 37.75 14.796875 27.984375 
Q 14.796875 18.265625 18.828125 12.890625 
Q 22.859375 7.515625 30.078125 7.515625 
Q 37.359375 7.515625 41.375 12.890625 
Q 45.40625 18.265625 45.40625 27.984375 
z
M 54.390625 6.78125 
Q 54.390625 -7.171875 48.1875 -13.984375 
Q 42 -20.796875 29.203125 -20.796875 
Q 24.46875 -20.796875 20.265625 -20.09375 
Q 16.0625 -19.390625 12.109375 -17.921875 
L 12.109375 -9.1875 
Q 16.0625 -11.328125 19.921875 -12.34375 
Q 23.78125 -13.375 27.78125 -13.375 
Q 36.625 -13.375 41.015625 -8.765625 
Q 45.40625 -4.15625 45.40625 5.171875 
L 45.40625 9.625 
Q 42.625 4.78125 38.28125 2.390625 
Q 33.9375 0 27.875 0 
Q 17.828125 0 11.671875 7.65625 
Q 5.515625 15.328125 5.515625 27.984375 
Q 5.515625 40.671875 11.671875 48.328125 
Q 17.828125 56 27.875 56 
Q 33.9375 56 38.28125 53.609375 
Q 42.625 51.21875 45.40625 46.390625 
L 45.40625 54.6875 
L 54.390625 54.6875 
z
" id="DejaVuSans-103"/>
      <path d="M 64.40625 67.28125 
L 64.40625 56.890625 
Q 59.421875 61.53125 53.78125 63.8125 
Q 48.140625 66.109375 41.796875 66.109375 
Q 29.296875 66.109375 22.65625 58.46875 
Q 16.015625 50.828125 16.015625 36.375 
Q 16.015625 21.96875 22.65625 14.328125 
Q 29.296875 6.6875 41.796875 6.6875 
Q 48.140625 6.6875 53.78125 8.984375 
Q 59.421875 11.28125 64.40625 15.921875 
L 64.40625 5.609375 
Q 59.234375 2.09375 53.4375 0.328125 
Q 47.65625 -1.421875 41.21875 -1.421875 
Q 24.65625 -1.421875 15.125 8.703125 
Q 5.609375 18.84375 5.609375 36.375 
Q 5.609375 53.953125 15.125 64.078125 
Q 24.65625 74.21875 41.21875 74.21875 
Q 47.75 74.21875 53.53125 72.484375 
Q 59.328125 70.75 64.40625 67.28125 
z
" id="DejaVuSans-67"/>
      <path d="M 30.609375 48.390625 
Q 23.390625 48.390625 19.1875 42.75 
Q 14.984375 37.109375 14.984375 27.296875 
Q 14.984375 17.484375 19.15625 11.84375 
Q 23.34375 6.203125 30.609375 6.203125 
Q 37.796875 6.203125 41.984375 11.859375 
Q 46.1875 17.53125 46.1875 27.296875 
Q 46.1875 37.015625 41.984375 42.703125 
Q 37.796875 48.390625 30.609375 48.390625 
z
M 30.609375 56 
Q 42.328125 56 49.015625 48.375 
Q 55.71875 40.765625 55.71875 27.296875 
Q 55.71875 13.875 49.015625 6.21875 
Q 42.328125 -1.421875 30.609375 -1.421875 
Q 18.84375 -1.421875 12.171875 6.21875 
Q 5.515625 13.875 5.515625 27.296875 
Q 5.515625 40.765625 12.171875 48.375 
Q 18.84375 56 30.609375 56 
z
" id="DejaVuSans-111"/>
      <path d="M 41.109375 46.296875 
Q 39.59375 47.171875 37.8125 47.578125 
Q 36.03125 48 33.890625 48 
Q 26.265625 48 22.1875 43.046875 
Q 18.109375 38.09375 18.109375 28.8125 
L 18.109375 0 
L 9.078125 0 
L 9.078125 54.6875 
L 18.109375 54.6875 
L 18.109375 46.1875 
Q 20.953125 51.171875 25.484375 53.578125 
Q 30.03125 56 36.53125 56 
Q 37.453125 56 38.578125 55.875 
Q 39.703125 55.765625 41.0625 55.515625 
z
" id="DejaVuSans-114"/>
      <path d="M 37.109375 75.984375 
L 37.109375 68.5 
L 28.515625 68.5 
Q 23.6875 68.5 21.796875 66.546875 
Q 19.921875 64.59375 19.921875 59.515625 
L 19.921875 54.6875 
L 34.71875 54.6875 
L 34.71875 47.703125 
L 19.921875 47.703125 
L 19.921875 0 
L 10.890625 0 
L 10.890625 47.703125 
L 2.296875 47.703125 
L 2.296875 54.6875 
L 10.890625 54.6875 
L 10.890625 58.5 
Q 10.890625 67.625 15.140625 71.796875 
Q 19.390625 75.984375 28.609375 75.984375 
z
" id="DejaVuSans-102"/>
     </defs>
     <g transform="translate(21.2415 157.745)rotate(-90)scale(0.144 -0.144)">
      <use xlink:href="#DejaVuSans-65"/>
      <use x="68.330078" xlink:href="#DejaVuSans-118"/>
      <use x="127.509766" xlink:href="#DejaVuSans-103"/>
      <use x="190.986328" xlink:href="#DejaVuSans-46"/>
      <use x="222.773438" xlink:href="#DejaVuSans-32"/>
      <use x="254.560547" xlink:href="#DejaVuSans-67"/>
      <use x="324.384766" xlink:href="#DejaVuSans-111"/>
      <use x="385.566406" xlink:href="#DejaVuSans-114"/>
      <use x="426.664062" xlink:href="#DejaVuSans-114"/>
      <use x="467.636719" xlink:href="#DejaVuSans-46"/>
      <use x="499.423828" xlink:href="#DejaVuSans-32"/>
      <use x="531.210938" xlink:href="#DejaVuSans-67"/>
      <use x="601.035156" xlink:href="#DejaVuSans-111"/>
      <use x="662.216797" xlink:href="#DejaVuSans-101"/>
      <use x="723.740234" xlink:href="#DejaVuSans-102"/>
      <use x="758.835938" xlink:href="#DejaVuSans-46"/>
     </g>
    </g>
   </g>
   <g id="line2d_12">
    <path clip-path="url(#pbe2cba3801)" d="M 71.270034 176.513684 
L 72.950068 209.470339 
L 74.066377 224.2 
M 78.180594 224.2 
L 79.670203 192.266508 
M 84.710305 182.286264 
L 86.390339 193.75424 
L 88.070373 192.70899 
L 89.750407 189.615846 
L 91.430441 203.86996 
L 93.110475 171.002416 
L 94.294474 224.2 
M 96.863471 224.2 
L 98.150576 210.827967 
L 99.83061 183.796466 
L 101.356476 224.2 
M 103.502269 224.2 
L 104.870712 140.810906 
L 106.550746 181.049946 
L 108.23078 178.922204 
L 109.910814 184.433023 
L 111.590847 175.370872 
L 113.437262 224.2 
M 116.035705 224.2 
L 116.630949 200.416177 
L 118.310983 221.000286 
L 118.427086 224.2 
M 125.15285 224.2 
L 126.711153 171.943041 
L 128.269455 224.2 
M 128.741503 224.2 
L 130.07122 208.704899 
L 131.400937 224.2 
M 135.383089 224.2 
L 136.791356 192.896246 
L 138.277577 224.2 
M 139.159169 224.2 
L 140.151424 218.310611 
L 141.831458 159.663989 
L 143.357723 224.2 
M 143.716451 224.2 
L 145.191525 177.406635 
L 146.871559 198.154172 
L 148.551593 211.865284 
L 150.231627 158.86377 
L 151.911661 207.945513 
L 153.591695 209.972203 
L 154.397099 224.2 
M 160.311831 191.258243 
L 161.991864 194.249269 
L 163.671898 206.158998 
L 165.351932 191.661272 
L 167.031966 180.526937 
L 168.712 161.648277 
L 170.289109 224.2 
M 170.506502 224.2 
L 172.072068 168.368239 
L 173.752102 196.86765 
L 174.886113 224.2 
M 176.419573 224.2 
L 177.112169 214.969168 
L 177.942243 224.2 
M 180.848613 224.2 
L 182.152271 190.371789 
L 183.488017 224.2 
M 184.250111 224.2 
L 185.512339 197.858516 
L 187.192373 194.797629 
L 188.872407 188.420272 
L 190.552441 187.050797 
L 192.232475 187.267276 
L 193.912508 184.636982 
L 195.592542 220.88682 
L 196.345207 224.2 
M 197.557702 224.2 
L 198.95261 204.228715 
L 200.632644 194.632578 
L 202.312678 196.914782 
L 203.992712 150.941754 
L 205.672746 211.51515 
L 207.35278 203.927722 
L 209.032814 211.258864 
L 210.022976 224.2 
M 213.575782 224.2 
L 214.072915 222.484381 
L 215.752949 197.595025 
L 217.432983 178.404061 
L 219.113017 188.658866 
L 220.793051 194.29661 
L 222.473085 175.556633 
L 223.850884 224.2 
M 226.053745 224.2 
L 227.513186 197.191968 
L 229.19322 200.57876 
L 230.873254 191.371686 
L 232.36748 224.2 
M 234.499564 224.2 
L 235.913356 193.71022 
L 237.395013 224.2 
M 240.191108 224.2 
L 240.953458 206.14759 
L 242.633492 200.493688 
L 244.313525 180.26693 
L 245.850724 224.2 
M 246.671368 224.2 
L 247.673593 218.163924 
L 248.675818 224.2 
M 249.67539 224.2 
L 251.033661 206.967585 
L 252.713695 171.943041 
L 254.393729 213.230038 
L 256.073763 179.380718 
L 257.511966 224.2 
M 258.052339 224.2 
L 259.433831 189.326295 
L 261.113864 209.537945 
L 262.025752 224.2 
M 263.779209 224.2 
L 264.473932 215.491628 
L 266.153966 175.566485 
L 267.834 193.28062 
L 269.318092 224.2 
M 271.43455 224.2 
L 272.874102 199.763413 
L 274.313653 224.2 
M 275.09016 224.2 
L 276.234169 215.487516 
L 277.914203 185.815335 
L 279.594237 205.53543 
L 281.274271 181.645075 
L 282.954305 220.508513 
L 284.634339 222.641976 
L 285.09842 224.2 
M 286.379211 224.2 
L 287.994407 122.507081 
L 289.674441 125.06075 
L 291.354475 185.172804 
L 293.034508 192.537726 
L 294.522673 224.2 
M 294.877587 224.2 
L 296.394576 186.218509 
L 298.07461 110.303531 
L 299.754644 198.113516 
L 301.231316 224.2 
M 303.291 224.2 
L 304.794746 186.183025 
L 306.47478 213.659442 
L 308.154814 160.423495 
L 309.834847 159.315411 
L 311.514881 190.938985 
L 312.372319 224.2 
M 313.987581 224.2 
L 314.874949 188.478155 
L 316.554983 200.800228 
L 318.235017 205.57373 
L 319.915051 202.665958 
L 321.595085 200.82742 
L 323.275119 199.251629 
L 324.71891 224.2 
M 325.211178 224.2 
L 326.635186 201.49473 
L 328.31522 178.933629 
L 329.995254 192.202506 
L 331.076462 224.2 
M 332.301256 224.2 
L 333.355322 194.358299 
L 334.83319 224.2 
M 335.28785 224.2 
L 336.71539 201.120123 
L 338.395424 186.119168 
L 340.075458 216.929896 
L 341.755492 216.771352 
L 342.839717 224.2 
M 345.184807 224.2 
L 346.795593 129.242888 
L 348.475627 213.06145 
L 350.155661 188.532345 
L 351.733152 224.2 
M 351.971204 224.2 
L 353.515729 197.773279 
L 355.195763 180.743165 
L 356.875797 222.449769 
L 358.555831 201.130708 
L 359.983272 224.2 
M 363.911413 224.2 
L 365.275966 206.543139 
L 366.640519 224.2 
M 367.126424 224.2 
L 368.636034 188.039949 
L 370.316068 183.354961 
L 371.996102 197.291042 
L 373.676136 190.197928 
L 375.356169 213.305703 
L 377.036203 173.910372 
L 378.716237 192.766015 
L 380.396271 210.051721 
L 382.076305 200.981215 
L 383.756339 203.483823 
L 385.436373 178.36615 
L 386.979011 224.2 
M 387.382493 224.2 
L 388.796441 202.507582 
L 390.476475 194.951054 
L 392.156508 188.039949 
L 393.354925 224.2 
M 394.600989 224.2 
L 395.516576 206.794918 
L 397.19661 161.317225 
L 398.655054 224.2 
M 399.156225 224.2 
L 400.556678 176.342088 
L 402.236712 162.203817 
L 403.905406 224.2 
M 403.930841 224.2 
L 405.59678 174.403078 
L 407.276814 196.985727 
L 408.956847 208.528845 
L 410.289687 224.2 
M 412.683206 224.2 
L 413.996949 209.558644 
L 415.380128 224.2 
M 416.371861 224.2 
L 417.357017 219.745047 
L 418.233709 224.2 
M 419.100013 224.2 
L 420.717085 119.355401 
L 422.397119 222.442478 
L 422.634542 224.2 
M 424.408081 224.2 
L 425.757186 180.665023 
L 427.43722 178.230691 
L 429.117254 203.490885 
L 430.797288 181.371891 
L 432.033255 224.2 
M 433.31027 224.2 
L 434.157356 208.551224 
L 435.83739 170.556673 
L 437.517424 210.705137 
L 438.807275 224.2 
M 439.323288 224.2 
L 440.877492 173.778285 
L 442.557525 173.752627 
L 444.237559 175.736685 
L 445.917593 176.075739 
L 447.597627 176.29975 
L 449.277661 175.527275 
L 450.957695 178.346215 
L 452.637729 172.91415 
L 454.317763 179.383024 
L 455.997797 177.191536 
L 457.677831 178.763532 
L 459.357864 197.229728 
L 461.037898 171.612752 
L 462.717932 174.180152 
L 464.397966 178.944112 
L 466.078 178.985101 
L 467.758034 176.496115 
L 469.438068 175.2134 
L 471.118102 170.315445 
L 472.798136 176.0192 
L 474.478169 191.659504 
L 476.158203 179.082465 
L 477.838237 183.388384 
L 479.518271 181.103237 
L 481.198305 174.766514 
L 482.878339 159.174412 
L 484.558373 186.040436 
L 486.238407 178.15301 
L 487.918441 188.368943 
L 491.278508 173.615183 
L 492.958542 178.895758 
L 494.638576 180.315926 
L 496.31861 177.063456 
L 497.998644 177.459755 
L 499.678678 174.664903 
L 501.358712 190.325772 
L 503.038746 181.526669 
L 504.71878 183.033859 
L 506.398814 178.050128 
L 508.078847 197.00588 
L 509.758881 195.571149 
L 511.438915 173.247086 
L 513.118949 195.997283 
L 514.798983 191.518532 
L 515.934333 224.2 
M 517.147666 224.2 
L 518.159051 200.484346 
L 519.839085 168.149947 
L 521.519119 203.644698 
L 523.199153 187.21568 
L 524.879186 186.837016 
L 526.55922 206.659382 
L 528.239254 197.077544 
L 529.919288 144.531819 
L 531.599322 190.634133 
L 533.279356 207.42494 
L 534.95939 148.682716 
L 536.639424 197.738009 
L 538.319458 190.496229 
L 539.999492 214.536023 
L 541.679525 222.528246 
L 543.359559 145.869986 
L 544.875374 224.2 
M 546.90311 224.2 
L 548.399661 205.997293 
L 550.079695 209.901507 
L 551.759729 223.546041 
L 553.439763 148.096963 
L 555.119797 174.667689 
L 556.799831 218.212987 
L 558.479864 206.436416 
L 560.159898 187.269025 
L 561.672711 224.2 
L 561.672711 224.2 
" style="fill:none;stroke:#0000ff;stroke-linecap:square;stroke-width:1.5;"/>
   </g>
   <g id="patch_3">
    <path d="M 69.59 174.76 
L 69.59 26.88 
" style="fill:none;stroke:#000000;stroke-linecap:square;stroke-linejoin:miter;stroke-width:0.8;"/>
   </g>
   <g id="patch_4">
    <path d="M 565.2 174.76 
L 565.2 26.88 
" style="fill:none;stroke:#000000;stroke-linecap:square;stroke-linejoin:miter;stroke-width:0.8;"/>
   </g>
   <g id="patch_5">
    <path d="M 69.59 174.76 
L 565.2 174.76 
" style="fill:none;stroke:#000000;stroke-linecap:square;stroke-linejoin:miter;stroke-width:0.8;"/>
   </g>
   <g id="patch_6">
    <path d="M 69.59 26.88 
L 565.2 26.88 
" style="fill:none;stroke:#000000;stroke-linecap:square;stroke-linejoin:miter;stroke-width:0.8;"/>
   </g>
   <g id="text_14">
    <!-- Motor cortex, Num Trials=10 All unstimulated trials, Num cells = 471 -->
    <defs>
     <path d="M 9.8125 72.90625 
L 24.515625 72.90625 
L 43.109375 23.296875 
L 61.8125 72.90625 
L 76.515625 72.90625 
L 76.515625 0 
L 66.890625 0 
L 66.890625 64.015625 
L 48.09375 14.015625 
L 38.1875 14.015625 
L 19.390625 64.015625 
L 19.390625 0 
L 9.8125 0 
z
" id="DejaVuSans-77"/>
     <path d="M 18.3125 70.21875 
L 18.3125 54.6875 
L 36.8125 54.6875 
L 36.8125 47.703125 
L 18.3125 47.703125 
L 18.3125 18.015625 
Q 18.3125 11.328125 20.140625 9.421875 
Q 21.96875 7.515625 27.59375 7.515625 
L 36.8125 7.515625 
L 36.8125 0 
L 27.59375 0 
Q 17.1875 0 13.234375 3.875 
Q 9.28125 7.765625 9.28125 18.015625 
L 9.28125 47.703125 
L 2.6875 47.703125 
L 2.6875 54.6875 
L 9.28125 54.6875 
L 9.28125 70.21875 
z
" id="DejaVuSans-116"/>
     <path d="M 48.78125 52.59375 
L 48.78125 44.1875 
Q 44.96875 46.296875 41.140625 47.34375 
Q 37.3125 48.390625 33.40625 48.390625 
Q 24.65625 48.390625 19.8125 42.84375 
Q 14.984375 37.3125 14.984375 27.296875 
Q 14.984375 17.28125 19.8125 11.734375 
Q 24.65625 6.203125 33.40625 6.203125 
Q 37.3125 6.203125 41.140625 7.25 
Q 44.96875 8.296875 48.78125 10.40625 
L 48.78125 2.09375 
Q 45.015625 0.34375 40.984375 -0.53125 
Q 36.96875 -1.421875 32.421875 -1.421875 
Q 20.0625 -1.421875 12.78125 6.34375 
Q 5.515625 14.109375 5.515625 27.296875 
Q 5.515625 40.671875 12.859375 48.328125 
Q 20.21875 56 33.015625 56 
Q 37.15625 56 41.109375 55.140625 
Q 45.0625 54.296875 48.78125 52.59375 
z
" id="DejaVuSans-99"/>
     <path d="M 54.890625 54.6875 
L 35.109375 28.078125 
L 55.90625 0 
L 45.3125 0 
L 29.390625 21.484375 
L 13.484375 0 
L 2.875 0 
L 24.125 28.609375 
L 4.6875 54.6875 
L 15.28125 54.6875 
L 29.78125 35.203125 
L 44.28125 54.6875 
z
" id="DejaVuSans-120"/>
     <path d="M 11.71875 12.40625 
L 22.015625 12.40625 
L 22.015625 4 
L 14.015625 -11.625 
L 7.71875 -11.625 
L 11.71875 4 
z
" id="DejaVuSans-44"/>
     <path d="M 9.8125 72.90625 
L 23.09375 72.90625 
L 55.421875 11.921875 
L 55.421875 72.90625 
L 64.984375 72.90625 
L 64.984375 0 
L 51.703125 0 
L 19.390625 60.984375 
L 19.390625 0 
L 9.8125 0 
z
" id="DejaVuSans-78"/>
     <path d="M 8.5 21.578125 
L 8.5 54.6875 
L 17.484375 54.6875 
L 17.484375 21.921875 
Q 17.484375 14.15625 20.5 10.265625 
Q 23.53125 6.390625 29.59375 6.390625 
Q 36.859375 6.390625 41.078125 11.03125 
Q 45.3125 15.671875 45.3125 23.6875 
L 45.3125 54.6875 
L 54.296875 54.6875 
L 54.296875 0 
L 45.3125 0 
L 45.3125 8.40625 
Q 42.046875 3.421875 37.71875 1 
Q 33.40625 -1.421875 27.6875 -1.421875 
Q 18.265625 -1.421875 13.375 4.4375 
Q 8.5 10.296875 8.5 21.578125 
z
M 31.109375 56 
z
" id="DejaVuSans-117"/>
     <path d="M 34.28125 27.484375 
Q 23.390625 27.484375 19.1875 25 
Q 14.984375 22.515625 14.984375 16.5 
Q 14.984375 11.71875 18.140625 8.90625 
Q 21.296875 6.109375 26.703125 6.109375 
Q 34.1875 6.109375 38.703125 11.40625 
Q 43.21875 16.703125 43.21875 25.484375 
L 43.21875 27.484375 
z
M 52.203125 31.203125 
L 52.203125 0 
L 43.21875 0 
L 43.21875 8.296875 
Q 40.140625 3.328125 35.546875 0.953125 
Q 30.953125 -1.421875 24.3125 -1.421875 
Q 15.921875 -1.421875 10.953125 3.296875 
Q 6 8.015625 6 15.921875 
Q 6 25.140625 12.171875 29.828125 
Q 18.359375 34.515625 30.609375 34.515625 
L 43.21875 34.515625 
L 43.21875 35.40625 
Q 43.21875 41.609375 39.140625 45 
Q 35.0625 48.390625 27.6875 48.390625 
Q 23 48.390625 18.546875 47.265625 
Q 14.109375 46.140625 10.015625 43.890625 
L 10.015625 52.203125 
Q 14.9375 54.109375 19.578125 55.046875 
Q 24.21875 56 28.609375 56 
Q 40.484375 56 46.34375 49.84375 
Q 52.203125 43.703125 52.203125 31.203125 
z
" id="DejaVuSans-97"/>
     <path d="M 9.421875 75.984375 
L 18.40625 75.984375 
L 18.40625 0 
L 9.421875 0 
z
" id="DejaVuSans-108"/>
     <path d="M 10.59375 45.40625 
L 73.1875 45.40625 
L 73.1875 37.203125 
L 10.59375 37.203125 
z
M 10.59375 25.484375 
L 73.1875 25.484375 
L 73.1875 17.1875 
L 10.59375 17.1875 
z
" id="DejaVuSans-61"/>
     <path d="M 54.890625 33.015625 
L 54.890625 0 
L 45.90625 0 
L 45.90625 32.71875 
Q 45.90625 40.484375 42.875 44.328125 
Q 39.84375 48.1875 33.796875 48.1875 
Q 26.515625 48.1875 22.3125 43.546875 
Q 18.109375 38.921875 18.109375 30.90625 
L 18.109375 0 
L 9.078125 0 
L 9.078125 54.6875 
L 18.109375 54.6875 
L 18.109375 46.1875 
Q 21.34375 51.125 25.703125 53.5625 
Q 30.078125 56 35.796875 56 
Q 45.21875 56 50.046875 50.171875 
Q 54.890625 44.34375 54.890625 33.015625 
z
" id="DejaVuSans-110"/>
     <path d="M 45.40625 46.390625 
L 45.40625 75.984375 
L 54.390625 75.984375 
L 54.390625 0 
L 45.40625 0 
L 45.40625 8.203125 
Q 42.578125 3.328125 38.25 0.953125 
Q 33.9375 -1.421875 27.875 -1.421875 
Q 17.96875 -1.421875 11.734375 6.484375 
Q 5.515625 14.40625 5.515625 27.296875 
Q 5.515625 40.1875 11.734375 48.09375 
Q 17.96875 56 27.875 56 
Q 33.9375 56 38.25 53.625 
Q 42.578125 51.265625 45.40625 46.390625 
z
M 14.796875 27.296875 
Q 14.796875 17.390625 18.875 11.75 
Q 22.953125 6.109375 30.078125 6.109375 
Q 37.203125 6.109375 41.296875 11.75 
Q 45.40625 17.390625 45.40625 27.296875 
Q 45.40625 37.203125 41.296875 42.84375 
Q 37.203125 48.484375 30.078125 48.484375 
Q 22.953125 48.484375 18.875 42.84375 
Q 14.796875 37.203125 14.796875 27.296875 
z
" id="DejaVuSans-100"/>
     <path d="M 37.796875 64.3125 
L 12.890625 25.390625 
L 37.796875 25.390625 
z
M 35.203125 72.90625 
L 47.609375 72.90625 
L 47.609375 25.390625 
L 58.015625 25.390625 
L 58.015625 17.1875 
L 47.609375 17.1875 
L 47.609375 0 
L 37.796875 0 
L 37.796875 17.1875 
L 4.890625 17.1875 
L 4.890625 26.703125 
z
" id="DejaVuSans-52"/>
     <path d="M 8.203125 72.90625 
L 55.078125 72.90625 
L 55.078125 68.703125 
L 28.609375 0 
L 18.3125 0 
L 43.21875 64.59375 
L 8.203125 64.59375 
z
" id="DejaVuSans-55"/>
    </defs>
    <g transform="translate(109.0375 20.88)scale(0.12 -0.12)">
     <use xlink:href="#DejaVuSans-77"/>
     <use x="86.279297" xlink:href="#DejaVuSans-111"/>
     <use x="147.460938" xlink:href="#DejaVuSans-116"/>
     <use x="186.669922" xlink:href="#DejaVuSans-111"/>
     <use x="247.851562" xlink:href="#DejaVuSans-114"/>
     <use x="288.964844" xlink:href="#DejaVuSans-32"/>
     <use x="320.751953" xlink:href="#DejaVuSans-99"/>
     <use x="375.732422" xlink:href="#DejaVuSans-111"/>
     <use x="436.914062" xlink:href="#DejaVuSans-114"/>
     <use x="478.027344" xlink:href="#DejaVuSans-116"/>
     <use x="517.236328" xlink:href="#DejaVuSans-101"/>
     <use x="578.744141" xlink:href="#DejaVuSans-120"/>
     <use x="637.923828" xlink:href="#DejaVuSans-44"/>
     <use x="669.710938" xlink:href="#DejaVuSans-32"/>
     <use x="701.498047" xlink:href="#DejaVuSans-78"/>
     <use x="776.302734" xlink:href="#DejaVuSans-117"/>
     <use x="839.681641" xlink:href="#DejaVuSans-109"/>
     <use x="937.09375" xlink:href="#DejaVuSans-32"/>
     <use x="968.880859" xlink:href="#DejaVuSans-84"/>
     <use x="1029.746094" xlink:href="#DejaVuSans-114"/>
     <use x="1070.859375" xlink:href="#DejaVuSans-105"/>
     <use x="1098.642578" xlink:href="#DejaVuSans-97"/>
     <use x="1159.921875" xlink:href="#DejaVuSans-108"/>
     <use x="1187.705078" xlink:href="#DejaVuSans-115"/>
     <use x="1239.804688" xlink:href="#DejaVuSans-61"/>
     <use x="1323.59375" xlink:href="#DejaVuSans-49"/>
     <use x="1387.216797" xlink:href="#DejaVuSans-48"/>
     <use x="1450.839844" xlink:href="#DejaVuSans-32"/>
     <use x="1482.626953" xlink:href="#DejaVuSans-65"/>
     <use x="1551.035156" xlink:href="#DejaVuSans-108"/>
     <use x="1578.818359" xlink:href="#DejaVuSans-108"/>
     <use x="1606.601562" xlink:href="#DejaVuSans-32"/>
     <use x="1638.388672" xlink:href="#DejaVuSans-117"/>
     <use x="1701.767578" xlink:href="#DejaVuSans-110"/>
     <use x="1765.146484" xlink:href="#DejaVuSans-115"/>
     <use x="1817.246094" xlink:href="#DejaVuSans-116"/>
     <use x="1856.455078" xlink:href="#DejaVuSans-105"/>
     <use x="1884.238281" xlink:href="#DejaVuSans-109"/>
     <use x="1981.650391" xlink:href="#DejaVuSans-117"/>
     <use x="2045.029297" xlink:href="#DejaVuSans-108"/>
     <use x="2072.8125" xlink:href="#DejaVuSans-97"/>
     <use x="2134.091797" xlink:href="#DejaVuSans-116"/>
     <use x="2173.300781" xlink:href="#DejaVuSans-101"/>
     <use x="2234.824219" xlink:href="#DejaVuSans-100"/>
     <use x="2298.300781" xlink:href="#DejaVuSans-32"/>
     <use x="2330.087891" xlink:href="#DejaVuSans-116"/>
     <use x="2369.296875" xlink:href="#DejaVuSans-114"/>
     <use x="2410.410156" xlink:href="#DejaVuSans-105"/>
     <use x="2438.193359" xlink:href="#DejaVuSans-97"/>
     <use x="2499.472656" xlink:href="#DejaVuSans-108"/>
     <use x="2527.255859" xlink:href="#DejaVuSans-115"/>
     <use x="2579.355469" xlink:href="#DejaVuSans-44"/>
     <use x="2611.142578" xlink:href="#DejaVuSans-32"/>
     <use x="2642.929688" xlink:href="#DejaVuSans-78"/>
     <use x="2717.734375" xlink:href="#DejaVuSans-117"/>
     <use x="2781.113281" xlink:href="#DejaVuSans-109"/>
     <use x="2878.525391" xlink:href="#DejaVuSans-32"/>
     <use x="2910.3125" xlink:href="#DejaVuSans-99"/>
     <use x="2965.292969" xlink:href="#DejaVuSans-101"/>
     <use x="3026.816406" xlink:href="#DejaVuSans-108"/>
     <use x="3054.599609" xlink:href="#DejaVuSans-108"/>
     <use x="3082.382812" xlink:href="#DejaVuSans-115"/>
     <use x="3134.482422" xlink:href="#DejaVuSans-32"/>
     <use x="3166.269531" xlink:href="#DejaVuSans-61"/>
     <use x="3250.058594" xlink:href="#DejaVuSans-32"/>
     <use x="3281.845703" xlink:href="#DejaVuSans-52"/>
     <use x="3345.46875" xlink:href="#DejaVuSans-55"/>
     <use x="3409.091797" xlink:href="#DejaVuSans-49"/>
    </g>
   </g>
   <g id="legend_1">
    <g id="patch_7">
     <path d="M 458.469375 71.7075 
L 556.8 71.7075 
Q 559.2 71.7075 559.2 69.3075 
L 559.2 35.28 
Q 559.2 32.88 556.8 32.88 
L 458.469375 32.88 
Q 456.069375 32.88 456.069375 35.28 
L 456.069375 69.3075 
Q 456.069375 71.7075 458.469375 71.7075 
z
" style="fill:#ffffff;opacity:0.8;stroke:#cccccc;stroke-linejoin:miter;"/>
    </g>
    <g id="line2d_13">
     <path d="M 460.869375 42.598125 
L 484.869375 42.598125 
" style="fill:none;stroke:#0000ff;stroke-linecap:square;stroke-width:1.5;"/>
    </g>
    <g id="line2d_14"/>
    <g id="text_15">
     <!-- Avg. Corr. -->
     <g transform="translate(494.469375 46.798125)scale(0.12 -0.12)">
      <use xlink:href="#DejaVuSans-65"/>
      <use x="68.330078" xlink:href="#DejaVuSans-118"/>
      <use x="127.509766" xlink:href="#DejaVuSans-103"/>
      <use x="190.986328" xlink:href="#DejaVuSans-46"/>
      <use x="222.773438" xlink:href="#DejaVuSans-32"/>
      <use x="254.560547" xlink:href="#DejaVuSans-67"/>
      <use x="324.384766" xlink:href="#DejaVuSans-111"/>
      <use x="385.566406" xlink:href="#DejaVuSans-114"/>
      <use x="426.664062" xlink:href="#DejaVuSans-114"/>
      <use x="467.636719" xlink:href="#DejaVuSans-46"/>
     </g>
    </g>
    <g id="patch_8">
     <path d="M 460.869375 64.411875 
L 484.869375 64.411875 
L 484.869375 56.011875 
L 460.869375 56.011875 
z
" style="fill:#0000ff;opacity:0.3;stroke:#0000ff;stroke-linejoin:miter;"/>
    </g>
    <g id="text_16">
     <!-- Std. Err. -->
     <defs>
      <path d="M 53.515625 70.515625 
L 53.515625 60.890625 
Q 47.90625 63.578125 42.921875 64.890625 
Q 37.9375 66.21875 33.296875 66.21875 
Q 25.25 66.21875 20.875 63.09375 
Q 16.5 59.96875 16.5 54.203125 
Q 16.5 49.359375 19.40625 46.890625 
Q 22.3125 44.4375 30.421875 42.921875 
L 36.375 41.703125 
Q 47.40625 39.59375 52.65625 34.296875 
Q 57.90625 29 57.90625 20.125 
Q 57.90625 9.515625 50.796875 4.046875 
Q 43.703125 -1.421875 29.984375 -1.421875 
Q 24.8125 -1.421875 18.96875 -0.25 
Q 13.140625 0.921875 6.890625 3.21875 
L 6.890625 13.375 
Q 12.890625 10.015625 18.65625 8.296875 
Q 24.421875 6.59375 29.984375 6.59375 
Q 38.421875 6.59375 43.015625 9.90625 
Q 47.609375 13.234375 47.609375 19.390625 
Q 47.609375 24.75 44.3125 27.78125 
Q 41.015625 30.8125 33.5 32.328125 
L 27.484375 33.5 
Q 16.453125 35.6875 11.515625 40.375 
Q 6.59375 45.0625 6.59375 53.421875 
Q 6.59375 63.09375 13.40625 68.65625 
Q 20.21875 74.21875 32.171875 74.21875 
Q 37.3125 74.21875 42.625 73.28125 
Q 47.953125 72.359375 53.515625 70.515625 
z
" id="DejaVuSans-83"/>
      <path d="M 9.8125 72.90625 
L 55.90625 72.90625 
L 55.90625 64.59375 
L 19.671875 64.59375 
L 19.671875 43.015625 
L 54.390625 43.015625 
L 54.390625 34.71875 
L 19.671875 34.71875 
L 19.671875 8.296875 
L 56.78125 8.296875 
L 56.78125 0 
L 9.8125 0 
z
" id="DejaVuSans-69"/>
     </defs>
     <g transform="translate(494.469375 64.411875)scale(0.12 -0.12)">
      <use xlink:href="#DejaVuSans-83"/>
      <use x="63.476562" xlink:href="#DejaVuSans-116"/>
      <use x="102.685547" xlink:href="#DejaVuSans-100"/>
      <use x="166.162109" xlink:href="#DejaVuSans-46"/>
      <use x="197.949219" xlink:href="#DejaVuSans-32"/>
      <use x="229.736328" xlink:href="#DejaVuSans-69"/>
      <use x="292.919922" xlink:href="#DejaVuSans-114"/>
      <use x="334.017578" xlink:href="#DejaVuSans-114"/>
      <use x="374.990234" xlink:href="#DejaVuSans-46"/>
     </g>
    </g>
   </g>
  </g>
 </g>
 <defs>
  <clipPath id="pbe2cba3801">
   <rect height="147.88" width="495.61" x="69.59" y="26.88"/>
  </clipPath>
 </defs>
</svg>
