<?xml version="1.0" encoding="utf-8" standalone="no"?>
<!DOCTYPE svg PUBLIC "-//W3C//DTD SVG 1.1//EN"
  "http://www.w3.org/Graphics/SVG/1.1/DTD/svg11.dtd">
<!-- Created with matplotlib (https://matplotlib.org/) -->
<svg height="216pt" version="1.1" viewBox="0 0 648 216" width="648pt" xmlns="http://www.w3.org/2000/svg" xmlns:xlink="http://www.w3.org/1999/xlink">
 <defs>
  <style type="text/css">
*{stroke-linecap:butt;stroke-linejoin:round;}
  </style>
 </defs>
 <g id="figure_1">
  <g id="patch_1">
   <path d="M 0 216 
L 648 216 
L 648 0 
L 0 0 
z
" style="fill:#ffffff;"/>
  </g>
  <g id="axes_1">
   <g id="patch_2">
    <path d="M 81 192.24 
L 583.2 192.24 
L 583.2 25.92 
L 81 25.92 
z
" style="fill:#ffffff;"/>
   </g>
   <g id="PolyCollection_1">
    <defs>
     <path d="M 156.33 -23.76 
L 156.33 -190.08 
L 420.645789 -190.08 
L 420.645789 -23.76 
L 420.645789 -23.76 
L 156.33 -23.76 
z
" id="ma43b120cdc" style="stroke:#808080;stroke-opacity:0.3;"/>
    </defs>
    <g clip-path="url(#p552f172133)">
     <use style="fill:#808080;fill-opacity:0.3;stroke:#808080;stroke-opacity:0.3;" x="0" xlink:href="#ma43b120cdc" y="216"/>
    </g>
   </g>
   <g id="PolyCollection_2">
    <defs>
     <path d="M 81 -118.561032 
L 81 -82.73616 
L 82.762105 -87.083533 
L 84.524211 -89.522607 
L 86.286316 -92.523252 
L 88.048421 -95.077972 
L 89.810526 -95.705343 
L 91.572632 -98.40879 
L 93.334737 -108.117216 
L 95.096842 -112.008747 
L 96.858947 -111.447293 
L 98.621053 -104.457966 
L 100.383158 -102.97274 
L 102.145263 -105.580747 
L 103.907368 -106.224318 
L 105.669474 -106.061677 
L 107.431579 -113.405617 
L 109.193684 -111.257086 
L 110.955789 -112.72751 
L 112.717895 -115.661194 
L 114.48 -120.574468 
L 116.242105 -115.206348 
L 118.004211 -111.423816 
L 119.766316 -111.729941 
L 121.528421 -116.046879 
L 123.290526 -115.981253 
L 125.052632 -119.738945 
L 126.814737 -121.415095 
L 128.576842 -115.854544 
L 130.338947 -111.620941 
L 132.101053 -112.210857 
L 133.863158 -112.352417 
L 135.625263 -117.3783 
L 137.387368 -117.574664 
L 139.149474 -116.616064 
L 140.911579 -116.255462 
L 142.673684 -121.060971 
L 144.435789 -123.355275 
L 146.197895 -123.476281 
L 147.96 -115.478303 
L 149.722105 -112.338895 
L 151.484211 -112.941749 
L 153.246316 -118.251776 
L 155.008421 -121.943261 
L 156.770526 -119.173407 
L 158.532632 -124.122804 
L 160.294737 -129.045627 
L 162.056842 -133.037148 
L 163.818947 -141.337244 
L 165.581053 -150.494804 
L 167.343158 -147.350264 
L 169.105263 -147.136375 
L 170.867368 -145.814614 
L 172.629474 -141.415241 
L 174.391579 -141.500192 
L 176.153684 -139.01387 
L 177.915789 -136.86456 
L 179.677895 -137.711115 
L 181.44 -137.719776 
L 183.202105 -144.870785 
L 184.964211 -143.490966 
L 186.726316 -145.242876 
L 188.488421 -144.535772 
L 190.250526 -141.222686 
L 192.012632 -138.665198 
L 193.774737 -138.07142 
L 195.536842 -133.931747 
L 197.298947 -127.803644 
L 199.061053 -118.537862 
L 200.823158 -108.010442 
L 202.585263 -107.077743 
L 204.347368 -106.145703 
L 206.109474 -102.300669 
L 207.871579 -100.234551 
L 209.633684 -94.732231 
L 211.395789 -95.606825 
L 213.157895 -93.207017 
L 214.92 -93.39281 
L 216.682105 -93.736001 
L 218.444211 -90.427134 
L 220.206316 -91.772052 
L 221.968421 -93.087955 
L 223.730526 -91.903735 
L 225.492632 -94.183567 
L 227.254737 -97.92289 
L 229.016842 -99.128117 
L 230.778947 -103.021959 
L 232.541053 -100.871944 
L 234.303158 -103.759255 
L 236.065263 -106.947727 
L 237.827368 -104.792279 
L 239.589474 -103.286963 
L 241.351579 -102.172845 
L 243.113684 -102.590871 
L 244.875789 -102.079348 
L 246.637895 -100.773963 
L 248.4 -100.993542 
L 250.162105 -97.052415 
L 251.924211 -95.816121 
L 253.686316 -92.128213 
L 255.448421 -96.371635 
L 257.210526 -96.389147 
L 258.972632 -98.910079 
L 260.734737 -97.370587 
L 262.496842 -96.823763 
L 264.258947 -98.156878 
L 266.021053 -96.219219 
L 267.783158 -93.618684 
L 269.545263 -89.388423 
L 271.307368 -83.96624 
L 273.069474 -80.556812 
L 274.831579 -75.623008 
L 276.593684 -76.407778 
L 278.355789 -73.21517 
L 280.117895 -75.120976 
L 281.88 -74.350747 
L 283.642105 -73.216246 
L 285.404211 -72.528732 
L 287.166316 -68.635427 
L 288.928421 -68.167722 
L 290.690526 -63.564269 
L 292.452632 -63.862158 
L 294.214737 -60.336644 
L 295.976842 -62.318796 
L 297.738947 -61.462193 
L 299.501053 -59.77707 
L 301.263158 -60.0573 
L 303.025263 -62.428821 
L 304.787368 -64.819358 
L 306.549474 -65.898659 
L 308.311579 -64.568375 
L 310.073684 -69.760536 
L 311.835789 -70.281278 
L 313.597895 -73.697361 
L 315.36 -71.438232 
L 317.122105 -70.141496 
L 318.884211 -67.112048 
L 320.646316 -67.69601 
L 322.408421 -67.774844 
L 324.170526 -68.699665 
L 325.932632 -67.227532 
L 327.694737 -64.602593 
L 329.456842 -64.245642 
L 331.218947 -61.080028 
L 332.981053 -59.736173 
L 334.743158 -59.50145 
L 336.505263 -56.267157 
L 338.267368 -53.335353 
L 340.029474 -51.953972 
L 341.791579 -53.009195 
L 343.553684 -51.845412 
L 345.315789 -49.375385 
L 347.077895 -47.442475 
L 348.84 -44.968056 
L 350.602105 -44.740417 
L 352.364211 -42.349675 
L 354.126316 -41.200764 
L 355.888421 -41.16299 
L 357.650526 -41.728345 
L 359.412632 -46.142126 
L 361.174737 -46.002936 
L 362.936842 -47.597876 
L 364.698947 -50.647738 
L 366.461053 -51.155996 
L 368.223158 -54.566465 
L 369.985263 -54.140686 
L 371.747368 -53.555312 
L 373.509474 -54.334869 
L 375.271579 -53.760185 
L 377.033684 -55.164563 
L 378.795789 -55.964728 
L 380.557895 -56.48857 
L 382.32 -56.994569 
L 384.082105 -58.649614 
L 385.844211 -62.518661 
L 387.606316 -65.609929 
L 389.368421 -70.096044 
L 391.130526 -69.47428 
L 392.892632 -72.443925 
L 394.654737 -67.997139 
L 396.416842 -71.070923 
L 398.178947 -73.078769 
L 399.941053 -71.63984 
L 401.703158 -71.116163 
L 403.465263 -68.659139 
L 405.227368 -68.576858 
L 406.989474 -68.087751 
L 408.751579 -69.97089 
L 410.513684 -69.4039 
L 412.275789 -69.262905 
L 414.037895 -69.854149 
L 415.8 -74.461247 
L 417.562105 -71.753404 
L 419.324211 -71.731663 
L 421.086316 -68.723153 
L 422.848421 -68.086365 
L 424.610526 -65.565008 
L 426.372632 -61.995751 
L 428.134737 -59.058249 
L 429.896842 -57.039302 
L 431.658947 -52.191527 
L 433.421053 -48.353315 
L 435.183158 -45.654071 
L 436.945263 -44.307332 
L 438.707368 -41.387801 
L 440.469474 -39.324183 
L 442.231579 -40.32998 
L 443.993684 -38.013249 
L 445.755789 -36.308825 
L 447.517895 -33.481288 
L 449.28 -31.628649 
L 451.042105 -27.023586 
L 452.804211 -26.822786 
L 454.566316 -25.835079 
L 456.328421 -26.420842 
L 458.090526 -26.616322 
L 459.852632 -24.636739 
L 461.614737 -23.76 
L 463.376842 -26.221411 
L 465.138947 -25.140796 
L 466.901053 -26.933046 
L 468.663158 -27.598795 
L 470.425263 -34.427916 
L 472.187368 -36.309654 
L 473.949474 -37.853032 
L 475.711579 -38.09895 
L 477.473684 -43.398318 
L 479.235789 -49.942664 
L 480.997895 -56.48654 
L 482.76 -59.537782 
L 484.522105 -59.921096 
L 486.284211 -62.007972 
L 488.046316 -58.751736 
L 489.808421 -59.805356 
L 491.570526 -59.586326 
L 493.332632 -60.373724 
L 495.094737 -60.34517 
L 496.856842 -59.3481 
L 498.618947 -54.050257 
L 500.381053 -54.884208 
L 502.143158 -52.357279 
L 503.905263 -55.006799 
L 505.667368 -53.406934 
L 507.429474 -58.72872 
L 509.191579 -62.069963 
L 510.953684 -64.891438 
L 512.715789 -60.588993 
L 514.477895 -58.223393 
L 516.24 -54.528125 
L 518.002105 -52.625096 
L 519.764211 -54.848599 
L 521.526316 -51.567463 
L 523.288421 -52.769164 
L 525.050526 -53.311938 
L 526.812632 -52.827293 
L 528.574737 -51.625059 
L 530.336842 -50.126005 
L 532.098947 -53.37845 
L 533.861053 -52.047935 
L 535.623158 -57.033064 
L 537.385263 -62.338228 
L 539.147368 -61.3501 
L 540.909474 -62.910181 
L 542.671579 -59.213903 
L 544.433684 -57.844022 
L 546.195789 -55.934099 
L 547.957895 -56.152924 
L 549.72 -59.516017 
L 551.482105 -60.817197 
L 553.244211 -63.312949 
L 555.006316 -65.57553 
L 556.768421 -68.817896 
L 558.530526 -72.600626 
L 560.292632 -71.735535 
L 562.054737 -73.487545 
L 563.816842 -74.382555 
L 565.578947 -75.941908 
L 567.341053 -74.960313 
L 569.103158 -78.601112 
L 570.865263 -77.19497 
L 572.627368 -76.6744 
L 574.389474 -82.489012 
L 576.151579 -84.201472 
L 577.913684 -86.521799 
L 579.675789 -89.97081 
L 581.437895 -92.327535 
L 583.2 -94.059047 
L 583.2 -146.115202 
L 583.2 -146.115202 
L 581.437895 -144.085691 
L 579.675789 -141.117046 
L 577.913684 -131.336516 
L 576.151579 -127.263246 
L 574.389474 -125.00032 
L 572.627368 -117.922348 
L 570.865263 -118.394728 
L 569.103158 -120.196139 
L 567.341053 -114.800013 
L 565.578947 -114.858687 
L 563.816842 -111.791678 
L 562.054737 -109.973819 
L 560.292632 -107.855114 
L 558.530526 -108.583046 
L 556.768421 -102.548113 
L 555.006316 -99.313001 
L 553.244211 -96.050188 
L 551.482105 -87.467195 
L 549.72 -82.614949 
L 547.957895 -77.492438 
L 546.195789 -76.988596 
L 544.433684 -79.165901 
L 542.671579 -81.392867 
L 540.909474 -96.234293 
L 539.147368 -99.919359 
L 537.385263 -100.264007 
L 535.623158 -94.316927 
L 533.861053 -89.43134 
L 532.098947 -90.362028 
L 530.336842 -87.167106 
L 528.574737 -88.858398 
L 526.812632 -90.437143 
L 525.050526 -90.675881 
L 523.288421 -90.239327 
L 521.526316 -89.043608 
L 519.764211 -92.662223 
L 518.002105 -90.507424 
L 516.24 -92.882326 
L 514.477895 -97.355062 
L 512.715789 -101.466941 
L 510.953684 -109.416859 
L 509.191579 -106.146565 
L 507.429474 -99.83002 
L 505.667368 -82.801459 
L 503.905263 -86.043034 
L 502.143158 -84.364438 
L 500.381053 -87.387277 
L 498.618947 -86.410258 
L 496.856842 -91.308618 
L 495.094737 -92.445854 
L 493.332632 -93.166494 
L 491.570526 -92.966677 
L 489.808421 -93.107547 
L 488.046316 -91.707109 
L 486.284211 -95.429487 
L 484.522105 -93.84854 
L 482.76 -94.341545 
L 480.997895 -91.192761 
L 479.235789 -84.071918 
L 477.473684 -72.869336 
L 475.711579 -64.863884 
L 473.949474 -64.450943 
L 472.187368 -63.645652 
L 470.425263 -61.465254 
L 468.663158 -48.246097 
L 466.901053 -46.622682 
L 465.138947 -43.797892 
L 463.376842 -44.774871 
L 461.614737 -41.32518 
L 459.852632 -42.395628 
L 458.090526 -43.670198 
L 456.328421 -43.193913 
L 454.566316 -42.793895 
L 452.804211 -44.405782 
L 451.042105 -44.09099 
L 449.28 -49.033307 
L 447.517895 -49.979569 
L 445.755789 -53.096114 
L 443.993684 -54.678104 
L 442.231579 -57.329711 
L 440.469474 -55.531587 
L 438.707368 -57.383134 
L 436.945263 -60.032012 
L 435.183158 -61.305658 
L 433.421053 -64.151164 
L 431.658947 -68.278064 
L 429.896842 -74.039445 
L 428.134737 -75.804463 
L 426.372632 -79.865648 
L 424.610526 -86.461767 
L 422.848421 -91.818056 
L 421.086316 -92.50114 
L 419.324211 -95.788007 
L 417.562105 -95.758379 
L 415.8 -99.91014 
L 414.037895 -96.78943 
L 412.275789 -97.922674 
L 410.513684 -98.184595 
L 408.751579 -98.982643 
L 406.989474 -97.314103 
L 405.227368 -97.869566 
L 403.465263 -97.863996 
L 401.703158 -100.126534 
L 399.941053 -100.290394 
L 398.178947 -101.867597 
L 396.416842 -99.938771 
L 394.654737 -96.552282 
L 392.892632 -101.106575 
L 391.130526 -97.222352 
L 389.368421 -95.792606 
L 387.606316 -89.255179 
L 385.844211 -85.937077 
L 384.082105 -81.779356 
L 382.32 -79.53716 
L 380.557895 -76.463519 
L 378.795789 -74.637259 
L 377.033684 -73.896737 
L 375.271579 -73.677982 
L 373.509474 -75.696441 
L 371.747368 -75.320304 
L 369.985263 -76.436208 
L 368.223158 -76.811959 
L 366.461053 -72.361272 
L 364.698947 -71.262885 
L 362.936842 -67.398658 
L 361.174737 -65.302833 
L 359.412632 -64.861815 
L 357.650526 -59.996349 
L 355.888421 -59.269793 
L 354.126316 -58.966754 
L 352.364211 -60.155758 
L 350.602105 -63.006503 
L 348.84 -62.696417 
L 347.077895 -65.067023 
L 345.315789 -66.865026 
L 343.553684 -69.681653 
L 341.791579 -71.1698 
L 340.029474 -68.167907 
L 338.267368 -69.308692 
L 336.505263 -72.504504 
L 334.743158 -75.959901 
L 332.981053 -76.088662 
L 331.218947 -77.842669 
L 329.456842 -81.851391 
L 327.694737 -81.969766 
L 325.932632 -85.118278 
L 324.170526 -86.313848 
L 322.408421 -85.612668 
L 320.646316 -85.725915 
L 318.884211 -85.149163 
L 317.122105 -88.696131 
L 315.36 -90.033402 
L 313.597895 -92.764835 
L 311.835789 -88.646682 
L 310.073684 -87.813857 
L 308.311579 -82.810532 
L 306.549474 -83.763676 
L 304.787368 -83.427753 
L 303.025263 -80.502242 
L 301.263158 -78.080357 
L 299.501053 -78.648076 
L 297.738947 -80.161903 
L 295.976842 -81.163586 
L 294.214737 -79.358905 
L 292.452632 -83.212053 
L 290.690526 -81.759911 
L 288.928421 -86.134595 
L 287.166316 -86.942311 
L 285.404211 -91.133129 
L 283.642105 -92.228624 
L 281.88 -95.782139 
L 280.117895 -99.922893 
L 278.355789 -98.053336 
L 276.593684 -101.338206 
L 274.831579 -100.977319 
L 273.069474 -106.064788 
L 271.307368 -110.196764 
L 269.545263 -119.941273 
L 267.783158 -128.47598 
L 266.021053 -132.99888 
L 264.258947 -136.899196 
L 262.496842 -136.561859 
L 260.734737 -136.886824 
L 258.972632 -137.897459 
L 257.210526 -135.018461 
L 255.448421 -134.334096 
L 253.686316 -129.706922 
L 251.924211 -132.97397 
L 250.162105 -133.079771 
L 248.4 -136.652806 
L 246.637895 -135.136693 
L 244.875789 -134.872293 
L 243.113684 -134.64109 
L 241.351579 -133.175736 
L 239.589474 -133.500501 
L 237.827368 -134.715224 
L 236.065263 -135.575191 
L 234.303158 -128.842045 
L 232.541053 -123.717643 
L 230.778947 -125.58603 
L 229.016842 -130.059154 
L 227.254737 -130.24562 
L 225.492632 -126.78193 
L 223.730526 -124.324277 
L 221.968421 -125.804176 
L 220.206316 -125.12199 
L 218.444211 -123.598464 
L 216.682105 -127.000078 
L 214.92 -126.429181 
L 213.157895 -125.530257 
L 211.395789 -127.15602 
L 209.633684 -125.347139 
L 207.871579 -130.687694 
L 206.109474 -132.427767 
L 204.347368 -135.828762 
L 202.585263 -136.312662 
L 200.823158 -137.127842 
L 199.061053 -148.356433 
L 197.298947 -158.261406 
L 195.536842 -161.048349 
L 193.774737 -159.959938 
L 192.012632 -160.103882 
L 190.250526 -163.125558 
L 188.488421 -166.829082 
L 186.726316 -168.258434 
L 184.964211 -167.500367 
L 183.202105 -169.888741 
L 181.44 -163.941407 
L 179.677895 -168.400063 
L 177.915789 -169.688248 
L 176.153684 -172.651379 
L 174.391579 -175.944243 
L 172.629474 -176.615644 
L 170.867368 -182.991755 
L 169.105263 -185.946492 
L 167.343158 -185.450132 
L 165.581053 -190.08 
L 163.818947 -181.162276 
L 162.056842 -172.876874 
L 160.294737 -169.369289 
L 158.532632 -164.267255 
L 156.770526 -159.575354 
L 155.008421 -164.464483 
L 153.246316 -162.714455 
L 151.484211 -156.101908 
L 149.722105 -154.442125 
L 147.96 -158.102815 
L 146.197895 -166.999333 
L 144.435789 -168.493981 
L 142.673684 -167.505454 
L 140.911579 -163.915693 
L 139.149474 -163.19304 
L 137.387368 -163.265387 
L 135.625263 -161.789149 
L 133.863158 -155.995816 
L 132.101053 -155.593941 
L 130.338947 -154.069626 
L 128.576842 -159.516035 
L 126.814737 -169.805411 
L 125.052632 -167.627336 
L 123.290526 -162.613368 
L 121.528421 -161.754816 
L 119.766316 -154.444555 
L 118.004211 -161.436068 
L 116.242105 -174.489244 
L 114.48 -185.294387 
L 112.717895 -180.642358 
L 110.955789 -178.404097 
L 109.193684 -177.822662 
L 107.431579 -178.289498 
L 105.669474 -170.048775 
L 103.907368 -169.468163 
L 102.145263 -168.157379 
L 100.383158 -164.155275 
L 98.621053 -166.441827 
L 96.858947 -173.776796 
L 95.096842 -173.609654 
L 93.334737 -169.311674 
L 91.572632 -157.26409 
L 89.810526 -154.338188 
L 88.048421 -154.475896 
L 86.286316 -151.943984 
L 84.524211 -141.972467 
L 82.762105 -129.257037 
L 81 -118.561032 
z
" id="m5cc56b59ea" style="stroke:#0000ff;stroke-opacity:0.3;"/>
    </defs>
    <g clip-path="url(#p552f172133)">
     <use style="fill:#0000ff;fill-opacity:0.3;stroke:#0000ff;stroke-opacity:0.3;" x="0" xlink:href="#m5cc56b59ea" y="216"/>
    </g>
   </g>
   <g id="matplotlib.axis_1">
    <g id="xtick_1">
     <g id="line2d_1">
      <defs>
       <path d="M 0 0 
L 0 3.5 
" id="m1c7fda8b8b" style="stroke:#000000;stroke-width:0.8;"/>
      </defs>
      <g>
       <use style="stroke:#000000;stroke-width:0.8;" x="156.33" xlink:href="#m1c7fda8b8b" y="192.24"/>
      </g>
     </g>
     <g id="text_1">
      <!-- 0.0 -->
      <defs>
       <path d="M 31.78125 66.40625 
Q 24.171875 66.40625 20.328125 58.90625 
Q 16.5 51.421875 16.5 36.375 
Q 16.5 21.390625 20.328125 13.890625 
Q 24.171875 6.390625 31.78125 6.390625 
Q 39.453125 6.390625 43.28125 13.890625 
Q 47.125 21.390625 47.125 36.375 
Q 47.125 51.421875 43.28125 58.90625 
Q 39.453125 66.40625 31.78125 66.40625 
z
M 31.78125 74.21875 
Q 44.046875 74.21875 50.515625 64.515625 
Q 56.984375 54.828125 56.984375 36.375 
Q 56.984375 17.96875 50.515625 8.265625 
Q 44.046875 -1.421875 31.78125 -1.421875 
Q 19.53125 -1.421875 13.0625 8.265625 
Q 6.59375 17.96875 6.59375 36.375 
Q 6.59375 54.828125 13.0625 64.515625 
Q 19.53125 74.21875 31.78125 74.21875 
z
" id="DejaVuSans-48"/>
       <path d="M 10.6875 12.40625 
L 21 12.40625 
L 21 0 
L 10.6875 0 
z
" id="DejaVuSans-46"/>
      </defs>
      <g transform="translate(146.788125 208.358125)scale(0.12 -0.12)">
       <use xlink:href="#DejaVuSans-48"/>
       <use x="63.623047" xlink:href="#DejaVuSans-46"/>
       <use x="95.410156" xlink:href="#DejaVuSans-48"/>
      </g>
     </g>
    </g>
    <g id="xtick_2">
     <g id="line2d_2">
      <g>
       <use style="stroke:#000000;stroke-width:0.8;" x="244.435263" xlink:href="#m1c7fda8b8b" y="192.24"/>
      </g>
     </g>
     <g id="text_2">
      <!-- 0.5 -->
      <defs>
       <path d="M 10.796875 72.90625 
L 49.515625 72.90625 
L 49.515625 64.59375 
L 19.828125 64.59375 
L 19.828125 46.734375 
Q 21.96875 47.46875 24.109375 47.828125 
Q 26.265625 48.1875 28.421875 48.1875 
Q 40.625 48.1875 47.75 41.5 
Q 54.890625 34.8125 54.890625 23.390625 
Q 54.890625 11.625 47.5625 5.09375 
Q 40.234375 -1.421875 26.90625 -1.421875 
Q 22.3125 -1.421875 17.546875 -0.640625 
Q 12.796875 0.140625 7.71875 1.703125 
L 7.71875 11.625 
Q 12.109375 9.234375 16.796875 8.0625 
Q 21.484375 6.890625 26.703125 6.890625 
Q 35.15625 6.890625 40.078125 11.328125 
Q 45.015625 15.765625 45.015625 23.390625 
Q 45.015625 31 40.078125 35.4375 
Q 35.15625 39.890625 26.703125 39.890625 
Q 22.75 39.890625 18.8125 39.015625 
Q 14.890625 38.140625 10.796875 36.28125 
z
" id="DejaVuSans-53"/>
      </defs>
      <g transform="translate(234.893388 208.358125)scale(0.12 -0.12)">
       <use xlink:href="#DejaVuSans-48"/>
       <use x="63.623047" xlink:href="#DejaVuSans-46"/>
       <use x="95.410156" xlink:href="#DejaVuSans-53"/>
      </g>
     </g>
    </g>
    <g id="xtick_3">
     <g id="line2d_3">
      <g>
       <use style="stroke:#000000;stroke-width:0.8;" x="332.540526" xlink:href="#m1c7fda8b8b" y="192.24"/>
      </g>
     </g>
     <g id="text_3">
      <!-- 1.0 -->
      <defs>
       <path d="M 12.40625 8.296875 
L 28.515625 8.296875 
L 28.515625 63.921875 
L 10.984375 60.40625 
L 10.984375 69.390625 
L 28.421875 72.90625 
L 38.28125 72.90625 
L 38.28125 8.296875 
L 54.390625 8.296875 
L 54.390625 0 
L 12.40625 0 
z
" id="DejaVuSans-49"/>
      </defs>
      <g transform="translate(322.998651 208.358125)scale(0.12 -0.12)">
       <use xlink:href="#DejaVuSans-49"/>
       <use x="63.623047" xlink:href="#DejaVuSans-46"/>
       <use x="95.410156" xlink:href="#DejaVuSans-48"/>
      </g>
     </g>
    </g>
    <g id="xtick_4">
     <g id="line2d_4">
      <g>
       <use style="stroke:#000000;stroke-width:0.8;" x="420.645789" xlink:href="#m1c7fda8b8b" y="192.24"/>
      </g>
     </g>
     <g id="text_4">
      <!-- 1.5 -->
      <g transform="translate(411.103914 208.358125)scale(0.12 -0.12)">
       <use xlink:href="#DejaVuSans-49"/>
       <use x="63.623047" xlink:href="#DejaVuSans-46"/>
       <use x="95.410156" xlink:href="#DejaVuSans-53"/>
      </g>
     </g>
    </g>
    <g id="xtick_5">
     <g id="line2d_5">
      <g>
       <use style="stroke:#000000;stroke-width:0.8;" x="508.751053" xlink:href="#m1c7fda8b8b" y="192.24"/>
      </g>
     </g>
     <g id="text_5">
      <!-- 2.0 -->
      <defs>
       <path d="M 19.1875 8.296875 
L 53.609375 8.296875 
L 53.609375 0 
L 7.328125 0 
L 7.328125 8.296875 
Q 12.9375 14.109375 22.625 23.890625 
Q 32.328125 33.6875 34.8125 36.53125 
Q 39.546875 41.84375 41.421875 45.53125 
Q 43.3125 49.21875 43.3125 52.78125 
Q 43.3125 58.59375 39.234375 62.25 
Q 35.15625 65.921875 28.609375 65.921875 
Q 23.96875 65.921875 18.8125 64.3125 
Q 13.671875 62.703125 7.8125 59.421875 
L 7.8125 69.390625 
Q 13.765625 71.78125 18.9375 73 
Q 24.125 74.21875 28.421875 74.21875 
Q 39.75 74.21875 46.484375 68.546875 
Q 53.21875 62.890625 53.21875 53.421875 
Q 53.21875 48.921875 51.53125 44.890625 
Q 49.859375 40.875 45.40625 35.40625 
Q 44.1875 33.984375 37.640625 27.21875 
Q 31.109375 20.453125 19.1875 8.296875 
z
" id="DejaVuSans-50"/>
      </defs>
      <g transform="translate(499.209178 208.358125)scale(0.12 -0.12)">
       <use xlink:href="#DejaVuSans-50"/>
       <use x="63.623047" xlink:href="#DejaVuSans-46"/>
       <use x="95.410156" xlink:href="#DejaVuSans-48"/>
      </g>
     </g>
    </g>
    <g id="text_6">
     <!-- Time (s) -->
     <defs>
      <path d="M -0.296875 72.90625 
L 61.375 72.90625 
L 61.375 64.59375 
L 35.5 64.59375 
L 35.5 0 
L 25.59375 0 
L 25.59375 64.59375 
L -0.296875 64.59375 
z
" id="DejaVuSans-84"/>
      <path d="M 9.421875 54.6875 
L 18.40625 54.6875 
L 18.40625 0 
L 9.421875 0 
z
M 9.421875 75.984375 
L 18.40625 75.984375 
L 18.40625 64.59375 
L 9.421875 64.59375 
z
" id="DejaVuSans-105"/>
      <path d="M 52 44.1875 
Q 55.375 50.25 60.0625 53.125 
Q 64.75 56 71.09375 56 
Q 79.640625 56 84.28125 50.015625 
Q 88.921875 44.046875 88.921875 33.015625 
L 88.921875 0 
L 79.890625 0 
L 79.890625 32.71875 
Q 79.890625 40.578125 77.09375 44.375 
Q 74.3125 48.1875 68.609375 48.1875 
Q 61.625 48.1875 57.5625 43.546875 
Q 53.515625 38.921875 53.515625 30.90625 
L 53.515625 0 
L 44.484375 0 
L 44.484375 32.71875 
Q 44.484375 40.625 41.703125 44.40625 
Q 38.921875 48.1875 33.109375 48.1875 
Q 26.21875 48.1875 22.15625 43.53125 
Q 18.109375 38.875 18.109375 30.90625 
L 18.109375 0 
L 9.078125 0 
L 9.078125 54.6875 
L 18.109375 54.6875 
L 18.109375 46.1875 
Q 21.1875 51.21875 25.484375 53.609375 
Q 29.78125 56 35.6875 56 
Q 41.65625 56 45.828125 52.96875 
Q 50 49.953125 52 44.1875 
z
" id="DejaVuSans-109"/>
      <path d="M 56.203125 29.59375 
L 56.203125 25.203125 
L 14.890625 25.203125 
Q 15.484375 15.921875 20.484375 11.0625 
Q 25.484375 6.203125 34.421875 6.203125 
Q 39.59375 6.203125 44.453125 7.46875 
Q 49.3125 8.734375 54.109375 11.28125 
L 54.109375 2.78125 
Q 49.265625 0.734375 44.1875 -0.34375 
Q 39.109375 -1.421875 33.890625 -1.421875 
Q 20.796875 -1.421875 13.15625 6.1875 
Q 5.515625 13.8125 5.515625 26.8125 
Q 5.515625 40.234375 12.765625 48.109375 
Q 20.015625 56 32.328125 56 
Q 43.359375 56 49.78125 48.890625 
Q 56.203125 41.796875 56.203125 29.59375 
z
M 47.21875 32.234375 
Q 47.125 39.59375 43.09375 43.984375 
Q 39.0625 48.390625 32.421875 48.390625 
Q 24.90625 48.390625 20.390625 44.140625 
Q 15.875 39.890625 15.1875 32.171875 
z
" id="DejaVuSans-101"/>
      <path id="DejaVuSans-32"/>
      <path d="M 31 75.875 
Q 24.46875 64.65625 21.28125 53.65625 
Q 18.109375 42.671875 18.109375 31.390625 
Q 18.109375 20.125 21.3125 9.0625 
Q 24.515625 -2 31 -13.1875 
L 23.1875 -13.1875 
Q 15.875 -1.703125 12.234375 9.375 
Q 8.59375 20.453125 8.59375 31.390625 
Q 8.59375 42.28125 12.203125 53.3125 
Q 15.828125 64.359375 23.1875 75.875 
z
" id="DejaVuSans-40"/>
      <path d="M 44.28125 53.078125 
L 44.28125 44.578125 
Q 40.484375 46.53125 36.375 47.5 
Q 32.28125 48.484375 27.875 48.484375 
Q 21.1875 48.484375 17.84375 46.4375 
Q 14.5 44.390625 14.5 40.28125 
Q 14.5 37.15625 16.890625 35.375 
Q 19.28125 33.59375 26.515625 31.984375 
L 29.59375 31.296875 
Q 39.15625 29.25 43.1875 25.515625 
Q 47.21875 21.78125 47.21875 15.09375 
Q 47.21875 7.46875 41.1875 3.015625 
Q 35.15625 -1.421875 24.609375 -1.421875 
Q 20.21875 -1.421875 15.453125 -0.5625 
Q 10.6875 0.296875 5.421875 2 
L 5.421875 11.28125 
Q 10.40625 8.6875 15.234375 7.390625 
Q 20.0625 6.109375 24.8125 6.109375 
Q 31.15625 6.109375 34.5625 8.28125 
Q 37.984375 10.453125 37.984375 14.40625 
Q 37.984375 18.0625 35.515625 20.015625 
Q 33.0625 21.96875 24.703125 23.78125 
L 21.578125 24.515625 
Q 13.234375 26.265625 9.515625 29.90625 
Q 5.8125 33.546875 5.8125 39.890625 
Q 5.8125 47.609375 11.28125 51.796875 
Q 16.75 56 26.8125 56 
Q 31.78125 56 36.171875 55.265625 
Q 40.578125 54.546875 44.28125 53.078125 
z
" id="DejaVuSans-115"/>
      <path d="M 8.015625 75.875 
L 15.828125 75.875 
Q 23.140625 64.359375 26.78125 53.3125 
Q 30.421875 42.28125 30.421875 31.390625 
Q 30.421875 20.453125 26.78125 9.375 
Q 23.140625 -1.703125 15.828125 -13.1875 
L 8.015625 -13.1875 
Q 14.5 -2 17.703125 9.0625 
Q 20.90625 20.125 20.90625 31.390625 
Q 20.90625 42.671875 17.703125 53.65625 
Q 14.5 64.65625 8.015625 75.875 
z
" id="DejaVuSans-41"/>
     </defs>
     <g transform="translate(302.60475 225.7955)scale(0.144 -0.144)">
      <use xlink:href="#DejaVuSans-84"/>
      <use x="61.037109" xlink:href="#DejaVuSans-105"/>
      <use x="88.820312" xlink:href="#DejaVuSans-109"/>
      <use x="186.232422" xlink:href="#DejaVuSans-101"/>
      <use x="247.755859" xlink:href="#DejaVuSans-32"/>
      <use x="279.542969" xlink:href="#DejaVuSans-40"/>
      <use x="318.556641" xlink:href="#DejaVuSans-115"/>
      <use x="370.65625" xlink:href="#DejaVuSans-41"/>
     </g>
    </g>
   </g>
   <g id="matplotlib.axis_2">
    <g id="ytick_1">
     <g id="line2d_6">
      <defs>
       <path d="M 0 0 
L -3.5 0 
" id="m4579c1b261" style="stroke:#000000;stroke-width:0.8;"/>
      </defs>
      <g>
       <use style="stroke:#000000;stroke-width:0.8;" x="81" xlink:href="#m4579c1b261" y="182.114238"/>
      </g>
     </g>
     <g id="text_7">
      <!-- 3.00 -->
      <defs>
       <path d="M 40.578125 39.3125 
Q 47.65625 37.796875 51.625 33 
Q 55.609375 28.21875 55.609375 21.1875 
Q 55.609375 10.40625 48.1875 4.484375 
Q 40.765625 -1.421875 27.09375 -1.421875 
Q 22.515625 -1.421875 17.65625 -0.515625 
Q 12.796875 0.390625 7.625 2.203125 
L 7.625 11.71875 
Q 11.71875 9.328125 16.59375 8.109375 
Q 21.484375 6.890625 26.8125 6.890625 
Q 36.078125 6.890625 40.9375 10.546875 
Q 45.796875 14.203125 45.796875 21.1875 
Q 45.796875 27.640625 41.28125 31.265625 
Q 36.765625 34.90625 28.71875 34.90625 
L 20.21875 34.90625 
L 20.21875 43.015625 
L 29.109375 43.015625 
Q 36.375 43.015625 40.234375 45.921875 
Q 44.09375 48.828125 44.09375 54.296875 
Q 44.09375 59.90625 40.109375 62.90625 
Q 36.140625 65.921875 28.71875 65.921875 
Q 24.65625 65.921875 20.015625 65.03125 
Q 15.375 64.15625 9.8125 62.3125 
L 9.8125 71.09375 
Q 15.4375 72.65625 20.34375 73.4375 
Q 25.25 74.21875 29.59375 74.21875 
Q 40.828125 74.21875 47.359375 69.109375 
Q 53.90625 64.015625 53.90625 55.328125 
Q 53.90625 49.265625 50.4375 45.09375 
Q 46.96875 40.921875 40.578125 39.3125 
z
" id="DejaVuSans-51"/>
      </defs>
      <g transform="translate(47.28125 186.673301)scale(0.12 -0.12)">
       <use xlink:href="#DejaVuSans-51"/>
       <use x="63.623047" xlink:href="#DejaVuSans-46"/>
       <use x="95.410156" xlink:href="#DejaVuSans-48"/>
       <use x="159.033203" xlink:href="#DejaVuSans-48"/>
      </g>
     </g>
    </g>
    <g id="ytick_2">
     <g id="line2d_7">
      <g>
       <use style="stroke:#000000;stroke-width:0.8;" x="81" xlink:href="#m4579c1b261" y="159.172423"/>
      </g>
     </g>
     <g id="text_8">
      <!-- 3.25 -->
      <g transform="translate(47.28125 163.731485)scale(0.12 -0.12)">
       <use xlink:href="#DejaVuSans-51"/>
       <use x="63.623047" xlink:href="#DejaVuSans-46"/>
       <use x="95.410156" xlink:href="#DejaVuSans-50"/>
       <use x="159.033203" xlink:href="#DejaVuSans-53"/>
      </g>
     </g>
    </g>
    <g id="ytick_3">
     <g id="line2d_8">
      <g>
       <use style="stroke:#000000;stroke-width:0.8;" x="81" xlink:href="#m4579c1b261" y="136.230607"/>
      </g>
     </g>
     <g id="text_9">
      <!-- 3.50 -->
      <g transform="translate(47.28125 140.78967)scale(0.12 -0.12)">
       <use xlink:href="#DejaVuSans-51"/>
       <use x="63.623047" xlink:href="#DejaVuSans-46"/>
       <use x="95.410156" xlink:href="#DejaVuSans-53"/>
       <use x="159.033203" xlink:href="#DejaVuSans-48"/>
      </g>
     </g>
    </g>
    <g id="ytick_4">
     <g id="line2d_9">
      <g>
       <use style="stroke:#000000;stroke-width:0.8;" x="81" xlink:href="#m4579c1b261" y="113.288791"/>
      </g>
     </g>
     <g id="text_10">
      <!-- 3.75 -->
      <defs>
       <path d="M 8.203125 72.90625 
L 55.078125 72.90625 
L 55.078125 68.703125 
L 28.609375 0 
L 18.3125 0 
L 43.21875 64.59375 
L 8.203125 64.59375 
z
" id="DejaVuSans-55"/>
      </defs>
      <g transform="translate(47.28125 117.847854)scale(0.12 -0.12)">
       <use xlink:href="#DejaVuSans-51"/>
       <use x="63.623047" xlink:href="#DejaVuSans-46"/>
       <use x="95.410156" xlink:href="#DejaVuSans-55"/>
       <use x="159.033203" xlink:href="#DejaVuSans-53"/>
      </g>
     </g>
    </g>
    <g id="ytick_5">
     <g id="line2d_10">
      <g>
       <use style="stroke:#000000;stroke-width:0.8;" x="81" xlink:href="#m4579c1b261" y="90.346976"/>
      </g>
     </g>
     <g id="text_11">
      <!-- 4.00 -->
      <defs>
       <path d="M 37.796875 64.3125 
L 12.890625 25.390625 
L 37.796875 25.390625 
z
M 35.203125 72.90625 
L 47.609375 72.90625 
L 47.609375 25.390625 
L 58.015625 25.390625 
L 58.015625 17.1875 
L 47.609375 17.1875 
L 47.609375 0 
L 37.796875 0 
L 37.796875 17.1875 
L 4.890625 17.1875 
L 4.890625 26.703125 
z
" id="DejaVuSans-52"/>
      </defs>
      <g transform="translate(47.28125 94.906038)scale(0.12 -0.12)">
       <use xlink:href="#DejaVuSans-52"/>
       <use x="63.623047" xlink:href="#DejaVuSans-46"/>
       <use x="95.410156" xlink:href="#DejaVuSans-48"/>
       <use x="159.033203" xlink:href="#DejaVuSans-48"/>
      </g>
     </g>
    </g>
    <g id="ytick_6">
     <g id="line2d_11">
      <g>
       <use style="stroke:#000000;stroke-width:0.8;" x="81" xlink:href="#m4579c1b261" y="67.40516"/>
      </g>
     </g>
     <g id="text_12">
      <!-- 4.25 -->
      <g transform="translate(47.28125 71.964223)scale(0.12 -0.12)">
       <use xlink:href="#DejaVuSans-52"/>
       <use x="63.623047" xlink:href="#DejaVuSans-46"/>
       <use x="95.410156" xlink:href="#DejaVuSans-50"/>
       <use x="159.033203" xlink:href="#DejaVuSans-53"/>
      </g>
     </g>
    </g>
    <g id="ytick_7">
     <g id="line2d_12">
      <g>
       <use style="stroke:#000000;stroke-width:0.8;" x="81" xlink:href="#m4579c1b261" y="44.463345"/>
      </g>
     </g>
     <g id="text_13">
      <!-- 4.50 -->
      <g transform="translate(47.28125 49.022407)scale(0.12 -0.12)">
       <use xlink:href="#DejaVuSans-52"/>
       <use x="63.623047" xlink:href="#DejaVuSans-46"/>
       <use x="95.410156" xlink:href="#DejaVuSans-53"/>
       <use x="159.033203" xlink:href="#DejaVuSans-48"/>
      </g>
     </g>
    </g>
    <g id="text_14">
     <!-- Act. Cells Moving Var. -->
     <defs>
      <path d="M 34.1875 63.1875 
L 20.796875 26.90625 
L 47.609375 26.90625 
z
M 28.609375 72.90625 
L 39.796875 72.90625 
L 67.578125 0 
L 57.328125 0 
L 50.6875 18.703125 
L 17.828125 18.703125 
L 11.1875 0 
L 0.78125 0 
z
" id="DejaVuSans-65"/>
      <path d="M 48.78125 52.59375 
L 48.78125 44.1875 
Q 44.96875 46.296875 41.140625 47.34375 
Q 37.3125 48.390625 33.40625 48.390625 
Q 24.65625 48.390625 19.8125 42.84375 
Q 14.984375 37.3125 14.984375 27.296875 
Q 14.984375 17.28125 19.8125 11.734375 
Q 24.65625 6.203125 33.40625 6.203125 
Q 37.3125 6.203125 41.140625 7.25 
Q 44.96875 8.296875 48.78125 10.40625 
L 48.78125 2.09375 
Q 45.015625 0.34375 40.984375 -0.53125 
Q 36.96875 -1.421875 32.421875 -1.421875 
Q 20.0625 -1.421875 12.78125 6.34375 
Q 5.515625 14.109375 5.515625 27.296875 
Q 5.515625 40.671875 12.859375 48.328125 
Q 20.21875 56 33.015625 56 
Q 37.15625 56 41.109375 55.140625 
Q 45.0625 54.296875 48.78125 52.59375 
z
" id="DejaVuSans-99"/>
      <path d="M 18.3125 70.21875 
L 18.3125 54.6875 
L 36.8125 54.6875 
L 36.8125 47.703125 
L 18.3125 47.703125 
L 18.3125 18.015625 
Q 18.3125 11.328125 20.140625 9.421875 
Q 21.96875 7.515625 27.59375 7.515625 
L 36.8125 7.515625 
L 36.8125 0 
L 27.59375 0 
Q 17.1875 0 13.234375 3.875 
Q 9.28125 7.765625 9.28125 18.015625 
L 9.28125 47.703125 
L 2.6875 47.703125 
L 2.6875 54.6875 
L 9.28125 54.6875 
L 9.28125 70.21875 
z
" id="DejaVuSans-116"/>
      <path d="M 64.40625 67.28125 
L 64.40625 56.890625 
Q 59.421875 61.53125 53.78125 63.8125 
Q 48.140625 66.109375 41.796875 66.109375 
Q 29.296875 66.109375 22.65625 58.46875 
Q 16.015625 50.828125 16.015625 36.375 
Q 16.015625 21.96875 22.65625 14.328125 
Q 29.296875 6.6875 41.796875 6.6875 
Q 48.140625 6.6875 53.78125 8.984375 
Q 59.421875 11.28125 64.40625 15.921875 
L 64.40625 5.609375 
Q 59.234375 2.09375 53.4375 0.328125 
Q 47.65625 -1.421875 41.21875 -1.421875 
Q 24.65625 -1.421875 15.125 8.703125 
Q 5.609375 18.84375 5.609375 36.375 
Q 5.609375 53.953125 15.125 64.078125 
Q 24.65625 74.21875 41.21875 74.21875 
Q 47.75 74.21875 53.53125 72.484375 
Q 59.328125 70.75 64.40625 67.28125 
z
" id="DejaVuSans-67"/>
      <path d="M 9.421875 75.984375 
L 18.40625 75.984375 
L 18.40625 0 
L 9.421875 0 
z
" id="DejaVuSans-108"/>
      <path d="M 9.8125 72.90625 
L 24.515625 72.90625 
L 43.109375 23.296875 
L 61.8125 72.90625 
L 76.515625 72.90625 
L 76.515625 0 
L 66.890625 0 
L 66.890625 64.015625 
L 48.09375 14.015625 
L 38.1875 14.015625 
L 19.390625 64.015625 
L 19.390625 0 
L 9.8125 0 
z
" id="DejaVuSans-77"/>
      <path d="M 30.609375 48.390625 
Q 23.390625 48.390625 19.1875 42.75 
Q 14.984375 37.109375 14.984375 27.296875 
Q 14.984375 17.484375 19.15625 11.84375 
Q 23.34375 6.203125 30.609375 6.203125 
Q 37.796875 6.203125 41.984375 11.859375 
Q 46.1875 17.53125 46.1875 27.296875 
Q 46.1875 37.015625 41.984375 42.703125 
Q 37.796875 48.390625 30.609375 48.390625 
z
M 30.609375 56 
Q 42.328125 56 49.015625 48.375 
Q 55.71875 40.765625 55.71875 27.296875 
Q 55.71875 13.875 49.015625 6.21875 
Q 42.328125 -1.421875 30.609375 -1.421875 
Q 18.84375 -1.421875 12.171875 6.21875 
Q 5.515625 13.875 5.515625 27.296875 
Q 5.515625 40.765625 12.171875 48.375 
Q 18.84375 56 30.609375 56 
z
" id="DejaVuSans-111"/>
      <path d="M 2.984375 54.6875 
L 12.5 54.6875 
L 29.59375 8.796875 
L 46.6875 54.6875 
L 56.203125 54.6875 
L 35.6875 0 
L 23.484375 0 
z
" id="DejaVuSans-118"/>
      <path d="M 54.890625 33.015625 
L 54.890625 0 
L 45.90625 0 
L 45.90625 32.71875 
Q 45.90625 40.484375 42.875 44.328125 
Q 39.84375 48.1875 33.796875 48.1875 
Q 26.515625 48.1875 22.3125 43.546875 
Q 18.109375 38.921875 18.109375 30.90625 
L 18.109375 0 
L 9.078125 0 
L 9.078125 54.6875 
L 18.109375 54.6875 
L 18.109375 46.1875 
Q 21.34375 51.125 25.703125 53.5625 
Q 30.078125 56 35.796875 56 
Q 45.21875 56 50.046875 50.171875 
Q 54.890625 44.34375 54.890625 33.015625 
z
" id="DejaVuSans-110"/>
      <path d="M 45.40625 27.984375 
Q 45.40625 37.75 41.375 43.109375 
Q 37.359375 48.484375 30.078125 48.484375 
Q 22.859375 48.484375 18.828125 43.109375 
Q 14.796875 37.75 14.796875 27.984375 
Q 14.796875 18.265625 18.828125 12.890625 
Q 22.859375 7.515625 30.078125 7.515625 
Q 37.359375 7.515625 41.375 12.890625 
Q 45.40625 18.265625 45.40625 27.984375 
z
M 54.390625 6.78125 
Q 54.390625 -7.171875 48.1875 -13.984375 
Q 42 -20.796875 29.203125 -20.796875 
Q 24.46875 -20.796875 20.265625 -20.09375 
Q 16.0625 -19.390625 12.109375 -17.921875 
L 12.109375 -9.1875 
Q 16.0625 -11.328125 19.921875 -12.34375 
Q 23.78125 -13.375 27.78125 -13.375 
Q 36.625 -13.375 41.015625 -8.765625 
Q 45.40625 -4.15625 45.40625 5.171875 
L 45.40625 9.625 
Q 42.625 4.78125 38.28125 2.390625 
Q 33.9375 0 27.875 0 
Q 17.828125 0 11.671875 7.65625 
Q 5.515625 15.328125 5.515625 27.984375 
Q 5.515625 40.671875 11.671875 48.328125 
Q 17.828125 56 27.875 56 
Q 33.9375 56 38.28125 53.609375 
Q 42.625 51.21875 45.40625 46.390625 
L 45.40625 54.6875 
L 54.390625 54.6875 
z
" id="DejaVuSans-103"/>
      <path d="M 28.609375 0 
L 0.78125 72.90625 
L 11.078125 72.90625 
L 34.1875 11.53125 
L 57.328125 72.90625 
L 67.578125 72.90625 
L 39.796875 0 
z
" id="DejaVuSans-86"/>
      <path d="M 34.28125 27.484375 
Q 23.390625 27.484375 19.1875 25 
Q 14.984375 22.515625 14.984375 16.5 
Q 14.984375 11.71875 18.140625 8.90625 
Q 21.296875 6.109375 26.703125 6.109375 
Q 34.1875 6.109375 38.703125 11.40625 
Q 43.21875 16.703125 43.21875 25.484375 
L 43.21875 27.484375 
z
M 52.203125 31.203125 
L 52.203125 0 
L 43.21875 0 
L 43.21875 8.296875 
Q 40.140625 3.328125 35.546875 0.953125 
Q 30.953125 -1.421875 24.3125 -1.421875 
Q 15.921875 -1.421875 10.953125 3.296875 
Q 6 8.015625 6 15.921875 
Q 6 25.140625 12.171875 29.828125 
Q 18.359375 34.515625 30.609375 34.515625 
L 43.21875 34.515625 
L 43.21875 35.40625 
Q 43.21875 41.609375 39.140625 45 
Q 35.0625 48.390625 27.6875 48.390625 
Q 23 48.390625 18.546875 47.265625 
Q 14.109375 46.140625 10.015625 43.890625 
L 10.015625 52.203125 
Q 14.9375 54.109375 19.578125 55.046875 
Q 24.21875 56 28.609375 56 
Q 40.484375 56 46.34375 49.84375 
Q 52.203125 43.703125 52.203125 31.203125 
z
" id="DejaVuSans-97"/>
      <path d="M 41.109375 46.296875 
Q 39.59375 47.171875 37.8125 47.578125 
Q 36.03125 48 33.890625 48 
Q 26.265625 48 22.1875 43.046875 
Q 18.109375 38.09375 18.109375 28.8125 
L 18.109375 0 
L 9.078125 0 
L 9.078125 54.6875 
L 18.109375 54.6875 
L 18.109375 46.1875 
Q 20.953125 51.171875 25.484375 53.578125 
Q 30.03125 56 36.53125 56 
Q 37.453125 56 38.578125 55.875 
Q 39.703125 55.765625 41.0625 55.515625 
z
" id="DejaVuSans-114"/>
     </defs>
     <g transform="translate(40.2865 187.72875)rotate(-90)scale(0.144 -0.144)">
      <use xlink:href="#DejaVuSans-65"/>
      <use x="68.392578" xlink:href="#DejaVuSans-99"/>
      <use x="123.373047" xlink:href="#DejaVuSans-116"/>
      <use x="162.582031" xlink:href="#DejaVuSans-46"/>
      <use x="194.369141" xlink:href="#DejaVuSans-32"/>
      <use x="226.15625" xlink:href="#DejaVuSans-67"/>
      <use x="295.980469" xlink:href="#DejaVuSans-101"/>
      <use x="357.503906" xlink:href="#DejaVuSans-108"/>
      <use x="385.287109" xlink:href="#DejaVuSans-108"/>
      <use x="413.070312" xlink:href="#DejaVuSans-115"/>
      <use x="465.169922" xlink:href="#DejaVuSans-32"/>
      <use x="496.957031" xlink:href="#DejaVuSans-77"/>
      <use x="583.236328" xlink:href="#DejaVuSans-111"/>
      <use x="644.417969" xlink:href="#DejaVuSans-118"/>
      <use x="703.597656" xlink:href="#DejaVuSans-105"/>
      <use x="731.380859" xlink:href="#DejaVuSans-110"/>
      <use x="794.759766" xlink:href="#DejaVuSans-103"/>
      <use x="858.236328" xlink:href="#DejaVuSans-32"/>
      <use x="890.023438" xlink:href="#DejaVuSans-86"/>
      <use x="958.322266" xlink:href="#DejaVuSans-97"/>
      <use x="1019.601562" xlink:href="#DejaVuSans-114"/>
      <use x="1060.574219" xlink:href="#DejaVuSans-46"/>
     </g>
    </g>
   </g>
   <g id="line2d_13">
    <path clip-path="url(#p552f172133)" d="M 81 115.351404 
L 84.524211 100.252463 
L 86.286316 93.766382 
L 88.048421 91.223066 
L 89.810526 90.978234 
L 91.572632 88.16356 
L 93.334737 77.285555 
L 95.096842 73.190799 
L 96.858947 73.387956 
L 98.621053 80.550104 
L 100.383158 82.435993 
L 102.145263 79.130937 
L 103.907368 78.153759 
L 105.669474 77.944774 
L 107.431579 70.152443 
L 109.193684 71.460126 
L 110.955789 70.434197 
L 112.717895 67.848224 
L 114.48 63.065572 
L 118.004211 79.570058 
L 119.766316 82.912752 
L 121.528421 77.099153 
L 123.290526 76.702689 
L 125.052632 72.316859 
L 126.814737 70.389747 
L 128.576842 78.31471 
L 130.338947 83.154717 
L 132.101053 82.097601 
L 133.863158 81.825884 
L 135.625263 76.416275 
L 137.387368 75.579974 
L 139.149474 76.095448 
L 140.911579 75.914423 
L 142.673684 71.716788 
L 144.435789 70.075372 
L 146.197895 70.762193 
L 147.96 79.209441 
L 149.722105 82.60949 
L 151.484211 81.478172 
L 153.246316 75.516884 
L 155.008421 72.796128 
L 156.770526 76.625619 
L 160.294737 66.792542 
L 162.056842 63.042989 
L 163.818947 54.75024 
L 165.581053 45.712598 
L 167.343158 49.599802 
L 169.105263 49.458566 
L 170.867368 51.596815 
L 172.629474 56.984557 
L 174.391579 57.277782 
L 176.153684 60.167376 
L 177.915789 62.723596 
L 179.677895 62.944411 
L 181.44 65.169409 
L 183.202105 58.620237 
L 184.964211 60.504334 
L 186.726316 59.249345 
L 188.488421 60.317573 
L 190.250526 63.825878 
L 192.012632 66.61546 
L 193.774737 66.984321 
L 195.536842 68.509952 
L 197.298947 72.967475 
L 199.061053 82.552852 
L 200.823158 93.430858 
L 202.585263 94.304797 
L 204.347368 95.012768 
L 206.109474 98.635782 
L 207.871579 100.538877 
L 209.633684 105.960315 
L 211.395789 104.618577 
L 213.157895 106.631363 
L 216.682105 105.63196 
L 218.444211 108.987201 
L 220.206316 107.552979 
L 221.968421 106.553935 
L 223.730526 107.885994 
L 225.492632 105.517251 
L 227.254737 101.915745 
L 229.016842 101.406365 
L 230.778947 101.696005 
L 232.541053 103.705206 
L 234.303158 99.69935 
L 236.065263 94.738541 
L 237.827368 96.246249 
L 239.589474 97.606268 
L 241.351579 98.325709 
L 243.113684 97.384019 
L 244.875789 97.524179 
L 246.637895 98.044672 
L 248.4 97.176826 
L 250.162105 100.933907 
L 251.924211 101.604955 
L 253.686316 105.082432 
L 255.448421 100.647134 
L 257.210526 100.296196 
L 258.972632 97.596231 
L 260.734737 98.871294 
L 262.496842 99.307189 
L 264.258947 98.471963 
L 266.021053 101.390951 
L 267.783158 104.952668 
L 269.545263 111.335152 
L 271.307368 118.918498 
L 273.069474 122.6892 
L 274.831579 127.699836 
L 276.593684 127.127008 
L 278.355789 130.365747 
L 280.117895 128.478066 
L 283.642105 133.277565 
L 285.404211 134.16907 
L 287.166316 138.211131 
L 288.928421 138.848842 
L 290.690526 143.33791 
L 292.452632 142.462895 
L 294.214737 146.152225 
L 295.976842 144.258809 
L 297.738947 145.187952 
L 299.501053 146.787427 
L 301.263158 146.931172 
L 303.025263 144.534469 
L 304.787368 141.876445 
L 306.549474 141.168833 
L 308.311579 142.310547 
L 310.073684 137.212804 
L 311.835789 136.53602 
L 313.597895 132.768902 
L 315.36 135.264183 
L 317.122105 136.581187 
L 318.884211 139.869394 
L 320.646316 139.289038 
L 322.408421 139.306244 
L 324.170526 138.493244 
L 325.932632 139.827095 
L 327.694737 142.713821 
L 329.456842 142.951484 
L 331.218947 146.538652 
L 332.981053 148.087583 
L 334.743158 148.269325 
L 336.505263 151.61417 
L 338.267368 154.677978 
L 340.029474 155.939061 
L 341.791579 153.910502 
L 343.553684 155.236467 
L 345.315789 157.879795 
L 347.077895 159.745251 
L 348.84 162.167764 
L 350.602105 162.12654 
L 352.364211 164.747284 
L 354.126316 165.916241 
L 355.888421 165.783609 
L 357.650526 165.137653 
L 359.412632 160.49803 
L 361.174737 160.347115 
L 362.936842 158.501733 
L 364.698947 155.044688 
L 366.461053 154.241366 
L 368.223158 150.310788 
L 369.985263 150.711553 
L 371.747368 151.562192 
L 373.509474 150.984345 
L 375.271579 152.280916 
L 378.795789 150.699006 
L 380.557895 149.523955 
L 382.32 147.734135 
L 384.082105 145.785515 
L 385.844211 141.772131 
L 387.606316 138.567446 
L 389.368421 133.055675 
L 391.130526 132.651684 
L 392.892632 129.22475 
L 394.654737 133.725289 
L 396.416842 130.495153 
L 398.178947 128.526817 
L 399.941053 130.034883 
L 401.703158 130.378652 
L 403.465263 132.738433 
L 405.227368 132.776788 
L 406.989474 133.299073 
L 408.751579 131.523233 
L 410.513684 132.205752 
L 414.037895 132.67821 
L 415.8 128.814307 
L 417.562105 132.244108 
L 419.324211 132.240165 
L 421.086316 135.387854 
L 422.848421 136.047789 
L 424.610526 139.986612 
L 426.372632 145.0693 
L 428.134737 148.568644 
L 429.896842 150.460627 
L 431.658947 155.765205 
L 433.421053 159.74776 
L 435.183158 162.520135 
L 436.945263 163.830328 
L 438.707368 166.614533 
L 440.469474 168.572115 
L 442.231579 167.170155 
L 443.993684 169.654323 
L 445.755789 171.297531 
L 447.517895 174.269571 
L 449.28 175.669022 
L 451.042105 180.442712 
L 452.804211 180.385716 
L 454.566316 181.685513 
L 456.328421 181.192623 
L 458.090526 180.85674 
L 459.852632 182.483817 
L 461.614737 183.45741 
L 463.376842 180.501859 
L 465.138947 181.530656 
L 466.901053 179.222136 
L 468.663158 178.077554 
L 470.425263 168.053415 
L 472.187368 166.022347 
L 473.949474 164.848013 
L 475.711579 164.518583 
L 477.473684 157.866173 
L 479.235789 148.992709 
L 480.997895 142.160349 
L 482.76 139.060337 
L 484.522105 139.115182 
L 486.284211 137.281271 
L 488.046316 140.770577 
L 489.808421 139.543549 
L 491.570526 139.723499 
L 493.332632 139.229891 
L 495.094737 139.604488 
L 496.856842 140.671641 
L 498.618947 145.769742 
L 500.381053 144.864258 
L 502.143158 147.639142 
L 503.905263 145.475083 
L 505.667368 147.895803 
L 507.429474 136.72063 
L 509.191579 131.891736 
L 510.953684 128.845852 
L 512.715789 134.972033 
L 514.477895 138.210773 
L 516.24 142.294774 
L 518.002105 144.43374 
L 519.764211 142.244589 
L 521.526316 145.694464 
L 523.288421 144.495755 
L 525.050526 144.00609 
L 526.812632 144.367782 
L 528.574737 145.758271 
L 530.336842 147.353445 
L 532.098947 144.129761 
L 533.861053 145.260362 
L 535.623158 140.325004 
L 537.385263 134.698882 
L 539.147368 135.36527 
L 540.909474 136.427763 
L 542.671579 145.696615 
L 544.433684 147.495039 
L 546.195789 149.538652 
L 547.957895 149.177319 
L 549.72 144.934517 
L 551.482105 141.857804 
L 553.244211 136.318431 
L 555.006316 133.555735 
L 556.768421 130.316996 
L 558.530526 125.408164 
L 560.292632 126.204675 
L 562.054737 124.269318 
L 563.816842 122.912883 
L 565.578947 120.599703 
L 567.341053 121.119837 
L 569.103158 116.601375 
L 570.865263 118.205151 
L 572.627368 118.701626 
L 574.389474 112.255334 
L 576.151579 110.267641 
L 577.913684 107.070842 
L 579.675789 100.456072 
L 581.437895 97.793387 
L 583.2 95.912875 
L 583.2 95.912875 
" style="fill:none;stroke:#0000ff;stroke-linecap:square;stroke-width:1.5;"/>
   </g>
   <g id="patch_3">
    <path d="M 81 192.24 
L 81 25.92 
" style="fill:none;stroke:#000000;stroke-linecap:square;stroke-linejoin:miter;stroke-width:0.8;"/>
   </g>
   <g id="patch_4">
    <path d="M 583.2 192.24 
L 583.2 25.92 
" style="fill:none;stroke:#000000;stroke-linecap:square;stroke-linejoin:miter;stroke-width:0.8;"/>
   </g>
   <g id="patch_5">
    <path d="M 81 192.24 
L 583.2 192.24 
" style="fill:none;stroke:#000000;stroke-linecap:square;stroke-linejoin:miter;stroke-width:0.8;"/>
   </g>
   <g id="patch_6">
    <path d="M 81 25.92 
L 583.2 25.92 
" style="fill:none;stroke:#000000;stroke-linecap:square;stroke-linejoin:miter;stroke-width:0.8;"/>
   </g>
   <g id="text_15">
    <!-- Hippocampus, Num Trials=160 All stimulated trials -->
    <defs>
     <path d="M 9.8125 72.90625 
L 19.671875 72.90625 
L 19.671875 43.015625 
L 55.515625 43.015625 
L 55.515625 72.90625 
L 65.375 72.90625 
L 65.375 0 
L 55.515625 0 
L 55.515625 34.71875 
L 19.671875 34.71875 
L 19.671875 0 
L 9.8125 0 
z
" id="DejaVuSans-72"/>
     <path d="M 18.109375 8.203125 
L 18.109375 -20.796875 
L 9.078125 -20.796875 
L 9.078125 54.6875 
L 18.109375 54.6875 
L 18.109375 46.390625 
Q 20.953125 51.265625 25.265625 53.625 
Q 29.59375 56 35.59375 56 
Q 45.5625 56 51.78125 48.09375 
Q 58.015625 40.1875 58.015625 27.296875 
Q 58.015625 14.40625 51.78125 6.484375 
Q 45.5625 -1.421875 35.59375 -1.421875 
Q 29.59375 -1.421875 25.265625 0.953125 
Q 20.953125 3.328125 18.109375 8.203125 
z
M 48.6875 27.296875 
Q 48.6875 37.203125 44.609375 42.84375 
Q 40.53125 48.484375 33.40625 48.484375 
Q 26.265625 48.484375 22.1875 42.84375 
Q 18.109375 37.203125 18.109375 27.296875 
Q 18.109375 17.390625 22.1875 11.75 
Q 26.265625 6.109375 33.40625 6.109375 
Q 40.53125 6.109375 44.609375 11.75 
Q 48.6875 17.390625 48.6875 27.296875 
z
" id="DejaVuSans-112"/>
     <path d="M 8.5 21.578125 
L 8.5 54.6875 
L 17.484375 54.6875 
L 17.484375 21.921875 
Q 17.484375 14.15625 20.5 10.265625 
Q 23.53125 6.390625 29.59375 6.390625 
Q 36.859375 6.390625 41.078125 11.03125 
Q 45.3125 15.671875 45.3125 23.6875 
L 45.3125 54.6875 
L 54.296875 54.6875 
L 54.296875 0 
L 45.3125 0 
L 45.3125 8.40625 
Q 42.046875 3.421875 37.71875 1 
Q 33.40625 -1.421875 27.6875 -1.421875 
Q 18.265625 -1.421875 13.375 4.4375 
Q 8.5 10.296875 8.5 21.578125 
z
M 31.109375 56 
z
" id="DejaVuSans-117"/>
     <path d="M 11.71875 12.40625 
L 22.015625 12.40625 
L 22.015625 4 
L 14.015625 -11.625 
L 7.71875 -11.625 
L 11.71875 4 
z
" id="DejaVuSans-44"/>
     <path d="M 9.8125 72.90625 
L 23.09375 72.90625 
L 55.421875 11.921875 
L 55.421875 72.90625 
L 64.984375 72.90625 
L 64.984375 0 
L 51.703125 0 
L 19.390625 60.984375 
L 19.390625 0 
L 9.8125 0 
z
" id="DejaVuSans-78"/>
     <path d="M 10.59375 45.40625 
L 73.1875 45.40625 
L 73.1875 37.203125 
L 10.59375 37.203125 
z
M 10.59375 25.484375 
L 73.1875 25.484375 
L 73.1875 17.1875 
L 10.59375 17.1875 
z
" id="DejaVuSans-61"/>
     <path d="M 33.015625 40.375 
Q 26.375 40.375 22.484375 35.828125 
Q 18.609375 31.296875 18.609375 23.390625 
Q 18.609375 15.53125 22.484375 10.953125 
Q 26.375 6.390625 33.015625 6.390625 
Q 39.65625 6.390625 43.53125 10.953125 
Q 47.40625 15.53125 47.40625 23.390625 
Q 47.40625 31.296875 43.53125 35.828125 
Q 39.65625 40.375 33.015625 40.375 
z
M 52.59375 71.296875 
L 52.59375 62.3125 
Q 48.875 64.0625 45.09375 64.984375 
Q 41.3125 65.921875 37.59375 65.921875 
Q 27.828125 65.921875 22.671875 59.328125 
Q 17.53125 52.734375 16.796875 39.40625 
Q 19.671875 43.65625 24.015625 45.921875 
Q 28.375 48.1875 33.59375 48.1875 
Q 44.578125 48.1875 50.953125 41.515625 
Q 57.328125 34.859375 57.328125 23.390625 
Q 57.328125 12.15625 50.6875 5.359375 
Q 44.046875 -1.421875 33.015625 -1.421875 
Q 20.359375 -1.421875 13.671875 8.265625 
Q 6.984375 17.96875 6.984375 36.375 
Q 6.984375 53.65625 15.1875 63.9375 
Q 23.390625 74.21875 37.203125 74.21875 
Q 40.921875 74.21875 44.703125 73.484375 
Q 48.484375 72.75 52.59375 71.296875 
z
" id="DejaVuSans-54"/>
     <path d="M 45.40625 46.390625 
L 45.40625 75.984375 
L 54.390625 75.984375 
L 54.390625 0 
L 45.40625 0 
L 45.40625 8.203125 
Q 42.578125 3.328125 38.25 0.953125 
Q 33.9375 -1.421875 27.875 -1.421875 
Q 17.96875 -1.421875 11.734375 6.484375 
Q 5.515625 14.40625 5.515625 27.296875 
Q 5.515625 40.1875 11.734375 48.09375 
Q 17.96875 56 27.875 56 
Q 33.9375 56 38.25 53.625 
Q 42.578125 51.265625 45.40625 46.390625 
z
M 14.796875 27.296875 
Q 14.796875 17.390625 18.875 11.75 
Q 22.953125 6.109375 30.078125 6.109375 
Q 37.203125 6.109375 41.296875 11.75 
Q 45.40625 17.390625 45.40625 27.296875 
Q 45.40625 37.203125 41.296875 42.84375 
Q 37.203125 48.484375 30.078125 48.484375 
Q 22.953125 48.484375 18.875 42.84375 
Q 14.796875 37.203125 14.796875 27.296875 
z
" id="DejaVuSans-100"/>
    </defs>
    <g transform="translate(178.380938 19.92)scale(0.12 -0.12)">
     <use xlink:href="#DejaVuSans-72"/>
     <use x="75.195312" xlink:href="#DejaVuSans-105"/>
     <use x="102.978516" xlink:href="#DejaVuSans-112"/>
     <use x="166.455078" xlink:href="#DejaVuSans-112"/>
     <use x="229.931641" xlink:href="#DejaVuSans-111"/>
     <use x="291.113281" xlink:href="#DejaVuSans-99"/>
     <use x="346.09375" xlink:href="#DejaVuSans-97"/>
     <use x="407.373047" xlink:href="#DejaVuSans-109"/>
     <use x="504.785156" xlink:href="#DejaVuSans-112"/>
     <use x="568.261719" xlink:href="#DejaVuSans-117"/>
     <use x="631.640625" xlink:href="#DejaVuSans-115"/>
     <use x="683.740234" xlink:href="#DejaVuSans-44"/>
     <use x="715.527344" xlink:href="#DejaVuSans-32"/>
     <use x="747.314453" xlink:href="#DejaVuSans-78"/>
     <use x="822.119141" xlink:href="#DejaVuSans-117"/>
     <use x="885.498047" xlink:href="#DejaVuSans-109"/>
     <use x="982.910156" xlink:href="#DejaVuSans-32"/>
     <use x="1014.697266" xlink:href="#DejaVuSans-84"/>
     <use x="1075.5625" xlink:href="#DejaVuSans-114"/>
     <use x="1116.675781" xlink:href="#DejaVuSans-105"/>
     <use x="1144.458984" xlink:href="#DejaVuSans-97"/>
     <use x="1205.738281" xlink:href="#DejaVuSans-108"/>
     <use x="1233.521484" xlink:href="#DejaVuSans-115"/>
     <use x="1285.621094" xlink:href="#DejaVuSans-61"/>
     <use x="1369.410156" xlink:href="#DejaVuSans-49"/>
     <use x="1433.033203" xlink:href="#DejaVuSans-54"/>
     <use x="1496.65625" xlink:href="#DejaVuSans-48"/>
     <use x="1560.279297" xlink:href="#DejaVuSans-32"/>
     <use x="1592.066406" xlink:href="#DejaVuSans-65"/>
     <use x="1660.474609" xlink:href="#DejaVuSans-108"/>
     <use x="1688.257812" xlink:href="#DejaVuSans-108"/>
     <use x="1716.041016" xlink:href="#DejaVuSans-32"/>
     <use x="1747.828125" xlink:href="#DejaVuSans-115"/>
     <use x="1799.927734" xlink:href="#DejaVuSans-116"/>
     <use x="1839.136719" xlink:href="#DejaVuSans-105"/>
     <use x="1866.919922" xlink:href="#DejaVuSans-109"/>
     <use x="1964.332031" xlink:href="#DejaVuSans-117"/>
     <use x="2027.710938" xlink:href="#DejaVuSans-108"/>
     <use x="2055.494141" xlink:href="#DejaVuSans-97"/>
     <use x="2116.773438" xlink:href="#DejaVuSans-116"/>
     <use x="2155.982422" xlink:href="#DejaVuSans-101"/>
     <use x="2217.505859" xlink:href="#DejaVuSans-100"/>
     <use x="2280.982422" xlink:href="#DejaVuSans-32"/>
     <use x="2312.769531" xlink:href="#DejaVuSans-116"/>
     <use x="2351.978516" xlink:href="#DejaVuSans-114"/>
     <use x="2393.091797" xlink:href="#DejaVuSans-105"/>
     <use x="2420.875" xlink:href="#DejaVuSans-97"/>
     <use x="2482.154297" xlink:href="#DejaVuSans-108"/>
     <use x="2509.9375" xlink:href="#DejaVuSans-115"/>
    </g>
   </g>
   <g id="legend_1">
    <g id="patch_7">
     <path d="M 464.95125 70.7475 
L 574.8 70.7475 
Q 577.2 70.7475 577.2 68.3475 
L 577.2 34.32 
Q 577.2 31.92 574.8 31.92 
L 464.95125 31.92 
Q 462.55125 31.92 462.55125 34.32 
L 462.55125 68.3475 
Q 462.55125 70.7475 464.95125 70.7475 
z
" style="fill:#ffffff;opacity:0.8;stroke:#cccccc;stroke-linejoin:miter;"/>
    </g>
    <g id="line2d_14">
     <path d="M 467.35125 41.638125 
L 491.35125 41.638125 
" style="fill:none;stroke:#0000ff;stroke-linecap:square;stroke-width:1.5;"/>
    </g>
    <g id="line2d_15"/>
    <g id="text_16">
     <!-- Moving Var. -->
     <g transform="translate(500.95125 45.838125)scale(0.12 -0.12)">
      <use xlink:href="#DejaVuSans-77"/>
      <use x="86.279297" xlink:href="#DejaVuSans-111"/>
      <use x="147.460938" xlink:href="#DejaVuSans-118"/>
      <use x="206.640625" xlink:href="#DejaVuSans-105"/>
      <use x="234.423828" xlink:href="#DejaVuSans-110"/>
      <use x="297.802734" xlink:href="#DejaVuSans-103"/>
      <use x="361.279297" xlink:href="#DejaVuSans-32"/>
      <use x="393.066406" xlink:href="#DejaVuSans-86"/>
      <use x="461.365234" xlink:href="#DejaVuSans-97"/>
      <use x="522.644531" xlink:href="#DejaVuSans-114"/>
      <use x="563.617188" xlink:href="#DejaVuSans-46"/>
     </g>
    </g>
    <g id="patch_8">
     <path d="M 467.35125 63.451875 
L 491.35125 63.451875 
L 491.35125 55.051875 
L 467.35125 55.051875 
z
" style="fill:#0000ff;opacity:0.3;stroke:#0000ff;stroke-linejoin:miter;"/>
    </g>
    <g id="text_17">
     <!-- Std. Err. -->
     <defs>
      <path d="M 53.515625 70.515625 
L 53.515625 60.890625 
Q 47.90625 63.578125 42.921875 64.890625 
Q 37.9375 66.21875 33.296875 66.21875 
Q 25.25 66.21875 20.875 63.09375 
Q 16.5 59.96875 16.5 54.203125 
Q 16.5 49.359375 19.40625 46.890625 
Q 22.3125 44.4375 30.421875 42.921875 
L 36.375 41.703125 
Q 47.40625 39.59375 52.65625 34.296875 
Q 57.90625 29 57.90625 20.125 
Q 57.90625 9.515625 50.796875 4.046875 
Q 43.703125 -1.421875 29.984375 -1.421875 
Q 24.8125 -1.421875 18.96875 -0.25 
Q 13.140625 0.921875 6.890625 3.21875 
L 6.890625 13.375 
Q 12.890625 10.015625 18.65625 8.296875 
Q 24.421875 6.59375 29.984375 6.59375 
Q 38.421875 6.59375 43.015625 9.90625 
Q 47.609375 13.234375 47.609375 19.390625 
Q 47.609375 24.75 44.3125 27.78125 
Q 41.015625 30.8125 33.5 32.328125 
L 27.484375 33.5 
Q 16.453125 35.6875 11.515625 40.375 
Q 6.59375 45.0625 6.59375 53.421875 
Q 6.59375 63.09375 13.40625 68.65625 
Q 20.21875 74.21875 32.171875 74.21875 
Q 37.3125 74.21875 42.625 73.28125 
Q 47.953125 72.359375 53.515625 70.515625 
z
" id="DejaVuSans-83"/>
      <path d="M 9.8125 72.90625 
L 55.90625 72.90625 
L 55.90625 64.59375 
L 19.671875 64.59375 
L 19.671875 43.015625 
L 54.390625 43.015625 
L 54.390625 34.71875 
L 19.671875 34.71875 
L 19.671875 8.296875 
L 56.78125 8.296875 
L 56.78125 0 
L 9.8125 0 
z
" id="DejaVuSans-69"/>
     </defs>
     <g transform="translate(500.95125 63.451875)scale(0.12 -0.12)">
      <use xlink:href="#DejaVuSans-83"/>
      <use x="63.476562" xlink:href="#DejaVuSans-116"/>
      <use x="102.685547" xlink:href="#DejaVuSans-100"/>
      <use x="166.162109" xlink:href="#DejaVuSans-46"/>
      <use x="197.949219" xlink:href="#DejaVuSans-32"/>
      <use x="229.736328" xlink:href="#DejaVuSans-69"/>
      <use x="292.919922" xlink:href="#DejaVuSans-114"/>
      <use x="334.017578" xlink:href="#DejaVuSans-114"/>
      <use x="374.990234" xlink:href="#DejaVuSans-46"/>
     </g>
    </g>
   </g>
  </g>
 </g>
 <defs>
  <clipPath id="p552f172133">
   <rect height="166.32" width="502.2" x="81" y="25.92"/>
  </clipPath>
 </defs>
</svg>
