<?xml version="1.0" encoding="utf-8" standalone="no"?>
<!DOCTYPE svg PUBLIC "-//W3C//DTD SVG 1.1//EN"
  "http://www.w3.org/Graphics/SVG/1.1/DTD/svg11.dtd">
<!-- Created with matplotlib (https://matplotlib.org/) -->
<svg height="345.6pt" version="1.1" viewBox="0 0 460.8 345.6" width="460.8pt" xmlns="http://www.w3.org/2000/svg" xmlns:xlink="http://www.w3.org/1999/xlink">
 <defs>
  <style type="text/css">
*{stroke-linecap:butt;stroke-linejoin:round;}
  </style>
 </defs>
 <g id="figure_1">
  <g id="patch_1">
   <path d="M 0 345.6 
L 460.8 345.6 
L 460.8 0 
L 0 0 
z
" style="fill:#ffffff;"/>
  </g>
  <g id="axes_1">
   <g id="patch_2">
    <path d="M 69.5 300.76 
L 450 300.76 
L 450 26.88 
L 69.5 26.88 
z
" style="fill:#ffffff;"/>
   </g>
   <g id="PolyCollection_1">
    <defs>
     <path d="M 69.5 -199.258204 
L 69.5 -114.212312 
L 71.053061 -122.126524 
L 72.606122 -140.26091 
L 74.159184 -152.415866 
L 75.712245 -145.35287 
L 77.265306 -151.203724 
L 78.818367 -159.763592 
L 80.371429 -167.254795 
L 81.92449 -172.535661 
L 83.477551 -182.701103 
L 85.030612 -166.381023 
L 86.583673 -183.802174 
L 88.136735 -165.22106 
L 89.689796 -157.254384 
L 91.242857 -163.427738 
L 92.795918 -150.811108 
L 94.34898 -143.168978 
L 95.902041 -133.444821 
L 97.455102 -127.305126 
L 99.008163 -103.8184 
L 100.561224 -81.323262 
L 102.114286 -79.125016 
L 103.667347 -68.552712 
L 105.220408 -57.21443 
L 106.773469 -66.627786 
L 108.326531 -84.278388 
L 109.879592 -88.654331 
L 111.432653 -108.579887 
L 112.985714 -97.336742 
L 114.538776 -122.171148 
L 116.091837 -116.438302 
L 117.644898 -122.860243 
L 119.197959 -131.320347 
L 120.75102 -132.704881 
L 122.304082 -127.077078 
L 123.857143 -138.068957 
L 125.410204 -125.618317 
L 126.963265 -111.005882 
L 128.516327 -111.73211 
L 130.069388 -117.898451 
L 131.622449 -127.481357 
L 133.17551 -125.306242 
L 134.728571 -138.123354 
L 136.281633 -139.685389 
L 137.834694 -156.312792 
L 139.387755 -139.305089 
L 140.940816 -164.543169 
L 142.493878 -162.53838 
L 144.046939 -126.824277 
L 145.6 -121.655001 
L 147.153061 -129.383189 
L 148.706122 -124.586701 
L 150.259184 -120.64188 
L 151.812245 -123.668143 
L 153.365306 -129.773057 
L 154.918367 -120.929831 
L 156.471429 -120.172338 
L 158.02449 -132.440748 
L 159.577551 -142.376738 
L 161.130612 -150.274085 
L 162.683673 -153.219364 
L 164.236735 -144.629829 
L 165.789796 -140.740983 
L 167.342857 -138.078145 
L 168.895918 -161.417241 
L 170.44898 -163.61669 
L 172.002041 -180.326835 
L 173.555102 -167.621762 
L 175.108163 -154.940626 
L 176.661224 -141.679434 
L 178.214286 -142.369864 
L 179.767347 -167.378288 
L 181.320408 -170.109944 
L 182.873469 -179.655158 
L 184.426531 -160.084492 
L 185.979592 -147.95281 
L 187.532653 -143.961017 
L 189.085714 -124.635315 
L 190.638776 -88.212073 
L 192.191837 -88.319655 
L 193.744898 -82.742985 
L 195.297959 -87.60985 
L 196.85102 -97.6389 
L 198.404082 -105.323855 
L 199.957143 -110.168021 
L 201.510204 -97.448369 
L 203.063265 -70.629712 
L 204.616327 -60.813944 
L 206.169388 -64.834671 
L 207.722449 -65.850193 
L 209.27551 -64.71615 
L 210.828571 -71.186338 
L 212.381633 -84.154567 
L 213.934694 -81.959909 
L 215.487755 -99.175441 
L 217.040816 -116.340486 
L 218.593878 -135.656153 
L 220.146939 -138.291454 
L 221.7 -147.148362 
L 223.253061 -157.372693 
L 224.806122 -151.77277 
L 226.359184 -139.225248 
L 227.912245 -160.783485 
L 229.465306 -145.035926 
L 231.018367 -118.904535 
L 232.571429 -118.456395 
L 234.12449 -120.348771 
L 235.677551 -120.623021 
L 237.230612 -119.141624 
L 238.783673 -134.965713 
L 240.336735 -155.329561 
L 241.889796 -162.509657 
L 243.442857 -144.734306 
L 244.995918 -154.999547 
L 246.54898 -149.135755 
L 248.102041 -132.571018 
L 249.655102 -128.220347 
L 251.208163 -129.487182 
L 252.761224 -118.781073 
L 254.314286 -140.335312 
L 255.867347 -142.132513 
L 257.420408 -128.287948 
L 258.973469 -136.201903 
L 260.526531 -145.010887 
L 262.079592 -139.247999 
L 263.632653 -148.922731 
L 265.185714 -156.602908 
L 266.738776 -159.372209 
L 268.291837 -160.648312 
L 269.844898 -150.863048 
L 271.397959 -156.475578 
L 272.95102 -165.963854 
L 274.504082 -148.62882 
L 276.057143 -143.122627 
L 277.610204 -139.255409 
L 279.163265 -119.204406 
L 280.716327 -103.633533 
L 282.269388 -104.844 
L 283.822449 -122.545235 
L 285.37551 -115.28013 
L 286.928571 -111.883301 
L 288.481633 -104.337132 
L 290.034694 -119.238513 
L 291.587755 -122.924258 
L 293.140816 -122.735704 
L 294.693878 -138.772008 
L 296.246939 -126.534409 
L 297.8 -114.077155 
L 299.353061 -116.066864 
L 300.906122 -121.454054 
L 302.459184 -132.202371 
L 304.012245 -126.063353 
L 305.565306 -115.478833 
L 307.118367 -109.637817 
L 308.671429 -121.347736 
L 310.22449 -127.804989 
L 311.777551 -127.606376 
L 313.330612 -136.927572 
L 314.883673 -146.290082 
L 316.436735 -138.847774 
L 317.989796 -144.934483 
L 319.542857 -167.896333 
L 321.095918 -164.28544 
L 322.64898 -157.169923 
L 324.202041 -144.246623 
L 325.755102 -144.504763 
L 327.308163 -135.54873 
L 328.861224 -132.960011 
L 330.414286 -124.109458 
L 331.967347 -133.607046 
L 333.520408 -148.176065 
L 335.073469 -149.84326 
L 336.626531 -160.983841 
L 338.179592 -155.396252 
L 339.732653 -157.421911 
L 341.285714 -155.936111 
L 342.838776 -152.913892 
L 344.391837 -156.563004 
L 345.944898 -153.025109 
L 347.497959 -145.101862 
L 349.05102 -110.030377 
L 350.604082 -102.385414 
L 352.157143 -93.085325 
L 353.710204 -101.809435 
L 355.263265 -95.289997 
L 356.816327 -85.657944 
L 358.369388 -79.028452 
L 359.922449 -81.722549 
L 361.47551 -93.277626 
L 363.028571 -85.102349 
L 364.581633 -76.321593 
L 366.134694 -68.845261 
L 367.687755 -71.041584 
L 369.240816 -57.28774 
L 370.793878 -58.811578 
L 372.346939 -56.654065 
L 373.9 -44.84 
L 375.453061 -70.660142 
L 377.006122 -113.942521 
L 378.559184 -119.765971 
L 380.112245 -125.273871 
L 381.665306 -125.967264 
L 383.218367 -130.428677 
L 384.771429 -141.746574 
L 386.32449 -153.572419 
L 387.877551 -161.643261 
L 389.430612 -138.883736 
L 390.983673 -147.256025 
L 392.536735 -151.927616 
L 394.089796 -143.027155 
L 395.642857 -135.403947 
L 397.195918 -121.203711 
L 398.74898 -127.350733 
L 400.302041 -135.999614 
L 401.855102 -154.775375 
L 403.408163 -158.756014 
L 404.961224 -162.853719 
L 406.514286 -146.77804 
L 408.067347 -149.084676 
L 409.620408 -156.038743 
L 411.173469 -161.882671 
L 412.726531 -158.005465 
L 414.279592 -164.965559 
L 415.832653 -167.499593 
L 417.385714 -153.301734 
L 418.938776 -160.96534 
L 420.491837 -178.201432 
L 422.044898 -199.992597 
L 423.597959 -218.467412 
L 425.15102 -212.796444 
L 426.704082 -213.150466 
L 428.257143 -184.954672 
L 429.810204 -193.510177 
L 431.363265 -194.915238 
L 432.916327 -179.939023 
L 434.469388 -162.836458 
L 436.022449 -167.691919 
L 437.57551 -149.68725 
L 439.128571 -147.381741 
L 440.681633 -166.601841 
L 442.234694 -181.467943 
L 443.787755 -187.467588 
L 445.340816 -181.318616 
L 446.893878 -208.71212 
L 448.446939 -207.846707 
L 450 -201.965796 
L 450 -299.408414 
L 450 -299.408414 
L 448.446939 -308.419824 
L 446.893878 -308.423614 
L 445.340816 -266.813736 
L 443.787755 -270.452861 
L 442.234694 -261.388259 
L 440.681633 -244.180621 
L 439.128571 -224.859085 
L 437.57551 -232.46195 
L 436.022449 -257.292388 
L 434.469388 -255.481469 
L 432.916327 -275.601858 
L 431.363265 -293.639004 
L 429.810204 -293.480821 
L 428.257143 -284.215323 
L 426.704082 -318.72 
L 425.15102 -310.721642 
L 423.597959 -314.497251 
L 422.044898 -295.198067 
L 420.491837 -263.330341 
L 418.938776 -246.556416 
L 417.385714 -238.462147 
L 415.832653 -259.368754 
L 414.279592 -265.43904 
L 412.726531 -256.40678 
L 411.173469 -257.092944 
L 409.620408 -249.219706 
L 408.067347 -249.450415 
L 406.514286 -250.070729 
L 404.961224 -265.600887 
L 403.408163 -258.980283 
L 401.855102 -253.696075 
L 400.302041 -229.930048 
L 398.74898 -226.453707 
L 397.195918 -218.590725 
L 395.642857 -229.741595 
L 394.089796 -233.082749 
L 392.536735 -242.538484 
L 390.983673 -237.505135 
L 389.430612 -229.281045 
L 387.877551 -254.444364 
L 386.32449 -243.123655 
L 384.771429 -225.601505 
L 383.218367 -214.077235 
L 381.665306 -210.587785 
L 380.112245 -216.439555 
L 378.559184 -209.167678 
L 377.006122 -199.569169 
L 375.453061 -145.664919 
L 373.9 -115.031864 
L 372.346939 -130.804356 
L 370.793878 -129.346309 
L 369.240816 -124.420806 
L 367.687755 -142.806803 
L 366.134694 -141.076421 
L 364.581633 -149.089615 
L 363.028571 -162.041185 
L 361.47551 -176.180637 
L 359.922449 -158.111679 
L 358.369388 -152.767376 
L 356.816327 -166.264114 
L 355.263265 -181.544614 
L 353.710204 -185.539886 
L 352.157143 -180.838874 
L 350.604082 -190.095729 
L 349.05102 -198.777218 
L 347.497959 -232.889704 
L 345.944898 -243.649991 
L 344.391837 -248.218338 
L 342.838776 -245.497094 
L 341.285714 -251.371521 
L 339.732653 -250.626226 
L 338.179592 -242.440039 
L 336.626531 -245.523171 
L 335.073469 -235.161154 
L 333.520408 -236.3079 
L 331.967347 -218.45108 
L 330.414286 -209.243529 
L 328.861224 -219.789748 
L 327.308163 -225.211711 
L 325.755102 -229.808824 
L 324.202041 -227.136042 
L 322.64898 -241.178931 
L 321.095918 -250.833069 
L 319.542857 -251.23092 
L 317.989796 -225.648427 
L 316.436735 -220.330721 
L 314.883673 -226.752671 
L 313.330612 -215.988692 
L 311.777551 -208.020466 
L 310.22449 -209.646273 
L 308.671429 -205.632843 
L 307.118367 -194.364797 
L 305.565306 -197.229408 
L 304.012245 -206.595556 
L 302.459184 -214.240796 
L 300.906122 -207.228822 
L 299.353061 -197.567375 
L 297.8 -195.027753 
L 296.246939 -203.21763 
L 294.693878 -214.919398 
L 293.140816 -201.13577 
L 291.587755 -198.935583 
L 290.034694 -195.439981 
L 288.481633 -184.303708 
L 286.928571 -191.30572 
L 285.37551 -196.302273 
L 283.822449 -204.802862 
L 282.269388 -191.659617 
L 280.716327 -193.088299 
L 279.163265 -209.459382 
L 277.610204 -234.078275 
L 276.057143 -232.258846 
L 274.504082 -240.276757 
L 272.95102 -274.428247 
L 271.397959 -259.928547 
L 269.844898 -245.887199 
L 268.291837 -263.390799 
L 266.738776 -259.193472 
L 265.185714 -258.460382 
L 263.632653 -246.143312 
L 262.079592 -237.018338 
L 260.526531 -239.071444 
L 258.973469 -230.477966 
L 257.420408 -219.292207 
L 255.867347 -232.851732 
L 254.314286 -231.688933 
L 252.761224 -200.602488 
L 251.208163 -210.285436 
L 249.655102 -208.104587 
L 248.102041 -212.490676 
L 246.54898 -229.208852 
L 244.995918 -239.263165 
L 243.442857 -226.19053 
L 241.889796 -245.264635 
L 240.336735 -239.148303 
L 238.783673 -216.529995 
L 237.230612 -200.538921 
L 235.677551 -200.78911 
L 234.12449 -202.610544 
L 232.571429 -204.901695 
L 231.018367 -211.277916 
L 229.465306 -236.797315 
L 227.912245 -250.933464 
L 226.359184 -226.588848 
L 224.806122 -240.760179 
L 223.253061 -244.223752 
L 221.7 -229.108607 
L 220.146939 -221.844457 
L 218.593878 -216.02067 
L 217.040816 -194.216968 
L 215.487755 -176.291699 
L 213.934694 -155.638594 
L 212.381633 -161.671502 
L 210.828571 -145.174563 
L 209.27551 -139.090116 
L 207.722449 -136.515297 
L 206.169388 -133.883424 
L 204.616327 -131.138231 
L 203.063265 -146.736089 
L 201.510204 -181.513263 
L 199.957143 -198.172366 
L 198.404082 -189.267188 
L 196.85102 -183.191156 
L 195.297959 -167.07196 
L 193.744898 -161.363526 
L 192.191837 -162.688088 
L 190.638776 -160.847104 
L 189.085714 -203.431931 
L 187.532653 -228.149624 
L 185.979592 -238.058766 
L 184.426531 -251.887794 
L 182.873469 -272.989973 
L 181.320408 -258.752597 
L 179.767347 -264.738336 
L 178.214286 -228.347934 
L 176.661224 -227.222082 
L 175.108163 -242.75005 
L 173.555102 -259.835789 
L 172.002041 -271.910051 
L 170.44898 -249.671694 
L 168.895918 -244.95848 
L 167.342857 -215.436853 
L 165.789796 -219.220736 
L 164.236735 -222.236056 
L 162.683673 -240.650733 
L 161.130612 -239.459106 
L 159.577551 -227.352113 
L 158.02449 -219.86042 
L 156.471429 -205.241533 
L 154.918367 -203.949777 
L 153.365306 -213.532667 
L 151.812245 -206.618479 
L 150.259184 -202.356434 
L 148.706122 -209.296345 
L 147.153061 -213.746971 
L 145.6 -208.074281 
L 144.046939 -214.854624 
L 142.493878 -251.98105 
L 140.940816 -250.807277 
L 139.387755 -220.90166 
L 137.834694 -239.331485 
L 136.281633 -221.58416 
L 134.728571 -218.670846 
L 133.17551 -206.148948 
L 131.622449 -207.736038 
L 130.069388 -193.946477 
L 128.516327 -183.396483 
L 126.963265 -184.784412 
L 125.410204 -201.691554 
L 123.857143 -215.31066 
L 122.304082 -202.940799 
L 120.75102 -207.998575 
L 119.197959 -204.831261 
L 117.644898 -197.962391 
L 116.091837 -194.824548 
L 114.538776 -203.317793 
L 112.985714 -184.128115 
L 111.432653 -195.352674 
L 109.879592 -166.617616 
L 108.326531 -161.466597 
L 106.773469 -140.861569 
L 105.220408 -128.562483 
L 103.667347 -139.659707 
L 102.114286 -150.392137 
L 100.561224 -153.620591 
L 99.008163 -182.102571 
L 97.455102 -210.736329 
L 95.902041 -218.4687 
L 94.34898 -228.855018 
L 92.795918 -237.321174 
L 91.242857 -246.676109 
L 89.689796 -243.631195 
L 88.136735 -250.119955 
L 86.583673 -276.274257 
L 85.030612 -254.622355 
L 83.477551 -273.970766 
L 81.92449 -260.086533 
L 80.371429 -256.272822 
L 78.818367 -247.268983 
L 77.265306 -232.085735 
L 75.712245 -236.755416 
L 74.159184 -254.908371 
L 72.606122 -235.405954 
L 71.053061 -216.104672 
L 69.5 -199.258204 
z
" id="m61579d5938" style="stroke:#0000ff;stroke-opacity:0.25;"/>
    </defs>
    <g clip-path="url(#p8b6a4f9b05)">
     <use style="fill:#0000ff;fill-opacity:0.25;stroke:#0000ff;stroke-opacity:0.25;" x="0" xlink:href="#m61579d5938" y="345.6"/>
    </g>
   </g>
   <g id="PolyCollection_2">
    <defs>
     <path d="M 105.142755 -44.84 
L 105.142755 -318.72 
L 415.755 -318.72 
L 415.755 -44.84 
L 415.755 -44.84 
L 105.142755 -44.84 
z
" id="m25754f396a" style="stroke:#808080;stroke-opacity:0.3;"/>
    </defs>
    <g clip-path="url(#p8b6a4f9b05)">
     <use style="fill:#808080;fill-opacity:0.3;stroke:#808080;stroke-opacity:0.3;" x="0" xlink:href="#m25754f396a" y="345.6"/>
    </g>
   </g>
   <g id="matplotlib.axis_1">
    <g id="xtick_1">
     <g id="line2d_1">
      <defs>
       <path d="M 0 0 
L 0 3.5 
" id="m25c02a7a98" style="stroke:#000000;stroke-width:0.8;"/>
      </defs>
      <g>
       <use style="stroke:#000000;stroke-width:0.8;" x="69.5" xlink:href="#m25c02a7a98" y="300.76"/>
      </g>
     </g>
     <g id="text_1">
      <!-- 0.0 -->
      <defs>
       <path d="M 31.78125 66.40625 
Q 24.171875 66.40625 20.328125 58.90625 
Q 16.5 51.421875 16.5 36.375 
Q 16.5 21.390625 20.328125 13.890625 
Q 24.171875 6.390625 31.78125 6.390625 
Q 39.453125 6.390625 43.28125 13.890625 
Q 47.125 21.390625 47.125 36.375 
Q 47.125 51.421875 43.28125 58.90625 
Q 39.453125 66.40625 31.78125 66.40625 
z
M 31.78125 74.21875 
Q 44.046875 74.21875 50.515625 64.515625 
Q 56.984375 54.828125 56.984375 36.375 
Q 56.984375 17.96875 50.515625 8.265625 
Q 44.046875 -1.421875 31.78125 -1.421875 
Q 19.53125 -1.421875 13.0625 8.265625 
Q 6.59375 17.96875 6.59375 36.375 
Q 6.59375 54.828125 13.0625 64.515625 
Q 19.53125 74.21875 31.78125 74.21875 
z
" id="DejaVuSans-48"/>
       <path d="M 10.6875 12.40625 
L 21 12.40625 
L 21 0 
L 10.6875 0 
z
" id="DejaVuSans-46"/>
      </defs>
      <g transform="translate(61.548438 315.358437)scale(0.1 -0.1)">
       <use xlink:href="#DejaVuSans-48"/>
       <use x="63.623047" xlink:href="#DejaVuSans-46"/>
       <use x="95.410156" xlink:href="#DejaVuSans-48"/>
      </g>
     </g>
    </g>
    <g id="xtick_2">
     <g id="line2d_2">
      <g>
       <use style="stroke:#000000;stroke-width:0.8;" x="147.153061" xlink:href="#m25c02a7a98" y="300.76"/>
      </g>
     </g>
     <g id="text_2">
      <!-- 0.5 -->
      <defs>
       <path d="M 10.796875 72.90625 
L 49.515625 72.90625 
L 49.515625 64.59375 
L 19.828125 64.59375 
L 19.828125 46.734375 
Q 21.96875 47.46875 24.109375 47.828125 
Q 26.265625 48.1875 28.421875 48.1875 
Q 40.625 48.1875 47.75 41.5 
Q 54.890625 34.8125 54.890625 23.390625 
Q 54.890625 11.625 47.5625 5.09375 
Q 40.234375 -1.421875 26.90625 -1.421875 
Q 22.3125 -1.421875 17.546875 -0.640625 
Q 12.796875 0.140625 7.71875 1.703125 
L 7.71875 11.625 
Q 12.109375 9.234375 16.796875 8.0625 
Q 21.484375 6.890625 26.703125 6.890625 
Q 35.15625 6.890625 40.078125 11.328125 
Q 45.015625 15.765625 45.015625 23.390625 
Q 45.015625 31 40.078125 35.4375 
Q 35.15625 39.890625 26.703125 39.890625 
Q 22.75 39.890625 18.8125 39.015625 
Q 14.890625 38.140625 10.796875 36.28125 
z
" id="DejaVuSans-53"/>
      </defs>
      <g transform="translate(139.201499 315.358437)scale(0.1 -0.1)">
       <use xlink:href="#DejaVuSans-48"/>
       <use x="63.623047" xlink:href="#DejaVuSans-46"/>
       <use x="95.410156" xlink:href="#DejaVuSans-53"/>
      </g>
     </g>
    </g>
    <g id="xtick_3">
     <g id="line2d_3">
      <g>
       <use style="stroke:#000000;stroke-width:0.8;" x="224.806122" xlink:href="#m25c02a7a98" y="300.76"/>
      </g>
     </g>
     <g id="text_3">
      <!-- 1.0 -->
      <defs>
       <path d="M 12.40625 8.296875 
L 28.515625 8.296875 
L 28.515625 63.921875 
L 10.984375 60.40625 
L 10.984375 69.390625 
L 28.421875 72.90625 
L 38.28125 72.90625 
L 38.28125 8.296875 
L 54.390625 8.296875 
L 54.390625 0 
L 12.40625 0 
z
" id="DejaVuSans-49"/>
      </defs>
      <g transform="translate(216.85456 315.358437)scale(0.1 -0.1)">
       <use xlink:href="#DejaVuSans-49"/>
       <use x="63.623047" xlink:href="#DejaVuSans-46"/>
       <use x="95.410156" xlink:href="#DejaVuSans-48"/>
      </g>
     </g>
    </g>
    <g id="xtick_4">
     <g id="line2d_4">
      <g>
       <use style="stroke:#000000;stroke-width:0.8;" x="302.459184" xlink:href="#m25c02a7a98" y="300.76"/>
      </g>
     </g>
     <g id="text_4">
      <!-- 1.5 -->
      <g transform="translate(294.507621 315.358437)scale(0.1 -0.1)">
       <use xlink:href="#DejaVuSans-49"/>
       <use x="63.623047" xlink:href="#DejaVuSans-46"/>
       <use x="95.410156" xlink:href="#DejaVuSans-53"/>
      </g>
     </g>
    </g>
    <g id="xtick_5">
     <g id="line2d_5">
      <g>
       <use style="stroke:#000000;stroke-width:0.8;" x="380.112245" xlink:href="#m25c02a7a98" y="300.76"/>
      </g>
     </g>
     <g id="text_5">
      <!-- 2.0 -->
      <defs>
       <path d="M 19.1875 8.296875 
L 53.609375 8.296875 
L 53.609375 0 
L 7.328125 0 
L 7.328125 8.296875 
Q 12.9375 14.109375 22.625 23.890625 
Q 32.328125 33.6875 34.8125 36.53125 
Q 39.546875 41.84375 41.421875 45.53125 
Q 43.3125 49.21875 43.3125 52.78125 
Q 43.3125 58.59375 39.234375 62.25 
Q 35.15625 65.921875 28.609375 65.921875 
Q 23.96875 65.921875 18.8125 64.3125 
Q 13.671875 62.703125 7.8125 59.421875 
L 7.8125 69.390625 
Q 13.765625 71.78125 18.9375 73 
Q 24.125 74.21875 28.421875 74.21875 
Q 39.75 74.21875 46.484375 68.546875 
Q 53.21875 62.890625 53.21875 53.421875 
Q 53.21875 48.921875 51.53125 44.890625 
Q 49.859375 40.875 45.40625 35.40625 
Q 44.1875 33.984375 37.640625 27.21875 
Q 31.109375 20.453125 19.1875 8.296875 
z
" id="DejaVuSans-50"/>
      </defs>
      <g transform="translate(372.160682 315.358437)scale(0.1 -0.1)">
       <use xlink:href="#DejaVuSans-50"/>
       <use x="63.623047" xlink:href="#DejaVuSans-46"/>
       <use x="95.410156" xlink:href="#DejaVuSans-48"/>
      </g>
     </g>
    </g>
    <g id="text_6">
     <!-- Time (s) -->
     <defs>
      <path d="M -0.296875 72.90625 
L 61.375 72.90625 
L 61.375 64.59375 
L 35.5 64.59375 
L 35.5 0 
L 25.59375 0 
L 25.59375 64.59375 
L -0.296875 64.59375 
z
" id="DejaVuSans-84"/>
      <path d="M 9.421875 54.6875 
L 18.40625 54.6875 
L 18.40625 0 
L 9.421875 0 
z
M 9.421875 75.984375 
L 18.40625 75.984375 
L 18.40625 64.59375 
L 9.421875 64.59375 
z
" id="DejaVuSans-105"/>
      <path d="M 52 44.1875 
Q 55.375 50.25 60.0625 53.125 
Q 64.75 56 71.09375 56 
Q 79.640625 56 84.28125 50.015625 
Q 88.921875 44.046875 88.921875 33.015625 
L 88.921875 0 
L 79.890625 0 
L 79.890625 32.71875 
Q 79.890625 40.578125 77.09375 44.375 
Q 74.3125 48.1875 68.609375 48.1875 
Q 61.625 48.1875 57.5625 43.546875 
Q 53.515625 38.921875 53.515625 30.90625 
L 53.515625 0 
L 44.484375 0 
L 44.484375 32.71875 
Q 44.484375 40.625 41.703125 44.40625 
Q 38.921875 48.1875 33.109375 48.1875 
Q 26.21875 48.1875 22.15625 43.53125 
Q 18.109375 38.875 18.109375 30.90625 
L 18.109375 0 
L 9.078125 0 
L 9.078125 54.6875 
L 18.109375 54.6875 
L 18.109375 46.1875 
Q 21.1875 51.21875 25.484375 53.609375 
Q 29.78125 56 35.6875 56 
Q 41.65625 56 45.828125 52.96875 
Q 50 49.953125 52 44.1875 
z
" id="DejaVuSans-109"/>
      <path d="M 56.203125 29.59375 
L 56.203125 25.203125 
L 14.890625 25.203125 
Q 15.484375 15.921875 20.484375 11.0625 
Q 25.484375 6.203125 34.421875 6.203125 
Q 39.59375 6.203125 44.453125 7.46875 
Q 49.3125 8.734375 54.109375 11.28125 
L 54.109375 2.78125 
Q 49.265625 0.734375 44.1875 -0.34375 
Q 39.109375 -1.421875 33.890625 -1.421875 
Q 20.796875 -1.421875 13.15625 6.1875 
Q 5.515625 13.8125 5.515625 26.8125 
Q 5.515625 40.234375 12.765625 48.109375 
Q 20.015625 56 32.328125 56 
Q 43.359375 56 49.78125 48.890625 
Q 56.203125 41.796875 56.203125 29.59375 
z
M 47.21875 32.234375 
Q 47.125 39.59375 43.09375 43.984375 
Q 39.0625 48.390625 32.421875 48.390625 
Q 24.90625 48.390625 20.390625 44.140625 
Q 15.875 39.890625 15.1875 32.171875 
z
" id="DejaVuSans-101"/>
      <path id="DejaVuSans-32"/>
      <path d="M 31 75.875 
Q 24.46875 64.65625 21.28125 53.65625 
Q 18.109375 42.671875 18.109375 31.390625 
Q 18.109375 20.125 21.3125 9.0625 
Q 24.515625 -2 31 -13.1875 
L 23.1875 -13.1875 
Q 15.875 -1.703125 12.234375 9.375 
Q 8.59375 20.453125 8.59375 31.390625 
Q 8.59375 42.28125 12.203125 53.3125 
Q 15.828125 64.359375 23.1875 75.875 
z
" id="DejaVuSans-40"/>
      <path d="M 44.28125 53.078125 
L 44.28125 44.578125 
Q 40.484375 46.53125 36.375 47.5 
Q 32.28125 48.484375 27.875 48.484375 
Q 21.1875 48.484375 17.84375 46.4375 
Q 14.5 44.390625 14.5 40.28125 
Q 14.5 37.15625 16.890625 35.375 
Q 19.28125 33.59375 26.515625 31.984375 
L 29.59375 31.296875 
Q 39.15625 29.25 43.1875 25.515625 
Q 47.21875 21.78125 47.21875 15.09375 
Q 47.21875 7.46875 41.1875 3.015625 
Q 35.15625 -1.421875 24.609375 -1.421875 
Q 20.21875 -1.421875 15.453125 -0.5625 
Q 10.6875 0.296875 5.421875 2 
L 5.421875 11.28125 
Q 10.40625 8.6875 15.234375 7.390625 
Q 20.0625 6.109375 24.8125 6.109375 
Q 31.15625 6.109375 34.5625 8.28125 
Q 37.984375 10.453125 37.984375 14.40625 
Q 37.984375 18.0625 35.515625 20.015625 
Q 33.0625 21.96875 24.703125 23.78125 
L 21.578125 24.515625 
Q 13.234375 26.265625 9.515625 29.90625 
Q 5.8125 33.546875 5.8125 39.890625 
Q 5.8125 47.609375 11.28125 51.796875 
Q 16.75 56 26.8125 56 
Q 31.78125 56 36.171875 55.265625 
Q 40.578125 54.546875 44.28125 53.078125 
z
" id="DejaVuSans-115"/>
      <path d="M 8.015625 75.875 
L 15.828125 75.875 
Q 23.140625 64.359375 26.78125 53.3125 
Q 30.421875 42.28125 30.421875 31.390625 
Q 30.421875 20.453125 26.78125 9.375 
Q 23.140625 -1.703125 15.828125 -13.1875 
L 8.015625 -13.1875 
Q 14.5 -2 17.703125 9.0625 
Q 20.90625 20.125 20.90625 31.390625 
Q 20.90625 42.671875 17.703125 53.65625 
Q 14.5 64.65625 8.015625 75.875 
z
" id="DejaVuSans-41"/>
     </defs>
     <g transform="translate(235.170625 330.55625)scale(0.12 -0.12)">
      <use xlink:href="#DejaVuSans-84"/>
      <use x="61.037109" xlink:href="#DejaVuSans-105"/>
      <use x="88.820312" xlink:href="#DejaVuSans-109"/>
      <use x="186.232422" xlink:href="#DejaVuSans-101"/>
      <use x="247.755859" xlink:href="#DejaVuSans-32"/>
      <use x="279.542969" xlink:href="#DejaVuSans-40"/>
      <use x="318.556641" xlink:href="#DejaVuSans-115"/>
      <use x="370.65625" xlink:href="#DejaVuSans-41"/>
     </g>
    </g>
   </g>
   <g id="matplotlib.axis_2">
    <g id="ytick_1">
     <g id="line2d_6">
      <defs>
       <path d="M 0 0 
L -3.5 0 
" id="m625595a9f8" style="stroke:#000000;stroke-width:0.8;"/>
      </defs>
      <g>
       <use style="stroke:#000000;stroke-width:0.8;" x="69.5" xlink:href="#m625595a9f8" y="272.118763"/>
      </g>
     </g>
     <g id="text_7">
      <!-- 0.0130 -->
      <defs>
       <path d="M 40.578125 39.3125 
Q 47.65625 37.796875 51.625 33 
Q 55.609375 28.21875 55.609375 21.1875 
Q 55.609375 10.40625 48.1875 4.484375 
Q 40.765625 -1.421875 27.09375 -1.421875 
Q 22.515625 -1.421875 17.65625 -0.515625 
Q 12.796875 0.390625 7.625 2.203125 
L 7.625 11.71875 
Q 11.71875 9.328125 16.59375 8.109375 
Q 21.484375 6.890625 26.8125 6.890625 
Q 36.078125 6.890625 40.9375 10.546875 
Q 45.796875 14.203125 45.796875 21.1875 
Q 45.796875 27.640625 41.28125 31.265625 
Q 36.765625 34.90625 28.71875 34.90625 
L 20.21875 34.90625 
L 20.21875 43.015625 
L 29.109375 43.015625 
Q 36.375 43.015625 40.234375 45.921875 
Q 44.09375 48.828125 44.09375 54.296875 
Q 44.09375 59.90625 40.109375 62.90625 
Q 36.140625 65.921875 28.71875 65.921875 
Q 24.65625 65.921875 20.015625 65.03125 
Q 15.375 64.15625 9.8125 62.3125 
L 9.8125 71.09375 
Q 15.4375 72.65625 20.34375 73.4375 
Q 25.25 74.21875 29.59375 74.21875 
Q 40.828125 74.21875 47.359375 69.109375 
Q 53.90625 64.015625 53.90625 55.328125 
Q 53.90625 49.265625 50.4375 45.09375 
Q 46.96875 40.921875 40.578125 39.3125 
z
" id="DejaVuSans-51"/>
      </defs>
      <g transform="translate(27.509375 275.917982)scale(0.1 -0.1)">
       <use xlink:href="#DejaVuSans-48"/>
       <use x="63.623047" xlink:href="#DejaVuSans-46"/>
       <use x="95.410156" xlink:href="#DejaVuSans-48"/>
       <use x="159.033203" xlink:href="#DejaVuSans-49"/>
       <use x="222.65625" xlink:href="#DejaVuSans-51"/>
       <use x="286.279297" xlink:href="#DejaVuSans-48"/>
      </g>
     </g>
    </g>
    <g id="ytick_2">
     <g id="line2d_7">
      <g>
       <use style="stroke:#000000;stroke-width:0.8;" x="69.5" xlink:href="#m625595a9f8" y="226.052012"/>
      </g>
     </g>
     <g id="text_8">
      <!-- 0.0135 -->
      <g transform="translate(27.509375 229.851231)scale(0.1 -0.1)">
       <use xlink:href="#DejaVuSans-48"/>
       <use x="63.623047" xlink:href="#DejaVuSans-46"/>
       <use x="95.410156" xlink:href="#DejaVuSans-48"/>
       <use x="159.033203" xlink:href="#DejaVuSans-49"/>
       <use x="222.65625" xlink:href="#DejaVuSans-51"/>
       <use x="286.279297" xlink:href="#DejaVuSans-53"/>
      </g>
     </g>
    </g>
    <g id="ytick_3">
     <g id="line2d_8">
      <g>
       <use style="stroke:#000000;stroke-width:0.8;" x="69.5" xlink:href="#m625595a9f8" y="179.985262"/>
      </g>
     </g>
     <g id="text_9">
      <!-- 0.0140 -->
      <defs>
       <path d="M 37.796875 64.3125 
L 12.890625 25.390625 
L 37.796875 25.390625 
z
M 35.203125 72.90625 
L 47.609375 72.90625 
L 47.609375 25.390625 
L 58.015625 25.390625 
L 58.015625 17.1875 
L 47.609375 17.1875 
L 47.609375 0 
L 37.796875 0 
L 37.796875 17.1875 
L 4.890625 17.1875 
L 4.890625 26.703125 
z
" id="DejaVuSans-52"/>
      </defs>
      <g transform="translate(27.509375 183.784481)scale(0.1 -0.1)">
       <use xlink:href="#DejaVuSans-48"/>
       <use x="63.623047" xlink:href="#DejaVuSans-46"/>
       <use x="95.410156" xlink:href="#DejaVuSans-48"/>
       <use x="159.033203" xlink:href="#DejaVuSans-49"/>
       <use x="222.65625" xlink:href="#DejaVuSans-52"/>
       <use x="286.279297" xlink:href="#DejaVuSans-48"/>
      </g>
     </g>
    </g>
    <g id="ytick_4">
     <g id="line2d_9">
      <g>
       <use style="stroke:#000000;stroke-width:0.8;" x="69.5" xlink:href="#m625595a9f8" y="133.918511"/>
      </g>
     </g>
     <g id="text_10">
      <!-- 0.0145 -->
      <g transform="translate(27.509375 137.71773)scale(0.1 -0.1)">
       <use xlink:href="#DejaVuSans-48"/>
       <use x="63.623047" xlink:href="#DejaVuSans-46"/>
       <use x="95.410156" xlink:href="#DejaVuSans-48"/>
       <use x="159.033203" xlink:href="#DejaVuSans-49"/>
       <use x="222.65625" xlink:href="#DejaVuSans-52"/>
       <use x="286.279297" xlink:href="#DejaVuSans-53"/>
      </g>
     </g>
    </g>
    <g id="ytick_5">
     <g id="line2d_10">
      <g>
       <use style="stroke:#000000;stroke-width:0.8;" x="69.5" xlink:href="#m625595a9f8" y="87.851761"/>
      </g>
     </g>
     <g id="text_11">
      <!-- 0.0150 -->
      <g transform="translate(27.509375 91.65098)scale(0.1 -0.1)">
       <use xlink:href="#DejaVuSans-48"/>
       <use x="63.623047" xlink:href="#DejaVuSans-46"/>
       <use x="95.410156" xlink:href="#DejaVuSans-48"/>
       <use x="159.033203" xlink:href="#DejaVuSans-49"/>
       <use x="222.65625" xlink:href="#DejaVuSans-53"/>
       <use x="286.279297" xlink:href="#DejaVuSans-48"/>
      </g>
     </g>
    </g>
    <g id="ytick_6">
     <g id="line2d_11">
      <g>
       <use style="stroke:#000000;stroke-width:0.8;" x="69.5" xlink:href="#m625595a9f8" y="41.78501"/>
      </g>
     </g>
     <g id="text_12">
      <!-- 0.0155 -->
      <g transform="translate(27.509375 45.584229)scale(0.1 -0.1)">
       <use xlink:href="#DejaVuSans-48"/>
       <use x="63.623047" xlink:href="#DejaVuSans-46"/>
       <use x="95.410156" xlink:href="#DejaVuSans-48"/>
       <use x="159.033203" xlink:href="#DejaVuSans-49"/>
       <use x="222.65625" xlink:href="#DejaVuSans-53"/>
       <use x="286.279297" xlink:href="#DejaVuSans-53"/>
      </g>
     </g>
    </g>
    <g id="text_13">
     <!-- Fano Factor -->
     <defs>
      <path d="M 9.8125 72.90625 
L 51.703125 72.90625 
L 51.703125 64.59375 
L 19.671875 64.59375 
L 19.671875 43.109375 
L 48.578125 43.109375 
L 48.578125 34.8125 
L 19.671875 34.8125 
L 19.671875 0 
L 9.8125 0 
z
" id="DejaVuSans-70"/>
      <path d="M 34.28125 27.484375 
Q 23.390625 27.484375 19.1875 25 
Q 14.984375 22.515625 14.984375 16.5 
Q 14.984375 11.71875 18.140625 8.90625 
Q 21.296875 6.109375 26.703125 6.109375 
Q 34.1875 6.109375 38.703125 11.40625 
Q 43.21875 16.703125 43.21875 25.484375 
L 43.21875 27.484375 
z
M 52.203125 31.203125 
L 52.203125 0 
L 43.21875 0 
L 43.21875 8.296875 
Q 40.140625 3.328125 35.546875 0.953125 
Q 30.953125 -1.421875 24.3125 -1.421875 
Q 15.921875 -1.421875 10.953125 3.296875 
Q 6 8.015625 6 15.921875 
Q 6 25.140625 12.171875 29.828125 
Q 18.359375 34.515625 30.609375 34.515625 
L 43.21875 34.515625 
L 43.21875 35.40625 
Q 43.21875 41.609375 39.140625 45 
Q 35.0625 48.390625 27.6875 48.390625 
Q 23 48.390625 18.546875 47.265625 
Q 14.109375 46.140625 10.015625 43.890625 
L 10.015625 52.203125 
Q 14.9375 54.109375 19.578125 55.046875 
Q 24.21875 56 28.609375 56 
Q 40.484375 56 46.34375 49.84375 
Q 52.203125 43.703125 52.203125 31.203125 
z
" id="DejaVuSans-97"/>
      <path d="M 54.890625 33.015625 
L 54.890625 0 
L 45.90625 0 
L 45.90625 32.71875 
Q 45.90625 40.484375 42.875 44.328125 
Q 39.84375 48.1875 33.796875 48.1875 
Q 26.515625 48.1875 22.3125 43.546875 
Q 18.109375 38.921875 18.109375 30.90625 
L 18.109375 0 
L 9.078125 0 
L 9.078125 54.6875 
L 18.109375 54.6875 
L 18.109375 46.1875 
Q 21.34375 51.125 25.703125 53.5625 
Q 30.078125 56 35.796875 56 
Q 45.21875 56 50.046875 50.171875 
Q 54.890625 44.34375 54.890625 33.015625 
z
" id="DejaVuSans-110"/>
      <path d="M 30.609375 48.390625 
Q 23.390625 48.390625 19.1875 42.75 
Q 14.984375 37.109375 14.984375 27.296875 
Q 14.984375 17.484375 19.15625 11.84375 
Q 23.34375 6.203125 30.609375 6.203125 
Q 37.796875 6.203125 41.984375 11.859375 
Q 46.1875 17.53125 46.1875 27.296875 
Q 46.1875 37.015625 41.984375 42.703125 
Q 37.796875 48.390625 30.609375 48.390625 
z
M 30.609375 56 
Q 42.328125 56 49.015625 48.375 
Q 55.71875 40.765625 55.71875 27.296875 
Q 55.71875 13.875 49.015625 6.21875 
Q 42.328125 -1.421875 30.609375 -1.421875 
Q 18.84375 -1.421875 12.171875 6.21875 
Q 5.515625 13.875 5.515625 27.296875 
Q 5.515625 40.765625 12.171875 48.375 
Q 18.84375 56 30.609375 56 
z
" id="DejaVuSans-111"/>
      <path d="M 48.78125 52.59375 
L 48.78125 44.1875 
Q 44.96875 46.296875 41.140625 47.34375 
Q 37.3125 48.390625 33.40625 48.390625 
Q 24.65625 48.390625 19.8125 42.84375 
Q 14.984375 37.3125 14.984375 27.296875 
Q 14.984375 17.28125 19.8125 11.734375 
Q 24.65625 6.203125 33.40625 6.203125 
Q 37.3125 6.203125 41.140625 7.25 
Q 44.96875 8.296875 48.78125 10.40625 
L 48.78125 2.09375 
Q 45.015625 0.34375 40.984375 -0.53125 
Q 36.96875 -1.421875 32.421875 -1.421875 
Q 20.0625 -1.421875 12.78125 6.34375 
Q 5.515625 14.109375 5.515625 27.296875 
Q 5.515625 40.671875 12.859375 48.328125 
Q 20.21875 56 33.015625 56 
Q 37.15625 56 41.109375 55.140625 
Q 45.0625 54.296875 48.78125 52.59375 
z
" id="DejaVuSans-99"/>
      <path d="M 18.3125 70.21875 
L 18.3125 54.6875 
L 36.8125 54.6875 
L 36.8125 47.703125 
L 18.3125 47.703125 
L 18.3125 18.015625 
Q 18.3125 11.328125 20.140625 9.421875 
Q 21.96875 7.515625 27.59375 7.515625 
L 36.8125 7.515625 
L 36.8125 0 
L 27.59375 0 
Q 17.1875 0 13.234375 3.875 
Q 9.28125 7.765625 9.28125 18.015625 
L 9.28125 47.703125 
L 2.6875 47.703125 
L 2.6875 54.6875 
L 9.28125 54.6875 
L 9.28125 70.21875 
z
" id="DejaVuSans-116"/>
      <path d="M 41.109375 46.296875 
Q 39.59375 47.171875 37.8125 47.578125 
Q 36.03125 48 33.890625 48 
Q 26.265625 48 22.1875 43.046875 
Q 18.109375 38.09375 18.109375 28.8125 
L 18.109375 0 
L 9.078125 0 
L 9.078125 54.6875 
L 18.109375 54.6875 
L 18.109375 46.1875 
Q 20.953125 51.171875 25.484375 53.578125 
Q 30.03125 56 36.53125 56 
Q 37.453125 56 38.578125 55.875 
Q 39.703125 55.765625 41.0625 55.515625 
z
" id="DejaVuSans-114"/>
     </defs>
     <g transform="translate(21.01375 199.228437)rotate(-90)scale(0.12 -0.12)">
      <use xlink:href="#DejaVuSans-70"/>
      <use x="57.378906" xlink:href="#DejaVuSans-97"/>
      <use x="118.658203" xlink:href="#DejaVuSans-110"/>
      <use x="182.037109" xlink:href="#DejaVuSans-111"/>
      <use x="243.21875" xlink:href="#DejaVuSans-32"/>
      <use x="275.005859" xlink:href="#DejaVuSans-70"/>
      <use x="332.384766" xlink:href="#DejaVuSans-97"/>
      <use x="393.664062" xlink:href="#DejaVuSans-99"/>
      <use x="448.644531" xlink:href="#DejaVuSans-116"/>
      <use x="487.853516" xlink:href="#DejaVuSans-111"/>
      <use x="549.035156" xlink:href="#DejaVuSans-114"/>
     </g>
    </g>
   </g>
   <g id="line2d_12">
    <path clip-path="url(#p8b6a4f9b05)" d="M 69.5 188.864742 
L 71.053061 176.484402 
L 72.606122 157.766568 
L 74.159184 141.937881 
L 75.712245 154.545857 
L 77.265306 153.95527 
L 78.818367 142.083713 
L 80.371429 133.836192 
L 81.92449 129.288903 
L 83.477551 117.264066 
L 85.030612 135.098311 
L 86.583673 115.561785 
L 88.136735 137.929493 
L 89.689796 145.157211 
L 91.242857 140.548076 
L 92.795918 151.533859 
L 94.34898 159.588002 
L 95.902041 169.643239 
L 97.455102 176.579273 
L 100.561224 228.128073 
L 102.114286 230.841423 
L 105.220408 252.711544 
L 106.773469 241.855322 
L 108.326531 222.727508 
L 109.879592 217.964026 
L 111.432653 193.633719 
L 112.985714 204.867571 
L 114.538776 182.855529 
L 116.091837 189.968575 
L 117.644898 185.188683 
L 119.197959 177.524196 
L 120.75102 175.248272 
L 122.304082 180.591062 
L 123.857143 168.910191 
L 125.410204 181.945064 
L 126.963265 197.704853 
L 128.516327 198.035704 
L 130.069388 189.677536 
L 131.622449 177.991303 
L 133.17551 179.872405 
L 134.728571 167.2029 
L 136.281633 164.965226 
L 137.834694 147.777861 
L 139.387755 165.496625 
L 140.940816 137.924777 
L 142.493878 138.340285 
L 144.046939 174.760549 
L 145.6 180.735359 
L 147.153061 174.03492 
L 148.706122 178.658477 
L 150.259184 184.100843 
L 151.812245 180.456689 
L 153.365306 173.947138 
L 154.918367 183.160196 
L 156.471429 182.893064 
L 158.02449 169.449416 
L 159.577551 160.735574 
L 161.130612 150.733405 
L 162.683673 148.664951 
L 164.236735 162.167057 
L 167.342857 168.842501 
L 168.895918 142.41214 
L 170.44898 138.955808 
L 172.002041 119.481557 
L 173.555102 131.871224 
L 176.661224 161.149242 
L 178.214286 160.241101 
L 179.767347 129.541688 
L 181.320408 131.168729 
L 182.873469 119.277434 
L 184.426531 139.613857 
L 185.979592 152.594212 
L 187.532653 159.54468 
L 189.085714 181.566377 
L 190.638776 221.070411 
L 192.191837 220.096128 
L 193.744898 223.546745 
L 195.297959 218.259095 
L 196.85102 205.184972 
L 199.957143 191.429807 
L 201.510204 206.119184 
L 203.063265 236.9171 
L 204.616327 249.623913 
L 206.169388 246.240952 
L 207.722449 244.417255 
L 209.27551 243.696867 
L 210.828571 237.419549 
L 212.381633 222.686966 
L 213.934694 226.800749 
L 215.487755 207.86643 
L 217.040816 190.321273 
L 218.593878 169.761588 
L 220.146939 165.532045 
L 221.7 157.471516 
L 223.253061 144.801777 
L 224.806122 149.333525 
L 226.359184 162.692952 
L 227.912245 139.741525 
L 229.465306 154.683379 
L 231.018367 180.508774 
L 232.571429 183.920955 
L 234.12449 184.120342 
L 237.230612 185.759727 
L 238.783673 169.852146 
L 240.336735 148.361068 
L 241.889796 141.712854 
L 243.442857 160.137582 
L 244.995918 148.468644 
L 246.54898 156.427696 
L 248.102041 173.069153 
L 249.655102 177.437533 
L 251.208163 175.713691 
L 252.761224 185.908219 
L 254.314286 159.587877 
L 255.867347 158.107877 
L 257.420408 171.809923 
L 258.973469 162.260065 
L 260.526531 153.558834 
L 262.079592 157.466831 
L 265.185714 138.068355 
L 266.738776 136.31716 
L 268.291837 133.580445 
L 269.844898 147.224877 
L 271.397959 137.397938 
L 272.95102 125.403949 
L 274.504082 151.147211 
L 276.057143 157.909263 
L 277.610204 158.933158 
L 279.163265 181.268106 
L 280.716327 197.239084 
L 282.269388 197.348191 
L 283.822449 181.925951 
L 285.37551 189.808799 
L 286.928571 194.005489 
L 288.481633 201.27958 
L 290.034694 188.260753 
L 291.587755 184.67008 
L 293.140816 183.664263 
L 294.693878 168.754297 
L 296.246939 180.72398 
L 297.8 191.047546 
L 299.353061 188.78288 
L 300.906122 181.258562 
L 302.459184 172.378417 
L 304.012245 179.270546 
L 305.565306 189.24588 
L 307.118367 193.598693 
L 308.671429 182.10971 
L 310.22449 176.874369 
L 311.777551 177.786579 
L 313.330612 169.141868 
L 314.883673 159.078623 
L 316.436735 166.010753 
L 317.989796 160.308545 
L 319.542857 136.036373 
L 321.095918 138.040745 
L 322.64898 146.425573 
L 324.202041 159.908668 
L 325.755102 158.443207 
L 327.308163 165.219779 
L 328.861224 169.22512 
L 330.414286 178.923506 
L 331.967347 169.570937 
L 333.520408 153.358018 
L 335.073469 153.097793 
L 336.626531 142.346494 
L 338.179592 146.681855 
L 339.732653 141.575932 
L 341.285714 141.946184 
L 342.838776 146.394507 
L 344.391837 143.209329 
L 345.944898 147.26245 
L 347.497959 156.604217 
L 349.05102 191.196203 
L 350.604082 199.359429 
L 352.157143 208.6379 
L 353.710204 201.92534 
L 355.263265 207.182694 
L 356.816327 219.638971 
L 358.369388 229.702086 
L 359.922449 225.682886 
L 361.47551 210.870869 
L 364.581633 232.894396 
L 366.134694 240.639159 
L 367.687755 238.675806 
L 369.240816 254.745727 
L 370.793878 251.521056 
L 372.346939 251.870789 
L 373.9 265.664068 
L 375.453061 237.43747 
L 377.006122 188.844155 
L 378.559184 181.133175 
L 380.112245 174.743287 
L 381.665306 177.322476 
L 383.218367 173.347044 
L 384.771429 161.925961 
L 386.32449 147.251963 
L 387.877551 137.556187 
L 389.430612 161.51761 
L 390.983673 153.21942 
L 392.536735 148.36695 
L 394.089796 157.545048 
L 395.642857 163.027229 
L 397.195918 175.702782 
L 398.74898 168.69778 
L 400.302041 162.635169 
L 401.855102 141.364275 
L 403.408163 136.731852 
L 404.961224 131.372697 
L 406.514286 147.175616 
L 408.067347 146.332454 
L 409.620408 142.970775 
L 411.173469 136.112192 
L 412.726531 138.393877 
L 414.279592 130.397701 
L 415.832653 132.165827 
L 417.385714 149.71806 
L 418.938776 141.839122 
L 420.491837 124.834113 
L 422.044898 98.004668 
L 423.597959 79.117669 
L 425.15102 83.840957 
L 426.704082 79.664767 
L 428.257143 111.015003 
L 429.810204 102.104501 
L 431.363265 101.322879 
L 432.916327 117.82956 
L 434.469388 136.441037 
L 436.022449 133.107846 
L 437.57551 154.5254 
L 439.128571 159.479587 
L 440.681633 140.208769 
L 442.234694 124.171899 
L 443.787755 116.639775 
L 445.340816 121.533824 
L 446.893878 87.032133 
L 448.446939 87.466734 
L 450 94.912895 
L 450 94.912895 
" style="fill:none;stroke:#0000ff;stroke-linecap:square;stroke-width:1.5;"/>
   </g>
   <g id="patch_3">
    <path d="M 69.5 300.76 
L 69.5 26.88 
" style="fill:none;stroke:#000000;stroke-linecap:square;stroke-linejoin:miter;stroke-width:0.8;"/>
   </g>
   <g id="patch_4">
    <path d="M 450 300.76 
L 450 26.88 
" style="fill:none;stroke:#000000;stroke-linecap:square;stroke-linejoin:miter;stroke-width:0.8;"/>
   </g>
   <g id="patch_5">
    <path d="M 69.5 300.76 
L 450 300.76 
" style="fill:none;stroke:#000000;stroke-linecap:square;stroke-linejoin:miter;stroke-width:0.8;"/>
   </g>
   <g id="patch_6">
    <path d="M 69.5 26.88 
L 450 26.88 
" style="fill:none;stroke:#000000;stroke-linecap:square;stroke-linejoin:miter;stroke-width:0.8;"/>
   </g>
   <g id="text_14">
    <!-- Region = striatum, Num fully responsive cells = 141 -->
    <defs>
     <path d="M 44.390625 34.1875 
Q 47.5625 33.109375 50.5625 29.59375 
Q 53.5625 26.078125 56.59375 19.921875 
L 66.609375 0 
L 56 0 
L 46.6875 18.703125 
Q 43.0625 26.03125 39.671875 28.421875 
Q 36.28125 30.8125 30.421875 30.8125 
L 19.671875 30.8125 
L 19.671875 0 
L 9.8125 0 
L 9.8125 72.90625 
L 32.078125 72.90625 
Q 44.578125 72.90625 50.734375 67.671875 
Q 56.890625 62.453125 56.890625 51.90625 
Q 56.890625 45.015625 53.6875 40.46875 
Q 50.484375 35.9375 44.390625 34.1875 
z
M 19.671875 64.796875 
L 19.671875 38.921875 
L 32.078125 38.921875 
Q 39.203125 38.921875 42.84375 42.21875 
Q 46.484375 45.515625 46.484375 51.90625 
Q 46.484375 58.296875 42.84375 61.546875 
Q 39.203125 64.796875 32.078125 64.796875 
z
" id="DejaVuSans-82"/>
     <path d="M 45.40625 27.984375 
Q 45.40625 37.75 41.375 43.109375 
Q 37.359375 48.484375 30.078125 48.484375 
Q 22.859375 48.484375 18.828125 43.109375 
Q 14.796875 37.75 14.796875 27.984375 
Q 14.796875 18.265625 18.828125 12.890625 
Q 22.859375 7.515625 30.078125 7.515625 
Q 37.359375 7.515625 41.375 12.890625 
Q 45.40625 18.265625 45.40625 27.984375 
z
M 54.390625 6.78125 
Q 54.390625 -7.171875 48.1875 -13.984375 
Q 42 -20.796875 29.203125 -20.796875 
Q 24.46875 -20.796875 20.265625 -20.09375 
Q 16.0625 -19.390625 12.109375 -17.921875 
L 12.109375 -9.1875 
Q 16.0625 -11.328125 19.921875 -12.34375 
Q 23.78125 -13.375 27.78125 -13.375 
Q 36.625 -13.375 41.015625 -8.765625 
Q 45.40625 -4.15625 45.40625 5.171875 
L 45.40625 9.625 
Q 42.625 4.78125 38.28125 2.390625 
Q 33.9375 0 27.875 0 
Q 17.828125 0 11.671875 7.65625 
Q 5.515625 15.328125 5.515625 27.984375 
Q 5.515625 40.671875 11.671875 48.328125 
Q 17.828125 56 27.875 56 
Q 33.9375 56 38.28125 53.609375 
Q 42.625 51.21875 45.40625 46.390625 
L 45.40625 54.6875 
L 54.390625 54.6875 
z
" id="DejaVuSans-103"/>
     <path d="M 10.59375 45.40625 
L 73.1875 45.40625 
L 73.1875 37.203125 
L 10.59375 37.203125 
z
M 10.59375 25.484375 
L 73.1875 25.484375 
L 73.1875 17.1875 
L 10.59375 17.1875 
z
" id="DejaVuSans-61"/>
     <path d="M 8.5 21.578125 
L 8.5 54.6875 
L 17.484375 54.6875 
L 17.484375 21.921875 
Q 17.484375 14.15625 20.5 10.265625 
Q 23.53125 6.390625 29.59375 6.390625 
Q 36.859375 6.390625 41.078125 11.03125 
Q 45.3125 15.671875 45.3125 23.6875 
L 45.3125 54.6875 
L 54.296875 54.6875 
L 54.296875 0 
L 45.3125 0 
L 45.3125 8.40625 
Q 42.046875 3.421875 37.71875 1 
Q 33.40625 -1.421875 27.6875 -1.421875 
Q 18.265625 -1.421875 13.375 4.4375 
Q 8.5 10.296875 8.5 21.578125 
z
M 31.109375 56 
z
" id="DejaVuSans-117"/>
     <path d="M 11.71875 12.40625 
L 22.015625 12.40625 
L 22.015625 4 
L 14.015625 -11.625 
L 7.71875 -11.625 
L 11.71875 4 
z
" id="DejaVuSans-44"/>
     <path d="M 9.8125 72.90625 
L 23.09375 72.90625 
L 55.421875 11.921875 
L 55.421875 72.90625 
L 64.984375 72.90625 
L 64.984375 0 
L 51.703125 0 
L 19.390625 60.984375 
L 19.390625 0 
L 9.8125 0 
z
" id="DejaVuSans-78"/>
     <path d="M 37.109375 75.984375 
L 37.109375 68.5 
L 28.515625 68.5 
Q 23.6875 68.5 21.796875 66.546875 
Q 19.921875 64.59375 19.921875 59.515625 
L 19.921875 54.6875 
L 34.71875 54.6875 
L 34.71875 47.703125 
L 19.921875 47.703125 
L 19.921875 0 
L 10.890625 0 
L 10.890625 47.703125 
L 2.296875 47.703125 
L 2.296875 54.6875 
L 10.890625 54.6875 
L 10.890625 58.5 
Q 10.890625 67.625 15.140625 71.796875 
Q 19.390625 75.984375 28.609375 75.984375 
z
" id="DejaVuSans-102"/>
     <path d="M 9.421875 75.984375 
L 18.40625 75.984375 
L 18.40625 0 
L 9.421875 0 
z
" id="DejaVuSans-108"/>
     <path d="M 32.171875 -5.078125 
Q 28.375 -14.84375 24.75 -17.8125 
Q 21.140625 -20.796875 15.09375 -20.796875 
L 7.90625 -20.796875 
L 7.90625 -13.28125 
L 13.1875 -13.28125 
Q 16.890625 -13.28125 18.9375 -11.515625 
Q 21 -9.765625 23.484375 -3.21875 
L 25.09375 0.875 
L 2.984375 54.6875 
L 12.5 54.6875 
L 29.59375 11.921875 
L 46.6875 54.6875 
L 56.203125 54.6875 
z
" id="DejaVuSans-121"/>
     <path d="M 18.109375 8.203125 
L 18.109375 -20.796875 
L 9.078125 -20.796875 
L 9.078125 54.6875 
L 18.109375 54.6875 
L 18.109375 46.390625 
Q 20.953125 51.265625 25.265625 53.625 
Q 29.59375 56 35.59375 56 
Q 45.5625 56 51.78125 48.09375 
Q 58.015625 40.1875 58.015625 27.296875 
Q 58.015625 14.40625 51.78125 6.484375 
Q 45.5625 -1.421875 35.59375 -1.421875 
Q 29.59375 -1.421875 25.265625 0.953125 
Q 20.953125 3.328125 18.109375 8.203125 
z
M 48.6875 27.296875 
Q 48.6875 37.203125 44.609375 42.84375 
Q 40.53125 48.484375 33.40625 48.484375 
Q 26.265625 48.484375 22.1875 42.84375 
Q 18.109375 37.203125 18.109375 27.296875 
Q 18.109375 17.390625 22.1875 11.75 
Q 26.265625 6.109375 33.40625 6.109375 
Q 40.53125 6.109375 44.609375 11.75 
Q 48.6875 17.390625 48.6875 27.296875 
z
" id="DejaVuSans-112"/>
     <path d="M 2.984375 54.6875 
L 12.5 54.6875 
L 29.59375 8.796875 
L 46.6875 54.6875 
L 56.203125 54.6875 
L 35.6875 0 
L 23.484375 0 
z
" id="DejaVuSans-118"/>
    </defs>
    <g transform="translate(101.999687 20.88)scale(0.12 -0.12)">
     <use xlink:href="#DejaVuSans-82"/>
     <use x="69.419922" xlink:href="#DejaVuSans-101"/>
     <use x="130.943359" xlink:href="#DejaVuSans-103"/>
     <use x="194.419922" xlink:href="#DejaVuSans-105"/>
     <use x="222.203125" xlink:href="#DejaVuSans-111"/>
     <use x="283.384766" xlink:href="#DejaVuSans-110"/>
     <use x="346.763672" xlink:href="#DejaVuSans-32"/>
     <use x="378.550781" xlink:href="#DejaVuSans-61"/>
     <use x="462.339844" xlink:href="#DejaVuSans-32"/>
     <use x="494.126953" xlink:href="#DejaVuSans-115"/>
     <use x="546.226562" xlink:href="#DejaVuSans-116"/>
     <use x="585.435547" xlink:href="#DejaVuSans-114"/>
     <use x="626.548828" xlink:href="#DejaVuSans-105"/>
     <use x="654.332031" xlink:href="#DejaVuSans-97"/>
     <use x="715.611328" xlink:href="#DejaVuSans-116"/>
     <use x="754.820312" xlink:href="#DejaVuSans-117"/>
     <use x="818.199219" xlink:href="#DejaVuSans-109"/>
     <use x="915.611328" xlink:href="#DejaVuSans-44"/>
     <use x="947.398438" xlink:href="#DejaVuSans-32"/>
     <use x="979.185547" xlink:href="#DejaVuSans-78"/>
     <use x="1053.990234" xlink:href="#DejaVuSans-117"/>
     <use x="1117.369141" xlink:href="#DejaVuSans-109"/>
     <use x="1214.78125" xlink:href="#DejaVuSans-32"/>
     <use x="1246.568359" xlink:href="#DejaVuSans-102"/>
     <use x="1281.773438" xlink:href="#DejaVuSans-117"/>
     <use x="1345.152344" xlink:href="#DejaVuSans-108"/>
     <use x="1372.935547" xlink:href="#DejaVuSans-108"/>
     <use x="1400.71875" xlink:href="#DejaVuSans-121"/>
     <use x="1459.898438" xlink:href="#DejaVuSans-32"/>
     <use x="1491.685547" xlink:href="#DejaVuSans-114"/>
     <use x="1532.767578" xlink:href="#DejaVuSans-101"/>
     <use x="1594.291016" xlink:href="#DejaVuSans-115"/>
     <use x="1646.390625" xlink:href="#DejaVuSans-112"/>
     <use x="1709.867188" xlink:href="#DejaVuSans-111"/>
     <use x="1771.048828" xlink:href="#DejaVuSans-110"/>
     <use x="1834.427734" xlink:href="#DejaVuSans-115"/>
     <use x="1886.527344" xlink:href="#DejaVuSans-105"/>
     <use x="1914.310547" xlink:href="#DejaVuSans-118"/>
     <use x="1973.490234" xlink:href="#DejaVuSans-101"/>
     <use x="2035.013672" xlink:href="#DejaVuSans-32"/>
     <use x="2066.800781" xlink:href="#DejaVuSans-99"/>
     <use x="2121.78125" xlink:href="#DejaVuSans-101"/>
     <use x="2183.304688" xlink:href="#DejaVuSans-108"/>
     <use x="2211.087891" xlink:href="#DejaVuSans-108"/>
     <use x="2238.871094" xlink:href="#DejaVuSans-115"/>
     <use x="2290.970703" xlink:href="#DejaVuSans-32"/>
     <use x="2322.757812" xlink:href="#DejaVuSans-61"/>
     <use x="2406.546875" xlink:href="#DejaVuSans-32"/>
     <use x="2438.333984" xlink:href="#DejaVuSans-49"/>
     <use x="2501.957031" xlink:href="#DejaVuSans-52"/>
     <use x="2565.580078" xlink:href="#DejaVuSans-49"/>
    </g>
   </g>
   <g id="legend_1">
    <g id="patch_7">
     <path d="M 354.388125 54.09375 
L 441.6 54.09375 
Q 444 54.09375 444 51.69375 
L 444 35.28 
Q 444 32.88 441.6 32.88 
L 354.388125 32.88 
Q 351.988125 32.88 351.988125 35.28 
L 351.988125 51.69375 
Q 351.988125 54.09375 354.388125 54.09375 
z
" style="fill:#ffffff;opacity:0.8;stroke:#cccccc;stroke-linejoin:miter;"/>
    </g>
    <g id="patch_8">
     <path d="M 356.788125 46.798125 
L 380.788125 46.798125 
L 380.788125 38.398125 
L 356.788125 38.398125 
z
" style="fill:#0000ff;opacity:0.25;stroke:#0000ff;stroke-linejoin:miter;"/>
    </g>
    <g id="text_15">
     <!-- Std. Err. -->
     <defs>
      <path d="M 53.515625 70.515625 
L 53.515625 60.890625 
Q 47.90625 63.578125 42.921875 64.890625 
Q 37.9375 66.21875 33.296875 66.21875 
Q 25.25 66.21875 20.875 63.09375 
Q 16.5 59.96875 16.5 54.203125 
Q 16.5 49.359375 19.40625 46.890625 
Q 22.3125 44.4375 30.421875 42.921875 
L 36.375 41.703125 
Q 47.40625 39.59375 52.65625 34.296875 
Q 57.90625 29 57.90625 20.125 
Q 57.90625 9.515625 50.796875 4.046875 
Q 43.703125 -1.421875 29.984375 -1.421875 
Q 24.8125 -1.421875 18.96875 -0.25 
Q 13.140625 0.921875 6.890625 3.21875 
L 6.890625 13.375 
Q 12.890625 10.015625 18.65625 8.296875 
Q 24.421875 6.59375 29.984375 6.59375 
Q 38.421875 6.59375 43.015625 9.90625 
Q 47.609375 13.234375 47.609375 19.390625 
Q 47.609375 24.75 44.3125 27.78125 
Q 41.015625 30.8125 33.5 32.328125 
L 27.484375 33.5 
Q 16.453125 35.6875 11.515625 40.375 
Q 6.59375 45.0625 6.59375 53.421875 
Q 6.59375 63.09375 13.40625 68.65625 
Q 20.21875 74.21875 32.171875 74.21875 
Q 37.3125 74.21875 42.625 73.28125 
Q 47.953125 72.359375 53.515625 70.515625 
z
" id="DejaVuSans-83"/>
      <path d="M 45.40625 46.390625 
L 45.40625 75.984375 
L 54.390625 75.984375 
L 54.390625 0 
L 45.40625 0 
L 45.40625 8.203125 
Q 42.578125 3.328125 38.25 0.953125 
Q 33.9375 -1.421875 27.875 -1.421875 
Q 17.96875 -1.421875 11.734375 6.484375 
Q 5.515625 14.40625 5.515625 27.296875 
Q 5.515625 40.1875 11.734375 48.09375 
Q 17.96875 56 27.875 56 
Q 33.9375 56 38.25 53.625 
Q 42.578125 51.265625 45.40625 46.390625 
z
M 14.796875 27.296875 
Q 14.796875 17.390625 18.875 11.75 
Q 22.953125 6.109375 30.078125 6.109375 
Q 37.203125 6.109375 41.296875 11.75 
Q 45.40625 17.390625 45.40625 27.296875 
Q 45.40625 37.203125 41.296875 42.84375 
Q 37.203125 48.484375 30.078125 48.484375 
Q 22.953125 48.484375 18.875 42.84375 
Q 14.796875 37.203125 14.796875 27.296875 
z
" id="DejaVuSans-100"/>
      <path d="M 9.8125 72.90625 
L 55.90625 72.90625 
L 55.90625 64.59375 
L 19.671875 64.59375 
L 19.671875 43.015625 
L 54.390625 43.015625 
L 54.390625 34.71875 
L 19.671875 34.71875 
L 19.671875 8.296875 
L 56.78125 8.296875 
L 56.78125 0 
L 9.8125 0 
z
" id="DejaVuSans-69"/>
     </defs>
     <g transform="translate(390.388125 46.798125)scale(0.12 -0.12)">
      <use xlink:href="#DejaVuSans-83"/>
      <use x="63.476562" xlink:href="#DejaVuSans-116"/>
      <use x="102.685547" xlink:href="#DejaVuSans-100"/>
      <use x="166.162109" xlink:href="#DejaVuSans-46"/>
      <use x="197.949219" xlink:href="#DejaVuSans-32"/>
      <use x="229.736328" xlink:href="#DejaVuSans-69"/>
      <use x="292.919922" xlink:href="#DejaVuSans-114"/>
      <use x="334.017578" xlink:href="#DejaVuSans-114"/>
      <use x="374.990234" xlink:href="#DejaVuSans-46"/>
     </g>
    </g>
   </g>
  </g>
 </g>
 <defs>
  <clipPath id="p8b6a4f9b05">
   <rect height="273.88" width="380.5" x="69.5" y="26.88"/>
  </clipPath>
 </defs>
</svg>
