<?xml version="1.0" encoding="utf-8" standalone="no"?>
<!DOCTYPE svg PUBLIC "-//W3C//DTD SVG 1.1//EN"
  "http://www.w3.org/Graphics/SVG/1.1/DTD/svg11.dtd">
<!-- Created with matplotlib (https://matplotlib.org/) -->
<svg height="216pt" version="1.1" viewBox="0 0 288 216" width="288pt" xmlns="http://www.w3.org/2000/svg" xmlns:xlink="http://www.w3.org/1999/xlink">
 <defs>
  <style type="text/css">
*{stroke-linecap:butt;stroke-linejoin:round;}
  </style>
 </defs>
 <g id="figure_1">
  <g id="patch_1">
   <path d="M 0 216 
L 288 216 
L 288 0 
L 0 0 
z
" style="fill:#ffffff;"/>
  </g>
  <g id="axes_1">
   <g id="patch_2">
    <path d="M 57.71 170.44 
L 277.2 170.44 
L 277.2 26.88 
L 57.71 26.88 
z
" style="fill:#ffffff;"/>
   </g>
   <g id="PolyCollection_1">
    <defs>
     <path d="M 57.71 -116.411839 
L 57.71 -61.808356 
L 58.538264 -63.947881 
L 59.366528 -63.820385 
L 60.194792 -66.941873 
L 61.023057 -67.122497 
L 61.851321 -67.598111 
L 62.679585 -67.587721 
L 63.507849 -65.171091 
L 64.336113 -61.280047 
L 65.164377 -57.919102 
L 65.992642 -53.173206 
L 66.820906 -52.39619 
L 67.64917 -55.094233 
L 68.477434 -58.6573 
L 69.305698 -57.520982 
L 70.133962 -56.4793 
L 70.962226 -59.434281 
L 71.790491 -59.176448 
L 72.618755 -66.795361 
L 73.447019 -68.442336 
L 74.275283 -68.521267 
L 75.103547 -73.05644 
L 75.931811 -77.685726 
L 76.760075 -77.173765 
L 77.58834 -77.480993 
L 78.416604 -73.153414 
L 79.244868 -68.417173 
L 80.073132 -69.431258 
L 80.901396 -71.231291 
L 81.72966 -72.42985 
L 82.557925 -70.948642 
L 83.386189 -71.987714 
L 84.214453 -71.308094 
L 85.042717 -73.504349 
L 85.870981 -81.415155 
L 86.699245 -78.732996 
L 87.527509 -75.75636 
L 88.355774 -72.682314 
L 89.184038 -75.090402 
L 90.012302 -77.280769 
L 90.840566 -82.118914 
L 91.66883 -81.073339 
L 92.497094 -80.813918 
L 93.325358 -80.873922 
L 94.153623 -83.421395 
L 94.981887 -83.239956 
L 95.810151 -84.650211 
L 96.638415 -83.385621 
L 97.466679 -86.214694 
L 98.294943 -93.483606 
L 99.123208 -97.298796 
L 99.951472 -96.586026 
L 100.779736 -91.843484 
L 101.608 -91.452053 
L 102.436264 -93.395577 
L 103.264528 -96.800126 
L 104.092792 -96.487048 
L 104.921057 -95.266384 
L 105.749321 -96.415566 
L 106.577585 -100.397335 
L 107.405849 -101.706593 
L 108.234113 -102.043418 
L 109.062377 -102.906182 
L 109.890642 -101.120671 
L 110.718906 -100.493634 
L 111.54717 -105.703391 
L 112.375434 -107.469628 
L 113.203698 -110.416089 
L 114.031962 -107.864339 
L 114.860226 -104.698816 
L 115.688491 -100.486459 
L 116.516755 -104.095855 
L 117.345019 -103.34283 
L 118.173283 -102.002839 
L 119.001547 -100.663097 
L 119.829811 -100.051315 
L 120.658075 -101.546967 
L 121.48634 -103.063255 
L 122.314604 -101.057468 
L 123.142868 -101.079503 
L 123.971132 -96.82714 
L 124.799396 -98.516674 
L 125.62766 -93.288224 
L 126.455925 -92.878457 
L 127.284189 -91.308663 
L 128.112453 -91.560078 
L 128.940717 -85.455948 
L 129.768981 -85.839044 
L 130.597245 -76.91408 
L 131.425509 -76.724352 
L 132.253774 -74.159896 
L 133.082038 -74.336258 
L 133.910302 -74.292008 
L 134.738566 -74.474767 
L 135.56683 -72.318782 
L 136.395094 -69.526338 
L 137.223358 -69.428274 
L 138.051623 -66.02576 
L 138.879887 -65.300701 
L 139.708151 -64.277164 
L 140.536415 -64.26933 
L 141.364679 -64.587099 
L 142.192943 -62.859508 
L 143.021208 -64.053595 
L 143.849472 -63.854132 
L 144.677736 -65.212793 
L 145.506 -65.884421 
L 146.334264 -62.821575 
L 147.162528 -62.361243 
L 147.990792 -67.81706 
L 148.819057 -67.261146 
L 149.647321 -69.800652 
L 150.475585 -68.856319 
L 151.303849 -68.499141 
L 152.132113 -72.784049 
L 152.960377 -75.865923 
L 153.788642 -76.915032 
L 154.616906 -78.730553 
L 155.44517 -81.218145 
L 156.273434 -81.561084 
L 157.101698 -87.462745 
L 157.929962 -89.341809 
L 158.758226 -91.349176 
L 159.586491 -89.447878 
L 160.414755 -91.700597 
L 161.243019 -91.085015 
L 162.071283 -91.758921 
L 162.899547 -95.982482 
L 163.727811 -98.275013 
L 164.556075 -96.531633 
L 165.38434 -97.089876 
L 166.212604 -97.189179 
L 167.040868 -101.014032 
L 167.869132 -102.817706 
L 168.697396 -103.378529 
L 169.52566 -104.907804 
L 170.353925 -106.724655 
L 171.182189 -108.380457 
L 172.010453 -110.537108 
L 172.838717 -112.4991 
L 173.666981 -108.480295 
L 174.495245 -109.494116 
L 175.323509 -109.557511 
L 176.151774 -112.133653 
L 176.980038 -114.29175 
L 177.808302 -114.945779 
L 178.636566 -111.164169 
L 179.46483 -114.244964 
L 180.293094 -117.059272 
L 181.121358 -114.65052 
L 181.949623 -115.436707 
L 182.777887 -115.208891 
L 183.606151 -118.669961 
L 184.434415 -121.645224 
L 185.262679 -115.803603 
L 186.090943 -113.328338 
L 186.919208 -114.453129 
L 187.747472 -108.792565 
L 188.575736 -103.763761 
L 189.404 -101.088596 
L 190.232264 -100.88424 
L 191.060528 -98.932237 
L 191.888792 -97.796964 
L 192.717057 -97.967807 
L 193.545321 -98.191684 
L 194.373585 -95.401083 
L 195.201849 -95.909807 
L 196.030113 -98.60373 
L 196.858377 -99.328935 
L 197.686642 -97.318822 
L 198.514906 -99.491724 
L 199.34317 -98.022708 
L 200.171434 -91.590327 
L 200.999698 -93.976749 
L 201.827962 -90.890498 
L 202.656226 -90.509858 
L 203.484491 -92.864937 
L 204.312755 -91.948222 
L 205.141019 -94.851371 
L 205.969283 -94.689358 
L 206.797547 -94.592767 
L 207.625811 -93.612344 
L 208.454075 -95.324223 
L 209.28234 -95.727584 
L 210.110604 -90.688861 
L 210.938868 -86.495691 
L 211.767132 -89.790086 
L 212.595396 -89.1867 
L 213.42366 -87.766646 
L 214.251925 -87.514164 
L 215.080189 -86.677 
L 215.908453 -86.467563 
L 216.736717 -84.605893 
L 217.564981 -85.325437 
L 218.393245 -84.226477 
L 219.221509 -83.508471 
L 220.049774 -83.989411 
L 220.878038 -84.830843 
L 221.706302 -85.177313 
L 222.534566 -83.219612 
L 223.36283 -83.258572 
L 224.191094 -80.446153 
L 225.019358 -85.088383 
L 225.847623 -84.341357 
L 226.675887 -81.871599 
L 227.504151 -78.30636 
L 228.332415 -76.678838 
L 229.160679 -72.864914 
L 229.988943 -72.773932 
L 230.817208 -77.706224 
L 231.645472 -80.344672 
L 232.473736 -84.590896 
L 233.302 -84.720428 
L 234.130264 -85.358311 
L 234.958528 -87.425056 
L 235.786792 -89.178116 
L 236.615057 -90.012736 
L 237.443321 -91.460426 
L 238.271585 -93.245817 
L 239.099849 -91.305766 
L 239.928113 -89.515402 
L 240.756377 -89.563184 
L 241.584642 -92.388818 
L 242.412906 -96.045948 
L 243.24117 -99.577769 
L 244.069434 -101.872948 
L 244.897698 -102.587672 
L 245.725962 -104.025334 
L 246.554226 -108.447571 
L 247.382491 -109.3932 
L 248.210755 -109.895671 
L 249.039019 -108.965187 
L 249.867283 -102.227861 
L 250.695547 -99.921591 
L 251.523811 -100.199082 
L 252.352075 -108.129156 
L 253.18034 -105.845136 
L 254.008604 -107.773781 
L 254.836868 -110.689708 
L 255.665132 -109.52827 
L 256.493396 -115.290631 
L 257.32166 -111.750896 
L 258.149925 -109.197038 
L 258.978189 -108.954141 
L 259.806453 -110.827839 
L 260.634717 -115.001986 
L 261.462981 -116.001963 
L 262.291245 -114.377259 
L 263.119509 -113.159945 
L 263.947774 -111.580117 
L 264.776038 -110.744779 
L 265.604302 -109.987165 
L 266.432566 -111.252063 
L 267.26083 -109.684212 
L 268.089094 -105.669858 
L 268.917358 -103.891848 
L 269.745623 -98.834698 
L 270.573887 -98.762737 
L 271.402151 -99.493966 
L 272.230415 -97.611117 
L 273.058679 -95.971796 
L 273.886943 -95.021578 
L 274.715208 -93.813554 
L 275.543472 -86.898421 
L 276.371736 -88.643367 
L 277.2 -86.652202 
L 277.2 -144.530518 
L 277.2 -144.530518 
L 276.371736 -146.538725 
L 275.543472 -144.755817 
L 274.715208 -152.789149 
L 273.886943 -153.632212 
L 273.058679 -154.295281 
L 272.230415 -156.394552 
L 271.402151 -158.316823 
L 270.573887 -156.94279 
L 269.745623 -157.78401 
L 268.917358 -163.349082 
L 268.089094 -164.472456 
L 267.26083 -169.82922 
L 266.432566 -171.634648 
L 265.604302 -169.144692 
L 264.776038 -170.156331 
L 263.947774 -170.806656 
L 263.119509 -172.204624 
L 262.291245 -173.596267 
L 261.462981 -176.326504 
L 260.634717 -174.772892 
L 259.806453 -169.347885 
L 258.978189 -168.454603 
L 258.149925 -169.045781 
L 257.32166 -170.983507 
L 256.493396 -174.864437 
L 255.665132 -169.706716 
L 254.836868 -170.707418 
L 254.008604 -167.683149 
L 253.18034 -165.961249 
L 252.352075 -168.188948 
L 251.523811 -160.425899 
L 250.695547 -160.208139 
L 249.867283 -163.205414 
L 249.039019 -170.645904 
L 248.210755 -171.470136 
L 247.382491 -171.243277 
L 246.554226 -170.418262 
L 245.725962 -165.683551 
L 244.897698 -163.569315 
L 244.069434 -162.781939 
L 243.24117 -160.278955 
L 242.412906 -156.48222 
L 241.584642 -152.024855 
L 240.756377 -148.867018 
L 239.928113 -149.548006 
L 239.099849 -151.601909 
L 238.271585 -153.128601 
L 237.443321 -151.620063 
L 236.615057 -151.322749 
L 235.786792 -151.303889 
L 234.958528 -149.362663 
L 234.130264 -147.649596 
L 233.302 -146.737633 
L 232.473736 -145.991072 
L 231.645472 -141.858 
L 230.817208 -139.257462 
L 229.988943 -133.592554 
L 229.160679 -133.680357 
L 228.332415 -138.52746 
L 227.504151 -140.256754 
L 226.675887 -143.868451 
L 225.847623 -146.065823 
L 225.019358 -145.784421 
L 224.191094 -141.068188 
L 223.36283 -144.812401 
L 222.534566 -144.70226 
L 221.706302 -146.060547 
L 220.878038 -145.299533 
L 220.049774 -144.624593 
L 219.221509 -144.55128 
L 218.393245 -145.258294 
L 217.564981 -146.361934 
L 216.736717 -145.228184 
L 215.908453 -146.944306 
L 215.080189 -148.298049 
L 214.251925 -149.376837 
L 213.42366 -149.900192 
L 212.595396 -151.775943 
L 211.767132 -152.695412 
L 210.938868 -149.971144 
L 210.110604 -155.220105 
L 209.28234 -160.317292 
L 208.454075 -159.853426 
L 207.625811 -158.275866 
L 206.797547 -159.968034 
L 205.969283 -159.664944 
L 205.141019 -160.041751 
L 204.312755 -156.661924 
L 203.484491 -157.466448 
L 202.656226 -154.442004 
L 201.827962 -154.700122 
L 200.999698 -159.103374 
L 200.171434 -156.6551 
L 199.34317 -162.630879 
L 198.514906 -164.072729 
L 197.686642 -161.32329 
L 196.858377 -162.976988 
L 196.030113 -161.328641 
L 195.201849 -158.967126 
L 194.373585 -158.810716 
L 193.545321 -161.534832 
L 192.717057 -160.977777 
L 191.888792 -160.998972 
L 191.060528 -161.620135 
L 190.232264 -164.633231 
L 189.404 -165.720144 
L 188.575736 -168.369849 
L 187.747472 -174.273542 
L 186.919208 -180.657807 
L 186.090943 -179.331412 
L 185.262679 -181.661085 
L 184.434415 -189.12 
L 183.606151 -187.051757 
L 182.777887 -183.478728 
L 181.949623 -183.902017 
L 181.121358 -184.216854 
L 180.293094 -186.337663 
L 179.46483 -183.817291 
L 178.636566 -179.691151 
L 177.808302 -183.088512 
L 176.980038 -182.437099 
L 176.151774 -179.627627 
L 175.323509 -176.821592 
L 174.495245 -176.093827 
L 173.666981 -173.5115 
L 172.838717 -177.539824 
L 172.010453 -174.297695 
L 171.182189 -171.87036 
L 170.353925 -169.762384 
L 169.52566 -166.562636 
L 168.697396 -164.517818 
L 167.869132 -163.772868 
L 167.040868 -161.737818 
L 166.212604 -158.006035 
L 165.38434 -158.738623 
L 164.556075 -158.161355 
L 163.727811 -160.385755 
L 162.899547 -157.545136 
L 162.071283 -153.72081 
L 161.243019 -153.028602 
L 160.414755 -153.475574 
L 159.586491 -151.197747 
L 158.758226 -153.841328 
L 157.929962 -151.609281 
L 157.101698 -149.612713 
L 156.273434 -142.554863 
L 155.44517 -142.179849 
L 154.616906 -138.504546 
L 153.788642 -136.365235 
L 152.960377 -135.413168 
L 152.132113 -131.83376 
L 151.303849 -126.242016 
L 150.475585 -126.178485 
L 149.647321 -127.064147 
L 148.819057 -123.09321 
L 147.990792 -123.85523 
L 147.162528 -117.632878 
L 146.334264 -118.126097 
L 145.506 -120.912851 
L 144.677736 -120.32256 
L 143.849472 -119.168696 
L 143.021208 -119.702713 
L 142.192943 -119.027371 
L 141.364679 -119.978186 
L 140.536415 -119.637582 
L 139.708151 -119.125997 
L 138.879887 -119.970829 
L 138.051623 -120.784525 
L 137.223358 -124.724085 
L 136.395094 -124.039355 
L 135.56683 -127.070688 
L 134.738566 -129.863189 
L 133.910302 -129.888466 
L 133.082038 -129.084078 
L 132.253774 -129.012137 
L 131.425509 -132.074973 
L 130.597245 -131.852498 
L 129.768981 -140.96018 
L 128.940717 -140.236119 
L 128.112453 -147.194957 
L 127.284189 -147.55926 
L 126.455925 -149.282886 
L 125.62766 -149.73878 
L 124.799396 -155.980358 
L 123.971132 -153.885593 
L 123.142868 -158.119949 
L 122.314604 -158.359142 
L 121.48634 -161.291931 
L 120.658075 -159.473334 
L 119.829811 -158.377225 
L 119.001547 -159.263001 
L 118.173283 -160.687071 
L 117.345019 -162.53281 
L 116.516755 -163.41113 
L 115.688491 -159.625541 
L 114.860226 -164.090612 
L 114.031962 -168.070729 
L 113.203698 -170.936591 
L 112.375434 -167.341303 
L 111.54717 -165.221412 
L 110.718906 -159.568173 
L 109.890642 -160.351909 
L 109.062377 -161.827785 
L 108.234113 -161.315465 
L 107.405849 -160.979732 
L 106.577585 -159.321943 
L 105.749321 -154.960937 
L 104.921057 -153.817673 
L 104.092792 -154.177295 
L 103.264528 -154.540715 
L 102.436264 -150.677199 
L 101.608 -148.126896 
L 100.779736 -147.990773 
L 99.951472 -153.295141 
L 99.123208 -153.969109 
L 98.294943 -149.978135 
L 97.466679 -142.221676 
L 96.638415 -138.463545 
L 95.810151 -140.390505 
L 94.981887 -138.624056 
L 94.153623 -138.983632 
L 93.325358 -135.745224 
L 92.497094 -134.704776 
L 91.66883 -134.370374 
L 90.840566 -135.185955 
L 90.012302 -129.893552 
L 89.184038 -128.018701 
L 88.355774 -125.268503 
L 87.527509 -128.555617 
L 86.699245 -132.118349 
L 85.870981 -136.011085 
L 85.042717 -127.8761 
L 84.214453 -125.223222 
L 83.386189 -126.052742 
L 82.557925 -125.207628 
L 81.72966 -126.893694 
L 80.901396 -125.967084 
L 80.073132 -124.620569 
L 79.244868 -123.830113 
L 78.416604 -127.977231 
L 77.58834 -132.998024 
L 76.760075 -132.730592 
L 75.931811 -133.274711 
L 75.103547 -128.439522 
L 74.275283 -123.988931 
L 73.447019 -124.22446 
L 72.618755 -122.235044 
L 71.790491 -114.064707 
L 70.962226 -115.007096 
L 70.133962 -111.813267 
L 69.305698 -112.882246 
L 68.477434 -114.274704 
L 67.64917 -110.060109 
L 66.820906 -107.744944 
L 65.992642 -107.831204 
L 65.164377 -113.56083 
L 64.336113 -116.755908 
L 63.507849 -120.431326 
L 62.679585 -123.869987 
L 61.851321 -124.024015 
L 61.023057 -123.308554 
L 60.194792 -122.46305 
L 59.366528 -118.989225 
L 58.538264 -119.012311 
L 57.71 -116.411839 
z
" id="m3af3cd208e" style="stroke:#0000ff;stroke-opacity:0.25;"/>
    </defs>
    <g clip-path="url(#pe1e8b4f1ab)">
     <use style="fill:#0000ff;fill-opacity:0.25;stroke:#0000ff;stroke-opacity:0.25;" x="0" xlink:href="#m3af3cd208e" y="216"/>
    </g>
   </g>
   <g id="PolyCollection_2">
    <defs>
     <path d="M 84.628585 -45.56 
L 84.628585 -195.95619 
L 208.868208 -195.95619 
L 208.868208 -45.56 
L 208.868208 -45.56 
L 84.628585 -45.56 
z
" id="m59766fbc42" style="stroke:#808080;stroke-opacity:0.3;"/>
    </defs>
    <g clip-path="url(#pe1e8b4f1ab)">
     <use style="fill:#808080;fill-opacity:0.3;stroke:#808080;stroke-opacity:0.3;" x="0" xlink:href="#m59766fbc42" y="216"/>
    </g>
   </g>
   <g id="matplotlib.axis_1">
    <g id="xtick_1">
     <g id="line2d_1">
      <defs>
       <path d="M 0 0 
L 0 3.5 
" id="md1358aec2a" style="stroke:#000000;stroke-width:0.8;"/>
      </defs>
      <g>
       <use style="stroke:#000000;stroke-width:0.8;" x="84.628585" xlink:href="#md1358aec2a" y="170.44"/>
      </g>
     </g>
     <g id="text_1">
      <!-- 0.0 -->
      <defs>
       <path d="M 31.78125 66.40625 
Q 24.171875 66.40625 20.328125 58.90625 
Q 16.5 51.421875 16.5 36.375 
Q 16.5 21.390625 20.328125 13.890625 
Q 24.171875 6.390625 31.78125 6.390625 
Q 39.453125 6.390625 43.28125 13.890625 
Q 47.125 21.390625 47.125 36.375 
Q 47.125 51.421875 43.28125 58.90625 
Q 39.453125 66.40625 31.78125 66.40625 
z
M 31.78125 74.21875 
Q 44.046875 74.21875 50.515625 64.515625 
Q 56.984375 54.828125 56.984375 36.375 
Q 56.984375 17.96875 50.515625 8.265625 
Q 44.046875 -1.421875 31.78125 -1.421875 
Q 19.53125 -1.421875 13.0625 8.265625 
Q 6.59375 17.96875 6.59375 36.375 
Q 6.59375 54.828125 13.0625 64.515625 
Q 19.53125 74.21875 31.78125 74.21875 
z
" id="DejaVuSans-48"/>
       <path d="M 10.6875 12.40625 
L 21 12.40625 
L 21 0 
L 10.6875 0 
z
" id="DejaVuSans-46"/>
      </defs>
      <g transform="translate(76.677022 185.038437)scale(0.1 -0.1)">
       <use xlink:href="#DejaVuSans-48"/>
       <use x="63.623047" xlink:href="#DejaVuSans-46"/>
       <use x="95.410156" xlink:href="#DejaVuSans-48"/>
      </g>
     </g>
    </g>
    <g id="xtick_2">
     <g id="line2d_2">
      <g>
       <use style="stroke:#000000;stroke-width:0.8;" x="126.041792" xlink:href="#md1358aec2a" y="170.44"/>
      </g>
     </g>
     <g id="text_2">
      <!-- 0.5 -->
      <defs>
       <path d="M 10.796875 72.90625 
L 49.515625 72.90625 
L 49.515625 64.59375 
L 19.828125 64.59375 
L 19.828125 46.734375 
Q 21.96875 47.46875 24.109375 47.828125 
Q 26.265625 48.1875 28.421875 48.1875 
Q 40.625 48.1875 47.75 41.5 
Q 54.890625 34.8125 54.890625 23.390625 
Q 54.890625 11.625 47.5625 5.09375 
Q 40.234375 -1.421875 26.90625 -1.421875 
Q 22.3125 -1.421875 17.546875 -0.640625 
Q 12.796875 0.140625 7.71875 1.703125 
L 7.71875 11.625 
Q 12.109375 9.234375 16.796875 8.0625 
Q 21.484375 6.890625 26.703125 6.890625 
Q 35.15625 6.890625 40.078125 11.328125 
Q 45.015625 15.765625 45.015625 23.390625 
Q 45.015625 31 40.078125 35.4375 
Q 35.15625 39.890625 26.703125 39.890625 
Q 22.75 39.890625 18.8125 39.015625 
Q 14.890625 38.140625 10.796875 36.28125 
z
" id="DejaVuSans-53"/>
      </defs>
      <g transform="translate(118.09023 185.038437)scale(0.1 -0.1)">
       <use xlink:href="#DejaVuSans-48"/>
       <use x="63.623047" xlink:href="#DejaVuSans-46"/>
       <use x="95.410156" xlink:href="#DejaVuSans-53"/>
      </g>
     </g>
    </g>
    <g id="xtick_3">
     <g id="line2d_3">
      <g>
       <use style="stroke:#000000;stroke-width:0.8;" x="167.455" xlink:href="#md1358aec2a" y="170.44"/>
      </g>
     </g>
     <g id="text_3">
      <!-- 1.0 -->
      <defs>
       <path d="M 12.40625 8.296875 
L 28.515625 8.296875 
L 28.515625 63.921875 
L 10.984375 60.40625 
L 10.984375 69.390625 
L 28.421875 72.90625 
L 38.28125 72.90625 
L 38.28125 8.296875 
L 54.390625 8.296875 
L 54.390625 0 
L 12.40625 0 
z
" id="DejaVuSans-49"/>
      </defs>
      <g transform="translate(159.503438 185.038437)scale(0.1 -0.1)">
       <use xlink:href="#DejaVuSans-49"/>
       <use x="63.623047" xlink:href="#DejaVuSans-46"/>
       <use x="95.410156" xlink:href="#DejaVuSans-48"/>
      </g>
     </g>
    </g>
    <g id="xtick_4">
     <g id="line2d_4">
      <g>
       <use style="stroke:#000000;stroke-width:0.8;" x="208.868208" xlink:href="#md1358aec2a" y="170.44"/>
      </g>
     </g>
     <g id="text_4">
      <!-- 1.5 -->
      <g transform="translate(200.916645 185.038437)scale(0.1 -0.1)">
       <use xlink:href="#DejaVuSans-49"/>
       <use x="63.623047" xlink:href="#DejaVuSans-46"/>
       <use x="95.410156" xlink:href="#DejaVuSans-53"/>
      </g>
     </g>
    </g>
    <g id="xtick_5">
     <g id="line2d_5">
      <g>
       <use style="stroke:#000000;stroke-width:0.8;" x="250.281415" xlink:href="#md1358aec2a" y="170.44"/>
      </g>
     </g>
     <g id="text_5">
      <!-- 2.0 -->
      <defs>
       <path d="M 19.1875 8.296875 
L 53.609375 8.296875 
L 53.609375 0 
L 7.328125 0 
L 7.328125 8.296875 
Q 12.9375 14.109375 22.625 23.890625 
Q 32.328125 33.6875 34.8125 36.53125 
Q 39.546875 41.84375 41.421875 45.53125 
Q 43.3125 49.21875 43.3125 52.78125 
Q 43.3125 58.59375 39.234375 62.25 
Q 35.15625 65.921875 28.609375 65.921875 
Q 23.96875 65.921875 18.8125 64.3125 
Q 13.671875 62.703125 7.8125 59.421875 
L 7.8125 69.390625 
Q 13.765625 71.78125 18.9375 73 
Q 24.125 74.21875 28.421875 74.21875 
Q 39.75 74.21875 46.484375 68.546875 
Q 53.21875 62.890625 53.21875 53.421875 
Q 53.21875 48.921875 51.53125 44.890625 
Q 49.859375 40.875 45.40625 35.40625 
Q 44.1875 33.984375 37.640625 27.21875 
Q 31.109375 20.453125 19.1875 8.296875 
z
" id="DejaVuSans-50"/>
      </defs>
      <g transform="translate(242.329853 185.038437)scale(0.1 -0.1)">
       <use xlink:href="#DejaVuSans-50"/>
       <use x="63.623047" xlink:href="#DejaVuSans-46"/>
       <use x="95.410156" xlink:href="#DejaVuSans-48"/>
      </g>
     </g>
    </g>
    <g id="text_6">
     <!-- Time (s) -->
     <defs>
      <path d="M -0.296875 72.90625 
L 61.375 72.90625 
L 61.375 64.59375 
L 35.5 64.59375 
L 35.5 0 
L 25.59375 0 
L 25.59375 64.59375 
L -0.296875 64.59375 
z
" id="DejaVuSans-84"/>
      <path d="M 9.421875 54.6875 
L 18.40625 54.6875 
L 18.40625 0 
L 9.421875 0 
z
M 9.421875 75.984375 
L 18.40625 75.984375 
L 18.40625 64.59375 
L 9.421875 64.59375 
z
" id="DejaVuSans-105"/>
      <path d="M 52 44.1875 
Q 55.375 50.25 60.0625 53.125 
Q 64.75 56 71.09375 56 
Q 79.640625 56 84.28125 50.015625 
Q 88.921875 44.046875 88.921875 33.015625 
L 88.921875 0 
L 79.890625 0 
L 79.890625 32.71875 
Q 79.890625 40.578125 77.09375 44.375 
Q 74.3125 48.1875 68.609375 48.1875 
Q 61.625 48.1875 57.5625 43.546875 
Q 53.515625 38.921875 53.515625 30.90625 
L 53.515625 0 
L 44.484375 0 
L 44.484375 32.71875 
Q 44.484375 40.625 41.703125 44.40625 
Q 38.921875 48.1875 33.109375 48.1875 
Q 26.21875 48.1875 22.15625 43.53125 
Q 18.109375 38.875 18.109375 30.90625 
L 18.109375 0 
L 9.078125 0 
L 9.078125 54.6875 
L 18.109375 54.6875 
L 18.109375 46.1875 
Q 21.1875 51.21875 25.484375 53.609375 
Q 29.78125 56 35.6875 56 
Q 41.65625 56 45.828125 52.96875 
Q 50 49.953125 52 44.1875 
z
" id="DejaVuSans-109"/>
      <path d="M 56.203125 29.59375 
L 56.203125 25.203125 
L 14.890625 25.203125 
Q 15.484375 15.921875 20.484375 11.0625 
Q 25.484375 6.203125 34.421875 6.203125 
Q 39.59375 6.203125 44.453125 7.46875 
Q 49.3125 8.734375 54.109375 11.28125 
L 54.109375 2.78125 
Q 49.265625 0.734375 44.1875 -0.34375 
Q 39.109375 -1.421875 33.890625 -1.421875 
Q 20.796875 -1.421875 13.15625 6.1875 
Q 5.515625 13.8125 5.515625 26.8125 
Q 5.515625 40.234375 12.765625 48.109375 
Q 20.015625 56 32.328125 56 
Q 43.359375 56 49.78125 48.890625 
Q 56.203125 41.796875 56.203125 29.59375 
z
M 47.21875 32.234375 
Q 47.125 39.59375 43.09375 43.984375 
Q 39.0625 48.390625 32.421875 48.390625 
Q 24.90625 48.390625 20.390625 44.140625 
Q 15.875 39.890625 15.1875 32.171875 
z
" id="DejaVuSans-101"/>
      <path id="DejaVuSans-32"/>
      <path d="M 31 75.875 
Q 24.46875 64.65625 21.28125 53.65625 
Q 18.109375 42.671875 18.109375 31.390625 
Q 18.109375 20.125 21.3125 9.0625 
Q 24.515625 -2 31 -13.1875 
L 23.1875 -13.1875 
Q 15.875 -1.703125 12.234375 9.375 
Q 8.59375 20.453125 8.59375 31.390625 
Q 8.59375 42.28125 12.203125 53.3125 
Q 15.828125 64.359375 23.1875 75.875 
z
" id="DejaVuSans-40"/>
      <path d="M 44.28125 53.078125 
L 44.28125 44.578125 
Q 40.484375 46.53125 36.375 47.5 
Q 32.28125 48.484375 27.875 48.484375 
Q 21.1875 48.484375 17.84375 46.4375 
Q 14.5 44.390625 14.5 40.28125 
Q 14.5 37.15625 16.890625 35.375 
Q 19.28125 33.59375 26.515625 31.984375 
L 29.59375 31.296875 
Q 39.15625 29.25 43.1875 25.515625 
Q 47.21875 21.78125 47.21875 15.09375 
Q 47.21875 7.46875 41.1875 3.015625 
Q 35.15625 -1.421875 24.609375 -1.421875 
Q 20.21875 -1.421875 15.453125 -0.5625 
Q 10.6875 0.296875 5.421875 2 
L 5.421875 11.28125 
Q 10.40625 8.6875 15.234375 7.390625 
Q 20.0625 6.109375 24.8125 6.109375 
Q 31.15625 6.109375 34.5625 8.28125 
Q 37.984375 10.453125 37.984375 14.40625 
Q 37.984375 18.0625 35.515625 20.015625 
Q 33.0625 21.96875 24.703125 23.78125 
L 21.578125 24.515625 
Q 13.234375 26.265625 9.515625 29.90625 
Q 5.8125 33.546875 5.8125 39.890625 
Q 5.8125 47.609375 11.28125 51.796875 
Q 16.75 56 26.8125 56 
Q 31.78125 56 36.171875 55.265625 
Q 40.578125 54.546875 44.28125 53.078125 
z
" id="DejaVuSans-115"/>
      <path d="M 8.015625 75.875 
L 15.828125 75.875 
Q 23.140625 64.359375 26.78125 53.3125 
Q 30.421875 42.28125 30.421875 31.390625 
Q 30.421875 20.453125 26.78125 9.375 
Q 23.140625 -1.703125 15.828125 -13.1875 
L 8.015625 -13.1875 
Q 14.5 -2 17.703125 9.0625 
Q 20.90625 20.125 20.90625 31.390625 
Q 20.90625 42.671875 17.703125 53.65625 
Q 14.5 64.65625 8.015625 75.875 
z
" id="DejaVuSans-41"/>
     </defs>
     <g transform="translate(137.95975 202.059875)scale(0.144 -0.144)">
      <use xlink:href="#DejaVuSans-84"/>
      <use x="61.037109" xlink:href="#DejaVuSans-105"/>
      <use x="88.820312" xlink:href="#DejaVuSans-109"/>
      <use x="186.232422" xlink:href="#DejaVuSans-101"/>
      <use x="247.755859" xlink:href="#DejaVuSans-32"/>
      <use x="279.542969" xlink:href="#DejaVuSans-40"/>
      <use x="318.556641" xlink:href="#DejaVuSans-115"/>
      <use x="370.65625" xlink:href="#DejaVuSans-41"/>
     </g>
    </g>
   </g>
   <g id="matplotlib.axis_2">
    <g id="ytick_1">
     <g id="line2d_6">
      <defs>
       <path d="M 0 0 
L -3.5 0 
" id="m8437485e64" style="stroke:#000000;stroke-width:0.8;"/>
      </defs>
      <g>
       <use style="stroke:#000000;stroke-width:0.8;" x="57.71" xlink:href="#m8437485e64" y="160.967738"/>
      </g>
     </g>
     <g id="text_7">
      <!-- 1.8 -->
      <defs>
       <path d="M 31.78125 34.625 
Q 24.75 34.625 20.71875 30.859375 
Q 16.703125 27.09375 16.703125 20.515625 
Q 16.703125 13.921875 20.71875 10.15625 
Q 24.75 6.390625 31.78125 6.390625 
Q 38.8125 6.390625 42.859375 10.171875 
Q 46.921875 13.96875 46.921875 20.515625 
Q 46.921875 27.09375 42.890625 30.859375 
Q 38.875 34.625 31.78125 34.625 
z
M 21.921875 38.8125 
Q 15.578125 40.375 12.03125 44.71875 
Q 8.5 49.078125 8.5 55.328125 
Q 8.5 64.0625 14.71875 69.140625 
Q 20.953125 74.21875 31.78125 74.21875 
Q 42.671875 74.21875 48.875 69.140625 
Q 55.078125 64.0625 55.078125 55.328125 
Q 55.078125 49.078125 51.53125 44.71875 
Q 48 40.375 41.703125 38.8125 
Q 48.828125 37.15625 52.796875 32.3125 
Q 56.78125 27.484375 56.78125 20.515625 
Q 56.78125 9.90625 50.3125 4.234375 
Q 43.84375 -1.421875 31.78125 -1.421875 
Q 19.734375 -1.421875 13.25 4.234375 
Q 6.78125 9.90625 6.78125 20.515625 
Q 6.78125 27.484375 10.78125 32.3125 
Q 14.796875 37.15625 21.921875 38.8125 
z
M 18.3125 54.390625 
Q 18.3125 48.734375 21.84375 45.5625 
Q 25.390625 42.390625 31.78125 42.390625 
Q 38.140625 42.390625 41.71875 45.5625 
Q 45.3125 48.734375 45.3125 54.390625 
Q 45.3125 60.0625 41.71875 63.234375 
Q 38.140625 66.40625 31.78125 66.40625 
Q 25.390625 66.40625 21.84375 63.234375 
Q 18.3125 60.0625 18.3125 54.390625 
z
" id="DejaVuSans-56"/>
      </defs>
      <g transform="translate(34.806875 164.766956)scale(0.1 -0.1)">
       <use xlink:href="#DejaVuSans-49"/>
       <use x="63.623047" xlink:href="#DejaVuSans-46"/>
       <use x="95.410156" xlink:href="#DejaVuSans-56"/>
      </g>
     </g>
    </g>
    <g id="ytick_2">
     <g id="line2d_7">
      <g>
       <use style="stroke:#000000;stroke-width:0.8;" x="57.71" xlink:href="#m8437485e64" y="120.263775"/>
      </g>
     </g>
     <g id="text_8">
      <!-- 1.9 -->
      <defs>
       <path d="M 10.984375 1.515625 
L 10.984375 10.5 
Q 14.703125 8.734375 18.5 7.8125 
Q 22.3125 6.890625 25.984375 6.890625 
Q 35.75 6.890625 40.890625 13.453125 
Q 46.046875 20.015625 46.78125 33.40625 
Q 43.953125 29.203125 39.59375 26.953125 
Q 35.25 24.703125 29.984375 24.703125 
Q 19.046875 24.703125 12.671875 31.3125 
Q 6.296875 37.9375 6.296875 49.421875 
Q 6.296875 60.640625 12.9375 67.421875 
Q 19.578125 74.21875 30.609375 74.21875 
Q 43.265625 74.21875 49.921875 64.515625 
Q 56.59375 54.828125 56.59375 36.375 
Q 56.59375 19.140625 48.40625 8.859375 
Q 40.234375 -1.421875 26.421875 -1.421875 
Q 22.703125 -1.421875 18.890625 -0.6875 
Q 15.09375 0.046875 10.984375 1.515625 
z
M 30.609375 32.421875 
Q 37.25 32.421875 41.125 36.953125 
Q 45.015625 41.5 45.015625 49.421875 
Q 45.015625 57.28125 41.125 61.84375 
Q 37.25 66.40625 30.609375 66.40625 
Q 23.96875 66.40625 20.09375 61.84375 
Q 16.21875 57.28125 16.21875 49.421875 
Q 16.21875 41.5 20.09375 36.953125 
Q 23.96875 32.421875 30.609375 32.421875 
z
" id="DejaVuSans-57"/>
      </defs>
      <g transform="translate(34.806875 124.062994)scale(0.1 -0.1)">
       <use xlink:href="#DejaVuSans-49"/>
       <use x="63.623047" xlink:href="#DejaVuSans-46"/>
       <use x="95.410156" xlink:href="#DejaVuSans-57"/>
      </g>
     </g>
    </g>
    <g id="ytick_3">
     <g id="line2d_8">
      <g>
       <use style="stroke:#000000;stroke-width:0.8;" x="57.71" xlink:href="#m8437485e64" y="79.559813"/>
      </g>
     </g>
     <g id="text_9">
      <!-- 2.0 -->
      <g transform="translate(34.806875 83.359032)scale(0.1 -0.1)">
       <use xlink:href="#DejaVuSans-50"/>
       <use x="63.623047" xlink:href="#DejaVuSans-46"/>
       <use x="95.410156" xlink:href="#DejaVuSans-48"/>
      </g>
     </g>
    </g>
    <g id="ytick_4">
     <g id="line2d_9">
      <g>
       <use style="stroke:#000000;stroke-width:0.8;" x="57.71" xlink:href="#m8437485e64" y="38.855851"/>
      </g>
     </g>
     <g id="text_10">
      <!-- 2.1 -->
      <g transform="translate(34.806875 42.65507)scale(0.1 -0.1)">
       <use xlink:href="#DejaVuSans-50"/>
       <use x="63.623047" xlink:href="#DejaVuSans-46"/>
       <use x="95.410156" xlink:href="#DejaVuSans-49"/>
      </g>
     </g>
    </g>
    <g id="text_11">
     <!-- Mean Fano Factor -->
     <defs>
      <path d="M 9.8125 72.90625 
L 24.515625 72.90625 
L 43.109375 23.296875 
L 61.8125 72.90625 
L 76.515625 72.90625 
L 76.515625 0 
L 66.890625 0 
L 66.890625 64.015625 
L 48.09375 14.015625 
L 38.1875 14.015625 
L 19.390625 64.015625 
L 19.390625 0 
L 9.8125 0 
z
" id="DejaVuSans-77"/>
      <path d="M 34.28125 27.484375 
Q 23.390625 27.484375 19.1875 25 
Q 14.984375 22.515625 14.984375 16.5 
Q 14.984375 11.71875 18.140625 8.90625 
Q 21.296875 6.109375 26.703125 6.109375 
Q 34.1875 6.109375 38.703125 11.40625 
Q 43.21875 16.703125 43.21875 25.484375 
L 43.21875 27.484375 
z
M 52.203125 31.203125 
L 52.203125 0 
L 43.21875 0 
L 43.21875 8.296875 
Q 40.140625 3.328125 35.546875 0.953125 
Q 30.953125 -1.421875 24.3125 -1.421875 
Q 15.921875 -1.421875 10.953125 3.296875 
Q 6 8.015625 6 15.921875 
Q 6 25.140625 12.171875 29.828125 
Q 18.359375 34.515625 30.609375 34.515625 
L 43.21875 34.515625 
L 43.21875 35.40625 
Q 43.21875 41.609375 39.140625 45 
Q 35.0625 48.390625 27.6875 48.390625 
Q 23 48.390625 18.546875 47.265625 
Q 14.109375 46.140625 10.015625 43.890625 
L 10.015625 52.203125 
Q 14.9375 54.109375 19.578125 55.046875 
Q 24.21875 56 28.609375 56 
Q 40.484375 56 46.34375 49.84375 
Q 52.203125 43.703125 52.203125 31.203125 
z
" id="DejaVuSans-97"/>
      <path d="M 54.890625 33.015625 
L 54.890625 0 
L 45.90625 0 
L 45.90625 32.71875 
Q 45.90625 40.484375 42.875 44.328125 
Q 39.84375 48.1875 33.796875 48.1875 
Q 26.515625 48.1875 22.3125 43.546875 
Q 18.109375 38.921875 18.109375 30.90625 
L 18.109375 0 
L 9.078125 0 
L 9.078125 54.6875 
L 18.109375 54.6875 
L 18.109375 46.1875 
Q 21.34375 51.125 25.703125 53.5625 
Q 30.078125 56 35.796875 56 
Q 45.21875 56 50.046875 50.171875 
Q 54.890625 44.34375 54.890625 33.015625 
z
" id="DejaVuSans-110"/>
      <path d="M 9.8125 72.90625 
L 51.703125 72.90625 
L 51.703125 64.59375 
L 19.671875 64.59375 
L 19.671875 43.109375 
L 48.578125 43.109375 
L 48.578125 34.8125 
L 19.671875 34.8125 
L 19.671875 0 
L 9.8125 0 
z
" id="DejaVuSans-70"/>
      <path d="M 30.609375 48.390625 
Q 23.390625 48.390625 19.1875 42.75 
Q 14.984375 37.109375 14.984375 27.296875 
Q 14.984375 17.484375 19.15625 11.84375 
Q 23.34375 6.203125 30.609375 6.203125 
Q 37.796875 6.203125 41.984375 11.859375 
Q 46.1875 17.53125 46.1875 27.296875 
Q 46.1875 37.015625 41.984375 42.703125 
Q 37.796875 48.390625 30.609375 48.390625 
z
M 30.609375 56 
Q 42.328125 56 49.015625 48.375 
Q 55.71875 40.765625 55.71875 27.296875 
Q 55.71875 13.875 49.015625 6.21875 
Q 42.328125 -1.421875 30.609375 -1.421875 
Q 18.84375 -1.421875 12.171875 6.21875 
Q 5.515625 13.875 5.515625 27.296875 
Q 5.515625 40.765625 12.171875 48.375 
Q 18.84375 56 30.609375 56 
z
" id="DejaVuSans-111"/>
      <path d="M 48.78125 52.59375 
L 48.78125 44.1875 
Q 44.96875 46.296875 41.140625 47.34375 
Q 37.3125 48.390625 33.40625 48.390625 
Q 24.65625 48.390625 19.8125 42.84375 
Q 14.984375 37.3125 14.984375 27.296875 
Q 14.984375 17.28125 19.8125 11.734375 
Q 24.65625 6.203125 33.40625 6.203125 
Q 37.3125 6.203125 41.140625 7.25 
Q 44.96875 8.296875 48.78125 10.40625 
L 48.78125 2.09375 
Q 45.015625 0.34375 40.984375 -0.53125 
Q 36.96875 -1.421875 32.421875 -1.421875 
Q 20.0625 -1.421875 12.78125 6.34375 
Q 5.515625 14.109375 5.515625 27.296875 
Q 5.515625 40.671875 12.859375 48.328125 
Q 20.21875 56 33.015625 56 
Q 37.15625 56 41.109375 55.140625 
Q 45.0625 54.296875 48.78125 52.59375 
z
" id="DejaVuSans-99"/>
      <path d="M 18.3125 70.21875 
L 18.3125 54.6875 
L 36.8125 54.6875 
L 36.8125 47.703125 
L 18.3125 47.703125 
L 18.3125 18.015625 
Q 18.3125 11.328125 20.140625 9.421875 
Q 21.96875 7.515625 27.59375 7.515625 
L 36.8125 7.515625 
L 36.8125 0 
L 27.59375 0 
Q 17.1875 0 13.234375 3.875 
Q 9.28125 7.765625 9.28125 18.015625 
L 9.28125 47.703125 
L 2.6875 47.703125 
L 2.6875 54.6875 
L 9.28125 54.6875 
L 9.28125 70.21875 
z
" id="DejaVuSans-116"/>
      <path d="M 41.109375 46.296875 
Q 39.59375 47.171875 37.8125 47.578125 
Q 36.03125 48 33.890625 48 
Q 26.265625 48 22.1875 43.046875 
Q 18.109375 38.09375 18.109375 28.8125 
L 18.109375 0 
L 9.078125 0 
L 9.078125 54.6875 
L 18.109375 54.6875 
L 18.109375 46.1875 
Q 20.953125 51.171875 25.484375 53.578125 
Q 30.03125 56 36.53125 56 
Q 37.453125 56 38.578125 55.875 
Q 39.703125 55.765625 41.0625 55.515625 
z
" id="DejaVuSans-114"/>
     </defs>
     <g transform="translate(27.812125 163.056125)rotate(-90)scale(0.144 -0.144)">
      <use xlink:href="#DejaVuSans-77"/>
      <use x="86.279297" xlink:href="#DejaVuSans-101"/>
      <use x="147.802734" xlink:href="#DejaVuSans-97"/>
      <use x="209.082031" xlink:href="#DejaVuSans-110"/>
      <use x="272.460938" xlink:href="#DejaVuSans-32"/>
      <use x="304.248047" xlink:href="#DejaVuSans-70"/>
      <use x="361.626953" xlink:href="#DejaVuSans-97"/>
      <use x="422.90625" xlink:href="#DejaVuSans-110"/>
      <use x="486.285156" xlink:href="#DejaVuSans-111"/>
      <use x="547.466797" xlink:href="#DejaVuSans-32"/>
      <use x="579.253906" xlink:href="#DejaVuSans-70"/>
      <use x="636.632812" xlink:href="#DejaVuSans-97"/>
      <use x="697.912109" xlink:href="#DejaVuSans-99"/>
      <use x="752.892578" xlink:href="#DejaVuSans-116"/>
      <use x="792.101562" xlink:href="#DejaVuSans-111"/>
      <use x="853.283203" xlink:href="#DejaVuSans-114"/>
     </g>
    </g>
   </g>
   <g id="line2d_10">
    <path clip-path="url(#pe1e8b4f1ab)" d="M 57.71 126.889902 
L 58.538264 124.519904 
L 59.366528 124.595195 
L 60.194792 121.297539 
L 61.851321 120.188937 
L 62.679585 120.271146 
L 63.507849 123.198791 
L 65.164377 130.260034 
L 65.992642 135.497795 
L 66.820906 135.929433 
L 67.64917 133.422829 
L 68.477434 129.533998 
L 69.305698 130.798386 
L 70.133962 131.853716 
L 70.962226 128.779312 
L 71.790491 129.379422 
L 72.618755 121.484798 
L 73.447019 119.666602 
L 74.275283 119.744901 
L 75.931811 110.519781 
L 76.760075 111.047822 
L 77.58834 110.760491 
L 79.244868 119.876357 
L 80.073132 118.974086 
L 80.901396 117.400812 
L 81.72966 116.338228 
L 82.557925 117.921865 
L 83.386189 116.979772 
L 84.214453 117.734342 
L 85.042717 115.309776 
L 85.870981 107.28688 
L 88.355774 117.024591 
L 89.184038 114.445449 
L 90.012302 112.41284 
L 90.840566 107.347565 
L 91.66883 108.278143 
L 92.497094 108.240653 
L 93.325358 107.690427 
L 94.153623 104.797486 
L 94.981887 105.067994 
L 95.810151 103.479642 
L 96.638415 105.075417 
L 97.466679 101.781815 
L 98.294943 94.26913 
L 99.123208 90.366048 
L 99.951472 91.059416 
L 100.779736 96.082871 
L 101.608 96.210526 
L 102.436264 93.963612 
L 103.264528 90.32958 
L 104.092792 90.667828 
L 104.921057 91.457972 
L 105.749321 90.311749 
L 106.577585 86.140361 
L 107.405849 84.656838 
L 108.234113 84.320558 
L 109.062377 83.633017 
L 109.890642 85.26371 
L 110.718906 85.969097 
L 111.54717 80.537599 
L 112.375434 78.594534 
L 113.203698 75.32366 
L 114.031962 78.032466 
L 114.860226 81.605286 
L 115.688491 85.944 
L 116.516755 82.246508 
L 117.345019 83.06218 
L 119.001547 86.036951 
L 119.829811 86.78573 
L 120.658075 85.489849 
L 121.48634 83.822407 
L 122.314604 86.291695 
L 123.142868 86.400274 
L 123.971132 90.643634 
L 124.799396 88.751484 
L 125.62766 94.486498 
L 126.455925 94.919329 
L 127.284189 96.566038 
L 128.112453 96.622483 
L 128.940717 103.153967 
L 129.768981 102.600388 
L 130.597245 111.616711 
L 131.425509 111.600338 
L 132.253774 114.413984 
L 133.082038 114.289832 
L 133.910302 113.909763 
L 134.738566 113.831022 
L 135.56683 116.305265 
L 136.395094 119.217154 
L 137.223358 118.923821 
L 138.051623 122.594858 
L 138.879887 123.364235 
L 139.708151 124.298419 
L 141.364679 123.717358 
L 142.192943 125.056561 
L 143.021208 124.121846 
L 143.849472 124.488586 
L 144.677736 123.232324 
L 145.506 122.601364 
L 146.334264 125.526164 
L 147.162528 126.00294 
L 147.990792 120.163855 
L 148.819057 120.822822 
L 149.647321 117.567601 
L 150.475585 118.482598 
L 151.303849 118.629422 
L 152.132113 113.691095 
L 152.960377 110.360455 
L 153.788642 109.359866 
L 154.616906 107.382451 
L 155.44517 104.301003 
L 156.273434 103.942027 
L 157.101698 97.462271 
L 158.758226 93.404748 
L 159.586491 95.677188 
L 160.414755 93.411915 
L 161.243019 93.943192 
L 162.071283 93.260135 
L 162.899547 89.236191 
L 163.727811 86.669616 
L 164.556075 88.653506 
L 165.38434 88.085751 
L 166.212604 88.402393 
L 167.040868 84.624075 
L 167.869132 82.704713 
L 168.697396 82.051827 
L 169.52566 80.26478 
L 170.353925 77.75648 
L 171.182189 75.874592 
L 172.838717 70.980538 
L 173.666981 75.004103 
L 174.495245 73.206028 
L 175.323509 72.810449 
L 176.980038 67.635576 
L 177.808302 66.982855 
L 178.636566 70.57234 
L 179.46483 66.968872 
L 180.293094 64.301533 
L 181.121358 66.566313 
L 181.949623 66.330638 
L 182.777887 66.656191 
L 183.606151 63.139141 
L 184.434415 60.617388 
L 185.262679 67.267656 
L 186.090943 69.670125 
L 186.919208 68.444532 
L 188.575736 79.933195 
L 189.404 82.59563 
L 190.232264 83.241264 
L 191.060528 85.723814 
L 191.888792 86.602032 
L 192.717057 86.527208 
L 193.545321 86.136742 
L 194.373585 88.8941 
L 195.201849 88.561533 
L 196.030113 86.033814 
L 196.858377 84.847039 
L 197.686642 86.678944 
L 198.514906 84.217774 
L 199.34317 85.673206 
L 200.171434 91.877287 
L 200.999698 89.459938 
L 201.827962 93.20469 
L 202.656226 93.524069 
L 203.484491 90.834307 
L 204.312755 91.694927 
L 205.141019 88.553439 
L 205.969283 88.822849 
L 206.797547 88.719599 
L 207.625811 90.055895 
L 208.454075 88.411175 
L 209.28234 87.977562 
L 210.938868 97.766582 
L 211.767132 94.757251 
L 212.595396 95.518679 
L 213.42366 97.166581 
L 214.251925 97.5545 
L 215.080189 98.512475 
L 215.908453 99.294066 
L 216.736717 101.082961 
L 217.564981 100.156315 
L 218.393245 101.257614 
L 219.221509 101.970125 
L 220.049774 101.692998 
L 220.878038 100.934812 
L 221.706302 100.38107 
L 222.534566 102.039064 
L 223.36283 101.964513 
L 224.191094 105.24283 
L 225.019358 100.563598 
L 225.847623 100.79641 
L 226.675887 103.129975 
L 227.504151 106.718443 
L 228.332415 108.396851 
L 229.160679 112.727365 
L 229.988943 112.816757 
L 230.817208 107.518157 
L 231.645472 104.898664 
L 232.473736 100.709016 
L 233.302 100.270969 
L 234.130264 99.496047 
L 235.786792 95.758998 
L 236.615057 95.332258 
L 237.443321 94.459756 
L 238.271585 92.812791 
L 239.928113 96.468296 
L 240.756377 96.784899 
L 241.584642 93.793163 
L 243.24117 86.071638 
L 244.069434 83.672556 
L 244.897698 82.921507 
L 245.725962 81.145558 
L 246.554226 76.567084 
L 247.382491 75.681762 
L 248.210755 75.317097 
L 249.039019 76.194454 
L 249.867283 83.283363 
L 250.695547 85.935135 
L 251.523811 85.68751 
L 252.352075 77.840948 
L 253.18034 80.096808 
L 254.008604 78.271535 
L 254.836868 75.301437 
L 255.665132 76.382507 
L 256.493396 70.922466 
L 257.32166 74.632799 
L 258.149925 76.878591 
L 258.978189 77.295628 
L 259.806453 75.912138 
L 260.634717 71.112561 
L 261.462981 69.835767 
L 262.291245 72.013237 
L 263.947774 74.806614 
L 265.604302 76.434071 
L 266.432566 74.556644 
L 267.26083 76.243284 
L 268.089094 80.928843 
L 268.917358 82.379535 
L 269.745623 87.690646 
L 270.573887 88.147237 
L 271.402151 87.094605 
L 273.058679 90.866461 
L 273.886943 91.673105 
L 274.715208 92.698649 
L 275.543472 100.172881 
L 276.371736 98.408954 
L 277.2 100.40864 
L 277.2 100.40864 
" style="fill:none;stroke:#0000ff;stroke-linecap:square;stroke-width:1.5;"/>
   </g>
   <g id="patch_3">
    <path d="M 57.71 170.44 
L 57.71 26.88 
" style="fill:none;stroke:#000000;stroke-linecap:square;stroke-linejoin:miter;stroke-width:0.8;"/>
   </g>
   <g id="patch_4">
    <path d="M 277.2 170.44 
L 277.2 26.88 
" style="fill:none;stroke:#000000;stroke-linecap:square;stroke-linejoin:miter;stroke-width:0.8;"/>
   </g>
   <g id="patch_5">
    <path d="M 57.71 170.44 
L 277.2 170.44 
" style="fill:none;stroke:#000000;stroke-linecap:square;stroke-linejoin:miter;stroke-width:0.8;"/>
   </g>
   <g id="patch_6">
    <path d="M 57.71 26.88 
L 277.2 26.88 
" style="fill:none;stroke:#000000;stroke-linecap:square;stroke-linejoin:miter;stroke-width:0.8;"/>
   </g>
   <g id="text_12">
    <!-- Striatum, n = 232 cells -->
    <defs>
     <path d="M 53.515625 70.515625 
L 53.515625 60.890625 
Q 47.90625 63.578125 42.921875 64.890625 
Q 37.9375 66.21875 33.296875 66.21875 
Q 25.25 66.21875 20.875 63.09375 
Q 16.5 59.96875 16.5 54.203125 
Q 16.5 49.359375 19.40625 46.890625 
Q 22.3125 44.4375 30.421875 42.921875 
L 36.375 41.703125 
Q 47.40625 39.59375 52.65625 34.296875 
Q 57.90625 29 57.90625 20.125 
Q 57.90625 9.515625 50.796875 4.046875 
Q 43.703125 -1.421875 29.984375 -1.421875 
Q 24.8125 -1.421875 18.96875 -0.25 
Q 13.140625 0.921875 6.890625 3.21875 
L 6.890625 13.375 
Q 12.890625 10.015625 18.65625 8.296875 
Q 24.421875 6.59375 29.984375 6.59375 
Q 38.421875 6.59375 43.015625 9.90625 
Q 47.609375 13.234375 47.609375 19.390625 
Q 47.609375 24.75 44.3125 27.78125 
Q 41.015625 30.8125 33.5 32.328125 
L 27.484375 33.5 
Q 16.453125 35.6875 11.515625 40.375 
Q 6.59375 45.0625 6.59375 53.421875 
Q 6.59375 63.09375 13.40625 68.65625 
Q 20.21875 74.21875 32.171875 74.21875 
Q 37.3125 74.21875 42.625 73.28125 
Q 47.953125 72.359375 53.515625 70.515625 
z
" id="DejaVuSans-83"/>
     <path d="M 8.5 21.578125 
L 8.5 54.6875 
L 17.484375 54.6875 
L 17.484375 21.921875 
Q 17.484375 14.15625 20.5 10.265625 
Q 23.53125 6.390625 29.59375 6.390625 
Q 36.859375 6.390625 41.078125 11.03125 
Q 45.3125 15.671875 45.3125 23.6875 
L 45.3125 54.6875 
L 54.296875 54.6875 
L 54.296875 0 
L 45.3125 0 
L 45.3125 8.40625 
Q 42.046875 3.421875 37.71875 1 
Q 33.40625 -1.421875 27.6875 -1.421875 
Q 18.265625 -1.421875 13.375 4.4375 
Q 8.5 10.296875 8.5 21.578125 
z
M 31.109375 56 
z
" id="DejaVuSans-117"/>
     <path d="M 11.71875 12.40625 
L 22.015625 12.40625 
L 22.015625 4 
L 14.015625 -11.625 
L 7.71875 -11.625 
L 11.71875 4 
z
" id="DejaVuSans-44"/>
     <path d="M 10.59375 45.40625 
L 73.1875 45.40625 
L 73.1875 37.203125 
L 10.59375 37.203125 
z
M 10.59375 25.484375 
L 73.1875 25.484375 
L 73.1875 17.1875 
L 10.59375 17.1875 
z
" id="DejaVuSans-61"/>
     <path d="M 40.578125 39.3125 
Q 47.65625 37.796875 51.625 33 
Q 55.609375 28.21875 55.609375 21.1875 
Q 55.609375 10.40625 48.1875 4.484375 
Q 40.765625 -1.421875 27.09375 -1.421875 
Q 22.515625 -1.421875 17.65625 -0.515625 
Q 12.796875 0.390625 7.625 2.203125 
L 7.625 11.71875 
Q 11.71875 9.328125 16.59375 8.109375 
Q 21.484375 6.890625 26.8125 6.890625 
Q 36.078125 6.890625 40.9375 10.546875 
Q 45.796875 14.203125 45.796875 21.1875 
Q 45.796875 27.640625 41.28125 31.265625 
Q 36.765625 34.90625 28.71875 34.90625 
L 20.21875 34.90625 
L 20.21875 43.015625 
L 29.109375 43.015625 
Q 36.375 43.015625 40.234375 45.921875 
Q 44.09375 48.828125 44.09375 54.296875 
Q 44.09375 59.90625 40.109375 62.90625 
Q 36.140625 65.921875 28.71875 65.921875 
Q 24.65625 65.921875 20.015625 65.03125 
Q 15.375 64.15625 9.8125 62.3125 
L 9.8125 71.09375 
Q 15.4375 72.65625 20.34375 73.4375 
Q 25.25 74.21875 29.59375 74.21875 
Q 40.828125 74.21875 47.359375 69.109375 
Q 53.90625 64.015625 53.90625 55.328125 
Q 53.90625 49.265625 50.4375 45.09375 
Q 46.96875 40.921875 40.578125 39.3125 
z
" id="DejaVuSans-51"/>
     <path d="M 9.421875 75.984375 
L 18.40625 75.984375 
L 18.40625 0 
L 9.421875 0 
z
" id="DejaVuSans-108"/>
    </defs>
    <g transform="translate(98.216875 20.88)scale(0.12 -0.12)">
     <use xlink:href="#DejaVuSans-83"/>
     <use x="63.476562" xlink:href="#DejaVuSans-116"/>
     <use x="102.685547" xlink:href="#DejaVuSans-114"/>
     <use x="143.798828" xlink:href="#DejaVuSans-105"/>
     <use x="171.582031" xlink:href="#DejaVuSans-97"/>
     <use x="232.861328" xlink:href="#DejaVuSans-116"/>
     <use x="272.070312" xlink:href="#DejaVuSans-117"/>
     <use x="335.449219" xlink:href="#DejaVuSans-109"/>
     <use x="432.861328" xlink:href="#DejaVuSans-44"/>
     <use x="464.648438" xlink:href="#DejaVuSans-32"/>
     <use x="496.435547" xlink:href="#DejaVuSans-110"/>
     <use x="559.814453" xlink:href="#DejaVuSans-32"/>
     <use x="591.601562" xlink:href="#DejaVuSans-61"/>
     <use x="675.390625" xlink:href="#DejaVuSans-32"/>
     <use x="707.177734" xlink:href="#DejaVuSans-50"/>
     <use x="770.800781" xlink:href="#DejaVuSans-51"/>
     <use x="834.423828" xlink:href="#DejaVuSans-50"/>
     <use x="898.046875" xlink:href="#DejaVuSans-32"/>
     <use x="929.833984" xlink:href="#DejaVuSans-99"/>
     <use x="984.814453" xlink:href="#DejaVuSans-101"/>
     <use x="1046.337891" xlink:href="#DejaVuSans-108"/>
     <use x="1074.121094" xlink:href="#DejaVuSans-108"/>
     <use x="1101.904297" xlink:href="#DejaVuSans-115"/>
    </g>
   </g>
   <g id="legend_1">
    <g id="patch_7">
     <path d="M 181.588125 54.09375 
L 268.8 54.09375 
Q 271.2 54.09375 271.2 51.69375 
L 271.2 35.28 
Q 271.2 32.88 268.8 32.88 
L 181.588125 32.88 
Q 179.188125 32.88 179.188125 35.28 
L 179.188125 51.69375 
Q 179.188125 54.09375 181.588125 54.09375 
z
" style="fill:#ffffff;opacity:0.8;stroke:#cccccc;stroke-linejoin:miter;"/>
    </g>
    <g id="patch_8">
     <path d="M 183.988125 46.798125 
L 207.988125 46.798125 
L 207.988125 38.398125 
L 183.988125 38.398125 
z
" style="fill:#0000ff;opacity:0.25;stroke:#0000ff;stroke-linejoin:miter;"/>
    </g>
    <g id="text_13">
     <!-- Std. Err. -->
     <defs>
      <path d="M 45.40625 46.390625 
L 45.40625 75.984375 
L 54.390625 75.984375 
L 54.390625 0 
L 45.40625 0 
L 45.40625 8.203125 
Q 42.578125 3.328125 38.25 0.953125 
Q 33.9375 -1.421875 27.875 -1.421875 
Q 17.96875 -1.421875 11.734375 6.484375 
Q 5.515625 14.40625 5.515625 27.296875 
Q 5.515625 40.1875 11.734375 48.09375 
Q 17.96875 56 27.875 56 
Q 33.9375 56 38.25 53.625 
Q 42.578125 51.265625 45.40625 46.390625 
z
M 14.796875 27.296875 
Q 14.796875 17.390625 18.875 11.75 
Q 22.953125 6.109375 30.078125 6.109375 
Q 37.203125 6.109375 41.296875 11.75 
Q 45.40625 17.390625 45.40625 27.296875 
Q 45.40625 37.203125 41.296875 42.84375 
Q 37.203125 48.484375 30.078125 48.484375 
Q 22.953125 48.484375 18.875 42.84375 
Q 14.796875 37.203125 14.796875 27.296875 
z
" id="DejaVuSans-100"/>
      <path d="M 9.8125 72.90625 
L 55.90625 72.90625 
L 55.90625 64.59375 
L 19.671875 64.59375 
L 19.671875 43.015625 
L 54.390625 43.015625 
L 54.390625 34.71875 
L 19.671875 34.71875 
L 19.671875 8.296875 
L 56.78125 8.296875 
L 56.78125 0 
L 9.8125 0 
z
" id="DejaVuSans-69"/>
     </defs>
     <g transform="translate(217.588125 46.798125)scale(0.12 -0.12)">
      <use xlink:href="#DejaVuSans-83"/>
      <use x="63.476562" xlink:href="#DejaVuSans-116"/>
      <use x="102.685547" xlink:href="#DejaVuSans-100"/>
      <use x="166.162109" xlink:href="#DejaVuSans-46"/>
      <use x="197.949219" xlink:href="#DejaVuSans-32"/>
      <use x="229.736328" xlink:href="#DejaVuSans-69"/>
      <use x="292.919922" xlink:href="#DejaVuSans-114"/>
      <use x="334.017578" xlink:href="#DejaVuSans-114"/>
      <use x="374.990234" xlink:href="#DejaVuSans-46"/>
     </g>
    </g>
   </g>
  </g>
 </g>
 <defs>
  <clipPath id="pe1e8b4f1ab">
   <rect height="143.56" width="219.49" x="57.71" y="26.88"/>
  </clipPath>
 </defs>
</svg>
