<?xml version="1.0" encoding="utf-8" standalone="no"?>
<!DOCTYPE svg PUBLIC "-//W3C//DTD SVG 1.1//EN"
  "http://www.w3.org/Graphics/SVG/1.1/DTD/svg11.dtd">
<!-- Created with matplotlib (https://matplotlib.org/) -->
<svg height="216pt" version="1.1" viewBox="0 0 648 216" width="648pt" xmlns="http://www.w3.org/2000/svg" xmlns:xlink="http://www.w3.org/1999/xlink">
 <defs>
  <style type="text/css">
*{stroke-linecap:butt;stroke-linejoin:round;}
  </style>
 </defs>
 <g id="figure_1">
  <g id="patch_1">
   <path d="M 0 216 
L 648 216 
L 648 0 
L 0 0 
z
" style="fill:#ffffff;"/>
  </g>
  <g id="axes_1">
   <g id="patch_2">
    <path d="M 81 192.24 
L 583.2 192.24 
L 583.2 25.92 
L 81 25.92 
z
" style="fill:#ffffff;"/>
   </g>
   <g id="PolyCollection_1">
    <defs>
     <path d="M 156.33 -23.76 
L 156.33 -190.08 
L 420.645789 -190.08 
L 420.645789 -23.76 
L 420.645789 -23.76 
L 156.33 -23.76 
z
" id="m5bd4061002" style="stroke:#808080;stroke-opacity:0.3;"/>
    </defs>
    <g clip-path="url(#p3c4202bca6)">
     <use style="fill:#808080;fill-opacity:0.3;stroke:#808080;stroke-opacity:0.3;" x="0" xlink:href="#m5bd4061002" y="216"/>
    </g>
   </g>
   <g id="PolyCollection_2">
    <defs>
     <path d="M 81 -107.139217 
L 81 -69.835502 
L 82.762105 -64.794413 
L 84.524211 -67.624379 
L 86.286316 -64.971744 
L 88.048421 -57.314294 
L 89.810526 -57.741674 
L 91.572632 -49.832193 
L 93.334737 -79.7913 
L 95.096842 -55.227391 
L 96.858947 -55.620099 
L 98.621053 -66.764197 
L 100.383158 -59.460441 
L 102.145263 -53.504528 
L 103.907368 -77.349099 
L 105.669474 -66.879193 
L 107.431579 -61.57468 
L 109.193684 -58.115859 
L 110.955789 -60.281374 
L 112.717895 -59.3069 
L 114.48 -62.201483 
L 116.242105 -77.919677 
L 118.004211 -71.016743 
L 119.766316 -72.623794 
L 121.528421 -71.434367 
L 123.290526 -81.647193 
L 125.052632 -83.439065 
L 126.814737 -77.043263 
L 128.576842 -87.59339 
L 130.338947 -77.770776 
L 132.101053 -74.893906 
L 133.863158 -81.479403 
L 135.625263 -83.738637 
L 137.387368 -90.05751 
L 139.149474 -74.88898 
L 140.911579 -52.748345 
L 142.673684 -57.465877 
L 144.435789 -70.444933 
L 146.197895 -62.813364 
L 147.96 -56.673014 
L 149.722105 -61.019249 
L 151.484211 -60.70314 
L 153.246316 -60.500725 
L 155.008421 -48.030532 
L 156.770526 -54.345546 
L 158.532632 -47.286284 
L 160.294737 -55.075384 
L 162.056842 -71.358234 
L 163.818947 -62.338659 
L 165.581053 -57.548033 
L 167.343158 -53.893674 
L 169.105263 -64.88422 
L 170.867368 -59.454195 
L 172.629474 -43.640794 
L 174.391579 -49.986442 
L 176.153684 -48.511811 
L 177.915789 -47.903557 
L 179.677895 -58.996393 
L 181.44 -52.017053 
L 183.202105 -56.741413 
L 184.964211 -49.801964 
L 186.726316 -63.375869 
L 188.488421 -54.202501 
L 190.250526 -74.163684 
L 192.012632 -73.928281 
L 193.774737 -75.005517 
L 195.536842 -69.85287 
L 197.298947 -81.163747 
L 199.061053 -66.885665 
L 200.823158 -85.536636 
L 202.585263 -80.548154 
L 204.347368 -71.275759 
L 206.109474 -68.561386 
L 207.871579 -66.307057 
L 209.633684 -81.304273 
L 211.395789 -73.934386 
L 213.157895 -72.860163 
L 214.92 -74.117765 
L 216.682105 -61.793166 
L 218.444211 -68.049404 
L 220.206316 -54.413959 
L 221.968421 -55.409128 
L 223.730526 -63.37676 
L 225.492632 -59.593316 
L 227.254737 -71.694962 
L 229.016842 -48.573569 
L 230.778947 -39.181891 
L 232.541053 -44.990292 
L 234.303158 -37.217845 
L 236.065263 -37.362196 
L 237.827368 -51.576595 
L 239.589474 -41.754666 
L 241.351579 -43.832047 
L 243.113684 -56.847072 
L 244.875789 -52.575235 
L 246.637895 -48.550096 
L 248.4 -41.703298 
L 250.162105 -39.556296 
L 251.924211 -49.090312 
L 253.686316 -66.373178 
L 255.448421 -50.315589 
L 257.210526 -51.979322 
L 258.972632 -53.553805 
L 260.734737 -48.745838 
L 262.496842 -45.49699 
L 264.258947 -29.71447 
L 266.021053 -38.989735 
L 267.783158 -33.010158 
L 269.545263 -35.829055 
L 271.307368 -23.76 
L 273.069474 -24.698436 
L 274.831579 -29.603358 
L 276.593684 -24.372719 
L 278.355789 -34.613089 
L 280.117895 -33.701719 
L 281.88 -30.160121 
L 283.642105 -53.220888 
L 285.404211 -56.276935 
L 287.166316 -41.168861 
L 288.928421 -58.588942 
L 290.690526 -55.577363 
L 292.452632 -51.276738 
L 294.214737 -54.719084 
L 295.976842 -66.029766 
L 297.738947 -44.873935 
L 299.501053 -70.550752 
L 301.263158 -60.718422 
L 303.025263 -67.233349 
L 304.787368 -52.854279 
L 306.549474 -69.241662 
L 308.311579 -71.504015 
L 310.073684 -79.176798 
L 311.835789 -89.906821 
L 313.597895 -72.028201 
L 315.36 -75.36791 
L 317.122105 -66.369738 
L 318.884211 -71.186317 
L 320.646316 -72.854841 
L 322.408421 -61.346433 
L 324.170526 -51.777429 
L 325.932632 -56.052843 
L 327.694737 -71.007286 
L 329.456842 -59.718245 
L 331.218947 -52.927836 
L 332.981053 -46.238435 
L 334.743158 -59.861243 
L 336.505263 -41.398569 
L 338.267368 -59.765531 
L 340.029474 -46.750485 
L 341.791579 -42.469406 
L 343.553684 -36.565014 
L 345.315789 -42.77001 
L 347.077895 -55.131233 
L 348.84 -49.060694 
L 350.602105 -50.065977 
L 352.364211 -41.325013 
L 354.126316 -53.827238 
L 355.888421 -41.901618 
L 357.650526 -65.810948 
L 359.412632 -55.790889 
L 361.174737 -59.676627 
L 362.936842 -55.058913 
L 364.698947 -60.303625 
L 366.461053 -40.598002 
L 368.223158 -46.831433 
L 369.985263 -65.260139 
L 371.747368 -58.016834 
L 373.509474 -52.5964 
L 375.271579 -54.434524 
L 377.033684 -55.522677 
L 378.795789 -73.171846 
L 380.557895 -68.818052 
L 382.32 -54.933784 
L 384.082105 -62.164076 
L 385.844211 -89.420054 
L 387.606316 -71.083981 
L 389.368421 -66.679332 
L 391.130526 -74.773299 
L 392.892632 -72.59027 
L 394.654737 -64.940533 
L 396.416842 -69.007069 
L 398.178947 -65.909377 
L 399.941053 -66.533135 
L 401.703158 -80.508944 
L 403.465263 -75.303594 
L 405.227368 -75.538966 
L 406.989474 -70.929277 
L 408.751579 -72.3783 
L 410.513684 -74.896544 
L 412.275789 -71.114032 
L 414.037895 -71.827419 
L 415.8 -73.22796 
L 417.562105 -76.825122 
L 419.324211 -74.044449 
L 421.086316 -71.852078 
L 422.848421 -79.631375 
L 424.610526 -79.095986 
L 426.372632 -84.217553 
L 428.134737 -78.523741 
L 429.896842 -76.529096 
L 431.658947 -71.306094 
L 433.421053 -84.428401 
L 435.183158 -83.737352 
L 436.945263 -92.743927 
L 438.707368 -93.998129 
L 440.469474 -100.606719 
L 442.231579 -100.863442 
L 443.993684 -84.678566 
L 445.755789 -106.722972 
L 447.517895 -84.380286 
L 449.28 -89.499479 
L 451.042105 -73.362368 
L 452.804211 -72.620183 
L 454.566316 -58.538211 
L 456.328421 -82.732874 
L 458.090526 -68.647843 
L 459.852632 -77.34092 
L 461.614737 -74.282419 
L 463.376842 -63.901 
L 465.138947 -62.590421 
L 466.901053 -57.394784 
L 468.663158 -61.291082 
L 470.425263 -51.652244 
L 472.187368 -75.321411 
L 473.949474 -78.506538 
L 475.711579 -65.291934 
L 477.473684 -61.526279 
L 479.235789 -64.964786 
L 480.997895 -60.392167 
L 482.76 -75.654649 
L 484.522105 -71.6219 
L 486.284211 -74.272719 
L 488.046316 -80.03847 
L 489.808421 -78.474179 
L 491.570526 -84.003112 
L 493.332632 -94.859502 
L 495.094737 -76.216391 
L 496.856842 -90.126438 
L 498.618947 -92.567228 
L 500.381053 -91.565476 
L 502.143158 -89.164691 
L 503.905263 -90.329138 
L 505.667368 -91.593887 
L 507.429474 -74.588951 
L 509.191579 -71.542114 
L 510.953684 -63.714114 
L 512.715789 -77.242117 
L 514.477895 -62.987467 
L 516.24 -71.045939 
L 518.002105 -71.239954 
L 519.764211 -79.988815 
L 521.526316 -72.274193 
L 523.288421 -68.078485 
L 525.050526 -62.850075 
L 526.812632 -51.245585 
L 528.574737 -59.880143 
L 530.336842 -77.165691 
L 532.098947 -82.825319 
L 533.861053 -69.492333 
L 535.623158 -74.77166 
L 537.385263 -76.800789 
L 539.147368 -82.711389 
L 540.909474 -87.529245 
L 542.671579 -90.232942 
L 544.433684 -86.041739 
L 546.195789 -103.970988 
L 547.957895 -96.12399 
L 549.72 -94.928903 
L 551.482105 -99.231193 
L 553.244211 -97.475631 
L 555.006316 -109.999091 
L 556.768421 -109.245706 
L 558.530526 -105.395297 
L 560.292632 -110.78882 
L 562.054737 -121.287288 
L 563.816842 -121.415073 
L 565.578947 -124.171114 
L 567.341053 -126.642599 
L 569.103158 -126.711057 
L 570.865263 -112.450039 
L 572.627368 -123.840948 
L 574.389474 -110.294727 
L 576.151579 -112.15057 
L 577.913684 -112.184099 
L 579.675789 -100.071333 
L 581.437895 -103.117738 
L 583.2 -74.749676 
L 583.2 -117.728082 
L 583.2 -117.728082 
L 581.437895 -144.721065 
L 579.675789 -141.270294 
L 577.913684 -155.194824 
L 576.151579 -156.972718 
L 574.389474 -159.142263 
L 572.627368 -176.119593 
L 570.865263 -169.937353 
L 569.103158 -188.448096 
L 567.341053 -190.08 
L 565.578947 -189.359516 
L 563.816842 -185.30376 
L 562.054737 -181.288053 
L 560.292632 -169.287024 
L 558.530526 -164.614148 
L 556.768421 -166.392241 
L 555.006316 -166.760997 
L 553.244211 -155.872523 
L 551.482105 -153.654901 
L 549.72 -147.779287 
L 547.957895 -146.668592 
L 546.195789 -153.842819 
L 544.433684 -138.915273 
L 542.671579 -143.225299 
L 540.909474 -140.412681 
L 539.147368 -135.673916 
L 537.385263 -130.597115 
L 535.623158 -128.013338 
L 533.861053 -120.323805 
L 532.098947 -130.881977 
L 530.336842 -122.011251 
L 528.574737 -102.357015 
L 526.812632 -89.93733 
L 525.050526 -101.385264 
L 523.288421 -106.496828 
L 521.526316 -108.711411 
L 519.764211 -115.882241 
L 518.002105 -106.03997 
L 516.24 -105.889125 
L 514.477895 -100.443095 
L 512.715789 -111.749483 
L 510.953684 -101.070174 
L 509.191579 -110.946054 
L 507.429474 -115.850579 
L 505.667368 -132.152677 
L 503.905263 -129.708734 
L 502.143158 -128.771261 
L 500.381053 -132.502029 
L 498.618947 -133.690484 
L 496.856842 -132.482684 
L 495.094737 -119.604956 
L 493.332632 -135.50143 
L 491.570526 -125.49683 
L 489.808421 -116.753245 
L 488.046316 -116.672762 
L 486.284211 -110.313237 
L 484.522105 -103.153255 
L 482.76 -105.972082 
L 480.997895 -91.455333 
L 479.235789 -96.513167 
L 477.473684 -93.336858 
L 475.711579 -96.099402 
L 473.949474 -109.184022 
L 472.187368 -106.941475 
L 470.425263 -84.893722 
L 468.663158 -93.267398 
L 466.901053 -91.294728 
L 465.138947 -95.839948 
L 463.376842 -99.245574 
L 461.614737 -110.168175 
L 459.852632 -114.303252 
L 458.090526 -109.26945 
L 456.328421 -123.875746 
L 454.566316 -100.029413 
L 452.804211 -115.164569 
L 451.042105 -118.044986 
L 449.28 -132.940148 
L 447.517895 -129.251647 
L 445.755789 -150.983907 
L 443.993684 -132.430421 
L 442.231579 -151.323058 
L 440.469474 -153.848464 
L 438.707368 -149.238343 
L 436.945263 -149.875384 
L 435.183158 -143.73217 
L 433.421053 -145.880087 
L 431.658947 -133.650967 
L 429.896842 -138.856954 
L 428.134737 -134.83191 
L 426.372632 -132.105568 
L 424.610526 -123.263205 
L 422.848421 -122.608535 
L 421.086316 -115.061661 
L 419.324211 -116.525669 
L 417.562105 -119.272648 
L 415.8 -114.37979 
L 414.037895 -114.533893 
L 412.275789 -114.254964 
L 410.513684 -116.765711 
L 408.751579 -114.753347 
L 406.989474 -115.394842 
L 405.227368 -120.372683 
L 403.465263 -121.27919 
L 401.703158 -125.916268 
L 399.941053 -111.604388 
L 398.178947 -111.044211 
L 396.416842 -113.439561 
L 394.654737 -110.438292 
L 392.892632 -122.137148 
L 391.130526 -122.748701 
L 389.368421 -115.823596 
L 387.606316 -118.077927 
L 385.844211 -134.628504 
L 384.082105 -108.167158 
L 382.32 -99.711296 
L 380.557895 -112.785066 
L 378.795789 -114.753084 
L 377.033684 -96.313468 
L 375.271579 -94.136813 
L 373.509474 -92.300966 
L 371.747368 -96.08477 
L 369.985263 -102.526473 
L 368.223158 -84.84541 
L 366.461053 -80.960634 
L 364.698947 -101.226526 
L 362.936842 -94.813977 
L 361.174737 -101.001715 
L 359.412632 -97.200166 
L 357.650526 -107.876909 
L 355.888421 -86.010463 
L 354.126316 -94.030925 
L 352.364211 -81.817131 
L 350.602105 -87.606102 
L 348.84 -83.648407 
L 347.077895 -90.389103 
L 345.315789 -78.466659 
L 343.553684 -72.052527 
L 341.791579 -79.924982 
L 340.029474 -84.897496 
L 338.267368 -97.986486 
L 336.505263 -82.493172 
L 334.743158 -99.984843 
L 332.981053 -86.764491 
L 331.218947 -94.025935 
L 329.456842 -99.439417 
L 327.694737 -113.223723 
L 325.932632 -98.231108 
L 324.170526 -94.891971 
L 322.408421 -105.076901 
L 320.646316 -115.192209 
L 318.884211 -113.286579 
L 317.122105 -106.880025 
L 315.36 -119.758646 
L 313.597895 -119.720734 
L 311.835789 -137.604954 
L 310.073684 -125.315035 
L 308.311579 -114.504195 
L 306.549474 -110.285077 
L 304.787368 -95.281768 
L 303.025263 -114.149497 
L 301.263158 -106.830584 
L 299.501053 -117.49009 
L 297.738947 -93.692975 
L 295.976842 -113.838187 
L 294.214737 -100.864569 
L 292.452632 -94.337245 
L 290.690526 -94.438169 
L 288.928421 -96.078461 
L 287.166316 -75.334049 
L 285.404211 -88.250225 
L 283.642105 -85.386509 
L 281.88 -63.797478 
L 280.117895 -65.487795 
L 278.355789 -64.071349 
L 276.593684 -56.380496 
L 274.831579 -61.513101 
L 273.069474 -59.479423 
L 271.307368 -58.894472 
L 269.545263 -71.964898 
L 267.783158 -70.831807 
L 266.021053 -76.684321 
L 264.258947 -69.294748 
L 262.496842 -84.086241 
L 260.734737 -88.324941 
L 258.972632 -97.850689 
L 257.210526 -98.693852 
L 255.448421 -99.212103 
L 253.686316 -118.452407 
L 251.924211 -103.510121 
L 250.162105 -96.467457 
L 248.4 -97.862871 
L 246.637895 -100.892382 
L 244.875789 -100.293137 
L 243.113684 -103.21285 
L 241.351579 -88.299423 
L 239.589474 -86.732323 
L 237.827368 -95.019235 
L 236.065263 -78.94712 
L 234.303158 -75.030113 
L 232.541053 -83.321874 
L 230.778947 -78.507141 
L 229.016842 -87.675087 
L 227.254737 -111.869144 
L 225.492632 -100.64836 
L 223.730526 -104.351345 
L 221.968421 -98.311038 
L 220.206316 -99.462958 
L 218.444211 -113.614568 
L 216.682105 -107.314499 
L 214.92 -121.736511 
L 213.157895 -123.637792 
L 211.395789 -127.843687 
L 209.633684 -136.166106 
L 207.871579 -123.104543 
L 206.109474 -126.823375 
L 204.347368 -130.228178 
L 202.585263 -137.311676 
L 200.823158 -145.263178 
L 199.061053 -128.174236 
L 197.298947 -142.743543 
L 195.536842 -127.360704 
L 193.774737 -130.572206 
L 192.012632 -128.39696 
L 190.250526 -128.387648 
L 188.488421 -106.790623 
L 186.726316 -113.501409 
L 184.964211 -99.02998 
L 183.202105 -104.822284 
L 181.44 -100.735271 
L 179.677895 -106.484956 
L 177.915789 -94.552036 
L 176.153684 -89.983154 
L 174.391579 -89.43293 
L 172.629474 -84.56928 
L 170.867368 -103.179168 
L 169.105263 -104.81735 
L 167.343158 -95.380508 
L 165.581053 -102.211877 
L 163.818947 -109.690349 
L 162.056842 -118.027621 
L 160.294737 -102.7164 
L 158.532632 -96.204037 
L 156.770526 -103.226568 
L 155.008421 -94.064389 
L 153.246316 -104.739138 
L 151.484211 -102.869215 
L 149.722105 -101.805207 
L 147.96 -97.028257 
L 146.197895 -101.618413 
L 144.435789 -108.322786 
L 142.673684 -94.494807 
L 140.911579 -90.750194 
L 139.149474 -113.604558 
L 137.387368 -126.784613 
L 135.625263 -121.742592 
L 133.863158 -122.47281 
L 132.101053 -118.006412 
L 130.338947 -119.889107 
L 128.576842 -128.445831 
L 126.814737 -119.628358 
L 125.052632 -124.220296 
L 123.290526 -120.996712 
L 121.528421 -111.152477 
L 119.766316 -110.828848 
L 118.004211 -108.51423 
L 116.242105 -117.091918 
L 114.48 -102.254535 
L 112.717895 -101.516368 
L 110.955789 -104.386596 
L 109.193684 -104.331559 
L 107.431579 -110.296986 
L 105.669474 -114.21272 
L 103.907368 -121.708903 
L 102.145263 -96.15235 
L 100.383158 -100.146551 
L 98.621053 -109.293227 
L 96.858947 -96.158698 
L 95.096842 -94.742586 
L 93.334737 -117.620746 
L 91.572632 -86.543667 
L 89.810526 -92.655696 
L 88.048421 -92.387965 
L 86.286316 -101.45024 
L 84.524211 -105.964878 
L 82.762105 -102.380394 
L 81 -107.139217 
z
" id="ma1820070dd" style="stroke:#0000ff;stroke-opacity:0.3;"/>
    </defs>
    <g clip-path="url(#p3c4202bca6)">
     <use style="fill:#0000ff;fill-opacity:0.3;stroke:#0000ff;stroke-opacity:0.3;" x="0" xlink:href="#ma1820070dd" y="216"/>
    </g>
   </g>
   <g id="matplotlib.axis_1">
    <g id="xtick_1">
     <g id="line2d_1">
      <defs>
       <path d="M 0 0 
L 0 3.5 
" id="mab107c916d" style="stroke:#000000;stroke-width:0.8;"/>
      </defs>
      <g>
       <use style="stroke:#000000;stroke-width:0.8;" x="156.33" xlink:href="#mab107c916d" y="192.24"/>
      </g>
     </g>
     <g id="text_1">
      <!-- 0.0 -->
      <defs>
       <path d="M 31.78125 66.40625 
Q 24.171875 66.40625 20.328125 58.90625 
Q 16.5 51.421875 16.5 36.375 
Q 16.5 21.390625 20.328125 13.890625 
Q 24.171875 6.390625 31.78125 6.390625 
Q 39.453125 6.390625 43.28125 13.890625 
Q 47.125 21.390625 47.125 36.375 
Q 47.125 51.421875 43.28125 58.90625 
Q 39.453125 66.40625 31.78125 66.40625 
z
M 31.78125 74.21875 
Q 44.046875 74.21875 50.515625 64.515625 
Q 56.984375 54.828125 56.984375 36.375 
Q 56.984375 17.96875 50.515625 8.265625 
Q 44.046875 -1.421875 31.78125 -1.421875 
Q 19.53125 -1.421875 13.0625 8.265625 
Q 6.59375 17.96875 6.59375 36.375 
Q 6.59375 54.828125 13.0625 64.515625 
Q 19.53125 74.21875 31.78125 74.21875 
z
" id="DejaVuSans-48"/>
       <path d="M 10.6875 12.40625 
L 21 12.40625 
L 21 0 
L 10.6875 0 
z
" id="DejaVuSans-46"/>
      </defs>
      <g transform="translate(146.788125 208.358125)scale(0.12 -0.12)">
       <use xlink:href="#DejaVuSans-48"/>
       <use x="63.623047" xlink:href="#DejaVuSans-46"/>
       <use x="95.410156" xlink:href="#DejaVuSans-48"/>
      </g>
     </g>
    </g>
    <g id="xtick_2">
     <g id="line2d_2">
      <g>
       <use style="stroke:#000000;stroke-width:0.8;" x="244.435263" xlink:href="#mab107c916d" y="192.24"/>
      </g>
     </g>
     <g id="text_2">
      <!-- 0.5 -->
      <defs>
       <path d="M 10.796875 72.90625 
L 49.515625 72.90625 
L 49.515625 64.59375 
L 19.828125 64.59375 
L 19.828125 46.734375 
Q 21.96875 47.46875 24.109375 47.828125 
Q 26.265625 48.1875 28.421875 48.1875 
Q 40.625 48.1875 47.75 41.5 
Q 54.890625 34.8125 54.890625 23.390625 
Q 54.890625 11.625 47.5625 5.09375 
Q 40.234375 -1.421875 26.90625 -1.421875 
Q 22.3125 -1.421875 17.546875 -0.640625 
Q 12.796875 0.140625 7.71875 1.703125 
L 7.71875 11.625 
Q 12.109375 9.234375 16.796875 8.0625 
Q 21.484375 6.890625 26.703125 6.890625 
Q 35.15625 6.890625 40.078125 11.328125 
Q 45.015625 15.765625 45.015625 23.390625 
Q 45.015625 31 40.078125 35.4375 
Q 35.15625 39.890625 26.703125 39.890625 
Q 22.75 39.890625 18.8125 39.015625 
Q 14.890625 38.140625 10.796875 36.28125 
z
" id="DejaVuSans-53"/>
      </defs>
      <g transform="translate(234.893388 208.358125)scale(0.12 -0.12)">
       <use xlink:href="#DejaVuSans-48"/>
       <use x="63.623047" xlink:href="#DejaVuSans-46"/>
       <use x="95.410156" xlink:href="#DejaVuSans-53"/>
      </g>
     </g>
    </g>
    <g id="xtick_3">
     <g id="line2d_3">
      <g>
       <use style="stroke:#000000;stroke-width:0.8;" x="332.540526" xlink:href="#mab107c916d" y="192.24"/>
      </g>
     </g>
     <g id="text_3">
      <!-- 1.0 -->
      <defs>
       <path d="M 12.40625 8.296875 
L 28.515625 8.296875 
L 28.515625 63.921875 
L 10.984375 60.40625 
L 10.984375 69.390625 
L 28.421875 72.90625 
L 38.28125 72.90625 
L 38.28125 8.296875 
L 54.390625 8.296875 
L 54.390625 0 
L 12.40625 0 
z
" id="DejaVuSans-49"/>
      </defs>
      <g transform="translate(322.998651 208.358125)scale(0.12 -0.12)">
       <use xlink:href="#DejaVuSans-49"/>
       <use x="63.623047" xlink:href="#DejaVuSans-46"/>
       <use x="95.410156" xlink:href="#DejaVuSans-48"/>
      </g>
     </g>
    </g>
    <g id="xtick_4">
     <g id="line2d_4">
      <g>
       <use style="stroke:#000000;stroke-width:0.8;" x="420.645789" xlink:href="#mab107c916d" y="192.24"/>
      </g>
     </g>
     <g id="text_4">
      <!-- 1.5 -->
      <g transform="translate(411.103914 208.358125)scale(0.12 -0.12)">
       <use xlink:href="#DejaVuSans-49"/>
       <use x="63.623047" xlink:href="#DejaVuSans-46"/>
       <use x="95.410156" xlink:href="#DejaVuSans-53"/>
      </g>
     </g>
    </g>
    <g id="xtick_5">
     <g id="line2d_5">
      <g>
       <use style="stroke:#000000;stroke-width:0.8;" x="508.751053" xlink:href="#mab107c916d" y="192.24"/>
      </g>
     </g>
     <g id="text_5">
      <!-- 2.0 -->
      <defs>
       <path d="M 19.1875 8.296875 
L 53.609375 8.296875 
L 53.609375 0 
L 7.328125 0 
L 7.328125 8.296875 
Q 12.9375 14.109375 22.625 23.890625 
Q 32.328125 33.6875 34.8125 36.53125 
Q 39.546875 41.84375 41.421875 45.53125 
Q 43.3125 49.21875 43.3125 52.78125 
Q 43.3125 58.59375 39.234375 62.25 
Q 35.15625 65.921875 28.609375 65.921875 
Q 23.96875 65.921875 18.8125 64.3125 
Q 13.671875 62.703125 7.8125 59.421875 
L 7.8125 69.390625 
Q 13.765625 71.78125 18.9375 73 
Q 24.125 74.21875 28.421875 74.21875 
Q 39.75 74.21875 46.484375 68.546875 
Q 53.21875 62.890625 53.21875 53.421875 
Q 53.21875 48.921875 51.53125 44.890625 
Q 49.859375 40.875 45.40625 35.40625 
Q 44.1875 33.984375 37.640625 27.21875 
Q 31.109375 20.453125 19.1875 8.296875 
z
" id="DejaVuSans-50"/>
      </defs>
      <g transform="translate(499.209178 208.358125)scale(0.12 -0.12)">
       <use xlink:href="#DejaVuSans-50"/>
       <use x="63.623047" xlink:href="#DejaVuSans-46"/>
       <use x="95.410156" xlink:href="#DejaVuSans-48"/>
      </g>
     </g>
    </g>
    <g id="text_6">
     <!-- Time (s) -->
     <defs>
      <path d="M -0.296875 72.90625 
L 61.375 72.90625 
L 61.375 64.59375 
L 35.5 64.59375 
L 35.5 0 
L 25.59375 0 
L 25.59375 64.59375 
L -0.296875 64.59375 
z
" id="DejaVuSans-84"/>
      <path d="M 9.421875 54.6875 
L 18.40625 54.6875 
L 18.40625 0 
L 9.421875 0 
z
M 9.421875 75.984375 
L 18.40625 75.984375 
L 18.40625 64.59375 
L 9.421875 64.59375 
z
" id="DejaVuSans-105"/>
      <path d="M 52 44.1875 
Q 55.375 50.25 60.0625 53.125 
Q 64.75 56 71.09375 56 
Q 79.640625 56 84.28125 50.015625 
Q 88.921875 44.046875 88.921875 33.015625 
L 88.921875 0 
L 79.890625 0 
L 79.890625 32.71875 
Q 79.890625 40.578125 77.09375 44.375 
Q 74.3125 48.1875 68.609375 48.1875 
Q 61.625 48.1875 57.5625 43.546875 
Q 53.515625 38.921875 53.515625 30.90625 
L 53.515625 0 
L 44.484375 0 
L 44.484375 32.71875 
Q 44.484375 40.625 41.703125 44.40625 
Q 38.921875 48.1875 33.109375 48.1875 
Q 26.21875 48.1875 22.15625 43.53125 
Q 18.109375 38.875 18.109375 30.90625 
L 18.109375 0 
L 9.078125 0 
L 9.078125 54.6875 
L 18.109375 54.6875 
L 18.109375 46.1875 
Q 21.1875 51.21875 25.484375 53.609375 
Q 29.78125 56 35.6875 56 
Q 41.65625 56 45.828125 52.96875 
Q 50 49.953125 52 44.1875 
z
" id="DejaVuSans-109"/>
      <path d="M 56.203125 29.59375 
L 56.203125 25.203125 
L 14.890625 25.203125 
Q 15.484375 15.921875 20.484375 11.0625 
Q 25.484375 6.203125 34.421875 6.203125 
Q 39.59375 6.203125 44.453125 7.46875 
Q 49.3125 8.734375 54.109375 11.28125 
L 54.109375 2.78125 
Q 49.265625 0.734375 44.1875 -0.34375 
Q 39.109375 -1.421875 33.890625 -1.421875 
Q 20.796875 -1.421875 13.15625 6.1875 
Q 5.515625 13.8125 5.515625 26.8125 
Q 5.515625 40.234375 12.765625 48.109375 
Q 20.015625 56 32.328125 56 
Q 43.359375 56 49.78125 48.890625 
Q 56.203125 41.796875 56.203125 29.59375 
z
M 47.21875 32.234375 
Q 47.125 39.59375 43.09375 43.984375 
Q 39.0625 48.390625 32.421875 48.390625 
Q 24.90625 48.390625 20.390625 44.140625 
Q 15.875 39.890625 15.1875 32.171875 
z
" id="DejaVuSans-101"/>
      <path id="DejaVuSans-32"/>
      <path d="M 31 75.875 
Q 24.46875 64.65625 21.28125 53.65625 
Q 18.109375 42.671875 18.109375 31.390625 
Q 18.109375 20.125 21.3125 9.0625 
Q 24.515625 -2 31 -13.1875 
L 23.1875 -13.1875 
Q 15.875 -1.703125 12.234375 9.375 
Q 8.59375 20.453125 8.59375 31.390625 
Q 8.59375 42.28125 12.203125 53.3125 
Q 15.828125 64.359375 23.1875 75.875 
z
" id="DejaVuSans-40"/>
      <path d="M 44.28125 53.078125 
L 44.28125 44.578125 
Q 40.484375 46.53125 36.375 47.5 
Q 32.28125 48.484375 27.875 48.484375 
Q 21.1875 48.484375 17.84375 46.4375 
Q 14.5 44.390625 14.5 40.28125 
Q 14.5 37.15625 16.890625 35.375 
Q 19.28125 33.59375 26.515625 31.984375 
L 29.59375 31.296875 
Q 39.15625 29.25 43.1875 25.515625 
Q 47.21875 21.78125 47.21875 15.09375 
Q 47.21875 7.46875 41.1875 3.015625 
Q 35.15625 -1.421875 24.609375 -1.421875 
Q 20.21875 -1.421875 15.453125 -0.5625 
Q 10.6875 0.296875 5.421875 2 
L 5.421875 11.28125 
Q 10.40625 8.6875 15.234375 7.390625 
Q 20.0625 6.109375 24.8125 6.109375 
Q 31.15625 6.109375 34.5625 8.28125 
Q 37.984375 10.453125 37.984375 14.40625 
Q 37.984375 18.0625 35.515625 20.015625 
Q 33.0625 21.96875 24.703125 23.78125 
L 21.578125 24.515625 
Q 13.234375 26.265625 9.515625 29.90625 
Q 5.8125 33.546875 5.8125 39.890625 
Q 5.8125 47.609375 11.28125 51.796875 
Q 16.75 56 26.8125 56 
Q 31.78125 56 36.171875 55.265625 
Q 40.578125 54.546875 44.28125 53.078125 
z
" id="DejaVuSans-115"/>
      <path d="M 8.015625 75.875 
L 15.828125 75.875 
Q 23.140625 64.359375 26.78125 53.3125 
Q 30.421875 42.28125 30.421875 31.390625 
Q 30.421875 20.453125 26.78125 9.375 
Q 23.140625 -1.703125 15.828125 -13.1875 
L 8.015625 -13.1875 
Q 14.5 -2 17.703125 9.0625 
Q 20.90625 20.125 20.90625 31.390625 
Q 20.90625 42.671875 17.703125 53.65625 
Q 14.5 64.65625 8.015625 75.875 
z
" id="DejaVuSans-41"/>
     </defs>
     <g transform="translate(302.60475 225.7955)scale(0.144 -0.144)">
      <use xlink:href="#DejaVuSans-84"/>
      <use x="61.037109" xlink:href="#DejaVuSans-105"/>
      <use x="88.820312" xlink:href="#DejaVuSans-109"/>
      <use x="186.232422" xlink:href="#DejaVuSans-101"/>
      <use x="247.755859" xlink:href="#DejaVuSans-32"/>
      <use x="279.542969" xlink:href="#DejaVuSans-40"/>
      <use x="318.556641" xlink:href="#DejaVuSans-115"/>
      <use x="370.65625" xlink:href="#DejaVuSans-41"/>
     </g>
    </g>
   </g>
   <g id="matplotlib.axis_2">
    <g id="ytick_1">
     <g id="line2d_6">
      <defs>
       <path d="M 0 0 
L -3.5 0 
" id="m95d418434a" style="stroke:#000000;stroke-width:0.8;"/>
      </defs>
      <g>
       <use style="stroke:#000000;stroke-width:0.8;" x="81" xlink:href="#m95d418434a" y="174.999764"/>
      </g>
     </g>
     <g id="text_7">
      <!-- 0.0011 -->
      <g transform="translate(32.01125 179.558826)scale(0.12 -0.12)">
       <use xlink:href="#DejaVuSans-48"/>
       <use x="63.623047" xlink:href="#DejaVuSans-46"/>
       <use x="95.410156" xlink:href="#DejaVuSans-48"/>
       <use x="159.033203" xlink:href="#DejaVuSans-48"/>
       <use x="222.65625" xlink:href="#DejaVuSans-49"/>
       <use x="286.279297" xlink:href="#DejaVuSans-49"/>
      </g>
     </g>
    </g>
    <g id="ytick_2">
     <g id="line2d_7">
      <g>
       <use style="stroke:#000000;stroke-width:0.8;" x="81" xlink:href="#m95d418434a" y="151.884651"/>
      </g>
     </g>
     <g id="text_8">
      <!-- 0.0012 -->
      <g transform="translate(32.01125 156.443713)scale(0.12 -0.12)">
       <use xlink:href="#DejaVuSans-48"/>
       <use x="63.623047" xlink:href="#DejaVuSans-46"/>
       <use x="95.410156" xlink:href="#DejaVuSans-48"/>
       <use x="159.033203" xlink:href="#DejaVuSans-48"/>
       <use x="222.65625" xlink:href="#DejaVuSans-49"/>
       <use x="286.279297" xlink:href="#DejaVuSans-50"/>
      </g>
     </g>
    </g>
    <g id="ytick_3">
     <g id="line2d_8">
      <g>
       <use style="stroke:#000000;stroke-width:0.8;" x="81" xlink:href="#m95d418434a" y="128.769538"/>
      </g>
     </g>
     <g id="text_9">
      <!-- 0.0013 -->
      <defs>
       <path d="M 40.578125 39.3125 
Q 47.65625 37.796875 51.625 33 
Q 55.609375 28.21875 55.609375 21.1875 
Q 55.609375 10.40625 48.1875 4.484375 
Q 40.765625 -1.421875 27.09375 -1.421875 
Q 22.515625 -1.421875 17.65625 -0.515625 
Q 12.796875 0.390625 7.625 2.203125 
L 7.625 11.71875 
Q 11.71875 9.328125 16.59375 8.109375 
Q 21.484375 6.890625 26.8125 6.890625 
Q 36.078125 6.890625 40.9375 10.546875 
Q 45.796875 14.203125 45.796875 21.1875 
Q 45.796875 27.640625 41.28125 31.265625 
Q 36.765625 34.90625 28.71875 34.90625 
L 20.21875 34.90625 
L 20.21875 43.015625 
L 29.109375 43.015625 
Q 36.375 43.015625 40.234375 45.921875 
Q 44.09375 48.828125 44.09375 54.296875 
Q 44.09375 59.90625 40.109375 62.90625 
Q 36.140625 65.921875 28.71875 65.921875 
Q 24.65625 65.921875 20.015625 65.03125 
Q 15.375 64.15625 9.8125 62.3125 
L 9.8125 71.09375 
Q 15.4375 72.65625 20.34375 73.4375 
Q 25.25 74.21875 29.59375 74.21875 
Q 40.828125 74.21875 47.359375 69.109375 
Q 53.90625 64.015625 53.90625 55.328125 
Q 53.90625 49.265625 50.4375 45.09375 
Q 46.96875 40.921875 40.578125 39.3125 
z
" id="DejaVuSans-51"/>
      </defs>
      <g transform="translate(32.01125 133.3286)scale(0.12 -0.12)">
       <use xlink:href="#DejaVuSans-48"/>
       <use x="63.623047" xlink:href="#DejaVuSans-46"/>
       <use x="95.410156" xlink:href="#DejaVuSans-48"/>
       <use x="159.033203" xlink:href="#DejaVuSans-48"/>
       <use x="222.65625" xlink:href="#DejaVuSans-49"/>
       <use x="286.279297" xlink:href="#DejaVuSans-51"/>
      </g>
     </g>
    </g>
    <g id="ytick_4">
     <g id="line2d_9">
      <g>
       <use style="stroke:#000000;stroke-width:0.8;" x="81" xlink:href="#m95d418434a" y="105.654424"/>
      </g>
     </g>
     <g id="text_10">
      <!-- 0.0014 -->
      <defs>
       <path d="M 37.796875 64.3125 
L 12.890625 25.390625 
L 37.796875 25.390625 
z
M 35.203125 72.90625 
L 47.609375 72.90625 
L 47.609375 25.390625 
L 58.015625 25.390625 
L 58.015625 17.1875 
L 47.609375 17.1875 
L 47.609375 0 
L 37.796875 0 
L 37.796875 17.1875 
L 4.890625 17.1875 
L 4.890625 26.703125 
z
" id="DejaVuSans-52"/>
      </defs>
      <g transform="translate(32.01125 110.213487)scale(0.12 -0.12)">
       <use xlink:href="#DejaVuSans-48"/>
       <use x="63.623047" xlink:href="#DejaVuSans-46"/>
       <use x="95.410156" xlink:href="#DejaVuSans-48"/>
       <use x="159.033203" xlink:href="#DejaVuSans-48"/>
       <use x="222.65625" xlink:href="#DejaVuSans-49"/>
       <use x="286.279297" xlink:href="#DejaVuSans-52"/>
      </g>
     </g>
    </g>
    <g id="ytick_5">
     <g id="line2d_10">
      <g>
       <use style="stroke:#000000;stroke-width:0.8;" x="81" xlink:href="#m95d418434a" y="82.539311"/>
      </g>
     </g>
     <g id="text_11">
      <!-- 0.0015 -->
      <g transform="translate(32.01125 87.098374)scale(0.12 -0.12)">
       <use xlink:href="#DejaVuSans-48"/>
       <use x="63.623047" xlink:href="#DejaVuSans-46"/>
       <use x="95.410156" xlink:href="#DejaVuSans-48"/>
       <use x="159.033203" xlink:href="#DejaVuSans-48"/>
       <use x="222.65625" xlink:href="#DejaVuSans-49"/>
       <use x="286.279297" xlink:href="#DejaVuSans-53"/>
      </g>
     </g>
    </g>
    <g id="ytick_6">
     <g id="line2d_11">
      <g>
       <use style="stroke:#000000;stroke-width:0.8;" x="81" xlink:href="#m95d418434a" y="59.424198"/>
      </g>
     </g>
     <g id="text_12">
      <!-- 0.0016 -->
      <defs>
       <path d="M 33.015625 40.375 
Q 26.375 40.375 22.484375 35.828125 
Q 18.609375 31.296875 18.609375 23.390625 
Q 18.609375 15.53125 22.484375 10.953125 
Q 26.375 6.390625 33.015625 6.390625 
Q 39.65625 6.390625 43.53125 10.953125 
Q 47.40625 15.53125 47.40625 23.390625 
Q 47.40625 31.296875 43.53125 35.828125 
Q 39.65625 40.375 33.015625 40.375 
z
M 52.59375 71.296875 
L 52.59375 62.3125 
Q 48.875 64.0625 45.09375 64.984375 
Q 41.3125 65.921875 37.59375 65.921875 
Q 27.828125 65.921875 22.671875 59.328125 
Q 17.53125 52.734375 16.796875 39.40625 
Q 19.671875 43.65625 24.015625 45.921875 
Q 28.375 48.1875 33.59375 48.1875 
Q 44.578125 48.1875 50.953125 41.515625 
Q 57.328125 34.859375 57.328125 23.390625 
Q 57.328125 12.15625 50.6875 5.359375 
Q 44.046875 -1.421875 33.015625 -1.421875 
Q 20.359375 -1.421875 13.671875 8.265625 
Q 6.984375 17.96875 6.984375 36.375 
Q 6.984375 53.65625 15.1875 63.9375 
Q 23.390625 74.21875 37.203125 74.21875 
Q 40.921875 74.21875 44.703125 73.484375 
Q 48.484375 72.75 52.59375 71.296875 
z
" id="DejaVuSans-54"/>
      </defs>
      <g transform="translate(32.01125 63.983261)scale(0.12 -0.12)">
       <use xlink:href="#DejaVuSans-48"/>
       <use x="63.623047" xlink:href="#DejaVuSans-46"/>
       <use x="95.410156" xlink:href="#DejaVuSans-48"/>
       <use x="159.033203" xlink:href="#DejaVuSans-48"/>
       <use x="222.65625" xlink:href="#DejaVuSans-49"/>
       <use x="286.279297" xlink:href="#DejaVuSans-54"/>
      </g>
     </g>
    </g>
    <g id="ytick_7">
     <g id="line2d_12">
      <g>
       <use style="stroke:#000000;stroke-width:0.8;" x="81" xlink:href="#m95d418434a" y="36.309085"/>
      </g>
     </g>
     <g id="text_13">
      <!-- 0.0017 -->
      <defs>
       <path d="M 8.203125 72.90625 
L 55.078125 72.90625 
L 55.078125 68.703125 
L 28.609375 0 
L 18.3125 0 
L 43.21875 64.59375 
L 8.203125 64.59375 
z
" id="DejaVuSans-55"/>
      </defs>
      <g transform="translate(32.01125 40.868148)scale(0.12 -0.12)">
       <use xlink:href="#DejaVuSans-48"/>
       <use x="63.623047" xlink:href="#DejaVuSans-46"/>
       <use x="95.410156" xlink:href="#DejaVuSans-48"/>
       <use x="159.033203" xlink:href="#DejaVuSans-48"/>
       <use x="222.65625" xlink:href="#DejaVuSans-49"/>
       <use x="286.279297" xlink:href="#DejaVuSans-55"/>
      </g>
     </g>
    </g>
    <g id="text_14">
     <!-- Beta-bin $\rho$ -->
     <defs>
      <path d="M 19.671875 34.8125 
L 19.671875 8.109375 
L 35.5 8.109375 
Q 43.453125 8.109375 47.28125 11.40625 
Q 51.125 14.703125 51.125 21.484375 
Q 51.125 28.328125 47.28125 31.5625 
Q 43.453125 34.8125 35.5 34.8125 
z
M 19.671875 64.796875 
L 19.671875 42.828125 
L 34.28125 42.828125 
Q 41.5 42.828125 45.03125 45.53125 
Q 48.578125 48.25 48.578125 53.8125 
Q 48.578125 59.328125 45.03125 62.0625 
Q 41.5 64.796875 34.28125 64.796875 
z
M 9.8125 72.90625 
L 35.015625 72.90625 
Q 46.296875 72.90625 52.390625 68.21875 
Q 58.5 63.53125 58.5 54.890625 
Q 58.5 48.1875 55.375 44.234375 
Q 52.25 40.28125 46.1875 39.3125 
Q 53.46875 37.75 57.5 32.78125 
Q 61.53125 27.828125 61.53125 20.40625 
Q 61.53125 10.640625 54.890625 5.3125 
Q 48.25 0 35.984375 0 
L 9.8125 0 
z
" id="DejaVuSans-66"/>
      <path d="M 18.3125 70.21875 
L 18.3125 54.6875 
L 36.8125 54.6875 
L 36.8125 47.703125 
L 18.3125 47.703125 
L 18.3125 18.015625 
Q 18.3125 11.328125 20.140625 9.421875 
Q 21.96875 7.515625 27.59375 7.515625 
L 36.8125 7.515625 
L 36.8125 0 
L 27.59375 0 
Q 17.1875 0 13.234375 3.875 
Q 9.28125 7.765625 9.28125 18.015625 
L 9.28125 47.703125 
L 2.6875 47.703125 
L 2.6875 54.6875 
L 9.28125 54.6875 
L 9.28125 70.21875 
z
" id="DejaVuSans-116"/>
      <path d="M 34.28125 27.484375 
Q 23.390625 27.484375 19.1875 25 
Q 14.984375 22.515625 14.984375 16.5 
Q 14.984375 11.71875 18.140625 8.90625 
Q 21.296875 6.109375 26.703125 6.109375 
Q 34.1875 6.109375 38.703125 11.40625 
Q 43.21875 16.703125 43.21875 25.484375 
L 43.21875 27.484375 
z
M 52.203125 31.203125 
L 52.203125 0 
L 43.21875 0 
L 43.21875 8.296875 
Q 40.140625 3.328125 35.546875 0.953125 
Q 30.953125 -1.421875 24.3125 -1.421875 
Q 15.921875 -1.421875 10.953125 3.296875 
Q 6 8.015625 6 15.921875 
Q 6 25.140625 12.171875 29.828125 
Q 18.359375 34.515625 30.609375 34.515625 
L 43.21875 34.515625 
L 43.21875 35.40625 
Q 43.21875 41.609375 39.140625 45 
Q 35.0625 48.390625 27.6875 48.390625 
Q 23 48.390625 18.546875 47.265625 
Q 14.109375 46.140625 10.015625 43.890625 
L 10.015625 52.203125 
Q 14.9375 54.109375 19.578125 55.046875 
Q 24.21875 56 28.609375 56 
Q 40.484375 56 46.34375 49.84375 
Q 52.203125 43.703125 52.203125 31.203125 
z
" id="DejaVuSans-97"/>
      <path d="M 4.890625 31.390625 
L 31.203125 31.390625 
L 31.203125 23.390625 
L 4.890625 23.390625 
z
" id="DejaVuSans-45"/>
      <path d="M 48.6875 27.296875 
Q 48.6875 37.203125 44.609375 42.84375 
Q 40.53125 48.484375 33.40625 48.484375 
Q 26.265625 48.484375 22.1875 42.84375 
Q 18.109375 37.203125 18.109375 27.296875 
Q 18.109375 17.390625 22.1875 11.75 
Q 26.265625 6.109375 33.40625 6.109375 
Q 40.53125 6.109375 44.609375 11.75 
Q 48.6875 17.390625 48.6875 27.296875 
z
M 18.109375 46.390625 
Q 20.953125 51.265625 25.265625 53.625 
Q 29.59375 56 35.59375 56 
Q 45.5625 56 51.78125 48.09375 
Q 58.015625 40.1875 58.015625 27.296875 
Q 58.015625 14.40625 51.78125 6.484375 
Q 45.5625 -1.421875 35.59375 -1.421875 
Q 29.59375 -1.421875 25.265625 0.953125 
Q 20.953125 3.328125 18.109375 8.203125 
L 18.109375 0 
L 9.078125 0 
L 9.078125 75.984375 
L 18.109375 75.984375 
z
" id="DejaVuSans-98"/>
      <path d="M 54.890625 33.015625 
L 54.890625 0 
L 45.90625 0 
L 45.90625 32.71875 
Q 45.90625 40.484375 42.875 44.328125 
Q 39.84375 48.1875 33.796875 48.1875 
Q 26.515625 48.1875 22.3125 43.546875 
Q 18.109375 38.921875 18.109375 30.90625 
L 18.109375 0 
L 9.078125 0 
L 9.078125 54.6875 
L 18.109375 54.6875 
L 18.109375 46.1875 
Q 21.34375 51.125 25.703125 53.5625 
Q 30.078125 56 35.796875 56 
Q 45.21875 56 50.046875 50.171875 
Q 54.890625 44.34375 54.890625 33.015625 
z
" id="DejaVuSans-110"/>
      <path d="M 18.796875 44.921875 
Q 22.703125 49.90625 30.953125 54.296875 
Q 34.1875 56 43.0625 56 
Q 53.03125 56 57.71875 48.09375 
Q 62.40625 40.1875 59.90625 27.296875 
Q 57.375 14.40625 49.609375 6.484375 
Q 41.84375 -1.421875 31.890625 -1.421875 
Q 25.875 -1.421875 22.015625 0.984375 
Q 18.171875 3.328125 16.3125 8.203125 
L 10.640625 -20.796875 
L 1.609375 -20.796875 
L 10.890625 26.8125 
Q 13.09375 38.09375 18.796875 44.921875 
z
M 50.59375 27.296875 
Q 52.484375 37.203125 49.515625 42.875 
Q 46.53125 48.484375 39.40625 48.484375 
Q 32.28125 48.484375 27.09375 42.875 
Q 21.921875 37.203125 20.015625 27.296875 
Q 18.0625 17.390625 21.046875 11.71875 
Q 24.03125 6.109375 31.15625 6.109375 
Q 38.28125 6.109375 43.453125 11.71875 
Q 48.640625 17.390625 50.59375 27.296875 
z
" id="DejaVuSans-Oblique-961"/>
     </defs>
     <g transform="translate(24.98725 146.304)rotate(-90)scale(0.144 -0.144)">
      <use transform="translate(0 0.015625)" xlink:href="#DejaVuSans-66"/>
      <use transform="translate(68.603516 0.015625)" xlink:href="#DejaVuSans-101"/>
      <use transform="translate(130.126953 0.015625)" xlink:href="#DejaVuSans-116"/>
      <use transform="translate(169.335938 0.015625)" xlink:href="#DejaVuSans-97"/>
      <use transform="translate(230.615234 0.015625)" xlink:href="#DejaVuSans-45"/>
      <use transform="translate(266.699219 0.015625)" xlink:href="#DejaVuSans-98"/>
      <use transform="translate(330.175781 0.015625)" xlink:href="#DejaVuSans-105"/>
      <use transform="translate(357.958984 0.015625)" xlink:href="#DejaVuSans-110"/>
      <use transform="translate(421.337891 0.015625)" xlink:href="#DejaVuSans-32"/>
      <use transform="translate(453.125 0.015625)" xlink:href="#DejaVuSans-Oblique-961"/>
     </g>
    </g>
   </g>
   <g id="line2d_13">
    <path clip-path="url(#p3c4202bca6)" d="M 81 127.51264 
L 82.762105 132.412597 
L 84.524211 129.205372 
L 86.286316 132.789008 
L 88.048421 141.148871 
L 89.810526 140.801315 
L 91.572632 147.81207 
L 93.334737 117.293977 
L 95.096842 141.015011 
L 96.858947 140.110602 
L 98.621053 127.971288 
L 100.383158 136.196504 
L 102.145263 141.171561 
L 103.907368 116.470999 
L 105.669474 125.454044 
L 109.193684 134.776291 
L 110.955789 133.666015 
L 112.717895 135.588366 
L 114.48 133.771991 
L 116.242105 118.494202 
L 118.004211 126.234514 
L 119.766316 124.273679 
L 121.528421 124.706578 
L 123.290526 114.678048 
L 125.052632 112.170319 
L 126.814737 117.664189 
L 128.576842 107.980389 
L 130.338947 117.170059 
L 132.101053 119.549841 
L 133.863158 114.023894 
L 135.625263 113.259386 
L 137.387368 107.578939 
L 139.149474 121.753231 
L 140.911579 144.25073 
L 142.673684 140.019658 
L 144.435789 126.61614 
L 146.197895 133.784112 
L 147.96 139.149364 
L 149.722105 134.587772 
L 151.484211 134.213822 
L 153.246316 133.380069 
L 155.008421 144.95254 
L 156.770526 137.213943 
L 158.532632 144.254839 
L 160.294737 137.104108 
L 162.056842 121.307072 
L 163.818947 129.985496 
L 165.581053 136.120045 
L 167.343158 141.362909 
L 169.105263 131.149215 
L 170.867368 134.683319 
L 172.629474 151.894963 
L 174.391579 146.290314 
L 176.153684 146.752517 
L 177.915789 144.772203 
L 179.677895 133.259325 
L 181.44 139.623838 
L 183.202105 135.218151 
L 184.964211 141.584028 
L 186.726316 127.561361 
L 188.488421 135.503438 
L 190.250526 114.724334 
L 192.012632 114.83738 
L 193.774737 113.211138 
L 195.536842 117.393213 
L 197.298947 104.046355 
L 199.061053 118.470049 
L 200.823158 100.600093 
L 202.585263 107.070085 
L 204.347368 115.248031 
L 207.871579 121.2942 
L 209.633684 107.264811 
L 211.395789 115.110963 
L 213.157895 117.751023 
L 214.92 118.072862 
L 216.682105 131.446168 
L 218.444211 125.168014 
L 220.206316 139.061541 
L 221.968421 139.139917 
L 223.730526 132.135947 
L 225.492632 135.879162 
L 227.254737 124.217947 
L 229.016842 147.875672 
L 230.778947 157.155484 
L 232.541053 151.843917 
L 234.303158 159.876021 
L 236.065263 157.845342 
L 237.827368 142.702085 
L 239.589474 151.756505 
L 241.351579 149.934265 
L 243.113684 135.970039 
L 244.875789 139.565814 
L 246.637895 141.278761 
L 248.4 146.216915 
L 250.162105 147.988124 
L 251.924211 139.699784 
L 253.686316 123.587207 
L 255.448421 141.236154 
L 257.210526 140.663413 
L 258.972632 140.297753 
L 260.734737 147.46461 
L 262.496842 151.208385 
L 264.258947 166.495391 
L 266.021053 158.162972 
L 267.783158 164.079018 
L 269.545263 162.103024 
L 271.307368 174.672764 
L 273.069474 173.91107 
L 274.831579 170.44177 
L 276.593684 175.623392 
L 278.355789 166.657781 
L 280.117895 166.405243 
L 281.88 169.0212 
L 283.642105 146.696302 
L 285.404211 143.73642 
L 287.166316 157.748545 
L 288.928421 138.666299 
L 292.452632 143.193009 
L 294.214737 138.208174 
L 295.976842 126.066024 
L 297.738947 146.716545 
L 299.501053 121.979579 
L 301.263158 132.225497 
L 303.025263 125.308577 
L 304.787368 141.931976 
L 306.549474 126.23663 
L 308.311579 122.995895 
L 310.073684 113.754084 
L 311.835789 102.244112 
L 313.597895 120.125533 
L 315.36 118.436722 
L 317.122105 129.375118 
L 318.884211 123.763552 
L 320.646316 121.976475 
L 322.408421 132.788333 
L 324.170526 142.6653 
L 325.932632 138.858025 
L 327.694737 123.884495 
L 329.456842 136.421169 
L 331.218947 142.523114 
L 332.981053 149.498537 
L 334.743158 136.076957 
L 336.505263 154.05413 
L 338.267368 137.123991 
L 340.029474 150.176009 
L 341.791579 154.802806 
L 343.553684 161.691229 
L 345.315789 155.381666 
L 347.077895 143.239832 
L 348.84 149.64545 
L 350.602105 147.163961 
L 352.364211 154.428928 
L 354.126316 142.070919 
L 355.888421 152.04396 
L 357.650526 129.156071 
L 359.412632 139.504472 
L 361.174737 135.660829 
L 362.936842 141.063555 
L 364.698947 135.234925 
L 366.461053 155.220682 
L 368.223158 150.161578 
L 369.985263 132.106694 
L 371.747368 138.949198 
L 373.509474 143.551317 
L 375.271579 141.714332 
L 377.033684 140.081928 
L 378.795789 122.037535 
L 380.557895 125.198441 
L 382.32 138.67746 
L 384.082105 130.834383 
L 385.844211 103.975721 
L 387.606316 121.419046 
L 389.368421 124.748536 
L 391.130526 117.239 
L 392.892632 118.636291 
L 394.654737 128.310587 
L 396.416842 124.776685 
L 398.178947 127.523206 
L 399.941053 126.931239 
L 401.703158 112.787394 
L 403.465263 117.708608 
L 405.227368 118.044175 
L 406.989474 122.837941 
L 408.751579 122.434177 
L 410.513684 120.168872 
L 412.275789 123.315502 
L 414.037895 122.819344 
L 415.8 122.196125 
L 417.562105 117.951115 
L 419.324211 120.714941 
L 421.086316 122.54313 
L 422.848421 114.880045 
L 424.610526 114.820405 
L 426.372632 107.83844 
L 428.134737 109.322174 
L 429.896842 108.306975 
L 431.658947 113.521469 
L 433.421053 100.845756 
L 435.183158 102.265239 
L 436.945263 94.690344 
L 438.707368 94.381764 
L 440.469474 88.772409 
L 442.231579 89.90675 
L 443.993684 107.445507 
L 445.755789 87.146561 
L 447.517895 109.184034 
L 449.28 104.780186 
L 451.042105 120.296323 
L 452.804211 122.107624 
L 454.566316 136.716188 
L 456.328421 112.69569 
L 458.090526 127.041353 
L 459.852632 120.177914 
L 461.614737 123.774703 
L 463.376842 134.426713 
L 465.138947 136.784816 
L 466.901053 141.655244 
L 468.663158 138.72076 
L 470.425263 147.727017 
L 472.187368 124.868557 
L 473.949474 122.15472 
L 475.711579 135.304332 
L 477.473684 138.568432 
L 479.235789 135.261024 
L 480.997895 140.07625 
L 482.76 125.186634 
L 484.522105 128.612422 
L 486.284211 123.707022 
L 488.046316 117.644384 
L 489.808421 118.386288 
L 491.570526 111.250029 
L 493.332632 100.819534 
L 495.094737 118.089326 
L 496.856842 104.695439 
L 498.618947 102.871144 
L 500.381053 103.966248 
L 502.143158 107.032024 
L 503.905263 105.981064 
L 505.667368 104.126718 
L 507.429474 120.780235 
L 509.191579 124.755916 
L 510.953684 133.607856 
L 512.715789 121.5042 
L 514.477895 134.284719 
L 516.24 127.532468 
L 518.002105 127.360038 
L 519.764211 118.064472 
L 521.526316 125.507198 
L 523.288421 128.712343 
L 525.050526 133.88233 
L 526.812632 145.408543 
L 528.574737 134.881421 
L 530.336842 116.411529 
L 532.098947 109.146352 
L 533.861053 121.091931 
L 535.623158 114.607501 
L 537.385263 112.301048 
L 539.147368 106.807347 
L 540.909474 102.029037 
L 542.671579 99.270879 
L 544.433684 103.521494 
L 546.195789 87.093096 
L 547.957895 94.603709 
L 549.72 94.645905 
L 551.482105 89.556953 
L 553.244211 89.325923 
L 555.006316 77.619956 
L 556.768421 78.181027 
L 558.530526 80.995278 
L 560.292632 75.962078 
L 562.054737 64.712329 
L 563.816842 62.640584 
L 565.578947 59.234685 
L 567.341053 57.6387 
L 569.103158 58.420423 
L 570.865263 74.806304 
L 572.627368 66.01973 
L 574.389474 81.281505 
L 576.151579 81.438356 
L 577.913684 82.310539 
L 579.675789 95.329187 
L 581.437895 92.080599 
L 583.2 119.761121 
L 583.2 119.761121 
" style="fill:none;stroke:#0000ff;stroke-linecap:square;stroke-width:1.5;"/>
   </g>
   <g id="patch_3">
    <path d="M 81 192.24 
L 81 25.92 
" style="fill:none;stroke:#000000;stroke-linecap:square;stroke-linejoin:miter;stroke-width:0.8;"/>
   </g>
   <g id="patch_4">
    <path d="M 583.2 192.24 
L 583.2 25.92 
" style="fill:none;stroke:#000000;stroke-linecap:square;stroke-linejoin:miter;stroke-width:0.8;"/>
   </g>
   <g id="patch_5">
    <path d="M 81 192.24 
L 583.2 192.24 
" style="fill:none;stroke:#000000;stroke-linecap:square;stroke-linejoin:miter;stroke-width:0.8;"/>
   </g>
   <g id="patch_6">
    <path d="M 81 25.92 
L 583.2 25.92 
" style="fill:none;stroke:#000000;stroke-linecap:square;stroke-linejoin:miter;stroke-width:0.8;"/>
   </g>
   <g id="text_15">
    <!-- Motor cortex, Num Trials=160 All stimulated trials -->
    <defs>
     <path d="M 9.8125 72.90625 
L 24.515625 72.90625 
L 43.109375 23.296875 
L 61.8125 72.90625 
L 76.515625 72.90625 
L 76.515625 0 
L 66.890625 0 
L 66.890625 64.015625 
L 48.09375 14.015625 
L 38.1875 14.015625 
L 19.390625 64.015625 
L 19.390625 0 
L 9.8125 0 
z
" id="DejaVuSans-77"/>
     <path d="M 30.609375 48.390625 
Q 23.390625 48.390625 19.1875 42.75 
Q 14.984375 37.109375 14.984375 27.296875 
Q 14.984375 17.484375 19.15625 11.84375 
Q 23.34375 6.203125 30.609375 6.203125 
Q 37.796875 6.203125 41.984375 11.859375 
Q 46.1875 17.53125 46.1875 27.296875 
Q 46.1875 37.015625 41.984375 42.703125 
Q 37.796875 48.390625 30.609375 48.390625 
z
M 30.609375 56 
Q 42.328125 56 49.015625 48.375 
Q 55.71875 40.765625 55.71875 27.296875 
Q 55.71875 13.875 49.015625 6.21875 
Q 42.328125 -1.421875 30.609375 -1.421875 
Q 18.84375 -1.421875 12.171875 6.21875 
Q 5.515625 13.875 5.515625 27.296875 
Q 5.515625 40.765625 12.171875 48.375 
Q 18.84375 56 30.609375 56 
z
" id="DejaVuSans-111"/>
     <path d="M 41.109375 46.296875 
Q 39.59375 47.171875 37.8125 47.578125 
Q 36.03125 48 33.890625 48 
Q 26.265625 48 22.1875 43.046875 
Q 18.109375 38.09375 18.109375 28.8125 
L 18.109375 0 
L 9.078125 0 
L 9.078125 54.6875 
L 18.109375 54.6875 
L 18.109375 46.1875 
Q 20.953125 51.171875 25.484375 53.578125 
Q 30.03125 56 36.53125 56 
Q 37.453125 56 38.578125 55.875 
Q 39.703125 55.765625 41.0625 55.515625 
z
" id="DejaVuSans-114"/>
     <path d="M 48.78125 52.59375 
L 48.78125 44.1875 
Q 44.96875 46.296875 41.140625 47.34375 
Q 37.3125 48.390625 33.40625 48.390625 
Q 24.65625 48.390625 19.8125 42.84375 
Q 14.984375 37.3125 14.984375 27.296875 
Q 14.984375 17.28125 19.8125 11.734375 
Q 24.65625 6.203125 33.40625 6.203125 
Q 37.3125 6.203125 41.140625 7.25 
Q 44.96875 8.296875 48.78125 10.40625 
L 48.78125 2.09375 
Q 45.015625 0.34375 40.984375 -0.53125 
Q 36.96875 -1.421875 32.421875 -1.421875 
Q 20.0625 -1.421875 12.78125 6.34375 
Q 5.515625 14.109375 5.515625 27.296875 
Q 5.515625 40.671875 12.859375 48.328125 
Q 20.21875 56 33.015625 56 
Q 37.15625 56 41.109375 55.140625 
Q 45.0625 54.296875 48.78125 52.59375 
z
" id="DejaVuSans-99"/>
     <path d="M 54.890625 54.6875 
L 35.109375 28.078125 
L 55.90625 0 
L 45.3125 0 
L 29.390625 21.484375 
L 13.484375 0 
L 2.875 0 
L 24.125 28.609375 
L 4.6875 54.6875 
L 15.28125 54.6875 
L 29.78125 35.203125 
L 44.28125 54.6875 
z
" id="DejaVuSans-120"/>
     <path d="M 11.71875 12.40625 
L 22.015625 12.40625 
L 22.015625 4 
L 14.015625 -11.625 
L 7.71875 -11.625 
L 11.71875 4 
z
" id="DejaVuSans-44"/>
     <path d="M 9.8125 72.90625 
L 23.09375 72.90625 
L 55.421875 11.921875 
L 55.421875 72.90625 
L 64.984375 72.90625 
L 64.984375 0 
L 51.703125 0 
L 19.390625 60.984375 
L 19.390625 0 
L 9.8125 0 
z
" id="DejaVuSans-78"/>
     <path d="M 8.5 21.578125 
L 8.5 54.6875 
L 17.484375 54.6875 
L 17.484375 21.921875 
Q 17.484375 14.15625 20.5 10.265625 
Q 23.53125 6.390625 29.59375 6.390625 
Q 36.859375 6.390625 41.078125 11.03125 
Q 45.3125 15.671875 45.3125 23.6875 
L 45.3125 54.6875 
L 54.296875 54.6875 
L 54.296875 0 
L 45.3125 0 
L 45.3125 8.40625 
Q 42.046875 3.421875 37.71875 1 
Q 33.40625 -1.421875 27.6875 -1.421875 
Q 18.265625 -1.421875 13.375 4.4375 
Q 8.5 10.296875 8.5 21.578125 
z
M 31.109375 56 
z
" id="DejaVuSans-117"/>
     <path d="M 9.421875 75.984375 
L 18.40625 75.984375 
L 18.40625 0 
L 9.421875 0 
z
" id="DejaVuSans-108"/>
     <path d="M 10.59375 45.40625 
L 73.1875 45.40625 
L 73.1875 37.203125 
L 10.59375 37.203125 
z
M 10.59375 25.484375 
L 73.1875 25.484375 
L 73.1875 17.1875 
L 10.59375 17.1875 
z
" id="DejaVuSans-61"/>
     <path d="M 34.1875 63.1875 
L 20.796875 26.90625 
L 47.609375 26.90625 
z
M 28.609375 72.90625 
L 39.796875 72.90625 
L 67.578125 0 
L 57.328125 0 
L 50.6875 18.703125 
L 17.828125 18.703125 
L 11.1875 0 
L 0.78125 0 
z
" id="DejaVuSans-65"/>
     <path d="M 45.40625 46.390625 
L 45.40625 75.984375 
L 54.390625 75.984375 
L 54.390625 0 
L 45.40625 0 
L 45.40625 8.203125 
Q 42.578125 3.328125 38.25 0.953125 
Q 33.9375 -1.421875 27.875 -1.421875 
Q 17.96875 -1.421875 11.734375 6.484375 
Q 5.515625 14.40625 5.515625 27.296875 
Q 5.515625 40.1875 11.734375 48.09375 
Q 17.96875 56 27.875 56 
Q 33.9375 56 38.25 53.625 
Q 42.578125 51.265625 45.40625 46.390625 
z
M 14.796875 27.296875 
Q 14.796875 17.390625 18.875 11.75 
Q 22.953125 6.109375 30.078125 6.109375 
Q 37.203125 6.109375 41.296875 11.75 
Q 45.40625 17.390625 45.40625 27.296875 
Q 45.40625 37.203125 41.296875 42.84375 
Q 37.203125 48.484375 30.078125 48.484375 
Q 22.953125 48.484375 18.875 42.84375 
Q 14.796875 37.203125 14.796875 27.296875 
z
" id="DejaVuSans-100"/>
    </defs>
    <g transform="translate(181.130625 19.92)scale(0.12 -0.12)">
     <use xlink:href="#DejaVuSans-77"/>
     <use x="86.279297" xlink:href="#DejaVuSans-111"/>
     <use x="147.460938" xlink:href="#DejaVuSans-116"/>
     <use x="186.669922" xlink:href="#DejaVuSans-111"/>
     <use x="247.851562" xlink:href="#DejaVuSans-114"/>
     <use x="288.964844" xlink:href="#DejaVuSans-32"/>
     <use x="320.751953" xlink:href="#DejaVuSans-99"/>
     <use x="375.732422" xlink:href="#DejaVuSans-111"/>
     <use x="436.914062" xlink:href="#DejaVuSans-114"/>
     <use x="478.027344" xlink:href="#DejaVuSans-116"/>
     <use x="517.236328" xlink:href="#DejaVuSans-101"/>
     <use x="578.744141" xlink:href="#DejaVuSans-120"/>
     <use x="637.923828" xlink:href="#DejaVuSans-44"/>
     <use x="669.710938" xlink:href="#DejaVuSans-32"/>
     <use x="701.498047" xlink:href="#DejaVuSans-78"/>
     <use x="776.302734" xlink:href="#DejaVuSans-117"/>
     <use x="839.681641" xlink:href="#DejaVuSans-109"/>
     <use x="937.09375" xlink:href="#DejaVuSans-32"/>
     <use x="968.880859" xlink:href="#DejaVuSans-84"/>
     <use x="1029.746094" xlink:href="#DejaVuSans-114"/>
     <use x="1070.859375" xlink:href="#DejaVuSans-105"/>
     <use x="1098.642578" xlink:href="#DejaVuSans-97"/>
     <use x="1159.921875" xlink:href="#DejaVuSans-108"/>
     <use x="1187.705078" xlink:href="#DejaVuSans-115"/>
     <use x="1239.804688" xlink:href="#DejaVuSans-61"/>
     <use x="1323.59375" xlink:href="#DejaVuSans-49"/>
     <use x="1387.216797" xlink:href="#DejaVuSans-54"/>
     <use x="1450.839844" xlink:href="#DejaVuSans-48"/>
     <use x="1514.462891" xlink:href="#DejaVuSans-32"/>
     <use x="1546.25" xlink:href="#DejaVuSans-65"/>
     <use x="1614.658203" xlink:href="#DejaVuSans-108"/>
     <use x="1642.441406" xlink:href="#DejaVuSans-108"/>
     <use x="1670.224609" xlink:href="#DejaVuSans-32"/>
     <use x="1702.011719" xlink:href="#DejaVuSans-115"/>
     <use x="1754.111328" xlink:href="#DejaVuSans-116"/>
     <use x="1793.320312" xlink:href="#DejaVuSans-105"/>
     <use x="1821.103516" xlink:href="#DejaVuSans-109"/>
     <use x="1918.515625" xlink:href="#DejaVuSans-117"/>
     <use x="1981.894531" xlink:href="#DejaVuSans-108"/>
     <use x="2009.677734" xlink:href="#DejaVuSans-97"/>
     <use x="2070.957031" xlink:href="#DejaVuSans-116"/>
     <use x="2110.166016" xlink:href="#DejaVuSans-101"/>
     <use x="2171.689453" xlink:href="#DejaVuSans-100"/>
     <use x="2235.166016" xlink:href="#DejaVuSans-32"/>
     <use x="2266.953125" xlink:href="#DejaVuSans-116"/>
     <use x="2306.162109" xlink:href="#DejaVuSans-114"/>
     <use x="2347.275391" xlink:href="#DejaVuSans-105"/>
     <use x="2375.058594" xlink:href="#DejaVuSans-97"/>
     <use x="2436.337891" xlink:href="#DejaVuSans-108"/>
     <use x="2464.121094" xlink:href="#DejaVuSans-115"/>
    </g>
   </g>
   <g id="legend_1">
    <g id="patch_7">
     <path d="M 89.4 70.77375 
L 223.56 70.77375 
Q 225.96 70.77375 225.96 68.37375 
L 225.96 34.32 
Q 225.96 31.92 223.56 31.92 
L 89.4 31.92 
Q 87 31.92 87 34.32 
L 87 68.37375 
Q 87 70.77375 89.4 70.77375 
z
" style="fill:#ffffff;opacity:0.8;stroke:#cccccc;stroke-linejoin:miter;"/>
    </g>
    <g id="line2d_14">
     <path d="M 91.8 41.64 
L 115.8 41.64 
" style="fill:none;stroke:#0000ff;stroke-linecap:square;stroke-width:1.5;"/>
    </g>
    <g id="line2d_15"/>
    <g id="text_16">
     <!-- Beta-Binomial $\rho$ -->
     <g transform="translate(125.4 45.84)scale(0.12 -0.12)">
      <use transform="translate(0 0.015625)" xlink:href="#DejaVuSans-66"/>
      <use transform="translate(68.603516 0.015625)" xlink:href="#DejaVuSans-101"/>
      <use transform="translate(130.126953 0.015625)" xlink:href="#DejaVuSans-116"/>
      <use transform="translate(169.335938 0.015625)" xlink:href="#DejaVuSans-97"/>
      <use transform="translate(230.615234 0.015625)" xlink:href="#DejaVuSans-45"/>
      <use transform="translate(266.699219 0.015625)" xlink:href="#DejaVuSans-66"/>
      <use transform="translate(335.302734 0.015625)" xlink:href="#DejaVuSans-105"/>
      <use transform="translate(363.085938 0.015625)" xlink:href="#DejaVuSans-110"/>
      <use transform="translate(426.464844 0.015625)" xlink:href="#DejaVuSans-111"/>
      <use transform="translate(487.646484 0.015625)" xlink:href="#DejaVuSans-109"/>
      <use transform="translate(585.058594 0.015625)" xlink:href="#DejaVuSans-105"/>
      <use transform="translate(612.841797 0.015625)" xlink:href="#DejaVuSans-97"/>
      <use transform="translate(674.121094 0.015625)" xlink:href="#DejaVuSans-108"/>
      <use transform="translate(701.904297 0.015625)" xlink:href="#DejaVuSans-32"/>
      <use transform="translate(733.691406 0.015625)" xlink:href="#DejaVuSans-Oblique-961"/>
     </g>
    </g>
    <g id="patch_8">
     <path d="M 91.8 63.478125 
L 115.8 63.478125 
L 115.8 55.078125 
L 91.8 55.078125 
z
" style="fill:#0000ff;opacity:0.3;stroke:#0000ff;stroke-linejoin:miter;"/>
    </g>
    <g id="text_17">
     <!-- Std. Err. -->
     <defs>
      <path d="M 53.515625 70.515625 
L 53.515625 60.890625 
Q 47.90625 63.578125 42.921875 64.890625 
Q 37.9375 66.21875 33.296875 66.21875 
Q 25.25 66.21875 20.875 63.09375 
Q 16.5 59.96875 16.5 54.203125 
Q 16.5 49.359375 19.40625 46.890625 
Q 22.3125 44.4375 30.421875 42.921875 
L 36.375 41.703125 
Q 47.40625 39.59375 52.65625 34.296875 
Q 57.90625 29 57.90625 20.125 
Q 57.90625 9.515625 50.796875 4.046875 
Q 43.703125 -1.421875 29.984375 -1.421875 
Q 24.8125 -1.421875 18.96875 -0.25 
Q 13.140625 0.921875 6.890625 3.21875 
L 6.890625 13.375 
Q 12.890625 10.015625 18.65625 8.296875 
Q 24.421875 6.59375 29.984375 6.59375 
Q 38.421875 6.59375 43.015625 9.90625 
Q 47.609375 13.234375 47.609375 19.390625 
Q 47.609375 24.75 44.3125 27.78125 
Q 41.015625 30.8125 33.5 32.328125 
L 27.484375 33.5 
Q 16.453125 35.6875 11.515625 40.375 
Q 6.59375 45.0625 6.59375 53.421875 
Q 6.59375 63.09375 13.40625 68.65625 
Q 20.21875 74.21875 32.171875 74.21875 
Q 37.3125 74.21875 42.625 73.28125 
Q 47.953125 72.359375 53.515625 70.515625 
z
" id="DejaVuSans-83"/>
      <path d="M 9.8125 72.90625 
L 55.90625 72.90625 
L 55.90625 64.59375 
L 19.671875 64.59375 
L 19.671875 43.015625 
L 54.390625 43.015625 
L 54.390625 34.71875 
L 19.671875 34.71875 
L 19.671875 8.296875 
L 56.78125 8.296875 
L 56.78125 0 
L 9.8125 0 
z
" id="DejaVuSans-69"/>
     </defs>
     <g transform="translate(125.4 63.478125)scale(0.12 -0.12)">
      <use xlink:href="#DejaVuSans-83"/>
      <use x="63.476562" xlink:href="#DejaVuSans-116"/>
      <use x="102.685547" xlink:href="#DejaVuSans-100"/>
      <use x="166.162109" xlink:href="#DejaVuSans-46"/>
      <use x="197.949219" xlink:href="#DejaVuSans-32"/>
      <use x="229.736328" xlink:href="#DejaVuSans-69"/>
      <use x="292.919922" xlink:href="#DejaVuSans-114"/>
      <use x="334.017578" xlink:href="#DejaVuSans-114"/>
      <use x="374.990234" xlink:href="#DejaVuSans-46"/>
     </g>
    </g>
   </g>
  </g>
 </g>
 <defs>
  <clipPath id="p3c4202bca6">
   <rect height="166.32" width="502.2" x="81" y="25.92"/>
  </clipPath>
 </defs>
</svg>
