<?xml version="1.0" encoding="utf-8" standalone="no"?>
<!DOCTYPE svg PUBLIC "-//W3C//DTD SVG 1.1//EN"
  "http://www.w3.org/Graphics/SVG/1.1/DTD/svg11.dtd">
<!-- Created with matplotlib (https://matplotlib.org/) -->
<svg height="216pt" version="1.1" viewBox="0 0 648 216" width="648pt" xmlns="http://www.w3.org/2000/svg" xmlns:xlink="http://www.w3.org/1999/xlink">
 <defs>
  <style type="text/css">
*{stroke-linecap:butt;stroke-linejoin:round;}
  </style>
 </defs>
 <g id="figure_1">
  <g id="patch_1">
   <path d="M 0 216 
L 648 216 
L 648 0 
L 0 0 
z
" style="fill:#ffffff;"/>
  </g>
  <g id="axes_1">
   <g id="patch_2">
    <path d="M 81 192.24 
L 583.2 192.24 
L 583.2 25.92 
L 81 25.92 
z
" style="fill:#ffffff;"/>
   </g>
   <g id="PolyCollection_1">
    <defs>
     <path d="M 142.590566 -23.76 
L 142.590566 -190.08 
L 426.854717 -190.08 
L 426.854717 -23.76 
L 426.854717 -23.76 
L 142.590566 -23.76 
z
" id="m4afda22d28" style="stroke:#808080;stroke-opacity:0.3;"/>
    </defs>
    <g clip-path="url(#pee1b1071af)">
     <use style="fill:#808080;fill-opacity:0.3;stroke:#808080;stroke-opacity:0.3;" x="0" xlink:href="#m4afda22d28" y="216"/>
    </g>
   </g>
   <g id="PolyCollection_2">
    <defs>
     <path d="M 81 -140.977135 
L 81 -87.704087 
L 82.895094 -87.241099 
L 84.790189 -86.002613 
L 86.685283 -81.604752 
L 88.580377 -77.831333 
L 90.475472 -74.124684 
L 92.370566 -71.371871 
L 94.26566 -67.784427 
L 96.160755 -62.462193 
L 98.055849 -58.274562 
L 99.950943 -58.771715 
L 101.846038 -53.991601 
L 103.741132 -49.325505 
L 105.636226 -45.165512 
L 107.531321 -45.068634 
L 109.426415 -40.973328 
L 111.321509 -42.555906 
L 113.216604 -45.075056 
L 115.111698 -46.376537 
L 117.006792 -45.987917 
L 118.901887 -43.926168 
L 120.796981 -43.475586 
L 122.692075 -41.731458 
L 124.58717 -44.069103 
L 126.482264 -42.530809 
L 128.377358 -42.047515 
L 130.272453 -41.035505 
L 132.167547 -44.457659 
L 134.062642 -48.982473 
L 135.957736 -53.477614 
L 137.85283 -56.77035 
L 139.747925 -53.947029 
L 141.643019 -56.99512 
L 143.538113 -57.670344 
L 145.433208 -58.787495 
L 147.328302 -58.270835 
L 149.223396 -61.203336 
L 151.118491 -66.497387 
L 153.013585 -68.64959 
L 154.908679 -70.804464 
L 156.803774 -71.558433 
L 158.698868 -77.106928 
L 160.593962 -80.381837 
L 162.489057 -83.159234 
L 164.384151 -87.33232 
L 166.279245 -90.033963 
L 168.17434 -90.923219 
L 170.069434 -96.433435 
L 171.964528 -98.610933 
L 173.859623 -101.201754 
L 175.754717 -99.747335 
L 177.649811 -99.66411 
L 179.544906 -102.944849 
L 181.44 -104.264892 
L 183.335094 -100.922483 
L 185.230189 -101.752249 
L 187.125283 -98.246281 
L 189.020377 -96.365579 
L 190.915472 -89.548336 
L 192.810566 -92.169534 
L 194.70566 -92.974692 
L 196.600755 -96.072887 
L 198.495849 -96.442136 
L 200.390943 -95.267971 
L 202.286038 -97.225884 
L 204.181132 -94.492892 
L 206.076226 -93.568284 
L 207.971321 -88.7135 
L 209.866415 -84.139399 
L 211.761509 -81.536899 
L 213.656604 -79.254071 
L 215.551698 -77.661883 
L 217.446792 -73.355799 
L 219.341887 -68.292514 
L 221.236981 -68.514845 
L 223.132075 -67.035955 
L 225.02717 -66.898075 
L 226.922264 -63.793409 
L 228.817358 -65.724965 
L 230.712453 -67.340051 
L 232.607547 -64.575967 
L 234.502642 -58.0198 
L 236.397736 -54.844785 
L 238.29283 -53.099336 
L 240.187925 -51.344352 
L 242.083019 -51.206604 
L 243.978113 -50.808908 
L 245.873208 -47.369165 
L 247.768302 -45.499573 
L 249.663396 -43.408568 
L 251.558491 -40.685054 
L 253.453585 -39.380811 
L 255.348679 -36.172257 
L 257.243774 -36.206888 
L 259.138868 -33.499208 
L 261.033962 -35.578446 
L 262.929057 -34.906342 
L 264.824151 -31.808462 
L 266.719245 -36.046521 
L 268.61434 -33.422873 
L 270.509434 -32.750884 
L 272.404528 -34.405556 
L 274.299623 -35.563459 
L 276.194717 -34.932995 
L 278.089811 -34.017364 
L 279.984906 -33.198162 
L 281.88 -33.488024 
L 283.775094 -36.279071 
L 285.670189 -37.25123 
L 287.565283 -33.569476 
L 289.460377 -30.885485 
L 291.355472 -30.786574 
L 293.250566 -28.082854 
L 295.14566 -28.861671 
L 297.040755 -24.410115 
L 298.935849 -23.76 
L 300.830943 -29.437718 
L 302.726038 -32.027091 
L 304.621132 -32.59388 
L 306.516226 -32.411499 
L 308.411321 -34.957476 
L 310.306415 -36.088896 
L 312.201509 -34.549131 
L 314.096604 -37.218774 
L 315.991698 -35.304902 
L 317.886792 -35.925561 
L 319.781887 -31.775825 
L 321.676981 -30.515658 
L 323.572075 -32.428426 
L 325.46717 -33.760302 
L 327.362264 -36.800322 
L 329.257358 -36.571158 
L 331.152453 -38.77533 
L 333.047547 -38.133277 
L 334.942642 -41.911791 
L 336.837736 -40.230999 
L 338.73283 -44.210335 
L 340.627925 -48.950905 
L 342.523019 -46.562069 
L 344.418113 -44.744956 
L 346.313208 -46.4471 
L 348.208302 -44.154827 
L 350.103396 -41.851364 
L 351.998491 -43.085509 
L 353.893585 -44.056997 
L 355.788679 -49.465126 
L 357.683774 -51.12028 
L 359.578868 -53.613348 
L 361.473962 -53.949069 
L 363.369057 -59.060887 
L 365.264151 -63.88622 
L 367.159245 -69.722579 
L 369.05434 -75.699935 
L 370.949434 -77.094018 
L 372.844528 -81.684105 
L 374.739623 -85.306887 
L 376.634717 -81.274418 
L 378.529811 -82.296547 
L 380.424906 -80.900538 
L 382.32 -79.853444 
L 384.215094 -78.658193 
L 386.110189 -77.340505 
L 388.005283 -75.93771 
L 389.900377 -75.721674 
L 391.795472 -78.078666 
L 393.690566 -75.919882 
L 395.58566 -75.592437 
L 397.480755 -76.394682 
L 399.375849 -70.223139 
L 401.270943 -66.974103 
L 403.166038 -68.362812 
L 405.061132 -66.855977 
L 406.956226 -68.994566 
L 408.851321 -72.789816 
L 410.746415 -75.120131 
L 412.641509 -77.685764 
L 414.536604 -75.337901 
L 416.431698 -74.702053 
L 418.326792 -74.596233 
L 420.221887 -74.614502 
L 422.116981 -73.650858 
L 424.012075 -73.581908 
L 425.90717 -75.155044 
L 427.802264 -71.752154 
L 429.697358 -71.095761 
L 431.592453 -64.241921 
L 433.487547 -59.62374 
L 435.382642 -56.096551 
L 437.277736 -55.600842 
L 439.17283 -55.084352 
L 441.067925 -52.505078 
L 442.963019 -49.136345 
L 444.858113 -46.988638 
L 446.753208 -49.113938 
L 448.648302 -49.1359 
L 450.543396 -48.721334 
L 452.438491 -47.243987 
L 454.333585 -43.580492 
L 456.228679 -41.933665 
L 458.123774 -41.684276 
L 460.018868 -42.501014 
L 461.913962 -42.539137 
L 463.809057 -47.429755 
L 465.704151 -46.724022 
L 467.599245 -47.04902 
L 469.49434 -50.846974 
L 471.389434 -55.44899 
L 473.284528 -60.272213 
L 475.179623 -69.919082 
L 477.074717 -77.561464 
L 478.969811 -81.025511 
L 480.864906 -86.398294 
L 482.76 -86.664481 
L 484.655094 -85.927591 
L 486.550189 -81.651936 
L 488.445283 -78.727583 
L 490.340377 -78.875644 
L 492.235472 -76.943406 
L 494.130566 -78.962115 
L 496.02566 -78.778039 
L 497.920755 -79.694648 
L 499.815849 -77.193154 
L 501.710943 -74.345456 
L 503.606038 -76.310342 
L 505.501132 -74.830303 
L 507.396226 -81.479807 
L 509.291321 -83.330102 
L 511.186415 -85.425335 
L 513.081509 -87.950096 
L 514.976604 -89.271128 
L 516.871698 -92.168054 
L 518.766792 -94.755373 
L 520.661887 -96.562536 
L 522.556981 -97.566255 
L 524.452075 -98.336071 
L 526.34717 -98.875435 
L 528.242264 -101.344474 
L 530.137358 -102.900211 
L 532.032453 -103.428897 
L 533.927547 -105.180291 
L 535.822642 -105.367979 
L 537.717736 -110.79148 
L 539.61283 -108.369057 
L 541.507925 -110.983256 
L 543.403019 -112.869746 
L 545.298113 -111.779371 
L 547.193208 -110.815512 
L 549.088302 -109.23862 
L 550.983396 -105.01622 
L 552.878491 -103.882639 
L 554.773585 -105.088478 
L 556.668679 -103.23361 
L 558.563774 -102.893738 
L 560.458868 -101.508793 
L 562.353962 -103.141377 
L 564.249057 -103.411812 
L 566.144151 -105.260955 
L 568.039245 -109.894694 
L 569.93434 -113.082764 
L 571.829434 -115.714318 
L 573.724528 -117.832742 
L 575.619623 -118.450679 
L 577.514717 -121.134353 
L 579.409811 -123.935667 
L 581.304906 -129.461206 
L 583.2 -127.110023 
L 583.2 -188.020504 
L 583.2 -188.020504 
L 581.304906 -190.08 
L 579.409811 -183.49622 
L 577.514717 -179.721613 
L 575.619623 -177.192666 
L 573.724528 -176.206721 
L 571.829434 -173.994659 
L 569.93434 -170.852234 
L 568.039245 -167.464383 
L 566.144151 -162.314434 
L 564.249057 -160.234064 
L 562.353962 -159.622363 
L 560.458868 -157.966986 
L 558.563774 -158.667089 
L 556.668679 -158.647994 
L 554.773585 -159.76031 
L 552.878491 -159.041489 
L 550.983396 -160.554315 
L 549.088302 -164.992885 
L 547.193208 -166.383177 
L 545.298113 -166.862813 
L 543.403019 -167.93768 
L 541.507925 -165.814462 
L 539.61283 -163.216041 
L 537.717736 -165.444879 
L 535.822642 -159.160032 
L 533.927547 -159.026944 
L 532.032453 -156.76863 
L 530.137358 -156.014209 
L 528.242264 -154.602762 
L 526.34717 -152.260152 
L 524.452075 -152.799515 
L 522.556981 -152.607002 
L 520.661887 -151.846449 
L 518.766792 -150.205263 
L 516.871698 -147.820545 
L 514.976604 -144.863297 
L 513.081509 -143.297338 
L 511.186415 -140.529285 
L 509.291321 -138.053451 
L 507.396226 -135.573262 
L 505.501132 -127.707622 
L 503.606038 -128.232438 
L 501.710943 -126.187615 
L 499.815849 -128.552538 
L 497.920755 -130.140946 
L 496.02566 -128.330954 
L 494.130566 -128.628042 
L 492.235472 -127.358791 
L 490.340377 -129.837231 
L 488.445283 -130.386263 
L 486.550189 -133.23589 
L 484.655094 -137.220233 
L 482.76 -137.606062 
L 480.864906 -137.471278 
L 478.969811 -131.616879 
L 477.074717 -127.943645 
L 475.179623 -119.867971 
L 473.284528 -110.027659 
L 471.389434 -105.708749 
L 469.49434 -101.248825 
L 467.599245 -97.508527 
L 465.704151 -97.512748 
L 463.809057 -98.811869 
L 461.913962 -94.800936 
L 460.018868 -95.159836 
L 458.123774 -94.613273 
L 456.228679 -95.486601 
L 454.333585 -97.207929 
L 452.438491 -100.60152 
L 450.543396 -102.492328 
L 448.648302 -102.639121 
L 446.753208 -102.741278 
L 444.858113 -100.536093 
L 442.963019 -103.039647 
L 441.067925 -106.728001 
L 439.17283 -109.281152 
L 437.277736 -109.646798 
L 435.382642 -110.995555 
L 433.487547 -115.006618 
L 431.592453 -119.851347 
L 429.697358 -127.191874 
L 427.802264 -128.46014 
L 425.90717 -131.713366 
L 424.012075 -129.918347 
L 422.116981 -129.929592 
L 420.221887 -130.810413 
L 418.326792 -130.427711 
L 416.431698 -130.48228 
L 414.536604 -131.049344 
L 412.641509 -132.951772 
L 410.746415 -130.304784 
L 408.851321 -128.144226 
L 406.956226 -123.92006 
L 405.061132 -121.246999 
L 403.166038 -122.947931 
L 401.270943 -121.850621 
L 399.375849 -124.856729 
L 397.480755 -130.71431 
L 395.58566 -129.912672 
L 393.690566 -130.387169 
L 391.795472 -132.157899 
L 389.900377 -129.783435 
L 388.005283 -129.888176 
L 386.110189 -131.933729 
L 384.215094 -134.06439 
L 382.32 -136.1571 
L 380.424906 -138.63855 
L 378.529811 -140.931472 
L 376.634717 -140.750688 
L 374.739623 -145.2188 
L 372.844528 -141.383526 
L 370.949434 -136.671089 
L 369.05434 -135.017795 
L 367.159245 -128.64525 
L 365.264151 -122.773262 
L 363.369057 -117.814907 
L 361.473962 -112.581678 
L 359.578868 -112.035263 
L 357.683774 -109.235517 
L 355.788679 -107.121545 
L 353.893585 -101.382685 
L 351.998491 -100.429514 
L 350.103396 -98.536086 
L 348.208302 -100.162138 
L 346.313208 -102.280544 
L 344.418113 -100.37395 
L 342.523019 -102.08538 
L 340.627925 -104.187417 
L 338.73283 -99.224494 
L 336.837736 -94.54286 
L 334.942642 -96.390612 
L 333.047547 -92.630874 
L 331.152453 -93.11154 
L 329.257358 -90.504062 
L 327.362264 -90.836258 
L 325.46717 -87.220162 
L 323.572075 -85.90563 
L 321.676981 -83.568108 
L 319.781887 -84.392989 
L 317.886792 -87.70131 
L 315.991698 -87.439834 
L 314.096604 -89.054504 
L 312.201509 -85.789779 
L 310.306415 -86.976616 
L 308.411321 -85.782405 
L 306.516226 -83.356344 
L 304.621132 -83.815517 
L 302.726038 -83.820947 
L 300.830943 -81.277893 
L 298.935849 -76.369982 
L 297.040755 -77.564333 
L 295.14566 -82.094522 
L 293.250566 -81.510039 
L 291.355472 -84.099134 
L 289.460377 -84.401193 
L 287.565283 -87.65157 
L 285.670189 -91.828844 
L 283.775094 -91.116926 
L 281.88 -87.733022 
L 279.984906 -87.94269 
L 278.089811 -88.246206 
L 276.194717 -89.014653 
L 274.299623 -89.105936 
L 272.404528 -88.178791 
L 270.509434 -86.30492 
L 268.61434 -86.996232 
L 266.719245 -89.585204 
L 264.824151 -85.162294 
L 262.929057 -88.399753 
L 261.033962 -89.49192 
L 259.138868 -87.481256 
L 257.243774 -90.868332 
L 255.348679 -92.18607 
L 253.453585 -96.676155 
L 251.558491 -98.178708 
L 249.663396 -101.309368 
L 247.768302 -103.067682 
L 245.873208 -104.806828 
L 243.978113 -108.343976 
L 242.083019 -108.587834 
L 240.187925 -108.851057 
L 238.29283 -111.025586 
L 236.397736 -113.37004 
L 234.502642 -117.011528 
L 232.607547 -123.527009 
L 230.712453 -126.617099 
L 228.817358 -125.104612 
L 226.922264 -123.58782 
L 225.02717 -126.898687 
L 223.132075 -127.482554 
L 221.236981 -129.21143 
L 219.341887 -129.193179 
L 217.446792 -134.154165 
L 215.551698 -138.268467 
L 213.656604 -139.162298 
L 211.761509 -141.370343 
L 209.866415 -143.900269 
L 207.971321 -149.19005 
L 206.076226 -154.43973 
L 204.181132 -155.600171 
L 202.286038 -158.560964 
L 200.390943 -156.749751 
L 198.495849 -157.660635 
L 196.600755 -156.345806 
L 194.70566 -152.948274 
L 192.810566 -151.828772 
L 190.915472 -148.515602 
L 189.020377 -155.01059 
L 187.125283 -156.979208 
L 185.230189 -159.728384 
L 183.335094 -158.63349 
L 181.44 -161.466032 
L 179.544906 -159.81889 
L 177.649811 -156.042544 
L 175.754717 -155.638542 
L 173.859623 -156.670142 
L 171.964528 -153.647372 
L 170.069434 -151.093415 
L 168.17434 -145.697225 
L 166.279245 -144.421238 
L 164.384151 -141.589484 
L 162.489057 -137.021406 
L 160.593962 -133.94463 
L 158.698868 -130.643618 
L 156.803774 -125.365901 
L 154.908679 -124.355599 
L 153.013585 -121.939406 
L 151.118491 -119.680929 
L 149.223396 -113.667604 
L 147.328302 -110.425155 
L 145.433208 -110.951019 
L 143.538113 -108.61982 
L 141.643019 -108.252521 
L 139.747925 -104.484108 
L 137.85283 -107.194184 
L 135.957736 -103.590222 
L 134.062642 -99.023422 
L 132.167547 -94.486296 
L 130.272453 -90.530588 
L 128.377358 -91.764014 
L 126.482264 -92.724215 
L 124.58717 -94.794658 
L 122.692075 -93.443372 
L 120.796981 -96.190117 
L 118.901887 -97.183031 
L 117.006792 -99.291378 
L 115.111698 -100.266058 
L 113.216604 -99.08152 
L 111.321509 -96.067273 
L 109.426415 -94.281696 
L 107.531321 -98.286001 
L 105.636226 -98.91087 
L 103.741132 -102.770293 
L 101.846038 -107.647302 
L 99.950943 -111.688546 
L 98.055849 -111.06298 
L 96.160755 -115.937289 
L 94.26566 -121.361073 
L 92.370566 -124.590133 
L 90.475472 -127.130135 
L 88.580377 -131.362707 
L 86.685283 -135.047345 
L 84.790189 -139.952007 
L 82.895094 -140.477792 
L 81 -140.977135 
z
" id="m253a6b450f" style="stroke:#0000ff;stroke-opacity:0.3;"/>
    </defs>
    <g clip-path="url(#pee1b1071af)">
     <use style="fill:#0000ff;fill-opacity:0.3;stroke:#0000ff;stroke-opacity:0.3;" x="0" xlink:href="#m253a6b450f" y="216"/>
    </g>
   </g>
   <g id="matplotlib.axis_1">
    <g id="xtick_1">
     <g id="line2d_1">
      <defs>
       <path d="M 0 0 
L 0 3.5 
" id="m9aaea89624" style="stroke:#000000;stroke-width:0.8;"/>
      </defs>
      <g>
       <use style="stroke:#000000;stroke-width:0.8;" x="142.590566" xlink:href="#m9aaea89624" y="192.24"/>
      </g>
     </g>
     <g id="text_1">
      <!-- 0.0 -->
      <defs>
       <path d="M 31.78125 66.40625 
Q 24.171875 66.40625 20.328125 58.90625 
Q 16.5 51.421875 16.5 36.375 
Q 16.5 21.390625 20.328125 13.890625 
Q 24.171875 6.390625 31.78125 6.390625 
Q 39.453125 6.390625 43.28125 13.890625 
Q 47.125 21.390625 47.125 36.375 
Q 47.125 51.421875 43.28125 58.90625 
Q 39.453125 66.40625 31.78125 66.40625 
z
M 31.78125 74.21875 
Q 44.046875 74.21875 50.515625 64.515625 
Q 56.984375 54.828125 56.984375 36.375 
Q 56.984375 17.96875 50.515625 8.265625 
Q 44.046875 -1.421875 31.78125 -1.421875 
Q 19.53125 -1.421875 13.0625 8.265625 
Q 6.59375 17.96875 6.59375 36.375 
Q 6.59375 54.828125 13.0625 64.515625 
Q 19.53125 74.21875 31.78125 74.21875 
z
" id="DejaVuSans-48"/>
       <path d="M 10.6875 12.40625 
L 21 12.40625 
L 21 0 
L 10.6875 0 
z
" id="DejaVuSans-46"/>
      </defs>
      <g transform="translate(133.048691 208.358125)scale(0.12 -0.12)">
       <use xlink:href="#DejaVuSans-48"/>
       <use x="63.623047" xlink:href="#DejaVuSans-46"/>
       <use x="95.410156" xlink:href="#DejaVuSans-48"/>
      </g>
     </g>
    </g>
    <g id="xtick_2">
     <g id="line2d_2">
      <g>
       <use style="stroke:#000000;stroke-width:0.8;" x="237.345283" xlink:href="#m9aaea89624" y="192.24"/>
      </g>
     </g>
     <g id="text_2">
      <!-- 0.5 -->
      <defs>
       <path d="M 10.796875 72.90625 
L 49.515625 72.90625 
L 49.515625 64.59375 
L 19.828125 64.59375 
L 19.828125 46.734375 
Q 21.96875 47.46875 24.109375 47.828125 
Q 26.265625 48.1875 28.421875 48.1875 
Q 40.625 48.1875 47.75 41.5 
Q 54.890625 34.8125 54.890625 23.390625 
Q 54.890625 11.625 47.5625 5.09375 
Q 40.234375 -1.421875 26.90625 -1.421875 
Q 22.3125 -1.421875 17.546875 -0.640625 
Q 12.796875 0.140625 7.71875 1.703125 
L 7.71875 11.625 
Q 12.109375 9.234375 16.796875 8.0625 
Q 21.484375 6.890625 26.703125 6.890625 
Q 35.15625 6.890625 40.078125 11.328125 
Q 45.015625 15.765625 45.015625 23.390625 
Q 45.015625 31 40.078125 35.4375 
Q 35.15625 39.890625 26.703125 39.890625 
Q 22.75 39.890625 18.8125 39.015625 
Q 14.890625 38.140625 10.796875 36.28125 
z
" id="DejaVuSans-53"/>
      </defs>
      <g transform="translate(227.803408 208.358125)scale(0.12 -0.12)">
       <use xlink:href="#DejaVuSans-48"/>
       <use x="63.623047" xlink:href="#DejaVuSans-46"/>
       <use x="95.410156" xlink:href="#DejaVuSans-53"/>
      </g>
     </g>
    </g>
    <g id="xtick_3">
     <g id="line2d_3">
      <g>
       <use style="stroke:#000000;stroke-width:0.8;" x="332.1" xlink:href="#m9aaea89624" y="192.24"/>
      </g>
     </g>
     <g id="text_3">
      <!-- 1.0 -->
      <defs>
       <path d="M 12.40625 8.296875 
L 28.515625 8.296875 
L 28.515625 63.921875 
L 10.984375 60.40625 
L 10.984375 69.390625 
L 28.421875 72.90625 
L 38.28125 72.90625 
L 38.28125 8.296875 
L 54.390625 8.296875 
L 54.390625 0 
L 12.40625 0 
z
" id="DejaVuSans-49"/>
      </defs>
      <g transform="translate(322.558125 208.358125)scale(0.12 -0.12)">
       <use xlink:href="#DejaVuSans-49"/>
       <use x="63.623047" xlink:href="#DejaVuSans-46"/>
       <use x="95.410156" xlink:href="#DejaVuSans-48"/>
      </g>
     </g>
    </g>
    <g id="xtick_4">
     <g id="line2d_4">
      <g>
       <use style="stroke:#000000;stroke-width:0.8;" x="426.854717" xlink:href="#m9aaea89624" y="192.24"/>
      </g>
     </g>
     <g id="text_4">
      <!-- 1.5 -->
      <g transform="translate(417.312842 208.358125)scale(0.12 -0.12)">
       <use xlink:href="#DejaVuSans-49"/>
       <use x="63.623047" xlink:href="#DejaVuSans-46"/>
       <use x="95.410156" xlink:href="#DejaVuSans-53"/>
      </g>
     </g>
    </g>
    <g id="xtick_5">
     <g id="line2d_5">
      <g>
       <use style="stroke:#000000;stroke-width:0.8;" x="521.609434" xlink:href="#m9aaea89624" y="192.24"/>
      </g>
     </g>
     <g id="text_5">
      <!-- 2.0 -->
      <defs>
       <path d="M 19.1875 8.296875 
L 53.609375 8.296875 
L 53.609375 0 
L 7.328125 0 
L 7.328125 8.296875 
Q 12.9375 14.109375 22.625 23.890625 
Q 32.328125 33.6875 34.8125 36.53125 
Q 39.546875 41.84375 41.421875 45.53125 
Q 43.3125 49.21875 43.3125 52.78125 
Q 43.3125 58.59375 39.234375 62.25 
Q 35.15625 65.921875 28.609375 65.921875 
Q 23.96875 65.921875 18.8125 64.3125 
Q 13.671875 62.703125 7.8125 59.421875 
L 7.8125 69.390625 
Q 13.765625 71.78125 18.9375 73 
Q 24.125 74.21875 28.421875 74.21875 
Q 39.75 74.21875 46.484375 68.546875 
Q 53.21875 62.890625 53.21875 53.421875 
Q 53.21875 48.921875 51.53125 44.890625 
Q 49.859375 40.875 45.40625 35.40625 
Q 44.1875 33.984375 37.640625 27.21875 
Q 31.109375 20.453125 19.1875 8.296875 
z
" id="DejaVuSans-50"/>
      </defs>
      <g transform="translate(512.067559 208.358125)scale(0.12 -0.12)">
       <use xlink:href="#DejaVuSans-50"/>
       <use x="63.623047" xlink:href="#DejaVuSans-46"/>
       <use x="95.410156" xlink:href="#DejaVuSans-48"/>
      </g>
     </g>
    </g>
    <g id="text_6">
     <!-- Time (s) -->
     <defs>
      <path d="M -0.296875 72.90625 
L 61.375 72.90625 
L 61.375 64.59375 
L 35.5 64.59375 
L 35.5 0 
L 25.59375 0 
L 25.59375 64.59375 
L -0.296875 64.59375 
z
" id="DejaVuSans-84"/>
      <path d="M 9.421875 54.6875 
L 18.40625 54.6875 
L 18.40625 0 
L 9.421875 0 
z
M 9.421875 75.984375 
L 18.40625 75.984375 
L 18.40625 64.59375 
L 9.421875 64.59375 
z
" id="DejaVuSans-105"/>
      <path d="M 52 44.1875 
Q 55.375 50.25 60.0625 53.125 
Q 64.75 56 71.09375 56 
Q 79.640625 56 84.28125 50.015625 
Q 88.921875 44.046875 88.921875 33.015625 
L 88.921875 0 
L 79.890625 0 
L 79.890625 32.71875 
Q 79.890625 40.578125 77.09375 44.375 
Q 74.3125 48.1875 68.609375 48.1875 
Q 61.625 48.1875 57.5625 43.546875 
Q 53.515625 38.921875 53.515625 30.90625 
L 53.515625 0 
L 44.484375 0 
L 44.484375 32.71875 
Q 44.484375 40.625 41.703125 44.40625 
Q 38.921875 48.1875 33.109375 48.1875 
Q 26.21875 48.1875 22.15625 43.53125 
Q 18.109375 38.875 18.109375 30.90625 
L 18.109375 0 
L 9.078125 0 
L 9.078125 54.6875 
L 18.109375 54.6875 
L 18.109375 46.1875 
Q 21.1875 51.21875 25.484375 53.609375 
Q 29.78125 56 35.6875 56 
Q 41.65625 56 45.828125 52.96875 
Q 50 49.953125 52 44.1875 
z
" id="DejaVuSans-109"/>
      <path d="M 56.203125 29.59375 
L 56.203125 25.203125 
L 14.890625 25.203125 
Q 15.484375 15.921875 20.484375 11.0625 
Q 25.484375 6.203125 34.421875 6.203125 
Q 39.59375 6.203125 44.453125 7.46875 
Q 49.3125 8.734375 54.109375 11.28125 
L 54.109375 2.78125 
Q 49.265625 0.734375 44.1875 -0.34375 
Q 39.109375 -1.421875 33.890625 -1.421875 
Q 20.796875 -1.421875 13.15625 6.1875 
Q 5.515625 13.8125 5.515625 26.8125 
Q 5.515625 40.234375 12.765625 48.109375 
Q 20.015625 56 32.328125 56 
Q 43.359375 56 49.78125 48.890625 
Q 56.203125 41.796875 56.203125 29.59375 
z
M 47.21875 32.234375 
Q 47.125 39.59375 43.09375 43.984375 
Q 39.0625 48.390625 32.421875 48.390625 
Q 24.90625 48.390625 20.390625 44.140625 
Q 15.875 39.890625 15.1875 32.171875 
z
" id="DejaVuSans-101"/>
      <path id="DejaVuSans-32"/>
      <path d="M 31 75.875 
Q 24.46875 64.65625 21.28125 53.65625 
Q 18.109375 42.671875 18.109375 31.390625 
Q 18.109375 20.125 21.3125 9.0625 
Q 24.515625 -2 31 -13.1875 
L 23.1875 -13.1875 
Q 15.875 -1.703125 12.234375 9.375 
Q 8.59375 20.453125 8.59375 31.390625 
Q 8.59375 42.28125 12.203125 53.3125 
Q 15.828125 64.359375 23.1875 75.875 
z
" id="DejaVuSans-40"/>
      <path d="M 44.28125 53.078125 
L 44.28125 44.578125 
Q 40.484375 46.53125 36.375 47.5 
Q 32.28125 48.484375 27.875 48.484375 
Q 21.1875 48.484375 17.84375 46.4375 
Q 14.5 44.390625 14.5 40.28125 
Q 14.5 37.15625 16.890625 35.375 
Q 19.28125 33.59375 26.515625 31.984375 
L 29.59375 31.296875 
Q 39.15625 29.25 43.1875 25.515625 
Q 47.21875 21.78125 47.21875 15.09375 
Q 47.21875 7.46875 41.1875 3.015625 
Q 35.15625 -1.421875 24.609375 -1.421875 
Q 20.21875 -1.421875 15.453125 -0.5625 
Q 10.6875 0.296875 5.421875 2 
L 5.421875 11.28125 
Q 10.40625 8.6875 15.234375 7.390625 
Q 20.0625 6.109375 24.8125 6.109375 
Q 31.15625 6.109375 34.5625 8.28125 
Q 37.984375 10.453125 37.984375 14.40625 
Q 37.984375 18.0625 35.515625 20.015625 
Q 33.0625 21.96875 24.703125 23.78125 
L 21.578125 24.515625 
Q 13.234375 26.265625 9.515625 29.90625 
Q 5.8125 33.546875 5.8125 39.890625 
Q 5.8125 47.609375 11.28125 51.796875 
Q 16.75 56 26.8125 56 
Q 31.78125 56 36.171875 55.265625 
Q 40.578125 54.546875 44.28125 53.078125 
z
" id="DejaVuSans-115"/>
      <path d="M 8.015625 75.875 
L 15.828125 75.875 
Q 23.140625 64.359375 26.78125 53.3125 
Q 30.421875 42.28125 30.421875 31.390625 
Q 30.421875 20.453125 26.78125 9.375 
Q 23.140625 -1.703125 15.828125 -13.1875 
L 8.015625 -13.1875 
Q 14.5 -2 17.703125 9.0625 
Q 20.90625 20.125 20.90625 31.390625 
Q 20.90625 42.671875 17.703125 53.65625 
Q 14.5 64.65625 8.015625 75.875 
z
" id="DejaVuSans-41"/>
     </defs>
     <g transform="translate(302.60475 225.7955)scale(0.144 -0.144)">
      <use xlink:href="#DejaVuSans-84"/>
      <use x="61.037109" xlink:href="#DejaVuSans-105"/>
      <use x="88.820312" xlink:href="#DejaVuSans-109"/>
      <use x="186.232422" xlink:href="#DejaVuSans-101"/>
      <use x="247.755859" xlink:href="#DejaVuSans-32"/>
      <use x="279.542969" xlink:href="#DejaVuSans-40"/>
      <use x="318.556641" xlink:href="#DejaVuSans-115"/>
      <use x="370.65625" xlink:href="#DejaVuSans-41"/>
     </g>
    </g>
   </g>
   <g id="matplotlib.axis_2">
    <g id="ytick_1">
     <g id="line2d_6">
      <defs>
       <path d="M 0 0 
L -3.5 0 
" id="m15552fbd7c" style="stroke:#000000;stroke-width:0.8;"/>
      </defs>
      <g>
       <use style="stroke:#000000;stroke-width:0.8;" x="81" xlink:href="#m15552fbd7c" y="183.393278"/>
      </g>
     </g>
     <g id="text_7">
      <!-- 0.0190 -->
      <defs>
       <path d="M 10.984375 1.515625 
L 10.984375 10.5 
Q 14.703125 8.734375 18.5 7.8125 
Q 22.3125 6.890625 25.984375 6.890625 
Q 35.75 6.890625 40.890625 13.453125 
Q 46.046875 20.015625 46.78125 33.40625 
Q 43.953125 29.203125 39.59375 26.953125 
Q 35.25 24.703125 29.984375 24.703125 
Q 19.046875 24.703125 12.671875 31.3125 
Q 6.296875 37.9375 6.296875 49.421875 
Q 6.296875 60.640625 12.9375 67.421875 
Q 19.578125 74.21875 30.609375 74.21875 
Q 43.265625 74.21875 49.921875 64.515625 
Q 56.59375 54.828125 56.59375 36.375 
Q 56.59375 19.140625 48.40625 8.859375 
Q 40.234375 -1.421875 26.421875 -1.421875 
Q 22.703125 -1.421875 18.890625 -0.6875 
Q 15.09375 0.046875 10.984375 1.515625 
z
M 30.609375 32.421875 
Q 37.25 32.421875 41.125 36.953125 
Q 45.015625 41.5 45.015625 49.421875 
Q 45.015625 57.28125 41.125 61.84375 
Q 37.25 66.40625 30.609375 66.40625 
Q 23.96875 66.40625 20.09375 61.84375 
Q 16.21875 57.28125 16.21875 49.421875 
Q 16.21875 41.5 20.09375 36.953125 
Q 23.96875 32.421875 30.609375 32.421875 
z
" id="DejaVuSans-57"/>
      </defs>
      <g transform="translate(32.01125 187.95234)scale(0.12 -0.12)">
       <use xlink:href="#DejaVuSans-48"/>
       <use x="63.623047" xlink:href="#DejaVuSans-46"/>
       <use x="95.410156" xlink:href="#DejaVuSans-48"/>
       <use x="159.033203" xlink:href="#DejaVuSans-49"/>
       <use x="222.65625" xlink:href="#DejaVuSans-57"/>
       <use x="286.279297" xlink:href="#DejaVuSans-48"/>
      </g>
     </g>
    </g>
    <g id="ytick_2">
     <g id="line2d_7">
      <g>
       <use style="stroke:#000000;stroke-width:0.8;" x="81" xlink:href="#m15552fbd7c" y="159.21955"/>
      </g>
     </g>
     <g id="text_8">
      <!-- 0.0192 -->
      <g transform="translate(32.01125 163.778612)scale(0.12 -0.12)">
       <use xlink:href="#DejaVuSans-48"/>
       <use x="63.623047" xlink:href="#DejaVuSans-46"/>
       <use x="95.410156" xlink:href="#DejaVuSans-48"/>
       <use x="159.033203" xlink:href="#DejaVuSans-49"/>
       <use x="222.65625" xlink:href="#DejaVuSans-57"/>
       <use x="286.279297" xlink:href="#DejaVuSans-50"/>
      </g>
     </g>
    </g>
    <g id="ytick_3">
     <g id="line2d_8">
      <g>
       <use style="stroke:#000000;stroke-width:0.8;" x="81" xlink:href="#m15552fbd7c" y="135.045822"/>
      </g>
     </g>
     <g id="text_9">
      <!-- 0.0194 -->
      <defs>
       <path d="M 37.796875 64.3125 
L 12.890625 25.390625 
L 37.796875 25.390625 
z
M 35.203125 72.90625 
L 47.609375 72.90625 
L 47.609375 25.390625 
L 58.015625 25.390625 
L 58.015625 17.1875 
L 47.609375 17.1875 
L 47.609375 0 
L 37.796875 0 
L 37.796875 17.1875 
L 4.890625 17.1875 
L 4.890625 26.703125 
z
" id="DejaVuSans-52"/>
      </defs>
      <g transform="translate(32.01125 139.604885)scale(0.12 -0.12)">
       <use xlink:href="#DejaVuSans-48"/>
       <use x="63.623047" xlink:href="#DejaVuSans-46"/>
       <use x="95.410156" xlink:href="#DejaVuSans-48"/>
       <use x="159.033203" xlink:href="#DejaVuSans-49"/>
       <use x="222.65625" xlink:href="#DejaVuSans-57"/>
       <use x="286.279297" xlink:href="#DejaVuSans-52"/>
      </g>
     </g>
    </g>
    <g id="ytick_4">
     <g id="line2d_9">
      <g>
       <use style="stroke:#000000;stroke-width:0.8;" x="81" xlink:href="#m15552fbd7c" y="110.872094"/>
      </g>
     </g>
     <g id="text_10">
      <!-- 0.0196 -->
      <defs>
       <path d="M 33.015625 40.375 
Q 26.375 40.375 22.484375 35.828125 
Q 18.609375 31.296875 18.609375 23.390625 
Q 18.609375 15.53125 22.484375 10.953125 
Q 26.375 6.390625 33.015625 6.390625 
Q 39.65625 6.390625 43.53125 10.953125 
Q 47.40625 15.53125 47.40625 23.390625 
Q 47.40625 31.296875 43.53125 35.828125 
Q 39.65625 40.375 33.015625 40.375 
z
M 52.59375 71.296875 
L 52.59375 62.3125 
Q 48.875 64.0625 45.09375 64.984375 
Q 41.3125 65.921875 37.59375 65.921875 
Q 27.828125 65.921875 22.671875 59.328125 
Q 17.53125 52.734375 16.796875 39.40625 
Q 19.671875 43.65625 24.015625 45.921875 
Q 28.375 48.1875 33.59375 48.1875 
Q 44.578125 48.1875 50.953125 41.515625 
Q 57.328125 34.859375 57.328125 23.390625 
Q 57.328125 12.15625 50.6875 5.359375 
Q 44.046875 -1.421875 33.015625 -1.421875 
Q 20.359375 -1.421875 13.671875 8.265625 
Q 6.984375 17.96875 6.984375 36.375 
Q 6.984375 53.65625 15.1875 63.9375 
Q 23.390625 74.21875 37.203125 74.21875 
Q 40.921875 74.21875 44.703125 73.484375 
Q 48.484375 72.75 52.59375 71.296875 
z
" id="DejaVuSans-54"/>
      </defs>
      <g transform="translate(32.01125 115.431157)scale(0.12 -0.12)">
       <use xlink:href="#DejaVuSans-48"/>
       <use x="63.623047" xlink:href="#DejaVuSans-46"/>
       <use x="95.410156" xlink:href="#DejaVuSans-48"/>
       <use x="159.033203" xlink:href="#DejaVuSans-49"/>
       <use x="222.65625" xlink:href="#DejaVuSans-57"/>
       <use x="286.279297" xlink:href="#DejaVuSans-54"/>
      </g>
     </g>
    </g>
    <g id="ytick_5">
     <g id="line2d_10">
      <g>
       <use style="stroke:#000000;stroke-width:0.8;" x="81" xlink:href="#m15552fbd7c" y="86.698367"/>
      </g>
     </g>
     <g id="text_11">
      <!-- 0.0198 -->
      <defs>
       <path d="M 31.78125 34.625 
Q 24.75 34.625 20.71875 30.859375 
Q 16.703125 27.09375 16.703125 20.515625 
Q 16.703125 13.921875 20.71875 10.15625 
Q 24.75 6.390625 31.78125 6.390625 
Q 38.8125 6.390625 42.859375 10.171875 
Q 46.921875 13.96875 46.921875 20.515625 
Q 46.921875 27.09375 42.890625 30.859375 
Q 38.875 34.625 31.78125 34.625 
z
M 21.921875 38.8125 
Q 15.578125 40.375 12.03125 44.71875 
Q 8.5 49.078125 8.5 55.328125 
Q 8.5 64.0625 14.71875 69.140625 
Q 20.953125 74.21875 31.78125 74.21875 
Q 42.671875 74.21875 48.875 69.140625 
Q 55.078125 64.0625 55.078125 55.328125 
Q 55.078125 49.078125 51.53125 44.71875 
Q 48 40.375 41.703125 38.8125 
Q 48.828125 37.15625 52.796875 32.3125 
Q 56.78125 27.484375 56.78125 20.515625 
Q 56.78125 9.90625 50.3125 4.234375 
Q 43.84375 -1.421875 31.78125 -1.421875 
Q 19.734375 -1.421875 13.25 4.234375 
Q 6.78125 9.90625 6.78125 20.515625 
Q 6.78125 27.484375 10.78125 32.3125 
Q 14.796875 37.15625 21.921875 38.8125 
z
M 18.3125 54.390625 
Q 18.3125 48.734375 21.84375 45.5625 
Q 25.390625 42.390625 31.78125 42.390625 
Q 38.140625 42.390625 41.71875 45.5625 
Q 45.3125 48.734375 45.3125 54.390625 
Q 45.3125 60.0625 41.71875 63.234375 
Q 38.140625 66.40625 31.78125 66.40625 
Q 25.390625 66.40625 21.84375 63.234375 
Q 18.3125 60.0625 18.3125 54.390625 
z
" id="DejaVuSans-56"/>
      </defs>
      <g transform="translate(32.01125 91.257429)scale(0.12 -0.12)">
       <use xlink:href="#DejaVuSans-48"/>
       <use x="63.623047" xlink:href="#DejaVuSans-46"/>
       <use x="95.410156" xlink:href="#DejaVuSans-48"/>
       <use x="159.033203" xlink:href="#DejaVuSans-49"/>
       <use x="222.65625" xlink:href="#DejaVuSans-57"/>
       <use x="286.279297" xlink:href="#DejaVuSans-56"/>
      </g>
     </g>
    </g>
    <g id="ytick_6">
     <g id="line2d_11">
      <g>
       <use style="stroke:#000000;stroke-width:0.8;" x="81" xlink:href="#m15552fbd7c" y="62.524639"/>
      </g>
     </g>
     <g id="text_12">
      <!-- 0.0200 -->
      <g transform="translate(32.01125 67.083701)scale(0.12 -0.12)">
       <use xlink:href="#DejaVuSans-48"/>
       <use x="63.623047" xlink:href="#DejaVuSans-46"/>
       <use x="95.410156" xlink:href="#DejaVuSans-48"/>
       <use x="159.033203" xlink:href="#DejaVuSans-50"/>
       <use x="222.65625" xlink:href="#DejaVuSans-48"/>
       <use x="286.279297" xlink:href="#DejaVuSans-48"/>
      </g>
     </g>
    </g>
    <g id="ytick_7">
     <g id="line2d_12">
      <g>
       <use style="stroke:#000000;stroke-width:0.8;" x="81" xlink:href="#m15552fbd7c" y="38.350911"/>
      </g>
     </g>
     <g id="text_13">
      <!-- 0.0202 -->
      <g transform="translate(32.01125 42.909974)scale(0.12 -0.12)">
       <use xlink:href="#DejaVuSans-48"/>
       <use x="63.623047" xlink:href="#DejaVuSans-46"/>
       <use x="95.410156" xlink:href="#DejaVuSans-48"/>
       <use x="159.033203" xlink:href="#DejaVuSans-50"/>
       <use x="222.65625" xlink:href="#DejaVuSans-48"/>
       <use x="286.279297" xlink:href="#DejaVuSans-50"/>
      </g>
     </g>
    </g>
    <g id="text_14">
     <!-- Bin. $p$ -->
     <defs>
      <path d="M 19.671875 34.8125 
L 19.671875 8.109375 
L 35.5 8.109375 
Q 43.453125 8.109375 47.28125 11.40625 
Q 51.125 14.703125 51.125 21.484375 
Q 51.125 28.328125 47.28125 31.5625 
Q 43.453125 34.8125 35.5 34.8125 
z
M 19.671875 64.796875 
L 19.671875 42.828125 
L 34.28125 42.828125 
Q 41.5 42.828125 45.03125 45.53125 
Q 48.578125 48.25 48.578125 53.8125 
Q 48.578125 59.328125 45.03125 62.0625 
Q 41.5 64.796875 34.28125 64.796875 
z
M 9.8125 72.90625 
L 35.015625 72.90625 
Q 46.296875 72.90625 52.390625 68.21875 
Q 58.5 63.53125 58.5 54.890625 
Q 58.5 48.1875 55.375 44.234375 
Q 52.25 40.28125 46.1875 39.3125 
Q 53.46875 37.75 57.5 32.78125 
Q 61.53125 27.828125 61.53125 20.40625 
Q 61.53125 10.640625 54.890625 5.3125 
Q 48.25 0 35.984375 0 
L 9.8125 0 
z
" id="DejaVuSans-66"/>
      <path d="M 54.890625 33.015625 
L 54.890625 0 
L 45.90625 0 
L 45.90625 32.71875 
Q 45.90625 40.484375 42.875 44.328125 
Q 39.84375 48.1875 33.796875 48.1875 
Q 26.515625 48.1875 22.3125 43.546875 
Q 18.109375 38.921875 18.109375 30.90625 
L 18.109375 0 
L 9.078125 0 
L 9.078125 54.6875 
L 18.109375 54.6875 
L 18.109375 46.1875 
Q 21.34375 51.125 25.703125 53.5625 
Q 30.078125 56 35.796875 56 
Q 45.21875 56 50.046875 50.171875 
Q 54.890625 44.34375 54.890625 33.015625 
z
" id="DejaVuSans-110"/>
      <path d="M 49.609375 33.6875 
Q 49.609375 40.875 46.484375 44.671875 
Q 43.359375 48.484375 37.5 48.484375 
Q 33.5 48.484375 29.859375 46.4375 
Q 26.21875 44.390625 23.390625 40.484375 
Q 20.609375 36.625 18.9375 31.15625 
Q 17.28125 25.6875 17.28125 20.3125 
Q 17.28125 13.484375 20.40625 9.796875 
Q 23.53125 6.109375 29.296875 6.109375 
Q 33.546875 6.109375 37.1875 8.109375 
Q 40.828125 10.109375 43.40625 13.921875 
Q 46.1875 17.921875 47.890625 23.34375 
Q 49.609375 28.765625 49.609375 33.6875 
z
M 21.78125 46.390625 
Q 25.390625 51.125 30.296875 53.5625 
Q 35.203125 56 41.21875 56 
Q 49.609375 56 54.25 50.5 
Q 58.890625 45.015625 58.890625 35.109375 
Q 58.890625 27 56 19.65625 
Q 53.125 12.3125 47.703125 6.5 
Q 44.09375 2.640625 39.546875 0.609375 
Q 35.015625 -1.421875 29.984375 -1.421875 
Q 24.171875 -1.421875 20.21875 1 
Q 16.265625 3.421875 14.3125 8.203125 
L 8.6875 -20.796875 
L -0.296875 -20.796875 
L 14.40625 54.6875 
L 23.390625 54.6875 
z
" id="DejaVuSans-Oblique-112"/>
     </defs>
     <g transform="translate(24.98725 129.744)rotate(-90)scale(0.144 -0.144)">
      <use transform="translate(0 0.015625)" xlink:href="#DejaVuSans-66"/>
      <use transform="translate(68.603516 0.015625)" xlink:href="#DejaVuSans-105"/>
      <use transform="translate(96.386719 0.015625)" xlink:href="#DejaVuSans-110"/>
      <use transform="translate(159.765625 0.015625)" xlink:href="#DejaVuSans-46"/>
      <use transform="translate(191.552734 0.015625)" xlink:href="#DejaVuSans-32"/>
      <use transform="translate(223.339844 0.015625)" xlink:href="#DejaVuSans-Oblique-112"/>
     </g>
    </g>
   </g>
   <g id="line2d_13">
    <path clip-path="url(#pee1b1071af)" d="M 81 101.659389 
L 82.895094 102.140554 
L 84.790189 103.02269 
L 86.685283 107.673951 
L 90.475472 115.372591 
L 92.370566 118.018998 
L 94.26566 121.42725 
L 96.160755 126.800259 
L 98.055849 131.331229 
L 99.950943 130.76987 
L 101.846038 135.180548 
L 103.741132 139.952101 
L 105.636226 143.961809 
L 107.531321 144.322683 
L 109.426415 148.372488 
L 111.321509 146.68841 
L 113.216604 143.921712 
L 115.111698 142.678702 
L 117.006792 143.360353 
L 118.901887 145.445401 
L 120.796981 146.167148 
L 122.692075 148.412585 
L 124.58717 146.568119 
L 126.482264 148.372488 
L 128.377358 149.094235 
L 130.272453 150.216954 
L 132.167547 146.528022 
L 135.957736 137.466082 
L 137.85283 134.017733 
L 139.747925 136.784432 
L 141.643019 133.37618 
L 143.538113 132.854918 
L 145.433208 131.130743 
L 147.328302 131.652005 
L 149.223396 128.56453 
L 151.118491 122.910842 
L 154.908679 118.419969 
L 156.803774 117.537833 
L 158.698868 112.124727 
L 160.593962 108.836767 
L 162.489057 105.90968 
L 164.384151 101.539098 
L 166.279245 98.772399 
L 168.17434 97.689778 
L 170.069434 92.236575 
L 171.964528 89.870848 
L 173.859623 87.064052 
L 175.754717 88.307061 
L 177.649811 88.146673 
L 179.544906 84.61813 
L 181.44 83.134538 
L 183.335094 86.222013 
L 185.230189 85.259683 
L 187.125283 88.387256 
L 189.020377 90.311915 
L 190.915472 96.968031 
L 192.810566 94.000847 
L 194.70566 93.038517 
L 196.600755 89.790653 
L 198.495849 88.948615 
L 200.390943 89.991139 
L 202.286038 88.106576 
L 204.181132 90.953469 
L 206.076226 91.995993 
L 209.866415 101.980166 
L 211.761509 104.546379 
L 213.656604 106.791815 
L 215.551698 108.034825 
L 217.446792 112.245018 
L 219.341887 117.257153 
L 221.236981 117.136862 
L 223.132075 118.740745 
L 225.02717 119.101619 
L 226.922264 122.309386 
L 228.817358 120.585211 
L 230.712453 119.021425 
L 232.607547 121.948512 
L 234.502642 128.484336 
L 236.397736 131.892588 
L 240.187925 135.902296 
L 242.083019 136.102781 
L 243.978113 136.423558 
L 245.873208 139.912004 
L 249.663396 143.641032 
L 251.558491 146.568119 
L 253.453585 147.971517 
L 255.348679 151.820837 
L 257.243774 152.46239 
L 259.138868 155.509768 
L 261.033962 153.464817 
L 262.929057 154.346953 
L 264.824151 157.514622 
L 266.719245 153.184137 
L 268.61434 155.790448 
L 270.509434 156.472098 
L 272.404528 154.707827 
L 274.299623 153.665302 
L 276.194717 154.026176 
L 278.089811 154.868215 
L 279.984906 155.429574 
L 281.88 155.389477 
L 283.775094 152.302002 
L 285.670189 151.459963 
L 287.565283 155.389477 
L 289.460377 158.356661 
L 291.355472 158.557146 
L 293.250566 161.203554 
L 295.14566 160.521903 
L 297.040755 165.012776 
L 298.935849 165.935009 
L 300.830943 160.642194 
L 302.726038 158.075981 
L 304.621132 157.795302 
L 306.516226 158.116078 
L 308.411321 155.630059 
L 310.306415 154.467244 
L 312.201509 155.830545 
L 314.096604 152.863361 
L 315.991698 154.627632 
L 317.886792 154.186564 
L 319.781887 157.915593 
L 321.676981 158.958117 
L 323.572075 156.832972 
L 325.46717 155.509768 
L 327.362264 152.18171 
L 329.257358 152.46239 
L 331.152453 150.056565 
L 333.047547 150.617924 
L 334.942642 146.848799 
L 336.837736 148.61307 
L 338.73283 144.282586 
L 340.627925 139.430839 
L 342.523019 141.676275 
L 344.418113 143.440547 
L 346.313208 141.636178 
L 348.208302 143.841518 
L 350.103396 145.806275 
L 351.998491 144.242489 
L 353.893585 143.280159 
L 355.788679 137.706664 
L 357.683774 135.822102 
L 359.578868 133.175694 
L 361.473962 132.734626 
L 365.264151 122.670259 
L 369.05434 110.641135 
L 370.949434 109.117446 
L 372.844528 104.466185 
L 374.739623 100.737156 
L 376.634717 104.987447 
L 378.529811 104.385991 
L 382.32 107.994728 
L 386.110189 111.362883 
L 388.005283 113.087057 
L 389.900377 113.247445 
L 391.795472 110.881718 
L 393.690566 112.846475 
L 395.58566 113.247445 
L 397.480755 112.445504 
L 399.375849 118.460066 
L 401.270943 121.587638 
L 403.166038 120.344629 
L 405.061132 121.948512 
L 406.956226 119.542687 
L 408.851321 115.532979 
L 410.746415 113.287543 
L 412.641509 110.681232 
L 414.536604 112.806378 
L 416.431698 113.407834 
L 418.326792 113.488028 
L 420.221887 113.287543 
L 422.116981 114.209775 
L 424.012075 114.249872 
L 425.90717 112.565795 
L 427.802264 115.893853 
L 429.697358 116.856183 
L 431.592453 123.953366 
L 433.487547 128.684821 
L 435.382642 132.453947 
L 437.277736 133.37618 
L 439.17283 133.817248 
L 441.067925 136.383461 
L 442.963019 139.912004 
L 444.858113 142.237635 
L 446.753208 140.072392 
L 448.648302 140.112489 
L 450.543396 140.393169 
L 452.438491 142.077246 
L 454.333585 145.605789 
L 456.228679 147.289867 
L 458.123774 147.851226 
L 460.018868 147.169575 
L 461.913962 147.329964 
L 463.809057 142.879188 
L 465.704151 143.881615 
L 467.599245 143.721226 
L 469.49434 139.952101 
L 473.284528 130.850064 
L 475.179623 121.106473 
L 477.074717 113.247445 
L 478.969811 109.678805 
L 480.864906 104.065214 
L 482.76 103.864729 
L 484.655094 104.426088 
L 486.550189 108.556087 
L 488.445283 111.443077 
L 490.340377 111.643562 
L 492.235472 113.848902 
L 494.130566 112.204921 
L 496.02566 112.445504 
L 497.920755 111.082203 
L 499.815849 113.127154 
L 501.710943 115.733464 
L 503.606038 113.72861 
L 505.501132 114.731037 
L 507.396226 107.473466 
L 511.186415 103.02269 
L 513.081509 100.376283 
L 514.976604 98.932788 
L 516.871698 96.005701 
L 518.766792 93.519682 
L 520.661887 91.795507 
L 522.556981 90.913372 
L 524.452075 90.432207 
L 526.34717 90.432207 
L 528.242264 88.026382 
L 530.137358 86.54279 
L 532.032453 85.901237 
L 533.927547 83.896383 
L 535.822642 83.735994 
L 537.717736 77.881821 
L 539.61283 80.207451 
L 541.507925 77.601141 
L 543.403019 75.596287 
L 545.298113 76.678908 
L 547.193208 77.400656 
L 549.088302 78.884248 
L 550.983396 83.214732 
L 552.878491 84.537936 
L 554.773585 83.575606 
L 556.668679 85.059198 
L 558.563774 85.219586 
L 560.458868 86.26211 
L 562.353962 84.61813 
L 564.249057 84.177062 
L 566.144151 82.212305 
L 568.039245 77.320461 
L 569.93434 74.032501 
L 571.829434 71.145511 
L 573.724528 68.980269 
L 575.619623 68.178327 
L 577.514717 65.572017 
L 579.409811 62.284056 
L 581.304906 56.229397 
L 583.2 58.434737 
L 583.2 58.434737 
" style="fill:none;stroke:#0000ff;stroke-linecap:square;stroke-width:1.5;"/>
   </g>
   <g id="patch_3">
    <path d="M 81 192.24 
L 81 25.92 
" style="fill:none;stroke:#000000;stroke-linecap:square;stroke-linejoin:miter;stroke-width:0.8;"/>
   </g>
   <g id="patch_4">
    <path d="M 583.2 192.24 
L 583.2 25.92 
" style="fill:none;stroke:#000000;stroke-linecap:square;stroke-linejoin:miter;stroke-width:0.8;"/>
   </g>
   <g id="patch_5">
    <path d="M 81 192.24 
L 583.2 192.24 
" style="fill:none;stroke:#000000;stroke-linecap:square;stroke-linejoin:miter;stroke-width:0.8;"/>
   </g>
   <g id="patch_6">
    <path d="M 81 25.92 
L 583.2 25.92 
" style="fill:none;stroke:#000000;stroke-linecap:square;stroke-linejoin:miter;stroke-width:0.8;"/>
   </g>
   <g id="text_15">
    <!-- Motor cortex, Num Trials=160 All stimulated trials -->
    <defs>
     <path d="M 9.8125 72.90625 
L 24.515625 72.90625 
L 43.109375 23.296875 
L 61.8125 72.90625 
L 76.515625 72.90625 
L 76.515625 0 
L 66.890625 0 
L 66.890625 64.015625 
L 48.09375 14.015625 
L 38.1875 14.015625 
L 19.390625 64.015625 
L 19.390625 0 
L 9.8125 0 
z
" id="DejaVuSans-77"/>
     <path d="M 30.609375 48.390625 
Q 23.390625 48.390625 19.1875 42.75 
Q 14.984375 37.109375 14.984375 27.296875 
Q 14.984375 17.484375 19.15625 11.84375 
Q 23.34375 6.203125 30.609375 6.203125 
Q 37.796875 6.203125 41.984375 11.859375 
Q 46.1875 17.53125 46.1875 27.296875 
Q 46.1875 37.015625 41.984375 42.703125 
Q 37.796875 48.390625 30.609375 48.390625 
z
M 30.609375 56 
Q 42.328125 56 49.015625 48.375 
Q 55.71875 40.765625 55.71875 27.296875 
Q 55.71875 13.875 49.015625 6.21875 
Q 42.328125 -1.421875 30.609375 -1.421875 
Q 18.84375 -1.421875 12.171875 6.21875 
Q 5.515625 13.875 5.515625 27.296875 
Q 5.515625 40.765625 12.171875 48.375 
Q 18.84375 56 30.609375 56 
z
" id="DejaVuSans-111"/>
     <path d="M 18.3125 70.21875 
L 18.3125 54.6875 
L 36.8125 54.6875 
L 36.8125 47.703125 
L 18.3125 47.703125 
L 18.3125 18.015625 
Q 18.3125 11.328125 20.140625 9.421875 
Q 21.96875 7.515625 27.59375 7.515625 
L 36.8125 7.515625 
L 36.8125 0 
L 27.59375 0 
Q 17.1875 0 13.234375 3.875 
Q 9.28125 7.765625 9.28125 18.015625 
L 9.28125 47.703125 
L 2.6875 47.703125 
L 2.6875 54.6875 
L 9.28125 54.6875 
L 9.28125 70.21875 
z
" id="DejaVuSans-116"/>
     <path d="M 41.109375 46.296875 
Q 39.59375 47.171875 37.8125 47.578125 
Q 36.03125 48 33.890625 48 
Q 26.265625 48 22.1875 43.046875 
Q 18.109375 38.09375 18.109375 28.8125 
L 18.109375 0 
L 9.078125 0 
L 9.078125 54.6875 
L 18.109375 54.6875 
L 18.109375 46.1875 
Q 20.953125 51.171875 25.484375 53.578125 
Q 30.03125 56 36.53125 56 
Q 37.453125 56 38.578125 55.875 
Q 39.703125 55.765625 41.0625 55.515625 
z
" id="DejaVuSans-114"/>
     <path d="M 48.78125 52.59375 
L 48.78125 44.1875 
Q 44.96875 46.296875 41.140625 47.34375 
Q 37.3125 48.390625 33.40625 48.390625 
Q 24.65625 48.390625 19.8125 42.84375 
Q 14.984375 37.3125 14.984375 27.296875 
Q 14.984375 17.28125 19.8125 11.734375 
Q 24.65625 6.203125 33.40625 6.203125 
Q 37.3125 6.203125 41.140625 7.25 
Q 44.96875 8.296875 48.78125 10.40625 
L 48.78125 2.09375 
Q 45.015625 0.34375 40.984375 -0.53125 
Q 36.96875 -1.421875 32.421875 -1.421875 
Q 20.0625 -1.421875 12.78125 6.34375 
Q 5.515625 14.109375 5.515625 27.296875 
Q 5.515625 40.671875 12.859375 48.328125 
Q 20.21875 56 33.015625 56 
Q 37.15625 56 41.109375 55.140625 
Q 45.0625 54.296875 48.78125 52.59375 
z
" id="DejaVuSans-99"/>
     <path d="M 54.890625 54.6875 
L 35.109375 28.078125 
L 55.90625 0 
L 45.3125 0 
L 29.390625 21.484375 
L 13.484375 0 
L 2.875 0 
L 24.125 28.609375 
L 4.6875 54.6875 
L 15.28125 54.6875 
L 29.78125 35.203125 
L 44.28125 54.6875 
z
" id="DejaVuSans-120"/>
     <path d="M 11.71875 12.40625 
L 22.015625 12.40625 
L 22.015625 4 
L 14.015625 -11.625 
L 7.71875 -11.625 
L 11.71875 4 
z
" id="DejaVuSans-44"/>
     <path d="M 9.8125 72.90625 
L 23.09375 72.90625 
L 55.421875 11.921875 
L 55.421875 72.90625 
L 64.984375 72.90625 
L 64.984375 0 
L 51.703125 0 
L 19.390625 60.984375 
L 19.390625 0 
L 9.8125 0 
z
" id="DejaVuSans-78"/>
     <path d="M 8.5 21.578125 
L 8.5 54.6875 
L 17.484375 54.6875 
L 17.484375 21.921875 
Q 17.484375 14.15625 20.5 10.265625 
Q 23.53125 6.390625 29.59375 6.390625 
Q 36.859375 6.390625 41.078125 11.03125 
Q 45.3125 15.671875 45.3125 23.6875 
L 45.3125 54.6875 
L 54.296875 54.6875 
L 54.296875 0 
L 45.3125 0 
L 45.3125 8.40625 
Q 42.046875 3.421875 37.71875 1 
Q 33.40625 -1.421875 27.6875 -1.421875 
Q 18.265625 -1.421875 13.375 4.4375 
Q 8.5 10.296875 8.5 21.578125 
z
M 31.109375 56 
z
" id="DejaVuSans-117"/>
     <path d="M 34.28125 27.484375 
Q 23.390625 27.484375 19.1875 25 
Q 14.984375 22.515625 14.984375 16.5 
Q 14.984375 11.71875 18.140625 8.90625 
Q 21.296875 6.109375 26.703125 6.109375 
Q 34.1875 6.109375 38.703125 11.40625 
Q 43.21875 16.703125 43.21875 25.484375 
L 43.21875 27.484375 
z
M 52.203125 31.203125 
L 52.203125 0 
L 43.21875 0 
L 43.21875 8.296875 
Q 40.140625 3.328125 35.546875 0.953125 
Q 30.953125 -1.421875 24.3125 -1.421875 
Q 15.921875 -1.421875 10.953125 3.296875 
Q 6 8.015625 6 15.921875 
Q 6 25.140625 12.171875 29.828125 
Q 18.359375 34.515625 30.609375 34.515625 
L 43.21875 34.515625 
L 43.21875 35.40625 
Q 43.21875 41.609375 39.140625 45 
Q 35.0625 48.390625 27.6875 48.390625 
Q 23 48.390625 18.546875 47.265625 
Q 14.109375 46.140625 10.015625 43.890625 
L 10.015625 52.203125 
Q 14.9375 54.109375 19.578125 55.046875 
Q 24.21875 56 28.609375 56 
Q 40.484375 56 46.34375 49.84375 
Q 52.203125 43.703125 52.203125 31.203125 
z
" id="DejaVuSans-97"/>
     <path d="M 9.421875 75.984375 
L 18.40625 75.984375 
L 18.40625 0 
L 9.421875 0 
z
" id="DejaVuSans-108"/>
     <path d="M 10.59375 45.40625 
L 73.1875 45.40625 
L 73.1875 37.203125 
L 10.59375 37.203125 
z
M 10.59375 25.484375 
L 73.1875 25.484375 
L 73.1875 17.1875 
L 10.59375 17.1875 
z
" id="DejaVuSans-61"/>
     <path d="M 34.1875 63.1875 
L 20.796875 26.90625 
L 47.609375 26.90625 
z
M 28.609375 72.90625 
L 39.796875 72.90625 
L 67.578125 0 
L 57.328125 0 
L 50.6875 18.703125 
L 17.828125 18.703125 
L 11.1875 0 
L 0.78125 0 
z
" id="DejaVuSans-65"/>
     <path d="M 45.40625 46.390625 
L 45.40625 75.984375 
L 54.390625 75.984375 
L 54.390625 0 
L 45.40625 0 
L 45.40625 8.203125 
Q 42.578125 3.328125 38.25 0.953125 
Q 33.9375 -1.421875 27.875 -1.421875 
Q 17.96875 -1.421875 11.734375 6.484375 
Q 5.515625 14.40625 5.515625 27.296875 
Q 5.515625 40.1875 11.734375 48.09375 
Q 17.96875 56 27.875 56 
Q 33.9375 56 38.25 53.625 
Q 42.578125 51.265625 45.40625 46.390625 
z
M 14.796875 27.296875 
Q 14.796875 17.390625 18.875 11.75 
Q 22.953125 6.109375 30.078125 6.109375 
Q 37.203125 6.109375 41.296875 11.75 
Q 45.40625 17.390625 45.40625 27.296875 
Q 45.40625 37.203125 41.296875 42.84375 
Q 37.203125 48.484375 30.078125 48.484375 
Q 22.953125 48.484375 18.875 42.84375 
Q 14.796875 37.203125 14.796875 27.296875 
z
" id="DejaVuSans-100"/>
    </defs>
    <g transform="translate(181.130625 19.92)scale(0.12 -0.12)">
     <use xlink:href="#DejaVuSans-77"/>
     <use x="86.279297" xlink:href="#DejaVuSans-111"/>
     <use x="147.460938" xlink:href="#DejaVuSans-116"/>
     <use x="186.669922" xlink:href="#DejaVuSans-111"/>
     <use x="247.851562" xlink:href="#DejaVuSans-114"/>
     <use x="288.964844" xlink:href="#DejaVuSans-32"/>
     <use x="320.751953" xlink:href="#DejaVuSans-99"/>
     <use x="375.732422" xlink:href="#DejaVuSans-111"/>
     <use x="436.914062" xlink:href="#DejaVuSans-114"/>
     <use x="478.027344" xlink:href="#DejaVuSans-116"/>
     <use x="517.236328" xlink:href="#DejaVuSans-101"/>
     <use x="578.744141" xlink:href="#DejaVuSans-120"/>
     <use x="637.923828" xlink:href="#DejaVuSans-44"/>
     <use x="669.710938" xlink:href="#DejaVuSans-32"/>
     <use x="701.498047" xlink:href="#DejaVuSans-78"/>
     <use x="776.302734" xlink:href="#DejaVuSans-117"/>
     <use x="839.681641" xlink:href="#DejaVuSans-109"/>
     <use x="937.09375" xlink:href="#DejaVuSans-32"/>
     <use x="968.880859" xlink:href="#DejaVuSans-84"/>
     <use x="1029.746094" xlink:href="#DejaVuSans-114"/>
     <use x="1070.859375" xlink:href="#DejaVuSans-105"/>
     <use x="1098.642578" xlink:href="#DejaVuSans-97"/>
     <use x="1159.921875" xlink:href="#DejaVuSans-108"/>
     <use x="1187.705078" xlink:href="#DejaVuSans-115"/>
     <use x="1239.804688" xlink:href="#DejaVuSans-61"/>
     <use x="1323.59375" xlink:href="#DejaVuSans-49"/>
     <use x="1387.216797" xlink:href="#DejaVuSans-54"/>
     <use x="1450.839844" xlink:href="#DejaVuSans-48"/>
     <use x="1514.462891" xlink:href="#DejaVuSans-32"/>
     <use x="1546.25" xlink:href="#DejaVuSans-65"/>
     <use x="1614.658203" xlink:href="#DejaVuSans-108"/>
     <use x="1642.441406" xlink:href="#DejaVuSans-108"/>
     <use x="1670.224609" xlink:href="#DejaVuSans-32"/>
     <use x="1702.011719" xlink:href="#DejaVuSans-115"/>
     <use x="1754.111328" xlink:href="#DejaVuSans-116"/>
     <use x="1793.320312" xlink:href="#DejaVuSans-105"/>
     <use x="1821.103516" xlink:href="#DejaVuSans-109"/>
     <use x="1918.515625" xlink:href="#DejaVuSans-117"/>
     <use x="1981.894531" xlink:href="#DejaVuSans-108"/>
     <use x="2009.677734" xlink:href="#DejaVuSans-97"/>
     <use x="2070.957031" xlink:href="#DejaVuSans-116"/>
     <use x="2110.166016" xlink:href="#DejaVuSans-101"/>
     <use x="2171.689453" xlink:href="#DejaVuSans-100"/>
     <use x="2235.166016" xlink:href="#DejaVuSans-32"/>
     <use x="2266.953125" xlink:href="#DejaVuSans-116"/>
     <use x="2306.162109" xlink:href="#DejaVuSans-114"/>
     <use x="2347.275391" xlink:href="#DejaVuSans-105"/>
     <use x="2375.058594" xlink:href="#DejaVuSans-97"/>
     <use x="2436.337891" xlink:href="#DejaVuSans-108"/>
     <use x="2464.121094" xlink:href="#DejaVuSans-115"/>
    </g>
   </g>
   <g id="legend_1">
    <g id="patch_7">
     <path d="M 89.4 70.77375 
L 191.52 70.77375 
Q 193.92 70.77375 193.92 68.37375 
L 193.92 34.32 
Q 193.92 31.92 191.52 31.92 
L 89.4 31.92 
Q 87 31.92 87 34.32 
L 87 68.37375 
Q 87 70.77375 89.4 70.77375 
z
" style="fill:#ffffff;opacity:0.8;stroke:#cccccc;stroke-linejoin:miter;"/>
    </g>
    <g id="line2d_14">
     <path d="M 91.8 41.64 
L 115.8 41.64 
" style="fill:none;stroke:#0000ff;stroke-linecap:square;stroke-width:1.5;"/>
    </g>
    <g id="line2d_15"/>
    <g id="text_16">
     <!-- Binomial $p$ -->
     <g transform="translate(125.4 45.84)scale(0.12 -0.12)">
      <use transform="translate(0 0.015625)" xlink:href="#DejaVuSans-66"/>
      <use transform="translate(68.603516 0.015625)" xlink:href="#DejaVuSans-105"/>
      <use transform="translate(96.386719 0.015625)" xlink:href="#DejaVuSans-110"/>
      <use transform="translate(159.765625 0.015625)" xlink:href="#DejaVuSans-111"/>
      <use transform="translate(220.947266 0.015625)" xlink:href="#DejaVuSans-109"/>
      <use transform="translate(318.359375 0.015625)" xlink:href="#DejaVuSans-105"/>
      <use transform="translate(346.142578 0.015625)" xlink:href="#DejaVuSans-97"/>
      <use transform="translate(407.421875 0.015625)" xlink:href="#DejaVuSans-108"/>
      <use transform="translate(435.205078 0.015625)" xlink:href="#DejaVuSans-32"/>
      <use transform="translate(466.992188 0.015625)" xlink:href="#DejaVuSans-Oblique-112"/>
     </g>
    </g>
    <g id="patch_8">
     <path d="M 91.8 63.478125 
L 115.8 63.478125 
L 115.8 55.078125 
L 91.8 55.078125 
z
" style="fill:#0000ff;opacity:0.3;stroke:#0000ff;stroke-linejoin:miter;"/>
    </g>
    <g id="text_17">
     <!-- Std. Err. -->
     <defs>
      <path d="M 53.515625 70.515625 
L 53.515625 60.890625 
Q 47.90625 63.578125 42.921875 64.890625 
Q 37.9375 66.21875 33.296875 66.21875 
Q 25.25 66.21875 20.875 63.09375 
Q 16.5 59.96875 16.5 54.203125 
Q 16.5 49.359375 19.40625 46.890625 
Q 22.3125 44.4375 30.421875 42.921875 
L 36.375 41.703125 
Q 47.40625 39.59375 52.65625 34.296875 
Q 57.90625 29 57.90625 20.125 
Q 57.90625 9.515625 50.796875 4.046875 
Q 43.703125 -1.421875 29.984375 -1.421875 
Q 24.8125 -1.421875 18.96875 -0.25 
Q 13.140625 0.921875 6.890625 3.21875 
L 6.890625 13.375 
Q 12.890625 10.015625 18.65625 8.296875 
Q 24.421875 6.59375 29.984375 6.59375 
Q 38.421875 6.59375 43.015625 9.90625 
Q 47.609375 13.234375 47.609375 19.390625 
Q 47.609375 24.75 44.3125 27.78125 
Q 41.015625 30.8125 33.5 32.328125 
L 27.484375 33.5 
Q 16.453125 35.6875 11.515625 40.375 
Q 6.59375 45.0625 6.59375 53.421875 
Q 6.59375 63.09375 13.40625 68.65625 
Q 20.21875 74.21875 32.171875 74.21875 
Q 37.3125 74.21875 42.625 73.28125 
Q 47.953125 72.359375 53.515625 70.515625 
z
" id="DejaVuSans-83"/>
      <path d="M 9.8125 72.90625 
L 55.90625 72.90625 
L 55.90625 64.59375 
L 19.671875 64.59375 
L 19.671875 43.015625 
L 54.390625 43.015625 
L 54.390625 34.71875 
L 19.671875 34.71875 
L 19.671875 8.296875 
L 56.78125 8.296875 
L 56.78125 0 
L 9.8125 0 
z
" id="DejaVuSans-69"/>
     </defs>
     <g transform="translate(125.4 63.478125)scale(0.12 -0.12)">
      <use xlink:href="#DejaVuSans-83"/>
      <use x="63.476562" xlink:href="#DejaVuSans-116"/>
      <use x="102.685547" xlink:href="#DejaVuSans-100"/>
      <use x="166.162109" xlink:href="#DejaVuSans-46"/>
      <use x="197.949219" xlink:href="#DejaVuSans-32"/>
      <use x="229.736328" xlink:href="#DejaVuSans-69"/>
      <use x="292.919922" xlink:href="#DejaVuSans-114"/>
      <use x="334.017578" xlink:href="#DejaVuSans-114"/>
      <use x="374.990234" xlink:href="#DejaVuSans-46"/>
     </g>
    </g>
   </g>
  </g>
 </g>
 <defs>
  <clipPath id="pee1b1071af">
   <rect height="166.32" width="502.2" x="81" y="25.92"/>
  </clipPath>
 </defs>
</svg>
