<?xml version="1.0" encoding="utf-8" standalone="no"?>
<!DOCTYPE svg PUBLIC "-//W3C//DTD SVG 1.1//EN"
  "http://www.w3.org/Graphics/SVG/1.1/DTD/svg11.dtd">
<!-- Created with matplotlib (https://matplotlib.org/) -->
<svg height="223.2pt" version="1.1" viewBox="0 0 576 223.2" width="576pt" xmlns="http://www.w3.org/2000/svg" xmlns:xlink="http://www.w3.org/1999/xlink">
 <defs>
  <style type="text/css">
*{stroke-linecap:butt;stroke-linejoin:round;}
  </style>
 </defs>
 <g id="figure_1">
  <g id="patch_1">
   <path d="M 0 223.2 
L 576 223.2 
L 576 0 
L 0 0 
z
" style="fill:#ffffff;"/>
  </g>
  <g id="axes_1">
   <g id="patch_2">
    <path d="M 72.47 174.76 
L 565.2 174.76 
L 565.2 26.88 
L 72.47 26.88 
z
" style="fill:#ffffff;"/>
   </g>
   <g id="PolyCollection_1">
    <defs>
     <path d="M 132.899151 -48.44 
L 132.899151 -196.32 
L 411.802925 -196.32 
L 411.802925 -48.44 
L 411.802925 -48.44 
L 132.899151 -48.44 
z
" id="m06aad3e89f" style="stroke:#808080;stroke-opacity:0.3;"/>
    </defs>
    <g clip-path="url(#pbf0a62e517)">
     <use style="fill:#808080;fill-opacity:0.3;stroke:#808080;stroke-opacity:0.3;" x="0" xlink:href="#m06aad3e89f" y="223.2"/>
    </g>
   </g>
   <g id="PolyCollection_2">
    <defs>
     <path d="M 72.47 -193.360995 
L 72.47 -190.150689 
L 74.329358 -190.122789 
L 76.188717 -190.048156 
L 78.048075 -189.783135 
L 79.907434 -189.555743 
L 81.766792 -189.332376 
L 83.626151 -189.166488 
L 85.485509 -188.950303 
L 87.344868 -188.629578 
L 89.204226 -188.377226 
L 91.063585 -188.407185 
L 92.922943 -188.119129 
L 94.782302 -187.837944 
L 96.64166 -187.587257 
L 98.501019 -187.581419 
L 100.360377 -187.33463 
L 102.219736 -187.429998 
L 104.079094 -187.581806 
L 105.938453 -187.660235 
L 107.797811 -187.636816 
L 109.65717 -187.512572 
L 111.516528 -187.48542 
L 113.375887 -187.380316 
L 115.235245 -187.521186 
L 117.094604 -187.428486 
L 118.953962 -187.399362 
L 120.813321 -187.338377 
L 122.672679 -187.544601 
L 124.532038 -187.817272 
L 126.391396 -188.088155 
L 128.250755 -188.28658 
L 130.110113 -188.116443 
L 131.969472 -188.300125 
L 133.82883 -188.340815 
L 135.688189 -188.408136 
L 137.547547 -188.377001 
L 139.406906 -188.553718 
L 141.266264 -188.872745 
L 143.125623 -189.002439 
L 144.984981 -189.132295 
L 146.84434 -189.17773 
L 148.703698 -189.51209 
L 150.563057 -189.70944 
L 152.422415 -189.87681 
L 154.281774 -190.128286 
L 156.141132 -190.29109 
L 158.000491 -190.344678 
L 159.859849 -190.676731 
L 161.719208 -190.80795 
L 163.578566 -190.964077 
L 165.437925 -190.876431 
L 167.297283 -190.871416 
L 169.156642 -191.069118 
L 171.016 -191.148665 
L 172.875358 -190.947247 
L 174.734717 -190.99725 
L 176.594075 -190.785976 
L 178.453434 -190.672642 
L 180.312792 -190.261826 
L 182.172151 -190.419783 
L 184.031509 -190.468303 
L 185.890868 -190.655004 
L 187.750226 -190.677256 
L 189.609585 -190.606499 
L 191.468943 -190.724485 
L 193.328302 -190.559792 
L 195.18766 -190.504073 
L 197.047019 -190.211518 
L 198.906377 -189.935876 
L 200.765736 -189.779046 
L 202.625094 -189.64148 
L 204.484453 -189.545532 
L 206.343811 -189.286042 
L 208.20317 -188.980921 
L 210.062528 -188.994319 
L 211.921887 -188.905199 
L 213.781245 -188.89689 
L 215.640604 -188.709799 
L 217.499962 -188.826197 
L 219.359321 -188.923525 
L 221.218679 -188.756957 
L 223.078038 -188.361874 
L 224.937396 -188.170543 
L 226.796755 -188.06536 
L 228.656113 -187.959602 
L 230.515472 -187.951301 
L 232.37483 -187.927336 
L 234.234189 -187.720052 
L 236.093547 -187.607388 
L 237.952906 -187.481381 
L 239.812264 -187.317258 
L 241.671623 -187.238663 
L 243.530981 -187.045311 
L 245.39034 -187.047398 
L 247.249698 -186.88423 
L 249.109057 -187.009527 
L 250.968415 -186.969025 
L 252.827774 -186.782343 
L 254.687132 -187.037734 
L 256.546491 -186.87963 
L 258.405849 -186.839135 
L 260.265208 -186.938847 
L 262.124566 -187.008624 
L 263.983925 -186.970632 
L 265.843283 -186.915454 
L 267.702642 -186.866088 
L 269.562 -186.883556 
L 271.421358 -187.051748 
L 273.280717 -187.110332 
L 275.140075 -186.888464 
L 276.999434 -186.726723 
L 278.858792 -186.720763 
L 280.718151 -186.557833 
L 282.577509 -186.604765 
L 284.436868 -186.336509 
L 286.296226 -186.297332 
L 288.155585 -186.639479 
L 290.014943 -186.795518 
L 291.874302 -186.829673 
L 293.73366 -186.818683 
L 295.593019 -186.972107 
L 297.452377 -187.040288 
L 299.311736 -186.947499 
L 301.171094 -187.108376 
L 303.030453 -186.993043 
L 304.889811 -187.030445 
L 306.74917 -186.780376 
L 308.608528 -186.704437 
L 310.467887 -186.819703 
L 312.327245 -186.899963 
L 314.186604 -187.083159 
L 316.045962 -187.069349 
L 317.905321 -187.202176 
L 319.764679 -187.163485 
L 321.624038 -187.391183 
L 323.483396 -187.289896 
L 325.342755 -187.529697 
L 327.202113 -187.81537 
L 329.061472 -187.671415 
L 330.92083 -187.561914 
L 332.780189 -187.664487 
L 334.639547 -187.526352 
L 336.498906 -187.387542 
L 338.358264 -187.461913 
L 340.217623 -187.520456 
L 342.076981 -187.846357 
L 343.93634 -187.946099 
L 345.795698 -188.096335 
L 347.655057 -188.116566 
L 349.514415 -188.424611 
L 351.373774 -188.715392 
L 353.233132 -189.067099 
L 355.092491 -189.427303 
L 356.951849 -189.511312 
L 358.811208 -189.787917 
L 360.670566 -190.00623 
L 362.529925 -189.763228 
L 364.389283 -189.824823 
L 366.248642 -189.740698 
L 368.108 -189.677599 
L 369.967358 -189.605571 
L 371.826717 -189.526165 
L 373.686075 -189.441631 
L 375.545434 -189.428613 
L 377.404792 -189.570648 
L 379.264151 -189.440557 
L 381.123509 -189.420825 
L 382.982868 -189.469169 
L 384.842226 -189.097263 
L 386.701585 -188.901472 
L 388.560943 -188.985158 
L 390.420302 -188.894354 
L 392.27966 -189.023228 
L 394.139019 -189.251935 
L 395.998377 -189.392363 
L 397.857736 -189.546971 
L 399.717094 -189.405486 
L 401.576453 -189.367169 
L 403.435811 -189.360792 
L 405.29517 -189.361893 
L 407.154528 -189.303822 
L 409.013887 -189.299667 
L 410.873245 -189.394467 
L 412.732604 -189.189404 
L 414.591962 -189.149849 
L 416.451321 -188.736827 
L 418.310679 -188.458529 
L 420.170038 -188.245976 
L 422.029396 -188.216104 
L 423.888755 -188.18498 
L 425.748113 -188.029549 
L 427.607472 -187.826545 
L 429.46683 -187.697121 
L 431.326189 -187.825194 
L 433.185547 -187.826518 
L 435.044906 -187.801536 
L 436.904264 -187.712509 
L 438.763623 -187.491741 
L 440.622981 -187.392501 
L 442.48234 -187.377473 
L 444.341698 -187.426691 
L 446.201057 -187.428988 
L 448.060415 -187.723703 
L 449.919774 -187.681175 
L 451.779132 -187.70076 
L 453.638491 -187.929629 
L 455.497849 -188.206953 
L 457.357208 -188.497607 
L 459.216566 -189.07894 
L 461.075925 -189.539481 
L 462.935283 -189.748229 
L 464.794642 -190.072 
L 466.654 -190.088041 
L 468.513358 -190.043635 
L 470.372717 -189.785978 
L 472.232075 -189.609753 
L 474.091434 -189.618675 
L 475.950792 -189.502236 
L 477.810151 -189.623886 
L 479.669509 -189.612793 
L 481.528868 -189.668029 
L 483.388226 -189.517286 
L 485.247585 -189.34568 
L 487.106943 -189.464086 
L 488.966302 -189.374897 
L 490.82566 -189.775605 
L 492.685019 -189.887107 
L 494.544377 -190.013368 
L 496.403736 -190.165514 
L 498.263094 -190.245121 
L 500.122453 -190.419694 
L 501.981811 -190.575609 
L 503.84117 -190.684511 
L 505.700528 -190.744997 
L 507.559887 -190.791387 
L 509.419245 -190.823889 
L 511.278604 -190.972677 
L 513.137962 -191.066428 
L 514.997321 -191.098287 
L 516.856679 -191.203829 
L 518.716038 -191.215139 
L 520.575396 -191.541966 
L 522.434755 -191.395988 
L 524.294113 -191.553523 
L 526.153472 -191.667206 
L 528.01283 -191.601498 
L 529.872189 -191.543415 
L 531.731547 -191.448389 
L 533.590906 -191.193942 
L 535.450264 -191.12563 
L 537.309623 -191.198296 
L 539.168981 -191.086519 
L 541.02834 -191.066038 
L 542.887698 -190.982579 
L 544.747057 -191.080961 
L 546.606415 -191.097258 
L 548.465774 -191.20869 
L 550.325132 -191.487925 
L 552.184491 -191.680042 
L 554.043849 -191.838623 
L 555.903208 -191.966282 
L 557.762566 -192.00352 
L 559.621925 -192.165242 
L 561.481283 -192.334053 
L 563.340642 -192.667029 
L 565.2 -192.525344 
L 565.2 -196.195892 
L 565.2 -196.195892 
L 563.340642 -196.32 
L 561.481283 -195.923253 
L 559.621925 -195.69579 
L 557.762566 -195.543392 
L 555.903208 -195.483977 
L 554.043849 -195.350676 
L 552.184491 -195.161309 
L 550.325132 -194.957152 
L 548.465774 -194.646809 
L 546.606415 -194.521443 
L 544.747057 -194.484582 
L 542.887698 -194.384826 
L 541.02834 -194.427015 
L 539.168981 -194.425865 
L 537.309623 -194.492894 
L 535.450264 -194.449577 
L 533.590906 -194.540742 
L 531.731547 -194.808217 
L 529.872189 -194.891997 
L 528.01283 -194.920901 
L 526.153472 -194.985674 
L 524.294113 -194.857726 
L 522.434755 -194.701141 
L 520.575396 -194.835454 
L 518.716038 -194.456721 
L 516.856679 -194.448701 
L 514.997321 -194.312612 
L 513.137962 -194.267149 
L 511.278604 -194.182094 
L 509.419245 -194.040925 
L 507.559887 -194.073428 
L 505.700528 -194.061826 
L 503.84117 -194.015994 
L 501.981811 -193.917094 
L 500.122453 -193.773388 
L 498.263094 -193.59518 
L 496.403736 -193.500814 
L 494.544377 -193.334007 
L 492.685019 -193.18481 
L 490.82566 -193.03535 
L 488.966302 -192.561356 
L 487.106943 -192.592982 
L 485.247585 -192.469758 
L 483.388226 -192.612272 
L 481.528868 -192.707992 
L 479.669509 -192.598919 
L 477.810151 -192.616822 
L 475.950792 -192.540335 
L 474.091434 -192.689689 
L 472.232075 -192.722775 
L 470.372717 -192.894497 
L 468.513358 -193.134599 
L 466.654 -193.157849 
L 464.794642 -193.149727 
L 462.935283 -192.796933 
L 461.075925 -192.575579 
L 459.216566 -192.088928 
L 457.357208 -191.495938 
L 455.497849 -191.235674 
L 453.638491 -190.966913 
L 451.779132 -190.741518 
L 449.919774 -190.741772 
L 448.060415 -190.820059 
L 446.201057 -190.578355 
L 444.341698 -190.599982 
L 442.48234 -190.567046 
L 440.622981 -190.619674 
L 438.763623 -190.723403 
L 436.904264 -190.927906 
L 435.044906 -191.041848 
L 433.185547 -191.050694 
L 431.326189 -191.05685 
L 429.46683 -190.923963 
L 427.607472 -191.074831 
L 425.748113 -191.297096 
L 423.888755 -191.450952 
L 422.029396 -191.472986 
L 420.170038 -191.554264 
L 418.310679 -191.795976 
L 416.451321 -192.087926 
L 414.591962 -192.530276 
L 412.732604 -192.606704 
L 410.873245 -192.802748 
L 409.013887 -192.694577 
L 407.154528 -192.695255 
L 405.29517 -192.748334 
L 403.435811 -192.725272 
L 401.576453 -192.728561 
L 399.717094 -192.762733 
L 397.857736 -192.877376 
L 395.998377 -192.717865 
L 394.139019 -192.587666 
L 392.27966 -192.333112 
L 390.420302 -192.17203 
L 388.560943 -192.274531 
L 386.701585 -192.208405 
L 384.842226 -192.389557 
L 382.982868 -192.742543 
L 381.123509 -192.694235 
L 379.264151 -192.722829 
L 377.404792 -192.829536 
L 375.545434 -192.686447 
L 373.686075 -192.692759 
L 371.826717 -192.816027 
L 369.967358 -192.944424 
L 368.108 -193.070533 
L 366.248642 -193.220069 
L 364.389283 -193.358243 
L 362.529925 -193.347349 
L 360.670566 -193.616603 
L 358.811208 -193.385485 
L 356.951849 -193.101507 
L 355.092491 -193.001877 
L 353.233132 -192.617859 
L 351.373774 -192.264005 
L 349.514415 -191.965208 
L 347.655057 -191.649846 
L 345.795698 -191.616919 
L 343.93634 -191.448202 
L 342.076981 -191.320811 
L 340.217623 -190.97498 
L 338.358264 -190.91754 
L 336.498906 -190.80344 
L 334.639547 -190.901428 
L 332.780189 -191.029086 
L 330.92083 -190.914192 
L 329.061472 -191.017325 
L 327.202113 -191.143997 
L 325.342755 -190.844924 
L 323.483396 -190.562803 
L 321.624038 -190.674151 
L 319.764679 -190.447584 
L 317.905321 -190.476549 
L 316.045962 -190.319419 
L 314.186604 -190.339438 
L 312.327245 -190.121527 
L 310.467887 -190.042312 
L 308.608528 -189.901449 
L 306.74917 -189.951158 
L 304.889811 -190.150522 
L 303.030453 -190.134765 
L 301.171094 -190.232067 
L 299.311736 -190.03533 
L 297.452377 -190.106851 
L 295.593019 -190.034886 
L 293.73366 -189.888688 
L 291.874302 -189.916358 
L 290.014943 -189.916686 
L 288.155585 -189.763438 
L 286.296226 -189.46768 
L 284.436868 -189.539654 
L 282.577509 -189.812649 
L 280.718151 -189.777427 
L 278.858792 -189.93345 
L 276.999434 -189.951652 
L 275.140075 -190.147524 
L 273.280717 -190.399252 
L 271.421358 -190.356351 
L 269.562 -190.152433 
L 267.702642 -190.165067 
L 265.843283 -190.183358 
L 263.983925 -190.229665 
L 262.124566 -190.235166 
L 260.265208 -190.179295 
L 258.405849 -190.066373 
L 256.546491 -190.108033 
L 254.687132 -190.264048 
L 252.827774 -189.997517 
L 250.968415 -190.192611 
L 249.109057 -190.258426 
L 247.249698 -190.137261 
L 245.39034 -190.341371 
L 243.530981 -190.420779 
L 241.671623 -190.691358 
L 239.812264 -190.781904 
L 237.952906 -190.970562 
L 236.093547 -191.07652 
L 234.234189 -191.181323 
L 232.37483 -191.394477 
L 230.515472 -191.409172 
L 228.656113 -191.425034 
L 226.796755 -191.556074 
L 224.937396 -191.697354 
L 223.078038 -191.916795 
L 221.218679 -192.309427 
L 219.359321 -192.49564 
L 217.499962 -192.404495 
L 215.640604 -192.313091 
L 213.781245 -192.512609 
L 211.921887 -192.547793 
L 210.062528 -192.651978 
L 208.20317 -192.650878 
L 206.343811 -192.949833 
L 204.484453 -193.197767 
L 202.625094 -193.25163 
L 200.765736 -193.38469 
L 198.906377 -193.537147 
L 197.047019 -193.855916 
L 195.18766 -194.172269 
L 193.328302 -194.242199 
L 191.468943 -194.42062 
L 189.609585 -194.311474 
L 187.750226 -194.366365 
L 185.890868 -194.287132 
L 184.031509 -194.082392 
L 182.172151 -194.014929 
L 180.312792 -193.815273 
L 178.453434 -194.20667 
L 176.594075 -194.325301 
L 174.734717 -194.490971 
L 172.875358 -194.424991 
L 171.016 -194.595684 
L 169.156642 -194.496425 
L 167.297283 -194.268857 
L 165.437925 -194.244511 
L 163.578566 -194.306677 
L 161.719208 -194.124521 
L 159.859849 -193.970616 
L 158.000491 -193.645434 
L 156.141132 -193.568541 
L 154.281774 -193.397896 
L 152.422415 -193.122617 
L 150.563057 -192.937207 
L 148.703698 -192.738283 
L 146.84434 -192.420241 
L 144.984981 -192.359359 
L 143.125623 -192.213756 
L 141.266264 -192.077657 
L 139.406906 -191.715286 
L 137.547547 -191.519891 
L 135.688189 -191.551581 
L 133.82883 -191.411099 
L 131.969472 -191.388965 
L 130.110113 -191.161876 
L 128.250755 -191.325189 
L 126.391396 -191.108009 
L 124.532038 -190.832807 
L 122.672679 -190.559394 
L 120.813321 -190.321018 
L 118.953962 -190.395346 
L 117.094604 -190.453209 
L 115.235245 -190.577976 
L 113.375887 -190.496546 
L 111.516528 -190.662069 
L 109.65717 -190.721903 
L 107.797811 -190.848955 
L 105.938453 -190.90769 
L 104.079094 -190.836308 
L 102.219736 -190.654666 
L 100.360377 -190.547065 
L 98.501019 -190.788369 
L 96.64166 -190.826025 
L 94.782302 -191.058599 
L 92.922943 -191.352494 
L 91.063585 -191.596025 
L 89.204226 -191.558327 
L 87.344868 -191.85206 
L 85.485509 -192.178904 
L 83.626151 -192.373492 
L 81.766792 -192.526556 
L 79.907434 -192.781616 
L 78.048075 -193.003658 
L 76.188717 -193.299219 
L 74.329358 -193.330904 
L 72.47 -193.360995 
z
" id="m04f5a1f9e8" style="stroke:#0000ff;stroke-opacity:0.3;"/>
    </defs>
    <g clip-path="url(#pbf0a62e517)">
     <use style="fill:#0000ff;fill-opacity:0.3;stroke:#0000ff;stroke-opacity:0.3;" x="0" xlink:href="#m04f5a1f9e8" y="223.2"/>
    </g>
   </g>
   <g id="matplotlib.axis_1">
    <g id="xtick_1">
     <g id="line2d_1">
      <defs>
       <path d="M 0 0 
L 0 3.5 
" id="m83f2d6b611" style="stroke:#000000;stroke-width:0.8;"/>
      </defs>
      <g>
       <use style="stroke:#000000;stroke-width:0.8;" x="132.899151" xlink:href="#m83f2d6b611" y="174.76"/>
      </g>
     </g>
     <g id="text_1">
      <!-- 0.0 -->
      <defs>
       <path d="M 31.78125 66.40625 
Q 24.171875 66.40625 20.328125 58.90625 
Q 16.5 51.421875 16.5 36.375 
Q 16.5 21.390625 20.328125 13.890625 
Q 24.171875 6.390625 31.78125 6.390625 
Q 39.453125 6.390625 43.28125 13.890625 
Q 47.125 21.390625 47.125 36.375 
Q 47.125 51.421875 43.28125 58.90625 
Q 39.453125 66.40625 31.78125 66.40625 
z
M 31.78125 74.21875 
Q 44.046875 74.21875 50.515625 64.515625 
Q 56.984375 54.828125 56.984375 36.375 
Q 56.984375 17.96875 50.515625 8.265625 
Q 44.046875 -1.421875 31.78125 -1.421875 
Q 19.53125 -1.421875 13.0625 8.265625 
Q 6.59375 17.96875 6.59375 36.375 
Q 6.59375 54.828125 13.0625 64.515625 
Q 19.53125 74.21875 31.78125 74.21875 
z
" id="DejaVuSans-48"/>
       <path d="M 10.6875 12.40625 
L 21 12.40625 
L 21 0 
L 10.6875 0 
z
" id="DejaVuSans-46"/>
      </defs>
      <g transform="translate(123.357276 190.878125)scale(0.12 -0.12)">
       <use xlink:href="#DejaVuSans-48"/>
       <use x="63.623047" xlink:href="#DejaVuSans-46"/>
       <use x="95.410156" xlink:href="#DejaVuSans-48"/>
      </g>
     </g>
    </g>
    <g id="xtick_2">
     <g id="line2d_2">
      <g>
       <use style="stroke:#000000;stroke-width:0.8;" x="225.867075" xlink:href="#m83f2d6b611" y="174.76"/>
      </g>
     </g>
     <g id="text_2">
      <!-- 0.5 -->
      <defs>
       <path d="M 10.796875 72.90625 
L 49.515625 72.90625 
L 49.515625 64.59375 
L 19.828125 64.59375 
L 19.828125 46.734375 
Q 21.96875 47.46875 24.109375 47.828125 
Q 26.265625 48.1875 28.421875 48.1875 
Q 40.625 48.1875 47.75 41.5 
Q 54.890625 34.8125 54.890625 23.390625 
Q 54.890625 11.625 47.5625 5.09375 
Q 40.234375 -1.421875 26.90625 -1.421875 
Q 22.3125 -1.421875 17.546875 -0.640625 
Q 12.796875 0.140625 7.71875 1.703125 
L 7.71875 11.625 
Q 12.109375 9.234375 16.796875 8.0625 
Q 21.484375 6.890625 26.703125 6.890625 
Q 35.15625 6.890625 40.078125 11.328125 
Q 45.015625 15.765625 45.015625 23.390625 
Q 45.015625 31 40.078125 35.4375 
Q 35.15625 39.890625 26.703125 39.890625 
Q 22.75 39.890625 18.8125 39.015625 
Q 14.890625 38.140625 10.796875 36.28125 
z
" id="DejaVuSans-53"/>
      </defs>
      <g transform="translate(216.3252 190.878125)scale(0.12 -0.12)">
       <use xlink:href="#DejaVuSans-48"/>
       <use x="63.623047" xlink:href="#DejaVuSans-46"/>
       <use x="95.410156" xlink:href="#DejaVuSans-53"/>
      </g>
     </g>
    </g>
    <g id="xtick_3">
     <g id="line2d_3">
      <g>
       <use style="stroke:#000000;stroke-width:0.8;" x="318.835" xlink:href="#m83f2d6b611" y="174.76"/>
      </g>
     </g>
     <g id="text_3">
      <!-- 1.0 -->
      <defs>
       <path d="M 12.40625 8.296875 
L 28.515625 8.296875 
L 28.515625 63.921875 
L 10.984375 60.40625 
L 10.984375 69.390625 
L 28.421875 72.90625 
L 38.28125 72.90625 
L 38.28125 8.296875 
L 54.390625 8.296875 
L 54.390625 0 
L 12.40625 0 
z
" id="DejaVuSans-49"/>
      </defs>
      <g transform="translate(309.293125 190.878125)scale(0.12 -0.12)">
       <use xlink:href="#DejaVuSans-49"/>
       <use x="63.623047" xlink:href="#DejaVuSans-46"/>
       <use x="95.410156" xlink:href="#DejaVuSans-48"/>
      </g>
     </g>
    </g>
    <g id="xtick_4">
     <g id="line2d_4">
      <g>
       <use style="stroke:#000000;stroke-width:0.8;" x="411.802925" xlink:href="#m83f2d6b611" y="174.76"/>
      </g>
     </g>
     <g id="text_4">
      <!-- 1.5 -->
      <g transform="translate(402.26105 190.878125)scale(0.12 -0.12)">
       <use xlink:href="#DejaVuSans-49"/>
       <use x="63.623047" xlink:href="#DejaVuSans-46"/>
       <use x="95.410156" xlink:href="#DejaVuSans-53"/>
      </g>
     </g>
    </g>
    <g id="xtick_5">
     <g id="line2d_5">
      <g>
       <use style="stroke:#000000;stroke-width:0.8;" x="504.770849" xlink:href="#m83f2d6b611" y="174.76"/>
      </g>
     </g>
     <g id="text_5">
      <!-- 2.0 -->
      <defs>
       <path d="M 19.1875 8.296875 
L 53.609375 8.296875 
L 53.609375 0 
L 7.328125 0 
L 7.328125 8.296875 
Q 12.9375 14.109375 22.625 23.890625 
Q 32.328125 33.6875 34.8125 36.53125 
Q 39.546875 41.84375 41.421875 45.53125 
Q 43.3125 49.21875 43.3125 52.78125 
Q 43.3125 58.59375 39.234375 62.25 
Q 35.15625 65.921875 28.609375 65.921875 
Q 23.96875 65.921875 18.8125 64.3125 
Q 13.671875 62.703125 7.8125 59.421875 
L 7.8125 69.390625 
Q 13.765625 71.78125 18.9375 73 
Q 24.125 74.21875 28.421875 74.21875 
Q 39.75 74.21875 46.484375 68.546875 
Q 53.21875 62.890625 53.21875 53.421875 
Q 53.21875 48.921875 51.53125 44.890625 
Q 49.859375 40.875 45.40625 35.40625 
Q 44.1875 33.984375 37.640625 27.21875 
Q 31.109375 20.453125 19.1875 8.296875 
z
" id="DejaVuSans-50"/>
      </defs>
      <g transform="translate(495.228974 190.878125)scale(0.12 -0.12)">
       <use xlink:href="#DejaVuSans-50"/>
       <use x="63.623047" xlink:href="#DejaVuSans-46"/>
       <use x="95.410156" xlink:href="#DejaVuSans-48"/>
      </g>
     </g>
    </g>
    <g id="text_6">
     <!-- Time (s) -->
     <defs>
      <path d="M -0.296875 72.90625 
L 61.375 72.90625 
L 61.375 64.59375 
L 35.5 64.59375 
L 35.5 0 
L 25.59375 0 
L 25.59375 64.59375 
L -0.296875 64.59375 
z
" id="DejaVuSans-84"/>
      <path d="M 9.421875 54.6875 
L 18.40625 54.6875 
L 18.40625 0 
L 9.421875 0 
z
M 9.421875 75.984375 
L 18.40625 75.984375 
L 18.40625 64.59375 
L 9.421875 64.59375 
z
" id="DejaVuSans-105"/>
      <path d="M 52 44.1875 
Q 55.375 50.25 60.0625 53.125 
Q 64.75 56 71.09375 56 
Q 79.640625 56 84.28125 50.015625 
Q 88.921875 44.046875 88.921875 33.015625 
L 88.921875 0 
L 79.890625 0 
L 79.890625 32.71875 
Q 79.890625 40.578125 77.09375 44.375 
Q 74.3125 48.1875 68.609375 48.1875 
Q 61.625 48.1875 57.5625 43.546875 
Q 53.515625 38.921875 53.515625 30.90625 
L 53.515625 0 
L 44.484375 0 
L 44.484375 32.71875 
Q 44.484375 40.625 41.703125 44.40625 
Q 38.921875 48.1875 33.109375 48.1875 
Q 26.21875 48.1875 22.15625 43.53125 
Q 18.109375 38.875 18.109375 30.90625 
L 18.109375 0 
L 9.078125 0 
L 9.078125 54.6875 
L 18.109375 54.6875 
L 18.109375 46.1875 
Q 21.1875 51.21875 25.484375 53.609375 
Q 29.78125 56 35.6875 56 
Q 41.65625 56 45.828125 52.96875 
Q 50 49.953125 52 44.1875 
z
" id="DejaVuSans-109"/>
      <path d="M 56.203125 29.59375 
L 56.203125 25.203125 
L 14.890625 25.203125 
Q 15.484375 15.921875 20.484375 11.0625 
Q 25.484375 6.203125 34.421875 6.203125 
Q 39.59375 6.203125 44.453125 7.46875 
Q 49.3125 8.734375 54.109375 11.28125 
L 54.109375 2.78125 
Q 49.265625 0.734375 44.1875 -0.34375 
Q 39.109375 -1.421875 33.890625 -1.421875 
Q 20.796875 -1.421875 13.15625 6.1875 
Q 5.515625 13.8125 5.515625 26.8125 
Q 5.515625 40.234375 12.765625 48.109375 
Q 20.015625 56 32.328125 56 
Q 43.359375 56 49.78125 48.890625 
Q 56.203125 41.796875 56.203125 29.59375 
z
M 47.21875 32.234375 
Q 47.125 39.59375 43.09375 43.984375 
Q 39.0625 48.390625 32.421875 48.390625 
Q 24.90625 48.390625 20.390625 44.140625 
Q 15.875 39.890625 15.1875 32.171875 
z
" id="DejaVuSans-101"/>
      <path id="DejaVuSans-32"/>
      <path d="M 31 75.875 
Q 24.46875 64.65625 21.28125 53.65625 
Q 18.109375 42.671875 18.109375 31.390625 
Q 18.109375 20.125 21.3125 9.0625 
Q 24.515625 -2 31 -13.1875 
L 23.1875 -13.1875 
Q 15.875 -1.703125 12.234375 9.375 
Q 8.59375 20.453125 8.59375 31.390625 
Q 8.59375 42.28125 12.203125 53.3125 
Q 15.828125 64.359375 23.1875 75.875 
z
" id="DejaVuSans-40"/>
      <path d="M 44.28125 53.078125 
L 44.28125 44.578125 
Q 40.484375 46.53125 36.375 47.5 
Q 32.28125 48.484375 27.875 48.484375 
Q 21.1875 48.484375 17.84375 46.4375 
Q 14.5 44.390625 14.5 40.28125 
Q 14.5 37.15625 16.890625 35.375 
Q 19.28125 33.59375 26.515625 31.984375 
L 29.59375 31.296875 
Q 39.15625 29.25 43.1875 25.515625 
Q 47.21875 21.78125 47.21875 15.09375 
Q 47.21875 7.46875 41.1875 3.015625 
Q 35.15625 -1.421875 24.609375 -1.421875 
Q 20.21875 -1.421875 15.453125 -0.5625 
Q 10.6875 0.296875 5.421875 2 
L 5.421875 11.28125 
Q 10.40625 8.6875 15.234375 7.390625 
Q 20.0625 6.109375 24.8125 6.109375 
Q 31.15625 6.109375 34.5625 8.28125 
Q 37.984375 10.453125 37.984375 14.40625 
Q 37.984375 18.0625 35.515625 20.015625 
Q 33.0625 21.96875 24.703125 23.78125 
L 21.578125 24.515625 
Q 13.234375 26.265625 9.515625 29.90625 
Q 5.8125 33.546875 5.8125 39.890625 
Q 5.8125 47.609375 11.28125 51.796875 
Q 16.75 56 26.8125 56 
Q 31.78125 56 36.171875 55.265625 
Q 40.578125 54.546875 44.28125 53.078125 
z
" id="DejaVuSans-115"/>
      <path d="M 8.015625 75.875 
L 15.828125 75.875 
Q 23.140625 64.359375 26.78125 53.3125 
Q 30.421875 42.28125 30.421875 31.390625 
Q 30.421875 20.453125 26.78125 9.375 
Q 23.140625 -1.703125 15.828125 -13.1875 
L 8.015625 -13.1875 
Q 14.5 -2 17.703125 9.0625 
Q 20.90625 20.125 20.90625 31.390625 
Q 20.90625 42.671875 17.703125 53.65625 
Q 14.5 64.65625 8.015625 75.875 
z
" id="DejaVuSans-41"/>
     </defs>
     <g transform="translate(289.33975 208.3155)scale(0.144 -0.144)">
      <use xlink:href="#DejaVuSans-84"/>
      <use x="61.037109" xlink:href="#DejaVuSans-105"/>
      <use x="88.820312" xlink:href="#DejaVuSans-109"/>
      <use x="186.232422" xlink:href="#DejaVuSans-101"/>
      <use x="247.755859" xlink:href="#DejaVuSans-32"/>
      <use x="279.542969" xlink:href="#DejaVuSans-40"/>
      <use x="318.556641" xlink:href="#DejaVuSans-115"/>
      <use x="370.65625" xlink:href="#DejaVuSans-41"/>
     </g>
    </g>
   </g>
   <g id="matplotlib.axis_2">
    <g id="ytick_1">
     <g id="line2d_6">
      <defs>
       <path d="M 0 0 
L -3.5 0 
" id="m886dada38d" style="stroke:#000000;stroke-width:0.8;"/>
      </defs>
      <g>
       <use style="stroke:#000000;stroke-width:0.8;" x="72.47" xlink:href="#m886dada38d" y="174.76"/>
      </g>
     </g>
     <g id="text_7">
      <!-- 0.000 -->
      <g transform="translate(31.11625 179.319062)scale(0.12 -0.12)">
       <use xlink:href="#DejaVuSans-48"/>
       <use x="63.623047" xlink:href="#DejaVuSans-46"/>
       <use x="95.410156" xlink:href="#DejaVuSans-48"/>
       <use x="159.033203" xlink:href="#DejaVuSans-48"/>
       <use x="222.65625" xlink:href="#DejaVuSans-48"/>
      </g>
     </g>
    </g>
    <g id="ytick_2">
     <g id="line2d_7">
      <g>
       <use style="stroke:#000000;stroke-width:0.8;" x="72.47" xlink:href="#m886dada38d" y="138.341461"/>
      </g>
     </g>
     <g id="text_8">
      <!-- 0.005 -->
      <g transform="translate(31.11625 142.900524)scale(0.12 -0.12)">
       <use xlink:href="#DejaVuSans-48"/>
       <use x="63.623047" xlink:href="#DejaVuSans-46"/>
       <use x="95.410156" xlink:href="#DejaVuSans-48"/>
       <use x="159.033203" xlink:href="#DejaVuSans-48"/>
       <use x="222.65625" xlink:href="#DejaVuSans-53"/>
      </g>
     </g>
    </g>
    <g id="ytick_3">
     <g id="line2d_8">
      <g>
       <use style="stroke:#000000;stroke-width:0.8;" x="72.47" xlink:href="#m886dada38d" y="101.922923"/>
      </g>
     </g>
     <g id="text_9">
      <!-- 0.010 -->
      <g transform="translate(31.11625 106.481985)scale(0.12 -0.12)">
       <use xlink:href="#DejaVuSans-48"/>
       <use x="63.623047" xlink:href="#DejaVuSans-46"/>
       <use x="95.410156" xlink:href="#DejaVuSans-48"/>
       <use x="159.033203" xlink:href="#DejaVuSans-49"/>
       <use x="222.65625" xlink:href="#DejaVuSans-48"/>
      </g>
     </g>
    </g>
    <g id="ytick_4">
     <g id="line2d_9">
      <g>
       <use style="stroke:#000000;stroke-width:0.8;" x="72.47" xlink:href="#m886dada38d" y="65.504384"/>
      </g>
     </g>
     <g id="text_10">
      <!-- 0.015 -->
      <g transform="translate(31.11625 70.063446)scale(0.12 -0.12)">
       <use xlink:href="#DejaVuSans-48"/>
       <use x="63.623047" xlink:href="#DejaVuSans-46"/>
       <use x="95.410156" xlink:href="#DejaVuSans-48"/>
       <use x="159.033203" xlink:href="#DejaVuSans-49"/>
       <use x="222.65625" xlink:href="#DejaVuSans-53"/>
      </g>
     </g>
    </g>
    <g id="ytick_5">
     <g id="line2d_10">
      <g>
       <use style="stroke:#000000;stroke-width:0.8;" x="72.47" xlink:href="#m886dada38d" y="29.085845"/>
      </g>
     </g>
     <g id="text_11">
      <!-- 0.020 -->
      <g transform="translate(31.11625 33.644908)scale(0.12 -0.12)">
       <use xlink:href="#DejaVuSans-48"/>
       <use x="63.623047" xlink:href="#DejaVuSans-46"/>
       <use x="95.410156" xlink:href="#DejaVuSans-48"/>
       <use x="159.033203" xlink:href="#DejaVuSans-50"/>
       <use x="222.65625" xlink:href="#DejaVuSans-48"/>
      </g>
     </g>
    </g>
    <g id="text_12">
     <!-- Bin. $p$ -->
     <defs>
      <path d="M 19.671875 34.8125 
L 19.671875 8.109375 
L 35.5 8.109375 
Q 43.453125 8.109375 47.28125 11.40625 
Q 51.125 14.703125 51.125 21.484375 
Q 51.125 28.328125 47.28125 31.5625 
Q 43.453125 34.8125 35.5 34.8125 
z
M 19.671875 64.796875 
L 19.671875 42.828125 
L 34.28125 42.828125 
Q 41.5 42.828125 45.03125 45.53125 
Q 48.578125 48.25 48.578125 53.8125 
Q 48.578125 59.328125 45.03125 62.0625 
Q 41.5 64.796875 34.28125 64.796875 
z
M 9.8125 72.90625 
L 35.015625 72.90625 
Q 46.296875 72.90625 52.390625 68.21875 
Q 58.5 63.53125 58.5 54.890625 
Q 58.5 48.1875 55.375 44.234375 
Q 52.25 40.28125 46.1875 39.3125 
Q 53.46875 37.75 57.5 32.78125 
Q 61.53125 27.828125 61.53125 20.40625 
Q 61.53125 10.640625 54.890625 5.3125 
Q 48.25 0 35.984375 0 
L 9.8125 0 
z
" id="DejaVuSans-66"/>
      <path d="M 54.890625 33.015625 
L 54.890625 0 
L 45.90625 0 
L 45.90625 32.71875 
Q 45.90625 40.484375 42.875 44.328125 
Q 39.84375 48.1875 33.796875 48.1875 
Q 26.515625 48.1875 22.3125 43.546875 
Q 18.109375 38.921875 18.109375 30.90625 
L 18.109375 0 
L 9.078125 0 
L 9.078125 54.6875 
L 18.109375 54.6875 
L 18.109375 46.1875 
Q 21.34375 51.125 25.703125 53.5625 
Q 30.078125 56 35.796875 56 
Q 45.21875 56 50.046875 50.171875 
Q 54.890625 44.34375 54.890625 33.015625 
z
" id="DejaVuSans-110"/>
      <path d="M 49.609375 33.6875 
Q 49.609375 40.875 46.484375 44.671875 
Q 43.359375 48.484375 37.5 48.484375 
Q 33.5 48.484375 29.859375 46.4375 
Q 26.21875 44.390625 23.390625 40.484375 
Q 20.609375 36.625 18.9375 31.15625 
Q 17.28125 25.6875 17.28125 20.3125 
Q 17.28125 13.484375 20.40625 9.796875 
Q 23.53125 6.109375 29.296875 6.109375 
Q 33.546875 6.109375 37.1875 8.109375 
Q 40.828125 10.109375 43.40625 13.921875 
Q 46.1875 17.921875 47.890625 23.34375 
Q 49.609375 28.765625 49.609375 33.6875 
z
M 21.78125 46.390625 
Q 25.390625 51.125 30.296875 53.5625 
Q 35.203125 56 41.21875 56 
Q 49.609375 56 54.25 50.5 
Q 58.890625 45.015625 58.890625 35.109375 
Q 58.890625 27 56 19.65625 
Q 53.125 12.3125 47.703125 6.5 
Q 44.09375 2.640625 39.546875 0.609375 
Q 35.015625 -1.421875 29.984375 -1.421875 
Q 24.171875 -1.421875 20.21875 1 
Q 16.265625 3.421875 14.3125 8.203125 
L 8.6875 -20.796875 
L -0.296875 -20.796875 
L 14.40625 54.6875 
L 23.390625 54.6875 
z
" id="DejaVuSans-Oblique-112"/>
     </defs>
     <g transform="translate(24.09225 121.484)rotate(-90)scale(0.144 -0.144)">
      <use transform="translate(0 0.015625)" xlink:href="#DejaVuSans-66"/>
      <use transform="translate(68.603516 0.015625)" xlink:href="#DejaVuSans-105"/>
      <use transform="translate(96.386719 0.015625)" xlink:href="#DejaVuSans-110"/>
      <use transform="translate(159.765625 0.015625)" xlink:href="#DejaVuSans-46"/>
      <use transform="translate(191.552734 0.015625)" xlink:href="#DejaVuSans-32"/>
      <use transform="translate(223.339844 0.015625)" xlink:href="#DejaVuSans-Oblique-112"/>
     </g>
    </g>
   </g>
   <g id="line2d_11">
    <path clip-path="url(#pbf0a62e517)" d="M 72.47 31.444158 
L 76.188717 31.526312 
L 81.766792 32.270534 
L 85.485509 32.635396 
L 89.204226 33.232223 
L 91.063585 33.198395 
L 96.64166 33.993359 
L 98.501019 34.015106 
L 100.360377 34.259153 
L 107.797811 33.957115 
L 113.375887 34.261569 
L 115.235245 34.150419 
L 120.813321 34.370303 
L 128.250755 33.394116 
L 130.110113 33.560841 
L 131.969472 33.355455 
L 137.547547 33.251554 
L 139.406906 33.065498 
L 141.266264 32.724799 
L 146.84434 32.401015 
L 148.703698 32.074814 
L 156.141132 31.270184 
L 158.000491 31.204944 
L 159.859849 30.876327 
L 163.578566 30.564623 
L 167.297283 30.629864 
L 169.156642 30.417229 
L 171.016 30.327825 
L 172.875358 30.513881 
L 174.734717 30.45589 
L 178.453434 30.760344 
L 180.312792 31.16145 
L 182.172151 30.982644 
L 184.031509 30.924653 
L 185.890868 30.728932 
L 187.750226 30.67819 
L 189.609585 30.741014 
L 191.468943 30.627447 
L 197.047019 31.166283 
L 198.906377 31.463489 
L 206.343811 32.082062 
L 208.20317 32.3841 
L 211.921887 32.473504 
L 213.781245 32.49525 
L 215.640604 32.688555 
L 219.359321 32.490418 
L 221.218679 32.666808 
L 223.078038 33.060666 
L 226.796755 33.389283 
L 230.515472 33.519763 
L 232.37483 33.539094 
L 236.093547 33.858046 
L 241.671623 34.23499 
L 243.530981 34.466955 
L 245.39034 34.505616 
L 247.249698 34.689255 
L 249.109057 34.566023 
L 250.968415 34.619182 
L 252.827774 34.81007 
L 254.687132 34.549109 
L 256.546491 34.706169 
L 258.405849 34.747246 
L 262.124566 34.578105 
L 269.562 34.682006 
L 271.421358 34.49595 
L 273.280717 34.445208 
L 276.999434 34.860812 
L 278.858792 34.872894 
L 280.718151 35.03237 
L 282.577509 34.991293 
L 284.436868 35.261919 
L 286.296226 35.317494 
L 288.155585 34.998542 
L 290.014943 34.843898 
L 295.593019 34.696504 
L 297.452377 34.626431 
L 299.311736 34.708585 
L 301.171094 34.529779 
L 303.030453 34.636096 
L 304.889811 34.609517 
L 306.74917 34.834233 
L 308.608528 34.897057 
L 314.186604 34.488702 
L 316.045962 34.505616 
L 317.905321 34.360637 
L 319.764679 34.394466 
L 321.624038 34.167333 
L 323.483396 34.27365 
L 327.202113 33.720317 
L 330.92083 33.961947 
L 332.780189 33.853213 
L 336.498906 34.104509 
L 340.217623 33.952282 
L 342.076981 33.616416 
L 347.655057 33.316794 
L 355.092491 31.98541 
L 356.951849 31.893591 
L 360.670566 31.388583 
L 362.529925 31.644711 
L 364.389283 31.608467 
L 373.686075 32.132805 
L 375.545434 32.14247 
L 377.404792 31.999908 
L 381.123509 32.14247 
L 382.982868 32.094144 
L 384.842226 32.45659 
L 386.701585 32.645061 
L 388.560943 32.570156 
L 390.420302 32.666808 
L 397.857736 31.987827 
L 401.576453 32.152135 
L 410.873245 32.101393 
L 412.732604 32.301946 
L 414.591962 32.359937 
L 416.451321 32.787623 
L 420.170038 33.29988 
L 425.748113 33.536678 
L 429.46683 33.889458 
L 431.326189 33.758978 
L 435.044906 33.778308 
L 444.341698 34.186663 
L 446.201057 34.196329 
L 448.060415 33.928119 
L 451.779132 33.978861 
L 457.357208 33.203228 
L 461.075925 32.14247 
L 462.935283 31.927419 
L 464.794642 31.589136 
L 468.513358 31.610883 
L 472.232075 32.033736 
L 474.091434 32.045818 
L 475.950792 32.178715 
L 477.810151 32.079646 
L 483.388226 32.135221 
L 485.247585 32.292281 
L 487.106943 32.171466 
L 488.966302 32.231873 
L 490.82566 31.794522 
L 505.700528 30.796589 
L 511.278604 30.622615 
L 518.716038 30.36407 
L 520.575396 30.01129 
L 522.434755 30.151435 
L 526.153472 29.87356 
L 531.731547 30.071697 
L 533.590906 30.332658 
L 535.450264 30.412396 
L 537.309623 30.354405 
L 542.887698 30.516297 
L 548.465774 30.27225 
L 552.184491 29.779324 
L 555.903208 29.47487 
L 559.621925 29.269484 
L 561.481283 29.071347 
L 563.340642 28.706485 
L 565.2 28.839382 
L 565.2 28.839382 
" style="fill:none;stroke:#0000ff;stroke-linecap:square;stroke-width:1.5;"/>
   </g>
   <g id="patch_3">
    <path d="M 72.47 174.76 
L 72.47 26.88 
" style="fill:none;stroke:#000000;stroke-linecap:square;stroke-linejoin:miter;stroke-width:0.8;"/>
   </g>
   <g id="patch_4">
    <path d="M 565.2 174.76 
L 565.2 26.88 
" style="fill:none;stroke:#000000;stroke-linecap:square;stroke-linejoin:miter;stroke-width:0.8;"/>
   </g>
   <g id="patch_5">
    <path d="M 72.47 174.76 
L 565.2 174.76 
" style="fill:none;stroke:#000000;stroke-linecap:square;stroke-linejoin:miter;stroke-width:0.8;"/>
   </g>
   <g id="patch_6">
    <path d="M 72.47 26.88 
L 565.2 26.88 
" style="fill:none;stroke:#000000;stroke-linecap:square;stroke-linejoin:miter;stroke-width:0.8;"/>
   </g>
   <g id="text_13">
    <!-- Motor cortex, Num Trials=160 All stimulated trials, Num cells = 471 -->
    <defs>
     <path d="M 9.8125 72.90625 
L 24.515625 72.90625 
L 43.109375 23.296875 
L 61.8125 72.90625 
L 76.515625 72.90625 
L 76.515625 0 
L 66.890625 0 
L 66.890625 64.015625 
L 48.09375 14.015625 
L 38.1875 14.015625 
L 19.390625 64.015625 
L 19.390625 0 
L 9.8125 0 
z
" id="DejaVuSans-77"/>
     <path d="M 30.609375 48.390625 
Q 23.390625 48.390625 19.1875 42.75 
Q 14.984375 37.109375 14.984375 27.296875 
Q 14.984375 17.484375 19.15625 11.84375 
Q 23.34375 6.203125 30.609375 6.203125 
Q 37.796875 6.203125 41.984375 11.859375 
Q 46.1875 17.53125 46.1875 27.296875 
Q 46.1875 37.015625 41.984375 42.703125 
Q 37.796875 48.390625 30.609375 48.390625 
z
M 30.609375 56 
Q 42.328125 56 49.015625 48.375 
Q 55.71875 40.765625 55.71875 27.296875 
Q 55.71875 13.875 49.015625 6.21875 
Q 42.328125 -1.421875 30.609375 -1.421875 
Q 18.84375 -1.421875 12.171875 6.21875 
Q 5.515625 13.875 5.515625 27.296875 
Q 5.515625 40.765625 12.171875 48.375 
Q 18.84375 56 30.609375 56 
z
" id="DejaVuSans-111"/>
     <path d="M 18.3125 70.21875 
L 18.3125 54.6875 
L 36.8125 54.6875 
L 36.8125 47.703125 
L 18.3125 47.703125 
L 18.3125 18.015625 
Q 18.3125 11.328125 20.140625 9.421875 
Q 21.96875 7.515625 27.59375 7.515625 
L 36.8125 7.515625 
L 36.8125 0 
L 27.59375 0 
Q 17.1875 0 13.234375 3.875 
Q 9.28125 7.765625 9.28125 18.015625 
L 9.28125 47.703125 
L 2.6875 47.703125 
L 2.6875 54.6875 
L 9.28125 54.6875 
L 9.28125 70.21875 
z
" id="DejaVuSans-116"/>
     <path d="M 41.109375 46.296875 
Q 39.59375 47.171875 37.8125 47.578125 
Q 36.03125 48 33.890625 48 
Q 26.265625 48 22.1875 43.046875 
Q 18.109375 38.09375 18.109375 28.8125 
L 18.109375 0 
L 9.078125 0 
L 9.078125 54.6875 
L 18.109375 54.6875 
L 18.109375 46.1875 
Q 20.953125 51.171875 25.484375 53.578125 
Q 30.03125 56 36.53125 56 
Q 37.453125 56 38.578125 55.875 
Q 39.703125 55.765625 41.0625 55.515625 
z
" id="DejaVuSans-114"/>
     <path d="M 48.78125 52.59375 
L 48.78125 44.1875 
Q 44.96875 46.296875 41.140625 47.34375 
Q 37.3125 48.390625 33.40625 48.390625 
Q 24.65625 48.390625 19.8125 42.84375 
Q 14.984375 37.3125 14.984375 27.296875 
Q 14.984375 17.28125 19.8125 11.734375 
Q 24.65625 6.203125 33.40625 6.203125 
Q 37.3125 6.203125 41.140625 7.25 
Q 44.96875 8.296875 48.78125 10.40625 
L 48.78125 2.09375 
Q 45.015625 0.34375 40.984375 -0.53125 
Q 36.96875 -1.421875 32.421875 -1.421875 
Q 20.0625 -1.421875 12.78125 6.34375 
Q 5.515625 14.109375 5.515625 27.296875 
Q 5.515625 40.671875 12.859375 48.328125 
Q 20.21875 56 33.015625 56 
Q 37.15625 56 41.109375 55.140625 
Q 45.0625 54.296875 48.78125 52.59375 
z
" id="DejaVuSans-99"/>
     <path d="M 54.890625 54.6875 
L 35.109375 28.078125 
L 55.90625 0 
L 45.3125 0 
L 29.390625 21.484375 
L 13.484375 0 
L 2.875 0 
L 24.125 28.609375 
L 4.6875 54.6875 
L 15.28125 54.6875 
L 29.78125 35.203125 
L 44.28125 54.6875 
z
" id="DejaVuSans-120"/>
     <path d="M 11.71875 12.40625 
L 22.015625 12.40625 
L 22.015625 4 
L 14.015625 -11.625 
L 7.71875 -11.625 
L 11.71875 4 
z
" id="DejaVuSans-44"/>
     <path d="M 9.8125 72.90625 
L 23.09375 72.90625 
L 55.421875 11.921875 
L 55.421875 72.90625 
L 64.984375 72.90625 
L 64.984375 0 
L 51.703125 0 
L 19.390625 60.984375 
L 19.390625 0 
L 9.8125 0 
z
" id="DejaVuSans-78"/>
     <path d="M 8.5 21.578125 
L 8.5 54.6875 
L 17.484375 54.6875 
L 17.484375 21.921875 
Q 17.484375 14.15625 20.5 10.265625 
Q 23.53125 6.390625 29.59375 6.390625 
Q 36.859375 6.390625 41.078125 11.03125 
Q 45.3125 15.671875 45.3125 23.6875 
L 45.3125 54.6875 
L 54.296875 54.6875 
L 54.296875 0 
L 45.3125 0 
L 45.3125 8.40625 
Q 42.046875 3.421875 37.71875 1 
Q 33.40625 -1.421875 27.6875 -1.421875 
Q 18.265625 -1.421875 13.375 4.4375 
Q 8.5 10.296875 8.5 21.578125 
z
M 31.109375 56 
z
" id="DejaVuSans-117"/>
     <path d="M 34.28125 27.484375 
Q 23.390625 27.484375 19.1875 25 
Q 14.984375 22.515625 14.984375 16.5 
Q 14.984375 11.71875 18.140625 8.90625 
Q 21.296875 6.109375 26.703125 6.109375 
Q 34.1875 6.109375 38.703125 11.40625 
Q 43.21875 16.703125 43.21875 25.484375 
L 43.21875 27.484375 
z
M 52.203125 31.203125 
L 52.203125 0 
L 43.21875 0 
L 43.21875 8.296875 
Q 40.140625 3.328125 35.546875 0.953125 
Q 30.953125 -1.421875 24.3125 -1.421875 
Q 15.921875 -1.421875 10.953125 3.296875 
Q 6 8.015625 6 15.921875 
Q 6 25.140625 12.171875 29.828125 
Q 18.359375 34.515625 30.609375 34.515625 
L 43.21875 34.515625 
L 43.21875 35.40625 
Q 43.21875 41.609375 39.140625 45 
Q 35.0625 48.390625 27.6875 48.390625 
Q 23 48.390625 18.546875 47.265625 
Q 14.109375 46.140625 10.015625 43.890625 
L 10.015625 52.203125 
Q 14.9375 54.109375 19.578125 55.046875 
Q 24.21875 56 28.609375 56 
Q 40.484375 56 46.34375 49.84375 
Q 52.203125 43.703125 52.203125 31.203125 
z
" id="DejaVuSans-97"/>
     <path d="M 9.421875 75.984375 
L 18.40625 75.984375 
L 18.40625 0 
L 9.421875 0 
z
" id="DejaVuSans-108"/>
     <path d="M 10.59375 45.40625 
L 73.1875 45.40625 
L 73.1875 37.203125 
L 10.59375 37.203125 
z
M 10.59375 25.484375 
L 73.1875 25.484375 
L 73.1875 17.1875 
L 10.59375 17.1875 
z
" id="DejaVuSans-61"/>
     <path d="M 33.015625 40.375 
Q 26.375 40.375 22.484375 35.828125 
Q 18.609375 31.296875 18.609375 23.390625 
Q 18.609375 15.53125 22.484375 10.953125 
Q 26.375 6.390625 33.015625 6.390625 
Q 39.65625 6.390625 43.53125 10.953125 
Q 47.40625 15.53125 47.40625 23.390625 
Q 47.40625 31.296875 43.53125 35.828125 
Q 39.65625 40.375 33.015625 40.375 
z
M 52.59375 71.296875 
L 52.59375 62.3125 
Q 48.875 64.0625 45.09375 64.984375 
Q 41.3125 65.921875 37.59375 65.921875 
Q 27.828125 65.921875 22.671875 59.328125 
Q 17.53125 52.734375 16.796875 39.40625 
Q 19.671875 43.65625 24.015625 45.921875 
Q 28.375 48.1875 33.59375 48.1875 
Q 44.578125 48.1875 50.953125 41.515625 
Q 57.328125 34.859375 57.328125 23.390625 
Q 57.328125 12.15625 50.6875 5.359375 
Q 44.046875 -1.421875 33.015625 -1.421875 
Q 20.359375 -1.421875 13.671875 8.265625 
Q 6.984375 17.96875 6.984375 36.375 
Q 6.984375 53.65625 15.1875 63.9375 
Q 23.390625 74.21875 37.203125 74.21875 
Q 40.921875 74.21875 44.703125 73.484375 
Q 48.484375 72.75 52.59375 71.296875 
z
" id="DejaVuSans-54"/>
     <path d="M 34.1875 63.1875 
L 20.796875 26.90625 
L 47.609375 26.90625 
z
M 28.609375 72.90625 
L 39.796875 72.90625 
L 67.578125 0 
L 57.328125 0 
L 50.6875 18.703125 
L 17.828125 18.703125 
L 11.1875 0 
L 0.78125 0 
z
" id="DejaVuSans-65"/>
     <path d="M 45.40625 46.390625 
L 45.40625 75.984375 
L 54.390625 75.984375 
L 54.390625 0 
L 45.40625 0 
L 45.40625 8.203125 
Q 42.578125 3.328125 38.25 0.953125 
Q 33.9375 -1.421875 27.875 -1.421875 
Q 17.96875 -1.421875 11.734375 6.484375 
Q 5.515625 14.40625 5.515625 27.296875 
Q 5.515625 40.1875 11.734375 48.09375 
Q 17.96875 56 27.875 56 
Q 33.9375 56 38.25 53.625 
Q 42.578125 51.265625 45.40625 46.390625 
z
M 14.796875 27.296875 
Q 14.796875 17.390625 18.875 11.75 
Q 22.953125 6.109375 30.078125 6.109375 
Q 37.203125 6.109375 41.296875 11.75 
Q 45.40625 17.390625 45.40625 27.296875 
Q 45.40625 37.203125 41.296875 42.84375 
Q 37.203125 48.484375 30.078125 48.484375 
Q 22.953125 48.484375 18.875 42.84375 
Q 14.796875 37.203125 14.796875 27.296875 
z
" id="DejaVuSans-100"/>
     <path d="M 37.796875 64.3125 
L 12.890625 25.390625 
L 37.796875 25.390625 
z
M 35.203125 72.90625 
L 47.609375 72.90625 
L 47.609375 25.390625 
L 58.015625 25.390625 
L 58.015625 17.1875 
L 47.609375 17.1875 
L 47.609375 0 
L 37.796875 0 
L 37.796875 17.1875 
L 4.890625 17.1875 
L 4.890625 26.703125 
z
" id="DejaVuSans-52"/>
     <path d="M 8.203125 72.90625 
L 55.078125 72.90625 
L 55.078125 68.703125 
L 28.609375 0 
L 18.3125 0 
L 43.21875 64.59375 
L 8.203125 64.59375 
z
" id="DejaVuSans-55"/>
    </defs>
    <g transform="translate(114.265 20.88)scale(0.12 -0.12)">
     <use xlink:href="#DejaVuSans-77"/>
     <use x="86.279297" xlink:href="#DejaVuSans-111"/>
     <use x="147.460938" xlink:href="#DejaVuSans-116"/>
     <use x="186.669922" xlink:href="#DejaVuSans-111"/>
     <use x="247.851562" xlink:href="#DejaVuSans-114"/>
     <use x="288.964844" xlink:href="#DejaVuSans-32"/>
     <use x="320.751953" xlink:href="#DejaVuSans-99"/>
     <use x="375.732422" xlink:href="#DejaVuSans-111"/>
     <use x="436.914062" xlink:href="#DejaVuSans-114"/>
     <use x="478.027344" xlink:href="#DejaVuSans-116"/>
     <use x="517.236328" xlink:href="#DejaVuSans-101"/>
     <use x="578.744141" xlink:href="#DejaVuSans-120"/>
     <use x="637.923828" xlink:href="#DejaVuSans-44"/>
     <use x="669.710938" xlink:href="#DejaVuSans-32"/>
     <use x="701.498047" xlink:href="#DejaVuSans-78"/>
     <use x="776.302734" xlink:href="#DejaVuSans-117"/>
     <use x="839.681641" xlink:href="#DejaVuSans-109"/>
     <use x="937.09375" xlink:href="#DejaVuSans-32"/>
     <use x="968.880859" xlink:href="#DejaVuSans-84"/>
     <use x="1029.746094" xlink:href="#DejaVuSans-114"/>
     <use x="1070.859375" xlink:href="#DejaVuSans-105"/>
     <use x="1098.642578" xlink:href="#DejaVuSans-97"/>
     <use x="1159.921875" xlink:href="#DejaVuSans-108"/>
     <use x="1187.705078" xlink:href="#DejaVuSans-115"/>
     <use x="1239.804688" xlink:href="#DejaVuSans-61"/>
     <use x="1323.59375" xlink:href="#DejaVuSans-49"/>
     <use x="1387.216797" xlink:href="#DejaVuSans-54"/>
     <use x="1450.839844" xlink:href="#DejaVuSans-48"/>
     <use x="1514.462891" xlink:href="#DejaVuSans-32"/>
     <use x="1546.25" xlink:href="#DejaVuSans-65"/>
     <use x="1614.658203" xlink:href="#DejaVuSans-108"/>
     <use x="1642.441406" xlink:href="#DejaVuSans-108"/>
     <use x="1670.224609" xlink:href="#DejaVuSans-32"/>
     <use x="1702.011719" xlink:href="#DejaVuSans-115"/>
     <use x="1754.111328" xlink:href="#DejaVuSans-116"/>
     <use x="1793.320312" xlink:href="#DejaVuSans-105"/>
     <use x="1821.103516" xlink:href="#DejaVuSans-109"/>
     <use x="1918.515625" xlink:href="#DejaVuSans-117"/>
     <use x="1981.894531" xlink:href="#DejaVuSans-108"/>
     <use x="2009.677734" xlink:href="#DejaVuSans-97"/>
     <use x="2070.957031" xlink:href="#DejaVuSans-116"/>
     <use x="2110.166016" xlink:href="#DejaVuSans-101"/>
     <use x="2171.689453" xlink:href="#DejaVuSans-100"/>
     <use x="2235.166016" xlink:href="#DejaVuSans-32"/>
     <use x="2266.953125" xlink:href="#DejaVuSans-116"/>
     <use x="2306.162109" xlink:href="#DejaVuSans-114"/>
     <use x="2347.275391" xlink:href="#DejaVuSans-105"/>
     <use x="2375.058594" xlink:href="#DejaVuSans-97"/>
     <use x="2436.337891" xlink:href="#DejaVuSans-108"/>
     <use x="2464.121094" xlink:href="#DejaVuSans-115"/>
     <use x="2516.220703" xlink:href="#DejaVuSans-44"/>
     <use x="2548.007812" xlink:href="#DejaVuSans-32"/>
     <use x="2579.794922" xlink:href="#DejaVuSans-78"/>
     <use x="2654.599609" xlink:href="#DejaVuSans-117"/>
     <use x="2717.978516" xlink:href="#DejaVuSans-109"/>
     <use x="2815.390625" xlink:href="#DejaVuSans-32"/>
     <use x="2847.177734" xlink:href="#DejaVuSans-99"/>
     <use x="2902.158203" xlink:href="#DejaVuSans-101"/>
     <use x="2963.681641" xlink:href="#DejaVuSans-108"/>
     <use x="2991.464844" xlink:href="#DejaVuSans-108"/>
     <use x="3019.248047" xlink:href="#DejaVuSans-115"/>
     <use x="3071.347656" xlink:href="#DejaVuSans-32"/>
     <use x="3103.134766" xlink:href="#DejaVuSans-61"/>
     <use x="3186.923828" xlink:href="#DejaVuSans-32"/>
     <use x="3218.710938" xlink:href="#DejaVuSans-52"/>
     <use x="3282.333984" xlink:href="#DejaVuSans-55"/>
     <use x="3345.957031" xlink:href="#DejaVuSans-49"/>
    </g>
   </g>
   <g id="legend_1">
    <g id="patch_7">
     <path d="M 80.87 168.76 
L 182.99 168.76 
Q 185.39 168.76 185.39 166.36 
L 185.39 132.30625 
Q 185.39 129.90625 182.99 129.90625 
L 80.87 129.90625 
Q 78.47 129.90625 78.47 132.30625 
L 78.47 166.36 
Q 78.47 168.76 80.87 168.76 
z
" style="fill:#ffffff;opacity:0.8;stroke:#cccccc;stroke-linejoin:miter;"/>
    </g>
    <g id="line2d_12">
     <path d="M 83.27 139.62625 
L 107.27 139.62625 
" style="fill:none;stroke:#0000ff;stroke-linecap:square;stroke-width:1.5;"/>
    </g>
    <g id="line2d_13"/>
    <g id="text_14">
     <!-- Binomial $p$ -->
     <g transform="translate(116.87 143.82625)scale(0.12 -0.12)">
      <use transform="translate(0 0.015625)" xlink:href="#DejaVuSans-66"/>
      <use transform="translate(68.603516 0.015625)" xlink:href="#DejaVuSans-105"/>
      <use transform="translate(96.386719 0.015625)" xlink:href="#DejaVuSans-110"/>
      <use transform="translate(159.765625 0.015625)" xlink:href="#DejaVuSans-111"/>
      <use transform="translate(220.947266 0.015625)" xlink:href="#DejaVuSans-109"/>
      <use transform="translate(318.359375 0.015625)" xlink:href="#DejaVuSans-105"/>
      <use transform="translate(346.142578 0.015625)" xlink:href="#DejaVuSans-97"/>
      <use transform="translate(407.421875 0.015625)" xlink:href="#DejaVuSans-108"/>
      <use transform="translate(435.205078 0.015625)" xlink:href="#DejaVuSans-32"/>
      <use transform="translate(466.992188 0.015625)" xlink:href="#DejaVuSans-Oblique-112"/>
     </g>
    </g>
    <g id="patch_8">
     <path d="M 83.27 161.464375 
L 107.27 161.464375 
L 107.27 153.064375 
L 83.27 153.064375 
z
" style="fill:#0000ff;opacity:0.3;stroke:#0000ff;stroke-linejoin:miter;"/>
    </g>
    <g id="text_15">
     <!-- Std. Err. -->
     <defs>
      <path d="M 53.515625 70.515625 
L 53.515625 60.890625 
Q 47.90625 63.578125 42.921875 64.890625 
Q 37.9375 66.21875 33.296875 66.21875 
Q 25.25 66.21875 20.875 63.09375 
Q 16.5 59.96875 16.5 54.203125 
Q 16.5 49.359375 19.40625 46.890625 
Q 22.3125 44.4375 30.421875 42.921875 
L 36.375 41.703125 
Q 47.40625 39.59375 52.65625 34.296875 
Q 57.90625 29 57.90625 20.125 
Q 57.90625 9.515625 50.796875 4.046875 
Q 43.703125 -1.421875 29.984375 -1.421875 
Q 24.8125 -1.421875 18.96875 -0.25 
Q 13.140625 0.921875 6.890625 3.21875 
L 6.890625 13.375 
Q 12.890625 10.015625 18.65625 8.296875 
Q 24.421875 6.59375 29.984375 6.59375 
Q 38.421875 6.59375 43.015625 9.90625 
Q 47.609375 13.234375 47.609375 19.390625 
Q 47.609375 24.75 44.3125 27.78125 
Q 41.015625 30.8125 33.5 32.328125 
L 27.484375 33.5 
Q 16.453125 35.6875 11.515625 40.375 
Q 6.59375 45.0625 6.59375 53.421875 
Q 6.59375 63.09375 13.40625 68.65625 
Q 20.21875 74.21875 32.171875 74.21875 
Q 37.3125 74.21875 42.625 73.28125 
Q 47.953125 72.359375 53.515625 70.515625 
z
" id="DejaVuSans-83"/>
      <path d="M 9.8125 72.90625 
L 55.90625 72.90625 
L 55.90625 64.59375 
L 19.671875 64.59375 
L 19.671875 43.015625 
L 54.390625 43.015625 
L 54.390625 34.71875 
L 19.671875 34.71875 
L 19.671875 8.296875 
L 56.78125 8.296875 
L 56.78125 0 
L 9.8125 0 
z
" id="DejaVuSans-69"/>
     </defs>
     <g transform="translate(116.87 161.464375)scale(0.12 -0.12)">
      <use xlink:href="#DejaVuSans-83"/>
      <use x="63.476562" xlink:href="#DejaVuSans-116"/>
      <use x="102.685547" xlink:href="#DejaVuSans-100"/>
      <use x="166.162109" xlink:href="#DejaVuSans-46"/>
      <use x="197.949219" xlink:href="#DejaVuSans-32"/>
      <use x="229.736328" xlink:href="#DejaVuSans-69"/>
      <use x="292.919922" xlink:href="#DejaVuSans-114"/>
      <use x="334.017578" xlink:href="#DejaVuSans-114"/>
      <use x="374.990234" xlink:href="#DejaVuSans-46"/>
     </g>
    </g>
   </g>
  </g>
 </g>
 <defs>
  <clipPath id="pbf0a62e517">
   <rect height="147.88" width="492.73" x="72.47" y="26.88"/>
  </clipPath>
 </defs>
</svg>
