<?xml version="1.0" encoding="utf-8" standalone="no"?>
<!DOCTYPE svg PUBLIC "-//W3C//DTD SVG 1.1//EN"
  "http://www.w3.org/Graphics/SVG/1.1/DTD/svg11.dtd">
<!-- Created with matplotlib (https://matplotlib.org/) -->
<svg height="216pt" version="1.1" viewBox="0 0 648 216" width="648pt" xmlns="http://www.w3.org/2000/svg" xmlns:xlink="http://www.w3.org/1999/xlink">
 <defs>
  <style type="text/css">
*{stroke-linecap:butt;stroke-linejoin:round;}
  </style>
 </defs>
 <g id="figure_1">
  <g id="patch_1">
   <path d="M 0 216 
L 648 216 
L 648 0 
L 0 0 
z
" style="fill:#ffffff;"/>
  </g>
  <g id="axes_1">
   <g id="patch_2">
    <path d="M 81 192.24 
L 583.2 192.24 
L 583.2 25.92 
L 81 25.92 
z
" style="fill:#ffffff;"/>
   </g>
   <g id="PolyCollection_1">
    <defs>
     <path d="M 142.590566 -23.76 
L 142.590566 -190.08 
L 426.854717 -190.08 
L 426.854717 -23.76 
L 426.854717 -23.76 
L 142.590566 -23.76 
z
" id="m0f19de00f6" style="stroke:#808080;stroke-opacity:0.3;"/>
    </defs>
    <g clip-path="url(#p6c6ca8e465)">
     <use style="fill:#808080;fill-opacity:0.3;stroke:#808080;stroke-opacity:0.3;" x="0" xlink:href="#m0f19de00f6" y="216"/>
    </g>
   </g>
   <g id="PolyCollection_2">
    <defs>
     <path d="M 81 -69.427006 
L 81 -31.654989 
L 82.895094 -33.903136 
L 84.790189 -34.087665 
L 86.685283 -34.968458 
L 88.580377 -33.419545 
L 90.475472 -30.212106 
L 92.370566 -24.285678 
L 94.26566 -23.76 
L 96.160755 -25.417897 
L 98.055849 -26.990391 
L 99.950943 -27.345707 
L 101.846038 -29.166569 
L 103.741132 -26.783374 
L 105.636226 -27.51947 
L 107.531321 -30.11141 
L 109.426415 -54.704447 
L 111.321509 -58.308573 
L 113.216604 -54.661167 
L 115.111698 -49.676435 
L 117.006792 -48.773884 
L 118.901887 -48.772736 
L 120.796981 -48.656763 
L 122.692075 -43.048198 
L 124.58717 -39.539502 
L 126.482264 -36.218054 
L 128.377358 -32.809165 
L 130.272453 -31.582861 
L 132.167547 -31.49877 
L 134.062642 -29.9007 
L 135.957736 -32.796864 
L 137.85283 -39.557502 
L 139.747925 -40.384817 
L 141.643019 -45.029782 
L 143.538113 -47.497747 
L 145.433208 -43.788321 
L 147.328302 -53.221179 
L 149.223396 -58.51957 
L 151.118491 -53.258601 
L 153.013585 -51.686083 
L 154.908679 -52.648123 
L 156.803774 -53.528915 
L 158.698868 -58.239851 
L 160.593962 -60.294436 
L 162.489057 -59.35241 
L 164.384151 -63.339341 
L 166.279245 -63.757524 
L 168.17434 -69.640774 
L 170.069434 -75.485399 
L 171.964528 -78.019294 
L 173.859623 -78.43879 
L 175.754717 -77.778335 
L 177.649811 -79.729893 
L 179.544906 -81.848082 
L 181.44 -83.139279 
L 183.335094 -79.672486 
L 185.230189 -62.351457 
L 187.125283 -59.725363 
L 189.020377 -56.785944 
L 190.915472 -62.038282 
L 192.810566 -69.135293 
L 194.70566 -72.941868 
L 196.600755 -74.884955 
L 198.495849 -79.06363 
L 200.390943 -81.083889 
L 202.286038 -86.008741 
L 204.181132 -87.242491 
L 206.076226 -89.249205 
L 207.971321 -86.072182 
L 209.866415 -85.644308 
L 211.761509 -85.196426 
L 213.656604 -85.201897 
L 215.551698 -84.280791 
L 217.446792 -84.091802 
L 219.341887 -82.268611 
L 221.236981 -83.806071 
L 223.132075 -77.708114 
L 225.02717 -77.774641 
L 226.922264 -83.617041 
L 228.817358 -84.54224 
L 230.712453 -84.15408 
L 232.607547 -83.792527 
L 234.502642 -81.577625 
L 236.397736 -78.492738 
L 238.29283 -78.893344 
L 240.187925 -82.192607 
L 242.083019 -87.268232 
L 243.978113 -89.607702 
L 245.873208 -88.787298 
L 247.768302 -85.67869 
L 249.663396 -84.96839 
L 251.558491 -84.86913 
L 253.453585 -80.984684 
L 255.348679 -82.089031 
L 257.243774 -83.485571 
L 259.138868 -80.702544 
L 261.033962 -77.44903 
L 262.929057 -82.960161 
L 264.824151 -84.189815 
L 266.719245 -83.521343 
L 268.61434 -83.305388 
L 270.509434 -91.434394 
L 272.404528 -86.984909 
L 274.299623 -84.826994 
L 276.194717 -82.715886 
L 278.089811 -84.348596 
L 279.984906 -85.50546 
L 281.88 -85.761746 
L 283.775094 -83.80019 
L 285.670189 -83.117536 
L 287.565283 -83.355494 
L 289.460377 -87.593385 
L 291.355472 -86.762349 
L 293.250566 -90.240376 
L 295.14566 -88.880354 
L 297.040755 -91.284286 
L 298.935849 -92.099499 
L 300.830943 -90.775063 
L 302.726038 -92.009444 
L 304.621132 -90.794775 
L 306.516226 -91.519562 
L 308.411321 -93.883624 
L 310.306415 -93.693859 
L 312.201509 -95.790406 
L 314.096604 -97.80791 
L 315.991698 -96.61431 
L 317.886792 -99.95945 
L 319.781887 -100.381932 
L 321.676981 -104.645695 
L 323.572075 -101.244818 
L 325.46717 -101.470747 
L 327.362264 -99.640544 
L 329.257358 -99.228234 
L 331.152453 -96.817585 
L 333.047547 -95.12023 
L 334.942642 -96.876854 
L 336.837736 -100.382897 
L 338.73283 -99.700758 
L 340.627925 -95.554176 
L 342.523019 -91.979817 
L 344.418113 -89.017823 
L 346.313208 -78.357872 
L 348.208302 -73.638273 
L 350.103396 -68.503008 
L 351.998491 -68.965006 
L 353.893585 -66.625732 
L 355.788679 -65.101046 
L 357.683774 -62.948221 
L 359.578868 -64.782996 
L 361.473962 -63.383137 
L 363.369057 -63.968022 
L 365.264151 -62.437499 
L 367.159245 -65.062488 
L 369.05434 -69.034779 
L 370.949434 -70.307977 
L 372.844528 -69.718466 
L 374.739623 -75.13101 
L 376.634717 -75.047617 
L 378.529811 -78.366469 
L 380.424906 -84.003581 
L 382.32 -86.350335 
L 384.215094 -85.455499 
L 386.110189 -87.046258 
L 388.005283 -83.64161 
L 389.900377 -89.5039 
L 391.795472 -87.768137 
L 393.690566 -86.254218 
L 395.58566 -89.022171 
L 397.480755 -94.618896 
L 399.375849 -99.57484 
L 401.270943 -100.972952 
L 403.166038 -101.929177 
L 405.061132 -113.244845 
L 406.956226 -114.497715 
L 408.851321 -117.640265 
L 410.746415 -124.416564 
L 412.641509 -127.573884 
L 414.536604 -124.903714 
L 416.431698 -135.920713 
L 418.326792 -140.895517 
L 420.221887 -135.524758 
L 422.116981 -137.339347 
L 424.012075 -137.444136 
L 425.90717 -135.220448 
L 427.802264 -138.331826 
L 429.697358 -137.522325 
L 431.592453 -137.490911 
L 433.487547 -139.213367 
L 435.382642 -138.765687 
L 437.277736 -143.49981 
L 439.17283 -146.573672 
L 441.067925 -144.747796 
L 442.963019 -143.666139 
L 444.858113 -137.950834 
L 446.753208 -138.043547 
L 448.648302 -129.970081 
L 450.543396 -128.353416 
L 452.438491 -127.834342 
L 454.333585 -121.5025 
L 456.228679 -114.282949 
L 458.123774 -107.87181 
L 460.018868 -102.820009 
L 461.913962 -97.542395 
L 463.809057 -94.9343 
L 465.704151 -88.303644 
L 467.599245 -88.674426 
L 469.49434 -94.728204 
L 471.389434 -97.859855 
L 473.284528 -98.306235 
L 475.179623 -99.472631 
L 477.074717 -101.65782 
L 478.969811 -103.682572 
L 480.864906 -95.09041 
L 482.76 -93.437646 
L 484.655094 -90.285437 
L 486.550189 -87.553599 
L 488.445283 -83.213249 
L 490.340377 -81.307334 
L 492.235472 -78.900824 
L 494.130566 -77.725656 
L 496.02566 -81.645636 
L 497.920755 -81.467252 
L 499.815849 -83.365405 
L 501.710943 -84.720058 
L 503.606038 -85.047622 
L 505.501132 -85.300238 
L 507.396226 -79.364963 
L 509.291321 -79.773825 
L 511.186415 -78.225469 
L 513.081509 -75.014967 
L 514.976604 -73.685868 
L 516.871698 -72.620066 
L 518.766792 -75.508769 
L 520.661887 -80.848963 
L 522.556981 -83.312129 
L 524.452075 -87.169375 
L 526.34717 -86.624929 
L 528.242264 -82.488726 
L 530.137358 -82.621513 
L 532.032453 -85.45361 
L 533.927547 -81.233255 
L 535.822642 -77.022175 
L 537.717736 -75.211848 
L 539.61283 -73.318678 
L 541.507925 -70.039706 
L 543.403019 -62.34685 
L 545.298113 -55.058718 
L 547.193208 -52.096681 
L 549.088302 -45.228616 
L 550.983396 -43.279892 
L 552.878491 -35.348816 
L 554.773585 -32.631145 
L 556.668679 -30.998928 
L 558.563774 -29.477003 
L 560.458868 -27.409636 
L 562.353962 -28.612884 
L 564.249057 -26.490011 
L 566.144151 -28.479898 
L 568.039245 -27.384533 
L 569.93434 -29.679359 
L 571.829434 -30.191178 
L 573.724528 -30.158911 
L 575.619623 -31.997491 
L 577.514717 -33.178576 
L 579.409811 -34.431253 
L 581.304906 -35.825451 
L 583.2 -36.951442 
L 583.2 -73.321577 
L 583.2 -73.321577 
L 581.304906 -72.675422 
L 579.409811 -71.649543 
L 577.514717 -70.481976 
L 575.619623 -69.738173 
L 573.724528 -67.698454 
L 571.829434 -69.110908 
L 569.93434 -68.490579 
L 568.039245 -66.169218 
L 566.144151 -67.809203 
L 564.249057 -65.926023 
L 562.353962 -67.183053 
L 560.458868 -66.218039 
L 558.563774 -68.965846 
L 556.668679 -70.582306 
L 554.773585 -72.842734 
L 552.878491 -76.071203 
L 550.983396 -84.015346 
L 549.088302 -87.393017 
L 547.193208 -94.87714 
L 545.298113 -97.326223 
L 543.403019 -105.316181 
L 541.507925 -113.116436 
L 539.61283 -116.910351 
L 537.717736 -120.520454 
L 535.822642 -122.281084 
L 533.927547 -126.789975 
L 532.032453 -131.292797 
L 530.137358 -128.096729 
L 528.242264 -128.262427 
L 526.34717 -133.15826 
L 524.452075 -133.585962 
L 522.556981 -129.116318 
L 520.661887 -126.837727 
L 518.766792 -119.322439 
L 516.871698 -115.410152 
L 514.976604 -116.115821 
L 513.081509 -118.511435 
L 511.186415 -122.010108 
L 509.291321 -125.02815 
L 507.396226 -125.243089 
L 505.501132 -131.032499 
L 503.606038 -130.241237 
L 501.710943 -129.995638 
L 499.815849 -128.92397 
L 497.920755 -126.767285 
L 496.02566 -126.081055 
L 494.130566 -121.429925 
L 492.235472 -123.228755 
L 490.340377 -126.569904 
L 488.445283 -128.737055 
L 486.550189 -133.771357 
L 484.655094 -137.504138 
L 482.76 -140.954944 
L 480.864906 -142.775417 
L 478.969811 -154.171203 
L 477.074717 -152.713266 
L 475.179623 -151.203785 
L 473.284528 -148.546734 
L 471.389434 -148.816912 
L 469.49434 -145.65559 
L 467.599245 -137.753803 
L 465.704151 -137.76003 
L 463.809057 -144.15262 
L 461.913962 -145.840544 
L 460.018868 -150.638169 
L 458.123774 -154.485747 
L 456.228679 -160.730936 
L 454.333585 -166.757077 
L 452.438491 -172.467894 
L 450.543396 -172.713712 
L 448.648302 -173.788346 
L 446.753208 -181.574403 
L 444.858113 -181.234375 
L 442.963019 -186.958186 
L 441.067925 -187.655764 
L 439.17283 -190.08 
L 437.277736 -186.879115 
L 435.382642 -182.319938 
L 433.487547 -182.24002 
L 431.592453 -179.27574 
L 429.697358 -180.660356 
L 427.802264 -180.654903 
L 425.90717 -175.93424 
L 424.012075 -177.804209 
L 422.116981 -177.165541 
L 420.221887 -175.396851 
L 418.326792 -181.454238 
L 416.431698 -176.158698 
L 414.536604 -164.533581 
L 412.641509 -167.571577 
L 410.746415 -164.67491 
L 408.851321 -158.142562 
L 406.956226 -156.041585 
L 405.061132 -154.623241 
L 403.166038 -142.631648 
L 401.270943 -142.153954 
L 399.375849 -141.54144 
L 397.480755 -136.935898 
L 395.58566 -132.003208 
L 393.690566 -129.847802 
L 391.795472 -132.810155 
L 389.900377 -136.001126 
L 388.005283 -128.851308 
L 386.110189 -132.757184 
L 384.215094 -130.775128 
L 382.32 -130.751682 
L 380.424906 -127.381156 
L 378.529811 -121.033331 
L 376.634717 -116.683686 
L 374.739623 -116.349492 
L 372.844528 -109.32056 
L 370.949434 -109.57746 
L 369.05434 -107.337589 
L 367.159245 -102.554974 
L 365.264151 -100.034833 
L 363.369057 -101.338899 
L 361.473962 -99.763792 
L 359.578868 -101.864511 
L 357.683774 -100.223517 
L 355.788679 -101.515913 
L 353.893585 -102.618729 
L 351.998491 -104.631844 
L 350.103396 -104.262284 
L 348.208302 -111.595162 
L 346.313208 -117.301349 
L 344.418113 -129.208916 
L 342.523019 -134.131114 
L 340.627925 -138.048712 
L 338.73283 -143.460579 
L 336.837736 -145.134549 
L 334.942642 -141.344584 
L 333.047547 -140.174636 
L 331.152453 -140.897694 
L 329.257358 -143.030659 
L 327.362264 -143.024085 
L 325.46717 -144.422395 
L 323.572075 -143.488158 
L 321.676981 -148.482189 
L 319.781887 -143.196618 
L 317.886792 -142.668048 
L 315.991698 -139.066376 
L 314.096604 -140.389055 
L 312.201509 -138.525898 
L 310.306415 -136.51883 
L 308.411321 -136.959274 
L 306.516226 -133.632216 
L 304.621132 -133.458103 
L 302.726038 -135.120555 
L 300.830943 -133.859923 
L 298.935849 -135.67708 
L 297.040755 -135.177192 
L 295.14566 -133.468396 
L 293.250566 -136.069036 
L 291.355472 -132.263543 
L 289.460377 -134.615619 
L 287.565283 -131.273113 
L 285.670189 -131.724742 
L 283.775094 -134.553975 
L 281.88 -137.948012 
L 279.984906 -139.012228 
L 278.089811 -138.79475 
L 276.194717 -136.634899 
L 274.299623 -139.899132 
L 272.404528 -143.093772 
L 270.509434 -149.380453 
L 268.61434 -140.874917 
L 266.719245 -141.425711 
L 264.824151 -143.039086 
L 262.929057 -142.257608 
L 261.033962 -136.863798 
L 259.138868 -139.958279 
L 257.243774 -142.629748 
L 255.348679 -140.170605 
L 253.453585 -137.414037 
L 251.558491 -141.983909 
L 249.663396 -141.93123 
L 247.768302 -141.810802 
L 245.873208 -144.967995 
L 243.978113 -145.564126 
L 242.083019 -143.142768 
L 240.187925 -137.507207 
L 238.29283 -132.078568 
L 236.397736 -131.417405 
L 234.502642 -133.862119 
L 232.607547 -134.818177 
L 230.712453 -134.799745 
L 228.817358 -134.45361 
L 226.922264 -133.187087 
L 225.02717 -126.721175 
L 223.132075 -127.399345 
L 221.236981 -134.334761 
L 219.341887 -132.018732 
L 217.446792 -134.5481 
L 215.551698 -135.956237 
L 213.656604 -137.466345 
L 211.761509 -136.117559 
L 209.866415 -137.823257 
L 207.971321 -138.732762 
L 206.076226 -142.253775 
L 204.181132 -140.861344 
L 202.286038 -139.422868 
L 200.390943 -134.144041 
L 198.495849 -131.677059 
L 196.600755 -125.92581 
L 194.70566 -121.779804 
L 192.810566 -118.159907 
L 190.915472 -111.058654 
L 189.020377 -104.408924 
L 187.125283 -109.369899 
L 185.230189 -112.333997 
L 183.335094 -129.093863 
L 181.44 -131.164266 
L 179.544906 -127.98493 
L 177.649811 -126.581275 
L 175.754717 -124.068207 
L 173.859623 -124.694668 
L 171.964528 -122.940162 
L 170.069434 -119.98395 
L 168.17434 -113.329377 
L 166.279245 -106.698409 
L 164.384151 -106.814821 
L 162.489057 -102.012752 
L 160.593962 -103.559832 
L 158.698868 -101.260508 
L 156.803774 -97.190546 
L 154.908679 -96.284678 
L 153.013585 -95.270691 
L 151.118491 -97.013773 
L 149.223396 -103.069052 
L 147.328302 -97.065035 
L 145.433208 -85.583535 
L 143.538113 -89.928258 
L 141.643019 -87.577168 
L 139.747925 -82.294741 
L 137.85283 -81.254889 
L 135.957736 -73.745534 
L 134.062642 -70.445433 
L 132.167547 -71.818492 
L 130.272453 -71.822839 
L 128.377358 -74.262515 
L 126.482264 -77.826597 
L 124.58717 -81.999132 
L 122.692075 -86.009228 
L 120.796981 -93.303066 
L 118.901887 -93.947765 
L 117.006792 -93.620037 
L 115.111698 -94.259083 
L 113.216604 -99.842416 
L 111.321509 -102.635495 
L 109.426415 -98.318803 
L 107.531321 -72.181721 
L 105.636226 -69.744648 
L 103.741132 -68.865053 
L 101.846038 -71.48336 
L 99.950943 -69.446852 
L 98.055849 -68.839471 
L 96.160755 -66.836449 
L 94.26566 -64.461955 
L 92.370566 -64.980662 
L 90.475472 -70.583814 
L 88.580377 -73.371798 
L 86.685283 -75.134434 
L 84.790189 -72.985534 
L 82.895094 -72.841287 
L 81 -69.427006 
z
" id="ma100623423" style="stroke:#0000ff;stroke-opacity:0.3;"/>
    </defs>
    <g clip-path="url(#p6c6ca8e465)">
     <use style="fill:#0000ff;fill-opacity:0.3;stroke:#0000ff;stroke-opacity:0.3;" x="0" xlink:href="#ma100623423" y="216"/>
    </g>
   </g>
   <g id="matplotlib.axis_1">
    <g id="xtick_1">
     <g id="line2d_1">
      <defs>
       <path d="M 0 0 
L 0 3.5 
" id="m362e1799aa" style="stroke:#000000;stroke-width:0.8;"/>
      </defs>
      <g>
       <use style="stroke:#000000;stroke-width:0.8;" x="142.590566" xlink:href="#m362e1799aa" y="192.24"/>
      </g>
     </g>
     <g id="text_1">
      <!-- 0.0 -->
      <defs>
       <path d="M 31.78125 66.40625 
Q 24.171875 66.40625 20.328125 58.90625 
Q 16.5 51.421875 16.5 36.375 
Q 16.5 21.390625 20.328125 13.890625 
Q 24.171875 6.390625 31.78125 6.390625 
Q 39.453125 6.390625 43.28125 13.890625 
Q 47.125 21.390625 47.125 36.375 
Q 47.125 51.421875 43.28125 58.90625 
Q 39.453125 66.40625 31.78125 66.40625 
z
M 31.78125 74.21875 
Q 44.046875 74.21875 50.515625 64.515625 
Q 56.984375 54.828125 56.984375 36.375 
Q 56.984375 17.96875 50.515625 8.265625 
Q 44.046875 -1.421875 31.78125 -1.421875 
Q 19.53125 -1.421875 13.0625 8.265625 
Q 6.59375 17.96875 6.59375 36.375 
Q 6.59375 54.828125 13.0625 64.515625 
Q 19.53125 74.21875 31.78125 74.21875 
z
" id="DejaVuSans-48"/>
       <path d="M 10.6875 12.40625 
L 21 12.40625 
L 21 0 
L 10.6875 0 
z
" id="DejaVuSans-46"/>
      </defs>
      <g transform="translate(133.048691 208.358125)scale(0.12 -0.12)">
       <use xlink:href="#DejaVuSans-48"/>
       <use x="63.623047" xlink:href="#DejaVuSans-46"/>
       <use x="95.410156" xlink:href="#DejaVuSans-48"/>
      </g>
     </g>
    </g>
    <g id="xtick_2">
     <g id="line2d_2">
      <g>
       <use style="stroke:#000000;stroke-width:0.8;" x="237.345283" xlink:href="#m362e1799aa" y="192.24"/>
      </g>
     </g>
     <g id="text_2">
      <!-- 0.5 -->
      <defs>
       <path d="M 10.796875 72.90625 
L 49.515625 72.90625 
L 49.515625 64.59375 
L 19.828125 64.59375 
L 19.828125 46.734375 
Q 21.96875 47.46875 24.109375 47.828125 
Q 26.265625 48.1875 28.421875 48.1875 
Q 40.625 48.1875 47.75 41.5 
Q 54.890625 34.8125 54.890625 23.390625 
Q 54.890625 11.625 47.5625 5.09375 
Q 40.234375 -1.421875 26.90625 -1.421875 
Q 22.3125 -1.421875 17.546875 -0.640625 
Q 12.796875 0.140625 7.71875 1.703125 
L 7.71875 11.625 
Q 12.109375 9.234375 16.796875 8.0625 
Q 21.484375 6.890625 26.703125 6.890625 
Q 35.15625 6.890625 40.078125 11.328125 
Q 45.015625 15.765625 45.015625 23.390625 
Q 45.015625 31 40.078125 35.4375 
Q 35.15625 39.890625 26.703125 39.890625 
Q 22.75 39.890625 18.8125 39.015625 
Q 14.890625 38.140625 10.796875 36.28125 
z
" id="DejaVuSans-53"/>
      </defs>
      <g transform="translate(227.803408 208.358125)scale(0.12 -0.12)">
       <use xlink:href="#DejaVuSans-48"/>
       <use x="63.623047" xlink:href="#DejaVuSans-46"/>
       <use x="95.410156" xlink:href="#DejaVuSans-53"/>
      </g>
     </g>
    </g>
    <g id="xtick_3">
     <g id="line2d_3">
      <g>
       <use style="stroke:#000000;stroke-width:0.8;" x="332.1" xlink:href="#m362e1799aa" y="192.24"/>
      </g>
     </g>
     <g id="text_3">
      <!-- 1.0 -->
      <defs>
       <path d="M 12.40625 8.296875 
L 28.515625 8.296875 
L 28.515625 63.921875 
L 10.984375 60.40625 
L 10.984375 69.390625 
L 28.421875 72.90625 
L 38.28125 72.90625 
L 38.28125 8.296875 
L 54.390625 8.296875 
L 54.390625 0 
L 12.40625 0 
z
" id="DejaVuSans-49"/>
      </defs>
      <g transform="translate(322.558125 208.358125)scale(0.12 -0.12)">
       <use xlink:href="#DejaVuSans-49"/>
       <use x="63.623047" xlink:href="#DejaVuSans-46"/>
       <use x="95.410156" xlink:href="#DejaVuSans-48"/>
      </g>
     </g>
    </g>
    <g id="xtick_4">
     <g id="line2d_4">
      <g>
       <use style="stroke:#000000;stroke-width:0.8;" x="426.854717" xlink:href="#m362e1799aa" y="192.24"/>
      </g>
     </g>
     <g id="text_4">
      <!-- 1.5 -->
      <g transform="translate(417.312842 208.358125)scale(0.12 -0.12)">
       <use xlink:href="#DejaVuSans-49"/>
       <use x="63.623047" xlink:href="#DejaVuSans-46"/>
       <use x="95.410156" xlink:href="#DejaVuSans-53"/>
      </g>
     </g>
    </g>
    <g id="xtick_5">
     <g id="line2d_5">
      <g>
       <use style="stroke:#000000;stroke-width:0.8;" x="521.609434" xlink:href="#m362e1799aa" y="192.24"/>
      </g>
     </g>
     <g id="text_5">
      <!-- 2.0 -->
      <defs>
       <path d="M 19.1875 8.296875 
L 53.609375 8.296875 
L 53.609375 0 
L 7.328125 0 
L 7.328125 8.296875 
Q 12.9375 14.109375 22.625 23.890625 
Q 32.328125 33.6875 34.8125 36.53125 
Q 39.546875 41.84375 41.421875 45.53125 
Q 43.3125 49.21875 43.3125 52.78125 
Q 43.3125 58.59375 39.234375 62.25 
Q 35.15625 65.921875 28.609375 65.921875 
Q 23.96875 65.921875 18.8125 64.3125 
Q 13.671875 62.703125 7.8125 59.421875 
L 7.8125 69.390625 
Q 13.765625 71.78125 18.9375 73 
Q 24.125 74.21875 28.421875 74.21875 
Q 39.75 74.21875 46.484375 68.546875 
Q 53.21875 62.890625 53.21875 53.421875 
Q 53.21875 48.921875 51.53125 44.890625 
Q 49.859375 40.875 45.40625 35.40625 
Q 44.1875 33.984375 37.640625 27.21875 
Q 31.109375 20.453125 19.1875 8.296875 
z
" id="DejaVuSans-50"/>
      </defs>
      <g transform="translate(512.067559 208.358125)scale(0.12 -0.12)">
       <use xlink:href="#DejaVuSans-50"/>
       <use x="63.623047" xlink:href="#DejaVuSans-46"/>
       <use x="95.410156" xlink:href="#DejaVuSans-48"/>
      </g>
     </g>
    </g>
    <g id="text_6">
     <!-- Time (s) -->
     <defs>
      <path d="M -0.296875 72.90625 
L 61.375 72.90625 
L 61.375 64.59375 
L 35.5 64.59375 
L 35.5 0 
L 25.59375 0 
L 25.59375 64.59375 
L -0.296875 64.59375 
z
" id="DejaVuSans-84"/>
      <path d="M 9.421875 54.6875 
L 18.40625 54.6875 
L 18.40625 0 
L 9.421875 0 
z
M 9.421875 75.984375 
L 18.40625 75.984375 
L 18.40625 64.59375 
L 9.421875 64.59375 
z
" id="DejaVuSans-105"/>
      <path d="M 52 44.1875 
Q 55.375 50.25 60.0625 53.125 
Q 64.75 56 71.09375 56 
Q 79.640625 56 84.28125 50.015625 
Q 88.921875 44.046875 88.921875 33.015625 
L 88.921875 0 
L 79.890625 0 
L 79.890625 32.71875 
Q 79.890625 40.578125 77.09375 44.375 
Q 74.3125 48.1875 68.609375 48.1875 
Q 61.625 48.1875 57.5625 43.546875 
Q 53.515625 38.921875 53.515625 30.90625 
L 53.515625 0 
L 44.484375 0 
L 44.484375 32.71875 
Q 44.484375 40.625 41.703125 44.40625 
Q 38.921875 48.1875 33.109375 48.1875 
Q 26.21875 48.1875 22.15625 43.53125 
Q 18.109375 38.875 18.109375 30.90625 
L 18.109375 0 
L 9.078125 0 
L 9.078125 54.6875 
L 18.109375 54.6875 
L 18.109375 46.1875 
Q 21.1875 51.21875 25.484375 53.609375 
Q 29.78125 56 35.6875 56 
Q 41.65625 56 45.828125 52.96875 
Q 50 49.953125 52 44.1875 
z
" id="DejaVuSans-109"/>
      <path d="M 56.203125 29.59375 
L 56.203125 25.203125 
L 14.890625 25.203125 
Q 15.484375 15.921875 20.484375 11.0625 
Q 25.484375 6.203125 34.421875 6.203125 
Q 39.59375 6.203125 44.453125 7.46875 
Q 49.3125 8.734375 54.109375 11.28125 
L 54.109375 2.78125 
Q 49.265625 0.734375 44.1875 -0.34375 
Q 39.109375 -1.421875 33.890625 -1.421875 
Q 20.796875 -1.421875 13.15625 6.1875 
Q 5.515625 13.8125 5.515625 26.8125 
Q 5.515625 40.234375 12.765625 48.109375 
Q 20.015625 56 32.328125 56 
Q 43.359375 56 49.78125 48.890625 
Q 56.203125 41.796875 56.203125 29.59375 
z
M 47.21875 32.234375 
Q 47.125 39.59375 43.09375 43.984375 
Q 39.0625 48.390625 32.421875 48.390625 
Q 24.90625 48.390625 20.390625 44.140625 
Q 15.875 39.890625 15.1875 32.171875 
z
" id="DejaVuSans-101"/>
      <path id="DejaVuSans-32"/>
      <path d="M 31 75.875 
Q 24.46875 64.65625 21.28125 53.65625 
Q 18.109375 42.671875 18.109375 31.390625 
Q 18.109375 20.125 21.3125 9.0625 
Q 24.515625 -2 31 -13.1875 
L 23.1875 -13.1875 
Q 15.875 -1.703125 12.234375 9.375 
Q 8.59375 20.453125 8.59375 31.390625 
Q 8.59375 42.28125 12.203125 53.3125 
Q 15.828125 64.359375 23.1875 75.875 
z
" id="DejaVuSans-40"/>
      <path d="M 44.28125 53.078125 
L 44.28125 44.578125 
Q 40.484375 46.53125 36.375 47.5 
Q 32.28125 48.484375 27.875 48.484375 
Q 21.1875 48.484375 17.84375 46.4375 
Q 14.5 44.390625 14.5 40.28125 
Q 14.5 37.15625 16.890625 35.375 
Q 19.28125 33.59375 26.515625 31.984375 
L 29.59375 31.296875 
Q 39.15625 29.25 43.1875 25.515625 
Q 47.21875 21.78125 47.21875 15.09375 
Q 47.21875 7.46875 41.1875 3.015625 
Q 35.15625 -1.421875 24.609375 -1.421875 
Q 20.21875 -1.421875 15.453125 -0.5625 
Q 10.6875 0.296875 5.421875 2 
L 5.421875 11.28125 
Q 10.40625 8.6875 15.234375 7.390625 
Q 20.0625 6.109375 24.8125 6.109375 
Q 31.15625 6.109375 34.5625 8.28125 
Q 37.984375 10.453125 37.984375 14.40625 
Q 37.984375 18.0625 35.515625 20.015625 
Q 33.0625 21.96875 24.703125 23.78125 
L 21.578125 24.515625 
Q 13.234375 26.265625 9.515625 29.90625 
Q 5.8125 33.546875 5.8125 39.890625 
Q 5.8125 47.609375 11.28125 51.796875 
Q 16.75 56 26.8125 56 
Q 31.78125 56 36.171875 55.265625 
Q 40.578125 54.546875 44.28125 53.078125 
z
" id="DejaVuSans-115"/>
      <path d="M 8.015625 75.875 
L 15.828125 75.875 
Q 23.140625 64.359375 26.78125 53.3125 
Q 30.421875 42.28125 30.421875 31.390625 
Q 30.421875 20.453125 26.78125 9.375 
Q 23.140625 -1.703125 15.828125 -13.1875 
L 8.015625 -13.1875 
Q 14.5 -2 17.703125 9.0625 
Q 20.90625 20.125 20.90625 31.390625 
Q 20.90625 42.671875 17.703125 53.65625 
Q 14.5 64.65625 8.015625 75.875 
z
" id="DejaVuSans-41"/>
     </defs>
     <g transform="translate(302.60475 225.7955)scale(0.144 -0.144)">
      <use xlink:href="#DejaVuSans-84"/>
      <use x="61.037109" xlink:href="#DejaVuSans-105"/>
      <use x="88.820312" xlink:href="#DejaVuSans-109"/>
      <use x="186.232422" xlink:href="#DejaVuSans-101"/>
      <use x="247.755859" xlink:href="#DejaVuSans-32"/>
      <use x="279.542969" xlink:href="#DejaVuSans-40"/>
      <use x="318.556641" xlink:href="#DejaVuSans-115"/>
      <use x="370.65625" xlink:href="#DejaVuSans-41"/>
     </g>
    </g>
   </g>
   <g id="matplotlib.axis_2">
    <g id="ytick_1">
     <g id="line2d_6">
      <defs>
       <path d="M 0 0 
L -3.5 0 
" id="mba6a462719" style="stroke:#000000;stroke-width:0.8;"/>
      </defs>
      <g>
       <use style="stroke:#000000;stroke-width:0.8;" x="81" xlink:href="#mba6a462719" y="185.493195"/>
      </g>
     </g>
     <g id="text_7">
      <!-- 26 -->
      <defs>
       <path d="M 33.015625 40.375 
Q 26.375 40.375 22.484375 35.828125 
Q 18.609375 31.296875 18.609375 23.390625 
Q 18.609375 15.53125 22.484375 10.953125 
Q 26.375 6.390625 33.015625 6.390625 
Q 39.65625 6.390625 43.53125 10.953125 
Q 47.40625 15.53125 47.40625 23.390625 
Q 47.40625 31.296875 43.53125 35.828125 
Q 39.65625 40.375 33.015625 40.375 
z
M 52.59375 71.296875 
L 52.59375 62.3125 
Q 48.875 64.0625 45.09375 64.984375 
Q 41.3125 65.921875 37.59375 65.921875 
Q 27.828125 65.921875 22.671875 59.328125 
Q 17.53125 52.734375 16.796875 39.40625 
Q 19.671875 43.65625 24.015625 45.921875 
Q 28.375 48.1875 33.59375 48.1875 
Q 44.578125 48.1875 50.953125 41.515625 
Q 57.328125 34.859375 57.328125 23.390625 
Q 57.328125 12.15625 50.6875 5.359375 
Q 44.046875 -1.421875 33.015625 -1.421875 
Q 20.359375 -1.421875 13.671875 8.265625 
Q 6.984375 17.96875 6.984375 36.375 
Q 6.984375 53.65625 15.1875 63.9375 
Q 23.390625 74.21875 37.203125 74.21875 
Q 40.921875 74.21875 44.703125 73.484375 
Q 48.484375 72.75 52.59375 71.296875 
z
" id="DejaVuSans-54"/>
      </defs>
      <g transform="translate(58.73 190.052257)scale(0.12 -0.12)">
       <use xlink:href="#DejaVuSans-50"/>
       <use x="63.623047" xlink:href="#DejaVuSans-54"/>
      </g>
     </g>
    </g>
    <g id="ytick_2">
     <g id="line2d_7">
      <g>
       <use style="stroke:#000000;stroke-width:0.8;" x="81" xlink:href="#mba6a462719" y="163.889894"/>
      </g>
     </g>
     <g id="text_8">
      <!-- 27 -->
      <defs>
       <path d="M 8.203125 72.90625 
L 55.078125 72.90625 
L 55.078125 68.703125 
L 28.609375 0 
L 18.3125 0 
L 43.21875 64.59375 
L 8.203125 64.59375 
z
" id="DejaVuSans-55"/>
      </defs>
      <g transform="translate(58.73 168.448956)scale(0.12 -0.12)">
       <use xlink:href="#DejaVuSans-50"/>
       <use x="63.623047" xlink:href="#DejaVuSans-55"/>
      </g>
     </g>
    </g>
    <g id="ytick_3">
     <g id="line2d_8">
      <g>
       <use style="stroke:#000000;stroke-width:0.8;" x="81" xlink:href="#mba6a462719" y="142.286593"/>
      </g>
     </g>
     <g id="text_9">
      <!-- 28 -->
      <defs>
       <path d="M 31.78125 34.625 
Q 24.75 34.625 20.71875 30.859375 
Q 16.703125 27.09375 16.703125 20.515625 
Q 16.703125 13.921875 20.71875 10.15625 
Q 24.75 6.390625 31.78125 6.390625 
Q 38.8125 6.390625 42.859375 10.171875 
Q 46.921875 13.96875 46.921875 20.515625 
Q 46.921875 27.09375 42.890625 30.859375 
Q 38.875 34.625 31.78125 34.625 
z
M 21.921875 38.8125 
Q 15.578125 40.375 12.03125 44.71875 
Q 8.5 49.078125 8.5 55.328125 
Q 8.5 64.0625 14.71875 69.140625 
Q 20.953125 74.21875 31.78125 74.21875 
Q 42.671875 74.21875 48.875 69.140625 
Q 55.078125 64.0625 55.078125 55.328125 
Q 55.078125 49.078125 51.53125 44.71875 
Q 48 40.375 41.703125 38.8125 
Q 48.828125 37.15625 52.796875 32.3125 
Q 56.78125 27.484375 56.78125 20.515625 
Q 56.78125 9.90625 50.3125 4.234375 
Q 43.84375 -1.421875 31.78125 -1.421875 
Q 19.734375 -1.421875 13.25 4.234375 
Q 6.78125 9.90625 6.78125 20.515625 
Q 6.78125 27.484375 10.78125 32.3125 
Q 14.796875 37.15625 21.921875 38.8125 
z
M 18.3125 54.390625 
Q 18.3125 48.734375 21.84375 45.5625 
Q 25.390625 42.390625 31.78125 42.390625 
Q 38.140625 42.390625 41.71875 45.5625 
Q 45.3125 48.734375 45.3125 54.390625 
Q 45.3125 60.0625 41.71875 63.234375 
Q 38.140625 66.40625 31.78125 66.40625 
Q 25.390625 66.40625 21.84375 63.234375 
Q 18.3125 60.0625 18.3125 54.390625 
z
" id="DejaVuSans-56"/>
      </defs>
      <g transform="translate(58.73 146.845655)scale(0.12 -0.12)">
       <use xlink:href="#DejaVuSans-50"/>
       <use x="63.623047" xlink:href="#DejaVuSans-56"/>
      </g>
     </g>
    </g>
    <g id="ytick_4">
     <g id="line2d_9">
      <g>
       <use style="stroke:#000000;stroke-width:0.8;" x="81" xlink:href="#mba6a462719" y="120.683292"/>
      </g>
     </g>
     <g id="text_10">
      <!-- 29 -->
      <defs>
       <path d="M 10.984375 1.515625 
L 10.984375 10.5 
Q 14.703125 8.734375 18.5 7.8125 
Q 22.3125 6.890625 25.984375 6.890625 
Q 35.75 6.890625 40.890625 13.453125 
Q 46.046875 20.015625 46.78125 33.40625 
Q 43.953125 29.203125 39.59375 26.953125 
Q 35.25 24.703125 29.984375 24.703125 
Q 19.046875 24.703125 12.671875 31.3125 
Q 6.296875 37.9375 6.296875 49.421875 
Q 6.296875 60.640625 12.9375 67.421875 
Q 19.578125 74.21875 30.609375 74.21875 
Q 43.265625 74.21875 49.921875 64.515625 
Q 56.59375 54.828125 56.59375 36.375 
Q 56.59375 19.140625 48.40625 8.859375 
Q 40.234375 -1.421875 26.421875 -1.421875 
Q 22.703125 -1.421875 18.890625 -0.6875 
Q 15.09375 0.046875 10.984375 1.515625 
z
M 30.609375 32.421875 
Q 37.25 32.421875 41.125 36.953125 
Q 45.015625 41.5 45.015625 49.421875 
Q 45.015625 57.28125 41.125 61.84375 
Q 37.25 66.40625 30.609375 66.40625 
Q 23.96875 66.40625 20.09375 61.84375 
Q 16.21875 57.28125 16.21875 49.421875 
Q 16.21875 41.5 20.09375 36.953125 
Q 23.96875 32.421875 30.609375 32.421875 
z
" id="DejaVuSans-57"/>
      </defs>
      <g transform="translate(58.73 125.242354)scale(0.12 -0.12)">
       <use xlink:href="#DejaVuSans-50"/>
       <use x="63.623047" xlink:href="#DejaVuSans-57"/>
      </g>
     </g>
    </g>
    <g id="ytick_5">
     <g id="line2d_10">
      <g>
       <use style="stroke:#000000;stroke-width:0.8;" x="81" xlink:href="#mba6a462719" y="99.079991"/>
      </g>
     </g>
     <g id="text_11">
      <!-- 30 -->
      <defs>
       <path d="M 40.578125 39.3125 
Q 47.65625 37.796875 51.625 33 
Q 55.609375 28.21875 55.609375 21.1875 
Q 55.609375 10.40625 48.1875 4.484375 
Q 40.765625 -1.421875 27.09375 -1.421875 
Q 22.515625 -1.421875 17.65625 -0.515625 
Q 12.796875 0.390625 7.625 2.203125 
L 7.625 11.71875 
Q 11.71875 9.328125 16.59375 8.109375 
Q 21.484375 6.890625 26.8125 6.890625 
Q 36.078125 6.890625 40.9375 10.546875 
Q 45.796875 14.203125 45.796875 21.1875 
Q 45.796875 27.640625 41.28125 31.265625 
Q 36.765625 34.90625 28.71875 34.90625 
L 20.21875 34.90625 
L 20.21875 43.015625 
L 29.109375 43.015625 
Q 36.375 43.015625 40.234375 45.921875 
Q 44.09375 48.828125 44.09375 54.296875 
Q 44.09375 59.90625 40.109375 62.90625 
Q 36.140625 65.921875 28.71875 65.921875 
Q 24.65625 65.921875 20.015625 65.03125 
Q 15.375 64.15625 9.8125 62.3125 
L 9.8125 71.09375 
Q 15.4375 72.65625 20.34375 73.4375 
Q 25.25 74.21875 29.59375 74.21875 
Q 40.828125 74.21875 47.359375 69.109375 
Q 53.90625 64.015625 53.90625 55.328125 
Q 53.90625 49.265625 50.4375 45.09375 
Q 46.96875 40.921875 40.578125 39.3125 
z
" id="DejaVuSans-51"/>
      </defs>
      <g transform="translate(58.73 103.639053)scale(0.12 -0.12)">
       <use xlink:href="#DejaVuSans-51"/>
       <use x="63.623047" xlink:href="#DejaVuSans-48"/>
      </g>
     </g>
    </g>
    <g id="ytick_6">
     <g id="line2d_11">
      <g>
       <use style="stroke:#000000;stroke-width:0.8;" x="81" xlink:href="#mba6a462719" y="77.47669"/>
      </g>
     </g>
     <g id="text_12">
      <!-- 31 -->
      <g transform="translate(58.73 82.035752)scale(0.12 -0.12)">
       <use xlink:href="#DejaVuSans-51"/>
       <use x="63.623047" xlink:href="#DejaVuSans-49"/>
      </g>
     </g>
    </g>
    <g id="ytick_7">
     <g id="line2d_12">
      <g>
       <use style="stroke:#000000;stroke-width:0.8;" x="81" xlink:href="#mba6a462719" y="55.873389"/>
      </g>
     </g>
     <g id="text_13">
      <!-- 32 -->
      <g transform="translate(58.73 60.432451)scale(0.12 -0.12)">
       <use xlink:href="#DejaVuSans-51"/>
       <use x="63.623047" xlink:href="#DejaVuSans-50"/>
      </g>
     </g>
    </g>
    <g id="ytick_8">
     <g id="line2d_13">
      <g>
       <use style="stroke:#000000;stroke-width:0.8;" x="81" xlink:href="#mba6a462719" y="34.270088"/>
      </g>
     </g>
     <g id="text_14">
      <!-- 33 -->
      <g transform="translate(58.73 38.82915)scale(0.12 -0.12)">
       <use xlink:href="#DejaVuSans-51"/>
       <use x="63.623047" xlink:href="#DejaVuSans-51"/>
      </g>
     </g>
    </g>
    <g id="text_15">
     <!-- Act. Cells Moving Var. -->
     <defs>
      <path d="M 34.1875 63.1875 
L 20.796875 26.90625 
L 47.609375 26.90625 
z
M 28.609375 72.90625 
L 39.796875 72.90625 
L 67.578125 0 
L 57.328125 0 
L 50.6875 18.703125 
L 17.828125 18.703125 
L 11.1875 0 
L 0.78125 0 
z
" id="DejaVuSans-65"/>
      <path d="M 48.78125 52.59375 
L 48.78125 44.1875 
Q 44.96875 46.296875 41.140625 47.34375 
Q 37.3125 48.390625 33.40625 48.390625 
Q 24.65625 48.390625 19.8125 42.84375 
Q 14.984375 37.3125 14.984375 27.296875 
Q 14.984375 17.28125 19.8125 11.734375 
Q 24.65625 6.203125 33.40625 6.203125 
Q 37.3125 6.203125 41.140625 7.25 
Q 44.96875 8.296875 48.78125 10.40625 
L 48.78125 2.09375 
Q 45.015625 0.34375 40.984375 -0.53125 
Q 36.96875 -1.421875 32.421875 -1.421875 
Q 20.0625 -1.421875 12.78125 6.34375 
Q 5.515625 14.109375 5.515625 27.296875 
Q 5.515625 40.671875 12.859375 48.328125 
Q 20.21875 56 33.015625 56 
Q 37.15625 56 41.109375 55.140625 
Q 45.0625 54.296875 48.78125 52.59375 
z
" id="DejaVuSans-99"/>
      <path d="M 18.3125 70.21875 
L 18.3125 54.6875 
L 36.8125 54.6875 
L 36.8125 47.703125 
L 18.3125 47.703125 
L 18.3125 18.015625 
Q 18.3125 11.328125 20.140625 9.421875 
Q 21.96875 7.515625 27.59375 7.515625 
L 36.8125 7.515625 
L 36.8125 0 
L 27.59375 0 
Q 17.1875 0 13.234375 3.875 
Q 9.28125 7.765625 9.28125 18.015625 
L 9.28125 47.703125 
L 2.6875 47.703125 
L 2.6875 54.6875 
L 9.28125 54.6875 
L 9.28125 70.21875 
z
" id="DejaVuSans-116"/>
      <path d="M 64.40625 67.28125 
L 64.40625 56.890625 
Q 59.421875 61.53125 53.78125 63.8125 
Q 48.140625 66.109375 41.796875 66.109375 
Q 29.296875 66.109375 22.65625 58.46875 
Q 16.015625 50.828125 16.015625 36.375 
Q 16.015625 21.96875 22.65625 14.328125 
Q 29.296875 6.6875 41.796875 6.6875 
Q 48.140625 6.6875 53.78125 8.984375 
Q 59.421875 11.28125 64.40625 15.921875 
L 64.40625 5.609375 
Q 59.234375 2.09375 53.4375 0.328125 
Q 47.65625 -1.421875 41.21875 -1.421875 
Q 24.65625 -1.421875 15.125 8.703125 
Q 5.609375 18.84375 5.609375 36.375 
Q 5.609375 53.953125 15.125 64.078125 
Q 24.65625 74.21875 41.21875 74.21875 
Q 47.75 74.21875 53.53125 72.484375 
Q 59.328125 70.75 64.40625 67.28125 
z
" id="DejaVuSans-67"/>
      <path d="M 9.421875 75.984375 
L 18.40625 75.984375 
L 18.40625 0 
L 9.421875 0 
z
" id="DejaVuSans-108"/>
      <path d="M 9.8125 72.90625 
L 24.515625 72.90625 
L 43.109375 23.296875 
L 61.8125 72.90625 
L 76.515625 72.90625 
L 76.515625 0 
L 66.890625 0 
L 66.890625 64.015625 
L 48.09375 14.015625 
L 38.1875 14.015625 
L 19.390625 64.015625 
L 19.390625 0 
L 9.8125 0 
z
" id="DejaVuSans-77"/>
      <path d="M 30.609375 48.390625 
Q 23.390625 48.390625 19.1875 42.75 
Q 14.984375 37.109375 14.984375 27.296875 
Q 14.984375 17.484375 19.15625 11.84375 
Q 23.34375 6.203125 30.609375 6.203125 
Q 37.796875 6.203125 41.984375 11.859375 
Q 46.1875 17.53125 46.1875 27.296875 
Q 46.1875 37.015625 41.984375 42.703125 
Q 37.796875 48.390625 30.609375 48.390625 
z
M 30.609375 56 
Q 42.328125 56 49.015625 48.375 
Q 55.71875 40.765625 55.71875 27.296875 
Q 55.71875 13.875 49.015625 6.21875 
Q 42.328125 -1.421875 30.609375 -1.421875 
Q 18.84375 -1.421875 12.171875 6.21875 
Q 5.515625 13.875 5.515625 27.296875 
Q 5.515625 40.765625 12.171875 48.375 
Q 18.84375 56 30.609375 56 
z
" id="DejaVuSans-111"/>
      <path d="M 2.984375 54.6875 
L 12.5 54.6875 
L 29.59375 8.796875 
L 46.6875 54.6875 
L 56.203125 54.6875 
L 35.6875 0 
L 23.484375 0 
z
" id="DejaVuSans-118"/>
      <path d="M 54.890625 33.015625 
L 54.890625 0 
L 45.90625 0 
L 45.90625 32.71875 
Q 45.90625 40.484375 42.875 44.328125 
Q 39.84375 48.1875 33.796875 48.1875 
Q 26.515625 48.1875 22.3125 43.546875 
Q 18.109375 38.921875 18.109375 30.90625 
L 18.109375 0 
L 9.078125 0 
L 9.078125 54.6875 
L 18.109375 54.6875 
L 18.109375 46.1875 
Q 21.34375 51.125 25.703125 53.5625 
Q 30.078125 56 35.796875 56 
Q 45.21875 56 50.046875 50.171875 
Q 54.890625 44.34375 54.890625 33.015625 
z
" id="DejaVuSans-110"/>
      <path d="M 45.40625 27.984375 
Q 45.40625 37.75 41.375 43.109375 
Q 37.359375 48.484375 30.078125 48.484375 
Q 22.859375 48.484375 18.828125 43.109375 
Q 14.796875 37.75 14.796875 27.984375 
Q 14.796875 18.265625 18.828125 12.890625 
Q 22.859375 7.515625 30.078125 7.515625 
Q 37.359375 7.515625 41.375 12.890625 
Q 45.40625 18.265625 45.40625 27.984375 
z
M 54.390625 6.78125 
Q 54.390625 -7.171875 48.1875 -13.984375 
Q 42 -20.796875 29.203125 -20.796875 
Q 24.46875 -20.796875 20.265625 -20.09375 
Q 16.0625 -19.390625 12.109375 -17.921875 
L 12.109375 -9.1875 
Q 16.0625 -11.328125 19.921875 -12.34375 
Q 23.78125 -13.375 27.78125 -13.375 
Q 36.625 -13.375 41.015625 -8.765625 
Q 45.40625 -4.15625 45.40625 5.171875 
L 45.40625 9.625 
Q 42.625 4.78125 38.28125 2.390625 
Q 33.9375 0 27.875 0 
Q 17.828125 0 11.671875 7.65625 
Q 5.515625 15.328125 5.515625 27.984375 
Q 5.515625 40.671875 11.671875 48.328125 
Q 17.828125 56 27.875 56 
Q 33.9375 56 38.28125 53.609375 
Q 42.625 51.21875 45.40625 46.390625 
L 45.40625 54.6875 
L 54.390625 54.6875 
z
" id="DejaVuSans-103"/>
      <path d="M 28.609375 0 
L 0.78125 72.90625 
L 11.078125 72.90625 
L 34.1875 11.53125 
L 57.328125 72.90625 
L 67.578125 72.90625 
L 39.796875 0 
z
" id="DejaVuSans-86"/>
      <path d="M 34.28125 27.484375 
Q 23.390625 27.484375 19.1875 25 
Q 14.984375 22.515625 14.984375 16.5 
Q 14.984375 11.71875 18.140625 8.90625 
Q 21.296875 6.109375 26.703125 6.109375 
Q 34.1875 6.109375 38.703125 11.40625 
Q 43.21875 16.703125 43.21875 25.484375 
L 43.21875 27.484375 
z
M 52.203125 31.203125 
L 52.203125 0 
L 43.21875 0 
L 43.21875 8.296875 
Q 40.140625 3.328125 35.546875 0.953125 
Q 30.953125 -1.421875 24.3125 -1.421875 
Q 15.921875 -1.421875 10.953125 3.296875 
Q 6 8.015625 6 15.921875 
Q 6 25.140625 12.171875 29.828125 
Q 18.359375 34.515625 30.609375 34.515625 
L 43.21875 34.515625 
L 43.21875 35.40625 
Q 43.21875 41.609375 39.140625 45 
Q 35.0625 48.390625 27.6875 48.390625 
Q 23 48.390625 18.546875 47.265625 
Q 14.109375 46.140625 10.015625 43.890625 
L 10.015625 52.203125 
Q 14.9375 54.109375 19.578125 55.046875 
Q 24.21875 56 28.609375 56 
Q 40.484375 56 46.34375 49.84375 
Q 52.203125 43.703125 52.203125 31.203125 
z
" id="DejaVuSans-97"/>
      <path d="M 41.109375 46.296875 
Q 39.59375 47.171875 37.8125 47.578125 
Q 36.03125 48 33.890625 48 
Q 26.265625 48 22.1875 43.046875 
Q 18.109375 38.09375 18.109375 28.8125 
L 18.109375 0 
L 9.078125 0 
L 9.078125 54.6875 
L 18.109375 54.6875 
L 18.109375 46.1875 
Q 20.953125 51.171875 25.484375 53.578125 
Q 30.03125 56 36.53125 56 
Q 37.453125 56 38.578125 55.875 
Q 39.703125 55.765625 41.0625 55.515625 
z
" id="DejaVuSans-114"/>
     </defs>
     <g transform="translate(51.73525 187.72875)rotate(-90)scale(0.144 -0.144)">
      <use xlink:href="#DejaVuSans-65"/>
      <use x="68.392578" xlink:href="#DejaVuSans-99"/>
      <use x="123.373047" xlink:href="#DejaVuSans-116"/>
      <use x="162.582031" xlink:href="#DejaVuSans-46"/>
      <use x="194.369141" xlink:href="#DejaVuSans-32"/>
      <use x="226.15625" xlink:href="#DejaVuSans-67"/>
      <use x="295.980469" xlink:href="#DejaVuSans-101"/>
      <use x="357.503906" xlink:href="#DejaVuSans-108"/>
      <use x="385.287109" xlink:href="#DejaVuSans-108"/>
      <use x="413.070312" xlink:href="#DejaVuSans-115"/>
      <use x="465.169922" xlink:href="#DejaVuSans-32"/>
      <use x="496.957031" xlink:href="#DejaVuSans-77"/>
      <use x="583.236328" xlink:href="#DejaVuSans-111"/>
      <use x="644.417969" xlink:href="#DejaVuSans-118"/>
      <use x="703.597656" xlink:href="#DejaVuSans-105"/>
      <use x="731.380859" xlink:href="#DejaVuSans-110"/>
      <use x="794.759766" xlink:href="#DejaVuSans-103"/>
      <use x="858.236328" xlink:href="#DejaVuSans-32"/>
      <use x="890.023438" xlink:href="#DejaVuSans-86"/>
      <use x="958.322266" xlink:href="#DejaVuSans-97"/>
      <use x="1019.601562" xlink:href="#DejaVuSans-114"/>
      <use x="1060.574219" xlink:href="#DejaVuSans-46"/>
     </g>
    </g>
   </g>
   <g id="line2d_14">
    <path clip-path="url(#p6c6ca8e465)" d="M 81 165.459002 
L 82.895094 162.627788 
L 84.790189 162.463401 
L 86.685283 160.948554 
L 88.580377 162.604329 
L 90.475472 165.60204 
L 92.370566 171.36683 
L 94.26566 171.889022 
L 96.160755 169.872827 
L 98.055849 168.085069 
L 99.950943 167.603721 
L 101.846038 165.675035 
L 103.741132 168.175786 
L 105.636226 167.367941 
L 107.531321 164.853435 
L 109.426415 139.488375 
L 111.321509 135.527966 
L 113.216604 138.748208 
L 115.111698 144.032241 
L 117.006792 144.80304 
L 118.901887 144.639749 
L 120.796981 145.020086 
L 122.692075 151.471287 
L 126.482264 158.977674 
L 128.377358 162.46416 
L 130.272453 164.29715 
L 132.167547 164.341369 
L 134.062642 165.826934 
L 135.957736 162.728801 
L 137.85283 155.593804 
L 139.747925 154.660221 
L 141.643019 149.696525 
L 143.538113 147.286998 
L 145.433208 151.314072 
L 147.328302 140.856893 
L 149.223396 135.205689 
L 151.118491 140.863813 
L 153.013585 142.521613 
L 156.803774 140.640269 
L 158.698868 136.24982 
L 160.593962 134.072866 
L 162.489057 135.317419 
L 164.384151 130.922919 
L 166.279245 130.772033 
L 170.069434 118.265326 
L 171.964528 115.520272 
L 173.859623 114.433271 
L 175.754717 115.076729 
L 177.649811 112.844416 
L 179.544906 111.083494 
L 181.44 108.848227 
L 183.335094 111.616825 
L 185.230189 128.657273 
L 187.125283 131.452369 
L 189.020377 135.402566 
L 190.915472 129.451532 
L 192.810566 122.3524 
L 194.70566 118.639164 
L 196.600755 115.594617 
L 198.495849 110.629656 
L 200.390943 108.386035 
L 202.286038 103.284196 
L 204.181132 101.948082 
L 206.076226 100.24851 
L 207.971321 103.597528 
L 209.866415 104.266218 
L 211.761509 105.343007 
L 213.656604 104.665879 
L 215.551698 105.881486 
L 217.446792 106.680049 
L 219.341887 108.856328 
L 221.236981 106.929584 
L 223.132075 113.44627 
L 225.02717 113.752092 
L 226.922264 107.597936 
L 228.817358 106.502075 
L 230.712453 106.523088 
L 232.607547 106.694648 
L 234.502642 108.280128 
L 236.397736 111.044929 
L 238.29283 110.514044 
L 240.187925 106.150093 
L 242.083019 100.7945 
L 243.978113 98.414086 
L 245.873208 99.122354 
L 247.768302 102.255254 
L 249.663396 102.55019 
L 251.558491 102.573481 
L 253.453585 106.800639 
L 257.243774 102.94234 
L 259.138868 105.669588 
L 261.033962 108.843586 
L 262.929057 103.391115 
L 264.824151 102.385549 
L 266.719245 103.526473 
L 268.61434 103.909848 
L 270.509434 95.592577 
L 272.404528 100.96066 
L 276.194717 106.324607 
L 278.089811 104.428327 
L 279.984906 103.741156 
L 281.88 104.145121 
L 283.775094 106.822918 
L 285.670189 108.578861 
L 287.565283 108.685696 
L 289.460377 104.895498 
L 291.355472 106.487054 
L 293.250566 102.845294 
L 295.14566 104.825625 
L 297.040755 102.769261 
L 298.935849 102.11171 
L 300.830943 103.682507 
L 302.726038 102.435 
L 304.621132 103.873561 
L 306.516226 103.424111 
L 308.411321 100.578551 
L 310.306415 100.893656 
L 314.096604 96.901517 
L 315.991698 98.159657 
L 317.886792 94.686251 
L 319.781887 94.210725 
L 321.676981 89.436058 
L 323.572075 93.633512 
L 325.46717 93.053429 
L 327.362264 94.667685 
L 329.257358 94.870554 
L 331.152453 97.14236 
L 333.047547 98.352567 
L 334.942642 96.889281 
L 336.837736 93.241277 
L 338.73283 94.419332 
L 340.627925 99.198556 
L 344.418113 106.886631 
L 346.313208 118.170389 
L 348.208302 123.383283 
L 350.103396 129.617354 
L 351.998491 129.201575 
L 353.893585 131.37777 
L 355.788679 132.69152 
L 357.683774 134.414131 
L 359.578868 132.676246 
L 361.473962 134.426536 
L 363.369057 133.346539 
L 365.264151 134.763834 
L 367.159245 132.191269 
L 369.05434 127.813816 
L 370.949434 126.057282 
L 372.844528 126.480487 
L 374.739623 120.259749 
L 376.634717 120.134349 
L 378.529811 116.3001 
L 380.424906 110.307631 
L 382.32 107.448992 
L 384.215094 107.884686 
L 386.110189 106.098279 
L 388.005283 109.753541 
L 389.900377 103.247487 
L 391.795472 105.710854 
L 393.690566 107.94899 
L 395.58566 105.487311 
L 397.480755 100.222603 
L 399.375849 95.44186 
L 401.270943 94.436547 
L 403.166038 93.719587 
L 405.061132 82.065957 
L 406.956226 80.73035 
L 408.851321 78.108586 
L 410.746415 71.454263 
L 412.641509 68.42727 
L 414.536604 71.281353 
L 416.431698 59.960295 
L 418.326792 54.825123 
L 420.221887 60.539196 
L 422.116981 58.747556 
L 424.012075 58.375828 
L 425.90717 60.422656 
L 427.802264 56.506636 
L 429.697358 56.90866 
L 431.592453 57.616674 
L 433.487547 55.273307 
L 435.382642 55.457188 
L 437.277736 50.810537 
L 439.17283 47.673164 
L 441.067925 49.79822 
L 442.963019 50.687837 
L 444.858113 56.407396 
L 446.753208 56.191025 
L 448.648302 64.120787 
L 450.543396 65.466436 
L 452.438491 65.848882 
L 454.333585 71.870211 
L 458.123774 84.821222 
L 460.018868 89.270911 
L 461.913962 94.308531 
L 463.809057 96.45654 
L 465.704151 102.968163 
L 467.599245 102.785885 
L 469.49434 95.808103 
L 471.389434 92.661616 
L 473.284528 92.573515 
L 477.074717 88.814457 
L 478.969811 87.073113 
L 480.864906 97.067086 
L 482.76 98.803705 
L 486.550189 105.337522 
L 488.445283 110.024848 
L 490.340377 112.061381 
L 492.235472 114.93521 
L 494.130566 116.42221 
L 496.02566 112.136655 
L 497.920755 111.882732 
L 499.815849 109.855312 
L 501.710943 108.642152 
L 503.606038 108.355571 
L 505.501132 107.833632 
L 507.396226 113.695974 
L 509.291321 113.599013 
L 511.186415 115.882211 
L 513.081509 119.236799 
L 514.976604 121.099155 
L 516.871698 121.984891 
L 518.766792 118.584396 
L 520.661887 112.156655 
L 522.556981 109.785777 
L 524.452075 105.622331 
L 526.34717 106.108405 
L 528.242264 110.624424 
L 530.137358 110.640879 
L 532.032453 107.626797 
L 535.822642 116.34837 
L 537.717736 118.133849 
L 539.61283 120.885485 
L 541.507925 124.421929 
L 545.298113 139.80753 
L 547.193208 142.51309 
L 549.088302 149.689183 
L 550.983396 152.352381 
L 552.878491 160.289991 
L 554.773585 163.263061 
L 556.668679 165.209383 
L 558.563774 166.778576 
L 560.458868 169.186162 
L 562.353962 168.102031 
L 564.249057 169.791983 
L 566.144151 167.85545 
L 568.039245 169.223124 
L 569.93434 166.915031 
L 571.829434 166.348957 
L 573.724528 167.071317 
L 575.619623 165.132168 
L 577.514717 164.169724 
L 581.304906 161.749564 
L 583.2 160.863491 
L 583.2 160.863491 
" style="fill:none;stroke:#0000ff;stroke-linecap:square;stroke-width:1.5;"/>
   </g>
   <g id="patch_3">
    <path d="M 81 192.24 
L 81 25.92 
" style="fill:none;stroke:#000000;stroke-linecap:square;stroke-linejoin:miter;stroke-width:0.8;"/>
   </g>
   <g id="patch_4">
    <path d="M 583.2 192.24 
L 583.2 25.92 
" style="fill:none;stroke:#000000;stroke-linecap:square;stroke-linejoin:miter;stroke-width:0.8;"/>
   </g>
   <g id="patch_5">
    <path d="M 81 192.24 
L 583.2 192.24 
" style="fill:none;stroke:#000000;stroke-linecap:square;stroke-linejoin:miter;stroke-width:0.8;"/>
   </g>
   <g id="patch_6">
    <path d="M 81 25.92 
L 583.2 25.92 
" style="fill:none;stroke:#000000;stroke-linecap:square;stroke-linejoin:miter;stroke-width:0.8;"/>
   </g>
   <g id="text_16">
    <!-- Thalamus, Num Trials=160 All stimulated trials -->
    <defs>
     <path d="M 54.890625 33.015625 
L 54.890625 0 
L 45.90625 0 
L 45.90625 32.71875 
Q 45.90625 40.484375 42.875 44.328125 
Q 39.84375 48.1875 33.796875 48.1875 
Q 26.515625 48.1875 22.3125 43.546875 
Q 18.109375 38.921875 18.109375 30.90625 
L 18.109375 0 
L 9.078125 0 
L 9.078125 75.984375 
L 18.109375 75.984375 
L 18.109375 46.1875 
Q 21.34375 51.125 25.703125 53.5625 
Q 30.078125 56 35.796875 56 
Q 45.21875 56 50.046875 50.171875 
Q 54.890625 44.34375 54.890625 33.015625 
z
" id="DejaVuSans-104"/>
     <path d="M 8.5 21.578125 
L 8.5 54.6875 
L 17.484375 54.6875 
L 17.484375 21.921875 
Q 17.484375 14.15625 20.5 10.265625 
Q 23.53125 6.390625 29.59375 6.390625 
Q 36.859375 6.390625 41.078125 11.03125 
Q 45.3125 15.671875 45.3125 23.6875 
L 45.3125 54.6875 
L 54.296875 54.6875 
L 54.296875 0 
L 45.3125 0 
L 45.3125 8.40625 
Q 42.046875 3.421875 37.71875 1 
Q 33.40625 -1.421875 27.6875 -1.421875 
Q 18.265625 -1.421875 13.375 4.4375 
Q 8.5 10.296875 8.5 21.578125 
z
M 31.109375 56 
z
" id="DejaVuSans-117"/>
     <path d="M 11.71875 12.40625 
L 22.015625 12.40625 
L 22.015625 4 
L 14.015625 -11.625 
L 7.71875 -11.625 
L 11.71875 4 
z
" id="DejaVuSans-44"/>
     <path d="M 9.8125 72.90625 
L 23.09375 72.90625 
L 55.421875 11.921875 
L 55.421875 72.90625 
L 64.984375 72.90625 
L 64.984375 0 
L 51.703125 0 
L 19.390625 60.984375 
L 19.390625 0 
L 9.8125 0 
z
" id="DejaVuSans-78"/>
     <path d="M 10.59375 45.40625 
L 73.1875 45.40625 
L 73.1875 37.203125 
L 10.59375 37.203125 
z
M 10.59375 25.484375 
L 73.1875 25.484375 
L 73.1875 17.1875 
L 10.59375 17.1875 
z
" id="DejaVuSans-61"/>
     <path d="M 45.40625 46.390625 
L 45.40625 75.984375 
L 54.390625 75.984375 
L 54.390625 0 
L 45.40625 0 
L 45.40625 8.203125 
Q 42.578125 3.328125 38.25 0.953125 
Q 33.9375 -1.421875 27.875 -1.421875 
Q 17.96875 -1.421875 11.734375 6.484375 
Q 5.515625 14.40625 5.515625 27.296875 
Q 5.515625 40.1875 11.734375 48.09375 
Q 17.96875 56 27.875 56 
Q 33.9375 56 38.25 53.625 
Q 42.578125 51.265625 45.40625 46.390625 
z
M 14.796875 27.296875 
Q 14.796875 17.390625 18.875 11.75 
Q 22.953125 6.109375 30.078125 6.109375 
Q 37.203125 6.109375 41.296875 11.75 
Q 45.40625 17.390625 45.40625 27.296875 
Q 45.40625 37.203125 41.296875 42.84375 
Q 37.203125 48.484375 30.078125 48.484375 
Q 22.953125 48.484375 18.875 42.84375 
Q 14.796875 37.203125 14.796875 27.296875 
z
" id="DejaVuSans-100"/>
    </defs>
    <g transform="translate(190.146563 19.92)scale(0.12 -0.12)">
     <use xlink:href="#DejaVuSans-84"/>
     <use x="61.083984" xlink:href="#DejaVuSans-104"/>
     <use x="124.462891" xlink:href="#DejaVuSans-97"/>
     <use x="185.742188" xlink:href="#DejaVuSans-108"/>
     <use x="213.525391" xlink:href="#DejaVuSans-97"/>
     <use x="274.804688" xlink:href="#DejaVuSans-109"/>
     <use x="372.216797" xlink:href="#DejaVuSans-117"/>
     <use x="435.595703" xlink:href="#DejaVuSans-115"/>
     <use x="487.695312" xlink:href="#DejaVuSans-44"/>
     <use x="519.482422" xlink:href="#DejaVuSans-32"/>
     <use x="551.269531" xlink:href="#DejaVuSans-78"/>
     <use x="626.074219" xlink:href="#DejaVuSans-117"/>
     <use x="689.453125" xlink:href="#DejaVuSans-109"/>
     <use x="786.865234" xlink:href="#DejaVuSans-32"/>
     <use x="818.652344" xlink:href="#DejaVuSans-84"/>
     <use x="879.517578" xlink:href="#DejaVuSans-114"/>
     <use x="920.630859" xlink:href="#DejaVuSans-105"/>
     <use x="948.414062" xlink:href="#DejaVuSans-97"/>
     <use x="1009.693359" xlink:href="#DejaVuSans-108"/>
     <use x="1037.476562" xlink:href="#DejaVuSans-115"/>
     <use x="1089.576172" xlink:href="#DejaVuSans-61"/>
     <use x="1173.365234" xlink:href="#DejaVuSans-49"/>
     <use x="1236.988281" xlink:href="#DejaVuSans-54"/>
     <use x="1300.611328" xlink:href="#DejaVuSans-48"/>
     <use x="1364.234375" xlink:href="#DejaVuSans-32"/>
     <use x="1396.021484" xlink:href="#DejaVuSans-65"/>
     <use x="1464.429688" xlink:href="#DejaVuSans-108"/>
     <use x="1492.212891" xlink:href="#DejaVuSans-108"/>
     <use x="1519.996094" xlink:href="#DejaVuSans-32"/>
     <use x="1551.783203" xlink:href="#DejaVuSans-115"/>
     <use x="1603.882812" xlink:href="#DejaVuSans-116"/>
     <use x="1643.091797" xlink:href="#DejaVuSans-105"/>
     <use x="1670.875" xlink:href="#DejaVuSans-109"/>
     <use x="1768.287109" xlink:href="#DejaVuSans-117"/>
     <use x="1831.666016" xlink:href="#DejaVuSans-108"/>
     <use x="1859.449219" xlink:href="#DejaVuSans-97"/>
     <use x="1920.728516" xlink:href="#DejaVuSans-116"/>
     <use x="1959.9375" xlink:href="#DejaVuSans-101"/>
     <use x="2021.460938" xlink:href="#DejaVuSans-100"/>
     <use x="2084.9375" xlink:href="#DejaVuSans-32"/>
     <use x="2116.724609" xlink:href="#DejaVuSans-116"/>
     <use x="2155.933594" xlink:href="#DejaVuSans-114"/>
     <use x="2197.046875" xlink:href="#DejaVuSans-105"/>
     <use x="2224.830078" xlink:href="#DejaVuSans-97"/>
     <use x="2286.109375" xlink:href="#DejaVuSans-108"/>
     <use x="2313.892578" xlink:href="#DejaVuSans-115"/>
    </g>
   </g>
   <g id="legend_1">
    <g id="patch_7">
     <path d="M 464.95125 70.7475 
L 574.8 70.7475 
Q 577.2 70.7475 577.2 68.3475 
L 577.2 34.32 
Q 577.2 31.92 574.8 31.92 
L 464.95125 31.92 
Q 462.55125 31.92 462.55125 34.32 
L 462.55125 68.3475 
Q 462.55125 70.7475 464.95125 70.7475 
z
" style="fill:#ffffff;opacity:0.8;stroke:#cccccc;stroke-linejoin:miter;"/>
    </g>
    <g id="line2d_15">
     <path d="M 467.35125 41.638125 
L 491.35125 41.638125 
" style="fill:none;stroke:#0000ff;stroke-linecap:square;stroke-width:1.5;"/>
    </g>
    <g id="line2d_16"/>
    <g id="text_17">
     <!-- Moving Var. -->
     <g transform="translate(500.95125 45.838125)scale(0.12 -0.12)">
      <use xlink:href="#DejaVuSans-77"/>
      <use x="86.279297" xlink:href="#DejaVuSans-111"/>
      <use x="147.460938" xlink:href="#DejaVuSans-118"/>
      <use x="206.640625" xlink:href="#DejaVuSans-105"/>
      <use x="234.423828" xlink:href="#DejaVuSans-110"/>
      <use x="297.802734" xlink:href="#DejaVuSans-103"/>
      <use x="361.279297" xlink:href="#DejaVuSans-32"/>
      <use x="393.066406" xlink:href="#DejaVuSans-86"/>
      <use x="461.365234" xlink:href="#DejaVuSans-97"/>
      <use x="522.644531" xlink:href="#DejaVuSans-114"/>
      <use x="563.617188" xlink:href="#DejaVuSans-46"/>
     </g>
    </g>
    <g id="patch_8">
     <path d="M 467.35125 63.451875 
L 491.35125 63.451875 
L 491.35125 55.051875 
L 467.35125 55.051875 
z
" style="fill:#0000ff;opacity:0.3;stroke:#0000ff;stroke-linejoin:miter;"/>
    </g>
    <g id="text_18">
     <!-- Std. Err. -->
     <defs>
      <path d="M 53.515625 70.515625 
L 53.515625 60.890625 
Q 47.90625 63.578125 42.921875 64.890625 
Q 37.9375 66.21875 33.296875 66.21875 
Q 25.25 66.21875 20.875 63.09375 
Q 16.5 59.96875 16.5 54.203125 
Q 16.5 49.359375 19.40625 46.890625 
Q 22.3125 44.4375 30.421875 42.921875 
L 36.375 41.703125 
Q 47.40625 39.59375 52.65625 34.296875 
Q 57.90625 29 57.90625 20.125 
Q 57.90625 9.515625 50.796875 4.046875 
Q 43.703125 -1.421875 29.984375 -1.421875 
Q 24.8125 -1.421875 18.96875 -0.25 
Q 13.140625 0.921875 6.890625 3.21875 
L 6.890625 13.375 
Q 12.890625 10.015625 18.65625 8.296875 
Q 24.421875 6.59375 29.984375 6.59375 
Q 38.421875 6.59375 43.015625 9.90625 
Q 47.609375 13.234375 47.609375 19.390625 
Q 47.609375 24.75 44.3125 27.78125 
Q 41.015625 30.8125 33.5 32.328125 
L 27.484375 33.5 
Q 16.453125 35.6875 11.515625 40.375 
Q 6.59375 45.0625 6.59375 53.421875 
Q 6.59375 63.09375 13.40625 68.65625 
Q 20.21875 74.21875 32.171875 74.21875 
Q 37.3125 74.21875 42.625 73.28125 
Q 47.953125 72.359375 53.515625 70.515625 
z
" id="DejaVuSans-83"/>
      <path d="M 9.8125 72.90625 
L 55.90625 72.90625 
L 55.90625 64.59375 
L 19.671875 64.59375 
L 19.671875 43.015625 
L 54.390625 43.015625 
L 54.390625 34.71875 
L 19.671875 34.71875 
L 19.671875 8.296875 
L 56.78125 8.296875 
L 56.78125 0 
L 9.8125 0 
z
" id="DejaVuSans-69"/>
     </defs>
     <g transform="translate(500.95125 63.451875)scale(0.12 -0.12)">
      <use xlink:href="#DejaVuSans-83"/>
      <use x="63.476562" xlink:href="#DejaVuSans-116"/>
      <use x="102.685547" xlink:href="#DejaVuSans-100"/>
      <use x="166.162109" xlink:href="#DejaVuSans-46"/>
      <use x="197.949219" xlink:href="#DejaVuSans-32"/>
      <use x="229.736328" xlink:href="#DejaVuSans-69"/>
      <use x="292.919922" xlink:href="#DejaVuSans-114"/>
      <use x="334.017578" xlink:href="#DejaVuSans-114"/>
      <use x="374.990234" xlink:href="#DejaVuSans-46"/>
     </g>
    </g>
   </g>
  </g>
 </g>
 <defs>
  <clipPath id="p6c6ca8e465">
   <rect height="166.32" width="502.2" x="81" y="25.92"/>
  </clipPath>
 </defs>
</svg>
