<?xml version="1.0" encoding="utf-8" standalone="no"?>
<!DOCTYPE svg PUBLIC "-//W3C//DTD SVG 1.1//EN"
  "http://www.w3.org/Graphics/SVG/1.1/DTD/svg11.dtd">
<!-- Created with matplotlib (https://matplotlib.org/) -->
<svg height="216pt" version="1.1" viewBox="0 0 648 216" width="648pt" xmlns="http://www.w3.org/2000/svg" xmlns:xlink="http://www.w3.org/1999/xlink">
 <defs>
  <style type="text/css">
*{stroke-linecap:butt;stroke-linejoin:round;}
  </style>
 </defs>
 <g id="figure_1">
  <g id="patch_1">
   <path d="M 0 216 
L 648 216 
L 648 0 
L 0 0 
z
" style="fill:#ffffff;"/>
  </g>
  <g id="axes_1">
   <g id="patch_2">
    <path d="M 81 192.24 
L 583.2 192.24 
L 583.2 25.92 
L 81 25.92 
z
" style="fill:#ffffff;"/>
   </g>
   <g id="PolyCollection_1">
    <defs>
     <path d="M 156.33 -23.76 
L 156.33 -190.08 
L 420.645789 -190.08 
L 420.645789 -23.76 
L 420.645789 -23.76 
L 156.33 -23.76 
z
" id="ma103dc1954" style="stroke:#808080;stroke-opacity:0.3;"/>
    </defs>
    <g clip-path="url(#pfbf8f7199d)">
     <use style="fill:#808080;fill-opacity:0.3;stroke:#808080;stroke-opacity:0.3;" x="0" xlink:href="#ma103dc1954" y="216"/>
    </g>
   </g>
   <g id="PolyCollection_2">
    <defs>
     <path d="M 81 -129.721616 
L 81 -82.518112 
L 82.762105 -74.969407 
L 84.524211 -70.73547 
L 86.286316 -70.554109 
L 88.048421 -79.227453 
L 89.810526 -93.435603 
L 91.572632 -88.332704 
L 93.334737 -94.790993 
L 95.096842 -79.40805 
L 96.858947 -71.526864 
L 98.621053 -73.154558 
L 100.383158 -72.59676 
L 102.145263 -79.334495 
L 103.907368 -76.85291 
L 105.669474 -77.697539 
L 107.431579 -82.543848 
L 109.193684 -89.746812 
L 110.955789 -111.789119 
L 112.717895 -112.365109 
L 114.48 -100.602644 
L 116.242105 -89.510314 
L 118.004211 -101.165716 
L 119.766316 -101.804963 
L 121.528421 -88.49127 
L 123.290526 -99.25558 
L 125.052632 -92.433377 
L 126.814737 -101.466705 
L 128.576842 -96.162824 
L 130.338947 -107.403284 
L 132.101053 -85.836327 
L 133.863158 -81.54586 
L 135.625263 -81.659449 
L 137.387368 -76.637329 
L 139.149474 -85.367502 
L 140.911579 -109.40902 
L 142.673684 -118.063764 
L 144.435789 -113.262879 
L 146.197895 -116.528973 
L 147.96 -105.951728 
L 149.722105 -99.851215 
L 151.484211 -101.747668 
L 153.246316 -90.388532 
L 155.008421 -90.528883 
L 156.770526 -100.347611 
L 158.532632 -107.746868 
L 160.294737 -97.834652 
L 162.056842 -92.05639 
L 163.818947 -91.73882 
L 165.581053 -79.190411 
L 167.343158 -107.529915 
L 169.105263 -127.131201 
L 170.867368 -136.448437 
L 172.629474 -123.605144 
L 174.391579 -118.646869 
L 176.153684 -108.623356 
L 177.915789 -103.717821 
L 179.677895 -101.489854 
L 181.44 -111.107559 
L 183.202105 -106.04807 
L 184.964211 -101.022067 
L 186.726316 -109.860022 
L 188.488421 -98.366465 
L 190.250526 -106.059377 
L 192.012632 -102.726035 
L 193.774737 -100.302658 
L 195.536842 -93.245369 
L 197.298947 -85.891987 
L 199.061053 -89.653682 
L 200.823158 -76.064985 
L 202.585263 -65.233124 
L 204.347368 -72.941265 
L 206.109474 -77.753181 
L 207.871579 -79.704584 
L 209.633684 -73.230968 
L 211.395789 -74.522249 
L 213.157895 -72.600642 
L 214.92 -67.532906 
L 216.682105 -58.264533 
L 218.444211 -46.727581 
L 220.206316 -39.206159 
L 221.968421 -37.705414 
L 223.730526 -44.728206 
L 225.492632 -44.737586 
L 227.254737 -47.415822 
L 229.016842 -56.039477 
L 230.778947 -50.225581 
L 232.541053 -58.656052 
L 234.303158 -54.636986 
L 236.065263 -56.597248 
L 237.827368 -51.609661 
L 239.589474 -58.174623 
L 241.351579 -51.24552 
L 243.113684 -34.925829 
L 244.875789 -42.596168 
L 246.637895 -45.991766 
L 248.4 -58.199652 
L 250.162105 -51.120023 
L 251.924211 -52.566967 
L 253.686316 -47.833655 
L 255.448421 -54.381678 
L 257.210526 -51.179616 
L 258.972632 -49.986705 
L 260.734737 -39.89005 
L 262.496842 -36.834652 
L 264.258947 -35.950953 
L 266.021053 -41.602817 
L 267.783158 -49.722506 
L 269.545263 -55.918117 
L 271.307368 -62.672952 
L 273.069474 -81.450116 
L 274.831579 -83.454218 
L 276.593684 -93.423161 
L 278.355789 -92.625951 
L 280.117895 -101.338426 
L 281.88 -98.920753 
L 283.642105 -96.442508 
L 285.404211 -104.467883 
L 287.166316 -97.149261 
L 288.928421 -102.301033 
L 290.690526 -97.538309 
L 292.452632 -92.781638 
L 294.214737 -91.677713 
L 295.976842 -107.589189 
L 297.738947 -95.935929 
L 299.501053 -96.965996 
L 301.263158 -100.419237 
L 303.025263 -80.908871 
L 304.787368 -86.077613 
L 306.549474 -81.366249 
L 308.311579 -85.616734 
L 310.073684 -81.644675 
L 311.835789 -70.689568 
L 313.597895 -67.764602 
L 315.36 -60.122845 
L 317.122105 -66.172786 
L 318.884211 -57.026761 
L 320.646316 -54.835139 
L 322.408421 -57.76368 
L 324.170526 -63.922968 
L 325.932632 -62.709458 
L 327.694737 -68.803993 
L 329.456842 -71.103396 
L 331.218947 -49.761167 
L 332.981053 -73.329721 
L 334.743158 -55.519425 
L 336.505263 -72.228481 
L 338.267368 -77.616953 
L 340.029474 -76.465508 
L 341.791579 -70.244112 
L 343.553684 -51.30794 
L 345.315789 -34.067579 
L 347.077895 -35.063757 
L 348.84 -47.576899 
L 350.602105 -49.675288 
L 352.364211 -44.705753 
L 354.126316 -58.286439 
L 355.888421 -67.534894 
L 357.650526 -70.352219 
L 359.412632 -78.920239 
L 361.174737 -91.300654 
L 362.936842 -98.711304 
L 364.698947 -92.465398 
L 366.461053 -95.037601 
L 368.223158 -75.691272 
L 369.985263 -56.202227 
L 371.747368 -60.094182 
L 373.509474 -65.116956 
L 375.271579 -64.796804 
L 377.033684 -69.441286 
L 378.795789 -62.775014 
L 380.557895 -77.871316 
L 382.32 -80.802922 
L 384.082105 -70.200014 
L 385.844211 -74.249851 
L 387.606316 -79.513042 
L 389.368421 -83.233122 
L 391.130526 -94.972224 
L 392.892632 -91.678629 
L 394.654737 -90.632351 
L 396.416842 -94.215602 
L 398.178947 -98.236248 
L 399.941053 -91.569669 
L 401.703158 -98.880018 
L 403.465263 -98.689894 
L 405.227368 -106.353295 
L 406.989474 -98.297794 
L 408.751579 -99.901476 
L 410.513684 -91.713289 
L 412.275789 -80.801403 
L 414.037895 -84.972421 
L 415.8 -90.520575 
L 417.562105 -96.986642 
L 419.324211 -106.499818 
L 421.086316 -104.76097 
L 422.848421 -107.362277 
L 424.610526 -107.172847 
L 426.372632 -88.308053 
L 428.134737 -97.702455 
L 429.896842 -99.368178 
L 431.658947 -100.894441 
L 433.421053 -100.418997 
L 435.183158 -100.288104 
L 436.945263 -100.176105 
L 438.707368 -104.601751 
L 440.469474 -112.365407 
L 442.231579 -102.288565 
L 443.993684 -104.434898 
L 445.755789 -107.575509 
L 447.517895 -123.612577 
L 449.28 -119.261649 
L 451.042105 -110.963679 
L 452.804211 -117.00005 
L 454.566316 -100.623157 
L 456.328421 -98.287088 
L 458.090526 -110.024997 
L 459.852632 -104.652418 
L 461.614737 -108.595741 
L 463.376842 -93.046399 
L 465.138947 -88.319184 
L 466.901053 -87.400838 
L 468.663158 -85.574161 
L 470.425263 -87.732605 
L 472.187368 -79.272635 
L 473.949474 -87.024556 
L 475.711579 -96.418872 
L 477.473684 -103.631705 
L 479.235789 -97.298799 
L 480.997895 -88.068796 
L 482.76 -90.936975 
L 484.522105 -98.353969 
L 486.284211 -109.257996 
L 488.046316 -104.483908 
L 489.808421 -102.429229 
L 491.570526 -106.25576 
L 493.332632 -88.280274 
L 495.094737 -91.12949 
L 496.856842 -93.975509 
L 498.618947 -92.661794 
L 500.381053 -92.854049 
L 502.143158 -95.586696 
L 503.905263 -89.962925 
L 505.667368 -87.953897 
L 507.429474 -84.720124 
L 509.191579 -78.834377 
L 510.953684 -66.96887 
L 512.715789 -67.539018 
L 514.477895 -76.653991 
L 516.24 -75.181057 
L 518.002105 -76.669274 
L 519.764211 -68.268892 
L 521.526316 -57.868692 
L 523.288421 -53.001009 
L 525.050526 -47.102525 
L 526.812632 -57.216042 
L 528.574737 -71.751198 
L 530.336842 -89.92934 
L 532.098947 -80.706671 
L 533.861053 -74.671412 
L 535.623158 -71.127056 
L 537.385263 -74.86118 
L 539.147368 -80.351075 
L 540.909474 -86.852211 
L 542.671579 -86.650489 
L 544.433684 -102.475733 
L 546.195789 -114.477808 
L 547.957895 -86.540458 
L 549.72 -80.244376 
L 551.482105 -80.783862 
L 553.244211 -76.127399 
L 555.006316 -69.149137 
L 556.768421 -69.716499 
L 558.530526 -51.277458 
L 560.292632 -50.393866 
L 562.054737 -28.630509 
L 563.816842 -23.76 
L 565.578947 -29.61502 
L 567.341053 -34.988578 
L 569.103158 -35.923769 
L 570.865263 -41.481214 
L 572.627368 -51.135478 
L 574.389474 -45.894447 
L 576.151579 -41.105797 
L 577.913684 -43.597233 
L 579.675789 -43.137984 
L 581.437895 -53.11683 
L 583.2 -62.616755 
L 583.2 -104.492023 
L 583.2 -104.492023 
L 581.437895 -90.341128 
L 579.675789 -81.238332 
L 577.913684 -91.615317 
L 576.151579 -88.396087 
L 574.389474 -88.569329 
L 572.627368 -98.449884 
L 570.865263 -89.478877 
L 569.103158 -84.132045 
L 567.341053 -90.806774 
L 565.578947 -86.697825 
L 563.816842 -78.363971 
L 562.054737 -87.790953 
L 560.292632 -104.188217 
L 558.530526 -98.792349 
L 556.768421 -118.448919 
L 555.006316 -113.364759 
L 553.244211 -112.271808 
L 551.482105 -118.384487 
L 549.72 -110.217901 
L 547.957895 -123.247622 
L 546.195789 -150.911457 
L 544.433684 -142.918793 
L 542.671579 -136.395082 
L 540.909474 -133.350925 
L 539.147368 -135.032459 
L 537.385263 -117.675749 
L 535.623158 -131.74255 
L 533.861053 -120.546062 
L 532.098947 -139.774264 
L 530.336842 -149.550845 
L 528.574737 -112.404835 
L 526.812632 -100.958253 
L 525.050526 -110.041536 
L 523.288421 -122.54814 
L 521.526316 -119.070321 
L 519.764211 -124.122539 
L 518.002105 -123.471246 
L 516.24 -116.695111 
L 514.477895 -120.173363 
L 512.715789 -111.479163 
L 510.953684 -101.760474 
L 509.191579 -116.69385 
L 507.429474 -122.223925 
L 505.667368 -130.554522 
L 503.905263 -135.913382 
L 502.143158 -140.98088 
L 500.381053 -143.015854 
L 498.618947 -144.501947 
L 496.856842 -154.301273 
L 495.094737 -153.03713 
L 493.332632 -147.150366 
L 491.570526 -165.4438 
L 489.808421 -167.354762 
L 488.046316 -185.321634 
L 486.284211 -186.309679 
L 484.522105 -175.338829 
L 482.76 -165.027972 
L 480.997895 -160.343009 
L 479.235789 -164.058271 
L 477.473684 -160.330771 
L 475.711579 -154.829798 
L 473.949474 -145.818158 
L 472.187368 -134.745664 
L 470.425263 -163.788533 
L 468.663158 -140.772933 
L 466.901053 -148.16558 
L 465.138947 -128.897033 
L 463.376842 -171.904435 
L 461.614737 -170.740623 
L 459.852632 -162.265149 
L 458.090526 -170.800484 
L 456.328421 -136.846681 
L 454.566316 -133.895318 
L 452.804211 -152.459957 
L 451.042105 -143.939803 
L 449.28 -146.289966 
L 447.517895 -150.196731 
L 445.755789 -134.204489 
L 443.993684 -144.129892 
L 442.231579 -131.263191 
L 440.469474 -142.988814 
L 438.707368 -128.633713 
L 436.945263 -128.573226 
L 435.183158 -132.535581 
L 433.421053 -135.41879 
L 431.658947 -141.875444 
L 429.896842 -134.097816 
L 428.134737 -138.698797 
L 426.372632 -130.360717 
L 424.610526 -145.295534 
L 422.848421 -139.670233 
L 421.086316 -133.496011 
L 419.324211 -130.940059 
L 417.562105 -117.038168 
L 415.8 -109.931246 
L 414.037895 -106.748557 
L 412.275789 -107.877918 
L 410.513684 -125.429008 
L 408.751579 -137.003537 
L 406.989474 -141.047357 
L 405.227368 -145.056646 
L 403.465263 -148.639039 
L 401.703158 -146.62138 
L 399.941053 -151.147486 
L 398.178947 -166.385593 
L 396.416842 -163.981797 
L 394.654737 -158.807997 
L 392.892632 -170.342442 
L 391.130526 -166.962835 
L 389.368421 -152.255264 
L 387.606316 -142.623643 
L 385.844211 -141.006373 
L 384.082105 -138.947892 
L 382.32 -145.391126 
L 380.557895 -138.163967 
L 378.795789 -117.152237 
L 377.033684 -125.275856 
L 375.271579 -117.70307 
L 373.509474 -114.378913 
L 371.747368 -119.55753 
L 369.985263 -114.229855 
L 368.223158 -125.332582 
L 366.461053 -140.709619 
L 364.698947 -132.640562 
L 362.936842 -135.483503 
L 361.174737 -129.337247 
L 359.412632 -117.119358 
L 357.650526 -112.377589 
L 355.888421 -99.877781 
L 354.126316 -93.349796 
L 352.364211 -80.104135 
L 350.602105 -85.449081 
L 348.84 -91.237846 
L 347.077895 -78.28254 
L 345.315789 -76.651528 
L 343.553684 -94.275355 
L 341.791579 -141.247018 
L 340.029474 -147.254059 
L 338.267368 -151.499237 
L 336.505263 -134.746201 
L 334.743158 -99.091627 
L 332.981053 -161.22562 
L 331.218947 -105.998398 
L 329.456842 -157.401812 
L 327.694737 -148.404937 
L 325.932632 -129.376379 
L 324.170526 -133.255031 
L 322.408421 -113.686114 
L 320.646316 -127.467232 
L 318.884211 -136.622982 
L 317.122105 -132.184257 
L 315.36 -113.866052 
L 313.597895 -134.083542 
L 311.835789 -122.134001 
L 310.073684 -140.650275 
L 308.311579 -146.017851 
L 306.549474 -144.752824 
L 304.787368 -155.689232 
L 303.025263 -135.044871 
L 301.263158 -187.155345 
L 299.501053 -151.070713 
L 297.738947 -154.928834 
L 295.976842 -169.161413 
L 294.214737 -146.7971 
L 292.452632 -143.314504 
L 290.690526 -146.569594 
L 288.928421 -143.817355 
L 287.166316 -123.540896 
L 285.404211 -129.650227 
L 283.642105 -126.303768 
L 281.88 -131.115587 
L 280.117895 -136.429092 
L 278.355789 -133.66088 
L 276.593684 -126.559534 
L 274.831579 -116.499283 
L 273.069474 -111.542702 
L 271.307368 -95.834497 
L 269.545263 -88.98238 
L 267.783158 -82.121057 
L 266.021053 -74.310173 
L 264.258947 -69.409 
L 262.496842 -68.733519 
L 260.734737 -70.97702 
L 258.972632 -81.993452 
L 257.210526 -87.828004 
L 255.448421 -88.803528 
L 253.686316 -72.892994 
L 251.924211 -88.70123 
L 250.162105 -80.785608 
L 248.4 -88.250322 
L 246.637895 -80.115901 
L 244.875789 -77.441602 
L 243.113684 -73.153778 
L 241.351579 -104.277045 
L 239.589474 -112.742932 
L 237.827368 -97.10743 
L 236.065263 -108.510066 
L 234.303158 -101.146543 
L 232.541053 -100.056787 
L 230.778947 -91.881429 
L 229.016842 -105.034539 
L 227.254737 -97.924763 
L 225.492632 -83.128138 
L 223.730526 -81.582682 
L 221.968421 -73.927813 
L 220.206316 -75.808791 
L 218.444211 -83.576507 
L 216.682105 -110.324632 
L 214.92 -111.131423 
L 213.157895 -122.166278 
L 211.395789 -134.145763 
L 209.633684 -125.356607 
L 207.871579 -128.001634 
L 206.109474 -120.671229 
L 204.347368 -113.187913 
L 202.585263 -105.232669 
L 200.823158 -120.090127 
L 199.061053 -154.926311 
L 197.298947 -152.581146 
L 195.536842 -159.655792 
L 193.774737 -171.056333 
L 192.012632 -164.895658 
L 190.250526 -162.624817 
L 188.488421 -146.315457 
L 186.726316 -157.558025 
L 184.964211 -146.087968 
L 183.202105 -157.479186 
L 181.44 -155.290223 
L 179.677895 -149.793567 
L 177.915789 -163.264324 
L 176.153684 -162.426724 
L 174.391579 -172.82907 
L 172.629474 -174.115998 
L 170.867368 -190.08 
L 169.105263 -174.174548 
L 167.343158 -166.039361 
L 165.581053 -127.537171 
L 163.818947 -166.204531 
L 162.056842 -167.094445 
L 160.294737 -156.783542 
L 158.532632 -175.538855 
L 156.770526 -155.675933 
L 155.008421 -145.537485 
L 153.246316 -142.780682 
L 151.484211 -168.134033 
L 149.722105 -158.038746 
L 147.96 -173.95587 
L 146.197895 -185.110296 
L 144.435789 -181.343291 
L 142.673684 -183.959903 
L 140.911579 -176.098951 
L 139.149474 -142.585334 
L 137.387368 -135.582695 
L 135.625263 -152.745963 
L 133.863158 -148.850264 
L 132.101053 -139.460895 
L 130.338947 -153.153989 
L 128.576842 -135.627714 
L 126.814737 -144.481427 
L 125.052632 -135.091199 
L 123.290526 -146.373409 
L 121.528421 -124.713316 
L 119.766316 -141.845043 
L 118.004211 -146.224483 
L 116.242105 -134.477638 
L 114.48 -147.442605 
L 112.717895 -166.776659 
L 110.955789 -168.975372 
L 109.193684 -125.127514 
L 107.431579 -122.627256 
L 105.669474 -121.295777 
L 103.907368 -117.820004 
L 102.145263 -116.160617 
L 100.383158 -105.161739 
L 98.621053 -110.143048 
L 96.858947 -106.703607 
L 95.096842 -114.008794 
L 93.334737 -136.683561 
L 91.572632 -129.982787 
L 89.810526 -138.260576 
L 88.048421 -130.269001 
L 86.286316 -120.515745 
L 84.524211 -127.287612 
L 82.762105 -121.443336 
L 81 -129.721616 
z
" id="m69a74de6cb" style="stroke:#0000ff;stroke-opacity:0.3;"/>
    </defs>
    <g clip-path="url(#pfbf8f7199d)">
     <use style="fill:#0000ff;fill-opacity:0.3;stroke:#0000ff;stroke-opacity:0.3;" x="0" xlink:href="#m69a74de6cb" y="216"/>
    </g>
   </g>
   <g id="matplotlib.axis_1">
    <g id="xtick_1">
     <g id="line2d_1">
      <defs>
       <path d="M 0 0 
L 0 3.5 
" id="mb4be9fde1d" style="stroke:#000000;stroke-width:0.8;"/>
      </defs>
      <g>
       <use style="stroke:#000000;stroke-width:0.8;" x="156.33" xlink:href="#mb4be9fde1d" y="192.24"/>
      </g>
     </g>
     <g id="text_1">
      <!-- 0.0 -->
      <defs>
       <path d="M 31.78125 66.40625 
Q 24.171875 66.40625 20.328125 58.90625 
Q 16.5 51.421875 16.5 36.375 
Q 16.5 21.390625 20.328125 13.890625 
Q 24.171875 6.390625 31.78125 6.390625 
Q 39.453125 6.390625 43.28125 13.890625 
Q 47.125 21.390625 47.125 36.375 
Q 47.125 51.421875 43.28125 58.90625 
Q 39.453125 66.40625 31.78125 66.40625 
z
M 31.78125 74.21875 
Q 44.046875 74.21875 50.515625 64.515625 
Q 56.984375 54.828125 56.984375 36.375 
Q 56.984375 17.96875 50.515625 8.265625 
Q 44.046875 -1.421875 31.78125 -1.421875 
Q 19.53125 -1.421875 13.0625 8.265625 
Q 6.59375 17.96875 6.59375 36.375 
Q 6.59375 54.828125 13.0625 64.515625 
Q 19.53125 74.21875 31.78125 74.21875 
z
" id="DejaVuSans-48"/>
       <path d="M 10.6875 12.40625 
L 21 12.40625 
L 21 0 
L 10.6875 0 
z
" id="DejaVuSans-46"/>
      </defs>
      <g transform="translate(146.788125 208.358125)scale(0.12 -0.12)">
       <use xlink:href="#DejaVuSans-48"/>
       <use x="63.623047" xlink:href="#DejaVuSans-46"/>
       <use x="95.410156" xlink:href="#DejaVuSans-48"/>
      </g>
     </g>
    </g>
    <g id="xtick_2">
     <g id="line2d_2">
      <g>
       <use style="stroke:#000000;stroke-width:0.8;" x="244.435263" xlink:href="#mb4be9fde1d" y="192.24"/>
      </g>
     </g>
     <g id="text_2">
      <!-- 0.5 -->
      <defs>
       <path d="M 10.796875 72.90625 
L 49.515625 72.90625 
L 49.515625 64.59375 
L 19.828125 64.59375 
L 19.828125 46.734375 
Q 21.96875 47.46875 24.109375 47.828125 
Q 26.265625 48.1875 28.421875 48.1875 
Q 40.625 48.1875 47.75 41.5 
Q 54.890625 34.8125 54.890625 23.390625 
Q 54.890625 11.625 47.5625 5.09375 
Q 40.234375 -1.421875 26.90625 -1.421875 
Q 22.3125 -1.421875 17.546875 -0.640625 
Q 12.796875 0.140625 7.71875 1.703125 
L 7.71875 11.625 
Q 12.109375 9.234375 16.796875 8.0625 
Q 21.484375 6.890625 26.703125 6.890625 
Q 35.15625 6.890625 40.078125 11.328125 
Q 45.015625 15.765625 45.015625 23.390625 
Q 45.015625 31 40.078125 35.4375 
Q 35.15625 39.890625 26.703125 39.890625 
Q 22.75 39.890625 18.8125 39.015625 
Q 14.890625 38.140625 10.796875 36.28125 
z
" id="DejaVuSans-53"/>
      </defs>
      <g transform="translate(234.893388 208.358125)scale(0.12 -0.12)">
       <use xlink:href="#DejaVuSans-48"/>
       <use x="63.623047" xlink:href="#DejaVuSans-46"/>
       <use x="95.410156" xlink:href="#DejaVuSans-53"/>
      </g>
     </g>
    </g>
    <g id="xtick_3">
     <g id="line2d_3">
      <g>
       <use style="stroke:#000000;stroke-width:0.8;" x="332.540526" xlink:href="#mb4be9fde1d" y="192.24"/>
      </g>
     </g>
     <g id="text_3">
      <!-- 1.0 -->
      <defs>
       <path d="M 12.40625 8.296875 
L 28.515625 8.296875 
L 28.515625 63.921875 
L 10.984375 60.40625 
L 10.984375 69.390625 
L 28.421875 72.90625 
L 38.28125 72.90625 
L 38.28125 8.296875 
L 54.390625 8.296875 
L 54.390625 0 
L 12.40625 0 
z
" id="DejaVuSans-49"/>
      </defs>
      <g transform="translate(322.998651 208.358125)scale(0.12 -0.12)">
       <use xlink:href="#DejaVuSans-49"/>
       <use x="63.623047" xlink:href="#DejaVuSans-46"/>
       <use x="95.410156" xlink:href="#DejaVuSans-48"/>
      </g>
     </g>
    </g>
    <g id="xtick_4">
     <g id="line2d_4">
      <g>
       <use style="stroke:#000000;stroke-width:0.8;" x="420.645789" xlink:href="#mb4be9fde1d" y="192.24"/>
      </g>
     </g>
     <g id="text_4">
      <!-- 1.5 -->
      <g transform="translate(411.103914 208.358125)scale(0.12 -0.12)">
       <use xlink:href="#DejaVuSans-49"/>
       <use x="63.623047" xlink:href="#DejaVuSans-46"/>
       <use x="95.410156" xlink:href="#DejaVuSans-53"/>
      </g>
     </g>
    </g>
    <g id="xtick_5">
     <g id="line2d_5">
      <g>
       <use style="stroke:#000000;stroke-width:0.8;" x="508.751053" xlink:href="#mb4be9fde1d" y="192.24"/>
      </g>
     </g>
     <g id="text_5">
      <!-- 2.0 -->
      <defs>
       <path d="M 19.1875 8.296875 
L 53.609375 8.296875 
L 53.609375 0 
L 7.328125 0 
L 7.328125 8.296875 
Q 12.9375 14.109375 22.625 23.890625 
Q 32.328125 33.6875 34.8125 36.53125 
Q 39.546875 41.84375 41.421875 45.53125 
Q 43.3125 49.21875 43.3125 52.78125 
Q 43.3125 58.59375 39.234375 62.25 
Q 35.15625 65.921875 28.609375 65.921875 
Q 23.96875 65.921875 18.8125 64.3125 
Q 13.671875 62.703125 7.8125 59.421875 
L 7.8125 69.390625 
Q 13.765625 71.78125 18.9375 73 
Q 24.125 74.21875 28.421875 74.21875 
Q 39.75 74.21875 46.484375 68.546875 
Q 53.21875 62.890625 53.21875 53.421875 
Q 53.21875 48.921875 51.53125 44.890625 
Q 49.859375 40.875 45.40625 35.40625 
Q 44.1875 33.984375 37.640625 27.21875 
Q 31.109375 20.453125 19.1875 8.296875 
z
" id="DejaVuSans-50"/>
      </defs>
      <g transform="translate(499.209178 208.358125)scale(0.12 -0.12)">
       <use xlink:href="#DejaVuSans-50"/>
       <use x="63.623047" xlink:href="#DejaVuSans-46"/>
       <use x="95.410156" xlink:href="#DejaVuSans-48"/>
      </g>
     </g>
    </g>
    <g id="text_6">
     <!-- Time (s) -->
     <defs>
      <path d="M -0.296875 72.90625 
L 61.375 72.90625 
L 61.375 64.59375 
L 35.5 64.59375 
L 35.5 0 
L 25.59375 0 
L 25.59375 64.59375 
L -0.296875 64.59375 
z
" id="DejaVuSans-84"/>
      <path d="M 9.421875 54.6875 
L 18.40625 54.6875 
L 18.40625 0 
L 9.421875 0 
z
M 9.421875 75.984375 
L 18.40625 75.984375 
L 18.40625 64.59375 
L 9.421875 64.59375 
z
" id="DejaVuSans-105"/>
      <path d="M 52 44.1875 
Q 55.375 50.25 60.0625 53.125 
Q 64.75 56 71.09375 56 
Q 79.640625 56 84.28125 50.015625 
Q 88.921875 44.046875 88.921875 33.015625 
L 88.921875 0 
L 79.890625 0 
L 79.890625 32.71875 
Q 79.890625 40.578125 77.09375 44.375 
Q 74.3125 48.1875 68.609375 48.1875 
Q 61.625 48.1875 57.5625 43.546875 
Q 53.515625 38.921875 53.515625 30.90625 
L 53.515625 0 
L 44.484375 0 
L 44.484375 32.71875 
Q 44.484375 40.625 41.703125 44.40625 
Q 38.921875 48.1875 33.109375 48.1875 
Q 26.21875 48.1875 22.15625 43.53125 
Q 18.109375 38.875 18.109375 30.90625 
L 18.109375 0 
L 9.078125 0 
L 9.078125 54.6875 
L 18.109375 54.6875 
L 18.109375 46.1875 
Q 21.1875 51.21875 25.484375 53.609375 
Q 29.78125 56 35.6875 56 
Q 41.65625 56 45.828125 52.96875 
Q 50 49.953125 52 44.1875 
z
" id="DejaVuSans-109"/>
      <path d="M 56.203125 29.59375 
L 56.203125 25.203125 
L 14.890625 25.203125 
Q 15.484375 15.921875 20.484375 11.0625 
Q 25.484375 6.203125 34.421875 6.203125 
Q 39.59375 6.203125 44.453125 7.46875 
Q 49.3125 8.734375 54.109375 11.28125 
L 54.109375 2.78125 
Q 49.265625 0.734375 44.1875 -0.34375 
Q 39.109375 -1.421875 33.890625 -1.421875 
Q 20.796875 -1.421875 13.15625 6.1875 
Q 5.515625 13.8125 5.515625 26.8125 
Q 5.515625 40.234375 12.765625 48.109375 
Q 20.015625 56 32.328125 56 
Q 43.359375 56 49.78125 48.890625 
Q 56.203125 41.796875 56.203125 29.59375 
z
M 47.21875 32.234375 
Q 47.125 39.59375 43.09375 43.984375 
Q 39.0625 48.390625 32.421875 48.390625 
Q 24.90625 48.390625 20.390625 44.140625 
Q 15.875 39.890625 15.1875 32.171875 
z
" id="DejaVuSans-101"/>
      <path id="DejaVuSans-32"/>
      <path d="M 31 75.875 
Q 24.46875 64.65625 21.28125 53.65625 
Q 18.109375 42.671875 18.109375 31.390625 
Q 18.109375 20.125 21.3125 9.0625 
Q 24.515625 -2 31 -13.1875 
L 23.1875 -13.1875 
Q 15.875 -1.703125 12.234375 9.375 
Q 8.59375 20.453125 8.59375 31.390625 
Q 8.59375 42.28125 12.203125 53.3125 
Q 15.828125 64.359375 23.1875 75.875 
z
" id="DejaVuSans-40"/>
      <path d="M 44.28125 53.078125 
L 44.28125 44.578125 
Q 40.484375 46.53125 36.375 47.5 
Q 32.28125 48.484375 27.875 48.484375 
Q 21.1875 48.484375 17.84375 46.4375 
Q 14.5 44.390625 14.5 40.28125 
Q 14.5 37.15625 16.890625 35.375 
Q 19.28125 33.59375 26.515625 31.984375 
L 29.59375 31.296875 
Q 39.15625 29.25 43.1875 25.515625 
Q 47.21875 21.78125 47.21875 15.09375 
Q 47.21875 7.46875 41.1875 3.015625 
Q 35.15625 -1.421875 24.609375 -1.421875 
Q 20.21875 -1.421875 15.453125 -0.5625 
Q 10.6875 0.296875 5.421875 2 
L 5.421875 11.28125 
Q 10.40625 8.6875 15.234375 7.390625 
Q 20.0625 6.109375 24.8125 6.109375 
Q 31.15625 6.109375 34.5625 8.28125 
Q 37.984375 10.453125 37.984375 14.40625 
Q 37.984375 18.0625 35.515625 20.015625 
Q 33.0625 21.96875 24.703125 23.78125 
L 21.578125 24.515625 
Q 13.234375 26.265625 9.515625 29.90625 
Q 5.8125 33.546875 5.8125 39.890625 
Q 5.8125 47.609375 11.28125 51.796875 
Q 16.75 56 26.8125 56 
Q 31.78125 56 36.171875 55.265625 
Q 40.578125 54.546875 44.28125 53.078125 
z
" id="DejaVuSans-115"/>
      <path d="M 8.015625 75.875 
L 15.828125 75.875 
Q 23.140625 64.359375 26.78125 53.3125 
Q 30.421875 42.28125 30.421875 31.390625 
Q 30.421875 20.453125 26.78125 9.375 
Q 23.140625 -1.703125 15.828125 -13.1875 
L 8.015625 -13.1875 
Q 14.5 -2 17.703125 9.0625 
Q 20.90625 20.125 20.90625 31.390625 
Q 20.90625 42.671875 17.703125 53.65625 
Q 14.5 64.65625 8.015625 75.875 
z
" id="DejaVuSans-41"/>
     </defs>
     <g transform="translate(302.60475 225.7955)scale(0.144 -0.144)">
      <use xlink:href="#DejaVuSans-84"/>
      <use x="61.037109" xlink:href="#DejaVuSans-105"/>
      <use x="88.820312" xlink:href="#DejaVuSans-109"/>
      <use x="186.232422" xlink:href="#DejaVuSans-101"/>
      <use x="247.755859" xlink:href="#DejaVuSans-32"/>
      <use x="279.542969" xlink:href="#DejaVuSans-40"/>
      <use x="318.556641" xlink:href="#DejaVuSans-115"/>
      <use x="370.65625" xlink:href="#DejaVuSans-41"/>
     </g>
    </g>
   </g>
   <g id="matplotlib.axis_2">
    <g id="ytick_1">
     <g id="line2d_6">
      <defs>
       <path d="M 0 0 
L -3.5 0 
" id="mda29e70b51" style="stroke:#000000;stroke-width:0.8;"/>
      </defs>
      <g>
       <use style="stroke:#000000;stroke-width:0.8;" x="81" xlink:href="#mda29e70b51" y="188.851788"/>
      </g>
     </g>
     <g id="text_7">
      <!-- 0.7 -->
      <defs>
       <path d="M 8.203125 72.90625 
L 55.078125 72.90625 
L 55.078125 68.703125 
L 28.609375 0 
L 18.3125 0 
L 43.21875 64.59375 
L 8.203125 64.59375 
z
" id="DejaVuSans-55"/>
      </defs>
      <g transform="translate(54.91625 193.410851)scale(0.12 -0.12)">
       <use xlink:href="#DejaVuSans-48"/>
       <use x="63.623047" xlink:href="#DejaVuSans-46"/>
       <use x="95.410156" xlink:href="#DejaVuSans-55"/>
      </g>
     </g>
    </g>
    <g id="ytick_2">
     <g id="line2d_7">
      <g>
       <use style="stroke:#000000;stroke-width:0.8;" x="81" xlink:href="#mda29e70b51" y="162.397652"/>
      </g>
     </g>
     <g id="text_8">
      <!-- 0.8 -->
      <defs>
       <path d="M 31.78125 34.625 
Q 24.75 34.625 20.71875 30.859375 
Q 16.703125 27.09375 16.703125 20.515625 
Q 16.703125 13.921875 20.71875 10.15625 
Q 24.75 6.390625 31.78125 6.390625 
Q 38.8125 6.390625 42.859375 10.171875 
Q 46.921875 13.96875 46.921875 20.515625 
Q 46.921875 27.09375 42.890625 30.859375 
Q 38.875 34.625 31.78125 34.625 
z
M 21.921875 38.8125 
Q 15.578125 40.375 12.03125 44.71875 
Q 8.5 49.078125 8.5 55.328125 
Q 8.5 64.0625 14.71875 69.140625 
Q 20.953125 74.21875 31.78125 74.21875 
Q 42.671875 74.21875 48.875 69.140625 
Q 55.078125 64.0625 55.078125 55.328125 
Q 55.078125 49.078125 51.53125 44.71875 
Q 48 40.375 41.703125 38.8125 
Q 48.828125 37.15625 52.796875 32.3125 
Q 56.78125 27.484375 56.78125 20.515625 
Q 56.78125 9.90625 50.3125 4.234375 
Q 43.84375 -1.421875 31.78125 -1.421875 
Q 19.734375 -1.421875 13.25 4.234375 
Q 6.78125 9.90625 6.78125 20.515625 
Q 6.78125 27.484375 10.78125 32.3125 
Q 14.796875 37.15625 21.921875 38.8125 
z
M 18.3125 54.390625 
Q 18.3125 48.734375 21.84375 45.5625 
Q 25.390625 42.390625 31.78125 42.390625 
Q 38.140625 42.390625 41.71875 45.5625 
Q 45.3125 48.734375 45.3125 54.390625 
Q 45.3125 60.0625 41.71875 63.234375 
Q 38.140625 66.40625 31.78125 66.40625 
Q 25.390625 66.40625 21.84375 63.234375 
Q 18.3125 60.0625 18.3125 54.390625 
z
" id="DejaVuSans-56"/>
      </defs>
      <g transform="translate(54.91625 166.956715)scale(0.12 -0.12)">
       <use xlink:href="#DejaVuSans-48"/>
       <use x="63.623047" xlink:href="#DejaVuSans-46"/>
       <use x="95.410156" xlink:href="#DejaVuSans-56"/>
      </g>
     </g>
    </g>
    <g id="ytick_3">
     <g id="line2d_8">
      <g>
       <use style="stroke:#000000;stroke-width:0.8;" x="81" xlink:href="#mda29e70b51" y="135.943517"/>
      </g>
     </g>
     <g id="text_9">
      <!-- 0.9 -->
      <defs>
       <path d="M 10.984375 1.515625 
L 10.984375 10.5 
Q 14.703125 8.734375 18.5 7.8125 
Q 22.3125 6.890625 25.984375 6.890625 
Q 35.75 6.890625 40.890625 13.453125 
Q 46.046875 20.015625 46.78125 33.40625 
Q 43.953125 29.203125 39.59375 26.953125 
Q 35.25 24.703125 29.984375 24.703125 
Q 19.046875 24.703125 12.671875 31.3125 
Q 6.296875 37.9375 6.296875 49.421875 
Q 6.296875 60.640625 12.9375 67.421875 
Q 19.578125 74.21875 30.609375 74.21875 
Q 43.265625 74.21875 49.921875 64.515625 
Q 56.59375 54.828125 56.59375 36.375 
Q 56.59375 19.140625 48.40625 8.859375 
Q 40.234375 -1.421875 26.421875 -1.421875 
Q 22.703125 -1.421875 18.890625 -0.6875 
Q 15.09375 0.046875 10.984375 1.515625 
z
M 30.609375 32.421875 
Q 37.25 32.421875 41.125 36.953125 
Q 45.015625 41.5 45.015625 49.421875 
Q 45.015625 57.28125 41.125 61.84375 
Q 37.25 66.40625 30.609375 66.40625 
Q 23.96875 66.40625 20.09375 61.84375 
Q 16.21875 57.28125 16.21875 49.421875 
Q 16.21875 41.5 20.09375 36.953125 
Q 23.96875 32.421875 30.609375 32.421875 
z
" id="DejaVuSans-57"/>
      </defs>
      <g transform="translate(54.91625 140.502579)scale(0.12 -0.12)">
       <use xlink:href="#DejaVuSans-48"/>
       <use x="63.623047" xlink:href="#DejaVuSans-46"/>
       <use x="95.410156" xlink:href="#DejaVuSans-57"/>
      </g>
     </g>
    </g>
    <g id="ytick_4">
     <g id="line2d_9">
      <g>
       <use style="stroke:#000000;stroke-width:0.8;" x="81" xlink:href="#mda29e70b51" y="109.489381"/>
      </g>
     </g>
     <g id="text_10">
      <!-- 1.0 -->
      <g transform="translate(54.91625 114.048444)scale(0.12 -0.12)">
       <use xlink:href="#DejaVuSans-49"/>
       <use x="63.623047" xlink:href="#DejaVuSans-46"/>
       <use x="95.410156" xlink:href="#DejaVuSans-48"/>
      </g>
     </g>
    </g>
    <g id="ytick_5">
     <g id="line2d_10">
      <g>
       <use style="stroke:#000000;stroke-width:0.8;" x="81" xlink:href="#mda29e70b51" y="83.035245"/>
      </g>
     </g>
     <g id="text_11">
      <!-- 1.1 -->
      <g transform="translate(54.91625 87.594308)scale(0.12 -0.12)">
       <use xlink:href="#DejaVuSans-49"/>
       <use x="63.623047" xlink:href="#DejaVuSans-46"/>
       <use x="95.410156" xlink:href="#DejaVuSans-49"/>
      </g>
     </g>
    </g>
    <g id="ytick_6">
     <g id="line2d_11">
      <g>
       <use style="stroke:#000000;stroke-width:0.8;" x="81" xlink:href="#mda29e70b51" y="56.58111"/>
      </g>
     </g>
     <g id="text_12">
      <!-- 1.2 -->
      <g transform="translate(54.91625 61.140172)scale(0.12 -0.12)">
       <use xlink:href="#DejaVuSans-49"/>
       <use x="63.623047" xlink:href="#DejaVuSans-46"/>
       <use x="95.410156" xlink:href="#DejaVuSans-50"/>
      </g>
     </g>
    </g>
    <g id="ytick_7">
     <g id="line2d_12">
      <g>
       <use style="stroke:#000000;stroke-width:0.8;" x="81" xlink:href="#mda29e70b51" y="30.126974"/>
      </g>
     </g>
     <g id="text_13">
      <!-- 1.3 -->
      <defs>
       <path d="M 40.578125 39.3125 
Q 47.65625 37.796875 51.625 33 
Q 55.609375 28.21875 55.609375 21.1875 
Q 55.609375 10.40625 48.1875 4.484375 
Q 40.765625 -1.421875 27.09375 -1.421875 
Q 22.515625 -1.421875 17.65625 -0.515625 
Q 12.796875 0.390625 7.625 2.203125 
L 7.625 11.71875 
Q 11.71875 9.328125 16.59375 8.109375 
Q 21.484375 6.890625 26.8125 6.890625 
Q 36.078125 6.890625 40.9375 10.546875 
Q 45.796875 14.203125 45.796875 21.1875 
Q 45.796875 27.640625 41.28125 31.265625 
Q 36.765625 34.90625 28.71875 34.90625 
L 20.21875 34.90625 
L 20.21875 43.015625 
L 29.109375 43.015625 
Q 36.375 43.015625 40.234375 45.921875 
Q 44.09375 48.828125 44.09375 54.296875 
Q 44.09375 59.90625 40.109375 62.90625 
Q 36.140625 65.921875 28.71875 65.921875 
Q 24.65625 65.921875 20.015625 65.03125 
Q 15.375 64.15625 9.8125 62.3125 
L 9.8125 71.09375 
Q 15.4375 72.65625 20.34375 73.4375 
Q 25.25 74.21875 29.59375 74.21875 
Q 40.828125 74.21875 47.359375 69.109375 
Q 53.90625 64.015625 53.90625 55.328125 
Q 53.90625 49.265625 50.4375 45.09375 
Q 46.96875 40.921875 40.578125 39.3125 
z
" id="DejaVuSans-51"/>
      </defs>
      <g transform="translate(54.91625 34.686037)scale(0.12 -0.12)">
       <use xlink:href="#DejaVuSans-49"/>
       <use x="63.623047" xlink:href="#DejaVuSans-46"/>
       <use x="95.410156" xlink:href="#DejaVuSans-51"/>
      </g>
     </g>
    </g>
    <g id="text_14">
     <!-- COMb $\nu$ -->
     <defs>
      <path d="M 64.40625 67.28125 
L 64.40625 56.890625 
Q 59.421875 61.53125 53.78125 63.8125 
Q 48.140625 66.109375 41.796875 66.109375 
Q 29.296875 66.109375 22.65625 58.46875 
Q 16.015625 50.828125 16.015625 36.375 
Q 16.015625 21.96875 22.65625 14.328125 
Q 29.296875 6.6875 41.796875 6.6875 
Q 48.140625 6.6875 53.78125 8.984375 
Q 59.421875 11.28125 64.40625 15.921875 
L 64.40625 5.609375 
Q 59.234375 2.09375 53.4375 0.328125 
Q 47.65625 -1.421875 41.21875 -1.421875 
Q 24.65625 -1.421875 15.125 8.703125 
Q 5.609375 18.84375 5.609375 36.375 
Q 5.609375 53.953125 15.125 64.078125 
Q 24.65625 74.21875 41.21875 74.21875 
Q 47.75 74.21875 53.53125 72.484375 
Q 59.328125 70.75 64.40625 67.28125 
z
" id="DejaVuSans-67"/>
      <path d="M 39.40625 66.21875 
Q 28.65625 66.21875 22.328125 58.203125 
Q 16.015625 50.203125 16.015625 36.375 
Q 16.015625 22.609375 22.328125 14.59375 
Q 28.65625 6.59375 39.40625 6.59375 
Q 50.140625 6.59375 56.421875 14.59375 
Q 62.703125 22.609375 62.703125 36.375 
Q 62.703125 50.203125 56.421875 58.203125 
Q 50.140625 66.21875 39.40625 66.21875 
z
M 39.40625 74.21875 
Q 54.734375 74.21875 63.90625 63.9375 
Q 73.09375 53.65625 73.09375 36.375 
Q 73.09375 19.140625 63.90625 8.859375 
Q 54.734375 -1.421875 39.40625 -1.421875 
Q 24.03125 -1.421875 14.8125 8.828125 
Q 5.609375 19.09375 5.609375 36.375 
Q 5.609375 53.65625 14.8125 63.9375 
Q 24.03125 74.21875 39.40625 74.21875 
z
" id="DejaVuSans-79"/>
      <path d="M 9.8125 72.90625 
L 24.515625 72.90625 
L 43.109375 23.296875 
L 61.8125 72.90625 
L 76.515625 72.90625 
L 76.515625 0 
L 66.890625 0 
L 66.890625 64.015625 
L 48.09375 14.015625 
L 38.1875 14.015625 
L 19.390625 64.015625 
L 19.390625 0 
L 9.8125 0 
z
" id="DejaVuSans-77"/>
      <path d="M 48.6875 27.296875 
Q 48.6875 37.203125 44.609375 42.84375 
Q 40.53125 48.484375 33.40625 48.484375 
Q 26.265625 48.484375 22.1875 42.84375 
Q 18.109375 37.203125 18.109375 27.296875 
Q 18.109375 17.390625 22.1875 11.75 
Q 26.265625 6.109375 33.40625 6.109375 
Q 40.53125 6.109375 44.609375 11.75 
Q 48.6875 17.390625 48.6875 27.296875 
z
M 18.109375 46.390625 
Q 20.953125 51.265625 25.265625 53.625 
Q 29.59375 56 35.59375 56 
Q 45.5625 56 51.78125 48.09375 
Q 58.015625 40.1875 58.015625 27.296875 
Q 58.015625 14.40625 51.78125 6.484375 
Q 45.5625 -1.421875 35.59375 -1.421875 
Q 29.59375 -1.421875 25.265625 0.953125 
Q 20.953125 3.328125 18.109375 8.203125 
L 18.109375 0 
L 9.078125 0 
L 9.078125 75.984375 
L 18.109375 75.984375 
z
" id="DejaVuSans-98"/>
      <path d="M 14.984375 0 
L 8.9375 54.6875 
L 18.609375 54.6875 
L 23.78125 8.796875 
Q 30.8125 14.84375 37.359375 23.25 
Q 42.28125 29.546875 43.5625 35.015625 
Q 44.140625 37.59375 43.890625 42.484375 
Q 43.65625 48.296875 39.75 54.6875 
L 48.828125 54.6875 
L 48.828125 54.6875 
Q 51.375 50.34375 52.390625 44.28125 
Q 53.375 38.71875 52.640625 34.90625 
Q 50.78125 25.34375 42.484375 16.796875 
Q 31.640625 5.671875 24.5625 0 
z
" id="DejaVuSans-Oblique-957"/>
     </defs>
     <g transform="translate(47.9215 136.872)rotate(-90)scale(0.144 -0.144)">
      <use transform="translate(0 0.015625)" xlink:href="#DejaVuSans-67"/>
      <use transform="translate(69.824219 0.015625)" xlink:href="#DejaVuSans-79"/>
      <use transform="translate(148.535156 0.015625)" xlink:href="#DejaVuSans-77"/>
      <use transform="translate(234.814453 0.015625)" xlink:href="#DejaVuSans-98"/>
      <use transform="translate(298.291016 0.015625)" xlink:href="#DejaVuSans-32"/>
      <use transform="translate(330.078125 0.015625)" xlink:href="#DejaVuSans-Oblique-957"/>
     </g>
    </g>
   </g>
   <g id="line2d_13">
    <path clip-path="url(#pfbf8f7199d)" d="M 81 109.880136 
L 82.762105 117.793629 
L 84.524211 116.988459 
L 86.286316 120.465073 
L 88.048421 111.251773 
L 89.810526 100.151911 
L 91.572632 106.842255 
L 93.334737 100.262723 
L 95.096842 119.291578 
L 96.858947 126.884765 
L 98.621053 124.351197 
L 100.383158 127.120751 
L 102.145263 118.252444 
L 103.907368 118.663543 
L 105.669474 116.503342 
L 107.431579 113.414448 
L 109.193684 108.562837 
L 110.955789 75.617755 
L 112.717895 76.429116 
L 114.48 91.977375 
L 116.242105 104.006024 
L 118.004211 92.304901 
L 119.766316 94.174997 
L 121.528421 109.397707 
L 123.290526 93.185506 
L 125.052632 102.237712 
L 126.814737 93.025934 
L 128.576842 100.104731 
L 130.338947 85.721363 
L 132.101053 103.351389 
L 133.863158 100.801938 
L 135.625263 98.797294 
L 137.387368 109.889988 
L 139.149474 102.023582 
L 140.911579 73.246015 
L 142.673684 64.988166 
L 144.435789 68.696915 
L 146.197895 65.180366 
L 149.722105 87.055019 
L 151.484211 81.05915 
L 153.246316 99.415393 
L 155.008421 97.966816 
L 156.770526 87.988228 
L 158.532632 74.357139 
L 160.294737 88.690903 
L 162.056842 86.424582 
L 163.818947 87.028325 
L 165.581053 112.636209 
L 167.343158 79.215362 
L 169.105263 65.347125 
L 170.867368 52.735782 
L 172.629474 67.139429 
L 174.391579 70.262031 
L 176.153684 80.47496 
L 177.915789 82.508927 
L 179.677895 90.358289 
L 181.44 82.801109 
L 183.202105 84.236372 
L 184.964211 92.444983 
L 186.726316 82.290976 
L 188.488421 93.659039 
L 190.250526 81.657903 
L 192.012632 82.189153 
L 193.774737 80.320505 
L 195.536842 89.549419 
L 197.298947 96.763433 
L 199.061053 93.710003 
L 200.823158 117.922444 
L 202.585263 130.767103 
L 204.347368 122.935411 
L 206.109474 116.787795 
L 207.871579 112.146891 
L 209.633684 116.706213 
L 211.395789 111.665994 
L 213.157895 118.61654 
L 214.92 126.667835 
L 216.682105 131.705418 
L 218.444211 150.847956 
L 220.206316 158.492525 
L 221.968421 160.183386 
L 223.730526 152.844556 
L 225.492632 152.067138 
L 227.254737 143.329707 
L 229.016842 135.462992 
L 230.778947 144.946495 
L 232.541053 136.64358 
L 234.303158 138.108235 
L 236.065263 133.446343 
L 237.827368 141.641454 
L 239.589474 130.541222 
L 241.351579 138.238718 
L 243.113684 161.960196 
L 244.875789 155.981115 
L 246.637895 152.946167 
L 248.4 142.775013 
L 250.162105 150.047184 
L 251.924211 145.365901 
L 253.686316 155.636676 
L 255.448421 144.407397 
L 257.210526 146.49619 
L 258.972632 150.009922 
L 260.734737 160.566465 
L 262.496842 163.215914 
L 264.258947 163.320024 
L 266.021053 158.043505 
L 267.783158 150.078218 
L 271.307368 136.746276 
L 273.069474 119.503591 
L 274.831579 116.023249 
L 276.593684 106.008653 
L 278.355789 102.856584 
L 280.117895 97.116241 
L 283.642105 104.626862 
L 285.404211 98.940945 
L 287.166316 105.654922 
L 288.928421 92.940806 
L 290.690526 93.946048 
L 292.452632 97.951929 
L 294.214737 96.762594 
L 295.976842 77.624699 
L 297.738947 90.567618 
L 299.501053 91.981645 
L 301.263158 72.212709 
L 303.025263 108.023129 
L 304.787368 95.116578 
L 306.549474 102.940464 
L 308.311579 100.182707 
L 310.073684 104.852525 
L 311.835789 119.588216 
L 313.597895 115.075928 
L 315.36 129.005551 
L 317.122105 116.821479 
L 318.884211 119.175128 
L 322.408421 130.275103 
L 324.170526 117.411001 
L 325.932632 119.957081 
L 327.694737 107.395535 
L 329.456842 101.747396 
L 331.218947 138.120217 
L 332.981053 98.722329 
L 334.743158 138.694474 
L 336.505263 112.512659 
L 338.267368 101.441905 
L 340.029474 104.140216 
L 341.791579 110.254435 
L 343.553684 143.208352 
L 345.315789 160.640446 
L 347.077895 159.326851 
L 348.84 146.592628 
L 350.602105 148.437815 
L 352.364211 153.595056 
L 354.126316 140.181883 
L 357.650526 124.635096 
L 359.412632 117.980201 
L 361.174737 105.68105 
L 362.936842 98.902596 
L 364.698947 103.44702 
L 366.461053 98.12639 
L 368.223158 115.488073 
L 369.985263 130.783959 
L 371.747368 126.174144 
L 373.509474 126.252066 
L 375.271579 124.750063 
L 377.033684 118.641429 
L 378.795789 126.036375 
L 380.557895 107.982359 
L 382.32 102.902976 
L 384.082105 111.426047 
L 385.844211 108.371888 
L 387.606316 104.931658 
L 389.368421 98.255807 
L 391.130526 85.032471 
L 392.892632 84.989465 
L 394.654737 91.279826 
L 396.416842 86.9013 
L 398.178947 83.689079 
L 399.941053 94.641423 
L 401.703158 93.249301 
L 403.465263 92.335533 
L 405.227368 90.295029 
L 406.989474 96.327425 
L 408.751579 97.547494 
L 410.513684 107.428851 
L 412.275789 121.660339 
L 414.037895 120.139511 
L 415.8 115.77409 
L 417.562105 108.987595 
L 419.324211 97.280061 
L 421.086316 96.87151 
L 422.848421 92.483745 
L 424.610526 89.765809 
L 426.372632 106.665615 
L 428.134737 97.799374 
L 429.896842 99.267003 
L 431.658947 94.615058 
L 433.421053 98.081107 
L 435.183158 99.588157 
L 436.945263 101.625335 
L 438.707368 99.382268 
L 440.469474 88.322889 
L 442.231579 99.224122 
L 443.993684 91.717605 
L 445.755789 95.110001 
L 447.517895 79.095346 
L 449.28 83.224192 
L 451.042105 88.548259 
L 452.804211 81.269996 
L 454.566316 98.740763 
L 456.328421 98.433115 
L 458.090526 75.587259 
L 459.852632 82.541217 
L 461.614737 76.331818 
L 463.376842 83.524583 
L 465.138947 107.391891 
L 466.901053 98.216791 
L 468.663158 102.826453 
L 470.425263 90.239431 
L 472.187368 108.99085 
L 475.711579 90.375665 
L 477.473684 84.018762 
L 479.235789 85.321465 
L 480.997895 91.794098 
L 482.76 88.017526 
L 484.522105 79.153601 
L 486.284211 68.216163 
L 488.046316 71.097229 
L 489.808421 81.108005 
L 491.570526 80.15022 
L 493.332632 98.28468 
L 495.094737 93.91669 
L 496.856842 91.861609 
L 498.618947 97.41813 
L 500.381053 98.065048 
L 502.143158 97.716212 
L 503.905263 103.061847 
L 505.667368 106.74579 
L 509.191579 118.235887 
L 510.953684 131.635328 
L 512.715789 126.490909 
L 514.477895 117.586323 
L 516.24 120.061916 
L 518.002105 115.92974 
L 519.764211 119.804284 
L 521.526316 127.530493 
L 523.288421 128.225426 
L 525.050526 137.42797 
L 526.812632 136.912852 
L 528.574737 123.921983 
L 530.336842 96.259907 
L 532.098947 105.759532 
L 533.861053 118.391263 
L 535.623158 114.565197 
L 537.385263 119.731535 
L 539.147368 108.308233 
L 540.909474 105.898432 
L 542.671579 104.477214 
L 544.433684 93.302737 
L 546.195789 83.305367 
L 547.957895 111.10596 
L 549.72 120.768862 
L 551.482105 116.415826 
L 553.244211 121.800396 
L 555.006316 124.743052 
L 556.768421 121.917291 
L 558.530526 140.965096 
L 560.292632 138.708958 
L 562.054737 157.789269 
L 563.816842 164.938014 
L 565.578947 157.843578 
L 567.341053 153.102324 
L 569.103158 155.972093 
L 570.865263 150.519955 
L 572.627368 141.207319 
L 574.389474 148.768112 
L 576.151579 151.249058 
L 577.913684 148.393725 
L 579.675789 153.811842 
L 581.437895 144.271021 
L 583.2 132.445611 
L 583.2 132.445611 
" style="fill:none;stroke:#0000ff;stroke-linecap:square;stroke-width:1.5;"/>
   </g>
   <g id="patch_3">
    <path d="M 81 192.24 
L 81 25.92 
" style="fill:none;stroke:#000000;stroke-linecap:square;stroke-linejoin:miter;stroke-width:0.8;"/>
   </g>
   <g id="patch_4">
    <path d="M 583.2 192.24 
L 583.2 25.92 
" style="fill:none;stroke:#000000;stroke-linecap:square;stroke-linejoin:miter;stroke-width:0.8;"/>
   </g>
   <g id="patch_5">
    <path d="M 81 192.24 
L 583.2 192.24 
" style="fill:none;stroke:#000000;stroke-linecap:square;stroke-linejoin:miter;stroke-width:0.8;"/>
   </g>
   <g id="patch_6">
    <path d="M 81 25.92 
L 583.2 25.92 
" style="fill:none;stroke:#000000;stroke-linecap:square;stroke-linejoin:miter;stroke-width:0.8;"/>
   </g>
   <g id="text_15">
    <!-- Striatum, Num Trials=10 All unstimulated trials -->
    <defs>
     <path d="M 53.515625 70.515625 
L 53.515625 60.890625 
Q 47.90625 63.578125 42.921875 64.890625 
Q 37.9375 66.21875 33.296875 66.21875 
Q 25.25 66.21875 20.875 63.09375 
Q 16.5 59.96875 16.5 54.203125 
Q 16.5 49.359375 19.40625 46.890625 
Q 22.3125 44.4375 30.421875 42.921875 
L 36.375 41.703125 
Q 47.40625 39.59375 52.65625 34.296875 
Q 57.90625 29 57.90625 20.125 
Q 57.90625 9.515625 50.796875 4.046875 
Q 43.703125 -1.421875 29.984375 -1.421875 
Q 24.8125 -1.421875 18.96875 -0.25 
Q 13.140625 0.921875 6.890625 3.21875 
L 6.890625 13.375 
Q 12.890625 10.015625 18.65625 8.296875 
Q 24.421875 6.59375 29.984375 6.59375 
Q 38.421875 6.59375 43.015625 9.90625 
Q 47.609375 13.234375 47.609375 19.390625 
Q 47.609375 24.75 44.3125 27.78125 
Q 41.015625 30.8125 33.5 32.328125 
L 27.484375 33.5 
Q 16.453125 35.6875 11.515625 40.375 
Q 6.59375 45.0625 6.59375 53.421875 
Q 6.59375 63.09375 13.40625 68.65625 
Q 20.21875 74.21875 32.171875 74.21875 
Q 37.3125 74.21875 42.625 73.28125 
Q 47.953125 72.359375 53.515625 70.515625 
z
" id="DejaVuSans-83"/>
     <path d="M 18.3125 70.21875 
L 18.3125 54.6875 
L 36.8125 54.6875 
L 36.8125 47.703125 
L 18.3125 47.703125 
L 18.3125 18.015625 
Q 18.3125 11.328125 20.140625 9.421875 
Q 21.96875 7.515625 27.59375 7.515625 
L 36.8125 7.515625 
L 36.8125 0 
L 27.59375 0 
Q 17.1875 0 13.234375 3.875 
Q 9.28125 7.765625 9.28125 18.015625 
L 9.28125 47.703125 
L 2.6875 47.703125 
L 2.6875 54.6875 
L 9.28125 54.6875 
L 9.28125 70.21875 
z
" id="DejaVuSans-116"/>
     <path d="M 41.109375 46.296875 
Q 39.59375 47.171875 37.8125 47.578125 
Q 36.03125 48 33.890625 48 
Q 26.265625 48 22.1875 43.046875 
Q 18.109375 38.09375 18.109375 28.8125 
L 18.109375 0 
L 9.078125 0 
L 9.078125 54.6875 
L 18.109375 54.6875 
L 18.109375 46.1875 
Q 20.953125 51.171875 25.484375 53.578125 
Q 30.03125 56 36.53125 56 
Q 37.453125 56 38.578125 55.875 
Q 39.703125 55.765625 41.0625 55.515625 
z
" id="DejaVuSans-114"/>
     <path d="M 34.28125 27.484375 
Q 23.390625 27.484375 19.1875 25 
Q 14.984375 22.515625 14.984375 16.5 
Q 14.984375 11.71875 18.140625 8.90625 
Q 21.296875 6.109375 26.703125 6.109375 
Q 34.1875 6.109375 38.703125 11.40625 
Q 43.21875 16.703125 43.21875 25.484375 
L 43.21875 27.484375 
z
M 52.203125 31.203125 
L 52.203125 0 
L 43.21875 0 
L 43.21875 8.296875 
Q 40.140625 3.328125 35.546875 0.953125 
Q 30.953125 -1.421875 24.3125 -1.421875 
Q 15.921875 -1.421875 10.953125 3.296875 
Q 6 8.015625 6 15.921875 
Q 6 25.140625 12.171875 29.828125 
Q 18.359375 34.515625 30.609375 34.515625 
L 43.21875 34.515625 
L 43.21875 35.40625 
Q 43.21875 41.609375 39.140625 45 
Q 35.0625 48.390625 27.6875 48.390625 
Q 23 48.390625 18.546875 47.265625 
Q 14.109375 46.140625 10.015625 43.890625 
L 10.015625 52.203125 
Q 14.9375 54.109375 19.578125 55.046875 
Q 24.21875 56 28.609375 56 
Q 40.484375 56 46.34375 49.84375 
Q 52.203125 43.703125 52.203125 31.203125 
z
" id="DejaVuSans-97"/>
     <path d="M 8.5 21.578125 
L 8.5 54.6875 
L 17.484375 54.6875 
L 17.484375 21.921875 
Q 17.484375 14.15625 20.5 10.265625 
Q 23.53125 6.390625 29.59375 6.390625 
Q 36.859375 6.390625 41.078125 11.03125 
Q 45.3125 15.671875 45.3125 23.6875 
L 45.3125 54.6875 
L 54.296875 54.6875 
L 54.296875 0 
L 45.3125 0 
L 45.3125 8.40625 
Q 42.046875 3.421875 37.71875 1 
Q 33.40625 -1.421875 27.6875 -1.421875 
Q 18.265625 -1.421875 13.375 4.4375 
Q 8.5 10.296875 8.5 21.578125 
z
M 31.109375 56 
z
" id="DejaVuSans-117"/>
     <path d="M 11.71875 12.40625 
L 22.015625 12.40625 
L 22.015625 4 
L 14.015625 -11.625 
L 7.71875 -11.625 
L 11.71875 4 
z
" id="DejaVuSans-44"/>
     <path d="M 9.8125 72.90625 
L 23.09375 72.90625 
L 55.421875 11.921875 
L 55.421875 72.90625 
L 64.984375 72.90625 
L 64.984375 0 
L 51.703125 0 
L 19.390625 60.984375 
L 19.390625 0 
L 9.8125 0 
z
" id="DejaVuSans-78"/>
     <path d="M 9.421875 75.984375 
L 18.40625 75.984375 
L 18.40625 0 
L 9.421875 0 
z
" id="DejaVuSans-108"/>
     <path d="M 10.59375 45.40625 
L 73.1875 45.40625 
L 73.1875 37.203125 
L 10.59375 37.203125 
z
M 10.59375 25.484375 
L 73.1875 25.484375 
L 73.1875 17.1875 
L 10.59375 17.1875 
z
" id="DejaVuSans-61"/>
     <path d="M 34.1875 63.1875 
L 20.796875 26.90625 
L 47.609375 26.90625 
z
M 28.609375 72.90625 
L 39.796875 72.90625 
L 67.578125 0 
L 57.328125 0 
L 50.6875 18.703125 
L 17.828125 18.703125 
L 11.1875 0 
L 0.78125 0 
z
" id="DejaVuSans-65"/>
     <path d="M 54.890625 33.015625 
L 54.890625 0 
L 45.90625 0 
L 45.90625 32.71875 
Q 45.90625 40.484375 42.875 44.328125 
Q 39.84375 48.1875 33.796875 48.1875 
Q 26.515625 48.1875 22.3125 43.546875 
Q 18.109375 38.921875 18.109375 30.90625 
L 18.109375 0 
L 9.078125 0 
L 9.078125 54.6875 
L 18.109375 54.6875 
L 18.109375 46.1875 
Q 21.34375 51.125 25.703125 53.5625 
Q 30.078125 56 35.796875 56 
Q 45.21875 56 50.046875 50.171875 
Q 54.890625 44.34375 54.890625 33.015625 
z
" id="DejaVuSans-110"/>
     <path d="M 45.40625 46.390625 
L 45.40625 75.984375 
L 54.390625 75.984375 
L 54.390625 0 
L 45.40625 0 
L 45.40625 8.203125 
Q 42.578125 3.328125 38.25 0.953125 
Q 33.9375 -1.421875 27.875 -1.421875 
Q 17.96875 -1.421875 11.734375 6.484375 
Q 5.515625 14.40625 5.515625 27.296875 
Q 5.515625 40.1875 11.734375 48.09375 
Q 17.96875 56 27.875 56 
Q 33.9375 56 38.25 53.625 
Q 42.578125 51.265625 45.40625 46.390625 
z
M 14.796875 27.296875 
Q 14.796875 17.390625 18.875 11.75 
Q 22.953125 6.109375 30.078125 6.109375 
Q 37.203125 6.109375 41.296875 11.75 
Q 45.40625 17.390625 45.40625 27.296875 
Q 45.40625 37.203125 41.296875 42.84375 
Q 37.203125 48.484375 30.078125 48.484375 
Q 22.953125 48.484375 18.875 42.84375 
Q 14.796875 37.203125 14.796875 27.296875 
z
" id="DejaVuSans-100"/>
    </defs>
    <g transform="translate(189.64875 19.92)scale(0.12 -0.12)">
     <use xlink:href="#DejaVuSans-83"/>
     <use x="63.476562" xlink:href="#DejaVuSans-116"/>
     <use x="102.685547" xlink:href="#DejaVuSans-114"/>
     <use x="143.798828" xlink:href="#DejaVuSans-105"/>
     <use x="171.582031" xlink:href="#DejaVuSans-97"/>
     <use x="232.861328" xlink:href="#DejaVuSans-116"/>
     <use x="272.070312" xlink:href="#DejaVuSans-117"/>
     <use x="335.449219" xlink:href="#DejaVuSans-109"/>
     <use x="432.861328" xlink:href="#DejaVuSans-44"/>
     <use x="464.648438" xlink:href="#DejaVuSans-32"/>
     <use x="496.435547" xlink:href="#DejaVuSans-78"/>
     <use x="571.240234" xlink:href="#DejaVuSans-117"/>
     <use x="634.619141" xlink:href="#DejaVuSans-109"/>
     <use x="732.03125" xlink:href="#DejaVuSans-32"/>
     <use x="763.818359" xlink:href="#DejaVuSans-84"/>
     <use x="824.683594" xlink:href="#DejaVuSans-114"/>
     <use x="865.796875" xlink:href="#DejaVuSans-105"/>
     <use x="893.580078" xlink:href="#DejaVuSans-97"/>
     <use x="954.859375" xlink:href="#DejaVuSans-108"/>
     <use x="982.642578" xlink:href="#DejaVuSans-115"/>
     <use x="1034.742188" xlink:href="#DejaVuSans-61"/>
     <use x="1118.53125" xlink:href="#DejaVuSans-49"/>
     <use x="1182.154297" xlink:href="#DejaVuSans-48"/>
     <use x="1245.777344" xlink:href="#DejaVuSans-32"/>
     <use x="1277.564453" xlink:href="#DejaVuSans-65"/>
     <use x="1345.972656" xlink:href="#DejaVuSans-108"/>
     <use x="1373.755859" xlink:href="#DejaVuSans-108"/>
     <use x="1401.539062" xlink:href="#DejaVuSans-32"/>
     <use x="1433.326172" xlink:href="#DejaVuSans-117"/>
     <use x="1496.705078" xlink:href="#DejaVuSans-110"/>
     <use x="1560.083984" xlink:href="#DejaVuSans-115"/>
     <use x="1612.183594" xlink:href="#DejaVuSans-116"/>
     <use x="1651.392578" xlink:href="#DejaVuSans-105"/>
     <use x="1679.175781" xlink:href="#DejaVuSans-109"/>
     <use x="1776.587891" xlink:href="#DejaVuSans-117"/>
     <use x="1839.966797" xlink:href="#DejaVuSans-108"/>
     <use x="1867.75" xlink:href="#DejaVuSans-97"/>
     <use x="1929.029297" xlink:href="#DejaVuSans-116"/>
     <use x="1968.238281" xlink:href="#DejaVuSans-101"/>
     <use x="2029.761719" xlink:href="#DejaVuSans-100"/>
     <use x="2093.238281" xlink:href="#DejaVuSans-32"/>
     <use x="2125.025391" xlink:href="#DejaVuSans-116"/>
     <use x="2164.234375" xlink:href="#DejaVuSans-114"/>
     <use x="2205.347656" xlink:href="#DejaVuSans-105"/>
     <use x="2233.130859" xlink:href="#DejaVuSans-97"/>
     <use x="2294.410156" xlink:href="#DejaVuSans-108"/>
     <use x="2322.193359" xlink:href="#DejaVuSans-115"/>
    </g>
   </g>
   <g id="legend_1">
    <g id="patch_7">
     <path d="M 265.26 70.7475 
L 398.94 70.7475 
Q 401.34 70.7475 401.34 68.3475 
L 401.34 34.32 
Q 401.34 31.92 398.94 31.92 
L 265.26 31.92 
Q 262.86 31.92 262.86 34.32 
L 262.86 68.3475 
Q 262.86 70.7475 265.26 70.7475 
z
" style="fill:#ffffff;opacity:0.8;stroke:#cccccc;stroke-linejoin:miter;"/>
    </g>
    <g id="line2d_14">
     <path d="M 267.66 41.638125 
L 291.66 41.638125 
" style="fill:none;stroke:#0000ff;stroke-linecap:square;stroke-width:1.5;"/>
    </g>
    <g id="line2d_15"/>
    <g id="text_16">
     <!-- COM-Binomial $\nu$ -->
     <defs>
      <path d="M 4.890625 31.390625 
L 31.203125 31.390625 
L 31.203125 23.390625 
L 4.890625 23.390625 
z
" id="DejaVuSans-45"/>
      <path d="M 19.671875 34.8125 
L 19.671875 8.109375 
L 35.5 8.109375 
Q 43.453125 8.109375 47.28125 11.40625 
Q 51.125 14.703125 51.125 21.484375 
Q 51.125 28.328125 47.28125 31.5625 
Q 43.453125 34.8125 35.5 34.8125 
z
M 19.671875 64.796875 
L 19.671875 42.828125 
L 34.28125 42.828125 
Q 41.5 42.828125 45.03125 45.53125 
Q 48.578125 48.25 48.578125 53.8125 
Q 48.578125 59.328125 45.03125 62.0625 
Q 41.5 64.796875 34.28125 64.796875 
z
M 9.8125 72.90625 
L 35.015625 72.90625 
Q 46.296875 72.90625 52.390625 68.21875 
Q 58.5 63.53125 58.5 54.890625 
Q 58.5 48.1875 55.375 44.234375 
Q 52.25 40.28125 46.1875 39.3125 
Q 53.46875 37.75 57.5 32.78125 
Q 61.53125 27.828125 61.53125 20.40625 
Q 61.53125 10.640625 54.890625 5.3125 
Q 48.25 0 35.984375 0 
L 9.8125 0 
z
" id="DejaVuSans-66"/>
      <path d="M 30.609375 48.390625 
Q 23.390625 48.390625 19.1875 42.75 
Q 14.984375 37.109375 14.984375 27.296875 
Q 14.984375 17.484375 19.15625 11.84375 
Q 23.34375 6.203125 30.609375 6.203125 
Q 37.796875 6.203125 41.984375 11.859375 
Q 46.1875 17.53125 46.1875 27.296875 
Q 46.1875 37.015625 41.984375 42.703125 
Q 37.796875 48.390625 30.609375 48.390625 
z
M 30.609375 56 
Q 42.328125 56 49.015625 48.375 
Q 55.71875 40.765625 55.71875 27.296875 
Q 55.71875 13.875 49.015625 6.21875 
Q 42.328125 -1.421875 30.609375 -1.421875 
Q 18.84375 -1.421875 12.171875 6.21875 
Q 5.515625 13.875 5.515625 27.296875 
Q 5.515625 40.765625 12.171875 48.375 
Q 18.84375 56 30.609375 56 
z
" id="DejaVuSans-111"/>
     </defs>
     <g transform="translate(301.26 45.838125)scale(0.12 -0.12)">
      <use transform="translate(0 0.015625)" xlink:href="#DejaVuSans-67"/>
      <use transform="translate(69.824219 0.015625)" xlink:href="#DejaVuSans-79"/>
      <use transform="translate(148.535156 0.015625)" xlink:href="#DejaVuSans-77"/>
      <use transform="translate(234.814453 0.015625)" xlink:href="#DejaVuSans-45"/>
      <use transform="translate(270.898438 0.015625)" xlink:href="#DejaVuSans-66"/>
      <use transform="translate(339.501953 0.015625)" xlink:href="#DejaVuSans-105"/>
      <use transform="translate(367.285156 0.015625)" xlink:href="#DejaVuSans-110"/>
      <use transform="translate(430.664062 0.015625)" xlink:href="#DejaVuSans-111"/>
      <use transform="translate(491.845703 0.015625)" xlink:href="#DejaVuSans-109"/>
      <use transform="translate(589.257812 0.015625)" xlink:href="#DejaVuSans-105"/>
      <use transform="translate(617.041016 0.015625)" xlink:href="#DejaVuSans-97"/>
      <use transform="translate(678.320312 0.015625)" xlink:href="#DejaVuSans-108"/>
      <use transform="translate(706.103516 0.015625)" xlink:href="#DejaVuSans-32"/>
      <use transform="translate(737.890625 0.015625)" xlink:href="#DejaVuSans-Oblique-957"/>
     </g>
    </g>
    <g id="patch_8">
     <path d="M 267.66 63.451875 
L 291.66 63.451875 
L 291.66 55.051875 
L 267.66 55.051875 
z
" style="fill:#0000ff;opacity:0.3;stroke:#0000ff;stroke-linejoin:miter;"/>
    </g>
    <g id="text_17">
     <!-- Std. Err. -->
     <defs>
      <path d="M 9.8125 72.90625 
L 55.90625 72.90625 
L 55.90625 64.59375 
L 19.671875 64.59375 
L 19.671875 43.015625 
L 54.390625 43.015625 
L 54.390625 34.71875 
L 19.671875 34.71875 
L 19.671875 8.296875 
L 56.78125 8.296875 
L 56.78125 0 
L 9.8125 0 
z
" id="DejaVuSans-69"/>
     </defs>
     <g transform="translate(301.26 63.451875)scale(0.12 -0.12)">
      <use xlink:href="#DejaVuSans-83"/>
      <use x="63.476562" xlink:href="#DejaVuSans-116"/>
      <use x="102.685547" xlink:href="#DejaVuSans-100"/>
      <use x="166.162109" xlink:href="#DejaVuSans-46"/>
      <use x="197.949219" xlink:href="#DejaVuSans-32"/>
      <use x="229.736328" xlink:href="#DejaVuSans-69"/>
      <use x="292.919922" xlink:href="#DejaVuSans-114"/>
      <use x="334.017578" xlink:href="#DejaVuSans-114"/>
      <use x="374.990234" xlink:href="#DejaVuSans-46"/>
     </g>
    </g>
   </g>
  </g>
 </g>
 <defs>
  <clipPath id="pfbf8f7199d">
   <rect height="166.32" width="502.2" x="81" y="25.92"/>
  </clipPath>
 </defs>
</svg>
