<?xml version="1.0" encoding="utf-8" standalone="no"?>
<!DOCTYPE svg PUBLIC "-//W3C//DTD SVG 1.1//EN"
  "http://www.w3.org/Graphics/SVG/1.1/DTD/svg11.dtd">
<!-- Created with matplotlib (https://matplotlib.org/) -->
<svg height="216pt" version="1.1" viewBox="0 0 576 216" width="576pt" xmlns="http://www.w3.org/2000/svg" xmlns:xlink="http://www.w3.org/1999/xlink">
 <defs>
  <style type="text/css">
*{stroke-linecap:butt;stroke-linejoin:round;}
  </style>
 </defs>
 <g id="figure_1">
  <g id="patch_1">
   <path d="M 0 216 
L 576 216 
L 576 0 
L 0 0 
z
" style="fill:#ffffff;"/>
  </g>
  <g id="axes_1">
   <g id="patch_2">
    <path d="M 28.48 170.44 
L 561.701471 170.44 
L 561.701471 27.6 
L 28.48 27.6 
z
" style="fill:#ffffff;"/>
   </g>
   <g id="PolyCollection_1">
    <defs>
     <path d="M 120.835353 -45.56 
L 120.835353 -188.4 
L 382.218427 -188.4 
L 382.218427 -45.56 
L 382.218427 -45.56 
L 120.835353 -45.56 
z
" id="m59c8543670" style="stroke:#808080;stroke-opacity:0.3;"/>
    </defs>
    <g clip-path="url(#p57c830acd8)">
     <use style="fill:#808080;fill-opacity:0.3;stroke:#808080;stroke-opacity:0.3;" x="0" xlink:href="#m59c8543670" y="216"/>
    </g>
   </g>
   <g id="matplotlib.axis_1">
    <g id="xtick_1">
     <g id="line2d_1">
      <defs>
       <path d="M 0 0 
L 0 3.5 
" id="mc9d3f05f63" style="stroke:#000000;stroke-width:0.8;"/>
      </defs>
      <g>
       <use style="stroke:#000000;stroke-width:0.8;" x="33.707661" xlink:href="#mc9d3f05f63" y="170.44"/>
      </g>
     </g>
     <g id="text_1">
      <!-- −0.5 -->
      <defs>
       <path d="M 10.59375 35.5 
L 73.1875 35.5 
L 73.1875 27.203125 
L 10.59375 27.203125 
z
" id="DejaVuSans-8722"/>
       <path d="M 31.78125 66.40625 
Q 24.171875 66.40625 20.328125 58.90625 
Q 16.5 51.421875 16.5 36.375 
Q 16.5 21.390625 20.328125 13.890625 
Q 24.171875 6.390625 31.78125 6.390625 
Q 39.453125 6.390625 43.28125 13.890625 
Q 47.125 21.390625 47.125 36.375 
Q 47.125 51.421875 43.28125 58.90625 
Q 39.453125 66.40625 31.78125 66.40625 
z
M 31.78125 74.21875 
Q 44.046875 74.21875 50.515625 64.515625 
Q 56.984375 54.828125 56.984375 36.375 
Q 56.984375 17.96875 50.515625 8.265625 
Q 44.046875 -1.421875 31.78125 -1.421875 
Q 19.53125 -1.421875 13.0625 8.265625 
Q 6.59375 17.96875 6.59375 36.375 
Q 6.59375 54.828125 13.0625 64.515625 
Q 19.53125 74.21875 31.78125 74.21875 
z
" id="DejaVuSans-48"/>
       <path d="M 10.6875 12.40625 
L 21 12.40625 
L 21 0 
L 10.6875 0 
z
" id="DejaVuSans-46"/>
       <path d="M 10.796875 72.90625 
L 49.515625 72.90625 
L 49.515625 64.59375 
L 19.828125 64.59375 
L 19.828125 46.734375 
Q 21.96875 47.46875 24.109375 47.828125 
Q 26.265625 48.1875 28.421875 48.1875 
Q 40.625 48.1875 47.75 41.5 
Q 54.890625 34.8125 54.890625 23.390625 
Q 54.890625 11.625 47.5625 5.09375 
Q 40.234375 -1.421875 26.90625 -1.421875 
Q 22.3125 -1.421875 17.546875 -0.640625 
Q 12.796875 0.140625 7.71875 1.703125 
L 7.71875 11.625 
Q 12.109375 9.234375 16.796875 8.0625 
Q 21.484375 6.890625 26.703125 6.890625 
Q 35.15625 6.890625 40.078125 11.328125 
Q 45.015625 15.765625 45.015625 23.390625 
Q 45.015625 31 40.078125 35.4375 
Q 35.15625 39.890625 26.703125 39.890625 
Q 22.75 39.890625 18.8125 39.015625 
Q 14.890625 38.140625 10.796875 36.28125 
z
" id="DejaVuSans-53"/>
      </defs>
      <g transform="translate(21.566255 185.038437)scale(0.1 -0.1)">
       <use xlink:href="#DejaVuSans-8722"/>
       <use x="83.789062" xlink:href="#DejaVuSans-48"/>
       <use x="147.412109" xlink:href="#DejaVuSans-46"/>
       <use x="179.199219" xlink:href="#DejaVuSans-53"/>
      </g>
     </g>
    </g>
    <g id="xtick_2">
     <g id="line2d_2">
      <g>
       <use style="stroke:#000000;stroke-width:0.8;" x="120.835353" xlink:href="#mc9d3f05f63" y="170.44"/>
      </g>
     </g>
     <g id="text_2">
      <!-- 0.0 -->
      <g transform="translate(112.88379 185.038437)scale(0.1 -0.1)">
       <use xlink:href="#DejaVuSans-48"/>
       <use x="63.623047" xlink:href="#DejaVuSans-46"/>
       <use x="95.410156" xlink:href="#DejaVuSans-48"/>
      </g>
     </g>
    </g>
    <g id="xtick_3">
     <g id="line2d_3">
      <g>
       <use style="stroke:#000000;stroke-width:0.8;" x="207.963044" xlink:href="#mc9d3f05f63" y="170.44"/>
      </g>
     </g>
     <g id="text_3">
      <!-- 0.5 -->
      <g transform="translate(200.011482 185.038437)scale(0.1 -0.1)">
       <use xlink:href="#DejaVuSans-48"/>
       <use x="63.623047" xlink:href="#DejaVuSans-46"/>
       <use x="95.410156" xlink:href="#DejaVuSans-53"/>
      </g>
     </g>
    </g>
    <g id="xtick_4">
     <g id="line2d_4">
      <g>
       <use style="stroke:#000000;stroke-width:0.8;" x="295.090735" xlink:href="#mc9d3f05f63" y="170.44"/>
      </g>
     </g>
     <g id="text_4">
      <!-- 1.0 -->
      <defs>
       <path d="M 12.40625 8.296875 
L 28.515625 8.296875 
L 28.515625 63.921875 
L 10.984375 60.40625 
L 10.984375 69.390625 
L 28.421875 72.90625 
L 38.28125 72.90625 
L 38.28125 8.296875 
L 54.390625 8.296875 
L 54.390625 0 
L 12.40625 0 
z
" id="DejaVuSans-49"/>
      </defs>
      <g transform="translate(287.139173 185.038437)scale(0.1 -0.1)">
       <use xlink:href="#DejaVuSans-49"/>
       <use x="63.623047" xlink:href="#DejaVuSans-46"/>
       <use x="95.410156" xlink:href="#DejaVuSans-48"/>
      </g>
     </g>
    </g>
    <g id="xtick_5">
     <g id="line2d_5">
      <g>
       <use style="stroke:#000000;stroke-width:0.8;" x="382.218427" xlink:href="#mc9d3f05f63" y="170.44"/>
      </g>
     </g>
     <g id="text_5">
      <!-- 1.5 -->
      <g transform="translate(374.266864 185.038437)scale(0.1 -0.1)">
       <use xlink:href="#DejaVuSans-49"/>
       <use x="63.623047" xlink:href="#DejaVuSans-46"/>
       <use x="95.410156" xlink:href="#DejaVuSans-53"/>
      </g>
     </g>
    </g>
    <g id="xtick_6">
     <g id="line2d_6">
      <g>
       <use style="stroke:#000000;stroke-width:0.8;" x="469.346118" xlink:href="#mc9d3f05f63" y="170.44"/>
      </g>
     </g>
     <g id="text_6">
      <!-- 2.0 -->
      <defs>
       <path d="M 19.1875 8.296875 
L 53.609375 8.296875 
L 53.609375 0 
L 7.328125 0 
L 7.328125 8.296875 
Q 12.9375 14.109375 22.625 23.890625 
Q 32.328125 33.6875 34.8125 36.53125 
Q 39.546875 41.84375 41.421875 45.53125 
Q 43.3125 49.21875 43.3125 52.78125 
Q 43.3125 58.59375 39.234375 62.25 
Q 35.15625 65.921875 28.609375 65.921875 
Q 23.96875 65.921875 18.8125 64.3125 
Q 13.671875 62.703125 7.8125 59.421875 
L 7.8125 69.390625 
Q 13.765625 71.78125 18.9375 73 
Q 24.125 74.21875 28.421875 74.21875 
Q 39.75 74.21875 46.484375 68.546875 
Q 53.21875 62.890625 53.21875 53.421875 
Q 53.21875 48.921875 51.53125 44.890625 
Q 49.859375 40.875 45.40625 35.40625 
Q 44.1875 33.984375 37.640625 27.21875 
Q 31.109375 20.453125 19.1875 8.296875 
z
" id="DejaVuSans-50"/>
      </defs>
      <g transform="translate(461.394555 185.038437)scale(0.1 -0.1)">
       <use xlink:href="#DejaVuSans-50"/>
       <use x="63.623047" xlink:href="#DejaVuSans-46"/>
       <use x="95.410156" xlink:href="#DejaVuSans-48"/>
      </g>
     </g>
    </g>
    <g id="xtick_7">
     <g id="line2d_7">
      <g>
       <use style="stroke:#000000;stroke-width:0.8;" x="556.473809" xlink:href="#mc9d3f05f63" y="170.44"/>
      </g>
     </g>
     <g id="text_7">
      <!-- 2.5 -->
      <g transform="translate(548.522247 185.038437)scale(0.1 -0.1)">
       <use xlink:href="#DejaVuSans-50"/>
       <use x="63.623047" xlink:href="#DejaVuSans-46"/>
       <use x="95.410156" xlink:href="#DejaVuSans-53"/>
      </g>
     </g>
    </g>
    <g id="text_8">
     <!-- Time (s) -->
     <defs>
      <path d="M -0.296875 72.90625 
L 61.375 72.90625 
L 61.375 64.59375 
L 35.5 64.59375 
L 35.5 0 
L 25.59375 0 
L 25.59375 64.59375 
L -0.296875 64.59375 
z
" id="DejaVuSans-84"/>
      <path d="M 9.421875 54.6875 
L 18.40625 54.6875 
L 18.40625 0 
L 9.421875 0 
z
M 9.421875 75.984375 
L 18.40625 75.984375 
L 18.40625 64.59375 
L 9.421875 64.59375 
z
" id="DejaVuSans-105"/>
      <path d="M 52 44.1875 
Q 55.375 50.25 60.0625 53.125 
Q 64.75 56 71.09375 56 
Q 79.640625 56 84.28125 50.015625 
Q 88.921875 44.046875 88.921875 33.015625 
L 88.921875 0 
L 79.890625 0 
L 79.890625 32.71875 
Q 79.890625 40.578125 77.09375 44.375 
Q 74.3125 48.1875 68.609375 48.1875 
Q 61.625 48.1875 57.5625 43.546875 
Q 53.515625 38.921875 53.515625 30.90625 
L 53.515625 0 
L 44.484375 0 
L 44.484375 32.71875 
Q 44.484375 40.625 41.703125 44.40625 
Q 38.921875 48.1875 33.109375 48.1875 
Q 26.21875 48.1875 22.15625 43.53125 
Q 18.109375 38.875 18.109375 30.90625 
L 18.109375 0 
L 9.078125 0 
L 9.078125 54.6875 
L 18.109375 54.6875 
L 18.109375 46.1875 
Q 21.1875 51.21875 25.484375 53.609375 
Q 29.78125 56 35.6875 56 
Q 41.65625 56 45.828125 52.96875 
Q 50 49.953125 52 44.1875 
z
" id="DejaVuSans-109"/>
      <path d="M 56.203125 29.59375 
L 56.203125 25.203125 
L 14.890625 25.203125 
Q 15.484375 15.921875 20.484375 11.0625 
Q 25.484375 6.203125 34.421875 6.203125 
Q 39.59375 6.203125 44.453125 7.46875 
Q 49.3125 8.734375 54.109375 11.28125 
L 54.109375 2.78125 
Q 49.265625 0.734375 44.1875 -0.34375 
Q 39.109375 -1.421875 33.890625 -1.421875 
Q 20.796875 -1.421875 13.15625 6.1875 
Q 5.515625 13.8125 5.515625 26.8125 
Q 5.515625 40.234375 12.765625 48.109375 
Q 20.015625 56 32.328125 56 
Q 43.359375 56 49.78125 48.890625 
Q 56.203125 41.796875 56.203125 29.59375 
z
M 47.21875 32.234375 
Q 47.125 39.59375 43.09375 43.984375 
Q 39.0625 48.390625 32.421875 48.390625 
Q 24.90625 48.390625 20.390625 44.140625 
Q 15.875 39.890625 15.1875 32.171875 
z
" id="DejaVuSans-101"/>
      <path id="DejaVuSans-32"/>
      <path d="M 31 75.875 
Q 24.46875 64.65625 21.28125 53.65625 
Q 18.109375 42.671875 18.109375 31.390625 
Q 18.109375 20.125 21.3125 9.0625 
Q 24.515625 -2 31 -13.1875 
L 23.1875 -13.1875 
Q 15.875 -1.703125 12.234375 9.375 
Q 8.59375 20.453125 8.59375 31.390625 
Q 8.59375 42.28125 12.203125 53.3125 
Q 15.828125 64.359375 23.1875 75.875 
z
" id="DejaVuSans-40"/>
      <path d="M 44.28125 53.078125 
L 44.28125 44.578125 
Q 40.484375 46.53125 36.375 47.5 
Q 32.28125 48.484375 27.875 48.484375 
Q 21.1875 48.484375 17.84375 46.4375 
Q 14.5 44.390625 14.5 40.28125 
Q 14.5 37.15625 16.890625 35.375 
Q 19.28125 33.59375 26.515625 31.984375 
L 29.59375 31.296875 
Q 39.15625 29.25 43.1875 25.515625 
Q 47.21875 21.78125 47.21875 15.09375 
Q 47.21875 7.46875 41.1875 3.015625 
Q 35.15625 -1.421875 24.609375 -1.421875 
Q 20.21875 -1.421875 15.453125 -0.5625 
Q 10.6875 0.296875 5.421875 2 
L 5.421875 11.28125 
Q 10.40625 8.6875 15.234375 7.390625 
Q 20.0625 6.109375 24.8125 6.109375 
Q 31.15625 6.109375 34.5625 8.28125 
Q 37.984375 10.453125 37.984375 14.40625 
Q 37.984375 18.0625 35.515625 20.015625 
Q 33.0625 21.96875 24.703125 23.78125 
L 21.578125 24.515625 
Q 13.234375 26.265625 9.515625 29.90625 
Q 5.8125 33.546875 5.8125 39.890625 
Q 5.8125 47.609375 11.28125 51.796875 
Q 16.75 56 26.8125 56 
Q 31.78125 56 36.171875 55.265625 
Q 40.578125 54.546875 44.28125 53.078125 
z
" id="DejaVuSans-115"/>
      <path d="M 8.015625 75.875 
L 15.828125 75.875 
Q 23.140625 64.359375 26.78125 53.3125 
Q 30.421875 42.28125 30.421875 31.390625 
Q 30.421875 20.453125 26.78125 9.375 
Q 23.140625 -1.703125 15.828125 -13.1875 
L 8.015625 -13.1875 
Q 14.5 -2 17.703125 9.0625 
Q 20.90625 20.125 20.90625 31.390625 
Q 20.90625 42.671875 17.703125 53.65625 
Q 14.5 64.65625 8.015625 75.875 
z
" id="DejaVuSans-41"/>
     </defs>
     <g transform="translate(265.595485 202.059875)scale(0.144 -0.144)">
      <use xlink:href="#DejaVuSans-84"/>
      <use x="61.037109" xlink:href="#DejaVuSans-105"/>
      <use x="88.820312" xlink:href="#DejaVuSans-109"/>
      <use x="186.232422" xlink:href="#DejaVuSans-101"/>
      <use x="247.755859" xlink:href="#DejaVuSans-32"/>
      <use x="279.542969" xlink:href="#DejaVuSans-40"/>
      <use x="318.556641" xlink:href="#DejaVuSans-115"/>
      <use x="370.65625" xlink:href="#DejaVuSans-41"/>
     </g>
    </g>
   </g>
   <g id="matplotlib.axis_2">
    <g id="text_9">
     <!-- Cells -->
     <defs>
      <path d="M 64.40625 67.28125 
L 64.40625 56.890625 
Q 59.421875 61.53125 53.78125 63.8125 
Q 48.140625 66.109375 41.796875 66.109375 
Q 29.296875 66.109375 22.65625 58.46875 
Q 16.015625 50.828125 16.015625 36.375 
Q 16.015625 21.96875 22.65625 14.328125 
Q 29.296875 6.6875 41.796875 6.6875 
Q 48.140625 6.6875 53.78125 8.984375 
Q 59.421875 11.28125 64.40625 15.921875 
L 64.40625 5.609375 
Q 59.234375 2.09375 53.4375 0.328125 
Q 47.65625 -1.421875 41.21875 -1.421875 
Q 24.65625 -1.421875 15.125 8.703125 
Q 5.609375 18.84375 5.609375 36.375 
Q 5.609375 53.953125 15.125 64.078125 
Q 24.65625 74.21875 41.21875 74.21875 
Q 47.75 74.21875 53.53125 72.484375 
Q 59.328125 70.75 64.40625 67.28125 
z
" id="DejaVuSans-67"/>
      <path d="M 9.421875 75.984375 
L 18.40625 75.984375 
L 18.40625 0 
L 9.421875 0 
z
" id="DejaVuSans-108"/>
     </defs>
     <g transform="translate(21.48525 116.229125)rotate(-90)scale(0.144 -0.144)">
      <use xlink:href="#DejaVuSans-67"/>
      <use x="69.824219" xlink:href="#DejaVuSans-101"/>
      <use x="131.347656" xlink:href="#DejaVuSans-108"/>
      <use x="159.130859" xlink:href="#DejaVuSans-108"/>
      <use x="186.914062" xlink:href="#DejaVuSans-115"/>
     </g>
    </g>
   </g>
   <g id="LineCollection_1">
    <path clip-path="url(#p57c830acd8)" d="M 40.073791 170.44 
L 40.073791 166.238824 
" style="fill:none;stroke:#000000;stroke-width:1.5;"/>
    <path clip-path="url(#p57c830acd8)" d="M 40.695302 170.44 
L 40.695302 166.238824 
" style="fill:none;stroke:#000000;stroke-width:1.5;"/>
    <path clip-path="url(#p57c830acd8)" d="M 77.956912 170.44 
L 77.956912 166.238824 
" style="fill:none;stroke:#000000;stroke-width:1.5;"/>
    <path clip-path="url(#p57c830acd8)" d="M 83.655063 170.44 
L 83.655063 166.238824 
" style="fill:none;stroke:#000000;stroke-width:1.5;"/>
    <path clip-path="url(#p57c830acd8)" d="M 126.161759 170.44 
L 126.161759 166.238824 
" style="fill:none;stroke:#000000;stroke-width:1.5;"/>
    <path clip-path="url(#p57c830acd8)" d="M 207.591299 170.44 
L 207.591299 166.238824 
" style="fill:none;stroke:#000000;stroke-width:1.5;"/>
    <path clip-path="url(#p57c830acd8)" d="M 270.793726 170.44 
L 270.793726 166.238824 
" style="fill:none;stroke:#000000;stroke-width:1.5;"/>
    <path clip-path="url(#p57c830acd8)" d="M 272.141301 170.44 
L 272.141301 166.238824 
" style="fill:none;stroke:#000000;stroke-width:1.5;"/>
    <path clip-path="url(#p57c830acd8)" d="M 273.134557 170.44 
L 273.134557 166.238824 
" style="fill:none;stroke:#000000;stroke-width:1.5;"/>
    <path clip-path="url(#p57c830acd8)" d="M 413.061629 170.44 
L 413.061629 166.238824 
" style="fill:none;stroke:#000000;stroke-width:1.5;"/>
    <path clip-path="url(#p57c830acd8)" d="M 413.967757 170.44 
L 413.967757 166.238824 
" style="fill:none;stroke:#000000;stroke-width:1.5;"/>
    <path clip-path="url(#p57c830acd8)" d="M 442.185512 170.44 
L 442.185512 166.238824 
" style="fill:none;stroke:#000000;stroke-width:1.5;"/>
    <path clip-path="url(#p57c830acd8)" d="M 444.009385 170.44 
L 444.009385 166.238824 
" style="fill:none;stroke:#000000;stroke-width:1.5;"/>
    <path clip-path="url(#p57c830acd8)" d="M 444.903896 170.44 
L 444.903896 166.238824 
" style="fill:none;stroke:#000000;stroke-width:1.5;"/>
    <path clip-path="url(#p57c830acd8)" d="M 471.959949 170.44 
L 471.959949 166.238824 
" style="fill:none;stroke:#000000;stroke-width:1.5;"/>
    <path clip-path="url(#p57c830acd8)" d="M 498.255086 170.44 
L 498.255086 166.238824 
" style="fill:none;stroke:#000000;stroke-width:1.5;"/>
    <path clip-path="url(#p57c830acd8)" d="M 553.877404 170.44 
L 553.877404 166.238824 
" style="fill:none;stroke:#000000;stroke-width:1.5;"/>
    <path clip-path="url(#p57c830acd8)" d="M 555.852298 170.44 
L 555.852298 166.238824 
" style="fill:none;stroke:#000000;stroke-width:1.5;"/>
   </g>
   <g id="LineCollection_2">
    <path clip-path="url(#p57c830acd8)" d="M 327.659066 157.836471 
L 327.659066 153.635294 
" style="fill:none;stroke:#000000;stroke-width:1.5;"/>
    <path clip-path="url(#p57c830acd8)" d="M 328.54196 157.836471 
L 328.54196 153.635294 
" style="fill:none;stroke:#000000;stroke-width:1.5;"/>
   </g>
   <g id="LineCollection_3">
    <path clip-path="url(#p57c830acd8)" d="M 214.468578 141.031765 
L 214.468578 136.830588 
" style="fill:none;stroke:#000000;stroke-width:1.5;"/>
    <path clip-path="url(#p57c830acd8)" d="M 228.199902 141.031765 
L 228.199902 136.830588 
" style="fill:none;stroke:#000000;stroke-width:1.5;"/>
    <path clip-path="url(#p57c830acd8)" d="M 315.85036 141.031765 
L 315.85036 136.830588 
" style="fill:none;stroke:#000000;stroke-width:1.5;"/>
    <path clip-path="url(#p57c830acd8)" d="M 316.576424 141.031765 
L 316.576424 136.830588 
" style="fill:none;stroke:#000000;stroke-width:1.5;"/>
   </g>
   <g id="LineCollection_4">
    <path clip-path="url(#p57c830acd8)" d="M 141.600786 136.830588 
L 141.600786 132.629412 
" style="fill:none;stroke:#000000;stroke-width:1.5;"/>
    <path clip-path="url(#p57c830acd8)" d="M 180.959268 136.830588 
L 180.959268 132.629412 
" style="fill:none;stroke:#000000;stroke-width:1.5;"/>
    <path clip-path="url(#p57c830acd8)" d="M 209.763683 136.830588 
L 209.763683 132.629412 
" style="fill:none;stroke:#000000;stroke-width:1.5;"/>
    <path clip-path="url(#p57c830acd8)" d="M 296.258246 136.830588 
L 296.258246 132.629412 
" style="fill:none;stroke:#000000;stroke-width:1.5;"/>
    <path clip-path="url(#p57c830acd8)" d="M 300.701759 136.830588 
L 300.701759 132.629412 
" style="fill:none;stroke:#000000;stroke-width:1.5;"/>
    <path clip-path="url(#p57c830acd8)" d="M 326.114002 136.830588 
L 326.114002 132.629412 
" style="fill:none;stroke:#000000;stroke-width:1.5;"/>
    <path clip-path="url(#p57c830acd8)" d="M 364.461803 136.830588 
L 364.461803 132.629412 
" style="fill:none;stroke:#000000;stroke-width:1.5;"/>
    <path clip-path="url(#p57c830acd8)" d="M 401.014774 136.830588 
L 401.014774 132.629412 
" style="fill:none;stroke:#000000;stroke-width:1.5;"/>
    <path clip-path="url(#p57c830acd8)" d="M 449.045366 136.830588 
L 449.045366 132.629412 
" style="fill:none;stroke:#000000;stroke-width:1.5;"/>
    <path clip-path="url(#p57c830acd8)" d="M 549.550062 136.830588 
L 549.550062 132.629412 
" style="fill:none;stroke:#000000;stroke-width:1.5;"/>
   </g>
   <g id="LineCollection_5">
    <path clip-path="url(#p57c830acd8)" d="M 59.602011 132.629412 
L 59.602011 128.428235 
" style="fill:none;stroke:#000000;stroke-width:1.5;"/>
    <path clip-path="url(#p57c830acd8)" d="M 60.258373 132.629412 
L 60.258373 128.428235 
" style="fill:none;stroke:#000000;stroke-width:1.5;"/>
    <path clip-path="url(#p57c830acd8)" d="M 60.804373 132.629412 
L 60.804373 128.428235 
" style="fill:none;stroke:#000000;stroke-width:1.5;"/>
    <path clip-path="url(#p57c830acd8)" d="M 103.938389 132.629412 
L 103.938389 128.428235 
" style="fill:none;stroke:#000000;stroke-width:1.5;"/>
    <path clip-path="url(#p57c830acd8)" d="M 112.116775 132.629412 
L 112.116775 128.428235 
" style="fill:none;stroke:#000000;stroke-width:1.5;"/>
    <path clip-path="url(#p57c830acd8)" d="M 112.622116 132.629412 
L 112.622116 128.428235 
" style="fill:none;stroke:#000000;stroke-width:1.5;"/>
    <path clip-path="url(#p57c830acd8)" d="M 117.634862 132.629412 
L 117.634862 128.428235 
" style="fill:none;stroke:#000000;stroke-width:1.5;"/>
    <path clip-path="url(#p57c830acd8)" d="M 118.024033 132.629412 
L 118.024033 128.428235 
" style="fill:none;stroke:#000000;stroke-width:1.5;"/>
    <path clip-path="url(#p57c830acd8)" d="M 118.999863 132.629412 
L 118.999863 128.428235 
" style="fill:none;stroke:#000000;stroke-width:1.5;"/>
    <path clip-path="url(#p57c830acd8)" d="M 135.135911 132.629412 
L 135.135911 128.428235 
" style="fill:none;stroke:#000000;stroke-width:1.5;"/>
    <path clip-path="url(#p57c830acd8)" d="M 135.68772 132.629412 
L 135.68772 128.428235 
" style="fill:none;stroke:#000000;stroke-width:1.5;"/>
    <path clip-path="url(#p57c830acd8)" d="M 139.689785 132.629412 
L 139.689785 128.428235 
" style="fill:none;stroke:#000000;stroke-width:1.5;"/>
    <path clip-path="url(#p57c830acd8)" d="M 140.259019 132.629412 
L 140.259019 128.428235 
" style="fill:none;stroke:#000000;stroke-width:1.5;"/>
    <path clip-path="url(#p57c830acd8)" d="M 142.971595 132.629412 
L 142.971595 128.428235 
" style="fill:none;stroke:#000000;stroke-width:1.5;"/>
    <path clip-path="url(#p57c830acd8)" d="M 143.749936 132.629412 
L 143.749936 128.428235 
" style="fill:none;stroke:#000000;stroke-width:1.5;"/>
    <path clip-path="url(#p57c830acd8)" d="M 146.15466 132.629412 
L 146.15466 128.428235 
" style="fill:none;stroke:#000000;stroke-width:1.5;"/>
    <path clip-path="url(#p57c830acd8)" d="M 146.689043 132.629412 
L 146.689043 128.428235 
" style="fill:none;stroke:#000000;stroke-width:1.5;"/>
    <path clip-path="url(#p57c830acd8)" d="M 149.674619 132.629412 
L 149.674619 128.428235 
" style="fill:none;stroke:#000000;stroke-width:1.5;"/>
    <path clip-path="url(#p57c830acd8)" d="M 153.200386 132.629412 
L 153.200386 128.428235 
" style="fill:none;stroke:#000000;stroke-width:1.5;"/>
    <path clip-path="url(#p57c830acd8)" d="M 153.804471 132.629412 
L 153.804471 128.428235 
" style="fill:none;stroke:#000000;stroke-width:1.5;"/>
    <path clip-path="url(#p57c830acd8)" d="M 156.534472 132.629412 
L 156.534472 128.428235 
" style="fill:none;stroke:#000000;stroke-width:1.5;"/>
    <path clip-path="url(#p57c830acd8)" d="M 174.122649 132.629412 
L 174.122649 128.428235 
" style="fill:none;stroke:#000000;stroke-width:1.5;"/>
    <path clip-path="url(#p57c830acd8)" d="M 174.622181 132.629412 
L 174.622181 128.428235 
" style="fill:none;stroke:#000000;stroke-width:1.5;"/>
    <path clip-path="url(#p57c830acd8)" d="M 175.499266 132.629412 
L 175.499266 128.428235 
" style="fill:none;stroke:#000000;stroke-width:1.5;"/>
    <path clip-path="url(#p57c830acd8)" d="M 176.411203 132.629412 
L 176.411203 128.428235 
" style="fill:none;stroke:#000000;stroke-width:1.5;"/>
    <path clip-path="url(#p57c830acd8)" d="M 178.76365 132.629412 
L 178.76365 128.428235 
" style="fill:none;stroke:#000000;stroke-width:1.5;"/>
    <path clip-path="url(#p57c830acd8)" d="M 179.995055 132.629412 
L 179.995055 128.428235 
" style="fill:none;stroke:#000000;stroke-width:1.5;"/>
    <path clip-path="url(#p57c830acd8)" d="M 182.986439 132.629412 
L 182.986439 128.428235 
" style="fill:none;stroke:#000000;stroke-width:1.5;"/>
    <path clip-path="url(#p57c830acd8)" d="M 185.960398 132.629412 
L 185.960398 128.428235 
" style="fill:none;stroke:#000000;stroke-width:1.5;"/>
    <path clip-path="url(#p57c830acd8)" d="M 193.029358 132.629412 
L 193.029358 128.428235 
" style="fill:none;stroke:#000000;stroke-width:1.5;"/>
    <path clip-path="url(#p57c830acd8)" d="M 193.679911 132.629412 
L 193.679911 128.428235 
" style="fill:none;stroke:#000000;stroke-width:1.5;"/>
    <path clip-path="url(#p57c830acd8)" d="M 219.81241 132.629412 
L 219.81241 128.428235 
" style="fill:none;stroke:#000000;stroke-width:1.5;"/>
    <path clip-path="url(#p57c830acd8)" d="M 220.253857 132.629412 
L 220.253857 128.428235 
" style="fill:none;stroke:#000000;stroke-width:1.5;"/>
    <path clip-path="url(#p57c830acd8)" d="M 223.814475 132.629412 
L 223.814475 128.428235 
" style="fill:none;stroke:#000000;stroke-width:1.5;"/>
    <path clip-path="url(#p57c830acd8)" d="M 224.401135 132.629412 
L 224.401135 128.428235 
" style="fill:none;stroke:#000000;stroke-width:1.5;"/>
    <path clip-path="url(#p57c830acd8)" d="M 251.509464 132.629412 
L 251.509464 128.428235 
" style="fill:none;stroke:#000000;stroke-width:1.5;"/>
    <path clip-path="url(#p57c830acd8)" d="M 272.786046 132.629412 
L 272.786046 128.428235 
" style="fill:none;stroke:#000000;stroke-width:1.5;"/>
    <path clip-path="url(#p57c830acd8)" d="M 279.309006 132.629412 
L 279.309006 128.428235 
" style="fill:none;stroke:#000000;stroke-width:1.5;"/>
    <path clip-path="url(#p57c830acd8)" d="M 294.626054 132.629412 
L 294.626054 128.428235 
" style="fill:none;stroke:#000000;stroke-width:1.5;"/>
    <path clip-path="url(#p57c830acd8)" d="M 295.224331 132.629412 
L 295.224331 128.428235 
" style="fill:none;stroke:#000000;stroke-width:1.5;"/>
    <path clip-path="url(#p57c830acd8)" d="M 299.818865 132.629412 
L 299.818865 128.428235 
" style="fill:none;stroke:#000000;stroke-width:1.5;"/>
    <path clip-path="url(#p57c830acd8)" d="M 300.568163 132.629412 
L 300.568163 128.428235 
" style="fill:none;stroke:#000000;stroke-width:1.5;"/>
    <path clip-path="url(#p57c830acd8)" d="M 301.259376 132.629412 
L 301.259376 128.428235 
" style="fill:none;stroke:#000000;stroke-width:1.5;"/>
    <path clip-path="url(#p57c830acd8)" d="M 304.854845 132.629412 
L 304.854845 128.428235 
" style="fill:none;stroke:#000000;stroke-width:1.5;"/>
    <path clip-path="url(#p57c830acd8)" d="M 341.146433 132.629412 
L 341.146433 128.428235 
" style="fill:none;stroke:#000000;stroke-width:1.5;"/>
    <path clip-path="url(#p57c830acd8)" d="M 341.622731 132.629412 
L 341.622731 128.428235 
" style="fill:none;stroke:#000000;stroke-width:1.5;"/>
    <path clip-path="url(#p57c830acd8)" d="M 349.266734 132.629412 
L 349.266734 128.428235 
" style="fill:none;stroke:#000000;stroke-width:1.5;"/>
    <path clip-path="url(#p57c830acd8)" d="M 349.74884 132.629412 
L 349.74884 128.428235 
" style="fill:none;stroke:#000000;stroke-width:1.5;"/>
    <path clip-path="url(#p57c830acd8)" d="M 353.106161 132.629412 
L 353.106161 128.428235 
" style="fill:none;stroke:#000000;stroke-width:1.5;"/>
    <path clip-path="url(#p57c830acd8)" d="M 353.582459 132.629412 
L 353.582459 128.428235 
" style="fill:none;stroke:#000000;stroke-width:1.5;"/>
    <path clip-path="url(#p57c830acd8)" d="M 354.308523 132.629412 
L 354.308523 128.428235 
" style="fill:none;stroke:#000000;stroke-width:1.5;"/>
    <path clip-path="url(#p57c830acd8)" d="M 357.782013 132.629412 
L 357.782013 128.428235 
" style="fill:none;stroke:#000000;stroke-width:1.5;"/>
    <path clip-path="url(#p57c830acd8)" d="M 359.971823 132.629412 
L 359.971823 128.428235 
" style="fill:none;stroke:#000000;stroke-width:1.5;"/>
    <path clip-path="url(#p57c830acd8)" d="M 362.359121 132.629412 
L 362.359121 128.428235 
" style="fill:none;stroke:#000000;stroke-width:1.5;"/>
    <path clip-path="url(#p57c830acd8)" d="M 365.437633 132.629412 
L 365.437633 128.428235 
" style="fill:none;stroke:#000000;stroke-width:1.5;"/>
    <path clip-path="url(#p57c830acd8)" d="M 382.020937 132.629412 
L 382.020937 128.428235 
" style="fill:none;stroke:#000000;stroke-width:1.5;"/>
    <path clip-path="url(#p57c830acd8)" d="M 382.532086 132.629412 
L 382.532086 128.428235 
" style="fill:none;stroke:#000000;stroke-width:1.5;"/>
    <path clip-path="url(#p57c830acd8)" d="M 385.668683 132.629412 
L 385.668683 128.428235 
" style="fill:none;stroke:#000000;stroke-width:1.5;"/>
    <path clip-path="url(#p57c830acd8)" d="M 386.272768 132.629412 
L 386.272768 128.428235 
" style="fill:none;stroke:#000000;stroke-width:1.5;"/>
    <path clip-path="url(#p57c830acd8)" d="M 518.74171 132.629412 
L 518.74171 128.428235 
" style="fill:none;stroke:#000000;stroke-width:1.5;"/>
    <path clip-path="url(#p57c830acd8)" d="M 519.113455 132.629412 
L 519.113455 128.428235 
" style="fill:none;stroke:#000000;stroke-width:1.5;"/>
    <path clip-path="url(#p57c830acd8)" d="M 523.307201 132.629412 
L 523.307201 128.428235 
" style="fill:none;stroke:#000000;stroke-width:1.5;"/>
    <path clip-path="url(#p57c830acd8)" d="M 523.905478 132.629412 
L 523.905478 128.428235 
" style="fill:none;stroke:#000000;stroke-width:1.5;"/>
    <path clip-path="url(#p57c830acd8)" d="M 526.432181 132.629412 
L 526.432181 128.428235 
" style="fill:none;stroke:#000000;stroke-width:1.5;"/>
    <path clip-path="url(#p57c830acd8)" d="M 526.937522 132.629412 
L 526.937522 128.428235 
" style="fill:none;stroke:#000000;stroke-width:1.5;"/>
    <path clip-path="url(#p57c830acd8)" d="M 533.053886 132.629412 
L 533.053886 128.428235 
" style="fill:none;stroke:#000000;stroke-width:1.5;"/>
    <path clip-path="url(#p57c830acd8)" d="M 533.443056 132.629412 
L 533.443056 128.428235 
" style="fill:none;stroke:#000000;stroke-width:1.5;"/>
    <path clip-path="url(#p57c830acd8)" d="M 547.046593 132.629412 
L 547.046593 128.428235 
" style="fill:none;stroke:#000000;stroke-width:1.5;"/>
   </g>
   <g id="LineCollection_6">
    <path clip-path="url(#p57c830acd8)" d="M 44.18041 111.623529 
L 44.18041 107.422353 
" style="fill:none;stroke:#000000;stroke-width:1.5;"/>
    <path clip-path="url(#p57c830acd8)" d="M 54.856456 111.623529 
L 54.856456 107.422353 
" style="fill:none;stroke:#000000;stroke-width:1.5;"/>
    <path clip-path="url(#p57c830acd8)" d="M 57.661968 111.623529 
L 57.661968 107.422353 
" style="fill:none;stroke:#000000;stroke-width:1.5;"/>
    <path clip-path="url(#p57c830acd8)" d="M 61.158693 111.623529 
L 61.158693 107.422353 
" style="fill:none;stroke:#000000;stroke-width:1.5;"/>
    <path clip-path="url(#p57c830acd8)" d="M 80.582359 111.623529 
L 80.582359 107.422353 
" style="fill:none;stroke:#000000;stroke-width:1.5;"/>
    <path clip-path="url(#p57c830acd8)" d="M 82.092573 111.623529 
L 82.092573 107.422353 
" style="fill:none;stroke:#000000;stroke-width:1.5;"/>
    <path clip-path="url(#p57c830acd8)" d="M 91.392002 111.623529 
L 91.392002 107.422353 
" style="fill:none;stroke:#000000;stroke-width:1.5;"/>
    <path clip-path="url(#p57c830acd8)" d="M 132.998378 111.623529 
L 132.998378 107.422353 
" style="fill:none;stroke:#000000;stroke-width:1.5;"/>
    <path clip-path="url(#p57c830acd8)" d="M 264.050043 111.623529 
L 264.050043 107.422353 
" style="fill:none;stroke:#000000;stroke-width:1.5;"/>
    <path clip-path="url(#p57c830acd8)" d="M 290.600755 111.623529 
L 290.600755 107.422353 
" style="fill:none;stroke:#000000;stroke-width:1.5;"/>
    <path clip-path="url(#p57c830acd8)" d="M 292.26199 111.623529 
L 292.26199 107.422353 
" style="fill:none;stroke:#000000;stroke-width:1.5;"/>
    <path clip-path="url(#p57c830acd8)" d="M 297.29797 111.623529 
L 297.29797 107.422353 
" style="fill:none;stroke:#000000;stroke-width:1.5;"/>
    <path clip-path="url(#p57c830acd8)" d="M 299.150886 111.623529 
L 299.150886 107.422353 
" style="fill:none;stroke:#000000;stroke-width:1.5;"/>
    <path clip-path="url(#p57c830acd8)" d="M 362.179058 111.623529 
L 362.179058 107.422353 
" style="fill:none;stroke:#000000;stroke-width:1.5;"/>
    <path clip-path="url(#p57c830acd8)" d="M 387.701663 111.623529 
L 387.701663 107.422353 
" style="fill:none;stroke:#000000;stroke-width:1.5;"/>
    <path clip-path="url(#p57c830acd8)" d="M 410.139947 111.623529 
L 410.139947 107.422353 
" style="fill:none;stroke:#000000;stroke-width:1.5;"/>
    <path clip-path="url(#p57c830acd8)" d="M 478.680398 111.623529 
L 478.680398 107.422353 
" style="fill:none;stroke:#000000;stroke-width:1.5;"/>
    <path clip-path="url(#p57c830acd8)" d="M 505.724833 111.623529 
L 505.724833 107.422353 
" style="fill:none;stroke:#000000;stroke-width:1.5;"/>
    <path clip-path="url(#p57c830acd8)" d="M 507.705536 111.623529 
L 507.705536 107.422353 
" style="fill:none;stroke:#000000;stroke-width:1.5;"/>
   </g>
   <g id="LineCollection_7">
    <path clip-path="url(#p57c830acd8)" d="M 35.177215 107.422353 
L 35.177215 103.221176 
" style="fill:none;stroke:#000000;stroke-width:1.5;"/>
    <path clip-path="url(#p57c830acd8)" d="M 170.713052 107.422353 
L 170.713052 103.221176 
" style="fill:none;stroke:#000000;stroke-width:1.5;"/>
    <path clip-path="url(#p57c830acd8)" d="M 173.036457 107.422353 
L 173.036457 103.221176 
" style="fill:none;stroke:#000000;stroke-width:1.5;"/>
   </g>
   <g id="LineCollection_8">
    <path clip-path="url(#p57c830acd8)" d="M 144.934872 103.221176 
L 144.934872 99.02 
" style="fill:none;stroke:#000000;stroke-width:1.5;"/>
    <path clip-path="url(#p57c830acd8)" d="M 182.568226 103.221176 
L 182.568226 99.02 
" style="fill:none;stroke:#000000;stroke-width:1.5;"/>
    <path clip-path="url(#p57c830acd8)" d="M 185.147206 103.221176 
L 185.147206 99.02 
" style="fill:none;stroke:#000000;stroke-width:1.5;"/>
   </g>
   <g id="LineCollection_9">
    <path clip-path="url(#p57c830acd8)" d="M 83.428531 99.02 
L 83.428531 94.818824 
" style="fill:none;stroke:#000000;stroke-width:1.5;"/>
    <path clip-path="url(#p57c830acd8)" d="M 219.609112 99.02 
L 219.609112 94.818824 
" style="fill:none;stroke:#000000;stroke-width:1.5;"/>
    <path clip-path="url(#p57c830acd8)" d="M 221.386517 99.02 
L 221.386517 94.818824 
" style="fill:none;stroke:#000000;stroke-width:1.5;"/>
    <path clip-path="url(#p57c830acd8)" d="M 223.065177 99.02 
L 223.065177 94.818824 
" style="fill:none;stroke:#000000;stroke-width:1.5;"/>
    <path clip-path="url(#p57c830acd8)" d="M 451.984473 99.02 
L 451.984473 94.818824 
" style="fill:none;stroke:#000000;stroke-width:1.5;"/>
    <path clip-path="url(#p57c830acd8)" d="M 453.651516 99.02 
L 453.651516 94.818824 
" style="fill:none;stroke:#000000;stroke-width:1.5;"/>
    <path clip-path="url(#p57c830acd8)" d="M 457.438667 99.02 
L 457.438667 94.818824 
" style="fill:none;stroke:#000000;stroke-width:1.5;"/>
   </g>
   <g id="LineCollection_10">
    <path clip-path="url(#p57c830acd8)" d="M 75.999443 94.818824 
L 75.999443 90.617647 
" style="fill:none;stroke:#000000;stroke-width:1.5;"/>
    <path clip-path="url(#p57c830acd8)" d="M 506.392812 94.818824 
L 506.392812 90.617647 
" style="fill:none;stroke:#000000;stroke-width:1.5;"/>
   </g>
   <g id="LineCollection_11">
    <path clip-path="url(#p57c830acd8)" d="M 507.659068 86.416471 
L 507.659068 82.215294 
" style="fill:none;stroke:#000000;stroke-width:1.5;"/>
   </g>
   <g id="LineCollection_12">
    <path clip-path="url(#p57c830acd8)" d="M 56.540925 78.014118 
L 56.540925 73.812941 
" style="fill:none;stroke:#000000;stroke-width:1.5;"/>
    <path clip-path="url(#p57c830acd8)" d="M 122.601141 78.014118 
L 122.601141 73.812941 
" style="fill:none;stroke:#000000;stroke-width:1.5;"/>
    <path clip-path="url(#p57c830acd8)" d="M 131.238399 78.014118 
L 131.238399 73.812941 
" style="fill:none;stroke:#000000;stroke-width:1.5;"/>
    <path clip-path="url(#p57c830acd8)" d="M 134.94423 78.014118 
L 134.94423 73.812941 
" style="fill:none;stroke:#000000;stroke-width:1.5;"/>
    <path clip-path="url(#p57c830acd8)" d="M 139.660743 78.014118 
L 139.660743 73.812941 
" style="fill:none;stroke:#000000;stroke-width:1.5;"/>
    <path clip-path="url(#p57c830acd8)" d="M 190.920868 78.014118 
L 190.920868 73.812941 
" style="fill:none;stroke:#000000;stroke-width:1.5;"/>
    <path clip-path="url(#p57c830acd8)" d="M 199.924062 78.014118 
L 199.924062 73.812941 
" style="fill:none;stroke:#000000;stroke-width:1.5;"/>
    <path clip-path="url(#p57c830acd8)" d="M 208.933066 78.014118 
L 208.933066 73.812941 
" style="fill:none;stroke:#000000;stroke-width:1.5;"/>
    <path clip-path="url(#p57c830acd8)" d="M 226.509625 78.014118 
L 226.509625 73.812941 
" style="fill:none;stroke:#000000;stroke-width:1.5;"/>
    <path clip-path="url(#p57c830acd8)" d="M 349.069244 78.014118 
L 349.069244 73.812941 
" style="fill:none;stroke:#000000;stroke-width:1.5;"/>
    <path clip-path="url(#p57c830acd8)" d="M 365.031037 78.014118 
L 365.031037 73.812941 
" style="fill:none;stroke:#000000;stroke-width:1.5;"/>
    <path clip-path="url(#p57c830acd8)" d="M 382.75281 78.014118 
L 382.75281 73.812941 
" style="fill:none;stroke:#000000;stroke-width:1.5;"/>
    <path clip-path="url(#p57c830acd8)" d="M 406.829095 78.014118 
L 406.829095 73.812941 
" style="fill:none;stroke:#000000;stroke-width:1.5;"/>
    <path clip-path="url(#p57c830acd8)" d="M 431.428147 78.014118 
L 431.428147 73.812941 
" style="fill:none;stroke:#000000;stroke-width:1.5;"/>
    <path clip-path="url(#p57c830acd8)" d="M 448.760749 78.014118 
L 448.760749 73.812941 
" style="fill:none;stroke:#000000;stroke-width:1.5;"/>
    <path clip-path="url(#p57c830acd8)" d="M 452.234239 78.014118 
L 452.234239 73.812941 
" style="fill:none;stroke:#000000;stroke-width:1.5;"/>
    <path clip-path="url(#p57c830acd8)" d="M 456.0969 78.014118 
L 456.0969 73.812941 
" style="fill:none;stroke:#000000;stroke-width:1.5;"/>
    <path clip-path="url(#p57c830acd8)" d="M 527.018841 78.014118 
L 527.018841 73.812941 
" style="fill:none;stroke:#000000;stroke-width:1.5;"/>
   </g>
   <g id="LineCollection_13">
    <path clip-path="url(#p57c830acd8)" d="M 97.746515 65.410588 
L 97.746515 61.209412 
" style="fill:none;stroke:#000000;stroke-width:1.5;"/>
    <path clip-path="url(#p57c830acd8)" d="M 98.548089 65.410588 
L 98.548089 61.209412 
" style="fill:none;stroke:#000000;stroke-width:1.5;"/>
   </g>
   <g id="LineCollection_14">
    <path clip-path="url(#p57c830acd8)" d="M 87.175021 61.209412 
L 87.175021 57.008235 
" style="fill:none;stroke:#000000;stroke-width:1.5;"/>
    <path clip-path="url(#p57c830acd8)" d="M 93.750258 61.209412 
L 93.750258 57.008235 
" style="fill:none;stroke:#000000;stroke-width:1.5;"/>
    <path clip-path="url(#p57c830acd8)" d="M 103.688623 61.209412 
L 103.688623 57.008235 
" style="fill:none;stroke:#000000;stroke-width:1.5;"/>
    <path clip-path="url(#p57c830acd8)" d="M 115.659968 61.209412 
L 115.659968 57.008235 
" style="fill:none;stroke:#000000;stroke-width:1.5;"/>
    <path clip-path="url(#p57c830acd8)" d="M 139.939551 61.209412 
L 139.939551 57.008235 
" style="fill:none;stroke:#000000;stroke-width:1.5;"/>
    <path clip-path="url(#p57c830acd8)" d="M 175.783883 61.209412 
L 175.783883 57.008235 
" style="fill:none;stroke:#000000;stroke-width:1.5;"/>
    <path clip-path="url(#p57c830acd8)" d="M 196.560933 61.209412 
L 196.560933 57.008235 
" style="fill:none;stroke:#000000;stroke-width:1.5;"/>
    <path clip-path="url(#p57c830acd8)" d="M 211.33779 61.209412 
L 211.33779 57.008235 
" style="fill:none;stroke:#000000;stroke-width:1.5;"/>
    <path clip-path="url(#p57c830acd8)" d="M 245.578973 61.209412 
L 245.578973 57.008235 
" style="fill:none;stroke:#000000;stroke-width:1.5;"/>
    <path clip-path="url(#p57c830acd8)" d="M 311.488167 61.209412 
L 311.488167 57.008235 
" style="fill:none;stroke:#000000;stroke-width:1.5;"/>
    <path clip-path="url(#p57c830acd8)" d="M 331.033812 61.209412 
L 331.033812 57.008235 
" style="fill:none;stroke:#000000;stroke-width:1.5;"/>
    <path clip-path="url(#p57c830acd8)" d="M 402.025455 61.209412 
L 402.025455 57.008235 
" style="fill:none;stroke:#000000;stroke-width:1.5;"/>
    <path clip-path="url(#p57c830acd8)" d="M 432.8977 61.209412 
L 432.8977 57.008235 
" style="fill:none;stroke:#000000;stroke-width:1.5;"/>
    <path clip-path="url(#p57c830acd8)" d="M 470.089607 61.209412 
L 470.089607 57.008235 
" style="fill:none;stroke:#000000;stroke-width:1.5;"/>
    <path clip-path="url(#p57c830acd8)" d="M 496.75649 61.209412 
L 496.75649 57.008235 
" style="fill:none;stroke:#000000;stroke-width:1.5;"/>
    <path clip-path="url(#p57c830acd8)" d="M 522.511435 61.209412 
L 522.511435 57.008235 
" style="fill:none;stroke:#000000;stroke-width:1.5;"/>
    <path clip-path="url(#p57c830acd8)" d="M 537.201164 61.209412 
L 537.201164 57.008235 
" style="fill:none;stroke:#000000;stroke-width:1.5;"/>
    <path clip-path="url(#p57c830acd8)" d="M 556.944299 61.209412 
L 556.944299 57.008235 
" style="fill:none;stroke:#000000;stroke-width:1.5;"/>
   </g>
   <g id="LineCollection_15">
    <path clip-path="url(#p57c830acd8)" d="M 44.732219 57.008235 
L 44.732219 52.807059 
" style="fill:none;stroke:#000000;stroke-width:1.5;"/>
    <path clip-path="url(#p57c830acd8)" d="M 61.193544 57.008235 
L 61.193544 52.807059 
" style="fill:none;stroke:#000000;stroke-width:1.5;"/>
    <path clip-path="url(#p57c830acd8)" d="M 93.436598 57.008235 
L 93.436598 52.807059 
" style="fill:none;stroke:#000000;stroke-width:1.5;"/>
    <path clip-path="url(#p57c830acd8)" d="M 97.862685 57.008235 
L 97.862685 52.807059 
" style="fill:none;stroke:#000000;stroke-width:1.5;"/>
    <path clip-path="url(#p57c830acd8)" d="M 104.17073 57.008235 
L 104.17073 52.807059 
" style="fill:none;stroke:#000000;stroke-width:1.5;"/>
    <path clip-path="url(#p57c830acd8)" d="M 113.632797 57.008235 
L 113.632797 52.807059 
" style="fill:none;stroke:#000000;stroke-width:1.5;"/>
    <path clip-path="url(#p57c830acd8)" d="M 123.727992 57.008235 
L 123.727992 52.807059 
" style="fill:none;stroke:#000000;stroke-width:1.5;"/>
    <path clip-path="url(#p57c830acd8)" d="M 130.587846 57.008235 
L 130.587846 52.807059 
" style="fill:none;stroke:#000000;stroke-width:1.5;"/>
    <path clip-path="url(#p57c830acd8)" d="M 134.43889 57.008235 
L 134.43889 52.807059 
" style="fill:none;stroke:#000000;stroke-width:1.5;"/>
    <path clip-path="url(#p57c830acd8)" d="M 136.97721 57.008235 
L 136.97721 52.807059 
" style="fill:none;stroke:#000000;stroke-width:1.5;"/>
    <path clip-path="url(#p57c830acd8)" d="M 140.688849 57.008235 
L 140.688849 52.807059 
" style="fill:none;stroke:#000000;stroke-width:1.5;"/>
    <path clip-path="url(#p57c830acd8)" d="M 141.885403 57.008235 
L 141.885403 52.807059 
" style="fill:none;stroke:#000000;stroke-width:1.5;"/>
    <path clip-path="url(#p57c830acd8)" d="M 149.790789 57.008235 
L 149.790789 52.807059 
" style="fill:none;stroke:#000000;stroke-width:1.5;"/>
    <path clip-path="url(#p57c830acd8)" d="M 153.688301 57.008235 
L 153.688301 52.807059 
" style="fill:none;stroke:#000000;stroke-width:1.5;"/>
    <path clip-path="url(#p57c830acd8)" d="M 161.675006 57.008235 
L 161.675006 52.807059 
" style="fill:none;stroke:#000000;stroke-width:1.5;"/>
    <path clip-path="url(#p57c830acd8)" d="M 169.888243 57.008235 
L 169.888243 52.807059 
" style="fill:none;stroke:#000000;stroke-width:1.5;"/>
    <path clip-path="url(#p57c830acd8)" d="M 176.30665 57.008235 
L 176.30665 52.807059 
" style="fill:none;stroke:#000000;stroke-width:1.5;"/>
    <path clip-path="url(#p57c830acd8)" d="M 178.275735 57.008235 
L 178.275735 52.807059 
" style="fill:none;stroke:#000000;stroke-width:1.5;"/>
    <path clip-path="url(#p57c830acd8)" d="M 180.512013 57.008235 
L 180.512013 52.807059 
" style="fill:none;stroke:#000000;stroke-width:1.5;"/>
    <path clip-path="url(#p57c830acd8)" d="M 187.534505 57.008235 
L 187.534505 52.807059 
" style="fill:none;stroke:#000000;stroke-width:1.5;"/>
    <path clip-path="url(#p57c830acd8)" d="M 191.240336 57.008235 
L 191.240336 52.807059 
" style="fill:none;stroke:#000000;stroke-width:1.5;"/>
    <path clip-path="url(#p57c830acd8)" d="M 199.000509 57.008235 
L 199.000509 52.807059 
" style="fill:none;stroke:#000000;stroke-width:1.5;"/>
    <path clip-path="url(#p57c830acd8)" d="M 205.535086 57.008235 
L 205.535086 52.807059 
" style="fill:none;stroke:#000000;stroke-width:1.5;"/>
    <path clip-path="url(#p57c830acd8)" d="M 207.266022 57.008235 
L 207.266022 52.807059 
" style="fill:none;stroke:#000000;stroke-width:1.5;"/>
    <path clip-path="url(#p57c830acd8)" d="M 220.602368 57.008235 
L 220.602368 52.807059 
" style="fill:none;stroke:#000000;stroke-width:1.5;"/>
    <path clip-path="url(#p57c830acd8)" d="M 227.3112 57.008235 
L 227.3112 52.807059 
" style="fill:none;stroke:#000000;stroke-width:1.5;"/>
    <path clip-path="url(#p57c830acd8)" d="M 236.558352 57.008235 
L 236.558352 52.807059 
" style="fill:none;stroke:#000000;stroke-width:1.5;"/>
    <path clip-path="url(#p57c830acd8)" d="M 241.065758 57.008235 
L 241.065758 52.807059 
" style="fill:none;stroke:#000000;stroke-width:1.5;"/>
    <path clip-path="url(#p57c830acd8)" d="M 255.674168 57.008235 
L 255.674168 52.807059 
" style="fill:none;stroke:#000000;stroke-width:1.5;"/>
    <path clip-path="url(#p57c830acd8)" d="M 257.503849 57.008235 
L 257.503849 52.807059 
" style="fill:none;stroke:#000000;stroke-width:1.5;"/>
    <path clip-path="url(#p57c830acd8)" d="M 262.162277 57.008235 
L 262.162277 52.807059 
" style="fill:none;stroke:#000000;stroke-width:1.5;"/>
    <path clip-path="url(#p57c830acd8)" d="M 271.577876 57.008235 
L 271.577876 52.807059 
" style="fill:none;stroke:#000000;stroke-width:1.5;"/>
    <path clip-path="url(#p57c830acd8)" d="M 276.625473 57.008235 
L 276.625473 52.807059 
" style="fill:none;stroke:#000000;stroke-width:1.5;"/>
    <path clip-path="url(#p57c830acd8)" d="M 279.33224 57.008235 
L 279.33224 52.807059 
" style="fill:none;stroke:#000000;stroke-width:1.5;"/>
    <path clip-path="url(#p57c830acd8)" d="M 280.139623 57.008235 
L 280.139623 52.807059 
" style="fill:none;stroke:#000000;stroke-width:1.5;"/>
    <path clip-path="url(#p57c830acd8)" d="M 285.047817 57.008235 
L 285.047817 52.807059 
" style="fill:none;stroke:#000000;stroke-width:1.5;"/>
    <path clip-path="url(#p57c830acd8)" d="M 287.359605 57.008235 
L 287.359605 52.807059 
" style="fill:none;stroke:#000000;stroke-width:1.5;"/>
    <path clip-path="url(#p57c830acd8)" d="M 302.676653 57.008235 
L 302.676653 52.807059 
" style="fill:none;stroke:#000000;stroke-width:1.5;"/>
    <path clip-path="url(#p57c830acd8)" d="M 304.610888 57.008235 
L 304.610888 52.807059 
" style="fill:none;stroke:#000000;stroke-width:1.5;"/>
    <path clip-path="url(#p57c830acd8)" d="M 320.671425 57.008235 
L 320.671425 52.807059 
" style="fill:none;stroke:#000000;stroke-width:1.5;"/>
    <path clip-path="url(#p57c830acd8)" d="M 343.458221 57.008235 
L 343.458221 52.807059 
" style="fill:none;stroke:#000000;stroke-width:1.5;"/>
    <path clip-path="url(#p57c830acd8)" d="M 348.407074 57.008235 
L 348.407074 52.807059 
" style="fill:none;stroke:#000000;stroke-width:1.5;"/>
    <path clip-path="url(#p57c830acd8)" d="M 362.696015 57.008235 
L 362.696015 52.807059 
" style="fill:none;stroke:#000000;stroke-width:1.5;"/>
    <path clip-path="url(#p57c830acd8)" d="M 365.153016 57.008235 
L 365.153016 52.807059 
" style="fill:none;stroke:#000000;stroke-width:1.5;"/>
    <path clip-path="url(#p57c830acd8)" d="M 378.396425 57.008235 
L 378.396425 52.807059 
" style="fill:none;stroke:#000000;stroke-width:1.5;"/>
    <path clip-path="url(#p57c830acd8)" d="M 381.62015 57.008235 
L 381.62015 52.807059 
" style="fill:none;stroke:#000000;stroke-width:1.5;"/>
    <path clip-path="url(#p57c830acd8)" d="M 402.106774 57.008235 
L 402.106774 52.807059 
" style="fill:none;stroke:#000000;stroke-width:1.5;"/>
    <path clip-path="url(#p57c830acd8)" d="M 404.610243 57.008235 
L 404.610243 52.807059 
" style="fill:none;stroke:#000000;stroke-width:1.5;"/>
    <path clip-path="url(#p57c830acd8)" d="M 406.265669 57.008235 
L 406.265669 52.807059 
" style="fill:none;stroke:#000000;stroke-width:1.5;"/>
    <path clip-path="url(#p57c830acd8)" d="M 410.081862 57.008235 
L 410.081862 52.807059 
" style="fill:none;stroke:#000000;stroke-width:1.5;"/>
    <path clip-path="url(#p57c830acd8)" d="M 413.003544 57.008235 
L 413.003544 52.807059 
" style="fill:none;stroke:#000000;stroke-width:1.5;"/>
    <path clip-path="url(#p57c830acd8)" d="M 416.087864 57.008235 
L 416.087864 52.807059 
" style="fill:none;stroke:#000000;stroke-width:1.5;"/>
    <path clip-path="url(#p57c830acd8)" d="M 424.004867 57.008235 
L 424.004867 52.807059 
" style="fill:none;stroke:#000000;stroke-width:1.5;"/>
    <path clip-path="url(#p57c830acd8)" d="M 426.066889 57.008235 
L 426.066889 52.807059 
" style="fill:none;stroke:#000000;stroke-width:1.5;"/>
    <path clip-path="url(#p57c830acd8)" d="M 428.83755 57.008235 
L 428.83755 52.807059 
" style="fill:none;stroke:#000000;stroke-width:1.5;"/>
    <path clip-path="url(#p57c830acd8)" d="M 443.080023 57.008235 
L 443.080023 52.807059 
" style="fill:none;stroke:#000000;stroke-width:1.5;"/>
    <path clip-path="url(#p57c830acd8)" d="M 447.053046 57.008235 
L 447.053046 52.807059 
" style="fill:none;stroke:#000000;stroke-width:1.5;"/>
    <path clip-path="url(#p57c830acd8)" d="M 449.539089 57.008235 
L 449.539089 52.807059 
" style="fill:none;stroke:#000000;stroke-width:1.5;"/>
    <path clip-path="url(#p57c830acd8)" d="M 480.672718 57.008235 
L 480.672718 52.807059 
" style="fill:none;stroke:#000000;stroke-width:1.5;"/>
    <path clip-path="url(#p57c830acd8)" d="M 514.298198 57.008235 
L 514.298198 52.807059 
" style="fill:none;stroke:#000000;stroke-width:1.5;"/>
    <path clip-path="url(#p57c830acd8)" d="M 516.871369 57.008235 
L 516.871369 52.807059 
" style="fill:none;stroke:#000000;stroke-width:1.5;"/>
    <path clip-path="url(#p57c830acd8)" d="M 523.649904 57.008235 
L 523.649904 52.807059 
" style="fill:none;stroke:#000000;stroke-width:1.5;"/>
    <path clip-path="url(#p57c830acd8)" d="M 528.860139 57.008235 
L 528.860139 52.807059 
" style="fill:none;stroke:#000000;stroke-width:1.5;"/>
    <path clip-path="url(#p57c830acd8)" d="M 539.588463 57.008235 
L 539.588463 52.807059 
" style="fill:none;stroke:#000000;stroke-width:1.5;"/>
    <path clip-path="url(#p57c830acd8)" d="M 545.245954 57.008235 
L 545.245954 52.807059 
" style="fill:none;stroke:#000000;stroke-width:1.5;"/>
    <path clip-path="url(#p57c830acd8)" d="M 549.573296 57.008235 
L 549.573296 52.807059 
" style="fill:none;stroke:#000000;stroke-width:1.5;"/>
    <path clip-path="url(#p57c830acd8)" d="M 551.937361 57.008235 
L 551.937361 52.807059 
" style="fill:none;stroke:#000000;stroke-width:1.5;"/>
    <path clip-path="url(#p57c830acd8)" d="M 555.015872 57.008235 
L 555.015872 52.807059 
" style="fill:none;stroke:#000000;stroke-width:1.5;"/>
    <path clip-path="url(#p57c830acd8)" d="M 557.165022 57.008235 
L 557.165022 52.807059 
" style="fill:none;stroke:#000000;stroke-width:1.5;"/>
   </g>
   <g id="LineCollection_16">
    <path clip-path="url(#p57c830acd8)" d="M 44.76707 52.807059 
L 44.76707 48.605882 
" style="fill:none;stroke:#000000;stroke-width:1.5;"/>
    <path clip-path="url(#p57c830acd8)" d="M 50.836966 52.807059 
L 50.836966 48.605882 
" style="fill:none;stroke:#000000;stroke-width:1.5;"/>
    <path clip-path="url(#p57c830acd8)" d="M 59.811118 52.807059 
L 59.811118 48.605882 
" style="fill:none;stroke:#000000;stroke-width:1.5;"/>
    <path clip-path="url(#p57c830acd8)" d="M 78.868848 52.807059 
L 78.868848 48.605882 
" style="fill:none;stroke:#000000;stroke-width:1.5;"/>
    <path clip-path="url(#p57c830acd8)" d="M 84.398552 52.807059 
L 84.398552 48.605882 
" style="fill:none;stroke:#000000;stroke-width:1.5;"/>
    <path clip-path="url(#p57c830acd8)" d="M 98.501621 52.807059 
L 98.501621 48.605882 
" style="fill:none;stroke:#000000;stroke-width:1.5;"/>
    <path clip-path="url(#p57c830acd8)" d="M 105.436985 52.807059 
L 105.436985 48.605882 
" style="fill:none;stroke:#000000;stroke-width:1.5;"/>
    <path clip-path="url(#p57c830acd8)" d="M 129.606207 52.807059 
L 129.606207 48.605882 
" style="fill:none;stroke:#000000;stroke-width:1.5;"/>
    <path clip-path="url(#p57c830acd8)" d="M 133.950975 52.807059 
L 133.950975 48.605882 
" style="fill:none;stroke:#000000;stroke-width:1.5;"/>
    <path clip-path="url(#p57c830acd8)" d="M 136.715827 52.807059 
L 136.715827 48.605882 
" style="fill:none;stroke:#000000;stroke-width:1.5;"/>
    <path clip-path="url(#p57c830acd8)" d="M 141.815701 52.807059 
L 141.815701 48.605882 
" style="fill:none;stroke:#000000;stroke-width:1.5;"/>
    <path clip-path="url(#p57c830acd8)" d="M 157.370898 52.807059 
L 157.370898 48.605882 
" style="fill:none;stroke:#000000;stroke-width:1.5;"/>
    <path clip-path="url(#p57c830acd8)" d="M 185.728057 52.807059 
L 185.728057 48.605882 
" style="fill:none;stroke:#000000;stroke-width:1.5;"/>
    <path clip-path="url(#p57c830acd8)" d="M 190.008931 52.807059 
L 190.008931 48.605882 
" style="fill:none;stroke:#000000;stroke-width:1.5;"/>
    <path clip-path="url(#p57c830acd8)" d="M 196.65387 52.807059 
L 196.65387 48.605882 
" style="fill:none;stroke:#000000;stroke-width:1.5;"/>
    <path clip-path="url(#p57c830acd8)" d="M 200.539765 52.807059 
L 200.539765 48.605882 
" style="fill:none;stroke:#000000;stroke-width:1.5;"/>
    <path clip-path="url(#p57c830acd8)" d="M 207.045299 52.807059 
L 207.045299 48.605882 
" style="fill:none;stroke:#000000;stroke-width:1.5;"/>
    <path clip-path="url(#p57c830acd8)" d="M 210.466513 52.807059 
L 210.466513 48.605882 
" style="fill:none;stroke:#000000;stroke-width:1.5;"/>
    <path clip-path="url(#p57c830acd8)" d="M 219.034069 52.807059 
L 219.034069 48.605882 
" style="fill:none;stroke:#000000;stroke-width:1.5;"/>
    <path clip-path="url(#p57c830acd8)" d="M 226.811668 52.807059 
L 226.811668 48.605882 
" style="fill:none;stroke:#000000;stroke-width:1.5;"/>
    <path clip-path="url(#p57c830acd8)" d="M 234.095543 52.807059 
L 234.095543 48.605882 
" style="fill:none;stroke:#000000;stroke-width:1.5;"/>
    <path clip-path="url(#p57c830acd8)" d="M 248.90725 52.807059 
L 248.90725 48.605882 
" style="fill:none;stroke:#000000;stroke-width:1.5;"/>
    <path clip-path="url(#p57c830acd8)" d="M 257.666488 52.807059 
L 257.666488 48.605882 
" style="fill:none;stroke:#000000;stroke-width:1.5;"/>
    <path clip-path="url(#p57c830acd8)" d="M 262.481745 52.807059 
L 262.481745 48.605882 
" style="fill:none;stroke:#000000;stroke-width:1.5;"/>
    <path clip-path="url(#p57c830acd8)" d="M 270.358088 52.807059 
L 270.358088 48.605882 
" style="fill:none;stroke:#000000;stroke-width:1.5;"/>
    <path clip-path="url(#p57c830acd8)" d="M 274.458898 52.807059 
L 274.458898 48.605882 
" style="fill:none;stroke:#000000;stroke-width:1.5;"/>
    <path clip-path="url(#p57c830acd8)" d="M 280.900539 52.807059 
L 280.900539 48.605882 
" style="fill:none;stroke:#000000;stroke-width:1.5;"/>
    <path clip-path="url(#p57c830acd8)" d="M 297.292162 52.807059 
L 297.292162 48.605882 
" style="fill:none;stroke:#000000;stroke-width:1.5;"/>
    <path clip-path="url(#p57c830acd8)" d="M 317.267637 52.807059 
L 317.267637 48.605882 
" style="fill:none;stroke:#000000;stroke-width:1.5;"/>
    <path clip-path="url(#p57c830acd8)" d="M 330.098642 52.807059 
L 330.098642 48.605882 
" style="fill:none;stroke:#000000;stroke-width:1.5;"/>
    <path clip-path="url(#p57c830acd8)" d="M 333.258473 52.807059 
L 333.258473 48.605882 
" style="fill:none;stroke:#000000;stroke-width:1.5;"/>
    <path clip-path="url(#p57c830acd8)" d="M 358.792695 52.807059 
L 358.792695 48.605882 
" style="fill:none;stroke:#000000;stroke-width:1.5;"/>
    <path clip-path="url(#p57c830acd8)" d="M 377.292808 52.807059 
L 377.292808 48.605882 
" style="fill:none;stroke:#000000;stroke-width:1.5;"/>
    <path clip-path="url(#p57c830acd8)" d="M 396.919772 52.807059 
L 396.919772 48.605882 
" style="fill:none;stroke:#000000;stroke-width:1.5;"/>
    <path clip-path="url(#p57c830acd8)" d="M 401.369093 52.807059 
L 401.369093 48.605882 
" style="fill:none;stroke:#000000;stroke-width:1.5;"/>
    <path clip-path="url(#p57c830acd8)" d="M 405.603499 52.807059 
L 405.603499 48.605882 
" style="fill:none;stroke:#000000;stroke-width:1.5;"/>
    <path clip-path="url(#p57c830acd8)" d="M 416.488652 52.807059 
L 416.488652 48.605882 
" style="fill:none;stroke:#000000;stroke-width:1.5;"/>
    <path clip-path="url(#p57c830acd8)" d="M 475.247567 52.807059 
L 475.247567 48.605882 
" style="fill:none;stroke:#000000;stroke-width:1.5;"/>
    <path clip-path="url(#p57c830acd8)" d="M 502.059662 52.807059 
L 502.059662 48.605882 
" style="fill:none;stroke:#000000;stroke-width:1.5;"/>
    <path clip-path="url(#p57c830acd8)" d="M 519.316753 52.807059 
L 519.316753 48.605882 
" style="fill:none;stroke:#000000;stroke-width:1.5;"/>
    <path clip-path="url(#p57c830acd8)" d="M 531.938651 52.807059 
L 531.938651 48.605882 
" style="fill:none;stroke:#000000;stroke-width:1.5;"/>
    <path clip-path="url(#p57c830acd8)" d="M 548.277998 52.807059 
L 548.277998 48.605882 
" style="fill:none;stroke:#000000;stroke-width:1.5;"/>
    <path clip-path="url(#p57c830acd8)" d="M 554.824191 52.807059 
L 554.824191 48.605882 
" style="fill:none;stroke:#000000;stroke-width:1.5;"/>
    <path clip-path="url(#p57c830acd8)" d="M 559.778853 52.807059 
L 559.778853 48.605882 
" style="fill:none;stroke:#000000;stroke-width:1.5;"/>
   </g>
   <g id="LineCollection_17">
    <path clip-path="url(#p57c830acd8)" d="M 61.257437 48.605882 
L 61.257437 44.404706 
" style="fill:none;stroke:#000000;stroke-width:1.5;"/>
    <path clip-path="url(#p57c830acd8)" d="M 80.901828 48.605882 
L 80.901828 44.404706 
" style="fill:none;stroke:#000000;stroke-width:1.5;"/>
    <path clip-path="url(#p57c830acd8)" d="M 94.63896 48.605882 
L 94.63896 44.404706 
" style="fill:none;stroke:#000000;stroke-width:1.5;"/>
    <path clip-path="url(#p57c830acd8)" d="M 111.867009 48.605882 
L 111.867009 44.404706 
" style="fill:none;stroke:#000000;stroke-width:1.5;"/>
    <path clip-path="url(#p57c830acd8)" d="M 125.040716 48.605882 
L 125.040716 44.404706 
" style="fill:none;stroke:#000000;stroke-width:1.5;"/>
    <path clip-path="url(#p57c830acd8)" d="M 171.07318 48.605882 
L 171.07318 44.404706 
" style="fill:none;stroke:#000000;stroke-width:1.5;"/>
    <path clip-path="url(#p57c830acd8)" d="M 179.617502 48.605882 
L 179.617502 44.404706 
" style="fill:none;stroke:#000000;stroke-width:1.5;"/>
    <path clip-path="url(#p57c830acd8)" d="M 233.596011 48.605882 
L 233.596011 44.404706 
" style="fill:none;stroke:#000000;stroke-width:1.5;"/>
    <path clip-path="url(#p57c830acd8)" d="M 247.826867 48.605882 
L 247.826867 44.404706 
" style="fill:none;stroke:#000000;stroke-width:1.5;"/>
    <path clip-path="url(#p57c830acd8)" d="M 253.983891 48.605882 
L 253.983891 44.404706 
" style="fill:none;stroke:#000000;stroke-width:1.5;"/>
    <path clip-path="url(#p57c830acd8)" d="M 272.37945 48.605882 
L 272.37945 44.404706 
" style="fill:none;stroke:#000000;stroke-width:1.5;"/>
    <path clip-path="url(#p57c830acd8)" d="M 306.138527 48.605882 
L 306.138527 44.404706 
" style="fill:none;stroke:#000000;stroke-width:1.5;"/>
    <path clip-path="url(#p57c830acd8)" d="M 321.176766 48.605882 
L 321.176766 44.404706 
" style="fill:none;stroke:#000000;stroke-width:1.5;"/>
    <path clip-path="url(#p57c830acd8)" d="M 327.612598 48.605882 
L 327.612598 44.404706 
" style="fill:none;stroke:#000000;stroke-width:1.5;"/>
    <path clip-path="url(#p57c830acd8)" d="M 332.073536 48.605882 
L 332.073536 44.404706 
" style="fill:none;stroke:#000000;stroke-width:1.5;"/>
    <path clip-path="url(#p57c830acd8)" d="M 398.691369 48.605882 
L 398.691369 44.404706 
" style="fill:none;stroke:#000000;stroke-width:1.5;"/>
    <path clip-path="url(#p57c830acd8)" d="M 416.395716 48.605882 
L 416.395716 44.404706 
" style="fill:none;stroke:#000000;stroke-width:1.5;"/>
    <path clip-path="url(#p57c830acd8)" d="M 426.188868 48.605882 
L 426.188868 44.404706 
" style="fill:none;stroke:#000000;stroke-width:1.5;"/>
    <path clip-path="url(#p57c830acd8)" d="M 472.488523 48.605882 
L 472.488523 44.404706 
" style="fill:none;stroke:#000000;stroke-width:1.5;"/>
    <path clip-path="url(#p57c830acd8)" d="M 493.817382 48.605882 
L 493.817382 44.404706 
" style="fill:none;stroke:#000000;stroke-width:1.5;"/>
    <path clip-path="url(#p57c830acd8)" d="M 520.402945 48.605882 
L 520.402945 44.404706 
" style="fill:none;stroke:#000000;stroke-width:1.5;"/>
    <path clip-path="url(#p57c830acd8)" d="M 548.167636 48.605882 
L 548.167636 44.404706 
" style="fill:none;stroke:#000000;stroke-width:1.5;"/>
   </g>
   <g id="LineCollection_18">
    <path clip-path="url(#p57c830acd8)" d="M 45.795177 44.404706 
L 45.795177 40.203529 
" style="fill:none;stroke:#000000;stroke-width:1.5;"/>
    <path clip-path="url(#p57c830acd8)" d="M 57.208904 44.404706 
L 57.208904 40.203529 
" style="fill:none;stroke:#000000;stroke-width:1.5;"/>
    <path clip-path="url(#p57c830acd8)" d="M 83.806084 44.404706 
L 83.806084 40.203529 
" style="fill:none;stroke:#000000;stroke-width:1.5;"/>
    <path clip-path="url(#p57c830acd8)" d="M 89.887597 44.404706 
L 89.887597 40.203529 
" style="fill:none;stroke:#000000;stroke-width:1.5;"/>
    <path clip-path="url(#p57c830acd8)" d="M 91.380385 44.404706 
L 91.380385 40.203529 
" style="fill:none;stroke:#000000;stroke-width:1.5;"/>
    <path clip-path="url(#p57c830acd8)" d="M 100.093154 44.404706 
L 100.093154 40.203529 
" style="fill:none;stroke:#000000;stroke-width:1.5;"/>
    <path clip-path="url(#p57c830acd8)" d="M 103.729283 44.404706 
L 103.729283 40.203529 
" style="fill:none;stroke:#000000;stroke-width:1.5;"/>
    <path clip-path="url(#p57c830acd8)" d="M 107.104029 44.404706 
L 107.104029 40.203529 
" style="fill:none;stroke:#000000;stroke-width:1.5;"/>
    <path clip-path="url(#p57c830acd8)" d="M 110.426498 44.404706 
L 110.426498 40.203529 
" style="fill:none;stroke:#000000;stroke-width:1.5;"/>
    <path clip-path="url(#p57c830acd8)" d="M 113.022903 44.404706 
L 113.022903 40.203529 
" style="fill:none;stroke:#000000;stroke-width:1.5;"/>
    <path clip-path="url(#p57c830acd8)" d="M 116.792628 44.404706 
L 116.792628 40.203529 
" style="fill:none;stroke:#000000;stroke-width:1.5;"/>
    <path clip-path="url(#p57c830acd8)" d="M 131.517208 44.404706 
L 131.517208 40.203529 
" style="fill:none;stroke:#000000;stroke-width:1.5;"/>
    <path clip-path="url(#p57c830acd8)" d="M 133.346889 44.404706 
L 133.346889 40.203529 
" style="fill:none;stroke:#000000;stroke-width:1.5;"/>
    <path clip-path="url(#p57c830acd8)" d="M 137.058529 44.404706 
L 137.058529 40.203529 
" style="fill:none;stroke:#000000;stroke-width:1.5;"/>
    <path clip-path="url(#p57c830acd8)" d="M 143.18651 44.404706 
L 143.18651 40.203529 
" style="fill:none;stroke:#000000;stroke-width:1.5;"/>
    <path clip-path="url(#p57c830acd8)" d="M 155.430855 44.404706 
L 155.430855 40.203529 
" style="fill:none;stroke:#000000;stroke-width:1.5;"/>
    <path clip-path="url(#p57c830acd8)" d="M 174.912606 44.404706 
L 174.912606 40.203529 
" style="fill:none;stroke:#000000;stroke-width:1.5;"/>
    <path clip-path="url(#p57c830acd8)" d="M 175.499266 44.404706 
L 175.499266 40.203529 
" style="fill:none;stroke:#000000;stroke-width:1.5;"/>
    <path clip-path="url(#p57c830acd8)" d="M 180.825672 44.404706 
L 180.825672 40.203529 
" style="fill:none;stroke:#000000;stroke-width:1.5;"/>
    <path clip-path="url(#p57c830acd8)" d="M 182.957397 44.404706 
L 182.957397 40.203529 
" style="fill:none;stroke:#000000;stroke-width:1.5;"/>
    <path clip-path="url(#p57c830acd8)" d="M 184.473418 44.404706 
L 184.473418 40.203529 
" style="fill:none;stroke:#000000;stroke-width:1.5;"/>
    <path clip-path="url(#p57c830acd8)" d="M 194.469869 44.404706 
L 194.469869 40.203529 
" style="fill:none;stroke:#000000;stroke-width:1.5;"/>
    <path clip-path="url(#p57c830acd8)" d="M 207.527406 44.404706 
L 207.527406 40.203529 
" style="fill:none;stroke:#000000;stroke-width:1.5;"/>
    <path clip-path="url(#p57c830acd8)" d="M 235.373416 44.404706 
L 235.373416 40.203529 
" style="fill:none;stroke:#000000;stroke-width:1.5;"/>
    <path clip-path="url(#p57c830acd8)" d="M 273.151983 44.404706 
L 273.151983 40.203529 
" style="fill:none;stroke:#000000;stroke-width:1.5;"/>
    <path clip-path="url(#p57c830acd8)" d="M 358.252503 44.404706 
L 358.252503 40.203529 
" style="fill:none;stroke:#000000;stroke-width:1.5;"/>
    <path clip-path="url(#p57c830acd8)" d="M 509.285452 44.404706 
L 509.285452 40.203529 
" style="fill:none;stroke:#000000;stroke-width:1.5;"/>
    <path clip-path="url(#p57c830acd8)" d="M 512.038687 44.404706 
L 512.038687 40.203529 
" style="fill:none;stroke:#000000;stroke-width:1.5;"/>
    <path clip-path="url(#p57c830acd8)" d="M 519.17154 44.404706 
L 519.17154 40.203529 
" style="fill:none;stroke:#000000;stroke-width:1.5;"/>
   </g>
   <g id="LineCollection_19">
    <path clip-path="url(#p57c830acd8)" d="M 34.718343 36.002353 
L 34.718343 31.801176 
" style="fill:none;stroke:#000000;stroke-width:1.5;"/>
    <path clip-path="url(#p57c830acd8)" d="M 38.639089 36.002353 
L 38.639089 31.801176 
" style="fill:none;stroke:#000000;stroke-width:1.5;"/>
    <path clip-path="url(#p57c830acd8)" d="M 57.168244 36.002353 
L 57.168244 31.801176 
" style="fill:none;stroke:#000000;stroke-width:1.5;"/>
    <path clip-path="url(#p57c830acd8)" d="M 78.682976 36.002353 
L 78.682976 31.801176 
" style="fill:none;stroke:#000000;stroke-width:1.5;"/>
    <path clip-path="url(#p57c830acd8)" d="M 119.435501 36.002353 
L 119.435501 31.801176 
" style="fill:none;stroke:#000000;stroke-width:1.5;"/>
    <path clip-path="url(#p57c830acd8)" d="M 145.277574 36.002353 
L 145.277574 31.801176 
" style="fill:none;stroke:#000000;stroke-width:1.5;"/>
    <path clip-path="url(#p57c830acd8)" d="M 150.981534 36.002353 
L 150.981534 31.801176 
" style="fill:none;stroke:#000000;stroke-width:1.5;"/>
    <path clip-path="url(#p57c830acd8)" d="M 175.2495 36.002353 
L 175.2495 31.801176 
" style="fill:none;stroke:#000000;stroke-width:1.5;"/>
    <path clip-path="url(#p57c830acd8)" d="M 183.729929 36.002353 
L 183.729929 31.801176 
" style="fill:none;stroke:#000000;stroke-width:1.5;"/>
    <path clip-path="url(#p57c830acd8)" d="M 249.069889 36.002353 
L 249.069889 31.801176 
" style="fill:none;stroke:#000000;stroke-width:1.5;"/>
    <path clip-path="url(#p57c830acd8)" d="M 281.893794 36.002353 
L 281.893794 31.801176 
" style="fill:none;stroke:#000000;stroke-width:1.5;"/>
    <path clip-path="url(#p57c830acd8)" d="M 306.074633 36.002353 
L 306.074633 31.801176 
" style="fill:none;stroke:#000000;stroke-width:1.5;"/>
    <path clip-path="url(#p57c830acd8)" d="M 317.279254 36.002353 
L 317.279254 31.801176 
" style="fill:none;stroke:#000000;stroke-width:1.5;"/>
    <path clip-path="url(#p57c830acd8)" d="M 318.255084 36.002353 
L 318.255084 31.801176 
" style="fill:none;stroke:#000000;stroke-width:1.5;"/>
    <path clip-path="url(#p57c830acd8)" d="M 327.078215 36.002353 
L 327.078215 31.801176 
" style="fill:none;stroke:#000000;stroke-width:1.5;"/>
    <path clip-path="url(#p57c830acd8)" d="M 332.863494 36.002353 
L 332.863494 31.801176 
" style="fill:none;stroke:#000000;stroke-width:1.5;"/>
    <path clip-path="url(#p57c830acd8)" d="M 341.419433 36.002353 
L 341.419433 31.801176 
" style="fill:none;stroke:#000000;stroke-width:1.5;"/>
    <path clip-path="url(#p57c830acd8)" d="M 347.936584 36.002353 
L 347.936584 31.801176 
" style="fill:none;stroke:#000000;stroke-width:1.5;"/>
    <path clip-path="url(#p57c830acd8)" d="M 351.067373 36.002353 
L 351.067373 31.801176 
" style="fill:none;stroke:#000000;stroke-width:1.5;"/>
    <path clip-path="url(#p57c830acd8)" d="M 354.82548 36.002353 
L 354.82548 31.801176 
" style="fill:none;stroke:#000000;stroke-width:1.5;"/>
    <path clip-path="url(#p57c830acd8)" d="M 358.69395 36.002353 
L 358.69395 31.801176 
" style="fill:none;stroke:#000000;stroke-width:1.5;"/>
    <path clip-path="url(#p57c830acd8)" d="M 360.128653 36.002353 
L 360.128653 31.801176 
" style="fill:none;stroke:#000000;stroke-width:1.5;"/>
    <path clip-path="url(#p57c830acd8)" d="M 383.008384 36.002353 
L 383.008384 31.801176 
" style="fill:none;stroke:#000000;stroke-width:1.5;"/>
    <path clip-path="url(#p57c830acd8)" d="M 390.966047 36.002353 
L 390.966047 31.801176 
" style="fill:none;stroke:#000000;stroke-width:1.5;"/>
    <path clip-path="url(#p57c830acd8)" d="M 392.522728 36.002353 
L 392.522728 31.801176 
" style="fill:none;stroke:#000000;stroke-width:1.5;"/>
    <path clip-path="url(#p57c830acd8)" d="M 408.246372 36.002353 
L 408.246372 31.801176 
" style="fill:none;stroke:#000000;stroke-width:1.5;"/>
    <path clip-path="url(#p57c830acd8)" d="M 436.144659 36.002353 
L 436.144659 31.801176 
" style="fill:none;stroke:#000000;stroke-width:1.5;"/>
    <path clip-path="url(#p57c830acd8)" d="M 457.554837 36.002353 
L 457.554837 31.801176 
" style="fill:none;stroke:#000000;stroke-width:1.5;"/>
    <path clip-path="url(#p57c830acd8)" d="M 478.889504 36.002353 
L 478.889504 31.801176 
" style="fill:none;stroke:#000000;stroke-width:1.5;"/>
    <path clip-path="url(#p57c830acd8)" d="M 516.058177 36.002353 
L 516.058177 31.801176 
" style="fill:none;stroke:#000000;stroke-width:1.5;"/>
    <path clip-path="url(#p57c830acd8)" d="M 528.627799 36.002353 
L 528.627799 31.801176 
" style="fill:none;stroke:#000000;stroke-width:1.5;"/>
    <path clip-path="url(#p57c830acd8)" d="M 541.894442 36.002353 
L 541.894442 31.801176 
" style="fill:none;stroke:#000000;stroke-width:1.5;"/>
    <path clip-path="url(#p57c830acd8)" d="M 548.208295 36.002353 
L 548.208295 31.801176 
" style="fill:none;stroke:#000000;stroke-width:1.5;"/>
    <path clip-path="url(#p57c830acd8)" d="M 549.613956 36.002353 
L 549.613956 31.801176 
" style="fill:none;stroke:#000000;stroke-width:1.5;"/>
   </g>
   <g id="patch_3">
    <path d="M 28.48 170.44 
L 28.48 27.6 
" style="fill:none;stroke:#000000;stroke-linecap:square;stroke-linejoin:miter;stroke-width:0.8;"/>
   </g>
   <g id="patch_4">
    <path d="M 561.701471 170.44 
L 561.701471 27.6 
" style="fill:none;stroke:#000000;stroke-linecap:square;stroke-linejoin:miter;stroke-width:0.8;"/>
   </g>
   <g id="patch_5">
    <path d="M 28.48 170.44 
L 561.701471 170.44 
" style="fill:none;stroke:#000000;stroke-linecap:square;stroke-linejoin:miter;stroke-width:0.8;"/>
   </g>
   <g id="patch_6">
    <path d="M 28.48 27.6 
L 561.701471 27.6 
" style="fill:none;stroke:#000000;stroke-linecap:square;stroke-linejoin:miter;stroke-width:0.8;"/>
   </g>
   <g id="text_10">
    <!-- Hippocampus raster -->
    <defs>
     <path d="M 9.8125 72.90625 
L 19.671875 72.90625 
L 19.671875 43.015625 
L 55.515625 43.015625 
L 55.515625 72.90625 
L 65.375 72.90625 
L 65.375 0 
L 55.515625 0 
L 55.515625 34.71875 
L 19.671875 34.71875 
L 19.671875 0 
L 9.8125 0 
z
" id="DejaVuSans-72"/>
     <path d="M 18.109375 8.203125 
L 18.109375 -20.796875 
L 9.078125 -20.796875 
L 9.078125 54.6875 
L 18.109375 54.6875 
L 18.109375 46.390625 
Q 20.953125 51.265625 25.265625 53.625 
Q 29.59375 56 35.59375 56 
Q 45.5625 56 51.78125 48.09375 
Q 58.015625 40.1875 58.015625 27.296875 
Q 58.015625 14.40625 51.78125 6.484375 
Q 45.5625 -1.421875 35.59375 -1.421875 
Q 29.59375 -1.421875 25.265625 0.953125 
Q 20.953125 3.328125 18.109375 8.203125 
z
M 48.6875 27.296875 
Q 48.6875 37.203125 44.609375 42.84375 
Q 40.53125 48.484375 33.40625 48.484375 
Q 26.265625 48.484375 22.1875 42.84375 
Q 18.109375 37.203125 18.109375 27.296875 
Q 18.109375 17.390625 22.1875 11.75 
Q 26.265625 6.109375 33.40625 6.109375 
Q 40.53125 6.109375 44.609375 11.75 
Q 48.6875 17.390625 48.6875 27.296875 
z
" id="DejaVuSans-112"/>
     <path d="M 30.609375 48.390625 
Q 23.390625 48.390625 19.1875 42.75 
Q 14.984375 37.109375 14.984375 27.296875 
Q 14.984375 17.484375 19.15625 11.84375 
Q 23.34375 6.203125 30.609375 6.203125 
Q 37.796875 6.203125 41.984375 11.859375 
Q 46.1875 17.53125 46.1875 27.296875 
Q 46.1875 37.015625 41.984375 42.703125 
Q 37.796875 48.390625 30.609375 48.390625 
z
M 30.609375 56 
Q 42.328125 56 49.015625 48.375 
Q 55.71875 40.765625 55.71875 27.296875 
Q 55.71875 13.875 49.015625 6.21875 
Q 42.328125 -1.421875 30.609375 -1.421875 
Q 18.84375 -1.421875 12.171875 6.21875 
Q 5.515625 13.875 5.515625 27.296875 
Q 5.515625 40.765625 12.171875 48.375 
Q 18.84375 56 30.609375 56 
z
" id="DejaVuSans-111"/>
     <path d="M 48.78125 52.59375 
L 48.78125 44.1875 
Q 44.96875 46.296875 41.140625 47.34375 
Q 37.3125 48.390625 33.40625 48.390625 
Q 24.65625 48.390625 19.8125 42.84375 
Q 14.984375 37.3125 14.984375 27.296875 
Q 14.984375 17.28125 19.8125 11.734375 
Q 24.65625 6.203125 33.40625 6.203125 
Q 37.3125 6.203125 41.140625 7.25 
Q 44.96875 8.296875 48.78125 10.40625 
L 48.78125 2.09375 
Q 45.015625 0.34375 40.984375 -0.53125 
Q 36.96875 -1.421875 32.421875 -1.421875 
Q 20.0625 -1.421875 12.78125 6.34375 
Q 5.515625 14.109375 5.515625 27.296875 
Q 5.515625 40.671875 12.859375 48.328125 
Q 20.21875 56 33.015625 56 
Q 37.15625 56 41.109375 55.140625 
Q 45.0625 54.296875 48.78125 52.59375 
z
" id="DejaVuSans-99"/>
     <path d="M 34.28125 27.484375 
Q 23.390625 27.484375 19.1875 25 
Q 14.984375 22.515625 14.984375 16.5 
Q 14.984375 11.71875 18.140625 8.90625 
Q 21.296875 6.109375 26.703125 6.109375 
Q 34.1875 6.109375 38.703125 11.40625 
Q 43.21875 16.703125 43.21875 25.484375 
L 43.21875 27.484375 
z
M 52.203125 31.203125 
L 52.203125 0 
L 43.21875 0 
L 43.21875 8.296875 
Q 40.140625 3.328125 35.546875 0.953125 
Q 30.953125 -1.421875 24.3125 -1.421875 
Q 15.921875 -1.421875 10.953125 3.296875 
Q 6 8.015625 6 15.921875 
Q 6 25.140625 12.171875 29.828125 
Q 18.359375 34.515625 30.609375 34.515625 
L 43.21875 34.515625 
L 43.21875 35.40625 
Q 43.21875 41.609375 39.140625 45 
Q 35.0625 48.390625 27.6875 48.390625 
Q 23 48.390625 18.546875 47.265625 
Q 14.109375 46.140625 10.015625 43.890625 
L 10.015625 52.203125 
Q 14.9375 54.109375 19.578125 55.046875 
Q 24.21875 56 28.609375 56 
Q 40.484375 56 46.34375 49.84375 
Q 52.203125 43.703125 52.203125 31.203125 
z
" id="DejaVuSans-97"/>
     <path d="M 8.5 21.578125 
L 8.5 54.6875 
L 17.484375 54.6875 
L 17.484375 21.921875 
Q 17.484375 14.15625 20.5 10.265625 
Q 23.53125 6.390625 29.59375 6.390625 
Q 36.859375 6.390625 41.078125 11.03125 
Q 45.3125 15.671875 45.3125 23.6875 
L 45.3125 54.6875 
L 54.296875 54.6875 
L 54.296875 0 
L 45.3125 0 
L 45.3125 8.40625 
Q 42.046875 3.421875 37.71875 1 
Q 33.40625 -1.421875 27.6875 -1.421875 
Q 18.265625 -1.421875 13.375 4.4375 
Q 8.5 10.296875 8.5 21.578125 
z
M 31.109375 56 
z
" id="DejaVuSans-117"/>
     <path d="M 41.109375 46.296875 
Q 39.59375 47.171875 37.8125 47.578125 
Q 36.03125 48 33.890625 48 
Q 26.265625 48 22.1875 43.046875 
Q 18.109375 38.09375 18.109375 28.8125 
L 18.109375 0 
L 9.078125 0 
L 9.078125 54.6875 
L 18.109375 54.6875 
L 18.109375 46.1875 
Q 20.953125 51.171875 25.484375 53.578125 
Q 30.03125 56 36.53125 56 
Q 37.453125 56 38.578125 55.875 
Q 39.703125 55.765625 41.0625 55.515625 
z
" id="DejaVuSans-114"/>
     <path d="M 18.3125 70.21875 
L 18.3125 54.6875 
L 36.8125 54.6875 
L 36.8125 47.703125 
L 18.3125 47.703125 
L 18.3125 18.015625 
Q 18.3125 11.328125 20.140625 9.421875 
Q 21.96875 7.515625 27.59375 7.515625 
L 36.8125 7.515625 
L 36.8125 0 
L 27.59375 0 
Q 17.1875 0 13.234375 3.875 
Q 9.28125 7.765625 9.28125 18.015625 
L 9.28125 47.703125 
L 2.6875 47.703125 
L 2.6875 54.6875 
L 9.28125 54.6875 
L 9.28125 70.21875 
z
" id="DejaVuSans-116"/>
    </defs>
    <g transform="translate(222.235735 21.6)scale(0.144 -0.144)">
     <use xlink:href="#DejaVuSans-72"/>
     <use x="75.195312" xlink:href="#DejaVuSans-105"/>
     <use x="102.978516" xlink:href="#DejaVuSans-112"/>
     <use x="166.455078" xlink:href="#DejaVuSans-112"/>
     <use x="229.931641" xlink:href="#DejaVuSans-111"/>
     <use x="291.113281" xlink:href="#DejaVuSans-99"/>
     <use x="346.09375" xlink:href="#DejaVuSans-97"/>
     <use x="407.373047" xlink:href="#DejaVuSans-109"/>
     <use x="504.785156" xlink:href="#DejaVuSans-112"/>
     <use x="568.261719" xlink:href="#DejaVuSans-117"/>
     <use x="631.640625" xlink:href="#DejaVuSans-115"/>
     <use x="683.740234" xlink:href="#DejaVuSans-32"/>
     <use x="715.527344" xlink:href="#DejaVuSans-114"/>
     <use x="756.640625" xlink:href="#DejaVuSans-97"/>
     <use x="817.919922" xlink:href="#DejaVuSans-115"/>
     <use x="870.019531" xlink:href="#DejaVuSans-116"/>
     <use x="909.228516" xlink:href="#DejaVuSans-101"/>
     <use x="970.751953" xlink:href="#DejaVuSans-114"/>
    </g>
   </g>
  </g>
 </g>
 <defs>
  <clipPath id="p57c830acd8">
   <rect height="142.84" width="533.221471" x="28.48" y="27.6"/>
  </clipPath>
 </defs>
</svg>
