<?xml version="1.0" encoding="utf-8" standalone="no"?>
<!DOCTYPE svg PUBLIC "-//W3C//DTD SVG 1.1//EN"
  "http://www.w3.org/Graphics/SVG/1.1/DTD/svg11.dtd">
<!-- Created with matplotlib (https://matplotlib.org/) -->
<svg height="216pt" version="1.1" viewBox="0 0 576 216" width="576pt" xmlns="http://www.w3.org/2000/svg" xmlns:xlink="http://www.w3.org/1999/xlink">
 <defs>
  <style type="text/css">
*{stroke-linecap:butt;stroke-linejoin:round;}
  </style>
 </defs>
 <g id="figure_1">
  <g id="patch_1">
   <path d="M 0 216 
L 576 216 
L 576 0 
L 0 0 
z
" style="fill:#ffffff;"/>
  </g>
  <g id="axes_1">
   <g id="patch_2">
    <path d="M 28.48 167.56 
L 560.081471 167.56 
L 560.081471 27.6 
L 28.48 27.6 
z
" style="fill:#ffffff;"/>
   </g>
   <g id="PolyCollection_1">
    <defs>
     <path d="M 120.554765 -48.44 
L 120.554765 -188.4 
L 381.143721 -188.4 
L 381.143721 -48.44 
L 381.143721 -48.44 
L 120.554765 -48.44 
z
" id="m52476e1ee0" style="stroke:#808080;stroke-opacity:0.3;"/>
    </defs>
    <g clip-path="url(#pfa40a90e97)">
     <use style="fill:#808080;fill-opacity:0.3;stroke:#808080;stroke-opacity:0.3;" x="0" xlink:href="#m52476e1ee0" y="216"/>
    </g>
   </g>
   <g id="matplotlib.axis_1">
    <g id="xtick_1">
     <g id="line2d_1">
      <defs>
       <path d="M 0 0 
L 0 3.5 
" id="m41a6a576a9" style="stroke:#000000;stroke-width:0.8;"/>
      </defs>
      <g>
       <use style="stroke:#000000;stroke-width:0.8;" x="33.691779" xlink:href="#m41a6a576a9" y="167.56"/>
      </g>
     </g>
     <g id="text_1">
      <!-- −0.5 -->
      <defs>
       <path d="M 10.59375 35.5 
L 73.1875 35.5 
L 73.1875 27.203125 
L 10.59375 27.203125 
z
" id="DejaVuSans-8722"/>
       <path d="M 31.78125 66.40625 
Q 24.171875 66.40625 20.328125 58.90625 
Q 16.5 51.421875 16.5 36.375 
Q 16.5 21.390625 20.328125 13.890625 
Q 24.171875 6.390625 31.78125 6.390625 
Q 39.453125 6.390625 43.28125 13.890625 
Q 47.125 21.390625 47.125 36.375 
Q 47.125 51.421875 43.28125 58.90625 
Q 39.453125 66.40625 31.78125 66.40625 
z
M 31.78125 74.21875 
Q 44.046875 74.21875 50.515625 64.515625 
Q 56.984375 54.828125 56.984375 36.375 
Q 56.984375 17.96875 50.515625 8.265625 
Q 44.046875 -1.421875 31.78125 -1.421875 
Q 19.53125 -1.421875 13.0625 8.265625 
Q 6.59375 17.96875 6.59375 36.375 
Q 6.59375 54.828125 13.0625 64.515625 
Q 19.53125 74.21875 31.78125 74.21875 
z
" id="DejaVuSans-48"/>
       <path d="M 10.6875 12.40625 
L 21 12.40625 
L 21 0 
L 10.6875 0 
z
" id="DejaVuSans-46"/>
       <path d="M 10.796875 72.90625 
L 49.515625 72.90625 
L 49.515625 64.59375 
L 19.828125 64.59375 
L 19.828125 46.734375 
Q 21.96875 47.46875 24.109375 47.828125 
Q 26.265625 48.1875 28.421875 48.1875 
Q 40.625 48.1875 47.75 41.5 
Q 54.890625 34.8125 54.890625 23.390625 
Q 54.890625 11.625 47.5625 5.09375 
Q 40.234375 -1.421875 26.90625 -1.421875 
Q 22.3125 -1.421875 17.546875 -0.640625 
Q 12.796875 0.140625 7.71875 1.703125 
L 7.71875 11.625 
Q 12.109375 9.234375 16.796875 8.0625 
Q 21.484375 6.890625 26.703125 6.890625 
Q 35.15625 6.890625 40.078125 11.328125 
Q 45.015625 15.765625 45.015625 23.390625 
Q 45.015625 31 40.078125 35.4375 
Q 35.15625 39.890625 26.703125 39.890625 
Q 22.75 39.890625 18.8125 39.015625 
Q 14.890625 38.140625 10.796875 36.28125 
z
" id="DejaVuSans-53"/>
      </defs>
      <g transform="translate(19.122092 183.678125)scale(0.12 -0.12)">
       <use xlink:href="#DejaVuSans-8722"/>
       <use x="83.789062" xlink:href="#DejaVuSans-48"/>
       <use x="147.412109" xlink:href="#DejaVuSans-46"/>
       <use x="179.199219" xlink:href="#DejaVuSans-53"/>
      </g>
     </g>
    </g>
    <g id="xtick_2">
     <g id="line2d_2">
      <g>
       <use style="stroke:#000000;stroke-width:0.8;" x="120.554765" xlink:href="#m41a6a576a9" y="167.56"/>
      </g>
     </g>
     <g id="text_2">
      <!-- 0.0 -->
      <g transform="translate(111.01289 183.678125)scale(0.12 -0.12)">
       <use xlink:href="#DejaVuSans-48"/>
       <use x="63.623047" xlink:href="#DejaVuSans-46"/>
       <use x="95.410156" xlink:href="#DejaVuSans-48"/>
      </g>
     </g>
    </g>
    <g id="xtick_3">
     <g id="line2d_3">
      <g>
       <use style="stroke:#000000;stroke-width:0.8;" x="207.41775" xlink:href="#m41a6a576a9" y="167.56"/>
      </g>
     </g>
     <g id="text_3">
      <!-- 0.5 -->
      <g transform="translate(197.875875 183.678125)scale(0.12 -0.12)">
       <use xlink:href="#DejaVuSans-48"/>
       <use x="63.623047" xlink:href="#DejaVuSans-46"/>
       <use x="95.410156" xlink:href="#DejaVuSans-53"/>
      </g>
     </g>
    </g>
    <g id="xtick_4">
     <g id="line2d_4">
      <g>
       <use style="stroke:#000000;stroke-width:0.8;" x="294.280735" xlink:href="#m41a6a576a9" y="167.56"/>
      </g>
     </g>
     <g id="text_4">
      <!-- 1.0 -->
      <defs>
       <path d="M 12.40625 8.296875 
L 28.515625 8.296875 
L 28.515625 63.921875 
L 10.984375 60.40625 
L 10.984375 69.390625 
L 28.421875 72.90625 
L 38.28125 72.90625 
L 38.28125 8.296875 
L 54.390625 8.296875 
L 54.390625 0 
L 12.40625 0 
z
" id="DejaVuSans-49"/>
      </defs>
      <g transform="translate(284.73886 183.678125)scale(0.12 -0.12)">
       <use xlink:href="#DejaVuSans-49"/>
       <use x="63.623047" xlink:href="#DejaVuSans-46"/>
       <use x="95.410156" xlink:href="#DejaVuSans-48"/>
      </g>
     </g>
    </g>
    <g id="xtick_5">
     <g id="line2d_5">
      <g>
       <use style="stroke:#000000;stroke-width:0.8;" x="381.143721" xlink:href="#m41a6a576a9" y="167.56"/>
      </g>
     </g>
     <g id="text_5">
      <!-- 1.5 -->
      <g transform="translate(371.601846 183.678125)scale(0.12 -0.12)">
       <use xlink:href="#DejaVuSans-49"/>
       <use x="63.623047" xlink:href="#DejaVuSans-46"/>
       <use x="95.410156" xlink:href="#DejaVuSans-53"/>
      </g>
     </g>
    </g>
    <g id="xtick_6">
     <g id="line2d_6">
      <g>
       <use style="stroke:#000000;stroke-width:0.8;" x="468.006706" xlink:href="#m41a6a576a9" y="167.56"/>
      </g>
     </g>
     <g id="text_6">
      <!-- 2.0 -->
      <defs>
       <path d="M 19.1875 8.296875 
L 53.609375 8.296875 
L 53.609375 0 
L 7.328125 0 
L 7.328125 8.296875 
Q 12.9375 14.109375 22.625 23.890625 
Q 32.328125 33.6875 34.8125 36.53125 
Q 39.546875 41.84375 41.421875 45.53125 
Q 43.3125 49.21875 43.3125 52.78125 
Q 43.3125 58.59375 39.234375 62.25 
Q 35.15625 65.921875 28.609375 65.921875 
Q 23.96875 65.921875 18.8125 64.3125 
Q 13.671875 62.703125 7.8125 59.421875 
L 7.8125 69.390625 
Q 13.765625 71.78125 18.9375 73 
Q 24.125 74.21875 28.421875 74.21875 
Q 39.75 74.21875 46.484375 68.546875 
Q 53.21875 62.890625 53.21875 53.421875 
Q 53.21875 48.921875 51.53125 44.890625 
Q 49.859375 40.875 45.40625 35.40625 
Q 44.1875 33.984375 37.640625 27.21875 
Q 31.109375 20.453125 19.1875 8.296875 
z
" id="DejaVuSans-50"/>
      </defs>
      <g transform="translate(458.464831 183.678125)scale(0.12 -0.12)">
       <use xlink:href="#DejaVuSans-50"/>
       <use x="63.623047" xlink:href="#DejaVuSans-46"/>
       <use x="95.410156" xlink:href="#DejaVuSans-48"/>
      </g>
     </g>
    </g>
    <g id="xtick_7">
     <g id="line2d_7">
      <g>
       <use style="stroke:#000000;stroke-width:0.8;" x="554.869691" xlink:href="#m41a6a576a9" y="167.56"/>
      </g>
     </g>
     <g id="text_7">
      <!-- 2.5 -->
      <g transform="translate(545.327816 183.678125)scale(0.12 -0.12)">
       <use xlink:href="#DejaVuSans-50"/>
       <use x="63.623047" xlink:href="#DejaVuSans-46"/>
       <use x="95.410156" xlink:href="#DejaVuSans-53"/>
      </g>
     </g>
    </g>
    <g id="text_8">
     <!-- Time (s) -->
     <defs>
      <path d="M -0.296875 72.90625 
L 61.375 72.90625 
L 61.375 64.59375 
L 35.5 64.59375 
L 35.5 0 
L 25.59375 0 
L 25.59375 64.59375 
L -0.296875 64.59375 
z
" id="DejaVuSans-84"/>
      <path d="M 9.421875 54.6875 
L 18.40625 54.6875 
L 18.40625 0 
L 9.421875 0 
z
M 9.421875 75.984375 
L 18.40625 75.984375 
L 18.40625 64.59375 
L 9.421875 64.59375 
z
" id="DejaVuSans-105"/>
      <path d="M 52 44.1875 
Q 55.375 50.25 60.0625 53.125 
Q 64.75 56 71.09375 56 
Q 79.640625 56 84.28125 50.015625 
Q 88.921875 44.046875 88.921875 33.015625 
L 88.921875 0 
L 79.890625 0 
L 79.890625 32.71875 
Q 79.890625 40.578125 77.09375 44.375 
Q 74.3125 48.1875 68.609375 48.1875 
Q 61.625 48.1875 57.5625 43.546875 
Q 53.515625 38.921875 53.515625 30.90625 
L 53.515625 0 
L 44.484375 0 
L 44.484375 32.71875 
Q 44.484375 40.625 41.703125 44.40625 
Q 38.921875 48.1875 33.109375 48.1875 
Q 26.21875 48.1875 22.15625 43.53125 
Q 18.109375 38.875 18.109375 30.90625 
L 18.109375 0 
L 9.078125 0 
L 9.078125 54.6875 
L 18.109375 54.6875 
L 18.109375 46.1875 
Q 21.1875 51.21875 25.484375 53.609375 
Q 29.78125 56 35.6875 56 
Q 41.65625 56 45.828125 52.96875 
Q 50 49.953125 52 44.1875 
z
" id="DejaVuSans-109"/>
      <path d="M 56.203125 29.59375 
L 56.203125 25.203125 
L 14.890625 25.203125 
Q 15.484375 15.921875 20.484375 11.0625 
Q 25.484375 6.203125 34.421875 6.203125 
Q 39.59375 6.203125 44.453125 7.46875 
Q 49.3125 8.734375 54.109375 11.28125 
L 54.109375 2.78125 
Q 49.265625 0.734375 44.1875 -0.34375 
Q 39.109375 -1.421875 33.890625 -1.421875 
Q 20.796875 -1.421875 13.15625 6.1875 
Q 5.515625 13.8125 5.515625 26.8125 
Q 5.515625 40.234375 12.765625 48.109375 
Q 20.015625 56 32.328125 56 
Q 43.359375 56 49.78125 48.890625 
Q 56.203125 41.796875 56.203125 29.59375 
z
M 47.21875 32.234375 
Q 47.125 39.59375 43.09375 43.984375 
Q 39.0625 48.390625 32.421875 48.390625 
Q 24.90625 48.390625 20.390625 44.140625 
Q 15.875 39.890625 15.1875 32.171875 
z
" id="DejaVuSans-101"/>
      <path id="DejaVuSans-32"/>
      <path d="M 31 75.875 
Q 24.46875 64.65625 21.28125 53.65625 
Q 18.109375 42.671875 18.109375 31.390625 
Q 18.109375 20.125 21.3125 9.0625 
Q 24.515625 -2 31 -13.1875 
L 23.1875 -13.1875 
Q 15.875 -1.703125 12.234375 9.375 
Q 8.59375 20.453125 8.59375 31.390625 
Q 8.59375 42.28125 12.203125 53.3125 
Q 15.828125 64.359375 23.1875 75.875 
z
" id="DejaVuSans-40"/>
      <path d="M 44.28125 53.078125 
L 44.28125 44.578125 
Q 40.484375 46.53125 36.375 47.5 
Q 32.28125 48.484375 27.875 48.484375 
Q 21.1875 48.484375 17.84375 46.4375 
Q 14.5 44.390625 14.5 40.28125 
Q 14.5 37.15625 16.890625 35.375 
Q 19.28125 33.59375 26.515625 31.984375 
L 29.59375 31.296875 
Q 39.15625 29.25 43.1875 25.515625 
Q 47.21875 21.78125 47.21875 15.09375 
Q 47.21875 7.46875 41.1875 3.015625 
Q 35.15625 -1.421875 24.609375 -1.421875 
Q 20.21875 -1.421875 15.453125 -0.5625 
Q 10.6875 0.296875 5.421875 2 
L 5.421875 11.28125 
Q 10.40625 8.6875 15.234375 7.390625 
Q 20.0625 6.109375 24.8125 6.109375 
Q 31.15625 6.109375 34.5625 8.28125 
Q 37.984375 10.453125 37.984375 14.40625 
Q 37.984375 18.0625 35.515625 20.015625 
Q 33.0625 21.96875 24.703125 23.78125 
L 21.578125 24.515625 
Q 13.234375 26.265625 9.515625 29.90625 
Q 5.8125 33.546875 5.8125 39.890625 
Q 5.8125 47.609375 11.28125 51.796875 
Q 16.75 56 26.8125 56 
Q 31.78125 56 36.171875 55.265625 
Q 40.578125 54.546875 44.28125 53.078125 
z
" id="DejaVuSans-115"/>
      <path d="M 8.015625 75.875 
L 15.828125 75.875 
Q 23.140625 64.359375 26.78125 53.3125 
Q 30.421875 42.28125 30.421875 31.390625 
Q 30.421875 20.453125 26.78125 9.375 
Q 23.140625 -1.703125 15.828125 -13.1875 
L 8.015625 -13.1875 
Q 14.5 -2 17.703125 9.0625 
Q 20.90625 20.125 20.90625 31.390625 
Q 20.90625 42.671875 17.703125 53.65625 
Q 14.5 64.65625 8.015625 75.875 
z
" id="DejaVuSans-41"/>
     </defs>
     <g transform="translate(264.785485 201.1155)scale(0.144 -0.144)">
      <use xlink:href="#DejaVuSans-84"/>
      <use x="61.037109" xlink:href="#DejaVuSans-105"/>
      <use x="88.820312" xlink:href="#DejaVuSans-109"/>
      <use x="186.232422" xlink:href="#DejaVuSans-101"/>
      <use x="247.755859" xlink:href="#DejaVuSans-32"/>
      <use x="279.542969" xlink:href="#DejaVuSans-40"/>
      <use x="318.556641" xlink:href="#DejaVuSans-115"/>
      <use x="370.65625" xlink:href="#DejaVuSans-41"/>
     </g>
    </g>
   </g>
   <g id="matplotlib.axis_2">
    <g id="text_9">
     <!-- Cells -->
     <defs>
      <path d="M 64.40625 67.28125 
L 64.40625 56.890625 
Q 59.421875 61.53125 53.78125 63.8125 
Q 48.140625 66.109375 41.796875 66.109375 
Q 29.296875 66.109375 22.65625 58.46875 
Q 16.015625 50.828125 16.015625 36.375 
Q 16.015625 21.96875 22.65625 14.328125 
Q 29.296875 6.6875 41.796875 6.6875 
Q 48.140625 6.6875 53.78125 8.984375 
Q 59.421875 11.28125 64.40625 15.921875 
L 64.40625 5.609375 
Q 59.234375 2.09375 53.4375 0.328125 
Q 47.65625 -1.421875 41.21875 -1.421875 
Q 24.65625 -1.421875 15.125 8.703125 
Q 5.609375 18.84375 5.609375 36.375 
Q 5.609375 53.953125 15.125 64.078125 
Q 24.65625 74.21875 41.21875 74.21875 
Q 47.75 74.21875 53.53125 72.484375 
Q 59.328125 70.75 64.40625 67.28125 
z
" id="DejaVuSans-67"/>
      <path d="M 9.421875 75.984375 
L 18.40625 75.984375 
L 18.40625 0 
L 9.421875 0 
z
" id="DejaVuSans-108"/>
     </defs>
     <g transform="translate(21.48525 114.789125)rotate(-90)scale(0.144 -0.144)">
      <use xlink:href="#DejaVuSans-67"/>
      <use x="69.824219" xlink:href="#DejaVuSans-101"/>
      <use x="131.347656" xlink:href="#DejaVuSans-108"/>
      <use x="159.130859" xlink:href="#DejaVuSans-108"/>
      <use x="186.914062" xlink:href="#DejaVuSans-115"/>
     </g>
    </g>
   </g>
   <g id="LineCollection_1">
    <path clip-path="url(#pfa40a90e97)" d="M 43.408852 167.56 
L 43.408852 163.443529 
" style="fill:none;stroke:#000000;stroke-width:1.5;"/>
    <path clip-path="url(#pfa40a90e97)" d="M 120.068332 167.56 
L 120.068332 163.443529 
" style="fill:none;stroke:#000000;stroke-width:1.5;"/>
    <path clip-path="url(#pfa40a90e97)" d="M 122.153043 167.56 
L 122.153043 163.443529 
" style="fill:none;stroke:#000000;stroke-width:1.5;"/>
    <path clip-path="url(#pfa40a90e97)" d="M 172.933145 167.56 
L 172.933145 163.443529 
" style="fill:none;stroke:#000000;stroke-width:1.5;"/>
    <path clip-path="url(#pfa40a90e97)" d="M 239.487564 167.56 
L 239.487564 163.443529 
" style="fill:none;stroke:#000000;stroke-width:1.5;"/>
    <path clip-path="url(#pfa40a90e97)" d="M 240.518338 167.56 
L 240.518338 163.443529 
" style="fill:none;stroke:#000000;stroke-width:1.5;"/>
    <path clip-path="url(#pfa40a90e97)" d="M 241.566485 167.56 
L 241.566485 163.443529 
" style="fill:none;stroke:#000000;stroke-width:1.5;"/>
    <path clip-path="url(#pfa40a90e97)" d="M 242.180317 167.56 
L 242.180317 163.443529 
" style="fill:none;stroke:#000000;stroke-width:1.5;"/>
    <path clip-path="url(#pfa40a90e97)" d="M 242.759403 167.56 
L 242.759403 163.443529 
" style="fill:none;stroke:#000000;stroke-width:1.5;"/>
    <path clip-path="url(#pfa40a90e97)" d="M 243.80755 167.56 
L 243.80755 163.443529 
" style="fill:none;stroke:#000000;stroke-width:1.5;"/>
    <path clip-path="url(#pfa40a90e97)" d="M 244.653016 167.56 
L 244.653016 163.443529 
" style="fill:none;stroke:#000000;stroke-width:1.5;"/>
    <path clip-path="url(#pfa40a90e97)" d="M 248.417079 167.56 
L 248.417079 163.443529 
" style="fill:none;stroke:#000000;stroke-width:1.5;"/>
    <path clip-path="url(#pfa40a90e97)" d="M 249.210428 167.56 
L 249.210428 163.443529 
" style="fill:none;stroke:#000000;stroke-width:1.5;"/>
    <path clip-path="url(#pfa40a90e97)" d="M 250.513372 167.56 
L 250.513372 163.443529 
" style="fill:none;stroke:#000000;stroke-width:1.5;"/>
    <path clip-path="url(#pfa40a90e97)" d="M 447.269616 167.56 
L 447.269616 163.443529 
" style="fill:none;stroke:#000000;stroke-width:1.5;"/>
    <path clip-path="url(#pfa40a90e97)" d="M 451.670674 167.56 
L 451.670674 163.443529 
" style="fill:none;stroke:#000000;stroke-width:1.5;"/>
   </g>
   <g id="LineCollection_2">
    <path clip-path="url(#pfa40a90e97)" d="M 68.946569 163.443529 
L 68.946569 159.327059 
" style="fill:none;stroke:#000000;stroke-width:1.5;"/>
    <path clip-path="url(#pfa40a90e97)" d="M 123.392289 163.443529 
L 123.392289 159.327059 
" style="fill:none;stroke:#000000;stroke-width:1.5;"/>
    <path clip-path="url(#pfa40a90e97)" d="M 187.230792 163.443529 
L 187.230792 159.327059 
" style="fill:none;stroke:#000000;stroke-width:1.5;"/>
    <path clip-path="url(#pfa40a90e97)" d="M 231.496169 163.443529 
L 231.496169 159.327059 
" style="fill:none;stroke:#000000;stroke-width:1.5;"/>
    <path clip-path="url(#pfa40a90e97)" d="M 296.98507 163.443529 
L 296.98507 159.327059 
" style="fill:none;stroke:#000000;stroke-width:1.5;"/>
    <path clip-path="url(#pfa40a90e97)" d="M 322.215871 163.443529 
L 322.215871 159.327059 
" style="fill:none;stroke:#000000;stroke-width:1.5;"/>
    <path clip-path="url(#pfa40a90e97)" d="M 342.136449 163.443529 
L 342.136449 159.327059 
" style="fill:none;stroke:#000000;stroke-width:1.5;"/>
    <path clip-path="url(#pfa40a90e97)" d="M 344.302233 163.443529 
L 344.302233 159.327059 
" style="fill:none;stroke:#000000;stroke-width:1.5;"/>
    <path clip-path="url(#pfa40a90e97)" d="M 434.269123 163.443529 
L 434.269123 159.327059 
" style="fill:none;stroke:#000000;stroke-width:1.5;"/>
    <path clip-path="url(#pfa40a90e97)" d="M 440.934409 163.443529 
L 440.934409 159.327059 
" style="fill:none;stroke:#000000;stroke-width:1.5;"/>
    <path clip-path="url(#pfa40a90e97)" d="M 478.795089 163.443529 
L 478.795089 159.327059 
" style="fill:none;stroke:#000000;stroke-width:1.5;"/>
    <path clip-path="url(#pfa40a90e97)" d="M 488.222618 163.443529 
L 488.222618 159.327059 
" style="fill:none;stroke:#000000;stroke-width:1.5;"/>
    <path clip-path="url(#pfa40a90e97)" d="M 491.065933 163.443529 
L 491.065933 159.327059 
" style="fill:none;stroke:#000000;stroke-width:1.5;"/>
    <path clip-path="url(#pfa40a90e97)" d="M 533.287135 163.443529 
L 533.287135 159.327059 
" style="fill:none;stroke:#000000;stroke-width:1.5;"/>
    <path clip-path="url(#pfa40a90e97)" d="M 535.875652 163.443529 
L 535.875652 159.327059 
" style="fill:none;stroke:#000000;stroke-width:1.5;"/>
    <path clip-path="url(#pfa40a90e97)" d="M 557.394509 163.443529 
L 557.394509 159.327059 
" style="fill:none;stroke:#000000;stroke-width:1.5;"/>
   </g>
   <g id="LineCollection_3">
    <path clip-path="url(#pfa40a90e97)" d="M 42.789229 155.210588 
L 42.789229 151.094118 
" style="fill:none;stroke:#000000;stroke-width:1.5;"/>
    <path clip-path="url(#pfa40a90e97)" d="M 46.373775 155.210588 
L 46.373775 151.094118 
" style="fill:none;stroke:#000000;stroke-width:1.5;"/>
    <path clip-path="url(#pfa40a90e97)" d="M 66.87344 155.210588 
L 66.87344 151.094118 
" style="fill:none;stroke:#000000;stroke-width:1.5;"/>
    <path clip-path="url(#pfa40a90e97)" d="M 79.016885 155.210588 
L 79.016885 151.094118 
" style="fill:none;stroke:#000000;stroke-width:1.5;"/>
    <path clip-path="url(#pfa40a90e97)" d="M 96.928032 155.210588 
L 96.928032 151.094118 
" style="fill:none;stroke:#000000;stroke-width:1.5;"/>
    <path clip-path="url(#pfa40a90e97)" d="M 100.582069 155.210588 
L 100.582069 151.094118 
" style="fill:none;stroke:#000000;stroke-width:1.5;"/>
    <path clip-path="url(#pfa40a90e97)" d="M 103.848117 155.210588 
L 103.848117 151.094118 
" style="fill:none;stroke:#000000;stroke-width:1.5;"/>
    <path clip-path="url(#pfa40a90e97)" d="M 141.546653 155.210588 
L 141.546653 151.094118 
" style="fill:none;stroke:#000000;stroke-width:1.5;"/>
    <path clip-path="url(#pfa40a90e97)" d="M 149.873918 155.210588 
L 149.873918 151.094118 
" style="fill:none;stroke:#000000;stroke-width:1.5;"/>
    <path clip-path="url(#pfa40a90e97)" d="M 152.977822 155.210588 
L 152.977822 151.094118 
" style="fill:none;stroke:#000000;stroke-width:1.5;"/>
    <path clip-path="url(#pfa40a90e97)" d="M 153.794334 155.210588 
L 153.794334 151.094118 
" style="fill:none;stroke:#000000;stroke-width:1.5;"/>
    <path clip-path="url(#pfa40a90e97)" d="M 155.954326 155.210588 
L 155.954326 151.094118 
" style="fill:none;stroke:#000000;stroke-width:1.5;"/>
    <path clip-path="url(#pfa40a90e97)" d="M 162.092644 155.210588 
L 162.092644 151.094118 
" style="fill:none;stroke:#000000;stroke-width:1.5;"/>
    <path clip-path="url(#pfa40a90e97)" d="M 166.267858 155.210588 
L 166.267858 151.094118 
" style="fill:none;stroke:#000000;stroke-width:1.5;"/>
    <path clip-path="url(#pfa40a90e97)" d="M 170.043503 155.210588 
L 170.043503 151.094118 
" style="fill:none;stroke:#000000;stroke-width:1.5;"/>
    <path clip-path="url(#pfa40a90e97)" d="M 178.903527 155.210588 
L 178.903527 151.094118 
" style="fill:none;stroke:#000000;stroke-width:1.5;"/>
    <path clip-path="url(#pfa40a90e97)" d="M 188.105213 155.210588 
L 188.105213 151.094118 
" style="fill:none;stroke:#000000;stroke-width:1.5;"/>
    <path clip-path="url(#pfa40a90e97)" d="M 192.651042 155.210588 
L 192.651042 151.094118 
" style="fill:none;stroke:#000000;stroke-width:1.5;"/>
    <path clip-path="url(#pfa40a90e97)" d="M 196.606204 155.210588 
L 196.606204 151.094118 
" style="fill:none;stroke:#000000;stroke-width:1.5;"/>
    <path clip-path="url(#pfa40a90e97)" d="M 199.779598 155.210588 
L 199.779598 151.094118 
" style="fill:none;stroke:#000000;stroke-width:1.5;"/>
    <path clip-path="url(#pfa40a90e97)" d="M 205.964243 155.210588 
L 205.964243 151.094118 
" style="fill:none;stroke:#000000;stroke-width:1.5;"/>
    <path clip-path="url(#pfa40a90e97)" d="M 215.889786 155.210588 
L 215.889786 151.094118 
" style="fill:none;stroke:#000000;stroke-width:1.5;"/>
    <path clip-path="url(#pfa40a90e97)" d="M 221.761724 155.210588 
L 221.761724 151.094118 
" style="fill:none;stroke:#000000;stroke-width:1.5;"/>
    <path clip-path="url(#pfa40a90e97)" d="M 241.230615 155.210588 
L 241.230615 151.094118 
" style="fill:none;stroke:#000000;stroke-width:1.5;"/>
    <path clip-path="url(#pfa40a90e97)" d="M 260.126209 155.210588 
L 260.126209 151.094118 
" style="fill:none;stroke:#000000;stroke-width:1.5;"/>
    <path clip-path="url(#pfa40a90e97)" d="M 263.241695 155.210588 
L 263.241695 151.094118 
" style="fill:none;stroke:#000000;stroke-width:1.5;"/>
    <path clip-path="url(#pfa40a90e97)" d="M 276.774948 155.210588 
L 276.774948 151.094118 
" style="fill:none;stroke:#000000;stroke-width:1.5;"/>
    <path clip-path="url(#pfa40a90e97)" d="M 287.725475 155.210588 
L 287.725475 151.094118 
" style="fill:none;stroke:#000000;stroke-width:1.5;"/>
    <path clip-path="url(#pfa40a90e97)" d="M 309.985563 155.210588 
L 309.985563 151.094118 
" style="fill:none;stroke:#000000;stroke-width:1.5;"/>
    <path clip-path="url(#pfa40a90e97)" d="M 316.060181 155.210588 
L 316.060181 151.094118 
" style="fill:none;stroke:#000000;stroke-width:1.5;"/>
    <path clip-path="url(#pfa40a90e97)" d="M 326.808028 155.210588 
L 326.808028 151.094118 
" style="fill:none;stroke:#000000;stroke-width:1.5;"/>
    <path clip-path="url(#pfa40a90e97)" d="M 351.894058 155.210588 
L 351.894058 151.094118 
" style="fill:none;stroke:#000000;stroke-width:1.5;"/>
    <path clip-path="url(#pfa40a90e97)" d="M 384.091271 155.210588 
L 384.091271 151.094118 
" style="fill:none;stroke:#000000;stroke-width:1.5;"/>
    <path clip-path="url(#pfa40a90e97)" d="M 400.172505 155.210588 
L 400.172505 151.094118 
" style="fill:none;stroke:#000000;stroke-width:1.5;"/>
    <path clip-path="url(#pfa40a90e97)" d="M 403.357481 155.210588 
L 403.357481 151.094118 
" style="fill:none;stroke:#000000;stroke-width:1.5;"/>
    <path clip-path="url(#pfa40a90e97)" d="M 406.513503 155.210588 
L 406.513503 151.094118 
" style="fill:none;stroke:#000000;stroke-width:1.5;"/>
    <path clip-path="url(#pfa40a90e97)" d="M 416.827035 155.210588 
L 416.827035 151.094118 
" style="fill:none;stroke:#000000;stroke-width:1.5;"/>
    <path clip-path="url(#pfa40a90e97)" d="M 421.569754 155.210588 
L 421.569754 151.094118 
" style="fill:none;stroke:#000000;stroke-width:1.5;"/>
    <path clip-path="url(#pfa40a90e97)" d="M 427.957079 155.210588 
L 427.957079 151.094118 
" style="fill:none;stroke:#000000;stroke-width:1.5;"/>
    <path clip-path="url(#pfa40a90e97)" d="M 431.44318 155.210588 
L 431.44318 151.094118 
" style="fill:none;stroke:#000000;stroke-width:1.5;"/>
    <path clip-path="url(#pfa40a90e97)" d="M 434.859791 155.210588 
L 434.859791 151.094118 
" style="fill:none;stroke:#000000;stroke-width:1.5;"/>
    <path clip-path="url(#pfa40a90e97)" d="M 437.894204 155.210588 
L 437.894204 151.094118 
" style="fill:none;stroke:#000000;stroke-width:1.5;"/>
    <path clip-path="url(#pfa40a90e97)" d="M 457.19516 155.210588 
L 457.19516 151.094118 
" style="fill:none;stroke:#000000;stroke-width:1.5;"/>
    <path clip-path="url(#pfa40a90e97)" d="M 473.942343 155.210588 
L 473.942343 151.094118 
" style="fill:none;stroke:#000000;stroke-width:1.5;"/>
    <path clip-path="url(#pfa40a90e97)" d="M 482.918185 155.210588 
L 482.918185 151.094118 
" style="fill:none;stroke:#000000;stroke-width:1.5;"/>
    <path clip-path="url(#pfa40a90e97)" d="M 488.819077 155.210588 
L 488.819077 151.094118 
" style="fill:none;stroke:#000000;stroke-width:1.5;"/>
    <path clip-path="url(#pfa40a90e97)" d="M 491.801373 155.210588 
L 491.801373 151.094118 
" style="fill:none;stroke:#000000;stroke-width:1.5;"/>
    <path clip-path="url(#pfa40a90e97)" d="M 495.252729 155.210588 
L 495.252729 151.094118 
" style="fill:none;stroke:#000000;stroke-width:1.5;"/>
    <path clip-path="url(#pfa40a90e97)" d="M 512.642699 155.210588 
L 512.642699 151.094118 
" style="fill:none;stroke:#000000;stroke-width:1.5;"/>
    <path clip-path="url(#pfa40a90e97)" d="M 514.408913 155.210588 
L 514.408913 151.094118 
" style="fill:none;stroke:#000000;stroke-width:1.5;"/>
    <path clip-path="url(#pfa40a90e97)" d="M 523.280519 155.210588 
L 523.280519 151.094118 
" style="fill:none;stroke:#000000;stroke-width:1.5;"/>
    <path clip-path="url(#pfa40a90e97)" d="M 527.727904 155.210588 
L 527.727904 151.094118 
" style="fill:none;stroke:#000000;stroke-width:1.5;"/>
    <path clip-path="url(#pfa40a90e97)" d="M 532.042099 155.210588 
L 532.042099 151.094118 
" style="fill:none;stroke:#000000;stroke-width:1.5;"/>
    <path clip-path="url(#pfa40a90e97)" d="M 537.143852 155.210588 
L 537.143852 151.094118 
" style="fill:none;stroke:#000000;stroke-width:1.5;"/>
   </g>
   <g id="LineCollection_4">
    <path clip-path="url(#pfa40a90e97)" d="M 311.1669 151.094118 
L 311.1669 146.977647 
" style="fill:none;stroke:#000000;stroke-width:1.5;"/>
   </g>
   <g id="LineCollection_5">
    <path clip-path="url(#pfa40a90e97)" d="M 322.534369 146.977647 
L 322.534369 142.861176 
" style="fill:none;stroke:#000000;stroke-width:1.5;"/>
   </g>
   <g id="LineCollection_6">
    <path clip-path="url(#pfa40a90e97)" d="M 38.590851 142.861176 
L 38.590851 138.744706 
" style="fill:none;stroke:#000000;stroke-width:1.5;"/>
    <path clip-path="url(#pfa40a90e97)" d="M 111.35887 142.861176 
L 111.35887 138.744706 
" style="fill:none;stroke:#000000;stroke-width:1.5;"/>
    <path clip-path="url(#pfa40a90e97)" d="M 114.346956 142.861176 
L 114.346956 138.744706 
" style="fill:none;stroke:#000000;stroke-width:1.5;"/>
    <path clip-path="url(#pfa40a90e97)" d="M 119.836697 142.861176 
L 119.836697 138.744706 
" style="fill:none;stroke:#000000;stroke-width:1.5;"/>
    <path clip-path="url(#pfa40a90e97)" d="M 170.582053 142.861176 
L 170.582053 138.744706 
" style="fill:none;stroke:#000000;stroke-width:1.5;"/>
    <path clip-path="url(#pfa40a90e97)" d="M 231.374561 142.861176 
L 231.374561 138.744706 
" style="fill:none;stroke:#000000;stroke-width:1.5;"/>
    <path clip-path="url(#pfa40a90e97)" d="M 269.107842 142.861176 
L 269.107842 138.744706 
" style="fill:none;stroke:#000000;stroke-width:1.5;"/>
    <path clip-path="url(#pfa40a90e97)" d="M 270.578722 142.861176 
L 270.578722 138.744706 
" style="fill:none;stroke:#000000;stroke-width:1.5;"/>
    <path clip-path="url(#pfa40a90e97)" d="M 276.439078 142.861176 
L 276.439078 138.744706 
" style="fill:none;stroke:#000000;stroke-width:1.5;"/>
    <path clip-path="url(#pfa40a90e97)" d="M 286.914754 142.861176 
L 286.914754 138.744706 
" style="fill:none;stroke:#000000;stroke-width:1.5;"/>
    <path clip-path="url(#pfa40a90e97)" d="M 302.173685 142.861176 
L 302.173685 138.744706 
" style="fill:none;stroke:#000000;stroke-width:1.5;"/>
    <path clip-path="url(#pfa40a90e97)" d="M 347.631981 142.861176 
L 347.631981 138.744706 
" style="fill:none;stroke:#000000;stroke-width:1.5;"/>
    <path clip-path="url(#pfa40a90e97)" d="M 379.661259 142.861176 
L 379.661259 138.744706 
" style="fill:none;stroke:#000000;stroke-width:1.5;"/>
    <path clip-path="url(#pfa40a90e97)" d="M 416.630146 142.861176 
L 416.630146 138.744706 
" style="fill:none;stroke:#000000;stroke-width:1.5;"/>
    <path clip-path="url(#pfa40a90e97)" d="M 471.539134 142.861176 
L 471.539134 138.744706 
" style="fill:none;stroke:#000000;stroke-width:1.5;"/>
    <path clip-path="url(#pfa40a90e97)" d="M 488.992803 142.861176 
L 488.992803 138.744706 
" style="fill:none;stroke:#000000;stroke-width:1.5;"/>
    <path clip-path="url(#pfa40a90e97)" d="M 503.68423 142.861176 
L 503.68423 138.744706 
" style="fill:none;stroke:#000000;stroke-width:1.5;"/>
    <path clip-path="url(#pfa40a90e97)" d="M 506.249583 142.861176 
L 506.249583 138.744706 
" style="fill:none;stroke:#000000;stroke-width:1.5;"/>
   </g>
   <g id="LineCollection_7">
    <path clip-path="url(#pfa40a90e97)" d="M 293.157307 130.511765 
L 293.157307 126.395294 
" style="fill:none;stroke:#000000;stroke-width:1.5;"/>
    <path clip-path="url(#pfa40a90e97)" d="M 301.079212 130.511765 
L 301.079212 126.395294 
" style="fill:none;stroke:#000000;stroke-width:1.5;"/>
    <path clip-path="url(#pfa40a90e97)" d="M 301.913096 130.511765 
L 301.913096 126.395294 
" style="fill:none;stroke:#000000;stroke-width:1.5;"/>
    <path clip-path="url(#pfa40a90e97)" d="M 557.492954 130.511765 
L 557.492954 126.395294 
" style="fill:none;stroke:#000000;stroke-width:1.5;"/>
   </g>
   <g id="LineCollection_8">
    <path clip-path="url(#pfa40a90e97)" d="M 293.192053 126.395294 
L 293.192053 122.278824 
" style="fill:none;stroke:#000000;stroke-width:1.5;"/>
    <path clip-path="url(#pfa40a90e97)" d="M 294.31548 126.395294 
L 294.31548 122.278824 
" style="fill:none;stroke:#000000;stroke-width:1.5;"/>
    <path clip-path="url(#pfa40a90e97)" d="M 295.879014 126.395294 
L 295.879014 122.278824 
" style="fill:none;stroke:#000000;stroke-width:1.5;"/>
    <path clip-path="url(#pfa40a90e97)" d="M 306.702142 126.395294 
L 306.702142 122.278824 
" style="fill:none;stroke:#000000;stroke-width:1.5;"/>
    <path clip-path="url(#pfa40a90e97)" d="M 344.296442 126.395294 
L 344.296442 122.278824 
" style="fill:none;stroke:#000000;stroke-width:1.5;"/>
    <path clip-path="url(#pfa40a90e97)" d="M 547.260494 126.395294 
L 547.260494 122.278824 
" style="fill:none;stroke:#000000;stroke-width:1.5;"/>
   </g>
   <g id="LineCollection_9">
    <path clip-path="url(#pfa40a90e97)" d="M 36.199224 122.278824 
L 36.199224 118.162353 
" style="fill:none;stroke:#000000;stroke-width:1.5;"/>
    <path clip-path="url(#pfa40a90e97)" d="M 60.057591 122.278824 
L 60.057591 118.162353 
" style="fill:none;stroke:#000000;stroke-width:1.5;"/>
    <path clip-path="url(#pfa40a90e97)" d="M 90.743388 122.278824 
L 90.743388 118.162353 
" style="fill:none;stroke:#000000;stroke-width:1.5;"/>
    <path clip-path="url(#pfa40a90e97)" d="M 93.783592 122.278824 
L 93.783592 118.162353 
" style="fill:none;stroke:#000000;stroke-width:1.5;"/>
    <path clip-path="url(#pfa40a90e97)" d="M 105.87492 122.278824 
L 105.87492 118.162353 
" style="fill:none;stroke:#000000;stroke-width:1.5;"/>
    <path clip-path="url(#pfa40a90e97)" d="M 130.063366 122.278824 
L 130.063366 118.162353 
" style="fill:none;stroke:#000000;stroke-width:1.5;"/>
    <path clip-path="url(#pfa40a90e97)" d="M 135.755787 122.278824 
L 135.755787 118.162353 
" style="fill:none;stroke:#000000;stroke-width:1.5;"/>
    <path clip-path="url(#pfa40a90e97)" d="M 138.761246 122.278824 
L 138.761246 118.162353 
" style="fill:none;stroke:#000000;stroke-width:1.5;"/>
    <path clip-path="url(#pfa40a90e97)" d="M 140.66065 122.278824 
L 140.66065 118.162353 
" style="fill:none;stroke:#000000;stroke-width:1.5;"/>
    <path clip-path="url(#pfa40a90e97)" d="M 141.73196 122.278824 
L 141.73196 118.162353 
" style="fill:none;stroke:#000000;stroke-width:1.5;"/>
    <path clip-path="url(#pfa40a90e97)" d="M 143.515547 122.278824 
L 143.515547 118.162353 
" style="fill:none;stroke:#000000;stroke-width:1.5;"/>
    <path clip-path="url(#pfa40a90e97)" d="M 146.150391 122.278824 
L 146.150391 118.162353 
" style="fill:none;stroke:#000000;stroke-width:1.5;"/>
    <path clip-path="url(#pfa40a90e97)" d="M 149.196386 122.278824 
L 149.196386 118.162353 
" style="fill:none;stroke:#000000;stroke-width:1.5;"/>
    <path clip-path="url(#pfa40a90e97)" d="M 152.76935 122.278824 
L 152.76935 118.162353 
" style="fill:none;stroke:#000000;stroke-width:1.5;"/>
    <path clip-path="url(#pfa40a90e97)" d="M 154.84248 122.278824 
L 154.84248 118.162353 
" style="fill:none;stroke:#000000;stroke-width:1.5;"/>
    <path clip-path="url(#pfa40a90e97)" d="M 158.496517 122.278824 
L 158.496517 118.162353 
" style="fill:none;stroke:#000000;stroke-width:1.5;"/>
    <path clip-path="url(#pfa40a90e97)" d="M 165.34132 122.278824 
L 165.34132 118.162353 
" style="fill:none;stroke:#000000;stroke-width:1.5;"/>
    <path clip-path="url(#pfa40a90e97)" d="M 175.770669 122.278824 
L 175.770669 118.162353 
" style="fill:none;stroke:#000000;stroke-width:1.5;"/>
    <path clip-path="url(#pfa40a90e97)" d="M 186.055246 122.278824 
L 186.055246 118.162353 
" style="fill:none;stroke:#000000;stroke-width:1.5;"/>
    <path clip-path="url(#pfa40a90e97)" d="M 192.720533 122.278824 
L 192.720533 118.162353 
" style="fill:none;stroke:#000000;stroke-width:1.5;"/>
    <path clip-path="url(#pfa40a90e97)" d="M 196.04449 122.278824 
L 196.04449 118.162353 
" style="fill:none;stroke:#000000;stroke-width:1.5;"/>
    <path clip-path="url(#pfa40a90e97)" d="M 197.775959 122.278824 
L 197.775959 118.162353 
" style="fill:none;stroke:#000000;stroke-width:1.5;"/>
    <path clip-path="url(#pfa40a90e97)" d="M 201.748492 122.278824 
L 201.748492 118.162353 
" style="fill:none;stroke:#000000;stroke-width:1.5;"/>
    <path clip-path="url(#pfa40a90e97)" d="M 219.978138 122.278824 
L 219.978138 118.162353 
" style="fill:none;stroke:#000000;stroke-width:1.5;"/>
    <path clip-path="url(#pfa40a90e97)" d="M 225.103054 122.278824 
L 225.103054 118.162353 
" style="fill:none;stroke:#000000;stroke-width:1.5;"/>
    <path clip-path="url(#pfa40a90e97)" d="M 237.553415 122.278824 
L 237.553415 118.162353 
" style="fill:none;stroke:#000000;stroke-width:1.5;"/>
    <path clip-path="url(#pfa40a90e97)" d="M 240.333031 122.278824 
L 240.333031 118.162353 
" style="fill:none;stroke:#000000;stroke-width:1.5;"/>
    <path clip-path="url(#pfa40a90e97)" d="M 242.852057 122.278824 
L 242.852057 118.162353 
" style="fill:none;stroke:#000000;stroke-width:1.5;"/>
    <path clip-path="url(#pfa40a90e97)" d="M 244.126048 122.278824 
L 244.126048 118.162353 
" style="fill:none;stroke:#000000;stroke-width:1.5;"/>
    <path clip-path="url(#pfa40a90e97)" d="M 246.743519 122.278824 
L 246.743519 118.162353 
" style="fill:none;stroke:#000000;stroke-width:1.5;"/>
    <path clip-path="url(#pfa40a90e97)" d="M 251.729454 122.278824 
L 251.729454 118.162353 
" style="fill:none;stroke:#000000;stroke-width:1.5;"/>
    <path clip-path="url(#pfa40a90e97)" d="M 260.415753 122.278824 
L 260.415753 118.162353 
" style="fill:none;stroke:#000000;stroke-width:1.5;"/>
    <path clip-path="url(#pfa40a90e97)" d="M 262.755262 122.278824 
L 262.755262 118.162353 
" style="fill:none;stroke:#000000;stroke-width:1.5;"/>
    <path clip-path="url(#pfa40a90e97)" d="M 275.055061 122.278824 
L 275.055061 118.162353 
" style="fill:none;stroke:#000000;stroke-width:1.5;"/>
    <path clip-path="url(#pfa40a90e97)" d="M 280.573756 122.278824 
L 280.573756 118.162353 
" style="fill:none;stroke:#000000;stroke-width:1.5;"/>
    <path clip-path="url(#pfa40a90e97)" d="M 286.949499 122.278824 
L 286.949499 118.162353 
" style="fill:none;stroke:#000000;stroke-width:1.5;"/>
    <path clip-path="url(#pfa40a90e97)" d="M 300.581197 122.278824 
L 300.581197 118.162353 
" style="fill:none;stroke:#000000;stroke-width:1.5;"/>
    <path clip-path="url(#pfa40a90e97)" d="M 307.924015 122.278824 
L 307.924015 118.162353 
" style="fill:none;stroke:#000000;stroke-width:1.5;"/>
    <path clip-path="url(#pfa40a90e97)" d="M 311.554888 122.278824 
L 311.554888 118.162353 
" style="fill:none;stroke:#000000;stroke-width:1.5;"/>
    <path clip-path="url(#pfa40a90e97)" d="M 322.962893 122.278824 
L 322.962893 118.162353 
" style="fill:none;stroke:#000000;stroke-width:1.5;"/>
    <path clip-path="url(#pfa40a90e97)" d="M 326.42004 122.278824 
L 326.42004 118.162353 
" style="fill:none;stroke:#000000;stroke-width:1.5;"/>
    <path clip-path="url(#pfa40a90e97)" d="M 344.846575 122.278824 
L 344.846575 118.162353 
" style="fill:none;stroke:#000000;stroke-width:1.5;"/>
    <path clip-path="url(#pfa40a90e97)" d="M 349.29975 122.278824 
L 349.29975 118.162353 
" style="fill:none;stroke:#000000;stroke-width:1.5;"/>
    <path clip-path="url(#pfa40a90e97)" d="M 357.082674 122.278824 
L 357.082674 118.162353 
" style="fill:none;stroke:#000000;stroke-width:1.5;"/>
    <path clip-path="url(#pfa40a90e97)" d="M 384.803548 122.278824 
L 384.803548 118.162353 
" style="fill:none;stroke:#000000;stroke-width:1.5;"/>
    <path clip-path="url(#pfa40a90e97)" d="M 387.334156 122.278824 
L 387.334156 118.162353 
" style="fill:none;stroke:#000000;stroke-width:1.5;"/>
    <path clip-path="url(#pfa40a90e97)" d="M 391.64256 122.278824 
L 391.64256 118.162353 
" style="fill:none;stroke:#000000;stroke-width:1.5;"/>
    <path clip-path="url(#pfa40a90e97)" d="M 430.615086 122.278824 
L 430.615086 118.162353 
" style="fill:none;stroke:#000000;stroke-width:1.5;"/>
    <path clip-path="url(#pfa40a90e97)" d="M 453.222626 122.278824 
L 453.222626 118.162353 
" style="fill:none;stroke:#000000;stroke-width:1.5;"/>
    <path clip-path="url(#pfa40a90e97)" d="M 474.260841 122.278824 
L 474.260841 118.162353 
" style="fill:none;stroke:#000000;stroke-width:1.5;"/>
    <path clip-path="url(#pfa40a90e97)" d="M 476.467161 122.278824 
L 476.467161 118.162353 
" style="fill:none;stroke:#000000;stroke-width:1.5;"/>
    <path clip-path="url(#pfa40a90e97)" d="M 485.634101 122.278824 
L 485.634101 118.162353 
" style="fill:none;stroke:#000000;stroke-width:1.5;"/>
    <path clip-path="url(#pfa40a90e97)" d="M 489.820897 122.278824 
L 489.820897 118.162353 
" style="fill:none;stroke:#000000;stroke-width:1.5;"/>
    <path clip-path="url(#pfa40a90e97)" d="M 492.502068 122.278824 
L 492.502068 118.162353 
" style="fill:none;stroke:#000000;stroke-width:1.5;"/>
    <path clip-path="url(#pfa40a90e97)" d="M 494.667852 122.278824 
L 494.667852 118.162353 
" style="fill:none;stroke:#000000;stroke-width:1.5;"/>
    <path clip-path="url(#pfa40a90e97)" d="M 506.035321 122.278824 
L 506.035321 118.162353 
" style="fill:none;stroke:#000000;stroke-width:1.5;"/>
    <path clip-path="url(#pfa40a90e97)" d="M 509.666194 122.278824 
L 509.666194 118.162353 
" style="fill:none;stroke:#000000;stroke-width:1.5;"/>
    <path clip-path="url(#pfa40a90e97)" d="M 513.129132 122.278824 
L 513.129132 118.162353 
" style="fill:none;stroke:#000000;stroke-width:1.5;"/>
    <path clip-path="url(#pfa40a90e97)" d="M 515.358615 122.278824 
L 515.358615 118.162353 
" style="fill:none;stroke:#000000;stroke-width:1.5;"/>
    <path clip-path="url(#pfa40a90e97)" d="M 526.49445 122.278824 
L 526.49445 118.162353 
" style="fill:none;stroke:#000000;stroke-width:1.5;"/>
    <path clip-path="url(#pfa40a90e97)" d="M 533.65775 122.278824 
L 533.65775 118.162353 
" style="fill:none;stroke:#000000;stroke-width:1.5;"/>
    <path clip-path="url(#pfa40a90e97)" d="M 537.219133 122.278824 
L 537.219133 118.162353 
" style="fill:none;stroke:#000000;stroke-width:1.5;"/>
    <path clip-path="url(#pfa40a90e97)" d="M 540.137729 122.278824 
L 540.137729 118.162353 
" style="fill:none;stroke:#000000;stroke-width:1.5;"/>
    <path clip-path="url(#pfa40a90e97)" d="M 553.213504 122.278824 
L 553.213504 118.162353 
" style="fill:none;stroke:#000000;stroke-width:1.5;"/>
   </g>
   <g id="LineCollection_10">
    <path clip-path="url(#pfa40a90e97)" d="M 406.519294 118.162353 
L 406.519294 114.045882 
" style="fill:none;stroke:#000000;stroke-width:1.5;"/>
   </g>
   <g id="LineCollection_11">
    <path clip-path="url(#pfa40a90e97)" d="M 31.995055 114.045882 
L 31.995055 109.929412 
" style="fill:none;stroke:#000000;stroke-width:1.5;"/>
    <path clip-path="url(#pfa40a90e97)" d="M 37.606404 114.045882 
L 37.606404 109.929412 
" style="fill:none;stroke:#000000;stroke-width:1.5;"/>
    <path clip-path="url(#pfa40a90e97)" d="M 42.86451 114.045882 
L 42.86451 109.929412 
" style="fill:none;stroke:#000000;stroke-width:1.5;"/>
    <path clip-path="url(#pfa40a90e97)" d="M 57.474865 114.045882 
L 57.474865 109.929412 
" style="fill:none;stroke:#000000;stroke-width:1.5;"/>
    <path clip-path="url(#pfa40a90e97)" d="M 58.534593 114.045882 
L 58.534593 109.929412 
" style="fill:none;stroke:#000000;stroke-width:1.5;"/>
    <path clip-path="url(#pfa40a90e97)" d="M 64.9335 114.045882 
L 64.9335 109.929412 
" style="fill:none;stroke:#000000;stroke-width:1.5;"/>
    <path clip-path="url(#pfa40a90e97)" d="M 82.821484 114.045882 
L 82.821484 109.929412 
" style="fill:none;stroke:#000000;stroke-width:1.5;"/>
    <path clip-path="url(#pfa40a90e97)" d="M 88.94822 114.045882 
L 88.94822 109.929412 
" style="fill:none;stroke:#000000;stroke-width:1.5;"/>
    <path clip-path="url(#pfa40a90e97)" d="M 100.379388 114.045882 
L 100.379388 109.929412 
" style="fill:none;stroke:#000000;stroke-width:1.5;"/>
    <path clip-path="url(#pfa40a90e97)" d="M 101.219064 114.045882 
L 101.219064 109.929412 
" style="fill:none;stroke:#000000;stroke-width:1.5;"/>
    <path clip-path="url(#pfa40a90e97)" d="M 120.971707 114.045882 
L 120.971707 109.929412 
" style="fill:none;stroke:#000000;stroke-width:1.5;"/>
    <path clip-path="url(#pfa40a90e97)" d="M 123.178027 114.045882 
L 123.178027 109.929412 
" style="fill:none;stroke:#000000;stroke-width:1.5;"/>
    <path clip-path="url(#pfa40a90e97)" d="M 152.879377 114.045882 
L 152.879377 109.929412 
" style="fill:none;stroke:#000000;stroke-width:1.5;"/>
    <path clip-path="url(#pfa40a90e97)" d="M 153.719052 114.045882 
L 153.719052 109.929412 
" style="fill:none;stroke:#000000;stroke-width:1.5;"/>
    <path clip-path="url(#pfa40a90e97)" d="M 157.876894 114.045882 
L 157.876894 109.929412 
" style="fill:none;stroke:#000000;stroke-width:1.5;"/>
    <path clip-path="url(#pfa40a90e97)" d="M 160.239567 114.045882 
L 160.239567 109.929412 
" style="fill:none;stroke:#000000;stroke-width:1.5;"/>
    <path clip-path="url(#pfa40a90e97)" d="M 173.599094 114.045882 
L 173.599094 109.929412 
" style="fill:none;stroke:#000000;stroke-width:1.5;"/>
    <path clip-path="url(#pfa40a90e97)" d="M 189.570302 114.045882 
L 189.570302 109.929412 
" style="fill:none;stroke:#000000;stroke-width:1.5;"/>
    <path clip-path="url(#pfa40a90e97)" d="M 194.932643 114.045882 
L 194.932643 109.929412 
" style="fill:none;stroke:#000000;stroke-width:1.5;"/>
    <path clip-path="url(#pfa40a90e97)" d="M 201.835355 114.045882 
L 201.835355 109.929412 
" style="fill:none;stroke:#000000;stroke-width:1.5;"/>
    <path clip-path="url(#pfa40a90e97)" d="M 213.735584 114.045882 
L 213.735584 109.929412 
" style="fill:none;stroke:#000000;stroke-width:1.5;"/>
    <path clip-path="url(#pfa40a90e97)" d="M 214.418907 114.045882 
L 214.418907 109.929412 
" style="fill:none;stroke:#000000;stroke-width:1.5;"/>
    <path clip-path="url(#pfa40a90e97)" d="M 237.304408 114.045882 
L 237.304408 109.929412 
" style="fill:none;stroke:#000000;stroke-width:1.5;"/>
    <path clip-path="url(#pfa40a90e97)" d="M 237.900867 114.045882 
L 237.900867 109.929412 
" style="fill:none;stroke:#000000;stroke-width:1.5;"/>
    <path clip-path="url(#pfa40a90e97)" d="M 247.067807 114.045882 
L 247.067807 109.929412 
" style="fill:none;stroke:#000000;stroke-width:1.5;"/>
    <path clip-path="url(#pfa40a90e97)" d="M 255.777269 114.045882 
L 255.777269 109.929412 
" style="fill:none;stroke:#000000;stroke-width:1.5;"/>
    <path clip-path="url(#pfa40a90e97)" d="M 262.784217 114.045882 
L 262.784217 109.929412 
" style="fill:none;stroke:#000000;stroke-width:1.5;"/>
    <path clip-path="url(#pfa40a90e97)" d="M 280.087323 114.045882 
L 280.087323 109.929412 
" style="fill:none;stroke:#000000;stroke-width:1.5;"/>
    <path clip-path="url(#pfa40a90e97)" d="M 280.625874 114.045882 
L 280.625874 109.929412 
" style="fill:none;stroke:#000000;stroke-width:1.5;"/>
    <path clip-path="url(#pfa40a90e97)" d="M 308.207767 114.045882 
L 308.207767 109.929412 
" style="fill:none;stroke:#000000;stroke-width:1.5;"/>
    <path clip-path="url(#pfa40a90e97)" d="M 308.891089 114.045882 
L 308.891089 109.929412 
" style="fill:none;stroke:#000000;stroke-width:1.5;"/>
    <path clip-path="url(#pfa40a90e97)" d="M 328.69585 114.045882 
L 328.69585 109.929412 
" style="fill:none;stroke:#000000;stroke-width:1.5;"/>
    <path clip-path="url(#pfa40a90e97)" d="M 343.369904 114.045882 
L 343.369904 109.929412 
" style="fill:none;stroke:#000000;stroke-width:1.5;"/>
    <path clip-path="url(#pfa40a90e97)" d="M 346.317454 114.045882 
L 346.317454 109.929412 
" style="fill:none;stroke:#000000;stroke-width:1.5;"/>
    <path clip-path="url(#pfa40a90e97)" d="M 346.942868 114.045882 
L 346.942868 109.929412 
" style="fill:none;stroke:#000000;stroke-width:1.5;"/>
    <path clip-path="url(#pfa40a90e97)" d="M 349.687738 114.045882 
L 349.687738 109.929412 
" style="fill:none;stroke:#000000;stroke-width:1.5;"/>
    <path clip-path="url(#pfa40a90e97)" d="M 354.743164 114.045882 
L 354.743164 109.929412 
" style="fill:none;stroke:#000000;stroke-width:1.5;"/>
    <path clip-path="url(#pfa40a90e97)" d="M 366.498621 114.045882 
L 366.498621 109.929412 
" style="fill:none;stroke:#000000;stroke-width:1.5;"/>
    <path clip-path="url(#pfa40a90e97)" d="M 375.555535 114.045882 
L 375.555535 109.929412 
" style="fill:none;stroke:#000000;stroke-width:1.5;"/>
    <path clip-path="url(#pfa40a90e97)" d="M 379.053218 114.045882 
L 379.053218 109.929412 
" style="fill:none;stroke:#000000;stroke-width:1.5;"/>
    <path clip-path="url(#pfa40a90e97)" d="M 382.701464 114.045882 
L 382.701464 109.929412 
" style="fill:none;stroke:#000000;stroke-width:1.5;"/>
    <path clip-path="url(#pfa40a90e97)" d="M 394.022606 114.045882 
L 394.022606 109.929412 
" style="fill:none;stroke:#000000;stroke-width:1.5;"/>
    <path clip-path="url(#pfa40a90e97)" d="M 399.7324 114.045882 
L 399.7324 109.929412 
" style="fill:none;stroke:#000000;stroke-width:1.5;"/>
    <path clip-path="url(#pfa40a90e97)" d="M 401.162743 114.045882 
L 401.162743 109.929412 
" style="fill:none;stroke:#000000;stroke-width:1.5;"/>
    <path clip-path="url(#pfa40a90e97)" d="M 419.195499 114.045882 
L 419.195499 109.929412 
" style="fill:none;stroke:#000000;stroke-width:1.5;"/>
    <path clip-path="url(#pfa40a90e97)" d="M 420.00622 114.045882 
L 420.00622 109.929412 
" style="fill:none;stroke:#000000;stroke-width:1.5;"/>
    <path clip-path="url(#pfa40a90e97)" d="M 431.802214 114.045882 
L 431.802214 109.929412 
" style="fill:none;stroke:#000000;stroke-width:1.5;"/>
    <path clip-path="url(#pfa40a90e97)" d="M 444.849034 114.045882 
L 444.849034 109.929412 
" style="fill:none;stroke:#000000;stroke-width:1.5;"/>
    <path clip-path="url(#pfa40a90e97)" d="M 445.503402 114.045882 
L 445.503402 109.929412 
" style="fill:none;stroke:#000000;stroke-width:1.5;"/>
    <path clip-path="url(#pfa40a90e97)" d="M 454.392381 114.045882 
L 454.392381 109.929412 
" style="fill:none;stroke:#000000;stroke-width:1.5;"/>
    <path clip-path="url(#pfa40a90e97)" d="M 468.551047 114.045882 
L 468.551047 109.929412 
" style="fill:none;stroke:#000000;stroke-width:1.5;"/>
    <path clip-path="url(#pfa40a90e97)" d="M 486.618548 114.045882 
L 486.618548 109.929412 
" style="fill:none;stroke:#000000;stroke-width:1.5;"/>
    <path clip-path="url(#pfa40a90e97)" d="M 507.262985 114.045882 
L 507.262985 109.929412 
" style="fill:none;stroke:#000000;stroke-width:1.5;"/>
    <path clip-path="url(#pfa40a90e97)" d="M 507.871026 114.045882 
L 507.871026 109.929412 
" style="fill:none;stroke:#000000;stroke-width:1.5;"/>
    <path clip-path="url(#pfa40a90e97)" d="M 535.644017 114.045882 
L 535.644017 109.929412 
" style="fill:none;stroke:#000000;stroke-width:1.5;"/>
    <path clip-path="url(#pfa40a90e97)" d="M 543.137398 114.045882 
L 543.137398 109.929412 
" style="fill:none;stroke:#000000;stroke-width:1.5;"/>
   </g>
   <g id="LineCollection_12">
    <path clip-path="url(#pfa40a90e97)" d="M 268.465056 109.929412 
L 268.465056 105.812941 
" style="fill:none;stroke:#000000;stroke-width:1.5;"/>
    <path clip-path="url(#pfa40a90e97)" d="M 270.09808 109.929412 
L 270.09808 105.812941 
" style="fill:none;stroke:#000000;stroke-width:1.5;"/>
    <path clip-path="url(#pfa40a90e97)" d="M 275.865782 109.929412 
L 275.865782 105.812941 
" style="fill:none;stroke:#000000;stroke-width:1.5;"/>
    <path clip-path="url(#pfa40a90e97)" d="M 302.683281 109.929412 
L 302.683281 105.812941 
" style="fill:none;stroke:#000000;stroke-width:1.5;"/>
    <path clip-path="url(#pfa40a90e97)" d="M 352.056202 109.929412 
L 352.056202 105.812941 
" style="fill:none;stroke:#000000;stroke-width:1.5;"/>
    <path clip-path="url(#pfa40a90e97)" d="M 353.498128 109.929412 
L 353.498128 105.812941 
" style="fill:none;stroke:#000000;stroke-width:1.5;"/>
    <path clip-path="url(#pfa40a90e97)" d="M 430.041791 109.929412 
L 430.041791 105.812941 
" style="fill:none;stroke:#000000;stroke-width:1.5;"/>
    <path clip-path="url(#pfa40a90e97)" d="M 433.637918 109.929412 
L 433.637918 105.812941 
" style="fill:none;stroke:#000000;stroke-width:1.5;"/>
    <path clip-path="url(#pfa40a90e97)" d="M 442.109955 109.929412 
L 442.109955 105.812941 
" style="fill:none;stroke:#000000;stroke-width:1.5;"/>
    <path clip-path="url(#pfa40a90e97)" d="M 444.455255 109.929412 
L 444.455255 105.812941 
" style="fill:none;stroke:#000000;stroke-width:1.5;"/>
    <path clip-path="url(#pfa40a90e97)" d="M 492.206734 109.929412 
L 492.206734 105.812941 
" style="fill:none;stroke:#000000;stroke-width:1.5;"/>
   </g>
   <g id="LineCollection_13">
    <path clip-path="url(#pfa40a90e97)" d="M 51.631881 105.812941 
L 51.631881 101.696471 
" style="fill:none;stroke:#000000;stroke-width:1.5;"/>
    <path clip-path="url(#pfa40a90e97)" d="M 160.882353 105.812941 
L 160.882353 101.696471 
" style="fill:none;stroke:#000000;stroke-width:1.5;"/>
    <path clip-path="url(#pfa40a90e97)" d="M 167.651875 105.812941 
L 167.651875 101.696471 
" style="fill:none;stroke:#000000;stroke-width:1.5;"/>
    <path clip-path="url(#pfa40a90e97)" d="M 197.799122 105.812941 
L 197.799122 101.696471 
" style="fill:none;stroke:#000000;stroke-width:1.5;"/>
    <path clip-path="url(#pfa40a90e97)" d="M 255.151856 105.812941 
L 255.151856 101.696471 
" style="fill:none;stroke:#000000;stroke-width:1.5;"/>
    <path clip-path="url(#pfa40a90e97)" d="M 523.575853 105.812941 
L 523.575853 101.696471 
" style="fill:none;stroke:#000000;stroke-width:1.5;"/>
    <path clip-path="url(#pfa40a90e97)" d="M 555.112908 105.812941 
L 555.112908 101.696471 
" style="fill:none;stroke:#000000;stroke-width:1.5;"/>
   </g>
   <g id="LineCollection_14">
    <path clip-path="url(#pfa40a90e97)" d="M 28.954851 97.58 
L 28.954851 93.463529 
" style="fill:none;stroke:#000000;stroke-width:1.5;"/>
    <path clip-path="url(#pfa40a90e97)" d="M 49.049155 97.58 
L 49.049155 93.463529 
" style="fill:none;stroke:#000000;stroke-width:1.5;"/>
    <path clip-path="url(#pfa40a90e97)" d="M 54.880557 97.58 
L 54.880557 93.463529 
" style="fill:none;stroke:#000000;stroke-width:1.5;"/>
    <path clip-path="url(#pfa40a90e97)" d="M 64.423903 97.58 
L 64.423903 93.463529 
" style="fill:none;stroke:#000000;stroke-width:1.5;"/>
    <path clip-path="url(#pfa40a90e97)" d="M 76.214106 97.58 
L 76.214106 93.463529 
" style="fill:none;stroke:#000000;stroke-width:1.5;"/>
    <path clip-path="url(#pfa40a90e97)" d="M 93.534585 97.58 
L 93.534585 93.463529 
" style="fill:none;stroke:#000000;stroke-width:1.5;"/>
    <path clip-path="url(#pfa40a90e97)" d="M 104.647256 97.58 
L 104.647256 93.463529 
" style="fill:none;stroke:#000000;stroke-width:1.5;"/>
    <path clip-path="url(#pfa40a90e97)" d="M 112.395435 97.58 
L 112.395435 93.463529 
" style="fill:none;stroke:#000000;stroke-width:1.5;"/>
    <path clip-path="url(#pfa40a90e97)" d="M 125.216411 97.58 
L 125.216411 93.463529 
" style="fill:none;stroke:#000000;stroke-width:1.5;"/>
    <path clip-path="url(#pfa40a90e97)" d="M 130.202347 97.58 
L 130.202347 93.463529 
" style="fill:none;stroke:#000000;stroke-width:1.5;"/>
    <path clip-path="url(#pfa40a90e97)" d="M 140.834376 97.58 
L 140.834376 93.463529 
" style="fill:none;stroke:#000000;stroke-width:1.5;"/>
    <path clip-path="url(#pfa40a90e97)" d="M 146.248836 97.58 
L 146.248836 93.463529 
" style="fill:none;stroke:#000000;stroke-width:1.5;"/>
    <path clip-path="url(#pfa40a90e97)" d="M 155.548966 97.58 
L 155.548966 93.463529 
" style="fill:none;stroke:#000000;stroke-width:1.5;"/>
    <path clip-path="url(#pfa40a90e97)" d="M 166.534238 97.58 
L 166.534238 93.463529 
" style="fill:none;stroke:#000000;stroke-width:1.5;"/>
    <path clip-path="url(#pfa40a90e97)" d="M 181.99585 97.58 
L 181.99585 93.463529 
" style="fill:none;stroke:#000000;stroke-width:1.5;"/>
    <path clip-path="url(#pfa40a90e97)" d="M 186.008919 97.58 
L 186.008919 93.463529 
" style="fill:none;stroke:#000000;stroke-width:1.5;"/>
    <path clip-path="url(#pfa40a90e97)" d="M 189.315504 97.58 
L 189.315504 93.463529 
" style="fill:none;stroke:#000000;stroke-width:1.5;"/>
    <path clip-path="url(#pfa40a90e97)" d="M 192.483107 97.58 
L 192.483107 93.463529 
" style="fill:none;stroke:#000000;stroke-width:1.5;"/>
    <path clip-path="url(#pfa40a90e97)" d="M 197.225826 97.58 
L 197.225826 93.463529 
" style="fill:none;stroke:#000000;stroke-width:1.5;"/>
    <path clip-path="url(#pfa40a90e97)" d="M 204.441245 97.58 
L 204.441245 93.463529 
" style="fill:none;stroke:#000000;stroke-width:1.5;"/>
    <path clip-path="url(#pfa40a90e97)" d="M 220.534061 97.58 
L 220.534061 93.463529 
" style="fill:none;stroke:#000000;stroke-width:1.5;"/>
    <path clip-path="url(#pfa40a90e97)" d="M 229.573602 97.58 
L 229.573602 93.463529 
" style="fill:none;stroke:#000000;stroke-width:1.5;"/>
    <path clip-path="url(#pfa40a90e97)" d="M 233.019167 97.58 
L 233.019167 93.463529 
" style="fill:none;stroke:#000000;stroke-width:1.5;"/>
    <path clip-path="url(#pfa40a90e97)" d="M 238.613143 97.58 
L 238.613143 93.463529 
" style="fill:none;stroke:#000000;stroke-width:1.5;"/>
    <path clip-path="url(#pfa40a90e97)" d="M 247.606358 97.58 
L 247.606358 93.463529 
" style="fill:none;stroke:#000000;stroke-width:1.5;"/>
    <path clip-path="url(#pfa40a90e97)" d="M 259.819294 97.58 
L 259.819294 93.463529 
" style="fill:none;stroke:#000000;stroke-width:1.5;"/>
    <path clip-path="url(#pfa40a90e97)" d="M 275.605193 97.58 
L 275.605193 93.463529 
" style="fill:none;stroke:#000000;stroke-width:1.5;"/>
    <path clip-path="url(#pfa40a90e97)" d="M 280.556384 97.58 
L 280.556384 93.463529 
" style="fill:none;stroke:#000000;stroke-width:1.5;"/>
    <path clip-path="url(#pfa40a90e97)" d="M 288.42617 97.58 
L 288.42617 93.463529 
" style="fill:none;stroke:#000000;stroke-width:1.5;"/>
    <path clip-path="url(#pfa40a90e97)" d="M 296.573918 97.58 
L 296.573918 93.463529 
" style="fill:none;stroke:#000000;stroke-width:1.5;"/>
    <path clip-path="url(#pfa40a90e97)" d="M 305.926166 97.58 
L 305.926166 93.463529 
" style="fill:none;stroke:#000000;stroke-width:1.5;"/>
    <path clip-path="url(#pfa40a90e97)" d="M 311.90234 97.58 
L 311.90234 93.463529 
" style="fill:none;stroke:#000000;stroke-width:1.5;"/>
    <path clip-path="url(#pfa40a90e97)" d="M 315.000453 97.58 
L 315.000453 93.463529 
" style="fill:none;stroke:#000000;stroke-width:1.5;"/>
    <path clip-path="url(#pfa40a90e97)" d="M 344.829202 97.58 
L 344.829202 93.463529 
" style="fill:none;stroke:#000000;stroke-width:1.5;"/>
    <path clip-path="url(#pfa40a90e97)" d="M 354.91689 97.58 
L 354.91689 93.463529 
" style="fill:none;stroke:#000000;stroke-width:1.5;"/>
    <path clip-path="url(#pfa40a90e97)" d="M 357.980258 97.58 
L 357.980258 93.463529 
" style="fill:none;stroke:#000000;stroke-width:1.5;"/>
    <path clip-path="url(#pfa40a90e97)" d="M 360.968345 97.58 
L 360.968345 93.463529 
" style="fill:none;stroke:#000000;stroke-width:1.5;"/>
    <path clip-path="url(#pfa40a90e97)" d="M 371.166059 97.58 
L 371.166059 93.463529 
" style="fill:none;stroke:#000000;stroke-width:1.5;"/>
    <path clip-path="url(#pfa40a90e97)" d="M 382.487202 97.58 
L 382.487202 93.463529 
" style="fill:none;stroke:#000000;stroke-width:1.5;"/>
    <path clip-path="url(#pfa40a90e97)" d="M 392.858642 97.58 
L 392.858642 93.463529 
" style="fill:none;stroke:#000000;stroke-width:1.5;"/>
    <path clip-path="url(#pfa40a90e97)" d="M 406.420849 97.58 
L 406.420849 93.463529 
" style="fill:none;stroke:#000000;stroke-width:1.5;"/>
    <path clip-path="url(#pfa40a90e97)" d="M 417.487194 97.58 
L 417.487194 93.463529 
" style="fill:none;stroke:#000000;stroke-width:1.5;"/>
    <path clip-path="url(#pfa40a90e97)" d="M 423.225942 97.58 
L 423.225942 93.463529 
" style="fill:none;stroke:#000000;stroke-width:1.5;"/>
    <path clip-path="url(#pfa40a90e97)" d="M 436.336462 97.58 
L 436.336462 93.463529 
" style="fill:none;stroke:#000000;stroke-width:1.5;"/>
    <path clip-path="url(#pfa40a90e97)" d="M 446.296751 97.58 
L 446.296751 93.463529 
" style="fill:none;stroke:#000000;stroke-width:1.5;"/>
    <path clip-path="url(#pfa40a90e97)" d="M 455.66058 97.58 
L 455.66058 93.463529 
" style="fill:none;stroke:#000000;stroke-width:1.5;"/>
    <path clip-path="url(#pfa40a90e97)" d="M 463.744629 97.58 
L 463.744629 93.463529 
" style="fill:none;stroke:#000000;stroke-width:1.5;"/>
    <path clip-path="url(#pfa40a90e97)" d="M 475.407432 97.58 
L 475.407432 93.463529 
" style="fill:none;stroke:#000000;stroke-width:1.5;"/>
    <path clip-path="url(#pfa40a90e97)" d="M 479.628974 97.58 
L 479.628974 93.463529 
" style="fill:none;stroke:#000000;stroke-width:1.5;"/>
    <path clip-path="url(#pfa40a90e97)" d="M 492.253061 97.58 
L 492.253061 93.463529 
" style="fill:none;stroke:#000000;stroke-width:1.5;"/>
    <path clip-path="url(#pfa40a90e97)" d="M 497.881782 97.58 
L 497.881782 93.463529 
" style="fill:none;stroke:#000000;stroke-width:1.5;"/>
    <path clip-path="url(#pfa40a90e97)" d="M 501.865898 97.58 
L 501.865898 93.463529 
" style="fill:none;stroke:#000000;stroke-width:1.5;"/>
    <path clip-path="url(#pfa40a90e97)" d="M 522.724596 97.58 
L 522.724596 93.463529 
" style="fill:none;stroke:#000000;stroke-width:1.5;"/>
    <path clip-path="url(#pfa40a90e97)" d="M 544.029191 97.58 
L 544.029191 93.463529 
" style="fill:none;stroke:#000000;stroke-width:1.5;"/>
    <path clip-path="url(#pfa40a90e97)" d="M 549.588422 97.58 
L 549.588422 93.463529 
" style="fill:none;stroke:#000000;stroke-width:1.5;"/>
   </g>
   <g id="LineCollection_15">
    <path clip-path="url(#pfa40a90e97)" d="M 67.597298 93.463529 
L 67.597298 89.347059 
" style="fill:none;stroke:#000000;stroke-width:1.5;"/>
    <path clip-path="url(#pfa40a90e97)" d="M 86.220722 93.463529 
L 86.220722 89.347059 
" style="fill:none;stroke:#000000;stroke-width:1.5;"/>
    <path clip-path="url(#pfa40a90e97)" d="M 139.282424 93.463529 
L 139.282424 89.347059 
" style="fill:none;stroke:#000000;stroke-width:1.5;"/>
    <path clip-path="url(#pfa40a90e97)" d="M 142.756944 93.463529 
L 142.756944 89.347059 
" style="fill:none;stroke:#000000;stroke-width:1.5;"/>
    <path clip-path="url(#pfa40a90e97)" d="M 175.591152 93.463529 
L 175.591152 89.347059 
" style="fill:none;stroke:#000000;stroke-width:1.5;"/>
    <path clip-path="url(#pfa40a90e97)" d="M 189.500811 93.463529 
L 189.500811 89.347059 
" style="fill:none;stroke:#000000;stroke-width:1.5;"/>
    <path clip-path="url(#pfa40a90e97)" d="M 203.497334 93.463529 
L 203.497334 89.347059 
" style="fill:none;stroke:#000000;stroke-width:1.5;"/>
    <path clip-path="url(#pfa40a90e97)" d="M 221.541671 93.463529 
L 221.541671 89.347059 
" style="fill:none;stroke:#000000;stroke-width:1.5;"/>
    <path clip-path="url(#pfa40a90e97)" d="M 238.549444 93.463529 
L 238.549444 89.347059 
" style="fill:none;stroke:#000000;stroke-width:1.5;"/>
    <path clip-path="url(#pfa40a90e97)" d="M 264.405659 93.463529 
L 264.405659 89.347059 
" style="fill:none;stroke:#000000;stroke-width:1.5;"/>
    <path clip-path="url(#pfa40a90e97)" d="M 271.0362 93.463529 
L 271.0362 89.347059 
" style="fill:none;stroke:#000000;stroke-width:1.5;"/>
    <path clip-path="url(#pfa40a90e97)" d="M 277.296126 93.463529 
L 277.296126 89.347059 
" style="fill:none;stroke:#000000;stroke-width:1.5;"/>
    <path clip-path="url(#pfa40a90e97)" d="M 282.994338 93.463529 
L 282.994338 89.347059 
" style="fill:none;stroke:#000000;stroke-width:1.5;"/>
    <path clip-path="url(#pfa40a90e97)" d="M 297.92319 93.463529 
L 297.92319 89.347059 
" style="fill:none;stroke:#000000;stroke-width:1.5;"/>
    <path clip-path="url(#pfa40a90e97)" d="M 304.501613 93.463529 
L 304.501613 89.347059 
" style="fill:none;stroke:#000000;stroke-width:1.5;"/>
    <path clip-path="url(#pfa40a90e97)" d="M 352.959577 93.463529 
L 352.959577 89.347059 
" style="fill:none;stroke:#000000;stroke-width:1.5;"/>
    <path clip-path="url(#pfa40a90e97)" d="M 361.362123 93.463529 
L 361.362123 89.347059 
" style="fill:none;stroke:#000000;stroke-width:1.5;"/>
    <path clip-path="url(#pfa40a90e97)" d="M 365.213049 93.463529 
L 365.213049 89.347059 
" style="fill:none;stroke:#000000;stroke-width:1.5;"/>
    <path clip-path="url(#pfa40a90e97)" d="M 378.607322 93.463529 
L 378.607322 89.347059 
" style="fill:none;stroke:#000000;stroke-width:1.5;"/>
    <path clip-path="url(#pfa40a90e97)" d="M 400.323068 93.463529 
L 400.323068 89.347059 
" style="fill:none;stroke:#000000;stroke-width:1.5;"/>
    <path clip-path="url(#pfa40a90e97)" d="M 423.915055 93.463529 
L 423.915055 89.347059 
" style="fill:none;stroke:#000000;stroke-width:1.5;"/>
    <path clip-path="url(#pfa40a90e97)" d="M 440.917036 93.463529 
L 440.917036 89.347059 
" style="fill:none;stroke:#000000;stroke-width:1.5;"/>
    <path clip-path="url(#pfa40a90e97)" d="M 445.08646 93.463529 
L 445.08646 89.347059 
" style="fill:none;stroke:#000000;stroke-width:1.5;"/>
    <path clip-path="url(#pfa40a90e97)" d="M 473.426956 93.463529 
L 473.426956 89.347059 
" style="fill:none;stroke:#000000;stroke-width:1.5;"/>
    <path clip-path="url(#pfa40a90e97)" d="M 487.527714 93.463529 
L 487.527714 89.347059 
" style="fill:none;stroke:#000000;stroke-width:1.5;"/>
    <path clip-path="url(#pfa40a90e97)" d="M 491.807164 93.463529 
L 491.807164 89.347059 
" style="fill:none;stroke:#000000;stroke-width:1.5;"/>
    <path clip-path="url(#pfa40a90e97)" d="M 506.504381 93.463529 
L 506.504381 89.347059 
" style="fill:none;stroke:#000000;stroke-width:1.5;"/>
    <path clip-path="url(#pfa40a90e97)" d="M 509.011826 93.463529 
L 509.011826 89.347059 
" style="fill:none;stroke:#000000;stroke-width:1.5;"/>
    <path clip-path="url(#pfa40a90e97)" d="M 514.044088 93.463529 
L 514.044088 89.347059 
" style="fill:none;stroke:#000000;stroke-width:1.5;"/>
    <path clip-path="url(#pfa40a90e97)" d="M 532.076844 93.463529 
L 532.076844 89.347059 
" style="fill:none;stroke:#000000;stroke-width:1.5;"/>
    <path clip-path="url(#pfa40a90e97)" d="M 535.945142 93.463529 
L 535.945142 89.347059 
" style="fill:none;stroke:#000000;stroke-width:1.5;"/>
    <path clip-path="url(#pfa40a90e97)" d="M 556.774886 93.463529 
L 556.774886 89.347059 
" style="fill:none;stroke:#000000;stroke-width:1.5;"/>
   </g>
   <g id="LineCollection_16">
    <path clip-path="url(#pfa40a90e97)" d="M 230.725984 85.230588 
L 230.725984 81.114118 
" style="fill:none;stroke:#000000;stroke-width:1.5;"/>
    <path clip-path="url(#pfa40a90e97)" d="M 236.91642 85.230588 
L 236.91642 81.114118 
" style="fill:none;stroke:#000000;stroke-width:1.5;"/>
   </g>
   <g id="LineCollection_17">
    <path clip-path="url(#pfa40a90e97)" d="M 380.431444 81.114118 
L 380.431444 76.997647 
" style="fill:none;stroke:#000000;stroke-width:1.5;"/>
    <path clip-path="url(#pfa40a90e97)" d="M 380.877341 81.114118 
L 380.877341 76.997647 
" style="fill:none;stroke:#000000;stroke-width:1.5;"/>
   </g>
   <g id="LineCollection_18">
    <path clip-path="url(#pfa40a90e97)" d="M 51.550809 72.881176 
L 51.550809 68.764706 
" style="fill:none;stroke:#000000;stroke-width:1.5;"/>
    <path clip-path="url(#pfa40a90e97)" d="M 54.782112 72.881176 
L 54.782112 68.764706 
" style="fill:none;stroke:#000000;stroke-width:1.5;"/>
    <path clip-path="url(#pfa40a90e97)" d="M 60.063381 72.881176 
L 60.063381 68.764706 
" style="fill:none;stroke:#000000;stroke-width:1.5;"/>
    <path clip-path="url(#pfa40a90e97)" d="M 71.946238 72.881176 
L 71.946238 68.764706 
" style="fill:none;stroke:#000000;stroke-width:1.5;"/>
    <path clip-path="url(#pfa40a90e97)" d="M 78.269863 72.881176 
L 78.269863 68.764706 
" style="fill:none;stroke:#000000;stroke-width:1.5;"/>
    <path clip-path="url(#pfa40a90e97)" d="M 83.470061 72.881176 
L 83.470061 68.764706 
" style="fill:none;stroke:#000000;stroke-width:1.5;"/>
    <path clip-path="url(#pfa40a90e97)" d="M 86.180186 72.881176 
L 86.180186 68.764706 
" style="fill:none;stroke:#000000;stroke-width:1.5;"/>
    <path clip-path="url(#pfa40a90e97)" d="M 116.854401 72.881176 
L 116.854401 68.764706 
" style="fill:none;stroke:#000000;stroke-width:1.5;"/>
    <path clip-path="url(#pfa40a90e97)" d="M 128.876239 72.881176 
L 128.876239 68.764706 
" style="fill:none;stroke:#000000;stroke-width:1.5;"/>
    <path clip-path="url(#pfa40a90e97)" d="M 141.899895 72.881176 
L 141.899895 68.764706 
" style="fill:none;stroke:#000000;stroke-width:1.5;"/>
    <path clip-path="url(#pfa40a90e97)" d="M 159.440428 72.881176 
L 159.440428 68.764706 
" style="fill:none;stroke:#000000;stroke-width:1.5;"/>
    <path clip-path="url(#pfa40a90e97)" d="M 161.212433 72.881176 
L 161.212433 68.764706 
" style="fill:none;stroke:#000000;stroke-width:1.5;"/>
    <path clip-path="url(#pfa40a90e97)" d="M 180.698696 72.881176 
L 180.698696 68.764706 
" style="fill:none;stroke:#000000;stroke-width:1.5;"/>
    <path clip-path="url(#pfa40a90e97)" d="M 182.592309 72.881176 
L 182.592309 68.764706 
" style="fill:none;stroke:#000000;stroke-width:1.5;"/>
    <path clip-path="url(#pfa40a90e97)" d="M 187.728807 72.881176 
L 187.728807 68.764706 
" style="fill:none;stroke:#000000;stroke-width:1.5;"/>
    <path clip-path="url(#pfa40a90e97)" d="M 207.110834 72.881176 
L 207.110834 68.764706 
" style="fill:none;stroke:#000000;stroke-width:1.5;"/>
    <path clip-path="url(#pfa40a90e97)" d="M 215.797133 72.881176 
L 215.797133 68.764706 
" style="fill:none;stroke:#000000;stroke-width:1.5;"/>
    <path clip-path="url(#pfa40a90e97)" d="M 226.828732 72.881176 
L 226.828732 68.764706 
" style="fill:none;stroke:#000000;stroke-width:1.5;"/>
    <path clip-path="url(#pfa40a90e97)" d="M 260.711087 72.881176 
L 260.711087 68.764706 
" style="fill:none;stroke:#000000;stroke-width:1.5;"/>
    <path clip-path="url(#pfa40a90e97)" d="M 289.815978 72.881176 
L 289.815978 68.764706 
" style="fill:none;stroke:#000000;stroke-width:1.5;"/>
    <path clip-path="url(#pfa40a90e97)" d="M 340.688733 72.881176 
L 340.688733 68.764706 
" style="fill:none;stroke:#000000;stroke-width:1.5;"/>
    <path clip-path="url(#pfa40a90e97)" d="M 351.749286 72.881176 
L 351.749286 68.764706 
" style="fill:none;stroke:#000000;stroke-width:1.5;"/>
    <path clip-path="url(#pfa40a90e97)" d="M 355.218015 72.881176 
L 355.218015 68.764706 
" style="fill:none;stroke:#000000;stroke-width:1.5;"/>
    <path clip-path="url(#pfa40a90e97)" d="M 417.811482 72.881176 
L 417.811482 68.764706 
" style="fill:none;stroke:#000000;stroke-width:1.5;"/>
    <path clip-path="url(#pfa40a90e97)" d="M 426.381963 72.881176 
L 426.381963 68.764706 
" style="fill:none;stroke:#000000;stroke-width:1.5;"/>
    <path clip-path="url(#pfa40a90e97)" d="M 428.646192 72.881176 
L 428.646192 68.764706 
" style="fill:none;stroke:#000000;stroke-width:1.5;"/>
    <path clip-path="url(#pfa40a90e97)" d="M 430.927793 72.881176 
L 430.927793 68.764706 
" style="fill:none;stroke:#000000;stroke-width:1.5;"/>
    <path clip-path="url(#pfa40a90e97)" d="M 538.979556 72.881176 
L 538.979556 68.764706 
" style="fill:none;stroke:#000000;stroke-width:1.5;"/>
   </g>
   <g id="LineCollection_19">
    <path clip-path="url(#pfa40a90e97)" d="M 67.267218 68.764706 
L 67.267218 64.648235 
" style="fill:none;stroke:#000000;stroke-width:1.5;"/>
    <path clip-path="url(#pfa40a90e97)" d="M 115.597783 68.764706 
L 115.597783 64.648235 
" style="fill:none;stroke:#000000;stroke-width:1.5;"/>
    <path clip-path="url(#pfa40a90e97)" d="M 134.782922 68.764706 
L 134.782922 64.648235 
" style="fill:none;stroke:#000000;stroke-width:1.5;"/>
    <path clip-path="url(#pfa40a90e97)" d="M 148.6173 68.764706 
L 148.6173 64.648235 
" style="fill:none;stroke:#000000;stroke-width:1.5;"/>
    <path clip-path="url(#pfa40a90e97)" d="M 206.161132 68.764706 
L 206.161132 64.648235 
" style="fill:none;stroke:#000000;stroke-width:1.5;"/>
    <path clip-path="url(#pfa40a90e97)" d="M 230.575422 68.764706 
L 230.575422 64.648235 
" style="fill:none;stroke:#000000;stroke-width:1.5;"/>
    <path clip-path="url(#pfa40a90e97)" d="M 252.777601 68.764706 
L 252.777601 64.648235 
" style="fill:none;stroke:#000000;stroke-width:1.5;"/>
    <path clip-path="url(#pfa40a90e97)" d="M 283.550261 68.764706 
L 283.550261 64.648235 
" style="fill:none;stroke:#000000;stroke-width:1.5;"/>
    <path clip-path="url(#pfa40a90e97)" d="M 288.431961 68.764706 
L 288.431961 64.648235 
" style="fill:none;stroke:#000000;stroke-width:1.5;"/>
    <path clip-path="url(#pfa40a90e97)" d="M 300.80125 68.764706 
L 300.80125 64.648235 
" style="fill:none;stroke:#000000;stroke-width:1.5;"/>
    <path clip-path="url(#pfa40a90e97)" d="M 390.623368 68.764706 
L 390.623368 64.648235 
" style="fill:none;stroke:#000000;stroke-width:1.5;"/>
    <path clip-path="url(#pfa40a90e97)" d="M 430.30238 68.764706 
L 430.30238 64.648235 
" style="fill:none;stroke:#000000;stroke-width:1.5;"/>
    <path clip-path="url(#pfa40a90e97)" d="M 438.971305 68.764706 
L 438.971305 64.648235 
" style="fill:none;stroke:#000000;stroke-width:1.5;"/>
    <path clip-path="url(#pfa40a90e97)" d="M 463.843074 68.764706 
L 463.843074 64.648235 
" style="fill:none;stroke:#000000;stroke-width:1.5;"/>
    <path clip-path="url(#pfa40a90e97)" d="M 485.69201 68.764706 
L 485.69201 64.648235 
" style="fill:none;stroke:#000000;stroke-width:1.5;"/>
    <path clip-path="url(#pfa40a90e97)" d="M 499.462689 68.764706 
L 499.462689 64.648235 
" style="fill:none;stroke:#000000;stroke-width:1.5;"/>
    <path clip-path="url(#pfa40a90e97)" d="M 529.470955 68.764706 
L 529.470955 64.648235 
" style="fill:none;stroke:#000000;stroke-width:1.5;"/>
   </g>
   <g id="LineCollection_20">
    <path clip-path="url(#pfa40a90e97)" d="M 89.892131 64.648235 
L 89.892131 60.531765 
" style="fill:none;stroke:#000000;stroke-width:1.5;"/>
    <path clip-path="url(#pfa40a90e97)" d="M 92.637001 64.648235 
L 92.637001 60.531765 
" style="fill:none;stroke:#000000;stroke-width:1.5;"/>
    <path clip-path="url(#pfa40a90e97)" d="M 93.604076 64.648235 
L 93.604076 60.531765 
" style="fill:none;stroke:#000000;stroke-width:1.5;"/>
    <path clip-path="url(#pfa40a90e97)" d="M 136.688116 64.648235 
L 136.688116 60.531765 
" style="fill:none;stroke:#000000;stroke-width:1.5;"/>
    <path clip-path="url(#pfa40a90e97)" d="M 137.98527 64.648235 
L 137.98527 60.531765 
" style="fill:none;stroke:#000000;stroke-width:1.5;"/>
    <path clip-path="url(#pfa40a90e97)" d="M 138.888645 64.648235 
L 138.888645 60.531765 
" style="fill:none;stroke:#000000;stroke-width:1.5;"/>
    <path clip-path="url(#pfa40a90e97)" d="M 141.430835 64.648235 
L 141.430835 60.531765 
" style="fill:none;stroke:#000000;stroke-width:1.5;"/>
    <path clip-path="url(#pfa40a90e97)" d="M 142.305256 64.648235 
L 142.305256 60.531765 
" style="fill:none;stroke:#000000;stroke-width:1.5;"/>
    <path clip-path="url(#pfa40a90e97)" d="M 143.364984 64.648235 
L 143.364984 60.531765 
" style="fill:none;stroke:#000000;stroke-width:1.5;"/>
    <path clip-path="url(#pfa40a90e97)" d="M 147.27961 64.648235 
L 147.27961 60.531765 
" style="fill:none;stroke:#000000;stroke-width:1.5;"/>
    <path clip-path="url(#pfa40a90e97)" d="M 149.526466 64.648235 
L 149.526466 60.531765 
" style="fill:none;stroke:#000000;stroke-width:1.5;"/>
    <path clip-path="url(#pfa40a90e97)" d="M 151.003136 64.648235 
L 151.003136 60.531765 
" style="fill:none;stroke:#000000;stroke-width:1.5;"/>
    <path clip-path="url(#pfa40a90e97)" d="M 153.23841 64.648235 
L 153.23841 60.531765 
" style="fill:none;stroke:#000000;stroke-width:1.5;"/>
    <path clip-path="url(#pfa40a90e97)" d="M 155.421567 64.648235 
L 155.421567 60.531765 
" style="fill:none;stroke:#000000;stroke-width:1.5;"/>
    <path clip-path="url(#pfa40a90e97)" d="M 160.036887 64.648235 
L 160.036887 60.531765 
" style="fill:none;stroke:#000000;stroke-width:1.5;"/>
    <path clip-path="url(#pfa40a90e97)" d="M 195.922882 64.648235 
L 195.922882 60.531765 
" style="fill:none;stroke:#000000;stroke-width:1.5;"/>
    <path clip-path="url(#pfa40a90e97)" d="M 196.403523 64.648235 
L 196.403523 60.531765 
" style="fill:none;stroke:#000000;stroke-width:1.5;"/>
    <path clip-path="url(#pfa40a90e97)" d="M 196.98261 64.648235 
L 196.98261 60.531765 
" style="fill:none;stroke:#000000;stroke-width:1.5;"/>
    <path clip-path="url(#pfa40a90e97)" d="M 198.030757 64.648235 
L 198.030757 60.531765 
" style="fill:none;stroke:#000000;stroke-width:1.5;"/>
    <path clip-path="url(#pfa40a90e97)" d="M 198.795151 64.648235 
L 198.795151 60.531765 
" style="fill:none;stroke:#000000;stroke-width:1.5;"/>
    <path clip-path="url(#pfa40a90e97)" d="M 200.567156 64.648235 
L 200.567156 60.531765 
" style="fill:none;stroke:#000000;stroke-width:1.5;"/>
    <path clip-path="url(#pfa40a90e97)" d="M 223.591638 64.648235 
L 223.591638 60.531765 
" style="fill:none;stroke:#000000;stroke-width:1.5;"/>
    <path clip-path="url(#pfa40a90e97)" d="M 231.16609 64.648235 
L 231.16609 60.531765 
" style="fill:none;stroke:#000000;stroke-width:1.5;"/>
    <path clip-path="url(#pfa40a90e97)" d="M 237.709768 64.648235 
L 237.709768 60.531765 
" style="fill:none;stroke:#000000;stroke-width:1.5;"/>
    <path clip-path="url(#pfa40a90e97)" d="M 311.508561 64.648235 
L 311.508561 60.531765 
" style="fill:none;stroke:#000000;stroke-width:1.5;"/>
    <path clip-path="url(#pfa40a90e97)" d="M 484.852334 64.648235 
L 484.852334 60.531765 
" style="fill:none;stroke:#000000;stroke-width:1.5;"/>
    <path clip-path="url(#pfa40a90e97)" d="M 506.63178 64.648235 
L 506.63178 60.531765 
" style="fill:none;stroke:#000000;stroke-width:1.5;"/>
    <path clip-path="url(#pfa40a90e97)" d="M 514.090415 64.648235 
L 514.090415 60.531765 
" style="fill:none;stroke:#000000;stroke-width:1.5;"/>
    <path clip-path="url(#pfa40a90e97)" d="M 514.9243 64.648235 
L 514.9243 60.531765 
" style="fill:none;stroke:#000000;stroke-width:1.5;"/>
    <path clip-path="url(#pfa40a90e97)" d="M 518.613081 64.648235 
L 518.613081 60.531765 
" style="fill:none;stroke:#000000;stroke-width:1.5;"/>
    <path clip-path="url(#pfa40a90e97)" d="M 527.212517 64.648235 
L 527.212517 60.531765 
" style="fill:none;stroke:#000000;stroke-width:1.5;"/>
    <path clip-path="url(#pfa40a90e97)" d="M 527.843721 64.648235 
L 527.843721 60.531765 
" style="fill:none;stroke:#000000;stroke-width:1.5;"/>
    <path clip-path="url(#pfa40a90e97)" d="M 528.805005 64.648235 
L 528.805005 60.531765 
" style="fill:none;stroke:#000000;stroke-width:1.5;"/>
    <path clip-path="url(#pfa40a90e97)" d="M 530.565428 64.648235 
L 530.565428 60.531765 
" style="fill:none;stroke:#000000;stroke-width:1.5;"/>
    <path clip-path="url(#pfa40a90e97)" d="M 531.903118 64.648235 
L 531.903118 60.531765 
" style="fill:none;stroke:#000000;stroke-width:1.5;"/>
    <path clip-path="url(#pfa40a90e97)" d="M 533.136573 64.648235 
L 533.136573 60.531765 
" style="fill:none;stroke:#000000;stroke-width:1.5;"/>
    <path clip-path="url(#pfa40a90e97)" d="M 536.281013 64.648235 
L 536.281013 60.531765 
" style="fill:none;stroke:#000000;stroke-width:1.5;"/>
   </g>
   <g id="LineCollection_21">
    <path clip-path="url(#pfa40a90e97)" d="M 234.768009 56.415294 
L 234.768009 52.298824 
" style="fill:none;stroke:#000000;stroke-width:1.5;"/>
    <path clip-path="url(#pfa40a90e97)" d="M 236.296797 56.415294 
L 236.296797 52.298824 
" style="fill:none;stroke:#000000;stroke-width:1.5;"/>
    <path clip-path="url(#pfa40a90e97)" d="M 242.504605 56.415294 
L 242.504605 52.298824 
" style="fill:none;stroke:#000000;stroke-width:1.5;"/>
    <path clip-path="url(#pfa40a90e97)" d="M 266.982594 56.415294 
L 266.982594 52.298824 
" style="fill:none;stroke:#000000;stroke-width:1.5;"/>
    <path clip-path="url(#pfa40a90e97)" d="M 272.466544 56.415294 
L 272.466544 52.298824 
" style="fill:none;stroke:#000000;stroke-width:1.5;"/>
    <path clip-path="url(#pfa40a90e97)" d="M 284.407309 56.415294 
L 284.407309 52.298824 
" style="fill:none;stroke:#000000;stroke-width:1.5;"/>
    <path clip-path="url(#pfa40a90e97)" d="M 324.920206 56.415294 
L 324.920206 52.298824 
" style="fill:none;stroke:#000000;stroke-width:1.5;"/>
    <path clip-path="url(#pfa40a90e97)" d="M 330.392574 56.415294 
L 330.392574 52.298824 
" style="fill:none;stroke:#000000;stroke-width:1.5;"/>
    <path clip-path="url(#pfa40a90e97)" d="M 440.639075 56.415294 
L 440.639075 52.298824 
" style="fill:none;stroke:#000000;stroke-width:1.5;"/>
    <path clip-path="url(#pfa40a90e97)" d="M 489.461863 56.415294 
L 489.461863 52.298824 
" style="fill:none;stroke:#000000;stroke-width:1.5;"/>
    <path clip-path="url(#pfa40a90e97)" d="M 502.369703 56.415294 
L 502.369703 52.298824 
" style="fill:none;stroke:#000000;stroke-width:1.5;"/>
    <path clip-path="url(#pfa40a90e97)" d="M 536.715328 56.415294 
L 536.715328 52.298824 
" style="fill:none;stroke:#000000;stroke-width:1.5;"/>
   </g>
   <g id="LineCollection_22">
    <path clip-path="url(#pfa40a90e97)" d="M 59.25266 52.298824 
L 59.25266 48.182353 
" style="fill:none;stroke:#000000;stroke-width:1.5;"/>
    <path clip-path="url(#pfa40a90e97)" d="M 106.731968 52.298824 
L 106.731968 48.182353 
" style="fill:none;stroke:#000000;stroke-width:1.5;"/>
    <path clip-path="url(#pfa40a90e97)" d="M 243.697523 52.298824 
L 243.697523 48.182353 
" style="fill:none;stroke:#000000;stroke-width:1.5;"/>
    <path clip-path="url(#pfa40a90e97)" d="M 289.821769 52.298824 
L 289.821769 48.182353 
" style="fill:none;stroke:#000000;stroke-width:1.5;"/>
    <path clip-path="url(#pfa40a90e97)" d="M 482.258027 52.298824 
L 482.258027 48.182353 
" style="fill:none;stroke:#000000;stroke-width:1.5;"/>
    <path clip-path="url(#pfa40a90e97)" d="M 522.55087 52.298824 
L 522.55087 48.182353 
" style="fill:none;stroke:#000000;stroke-width:1.5;"/>
    <path clip-path="url(#pfa40a90e97)" d="M 536.726909 52.298824 
L 536.726909 48.182353 
" style="fill:none;stroke:#000000;stroke-width:1.5;"/>
    <path clip-path="url(#pfa40a90e97)" d="M 540.803679 52.298824 
L 540.803679 48.182353 
" style="fill:none;stroke:#000000;stroke-width:1.5;"/>
   </g>
   <g id="LineCollection_23">
    <path clip-path="url(#pfa40a90e97)" d="M 465.510843 48.182353 
L 465.510843 44.065882 
" style="fill:none;stroke:#000000;stroke-width:1.5;"/>
    <path clip-path="url(#pfa40a90e97)" d="M 466.773252 48.182353 
L 466.773252 44.065882 
" style="fill:none;stroke:#000000;stroke-width:1.5;"/>
   </g>
   <g id="LineCollection_24">
    <path clip-path="url(#pfa40a90e97)" d="M 552.958706 44.065882 
L 552.958706 39.949412 
" style="fill:none;stroke:#000000;stroke-width:1.5;"/>
    <path clip-path="url(#pfa40a90e97)" d="M 553.752054 44.065882 
L 553.752054 39.949412 
" style="fill:none;stroke:#000000;stroke-width:1.5;"/>
   </g>
   <g id="LineCollection_25">
    <path clip-path="url(#pfa40a90e97)" d="M 126.47882 39.949412 
L 126.47882 35.832941 
" style="fill:none;stroke:#000000;stroke-width:1.5;"/>
    <path clip-path="url(#pfa40a90e97)" d="M 127.729647 39.949412 
L 127.729647 35.832941 
" style="fill:none;stroke:#000000;stroke-width:1.5;"/>
    <path clip-path="url(#pfa40a90e97)" d="M 223.516357 39.949412 
L 223.516357 35.832941 
" style="fill:none;stroke:#000000;stroke-width:1.5;"/>
    <path clip-path="url(#pfa40a90e97)" d="M 270.798775 39.949412 
L 270.798775 35.832941 
" style="fill:none;stroke:#000000;stroke-width:1.5;"/>
    <path clip-path="url(#pfa40a90e97)" d="M 271.684777 39.949412 
L 271.684777 35.832941 
" style="fill:none;stroke:#000000;stroke-width:1.5;"/>
   </g>
   <g id="patch_3">
    <path d="M 28.48 167.56 
L 28.48 27.6 
" style="fill:none;stroke:#000000;stroke-linecap:square;stroke-linejoin:miter;stroke-width:0.8;"/>
   </g>
   <g id="patch_4">
    <path d="M 560.081471 167.56 
L 560.081471 27.6 
" style="fill:none;stroke:#000000;stroke-linecap:square;stroke-linejoin:miter;stroke-width:0.8;"/>
   </g>
   <g id="patch_5">
    <path d="M 28.48 167.56 
L 560.081471 167.56 
" style="fill:none;stroke:#000000;stroke-linecap:square;stroke-linejoin:miter;stroke-width:0.8;"/>
   </g>
   <g id="patch_6">
    <path d="M 28.48 27.6 
L 560.081471 27.6 
" style="fill:none;stroke:#000000;stroke-linecap:square;stroke-linejoin:miter;stroke-width:0.8;"/>
   </g>
   <g id="text_10">
    <!-- Hippocampus raster -->
    <defs>
     <path d="M 9.8125 72.90625 
L 19.671875 72.90625 
L 19.671875 43.015625 
L 55.515625 43.015625 
L 55.515625 72.90625 
L 65.375 72.90625 
L 65.375 0 
L 55.515625 0 
L 55.515625 34.71875 
L 19.671875 34.71875 
L 19.671875 0 
L 9.8125 0 
z
" id="DejaVuSans-72"/>
     <path d="M 18.109375 8.203125 
L 18.109375 -20.796875 
L 9.078125 -20.796875 
L 9.078125 54.6875 
L 18.109375 54.6875 
L 18.109375 46.390625 
Q 20.953125 51.265625 25.265625 53.625 
Q 29.59375 56 35.59375 56 
Q 45.5625 56 51.78125 48.09375 
Q 58.015625 40.1875 58.015625 27.296875 
Q 58.015625 14.40625 51.78125 6.484375 
Q 45.5625 -1.421875 35.59375 -1.421875 
Q 29.59375 -1.421875 25.265625 0.953125 
Q 20.953125 3.328125 18.109375 8.203125 
z
M 48.6875 27.296875 
Q 48.6875 37.203125 44.609375 42.84375 
Q 40.53125 48.484375 33.40625 48.484375 
Q 26.265625 48.484375 22.1875 42.84375 
Q 18.109375 37.203125 18.109375 27.296875 
Q 18.109375 17.390625 22.1875 11.75 
Q 26.265625 6.109375 33.40625 6.109375 
Q 40.53125 6.109375 44.609375 11.75 
Q 48.6875 17.390625 48.6875 27.296875 
z
" id="DejaVuSans-112"/>
     <path d="M 30.609375 48.390625 
Q 23.390625 48.390625 19.1875 42.75 
Q 14.984375 37.109375 14.984375 27.296875 
Q 14.984375 17.484375 19.15625 11.84375 
Q 23.34375 6.203125 30.609375 6.203125 
Q 37.796875 6.203125 41.984375 11.859375 
Q 46.1875 17.53125 46.1875 27.296875 
Q 46.1875 37.015625 41.984375 42.703125 
Q 37.796875 48.390625 30.609375 48.390625 
z
M 30.609375 56 
Q 42.328125 56 49.015625 48.375 
Q 55.71875 40.765625 55.71875 27.296875 
Q 55.71875 13.875 49.015625 6.21875 
Q 42.328125 -1.421875 30.609375 -1.421875 
Q 18.84375 -1.421875 12.171875 6.21875 
Q 5.515625 13.875 5.515625 27.296875 
Q 5.515625 40.765625 12.171875 48.375 
Q 18.84375 56 30.609375 56 
z
" id="DejaVuSans-111"/>
     <path d="M 48.78125 52.59375 
L 48.78125 44.1875 
Q 44.96875 46.296875 41.140625 47.34375 
Q 37.3125 48.390625 33.40625 48.390625 
Q 24.65625 48.390625 19.8125 42.84375 
Q 14.984375 37.3125 14.984375 27.296875 
Q 14.984375 17.28125 19.8125 11.734375 
Q 24.65625 6.203125 33.40625 6.203125 
Q 37.3125 6.203125 41.140625 7.25 
Q 44.96875 8.296875 48.78125 10.40625 
L 48.78125 2.09375 
Q 45.015625 0.34375 40.984375 -0.53125 
Q 36.96875 -1.421875 32.421875 -1.421875 
Q 20.0625 -1.421875 12.78125 6.34375 
Q 5.515625 14.109375 5.515625 27.296875 
Q 5.515625 40.671875 12.859375 48.328125 
Q 20.21875 56 33.015625 56 
Q 37.15625 56 41.109375 55.140625 
Q 45.0625 54.296875 48.78125 52.59375 
z
" id="DejaVuSans-99"/>
     <path d="M 34.28125 27.484375 
Q 23.390625 27.484375 19.1875 25 
Q 14.984375 22.515625 14.984375 16.5 
Q 14.984375 11.71875 18.140625 8.90625 
Q 21.296875 6.109375 26.703125 6.109375 
Q 34.1875 6.109375 38.703125 11.40625 
Q 43.21875 16.703125 43.21875 25.484375 
L 43.21875 27.484375 
z
M 52.203125 31.203125 
L 52.203125 0 
L 43.21875 0 
L 43.21875 8.296875 
Q 40.140625 3.328125 35.546875 0.953125 
Q 30.953125 -1.421875 24.3125 -1.421875 
Q 15.921875 -1.421875 10.953125 3.296875 
Q 6 8.015625 6 15.921875 
Q 6 25.140625 12.171875 29.828125 
Q 18.359375 34.515625 30.609375 34.515625 
L 43.21875 34.515625 
L 43.21875 35.40625 
Q 43.21875 41.609375 39.140625 45 
Q 35.0625 48.390625 27.6875 48.390625 
Q 23 48.390625 18.546875 47.265625 
Q 14.109375 46.140625 10.015625 43.890625 
L 10.015625 52.203125 
Q 14.9375 54.109375 19.578125 55.046875 
Q 24.21875 56 28.609375 56 
Q 40.484375 56 46.34375 49.84375 
Q 52.203125 43.703125 52.203125 31.203125 
z
" id="DejaVuSans-97"/>
     <path d="M 8.5 21.578125 
L 8.5 54.6875 
L 17.484375 54.6875 
L 17.484375 21.921875 
Q 17.484375 14.15625 20.5 10.265625 
Q 23.53125 6.390625 29.59375 6.390625 
Q 36.859375 6.390625 41.078125 11.03125 
Q 45.3125 15.671875 45.3125 23.6875 
L 45.3125 54.6875 
L 54.296875 54.6875 
L 54.296875 0 
L 45.3125 0 
L 45.3125 8.40625 
Q 42.046875 3.421875 37.71875 1 
Q 33.40625 -1.421875 27.6875 -1.421875 
Q 18.265625 -1.421875 13.375 4.4375 
Q 8.5 10.296875 8.5 21.578125 
z
M 31.109375 56 
z
" id="DejaVuSans-117"/>
     <path d="M 41.109375 46.296875 
Q 39.59375 47.171875 37.8125 47.578125 
Q 36.03125 48 33.890625 48 
Q 26.265625 48 22.1875 43.046875 
Q 18.109375 38.09375 18.109375 28.8125 
L 18.109375 0 
L 9.078125 0 
L 9.078125 54.6875 
L 18.109375 54.6875 
L 18.109375 46.1875 
Q 20.953125 51.171875 25.484375 53.578125 
Q 30.03125 56 36.53125 56 
Q 37.453125 56 38.578125 55.875 
Q 39.703125 55.765625 41.0625 55.515625 
z
" id="DejaVuSans-114"/>
     <path d="M 18.3125 70.21875 
L 18.3125 54.6875 
L 36.8125 54.6875 
L 36.8125 47.703125 
L 18.3125 47.703125 
L 18.3125 18.015625 
Q 18.3125 11.328125 20.140625 9.421875 
Q 21.96875 7.515625 27.59375 7.515625 
L 36.8125 7.515625 
L 36.8125 0 
L 27.59375 0 
Q 17.1875 0 13.234375 3.875 
Q 9.28125 7.765625 9.28125 18.015625 
L 9.28125 47.703125 
L 2.6875 47.703125 
L 2.6875 54.6875 
L 9.28125 54.6875 
L 9.28125 70.21875 
z
" id="DejaVuSans-116"/>
    </defs>
    <g transform="translate(221.425735 21.6)scale(0.144 -0.144)">
     <use xlink:href="#DejaVuSans-72"/>
     <use x="75.195312" xlink:href="#DejaVuSans-105"/>
     <use x="102.978516" xlink:href="#DejaVuSans-112"/>
     <use x="166.455078" xlink:href="#DejaVuSans-112"/>
     <use x="229.931641" xlink:href="#DejaVuSans-111"/>
     <use x="291.113281" xlink:href="#DejaVuSans-99"/>
     <use x="346.09375" xlink:href="#DejaVuSans-97"/>
     <use x="407.373047" xlink:href="#DejaVuSans-109"/>
     <use x="504.785156" xlink:href="#DejaVuSans-112"/>
     <use x="568.261719" xlink:href="#DejaVuSans-117"/>
     <use x="631.640625" xlink:href="#DejaVuSans-115"/>
     <use x="683.740234" xlink:href="#DejaVuSans-32"/>
     <use x="715.527344" xlink:href="#DejaVuSans-114"/>
     <use x="756.640625" xlink:href="#DejaVuSans-97"/>
     <use x="817.919922" xlink:href="#DejaVuSans-115"/>
     <use x="870.019531" xlink:href="#DejaVuSans-116"/>
     <use x="909.228516" xlink:href="#DejaVuSans-101"/>
     <use x="970.751953" xlink:href="#DejaVuSans-114"/>
    </g>
   </g>
  </g>
 </g>
 <defs>
  <clipPath id="pfa40a90e97">
   <rect height="139.96" width="531.601471" x="28.48" y="27.6"/>
  </clipPath>
 </defs>
</svg>
