<?xml version="1.0" encoding="utf-8" standalone="no"?>
<!DOCTYPE svg PUBLIC "-//W3C//DTD SVG 1.1//EN"
  "http://www.w3.org/Graphics/SVG/1.1/DTD/svg11.dtd">
<!-- Created with matplotlib (https://matplotlib.org/) -->
<svg height="216pt" version="1.1" viewBox="0 0 576 216" width="576pt" xmlns="http://www.w3.org/2000/svg" xmlns:xlink="http://www.w3.org/1999/xlink">
 <defs>
  <style type="text/css">
*{stroke-linecap:butt;stroke-linejoin:round;}
  </style>
 </defs>
 <g id="figure_1">
  <g id="patch_1">
   <path d="M 0 216 
L 576 216 
L 576 0 
L 0 0 
z
" style="fill:#ffffff;"/>
  </g>
  <g id="axes_1">
   <g id="patch_2">
    <path d="M 28.48 167.56 
L 560.081471 167.56 
L 560.081471 27.6 
L 28.48 27.6 
z
" style="fill:#ffffff;"/>
   </g>
   <g id="PolyCollection_1">
    <defs>
     <path d="M 120.554765 -48.44 
L 120.554765 -188.4 
L 381.143721 -188.4 
L 381.143721 -48.44 
L 381.143721 -48.44 
L 120.554765 -48.44 
z
" id="m9bd54d3502" style="stroke:#808080;stroke-opacity:0.3;"/>
    </defs>
    <g clip-path="url(#pb8b611f298)">
     <use style="fill:#808080;fill-opacity:0.3;stroke:#808080;stroke-opacity:0.3;" x="0" xlink:href="#m9bd54d3502" y="216"/>
    </g>
   </g>
   <g id="matplotlib.axis_1">
    <g id="xtick_1">
     <g id="line2d_1">
      <defs>
       <path d="M 0 0 
L 0 3.5 
" id="m8b3991994d" style="stroke:#000000;stroke-width:0.8;"/>
      </defs>
      <g>
       <use style="stroke:#000000;stroke-width:0.8;" x="33.691779" xlink:href="#m8b3991994d" y="167.56"/>
      </g>
     </g>
     <g id="text_1">
      <!-- −0.5 -->
      <defs>
       <path d="M 10.59375 35.5 
L 73.1875 35.5 
L 73.1875 27.203125 
L 10.59375 27.203125 
z
" id="DejaVuSans-8722"/>
       <path d="M 31.78125 66.40625 
Q 24.171875 66.40625 20.328125 58.90625 
Q 16.5 51.421875 16.5 36.375 
Q 16.5 21.390625 20.328125 13.890625 
Q 24.171875 6.390625 31.78125 6.390625 
Q 39.453125 6.390625 43.28125 13.890625 
Q 47.125 21.390625 47.125 36.375 
Q 47.125 51.421875 43.28125 58.90625 
Q 39.453125 66.40625 31.78125 66.40625 
z
M 31.78125 74.21875 
Q 44.046875 74.21875 50.515625 64.515625 
Q 56.984375 54.828125 56.984375 36.375 
Q 56.984375 17.96875 50.515625 8.265625 
Q 44.046875 -1.421875 31.78125 -1.421875 
Q 19.53125 -1.421875 13.0625 8.265625 
Q 6.59375 17.96875 6.59375 36.375 
Q 6.59375 54.828125 13.0625 64.515625 
Q 19.53125 74.21875 31.78125 74.21875 
z
" id="DejaVuSans-48"/>
       <path d="M 10.6875 12.40625 
L 21 12.40625 
L 21 0 
L 10.6875 0 
z
" id="DejaVuSans-46"/>
       <path d="M 10.796875 72.90625 
L 49.515625 72.90625 
L 49.515625 64.59375 
L 19.828125 64.59375 
L 19.828125 46.734375 
Q 21.96875 47.46875 24.109375 47.828125 
Q 26.265625 48.1875 28.421875 48.1875 
Q 40.625 48.1875 47.75 41.5 
Q 54.890625 34.8125 54.890625 23.390625 
Q 54.890625 11.625 47.5625 5.09375 
Q 40.234375 -1.421875 26.90625 -1.421875 
Q 22.3125 -1.421875 17.546875 -0.640625 
Q 12.796875 0.140625 7.71875 1.703125 
L 7.71875 11.625 
Q 12.109375 9.234375 16.796875 8.0625 
Q 21.484375 6.890625 26.703125 6.890625 
Q 35.15625 6.890625 40.078125 11.328125 
Q 45.015625 15.765625 45.015625 23.390625 
Q 45.015625 31 40.078125 35.4375 
Q 35.15625 39.890625 26.703125 39.890625 
Q 22.75 39.890625 18.8125 39.015625 
Q 14.890625 38.140625 10.796875 36.28125 
z
" id="DejaVuSans-53"/>
      </defs>
      <g transform="translate(19.122092 183.678125)scale(0.12 -0.12)">
       <use xlink:href="#DejaVuSans-8722"/>
       <use x="83.789062" xlink:href="#DejaVuSans-48"/>
       <use x="147.412109" xlink:href="#DejaVuSans-46"/>
       <use x="179.199219" xlink:href="#DejaVuSans-53"/>
      </g>
     </g>
    </g>
    <g id="xtick_2">
     <g id="line2d_2">
      <g>
       <use style="stroke:#000000;stroke-width:0.8;" x="120.554765" xlink:href="#m8b3991994d" y="167.56"/>
      </g>
     </g>
     <g id="text_2">
      <!-- 0.0 -->
      <g transform="translate(111.01289 183.678125)scale(0.12 -0.12)">
       <use xlink:href="#DejaVuSans-48"/>
       <use x="63.623047" xlink:href="#DejaVuSans-46"/>
       <use x="95.410156" xlink:href="#DejaVuSans-48"/>
      </g>
     </g>
    </g>
    <g id="xtick_3">
     <g id="line2d_3">
      <g>
       <use style="stroke:#000000;stroke-width:0.8;" x="207.41775" xlink:href="#m8b3991994d" y="167.56"/>
      </g>
     </g>
     <g id="text_3">
      <!-- 0.5 -->
      <g transform="translate(197.875875 183.678125)scale(0.12 -0.12)">
       <use xlink:href="#DejaVuSans-48"/>
       <use x="63.623047" xlink:href="#DejaVuSans-46"/>
       <use x="95.410156" xlink:href="#DejaVuSans-53"/>
      </g>
     </g>
    </g>
    <g id="xtick_4">
     <g id="line2d_4">
      <g>
       <use style="stroke:#000000;stroke-width:0.8;" x="294.280735" xlink:href="#m8b3991994d" y="167.56"/>
      </g>
     </g>
     <g id="text_4">
      <!-- 1.0 -->
      <defs>
       <path d="M 12.40625 8.296875 
L 28.515625 8.296875 
L 28.515625 63.921875 
L 10.984375 60.40625 
L 10.984375 69.390625 
L 28.421875 72.90625 
L 38.28125 72.90625 
L 38.28125 8.296875 
L 54.390625 8.296875 
L 54.390625 0 
L 12.40625 0 
z
" id="DejaVuSans-49"/>
      </defs>
      <g transform="translate(284.73886 183.678125)scale(0.12 -0.12)">
       <use xlink:href="#DejaVuSans-49"/>
       <use x="63.623047" xlink:href="#DejaVuSans-46"/>
       <use x="95.410156" xlink:href="#DejaVuSans-48"/>
      </g>
     </g>
    </g>
    <g id="xtick_5">
     <g id="line2d_5">
      <g>
       <use style="stroke:#000000;stroke-width:0.8;" x="381.143721" xlink:href="#m8b3991994d" y="167.56"/>
      </g>
     </g>
     <g id="text_5">
      <!-- 1.5 -->
      <g transform="translate(371.601846 183.678125)scale(0.12 -0.12)">
       <use xlink:href="#DejaVuSans-49"/>
       <use x="63.623047" xlink:href="#DejaVuSans-46"/>
       <use x="95.410156" xlink:href="#DejaVuSans-53"/>
      </g>
     </g>
    </g>
    <g id="xtick_6">
     <g id="line2d_6">
      <g>
       <use style="stroke:#000000;stroke-width:0.8;" x="468.006706" xlink:href="#m8b3991994d" y="167.56"/>
      </g>
     </g>
     <g id="text_6">
      <!-- 2.0 -->
      <defs>
       <path d="M 19.1875 8.296875 
L 53.609375 8.296875 
L 53.609375 0 
L 7.328125 0 
L 7.328125 8.296875 
Q 12.9375 14.109375 22.625 23.890625 
Q 32.328125 33.6875 34.8125 36.53125 
Q 39.546875 41.84375 41.421875 45.53125 
Q 43.3125 49.21875 43.3125 52.78125 
Q 43.3125 58.59375 39.234375 62.25 
Q 35.15625 65.921875 28.609375 65.921875 
Q 23.96875 65.921875 18.8125 64.3125 
Q 13.671875 62.703125 7.8125 59.421875 
L 7.8125 69.390625 
Q 13.765625 71.78125 18.9375 73 
Q 24.125 74.21875 28.421875 74.21875 
Q 39.75 74.21875 46.484375 68.546875 
Q 53.21875 62.890625 53.21875 53.421875 
Q 53.21875 48.921875 51.53125 44.890625 
Q 49.859375 40.875 45.40625 35.40625 
Q 44.1875 33.984375 37.640625 27.21875 
Q 31.109375 20.453125 19.1875 8.296875 
z
" id="DejaVuSans-50"/>
      </defs>
      <g transform="translate(458.464831 183.678125)scale(0.12 -0.12)">
       <use xlink:href="#DejaVuSans-50"/>
       <use x="63.623047" xlink:href="#DejaVuSans-46"/>
       <use x="95.410156" xlink:href="#DejaVuSans-48"/>
      </g>
     </g>
    </g>
    <g id="xtick_7">
     <g id="line2d_7">
      <g>
       <use style="stroke:#000000;stroke-width:0.8;" x="554.869691" xlink:href="#m8b3991994d" y="167.56"/>
      </g>
     </g>
     <g id="text_7">
      <!-- 2.5 -->
      <g transform="translate(545.327816 183.678125)scale(0.12 -0.12)">
       <use xlink:href="#DejaVuSans-50"/>
       <use x="63.623047" xlink:href="#DejaVuSans-46"/>
       <use x="95.410156" xlink:href="#DejaVuSans-53"/>
      </g>
     </g>
    </g>
    <g id="text_8">
     <!-- Time (s) -->
     <defs>
      <path d="M -0.296875 72.90625 
L 61.375 72.90625 
L 61.375 64.59375 
L 35.5 64.59375 
L 35.5 0 
L 25.59375 0 
L 25.59375 64.59375 
L -0.296875 64.59375 
z
" id="DejaVuSans-84"/>
      <path d="M 9.421875 54.6875 
L 18.40625 54.6875 
L 18.40625 0 
L 9.421875 0 
z
M 9.421875 75.984375 
L 18.40625 75.984375 
L 18.40625 64.59375 
L 9.421875 64.59375 
z
" id="DejaVuSans-105"/>
      <path d="M 52 44.1875 
Q 55.375 50.25 60.0625 53.125 
Q 64.75 56 71.09375 56 
Q 79.640625 56 84.28125 50.015625 
Q 88.921875 44.046875 88.921875 33.015625 
L 88.921875 0 
L 79.890625 0 
L 79.890625 32.71875 
Q 79.890625 40.578125 77.09375 44.375 
Q 74.3125 48.1875 68.609375 48.1875 
Q 61.625 48.1875 57.5625 43.546875 
Q 53.515625 38.921875 53.515625 30.90625 
L 53.515625 0 
L 44.484375 0 
L 44.484375 32.71875 
Q 44.484375 40.625 41.703125 44.40625 
Q 38.921875 48.1875 33.109375 48.1875 
Q 26.21875 48.1875 22.15625 43.53125 
Q 18.109375 38.875 18.109375 30.90625 
L 18.109375 0 
L 9.078125 0 
L 9.078125 54.6875 
L 18.109375 54.6875 
L 18.109375 46.1875 
Q 21.1875 51.21875 25.484375 53.609375 
Q 29.78125 56 35.6875 56 
Q 41.65625 56 45.828125 52.96875 
Q 50 49.953125 52 44.1875 
z
" id="DejaVuSans-109"/>
      <path d="M 56.203125 29.59375 
L 56.203125 25.203125 
L 14.890625 25.203125 
Q 15.484375 15.921875 20.484375 11.0625 
Q 25.484375 6.203125 34.421875 6.203125 
Q 39.59375 6.203125 44.453125 7.46875 
Q 49.3125 8.734375 54.109375 11.28125 
L 54.109375 2.78125 
Q 49.265625 0.734375 44.1875 -0.34375 
Q 39.109375 -1.421875 33.890625 -1.421875 
Q 20.796875 -1.421875 13.15625 6.1875 
Q 5.515625 13.8125 5.515625 26.8125 
Q 5.515625 40.234375 12.765625 48.109375 
Q 20.015625 56 32.328125 56 
Q 43.359375 56 49.78125 48.890625 
Q 56.203125 41.796875 56.203125 29.59375 
z
M 47.21875 32.234375 
Q 47.125 39.59375 43.09375 43.984375 
Q 39.0625 48.390625 32.421875 48.390625 
Q 24.90625 48.390625 20.390625 44.140625 
Q 15.875 39.890625 15.1875 32.171875 
z
" id="DejaVuSans-101"/>
      <path id="DejaVuSans-32"/>
      <path d="M 31 75.875 
Q 24.46875 64.65625 21.28125 53.65625 
Q 18.109375 42.671875 18.109375 31.390625 
Q 18.109375 20.125 21.3125 9.0625 
Q 24.515625 -2 31 -13.1875 
L 23.1875 -13.1875 
Q 15.875 -1.703125 12.234375 9.375 
Q 8.59375 20.453125 8.59375 31.390625 
Q 8.59375 42.28125 12.203125 53.3125 
Q 15.828125 64.359375 23.1875 75.875 
z
" id="DejaVuSans-40"/>
      <path d="M 44.28125 53.078125 
L 44.28125 44.578125 
Q 40.484375 46.53125 36.375 47.5 
Q 32.28125 48.484375 27.875 48.484375 
Q 21.1875 48.484375 17.84375 46.4375 
Q 14.5 44.390625 14.5 40.28125 
Q 14.5 37.15625 16.890625 35.375 
Q 19.28125 33.59375 26.515625 31.984375 
L 29.59375 31.296875 
Q 39.15625 29.25 43.1875 25.515625 
Q 47.21875 21.78125 47.21875 15.09375 
Q 47.21875 7.46875 41.1875 3.015625 
Q 35.15625 -1.421875 24.609375 -1.421875 
Q 20.21875 -1.421875 15.453125 -0.5625 
Q 10.6875 0.296875 5.421875 2 
L 5.421875 11.28125 
Q 10.40625 8.6875 15.234375 7.390625 
Q 20.0625 6.109375 24.8125 6.109375 
Q 31.15625 6.109375 34.5625 8.28125 
Q 37.984375 10.453125 37.984375 14.40625 
Q 37.984375 18.0625 35.515625 20.015625 
Q 33.0625 21.96875 24.703125 23.78125 
L 21.578125 24.515625 
Q 13.234375 26.265625 9.515625 29.90625 
Q 5.8125 33.546875 5.8125 39.890625 
Q 5.8125 47.609375 11.28125 51.796875 
Q 16.75 56 26.8125 56 
Q 31.78125 56 36.171875 55.265625 
Q 40.578125 54.546875 44.28125 53.078125 
z
" id="DejaVuSans-115"/>
      <path d="M 8.015625 75.875 
L 15.828125 75.875 
Q 23.140625 64.359375 26.78125 53.3125 
Q 30.421875 42.28125 30.421875 31.390625 
Q 30.421875 20.453125 26.78125 9.375 
Q 23.140625 -1.703125 15.828125 -13.1875 
L 8.015625 -13.1875 
Q 14.5 -2 17.703125 9.0625 
Q 20.90625 20.125 20.90625 31.390625 
Q 20.90625 42.671875 17.703125 53.65625 
Q 14.5 64.65625 8.015625 75.875 
z
" id="DejaVuSans-41"/>
     </defs>
     <g transform="translate(264.785485 201.1155)scale(0.144 -0.144)">
      <use xlink:href="#DejaVuSans-84"/>
      <use x="61.037109" xlink:href="#DejaVuSans-105"/>
      <use x="88.820312" xlink:href="#DejaVuSans-109"/>
      <use x="186.232422" xlink:href="#DejaVuSans-101"/>
      <use x="247.755859" xlink:href="#DejaVuSans-32"/>
      <use x="279.542969" xlink:href="#DejaVuSans-40"/>
      <use x="318.556641" xlink:href="#DejaVuSans-115"/>
      <use x="370.65625" xlink:href="#DejaVuSans-41"/>
     </g>
    </g>
   </g>
   <g id="matplotlib.axis_2">
    <g id="text_9">
     <!-- Cells -->
     <defs>
      <path d="M 64.40625 67.28125 
L 64.40625 56.890625 
Q 59.421875 61.53125 53.78125 63.8125 
Q 48.140625 66.109375 41.796875 66.109375 
Q 29.296875 66.109375 22.65625 58.46875 
Q 16.015625 50.828125 16.015625 36.375 
Q 16.015625 21.96875 22.65625 14.328125 
Q 29.296875 6.6875 41.796875 6.6875 
Q 48.140625 6.6875 53.78125 8.984375 
Q 59.421875 11.28125 64.40625 15.921875 
L 64.40625 5.609375 
Q 59.234375 2.09375 53.4375 0.328125 
Q 47.65625 -1.421875 41.21875 -1.421875 
Q 24.65625 -1.421875 15.125 8.703125 
Q 5.609375 18.84375 5.609375 36.375 
Q 5.609375 53.953125 15.125 64.078125 
Q 24.65625 74.21875 41.21875 74.21875 
Q 47.75 74.21875 53.53125 72.484375 
Q 59.328125 70.75 64.40625 67.28125 
z
" id="DejaVuSans-67"/>
      <path d="M 9.421875 75.984375 
L 18.40625 75.984375 
L 18.40625 0 
L 9.421875 0 
z
" id="DejaVuSans-108"/>
     </defs>
     <g transform="translate(21.48525 114.789125)rotate(-90)scale(0.144 -0.144)">
      <use xlink:href="#DejaVuSans-67"/>
      <use x="69.824219" xlink:href="#DejaVuSans-101"/>
      <use x="131.347656" xlink:href="#DejaVuSans-108"/>
      <use x="159.130859" xlink:href="#DejaVuSans-108"/>
      <use x="186.914062" xlink:href="#DejaVuSans-115"/>
     </g>
    </g>
   </g>
   <g id="LineCollection_1">
    <path clip-path="url(#pb8b611f298)" d="M 60.497696 167.56 
L 60.497696 163.443529 
" style="fill:none;stroke:#000000;stroke-width:1.5;"/>
    <path clip-path="url(#pb8b611f298)" d="M 106.760922 167.56 
L 106.760922 163.443529 
" style="fill:none;stroke:#000000;stroke-width:1.5;"/>
    <path clip-path="url(#pb8b611f298)" d="M 108.336038 167.56 
L 108.336038 163.443529 
" style="fill:none;stroke:#000000;stroke-width:1.5;"/>
    <path clip-path="url(#pb8b611f298)" d="M 153.4353 167.56 
L 153.4353 163.443529 
" style="fill:none;stroke:#000000;stroke-width:1.5;"/>
    <path clip-path="url(#pb8b611f298)" d="M 160.720209 167.56 
L 160.720209 163.443529 
" style="fill:none;stroke:#000000;stroke-width:1.5;"/>
    <path clip-path="url(#pb8b611f298)" d="M 239.99716 167.56 
L 239.99716 163.443529 
" style="fill:none;stroke:#000000;stroke-width:1.5;"/>
    <path clip-path="url(#pb8b611f298)" d="M 242.284552 167.56 
L 242.284552 163.443529 
" style="fill:none;stroke:#000000;stroke-width:1.5;"/>
    <path clip-path="url(#pb8b611f298)" d="M 243.280581 167.56 
L 243.280581 163.443529 
" style="fill:none;stroke:#000000;stroke-width:1.5;"/>
    <path clip-path="url(#pb8b611f298)" d="M 249.384154 167.56 
L 249.384154 163.443529 
" style="fill:none;stroke:#000000;stroke-width:1.5;"/>
    <path clip-path="url(#pb8b611f298)" d="M 250.69868 167.56 
L 250.69868 163.443529 
" style="fill:none;stroke:#000000;stroke-width:1.5;"/>
    <path clip-path="url(#pb8b611f298)" d="M 252.227469 167.56 
L 252.227469 163.443529 
" style="fill:none;stroke:#000000;stroke-width:1.5;"/>
    <path clip-path="url(#pb8b611f298)" d="M 255.84676 167.56 
L 255.84676 163.443529 
" style="fill:none;stroke:#000000;stroke-width:1.5;"/>
    <path clip-path="url(#pb8b611f298)" d="M 256.709599 167.56 
L 256.709599 163.443529 
" style="fill:none;stroke:#000000;stroke-width:1.5;"/>
    <path clip-path="url(#pb8b611f298)" d="M 257.578229 167.56 
L 257.578229 163.443529 
" style="fill:none;stroke:#000000;stroke-width:1.5;"/>
    <path clip-path="url(#pb8b611f298)" d="M 260.404171 167.56 
L 260.404171 163.443529 
" style="fill:none;stroke:#000000;stroke-width:1.5;"/>
    <path clip-path="url(#pb8b611f298)" d="M 283.613961 167.56 
L 283.613961 163.443529 
" style="fill:none;stroke:#000000;stroke-width:1.5;"/>
    <path clip-path="url(#pb8b611f298)" d="M 291.246322 167.56 
L 291.246322 163.443529 
" style="fill:none;stroke:#000000;stroke-width:1.5;"/>
    <path clip-path="url(#pb8b611f298)" d="M 292.416077 167.56 
L 292.416077 163.443529 
" style="fill:none;stroke:#000000;stroke-width:1.5;"/>
    <path clip-path="url(#pb8b611f298)" d="M 297.014024 167.56 
L 297.014024 163.443529 
" style="fill:none;stroke:#000000;stroke-width:1.5;"/>
    <path clip-path="url(#pb8b611f298)" d="M 299.440397 167.56 
L 299.440397 163.443529 
" style="fill:none;stroke:#000000;stroke-width:1.5;"/>
    <path clip-path="url(#pb8b611f298)" d="M 305.561342 167.56 
L 305.561342 163.443529 
" style="fill:none;stroke:#000000;stroke-width:1.5;"/>
    <path clip-path="url(#pb8b611f298)" d="M 324.931787 167.56 
L 324.931787 163.443529 
" style="fill:none;stroke:#000000;stroke-width:1.5;"/>
    <path clip-path="url(#pb8b611f298)" d="M 329.078047 167.56 
L 329.078047 163.443529 
" style="fill:none;stroke:#000000;stroke-width:1.5;"/>
    <path clip-path="url(#pb8b611f298)" d="M 338.279733 167.56 
L 338.279733 163.443529 
" style="fill:none;stroke:#000000;stroke-width:1.5;"/>
    <path clip-path="url(#pb8b611f298)" d="M 352.71057 167.56 
L 352.71057 163.443529 
" style="fill:none;stroke:#000000;stroke-width:1.5;"/>
    <path clip-path="url(#pb8b611f298)" d="M 359.39902 167.56 
L 359.39902 163.443529 
" style="fill:none;stroke:#000000;stroke-width:1.5;"/>
    <path clip-path="url(#pb8b611f298)" d="M 360.771455 167.56 
L 360.771455 163.443529 
" style="fill:none;stroke:#000000;stroke-width:1.5;"/>
    <path clip-path="url(#pb8b611f298)" d="M 363.186246 167.56 
L 363.186246 163.443529 
" style="fill:none;stroke:#000000;stroke-width:1.5;"/>
    <path clip-path="url(#pb8b611f298)" d="M 368.02741 167.56 
L 368.02741 163.443529 
" style="fill:none;stroke:#000000;stroke-width:1.5;"/>
    <path clip-path="url(#pb8b611f298)" d="M 378.908447 167.56 
L 378.908447 163.443529 
" style="fill:none;stroke:#000000;stroke-width:1.5;"/>
    <path clip-path="url(#pb8b611f298)" d="M 381.247956 167.56 
L 381.247956 163.443529 
" style="fill:none;stroke:#000000;stroke-width:1.5;"/>
    <path clip-path="url(#pb8b611f298)" d="M 387.015658 167.56 
L 387.015658 163.443529 
" style="fill:none;stroke:#000000;stroke-width:1.5;"/>
    <path clip-path="url(#pb8b611f298)" d="M 395.58614 167.56 
L 395.58614 163.443529 
" style="fill:none;stroke:#000000;stroke-width:1.5;"/>
    <path clip-path="url(#pb8b611f298)" d="M 406.843583 167.56 
L 406.843583 163.443529 
" style="fill:none;stroke:#000000;stroke-width:1.5;"/>
    <path clip-path="url(#pb8b611f298)" d="M 410.671345 167.56 
L 410.671345 163.443529 
" style="fill:none;stroke:#000000;stroke-width:1.5;"/>
    <path clip-path="url(#pb8b611f298)" d="M 412.674984 167.56 
L 412.674984 163.443529 
" style="fill:none;stroke:#000000;stroke-width:1.5;"/>
    <path clip-path="url(#pb8b611f298)" d="M 414.614924 167.56 
L 414.614924 163.443529 
" style="fill:none;stroke:#000000;stroke-width:1.5;"/>
    <path clip-path="url(#pb8b611f298)" d="M 416.5954 167.56 
L 416.5954 163.443529 
" style="fill:none;stroke:#000000;stroke-width:1.5;"/>
    <path clip-path="url(#pb8b611f298)" d="M 419.861449 167.56 
L 419.861449 163.443529 
" style="fill:none;stroke:#000000;stroke-width:1.5;"/>
    <path clip-path="url(#pb8b611f298)" d="M 422.652646 167.56 
L 422.652646 163.443529 
" style="fill:none;stroke:#000000;stroke-width:1.5;"/>
    <path clip-path="url(#pb8b611f298)" d="M 426.376173 167.56 
L 426.376173 163.443529 
" style="fill:none;stroke:#000000;stroke-width:1.5;"/>
    <path clip-path="url(#pb8b611f298)" d="M 428.97048 167.56 
L 428.97048 163.443529 
" style="fill:none;stroke:#000000;stroke-width:1.5;"/>
    <path clip-path="url(#pb8b611f298)" d="M 432.085966 167.56 
L 432.085966 163.443529 
" style="fill:none;stroke:#000000;stroke-width:1.5;"/>
    <path clip-path="url(#pb8b611f298)" d="M 443.175474 167.56 
L 443.175474 163.443529 
" style="fill:none;stroke:#000000;stroke-width:1.5;"/>
    <path clip-path="url(#pb8b611f298)" d="M 450.332984 167.56 
L 450.332984 163.443529 
" style="fill:none;stroke:#000000;stroke-width:1.5;"/>
    <path clip-path="url(#pb8b611f298)" d="M 454.508198 167.56 
L 454.508198 163.443529 
" style="fill:none;stroke:#000000;stroke-width:1.5;"/>
    <path clip-path="url(#pb8b611f298)" d="M 456.164386 167.56 
L 456.164386 163.443529 
" style="fill:none;stroke:#000000;stroke-width:1.5;"/>
    <path clip-path="url(#pb8b611f298)" d="M 458.341751 167.56 
L 458.341751 163.443529 
" style="fill:none;stroke:#000000;stroke-width:1.5;"/>
    <path clip-path="url(#pb8b611f298)" d="M 460.420672 167.56 
L 460.420672 163.443529 
" style="fill:none;stroke:#000000;stroke-width:1.5;"/>
    <path clip-path="url(#pb8b611f298)" d="M 461.839434 167.56 
L 461.839434 163.443529 
" style="fill:none;stroke:#000000;stroke-width:1.5;"/>
    <path clip-path="url(#pb8b611f298)" d="M 463.235033 167.56 
L 463.235033 163.443529 
" style="fill:none;stroke:#000000;stroke-width:1.5;"/>
    <path clip-path="url(#pb8b611f298)" d="M 467.074377 167.56 
L 467.074377 163.443529 
" style="fill:none;stroke:#000000;stroke-width:1.5;"/>
    <path clip-path="url(#pb8b611f298)" d="M 469.454422 167.56 
L 469.454422 163.443529 
" style="fill:none;stroke:#000000;stroke-width:1.5;"/>
    <path clip-path="url(#pb8b611f298)" d="M 471.429108 167.56 
L 471.429108 163.443529 
" style="fill:none;stroke:#000000;stroke-width:1.5;"/>
    <path clip-path="url(#pb8b611f298)" d="M 472.013985 167.56 
L 472.013985 163.443529 
" style="fill:none;stroke:#000000;stroke-width:1.5;"/>
    <path clip-path="url(#pb8b611f298)" d="M 473.867062 167.56 
L 473.867062 163.443529 
" style="fill:none;stroke:#000000;stroke-width:1.5;"/>
    <path clip-path="url(#pb8b611f298)" d="M 476.716168 167.56 
L 476.716168 163.443529 
" style="fill:none;stroke:#000000;stroke-width:1.5;"/>
    <path clip-path="url(#pb8b611f298)" d="M 481.852666 167.56 
L 481.852666 163.443529 
" style="fill:none;stroke:#000000;stroke-width:1.5;"/>
    <path clip-path="url(#pb8b611f298)" d="M 482.611269 167.56 
L 482.611269 163.443529 
" style="fill:none;stroke:#000000;stroke-width:1.5;"/>
    <path clip-path="url(#pb8b611f298)" d="M 485.946808 167.56 
L 485.946808 163.443529 
" style="fill:none;stroke:#000000;stroke-width:1.5;"/>
    <path clip-path="url(#pb8b611f298)" d="M 489.351837 167.56 
L 489.351837 163.443529 
" style="fill:none;stroke:#000000;stroke-width:1.5;"/>
    <path clip-path="url(#pb8b611f298)" d="M 493.370698 167.56 
L 493.370698 163.443529 
" style="fill:none;stroke:#000000;stroke-width:1.5;"/>
    <path clip-path="url(#pb8b611f298)" d="M 506.052694 167.56 
L 506.052694 163.443529 
" style="fill:none;stroke:#000000;stroke-width:1.5;"/>
    <path clip-path="url(#pb8b611f298)" d="M 509.098689 167.56 
L 509.098689 163.443529 
" style="fill:none;stroke:#000000;stroke-width:1.5;"/>
    <path clip-path="url(#pb8b611f298)" d="M 511.895677 167.56 
L 511.895677 163.443529 
" style="fill:none;stroke:#000000;stroke-width:1.5;"/>
    <path clip-path="url(#pb8b611f298)" d="M 513.030687 167.56 
L 513.030687 163.443529 
" style="fill:none;stroke:#000000;stroke-width:1.5;"/>
    <path clip-path="url(#pb8b611f298)" d="M 514.310468 167.56 
L 514.310468 163.443529 
" style="fill:none;stroke:#000000;stroke-width:1.5;"/>
    <path clip-path="url(#pb8b611f298)" d="M 532.325851 167.56 
L 532.325851 163.443529 
" style="fill:none;stroke:#000000;stroke-width:1.5;"/>
    <path clip-path="url(#pb8b611f298)" d="M 535.667181 167.56 
L 535.667181 163.443529 
" style="fill:none;stroke:#000000;stroke-width:1.5;"/>
    <path clip-path="url(#pb8b611f298)" d="M 538.771085 167.56 
L 538.771085 163.443529 
" style="fill:none;stroke:#000000;stroke-width:1.5;"/>
    <path clip-path="url(#pb8b611f298)" d="M 544.955729 167.56 
L 544.955729 163.443529 
" style="fill:none;stroke:#000000;stroke-width:1.5;"/>
   </g>
   <g id="LineCollection_2">
    <path clip-path="url(#pb8b611f298)" d="M 39.899587 163.443529 
L 39.899587 159.327059 
" style="fill:none;stroke:#000000;stroke-width:1.5;"/>
    <path clip-path="url(#pb8b611f298)" d="M 113.293019 163.443529 
L 113.293019 159.327059 
" style="fill:none;stroke:#000000;stroke-width:1.5;"/>
    <path clip-path="url(#pb8b611f298)" d="M 149.497511 163.443529 
L 149.497511 159.327059 
" style="fill:none;stroke:#000000;stroke-width:1.5;"/>
    <path clip-path="url(#pb8b611f298)" d="M 179.85902 163.443529 
L 179.85902 159.327059 
" style="fill:none;stroke:#000000;stroke-width:1.5;"/>
    <path clip-path="url(#pb8b611f298)" d="M 182.024804 163.443529 
L 182.024804 159.327059 
" style="fill:none;stroke:#000000;stroke-width:1.5;"/>
    <path clip-path="url(#pb8b611f298)" d="M 183.194559 163.443529 
L 183.194559 159.327059 
" style="fill:none;stroke:#000000;stroke-width:1.5;"/>
    <path clip-path="url(#pb8b611f298)" d="M 185.232943 163.443529 
L 185.232943 159.327059 
" style="fill:none;stroke:#000000;stroke-width:1.5;"/>
    <path clip-path="url(#pb8b611f298)" d="M 205.697863 163.443529 
L 205.697863 159.327059 
" style="fill:none;stroke:#000000;stroke-width:1.5;"/>
    <path clip-path="url(#pb8b611f298)" d="M 206.253786 163.443529 
L 206.253786 159.327059 
" style="fill:none;stroke:#000000;stroke-width:1.5;"/>
    <path clip-path="url(#pb8b611f298)" d="M 214.071455 163.443529 
L 214.071455 159.327059 
" style="fill:none;stroke:#000000;stroke-width:1.5;"/>
    <path clip-path="url(#pb8b611f298)" d="M 217.881844 163.443529 
L 217.881844 159.327059 
" style="fill:none;stroke:#000000;stroke-width:1.5;"/>
    <path clip-path="url(#pb8b611f298)" d="M 219.480123 163.443529 
L 219.480123 159.327059 
" style="fill:none;stroke:#000000;stroke-width:1.5;"/>
    <path clip-path="url(#pb8b611f298)" d="M 287.933946 163.443529 
L 287.933946 159.327059 
" style="fill:none;stroke:#000000;stroke-width:1.5;"/>
    <path clip-path="url(#pb8b611f298)" d="M 345.385125 163.443529 
L 345.385125 159.327059 
" style="fill:none;stroke:#000000;stroke-width:1.5;"/>
    <path clip-path="url(#pb8b611f298)" d="M 449.678616 163.443529 
L 449.678616 159.327059 
" style="fill:none;stroke:#000000;stroke-width:1.5;"/>
    <path clip-path="url(#pb8b611f298)" d="M 475.714348 163.443529 
L 475.714348 159.327059 
" style="fill:none;stroke:#000000;stroke-width:1.5;"/>
    <path clip-path="url(#pb8b611f298)" d="M 547.787463 163.443529 
L 547.787463 159.327059 
" style="fill:none;stroke:#000000;stroke-width:1.5;"/>
   </g>
   <g id="LineCollection_3">
    <path clip-path="url(#pb8b611f298)" d="M 151.29268 159.327059 
L 151.29268 155.210588 
" style="fill:none;stroke:#000000;stroke-width:1.5;"/>
    <path clip-path="url(#pb8b611f298)" d="M 152.670906 159.327059 
L 152.670906 155.210588 
" style="fill:none;stroke:#000000;stroke-width:1.5;"/>
   </g>
   <g id="LineCollection_4">
    <path clip-path="url(#pb8b611f298)" d="M 34.444592 155.210588 
L 34.444592 151.094118 
" style="fill:none;stroke:#000000;stroke-width:1.5;"/>
    <path clip-path="url(#pb8b611f298)" d="M 519.701764 155.210588 
L 519.701764 151.094118 
" style="fill:none;stroke:#000000;stroke-width:1.5;"/>
    <path clip-path="url(#pb8b611f298)" d="M 520.802029 155.210588 
L 520.802029 151.094118 
" style="fill:none;stroke:#000000;stroke-width:1.5;"/>
   </g>
   <g id="LineCollection_5">
    <path clip-path="url(#pb8b611f298)" d="M 80.875753 151.094118 
L 80.875753 146.977647 
" style="fill:none;stroke:#000000;stroke-width:1.5;"/>
   </g>
   <g id="LineCollection_6">
    <path clip-path="url(#pb8b611f298)" d="M 335.430627 142.861176 
L 335.430627 138.744706 
" style="fill:none;stroke:#000000;stroke-width:1.5;"/>
   </g>
   <g id="LineCollection_7">
    <path clip-path="url(#pb8b611f298)" d="M 211.870926 138.744706 
L 211.870926 134.628235 
" style="fill:none;stroke:#000000;stroke-width:1.5;"/>
   </g>
   <g id="LineCollection_8">
    <path clip-path="url(#pb8b611f298)" d="M 63.323639 126.395294 
L 63.323639 122.278824 
" style="fill:none;stroke:#000000;stroke-width:1.5;"/>
    <path clip-path="url(#pb8b611f298)" d="M 77.569168 126.395294 
L 77.569168 122.278824 
" style="fill:none;stroke:#000000;stroke-width:1.5;"/>
    <path clip-path="url(#pb8b611f298)" d="M 100.269362 126.395294 
L 100.269362 122.278824 
" style="fill:none;stroke:#000000;stroke-width:1.5;"/>
    <path clip-path="url(#pb8b611f298)" d="M 135.049301 126.395294 
L 135.049301 122.278824 
" style="fill:none;stroke:#000000;stroke-width:1.5;"/>
    <path clip-path="url(#pb8b611f298)" d="M 154.448701 126.395294 
L 154.448701 122.278824 
" style="fill:none;stroke:#000000;stroke-width:1.5;"/>
    <path clip-path="url(#pb8b611f298)" d="M 245.336338 126.395294 
L 245.336338 122.278824 
" style="fill:none;stroke:#000000;stroke-width:1.5;"/>
    <path clip-path="url(#pb8b611f298)" d="M 253.101889 126.395294 
L 253.101889 122.278824 
" style="fill:none;stroke:#000000;stroke-width:1.5;"/>
    <path clip-path="url(#pb8b611f298)" d="M 298.583349 126.395294 
L 298.583349 122.278824 
" style="fill:none;stroke:#000000;stroke-width:1.5;"/>
    <path clip-path="url(#pb8b611f298)" d="M 320.426494 126.395294 
L 320.426494 122.278824 
" style="fill:none;stroke:#000000;stroke-width:1.5;"/>
    <path clip-path="url(#pb8b611f298)" d="M 332.674175 126.395294 
L 332.674175 122.278824 
" style="fill:none;stroke:#000000;stroke-width:1.5;"/>
    <path clip-path="url(#pb8b611f298)" d="M 381.792298 126.395294 
L 381.792298 122.278824 
" style="fill:none;stroke:#000000;stroke-width:1.5;"/>
    <path clip-path="url(#pb8b611f298)" d="M 447.009027 126.395294 
L 447.009027 122.278824 
" style="fill:none;stroke:#000000;stroke-width:1.5;"/>
    <path clip-path="url(#pb8b611f298)" d="M 525.62582 126.395294 
L 525.62582 122.278824 
" style="fill:none;stroke:#000000;stroke-width:1.5;"/>
   </g>
   <g id="LineCollection_9">
    <path clip-path="url(#pb8b611f298)" d="M 99.557086 122.278824 
L 99.557086 118.162353 
" style="fill:none;stroke:#000000;stroke-width:1.5;"/>
    <path clip-path="url(#pb8b611f298)" d="M 100.373598 122.278824 
L 100.373598 118.162353 
" style="fill:none;stroke:#000000;stroke-width:1.5;"/>
    <path clip-path="url(#pb8b611f298)" d="M 101.19011 122.278824 
L 101.19011 118.162353 
" style="fill:none;stroke:#000000;stroke-width:1.5;"/>
    <path clip-path="url(#pb8b611f298)" d="M 121.73031 122.278824 
L 121.73031 118.162353 
" style="fill:none;stroke:#000000;stroke-width:1.5;"/>
    <path clip-path="url(#pb8b611f298)" d="M 137.57991 122.278824 
L 137.57991 118.162353 
" style="fill:none;stroke:#000000;stroke-width:1.5;"/>
    <path clip-path="url(#pb8b611f298)" d="M 223.504775 122.278824 
L 223.504775 118.162353 
" style="fill:none;stroke:#000000;stroke-width:1.5;"/>
   </g>
   <g id="LineCollection_10">
    <path clip-path="url(#pb8b611f298)" d="M 169.736587 118.162353 
L 169.736587 114.045882 
" style="fill:none;stroke:#000000;stroke-width:1.5;"/>
    <path clip-path="url(#pb8b611f298)" d="M 171.213258 118.162353 
L 171.213258 114.045882 
" style="fill:none;stroke:#000000;stroke-width:1.5;"/>
    <path clip-path="url(#pb8b611f298)" d="M 187.190256 118.162353 
L 187.190256 114.045882 
" style="fill:none;stroke:#000000;stroke-width:1.5;"/>
    <path clip-path="url(#pb8b611f298)" d="M 188.881189 118.162353 
L 188.881189 114.045882 
" style="fill:none;stroke:#000000;stroke-width:1.5;"/>
    <path clip-path="url(#pb8b611f298)" d="M 190.137807 118.162353 
L 190.137807 114.045882 
" style="fill:none;stroke:#000000;stroke-width:1.5;"/>
    <path clip-path="url(#pb8b611f298)" d="M 216.190911 118.162353 
L 216.190911 114.045882 
" style="fill:none;stroke:#000000;stroke-width:1.5;"/>
    <path clip-path="url(#pb8b611f298)" d="M 251.90318 118.162353 
L 251.90318 114.045882 
" style="fill:none;stroke:#000000;stroke-width:1.5;"/>
    <path clip-path="url(#pb8b611f298)" d="M 273.665253 118.162353 
L 273.665253 114.045882 
" style="fill:none;stroke:#000000;stroke-width:1.5;"/>
    <path clip-path="url(#pb8b611f298)" d="M 274.458602 118.162353 
L 274.458602 114.045882 
" style="fill:none;stroke:#000000;stroke-width:1.5;"/>
    <path clip-path="url(#pb8b611f298)" d="M 395.238688 118.162353 
L 395.238688 114.045882 
" style="fill:none;stroke:#000000;stroke-width:1.5;"/>
    <path clip-path="url(#pb8b611f298)" d="M 396.338952 118.162353 
L 396.338952 114.045882 
" style="fill:none;stroke:#000000;stroke-width:1.5;"/>
    <path clip-path="url(#pb8b611f298)" d="M 405.859135 118.162353 
L 405.859135 114.045882 
" style="fill:none;stroke:#000000;stroke-width:1.5;"/>
    <path clip-path="url(#pb8b611f298)" d="M 406.918864 118.162353 
L 406.918864 114.045882 
" style="fill:none;stroke:#000000;stroke-width:1.5;"/>
    <path clip-path="url(#pb8b611f298)" d="M 529.465164 118.162353 
L 529.465164 114.045882 
" style="fill:none;stroke:#000000;stroke-width:1.5;"/>
   </g>
   <g id="LineCollection_11">
    <path clip-path="url(#pb8b611f298)" d="M 31.138007 114.045882 
L 31.138007 109.929412 
" style="fill:none;stroke:#000000;stroke-width:1.5;"/>
    <path clip-path="url(#pb8b611f298)" d="M 32.666796 114.045882 
L 32.666796 109.929412 
" style="fill:none;stroke:#000000;stroke-width:1.5;"/>
    <path clip-path="url(#pb8b611f298)" d="M 42.557594 114.045882 
L 42.557594 109.929412 
" style="fill:none;stroke:#000000;stroke-width:1.5;"/>
    <path clip-path="url(#pb8b611f298)" d="M 68.4833 114.045882 
L 68.4833 109.929412 
" style="fill:none;stroke:#000000;stroke-width:1.5;"/>
    <path clip-path="url(#pb8b611f298)" d="M 70.75332 114.045882 
L 70.75332 109.929412 
" style="fill:none;stroke:#000000;stroke-width:1.5;"/>
    <path clip-path="url(#pb8b611f298)" d="M 86.660828 114.045882 
L 86.660828 109.929412 
" style="fill:none;stroke:#000000;stroke-width:1.5;"/>
    <path clip-path="url(#pb8b611f298)" d="M 108.069658 114.045882 
L 108.069658 109.929412 
" style="fill:none;stroke:#000000;stroke-width:1.5;"/>
    <path clip-path="url(#pb8b611f298)" d="M 109.853245 114.045882 
L 109.853245 109.929412 
" style="fill:none;stroke:#000000;stroke-width:1.5;"/>
    <path clip-path="url(#pb8b611f298)" d="M 165.468719 114.045882 
L 165.468719 109.929412 
" style="fill:none;stroke:#000000;stroke-width:1.5;"/>
    <path clip-path="url(#pb8b611f298)" d="M 255.597752 114.045882 
L 255.597752 109.929412 
" style="fill:none;stroke:#000000;stroke-width:1.5;"/>
    <path clip-path="url(#pb8b611f298)" d="M 271.308371 114.045882 
L 271.308371 109.929412 
" style="fill:none;stroke:#000000;stroke-width:1.5;"/>
    <path clip-path="url(#pb8b611f298)" d="M 328.950648 114.045882 
L 328.950648 109.929412 
" style="fill:none;stroke:#000000;stroke-width:1.5;"/>
    <path clip-path="url(#pb8b611f298)" d="M 372.752756 114.045882 
L 372.752756 109.929412 
" style="fill:none;stroke:#000000;stroke-width:1.5;"/>
    <path clip-path="url(#pb8b611f298)" d="M 421.303374 114.045882 
L 421.303374 109.929412 
" style="fill:none;stroke:#000000;stroke-width:1.5;"/>
    <path clip-path="url(#pb8b611f298)" d="M 462.34903 114.045882 
L 462.34903 109.929412 
" style="fill:none;stroke:#000000;stroke-width:1.5;"/>
    <path clip-path="url(#pb8b611f298)" d="M 481.638404 114.045882 
L 481.638404 109.929412 
" style="fill:none;stroke:#000000;stroke-width:1.5;"/>
    <path clip-path="url(#pb8b611f298)" d="M 518.479891 114.045882 
L 518.479891 109.929412 
" style="fill:none;stroke:#000000;stroke-width:1.5;"/>
    <path clip-path="url(#pb8b611f298)" d="M 556.357944 114.045882 
L 556.357944 109.929412 
" style="fill:none;stroke:#000000;stroke-width:1.5;"/>
   </g>
   <g id="LineCollection_12">
    <path clip-path="url(#pb8b611f298)" d="M 33.877087 109.929412 
L 33.877087 105.812941 
" style="fill:none;stroke:#000000;stroke-width:1.5;"/>
   </g>
   <g id="LineCollection_13">
    <path clip-path="url(#pb8b611f298)" d="M 148.588345 105.812941 
L 148.588345 101.696471 
" style="fill:none;stroke:#000000;stroke-width:1.5;"/>
    <path clip-path="url(#pb8b611f298)" d="M 173.089498 105.812941 
L 173.089498 101.696471 
" style="fill:none;stroke:#000000;stroke-width:1.5;"/>
    <path clip-path="url(#pb8b611f298)" d="M 176.135493 105.812941 
L 176.135493 101.696471 
" style="fill:none;stroke:#000000;stroke-width:1.5;"/>
    <path clip-path="url(#pb8b611f298)" d="M 183.090323 105.812941 
L 183.090323 101.696471 
" style="fill:none;stroke:#000000;stroke-width:1.5;"/>
   </g>
   <g id="LineCollection_14">
    <path clip-path="url(#pb8b611f298)" d="M 33.680197 101.696471 
L 33.680197 97.58 
" style="fill:none;stroke:#000000;stroke-width:1.5;"/>
    <path clip-path="url(#pb8b611f298)" d="M 45.418282 101.696471 
L 45.418282 97.58 
" style="fill:none;stroke:#000000;stroke-width:1.5;"/>
    <path clip-path="url(#pb8b611f298)" d="M 65.188298 101.696471 
L 65.188298 97.58 
" style="fill:none;stroke:#000000;stroke-width:1.5;"/>
    <path clip-path="url(#pb8b611f298)" d="M 74.685317 101.696471 
L 74.685317 97.58 
" style="fill:none;stroke:#000000;stroke-width:1.5;"/>
    <path clip-path="url(#pb8b611f298)" d="M 128.001818 101.696471 
L 128.001818 97.58 
" style="fill:none;stroke:#000000;stroke-width:1.5;"/>
    <path clip-path="url(#pb8b611f298)" d="M 131.534246 101.696471 
L 131.534246 97.58 
" style="fill:none;stroke:#000000;stroke-width:1.5;"/>
    <path clip-path="url(#pb8b611f298)" d="M 323.982085 101.696471 
L 323.982085 97.58 
" style="fill:none;stroke:#000000;stroke-width:1.5;"/>
    <path clip-path="url(#pb8b611f298)" d="M 371.276086 101.696471 
L 371.276086 97.58 
" style="fill:none;stroke:#000000;stroke-width:1.5;"/>
    <path clip-path="url(#pb8b611f298)" d="M 525.938526 101.696471 
L 525.938526 97.58 
" style="fill:none;stroke:#000000;stroke-width:1.5;"/>
   </g>
   <g id="LineCollection_15">
    <path clip-path="url(#pb8b611f298)" d="M 76.428368 93.463529 
L 76.428368 89.347059 
" style="fill:none;stroke:#000000;stroke-width:1.5;"/>
    <path clip-path="url(#pb8b611f298)" d="M 78.65206 93.463529 
L 78.65206 89.347059 
" style="fill:none;stroke:#000000;stroke-width:1.5;"/>
    <path clip-path="url(#pb8b611f298)" d="M 159.139303 93.463529 
L 159.139303 89.347059 
" style="fill:none;stroke:#000000;stroke-width:1.5;"/>
    <path clip-path="url(#pb8b611f298)" d="M 208.240053 93.463529 
L 208.240053 89.347059 
" style="fill:none;stroke:#000000;stroke-width:1.5;"/>
    <path clip-path="url(#pb8b611f298)" d="M 227.037203 93.463529 
L 227.037203 89.347059 
" style="fill:none;stroke:#000000;stroke-width:1.5;"/>
    <path clip-path="url(#pb8b611f298)" d="M 229.006097 93.463529 
L 229.006097 89.347059 
" style="fill:none;stroke:#000000;stroke-width:1.5;"/>
    <path clip-path="url(#pb8b611f298)" d="M 241.832865 93.463529 
L 241.832865 89.347059 
" style="fill:none;stroke:#000000;stroke-width:1.5;"/>
    <path clip-path="url(#pb8b611f298)" d="M 380.952622 93.463529 
L 380.952622 89.347059 
" style="fill:none;stroke:#000000;stroke-width:1.5;"/>
    <path clip-path="url(#pb8b611f298)" d="M 390.727603 93.463529 
L 390.727603 89.347059 
" style="fill:none;stroke:#000000;stroke-width:1.5;"/>
    <path clip-path="url(#pb8b611f298)" d="M 448.43358 93.463529 
L 448.43358 89.347059 
" style="fill:none;stroke:#000000;stroke-width:1.5;"/>
    <path clip-path="url(#pb8b611f298)" d="M 536.553183 93.463529 
L 536.553183 89.347059 
" style="fill:none;stroke:#000000;stroke-width:1.5;"/>
   </g>
   <g id="LineCollection_16">
    <path clip-path="url(#pb8b611f298)" d="M 160.546483 89.347059 
L 160.546483 85.230588 
" style="fill:none;stroke:#000000;stroke-width:1.5;"/>
    <path clip-path="url(#pb8b611f298)" d="M 293.000954 89.347059 
L 293.000954 85.230588 
" style="fill:none;stroke:#000000;stroke-width:1.5;"/>
    <path clip-path="url(#pb8b611f298)" d="M 314.699328 89.347059 
L 314.699328 85.230588 
" style="fill:none;stroke:#000000;stroke-width:1.5;"/>
   </g>
   <g id="LineCollection_17">
    <path clip-path="url(#pb8b611f298)" d="M 35.724373 85.230588 
L 35.724373 81.114118 
" style="fill:none;stroke:#000000;stroke-width:1.5;"/>
   </g>
   <g id="LineCollection_18">
    <path clip-path="url(#pb8b611f298)" d="M 39.401573 72.881176 
L 39.401573 68.764706 
" style="fill:none;stroke:#000000;stroke-width:1.5;"/>
    <path clip-path="url(#pb8b611f298)" d="M 40.293366 72.881176 
L 40.293366 68.764706 
" style="fill:none;stroke:#000000;stroke-width:1.5;"/>
    <path clip-path="url(#pb8b611f298)" d="M 48.533768 72.881176 
L 48.533768 68.764706 
" style="fill:none;stroke:#000000;stroke-width:1.5;"/>
    <path clip-path="url(#pb8b611f298)" d="M 57.052131 72.881176 
L 57.052131 68.764706 
" style="fill:none;stroke:#000000;stroke-width:1.5;"/>
    <path clip-path="url(#pb8b611f298)" d="M 93.355068 72.881176 
L 93.355068 68.764706 
" style="fill:none;stroke:#000000;stroke-width:1.5;"/>
    <path clip-path="url(#pb8b611f298)" d="M 110.582894 72.881176 
L 110.582894 68.764706 
" style="fill:none;stroke:#000000;stroke-width:1.5;"/>
    <path clip-path="url(#pb8b611f298)" d="M 149.428021 72.881176 
L 149.428021 68.764706 
" style="fill:none;stroke:#000000;stroke-width:1.5;"/>
    <path clip-path="url(#pb8b611f298)" d="M 168.827421 72.881176 
L 168.827421 68.764706 
" style="fill:none;stroke:#000000;stroke-width:1.5;"/>
    <path clip-path="url(#pb8b611f298)" d="M 183.020833 72.881176 
L 183.020833 68.764706 
" style="fill:none;stroke:#000000;stroke-width:1.5;"/>
    <path clip-path="url(#pb8b611f298)" d="M 205.089822 72.881176 
L 205.089822 68.764706 
" style="fill:none;stroke:#000000;stroke-width:1.5;"/>
    <path clip-path="url(#pb8b611f298)" d="M 228.444383 72.881176 
L 228.444383 68.764706 
" style="fill:none;stroke:#000000;stroke-width:1.5;"/>
    <path clip-path="url(#pb8b611f298)" d="M 263.971344 72.881176 
L 263.971344 68.764706 
" style="fill:none;stroke:#000000;stroke-width:1.5;"/>
    <path clip-path="url(#pb8b611f298)" d="M 271.881667 72.881176 
L 271.881667 68.764706 
" style="fill:none;stroke:#000000;stroke-width:1.5;"/>
    <path clip-path="url(#pb8b611f298)" d="M 282.502114 72.881176 
L 282.502114 68.764706 
" style="fill:none;stroke:#000000;stroke-width:1.5;"/>
    <path clip-path="url(#pb8b611f298)" d="M 285.009559 72.881176 
L 285.009559 68.764706 
" style="fill:none;stroke:#000000;stroke-width:1.5;"/>
    <path clip-path="url(#pb8b611f298)" d="M 317.560015 72.881176 
L 317.560015 68.764706 
" style="fill:none;stroke:#000000;stroke-width:1.5;"/>
    <path clip-path="url(#pb8b611f298)" d="M 327.271297 72.881176 
L 327.271297 68.764706 
" style="fill:none;stroke:#000000;stroke-width:1.5;"/>
    <path clip-path="url(#pb8b611f298)" d="M 330.543136 72.881176 
L 330.543136 68.764706 
" style="fill:none;stroke:#000000;stroke-width:1.5;"/>
    <path clip-path="url(#pb8b611f298)" d="M 344.927647 72.881176 
L 344.927647 68.764706 
" style="fill:none;stroke:#000000;stroke-width:1.5;"/>
    <path clip-path="url(#pb8b611f298)" d="M 353.903488 72.881176 
L 353.903488 68.764706 
" style="fill:none;stroke:#000000;stroke-width:1.5;"/>
    <path clip-path="url(#pb8b611f298)" d="M 361.014672 72.881176 
L 361.014672 68.764706 
" style="fill:none;stroke:#000000;stroke-width:1.5;"/>
    <path clip-path="url(#pb8b611f298)" d="M 380.912086 72.881176 
L 380.912086 68.764706 
" style="fill:none;stroke:#000000;stroke-width:1.5;"/>
    <path clip-path="url(#pb8b611f298)" d="M 396.003082 72.881176 
L 396.003082 68.764706 
" style="fill:none;stroke:#000000;stroke-width:1.5;"/>
    <path clip-path="url(#pb8b611f298)" d="M 408.893549 72.881176 
L 408.893549 68.764706 
" style="fill:none;stroke:#000000;stroke-width:1.5;"/>
    <path clip-path="url(#pb8b611f298)" d="M 414.742323 72.881176 
L 414.742323 68.764706 
" style="fill:none;stroke:#000000;stroke-width:1.5;"/>
    <path clip-path="url(#pb8b611f298)" d="M 423.41704 72.881176 
L 423.41704 68.764706 
" style="fill:none;stroke:#000000;stroke-width:1.5;"/>
    <path clip-path="url(#pb8b611f298)" d="M 438.774416 72.881176 
L 438.774416 68.764706 
" style="fill:none;stroke:#000000;stroke-width:1.5;"/>
    <path clip-path="url(#pb8b611f298)" d="M 452.556676 72.881176 
L 452.556676 68.764706 
" style="fill:none;stroke:#000000;stroke-width:1.5;"/>
    <path clip-path="url(#pb8b611f298)" d="M 471.683906 72.881176 
L 471.683906 68.764706 
" style="fill:none;stroke:#000000;stroke-width:1.5;"/>
    <path clip-path="url(#pb8b611f298)" d="M 475.222125 72.881176 
L 475.222125 68.764706 
" style="fill:none;stroke:#000000;stroke-width:1.5;"/>
    <path clip-path="url(#pb8b611f298)" d="M 489.930924 72.881176 
L 489.930924 68.764706 
" style="fill:none;stroke:#000000;stroke-width:1.5;"/>
    <path clip-path="url(#pb8b611f298)" d="M 506.446473 72.881176 
L 506.446473 68.764706 
" style="fill:none;stroke:#000000;stroke-width:1.5;"/>
    <path clip-path="url(#pb8b611f298)" d="M 513.928271 72.881176 
L 513.928271 68.764706 
" style="fill:none;stroke:#000000;stroke-width:1.5;"/>
    <path clip-path="url(#pb8b611f298)" d="M 531.31245 72.881176 
L 531.31245 68.764706 
" style="fill:none;stroke:#000000;stroke-width:1.5;"/>
    <path clip-path="url(#pb8b611f298)" d="M 536.39683 72.881176 
L 536.39683 68.764706 
" style="fill:none;stroke:#000000;stroke-width:1.5;"/>
    <path clip-path="url(#pb8b611f298)" d="M 539.749741 72.881176 
L 539.749741 68.764706 
" style="fill:none;stroke:#000000;stroke-width:1.5;"/>
    <path clip-path="url(#pb8b611f298)" d="M 547.677436 72.881176 
L 547.677436 68.764706 
" style="fill:none;stroke:#000000;stroke-width:1.5;"/>
    <path clip-path="url(#pb8b611f298)" d="M 558.6048 72.881176 
L 558.6048 68.764706 
" style="fill:none;stroke:#000000;stroke-width:1.5;"/>
    <path clip-path="url(#pb8b611f298)" d="M 559.994608 72.881176 
L 559.994608 68.764706 
" style="fill:none;stroke:#000000;stroke-width:1.5;"/>
   </g>
   <g id="LineCollection_19">
    <path clip-path="url(#pb8b611f298)" d="M 337.26054 68.764706 
L 337.26054 64.648235 
" style="fill:none;stroke:#000000;stroke-width:1.5;"/>
    <path clip-path="url(#pb8b611f298)" d="M 338.024935 68.764706 
L 338.024935 64.648235 
" style="fill:none;stroke:#000000;stroke-width:1.5;"/>
   </g>
   <g id="LineCollection_20">
    <path clip-path="url(#pb8b611f298)" d="M 28.798498 60.531765 
L 28.798498 56.415294 
" style="fill:none;stroke:#000000;stroke-width:1.5;"/>
    <path clip-path="url(#pb8b611f298)" d="M 35.695419 60.531765 
L 35.695419 56.415294 
" style="fill:none;stroke:#000000;stroke-width:1.5;"/>
    <path clip-path="url(#pb8b611f298)" d="M 39.714279 60.531765 
L 39.714279 56.415294 
" style="fill:none;stroke:#000000;stroke-width:1.5;"/>
    <path clip-path="url(#pb8b611f298)" d="M 48.08208 60.531765 
L 48.08208 56.415294 
" style="fill:none;stroke:#000000;stroke-width:1.5;"/>
    <path clip-path="url(#pb8b611f298)" d="M 83.823303 60.531765 
L 83.823303 56.415294 
" style="fill:none;stroke:#000000;stroke-width:1.5;"/>
    <path clip-path="url(#pb8b611f298)" d="M 84.495044 60.531765 
L 84.495044 56.415294 
" style="fill:none;stroke:#000000;stroke-width:1.5;"/>
    <path clip-path="url(#pb8b611f298)" d="M 111.544177 60.531765 
L 111.544177 56.415294 
" style="fill:none;stroke:#000000;stroke-width:1.5;"/>
    <path clip-path="url(#pb8b611f298)" d="M 122.847947 60.531765 
L 122.847947 56.415294 
" style="fill:none;stroke:#000000;stroke-width:1.5;"/>
    <path clip-path="url(#pb8b611f298)" d="M 136.525972 60.531765 
L 136.525972 56.415294 
" style="fill:none;stroke:#000000;stroke-width:1.5;"/>
    <path clip-path="url(#pb8b611f298)" d="M 151.941257 60.531765 
L 151.941257 56.415294 
" style="fill:none;stroke:#000000;stroke-width:1.5;"/>
    <path clip-path="url(#pb8b611f298)" d="M 152.346617 60.531765 
L 152.346617 56.415294 
" style="fill:none;stroke:#000000;stroke-width:1.5;"/>
    <path clip-path="url(#pb8b611f298)" d="M 166.592147 60.531765 
L 166.592147 56.415294 
" style="fill:none;stroke:#000000;stroke-width:1.5;"/>
    <path clip-path="url(#pb8b611f298)" d="M 172.753628 60.531765 
L 172.753628 56.415294 
" style="fill:none;stroke:#000000;stroke-width:1.5;"/>
    <path clip-path="url(#pb8b611f298)" d="M 216.625226 60.531765 
L 216.625226 56.415294 
" style="fill:none;stroke:#000000;stroke-width:1.5;"/>
    <path clip-path="url(#pb8b611f298)" d="M 219.271652 60.531765 
L 219.271652 56.415294 
" style="fill:none;stroke:#000000;stroke-width:1.5;"/>
    <path clip-path="url(#pb8b611f298)" d="M 279.786198 60.531765 
L 279.786198 56.415294 
" style="fill:none;stroke:#000000;stroke-width:1.5;"/>
    <path clip-path="url(#pb8b611f298)" d="M 288.982093 60.531765 
L 288.982093 56.415294 
" style="fill:none;stroke:#000000;stroke-width:1.5;"/>
    <path clip-path="url(#pb8b611f298)" d="M 305.289171 60.531765 
L 305.289171 56.415294 
" style="fill:none;stroke:#000000;stroke-width:1.5;"/>
    <path clip-path="url(#pb8b611f298)" d="M 328.857994 60.531765 
L 328.857994 56.415294 
" style="fill:none;stroke:#000000;stroke-width:1.5;"/>
    <path clip-path="url(#pb8b611f298)" d="M 343.995317 60.531765 
L 343.995317 56.415294 
" style="fill:none;stroke:#000000;stroke-width:1.5;"/>
    <path clip-path="url(#pb8b611f298)" d="M 359.433765 60.531765 
L 359.433765 56.415294 
" style="fill:none;stroke:#000000;stroke-width:1.5;"/>
    <path clip-path="url(#pb8b611f298)" d="M 371.594583 60.531765 
L 371.594583 56.415294 
" style="fill:none;stroke:#000000;stroke-width:1.5;"/>
    <path clip-path="url(#pb8b611f298)" d="M 386.75507 60.531765 
L 386.75507 56.415294 
" style="fill:none;stroke:#000000;stroke-width:1.5;"/>
    <path clip-path="url(#pb8b611f298)" d="M 436.26118 60.531765 
L 436.26118 56.415294 
" style="fill:none;stroke:#000000;stroke-width:1.5;"/>
    <path clip-path="url(#pb8b611f298)" d="M 538.881111 60.531765 
L 538.881111 56.415294 
" style="fill:none;stroke:#000000;stroke-width:1.5;"/>
    <path clip-path="url(#pb8b611f298)" d="M 549.200434 60.531765 
L 549.200434 56.415294 
" style="fill:none;stroke:#000000;stroke-width:1.5;"/>
   </g>
   <g id="LineCollection_21">
    <path clip-path="url(#pb8b611f298)" d="M 44.410672 52.298824 
L 44.410672 48.182353 
" style="fill:none;stroke:#000000;stroke-width:1.5;"/>
    <path clip-path="url(#pb8b611f298)" d="M 47.172914 52.298824 
L 47.172914 48.182353 
" style="fill:none;stroke:#000000;stroke-width:1.5;"/>
    <path clip-path="url(#pb8b611f298)" d="M 52.587374 52.298824 
L 52.587374 48.182353 
" style="fill:none;stroke:#000000;stroke-width:1.5;"/>
    <path clip-path="url(#pb8b611f298)" d="M 53.83241 52.298824 
L 53.83241 48.182353 
" style="fill:none;stroke:#000000;stroke-width:1.5;"/>
    <path clip-path="url(#pb8b611f298)" d="M 101.641797 52.298824 
L 101.641797 48.182353 
" style="fill:none;stroke:#000000;stroke-width:1.5;"/>
    <path clip-path="url(#pb8b611f298)" d="M 104.06817 52.298824 
L 104.06817 48.182353 
" style="fill:none;stroke:#000000;stroke-width:1.5;"/>
    <path clip-path="url(#pb8b611f298)" d="M 110.872437 52.298824 
L 110.872437 48.182353 
" style="fill:none;stroke:#000000;stroke-width:1.5;"/>
    <path clip-path="url(#pb8b611f298)" d="M 124.46939 52.298824 
L 124.46939 48.182353 
" style="fill:none;stroke:#000000;stroke-width:1.5;"/>
    <path clip-path="url(#pb8b611f298)" d="M 150.267696 52.298824 
L 150.267696 48.182353 
" style="fill:none;stroke:#000000;stroke-width:1.5;"/>
    <path clip-path="url(#pb8b611f298)" d="M 152.914122 52.298824 
L 152.914122 48.182353 
" style="fill:none;stroke:#000000;stroke-width:1.5;"/>
    <path clip-path="url(#pb8b611f298)" d="M 260.86744 52.298824 
L 260.86744 48.182353 
" style="fill:none;stroke:#000000;stroke-width:1.5;"/>
    <path clip-path="url(#pb8b611f298)" d="M 285.038514 52.298824 
L 285.038514 48.182353 
" style="fill:none;stroke:#000000;stroke-width:1.5;"/>
    <path clip-path="url(#pb8b611f298)" d="M 328.944857 52.298824 
L 328.944857 48.182353 
" style="fill:none;stroke:#000000;stroke-width:1.5;"/>
    <path clip-path="url(#pb8b611f298)" d="M 346.728606 52.298824 
L 346.728606 48.182353 
" style="fill:none;stroke:#000000;stroke-width:1.5;"/>
    <path clip-path="url(#pb8b611f298)" d="M 359.694354 52.298824 
L 359.694354 48.182353 
" style="fill:none;stroke:#000000;stroke-width:1.5;"/>
    <path clip-path="url(#pb8b611f298)" d="M 371.889917 52.298824 
L 371.889917 48.182353 
" style="fill:none;stroke:#000000;stroke-width:1.5;"/>
    <path clip-path="url(#pb8b611f298)" d="M 388.324394 52.298824 
L 388.324394 48.182353 
" style="fill:none;stroke:#000000;stroke-width:1.5;"/>
    <path clip-path="url(#pb8b611f298)" d="M 406.936236 52.298824 
L 406.936236 48.182353 
" style="fill:none;stroke:#000000;stroke-width:1.5;"/>
    <path clip-path="url(#pb8b611f298)" d="M 410.821907 52.298824 
L 410.821907 48.182353 
" style="fill:none;stroke:#000000;stroke-width:1.5;"/>
    <path clip-path="url(#pb8b611f298)" d="M 415.570417 52.298824 
L 415.570417 48.182353 
" style="fill:none;stroke:#000000;stroke-width:1.5;"/>
    <path clip-path="url(#pb8b611f298)" d="M 416.977598 52.298824 
L 416.977598 48.182353 
" style="fill:none;stroke:#000000;stroke-width:1.5;"/>
    <path clip-path="url(#pb8b611f298)" d="M 429.607476 52.298824 
L 429.607476 48.182353 
" style="fill:none;stroke:#000000;stroke-width:1.5;"/>
    <path clip-path="url(#pb8b611f298)" d="M 447.732885 52.298824 
L 447.732885 48.182353 
" style="fill:none;stroke:#000000;stroke-width:1.5;"/>
    <path clip-path="url(#pb8b611f298)" d="M 450.327193 52.298824 
L 450.327193 48.182353 
" style="fill:none;stroke:#000000;stroke-width:1.5;"/>
    <path clip-path="url(#pb8b611f298)" d="M 454.490826 52.298824 
L 454.490826 48.182353 
" style="fill:none;stroke:#000000;stroke-width:1.5;"/>
    <path clip-path="url(#pb8b611f298)" d="M 458.081162 52.298824 
L 458.081162 48.182353 
" style="fill:none;stroke:#000000;stroke-width:1.5;"/>
    <path clip-path="url(#pb8b611f298)" d="M 461.995787 52.298824 
L 461.995787 48.182353 
" style="fill:none;stroke:#000000;stroke-width:1.5;"/>
    <path clip-path="url(#pb8b611f298)" d="M 465.707732 52.298824 
L 465.707732 48.182353 
" style="fill:none;stroke:#000000;stroke-width:1.5;"/>
    <path clip-path="url(#pb8b611f298)" d="M 467.746117 52.298824 
L 467.746117 48.182353 
" style="fill:none;stroke:#000000;stroke-width:1.5;"/>
    <path clip-path="url(#pb8b611f298)" d="M 471.544925 52.298824 
L 471.544925 48.182353 
" style="fill:none;stroke:#000000;stroke-width:1.5;"/>
    <path clip-path="url(#pb8b611f298)" d="M 478.158094 52.298824 
L 478.158094 48.182353 
" style="fill:none;stroke:#000000;stroke-width:1.5;"/>
    <path clip-path="url(#pb8b611f298)" d="M 482.153791 52.298824 
L 482.153791 48.182353 
" style="fill:none;stroke:#000000;stroke-width:1.5;"/>
    <path clip-path="url(#pb8b611f298)" d="M 484.400647 52.298824 
L 484.400647 48.182353 
" style="fill:none;stroke:#000000;stroke-width:1.5;"/>
    <path clip-path="url(#pb8b611f298)" d="M 495.953424 52.298824 
L 495.953424 48.182353 
" style="fill:none;stroke:#000000;stroke-width:1.5;"/>
    <path clip-path="url(#pb8b611f298)" d="M 498.229234 52.298824 
L 498.229234 48.182353 
" style="fill:none;stroke:#000000;stroke-width:1.5;"/>
    <path clip-path="url(#pb8b611f298)" d="M 501.993297 52.298824 
L 501.993297 48.182353 
" style="fill:none;stroke:#000000;stroke-width:1.5;"/>
    <path clip-path="url(#pb8b611f298)" d="M 504.211198 52.298824 
L 504.211198 48.182353 
" style="fill:none;stroke:#000000;stroke-width:1.5;"/>
    <path clip-path="url(#pb8b611f298)" d="M 510.251071 52.298824 
L 510.251071 48.182353 
" style="fill:none;stroke:#000000;stroke-width:1.5;"/>
    <path clip-path="url(#pb8b611f298)" d="M 515.040117 52.298824 
L 515.040117 48.182353 
" style="fill:none;stroke:#000000;stroke-width:1.5;"/>
    <path clip-path="url(#pb8b611f298)" d="M 529.233529 52.298824 
L 529.233529 48.182353 
" style="fill:none;stroke:#000000;stroke-width:1.5;"/>
    <path clip-path="url(#pb8b611f298)" d="M 532.655931 52.298824 
L 532.655931 48.182353 
" style="fill:none;stroke:#000000;stroke-width:1.5;"/>
    <path clip-path="url(#pb8b611f298)" d="M 558.054668 52.298824 
L 558.054668 48.182353 
" style="fill:none;stroke:#000000;stroke-width:1.5;"/>
   </g>
   <g id="LineCollection_22">
    <path clip-path="url(#pb8b611f298)" d="M 101.143783 48.182353 
L 101.143783 44.065882 
" style="fill:none;stroke:#000000;stroke-width:1.5;"/>
    <path clip-path="url(#pb8b611f298)" d="M 159.452009 48.182353 
L 159.452009 44.065882 
" style="fill:none;stroke:#000000;stroke-width:1.5;"/>
    <path clip-path="url(#pb8b611f298)" d="M 170.877387 48.182353 
L 170.877387 44.065882 
" style="fill:none;stroke:#000000;stroke-width:1.5;"/>
    <path clip-path="url(#pb8b611f298)" d="M 180.102236 48.182353 
L 180.102236 44.065882 
" style="fill:none;stroke:#000000;stroke-width:1.5;"/>
    <path clip-path="url(#pb8b611f298)" d="M 379.319598 48.182353 
L 379.319598 44.065882 
" style="fill:none;stroke:#000000;stroke-width:1.5;"/>
    <path clip-path="url(#pb8b611f298)" d="M 381.578036 48.182353 
L 381.578036 44.065882 
" style="fill:none;stroke:#000000;stroke-width:1.5;"/>
   </g>
   <g id="LineCollection_23">
    <path clip-path="url(#pb8b611f298)" d="M 37.774339 44.065882 
L 37.774339 39.949412 
" style="fill:none;stroke:#000000;stroke-width:1.5;"/>
    <path clip-path="url(#pb8b611f298)" d="M 38.909349 44.065882 
L 38.909349 39.949412 
" style="fill:none;stroke:#000000;stroke-width:1.5;"/>
    <path clip-path="url(#pb8b611f298)" d="M 124.440435 44.065882 
L 124.440435 39.949412 
" style="fill:none;stroke:#000000;stroke-width:1.5;"/>
    <path clip-path="url(#pb8b611f298)" d="M 155.352076 44.065882 
L 155.352076 39.949412 
" style="fill:none;stroke:#000000;stroke-width:1.5;"/>
    <path clip-path="url(#pb8b611f298)" d="M 326.848564 44.065882 
L 326.848564 39.949412 
" style="fill:none;stroke:#000000;stroke-width:1.5;"/>
    <path clip-path="url(#pb8b611f298)" d="M 377.99349 44.065882 
L 377.99349 39.949412 
" style="fill:none;stroke:#000000;stroke-width:1.5;"/>
    <path clip-path="url(#pb8b611f298)" d="M 385.156791 44.065882 
L 385.156791 39.949412 
" style="fill:none;stroke:#000000;stroke-width:1.5;"/>
    <path clip-path="url(#pb8b611f298)" d="M 443.453436 44.065882 
L 443.453436 39.949412 
" style="fill:none;stroke:#000000;stroke-width:1.5;"/>
   </g>
   <g id="LineCollection_24">
    <path clip-path="url(#pb8b611f298)" d="M 41.451539 35.832941 
L 41.451539 31.716471 
" style="fill:none;stroke:#000000;stroke-width:1.5;"/>
    <path clip-path="url(#pb8b611f298)" d="M 47.67672 35.832941 
L 47.67672 31.716471 
" style="fill:none;stroke:#000000;stroke-width:1.5;"/>
    <path clip-path="url(#pb8b611f298)" d="M 61.314208 35.832941 
L 61.314208 31.716471 
" style="fill:none;stroke:#000000;stroke-width:1.5;"/>
    <path clip-path="url(#pb8b611f298)" d="M 66.890812 35.832941 
L 66.890812 31.716471 
" style="fill:none;stroke:#000000;stroke-width:1.5;"/>
    <path clip-path="url(#pb8b611f298)" d="M 81.501166 35.832941 
L 81.501166 31.716471 
" style="fill:none;stroke:#000000;stroke-width:1.5;"/>
    <path clip-path="url(#pb8b611f298)" d="M 89.498352 35.832941 
L 89.498352 31.716471 
" style="fill:none;stroke:#000000;stroke-width:1.5;"/>
    <path clip-path="url(#pb8b611f298)" d="M 110.62343 35.832941 
L 110.62343 31.716471 
" style="fill:none;stroke:#000000;stroke-width:1.5;"/>
    <path clip-path="url(#pb8b611f298)" d="M 138.628056 35.832941 
L 138.628056 31.716471 
" style="fill:none;stroke:#000000;stroke-width:1.5;"/>
    <path clip-path="url(#pb8b611f298)" d="M 163.957303 35.832941 
L 163.957303 31.716471 
" style="fill:none;stroke:#000000;stroke-width:1.5;"/>
    <path clip-path="url(#pb8b611f298)" d="M 195.24535 35.832941 
L 195.24535 31.716471 
" style="fill:none;stroke:#000000;stroke-width:1.5;"/>
    <path clip-path="url(#pb8b611f298)" d="M 199.959115 35.832941 
L 199.959115 31.716471 
" style="fill:none;stroke:#000000;stroke-width:1.5;"/>
    <path clip-path="url(#pb8b611f298)" d="M 243.668569 35.832941 
L 243.668569 31.716471 
" style="fill:none;stroke:#000000;stroke-width:1.5;"/>
    <path clip-path="url(#pb8b611f298)" d="M 249.036702 35.832941 
L 249.036702 31.716471 
" style="fill:none;stroke:#000000;stroke-width:1.5;"/>
    <path clip-path="url(#pb8b611f298)" d="M 258.331041 35.832941 
L 258.331041 31.716471 
" style="fill:none;stroke:#000000;stroke-width:1.5;"/>
    <path clip-path="url(#pb8b611f298)" d="M 291.726964 35.832941 
L 291.726964 31.716471 
" style="fill:none;stroke:#000000;stroke-width:1.5;"/>
    <path clip-path="url(#pb8b611f298)" d="M 307.368092 35.832941 
L 307.368092 31.716471 
" style="fill:none;stroke:#000000;stroke-width:1.5;"/>
    <path clip-path="url(#pb8b611f298)" d="M 346.045284 35.832941 
L 346.045284 31.716471 
" style="fill:none;stroke:#000000;stroke-width:1.5;"/>
    <path clip-path="url(#pb8b611f298)" d="M 351.726123 35.832941 
L 351.726123 31.716471 
" style="fill:none;stroke:#000000;stroke-width:1.5;"/>
    <path clip-path="url(#pb8b611f298)" d="M 370.511691 35.832941 
L 370.511691 31.716471 
" style="fill:none;stroke:#000000;stroke-width:1.5;"/>
    <path clip-path="url(#pb8b611f298)" d="M 394.578529 35.832941 
L 394.578529 31.716471 
" style="fill:none;stroke:#000000;stroke-width:1.5;"/>
    <path clip-path="url(#pb8b611f298)" d="M 399.13594 35.832941 
L 399.13594 31.716471 
" style="fill:none;stroke:#000000;stroke-width:1.5;"/>
    <path clip-path="url(#pb8b611f298)" d="M 410.543946 35.832941 
L 410.543946 31.716471 
" style="fill:none;stroke:#000000;stroke-width:1.5;"/>
    <path clip-path="url(#pb8b611f298)" d="M 416.630146 35.832941 
L 416.630146 31.716471 
" style="fill:none;stroke:#000000;stroke-width:1.5;"/>
    <path clip-path="url(#pb8b611f298)" d="M 447.09589 35.832941 
L 447.09589 31.716471 
" style="fill:none;stroke:#000000;stroke-width:1.5;"/>
    <path clip-path="url(#pb8b611f298)" d="M 465.632451 35.832941 
L 465.632451 31.716471 
" style="fill:none;stroke:#000000;stroke-width:1.5;"/>
    <path clip-path="url(#pb8b611f298)" d="M 527.10249 35.832941 
L 527.10249 31.716471 
" style="fill:none;stroke:#000000;stroke-width:1.5;"/>
   </g>
   <g id="patch_3">
    <path d="M 28.48 167.56 
L 28.48 27.6 
" style="fill:none;stroke:#000000;stroke-linecap:square;stroke-linejoin:miter;stroke-width:0.8;"/>
   </g>
   <g id="patch_4">
    <path d="M 560.081471 167.56 
L 560.081471 27.6 
" style="fill:none;stroke:#000000;stroke-linecap:square;stroke-linejoin:miter;stroke-width:0.8;"/>
   </g>
   <g id="patch_5">
    <path d="M 28.48 167.56 
L 560.081471 167.56 
" style="fill:none;stroke:#000000;stroke-linecap:square;stroke-linejoin:miter;stroke-width:0.8;"/>
   </g>
   <g id="patch_6">
    <path d="M 28.48 27.6 
L 560.081471 27.6 
" style="fill:none;stroke:#000000;stroke-linecap:square;stroke-linejoin:miter;stroke-width:0.8;"/>
   </g>
   <g id="text_10">
    <!-- Hippocampus raster -->
    <defs>
     <path d="M 9.8125 72.90625 
L 19.671875 72.90625 
L 19.671875 43.015625 
L 55.515625 43.015625 
L 55.515625 72.90625 
L 65.375 72.90625 
L 65.375 0 
L 55.515625 0 
L 55.515625 34.71875 
L 19.671875 34.71875 
L 19.671875 0 
L 9.8125 0 
z
" id="DejaVuSans-72"/>
     <path d="M 18.109375 8.203125 
L 18.109375 -20.796875 
L 9.078125 -20.796875 
L 9.078125 54.6875 
L 18.109375 54.6875 
L 18.109375 46.390625 
Q 20.953125 51.265625 25.265625 53.625 
Q 29.59375 56 35.59375 56 
Q 45.5625 56 51.78125 48.09375 
Q 58.015625 40.1875 58.015625 27.296875 
Q 58.015625 14.40625 51.78125 6.484375 
Q 45.5625 -1.421875 35.59375 -1.421875 
Q 29.59375 -1.421875 25.265625 0.953125 
Q 20.953125 3.328125 18.109375 8.203125 
z
M 48.6875 27.296875 
Q 48.6875 37.203125 44.609375 42.84375 
Q 40.53125 48.484375 33.40625 48.484375 
Q 26.265625 48.484375 22.1875 42.84375 
Q 18.109375 37.203125 18.109375 27.296875 
Q 18.109375 17.390625 22.1875 11.75 
Q 26.265625 6.109375 33.40625 6.109375 
Q 40.53125 6.109375 44.609375 11.75 
Q 48.6875 17.390625 48.6875 27.296875 
z
" id="DejaVuSans-112"/>
     <path d="M 30.609375 48.390625 
Q 23.390625 48.390625 19.1875 42.75 
Q 14.984375 37.109375 14.984375 27.296875 
Q 14.984375 17.484375 19.15625 11.84375 
Q 23.34375 6.203125 30.609375 6.203125 
Q 37.796875 6.203125 41.984375 11.859375 
Q 46.1875 17.53125 46.1875 27.296875 
Q 46.1875 37.015625 41.984375 42.703125 
Q 37.796875 48.390625 30.609375 48.390625 
z
M 30.609375 56 
Q 42.328125 56 49.015625 48.375 
Q 55.71875 40.765625 55.71875 27.296875 
Q 55.71875 13.875 49.015625 6.21875 
Q 42.328125 -1.421875 30.609375 -1.421875 
Q 18.84375 -1.421875 12.171875 6.21875 
Q 5.515625 13.875 5.515625 27.296875 
Q 5.515625 40.765625 12.171875 48.375 
Q 18.84375 56 30.609375 56 
z
" id="DejaVuSans-111"/>
     <path d="M 48.78125 52.59375 
L 48.78125 44.1875 
Q 44.96875 46.296875 41.140625 47.34375 
Q 37.3125 48.390625 33.40625 48.390625 
Q 24.65625 48.390625 19.8125 42.84375 
Q 14.984375 37.3125 14.984375 27.296875 
Q 14.984375 17.28125 19.8125 11.734375 
Q 24.65625 6.203125 33.40625 6.203125 
Q 37.3125 6.203125 41.140625 7.25 
Q 44.96875 8.296875 48.78125 10.40625 
L 48.78125 2.09375 
Q 45.015625 0.34375 40.984375 -0.53125 
Q 36.96875 -1.421875 32.421875 -1.421875 
Q 20.0625 -1.421875 12.78125 6.34375 
Q 5.515625 14.109375 5.515625 27.296875 
Q 5.515625 40.671875 12.859375 48.328125 
Q 20.21875 56 33.015625 56 
Q 37.15625 56 41.109375 55.140625 
Q 45.0625 54.296875 48.78125 52.59375 
z
" id="DejaVuSans-99"/>
     <path d="M 34.28125 27.484375 
Q 23.390625 27.484375 19.1875 25 
Q 14.984375 22.515625 14.984375 16.5 
Q 14.984375 11.71875 18.140625 8.90625 
Q 21.296875 6.109375 26.703125 6.109375 
Q 34.1875 6.109375 38.703125 11.40625 
Q 43.21875 16.703125 43.21875 25.484375 
L 43.21875 27.484375 
z
M 52.203125 31.203125 
L 52.203125 0 
L 43.21875 0 
L 43.21875 8.296875 
Q 40.140625 3.328125 35.546875 0.953125 
Q 30.953125 -1.421875 24.3125 -1.421875 
Q 15.921875 -1.421875 10.953125 3.296875 
Q 6 8.015625 6 15.921875 
Q 6 25.140625 12.171875 29.828125 
Q 18.359375 34.515625 30.609375 34.515625 
L 43.21875 34.515625 
L 43.21875 35.40625 
Q 43.21875 41.609375 39.140625 45 
Q 35.0625 48.390625 27.6875 48.390625 
Q 23 48.390625 18.546875 47.265625 
Q 14.109375 46.140625 10.015625 43.890625 
L 10.015625 52.203125 
Q 14.9375 54.109375 19.578125 55.046875 
Q 24.21875 56 28.609375 56 
Q 40.484375 56 46.34375 49.84375 
Q 52.203125 43.703125 52.203125 31.203125 
z
" id="DejaVuSans-97"/>
     <path d="M 8.5 21.578125 
L 8.5 54.6875 
L 17.484375 54.6875 
L 17.484375 21.921875 
Q 17.484375 14.15625 20.5 10.265625 
Q 23.53125 6.390625 29.59375 6.390625 
Q 36.859375 6.390625 41.078125 11.03125 
Q 45.3125 15.671875 45.3125 23.6875 
L 45.3125 54.6875 
L 54.296875 54.6875 
L 54.296875 0 
L 45.3125 0 
L 45.3125 8.40625 
Q 42.046875 3.421875 37.71875 1 
Q 33.40625 -1.421875 27.6875 -1.421875 
Q 18.265625 -1.421875 13.375 4.4375 
Q 8.5 10.296875 8.5 21.578125 
z
M 31.109375 56 
z
" id="DejaVuSans-117"/>
     <path d="M 41.109375 46.296875 
Q 39.59375 47.171875 37.8125 47.578125 
Q 36.03125 48 33.890625 48 
Q 26.265625 48 22.1875 43.046875 
Q 18.109375 38.09375 18.109375 28.8125 
L 18.109375 0 
L 9.078125 0 
L 9.078125 54.6875 
L 18.109375 54.6875 
L 18.109375 46.1875 
Q 20.953125 51.171875 25.484375 53.578125 
Q 30.03125 56 36.53125 56 
Q 37.453125 56 38.578125 55.875 
Q 39.703125 55.765625 41.0625 55.515625 
z
" id="DejaVuSans-114"/>
     <path d="M 18.3125 70.21875 
L 18.3125 54.6875 
L 36.8125 54.6875 
L 36.8125 47.703125 
L 18.3125 47.703125 
L 18.3125 18.015625 
Q 18.3125 11.328125 20.140625 9.421875 
Q 21.96875 7.515625 27.59375 7.515625 
L 36.8125 7.515625 
L 36.8125 0 
L 27.59375 0 
Q 17.1875 0 13.234375 3.875 
Q 9.28125 7.765625 9.28125 18.015625 
L 9.28125 47.703125 
L 2.6875 47.703125 
L 2.6875 54.6875 
L 9.28125 54.6875 
L 9.28125 70.21875 
z
" id="DejaVuSans-116"/>
    </defs>
    <g transform="translate(221.425735 21.6)scale(0.144 -0.144)">
     <use xlink:href="#DejaVuSans-72"/>
     <use x="75.195312" xlink:href="#DejaVuSans-105"/>
     <use x="102.978516" xlink:href="#DejaVuSans-112"/>
     <use x="166.455078" xlink:href="#DejaVuSans-112"/>
     <use x="229.931641" xlink:href="#DejaVuSans-111"/>
     <use x="291.113281" xlink:href="#DejaVuSans-99"/>
     <use x="346.09375" xlink:href="#DejaVuSans-97"/>
     <use x="407.373047" xlink:href="#DejaVuSans-109"/>
     <use x="504.785156" xlink:href="#DejaVuSans-112"/>
     <use x="568.261719" xlink:href="#DejaVuSans-117"/>
     <use x="631.640625" xlink:href="#DejaVuSans-115"/>
     <use x="683.740234" xlink:href="#DejaVuSans-32"/>
     <use x="715.527344" xlink:href="#DejaVuSans-114"/>
     <use x="756.640625" xlink:href="#DejaVuSans-97"/>
     <use x="817.919922" xlink:href="#DejaVuSans-115"/>
     <use x="870.019531" xlink:href="#DejaVuSans-116"/>
     <use x="909.228516" xlink:href="#DejaVuSans-101"/>
     <use x="970.751953" xlink:href="#DejaVuSans-114"/>
    </g>
   </g>
  </g>
 </g>
 <defs>
  <clipPath id="pb8b611f298">
   <rect height="139.96" width="531.601471" x="28.48" y="27.6"/>
  </clipPath>
 </defs>
</svg>
