<?xml version="1.0" encoding="utf-8" standalone="no"?>
<!DOCTYPE svg PUBLIC "-//W3C//DTD SVG 1.1//EN"
  "http://www.w3.org/Graphics/SVG/1.1/DTD/svg11.dtd">
<!-- Created with matplotlib (https://matplotlib.org/) -->
<svg height="288pt" version="1.1" viewBox="0 0 720 288" width="720pt" xmlns="http://www.w3.org/2000/svg" xmlns:xlink="http://www.w3.org/1999/xlink">
 <defs>
  <style type="text/css">
*{stroke-linecap:butt;stroke-linejoin:round;white-space:pre;}
  </style>
 </defs>
 <g id="figure_1">
  <g id="patch_1">
   <path d="M 0 288 
L 720 288 
L 720 0 
L 0 0 
z
" style="fill:#ffffff;"/>
  </g>
  <g id="axes_1">
   <g id="patch_2">
    <path d="M 90 256.32 
L 648 256.32 
L 648 34.56 
L 90 34.56 
z
" style="fill:#ffffff;"/>
   </g>
   <g id="PolyCollection_1">
    <defs>
     <path d="M 142.269796 -31.68 
L 142.269796 -264.528 
L 597.78 -264.528 
L 597.78 -31.68 
L 597.78 -31.68 
L 142.269796 -31.68 
z
" id="mecf58bb623" style="stroke:#808080;stroke-opacity:0.3;"/>
    </defs>
    <g clip-path="url(#p38f11461fc)">
     <use style="fill:#808080;fill-opacity:0.3;stroke:#808080;stroke-opacity:0.3;" x="0" xlink:href="#mecf58bb623" y="288"/>
    </g>
   </g>
   <g id="matplotlib.axis_1">
    <g id="xtick_1">
     <g id="line2d_1">
      <defs>
       <path d="M 0 0 
L 0 3.5 
" id="m2a71089939" style="stroke:#000000;stroke-width:0.8;"/>
      </defs>
      <g>
       <use style="stroke:#000000;stroke-width:0.8;" x="90" xlink:href="#m2a71089939" y="256.32"/>
      </g>
     </g>
     <g id="text_1">
      <!-- 0.0 -->
      <defs>
       <path d="M 31.78125 66.40625 
Q 24.171875 66.40625 20.328125 58.90625 
Q 16.5 51.421875 16.5 36.375 
Q 16.5 21.390625 20.328125 13.890625 
Q 24.171875 6.390625 31.78125 6.390625 
Q 39.453125 6.390625 43.28125 13.890625 
Q 47.125 21.390625 47.125 36.375 
Q 47.125 51.421875 43.28125 58.90625 
Q 39.453125 66.40625 31.78125 66.40625 
z
M 31.78125 74.21875 
Q 44.046875 74.21875 50.515625 64.515625 
Q 56.984375 54.828125 56.984375 36.375 
Q 56.984375 17.96875 50.515625 8.265625 
Q 44.046875 -1.421875 31.78125 -1.421875 
Q 19.53125 -1.421875 13.0625 8.265625 
Q 6.59375 17.96875 6.59375 36.375 
Q 6.59375 54.828125 13.0625 64.515625 
Q 19.53125 74.21875 31.78125 74.21875 
z
" id="DejaVuSans-48"/>
       <path d="M 10.6875 12.40625 
L 21 12.40625 
L 21 0 
L 10.6875 0 
z
" id="DejaVuSans-46"/>
      </defs>
      <g transform="translate(82.048438 270.918437)scale(0.1 -0.1)">
       <use xlink:href="#DejaVuSans-48"/>
       <use x="63.623047" xlink:href="#DejaVuSans-46"/>
       <use x="95.410156" xlink:href="#DejaVuSans-48"/>
      </g>
     </g>
    </g>
    <g id="xtick_2">
     <g id="line2d_2">
      <g>
       <use style="stroke:#000000;stroke-width:0.8;" x="203.877551" xlink:href="#m2a71089939" y="256.32"/>
      </g>
     </g>
     <g id="text_2">
      <!-- 0.5 -->
      <defs>
       <path d="M 10.796875 72.90625 
L 49.515625 72.90625 
L 49.515625 64.59375 
L 19.828125 64.59375 
L 19.828125 46.734375 
Q 21.96875 47.46875 24.109375 47.828125 
Q 26.265625 48.1875 28.421875 48.1875 
Q 40.625 48.1875 47.75 41.5 
Q 54.890625 34.8125 54.890625 23.390625 
Q 54.890625 11.625 47.5625 5.09375 
Q 40.234375 -1.421875 26.90625 -1.421875 
Q 22.3125 -1.421875 17.546875 -0.640625 
Q 12.796875 0.140625 7.71875 1.703125 
L 7.71875 11.625 
Q 12.109375 9.234375 16.796875 8.0625 
Q 21.484375 6.890625 26.703125 6.890625 
Q 35.15625 6.890625 40.078125 11.328125 
Q 45.015625 15.765625 45.015625 23.390625 
Q 45.015625 31 40.078125 35.4375 
Q 35.15625 39.890625 26.703125 39.890625 
Q 22.75 39.890625 18.8125 39.015625 
Q 14.890625 38.140625 10.796875 36.28125 
z
" id="DejaVuSans-53"/>
      </defs>
      <g transform="translate(195.925989 270.918437)scale(0.1 -0.1)">
       <use xlink:href="#DejaVuSans-48"/>
       <use x="63.623047" xlink:href="#DejaVuSans-46"/>
       <use x="95.410156" xlink:href="#DejaVuSans-53"/>
      </g>
     </g>
    </g>
    <g id="xtick_3">
     <g id="line2d_3">
      <g>
       <use style="stroke:#000000;stroke-width:0.8;" x="317.755102" xlink:href="#m2a71089939" y="256.32"/>
      </g>
     </g>
     <g id="text_3">
      <!-- 1.0 -->
      <defs>
       <path d="M 12.40625 8.296875 
L 28.515625 8.296875 
L 28.515625 63.921875 
L 10.984375 60.40625 
L 10.984375 69.390625 
L 28.421875 72.90625 
L 38.28125 72.90625 
L 38.28125 8.296875 
L 54.390625 8.296875 
L 54.390625 0 
L 12.40625 0 
z
" id="DejaVuSans-49"/>
      </defs>
      <g transform="translate(309.80354 270.918437)scale(0.1 -0.1)">
       <use xlink:href="#DejaVuSans-49"/>
       <use x="63.623047" xlink:href="#DejaVuSans-46"/>
       <use x="95.410156" xlink:href="#DejaVuSans-48"/>
      </g>
     </g>
    </g>
    <g id="xtick_4">
     <g id="line2d_4">
      <g>
       <use style="stroke:#000000;stroke-width:0.8;" x="431.632653" xlink:href="#m2a71089939" y="256.32"/>
      </g>
     </g>
     <g id="text_4">
      <!-- 1.5 -->
      <g transform="translate(423.681091 270.918437)scale(0.1 -0.1)">
       <use xlink:href="#DejaVuSans-49"/>
       <use x="63.623047" xlink:href="#DejaVuSans-46"/>
       <use x="95.410156" xlink:href="#DejaVuSans-53"/>
      </g>
     </g>
    </g>
    <g id="xtick_5">
     <g id="line2d_5">
      <g>
       <use style="stroke:#000000;stroke-width:0.8;" x="545.510204" xlink:href="#m2a71089939" y="256.32"/>
      </g>
     </g>
     <g id="text_5">
      <!-- 2.0 -->
      <defs>
       <path d="M 19.1875 8.296875 
L 53.609375 8.296875 
L 53.609375 0 
L 7.328125 0 
L 7.328125 8.296875 
Q 12.9375 14.109375 22.625 23.890625 
Q 32.328125 33.6875 34.8125 36.53125 
Q 39.546875 41.84375 41.421875 45.53125 
Q 43.3125 49.21875 43.3125 52.78125 
Q 43.3125 58.59375 39.234375 62.25 
Q 35.15625 65.921875 28.609375 65.921875 
Q 23.96875 65.921875 18.8125 64.3125 
Q 13.671875 62.703125 7.8125 59.421875 
L 7.8125 69.390625 
Q 13.765625 71.78125 18.9375 73 
Q 24.125 74.21875 28.421875 74.21875 
Q 39.75 74.21875 46.484375 68.546875 
Q 53.21875 62.890625 53.21875 53.421875 
Q 53.21875 48.921875 51.53125 44.890625 
Q 49.859375 40.875 45.40625 35.40625 
Q 44.1875 33.984375 37.640625 27.21875 
Q 31.109375 20.453125 19.1875 8.296875 
z
" id="DejaVuSans-50"/>
      </defs>
      <g transform="translate(537.558642 270.918437)scale(0.1 -0.1)">
       <use xlink:href="#DejaVuSans-50"/>
       <use x="63.623047" xlink:href="#DejaVuSans-46"/>
       <use x="95.410156" xlink:href="#DejaVuSans-48"/>
      </g>
     </g>
    </g>
    <g id="text_6">
     <!-- Time (s) -->
     <defs>
      <path d="M -0.296875 72.90625 
L 61.375 72.90625 
L 61.375 64.59375 
L 35.5 64.59375 
L 35.5 0 
L 25.59375 0 
L 25.59375 64.59375 
L -0.296875 64.59375 
z
" id="DejaVuSans-84"/>
      <path d="M 9.421875 54.6875 
L 18.40625 54.6875 
L 18.40625 0 
L 9.421875 0 
z
M 9.421875 75.984375 
L 18.40625 75.984375 
L 18.40625 64.59375 
L 9.421875 64.59375 
z
" id="DejaVuSans-105"/>
      <path d="M 52 44.1875 
Q 55.375 50.25 60.0625 53.125 
Q 64.75 56 71.09375 56 
Q 79.640625 56 84.28125 50.015625 
Q 88.921875 44.046875 88.921875 33.015625 
L 88.921875 0 
L 79.890625 0 
L 79.890625 32.71875 
Q 79.890625 40.578125 77.09375 44.375 
Q 74.3125 48.1875 68.609375 48.1875 
Q 61.625 48.1875 57.5625 43.546875 
Q 53.515625 38.921875 53.515625 30.90625 
L 53.515625 0 
L 44.484375 0 
L 44.484375 32.71875 
Q 44.484375 40.625 41.703125 44.40625 
Q 38.921875 48.1875 33.109375 48.1875 
Q 26.21875 48.1875 22.15625 43.53125 
Q 18.109375 38.875 18.109375 30.90625 
L 18.109375 0 
L 9.078125 0 
L 9.078125 54.6875 
L 18.109375 54.6875 
L 18.109375 46.1875 
Q 21.1875 51.21875 25.484375 53.609375 
Q 29.78125 56 35.6875 56 
Q 41.65625 56 45.828125 52.96875 
Q 50 49.953125 52 44.1875 
z
" id="DejaVuSans-109"/>
      <path d="M 56.203125 29.59375 
L 56.203125 25.203125 
L 14.890625 25.203125 
Q 15.484375 15.921875 20.484375 11.0625 
Q 25.484375 6.203125 34.421875 6.203125 
Q 39.59375 6.203125 44.453125 7.46875 
Q 49.3125 8.734375 54.109375 11.28125 
L 54.109375 2.78125 
Q 49.265625 0.734375 44.1875 -0.34375 
Q 39.109375 -1.421875 33.890625 -1.421875 
Q 20.796875 -1.421875 13.15625 6.1875 
Q 5.515625 13.8125 5.515625 26.8125 
Q 5.515625 40.234375 12.765625 48.109375 
Q 20.015625 56 32.328125 56 
Q 43.359375 56 49.78125 48.890625 
Q 56.203125 41.796875 56.203125 29.59375 
z
M 47.21875 32.234375 
Q 47.125 39.59375 43.09375 43.984375 
Q 39.0625 48.390625 32.421875 48.390625 
Q 24.90625 48.390625 20.390625 44.140625 
Q 15.875 39.890625 15.1875 32.171875 
z
" id="DejaVuSans-101"/>
      <path id="DejaVuSans-32"/>
      <path d="M 31 75.875 
Q 24.46875 64.65625 21.28125 53.65625 
Q 18.109375 42.671875 18.109375 31.390625 
Q 18.109375 20.125 21.3125 9.0625 
Q 24.515625 -2 31 -13.1875 
L 23.1875 -13.1875 
Q 15.875 -1.703125 12.234375 9.375 
Q 8.59375 20.453125 8.59375 31.390625 
Q 8.59375 42.28125 12.203125 53.3125 
Q 15.828125 64.359375 23.1875 75.875 
z
" id="DejaVuSans-40"/>
      <path d="M 44.28125 53.078125 
L 44.28125 44.578125 
Q 40.484375 46.53125 36.375 47.5 
Q 32.28125 48.484375 27.875 48.484375 
Q 21.1875 48.484375 17.84375 46.4375 
Q 14.5 44.390625 14.5 40.28125 
Q 14.5 37.15625 16.890625 35.375 
Q 19.28125 33.59375 26.515625 31.984375 
L 29.59375 31.296875 
Q 39.15625 29.25 43.1875 25.515625 
Q 47.21875 21.78125 47.21875 15.09375 
Q 47.21875 7.46875 41.1875 3.015625 
Q 35.15625 -1.421875 24.609375 -1.421875 
Q 20.21875 -1.421875 15.453125 -0.5625 
Q 10.6875 0.296875 5.421875 2 
L 5.421875 11.28125 
Q 10.40625 8.6875 15.234375 7.390625 
Q 20.0625 6.109375 24.8125 6.109375 
Q 31.15625 6.109375 34.5625 8.28125 
Q 37.984375 10.453125 37.984375 14.40625 
Q 37.984375 18.0625 35.515625 20.015625 
Q 33.0625 21.96875 24.703125 23.78125 
L 21.578125 24.515625 
Q 13.234375 26.265625 9.515625 29.90625 
Q 5.8125 33.546875 5.8125 39.890625 
Q 5.8125 47.609375 11.28125 51.796875 
Q 16.75 56 26.8125 56 
Q 31.78125 56 36.171875 55.265625 
Q 40.578125 54.546875 44.28125 53.078125 
z
" id="DejaVuSans-115"/>
      <path d="M 8.015625 75.875 
L 15.828125 75.875 
Q 23.140625 64.359375 26.78125 53.3125 
Q 30.421875 42.28125 30.421875 31.390625 
Q 30.421875 20.453125 26.78125 9.375 
Q 23.140625 -1.703125 15.828125 -13.1875 
L 8.015625 -13.1875 
Q 14.5 -2 17.703125 9.0625 
Q 20.90625 20.125 20.90625 31.390625 
Q 20.90625 42.671875 17.703125 53.65625 
Q 14.5 64.65625 8.015625 75.875 
z
" id="DejaVuSans-41"/>
     </defs>
     <g transform="translate(344.420625 286.11625)scale(0.12 -0.12)">
      <use xlink:href="#DejaVuSans-84"/>
      <use x="61.037109" xlink:href="#DejaVuSans-105"/>
      <use x="88.820312" xlink:href="#DejaVuSans-109"/>
      <use x="186.232422" xlink:href="#DejaVuSans-101"/>
      <use x="247.755859" xlink:href="#DejaVuSans-32"/>
      <use x="279.542969" xlink:href="#DejaVuSans-40"/>
      <use x="318.556641" xlink:href="#DejaVuSans-115"/>
      <use x="370.65625" xlink:href="#DejaVuSans-41"/>
     </g>
    </g>
   </g>
   <g id="matplotlib.axis_2">
    <g id="ytick_1">
     <g id="line2d_6">
      <defs>
       <path d="M 0 0 
L -3.5 0 
" id="m9ea01410d7" style="stroke:#000000;stroke-width:0.8;"/>
      </defs>
      <g>
       <use style="stroke:#000000;stroke-width:0.8;" x="90" xlink:href="#m9ea01410d7" y="228.975864"/>
      </g>
     </g>
     <g id="text_7">
      <!-- 0.001 -->
      <g transform="translate(54.371875 232.775083)scale(0.1 -0.1)">
       <use xlink:href="#DejaVuSans-48"/>
       <use x="63.623047" xlink:href="#DejaVuSans-46"/>
       <use x="95.410156" xlink:href="#DejaVuSans-48"/>
       <use x="159.033203" xlink:href="#DejaVuSans-48"/>
       <use x="222.65625" xlink:href="#DejaVuSans-49"/>
      </g>
     </g>
    </g>
    <g id="ytick_2">
     <g id="line2d_7">
      <g>
       <use style="stroke:#000000;stroke-width:0.8;" x="90" xlink:href="#m9ea01410d7" y="184.717831"/>
      </g>
     </g>
     <g id="text_8">
      <!-- 0.002 -->
      <g transform="translate(54.371875 188.517049)scale(0.1 -0.1)">
       <use xlink:href="#DejaVuSans-48"/>
       <use x="63.623047" xlink:href="#DejaVuSans-46"/>
       <use x="95.410156" xlink:href="#DejaVuSans-48"/>
       <use x="159.033203" xlink:href="#DejaVuSans-48"/>
       <use x="222.65625" xlink:href="#DejaVuSans-50"/>
      </g>
     </g>
    </g>
    <g id="ytick_3">
     <g id="line2d_8">
      <g>
       <use style="stroke:#000000;stroke-width:0.8;" x="90" xlink:href="#m9ea01410d7" y="140.459797"/>
      </g>
     </g>
     <g id="text_9">
      <!-- 0.003 -->
      <defs>
       <path d="M 40.578125 39.3125 
Q 47.65625 37.796875 51.625 33 
Q 55.609375 28.21875 55.609375 21.1875 
Q 55.609375 10.40625 48.1875 4.484375 
Q 40.765625 -1.421875 27.09375 -1.421875 
Q 22.515625 -1.421875 17.65625 -0.515625 
Q 12.796875 0.390625 7.625 2.203125 
L 7.625 11.71875 
Q 11.71875 9.328125 16.59375 8.109375 
Q 21.484375 6.890625 26.8125 6.890625 
Q 36.078125 6.890625 40.9375 10.546875 
Q 45.796875 14.203125 45.796875 21.1875 
Q 45.796875 27.640625 41.28125 31.265625 
Q 36.765625 34.90625 28.71875 34.90625 
L 20.21875 34.90625 
L 20.21875 43.015625 
L 29.109375 43.015625 
Q 36.375 43.015625 40.234375 45.921875 
Q 44.09375 48.828125 44.09375 54.296875 
Q 44.09375 59.90625 40.109375 62.90625 
Q 36.140625 65.921875 28.71875 65.921875 
Q 24.65625 65.921875 20.015625 65.03125 
Q 15.375 64.15625 9.8125 62.3125 
L 9.8125 71.09375 
Q 15.4375 72.65625 20.34375 73.4375 
Q 25.25 74.21875 29.59375 74.21875 
Q 40.828125 74.21875 47.359375 69.109375 
Q 53.90625 64.015625 53.90625 55.328125 
Q 53.90625 49.265625 50.4375 45.09375 
Q 46.96875 40.921875 40.578125 39.3125 
z
" id="DejaVuSans-51"/>
      </defs>
      <g transform="translate(54.371875 144.259015)scale(0.1 -0.1)">
       <use xlink:href="#DejaVuSans-48"/>
       <use x="63.623047" xlink:href="#DejaVuSans-46"/>
       <use x="95.410156" xlink:href="#DejaVuSans-48"/>
       <use x="159.033203" xlink:href="#DejaVuSans-48"/>
       <use x="222.65625" xlink:href="#DejaVuSans-51"/>
      </g>
     </g>
    </g>
    <g id="ytick_4">
     <g id="line2d_9">
      <g>
       <use style="stroke:#000000;stroke-width:0.8;" x="90" xlink:href="#m9ea01410d7" y="96.201763"/>
      </g>
     </g>
     <g id="text_10">
      <!-- 0.004 -->
      <defs>
       <path d="M 37.796875 64.3125 
L 12.890625 25.390625 
L 37.796875 25.390625 
z
M 35.203125 72.90625 
L 47.609375 72.90625 
L 47.609375 25.390625 
L 58.015625 25.390625 
L 58.015625 17.1875 
L 47.609375 17.1875 
L 47.609375 0 
L 37.796875 0 
L 37.796875 17.1875 
L 4.890625 17.1875 
L 4.890625 26.703125 
z
" id="DejaVuSans-52"/>
      </defs>
      <g transform="translate(54.371875 100.000981)scale(0.1 -0.1)">
       <use xlink:href="#DejaVuSans-48"/>
       <use x="63.623047" xlink:href="#DejaVuSans-46"/>
       <use x="95.410156" xlink:href="#DejaVuSans-48"/>
       <use x="159.033203" xlink:href="#DejaVuSans-48"/>
       <use x="222.65625" xlink:href="#DejaVuSans-52"/>
      </g>
     </g>
    </g>
    <g id="ytick_5">
     <g id="line2d_10">
      <g>
       <use style="stroke:#000000;stroke-width:0.8;" x="90" xlink:href="#m9ea01410d7" y="51.943729"/>
      </g>
     </g>
     <g id="text_11">
      <!-- 0.005 -->
      <g transform="translate(54.371875 55.742948)scale(0.1 -0.1)">
       <use xlink:href="#DejaVuSans-48"/>
       <use x="63.623047" xlink:href="#DejaVuSans-46"/>
       <use x="95.410156" xlink:href="#DejaVuSans-48"/>
       <use x="159.033203" xlink:href="#DejaVuSans-48"/>
       <use x="222.65625" xlink:href="#DejaVuSans-53"/>
      </g>
     </g>
    </g>
   </g>
   <g id="line2d_11">
    <path clip-path="url(#p38f11461fc)" d="M 90 193.362712 
L 92.277551 197.121356 
L 94.555102 201.819661 
L 96.832653 204.638644 
L 99.110204 201.819661 
L 101.387755 204.638644 
L 103.665306 199.940339 
L 105.942857 205.578305 
L 108.220408 208.397288 
L 110.497959 210.27661 
L 112.77551 216.854237 
L 115.053061 214.974915 
L 117.330612 215.914576 
L 119.608163 217.793898 
L 121.885714 223.431864 
L 124.163265 214.035254 
L 126.440816 216.854237 
L 128.718367 214.035254 
L 130.995918 214.035254 
L 133.273469 208.397288 
L 135.55102 209.336949 
L 137.828571 206.517966 
L 142.383673 208.397288 
L 144.661224 210.27661 
L 146.938776 218.733559 
L 149.216327 211.216271 
L 151.493878 211.216271 
L 153.771429 203.698983 
L 156.04898 202.759322 
L 158.326531 194.302373 
L 160.604082 192.423051 
L 162.881633 189.604068 
L 165.159184 191.48339 
L 167.436735 188.664407 
L 169.714286 187.724746 
L 171.991837 191.48339 
L 174.269388 185.845424 
L 176.546939 185.845424 
L 178.82449 183.026441 
L 181.102041 183.966102 
L 183.379592 187.724746 
L 185.657143 185.845424 
L 192.489796 185.845424 
L 194.767347 187.724746 
L 197.044898 195.242034 
L 199.322449 196.181695 
L 201.6 203.698983 
L 203.877551 206.517966 
L 206.155102 206.517966 
L 208.432653 211.216271 
L 210.710204 205.578305 
L 212.987755 203.698983 
L 215.265306 202.759322 
L 217.542857 197.121356 
L 219.820408 193.362712 
L 226.653061 187.724746 
L 228.930612 183.966102 
L 231.208163 178.328136 
L 233.485714 180.207458 
L 235.763265 179.267797 
L 238.040816 179.267797 
L 240.318367 182.08678 
L 242.595918 181.147119 
L 244.873469 187.724746 
L 247.15102 183.966102 
L 249.428571 183.966102 
L 251.706122 187.724746 
L 253.983673 190.543729 
L 256.261224 191.48339 
L 258.538776 189.604068 
L 260.816327 186.785085 
L 263.093878 183.026441 
L 265.371429 184.905763 
L 267.64898 180.207458 
L 269.926531 182.08678 
L 272.204082 183.026441 
L 274.481633 178.328136 
L 279.036735 172.690169 
L 281.314286 179.267797 
L 283.591837 180.207458 
L 285.869388 190.543729 
L 288.146939 193.362712 
L 290.42449 192.423051 
L 292.702041 193.362712 
L 294.979592 197.121356 
L 297.257143 203.698983 
L 299.534694 203.698983 
L 301.812245 208.397288 
L 304.089796 203.698983 
L 306.367347 208.397288 
L 308.644898 202.759322 
L 310.922449 199.000678 
L 313.2 199.000678 
L 315.477551 200.88 
L 317.755102 200.88 
L 320.032653 199.000678 
L 322.310204 206.517966 
L 324.587755 205.578305 
L 326.865306 207.457627 
L 329.142857 201.819661 
L 331.420408 203.698983 
L 333.697959 210.27661 
L 335.97551 214.974915 
L 338.253061 214.035254 
L 340.530612 212.155932 
L 342.808163 213.095593 
L 345.085714 205.578305 
L 347.363265 202.759322 
L 349.640816 199.000678 
L 351.918367 199.000678 
L 354.195918 202.759322 
L 356.473469 201.819661 
L 358.75102 199.000678 
L 361.028571 200.88 
L 363.306122 201.819661 
L 365.583673 201.819661 
L 367.861224 203.698983 
L 370.138776 204.638644 
L 372.416327 207.457627 
L 374.693878 207.457627 
L 376.971429 206.517966 
L 379.24898 202.759322 
L 381.526531 201.819661 
L 383.804082 198.061017 
L 386.081633 196.181695 
L 388.359184 197.121356 
L 390.636735 197.121356 
L 392.914286 200.88 
L 395.191837 199.000678 
L 397.469388 199.940339 
L 404.302041 197.121356 
L 406.579592 199.000678 
L 408.857143 199.940339 
L 411.134694 199.000678 
L 413.412245 200.88 
L 415.689796 200.88 
L 417.967347 202.759322 
L 422.522449 191.48339 
L 424.8 188.664407 
L 427.077551 193.362712 
L 429.355102 190.543729 
L 431.632653 189.604068 
L 433.910204 191.48339 
L 438.465306 189.604068 
L 440.742857 186.785085 
L 445.297959 190.543729 
L 447.57551 189.604068 
L 452.130612 189.604068 
L 454.408163 187.724746 
L 456.685714 183.966102 
L 458.963265 183.026441 
L 461.240816 183.026441 
L 463.518367 185.845424 
L 465.795918 187.724746 
L 468.073469 188.664407 
L 470.35102 190.543729 
L 472.628571 189.604068 
L 474.906122 195.242034 
L 477.183673 198.061017 
L 479.461224 199.940339 
L 481.738776 202.759322 
L 484.016327 201.819661 
L 486.293878 201.819661 
L 488.571429 205.578305 
L 490.84898 206.517966 
L 493.126531 211.216271 
L 495.404082 209.336949 
L 497.681633 206.517966 
L 499.959184 201.819661 
L 502.236735 198.061017 
L 504.514286 191.48339 
L 506.791837 190.543729 
L 509.069388 188.664407 
L 511.346939 189.604068 
L 513.62449 186.785085 
L 515.902041 185.845424 
L 518.179592 186.785085 
L 520.457143 185.845424 
L 525.012245 195.242034 
L 527.289796 196.181695 
L 529.567347 195.242034 
L 531.844898 196.181695 
L 534.122449 193.362712 
L 536.4 196.181695 
L 538.677551 193.362712 
L 540.955102 185.845424 
L 543.232653 187.724746 
L 545.510204 191.48339 
L 550.065306 193.362712 
L 554.620408 202.759322 
L 556.897959 200.88 
L 559.17551 199.940339 
L 561.453061 204.638644 
L 563.730612 210.27661 
L 566.008163 210.27661 
L 568.285714 203.698983 
L 570.563265 200.88 
L 572.840816 200.88 
L 575.118367 194.302373 
L 577.395918 190.543729 
L 579.673469 190.543729 
L 581.95102 188.664407 
L 584.228571 189.604068 
L 586.506122 186.785085 
L 588.783673 188.664407 
L 591.061224 183.966102 
L 593.338776 180.207458 
L 595.616327 188.664407 
L 597.893878 193.362712 
L 602.44898 193.362712 
L 604.726531 199.000678 
L 607.004082 194.302373 
L 609.281633 199.940339 
L 611.559184 195.242034 
L 613.836735 201.819661 
L 616.114286 209.336949 
L 618.391837 206.517966 
L 620.669388 196.181695 
L 622.946939 192.423051 
L 625.22449 194.302373 
L 627.502041 189.604068 
L 629.779592 191.48339 
L 632.057143 190.543729 
L 634.334694 190.543729 
L 636.612245 194.302373 
L 638.889796 191.48339 
L 641.167347 186.785085 
L 643.444898 190.543729 
L 645.722449 190.543729 
L 648 192.423051 
L 648 192.423051 
" style="fill:none;stroke:#0000ff;stroke-linecap:square;stroke-opacity:0.05;stroke-width:1.5;"/>
   </g>
   <g id="line2d_12">
    <path clip-path="url(#p38f11461fc)" d="M 90 182.08678 
L 94.555102 163.293559 
L 96.832653 155.776271 
L 99.110204 152.017627 
L 101.387755 150.138305 
L 103.665306 144.500339 
L 105.942857 133.224407 
L 108.220408 128.526102 
L 110.497959 122.888136 
L 112.77551 138.862373 
L 115.053061 150.138305 
L 117.330612 157.655593 
L 119.608163 170.810847 
L 121.885714 177.388475 
L 124.163265 186.785085 
L 126.440816 195.242034 
L 128.718367 204.638644 
L 130.995918 215.914576 
L 133.273469 222.492203 
L 135.55102 222.492203 
L 137.828571 218.733559 
L 140.106122 216.854237 
L 142.383673 209.336949 
L 144.661224 203.698983 
L 146.938776 202.759322 
L 149.216327 197.121356 
L 151.493878 193.362712 
L 153.771429 186.785085 
L 156.04898 184.905763 
L 158.326531 175.509153 
L 160.604082 171.750508 
L 162.881633 164.23322 
L 165.159184 159.534915 
L 167.436735 163.293559 
L 169.714286 161.414237 
L 171.991837 163.293559 
L 174.269388 158.595254 
L 176.546939 156.715932 
L 178.82449 152.957288 
L 181.102041 157.655593 
L 183.379592 164.23322 
L 185.657143 162.353898 
L 187.934694 173.629831 
L 190.212245 174.569492 
L 192.489796 174.569492 
L 197.044898 182.08678 
L 199.322449 184.905763 
L 201.6 185.845424 
L 203.877551 190.543729 
L 206.155102 187.724746 
L 208.432653 200.88 
L 210.710204 190.543729 
L 212.987755 192.423051 
L 215.265306 187.724746 
L 217.542857 185.845424 
L 219.820408 188.664407 
L 222.097959 188.664407 
L 224.37551 192.423051 
L 226.653061 190.543729 
L 228.930612 186.785085 
L 233.485714 192.423051 
L 235.763265 189.604068 
L 238.040816 192.423051 
L 240.318367 193.362712 
L 242.595918 189.604068 
L 244.873469 195.242034 
L 247.15102 189.604068 
L 249.428571 187.724746 
L 251.706122 190.543729 
L 253.983673 181.147119 
L 256.261224 185.845424 
L 258.538776 185.845424 
L 260.816327 190.543729 
L 263.093878 184.905763 
L 265.371429 186.785085 
L 267.64898 179.267797 
L 269.926531 179.267797 
L 272.204082 183.966102 
L 274.481633 190.543729 
L 276.759184 194.302373 
L 279.036735 196.181695 
L 281.314286 196.181695 
L 283.591837 192.423051 
L 285.869388 194.302373 
L 288.146939 197.121356 
L 290.42449 199.000678 
L 292.702041 199.940339 
L 294.979592 203.698983 
L 297.257143 196.181695 
L 299.534694 196.181695 
L 301.812245 190.543729 
L 304.089796 186.785085 
L 306.367347 180.207458 
L 308.644898 183.966102 
L 310.922449 183.966102 
L 313.2 188.664407 
L 315.477551 191.48339 
L 317.755102 188.664407 
L 320.032653 194.302373 
L 322.310204 198.061017 
L 324.587755 204.638644 
L 326.865306 212.155932 
L 329.142857 217.793898 
L 331.420408 211.216271 
L 333.697959 207.457627 
L 335.97551 201.819661 
L 338.253061 206.517966 
L 342.808163 193.362712 
L 345.085714 184.905763 
L 347.363265 169.871186 
L 349.640816 159.534915 
L 351.918367 157.655593 
L 354.195918 152.017627 
L 356.473469 150.138305 
L 358.75102 147.319322 
L 361.028571 138.862373 
L 363.306122 136.983051 
L 365.583673 139.802034 
L 367.861224 141.681356 
L 370.138776 147.319322 
L 372.416327 151.077966 
L 374.693878 146.379661 
L 376.971429 154.83661 
L 379.24898 155.776271 
L 381.526531 150.138305 
L 383.804082 153.896949 
L 388.359184 153.896949 
L 390.636735 156.715932 
L 392.914286 164.23322 
L 395.191837 166.112542 
L 397.469388 174.569492 
L 399.746939 175.509153 
L 402.02449 177.388475 
L 404.302041 178.328136 
L 406.579592 176.448814 
L 408.857143 179.267797 
L 411.134694 179.267797 
L 413.412245 174.569492 
L 415.689796 172.690169 
L 417.967347 176.448814 
L 420.244898 175.509153 
L 422.522449 179.267797 
L 424.8 178.328136 
L 427.077551 185.845424 
L 429.355102 189.604068 
L 431.632653 191.48339 
L 433.910204 194.302373 
L 436.187755 195.242034 
L 438.465306 187.724746 
L 440.742857 182.08678 
L 443.020408 180.207458 
L 445.297959 175.509153 
L 447.57551 174.569492 
L 449.853061 176.448814 
L 452.130612 174.569492 
L 454.408163 166.112542 
L 456.685714 166.112542 
L 458.963265 173.629831 
L 461.240816 179.267797 
L 463.518367 175.509153 
L 465.795918 168.931525 
L 468.073469 165.172881 
L 470.35102 154.83661 
L 472.628571 149.198644 
L 474.906122 146.379661 
L 477.183673 152.957288 
L 479.461224 146.379661 
L 481.738776 132.284746 
L 484.016327 129.465763 
L 486.293878 136.983051 
L 488.571429 142.621017 
L 490.84898 146.379661 
L 493.126531 157.655593 
L 495.404082 166.112542 
L 497.681633 167.991864 
L 499.959184 167.052203 
L 502.236735 169.871186 
L 504.514286 183.026441 
L 506.791837 187.724746 
L 509.069388 184.905763 
L 511.346939 183.966102 
L 518.179592 183.966102 
L 520.457143 189.604068 
L 522.734694 190.543729 
L 525.012245 190.543729 
L 527.289796 187.724746 
L 529.567347 188.664407 
L 531.844898 190.543729 
L 534.122449 194.302373 
L 536.4 197.121356 
L 538.677551 198.061017 
L 540.955102 197.121356 
L 543.232653 192.423051 
L 545.510204 200.88 
L 547.787755 203.698983 
L 550.065306 207.457627 
L 552.342857 207.457627 
L 554.620408 212.155932 
L 559.17551 219.67322 
L 561.453061 226.250847 
L 563.730612 225.311186 
L 566.008163 223.431864 
L 568.285714 218.733559 
L 570.563265 217.793898 
L 572.840816 214.974915 
L 575.118367 214.035254 
L 577.395918 205.578305 
L 579.673469 198.061017 
L 581.95102 184.905763 
L 584.228571 170.810847 
L 586.506122 163.293559 
L 588.783673 157.655593 
L 591.061224 145.44 
L 593.338776 141.681356 
L 595.616327 138.862373 
L 597.893878 132.284746 
L 600.171429 135.103729 
L 602.44898 138.862373 
L 604.726531 143.560678 
L 607.004082 147.319322 
L 609.281633 152.957288 
L 611.559184 154.83661 
L 613.836735 154.83661 
L 616.114286 151.077966 
L 618.391837 151.077966 
L 620.669388 153.896949 
L 622.946939 145.44 
L 625.22449 145.44 
L 627.502041 150.138305 
L 629.779592 156.715932 
L 632.057143 154.83661 
L 634.334694 162.353898 
L 636.612245 179.267797 
L 638.889796 192.423051 
L 641.167347 192.423051 
L 643.444898 199.000678 
L 645.722449 209.336949 
L 648 213.095593 
L 648 213.095593 
" style="fill:none;stroke:#0000ff;stroke-linecap:square;stroke-opacity:0.05;stroke-width:1.5;"/>
   </g>
   <g id="line2d_13">
    <path clip-path="url(#p38f11461fc)" d="M 90 184.905763 
L 92.277551 184.905763 
L 94.555102 188.664407 
L 96.832653 183.966102 
L 99.110204 180.207458 
L 103.665306 182.08678 
L 105.942857 177.388475 
L 108.220408 176.448814 
L 110.497959 169.871186 
L 112.77551 166.112542 
L 115.053061 165.172881 
L 117.330612 156.715932 
L 119.608163 157.655593 
L 121.885714 162.353898 
L 124.163265 166.112542 
L 126.440816 167.991864 
L 128.718367 177.388475 
L 130.995918 177.388475 
L 133.273469 183.966102 
L 135.55102 185.845424 
L 137.828571 183.966102 
L 140.106122 185.845424 
L 142.383673 192.423051 
L 144.661224 189.604068 
L 146.938776 189.604068 
L 149.216327 193.362712 
L 151.493878 191.48339 
L 153.771429 184.905763 
L 156.04898 183.026441 
L 158.326531 183.026441 
L 160.604082 183.966102 
L 162.881633 186.785085 
L 165.159184 188.664407 
L 167.436735 194.302373 
L 169.714286 197.121356 
L 171.991837 190.543729 
L 174.269388 189.604068 
L 176.546939 194.302373 
L 178.82449 188.664407 
L 181.102041 179.267797 
L 183.379592 174.569492 
L 185.657143 168.931525 
L 187.934694 160.474576 
L 190.212245 163.293559 
L 192.489796 164.23322 
L 194.767347 170.810847 
L 199.322449 170.810847 
L 201.6 179.267797 
L 203.877551 188.664407 
L 206.155102 199.000678 
L 208.432653 202.759322 
L 210.710204 212.155932 
L 212.987755 208.397288 
L 217.542857 206.517966 
L 222.097959 214.035254 
L 224.37551 210.27661 
L 226.653061 207.457627 
L 228.930612 201.819661 
L 231.208163 204.638644 
L 233.485714 198.061017 
L 235.763265 193.362712 
L 238.040816 184.905763 
L 240.318367 183.966102 
L 242.595918 181.147119 
L 244.873469 177.388475 
L 247.15102 172.690169 
L 249.428571 170.810847 
L 251.706122 160.474576 
L 253.983673 152.017627 
L 256.261224 145.44 
L 258.538776 143.560678 
L 260.816327 139.802034 
L 263.093878 134.164068 
L 265.371429 134.164068 
L 267.64898 128.526102 
L 272.204082 137.922712 
L 274.481633 147.319322 
L 276.759184 150.138305 
L 279.036735 154.83661 
L 281.314286 161.414237 
L 283.591837 173.629831 
L 288.146939 175.509153 
L 290.42449 183.966102 
L 292.702041 187.724746 
L 294.979592 189.604068 
L 297.257143 196.181695 
L 299.534694 198.061017 
L 301.812245 202.759322 
L 304.089796 199.940339 
L 306.367347 196.181695 
L 308.644898 199.000678 
L 310.922449 196.181695 
L 313.2 196.181695 
L 315.477551 192.423051 
L 320.032653 199.940339 
L 322.310204 207.457627 
L 324.587755 208.397288 
L 326.865306 212.155932 
L 329.142857 216.854237 
L 331.420408 216.854237 
L 333.697959 218.733559 
L 335.97551 222.492203 
L 338.253061 219.67322 
L 340.530612 213.095593 
L 342.808163 205.578305 
L 345.085714 199.000678 
L 349.640816 193.362712 
L 354.195918 183.966102 
L 356.473469 168.931525 
L 358.75102 158.595254 
L 361.028571 152.957288 
L 363.306122 152.957288 
L 365.583673 157.655593 
L 367.861224 158.595254 
L 370.138776 160.474576 
L 372.416327 158.595254 
L 374.693878 161.414237 
L 376.971429 166.112542 
L 379.24898 181.147119 
L 381.526531 181.147119 
L 383.804082 183.966102 
L 386.081633 174.569492 
L 388.359184 167.052203 
L 390.636735 166.112542 
L 392.914286 164.23322 
L 395.191837 164.23322 
L 397.469388 162.353898 
L 399.746939 157.655593 
L 402.02449 155.776271 
L 404.302041 159.534915 
L 406.579592 167.991864 
L 408.857143 181.147119 
L 411.134694 190.543729 
L 413.412245 189.604068 
L 415.689796 183.026441 
L 417.967347 182.08678 
L 420.244898 179.267797 
L 422.522449 183.026441 
L 424.8 182.08678 
L 427.077551 182.08678 
L 429.355102 181.147119 
L 431.632653 178.328136 
L 433.910204 172.690169 
L 436.187755 171.750508 
L 438.465306 180.207458 
L 440.742857 185.845424 
L 443.020408 186.785085 
L 445.297959 184.905763 
L 447.57551 179.267797 
L 449.853061 172.690169 
L 452.130612 161.414237 
L 454.408163 152.017627 
L 456.685714 148.258983 
L 458.963265 140.741695 
L 461.240816 136.983051 
L 463.518367 134.164068 
L 465.795918 134.164068 
L 468.073469 137.922712 
L 470.35102 140.741695 
L 472.628571 154.83661 
L 474.906122 165.172881 
L 477.183673 174.569492 
L 479.461224 174.569492 
L 481.738776 185.845424 
L 484.016327 190.543729 
L 488.571429 207.457627 
L 490.84898 209.336949 
L 493.126531 221.552542 
L 495.404082 218.733559 
L 497.681633 222.492203 
L 499.959184 214.974915 
L 502.236735 202.759322 
L 504.514286 185.845424 
L 506.791837 159.534915 
L 509.069388 125.707119 
L 511.346939 95.637966 
L 513.62449 79.663729 
L 515.902041 58.991186 
L 518.179592 48.654915 
L 520.457143 34.56 
L 522.734694 39.258305 
L 525.012245 57.111864 
L 527.289796 73.086102 
L 529.567347 94.698305 
L 531.844898 125.707119 
L 534.122449 151.077966 
L 536.4 164.23322 
L 538.677551 181.147119 
L 540.955102 193.362712 
L 543.232653 206.517966 
L 545.510204 213.095593 
L 547.787755 214.035254 
L 550.065306 218.733559 
L 552.342857 220.612881 
L 554.620408 215.914576 
L 556.897959 212.155932 
L 561.453061 208.397288 
L 563.730612 200.88 
L 566.008163 194.302373 
L 568.285714 189.604068 
L 570.563265 180.207458 
L 572.840816 175.509153 
L 577.395918 169.871186 
L 579.673469 171.750508 
L 581.95102 169.871186 
L 584.228571 167.052203 
L 586.506122 161.414237 
L 588.783673 156.715932 
L 591.061224 148.258983 
L 593.338776 152.017627 
L 595.616327 148.258983 
L 597.893878 152.017627 
L 600.171429 157.655593 
L 602.44898 162.353898 
L 604.726531 170.810847 
L 607.004082 176.448814 
L 611.559184 200.88 
L 613.836735 212.155932 
L 616.114286 213.095593 
L 618.391837 220.612881 
L 620.669388 219.67322 
L 622.946939 219.67322 
L 625.22449 216.854237 
L 627.502041 213.095593 
L 632.057143 203.698983 
L 634.334694 203.698983 
L 636.612245 199.940339 
L 638.889796 200.88 
L 641.167347 198.061017 
L 643.444898 188.664407 
L 645.722449 177.388475 
L 648 171.750508 
L 648 171.750508 
" style="fill:none;stroke:#0000ff;stroke-linecap:square;stroke-opacity:0.05;stroke-width:1.5;"/>
   </g>
   <g id="line2d_14">
    <path clip-path="url(#p38f11461fc)" d="M 90 178.328136 
L 92.277551 190.543729 
L 94.555102 201.819661 
L 96.832653 208.397288 
L 99.110204 214.035254 
L 101.387755 217.793898 
L 103.665306 225.311186 
L 105.942857 223.431864 
L 108.220408 208.397288 
L 110.497959 199.000678 
L 112.77551 185.845424 
L 115.053061 176.448814 
L 117.330612 166.112542 
L 119.608163 164.23322 
L 121.885714 163.293559 
L 124.163265 171.750508 
L 126.440816 169.871186 
L 128.718367 171.750508 
L 130.995918 182.08678 
L 133.273469 186.785085 
L 135.55102 194.302373 
L 137.828571 196.181695 
L 142.383673 194.302373 
L 144.661224 186.785085 
L 146.938776 170.810847 
L 149.216327 161.414237 
L 151.493878 151.077966 
L 153.771429 149.198644 
L 156.04898 149.198644 
L 158.326531 143.560678 
L 160.604082 139.802034 
L 162.881633 134.164068 
L 165.159184 127.586441 
L 167.436735 133.224407 
L 169.714286 137.922712 
L 171.991837 144.500339 
L 174.269388 150.138305 
L 176.546939 147.319322 
L 181.102041 160.474576 
L 183.379592 159.534915 
L 185.657143 175.509153 
L 187.934694 178.328136 
L 190.212245 179.267797 
L 192.489796 183.026441 
L 194.767347 189.604068 
L 197.044898 195.242034 
L 199.322449 195.242034 
L 203.877551 187.724746 
L 206.155102 194.302373 
L 208.432653 195.242034 
L 210.710204 203.698983 
L 212.987755 205.578305 
L 215.265306 205.578305 
L 217.542857 204.638644 
L 219.820408 202.759322 
L 222.097959 207.457627 
L 224.37551 204.638644 
L 226.653061 200.88 
L 228.930612 199.940339 
L 233.485714 196.181695 
L 235.763265 192.423051 
L 238.040816 189.604068 
L 240.318367 179.267797 
L 242.595918 178.328136 
L 244.873469 175.509153 
L 249.428571 184.905763 
L 251.706122 184.905763 
L 253.983673 181.147119 
L 256.261224 174.569492 
L 258.538776 174.569492 
L 260.816327 173.629831 
L 263.093878 182.08678 
L 265.371429 182.08678 
L 269.926531 183.966102 
L 272.204082 183.966102 
L 274.481633 185.845424 
L 276.759184 186.785085 
L 279.036735 191.48339 
L 281.314286 191.48339 
L 283.591837 190.543729 
L 288.146939 179.267797 
L 290.42449 171.750508 
L 292.702041 154.83661 
L 294.979592 142.621017 
L 297.257143 135.103729 
L 299.534694 126.64678 
L 301.812245 120.069153 
L 304.089796 114.431186 
L 306.367347 115.370847 
L 308.644898 106.913898 
L 310.922449 104.094915 
L 313.2 104.094915 
L 317.755102 117.250169 
L 320.032653 117.250169 
L 322.310204 127.586441 
L 324.587755 127.586441 
L 326.865306 125.707119 
L 329.142857 124.767458 
L 333.697959 136.04339 
L 335.97551 145.44 
L 338.253061 147.319322 
L 340.530612 153.896949 
L 342.808163 158.595254 
L 345.085714 160.474576 
L 347.363265 161.414237 
L 349.640816 168.931525 
L 351.918367 165.172881 
L 354.195918 168.931525 
L 356.473469 168.931525 
L 358.75102 164.23322 
L 361.028571 167.052203 
L 363.306122 165.172881 
L 365.583673 167.052203 
L 367.861224 167.991864 
L 370.138776 172.690169 
L 372.416327 176.448814 
L 374.693878 183.026441 
L 376.971429 181.147119 
L 379.24898 185.845424 
L 383.804082 176.448814 
L 386.081633 165.172881 
L 388.359184 158.595254 
L 390.636735 146.379661 
L 392.914286 143.560678 
L 395.191837 139.802034 
L 397.469388 138.862373 
L 399.746939 143.560678 
L 402.02449 141.681356 
L 406.579592 160.474576 
L 408.857143 173.629831 
L 411.134694 182.08678 
L 413.412245 198.061017 
L 417.967347 207.457627 
L 420.244898 207.457627 
L 422.522449 205.578305 
L 424.8 200.88 
L 427.077551 200.88 
L 429.355102 192.423051 
L 431.632653 190.543729 
L 436.187755 164.23322 
L 438.465306 150.138305 
L 440.742857 141.681356 
L 443.020408 138.862373 
L 445.297959 132.284746 
L 447.57551 135.103729 
L 449.853061 131.345085 
L 452.130612 132.284746 
L 454.408163 132.284746 
L 456.685714 141.681356 
L 458.963265 147.319322 
L 461.240816 160.474576 
L 463.518367 162.353898 
L 465.795918 159.534915 
L 468.073469 162.353898 
L 470.35102 160.474576 
L 472.628571 159.534915 
L 474.906122 161.414237 
L 477.183673 167.991864 
L 479.461224 169.871186 
L 481.738776 164.23322 
L 484.016327 162.353898 
L 486.293878 154.83661 
L 488.571429 163.293559 
L 490.84898 165.172881 
L 493.126531 170.810847 
L 495.404082 174.569492 
L 497.681633 171.750508 
L 499.959184 163.293559 
L 502.236735 166.112542 
L 504.514286 172.690169 
L 506.791837 176.448814 
L 509.069388 185.845424 
L 511.346939 183.026441 
L 513.62449 186.785085 
L 515.902041 182.08678 
L 518.179592 175.509153 
L 520.457143 180.207458 
L 522.734694 176.448814 
L 525.012245 166.112542 
L 527.289796 167.052203 
L 529.567347 158.595254 
L 531.844898 157.655593 
L 534.122449 158.595254 
L 536.4 155.776271 
L 538.677551 157.655593 
L 540.955102 165.172881 
L 543.232653 164.23322 
L 545.510204 173.629831 
L 547.787755 184.905763 
L 550.065306 183.026441 
L 552.342857 190.543729 
L 554.620408 190.543729 
L 556.897959 191.48339 
L 559.17551 182.08678 
L 561.453061 182.08678 
L 563.730612 180.207458 
L 566.008163 175.509153 
L 568.285714 173.629831 
L 570.563265 166.112542 
L 572.840816 169.871186 
L 575.118367 170.810847 
L 577.395918 168.931525 
L 579.673469 169.871186 
L 581.95102 180.207458 
L 584.228571 175.509153 
L 586.506122 169.871186 
L 588.783673 174.569492 
L 591.061224 169.871186 
L 593.338776 171.750508 
L 597.893878 160.474576 
L 600.171429 166.112542 
L 602.44898 169.871186 
L 604.726531 167.052203 
L 607.004082 176.448814 
L 609.281633 179.267797 
L 611.559184 175.509153 
L 613.836735 183.026441 
L 616.114286 184.905763 
L 618.391837 188.664407 
L 620.669388 184.905763 
L 622.946939 178.328136 
L 625.22449 167.052203 
L 627.502041 164.23322 
L 629.779592 147.319322 
L 632.057143 145.44 
L 634.334694 147.319322 
L 636.612245 136.983051 
L 638.889796 134.164068 
L 641.167347 133.224407 
L 643.444898 140.741695 
L 648 152.017627 
L 648 152.017627 
" style="fill:none;stroke:#0000ff;stroke-linecap:square;stroke-opacity:0.05;stroke-width:1.5;"/>
   </g>
   <g id="line2d_15">
    <path clip-path="url(#p38f11461fc)" d="M 90 160.474576 
L 92.277551 162.353898 
L 94.555102 167.052203 
L 96.832653 172.690169 
L 99.110204 174.569492 
L 101.387755 175.509153 
L 103.665306 177.388475 
L 105.942857 177.388475 
L 108.220408 186.785085 
L 110.497959 193.362712 
L 115.053061 193.362712 
L 117.330612 199.000678 
L 119.608163 199.940339 
L 121.885714 193.362712 
L 124.163265 190.543729 
L 126.440816 189.604068 
L 128.718367 184.905763 
L 130.995918 183.026441 
L 133.273469 175.509153 
L 135.55102 172.690169 
L 137.828571 173.629831 
L 140.106122 171.750508 
L 142.383673 167.991864 
L 144.661224 167.052203 
L 146.938776 167.991864 
L 149.216327 166.112542 
L 151.493878 169.871186 
L 156.04898 169.871186 
L 158.326531 167.991864 
L 160.604082 163.293559 
L 162.881633 161.414237 
L 165.159184 161.414237 
L 167.436735 159.534915 
L 169.714286 165.172881 
L 171.991837 167.991864 
L 174.269388 167.052203 
L 176.546939 169.871186 
L 178.82449 175.509153 
L 181.102041 174.569492 
L 183.379592 175.509153 
L 185.657143 172.690169 
L 190.212245 174.569492 
L 192.489796 167.991864 
L 194.767347 167.991864 
L 197.044898 165.172881 
L 199.322449 164.23322 
L 201.6 161.414237 
L 203.877551 167.991864 
L 206.155102 172.690169 
L 208.432653 175.509153 
L 210.710204 174.569492 
L 212.987755 182.08678 
L 215.265306 180.207458 
L 217.542857 183.966102 
L 219.820408 190.543729 
L 222.097959 191.48339 
L 224.37551 195.242034 
L 226.653061 196.181695 
L 228.930612 190.543729 
L 231.208163 183.966102 
L 233.485714 189.604068 
L 235.763265 186.785085 
L 238.040816 195.242034 
L 240.318367 192.423051 
L 242.595918 188.664407 
L 244.873469 178.328136 
L 247.15102 172.690169 
L 249.428571 169.871186 
L 251.706122 170.810847 
L 253.983673 173.629831 
L 256.261224 166.112542 
L 258.538776 160.474576 
L 260.816327 160.474576 
L 263.093878 153.896949 
L 265.371429 157.655593 
L 267.64898 167.991864 
L 269.926531 171.750508 
L 272.204082 172.690169 
L 274.481633 176.448814 
L 276.759184 183.966102 
L 279.036735 190.543729 
L 281.314286 198.061017 
L 283.591837 200.88 
L 285.869388 214.035254 
L 288.146939 212.155932 
L 290.42449 214.035254 
L 292.702041 208.397288 
L 294.979592 209.336949 
L 297.257143 209.336949 
L 299.534694 205.578305 
L 301.812245 199.000678 
L 304.089796 194.302373 
L 306.367347 182.08678 
L 308.644898 173.629831 
L 310.922449 168.931525 
L 313.2 162.353898 
L 315.477551 167.052203 
L 317.755102 167.052203 
L 320.032653 172.690169 
L 326.865306 181.147119 
L 329.142857 191.48339 
L 331.420408 193.362712 
L 335.97551 208.397288 
L 338.253061 206.517966 
L 340.530612 202.759322 
L 345.085714 197.121356 
L 347.363265 198.061017 
L 349.640816 193.362712 
L 351.918367 184.905763 
L 354.195918 184.905763 
L 356.473469 180.207458 
L 358.75102 172.690169 
L 361.028571 170.810847 
L 363.306122 166.112542 
L 365.583673 160.474576 
L 367.861224 158.595254 
L 370.138776 161.414237 
L 372.416327 159.534915 
L 374.693878 162.353898 
L 376.971429 156.715932 
L 379.24898 157.655593 
L 381.526531 159.534915 
L 383.804082 155.776271 
L 386.081633 155.776271 
L 388.359184 152.017627 
L 390.636735 147.319322 
L 392.914286 141.681356 
L 395.191837 141.681356 
L 397.469388 143.560678 
L 399.746939 146.379661 
L 402.02449 145.44 
L 404.302041 145.44 
L 406.579592 156.715932 
L 408.857143 162.353898 
L 411.134694 167.052203 
L 413.412245 177.388475 
L 415.689796 181.147119 
L 417.967347 188.664407 
L 420.244898 185.845424 
L 424.8 187.724746 
L 427.077551 185.845424 
L 429.355102 176.448814 
L 431.632653 176.448814 
L 433.910204 177.388475 
L 436.187755 164.23322 
L 438.465306 160.474576 
L 440.742857 155.776271 
L 443.020408 162.353898 
L 445.297959 160.474576 
L 447.57551 154.83661 
L 449.853061 155.776271 
L 452.130612 154.83661 
L 456.685714 151.077966 
L 458.963265 162.353898 
L 461.240816 163.293559 
L 463.518367 166.112542 
L 465.795918 163.293559 
L 468.073469 163.293559 
L 470.35102 168.931525 
L 474.906122 165.172881 
L 477.183673 169.871186 
L 479.461224 169.871186 
L 481.738776 171.750508 
L 484.016327 172.690169 
L 486.293878 169.871186 
L 488.571429 164.23322 
L 493.126531 166.112542 
L 495.404082 167.991864 
L 497.681633 175.509153 
L 499.959184 173.629831 
L 502.236735 176.448814 
L 504.514286 170.810847 
L 506.791837 173.629831 
L 509.069388 174.569492 
L 511.346939 182.08678 
L 513.62449 178.328136 
L 515.902041 177.388475 
L 518.179592 178.328136 
L 520.457143 180.207458 
L 525.012245 172.690169 
L 527.289796 172.690169 
L 529.567347 170.810847 
L 531.844898 174.569492 
L 534.122449 167.991864 
L 536.4 172.690169 
L 538.677551 165.172881 
L 540.955102 164.23322 
L 543.232653 158.595254 
L 545.510204 163.293559 
L 547.787755 162.353898 
L 550.065306 162.353898 
L 552.342857 164.23322 
L 554.620408 160.474576 
L 559.17551 164.23322 
L 563.730612 171.750508 
L 566.008163 173.629831 
L 568.285714 174.569492 
L 570.563265 171.750508 
L 572.840816 172.690169 
L 575.118367 165.172881 
L 577.395918 160.474576 
L 579.673469 158.595254 
L 581.95102 155.776271 
L 584.228571 150.138305 
L 586.506122 139.802034 
L 588.783673 138.862373 
L 591.061224 135.103729 
L 593.338776 142.621017 
L 595.616327 142.621017 
L 597.893878 147.319322 
L 600.171429 150.138305 
L 602.44898 151.077966 
L 604.726531 150.138305 
L 609.281633 161.414237 
L 611.559184 163.293559 
L 613.836735 166.112542 
L 616.114286 167.991864 
L 618.391837 165.172881 
L 620.669388 167.991864 
L 622.946939 171.750508 
L 625.22449 174.569492 
L 627.502041 182.08678 
L 629.779592 188.664407 
L 632.057143 189.604068 
L 634.334694 193.362712 
L 638.889796 185.845424 
L 641.167347 187.724746 
L 643.444898 186.785085 
L 645.722449 189.604068 
L 648 188.664407 
L 648 188.664407 
" style="fill:none;stroke:#0000ff;stroke-linecap:square;stroke-opacity:0.05;stroke-width:1.5;"/>
   </g>
   <g id="line2d_16">
    <path clip-path="url(#p38f11461fc)" d="M 90 195.242034 
L 92.277551 197.121356 
L 94.555102 202.759322 
L 96.832653 199.000678 
L 99.110204 197.121356 
L 101.387755 194.302373 
L 103.665306 190.543729 
L 105.942857 191.48339 
L 108.220408 194.302373 
L 110.497959 193.362712 
L 112.77551 186.785085 
L 117.330612 183.026441 
L 119.608163 182.08678 
L 121.885714 187.724746 
L 126.440816 197.121356 
L 128.718367 198.061017 
L 133.273469 207.457627 
L 135.55102 217.793898 
L 137.828571 218.733559 
L 140.106122 214.035254 
L 144.661224 210.27661 
L 146.938776 204.638644 
L 149.216327 201.819661 
L 151.493878 198.061017 
L 153.771429 193.362712 
L 156.04898 186.785085 
L 158.326531 181.147119 
L 160.604082 182.08678 
L 162.881633 184.905763 
L 165.159184 183.966102 
L 167.436735 179.267797 
L 169.714286 182.08678 
L 171.991837 182.08678 
L 176.546939 189.604068 
L 178.82449 190.543729 
L 181.102041 195.242034 
L 183.379592 194.302373 
L 185.657143 199.940339 
L 187.934694 200.88 
L 190.212245 204.638644 
L 192.489796 201.819661 
L 194.767347 199.940339 
L 197.044898 192.423051 
L 199.322449 185.845424 
L 201.6 186.785085 
L 203.877551 183.026441 
L 208.432653 184.905763 
L 210.710204 190.543729 
L 212.987755 187.724746 
L 215.265306 188.664407 
L 217.542857 187.724746 
L 219.820408 191.48339 
L 222.097959 192.423051 
L 224.37551 190.543729 
L 226.653061 184.905763 
L 228.930612 183.966102 
L 231.208163 181.147119 
L 233.485714 179.267797 
L 235.763265 181.147119 
L 238.040816 185.845424 
L 240.318367 193.362712 
L 242.595918 199.000678 
L 244.873469 200.88 
L 247.15102 205.578305 
L 249.428571 213.095593 
L 251.706122 217.793898 
L 253.983673 215.914576 
L 256.261224 219.67322 
L 258.538776 224.371525 
L 260.816327 224.371525 
L 263.093878 225.311186 
L 265.371429 223.431864 
L 267.64898 216.854237 
L 269.926531 212.155932 
L 272.204082 212.155932 
L 274.481633 204.638644 
L 276.759184 205.578305 
L 279.036735 200.88 
L 281.314286 195.242034 
L 283.591837 195.242034 
L 285.869388 190.543729 
L 288.146939 193.362712 
L 290.42449 199.000678 
L 292.702041 202.759322 
L 294.979592 204.638644 
L 299.534694 212.155932 
L 301.812245 214.035254 
L 304.089796 218.733559 
L 306.367347 220.612881 
L 308.644898 220.612881 
L 310.922449 216.854237 
L 313.2 214.035254 
L 315.477551 202.759322 
L 317.755102 188.664407 
L 320.032653 178.328136 
L 322.310204 162.353898 
L 324.587755 151.077966 
L 326.865306 146.379661 
L 329.142857 136.04339 
L 331.420408 137.922712 
L 333.697959 134.164068 
L 335.97551 139.802034 
L 338.253061 150.138305 
L 340.530612 163.293559 
L 342.808163 171.750508 
L 345.085714 186.785085 
L 347.363265 199.000678 
L 349.640816 203.698983 
L 351.918367 207.457627 
L 354.195918 207.457627 
L 356.473469 208.397288 
L 358.75102 203.698983 
L 361.028571 198.061017 
L 363.306122 195.242034 
L 365.583673 197.121356 
L 367.861224 193.362712 
L 370.138776 190.543729 
L 372.416327 190.543729 
L 376.971429 196.181695 
L 379.24898 205.578305 
L 381.526531 210.27661 
L 383.804082 220.612881 
L 386.081633 224.371525 
L 388.359184 220.612881 
L 390.636735 218.733559 
L 392.914286 213.095593 
L 395.191837 208.397288 
L 397.469388 208.397288 
L 399.746939 207.457627 
L 402.02449 198.061017 
L 404.302041 190.543729 
L 406.579592 188.664407 
L 408.857143 183.026441 
L 411.134694 187.724746 
L 413.412245 186.785085 
L 415.689796 191.48339 
L 417.967347 188.664407 
L 420.244898 184.905763 
L 422.522449 175.509153 
L 424.8 175.509153 
L 427.077551 182.08678 
L 429.355102 175.509153 
L 431.632653 174.569492 
L 433.910204 169.871186 
L 436.187755 171.750508 
L 438.465306 170.810847 
L 440.742857 171.750508 
L 447.57551 183.026441 
L 449.853061 180.207458 
L 452.130612 183.026441 
L 454.408163 184.905763 
L 456.685714 189.604068 
L 458.963265 186.785085 
L 461.240816 191.48339 
L 463.518367 199.000678 
L 468.073469 208.397288 
L 470.35102 212.155932 
L 472.628571 216.854237 
L 474.906122 215.914576 
L 477.183673 221.552542 
L 479.461224 220.612881 
L 481.738776 231.888814 
L 484.016327 235.647458 
L 486.293878 228.130169 
L 488.571429 226.250847 
L 490.84898 227.190508 
L 493.126531 219.67322 
L 495.404082 219.67322 
L 497.681633 220.612881 
L 499.959184 214.035254 
L 502.236735 213.095593 
L 506.791837 207.457627 
L 509.069388 211.216271 
L 511.346939 209.336949 
L 513.62449 200.88 
L 515.902041 203.698983 
L 518.179592 199.000678 
L 522.734694 193.362712 
L 525.012245 191.48339 
L 527.289796 188.664407 
L 529.567347 180.207458 
L 531.844898 179.267797 
L 534.122449 165.172881 
L 536.4 170.810847 
L 538.677551 167.991864 
L 540.955102 161.414237 
L 543.232653 162.353898 
L 545.510204 166.112542 
L 547.787755 168.931525 
L 550.065306 165.172881 
L 552.342857 172.690169 
L 554.620408 172.690169 
L 556.897959 181.147119 
L 559.17551 180.207458 
L 561.453061 186.785085 
L 563.730612 195.242034 
L 566.008163 193.362712 
L 568.285714 195.242034 
L 570.563265 193.362712 
L 572.840816 194.302373 
L 575.118367 194.302373 
L 577.395918 190.543729 
L 581.95102 196.181695 
L 584.228571 188.664407 
L 588.783673 188.664407 
L 591.061224 186.785085 
L 593.338776 187.724746 
L 595.616327 184.905763 
L 597.893878 183.966102 
L 600.171429 191.48339 
L 602.44898 196.181695 
L 604.726531 196.181695 
L 607.004082 204.638644 
L 611.559184 208.397288 
L 613.836735 207.457627 
L 616.114286 205.578305 
L 618.391837 207.457627 
L 620.669388 206.517966 
L 622.946939 206.517966 
L 625.22449 203.698983 
L 627.502041 207.457627 
L 629.779592 202.759322 
L 632.057143 197.121356 
L 638.889796 191.48339 
L 641.167347 195.242034 
L 643.444898 195.242034 
L 645.722449 192.423051 
L 648 193.362712 
L 648 193.362712 
" style="fill:none;stroke:#0000ff;stroke-linecap:square;stroke-opacity:0.05;stroke-width:1.5;"/>
   </g>
   <g id="line2d_17">
    <path clip-path="url(#p38f11461fc)" d="M 90 222.492203 
L 92.277551 224.371525 
L 94.555102 224.371525 
L 96.832653 227.190508 
L 99.110204 223.431864 
L 101.387755 214.035254 
L 103.665306 205.578305 
L 105.942857 201.819661 
L 108.220408 192.423051 
L 110.497959 192.423051 
L 112.77551 190.543729 
L 115.053061 180.207458 
L 117.330612 171.750508 
L 119.608163 160.474576 
L 121.885714 158.595254 
L 124.163265 167.991864 
L 126.440816 174.569492 
L 128.718367 176.448814 
L 130.995918 176.448814 
L 133.273469 177.388475 
L 135.55102 174.569492 
L 137.828571 177.388475 
L 140.106122 181.147119 
L 142.383673 183.966102 
L 144.661224 181.147119 
L 146.938776 173.629831 
L 149.216327 174.569492 
L 151.493878 166.112542 
L 153.771429 168.931525 
L 156.04898 174.569492 
L 158.326531 175.509153 
L 160.604082 180.207458 
L 162.881633 181.147119 
L 165.159184 188.664407 
L 167.436735 200.88 
L 169.714286 206.517966 
L 174.269388 214.035254 
L 176.546939 219.67322 
L 178.82449 220.612881 
L 181.102041 219.67322 
L 183.379592 215.914576 
L 185.657143 217.793898 
L 187.934694 214.035254 
L 190.212245 206.517966 
L 192.489796 203.698983 
L 194.767347 202.759322 
L 197.044898 207.457627 
L 199.322449 209.336949 
L 201.6 205.578305 
L 203.877551 212.155932 
L 206.155102 215.914576 
L 208.432653 217.793898 
L 210.710204 223.431864 
L 212.987755 222.492203 
L 219.820408 188.664407 
L 222.097959 178.328136 
L 224.37551 164.23322 
L 226.653061 149.198644 
L 228.930612 141.681356 
L 231.208163 135.103729 
L 233.485714 129.465763 
L 235.763265 130.405424 
L 238.040816 133.224407 
L 240.318367 132.284746 
L 242.595918 137.922712 
L 244.873469 139.802034 
L 247.15102 151.077966 
L 251.706122 166.112542 
L 256.261224 171.750508 
L 258.538776 173.629831 
L 260.816327 184.905763 
L 263.093878 192.423051 
L 265.371429 194.302373 
L 267.64898 194.302373 
L 269.926531 197.121356 
L 272.204082 203.698983 
L 274.481633 196.181695 
L 276.759184 190.543729 
L 279.036735 187.724746 
L 281.314286 181.147119 
L 283.591837 171.750508 
L 285.869388 170.810847 
L 288.146939 164.23322 
L 290.42449 168.931525 
L 292.702041 169.871186 
L 294.979592 169.871186 
L 297.257143 172.690169 
L 299.534694 178.328136 
L 301.812245 175.509153 
L 304.089796 176.448814 
L 306.367347 183.026441 
L 308.644898 187.724746 
L 310.922449 197.121356 
L 313.2 198.061017 
L 315.477551 195.242034 
L 317.755102 197.121356 
L 322.310204 202.759322 
L 324.587755 204.638644 
L 326.865306 212.155932 
L 329.142857 214.974915 
L 331.420408 210.27661 
L 333.697959 209.336949 
L 335.97551 210.27661 
L 338.253061 214.035254 
L 340.530612 206.517966 
L 342.808163 208.397288 
L 345.085714 200.88 
L 347.363265 199.940339 
L 349.640816 195.242034 
L 354.195918 202.759322 
L 356.473469 200.88 
L 358.75102 200.88 
L 361.028571 194.302373 
L 363.306122 199.940339 
L 365.583673 195.242034 
L 367.861224 191.48339 
L 370.138776 193.362712 
L 372.416327 191.48339 
L 374.693878 182.08678 
L 376.971429 182.08678 
L 379.24898 180.207458 
L 381.526531 176.448814 
L 383.804082 180.207458 
L 386.081633 175.509153 
L 388.359184 173.629831 
L 390.636735 183.026441 
L 392.914286 182.08678 
L 395.191837 185.845424 
L 397.469388 187.724746 
L 399.746939 188.664407 
L 402.02449 190.543729 
L 404.302041 188.664407 
L 406.579592 193.362712 
L 408.857143 195.242034 
L 415.689796 186.785085 
L 417.967347 183.026441 
L 420.244898 186.785085 
L 422.522449 184.905763 
L 424.8 183.966102 
L 427.077551 182.08678 
L 429.355102 168.931525 
L 433.910204 163.293559 
L 436.187755 155.776271 
L 438.465306 158.595254 
L 440.742857 156.715932 
L 443.020408 152.017627 
L 445.297959 150.138305 
L 447.57551 151.077966 
L 449.853061 151.077966 
L 452.130612 157.655593 
L 454.408163 157.655593 
L 456.685714 163.293559 
L 458.963265 163.293559 
L 461.240816 164.23322 
L 463.518367 167.991864 
L 465.795918 168.931525 
L 468.073469 168.931525 
L 470.35102 164.23322 
L 472.628571 170.810847 
L 474.906122 172.690169 
L 477.183673 175.509153 
L 479.461224 179.267797 
L 481.738776 184.905763 
L 484.016327 186.785085 
L 486.293878 183.966102 
L 488.571429 182.08678 
L 490.84898 181.147119 
L 493.126531 187.724746 
L 495.404082 189.604068 
L 497.681633 189.604068 
L 499.959184 191.48339 
L 502.236735 190.543729 
L 504.514286 191.48339 
L 506.791837 185.845424 
L 509.069388 191.48339 
L 511.346939 198.061017 
L 513.62449 199.000678 
L 515.902041 194.302373 
L 518.179592 193.362712 
L 520.457143 189.604068 
L 522.734694 190.543729 
L 525.012245 192.423051 
L 529.567347 192.423051 
L 531.844898 190.543729 
L 534.122449 187.724746 
L 536.4 192.423051 
L 538.677551 194.302373 
L 540.955102 195.242034 
L 543.232653 201.819661 
L 545.510204 203.698983 
L 547.787755 199.940339 
L 550.065306 199.940339 
L 552.342857 196.181695 
L 554.620408 193.362712 
L 556.897959 193.362712 
L 559.17551 185.845424 
L 561.453061 183.966102 
L 563.730612 183.026441 
L 566.008163 180.207458 
L 568.285714 176.448814 
L 570.563265 176.448814 
L 572.840816 179.267797 
L 575.118367 185.845424 
L 577.395918 189.604068 
L 579.673469 187.724746 
L 586.506122 196.181695 
L 588.783673 197.121356 
L 591.061224 200.88 
L 593.338776 199.000678 
L 595.616327 200.88 
L 597.893878 201.819661 
L 600.171429 200.88 
L 602.44898 199.000678 
L 604.726531 198.061017 
L 607.004082 201.819661 
L 609.281633 200.88 
L 611.559184 202.759322 
L 613.836735 206.517966 
L 616.114286 209.336949 
L 618.391837 208.397288 
L 620.669388 210.27661 
L 622.946939 207.457627 
L 625.22449 212.155932 
L 627.502041 212.155932 
L 629.779592 205.578305 
L 632.057143 202.759322 
L 634.334694 196.181695 
L 636.612245 188.664407 
L 638.889796 191.48339 
L 641.167347 189.604068 
L 645.722449 193.362712 
L 648 191.48339 
L 648 191.48339 
" style="fill:none;stroke:#0000ff;stroke-linecap:square;stroke-opacity:0.05;stroke-width:1.5;"/>
   </g>
   <g id="line2d_18">
    <path clip-path="url(#p38f11461fc)" d="M 90 157.655593 
L 92.277551 171.750508 
L 94.555102 174.569492 
L 96.832653 180.207458 
L 99.110204 181.147119 
L 101.387755 186.785085 
L 103.665306 186.785085 
L 105.942857 194.302373 
L 108.220408 199.000678 
L 110.497959 195.242034 
L 112.77551 195.242034 
L 115.053061 196.181695 
L 117.330612 195.242034 
L 119.608163 197.121356 
L 121.885714 201.819661 
L 124.163265 199.000678 
L 126.440816 199.940339 
L 128.718367 193.362712 
L 130.995918 198.061017 
L 133.273469 200.88 
L 135.55102 200.88 
L 137.828571 195.242034 
L 140.106122 197.121356 
L 142.383673 193.362712 
L 144.661224 197.121356 
L 146.938776 195.242034 
L 149.216327 194.302373 
L 151.493878 197.121356 
L 153.771429 190.543729 
L 156.04898 192.423051 
L 158.326531 191.48339 
L 160.604082 194.302373 
L 162.881633 188.664407 
L 165.159184 194.302373 
L 167.436735 192.423051 
L 169.714286 199.940339 
L 171.991837 201.819661 
L 174.269388 202.759322 
L 176.546939 205.578305 
L 178.82449 207.457627 
L 181.102041 212.155932 
L 183.379592 210.27661 
L 185.657143 212.155932 
L 187.934694 209.336949 
L 190.212245 204.638644 
L 192.489796 200.88 
L 194.767347 199.940339 
L 197.044898 195.242034 
L 199.322449 187.724746 
L 201.6 181.147119 
L 203.877551 167.052203 
L 206.155102 156.715932 
L 212.987755 170.810847 
L 215.265306 174.569492 
L 217.542857 180.207458 
L 219.820408 188.664407 
L 224.37551 209.336949 
L 226.653061 223.431864 
L 228.930612 238.466441 
L 231.208163 239.406102 
L 233.485714 238.466441 
L 235.763265 230.949153 
L 238.040816 229.069831 
L 240.318367 218.733559 
L 242.595918 209.336949 
L 244.873469 204.638644 
L 247.15102 202.759322 
L 251.706122 200.88 
L 253.983673 190.543729 
L 256.261224 187.724746 
L 258.538776 197.121356 
L 260.816327 195.242034 
L 263.093878 199.940339 
L 265.371429 203.698983 
L 267.64898 204.638644 
L 269.926531 195.242034 
L 272.204082 183.966102 
L 274.481633 179.267797 
L 276.759184 180.207458 
L 279.036735 177.388475 
L 281.314286 167.991864 
L 283.591837 167.991864 
L 285.869388 172.690169 
L 288.146939 172.690169 
L 290.42449 174.569492 
L 292.702041 181.147119 
L 294.979592 192.423051 
L 297.257143 197.121356 
L 301.812245 217.793898 
L 304.089796 225.311186 
L 306.367347 228.130169 
L 308.644898 221.552542 
L 310.922449 222.492203 
L 313.2 217.793898 
L 317.755102 212.155932 
L 320.032653 211.216271 
L 322.310204 205.578305 
L 324.587755 198.061017 
L 326.865306 202.759322 
L 329.142857 202.759322 
L 331.420408 205.578305 
L 333.697959 207.457627 
L 335.97551 214.974915 
L 338.253061 219.67322 
L 340.530612 220.612881 
L 342.808163 224.371525 
L 345.085714 229.069831 
L 347.363265 231.888814 
L 349.640816 223.431864 
L 351.918367 223.431864 
L 354.195918 220.612881 
L 356.473469 218.733559 
L 358.75102 209.336949 
L 361.028571 197.121356 
L 363.306122 190.543729 
L 365.583673 186.785085 
L 367.861224 181.147119 
L 370.138776 179.267797 
L 372.416327 180.207458 
L 374.693878 174.569492 
L 376.971429 174.569492 
L 379.24898 166.112542 
L 381.526531 160.474576 
L 383.804082 167.052203 
L 386.081633 169.871186 
L 388.359184 167.052203 
L 390.636735 168.931525 
L 392.914286 165.172881 
L 395.191837 159.534915 
L 397.469388 160.474576 
L 399.746939 158.595254 
L 402.02449 165.172881 
L 404.302041 176.448814 
L 406.579592 175.509153 
L 408.857143 175.509153 
L 411.134694 180.207458 
L 413.412245 177.388475 
L 415.689796 179.267797 
L 417.967347 187.724746 
L 420.244898 188.664407 
L 422.522449 192.423051 
L 424.8 197.121356 
L 427.077551 197.121356 
L 429.355102 199.000678 
L 431.632653 204.638644 
L 433.910204 203.698983 
L 436.187755 205.578305 
L 438.465306 208.397288 
L 440.742857 206.517966 
L 445.297959 212.155932 
L 447.57551 211.216271 
L 449.853061 212.155932 
L 452.130612 211.216271 
L 454.408163 211.216271 
L 456.685714 212.155932 
L 458.963265 216.854237 
L 461.240816 218.733559 
L 463.518367 218.733559 
L 465.795918 220.612881 
L 468.073469 220.612881 
L 470.35102 223.431864 
L 472.628571 223.431864 
L 474.906122 219.67322 
L 477.183673 206.517966 
L 479.461224 198.061017 
L 481.738776 188.664407 
L 484.016327 186.785085 
L 486.293878 183.966102 
L 488.571429 183.966102 
L 490.84898 177.388475 
L 493.126531 164.23322 
L 495.404082 152.017627 
L 497.681633 155.776271 
L 499.959184 162.353898 
L 502.236735 167.052203 
L 504.514286 169.871186 
L 506.791837 170.810847 
L 509.069388 178.328136 
L 511.346939 175.509153 
L 513.62449 184.905763 
L 518.179592 213.095593 
L 520.457143 221.552542 
L 522.734694 229.069831 
L 525.012245 232.828475 
L 527.289796 241.285424 
L 529.567347 242.225085 
L 531.844898 242.225085 
L 534.122449 247.863051 
L 536.4 243.164746 
L 538.677551 240.345763 
L 540.955102 239.406102 
L 543.232653 231.888814 
L 545.510204 227.190508 
L 547.787755 225.311186 
L 550.065306 222.492203 
L 552.342857 221.552542 
L 554.620408 216.854237 
L 556.897959 210.27661 
L 559.17551 210.27661 
L 561.453061 207.457627 
L 563.730612 202.759322 
L 566.008163 200.88 
L 568.285714 195.242034 
L 570.563265 185.845424 
L 575.118367 168.931525 
L 577.395918 159.534915 
L 579.673469 155.776271 
L 581.95102 146.379661 
L 584.228571 140.741695 
L 586.506122 141.681356 
L 588.783673 148.258983 
L 591.061224 152.957288 
L 593.338776 162.353898 
L 595.616327 167.991864 
L 597.893878 177.388475 
L 600.171429 187.724746 
L 602.44898 191.48339 
L 604.726531 199.000678 
L 607.004082 204.638644 
L 609.281633 205.578305 
L 611.559184 202.759322 
L 616.114286 195.242034 
L 618.391837 194.302373 
L 620.669388 182.08678 
L 622.946939 174.569492 
L 625.22449 155.776271 
L 627.502041 152.017627 
L 629.779592 143.560678 
L 632.057143 140.741695 
L 634.334694 136.983051 
L 638.889796 135.103729 
L 641.167347 123.827797 
L 645.722449 125.707119 
L 648 145.44 
L 648 145.44 
" style="fill:none;stroke:#0000ff;stroke-linecap:square;stroke-opacity:0.05;stroke-width:1.5;"/>
   </g>
   <g id="line2d_19">
    <path clip-path="url(#p38f11461fc)" d="M 90 152.957288 
L 92.277551 156.715932 
L 94.555102 157.655593 
L 96.832653 160.474576 
L 99.110204 167.052203 
L 101.387755 179.267797 
L 103.665306 180.207458 
L 105.942857 197.121356 
L 108.220408 206.517966 
L 110.497959 211.216271 
L 112.77551 211.216271 
L 115.053061 216.854237 
L 117.330612 215.914576 
L 119.608163 213.095593 
L 124.163265 201.819661 
L 126.440816 199.000678 
L 128.718367 198.061017 
L 130.995918 194.302373 
L 133.273469 196.181695 
L 135.55102 199.940339 
L 137.828571 206.517966 
L 142.383673 214.035254 
L 144.661224 218.733559 
L 146.938776 221.552542 
L 149.216327 221.552542 
L 153.771429 199.000678 
L 156.04898 185.845424 
L 158.326531 180.207458 
L 160.604082 163.293559 
L 162.881633 152.017627 
L 165.159184 144.500339 
L 167.436735 137.922712 
L 169.714286 136.983051 
L 171.991837 143.560678 
L 174.269388 152.017627 
L 176.546939 163.293559 
L 178.82449 173.629831 
L 181.102041 174.569492 
L 183.379592 183.026441 
L 185.657143 186.785085 
L 187.934694 182.08678 
L 190.212245 180.207458 
L 192.489796 174.569492 
L 194.767347 170.810847 
L 197.044898 166.112542 
L 201.6 166.112542 
L 203.877551 170.810847 
L 206.155102 174.569492 
L 208.432653 183.026441 
L 210.710204 195.242034 
L 212.987755 202.759322 
L 215.265306 200.88 
L 217.542857 193.362712 
L 219.820408 184.905763 
L 222.097959 167.052203 
L 224.37551 155.776271 
L 226.653061 140.741695 
L 228.930612 138.862373 
L 231.208163 133.224407 
L 233.485714 131.345085 
L 235.763265 127.586441 
L 238.040816 127.586441 
L 240.318367 135.103729 
L 242.595918 147.319322 
L 244.873469 165.172881 
L 249.428571 193.362712 
L 251.706122 176.448814 
L 253.983673 162.353898 
L 256.261224 140.741695 
L 258.538776 132.284746 
L 260.816327 128.526102 
L 263.093878 122.888136 
L 265.371429 118.189831 
L 267.64898 112.551864 
L 269.926531 102.215593 
L 272.204082 105.974237 
L 276.759184 137.922712 
L 279.036735 162.353898 
L 281.314286 174.569492 
L 283.591837 187.724746 
L 285.869388 196.181695 
L 288.146939 197.121356 
L 290.42449 199.940339 
L 292.702041 201.819661 
L 294.979592 185.845424 
L 297.257143 185.845424 
L 299.534694 187.724746 
L 301.812245 186.785085 
L 306.367347 188.664407 
L 308.644898 186.785085 
L 310.922449 188.664407 
L 313.2 189.604068 
L 315.477551 194.302373 
L 320.032653 205.578305 
L 322.310204 200.88 
L 326.865306 189.604068 
L 329.142857 185.845424 
L 331.420408 183.966102 
L 333.697959 187.724746 
L 335.97551 185.845424 
L 338.253061 184.905763 
L 340.530612 191.48339 
L 342.808163 186.785085 
L 345.085714 191.48339 
L 347.363265 187.724746 
L 349.640816 188.664407 
L 351.918367 191.48339 
L 354.195918 189.604068 
L 356.473469 185.845424 
L 358.75102 179.267797 
L 361.028571 173.629831 
L 363.306122 171.750508 
L 365.583673 173.629831 
L 367.861224 167.991864 
L 370.138776 171.750508 
L 372.416327 176.448814 
L 374.693878 173.629831 
L 376.971429 177.388475 
L 379.24898 183.966102 
L 381.526531 192.423051 
L 383.804082 199.000678 
L 386.081633 194.302373 
L 388.359184 196.181695 
L 390.636735 197.121356 
L 392.914286 199.940339 
L 395.191837 193.362712 
L 397.469388 190.543729 
L 399.746939 185.845424 
L 402.02449 178.328136 
L 404.302041 183.966102 
L 406.579592 183.966102 
L 408.857143 192.423051 
L 411.134694 191.48339 
L 413.412245 193.362712 
L 415.689796 189.604068 
L 417.967347 195.242034 
L 420.244898 197.121356 
L 422.522449 201.819661 
L 424.8 207.457627 
L 427.077551 205.578305 
L 429.355102 211.216271 
L 431.632653 209.336949 
L 433.910204 209.336949 
L 436.187755 211.216271 
L 438.465306 219.67322 
L 440.742857 221.552542 
L 443.020408 227.190508 
L 445.297959 230.009492 
L 452.130612 230.009492 
L 454.408163 230.949153 
L 456.685714 228.130169 
L 458.963265 224.371525 
L 463.518367 213.095593 
L 465.795918 206.517966 
L 468.073469 199.000678 
L 470.35102 189.604068 
L 472.628571 191.48339 
L 474.906122 183.966102 
L 477.183673 188.664407 
L 479.461224 194.302373 
L 481.738776 202.759322 
L 484.016327 210.27661 
L 486.293878 218.733559 
L 488.571429 225.311186 
L 490.84898 233.768136 
L 493.126531 245.044068 
L 495.404082 245.044068 
L 497.681633 252.561356 
L 499.959184 247.863051 
L 502.236735 233.768136 
L 506.791837 195.242034 
L 509.069388 178.328136 
L 513.62449 159.534915 
L 520.457143 148.258983 
L 522.734694 150.138305 
L 525.012245 162.353898 
L 527.289796 176.448814 
L 529.567347 186.785085 
L 531.844898 201.819661 
L 536.4 203.698983 
L 538.677551 196.181695 
L 540.955102 185.845424 
L 543.232653 171.750508 
L 545.510204 156.715932 
L 550.065306 143.560678 
L 552.342857 141.681356 
L 554.620408 136.04339 
L 556.897959 136.04339 
L 559.17551 141.681356 
L 563.730612 147.319322 
L 566.008163 144.500339 
L 568.285714 139.802034 
L 570.563265 143.560678 
L 572.840816 150.138305 
L 575.118367 148.258983 
L 577.395918 143.560678 
L 579.673469 144.500339 
L 581.95102 139.802034 
L 584.228571 141.681356 
L 586.506122 147.319322 
L 588.783673 162.353898 
L 591.061224 176.448814 
L 593.338776 177.388475 
L 595.616327 170.810847 
L 597.893878 168.931525 
L 600.171429 167.991864 
L 602.44898 164.23322 
L 604.726531 156.715932 
L 609.281633 139.802034 
L 611.559184 134.164068 
L 613.836735 125.707119 
L 616.114286 120.069153 
L 618.391837 124.767458 
L 620.669388 120.069153 
L 622.946939 123.827797 
L 625.22449 131.345085 
L 627.502041 144.500339 
L 629.779592 156.715932 
L 632.057143 169.871186 
L 634.334694 176.448814 
L 636.612245 192.423051 
L 638.889796 197.121356 
L 641.167347 188.664407 
L 643.444898 189.604068 
L 645.722449 170.810847 
L 648 159.534915 
L 648 159.534915 
" style="fill:none;stroke:#0000ff;stroke-linecap:square;stroke-opacity:0.05;stroke-width:1.5;"/>
   </g>
   <g id="line2d_20">
    <path clip-path="url(#p38f11461fc)" d="M 90 190.543729 
L 92.277551 193.362712 
L 94.555102 185.845424 
L 96.832653 172.690169 
L 99.110204 166.112542 
L 101.387755 165.172881 
L 103.665306 166.112542 
L 105.942857 162.353898 
L 108.220408 160.474576 
L 112.77551 171.750508 
L 115.053061 169.871186 
L 117.330612 179.267797 
L 119.608163 191.48339 
L 121.885714 190.543729 
L 124.163265 186.785085 
L 126.440816 190.543729 
L 128.718367 184.905763 
L 130.995918 185.845424 
L 133.273469 188.664407 
L 135.55102 189.604068 
L 137.828571 195.242034 
L 140.106122 191.48339 
L 142.383673 186.785085 
L 144.661224 177.388475 
L 146.938776 167.052203 
L 149.216327 158.595254 
L 151.493878 155.776271 
L 153.771429 147.319322 
L 158.326531 134.164068 
L 160.604082 132.284746 
L 162.881633 136.04339 
L 165.159184 141.681356 
L 167.436735 159.534915 
L 169.714286 180.207458 
L 171.991837 196.181695 
L 174.269388 211.216271 
L 176.546939 223.431864 
L 178.82449 230.009492 
L 181.102041 241.285424 
L 183.379592 248.802712 
L 185.657143 255.380339 
L 187.934694 255.380339 
L 190.212245 256.32 
L 192.489796 255.380339 
L 194.767347 250.682034 
L 197.044898 243.164746 
L 201.6 202.759322 
L 203.877551 175.509153 
L 208.432653 130.405424 
L 210.710204 112.551864 
L 212.987755 95.637966 
L 215.265306 71.20678 
L 217.542857 61.810169 
L 219.820408 57.111864 
L 222.097959 58.991186 
L 224.37551 67.448136 
L 226.653061 71.20678 
L 228.930612 81.543051 
L 231.208163 90.939661 
L 233.485714 105.974237 
L 235.763265 111.612203 
L 238.040816 125.707119 
L 240.318367 131.345085 
L 242.595918 137.922712 
L 244.873469 152.957288 
L 247.15102 158.595254 
L 249.428571 167.991864 
L 251.706122 167.991864 
L 253.983673 170.810847 
L 256.261224 161.414237 
L 258.538776 151.077966 
L 260.816327 151.077966 
L 263.093878 149.198644 
L 265.371429 140.741695 
L 267.64898 140.741695 
L 269.926531 148.258983 
L 272.204082 156.715932 
L 274.481633 163.293559 
L 276.759184 157.655593 
L 279.036735 159.534915 
L 281.314286 163.293559 
L 283.591837 155.776271 
L 285.869388 146.379661 
L 288.146939 149.198644 
L 290.42449 142.621017 
L 292.702041 128.526102 
L 294.979592 121.948475 
L 297.257143 118.189831 
L 299.534694 128.526102 
L 301.812245 134.164068 
L 304.089796 144.500339 
L 306.367347 157.655593 
L 308.644898 167.991864 
L 310.922449 171.750508 
L 313.2 172.690169 
L 315.477551 183.026441 
L 317.755102 188.664407 
L 320.032653 192.423051 
L 322.310204 193.362712 
L 329.142857 193.362712 
L 331.420408 190.543729 
L 333.697959 189.604068 
L 335.97551 193.362712 
L 338.253061 194.302373 
L 340.530612 196.181695 
L 342.808163 189.604068 
L 345.085714 188.664407 
L 347.363265 189.604068 
L 351.918367 193.362712 
L 354.195918 202.759322 
L 356.473469 209.336949 
L 358.75102 208.397288 
L 361.028571 201.819661 
L 363.306122 189.604068 
L 365.583673 197.121356 
L 367.861224 186.785085 
L 370.138776 179.267797 
L 372.416327 179.267797 
L 374.693878 174.569492 
L 376.971429 168.931525 
L 379.24898 167.052203 
L 381.526531 166.112542 
L 383.804082 169.871186 
L 386.081633 180.207458 
L 388.359184 178.328136 
L 390.636735 189.604068 
L 392.914286 198.061017 
L 395.191837 199.940339 
L 397.469388 202.759322 
L 399.746939 204.638644 
L 402.02449 199.940339 
L 404.302041 200.88 
L 406.579592 204.638644 
L 408.857143 202.759322 
L 411.134694 198.061017 
L 413.412245 196.181695 
L 415.689796 199.940339 
L 417.967347 199.000678 
L 422.522449 200.88 
L 424.8 204.638644 
L 427.077551 209.336949 
L 429.355102 205.578305 
L 431.632653 206.517966 
L 433.910204 214.974915 
L 436.187755 214.035254 
L 438.465306 214.974915 
L 440.742857 218.733559 
L 443.020408 216.854237 
L 445.297959 220.612881 
L 447.57551 218.733559 
L 452.130612 218.733559 
L 454.408163 219.67322 
L 456.685714 213.095593 
L 458.963265 214.974915 
L 461.240816 212.155932 
L 463.518367 210.27661 
L 465.795918 211.216271 
L 468.073469 204.638644 
L 470.35102 205.578305 
L 472.628571 199.940339 
L 474.906122 200.88 
L 477.183673 203.698983 
L 479.461224 199.940339 
L 481.738776 201.819661 
L 484.016327 196.181695 
L 486.293878 194.302373 
L 488.571429 185.845424 
L 490.84898 186.785085 
L 493.126531 186.785085 
L 497.681633 192.423051 
L 499.959184 188.664407 
L 502.236735 197.121356 
L 504.514286 196.181695 
L 506.791837 198.061017 
L 509.069388 197.121356 
L 511.346939 205.578305 
L 513.62449 202.759322 
L 515.902041 198.061017 
L 520.457143 198.061017 
L 522.734694 195.242034 
L 525.012245 193.362712 
L 527.289796 198.061017 
L 529.567347 201.819661 
L 531.844898 195.242034 
L 534.122449 196.181695 
L 536.4 196.181695 
L 538.677551 194.302373 
L 540.955102 190.543729 
L 543.232653 182.08678 
L 545.510204 183.966102 
L 547.787755 181.147119 
L 550.065306 174.569492 
L 552.342857 172.690169 
L 554.620408 180.207458 
L 556.897959 176.448814 
L 559.17551 178.328136 
L 561.453061 183.026441 
L 563.730612 183.966102 
L 566.008163 190.543729 
L 568.285714 195.242034 
L 570.563265 197.121356 
L 572.840816 197.121356 
L 575.118367 195.242034 
L 577.395918 191.48339 
L 581.95102 182.08678 
L 584.228571 174.569492 
L 586.506122 175.509153 
L 588.783673 173.629831 
L 591.061224 168.931525 
L 593.338776 170.810847 
L 597.893878 180.207458 
L 600.171429 179.267797 
L 602.44898 186.785085 
L 607.004082 203.698983 
L 609.281633 201.819661 
L 611.559184 205.578305 
L 613.836735 208.397288 
L 618.391837 200.88 
L 620.669388 190.543729 
L 622.946939 195.242034 
L 625.22449 189.604068 
L 627.502041 186.785085 
L 629.779592 184.905763 
L 632.057143 183.966102 
L 634.334694 179.267797 
L 636.612245 176.448814 
L 638.889796 177.388475 
L 641.167347 169.871186 
L 643.444898 176.448814 
L 645.722449 171.750508 
L 648 170.810847 
L 648 170.810847 
" style="fill:none;stroke:#0000ff;stroke-linecap:square;stroke-opacity:0.05;stroke-width:1.5;"/>
   </g>
   <g id="line2d_21">
    <path clip-path="url(#p38f11461fc)" d="M 90 181.804881 
L 92.277551 185.093695 
L 94.555102 186.785085 
L 96.832653 186.503186 
L 99.110204 185.751458 
L 101.387755 186.879051 
L 103.665306 185.845424 
L 105.942857 186.40922 
L 108.220408 186.127322 
L 110.497959 185.375593 
L 112.77551 185.657492 
L 117.330612 184.060068 
L 119.608163 185.469559 
L 124.163265 187.724746 
L 126.440816 190.073898 
L 128.718367 190.355797 
L 130.995918 192.986847 
L 133.273469 194.772203 
L 135.55102 196.745492 
L 137.828571 197.215322 
L 140.106122 197.121356 
L 142.383673 196.275661 
L 144.661224 194.208407 
L 146.938776 191.201492 
L 149.216327 188.006644 
L 151.493878 184.435932 
L 153.771429 179.361763 
L 156.04898 177.01261 
L 158.326531 172.690169 
L 162.881633 167.897898 
L 165.159184 168.179797 
L 167.436735 170.904814 
L 169.714286 175.509153 
L 171.991837 179.173831 
L 174.269388 181.710915 
L 176.546939 185.563525 
L 178.82449 187.63078 
L 181.102041 189.885966 
L 183.379592 191.389424 
L 185.657143 193.738576 
L 190.212245 192.986847 
L 192.489796 191.201492 
L 194.767347 191.859254 
L 197.044898 191.295458 
L 199.322449 188.382508 
L 201.6 186.40922 
L 203.877551 184.999729 
L 206.155102 184.435932 
L 208.432653 186.315254 
L 210.710204 187.442847 
L 212.987755 187.160949 
L 215.265306 183.026441 
L 217.542857 180.113492 
L 219.820408 179.643661 
L 222.097959 178.891932 
L 224.37551 177.952271 
L 226.653061 175.227254 
L 228.930612 174.757424 
L 231.208163 173.441898 
L 233.485714 174.099661 
L 235.763265 172.314305 
L 238.040816 174.287593 
L 240.318367 174.193627 
L 242.595918 175.039322 
L 244.873469 177.764339 
L 247.15102 179.643661 
L 249.428571 183.214373 
L 251.706122 182.368678 
L 253.983673 178.704 
L 256.261224 174.475525 
L 258.538776 173.253966 
L 260.816327 173.535864 
L 263.093878 172.784136 
L 265.371429 172.596203 
L 267.64898 170.810847 
L 269.926531 170.528949 
L 276.759184 176.260881 
L 279.036735 179.361763 
L 281.314286 180.86522 
L 283.591837 181.616949 
L 285.869388 183.496271 
L 288.146939 183.402305 
L 290.42449 184.623864 
L 292.702041 182.838508 
L 294.979592 181.710915 
L 297.257143 182.274712 
L 299.534694 184.435932 
L 301.812245 184.905763 
L 304.089796 185.187661 
L 306.367347 186.033356 
L 308.644898 185.093695 
L 310.922449 184.905763 
L 313.2 184.248 
L 315.477551 185.281627 
L 317.755102 185.657492 
L 320.032653 187.066983 
L 322.310204 188.006644 
L 324.587755 186.691119 
L 326.865306 188.288542 
L 329.142857 188.570441 
L 331.420408 188.382508 
L 333.697959 190.167864 
L 335.97551 193.738576 
L 338.253061 195.711864 
L 340.530612 195.993763 
L 345.085714 194.396339 
L 347.363265 193.64461 
L 349.640816 191.671322 
L 351.918367 191.013559 
L 354.195918 191.577356 
L 356.473469 189.322169 
L 361.028571 179.549695 
L 363.306122 177.01261 
L 365.583673 177.670373 
L 367.861224 175.133288 
L 372.416327 177.106576 
L 374.693878 175.885017 
L 376.971429 176.448814 
L 379.24898 178.610034 
L 381.526531 177.952271 
L 383.804082 180.489356 
L 386.081633 178.985898 
L 388.359184 176.448814 
L 390.636735 177.106576 
L 392.914286 177.294508 
L 395.191837 175.791051 
L 397.469388 176.918644 
L 399.746939 176.730712 
L 402.02449 175.039322 
L 404.302041 177.200542 
L 406.579592 180.677288 
L 408.857143 184.529898 
L 411.134694 186.785085 
L 413.412245 188.382508 
L 415.689796 188.758373 
L 417.967347 191.107525 
L 420.244898 190.261831 
L 422.522449 190.167864 
L 424.8 190.637695 
L 427.077551 192.423051 
L 429.355102 189.040271 
L 431.632653 188.758373 
L 433.910204 187.442847 
L 436.187755 184.435932 
L 438.465306 184.060068 
L 440.742857 182.744542 
L 443.020408 183.778169 
L 445.297959 183.590237 
L 449.853061 181.804881 
L 452.130612 181.335051 
L 454.408163 179.549695 
L 456.685714 179.737627 
L 461.240816 182.838508 
L 463.518367 183.308339 
L 465.795918 182.462644 
L 468.073469 181.898847 
L 470.35102 181.053153 
L 472.628571 182.274712 
L 474.906122 182.650576 
L 477.183673 185.93939 
L 479.461224 185.281627 
L 481.738776 186.691119 
L 484.016327 187.254915 
L 486.293878 187.160949 
L 488.571429 188.664407 
L 490.84898 189.885966 
L 493.126531 193.080814 
L 495.404082 193.268746 
L 497.681633 195.523932 
L 499.959184 192.517017 
L 502.236735 191.48339 
L 504.514286 188.570441 
L 506.791837 184.529898 
L 509.069388 181.616949 
L 511.346939 179.173831 
L 513.62449 176.260881 
L 515.902041 173.911729 
L 518.179592 172.878102 
L 520.457143 172.408271 
L 522.734694 173.16 
L 525.012245 175.415186 
L 527.289796 179.361763 
L 529.567347 181.147119 
L 531.844898 185.375593 
L 534.122449 186.503186 
L 536.4 189.228203 
L 538.677551 188.852339 
L 540.955102 187.818712 
L 543.232653 185.93939 
L 545.510204 188.006644 
L 547.787755 188.288542 
L 550.065306 187.066983 
L 552.342857 188.570441 
L 554.620408 188.10061 
L 556.897959 188.006644 
L 559.17551 187.254915 
L 561.453061 189.510102 
L 563.730612 190.073898 
L 566.008163 188.664407 
L 568.285714 186.221288 
L 570.563265 183.308339 
L 572.840816 183.214373 
L 575.118367 180.959186 
L 577.395918 177.01261 
L 579.673469 175.697085 
L 581.95102 173.441898 
L 584.228571 169.213424 
L 586.506122 167.052203 
L 588.783673 168.649627 
L 591.061224 166.864271 
L 593.338776 168.555661 
L 595.616327 168.461695 
L 597.893878 169.77722 
L 600.171429 172.972068 
L 604.726531 177.576407 
L 607.004082 181.335051 
L 609.281633 183.684203 
L 611.559184 184.341966 
L 613.836735 186.503186 
L 616.114286 186.127322 
L 618.391837 186.785085 
L 620.669388 183.214373 
L 622.946939 181.522983 
L 625.22449 179.079864 
L 627.502041 180.207458 
L 629.779592 178.610034 
L 632.057143 177.858305 
L 634.334694 178.140203 
L 636.612245 178.704 
L 638.889796 179.737627 
L 641.167347 176.54278 
L 643.444898 178.328136 
L 645.722449 176.730712 
L 648 177.858305 
L 648 177.858305 
" style="fill:none;stroke:#0000ff;stroke-linecap:square;stroke-width:1.5;"/>
   </g>
   <g id="patch_3">
    <path d="M 90 256.32 
L 90 34.56 
" style="fill:none;stroke:#000000;stroke-linecap:square;stroke-linejoin:miter;stroke-width:0.8;"/>
   </g>
   <g id="patch_4">
    <path d="M 648 256.32 
L 648 34.56 
" style="fill:none;stroke:#000000;stroke-linecap:square;stroke-linejoin:miter;stroke-width:0.8;"/>
   </g>
   <g id="patch_5">
    <path d="M 90 256.32 
L 648 256.32 
" style="fill:none;stroke:#000000;stroke-linecap:square;stroke-linejoin:miter;stroke-width:0.8;"/>
   </g>
   <g id="patch_6">
    <path d="M 90 34.56 
L 648 34.56 
" style="fill:none;stroke:#000000;stroke-linecap:square;stroke-linejoin:miter;stroke-width:0.8;"/>
   </g>
   <g id="text_12">
    <!-- Motor cortex, Num Trials=10 All unstimulated trials -->
    <defs>
     <path d="M 9.8125 72.90625 
L 24.515625 72.90625 
L 43.109375 23.296875 
L 61.8125 72.90625 
L 76.515625 72.90625 
L 76.515625 0 
L 66.890625 0 
L 66.890625 64.015625 
L 48.09375 14.015625 
L 38.1875 14.015625 
L 19.390625 64.015625 
L 19.390625 0 
L 9.8125 0 
z
" id="DejaVuSans-77"/>
     <path d="M 30.609375 48.390625 
Q 23.390625 48.390625 19.1875 42.75 
Q 14.984375 37.109375 14.984375 27.296875 
Q 14.984375 17.484375 19.15625 11.84375 
Q 23.34375 6.203125 30.609375 6.203125 
Q 37.796875 6.203125 41.984375 11.859375 
Q 46.1875 17.53125 46.1875 27.296875 
Q 46.1875 37.015625 41.984375 42.703125 
Q 37.796875 48.390625 30.609375 48.390625 
z
M 30.609375 56 
Q 42.328125 56 49.015625 48.375 
Q 55.71875 40.765625 55.71875 27.296875 
Q 55.71875 13.875 49.015625 6.21875 
Q 42.328125 -1.421875 30.609375 -1.421875 
Q 18.84375 -1.421875 12.171875 6.21875 
Q 5.515625 13.875 5.515625 27.296875 
Q 5.515625 40.765625 12.171875 48.375 
Q 18.84375 56 30.609375 56 
z
" id="DejaVuSans-111"/>
     <path d="M 18.3125 70.21875 
L 18.3125 54.6875 
L 36.8125 54.6875 
L 36.8125 47.703125 
L 18.3125 47.703125 
L 18.3125 18.015625 
Q 18.3125 11.328125 20.140625 9.421875 
Q 21.96875 7.515625 27.59375 7.515625 
L 36.8125 7.515625 
L 36.8125 0 
L 27.59375 0 
Q 17.1875 0 13.234375 3.875 
Q 9.28125 7.765625 9.28125 18.015625 
L 9.28125 47.703125 
L 2.6875 47.703125 
L 2.6875 54.6875 
L 9.28125 54.6875 
L 9.28125 70.21875 
z
" id="DejaVuSans-116"/>
     <path d="M 41.109375 46.296875 
Q 39.59375 47.171875 37.8125 47.578125 
Q 36.03125 48 33.890625 48 
Q 26.265625 48 22.1875 43.046875 
Q 18.109375 38.09375 18.109375 28.8125 
L 18.109375 0 
L 9.078125 0 
L 9.078125 54.6875 
L 18.109375 54.6875 
L 18.109375 46.1875 
Q 20.953125 51.171875 25.484375 53.578125 
Q 30.03125 56 36.53125 56 
Q 37.453125 56 38.578125 55.875 
Q 39.703125 55.765625 41.0625 55.515625 
z
" id="DejaVuSans-114"/>
     <path d="M 48.78125 52.59375 
L 48.78125 44.1875 
Q 44.96875 46.296875 41.140625 47.34375 
Q 37.3125 48.390625 33.40625 48.390625 
Q 24.65625 48.390625 19.8125 42.84375 
Q 14.984375 37.3125 14.984375 27.296875 
Q 14.984375 17.28125 19.8125 11.734375 
Q 24.65625 6.203125 33.40625 6.203125 
Q 37.3125 6.203125 41.140625 7.25 
Q 44.96875 8.296875 48.78125 10.40625 
L 48.78125 2.09375 
Q 45.015625 0.34375 40.984375 -0.53125 
Q 36.96875 -1.421875 32.421875 -1.421875 
Q 20.0625 -1.421875 12.78125 6.34375 
Q 5.515625 14.109375 5.515625 27.296875 
Q 5.515625 40.671875 12.859375 48.328125 
Q 20.21875 56 33.015625 56 
Q 37.15625 56 41.109375 55.140625 
Q 45.0625 54.296875 48.78125 52.59375 
z
" id="DejaVuSans-99"/>
     <path d="M 54.890625 54.6875 
L 35.109375 28.078125 
L 55.90625 0 
L 45.3125 0 
L 29.390625 21.484375 
L 13.484375 0 
L 2.875 0 
L 24.125 28.609375 
L 4.6875 54.6875 
L 15.28125 54.6875 
L 29.78125 35.203125 
L 44.28125 54.6875 
z
" id="DejaVuSans-120"/>
     <path d="M 11.71875 12.40625 
L 22.015625 12.40625 
L 22.015625 4 
L 14.015625 -11.625 
L 7.71875 -11.625 
L 11.71875 4 
z
" id="DejaVuSans-44"/>
     <path d="M 9.8125 72.90625 
L 23.09375 72.90625 
L 55.421875 11.921875 
L 55.421875 72.90625 
L 64.984375 72.90625 
L 64.984375 0 
L 51.703125 0 
L 19.390625 60.984375 
L 19.390625 0 
L 9.8125 0 
z
" id="DejaVuSans-78"/>
     <path d="M 8.5 21.578125 
L 8.5 54.6875 
L 17.484375 54.6875 
L 17.484375 21.921875 
Q 17.484375 14.15625 20.5 10.265625 
Q 23.53125 6.390625 29.59375 6.390625 
Q 36.859375 6.390625 41.078125 11.03125 
Q 45.3125 15.671875 45.3125 23.6875 
L 45.3125 54.6875 
L 54.296875 54.6875 
L 54.296875 0 
L 45.3125 0 
L 45.3125 8.40625 
Q 42.046875 3.421875 37.71875 1 
Q 33.40625 -1.421875 27.6875 -1.421875 
Q 18.265625 -1.421875 13.375 4.4375 
Q 8.5 10.296875 8.5 21.578125 
z
M 31.109375 56 
z
" id="DejaVuSans-117"/>
     <path d="M 34.28125 27.484375 
Q 23.390625 27.484375 19.1875 25 
Q 14.984375 22.515625 14.984375 16.5 
Q 14.984375 11.71875 18.140625 8.90625 
Q 21.296875 6.109375 26.703125 6.109375 
Q 34.1875 6.109375 38.703125 11.40625 
Q 43.21875 16.703125 43.21875 25.484375 
L 43.21875 27.484375 
z
M 52.203125 31.203125 
L 52.203125 0 
L 43.21875 0 
L 43.21875 8.296875 
Q 40.140625 3.328125 35.546875 0.953125 
Q 30.953125 -1.421875 24.3125 -1.421875 
Q 15.921875 -1.421875 10.953125 3.296875 
Q 6 8.015625 6 15.921875 
Q 6 25.140625 12.171875 29.828125 
Q 18.359375 34.515625 30.609375 34.515625 
L 43.21875 34.515625 
L 43.21875 35.40625 
Q 43.21875 41.609375 39.140625 45 
Q 35.0625 48.390625 27.6875 48.390625 
Q 23 48.390625 18.546875 47.265625 
Q 14.109375 46.140625 10.015625 43.890625 
L 10.015625 52.203125 
Q 14.9375 54.109375 19.578125 55.046875 
Q 24.21875 56 28.609375 56 
Q 40.484375 56 46.34375 49.84375 
Q 52.203125 43.703125 52.203125 31.203125 
z
" id="DejaVuSans-97"/>
     <path d="M 9.421875 75.984375 
L 18.40625 75.984375 
L 18.40625 0 
L 9.421875 0 
z
" id="DejaVuSans-108"/>
     <path d="M 10.59375 45.40625 
L 73.1875 45.40625 
L 73.1875 37.203125 
L 10.59375 37.203125 
z
M 10.59375 25.484375 
L 73.1875 25.484375 
L 73.1875 17.1875 
L 10.59375 17.1875 
z
" id="DejaVuSans-61"/>
     <path d="M 34.1875 63.1875 
L 20.796875 26.90625 
L 47.609375 26.90625 
z
M 28.609375 72.90625 
L 39.796875 72.90625 
L 67.578125 0 
L 57.328125 0 
L 50.6875 18.703125 
L 17.828125 18.703125 
L 11.1875 0 
L 0.78125 0 
z
" id="DejaVuSans-65"/>
     <path d="M 54.890625 33.015625 
L 54.890625 0 
L 45.90625 0 
L 45.90625 32.71875 
Q 45.90625 40.484375 42.875 44.328125 
Q 39.84375 48.1875 33.796875 48.1875 
Q 26.515625 48.1875 22.3125 43.546875 
Q 18.109375 38.921875 18.109375 30.90625 
L 18.109375 0 
L 9.078125 0 
L 9.078125 54.6875 
L 18.109375 54.6875 
L 18.109375 46.1875 
Q 21.34375 51.125 25.703125 53.5625 
Q 30.078125 56 35.796875 56 
Q 45.21875 56 50.046875 50.171875 
Q 54.890625 44.34375 54.890625 33.015625 
z
" id="DejaVuSans-110"/>
     <path d="M 45.40625 46.390625 
L 45.40625 75.984375 
L 54.390625 75.984375 
L 54.390625 0 
L 45.40625 0 
L 45.40625 8.203125 
Q 42.578125 3.328125 38.25 0.953125 
Q 33.9375 -1.421875 27.875 -1.421875 
Q 17.96875 -1.421875 11.734375 6.484375 
Q 5.515625 14.40625 5.515625 27.296875 
Q 5.515625 40.1875 11.734375 48.09375 
Q 17.96875 56 27.875 56 
Q 33.9375 56 38.25 53.625 
Q 42.578125 51.265625 45.40625 46.390625 
z
M 14.796875 27.296875 
Q 14.796875 17.390625 18.875 11.75 
Q 22.953125 6.109375 30.078125 6.109375 
Q 37.203125 6.109375 41.296875 11.75 
Q 45.40625 17.390625 45.40625 27.296875 
Q 45.40625 37.203125 41.296875 42.84375 
Q 37.203125 48.484375 30.078125 48.484375 
Q 22.953125 48.484375 18.875 42.84375 
Q 14.796875 37.203125 14.796875 27.296875 
z
" id="DejaVuSans-100"/>
    </defs>
    <g transform="translate(214.243125 28.56)scale(0.12 -0.12)">
     <use xlink:href="#DejaVuSans-77"/>
     <use x="86.279297" xlink:href="#DejaVuSans-111"/>
     <use x="147.460938" xlink:href="#DejaVuSans-116"/>
     <use x="186.669922" xlink:href="#DejaVuSans-111"/>
     <use x="247.851562" xlink:href="#DejaVuSans-114"/>
     <use x="288.964844" xlink:href="#DejaVuSans-32"/>
     <use x="320.751953" xlink:href="#DejaVuSans-99"/>
     <use x="375.732422" xlink:href="#DejaVuSans-111"/>
     <use x="436.914062" xlink:href="#DejaVuSans-114"/>
     <use x="478.027344" xlink:href="#DejaVuSans-116"/>
     <use x="517.236328" xlink:href="#DejaVuSans-101"/>
     <use x="578.744141" xlink:href="#DejaVuSans-120"/>
     <use x="637.923828" xlink:href="#DejaVuSans-44"/>
     <use x="669.710938" xlink:href="#DejaVuSans-32"/>
     <use x="701.498047" xlink:href="#DejaVuSans-78"/>
     <use x="776.302734" xlink:href="#DejaVuSans-117"/>
     <use x="839.681641" xlink:href="#DejaVuSans-109"/>
     <use x="937.09375" xlink:href="#DejaVuSans-32"/>
     <use x="968.880859" xlink:href="#DejaVuSans-84"/>
     <use x="1029.746094" xlink:href="#DejaVuSans-114"/>
     <use x="1070.859375" xlink:href="#DejaVuSans-105"/>
     <use x="1098.642578" xlink:href="#DejaVuSans-97"/>
     <use x="1159.921875" xlink:href="#DejaVuSans-108"/>
     <use x="1187.705078" xlink:href="#DejaVuSans-115"/>
     <use x="1239.804688" xlink:href="#DejaVuSans-61"/>
     <use x="1323.59375" xlink:href="#DejaVuSans-49"/>
     <use x="1387.216797" xlink:href="#DejaVuSans-48"/>
     <use x="1450.839844" xlink:href="#DejaVuSans-32"/>
     <use x="1482.626953" xlink:href="#DejaVuSans-65"/>
     <use x="1551.035156" xlink:href="#DejaVuSans-108"/>
     <use x="1578.818359" xlink:href="#DejaVuSans-108"/>
     <use x="1606.601562" xlink:href="#DejaVuSans-32"/>
     <use x="1638.388672" xlink:href="#DejaVuSans-117"/>
     <use x="1701.767578" xlink:href="#DejaVuSans-110"/>
     <use x="1765.146484" xlink:href="#DejaVuSans-115"/>
     <use x="1817.246094" xlink:href="#DejaVuSans-116"/>
     <use x="1856.455078" xlink:href="#DejaVuSans-105"/>
     <use x="1884.238281" xlink:href="#DejaVuSans-109"/>
     <use x="1981.650391" xlink:href="#DejaVuSans-117"/>
     <use x="2045.029297" xlink:href="#DejaVuSans-108"/>
     <use x="2072.8125" xlink:href="#DejaVuSans-97"/>
     <use x="2134.091797" xlink:href="#DejaVuSans-116"/>
     <use x="2173.300781" xlink:href="#DejaVuSans-101"/>
     <use x="2234.824219" xlink:href="#DejaVuSans-100"/>
     <use x="2298.300781" xlink:href="#DejaVuSans-32"/>
     <use x="2330.087891" xlink:href="#DejaVuSans-116"/>
     <use x="2369.296875" xlink:href="#DejaVuSans-114"/>
     <use x="2410.410156" xlink:href="#DejaVuSans-105"/>
     <use x="2438.193359" xlink:href="#DejaVuSans-97"/>
     <use x="2499.472656" xlink:href="#DejaVuSans-108"/>
     <use x="2527.255859" xlink:href="#DejaVuSans-115"/>
    </g>
   </g>
   <g id="legend_1">
    <g id="patch_7">
     <path d="M 537.48 61.8 
L 639.6 61.8 
Q 642 61.8 642 59.4 
L 642 42.96 
Q 642 40.56 639.6 40.56 
L 537.48 40.56 
Q 535.08 40.56 535.08 42.96 
L 535.08 59.4 
Q 535.08 61.8 537.48 61.8 
z
" style="fill:#ffffff;opacity:0.8;stroke:#cccccc;stroke-linejoin:miter;"/>
    </g>
    <g id="line2d_22">
     <path d="M 539.88 50.28 
L 563.88 50.28 
" style="fill:none;stroke:#0000ff;stroke-linecap:square;stroke-width:1.5;"/>
    </g>
    <g id="line2d_23"/>
    <g id="text_13">
     <!-- Binomial $p$ -->
     <defs>
      <path d="M 19.671875 34.8125 
L 19.671875 8.109375 
L 35.5 8.109375 
Q 43.453125 8.109375 47.28125 11.40625 
Q 51.125 14.703125 51.125 21.484375 
Q 51.125 28.328125 47.28125 31.5625 
Q 43.453125 34.8125 35.5 34.8125 
z
M 19.671875 64.796875 
L 19.671875 42.828125 
L 34.28125 42.828125 
Q 41.5 42.828125 45.03125 45.53125 
Q 48.578125 48.25 48.578125 53.8125 
Q 48.578125 59.328125 45.03125 62.0625 
Q 41.5 64.796875 34.28125 64.796875 
z
M 9.8125 72.90625 
L 35.015625 72.90625 
Q 46.296875 72.90625 52.390625 68.21875 
Q 58.5 63.53125 58.5 54.890625 
Q 58.5 48.1875 55.375 44.234375 
Q 52.25 40.28125 46.1875 39.3125 
Q 53.46875 37.75 57.5 32.78125 
Q 61.53125 27.828125 61.53125 20.40625 
Q 61.53125 10.640625 54.890625 5.3125 
Q 48.25 0 35.984375 0 
L 9.8125 0 
z
" id="DejaVuSans-66"/>
      <path d="M 49.609375 33.6875 
Q 49.609375 40.875 46.484375 44.671875 
Q 43.359375 48.484375 37.5 48.484375 
Q 33.5 48.484375 29.859375 46.4375 
Q 26.21875 44.390625 23.390625 40.484375 
Q 20.609375 36.625 18.9375 31.15625 
Q 17.28125 25.6875 17.28125 20.3125 
Q 17.28125 13.484375 20.40625 9.796875 
Q 23.53125 6.109375 29.296875 6.109375 
Q 33.546875 6.109375 37.1875 8.109375 
Q 40.828125 10.109375 43.40625 13.921875 
Q 46.1875 17.921875 47.890625 23.34375 
Q 49.609375 28.765625 49.609375 33.6875 
z
M 21.78125 46.390625 
Q 25.390625 51.125 30.296875 53.5625 
Q 35.203125 56 41.21875 56 
Q 49.609375 56 54.25 50.5 
Q 58.890625 45.015625 58.890625 35.109375 
Q 58.890625 27 56 19.65625 
Q 53.125 12.3125 47.703125 6.5 
Q 44.09375 2.640625 39.546875 0.609375 
Q 35.015625 -1.421875 29.984375 -1.421875 
Q 24.171875 -1.421875 20.21875 1 
Q 16.265625 3.421875 14.3125 8.203125 
L 8.6875 -20.796875 
L -0.296875 -20.796875 
L 14.40625 54.6875 
L 23.390625 54.6875 
z
" id="DejaVuSans-Oblique-112"/>
     </defs>
     <g transform="translate(573.48 54.48)scale(0.12 -0.12)">
      <use transform="translate(0 0.015625)" xlink:href="#DejaVuSans-66"/>
      <use transform="translate(68.603516 0.015625)" xlink:href="#DejaVuSans-105"/>
      <use transform="translate(96.386719 0.015625)" xlink:href="#DejaVuSans-110"/>
      <use transform="translate(159.765625 0.015625)" xlink:href="#DejaVuSans-111"/>
      <use transform="translate(220.947266 0.015625)" xlink:href="#DejaVuSans-109"/>
      <use transform="translate(318.359375 0.015625)" xlink:href="#DejaVuSans-105"/>
      <use transform="translate(346.142578 0.015625)" xlink:href="#DejaVuSans-97"/>
      <use transform="translate(407.421875 0.015625)" xlink:href="#DejaVuSans-108"/>
      <use transform="translate(435.205078 0.015625)" xlink:href="#DejaVuSans-32"/>
      <use transform="translate(466.992188 0.015625)" xlink:href="#DejaVuSans-Oblique-112"/>
     </g>
    </g>
   </g>
  </g>
 </g>
 <defs>
  <clipPath id="p38f11461fc">
   <rect height="221.76" width="558" x="90" y="34.56"/>
  </clipPath>
 </defs>
</svg>
