<?xml version="1.0" encoding="utf-8" standalone="no"?>
<!DOCTYPE svg PUBLIC "-//W3C//DTD SVG 1.1//EN"
  "http://www.w3.org/Graphics/SVG/1.1/DTD/svg11.dtd">
<!-- Created with matplotlib (https://matplotlib.org/) -->
<svg height="216pt" version="1.1" viewBox="0 0 648 216" width="648pt" xmlns="http://www.w3.org/2000/svg" xmlns:xlink="http://www.w3.org/1999/xlink">
 <defs>
  <style type="text/css">
*{stroke-linecap:butt;stroke-linejoin:round;}
  </style>
 </defs>
 <g id="figure_1">
  <g id="patch_1">
   <path d="M 0 216 
L 648 216 
L 648 0 
L 0 0 
z
" style="fill:#ffffff;"/>
  </g>
  <g id="axes_1">
   <g id="patch_2">
    <path d="M 81 192.24 
L 583.2 192.24 
L 583.2 25.92 
L 81 25.92 
z
" style="fill:#ffffff;"/>
   </g>
   <g id="PolyCollection_1">
    <defs>
     <path d="M 156.33 -23.76 
L 156.33 -190.08 
L 420.645789 -190.08 
L 420.645789 -23.76 
L 420.645789 -23.76 
L 156.33 -23.76 
z
" id="m84a898a62f" style="stroke:#808080;stroke-opacity:0.3;"/>
    </defs>
    <g clip-path="url(#p0bd4d6cea6)">
     <use style="fill:#808080;fill-opacity:0.3;stroke:#808080;stroke-opacity:0.3;" x="0" xlink:href="#m84a898a62f" y="216"/>
    </g>
   </g>
   <g id="PolyCollection_2">
    <path clip-path="url(#p0bd4d6cea6)" d="M 82.762105 119.261224 
L 82.762105 149.624841 
L 84.524211 150.401512 
L 86.286316 145.949723 
L 88.048421 150.300432 
L 89.810526 152.790169 
L 91.572632 154.434378 
L 93.334737 154.434378 
L 93.334737 154.434378 
L 93.334737 154.434378 
L 91.572632 154.434378 
L 89.810526 148.804435 
L 88.048421 144.016878 
L 86.286316 139.73037 
L 84.524211 140.988797 
L 82.762105 119.261224 
z
" style="fill:#0000ff;fill-opacity:0.3;stroke:#0000ff;stroke-opacity:0.3;"/>
    <path clip-path="url(#p0bd4d6cea6)" d="M 98.621053 154.434378 
L 98.621053 154.434378 
L 100.383158 149.554426 
L 102.145263 148.815081 
L 103.907368 148.632694 
L 105.669474 148.297557 
L 107.431579 150.062225 
L 107.431579 144.106822 
L 107.431579 144.106822 
L 105.669474 143.661294 
L 103.907368 134.578383 
L 102.145263 139.306001 
L 100.383158 136.493359 
L 98.621053 154.434378 
z
" style="fill:#0000ff;fill-opacity:0.3;stroke:#0000ff;stroke-opacity:0.3;"/>
    <path clip-path="url(#p0bd4d6cea6)" d="M 114.48 154.434378 
L 114.48 154.434378 
L 116.242105 148.209579 
L 116.242105 139.161475 
L 116.242105 139.161475 
L 114.48 154.434378 
z
" style="fill:#0000ff;fill-opacity:0.3;stroke:#0000ff;stroke-opacity:0.3;"/>
    <path clip-path="url(#p0bd4d6cea6)" d="M 119.766316 152.251633 
L 119.766316 162.728785 
L 121.528421 143.631891 
L 123.290526 154.434378 
L 123.290526 154.434378 
L 123.290526 154.434378 
L 121.528421 143.631891 
L 119.766316 152.251633 
z
" style="fill:#0000ff;fill-opacity:0.3;stroke:#0000ff;stroke-opacity:0.3;"/>
    <path clip-path="url(#p0bd4d6cea6)" d="M 126.814737 142.749727 
L 126.814737 153.253988 
L 128.576842 153.085142 
L 130.338947 150.806922 
L 132.101053 151.405647 
L 133.863158 148.95539 
L 135.625263 145.280367 
L 137.387368 142.165553 
L 139.149474 145.105729 
L 140.911579 154.434378 
L 142.673684 154.434378 
L 144.435789 148.225142 
L 146.197895 154.434378 
L 146.197895 154.434378 
L 146.197895 154.434378 
L 144.435789 148.225142 
L 142.673684 154.434378 
L 140.911579 154.434378 
L 139.149474 140.864711 
L 137.387368 136.633092 
L 135.625263 139.393538 
L 133.863158 141.007981 
L 132.101053 146.969051 
L 130.338947 139.425687 
L 128.576842 135.64195 
L 126.814737 142.749727 
z
" style="fill:#0000ff;fill-opacity:0.3;stroke:#0000ff;stroke-opacity:0.3;"/>
    <path clip-path="url(#p0bd4d6cea6)" d="M 153.246316 168.352037 
L 153.246316 168.352037 
L 153.246316 168.352037 
L 153.246316 168.352037 
z
" style="fill:#0000ff;fill-opacity:0.3;stroke:#0000ff;stroke-opacity:0.3;"/>
    <path clip-path="url(#p0bd4d6cea6)" d="M 156.770526 154.434378 
L 156.770526 154.434378 
L 158.532632 143.570931 
L 160.294737 133.125121 
L 162.056842 135.287514 
L 162.056842 125.317521 
L 162.056842 125.317521 
L 160.294737 128.755437 
L 158.532632 134.642783 
L 156.770526 154.434378 
z
" style="fill:#0000ff;fill-opacity:0.3;stroke:#0000ff;stroke-opacity:0.3;"/>
    <path clip-path="url(#p0bd4d6cea6)" d="M 165.581053 131.075155 
L 165.581053 131.075155 
L 165.581053 131.075155 
L 165.581053 131.075155 
z
" style="fill:#0000ff;fill-opacity:0.3;stroke:#0000ff;stroke-opacity:0.3;"/>
    <path clip-path="url(#p0bd4d6cea6)" d="M 169.105263 154.434378 
L 169.105263 154.434378 
L 170.867368 153.943379 
L 172.629474 149.693485 
L 174.391579 154.13661 
L 174.391579 150.287014 
L 174.391579 150.287014 
L 172.629474 141.810362 
L 170.867368 145.623775 
L 169.105263 154.434378 
z
" style="fill:#0000ff;fill-opacity:0.3;stroke:#0000ff;stroke-opacity:0.3;"/>
    <path clip-path="url(#p0bd4d6cea6)" d="M 177.915789 133.035849 
L 177.915789 139.171431 
L 179.677895 136.33222 
L 181.44 148.620883 
L 183.202105 154.434378 
L 184.964211 154.434378 
L 186.726316 136.030699 
L 188.488421 144.065 
L 188.488421 120.004663 
L 188.488421 120.004663 
L 186.726316 115.776013 
L 184.964211 154.434378 
L 183.202105 154.434378 
L 181.44 143.637464 
L 179.677895 131.055392 
L 177.915789 133.035849 
z
" style="fill:#0000ff;fill-opacity:0.3;stroke:#0000ff;stroke-opacity:0.3;"/>
    <path clip-path="url(#p0bd4d6cea6)" d="M 193.774737 166.915426 
L 193.774737 166.915426 
L 195.536842 153.005545 
L 197.298947 154.434378 
L 199.061053 154.434378 
L 200.823158 144.779987 
L 202.585263 146.425336 
L 204.347368 148.273624 
L 206.109474 149.471386 
L 207.871579 135.252247 
L 209.633684 144.624099 
L 211.395789 147.506612 
L 213.157895 145.29182 
L 214.92 148.896853 
L 216.682105 143.631891 
L 218.444211 155.821522 
L 220.206316 154.434378 
L 221.968421 152.906339 
L 223.730526 154.434378 
L 225.492632 150.065126 
L 227.254737 154.942187 
L 229.016842 144.756454 
L 230.778947 149.623473 
L 232.541053 154.434378 
L 234.303158 154.434378 
L 236.065263 148.968308 
L 237.827368 154.434378 
L 237.827368 154.434378 
L 237.827368 154.434378 
L 236.065263 139.092926 
L 234.303158 154.434378 
L 232.541053 154.434378 
L 230.778947 144.367561 
L 229.016842 135.373675 
L 227.254737 134.711875 
L 225.492632 145.361069 
L 223.730526 154.434378 
L 221.968421 139.308358 
L 220.206316 154.434378 
L 218.444211 154.51168 
L 216.682105 143.631891 
L 214.92 141.700522 
L 213.157895 134.495377 
L 211.395789 139.146753 
L 209.633684 137.763286 
L 207.871579 128.354257 
L 206.109474 139.353723 
L 204.347368 138.821615 
L 202.585263 139.376738 
L 200.823158 136.672059 
L 199.061053 154.434378 
L 197.298947 154.434378 
L 195.536842 140.290395 
L 193.774737 166.915426 
z
" style="fill:#0000ff;fill-opacity:0.3;stroke:#0000ff;stroke-opacity:0.3;"/>
    <path clip-path="url(#p0bd4d6cea6)" d="M 241.351579 154.434378 
L 241.351579 154.434378 
L 243.113684 154.434378 
L 244.875789 154.434378 
L 246.637895 154.829714 
L 248.4 152.65318 
L 250.162105 148.039777 
L 251.924211 149.489043 
L 253.686316 147.391765 
L 253.686316 133.301784 
L 253.686316 133.301784 
L 251.924211 144.208433 
L 250.162105 128.981904 
L 248.4 139.32489 
L 246.637895 154.456409 
L 244.875789 154.434378 
L 243.113684 154.434378 
L 241.351579 154.434378 
z
" style="fill:#0000ff;fill-opacity:0.3;stroke:#0000ff;stroke-opacity:0.3;"/>
    <path clip-path="url(#p0bd4d6cea6)" d="M 257.210526 138.906594 
L 257.210526 147.729977 
L 258.972632 144.138674 
L 260.734737 140.705905 
L 262.496842 141.35113 
L 264.258947 153.223883 
L 266.021053 151.869854 
L 266.021053 132.643521 
L 266.021053 132.643521 
L 264.258947 144.718746 
L 262.496842 135.155474 
L 260.734737 134.342537 
L 258.972632 137.614646 
L 257.210526 138.906594 
z
" style="fill:#0000ff;fill-opacity:0.3;stroke:#0000ff;stroke-opacity:0.3;"/>
    <path clip-path="url(#p0bd4d6cea6)" d="M 269.545263 154.434378 
L 269.545263 154.434378 
L 271.307368 154.434378 
L 273.069474 153.86574 
L 274.831579 157.161442 
L 274.831579 145.417688 
L 274.831579 145.417688 
L 273.069474 141.496653 
L 271.307368 154.434378 
L 269.545263 154.434378 
z
" style="fill:#0000ff;fill-opacity:0.3;stroke:#0000ff;stroke-opacity:0.3;"/>
    <path clip-path="url(#p0bd4d6cea6)" d="M 278.355789 154.434378 
L 278.355789 154.434378 
L 280.117895 137.983177 
L 281.88 154.434378 
L 283.642105 154.434378 
L 285.404211 154.434378 
L 287.166316 154.434378 
L 288.928421 151.013499 
L 290.690526 154.434378 
L 292.452632 150.612017 
L 294.214737 154.051223 
L 295.976842 154.434378 
L 297.738947 136.266094 
L 297.738947 136.266094 
L 297.738947 136.266094 
L 295.976842 154.434378 
L 294.214737 149.097723 
L 292.452632 145.60233 
L 290.690526 154.434378 
L 288.928421 134.496034 
L 287.166316 154.434378 
L 285.404211 154.434378 
L 283.642105 154.434378 
L 281.88 154.434378 
L 280.117895 137.983177 
L 278.355789 154.434378 
z
" style="fill:#0000ff;fill-opacity:0.3;stroke:#0000ff;stroke-opacity:0.3;"/>
    <path clip-path="url(#p0bd4d6cea6)" d="M 301.263158 154.434378 
L 301.263158 154.434378 
L 303.025263 169.380301 
L 304.787368 165.627446 
L 306.549474 147.82016 
L 306.549474 147.82016 
L 306.549474 147.82016 
L 304.787368 150.292791 
L 303.025263 156.998693 
L 301.263158 154.434378 
z
" style="fill:#0000ff;fill-opacity:0.3;stroke:#0000ff;stroke-opacity:0.3;"/>
    <path clip-path="url(#p0bd4d6cea6)" d="M 310.073684 143.455179 
L 310.073684 151.309986 
L 311.835789 153.951057 
L 313.597895 157.804724 
L 313.597895 140.247245 
L 313.597895 140.247245 
L 311.835789 144.705621 
L 310.073684 143.455179 
z
" style="fill:#0000ff;fill-opacity:0.3;stroke:#0000ff;stroke-opacity:0.3;"/>
    <path clip-path="url(#p0bd4d6cea6)" d="M 317.122105 155.203548 
L 317.122105 162.048385 
L 318.884211 138.101466 
L 320.646316 154.434378 
L 322.408421 154.434378 
L 322.408421 154.434378 
L 322.408421 154.434378 
L 320.646316 154.434378 
L 318.884211 129.450961 
L 317.122105 155.203548 
z
" style="fill:#0000ff;fill-opacity:0.3;stroke:#0000ff;stroke-opacity:0.3;"/>
    <path clip-path="url(#p0bd4d6cea6)" d="M 325.932632 140.644352 
L 325.932632 145.452628 
L 327.694737 144.769885 
L 329.456842 149.933742 
L 331.218947 151.954655 
L 332.981053 139.006916 
L 334.743158 138.809197 
L 336.505263 154.434378 
L 338.267368 140.377404 
L 340.029474 152.029393 
L 341.791579 145.452014 
L 343.553684 152.610609 
L 345.315789 145.834768 
L 347.077895 155.193249 
L 348.84 143.87507 
L 350.602105 154.434378 
L 350.602105 154.434378 
L 350.602105 154.434378 
L 348.84 136.549924 
L 347.077895 142.221145 
L 345.315789 137.865621 
L 343.553684 147.014528 
L 341.791579 140.796428 
L 340.029474 148.206733 
L 338.267368 135.810337 
L 336.505263 154.434378 
L 334.743158 135.267508 
L 332.981053 136.041581 
L 331.218947 139.981493 
L 329.456842 144.061689 
L 327.694737 139.770947 
L 325.932632 140.644352 
z
" style="fill:#0000ff;fill-opacity:0.3;stroke:#0000ff;stroke-opacity:0.3;"/>
    <path clip-path="url(#p0bd4d6cea6)" d="M 354.126316 154.434378 
L 354.126316 154.434378 
L 355.888421 150.522111 
L 357.650526 152.999395 
L 359.412632 157.711304 
L 361.174737 154.434378 
L 362.936842 116.281505 
L 364.698947 142.549986 
L 366.461053 145.193955 
L 368.223158 152.664154 
L 369.985263 145.73852 
L 371.747368 151.231613 
L 373.509474 149.039905 
L 375.271579 140.22121 
L 377.033684 154.434378 
L 377.033684 154.434378 
L 377.033684 154.434378 
L 375.271579 132.113836 
L 373.509474 140.592573 
L 371.747368 146.352168 
L 369.985263 137.343843 
L 368.223158 147.805028 
L 366.461053 136.271852 
L 364.698947 134.06449 
L 362.936842 25.92 
L 361.174737 154.434378 
L 359.412632 140.624766 
L 357.650526 140.229513 
L 355.888421 141.804656 
L 354.126316 154.434378 
z
" style="fill:#0000ff;fill-opacity:0.3;stroke:#0000ff;stroke-opacity:0.3;"/>
    <path clip-path="url(#p0bd4d6cea6)" d="M 380.557895 154.434378 
L 380.557895 154.434378 
L 382.32 154.434378 
L 384.082105 154.434378 
L 385.844211 154.230058 
L 387.606316 154.036667 
L 389.368421 167.909233 
L 391.130526 154.434378 
L 391.130526 154.434378 
L 391.130526 154.434378 
L 389.368421 156.746297 
L 387.606316 147.297744 
L 385.844211 149.129946 
L 384.082105 154.434378 
L 382.32 154.434378 
L 380.557895 154.434378 
z
" style="fill:#0000ff;fill-opacity:0.3;stroke:#0000ff;stroke-opacity:0.3;"/>
    <path clip-path="url(#p0bd4d6cea6)" d="M 394.654737 154.434378 
L 394.654737 154.434378 
L 396.416842 152.769323 
L 398.178947 154.434378 
L 398.178947 154.434378 
L 398.178947 154.434378 
L 396.416842 149.404 
L 394.654737 154.434378 
z
" style="fill:#0000ff;fill-opacity:0.3;stroke:#0000ff;stroke-opacity:0.3;"/>
    <path clip-path="url(#p0bd4d6cea6)" d="M 401.703158 108.99912 
L 401.703158 137.593959 
L 403.465263 151.580265 
L 405.227368 154.434378 
L 406.989474 154.434378 
L 408.751579 159.472333 
L 410.513684 155.047147 
L 412.275789 153.855016 
L 414.037895 156.162657 
L 414.037895 154.558462 
L 414.037895 154.558462 
L 412.275789 146.364913 
L 410.513684 154.468526 
L 408.751579 146.952241 
L 406.989474 154.434378 
L 405.227368 154.434378 
L 403.465263 144.74183 
L 401.703158 108.99912 
z
" style="fill:#0000ff;fill-opacity:0.3;stroke:#0000ff;stroke-opacity:0.3;"/>
    <path clip-path="url(#p0bd4d6cea6)" d="M 417.562105 154.434378 
L 417.562105 154.434378 
L 417.562105 154.434378 
L 417.562105 154.434378 
z
" style="fill:#0000ff;fill-opacity:0.3;stroke:#0000ff;stroke-opacity:0.3;"/>
    <path clip-path="url(#p0bd4d6cea6)" d="M 421.086316 154.434378 
L 421.086316 154.434378 
L 422.848421 154.434378 
L 422.848421 154.434378 
L 422.848421 154.434378 
L 421.086316 154.434378 
z
" style="fill:#0000ff;fill-opacity:0.3;stroke:#0000ff;stroke-opacity:0.3;"/>
    <path clip-path="url(#p0bd4d6cea6)" d="M 429.896842 136.546888 
L 429.896842 143.500086 
L 431.658947 141.364533 
L 433.421053 134.997067 
L 435.183158 134.335423 
L 436.945263 142.637773 
L 438.707368 139.670408 
L 440.469474 134.976253 
L 442.231579 135.226369 
L 443.993684 136.40258 
L 445.755789 135.554311 
L 447.517895 134.379904 
L 449.28 140.757631 
L 451.042105 134.775204 
L 452.804211 154.434378 
L 454.566316 150.329002 
L 456.328421 152.797629 
L 458.090526 139.291363 
L 459.852632 134.528286 
L 461.614737 143.398082 
L 463.376842 149.707445 
L 465.138947 135.781533 
L 466.901053 136.622614 
L 468.663158 136.239941 
L 470.425263 136.715861 
L 472.187368 141.260095 
L 473.949474 135.372339 
L 475.711579 136.210321 
L 477.473684 137.294797 
L 479.235789 148.86113 
L 480.997895 135.336594 
L 482.76 135.919861 
L 484.522105 137.479821 
L 486.284211 138.868425 
L 488.046316 141.468156 
L 489.808421 145.122241 
L 491.570526 151.166459 
L 493.332632 150.424964 
L 495.094737 149.04201 
L 496.856842 150.832933 
L 498.618947 153.799071 
L 500.381053 153.005545 
L 502.143158 154.434378 
L 503.905263 147.841654 
L 505.667368 139.732455 
L 507.429474 137.571902 
L 509.191579 149.258182 
L 510.953684 148.45796 
L 512.715789 138.235963 
L 514.477895 140.425898 
L 514.477895 135.495412 
L 514.477895 135.495412 
L 512.715789 136.852117 
L 510.953684 143.637847 
L 509.191579 142.688258 
L 507.429474 135.348348 
L 505.667368 137.163927 
L 503.905263 133.951832 
L 502.143158 154.434378 
L 500.381053 140.290395 
L 498.618947 150.731542 
L 496.856842 141.324861 
L 495.094737 143.662242 
L 493.332632 143.277679 
L 491.570526 144.600958 
L 489.808421 135.870764 
L 488.046316 102.073463 
L 486.284211 136.451205 
L 484.522105 132.294022 
L 482.76 133.839561 
L 480.997895 132.230128 
L 479.235789 142.654336 
L 477.473684 131.303456 
L 475.711579 134.316789 
L 473.949474 132.277276 
L 472.187368 134.936688 
L 470.425263 134.637738 
L 468.663158 134.694027 
L 466.901053 134.678363 
L 465.138947 131.845606 
L 463.376842 139.615962 
L 461.614737 140.640565 
L 459.852632 132.158065 
L 458.090526 138.25381 
L 456.328421 147.061443 
L 454.566316 139.197425 
L 452.804211 154.434378 
L 451.042105 126.479196 
L 449.28 135.694302 
L 447.517895 132.034674 
L 445.755789 131.934181 
L 443.993684 133.967188 
L 442.231579 133.397102 
L 440.469474 133.430531 
L 438.707368 138.026652 
L 436.945263 139.721989 
L 435.183158 132.377371 
L 433.421053 133.373731 
L 431.658947 137.675711 
L 429.896842 136.546888 
z
" style="fill:#0000ff;fill-opacity:0.3;stroke:#0000ff;stroke-opacity:0.3;"/>
    <path clip-path="url(#p0bd4d6cea6)" d="M 518.002105 139.773874 
L 518.002105 151.796874 
L 519.764211 143.86204 
L 521.526316 146.300763 
L 523.288421 142.037337 
L 525.050526 192.24 
L 526.812632 174.897414 
L 528.574737 152.491854 
L 530.336842 147.909711 
L 532.098947 136.257273 
L 533.861053 140.014772 
L 535.623158 138.14619 
L 537.385263 150.836468 
L 539.147368 147.8757 
L 540.909474 149.467964 
L 542.671579 143.761397 
L 542.671579 133.257616 
L 542.671579 133.257616 
L 540.909474 127.621181 
L 539.147368 121.858851 
L 537.385263 140.118495 
L 535.623158 130.109729 
L 533.861053 135.138436 
L 532.098947 130.08114 
L 530.336842 142.265387 
L 528.574737 135.205378 
L 526.812632 157.94528 
L 525.050526 158.252545 
L 523.288421 134.67493 
L 521.526316 134.578246 
L 519.764211 132.769819 
L 518.002105 139.773874 
z
" style="fill:#0000ff;fill-opacity:0.3;stroke:#0000ff;stroke-opacity:0.3;"/>
    <path clip-path="url(#p0bd4d6cea6)" d="M 546.195789 154.434378 
L 546.195789 154.434378 
L 547.957895 149.390229 
L 549.72 158.159334 
L 551.482105 154.434378 
L 553.244211 154.277351 
L 555.006316 146.932951 
L 556.768421 149.472447 
L 558.530526 149.981963 
L 560.292632 154.248596 
L 562.054737 150.971324 
L 563.816842 143.785016 
L 565.578947 152.682704 
L 567.341053 154.434378 
L 569.103158 153.560043 
L 570.865263 156.005766 
L 572.627368 150.170594 
L 574.389474 153.419887 
L 574.389474 144.391952 
L 574.389474 144.391952 
L 572.627368 141.775672 
L 570.865263 135.7987 
L 569.103158 145.779361 
L 567.341053 154.434378 
L 565.578947 130.03671 
L 563.816842 143.785016 
L 562.054737 142.946992 
L 560.292632 151.100656 
L 558.530526 144.607768 
L 556.768421 137.200995 
L 555.006316 139.511527 
L 553.244211 150.98694 
L 551.482105 154.434378 
L 549.72 149.040157 
L 547.957895 135.207068 
L 546.195789 154.434378 
z
" style="fill:#0000ff;fill-opacity:0.3;stroke:#0000ff;stroke-opacity:0.3;"/>
    <path clip-path="url(#p0bd4d6cea6)" d="M 577.913684 119.770046 
L 577.913684 119.770046 
L 579.675789 151.968329 
L 581.437895 154.434378 
L 581.437895 154.434378 
L 581.437895 154.434378 
L 579.675789 136.394346 
L 577.913684 119.770046 
z
" style="fill:#0000ff;fill-opacity:0.3;stroke:#0000ff;stroke-opacity:0.3;"/>
   </g>
   <g id="matplotlib.axis_1">
    <g id="xtick_1">
     <g id="line2d_1">
      <defs>
       <path d="M 0 0 
L 0 3.5 
" id="m3ebbbbf5d9" style="stroke:#000000;stroke-width:0.8;"/>
      </defs>
      <g>
       <use style="stroke:#000000;stroke-width:0.8;" x="156.33" xlink:href="#m3ebbbbf5d9" y="192.24"/>
      </g>
     </g>
     <g id="text_1">
      <!-- 0.0 -->
      <defs>
       <path d="M 31.78125 66.40625 
Q 24.171875 66.40625 20.328125 58.90625 
Q 16.5 51.421875 16.5 36.375 
Q 16.5 21.390625 20.328125 13.890625 
Q 24.171875 6.390625 31.78125 6.390625 
Q 39.453125 6.390625 43.28125 13.890625 
Q 47.125 21.390625 47.125 36.375 
Q 47.125 51.421875 43.28125 58.90625 
Q 39.453125 66.40625 31.78125 66.40625 
z
M 31.78125 74.21875 
Q 44.046875 74.21875 50.515625 64.515625 
Q 56.984375 54.828125 56.984375 36.375 
Q 56.984375 17.96875 50.515625 8.265625 
Q 44.046875 -1.421875 31.78125 -1.421875 
Q 19.53125 -1.421875 13.0625 8.265625 
Q 6.59375 17.96875 6.59375 36.375 
Q 6.59375 54.828125 13.0625 64.515625 
Q 19.53125 74.21875 31.78125 74.21875 
z
" id="DejaVuSans-48"/>
       <path d="M 10.6875 12.40625 
L 21 12.40625 
L 21 0 
L 10.6875 0 
z
" id="DejaVuSans-46"/>
      </defs>
      <g transform="translate(146.788125 208.358125)scale(0.12 -0.12)">
       <use xlink:href="#DejaVuSans-48"/>
       <use x="63.623047" xlink:href="#DejaVuSans-46"/>
       <use x="95.410156" xlink:href="#DejaVuSans-48"/>
      </g>
     </g>
    </g>
    <g id="xtick_2">
     <g id="line2d_2">
      <g>
       <use style="stroke:#000000;stroke-width:0.8;" x="244.435263" xlink:href="#m3ebbbbf5d9" y="192.24"/>
      </g>
     </g>
     <g id="text_2">
      <!-- 0.5 -->
      <defs>
       <path d="M 10.796875 72.90625 
L 49.515625 72.90625 
L 49.515625 64.59375 
L 19.828125 64.59375 
L 19.828125 46.734375 
Q 21.96875 47.46875 24.109375 47.828125 
Q 26.265625 48.1875 28.421875 48.1875 
Q 40.625 48.1875 47.75 41.5 
Q 54.890625 34.8125 54.890625 23.390625 
Q 54.890625 11.625 47.5625 5.09375 
Q 40.234375 -1.421875 26.90625 -1.421875 
Q 22.3125 -1.421875 17.546875 -0.640625 
Q 12.796875 0.140625 7.71875 1.703125 
L 7.71875 11.625 
Q 12.109375 9.234375 16.796875 8.0625 
Q 21.484375 6.890625 26.703125 6.890625 
Q 35.15625 6.890625 40.078125 11.328125 
Q 45.015625 15.765625 45.015625 23.390625 
Q 45.015625 31 40.078125 35.4375 
Q 35.15625 39.890625 26.703125 39.890625 
Q 22.75 39.890625 18.8125 39.015625 
Q 14.890625 38.140625 10.796875 36.28125 
z
" id="DejaVuSans-53"/>
      </defs>
      <g transform="translate(234.893388 208.358125)scale(0.12 -0.12)">
       <use xlink:href="#DejaVuSans-48"/>
       <use x="63.623047" xlink:href="#DejaVuSans-46"/>
       <use x="95.410156" xlink:href="#DejaVuSans-53"/>
      </g>
     </g>
    </g>
    <g id="xtick_3">
     <g id="line2d_3">
      <g>
       <use style="stroke:#000000;stroke-width:0.8;" x="332.540526" xlink:href="#m3ebbbbf5d9" y="192.24"/>
      </g>
     </g>
     <g id="text_3">
      <!-- 1.0 -->
      <defs>
       <path d="M 12.40625 8.296875 
L 28.515625 8.296875 
L 28.515625 63.921875 
L 10.984375 60.40625 
L 10.984375 69.390625 
L 28.421875 72.90625 
L 38.28125 72.90625 
L 38.28125 8.296875 
L 54.390625 8.296875 
L 54.390625 0 
L 12.40625 0 
z
" id="DejaVuSans-49"/>
      </defs>
      <g transform="translate(322.998651 208.358125)scale(0.12 -0.12)">
       <use xlink:href="#DejaVuSans-49"/>
       <use x="63.623047" xlink:href="#DejaVuSans-46"/>
       <use x="95.410156" xlink:href="#DejaVuSans-48"/>
      </g>
     </g>
    </g>
    <g id="xtick_4">
     <g id="line2d_4">
      <g>
       <use style="stroke:#000000;stroke-width:0.8;" x="420.645789" xlink:href="#m3ebbbbf5d9" y="192.24"/>
      </g>
     </g>
     <g id="text_4">
      <!-- 1.5 -->
      <g transform="translate(411.103914 208.358125)scale(0.12 -0.12)">
       <use xlink:href="#DejaVuSans-49"/>
       <use x="63.623047" xlink:href="#DejaVuSans-46"/>
       <use x="95.410156" xlink:href="#DejaVuSans-53"/>
      </g>
     </g>
    </g>
    <g id="xtick_5">
     <g id="line2d_5">
      <g>
       <use style="stroke:#000000;stroke-width:0.8;" x="508.751053" xlink:href="#m3ebbbbf5d9" y="192.24"/>
      </g>
     </g>
     <g id="text_5">
      <!-- 2.0 -->
      <defs>
       <path d="M 19.1875 8.296875 
L 53.609375 8.296875 
L 53.609375 0 
L 7.328125 0 
L 7.328125 8.296875 
Q 12.9375 14.109375 22.625 23.890625 
Q 32.328125 33.6875 34.8125 36.53125 
Q 39.546875 41.84375 41.421875 45.53125 
Q 43.3125 49.21875 43.3125 52.78125 
Q 43.3125 58.59375 39.234375 62.25 
Q 35.15625 65.921875 28.609375 65.921875 
Q 23.96875 65.921875 18.8125 64.3125 
Q 13.671875 62.703125 7.8125 59.421875 
L 7.8125 69.390625 
Q 13.765625 71.78125 18.9375 73 
Q 24.125 74.21875 28.421875 74.21875 
Q 39.75 74.21875 46.484375 68.546875 
Q 53.21875 62.890625 53.21875 53.421875 
Q 53.21875 48.921875 51.53125 44.890625 
Q 49.859375 40.875 45.40625 35.40625 
Q 44.1875 33.984375 37.640625 27.21875 
Q 31.109375 20.453125 19.1875 8.296875 
z
" id="DejaVuSans-50"/>
      </defs>
      <g transform="translate(499.209178 208.358125)scale(0.12 -0.12)">
       <use xlink:href="#DejaVuSans-50"/>
       <use x="63.623047" xlink:href="#DejaVuSans-46"/>
       <use x="95.410156" xlink:href="#DejaVuSans-48"/>
      </g>
     </g>
    </g>
    <g id="text_6">
     <!-- Time (s) -->
     <defs>
      <path d="M -0.296875 72.90625 
L 61.375 72.90625 
L 61.375 64.59375 
L 35.5 64.59375 
L 35.5 0 
L 25.59375 0 
L 25.59375 64.59375 
L -0.296875 64.59375 
z
" id="DejaVuSans-84"/>
      <path d="M 9.421875 54.6875 
L 18.40625 54.6875 
L 18.40625 0 
L 9.421875 0 
z
M 9.421875 75.984375 
L 18.40625 75.984375 
L 18.40625 64.59375 
L 9.421875 64.59375 
z
" id="DejaVuSans-105"/>
      <path d="M 52 44.1875 
Q 55.375 50.25 60.0625 53.125 
Q 64.75 56 71.09375 56 
Q 79.640625 56 84.28125 50.015625 
Q 88.921875 44.046875 88.921875 33.015625 
L 88.921875 0 
L 79.890625 0 
L 79.890625 32.71875 
Q 79.890625 40.578125 77.09375 44.375 
Q 74.3125 48.1875 68.609375 48.1875 
Q 61.625 48.1875 57.5625 43.546875 
Q 53.515625 38.921875 53.515625 30.90625 
L 53.515625 0 
L 44.484375 0 
L 44.484375 32.71875 
Q 44.484375 40.625 41.703125 44.40625 
Q 38.921875 48.1875 33.109375 48.1875 
Q 26.21875 48.1875 22.15625 43.53125 
Q 18.109375 38.875 18.109375 30.90625 
L 18.109375 0 
L 9.078125 0 
L 9.078125 54.6875 
L 18.109375 54.6875 
L 18.109375 46.1875 
Q 21.1875 51.21875 25.484375 53.609375 
Q 29.78125 56 35.6875 56 
Q 41.65625 56 45.828125 52.96875 
Q 50 49.953125 52 44.1875 
z
" id="DejaVuSans-109"/>
      <path d="M 56.203125 29.59375 
L 56.203125 25.203125 
L 14.890625 25.203125 
Q 15.484375 15.921875 20.484375 11.0625 
Q 25.484375 6.203125 34.421875 6.203125 
Q 39.59375 6.203125 44.453125 7.46875 
Q 49.3125 8.734375 54.109375 11.28125 
L 54.109375 2.78125 
Q 49.265625 0.734375 44.1875 -0.34375 
Q 39.109375 -1.421875 33.890625 -1.421875 
Q 20.796875 -1.421875 13.15625 6.1875 
Q 5.515625 13.8125 5.515625 26.8125 
Q 5.515625 40.234375 12.765625 48.109375 
Q 20.015625 56 32.328125 56 
Q 43.359375 56 49.78125 48.890625 
Q 56.203125 41.796875 56.203125 29.59375 
z
M 47.21875 32.234375 
Q 47.125 39.59375 43.09375 43.984375 
Q 39.0625 48.390625 32.421875 48.390625 
Q 24.90625 48.390625 20.390625 44.140625 
Q 15.875 39.890625 15.1875 32.171875 
z
" id="DejaVuSans-101"/>
      <path id="DejaVuSans-32"/>
      <path d="M 31 75.875 
Q 24.46875 64.65625 21.28125 53.65625 
Q 18.109375 42.671875 18.109375 31.390625 
Q 18.109375 20.125 21.3125 9.0625 
Q 24.515625 -2 31 -13.1875 
L 23.1875 -13.1875 
Q 15.875 -1.703125 12.234375 9.375 
Q 8.59375 20.453125 8.59375 31.390625 
Q 8.59375 42.28125 12.203125 53.3125 
Q 15.828125 64.359375 23.1875 75.875 
z
" id="DejaVuSans-40"/>
      <path d="M 44.28125 53.078125 
L 44.28125 44.578125 
Q 40.484375 46.53125 36.375 47.5 
Q 32.28125 48.484375 27.875 48.484375 
Q 21.1875 48.484375 17.84375 46.4375 
Q 14.5 44.390625 14.5 40.28125 
Q 14.5 37.15625 16.890625 35.375 
Q 19.28125 33.59375 26.515625 31.984375 
L 29.59375 31.296875 
Q 39.15625 29.25 43.1875 25.515625 
Q 47.21875 21.78125 47.21875 15.09375 
Q 47.21875 7.46875 41.1875 3.015625 
Q 35.15625 -1.421875 24.609375 -1.421875 
Q 20.21875 -1.421875 15.453125 -0.5625 
Q 10.6875 0.296875 5.421875 2 
L 5.421875 11.28125 
Q 10.40625 8.6875 15.234375 7.390625 
Q 20.0625 6.109375 24.8125 6.109375 
Q 31.15625 6.109375 34.5625 8.28125 
Q 37.984375 10.453125 37.984375 14.40625 
Q 37.984375 18.0625 35.515625 20.015625 
Q 33.0625 21.96875 24.703125 23.78125 
L 21.578125 24.515625 
Q 13.234375 26.265625 9.515625 29.90625 
Q 5.8125 33.546875 5.8125 39.890625 
Q 5.8125 47.609375 11.28125 51.796875 
Q 16.75 56 26.8125 56 
Q 31.78125 56 36.171875 55.265625 
Q 40.578125 54.546875 44.28125 53.078125 
z
" id="DejaVuSans-115"/>
      <path d="M 8.015625 75.875 
L 15.828125 75.875 
Q 23.140625 64.359375 26.78125 53.3125 
Q 30.421875 42.28125 30.421875 31.390625 
Q 30.421875 20.453125 26.78125 9.375 
Q 23.140625 -1.703125 15.828125 -13.1875 
L 8.015625 -13.1875 
Q 14.5 -2 17.703125 9.0625 
Q 20.90625 20.125 20.90625 31.390625 
Q 20.90625 42.671875 17.703125 53.65625 
Q 14.5 64.65625 8.015625 75.875 
z
" id="DejaVuSans-41"/>
     </defs>
     <g transform="translate(302.60475 225.7955)scale(0.144 -0.144)">
      <use xlink:href="#DejaVuSans-84"/>
      <use x="61.037109" xlink:href="#DejaVuSans-105"/>
      <use x="88.820312" xlink:href="#DejaVuSans-109"/>
      <use x="186.232422" xlink:href="#DejaVuSans-101"/>
      <use x="247.755859" xlink:href="#DejaVuSans-32"/>
      <use x="279.542969" xlink:href="#DejaVuSans-40"/>
      <use x="318.556641" xlink:href="#DejaVuSans-115"/>
      <use x="370.65625" xlink:href="#DejaVuSans-41"/>
     </g>
    </g>
   </g>
   <g id="matplotlib.axis_2">
    <g id="ytick_1">
     <g id="line2d_6">
      <defs>
       <path d="M 0 0 
L -3.5 0 
" id="mbcb90faa34" style="stroke:#000000;stroke-width:0.8;"/>
      </defs>
      <g>
       <use style="stroke:#000000;stroke-width:0.8;" x="81" xlink:href="#mbcb90faa34" y="176.070857"/>
      </g>
     </g>
     <g id="text_7">
      <!-- −0.050 -->
      <defs>
       <path d="M 10.59375 35.5 
L 73.1875 35.5 
L 73.1875 27.203125 
L 10.59375 27.203125 
z
" id="DejaVuSans-8722"/>
      </defs>
      <g transform="translate(29.590625 180.62992)scale(0.12 -0.12)">
       <use xlink:href="#DejaVuSans-8722"/>
       <use x="83.789062" xlink:href="#DejaVuSans-48"/>
       <use x="147.412109" xlink:href="#DejaVuSans-46"/>
       <use x="179.199219" xlink:href="#DejaVuSans-48"/>
       <use x="242.822266" xlink:href="#DejaVuSans-53"/>
       <use x="306.445312" xlink:href="#DejaVuSans-48"/>
      </g>
     </g>
    </g>
    <g id="ytick_2">
     <g id="line2d_7">
      <g>
       <use style="stroke:#000000;stroke-width:0.8;" x="81" xlink:href="#mbcb90faa34" y="153.864996"/>
      </g>
     </g>
     <g id="text_8">
      <!-- −0.025 -->
      <g transform="translate(29.590625 158.424059)scale(0.12 -0.12)">
       <use xlink:href="#DejaVuSans-8722"/>
       <use x="83.789062" xlink:href="#DejaVuSans-48"/>
       <use x="147.412109" xlink:href="#DejaVuSans-46"/>
       <use x="179.199219" xlink:href="#DejaVuSans-48"/>
       <use x="242.822266" xlink:href="#DejaVuSans-50"/>
       <use x="306.445312" xlink:href="#DejaVuSans-53"/>
      </g>
     </g>
    </g>
    <g id="ytick_3">
     <g id="line2d_8">
      <g>
       <use style="stroke:#000000;stroke-width:0.8;" x="81" xlink:href="#mbcb90faa34" y="131.659136"/>
      </g>
     </g>
     <g id="text_9">
      <!-- 0.000 -->
      <g transform="translate(39.64625 136.218198)scale(0.12 -0.12)">
       <use xlink:href="#DejaVuSans-48"/>
       <use x="63.623047" xlink:href="#DejaVuSans-46"/>
       <use x="95.410156" xlink:href="#DejaVuSans-48"/>
       <use x="159.033203" xlink:href="#DejaVuSans-48"/>
       <use x="222.65625" xlink:href="#DejaVuSans-48"/>
      </g>
     </g>
    </g>
    <g id="ytick_4">
     <g id="line2d_9">
      <g>
       <use style="stroke:#000000;stroke-width:0.8;" x="81" xlink:href="#mbcb90faa34" y="109.453275"/>
      </g>
     </g>
     <g id="text_10">
      <!-- 0.025 -->
      <g transform="translate(39.64625 114.012338)scale(0.12 -0.12)">
       <use xlink:href="#DejaVuSans-48"/>
       <use x="63.623047" xlink:href="#DejaVuSans-46"/>
       <use x="95.410156" xlink:href="#DejaVuSans-48"/>
       <use x="159.033203" xlink:href="#DejaVuSans-50"/>
       <use x="222.65625" xlink:href="#DejaVuSans-53"/>
      </g>
     </g>
    </g>
    <g id="ytick_5">
     <g id="line2d_10">
      <g>
       <use style="stroke:#000000;stroke-width:0.8;" x="81" xlink:href="#mbcb90faa34" y="87.247415"/>
      </g>
     </g>
     <g id="text_11">
      <!-- 0.050 -->
      <g transform="translate(39.64625 91.806477)scale(0.12 -0.12)">
       <use xlink:href="#DejaVuSans-48"/>
       <use x="63.623047" xlink:href="#DejaVuSans-46"/>
       <use x="95.410156" xlink:href="#DejaVuSans-48"/>
       <use x="159.033203" xlink:href="#DejaVuSans-53"/>
       <use x="222.65625" xlink:href="#DejaVuSans-48"/>
      </g>
     </g>
    </g>
    <g id="ytick_6">
     <g id="line2d_11">
      <g>
       <use style="stroke:#000000;stroke-width:0.8;" x="81" xlink:href="#mbcb90faa34" y="65.041554"/>
      </g>
     </g>
     <g id="text_12">
      <!-- 0.075 -->
      <defs>
       <path d="M 8.203125 72.90625 
L 55.078125 72.90625 
L 55.078125 68.703125 
L 28.609375 0 
L 18.3125 0 
L 43.21875 64.59375 
L 8.203125 64.59375 
z
" id="DejaVuSans-55"/>
      </defs>
      <g transform="translate(39.64625 69.600617)scale(0.12 -0.12)">
       <use xlink:href="#DejaVuSans-48"/>
       <use x="63.623047" xlink:href="#DejaVuSans-46"/>
       <use x="95.410156" xlink:href="#DejaVuSans-48"/>
       <use x="159.033203" xlink:href="#DejaVuSans-55"/>
       <use x="222.65625" xlink:href="#DejaVuSans-53"/>
      </g>
     </g>
    </g>
    <g id="ytick_7">
     <g id="line2d_12">
      <g>
       <use style="stroke:#000000;stroke-width:0.8;" x="81" xlink:href="#mbcb90faa34" y="42.835693"/>
      </g>
     </g>
     <g id="text_13">
      <!-- 0.100 -->
      <g transform="translate(39.64625 47.394756)scale(0.12 -0.12)">
       <use xlink:href="#DejaVuSans-48"/>
       <use x="63.623047" xlink:href="#DejaVuSans-46"/>
       <use x="95.410156" xlink:href="#DejaVuSans-49"/>
       <use x="159.033203" xlink:href="#DejaVuSans-48"/>
       <use x="222.65625" xlink:href="#DejaVuSans-48"/>
      </g>
     </g>
    </g>
    <g id="text_14">
     <!-- Avg. Corr. Coef. -->
     <defs>
      <path d="M 34.1875 63.1875 
L 20.796875 26.90625 
L 47.609375 26.90625 
z
M 28.609375 72.90625 
L 39.796875 72.90625 
L 67.578125 0 
L 57.328125 0 
L 50.6875 18.703125 
L 17.828125 18.703125 
L 11.1875 0 
L 0.78125 0 
z
" id="DejaVuSans-65"/>
      <path d="M 2.984375 54.6875 
L 12.5 54.6875 
L 29.59375 8.796875 
L 46.6875 54.6875 
L 56.203125 54.6875 
L 35.6875 0 
L 23.484375 0 
z
" id="DejaVuSans-118"/>
      <path d="M 45.40625 27.984375 
Q 45.40625 37.75 41.375 43.109375 
Q 37.359375 48.484375 30.078125 48.484375 
Q 22.859375 48.484375 18.828125 43.109375 
Q 14.796875 37.75 14.796875 27.984375 
Q 14.796875 18.265625 18.828125 12.890625 
Q 22.859375 7.515625 30.078125 7.515625 
Q 37.359375 7.515625 41.375 12.890625 
Q 45.40625 18.265625 45.40625 27.984375 
z
M 54.390625 6.78125 
Q 54.390625 -7.171875 48.1875 -13.984375 
Q 42 -20.796875 29.203125 -20.796875 
Q 24.46875 -20.796875 20.265625 -20.09375 
Q 16.0625 -19.390625 12.109375 -17.921875 
L 12.109375 -9.1875 
Q 16.0625 -11.328125 19.921875 -12.34375 
Q 23.78125 -13.375 27.78125 -13.375 
Q 36.625 -13.375 41.015625 -8.765625 
Q 45.40625 -4.15625 45.40625 5.171875 
L 45.40625 9.625 
Q 42.625 4.78125 38.28125 2.390625 
Q 33.9375 0 27.875 0 
Q 17.828125 0 11.671875 7.65625 
Q 5.515625 15.328125 5.515625 27.984375 
Q 5.515625 40.671875 11.671875 48.328125 
Q 17.828125 56 27.875 56 
Q 33.9375 56 38.28125 53.609375 
Q 42.625 51.21875 45.40625 46.390625 
L 45.40625 54.6875 
L 54.390625 54.6875 
z
" id="DejaVuSans-103"/>
      <path d="M 64.40625 67.28125 
L 64.40625 56.890625 
Q 59.421875 61.53125 53.78125 63.8125 
Q 48.140625 66.109375 41.796875 66.109375 
Q 29.296875 66.109375 22.65625 58.46875 
Q 16.015625 50.828125 16.015625 36.375 
Q 16.015625 21.96875 22.65625 14.328125 
Q 29.296875 6.6875 41.796875 6.6875 
Q 48.140625 6.6875 53.78125 8.984375 
Q 59.421875 11.28125 64.40625 15.921875 
L 64.40625 5.609375 
Q 59.234375 2.09375 53.4375 0.328125 
Q 47.65625 -1.421875 41.21875 -1.421875 
Q 24.65625 -1.421875 15.125 8.703125 
Q 5.609375 18.84375 5.609375 36.375 
Q 5.609375 53.953125 15.125 64.078125 
Q 24.65625 74.21875 41.21875 74.21875 
Q 47.75 74.21875 53.53125 72.484375 
Q 59.328125 70.75 64.40625 67.28125 
z
" id="DejaVuSans-67"/>
      <path d="M 30.609375 48.390625 
Q 23.390625 48.390625 19.1875 42.75 
Q 14.984375 37.109375 14.984375 27.296875 
Q 14.984375 17.484375 19.15625 11.84375 
Q 23.34375 6.203125 30.609375 6.203125 
Q 37.796875 6.203125 41.984375 11.859375 
Q 46.1875 17.53125 46.1875 27.296875 
Q 46.1875 37.015625 41.984375 42.703125 
Q 37.796875 48.390625 30.609375 48.390625 
z
M 30.609375 56 
Q 42.328125 56 49.015625 48.375 
Q 55.71875 40.765625 55.71875 27.296875 
Q 55.71875 13.875 49.015625 6.21875 
Q 42.328125 -1.421875 30.609375 -1.421875 
Q 18.84375 -1.421875 12.171875 6.21875 
Q 5.515625 13.875 5.515625 27.296875 
Q 5.515625 40.765625 12.171875 48.375 
Q 18.84375 56 30.609375 56 
z
" id="DejaVuSans-111"/>
      <path d="M 41.109375 46.296875 
Q 39.59375 47.171875 37.8125 47.578125 
Q 36.03125 48 33.890625 48 
Q 26.265625 48 22.1875 43.046875 
Q 18.109375 38.09375 18.109375 28.8125 
L 18.109375 0 
L 9.078125 0 
L 9.078125 54.6875 
L 18.109375 54.6875 
L 18.109375 46.1875 
Q 20.953125 51.171875 25.484375 53.578125 
Q 30.03125 56 36.53125 56 
Q 37.453125 56 38.578125 55.875 
Q 39.703125 55.765625 41.0625 55.515625 
z
" id="DejaVuSans-114"/>
      <path d="M 37.109375 75.984375 
L 37.109375 68.5 
L 28.515625 68.5 
Q 23.6875 68.5 21.796875 66.546875 
Q 19.921875 64.59375 19.921875 59.515625 
L 19.921875 54.6875 
L 34.71875 54.6875 
L 34.71875 47.703125 
L 19.921875 47.703125 
L 19.921875 0 
L 10.890625 0 
L 10.890625 47.703125 
L 2.296875 47.703125 
L 2.296875 54.6875 
L 10.890625 54.6875 
L 10.890625 58.5 
Q 10.890625 67.625 15.140625 71.796875 
Q 19.390625 75.984375 28.609375 75.984375 
z
" id="DejaVuSans-102"/>
     </defs>
     <g transform="translate(22.595875 166.005)rotate(-90)scale(0.144 -0.144)">
      <use xlink:href="#DejaVuSans-65"/>
      <use x="68.330078" xlink:href="#DejaVuSans-118"/>
      <use x="127.509766" xlink:href="#DejaVuSans-103"/>
      <use x="190.986328" xlink:href="#DejaVuSans-46"/>
      <use x="222.773438" xlink:href="#DejaVuSans-32"/>
      <use x="254.560547" xlink:href="#DejaVuSans-67"/>
      <use x="324.384766" xlink:href="#DejaVuSans-111"/>
      <use x="385.566406" xlink:href="#DejaVuSans-114"/>
      <use x="426.664062" xlink:href="#DejaVuSans-114"/>
      <use x="467.636719" xlink:href="#DejaVuSans-46"/>
      <use x="499.423828" xlink:href="#DejaVuSans-32"/>
      <use x="531.210938" xlink:href="#DejaVuSans-67"/>
      <use x="601.035156" xlink:href="#DejaVuSans-111"/>
      <use x="662.216797" xlink:href="#DejaVuSans-101"/>
      <use x="723.740234" xlink:href="#DejaVuSans-102"/>
      <use x="758.835938" xlink:href="#DejaVuSans-46"/>
     </g>
    </g>
   </g>
   <g id="line2d_13">
    <path clip-path="url(#p0bd4d6cea6)" d="M 82.762105 134.443032 
L 84.524211 145.695155 
L 86.286316 142.840046 
L 88.048421 147.158655 
L 91.572632 154.434378 
L 93.334737 154.434378 
M 98.621053 154.434378 
L 100.383158 143.023893 
L 102.145263 144.060541 
L 103.907368 141.605538 
L 105.669474 145.979425 
L 107.431579 147.084523 
M 114.48 154.434378 
L 116.242105 143.685527 
M 119.766316 157.490209 
L 121.528421 143.631891 
L 123.290526 154.434378 
M 126.814737 148.001858 
L 128.576842 144.363546 
L 130.338947 145.116305 
L 132.101053 149.187349 
L 133.863158 144.981686 
L 135.625263 142.336953 
L 137.387368 139.399323 
L 139.149474 142.98522 
L 140.911579 154.434378 
L 142.673684 154.434378 
L 144.435789 148.225142 
L 146.197895 154.434378 
M 156.770526 154.434378 
L 158.532632 139.106857 
L 160.294737 130.940279 
L 162.056842 130.302517 
M 169.105263 154.434378 
L 170.867368 149.783577 
L 172.629474 145.751924 
L 174.391579 152.211812 
M 177.915789 136.10364 
L 179.677895 133.693806 
L 181.44 146.129173 
L 183.202105 154.434378 
L 184.964211 154.434378 
L 186.726316 125.903356 
L 188.488421 132.034832 
M 193.774737 166.915426 
L 195.536842 146.64797 
L 197.298947 154.434378 
L 199.061053 154.434378 
L 200.823158 140.726023 
L 202.585263 142.901037 
L 204.347368 143.547619 
L 206.109474 144.412554 
L 207.871579 131.803252 
L 209.633684 141.193693 
L 211.395789 143.326682 
L 213.157895 139.893598 
L 214.92 145.298688 
L 216.682105 143.631891 
L 218.444211 155.166601 
L 220.206316 154.434378 
L 221.968421 146.107348 
L 223.730526 154.434378 
L 225.492632 147.713098 
L 227.254737 144.827031 
L 229.016842 140.065065 
L 230.778947 146.995517 
L 232.541053 154.434378 
L 234.303158 154.434378 
L 236.065263 144.030617 
L 237.827368 154.434378 
M 241.351579 154.434378 
L 244.875789 154.434378 
L 246.637895 154.643062 
L 248.4 145.989035 
L 250.162105 138.510841 
L 251.924211 146.848738 
L 253.686316 140.346775 
M 257.210526 143.318286 
L 258.972632 140.87666 
L 260.734737 137.524221 
L 262.496842 138.253302 
L 264.258947 148.971314 
L 266.021053 142.256688 
M 269.545263 154.434378 
L 271.307368 154.434378 
L 273.069474 147.681196 
L 274.831579 151.289565 
M 278.355789 154.434378 
L 280.117895 137.983177 
L 281.88 154.434378 
L 287.166316 154.434378 
L 288.928421 142.754766 
L 290.690526 154.434378 
L 292.452632 148.107174 
L 294.214737 151.574473 
L 295.976842 154.434378 
L 297.738947 136.266094 
M 301.263158 154.434378 
L 303.025263 163.189497 
L 304.787368 157.960119 
L 306.549474 147.82016 
M 310.073684 147.382582 
L 311.835789 149.328339 
L 313.597895 149.025984 
M 317.122105 158.625967 
L 318.884211 133.776213 
L 320.646316 154.434378 
L 322.408421 154.434378 
M 325.932632 143.04849 
L 327.694737 142.270416 
L 329.456842 146.997716 
L 331.218947 145.968074 
L 332.981053 137.524248 
L 334.743158 137.038352 
L 336.505263 154.434378 
L 338.267368 138.09387 
L 340.029474 150.118063 
L 341.791579 143.124221 
L 343.553684 149.812569 
L 345.315789 141.850194 
L 347.077895 148.707197 
L 348.84 140.212497 
L 350.602105 154.434378 
M 354.126316 154.434378 
L 355.888421 146.163383 
L 357.650526 146.614454 
L 359.412632 149.168035 
L 361.174737 154.434378 
L 362.936842 71.100752 
L 364.698947 138.307238 
L 366.461053 140.732904 
L 368.223158 150.234591 
L 369.985263 141.541182 
L 371.747368 148.79189 
L 373.509474 144.816239 
L 375.271579 136.167523 
L 377.033684 154.434378 
M 380.557895 154.434378 
L 384.082105 154.434378 
L 385.844211 151.680002 
L 387.606316 150.667205 
L 389.368421 162.327765 
L 391.130526 154.434378 
M 394.654737 154.434378 
L 396.416842 151.086662 
L 398.178947 154.434378 
M 401.703158 123.29654 
L 403.465263 148.161048 
L 405.227368 154.434378 
L 406.989474 154.434378 
L 408.751579 153.212287 
L 410.513684 154.757836 
L 412.275789 150.109965 
L 414.037895 155.36056 
M 421.086316 154.434378 
L 422.848421 154.434378 
M 429.896842 140.023487 
L 431.658947 139.520122 
L 433.421053 134.185399 
L 435.183158 133.356397 
L 436.945263 141.179881 
L 438.707368 138.84853 
L 440.469474 134.203392 
L 442.231579 134.311735 
L 443.993684 135.184884 
L 445.755789 133.744246 
L 447.517895 133.207289 
L 449.28 138.225966 
L 451.042105 130.6272 
L 452.804211 154.434378 
L 454.566316 144.763214 
L 456.328421 149.929536 
L 458.090526 138.772586 
L 459.852632 133.343176 
L 461.614737 142.019323 
L 463.376842 144.661703 
L 465.138947 133.81357 
L 466.901053 135.650489 
L 468.663158 135.466984 
L 470.425263 135.6768 
L 472.187368 138.098392 
L 473.949474 133.824807 
L 475.711579 135.263555 
L 477.473684 134.299127 
L 479.235789 145.757733 
L 480.997895 133.783361 
L 482.76 134.879711 
L 484.522105 134.886921 
L 486.284211 137.659815 
L 488.046316 121.77081 
L 489.808421 140.496502 
L 491.570526 147.883709 
L 493.332632 146.851322 
L 495.094737 146.352126 
L 496.856842 146.078897 
L 498.618947 152.265307 
L 500.381053 146.64797 
L 502.143158 154.434378 
L 503.905263 140.896743 
L 505.667368 138.448191 
L 507.429474 136.460125 
L 509.191579 145.97322 
L 510.953684 146.047903 
L 512.715789 137.54404 
L 514.477895 137.960655 
M 518.002105 145.785374 
L 519.764211 138.31593 
L 521.526316 140.439504 
L 523.288421 138.356134 
L 525.050526 175.246272 
L 526.812632 166.421347 
L 528.574737 143.848616 
L 530.336842 145.087549 
L 532.098947 133.169206 
L 533.861053 137.576604 
L 535.623158 134.12796 
L 537.385263 145.477481 
L 539.147368 134.867275 
L 540.909474 138.544573 
L 542.671579 138.509507 
M 546.195789 154.434378 
L 547.957895 142.298649 
L 549.72 153.599746 
L 551.482105 154.434378 
L 553.244211 152.632145 
L 555.006316 143.222239 
L 556.768421 143.336721 
L 558.530526 147.294866 
L 560.292632 152.674626 
L 562.054737 146.959158 
L 563.816842 143.785016 
L 565.578947 141.359707 
L 567.341053 154.434378 
L 569.103158 149.669702 
L 570.865263 145.902233 
L 572.627368 145.973133 
L 574.389474 148.905919 
M 577.913684 119.770046 
L 579.675789 144.181337 
L 581.437895 154.434378 
L 581.437895 154.434378 
" style="fill:none;stroke:#0000ff;stroke-linecap:square;stroke-width:1.5;"/>
   </g>
   <g id="patch_3">
    <path d="M 81 192.24 
L 81 25.92 
" style="fill:none;stroke:#000000;stroke-linecap:square;stroke-linejoin:miter;stroke-width:0.8;"/>
   </g>
   <g id="patch_4">
    <path d="M 583.2 192.24 
L 583.2 25.92 
" style="fill:none;stroke:#000000;stroke-linecap:square;stroke-linejoin:miter;stroke-width:0.8;"/>
   </g>
   <g id="patch_5">
    <path d="M 81 192.24 
L 583.2 192.24 
" style="fill:none;stroke:#000000;stroke-linecap:square;stroke-linejoin:miter;stroke-width:0.8;"/>
   </g>
   <g id="patch_6">
    <path d="M 81 25.92 
L 583.2 25.92 
" style="fill:none;stroke:#000000;stroke-linecap:square;stroke-linejoin:miter;stroke-width:0.8;"/>
   </g>
   <g id="text_15">
    <!-- V1, Num Trials=10 All unstimulated trials -->
    <defs>
     <path d="M 28.609375 0 
L 0.78125 72.90625 
L 11.078125 72.90625 
L 34.1875 11.53125 
L 57.328125 72.90625 
L 67.578125 72.90625 
L 39.796875 0 
z
" id="DejaVuSans-86"/>
     <path d="M 11.71875 12.40625 
L 22.015625 12.40625 
L 22.015625 4 
L 14.015625 -11.625 
L 7.71875 -11.625 
L 11.71875 4 
z
" id="DejaVuSans-44"/>
     <path d="M 9.8125 72.90625 
L 23.09375 72.90625 
L 55.421875 11.921875 
L 55.421875 72.90625 
L 64.984375 72.90625 
L 64.984375 0 
L 51.703125 0 
L 19.390625 60.984375 
L 19.390625 0 
L 9.8125 0 
z
" id="DejaVuSans-78"/>
     <path d="M 8.5 21.578125 
L 8.5 54.6875 
L 17.484375 54.6875 
L 17.484375 21.921875 
Q 17.484375 14.15625 20.5 10.265625 
Q 23.53125 6.390625 29.59375 6.390625 
Q 36.859375 6.390625 41.078125 11.03125 
Q 45.3125 15.671875 45.3125 23.6875 
L 45.3125 54.6875 
L 54.296875 54.6875 
L 54.296875 0 
L 45.3125 0 
L 45.3125 8.40625 
Q 42.046875 3.421875 37.71875 1 
Q 33.40625 -1.421875 27.6875 -1.421875 
Q 18.265625 -1.421875 13.375 4.4375 
Q 8.5 10.296875 8.5 21.578125 
z
M 31.109375 56 
z
" id="DejaVuSans-117"/>
     <path d="M 34.28125 27.484375 
Q 23.390625 27.484375 19.1875 25 
Q 14.984375 22.515625 14.984375 16.5 
Q 14.984375 11.71875 18.140625 8.90625 
Q 21.296875 6.109375 26.703125 6.109375 
Q 34.1875 6.109375 38.703125 11.40625 
Q 43.21875 16.703125 43.21875 25.484375 
L 43.21875 27.484375 
z
M 52.203125 31.203125 
L 52.203125 0 
L 43.21875 0 
L 43.21875 8.296875 
Q 40.140625 3.328125 35.546875 0.953125 
Q 30.953125 -1.421875 24.3125 -1.421875 
Q 15.921875 -1.421875 10.953125 3.296875 
Q 6 8.015625 6 15.921875 
Q 6 25.140625 12.171875 29.828125 
Q 18.359375 34.515625 30.609375 34.515625 
L 43.21875 34.515625 
L 43.21875 35.40625 
Q 43.21875 41.609375 39.140625 45 
Q 35.0625 48.390625 27.6875 48.390625 
Q 23 48.390625 18.546875 47.265625 
Q 14.109375 46.140625 10.015625 43.890625 
L 10.015625 52.203125 
Q 14.9375 54.109375 19.578125 55.046875 
Q 24.21875 56 28.609375 56 
Q 40.484375 56 46.34375 49.84375 
Q 52.203125 43.703125 52.203125 31.203125 
z
" id="DejaVuSans-97"/>
     <path d="M 9.421875 75.984375 
L 18.40625 75.984375 
L 18.40625 0 
L 9.421875 0 
z
" id="DejaVuSans-108"/>
     <path d="M 10.59375 45.40625 
L 73.1875 45.40625 
L 73.1875 37.203125 
L 10.59375 37.203125 
z
M 10.59375 25.484375 
L 73.1875 25.484375 
L 73.1875 17.1875 
L 10.59375 17.1875 
z
" id="DejaVuSans-61"/>
     <path d="M 54.890625 33.015625 
L 54.890625 0 
L 45.90625 0 
L 45.90625 32.71875 
Q 45.90625 40.484375 42.875 44.328125 
Q 39.84375 48.1875 33.796875 48.1875 
Q 26.515625 48.1875 22.3125 43.546875 
Q 18.109375 38.921875 18.109375 30.90625 
L 18.109375 0 
L 9.078125 0 
L 9.078125 54.6875 
L 18.109375 54.6875 
L 18.109375 46.1875 
Q 21.34375 51.125 25.703125 53.5625 
Q 30.078125 56 35.796875 56 
Q 45.21875 56 50.046875 50.171875 
Q 54.890625 44.34375 54.890625 33.015625 
z
" id="DejaVuSans-110"/>
     <path d="M 18.3125 70.21875 
L 18.3125 54.6875 
L 36.8125 54.6875 
L 36.8125 47.703125 
L 18.3125 47.703125 
L 18.3125 18.015625 
Q 18.3125 11.328125 20.140625 9.421875 
Q 21.96875 7.515625 27.59375 7.515625 
L 36.8125 7.515625 
L 36.8125 0 
L 27.59375 0 
Q 17.1875 0 13.234375 3.875 
Q 9.28125 7.765625 9.28125 18.015625 
L 9.28125 47.703125 
L 2.6875 47.703125 
L 2.6875 54.6875 
L 9.28125 54.6875 
L 9.28125 70.21875 
z
" id="DejaVuSans-116"/>
     <path d="M 45.40625 46.390625 
L 45.40625 75.984375 
L 54.390625 75.984375 
L 54.390625 0 
L 45.40625 0 
L 45.40625 8.203125 
Q 42.578125 3.328125 38.25 0.953125 
Q 33.9375 -1.421875 27.875 -1.421875 
Q 17.96875 -1.421875 11.734375 6.484375 
Q 5.515625 14.40625 5.515625 27.296875 
Q 5.515625 40.1875 11.734375 48.09375 
Q 17.96875 56 27.875 56 
Q 33.9375 56 38.25 53.625 
Q 42.578125 51.265625 45.40625 46.390625 
z
M 14.796875 27.296875 
Q 14.796875 17.390625 18.875 11.75 
Q 22.953125 6.109375 30.078125 6.109375 
Q 37.203125 6.109375 41.296875 11.75 
Q 45.40625 17.390625 45.40625 27.296875 
Q 45.40625 37.203125 41.296875 42.84375 
Q 37.203125 48.484375 30.078125 48.484375 
Q 22.953125 48.484375 18.875 42.84375 
Q 14.796875 37.203125 14.796875 27.296875 
z
" id="DejaVuSans-100"/>
    </defs>
    <g transform="translate(207.6975 19.92)scale(0.12 -0.12)">
     <use xlink:href="#DejaVuSans-86"/>
     <use x="68.408203" xlink:href="#DejaVuSans-49"/>
     <use x="132.03125" xlink:href="#DejaVuSans-44"/>
     <use x="163.818359" xlink:href="#DejaVuSans-32"/>
     <use x="195.605469" xlink:href="#DejaVuSans-78"/>
     <use x="270.410156" xlink:href="#DejaVuSans-117"/>
     <use x="333.789062" xlink:href="#DejaVuSans-109"/>
     <use x="431.201172" xlink:href="#DejaVuSans-32"/>
     <use x="462.988281" xlink:href="#DejaVuSans-84"/>
     <use x="523.853516" xlink:href="#DejaVuSans-114"/>
     <use x="564.966797" xlink:href="#DejaVuSans-105"/>
     <use x="592.75" xlink:href="#DejaVuSans-97"/>
     <use x="654.029297" xlink:href="#DejaVuSans-108"/>
     <use x="681.8125" xlink:href="#DejaVuSans-115"/>
     <use x="733.912109" xlink:href="#DejaVuSans-61"/>
     <use x="817.701172" xlink:href="#DejaVuSans-49"/>
     <use x="881.324219" xlink:href="#DejaVuSans-48"/>
     <use x="944.947266" xlink:href="#DejaVuSans-32"/>
     <use x="976.734375" xlink:href="#DejaVuSans-65"/>
     <use x="1045.142578" xlink:href="#DejaVuSans-108"/>
     <use x="1072.925781" xlink:href="#DejaVuSans-108"/>
     <use x="1100.708984" xlink:href="#DejaVuSans-32"/>
     <use x="1132.496094" xlink:href="#DejaVuSans-117"/>
     <use x="1195.875" xlink:href="#DejaVuSans-110"/>
     <use x="1259.253906" xlink:href="#DejaVuSans-115"/>
     <use x="1311.353516" xlink:href="#DejaVuSans-116"/>
     <use x="1350.5625" xlink:href="#DejaVuSans-105"/>
     <use x="1378.345703" xlink:href="#DejaVuSans-109"/>
     <use x="1475.757812" xlink:href="#DejaVuSans-117"/>
     <use x="1539.136719" xlink:href="#DejaVuSans-108"/>
     <use x="1566.919922" xlink:href="#DejaVuSans-97"/>
     <use x="1628.199219" xlink:href="#DejaVuSans-116"/>
     <use x="1667.408203" xlink:href="#DejaVuSans-101"/>
     <use x="1728.931641" xlink:href="#DejaVuSans-100"/>
     <use x="1792.408203" xlink:href="#DejaVuSans-32"/>
     <use x="1824.195312" xlink:href="#DejaVuSans-116"/>
     <use x="1863.404297" xlink:href="#DejaVuSans-114"/>
     <use x="1904.517578" xlink:href="#DejaVuSans-105"/>
     <use x="1932.300781" xlink:href="#DejaVuSans-97"/>
     <use x="1993.580078" xlink:href="#DejaVuSans-108"/>
     <use x="2021.363281" xlink:href="#DejaVuSans-115"/>
    </g>
   </g>
   <g id="legend_1">
    <g id="patch_7">
     <path d="M 476.469375 70.7475 
L 574.8 70.7475 
Q 577.2 70.7475 577.2 68.3475 
L 577.2 34.32 
Q 577.2 31.92 574.8 31.92 
L 476.469375 31.92 
Q 474.069375 31.92 474.069375 34.32 
L 474.069375 68.3475 
Q 474.069375 70.7475 476.469375 70.7475 
z
" style="fill:#ffffff;opacity:0.8;stroke:#cccccc;stroke-linejoin:miter;"/>
    </g>
    <g id="line2d_14">
     <path d="M 478.869375 41.638125 
L 502.869375 41.638125 
" style="fill:none;stroke:#0000ff;stroke-linecap:square;stroke-width:1.5;"/>
    </g>
    <g id="line2d_15"/>
    <g id="text_16">
     <!-- Avg. Corr. -->
     <g transform="translate(512.469375 45.838125)scale(0.12 -0.12)">
      <use xlink:href="#DejaVuSans-65"/>
      <use x="68.330078" xlink:href="#DejaVuSans-118"/>
      <use x="127.509766" xlink:href="#DejaVuSans-103"/>
      <use x="190.986328" xlink:href="#DejaVuSans-46"/>
      <use x="222.773438" xlink:href="#DejaVuSans-32"/>
      <use x="254.560547" xlink:href="#DejaVuSans-67"/>
      <use x="324.384766" xlink:href="#DejaVuSans-111"/>
      <use x="385.566406" xlink:href="#DejaVuSans-114"/>
      <use x="426.664062" xlink:href="#DejaVuSans-114"/>
      <use x="467.636719" xlink:href="#DejaVuSans-46"/>
     </g>
    </g>
    <g id="patch_8">
     <path d="M 478.869375 63.451875 
L 502.869375 63.451875 
L 502.869375 55.051875 
L 478.869375 55.051875 
z
" style="fill:#0000ff;opacity:0.3;stroke:#0000ff;stroke-linejoin:miter;"/>
    </g>
    <g id="text_17">
     <!-- Std. Err. -->
     <defs>
      <path d="M 53.515625 70.515625 
L 53.515625 60.890625 
Q 47.90625 63.578125 42.921875 64.890625 
Q 37.9375 66.21875 33.296875 66.21875 
Q 25.25 66.21875 20.875 63.09375 
Q 16.5 59.96875 16.5 54.203125 
Q 16.5 49.359375 19.40625 46.890625 
Q 22.3125 44.4375 30.421875 42.921875 
L 36.375 41.703125 
Q 47.40625 39.59375 52.65625 34.296875 
Q 57.90625 29 57.90625 20.125 
Q 57.90625 9.515625 50.796875 4.046875 
Q 43.703125 -1.421875 29.984375 -1.421875 
Q 24.8125 -1.421875 18.96875 -0.25 
Q 13.140625 0.921875 6.890625 3.21875 
L 6.890625 13.375 
Q 12.890625 10.015625 18.65625 8.296875 
Q 24.421875 6.59375 29.984375 6.59375 
Q 38.421875 6.59375 43.015625 9.90625 
Q 47.609375 13.234375 47.609375 19.390625 
Q 47.609375 24.75 44.3125 27.78125 
Q 41.015625 30.8125 33.5 32.328125 
L 27.484375 33.5 
Q 16.453125 35.6875 11.515625 40.375 
Q 6.59375 45.0625 6.59375 53.421875 
Q 6.59375 63.09375 13.40625 68.65625 
Q 20.21875 74.21875 32.171875 74.21875 
Q 37.3125 74.21875 42.625 73.28125 
Q 47.953125 72.359375 53.515625 70.515625 
z
" id="DejaVuSans-83"/>
      <path d="M 9.8125 72.90625 
L 55.90625 72.90625 
L 55.90625 64.59375 
L 19.671875 64.59375 
L 19.671875 43.015625 
L 54.390625 43.015625 
L 54.390625 34.71875 
L 19.671875 34.71875 
L 19.671875 8.296875 
L 56.78125 8.296875 
L 56.78125 0 
L 9.8125 0 
z
" id="DejaVuSans-69"/>
     </defs>
     <g transform="translate(512.469375 63.451875)scale(0.12 -0.12)">
      <use xlink:href="#DejaVuSans-83"/>
      <use x="63.476562" xlink:href="#DejaVuSans-116"/>
      <use x="102.685547" xlink:href="#DejaVuSans-100"/>
      <use x="166.162109" xlink:href="#DejaVuSans-46"/>
      <use x="197.949219" xlink:href="#DejaVuSans-32"/>
      <use x="229.736328" xlink:href="#DejaVuSans-69"/>
      <use x="292.919922" xlink:href="#DejaVuSans-114"/>
      <use x="334.017578" xlink:href="#DejaVuSans-114"/>
      <use x="374.990234" xlink:href="#DejaVuSans-46"/>
     </g>
    </g>
   </g>
  </g>
 </g>
 <defs>
  <clipPath id="p0bd4d6cea6">
   <rect height="166.32" width="502.2" x="81" y="25.92"/>
  </clipPath>
 </defs>
</svg>
