<?xml version="1.0" encoding="utf-8" standalone="no"?>
<!DOCTYPE svg PUBLIC "-//W3C//DTD SVG 1.1//EN"
  "http://www.w3.org/Graphics/SVG/1.1/DTD/svg11.dtd">
<!-- Created with matplotlib (https://matplotlib.org/) -->
<svg height="216pt" version="1.1" viewBox="0 0 648 216" width="648pt" xmlns="http://www.w3.org/2000/svg" xmlns:xlink="http://www.w3.org/1999/xlink">
 <defs>
  <style type="text/css">
*{stroke-linecap:butt;stroke-linejoin:round;}
  </style>
 </defs>
 <g id="figure_1">
  <g id="patch_1">
   <path d="M 0 216 
L 648 216 
L 648 0 
L 0 0 
z
" style="fill:#ffffff;"/>
  </g>
  <g id="axes_1">
   <g id="patch_2">
    <path d="M 81 192.24 
L 583.2 192.24 
L 583.2 25.92 
L 81 25.92 
z
" style="fill:#ffffff;"/>
   </g>
   <g id="PolyCollection_1">
    <defs>
     <path d="M 156.33 -23.76 
L 156.33 -190.08 
L 420.645789 -190.08 
L 420.645789 -23.76 
L 420.645789 -23.76 
L 156.33 -23.76 
z
" id="ma6b041b42e" style="stroke:#808080;stroke-opacity:0.3;"/>
    </defs>
    <g clip-path="url(#p3c44c06f76)">
     <use style="fill:#808080;fill-opacity:0.3;stroke:#808080;stroke-opacity:0.3;" x="0" xlink:href="#ma6b041b42e" y="216"/>
    </g>
   </g>
   <g id="PolyCollection_2">
    <path clip-path="url(#p3c44c06f76)" d="M 81 173.883712 
L 81 173.883712 
L 82.762105 150.531379 
L 84.524211 149.912139 
L 86.286316 155.036564 
L 88.048421 153.776241 
L 89.810526 160.399571 
L 91.572632 170.828033 
L 93.334737 172.508236 
L 95.096842 171.471485 
L 96.858947 175.836668 
L 98.621053 173.588624 
L 100.383158 165.609936 
L 102.145263 165.829478 
L 103.907368 169.321498 
L 105.669474 147.849565 
L 107.431579 150.616712 
L 109.193684 173.601907 
L 110.955789 173.883712 
L 112.717895 173.883712 
L 114.48 176.785993 
L 116.242105 163.228207 
L 118.004211 171.618451 
L 119.766316 170.114454 
L 121.528421 163.87586 
L 123.290526 169.986895 
L 125.052632 136.517527 
L 126.814737 176.235825 
L 128.576842 162.365329 
L 130.338947 159.159104 
L 132.101053 157.067443 
L 133.863158 156.356856 
L 135.625263 160.119198 
L 137.387368 147.805336 
L 139.149474 148.171385 
L 140.911579 174.201081 
L 142.673684 167.75455 
L 144.435789 169.227032 
L 146.197895 180.933107 
L 146.197895 177.173601 
L 146.197895 177.173601 
L 144.435789 164.383698 
L 142.673684 157.366433 
L 140.911579 171.251783 
L 139.149474 145.665657 
L 137.387368 145.187097 
L 135.625263 157.057722 
L 133.863158 152.419155 
L 132.101053 153.910791 
L 130.338947 155.889919 
L 128.576842 158.383618 
L 126.814737 171.742774 
L 125.052632 25.92 
L 123.290526 163.004451 
L 121.528421 131.521925 
L 119.766316 164.416626 
L 118.004211 164.018206 
L 116.242105 158.931266 
L 114.48 171.448537 
L 112.717895 173.883712 
L 110.955789 173.883712 
L 109.193684 166.010338 
L 107.431579 148.226335 
L 105.669474 144.301465 
L 103.907368 162.002745 
L 102.145263 160.740195 
L 100.383158 161.586619 
L 98.621053 168.456197 
L 96.858947 160.790588 
L 95.096842 165.628688 
L 93.334737 160.267902 
L 91.572632 160.316262 
L 89.810526 155.855198 
L 88.048421 150.288715 
L 86.286316 151.591948 
L 84.524211 147.318942 
L 82.762105 123.098288 
L 81 173.883712 
z
" style="fill:#0000ff;fill-opacity:0.3;stroke:#0000ff;stroke-opacity:0.3;"/>
    <path clip-path="url(#p3c44c06f76)" d="M 149.722105 174.262313 
L 149.722105 183.712766 
L 151.484211 192.24 
L 153.246316 165.102394 
L 155.008421 168.622793 
L 156.770526 169.029178 
L 158.532632 150.749352 
L 160.294737 143.528189 
L 162.056842 149.264815 
L 163.818947 170.762125 
L 165.581053 150.553736 
L 167.343158 145.860638 
L 169.105263 174.436409 
L 170.867368 170.796673 
L 172.629474 149.446891 
L 174.391579 161.448765 
L 176.153684 128.979343 
L 177.915789 148.762924 
L 179.677895 141.913063 
L 181.44 155.678457 
L 183.202105 172.099598 
L 184.964211 163.541095 
L 186.726316 167.05592 
L 188.488421 143.021678 
L 190.250526 171.832303 
L 192.012632 169.541945 
L 193.774737 169.20809 
L 195.536842 169.15618 
L 197.298947 176.322488 
L 199.061053 176.337782 
L 200.823158 173.085337 
L 202.585263 168.333417 
L 204.347368 164.213456 
L 206.109474 158.446901 
L 207.871579 148.266777 
L 209.633684 157.60983 
L 211.395789 161.107376 
L 213.157895 160.466975 
L 214.92 161.904985 
L 216.682105 162.997387 
L 218.444211 169.213587 
L 220.206316 171.790057 
L 221.968421 169.653919 
L 223.730526 166.926157 
L 225.492632 167.182915 
L 227.254737 161.204433 
L 229.016842 149.942757 
L 230.778947 153.261533 
L 232.541053 162.780711 
L 234.303158 165.35603 
L 236.065263 153.553911 
L 237.827368 168.726725 
L 237.827368 163.282839 
L 237.827368 163.282839 
L 236.065263 150.097108 
L 234.303158 153.909143 
L 232.541053 157.594281 
L 230.778947 150.2734 
L 229.016842 147.746144 
L 227.254737 156.33051 
L 225.492632 161.530379 
L 223.730526 158.67789 
L 221.968421 154.434895 
L 220.206316 168.595192 
L 218.444211 165.431276 
L 216.682105 159.28376 
L 214.92 158.319669 
L 213.157895 157.104365 
L 211.395789 157.444709 
L 209.633684 154.561136 
L 207.871579 145.874112 
L 206.109474 155.212616 
L 204.347368 159.873225 
L 202.585263 164.644547 
L 200.823158 167.68621 
L 199.061053 162.807086 
L 197.298947 171.00525 
L 195.536842 163.214119 
L 193.774737 164.65055 
L 192.012632 162.691873 
L 190.250526 166.161319 
L 188.488421 105.32634 
L 186.726316 162.614453 
L 184.964211 159.317089 
L 183.202105 168.164136 
L 181.44 152.278767 
L 179.677895 140.101049 
L 177.915789 146.057777 
L 176.153684 128.979343 
L 174.391579 156.10894 
L 172.629474 147.038026 
L 170.867368 167.605323 
L 169.105263 171.216369 
L 167.343158 142.432736 
L 165.581053 147.346569 
L 163.818947 160.242048 
L 162.056842 147.056388 
L 160.294737 141.881813 
L 158.532632 147.784247 
L 156.770526 164.642551 
L 155.008421 162.285185 
L 153.246316 156.81282 
L 151.484211 181.583182 
L 149.722105 174.262313 
z
" style="fill:#0000ff;fill-opacity:0.3;stroke:#0000ff;stroke-opacity:0.3;"/>
    <path clip-path="url(#p3c44c06f76)" d="M 241.351579 165.070892 
L 241.351579 170.386141 
L 243.113684 169.412893 
L 244.875789 171.24626 
L 246.637895 168.737719 
L 248.4 161.952798 
L 250.162105 154.376496 
L 251.924211 145.518621 
L 253.686316 167.038798 
L 255.448421 168.202467 
L 257.210526 150.970924 
L 258.972632 147.885264 
L 260.734737 144.200455 
L 262.496842 148.232513 
L 264.258947 161.477375 
L 266.021053 167.934439 
L 267.783158 171.827089 
L 269.545263 159.989397 
L 271.307368 165.28371 
L 273.069474 162.764296 
L 274.831579 164.976422 
L 276.593684 175.12295 
L 278.355789 169.681902 
L 280.117895 157.926222 
L 281.88 156.380305 
L 283.642105 179.522481 
L 285.404211 170.467171 
L 287.166316 171.927246 
L 288.928421 171.150833 
L 290.690526 172.724724 
L 292.452632 169.657634 
L 294.214737 167.919857 
L 295.976842 167.260163 
L 297.738947 173.656333 
L 297.738947 170.256849 
L 297.738947 170.256849 
L 295.976842 163.917945 
L 294.214737 164.441554 
L 292.452632 166.139427 
L 290.690526 167.319327 
L 288.928421 167.509805 
L 287.166316 167.102014 
L 285.404211 156.946926 
L 283.642105 173.98817 
L 281.88 120.451117 
L 280.117895 36.764106 
L 278.355789 161.596735 
L 276.593684 172.472227 
L 274.831579 161.129145 
L 273.069474 159.058499 
L 271.307368 161.304824 
L 269.545263 155.706217 
L 267.783158 162.782049 
L 266.021053 155.422156 
L 264.258947 157.51673 
L 262.496842 145.240853 
L 260.734737 142.796566 
L 258.972632 144.829726 
L 257.210526 148.213369 
L 255.448421 152.657058 
L 253.686316 161.972887 
L 251.924211 143.620785 
L 250.162105 151.452813 
L 248.4 156.015425 
L 246.637895 158.925896 
L 244.875789 167.406395 
L 243.113684 164.27101 
L 241.351579 165.070892 
z
" style="fill:#0000ff;fill-opacity:0.3;stroke:#0000ff;stroke-opacity:0.3;"/>
    <path clip-path="url(#p3c44c06f76)" d="M 301.263158 173.954954 
L 301.263158 174.262385 
L 303.025263 174.729816 
L 304.787368 177.682811 
L 306.549474 181.363963 
L 308.311579 173.883712 
L 310.073684 158.119386 
L 311.835789 148.285673 
L 313.597895 153.99862 
L 315.36 172.702435 
L 317.122105 167.121972 
L 318.884211 166.704983 
L 320.646316 166.431603 
L 322.408421 170.193425 
L 324.170526 173.883712 
L 325.932632 159.614878 
L 327.694737 151.047167 
L 329.456842 148.09019 
L 331.218947 155.802463 
L 332.981053 146.723011 
L 334.743158 146.724253 
L 336.505263 165.460276 
L 338.267368 167.314144 
L 340.029474 161.728035 
L 341.791579 159.962014 
L 343.553684 155.962649 
L 345.315789 144.745467 
L 347.077895 149.071019 
L 348.84 171.833289 
L 350.602105 168.71466 
L 352.364211 169.047972 
L 354.126316 156.237422 
L 355.888421 161.172728 
L 357.650526 156.257046 
L 359.412632 155.033076 
L 361.174737 173.194902 
L 362.936842 160.669889 
L 364.698947 154.131569 
L 366.461053 153.338969 
L 368.223158 160.885889 
L 369.985263 162.41414 
L 371.747368 164.097888 
L 373.509474 160.751215 
L 375.271579 158.591124 
L 377.033684 173.271745 
L 378.795789 173.807402 
L 380.557895 171.838162 
L 382.32 176.623076 
L 384.082105 179.44075 
L 385.844211 169.715505 
L 387.606316 167.857616 
L 389.368421 171.412087 
L 391.130526 173.883712 
L 392.892632 173.883712 
L 394.654737 170.788925 
L 396.416842 164.038749 
L 398.178947 169.740467 
L 399.941053 169.902186 
L 401.703158 168.321823 
L 403.465263 160.29171 
L 405.227368 171.374623 
L 406.989474 172.765705 
L 408.751579 168.090388 
L 410.513684 168.680275 
L 412.275789 165.076544 
L 414.037895 174.285545 
L 414.037895 171.570977 
L 414.037895 171.570977 
L 412.275789 161.141159 
L 410.513684 165.52711 
L 408.751579 164.568154 
L 406.989474 169.125156 
L 405.227368 165.271038 
L 403.465263 156.841369 
L 401.703158 165.07117 
L 399.941053 165.899176 
L 398.178947 166.420669 
L 396.416842 160.601559 
L 394.654737 164.898186 
L 392.892632 173.883712 
L 391.130526 173.883712 
L 389.368421 167.531776 
L 387.606316 164.107896 
L 385.844211 155.88674 
L 384.082105 175.821215 
L 382.32 172.816765 
L 380.557895 164.584636 
L 378.795789 170.985921 
L 377.033684 159.420308 
L 375.271579 155.237599 
L 373.509474 157.921012 
L 371.747368 161.186158 
L 369.985263 159.220762 
L 368.223158 158.130242 
L 366.461053 149.824135 
L 364.698947 143.264891 
L 362.936842 141.869941 
L 361.174737 131.1886 
L 359.412632 151.522151 
L 357.650526 152.591217 
L 355.888421 157.335067 
L 354.126316 144.887708 
L 352.364211 162.992573 
L 350.602105 160.140366 
L 348.84 162.786835 
L 347.077895 146.746102 
L 345.315789 142.928733 
L 343.553684 152.967496 
L 341.791579 156.926262 
L 340.029474 142.369327 
L 338.267368 156.844018 
L 336.505263 160.553894 
L 334.743158 144.567041 
L 332.981053 144.563123 
L 331.218947 152.466914 
L 329.456842 143.982531 
L 327.694737 148.269921 
L 325.932632 155.658406 
L 324.170526 173.883712 
L 322.408421 166.252781 
L 320.646316 162.779449 
L 318.884211 145.12037 
L 317.122105 163.740065 
L 315.36 147.949431 
L 313.597895 132.49718 
L 311.835789 145.786057 
L 310.073684 154.280048 
L 308.311579 173.883712 
L 306.549474 174.695199 
L 304.787368 169.476615 
L 303.025263 164.286385 
L 301.263158 173.954954 
z
" style="fill:#0000ff;fill-opacity:0.3;stroke:#0000ff;stroke-opacity:0.3;"/>
    <path clip-path="url(#p3c44c06f76)" d="M 417.562105 159.758269 
L 417.562105 164.556688 
L 419.324211 162.005288 
L 421.086316 175.284541 
L 422.848421 173.805832 
L 424.610526 173.569728 
L 426.372632 171.430597 
L 428.134737 173.883712 
L 429.896842 145.636536 
L 431.658947 140.962664 
L 433.421053 139.726652 
L 435.183158 141.713779 
L 436.945263 145.446436 
L 438.707368 144.856819 
L 440.469474 141.241627 
L 442.231579 140.702704 
L 443.993684 143.689483 
L 445.755789 139.340702 
L 447.517895 139.677057 
L 449.28 140.919235 
L 451.042105 143.60339 
L 452.804211 171.579801 
L 454.566316 159.484918 
L 456.328421 149.369145 
L 458.090526 142.12001 
L 459.852632 141.54393 
L 461.614737 141.780814 
L 463.376842 142.832425 
L 465.138947 143.734749 
L 466.901053 140.864691 
L 468.663158 140.465386 
L 470.425263 141.972778 
L 472.187368 146.81695 
L 473.949474 145.231436 
L 475.711579 143.875996 
L 477.473684 150.707638 
L 479.235789 157.797827 
L 480.997895 143.956675 
L 482.76 142.27627 
L 484.522105 142.836898 
L 486.284211 146.887762 
L 488.046316 150.593908 
L 489.808421 154.137738 
L 491.570526 156.141733 
L 493.332632 162.617982 
L 495.094737 165.103539 
L 496.856842 173.408444 
L 498.618947 136.575703 
L 500.381053 157.924096 
L 502.143158 162.992464 
L 503.905263 151.938398 
L 505.667368 146.011712 
L 507.429474 143.392831 
L 509.191579 157.426954 
L 510.953684 159.364805 
L 512.715789 157.500459 
L 514.477895 146.132797 
L 516.24 156.173518 
L 518.002105 161.763276 
L 519.764211 159.018337 
L 521.526316 154.20489 
L 523.288421 157.895287 
L 525.050526 183.569203 
L 526.812632 173.485762 
L 528.574737 167.86278 
L 530.336842 156.010012 
L 532.098947 146.611453 
L 533.861053 146.45859 
L 535.623158 154.068148 
L 537.385263 159.335497 
L 539.147368 157.410011 
L 540.909474 162.963272 
L 542.671579 164.420214 
L 544.433684 148.066683 
L 546.195789 161.887589 
L 547.957895 154.729438 
L 549.72 171.2133 
L 551.482105 172.152947 
L 553.244211 160.794113 
L 555.006316 157.79391 
L 556.768421 167.396209 
L 558.530526 159.012783 
L 560.292632 160.096621 
L 562.054737 166.089111 
L 563.816842 163.641525 
L 565.578947 167.750103 
L 567.341053 172.560481 
L 569.103158 163.460231 
L 570.865263 160.309085 
L 572.627368 166.176159 
L 574.389474 150.060842 
L 576.151579 151.187653 
L 577.913684 168.686356 
L 579.675789 169.015551 
L 581.437895 175.36934 
L 583.2 173.702194 
L 583.2 166.264265 
L 583.2 166.264265 
L 581.437895 167.200388 
L 579.675789 162.531582 
L 577.913684 164.41082 
L 576.151579 142.13104 
L 574.389474 146.724556 
L 572.627368 160.029373 
L 570.865263 155.511296 
L 569.103158 159.873931 
L 567.341053 169.057929 
L 565.578947 158.949114 
L 563.816842 159.452917 
L 562.054737 161.337439 
L 560.292632 155.04042 
L 558.530526 154.677855 
L 556.768421 160.458233 
L 555.006316 152.446828 
L 553.244211 156.615374 
L 551.482105 168.549526 
L 549.72 167.402131 
L 547.957895 146.976753 
L 546.195789 153.30011 
L 544.433684 145.636443 
L 542.671579 160.142936 
L 540.909474 158.106778 
L 539.147368 144.330131 
L 537.385263 155.21083 
L 535.623158 150.5916 
L 533.861053 144.270909 
L 532.098947 144.228165 
L 530.336842 153.036574 
L 528.574737 163.190207 
L 526.812632 170.007675 
L 525.050526 170.372546 
L 523.288421 154.025337 
L 521.526316 145.99373 
L 519.764211 149.831193 
L 518.002105 156.187293 
L 516.24 152.807216 
L 514.477895 143.272023 
L 512.715789 153.786095 
L 510.953684 155.448811 
L 509.191579 152.041549 
L 507.429474 142.123409 
L 505.667368 144.296057 
L 503.905263 144.671797 
L 502.143158 158.624565 
L 500.381053 153.61869 
L 498.618947 117.879001 
L 496.856842 168.566106 
L 495.094737 160.175924 
L 493.332632 157.294653 
L 491.570526 152.650316 
L 489.808421 150.944356 
L 488.046316 146.338197 
L 486.284211 144.699676 
L 484.522105 141.222597 
L 482.76 140.233572 
L 480.997895 139.828716 
L 479.235789 151.695341 
L 477.473684 147.67159 
L 475.711579 142.203665 
L 473.949474 143.700983 
L 472.187368 144.271357 
L 470.425263 140.896037 
L 468.663158 139.187376 
L 466.901053 139.758073 
L 465.138947 142.303917 
L 463.376842 140.445305 
L 461.614737 140.238601 
L 459.852632 140.714934 
L 458.090526 140.535761 
L 456.328421 135.602916 
L 454.566316 150.606424 
L 452.804211 168.95311 
L 451.042105 141.488449 
L 449.28 139.553954 
L 447.517895 138.529522 
L 445.755789 137.944288 
L 443.993684 142.044795 
L 442.231579 139.530326 
L 440.469474 140.217236 
L 438.707368 143.098807 
L 436.945263 142.90697 
L 435.183158 140.603637 
L 433.421053 137.998301 
L 431.658947 138.61624 
L 429.896842 142.515011 
L 428.134737 173.883712 
L 426.372632 159.049884 
L 424.610526 168.249492 
L 422.848421 168.453239 
L 421.086316 171.378663 
L 419.324211 157.455724 
L 417.562105 159.758269 
z
" style="fill:#0000ff;fill-opacity:0.3;stroke:#0000ff;stroke-opacity:0.3;"/>
   </g>
   <g id="matplotlib.axis_1">
    <g id="xtick_1">
     <g id="line2d_1">
      <defs>
       <path d="M 0 0 
L 0 3.5 
" id="m9c77fab102" style="stroke:#000000;stroke-width:0.8;"/>
      </defs>
      <g>
       <use style="stroke:#000000;stroke-width:0.8;" x="156.33" xlink:href="#m9c77fab102" y="192.24"/>
      </g>
     </g>
     <g id="text_1">
      <!-- 0.0 -->
      <defs>
       <path d="M 31.78125 66.40625 
Q 24.171875 66.40625 20.328125 58.90625 
Q 16.5 51.421875 16.5 36.375 
Q 16.5 21.390625 20.328125 13.890625 
Q 24.171875 6.390625 31.78125 6.390625 
Q 39.453125 6.390625 43.28125 13.890625 
Q 47.125 21.390625 47.125 36.375 
Q 47.125 51.421875 43.28125 58.90625 
Q 39.453125 66.40625 31.78125 66.40625 
z
M 31.78125 74.21875 
Q 44.046875 74.21875 50.515625 64.515625 
Q 56.984375 54.828125 56.984375 36.375 
Q 56.984375 17.96875 50.515625 8.265625 
Q 44.046875 -1.421875 31.78125 -1.421875 
Q 19.53125 -1.421875 13.0625 8.265625 
Q 6.59375 17.96875 6.59375 36.375 
Q 6.59375 54.828125 13.0625 64.515625 
Q 19.53125 74.21875 31.78125 74.21875 
z
" id="DejaVuSans-48"/>
       <path d="M 10.6875 12.40625 
L 21 12.40625 
L 21 0 
L 10.6875 0 
z
" id="DejaVuSans-46"/>
      </defs>
      <g transform="translate(146.788125 208.358125)scale(0.12 -0.12)">
       <use xlink:href="#DejaVuSans-48"/>
       <use x="63.623047" xlink:href="#DejaVuSans-46"/>
       <use x="95.410156" xlink:href="#DejaVuSans-48"/>
      </g>
     </g>
    </g>
    <g id="xtick_2">
     <g id="line2d_2">
      <g>
       <use style="stroke:#000000;stroke-width:0.8;" x="244.435263" xlink:href="#m9c77fab102" y="192.24"/>
      </g>
     </g>
     <g id="text_2">
      <!-- 0.5 -->
      <defs>
       <path d="M 10.796875 72.90625 
L 49.515625 72.90625 
L 49.515625 64.59375 
L 19.828125 64.59375 
L 19.828125 46.734375 
Q 21.96875 47.46875 24.109375 47.828125 
Q 26.265625 48.1875 28.421875 48.1875 
Q 40.625 48.1875 47.75 41.5 
Q 54.890625 34.8125 54.890625 23.390625 
Q 54.890625 11.625 47.5625 5.09375 
Q 40.234375 -1.421875 26.90625 -1.421875 
Q 22.3125 -1.421875 17.546875 -0.640625 
Q 12.796875 0.140625 7.71875 1.703125 
L 7.71875 11.625 
Q 12.109375 9.234375 16.796875 8.0625 
Q 21.484375 6.890625 26.703125 6.890625 
Q 35.15625 6.890625 40.078125 11.328125 
Q 45.015625 15.765625 45.015625 23.390625 
Q 45.015625 31 40.078125 35.4375 
Q 35.15625 39.890625 26.703125 39.890625 
Q 22.75 39.890625 18.8125 39.015625 
Q 14.890625 38.140625 10.796875 36.28125 
z
" id="DejaVuSans-53"/>
      </defs>
      <g transform="translate(234.893388 208.358125)scale(0.12 -0.12)">
       <use xlink:href="#DejaVuSans-48"/>
       <use x="63.623047" xlink:href="#DejaVuSans-46"/>
       <use x="95.410156" xlink:href="#DejaVuSans-53"/>
      </g>
     </g>
    </g>
    <g id="xtick_3">
     <g id="line2d_3">
      <g>
       <use style="stroke:#000000;stroke-width:0.8;" x="332.540526" xlink:href="#m9c77fab102" y="192.24"/>
      </g>
     </g>
     <g id="text_3">
      <!-- 1.0 -->
      <defs>
       <path d="M 12.40625 8.296875 
L 28.515625 8.296875 
L 28.515625 63.921875 
L 10.984375 60.40625 
L 10.984375 69.390625 
L 28.421875 72.90625 
L 38.28125 72.90625 
L 38.28125 8.296875 
L 54.390625 8.296875 
L 54.390625 0 
L 12.40625 0 
z
" id="DejaVuSans-49"/>
      </defs>
      <g transform="translate(322.998651 208.358125)scale(0.12 -0.12)">
       <use xlink:href="#DejaVuSans-49"/>
       <use x="63.623047" xlink:href="#DejaVuSans-46"/>
       <use x="95.410156" xlink:href="#DejaVuSans-48"/>
      </g>
     </g>
    </g>
    <g id="xtick_4">
     <g id="line2d_4">
      <g>
       <use style="stroke:#000000;stroke-width:0.8;" x="420.645789" xlink:href="#m9c77fab102" y="192.24"/>
      </g>
     </g>
     <g id="text_4">
      <!-- 1.5 -->
      <g transform="translate(411.103914 208.358125)scale(0.12 -0.12)">
       <use xlink:href="#DejaVuSans-49"/>
       <use x="63.623047" xlink:href="#DejaVuSans-46"/>
       <use x="95.410156" xlink:href="#DejaVuSans-53"/>
      </g>
     </g>
    </g>
    <g id="xtick_5">
     <g id="line2d_5">
      <g>
       <use style="stroke:#000000;stroke-width:0.8;" x="508.751053" xlink:href="#m9c77fab102" y="192.24"/>
      </g>
     </g>
     <g id="text_5">
      <!-- 2.0 -->
      <defs>
       <path d="M 19.1875 8.296875 
L 53.609375 8.296875 
L 53.609375 0 
L 7.328125 0 
L 7.328125 8.296875 
Q 12.9375 14.109375 22.625 23.890625 
Q 32.328125 33.6875 34.8125 36.53125 
Q 39.546875 41.84375 41.421875 45.53125 
Q 43.3125 49.21875 43.3125 52.78125 
Q 43.3125 58.59375 39.234375 62.25 
Q 35.15625 65.921875 28.609375 65.921875 
Q 23.96875 65.921875 18.8125 64.3125 
Q 13.671875 62.703125 7.8125 59.421875 
L 7.8125 69.390625 
Q 13.765625 71.78125 18.9375 73 
Q 24.125 74.21875 28.421875 74.21875 
Q 39.75 74.21875 46.484375 68.546875 
Q 53.21875 62.890625 53.21875 53.421875 
Q 53.21875 48.921875 51.53125 44.890625 
Q 49.859375 40.875 45.40625 35.40625 
Q 44.1875 33.984375 37.640625 27.21875 
Q 31.109375 20.453125 19.1875 8.296875 
z
" id="DejaVuSans-50"/>
      </defs>
      <g transform="translate(499.209178 208.358125)scale(0.12 -0.12)">
       <use xlink:href="#DejaVuSans-50"/>
       <use x="63.623047" xlink:href="#DejaVuSans-46"/>
       <use x="95.410156" xlink:href="#DejaVuSans-48"/>
      </g>
     </g>
    </g>
    <g id="text_6">
     <!-- Time (s) -->
     <defs>
      <path d="M -0.296875 72.90625 
L 61.375 72.90625 
L 61.375 64.59375 
L 35.5 64.59375 
L 35.5 0 
L 25.59375 0 
L 25.59375 64.59375 
L -0.296875 64.59375 
z
" id="DejaVuSans-84"/>
      <path d="M 9.421875 54.6875 
L 18.40625 54.6875 
L 18.40625 0 
L 9.421875 0 
z
M 9.421875 75.984375 
L 18.40625 75.984375 
L 18.40625 64.59375 
L 9.421875 64.59375 
z
" id="DejaVuSans-105"/>
      <path d="M 52 44.1875 
Q 55.375 50.25 60.0625 53.125 
Q 64.75 56 71.09375 56 
Q 79.640625 56 84.28125 50.015625 
Q 88.921875 44.046875 88.921875 33.015625 
L 88.921875 0 
L 79.890625 0 
L 79.890625 32.71875 
Q 79.890625 40.578125 77.09375 44.375 
Q 74.3125 48.1875 68.609375 48.1875 
Q 61.625 48.1875 57.5625 43.546875 
Q 53.515625 38.921875 53.515625 30.90625 
L 53.515625 0 
L 44.484375 0 
L 44.484375 32.71875 
Q 44.484375 40.625 41.703125 44.40625 
Q 38.921875 48.1875 33.109375 48.1875 
Q 26.21875 48.1875 22.15625 43.53125 
Q 18.109375 38.875 18.109375 30.90625 
L 18.109375 0 
L 9.078125 0 
L 9.078125 54.6875 
L 18.109375 54.6875 
L 18.109375 46.1875 
Q 21.1875 51.21875 25.484375 53.609375 
Q 29.78125 56 35.6875 56 
Q 41.65625 56 45.828125 52.96875 
Q 50 49.953125 52 44.1875 
z
" id="DejaVuSans-109"/>
      <path d="M 56.203125 29.59375 
L 56.203125 25.203125 
L 14.890625 25.203125 
Q 15.484375 15.921875 20.484375 11.0625 
Q 25.484375 6.203125 34.421875 6.203125 
Q 39.59375 6.203125 44.453125 7.46875 
Q 49.3125 8.734375 54.109375 11.28125 
L 54.109375 2.78125 
Q 49.265625 0.734375 44.1875 -0.34375 
Q 39.109375 -1.421875 33.890625 -1.421875 
Q 20.796875 -1.421875 13.15625 6.1875 
Q 5.515625 13.8125 5.515625 26.8125 
Q 5.515625 40.234375 12.765625 48.109375 
Q 20.015625 56 32.328125 56 
Q 43.359375 56 49.78125 48.890625 
Q 56.203125 41.796875 56.203125 29.59375 
z
M 47.21875 32.234375 
Q 47.125 39.59375 43.09375 43.984375 
Q 39.0625 48.390625 32.421875 48.390625 
Q 24.90625 48.390625 20.390625 44.140625 
Q 15.875 39.890625 15.1875 32.171875 
z
" id="DejaVuSans-101"/>
      <path id="DejaVuSans-32"/>
      <path d="M 31 75.875 
Q 24.46875 64.65625 21.28125 53.65625 
Q 18.109375 42.671875 18.109375 31.390625 
Q 18.109375 20.125 21.3125 9.0625 
Q 24.515625 -2 31 -13.1875 
L 23.1875 -13.1875 
Q 15.875 -1.703125 12.234375 9.375 
Q 8.59375 20.453125 8.59375 31.390625 
Q 8.59375 42.28125 12.203125 53.3125 
Q 15.828125 64.359375 23.1875 75.875 
z
" id="DejaVuSans-40"/>
      <path d="M 44.28125 53.078125 
L 44.28125 44.578125 
Q 40.484375 46.53125 36.375 47.5 
Q 32.28125 48.484375 27.875 48.484375 
Q 21.1875 48.484375 17.84375 46.4375 
Q 14.5 44.390625 14.5 40.28125 
Q 14.5 37.15625 16.890625 35.375 
Q 19.28125 33.59375 26.515625 31.984375 
L 29.59375 31.296875 
Q 39.15625 29.25 43.1875 25.515625 
Q 47.21875 21.78125 47.21875 15.09375 
Q 47.21875 7.46875 41.1875 3.015625 
Q 35.15625 -1.421875 24.609375 -1.421875 
Q 20.21875 -1.421875 15.453125 -0.5625 
Q 10.6875 0.296875 5.421875 2 
L 5.421875 11.28125 
Q 10.40625 8.6875 15.234375 7.390625 
Q 20.0625 6.109375 24.8125 6.109375 
Q 31.15625 6.109375 34.5625 8.28125 
Q 37.984375 10.453125 37.984375 14.40625 
Q 37.984375 18.0625 35.515625 20.015625 
Q 33.0625 21.96875 24.703125 23.78125 
L 21.578125 24.515625 
Q 13.234375 26.265625 9.515625 29.90625 
Q 5.8125 33.546875 5.8125 39.890625 
Q 5.8125 47.609375 11.28125 51.796875 
Q 16.75 56 26.8125 56 
Q 31.78125 56 36.171875 55.265625 
Q 40.578125 54.546875 44.28125 53.078125 
z
" id="DejaVuSans-115"/>
      <path d="M 8.015625 75.875 
L 15.828125 75.875 
Q 23.140625 64.359375 26.78125 53.3125 
Q 30.421875 42.28125 30.421875 31.390625 
Q 30.421875 20.453125 26.78125 9.375 
Q 23.140625 -1.703125 15.828125 -13.1875 
L 8.015625 -13.1875 
Q 14.5 -2 17.703125 9.0625 
Q 20.90625 20.125 20.90625 31.390625 
Q 20.90625 42.671875 17.703125 53.65625 
Q 14.5 64.65625 8.015625 75.875 
z
" id="DejaVuSans-41"/>
     </defs>
     <g transform="translate(302.60475 225.7955)scale(0.144 -0.144)">
      <use xlink:href="#DejaVuSans-84"/>
      <use x="61.037109" xlink:href="#DejaVuSans-105"/>
      <use x="88.820312" xlink:href="#DejaVuSans-109"/>
      <use x="186.232422" xlink:href="#DejaVuSans-101"/>
      <use x="247.755859" xlink:href="#DejaVuSans-32"/>
      <use x="279.542969" xlink:href="#DejaVuSans-40"/>
      <use x="318.556641" xlink:href="#DejaVuSans-115"/>
      <use x="370.65625" xlink:href="#DejaVuSans-41"/>
     </g>
    </g>
   </g>
   <g id="matplotlib.axis_2">
    <g id="ytick_1">
     <g id="line2d_6">
      <defs>
       <path d="M 0 0 
L -3.5 0 
" id="mab53684699" style="stroke:#000000;stroke-width:0.8;"/>
      </defs>
      <g>
       <use style="stroke:#000000;stroke-width:0.8;" x="81" xlink:href="#mab53684699" y="165.481372"/>
      </g>
     </g>
     <g id="text_7">
      <!-- −0.02 -->
      <defs>
       <path d="M 10.59375 35.5 
L 73.1875 35.5 
L 73.1875 27.203125 
L 10.59375 27.203125 
z
" id="DejaVuSans-8722"/>
      </defs>
      <g transform="translate(37.225625 170.040434)scale(0.12 -0.12)">
       <use xlink:href="#DejaVuSans-8722"/>
       <use x="83.789062" xlink:href="#DejaVuSans-48"/>
       <use x="147.412109" xlink:href="#DejaVuSans-46"/>
       <use x="179.199219" xlink:href="#DejaVuSans-48"/>
       <use x="242.822266" xlink:href="#DejaVuSans-50"/>
      </g>
     </g>
    </g>
    <g id="ytick_2">
     <g id="line2d_7">
      <g>
       <use style="stroke:#000000;stroke-width:0.8;" x="81" xlink:href="#mab53684699" y="135.691256"/>
      </g>
     </g>
     <g id="text_8">
      <!-- 0.00 -->
      <g transform="translate(47.28125 140.250319)scale(0.12 -0.12)">
       <use xlink:href="#DejaVuSans-48"/>
       <use x="63.623047" xlink:href="#DejaVuSans-46"/>
       <use x="95.410156" xlink:href="#DejaVuSans-48"/>
       <use x="159.033203" xlink:href="#DejaVuSans-48"/>
      </g>
     </g>
    </g>
    <g id="ytick_3">
     <g id="line2d_8">
      <g>
       <use style="stroke:#000000;stroke-width:0.8;" x="81" xlink:href="#mab53684699" y="105.901141"/>
      </g>
     </g>
     <g id="text_9">
      <!-- 0.02 -->
      <g transform="translate(47.28125 110.460203)scale(0.12 -0.12)">
       <use xlink:href="#DejaVuSans-48"/>
       <use x="63.623047" xlink:href="#DejaVuSans-46"/>
       <use x="95.410156" xlink:href="#DejaVuSans-48"/>
       <use x="159.033203" xlink:href="#DejaVuSans-50"/>
      </g>
     </g>
    </g>
    <g id="ytick_4">
     <g id="line2d_9">
      <g>
       <use style="stroke:#000000;stroke-width:0.8;" x="81" xlink:href="#mab53684699" y="76.111025"/>
      </g>
     </g>
     <g id="text_10">
      <!-- 0.04 -->
      <defs>
       <path d="M 37.796875 64.3125 
L 12.890625 25.390625 
L 37.796875 25.390625 
z
M 35.203125 72.90625 
L 47.609375 72.90625 
L 47.609375 25.390625 
L 58.015625 25.390625 
L 58.015625 17.1875 
L 47.609375 17.1875 
L 47.609375 0 
L 37.796875 0 
L 37.796875 17.1875 
L 4.890625 17.1875 
L 4.890625 26.703125 
z
" id="DejaVuSans-52"/>
      </defs>
      <g transform="translate(47.28125 80.670088)scale(0.12 -0.12)">
       <use xlink:href="#DejaVuSans-48"/>
       <use x="63.623047" xlink:href="#DejaVuSans-46"/>
       <use x="95.410156" xlink:href="#DejaVuSans-48"/>
       <use x="159.033203" xlink:href="#DejaVuSans-52"/>
      </g>
     </g>
    </g>
    <g id="ytick_5">
     <g id="line2d_10">
      <g>
       <use style="stroke:#000000;stroke-width:0.8;" x="81" xlink:href="#mab53684699" y="46.32091"/>
      </g>
     </g>
     <g id="text_11">
      <!-- 0.06 -->
      <defs>
       <path d="M 33.015625 40.375 
Q 26.375 40.375 22.484375 35.828125 
Q 18.609375 31.296875 18.609375 23.390625 
Q 18.609375 15.53125 22.484375 10.953125 
Q 26.375 6.390625 33.015625 6.390625 
Q 39.65625 6.390625 43.53125 10.953125 
Q 47.40625 15.53125 47.40625 23.390625 
Q 47.40625 31.296875 43.53125 35.828125 
Q 39.65625 40.375 33.015625 40.375 
z
M 52.59375 71.296875 
L 52.59375 62.3125 
Q 48.875 64.0625 45.09375 64.984375 
Q 41.3125 65.921875 37.59375 65.921875 
Q 27.828125 65.921875 22.671875 59.328125 
Q 17.53125 52.734375 16.796875 39.40625 
Q 19.671875 43.65625 24.015625 45.921875 
Q 28.375 48.1875 33.59375 48.1875 
Q 44.578125 48.1875 50.953125 41.515625 
Q 57.328125 34.859375 57.328125 23.390625 
Q 57.328125 12.15625 50.6875 5.359375 
Q 44.046875 -1.421875 33.015625 -1.421875 
Q 20.359375 -1.421875 13.671875 8.265625 
Q 6.984375 17.96875 6.984375 36.375 
Q 6.984375 53.65625 15.1875 63.9375 
Q 23.390625 74.21875 37.203125 74.21875 
Q 40.921875 74.21875 44.703125 73.484375 
Q 48.484375 72.75 52.59375 71.296875 
z
" id="DejaVuSans-54"/>
      </defs>
      <g transform="translate(47.28125 50.879972)scale(0.12 -0.12)">
       <use xlink:href="#DejaVuSans-48"/>
       <use x="63.623047" xlink:href="#DejaVuSans-46"/>
       <use x="95.410156" xlink:href="#DejaVuSans-48"/>
       <use x="159.033203" xlink:href="#DejaVuSans-54"/>
      </g>
     </g>
    </g>
    <g id="text_12">
     <!-- Avg. Corr. Coef. -->
     <defs>
      <path d="M 34.1875 63.1875 
L 20.796875 26.90625 
L 47.609375 26.90625 
z
M 28.609375 72.90625 
L 39.796875 72.90625 
L 67.578125 0 
L 57.328125 0 
L 50.6875 18.703125 
L 17.828125 18.703125 
L 11.1875 0 
L 0.78125 0 
z
" id="DejaVuSans-65"/>
      <path d="M 2.984375 54.6875 
L 12.5 54.6875 
L 29.59375 8.796875 
L 46.6875 54.6875 
L 56.203125 54.6875 
L 35.6875 0 
L 23.484375 0 
z
" id="DejaVuSans-118"/>
      <path d="M 45.40625 27.984375 
Q 45.40625 37.75 41.375 43.109375 
Q 37.359375 48.484375 30.078125 48.484375 
Q 22.859375 48.484375 18.828125 43.109375 
Q 14.796875 37.75 14.796875 27.984375 
Q 14.796875 18.265625 18.828125 12.890625 
Q 22.859375 7.515625 30.078125 7.515625 
Q 37.359375 7.515625 41.375 12.890625 
Q 45.40625 18.265625 45.40625 27.984375 
z
M 54.390625 6.78125 
Q 54.390625 -7.171875 48.1875 -13.984375 
Q 42 -20.796875 29.203125 -20.796875 
Q 24.46875 -20.796875 20.265625 -20.09375 
Q 16.0625 -19.390625 12.109375 -17.921875 
L 12.109375 -9.1875 
Q 16.0625 -11.328125 19.921875 -12.34375 
Q 23.78125 -13.375 27.78125 -13.375 
Q 36.625 -13.375 41.015625 -8.765625 
Q 45.40625 -4.15625 45.40625 5.171875 
L 45.40625 9.625 
Q 42.625 4.78125 38.28125 2.390625 
Q 33.9375 0 27.875 0 
Q 17.828125 0 11.671875 7.65625 
Q 5.515625 15.328125 5.515625 27.984375 
Q 5.515625 40.671875 11.671875 48.328125 
Q 17.828125 56 27.875 56 
Q 33.9375 56 38.28125 53.609375 
Q 42.625 51.21875 45.40625 46.390625 
L 45.40625 54.6875 
L 54.390625 54.6875 
z
" id="DejaVuSans-103"/>
      <path d="M 64.40625 67.28125 
L 64.40625 56.890625 
Q 59.421875 61.53125 53.78125 63.8125 
Q 48.140625 66.109375 41.796875 66.109375 
Q 29.296875 66.109375 22.65625 58.46875 
Q 16.015625 50.828125 16.015625 36.375 
Q 16.015625 21.96875 22.65625 14.328125 
Q 29.296875 6.6875 41.796875 6.6875 
Q 48.140625 6.6875 53.78125 8.984375 
Q 59.421875 11.28125 64.40625 15.921875 
L 64.40625 5.609375 
Q 59.234375 2.09375 53.4375 0.328125 
Q 47.65625 -1.421875 41.21875 -1.421875 
Q 24.65625 -1.421875 15.125 8.703125 
Q 5.609375 18.84375 5.609375 36.375 
Q 5.609375 53.953125 15.125 64.078125 
Q 24.65625 74.21875 41.21875 74.21875 
Q 47.75 74.21875 53.53125 72.484375 
Q 59.328125 70.75 64.40625 67.28125 
z
" id="DejaVuSans-67"/>
      <path d="M 30.609375 48.390625 
Q 23.390625 48.390625 19.1875 42.75 
Q 14.984375 37.109375 14.984375 27.296875 
Q 14.984375 17.484375 19.15625 11.84375 
Q 23.34375 6.203125 30.609375 6.203125 
Q 37.796875 6.203125 41.984375 11.859375 
Q 46.1875 17.53125 46.1875 27.296875 
Q 46.1875 37.015625 41.984375 42.703125 
Q 37.796875 48.390625 30.609375 48.390625 
z
M 30.609375 56 
Q 42.328125 56 49.015625 48.375 
Q 55.71875 40.765625 55.71875 27.296875 
Q 55.71875 13.875 49.015625 6.21875 
Q 42.328125 -1.421875 30.609375 -1.421875 
Q 18.84375 -1.421875 12.171875 6.21875 
Q 5.515625 13.875 5.515625 27.296875 
Q 5.515625 40.765625 12.171875 48.375 
Q 18.84375 56 30.609375 56 
z
" id="DejaVuSans-111"/>
      <path d="M 41.109375 46.296875 
Q 39.59375 47.171875 37.8125 47.578125 
Q 36.03125 48 33.890625 48 
Q 26.265625 48 22.1875 43.046875 
Q 18.109375 38.09375 18.109375 28.8125 
L 18.109375 0 
L 9.078125 0 
L 9.078125 54.6875 
L 18.109375 54.6875 
L 18.109375 46.1875 
Q 20.953125 51.171875 25.484375 53.578125 
Q 30.03125 56 36.53125 56 
Q 37.453125 56 38.578125 55.875 
Q 39.703125 55.765625 41.0625 55.515625 
z
" id="DejaVuSans-114"/>
      <path d="M 37.109375 75.984375 
L 37.109375 68.5 
L 28.515625 68.5 
Q 23.6875 68.5 21.796875 66.546875 
Q 19.921875 64.59375 19.921875 59.515625 
L 19.921875 54.6875 
L 34.71875 54.6875 
L 34.71875 47.703125 
L 19.921875 47.703125 
L 19.921875 0 
L 10.890625 0 
L 10.890625 47.703125 
L 2.296875 47.703125 
L 2.296875 54.6875 
L 10.890625 54.6875 
L 10.890625 58.5 
Q 10.890625 67.625 15.140625 71.796875 
Q 19.390625 75.984375 28.609375 75.984375 
z
" id="DejaVuSans-102"/>
     </defs>
     <g transform="translate(30.230875 166.005)rotate(-90)scale(0.144 -0.144)">
      <use xlink:href="#DejaVuSans-65"/>
      <use x="68.330078" xlink:href="#DejaVuSans-118"/>
      <use x="127.509766" xlink:href="#DejaVuSans-103"/>
      <use x="190.986328" xlink:href="#DejaVuSans-46"/>
      <use x="222.773438" xlink:href="#DejaVuSans-32"/>
      <use x="254.560547" xlink:href="#DejaVuSans-67"/>
      <use x="324.384766" xlink:href="#DejaVuSans-111"/>
      <use x="385.566406" xlink:href="#DejaVuSans-114"/>
      <use x="426.664062" xlink:href="#DejaVuSans-114"/>
      <use x="467.636719" xlink:href="#DejaVuSans-46"/>
      <use x="499.423828" xlink:href="#DejaVuSans-32"/>
      <use x="531.210938" xlink:href="#DejaVuSans-67"/>
      <use x="601.035156" xlink:href="#DejaVuSans-111"/>
      <use x="662.216797" xlink:href="#DejaVuSans-101"/>
      <use x="723.740234" xlink:href="#DejaVuSans-102"/>
      <use x="758.835938" xlink:href="#DejaVuSans-46"/>
     </g>
    </g>
   </g>
   <g id="line2d_11">
    <path clip-path="url(#p3c44c06f76)" d="M 81 173.883712 
L 82.762105 136.814833 
L 84.524211 148.615541 
L 86.286316 153.314256 
L 88.048421 152.032478 
L 89.810526 158.127385 
L 91.572632 165.572148 
L 93.334737 166.388069 
L 95.096842 168.550086 
L 96.858947 168.313628 
L 98.621053 171.02241 
L 100.383158 163.598278 
L 102.145263 163.284837 
L 103.907368 165.662122 
L 105.669474 146.075515 
L 107.431579 149.421523 
L 109.193684 169.806122 
L 110.955789 173.883712 
L 112.717895 173.883712 
L 114.48 174.117265 
L 116.242105 161.079737 
L 118.004211 167.818328 
L 119.766316 167.26554 
L 121.528421 147.698893 
L 123.290526 166.495673 
L 125.052632 81.218763 
L 126.814737 173.989299 
L 128.576842 160.374474 
L 130.338947 157.524511 
L 132.101053 155.489117 
L 133.863158 154.388005 
L 135.625263 158.58846 
L 137.387368 146.496216 
L 139.149474 146.918521 
L 140.911579 172.726432 
L 142.673684 162.560492 
L 144.435789 166.805365 
L 146.197895 179.053354 
M 149.722105 178.98754 
L 151.484211 186.911591 
L 153.246316 160.957607 
L 155.008421 165.453989 
L 156.770526 166.835864 
L 158.532632 149.266799 
L 160.294737 142.705001 
L 162.056842 148.160602 
L 163.818947 165.502086 
L 165.581053 148.950153 
L 167.343158 144.146687 
L 169.105263 172.826389 
L 170.867368 169.200998 
L 172.629474 148.242459 
L 174.391579 158.778853 
L 176.153684 128.979343 
L 177.915789 147.410351 
L 179.677895 141.007056 
L 181.44 153.978612 
L 183.202105 170.131867 
L 184.964211 161.429092 
L 186.726316 164.835186 
L 188.488421 124.174009 
L 190.250526 168.996811 
L 192.012632 166.116909 
L 193.774737 166.92932 
L 195.536842 166.185149 
L 197.298947 173.663869 
L 199.061053 169.572434 
L 200.823158 170.385773 
L 202.585263 166.488982 
L 204.347368 162.04334 
L 206.109474 156.829758 
L 207.871579 147.070445 
L 209.633684 156.085483 
L 211.395789 159.276043 
L 213.157895 158.78567 
L 214.92 160.112327 
L 216.682105 161.140574 
L 218.444211 167.322431 
L 220.206316 170.192625 
L 221.968421 162.044407 
L 223.730526 162.802023 
L 225.492632 164.356647 
L 227.254737 158.767472 
L 229.016842 148.84445 
L 230.778947 151.767466 
L 232.541053 160.187496 
L 234.303158 159.632587 
L 236.065263 151.825509 
L 237.827368 166.004782 
M 241.351579 167.728517 
L 243.113684 166.841952 
L 244.875789 169.326327 
L 246.637895 163.831808 
L 248.4 158.984112 
L 250.162105 152.914655 
L 251.924211 144.569703 
L 253.686316 164.505843 
L 255.448421 160.429763 
L 257.210526 149.592147 
L 258.972632 146.357495 
L 260.734737 143.49851 
L 262.496842 146.736683 
L 264.258947 159.497052 
L 266.021053 161.678297 
L 267.783158 167.304569 
L 269.545263 157.847807 
L 271.307368 163.294267 
L 273.069474 160.911397 
L 274.831579 163.052784 
L 276.593684 173.797588 
L 278.355789 165.639318 
L 280.117895 97.345164 
L 281.88 138.415711 
L 283.642105 176.755325 
L 285.404211 163.707048 
L 287.166316 169.51463 
L 288.928421 169.330319 
L 290.690526 170.022025 
L 292.452632 167.89853 
L 294.214737 166.180705 
L 295.976842 165.589054 
L 297.738947 171.956591 
M 301.263158 174.108669 
L 303.025263 169.5081 
L 304.787368 173.579713 
L 306.549474 178.029581 
L 308.311579 173.883712 
L 310.073684 156.199717 
L 311.835789 147.035865 
L 313.597895 143.2479 
L 315.36 160.325933 
L 317.122105 165.431019 
L 318.884211 155.912677 
L 320.646316 164.605526 
L 322.408421 168.223103 
L 324.170526 173.883712 
L 325.932632 157.636642 
L 327.694737 149.658544 
L 329.456842 146.03636 
L 331.218947 154.134689 
L 332.981053 145.643067 
L 334.743158 145.645647 
L 336.505263 163.007085 
L 338.267368 162.079081 
L 340.029474 152.048681 
L 341.791579 158.444138 
L 343.553684 154.465073 
L 345.315789 143.8371 
L 347.077895 147.908561 
L 348.84 167.310062 
L 350.602105 164.427513 
L 352.364211 166.020273 
L 354.126316 150.562565 
L 355.888421 159.253897 
L 357.650526 154.424131 
L 361.174737 152.191751 
L 362.936842 151.269915 
L 364.698947 148.69823 
L 366.461053 151.581552 
L 368.223158 159.508065 
L 369.985263 160.817451 
L 371.747368 162.642023 
L 373.509474 159.336113 
L 375.271579 156.914361 
L 377.033684 166.346027 
L 378.795789 172.396661 
L 380.557895 168.211399 
L 382.32 174.719921 
L 384.082105 177.630983 
L 385.844211 162.801123 
L 387.606316 165.982756 
L 389.368421 169.471932 
L 391.130526 173.883712 
L 392.892632 173.883712 
L 394.654737 167.843556 
L 396.416842 162.320154 
L 398.178947 168.080568 
L 399.941053 167.900681 
L 401.703158 166.696496 
L 403.465263 158.566539 
L 405.227368 168.322831 
L 406.989474 170.94543 
L 408.751579 166.329271 
L 410.513684 167.103692 
L 412.275789 163.108851 
L 414.037895 172.928261 
M 417.562105 162.157478 
L 419.324211 159.730506 
L 421.086316 173.331602 
L 422.848421 171.129536 
L 424.610526 170.90961 
L 426.372632 165.240241 
L 428.134737 173.883712 
L 429.896842 144.075773 
L 431.658947 139.789452 
L 433.421053 138.862477 
L 435.183158 141.158708 
L 436.945263 144.176703 
L 438.707368 143.977813 
L 440.469474 140.729432 
L 442.231579 140.116515 
L 443.993684 142.867139 
L 445.755789 138.642495 
L 447.517895 139.103289 
L 449.28 140.236595 
L 451.042105 142.545919 
L 452.804211 170.266455 
L 454.566316 155.045671 
L 456.328421 142.486031 
L 458.090526 141.327886 
L 461.614737 141.009708 
L 463.376842 141.638865 
L 465.138947 143.019333 
L 466.901053 140.311382 
L 468.663158 139.826381 
L 470.425263 141.434408 
L 472.187368 145.544153 
L 473.949474 144.466209 
L 475.711579 143.03983 
L 477.473684 149.189614 
L 479.235789 154.746584 
L 480.997895 141.892696 
L 482.76 141.254921 
L 484.522105 142.029748 
L 486.284211 145.793719 
L 488.046316 148.466052 
L 489.808421 152.541047 
L 491.570526 154.396025 
L 493.332632 159.956318 
L 495.094737 162.639731 
L 496.856842 170.987275 
L 498.618947 127.227352 
L 500.381053 155.771393 
L 502.143158 160.808514 
L 503.905263 148.305097 
L 505.667368 145.153884 
L 507.429474 142.75812 
L 509.191579 154.734252 
L 510.953684 157.406808 
L 512.715789 155.643277 
L 514.477895 144.70241 
L 516.24 154.490367 
L 518.002105 158.975285 
L 521.526316 150.09931 
L 523.288421 155.960312 
L 525.050526 176.970875 
L 526.812632 171.746719 
L 528.574737 165.526493 
L 530.336842 154.523293 
L 532.098947 145.419809 
L 533.861053 145.36475 
L 535.623158 152.329874 
L 537.385263 157.273164 
L 539.147368 150.870071 
L 540.909474 160.535025 
L 542.671579 162.281575 
L 544.433684 146.851563 
L 546.195789 157.593849 
L 547.957895 150.853095 
L 549.72 169.307716 
L 551.482105 170.351236 
L 553.244211 158.704743 
L 555.006316 155.120369 
L 556.768421 163.927221 
L 558.530526 156.845319 
L 560.292632 157.56852 
L 562.054737 163.713275 
L 563.816842 161.547221 
L 565.578947 163.349608 
L 567.341053 170.809205 
L 569.103158 161.667081 
L 570.865263 157.910191 
L 572.627368 163.102766 
L 574.389474 148.392699 
L 576.151579 146.659347 
L 577.913684 166.548588 
L 579.675789 165.773567 
L 581.437895 171.284864 
L 583.2 169.98323 
L 583.2 169.98323 
" style="fill:none;stroke:#0000ff;stroke-linecap:square;stroke-width:1.5;"/>
   </g>
   <g id="patch_3">
    <path d="M 81 192.24 
L 81 25.92 
" style="fill:none;stroke:#000000;stroke-linecap:square;stroke-linejoin:miter;stroke-width:0.8;"/>
   </g>
   <g id="patch_4">
    <path d="M 583.2 192.24 
L 583.2 25.92 
" style="fill:none;stroke:#000000;stroke-linecap:square;stroke-linejoin:miter;stroke-width:0.8;"/>
   </g>
   <g id="patch_5">
    <path d="M 81 192.24 
L 583.2 192.24 
" style="fill:none;stroke:#000000;stroke-linecap:square;stroke-linejoin:miter;stroke-width:0.8;"/>
   </g>
   <g id="patch_6">
    <path d="M 81 25.92 
L 583.2 25.92 
" style="fill:none;stroke:#000000;stroke-linecap:square;stroke-linejoin:miter;stroke-width:0.8;"/>
   </g>
   <g id="text_13">
    <!-- V1, Num Trials=160 All stimulated trials -->
    <defs>
     <path d="M 28.609375 0 
L 0.78125 72.90625 
L 11.078125 72.90625 
L 34.1875 11.53125 
L 57.328125 72.90625 
L 67.578125 72.90625 
L 39.796875 0 
z
" id="DejaVuSans-86"/>
     <path d="M 11.71875 12.40625 
L 22.015625 12.40625 
L 22.015625 4 
L 14.015625 -11.625 
L 7.71875 -11.625 
L 11.71875 4 
z
" id="DejaVuSans-44"/>
     <path d="M 9.8125 72.90625 
L 23.09375 72.90625 
L 55.421875 11.921875 
L 55.421875 72.90625 
L 64.984375 72.90625 
L 64.984375 0 
L 51.703125 0 
L 19.390625 60.984375 
L 19.390625 0 
L 9.8125 0 
z
" id="DejaVuSans-78"/>
     <path d="M 8.5 21.578125 
L 8.5 54.6875 
L 17.484375 54.6875 
L 17.484375 21.921875 
Q 17.484375 14.15625 20.5 10.265625 
Q 23.53125 6.390625 29.59375 6.390625 
Q 36.859375 6.390625 41.078125 11.03125 
Q 45.3125 15.671875 45.3125 23.6875 
L 45.3125 54.6875 
L 54.296875 54.6875 
L 54.296875 0 
L 45.3125 0 
L 45.3125 8.40625 
Q 42.046875 3.421875 37.71875 1 
Q 33.40625 -1.421875 27.6875 -1.421875 
Q 18.265625 -1.421875 13.375 4.4375 
Q 8.5 10.296875 8.5 21.578125 
z
M 31.109375 56 
z
" id="DejaVuSans-117"/>
     <path d="M 34.28125 27.484375 
Q 23.390625 27.484375 19.1875 25 
Q 14.984375 22.515625 14.984375 16.5 
Q 14.984375 11.71875 18.140625 8.90625 
Q 21.296875 6.109375 26.703125 6.109375 
Q 34.1875 6.109375 38.703125 11.40625 
Q 43.21875 16.703125 43.21875 25.484375 
L 43.21875 27.484375 
z
M 52.203125 31.203125 
L 52.203125 0 
L 43.21875 0 
L 43.21875 8.296875 
Q 40.140625 3.328125 35.546875 0.953125 
Q 30.953125 -1.421875 24.3125 -1.421875 
Q 15.921875 -1.421875 10.953125 3.296875 
Q 6 8.015625 6 15.921875 
Q 6 25.140625 12.171875 29.828125 
Q 18.359375 34.515625 30.609375 34.515625 
L 43.21875 34.515625 
L 43.21875 35.40625 
Q 43.21875 41.609375 39.140625 45 
Q 35.0625 48.390625 27.6875 48.390625 
Q 23 48.390625 18.546875 47.265625 
Q 14.109375 46.140625 10.015625 43.890625 
L 10.015625 52.203125 
Q 14.9375 54.109375 19.578125 55.046875 
Q 24.21875 56 28.609375 56 
Q 40.484375 56 46.34375 49.84375 
Q 52.203125 43.703125 52.203125 31.203125 
z
" id="DejaVuSans-97"/>
     <path d="M 9.421875 75.984375 
L 18.40625 75.984375 
L 18.40625 0 
L 9.421875 0 
z
" id="DejaVuSans-108"/>
     <path d="M 10.59375 45.40625 
L 73.1875 45.40625 
L 73.1875 37.203125 
L 10.59375 37.203125 
z
M 10.59375 25.484375 
L 73.1875 25.484375 
L 73.1875 17.1875 
L 10.59375 17.1875 
z
" id="DejaVuSans-61"/>
     <path d="M 18.3125 70.21875 
L 18.3125 54.6875 
L 36.8125 54.6875 
L 36.8125 47.703125 
L 18.3125 47.703125 
L 18.3125 18.015625 
Q 18.3125 11.328125 20.140625 9.421875 
Q 21.96875 7.515625 27.59375 7.515625 
L 36.8125 7.515625 
L 36.8125 0 
L 27.59375 0 
Q 17.1875 0 13.234375 3.875 
Q 9.28125 7.765625 9.28125 18.015625 
L 9.28125 47.703125 
L 2.6875 47.703125 
L 2.6875 54.6875 
L 9.28125 54.6875 
L 9.28125 70.21875 
z
" id="DejaVuSans-116"/>
     <path d="M 45.40625 46.390625 
L 45.40625 75.984375 
L 54.390625 75.984375 
L 54.390625 0 
L 45.40625 0 
L 45.40625 8.203125 
Q 42.578125 3.328125 38.25 0.953125 
Q 33.9375 -1.421875 27.875 -1.421875 
Q 17.96875 -1.421875 11.734375 6.484375 
Q 5.515625 14.40625 5.515625 27.296875 
Q 5.515625 40.1875 11.734375 48.09375 
Q 17.96875 56 27.875 56 
Q 33.9375 56 38.25 53.625 
Q 42.578125 51.265625 45.40625 46.390625 
z
M 14.796875 27.296875 
Q 14.796875 17.390625 18.875 11.75 
Q 22.953125 6.109375 30.078125 6.109375 
Q 37.203125 6.109375 41.296875 11.75 
Q 45.40625 17.390625 45.40625 27.296875 
Q 45.40625 37.203125 41.296875 42.84375 
Q 37.203125 48.484375 30.078125 48.484375 
Q 22.953125 48.484375 18.875 42.84375 
Q 14.796875 37.203125 14.796875 27.296875 
z
" id="DejaVuSans-100"/>
    </defs>
    <g transform="translate(211.485 19.92)scale(0.12 -0.12)">
     <use xlink:href="#DejaVuSans-86"/>
     <use x="68.408203" xlink:href="#DejaVuSans-49"/>
     <use x="132.03125" xlink:href="#DejaVuSans-44"/>
     <use x="163.818359" xlink:href="#DejaVuSans-32"/>
     <use x="195.605469" xlink:href="#DejaVuSans-78"/>
     <use x="270.410156" xlink:href="#DejaVuSans-117"/>
     <use x="333.789062" xlink:href="#DejaVuSans-109"/>
     <use x="431.201172" xlink:href="#DejaVuSans-32"/>
     <use x="462.988281" xlink:href="#DejaVuSans-84"/>
     <use x="523.853516" xlink:href="#DejaVuSans-114"/>
     <use x="564.966797" xlink:href="#DejaVuSans-105"/>
     <use x="592.75" xlink:href="#DejaVuSans-97"/>
     <use x="654.029297" xlink:href="#DejaVuSans-108"/>
     <use x="681.8125" xlink:href="#DejaVuSans-115"/>
     <use x="733.912109" xlink:href="#DejaVuSans-61"/>
     <use x="817.701172" xlink:href="#DejaVuSans-49"/>
     <use x="881.324219" xlink:href="#DejaVuSans-54"/>
     <use x="944.947266" xlink:href="#DejaVuSans-48"/>
     <use x="1008.570312" xlink:href="#DejaVuSans-32"/>
     <use x="1040.357422" xlink:href="#DejaVuSans-65"/>
     <use x="1108.765625" xlink:href="#DejaVuSans-108"/>
     <use x="1136.548828" xlink:href="#DejaVuSans-108"/>
     <use x="1164.332031" xlink:href="#DejaVuSans-32"/>
     <use x="1196.119141" xlink:href="#DejaVuSans-115"/>
     <use x="1248.21875" xlink:href="#DejaVuSans-116"/>
     <use x="1287.427734" xlink:href="#DejaVuSans-105"/>
     <use x="1315.210938" xlink:href="#DejaVuSans-109"/>
     <use x="1412.623047" xlink:href="#DejaVuSans-117"/>
     <use x="1476.001953" xlink:href="#DejaVuSans-108"/>
     <use x="1503.785156" xlink:href="#DejaVuSans-97"/>
     <use x="1565.064453" xlink:href="#DejaVuSans-116"/>
     <use x="1604.273438" xlink:href="#DejaVuSans-101"/>
     <use x="1665.796875" xlink:href="#DejaVuSans-100"/>
     <use x="1729.273438" xlink:href="#DejaVuSans-32"/>
     <use x="1761.060547" xlink:href="#DejaVuSans-116"/>
     <use x="1800.269531" xlink:href="#DejaVuSans-114"/>
     <use x="1841.382812" xlink:href="#DejaVuSans-105"/>
     <use x="1869.166016" xlink:href="#DejaVuSans-97"/>
     <use x="1930.445312" xlink:href="#DejaVuSans-108"/>
     <use x="1958.228516" xlink:href="#DejaVuSans-115"/>
    </g>
   </g>
   <g id="legend_1">
    <g id="patch_7">
     <path d="M 476.469375 70.7475 
L 574.8 70.7475 
Q 577.2 70.7475 577.2 68.3475 
L 577.2 34.32 
Q 577.2 31.92 574.8 31.92 
L 476.469375 31.92 
Q 474.069375 31.92 474.069375 34.32 
L 474.069375 68.3475 
Q 474.069375 70.7475 476.469375 70.7475 
z
" style="fill:#ffffff;opacity:0.8;stroke:#cccccc;stroke-linejoin:miter;"/>
    </g>
    <g id="line2d_12">
     <path d="M 478.869375 41.638125 
L 502.869375 41.638125 
" style="fill:none;stroke:#0000ff;stroke-linecap:square;stroke-width:1.5;"/>
    </g>
    <g id="line2d_13"/>
    <g id="text_14">
     <!-- Avg. Corr. -->
     <g transform="translate(512.469375 45.838125)scale(0.12 -0.12)">
      <use xlink:href="#DejaVuSans-65"/>
      <use x="68.330078" xlink:href="#DejaVuSans-118"/>
      <use x="127.509766" xlink:href="#DejaVuSans-103"/>
      <use x="190.986328" xlink:href="#DejaVuSans-46"/>
      <use x="222.773438" xlink:href="#DejaVuSans-32"/>
      <use x="254.560547" xlink:href="#DejaVuSans-67"/>
      <use x="324.384766" xlink:href="#DejaVuSans-111"/>
      <use x="385.566406" xlink:href="#DejaVuSans-114"/>
      <use x="426.664062" xlink:href="#DejaVuSans-114"/>
      <use x="467.636719" xlink:href="#DejaVuSans-46"/>
     </g>
    </g>
    <g id="patch_8">
     <path d="M 478.869375 63.451875 
L 502.869375 63.451875 
L 502.869375 55.051875 
L 478.869375 55.051875 
z
" style="fill:#0000ff;opacity:0.3;stroke:#0000ff;stroke-linejoin:miter;"/>
    </g>
    <g id="text_15">
     <!-- Std. Err. -->
     <defs>
      <path d="M 53.515625 70.515625 
L 53.515625 60.890625 
Q 47.90625 63.578125 42.921875 64.890625 
Q 37.9375 66.21875 33.296875 66.21875 
Q 25.25 66.21875 20.875 63.09375 
Q 16.5 59.96875 16.5 54.203125 
Q 16.5 49.359375 19.40625 46.890625 
Q 22.3125 44.4375 30.421875 42.921875 
L 36.375 41.703125 
Q 47.40625 39.59375 52.65625 34.296875 
Q 57.90625 29 57.90625 20.125 
Q 57.90625 9.515625 50.796875 4.046875 
Q 43.703125 -1.421875 29.984375 -1.421875 
Q 24.8125 -1.421875 18.96875 -0.25 
Q 13.140625 0.921875 6.890625 3.21875 
L 6.890625 13.375 
Q 12.890625 10.015625 18.65625 8.296875 
Q 24.421875 6.59375 29.984375 6.59375 
Q 38.421875 6.59375 43.015625 9.90625 
Q 47.609375 13.234375 47.609375 19.390625 
Q 47.609375 24.75 44.3125 27.78125 
Q 41.015625 30.8125 33.5 32.328125 
L 27.484375 33.5 
Q 16.453125 35.6875 11.515625 40.375 
Q 6.59375 45.0625 6.59375 53.421875 
Q 6.59375 63.09375 13.40625 68.65625 
Q 20.21875 74.21875 32.171875 74.21875 
Q 37.3125 74.21875 42.625 73.28125 
Q 47.953125 72.359375 53.515625 70.515625 
z
" id="DejaVuSans-83"/>
      <path d="M 9.8125 72.90625 
L 55.90625 72.90625 
L 55.90625 64.59375 
L 19.671875 64.59375 
L 19.671875 43.015625 
L 54.390625 43.015625 
L 54.390625 34.71875 
L 19.671875 34.71875 
L 19.671875 8.296875 
L 56.78125 8.296875 
L 56.78125 0 
L 9.8125 0 
z
" id="DejaVuSans-69"/>
     </defs>
     <g transform="translate(512.469375 63.451875)scale(0.12 -0.12)">
      <use xlink:href="#DejaVuSans-83"/>
      <use x="63.476562" xlink:href="#DejaVuSans-116"/>
      <use x="102.685547" xlink:href="#DejaVuSans-100"/>
      <use x="166.162109" xlink:href="#DejaVuSans-46"/>
      <use x="197.949219" xlink:href="#DejaVuSans-32"/>
      <use x="229.736328" xlink:href="#DejaVuSans-69"/>
      <use x="292.919922" xlink:href="#DejaVuSans-114"/>
      <use x="334.017578" xlink:href="#DejaVuSans-114"/>
      <use x="374.990234" xlink:href="#DejaVuSans-46"/>
     </g>
    </g>
   </g>
  </g>
 </g>
 <defs>
  <clipPath id="p3c44c06f76">
   <rect height="166.32" width="502.2" x="81" y="25.92"/>
  </clipPath>
 </defs>
</svg>
